0, 0, Header, 1, 9, 192
1, 0, Start_track
1, 0, Tempo, 461538
1, 0, Time_signature, 4, 2, 24, 8
1, 0, Key_signature, 0, "major"
1, 0, End_track
2, 0, Start_track
2, 0, Title_t, "tuba"
2, 0, Channel_prefix, 0
2, 0, Control_c, 0, 7, 115
2, 0, Program_c, 0, 58
2, 0, Control_c, 0, 0, 0
2, 0, Control_c, 0, 91, 97
2, 0, Control_c, 0, 93, 5
2, 0, Note_on_c, 0, 55, 100
2, 0, Note_on_c, 0, 52, 100
2, 0, Note_on_c, 0, 48, 100
2, 94, Note_off_c, 0, 48, 0
2, 94, Note_off_c, 0, 52, 0
2, 94, Note_off_c, 0, 55, 0
2, 288, Note_on_c, 0, 55, 100
2, 288, Note_on_c, 0, 52, 100
2, 288, Note_on_c, 0, 48, 100
2, 310, Note_off_c, 0, 48, 0
2, 310, Note_off_c, 0, 52, 0
2, 310, Note_off_c, 0, 55, 0
2, 336, Note_on_c, 0, 52, 100
2, 336, Note_on_c, 0, 55, 100
2, 336, Note_on_c, 0, 48, 100
2, 358, Note_off_c, 0, 48, 0
2, 358, Note_off_c, 0, 55, 0
2, 358, Note_off_c, 0, 52, 0
2, 384, Note_on_c, 0, 52, 100
2, 384, Note_on_c, 0, 55, 100
2, 384, Note_on_c, 0, 48, 100
2, 478, Note_off_c, 0, 48, 0
2, 478, Note_off_c, 0, 55, 0
2, 478, Note_off_c, 0, 52, 0
2, 768, Note_on_c, 0, 55, 100
2, 768, Note_on_c, 0, 52, 100
2, 768, Note_on_c, 0, 48, 100
2, 862, Note_off_c, 0, 48, 0
2, 862, Note_off_c, 0, 52, 0
2, 862, Note_off_c, 0, 55, 0
2, 1056, Note_on_c, 0, 55, 100
2, 1056, Note_on_c, 0, 52, 100
2, 1056, Note_on_c, 0, 48, 100
2, 1078, Note_off_c, 0, 48, 0
2, 1078, Note_off_c, 0, 52, 0
2, 1078, Note_off_c, 0, 55, 0
2, 1104, Note_on_c, 0, 52, 100
2, 1104, Note_on_c, 0, 55, 100
2, 1104, Note_on_c, 0, 48, 100
2, 1126, Note_off_c, 0, 48, 0
2, 1126, Note_off_c, 0, 55, 0
2, 1126, Note_off_c, 0, 52, 0
2, 1152, Note_on_c, 0, 55, 100
2, 1152, Note_on_c, 0, 52, 100
2, 1152, Note_on_c, 0, 48, 100
2, 1174, Note_off_c, 0, 48, 0
2, 1174, Note_off_c, 0, 52, 0
2, 1174, Note_off_c, 0, 55, 0
2, 1200, Note_on_c, 0, 48, 100
2, 1200, Note_on_c, 0, 52, 100
2, 1200, Note_on_c, 0, 55, 100
2, 1246, Note_off_c, 0, 55, 0
2, 1246, Note_off_c, 0, 52, 0
2, 1246, Note_off_c, 0, 48, 0
2, 1536, Note_on_c, 0, 55, 100
2, 1536, Note_on_c, 0, 52, 100
2, 1536, Note_on_c, 0, 48, 100
2, 1630, Note_off_c, 0, 48, 0
2, 1630, Note_off_c, 0, 52, 0
2, 1630, Note_off_c, 0, 55, 0
2, 1824, Note_on_c, 0, 55, 100
2, 1824, Note_on_c, 0, 52, 100
2, 1824, Note_on_c, 0, 48, 100
2, 1846, Note_off_c, 0, 48, 0
2, 1846, Note_off_c, 0, 52, 0
2, 1846, Note_off_c, 0, 55, 0
2, 1872, Note_on_c, 0, 52, 100
2, 1872, Note_on_c, 0, 55, 100
2, 1872, Note_on_c, 0, 48, 100
2, 1894, Note_off_c, 0, 48, 0
2, 1894, Note_off_c, 0, 55, 0
2, 1894, Note_off_c, 0, 52, 0
2, 1920, Note_on_c, 0, 52, 100
2, 1920, Note_on_c, 0, 55, 100
2, 1920, Note_on_c, 0, 48, 100
2, 2014, Note_off_c, 0, 48, 0
2, 2014, Note_off_c, 0, 55, 0
2, 2014, Note_off_c, 0, 52, 0
2, 2304, Note_on_c, 0, 55, 100
2, 2304, Note_on_c, 0, 52, 100
2, 2304, Note_on_c, 0, 48, 100
2, 2398, Note_off_c, 0, 48, 0
2, 2398, Note_off_c, 0, 52, 0
2, 2398, Note_off_c, 0, 55, 0
2, 2592, Note_on_c, 0, 55, 100
2, 2592, Note_on_c, 0, 52, 100
2, 2592, Note_on_c, 0, 48, 100
2, 2614, Note_off_c, 0, 48, 0
2, 2614, Note_off_c, 0, 52, 0
2, 2614, Note_off_c, 0, 55, 0
2, 2640, Note_on_c, 0, 52, 100
2, 2640, Note_on_c, 0, 55, 100
2, 2640, Note_on_c, 0, 48, 100
2, 2662, Note_off_c, 0, 48, 0
2, 2662, Note_off_c, 0, 55, 0
2, 2662, Note_off_c, 0, 52, 0
2, 2688, Note_on_c, 0, 55, 100
2, 2688, Note_on_c, 0, 52, 100
2, 2688, Note_on_c, 0, 48, 100
2, 2710, Note_off_c, 0, 48, 0
2, 2710, Note_off_c, 0, 52, 0
2, 2710, Note_off_c, 0, 55, 0
2, 2736, Note_on_c, 0, 48, 100
2, 2736, Note_on_c, 0, 52, 100
2, 2736, Note_on_c, 0, 55, 100
2, 2782, Note_off_c, 0, 55, 0
2, 2782, Note_off_c, 0, 52, 0
2, 2782, Note_off_c, 0, 48, 0
2, 3072, Note_on_c, 0, 55, 100
2, 3072, Note_on_c, 0, 52, 100
2, 3072, Note_on_c, 0, 48, 100
2, 3166, Note_off_c, 0, 48, 0
2, 3166, Note_off_c, 0, 52, 0
2, 3166, Note_off_c, 0, 55, 0
2, 3360, Note_on_c, 0, 55, 100
2, 3360, Note_on_c, 0, 52, 100
2, 3360, Note_on_c, 0, 48, 100
2, 3382, Note_off_c, 0, 48, 0
2, 3382, Note_off_c, 0, 52, 0
2, 3382, Note_off_c, 0, 55, 0
2, 3408, Note_on_c, 0, 52, 100
2, 3408, Note_on_c, 0, 55, 100
2, 3408, Note_on_c, 0, 48, 100
2, 3430, Note_off_c, 0, 48, 0
2, 3430, Note_off_c, 0, 55, 0
2, 3430, Note_off_c, 0, 52, 0
2, 3456, Note_on_c, 0, 48, 100
2, 3456, Note_on_c, 0, 52, 100
2, 3456, Note_on_c, 0, 55, 100
2, 3550, Note_off_c, 0, 55, 0
2, 3550, Note_off_c, 0, 52, 0
2, 3550, Note_off_c, 0, 48, 0
2, 3840, Note_on_c, 0, 55, 100
2, 3840, Note_on_c, 0, 52, 100
2, 3840, Note_on_c, 0, 48, 100
2, 3934, Note_off_c, 0, 48, 0
2, 3934, Note_off_c, 0, 52, 0
2, 3934, Note_off_c, 0, 55, 0
2, 4128, Note_on_c, 0, 55, 100
2, 4128, Note_on_c, 0, 52, 100
2, 4128, Note_on_c, 0, 48, 100
2, 4150, Note_off_c, 0, 48, 0
2, 4150, Note_off_c, 0, 52, 0
2, 4150, Note_off_c, 0, 55, 0
2, 4176, Note_on_c, 0, 52, 100
2, 4176, Note_on_c, 0, 55, 100
2, 4176, Note_on_c, 0, 48, 100
2, 4198, Note_off_c, 0, 48, 0
2, 4198, Note_off_c, 0, 55, 0
2, 4198, Note_off_c, 0, 52, 0
2, 4224, Note_on_c, 0, 55, 100
2, 4224, Note_on_c, 0, 52, 100
2, 4224, Note_on_c, 0, 48, 100
2, 4246, Note_off_c, 0, 48, 0
2, 4246, Note_off_c, 0, 52, 0
2, 4246, Note_off_c, 0, 55, 0
2, 4272, Note_on_c, 0, 52, 100
2, 4272, Note_on_c, 0, 55, 100
2, 4272, Note_on_c, 0, 48, 100
2, 4318, Note_off_c, 0, 48, 0
2, 4318, Note_off_c, 0, 55, 0
2, 4318, Note_off_c, 0, 52, 0
2, 4608, Note_on_c, 0, 55, 100
2, 4608, Note_on_c, 0, 52, 100
2, 4608, Note_on_c, 0, 48, 100
2, 4702, Note_off_c, 0, 48, 0
2, 4702, Note_off_c, 0, 52, 0
2, 4702, Note_off_c, 0, 55, 0
2, 4896, Note_on_c, 0, 55, 100
2, 4896, Note_on_c, 0, 52, 100
2, 4896, Note_on_c, 0, 48, 100
2, 4918, Note_off_c, 0, 48, 0
2, 4918, Note_off_c, 0, 52, 0
2, 4918, Note_off_c, 0, 55, 0
2, 4944, Note_on_c, 0, 52, 100
2, 4944, Note_on_c, 0, 55, 100
2, 4944, Note_on_c, 0, 48, 100
2, 4966, Note_off_c, 0, 48, 0
2, 4966, Note_off_c, 0, 55, 0
2, 4966, Note_off_c, 0, 52, 0
2, 4992, Note_on_c, 0, 52, 100
2, 4992, Note_on_c, 0, 55, 100
2, 4992, Note_on_c, 0, 48, 100
2, 5086, Note_off_c, 0, 48, 0
2, 5086, Note_off_c, 0, 55, 0
2, 5086, Note_off_c, 0, 52, 0
2, 5376, Note_on_c, 0, 55, 100
2, 5376, Note_on_c, 0, 52, 100
2, 5376, Note_on_c, 0, 48, 100
2, 5470, Note_off_c, 0, 48, 0
2, 5470, Note_off_c, 0, 52, 0
2, 5470, Note_off_c, 0, 55, 0
2, 5664, Note_on_c, 0, 55, 100
2, 5664, Note_on_c, 0, 52, 100
2, 5664, Note_on_c, 0, 48, 100
2, 5686, Note_off_c, 0, 48, 0
2, 5686, Note_off_c, 0, 52, 0
2, 5686, Note_off_c, 0, 55, 0
2, 5712, Note_on_c, 0, 52, 100
2, 5712, Note_on_c, 0, 55, 100
2, 5712, Note_on_c, 0, 48, 100
2, 5734, Note_off_c, 0, 48, 0
2, 5734, Note_off_c, 0, 55, 0
2, 5734, Note_off_c, 0, 52, 0
2, 5760, Note_on_c, 0, 55, 100
2, 5760, Note_on_c, 0, 52, 100
2, 5760, Note_on_c, 0, 48, 100
2, 5782, Note_off_c, 0, 48, 0
2, 5782, Note_off_c, 0, 52, 0
2, 5782, Note_off_c, 0, 55, 0
2, 5808, Note_on_c, 0, 48, 100
2, 5808, Note_on_c, 0, 52, 100
2, 5808, Note_on_c, 0, 55, 100
2, 5854, Note_off_c, 0, 55, 0
2, 5854, Note_off_c, 0, 52, 0
2, 5854, Note_off_c, 0, 48, 0
2, 6144, Note_on_c, 0, 55, 100
2, 6144, Note_on_c, 0, 52, 100
2, 6144, Note_on_c, 0, 48, 100
2, 6238, Note_off_c, 0, 48, 0
2, 6238, Note_off_c, 0, 52, 0
2, 6238, Note_off_c, 0, 55, 0
2, 6432, Note_on_c, 0, 55, 100
2, 6432, Note_on_c, 0, 52, 100
2, 6432, Note_on_c, 0, 48, 100
2, 6454, Note_off_c, 0, 48, 0
2, 6454, Note_off_c, 0, 52, 0
2, 6454, Note_off_c, 0, 55, 0
2, 6480, Note_on_c, 0, 52, 100
2, 6480, Note_on_c, 0, 55, 100
2, 6480, Note_on_c, 0, 48, 100
2, 6502, Note_off_c, 0, 48, 0
2, 6502, Note_off_c, 0, 55, 0
2, 6502, Note_off_c, 0, 52, 0
2, 6528, Note_on_c, 0, 52, 100
2, 6528, Note_on_c, 0, 55, 100
2, 6528, Note_on_c, 0, 48, 100
2, 6622, Note_off_c, 0, 48, 0
2, 6622, Note_off_c, 0, 55, 0
2, 6622, Note_off_c, 0, 52, 0
2, 6912, Note_on_c, 0, 49, 100
2, 6912, Note_on_c, 0, 53, 100
2, 6912, Note_on_c, 0, 56, 100
2, 7006, Note_off_c, 0, 56, 0
2, 7006, Note_off_c, 0, 53, 0
2, 7006, Note_off_c, 0, 49, 0
2, 7200, Note_on_c, 0, 49, 100
2, 7200, Note_on_c, 0, 53, 100
2, 7200, Note_on_c, 0, 56, 100
2, 7222, Note_off_c, 0, 56, 0
2, 7222, Note_off_c, 0, 53, 0
2, 7222, Note_off_c, 0, 49, 0
2, 7248, Note_on_c, 0, 49, 100
2, 7248, Note_on_c, 0, 53, 100
2, 7248, Note_on_c, 0, 56, 100
2, 7270, Note_off_c, 0, 56, 0
2, 7270, Note_off_c, 0, 53, 0
2, 7270, Note_off_c, 0, 49, 0
2, 7296, Note_on_c, 0, 49, 100
2, 7296, Note_on_c, 0, 53, 100
2, 7296, Note_on_c, 0, 56, 100
2, 7318, Note_off_c, 0, 56, 0
2, 7318, Note_off_c, 0, 53, 0
2, 7318, Note_off_c, 0, 49, 0
2, 7344, Note_on_c, 0, 56, 100
2, 7344, Note_on_c, 0, 49, 100
2, 7344, Note_on_c, 0, 53, 100
2, 7390, Note_off_c, 0, 53, 0
2, 7390, Note_off_c, 0, 49, 0
2, 7390, Note_off_c, 0, 56, 0
2, 7488, Note_on_c, 0, 55, 100
2, 7582, Note_off_c, 0, 55, 0
2, 7632, Note_on_c, 0, 55, 100
2, 7678, Note_off_c, 0, 55, 0
2, 7680, Note_on_c, 0, 60, 100
2, 7680, Note_on_c, 0, 64, 100
2, 7870, Note_off_c, 0, 64, 0
2, 7870, Note_off_c, 0, 60, 0
2, 7872, Note_on_c, 0, 62, 100
2, 7872, Note_on_c, 0, 55, 100
2, 7872, Note_on_c, 0, 50, 100
2, 7872, Note_on_c, 0, 43, 100
2, 7966, Note_off_c, 0, 43, 0
2, 7966, Note_off_c, 0, 50, 0
2, 7966, Note_off_c, 0, 55, 0
2, 7966, Note_off_c, 0, 62, 0
2, 8016, Note_on_c, 0, 55, 100
2, 8062, Note_off_c, 0, 55, 0
2, 8064, Note_on_c, 0, 60, 100
2, 8064, Note_on_c, 0, 64, 100
2, 8254, Note_off_c, 0, 64, 0
2, 8254, Note_off_c, 0, 60, 0
2, 8256, Note_on_c, 0, 62, 100
2, 8256, Note_on_c, 0, 55, 100
2, 8256, Note_on_c, 0, 50, 100
2, 8256, Note_on_c, 0, 43, 100
2, 8350, Note_off_c, 0, 43, 0
2, 8350, Note_off_c, 0, 50, 0
2, 8350, Note_off_c, 0, 55, 0
2, 8350, Note_off_c, 0, 62, 0
2, 8400, Note_on_c, 0, 55, 100
2, 8446, Note_off_c, 0, 55, 0
2, 8448, Note_on_c, 0, 60, 100
2, 8448, Note_on_c, 0, 64, 100
2, 8638, Note_off_c, 0, 64, 0
2, 8638, Note_off_c, 0, 60, 0
2, 8640, Note_on_c, 0, 62, 100
2, 8640, Note_on_c, 0, 55, 100
2, 8640, Note_on_c, 0, 50, 100
2, 8640, Note_on_c, 0, 43, 100
2, 8734, Note_off_c, 0, 43, 0
2, 8734, Note_off_c, 0, 50, 0
2, 8734, Note_off_c, 0, 55, 0
2, 8734, Note_off_c, 0, 62, 0
2, 8784, Note_on_c, 0, 55, 100
2, 8830, Note_off_c, 0, 55, 0
2, 8832, Note_on_c, 0, 60, 100
2, 8832, Note_on_c, 0, 64, 100
2, 8926, Note_off_c, 0, 64, 0
2, 8926, Note_off_c, 0, 60, 0
2, 8928, Note_on_c, 0, 62, 100
2, 8928, Note_on_c, 0, 55, 100
2, 8928, Note_on_c, 0, 50, 100
2, 8928, Note_on_c, 0, 43, 100
2, 9022, Note_off_c, 0, 43, 0
2, 9022, Note_off_c, 0, 50, 0
2, 9022, Note_off_c, 0, 55, 0
2, 9022, Note_off_c, 0, 62, 0
2, 9216, Note_on_c, 0, 55, 100
2, 9216, Note_on_c, 0, 52, 100
2, 9216, Note_on_c, 0, 48, 100
2, 9310, Note_off_c, 0, 48, 0
2, 9310, Note_off_c, 0, 52, 0
2, 9310, Note_off_c, 0, 55, 0
2, 9504, Note_on_c, 0, 55, 100
2, 9504, Note_on_c, 0, 52, 100
2, 9504, Note_on_c, 0, 48, 100
2, 9526, Note_off_c, 0, 48, 0
2, 9526, Note_off_c, 0, 52, 0
2, 9526, Note_off_c, 0, 55, 0
2, 9552, Note_on_c, 0, 52, 100
2, 9552, Note_on_c, 0, 55, 100
2, 9552, Note_on_c, 0, 48, 100
2, 9574, Note_off_c, 0, 48, 0
2, 9574, Note_off_c, 0, 55, 0
2, 9574, Note_off_c, 0, 52, 0
2, 9600, Note_on_c, 0, 52, 100
2, 9600, Note_on_c, 0, 55, 100
2, 9600, Note_on_c, 0, 48, 100
2, 9694, Note_off_c, 0, 48, 0
2, 9694, Note_off_c, 0, 55, 0
2, 9694, Note_off_c, 0, 52, 0
2, 9984, Note_on_c, 0, 55, 100
2, 9984, Note_on_c, 0, 52, 100
2, 9984, Note_on_c, 0, 48, 100
2, 10078, Note_off_c, 0, 48, 0
2, 10078, Note_off_c, 0, 52, 0
2, 10078, Note_off_c, 0, 55, 0
2, 10272, Note_on_c, 0, 55, 100
2, 10272, Note_on_c, 0, 52, 100
2, 10272, Note_on_c, 0, 48, 100
2, 10294, Note_off_c, 0, 48, 0
2, 10294, Note_off_c, 0, 52, 0
2, 10294, Note_off_c, 0, 55, 0
2, 10320, Note_on_c, 0, 52, 100
2, 10320, Note_on_c, 0, 55, 100
2, 10320, Note_on_c, 0, 48, 100
2, 10342, Note_off_c, 0, 48, 0
2, 10342, Note_off_c, 0, 55, 0
2, 10342, Note_off_c, 0, 52, 0
2, 10368, Note_on_c, 0, 55, 100
2, 10368, Note_on_c, 0, 52, 100
2, 10368, Note_on_c, 0, 48, 100
2, 10390, Note_off_c, 0, 48, 0
2, 10390, Note_off_c, 0, 52, 0
2, 10390, Note_off_c, 0, 55, 0
2, 10416, Note_on_c, 0, 52, 100
2, 10416, Note_on_c, 0, 55, 100
2, 10416, Note_on_c, 0, 48, 100
2, 10462, Note_off_c, 0, 48, 0
2, 10462, Note_off_c, 0, 55, 0
2, 10462, Note_off_c, 0, 52, 0
2, 10752, Note_on_c, 0, 55, 100
2, 10752, Note_on_c, 0, 52, 100
2, 10752, Note_on_c, 0, 48, 100
2, 10846, Note_off_c, 0, 48, 0
2, 10846, Note_off_c, 0, 52, 0
2, 10846, Note_off_c, 0, 55, 0
2, 11040, Note_on_c, 0, 55, 100
2, 11040, Note_on_c, 0, 52, 100
2, 11040, Note_on_c, 0, 48, 100
2, 11062, Note_off_c, 0, 48, 0
2, 11062, Note_off_c, 0, 52, 0
2, 11062, Note_off_c, 0, 55, 0
2, 11088, Note_on_c, 0, 52, 100
2, 11088, Note_on_c, 0, 55, 100
2, 11088, Note_on_c, 0, 48, 100
2, 11110, Note_off_c, 0, 48, 0
2, 11110, Note_off_c, 0, 55, 0
2, 11110, Note_off_c, 0, 52, 0
2, 11136, Note_on_c, 0, 52, 100
2, 11136, Note_on_c, 0, 55, 100
2, 11136, Note_on_c, 0, 48, 100
2, 11230, Note_off_c, 0, 48, 0
2, 11230, Note_off_c, 0, 55, 0
2, 11230, Note_off_c, 0, 52, 0
2, 11520, Note_on_c, 0, 55, 100
2, 11520, Note_on_c, 0, 52, 100
2, 11520, Note_on_c, 0, 48, 100
2, 11614, Note_off_c, 0, 48, 0
2, 11614, Note_off_c, 0, 52, 0
2, 11614, Note_off_c, 0, 55, 0
2, 11808, Note_on_c, 0, 55, 100
2, 11808, Note_on_c, 0, 52, 100
2, 11808, Note_on_c, 0, 48, 100
2, 11830, Note_off_c, 0, 48, 0
2, 11830, Note_off_c, 0, 52, 0
2, 11830, Note_off_c, 0, 55, 0
2, 11856, Note_on_c, 0, 52, 100
2, 11856, Note_on_c, 0, 55, 100
2, 11856, Note_on_c, 0, 48, 100
2, 11878, Note_off_c, 0, 48, 0
2, 11878, Note_off_c, 0, 55, 0
2, 11878, Note_off_c, 0, 52, 0
2, 11904, Note_on_c, 0, 55, 100
2, 11904, Note_on_c, 0, 52, 100
2, 11904, Note_on_c, 0, 48, 100
2, 11926, Note_off_c, 0, 48, 0
2, 11926, Note_off_c, 0, 52, 0
2, 11926, Note_off_c, 0, 55, 0
2, 11952, Note_on_c, 0, 48, 100
2, 11952, Note_on_c, 0, 52, 100
2, 11952, Note_on_c, 0, 55, 100
2, 11998, Note_off_c, 0, 55, 0
2, 11998, Note_off_c, 0, 52, 0
2, 11998, Note_off_c, 0, 48, 0
2, 12288, Note_on_c, 0, 55, 100
2, 12288, Note_on_c, 0, 52, 100
2, 12288, Note_on_c, 0, 48, 100
2, 12382, Note_off_c, 0, 48, 0
2, 12382, Note_off_c, 0, 52, 0
2, 12382, Note_off_c, 0, 55, 0
2, 12576, Note_on_c, 0, 55, 100
2, 12576, Note_on_c, 0, 52, 100
2, 12576, Note_on_c, 0, 48, 100
2, 12598, Note_off_c, 0, 48, 0
2, 12598, Note_off_c, 0, 52, 0
2, 12598, Note_off_c, 0, 55, 0
2, 12624, Note_on_c, 0, 52, 100
2, 12624, Note_on_c, 0, 55, 100
2, 12624, Note_on_c, 0, 48, 100
2, 12646, Note_off_c, 0, 48, 0
2, 12646, Note_off_c, 0, 55, 0
2, 12646, Note_off_c, 0, 52, 0
2, 12672, Note_on_c, 0, 52, 100
2, 12672, Note_on_c, 0, 55, 100
2, 12672, Note_on_c, 0, 48, 100
2, 12766, Note_off_c, 0, 48, 0
2, 12766, Note_off_c, 0, 55, 0
2, 12766, Note_off_c, 0, 52, 0
2, 13056, Note_on_c, 0, 49, 100
2, 13056, Note_on_c, 0, 53, 100
2, 13056, Note_on_c, 0, 56, 100
2, 13150, Note_off_c, 0, 56, 0
2, 13150, Note_off_c, 0, 53, 0
2, 13150, Note_off_c, 0, 49, 0
2, 13344, Note_on_c, 0, 49, 100
2, 13344, Note_on_c, 0, 53, 100
2, 13344, Note_on_c, 0, 56, 100
2, 13366, Note_off_c, 0, 56, 0
2, 13366, Note_off_c, 0, 53, 0
2, 13366, Note_off_c, 0, 49, 0
2, 13392, Note_on_c, 0, 49, 100
2, 13392, Note_on_c, 0, 53, 100
2, 13392, Note_on_c, 0, 56, 100
2, 13414, Note_off_c, 0, 56, 0
2, 13414, Note_off_c, 0, 53, 0
2, 13414, Note_off_c, 0, 49, 0
2, 13440, Note_on_c, 0, 49, 100
2, 13440, Note_on_c, 0, 53, 100
2, 13440, Note_on_c, 0, 56, 100
2, 13462, Note_off_c, 0, 56, 0
2, 13462, Note_off_c, 0, 53, 0
2, 13462, Note_off_c, 0, 49, 0
2, 13488, Note_on_c, 0, 56, 100
2, 13488, Note_on_c, 0, 49, 100
2, 13488, Note_on_c, 0, 53, 100
2, 13534, Note_off_c, 0, 53, 0
2, 13534, Note_off_c, 0, 49, 0
2, 13534, Note_off_c, 0, 56, 0
2, 13632, Note_on_c, 0, 55, 100
2, 13726, Note_off_c, 0, 55, 0
2, 13776, Note_on_c, 0, 55, 100
2, 13822, Note_off_c, 0, 55, 0
2, 13824, Note_on_c, 0, 64, 100
2, 14014, Note_off_c, 0, 64, 0
2, 14016, Note_on_c, 0, 62, 100
2, 14016, Note_on_c, 0, 55, 100
2, 14016, Note_on_c, 0, 50, 100
2, 14016, Note_on_c, 0, 43, 100
2, 14110, Note_off_c, 0, 43, 0
2, 14110, Note_off_c, 0, 50, 0
2, 14110, Note_off_c, 0, 55, 0
2, 14110, Note_off_c, 0, 62, 0
2, 14160, Note_on_c, 0, 55, 100
2, 14206, Note_off_c, 0, 55, 0
2, 14208, Note_on_c, 0, 64, 100
2, 14398, Note_off_c, 0, 64, 0
2, 14400, Note_on_c, 0, 62, 100
2, 14400, Note_on_c, 0, 55, 100
2, 14400, Note_on_c, 0, 50, 100
2, 14400, Note_on_c, 0, 43, 100
2, 14494, Note_off_c, 0, 43, 0
2, 14494, Note_off_c, 0, 50, 0
2, 14494, Note_off_c, 0, 55, 0
2, 14494, Note_off_c, 0, 62, 0
2, 14544, Note_on_c, 0, 55, 100
2, 14590, Note_off_c, 0, 55, 0
2, 14592, Note_on_c, 0, 64, 100
2, 14782, Note_off_c, 0, 64, 0
2, 14784, Note_on_c, 0, 62, 100
2, 14784, Note_on_c, 0, 55, 100
2, 14784, Note_on_c, 0, 50, 100
2, 14784, Note_on_c, 0, 43, 100
2, 14878, Note_off_c, 0, 43, 0
2, 14878, Note_off_c, 0, 50, 0
2, 14878, Note_off_c, 0, 55, 0
2, 14878, Note_off_c, 0, 62, 0
2, 14928, Note_on_c, 0, 55, 100
2, 14974, Note_off_c, 0, 55, 0
2, 14976, Note_on_c, 0, 64, 100
2, 15070, Note_off_c, 0, 64, 0
2, 15072, Note_on_c, 0, 62, 100
2, 15072, Note_on_c, 0, 55, 100
2, 15072, Note_on_c, 0, 50, 100
2, 15072, Note_on_c, 0, 43, 100
2, 15166, Note_off_c, 0, 43, 0
2, 15166, Note_off_c, 0, 50, 0
2, 15166, Note_off_c, 0, 55, 0
2, 15166, Note_off_c, 0, 62, 0
2, 21312, Note_on_c, 0, 48, 100
2, 21312, Note_on_c, 0, 52, 100
2, 21406, Note_off_c, 0, 52, 0
2, 21406, Note_off_c, 0, 48, 0
2, 21456, Note_on_c, 0, 52, 100
2, 21456, Note_on_c, 0, 55, 100
2, 21502, Note_off_c, 0, 55, 0
2, 21502, Note_off_c, 0, 52, 0
2, 21504, Note_on_c, 0, 50, 100
2, 21504, Note_on_c, 0, 53, 100
2, 22030, Note_off_c, 0, 53, 0
2, 22030, Note_off_c, 0, 50, 0
2, 22080, Note_on_c, 0, 46, 100
2, 22080, Note_on_c, 0, 50, 100
2, 22174, Note_off_c, 0, 50, 0
2, 22174, Note_off_c, 0, 46, 0
2, 22224, Note_on_c, 0, 50, 100
2, 22224, Note_on_c, 0, 53, 100
2, 22270, Note_off_c, 0, 53, 0
2, 22270, Note_off_c, 0, 50, 0
2, 22272, Note_on_c, 0, 48, 100
2, 22272, Note_on_c, 0, 52, 100
2, 22302, Note_off_c, 0, 52, 0
2, 22302, Note_off_c, 0, 48, 0
2, 22336, Note_on_c, 0, 52, 100
2, 22336, Note_on_c, 0, 55, 100
2, 22366, Note_off_c, 0, 55, 0
2, 22366, Note_off_c, 0, 52, 0
2, 22400, Note_on_c, 0, 64, 100
2, 22400, Note_on_c, 0, 60, 100
2, 22782, Note_off_c, 0, 60, 0
2, 22782, Note_off_c, 0, 64, 0
2, 22848, Note_on_c, 0, 48, 100
2, 22848, Note_on_c, 0, 52, 100
2, 22942, Note_off_c, 0, 52, 0
2, 22942, Note_off_c, 0, 48, 0
2, 22992, Note_on_c, 0, 52, 100
2, 22992, Note_on_c, 0, 55, 100
2, 23038, Note_off_c, 0, 55, 0
2, 23038, Note_off_c, 0, 52, 0
2, 23040, Note_on_c, 0, 46, 100
2, 23040, Note_on_c, 0, 50, 100
2, 23040, Note_on_c, 0, 53, 100
2, 23566, Note_off_c, 0, 53, 0
2, 23566, Note_off_c, 0, 50, 0
2, 23566, Note_off_c, 0, 46, 0
2, 23616, Note_on_c, 0, 46, 100
2, 23616, Note_on_c, 0, 50, 100
2, 23710, Note_off_c, 0, 50, 0
2, 23710, Note_off_c, 0, 46, 0
2, 23760, Note_on_c, 0, 46, 100
2, 23760, Note_on_c, 0, 50, 100
2, 23760, Note_on_c, 0, 53, 100
2, 23806, Note_off_c, 0, 53, 0
2, 23806, Note_off_c, 0, 50, 0
2, 23806, Note_off_c, 0, 46, 0
2, 23808, Note_on_c, 0, 44, 100
2, 23808, Note_on_c, 0, 51, 100
2, 23838, Note_off_c, 0, 51, 0
2, 23838, Note_off_c, 0, 44, 0
2, 23872, Note_on_c, 0, 44, 100
2, 23872, Note_on_c, 0, 50, 100
2, 23902, Note_off_c, 0, 50, 0
2, 23902, Note_off_c, 0, 44, 0
2, 23936, Note_on_c, 0, 44, 100
2, 23936, Note_on_c, 0, 48, 100
2, 24318, Note_off_c, 0, 48, 0
2, 24318, Note_off_c, 0, 44, 0
2, 24384, Note_on_c, 0, 48, 100
2, 24384, Note_on_c, 0, 52, 100
2, 24478, Note_off_c, 0, 52, 0
2, 24478, Note_off_c, 0, 48, 0
2, 24528, Note_on_c, 0, 52, 100
2, 24528, Note_on_c, 0, 55, 100
2, 24574, Note_off_c, 0, 55, 0
2, 24574, Note_off_c, 0, 52, 0
2, 24576, Note_on_c, 0, 46, 100
2, 24576, Note_on_c, 0, 50, 100
2, 24576, Note_on_c, 0, 53, 100
2, 25102, Note_off_c, 0, 53, 0
2, 25102, Note_off_c, 0, 50, 0
2, 25102, Note_off_c, 0, 46, 0
2, 25152, Note_on_c, 0, 46, 100
2, 25152, Note_on_c, 0, 50, 100
2, 25246, Note_off_c, 0, 50, 0
2, 25246, Note_off_c, 0, 46, 0
2, 25296, Note_on_c, 0, 50, 100
2, 25296, Note_on_c, 0, 53, 100
2, 25342, Note_off_c, 0, 53, 0
2, 25342, Note_off_c, 0, 50, 0
2, 25344, Note_on_c, 0, 48, 100
2, 25344, Note_on_c, 0, 52, 100
2, 25374, Note_off_c, 0, 52, 0
2, 25374, Note_off_c, 0, 48, 0
2, 25408, Note_on_c, 0, 52, 100
2, 25408, Note_on_c, 0, 55, 100
2, 25438, Note_off_c, 0, 55, 0
2, 25438, Note_off_c, 0, 52, 0
2, 25472, Note_on_c, 0, 60, 100
2, 25472, Note_on_c, 0, 64, 100
2, 25854, Note_off_c, 0, 64, 0
2, 25854, Note_off_c, 0, 60, 0
2, 25920, Note_on_c, 0, 59, 100
2, 25920, Note_on_c, 0, 62, 100
2, 26014, Note_off_c, 0, 62, 0
2, 26014, Note_off_c, 0, 59, 0
2, 26064, Note_on_c, 0, 60, 100
2, 26064, Note_on_c, 0, 64, 100
2, 26110, Note_off_c, 0, 64, 0
2, 26110, Note_off_c, 0, 60, 0
2, 26112, Note_on_c, 0, 62, 100
2, 26112, Note_on_c, 0, 58, 100
2, 26112, Note_on_c, 0, 65, 100
2, 26158, Note_off_c, 0, 65, 0
2, 26158, Note_off_c, 0, 58, 0
2, 26158, Note_off_c, 0, 62, 0
2, 26208, Note_on_c, 0, 58, 100
2, 26254, Note_off_c, 0, 58, 0
2, 26256, Note_on_c, 0, 57, 100
2, 26302, Note_off_c, 0, 57, 0
2, 26304, Note_on_c, 0, 58, 100
2, 26350, Note_off_c, 0, 58, 0
2, 26400, Note_on_c, 0, 62, 100
2, 26400, Note_on_c, 0, 58, 100
2, 26400, Note_on_c, 0, 65, 100
2, 26446, Note_off_c, 0, 65, 0
2, 26446, Note_off_c, 0, 58, 0
2, 26446, Note_off_c, 0, 62, 0
2, 26496, Note_on_c, 0, 58, 100
2, 26542, Note_off_c, 0, 58, 0
2, 26544, Note_on_c, 0, 57, 100
2, 26590, Note_off_c, 0, 57, 0
2, 26592, Note_on_c, 0, 58, 100
2, 26638, Note_off_c, 0, 58, 0
2, 26688, Note_on_c, 0, 62, 100
2, 26688, Note_on_c, 0, 58, 100
2, 26688, Note_on_c, 0, 65, 100
2, 26734, Note_off_c, 0, 65, 0
2, 26734, Note_off_c, 0, 58, 0
2, 26734, Note_off_c, 0, 62, 0
2, 26784, Note_on_c, 0, 63, 100
2, 26830, Note_off_c, 0, 63, 0
2, 26832, Note_on_c, 0, 62, 100
2, 26878, Note_off_c, 0, 62, 0
2, 26880, Note_on_c, 0, 60, 100
2, 26880, Note_on_c, 0, 63, 100
2, 26880, Note_on_c, 0, 56, 100
2, 27478, Note_off_c, 0, 56, 0
2, 27478, Note_off_c, 0, 63, 0
2, 27478, Note_off_c, 0, 60, 0
2, 27552, Note_on_c, 0, 60, 100
2, 27598, Note_off_c, 0, 60, 0
2, 27600, Note_on_c, 0, 60, 100
2, 27646, Note_off_c, 0, 60, 0
2, 27648, Note_on_c, 0, 58, 100
2, 27648, Note_on_c, 0, 62, 100
2, 27648, Note_on_c, 0, 65, 100
2, 27694, Note_off_c, 0, 65, 0
2, 27694, Note_off_c, 0, 62, 0
2, 27694, Note_off_c, 0, 58, 0
2, 27744, Note_on_c, 0, 58, 100
2, 27790, Note_off_c, 0, 58, 0
2, 27792, Note_on_c, 0, 57, 100
2, 27838, Note_off_c, 0, 57, 0
2, 27840, Note_on_c, 0, 58, 100
2, 27886, Note_off_c, 0, 58, 0
2, 27936, Note_on_c, 0, 58, 100
2, 27936, Note_on_c, 0, 62, 100
2, 27936, Note_on_c, 0, 65, 100
2, 27982, Note_off_c, 0, 65, 0
2, 27982, Note_off_c, 0, 62, 0
2, 27982, Note_off_c, 0, 58, 0
2, 28032, Note_on_c, 0, 58, 100
2, 28078, Note_off_c, 0, 58, 0
2, 28080, Note_on_c, 0, 57, 100
2, 28126, Note_off_c, 0, 57, 0
2, 28128, Note_on_c, 0, 58, 100
2, 28174, Note_off_c, 0, 58, 0
2, 28224, Note_on_c, 0, 58, 100
2, 28224, Note_on_c, 0, 62, 100
2, 28224, Note_on_c, 0, 65, 100
2, 28270, Note_off_c, 0, 65, 0
2, 28270, Note_off_c, 0, 62, 0
2, 28270, Note_off_c, 0, 58, 0
2, 28320, Note_on_c, 0, 63, 100
2, 28366, Note_off_c, 0, 63, 0
2, 28368, Note_on_c, 0, 62, 100
2, 28414, Note_off_c, 0, 62, 0
2, 28416, Note_on_c, 0, 56, 100
2, 28416, Note_on_c, 0, 60, 100
2, 28416, Note_on_c, 0, 63, 100
2, 29014, Note_off_c, 0, 63, 0
2, 29014, Note_off_c, 0, 60, 0
2, 29014, Note_off_c, 0, 56, 0
2, 29088, Note_on_c, 0, 60, 100
2, 29134, Note_off_c, 0, 60, 0
2, 29136, Note_on_c, 0, 60, 100
2, 29182, Note_off_c, 0, 60, 0
2, 29184, Note_on_c, 0, 58, 100
2, 29184, Note_on_c, 0, 62, 100
2, 29184, Note_on_c, 0, 65, 100
2, 29230, Note_off_c, 0, 65, 0
2, 29230, Note_off_c, 0, 62, 0
2, 29230, Note_off_c, 0, 58, 0
2, 29280, Note_on_c, 0, 58, 100
2, 29326, Note_off_c, 0, 58, 0
2, 29328, Note_on_c, 0, 57, 100
2, 29374, Note_off_c, 0, 57, 0
2, 29376, Note_on_c, 0, 58, 100
2, 29422, Note_off_c, 0, 58, 0
2, 29472, Note_on_c, 0, 58, 100
2, 29472, Note_on_c, 0, 62, 100
2, 29472, Note_on_c, 0, 65, 100
2, 29518, Note_off_c, 0, 65, 0
2, 29518, Note_off_c, 0, 62, 0
2, 29518, Note_off_c, 0, 58, 0
2, 29568, Note_on_c, 0, 58, 100
2, 29614, Note_off_c, 0, 58, 0
2, 29616, Note_on_c, 0, 57, 100
2, 29662, Note_off_c, 0, 57, 0
2, 29664, Note_on_c, 0, 58, 100
2, 29710, Note_off_c, 0, 58, 0
2, 29760, Note_on_c, 0, 58, 100
2, 29760, Note_on_c, 0, 62, 100
2, 29760, Note_on_c, 0, 65, 100
2, 29806, Note_off_c, 0, 65, 0
2, 29806, Note_off_c, 0, 62, 0
2, 29806, Note_off_c, 0, 58, 0
2, 29856, Note_on_c, 0, 63, 100
2, 29902, Note_off_c, 0, 63, 0
2, 29904, Note_on_c, 0, 62, 100
2, 29950, Note_off_c, 0, 62, 0
2, 29952, Note_on_c, 0, 56, 100
2, 29952, Note_on_c, 0, 60, 100
2, 29952, Note_on_c, 0, 63, 100
2, 29998, Note_off_c, 0, 63, 0
2, 29998, Note_off_c, 0, 60, 0
2, 29998, Note_off_c, 0, 56, 0
2, 30048, Note_on_c, 0, 56, 100
2, 30094, Note_off_c, 0, 56, 0
2, 30096, Note_on_c, 0, 55, 100
2, 30142, Note_off_c, 0, 55, 0
2, 30144, Note_on_c, 0, 56, 100
2, 30190, Note_off_c, 0, 56, 0
2, 30240, Note_on_c, 0, 56, 100
2, 30240, Note_on_c, 0, 60, 100
2, 30240, Note_on_c, 0, 63, 100
2, 30286, Note_off_c, 0, 63, 0
2, 30286, Note_off_c, 0, 60, 0
2, 30286, Note_off_c, 0, 56, 0
2, 30336, Note_on_c, 0, 56, 100
2, 30382, Note_off_c, 0, 56, 0
2, 30384, Note_on_c, 0, 55, 100
2, 30430, Note_off_c, 0, 55, 0
2, 30432, Note_on_c, 0, 56, 100
2, 30478, Note_off_c, 0, 56, 0
2, 30528, Note_on_c, 0, 56, 100
2, 30528, Note_on_c, 0, 60, 100
2, 30528, Note_on_c, 0, 63, 100
2, 30574, Note_off_c, 0, 63, 0
2, 30574, Note_off_c, 0, 60, 0
2, 30574, Note_off_c, 0, 56, 0
2, 30624, Note_on_c, 0, 63, 100
2, 30670, Note_off_c, 0, 63, 0
2, 30672, Note_on_c, 0, 65, 100
2, 30718, Note_off_c, 0, 65, 0
2, 30720, Note_on_c, 0, 60, 100
2, 30720, Note_on_c, 0, 64, 100
2, 30720, Note_on_c, 0, 67, 100
2, 31966, Note_off_c, 0, 67, 0
2, 31966, Note_off_c, 0, 64, 0
2, 31966, Note_off_c, 0, 60, 0
2, 32256, Note_on_c, 0, 48, 100
2, 32256, Note_on_c, 0, 52, 100
2, 32256, Note_on_c, 0, 55, 100
2, 32350, Note_off_c, 0, 55, 0
2, 32350, Note_off_c, 0, 52, 0
2, 32350, Note_off_c, 0, 48, 0
2, 32448, Note_on_c, 0, 48, 100
2, 32448, Note_on_c, 0, 52, 100
2, 32448, Note_on_c, 0, 55, 100
2, 32542, Note_off_c, 0, 55, 0
2, 32542, Note_off_c, 0, 52, 0
2, 32542, Note_off_c, 0, 48, 0
2, 32640, Note_on_c, 0, 48, 100
2, 32640, Note_on_c, 0, 52, 100
2, 32640, Note_on_c, 0, 55, 100
2, 32710, Note_off_c, 0, 55, 0
2, 32710, Note_off_c, 0, 52, 0
2, 32710, Note_off_c, 0, 48, 0
2, 32736, Note_on_c, 0, 48, 100
2, 32736, Note_on_c, 0, 52, 100
2, 32736, Note_on_c, 0, 55, 100
2, 32758, Note_off_c, 0, 55, 0
2, 32758, Note_off_c, 0, 52, 0
2, 32758, Note_off_c, 0, 48, 0
2, 32784, Note_on_c, 0, 48, 100
2, 32784, Note_on_c, 0, 55, 100
2, 32784, Note_on_c, 0, 52, 100
2, 32806, Note_off_c, 0, 52, 0
2, 32806, Note_off_c, 0, 55, 0
2, 32806, Note_off_c, 0, 48, 0
2, 32832, Note_on_c, 0, 48, 100
2, 32832, Note_on_c, 0, 52, 100
2, 32832, Note_on_c, 0, 55, 100
2, 32854, Note_off_c, 0, 55, 0
2, 32854, Note_off_c, 0, 52, 0
2, 32854, Note_off_c, 0, 48, 0
2, 32880, Note_on_c, 0, 48, 100
2, 32880, Note_on_c, 0, 52, 100
2, 32880, Note_on_c, 0, 55, 100
2, 32950, Note_off_c, 0, 55, 0
2, 32950, Note_off_c, 0, 52, 0
2, 32950, Note_off_c, 0, 48, 0
2, 33024, Note_on_c, 0, 48, 100
2, 33024, Note_on_c, 0, 52, 100
2, 33024, Note_on_c, 0, 55, 100
2, 33118, Note_off_c, 0, 55, 0
2, 33118, Note_off_c, 0, 52, 0
2, 33118, Note_off_c, 0, 48, 0
2, 33216, Note_on_c, 0, 48, 100
2, 33216, Note_on_c, 0, 52, 100
2, 33216, Note_on_c, 0, 55, 100
2, 33310, Note_off_c, 0, 55, 0
2, 33310, Note_off_c, 0, 52, 0
2, 33310, Note_off_c, 0, 48, 0
2, 33408, Note_on_c, 0, 48, 100
2, 33408, Note_on_c, 0, 52, 100
2, 33408, Note_on_c, 0, 55, 100
2, 33478, Note_off_c, 0, 55, 0
2, 33478, Note_off_c, 0, 52, 0
2, 33478, Note_off_c, 0, 48, 0
2, 33504, Note_on_c, 0, 48, 100
2, 33504, Note_on_c, 0, 52, 100
2, 33504, Note_on_c, 0, 55, 100
2, 33526, Note_off_c, 0, 55, 0
2, 33526, Note_off_c, 0, 52, 0
2, 33526, Note_off_c, 0, 48, 0
2, 33552, Note_on_c, 0, 48, 100
2, 33552, Note_on_c, 0, 55, 100
2, 33552, Note_on_c, 0, 52, 100
2, 33574, Note_off_c, 0, 52, 0
2, 33574, Note_off_c, 0, 55, 0
2, 33574, Note_off_c, 0, 48, 0
2, 33600, Note_on_c, 0, 48, 100
2, 33600, Note_on_c, 0, 52, 100
2, 33600, Note_on_c, 0, 55, 100
2, 33622, Note_off_c, 0, 55, 0
2, 33622, Note_off_c, 0, 52, 0
2, 33622, Note_off_c, 0, 48, 0
2, 33648, Note_on_c, 0, 48, 100
2, 33648, Note_on_c, 0, 52, 100
2, 33648, Note_on_c, 0, 55, 100
2, 33718, Note_off_c, 0, 55, 0
2, 33718, Note_off_c, 0, 52, 0
2, 33718, Note_off_c, 0, 48, 0
2, 33792, Note_on_c, 0, 48, 100
2, 33792, Note_on_c, 0, 52, 100
2, 33792, Note_on_c, 0, 55, 100
2, 33886, Note_off_c, 0, 55, 0
2, 33886, Note_off_c, 0, 52, 0
2, 33886, Note_off_c, 0, 48, 0
2, 33984, Note_on_c, 0, 48, 100
2, 33984, Note_on_c, 0, 52, 100
2, 33984, Note_on_c, 0, 55, 100
2, 34078, Note_off_c, 0, 55, 0
2, 34078, Note_off_c, 0, 52, 0
2, 34078, Note_off_c, 0, 48, 0
2, 34176, Note_on_c, 0, 48, 100
2, 34176, Note_on_c, 0, 52, 100
2, 34176, Note_on_c, 0, 55, 100
2, 34246, Note_off_c, 0, 55, 0
2, 34246, Note_off_c, 0, 52, 0
2, 34246, Note_off_c, 0, 48, 0
2, 34272, Note_on_c, 0, 48, 100
2, 34272, Note_on_c, 0, 52, 100
2, 34272, Note_on_c, 0, 55, 100
2, 34294, Note_off_c, 0, 55, 0
2, 34294, Note_off_c, 0, 52, 0
2, 34294, Note_off_c, 0, 48, 0
2, 34320, Note_on_c, 0, 48, 100
2, 34320, Note_on_c, 0, 55, 100
2, 34320, Note_on_c, 0, 52, 100
2, 34342, Note_off_c, 0, 52, 0
2, 34342, Note_off_c, 0, 55, 0
2, 34342, Note_off_c, 0, 48, 0
2, 34368, Note_on_c, 0, 48, 100
2, 34368, Note_on_c, 0, 52, 100
2, 34368, Note_on_c, 0, 55, 100
2, 34390, Note_off_c, 0, 55, 0
2, 34390, Note_off_c, 0, 52, 0
2, 34390, Note_off_c, 0, 48, 0
2, 34416, Note_on_c, 0, 48, 100
2, 34416, Note_on_c, 0, 52, 100
2, 34416, Note_on_c, 0, 55, 100
2, 34486, Note_off_c, 0, 55, 0
2, 34486, Note_off_c, 0, 52, 0
2, 34486, Note_off_c, 0, 48, 0
2, 34560, Note_on_c, 0, 48, 100
2, 34560, Note_on_c, 0, 52, 100
2, 34560, Note_on_c, 0, 55, 100
2, 34654, Note_off_c, 0, 55, 0
2, 34654, Note_off_c, 0, 52, 0
2, 34654, Note_off_c, 0, 48, 0
2, 34752, Note_on_c, 0, 48, 100
2, 34752, Note_on_c, 0, 52, 100
2, 34752, Note_on_c, 0, 55, 100
2, 34846, Note_off_c, 0, 55, 0
2, 34846, Note_off_c, 0, 52, 0
2, 34846, Note_off_c, 0, 48, 0
2, 34944, Note_on_c, 0, 48, 100
2, 34944, Note_on_c, 0, 52, 100
2, 34944, Note_on_c, 0, 55, 100
2, 35014, Note_off_c, 0, 55, 0
2, 35014, Note_off_c, 0, 52, 0
2, 35014, Note_off_c, 0, 48, 0
2, 35040, Note_on_c, 0, 48, 100
2, 35040, Note_on_c, 0, 52, 100
2, 35040, Note_on_c, 0, 55, 100
2, 35062, Note_off_c, 0, 55, 0
2, 35062, Note_off_c, 0, 52, 0
2, 35062, Note_off_c, 0, 48, 0
2, 35088, Note_on_c, 0, 48, 100
2, 35088, Note_on_c, 0, 55, 100
2, 35088, Note_on_c, 0, 52, 100
2, 35110, Note_off_c, 0, 52, 0
2, 35110, Note_off_c, 0, 55, 0
2, 35110, Note_off_c, 0, 48, 0
2, 35136, Note_on_c, 0, 48, 100
2, 35136, Note_on_c, 0, 52, 100
2, 35136, Note_on_c, 0, 55, 100
2, 35158, Note_off_c, 0, 55, 0
2, 35158, Note_off_c, 0, 52, 0
2, 35158, Note_off_c, 0, 48, 0
2, 35184, Note_on_c, 0, 48, 100
2, 35184, Note_on_c, 0, 52, 100
2, 35184, Note_on_c, 0, 55, 100
2, 35254, Note_off_c, 0, 55, 0
2, 35254, Note_off_c, 0, 52, 0
2, 35254, Note_off_c, 0, 48, 0
2, 35328, Note_on_c, 0, 48, 100
2, 35328, Note_on_c, 0, 52, 100
2, 35328, Note_on_c, 0, 55, 100
2, 35422, Note_off_c, 0, 55, 0
2, 35422, Note_off_c, 0, 52, 0
2, 35422, Note_off_c, 0, 48, 0
2, 35520, Note_on_c, 0, 48, 100
2, 35520, Note_on_c, 0, 52, 100
2, 35520, Note_on_c, 0, 55, 100
2, 35614, Note_off_c, 0, 55, 0
2, 35614, Note_off_c, 0, 52, 0
2, 35614, Note_off_c, 0, 48, 0
2, 35712, Note_on_c, 0, 48, 100
2, 35712, Note_on_c, 0, 52, 100
2, 35712, Note_on_c, 0, 55, 100
2, 35782, Note_off_c, 0, 55, 0
2, 35782, Note_off_c, 0, 52, 0
2, 35782, Note_off_c, 0, 48, 0
2, 35808, Note_on_c, 0, 48, 100
2, 35808, Note_on_c, 0, 52, 100
2, 35808, Note_on_c, 0, 55, 100
2, 35830, Note_off_c, 0, 55, 0
2, 35830, Note_off_c, 0, 52, 0
2, 35830, Note_off_c, 0, 48, 0
2, 35856, Note_on_c, 0, 48, 100
2, 35856, Note_on_c, 0, 55, 100
2, 35856, Note_on_c, 0, 52, 100
2, 35878, Note_off_c, 0, 52, 0
2, 35878, Note_off_c, 0, 55, 0
2, 35878, Note_off_c, 0, 48, 0
2, 35904, Note_on_c, 0, 48, 100
2, 35904, Note_on_c, 0, 52, 100
2, 35904, Note_on_c, 0, 55, 100
2, 35926, Note_off_c, 0, 55, 0
2, 35926, Note_off_c, 0, 52, 0
2, 35926, Note_off_c, 0, 48, 0
2, 35952, Note_on_c, 0, 48, 100
2, 35952, Note_on_c, 0, 52, 100
2, 35952, Note_on_c, 0, 55, 100
2, 36022, Note_off_c, 0, 55, 0
2, 36022, Note_off_c, 0, 52, 0
2, 36022, Note_off_c, 0, 48, 0
2, 36096, Note_on_c, 0, 49, 100
2, 36096, Note_on_c, 0, 53, 100
2, 36096, Note_on_c, 0, 56, 100
2, 36166, Note_off_c, 0, 56, 0
2, 36166, Note_off_c, 0, 53, 0
2, 36166, Note_off_c, 0, 49, 0
2, 36192, Note_on_c, 0, 49, 100
2, 36192, Note_on_c, 0, 53, 100
2, 36192, Note_on_c, 0, 56, 100
2, 36214, Note_off_c, 0, 56, 0
2, 36214, Note_off_c, 0, 53, 0
2, 36214, Note_off_c, 0, 49, 0
2, 36240, Note_on_c, 0, 49, 100
2, 36240, Note_on_c, 0, 53, 100
2, 36240, Note_on_c, 0, 56, 100
2, 36262, Note_off_c, 0, 56, 0
2, 36262, Note_off_c, 0, 53, 0
2, 36262, Note_off_c, 0, 49, 0
2, 36288, Note_on_c, 0, 49, 100
2, 36288, Note_on_c, 0, 53, 100
2, 36288, Note_on_c, 0, 56, 100
2, 36310, Note_off_c, 0, 56, 0
2, 36310, Note_off_c, 0, 53, 0
2, 36310, Note_off_c, 0, 49, 0
2, 36336, Note_on_c, 0, 49, 100
2, 36336, Note_on_c, 0, 53, 100
2, 36336, Note_on_c, 0, 56, 100
2, 36406, Note_off_c, 0, 56, 0
2, 36406, Note_off_c, 0, 53, 0
2, 36406, Note_off_c, 0, 49, 0
2, 36480, Note_on_c, 0, 49, 100
2, 36480, Note_on_c, 0, 53, 100
2, 36480, Note_on_c, 0, 56, 100
2, 36574, Note_off_c, 0, 56, 0
2, 36574, Note_off_c, 0, 53, 0
2, 36574, Note_off_c, 0, 49, 0
2, 37056, Note_on_c, 0, 50, 100
2, 37056, Note_on_c, 0, 55, 100
2, 37056, Note_on_c, 0, 43, 100
2, 37150, Note_off_c, 0, 43, 0
2, 37150, Note_off_c, 0, 55, 0
2, 37150, Note_off_c, 0, 50, 0
2, 37440, Note_on_c, 0, 43, 100
2, 37440, Note_on_c, 0, 50, 100
2, 37440, Note_on_c, 0, 55, 100
2, 37534, Note_off_c, 0, 55, 0
2, 37534, Note_off_c, 0, 50, 0
2, 37534, Note_off_c, 0, 43, 0
2, 37824, Note_on_c, 0, 43, 100
2, 37824, Note_on_c, 0, 50, 100
2, 37824, Note_on_c, 0, 55, 100
2, 37918, Note_off_c, 0, 55, 0
2, 37918, Note_off_c, 0, 50, 0
2, 37918, Note_off_c, 0, 43, 0
2, 38784, Note_on_c, 0, 53, 100
2, 38974, Note_off_c, 0, 53, 0
2, 38976, Note_on_c, 0, 52, 100
2, 39070, Note_off_c, 0, 52, 0
2, 39120, Note_on_c, 0, 50, 100
2, 39166, Note_off_c, 0, 50, 0
2, 39168, Note_on_c, 0, 48, 100
2, 39646, Note_off_c, 0, 48, 0
2, 39936, Note_on_c, 0, 49, 100
2, 39936, Note_on_c, 0, 53, 100
2, 39936, Note_on_c, 0, 56, 100
2, 40030, Note_off_c, 0, 56, 0
2, 40030, Note_off_c, 0, 53, 0
2, 40030, Note_off_c, 0, 49, 0
2, 40128, Note_on_c, 0, 53, 100
2, 40128, Note_on_c, 0, 49, 100
2, 40128, Note_on_c, 0, 53, 100
2, 40128, Note_on_c, 0, 56, 100
2, 40222, Note_off_c, 0, 56, 0
2, 40222, Note_off_c, 0, 53, 0
2, 40222, Note_off_c, 0, 49, 0
2, 40222, Note_off_c, 0, 53, 0
2, 40272, Note_on_c, 0, 54, 100
2, 40318, Note_off_c, 0, 54, 0
2, 40320, Note_on_c, 0, 56, 100
2, 40320, Note_on_c, 0, 49, 100
2, 40320, Note_on_c, 0, 53, 100
2, 40320, Note_on_c, 0, 56, 100
2, 40366, Note_off_c, 0, 56, 0
2, 40390, Note_off_c, 0, 49, 0
2, 40390, Note_off_c, 0, 53, 0
2, 40390, Note_off_c, 0, 56, 0
2, 40416, Note_on_c, 0, 61, 100
2, 40416, Note_on_c, 0, 49, 100
2, 40416, Note_on_c, 0, 53, 100
2, 40416, Note_on_c, 0, 56, 100
2, 40438, Note_off_c, 0, 56, 0
2, 40438, Note_off_c, 0, 53, 0
2, 40438, Note_off_c, 0, 49, 0
2, 40464, Note_on_c, 0, 49, 100
2, 40464, Note_on_c, 0, 56, 100
2, 40464, Note_on_c, 0, 53, 100
2, 40486, Note_off_c, 0, 53, 0
2, 40486, Note_off_c, 0, 56, 0
2, 40486, Note_off_c, 0, 49, 0
2, 40512, Note_on_c, 0, 49, 100
2, 40512, Note_on_c, 0, 53, 100
2, 40512, Note_on_c, 0, 56, 100
2, 40534, Note_off_c, 0, 56, 0
2, 40534, Note_off_c, 0, 53, 0
2, 40534, Note_off_c, 0, 49, 0
2, 40560, Note_on_c, 0, 49, 100
2, 40560, Note_on_c, 0, 53, 100
2, 40560, Note_on_c, 0, 56, 100
2, 40630, Note_off_c, 0, 56, 0
2, 40630, Note_off_c, 0, 53, 0
2, 40630, Note_off_c, 0, 49, 0
2, 40704, Note_on_c, 0, 49, 100
2, 40704, Note_on_c, 0, 53, 100
2, 40704, Note_on_c, 0, 56, 100
2, 40798, Note_off_c, 0, 56, 0
2, 40798, Note_off_c, 0, 53, 0
2, 40798, Note_off_c, 0, 49, 0
2, 40846, Note_off_c, 0, 61, 0
2, 40896, Note_on_c, 0, 51, 100
2, 40896, Note_on_c, 0, 49, 100
2, 40896, Note_on_c, 0, 53, 100
2, 40896, Note_on_c, 0, 56, 100
2, 40990, Note_off_c, 0, 56, 0
2, 40990, Note_off_c, 0, 53, 0
2, 40990, Note_off_c, 0, 49, 0
2, 40990, Note_off_c, 0, 51, 0
2, 41040, Note_on_c, 0, 53, 100
2, 41086, Note_off_c, 0, 53, 0
2, 41088, Note_on_c, 0, 54, 100
2, 41088, Note_on_c, 0, 49, 100
2, 41088, Note_on_c, 0, 53, 100
2, 41088, Note_on_c, 0, 56, 100
2, 41158, Note_off_c, 0, 56, 0
2, 41158, Note_off_c, 0, 53, 0
2, 41158, Note_off_c, 0, 49, 0
2, 41184, Note_on_c, 0, 49, 100
2, 41184, Note_on_c, 0, 53, 100
2, 41184, Note_on_c, 0, 56, 100
2, 41206, Note_off_c, 0, 56, 0
2, 41206, Note_off_c, 0, 53, 0
2, 41206, Note_off_c, 0, 49, 0
2, 41232, Note_on_c, 0, 49, 100
2, 41232, Note_on_c, 0, 56, 100
2, 41232, Note_on_c, 0, 53, 100
2, 41254, Note_off_c, 0, 53, 0
2, 41254, Note_off_c, 0, 56, 0
2, 41254, Note_off_c, 0, 49, 0
2, 41280, Note_on_c, 0, 49, 100
2, 41280, Note_on_c, 0, 53, 100
2, 41280, Note_on_c, 0, 56, 100
2, 41302, Note_off_c, 0, 56, 0
2, 41302, Note_off_c, 0, 53, 0
2, 41302, Note_off_c, 0, 49, 0
2, 41328, Note_on_c, 0, 49, 100
2, 41328, Note_on_c, 0, 53, 100
2, 41328, Note_on_c, 0, 56, 100
2, 41398, Note_off_c, 0, 56, 0
2, 41398, Note_off_c, 0, 53, 0
2, 41398, Note_off_c, 0, 49, 0
2, 41472, Note_on_c, 0, 49, 100
2, 41472, Note_on_c, 0, 53, 100
2, 41472, Note_on_c, 0, 56, 100
2, 41566, Note_off_c, 0, 56, 0
2, 41566, Note_off_c, 0, 53, 0
2, 41566, Note_off_c, 0, 49, 0
2, 41614, Note_off_c, 0, 54, 0
2, 41664, Note_on_c, 0, 56, 100
2, 41664, Note_on_c, 0, 49, 100
2, 41664, Note_on_c, 0, 53, 100
2, 41664, Note_on_c, 0, 56, 100
2, 41758, Note_off_c, 0, 56, 0
2, 41758, Note_off_c, 0, 53, 0
2, 41758, Note_off_c, 0, 49, 0
2, 41758, Note_off_c, 0, 56, 0
2, 41808, Note_on_c, 0, 58, 100
2, 41854, Note_off_c, 0, 58, 0
2, 41856, Note_on_c, 0, 60, 100
2, 41856, Note_on_c, 0, 49, 100
2, 41856, Note_on_c, 0, 53, 100
2, 41856, Note_on_c, 0, 56, 100
2, 41902, Note_off_c, 0, 60, 0
2, 41926, Note_off_c, 0, 49, 0
2, 41926, Note_off_c, 0, 53, 0
2, 41926, Note_off_c, 0, 56, 0
2, 41952, Note_on_c, 0, 66, 100
2, 41952, Note_on_c, 0, 49, 100
2, 41952, Note_on_c, 0, 53, 100
2, 41952, Note_on_c, 0, 56, 100
2, 41974, Note_off_c, 0, 56, 0
2, 41974, Note_off_c, 0, 53, 0
2, 41974, Note_off_c, 0, 49, 0
2, 42000, Note_on_c, 0, 49, 100
2, 42000, Note_on_c, 0, 56, 100
2, 42000, Note_on_c, 0, 53, 100
2, 42022, Note_off_c, 0, 53, 0
2, 42022, Note_off_c, 0, 56, 0
2, 42022, Note_off_c, 0, 49, 0
2, 42048, Note_on_c, 0, 49, 100
2, 42048, Note_on_c, 0, 53, 100
2, 42048, Note_on_c, 0, 56, 100
2, 42070, Note_off_c, 0, 56, 0
2, 42070, Note_off_c, 0, 53, 0
2, 42070, Note_off_c, 0, 49, 0
2, 42096, Note_on_c, 0, 49, 100
2, 42096, Note_on_c, 0, 53, 100
2, 42096, Note_on_c, 0, 56, 100
2, 42166, Note_off_c, 0, 56, 0
2, 42166, Note_off_c, 0, 53, 0
2, 42166, Note_off_c, 0, 49, 0
2, 42238, Note_off_c, 0, 66, 0
2, 42240, Note_on_c, 0, 61, 100
2, 42240, Note_on_c, 0, 53, 100
2, 42240, Note_on_c, 0, 49, 100
2, 42240, Note_on_c, 0, 53, 100
2, 42240, Note_on_c, 0, 56, 100
2, 42334, Note_off_c, 0, 56, 0
2, 42334, Note_off_c, 0, 49, 0
2, 42334, Note_off_c, 0, 53, 0
2, 42430, Note_off_c, 0, 61, 0
2, 42430, Note_off_c, 0, 53, 0
2, 42432, Note_on_c, 0, 63, 100
2, 42432, Note_on_c, 0, 56, 100
2, 42432, Note_on_c, 0, 49, 100
2, 42432, Note_on_c, 0, 53, 100
2, 42432, Note_on_c, 0, 56, 100
2, 42526, Note_off_c, 0, 53, 0
2, 42526, Note_off_c, 0, 49, 0
2, 42526, Note_off_c, 0, 56, 0
2, 42622, Note_off_c, 0, 63, 0
2, 42622, Note_off_c, 0, 56, 0
2, 42624, Note_on_c, 0, 65, 100
2, 42624, Note_on_c, 0, 61, 100
2, 42624, Note_on_c, 0, 49, 100
2, 42624, Note_on_c, 0, 53, 100
2, 42624, Note_on_c, 0, 56, 100
2, 42694, Note_off_c, 0, 56, 0
2, 42694, Note_off_c, 0, 53, 0
2, 42694, Note_off_c, 0, 49, 0
2, 42718, Note_off_c, 0, 61, 0
2, 42718, Note_off_c, 0, 65, 0
2, 42720, Note_on_c, 0, 49, 100
2, 42720, Note_on_c, 0, 53, 100
2, 42720, Note_on_c, 0, 56, 100
2, 42742, Note_off_c, 0, 56, 0
2, 42742, Note_off_c, 0, 53, 0
2, 42742, Note_off_c, 0, 49, 0
2, 42768, Note_on_c, 0, 49, 100
2, 42768, Note_on_c, 0, 56, 100
2, 42768, Note_on_c, 0, 53, 100
2, 42790, Note_off_c, 0, 53, 0
2, 42790, Note_off_c, 0, 56, 0
2, 42790, Note_off_c, 0, 49, 0
2, 42816, Note_on_c, 0, 49, 100
2, 42816, Note_on_c, 0, 53, 100
2, 42816, Note_on_c, 0, 56, 100
2, 42838, Note_off_c, 0, 56, 0
2, 42838, Note_off_c, 0, 53, 0
2, 42838, Note_off_c, 0, 49, 0
2, 42864, Note_on_c, 0, 49, 100
2, 42864, Note_on_c, 0, 53, 100
2, 42864, Note_on_c, 0, 56, 100
2, 42934, Note_off_c, 0, 56, 0
2, 42934, Note_off_c, 0, 53, 0
2, 42934, Note_off_c, 0, 49, 0
2, 43008, Note_on_c, 0, 49, 100
2, 43008, Note_on_c, 0, 53, 100
2, 43008, Note_on_c, 0, 56, 100
2, 43102, Note_off_c, 0, 56, 0
2, 43102, Note_off_c, 0, 53, 0
2, 43102, Note_off_c, 0, 49, 0
2, 43200, Note_on_c, 0, 53, 100
2, 43200, Note_on_c, 0, 49, 100
2, 43200, Note_on_c, 0, 53, 100
2, 43200, Note_on_c, 0, 56, 100
2, 43294, Note_off_c, 0, 56, 0
2, 43294, Note_off_c, 0, 53, 0
2, 43294, Note_off_c, 0, 49, 0
2, 43294, Note_off_c, 0, 53, 0
2, 43344, Note_on_c, 0, 54, 100
2, 43390, Note_off_c, 0, 54, 0
2, 43392, Note_on_c, 0, 56, 100
2, 43392, Note_on_c, 0, 49, 100
2, 43392, Note_on_c, 0, 53, 100
2, 43392, Note_on_c, 0, 56, 100
2, 43438, Note_off_c, 0, 56, 0
2, 43462, Note_off_c, 0, 49, 0
2, 43462, Note_off_c, 0, 53, 0
2, 43462, Note_off_c, 0, 56, 0
2, 43488, Note_on_c, 0, 61, 100
2, 43488, Note_on_c, 0, 49, 100
2, 43488, Note_on_c, 0, 53, 100
2, 43488, Note_on_c, 0, 56, 100
2, 43510, Note_off_c, 0, 56, 0
2, 43510, Note_off_c, 0, 53, 0
2, 43510, Note_off_c, 0, 49, 0
2, 43536, Note_on_c, 0, 49, 100
2, 43536, Note_on_c, 0, 56, 100
2, 43536, Note_on_c, 0, 53, 100
2, 43558, Note_off_c, 0, 53, 0
2, 43558, Note_off_c, 0, 56, 0
2, 43558, Note_off_c, 0, 49, 0
2, 43584, Note_on_c, 0, 49, 100
2, 43584, Note_on_c, 0, 53, 100
2, 43584, Note_on_c, 0, 56, 100
2, 43606, Note_off_c, 0, 56, 0
2, 43606, Note_off_c, 0, 53, 0
2, 43606, Note_off_c, 0, 49, 0
2, 43632, Note_on_c, 0, 49, 100
2, 43632, Note_on_c, 0, 53, 100
2, 43632, Note_on_c, 0, 56, 100
2, 43702, Note_off_c, 0, 56, 0
2, 43702, Note_off_c, 0, 53, 0
2, 43702, Note_off_c, 0, 49, 0
2, 43774, Note_off_c, 0, 61, 0
2, 43776, Note_on_c, 0, 50, 100
2, 43776, Note_on_c, 0, 54, 100
2, 43776, Note_on_c, 0, 57, 100
2, 43846, Note_off_c, 0, 57, 0
2, 43846, Note_off_c, 0, 54, 0
2, 43846, Note_off_c, 0, 50, 0
2, 43872, Note_on_c, 0, 50, 100
2, 43872, Note_on_c, 0, 54, 100
2, 43872, Note_on_c, 0, 57, 100
2, 43894, Note_off_c, 0, 57, 0
2, 43894, Note_off_c, 0, 54, 0
2, 43894, Note_off_c, 0, 50, 0
2, 43920, Note_on_c, 0, 50, 100
2, 43920, Note_on_c, 0, 54, 100
2, 43920, Note_on_c, 0, 57, 100
2, 43942, Note_off_c, 0, 57, 0
2, 43942, Note_off_c, 0, 54, 0
2, 43942, Note_off_c, 0, 50, 0
2, 43968, Note_on_c, 0, 57, 100
2, 43968, Note_on_c, 0, 50, 100
2, 43968, Note_on_c, 0, 54, 100
2, 43968, Note_on_c, 0, 57, 100
2, 43990, Note_off_c, 0, 54, 0
2, 43990, Note_off_c, 0, 50, 0
2, 43990, Note_off_c, 0, 57, 0
2, 44016, Note_on_c, 0, 50, 100
2, 44016, Note_on_c, 0, 54, 100
2, 44016, Note_on_c, 0, 57, 100
2, 44062, Note_off_c, 0, 57, 0
2, 44086, Note_off_c, 0, 50, 0
2, 44086, Note_off_c, 0, 54, 0
2, 44086, Note_off_c, 0, 57, 0
2, 44112, Note_on_c, 0, 57, 100
2, 44158, Note_off_c, 0, 57, 0
2, 44160, Note_on_c, 0, 50, 100
2, 44160, Note_on_c, 0, 62, 100
2, 44160, Note_on_c, 0, 50, 100
2, 44160, Note_on_c, 0, 54, 100
2, 44160, Note_on_c, 0, 57, 100
2, 44254, Note_off_c, 0, 57, 0
2, 44254, Note_off_c, 0, 54, 0
2, 44254, Note_off_c, 0, 50, 0
2, 44254, Note_off_c, 0, 62, 0
2, 44254, Note_off_c, 0, 50, 0
2, 44736, Note_on_c, 0, 51, 100
2, 44736, Note_on_c, 0, 56, 100
2, 44736, Note_on_c, 0, 44, 100
2, 44830, Note_off_c, 0, 44, 0
2, 44830, Note_off_c, 0, 56, 0
2, 44830, Note_off_c, 0, 51, 0
2, 45120, Note_on_c, 0, 44, 100
2, 45120, Note_on_c, 0, 51, 100
2, 45120, Note_on_c, 0, 56, 100
2, 45214, Note_off_c, 0, 56, 0
2, 45214, Note_off_c, 0, 51, 0
2, 45214, Note_off_c, 0, 44, 0
2, 45504, Note_on_c, 0, 44, 100
2, 45504, Note_on_c, 0, 51, 100
2, 45504, Note_on_c, 0, 56, 100
2, 45598, Note_off_c, 0, 56, 0
2, 45598, Note_off_c, 0, 51, 0
2, 45598, Note_off_c, 0, 44, 0
2, 46464, Note_on_c, 0, 54, 100
2, 46654, Note_off_c, 0, 54, 0
2, 46656, Note_on_c, 0, 53, 100
2, 46750, Note_off_c, 0, 53, 0
2, 46800, Note_on_c, 0, 51, 100
2, 46846, Note_off_c, 0, 51, 0
2, 46848, Note_on_c, 0, 49, 100
2, 47326, Note_off_c, 0, 49, 0
2, 47424, Note_on_c, 0, 49, 100
2, 47470, Note_off_c, 0, 49, 0
2, 47472, Note_on_c, 0, 49, 100
2, 47518, Note_off_c, 0, 49, 0
2, 47520, Note_on_c, 0, 49, 100
2, 47566, Note_off_c, 0, 49, 0
2, 47616, Note_on_c, 0, 51, 100
2, 47616, Note_on_c, 0, 54, 100
2, 48094, Note_off_c, 0, 54, 0
2, 48094, Note_off_c, 0, 51, 0
2, 48192, Note_on_c, 0, 51, 100
2, 48192, Note_on_c, 0, 54, 100
2, 48238, Note_off_c, 0, 54, 0
2, 48286, Note_off_c, 0, 51, 0
2, 48288, Note_on_c, 0, 54, 100
2, 48334, Note_off_c, 0, 54, 0
2, 48336, Note_on_c, 0, 55, 100
2, 48382, Note_off_c, 0, 55, 0
2, 48384, Note_on_c, 0, 53, 100
2, 48384, Note_on_c, 0, 56, 100
2, 48862, Note_off_c, 0, 56, 0
2, 48862, Note_off_c, 0, 53, 0
2, 48960, Note_on_c, 0, 49, 100
2, 49006, Note_off_c, 0, 49, 0
2, 49008, Note_on_c, 0, 49, 100
2, 49054, Note_off_c, 0, 49, 0
2, 49056, Note_on_c, 0, 49, 100
2, 49102, Note_off_c, 0, 49, 0
2, 49152, Note_on_c, 0, 51, 100
2, 49152, Note_on_c, 0, 54, 100
2, 49726, Note_off_c, 0, 54, 0
2, 49726, Note_off_c, 0, 51, 0
2, 49824, Note_on_c, 0, 54, 100
2, 49870, Note_off_c, 0, 54, 0
2, 49872, Note_on_c, 0, 55, 100
2, 49918, Note_off_c, 0, 55, 0
2, 49920, Note_on_c, 0, 53, 100
2, 49920, Note_on_c, 0, 56, 100
2, 50398, Note_off_c, 0, 56, 0
2, 50398, Note_off_c, 0, 53, 0
2, 50688, Note_on_c, 0, 49, 100
2, 50688, Note_on_c, 0, 52, 100
2, 50688, Note_on_c, 0, 57, 100
2, 51166, Note_off_c, 0, 57, 0
2, 51166, Note_off_c, 0, 52, 0
2, 51166, Note_off_c, 0, 49, 0
2, 51456, Note_on_c, 0, 51, 100
2, 51456, Note_on_c, 0, 54, 100
2, 51456, Note_on_c, 0, 59, 100
2, 51790, Note_off_c, 0, 59, 0
2, 51790, Note_off_c, 0, 54, 0
2, 51790, Note_off_c, 0, 51, 0
2, 51840, Note_on_c, 0, 47, 100
2, 51840, Note_on_c, 0, 54, 100
2, 51840, Note_on_c, 0, 51, 100
2, 52174, Note_off_c, 0, 51, 0
2, 52174, Note_off_c, 0, 54, 0
2, 52174, Note_off_c, 0, 47, 0
2, 52224, Note_on_c, 0, 49, 100
2, 52224, Note_on_c, 0, 53, 100
2, 52224, Note_on_c, 0, 56, 100
2, 52990, Note_off_c, 0, 56, 0
2, 52990, Note_off_c, 0, 53, 0
2, 52990, Note_off_c, 0, 49, 0
2, 53184, Note_on_c, 0, 49, 100
2, 53230, Note_off_c, 0, 49, 0
2, 53232, Note_on_c, 0, 49, 100
2, 53278, Note_off_c, 0, 49, 0
2, 53280, Note_on_c, 0, 49, 100
2, 53326, Note_off_c, 0, 49, 0
2, 53328, Note_on_c, 0, 49, 100
2, 53374, Note_off_c, 0, 49, 0
2, 53376, Note_on_c, 0, 49, 100
2, 53470, Note_off_c, 0, 49, 0
2, 53470, End_track
3, 0, Start_track
3, 0, Title_t, "main trombone"
3, 0, Channel_prefix, 5
3, 0, Control_c, 5, 7, 127
3, 0, Control_c, 5, 10, 63
3, 0, Program_c, 5, 57
3, 0, Control_c, 5, 0, 0
3, 0, Control_c, 5, 32, 0
3, 0, Control_c, 5, 91, 127
3, 0, Control_c, 5, 93, 8
3, 2880, Note_on_c, 5, 64, 100
3, 2974, Note_off_c, 5, 64, 0
3, 3024, Note_on_c, 5, 65, 100
3, 3070, Note_off_c, 5, 65, 0
3, 3072, Note_on_c, 5, 67, 100
3, 3118, Note_off_c, 5, 67, 0
3, 3168, Note_on_c, 5, 72, 100
3, 3598, Note_off_c, 5, 72, 0
3, 3648, Note_on_c, 5, 62, 100
3, 3742, Note_off_c, 5, 62, 0
3, 3792, Note_on_c, 5, 64, 100
3, 3838, Note_off_c, 5, 64, 0
3, 3840, Note_on_c, 5, 65, 100
3, 4366, Note_off_c, 5, 65, 0
3, 4416, Note_on_c, 5, 67, 100
3, 4510, Note_off_c, 5, 67, 0
3, 4560, Note_on_c, 5, 69, 100
3, 4606, Note_off_c, 5, 69, 0
3, 4608, Note_on_c, 5, 71, 100
3, 4654, Note_off_c, 5, 71, 0
3, 4704, Note_on_c, 5, 77, 100
3, 5134, Note_off_c, 5, 77, 0
3, 5184, Note_on_c, 5, 69, 100
3, 5278, Note_off_c, 5, 69, 0
3, 5328, Note_on_c, 5, 71, 100
3, 5374, Note_off_c, 5, 71, 0
3, 5376, Note_on_c, 5, 72, 100
3, 5566, Note_off_c, 5, 72, 0
3, 5568, Note_on_c, 5, 74, 100
3, 5758, Note_off_c, 5, 74, 0
3, 5760, Note_on_c, 5, 76, 100
3, 5854, Note_off_c, 5, 76, 0
3, 5952, Note_on_c, 5, 64, 100
3, 6046, Note_off_c, 5, 64, 0
3, 6096, Note_on_c, 5, 65, 100
3, 6142, Note_off_c, 5, 65, 0
3, 6144, Note_on_c, 5, 67, 100
3, 6190, Note_off_c, 5, 67, 0
3, 6240, Note_on_c, 5, 72, 100
3, 6670, Note_off_c, 5, 72, 0
3, 6720, Note_on_c, 5, 74, 100
3, 6814, Note_off_c, 5, 74, 0
3, 6864, Note_on_c, 5, 76, 100
3, 6910, Note_off_c, 5, 76, 0
3, 6912, Note_on_c, 5, 77, 100
3, 7438, Note_off_c, 5, 77, 0
3, 7488, Note_on_c, 5, 67, 100
3, 7582, Note_off_c, 5, 67, 0
3, 7632, Note_on_c, 5, 67, 100
3, 7678, Note_off_c, 5, 67, 0
3, 7680, Note_on_c, 5, 67, 100
3, 7680, Note_on_c, 5, 72, 100
3, 7680, Note_on_c, 5, 65, 100
3, 7680, Note_on_c, 5, 76, 100
3, 7870, Note_off_c, 5, 76, 0
3, 7870, Note_off_c, 5, 65, 0
3, 7870, Note_off_c, 5, 72, 0
3, 7870, Note_off_c, 5, 67, 0
3, 7872, Note_on_c, 5, 74, 100
3, 7966, Note_off_c, 5, 74, 0
3, 8016, Note_on_c, 5, 67, 100
3, 8062, Note_off_c, 5, 67, 0
3, 8064, Note_on_c, 5, 67, 100
3, 8064, Note_on_c, 5, 72, 100
3, 8064, Note_on_c, 5, 65, 100
3, 8064, Note_on_c, 5, 76, 100
3, 8254, Note_off_c, 5, 76, 0
3, 8254, Note_off_c, 5, 65, 0
3, 8254, Note_off_c, 5, 72, 0
3, 8254, Note_off_c, 5, 67, 0
3, 8256, Note_on_c, 5, 74, 100
3, 8350, Note_off_c, 5, 74, 0
3, 8400, Note_on_c, 5, 67, 100
3, 8446, Note_off_c, 5, 67, 0
3, 8448, Note_on_c, 5, 67, 100
3, 8448, Note_on_c, 5, 72, 100
3, 8448, Note_on_c, 5, 65, 100
3, 8448, Note_on_c, 5, 76, 100
3, 8638, Note_off_c, 5, 76, 0
3, 8638, Note_off_c, 5, 65, 0
3, 8638, Note_off_c, 5, 72, 0
3, 8638, Note_off_c, 5, 67, 0
3, 8640, Note_on_c, 5, 74, 100
3, 8734, Note_off_c, 5, 74, 0
3, 8784, Note_on_c, 5, 67, 100
3, 8830, Note_off_c, 5, 67, 0
3, 8832, Note_on_c, 5, 67, 100
3, 8832, Note_on_c, 5, 65, 100
3, 8832, Note_on_c, 5, 72, 100
3, 8832, Note_on_c, 5, 76, 100
3, 8926, Note_off_c, 5, 76, 0
3, 8926, Note_off_c, 5, 72, 0
3, 8926, Note_off_c, 5, 65, 0
3, 8926, Note_off_c, 5, 67, 0
3, 8928, Note_on_c, 5, 74, 100
3, 8974, Note_off_c, 5, 74, 0
3, 9024, Note_on_c, 5, 64, 100
3, 9118, Note_off_c, 5, 64, 0
3, 9168, Note_on_c, 5, 65, 100
3, 9214, Note_off_c, 5, 65, 0
3, 9216, Note_on_c, 5, 67, 100
3, 9262, Note_off_c, 5, 67, 0
3, 9312, Note_on_c, 5, 72, 100
3, 9742, Note_off_c, 5, 72, 0
3, 9792, Note_on_c, 5, 62, 100
3, 9886, Note_off_c, 5, 62, 0
3, 9936, Note_on_c, 5, 64, 100
3, 9982, Note_off_c, 5, 64, 0
3, 9984, Note_on_c, 5, 65, 100
3, 10510, Note_off_c, 5, 65, 0
3, 10560, Note_on_c, 5, 67, 100
3, 10654, Note_off_c, 5, 67, 0
3, 10704, Note_on_c, 5, 69, 100
3, 10750, Note_off_c, 5, 69, 0
3, 10752, Note_on_c, 5, 71, 100
3, 10798, Note_off_c, 5, 71, 0
3, 10848, Note_on_c, 5, 77, 100
3, 11278, Note_off_c, 5, 77, 0
3, 11328, Note_on_c, 5, 69, 100
3, 11422, Note_off_c, 5, 69, 0
3, 11472, Note_on_c, 5, 71, 100
3, 11518, Note_off_c, 5, 71, 0
3, 11520, Note_on_c, 5, 72, 100
3, 11710, Note_off_c, 5, 72, 0
3, 11712, Note_on_c, 5, 74, 100
3, 11902, Note_off_c, 5, 74, 0
3, 11904, Note_on_c, 5, 76, 100
3, 11998, Note_off_c, 5, 76, 0
3, 12096, Note_on_c, 5, 64, 100
3, 12190, Note_off_c, 5, 64, 0
3, 12240, Note_on_c, 5, 65, 100
3, 12286, Note_off_c, 5, 65, 0
3, 12288, Note_on_c, 5, 67, 100
3, 12334, Note_off_c, 5, 67, 0
3, 12384, Note_on_c, 5, 72, 100
3, 12814, Note_off_c, 5, 72, 0
3, 12864, Note_on_c, 5, 74, 100
3, 12958, Note_off_c, 5, 74, 0
3, 13008, Note_on_c, 5, 76, 100
3, 13054, Note_off_c, 5, 76, 0
3, 13056, Note_on_c, 5, 77, 100
3, 13582, Note_off_c, 5, 77, 0
3, 13632, Note_on_c, 5, 67, 100
3, 13726, Note_off_c, 5, 67, 0
3, 13776, Note_on_c, 5, 67, 100
3, 13822, Note_off_c, 5, 67, 0
3, 13824, Note_on_c, 5, 67, 100
3, 13824, Note_on_c, 5, 72, 100
3, 13824, Note_on_c, 5, 65, 100
3, 13824, Note_on_c, 5, 76, 100
3, 14014, Note_off_c, 5, 76, 0
3, 14014, Note_off_c, 5, 65, 0
3, 14014, Note_off_c, 5, 72, 0
3, 14014, Note_off_c, 5, 67, 0
3, 14016, Note_on_c, 5, 74, 100
3, 14110, Note_off_c, 5, 74, 0
3, 14160, Note_on_c, 5, 67, 100
3, 14206, Note_off_c, 5, 67, 0
3, 14208, Note_on_c, 5, 67, 100
3, 14208, Note_on_c, 5, 72, 100
3, 14208, Note_on_c, 5, 65, 100
3, 14208, Note_on_c, 5, 76, 100
3, 14398, Note_off_c, 5, 76, 0
3, 14398, Note_off_c, 5, 65, 0
3, 14398, Note_off_c, 5, 72, 0
3, 14398, Note_off_c, 5, 67, 0
3, 14400, Note_on_c, 5, 74, 100
3, 14494, Note_off_c, 5, 74, 0
3, 14544, Note_on_c, 5, 67, 100
3, 14590, Note_off_c, 5, 67, 0
3, 14592, Note_on_c, 5, 67, 100
3, 14592, Note_on_c, 5, 72, 100
3, 14592, Note_on_c, 5, 65, 100
3, 14592, Note_on_c, 5, 76, 100
3, 14782, Note_off_c, 5, 76, 0
3, 14782, Note_off_c, 5, 65, 0
3, 14782, Note_off_c, 5, 72, 0
3, 14782, Note_off_c, 5, 67, 0
3, 14784, Note_on_c, 5, 74, 100
3, 14878, Note_off_c, 5, 74, 0
3, 14928, Note_on_c, 5, 67, 100
3, 14974, Note_off_c, 5, 67, 0
3, 14976, Note_on_c, 5, 67, 100
3, 14976, Note_on_c, 5, 65, 100
3, 14976, Note_on_c, 5, 72, 100
3, 14976, Note_on_c, 5, 76, 100
3, 15070, Note_off_c, 5, 76, 0
3, 15070, Note_off_c, 5, 72, 0
3, 15070, Note_off_c, 5, 65, 0
3, 15070, Note_off_c, 5, 67, 0
3, 15072, Note_on_c, 5, 74, 100
3, 15118, Note_off_c, 5, 74, 0
3, 21312, Note_on_c, 5, 64, 100
3, 21406, Note_off_c, 5, 64, 0
3, 21456, Note_on_c, 5, 67, 100
3, 21502, Note_off_c, 5, 67, 0
3, 21504, Note_on_c, 5, 65, 100
3, 22030, Note_off_c, 5, 65, 0
3, 22080, Note_on_c, 5, 62, 100
3, 22174, Note_off_c, 5, 62, 0
3, 22224, Note_on_c, 5, 65, 100
3, 22270, Note_off_c, 5, 65, 0
3, 22272, Note_on_c, 5, 64, 100
3, 22302, Note_off_c, 5, 64, 0
3, 22336, Note_on_c, 5, 67, 100
3, 22366, Note_off_c, 5, 67, 0
3, 22400, Note_on_c, 5, 76, 100
3, 22782, Note_off_c, 5, 76, 0
3, 22848, Note_on_c, 5, 64, 100
3, 22942, Note_off_c, 5, 64, 0
3, 22992, Note_on_c, 5, 67, 100
3, 23038, Note_off_c, 5, 67, 0
3, 23040, Note_on_c, 5, 65, 100
3, 23566, Note_off_c, 5, 65, 0
3, 23616, Note_on_c, 5, 62, 100
3, 23710, Note_off_c, 5, 62, 0
3, 23760, Note_on_c, 5, 65, 100
3, 23806, Note_off_c, 5, 65, 0
3, 23808, Note_on_c, 5, 63, 100
3, 23838, Note_off_c, 5, 63, 0
3, 23872, Note_on_c, 5, 62, 100
3, 23902, Note_off_c, 5, 62, 0
3, 23936, Note_on_c, 5, 60, 100
3, 24318, Note_off_c, 5, 60, 0
3, 24384, Note_on_c, 5, 64, 100
3, 24478, Note_off_c, 5, 64, 0
3, 24528, Note_on_c, 5, 67, 100
3, 24574, Note_off_c, 5, 67, 0
3, 24576, Note_on_c, 5, 65, 100
3, 25102, Note_off_c, 5, 65, 0
3, 25152, Note_on_c, 5, 62, 100
3, 25246, Note_off_c, 5, 62, 0
3, 25296, Note_on_c, 5, 65, 100
3, 25342, Note_off_c, 5, 65, 0
3, 25344, Note_on_c, 5, 64, 100
3, 25374, Note_off_c, 5, 64, 0
3, 25408, Note_on_c, 5, 67, 100
3, 25438, Note_off_c, 5, 67, 0
3, 25472, Note_on_c, 5, 76, 100
3, 25854, Note_off_c, 5, 76, 0
3, 25920, Note_on_c, 5, 74, 100
3, 26014, Note_off_c, 5, 74, 0
3, 26064, Note_on_c, 5, 76, 100
3, 26110, Note_off_c, 5, 76, 0
3, 26112, Note_on_c, 5, 77, 100
3, 26112, Note_on_c, 5, 74, 100
3, 26112, Note_on_c, 5, 70, 100
3, 26158, Note_off_c, 5, 70, 0
3, 26158, Note_off_c, 5, 74, 0
3, 26158, Note_off_c, 5, 77, 0
3, 26208, Note_on_c, 5, 70, 100
3, 26254, Note_off_c, 5, 70, 0
3, 26256, Note_on_c, 5, 69, 100
3, 26302, Note_off_c, 5, 69, 0
3, 26304, Note_on_c, 5, 70, 100
3, 26350, Note_off_c, 5, 70, 0
3, 26400, Note_on_c, 5, 70, 100
3, 26400, Note_on_c, 5, 74, 100
3, 26400, Note_on_c, 5, 77, 100
3, 26446, Note_off_c, 5, 77, 0
3, 26446, Note_off_c, 5, 74, 0
3, 26446, Note_off_c, 5, 70, 0
3, 26496, Note_on_c, 5, 70, 100
3, 26542, Note_off_c, 5, 70, 0
3, 26544, Note_on_c, 5, 69, 100
3, 26590, Note_off_c, 5, 69, 0
3, 26592, Note_on_c, 5, 70, 100
3, 26638, Note_off_c, 5, 70, 0
3, 26688, Note_on_c, 5, 70, 100
3, 26688, Note_on_c, 5, 74, 100
3, 26688, Note_on_c, 5, 77, 100
3, 26734, Note_off_c, 5, 77, 0
3, 26734, Note_off_c, 5, 74, 0
3, 26734, Note_off_c, 5, 70, 0
3, 26784, Note_on_c, 5, 75, 100
3, 26830, Note_off_c, 5, 75, 0
3, 26832, Note_on_c, 5, 74, 100
3, 26878, Note_off_c, 5, 74, 0
3, 26880, Note_on_c, 5, 68, 100
3, 26880, Note_on_c, 5, 72, 100
3, 26880, Note_on_c, 5, 75, 100
3, 27478, Note_off_c, 5, 75, 0
3, 27478, Note_off_c, 5, 72, 0
3, 27478, Note_off_c, 5, 68, 0
3, 27552, Note_on_c, 5, 72, 100
3, 27598, Note_off_c, 5, 72, 0
3, 27600, Note_on_c, 5, 72, 100
3, 27646, Note_off_c, 5, 72, 0
3, 27648, Note_on_c, 5, 70, 100
3, 27648, Note_on_c, 5, 74, 100
3, 27648, Note_on_c, 5, 77, 100
3, 27694, Note_off_c, 5, 77, 0
3, 27694, Note_off_c, 5, 74, 0
3, 27694, Note_off_c, 5, 70, 0
3, 27744, Note_on_c, 5, 70, 100
3, 27790, Note_off_c, 5, 70, 0
3, 27792, Note_on_c, 5, 69, 100
3, 27838, Note_off_c, 5, 69, 0
3, 27840, Note_on_c, 5, 70, 100
3, 27886, Note_off_c, 5, 70, 0
3, 27936, Note_on_c, 5, 70, 100
3, 27936, Note_on_c, 5, 74, 100
3, 27936, Note_on_c, 5, 77, 100
3, 27982, Note_off_c, 5, 77, 0
3, 27982, Note_off_c, 5, 74, 0
3, 27982, Note_off_c, 5, 70, 0
3, 28032, Note_on_c, 5, 70, 100
3, 28078, Note_off_c, 5, 70, 0
3, 28080, Note_on_c, 5, 69, 100
3, 28126, Note_off_c, 5, 69, 0
3, 28128, Note_on_c, 5, 70, 100
3, 28174, Note_off_c, 5, 70, 0
3, 28224, Note_on_c, 5, 70, 100
3, 28224, Note_on_c, 5, 74, 100
3, 28224, Note_on_c, 5, 77, 100
3, 28270, Note_off_c, 5, 77, 0
3, 28270, Note_off_c, 5, 74, 0
3, 28270, Note_off_c, 5, 70, 0
3, 28320, Note_on_c, 5, 75, 100
3, 28366, Note_off_c, 5, 75, 0
3, 28368, Note_on_c, 5, 74, 100
3, 28414, Note_off_c, 5, 74, 0
3, 28416, Note_on_c, 5, 68, 100
3, 28416, Note_on_c, 5, 72, 100
3, 28416, Note_on_c, 5, 75, 100
3, 29014, Note_off_c, 5, 75, 0
3, 29014, Note_off_c, 5, 72, 0
3, 29014, Note_off_c, 5, 68, 0
3, 29088, Note_on_c, 5, 72, 100
3, 29134, Note_off_c, 5, 72, 0
3, 29136, Note_on_c, 5, 72, 100
3, 29182, Note_off_c, 5, 72, 0
3, 29184, Note_on_c, 5, 74, 100
3, 29184, Note_on_c, 5, 70, 100
3, 29184, Note_on_c, 5, 77, 100
3, 29230, Note_off_c, 5, 77, 0
3, 29230, Note_off_c, 5, 70, 0
3, 29230, Note_off_c, 5, 74, 0
3, 29280, Note_on_c, 5, 70, 100
3, 29326, Note_off_c, 5, 70, 0
3, 29328, Note_on_c, 5, 69, 100
3, 29374, Note_off_c, 5, 69, 0
3, 29376, Note_on_c, 5, 70, 100
3, 29422, Note_off_c, 5, 70, 0
3, 29472, Note_on_c, 5, 70, 100
3, 29472, Note_on_c, 5, 74, 100
3, 29472, Note_on_c, 5, 77, 100
3, 29518, Note_off_c, 5, 77, 0
3, 29518, Note_off_c, 5, 74, 0
3, 29518, Note_off_c, 5, 70, 0
3, 29568, Note_on_c, 5, 70, 100
3, 29614, Note_off_c, 5, 70, 0
3, 29616, Note_on_c, 5, 69, 100
3, 29662, Note_off_c, 5, 69, 0
3, 29664, Note_on_c, 5, 70, 100
3, 29710, Note_off_c, 5, 70, 0
3, 29760, Note_on_c, 5, 70, 100
3, 29760, Note_on_c, 5, 74, 100
3, 29760, Note_on_c, 5, 77, 100
3, 29806, Note_off_c, 5, 77, 0
3, 29806, Note_off_c, 5, 74, 0
3, 29806, Note_off_c, 5, 70, 0
3, 29856, Note_on_c, 5, 75, 100
3, 29902, Note_off_c, 5, 75, 0
3, 29904, Note_on_c, 5, 74, 100
3, 29950, Note_off_c, 5, 74, 0
3, 29952, Note_on_c, 5, 68, 100
3, 29952, Note_on_c, 5, 72, 100
3, 29952, Note_on_c, 5, 75, 100
3, 29998, Note_off_c, 5, 75, 0
3, 29998, Note_off_c, 5, 72, 0
3, 29998, Note_off_c, 5, 68, 0
3, 30048, Note_on_c, 5, 68, 100
3, 30094, Note_off_c, 5, 68, 0
3, 30096, Note_on_c, 5, 67, 100
3, 30142, Note_off_c, 5, 67, 0
3, 30144, Note_on_c, 5, 68, 100
3, 30190, Note_off_c, 5, 68, 0
3, 30240, Note_on_c, 5, 68, 100
3, 30240, Note_on_c, 5, 72, 100
3, 30240, Note_on_c, 5, 75, 100
3, 30286, Note_off_c, 5, 75, 0
3, 30286, Note_off_c, 5, 72, 0
3, 30286, Note_off_c, 5, 68, 0
3, 30336, Note_on_c, 5, 68, 100
3, 30382, Note_off_c, 5, 68, 0
3, 30384, Note_on_c, 5, 67, 100
3, 30430, Note_off_c, 5, 67, 0
3, 30432, Note_on_c, 5, 68, 100
3, 30478, Note_off_c, 5, 68, 0
3, 30528, Note_on_c, 5, 68, 100
3, 30528, Note_on_c, 5, 72, 100
3, 30528, Note_on_c, 5, 75, 100
3, 30574, Note_off_c, 5, 75, 0
3, 30574, Note_off_c, 5, 72, 0
3, 30574, Note_off_c, 5, 68, 0
3, 30624, Note_on_c, 5, 72, 100
3, 30624, Note_on_c, 5, 68, 100
3, 30624, Note_on_c, 5, 75, 100
3, 30670, Note_off_c, 5, 75, 0
3, 30670, Note_off_c, 5, 68, 0
3, 30670, Note_off_c, 5, 72, 0
3, 30672, Note_on_c, 5, 74, 100
3, 30672, Note_on_c, 5, 68, 100
3, 30672, Note_on_c, 5, 77, 100
3, 30718, Note_off_c, 5, 77, 0
3, 30718, Note_off_c, 5, 68, 0
3, 30718, Note_off_c, 5, 74, 0
3, 30720, Note_on_c, 5, 72, 100
3, 30720, Note_on_c, 5, 76, 100
3, 30720, Note_on_c, 5, 79, 100
3, 31966, Note_off_c, 5, 79, 0
3, 31966, Note_off_c, 5, 76, 0
3, 31966, Note_off_c, 5, 72, 0
3, 32064, Note_on_c, 5, 64, 100
3, 32158, Note_off_c, 5, 64, 0
3, 32208, Note_on_c, 5, 65, 100
3, 32254, Note_off_c, 5, 65, 0
3, 32256, Note_on_c, 5, 64, 100
3, 32256, Note_on_c, 5, 67, 100
3, 32302, Note_off_c, 5, 67, 0
3, 32302, Note_off_c, 5, 64, 0
3, 32352, Note_on_c, 5, 64, 100
3, 32352, Note_on_c, 5, 67, 100
3, 32352, Note_on_c, 5, 72, 100
3, 32782, Note_off_c, 5, 72, 0
3, 32782, Note_off_c, 5, 67, 0
3, 32782, Note_off_c, 5, 64, 0
3, 32832, Note_on_c, 5, 53, 100
3, 32832, Note_on_c, 5, 62, 100
3, 32926, Note_off_c, 5, 62, 0
3, 32926, Note_off_c, 5, 53, 0
3, 32976, Note_on_c, 5, 55, 100
3, 32976, Note_on_c, 5, 64, 100
3, 33022, Note_off_c, 5, 64, 0
3, 33022, Note_off_c, 5, 55, 0
3, 33024, Note_on_c, 5, 57, 100
3, 33024, Note_on_c, 5, 60, 100
3, 33024, Note_on_c, 5, 65, 100
3, 33550, Note_off_c, 5, 65, 0
3, 33550, Note_off_c, 5, 60, 0
3, 33550, Note_off_c, 5, 57, 0
3, 33600, Note_on_c, 5, 67, 100
3, 33600, Note_on_c, 5, 59, 100
3, 33694, Note_off_c, 5, 59, 0
3, 33694, Note_off_c, 5, 67, 0
3, 33744, Note_on_c, 5, 60, 100
3, 33744, Note_on_c, 5, 69, 100
3, 33790, Note_off_c, 5, 69, 0
3, 33790, Note_off_c, 5, 60, 0
3, 33792, Note_on_c, 5, 62, 100
3, 33792, Note_on_c, 5, 71, 100
3, 33838, Note_off_c, 5, 71, 0
3, 33838, Note_off_c, 5, 62, 0
3, 33888, Note_on_c, 5, 69, 100
3, 33888, Note_on_c, 5, 72, 100
3, 33888, Note_on_c, 5, 77, 100
3, 33888, Note_on_c, 5, 77, 100
3, 34318, Note_off_c, 5, 77, 0
3, 34318, Note_off_c, 5, 77, 0
3, 34318, Note_off_c, 5, 72, 0
3, 34318, Note_off_c, 5, 69, 0
3, 34368, Note_on_c, 5, 60, 100
3, 34368, Note_on_c, 5, 69, 100
3, 34462, Note_off_c, 5, 69, 0
3, 34462, Note_off_c, 5, 60, 0
3, 34512, Note_on_c, 5, 62, 100
3, 34512, Note_on_c, 5, 71, 100
3, 34558, Note_off_c, 5, 71, 0
3, 34558, Note_off_c, 5, 62, 0
3, 34560, Note_on_c, 5, 64, 100
3, 34560, Note_on_c, 5, 72, 100
3, 34750, Note_off_c, 5, 72, 0
3, 34750, Note_off_c, 5, 64, 0
3, 34752, Note_on_c, 5, 67, 100
3, 34752, Note_on_c, 5, 74, 100
3, 34942, Note_off_c, 5, 74, 0
3, 34942, Note_off_c, 5, 67, 0
3, 34944, Note_on_c, 5, 72, 100
3, 34944, Note_on_c, 5, 76, 100
3, 35038, Note_off_c, 5, 76, 0
3, 35038, Note_off_c, 5, 72, 0
3, 35136, Note_on_c, 5, 60, 100
3, 35136, Note_on_c, 5, 64, 100
3, 35230, Note_off_c, 5, 64, 0
3, 35230, Note_off_c, 5, 60, 0
3, 35280, Note_on_c, 5, 62, 100
3, 35280, Note_on_c, 5, 65, 100
3, 35326, Note_off_c, 5, 65, 0
3, 35326, Note_off_c, 5, 62, 0
3, 35328, Note_on_c, 5, 64, 100
3, 35328, Note_on_c, 5, 67, 100
3, 35374, Note_off_c, 5, 67, 0
3, 35374, Note_off_c, 5, 64, 0
3, 35424, Note_on_c, 5, 64, 100
3, 35424, Note_on_c, 5, 67, 100
3, 35424, Note_on_c, 5, 72, 100
3, 35854, Note_off_c, 5, 72, 0
3, 35854, Note_off_c, 5, 67, 0
3, 35854, Note_off_c, 5, 64, 0
3, 35904, Note_on_c, 5, 67, 100
3, 35904, Note_on_c, 5, 71, 100
3, 35904, Note_on_c, 5, 74, 100
3, 35998, Note_off_c, 5, 74, 0
3, 35998, Note_off_c, 5, 71, 0
3, 35998, Note_off_c, 5, 67, 0
3, 36048, Note_on_c, 5, 67, 100
3, 36048, Note_on_c, 5, 72, 100
3, 36048, Note_on_c, 5, 76, 100
3, 36094, Note_off_c, 5, 76, 0
3, 36094, Note_off_c, 5, 72, 0
3, 36094, Note_off_c, 5, 67, 0
3, 36096, Note_on_c, 5, 68, 100
3, 36096, Note_on_c, 5, 73, 100
3, 36096, Note_on_c, 5, 77, 100
3, 36622, Note_off_c, 5, 77, 0
3, 36622, Note_off_c, 5, 73, 0
3, 36622, Note_off_c, 5, 68, 0
3, 36672, Note_on_c, 5, 67, 100
3, 36766, Note_off_c, 5, 67, 0
3, 36816, Note_on_c, 5, 67, 100
3, 36862, Note_off_c, 5, 67, 0
3, 36864, Note_on_c, 5, 67, 100
3, 36864, Note_on_c, 5, 72, 100
3, 36864, Note_on_c, 5, 65, 100
3, 36864, Note_on_c, 5, 76, 100
3, 37054, Note_off_c, 5, 76, 0
3, 37054, Note_off_c, 5, 65, 0
3, 37054, Note_off_c, 5, 72, 0
3, 37054, Note_off_c, 5, 67, 0
3, 37056, Note_on_c, 5, 74, 100
3, 37150, Note_off_c, 5, 74, 0
3, 37200, Note_on_c, 5, 67, 100
3, 37246, Note_off_c, 5, 67, 0
3, 37248, Note_on_c, 5, 67, 100
3, 37248, Note_on_c, 5, 72, 100
3, 37248, Note_on_c, 5, 65, 100
3, 37248, Note_on_c, 5, 76, 100
3, 37438, Note_off_c, 5, 76, 0
3, 37438, Note_off_c, 5, 65, 0
3, 37438, Note_off_c, 5, 72, 0
3, 37438, Note_off_c, 5, 67, 0
3, 37440, Note_on_c, 5, 74, 100
3, 37534, Note_off_c, 5, 74, 0
3, 37584, Note_on_c, 5, 67, 100
3, 37630, Note_off_c, 5, 67, 0
3, 37632, Note_on_c, 5, 67, 100
3, 37632, Note_on_c, 5, 72, 100
3, 37632, Note_on_c, 5, 65, 100
3, 37632, Note_on_c, 5, 76, 100
3, 37822, Note_off_c, 5, 76, 0
3, 37822, Note_off_c, 5, 65, 0
3, 37822, Note_off_c, 5, 72, 0
3, 37822, Note_off_c, 5, 67, 0
3, 37824, Note_on_c, 5, 74, 100
3, 37918, Note_off_c, 5, 74, 0
3, 37968, Note_on_c, 5, 67, 100
3, 38014, Note_off_c, 5, 67, 0
3, 38016, Note_on_c, 5, 77, 100
3, 38016, Note_on_c, 5, 67, 100
3, 38016, Note_on_c, 5, 65, 100
3, 38016, Note_on_c, 5, 72, 100
3, 38206, Note_off_c, 5, 72, 0
3, 38206, Note_off_c, 5, 65, 0
3, 38206, Note_off_c, 5, 67, 0
3, 38206, Note_off_c, 5, 77, 0
3, 38208, Note_on_c, 5, 64, 100
3, 38208, Note_on_c, 5, 67, 100
3, 38208, Note_on_c, 5, 71, 100
3, 38208, Note_on_c, 5, 76, 100
3, 38302, Note_off_c, 5, 76, 0
3, 38302, Note_off_c, 5, 71, 0
3, 38302, Note_off_c, 5, 67, 0
3, 38302, Note_off_c, 5, 64, 0
3, 38352, Note_on_c, 5, 62, 100
3, 38352, Note_on_c, 5, 67, 100
3, 38352, Note_on_c, 5, 71, 100
3, 38352, Note_on_c, 5, 74, 100
3, 38398, Note_off_c, 5, 74, 0
3, 38398, Note_off_c, 5, 71, 0
3, 38398, Note_off_c, 5, 67, 0
3, 38398, Note_off_c, 5, 62, 0
3, 38400, Note_on_c, 5, 77, 100
3, 38400, Note_on_c, 5, 67, 100
3, 38400, Note_on_c, 5, 60, 100
3, 38400, Note_on_c, 5, 72, 100
3, 38590, Note_off_c, 5, 72, 0
3, 38590, Note_off_c, 5, 77, 0
3, 38592, Note_on_c, 5, 71, 100
3, 38592, Note_on_c, 5, 76, 100
3, 38686, Note_off_c, 5, 76, 0
3, 38686, Note_off_c, 5, 71, 0
3, 38736, Note_on_c, 5, 71, 100
3, 38736, Note_on_c, 5, 74, 100
3, 38782, Note_off_c, 5, 74, 0
3, 38782, Note_off_c, 5, 71, 0
3, 38784, Note_on_c, 5, 72, 100
3, 39622, Note_off_c, 5, 67, 0
3, 39622, Note_off_c, 5, 60, 0
3, 39622, Note_off_c, 5, 72, 0
3, 39744, Note_on_c, 5, 65, 100
3, 39838, Note_off_c, 5, 65, 0
3, 39888, Note_on_c, 5, 66, 100
3, 39934, Note_off_c, 5, 66, 0
3, 39936, Note_on_c, 5, 68, 100
3, 39982, Note_off_c, 5, 68, 0
3, 40032, Note_on_c, 5, 73, 100
3, 40462, Note_off_c, 5, 73, 0
3, 40512, Note_on_c, 5, 63, 100
3, 40606, Note_off_c, 5, 63, 0
3, 40656, Note_on_c, 5, 65, 100
3, 40702, Note_off_c, 5, 65, 0
3, 40704, Note_on_c, 5, 66, 100
3, 41230, Note_off_c, 5, 66, 0
3, 41280, Note_on_c, 5, 68, 100
3, 41374, Note_off_c, 5, 68, 0
3, 41424, Note_on_c, 5, 70, 100
3, 41470, Note_off_c, 5, 70, 0
3, 41472, Note_on_c, 5, 72, 100
3, 41518, Note_off_c, 5, 72, 0
3, 41568, Note_on_c, 5, 78, 100
3, 41998, Note_off_c, 5, 78, 0
3, 42048, Note_on_c, 5, 70, 100
3, 42142, Note_off_c, 5, 70, 0
3, 42192, Note_on_c, 5, 72, 100
3, 42238, Note_off_c, 5, 72, 0
3, 42240, Note_on_c, 5, 73, 100
3, 42430, Note_off_c, 5, 73, 0
3, 42432, Note_on_c, 5, 75, 100
3, 42622, Note_off_c, 5, 75, 0
3, 42624, Note_on_c, 5, 77, 100
3, 42718, Note_off_c, 5, 77, 0
3, 42816, Note_on_c, 5, 65, 100
3, 42910, Note_off_c, 5, 65, 0
3, 42960, Note_on_c, 5, 66, 100
3, 43006, Note_off_c, 5, 66, 0
3, 43008, Note_on_c, 5, 68, 100
3, 43054, Note_off_c, 5, 68, 0
3, 43104, Note_on_c, 5, 65, 100
3, 43104, Note_on_c, 5, 68, 100
3, 43104, Note_on_c, 5, 73, 100
3, 43534, Note_off_c, 5, 73, 0
3, 43534, Note_off_c, 5, 68, 0
3, 43534, Note_off_c, 5, 65, 0
3, 43584, Note_on_c, 5, 75, 100
3, 43678, Note_off_c, 5, 75, 0
3, 43728, Note_on_c, 5, 77, 100
3, 43774, Note_off_c, 5, 77, 0
3, 43776, Note_on_c, 5, 69, 100
3, 43776, Note_on_c, 5, 74, 100
3, 43776, Note_on_c, 5, 78, 100
3, 44254, Note_off_c, 5, 78, 0
3, 44254, Note_off_c, 5, 74, 0
3, 44254, Note_off_c, 5, 69, 0
3, 44352, Note_on_c, 5, 68, 100
3, 44446, Note_off_c, 5, 68, 0
3, 44496, Note_on_c, 5, 68, 100
3, 44542, Note_off_c, 5, 68, 0
3, 44544, Note_on_c, 5, 68, 100
3, 44544, Note_on_c, 5, 73, 100
3, 44544, Note_on_c, 5, 66, 100
3, 44544, Note_on_c, 5, 77, 100
3, 44734, Note_off_c, 5, 77, 0
3, 44734, Note_off_c, 5, 66, 0
3, 44734, Note_off_c, 5, 73, 0
3, 44734, Note_off_c, 5, 68, 0
3, 44736, Note_on_c, 5, 75, 100
3, 44830, Note_off_c, 5, 75, 0
3, 44880, Note_on_c, 5, 68, 100
3, 44926, Note_off_c, 5, 68, 0
3, 44928, Note_on_c, 5, 68, 100
3, 44928, Note_on_c, 5, 73, 100
3, 44928, Note_on_c, 5, 66, 100
3, 44928, Note_on_c, 5, 77, 100
3, 45118, Note_off_c, 5, 77, 0
3, 45118, Note_off_c, 5, 66, 0
3, 45118, Note_off_c, 5, 73, 0
3, 45118, Note_off_c, 5, 68, 0
3, 45120, Note_on_c, 5, 75, 100
3, 45214, Note_off_c, 5, 75, 0
3, 45264, Note_on_c, 5, 68, 100
3, 45310, Note_off_c, 5, 68, 0
3, 45312, Note_on_c, 5, 68, 100
3, 45312, Note_on_c, 5, 73, 100
3, 45312, Note_on_c, 5, 66, 100
3, 45312, Note_on_c, 5, 77, 100
3, 45502, Note_off_c, 5, 77, 0
3, 45502, Note_off_c, 5, 66, 0
3, 45502, Note_off_c, 5, 73, 0
3, 45502, Note_off_c, 5, 68, 0
3, 45504, Note_on_c, 5, 75, 100
3, 45598, Note_off_c, 5, 75, 0
3, 45648, Note_on_c, 5, 68, 100
3, 45694, Note_off_c, 5, 68, 0
3, 45696, Note_on_c, 5, 78, 100
3, 45696, Note_on_c, 5, 68, 100
3, 45696, Note_on_c, 5, 66, 100
3, 45696, Note_on_c, 5, 73, 100
3, 45886, Note_off_c, 5, 73, 0
3, 45886, Note_off_c, 5, 66, 0
3, 45886, Note_off_c, 5, 68, 0
3, 45886, Note_off_c, 5, 78, 0
3, 45888, Note_on_c, 5, 65, 100
3, 45888, Note_on_c, 5, 68, 100
3, 45888, Note_on_c, 5, 72, 100
3, 45888, Note_on_c, 5, 77, 100
3, 45982, Note_off_c, 5, 77, 0
3, 45982, Note_off_c, 5, 72, 0
3, 45982, Note_off_c, 5, 68, 0
3, 45982, Note_off_c, 5, 65, 0
3, 46032, Note_on_c, 5, 63, 100
3, 46032, Note_on_c, 5, 68, 100
3, 46032, Note_on_c, 5, 72, 100
3, 46032, Note_on_c, 5, 75, 100
3, 46078, Note_off_c, 5, 75, 0
3, 46078, Note_off_c, 5, 72, 0
3, 46078, Note_off_c, 5, 68, 0
3, 46078, Note_off_c, 5, 63, 0
3, 46080, Note_on_c, 5, 78, 100
3, 46080, Note_on_c, 5, 68, 100
3, 46080, Note_on_c, 5, 61, 100
3, 46080, Note_on_c, 5, 73, 100
3, 46270, Note_off_c, 5, 73, 0
3, 46270, Note_off_c, 5, 78, 0
3, 46272, Note_on_c, 5, 72, 100
3, 46272, Note_on_c, 5, 77, 100
3, 46366, Note_off_c, 5, 77, 0
3, 46366, Note_off_c, 5, 72, 0
3, 46416, Note_on_c, 5, 72, 100
3, 46416, Note_on_c, 5, 75, 100
3, 46462, Note_off_c, 5, 75, 0
3, 46462, Note_off_c, 5, 72, 0
3, 46464, Note_on_c, 5, 73, 100
3, 47302, Note_off_c, 5, 68, 0
3, 47302, Note_off_c, 5, 61, 0
3, 47302, Note_off_c, 5, 73, 0
3, 47424, Note_on_c, 5, 61, 100
3, 47470, Note_off_c, 5, 61, 0
3, 47472, Note_on_c, 5, 61, 100
3, 47518, Note_off_c, 5, 61, 0
3, 47520, Note_on_c, 5, 61, 100
3, 47566, Note_off_c, 5, 61, 0
3, 47616, Note_on_c, 5, 66, 100
3, 48094, Note_off_c, 5, 66, 0
3, 48192, Note_on_c, 5, 66, 100
3, 48238, Note_off_c, 5, 66, 0
3, 48288, Note_on_c, 5, 66, 100
3, 48334, Note_off_c, 5, 66, 0
3, 48336, Note_on_c, 5, 67, 100
3, 48382, Note_off_c, 5, 67, 0
3, 48384, Note_on_c, 5, 68, 100
3, 48862, Note_off_c, 5, 68, 0
3, 48960, Note_on_c, 5, 61, 100
3, 49006, Note_off_c, 5, 61, 0
3, 49008, Note_on_c, 5, 61, 100
3, 49054, Note_off_c, 5, 61, 0
3, 49056, Note_on_c, 5, 61, 100
3, 49102, Note_off_c, 5, 61, 0
3, 49152, Note_on_c, 5, 66, 100
3, 49726, Note_off_c, 5, 66, 0
3, 49824, Note_on_c, 5, 66, 100
3, 49870, Note_off_c, 5, 66, 0
3, 49872, Note_on_c, 5, 67, 100
3, 49918, Note_off_c, 5, 67, 0
3, 49920, Note_on_c, 5, 68, 100
3, 50398, Note_off_c, 5, 68, 0
3, 50496, Note_on_c, 5, 73, 100
3, 50542, Note_off_c, 5, 73, 0
3, 50544, Note_on_c, 5, 73, 100
3, 50590, Note_off_c, 5, 73, 0
3, 50592, Note_on_c, 5, 73, 100
3, 50638, Note_off_c, 5, 73, 0
3, 50688, Note_on_c, 5, 69, 100
3, 50688, Note_on_c, 5, 73, 100
3, 50688, Note_on_c, 5, 76, 100
3, 50688, Note_on_c, 5, 68, 100
3, 51166, Note_off_c, 5, 68, 0
3, 51166, Note_off_c, 5, 76, 0
3, 51166, Note_off_c, 5, 73, 0
3, 51166, Note_off_c, 5, 69, 0
3, 51264, Note_on_c, 5, 73, 100
3, 51358, Note_off_c, 5, 73, 0
3, 51408, Note_on_c, 5, 73, 100
3, 51454, Note_off_c, 5, 73, 0
3, 51456, Note_on_c, 5, 71, 100
3, 51456, Note_on_c, 5, 75, 100
3, 51456, Note_on_c, 5, 78, 100
3, 51456, Note_on_c, 5, 70, 100
3, 51790, Note_off_c, 5, 70, 0
3, 51790, Note_off_c, 5, 78, 0
3, 51790, Note_off_c, 5, 75, 0
3, 51790, Note_off_c, 5, 71, 0
3, 51840, Note_on_c, 5, 70, 100
3, 51840, Note_on_c, 5, 66, 100
3, 51840, Note_on_c, 5, 71, 100
3, 51840, Note_on_c, 5, 75, 100
3, 52174, Note_off_c, 5, 75, 0
3, 52174, Note_off_c, 5, 71, 0
3, 52174, Note_off_c, 5, 66, 0
3, 52174, Note_off_c, 5, 70, 0
3, 52224, Note_on_c, 5, 73, 100
3, 52224, Note_on_c, 5, 77, 100
3, 52224, Note_on_c, 5, 80, 100
3, 52224, Note_on_c, 5, 72, 100
3, 52990, Note_off_c, 5, 72, 0
3, 52990, Note_off_c, 5, 80, 0
3, 52990, Note_off_c, 5, 77, 0
3, 52990, Note_off_c, 5, 73, 0
3, 53184, Note_on_c, 5, 61, 100
3, 53230, Note_off_c, 5, 61, 0
3, 53232, Note_on_c, 5, 61, 100
3, 53278, Note_off_c, 5, 61, 0
3, 53280, Note_on_c, 5, 61, 100
3, 53326, Note_off_c, 5, 61, 0
3, 53328, Note_on_c, 5, 61, 100
3, 53374, Note_off_c, 5, 61, 0
3, 53376, Note_on_c, 5, 61, 100
3, 53470, Note_off_c, 5, 61, 0
3, 53470, End_track
4, 0, Start_track
4, 0, Title_t, "high strings"
4, 0, Channel_prefix, 6
4, 0, Control_c, 6, 7, 100
4, 0, Program_c, 6, 48
4, 0, Control_c, 6, 0, 0
4, 0, Control_c, 6, 91, 127
4, 0, Control_c, 6, 93, 67
4, 9216, Note_on_c, 6, 67, 100
4, 9216, Note_on_c, 6, 64, 100
4, 9216, Note_on_c, 6, 60, 100
4, 9310, Note_off_c, 6, 60, 0
4, 9310, Note_off_c, 6, 64, 0
4, 9310, Note_off_c, 6, 67, 0
4, 9504, Note_on_c, 6, 67, 100
4, 9504, Note_on_c, 6, 64, 100
4, 9504, Note_on_c, 6, 60, 100
4, 9526, Note_off_c, 6, 60, 0
4, 9526, Note_off_c, 6, 64, 0
4, 9526, Note_off_c, 6, 67, 0
4, 9552, Note_on_c, 6, 64, 100
4, 9552, Note_on_c, 6, 67, 100
4, 9552, Note_on_c, 6, 60, 100
4, 9574, Note_off_c, 6, 60, 0
4, 9574, Note_off_c, 6, 67, 0
4, 9574, Note_off_c, 6, 64, 0
4, 9600, Note_on_c, 6, 64, 100
4, 9600, Note_on_c, 6, 67, 100
4, 9600, Note_on_c, 6, 60, 100
4, 9694, Note_off_c, 6, 60, 0
4, 9694, Note_off_c, 6, 67, 0
4, 9694, Note_off_c, 6, 64, 0
4, 9984, Note_on_c, 6, 67, 100
4, 9984, Note_on_c, 6, 64, 100
4, 9984, Note_on_c, 6, 60, 100
4, 10078, Note_off_c, 6, 60, 0
4, 10078, Note_off_c, 6, 64, 0
4, 10078, Note_off_c, 6, 67, 0
4, 10272, Note_on_c, 6, 67, 100
4, 10272, Note_on_c, 6, 64, 100
4, 10272, Note_on_c, 6, 60, 100
4, 10294, Note_off_c, 6, 60, 0
4, 10294, Note_off_c, 6, 64, 0
4, 10294, Note_off_c, 6, 67, 0
4, 10320, Note_on_c, 6, 64, 100
4, 10320, Note_on_c, 6, 67, 100
4, 10320, Note_on_c, 6, 60, 100
4, 10342, Note_off_c, 6, 60, 0
4, 10342, Note_off_c, 6, 67, 0
4, 10342, Note_off_c, 6, 64, 0
4, 10368, Note_on_c, 6, 67, 100
4, 10368, Note_on_c, 6, 64, 100
4, 10368, Note_on_c, 6, 60, 100
4, 10390, Note_off_c, 6, 60, 0
4, 10390, Note_off_c, 6, 64, 0
4, 10390, Note_off_c, 6, 67, 0
4, 10416, Note_on_c, 6, 64, 100
4, 10416, Note_on_c, 6, 67, 100
4, 10416, Note_on_c, 6, 60, 100
4, 10462, Note_off_c, 6, 60, 0
4, 10462, Note_off_c, 6, 67, 0
4, 10462, Note_off_c, 6, 64, 0
4, 10752, Note_on_c, 6, 67, 100
4, 10752, Note_on_c, 6, 64, 100
4, 10752, Note_on_c, 6, 60, 100
4, 10846, Note_off_c, 6, 60, 0
4, 10846, Note_off_c, 6, 64, 0
4, 10846, Note_off_c, 6, 67, 0
4, 11040, Note_on_c, 6, 67, 100
4, 11040, Note_on_c, 6, 64, 100
4, 11040, Note_on_c, 6, 60, 100
4, 11062, Note_off_c, 6, 60, 0
4, 11062, Note_off_c, 6, 64, 0
4, 11062, Note_off_c, 6, 67, 0
4, 11088, Note_on_c, 6, 64, 100
4, 11088, Note_on_c, 6, 67, 100
4, 11088, Note_on_c, 6, 60, 100
4, 11110, Note_off_c, 6, 60, 0
4, 11110, Note_off_c, 6, 67, 0
4, 11110, Note_off_c, 6, 64, 0
4, 11136, Note_on_c, 6, 64, 100
4, 11136, Note_on_c, 6, 67, 100
4, 11136, Note_on_c, 6, 60, 100
4, 11230, Note_off_c, 6, 60, 0
4, 11230, Note_off_c, 6, 67, 0
4, 11230, Note_off_c, 6, 64, 0
4, 11520, Note_on_c, 6, 67, 100
4, 11520, Note_on_c, 6, 64, 100
4, 11520, Note_on_c, 6, 60, 100
4, 11614, Note_off_c, 6, 60, 0
4, 11614, Note_off_c, 6, 64, 0
4, 11614, Note_off_c, 6, 67, 0
4, 11808, Note_on_c, 6, 67, 100
4, 11808, Note_on_c, 6, 64, 100
4, 11808, Note_on_c, 6, 60, 100
4, 11830, Note_off_c, 6, 60, 0
4, 11830, Note_off_c, 6, 64, 0
4, 11830, Note_off_c, 6, 67, 0
4, 11856, Note_on_c, 6, 64, 100
4, 11856, Note_on_c, 6, 67, 100
4, 11856, Note_on_c, 6, 60, 100
4, 11878, Note_off_c, 6, 60, 0
4, 11878, Note_off_c, 6, 67, 0
4, 11878, Note_off_c, 6, 64, 0
4, 11904, Note_on_c, 6, 67, 100
4, 11904, Note_on_c, 6, 64, 100
4, 11904, Note_on_c, 6, 60, 100
4, 11926, Note_off_c, 6, 60, 0
4, 11926, Note_off_c, 6, 64, 0
4, 11926, Note_off_c, 6, 67, 0
4, 11952, Note_on_c, 6, 67, 100
4, 11952, Note_on_c, 6, 60, 100
4, 11952, Note_on_c, 6, 64, 100
4, 11998, Note_off_c, 6, 64, 0
4, 11998, Note_off_c, 6, 60, 0
4, 11998, Note_off_c, 6, 67, 0
4, 12288, Note_on_c, 6, 67, 100
4, 12288, Note_on_c, 6, 64, 100
4, 12288, Note_on_c, 6, 60, 100
4, 12382, Note_off_c, 6, 60, 0
4, 12382, Note_off_c, 6, 64, 0
4, 12382, Note_off_c, 6, 67, 0
4, 12576, Note_on_c, 6, 67, 100
4, 12576, Note_on_c, 6, 64, 100
4, 12576, Note_on_c, 6, 60, 100
4, 12598, Note_off_c, 6, 60, 0
4, 12598, Note_off_c, 6, 64, 0
4, 12598, Note_off_c, 6, 67, 0
4, 12624, Note_on_c, 6, 67, 100
4, 12624, Note_on_c, 6, 64, 100
4, 12624, Note_on_c, 6, 60, 100
4, 12646, Note_off_c, 6, 60, 0
4, 12646, Note_off_c, 6, 64, 0
4, 12646, Note_off_c, 6, 67, 0
4, 12672, Note_on_c, 6, 64, 100
4, 12672, Note_on_c, 6, 67, 100
4, 12672, Note_on_c, 6, 60, 100
4, 12766, Note_off_c, 6, 60, 0
4, 12766, Note_off_c, 6, 67, 0
4, 12766, Note_off_c, 6, 64, 0
4, 13056, Note_on_c, 6, 65, 100
4, 13056, Note_on_c, 6, 61, 100
4, 13056, Note_on_c, 6, 68, 100
4, 13150, Note_off_c, 6, 68, 0
4, 13150, Note_off_c, 6, 61, 0
4, 13150, Note_off_c, 6, 65, 0
4, 13344, Note_on_c, 6, 65, 100
4, 13344, Note_on_c, 6, 61, 100
4, 13344, Note_on_c, 6, 68, 100
4, 13366, Note_off_c, 6, 68, 0
4, 13366, Note_off_c, 6, 61, 0
4, 13366, Note_off_c, 6, 65, 0
4, 13392, Note_on_c, 6, 65, 100
4, 13392, Note_on_c, 6, 61, 100
4, 13392, Note_on_c, 6, 68, 100
4, 13414, Note_off_c, 6, 68, 0
4, 13414, Note_off_c, 6, 61, 0
4, 13414, Note_off_c, 6, 65, 0
4, 13440, Note_on_c, 6, 61, 100
4, 13440, Note_on_c, 6, 65, 100
4, 13440, Note_on_c, 6, 68, 100
4, 13462, Note_off_c, 6, 68, 0
4, 13462, Note_off_c, 6, 65, 0
4, 13462, Note_off_c, 6, 61, 0
4, 13488, Note_on_c, 6, 61, 100
4, 13488, Note_on_c, 6, 65, 100
4, 13488, Note_on_c, 6, 68, 100
4, 13534, Note_off_c, 6, 68, 0
4, 13534, Note_off_c, 6, 65, 0
4, 13534, Note_off_c, 6, 61, 0
4, 13824, Note_on_c, 6, 72, 100
4, 13824, Note_on_c, 6, 65, 100
4, 13824, Note_on_c, 6, 76, 100
4, 14014, Note_off_c, 6, 76, 0
4, 14014, Note_off_c, 6, 65, 0
4, 14014, Note_off_c, 6, 72, 0
4, 14016, Note_on_c, 6, 74, 100
4, 14110, Note_off_c, 6, 74, 0
4, 14160, Note_on_c, 6, 67, 100
4, 14206, Note_off_c, 6, 67, 0
4, 14208, Note_on_c, 6, 72, 100
4, 14208, Note_on_c, 6, 65, 100
4, 14208, Note_on_c, 6, 76, 100
4, 14398, Note_off_c, 6, 76, 0
4, 14398, Note_off_c, 6, 65, 0
4, 14398, Note_off_c, 6, 72, 0
4, 14400, Note_on_c, 6, 74, 100
4, 14494, Note_off_c, 6, 74, 0
4, 14544, Note_on_c, 6, 67, 100
4, 14590, Note_off_c, 6, 67, 0
4, 14592, Note_on_c, 6, 72, 100
4, 14592, Note_on_c, 6, 65, 100
4, 14592, Note_on_c, 6, 76, 100
4, 14782, Note_off_c, 6, 76, 0
4, 14782, Note_off_c, 6, 65, 0
4, 14782, Note_off_c, 6, 72, 0
4, 14784, Note_on_c, 6, 74, 100
4, 14878, Note_off_c, 6, 74, 0
4, 14928, Note_on_c, 6, 67, 100
4, 14974, Note_off_c, 6, 67, 0
4, 14976, Note_on_c, 6, 72, 100
4, 14976, Note_on_c, 6, 76, 100
4, 14976, Note_on_c, 6, 65, 100
4, 15070, Note_off_c, 6, 65, 0
4, 15070, Note_off_c, 6, 76, 0
4, 15070, Note_off_c, 6, 72, 0
4, 15072, Note_on_c, 6, 74, 100
4, 15118, Note_off_c, 6, 74, 0
4, 15168, Note_on_c, 6, 64, 100
4, 15168, Note_on_c, 6, 60, 100
4, 15262, Note_off_c, 6, 60, 0
4, 15262, Note_off_c, 6, 64, 0
4, 15312, Note_on_c, 6, 64, 100
4, 15312, Note_on_c, 6, 67, 100
4, 15358, Note_off_c, 6, 67, 0
4, 15358, Note_off_c, 6, 64, 0
4, 15360, Note_on_c, 6, 58, 100
4, 15360, Note_on_c, 6, 62, 100
4, 15360, Note_on_c, 6, 65, 100
4, 15886, Note_off_c, 6, 65, 0
4, 15886, Note_off_c, 6, 62, 0
4, 15886, Note_off_c, 6, 58, 0
4, 15936, Note_on_c, 6, 58, 100
4, 15936, Note_on_c, 6, 62, 100
4, 16030, Note_off_c, 6, 62, 0
4, 16030, Note_off_c, 6, 58, 0
4, 16080, Note_on_c, 6, 62, 100
4, 16080, Note_on_c, 6, 65, 100
4, 16126, Note_off_c, 6, 65, 0
4, 16126, Note_off_c, 6, 62, 0
4, 16128, Note_on_c, 6, 60, 100
4, 16128, Note_on_c, 6, 64, 100
4, 16158, Note_off_c, 6, 64, 0
4, 16158, Note_off_c, 6, 60, 0
4, 16192, Note_on_c, 6, 64, 100
4, 16192, Note_on_c, 6, 67, 100
4, 16222, Note_off_c, 6, 67, 0
4, 16222, Note_off_c, 6, 64, 0
4, 16256, Note_on_c, 6, 72, 100
4, 16256, Note_on_c, 6, 76, 100
4, 16638, Note_off_c, 6, 76, 0
4, 16638, Note_off_c, 6, 72, 0
4, 16704, Note_on_c, 6, 60, 100
4, 16704, Note_on_c, 6, 64, 100
4, 16798, Note_off_c, 6, 64, 0
4, 16798, Note_off_c, 6, 60, 0
4, 16848, Note_on_c, 6, 64, 100
4, 16848, Note_on_c, 6, 67, 100
4, 16894, Note_off_c, 6, 67, 0
4, 16894, Note_off_c, 6, 64, 0
4, 16896, Note_on_c, 6, 58, 100
4, 16896, Note_on_c, 6, 62, 100
4, 16896, Note_on_c, 6, 65, 100
4, 17422, Note_off_c, 6, 65, 0
4, 17422, Note_off_c, 6, 62, 0
4, 17422, Note_off_c, 6, 58, 0
4, 17472, Note_on_c, 6, 58, 100
4, 17472, Note_on_c, 6, 62, 100
4, 17566, Note_off_c, 6, 62, 0
4, 17566, Note_off_c, 6, 58, 0
4, 17616, Note_on_c, 6, 62, 100
4, 17616, Note_on_c, 6, 65, 100
4, 17662, Note_off_c, 6, 65, 0
4, 17662, Note_off_c, 6, 62, 0
4, 17664, Note_on_c, 6, 60, 100
4, 17664, Note_on_c, 6, 64, 100
4, 17694, Note_off_c, 6, 64, 0
4, 17694, Note_off_c, 6, 60, 0
4, 17728, Note_on_c, 6, 64, 100
4, 17728, Note_on_c, 6, 67, 100
4, 17758, Note_off_c, 6, 67, 0
4, 17758, Note_off_c, 6, 64, 0
4, 17792, Note_on_c, 6, 72, 100
4, 17792, Note_on_c, 6, 76, 100
4, 18174, Note_off_c, 6, 76, 0
4, 18174, Note_off_c, 6, 72, 0
4, 18240, Note_on_c, 6, 71, 100
4, 18240, Note_on_c, 6, 74, 100
4, 18334, Note_off_c, 6, 74, 0
4, 18334, Note_off_c, 6, 71, 0
4, 18384, Note_on_c, 6, 72, 100
4, 18384, Note_on_c, 6, 76, 100
4, 18430, Note_off_c, 6, 76, 0
4, 18430, Note_off_c, 6, 72, 0
4, 18432, Note_on_c, 6, 70, 100
4, 18432, Note_on_c, 6, 74, 100
4, 18432, Note_on_c, 6, 77, 100
4, 18958, Note_off_c, 6, 77, 0
4, 18958, Note_off_c, 6, 74, 0
4, 18958, Note_off_c, 6, 70, 0
4, 19008, Note_on_c, 6, 70, 100
4, 19008, Note_on_c, 6, 74, 100
4, 19102, Note_off_c, 6, 74, 0
4, 19102, Note_off_c, 6, 70, 0
4, 19152, Note_on_c, 6, 74, 100
4, 19152, Note_on_c, 6, 77, 100
4, 19198, Note_off_c, 6, 77, 0
4, 19198, Note_off_c, 6, 74, 0
4, 19200, Note_on_c, 6, 68, 100
4, 19200, Note_on_c, 6, 72, 100
4, 19200, Note_on_c, 6, 75, 100
4, 19230, Note_off_c, 6, 75, 0
4, 19230, Note_off_c, 6, 72, 0
4, 19230, Note_off_c, 6, 68, 0
4, 19264, Note_on_c, 6, 68, 100
4, 19264, Note_on_c, 6, 70, 100
4, 19264, Note_on_c, 6, 74, 100
4, 19294, Note_off_c, 6, 74, 0
4, 19294, Note_off_c, 6, 70, 0
4, 19294, Note_off_c, 6, 68, 0
4, 19328, Note_on_c, 6, 68, 100
4, 19328, Note_on_c, 6, 72, 100
4, 19710, Note_off_c, 6, 72, 0
4, 19710, Note_off_c, 6, 68, 0
4, 19776, Note_on_c, 6, 68, 100
4, 19776, Note_on_c, 6, 72, 100
4, 19870, Note_off_c, 6, 72, 0
4, 19870, Note_off_c, 6, 68, 0
4, 19920, Note_on_c, 6, 72, 100
4, 19920, Note_on_c, 6, 75, 100
4, 19966, Note_off_c, 6, 75, 0
4, 19966, Note_off_c, 6, 72, 0
4, 19968, Note_on_c, 6, 71, 100
4, 19968, Note_on_c, 6, 67, 100
4, 19968, Note_on_c, 6, 74, 100
4, 20014, Note_off_c, 6, 74, 0
4, 20014, Note_off_c, 6, 67, 0
4, 20014, Note_off_c, 6, 71, 0
4, 20064, Note_on_c, 6, 67, 100
4, 20110, Note_off_c, 6, 67, 0
4, 20112, Note_on_c, 6, 66, 100
4, 20158, Note_off_c, 6, 66, 0
4, 20160, Note_on_c, 6, 67, 100
4, 20206, Note_off_c, 6, 67, 0
4, 20256, Note_on_c, 6, 74, 100
4, 20256, Note_on_c, 6, 71, 100
4, 20256, Note_on_c, 6, 67, 100
4, 20302, Note_off_c, 6, 67, 0
4, 20302, Note_off_c, 6, 71, 0
4, 20302, Note_off_c, 6, 74, 0
4, 20352, Note_on_c, 6, 67, 100
4, 20398, Note_off_c, 6, 67, 0
4, 20400, Note_on_c, 6, 66, 100
4, 20446, Note_off_c, 6, 66, 0
4, 20448, Note_on_c, 6, 67, 100
4, 20494, Note_off_c, 6, 67, 0
4, 20544, Note_on_c, 6, 71, 100
4, 20544, Note_on_c, 6, 67, 100
4, 20544, Note_on_c, 6, 74, 100
4, 20590, Note_off_c, 6, 74, 0
4, 20590, Note_off_c, 6, 67, 0
4, 20590, Note_off_c, 6, 71, 0
4, 20640, Note_on_c, 6, 72, 100
4, 20686, Note_off_c, 6, 72, 0
4, 20688, Note_on_c, 6, 71, 100
4, 20734, Note_off_c, 6, 71, 0
4, 20736, Note_on_c, 6, 65, 100
4, 20736, Note_on_c, 6, 69, 100
4, 20736, Note_on_c, 6, 72, 100
4, 21262, Note_off_c, 6, 72, 0
4, 21262, Note_off_c, 6, 69, 0
4, 21262, Note_off_c, 6, 65, 0
4, 21312, Note_on_c, 6, 60, 100
4, 21312, Note_on_c, 6, 64, 100
4, 21406, Note_off_c, 6, 64, 0
4, 21406, Note_off_c, 6, 60, 0
4, 21456, Note_on_c, 6, 64, 100
4, 21456, Note_on_c, 6, 67, 100
4, 21502, Note_off_c, 6, 67, 0
4, 21502, Note_off_c, 6, 64, 0
4, 21504, Note_on_c, 6, 58, 100
4, 21504, Note_on_c, 6, 62, 100
4, 21504, Note_on_c, 6, 65, 100
4, 22030, Note_off_c, 6, 65, 0
4, 22030, Note_off_c, 6, 62, 0
4, 22030, Note_off_c, 6, 58, 0
4, 22080, Note_on_c, 6, 58, 100
4, 22080, Note_on_c, 6, 62, 100
4, 22174, Note_off_c, 6, 62, 0
4, 22174, Note_off_c, 6, 58, 0
4, 22224, Note_on_c, 6, 62, 100
4, 22224, Note_on_c, 6, 65, 100
4, 22270, Note_off_c, 6, 65, 0
4, 22270, Note_off_c, 6, 62, 0
4, 22272, Note_on_c, 6, 60, 100
4, 22272, Note_on_c, 6, 64, 100
4, 22302, Note_off_c, 6, 64, 0
4, 22302, Note_off_c, 6, 60, 0
4, 22336, Note_on_c, 6, 64, 100
4, 22336, Note_on_c, 6, 67, 100
4, 22366, Note_off_c, 6, 67, 0
4, 22366, Note_off_c, 6, 64, 0
4, 22400, Note_on_c, 6, 72, 100
4, 22400, Note_on_c, 6, 76, 100
4, 22782, Note_off_c, 6, 76, 0
4, 22782, Note_off_c, 6, 72, 0
4, 22848, Note_on_c, 6, 60, 100
4, 22848, Note_on_c, 6, 64, 100
4, 22942, Note_off_c, 6, 64, 0
4, 22942, Note_off_c, 6, 60, 0
4, 22992, Note_on_c, 6, 64, 100
4, 22992, Note_on_c, 6, 67, 100
4, 23038, Note_off_c, 6, 67, 0
4, 23038, Note_off_c, 6, 64, 0
4, 23040, Note_on_c, 6, 58, 100
4, 23040, Note_on_c, 6, 62, 100
4, 23040, Note_on_c, 6, 65, 100
4, 23566, Note_off_c, 6, 65, 0
4, 23566, Note_off_c, 6, 62, 0
4, 23566, Note_off_c, 6, 58, 0
4, 23616, Note_on_c, 6, 58, 100
4, 23616, Note_on_c, 6, 62, 100
4, 23710, Note_off_c, 6, 62, 0
4, 23710, Note_off_c, 6, 58, 0
4, 23760, Note_on_c, 6, 62, 100
4, 23760, Note_on_c, 6, 65, 100
4, 23806, Note_off_c, 6, 65, 0
4, 23806, Note_off_c, 6, 62, 0
4, 23808, Note_on_c, 6, 56, 100
4, 23808, Note_on_c, 6, 60, 100
4, 23808, Note_on_c, 6, 63, 100
4, 23838, Note_off_c, 6, 63, 0
4, 23838, Note_off_c, 6, 60, 0
4, 23838, Note_off_c, 6, 56, 0
4, 23872, Note_on_c, 6, 56, 100
4, 23872, Note_on_c, 6, 58, 100
4, 23872, Note_on_c, 6, 62, 100
4, 23902, Note_off_c, 6, 62, 0
4, 23902, Note_off_c, 6, 58, 0
4, 23902, Note_off_c, 6, 56, 0
4, 23936, Note_on_c, 6, 56, 100
4, 23936, Note_on_c, 6, 60, 100
4, 24318, Note_off_c, 6, 60, 0
4, 24318, Note_off_c, 6, 56, 0
4, 24384, Note_on_c, 6, 60, 100
4, 24384, Note_on_c, 6, 64, 100
4, 24478, Note_off_c, 6, 64, 0
4, 24478, Note_off_c, 6, 60, 0
4, 24528, Note_on_c, 6, 64, 100
4, 24528, Note_on_c, 6, 67, 100
4, 24574, Note_off_c, 6, 67, 0
4, 24574, Note_off_c, 6, 64, 0
4, 24576, Note_on_c, 6, 58, 100
4, 24576, Note_on_c, 6, 62, 100
4, 24576, Note_on_c, 6, 65, 100
4, 25102, Note_off_c, 6, 65, 0
4, 25102, Note_off_c, 6, 62, 0
4, 25102, Note_off_c, 6, 58, 0
4, 25152, Note_on_c, 6, 58, 100
4, 25152, Note_on_c, 6, 62, 100
4, 25246, Note_off_c, 6, 62, 0
4, 25246, Note_off_c, 6, 58, 0
4, 25296, Note_on_c, 6, 62, 100
4, 25296, Note_on_c, 6, 65, 100
4, 25342, Note_off_c, 6, 65, 0
4, 25342, Note_off_c, 6, 62, 0
4, 25344, Note_on_c, 6, 60, 100
4, 25344, Note_on_c, 6, 64, 100
4, 25374, Note_off_c, 6, 64, 0
4, 25374, Note_off_c, 6, 60, 0
4, 25408, Note_on_c, 6, 64, 100
4, 25408, Note_on_c, 6, 67, 100
4, 25438, Note_off_c, 6, 67, 0
4, 25438, Note_off_c, 6, 64, 0
4, 25472, Note_on_c, 6, 76, 100
4, 25472, Note_on_c, 6, 72, 100
4, 25854, Note_off_c, 6, 72, 0
4, 25854, Note_off_c, 6, 76, 0
4, 25920, Note_on_c, 6, 71, 100
4, 25920, Note_on_c, 6, 74, 100
4, 26014, Note_off_c, 6, 74, 0
4, 26014, Note_off_c, 6, 71, 0
4, 26064, Note_on_c, 6, 72, 100
4, 26064, Note_on_c, 6, 76, 100
4, 26110, Note_off_c, 6, 76, 0
4, 26110, Note_off_c, 6, 72, 0
4, 26112, Note_on_c, 6, 69, 100
4, 26112, Note_on_c, 6, 74, 100
4, 26112, Note_on_c, 6, 77, 100
4, 26158, Note_off_c, 6, 77, 0
4, 26158, Note_off_c, 6, 74, 0
4, 26158, Note_off_c, 6, 69, 0
4, 26208, Note_on_c, 6, 70, 100
4, 26254, Note_off_c, 6, 70, 0
4, 26256, Note_on_c, 6, 69, 100
4, 26302, Note_off_c, 6, 69, 0
4, 26304, Note_on_c, 6, 70, 100
4, 26350, Note_off_c, 6, 70, 0
4, 26400, Note_on_c, 6, 69, 100
4, 26400, Note_on_c, 6, 74, 100
4, 26400, Note_on_c, 6, 77, 100
4, 26446, Note_off_c, 6, 77, 0
4, 26446, Note_off_c, 6, 74, 0
4, 26446, Note_off_c, 6, 69, 0
4, 26496, Note_on_c, 6, 70, 100
4, 26542, Note_off_c, 6, 70, 0
4, 26544, Note_on_c, 6, 69, 100
4, 26590, Note_off_c, 6, 69, 0
4, 26592, Note_on_c, 6, 70, 100
4, 26638, Note_off_c, 6, 70, 0
4, 26688, Note_on_c, 6, 69, 100
4, 26688, Note_on_c, 6, 74, 100
4, 26688, Note_on_c, 6, 77, 100
4, 26734, Note_off_c, 6, 77, 0
4, 26734, Note_off_c, 6, 74, 0
4, 26734, Note_off_c, 6, 69, 0
4, 26784, Note_on_c, 6, 75, 100
4, 26830, Note_off_c, 6, 75, 0
4, 26832, Note_on_c, 6, 74, 100
4, 26878, Note_off_c, 6, 74, 0
4, 26880, Note_on_c, 6, 67, 100
4, 26880, Note_on_c, 6, 72, 100
4, 26880, Note_on_c, 6, 75, 100
4, 27486, Note_off_c, 6, 75, 0
4, 27486, Note_off_c, 6, 72, 0
4, 27486, Note_off_c, 6, 67, 0
4, 27552, Note_on_c, 6, 72, 100
4, 27598, Note_off_c, 6, 72, 0
4, 27600, Note_on_c, 6, 72, 100
4, 27646, Note_off_c, 6, 72, 0
4, 27648, Note_on_c, 6, 69, 100
4, 27648, Note_on_c, 6, 74, 100
4, 27648, Note_on_c, 6, 77, 100
4, 27694, Note_off_c, 6, 77, 0
4, 27694, Note_off_c, 6, 74, 0
4, 27694, Note_off_c, 6, 69, 0
4, 27744, Note_on_c, 6, 70, 100
4, 27790, Note_off_c, 6, 70, 0
4, 27792, Note_on_c, 6, 69, 100
4, 27838, Note_off_c, 6, 69, 0
4, 27840, Note_on_c, 6, 70, 100
4, 27886, Note_off_c, 6, 70, 0
4, 27936, Note_on_c, 6, 69, 100
4, 27936, Note_on_c, 6, 74, 100
4, 27936, Note_on_c, 6, 77, 100
4, 27982, Note_off_c, 6, 77, 0
4, 27982, Note_off_c, 6, 74, 0
4, 27982, Note_off_c, 6, 69, 0
4, 28032, Note_on_c, 6, 70, 100
4, 28078, Note_off_c, 6, 70, 0
4, 28080, Note_on_c, 6, 69, 100
4, 28126, Note_off_c, 6, 69, 0
4, 28128, Note_on_c, 6, 70, 100
4, 28174, Note_off_c, 6, 70, 0
4, 28224, Note_on_c, 6, 69, 100
4, 28224, Note_on_c, 6, 74, 100
4, 28224, Note_on_c, 6, 77, 100
4, 28270, Note_off_c, 6, 77, 0
4, 28270, Note_off_c, 6, 74, 0
4, 28270, Note_off_c, 6, 69, 0
4, 28320, Note_on_c, 6, 75, 100
4, 28366, Note_off_c, 6, 75, 0
4, 28368, Note_on_c, 6, 74, 100
4, 28414, Note_off_c, 6, 74, 0
4, 28416, Note_on_c, 6, 67, 100
4, 28416, Note_on_c, 6, 72, 100
4, 28416, Note_on_c, 6, 75, 100
4, 29022, Note_off_c, 6, 75, 0
4, 29022, Note_off_c, 6, 72, 0
4, 29022, Note_off_c, 6, 67, 0
4, 29088, Note_on_c, 6, 72, 100
4, 29134, Note_off_c, 6, 72, 0
4, 29136, Note_on_c, 6, 72, 100
4, 29182, Note_off_c, 6, 72, 0
4, 29184, Note_on_c, 6, 69, 100
4, 29184, Note_on_c, 6, 74, 100
4, 29184, Note_on_c, 6, 77, 100
4, 29230, Note_off_c, 6, 77, 0
4, 29230, Note_off_c, 6, 74, 0
4, 29230, Note_off_c, 6, 69, 0
4, 29280, Note_on_c, 6, 70, 100
4, 29326, Note_off_c, 6, 70, 0
4, 29328, Note_on_c, 6, 69, 100
4, 29374, Note_off_c, 6, 69, 0
4, 29376, Note_on_c, 6, 70, 100
4, 29422, Note_off_c, 6, 70, 0
4, 29472, Note_on_c, 6, 69, 100
4, 29472, Note_on_c, 6, 74, 100
4, 29472, Note_on_c, 6, 77, 100
4, 29518, Note_off_c, 6, 77, 0
4, 29518, Note_off_c, 6, 74, 0
4, 29518, Note_off_c, 6, 69, 0
4, 29568, Note_on_c, 6, 70, 100
4, 29614, Note_off_c, 6, 70, 0
4, 29616, Note_on_c, 6, 69, 100
4, 29662, Note_off_c, 6, 69, 0
4, 29664, Note_on_c, 6, 70, 100
4, 29710, Note_off_c, 6, 70, 0
4, 29760, Note_on_c, 6, 69, 100
4, 29760, Note_on_c, 6, 74, 100
4, 29760, Note_on_c, 6, 77, 100
4, 29806, Note_off_c, 6, 77, 0
4, 29806, Note_off_c, 6, 74, 0
4, 29806, Note_off_c, 6, 69, 0
4, 29856, Note_on_c, 6, 75, 100
4, 29902, Note_off_c, 6, 75, 0
4, 29904, Note_on_c, 6, 74, 100
4, 29950, Note_off_c, 6, 74, 0
4, 29952, Note_on_c, 6, 67, 100
4, 29952, Note_on_c, 6, 72, 100
4, 29952, Note_on_c, 6, 75, 100
4, 29998, Note_off_c, 6, 75, 0
4, 29998, Note_off_c, 6, 72, 0
4, 29998, Note_off_c, 6, 67, 0
4, 30048, Note_on_c, 6, 68, 100
4, 30094, Note_off_c, 6, 68, 0
4, 30096, Note_on_c, 6, 67, 100
4, 30142, Note_off_c, 6, 67, 0
4, 30144, Note_on_c, 6, 68, 100
4, 30190, Note_off_c, 6, 68, 0
4, 30240, Note_on_c, 6, 67, 100
4, 30240, Note_on_c, 6, 72, 100
4, 30240, Note_on_c, 6, 75, 100
4, 30286, Note_off_c, 6, 75, 0
4, 30286, Note_off_c, 6, 72, 0
4, 30286, Note_off_c, 6, 67, 0
4, 30336, Note_on_c, 6, 68, 100
4, 30382, Note_off_c, 6, 68, 0
4, 30384, Note_on_c, 6, 67, 100
4, 30430, Note_off_c, 6, 67, 0
4, 30432, Note_on_c, 6, 68, 100
4, 30478, Note_off_c, 6, 68, 0
4, 30528, Note_on_c, 6, 67, 100
4, 30528, Note_on_c, 6, 72, 100
4, 30528, Note_on_c, 6, 75, 100
4, 30574, Note_off_c, 6, 75, 0
4, 30574, Note_off_c, 6, 72, 0
4, 30574, Note_off_c, 6, 67, 0
4, 30624, Note_on_c, 6, 75, 100
4, 30670, Note_off_c, 6, 75, 0
4, 30672, Note_on_c, 6, 77, 100
4, 30718, Note_off_c, 6, 77, 0
4, 30720, Note_on_c, 6, 71, 100
4, 30720, Note_on_c, 6, 76, 100
4, 30720, Note_on_c, 6, 79, 100
4, 31966, Note_off_c, 6, 79, 0
4, 31966, Note_off_c, 6, 76, 0
4, 31966, Note_off_c, 6, 71, 0
4, 32064, Note_on_c, 6, 64, 100
4, 32158, Note_off_c, 6, 64, 0
4, 32208, Note_on_c, 6, 65, 100
4, 32254, Note_off_c, 6, 65, 0
4, 32256, Note_on_c, 6, 64, 100
4, 32256, Note_on_c, 6, 67, 100
4, 32302, Note_off_c, 6, 67, 0
4, 32302, Note_off_c, 6, 64, 0
4, 32352, Note_on_c, 6, 64, 100
4, 32352, Note_on_c, 6, 67, 100
4, 32352, Note_on_c, 6, 72, 100
4, 32782, Note_off_c, 6, 72, 0
4, 32782, Note_off_c, 6, 67, 0
4, 32782, Note_off_c, 6, 64, 0
4, 32832, Note_on_c, 6, 53, 100
4, 32832, Note_on_c, 6, 62, 100
4, 32926, Note_off_c, 6, 62, 0
4, 32926, Note_off_c, 6, 53, 0
4, 32976, Note_on_c, 6, 55, 100
4, 32976, Note_on_c, 6, 64, 100
4, 33022, Note_off_c, 6, 64, 0
4, 33022, Note_off_c, 6, 55, 0
4, 33024, Note_on_c, 6, 57, 100
4, 33024, Note_on_c, 6, 65, 100
4, 33550, Note_off_c, 6, 65, 0
4, 33550, Note_off_c, 6, 57, 0
4, 33600, Note_on_c, 6, 59, 100
4, 33600, Note_on_c, 6, 67, 100
4, 33694, Note_off_c, 6, 67, 0
4, 33694, Note_off_c, 6, 59, 0
4, 33744, Note_on_c, 6, 60, 100
4, 33744, Note_on_c, 6, 69, 100
4, 33790, Note_off_c, 6, 69, 0
4, 33790, Note_off_c, 6, 60, 0
4, 33792, Note_on_c, 6, 62, 100
4, 33792, Note_on_c, 6, 71, 100
4, 33838, Note_off_c, 6, 71, 0
4, 33838, Note_off_c, 6, 62, 0
4, 33888, Note_on_c, 6, 69, 100
4, 33888, Note_on_c, 6, 72, 100
4, 33888, Note_on_c, 6, 77, 100
4, 34366, Note_off_c, 6, 77, 0
4, 34366, Note_off_c, 6, 72, 0
4, 34366, Note_off_c, 6, 69, 0
4, 34368, Note_on_c, 6, 60, 100
4, 34368, Note_on_c, 6, 69, 100
4, 34462, Note_off_c, 6, 69, 0
4, 34462, Note_off_c, 6, 60, 0
4, 34512, Note_on_c, 6, 62, 100
4, 34512, Note_on_c, 6, 71, 100
4, 34558, Note_off_c, 6, 71, 0
4, 34558, Note_off_c, 6, 62, 0
4, 34560, Note_on_c, 6, 64, 100
4, 34560, Note_on_c, 6, 72, 100
4, 34750, Note_off_c, 6, 72, 0
4, 34750, Note_off_c, 6, 64, 0
4, 34752, Note_on_c, 6, 67, 100
4, 34752, Note_on_c, 6, 74, 100
4, 34942, Note_off_c, 6, 74, 0
4, 34942, Note_off_c, 6, 67, 0
4, 34944, Note_on_c, 6, 72, 100
4, 34944, Note_on_c, 6, 76, 100
4, 35038, Note_off_c, 6, 76, 0
4, 35038, Note_off_c, 6, 72, 0
4, 35136, Note_on_c, 6, 60, 100
4, 35136, Note_on_c, 6, 64, 100
4, 35230, Note_off_c, 6, 64, 0
4, 35230, Note_off_c, 6, 60, 0
4, 35280, Note_on_c, 6, 62, 100
4, 35280, Note_on_c, 6, 65, 100
4, 35326, Note_off_c, 6, 65, 0
4, 35326, Note_off_c, 6, 62, 0
4, 35328, Note_on_c, 6, 64, 100
4, 35328, Note_on_c, 6, 67, 100
4, 35374, Note_off_c, 6, 67, 0
4, 35374, Note_off_c, 6, 64, 0
4, 35424, Note_on_c, 6, 64, 100
4, 35424, Note_on_c, 6, 67, 100
4, 35424, Note_on_c, 6, 72, 100
4, 35854, Note_off_c, 6, 72, 0
4, 35854, Note_off_c, 6, 67, 0
4, 35854, Note_off_c, 6, 64, 0
4, 35904, Note_on_c, 6, 67, 100
4, 35904, Note_on_c, 6, 71, 100
4, 35904, Note_on_c, 6, 74, 100
4, 35998, Note_off_c, 6, 74, 0
4, 35998, Note_off_c, 6, 71, 0
4, 35998, Note_off_c, 6, 67, 0
4, 36048, Note_on_c, 6, 67, 100
4, 36048, Note_on_c, 6, 72, 100
4, 36048, Note_on_c, 6, 76, 100
4, 36094, Note_off_c, 6, 76, 0
4, 36094, Note_off_c, 6, 72, 0
4, 36094, Note_off_c, 6, 67, 0
4, 36096, Note_on_c, 6, 68, 100
4, 36096, Note_on_c, 6, 73, 100
4, 36096, Note_on_c, 6, 77, 100
4, 36622, Note_off_c, 6, 77, 0
4, 36622, Note_off_c, 6, 73, 0
4, 36622, Note_off_c, 6, 68, 0
4, 36672, Note_on_c, 6, 67, 100
4, 36766, Note_off_c, 6, 67, 0
4, 36816, Note_on_c, 6, 67, 100
4, 36862, Note_off_c, 6, 67, 0
4, 36864, Note_on_c, 6, 67, 100
4, 36864, Note_on_c, 6, 72, 100
4, 36864, Note_on_c, 6, 65, 100
4, 36864, Note_on_c, 6, 76, 100
4, 37054, Note_off_c, 6, 76, 0
4, 37054, Note_off_c, 6, 65, 0
4, 37054, Note_off_c, 6, 72, 0
4, 37054, Note_off_c, 6, 67, 0
4, 37056, Note_on_c, 6, 74, 100
4, 37150, Note_off_c, 6, 74, 0
4, 37200, Note_on_c, 6, 67, 100
4, 37246, Note_off_c, 6, 67, 0
4, 37248, Note_on_c, 6, 67, 100
4, 37248, Note_on_c, 6, 72, 100
4, 37248, Note_on_c, 6, 65, 100
4, 37248, Note_on_c, 6, 76, 100
4, 37438, Note_off_c, 6, 76, 0
4, 37438, Note_off_c, 6, 65, 0
4, 37438, Note_off_c, 6, 72, 0
4, 37438, Note_off_c, 6, 67, 0
4, 37440, Note_on_c, 6, 74, 100
4, 37534, Note_off_c, 6, 74, 0
4, 37584, Note_on_c, 6, 67, 100
4, 37630, Note_off_c, 6, 67, 0
4, 37632, Note_on_c, 6, 67, 100
4, 37632, Note_on_c, 6, 72, 100
4, 37632, Note_on_c, 6, 65, 100
4, 37632, Note_on_c, 6, 76, 100
4, 37822, Note_off_c, 6, 76, 0
4, 37822, Note_off_c, 6, 65, 0
4, 37822, Note_off_c, 6, 72, 0
4, 37822, Note_off_c, 6, 67, 0
4, 37824, Note_on_c, 6, 74, 100
4, 37918, Note_off_c, 6, 74, 0
4, 37968, Note_on_c, 6, 67, 100
4, 38014, Note_off_c, 6, 67, 0
4, 38016, Note_on_c, 6, 77, 100
4, 38016, Note_on_c, 6, 67, 100
4, 38016, Note_on_c, 6, 65, 100
4, 38016, Note_on_c, 6, 72, 100
4, 38206, Note_off_c, 6, 72, 0
4, 38206, Note_off_c, 6, 65, 0
4, 38206, Note_off_c, 6, 67, 0
4, 38206, Note_off_c, 6, 77, 0
4, 38208, Note_on_c, 6, 67, 100
4, 38208, Note_on_c, 6, 71, 100
4, 38208, Note_on_c, 6, 76, 100
4, 38302, Note_off_c, 6, 76, 0
4, 38302, Note_off_c, 6, 71, 0
4, 38302, Note_off_c, 6, 67, 0
4, 38352, Note_on_c, 6, 67, 100
4, 38352, Note_on_c, 6, 71, 100
4, 38352, Note_on_c, 6, 74, 100
4, 38398, Note_off_c, 6, 74, 0
4, 38398, Note_off_c, 6, 71, 0
4, 38398, Note_off_c, 6, 67, 0
4, 38400, Note_on_c, 6, 67, 100
4, 38400, Note_on_c, 6, 72, 100
4, 38400, Note_on_c, 6, 77, 100
4, 38590, Note_off_c, 6, 77, 0
4, 38590, Note_off_c, 6, 72, 0
4, 38590, Note_off_c, 6, 67, 0
4, 38592, Note_on_c, 6, 67, 100
4, 38592, Note_on_c, 6, 71, 100
4, 38592, Note_on_c, 6, 76, 100
4, 38686, Note_off_c, 6, 76, 0
4, 38686, Note_off_c, 6, 71, 0
4, 38686, Note_off_c, 6, 67, 0
4, 38736, Note_on_c, 6, 67, 100
4, 38736, Note_on_c, 6, 71, 100
4, 38736, Note_on_c, 6, 74, 100
4, 38782, Note_off_c, 6, 74, 0
4, 38782, Note_off_c, 6, 71, 0
4, 38782, Note_off_c, 6, 67, 0
4, 38784, Note_on_c, 6, 67, 100
4, 38784, Note_on_c, 6, 72, 100
4, 39646, Note_off_c, 6, 72, 0
4, 39646, Note_off_c, 6, 67, 0
4, 39744, Note_on_c, 6, 65, 100
4, 39838, Note_off_c, 6, 65, 0
4, 39888, Note_on_c, 6, 66, 100
4, 39934, Note_off_c, 6, 66, 0
4, 39936, Note_on_c, 6, 68, 100
4, 39982, Note_off_c, 6, 68, 0
4, 40032, Note_on_c, 6, 73, 100
4, 40438, Note_off_c, 6, 73, 0
4, 40512, Note_on_c, 6, 63, 100
4, 40630, Note_off_c, 6, 63, 0
4, 40656, Note_on_c, 6, 65, 100
4, 40702, Note_off_c, 6, 65, 0
4, 40704, Note_on_c, 6, 66, 100
4, 41206, Note_off_c, 6, 66, 0
4, 41280, Note_on_c, 6, 68, 100
4, 41374, Note_off_c, 6, 68, 0
4, 41424, Note_on_c, 6, 70, 100
4, 41470, Note_off_c, 6, 70, 0
4, 41472, Note_on_c, 6, 72, 100
4, 41518, Note_off_c, 6, 72, 0
4, 41568, Note_on_c, 6, 78, 100
4, 41974, Note_off_c, 6, 78, 0
4, 42048, Note_on_c, 6, 61, 100
4, 42048, Note_on_c, 6, 70, 100
4, 42142, Note_off_c, 6, 70, 0
4, 42142, Note_off_c, 6, 61, 0
4, 42192, Note_on_c, 6, 63, 100
4, 42192, Note_on_c, 6, 72, 100
4, 42238, Note_off_c, 6, 72, 0
4, 42238, Note_off_c, 6, 63, 0
4, 42240, Note_on_c, 6, 65, 100
4, 42240, Note_on_c, 6, 73, 100
4, 42430, Note_off_c, 6, 73, 0
4, 42430, Note_off_c, 6, 65, 0
4, 42432, Note_on_c, 6, 68, 100
4, 42432, Note_on_c, 6, 75, 100
4, 42622, Note_off_c, 6, 75, 0
4, 42622, Note_off_c, 6, 68, 0
4, 42624, Note_on_c, 6, 73, 100
4, 42624, Note_on_c, 6, 77, 100
4, 42718, Note_off_c, 6, 77, 0
4, 42718, Note_off_c, 6, 73, 0
4, 42816, Note_on_c, 6, 61, 100
4, 42816, Note_on_c, 6, 65, 100
4, 42910, Note_off_c, 6, 65, 0
4, 42910, Note_off_c, 6, 61, 0
4, 42960, Note_on_c, 6, 63, 100
4, 42960, Note_on_c, 6, 66, 100
4, 43006, Note_off_c, 6, 66, 0
4, 43006, Note_off_c, 6, 63, 0
4, 43008, Note_on_c, 6, 65, 100
4, 43008, Note_on_c, 6, 68, 100
4, 43054, Note_off_c, 6, 68, 0
4, 43054, Note_off_c, 6, 65, 0
4, 43104, Note_on_c, 6, 68, 100
4, 43104, Note_on_c, 6, 65, 100
4, 43104, Note_on_c, 6, 73, 100
4, 43534, Note_off_c, 6, 73, 0
4, 43534, Note_off_c, 6, 65, 0
4, 43534, Note_off_c, 6, 68, 0
4, 43584, Note_on_c, 6, 68, 100
4, 43584, Note_on_c, 6, 72, 100
4, 43584, Note_on_c, 6, 75, 100
4, 43678, Note_off_c, 6, 75, 0
4, 43678, Note_off_c, 6, 72, 0
4, 43678, Note_off_c, 6, 68, 0
4, 43728, Note_on_c, 6, 73, 100
4, 43728, Note_on_c, 6, 68, 100
4, 43728, Note_on_c, 6, 77, 100
4, 43774, Note_off_c, 6, 77, 0
4, 43774, Note_off_c, 6, 68, 0
4, 43774, Note_off_c, 6, 73, 0
4, 43776, Note_on_c, 6, 74, 100
4, 43776, Note_on_c, 6, 69, 100
4, 43776, Note_on_c, 6, 78, 100
4, 44302, Note_off_c, 6, 78, 0
4, 44302, Note_off_c, 6, 69, 0
4, 44302, Note_off_c, 6, 74, 0
4, 44352, Note_on_c, 6, 68, 100
4, 44446, Note_off_c, 6, 68, 0
4, 44496, Note_on_c, 6, 68, 100
4, 44542, Note_off_c, 6, 68, 0
4, 44544, Note_on_c, 6, 68, 100
4, 44544, Note_on_c, 6, 73, 100
4, 44544, Note_on_c, 6, 66, 100
4, 44544, Note_on_c, 6, 77, 100
4, 44734, Note_off_c, 6, 77, 0
4, 44734, Note_off_c, 6, 66, 0
4, 44734, Note_off_c, 6, 73, 0
4, 44734, Note_off_c, 6, 68, 0
4, 44736, Note_on_c, 6, 75, 100
4, 44830, Note_off_c, 6, 75, 0
4, 44880, Note_on_c, 6, 68, 100
4, 44926, Note_off_c, 6, 68, 0
4, 44928, Note_on_c, 6, 68, 100
4, 44928, Note_on_c, 6, 73, 100
4, 44928, Note_on_c, 6, 66, 100
4, 44928, Note_on_c, 6, 77, 100
4, 45118, Note_off_c, 6, 77, 0
4, 45118, Note_off_c, 6, 66, 0
4, 45118, Note_off_c, 6, 73, 0
4, 45118, Note_off_c, 6, 68, 0
4, 45120, Note_on_c, 6, 75, 100
4, 45214, Note_off_c, 6, 75, 0
4, 45264, Note_on_c, 6, 68, 100
4, 45310, Note_off_c, 6, 68, 0
4, 45312, Note_on_c, 6, 68, 100
4, 45312, Note_on_c, 6, 73, 100
4, 45312, Note_on_c, 6, 66, 100
4, 45312, Note_on_c, 6, 77, 100
4, 45502, Note_off_c, 6, 77, 0
4, 45502, Note_off_c, 6, 66, 0
4, 45502, Note_off_c, 6, 73, 0
4, 45502, Note_off_c, 6, 68, 0
4, 45504, Note_on_c, 6, 75, 100
4, 45598, Note_off_c, 6, 75, 0
4, 45648, Note_on_c, 6, 68, 100
4, 45694, Note_off_c, 6, 68, 0
4, 45696, Note_on_c, 6, 78, 100
4, 45696, Note_on_c, 6, 68, 100
4, 45696, Note_on_c, 6, 66, 100
4, 45696, Note_on_c, 6, 73, 100
4, 45886, Note_off_c, 6, 73, 0
4, 45886, Note_off_c, 6, 66, 0
4, 45886, Note_off_c, 6, 68, 0
4, 45886, Note_off_c, 6, 78, 0
4, 45888, Note_on_c, 6, 68, 100
4, 45888, Note_on_c, 6, 72, 100
4, 45888, Note_on_c, 6, 77, 100
4, 45982, Note_off_c, 6, 77, 0
4, 45982, Note_off_c, 6, 72, 0
4, 45982, Note_off_c, 6, 68, 0
4, 46032, Note_on_c, 6, 68, 100
4, 46032, Note_on_c, 6, 72, 100
4, 46032, Note_on_c, 6, 75, 100
4, 46078, Note_off_c, 6, 75, 0
4, 46078, Note_off_c, 6, 72, 0
4, 46078, Note_off_c, 6, 68, 0
4, 46080, Note_on_c, 6, 68, 100
4, 46080, Note_on_c, 6, 73, 100
4, 46080, Note_on_c, 6, 78, 100
4, 46270, Note_off_c, 6, 78, 0
4, 46270, Note_off_c, 6, 73, 0
4, 46270, Note_off_c, 6, 68, 0
4, 46272, Note_on_c, 6, 68, 100
4, 46272, Note_on_c, 6, 72, 100
4, 46272, Note_on_c, 6, 77, 100
4, 46366, Note_off_c, 6, 77, 0
4, 46366, Note_off_c, 6, 72, 0
4, 46366, Note_off_c, 6, 68, 0
4, 46416, Note_on_c, 6, 68, 100
4, 46416, Note_on_c, 6, 72, 100
4, 46416, Note_on_c, 6, 75, 100
4, 46462, Note_off_c, 6, 75, 0
4, 46462, Note_off_c, 6, 72, 0
4, 46462, Note_off_c, 6, 68, 0
4, 46464, Note_on_c, 6, 68, 100
4, 46464, Note_on_c, 6, 73, 100
4, 47326, Note_off_c, 6, 73, 0
4, 47326, Note_off_c, 6, 68, 0
4, 47712, Note_on_c, 6, 70, 100
4, 47806, Note_off_c, 6, 70, 0
4, 47808, Note_on_c, 6, 66, 100
4, 47902, Note_off_c, 6, 66, 0
4, 47904, Note_on_c, 6, 73, 100
4, 47998, Note_off_c, 6, 73, 0
4, 48000, Note_on_c, 6, 70, 100
4, 48094, Note_off_c, 6, 70, 0
4, 48096, Note_on_c, 6, 77, 100
4, 48190, Note_off_c, 6, 77, 0
4, 48192, Note_on_c, 6, 73, 100
4, 48286, Note_off_c, 6, 73, 0
4, 48288, Note_on_c, 6, 82, 100
4, 48382, Note_off_c, 6, 82, 0
4, 48384, Note_on_c, 6, 80, 100
4, 48478, Note_off_c, 6, 80, 0
4, 48480, Note_on_c, 6, 77, 100
4, 48574, Note_off_c, 6, 77, 0
4, 48576, Note_on_c, 6, 73, 100
4, 48670, Note_off_c, 6, 73, 0
4, 48672, Note_on_c, 6, 80, 100
4, 48766, Note_off_c, 6, 80, 0
4, 48768, Note_on_c, 6, 77, 100
4, 48862, Note_off_c, 6, 77, 0
4, 48864, Note_on_c, 6, 92, 100
4, 48864, Note_on_c, 6, 80, 100
4, 48958, Note_off_c, 6, 80, 0
4, 48958, Note_off_c, 6, 92, 0
4, 49248, Note_on_c, 6, 70, 100
4, 49342, Note_off_c, 6, 70, 0
4, 49344, Note_on_c, 6, 66, 100
4, 49438, Note_off_c, 6, 66, 0
4, 49440, Note_on_c, 6, 73, 100
4, 49534, Note_off_c, 6, 73, 0
4, 49536, Note_on_c, 6, 70, 100
4, 49630, Note_off_c, 6, 70, 0
4, 49632, Note_on_c, 6, 77, 100
4, 49726, Note_off_c, 6, 77, 0
4, 49728, Note_on_c, 6, 73, 100
4, 49822, Note_off_c, 6, 73, 0
4, 49824, Note_on_c, 6, 82, 100
4, 49918, Note_off_c, 6, 82, 0
4, 49920, Note_on_c, 6, 80, 100
4, 50014, Note_off_c, 6, 80, 0
4, 50016, Note_on_c, 6, 77, 100
4, 50110, Note_off_c, 6, 77, 0
4, 50112, Note_on_c, 6, 73, 100
4, 50206, Note_off_c, 6, 73, 0
4, 50208, Note_on_c, 6, 80, 100
4, 50302, Note_off_c, 6, 80, 0
4, 50304, Note_on_c, 6, 77, 100
4, 50398, Note_off_c, 6, 77, 0
4, 50400, Note_on_c, 6, 80, 100
4, 50400, Note_on_c, 6, 92, 100
4, 50494, Note_off_c, 6, 92, 0
4, 50494, Note_off_c, 6, 80, 0
4, 50784, Note_on_c, 6, 76, 100
4, 50878, Note_off_c, 6, 76, 0
4, 50880, Note_on_c, 6, 73, 100
4, 50974, Note_off_c, 6, 73, 0
4, 50976, Note_on_c, 6, 69, 100
4, 51070, Note_off_c, 6, 69, 0
4, 51072, Note_on_c, 6, 76, 100
4, 51166, Note_off_c, 6, 76, 0
4, 51168, Note_on_c, 6, 73, 100
4, 51262, Note_off_c, 6, 73, 0
4, 51264, Note_on_c, 6, 81, 100
4, 51358, Note_off_c, 6, 81, 0
4, 51360, Note_on_c, 6, 76, 100
4, 51454, Note_off_c, 6, 76, 0
4, 51456, Note_on_c, 6, 78, 100
4, 51550, Note_off_c, 6, 78, 0
4, 51552, Note_on_c, 6, 75, 100
4, 51646, Note_off_c, 6, 75, 0
4, 51648, Note_on_c, 6, 71, 100
4, 51742, Note_off_c, 6, 71, 0
4, 51744, Note_on_c, 6, 75, 100
4, 51838, Note_off_c, 6, 75, 0
4, 51840, Note_on_c, 6, 78, 100
4, 51934, Note_off_c, 6, 78, 0
4, 51936, Note_on_c, 6, 71, 100
4, 52030, Note_off_c, 6, 71, 0
4, 52032, Note_on_c, 6, 75, 100
4, 52126, Note_off_c, 6, 75, 0
4, 52128, Note_on_c, 6, 78, 100
4, 52222, Note_off_c, 6, 78, 0
4, 52416, Note_on_c, 6, 80, 100
4, 52462, Note_off_c, 6, 80, 0
4, 52464, Note_on_c, 6, 78, 100
4, 52510, Note_off_c, 6, 78, 0
4, 52512, Note_on_c, 6, 77, 100
4, 52558, Note_off_c, 6, 77, 0
4, 52560, Note_on_c, 6, 75, 100
4, 52606, Note_off_c, 6, 75, 0
4, 52608, Note_on_c, 6, 73, 100
4, 52654, Note_off_c, 6, 73, 0
4, 52656, Note_on_c, 6, 75, 100
4, 52702, Note_off_c, 6, 75, 0
4, 52704, Note_on_c, 6, 77, 100
4, 52750, Note_off_c, 6, 77, 0
4, 52752, Note_on_c, 6, 78, 100
4, 52798, Note_off_c, 6, 78, 0
4, 52800, Note_on_c, 6, 80, 100
4, 52830, Note_off_c, 6, 80, 0
4, 52832, Note_on_c, 6, 78, 100
4, 52862, Note_off_c, 6, 78, 0
4, 52864, Note_on_c, 6, 80, 100
4, 52894, Note_off_c, 6, 80, 0
4, 52896, Note_on_c, 6, 83, 100
4, 52926, Note_off_c, 6, 83, 0
4, 52928, Note_on_c, 6, 81, 100
4, 52958, Note_off_c, 6, 81, 0
4, 52960, Note_on_c, 6, 83, 100
4, 52990, Note_off_c, 6, 83, 0
4, 52992, Note_on_c, 6, 85, 100
4, 53086, Note_off_c, 6, 85, 0
4, 53086, End_track
5, 0, Start_track
5, 0, Title_t, "french horn"
5, 0, Channel_prefix, 7
5, 0, Control_c, 7, 7, 110
5, 0, Program_c, 7, 60
5, 0, Control_c, 7, 0, 0
5, 0, Control_c, 7, 32, 0
5, 0, Control_c, 7, 91, 53
5, 15168, Note_on_c, 7, 52, 100
5, 15262, Note_off_c, 7, 52, 0
5, 15312, Note_on_c, 7, 55, 100
5, 15358, Note_off_c, 7, 55, 0
5, 15360, Note_on_c, 7, 53, 100
5, 15886, Note_off_c, 7, 53, 0
5, 15936, Note_on_c, 7, 50, 100
5, 16030, Note_off_c, 7, 50, 0
5, 16080, Note_on_c, 7, 53, 100
5, 16126, Note_off_c, 7, 53, 0
5, 16128, Note_on_c, 7, 52, 100
5, 16158, Note_off_c, 7, 52, 0
5, 16192, Note_on_c, 7, 55, 100
5, 16222, Note_off_c, 7, 55, 0
5, 16256, Note_on_c, 7, 64, 100
5, 16638, Note_off_c, 7, 64, 0
5, 16704, Note_on_c, 7, 52, 100
5, 16798, Note_off_c, 7, 52, 0
5, 16848, Note_on_c, 7, 55, 100
5, 16894, Note_off_c, 7, 55, 0
5, 16896, Note_on_c, 7, 53, 100
5, 17422, Note_off_c, 7, 53, 0
5, 17472, Note_on_c, 7, 50, 100
5, 17566, Note_off_c, 7, 50, 0
5, 17616, Note_on_c, 7, 53, 100
5, 17662, Note_off_c, 7, 53, 0
5, 17664, Note_on_c, 7, 52, 100
5, 17694, Note_off_c, 7, 52, 0
5, 17728, Note_on_c, 7, 55, 100
5, 17758, Note_off_c, 7, 55, 0
5, 17792, Note_on_c, 7, 64, 100
5, 18174, Note_off_c, 7, 64, 0
5, 18240, Note_on_c, 7, 62, 100
5, 18334, Note_off_c, 7, 62, 0
5, 18384, Note_on_c, 7, 64, 100
5, 18430, Note_off_c, 7, 64, 0
5, 18432, Note_on_c, 7, 65, 100
5, 18958, Note_off_c, 7, 65, 0
5, 19008, Note_on_c, 7, 62, 100
5, 19102, Note_off_c, 7, 62, 0
5, 19152, Note_on_c, 7, 65, 100
5, 19198, Note_off_c, 7, 65, 0
5, 19200, Note_on_c, 7, 63, 100
5, 19230, Note_off_c, 7, 63, 0
5, 19264, Note_on_c, 7, 62, 100
5, 19294, Note_off_c, 7, 62, 0
5, 19328, Note_on_c, 7, 60, 100
5, 19710, Note_off_c, 7, 60, 0
5, 19776, Note_on_c, 7, 60, 100
5, 19870, Note_off_c, 7, 60, 0
5, 19920, Note_on_c, 7, 63, 100
5, 19966, Note_off_c, 7, 63, 0
5, 19968, Note_on_c, 7, 62, 100
5, 20014, Note_off_c, 7, 62, 0
5, 20064, Note_on_c, 7, 55, 100
5, 20110, Note_off_c, 7, 55, 0
5, 20112, Note_on_c, 7, 54, 100
5, 20158, Note_off_c, 7, 54, 0
5, 20160, Note_on_c, 7, 55, 100
5, 20206, Note_off_c, 7, 55, 0
5, 20256, Note_on_c, 7, 62, 100
5, 20302, Note_off_c, 7, 62, 0
5, 20352, Note_on_c, 7, 55, 100
5, 20398, Note_off_c, 7, 55, 0
5, 20400, Note_on_c, 7, 54, 100
5, 20446, Note_off_c, 7, 54, 0
5, 20448, Note_on_c, 7, 55, 100
5, 20494, Note_off_c, 7, 55, 0
5, 20544, Note_on_c, 7, 62, 100
5, 20590, Note_off_c, 7, 62, 0
5, 20640, Note_on_c, 7, 60, 100
5, 20686, Note_off_c, 7, 60, 0
5, 20688, Note_on_c, 7, 59, 100
5, 20734, Note_off_c, 7, 59, 0
5, 20736, Note_on_c, 7, 60, 100
5, 21262, Note_off_c, 7, 60, 0
5, 32064, Note_on_c, 7, 52, 100
5, 32158, Note_off_c, 7, 52, 0
5, 32208, Note_on_c, 7, 53, 100
5, 32254, Note_off_c, 7, 53, 0
5, 32256, Note_on_c, 7, 55, 100
5, 32302, Note_off_c, 7, 55, 0
5, 32352, Note_on_c, 7, 60, 100
5, 32782, Note_off_c, 7, 60, 0
5, 32832, Note_on_c, 7, 50, 100
5, 32926, Note_off_c, 7, 50, 0
5, 32976, Note_on_c, 7, 52, 100
5, 33022, Note_off_c, 7, 52, 0
5, 33024, Note_on_c, 7, 53, 100
5, 33550, Note_off_c, 7, 53, 0
5, 33600, Note_on_c, 7, 55, 100
5, 33694, Note_off_c, 7, 55, 0
5, 33744, Note_on_c, 7, 57, 100
5, 33790, Note_off_c, 7, 57, 0
5, 33792, Note_on_c, 7, 59, 100
5, 33838, Note_off_c, 7, 59, 0
5, 33888, Note_on_c, 7, 65, 100
5, 34318, Note_off_c, 7, 65, 0
5, 34368, Note_on_c, 7, 57, 100
5, 34462, Note_off_c, 7, 57, 0
5, 34512, Note_on_c, 7, 59, 100
5, 34558, Note_off_c, 7, 59, 0
5, 34560, Note_on_c, 7, 52, 100
5, 34560, Note_on_c, 7, 60, 100
5, 34750, Note_off_c, 7, 60, 0
5, 34750, Note_off_c, 7, 52, 0
5, 34752, Note_on_c, 7, 55, 100
5, 34752, Note_on_c, 7, 62, 100
5, 34942, Note_off_c, 7, 62, 0
5, 34942, Note_off_c, 7, 55, 0
5, 34944, Note_on_c, 7, 60, 100
5, 34944, Note_on_c, 7, 64, 100
5, 35038, Note_off_c, 7, 64, 0
5, 35038, Note_off_c, 7, 60, 0
5, 35136, Note_on_c, 7, 52, 100
5, 35230, Note_off_c, 7, 52, 0
5, 35280, Note_on_c, 7, 53, 100
5, 35326, Note_off_c, 7, 53, 0
5, 35328, Note_on_c, 7, 52, 100
5, 35328, Note_on_c, 7, 55, 100
5, 35374, Note_off_c, 7, 55, 0
5, 35374, Note_off_c, 7, 52, 0
5, 35424, Note_on_c, 7, 55, 100
5, 35424, Note_on_c, 7, 52, 100
5, 35424, Note_on_c, 7, 60, 100
5, 35854, Note_off_c, 7, 60, 0
5, 35854, Note_off_c, 7, 52, 0
5, 35854, Note_off_c, 7, 55, 0
5, 35904, Note_on_c, 7, 62, 100
5, 35998, Note_off_c, 7, 62, 0
5, 36048, Note_on_c, 7, 64, 100
5, 36094, Note_off_c, 7, 64, 0
5, 36096, Note_on_c, 7, 56, 100
5, 36096, Note_on_c, 7, 61, 100
5, 36096, Note_on_c, 7, 65, 100
5, 36622, Note_off_c, 7, 65, 0
5, 36622, Note_off_c, 7, 61, 0
5, 36622, Note_off_c, 7, 56, 0
5, 36672, Note_on_c, 7, 55, 100
5, 36766, Note_off_c, 7, 55, 0
5, 36816, Note_on_c, 7, 55, 100
5, 36862, Note_off_c, 7, 55, 0
5, 36864, Note_on_c, 7, 64, 100
5, 37054, Note_off_c, 7, 64, 0
5, 37056, Note_on_c, 7, 62, 100
5, 37150, Note_off_c, 7, 62, 0
5, 37200, Note_on_c, 7, 55, 100
5, 37246, Note_off_c, 7, 55, 0
5, 37248, Note_on_c, 7, 64, 100
5, 37438, Note_off_c, 7, 64, 0
5, 37440, Note_on_c, 7, 62, 100
5, 37534, Note_off_c, 7, 62, 0
5, 37584, Note_on_c, 7, 55, 100
5, 37630, Note_off_c, 7, 55, 0
5, 37632, Note_on_c, 7, 64, 100
5, 37822, Note_off_c, 7, 64, 0
5, 37824, Note_on_c, 7, 62, 100
5, 37918, Note_off_c, 7, 62, 0
5, 37968, Note_on_c, 7, 55, 100
5, 38014, Note_off_c, 7, 55, 0
5, 38016, Note_on_c, 7, 65, 100
5, 38206, Note_off_c, 7, 65, 0
5, 38208, Note_on_c, 7, 64, 100
5, 38302, Note_off_c, 7, 64, 0
5, 38352, Note_on_c, 7, 62, 100
5, 38398, Note_off_c, 7, 62, 0
5, 38400, Note_on_c, 7, 60, 100
5, 38782, Note_off_c, 7, 60, 0
5, 38784, Note_on_c, 7, 53, 100
5, 38974, Note_off_c, 7, 53, 0
5, 38976, Note_on_c, 7, 52, 100
5, 39070, Note_off_c, 7, 52, 0
5, 39120, Note_on_c, 7, 50, 100
5, 39166, Note_off_c, 7, 50, 0
5, 39168, Note_on_c, 7, 48, 100
5, 39646, Note_off_c, 7, 48, 0
5, 40128, Note_on_c, 7, 53, 100
5, 40222, Note_off_c, 7, 53, 0
5, 40272, Note_on_c, 7, 54, 100
5, 40318, Note_off_c, 7, 54, 0
5, 40320, Note_on_c, 7, 56, 100
5, 40366, Note_off_c, 7, 56, 0
5, 40416, Note_on_c, 7, 61, 100
5, 40846, Note_off_c, 7, 61, 0
5, 40896, Note_on_c, 7, 51, 100
5, 40990, Note_off_c, 7, 51, 0
5, 41040, Note_on_c, 7, 53, 100
5, 41086, Note_off_c, 7, 53, 0
5, 41088, Note_on_c, 7, 54, 100
5, 41614, Note_off_c, 7, 54, 0
5, 41664, Note_on_c, 7, 56, 100
5, 41758, Note_off_c, 7, 56, 0
5, 41808, Note_on_c, 7, 58, 100
5, 41854, Note_off_c, 7, 58, 0
5, 41856, Note_on_c, 7, 60, 100
5, 41902, Note_off_c, 7, 60, 0
5, 41952, Note_on_c, 7, 66, 100
5, 42238, Note_off_c, 7, 66, 0
5, 42240, Note_on_c, 7, 53, 100
5, 42240, Note_on_c, 7, 61, 100
5, 42430, Note_off_c, 7, 61, 0
5, 42430, Note_off_c, 7, 53, 0
5, 42432, Note_on_c, 7, 56, 100
5, 42432, Note_on_c, 7, 63, 100
5, 42622, Note_off_c, 7, 63, 0
5, 42622, Note_off_c, 7, 56, 0
5, 42624, Note_on_c, 7, 61, 100
5, 42624, Note_on_c, 7, 65, 100
5, 42718, Note_off_c, 7, 65, 0
5, 42718, Note_off_c, 7, 61, 0
5, 43200, Note_on_c, 7, 53, 100
5, 43294, Note_off_c, 7, 53, 0
5, 43344, Note_on_c, 7, 54, 100
5, 43390, Note_off_c, 7, 54, 0
5, 43392, Note_on_c, 7, 56, 100
5, 43438, Note_off_c, 7, 56, 0
5, 43488, Note_on_c, 7, 61, 100
5, 43774, Note_off_c, 7, 61, 0
5, 43968, Note_on_c, 7, 57, 100
5, 44062, Note_off_c, 7, 57, 0
5, 44112, Note_on_c, 7, 57, 100
5, 44158, Note_off_c, 7, 57, 0
5, 44160, Note_on_c, 7, 62, 100
5, 44254, Note_off_c, 7, 62, 0
5, 44544, Note_on_c, 7, 65, 100
5, 44734, Note_off_c, 7, 65, 0
5, 44736, Note_on_c, 7, 63, 100
5, 44830, Note_off_c, 7, 63, 0
5, 44880, Note_on_c, 7, 56, 100
5, 44926, Note_off_c, 7, 56, 0
5, 44928, Note_on_c, 7, 65, 100
5, 45118, Note_off_c, 7, 65, 0
5, 45120, Note_on_c, 7, 63, 100
5, 45214, Note_off_c, 7, 63, 0
5, 45264, Note_on_c, 7, 56, 100
5, 45310, Note_off_c, 7, 56, 0
5, 45312, Note_on_c, 7, 65, 100
5, 45502, Note_off_c, 7, 65, 0
5, 45504, Note_on_c, 7, 63, 100
5, 45598, Note_off_c, 7, 63, 0
5, 45648, Note_on_c, 7, 56, 100
5, 45694, Note_off_c, 7, 56, 0
5, 45696, Note_on_c, 7, 66, 100
5, 45886, Note_off_c, 7, 66, 0
5, 45888, Note_on_c, 7, 65, 100
5, 45982, Note_off_c, 7, 65, 0
5, 46032, Note_on_c, 7, 63, 100
5, 46078, Note_off_c, 7, 63, 0
5, 46464, Note_on_c, 7, 54, 100
5, 46654, Note_off_c, 7, 54, 0
5, 46656, Note_on_c, 7, 53, 100
5, 46750, Note_off_c, 7, 53, 0
5, 46800, Note_on_c, 7, 51, 100
5, 46846, Note_off_c, 7, 51, 0
5, 46848, Note_on_c, 7, 49, 100
5, 47326, Note_off_c, 7, 49, 0
5, 47424, Note_on_c, 7, 61, 100
5, 47470, Note_off_c, 7, 61, 0
5, 47472, Note_on_c, 7, 61, 100
5, 47518, Note_off_c, 7, 61, 0
5, 47520, Note_on_c, 7, 61, 100
5, 47566, Note_off_c, 7, 61, 0
5, 47616, Note_on_c, 7, 66, 100
5, 47616, Note_on_c, 7, 59, 100
5, 47616, Note_on_c, 7, 63, 100
5, 47616, Note_on_c, 7, 58, 100
5, 48094, Note_off_c, 7, 58, 0
5, 48094, Note_off_c, 7, 63, 0
5, 48094, Note_off_c, 7, 59, 0
5, 48094, Note_off_c, 7, 66, 0
5, 48192, Note_on_c, 7, 58, 100
5, 48192, Note_on_c, 7, 59, 100
5, 48192, Note_on_c, 7, 63, 100
5, 48192, Note_on_c, 7, 66, 100
5, 48238, Note_off_c, 7, 66, 0
5, 48286, Note_off_c, 7, 63, 0
5, 48286, Note_off_c, 7, 59, 0
5, 48286, Note_off_c, 7, 58, 0
5, 48288, Note_on_c, 7, 66, 100
5, 48334, Note_off_c, 7, 66, 0
5, 48336, Note_on_c, 7, 67, 100
5, 48382, Note_off_c, 7, 67, 0
5, 48384, Note_on_c, 7, 60, 100
5, 48384, Note_on_c, 7, 61, 100
5, 48384, Note_on_c, 7, 65, 100
5, 48384, Note_on_c, 7, 68, 100
5, 48886, Note_off_c, 7, 68, 0
5, 48886, Note_off_c, 7, 65, 0
5, 48886, Note_off_c, 7, 61, 0
5, 48886, Note_off_c, 7, 60, 0
5, 48960, Note_on_c, 7, 61, 100
5, 49006, Note_off_c, 7, 61, 0
5, 49008, Note_on_c, 7, 61, 100
5, 49054, Note_off_c, 7, 61, 0
5, 49056, Note_on_c, 7, 61, 100
5, 49102, Note_off_c, 7, 61, 0
5, 49152, Note_on_c, 7, 58, 100
5, 49152, Note_on_c, 7, 59, 100
5, 49152, Note_on_c, 7, 63, 100
5, 49152, Note_on_c, 7, 66, 100
5, 49726, Note_off_c, 7, 66, 0
5, 49726, Note_off_c, 7, 63, 0
5, 49726, Note_off_c, 7, 59, 0
5, 49726, Note_off_c, 7, 58, 0
5, 49824, Note_on_c, 7, 66, 100
5, 49870, Note_off_c, 7, 66, 0
5, 49872, Note_on_c, 7, 67, 100
5, 49918, Note_off_c, 7, 67, 0
5, 49920, Note_on_c, 7, 61, 100
5, 49920, Note_on_c, 7, 60, 100
5, 49920, Note_on_c, 7, 65, 100
5, 49920, Note_on_c, 7, 68, 100
5, 50398, Note_off_c, 7, 68, 0
5, 50398, Note_off_c, 7, 65, 0
5, 50398, Note_off_c, 7, 60, 0
5, 50398, Note_off_c, 7, 61, 0
5, 50496, Note_on_c, 7, 73, 100
5, 50542, Note_off_c, 7, 73, 0
5, 50544, Note_on_c, 7, 73, 100
5, 50590, Note_off_c, 7, 73, 0
5, 50592, Note_on_c, 7, 73, 100
5, 50638, Note_off_c, 7, 73, 0
5, 50688, Note_on_c, 7, 76, 100
5, 51166, Note_off_c, 7, 76, 0
5, 51264, Note_on_c, 7, 73, 100
5, 51358, Note_off_c, 7, 73, 0
5, 51408, Note_on_c, 7, 73, 100
5, 51454, Note_off_c, 7, 73, 0
5, 51456, Note_on_c, 7, 78, 100
5, 51790, Note_off_c, 7, 78, 0
5, 51840, Note_on_c, 7, 75, 100
5, 52174, Note_off_c, 7, 75, 0
5, 52224, Note_on_c, 7, 80, 100
5, 52990, Note_off_c, 7, 80, 0
5, 53184, Note_on_c, 7, 61, 100
5, 53230, Note_off_c, 7, 61, 0
5, 53232, Note_on_c, 7, 61, 100
5, 53278, Note_off_c, 7, 61, 0
5, 53280, Note_on_c, 7, 61, 100
5, 53326, Note_off_c, 7, 61, 0
5, 53328, Note_on_c, 7, 61, 100
5, 53374, Note_off_c, 7, 61, 0
5, 53376, Note_on_c, 7, 61, 100
5, 53470, Note_off_c, 7, 61, 0
5, 53470, End_track
6, 0, Start_track
6, 0, Title_t, "mid strings"
6, 0, Channel_prefix, 8
6, 0, Control_c, 8, 7, 110
6, 0, Program_c, 8, 44
6, 0, Control_c, 8, 0, 0
6, 0, Control_c, 8, 32, 0
6, 0, Control_c, 8, 91, 84
6, 15360, Note_on_c, 8, 50, 100
6, 15360, Note_on_c, 8, 53, 100
6, 15886, Note_off_c, 8, 53, 0
6, 15886, Note_off_c, 8, 50, 0
6, 15936, Note_on_c, 8, 46, 100
6, 15936, Note_on_c, 8, 50, 100
6, 16030, Note_off_c, 8, 50, 0
6, 16030, Note_off_c, 8, 46, 0
6, 16080, Note_on_c, 8, 50, 100
6, 16080, Note_on_c, 8, 53, 100
6, 16126, Note_off_c, 8, 53, 0
6, 16126, Note_off_c, 8, 50, 0
6, 16128, Note_on_c, 8, 48, 100
6, 16128, Note_on_c, 8, 52, 100
6, 16158, Note_off_c, 8, 52, 0
6, 16158, Note_off_c, 8, 48, 0
6, 16192, Note_on_c, 8, 52, 100
6, 16192, Note_on_c, 8, 55, 100
6, 16222, Note_off_c, 8, 55, 0
6, 16222, Note_off_c, 8, 52, 0
6, 16256, Note_on_c, 8, 60, 100
6, 16256, Note_on_c, 8, 64, 100
6, 16638, Note_off_c, 8, 64, 0
6, 16638, Note_off_c, 8, 60, 0
6, 16704, Note_on_c, 8, 48, 100
6, 16704, Note_on_c, 8, 52, 100
6, 16798, Note_off_c, 8, 52, 0
6, 16798, Note_off_c, 8, 48, 0
6, 16848, Note_on_c, 8, 52, 100
6, 16848, Note_on_c, 8, 55, 100
6, 16894, Note_off_c, 8, 55, 0
6, 16894, Note_off_c, 8, 52, 0
6, 16896, Note_on_c, 8, 50, 100
6, 16896, Note_on_c, 8, 53, 100
6, 17422, Note_off_c, 8, 53, 0
6, 17422, Note_off_c, 8, 50, 0
6, 17472, Note_on_c, 8, 46, 100
6, 17472, Note_on_c, 8, 50, 100
6, 17566, Note_off_c, 8, 50, 0
6, 17566, Note_off_c, 8, 46, 0
6, 17616, Note_on_c, 8, 50, 100
6, 17616, Note_on_c, 8, 53, 100
6, 17662, Note_off_c, 8, 53, 0
6, 17662, Note_off_c, 8, 50, 0
6, 17664, Note_on_c, 8, 48, 100
6, 17664, Note_on_c, 8, 52, 100
6, 17694, Note_off_c, 8, 52, 0
6, 17694, Note_off_c, 8, 48, 0
6, 17728, Note_on_c, 8, 52, 100
6, 17728, Note_on_c, 8, 55, 100
6, 17758, Note_off_c, 8, 55, 0
6, 17758, Note_off_c, 8, 52, 0
6, 17792, Note_on_c, 8, 60, 100
6, 17792, Note_on_c, 8, 64, 100
6, 18174, Note_off_c, 8, 64, 0
6, 18174, Note_off_c, 8, 60, 0
6, 18240, Note_on_c, 8, 59, 100
6, 18240, Note_on_c, 8, 62, 100
6, 18334, Note_off_c, 8, 62, 0
6, 18334, Note_off_c, 8, 59, 0
6, 18384, Note_on_c, 8, 60, 100
6, 18384, Note_on_c, 8, 64, 100
6, 18430, Note_off_c, 8, 64, 0
6, 18430, Note_off_c, 8, 60, 0
6, 18432, Note_on_c, 8, 62, 100
6, 18432, Note_on_c, 8, 65, 100
6, 18958, Note_off_c, 8, 65, 0
6, 18958, Note_off_c, 8, 62, 0
6, 19008, Note_on_c, 8, 58, 100
6, 19008, Note_on_c, 8, 62, 100
6, 19102, Note_off_c, 8, 62, 0
6, 19102, Note_off_c, 8, 58, 0
6, 19152, Note_on_c, 8, 62, 100
6, 19152, Note_on_c, 8, 65, 100
6, 19198, Note_off_c, 8, 65, 0
6, 19198, Note_off_c, 8, 62, 0
6, 19200, Note_on_c, 8, 60, 100
6, 19200, Note_on_c, 8, 63, 100
6, 19230, Note_off_c, 8, 63, 0
6, 19230, Note_off_c, 8, 60, 0
6, 19264, Note_on_c, 8, 58, 100
6, 19264, Note_on_c, 8, 62, 100
6, 19294, Note_off_c, 8, 62, 0
6, 19294, Note_off_c, 8, 58, 0
6, 19328, Note_on_c, 8, 56, 100
6, 19328, Note_on_c, 8, 60, 100
6, 19710, Note_off_c, 8, 60, 0
6, 19710, Note_off_c, 8, 56, 0
6, 19776, Note_on_c, 8, 56, 100
6, 19776, Note_on_c, 8, 60, 100
6, 19870, Note_off_c, 8, 60, 0
6, 19870, Note_off_c, 8, 56, 0
6, 19920, Note_on_c, 8, 60, 100
6, 19920, Note_on_c, 8, 63, 100
6, 19966, Note_off_c, 8, 63, 0
6, 19966, Note_off_c, 8, 60, 0
6, 19968, Note_on_c, 8, 59, 100
6, 19968, Note_on_c, 8, 55, 100
6, 19968, Note_on_c, 8, 62, 100
6, 20014, Note_off_c, 8, 62, 0
6, 20014, Note_off_c, 8, 55, 0
6, 20014, Note_off_c, 8, 59, 0
6, 20064, Note_on_c, 8, 55, 100
6, 20110, Note_off_c, 8, 55, 0
6, 20112, Note_on_c, 8, 54, 100
6, 20158, Note_off_c, 8, 54, 0
6, 20160, Note_on_c, 8, 55, 100
6, 20206, Note_off_c, 8, 55, 0
6, 20256, Note_on_c, 8, 62, 100
6, 20256, Note_on_c, 8, 59, 100
6, 20256, Note_on_c, 8, 55, 100
6, 20302, Note_off_c, 8, 55, 0
6, 20302, Note_off_c, 8, 59, 0
6, 20302, Note_off_c, 8, 62, 0
6, 20352, Note_on_c, 8, 55, 100
6, 20398, Note_off_c, 8, 55, 0
6, 20400, Note_on_c, 8, 54, 100
6, 20446, Note_off_c, 8, 54, 0
6, 20448, Note_on_c, 8, 55, 100
6, 20494, Note_off_c, 8, 55, 0
6, 20544, Note_on_c, 8, 59, 100
6, 20544, Note_on_c, 8, 55, 100
6, 20544, Note_on_c, 8, 62, 100
6, 20590, Note_off_c, 8, 62, 0
6, 20590, Note_off_c, 8, 55, 0
6, 20590, Note_off_c, 8, 59, 0
6, 20640, Note_on_c, 8, 60, 100
6, 20686, Note_off_c, 8, 60, 0
6, 20688, Note_on_c, 8, 59, 100
6, 20734, Note_off_c, 8, 59, 0
6, 20736, Note_on_c, 8, 53, 100
6, 20736, Note_on_c, 8, 57, 100
6, 20736, Note_on_c, 8, 60, 100
6, 21262, Note_off_c, 8, 60, 0
6, 21262, Note_off_c, 8, 57, 0
6, 21262, Note_off_c, 8, 53, 0
6, 21312, Note_on_c, 8, 52, 100
6, 21406, Note_off_c, 8, 52, 0
6, 21456, Note_on_c, 8, 55, 100
6, 21502, Note_off_c, 8, 55, 0
6, 21504, Note_on_c, 8, 53, 100
6, 22030, Note_off_c, 8, 53, 0
6, 22080, Note_on_c, 8, 50, 100
6, 22174, Note_off_c, 8, 50, 0
6, 22224, Note_on_c, 8, 53, 100
6, 22270, Note_off_c, 8, 53, 0
6, 22272, Note_on_c, 8, 52, 100
6, 22302, Note_off_c, 8, 52, 0
6, 22336, Note_on_c, 8, 55, 100
6, 22366, Note_off_c, 8, 55, 0
6, 22400, Note_on_c, 8, 64, 100
6, 22782, Note_off_c, 8, 64, 0
6, 22848, Note_on_c, 8, 52, 100
6, 22942, Note_off_c, 8, 52, 0
6, 22992, Note_on_c, 8, 55, 100
6, 23038, Note_off_c, 8, 55, 0
6, 23040, Note_on_c, 8, 53, 100
6, 23566, Note_off_c, 8, 53, 0
6, 23616, Note_on_c, 8, 50, 100
6, 23710, Note_off_c, 8, 50, 0
6, 23760, Note_on_c, 8, 53, 100
6, 23806, Note_off_c, 8, 53, 0
6, 23808, Note_on_c, 8, 51, 100
6, 23838, Note_off_c, 8, 51, 0
6, 23872, Note_on_c, 8, 50, 100
6, 23902, Note_off_c, 8, 50, 0
6, 23936, Note_on_c, 8, 48, 100
6, 24318, Note_off_c, 8, 48, 0
6, 24384, Note_on_c, 8, 52, 100
6, 24478, Note_off_c, 8, 52, 0
6, 24528, Note_on_c, 8, 55, 100
6, 24574, Note_off_c, 8, 55, 0
6, 24576, Note_on_c, 8, 53, 100
6, 25102, Note_off_c, 8, 53, 0
6, 25152, Note_on_c, 8, 50, 100
6, 25246, Note_off_c, 8, 50, 0
6, 25296, Note_on_c, 8, 53, 100
6, 25342, Note_off_c, 8, 53, 0
6, 25344, Note_on_c, 8, 52, 100
6, 25374, Note_off_c, 8, 52, 0
6, 25408, Note_on_c, 8, 55, 100
6, 25438, Note_off_c, 8, 55, 0
6, 25472, Note_on_c, 8, 64, 100
6, 25854, Note_off_c, 8, 64, 0
6, 25920, Note_on_c, 8, 62, 100
6, 26014, Note_off_c, 8, 62, 0
6, 26064, Note_on_c, 8, 64, 100
6, 26110, Note_off_c, 8, 64, 0
6, 26112, Note_on_c, 8, 65, 100
6, 26158, Note_off_c, 8, 65, 0
6, 26208, Note_on_c, 8, 58, 100
6, 26254, Note_off_c, 8, 58, 0
6, 26256, Note_on_c, 8, 57, 100
6, 26302, Note_off_c, 8, 57, 0
6, 26304, Note_on_c, 8, 58, 100
6, 26350, Note_off_c, 8, 58, 0
6, 26400, Note_on_c, 8, 65, 100
6, 26446, Note_off_c, 8, 65, 0
6, 26496, Note_on_c, 8, 58, 100
6, 26542, Note_off_c, 8, 58, 0
6, 26544, Note_on_c, 8, 57, 100
6, 26590, Note_off_c, 8, 57, 0
6, 26592, Note_on_c, 8, 58, 100
6, 26638, Note_off_c, 8, 58, 0
6, 26688, Note_on_c, 8, 65, 100
6, 26734, Note_off_c, 8, 65, 0
6, 26784, Note_on_c, 8, 63, 100
6, 26830, Note_off_c, 8, 63, 0
6, 26832, Note_on_c, 8, 62, 100
6, 26878, Note_off_c, 8, 62, 0
6, 26880, Note_on_c, 8, 63, 100
6, 27478, Note_off_c, 8, 63, 0
6, 27552, Note_on_c, 8, 60, 100
6, 27598, Note_off_c, 8, 60, 0
6, 27600, Note_on_c, 8, 60, 100
6, 27646, Note_off_c, 8, 60, 0
6, 27648, Note_on_c, 8, 65, 100
6, 27694, Note_off_c, 8, 65, 0
6, 27744, Note_on_c, 8, 58, 100
6, 27790, Note_off_c, 8, 58, 0
6, 27792, Note_on_c, 8, 57, 100
6, 27838, Note_off_c, 8, 57, 0
6, 27840, Note_on_c, 8, 58, 100
6, 27886, Note_off_c, 8, 58, 0
6, 27936, Note_on_c, 8, 65, 100
6, 27982, Note_off_c, 8, 65, 0
6, 28032, Note_on_c, 8, 58, 100
6, 28078, Note_off_c, 8, 58, 0
6, 28080, Note_on_c, 8, 57, 100
6, 28126, Note_off_c, 8, 57, 0
6, 28128, Note_on_c, 8, 58, 100
6, 28174, Note_off_c, 8, 58, 0
6, 28224, Note_on_c, 8, 65, 100
6, 28270, Note_off_c, 8, 65, 0
6, 28320, Note_on_c, 8, 63, 100
6, 28366, Note_off_c, 8, 63, 0
6, 28368, Note_on_c, 8, 62, 100
6, 28414, Note_off_c, 8, 62, 0
6, 28416, Note_on_c, 8, 63, 100
6, 29014, Note_off_c, 8, 63, 0
6, 29088, Note_on_c, 8, 60, 100
6, 29134, Note_off_c, 8, 60, 0
6, 29136, Note_on_c, 8, 60, 100
6, 29182, Note_off_c, 8, 60, 0
6, 29184, Note_on_c, 8, 65, 100
6, 29230, Note_off_c, 8, 65, 0
6, 29280, Note_on_c, 8, 58, 100
6, 29326, Note_off_c, 8, 58, 0
6, 29328, Note_on_c, 8, 57, 100
6, 29374, Note_off_c, 8, 57, 0
6, 29376, Note_on_c, 8, 58, 100
6, 29422, Note_off_c, 8, 58, 0
6, 29472, Note_on_c, 8, 65, 100
6, 29518, Note_off_c, 8, 65, 0
6, 29568, Note_on_c, 8, 58, 100
6, 29614, Note_off_c, 8, 58, 0
6, 29616, Note_on_c, 8, 57, 100
6, 29662, Note_off_c, 8, 57, 0
6, 29664, Note_on_c, 8, 58, 100
6, 29710, Note_off_c, 8, 58, 0
6, 29760, Note_on_c, 8, 65, 100
6, 29806, Note_off_c, 8, 65, 0
6, 29856, Note_on_c, 8, 63, 100
6, 29902, Note_off_c, 8, 63, 0
6, 29904, Note_on_c, 8, 62, 100
6, 29950, Note_off_c, 8, 62, 0
6, 29952, Note_on_c, 8, 63, 100
6, 29998, Note_off_c, 8, 63, 0
6, 30048, Note_on_c, 8, 56, 100
6, 30094, Note_off_c, 8, 56, 0
6, 30096, Note_on_c, 8, 55, 100
6, 30142, Note_off_c, 8, 55, 0
6, 30144, Note_on_c, 8, 56, 100
6, 30190, Note_off_c, 8, 56, 0
6, 30240, Note_on_c, 8, 63, 100
6, 30286, Note_off_c, 8, 63, 0
6, 30336, Note_on_c, 8, 56, 100
6, 30382, Note_off_c, 8, 56, 0
6, 30384, Note_on_c, 8, 55, 100
6, 30430, Note_off_c, 8, 55, 0
6, 30432, Note_on_c, 8, 56, 100
6, 30478, Note_off_c, 8, 56, 0
6, 30528, Note_on_c, 8, 63, 100
6, 30574, Note_off_c, 8, 63, 0
6, 30624, Note_on_c, 8, 63, 100
6, 30670, Note_off_c, 8, 63, 0
6, 30672, Note_on_c, 8, 65, 100
6, 30718, Note_off_c, 8, 65, 0
6, 30720, Note_on_c, 8, 67, 100
6, 31966, Note_off_c, 8, 67, 0
6, 32064, Note_on_c, 8, 52, 100
6, 32158, Note_off_c, 8, 52, 0
6, 32208, Note_on_c, 8, 53, 100
6, 32254, Note_off_c, 8, 53, 0
6, 32256, Note_on_c, 8, 55, 100
6, 32302, Note_off_c, 8, 55, 0
6, 32352, Note_on_c, 8, 60, 100
6, 32782, Note_off_c, 8, 60, 0
6, 32832, Note_on_c, 8, 50, 100
6, 32926, Note_off_c, 8, 50, 0
6, 32976, Note_on_c, 8, 52, 100
6, 33022, Note_off_c, 8, 52, 0
6, 33024, Note_on_c, 8, 53, 100
6, 33550, Note_off_c, 8, 53, 0
6, 33600, Note_on_c, 8, 55, 100
6, 33694, Note_off_c, 8, 55, 0
6, 33744, Note_on_c, 8, 57, 100
6, 33790, Note_off_c, 8, 57, 0
6, 33792, Note_on_c, 8, 59, 100
6, 33838, Note_off_c, 8, 59, 0
6, 33888, Note_on_c, 8, 65, 100
6, 34318, Note_off_c, 8, 65, 0
6, 34368, Note_on_c, 8, 57, 100
6, 34462, Note_off_c, 8, 57, 0
6, 34512, Note_on_c, 8, 59, 100
6, 34558, Note_off_c, 8, 59, 0
6, 34560, Note_on_c, 8, 60, 100
6, 34750, Note_off_c, 8, 60, 0
6, 34752, Note_on_c, 8, 62, 100
6, 34942, Note_off_c, 8, 62, 0
6, 34944, Note_on_c, 8, 64, 100
6, 35038, Note_off_c, 8, 64, 0
6, 35136, Note_on_c, 8, 52, 100
6, 35230, Note_off_c, 8, 52, 0
6, 35280, Note_on_c, 8, 53, 100
6, 35326, Note_off_c, 8, 53, 0
6, 35328, Note_on_c, 8, 55, 100
6, 35374, Note_off_c, 8, 55, 0
6, 35424, Note_on_c, 8, 60, 100
6, 35854, Note_off_c, 8, 60, 0
6, 35904, Note_on_c, 8, 62, 100
6, 35998, Note_off_c, 8, 62, 0
6, 36048, Note_on_c, 8, 64, 100
6, 36094, Note_off_c, 8, 64, 0
6, 36096, Note_on_c, 8, 65, 100
6, 36622, Note_off_c, 8, 65, 0
6, 36672, Note_on_c, 8, 55, 100
6, 36672, Note_on_c, 8, 55, 100
6, 36766, Note_off_c, 8, 55, 0
6, 36766, Note_off_c, 8, 55, 0
6, 36816, Note_on_c, 8, 55, 100
6, 36816, Note_on_c, 8, 55, 100
6, 36862, Note_off_c, 8, 55, 0
6, 36862, Note_off_c, 8, 55, 0
6, 36864, Note_on_c, 8, 55, 100
6, 36864, Note_on_c, 8, 64, 100
6, 36864, Note_on_c, 8, 60, 100
6, 37054, Note_off_c, 8, 60, 0
6, 37054, Note_off_c, 8, 64, 0
6, 37054, Note_off_c, 8, 55, 0
6, 37056, Note_on_c, 8, 62, 100
6, 37150, Note_off_c, 8, 62, 0
6, 37200, Note_on_c, 8, 55, 100
6, 37246, Note_off_c, 8, 55, 0
6, 37248, Note_on_c, 8, 55, 100
6, 37248, Note_on_c, 8, 60, 100
6, 37248, Note_on_c, 8, 64, 100
6, 37438, Note_off_c, 8, 64, 0
6, 37438, Note_off_c, 8, 60, 0
6, 37438, Note_off_c, 8, 55, 0
6, 37440, Note_on_c, 8, 62, 100
6, 37534, Note_off_c, 8, 62, 0
6, 37584, Note_on_c, 8, 55, 100
6, 37630, Note_off_c, 8, 55, 0
6, 37632, Note_on_c, 8, 55, 100
6, 37632, Note_on_c, 8, 60, 100
6, 37632, Note_on_c, 8, 64, 100
6, 37822, Note_off_c, 8, 64, 0
6, 37822, Note_off_c, 8, 60, 0
6, 37822, Note_off_c, 8, 55, 0
6, 37824, Note_on_c, 8, 62, 100
6, 37918, Note_off_c, 8, 62, 0
6, 37968, Note_on_c, 8, 55, 100
6, 38014, Note_off_c, 8, 55, 0
6, 38016, Note_on_c, 8, 65, 100
6, 38016, Note_on_c, 8, 55, 100
6, 38016, Note_on_c, 8, 60, 100
6, 38206, Note_off_c, 8, 60, 0
6, 38206, Note_off_c, 8, 55, 0
6, 38206, Note_off_c, 8, 65, 0
6, 38208, Note_on_c, 8, 55, 100
6, 38208, Note_on_c, 8, 60, 100
6, 38208, Note_on_c, 8, 64, 100
6, 38302, Note_off_c, 8, 64, 0
6, 38302, Note_off_c, 8, 60, 0
6, 38302, Note_off_c, 8, 55, 0
6, 38352, Note_on_c, 8, 59, 100
6, 38352, Note_on_c, 8, 62, 100
6, 38352, Note_on_c, 8, 55, 100
6, 38398, Note_off_c, 8, 55, 0
6, 38398, Note_off_c, 8, 62, 0
6, 38398, Note_off_c, 8, 59, 0
6, 38784, Note_on_c, 8, 53, 100
6, 38974, Note_off_c, 8, 53, 0
6, 38976, Note_on_c, 8, 52, 100
6, 39070, Note_off_c, 8, 52, 0
6, 39120, Note_on_c, 8, 50, 100
6, 39166, Note_off_c, 8, 50, 0
6, 39168, Note_on_c, 8, 48, 100
6, 39646, Note_off_c, 8, 48, 0
6, 39936, Note_on_c, 8, 56, 100
6, 39982, Note_off_c, 8, 56, 0
6, 40032, Note_on_c, 8, 61, 100
6, 40438, Note_off_c, 8, 61, 0
6, 40512, Note_on_c, 8, 51, 100
6, 40630, Note_off_c, 8, 51, 0
6, 40656, Note_on_c, 8, 53, 100
6, 40702, Note_off_c, 8, 53, 0
6, 40704, Note_on_c, 8, 54, 100
6, 41206, Note_off_c, 8, 54, 0
6, 41280, Note_on_c, 8, 56, 100
6, 41374, Note_off_c, 8, 56, 0
6, 41424, Note_on_c, 8, 58, 100
6, 41470, Note_off_c, 8, 58, 0
6, 41472, Note_on_c, 8, 60, 100
6, 41518, Note_off_c, 8, 60, 0
6, 41568, Note_on_c, 8, 66, 100
6, 41974, Note_off_c, 8, 66, 0
6, 42048, Note_on_c, 8, 49, 100
6, 42048, Note_on_c, 8, 58, 100
6, 42142, Note_off_c, 8, 58, 0
6, 42142, Note_off_c, 8, 49, 0
6, 42192, Note_on_c, 8, 51, 100
6, 42192, Note_on_c, 8, 60, 100
6, 42238, Note_off_c, 8, 60, 0
6, 42238, Note_off_c, 8, 51, 0
6, 42240, Note_on_c, 8, 53, 100
6, 42240, Note_on_c, 8, 61, 100
6, 42430, Note_off_c, 8, 61, 0
6, 42430, Note_off_c, 8, 53, 0
6, 42432, Note_on_c, 8, 56, 100
6, 42432, Note_on_c, 8, 63, 100
6, 42622, Note_off_c, 8, 63, 0
6, 42622, Note_off_c, 8, 56, 0
6, 42624, Note_on_c, 8, 61, 100
6, 42624, Note_on_c, 8, 65, 100
6, 42718, Note_off_c, 8, 65, 0
6, 42718, Note_off_c, 8, 61, 0
6, 42816, Note_on_c, 8, 49, 100
6, 42816, Note_on_c, 8, 53, 100
6, 42910, Note_off_c, 8, 53, 0
6, 42910, Note_off_c, 8, 49, 0
6, 42960, Note_on_c, 8, 51, 100
6, 42960, Note_on_c, 8, 54, 100
6, 43006, Note_off_c, 8, 54, 0
6, 43006, Note_off_c, 8, 51, 0
6, 43008, Note_on_c, 8, 53, 100
6, 43008, Note_on_c, 8, 56, 100
6, 43054, Note_off_c, 8, 56, 0
6, 43054, Note_off_c, 8, 53, 0
6, 43104, Note_on_c, 8, 56, 100
6, 43104, Note_on_c, 8, 53, 100
6, 43104, Note_on_c, 8, 61, 100
6, 43534, Note_off_c, 8, 61, 0
6, 43534, Note_off_c, 8, 53, 0
6, 43534, Note_off_c, 8, 56, 0
6, 43584, Note_on_c, 8, 56, 100
6, 43584, Note_on_c, 8, 60, 100
6, 43584, Note_on_c, 8, 63, 100
6, 43678, Note_off_c, 8, 63, 0
6, 43678, Note_off_c, 8, 60, 0
6, 43678, Note_off_c, 8, 56, 0
6, 43728, Note_on_c, 8, 61, 100
6, 43728, Note_on_c, 8, 56, 100
6, 43728, Note_on_c, 8, 65, 100
6, 43774, Note_off_c, 8, 65, 0
6, 43774, Note_off_c, 8, 56, 0
6, 43774, Note_off_c, 8, 61, 0
6, 43776, Note_on_c, 8, 62, 100
6, 43776, Note_on_c, 8, 57, 100
6, 43776, Note_on_c, 8, 66, 100
6, 44302, Note_off_c, 8, 66, 0
6, 44302, Note_off_c, 8, 57, 0
6, 44302, Note_off_c, 8, 62, 0
6, 44352, Note_on_c, 8, 56, 100
6, 44446, Note_off_c, 8, 56, 0
6, 44496, Note_on_c, 8, 56, 100
6, 44542, Note_off_c, 8, 56, 0
6, 44544, Note_on_c, 8, 56, 100
6, 44544, Note_on_c, 8, 65, 100
6, 44544, Note_on_c, 8, 61, 100
6, 44734, Note_off_c, 8, 61, 0
6, 44734, Note_off_c, 8, 65, 0
6, 44734, Note_off_c, 8, 56, 0
6, 44736, Note_on_c, 8, 63, 100
6, 44830, Note_off_c, 8, 63, 0
6, 44880, Note_on_c, 8, 56, 100
6, 44926, Note_off_c, 8, 56, 0
6, 44928, Note_on_c, 8, 56, 100
6, 44928, Note_on_c, 8, 61, 100
6, 44928, Note_on_c, 8, 65, 100
6, 45118, Note_off_c, 8, 65, 0
6, 45118, Note_off_c, 8, 61, 0
6, 45118, Note_off_c, 8, 56, 0
6, 45120, Note_on_c, 8, 63, 100
6, 45214, Note_off_c, 8, 63, 0
6, 45264, Note_on_c, 8, 56, 100
6, 45310, Note_off_c, 8, 56, 0
6, 45312, Note_on_c, 8, 56, 100
6, 45312, Note_on_c, 8, 61, 100
6, 45312, Note_on_c, 8, 65, 100
6, 45502, Note_off_c, 8, 65, 0
6, 45502, Note_off_c, 8, 61, 0
6, 45502, Note_off_c, 8, 56, 0
6, 45504, Note_on_c, 8, 63, 100
6, 45598, Note_off_c, 8, 63, 0
6, 45648, Note_on_c, 8, 56, 100
6, 45694, Note_off_c, 8, 56, 0
6, 45696, Note_on_c, 8, 66, 100
6, 45696, Note_on_c, 8, 56, 100
6, 45696, Note_on_c, 8, 61, 100
6, 45886, Note_off_c, 8, 61, 0
6, 45886, Note_off_c, 8, 56, 0
6, 45886, Note_off_c, 8, 66, 0
6, 45888, Note_on_c, 8, 56, 100
6, 45888, Note_on_c, 8, 61, 100
6, 45888, Note_on_c, 8, 65, 100
6, 45982, Note_off_c, 8, 65, 0
6, 45982, Note_off_c, 8, 61, 0
6, 45982, Note_off_c, 8, 56, 0
6, 46032, Note_on_c, 8, 60, 100
6, 46032, Note_on_c, 8, 63, 100
6, 46032, Note_on_c, 8, 56, 100
6, 46078, Note_off_c, 8, 56, 0
6, 46078, Note_off_c, 8, 63, 0
6, 46078, Note_off_c, 8, 60, 0
6, 46464, Note_on_c, 8, 54, 100
6, 46654, Note_off_c, 8, 54, 0
6, 46656, Note_on_c, 8, 53, 100
6, 46750, Note_off_c, 8, 53, 0
6, 46800, Note_on_c, 8, 51, 100
6, 46846, Note_off_c, 8, 51, 0
6, 46848, Note_on_c, 8, 49, 100
6, 47326, Note_off_c, 8, 49, 0
6, 48864, Note_on_c, 8, 68, 100
6, 48958, Note_off_c, 8, 68, 0
6, 50400, Note_on_c, 8, 68, 100
6, 50494, Note_off_c, 8, 68, 0
6, 50494, End_track
7, 0, Start_track
7, 0, Title_t, "pizzicato strings"
7, 0, Channel_prefix, 10
7, 0, Control_c, 10, 7, 110
7, 0, Program_c, 10, 45
7, 0, Control_c, 10, 0, 0
7, 0, Control_c, 10, 32, 0
7, 0, Control_c, 10, 91, 111
7, 0, Control_c, 10, 93, 29
7, 15360, Note_on_c, 10, 36, 100
7, 15360, Note_on_c, 10, 48, 100
7, 15430, Note_off_c, 10, 48, 0
7, 15430, Note_off_c, 10, 36, 0
7, 15552, Note_on_c, 10, 36, 100
7, 15552, Note_on_c, 10, 48, 100
7, 15622, Note_off_c, 10, 48, 0
7, 15622, Note_off_c, 10, 36, 0
7, 15744, Note_on_c, 10, 36, 100
7, 15744, Note_on_c, 10, 48, 100
7, 15814, Note_off_c, 10, 48, 0
7, 15814, Note_off_c, 10, 36, 0
7, 15936, Note_on_c, 10, 36, 100
7, 15936, Note_on_c, 10, 48, 100
7, 16006, Note_off_c, 10, 48, 0
7, 16006, Note_off_c, 10, 36, 0
7, 16128, Note_on_c, 10, 36, 100
7, 16128, Note_on_c, 10, 48, 100
7, 16198, Note_off_c, 10, 48, 0
7, 16198, Note_off_c, 10, 36, 0
7, 16320, Note_on_c, 10, 36, 100
7, 16320, Note_on_c, 10, 48, 100
7, 16390, Note_off_c, 10, 48, 0
7, 16390, Note_off_c, 10, 36, 0
7, 16512, Note_on_c, 10, 36, 100
7, 16512, Note_on_c, 10, 48, 100
7, 16582, Note_off_c, 10, 48, 0
7, 16582, Note_off_c, 10, 36, 0
7, 16704, Note_on_c, 10, 36, 100
7, 16704, Note_on_c, 10, 48, 100
7, 16774, Note_off_c, 10, 48, 0
7, 16774, Note_off_c, 10, 36, 0
7, 16896, Note_on_c, 10, 36, 100
7, 16896, Note_on_c, 10, 48, 100
7, 16966, Note_off_c, 10, 48, 0
7, 16966, Note_off_c, 10, 36, 0
7, 17088, Note_on_c, 10, 36, 100
7, 17088, Note_on_c, 10, 48, 100
7, 17158, Note_off_c, 10, 48, 0
7, 17158, Note_off_c, 10, 36, 0
7, 17280, Note_on_c, 10, 36, 100
7, 17280, Note_on_c, 10, 48, 100
7, 17350, Note_off_c, 10, 48, 0
7, 17350, Note_off_c, 10, 36, 0
7, 17472, Note_on_c, 10, 36, 100
7, 17472, Note_on_c, 10, 48, 100
7, 17542, Note_off_c, 10, 48, 0
7, 17542, Note_off_c, 10, 36, 0
7, 17664, Note_on_c, 10, 36, 100
7, 17664, Note_on_c, 10, 48, 100
7, 17734, Note_off_c, 10, 48, 0
7, 17734, Note_off_c, 10, 36, 0
7, 17856, Note_on_c, 10, 36, 100
7, 17856, Note_on_c, 10, 48, 100
7, 17926, Note_off_c, 10, 48, 0
7, 17926, Note_off_c, 10, 36, 0
7, 18048, Note_on_c, 10, 36, 100
7, 18048, Note_on_c, 10, 48, 100
7, 18118, Note_off_c, 10, 48, 0
7, 18118, Note_off_c, 10, 36, 0
7, 18240, Note_on_c, 10, 36, 100
7, 18240, Note_on_c, 10, 48, 100
7, 18310, Note_off_c, 10, 48, 0
7, 18310, Note_off_c, 10, 36, 0
7, 18432, Note_on_c, 10, 36, 100
7, 18432, Note_on_c, 10, 48, 100
7, 18502, Note_off_c, 10, 48, 0
7, 18502, Note_off_c, 10, 36, 0
7, 18624, Note_on_c, 10, 36, 100
7, 18624, Note_on_c, 10, 48, 100
7, 18694, Note_off_c, 10, 48, 0
7, 18694, Note_off_c, 10, 36, 0
7, 18816, Note_on_c, 10, 36, 100
7, 18816, Note_on_c, 10, 48, 100
7, 18886, Note_off_c, 10, 48, 0
7, 18886, Note_off_c, 10, 36, 0
7, 19008, Note_on_c, 10, 36, 100
7, 19008, Note_on_c, 10, 48, 100
7, 19078, Note_off_c, 10, 48, 0
7, 19078, Note_off_c, 10, 36, 0
7, 19200, Note_on_c, 10, 36, 100
7, 19200, Note_on_c, 10, 48, 100
7, 19270, Note_off_c, 10, 48, 0
7, 19270, Note_off_c, 10, 36, 0
7, 19392, Note_on_c, 10, 36, 100
7, 19392, Note_on_c, 10, 48, 100
7, 19462, Note_off_c, 10, 48, 0
7, 19462, Note_off_c, 10, 36, 0
7, 19584, Note_on_c, 10, 36, 100
7, 19584, Note_on_c, 10, 48, 100
7, 19654, Note_off_c, 10, 48, 0
7, 19654, Note_off_c, 10, 36, 0
7, 19776, Note_on_c, 10, 36, 100
7, 19776, Note_on_c, 10, 48, 100
7, 19846, Note_off_c, 10, 48, 0
7, 19846, Note_off_c, 10, 36, 0
7, 19968, Note_on_c, 10, 36, 100
7, 19968, Note_on_c, 10, 48, 100
7, 20038, Note_off_c, 10, 48, 0
7, 20038, Note_off_c, 10, 36, 0
7, 20160, Note_on_c, 10, 36, 100
7, 20160, Note_on_c, 10, 48, 100
7, 20230, Note_off_c, 10, 48, 0
7, 20230, Note_off_c, 10, 36, 0
7, 20352, Note_on_c, 10, 36, 100
7, 20352, Note_on_c, 10, 48, 100
7, 20422, Note_off_c, 10, 48, 0
7, 20422, Note_off_c, 10, 36, 0
7, 20544, Note_on_c, 10, 36, 100
7, 20544, Note_on_c, 10, 48, 100
7, 20614, Note_off_c, 10, 48, 0
7, 20614, Note_off_c, 10, 36, 0
7, 20736, Note_on_c, 10, 36, 100
7, 20736, Note_on_c, 10, 48, 100
7, 20736, Note_on_c, 10, 29, 100
7, 20806, Note_off_c, 10, 29, 0
7, 20806, Note_off_c, 10, 48, 0
7, 20806, Note_off_c, 10, 36, 0
7, 20928, Note_on_c, 10, 36, 100
7, 20928, Note_on_c, 10, 48, 100
7, 20928, Note_on_c, 10, 29, 100
7, 20998, Note_off_c, 10, 29, 0
7, 20998, Note_off_c, 10, 48, 0
7, 20998, Note_off_c, 10, 36, 0
7, 21120, Note_on_c, 10, 36, 100
7, 21120, Note_on_c, 10, 48, 100
7, 21120, Note_on_c, 10, 29, 100
7, 21190, Note_off_c, 10, 29, 0
7, 21190, Note_off_c, 10, 48, 0
7, 21190, Note_off_c, 10, 36, 0
7, 21312, Note_on_c, 10, 36, 100
7, 21312, Note_on_c, 10, 48, 100
7, 21312, Note_on_c, 10, 29, 100
7, 21382, Note_off_c, 10, 29, 0
7, 21382, Note_off_c, 10, 48, 0
7, 21382, Note_off_c, 10, 36, 0
7, 21382, End_track
8, 0, Start_track
8, 0, Title_t, "flute"
8, 0, Channel_prefix, 11
8, 0, Control_c, 11, 7, 120
8, 0, Program_c, 11, 73
8, 0, Control_c, 11, 0, 0
8, 0, Control_c, 11, 32, 0
8, 0, Control_c, 11, 91, 105
8, 0, Control_c, 11, 93, 21
8, 27072, Note_on_c, 11, 75, 100
8, 27118, Note_off_c, 11, 75, 0
8, 27120, Note_on_c, 11, 77, 100
8, 27166, Note_off_c, 11, 77, 0
8, 27168, Note_on_c, 11, 79, 100
8, 27214, Note_off_c, 11, 79, 0
8, 27216, Note_on_c, 11, 80, 100
8, 27262, Note_off_c, 11, 80, 0
8, 27264, Note_on_c, 11, 82, 100
8, 27294, Note_off_c, 11, 82, 0
8, 27296, Note_on_c, 11, 81, 100
8, 27326, Note_off_c, 11, 81, 0
8, 27328, Note_on_c, 11, 82, 100
8, 27358, Note_off_c, 11, 82, 0
8, 27360, Note_on_c, 11, 84, 100
8, 27390, Note_off_c, 11, 84, 0
8, 27392, Note_on_c, 11, 86, 100
8, 27422, Note_off_c, 11, 86, 0
8, 27424, Note_on_c, 11, 87, 100
8, 27454, Note_off_c, 11, 87, 0
8, 27456, Note_on_c, 11, 89, 100
8, 27550, Note_off_c, 11, 89, 0
8, 28608, Note_on_c, 11, 75, 100
8, 28654, Note_off_c, 11, 75, 0
8, 28656, Note_on_c, 11, 77, 100
8, 28702, Note_off_c, 11, 77, 0
8, 28704, Note_on_c, 11, 79, 100
8, 28750, Note_off_c, 11, 79, 0
8, 28752, Note_on_c, 11, 80, 100
8, 28798, Note_off_c, 11, 80, 0
8, 28800, Note_on_c, 11, 82, 100
8, 28830, Note_off_c, 11, 82, 0
8, 28832, Note_on_c, 11, 81, 100
8, 28862, Note_off_c, 11, 81, 0
8, 28864, Note_on_c, 11, 82, 100
8, 28894, Note_off_c, 11, 82, 0
8, 28896, Note_on_c, 11, 84, 100
8, 28926, Note_off_c, 11, 84, 0
8, 28928, Note_on_c, 11, 86, 100
8, 28958, Note_off_c, 11, 86, 0
8, 28960, Note_on_c, 11, 87, 100
8, 28990, Note_off_c, 11, 87, 0
8, 28992, Note_on_c, 11, 89, 100
8, 29086, Note_off_c, 11, 89, 0
8, 30912, Note_on_c, 11, 72, 100
8, 30958, Note_off_c, 11, 72, 0
8, 30960, Note_on_c, 11, 71, 100
8, 31006, Note_off_c, 11, 71, 0
8, 31008, Note_on_c, 11, 72, 100
8, 31054, Note_off_c, 11, 72, 0
8, 31056, Note_on_c, 11, 74, 100
8, 31102, Note_off_c, 11, 74, 0
8, 31104, Note_on_c, 11, 76, 100
8, 31150, Note_off_c, 11, 76, 0
8, 31152, Note_on_c, 11, 74, 100
8, 31198, Note_off_c, 11, 74, 0
8, 31200, Note_on_c, 11, 76, 100
8, 31246, Note_off_c, 11, 76, 0
8, 31248, Note_on_c, 11, 77, 100
8, 31294, Note_off_c, 11, 77, 0
8, 31296, Note_on_c, 11, 79, 100
8, 31342, Note_off_c, 11, 79, 0
8, 31344, Note_on_c, 11, 77, 100
8, 31390, Note_off_c, 11, 77, 0
8, 31392, Note_on_c, 11, 79, 100
8, 31438, Note_off_c, 11, 79, 0
8, 31440, Note_on_c, 11, 81, 100
8, 31486, Note_off_c, 11, 81, 0
8, 31488, Note_on_c, 11, 83, 100
8, 31534, Note_off_c, 11, 83, 0
8, 31536, Note_on_c, 11, 81, 100
8, 31582, Note_off_c, 11, 81, 0
8, 31584, Note_on_c, 11, 83, 100
8, 31630, Note_off_c, 11, 83, 0
8, 31632, Note_on_c, 11, 84, 100
8, 31678, Note_off_c, 11, 84, 0
8, 31680, Note_on_c, 11, 86, 100
8, 31710, Note_off_c, 11, 86, 0
8, 31712, Note_on_c, 11, 84, 100
8, 31742, Note_off_c, 11, 84, 0
8, 31744, Note_on_c, 11, 86, 100
8, 31774, Note_off_c, 11, 86, 0
8, 31776, Note_on_c, 11, 88, 100
8, 31806, Note_off_c, 11, 88, 0
8, 31808, Note_on_c, 11, 86, 100
8, 31838, Note_off_c, 11, 86, 0
8, 31840, Note_on_c, 11, 89, 100
8, 31870, Note_off_c, 11, 89, 0
8, 31872, Note_on_c, 11, 91, 100
8, 31966, Note_off_c, 11, 91, 0
8, 36864, Note_on_c, 11, 88, 100
8, 37054, Note_off_c, 11, 88, 0
8, 37056, Note_on_c, 11, 86, 100
8, 37150, Note_off_c, 11, 86, 0
8, 37248, Note_on_c, 11, 88, 100
8, 37438, Note_off_c, 11, 88, 0
8, 37440, Note_on_c, 11, 86, 100
8, 37534, Note_off_c, 11, 86, 0
8, 37632, Note_on_c, 11, 88, 100
8, 37822, Note_off_c, 11, 88, 0
8, 37824, Note_on_c, 11, 86, 100
8, 37918, Note_off_c, 11, 86, 0
8, 38016, Note_on_c, 11, 89, 100
8, 38206, Note_off_c, 11, 89, 0
8, 38208, Note_on_c, 11, 88, 100
8, 38302, Note_off_c, 11, 88, 0
8, 38352, Note_on_c, 11, 86, 100
8, 38398, Note_off_c, 11, 86, 0
8, 38400, Note_on_c, 11, 89, 100
8, 38590, Note_off_c, 11, 89, 0
8, 38592, Note_on_c, 11, 88, 100
8, 38686, Note_off_c, 11, 88, 0
8, 38736, Note_on_c, 11, 86, 100
8, 38782, Note_off_c, 11, 86, 0
8, 38784, Note_on_c, 11, 84, 100
8, 39646, Note_off_c, 11, 84, 0
8, 44544, Note_on_c, 11, 89, 100
8, 44734, Note_off_c, 11, 89, 0
8, 44736, Note_on_c, 11, 87, 100
8, 44830, Note_off_c, 11, 87, 0
8, 44928, Note_on_c, 11, 89, 100
8, 45118, Note_off_c, 11, 89, 0
8, 45120, Note_on_c, 11, 87, 100
8, 45214, Note_off_c, 11, 87, 0
8, 45312, Note_on_c, 11, 89, 100
8, 45502, Note_off_c, 11, 89, 0
8, 45504, Note_on_c, 11, 87, 100
8, 45598, Note_off_c, 11, 87, 0
8, 45696, Note_on_c, 11, 90, 100
8, 45886, Note_off_c, 11, 90, 0
8, 45888, Note_on_c, 11, 89, 100
8, 45982, Note_off_c, 11, 89, 0
8, 46032, Note_on_c, 11, 87, 100
8, 46078, Note_off_c, 11, 87, 0
8, 46080, Note_on_c, 11, 90, 100
8, 46270, Note_off_c, 11, 90, 0
8, 46272, Note_on_c, 11, 89, 100
8, 46366, Note_off_c, 11, 89, 0
8, 46416, Note_on_c, 11, 87, 100
8, 46462, Note_off_c, 11, 87, 0
8, 46464, Note_on_c, 11, 85, 100
8, 47326, Note_off_c, 11, 85, 0
8, 47326, End_track
9, 0, Start_track
9, 0, Title_t, "main trumpet"
9, 0, Channel_prefix, 12
9, 0, Control_c, 12, 7, 127
9, 0, Control_c, 12, 10, 84
9, 0, Program_c, 12, 56
9, 0, Control_c, 12, 0, 0
9, 0, Control_c, 12, 32, 0
9, 0, Control_c, 12, 91, 127
9, 0, Control_c, 12, 93, 31
9, 2880, Note_on_c, 12, 64, 100
9, 2974, Note_off_c, 12, 64, 0
9, 3024, Note_on_c, 12, 65, 100
9, 3070, Note_off_c, 12, 65, 0
9, 3072, Note_on_c, 12, 67, 100
9, 3118, Note_off_c, 12, 67, 0
9, 3168, Note_on_c, 12, 72, 100
9, 3598, Note_off_c, 12, 72, 0
9, 3648, Note_on_c, 12, 62, 100
9, 3742, Note_off_c, 12, 62, 0
9, 3792, Note_on_c, 12, 64, 100
9, 3838, Note_off_c, 12, 64, 0
9, 3840, Note_on_c, 12, 65, 100
9, 4366, Note_off_c, 12, 65, 0
9, 4416, Note_on_c, 12, 67, 100
9, 4510, Note_off_c, 12, 67, 0
9, 4560, Note_on_c, 12, 69, 100
9, 4606, Note_off_c, 12, 69, 0
9, 4608, Note_on_c, 12, 71, 100
9, 4654, Note_off_c, 12, 71, 0
9, 4704, Note_on_c, 12, 77, 100
9, 5134, Note_off_c, 12, 77, 0
9, 5184, Note_on_c, 12, 69, 100
9, 5278, Note_off_c, 12, 69, 0
9, 5328, Note_on_c, 12, 71, 100
9, 5374, Note_off_c, 12, 71, 0
9, 5376, Note_on_c, 12, 72, 100
9, 5566, Note_off_c, 12, 72, 0
9, 5568, Note_on_c, 12, 74, 100
9, 5758, Note_off_c, 12, 74, 0
9, 5760, Note_on_c, 12, 76, 100
9, 5854, Note_off_c, 12, 76, 0
9, 5952, Note_on_c, 12, 64, 100
9, 6046, Note_off_c, 12, 64, 0
9, 6096, Note_on_c, 12, 65, 100
9, 6142, Note_off_c, 12, 65, 0
9, 6144, Note_on_c, 12, 67, 100
9, 6190, Note_off_c, 12, 67, 0
9, 6240, Note_on_c, 12, 72, 100
9, 6670, Note_off_c, 12, 72, 0
9, 6720, Note_on_c, 12, 74, 100
9, 6814, Note_off_c, 12, 74, 0
9, 6864, Note_on_c, 12, 76, 100
9, 6910, Note_off_c, 12, 76, 0
9, 6912, Note_on_c, 12, 77, 100
9, 7438, Note_off_c, 12, 77, 0
9, 7488, Note_on_c, 12, 67, 100
9, 7582, Note_off_c, 12, 67, 0
9, 7632, Note_on_c, 12, 67, 100
9, 7678, Note_off_c, 12, 67, 0
9, 7680, Note_on_c, 12, 67, 100
9, 7680, Note_on_c, 12, 72, 100
9, 7680, Note_on_c, 12, 65, 100
9, 7680, Note_on_c, 12, 76, 100
9, 7870, Note_off_c, 12, 76, 0
9, 7870, Note_off_c, 12, 65, 0
9, 7870, Note_off_c, 12, 72, 0
9, 7870, Note_off_c, 12, 67, 0
9, 7872, Note_on_c, 12, 74, 100
9, 7966, Note_off_c, 12, 74, 0
9, 8016, Note_on_c, 12, 67, 100
9, 8062, Note_off_c, 12, 67, 0
9, 8064, Note_on_c, 12, 67, 100
9, 8064, Note_on_c, 12, 72, 100
9, 8064, Note_on_c, 12, 65, 100
9, 8064, Note_on_c, 12, 76, 100
9, 8254, Note_off_c, 12, 76, 0
9, 8254, Note_off_c, 12, 65, 0
9, 8254, Note_off_c, 12, 72, 0
9, 8254, Note_off_c, 12, 67, 0
9, 8256, Note_on_c, 12, 74, 100
9, 8350, Note_off_c, 12, 74, 0
9, 8400, Note_on_c, 12, 67, 100
9, 8446, Note_off_c, 12, 67, 0
9, 8448, Note_on_c, 12, 67, 100
9, 8448, Note_on_c, 12, 72, 100
9, 8448, Note_on_c, 12, 65, 100
9, 8448, Note_on_c, 12, 76, 100
9, 8638, Note_off_c, 12, 76, 0
9, 8638, Note_off_c, 12, 65, 0
9, 8638, Note_off_c, 12, 72, 0
9, 8638, Note_off_c, 12, 67, 0
9, 8640, Note_on_c, 12, 74, 100
9, 8734, Note_off_c, 12, 74, 0
9, 8784, Note_on_c, 12, 67, 100
9, 8830, Note_off_c, 12, 67, 0
9, 8832, Note_on_c, 12, 67, 100
9, 8832, Note_on_c, 12, 65, 100
9, 8832, Note_on_c, 12, 72, 100
9, 8832, Note_on_c, 12, 76, 100
9, 8926, Note_off_c, 12, 76, 0
9, 8926, Note_off_c, 12, 72, 0
9, 8926, Note_off_c, 12, 65, 0
9, 8926, Note_off_c, 12, 67, 0
9, 8928, Note_on_c, 12, 74, 100
9, 8974, Note_off_c, 12, 74, 0
9, 9024, Note_on_c, 12, 64, 100
9, 9118, Note_off_c, 12, 64, 0
9, 9168, Note_on_c, 12, 65, 100
9, 9214, Note_off_c, 12, 65, 0
9, 9216, Note_on_c, 12, 67, 100
9, 9262, Note_off_c, 12, 67, 0
9, 9312, Note_on_c, 12, 72, 100
9, 9742, Note_off_c, 12, 72, 0
9, 9792, Note_on_c, 12, 62, 100
9, 9886, Note_off_c, 12, 62, 0
9, 9936, Note_on_c, 12, 64, 100
9, 9982, Note_off_c, 12, 64, 0
9, 9984, Note_on_c, 12, 65, 100
9, 10510, Note_off_c, 12, 65, 0
9, 10560, Note_on_c, 12, 67, 100
9, 10654, Note_off_c, 12, 67, 0
9, 10704, Note_on_c, 12, 69, 100
9, 10750, Note_off_c, 12, 69, 0
9, 10752, Note_on_c, 12, 71, 100
9, 10798, Note_off_c, 12, 71, 0
9, 10848, Note_on_c, 12, 77, 100
9, 11278, Note_off_c, 12, 77, 0
9, 11328, Note_on_c, 12, 69, 100
9, 11422, Note_off_c, 12, 69, 0
9, 11472, Note_on_c, 12, 71, 100
9, 11518, Note_off_c, 12, 71, 0
9, 11520, Note_on_c, 12, 72, 100
9, 11710, Note_off_c, 12, 72, 0
9, 11712, Note_on_c, 12, 74, 100
9, 11902, Note_off_c, 12, 74, 0
9, 11904, Note_on_c, 12, 76, 100
9, 11998, Note_off_c, 12, 76, 0
9, 12096, Note_on_c, 12, 64, 100
9, 12190, Note_off_c, 12, 64, 0
9, 12240, Note_on_c, 12, 65, 100
9, 12286, Note_off_c, 12, 65, 0
9, 12288, Note_on_c, 12, 67, 100
9, 12334, Note_off_c, 12, 67, 0
9, 12384, Note_on_c, 12, 72, 100
9, 12814, Note_off_c, 12, 72, 0
9, 12864, Note_on_c, 12, 74, 100
9, 12958, Note_off_c, 12, 74, 0
9, 13008, Note_on_c, 12, 76, 100
9, 13054, Note_off_c, 12, 76, 0
9, 13056, Note_on_c, 12, 77, 100
9, 13582, Note_off_c, 12, 77, 0
9, 13632, Note_on_c, 12, 67, 100
9, 13726, Note_off_c, 12, 67, 0
9, 13776, Note_on_c, 12, 67, 100
9, 13822, Note_off_c, 12, 67, 0
9, 13824, Note_on_c, 12, 67, 100
9, 13824, Note_on_c, 12, 72, 100
9, 13824, Note_on_c, 12, 65, 100
9, 13824, Note_on_c, 12, 76, 100
9, 14014, Note_off_c, 12, 76, 0
9, 14014, Note_off_c, 12, 65, 0
9, 14014, Note_off_c, 12, 72, 0
9, 14014, Note_off_c, 12, 67, 0
9, 14016, Note_on_c, 12, 74, 100
9, 14110, Note_off_c, 12, 74, 0
9, 14160, Note_on_c, 12, 67, 100
9, 14206, Note_off_c, 12, 67, 0
9, 14208, Note_on_c, 12, 67, 100
9, 14208, Note_on_c, 12, 72, 100
9, 14208, Note_on_c, 12, 65, 100
9, 14208, Note_on_c, 12, 76, 100
9, 14398, Note_off_c, 12, 76, 0
9, 14398, Note_off_c, 12, 65, 0
9, 14398, Note_off_c, 12, 72, 0
9, 14398, Note_off_c, 12, 67, 0
9, 14400, Note_on_c, 12, 74, 100
9, 14494, Note_off_c, 12, 74, 0
9, 14544, Note_on_c, 12, 67, 100
9, 14590, Note_off_c, 12, 67, 0
9, 14592, Note_on_c, 12, 67, 100
9, 14592, Note_on_c, 12, 72, 100
9, 14592, Note_on_c, 12, 65, 100
9, 14592, Note_on_c, 12, 76, 100
9, 14782, Note_off_c, 12, 76, 0
9, 14782, Note_off_c, 12, 65, 0
9, 14782, Note_off_c, 12, 72, 0
9, 14782, Note_off_c, 12, 67, 0
9, 14784, Note_on_c, 12, 74, 100
9, 14878, Note_off_c, 12, 74, 0
9, 14928, Note_on_c, 12, 67, 100
9, 14974, Note_off_c, 12, 67, 0
9, 14976, Note_on_c, 12, 67, 100
9, 14976, Note_on_c, 12, 65, 100
9, 14976, Note_on_c, 12, 72, 100
9, 14976, Note_on_c, 12, 76, 100
9, 15070, Note_off_c, 12, 76, 0
9, 15070, Note_off_c, 12, 72, 0
9, 15070, Note_off_c, 12, 65, 0
9, 15070, Note_off_c, 12, 67, 0
9, 15072, Note_on_c, 12, 74, 100
9, 15118, Note_off_c, 12, 74, 0
9, 21312, Note_on_c, 12, 64, 100
9, 21406, Note_off_c, 12, 64, 0
9, 21456, Note_on_c, 12, 67, 100
9, 21502, Note_off_c, 12, 67, 0
9, 21504, Note_on_c, 12, 65, 100
9, 22030, Note_off_c, 12, 65, 0
9, 22080, Note_on_c, 12, 62, 100
9, 22174, Note_off_c, 12, 62, 0
9, 22224, Note_on_c, 12, 65, 100
9, 22270, Note_off_c, 12, 65, 0
9, 22272, Note_on_c, 12, 64, 100
9, 22302, Note_off_c, 12, 64, 0
9, 22336, Note_on_c, 12, 67, 100
9, 22366, Note_off_c, 12, 67, 0
9, 22400, Note_on_c, 12, 76, 100
9, 22782, Note_off_c, 12, 76, 0
9, 22848, Note_on_c, 12, 64, 100
9, 22942, Note_off_c, 12, 64, 0
9, 22992, Note_on_c, 12, 67, 100
9, 23038, Note_off_c, 12, 67, 0
9, 23040, Note_on_c, 12, 65, 100
9, 23566, Note_off_c, 12, 65, 0
9, 23616, Note_on_c, 12, 62, 100
9, 23710, Note_off_c, 12, 62, 0
9, 23760, Note_on_c, 12, 65, 100
9, 23806, Note_off_c, 12, 65, 0
9, 23808, Note_on_c, 12, 63, 100
9, 23838, Note_off_c, 12, 63, 0
9, 23872, Note_on_c, 12, 62, 100
9, 23902, Note_off_c, 12, 62, 0
9, 23936, Note_on_c, 12, 60, 100
9, 24318, Note_off_c, 12, 60, 0
9, 24384, Note_on_c, 12, 64, 100
9, 24478, Note_off_c, 12, 64, 0
9, 24528, Note_on_c, 12, 67, 100
9, 24574, Note_off_c, 12, 67, 0
9, 24576, Note_on_c, 12, 65, 100
9, 25102, Note_off_c, 12, 65, 0
9, 25152, Note_on_c, 12, 62, 100
9, 25246, Note_off_c, 12, 62, 0
9, 25296, Note_on_c, 12, 65, 100
9, 25342, Note_off_c, 12, 65, 0
9, 25344, Note_on_c, 12, 64, 100
9, 25374, Note_off_c, 12, 64, 0
9, 25408, Note_on_c, 12, 67, 100
9, 25438, Note_off_c, 12, 67, 0
9, 25472, Note_on_c, 12, 76, 100
9, 25854, Note_off_c, 12, 76, 0
9, 25920, Note_on_c, 12, 74, 100
9, 26014, Note_off_c, 12, 74, 0
9, 26064, Note_on_c, 12, 76, 100
9, 26110, Note_off_c, 12, 76, 0
9, 26112, Note_on_c, 12, 77, 100
9, 26112, Note_on_c, 12, 74, 100
9, 26112, Note_on_c, 12, 70, 100
9, 26158, Note_off_c, 12, 70, 0
9, 26158, Note_off_c, 12, 74, 0
9, 26158, Note_off_c, 12, 77, 0
9, 26208, Note_on_c, 12, 70, 100
9, 26254, Note_off_c, 12, 70, 0
9, 26256, Note_on_c, 12, 69, 100
9, 26302, Note_off_c, 12, 69, 0
9, 26304, Note_on_c, 12, 70, 100
9, 26350, Note_off_c, 12, 70, 0
9, 26400, Note_on_c, 12, 70, 100
9, 26400, Note_on_c, 12, 74, 100
9, 26400, Note_on_c, 12, 77, 100
9, 26446, Note_off_c, 12, 77, 0
9, 26446, Note_off_c, 12, 74, 0
9, 26446, Note_off_c, 12, 70, 0
9, 26496, Note_on_c, 12, 70, 100
9, 26542, Note_off_c, 12, 70, 0
9, 26544, Note_on_c, 12, 69, 100
9, 26590, Note_off_c, 12, 69, 0
9, 26592, Note_on_c, 12, 70, 100
9, 26638, Note_off_c, 12, 70, 0
9, 26688, Note_on_c, 12, 70, 100
9, 26688, Note_on_c, 12, 74, 100
9, 26688, Note_on_c, 12, 77, 100
9, 26734, Note_off_c, 12, 77, 0
9, 26734, Note_off_c, 12, 74, 0
9, 26734, Note_off_c, 12, 70, 0
9, 26784, Note_on_c, 12, 75, 100
9, 26830, Note_off_c, 12, 75, 0
9, 26832, Note_on_c, 12, 74, 100
9, 26878, Note_off_c, 12, 74, 0
9, 26880, Note_on_c, 12, 68, 100
9, 26880, Note_on_c, 12, 72, 100
9, 26880, Note_on_c, 12, 75, 100
9, 27478, Note_off_c, 12, 75, 0
9, 27478, Note_off_c, 12, 72, 0
9, 27478, Note_off_c, 12, 68, 0
9, 27552, Note_on_c, 12, 72, 100
9, 27598, Note_off_c, 12, 72, 0
9, 27600, Note_on_c, 12, 72, 100
9, 27646, Note_off_c, 12, 72, 0
9, 27648, Note_on_c, 12, 70, 100
9, 27648, Note_on_c, 12, 74, 100
9, 27648, Note_on_c, 12, 77, 100
9, 27694, Note_off_c, 12, 77, 0
9, 27694, Note_off_c, 12, 74, 0
9, 27694, Note_off_c, 12, 70, 0
9, 27744, Note_on_c, 12, 70, 100
9, 27790, Note_off_c, 12, 70, 0
9, 27792, Note_on_c, 12, 69, 100
9, 27838, Note_off_c, 12, 69, 0
9, 27840, Note_on_c, 12, 70, 100
9, 27886, Note_off_c, 12, 70, 0
9, 27936, Note_on_c, 12, 70, 100
9, 27936, Note_on_c, 12, 74, 100
9, 27936, Note_on_c, 12, 77, 100
9, 27982, Note_off_c, 12, 77, 0
9, 27982, Note_off_c, 12, 74, 0
9, 27982, Note_off_c, 12, 70, 0
9, 28032, Note_on_c, 12, 70, 100
9, 28078, Note_off_c, 12, 70, 0
9, 28080, Note_on_c, 12, 69, 100
9, 28126, Note_off_c, 12, 69, 0
9, 28128, Note_on_c, 12, 70, 100
9, 28174, Note_off_c, 12, 70, 0
9, 28224, Note_on_c, 12, 70, 100
9, 28224, Note_on_c, 12, 74, 100
9, 28224, Note_on_c, 12, 77, 100
9, 28270, Note_off_c, 12, 77, 0
9, 28270, Note_off_c, 12, 74, 0
9, 28270, Note_off_c, 12, 70, 0
9, 28320, Note_on_c, 12, 75, 100
9, 28366, Note_off_c, 12, 75, 0
9, 28368, Note_on_c, 12, 74, 100
9, 28414, Note_off_c, 12, 74, 0
9, 28416, Note_on_c, 12, 68, 100
9, 28416, Note_on_c, 12, 72, 100
9, 28416, Note_on_c, 12, 75, 100
9, 29014, Note_off_c, 12, 75, 0
9, 29014, Note_off_c, 12, 72, 0
9, 29014, Note_off_c, 12, 68, 0
9, 29088, Note_on_c, 12, 72, 100
9, 29134, Note_off_c, 12, 72, 0
9, 29136, Note_on_c, 12, 72, 100
9, 29182, Note_off_c, 12, 72, 0
9, 29184, Note_on_c, 12, 74, 100
9, 29184, Note_on_c, 12, 70, 100
9, 29184, Note_on_c, 12, 77, 100
9, 29230, Note_off_c, 12, 77, 0
9, 29230, Note_off_c, 12, 70, 0
9, 29230, Note_off_c, 12, 74, 0
9, 29280, Note_on_c, 12, 70, 100
9, 29326, Note_off_c, 12, 70, 0
9, 29328, Note_on_c, 12, 69, 100
9, 29374, Note_off_c, 12, 69, 0
9, 29376, Note_on_c, 12, 70, 100
9, 29422, Note_off_c, 12, 70, 0
9, 29472, Note_on_c, 12, 70, 100
9, 29472, Note_on_c, 12, 74, 100
9, 29472, Note_on_c, 12, 77, 100
9, 29518, Note_off_c, 12, 77, 0
9, 29518, Note_off_c, 12, 74, 0
9, 29518, Note_off_c, 12, 70, 0
9, 29568, Note_on_c, 12, 70, 100
9, 29614, Note_off_c, 12, 70, 0
9, 29616, Note_on_c, 12, 69, 100
9, 29662, Note_off_c, 12, 69, 0
9, 29664, Note_on_c, 12, 70, 100
9, 29710, Note_off_c, 12, 70, 0
9, 29760, Note_on_c, 12, 70, 100
9, 29760, Note_on_c, 12, 74, 100
9, 29760, Note_on_c, 12, 77, 100
9, 29806, Note_off_c, 12, 77, 0
9, 29806, Note_off_c, 12, 74, 0
9, 29806, Note_off_c, 12, 70, 0
9, 29856, Note_on_c, 12, 75, 100
9, 29902, Note_off_c, 12, 75, 0
9, 29904, Note_on_c, 12, 74, 100
9, 29950, Note_off_c, 12, 74, 0
9, 29952, Note_on_c, 12, 68, 100
9, 29952, Note_on_c, 12, 72, 100
9, 29952, Note_on_c, 12, 75, 100
9, 29998, Note_off_c, 12, 75, 0
9, 29998, Note_off_c, 12, 72, 0
9, 29998, Note_off_c, 12, 68, 0
9, 30048, Note_on_c, 12, 68, 100
9, 30094, Note_off_c, 12, 68, 0
9, 30096, Note_on_c, 12, 67, 100
9, 30142, Note_off_c, 12, 67, 0
9, 30144, Note_on_c, 12, 68, 100
9, 30190, Note_off_c, 12, 68, 0
9, 30240, Note_on_c, 12, 68, 100
9, 30240, Note_on_c, 12, 72, 100
9, 30240, Note_on_c, 12, 75, 100
9, 30286, Note_off_c, 12, 75, 0
9, 30286, Note_off_c, 12, 72, 0
9, 30286, Note_off_c, 12, 68, 0
9, 30336, Note_on_c, 12, 68, 100
9, 30382, Note_off_c, 12, 68, 0
9, 30384, Note_on_c, 12, 67, 100
9, 30430, Note_off_c, 12, 67, 0
9, 30432, Note_on_c, 12, 68, 100
9, 30478, Note_off_c, 12, 68, 0
9, 30528, Note_on_c, 12, 68, 100
9, 30528, Note_on_c, 12, 72, 100
9, 30528, Note_on_c, 12, 75, 100
9, 30574, Note_off_c, 12, 75, 0
9, 30574, Note_off_c, 12, 72, 0
9, 30574, Note_off_c, 12, 68, 0
9, 30624, Note_on_c, 12, 72, 100
9, 30624, Note_on_c, 12, 68, 100
9, 30624, Note_on_c, 12, 75, 100
9, 30670, Note_off_c, 12, 75, 0
9, 30670, Note_off_c, 12, 68, 0
9, 30670, Note_off_c, 12, 72, 0
9, 30672, Note_on_c, 12, 74, 100
9, 30672, Note_on_c, 12, 68, 100
9, 30672, Note_on_c, 12, 77, 100
9, 30718, Note_off_c, 12, 77, 0
9, 30718, Note_off_c, 12, 68, 0
9, 30718, Note_off_c, 12, 74, 0
9, 30720, Note_on_c, 12, 72, 100
9, 30720, Note_on_c, 12, 76, 100
9, 30720, Note_on_c, 12, 79, 100
9, 31966, Note_off_c, 12, 79, 0
9, 31966, Note_off_c, 12, 76, 0
9, 31966, Note_off_c, 12, 72, 0
9, 32064, Note_on_c, 12, 64, 100
9, 32158, Note_off_c, 12, 64, 0
9, 32208, Note_on_c, 12, 65, 100
9, 32254, Note_off_c, 12, 65, 0
9, 32256, Note_on_c, 12, 64, 100
9, 32256, Note_on_c, 12, 67, 100
9, 32302, Note_off_c, 12, 67, 0
9, 32302, Note_off_c, 12, 64, 0
9, 32352, Note_on_c, 12, 64, 100
9, 32352, Note_on_c, 12, 67, 100
9, 32352, Note_on_c, 12, 72, 100
9, 32782, Note_off_c, 12, 72, 0
9, 32782, Note_off_c, 12, 67, 0
9, 32782, Note_off_c, 12, 64, 0
9, 32832, Note_on_c, 12, 53, 100
9, 32832, Note_on_c, 12, 62, 100
9, 32926, Note_off_c, 12, 62, 0
9, 32926, Note_off_c, 12, 53, 0
9, 32976, Note_on_c, 12, 55, 100
9, 32976, Note_on_c, 12, 64, 100
9, 33022, Note_off_c, 12, 64, 0
9, 33022, Note_off_c, 12, 55, 0
9, 33024, Note_on_c, 12, 57, 100
9, 33024, Note_on_c, 12, 60, 100
9, 33024, Note_on_c, 12, 65, 100
9, 33550, Note_off_c, 12, 65, 0
9, 33550, Note_off_c, 12, 60, 0
9, 33550, Note_off_c, 12, 57, 0
9, 33600, Note_on_c, 12, 67, 100
9, 33600, Note_on_c, 12, 59, 100
9, 33694, Note_off_c, 12, 59, 0
9, 33694, Note_off_c, 12, 67, 0
9, 33744, Note_on_c, 12, 60, 100
9, 33744, Note_on_c, 12, 69, 100
9, 33790, Note_off_c, 12, 69, 0
9, 33790, Note_off_c, 12, 60, 0
9, 33792, Note_on_c, 12, 62, 100
9, 33792, Note_on_c, 12, 71, 100
9, 33838, Note_off_c, 12, 71, 0
9, 33838, Note_off_c, 12, 62, 0
9, 33888, Note_on_c, 12, 69, 100
9, 33888, Note_on_c, 12, 72, 100
9, 33888, Note_on_c, 12, 77, 100
9, 33888, Note_on_c, 12, 77, 100
9, 34318, Note_off_c, 12, 77, 0
9, 34318, Note_off_c, 12, 77, 0
9, 34318, Note_off_c, 12, 72, 0
9, 34318, Note_off_c, 12, 69, 0
9, 34368, Note_on_c, 12, 60, 100
9, 34368, Note_on_c, 12, 69, 100
9, 34462, Note_off_c, 12, 69, 0
9, 34462, Note_off_c, 12, 60, 0
9, 34512, Note_on_c, 12, 62, 100
9, 34512, Note_on_c, 12, 71, 100
9, 34558, Note_off_c, 12, 71, 0
9, 34558, Note_off_c, 12, 62, 0
9, 34560, Note_on_c, 12, 64, 100
9, 34560, Note_on_c, 12, 72, 100
9, 34750, Note_off_c, 12, 72, 0
9, 34750, Note_off_c, 12, 64, 0
9, 34752, Note_on_c, 12, 67, 100
9, 34752, Note_on_c, 12, 74, 100
9, 34942, Note_off_c, 12, 74, 0
9, 34942, Note_off_c, 12, 67, 0
9, 34944, Note_on_c, 12, 72, 100
9, 34944, Note_on_c, 12, 76, 100
9, 35038, Note_off_c, 12, 76, 0
9, 35038, Note_off_c, 12, 72, 0
9, 35136, Note_on_c, 12, 60, 100
9, 35136, Note_on_c, 12, 64, 100
9, 35230, Note_off_c, 12, 64, 0
9, 35230, Note_off_c, 12, 60, 0
9, 35280, Note_on_c, 12, 62, 100
9, 35280, Note_on_c, 12, 65, 100
9, 35326, Note_off_c, 12, 65, 0
9, 35326, Note_off_c, 12, 62, 0
9, 35328, Note_on_c, 12, 64, 100
9, 35328, Note_on_c, 12, 67, 100
9, 35374, Note_off_c, 12, 67, 0
9, 35374, Note_off_c, 12, 64, 0
9, 35424, Note_on_c, 12, 64, 100
9, 35424, Note_on_c, 12, 67, 100
9, 35424, Note_on_c, 12, 72, 100
9, 35854, Note_off_c, 12, 72, 0
9, 35854, Note_off_c, 12, 67, 0
9, 35854, Note_off_c, 12, 64, 0
9, 35904, Note_on_c, 12, 67, 100
9, 35904, Note_on_c, 12, 71, 100
9, 35904, Note_on_c, 12, 74, 100
9, 35998, Note_off_c, 12, 74, 0
9, 35998, Note_off_c, 12, 71, 0
9, 35998, Note_off_c, 12, 67, 0
9, 36048, Note_on_c, 12, 67, 100
9, 36048, Note_on_c, 12, 72, 100
9, 36048, Note_on_c, 12, 76, 100
9, 36094, Note_off_c, 12, 76, 0
9, 36094, Note_off_c, 12, 72, 0
9, 36094, Note_off_c, 12, 67, 0
9, 36096, Note_on_c, 12, 68, 100
9, 36096, Note_on_c, 12, 73, 100
9, 36096, Note_on_c, 12, 77, 100
9, 36622, Note_off_c, 12, 77, 0
9, 36622, Note_off_c, 12, 73, 0
9, 36622, Note_off_c, 12, 68, 0
9, 36672, Note_on_c, 12, 67, 100
9, 36766, Note_off_c, 12, 67, 0
9, 36816, Note_on_c, 12, 67, 100
9, 36862, Note_off_c, 12, 67, 0
9, 36864, Note_on_c, 12, 67, 100
9, 36864, Note_on_c, 12, 72, 100
9, 36864, Note_on_c, 12, 65, 100
9, 36864, Note_on_c, 12, 76, 100
9, 37054, Note_off_c, 12, 76, 0
9, 37054, Note_off_c, 12, 65, 0
9, 37054, Note_off_c, 12, 72, 0
9, 37054, Note_off_c, 12, 67, 0
9, 37056, Note_on_c, 12, 74, 100
9, 37150, Note_off_c, 12, 74, 0
9, 37200, Note_on_c, 12, 67, 100
9, 37246, Note_off_c, 12, 67, 0
9, 37248, Note_on_c, 12, 67, 100
9, 37248, Note_on_c, 12, 72, 100
9, 37248, Note_on_c, 12, 65, 100
9, 37248, Note_on_c, 12, 76, 100
9, 37438, Note_off_c, 12, 76, 0
9, 37438, Note_off_c, 12, 65, 0
9, 37438, Note_off_c, 12, 72, 0
9, 37438, Note_off_c, 12, 67, 0
9, 37440, Note_on_c, 12, 74, 100
9, 37534, Note_off_c, 12, 74, 0
9, 37584, Note_on_c, 12, 67, 100
9, 37630, Note_off_c, 12, 67, 0
9, 37632, Note_on_c, 12, 67, 100
9, 37632, Note_on_c, 12, 72, 100
9, 37632, Note_on_c, 12, 65, 100
9, 37632, Note_on_c, 12, 76, 100
9, 37822, Note_off_c, 12, 76, 0
9, 37822, Note_off_c, 12, 65, 0
9, 37822, Note_off_c, 12, 72, 0
9, 37822, Note_off_c, 12, 67, 0
9, 37824, Note_on_c, 12, 74, 100
9, 37918, Note_off_c, 12, 74, 0
9, 37968, Note_on_c, 12, 67, 100
9, 38014, Note_off_c, 12, 67, 0
9, 38016, Note_on_c, 12, 77, 100
9, 38016, Note_on_c, 12, 67, 100
9, 38016, Note_on_c, 12, 65, 100
9, 38016, Note_on_c, 12, 72, 100
9, 38206, Note_off_c, 12, 72, 0
9, 38206, Note_off_c, 12, 65, 0
9, 38206, Note_off_c, 12, 67, 0
9, 38206, Note_off_c, 12, 77, 0
9, 38208, Note_on_c, 12, 64, 100
9, 38208, Note_on_c, 12, 67, 100
9, 38208, Note_on_c, 12, 71, 100
9, 38208, Note_on_c, 12, 76, 100
9, 38302, Note_off_c, 12, 76, 0
9, 38302, Note_off_c, 12, 71, 0
9, 38302, Note_off_c, 12, 67, 0
9, 38302, Note_off_c, 12, 64, 0
9, 38352, Note_on_c, 12, 62, 100
9, 38352, Note_on_c, 12, 67, 100
9, 38352, Note_on_c, 12, 71, 100
9, 38352, Note_on_c, 12, 74, 100
9, 38398, Note_off_c, 12, 74, 0
9, 38398, Note_off_c, 12, 71, 0
9, 38398, Note_off_c, 12, 67, 0
9, 38398, Note_off_c, 12, 62, 0
9, 38400, Note_on_c, 12, 77, 100
9, 38400, Note_on_c, 12, 67, 100
9, 38400, Note_on_c, 12, 60, 100
9, 38400, Note_on_c, 12, 72, 100
9, 38590, Note_off_c, 12, 72, 0
9, 38590, Note_off_c, 12, 77, 0
9, 38592, Note_on_c, 12, 71, 100
9, 38592, Note_on_c, 12, 76, 100
9, 38686, Note_off_c, 12, 76, 0
9, 38686, Note_off_c, 12, 71, 0
9, 38736, Note_on_c, 12, 71, 100
9, 38736, Note_on_c, 12, 74, 100
9, 38782, Note_off_c, 12, 74, 0
9, 38782, Note_off_c, 12, 71, 0
9, 38784, Note_on_c, 12, 72, 100
9, 39622, Note_off_c, 12, 67, 0
9, 39622, Note_off_c, 12, 60, 0
9, 39622, Note_off_c, 12, 72, 0
9, 39744, Note_on_c, 12, 65, 100
9, 39838, Note_off_c, 12, 65, 0
9, 39888, Note_on_c, 12, 66, 100
9, 39934, Note_off_c, 12, 66, 0
9, 39936, Note_on_c, 12, 68, 100
9, 39982, Note_off_c, 12, 68, 0
9, 40032, Note_on_c, 12, 73, 100
9, 40462, Note_off_c, 12, 73, 0
9, 40512, Note_on_c, 12, 63, 100
9, 40606, Note_off_c, 12, 63, 0
9, 40656, Note_on_c, 12, 65, 100
9, 40702, Note_off_c, 12, 65, 0
9, 40704, Note_on_c, 12, 66, 100
9, 41230, Note_off_c, 12, 66, 0
9, 41280, Note_on_c, 12, 68, 100
9, 41374, Note_off_c, 12, 68, 0
9, 41424, Note_on_c, 12, 70, 100
9, 41470, Note_off_c, 12, 70, 0
9, 41472, Note_on_c, 12, 72, 100
9, 41518, Note_off_c, 12, 72, 0
9, 41568, Note_on_c, 12, 78, 100
9, 41998, Note_off_c, 12, 78, 0
9, 42048, Note_on_c, 12, 70, 100
9, 42142, Note_off_c, 12, 70, 0
9, 42192, Note_on_c, 12, 72, 100
9, 42238, Note_off_c, 12, 72, 0
9, 42240, Note_on_c, 12, 73, 100
9, 42430, Note_off_c, 12, 73, 0
9, 42432, Note_on_c, 12, 75, 100
9, 42622, Note_off_c, 12, 75, 0
9, 42624, Note_on_c, 12, 77, 100
9, 42718, Note_off_c, 12, 77, 0
9, 42816, Note_on_c, 12, 65, 100
9, 42910, Note_off_c, 12, 65, 0
9, 42960, Note_on_c, 12, 66, 100
9, 43006, Note_off_c, 12, 66, 0
9, 43008, Note_on_c, 12, 68, 100
9, 43054, Note_off_c, 12, 68, 0
9, 43104, Note_on_c, 12, 65, 100
9, 43104, Note_on_c, 12, 68, 100
9, 43104, Note_on_c, 12, 73, 100
9, 43534, Note_off_c, 12, 73, 0
9, 43534, Note_off_c, 12, 68, 0
9, 43534, Note_off_c, 12, 65, 0
9, 43584, Note_on_c, 12, 75, 100
9, 43678, Note_off_c, 12, 75, 0
9, 43728, Note_on_c, 12, 77, 100
9, 43774, Note_off_c, 12, 77, 0
9, 43776, Note_on_c, 12, 69, 100
9, 43776, Note_on_c, 12, 74, 100
9, 43776, Note_on_c, 12, 78, 100
9, 44254, Note_off_c, 12, 78, 0
9, 44254, Note_off_c, 12, 74, 0
9, 44254, Note_off_c, 12, 69, 0
9, 44352, Note_on_c, 12, 68, 100
9, 44446, Note_off_c, 12, 68, 0
9, 44496, Note_on_c, 12, 68, 100
9, 44542, Note_off_c, 12, 68, 0
9, 44544, Note_on_c, 12, 68, 100
9, 44544, Note_on_c, 12, 73, 100
9, 44544, Note_on_c, 12, 66, 100
9, 44544, Note_on_c, 12, 77, 100
9, 44734, Note_off_c, 12, 77, 0
9, 44734, Note_off_c, 12, 66, 0
9, 44734, Note_off_c, 12, 73, 0
9, 44734, Note_off_c, 12, 68, 0
9, 44736, Note_on_c, 12, 75, 100
9, 44830, Note_off_c, 12, 75, 0
9, 44880, Note_on_c, 12, 68, 100
9, 44926, Note_off_c, 12, 68, 0
9, 44928, Note_on_c, 12, 68, 100
9, 44928, Note_on_c, 12, 73, 100
9, 44928, Note_on_c, 12, 66, 100
9, 44928, Note_on_c, 12, 77, 100
9, 45118, Note_off_c, 12, 77, 0
9, 45118, Note_off_c, 12, 66, 0
9, 45118, Note_off_c, 12, 73, 0
9, 45118, Note_off_c, 12, 68, 0
9, 45120, Note_on_c, 12, 75, 100
9, 45214, Note_off_c, 12, 75, 0
9, 45264, Note_on_c, 12, 68, 100
9, 45310, Note_off_c, 12, 68, 0
9, 45312, Note_on_c, 12, 68, 100
9, 45312, Note_on_c, 12, 73, 100
9, 45312, Note_on_c, 12, 66, 100
9, 45312, Note_on_c, 12, 77, 100
9, 45502, Note_off_c, 12, 77, 0
9, 45502, Note_off_c, 12, 66, 0
9, 45502, Note_off_c, 12, 73, 0
9, 45502, Note_off_c, 12, 68, 0
9, 45504, Note_on_c, 12, 75, 100
9, 45598, Note_off_c, 12, 75, 0
9, 45648, Note_on_c, 12, 68, 100
9, 45694, Note_off_c, 12, 68, 0
9, 45696, Note_on_c, 12, 78, 100
9, 45696, Note_on_c, 12, 68, 100
9, 45696, Note_on_c, 12, 66, 100
9, 45696, Note_on_c, 12, 73, 100
9, 45886, Note_off_c, 12, 73, 0
9, 45886, Note_off_c, 12, 66, 0
9, 45886, Note_off_c, 12, 68, 0
9, 45886, Note_off_c, 12, 78, 0
9, 45888, Note_on_c, 12, 65, 100
9, 45888, Note_on_c, 12, 68, 100
9, 45888, Note_on_c, 12, 72, 100
9, 45888, Note_on_c, 12, 77, 100
9, 45982, Note_off_c, 12, 77, 0
9, 45982, Note_off_c, 12, 72, 0
9, 45982, Note_off_c, 12, 68, 0
9, 45982, Note_off_c, 12, 65, 0
9, 46032, Note_on_c, 12, 63, 100
9, 46032, Note_on_c, 12, 68, 100
9, 46032, Note_on_c, 12, 72, 100
9, 46032, Note_on_c, 12, 75, 100
9, 46078, Note_off_c, 12, 75, 0
9, 46078, Note_off_c, 12, 72, 0
9, 46078, Note_off_c, 12, 68, 0
9, 46078, Note_off_c, 12, 63, 0
9, 46080, Note_on_c, 12, 78, 100
9, 46080, Note_on_c, 12, 68, 100
9, 46080, Note_on_c, 12, 61, 100
9, 46080, Note_on_c, 12, 73, 100
9, 46270, Note_off_c, 12, 73, 0
9, 46270, Note_off_c, 12, 78, 0
9, 46272, Note_on_c, 12, 72, 100
9, 46272, Note_on_c, 12, 77, 100
9, 46366, Note_off_c, 12, 77, 0
9, 46366, Note_off_c, 12, 72, 0
9, 46416, Note_on_c, 12, 72, 100
9, 46416, Note_on_c, 12, 75, 100
9, 46462, Note_off_c, 12, 75, 0
9, 46462, Note_off_c, 12, 72, 0
9, 46464, Note_on_c, 12, 73, 100
9, 47302, Note_off_c, 12, 68, 0
9, 47302, Note_off_c, 12, 61, 0
9, 47302, Note_off_c, 12, 73, 0
9, 47424, Note_on_c, 12, 61, 100
9, 47470, Note_off_c, 12, 61, 0
9, 47472, Note_on_c, 12, 61, 100
9, 47518, Note_off_c, 12, 61, 0
9, 47520, Note_on_c, 12, 61, 100
9, 47566, Note_off_c, 12, 61, 0
9, 47616, Note_on_c, 12, 66, 100
9, 48094, Note_off_c, 12, 66, 0
9, 48192, Note_on_c, 12, 66, 100
9, 48238, Note_off_c, 12, 66, 0
9, 48288, Note_on_c, 12, 66, 100
9, 48334, Note_off_c, 12, 66, 0
9, 48336, Note_on_c, 12, 67, 100
9, 48382, Note_off_c, 12, 67, 0
9, 48384, Note_on_c, 12, 68, 100
9, 48862, Note_off_c, 12, 68, 0
9, 48960, Note_on_c, 12, 61, 100
9, 49006, Note_off_c, 12, 61, 0
9, 49008, Note_on_c, 12, 61, 100
9, 49054, Note_off_c, 12, 61, 0
9, 49056, Note_on_c, 12, 61, 100
9, 49102, Note_off_c, 12, 61, 0
9, 49152, Note_on_c, 12, 66, 100
9, 49726, Note_off_c, 12, 66, 0
9, 49824, Note_on_c, 12, 66, 100
9, 49870, Note_off_c, 12, 66, 0
9, 49872, Note_on_c, 12, 67, 100
9, 49918, Note_off_c, 12, 67, 0
9, 49920, Note_on_c, 12, 68, 100
9, 50398, Note_off_c, 12, 68, 0
9, 50496, Note_on_c, 12, 73, 100
9, 50542, Note_off_c, 12, 73, 0
9, 50544, Note_on_c, 12, 73, 100
9, 50590, Note_off_c, 12, 73, 0
9, 50592, Note_on_c, 12, 73, 100
9, 50638, Note_off_c, 12, 73, 0
9, 50688, Note_on_c, 12, 69, 100
9, 50688, Note_on_c, 12, 73, 100
9, 50688, Note_on_c, 12, 76, 100
9, 50688, Note_on_c, 12, 68, 100
9, 51166, Note_off_c, 12, 68, 0
9, 51166, Note_off_c, 12, 76, 0
9, 51166, Note_off_c, 12, 73, 0
9, 51166, Note_off_c, 12, 69, 0
9, 51264, Note_on_c, 12, 73, 100
9, 51358, Note_off_c, 12, 73, 0
9, 51408, Note_on_c, 12, 73, 100
9, 51454, Note_off_c, 12, 73, 0
9, 51456, Note_on_c, 12, 71, 100
9, 51456, Note_on_c, 12, 75, 100
9, 51456, Note_on_c, 12, 78, 100
9, 51456, Note_on_c, 12, 70, 100
9, 51790, Note_off_c, 12, 70, 0
9, 51790, Note_off_c, 12, 78, 0
9, 51790, Note_off_c, 12, 75, 0
9, 51790, Note_off_c, 12, 71, 0
9, 51840, Note_on_c, 12, 70, 100
9, 51840, Note_on_c, 12, 66, 100
9, 51840, Note_on_c, 12, 71, 100
9, 51840, Note_on_c, 12, 75, 100
9, 52174, Note_off_c, 12, 75, 0
9, 52174, Note_off_c, 12, 71, 0
9, 52174, Note_off_c, 12, 66, 0
9, 52174, Note_off_c, 12, 70, 0
9, 52224, Note_on_c, 12, 73, 100
9, 52224, Note_on_c, 12, 77, 100
9, 52224, Note_on_c, 12, 80, 100
9, 52224, Note_on_c, 12, 72, 100
9, 52990, Note_off_c, 12, 72, 0
9, 52990, Note_off_c, 12, 80, 0
9, 52990, Note_off_c, 12, 77, 0
9, 52990, Note_off_c, 12, 73, 0
9, 53184, Note_on_c, 12, 61, 100
9, 53230, Note_off_c, 12, 61, 0
9, 53232, Note_on_c, 12, 61, 100
9, 53278, Note_off_c, 12, 61, 0
9, 53280, Note_on_c, 12, 61, 100
9, 53326, Note_off_c, 12, 61, 0
9, 53328, Note_on_c, 12, 61, 100
9, 53374, Note_off_c, 12, 61, 0
9, 53376, Note_on_c, 12, 61, 100
9, 53470, Note_off_c, 12, 61, 0
9, 53470, End_track
0, 0, End_of_file
