0, 0, Header, 0, 1, 480
1, 0, Start_track
1, 0, Title_t, "Niewiara - z rep. Piekni i Mlodzi"
1, 0, Copyright_t, "Copyright © by MIDI-NET GROUP Sp. z o.o.  Wszelkie prawa zastrzezone!!! 2013"
1, 0, Text_t, "Ten plik MIDI zostal napisany przez muzykow firmy MIDI-NET GROUP Sp. z o.o.!!!\012"
1, 0, Text_t, "Kopiowanie surowo zabronione!!!\012"
1, 0, Text_t, "ul. Saperska 44b/10\012"
1, 0, Text_t, "61-493 Poznan\012"
1, 0, Text_t, "POLAND\012"
1, 0, Text_t, "www.utworki.pl\012"
1, 0, Text_t, "www.midi24.pl\012"
1, 0, Text_t, "biuro@utworki.pl\012"
1, 0, Text_t, "tel. 61 8 526 526\012"
1, 0, Text_t, "fax. 61 852 47 46\012"
1, 0, Text_t, "tel. kom. 516 900 007\012"
1, 0, Text_t, "tel. kom. 512 777 222\012"
1, 0, Text_t, "+++++++++++++++++++++++++++++++++++++++++++++\012"
1, 0, Text_t, "Szanowni Panstwo!!!\012"
1, 0, Text_t, "        Dziekujemy, ze zdecydowali sie Panstwo na zakupienie muzycznych\012"
1, 0, Text_t, "plikow MIDI FILE w naszym serwisie www.utworki.pl\012"
1, 0, Text_t, "        Tym samym udzielili Panstwo poparcia nie tylko naszej firmie, ale\012"
1, 0, Text_t, "rowniez artystom, autorom tekstow i wszystkim, ktorzy przyczynili sie do\012"
1, 0, Text_t, "powstania tego materialu.\012"
1, 0, Text_t, "        Pragniemy przypomniec, ze nasze pliki muzyczne sa chronione prawem \012"
1, 0, Text_t, "autorskim. W zwiazku z tym, ze nie posiadacie Panstwo stosownych praw\012"
1, 0, Text_t, "autorskich, prosimy, abyscie nie uzywali internetu do nielegalnego\012"
1, 0, Text_t, "kopiowania i rozpowszechniania prawnie chronionej muzyki, nie tworzyli\012"
1, 0, Text_t, "nielegalnych kopii i nie uzyczali innym osobom swoich plikow MIDI FILE.\012"
1, 0, Text_t, "W przeciwnym razie beda Panstwo dzialac na szkode nie tylko naszej\012"
1, 0, Text_t, "firmy, ale rowniez na szkode artystow i tworcow, co jest praktycznie\012"
1, 0, Text_t, "rownoznaczne z kradzieza plyt ze sklepu. \012"
1, 0, Text_t, "Uprzedzamy, ze prawo przewiduje odpowiedzialnosc cywilna i karna za\012"
1, 0, Text_t, "nielegalne kopiowanie i dystrybucje prawnie chronionych plikow.\012"
1, 0, Text_t, "Kazdy plik MIDI FILE jest przez nas kodowany, co umozliwia w szybki\012"
1, 0, Text_t, "sposob weryfikacje komu sprzedalismy dany plik. Kod jest nie do wykrycia\012"
1, 0, Text_t, "i usuniecia.\012"
1, 0, Text_t, "      Dziekujemy za poswiecony czas na przeczytanie powyzszej informacji.\012"
1, 0, Text_t, "+++++++++++++++++++++++++++++++++++++++++++++\012"
1, 0, Time_signature, 4, 2, 24, 8
1, 0, Key_signature, 0, "major"
1, 0, Tempo, 468750
1, 0, Marker_t, "Copyright © by MIDI-NET GROUP Sp. z o.o.  Wszelkie prawa zastrzezone!!! 2013"
1, 0, Control_c, 0, 0, 0
1, 0, Control_c, 0, 7, 80
1, 0, Control_c, 0, 10, 64
1, 0, Control_c, 0, 91, 20
1, 0, Control_c, 0, 93, 21
1, 0, Control_c, 1, 0, 0
1, 0, Control_c, 1, 7, 100
1, 0, Control_c, 1, 10, 64
1, 0, Control_c, 1, 91, 0
1, 0, Control_c, 1, 93, 0
1, 0, Control_c, 2, 0, 0
1, 0, Control_c, 2, 7, 90
1, 0, Control_c, 2, 10, 64
1, 0, Control_c, 2, 91, 20
1, 0, Control_c, 2, 93, 10
1, 0, Control_c, 3, 0, 0
1, 0, Control_c, 3, 7, 105
1, 0, Control_c, 3, 10, 64
1, 0, Control_c, 3, 91, 25
1, 0, Control_c, 3, 93, 1
1, 0, Control_c, 4, 0, 0
1, 0, Control_c, 4, 7, 90
1, 0, Control_c, 4, 10, 64
1, 0, Control_c, 4, 91, 20
1, 0, Control_c, 4, 93, 10
1, 0, Control_c, 5, 0, 0
1, 0, Control_c, 5, 7, 100
1, 0, Control_c, 5, 10, 35
1, 0, Control_c, 5, 91, 20
1, 0, Control_c, 5, 93, 10
1, 0, Control_c, 6, 0, 0
1, 0, Control_c, 6, 7, 100
1, 0, Control_c, 6, 10, 70
1, 0, Control_c, 6, 91, 20
1, 0, Control_c, 6, 93, 0
1, 0, Control_c, 7, 0, 0
1, 0, Control_c, 7, 7, 70
1, 0, Control_c, 7, 10, 34
1, 0, Control_c, 7, 91, 30
1, 0, Control_c, 7, 93, 0
1, 0, Control_c, 8, 0, 0
1, 0, Control_c, 8, 7, 100
1, 0, Control_c, 8, 10, 74
1, 0, Control_c, 8, 91, 50
1, 0, Control_c, 8, 93, 16
1, 0, Control_c, 9, 0, 127
1, 0, Control_c, 9, 7, 100
1, 0, Control_c, 9, 10, 64
1, 0, Control_c, 9, 91, 7
1, 0, Control_c, 9, 93, 0
1, 0, Control_c, 10, 0, 0
1, 0, Control_c, 10, 7, 100
1, 0, Control_c, 10, 10, 64
1, 0, Control_c, 10, 91, 35
1, 0, Control_c, 10, 93, 5
1, 0, Control_c, 11, 0, 0
1, 0, Control_c, 11, 7, 90
1, 0, Control_c, 11, 10, 64
1, 0, Control_c, 11, 91, 30
1, 0, Control_c, 11, 93, 0
1, 0, Control_c, 12, 0, 0
1, 0, Control_c, 12, 7, 100
1, 0, Control_c, 12, 10, 64
1, 0, Control_c, 12, 91, 5
1, 0, Control_c, 12, 93, 5
1, 0, Control_c, 13, 0, 0
1, 0, Control_c, 13, 7, 90
1, 0, Control_c, 13, 10, 64
1, 0, Control_c, 13, 91, 20
1, 0, Control_c, 13, 93, 16
1, 0, Control_c, 14, 0, 0
1, 0, Control_c, 14, 7, 80
1, 0, Control_c, 14, 10, 90
1, 0, Control_c, 14, 91, 33
1, 0, Control_c, 14, 93, 5
1, 0, Control_c, 15, 0, 0
1, 0, Control_c, 15, 7, 100
1, 0, Control_c, 15, 10, 70
1, 0, Control_c, 15, 91, 40
1, 0, Control_c, 15, 93, 5
1, 0, Control_c, 15, 32, 0
1, 0, Control_c, 10, 32, 0
1, 0, Control_c, 14, 32, 0
1, 0, Control_c, 9, 32, 0
1, 0, Control_c, 13, 32, 0
1, 0, Control_c, 8, 32, 0
1, 0, Control_c, 12, 32, 0
1, 0, Control_c, 3, 32, 0
1, 0, Control_c, 11, 32, 0
1, 0, Control_c, 7, 32, 0
1, 0, Control_c, 0, 32, 0
1, 0, Control_c, 5, 32, 0
1, 0, Control_c, 1, 32, 0
1, 0, Control_c, 6, 32, 0
1, 0, Control_c, 2, 32, 0
1, 0, Control_c, 4, 32, 0
1, 1, Program_c, 15, 90
1, 1, Program_c, 14, 27
1, 1, Program_c, 13, 81
1, 1, Program_c, 12, 2
1, 1, Program_c, 11, 119
1, 1, Program_c, 10, 120
1, 1, Program_c, 9, 24
1, 1, Program_c, 8, 96
1, 1, Program_c, 7, 96
1, 1, Program_c, 6, 83
1, 1, Program_c, 5, 28
1, 1, Program_c, 4, 53
1, 1, Program_c, 3, 71
1, 1, Program_c, 2, 80
1, 1, Program_c, 1, 39
1, 1, Program_c, 0, 50
1, 27, Control_c, 0, 121, 0
1, 38, Control_c, 1, 121, 0
1, 43, Control_c, 2, 121, 0
1, 52, Control_c, 3, 121, 0
1, 67, Control_c, 4, 121, 0
1, 73, Control_c, 5, 121, 0
1, 90, Control_c, 6, 121, 0
1, 97, Control_c, 7, 121, 0
1, 98, Control_c, 10, 121, 0
1, 105, Control_c, 8, 121, 0
1, 111, Control_c, 12, 121, 0
1, 115, Control_c, 11, 121, 0
1, 119, Control_c, 9, 121, 0
1, 120, Control_c, 13, 121, 0
1, 129, Control_c, 14, 121, 0
1, 136, Control_c, 15, 121, 0
1, 201, Control_c, 0, 101, 0
1, 202, Control_c, 0, 100, 0
1, 203, Control_c, 0, 6, 2
1, 204, Control_c, 0, 38, 0
1, 212, Control_c, 1, 101, 0
1, 213, Control_c, 1, 100, 0
1, 214, Control_c, 1, 6, 2
1, 215, Control_c, 1, 38, 0
1, 217, Control_c, 2, 101, 0
1, 218, Control_c, 2, 100, 0
1, 219, Control_c, 2, 6, 2
1, 220, Control_c, 2, 38, 0
1, 226, Control_c, 3, 101, 0
1, 227, Control_c, 3, 100, 0
1, 228, Control_c, 3, 6, 2
1, 229, Control_c, 3, 38, 0
1, 241, Control_c, 4, 101, 0
1, 242, Control_c, 4, 100, 0
1, 243, Control_c, 4, 6, 2
1, 244, Control_c, 4, 38, 0
1, 247, Control_c, 5, 101, 0
1, 248, Control_c, 5, 100, 0
1, 249, Control_c, 5, 6, 2
1, 250, Control_c, 5, 38, 0
1, 264, Control_c, 6, 101, 0
1, 265, Control_c, 6, 100, 0
1, 266, Control_c, 6, 6, 2
1, 267, Control_c, 6, 38, 0
1, 271, Control_c, 7, 101, 0
1, 272, Control_c, 7, 100, 0
1, 273, Control_c, 7, 6, 2
1, 274, Control_c, 7, 38, 0
1, 274, Control_c, 10, 101, 0
1, 275, Control_c, 10, 100, 0
1, 276, Control_c, 10, 6, 2
1, 277, Control_c, 10, 38, 0
1, 279, Control_c, 8, 101, 0
1, 280, Control_c, 8, 100, 0
1, 281, Control_c, 8, 6, 2
1, 282, Control_c, 8, 38, 0
1, 285, Control_c, 12, 101, 0
1, 286, Control_c, 12, 100, 0
1, 287, Control_c, 12, 6, 2
1, 288, Control_c, 12, 38, 0
1, 289, Control_c, 11, 101, 0
1, 290, Control_c, 11, 100, 0
1, 291, Control_c, 11, 6, 2
1, 292, Control_c, 11, 38, 0
1, 293, Control_c, 9, 101, 0
1, 294, Control_c, 9, 100, 0
1, 295, Control_c, 9, 6, 2
1, 296, Control_c, 9, 38, 0
1, 296, Control_c, 13, 101, 0
1, 297, Control_c, 13, 100, 0
1, 298, Control_c, 13, 6, 2
1, 299, Control_c, 13, 38, 0
1, 303, Control_c, 14, 101, 0
1, 304, Control_c, 14, 100, 0
1, 305, Control_c, 14, 6, 2
1, 306, Control_c, 14, 38, 0
1, 310, Control_c, 15, 101, 0
1, 311, Control_c, 15, 100, 0
1, 312, Control_c, 15, 6, 2
1, 313, Control_c, 15, 38, 0
1, 327, Control_c, 0, 11, 127
1, 338, Control_c, 1, 11, 127
1, 343, Control_c, 2, 11, 127
1, 352, Control_c, 3, 11, 127
1, 357, Control_c, 0, 71, 64
1, 367, Control_c, 4, 11, 127
1, 368, Control_c, 1, 71, 64
1, 373, Control_c, 2, 71, 90
1, 373, Control_c, 5, 11, 127
1, 382, Control_c, 3, 71, 64
1, 387, Control_c, 0, 72, 64
1, 390, Control_c, 6, 11, 127
1, 397, Control_c, 4, 71, 64
1, 397, Control_c, 7, 11, 127
1, 398, Control_c, 1, 72, 64
1, 398, Control_c, 10, 11, 127
1, 403, Control_c, 2, 72, 64
1, 403, Control_c, 5, 71, 64
1, 405, Control_c, 8, 11, 127
1, 411, Control_c, 12, 11, 127
1, 412, Control_c, 3, 72, 64
1, 415, Control_c, 11, 11, 127
1, 417, Control_c, 0, 73, 64
1, 419, Control_c, 9, 11, 127
1, 420, Control_c, 6, 71, 85
1, 420, Control_c, 13, 11, 127
1, 427, Control_c, 4, 72, 64
1, 427, Control_c, 7, 71, 64
1, 428, Control_c, 1, 73, 64
1, 428, Control_c, 10, 71, 64
1, 429, Control_c, 14, 11, 127
1, 433, Control_c, 2, 73, 64
1, 433, Control_c, 5, 72, 64
1, 435, Control_c, 8, 71, 64
1, 436, Control_c, 15, 11, 127
1, 441, Control_c, 12, 71, 64
1, 442, Control_c, 3, 73, 64
1, 445, Control_c, 11, 71, 64
1, 447, Control_c, 0, 74, 64
1, 449, Control_c, 9, 71, 64
1, 450, Control_c, 6, 72, 64
1, 450, Control_c, 13, 71, 64
1, 457, Control_c, 4, 73, 64
1, 457, Control_c, 7, 72, 64
1, 458, Control_c, 1, 74, 64
1, 458, Control_c, 10, 72, 64
1, 459, Control_c, 14, 71, 64
1, 463, Control_c, 2, 74, 127
1, 463, Control_c, 5, 73, 64
1, 465, Control_c, 8, 72, 64
1, 466, Control_c, 15, 71, 64
1, 471, Control_c, 12, 72, 64
1, 472, Control_c, 3, 74, 64
1, 475, Control_c, 11, 72, 64
1, 477, Pitch_bend_c, 0, 8192
1, 479, Control_c, 9, 72, 64
1, 480, Control_c, 6, 73, 1
1, 480, Control_c, 13, 72, 64
1, 487, Control_c, 4, 74, 64
1, 487, Control_c, 7, 73, 1
1, 488, Pitch_bend_c, 1, 8192
1, 488, Control_c, 10, 73, 64
1, 489, Control_c, 14, 72, 64
1, 493, Pitch_bend_c, 2, 8192
1, 493, Control_c, 5, 74, 64
1, 495, Control_c, 8, 73, 1
1, 496, Control_c, 15, 72, 64
1, 501, Control_c, 12, 73, 64
1, 502, Pitch_bend_c, 3, 8192
1, 505, Control_c, 11, 73, 64
1, 509, Control_c, 9, 73, 64
1, 510, Control_c, 6, 74, 64
1, 510, Control_c, 13, 73, 75
1, 517, Pitch_bend_c, 4, 8192
1, 517, Control_c, 7, 74, 64
1, 518, Control_c, 10, 74, 64
1, 519, Control_c, 14, 73, 64
1, 523, Pitch_bend_c, 5, 8192
1, 525, Control_c, 8, 74, 127
1, 526, Control_c, 15, 73, 64
1, 531, Control_c, 12, 74, 64
1, 535, Control_c, 11, 74, 64
1, 539, Control_c, 9, 74, 64
1, 540, Pitch_bend_c, 6, 8192
1, 540, Control_c, 13, 74, 127
1, 547, Pitch_bend_c, 7, 8192
1, 548, Pitch_bend_c, 10, 8192
1, 549, Control_c, 14, 74, 127
1, 555, Pitch_bend_c, 8, 8192
1, 556, Control_c, 15, 74, 50
1, 561, Pitch_bend_c, 12, 8192
1, 565, Pitch_bend_c, 11, 8192
1, 567, Control_c, 0, 94, 0
1, 569, Pitch_bend_c, 9, 8192
1, 570, Pitch_bend_c, 13, 8192
1, 578, Control_c, 1, 94, 0
1, 579, Pitch_bend_c, 14, 8192
1, 583, Control_c, 2, 94, 0
1, 583, Control_c, 3, 94, 0
1, 586, Pitch_bend_c, 15, 8192
1, 598, Control_c, 4, 94, 0
1, 613, Control_c, 5, 94, 0
1, 630, Control_c, 6, 94, 0
1, 637, Control_c, 7, 94, 0
1, 638, Control_c, 10, 94, 0
1, 645, Control_c, 8, 94, 0
1, 651, Control_c, 12, 94, 0
1, 655, Control_c, 11, 94, 0
1, 659, Control_c, 9, 94, 0
1, 660, Control_c, 13, 94, 0
1, 669, Control_c, 14, 94, 0
1, 676, Control_c, 15, 94, 0
1, 1943, Note_on_c, 3, 24, 2
1, 1943, Lyric_t, "* "
1, 1943, Lyric_t, "\015"
1, 1945, Note_on_c, 3, 24, 0
1, 2160, Note_on_c, 10, 24, 5
1, 2222, Note_on_c, 10, 26, 8
1, 2249, Note_on_c, 10, 24, 0
1, 2290, Note_on_c, 10, 26, 0
1, 2295, Note_on_c, 10, 28, 12
1, 2336, Note_on_c, 10, 28, 0
1, 2341, Note_on_c, 10, 29, 16
1, 2384, Note_on_c, 10, 31, 19
1, 2387, Note_on_c, 10, 29, 0
1, 2430, Note_on_c, 10, 33, 21
1, 2436, Note_on_c, 10, 31, 0
1, 2479, Note_on_c, 10, 35, 24
1, 2485, Note_on_c, 10, 33, 0
1, 2528, Note_on_c, 10, 36, 28
1, 2533, Note_on_c, 10, 35, 0
1, 2580, Note_on_c, 10, 38, 30
1, 2581, Note_on_c, 10, 36, 0
1, 2629, Note_on_c, 10, 40, 34
1, 2630, Note_on_c, 10, 38, 0
1, 2676, Note_on_c, 10, 41, 37
1, 2681, Note_on_c, 10, 40, 0
1, 2725, Note_on_c, 10, 43, 39
1, 2730, Note_on_c, 10, 41, 0
1, 2773, Note_on_c, 10, 45, 43
1, 2780, Note_on_c, 10, 43, 0
1, 2819, Note_on_c, 10, 47, 46
1, 2827, Note_on_c, 10, 45, 0
1, 2859, Control_c, 11, 11, 1
1, 2868, Note_on_c, 10, 48, 48
1, 2875, Note_on_c, 10, 47, 0
1, 2880, Note_on_c, 11, 60, 96
1, 2915, Note_on_c, 10, 50, 51
1, 2924, Note_on_c, 10, 48, 0
1, 2940, Control_c, 11, 11, 2
1, 2955, Control_c, 11, 11, 5
1, 2959, Control_c, 11, 11, 6
1, 2961, Note_on_c, 10, 52, 55
1, 2964, Control_c, 11, 11, 8
1, 2970, Control_c, 11, 11, 9
1, 2971, Note_on_c, 10, 50, 0
1, 2976, Control_c, 11, 11, 10
1, 2981, Control_c, 11, 11, 11
1, 2985, Control_c, 11, 11, 12
1, 2990, Control_c, 11, 11, 14
1, 2996, Control_c, 11, 11, 14
1, 3005, Control_c, 11, 11, 17
1, 3009, Note_on_c, 10, 53, 57
1, 3011, Control_c, 11, 11, 18
1, 3016, Control_c, 11, 11, 19
1, 3020, Note_on_c, 10, 52, 0
1, 3023, Control_c, 11, 11, 20
1, 3028, Control_c, 11, 11, 21
1, 3033, Control_c, 11, 11, 23
1, 3038, Control_c, 11, 11, 24
1, 3042, Control_c, 11, 11, 24
1, 3052, Control_c, 11, 11, 27
1, 3057, Control_c, 11, 11, 28
1, 3058, Note_on_c, 10, 55, 60
1, 3064, Control_c, 11, 11, 29
1, 3067, Note_on_c, 10, 53, 0
1, 3069, Control_c, 11, 11, 30
1, 3074, Control_c, 11, 11, 31
1, 3078, Control_c, 11, 11, 31
1, 3088, Control_c, 11, 11, 33
1, 3098, Control_c, 11, 11, 35
1, 3104, Note_on_c, 10, 57, 64
1, 3109, Control_c, 11, 11, 36
1, 3115, Note_on_c, 10, 55, 0
1, 3119, Control_c, 11, 11, 38
1, 3129, Control_c, 11, 11, 39
1, 3140, Control_c, 11, 11, 41
1, 3152, Control_c, 11, 11, 44
1, 3153, Note_on_c, 10, 59, 66
1, 3157, Control_c, 11, 11, 45
1, 3162, Control_c, 11, 11, 46
1, 3165, Note_on_c, 10, 57, 0
1, 3165, Note_on_c, 3, 24, 2
1, 3165, Lyric_t, "NIEWIARA "
1, 3165, Lyric_t, "\015"
1, 3167, Note_on_c, 3, 24, 0
1, 3167, Control_c, 11, 11, 47
1, 3171, Control_c, 11, 11, 47
1, 3181, Control_c, 11, 11, 50
1, 3187, Control_c, 11, 11, 50
1, 3197, Control_c, 11, 11, 51
1, 3199, Note_on_c, 10, 60, 69
1, 3208, Control_c, 11, 11, 53
1, 3211, Note_on_c, 10, 59, 0
1, 3218, Control_c, 11, 11, 54
1, 3228, Control_c, 11, 11, 56
1, 3238, Control_c, 11, 11, 57
1, 3248, Note_on_c, 10, 62, 73
1, 3249, Control_c, 11, 11, 58
1, 3258, Note_on_c, 10, 60, 0
1, 3258, Control_c, 11, 11, 59
1, 3270, Control_c, 11, 11, 61
1, 3280, Control_c, 11, 11, 62
1, 3290, Control_c, 11, 11, 63
1, 3293, Note_on_c, 10, 64, 75
1, 3299, Control_c, 11, 11, 64
1, 3307, Note_on_c, 10, 62, 0
1, 3309, Control_c, 11, 11, 65
1, 3319, Control_c, 11, 11, 66
1, 3330, Control_c, 11, 11, 67
1, 3340, Control_c, 11, 11, 69
1, 3341, Note_on_c, 10, 65, 78
1, 3350, Control_c, 11, 11, 70
1, 3354, Note_on_c, 10, 64, 0
1, 3361, Control_c, 11, 11, 71
1, 3372, Control_c, 11, 11, 72
1, 3382, Control_c, 11, 11, 74
1, 3387, Note_on_c, 10, 67, 82
1, 3392, Control_c, 11, 11, 75
1, 3401, Note_on_c, 10, 65, 0
1, 3403, Control_c, 11, 11, 77
1, 3412, Control_c, 11, 11, 78
1, 3424, Control_c, 11, 11, 80
1, 3433, Control_c, 11, 11, 82
1, 3436, Note_on_c, 10, 69, 84
1, 3443, Control_c, 11, 11, 84
1, 3448, Note_on_c, 10, 67, 0
1, 3449, Control_c, 11, 11, 85
1, 3454, Control_c, 11, 11, 85
1, 3465, Control_c, 11, 11, 88
1, 3469, Control_c, 11, 11, 89
1, 3474, Control_c, 11, 11, 90
1, 3479, Control_c, 11, 11, 90
1, 3484, Note_on_c, 10, 71, 87
1, 3490, Control_c, 11, 11, 93
1, 3492, Control_c, 8, 74, 3
1, 3495, Note_on_c, 10, 69, 0
1, 3496, Control_c, 11, 11, 94
1, 3501, Control_c, 11, 11, 95
1, 3506, Control_c, 11, 11, 96
1, 3510, Control_c, 11, 11, 97
1, 3515, Control_c, 11, 11, 98
1, 3520, Control_c, 11, 11, 100
1, 3525, Control_c, 11, 11, 101
1, 3529, Note_on_c, 10, 72, 89
1, 3531, Control_c, 11, 11, 102
1, 3536, Control_c, 11, 11, 103
1, 3541, Control_c, 11, 11, 105
1, 3542, Note_on_c, 10, 71, 0
1, 3547, Control_c, 11, 11, 106
1, 3552, Control_c, 11, 11, 108
1, 3556, Control_c, 11, 11, 109
1, 3561, Control_c, 11, 11, 111
1, 3566, Control_c, 11, 11, 112
1, 3571, Control_c, 11, 11, 114
1, 3577, Note_on_c, 10, 74, 93
1, 3577, Control_c, 11, 11, 115
1, 3583, Control_c, 11, 11, 117
1, 3588, Note_on_c, 10, 72, 0
1, 3588, Control_c, 11, 11, 118
1, 3593, Control_c, 11, 11, 120
1, 3596, Control_c, 11, 11, 121
1, 3603, Control_c, 11, 11, 123
1, 3608, Control_c, 11, 11, 124
1, 3614, Control_c, 11, 11, 124
1, 3620, Note_on_c, 10, 76, 96
1, 3624, Control_c, 11, 11, 125
1, 3632, Note_on_c, 10, 74, 0
1, 3645, Control_c, 8, 74, 4
1, 3650, Control_c, 11, 11, 127
1, 3663, Note_on_c, 10, 77, 98
1, 3678, Note_on_c, 10, 76, 0
1, 3691, Control_c, 8, 74, 5
1, 3703, Note_on_c, 10, 79, 101
1, 3716, Note_on_c, 10, 77, 0
1, 3740, Note_on_c, 10, 81, 103
1, 3753, Note_on_c, 10, 79, 0
1, 3768, Control_c, 8, 74, 6
1, 3777, Note_on_c, 10, 83, 105
1, 3792, Note_on_c, 10, 81, 0
1, 3804, Control_c, 8, 74, 7
1, 3817, Note_on_c, 10, 84, 109
1, 3823, Control_c, 6, 74, 8
1, 3823, Control_c, 8, 74, 8
1, 3830, Note_on_c, 10, 83, 0
1, 3839, Note_on_c, 11, 60, 0
1, 3840, Note_on_c, 6, 61, 100
1, 3840, Note_on_c, 8, 61, 95
1, 3840, Note_on_c, 9, 35, 115
1, 3840, Note_on_c, 9, 42, 71
1, 3840, Note_on_c, 9, 54, 26
1, 3840, Note_on_c, 9, 57, 80
1, 3856, Note_on_c, 9, 57, 0
1, 3856, Note_on_c, 9, 42, 0
1, 3856, Note_on_c, 9, 35, 0
1, 3856, Note_on_c, 9, 54, 0
1, 3861, Note_on_c, 10, 84, 0
1, 3894, Note_on_c, 8, 61, 0
1, 3894, Note_on_c, 6, 61, 0
1, 3929, Control_c, 6, 74, 9
1, 3929, Control_c, 8, 74, 9
1, 3960, Note_on_c, 6, 61, 100
1, 3960, Note_on_c, 8, 61, 95
1, 4014, Note_on_c, 8, 61, 0
1, 4014, Note_on_c, 6, 61, 0
1, 4020, Note_on_c, 6, 61, 100
1, 4020, Note_on_c, 8, 61, 95
1, 4037, Control_c, 6, 74, 10
1, 4037, Control_c, 8, 74, 10
1, 4074, Note_on_c, 8, 61, 0
1, 4074, Note_on_c, 6, 61, 0
1, 4080, Note_on_c, 6, 61, 100
1, 4080, Note_on_c, 8, 61, 95
1, 4080, Note_on_c, 9, 42, 119
1, 4080, Note_on_c, 9, 54, 102
1, 4080, Note_on_c, 12, 49, 60
1, 4080, Note_on_c, 12, 56, 90
1, 4080, Note_on_c, 12, 61, 90
1, 4080, Note_on_c, 12, 64, 90
1, 4080, Note_on_c, 12, 68, 90
1, 4096, Note_on_c, 9, 54, 0
1, 4096, Note_on_c, 9, 42, 0
1, 4134, Note_on_c, 6, 61, 0
1, 4134, Note_on_c, 8, 61, 0
1, 4150, Note_on_c, 12, 56, 0
1, 4150, Note_on_c, 12, 49, 0
1, 4150, Note_on_c, 12, 68, 0
1, 4150, Note_on_c, 12, 61, 0
1, 4150, Note_on_c, 12, 64, 0
1, 4183, Control_c, 6, 74, 11
1, 4183, Control_c, 8, 74, 11
1, 4231, Note_on_c, 3, 24, 2
1, 4231, Lyric_t, "*** "
1, 4231, Lyric_t, "\015"
1, 4233, Note_on_c, 3, 24, 0
1, 4303, Control_c, 7, 74, 8
1, 4320, Note_on_c, 6, 61, 100
1, 4320, Note_on_c, 7, 61, 80
1, 4320, Note_on_c, 8, 61, 95
1, 4320, Note_on_c, 9, 35, 115
1, 4320, Note_on_c, 9, 39, 81
1, 4320, Note_on_c, 9, 40, 60
1, 4320, Note_on_c, 9, 42, 72
1, 4320, Note_on_c, 9, 54, 27
1, 4336, Note_on_c, 9, 54, 0
1, 4336, Note_on_c, 9, 42, 0
1, 4336, Note_on_c, 9, 39, 0
1, 4336, Note_on_c, 9, 35, 0
1, 4336, Note_on_c, 9, 40, 0
1, 4374, Note_on_c, 6, 61, 0
1, 4374, Note_on_c, 8, 61, 0
1, 4374, Note_on_c, 7, 61, 0
1, 4398, Control_c, 6, 74, 12
1, 4398, Control_c, 8, 74, 12
1, 4409, Control_c, 7, 74, 9
1, 4440, Note_on_c, 7, 61, 80
1, 4494, Note_on_c, 7, 61, 0
1, 4500, Note_on_c, 7, 61, 80
1, 4517, Control_c, 7, 74, 10
1, 4554, Note_on_c, 7, 61, 0
1, 4560, Note_on_c, 7, 61, 80
1, 4560, Note_on_c, 9, 42, 119
1, 4560, Note_on_c, 9, 54, 102
1, 4560, Note_on_c, 12, 49, 60
1, 4560, Note_on_c, 12, 56, 90
1, 4560, Note_on_c, 12, 61, 90
1, 4560, Note_on_c, 12, 64, 90
1, 4560, Note_on_c, 12, 68, 90
1, 4561, Control_c, 6, 74, 13
1, 4561, Control_c, 8, 74, 13
1, 4576, Note_on_c, 9, 54, 0
1, 4576, Note_on_c, 9, 42, 0
1, 4614, Note_on_c, 7, 61, 0
1, 4630, Note_on_c, 12, 61, 0
1, 4630, Note_on_c, 12, 56, 0
1, 4630, Note_on_c, 12, 68, 0
1, 4630, Note_on_c, 12, 49, 0
1, 4630, Note_on_c, 12, 64, 0
1, 4663, Control_c, 7, 74, 11
1, 4668, Control_c, 6, 74, 14
1, 4668, Control_c, 8, 74, 14
1, 4680, Note_on_c, 6, 61, 100
1, 4680, Note_on_c, 8, 61, 95
1, 4734, Note_on_c, 8, 61, 0
1, 4734, Note_on_c, 6, 61, 0
1, 4800, Note_on_c, 7, 61, 80
1, 4800, Note_on_c, 9, 35, 115
1, 4800, Note_on_c, 9, 42, 72
1, 4800, Note_on_c, 9, 54, 27
1, 4816, Note_on_c, 9, 54, 0
1, 4816, Note_on_c, 9, 42, 0
1, 4816, Note_on_c, 9, 35, 0
1, 4854, Note_on_c, 7, 61, 0
1, 4859, Control_c, 6, 74, 15
1, 4859, Control_c, 8, 74, 15
1, 4878, Control_c, 7, 74, 12
1, 4920, Note_on_c, 6, 64, 100
1, 4920, Note_on_c, 8, 64, 95
1, 4974, Note_on_c, 8, 64, 0
1, 4974, Note_on_c, 6, 64, 0
1, 4987, Control_c, 6, 74, 16
1, 4987, Control_c, 8, 74, 16
1, 5040, Note_on_c, 9, 42, 119
1, 5040, Note_on_c, 9, 54, 102
1, 5040, Note_on_c, 12, 49, 60
1, 5040, Note_on_c, 12, 56, 90
1, 5040, Note_on_c, 12, 61, 90
1, 5040, Note_on_c, 12, 64, 90
1, 5040, Note_on_c, 12, 68, 90
1, 5041, Control_c, 7, 74, 13
1, 5056, Note_on_c, 9, 54, 0
1, 5056, Note_on_c, 9, 42, 0
1, 5110, Note_on_c, 12, 49, 0
1, 5110, Note_on_c, 12, 61, 0
1, 5110, Note_on_c, 12, 56, 0
1, 5110, Note_on_c, 12, 68, 0
1, 5110, Note_on_c, 12, 64, 0
1, 5148, Control_c, 7, 74, 14
1, 5160, Note_on_c, 6, 61, 100
1, 5160, Note_on_c, 7, 61, 80
1, 5160, Note_on_c, 8, 61, 95
1, 5214, Note_on_c, 8, 61, 0
1, 5214, Note_on_c, 7, 61, 0
1, 5214, Note_on_c, 6, 61, 0
1, 5280, Note_on_c, 6, 64, 100
1, 5280, Note_on_c, 8, 64, 95
1, 5280, Note_on_c, 9, 35, 115
1, 5280, Note_on_c, 9, 39, 81
1, 5280, Note_on_c, 9, 40, 60
1, 5280, Note_on_c, 9, 42, 72
1, 5280, Note_on_c, 9, 54, 27
1, 5296, Note_on_c, 9, 54, 0
1, 5296, Note_on_c, 9, 40, 0
1, 5296, Note_on_c, 9, 39, 0
1, 5296, Note_on_c, 9, 35, 0
1, 5296, Note_on_c, 9, 42, 0
1, 5316, Control_c, 6, 74, 17
1, 5316, Control_c, 8, 74, 17
1, 5334, Note_on_c, 6, 64, 0
1, 5334, Note_on_c, 8, 64, 0
1, 5339, Control_c, 7, 74, 15
1, 5400, Note_on_c, 7, 64, 80
1, 5429, Control_c, 6, 74, 18
1, 5429, Control_c, 8, 74, 18
1, 5453, Note_on_c, 3, 24, 2
1, 5453, Lyric_t, "z "
1, 5454, Note_on_c, 7, 64, 0
1, 5455, Note_on_c, 3, 24, 0
1, 5467, Control_c, 7, 74, 16
1, 5520, Note_on_c, 6, 61, 100
1, 5520, Note_on_c, 8, 61, 95
1, 5520, Note_on_c, 9, 42, 119
1, 5520, Note_on_c, 9, 54, 102
1, 5520, Note_on_c, 12, 49, 60
1, 5520, Note_on_c, 12, 56, 90
1, 5520, Note_on_c, 12, 61, 90
1, 5520, Note_on_c, 12, 64, 90
1, 5520, Note_on_c, 12, 68, 90
1, 5536, Note_on_c, 9, 54, 0
1, 5536, Note_on_c, 9, 42, 0
1, 5574, Note_on_c, 6, 61, 0
1, 5574, Note_on_c, 8, 61, 0
1, 5590, Note_on_c, 12, 56, 0
1, 5590, Note_on_c, 12, 49, 0
1, 5590, Note_on_c, 12, 68, 0
1, 5590, Note_on_c, 12, 61, 0
1, 5590, Note_on_c, 12, 64, 0
1, 5632, Control_c, 6, 74, 19
1, 5632, Control_c, 8, 74, 19
1, 5640, Note_on_c, 7, 61, 80
1, 5694, Note_on_c, 7, 61, 0
1, 5760, Note_on_c, 6, 57, 100
1, 5760, Note_on_c, 7, 64, 80
1, 5760, Note_on_c, 8, 57, 95
1, 5760, Note_on_c, 9, 35, 115
1, 5760, Note_on_c, 9, 42, 71
1, 5760, Note_on_c, 9, 54, 26
1, 5776, Note_on_c, 9, 54, 0
1, 5776, Note_on_c, 9, 35, 0
1, 5776, Note_on_c, 9, 42, 0
1, 5796, Control_c, 7, 74, 17
1, 5806, Control_c, 6, 74, 20
1, 5806, Control_c, 8, 74, 20
1, 5814, Note_on_c, 6, 57, 0
1, 5814, Note_on_c, 8, 57, 0
1, 5814, Note_on_c, 7, 64, 0
1, 5880, Note_on_c, 6, 57, 100
1, 5880, Note_on_c, 8, 57, 95
1, 5909, Control_c, 7, 74, 18
1, 5933, Control_c, 6, 74, 21
1, 5933, Control_c, 8, 74, 21
1, 5934, Note_on_c, 8, 57, 0
1, 5934, Note_on_c, 6, 57, 0
1, 5940, Note_on_c, 6, 57, 100
1, 5940, Note_on_c, 8, 57, 95
1, 5994, Note_on_c, 8, 57, 0
1, 5994, Note_on_c, 6, 57, 0
1, 6000, Note_on_c, 6, 57, 100
1, 6000, Note_on_c, 7, 61, 80
1, 6000, Note_on_c, 8, 57, 95
1, 6000, Note_on_c, 9, 42, 119
1, 6000, Note_on_c, 9, 54, 102
1, 6000, Note_on_c, 12, 49, 60
1, 6000, Note_on_c, 12, 57, 90
1, 6000, Note_on_c, 12, 61, 90
1, 6000, Note_on_c, 12, 64, 90
1, 6000, Note_on_c, 12, 69, 90
1, 6016, Note_on_c, 9, 54, 0
1, 6016, Note_on_c, 9, 42, 0
1, 6029, Control_c, 6, 74, 22
1, 6029, Control_c, 8, 74, 22
1, 6054, Note_on_c, 6, 57, 0
1, 6054, Note_on_c, 8, 57, 0
1, 6054, Note_on_c, 7, 61, 0
1, 6070, Note_on_c, 12, 49, 0
1, 6070, Note_on_c, 12, 64, 0
1, 6070, Note_on_c, 12, 69, 0
1, 6070, Note_on_c, 12, 57, 0
1, 6070, Note_on_c, 12, 61, 0
1, 6074, Control_c, 6, 74, 23
1, 6074, Control_c, 8, 74, 23
1, 6112, Control_c, 7, 74, 19
1, 6240, Note_on_c, 6, 57, 100
1, 6240, Note_on_c, 7, 57, 80
1, 6240, Note_on_c, 8, 57, 95
1, 6240, Note_on_c, 9, 35, 115
1, 6240, Note_on_c, 9, 39, 81
1, 6240, Note_on_c, 9, 40, 60
1, 6240, Note_on_c, 9, 42, 72
1, 6240, Note_on_c, 9, 54, 27
1, 6256, Note_on_c, 9, 54, 0
1, 6256, Note_on_c, 9, 42, 0
1, 6256, Note_on_c, 9, 39, 0
1, 6256, Note_on_c, 9, 35, 0
1, 6256, Note_on_c, 9, 40, 0
1, 6273, Control_c, 6, 74, 24
1, 6273, Control_c, 8, 74, 24
1, 6286, Control_c, 7, 74, 20
1, 6294, Note_on_c, 6, 57, 0
1, 6294, Note_on_c, 8, 57, 0
1, 6294, Note_on_c, 7, 57, 0
1, 6360, Note_on_c, 7, 57, 80
1, 6413, Control_c, 7, 74, 21
1, 6414, Note_on_c, 7, 57, 0
1, 6420, Note_on_c, 7, 57, 80
1, 6440, Control_c, 6, 74, 25
1, 6440, Control_c, 8, 74, 25
1, 6474, Note_on_c, 7, 57, 0
1, 6480, Note_on_c, 7, 57, 80
1, 6480, Note_on_c, 9, 42, 119
1, 6480, Note_on_c, 9, 54, 102
1, 6480, Note_on_c, 12, 49, 60
1, 6480, Note_on_c, 12, 57, 90
1, 6480, Note_on_c, 12, 61, 90
1, 6480, Note_on_c, 12, 64, 90
1, 6480, Note_on_c, 12, 69, 90
1, 6496, Note_on_c, 9, 54, 0
1, 6496, Note_on_c, 9, 42, 0
1, 6509, Control_c, 7, 74, 22
1, 6534, Note_on_c, 7, 57, 0
1, 6543, Control_c, 6, 74, 26
1, 6543, Control_c, 8, 74, 26
1, 6550, Note_on_c, 12, 61, 0
1, 6550, Note_on_c, 12, 57, 0
1, 6550, Note_on_c, 12, 69, 0
1, 6550, Note_on_c, 12, 49, 0
1, 6550, Note_on_c, 12, 64, 0
1, 6554, Control_c, 7, 74, 23
1, 6582, Note_on_c, 3, 24, 2
1, 6582, Lyric_t, "rep. "
1, 6582, Lyric_t, "\015"
1, 6584, Note_on_c, 3, 24, 0
1, 6600, Note_on_c, 6, 57, 100
1, 6600, Note_on_c, 8, 57, 95
1, 6654, Note_on_c, 8, 57, 0
1, 6654, Note_on_c, 6, 57, 0
1, 6720, Note_on_c, 7, 57, 80
1, 6720, Note_on_c, 9, 35, 115
1, 6720, Note_on_c, 9, 42, 72
1, 6720, Note_on_c, 9, 54, 27
1, 6736, Note_on_c, 9, 54, 0
1, 6736, Note_on_c, 9, 42, 0
1, 6736, Note_on_c, 9, 35, 0
1, 6753, Control_c, 7, 74, 24
1, 6759, Control_c, 6, 74, 27
1, 6759, Control_c, 8, 74, 27
1, 6774, Note_on_c, 7, 57, 0
1, 6840, Note_on_c, 6, 61, 100
1, 6840, Note_on_c, 8, 61, 95
1, 6894, Note_on_c, 8, 61, 0
1, 6894, Note_on_c, 6, 61, 0
1, 6920, Control_c, 7, 74, 25
1, 6960, Note_on_c, 9, 42, 119
1, 6960, Note_on_c, 9, 54, 102
1, 6960, Note_on_c, 12, 49, 60
1, 6960, Note_on_c, 12, 57, 90
1, 6960, Note_on_c, 12, 61, 90
1, 6960, Note_on_c, 12, 64, 90
1, 6960, Note_on_c, 12, 69, 90
1, 6976, Note_on_c, 9, 54, 0
1, 6976, Note_on_c, 9, 42, 0
1, 7023, Control_c, 7, 74, 26
1, 7030, Note_on_c, 12, 49, 0
1, 7030, Note_on_c, 12, 61, 0
1, 7030, Note_on_c, 12, 57, 0
1, 7030, Note_on_c, 12, 69, 0
1, 7030, Note_on_c, 12, 64, 0
1, 7030, Control_c, 6, 74, 28
1, 7030, Control_c, 8, 74, 28
1, 7080, Note_on_c, 6, 57, 100
1, 7080, Note_on_c, 7, 57, 80
1, 7080, Note_on_c, 8, 57, 95
1, 7134, Note_on_c, 8, 57, 0
1, 7134, Note_on_c, 7, 57, 0
1, 7134, Note_on_c, 6, 57, 0
1, 7183, Control_c, 6, 74, 29
1, 7183, Control_c, 8, 74, 29
1, 7200, Note_on_c, 6, 61, 100
1, 7200, Note_on_c, 8, 61, 95
1, 7200, Note_on_c, 9, 35, 115
1, 7200, Note_on_c, 9, 39, 81
1, 7200, Note_on_c, 9, 40, 60
1, 7200, Note_on_c, 9, 42, 72
1, 7200, Note_on_c, 9, 54, 27
1, 7216, Note_on_c, 9, 54, 0
1, 7216, Note_on_c, 9, 40, 0
1, 7216, Note_on_c, 9, 39, 0
1, 7216, Note_on_c, 9, 35, 0
1, 7216, Note_on_c, 9, 42, 0
1, 7239, Control_c, 7, 74, 27
1, 7253, Control_c, 6, 74, 30
1, 7253, Control_c, 8, 74, 30
1, 7254, Note_on_c, 6, 61, 0
1, 7254, Note_on_c, 8, 61, 0
1, 7284, Control_c, 6, 74, 31
1, 7284, Control_c, 8, 74, 31
1, 7306, Control_c, 6, 74, 32
1, 7306, Control_c, 8, 74, 32
1, 7320, Note_on_c, 7, 61, 80
1, 7335, Control_c, 6, 74, 33
1, 7335, Control_c, 8, 74, 33
1, 7374, Note_on_c, 7, 61, 0
1, 7431, Control_c, 6, 74, 34
1, 7431, Control_c, 8, 74, 34
1, 7440, Note_on_c, 6, 57, 100
1, 7440, Note_on_c, 8, 57, 95
1, 7440, Note_on_c, 9, 42, 119
1, 7440, Note_on_c, 9, 54, 102
1, 7440, Note_on_c, 12, 49, 60
1, 7440, Note_on_c, 12, 57, 90
1, 7440, Note_on_c, 12, 61, 90
1, 7440, Note_on_c, 12, 64, 90
1, 7440, Note_on_c, 12, 69, 90
1, 7456, Note_on_c, 9, 54, 0
1, 7456, Note_on_c, 9, 42, 0
1, 7494, Note_on_c, 6, 57, 0
1, 7494, Note_on_c, 8, 57, 0
1, 7510, Note_on_c, 12, 57, 0
1, 7510, Note_on_c, 12, 49, 0
1, 7510, Note_on_c, 12, 69, 0
1, 7510, Note_on_c, 12, 61, 0
1, 7510, Note_on_c, 12, 64, 0
1, 7510, Control_c, 7, 74, 28
1, 7543, Control_c, 6, 74, 35
1, 7543, Control_c, 8, 74, 35
1, 7560, Note_on_c, 7, 57, 80
1, 7614, Note_on_c, 7, 57, 0
1, 7614, Control_c, 6, 74, 36
1, 7614, Control_c, 8, 74, 36
1, 7663, Control_c, 7, 74, 29
1, 7676, Control_c, 6, 74, 37
1, 7676, Control_c, 8, 74, 37
1, 7680, Note_on_c, 6, 59, 100
1, 7680, Note_on_c, 7, 61, 80
1, 7680, Note_on_c, 8, 59, 95
1, 7680, Note_on_c, 9, 35, 115
1, 7680, Note_on_c, 9, 42, 71
1, 7680, Note_on_c, 9, 54, 26
1, 7696, Note_on_c, 9, 54, 0
1, 7696, Note_on_c, 9, 35, 0
1, 7696, Note_on_c, 9, 42, 0
1, 7733, Control_c, 7, 74, 30
1, 7734, Note_on_c, 6, 59, 0
1, 7734, Note_on_c, 8, 59, 0
1, 7734, Note_on_c, 7, 61, 0
1, 7741, Note_on_c, 3, 24, 2
1, 7741, Lyric_t, "Piêkni "
1, 7743, Note_on_c, 3, 24, 0
1, 7764, Control_c, 7, 74, 31
1, 7786, Control_c, 7, 74, 32
1, 7800, Note_on_c, 6, 59, 100
1, 7800, Note_on_c, 8, 59, 95
1, 7815, Control_c, 7, 74, 33
1, 7843, Control_c, 6, 74, 38
1, 7843, Control_c, 8, 74, 38
1, 7854, Note_on_c, 8, 59, 0
1, 7854, Note_on_c, 6, 59, 0
1, 7860, Note_on_c, 6, 59, 100
1, 7860, Note_on_c, 8, 59, 95
1, 7911, Control_c, 7, 74, 34
1, 7914, Note_on_c, 8, 59, 0
1, 7914, Note_on_c, 6, 59, 0
1, 7920, Note_on_c, 6, 59, 100
1, 7920, Note_on_c, 7, 57, 80
1, 7920, Note_on_c, 8, 59, 95
1, 7920, Note_on_c, 9, 42, 119
1, 7920, Note_on_c, 9, 54, 102
1, 7920, Note_on_c, 12, 51, 60
1, 7920, Note_on_c, 12, 59, 90
1, 7920, Note_on_c, 12, 63, 90
1, 7920, Note_on_c, 12, 66, 90
1, 7920, Note_on_c, 12, 71, 90
1, 7936, Note_on_c, 9, 54, 0
1, 7936, Note_on_c, 9, 42, 0
1, 7974, Note_on_c, 6, 59, 0
1, 7974, Note_on_c, 8, 59, 0
1, 7974, Note_on_c, 7, 57, 0
1, 7990, Note_on_c, 12, 51, 0
1, 7990, Note_on_c, 12, 66, 0
1, 7990, Note_on_c, 12, 71, 0
1, 7990, Note_on_c, 12, 59, 0
1, 7990, Note_on_c, 12, 63, 0
1, 7991, Control_c, 6, 74, 39
1, 7991, Control_c, 8, 74, 39
1, 8023, Control_c, 7, 74, 35
1, 8094, Control_c, 7, 74, 36
1, 8156, Control_c, 7, 74, 37
1, 8160, Note_on_c, 6, 59, 100
1, 8160, Note_on_c, 7, 59, 80
1, 8160, Note_on_c, 8, 59, 95
1, 8160, Note_on_c, 9, 35, 115
1, 8160, Note_on_c, 9, 39, 81
1, 8160, Note_on_c, 9, 40, 60
1, 8160, Note_on_c, 9, 42, 72
1, 8160, Note_on_c, 9, 54, 27
1, 8164, Control_c, 6, 74, 40
1, 8164, Control_c, 8, 74, 40
1, 8176, Note_on_c, 9, 54, 0
1, 8176, Note_on_c, 9, 42, 0
1, 8176, Note_on_c, 9, 39, 0
1, 8176, Note_on_c, 9, 35, 0
1, 8176, Note_on_c, 9, 40, 0
1, 8214, Note_on_c, 6, 59, 0
1, 8214, Note_on_c, 8, 59, 0
1, 8214, Note_on_c, 7, 59, 0
1, 8280, Note_on_c, 7, 59, 80
1, 8323, Control_c, 7, 74, 38
1, 8334, Note_on_c, 7, 59, 0
1, 8340, Note_on_c, 7, 59, 80
1, 8394, Note_on_c, 7, 59, 0
1, 8400, Note_on_c, 7, 59, 80
1, 8400, Note_on_c, 9, 42, 119
1, 8400, Note_on_c, 9, 54, 102
1, 8400, Note_on_c, 12, 51, 60
1, 8400, Note_on_c, 12, 59, 90
1, 8400, Note_on_c, 12, 63, 90
1, 8400, Note_on_c, 12, 66, 90
1, 8400, Note_on_c, 12, 71, 90
1, 8416, Note_on_c, 9, 54, 0
1, 8416, Note_on_c, 9, 42, 0
1, 8454, Note_on_c, 7, 59, 0
1, 8468, Control_c, 6, 74, 41
1, 8468, Control_c, 8, 74, 41
1, 8470, Note_on_c, 12, 63, 0
1, 8470, Note_on_c, 12, 59, 0
1, 8470, Note_on_c, 12, 71, 0
1, 8470, Note_on_c, 12, 51, 0
1, 8470, Note_on_c, 12, 66, 0
1, 8471, Control_c, 7, 74, 39
1, 8520, Note_on_c, 6, 59, 100
1, 8520, Note_on_c, 8, 59, 95
1, 8574, Note_on_c, 8, 59, 0
1, 8574, Note_on_c, 6, 59, 0
1, 8640, Note_on_c, 7, 59, 80
1, 8640, Note_on_c, 9, 35, 115
1, 8640, Note_on_c, 9, 42, 72
1, 8640, Note_on_c, 9, 54, 27
1, 8644, Control_c, 7, 74, 40
1, 8656, Note_on_c, 9, 54, 0
1, 8656, Note_on_c, 9, 42, 0
1, 8656, Note_on_c, 9, 35, 0
1, 8687, Control_c, 6, 74, 42
1, 8687, Control_c, 8, 74, 42
1, 8694, Note_on_c, 7, 59, 0
1, 8760, Note_on_c, 6, 63, 100
1, 8760, Note_on_c, 8, 63, 95
1, 8810, Control_c, 6, 74, 43
1, 8810, Control_c, 8, 74, 43
1, 8814, Note_on_c, 8, 63, 0
1, 8814, Note_on_c, 6, 63, 0
1, 8880, Note_on_c, 9, 42, 119
1, 8880, Note_on_c, 9, 54, 102
1, 8880, Note_on_c, 12, 51, 60
1, 8880, Note_on_c, 12, 59, 90
1, 8880, Note_on_c, 12, 63, 90
1, 8880, Note_on_c, 12, 66, 90
1, 8880, Note_on_c, 12, 71, 90
1, 8896, Note_on_c, 9, 54, 0
1, 8896, Note_on_c, 9, 42, 0
1, 8932, Note_on_c, 3, 24, 2
1, 8932, Lyric_t, "i "
1, 8934, Note_on_c, 3, 24, 0
1, 8948, Control_c, 7, 74, 41
1, 8950, Note_on_c, 12, 71, 0
1, 8950, Note_on_c, 12, 63, 0
1, 8950, Note_on_c, 12, 59, 0
1, 8950, Note_on_c, 12, 51, 0
1, 8950, Note_on_c, 12, 66, 0
1, 8981, Control_c, 6, 74, 44
1, 8981, Control_c, 8, 74, 44
1, 9000, Note_on_c, 6, 59, 100
1, 9000, Note_on_c, 7, 59, 80
1, 9000, Note_on_c, 8, 59, 95
1, 9054, Note_on_c, 8, 59, 0
1, 9054, Note_on_c, 7, 59, 0
1, 9054, Note_on_c, 6, 59, 0
1, 9120, Note_on_c, 6, 63, 100
1, 9120, Note_on_c, 8, 63, 95
1, 9120, Note_on_c, 9, 35, 115
1, 9120, Note_on_c, 9, 39, 81
1, 9120, Note_on_c, 9, 40, 60
1, 9120, Note_on_c, 9, 42, 72
1, 9120, Note_on_c, 9, 54, 27
1, 9136, Note_on_c, 9, 54, 0
1, 9136, Note_on_c, 9, 40, 0
1, 9136, Note_on_c, 9, 39, 0
1, 9136, Note_on_c, 9, 35, 0
1, 9136, Note_on_c, 9, 42, 0
1, 9167, Control_c, 7, 74, 42
1, 9174, Note_on_c, 6, 63, 0
1, 9174, Note_on_c, 8, 63, 0
1, 9185, Control_c, 6, 74, 45
1, 9185, Control_c, 8, 74, 45
1, 9240, Note_on_c, 7, 63, 80
1, 9290, Control_c, 7, 74, 43
1, 9294, Note_on_c, 7, 63, 0
1, 9360, Note_on_c, 6, 59, 100
1, 9360, Note_on_c, 8, 59, 95
1, 9360, Note_on_c, 9, 42, 119
1, 9360, Note_on_c, 9, 54, 102
1, 9360, Note_on_c, 12, 51, 60
1, 9360, Note_on_c, 12, 59, 90
1, 9360, Note_on_c, 12, 63, 90
1, 9360, Note_on_c, 12, 66, 90
1, 9360, Note_on_c, 12, 71, 90
1, 9376, Note_on_c, 9, 54, 0
1, 9376, Note_on_c, 9, 42, 0
1, 9380, Control_c, 6, 74, 46
1, 9380, Control_c, 8, 74, 46
1, 9414, Note_on_c, 6, 59, 0
1, 9414, Note_on_c, 8, 59, 0
1, 9430, Note_on_c, 12, 59, 0
1, 9430, Note_on_c, 12, 51, 0
1, 9430, Note_on_c, 12, 71, 0
1, 9430, Note_on_c, 12, 63, 0
1, 9430, Note_on_c, 12, 66, 0
1, 9461, Control_c, 7, 74, 44
1, 9480, Note_on_c, 7, 59, 80
1, 9491, Control_c, 6, 74, 47
1, 9491, Control_c, 8, 74, 47
1, 9534, Note_on_c, 7, 59, 0
1, 9576, Control_c, 6, 74, 48
1, 9576, Control_c, 8, 74, 48
1, 9600, Note_on_c, 6, 64, 100
1, 9600, Note_on_c, 7, 63, 80
1, 9600, Note_on_c, 8, 64, 95
1, 9600, Note_on_c, 9, 35, 115
1, 9600, Note_on_c, 9, 42, 71
1, 9600, Note_on_c, 9, 54, 26
1, 9616, Note_on_c, 9, 54, 0
1, 9616, Note_on_c, 9, 35, 0
1, 9616, Note_on_c, 9, 42, 0
1, 9654, Note_on_c, 6, 64, 0
1, 9654, Note_on_c, 8, 64, 0
1, 9654, Note_on_c, 7, 63, 0
1, 9665, Control_c, 7, 74, 45
1, 9678, Control_c, 6, 74, 49
1, 9678, Control_c, 8, 74, 49
1, 9720, Note_on_c, 6, 64, 100
1, 9720, Note_on_c, 8, 64, 95
1, 9774, Note_on_c, 8, 64, 0
1, 9774, Note_on_c, 6, 64, 0
1, 9780, Note_on_c, 6, 64, 100
1, 9780, Note_on_c, 8, 64, 95
1, 9830, Control_c, 6, 74, 50
1, 9830, Control_c, 8, 74, 50
1, 9834, Note_on_c, 8, 64, 0
1, 9834, Note_on_c, 6, 64, 0
1, 9840, Note_on_c, 6, 64, 100
1, 9840, Note_on_c, 7, 59, 80
1, 9840, Note_on_c, 8, 64, 95
1, 9840, Note_on_c, 9, 42, 119
1, 9840, Note_on_c, 9, 54, 102
1, 9840, Note_on_c, 12, 52, 60
1, 9840, Note_on_c, 12, 59, 90
1, 9840, Note_on_c, 12, 64, 90
1, 9840, Note_on_c, 12, 68, 90
1, 9840, Note_on_c, 12, 71, 90
1, 9856, Note_on_c, 9, 54, 0
1, 9856, Note_on_c, 9, 42, 0
1, 9860, Control_c, 7, 74, 46
1, 9894, Note_on_c, 6, 64, 0
1, 9894, Note_on_c, 8, 64, 0
1, 9894, Note_on_c, 7, 59, 0
1, 9910, Note_on_c, 12, 52, 0
1, 9910, Note_on_c, 12, 68, 0
1, 9910, Note_on_c, 12, 71, 0
1, 9910, Note_on_c, 12, 59, 0
1, 9910, Note_on_c, 12, 64, 0
1, 9971, Control_c, 7, 74, 47
1, 10030, Control_c, 6, 74, 51
1, 10030, Control_c, 8, 74, 51
1, 10056, Control_c, 7, 74, 48
1, 10060, Note_on_c, 3, 24, 2
1, 10060, Lyric_t, "M³odzi "
1, 10060, Lyric_t, "\015"
1, 10062, Note_on_c, 3, 24, 0
1, 10080, Note_on_c, 6, 64, 100
1, 10080, Note_on_c, 7, 64, 80
1, 10080, Note_on_c, 8, 64, 95
1, 10080, Note_on_c, 9, 35, 115
1, 10080, Note_on_c, 9, 39, 81
1, 10080, Note_on_c, 9, 40, 60
1, 10080, Note_on_c, 9, 42, 72
1, 10080, Note_on_c, 9, 54, 27
1, 10096, Note_on_c, 9, 54, 0
1, 10096, Note_on_c, 9, 42, 0
1, 10096, Note_on_c, 9, 39, 0
1, 10096, Note_on_c, 9, 35, 0
1, 10096, Note_on_c, 9, 40, 0
1, 10134, Note_on_c, 6, 64, 0
1, 10134, Note_on_c, 8, 64, 0
1, 10134, Note_on_c, 7, 64, 0
1, 10158, Control_c, 7, 74, 49
1, 10200, Note_on_c, 7, 64, 80
1, 10217, Control_c, 6, 74, 52
1, 10217, Control_c, 8, 74, 52
1, 10254, Note_on_c, 7, 64, 0
1, 10260, Note_on_c, 7, 64, 80
1, 10310, Control_c, 7, 74, 50
1, 10314, Note_on_c, 7, 64, 0
1, 10320, Note_on_c, 7, 64, 80
1, 10320, Note_on_c, 9, 42, 119
1, 10320, Note_on_c, 9, 54, 102
1, 10320, Note_on_c, 12, 52, 60
1, 10320, Note_on_c, 12, 59, 90
1, 10320, Note_on_c, 12, 64, 90
1, 10320, Note_on_c, 12, 68, 90
1, 10320, Note_on_c, 12, 71, 90
1, 10336, Note_on_c, 9, 54, 0
1, 10336, Note_on_c, 9, 42, 0
1, 10374, Note_on_c, 7, 64, 0
1, 10390, Note_on_c, 12, 64, 0
1, 10390, Note_on_c, 12, 59, 0
1, 10390, Note_on_c, 12, 71, 0
1, 10390, Note_on_c, 12, 52, 0
1, 10390, Note_on_c, 12, 68, 0
1, 10400, Control_c, 6, 74, 53
1, 10400, Control_c, 8, 74, 53
1, 10440, Note_on_c, 6, 63, 100
1, 10440, Note_on_c, 8, 63, 95
1, 10494, Note_on_c, 8, 63, 0
1, 10494, Note_on_c, 6, 63, 0
1, 10510, Control_c, 7, 74, 51
1, 10526, Control_c, 6, 74, 54
1, 10526, Control_c, 8, 74, 54
1, 10560, Note_on_c, 7, 64, 80
1, 10560, Note_on_c, 9, 35, 115
1, 10560, Note_on_c, 9, 42, 72
1, 10560, Note_on_c, 9, 54, 27
1, 10576, Note_on_c, 9, 54, 0
1, 10576, Note_on_c, 9, 42, 0
1, 10576, Note_on_c, 9, 35, 0
1, 10614, Note_on_c, 7, 64, 0
1, 10680, Note_on_c, 6, 64, 100
1, 10680, Note_on_c, 8, 64, 95
1, 10697, Control_c, 7, 74, 52
1, 10698, Control_c, 6, 74, 55
1, 10698, Control_c, 8, 74, 55
1, 10734, Note_on_c, 8, 64, 0
1, 10734, Note_on_c, 6, 64, 0
1, 10800, Note_on_c, 9, 46, 109
1, 10800, Note_on_c, 9, 54, 102
1, 10800, Note_on_c, 12, 51, 60
1, 10800, Note_on_c, 12, 59, 90
1, 10800, Note_on_c, 12, 63, 90
1, 10800, Note_on_c, 12, 68, 90
1, 10800, Note_on_c, 12, 71, 90
1, 10812, Control_c, 6, 74, 56
1, 10812, Control_c, 8, 74, 56
1, 10816, Note_on_c, 9, 54, 0
1, 10816, Note_on_c, 9, 46, 0
1, 10870, Note_on_c, 12, 51, 0
1, 10870, Note_on_c, 12, 63, 0
1, 10870, Note_on_c, 12, 59, 0
1, 10870, Note_on_c, 12, 71, 0
1, 10870, Note_on_c, 12, 68, 0
1, 10880, Control_c, 7, 74, 53
1, 10907, Control_c, 6, 74, 57
1, 10907, Control_c, 8, 74, 57
1, 10920, Note_on_c, 6, 63, 100
1, 10920, Note_on_c, 7, 63, 80
1, 10920, Note_on_c, 8, 63, 95
1, 10974, Note_on_c, 8, 63, 0
1, 10974, Note_on_c, 7, 63, 0
1, 10974, Note_on_c, 6, 63, 0
1, 10994, Control_c, 6, 74, 58
1, 10994, Control_c, 8, 74, 58
1, 11006, Control_c, 7, 74, 54
1, 11040, Note_on_c, 6, 64, 100
1, 11040, Note_on_c, 8, 64, 95
1, 11040, Note_on_c, 9, 35, 115
1, 11040, Note_on_c, 9, 39, 81
1, 11040, Note_on_c, 9, 40, 60
1, 11040, Note_on_c, 9, 42, 72
1, 11040, Note_on_c, 9, 54, 27
1, 11056, Note_on_c, 9, 54, 0
1, 11056, Note_on_c, 9, 40, 0
1, 11056, Note_on_c, 9, 39, 0
1, 11056, Note_on_c, 9, 35, 0
1, 11056, Note_on_c, 9, 42, 0
1, 11085, Control_c, 6, 74, 59
1, 11085, Control_c, 8, 74, 59
1, 11094, Note_on_c, 6, 64, 0
1, 11094, Note_on_c, 8, 64, 0
1, 11126, Note_on_c, 3, 24, 2
1, 11126, Lyric_t, "+++++++++++ "
1, 11126, Lyric_t, "\015"
1, 11128, Note_on_c, 3, 24, 0
1, 11160, Note_on_c, 7, 64, 80
1, 11178, Control_c, 7, 74, 55
1, 11214, Note_on_c, 7, 64, 0
1, 11223, Control_c, 6, 74, 60
1, 11223, Control_c, 8, 74, 60
1, 11280, Note_on_c, 6, 63, 100
1, 11280, Note_on_c, 8, 63, 95
1, 11280, Note_on_c, 9, 42, 119
1, 11280, Note_on_c, 9, 54, 102
1, 11280, Note_on_c, 12, 51, 60
1, 11280, Note_on_c, 12, 59, 90
1, 11280, Note_on_c, 12, 63, 90
1, 11280, Note_on_c, 12, 68, 90
1, 11280, Note_on_c, 12, 71, 90
1, 11292, Control_c, 7, 74, 56
1, 11293, Control_c, 6, 74, 61
1, 11293, Control_c, 8, 74, 61
1, 11296, Note_on_c, 9, 54, 0
1, 11296, Note_on_c, 9, 42, 0
1, 11334, Note_on_c, 6, 63, 0
1, 11334, Note_on_c, 8, 63, 0
1, 11350, Note_on_c, 12, 59, 0
1, 11350, Note_on_c, 12, 51, 0
1, 11350, Note_on_c, 12, 71, 0
1, 11350, Note_on_c, 12, 63, 0
1, 11350, Note_on_c, 12, 68, 0
1, 11375, Control_c, 6, 74, 62
1, 11375, Control_c, 8, 74, 62
1, 11387, Control_c, 7, 74, 57
1, 11400, Note_on_c, 7, 63, 80
1, 11432, Note_on_c, 9, 54, 74
1, 11448, Note_on_c, 9, 54, 0
1, 11454, Note_on_c, 7, 63, 0
1, 11474, Control_c, 7, 74, 58
1, 11520, Note_on_c, 6, 61, 100
1, 11520, Note_on_c, 7, 64, 80
1, 11520, Note_on_c, 8, 61, 95
1, 11520, Note_on_c, 9, 35, 115
1, 11520, Note_on_c, 9, 42, 71
1, 11520, Note_on_c, 9, 54, 26
1, 11536, Note_on_c, 9, 54, 0
1, 11536, Note_on_c, 9, 35, 0
1, 11536, Note_on_c, 9, 42, 0
1, 11565, Control_c, 7, 74, 59
1, 11574, Note_on_c, 6, 61, 0
1, 11574, Note_on_c, 8, 61, 0
1, 11574, Note_on_c, 7, 64, 0
1, 11599, Control_c, 6, 74, 63
1, 11599, Control_c, 8, 74, 63
1, 11640, Note_on_c, 6, 61, 100
1, 11640, Note_on_c, 8, 61, 95
1, 11694, Note_on_c, 8, 61, 0
1, 11694, Note_on_c, 6, 61, 0
1, 11700, Note_on_c, 6, 61, 100
1, 11700, Note_on_c, 8, 61, 95
1, 11703, Control_c, 7, 74, 60
1, 11754, Note_on_c, 8, 61, 0
1, 11754, Note_on_c, 6, 61, 0
1, 11760, Note_on_c, 6, 61, 100
1, 11760, Note_on_c, 7, 63, 80
1, 11760, Note_on_c, 8, 61, 95
1, 11760, Note_on_c, 9, 42, 119
1, 11760, Note_on_c, 9, 54, 102
1, 11760, Note_on_c, 12, 49, 60
1, 11760, Note_on_c, 12, 56, 90
1, 11760, Note_on_c, 12, 61, 90
1, 11760, Note_on_c, 12, 64, 90
1, 11760, Note_on_c, 12, 68, 90
1, 11773, Control_c, 7, 74, 61
1, 11776, Note_on_c, 9, 54, 0
1, 11776, Note_on_c, 9, 42, 0
1, 11812, Control_c, 6, 74, 64
1, 11812, Control_c, 8, 74, 64
1, 11814, Note_on_c, 6, 61, 0
1, 11814, Note_on_c, 8, 61, 0
1, 11814, Note_on_c, 7, 63, 0
1, 11830, Note_on_c, 12, 49, 0
1, 11830, Note_on_c, 12, 64, 0
1, 11830, Note_on_c, 12, 68, 0
1, 11830, Note_on_c, 12, 56, 0
1, 11830, Note_on_c, 12, 61, 0
1, 11855, Control_c, 7, 74, 62
1, 11875, Control_c, 6, 74, 65
1, 11875, Control_c, 8, 74, 65
1, 11920, Control_c, 6, 74, 66
1, 11920, Control_c, 8, 74, 66
1, 12000, Note_on_c, 6, 61, 100
1, 12000, Note_on_c, 7, 61, 80
1, 12000, Note_on_c, 8, 61, 95
1, 12000, Note_on_c, 9, 35, 115
1, 12000, Note_on_c, 9, 39, 81
1, 12000, Note_on_c, 9, 40, 60
1, 12000, Note_on_c, 9, 42, 72
1, 12000, Note_on_c, 9, 54, 27
1, 12002, Control_c, 6, 74, 67
1, 12002, Control_c, 8, 74, 67
1, 12016, Note_on_c, 9, 54, 0
1, 12016, Note_on_c, 9, 42, 0
1, 12016, Note_on_c, 9, 39, 0
1, 12016, Note_on_c, 9, 35, 0
1, 12016, Note_on_c, 9, 40, 0
1, 12054, Note_on_c, 6, 61, 0
1, 12054, Note_on_c, 8, 61, 0
1, 12054, Note_on_c, 7, 61, 0
1, 12076, Control_c, 6, 74, 68
1, 12076, Control_c, 8, 74, 68
1, 12079, Control_c, 7, 74, 63
1, 12120, Note_on_c, 7, 61, 80
1, 12174, Note_on_c, 7, 61, 0
1, 12178, Control_c, 6, 74, 69
1, 12178, Control_c, 8, 74, 69
1, 12180, Note_on_c, 7, 61, 80
1, 12234, Note_on_c, 7, 61, 0
1, 12240, Note_on_c, 7, 61, 80
1, 12240, Note_on_c, 9, 42, 119
1, 12240, Note_on_c, 9, 54, 102
1, 12240, Note_on_c, 12, 49, 60
1, 12240, Note_on_c, 12, 56, 90
1, 12240, Note_on_c, 12, 61, 90
1, 12240, Note_on_c, 12, 64, 90
1, 12240, Note_on_c, 12, 68, 90
1, 12256, Note_on_c, 9, 54, 0
1, 12256, Note_on_c, 9, 42, 0
1, 12292, Control_c, 7, 74, 64
1, 12294, Note_on_c, 7, 61, 0
1, 12310, Note_on_c, 12, 61, 0
1, 12310, Note_on_c, 12, 56, 0
1, 12310, Note_on_c, 12, 68, 0
1, 12310, Note_on_c, 12, 49, 0
1, 12310, Note_on_c, 12, 64, 0
1, 12311, Control_c, 6, 74, 70
1, 12311, Control_c, 8, 74, 70
1, 12355, Control_c, 7, 74, 65
1, 12360, Note_on_c, 6, 61, 100
1, 12360, Note_on_c, 8, 61, 95
1, 12397, Control_c, 6, 74, 71
1, 12397, Control_c, 8, 74, 71
1, 12400, Control_c, 7, 74, 66
1, 12411, Note_on_c, 3, 24, 2
1, 12411, Lyric_t, "www.utworki.pl "
1, 12411, Lyric_t, "\015"
1, 12413, Note_on_c, 3, 24, 0
1, 12414, Note_on_c, 8, 61, 0
1, 12414, Note_on_c, 6, 61, 0
1, 12474, Control_c, 6, 74, 72
1, 12474, Control_c, 8, 74, 72
1, 12480, Note_on_c, 7, 61, 80
1, 12480, Note_on_c, 9, 35, 115
1, 12480, Note_on_c, 9, 42, 72
1, 12480, Note_on_c, 9, 54, 27
1, 12482, Control_c, 7, 74, 67
1, 12496, Note_on_c, 9, 54, 0
1, 12496, Note_on_c, 9, 42, 0
1, 12496, Note_on_c, 9, 35, 0
1, 12534, Note_on_c, 7, 61, 0
1, 12556, Control_c, 7, 74, 68
1, 12570, Control_c, 6, 74, 73
1, 12570, Control_c, 8, 74, 73
1, 12600, Note_on_c, 6, 64, 100
1, 12600, Note_on_c, 8, 64, 95
1, 12654, Note_on_c, 8, 64, 0
1, 12654, Note_on_c, 6, 64, 0
1, 12658, Control_c, 7, 74, 69
1, 12667, Control_c, 6, 74, 74
1, 12667, Control_c, 8, 74, 74
1, 12720, Note_on_c, 9, 42, 119
1, 12720, Note_on_c, 9, 54, 102
1, 12720, Note_on_c, 12, 49, 60
1, 12720, Note_on_c, 12, 56, 90
1, 12720, Note_on_c, 12, 61, 90
1, 12720, Note_on_c, 12, 64, 90
1, 12720, Note_on_c, 12, 68, 90
1, 12736, Note_on_c, 9, 54, 0
1, 12736, Note_on_c, 9, 42, 0
1, 12763, Control_c, 6, 74, 75
1, 12763, Control_c, 8, 74, 75
1, 12790, Note_on_c, 12, 49, 0
1, 12790, Note_on_c, 12, 61, 0
1, 12790, Note_on_c, 12, 56, 0
1, 12790, Note_on_c, 12, 68, 0
1, 12790, Note_on_c, 12, 64, 0
1, 12791, Control_c, 7, 74, 70
1, 12840, Note_on_c, 6, 61, 100
1, 12840, Note_on_c, 7, 61, 80
1, 12840, Note_on_c, 8, 61, 95
1, 12877, Control_c, 7, 74, 71
1, 12894, Note_on_c, 8, 61, 0
1, 12894, Note_on_c, 7, 61, 0
1, 12894, Note_on_c, 6, 61, 0
1, 12895, Control_c, 6, 74, 76
1, 12895, Control_c, 8, 74, 76
1, 12954, Control_c, 7, 74, 72
1, 12960, Note_on_c, 6, 64, 100
1, 12960, Note_on_c, 8, 64, 95
1, 12960, Note_on_c, 9, 35, 115
1, 12960, Note_on_c, 9, 39, 81
1, 12960, Note_on_c, 9, 40, 60
1, 12960, Note_on_c, 9, 42, 72
1, 12960, Note_on_c, 9, 54, 27
1, 12976, Note_on_c, 9, 54, 0
1, 12976, Note_on_c, 9, 40, 0
1, 12976, Note_on_c, 9, 39, 0
1, 12976, Note_on_c, 9, 35, 0
1, 12976, Note_on_c, 9, 42, 0
1, 13014, Note_on_c, 6, 64, 0
1, 13014, Note_on_c, 8, 64, 0
1, 13050, Control_c, 7, 74, 73
1, 13063, Control_c, 6, 74, 77
1, 13063, Control_c, 8, 74, 77
1, 13080, Note_on_c, 7, 64, 80
1, 13134, Note_on_c, 7, 64, 0
1, 13145, Control_c, 6, 74, 78
1, 13145, Control_c, 8, 74, 78
1, 13147, Control_c, 7, 74, 74
1, 13200, Note_on_c, 6, 61, 100
1, 13200, Note_on_c, 8, 61, 95
1, 13200, Note_on_c, 9, 42, 119
1, 13200, Note_on_c, 9, 54, 102
1, 13200, Note_on_c, 12, 49, 60
1, 13200, Note_on_c, 12, 56, 90
1, 13200, Note_on_c, 12, 61, 90
1, 13200, Note_on_c, 12, 64, 90
1, 13200, Note_on_c, 12, 68, 90
1, 13216, Note_on_c, 9, 54, 0
1, 13216, Note_on_c, 9, 42, 0
1, 13231, Control_c, 6, 74, 79
1, 13231, Control_c, 8, 74, 79
1, 13243, Control_c, 7, 74, 75
1, 13254, Note_on_c, 6, 61, 0
1, 13254, Note_on_c, 8, 61, 0
1, 13270, Note_on_c, 12, 56, 0
1, 13270, Note_on_c, 12, 49, 0
1, 13270, Note_on_c, 12, 68, 0
1, 13270, Note_on_c, 12, 61, 0
1, 13270, Note_on_c, 12, 64, 0
1, 13312, Control_c, 6, 74, 80
1, 13312, Control_c, 8, 74, 80
1, 13320, Note_on_c, 7, 61, 80
1, 13374, Note_on_c, 7, 61, 0
1, 13375, Control_c, 7, 74, 76
1, 13399, Control_c, 6, 74, 81
1, 13399, Control_c, 8, 74, 81
1, 13440, Note_on_c, 6, 57, 100
1, 13440, Note_on_c, 7, 64, 80
1, 13440, Note_on_c, 8, 57, 95
1, 13440, Note_on_c, 9, 35, 115
1, 13440, Note_on_c, 9, 42, 71
1, 13440, Note_on_c, 9, 54, 26
1, 13456, Note_on_c, 9, 54, 0
1, 13456, Note_on_c, 9, 35, 0
1, 13456, Note_on_c, 9, 42, 0
1, 13465, Control_c, 6, 74, 82
1, 13465, Control_c, 8, 74, 82
1, 13494, Note_on_c, 6, 57, 0
1, 13494, Note_on_c, 8, 57, 0
1, 13494, Note_on_c, 7, 64, 0
1, 13543, Control_c, 7, 74, 77
1, 13560, Note_on_c, 6, 57, 100
1, 13560, Note_on_c, 8, 57, 95
1, 13571, Control_c, 6, 74, 83
1, 13571, Control_c, 8, 74, 83
1, 13614, Note_on_c, 8, 57, 0
1, 13614, Note_on_c, 6, 57, 0
1, 13620, Note_on_c, 6, 57, 100
1, 13620, Note_on_c, 8, 57, 95
1, 13625, Control_c, 7, 74, 78
1, 13673, Control_c, 6, 74, 84
1, 13673, Control_c, 8, 74, 84
1, 13674, Note_on_c, 8, 57, 0
1, 13674, Note_on_c, 6, 57, 0
1, 13680, Note_on_c, 6, 57, 100
1, 13680, Note_on_c, 7, 61, 80
1, 13680, Note_on_c, 8, 57, 95
1, 13680, Note_on_c, 9, 42, 119
1, 13680, Note_on_c, 9, 54, 102
1, 13680, Note_on_c, 12, 49, 60
1, 13680, Note_on_c, 12, 57, 90
1, 13680, Note_on_c, 12, 61, 90
1, 13680, Note_on_c, 12, 64, 90
1, 13680, Note_on_c, 12, 69, 90
1, 13696, Note_on_c, 9, 54, 0
1, 13696, Note_on_c, 9, 42, 0
1, 13711, Control_c, 7, 74, 79
1, 13734, Note_on_c, 6, 57, 0
1, 13734, Note_on_c, 8, 57, 0
1, 13734, Note_on_c, 7, 61, 0
1, 13750, Note_on_c, 12, 49, 0
1, 13750, Note_on_c, 12, 64, 0
1, 13750, Note_on_c, 12, 69, 0
1, 13750, Note_on_c, 12, 57, 0
1, 13750, Note_on_c, 12, 61, 0
1, 13760, Control_c, 6, 74, 85
1, 13760, Control_c, 8, 74, 85
1, 13792, Control_c, 7, 74, 80
1, 13841, Control_c, 6, 74, 86
1, 13841, Control_c, 8, 74, 86
1, 13879, Control_c, 7, 74, 81
1, 13882, Control_c, 6, 74, 87
1, 13882, Control_c, 8, 74, 87
1, 13884, Note_on_c, 3, 24, 2
1, 13884, Lyric_t, "www.midi24.pl "
1, 13884, Lyric_t, "\015"
1, 13886, Note_on_c, 3, 24, 0
1, 13920, Note_on_c, 6, 57, 100
1, 13920, Note_on_c, 7, 57, 80
1, 13920, Note_on_c, 8, 57, 95
1, 13920, Note_on_c, 9, 35, 115
1, 13920, Note_on_c, 9, 39, 81
1, 13920, Note_on_c, 9, 40, 60
1, 13920, Note_on_c, 9, 42, 72
1, 13920, Note_on_c, 9, 54, 27
1, 13936, Note_on_c, 9, 54, 0
1, 13936, Note_on_c, 9, 42, 0
1, 13936, Note_on_c, 9, 39, 0
1, 13936, Note_on_c, 9, 35, 0
1, 13936, Note_on_c, 9, 40, 0
1, 13945, Control_c, 7, 74, 82
1, 13974, Note_on_c, 6, 57, 0
1, 13974, Note_on_c, 8, 57, 0
1, 13974, Note_on_c, 7, 57, 0
1, 13976, Control_c, 6, 74, 88
1, 13976, Control_c, 8, 74, 88
1, 14040, Note_on_c, 7, 57, 80
1, 14051, Control_c, 7, 74, 83
1, 14094, Note_on_c, 7, 57, 0
1, 14100, Note_on_c, 7, 57, 80
1, 14121, Control_c, 6, 74, 89
1, 14121, Control_c, 8, 74, 89
1, 14153, Control_c, 7, 74, 84
1, 14154, Note_on_c, 7, 57, 0
1, 14160, Note_on_c, 7, 57, 80
1, 14160, Note_on_c, 9, 42, 119
1, 14160, Note_on_c, 9, 54, 102
1, 14160, Note_on_c, 12, 49, 60
1, 14160, Note_on_c, 12, 57, 90
1, 14160, Note_on_c, 12, 61, 90
1, 14160, Note_on_c, 12, 64, 90
1, 14160, Note_on_c, 12, 69, 90
1, 14176, Note_on_c, 9, 54, 0
1, 14176, Note_on_c, 9, 42, 0
1, 14214, Note_on_c, 7, 57, 0
1, 14230, Note_on_c, 12, 61, 0
1, 14230, Note_on_c, 12, 57, 0
1, 14230, Note_on_c, 12, 69, 0
1, 14230, Note_on_c, 12, 49, 0
1, 14230, Note_on_c, 12, 64, 0
1, 14231, Control_c, 6, 74, 90
1, 14231, Control_c, 8, 74, 90
1, 14240, Control_c, 7, 74, 85
1, 14280, Note_on_c, 6, 57, 100
1, 14280, Note_on_c, 8, 57, 95
1, 14321, Control_c, 7, 74, 86
1, 14328, Control_c, 6, 74, 91
1, 14328, Control_c, 8, 74, 91
1, 14334, Note_on_c, 8, 57, 0
1, 14334, Note_on_c, 6, 57, 0
1, 14362, Control_c, 7, 74, 87
1, 14400, Note_on_c, 7, 57, 80
1, 14400, Note_on_c, 9, 35, 115
1, 14400, Note_on_c, 9, 42, 72
1, 14400, Note_on_c, 9, 54, 27
1, 14416, Note_on_c, 9, 54, 0
1, 14416, Note_on_c, 9, 42, 0
1, 14416, Note_on_c, 9, 35, 0
1, 14454, Note_on_c, 7, 57, 0
1, 14456, Control_c, 7, 74, 88
1, 14471, Control_c, 6, 74, 92
1, 14471, Control_c, 8, 74, 92
1, 14520, Note_on_c, 6, 61, 100
1, 14520, Note_on_c, 8, 61, 95
1, 14574, Note_on_c, 8, 61, 0
1, 14574, Note_on_c, 6, 61, 0
1, 14578, Control_c, 6, 74, 93
1, 14578, Control_c, 8, 74, 93
1, 14601, Control_c, 7, 74, 89
1, 14640, Note_on_c, 9, 42, 119
1, 14640, Note_on_c, 9, 54, 102
1, 14640, Note_on_c, 12, 49, 60
1, 14640, Note_on_c, 12, 57, 90
1, 14640, Note_on_c, 12, 61, 90
1, 14640, Note_on_c, 12, 64, 90
1, 14640, Note_on_c, 12, 69, 90
1, 14656, Note_on_c, 9, 54, 0
1, 14656, Note_on_c, 9, 42, 0
1, 14690, Control_c, 6, 74, 94
1, 14690, Control_c, 8, 74, 94
1, 14710, Note_on_c, 12, 49, 0
1, 14710, Note_on_c, 12, 61, 0
1, 14710, Note_on_c, 12, 57, 0
1, 14710, Note_on_c, 12, 69, 0
1, 14710, Note_on_c, 12, 64, 0
1, 14711, Control_c, 7, 74, 90
1, 14760, Note_on_c, 6, 57, 100
1, 14760, Note_on_c, 7, 57, 80
1, 14760, Note_on_c, 8, 57, 95
1, 14808, Control_c, 7, 74, 91
1, 14814, Note_on_c, 8, 57, 0
1, 14814, Note_on_c, 7, 57, 0
1, 14814, Note_on_c, 6, 57, 0
1, 14868, Control_c, 6, 74, 95
1, 14868, Control_c, 8, 74, 95
1, 14880, Note_on_c, 6, 61, 100
1, 14880, Note_on_c, 8, 61, 95
1, 14880, Note_on_c, 9, 35, 115
1, 14880, Note_on_c, 9, 39, 81
1, 14880, Note_on_c, 9, 40, 60
1, 14880, Note_on_c, 9, 42, 72
1, 14880, Note_on_c, 9, 54, 27
1, 14896, Note_on_c, 9, 54, 0
1, 14896, Note_on_c, 9, 40, 0
1, 14896, Note_on_c, 9, 39, 0
1, 14896, Note_on_c, 9, 35, 0
1, 14896, Note_on_c, 9, 42, 0
1, 14934, Note_on_c, 6, 61, 0
1, 14934, Note_on_c, 8, 61, 0
1, 14951, Control_c, 7, 74, 92
1, 15000, Note_on_c, 7, 61, 80
1, 15054, Note_on_c, 7, 61, 0
1, 15058, Control_c, 7, 74, 93
1, 15120, Note_on_c, 6, 57, 100
1, 15120, Note_on_c, 8, 57, 95
1, 15120, Note_on_c, 9, 42, 119
1, 15120, Note_on_c, 9, 54, 102
1, 15120, Note_on_c, 12, 49, 60
1, 15120, Note_on_c, 12, 57, 90
1, 15120, Note_on_c, 12, 61, 90
1, 15120, Note_on_c, 12, 64, 90
1, 15120, Note_on_c, 12, 69, 90
1, 15136, Note_on_c, 9, 54, 0
1, 15136, Note_on_c, 9, 42, 0
1, 15163, Control_c, 6, 74, 94
1, 15163, Control_c, 8, 74, 94
1, 15170, Control_c, 7, 74, 94
1, 15174, Note_on_c, 6, 57, 0
1, 15174, Note_on_c, 8, 57, 0
1, 15177, Control_c, 6, 74, 93
1, 15177, Control_c, 8, 74, 93
1, 15190, Note_on_c, 12, 57, 0
1, 15190, Note_on_c, 12, 49, 0
1, 15190, Note_on_c, 12, 69, 0
1, 15190, Note_on_c, 12, 61, 0
1, 15190, Note_on_c, 12, 64, 0
1, 15199, Control_c, 6, 74, 92
1, 15199, Control_c, 8, 74, 92
1, 15217, Control_c, 6, 74, 91
1, 15217, Control_c, 8, 74, 91
1, 15239, Control_c, 6, 74, 89
1, 15239, Control_c, 8, 74, 89
1, 15240, Note_on_c, 7, 57, 80
1, 15253, Control_c, 6, 74, 88
1, 15253, Control_c, 8, 74, 88
1, 15275, Control_c, 6, 74, 87
1, 15275, Control_c, 8, 74, 87
1, 15294, Note_on_c, 7, 57, 0
1, 15298, Control_c, 6, 74, 86
1, 15298, Control_c, 8, 74, 86
1, 15325, Control_c, 6, 74, 85
1, 15325, Control_c, 8, 74, 85
1, 15345, Control_c, 6, 74, 84
1, 15345, Control_c, 8, 74, 84
1, 15348, Control_c, 7, 74, 95
1, 15357, Note_on_c, 3, 24, 2
1, 15357, Lyric_t, "biuro@utworki.pl "
1, 15357, Lyric_t, "\015"
1, 15359, Note_on_c, 3, 24, 0
1, 15360, Note_on_c, 6, 59, 100
1, 15360, Note_on_c, 7, 61, 80
1, 15360, Note_on_c, 8, 59, 95
1, 15360, Note_on_c, 9, 35, 115
1, 15360, Note_on_c, 9, 42, 71
1, 15360, Note_on_c, 9, 54, 26
1, 15376, Note_on_c, 9, 54, 0
1, 15376, Note_on_c, 9, 35, 0
1, 15376, Note_on_c, 9, 42, 0
1, 15381, Control_c, 6, 74, 83
1, 15381, Control_c, 8, 74, 83
1, 15414, Note_on_c, 6, 59, 0
1, 15414, Note_on_c, 8, 59, 0
1, 15414, Note_on_c, 7, 61, 0
1, 15422, Control_c, 6, 74, 82
1, 15422, Control_c, 8, 74, 82
1, 15448, Control_c, 6, 74, 81
1, 15448, Control_c, 8, 74, 81
1, 15480, Note_on_c, 6, 59, 100
1, 15480, Note_on_c, 8, 59, 95
1, 15482, Control_c, 6, 74, 80
1, 15482, Control_c, 8, 74, 80
1, 15534, Note_on_c, 8, 59, 0
1, 15534, Note_on_c, 6, 59, 0
1, 15540, Control_c, 6, 74, 79
1, 15540, Note_on_c, 6, 59, 100
1, 15540, Control_c, 8, 74, 79
1, 15540, Note_on_c, 8, 59, 95
1, 15594, Note_on_c, 8, 59, 0
1, 15594, Note_on_c, 6, 59, 0
1, 15599, Control_c, 6, 74, 78
1, 15599, Control_c, 8, 74, 78
1, 15600, Note_on_c, 6, 59, 100
1, 15600, Note_on_c, 7, 57, 80
1, 15600, Note_on_c, 8, 59, 95
1, 15600, Note_on_c, 9, 42, 119
1, 15600, Note_on_c, 9, 54, 102
1, 15600, Note_on_c, 12, 51, 60
1, 15600, Note_on_c, 12, 59, 90
1, 15600, Note_on_c, 12, 63, 90
1, 15600, Note_on_c, 12, 66, 90
1, 15600, Note_on_c, 12, 71, 90
1, 15616, Note_on_c, 9, 54, 0
1, 15616, Note_on_c, 9, 42, 0
1, 15639, Control_c, 6, 74, 77
1, 15639, Control_c, 8, 74, 77
1, 15643, Control_c, 7, 74, 94
1, 15654, Note_on_c, 6, 59, 0
1, 15654, Note_on_c, 8, 59, 0
1, 15654, Note_on_c, 7, 57, 0
1, 15657, Control_c, 7, 74, 93
1, 15670, Note_on_c, 12, 51, 0
1, 15670, Note_on_c, 12, 66, 0
1, 15670, Note_on_c, 12, 71, 0
1, 15670, Note_on_c, 12, 59, 0
1, 15670, Note_on_c, 12, 63, 0
1, 15679, Control_c, 7, 74, 92
1, 15680, Control_c, 6, 74, 76
1, 15680, Control_c, 8, 74, 76
1, 15697, Control_c, 7, 74, 91
1, 15719, Control_c, 7, 74, 89
1, 15727, Control_c, 6, 74, 75
1, 15727, Control_c, 8, 74, 75
1, 15733, Control_c, 7, 74, 88
1, 15755, Control_c, 7, 74, 87
1, 15759, Control_c, 6, 74, 74
1, 15759, Control_c, 8, 74, 74
1, 15778, Control_c, 7, 74, 86
1, 15793, Control_c, 6, 74, 73
1, 15793, Control_c, 8, 74, 73
1, 15805, Control_c, 7, 74, 85
1, 15825, Control_c, 7, 74, 84
1, 15840, Control_c, 6, 74, 72
1, 15840, Note_on_c, 6, 59, 100
1, 15840, Note_on_c, 7, 59, 80
1, 15840, Control_c, 8, 74, 72
1, 15840, Note_on_c, 8, 59, 95
1, 15840, Note_on_c, 9, 35, 115
1, 15840, Note_on_c, 9, 39, 81
1, 15840, Note_on_c, 9, 40, 60
1, 15840, Note_on_c, 9, 42, 72
1, 15840, Note_on_c, 9, 54, 27
1, 15856, Note_on_c, 9, 54, 0
1, 15856, Note_on_c, 9, 42, 0
1, 15856, Note_on_c, 9, 39, 0
1, 15856, Note_on_c, 9, 35, 0
1, 15856, Note_on_c, 9, 40, 0
1, 15861, Control_c, 7, 74, 83
1, 15876, Control_c, 6, 74, 71
1, 15876, Control_c, 8, 74, 71
1, 15894, Note_on_c, 6, 59, 0
1, 15894, Note_on_c, 8, 59, 0
1, 15894, Note_on_c, 7, 59, 0
1, 15902, Control_c, 7, 74, 82
1, 15928, Control_c, 7, 74, 81
1, 15945, Control_c, 6, 74, 70
1, 15945, Control_c, 8, 74, 70
1, 15960, Note_on_c, 7, 59, 80
1, 15962, Control_c, 7, 74, 80
1, 15986, Control_c, 6, 74, 69
1, 15986, Control_c, 8, 74, 69
1, 16014, Note_on_c, 7, 59, 0
1, 16020, Control_c, 7, 74, 79
1, 16020, Note_on_c, 7, 59, 80
1, 16021, Control_c, 6, 74, 68
1, 16021, Control_c, 8, 74, 68
1, 16053, Control_c, 6, 74, 67
1, 16053, Control_c, 8, 74, 67
1, 16074, Note_on_c, 7, 59, 0
1, 16079, Control_c, 7, 74, 78
1, 16080, Note_on_c, 7, 59, 80
1, 16080, Note_on_c, 9, 42, 119
1, 16080, Note_on_c, 9, 54, 102
1, 16080, Note_on_c, 12, 51, 60
1, 16080, Note_on_c, 12, 59, 90
1, 16080, Note_on_c, 12, 63, 90
1, 16080, Note_on_c, 12, 66, 90
1, 16080, Note_on_c, 12, 71, 90
1, 16089, Control_c, 6, 74, 65
1, 16089, Control_c, 8, 74, 65
1, 16096, Note_on_c, 9, 54, 0
1, 16096, Note_on_c, 9, 42, 0
1, 16119, Control_c, 6, 74, 64
1, 16119, Control_c, 7, 74, 77
1, 16119, Control_c, 8, 74, 64
1, 16134, Note_on_c, 7, 59, 0
1, 16149, Control_c, 6, 74, 63
1, 16149, Control_c, 8, 74, 63
1, 16150, Note_on_c, 12, 63, 0
1, 16150, Note_on_c, 12, 59, 0
1, 16150, Note_on_c, 12, 71, 0
1, 16150, Note_on_c, 12, 51, 0
1, 16150, Note_on_c, 12, 66, 0
1, 16160, Control_c, 7, 74, 76
1, 16186, Control_c, 6, 74, 62
1, 16186, Control_c, 8, 74, 62
1, 16200, Note_on_c, 6, 59, 100
1, 16200, Note_on_c, 8, 59, 95
1, 16207, Control_c, 7, 74, 75
1, 16239, Control_c, 7, 74, 74
1, 16240, Control_c, 6, 74, 61
1, 16240, Control_c, 8, 74, 61
1, 16254, Note_on_c, 8, 59, 0
1, 16254, Note_on_c, 6, 59, 0
1, 16273, Control_c, 7, 74, 73
1, 16281, Control_c, 6, 74, 60
1, 16281, Control_c, 8, 74, 60
1, 16320, Control_c, 7, 74, 72
1, 16320, Note_on_c, 7, 59, 80
1, 16320, Note_on_c, 9, 35, 115
1, 16320, Note_on_c, 9, 42, 72
1, 16320, Note_on_c, 9, 54, 27
1, 16336, Note_on_c, 9, 54, 0
1, 16336, Note_on_c, 9, 42, 0
1, 16336, Note_on_c, 9, 35, 0
1, 16356, Control_c, 7, 74, 71
1, 16362, Control_c, 6, 74, 59
1, 16362, Control_c, 8, 74, 59
1, 16374, Note_on_c, 7, 59, 0
1, 16408, Control_c, 6, 74, 58
1, 16408, Control_c, 8, 74, 58
1, 16425, Control_c, 7, 74, 70
1, 16440, Note_on_c, 6, 63, 100
1, 16440, Note_on_c, 8, 63, 95
1, 16466, Control_c, 7, 74, 69
1, 16486, Control_c, 6, 74, 57
1, 16486, Control_c, 8, 74, 57
1, 16494, Note_on_c, 8, 63, 0
1, 16494, Note_on_c, 6, 63, 0
1, 16501, Control_c, 7, 74, 68
1, 16533, Control_c, 7, 74, 67
1, 16560, Control_c, 6, 74, 56
1, 16560, Control_c, 8, 74, 56
1, 16560, Note_on_c, 9, 42, 119
1, 16560, Note_on_c, 9, 54, 102
1, 16560, Note_on_c, 12, 51, 60
1, 16560, Note_on_c, 12, 59, 90
1, 16560, Note_on_c, 12, 63, 90
1, 16560, Note_on_c, 12, 66, 90
1, 16560, Note_on_c, 12, 71, 90
1, 16569, Control_c, 7, 74, 65
1, 16576, Note_on_c, 9, 54, 0
1, 16576, Note_on_c, 9, 42, 0
1, 16599, Control_c, 7, 74, 64
1, 16629, Control_c, 7, 74, 63
1, 16630, Note_on_c, 12, 51, 0
1, 16630, Note_on_c, 12, 63, 0
1, 16630, Note_on_c, 12, 59, 0
1, 16630, Note_on_c, 12, 71, 0
1, 16630, Note_on_c, 12, 66, 0
1, 16662, Control_c, 6, 74, 55
1, 16662, Control_c, 8, 74, 55
1, 16666, Control_c, 7, 74, 62
1, 16680, Note_on_c, 6, 59, 100
1, 16680, Note_on_c, 7, 59, 80
1, 16680, Note_on_c, 8, 59, 95
1, 16720, Control_c, 7, 74, 61
1, 16734, Note_on_c, 8, 59, 0
1, 16734, Note_on_c, 7, 59, 0
1, 16734, Note_on_c, 6, 59, 0
1, 16754, Control_c, 6, 74, 54
1, 16754, Control_c, 8, 74, 54
1, 16761, Control_c, 7, 74, 60
1, 16799, Control_c, 6, 74, 53
1, 16799, Control_c, 8, 74, 53
1, 16800, Note_on_c, 6, 63, 100
1, 16800, Note_on_c, 8, 63, 95
1, 16800, Note_on_c, 9, 35, 115
1, 16800, Note_on_c, 9, 39, 81
1, 16800, Note_on_c, 9, 40, 60
1, 16800, Note_on_c, 9, 42, 72
1, 16800, Note_on_c, 9, 54, 27
1, 16816, Note_on_c, 9, 54, 0
1, 16816, Note_on_c, 9, 40, 0
1, 16816, Note_on_c, 9, 39, 0
1, 16816, Note_on_c, 9, 35, 0
1, 16816, Note_on_c, 9, 42, 0
1, 16830, Note_on_c, 3, 24, 2
1, 16830, Lyric_t, "***************** "
1, 16830, Lyric_t, "\015"
1, 16830, Lyric_t, "\012"
1, 16832, Note_on_c, 3, 24, 0
1, 16839, Control_c, 6, 74, 52
1, 16839, Control_c, 8, 74, 52
1, 16842, Control_c, 7, 74, 59
1, 16854, Note_on_c, 6, 63, 0
1, 16854, Note_on_c, 8, 63, 0
1, 16888, Control_c, 7, 74, 58
1, 16917, Control_c, 6, 74, 51
1, 16917, Control_c, 8, 74, 51
1, 16920, Note_on_c, 7, 63, 80
1, 16966, Control_c, 7, 74, 57
1, 16974, Note_on_c, 7, 63, 0
1, 17023, Control_c, 6, 74, 50
1, 17023, Control_c, 8, 74, 50
1, 17040, Note_on_c, 6, 59, 100
1, 17040, Control_c, 7, 74, 56
1, 17040, Note_on_c, 8, 59, 95
1, 17040, Note_on_c, 9, 42, 119
1, 17040, Note_on_c, 9, 54, 102
1, 17040, Note_on_c, 12, 51, 60
1, 17040, Note_on_c, 12, 59, 90
1, 17040, Note_on_c, 12, 63, 90
1, 17040, Note_on_c, 12, 66, 90
1, 17040, Note_on_c, 12, 71, 90
1, 17056, Note_on_c, 9, 54, 0
1, 17056, Note_on_c, 9, 42, 0
1, 17094, Note_on_c, 6, 59, 0
1, 17094, Note_on_c, 8, 59, 0
1, 17110, Note_on_c, 12, 59, 0
1, 17110, Note_on_c, 12, 51, 0
1, 17110, Note_on_c, 12, 71, 0
1, 17110, Note_on_c, 12, 63, 0
1, 17110, Note_on_c, 12, 66, 0
1, 17142, Control_c, 7, 74, 55
1, 17160, Note_on_c, 7, 59, 80
1, 17214, Note_on_c, 7, 59, 0
1, 17234, Control_c, 7, 74, 54
1, 17279, Control_c, 7, 74, 53
1, 17280, Note_on_c, 6, 64, 100
1, 17280, Note_on_c, 7, 63, 80
1, 17280, Note_on_c, 8, 64, 95
1, 17280, Note_on_c, 9, 35, 115
1, 17280, Note_on_c, 9, 42, 71
1, 17280, Note_on_c, 9, 54, 26
1, 17296, Note_on_c, 9, 54, 0
1, 17296, Note_on_c, 9, 35, 0
1, 17296, Note_on_c, 9, 42, 0
1, 17303, Control_c, 6, 74, 49
1, 17303, Control_c, 8, 74, 49
1, 17319, Control_c, 7, 74, 52
1, 17334, Note_on_c, 6, 64, 0
1, 17334, Note_on_c, 8, 64, 0
1, 17334, Note_on_c, 7, 63, 0
1, 17381, Control_c, 6, 74, 48
1, 17381, Control_c, 8, 74, 48
1, 17397, Control_c, 7, 74, 51
1, 17400, Note_on_c, 6, 64, 100
1, 17400, Note_on_c, 8, 64, 95
1, 17445, Control_c, 6, 74, 47
1, 17445, Control_c, 8, 74, 47
1, 17454, Note_on_c, 8, 64, 0
1, 17454, Note_on_c, 6, 64, 0
1, 17460, Note_on_c, 6, 64, 100
1, 17460, Note_on_c, 8, 64, 95
1, 17503, Control_c, 7, 74, 50
1, 17514, Note_on_c, 8, 64, 0
1, 17514, Note_on_c, 6, 64, 0
1, 17520, Note_on_c, 6, 64, 100
1, 17520, Note_on_c, 7, 59, 80
1, 17520, Note_on_c, 8, 64, 95
1, 17520, Note_on_c, 9, 42, 119
1, 17520, Note_on_c, 9, 54, 102
1, 17520, Note_on_c, 10, 24, 51
1, 17520, Note_on_c, 12, 52, 60
1, 17520, Note_on_c, 12, 59, 90
1, 17520, Note_on_c, 12, 64, 90
1, 17520, Note_on_c, 12, 68, 90
1, 17520, Note_on_c, 12, 71, 90
1, 17523, Control_c, 6, 74, 46
1, 17523, Control_c, 8, 74, 46
1, 17536, Note_on_c, 9, 54, 0
1, 17536, Note_on_c, 9, 42, 0
1, 17574, Note_on_c, 6, 64, 0
1, 17574, Note_on_c, 8, 64, 0
1, 17574, Note_on_c, 7, 59, 0
1, 17582, Note_on_c, 10, 26, 53
1, 17587, Control_c, 6, 74, 45
1, 17587, Control_c, 8, 74, 45
1, 17590, Note_on_c, 12, 52, 0
1, 17590, Note_on_c, 12, 64, 0
1, 17590, Note_on_c, 12, 71, 0
1, 17590, Note_on_c, 12, 68, 0
1, 17590, Note_on_c, 12, 59, 0
1, 17609, Note_on_c, 10, 24, 0
1, 17650, Note_on_c, 10, 26, 0
1, 17655, Note_on_c, 10, 28, 55
1, 17685, Control_c, 6, 74, 44
1, 17685, Control_c, 8, 74, 44
1, 17696, Note_on_c, 10, 28, 0
1, 17701, Note_on_c, 10, 29, 57
1, 17744, Note_on_c, 10, 31, 59
1, 17747, Note_on_c, 10, 29, 0
1, 17760, Note_on_c, 6, 64, 100
1, 17760, Note_on_c, 7, 64, 80
1, 17760, Note_on_c, 8, 64, 95
1, 17760, Note_on_c, 9, 39, 81
1, 17760, Note_on_c, 9, 40, 60
1, 17760, Note_on_c, 9, 42, 72
1, 17760, Note_on_c, 9, 54, 27
1, 17776, Note_on_c, 9, 54, 0
1, 17776, Note_on_c, 9, 42, 0
1, 17776, Note_on_c, 9, 39, 0
1, 17776, Note_on_c, 9, 40, 0
1, 17783, Control_c, 7, 74, 49
1, 17790, Note_on_c, 10, 33, 60
1, 17796, Note_on_c, 10, 31, 0
1, 17814, Note_on_c, 8, 64, 0
1, 17814, Note_on_c, 6, 64, 0
1, 17814, Note_on_c, 7, 64, 0
1, 17817, Control_c, 6, 74, 43
1, 17817, Control_c, 8, 74, 43
1, 17839, Note_on_c, 10, 35, 62
1, 17845, Note_on_c, 10, 33, 0
1, 17858, Control_c, 6, 74, 42
1, 17858, Control_c, 8, 74, 42
1, 17861, Control_c, 7, 74, 48
1, 17880, Note_on_c, 7, 64, 80
1, 17888, Note_on_c, 10, 36, 64
1, 17893, Note_on_c, 10, 35, 0
1, 17903, Control_c, 6, 74, 41
1, 17903, Control_c, 8, 74, 41
1, 17925, Control_c, 7, 74, 47
1, 17934, Note_on_c, 7, 64, 0
1, 17940, Note_on_c, 7, 64, 80
1, 17940, Note_on_c, 10, 38, 65
1, 17941, Note_on_c, 10, 36, 0
1, 17949, Control_c, 6, 74, 40
1, 17949, Control_c, 8, 74, 40
1, 17989, Note_on_c, 10, 40, 67
1, 17990, Note_on_c, 10, 38, 0
1, 17994, Note_on_c, 7, 64, 0
1, 18000, Note_on_c, 7, 64, 80
1, 18000, Note_on_c, 9, 42, 119
1, 18000, Note_on_c, 9, 54, 102
1, 18000, Note_on_c, 12, 52, 60
1, 18000, Note_on_c, 12, 59, 90
1, 18000, Note_on_c, 12, 64, 90
1, 18000, Note_on_c, 12, 68, 90
1, 18000, Note_on_c, 12, 71, 90
1, 18003, Control_c, 7, 74, 46
1, 18016, Note_on_c, 9, 54, 0
1, 18016, Note_on_c, 9, 42, 0
1, 18016, Control_c, 6, 74, 39
1, 18016, Control_c, 8, 74, 39
1, 18036, Note_on_c, 10, 41, 69
1, 18041, Note_on_c, 10, 40, 0
1, 18054, Note_on_c, 7, 64, 0
1, 18067, Control_c, 7, 74, 45
1, 18070, Note_on_c, 12, 64, 0
1, 18070, Note_on_c, 12, 59, 0
1, 18070, Note_on_c, 12, 52, 0
1, 18070, Note_on_c, 12, 71, 0
1, 18070, Note_on_c, 12, 68, 0
1, 18081, Control_c, 6, 74, 38
1, 18081, Control_c, 8, 74, 38
1, 18085, Note_on_c, 10, 43, 70
1, 18090, Note_on_c, 10, 41, 0
1, 18120, Note_on_c, 6, 63, 100
1, 18120, Note_on_c, 8, 63, 95
1, 18133, Note_on_c, 10, 45, 72
1, 18137, Control_c, 6, 74, 37
1, 18137, Control_c, 8, 74, 37
1, 18139, Note_on_c, 3, 24, 2
1, 18139, Lyric_t, "Z "
1, 18140, Note_on_c, 10, 43, 0
1, 18141, Note_on_c, 3, 24, 0
1, 18165, Control_c, 7, 74, 44
1, 18174, Note_on_c, 6, 63, 0
1, 18174, Note_on_c, 8, 63, 0
1, 18179, Note_on_c, 10, 47, 74
1, 18187, Note_on_c, 10, 45, 0
1, 18197, Control_c, 6, 74, 36
1, 18197, Control_c, 8, 74, 36
1, 18228, Note_on_c, 10, 48, 75
1, 18235, Note_on_c, 10, 47, 0
1, 18240, Note_on_c, 3, 64, 110
1, 18240, Note_on_c, 7, 64, 80
1, 18240, Note_on_c, 9, 35, 115
1, 18240, Note_on_c, 9, 42, 72
1, 18240, Note_on_c, 9, 54, 27
1, 18240, Note_on_c, 11, 60, 96
1, 18240, Lyric_t, "to"
1, 18248, Control_c, 6, 74, 35
1, 18248, Control_c, 8, 74, 35
1, 18256, Note_on_c, 9, 54, 0
1, 18256, Note_on_c, 9, 35, 0
1, 18256, Note_on_c, 9, 42, 0
1, 18275, Note_on_c, 10, 50, 77
1, 18284, Note_on_c, 10, 48, 0
1, 18294, Note_on_c, 7, 64, 0
1, 18297, Control_c, 7, 74, 43
1, 18301, Control_c, 6, 74, 34
1, 18301, Control_c, 8, 74, 34
1, 18321, Note_on_c, 10, 52, 79
1, 18331, Note_on_c, 10, 50, 0
1, 18338, Control_c, 7, 74, 42
1, 18346, Control_c, 6, 74, 33
1, 18346, Control_c, 8, 74, 33
1, 18360, Note_on_c, 6, 64, 100
1, 18360, Note_on_c, 8, 64, 95
1, 18369, Note_on_c, 10, 53, 80
1, 18380, Note_on_c, 10, 52, 0
1, 18383, Control_c, 7, 74, 41
1, 18402, Control_c, 6, 74, 32
1, 18402, Control_c, 8, 74, 32
1, 18414, Note_on_c, 8, 64, 0
1, 18414, Note_on_c, 6, 64, 0
1, 18418, Note_on_c, 10, 55, 82
1, 18427, Note_on_c, 10, 53, 0
1, 18429, Control_c, 7, 74, 40
1, 18464, Note_on_c, 10, 57, 84
1, 18468, Control_c, 6, 74, 31
1, 18468, Control_c, 8, 74, 31
1, 18475, Note_on_c, 10, 55, 0
1, 18480, Note_on_c, 9, 42, 119
1, 18480, Note_on_c, 9, 54, 102
1, 18480, Note_on_c, 12, 51, 60
1, 18480, Note_on_c, 12, 59, 90
1, 18480, Note_on_c, 12, 63, 90
1, 18480, Note_on_c, 12, 68, 90
1, 18480, Note_on_c, 12, 71, 90
1, 18496, Note_on_c, 9, 54, 0
1, 18496, Note_on_c, 9, 42, 0
1, 18496, Control_c, 7, 74, 39
1, 18513, Note_on_c, 10, 59, 85
1, 18525, Note_on_c, 10, 57, 0
1, 18548, Control_c, 6, 74, 30
1, 18548, Control_c, 8, 74, 30
1, 18550, Note_on_c, 12, 63, 0
1, 18550, Note_on_c, 12, 68, 0
1, 18550, Note_on_c, 12, 51, 0
1, 18550, Note_on_c, 12, 71, 0
1, 18550, Note_on_c, 12, 59, 0
1, 18559, Note_on_c, 10, 60, 87
1, 18561, Control_c, 7, 74, 38
1, 18571, Note_on_c, 10, 59, 0
1, 18600, Note_on_c, 6, 63, 100
1, 18600, Note_on_c, 7, 63, 80
1, 18600, Note_on_c, 8, 63, 95
1, 18606, Control_c, 6, 74, 29
1, 18606, Control_c, 8, 74, 29
1, 18608, Note_on_c, 10, 62, 89
1, 18617, Control_c, 7, 74, 37
1, 18618, Note_on_c, 10, 60, 0
1, 18651, Control_c, 6, 74, 28
1, 18651, Control_c, 8, 74, 28
1, 18653, Note_on_c, 10, 64, 90
1, 18654, Note_on_c, 7, 63, 0
1, 18654, Note_on_c, 6, 63, 0
1, 18654, Note_on_c, 8, 63, 0
1, 18667, Note_on_c, 10, 62, 0
1, 18677, Control_c, 7, 74, 36
1, 18681, Note_on_c, 3, 64, 0
1, 18701, Note_on_c, 10, 65, 92
1, 18706, Control_c, 6, 74, 27
1, 18706, Control_c, 8, 74, 27
1, 18714, Note_on_c, 10, 64, 0
1, 18720, Note_on_c, 3, 66, 110
1, 18720, Note_on_c, 6, 64, 100
1, 18720, Note_on_c, 8, 64, 95
1, 18720, Note_on_c, 9, 39, 81
1, 18720, Note_on_c, 9, 40, 60
1, 18720, Note_on_c, 9, 42, 72
1, 18720, Note_on_c, 9, 54, 27
1, 18720, Lyric_t, "b¹ "
1, 18728, Control_c, 7, 74, 35
1, 18736, Note_on_c, 9, 54, 0
1, 18736, Note_on_c, 9, 42, 0
1, 18736, Note_on_c, 9, 40, 0
1, 18736, Note_on_c, 9, 39, 0
1, 18747, Note_on_c, 10, 67, 94
1, 18752, Control_c, 6, 74, 26
1, 18752, Control_c, 8, 74, 26
1, 18761, Note_on_c, 10, 65, 0
1, 18774, Note_on_c, 8, 64, 0
1, 18774, Note_on_c, 6, 64, 0
1, 18781, Control_c, 7, 74, 34
1, 18796, Control_c, 6, 74, 25
1, 18796, Control_c, 8, 74, 25
1, 18796, Note_on_c, 10, 69, 95
1, 18808, Note_on_c, 10, 67, 0
1, 18826, Control_c, 7, 74, 33
1, 18828, Control_c, 6, 74, 24
1, 18828, Control_c, 8, 74, 24
1, 18840, Note_on_c, 7, 64, 80
1, 18844, Note_on_c, 10, 71, 97
1, 18855, Note_on_c, 10, 69, 0
1, 18869, Control_c, 6, 74, 23
1, 18869, Control_c, 8, 74, 23
1, 18882, Control_c, 7, 74, 32
1, 18889, Note_on_c, 10, 72, 98
1, 18894, Note_on_c, 7, 64, 0
1, 18902, Note_on_c, 10, 71, 0
1, 18915, Control_c, 6, 74, 22
1, 18915, Control_c, 8, 74, 22
1, 18937, Note_on_c, 10, 74, 100
1, 18945, Control_c, 6, 74, 21
1, 18945, Control_c, 8, 74, 21
1, 18948, Note_on_c, 10, 72, 0
1, 18948, Control_c, 7, 74, 31
1, 18960, Note_on_c, 6, 63, 100
1, 18960, Note_on_c, 8, 63, 95
1, 18960, Note_on_c, 9, 42, 119
1, 18960, Note_on_c, 9, 54, 102
1, 18960, Note_on_c, 12, 51, 60
1, 18960, Note_on_c, 12, 59, 90
1, 18960, Note_on_c, 12, 63, 90
1, 18960, Note_on_c, 12, 68, 90
1, 18960, Note_on_c, 12, 71, 90
1, 18976, Note_on_c, 9, 54, 0
1, 18976, Note_on_c, 9, 42, 0
1, 18976, Control_c, 6, 74, 20
1, 18976, Control_c, 8, 74, 20
1, 18980, Note_on_c, 10, 76, 102
1, 18992, Note_on_c, 10, 74, 0
1, 19014, Note_on_c, 8, 63, 0
1, 19014, Note_on_c, 6, 63, 0
1, 19023, Note_on_c, 10, 77, 103
1, 19027, Control_c, 6, 74, 19
1, 19027, Control_c, 8, 74, 19
1, 19028, Control_c, 7, 74, 30
1, 19030, Note_on_c, 12, 59, 0
1, 19030, Note_on_c, 12, 51, 0
1, 19030, Note_on_c, 12, 63, 0
1, 19030, Note_on_c, 12, 68, 0
1, 19030, Note_on_c, 12, 71, 0
1, 19038, Note_on_c, 10, 76, 0
1, 19063, Note_on_c, 10, 79, 105
1, 19076, Note_on_c, 10, 77, 0
1, 19080, Note_on_c, 7, 63, 80
1, 19086, Control_c, 7, 74, 29
1, 19100, Note_on_c, 10, 81, 106
1, 19113, Note_on_c, 10, 79, 0
1, 19124, Note_on_c, 3, 66, 0
1, 19131, Control_c, 7, 74, 28
1, 19134, Note_on_c, 7, 63, 0
1, 19137, Note_on_c, 10, 83, 107
1, 19152, Note_on_c, 10, 81, 0
1, 19177, Note_on_c, 10, 84, 109
1, 19186, Control_c, 7, 74, 27
1, 19190, Note_on_c, 10, 83, 0
1, 19199, Note_on_c, 11, 60, 0
1, 19200, Note_on_c, 0, 37, 95
1, 19200, Note_on_c, 0, 49, 95
1, 19200, Note_on_c, 0, 56, 90
1, 19200, Note_on_c, 0, 61, 90
1, 19200, Note_on_c, 0, 64, 90
1, 19200, Note_on_c, 1, 37, 80
1, 19200, Note_on_c, 2, 61, 107
1, 19200, Note_on_c, 3, 68, 110
1, 19200, Note_on_c, 7, 64, 80
1, 19200, Note_on_c, 9, 35, 115
1, 19200, Note_on_c, 9, 42, 71
1, 19200, Note_on_c, 9, 57, 80
1, 19200, Lyric_t, "byæ "
1, 19200, Lyric_t, "\015"
1, 19216, Note_on_c, 9, 57, 0
1, 19216, Note_on_c, 9, 42, 0
1, 19216, Note_on_c, 9, 35, 0
1, 19221, Note_on_c, 10, 84, 0
1, 19232, Control_c, 7, 74, 26
1, 19254, Note_on_c, 7, 64, 0
1, 19259, Note_on_c, 2, 61, 0
1, 19276, Control_c, 7, 74, 25
1, 19308, Control_c, 7, 74, 24
1, 19319, Note_on_c, 1, 37, 0
1, 19349, Control_c, 7, 74, 23
1, 19395, Control_c, 7, 74, 22
1, 19425, Control_c, 7, 74, 21
1, 19437, Control_c, 2, 10, 83
1, 19440, Note_on_c, 1, 49, 80
1, 19440, Note_on_c, 2, 73, 107
1, 19440, Note_on_c, 7, 63, 80
1, 19456, Control_c, 7, 74, 20
1, 19494, Note_on_c, 7, 63, 0
1, 19499, Note_on_c, 2, 73, 0
1, 19507, Control_c, 7, 74, 19
1, 19559, Note_on_c, 1, 49, 0
1, 19566, Note_on_c, 3, 68, 0
1, 19678, Control_c, 2, 10, 115
1, 19680, Note_on_c, 2, 73, 66
1, 19680, Note_on_c, 9, 39, 81
1, 19680, Note_on_c, 9, 40, 60
1, 19680, Note_on_c, 9, 42, 72
1, 19696, Note_on_c, 9, 42, 0
1, 19696, Note_on_c, 9, 40, 0
1, 19696, Note_on_c, 9, 39, 0
1, 19739, Note_on_c, 2, 73, 0
1, 19919, Control_c, 2, 10, 91
1, 19920, Note_on_c, 1, 49, 80
1, 19920, Note_on_c, 2, 73, 107
1, 19920, Note_on_c, 3, 61, 110
1, 19920, Lyric_t, "By\234 "
1, 19979, Note_on_c, 2, 73, 0
1, 20008, Note_on_c, 3, 61, 0
1, 20039, Note_on_c, 1, 49, 0
1, 20154, Control_c, 2, 10, 46
1, 20160, Note_on_c, 1, 37, 80
1, 20160, Note_on_c, 2, 61, 107
1, 20160, Note_on_c, 3, 68, 110
1, 20160, Note_on_c, 9, 35, 115
1, 20160, Note_on_c, 9, 42, 72
1, 20160, Lyric_t, "tu"
1, 20176, Note_on_c, 9, 42, 0
1, 20176, Note_on_c, 9, 35, 0
1, 20215, Note_on_c, 3, 68, 0
1, 20219, Note_on_c, 2, 61, 0
1, 20279, Note_on_c, 1, 37, 0
1, 20280, Note_on_c, 3, 68, 110
1, 20280, Lyric_t, "li³ "
1, 20355, Control_c, 2, 10, 22
1, 20389, Note_on_c, 3, 68, 0
1, 20400, Note_on_c, 2, 61, 67
1, 20459, Note_on_c, 2, 61, 0
1, 20520, Note_on_c, 3, 68, 110
1, 20520, Lyric_t, "mnie "
1, 20635, Control_c, 2, 10, 37
1, 20640, Note_on_c, 1, 37, 80
1, 20640, Note_on_c, 2, 61, 107
1, 20640, Note_on_c, 9, 39, 81
1, 20640, Note_on_c, 9, 40, 60
1, 20640, Note_on_c, 9, 42, 72
1, 20656, Note_on_c, 9, 42, 0
1, 20656, Note_on_c, 9, 40, 0
1, 20656, Note_on_c, 9, 39, 0
1, 20658, Note_on_c, 3, 68, 0
1, 20690, Note_on_c, 3, 24, 2
1, 20690, Lyric_t, "w "
1, 20692, Note_on_c, 3, 24, 0
1, 20699, Note_on_c, 2, 61, 0
1, 20759, Note_on_c, 1, 37, 0
1, 20760, Note_on_c, 3, 68, 110
1, 20760, Lyric_t, "ra"
1, 20876, Control_c, 2, 10, 79
1, 20880, Note_on_c, 2, 61, 67
1, 20880, Note_on_c, 9, 42, 119
1, 20889, Note_on_c, 3, 68, 0
1, 20896, Note_on_c, 9, 42, 0
1, 20939, Note_on_c, 2, 61, 0
1, 21000, Note_on_c, 3, 68, 110
1, 21000, Lyric_t, "mio"
1, 21115, Control_c, 2, 10, 106
1, 21116, Note_on_c, 0, 64, 0
1, 21116, Note_on_c, 0, 61, 0
1, 21117, Note_on_c, 0, 56, 0
1, 21117, Note_on_c, 0, 37, 0
1, 21117, Note_on_c, 0, 49, 0
1, 21120, Note_on_c, 0, 33, 95
1, 21120, Note_on_c, 0, 45, 95
1, 21120, Note_on_c, 0, 57, 90
1, 21120, Note_on_c, 0, 61, 90
1, 21120, Note_on_c, 0, 64, 90
1, 21120, Note_on_c, 1, 33, 80
1, 21120, Note_on_c, 2, 57, 107
1, 21120, Note_on_c, 9, 35, 115
1, 21120, Note_on_c, 9, 42, 71
1, 21136, Note_on_c, 9, 42, 0
1, 21136, Note_on_c, 9, 35, 0
1, 21179, Note_on_c, 2, 57, 0
1, 21239, Note_on_c, 1, 33, 0
1, 21320, Note_on_c, 3, 68, 0
1, 21350, Control_c, 2, 10, 108
1, 21360, Note_on_c, 1, 45, 80
1, 21360, Note_on_c, 2, 69, 107
1, 21360, Note_on_c, 3, 69, 110
1, 21360, Lyric_t, "nach, "
1, 21360, Lyric_t, "\015"
1, 21419, Note_on_c, 2, 69, 0
1, 21479, Note_on_c, 1, 45, 0
1, 21537, Note_on_c, 3, 69, 0
1, 21595, Control_c, 2, 10, 52
1, 21600, Note_on_c, 2, 69, 66
1, 21600, Note_on_c, 9, 39, 81
1, 21600, Note_on_c, 9, 40, 60
1, 21600, Note_on_c, 9, 42, 72
1, 21616, Note_on_c, 9, 42, 0
1, 21616, Note_on_c, 9, 40, 0
1, 21616, Note_on_c, 9, 39, 0
1, 21659, Note_on_c, 2, 69, 0
1, 21796, Control_c, 2, 10, 17
1, 21840, Note_on_c, 1, 45, 80
1, 21840, Note_on_c, 2, 69, 107
1, 21840, Note_on_c, 3, 69, 110
1, 21840, Lyric_t, "Bym "
1, 21899, Note_on_c, 2, 69, 0
1, 21944, Note_on_c, 3, 69, 0
1, 21959, Note_on_c, 1, 45, 0
1, 22077, Control_c, 2, 10, 49
1, 22080, Note_on_c, 1, 33, 80
1, 22080, Note_on_c, 2, 57, 107
1, 22080, Note_on_c, 3, 69, 110
1, 22080, Note_on_c, 9, 35, 115
1, 22080, Note_on_c, 9, 42, 72
1, 22080, Lyric_t, "by"
1, 22096, Note_on_c, 9, 42, 0
1, 22096, Note_on_c, 9, 35, 0
1, 22139, Note_on_c, 2, 57, 0
1, 22156, Note_on_c, 3, 69, 0
1, 22199, Note_on_c, 1, 33, 0
1, 22200, Note_on_c, 3, 69, 110
1, 22200, Lyric_t, "³a "
1, 22319, Control_c, 2, 10, 92
1, 22320, Note_on_c, 2, 57, 66
1, 22324, Note_on_c, 3, 69, 0
1, 22379, Note_on_c, 2, 57, 0
1, 22440, Note_on_c, 3, 69, 110
1, 22440, Lyric_t, "tyl"
1, 22554, Note_on_c, 3, 69, 0
1, 22560, Note_on_c, 1, 33, 80
1, 22560, Note_on_c, 2, 57, 107
1, 22560, Note_on_c, 9, 39, 81
1, 22560, Note_on_c, 9, 40, 60
1, 22560, Note_on_c, 9, 42, 72
1, 22576, Note_on_c, 9, 42, 0
1, 22576, Note_on_c, 9, 40, 0
1, 22576, Note_on_c, 9, 39, 0
1, 22619, Note_on_c, 2, 57, 0
1, 22679, Note_on_c, 1, 33, 0
1, 22680, Note_on_c, 3, 69, 110
1, 22680, Lyric_t, "ko "
1, 22797, Control_c, 2, 10, 84
1, 22800, Note_on_c, 2, 57, 66
1, 22800, Note_on_c, 9, 42, 119
1, 22804, Note_on_c, 3, 69, 0
1, 22816, Note_on_c, 9, 42, 0
1, 22859, Note_on_c, 2, 57, 0
1, 22920, Note_on_c, 3, 71, 110
1, 22920, Lyric_t, "two"
1, 23037, Note_on_c, 0, 61, 0
1, 23037, Note_on_c, 0, 33, 0
1, 23037, Note_on_c, 0, 57, 0
1, 23037, Note_on_c, 0, 45, 0
1, 23037, Note_on_c, 0, 64, 0
1, 23037, Control_c, 2, 10, 57
1, 23040, Note_on_c, 0, 35, 95
1, 23040, Note_on_c, 0, 47, 95
1, 23040, Note_on_c, 0, 59, 90
1, 23040, Note_on_c, 0, 63, 90
1, 23040, Note_on_c, 0, 66, 90
1, 23040, Note_on_c, 1, 35, 80
1, 23040, Note_on_c, 2, 59, 107
1, 23040, Note_on_c, 9, 35, 115
1, 23040, Note_on_c, 9, 42, 71
1, 23056, Note_on_c, 9, 42, 0
1, 23056, Note_on_c, 9, 35, 0
1, 23099, Note_on_c, 2, 59, 0
1, 23159, Note_on_c, 1, 35, 0
1, 23256, Control_c, 2, 10, 33
1, 23261, Note_on_c, 3, 71, 0
1, 23280, Note_on_c, 1, 47, 80
1, 23280, Note_on_c, 2, 71, 107
1, 23280, Note_on_c, 3, 66, 110
1, 23280, Lyric_t, "ja. "
1, 23280, Lyric_t, "\015"
1, 23339, Note_on_c, 2, 71, 0
1, 23399, Note_on_c, 1, 47, 0
1, 23511, Control_c, 2, 10, 46
1, 23517, Note_on_c, 3, 66, 0
1, 23520, Note_on_c, 2, 71, 66
1, 23520, Note_on_c, 9, 39, 81
1, 23520, Note_on_c, 9, 40, 60
1, 23520, Note_on_c, 9, 42, 72
1, 23536, Note_on_c, 9, 42, 0
1, 23536, Note_on_c, 9, 40, 0
1, 23536, Note_on_c, 9, 39, 0
1, 23579, Note_on_c, 2, 71, 0
1, 23750, Control_c, 2, 10, 85
1, 23760, Note_on_c, 1, 47, 80
1, 23760, Note_on_c, 2, 71, 107
1, 23760, Note_on_c, 3, 66, 110
1, 23760, Lyric_t, "Pra"
1, 23819, Note_on_c, 2, 71, 0
1, 23878, Note_on_c, 3, 66, 0
1, 23879, Note_on_c, 1, 47, 0
1, 23991, Control_c, 2, 10, 102
1, 24000, Note_on_c, 1, 35, 80
1, 24000, Note_on_c, 2, 59, 107
1, 24000, Note_on_c, 3, 66, 110
1, 24000, Note_on_c, 9, 35, 115
1, 24000, Note_on_c, 9, 42, 72
1, 24000, Lyric_t, "gnie"
1, 24016, Note_on_c, 9, 42, 0
1, 24016, Note_on_c, 9, 35, 0
1, 24059, Note_on_c, 2, 59, 0
1, 24119, Note_on_c, 1, 35, 0
1, 24189, Note_on_c, 3, 66, 0
1, 24236, Control_c, 2, 10, 102
1, 24240, Note_on_c, 2, 59, 66
1, 24240, Note_on_c, 3, 66, 110
1, 24240, Lyric_t, "niem "
1, 24299, Note_on_c, 2, 59, 0
1, 24386, Note_on_c, 3, 66, 0
1, 24476, Control_c, 2, 10, 64
1, 24480, Note_on_c, 1, 35, 80
1, 24480, Note_on_c, 2, 59, 107
1, 24480, Note_on_c, 3, 66, 110
1, 24480, Note_on_c, 9, 39, 81
1, 24480, Note_on_c, 9, 40, 60
1, 24480, Note_on_c, 9, 42, 72
1, 24480, Lyric_t, "mym "
1, 24480, Lyric_t, "\015"
1, 24496, Note_on_c, 9, 42, 0
1, 24496, Note_on_c, 9, 40, 0
1, 24496, Note_on_c, 9, 39, 0
1, 24539, Note_on_c, 2, 59, 0
1, 24599, Note_on_c, 1, 35, 0
1, 24645, Note_on_c, 3, 66, 0
1, 24716, Control_c, 2, 10, 37
1, 24720, Note_on_c, 2, 59, 67
1, 24720, Note_on_c, 3, 66, 110
1, 24720, Note_on_c, 9, 42, 119
1, 24720, Lyric_t, "Na "
1, 24736, Note_on_c, 9, 42, 0
1, 24779, Note_on_c, 2, 59, 0
1, 24885, Note_on_c, 3, 66, 0
1, 24950, Control_c, 2, 10, 22
1, 24956, Note_on_c, 0, 59, 0
1, 24957, Note_on_c, 0, 63, 0
1, 24957, Note_on_c, 0, 35, 0
1, 24957, Note_on_c, 0, 66, 0
1, 24957, Note_on_c, 0, 47, 0
1, 24960, Note_on_c, 0, 40, 95
1, 24960, Note_on_c, 0, 52, 95
1, 24960, Note_on_c, 0, 56, 90
1, 24960, Note_on_c, 0, 59, 90
1, 24960, Note_on_c, 0, 64, 90
1, 24960, Note_on_c, 1, 40, 80
1, 24960, Note_on_c, 2, 64, 107
1, 24960, Note_on_c, 3, 71, 110
1, 24960, Note_on_c, 9, 35, 115
1, 24960, Note_on_c, 9, 42, 71
1, 24960, Lyric_t, "za"
1, 24976, Note_on_c, 9, 42, 0
1, 24976, Note_on_c, 9, 35, 0
1, 25019, Note_on_c, 2, 64, 0
1, 25079, Note_on_c, 1, 40, 0
1, 25200, Note_on_c, 1, 52, 80
1, 25200, Control_c, 2, 10, 56
1, 25200, Note_on_c, 2, 76, 107
1, 25259, Note_on_c, 2, 76, 0
1, 25319, Note_on_c, 1, 52, 0
1, 25335, Note_on_c, 3, 71, 0
1, 25435, Control_c, 2, 10, 89
1, 25440, Note_on_c, 2, 76, 67
1, 25440, Note_on_c, 3, 69, 110
1, 25440, Note_on_c, 9, 39, 81
1, 25440, Note_on_c, 9, 40, 60
1, 25440, Note_on_c, 9, 42, 72
1, 25440, Lyric_t, "wsze "
1, 25456, Note_on_c, 9, 42, 0
1, 25456, Note_on_c, 9, 40, 0
1, 25456, Note_on_c, 9, 39, 0
1, 25499, Note_on_c, 2, 76, 0
1, 25649, Control_c, 2, 10, 104
1, 25680, Note_on_c, 1, 52, 80
1, 25680, Note_on_c, 2, 76, 107
1, 25739, Note_on_c, 2, 76, 0
1, 25799, Note_on_c, 1, 52, 0
1, 25868, Note_on_c, 3, 69, 0
1, 25910, Control_c, 2, 10, 83
1, 25916, Note_on_c, 0, 59, 0
1, 25916, Note_on_c, 0, 56, 0
1, 25917, Note_on_c, 0, 40, 0
1, 25917, Note_on_c, 0, 64, 0
1, 25917, Note_on_c, 0, 52, 0
1, 25920, Note_on_c, 0, 44, 95
1, 25920, Note_on_c, 0, 56, 90
1, 25920, Note_on_c, 0, 59, 90
1, 25920, Note_on_c, 0, 63, 90
1, 25920, Note_on_c, 1, 32, 80
1, 25920, Note_on_c, 2, 56, 107
1, 25920, Note_on_c, 3, 68, 110
1, 25920, Note_on_c, 9, 35, 115
1, 25920, Note_on_c, 9, 42, 72
1, 25920, Lyric_t, "je"
1, 25936, Note_on_c, 9, 42, 0
1, 25936, Note_on_c, 9, 35, 0
1, 25979, Note_on_c, 2, 56, 0
1, 26039, Note_on_c, 1, 32, 0
1, 26054, Note_on_c, 3, 68, 0
1, 26156, Control_c, 2, 10, 48
1, 26160, Note_on_c, 2, 56, 68
1, 26160, Note_on_c, 3, 66, 110
1, 26160, Lyric_t, "ste\234 "
1, 26219, Note_on_c, 2, 56, 0
1, 26389, Control_c, 2, 10, 29
1, 26400, Note_on_c, 1, 35, 80
1, 26400, Note_on_c, 2, 59, 107
1, 26400, Note_on_c, 9, 39, 81
1, 26400, Note_on_c, 9, 40, 60
1, 26400, Note_on_c, 9, 42, 72
1, 26416, Note_on_c, 9, 42, 0
1, 26416, Note_on_c, 9, 40, 0
1, 26416, Note_on_c, 9, 39, 0
1, 26459, Note_on_c, 2, 59, 0
1, 26516, Note_on_c, 3, 66, 0
1, 26519, Note_on_c, 1, 35, 0
1, 26639, Control_c, 2, 10, 49
1, 26640, Note_on_c, 2, 59, 69
1, 26640, Note_on_c, 3, 68, 110
1, 26640, Note_on_c, 9, 42, 119
1, 26640, Lyric_t, "ty. "
1, 26640, Lyric_t, "\015"
1, 26656, Note_on_c, 9, 42, 0
1, 26699, Note_on_c, 2, 59, 0
1, 26877, Note_on_c, 0, 44, 0
1, 26877, Note_on_c, 0, 63, 0
1, 26877, Note_on_c, 0, 59, 0
1, 26877, Note_on_c, 0, 56, 0
1, 26879, Control_c, 2, 10, 80
1, 26880, Note_on_c, 0, 37, 95
1, 26880, Note_on_c, 0, 49, 95
1, 26880, Note_on_c, 0, 56, 90
1, 26880, Note_on_c, 0, 61, 90
1, 26880, Note_on_c, 0, 64, 90
1, 26880, Note_on_c, 1, 37, 80
1, 26880, Note_on_c, 2, 61, 107
1, 26880, Note_on_c, 9, 35, 115
1, 26880, Note_on_c, 9, 42, 71
1, 26896, Note_on_c, 9, 42, 0
1, 26896, Note_on_c, 9, 35, 0
1, 26939, Note_on_c, 2, 61, 0
1, 26999, Note_on_c, 1, 37, 0
1, 27087, Note_on_c, 3, 68, 0
1, 27114, Control_c, 2, 10, 103
1, 27120, Note_on_c, 1, 49, 80
1, 27120, Note_on_c, 2, 73, 107
1, 27179, Note_on_c, 2, 73, 0
1, 27239, Note_on_c, 1, 49, 0
1, 27359, Control_c, 2, 10, 98
1, 27360, Note_on_c, 2, 73, 66
1, 27360, Note_on_c, 9, 39, 81
1, 27360, Note_on_c, 9, 40, 60
1, 27360, Note_on_c, 9, 42, 72
1, 27376, Note_on_c, 9, 42, 0
1, 27376, Note_on_c, 9, 40, 0
1, 27376, Note_on_c, 9, 39, 0
1, 27419, Note_on_c, 2, 73, 0
1, 27599, Control_c, 2, 10, 46
1, 27600, Note_on_c, 1, 49, 80
1, 27600, Note_on_c, 2, 73, 107
1, 27600, Note_on_c, 3, 61, 110
1, 27600, Lyric_t, "Za"
1, 27659, Note_on_c, 2, 73, 0
1, 27694, Note_on_c, 3, 61, 0
1, 27719, Note_on_c, 1, 49, 0
1, 27834, Control_c, 2, 10, 26
1, 27840, Note_on_c, 1, 37, 80
1, 27840, Note_on_c, 2, 61, 107
1, 27840, Note_on_c, 3, 68, 110
1, 27840, Note_on_c, 9, 35, 115
1, 27840, Note_on_c, 9, 42, 72
1, 27840, Lyric_t, "sy"
1, 27856, Note_on_c, 9, 42, 0
1, 27856, Note_on_c, 9, 35, 0
1, 27899, Note_on_c, 2, 61, 0
1, 27912, Note_on_c, 3, 68, 0
1, 27959, Note_on_c, 1, 37, 0
1, 27960, Note_on_c, 3, 68, 110
1, 27960, Lyric_t, "piaæ "
1, 28058, Note_on_c, 3, 68, 0
1, 28075, Control_c, 2, 10, 46
1, 28080, Note_on_c, 2, 61, 67
1, 28139, Note_on_c, 2, 61, 0
1, 28200, Note_on_c, 3, 68, 110
1, 28200, Lyric_t, "chcê "
1, 28307, Note_on_c, 3, 68, 0
1, 28310, Control_c, 2, 10, 82
1, 28320, Note_on_c, 1, 37, 80
1, 28320, Note_on_c, 2, 61, 107
1, 28320, Note_on_c, 9, 39, 81
1, 28320, Note_on_c, 9, 40, 60
1, 28320, Note_on_c, 9, 42, 72
1, 28336, Note_on_c, 9, 42, 0
1, 28336, Note_on_c, 9, 40, 0
1, 28336, Note_on_c, 9, 39, 0
1, 28379, Note_on_c, 2, 61, 0
1, 28439, Note_on_c, 1, 37, 0
1, 28440, Note_on_c, 3, 68, 110
1, 28440, Lyric_t, "przy "
1, 28548, Note_on_c, 3, 68, 0
1, 28555, Control_c, 2, 10, 109
1, 28560, Note_on_c, 2, 61, 67
1, 28560, Note_on_c, 9, 42, 119
1, 28576, Note_on_c, 9, 42, 0
1, 28619, Note_on_c, 2, 61, 0
1, 28652, Control_c, 2, 10, 116
1, 28680, Note_on_c, 3, 68, 110
1, 28680, Lyric_t, "to"
1, 28796, Note_on_c, 0, 61, 0
1, 28796, Note_on_c, 0, 64, 0
1, 28797, Note_on_c, 0, 56, 0
1, 28797, Note_on_c, 0, 37, 0
1, 28797, Note_on_c, 0, 49, 0
1, 28800, Note_on_c, 0, 33, 95
1, 28800, Note_on_c, 0, 45, 95
1, 28800, Note_on_c, 0, 57, 90
1, 28800, Note_on_c, 0, 61, 90
1, 28800, Note_on_c, 0, 64, 90
1, 28800, Note_on_c, 1, 33, 80
1, 28800, Note_on_c, 2, 57, 107
1, 28800, Note_on_c, 9, 35, 115
1, 28800, Note_on_c, 9, 42, 71
1, 28816, Note_on_c, 9, 42, 0
1, 28816, Note_on_c, 9, 35, 0
1, 28859, Note_on_c, 2, 57, 0
1, 28919, Note_on_c, 1, 33, 0
1, 29007, Note_on_c, 3, 68, 0
1, 29035, Control_c, 2, 10, 82
1, 29040, Note_on_c, 1, 45, 80
1, 29040, Note_on_c, 2, 69, 107
1, 29040, Note_on_c, 3, 69, 110
1, 29040, Lyric_t, "bie. "
1, 29040, Lyric_t, "\015"
1, 29099, Note_on_c, 2, 69, 0
1, 29159, Note_on_c, 1, 45, 0
1, 29204, Note_on_c, 3, 69, 0
1, 29280, Control_c, 2, 10, 49
1, 29280, Note_on_c, 2, 69, 66
1, 29280, Note_on_c, 9, 39, 81
1, 29280, Note_on_c, 9, 40, 60
1, 29280, Note_on_c, 9, 42, 72
1, 29296, Note_on_c, 9, 42, 0
1, 29296, Note_on_c, 9, 40, 0
1, 29296, Note_on_c, 9, 39, 0
1, 29339, Note_on_c, 2, 69, 0
1, 29419, Note_on_c, 3, 24, 2
1, 29419, Lyric_t, "W "
1, 29421, Note_on_c, 3, 24, 0
1, 29498, Control_c, 2, 10, 33
1, 29520, Note_on_c, 1, 45, 80
1, 29520, Note_on_c, 2, 69, 107
1, 29520, Note_on_c, 3, 69, 110
1, 29520, Lyric_t, "mym "
1, 29579, Note_on_c, 2, 69, 0
1, 29617, Note_on_c, 3, 69, 0
1, 29639, Note_on_c, 1, 45, 0
1, 29758, Control_c, 2, 10, 56
1, 29760, Note_on_c, 1, 33, 80
1, 29760, Note_on_c, 2, 57, 107
1, 29760, Note_on_c, 3, 69, 110
1, 29760, Note_on_c, 9, 35, 115
1, 29760, Note_on_c, 9, 42, 72
1, 29760, Lyric_t, "ser"
1, 29776, Note_on_c, 9, 42, 0
1, 29776, Note_on_c, 9, 35, 0
1, 29819, Note_on_c, 2, 57, 0
1, 29879, Note_on_c, 1, 33, 0
1, 29883, Note_on_c, 3, 69, 0
1, 29996, Control_c, 2, 10, 84
1, 30000, Note_on_c, 2, 57, 66
1, 30000, Note_on_c, 3, 69, 110
1, 30000, Lyric_t, "cu "
1, 30059, Note_on_c, 2, 57, 0
1, 30067, Note_on_c, 3, 69, 0
1, 30120, Note_on_c, 3, 69, 110
1, 30120, Lyric_t, "po"
1, 30221, Control_c, 2, 10, 107
1, 30237, Note_on_c, 3, 69, 0
1, 30240, Note_on_c, 1, 33, 80
1, 30240, Note_on_c, 2, 57, 107
1, 30240, Note_on_c, 9, 39, 81
1, 30240, Note_on_c, 9, 40, 60
1, 30240, Note_on_c, 9, 42, 72
1, 30256, Note_on_c, 9, 42, 0
1, 30256, Note_on_c, 9, 40, 0
1, 30256, Note_on_c, 9, 39, 0
1, 30299, Note_on_c, 2, 57, 0
1, 30359, Note_on_c, 1, 33, 0
1, 30360, Note_on_c, 3, 69, 110
1, 30360, Lyric_t, "czuæ "
1, 30469, Note_on_c, 3, 69, 0
1, 30480, Control_c, 2, 10, 88
1, 30480, Note_on_c, 2, 57, 66
1, 30480, Note_on_c, 9, 42, 119
1, 30496, Note_on_c, 9, 42, 0
1, 30539, Note_on_c, 2, 57, 0
1, 30600, Note_on_c, 3, 71, 110
1, 30600, Lyric_t, "o"
1, 30714, Control_c, 2, 10, 55
1, 30717, Note_on_c, 0, 33, 0
1, 30717, Note_on_c, 0, 45, 0
1, 30717, Note_on_c, 0, 57, 0
1, 30717, Note_on_c, 0, 61, 0
1, 30717, Note_on_c, 0, 64, 0
1, 30720, Note_on_c, 0, 35, 95
1, 30720, Note_on_c, 0, 47, 95
1, 30720, Note_on_c, 0, 59, 90
1, 30720, Note_on_c, 0, 63, 90
1, 30720, Note_on_c, 0, 66, 90
1, 30720, Note_on_c, 1, 35, 80
1, 30720, Note_on_c, 2, 59, 107
1, 30720, Note_on_c, 9, 35, 115
1, 30720, Note_on_c, 9, 42, 71
1, 30736, Note_on_c, 9, 42, 0
1, 30736, Note_on_c, 9, 35, 0
1, 30779, Note_on_c, 2, 59, 0
1, 30839, Note_on_c, 1, 35, 0
1, 30915, Note_on_c, 3, 71, 0
1, 30949, Control_c, 2, 10, 29
1, 30960, Note_on_c, 1, 47, 80
1, 30960, Note_on_c, 2, 71, 107
1, 30960, Note_on_c, 3, 66, 110
1, 30960, Lyric_t, "gieñ. "
1, 30960, Lyric_t, "\015"
1, 31019, Note_on_c, 2, 71, 0
1, 31079, Note_on_c, 1, 47, 0
1, 31151, Note_on_c, 3, 66, 0
1, 31195, Control_c, 2, 10, 49
1, 31200, Note_on_c, 2, 71, 66
1, 31200, Note_on_c, 9, 39, 81
1, 31200, Note_on_c, 9, 40, 60
1, 31200, Note_on_c, 9, 42, 72
1, 31216, Note_on_c, 9, 42, 0
1, 31216, Note_on_c, 9, 40, 0
1, 31216, Note_on_c, 9, 39, 0
1, 31259, Note_on_c, 2, 71, 0
1, 31435, Control_c, 2, 10, 89
1, 31440, Note_on_c, 1, 47, 80
1, 31440, Note_on_c, 2, 71, 107
1, 31440, Note_on_c, 3, 66, 110
1, 31440, Lyric_t, "Co "
1, 31499, Note_on_c, 2, 71, 0
1, 31547, Note_on_c, 3, 66, 0
1, 31559, Note_on_c, 1, 47, 0
1, 31674, Control_c, 2, 10, 110
1, 31680, Note_on_c, 1, 35, 80
1, 31680, Note_on_c, 2, 59, 107
1, 31680, Note_on_c, 3, 66, 110
1, 31680, Note_on_c, 9, 35, 115
1, 31680, Note_on_c, 9, 42, 72
1, 31680, Lyric_t, "zro"
1, 31696, Note_on_c, 9, 42, 0
1, 31696, Note_on_c, 9, 35, 0
1, 31739, Note_on_c, 2, 59, 0
1, 31799, Note_on_c, 1, 35, 0
1, 31875, Note_on_c, 3, 66, 0
1, 31919, Control_c, 2, 10, 102
1, 31920, Note_on_c, 2, 59, 66
1, 31920, Note_on_c, 3, 66, 110
1, 31920, Lyric_t, "biæ "
1, 31979, Note_on_c, 2, 59, 0
1, 32037, Note_on_c, 3, 66, 0
1, 32155, Control_c, 2, 10, 73
1, 32160, Note_on_c, 1, 35, 80
1, 32160, Note_on_c, 2, 59, 107
1, 32160, Note_on_c, 3, 66, 110
1, 32160, Note_on_c, 9, 39, 81
1, 32160, Note_on_c, 9, 40, 60
1, 32160, Note_on_c, 9, 42, 72
1, 32160, Lyric_t, "mam "
1, 32160, Lyric_t, "\015"
1, 32176, Note_on_c, 9, 42, 0
1, 32176, Note_on_c, 9, 40, 0
1, 32176, Note_on_c, 9, 39, 0
1, 32219, Note_on_c, 2, 59, 0
1, 32279, Note_on_c, 1, 35, 0
1, 32301, Note_on_c, 3, 66, 0
1, 32379, Control_c, 2, 10, 49
1, 32400, Note_on_c, 2, 59, 67
1, 32400, Note_on_c, 3, 66, 110
1, 32400, Note_on_c, 9, 42, 119
1, 32400, Lyric_t, "By "
1, 32416, Note_on_c, 9, 42, 0
1, 32459, Note_on_c, 2, 59, 0
1, 32519, Note_on_c, 3, 66, 0
1, 32629, Control_c, 2, 10, 32
1, 32636, Note_on_c, 0, 59, 0
1, 32637, Note_on_c, 0, 63, 0
1, 32637, Note_on_c, 0, 35, 0
1, 32637, Note_on_c, 0, 66, 0
1, 32637, Note_on_c, 0, 47, 0
1, 32640, Note_on_c, 0, 40, 95
1, 32640, Note_on_c, 0, 52, 95
1, 32640, Note_on_c, 0, 56, 90
1, 32640, Note_on_c, 0, 59, 90
1, 32640, Note_on_c, 0, 64, 90
1, 32640, Note_on_c, 1, 40, 80
1, 32640, Note_on_c, 2, 64, 107
1, 32640, Note_on_c, 3, 66, 110
1, 32640, Note_on_c, 9, 35, 115
1, 32640, Note_on_c, 9, 42, 71
1, 32640, Lyric_t, "za"
1, 32656, Note_on_c, 9, 42, 0
1, 32656, Note_on_c, 9, 35, 0
1, 32699, Note_on_c, 2, 64, 0
1, 32759, Note_on_c, 1, 40, 0
1, 32869, Control_c, 2, 10, 49
1, 32880, Note_on_c, 1, 52, 80
1, 32880, Note_on_c, 2, 76, 107
1, 32880, Note_on_c, 10, 24, 51
1, 32939, Note_on_c, 2, 76, 0
1, 32942, Note_on_c, 10, 26, 53
1, 32969, Note_on_c, 10, 24, 0
1, 32996, Note_on_c, 3, 66, 0
1, 32999, Note_on_c, 1, 52, 0
1, 33010, Note_on_c, 10, 26, 0
1, 33015, Note_on_c, 10, 28, 55
1, 33056, Note_on_c, 10, 28, 0
1, 33061, Note_on_c, 10, 29, 57
1, 33104, Note_on_c, 10, 31, 59
1, 33107, Note_on_c, 10, 29, 0
1, 33115, Control_c, 2, 10, 84
1, 33120, Note_on_c, 2, 76, 67
1, 33120, Note_on_c, 3, 64, 110
1, 33120, Note_on_c, 9, 39, 81
1, 33120, Note_on_c, 9, 40, 60
1, 33120, Note_on_c, 9, 42, 72
1, 33120, Lyric_t, "wsze "
1, 33136, Note_on_c, 9, 42, 0
1, 33136, Note_on_c, 9, 40, 0
1, 33136, Note_on_c, 9, 39, 0
1, 33150, Note_on_c, 10, 33, 60
1, 33156, Note_on_c, 10, 31, 0
1, 33179, Note_on_c, 2, 76, 0
1, 33199, Note_on_c, 10, 35, 62
1, 33205, Note_on_c, 10, 33, 0
1, 33248, Note_on_c, 10, 36, 64
1, 33253, Note_on_c, 10, 35, 0
1, 33300, Note_on_c, 10, 38, 65
1, 33301, Note_on_c, 10, 36, 0
1, 33339, Control_c, 2, 10, 111
1, 33349, Note_on_c, 10, 40, 67
1, 33350, Note_on_c, 10, 38, 0
1, 33360, Note_on_c, 1, 52, 80
1, 33360, Note_on_c, 2, 76, 107
1, 33396, Note_on_c, 10, 41, 69
1, 33401, Note_on_c, 10, 40, 0
1, 33418, Note_on_c, 3, 64, 0
1, 33419, Note_on_c, 2, 76, 0
1, 33445, Note_on_c, 10, 43, 70
1, 33450, Note_on_c, 10, 41, 0
1, 33479, Note_on_c, 1, 52, 0
1, 33493, Note_on_c, 10, 45, 72
1, 33500, Note_on_c, 10, 43, 0
1, 33508, Note_on_c, 3, 24, 2
1, 33508, Lyric_t, "z "
1, 33510, Note_on_c, 3, 24, 0
1, 33539, Note_on_c, 10, 47, 74
1, 33547, Note_on_c, 10, 45, 0
1, 33588, Note_on_c, 10, 48, 75
1, 33595, Note_on_c, 10, 47, 0
1, 33596, Note_on_c, 0, 59, 0
1, 33596, Note_on_c, 0, 56, 0
1, 33597, Note_on_c, 0, 64, 0
1, 33597, Note_on_c, 0, 40, 0
1, 33597, Note_on_c, 0, 52, 0
1, 33600, Note_on_c, 0, 44, 95
1, 33600, Note_on_c, 0, 56, 90
1, 33600, Note_on_c, 0, 59, 90
1, 33600, Note_on_c, 0, 63, 90
1, 33600, Note_on_c, 1, 32, 80
1, 33600, Note_on_c, 2, 56, 107
1, 33600, Note_on_c, 3, 64, 110
1, 33600, Note_on_c, 9, 35, 115
1, 33600, Note_on_c, 9, 42, 72
1, 33600, Note_on_c, 11, 60, 96
1, 33600, Lyric_t, "to"
1, 33616, Note_on_c, 9, 42, 0
1, 33616, Note_on_c, 9, 35, 0
1, 33635, Note_on_c, 10, 50, 77
1, 33644, Note_on_c, 10, 48, 0
1, 33659, Note_on_c, 2, 56, 0
1, 33681, Note_on_c, 10, 52, 79
1, 33691, Note_on_c, 10, 50, 0
1, 33719, Note_on_c, 1, 32, 0
1, 33729, Note_on_c, 10, 53, 80
1, 33740, Note_on_c, 10, 52, 0
1, 33778, Note_on_c, 10, 55, 82
1, 33786, Note_on_c, 3, 64, 0
1, 33787, Note_on_c, 10, 53, 0
1, 33824, Note_on_c, 10, 57, 84
1, 33827, Control_c, 2, 10, 80
1, 33835, Note_on_c, 10, 55, 0
1, 33840, Note_on_c, 2, 56, 68
1, 33840, Note_on_c, 3, 66, 110
1, 33840, Lyric_t, "b¹ "
1, 33873, Note_on_c, 10, 59, 85
1, 33885, Note_on_c, 10, 57, 0
1, 33899, Note_on_c, 2, 56, 0
1, 33919, Note_on_c, 10, 60, 87
1, 33931, Note_on_c, 10, 59, 0
1, 33968, Note_on_c, 10, 62, 89
1, 33978, Note_on_c, 10, 60, 0
1, 33992, Note_on_c, 9, 40, 60
1, 34008, Note_on_c, 9, 40, 0
1, 34013, Note_on_c, 10, 64, 90
1, 34027, Note_on_c, 10, 62, 0
1, 34041, Control_c, 2, 10, 72
1, 34061, Note_on_c, 10, 65, 92
1, 34074, Note_on_c, 10, 64, 0
1, 34080, Note_on_c, 1, 35, 80
1, 34080, Note_on_c, 2, 59, 107
1, 34080, Note_on_c, 9, 39, 81
1, 34080, Note_on_c, 9, 40, 60
1, 34080, Note_on_c, 9, 42, 72
1, 34096, Note_on_c, 9, 42, 0
1, 34096, Note_on_c, 9, 39, 0
1, 34096, Note_on_c, 9, 40, 0
1, 34107, Note_on_c, 10, 67, 94
1, 34121, Note_on_c, 10, 65, 0
1, 34139, Note_on_c, 2, 59, 0
1, 34156, Note_on_c, 10, 69, 95
1, 34168, Note_on_c, 10, 67, 0
1, 34199, Note_on_c, 1, 35, 0
1, 34204, Note_on_c, 10, 71, 97
1, 34212, Note_on_c, 3, 66, 0
1, 34215, Note_on_c, 10, 69, 0
1, 34249, Note_on_c, 10, 72, 98
1, 34262, Note_on_c, 10, 71, 0
1, 34297, Note_on_c, 10, 74, 100
1, 34308, Note_on_c, 10, 72, 0
1, 34312, Control_c, 2, 10, 64
1, 34320, Note_on_c, 2, 59, 69
1, 34320, Note_on_c, 3, 61, 110
1, 34320, Note_on_c, 9, 40, 60
1, 34320, Note_on_c, 9, 42, 119
1, 34320, Lyric_t, "byæ? "
1, 34320, Lyric_t, "\015"
1, 34320, Lyric_t, "\012"
1, 34336, Note_on_c, 9, 42, 0
1, 34336, Note_on_c, 9, 40, 0
1, 34340, Note_on_c, 10, 76, 102
1, 34352, Note_on_c, 10, 74, 0
1, 34379, Note_on_c, 2, 59, 0
1, 34383, Note_on_c, 10, 77, 103
1, 34398, Note_on_c, 10, 76, 0
1, 34423, Note_on_c, 10, 79, 105
1, 34436, Note_on_c, 10, 77, 0
1, 34460, Note_on_c, 10, 81, 106
1, 34472, Note_on_c, 9, 40, 60
1, 34473, Note_on_c, 10, 79, 0
1, 34488, Note_on_c, 9, 40, 0
1, 34497, Note_on_c, 10, 83, 107
1, 34512, Note_on_c, 10, 81, 0
1, 34537, Note_on_c, 10, 84, 109
1, 34550, Note_on_c, 10, 83, 0
1, 34557, Note_on_c, 0, 44, 0
1, 34557, Note_on_c, 0, 56, 0
1, 34557, Note_on_c, 0, 63, 0
1, 34557, Note_on_c, 0, 59, 0
1, 34559, Note_on_c, 11, 60, 0
1, 34560, Note_on_c, 9, 35, 115
1, 34560, Note_on_c, 9, 42, 68
1, 34560, Note_on_c, 9, 57, 80
1, 34560, Note_on_c, 10, 88, 117
1, 34576, Note_on_c, 9, 57, 0
1, 34576, Note_on_c, 9, 42, 0
1, 34576, Note_on_c, 9, 35, 0
1, 34581, Note_on_c, 10, 84, 0
1, 34606, Note_on_c, 10, 87, 114
1, 34619, Note_on_c, 10, 88, 0
1, 34636, Note_on_c, 10, 85, 113
1, 34665, Note_on_c, 10, 87, 0
1, 34666, Note_on_c, 10, 83, 111
1, 34695, Note_on_c, 10, 85, 0
1, 34698, Note_on_c, 10, 81, 110
1, 34709, Note_on_c, 3, 61, 0
1, 34725, Note_on_c, 10, 83, 0
1, 34737, Note_on_c, 10, 80, 109
1, 34757, Note_on_c, 10, 81, 0
1, 34778, Note_on_c, 10, 78, 107
1, 34796, Note_on_c, 10, 80, 0
1, 34800, Note_on_c, 9, 46, 50
1, 34800, Note_on_c, 11, 77, 100
1, 34816, Note_on_c, 9, 46, 0
1, 34828, Note_on_c, 10, 76, 104
1, 34837, Note_on_c, 10, 78, 0
1, 34887, Note_on_c, 10, 76, 0
1, 34887, Note_on_c, 10, 75, 102
1, 34936, Note_on_c, 10, 73, 100
1, 34946, Note_on_c, 10, 75, 0
1, 34988, Note_on_c, 10, 71, 98
1, 34995, Note_on_c, 10, 73, 0
1, 35039, Note_on_c, 11, 77, 0
1, 35039, Note_on_c, 10, 69, 95
1, 35040, Note_on_c, 9, 42, 68
1, 35047, Note_on_c, 10, 71, 0
1, 35056, Note_on_c, 9, 42, 0
1, 35095, Note_on_c, 10, 68, 93
1, 35098, Note_on_c, 10, 69, 0
1, 35148, Note_on_c, 10, 66, 91
1, 35154, Note_on_c, 10, 68, 0
1, 35206, Note_on_c, 10, 64, 88
1, 35207, Note_on_c, 10, 66, 0
1, 35264, Note_on_c, 10, 63, 85
1, 35265, Note_on_c, 10, 64, 0
1, 35280, Note_on_c, 9, 46, 78
1, 35280, Note_on_c, 11, 65, 100
1, 35296, Note_on_c, 9, 46, 0
1, 35323, Note_on_c, 10, 63, 0
1, 35325, Note_on_c, 10, 61, 83
1, 35384, Note_on_c, 10, 61, 0
1, 35388, Note_on_c, 10, 59, 80
1, 35447, Note_on_c, 10, 59, 0
1, 35449, Note_on_c, 10, 57, 78
1, 35508, Note_on_c, 10, 57, 0
1, 35513, Note_on_c, 10, 56, 74
1, 35519, Note_on_c, 11, 65, 0
1, 35520, Note_on_c, 9, 42, 51
1, 35536, Note_on_c, 9, 42, 0
1, 35572, Note_on_c, 10, 56, 0
1, 35574, Note_on_c, 10, 54, 72
1, 35633, Note_on_c, 10, 54, 0
1, 35640, Note_on_c, 10, 52, 70
1, 35699, Note_on_c, 10, 52, 0
1, 35705, Note_on_c, 10, 51, 66
1, 35760, Note_on_c, 9, 46, 60
1, 35760, Note_on_c, 11, 53, 100
1, 35764, Note_on_c, 10, 51, 0
1, 35772, Note_on_c, 10, 49, 63
1, 35776, Note_on_c, 9, 46, 0
1, 35831, Note_on_c, 10, 49, 0
1, 35847, Note_on_c, 10, 47, 61
1, 35906, Note_on_c, 10, 47, 0
1, 35916, Note_on_c, 10, 45, 58
1, 35975, Note_on_c, 10, 45, 0
1, 35986, Note_on_c, 10, 44, 54
1, 35999, Note_on_c, 11, 53, 0
1, 36000, Note_on_c, 9, 42, 34
1, 36016, Note_on_c, 9, 42, 0
1, 36045, Note_on_c, 10, 44, 0
1, 36057, Note_on_c, 10, 42, 51
1, 36116, Note_on_c, 10, 42, 0
1, 36122, Note_on_c, 10, 40, 49
1, 36181, Note_on_c, 10, 40, 0
1, 36192, Note_on_c, 10, 39, 45
1, 36240, Note_on_c, 9, 46, 43
1, 36240, Note_on_c, 11, 41, 100
1, 36251, Note_on_c, 10, 39, 0
1, 36256, Note_on_c, 9, 46, 0
1, 36260, Note_on_c, 10, 37, 42
1, 36319, Note_on_c, 10, 37, 0
1, 36323, Note_on_c, 10, 35, 40
1, 36382, Note_on_c, 10, 35, 0
1, 36387, Note_on_c, 10, 33, 38
1, 36446, Note_on_c, 10, 33, 0
1, 36479, Note_on_c, 11, 41, 0
1, 36480, Note_on_c, 0, 61, 60
1, 36480, Note_on_c, 0, 64, 60
1, 36480, Note_on_c, 0, 68, 60
1, 36480, Note_on_c, 3, 56, 110
1, 36480, Note_on_c, 9, 35, 115
1, 36480, Note_on_c, 9, 42, 71
1, 36480, Note_on_c, 9, 57, 80
1, 36480, Note_on_c, 9, 70, 34
1, 36480, Lyric_t, "Dzieñ "
1, 36496, Note_on_c, 9, 70, 0
1, 36496, Note_on_c, 9, 57, 0
1, 36496, Note_on_c, 9, 35, 0
1, 36496, Note_on_c, 9, 42, 0
1, 36720, Note_on_c, 1, 37, 100
1, 36720, Note_on_c, 2, 61, 107
1, 36720, Note_on_c, 5, 61, 90
1, 36720, Note_on_c, 9, 42, 119
1, 36720, Note_on_c, 9, 70, 116
1, 36720, Note_on_c, 12, 56, 100
1, 36720, Note_on_c, 12, 61, 100
1, 36720, Note_on_c, 12, 64, 100
1, 36720, Note_on_c, 12, 68, 100
1, 36720, Note_on_c, 14, 61, 103
1, 36725, Note_on_c, 14, 64, 103
1, 36728, Note_on_c, 14, 68, 103
1, 36733, Note_on_c, 14, 73, 103
1, 36736, Note_on_c, 9, 70, 0
1, 36736, Note_on_c, 9, 42, 0
1, 36779, Note_on_c, 2, 61, 0
1, 36790, Note_on_c, 12, 61, 0
1, 36790, Note_on_c, 12, 56, 0
1, 36790, Note_on_c, 12, 68, 0
1, 36790, Note_on_c, 12, 64, 0
1, 36807, Note_on_c, 5, 61, 0
1, 36836, Note_on_c, 14, 73, 0
1, 36839, Note_on_c, 14, 68, 0
1, 36839, Note_on_c, 14, 61, 0
1, 36839, Note_on_c, 14, 64, 0
1, 36840, Note_on_c, 14, 73, 71
1, 36842, Note_on_c, 14, 68, 71
1, 36847, Note_on_c, 14, 64, 71
1, 36852, Note_on_c, 14, 61, 71
1, 36879, Note_on_c, 1, 37, 0
1, 36931, Note_on_c, 3, 56, 0
1, 36959, Note_on_c, 14, 64, 0
1, 36959, Note_on_c, 14, 73, 0
1, 36959, Note_on_c, 14, 61, 0
1, 36959, Note_on_c, 14, 68, 0
1, 36960, Note_on_c, 9, 35, 115
1, 36960, Note_on_c, 9, 39, 81
1, 36960, Note_on_c, 9, 40, 60
1, 36960, Note_on_c, 9, 42, 72
1, 36960, Note_on_c, 9, 70, 36
1, 36960, Note_on_c, 14, 61, 103
1, 36965, Note_on_c, 14, 64, 103
1, 36968, Note_on_c, 14, 68, 103
1, 36972, Note_on_c, 14, 73, 103
1, 36976, Note_on_c, 9, 70, 0
1, 36976, Note_on_c, 9, 42, 0
1, 36976, Note_on_c, 9, 35, 0
1, 36976, Note_on_c, 9, 40, 0
1, 36976, Note_on_c, 9, 39, 0
1, 37079, Note_on_c, 14, 64, 0
1, 37079, Note_on_c, 14, 61, 0
1, 37079, Note_on_c, 14, 68, 0
1, 37079, Note_on_c, 14, 73, 0
1, 37200, Note_on_c, 1, 37, 100
1, 37200, Note_on_c, 2, 61, 107
1, 37200, Note_on_c, 3, 49, 110
1, 37200, Note_on_c, 5, 61, 90
1, 37200, Note_on_c, 9, 42, 119
1, 37200, Note_on_c, 9, 70, 116
1, 37200, Note_on_c, 12, 56, 100
1, 37200, Note_on_c, 12, 61, 100
1, 37200, Note_on_c, 12, 64, 100
1, 37200, Note_on_c, 12, 68, 100
1, 37200, Lyric_t, "za"
1, 37216, Note_on_c, 9, 70, 0
1, 37216, Note_on_c, 9, 42, 0
1, 37259, Note_on_c, 2, 61, 0
1, 37270, Note_on_c, 12, 61, 0
1, 37270, Note_on_c, 12, 56, 0
1, 37270, Note_on_c, 12, 68, 0
1, 37270, Note_on_c, 12, 64, 0
1, 37287, Note_on_c, 5, 61, 0
1, 37320, Note_on_c, 5, 59, 90
1, 37357, Note_on_c, 3, 49, 0
1, 37359, Note_on_c, 1, 37, 0
1, 37407, Note_on_c, 5, 59, 0
1, 37440, Note_on_c, 3, 56, 110
1, 37440, Note_on_c, 9, 35, 115
1, 37440, Note_on_c, 9, 42, 72
1, 37440, Note_on_c, 9, 70, 36
1, 37440, Lyric_t, "czy"
1, 37456, Note_on_c, 9, 70, 0
1, 37456, Note_on_c, 9, 35, 0
1, 37456, Note_on_c, 9, 42, 0
1, 37592, Note_on_c, 3, 56, 0
1, 37680, Note_on_c, 1, 37, 100
1, 37680, Note_on_c, 2, 61, 107
1, 37680, Note_on_c, 3, 56, 110
1, 37680, Note_on_c, 5, 61, 90
1, 37680, Note_on_c, 9, 42, 119
1, 37680, Note_on_c, 9, 70, 116
1, 37680, Note_on_c, 12, 56, 100
1, 37680, Note_on_c, 12, 61, 100
1, 37680, Note_on_c, 12, 64, 100
1, 37680, Note_on_c, 12, 68, 100
1, 37680, Note_on_c, 14, 73, 81
1, 37680, Lyric_t, "nasz "
1, 37684, Note_on_c, 14, 68, 81
1, 37687, Note_on_c, 14, 64, 81
1, 37690, Note_on_c, 14, 61, 81
1, 37696, Note_on_c, 9, 70, 0
1, 37696, Note_on_c, 9, 42, 0
1, 37739, Note_on_c, 2, 61, 0
1, 37750, Note_on_c, 12, 61, 0
1, 37750, Note_on_c, 12, 56, 0
1, 37750, Note_on_c, 12, 68, 0
1, 37750, Note_on_c, 12, 64, 0
1, 37766, Note_on_c, 14, 73, 0
1, 37767, Note_on_c, 5, 61, 0
1, 37770, Note_on_c, 14, 68, 0
1, 37773, Note_on_c, 14, 64, 0
1, 37776, Note_on_c, 14, 61, 0
1, 37799, Note_on_c, 3, 56, 0
1, 37800, Note_on_c, 2, 61, 107
1, 37800, Note_on_c, 5, 61, 90
1, 37839, Note_on_c, 1, 37, 0
1, 37859, Note_on_c, 2, 61, 0
1, 37887, Note_on_c, 5, 61, 0
1, 37920, Note_on_c, 3, 56, 110
1, 37920, Note_on_c, 9, 35, 115
1, 37920, Note_on_c, 9, 39, 81
1, 37920, Note_on_c, 9, 40, 60
1, 37920, Note_on_c, 9, 42, 72
1, 37920, Note_on_c, 9, 70, 36
1, 37920, Lyric_t, "pro"
1, 37936, Note_on_c, 9, 70, 0
1, 37936, Note_on_c, 9, 42, 0
1, 37936, Note_on_c, 9, 40, 0
1, 37936, Note_on_c, 9, 35, 0
1, 37936, Note_on_c, 9, 39, 0
1, 38039, Note_on_c, 3, 56, 0
1, 38160, Note_on_c, 1, 40, 100
1, 38160, Note_on_c, 2, 64, 107
1, 38160, Note_on_c, 3, 56, 110
1, 38160, Note_on_c, 5, 61, 90
1, 38160, Note_on_c, 9, 42, 119
1, 38160, Note_on_c, 9, 70, 116
1, 38160, Note_on_c, 12, 56, 100
1, 38160, Note_on_c, 12, 61, 100
1, 38160, Note_on_c, 12, 64, 100
1, 38160, Note_on_c, 12, 68, 100
1, 38160, Note_on_c, 14, 73, 81
1, 38160, Lyric_t, "stym "
1, 38164, Note_on_c, 14, 68, 81
1, 38167, Note_on_c, 14, 64, 81
1, 38170, Note_on_c, 14, 61, 81
1, 38176, Note_on_c, 9, 70, 0
1, 38176, Note_on_c, 9, 42, 0
1, 38219, Note_on_c, 2, 64, 0
1, 38230, Note_on_c, 12, 61, 0
1, 38230, Note_on_c, 12, 56, 0
1, 38230, Note_on_c, 12, 68, 0
1, 38230, Note_on_c, 12, 64, 0
1, 38246, Note_on_c, 14, 73, 0
1, 38247, Note_on_c, 5, 61, 0
1, 38250, Note_on_c, 14, 68, 0
1, 38253, Note_on_c, 14, 64, 0
1, 38256, Note_on_c, 14, 61, 0
1, 38279, Note_on_c, 3, 56, 0
1, 38319, Note_on_c, 1, 40, 0
1, 38397, Note_on_c, 0, 64, 0
1, 38397, Note_on_c, 0, 61, 0
1, 38398, Note_on_c, 0, 68, 0
1, 38400, Note_on_c, 0, 61, 60
1, 38400, Note_on_c, 0, 64, 60
1, 38400, Note_on_c, 0, 69, 60
1, 38400, Note_on_c, 3, 56, 110
1, 38400, Note_on_c, 9, 35, 115
1, 38400, Note_on_c, 9, 42, 71
1, 38400, Note_on_c, 9, 70, 34
1, 38400, Lyric_t, "s³o"
1, 38416, Note_on_c, 9, 70, 0
1, 38416, Note_on_c, 9, 35, 0
1, 38416, Note_on_c, 9, 42, 0
1, 38640, Note_on_c, 1, 33, 100
1, 38640, Note_on_c, 2, 57, 107
1, 38640, Note_on_c, 5, 61, 90
1, 38640, Note_on_c, 9, 42, 119
1, 38640, Note_on_c, 9, 70, 116
1, 38640, Note_on_c, 12, 57, 100
1, 38640, Note_on_c, 12, 61, 100
1, 38640, Note_on_c, 12, 64, 100
1, 38640, Note_on_c, 12, 69, 100
1, 38640, Note_on_c, 14, 61, 59
1, 38645, Note_on_c, 14, 64, 59
1, 38648, Note_on_c, 14, 69, 59
1, 38652, Note_on_c, 14, 73, 59
1, 38656, Note_on_c, 9, 70, 0
1, 38656, Note_on_c, 9, 42, 0
1, 38699, Note_on_c, 2, 57, 0
1, 38710, Note_on_c, 12, 61, 0
1, 38710, Note_on_c, 12, 57, 0
1, 38710, Note_on_c, 12, 69, 0
1, 38710, Note_on_c, 12, 64, 0
1, 38727, Note_on_c, 5, 61, 0
1, 38759, Note_on_c, 14, 69, 0
1, 38759, Note_on_c, 14, 73, 0
1, 38759, Note_on_c, 14, 61, 0
1, 38759, Note_on_c, 14, 64, 0
1, 38760, Note_on_c, 14, 73, 83
1, 38764, Note_on_c, 14, 69, 83
1, 38767, Note_on_c, 14, 64, 83
1, 38770, Note_on_c, 14, 61, 82
1, 38799, Note_on_c, 1, 33, 0
1, 38799, Note_on_c, 3, 56, 0
1, 38856, Note_on_c, 14, 73, 0
1, 38860, Note_on_c, 14, 69, 0
1, 38863, Note_on_c, 14, 64, 0
1, 38866, Note_on_c, 14, 61, 0
1, 38880, Note_on_c, 3, 54, 110
1, 38880, Note_on_c, 9, 35, 115
1, 38880, Note_on_c, 9, 39, 81
1, 38880, Note_on_c, 9, 40, 60
1, 38880, Note_on_c, 9, 42, 72
1, 38880, Note_on_c, 9, 70, 36
1, 38880, Lyric_t, "wem: "
1, 38880, Lyric_t, "\015"
1, 38896, Note_on_c, 9, 70, 0
1, 38896, Note_on_c, 9, 42, 0
1, 38896, Note_on_c, 9, 40, 0
1, 38896, Note_on_c, 9, 35, 0
1, 38896, Note_on_c, 9, 39, 0
1, 39000, Note_on_c, 14, 73, 82
1, 39004, Note_on_c, 14, 69, 82
1, 39007, Note_on_c, 14, 64, 82
1, 39010, Note_on_c, 14, 61, 82
1, 39096, Note_on_c, 14, 73, 0
1, 39100, Note_on_c, 14, 69, 0
1, 39103, Note_on_c, 14, 64, 0
1, 39106, Note_on_c, 14, 61, 0
1, 39120, Note_on_c, 1, 33, 100
1, 39120, Note_on_c, 2, 57, 107
1, 39120, Note_on_c, 5, 57, 90
1, 39120, Note_on_c, 9, 42, 119
1, 39120, Note_on_c, 9, 70, 116
1, 39120, Note_on_c, 12, 57, 100
1, 39120, Note_on_c, 12, 61, 100
1, 39120, Note_on_c, 12, 64, 100
1, 39120, Note_on_c, 12, 69, 100
1, 39136, Note_on_c, 9, 70, 0
1, 39136, Note_on_c, 9, 42, 0
1, 39179, Note_on_c, 2, 57, 0
1, 39190, Note_on_c, 12, 61, 0
1, 39190, Note_on_c, 12, 57, 0
1, 39190, Note_on_c, 12, 69, 0
1, 39190, Note_on_c, 12, 64, 0
1, 39207, Note_on_c, 5, 57, 0
1, 39227, Note_on_c, 3, 54, 0
1, 39240, Note_on_c, 5, 61, 90
1, 39279, Note_on_c, 1, 33, 0
1, 39327, Note_on_c, 5, 61, 0
1, 39360, Note_on_c, 3, 57, 110
1, 39360, Note_on_c, 9, 35, 115
1, 39360, Note_on_c, 9, 42, 72
1, 39360, Note_on_c, 9, 70, 36
1, 39360, Lyric_t, "Ko"
1, 39376, Note_on_c, 9, 70, 0
1, 39376, Note_on_c, 9, 35, 0
1, 39376, Note_on_c, 9, 42, 0
1, 39471, Note_on_c, 3, 57, 0
1, 39600, Note_on_c, 1, 33, 100
1, 39600, Note_on_c, 2, 57, 107
1, 39600, Note_on_c, 3, 56, 110
1, 39600, Note_on_c, 5, 57, 90
1, 39600, Note_on_c, 9, 42, 119
1, 39600, Note_on_c, 9, 70, 116
1, 39600, Note_on_c, 12, 57, 100
1, 39600, Note_on_c, 12, 61, 100
1, 39600, Note_on_c, 12, 64, 100
1, 39600, Note_on_c, 12, 69, 100
1, 39600, Note_on_c, 14, 73, 82
1, 39600, Lyric_t, "cham "
1, 39604, Note_on_c, 14, 69, 82
1, 39607, Note_on_c, 14, 64, 82
1, 39610, Note_on_c, 14, 61, 82
1, 39616, Note_on_c, 9, 70, 0
1, 39616, Note_on_c, 9, 42, 0
1, 39659, Note_on_c, 2, 57, 0
1, 39670, Note_on_c, 12, 61, 0
1, 39670, Note_on_c, 12, 57, 0
1, 39670, Note_on_c, 12, 69, 0
1, 39670, Note_on_c, 12, 64, 0
1, 39687, Note_on_c, 5, 57, 0
1, 39696, Note_on_c, 14, 73, 0
1, 39700, Note_on_c, 14, 69, 0
1, 39703, Note_on_c, 14, 64, 0
1, 39706, Note_on_c, 14, 61, 0
1, 39720, Note_on_c, 2, 57, 107
1, 39720, Note_on_c, 5, 57, 90
1, 39759, Note_on_c, 1, 33, 0
1, 39779, Note_on_c, 2, 57, 0
1, 39807, Note_on_c, 5, 57, 0
1, 39840, Note_on_c, 9, 35, 115
1, 39840, Note_on_c, 9, 39, 81
1, 39840, Note_on_c, 9, 40, 60
1, 39840, Note_on_c, 9, 42, 72
1, 39840, Note_on_c, 9, 70, 36
1, 39856, Note_on_c, 9, 70, 0
1, 39856, Note_on_c, 9, 42, 0
1, 39856, Note_on_c, 9, 40, 0
1, 39856, Note_on_c, 9, 35, 0
1, 39856, Note_on_c, 9, 39, 0
1, 39951, Note_on_c, 3, 56, 0
1, 40080, Note_on_c, 1, 37, 100
1, 40080, Note_on_c, 2, 61, 107
1, 40080, Note_on_c, 3, 54, 110
1, 40080, Note_on_c, 5, 61, 90
1, 40080, Note_on_c, 9, 42, 119
1, 40080, Note_on_c, 9, 70, 116
1, 40080, Note_on_c, 12, 57, 100
1, 40080, Note_on_c, 12, 61, 100
1, 40080, Note_on_c, 12, 64, 100
1, 40080, Note_on_c, 12, 69, 100
1, 40080, Note_on_c, 14, 73, 81
1, 40080, Lyric_t, "ciê. "
1, 40080, Lyric_t, "\015"
1, 40084, Note_on_c, 14, 69, 81
1, 40087, Note_on_c, 14, 64, 81
1, 40090, Note_on_c, 14, 61, 81
1, 40096, Note_on_c, 9, 70, 0
1, 40096, Note_on_c, 9, 42, 0
1, 40139, Note_on_c, 2, 61, 0
1, 40150, Note_on_c, 12, 61, 0
1, 40150, Note_on_c, 12, 57, 0
1, 40150, Note_on_c, 12, 69, 0
1, 40150, Note_on_c, 12, 64, 0
1, 40166, Note_on_c, 14, 73, 0
1, 40167, Note_on_c, 5, 61, 0
1, 40170, Note_on_c, 14, 69, 0
1, 40173, Note_on_c, 14, 64, 0
1, 40176, Note_on_c, 14, 61, 0
1, 40239, Note_on_c, 1, 37, 0
1, 40318, Note_on_c, 0, 64, 0
1, 40318, Note_on_c, 0, 61, 0
1, 40318, Note_on_c, 0, 69, 0
1, 40320, Note_on_c, 0, 59, 60
1, 40320, Note_on_c, 0, 63, 60
1, 40320, Note_on_c, 0, 66, 60
1, 40320, Note_on_c, 9, 35, 115
1, 40320, Note_on_c, 9, 42, 71
1, 40320, Note_on_c, 9, 70, 34
1, 40336, Note_on_c, 9, 70, 0
1, 40336, Note_on_c, 9, 35, 0
1, 40336, Note_on_c, 9, 42, 0
1, 40535, Note_on_c, 3, 54, 0
1, 40560, Note_on_c, 1, 35, 100
1, 40560, Note_on_c, 2, 59, 107
1, 40560, Note_on_c, 5, 59, 90
1, 40560, Note_on_c, 9, 42, 119
1, 40560, Note_on_c, 9, 70, 116
1, 40560, Note_on_c, 12, 59, 100
1, 40560, Note_on_c, 12, 63, 100
1, 40560, Note_on_c, 12, 66, 100
1, 40560, Note_on_c, 12, 71, 100
1, 40560, Note_on_c, 14, 63, 103
1, 40560, Note_on_c, 14, 66, 103
1, 40560, Note_on_c, 14, 71, 103
1, 40560, Note_on_c, 14, 75, 103
1, 40576, Note_on_c, 9, 70, 0
1, 40576, Note_on_c, 9, 42, 0
1, 40619, Note_on_c, 2, 59, 0
1, 40630, Note_on_c, 12, 59, 0
1, 40630, Note_on_c, 12, 66, 0
1, 40630, Note_on_c, 12, 63, 0
1, 40630, Note_on_c, 12, 71, 0
1, 40647, Note_on_c, 5, 59, 0
1, 40679, Note_on_c, 14, 75, 0
1, 40679, Note_on_c, 14, 63, 0
1, 40679, Note_on_c, 14, 66, 0
1, 40679, Note_on_c, 14, 71, 0
1, 40680, Note_on_c, 14, 63, 65
1, 40680, Note_on_c, 14, 66, 65
1, 40680, Note_on_c, 14, 71, 65
1, 40680, Note_on_c, 14, 75, 65
1, 40719, Note_on_c, 1, 35, 0
1, 40799, Note_on_c, 14, 75, 0
1, 40799, Note_on_c, 14, 66, 0
1, 40799, Note_on_c, 14, 63, 0
1, 40799, Note_on_c, 14, 71, 0
1, 40800, Note_on_c, 9, 35, 115
1, 40800, Note_on_c, 9, 39, 81
1, 40800, Note_on_c, 9, 40, 60
1, 40800, Note_on_c, 9, 42, 72
1, 40800, Note_on_c, 9, 70, 36
1, 40800, Note_on_c, 14, 63, 103
1, 40800, Note_on_c, 14, 66, 103
1, 40800, Note_on_c, 14, 71, 103
1, 40800, Note_on_c, 14, 75, 103
1, 40816, Note_on_c, 9, 70, 0
1, 40816, Note_on_c, 9, 42, 0
1, 40816, Note_on_c, 9, 35, 0
1, 40816, Note_on_c, 9, 40, 0
1, 40816, Note_on_c, 9, 39, 0
1, 40919, Note_on_c, 14, 66, 0
1, 40919, Note_on_c, 14, 63, 0
1, 40919, Note_on_c, 14, 71, 0
1, 40919, Note_on_c, 14, 75, 0
1, 41040, Note_on_c, 1, 35, 100
1, 41040, Note_on_c, 2, 59, 107
1, 41040, Note_on_c, 3, 47, 110
1, 41040, Note_on_c, 5, 59, 90
1, 41040, Note_on_c, 9, 42, 119
1, 41040, Note_on_c, 9, 70, 116
1, 41040, Note_on_c, 12, 59, 100
1, 41040, Note_on_c, 12, 63, 100
1, 41040, Note_on_c, 12, 66, 100
1, 41040, Note_on_c, 12, 71, 100
1, 41040, Lyric_t, "Tym "
1, 41056, Note_on_c, 9, 70, 0
1, 41056, Note_on_c, 9, 42, 0
1, 41099, Note_on_c, 2, 59, 0
1, 41110, Note_on_c, 12, 63, 0
1, 41110, Note_on_c, 12, 59, 0
1, 41110, Note_on_c, 12, 71, 0
1, 41110, Note_on_c, 12, 66, 0
1, 41127, Note_on_c, 5, 59, 0
1, 41160, Note_on_c, 5, 59, 90
1, 41188, Note_on_c, 3, 47, 0
1, 41199, Note_on_c, 1, 35, 0
1, 41247, Note_on_c, 5, 59, 0
1, 41280, Note_on_c, 3, 54, 110
1, 41280, Note_on_c, 9, 35, 115
1, 41280, Note_on_c, 9, 42, 72
1, 41280, Note_on_c, 9, 70, 36
1, 41280, Lyric_t, "je"
1, 41296, Note_on_c, 9, 70, 0
1, 41296, Note_on_c, 9, 35, 0
1, 41296, Note_on_c, 9, 42, 0
1, 41384, Note_on_c, 3, 54, 0
1, 41520, Note_on_c, 1, 35, 100
1, 41520, Note_on_c, 2, 59, 107
1, 41520, Note_on_c, 3, 54, 110
1, 41520, Note_on_c, 5, 61, 90
1, 41520, Note_on_c, 9, 42, 119
1, 41520, Note_on_c, 9, 70, 116
1, 41520, Note_on_c, 12, 59, 100
1, 41520, Note_on_c, 12, 63, 100
1, 41520, Note_on_c, 12, 66, 100
1, 41520, Note_on_c, 12, 71, 100
1, 41520, Lyric_t, "dnym "
1, 41536, Note_on_c, 9, 70, 0
1, 41536, Note_on_c, 9, 42, 0
1, 41579, Note_on_c, 2, 59, 0
1, 41590, Note_on_c, 12, 63, 0
1, 41590, Note_on_c, 12, 59, 0
1, 41590, Note_on_c, 12, 71, 0
1, 41590, Note_on_c, 12, 66, 0
1, 41607, Note_on_c, 5, 61, 0
1, 41613, Note_on_c, 3, 54, 0
1, 41640, Note_on_c, 2, 59, 107
1, 41640, Note_on_c, 14, 63, 81
1, 41640, Note_on_c, 14, 66, 81
1, 41640, Note_on_c, 14, 71, 81
1, 41640, Note_on_c, 14, 75, 81
1, 41679, Note_on_c, 1, 35, 0
1, 41699, Note_on_c, 2, 59, 0
1, 41727, Note_on_c, 14, 71, 0
1, 41727, Note_on_c, 14, 63, 0
1, 41727, Note_on_c, 14, 75, 0
1, 41727, Note_on_c, 14, 66, 0
1, 41760, Note_on_c, 3, 54, 110
1, 41760, Note_on_c, 9, 35, 115
1, 41760, Note_on_c, 9, 39, 81
1, 41760, Note_on_c, 9, 40, 60
1, 41760, Note_on_c, 9, 42, 72
1, 41760, Note_on_c, 9, 70, 36
1, 41760, Lyric_t, "ge"
1, 41776, Note_on_c, 9, 70, 0
1, 41776, Note_on_c, 9, 42, 0
1, 41776, Note_on_c, 9, 40, 0
1, 41776, Note_on_c, 9, 35, 0
1, 41776, Note_on_c, 9, 39, 0
1, 41865, Note_on_c, 3, 54, 0
1, 42000, Note_on_c, 1, 30, 100
1, 42000, Note_on_c, 2, 54, 107
1, 42000, Note_on_c, 3, 54, 110
1, 42000, Note_on_c, 5, 61, 90
1, 42000, Note_on_c, 9, 42, 119
1, 42000, Note_on_c, 9, 70, 116
1, 42000, Note_on_c, 12, 59, 100
1, 42000, Note_on_c, 12, 63, 100
1, 42000, Note_on_c, 12, 66, 100
1, 42000, Note_on_c, 12, 71, 100
1, 42000, Note_on_c, 14, 63, 81
1, 42000, Note_on_c, 14, 66, 81
1, 42000, Note_on_c, 14, 71, 81
1, 42000, Note_on_c, 14, 75, 81
1, 42000, Lyric_t, "stem "
1, 42000, Lyric_t, "\015"
1, 42016, Note_on_c, 9, 70, 0
1, 42016, Note_on_c, 9, 42, 0
1, 42059, Note_on_c, 2, 54, 0
1, 42070, Note_on_c, 12, 63, 0
1, 42070, Note_on_c, 12, 59, 0
1, 42070, Note_on_c, 12, 71, 0
1, 42070, Note_on_c, 12, 66, 0
1, 42087, Note_on_c, 14, 71, 0
1, 42087, Note_on_c, 14, 75, 0
1, 42087, Note_on_c, 14, 63, 0
1, 42087, Note_on_c, 5, 61, 0
1, 42087, Note_on_c, 14, 66, 0
1, 42102, Note_on_c, 3, 54, 0
1, 42159, Note_on_c, 1, 30, 0
1, 42237, Note_on_c, 0, 59, 0
1, 42238, Note_on_c, 0, 66, 0
1, 42238, Note_on_c, 0, 63, 0
1, 42240, Note_on_c, 0, 59, 60
1, 42240, Note_on_c, 0, 64, 60
1, 42240, Note_on_c, 0, 68, 60
1, 42240, Note_on_c, 3, 54, 110
1, 42240, Note_on_c, 9, 35, 115
1, 42240, Note_on_c, 9, 42, 71
1, 42240, Note_on_c, 9, 70, 34
1, 42240, Lyric_t, "O"
1, 42256, Note_on_c, 9, 70, 0
1, 42256, Note_on_c, 9, 35, 0
1, 42256, Note_on_c, 9, 42, 0
1, 42480, Note_on_c, 1, 28, 100
1, 42480, Note_on_c, 2, 52, 107
1, 42480, Note_on_c, 5, 59, 90
1, 42480, Note_on_c, 9, 42, 119
1, 42480, Note_on_c, 9, 70, 116
1, 42480, Note_on_c, 12, 59, 100
1, 42480, Note_on_c, 12, 64, 100
1, 42480, Note_on_c, 12, 68, 100
1, 42480, Note_on_c, 12, 71, 100
1, 42480, Note_on_c, 14, 59, 81
1, 42480, Note_on_c, 14, 64, 81
1, 42480, Note_on_c, 14, 68, 81
1, 42480, Note_on_c, 14, 71, 81
1, 42496, Note_on_c, 9, 70, 0
1, 42496, Note_on_c, 9, 42, 0
1, 42539, Note_on_c, 2, 52, 0
1, 42550, Note_on_c, 12, 64, 0
1, 42550, Note_on_c, 12, 59, 0
1, 42550, Note_on_c, 12, 71, 0
1, 42550, Note_on_c, 12, 68, 0
1, 42567, Note_on_c, 14, 68, 0
1, 42567, Note_on_c, 14, 71, 0
1, 42567, Note_on_c, 14, 59, 0
1, 42567, Note_on_c, 5, 59, 0
1, 42567, Note_on_c, 14, 64, 0
1, 42635, Note_on_c, 3, 54, 0
1, 42639, Note_on_c, 1, 28, 0
1, 42720, Note_on_c, 3, 52, 110
1, 42720, Note_on_c, 9, 35, 115
1, 42720, Note_on_c, 9, 39, 81
1, 42720, Note_on_c, 9, 40, 60
1, 42720, Note_on_c, 9, 42, 72
1, 42720, Note_on_c, 9, 70, 36
1, 42720, Lyric_t, "nie"
1, 42736, Note_on_c, 9, 70, 0
1, 42736, Note_on_c, 9, 42, 0
1, 42736, Note_on_c, 9, 40, 0
1, 42736, Note_on_c, 9, 35, 0
1, 42736, Note_on_c, 9, 39, 0
1, 42960, Note_on_c, 1, 28, 100
1, 42960, Note_on_c, 2, 52, 107
1, 42960, Note_on_c, 5, 56, 90
1, 42960, Note_on_c, 9, 42, 119
1, 42960, Note_on_c, 9, 70, 116
1, 42960, Note_on_c, 12, 59, 100
1, 42960, Note_on_c, 12, 64, 100
1, 42960, Note_on_c, 12, 68, 100
1, 42960, Note_on_c, 12, 71, 100
1, 42960, Note_on_c, 14, 59, 81
1, 42960, Note_on_c, 14, 64, 81
1, 42960, Note_on_c, 14, 68, 81
1, 42960, Note_on_c, 14, 71, 81
1, 42976, Note_on_c, 9, 70, 0
1, 42976, Note_on_c, 9, 42, 0
1, 43019, Note_on_c, 2, 52, 0
1, 43030, Note_on_c, 12, 64, 0
1, 43030, Note_on_c, 12, 59, 0
1, 43030, Note_on_c, 12, 71, 0
1, 43030, Note_on_c, 12, 68, 0
1, 43047, Note_on_c, 14, 68, 0
1, 43047, Note_on_c, 14, 71, 0
1, 43047, Note_on_c, 14, 59, 0
1, 43047, Note_on_c, 5, 56, 0
1, 43047, Note_on_c, 14, 64, 0
1, 43056, Note_on_c, 3, 52, 0
1, 43080, Note_on_c, 5, 59, 90
1, 43119, Note_on_c, 1, 28, 0
1, 43167, Note_on_c, 5, 59, 0
1, 43197, Note_on_c, 0, 68, 0
1, 43197, Note_on_c, 0, 59, 0
1, 43198, Note_on_c, 0, 64, 0
1, 43200, Note_on_c, 0, 59, 60
1, 43200, Note_on_c, 0, 63, 60
1, 43200, Note_on_c, 0, 68, 60
1, 43200, Note_on_c, 3, 52, 110
1, 43200, Note_on_c, 9, 35, 115
1, 43200, Note_on_c, 9, 42, 72
1, 43200, Note_on_c, 9, 70, 36
1, 43200, Lyric_t, "\234mie"
1, 43216, Note_on_c, 9, 70, 0
1, 43216, Note_on_c, 9, 35, 0
1, 43216, Note_on_c, 9, 42, 0
1, 43396, Note_on_c, 3, 52, 0
1, 43440, Note_on_c, 1, 32, 100
1, 43440, Note_on_c, 2, 56, 107
1, 43440, Note_on_c, 3, 54, 110
1, 43440, Note_on_c, 5, 56, 90
1, 43440, Note_on_c, 9, 46, 109
1, 43440, Note_on_c, 9, 70, 116
1, 43440, Note_on_c, 12, 59, 100
1, 43440, Note_on_c, 12, 63, 100
1, 43440, Note_on_c, 12, 68, 100
1, 43440, Note_on_c, 12, 71, 100
1, 43440, Lyric_t, "lasz "
1, 43456, Note_on_c, 9, 70, 0
1, 43456, Note_on_c, 9, 46, 0
1, 43499, Note_on_c, 2, 56, 0
1, 43510, Note_on_c, 12, 63, 0
1, 43510, Note_on_c, 12, 59, 0
1, 43510, Note_on_c, 12, 71, 0
1, 43510, Note_on_c, 12, 68, 0
1, 43527, Note_on_c, 5, 56, 0
1, 43560, Note_on_c, 2, 56, 107
1, 43560, Note_on_c, 5, 56, 90
1, 43560, Note_on_c, 14, 63, 81
1, 43560, Note_on_c, 14, 68, 81
1, 43560, Note_on_c, 14, 71, 81
1, 43560, Note_on_c, 14, 75, 81
1, 43599, Note_on_c, 1, 32, 0
1, 43619, Note_on_c, 2, 56, 0
1, 43647, Note_on_c, 14, 75, 0
1, 43647, Note_on_c, 14, 63, 0
1, 43647, Note_on_c, 14, 71, 0
1, 43647, Note_on_c, 5, 56, 0
1, 43647, Note_on_c, 14, 68, 0
1, 43680, Note_on_c, 9, 35, 115
1, 43680, Note_on_c, 9, 39, 81
1, 43680, Note_on_c, 9, 40, 60
1, 43680, Note_on_c, 9, 42, 72
1, 43680, Note_on_c, 9, 70, 36
1, 43696, Note_on_c, 9, 70, 0
1, 43696, Note_on_c, 9, 42, 0
1, 43696, Note_on_c, 9, 40, 0
1, 43696, Note_on_c, 9, 35, 0
1, 43696, Note_on_c, 9, 39, 0
1, 43736, Note_on_c, 3, 54, 0
1, 43920, Note_on_c, 1, 35, 100
1, 43920, Note_on_c, 2, 59, 107
1, 43920, Note_on_c, 3, 56, 110
1, 43920, Note_on_c, 5, 56, 90
1, 43920, Note_on_c, 9, 42, 119
1, 43920, Note_on_c, 9, 70, 116
1, 43920, Note_on_c, 12, 59, 100
1, 43920, Note_on_c, 12, 63, 100
1, 43920, Note_on_c, 12, 68, 100
1, 43920, Note_on_c, 12, 71, 100
1, 43920, Note_on_c, 14, 63, 81
1, 43920, Note_on_c, 14, 68, 81
1, 43920, Note_on_c, 14, 71, 81
1, 43920, Note_on_c, 14, 75, 81
1, 43920, Lyric_t, "mnie. "
1, 43920, Lyric_t, "\015"
1, 43936, Note_on_c, 9, 70, 0
1, 43936, Note_on_c, 9, 42, 0
1, 43979, Note_on_c, 2, 59, 0
1, 43990, Note_on_c, 12, 63, 0
1, 43990, Note_on_c, 12, 59, 0
1, 43990, Note_on_c, 12, 71, 0
1, 43990, Note_on_c, 12, 68, 0
1, 44007, Note_on_c, 14, 71, 0
1, 44007, Note_on_c, 14, 75, 0
1, 44007, Note_on_c, 14, 63, 0
1, 44007, Note_on_c, 5, 56, 0
1, 44007, Note_on_c, 14, 68, 0
1, 44072, Note_on_c, 9, 70, 86
1, 44079, Note_on_c, 1, 35, 0
1, 44088, Note_on_c, 9, 70, 0
1, 44157, Note_on_c, 0, 68, 0
1, 44158, Note_on_c, 0, 59, 0
1, 44158, Note_on_c, 0, 63, 0
1, 44160, Note_on_c, 0, 61, 60
1, 44160, Note_on_c, 0, 64, 60
1, 44160, Note_on_c, 0, 68, 60
1, 44160, Note_on_c, 9, 35, 115
1, 44160, Note_on_c, 9, 42, 71
1, 44160, Note_on_c, 9, 70, 34
1, 44176, Note_on_c, 9, 70, 0
1, 44176, Note_on_c, 9, 35, 0
1, 44176, Note_on_c, 9, 42, 0
1, 44367, Note_on_c, 3, 56, 0
1, 44400, Note_on_c, 1, 37, 100
1, 44400, Note_on_c, 2, 61, 107
1, 44400, Note_on_c, 5, 61, 90
1, 44400, Note_on_c, 9, 42, 119
1, 44400, Note_on_c, 9, 70, 116
1, 44400, Note_on_c, 12, 56, 100
1, 44400, Note_on_c, 12, 61, 100
1, 44400, Note_on_c, 12, 64, 100
1, 44400, Note_on_c, 12, 68, 100
1, 44400, Note_on_c, 14, 61, 103
1, 44405, Note_on_c, 14, 64, 103
1, 44408, Note_on_c, 14, 68, 103
1, 44413, Note_on_c, 14, 73, 103
1, 44416, Note_on_c, 9, 70, 0
1, 44416, Note_on_c, 9, 42, 0
1, 44459, Note_on_c, 2, 61, 0
1, 44470, Note_on_c, 12, 56, 0
1, 44470, Note_on_c, 12, 64, 0
1, 44470, Note_on_c, 12, 61, 0
1, 44470, Note_on_c, 12, 68, 0
1, 44487, Note_on_c, 5, 61, 0
1, 44516, Note_on_c, 14, 73, 0
1, 44519, Note_on_c, 14, 61, 0
1, 44519, Note_on_c, 14, 64, 0
1, 44519, Note_on_c, 14, 68, 0
1, 44520, Note_on_c, 14, 73, 71
1, 44522, Note_on_c, 14, 68, 71
1, 44527, Note_on_c, 14, 64, 71
1, 44532, Note_on_c, 14, 61, 71
1, 44559, Note_on_c, 1, 37, 0
1, 44639, Note_on_c, 14, 61, 0
1, 44639, Note_on_c, 14, 68, 0
1, 44639, Note_on_c, 14, 73, 0
1, 44639, Note_on_c, 14, 64, 0
1, 44640, Note_on_c, 9, 35, 115
1, 44640, Note_on_c, 9, 39, 81
1, 44640, Note_on_c, 9, 40, 60
1, 44640, Note_on_c, 9, 42, 72
1, 44640, Note_on_c, 9, 70, 36
1, 44640, Note_on_c, 14, 61, 103
1, 44645, Note_on_c, 14, 64, 103
1, 44648, Note_on_c, 14, 68, 103
1, 44652, Note_on_c, 14, 73, 103
1, 44656, Note_on_c, 9, 70, 0
1, 44656, Note_on_c, 9, 42, 0
1, 44656, Note_on_c, 9, 35, 0
1, 44656, Note_on_c, 9, 40, 0
1, 44656, Note_on_c, 9, 39, 0
1, 44759, Note_on_c, 14, 64, 0
1, 44759, Note_on_c, 14, 61, 0
1, 44759, Note_on_c, 14, 68, 0
1, 44759, Note_on_c, 14, 73, 0
1, 44880, Note_on_c, 1, 37, 100
1, 44880, Note_on_c, 2, 61, 107
1, 44880, Note_on_c, 3, 49, 110
1, 44880, Note_on_c, 5, 61, 90
1, 44880, Note_on_c, 9, 42, 119
1, 44880, Note_on_c, 9, 70, 116
1, 44880, Note_on_c, 12, 56, 100
1, 44880, Note_on_c, 12, 61, 100
1, 44880, Note_on_c, 12, 64, 100
1, 44880, Note_on_c, 12, 68, 100
1, 44880, Lyric_t, "To "
1, 44896, Note_on_c, 9, 70, 0
1, 44896, Note_on_c, 9, 42, 0
1, 44939, Note_on_c, 2, 61, 0
1, 44950, Note_on_c, 12, 61, 0
1, 44950, Note_on_c, 12, 56, 0
1, 44950, Note_on_c, 12, 68, 0
1, 44950, Note_on_c, 12, 64, 0
1, 44967, Note_on_c, 5, 61, 0
1, 45000, Note_on_c, 5, 59, 90
1, 45032, Note_on_c, 3, 49, 0
1, 45039, Note_on_c, 1, 37, 0
1, 45087, Note_on_c, 5, 59, 0
1, 45120, Note_on_c, 3, 56, 110
1, 45120, Note_on_c, 9, 35, 115
1, 45120, Note_on_c, 9, 42, 72
1, 45120, Note_on_c, 9, 70, 36
1, 45120, Lyric_t, "two"
1, 45136, Note_on_c, 9, 70, 0
1, 45136, Note_on_c, 9, 35, 0
1, 45136, Note_on_c, 9, 42, 0
1, 45299, Note_on_c, 3, 56, 0
1, 45360, Note_on_c, 1, 37, 100
1, 45360, Note_on_c, 2, 61, 107
1, 45360, Note_on_c, 3, 56, 110
1, 45360, Note_on_c, 5, 61, 90
1, 45360, Note_on_c, 9, 42, 119
1, 45360, Note_on_c, 9, 70, 116
1, 45360, Note_on_c, 12, 56, 100
1, 45360, Note_on_c, 12, 61, 100
1, 45360, Note_on_c, 12, 64, 100
1, 45360, Note_on_c, 12, 68, 100
1, 45360, Note_on_c, 14, 73, 81
1, 45360, Lyric_t, "ja "
1, 45364, Note_on_c, 14, 68, 81
1, 45367, Note_on_c, 14, 64, 81
1, 45370, Note_on_c, 14, 61, 81
1, 45376, Note_on_c, 9, 70, 0
1, 45376, Note_on_c, 9, 42, 0
1, 45419, Note_on_c, 2, 61, 0
1, 45430, Note_on_c, 12, 61, 0
1, 45430, Note_on_c, 12, 56, 0
1, 45430, Note_on_c, 12, 68, 0
1, 45430, Note_on_c, 12, 64, 0
1, 45446, Note_on_c, 14, 73, 0
1, 45447, Note_on_c, 5, 61, 0
1, 45450, Note_on_c, 14, 68, 0
1, 45453, Note_on_c, 14, 64, 0
1, 45456, Note_on_c, 14, 61, 0
1, 45473, Note_on_c, 3, 56, 0
1, 45480, Note_on_c, 2, 61, 107
1, 45519, Note_on_c, 1, 37, 0
1, 45539, Note_on_c, 2, 61, 0
1, 45600, Note_on_c, 3, 56, 110
1, 45600, Note_on_c, 9, 35, 115
1, 45600, Note_on_c, 9, 39, 81
1, 45600, Note_on_c, 9, 40, 60
1, 45600, Note_on_c, 9, 42, 72
1, 45600, Note_on_c, 9, 70, 36
1, 45600, Lyric_t, "gra, "
1, 45616, Note_on_c, 9, 70, 0
1, 45616, Note_on_c, 9, 42, 0
1, 45616, Note_on_c, 9, 40, 0
1, 45616, Note_on_c, 9, 35, 0
1, 45616, Note_on_c, 9, 39, 0
1, 45713, Note_on_c, 3, 56, 0
1, 45840, Note_on_c, 1, 40, 100
1, 45840, Note_on_c, 2, 64, 107
1, 45840, Note_on_c, 3, 56, 110
1, 45840, Note_on_c, 5, 61, 90
1, 45840, Note_on_c, 9, 42, 119
1, 45840, Note_on_c, 9, 70, 116
1, 45840, Note_on_c, 12, 56, 100
1, 45840, Note_on_c, 12, 61, 100
1, 45840, Note_on_c, 12, 64, 100
1, 45840, Note_on_c, 12, 68, 100
1, 45840, Note_on_c, 14, 73, 81
1, 45840, Lyric_t, "ty "
1, 45844, Note_on_c, 14, 68, 81
1, 45847, Note_on_c, 14, 64, 81
1, 45850, Note_on_c, 14, 61, 81
1, 45856, Note_on_c, 9, 70, 0
1, 45856, Note_on_c, 9, 42, 0
1, 45899, Note_on_c, 2, 64, 0
1, 45910, Note_on_c, 12, 61, 0
1, 45910, Note_on_c, 12, 56, 0
1, 45910, Note_on_c, 12, 68, 0
1, 45910, Note_on_c, 12, 64, 0
1, 45926, Note_on_c, 14, 73, 0
1, 45927, Note_on_c, 5, 61, 0
1, 45930, Note_on_c, 14, 68, 0
1, 45933, Note_on_c, 14, 64, 0
1, 45936, Note_on_c, 14, 61, 0
1, 45939, Note_on_c, 3, 56, 0
1, 45999, Note_on_c, 1, 40, 0
1, 46077, Note_on_c, 0, 64, 0
1, 46077, Note_on_c, 0, 61, 0
1, 46078, Note_on_c, 0, 68, 0
1, 46078, End_track
0, 0, End_of_file
