2, 0, Note_on_c, 81
2, 7, Note_off_c, 81
2, 8, Note_on_c, 79
2, 14, Note_off_c, 79
2, 15, Note_on_c, 81
2, 59, Note_off_c, 81
2, 75, Note_on_c, 79
2, 81, Note_off_c, 79
2, 82, Note_on_c, 77
2, 88, Note_off_c, 77
2, 89, Note_on_c, 76
2, 96, Note_off_c, 76
2, 97, Note_on_c, 74
2, 104, Note_off_c, 74
2, 105, Note_on_c, 73
2, 119, Note_off_c, 73
2, 120, Note_on_c, 74
2, 149, Note_off_c, 74
2, 240, Note_on_c, 69
2, 247, Note_off_c, 69
2, 248, Note_on_c, 67
2, 254, Note_off_c, 67
2, 255, Note_on_c, 69
2, 299, Note_off_c, 69
2, 315, Note_on_c, 64
2, 329, Note_off_c, 64
2, 330, Note_on_c, 65
2, 344, Note_off_c, 65
2, 345, Note_on_c, 61
2, 359, Note_off_c, 61
2, 360, Note_on_c, 62
2, 389, Note_off_c, 62
2, 480, Note_on_c, 57
2, 487, Note_off_c, 57
2, 488, Note_on_c, 55
2, 494, Note_off_c, 55
2, 495, Note_on_c, 57
2, 539, Note_off_c, 57
2, 555, Note_on_c, 55
2, 561, Note_off_c, 55
2, 562, Note_on_c, 53
2, 568, Note_off_c, 53
2, 569, Note_on_c, 52
2, 576, Note_off_c, 52
2, 577, Note_on_c, 50
2, 584, Note_off_c, 50
2, 585, Note_on_c, 49
2, 599, Note_off_c, 49
2, 600, Note_on_c, 50
2, 629, Note_off_c, 50
2, 870, Note_on_c, 58
2, 880, Note_on_c, 61
2, 890, Note_on_c, 64
2, 1079, Note_off_c, 64
2, 1079, Note_off_c, 61
2, 1079, Note_off_c, 58
2, 1079, Note_on_c, 62
2, 1080, Note_on_c, 57
2, 1198, Note_off_c, 62
2, 1199, Note_off_c, 57
2, 1410, Note_on_c, 61
2, 1439, Note_off_c, 61
2, 1440, Note_on_c, 62
2, 1459, Note_off_c, 62
2, 1460, Note_on_c, 64
2, 1479, Note_off_c, 64
2, 1480, Note_on_c, 61
2, 1499, Note_off_c, 61
2, 1500, Note_on_c, 62
2, 1519, Note_off_c, 62
2, 1520, Note_on_c, 64
2, 1539, Note_off_c, 64
2, 1540, Note_on_c, 61
2, 1559, Note_off_c, 61
2, 1560, Note_on_c, 62
2, 1579, Note_off_c, 62
2, 1580, Note_on_c, 64
2, 1599, Note_off_c, 64
2, 1600, Note_on_c, 61
2, 1619, Note_off_c, 61
2, 1620, Note_on_c, 62
2, 1649, Note_off_c, 62
2, 1650, Note_on_c, 64
2, 1679, Note_off_c, 64
2, 1680, Note_on_c, 65
2, 1699, Note_off_c, 65
2, 1700, Note_on_c, 67
2, 1719, Note_off_c, 67
2, 1720, Note_on_c, 64
2, 1739, Note_off_c, 64
2, 1740, Note_on_c, 65
2, 1759, Note_off_c, 65
2, 1760, Note_on_c, 67
2, 1779, Note_off_c, 67
2, 1780, Note_on_c, 64
2, 1799, Note_off_c, 64
2, 1800, Note_on_c, 65
2, 1819, Note_off_c, 65
2, 1820, Note_on_c, 67
2, 1839, Note_off_c, 67
2, 1840, Note_on_c, 64
2, 1859, Note_off_c, 64
2, 1860, Note_on_c, 65
2, 1889, Note_off_c, 65
2, 1890, Note_on_c, 67
2, 1919, Note_off_c, 67
2, 1920, Note_on_c, 69
2, 1939, Note_off_c, 69
2, 1940, Note_on_c, 70
2, 1959, Note_off_c, 70
2, 1960, Note_on_c, 67
2, 1979, Note_off_c, 67
2, 1980, Note_on_c, 69
2, 1999, Note_off_c, 69
2, 2000, Note_on_c, 70
2, 2019, Note_off_c, 70
2, 2020, Note_on_c, 67
2, 2039, Note_off_c, 67
2, 2040, Note_on_c, 69
2, 2059, Note_off_c, 69
2, 2060, Note_on_c, 70
2, 2079, Note_off_c, 70
2, 2080, Note_on_c, 67
2, 2099, Note_off_c, 67
2, 2100, Note_on_c, 69
2, 2129, Note_off_c, 69
2, 2370, Note_on_c, 73
2, 2399, Note_off_c, 73
2, 2400, Note_on_c, 74
2, 2419, Note_off_c, 74
2, 2420, Note_on_c, 76
2, 2439, Note_off_c, 76
2, 2440, Note_on_c, 73
2, 2459, Note_off_c, 73
2, 2460, Note_on_c, 74
2, 2479, Note_off_c, 74
2, 2480, Note_on_c, 76
2, 2499, Note_off_c, 76
2, 2500, Note_on_c, 73
2, 2519, Note_off_c, 73
2, 2520, Note_on_c, 74
2, 2539, Note_off_c, 74
2, 2540, Note_on_c, 76
2, 2559, Note_off_c, 76
2, 2560, Note_on_c, 73
2, 2579, Note_off_c, 73
2, 2580, Note_on_c, 74
2, 2609, Note_off_c, 74
2, 2610, Note_on_c, 76
2, 2639, Note_off_c, 76
2, 2640, Note_on_c, 77
2, 2659, Note_off_c, 77
2, 2660, Note_on_c, 79
2, 2679, Note_off_c, 79
2, 2680, Note_on_c, 76
2, 2699, Note_off_c, 76
2, 2700, Note_on_c, 77
2, 2719, Note_off_c, 77
2, 2720, Note_on_c, 79
2, 2739, Note_off_c, 79
2, 2740, Note_on_c, 76
2, 2759, Note_off_c, 76
2, 2760, Note_on_c, 77
2, 2779, Note_off_c, 77
2, 2780, Note_on_c, 79
2, 2799, Note_off_c, 79
2, 2800, Note_on_c, 76
2, 2819, Note_off_c, 76
2, 2820, Note_on_c, 77
2, 2849, Note_off_c, 77
2, 2850, Note_on_c, 79
2, 2879, Note_off_c, 79
2, 2880, Note_on_c, 81
2, 2899, Note_off_c, 81
2, 2900, Note_on_c, 82
2, 2919, Note_off_c, 82
2, 2920, Note_on_c, 79
2, 2939, Note_off_c, 79
2, 2940, Note_on_c, 81
2, 2959, Note_off_c, 81
2, 2960, Note_on_c, 82
2, 2979, Note_off_c, 82
2, 2980, Note_on_c, 79
2, 2999, Note_off_c, 79
2, 3000, Note_on_c, 81
2, 3019, Note_off_c, 81
2, 3020, Note_on_c, 82
2, 3039, Note_off_c, 82
2, 3040, Note_on_c, 79
2, 3059, Note_off_c, 79
2, 3060, Note_on_c, 81
2, 3089, Note_off_c, 81
2, 3330, Note_on_c, 81
2, 3359, Note_off_c, 81
2, 3360, Note_on_c, 79
2, 3379, Note_off_c, 79
2, 3380, Note_on_c, 82
2, 3399, Note_off_c, 82
2, 3400, Note_on_c, 76
2, 3419, Note_off_c, 76
2, 3420, Note_on_c, 79
2, 3439, Note_off_c, 79
2, 3440, Note_on_c, 82
2, 3459, Note_off_c, 82
2, 3460, Note_on_c, 76
2, 3479, Note_off_c, 76
2, 3480, Note_on_c, 77
2, 3499, Note_off_c, 77
2, 3500, Note_on_c, 81
2, 3519, Note_off_c, 81
2, 3520, Note_on_c, 74
2, 3539, Note_off_c, 74
2, 3540, Note_on_c, 77
2, 3559, Note_off_c, 77
2, 3560, Note_on_c, 81
2, 3579, Note_off_c, 81
2, 3580, Note_on_c, 74
2, 3599, Note_off_c, 74
2, 3600, Note_on_c, 76
2, 3619, Note_off_c, 76
2, 3620, Note_on_c, 79
2, 3639, Note_off_c, 79
2, 3640, Note_on_c, 73
2, 3659, Note_off_c, 73
2, 3660, Note_on_c, 76
2, 3679, Note_off_c, 76
2, 3680, Note_on_c, 79
2, 3699, Note_off_c, 79
2, 3700, Note_on_c, 73
2, 3719, Note_off_c, 73
2, 3720, Note_on_c, 74
2, 3739, Note_off_c, 74
2, 3740, Note_on_c, 77
2, 3759, Note_off_c, 77
2, 3760, Note_on_c, 71
2, 3779, Note_off_c, 71
2, 3780, Note_on_c, 74
2, 3799, Note_off_c, 74
2, 3800, Note_on_c, 77
2, 3819, Note_off_c, 77
2, 3820, Note_on_c, 71
2, 3839, Note_off_c, 71
2, 3840, Note_on_c, 72
2, 3859, Note_off_c, 72
2, 3860, Note_on_c, 76
2, 3879, Note_off_c, 76
2, 3880, Note_on_c, 69
2, 3899, Note_off_c, 69
2, 3900, Note_on_c, 72
2, 3919, Note_off_c, 72
2, 3920, Note_on_c, 76
2, 3939, Note_off_c, 76
2, 3940, Note_on_c, 69
2, 3959, Note_off_c, 69
2, 3960, Note_on_c, 71
2, 3979, Note_off_c, 71
2, 3980, Note_on_c, 74
2, 3999, Note_off_c, 74
2, 4000, Note_on_c, 67
2, 4019, Note_off_c, 67
2, 4020, Note_on_c, 71
2, 4039, Note_off_c, 71
2, 4040, Note_on_c, 74
2, 4059, Note_off_c, 74
2, 4060, Note_on_c, 67
2, 4079, Note_off_c, 67
2, 4080, Note_on_c, 69
2, 4099, Note_off_c, 69
2, 4100, Note_on_c, 72
2, 4119, Note_off_c, 72
2, 4120, Note_on_c, 65
2, 4139, Note_off_c, 65
2, 4140, Note_on_c, 69
2, 4159, Note_off_c, 69
2, 4160, Note_on_c, 72
2, 4179, Note_off_c, 72
2, 4180, Note_on_c, 65
2, 4199, Note_off_c, 65
2, 4200, Note_on_c, 67
2, 4219, Note_off_c, 67
2, 4220, Note_on_c, 70
2, 4239, Note_off_c, 70
2, 4240, Note_on_c, 64
2, 4259, Note_off_c, 64
2, 4260, Note_on_c, 67
2, 4279, Note_off_c, 67
2, 4280, Note_on_c, 70
2, 4299, Note_off_c, 70
2, 4300, Note_on_c, 64
2, 4319, Note_off_c, 64
2, 4320, Note_on_c, 65
2, 4339, Note_off_c, 65
2, 4340, Note_on_c, 69
2, 4359, Note_off_c, 69
2, 4360, Note_on_c, 62
2, 4379, Note_off_c, 62
2, 4380, Note_on_c, 65
2, 4399, Note_off_c, 65
2, 4400, Note_on_c, 69
2, 4419, Note_off_c, 69
2, 4420, Note_on_c, 62
2, 4439, Note_off_c, 62
2, 4440, Note_on_c, 64
2, 4459, Note_off_c, 64
2, 4460, Note_on_c, 67
2, 4479, Note_off_c, 67
2, 4480, Note_on_c, 61
2, 4499, Note_off_c, 61
2, 4500, Note_on_c, 64
2, 4519, Note_off_c, 64
2, 4520, Note_on_c, 67
2, 4539, Note_off_c, 67
2, 4540, Note_on_c, 61
2, 4559, Note_off_c, 61
2, 4700, Note_on_c, 61
2, 4705, Note_on_c, 64
2, 4710, Note_on_c, 67
2, 4715, Note_on_c, 70
2, 4919, Note_off_c, 70
2, 4919, Note_off_c, 61
2, 4919, Note_off_c, 64
2, 4919, Note_off_c, 67
2, 5280, Note_on_c, 65
2, 5280, Note_on_c, 62
2, 5399, Note_off_c, 62
2, 5399, Note_off_c, 65
2, 5490, Note_on_c, 69
2, 5519, Note_off_c, 69
2, 5520, Note_on_c, 74
2, 5549, Note_off_c, 74
2, 5550, Note_on_c, 76
2, 5579, Note_off_c, 76
2, 5580, Note_on_c, 77
2, 5609, Note_off_c, 77
2, 5610, Note_on_c, 74
2, 5639, Note_off_c, 74
2, 5640, Note_on_c, 76
2, 5669, Note_off_c, 76
2, 5670, Note_on_c, 77
2, 5699, Note_off_c, 77
2, 5700, Note_on_c, 79
2, 5729, Note_off_c, 79
2, 5730, Note_on_c, 76
2, 5759, Note_off_c, 76
2, 5760, Note_on_c, 77
2, 5789, Note_off_c, 77
2, 5790, Note_on_c, 79
2, 5819, Note_off_c, 79
2, 5820, Note_on_c, 81
2, 5849, Note_off_c, 81
2, 5850, Note_on_c, 77
2, 5879, Note_off_c, 77
2, 5880, Note_on_c, 79
2, 5909, Note_off_c, 79
2, 5910, Note_on_c, 81
2, 5939, Note_off_c, 81
2, 5940, Note_on_c, 82
2, 5969, Note_off_c, 82
2, 5970, Note_on_c, 79
2, 5999, Note_off_c, 79
2, 6000, Note_on_c, 81
2, 6029, Note_off_c, 81
2, 6030, Note_on_c, 77
2, 6059, Note_off_c, 77
2, 6060, Note_on_c, 79
2, 6089, Note_off_c, 79
2, 6090, Note_on_c, 76
2, 6119, Note_off_c, 76
2, 6120, Note_on_c, 77
2, 6149, Note_off_c, 77
2, 6150, Note_on_c, 74
2, 6179, Note_off_c, 74
2, 6180, Note_on_c, 76
2, 6209, Note_off_c, 76
2, 6210, Note_on_c, 73
2, 6239, Note_off_c, 73
2, 6240, Note_on_c, 74
2, 6269, Note_off_c, 74
2, 6270, Note_on_c, 69
2, 6299, Note_off_c, 69
2, 6300, Note_on_c, 70
2, 6329, Note_off_c, 70
2, 6330, Note_on_c, 67
2, 6359, Note_off_c, 67
2, 6360, Note_on_c, 69
2, 6389, Note_off_c, 69
2, 6390, Note_on_c, 65
2, 6419, Note_off_c, 65
2, 6420, Note_on_c, 67
2, 6449, Note_off_c, 67
2, 6450, Note_on_c, 64
2, 6479, Note_off_c, 64
2, 6480, Note_on_c, 65
2, 6509, Note_off_c, 65
2, 6510, Note_on_c, 62
2, 6539, Note_off_c, 62
2, 6540, Note_on_c, 67
2, 6569, Note_off_c, 67
2, 6570, Note_on_c, 64
2, 6599, Note_off_c, 64
2, 6600, Note_on_c, 65
2, 6629, Note_off_c, 65
2, 6630, Note_on_c, 62
2, 6659, Note_off_c, 62
2, 6660, Note_on_c, 64
2, 6689, Note_off_c, 64
2, 6690, Note_on_c, 61
2, 6719, Note_off_c, 61
2, 6720, Note_on_c, 62
2, 6749, Note_off_c, 62
2, 6750, Note_on_c, 57
2, 6779, Note_off_c, 57
2, 6780, Note_on_c, 58
2, 6809, Note_off_c, 58
2, 6810, Note_on_c, 55
2, 6839, Note_off_c, 55
2, 6840, Note_on_c, 57
2, 6869, Note_off_c, 57
2, 6870, Note_on_c, 53
2, 6899, Note_off_c, 53
2, 6900, Note_on_c, 55
2, 6929, Note_off_c, 55
2, 6930, Note_on_c, 52
2, 6959, Note_off_c, 52
2, 6960, Note_on_c, 53
2, 6989, Note_off_c, 53
2, 6990, Note_on_c, 50
2, 7019, Note_off_c, 50
2, 7020, Note_on_c, 55
2, 7049, Note_off_c, 55
2, 7050, Note_on_c, 52
2, 7079, Note_off_c, 52
2, 7080, Note_on_c, 53
2, 7109, Note_off_c, 53
2, 7110, Note_on_c, 50
2, 7139, Note_off_c, 50
2, 7140, Note_on_c, 52
2, 7169, Note_off_c, 52
2, 7170, Note_on_c, 49
2, 7199, Note_off_c, 49
2, 7200, Note_on_c, 50
2, 7259, Note_off_c, 50
2, 8160, Note_on_c, 61
2, 8160, Note_on_c, 69
2, 8160, Note_on_c, 64
2, 8279, Note_off_c, 64
2, 8279, Note_off_c, 69
2, 8279, Note_off_c, 61
2, 8280, Note_on_c, 69
2, 8294, Note_off_c, 69
2, 8295, Note_on_c, 67
2, 8309, Note_off_c, 67
2, 8310, Note_on_c, 65
2, 8324, Note_off_c, 65
2, 8325, Note_on_c, 64
2, 8339, Note_off_c, 64
2, 8340, Note_on_c, 62
2, 8354, Note_off_c, 62
2, 8355, Note_on_c, 61
2, 8369, Note_off_c, 61
2, 8370, Note_on_c, 59
2, 8384, Note_off_c, 59
2, 8385, Note_on_c, 61
2, 8399, Note_off_c, 61
2, 8400, Note_on_c, 57
2, 8414, Note_off_c, 57
2, 8415, Note_on_c, 59
2, 8429, Note_off_c, 59
2, 8430, Note_on_c, 61
2, 8444, Note_off_c, 61
2, 8445, Note_on_c, 62
2, 8459, Note_off_c, 62
2, 8460, Note_on_c, 64
2, 8474, Note_off_c, 64
2, 8475, Note_on_c, 65
2, 8489, Note_off_c, 65
2, 8490, Note_on_c, 67
2, 8504, Note_off_c, 67
2, 8505, Note_on_c, 69
2, 8519, Note_off_c, 69
2, 8520, Note_on_c, 67
2, 8534, Note_off_c, 67
2, 8535, Note_on_c, 65
2, 8549, Note_off_c, 65
2, 8550, Note_on_c, 64
2, 8564, Note_off_c, 64
2, 8565, Note_on_c, 65
2, 8579, Note_off_c, 65
2, 8580, Note_on_c, 62
2, 8594, Note_off_c, 62
2, 8595, Note_on_c, 65
2, 8609, Note_off_c, 65
2, 8610, Note_on_c, 69
2, 8624, Note_off_c, 69
2, 8625, Note_on_c, 73
2, 8639, Note_off_c, 73
2, 8640, Note_on_c, 74
2, 8654, Note_off_c, 74
2, 8655, Note_on_c, 69
2, 8669, Note_off_c, 69
2, 8670, Note_on_c, 71
2, 8684, Note_off_c, 71
2, 8685, Note_on_c, 73
2, 8699, Note_off_c, 73
2, 8700, Note_on_c, 74
2, 8714, Note_off_c, 74
2, 8715, Note_on_c, 76
2, 8729, Note_off_c, 76
2, 8730, Note_on_c, 77
2, 8736, Note_off_c, 77
2, 8737, Note_on_c, 79
2, 8744, Note_off_c, 79
2, 8745, Note_on_c, 81
2, 8759, Note_off_c, 81
2, 8760, Note_on_c, 82
2, 8819, Note_off_c, 82
2, 10080, Note_on_c, 70
2, 10080, Note_on_c, 73
2, 10080, Note_on_c, 76
2, 10319, Note_off_c, 76
2, 10319, Note_off_c, 73
2, 10319, Note_off_c, 70
2, 10320, Note_on_c, 73
2, 10339, Note_off_c, 73
2, 10340, Note_on_c, 76
2, 10359, Note_off_c, 76
2, 10360, Note_on_c, 73
2, 10379, Note_off_c, 73
2, 10380, Note_on_c, 70
2, 10399, Note_off_c, 70
2, 10400, Note_on_c, 73
2, 10419, Note_off_c, 73
2, 10420, Note_on_c, 70
2, 10439, Note_off_c, 70
2, 10440, Note_on_c, 73
2, 10459, Note_off_c, 73
2, 10460, Note_on_c, 76
2, 10479, Note_off_c, 76
2, 10480, Note_on_c, 73
2, 10499, Note_off_c, 73
2, 10500, Note_on_c, 70
2, 10519, Note_off_c, 70
2, 10520, Note_on_c, 73
2, 10539, Note_off_c, 73
2, 10540, Note_on_c, 70
2, 10559, Note_off_c, 70
2, 10560, Note_on_c, 73
2, 10579, Note_off_c, 73
2, 10580, Note_on_c, 76
2, 10599, Note_off_c, 76
2, 10600, Note_on_c, 73
2, 10619, Note_off_c, 73
2, 10620, Note_on_c, 70
2, 10639, Note_off_c, 70
2, 10640, Note_on_c, 73
2, 10659, Note_off_c, 73
2, 10660, Note_on_c, 70
2, 10679, Note_off_c, 70
2, 10680, Note_on_c, 73
2, 10699, Note_off_c, 73
2, 10700, Note_on_c, 76
2, 10719, Note_off_c, 76
2, 10720, Note_on_c, 73
2, 10739, Note_off_c, 73
2, 10740, Note_on_c, 70
2, 10759, Note_off_c, 70
2, 10760, Note_on_c, 73
2, 10779, Note_off_c, 73
2, 10780, Note_on_c, 70
2, 10799, Note_off_c, 70
2, 10800, Note_on_c, 67
2, 10819, Note_off_c, 67
2, 10820, Note_on_c, 70
2, 10839, Note_off_c, 70
2, 10840, Note_on_c, 67
2, 10859, Note_off_c, 67
2, 10860, Note_on_c, 64
2, 10879, Note_off_c, 64
2, 10880, Note_on_c, 67
2, 10899, Note_off_c, 67
2, 10900, Note_on_c, 64
2, 10919, Note_off_c, 64
2, 10920, Note_on_c, 67
2, 10939, Note_off_c, 67
2, 10940, Note_on_c, 70
2, 10959, Note_off_c, 70
2, 10960, Note_on_c, 67
2, 10979, Note_off_c, 67
2, 10980, Note_on_c, 64
2, 10999, Note_off_c, 64
2, 11000, Note_on_c, 67
2, 11019, Note_off_c, 67
2, 11020, Note_on_c, 64
2, 11039, Note_off_c, 64
2, 11040, Note_on_c, 67
2, 11059, Note_off_c, 67
2, 11060, Note_on_c, 70
2, 11079, Note_off_c, 70
2, 11080, Note_on_c, 67
2, 11099, Note_off_c, 67
2, 11100, Note_on_c, 64
2, 11119, Note_off_c, 64
2, 11120, Note_on_c, 67
2, 11139, Note_off_c, 67
2, 11140, Note_on_c, 64
2, 11159, Note_off_c, 64
2, 11160, Note_on_c, 67
2, 11179, Note_off_c, 67
2, 11180, Note_on_c, 70
2, 11199, Note_off_c, 70
2, 11200, Note_on_c, 67
2, 11219, Note_off_c, 67
2, 11220, Note_on_c, 64
2, 11239, Note_off_c, 64
2, 11240, Note_on_c, 67
2, 11259, Note_off_c, 67
2, 11260, Note_on_c, 64
2, 11279, Note_off_c, 64
2, 11280, Note_on_c, 61
2, 11299, Note_off_c, 61
2, 11300, Note_on_c, 64
2, 11319, Note_off_c, 64
2, 11320, Note_on_c, 61
2, 11339, Note_off_c, 61
2, 11340, Note_on_c, 58
2, 11359, Note_off_c, 58
2, 11360, Note_on_c, 61
2, 11379, Note_off_c, 61
2, 11380, Note_on_c, 58
2, 11399, Note_off_c, 58
2, 11400, Note_on_c, 61
2, 11419, Note_off_c, 61
2, 11420, Note_on_c, 64
2, 11439, Note_off_c, 64
2, 11440, Note_on_c, 61
2, 11459, Note_off_c, 61
2, 11460, Note_on_c, 58
2, 11479, Note_off_c, 58
2, 11480, Note_on_c, 61
2, 11499, Note_off_c, 61
2, 11500, Note_on_c, 58
2, 11519, Note_off_c, 58
2, 11520, Note_on_c, 61
2, 11539, Note_off_c, 61
2, 11540, Note_on_c, 64
2, 11559, Note_off_c, 64
2, 11560, Note_on_c, 61
2, 11579, Note_off_c, 61
2, 11580, Note_on_c, 58
2, 11599, Note_off_c, 58
2, 11600, Note_on_c, 61
2, 11619, Note_off_c, 61
2, 11620, Note_on_c, 58
2, 11639, Note_off_c, 58
2, 11640, Note_on_c, 61
2, 11659, Note_off_c, 61
2, 11660, Note_on_c, 64
2, 11679, Note_off_c, 64
2, 11680, Note_on_c, 61
2, 11699, Note_off_c, 61
2, 11700, Note_on_c, 58
2, 11719, Note_off_c, 58
2, 11720, Note_on_c, 61
2, 11739, Note_off_c, 61
2, 11740, Note_on_c, 58
2, 11759, Note_off_c, 58
2, 11760, Note_on_c, 61
2, 11779, Note_off_c, 61
2, 11780, Note_on_c, 64
2, 11799, Note_off_c, 64
2, 11800, Note_on_c, 61
2, 11819, Note_off_c, 61
2, 11820, Note_on_c, 64
2, 11839, Note_off_c, 64
2, 11840, Note_on_c, 67
2, 11859, Note_off_c, 67
2, 11860, Note_on_c, 64
2, 11879, Note_off_c, 64
2, 11880, Note_on_c, 61
2, 11899, Note_off_c, 61
2, 11900, Note_on_c, 64
2, 11919, Note_off_c, 64
2, 11920, Note_on_c, 61
2, 11939, Note_off_c, 61
2, 11940, Note_on_c, 64
2, 11959, Note_off_c, 64
2, 11960, Note_on_c, 67
2, 11979, Note_off_c, 67
2, 11980, Note_on_c, 64
2, 11999, Note_off_c, 64
2, 12000, Note_on_c, 61
2, 12019, Note_off_c, 61
2, 12020, Note_on_c, 64
2, 12039, Note_off_c, 64
2, 12040, Note_on_c, 61
2, 12059, Note_off_c, 61
2, 12060, Note_on_c, 64
2, 12079, Note_off_c, 64
2, 12080, Note_on_c, 67
2, 12099, Note_off_c, 67
2, 12100, Note_on_c, 64
2, 12119, Note_off_c, 64
2, 12120, Note_on_c, 61
2, 12139, Note_off_c, 61
2, 12140, Note_on_c, 64
2, 12159, Note_off_c, 64
2, 12160, Note_on_c, 61
2, 12179, Note_off_c, 61
2, 12180, Note_on_c, 64
2, 12199, Note_off_c, 64
2, 12200, Note_on_c, 67
2, 12219, Note_off_c, 67
2, 12220, Note_on_c, 64
2, 12239, Note_off_c, 64
2, 12240, Note_on_c, 67
2, 12259, Note_off_c, 67
2, 12260, Note_on_c, 70
2, 12279, Note_off_c, 70
2, 12280, Note_on_c, 67
2, 12299, Note_off_c, 67
2, 12300, Note_on_c, 70
2, 12319, Note_off_c, 70
2, 12320, Note_on_c, 67
2, 12339, Note_off_c, 67
2, 12340, Note_on_c, 70
2, 12359, Note_off_c, 70
2, 12360, Note_on_c, 67
2, 12379, Note_off_c, 67
2, 12380, Note_on_c, 70
2, 12399, Note_off_c, 70
2, 12400, Note_on_c, 67
2, 12419, Note_off_c, 67
2, 12420, Note_on_c, 70
2, 12439, Note_off_c, 70
2, 12440, Note_on_c, 67
2, 12459, Note_off_c, 67
2, 12460, Note_on_c, 70
2, 12479, Note_off_c, 70
2, 12480, Note_on_c, 73
2, 12499, Note_off_c, 73
2, 12500, Note_on_c, 70
2, 12519, Note_off_c, 70
2, 12520, Note_on_c, 73
2, 12539, Note_off_c, 73
2, 12540, Note_on_c, 76
2, 12559, Note_off_c, 76
2, 12560, Note_on_c, 73
2, 12579, Note_off_c, 73
2, 12580, Note_on_c, 76
2, 12599, Note_off_c, 76
2, 12600, Note_on_c, 73
2, 12619, Note_off_c, 73
2, 12620, Note_on_c, 76
2, 12639, Note_off_c, 76
2, 12640, Note_on_c, 73
2, 12659, Note_off_c, 73
2, 12660, Note_on_c, 76
2, 12679, Note_off_c, 76
2, 12680, Note_on_c, 73
2, 12699, Note_off_c, 73
2, 12700, Note_on_c, 76
2, 12719, Note_off_c, 76
2, 12720, Note_on_c, 76
2, 12720, Note_on_c, 73
2, 12720, Note_on_c, 69
2, 12720, Note_on_c, 81
2, 12839, Note_off_c, 81
2, 12839, Note_off_c, 76
2, 12839, Note_off_c, 73
2, 12839, Note_off_c, 69
2, 12840, Note_on_c, 69
2, 12840, Note_on_c, 77
2, 12840, Note_on_c, 81
2, 12840, Note_on_c, 74
2, 12959, Note_off_c, 74
2, 12959, Note_off_c, 69
2, 12959, Note_off_c, 77
2, 12959, Note_off_c, 81
2, 12960, Note_on_c, 79
2, 12960, Note_on_c, 70
2, 12960, Note_on_c, 74
2, 13079, Note_off_c, 74
2, 13079, Note_off_c, 70
2, 13079, Note_off_c, 79
2, 13200, Note_on_c, 79
2, 13200, Note_on_c, 73
2, 13200, Note_on_c, 76
2, 13200, Note_on_c, 69
2, 13319, Note_off_c, 69
2, 13319, Note_off_c, 79
2, 13319, Note_off_c, 73
2, 13319, Note_off_c, 76
2, 13319, End_track
3, 0, Note_on_c, 69
3, 7, Note_off_c, 69
3, 8, Note_on_c, 67
3, 14, Note_off_c, 67
3, 15, Note_on_c, 69
3, 59, Note_off_c, 69
3, 75, Note_on_c, 67
3, 81, Note_off_c, 67
3, 82, Note_on_c, 65
3, 88, Note_off_c, 65
3, 89, Note_on_c, 64
3, 96, Note_off_c, 64
3, 97, Note_on_c, 62
3, 104, Note_off_c, 62
3, 105, Note_on_c, 61
3, 119, Note_off_c, 61
3, 120, Note_on_c, 62
3, 149, Note_off_c, 62
3, 240, Note_on_c, 57
3, 247, Note_off_c, 57
3, 248, Note_on_c, 55
3, 254, Note_off_c, 55
3, 255, Note_on_c, 57
3, 299, Note_off_c, 57
3, 315, Note_on_c, 52
3, 329, Note_off_c, 52
3, 330, Note_on_c, 53
3, 344, Note_off_c, 53
3, 345, Note_on_c, 49
3, 359, Note_off_c, 49
3, 360, Note_on_c, 50
3, 389, Note_off_c, 50
3, 480, Note_on_c, 45
3, 487, Note_off_c, 45
3, 488, Note_on_c, 43
3, 494, Note_off_c, 43
3, 495, Note_on_c, 45
3, 539, Note_off_c, 45
3, 555, Note_on_c, 43
3, 561, Note_off_c, 43
3, 562, Note_on_c, 41
3, 568, Note_off_c, 41
3, 569, Note_on_c, 40
3, 576, Note_off_c, 40
3, 577, Note_on_c, 38
3, 584, Note_off_c, 38
3, 585, Note_on_c, 37
3, 599, Note_off_c, 37
3, 600, Note_on_c, 38
3, 629, Note_off_c, 38
3, 840, Note_on_c, 49
3, 850, Note_on_c, 52
3, 860, Note_on_c, 55
3, 1079, Note_off_c, 55
3, 1079, Note_off_c, 52
3, 1079, Note_off_c, 49
3, 1080, Note_on_c, 50
3, 1080, Note_on_c, 55
3, 1109, Note_off_c, 55
3, 1110, Note_on_c, 52
3, 1139, Note_off_c, 52
3, 1140, Note_on_c, 54
3, 1199, Note_off_c, 54
3, 1199, Note_off_c, 50
3, 1410, Note_on_c, 49
3, 1439, Note_off_c, 49
3, 1440, Note_on_c, 50
3, 1459, Note_off_c, 50
3, 1460, Note_on_c, 52
3, 1479, Note_off_c, 52
3, 1480, Note_on_c, 49
3, 1499, Note_off_c, 49
3, 1500, Note_on_c, 50
3, 1519, Note_off_c, 50
3, 1520, Note_on_c, 52
3, 1539, Note_off_c, 52
3, 1540, Note_on_c, 49
3, 1559, Note_off_c, 49
3, 1560, Note_on_c, 50
3, 1579, Note_off_c, 50
3, 1580, Note_on_c, 52
3, 1599, Note_off_c, 52
3, 1600, Note_on_c, 49
3, 1619, Note_off_c, 49
3, 1620, Note_on_c, 50
3, 1649, Note_off_c, 50
3, 1650, Note_on_c, 52
3, 1679, Note_off_c, 52
3, 1680, Note_on_c, 53
3, 1699, Note_off_c, 53
3, 1700, Note_on_c, 55
3, 1719, Note_off_c, 55
3, 1720, Note_on_c, 52
3, 1739, Note_off_c, 52
3, 1740, Note_on_c, 53
3, 1759, Note_off_c, 53
3, 1760, Note_on_c, 55
3, 1779, Note_off_c, 55
3, 1780, Note_on_c, 52
3, 1799, Note_off_c, 52
3, 1800, Note_on_c, 53
3, 1819, Note_off_c, 53
3, 1820, Note_on_c, 55
3, 1839, Note_off_c, 55
3, 1840, Note_on_c, 52
3, 1859, Note_off_c, 52
3, 1860, Note_on_c, 53
3, 1889, Note_off_c, 53
3, 1890, Note_on_c, 55
3, 1919, Note_off_c, 55
3, 1920, Note_on_c, 57
3, 1939, Note_off_c, 57
3, 1940, Note_on_c, 58
3, 1959, Note_off_c, 58
3, 1960, Note_on_c, 55
3, 1979, Note_off_c, 55
3, 1980, Note_on_c, 57
3, 1999, Note_off_c, 57
3, 2000, Note_on_c, 58
3, 2019, Note_off_c, 58
3, 2020, Note_on_c, 55
3, 2039, Note_off_c, 55
3, 2040, Note_on_c, 57
3, 2059, Note_off_c, 57
3, 2060, Note_on_c, 58
3, 2079, Note_off_c, 58
3, 2080, Note_on_c, 55
3, 2099, Note_off_c, 55
3, 2100, Note_on_c, 57
3, 2129, Note_off_c, 57
3, 2370, Note_on_c, 61
3, 2399, Note_off_c, 61
3, 2400, Note_on_c, 62
3, 2419, Note_off_c, 62
3, 2420, Note_on_c, 64
3, 2439, Note_off_c, 64
3, 2440, Note_on_c, 61
3, 2459, Note_off_c, 61
3, 2460, Note_on_c, 62
3, 2479, Note_off_c, 62
3, 2480, Note_on_c, 64
3, 2499, Note_off_c, 64
3, 2500, Note_on_c, 61
3, 2519, Note_off_c, 61
3, 2520, Note_on_c, 62
3, 2539, Note_off_c, 62
3, 2540, Note_on_c, 64
3, 2559, Note_off_c, 64
3, 2560, Note_on_c, 61
3, 2579, Note_off_c, 61
3, 2580, Note_on_c, 62
3, 2609, Note_off_c, 62
3, 2610, Note_on_c, 64
3, 2639, Note_off_c, 64
3, 2640, Note_on_c, 65
3, 2659, Note_off_c, 65
3, 2660, Note_on_c, 67
3, 2679, Note_off_c, 67
3, 2680, Note_on_c, 64
3, 2699, Note_off_c, 64
3, 2700, Note_on_c, 65
3, 2719, Note_off_c, 65
3, 2720, Note_on_c, 67
3, 2739, Note_off_c, 67
3, 2740, Note_on_c, 64
3, 2759, Note_off_c, 64
3, 2760, Note_on_c, 65
3, 2779, Note_off_c, 65
3, 2780, Note_on_c, 67
3, 2799, Note_off_c, 67
3, 2800, Note_on_c, 64
3, 2819, Note_off_c, 64
3, 2820, Note_on_c, 65
3, 2849, Note_off_c, 65
3, 2850, Note_on_c, 67
3, 2879, Note_off_c, 67
3, 2880, Note_on_c, 69
3, 2899, Note_off_c, 69
3, 2900, Note_on_c, 70
3, 2919, Note_off_c, 70
3, 2920, Note_on_c, 67
3, 2939, Note_off_c, 67
3, 2940, Note_on_c, 69
3, 2959, Note_off_c, 69
3, 2960, Note_on_c, 70
3, 2979, Note_off_c, 70
3, 2980, Note_on_c, 67
3, 2999, Note_off_c, 67
3, 3000, Note_on_c, 69
3, 3019, Note_off_c, 69
3, 3020, Note_on_c, 70
3, 3039, Note_off_c, 70
3, 3040, Note_on_c, 67
3, 3059, Note_off_c, 67
3, 3060, Note_on_c, 69
3, 3089, Note_off_c, 69
3, 3330, Note_on_c, 69
3, 3359, Note_off_c, 69
3, 3360, Note_on_c, 67
3, 3379, Note_off_c, 67
3, 3380, Note_on_c, 70
3, 3399, Note_off_c, 70
3, 3400, Note_on_c, 64
3, 3419, Note_off_c, 64
3, 3420, Note_on_c, 67
3, 3439, Note_off_c, 67
3, 3440, Note_on_c, 70
3, 3459, Note_off_c, 70
3, 3460, Note_on_c, 64
3, 3479, Note_off_c, 64
3, 3480, Note_on_c, 65
3, 3499, Note_off_c, 65
3, 3500, Note_on_c, 69
3, 3519, Note_off_c, 69
3, 3520, Note_on_c, 62
3, 3539, Note_off_c, 62
3, 3540, Note_on_c, 65
3, 3559, Note_off_c, 65
3, 3560, Note_on_c, 69
3, 3579, Note_off_c, 69
3, 3580, Note_on_c, 62
3, 3599, Note_off_c, 62
3, 3600, Note_on_c, 64
3, 3619, Note_off_c, 64
3, 3620, Note_on_c, 67
3, 3639, Note_off_c, 67
3, 3640, Note_on_c, 61
3, 3659, Note_off_c, 61
3, 3660, Note_on_c, 64
3, 3679, Note_off_c, 64
3, 3680, Note_on_c, 67
3, 3699, Note_off_c, 67
3, 3700, Note_on_c, 61
3, 3719, Note_off_c, 61
3, 3720, Note_on_c, 62
3, 3739, Note_off_c, 62
3, 3740, Note_on_c, 65
3, 3759, Note_off_c, 65
3, 3760, Note_on_c, 59
3, 3779, Note_off_c, 59
3, 3780, Note_on_c, 62
3, 3799, Note_off_c, 62
3, 3800, Note_on_c, 65
3, 3819, Note_off_c, 65
3, 3820, Note_on_c, 59
3, 3839, Note_off_c, 59
3, 3840, Note_on_c, 60
3, 3859, Note_off_c, 60
3, 3860, Note_on_c, 64
3, 3879, Note_off_c, 64
3, 3880, Note_on_c, 57
3, 3899, Note_off_c, 57
3, 3900, Note_on_c, 60
3, 3919, Note_off_c, 60
3, 3920, Note_on_c, 64
3, 3939, Note_off_c, 64
3, 3940, Note_on_c, 57
3, 3959, Note_off_c, 57
3, 3960, Note_on_c, 59
3, 3979, Note_off_c, 59
3, 3980, Note_on_c, 62
3, 3999, Note_off_c, 62
3, 4000, Note_on_c, 55
3, 4019, Note_off_c, 55
3, 4020, Note_on_c, 59
3, 4039, Note_off_c, 59
3, 4040, Note_on_c, 62
3, 4059, Note_off_c, 62
3, 4060, Note_on_c, 55
3, 4079, Note_off_c, 55
3, 4080, Note_on_c, 57
3, 4099, Note_off_c, 57
3, 4100, Note_on_c, 60
3, 4119, Note_off_c, 60
3, 4120, Note_on_c, 53
3, 4139, Note_off_c, 53
3, 4140, Note_on_c, 57
3, 4159, Note_off_c, 57
3, 4160, Note_on_c, 60
3, 4179, Note_off_c, 60
3, 4180, Note_on_c, 53
3, 4199, Note_off_c, 53
3, 4200, Note_on_c, 55
3, 4219, Note_off_c, 55
3, 4220, Note_on_c, 58
3, 4239, Note_off_c, 58
3, 4240, Note_on_c, 52
3, 4259, Note_off_c, 52
3, 4260, Note_on_c, 55
3, 4279, Note_off_c, 55
3, 4280, Note_on_c, 58
3, 4299, Note_off_c, 58
3, 4300, Note_on_c, 52
3, 4319, Note_off_c, 52
3, 4320, Note_on_c, 53
3, 4339, Note_off_c, 53
3, 4340, Note_on_c, 57
3, 4359, Note_off_c, 57
3, 4360, Note_on_c, 50
3, 4379, Note_off_c, 50
3, 4380, Note_on_c, 53
3, 4399, Note_off_c, 53
3, 4400, Note_on_c, 57
3, 4419, Note_off_c, 57
3, 4420, Note_on_c, 50
3, 4439, Note_off_c, 50
3, 4440, Note_on_c, 52
3, 4459, Note_off_c, 52
3, 4460, Note_on_c, 55
3, 4479, Note_off_c, 55
3, 4480, Note_on_c, 49
3, 4499, Note_off_c, 49
3, 4500, Note_on_c, 52
3, 4519, Note_off_c, 52
3, 4520, Note_on_c, 55
3, 4539, Note_off_c, 55
3, 4540, Note_on_c, 49
3, 4559, Note_off_c, 49
3, 4680, Note_on_c, 49
3, 4685, Note_on_c, 52
3, 4690, Note_on_c, 55
3, 4695, Note_on_c, 58
3, 4919, Note_off_c, 58
3, 4919, Note_off_c, 49
3, 4919, Note_off_c, 52
3, 4919, Note_off_c, 55
3, 5280, Note_on_c, 50
3, 5280, Note_on_c, 57
3, 5280, Note_on_c, 53
3, 5399, Note_off_c, 53
3, 5399, Note_off_c, 57
3, 5399, Note_off_c, 50
3, 5535, Note_on_c, 69
3, 5559, Note_off_c, 69
3, 5565, Note_on_c, 69
3, 5589, Note_off_c, 69
3, 5595, Note_on_c, 69
3, 5619, Note_off_c, 69
3, 5625, Note_on_c, 69
3, 5649, Note_off_c, 69
3, 5655, Note_on_c, 69
3, 5679, Note_off_c, 69
3, 5685, Note_on_c, 69
3, 5709, Note_off_c, 69
3, 5715, Note_on_c, 69
3, 5739, Note_off_c, 69
3, 5745, Note_on_c, 69
3, 5769, Note_off_c, 69
3, 5775, Note_on_c, 69
3, 5799, Note_off_c, 69
3, 5805, Note_on_c, 69
3, 5829, Note_off_c, 69
3, 5835, Note_on_c, 69
3, 5859, Note_off_c, 69
3, 5865, Note_on_c, 69
3, 5889, Note_off_c, 69
3, 5895, Note_on_c, 69
3, 5919, Note_off_c, 69
3, 5925, Note_on_c, 69
3, 5949, Note_off_c, 69
3, 5955, Note_on_c, 69
3, 5979, Note_off_c, 69
3, 5985, Note_on_c, 69
3, 6009, Note_off_c, 69
3, 6015, Note_on_c, 69
3, 6039, Note_off_c, 69
3, 6045, Note_on_c, 69
3, 6069, Note_off_c, 69
3, 6075, Note_on_c, 69
3, 6099, Note_off_c, 69
3, 6105, Note_on_c, 69
3, 6129, Note_off_c, 69
3, 6135, Note_on_c, 69
3, 6159, Note_off_c, 69
3, 6165, Note_on_c, 69
3, 6189, Note_off_c, 69
3, 6195, Note_on_c, 69
3, 6219, Note_off_c, 69
3, 6225, Note_on_c, 69
3, 6239, Note_off_c, 69
3, 6255, Note_on_c, 69
3, 6279, Note_off_c, 69
3, 6285, Note_on_c, 69
3, 6309, Note_off_c, 69
3, 6315, Note_on_c, 69
3, 6339, Note_off_c, 69
3, 6345, Note_on_c, 69
3, 6369, Note_off_c, 69
3, 6375, Note_on_c, 69
3, 6399, Note_off_c, 69
3, 6405, Note_on_c, 69
3, 6429, Note_off_c, 69
3, 6435, Note_on_c, 69
3, 6459, Note_off_c, 69
3, 6465, Note_on_c, 69
3, 6489, Note_off_c, 69
3, 6495, Note_on_c, 69
3, 6519, Note_off_c, 69
3, 6525, Note_on_c, 69
3, 6549, Note_off_c, 69
3, 6555, Note_on_c, 69
3, 6579, Note_off_c, 69
3, 6585, Note_on_c, 69
3, 6609, Note_off_c, 69
3, 6615, Note_on_c, 69
3, 6639, Note_off_c, 69
3, 6645, Note_on_c, 69
3, 6669, Note_off_c, 69
3, 6675, Note_on_c, 69
3, 6699, Note_off_c, 69
3, 6705, Note_on_c, 69
3, 6719, Note_off_c, 69
3, 6735, Note_on_c, 69
3, 6759, Note_off_c, 69
3, 6765, Note_on_c, 69
3, 6789, Note_off_c, 69
3, 6795, Note_on_c, 69
3, 6819, Note_off_c, 69
3, 6825, Note_on_c, 69
3, 6849, Note_off_c, 69
3, 6855, Note_on_c, 69
3, 6879, Note_off_c, 69
3, 6885, Note_on_c, 69
3, 6909, Note_off_c, 69
3, 6915, Note_on_c, 69
3, 6939, Note_off_c, 69
3, 6945, Note_on_c, 69
3, 6969, Note_off_c, 69
3, 6975, Note_on_c, 69
3, 6999, Note_off_c, 69
3, 7005, Note_on_c, 69
3, 7029, Note_off_c, 69
3, 7035, Note_on_c, 69
3, 7059, Note_off_c, 69
3, 7065, Note_on_c, 69
3, 7089, Note_off_c, 69
3, 7095, Note_on_c, 69
3, 7119, Note_off_c, 69
3, 7125, Note_on_c, 69
3, 7149, Note_off_c, 69
3, 7155, Note_on_c, 69
3, 7179, Note_off_c, 69
3, 7185, Note_on_c, 69
3, 7199, Note_off_c, 69
3, 10080, Note_on_c, 61
3, 10080, Note_on_c, 67
3, 10080, Note_on_c, 64
3, 10319, Note_off_c, 64
3, 10319, Note_off_c, 67
3, 10319, Note_off_c, 61
3, 10320, Note_on_c, 64
3, 10339, Note_off_c, 64
3, 10340, Note_on_c, 67
3, 10359, Note_off_c, 67
3, 10360, Note_on_c, 64
3, 10379, Note_off_c, 64
3, 10380, Note_on_c, 61
3, 10399, Note_off_c, 61
3, 10400, Note_on_c, 64
3, 10419, Note_off_c, 64
3, 10420, Note_on_c, 61
3, 10439, Note_off_c, 61
3, 10440, Note_on_c, 64
3, 10459, Note_off_c, 64
3, 10460, Note_on_c, 67
3, 10479, Note_off_c, 67
3, 10480, Note_on_c, 64
3, 10499, Note_off_c, 64
3, 10500, Note_on_c, 61
3, 10519, Note_off_c, 61
3, 10520, Note_on_c, 64
3, 10539, Note_off_c, 64
3, 10540, Note_on_c, 61
3, 10559, Note_off_c, 61
3, 10560, Note_on_c, 64
3, 10579, Note_off_c, 64
3, 10580, Note_on_c, 67
3, 10599, Note_off_c, 67
3, 10600, Note_on_c, 64
3, 10619, Note_off_c, 64
3, 10620, Note_on_c, 61
3, 10639, Note_off_c, 61
3, 10640, Note_on_c, 64
3, 10659, Note_off_c, 64
3, 10660, Note_on_c, 61
3, 10679, Note_off_c, 61
3, 10680, Note_on_c, 64
3, 10699, Note_off_c, 64
3, 10700, Note_on_c, 67
3, 10719, Note_off_c, 67
3, 10720, Note_on_c, 64
3, 10739, Note_off_c, 64
3, 10740, Note_on_c, 61
3, 10759, Note_off_c, 61
3, 10760, Note_on_c, 64
3, 10779, Note_off_c, 64
3, 10780, Note_on_c, 61
3, 10799, Note_off_c, 61
3, 10800, Note_on_c, 58
3, 10819, Note_off_c, 58
3, 10820, Note_on_c, 61
3, 10839, Note_off_c, 61
3, 10840, Note_on_c, 58
3, 10859, Note_off_c, 58
3, 10860, Note_on_c, 55
3, 10879, Note_off_c, 55
3, 10880, Note_on_c, 58
3, 10899, Note_off_c, 58
3, 10900, Note_on_c, 55
3, 10919, Note_off_c, 55
3, 10920, Note_on_c, 58
3, 10939, Note_off_c, 58
3, 10940, Note_on_c, 61
3, 10959, Note_off_c, 61
3, 10960, Note_on_c, 58
3, 10979, Note_off_c, 58
3, 10980, Note_on_c, 55
3, 10999, Note_off_c, 55
3, 11000, Note_on_c, 58
3, 11019, Note_off_c, 58
3, 11020, Note_on_c, 55
3, 11039, Note_off_c, 55
3, 11040, Note_on_c, 58
3, 11059, Note_off_c, 58
3, 11060, Note_on_c, 61
3, 11079, Note_off_c, 61
3, 11080, Note_on_c, 58
3, 11099, Note_off_c, 58
3, 11100, Note_on_c, 55
3, 11119, Note_off_c, 55
3, 11120, Note_on_c, 58
3, 11139, Note_off_c, 58
3, 11140, Note_on_c, 55
3, 11159, Note_off_c, 55
3, 11160, Note_on_c, 58
3, 11179, Note_off_c, 58
3, 11180, Note_on_c, 61
3, 11199, Note_off_c, 61
3, 11200, Note_on_c, 58
3, 11219, Note_off_c, 58
3, 11220, Note_on_c, 55
3, 11239, Note_off_c, 55
3, 11240, Note_on_c, 58
3, 11259, Note_off_c, 58
3, 11260, Note_on_c, 55
3, 11279, Note_off_c, 55
3, 11280, Note_on_c, 52
3, 11299, Note_off_c, 52
3, 11300, Note_on_c, 55
3, 11319, Note_off_c, 55
3, 11320, Note_on_c, 52
3, 11339, Note_off_c, 52
3, 11340, Note_on_c, 49
3, 11359, Note_off_c, 49
3, 11360, Note_on_c, 52
3, 11379, Note_off_c, 52
3, 11380, Note_on_c, 49
3, 11399, Note_off_c, 49
3, 11400, Note_on_c, 52
3, 11419, Note_off_c, 52
3, 11420, Note_on_c, 55
3, 11439, Note_off_c, 55
3, 11440, Note_on_c, 52
3, 11459, Note_off_c, 52
3, 11460, Note_on_c, 49
3, 11479, Note_off_c, 49
3, 11480, Note_on_c, 52
3, 11499, Note_off_c, 52
3, 11500, Note_on_c, 49
3, 11519, Note_off_c, 49
3, 11520, Note_on_c, 52
3, 11539, Note_off_c, 52
3, 11540, Note_on_c, 55
3, 11559, Note_off_c, 55
3, 11560, Note_on_c, 52
3, 11579, Note_off_c, 52
3, 11580, Note_on_c, 49
3, 11599, Note_off_c, 49
3, 11600, Note_on_c, 52
3, 11619, Note_off_c, 52
3, 11620, Note_on_c, 49
3, 11639, Note_off_c, 49
3, 11640, Note_on_c, 52
3, 11659, Note_off_c, 52
3, 11660, Note_on_c, 55
3, 11679, Note_off_c, 55
3, 11680, Note_on_c, 52
3, 11699, Note_off_c, 52
3, 11700, Note_on_c, 49
3, 11719, Note_off_c, 49
3, 11720, Note_on_c, 52
3, 11739, Note_off_c, 52
3, 11740, Note_on_c, 49
3, 11759, Note_off_c, 49
3, 11760, Note_on_c, 52
3, 11779, Note_off_c, 52
3, 11780, Note_on_c, 55
3, 11799, Note_off_c, 55
3, 11800, Note_on_c, 52
3, 11819, Note_off_c, 52
3, 11820, Note_on_c, 55
3, 11839, Note_off_c, 55
3, 11840, Note_on_c, 58
3, 11859, Note_off_c, 58
3, 11860, Note_on_c, 55
3, 11879, Note_off_c, 55
3, 11880, Note_on_c, 52
3, 11899, Note_off_c, 52
3, 11900, Note_on_c, 55
3, 11919, Note_off_c, 55
3, 11920, Note_on_c, 52
3, 11939, Note_off_c, 52
3, 11940, Note_on_c, 55
3, 11959, Note_off_c, 55
3, 11960, Note_on_c, 58
3, 11979, Note_off_c, 58
3, 11980, Note_on_c, 55
3, 11999, Note_off_c, 55
3, 12000, Note_on_c, 52
3, 12019, Note_off_c, 52
3, 12020, Note_on_c, 55
3, 12039, Note_off_c, 55
3, 12040, Note_on_c, 52
3, 12059, Note_off_c, 52
3, 12060, Note_on_c, 55
3, 12079, Note_off_c, 55
3, 12080, Note_on_c, 58
3, 12099, Note_off_c, 58
3, 12100, Note_on_c, 55
3, 12119, Note_off_c, 55
3, 12120, Note_on_c, 52
3, 12139, Note_off_c, 52
3, 12140, Note_on_c, 55
3, 12159, Note_off_c, 55
3, 12160, Note_on_c, 52
3, 12179, Note_off_c, 52
3, 12180, Note_on_c, 55
3, 12199, Note_off_c, 55
3, 12200, Note_on_c, 58
3, 12219, Note_off_c, 58
3, 12220, Note_on_c, 55
3, 12239, Note_off_c, 55
3, 12240, Note_on_c, 52
3, 12259, Note_off_c, 52
3, 12260, Note_on_c, 55
3, 12279, Note_off_c, 55
3, 12280, Note_on_c, 52
3, 12299, Note_off_c, 52
3, 12300, Note_on_c, 55
3, 12319, Note_off_c, 55
3, 12320, Note_on_c, 52
3, 12339, Note_off_c, 52
3, 12340, Note_on_c, 55
3, 12359, Note_off_c, 55
3, 12360, Note_on_c, 58
3, 12379, Note_off_c, 58
3, 12380, Note_on_c, 61
3, 12399, Note_off_c, 61
3, 12400, Note_on_c, 58
3, 12419, Note_off_c, 58
3, 12420, Note_on_c, 61
3, 12439, Note_off_c, 61
3, 12440, Note_on_c, 58
3, 12459, Note_off_c, 58
3, 12460, Note_on_c, 61
3, 12479, Note_off_c, 61
3, 12480, Note_on_c, 64
3, 12499, Note_off_c, 64
3, 12500, Note_on_c, 61
3, 12519, Note_off_c, 61
3, 12520, Note_on_c, 64
3, 12539, Note_off_c, 64
3, 12540, Note_on_c, 61
3, 12559, Note_off_c, 61
3, 12560, Note_on_c, 64
3, 12579, Note_off_c, 64
3, 12580, Note_on_c, 61
3, 12599, Note_off_c, 61
3, 12600, Note_on_c, 64
3, 12619, Note_off_c, 64
3, 12620, Note_on_c, 61
3, 12639, Note_off_c, 61
3, 12640, Note_on_c, 64
3, 12659, Note_off_c, 64
3, 12660, Note_on_c, 61
3, 12679, Note_off_c, 61
3, 12680, Note_on_c, 64
3, 12699, Note_off_c, 64
3, 12700, Note_on_c, 61
3, 12719, Note_off_c, 61
3, 12720, Note_on_c, 57
3, 12839, Note_off_c, 57
3, 12840, Note_on_c, 57
3, 12959, Note_off_c, 57
3, 12960, Note_on_c, 67
3, 12960, Note_on_c, 62
3, 13079, Note_off_c, 62
3, 13079, Note_off_c, 67
3, 13200, Note_on_c, 61
3, 13200, Note_on_c, 64
3, 13319, Note_off_c, 64
3, 13319, Note_off_c, 61
3, 13319, End_track
4, 720, Note_on_c, 38
4, 1199, Note_off_c, 38
4, 4560, Note_on_c, 38
4, 4919, Note_off_c, 38
4, 5280, Note_on_c, 38
4, 5399, Note_off_c, 38
4, 7500, Note_on_c, 50
4, 7559, Note_off_c, 50
4, 7560, Note_on_c, 48
4, 7619, Note_off_c, 48
4, 7620, Note_on_c, 46
4, 7679, Note_off_c, 46
4, 7680, Note_on_c, 45
4, 7739, Note_off_c, 45
4, 7980, Note_on_c, 50
4, 8039, Note_off_c, 50
4, 8040, Note_on_c, 48
4, 8099, Note_off_c, 48
4, 8100, Note_on_c, 46
4, 8159, Note_off_c, 46
4, 8160, Note_on_c, 45
4, 8279, Note_off_c, 45
4, 8820, Note_on_c, 50
4, 8879, Note_off_c, 50
4, 8880, Note_on_c, 48
4, 8939, Note_off_c, 48
4, 8940, Note_on_c, 46
4, 8999, Note_off_c, 46
4, 9000, Note_on_c, 45
4, 9059, Note_off_c, 45
4, 9300, Note_on_c, 50
4, 9359, Note_off_c, 50
4, 9360, Note_on_c, 48
4, 9419, Note_off_c, 48
4, 9420, Note_on_c, 46
4, 9479, Note_off_c, 46
4, 9480, Note_on_c, 45
4, 9539, Note_off_c, 45
4, 9540, Note_on_c, 44
4, 9599, Note_off_c, 44
4, 9600, Note_on_c, 43
4, 9659, Note_off_c, 43
4, 10080, Note_on_c, 55
4, 10319, Note_off_c, 55
4, 12720, Note_on_c, 55
4, 12839, Note_off_c, 55
4, 12840, Note_on_c, 53
4, 12959, Note_off_c, 53
4, 12960, Note_on_c, 58
4, 13139, Note_off_c, 58
4, 13140, Note_on_c, 57
4, 13169, Note_off_c, 57
4, 13170, Note_on_c, 55
4, 13199, Note_off_c, 55
4, 13200, Note_on_c, 57
4, 13289, Note_off_c, 57
4, 13290, Note_on_c, 52
4, 13319, Note_off_c, 52
4, 13320, Note_on_c, 53
4, 13349, Note_off_c, 53
4, 13350, Note_on_c, 50
4, 13379, Note_off_c, 50
4, 13380, Note_on_c, 52
4, 13409, Note_off_c, 52
4, 13410, Note_on_c, 49
4, 13439, Note_off_c, 49
4, 13440, Note_on_c, 50
4, 13469, Note_off_c, 50
4, 13470, Note_on_c, 47
4, 13499, Note_off_c, 47
4, 13500, Note_on_c, 49
4, 13529, Note_off_c, 49
4, 13530, Note_on_c, 45
4, 13559, Note_off_c, 45
4, 13560, Note_on_c, 46
4, 13589, Note_off_c, 46
4, 13590, Note_on_c, 44
4, 13619, Note_off_c, 44
4, 13620, Note_on_c, 45
4, 13649, Note_off_c, 45
4, 13650, Note_on_c, 55
4, 13679, Note_off_c, 55
4, 13680, Note_on_c, 53
4, 13739, Note_off_c, 53
4, 13740, Note_on_c, 50
4, 13799, Note_off_c, 50
4, 13800, Note_on_c, 45
4, 13919, Note_off_c, 45
4, 13920, Note_on_c, 38
4, 14159, Note_off_c, 38
4, 14159, End_track
5, 4920, Note_on_c, 70
5, 4934, Note_off_c, 70
5, 4935, Note_on_c, 69
5, 4949, Note_off_c, 69
5, 4950, Note_on_c, 67
5, 4964, Note_off_c, 67
5, 4965, Note_on_c, 65
5, 4979, Note_off_c, 65
5, 4980, Note_on_c, 64
5, 4994, Note_off_c, 64
5, 4995, Note_on_c, 62
5, 5009, Note_off_c, 62
5, 5010, Note_on_c, 61
5, 5024, Note_off_c, 61
5, 5025, Note_on_c, 59
5, 5039, Note_off_c, 59
5, 5040, Note_on_c, 61
5, 5069, Note_off_c, 61
5, 5070, Note_on_c, 57
5, 5099, Note_off_c, 57
5, 5100, Note_on_c, 61
5, 5129, Note_off_c, 61
5, 5130, Note_on_c, 64
5, 5144, Note_off_c, 64
5, 5145, Note_on_c, 67
5, 5159, Note_off_c, 67
5, 5160, Note_on_c, 65
5, 5174, Note_off_c, 65
5, 5175, Note_on_c, 67
5, 5189, Note_off_c, 67
5, 5190, Note_on_c, 65
5, 5204, Note_off_c, 65
5, 5205, Note_on_c, 67
5, 5219, Note_off_c, 67
5, 5220, Note_on_c, 65
5, 5234, Note_off_c, 65
5, 5235, Note_on_c, 67
5, 5249, Note_off_c, 67
5, 5250, Note_on_c, 64
5, 5279, Note_off_c, 64
5, 7500, Note_on_c, 62
5, 7529, Note_off_c, 62
5, 7530, Note_on_c, 70
5, 7530, Note_on_c, 65
5, 7559, Note_off_c, 65
5, 7559, Note_off_c, 70
5, 7560, Note_on_c, 57
5, 7589, Note_off_c, 57
5, 7590, Note_on_c, 69
5, 7590, Note_on_c, 64
5, 7619, Note_off_c, 64
5, 7619, Note_off_c, 69
5, 7620, Note_on_c, 58
5, 7649, Note_off_c, 58
5, 7650, Note_on_c, 67
5, 7650, Note_on_c, 62
5, 7679, Note_off_c, 62
5, 7679, Note_off_c, 67
5, 7680, Note_on_c, 61
5, 7680, Note_on_c, 69
5, 7680, Note_on_c, 64
5, 7739, Note_off_c, 64
5, 7739, Note_off_c, 69
5, 7739, Note_off_c, 61
5, 7980, Note_on_c, 62
5, 8009, Note_off_c, 62
5, 8010, Note_on_c, 70
5, 8010, Note_on_c, 65
5, 8039, Note_off_c, 65
5, 8039, Note_off_c, 70
5, 8040, Note_on_c, 57
5, 8069, Note_off_c, 57
5, 8070, Note_on_c, 69
5, 8070, Note_on_c, 64
5, 8099, Note_off_c, 64
5, 8099, Note_off_c, 69
5, 8100, Note_on_c, 58
5, 8129, Note_off_c, 58
5, 8130, Note_on_c, 67
5, 8130, Note_on_c, 62
5, 8159, Note_off_c, 62
5, 8159, Note_off_c, 67
5, 8160, Note_on_c, 61
5, 8160, Note_on_c, 52
5, 8160, Note_on_c, 69
5, 8160, Note_on_c, 64
5, 8279, Note_off_c, 64
5, 8279, Note_off_c, 61
5, 8279, Note_off_c, 52
5, 8279, Note_off_c, 69
5, 8820, Note_on_c, 74
5, 8849, Note_off_c, 74
5, 8850, Note_on_c, 82
5, 8850, Note_on_c, 77
5, 8879, Note_off_c, 77
5, 8879, Note_off_c, 82
5, 8880, Note_on_c, 69
5, 8909, Note_off_c, 69
5, 8910, Note_on_c, 74
5, 8910, Note_on_c, 81
5, 8939, Note_off_c, 81
5, 8939, Note_off_c, 74
5, 8940, Note_on_c, 70
5, 8969, Note_off_c, 70
5, 8970, Note_on_c, 79
5, 8970, Note_on_c, 74
5, 8999, Note_off_c, 74
5, 8999, Note_off_c, 79
5, 9000, Note_on_c, 64
5, 9000, Note_on_c, 73
5, 9000, Note_on_c, 81
5, 9000, Note_on_c, 76
5, 9029, Note_off_c, 76
5, 9029, Note_off_c, 64
5, 9029, Note_off_c, 73
5, 9029, Note_off_c, 81
5, 9300, Note_on_c, 74
5, 9329, Note_off_c, 74
5, 9330, Note_on_c, 82
5, 9330, Note_on_c, 77
5, 9359, Note_off_c, 77
5, 9359, Note_off_c, 82
5, 9360, Note_on_c, 69
5, 9389, Note_off_c, 69
5, 9389, Note_on_c, 81
5, 9390, Note_on_c, 76
5, 9418, Note_off_c, 81
5, 9419, Note_off_c, 76
5, 9420, Note_on_c, 70
5, 9449, Note_off_c, 70
5, 9450, Note_on_c, 79
5, 9450, Note_on_c, 74
5, 9479, Note_off_c, 74
5, 9479, Note_off_c, 79
5, 9481, Note_on_c, 64
5, 9482, Note_on_c, 69
5, 9483, Note_on_c, 73
5, 9484, Note_on_c, 76
5, 9485, Note_on_c, 81
5, 9540, Note_off_c, 64
5, 9540, Note_on_c, 65
5, 9540, Note_on_c, 59
5, 9540, Note_on_c, 74
5, 9540, Note_on_c, 71
5, 9541, Note_off_c, 69
5, 9542, Note_off_c, 73
5, 9543, Note_off_c, 76
5, 9544, Note_off_c, 81
5, 9599, Note_off_c, 65
5, 9599, Note_off_c, 74
5, 9599, Note_off_c, 71
5, 9599, Note_off_c, 59
5, 9600, Note_on_c, 73
5, 9600, Note_on_c, 57
5, 9600, Note_on_c, 69
5, 9600, Note_on_c, 64
5, 9689, Note_off_c, 73
5, 9690, Note_on_c, 71
5, 9719, Note_off_c, 71
5, 9719, Note_off_c, 64
5, 9719, Note_off_c, 69
5, 9719, Note_off_c, 57
5, 9720, Note_on_c, 69
5, 9749, Note_off_c, 69
5, 9750, Note_on_c, 73
5, 9779, Note_off_c, 73
5, 9780, Note_on_c, 76
5, 9794, Note_off_c, 76
5, 9795, Note_on_c, 79
5, 9809, Note_off_c, 79
5, 9810, Note_on_c, 82
5, 9839, Note_off_c, 82
5, 9840, Note_on_c, 81
5, 9854, Note_off_c, 81
5, 9855, Note_on_c, 79
5, 9869, Note_off_c, 79
5, 9870, Note_on_c, 77
5, 9884, Note_off_c, 77
5, 9885, Note_on_c, 76
5, 9899, Note_off_c, 76
5, 9900, Note_on_c, 77
5, 9914, Note_off_c, 77
5, 9915, Note_on_c, 76
5, 9929, Note_off_c, 76
5, 9930, Note_on_c, 74
5, 9944, Note_off_c, 74
5, 9945, Note_on_c, 73
5, 9959, Note_off_c, 73
5, 9960, Note_on_c, 74
5, 9974, Note_off_c, 74
5, 9975, Note_on_c, 72
5, 9989, Note_off_c, 72
5, 9990, Note_on_c, 70
5, 10004, Note_off_c, 70
5, 10005, Note_on_c, 69
5, 10019, Note_off_c, 69
5, 10020, Note_on_c, 67
5, 10034, Note_off_c, 67
5, 10035, Note_on_c, 65
5, 10049, Note_off_c, 65
5, 10050, Note_on_c, 64
5, 10064, Note_off_c, 64
5, 10065, Note_on_c, 62
5, 10079, Note_off_c, 62
5, 13650, Note_on_c, 73
5, 13650, Note_on_c, 57
5, 13650, Note_on_c, 69
5, 13650, Note_on_c, 64
5, 13679, Note_off_c, 64
5, 13679, Note_off_c, 73
5, 13679, Note_off_c, 57
5, 13679, Note_off_c, 69
5, 13680, Note_on_c, 74
5, 13680, Note_on_c, 57
5, 13680, Note_on_c, 69
5, 13680, Note_on_c, 65
5, 13680, Note_on_c, 62
5, 13739, Note_off_c, 62
5, 13739, Note_off_c, 69
5, 13739, Note_off_c, 74
5, 13739, Note_off_c, 57
5, 13739, Note_off_c, 65
5, 13740, Note_on_c, 65
5, 13740, Note_on_c, 62
5, 13740, Note_on_c, 57
5, 13769, Note_off_c, 57
5, 13799, Note_off_c, 65
5, 13800, Note_on_c, 64
5, 13859, Note_off_c, 62
5, 13860, Note_on_c, 61
5, 13890, Note_on_c, 55
5, 13919, Note_off_c, 55
5, 13919, Note_off_c, 61
5, 13919, Note_off_c, 64
5, 13920, Note_on_c, 55
5, 13920, Note_on_c, 62
5, 13920, Note_on_c, 57
5, 13920, Note_on_c, 50
5, 13979, Note_off_c, 55
5, 13980, Note_on_c, 53
5, 14009, Note_off_c, 53
5, 14010, Note_on_c, 52
5, 14039, Note_off_c, 52
5, 14040, Note_on_c, 53
5, 14159, Note_off_c, 53
5, 14159, Note_off_c, 50
5, 14159, Note_off_c, 57
5, 14159, Note_off_c, 62
5, 14159, End_track
6, 7260, Note_on_c, 62
6, 7274, Note_off_c, 62
6, 7275, Note_on_c, 65
6, 7289, Note_off_c, 65
6, 7290, Note_on_c, 70
6, 7304, Note_off_c, 70
6, 7305, Note_on_c, 65
6, 7319, Note_off_c, 65
6, 7320, Note_on_c, 60
6, 7334, Note_off_c, 60
6, 7335, Note_on_c, 64
6, 7349, Note_off_c, 64
6, 7350, Note_on_c, 69
6, 7364, Note_off_c, 69
6, 7365, Note_on_c, 64
6, 7379, Note_off_c, 64
6, 7380, Note_on_c, 58
6, 7394, Note_off_c, 58
6, 7395, Note_on_c, 62
6, 7409, Note_off_c, 62
6, 7410, Note_on_c, 67
6, 7424, Note_off_c, 67
6, 7425, Note_on_c, 62
6, 7439, Note_off_c, 62
6, 7440, Note_on_c, 57
6, 7454, Note_off_c, 57
6, 7455, Note_on_c, 61
6, 7469, Note_off_c, 61
6, 7470, Note_on_c, 64
6, 7484, Note_off_c, 64
6, 7485, Note_on_c, 69
6, 7499, Note_off_c, 69
6, 7740, Note_on_c, 62
6, 7754, Note_off_c, 62
6, 7755, Note_on_c, 65
6, 7769, Note_off_c, 65
6, 7770, Note_on_c, 70
6, 7784, Note_off_c, 70
6, 7785, Note_on_c, 65
6, 7799, Note_off_c, 65
6, 7800, Note_on_c, 60
6, 7814, Note_off_c, 60
6, 7815, Note_on_c, 64
6, 7829, Note_off_c, 64
6, 7830, Note_on_c, 69
6, 7844, Note_off_c, 69
6, 7845, Note_on_c, 64
6, 7859, Note_off_c, 64
6, 7860, Note_on_c, 58
6, 7874, Note_off_c, 58
6, 7875, Note_on_c, 62
6, 7889, Note_off_c, 62
6, 7890, Note_on_c, 67
6, 7904, Note_off_c, 67
6, 7905, Note_on_c, 62
6, 7919, Note_off_c, 62
6, 7920, Note_on_c, 57
6, 7934, Note_off_c, 57
6, 7935, Note_on_c, 61
6, 7949, Note_off_c, 61
6, 7950, Note_on_c, 64
6, 7964, Note_off_c, 64
6, 7965, Note_on_c, 69
6, 7979, Note_off_c, 69
6, 9060, Note_on_c, 74
6, 9074, Note_off_c, 74
6, 9075, Note_on_c, 77
6, 9089, Note_off_c, 77
6, 9090, Note_on_c, 82
6, 9104, Note_off_c, 82
6, 9105, Note_on_c, 77
6, 9119, Note_off_c, 77
6, 9120, Note_on_c, 72
6, 9134, Note_off_c, 72
6, 9135, Note_on_c, 76
6, 9149, Note_off_c, 76
6, 9150, Note_on_c, 81
6, 9164, Note_off_c, 81
6, 9165, Note_on_c, 76
6, 9179, Note_off_c, 76
6, 9180, Note_on_c, 70
6, 9194, Note_off_c, 70
6, 9195, Note_on_c, 74
6, 9209, Note_off_c, 74
6, 9210, Note_on_c, 79
6, 9224, Note_off_c, 79
6, 9225, Note_on_c, 74
6, 9239, Note_off_c, 74
6, 9240, Note_on_c, 69
6, 9254, Note_off_c, 69
6, 9255, Note_on_c, 73
6, 9269, Note_off_c, 73
6, 9270, Note_on_c, 76
6, 9284, Note_off_c, 76
6, 9285, Note_on_c, 81
6, 9299, Note_off_c, 81
6, 9299, End_track
7, 14190, Note_on_c, 69
7, 14219, Note_off_c, 69
7, 14220, Note_on_c, 67
7, 14249, Note_off_c, 67
7, 14250, Note_on_c, 69
7, 14279, Note_off_c, 69
7, 14280, Note_on_c, 65
7, 14309, Note_off_c, 65
7, 14310, Note_on_c, 69
7, 14339, Note_off_c, 69
7, 14340, Note_on_c, 64
7, 14369, Note_off_c, 64
7, 14370, Note_on_c, 69
7, 14399, Note_off_c, 69
7, 14400, Note_on_c, 62
7, 14429, Note_off_c, 62
7, 14430, Note_on_c, 69
7, 14459, Note_off_c, 69
7, 14460, Note_on_c, 61
7, 14489, Note_off_c, 61
7, 14490, Note_on_c, 69
7, 14519, Note_off_c, 69
7, 14520, Note_on_c, 62
7, 14549, Note_off_c, 62
7, 14550, Note_on_c, 69
7, 14579, Note_off_c, 69
7, 14580, Note_on_c, 64
7, 14609, Note_off_c, 64
7, 14610, Note_on_c, 69
7, 14639, Note_off_c, 69
7, 14640, Note_on_c, 65
7, 14669, Note_off_c, 65
7, 14670, Note_on_c, 69
7, 14699, Note_off_c, 69
7, 14700, Note_on_c, 57
7, 14729, Note_off_c, 57
7, 14730, Note_on_c, 69
7, 14759, Note_off_c, 69
7, 14760, Note_on_c, 59
7, 14789, Note_off_c, 59
7, 14790, Note_on_c, 69
7, 14819, Note_off_c, 69
7, 14820, Note_on_c, 61
7, 14849, Note_off_c, 61
7, 14850, Note_on_c, 69
7, 14879, Note_off_c, 69
7, 14880, Note_on_c, 62
7, 14909, Note_off_c, 62
7, 14910, Note_on_c, 69
7, 14939, Note_off_c, 69
7, 14940, Note_on_c, 61
7, 14969, Note_off_c, 61
7, 14970, Note_on_c, 69
7, 14999, Note_off_c, 69
7, 15000, Note_on_c, 62
7, 15029, Note_off_c, 62
7, 15030, Note_on_c, 69
7, 15059, Note_off_c, 69
7, 15060, Note_on_c, 64
7, 15089, Note_off_c, 64
7, 15090, Note_on_c, 69
7, 15119, Note_off_c, 69
7, 15120, Note_on_c, 65
7, 15179, Note_off_c, 65
7, 15180, Note_on_c, 66
7, 15239, Note_off_c, 66
7, 15240, Note_on_c, 67
7, 15299, Note_off_c, 67
7, 15300, Note_on_c, 60
7, 15359, Note_off_c, 60
7, 15360, Note_on_c, 58
7, 15419, Note_off_c, 58
7, 15420, Note_on_c, 57
7, 15479, Note_off_c, 57
7, 15480, Note_on_c, 58
7, 15539, Note_off_c, 58
7, 15540, Note_on_c, 60
7, 15599, Note_off_c, 60
7, 15600, Note_on_c, 62
7, 15659, Note_off_c, 62
7, 15660, Note_on_c, 54
7, 15719, Note_off_c, 54
7, 15720, Note_on_c, 55
7, 15779, Note_off_c, 55
7, 15780, Note_on_c, 57
7, 15839, Note_off_c, 57
7, 15840, Note_on_c, 58
7, 15899, Note_off_c, 58
7, 15900, Note_on_c, 57
7, 15959, Note_off_c, 57
7, 15960, Note_on_c, 58
7, 16019, Note_off_c, 58
7, 16020, Note_on_c, 54
7, 16079, Note_off_c, 54
7, 16080, Note_on_c, 55
7, 16109, Note_off_c, 55
7, 16110, Note_on_c, 67
7, 16139, Note_off_c, 67
7, 16140, Note_on_c, 55
7, 16169, Note_off_c, 55
7, 16170, Note_on_c, 67
7, 16199, Note_off_c, 67
7, 16200, Note_on_c, 62
7, 16229, Note_off_c, 62
7, 16230, Note_on_c, 67
7, 16259, Note_off_c, 67
7, 16260, Note_on_c, 62
7, 16289, Note_off_c, 62
7, 16290, Note_on_c, 67
7, 16319, Note_off_c, 67
7, 16320, Note_on_c, 60
7, 16349, Note_off_c, 60
7, 16350, Note_on_c, 63
7, 16379, Note_off_c, 63
7, 16380, Note_on_c, 60
7, 16409, Note_off_c, 60
7, 16410, Note_on_c, 63
7, 16439, Note_off_c, 63
7, 16440, Note_on_c, 60
7, 16469, Note_off_c, 60
7, 16470, Note_on_c, 63
7, 16499, Note_off_c, 63
7, 16500, Note_on_c, 60
7, 16529, Note_off_c, 60
7, 16530, Note_on_c, 63
7, 16559, Note_off_c, 63
7, 16560, Note_on_c, 60
7, 16589, Note_off_c, 60
7, 16590, Note_on_c, 65
7, 16619, Note_off_c, 65
7, 16620, Note_on_c, 60
7, 16649, Note_off_c, 60
7, 16650, Note_on_c, 65
7, 16679, Note_off_c, 65
7, 16680, Note_on_c, 60
7, 16709, Note_off_c, 60
7, 16710, Note_on_c, 65
7, 16739, Note_off_c, 65
7, 16740, Note_on_c, 60
7, 16769, Note_off_c, 60
7, 16770, Note_on_c, 65
7, 16799, Note_off_c, 65
7, 16800, Note_on_c, 58
7, 16829, Note_off_c, 58
7, 16830, Note_on_c, 62
7, 16859, Note_off_c, 62
7, 16860, Note_on_c, 58
7, 16889, Note_off_c, 58
7, 16890, Note_on_c, 62
7, 16919, Note_off_c, 62
7, 16920, Note_on_c, 58
7, 16949, Note_off_c, 58
7, 16950, Note_on_c, 62
7, 16979, Note_off_c, 62
7, 16980, Note_on_c, 58
7, 17009, Note_off_c, 58
7, 17010, Note_on_c, 62
7, 17039, Note_off_c, 62
7, 17040, Note_on_c, 58
7, 17069, Note_off_c, 58
7, 17070, Note_on_c, 64
7, 17099, Note_off_c, 64
7, 17100, Note_on_c, 58
7, 17129, Note_off_c, 58
7, 17130, Note_on_c, 64
7, 17159, Note_off_c, 64
7, 17160, Note_on_c, 58
7, 17189, Note_off_c, 58
7, 17190, Note_on_c, 64
7, 17219, Note_off_c, 64
7, 17220, Note_on_c, 58
7, 17249, Note_off_c, 58
7, 17250, Note_on_c, 64
7, 17279, Note_off_c, 64
7, 17280, Note_on_c, 57
7, 17309, Note_off_c, 57
7, 17310, Note_on_c, 61
7, 17339, Note_off_c, 61
7, 17340, Note_on_c, 57
7, 17369, Note_off_c, 57
7, 17370, Note_on_c, 61
7, 17399, Note_off_c, 61
7, 17400, Note_on_c, 57
7, 17429, Note_off_c, 57
7, 17430, Note_on_c, 61
7, 17459, Note_off_c, 61
7, 17460, Note_on_c, 57
7, 17489, Note_off_c, 57
7, 17490, Note_on_c, 61
7, 17519, Note_off_c, 61
7, 17520, Note_on_c, 53
7, 17549, Note_off_c, 53
7, 17550, Note_on_c, 62
7, 17579, Note_off_c, 62
7, 17580, Note_on_c, 53
7, 17609, Note_off_c, 53
7, 17610, Note_on_c, 62
7, 17639, Note_off_c, 62
7, 17640, Note_on_c, 53
7, 17669, Note_off_c, 53
7, 17670, Note_on_c, 62
7, 17699, Note_off_c, 62
7, 17700, Note_on_c, 53
7, 17729, Note_off_c, 53
7, 17730, Note_on_c, 62
7, 17759, Note_off_c, 62
7, 17760, Note_on_c, 52
7, 17789, Note_off_c, 52
7, 17790, Note_on_c, 58
7, 17819, Note_off_c, 58
7, 17820, Note_on_c, 52
7, 17849, Note_off_c, 52
7, 17850, Note_on_c, 58
7, 17879, Note_off_c, 58
7, 17880, Note_on_c, 52
7, 17909, Note_off_c, 52
7, 17910, Note_on_c, 58
7, 17939, Note_off_c, 58
7, 17940, Note_on_c, 52
7, 17969, Note_off_c, 52
7, 17970, Note_on_c, 58
7, 17999, Note_off_c, 58
7, 18000, Note_on_c, 50
7, 18029, Note_off_c, 50
7, 18030, Note_on_c, 57
7, 18059, Note_off_c, 57
7, 18060, Note_on_c, 50
7, 18089, Note_off_c, 50
7, 18090, Note_on_c, 57
7, 18119, Note_off_c, 57
7, 18120, Note_on_c, 50
7, 18149, Note_off_c, 50
7, 18150, Note_on_c, 57
7, 18179, Note_off_c, 57
7, 18180, Note_on_c, 50
7, 18209, Note_off_c, 50
7, 18210, Note_on_c, 57
7, 18239, Note_off_c, 57
7, 18240, Note_on_c, 52
7, 18269, Note_off_c, 52
7, 18270, Note_on_c, 55
7, 18299, Note_off_c, 55
7, 18300, Note_on_c, 52
7, 18329, Note_off_c, 52
7, 18330, Note_on_c, 55
7, 18359, Note_off_c, 55
7, 18360, Note_on_c, 52
7, 18389, Note_off_c, 52
7, 18390, Note_on_c, 55
7, 18419, Note_off_c, 55
7, 18420, Note_on_c, 52
7, 18449, Note_off_c, 52
7, 18450, Note_on_c, 55
7, 18479, Note_off_c, 55
7, 18480, Note_on_c, 53
7, 18480, Note_on_c, 57
7, 18539, Note_off_c, 57
7, 18539, Note_off_c, 53
7, 18540, Note_on_c, 57
7, 18540, Note_on_c, 52
7, 18599, Note_off_c, 52
7, 18599, Note_off_c, 57
7, 18600, Note_on_c, 57
7, 18600, Note_on_c, 50
7, 18659, Note_off_c, 50
7, 18659, Note_off_c, 57
7, 18660, Note_on_c, 55
7, 18660, Note_on_c, 57
7, 18719, Note_off_c, 57
7, 18719, Note_off_c, 55
7, 18720, Note_on_c, 53
7, 18720, Note_on_c, 57
7, 18779, Note_off_c, 57
7, 18779, Note_off_c, 53
7, 18780, Note_on_c, 52
7, 18780, Note_on_c, 57
7, 18839, Note_off_c, 57
7, 18839, Note_off_c, 52
7, 18840, Note_on_c, 53
7, 18840, Note_on_c, 57
7, 18899, Note_off_c, 57
7, 18899, Note_off_c, 53
7, 18900, Note_on_c, 57
7, 18900, Note_on_c, 49
7, 18959, Note_off_c, 49
7, 18959, Note_off_c, 57
7, 18960, Note_on_c, 57
7, 18960, Note_on_c, 50
7, 19019, Note_off_c, 50
7, 19019, Note_off_c, 57
7, 19020, Note_on_c, 49
7, 19020, Note_on_c, 57
7, 19079, Note_off_c, 57
7, 19079, Note_off_c, 49
7, 19080, Note_on_c, 50
7, 19080, Note_on_c, 57
7, 19139, Note_off_c, 57
7, 19139, Note_off_c, 50
7, 19140, Note_on_c, 57
7, 19140, Note_on_c, 52
7, 19199, Note_off_c, 52
7, 19199, Note_off_c, 57
7, 19200, Note_on_c, 57
7, 19200, Note_on_c, 53
7, 19259, Note_off_c, 53
7, 19259, Note_off_c, 57
7, 19260, Note_on_c, 57
7, 19260, Note_on_c, 52
7, 19319, Note_off_c, 52
7, 19319, Note_off_c, 57
7, 19320, Note_on_c, 57
7, 19320, Note_on_c, 53
7, 19379, Note_off_c, 53
7, 19379, Note_off_c, 57
7, 19380, Note_on_c, 49
7, 19380, Note_on_c, 57
7, 19439, Note_off_c, 57
7, 19439, Note_off_c, 49
7, 19440, Note_on_c, 57
7, 19440, Note_on_c, 50
7, 19559, Note_off_c, 50
7, 19559, Note_off_c, 57
7, 19560, Note_on_c, 62
7, 19560, Note_on_c, 53
7, 19679, Note_off_c, 53
7, 19679, Note_off_c, 62
7, 19680, Note_on_c, 70
7, 19709, Note_off_c, 70
7, 19710, Note_on_c, 81
7, 19739, Note_off_c, 81
7, 19740, Note_on_c, 72
7, 19769, Note_off_c, 72
7, 19770, Note_on_c, 81
7, 19799, Note_off_c, 81
7, 19800, Note_on_c, 74
7, 19829, Note_off_c, 74
7, 19830, Note_on_c, 79
7, 19859, Note_off_c, 79
7, 19860, Note_on_c, 70
7, 19889, Note_off_c, 70
7, 19890, Note_on_c, 79
7, 19919, Note_off_c, 79
7, 19920, Note_on_c, 76
7, 19949, Note_off_c, 76
7, 19950, Note_on_c, 79
7, 19979, Note_off_c, 79
7, 19980, Note_on_c, 74
7, 20009, Note_off_c, 74
7, 20010, Note_on_c, 79
7, 20039, Note_off_c, 79
7, 20040, Note_on_c, 72
7, 20069, Note_off_c, 72
7, 20070, Note_on_c, 79
7, 20099, Note_off_c, 79
7, 20100, Note_on_c, 70
7, 20129, Note_off_c, 70
7, 20130, Note_on_c, 79
7, 20159, Note_off_c, 79
7, 20160, Note_on_c, 69
7, 20189, Note_off_c, 69
7, 20190, Note_on_c, 79
7, 20219, Note_off_c, 79
7, 20220, Note_on_c, 70
7, 20249, Note_off_c, 70
7, 20250, Note_on_c, 79
7, 20279, Note_off_c, 79
7, 20280, Note_on_c, 72
7, 20309, Note_off_c, 72
7, 20310, Note_on_c, 77
7, 20339, Note_off_c, 77
7, 20340, Note_on_c, 69
7, 20369, Note_off_c, 69
7, 20370, Note_on_c, 77
7, 20399, Note_off_c, 77
7, 20400, Note_on_c, 74
7, 20429, Note_off_c, 74
7, 20430, Note_on_c, 77
7, 20459, Note_off_c, 77
7, 20460, Note_on_c, 72
7, 20489, Note_off_c, 72
7, 20490, Note_on_c, 77
7, 20519, Note_off_c, 77
7, 20520, Note_on_c, 70
7, 20549, Note_off_c, 70
7, 20550, Note_on_c, 77
7, 20579, Note_off_c, 77
7, 20580, Note_on_c, 69
7, 20609, Note_off_c, 69
7, 20610, Note_on_c, 77
7, 20639, Note_off_c, 77
7, 20640, Note_on_c, 67
7, 20669, Note_off_c, 67
7, 20670, Note_on_c, 77
7, 20699, Note_off_c, 77
7, 20700, Note_on_c, 69
7, 20729, Note_off_c, 69
7, 20730, Note_on_c, 77
7, 20759, Note_off_c, 77
7, 20760, Note_on_c, 70
7, 20789, Note_off_c, 70
7, 20790, Note_on_c, 76
7, 20819, Note_off_c, 76
7, 20820, Note_on_c, 67
7, 20849, Note_off_c, 67
7, 20850, Note_on_c, 76
7, 20879, Note_off_c, 76
7, 20880, Note_on_c, 73
7, 20909, Note_off_c, 73
7, 20910, Note_on_c, 76
7, 20939, Note_off_c, 76
7, 20940, Note_on_c, 71
7, 20969, Note_off_c, 71
7, 20970, Note_on_c, 76
7, 20999, Note_off_c, 76
7, 21000, Note_on_c, 69
7, 21029, Note_off_c, 69
7, 21030, Note_on_c, 76
7, 21059, Note_off_c, 76
7, 21060, Note_on_c, 67
7, 21089, Note_off_c, 67
7, 21090, Note_on_c, 76
7, 21119, Note_off_c, 76
7, 21120, Note_on_c, 65
7, 21149, Note_off_c, 65
7, 21150, Note_on_c, 76
7, 21179, Note_off_c, 76
7, 21180, Note_on_c, 67
7, 21209, Note_off_c, 67
7, 21210, Note_on_c, 76
7, 21239, Note_off_c, 76
7, 21240, Note_on_c, 69
7, 21269, Note_off_c, 69
7, 21270, Note_on_c, 74
7, 21299, Note_off_c, 74
7, 21300, Note_on_c, 65
7, 21329, Note_off_c, 65
7, 21330, Note_on_c, 74
7, 21359, Note_off_c, 74
7, 21360, Note_on_c, 64
7, 21389, Note_off_c, 64
7, 21390, Note_on_c, 76
7, 21419, Note_off_c, 76
7, 21420, Note_on_c, 64
7, 21449, Note_off_c, 64
7, 21450, Note_on_c, 76
7, 21479, Note_off_c, 76
7, 21480, Note_on_c, 65
7, 21509, Note_off_c, 65
7, 21510, Note_on_c, 74
7, 21539, Note_off_c, 74
7, 21540, Note_on_c, 65
7, 21569, Note_off_c, 65
7, 21570, Note_on_c, 74
7, 21599, Note_off_c, 74
7, 21600, Note_on_c, 70
7, 21629, Note_off_c, 70
7, 21630, Note_on_c, 73
7, 21659, Note_off_c, 73
7, 21660, Note_on_c, 70
7, 21689, Note_off_c, 70
7, 21690, Note_on_c, 73
7, 21719, Note_off_c, 73
7, 21720, Note_on_c, 69
7, 21749, Note_off_c, 69
7, 21750, Note_on_c, 74
7, 21779, Note_off_c, 74
7, 21780, Note_on_c, 65
7, 21809, Note_off_c, 65
7, 21810, Note_on_c, 74
7, 21839, Note_off_c, 74
7, 21840, Note_on_c, 64
7, 21869, Note_off_c, 64
7, 21870, Note_on_c, 76
7, 21899, Note_off_c, 76
7, 21900, Note_on_c, 64
7, 21929, Note_off_c, 64
7, 21930, Note_on_c, 76
7, 21959, Note_off_c, 76
7, 21960, Note_on_c, 65
7, 21989, Note_off_c, 65
7, 21990, Note_on_c, 74
7, 22019, Note_off_c, 74
7, 22020, Note_on_c, 65
7, 22049, Note_off_c, 65
7, 22050, Note_on_c, 74
7, 22079, Note_off_c, 74
7, 22110, Note_on_c, 74
7, 22139, Note_off_c, 74
7, 22140, Note_on_c, 73
7, 22169, Note_off_c, 73
7, 22170, Note_on_c, 74
7, 22199, Note_off_c, 74
7, 22200, Note_on_c, 71
7, 22229, Note_off_c, 71
7, 22230, Note_on_c, 74
7, 22259, Note_off_c, 74
7, 22260, Note_on_c, 73
7, 22289, Note_off_c, 73
7, 22290, Note_on_c, 71
7, 22319, Note_off_c, 71
7, 22320, Note_on_c, 73
7, 22350, Note_on_c, 69
7, 22379, Note_off_c, 69
7, 22380, Note_on_c, 67
7, 22409, Note_off_c, 67
7, 22410, Note_on_c, 69
7, 22439, Note_off_c, 69
7, 22439, Note_off_c, 73
7, 22440, Note_on_c, 64
7, 22469, Note_off_c, 64
7, 22470, Note_on_c, 67
7, 22499, Note_off_c, 67
7, 22500, Note_on_c, 65
7, 22529, Note_off_c, 65
7, 22530, Note_on_c, 64
7, 22559, Note_off_c, 64
7, 22590, Note_on_c, 74
7, 22619, Note_off_c, 74
7, 22620, Note_on_c, 73
7, 22649, Note_off_c, 73
7, 22650, Note_on_c, 74
7, 22679, Note_off_c, 74
7, 22680, Note_on_c, 77
7, 22709, Note_off_c, 77
7, 22710, Note_on_c, 74
7, 22739, Note_off_c, 74
7, 22740, Note_on_c, 73
7, 22769, Note_off_c, 73
7, 22770, Note_on_c, 71
7, 22799, Note_off_c, 71
7, 22800, Note_on_c, 73
7, 22919, Note_off_c, 73
7, 22920, Note_on_c, 76
7, 23040, Note_on_c, 65
7, 23099, Note_off_c, 76
7, 23100, Note_on_c, 74
7, 23159, Note_off_c, 65
7, 23160, Note_on_c, 64
7, 23219, Note_off_c, 74
7, 23220, Note_on_c, 73
7, 23279, Note_off_c, 73
7, 23279, Note_off_c, 64
7, 23280, Note_on_c, 62
7, 23280, Note_on_c, 72
7, 23339, Note_off_c, 62
7, 23340, Note_on_c, 69
7, 23399, Note_off_c, 72
7, 23400, Note_on_c, 70
7, 23459, Note_off_c, 69
7, 23460, Note_on_c, 67
7, 23519, Note_off_c, 70
7, 23520, Note_on_c, 69
7, 23639, Note_off_c, 69
7, 23639, Note_off_c, 67
7, 23640, Note_on_c, 66
7, 23640, Note_on_c, 69
7, 23759, Note_off_c, 69
7, 23759, Note_off_c, 66
7, 23760, Note_on_c, 65
7, 23760, Note_on_c, 67
7, 23879, Note_off_c, 67
7, 23879, Note_off_c, 65
7, 23880, Note_on_c, 63
7, 23880, Note_on_c, 67
7, 23999, Note_off_c, 67
7, 24000, Note_on_c, 66
7, 24059, Note_off_c, 66
7, 24059, Note_off_c, 63
7, 24060, Note_on_c, 62
7, 24060, Note_on_c, 69
7, 24119, Note_off_c, 62
7, 24120, Note_on_c, 66
7, 24179, Note_off_c, 66
7, 24179, Note_off_c, 69
7, 24180, Note_on_c, 72
7, 24180, Note_on_c, 75
7, 24239, Note_off_c, 75
7, 24240, Note_on_c, 74
7, 24299, Note_off_c, 72
7, 24300, Note_on_c, 70
7, 24329, Note_off_c, 70
7, 24330, Note_on_c, 69
7, 24359, Note_off_c, 69
7, 24359, Note_off_c, 74
7, 24360, Note_on_c, 70
7, 24419, Note_off_c, 70
7, 24420, Note_on_c, 70
7, 24420, Note_on_c, 79
7, 24479, Note_off_c, 70
7, 24480, Note_on_c, 69
7, 24539, Note_off_c, 79
7, 24540, Note_on_c, 78
7, 24599, Note_off_c, 78
7, 24599, Note_off_c, 69
7, 24600, Note_on_c, 74
7, 24600, Note_on_c, 79
7, 24659, Note_off_c, 74
7, 24660, Note_on_c, 72
7, 24719, Note_off_c, 72
7, 24719, Note_off_c, 79
7, 24720, Note_on_c, 70
7, 24779, Note_off_c, 70
7, 24780, Note_on_c, 74
7, 24780, Note_on_c, 69
7, 24839, Note_off_c, 69
7, 24839, Note_off_c, 74
7, 24840, Note_on_c, 70
7, 24840, Note_on_c, 74
7, 24899, Note_off_c, 74
7, 24899, Note_off_c, 70
7, 24900, Note_on_c, 66
7, 24900, Note_on_c, 74
7, 24959, Note_off_c, 74
7, 24959, Note_off_c, 66
7, 24960, Note_on_c, 67
7, 24960, Note_on_c, 74
7, 25019, Note_off_c, 74
7, 25019, Note_off_c, 67
7, 25020, Note_on_c, 66
7, 25020, Note_on_c, 74
7, 25079, Note_off_c, 74
7, 25079, Note_off_c, 66
7, 25080, Note_on_c, 67
7, 25080, Note_on_c, 74
7, 25139, Note_off_c, 74
7, 25139, Note_off_c, 67
7, 25140, Note_on_c, 69
7, 25140, Note_on_c, 74
7, 25199, Note_off_c, 74
7, 25199, Note_off_c, 69
7, 25200, Note_on_c, 70
7, 25200, Note_on_c, 74
7, 25259, Note_off_c, 74
7, 25259, Note_off_c, 70
7, 25260, Note_on_c, 74
7, 25260, Note_on_c, 69
7, 25319, Note_off_c, 69
7, 25319, Note_off_c, 74
7, 25320, Note_on_c, 70
7, 25320, Note_on_c, 74
7, 25379, Note_off_c, 74
7, 25379, Note_off_c, 70
7, 25380, Note_on_c, 66
7, 25380, Note_on_c, 74
7, 25439, Note_off_c, 74
7, 25439, Note_off_c, 66
7, 25440, Note_on_c, 74
7, 25469, Note_off_c, 74
7, 25470, Note_on_c, 79
7, 25499, Note_off_c, 79
7, 25500, Note_on_c, 77
7, 25529, Note_off_c, 77
7, 25530, Note_on_c, 79
7, 25559, Note_off_c, 79
7, 25560, Note_on_c, 76
7, 25589, Note_off_c, 76
7, 25590, Note_on_c, 77
7, 25619, Note_off_c, 77
7, 25620, Note_on_c, 74
7, 25649, Note_off_c, 74
7, 25650, Note_on_c, 76
7, 25679, Note_off_c, 76
7, 25680, Note_on_c, 72
7, 25709, Note_off_c, 72
7, 25710, Note_on_c, 81
7, 25739, Note_off_c, 81
7, 25740, Note_on_c, 79
7, 25769, Note_off_c, 79
7, 25770, Note_on_c, 81
7, 25799, Note_off_c, 81
7, 25800, Note_on_c, 77
7, 25829, Note_off_c, 77
7, 25830, Note_on_c, 79
7, 25859, Note_off_c, 79
7, 25860, Note_on_c, 76
7, 25889, Note_off_c, 76
7, 25890, Note_on_c, 77
7, 25919, Note_off_c, 77
7, 25920, Note_on_c, 74
7, 25949, Note_off_c, 74
7, 25950, Note_on_c, 82
7, 25979, Note_off_c, 82
7, 25980, Note_on_c, 81
7, 26009, Note_off_c, 81
7, 26010, Note_on_c, 82
7, 26039, Note_off_c, 82
7, 26040, Note_on_c, 79
7, 26069, Note_off_c, 79
7, 26070, Note_on_c, 81
7, 26099, Note_off_c, 81
7, 26100, Note_on_c, 77
7, 26129, Note_off_c, 77
7, 26130, Note_on_c, 79
7, 26159, Note_off_c, 79
7, 26160, Note_on_c, 76
7, 26189, Note_off_c, 76
7, 26190, Note_on_c, 84
7, 26219, Note_off_c, 84
7, 26220, Note_on_c, 82
7, 26249, Note_off_c, 82
7, 26250, Note_on_c, 84
7, 26279, Note_off_c, 84
7, 26280, Note_on_c, 81
7, 26309, Note_off_c, 81
7, 26310, Note_on_c, 82
7, 26339, Note_off_c, 82
7, 26340, Note_on_c, 79
7, 26369, Note_off_c, 79
7, 26370, Note_on_c, 81
7, 26399, Note_off_c, 81
7, 26400, Note_on_c, 77
7, 26429, Note_off_c, 77
7, 26430, Note_on_c, 75
7, 26459, Note_off_c, 75
7, 26460, Note_on_c, 74
7, 26489, Note_off_c, 74
7, 26490, Note_on_c, 72
7, 26519, Note_off_c, 72
7, 26520, Note_on_c, 74
7, 26549, Note_off_c, 74
7, 26550, Note_on_c, 72
7, 26579, Note_off_c, 72
7, 26580, Note_on_c, 70
7, 26609, Note_off_c, 70
7, 26610, Note_on_c, 69
7, 26639, Note_off_c, 69
7, 26640, Note_on_c, 70
7, 26669, Note_off_c, 70
7, 26670, Note_on_c, 74
7, 26699, Note_off_c, 74
7, 26700, Note_on_c, 70
7, 26729, Note_off_c, 70
7, 26730, Note_on_c, 69
7, 26759, Note_off_c, 69
7, 26760, Note_on_c, 67
7, 26789, Note_off_c, 67
7, 26790, Note_on_c, 70
7, 26819, Note_off_c, 70
7, 26820, Note_on_c, 67
7, 26849, Note_off_c, 67
7, 26850, Note_on_c, 65
7, 26879, Note_off_c, 65
7, 26880, Note_on_c, 64
7, 26909, Note_off_c, 64
7, 26910, Note_on_c, 65
7, 26939, Note_off_c, 65
7, 26940, Note_on_c, 67
7, 26969, Note_off_c, 67
7, 26970, Note_on_c, 69
7, 26999, Note_off_c, 69
7, 27000, Note_on_c, 70
7, 27029, Note_off_c, 70
7, 27030, Note_on_c, 74
7, 27059, Note_off_c, 74
7, 27060, Note_on_c, 72
7, 27089, Note_off_c, 72
7, 27090, Note_on_c, 70
7, 27119, Note_off_c, 70
7, 27120, Note_on_c, 69
7, 27239, Note_off_c, 69
7, 27240, Note_on_c, 72
7, 27299, Note_off_c, 72
7, 27300, Note_on_c, 70
7, 27359, Note_off_c, 70
7, 27360, Note_on_c, 69
7, 27419, Note_off_c, 69
7, 27420, Note_on_c, 67
7, 27479, Note_off_c, 67
7, 27480, Note_on_c, 69
7, 27539, Note_off_c, 69
7, 27540, Note_on_c, 70
7, 27599, Note_off_c, 70
7, 27600, Note_on_c, 72
7, 27659, Note_off_c, 72
7, 27660, Note_on_c, 64
7, 27719, Note_off_c, 64
7, 27720, Note_on_c, 65
7, 27779, Note_off_c, 65
7, 27780, Note_on_c, 67
7, 27839, Note_off_c, 67
7, 27840, Note_on_c, 69
7, 27899, Note_off_c, 69
7, 27900, Note_on_c, 67
7, 27959, Note_off_c, 67
7, 27960, Note_on_c, 69
7, 28019, Note_off_c, 69
7, 28020, Note_on_c, 70
7, 28079, Note_off_c, 70
7, 28080, Note_on_c, 72
7, 28109, Note_off_c, 72
7, 28110, Note_on_c, 70
7, 28139, Note_off_c, 70
7, 28140, Note_on_c, 69
7, 28169, Note_off_c, 69
7, 28170, Note_on_c, 67
7, 28199, Note_off_c, 67
7, 28200, Note_on_c, 65
7, 28229, Note_off_c, 65
7, 28320, Note_on_c, 74
7, 28349, Note_off_c, 74
7, 28350, Note_on_c, 72
7, 28379, Note_off_c, 72
7, 28380, Note_on_c, 70
7, 28409, Note_off_c, 70
7, 28410, Note_on_c, 69
7, 28439, Note_off_c, 69
7, 28440, Note_on_c, 67
7, 28469, Note_off_c, 67
7, 28560, Note_on_c, 76
7, 28589, Note_off_c, 76
7, 28590, Note_on_c, 74
7, 28619, Note_off_c, 74
7, 28620, Note_on_c, 72
7, 28649, Note_off_c, 72
7, 28650, Note_on_c, 70
7, 28679, Note_off_c, 70
7, 28680, Note_on_c, 69
7, 28709, Note_off_c, 69
7, 28800, Note_on_c, 77
7, 28829, Note_off_c, 77
7, 28830, Note_on_c, 76
7, 28859, Note_off_c, 76
7, 28860, Note_on_c, 74
7, 28889, Note_off_c, 74
7, 28890, Note_on_c, 72
7, 28919, Note_off_c, 72
7, 28920, Note_on_c, 70
7, 28949, Note_off_c, 70
7, 29040, Note_on_c, 79
7, 29069, Note_off_c, 79
7, 29070, Note_on_c, 77
7, 29099, Note_off_c, 77
7, 29100, Note_on_c, 76
7, 29129, Note_off_c, 76
7, 29130, Note_on_c, 74
7, 29159, Note_off_c, 74
7, 29160, Note_on_c, 72
7, 29189, Note_off_c, 72
7, 29280, Note_on_c, 81
7, 29309, Note_off_c, 81
7, 29310, Note_on_c, 77
7, 29339, Note_off_c, 77
7, 29340, Note_on_c, 76
7, 29369, Note_off_c, 76
7, 29370, Note_on_c, 77
7, 29399, Note_off_c, 77
7, 29400, Note_on_c, 72
7, 29429, Note_off_c, 72
7, 29430, Note_on_c, 77
7, 29459, Note_off_c, 77
7, 29460, Note_on_c, 76
7, 29489, Note_off_c, 76
7, 29490, Note_on_c, 77
7, 29519, Note_off_c, 77
7, 29520, Note_on_c, 81
7, 29549, Note_off_c, 81
7, 29550, Note_on_c, 77
7, 29579, Note_off_c, 77
7, 29580, Note_on_c, 76
7, 29609, Note_off_c, 76
7, 29610, Note_on_c, 77
7, 29639, Note_off_c, 77
7, 29640, Note_on_c, 72
7, 29669, Note_off_c, 72
7, 29670, Note_on_c, 77
7, 29699, Note_off_c, 77
7, 29700, Note_on_c, 76
7, 29729, Note_off_c, 76
7, 29730, Note_on_c, 77
7, 29759, Note_off_c, 77
7, 29760, Note_on_c, 79
7, 29789, Note_off_c, 79
7, 29790, Note_on_c, 76
7, 29819, Note_off_c, 76
7, 29820, Note_on_c, 74
7, 29849, Note_off_c, 74
7, 29850, Note_on_c, 76
7, 29879, Note_off_c, 76
7, 29880, Note_on_c, 72
7, 29909, Note_off_c, 72
7, 29910, Note_on_c, 76
7, 29939, Note_off_c, 76
7, 29940, Note_on_c, 74
7, 29969, Note_off_c, 74
7, 29970, Note_on_c, 76
7, 29999, Note_off_c, 76
7, 30000, Note_on_c, 79
7, 30029, Note_off_c, 79
7, 30030, Note_on_c, 76
7, 30059, Note_off_c, 76
7, 30060, Note_on_c, 74
7, 30089, Note_off_c, 74
7, 30090, Note_on_c, 76
7, 30119, Note_off_c, 76
7, 30120, Note_on_c, 72
7, 30149, Note_off_c, 72
7, 30150, Note_on_c, 76
7, 30179, Note_off_c, 76
7, 30180, Note_on_c, 74
7, 30209, Note_off_c, 74
7, 30210, Note_on_c, 76
7, 30239, Note_off_c, 76
7, 30240, Note_on_c, 81
7, 30269, Note_off_c, 81
7, 30270, Note_on_c, 77
7, 30299, Note_off_c, 77
7, 30300, Note_on_c, 76
7, 30329, Note_off_c, 76
7, 30330, Note_on_c, 77
7, 30359, Note_off_c, 77
7, 30360, Note_on_c, 72
7, 30389, Note_off_c, 72
7, 30390, Note_on_c, 77
7, 30419, Note_off_c, 77
7, 30420, Note_on_c, 76
7, 30449, Note_off_c, 76
7, 30450, Note_on_c, 77
7, 30479, Note_off_c, 77
7, 30480, Note_on_c, 81
7, 30509, Note_off_c, 81
7, 30510, Note_on_c, 77
7, 30539, Note_off_c, 77
7, 30540, Note_on_c, 76
7, 30569, Note_off_c, 76
7, 30570, Note_on_c, 77
7, 30599, Note_off_c, 77
7, 30600, Note_on_c, 72
7, 30629, Note_off_c, 72
7, 30630, Note_on_c, 77
7, 30659, Note_off_c, 77
7, 30660, Note_on_c, 76
7, 30689, Note_off_c, 76
7, 30690, Note_on_c, 77
7, 30719, Note_off_c, 77
7, 30720, Note_on_c, 79
7, 30749, Note_off_c, 79
7, 30750, Note_on_c, 76
7, 30779, Note_off_c, 76
7, 30780, Note_on_c, 74
7, 30809, Note_off_c, 74
7, 30810, Note_on_c, 76
7, 30839, Note_off_c, 76
7, 30840, Note_on_c, 72
7, 30869, Note_off_c, 72
7, 30870, Note_on_c, 76
7, 30899, Note_off_c, 76
7, 30900, Note_on_c, 74
7, 30929, Note_off_c, 74
7, 30930, Note_on_c, 76
7, 30959, Note_off_c, 76
7, 30960, Note_on_c, 79
7, 30989, Note_off_c, 79
7, 30990, Note_on_c, 76
7, 31019, Note_off_c, 76
7, 31020, Note_on_c, 74
7, 31049, Note_off_c, 74
7, 31050, Note_on_c, 76
7, 31079, Note_off_c, 76
7, 31080, Note_on_c, 72
7, 31109, Note_off_c, 72
7, 31110, Note_on_c, 76
7, 31139, Note_off_c, 76
7, 31140, Note_on_c, 74
7, 31169, Note_off_c, 74
7, 31170, Note_on_c, 76
7, 31199, Note_off_c, 76
7, 31200, Note_on_c, 77
7, 31229, Note_off_c, 77
7, 31230, Note_on_c, 79
7, 31259, Note_off_c, 79
7, 31260, Note_on_c, 77
7, 31289, Note_off_c, 77
7, 31290, Note_on_c, 76
7, 31319, Note_off_c, 76
7, 31320, Note_on_c, 74
7, 31349, Note_off_c, 74
7, 31560, Note_on_c, 77
7, 31589, Note_off_c, 77
7, 31590, Note_on_c, 81
7, 31619, Note_off_c, 81
7, 31620, Note_on_c, 77
7, 31649, Note_off_c, 77
7, 31650, Note_on_c, 74
7, 31679, Note_off_c, 74
7, 31800, Note_on_c, 77
7, 31829, Note_off_c, 77
7, 31830, Note_on_c, 81
7, 31859, Note_off_c, 81
7, 31860, Note_on_c, 77
7, 31889, Note_off_c, 77
7, 31890, Note_on_c, 74
7, 31919, Note_off_c, 74
7, 32040, Note_on_c, 76
7, 32069, Note_off_c, 76
7, 32070, Note_on_c, 79
7, 32099, Note_off_c, 79
7, 32100, Note_on_c, 76
7, 32129, Note_off_c, 76
7, 32130, Note_on_c, 72
7, 32159, Note_off_c, 72
7, 32280, Note_on_c, 76
7, 32309, Note_off_c, 76
7, 32310, Note_on_c, 79
7, 32339, Note_off_c, 79
7, 32340, Note_on_c, 76
7, 32369, Note_off_c, 76
7, 32370, Note_on_c, 72
7, 32399, Note_off_c, 72
7, 32520, Note_on_c, 74
7, 32549, Note_off_c, 74
7, 32550, Note_on_c, 77
7, 32579, Note_off_c, 77
7, 32580, Note_on_c, 74
7, 32609, Note_off_c, 74
7, 32610, Note_on_c, 70
7, 32639, Note_off_c, 70
7, 32760, Note_on_c, 74
7, 32789, Note_off_c, 74
7, 32790, Note_on_c, 77
7, 32819, Note_off_c, 77
7, 32820, Note_on_c, 74
7, 32849, Note_off_c, 74
7, 32850, Note_on_c, 70
7, 32879, Note_off_c, 70
7, 33000, Note_on_c, 73
7, 33029, Note_off_c, 73
7, 33030, Note_on_c, 76
7, 33059, Note_off_c, 76
7, 33060, Note_on_c, 73
7, 33089, Note_off_c, 73
7, 33090, Note_on_c, 70
7, 33119, Note_off_c, 70
7, 33240, Note_on_c, 73
7, 33269, Note_off_c, 73
7, 33270, Note_on_c, 76
7, 33299, Note_off_c, 76
7, 33300, Note_on_c, 73
7, 33329, Note_off_c, 73
7, 33330, Note_on_c, 70
7, 33359, Note_off_c, 70
7, 33390, Note_on_c, 81
7, 33419, Note_off_c, 81
7, 33420, Note_on_c, 79
7, 33449, Note_off_c, 79
7, 33450, Note_on_c, 81
7, 33479, Note_off_c, 81
7, 33480, Note_on_c, 77
7, 33509, Note_off_c, 77
7, 33510, Note_on_c, 81
7, 33539, Note_off_c, 81
7, 33540, Note_on_c, 76
7, 33569, Note_off_c, 76
7, 33570, Note_on_c, 81
7, 33599, Note_off_c, 81
7, 33600, Note_on_c, 74
7, 33629, Note_off_c, 74
7, 33630, Note_on_c, 81
7, 33659, Note_off_c, 81
7, 33660, Note_on_c, 73
7, 33689, Note_off_c, 73
7, 33690, Note_on_c, 81
7, 33719, Note_off_c, 81
7, 33720, Note_on_c, 74
7, 33749, Note_off_c, 74
7, 33750, Note_on_c, 81
7, 33779, Note_off_c, 81
7, 33780, Note_on_c, 76
7, 33809, Note_off_c, 76
7, 33810, Note_on_c, 81
7, 33839, Note_off_c, 81
7, 33840, Note_on_c, 77
7, 33869, Note_off_c, 77
7, 33870, Note_on_c, 81
7, 33899, Note_off_c, 81
7, 33900, Note_on_c, 69
7, 33929, Note_off_c, 69
7, 33930, Note_on_c, 81
7, 33959, Note_off_c, 81
7, 33960, Note_on_c, 71
7, 33989, Note_off_c, 71
7, 33990, Note_on_c, 81
7, 34019, Note_off_c, 81
7, 34020, Note_on_c, 73
7, 34049, Note_off_c, 73
7, 34050, Note_on_c, 81
7, 34079, Note_off_c, 81
7, 34080, Note_on_c, 74
7, 34109, Note_off_c, 74
7, 34110, Note_on_c, 81
7, 34139, Note_off_c, 81
7, 34140, Note_on_c, 73
7, 34169, Note_off_c, 73
7, 34170, Note_on_c, 81
7, 34199, Note_off_c, 81
7, 34200, Note_on_c, 74
7, 34259, Note_off_c, 74
7, 34260, Note_on_c, 76
7, 34319, Note_off_c, 76
7, 34320, Note_on_c, 74
7, 34379, Note_off_c, 74
7, 34380, Note_on_c, 69
7, 34380, Note_on_c, 72
7, 34439, Note_off_c, 72
7, 34439, Note_off_c, 69
7, 34440, Note_on_c, 67
7, 34440, Note_on_c, 70
7, 34499, Note_off_c, 70
7, 34499, Note_off_c, 67
7, 34500, Note_on_c, 66
7, 34500, Note_on_c, 69
7, 34559, Note_off_c, 69
7, 34559, Note_off_c, 66
7, 34560, Note_on_c, 67
7, 34560, Note_on_c, 70
7, 34589, Note_off_c, 70
7, 34590, Note_on_c, 69
7, 34619, Note_off_c, 69
7, 34619, Note_off_c, 67
7, 34620, Note_on_c, 67
7, 34649, Note_off_c, 67
7, 34650, Note_on_c, 65
7, 34679, Note_off_c, 65
7, 34680, Note_on_c, 64
7, 34709, Note_off_c, 64
7, 34710, Note_on_c, 62
7, 34739, Note_off_c, 62
7, 34740, Note_on_c, 61
7, 34769, Note_off_c, 61
7, 34770, Note_on_c, 59
7, 34799, Note_off_c, 59
7, 34800, Note_on_c, 57
7, 34829, Note_off_c, 57
7, 34920, Note_on_c, 55
7, 34949, Note_off_c, 55
7, 34950, Note_on_c, 58
7, 34979, Note_off_c, 58
7, 34980, Note_on_c, 55
7, 35009, Note_off_c, 55
7, 35010, Note_on_c, 52
7, 35039, Note_off_c, 52
7, 35160, Note_on_c, 55
7, 35189, Note_off_c, 55
7, 35190, Note_on_c, 58
7, 35219, Note_off_c, 58
7, 35220, Note_on_c, 55
7, 35249, Note_off_c, 55
7, 35250, Note_on_c, 52
7, 35279, Note_off_c, 52
7, 35400, Note_on_c, 57
7, 35429, Note_off_c, 57
7, 35430, Note_on_c, 62
7, 35459, Note_off_c, 62
7, 35460, Note_on_c, 57
7, 35489, Note_off_c, 57
7, 35490, Note_on_c, 53
7, 35519, Note_off_c, 53
7, 35640, Note_on_c, 57
7, 35669, Note_off_c, 57
7, 35670, Note_on_c, 62
7, 35699, Note_off_c, 62
7, 35700, Note_on_c, 57
7, 35729, Note_off_c, 57
7, 35730, Note_on_c, 53
7, 35759, Note_off_c, 53
7, 35880, Note_on_c, 55
7, 35909, Note_off_c, 55
7, 35910, Note_on_c, 58
7, 35939, Note_off_c, 58
7, 35940, Note_on_c, 55
7, 35969, Note_off_c, 55
7, 35970, Note_on_c, 52
7, 35999, Note_off_c, 52
7, 36120, Note_on_c, 55
7, 36149, Note_off_c, 55
7, 36150, Note_on_c, 58
7, 36179, Note_off_c, 58
7, 36180, Note_on_c, 55
7, 36209, Note_off_c, 55
7, 36210, Note_on_c, 52
7, 36239, Note_off_c, 52
7, 36360, Note_on_c, 57
7, 36389, Note_off_c, 57
7, 36390, Note_on_c, 62
7, 36419, Note_off_c, 62
7, 36420, Note_on_c, 57
7, 36449, Note_off_c, 57
7, 36450, Note_on_c, 53
7, 36479, Note_off_c, 53
7, 36600, Note_on_c, 57
7, 36629, Note_off_c, 57
7, 36630, Note_on_c, 62
7, 36659, Note_off_c, 62
7, 36660, Note_on_c, 57
7, 36689, Note_off_c, 57
7, 36690, Note_on_c, 53
7, 36719, Note_off_c, 53
7, 36840, Note_on_c, 58
7, 36869, Note_off_c, 58
7, 36870, Note_on_c, 61
7, 36899, Note_off_c, 61
7, 36900, Note_on_c, 58
7, 36929, Note_off_c, 58
7, 36930, Note_on_c, 55
7, 36959, Note_off_c, 55
7, 37080, Note_on_c, 58
7, 37109, Note_off_c, 58
7, 37110, Note_on_c, 61
7, 37139, Note_off_c, 61
7, 37140, Note_on_c, 58
7, 37169, Note_off_c, 58
7, 37170, Note_on_c, 55
7, 37199, Note_off_c, 55
7, 37320, Note_on_c, 62
7, 37349, Note_off_c, 62
7, 37350, Note_on_c, 65
7, 37379, Note_off_c, 65
7, 37380, Note_on_c, 62
7, 37409, Note_off_c, 62
7, 37410, Note_on_c, 57
7, 37439, Note_off_c, 57
7, 37560, Note_on_c, 62
7, 37589, Note_off_c, 62
7, 37590, Note_on_c, 65
7, 37619, Note_off_c, 65
7, 37620, Note_on_c, 62
7, 37649, Note_off_c, 62
7, 37650, Note_on_c, 57
7, 37679, Note_off_c, 57
7, 37800, Note_on_c, 58
7, 37829, Note_off_c, 58
7, 37830, Note_on_c, 61
7, 37859, Note_off_c, 61
7, 37860, Note_on_c, 58
7, 37889, Note_off_c, 58
7, 37890, Note_on_c, 55
7, 37919, Note_off_c, 55
7, 38040, Note_on_c, 58
7, 38069, Note_off_c, 58
7, 38070, Note_on_c, 61
7, 38099, Note_off_c, 61
7, 38100, Note_on_c, 58
7, 38129, Note_off_c, 58
7, 38130, Note_on_c, 55
7, 38159, Note_off_c, 55
7, 38280, Note_on_c, 62
7, 38309, Note_off_c, 62
7, 38310, Note_on_c, 65
7, 38339, Note_off_c, 65
7, 38340, Note_on_c, 62
7, 38369, Note_off_c, 62
7, 38370, Note_on_c, 57
7, 38399, Note_off_c, 57
7, 38520, Note_on_c, 62
7, 38549, Note_off_c, 62
7, 38550, Note_on_c, 65
7, 38579, Note_off_c, 65
7, 38580, Note_on_c, 62
7, 38609, Note_off_c, 62
7, 38610, Note_on_c, 57
7, 38639, Note_off_c, 57
7, 38760, Note_on_c, 61
7, 38789, Note_off_c, 61
7, 38790, Note_on_c, 64
7, 38819, Note_off_c, 64
7, 38820, Note_on_c, 61
7, 38849, Note_off_c, 61
7, 38850, Note_on_c, 58
7, 38879, Note_off_c, 58
7, 39000, Note_on_c, 61
7, 39029, Note_off_c, 61
7, 39030, Note_on_c, 64
7, 39059, Note_off_c, 64
7, 39060, Note_on_c, 61
7, 39089, Note_off_c, 61
7, 39090, Note_on_c, 58
7, 39119, Note_off_c, 58
7, 39240, Note_on_c, 62
7, 39269, Note_off_c, 62
7, 39270, Note_on_c, 65
7, 39299, Note_off_c, 65
7, 39300, Note_on_c, 62
7, 39329, Note_off_c, 62
7, 39390, Note_on_c, 62
7, 39419, Note_off_c, 62
7, 39420, Note_on_c, 58
7, 39449, Note_off_c, 58
7, 39510, Note_on_c, 57
7, 39539, Note_off_c, 57
7, 39540, Note_on_c, 53
7, 39569, Note_off_c, 53
7, 39630, Note_on_c, 50
7, 39659, Note_off_c, 50
7, 39660, Note_on_c, 45
7, 39689, Note_off_c, 45
7, 39750, Note_on_c, 50
7, 39779, Note_off_c, 50
7, 39780, Note_on_c, 49
7, 39809, Note_off_c, 49
7, 39810, Note_on_c, 47
7, 39839, Note_off_c, 47
7, 39870, Note_on_c, 58
7, 39899, Note_off_c, 58
7, 39900, Note_on_c, 57
7, 39929, Note_off_c, 57
7, 39930, Note_on_c, 55
7, 39959, Note_off_c, 55
7, 39990, Note_on_c, 55
7, 40019, Note_off_c, 55
7, 40020, Note_on_c, 53
7, 40049, Note_off_c, 53
7, 40050, Note_on_c, 52
7, 40079, Note_off_c, 52
7, 40110, Note_on_c, 58
7, 40139, Note_off_c, 58
7, 40140, Note_on_c, 57
7, 40169, Note_off_c, 57
7, 40170, Note_on_c, 55
7, 40199, Note_off_c, 55
7, 40230, Note_on_c, 55
7, 40259, Note_off_c, 55
7, 40260, Note_on_c, 53
7, 40289, Note_off_c, 53
7, 40290, Note_on_c, 52
7, 40319, Note_off_c, 52
7, 40470, Note_on_c, 65
7, 40499, Note_off_c, 65
7, 40500, Note_on_c, 64
7, 40529, Note_off_c, 64
7, 40530, Note_on_c, 62
7, 40559, Note_off_c, 62
7, 40560, Note_on_c, 69
7, 40589, Note_off_c, 69
7, 40710, Note_on_c, 76
7, 40739, Note_off_c, 76
7, 40740, Note_on_c, 74
7, 40769, Note_off_c, 74
7, 40770, Note_on_c, 73
7, 40799, Note_off_c, 73
7, 40800, Note_on_c, 74
7, 40829, Note_off_c, 74
7, 40830, Note_on_c, 75
7, 40844, Note_off_c, 75
7, 40845, Note_on_c, 74
7, 40859, Note_off_c, 74
7, 40860, Note_on_c, 72
7, 40874, Note_off_c, 72
7, 40875, Note_on_c, 70
7, 40889, Note_off_c, 70
7, 40890, Note_on_c, 69
7, 40904, Note_off_c, 69
7, 40905, Note_on_c, 67
7, 40919, Note_off_c, 67
7, 40920, Note_on_c, 66
7, 40979, Note_off_c, 66
7, 40980, Note_on_c, 69
7, 41099, Note_off_c, 69
7, 41100, Note_on_c, 67
7, 41159, Note_off_c, 67
7, 41160, Note_on_c, 72
7, 41219, Note_off_c, 72
7, 41220, Note_on_c, 71
7, 41279, Note_off_c, 71
7, 41280, Note_on_c, 75
7, 41339, Note_off_c, 75
7, 41340, Note_on_c, 74
7, 41399, Note_off_c, 74
7, 41400, Note_on_c, 75
7, 41459, Note_off_c, 75
7, 41460, Note_on_c, 71
7, 41519, Note_off_c, 71
7, 41520, Note_on_c, 72
7, 41579, Note_off_c, 72
7, 41580, Note_on_c, 71
7, 41639, Note_off_c, 71
7, 41640, Note_on_c, 72
7, 41699, Note_off_c, 72
7, 41700, Note_on_c, 74
7, 41759, Note_off_c, 74
7, 41760, Note_on_c, 75
7, 41819, Note_off_c, 75
7, 41820, Note_on_c, 74
7, 41879, Note_off_c, 74
7, 41880, Note_on_c, 75
7, 41939, Note_off_c, 75
7, 41940, Note_on_c, 77
7, 41999, Note_off_c, 77
7, 42000, Note_on_c, 79
7, 42014, Note_off_c, 79
7, 42015, Note_on_c, 81
7, 42029, Note_off_c, 81
7, 42030, Note_on_c, 79
7, 42044, Note_off_c, 79
7, 42045, Note_on_c, 81
7, 42059, Note_off_c, 81
7, 42060, Note_on_c, 79
7, 42074, Note_off_c, 79
7, 42075, Note_on_c, 81
7, 42089, Note_off_c, 81
7, 42090, Note_on_c, 79
7, 42104, Note_off_c, 79
7, 42105, Note_on_c, 81
7, 42119, Note_off_c, 81
7, 42120, Note_on_c, 79
7, 42134, Note_off_c, 79
7, 42135, Note_on_c, 81
7, 42149, Note_off_c, 81
7, 42150, Note_on_c, 79
7, 42164, Note_off_c, 79
7, 42165, Note_on_c, 81
7, 42179, Note_off_c, 81
7, 42180, Note_on_c, 79
7, 42194, Note_off_c, 79
7, 42195, Note_on_c, 81
7, 42209, Note_off_c, 81
7, 42210, Note_on_c, 79
7, 42224, Note_off_c, 79
7, 42225, Note_on_c, 81
7, 42239, Note_off_c, 81
7, 42240, Note_on_c, 79
7, 42254, Note_off_c, 79
7, 42255, Note_on_c, 81
7, 42269, Note_off_c, 81
7, 42270, Note_on_c, 79
7, 42284, Note_off_c, 79
7, 42285, Note_on_c, 81
7, 42299, Note_off_c, 81
7, 42300, Note_on_c, 79
7, 42314, Note_off_c, 79
7, 42315, Note_on_c, 81
7, 42329, Note_off_c, 81
7, 42330, Note_on_c, 79
7, 42344, Note_off_c, 79
7, 42345, Note_on_c, 81
7, 42359, Note_off_c, 81
7, 42360, Note_on_c, 79
7, 42374, Note_off_c, 79
7, 42375, Note_on_c, 81
7, 42389, Note_off_c, 81
7, 42390, Note_on_c, 79
7, 42404, Note_off_c, 79
7, 42405, Note_on_c, 81
7, 42419, Note_off_c, 81
7, 42420, Note_on_c, 79
7, 42434, Note_off_c, 79
7, 42435, Note_on_c, 81
7, 42449, Note_off_c, 81
7, 42450, Note_on_c, 79
7, 42464, Note_off_c, 79
7, 42465, Note_on_c, 81
7, 42479, Note_off_c, 81
7, 42480, Note_on_c, 79
7, 42494, Note_off_c, 79
7, 42495, Note_on_c, 81
7, 42509, Note_off_c, 81
7, 42510, Note_on_c, 79
7, 42524, Note_off_c, 79
7, 42525, Note_on_c, 81
7, 42539, Note_off_c, 81
7, 42540, Note_on_c, 79
7, 42554, Note_off_c, 79
7, 42555, Note_on_c, 81
7, 42569, Note_off_c, 81
7, 42570, Note_on_c, 79
7, 42584, Note_off_c, 79
7, 42585, Note_on_c, 81
7, 42599, Note_off_c, 81
7, 42600, Note_on_c, 79
7, 42614, Note_off_c, 79
7, 42615, Note_on_c, 81
7, 42629, Note_off_c, 81
7, 42630, Note_on_c, 79
7, 42644, Note_off_c, 79
7, 42645, Note_on_c, 81
7, 42659, Note_off_c, 81
7, 42660, Note_on_c, 79
7, 42674, Note_off_c, 79
7, 42675, Note_on_c, 81
7, 42689, Note_off_c, 81
7, 42690, Note_on_c, 79
7, 42704, Note_off_c, 79
7, 42705, Note_on_c, 81
7, 42719, Note_off_c, 81
7, 42720, Note_on_c, 79
7, 42734, Note_off_c, 79
7, 42735, Note_on_c, 81
7, 42749, Note_off_c, 81
7, 42750, Note_on_c, 79
7, 42764, Note_off_c, 79
7, 42765, Note_on_c, 81
7, 42779, Note_off_c, 81
7, 42780, Note_on_c, 79
7, 42794, Note_off_c, 79
7, 42795, Note_on_c, 81
7, 42809, Note_off_c, 81
7, 42810, Note_on_c, 79
7, 42824, Note_off_c, 79
7, 42825, Note_on_c, 81
7, 42839, Note_off_c, 81
7, 42840, Note_on_c, 79
7, 42854, Note_off_c, 79
7, 42855, Note_on_c, 81
7, 42869, Note_off_c, 81
7, 42870, Note_on_c, 79
7, 42884, Note_off_c, 79
7, 42885, Note_on_c, 81
7, 42899, Note_off_c, 81
7, 42900, Note_on_c, 79
7, 42914, Note_off_c, 79
7, 42915, Note_on_c, 81
7, 42929, Note_off_c, 81
7, 42930, Note_on_c, 79
7, 42944, Note_off_c, 79
7, 42945, Note_on_c, 81
7, 42959, Note_off_c, 81
7, 42960, Note_on_c, 79
7, 42989, Note_off_c, 79
7, 42990, Note_on_c, 79
7, 43019, Note_off_c, 79
7, 43020, Note_on_c, 77
7, 43049, Note_off_c, 77
7, 43050, Note_on_c, 79
7, 43079, Note_off_c, 79
7, 43080, Note_on_c, 75
7, 43109, Note_off_c, 75
7, 43110, Note_on_c, 77
7, 43139, Note_off_c, 77
7, 43140, Note_on_c, 74
7, 43169, Note_off_c, 74
7, 43170, Note_on_c, 75
7, 43199, Note_off_c, 75
7, 43200, Note_on_c, 72
7, 43229, Note_off_c, 72
7, 43230, Note_on_c, 77
7, 43259, Note_off_c, 77
7, 43260, Note_on_c, 75
7, 43289, Note_off_c, 75
7, 43290, Note_on_c, 77
7, 43319, Note_off_c, 77
7, 43320, Note_on_c, 74
7, 43349, Note_off_c, 74
7, 43350, Note_on_c, 75
7, 43379, Note_off_c, 75
7, 43380, Note_on_c, 72
7, 43409, Note_off_c, 72
7, 43410, Note_on_c, 74
7, 43439, Note_off_c, 74
7, 43440, Note_on_c, 70
7, 43469, Note_off_c, 70
7, 43470, Note_on_c, 75
7, 43499, Note_off_c, 75
7, 43500, Note_on_c, 74
7, 43529, Note_off_c, 74
7, 43530, Note_on_c, 75
7, 43559, Note_off_c, 75
7, 43560, Note_on_c, 72
7, 43589, Note_off_c, 72
7, 43590, Note_on_c, 74
7, 43619, Note_off_c, 74
7, 43620, Note_on_c, 70
7, 43649, Note_off_c, 70
7, 43650, Note_on_c, 72
7, 43679, Note_off_c, 72
7, 43680, Note_on_c, 69
7, 43709, Note_off_c, 69
7, 43710, Note_on_c, 74
7, 43739, Note_off_c, 74
7, 43740, Note_on_c, 72
7, 43769, Note_off_c, 72
7, 43770, Note_on_c, 74
7, 43799, Note_off_c, 74
7, 43800, Note_on_c, 70
7, 43829, Note_off_c, 70
7, 43830, Note_on_c, 72
7, 43859, Note_off_c, 72
7, 43860, Note_on_c, 69
7, 43889, Note_off_c, 69
7, 43890, Note_on_c, 70
7, 43919, Note_off_c, 70
7, 43920, Note_on_c, 67
7, 43949, Note_off_c, 67
7, 43950, Note_on_c, 70
7, 43979, Note_off_c, 70
7, 43980, Note_on_c, 69
7, 44009, Note_off_c, 69
7, 44010, Note_on_c, 70
7, 44039, Note_off_c, 70
7, 44040, Note_on_c, 72
7, 44069, Note_off_c, 72
7, 44070, Note_on_c, 70
7, 44099, Note_off_c, 70
7, 44100, Note_on_c, 69
7, 44129, Note_off_c, 69
7, 44130, Note_on_c, 67
7, 44159, Note_off_c, 67
7, 44160, Note_on_c, 66
7, 44219, Note_off_c, 66
7, 44220, Note_on_c, 69
7, 44279, Note_off_c, 69
7, 44280, Note_on_c, 74
7, 44309, Note_off_c, 74
7, 44310, Note_on_c, 67
7, 44339, Note_off_c, 67
7, 44340, Note_on_c, 72
7, 44369, Note_off_c, 72
7, 44370, Note_on_c, 66
7, 44399, Note_off_c, 66
7, 44400, Note_on_c, 70
7, 44429, Note_off_c, 70
7, 44430, Note_on_c, 67
7, 44459, Note_off_c, 67
7, 44460, Note_on_c, 74
7, 44489, Note_off_c, 74
7, 44490, Note_on_c, 69
7, 44519, Note_off_c, 69
7, 44520, Note_on_c, 70
7, 44549, Note_off_c, 70
7, 44550, Note_on_c, 67
7, 44579, Note_off_c, 67
7, 44580, Note_on_c, 69
7, 44609, Note_off_c, 69
7, 44610, Note_on_c, 66
7, 44639, Note_off_c, 66
7, 44640, Note_on_c, 67
7, 44669, Note_off_c, 67
7, 44670, Note_on_c, 74
7, 44699, Note_off_c, 74
7, 44700, Note_on_c, 66
7, 44729, Note_off_c, 66
7, 44730, Note_on_c, 74
7, 44759, Note_off_c, 74
7, 44760, Note_on_c, 67
7, 44789, Note_off_c, 67
7, 44790, Note_on_c, 74
7, 44819, Note_off_c, 74
7, 44820, Note_on_c, 69
7, 44849, Note_off_c, 69
7, 44850, Note_on_c, 74
7, 44879, Note_off_c, 74
7, 44880, Note_on_c, 70
7, 44909, Note_off_c, 70
7, 44910, Note_on_c, 67
7, 44939, Note_off_c, 67
7, 44940, Note_on_c, 74
7, 44969, Note_off_c, 74
7, 44970, Note_on_c, 69
7, 44999, Note_off_c, 69
7, 45000, Note_on_c, 70
7, 45029, Note_off_c, 70
7, 45030, Note_on_c, 67
7, 45059, Note_off_c, 67
7, 45060, Note_on_c, 72
7, 45089, Note_off_c, 72
7, 45090, Note_on_c, 69
7, 45119, Note_off_c, 69
7, 45120, Note_on_c, 74
7, 45149, Note_off_c, 74
7, 45150, Note_on_c, 72
7, 45179, Note_off_c, 72
7, 45180, Note_on_c, 70
7, 45209, Note_off_c, 70
7, 45210, Note_on_c, 69
7, 45239, Note_off_c, 69
7, 45240, Note_on_c, 70
7, 45269, Note_off_c, 70
7, 45270, Note_on_c, 69
7, 45299, Note_off_c, 69
7, 45300, Note_on_c, 70
7, 45329, Note_off_c, 70
7, 45330, Note_on_c, 67
7, 45359, Note_off_c, 67
7, 45360, Note_on_c, 69
7, 45389, Note_off_c, 69
7, 45390, Note_on_c, 70
7, 45419, Note_off_c, 70
7, 45420, Note_on_c, 72
7, 45449, Note_off_c, 72
7, 45450, Note_on_c, 74
7, 45479, Note_off_c, 74
7, 45480, Note_on_c, 75
7, 45509, Note_off_c, 75
7, 45510, Note_on_c, 74
7, 45539, Note_off_c, 74
7, 45540, Note_on_c, 72
7, 45569, Note_off_c, 72
7, 45570, Note_on_c, 74
7, 45599, Note_off_c, 74
7, 45600, Note_on_c, 70
7, 45629, Note_off_c, 70
7, 45630, Note_on_c, 72
7, 45659, Note_off_c, 72
7, 45660, Note_on_c, 69
7, 45689, Note_off_c, 69
7, 45690, Note_on_c, 70
7, 45719, Note_off_c, 70
7, 45720, Note_on_c, 67
7, 45779, Note_off_c, 67
7, 45780, Note_on_c, 71
7, 45839, Note_off_c, 71
7, 45840, Note_on_c, 72
7, 45869, Note_off_c, 72
7, 45870, Note_on_c, 75
7, 45899, Note_off_c, 75
7, 45900, Note_on_c, 77
7, 45929, Note_off_c, 77
7, 45930, Note_on_c, 79
7, 45959, Note_off_c, 79
7, 45960, Note_on_c, 80
7, 45989, Note_off_c, 80
7, 45990, Note_on_c, 79
7, 46019, Note_off_c, 79
7, 46020, Note_on_c, 77
7, 46049, Note_off_c, 77
7, 46050, Note_on_c, 79
7, 46079, Note_off_c, 79
7, 46080, Note_on_c, 75
7, 46109, Note_off_c, 75
7, 46110, Note_on_c, 77
7, 46139, Note_off_c, 77
7, 46140, Note_on_c, 74
7, 46169, Note_off_c, 74
7, 46170, Note_on_c, 75
7, 46199, Note_off_c, 75
7, 46200, Note_on_c, 72
7, 46259, Note_off_c, 72
7, 46260, Note_on_c, 70
7, 46319, Note_off_c, 70
7, 46320, Note_on_c, 69
7, 46379, Note_off_c, 69
7, 46380, Note_on_c, 70
7, 46499, Note_off_c, 70
7, 46500, Note_on_c, 69
7, 46619, Note_off_c, 69
7, 46620, Note_on_c, 67
7, 46739, Note_off_c, 67
7, 46740, Note_on_c, 66
7, 46799, Note_off_c, 66
7, 46800, Note_on_c, 65
7, 46859, Note_off_c, 65
7, 46860, Note_on_c, 63
7, 46979, Note_off_c, 63
7, 46980, Note_on_c, 62
7, 47009, Note_off_c, 62
7, 47010, Note_on_c, 70
7, 47039, Note_off_c, 70
7, 47040, Note_on_c, 69
7, 47069, Note_off_c, 69
7, 47070, Note_on_c, 70
7, 47099, Note_off_c, 70
7, 47100, Note_on_c, 69
7, 47129, Note_off_c, 69
7, 47130, Note_on_c, 67
7, 47159, Note_off_c, 67
7, 47160, Note_on_c, 66
7, 47189, Note_off_c, 66
7, 47190, Note_on_c, 75
7, 47219, Note_off_c, 75
7, 47220, Note_on_c, 74
7, 47249, Note_off_c, 74
7, 47250, Note_on_c, 72
7, 47279, Note_off_c, 72
7, 47280, Note_on_c, 70
7, 47309, Note_off_c, 70
7, 47310, Note_on_c, 81
7, 47339, Note_off_c, 81
7, 47340, Note_on_c, 79
7, 47369, Note_off_c, 79
7, 47370, Note_on_c, 78
7, 47399, Note_off_c, 78
7, 47400, Note_on_c, 79
7, 47489, Note_off_c, 79
7, 47490, Note_on_c, 77
7, 47519, Note_off_c, 77
7, 47520, Note_on_c, 75
7, 47549, Note_off_c, 75
7, 47550, Note_on_c, 77
7, 47579, Note_off_c, 77
7, 47580, Note_on_c, 74
7, 47609, Note_off_c, 74
7, 47610, Note_on_c, 75
7, 47639, Note_off_c, 75
7, 47640, Note_on_c, 73
7, 47759, Note_off_c, 73
7, 47760, Note_on_c, 69
7, 47760, Note_on_c, 74
7, 47879, Note_off_c, 74
7, 47879, Note_off_c, 69
7, 47880, Note_on_c, 66
7, 47880, Note_on_c, 72
7, 47999, Note_off_c, 72
7, 47999, Note_off_c, 66
7, 48000, Note_on_c, 70
7, 48119, Note_off_c, 70
7, 48120, Note_on_c, 61
7, 48120, Note_on_c, 69
7, 48179, Note_off_c, 69
7, 48179, Note_off_c, 61
7, 48180, Note_on_c, 64
7, 48180, Note_on_c, 73
7, 48239, Note_off_c, 73
7, 48239, Note_off_c, 64
7, 48240, Note_on_c, 65
7, 48240, Note_on_c, 74
7, 48299, Note_off_c, 74
7, 48299, Note_off_c, 65
7, 48300, Note_on_c, 67
7, 48300, Note_on_c, 76
7, 48359, Note_off_c, 76
7, 48359, Note_off_c, 67
7, 48360, Note_on_c, 77
7, 48420, Note_on_c, 74
7, 48479, Note_off_c, 77
7, 48480, Note_on_c, 76
7, 48599, Note_off_c, 74
7, 48600, Note_on_c, 73
7, 48719, Note_off_c, 73
7, 48719, Note_off_c, 76
7, 48720, Note_on_c, 74
7, 48899, Note_off_c, 74
7, 48900, Note_on_c, 77
7, 48959, Note_off_c, 77
7, 48960, Note_on_c, 79
7, 49019, Note_off_c, 79
7, 49020, Note_on_c, 74
7, 49079, Note_off_c, 74
7, 49080, Note_on_c, 73
7, 49139, Note_off_c, 73
7, 49140, Note_on_c, 74
7, 49199, Note_off_c, 74
7, 49200, Note_on_c, 76
7, 49259, Note_off_c, 76
7, 49260, Note_on_c, 74
7, 49319, Note_off_c, 74
7, 49320, Note_on_c, 73
7, 49379, Note_off_c, 73
7, 49380, Note_on_c, 74
7, 49439, Note_off_c, 74
7, 49440, Note_on_c, 76
7, 49499, Note_off_c, 76
7, 49500, Note_on_c, 74
7, 49559, Note_off_c, 74
7, 49560, Note_on_c, 73
7, 49619, Note_off_c, 73
7, 49620, Note_on_c, 74
7, 49679, Note_off_c, 74
7, 49680, Note_on_c, 76
7, 49739, Note_off_c, 76
7, 49740, Note_on_c, 79
7, 49799, Note_off_c, 79
7, 49800, Note_on_c, 77
7, 49859, Note_off_c, 77
7, 49860, Note_on_c, 74
7, 49919, Note_off_c, 74
7, 49920, Note_on_c, 70
7, 49979, Note_off_c, 70
7, 49980, Note_on_c, 76
7, 50039, Note_off_c, 76
7, 50040, Note_on_c, 74
7, 50099, Note_off_c, 74
7, 50100, Note_on_c, 74
7, 50159, Note_off_c, 74
7, 50160, Note_on_c, 73
7, 50279, Note_off_c, 73
7, 50280, Note_on_c, 74
7, 50339, Note_off_c, 74
7, 50340, Note_on_c, 76
7, 50399, Note_off_c, 76
7, 50400, Note_on_c, 77
7, 50459, Note_off_c, 77
7, 50460, Note_on_c, 76
7, 50519, Note_off_c, 76
7, 50520, Note_on_c, 77
7, 50579, Note_off_c, 77
7, 50580, Note_on_c, 73
7, 50639, Note_off_c, 73
7, 50640, Note_on_c, 74
7, 50699, Note_off_c, 74
7, 50700, Note_on_c, 73
7, 50759, Note_off_c, 73
7, 50760, Note_on_c, 74
7, 50819, Note_off_c, 74
7, 50820, Note_on_c, 76
7, 50879, Note_off_c, 76
7, 50880, Note_on_c, 77
7, 50939, Note_off_c, 77
7, 50940, Note_on_c, 76
7, 50999, Note_off_c, 76
7, 51000, Note_on_c, 77
7, 51059, Note_off_c, 77
7, 51060, Note_on_c, 79
7, 51119, Note_off_c, 79
7, 51120, Note_on_c, 81
7, 51149, Note_off_c, 81
7, 51150, Note_on_c, 82
7, 51179, Note_off_c, 82
7, 51180, Note_on_c, 79
7, 51209, Note_off_c, 79
7, 51210, Note_on_c, 81
7, 51239, Note_off_c, 81
7, 51240, Note_on_c, 77
7, 51269, Note_off_c, 77
7, 51270, Note_on_c, 79
7, 51299, Note_off_c, 79
7, 51300, Note_on_c, 76
7, 51329, Note_off_c, 76
7, 51330, Note_on_c, 77
7, 51359, Note_off_c, 77
7, 51360, Note_on_c, 74
7, 51389, Note_off_c, 74
7, 51390, Note_on_c, 69
7, 51419, Note_off_c, 69
7, 51420, Note_on_c, 73
7, 51449, Note_off_c, 73
7, 51450, Note_on_c, 69
7, 51479, Note_off_c, 69
7, 51480, Note_on_c, 74
7, 51509, Note_off_c, 74
7, 51510, Note_on_c, 69
7, 51539, Note_off_c, 69
7, 51540, Note_on_c, 76
7, 51569, Note_off_c, 76
7, 51570, Note_on_c, 69
7, 51599, Note_off_c, 69
7, 51600, Note_on_c, 77
7, 51629, Note_off_c, 77
7, 51630, Note_on_c, 69
7, 51659, Note_off_c, 69
7, 51660, Note_on_c, 76
7, 51689, Note_off_c, 76
7, 51690, Note_on_c, 69
7, 51719, Note_off_c, 69
7, 51720, Note_on_c, 77
7, 51749, Note_off_c, 77
7, 51750, Note_on_c, 69
7, 51779, Note_off_c, 69
7, 51780, Note_on_c, 79
7, 51809, Note_off_c, 79
7, 51810, Note_on_c, 69
7, 51839, Note_off_c, 69
7, 51840, Note_on_c, 81
7, 51869, Note_off_c, 81
7, 51870, Note_on_c, 69
7, 51899, Note_off_c, 69
7, 51900, Note_on_c, 76
7, 51929, Note_off_c, 76
7, 51930, Note_on_c, 69
7, 51959, Note_off_c, 69
7, 51960, Note_on_c, 77
7, 51989, Note_off_c, 77
7, 51990, Note_on_c, 69
7, 52019, Note_off_c, 69
7, 52020, Note_on_c, 79
7, 52049, Note_off_c, 79
7, 52050, Note_on_c, 69
7, 52079, Note_off_c, 69
7, 52080, Note_on_c, 81
7, 52199, Note_off_c, 81
7, 53070, Note_on_c, 76
7, 53099, Note_off_c, 76
7, 53100, Note_on_c, 74
7, 53129, Note_off_c, 74
7, 53130, Note_on_c, 73
7, 53159, Note_off_c, 73
7, 53160, Note_on_c, 74
7, 53219, Note_off_c, 74
7, 53250, Note_on_c, 77
7, 53279, Note_off_c, 77
7, 53280, Note_on_c, 76
7, 53309, Note_off_c, 76
7, 53310, Note_on_c, 77
7, 53339, Note_off_c, 77
7, 53340, Note_on_c, 79
7, 53369, Note_off_c, 79
7, 53370, Note_on_c, 81
7, 53399, Note_off_c, 81
7, 53400, Note_on_c, 82
7, 53429, Note_off_c, 82
7, 53430, Note_on_c, 81
7, 53459, Note_off_c, 81
7, 53460, Note_on_c, 79
7, 53489, Note_off_c, 79
7, 53490, Note_on_c, 81
7, 53519, Note_off_c, 81
7, 53520, Note_on_c, 77
7, 53579, Note_off_c, 77
7, 53580, Note_on_c, 76
7, 53639, Note_off_c, 76
7, 53640, Note_on_c, 74
7, 53669, Note_off_c, 74
7, 53670, Note_on_c, 76
7, 53699, Note_off_c, 76
7, 53700, Note_on_c, 77
7, 53729, Note_off_c, 77
7, 53730, Note_on_c, 75
7, 53759, Note_off_c, 75
7, 53760, Note_on_c, 74
7, 53789, Note_off_c, 74
7, 53790, Note_on_c, 72
7, 53819, Note_off_c, 72
7, 53820, Note_on_c, 70
7, 53849, Note_off_c, 70
7, 53850, Note_on_c, 69
7, 53879, Note_off_c, 69
7, 53880, Note_on_c, 67
7, 53909, Note_off_c, 67
7, 53910, Note_on_c, 69
7, 53939, Note_off_c, 69
7, 53940, Note_on_c, 70
7, 53969, Note_off_c, 70
7, 53970, Note_on_c, 72
7, 53999, Note_off_c, 72
7, 54000, Note_on_c, 69
7, 54119, Note_off_c, 69
7, 54180, Note_on_c, 72
7, 54299, Note_off_c, 72
7, 54300, Note_on_c, 70
7, 54359, Note_off_c, 70
7, 54420, Note_on_c, 79
7, 54479, Note_off_c, 79
7, 54480, Note_on_c, 75
7, 54509, Note_off_c, 75
7, 54510, Note_on_c, 77
7, 54539, Note_off_c, 77
7, 54540, Note_on_c, 74
7, 54569, Note_off_c, 74
7, 54570, Note_on_c, 75
7, 54599, Note_off_c, 75
7, 54600, Note_on_c, 72
7, 54629, Note_off_c, 72
7, 54630, Note_on_c, 70
7, 54659, Note_off_c, 70
7, 54660, Note_on_c, 69
7, 54689, Note_off_c, 69
7, 54690, Note_on_c, 67
7, 54719, Note_off_c, 67
7, 54720, Note_on_c, 69
7, 54839, Note_off_c, 69
7, 54840, Note_on_c, 57
7, 54869, Note_off_c, 57
7, 54870, Note_on_c, 62
7, 54899, Note_off_c, 62
7, 54900, Note_on_c, 57
7, 54929, Note_off_c, 57
7, 54930, Note_on_c, 55
7, 54959, Note_off_c, 55
7, 55080, Note_on_c, 57
7, 55109, Note_off_c, 57
7, 55110, Note_on_c, 62
7, 55139, Note_off_c, 62
7, 55140, Note_on_c, 57
7, 55169, Note_off_c, 57
7, 55170, Note_on_c, 54
7, 55199, Note_off_c, 54
7, 55320, Note_on_c, 58
7, 55349, Note_off_c, 58
7, 55350, Note_on_c, 62
7, 55379, Note_off_c, 62
7, 55380, Note_on_c, 58
7, 55409, Note_off_c, 58
7, 55410, Note_on_c, 57
7, 55439, Note_off_c, 57
7, 55560, Note_on_c, 58
7, 55589, Note_off_c, 58
7, 55590, Note_on_c, 62
7, 55619, Note_off_c, 62
7, 55620, Note_on_c, 60
7, 55649, Note_off_c, 60
7, 55650, Note_on_c, 58
7, 55679, Note_off_c, 58
7, 55800, Note_on_c, 60
7, 55829, Note_off_c, 60
7, 55830, Note_on_c, 63
7, 55859, Note_off_c, 63
7, 55860, Note_on_c, 60
7, 55889, Note_off_c, 60
7, 55890, Note_on_c, 58
7, 55919, Note_off_c, 58
7, 56040, Note_on_c, 60
7, 56069, Note_off_c, 60
7, 56070, Note_on_c, 63
7, 56099, Note_off_c, 63
7, 56100, Note_on_c, 60
7, 56129, Note_off_c, 60
7, 56130, Note_on_c, 58
7, 56159, Note_off_c, 58
7, 56280, Note_on_c, 67
7, 56309, Note_off_c, 67
7, 56310, Note_on_c, 70
7, 56339, Note_off_c, 70
7, 56340, Note_on_c, 67
7, 56369, Note_off_c, 67
7, 56370, Note_on_c, 62
7, 56399, Note_off_c, 62
7, 56520, Note_on_c, 67
7, 56549, Note_off_c, 67
7, 56550, Note_on_c, 70
7, 56579, Note_off_c, 70
7, 56580, Note_on_c, 67
7, 56609, Note_off_c, 67
7, 56610, Note_on_c, 62
7, 56639, Note_off_c, 62
7, 56760, Note_on_c, 66
7, 56789, Note_off_c, 66
7, 56790, Note_on_c, 69
7, 56819, Note_off_c, 69
7, 56820, Note_on_c, 66
7, 56849, Note_off_c, 66
7, 56850, Note_on_c, 63
7, 56879, Note_off_c, 63
7, 57000, Note_on_c, 66
7, 57029, Note_off_c, 66
7, 57030, Note_on_c, 69
7, 57059, Note_off_c, 69
7, 57060, Note_on_c, 66
7, 57089, Note_off_c, 66
7, 57090, Note_on_c, 63
7, 57119, Note_off_c, 63
7, 57120, Note_on_c, 62
7, 57179, Note_off_c, 62
7, 57240, Note_on_c, 67
7, 57240, Note_on_c, 74
7, 57299, Note_off_c, 74
7, 57299, Note_off_c, 67
7, 57300, Note_on_c, 66
7, 57300, Note_on_c, 72
7, 57359, Note_off_c, 72
7, 57359, Note_off_c, 66
7, 57360, Note_on_c, 70
7, 57360, Note_on_c, 67
7, 57479, Note_off_c, 67
7, 57479, Note_off_c, 70
7, 57480, Note_on_c, 67
7, 57480, Note_on_c, 72
7, 57539, Note_off_c, 72
7, 57539, Note_off_c, 67
7, 57540, Note_on_c, 74
7, 57540, Note_on_c, 71
7, 57599, Note_off_c, 71
7, 57599, Note_off_c, 74
7, 57600, Note_on_c, 75
7, 57600, Note_on_c, 72
7, 57719, Note_off_c, 72
7, 57719, Note_off_c, 75
7, 57720, Note_on_c, 72
7, 57720, Note_on_c, 77
7, 57779, Note_off_c, 77
7, 57779, Note_off_c, 72
7, 57780, Note_on_c, 76
7, 57780, Note_on_c, 79
7, 57839, Note_off_c, 79
7, 57839, Note_off_c, 76
7, 57840, Note_on_c, 77
7, 57840, Note_on_c, 81
7, 57959, Note_off_c, 81
7, 57959, Note_off_c, 77
7, 57960, Note_on_c, 70
7, 57960, Note_on_c, 77
7, 58019, Note_off_c, 77
7, 58019, Note_off_c, 70
7, 58020, Note_on_c, 75
7, 58020, Note_on_c, 69
7, 58079, Note_off_c, 69
7, 58079, Note_off_c, 75
7, 58080, Note_on_c, 70
7, 58080, Note_on_c, 74
7, 58109, Note_off_c, 74
7, 58109, Note_off_c, 70
7, 58110, Note_on_c, 75
7, 58139, Note_off_c, 75
7, 58140, Note_on_c, 74
7, 58169, Note_off_c, 74
7, 58170, Note_on_c, 72
7, 58199, Note_off_c, 72
7, 58200, Note_on_c, 70
7, 58229, Note_off_c, 70
7, 58230, Note_on_c, 72
7, 58259, Note_off_c, 72
7, 58260, Note_on_c, 70
7, 58289, Note_off_c, 70
7, 58290, Note_on_c, 69
7, 58319, Note_off_c, 69
7, 58320, Note_on_c, 67
7, 58349, Note_off_c, 67
7, 58350, Note_on_c, 72
7, 58379, Note_off_c, 72
7, 58380, Note_on_c, 70
7, 58409, Note_off_c, 70
7, 58410, Note_on_c, 69
7, 58439, Note_off_c, 69
7, 58440, Note_on_c, 67
7, 58469, Note_off_c, 67
7, 58470, Note_on_c, 69
7, 58499, Note_off_c, 69
7, 58500, Note_on_c, 67
7, 58529, Note_off_c, 67
7, 58530, Note_on_c, 66
7, 58559, Note_off_c, 66
7, 58560, Note_on_c, 67
7, 58589, Note_off_c, 67
7, 58590, Note_on_c, 65
7, 58619, Note_off_c, 65
7, 58620, Note_on_c, 64
7, 58649, Note_off_c, 64
7, 58650, Note_on_c, 62
7, 58679, Note_off_c, 62
7, 58680, Note_on_c, 61
7, 58739, Note_off_c, 61
7, 58740, Note_on_c, 64
7, 58799, Note_off_c, 64
7, 58800, Note_on_c, 65
7, 58829, Note_off_c, 65
7, 58830, Note_on_c, 67
7, 58859, Note_off_c, 67
7, 58860, Note_on_c, 69
7, 58889, Note_off_c, 69
7, 58890, Note_on_c, 71
7, 58919, Note_off_c, 71
7, 58920, Note_on_c, 73
7, 58949, Note_off_c, 73
7, 58950, Note_on_c, 74
7, 58979, Note_off_c, 74
7, 58980, Note_on_c, 76
7, 59009, Note_off_c, 76
7, 59010, Note_on_c, 77
7, 59039, Note_off_c, 77
7, 59040, Note_on_c, 79
7, 59099, Note_off_c, 79
7, 59100, Note_on_c, 77
7, 59129, Note_off_c, 77
7, 59130, Note_on_c, 76
7, 59159, Note_off_c, 76
7, 59160, Note_on_c, 74
7, 59219, Note_off_c, 74
7, 59220, Note_on_c, 73
7, 59279, Note_off_c, 73
7, 59280, Note_on_c, 74
7, 59339, Note_off_c, 74
7, 59340, Note_on_c, 76
7, 59399, Note_off_c, 76
7, 59400, Note_on_c, 77
7, 59459, Note_off_c, 77
7, 59460, Note_on_c, 79
7, 59519, Note_off_c, 79
7, 59520, Note_on_c, 81
7, 59579, Note_off_c, 81
7, 59580, Note_on_c, 73
7, 59639, Note_off_c, 73
7, 59640, Note_on_c, 74
7, 59699, Note_off_c, 74
7, 59700, Note_on_c, 76
7, 59759, Note_off_c, 76
7, 59760, Note_on_c, 77
7, 59819, Note_off_c, 77
7, 59820, Note_on_c, 76
7, 59879, Note_off_c, 76
7, 59880, Note_on_c, 77
7, 59939, Note_off_c, 77
7, 59940, Note_on_c, 74
7, 59999, Note_off_c, 74
7, 60000, Note_on_c, 76
7, 60059, Note_off_c, 76
7, 60060, Note_on_c, 74
7, 60060, Note_on_c, 69
7, 60119, Note_off_c, 69
7, 60119, Note_off_c, 74
7, 60120, Note_on_c, 70
7, 60120, Note_on_c, 74
7, 60179, Note_off_c, 74
7, 60179, Note_off_c, 70
7, 60180, Note_on_c, 73
7, 60180, Note_on_c, 69
7, 60239, Note_off_c, 69
7, 60239, Note_off_c, 73
7, 60240, Note_on_c, 74
7, 60240, Note_on_c, 69
7, 60299, Note_off_c, 69
7, 60299, Note_off_c, 74
7, 60300, Note_on_c, 77
7, 60300, Note_on_c, 74
7, 60359, Note_off_c, 74
7, 60359, Note_off_c, 77
7, 60360, Note_on_c, 76
7, 60360, Note_on_c, 74
7, 60419, Note_off_c, 74
7, 60420, Note_on_c, 72
7, 60479, Note_off_c, 72
7, 60479, Note_off_c, 76
7, 60480, Note_on_c, 70
7, 60480, Note_on_c, 65
7, 60480, Note_on_c, 74
7, 60719, Note_off_c, 74
7, 60719, Note_off_c, 65
7, 60719, Note_off_c, 70
7, 60735, Note_on_c, 77
7, 60749, Note_off_c, 77
7, 60750, Note_on_c, 79
7, 60764, Note_off_c, 79
7, 60765, Note_on_c, 81
7, 60779, Note_off_c, 81
7, 60780, Note_on_c, 82
7, 60794, Note_off_c, 82
7, 60855, Note_on_c, 72
7, 60869, Note_off_c, 72
7, 60870, Note_on_c, 74
7, 60884, Note_off_c, 74
7, 60885, Note_on_c, 75
7, 60899, Note_off_c, 75
7, 60900, Note_on_c, 77
7, 60914, Note_off_c, 77
7, 60975, Note_on_c, 69
7, 60989, Note_off_c, 69
7, 60990, Note_on_c, 70
7, 61004, Note_off_c, 70
7, 61005, Note_on_c, 72
7, 61019, Note_off_c, 72
7, 61020, Note_on_c, 74
7, 61034, Note_off_c, 74
7, 61095, Note_on_c, 67
7, 61109, Note_off_c, 67
7, 61110, Note_on_c, 69
7, 61124, Note_off_c, 69
7, 61125, Note_on_c, 70
7, 61139, Note_off_c, 70
7, 61140, Note_on_c, 72
7, 61154, Note_off_c, 72
7, 61215, Note_on_c, 65
7, 61229, Note_off_c, 65
7, 61230, Note_on_c, 67
7, 61244, Note_off_c, 67
7, 61245, Note_on_c, 69
7, 61259, Note_off_c, 69
7, 61260, Note_on_c, 70
7, 61274, Note_off_c, 70
7, 61335, Note_on_c, 60
7, 61349, Note_off_c, 60
7, 61350, Note_on_c, 62
7, 61364, Note_off_c, 62
7, 61365, Note_on_c, 63
7, 61379, Note_off_c, 63
7, 61380, Note_on_c, 65
7, 61394, Note_off_c, 65
7, 61455, Note_on_c, 57
7, 61469, Note_off_c, 57
7, 61470, Note_on_c, 58
7, 61484, Note_off_c, 58
7, 61485, Note_on_c, 60
7, 61499, Note_off_c, 60
7, 61500, Note_on_c, 62
7, 61514, Note_off_c, 62
7, 61575, Note_on_c, 58
7, 61589, Note_off_c, 58
7, 61590, Note_on_c, 60
7, 61604, Note_off_c, 60
7, 61605, Note_on_c, 62
7, 61619, Note_off_c, 62
7, 61620, Note_on_c, 63
7, 61634, Note_off_c, 63
7, 61695, Note_on_c, 60
7, 61709, Note_off_c, 60
7, 61710, Note_on_c, 62
7, 61724, Note_off_c, 62
7, 61725, Note_on_c, 64
7, 61739, Note_off_c, 64
7, 61740, Note_on_c, 66
7, 61754, Note_off_c, 66
7, 61815, Note_on_c, 66
7, 61829, Note_off_c, 66
7, 61830, Note_on_c, 67
7, 61844, Note_off_c, 67
7, 61845, Note_on_c, 69
7, 61859, Note_off_c, 69
7, 61860, Note_on_c, 70
7, 61875, Note_on_c, 72
7, 61889, Note_off_c, 72
7, 61890, Note_on_c, 74
7, 61890, Note_on_c, 74
7, 61904, Note_off_c, 74
7, 61905, Note_on_c, 67
7, 61919, Note_off_c, 67
7, 61919, Note_off_c, 74
7, 61919, Note_off_c, 70
7, 61920, Note_on_c, 70
7, 61920, Note_on_c, 76
7, 61920, Note_on_c, 67
7, 61920, Note_on_c, 64
7, 62279, Note_off_c, 64
7, 62279, Note_off_c, 70
7, 62279, Note_off_c, 76
7, 62279, Note_off_c, 67
7, 62280, Note_on_c, 74
7, 62280, Note_on_c, 69
7, 62280, Note_on_c, 65
7, 62399, Note_off_c, 65
7, 62399, Note_off_c, 69
7, 62399, Note_off_c, 74
7, 62400, Note_on_c, 62
7, 62400, Note_on_c, 65
7, 62400, Note_on_c, 74
7, 62400, Note_on_c, 71
7, 62639, Note_off_c, 71
7, 62639, Note_off_c, 62
7, 62639, Note_off_c, 65
7, 62639, Note_off_c, 74
7, 63060, Note_on_c, 71
7, 63060, Note_on_c, 74
7, 63060, Note_on_c, 68
7, 63060, Note_on_c, 64
7, 63119, Note_off_c, 64
7, 63119, Note_off_c, 71
7, 63119, Note_off_c, 74
7, 63119, Note_off_c, 68
7, 63120, Note_on_c, 72
7, 63120, Note_on_c, 64
7, 63120, Note_on_c, 69
7, 63299, Note_off_c, 69
7, 63300, Note_on_c, 67
7, 63329, Note_off_c, 67
7, 63330, Note_on_c, 65
7, 63359, Note_off_c, 65
7, 63359, Note_off_c, 64
7, 63599, Note_off_c, 72
7, 63615, Note_on_c, 67
7, 63629, Note_off_c, 67
7, 63630, Note_on_c, 65
7, 63644, Note_off_c, 65
7, 63645, Note_on_c, 67
7, 63659, Note_off_c, 67
7, 63660, Note_on_c, 64
7, 63674, Note_off_c, 64
7, 63735, Note_on_c, 69
7, 63749, Note_off_c, 69
7, 63750, Note_on_c, 67
7, 63764, Note_off_c, 67
7, 63765, Note_on_c, 69
7, 63779, Note_off_c, 69
7, 63780, Note_on_c, 65
7, 63794, Note_off_c, 65
7, 63855, Note_on_c, 71
7, 63869, Note_off_c, 71
7, 63870, Note_on_c, 69
7, 63884, Note_off_c, 69
7, 63885, Note_on_c, 71
7, 63899, Note_off_c, 71
7, 63900, Note_on_c, 67
7, 63914, Note_off_c, 67
7, 63975, Note_on_c, 72
7, 63989, Note_off_c, 72
7, 63990, Note_on_c, 71
7, 64004, Note_off_c, 71
7, 64005, Note_on_c, 72
7, 64019, Note_off_c, 72
7, 64035, Note_on_c, 74
7, 64049, Note_off_c, 74
7, 64050, Note_on_c, 72
7, 64064, Note_off_c, 72
7, 64065, Note_on_c, 74
7, 64079, Note_off_c, 74
7, 64095, Note_on_c, 76
7, 64109, Note_off_c, 76
7, 64110, Note_on_c, 74
7, 64124, Note_off_c, 74
7, 64125, Note_on_c, 76
7, 64139, Note_off_c, 76
7, 64155, Note_on_c, 77
7, 64169, Note_off_c, 77
7, 64170, Note_on_c, 76
7, 64184, Note_off_c, 76
7, 64185, Note_on_c, 77
7, 64199, Note_off_c, 77
7, 64215, Note_on_c, 79
7, 64229, Note_off_c, 79
7, 64230, Note_on_c, 77
7, 64244, Note_off_c, 77
7, 64245, Note_on_c, 76
7, 64259, Note_off_c, 76
7, 64260, Note_on_c, 79
7, 64274, Note_off_c, 79
7, 64275, Note_on_c, 72
7, 64289, Note_off_c, 72
7, 64290, Note_on_c, 71
7, 64304, Note_off_c, 71
7, 64305, Note_on_c, 72
7, 64319, Note_off_c, 72
7, 64335, Note_on_c, 74
7, 64349, Note_off_c, 74
7, 64350, Note_on_c, 72
7, 64364, Note_off_c, 72
7, 64365, Note_on_c, 74
7, 64379, Note_off_c, 74
7, 64380, Note_on_c, 71
7, 64394, Note_off_c, 71
7, 64455, Note_on_c, 72
7, 64469, Note_off_c, 72
7, 64470, Note_on_c, 71
7, 64484, Note_off_c, 71
7, 64485, Note_on_c, 72
7, 64499, Note_off_c, 72
7, 64500, Note_on_c, 69
7, 64514, Note_off_c, 69
7, 64575, Note_on_c, 71
7, 64589, Note_off_c, 71
7, 64590, Note_on_c, 69
7, 64604, Note_off_c, 69
7, 64605, Note_on_c, 71
7, 64619, Note_off_c, 71
7, 64635, Note_on_c, 69
7, 64649, Note_off_c, 69
7, 64650, Note_on_c, 67
7, 64664, Note_off_c, 67
7, 64665, Note_on_c, 69
7, 64679, Note_off_c, 69
7, 64695, Note_on_c, 68
7, 64709, Note_off_c, 68
7, 64710, Note_on_c, 66
7, 64724, Note_off_c, 66
7, 64725, Note_on_c, 68
7, 64739, Note_off_c, 68
7, 64740, Note_on_c, 64
7, 64754, Note_off_c, 64
7, 64815, Note_on_c, 62
7, 64829, Note_off_c, 62
7, 64830, Note_on_c, 60
7, 64844, Note_off_c, 60
7, 64845, Note_on_c, 59
7, 64859, Note_off_c, 59
7, 64875, Note_on_c, 64
7, 64889, Note_off_c, 64
7, 64890, Note_on_c, 62
7, 64904, Note_off_c, 62
7, 64905, Note_on_c, 60
7, 64919, Note_off_c, 60
7, 64935, Note_on_c, 65
7, 64949, Note_off_c, 65
7, 64950, Note_on_c, 64
7, 64964, Note_off_c, 64
7, 64965, Note_on_c, 62
7, 64979, Note_off_c, 62
7, 64995, Note_on_c, 67
7, 65009, Note_off_c, 67
7, 65010, Note_on_c, 65
7, 65024, Note_off_c, 65
7, 65025, Note_on_c, 64
7, 65039, Note_off_c, 64
7, 65055, Note_on_c, 69
7, 65069, Note_off_c, 69
7, 65070, Note_on_c, 67
7, 65084, Note_off_c, 67
7, 65085, Note_on_c, 65
7, 65099, Note_off_c, 65
7, 65115, Note_on_c, 67
7, 65129, Note_off_c, 67
7, 65130, Note_on_c, 69
7, 65144, Note_off_c, 69
7, 65145, Note_on_c, 71
7, 65159, Note_off_c, 71
7, 65160, Note_on_c, 72
7, 65220, Note_on_c, 60
7, 65220, Note_on_c, 67
7, 65220, Note_on_c, 64
7, 65279, Note_off_c, 64
7, 65279, Note_off_c, 72
7, 65279, Note_off_c, 60
7, 65279, Note_off_c, 67
7, 65280, Note_on_c, 73
7, 65280, Note_on_c, 69
7, 65280, Note_on_c, 64
7, 65339, Note_off_c, 64
7, 65339, Note_off_c, 69
7, 65339, Note_off_c, 73
7, 65385, Note_on_c, 69
7, 65399, Note_off_c, 69
7, 65400, Note_on_c, 73
7, 65459, Note_off_c, 73
7, 65460, Note_on_c, 73
7, 65460, Note_on_c, 64
7, 65460, Note_on_c, 69
7, 65519, Note_off_c, 69
7, 65519, Note_off_c, 64
7, 65519, Note_off_c, 73
7, 65520, Note_on_c, 69
7, 65520, Note_on_c, 74
7, 65520, Note_on_c, 65
7, 65579, Note_off_c, 65
7, 65579, Note_off_c, 74
7, 65579, Note_off_c, 69
7, 65625, Note_on_c, 69
7, 65639, Note_off_c, 69
7, 65640, Note_on_c, 74
7, 65699, Note_off_c, 74
7, 65700, Note_on_c, 74
7, 65700, Note_on_c, 69
7, 65700, Note_on_c, 65
7, 65759, Note_off_c, 65
7, 65759, Note_off_c, 69
7, 65759, Note_off_c, 74
7, 65760, Note_on_c, 71
7, 65760, Note_on_c, 67
7, 65760, Note_on_c, 62
7, 65819, Note_off_c, 62
7, 65819, Note_off_c, 67
7, 65819, Note_off_c, 71
7, 65865, Note_on_c, 67
7, 65879, Note_off_c, 67
7, 65880, Note_on_c, 71
7, 65939, Note_off_c, 71
7, 65940, Note_on_c, 67
7, 65940, Note_on_c, 71
7, 65940, Note_on_c, 62
7, 65999, Note_off_c, 62
7, 65999, Note_off_c, 71
7, 65999, Note_off_c, 67
7, 66000, Note_on_c, 72
7, 66000, Note_on_c, 67
7, 66000, Note_on_c, 64
7, 66059, Note_off_c, 64
7, 66059, Note_off_c, 67
7, 66059, Note_off_c, 72
7, 66105, Note_on_c, 67
7, 66119, Note_off_c, 67
7, 66120, Note_on_c, 72
7, 66179, Note_off_c, 72
7, 66180, Note_on_c, 72
7, 66180, Note_on_c, 67
7, 66180, Note_on_c, 64
7, 66239, Note_off_c, 64
7, 66239, Note_off_c, 67
7, 66239, Note_off_c, 72
7, 66240, Note_on_c, 69
7, 66240, Note_on_c, 65
7, 66240, Note_on_c, 60
7, 66299, Note_off_c, 60
7, 66299, Note_off_c, 65
7, 66299, Note_off_c, 69
7, 66345, Note_on_c, 65
7, 66359, Note_off_c, 65
7, 66360, Note_on_c, 69
7, 66419, Note_off_c, 69
7, 66420, Note_on_c, 65
7, 66420, Note_on_c, 69
7, 66420, Note_on_c, 60
7, 66479, Note_off_c, 60
7, 66479, Note_off_c, 69
7, 66479, Note_off_c, 65
7, 66480, Note_on_c, 70
7, 66480, Note_on_c, 65
7, 66480, Note_on_c, 62
7, 66539, Note_off_c, 62
7, 66539, Note_off_c, 65
7, 66539, Note_off_c, 70
7, 66585, Note_on_c, 65
7, 66599, Note_off_c, 65
7, 66600, Note_on_c, 70
7, 66659, Note_off_c, 70
7, 66660, Note_on_c, 70
7, 66660, Note_on_c, 62
7, 66660, Note_on_c, 65
7, 66719, Note_off_c, 65
7, 66719, Note_off_c, 62
7, 66719, Note_off_c, 70
7, 66720, Note_on_c, 70
7, 66720, Note_on_c, 67
7, 66720, Note_on_c, 64
7, 66779, Note_off_c, 64
7, 66779, Note_off_c, 67
7, 66779, Note_off_c, 70
7, 66825, Note_on_c, 61
7, 66839, Note_off_c, 61
7, 66840, Note_on_c, 70
7, 66899, Note_off_c, 70
7, 66900, Note_on_c, 61
7, 66900, Note_on_c, 70
7, 66900, Note_on_c, 67
7, 66900, Note_on_c, 64
7, 66959, Note_off_c, 64
7, 66959, Note_off_c, 61
7, 66959, Note_off_c, 70
7, 66959, Note_off_c, 67
7, 66960, Note_on_c, 66
7, 66960, Note_on_c, 69
7, 66960, Note_on_c, 62
7, 67019, Note_off_c, 62
7, 67019, Note_off_c, 69
7, 67019, Note_off_c, 66
7, 67065, Note_on_c, 66
7, 67079, Note_off_c, 66
7, 67080, Note_on_c, 69
7, 67139, Note_off_c, 69
7, 67140, Note_on_c, 69
7, 67140, Note_on_c, 66
7, 67140, Note_on_c, 62
7, 67199, Note_off_c, 62
7, 67199, Note_off_c, 66
7, 67200, Note_on_c, 58
7, 67200, Note_on_c, 62
7, 67319, Note_off_c, 69
7, 67320, Note_on_c, 67
7, 67439, Note_off_c, 62
7, 67439, Note_off_c, 58
7, 67440, Note_on_c, 61
7, 67440, Note_on_c, 64
7, 67559, Note_off_c, 64
7, 67559, Note_off_c, 61
7, 67559, Note_off_c, 67
7, 67560, Note_on_c, 62
7, 67560, Note_on_c, 65
7, 67679, Note_off_c, 65
7, 67680, Note_on_c, 64
7, 67799, Note_off_c, 62
7, 67800, Note_on_c, 60
7, 67919, Note_off_c, 64
7, 67920, Note_on_c, 62
7, 68039, Note_off_c, 60
7, 68040, Note_on_c, 58
7, 68159, Note_off_c, 58
7, 68160, Note_on_c, 62
7, 68160, Note_on_c, 57
7, 68639, Note_off_c, 57
7, 68639, Note_off_c, 62
7, 68639, Note_off_c, 62
7, 68639, End_track
8, 15150, Note_on_c, 74
8, 15179, Note_off_c, 74
8, 15180, Note_on_c, 72
8, 15209, Note_off_c, 72
8, 15210, Note_on_c, 74
8, 15239, Note_off_c, 74
8, 15240, Note_on_c, 70
8, 15269, Note_off_c, 70
8, 15270, Note_on_c, 74
8, 15299, Note_off_c, 74
8, 15300, Note_on_c, 69
8, 15329, Note_off_c, 69
8, 15330, Note_on_c, 74
8, 15359, Note_off_c, 74
8, 15360, Note_on_c, 67
8, 15389, Note_off_c, 67
8, 15390, Note_on_c, 74
8, 15419, Note_off_c, 74
8, 15420, Note_on_c, 66
8, 15449, Note_off_c, 66
8, 15450, Note_on_c, 74
8, 15479, Note_off_c, 74
8, 15480, Note_on_c, 67
8, 15509, Note_off_c, 67
8, 15510, Note_on_c, 74
8, 15539, Note_off_c, 74
8, 15540, Note_on_c, 69
8, 15569, Note_off_c, 69
8, 15570, Note_on_c, 74
8, 15599, Note_off_c, 74
8, 15600, Note_on_c, 70
8, 15629, Note_off_c, 70
8, 15630, Note_on_c, 74
8, 15659, Note_off_c, 74
8, 15660, Note_on_c, 62
8, 15689, Note_off_c, 62
8, 15690, Note_on_c, 74
8, 15719, Note_off_c, 74
8, 15720, Note_on_c, 64
8, 15749, Note_off_c, 64
8, 15750, Note_on_c, 74
8, 15779, Note_off_c, 74
8, 15780, Note_on_c, 66
8, 15809, Note_off_c, 66
8, 15810, Note_on_c, 74
8, 15839, Note_off_c, 74
8, 15840, Note_on_c, 67
8, 15869, Note_off_c, 67
8, 15870, Note_on_c, 74
8, 15899, Note_off_c, 74
8, 15900, Note_on_c, 66
8, 15929, Note_off_c, 66
8, 15930, Note_on_c, 74
8, 15959, Note_off_c, 74
8, 15960, Note_on_c, 67
8, 15989, Note_off_c, 67
8, 15990, Note_on_c, 74
8, 16019, Note_off_c, 74
8, 16020, Note_on_c, 69
8, 16049, Note_off_c, 69
8, 16050, Note_on_c, 74
8, 16079, Note_off_c, 74
8, 16080, Note_on_c, 70
8, 16139, Note_off_c, 70
8, 16140, Note_on_c, 74
8, 16199, Note_off_c, 74
8, 16200, Note_on_c, 70
8, 16259, Note_off_c, 70
8, 16260, Note_on_c, 74
8, 16319, Note_off_c, 74
8, 16320, Note_on_c, 75
8, 16379, Note_off_c, 75
8, 16380, Note_on_c, 67
8, 16439, Note_off_c, 67
8, 16440, Note_on_c, 75
8, 16499, Note_off_c, 75
8, 16500, Note_on_c, 67
8, 16559, Note_off_c, 67
8, 16560, Note_on_c, 72
8, 16619, Note_off_c, 72
8, 16620, Note_on_c, 69
8, 16679, Note_off_c, 69
8, 16680, Note_on_c, 72
8, 16739, Note_off_c, 72
8, 16740, Note_on_c, 69
8, 16799, Note_off_c, 69
8, 16800, Note_on_c, 74
8, 16859, Note_off_c, 74
8, 16860, Note_on_c, 65
8, 16919, Note_off_c, 65
8, 16920, Note_on_c, 74
8, 16979, Note_off_c, 74
8, 16980, Note_on_c, 65
8, 17039, Note_off_c, 65
8, 17040, Note_on_c, 70
8, 17099, Note_off_c, 70
8, 17100, Note_on_c, 67
8, 17159, Note_off_c, 67
8, 17160, Note_on_c, 70
8, 17219, Note_off_c, 70
8, 17220, Note_on_c, 67
8, 17279, Note_off_c, 67
8, 17280, Note_on_c, 73
8, 17339, Note_off_c, 73
8, 17340, Note_on_c, 64
8, 17399, Note_off_c, 64
8, 17400, Note_on_c, 73
8, 17459, Note_off_c, 73
8, 17460, Note_on_c, 64
8, 17519, Note_off_c, 64
8, 17520, Note_on_c, 69
8, 17579, Note_off_c, 69
8, 17580, Note_on_c, 65
8, 17639, Note_off_c, 65
8, 17640, Note_on_c, 69
8, 17699, Note_off_c, 69
8, 17700, Note_on_c, 65
8, 17759, Note_off_c, 65
8, 17760, Note_on_c, 67
8, 17819, Note_off_c, 67
8, 17820, Note_on_c, 61
8, 17879, Note_off_c, 61
8, 17880, Note_on_c, 67
8, 17939, Note_off_c, 67
8, 17940, Note_on_c, 61
8, 17999, Note_off_c, 61
8, 18000, Note_on_c, 65
8, 18059, Note_off_c, 65
8, 18060, Note_on_c, 62
8, 18119, Note_off_c, 62
8, 18120, Note_on_c, 65
8, 18179, Note_off_c, 65
8, 18180, Note_on_c, 62
8, 18239, Note_off_c, 62
8, 18240, Note_on_c, 64
8, 18299, Note_off_c, 64
8, 18300, Note_on_c, 58
8, 18359, Note_off_c, 58
8, 18360, Note_on_c, 64
8, 18419, Note_off_c, 64
8, 18420, Note_on_c, 58
8, 18479, Note_off_c, 58
8, 18510, Note_on_c, 81
8, 18539, Note_off_c, 81
8, 18540, Note_on_c, 79
8, 18569, Note_off_c, 79
8, 18570, Note_on_c, 81
8, 18599, Note_off_c, 81
8, 18600, Note_on_c, 77
8, 18629, Note_off_c, 77
8, 18630, Note_on_c, 81
8, 18659, Note_off_c, 81
8, 18660, Note_on_c, 76
8, 18689, Note_off_c, 76
8, 18690, Note_on_c, 81
8, 18719, Note_off_c, 81
8, 18720, Note_on_c, 74
8, 18749, Note_off_c, 74
8, 18750, Note_on_c, 81
8, 18779, Note_off_c, 81
8, 18780, Note_on_c, 73
8, 18809, Note_off_c, 73
8, 18810, Note_on_c, 81
8, 18839, Note_off_c, 81
8, 18840, Note_on_c, 74
8, 18869, Note_off_c, 74
8, 18870, Note_on_c, 81
8, 18899, Note_off_c, 81
8, 18900, Note_on_c, 76
8, 18929, Note_off_c, 76
8, 18930, Note_on_c, 81
8, 18959, Note_off_c, 81
8, 18960, Note_on_c, 77
8, 18989, Note_off_c, 77
8, 18990, Note_on_c, 81
8, 19019, Note_off_c, 81
8, 19020, Note_on_c, 69
8, 19049, Note_off_c, 69
8, 19050, Note_on_c, 81
8, 19079, Note_off_c, 81
8, 19080, Note_on_c, 71
8, 19109, Note_off_c, 71
8, 19110, Note_on_c, 81
8, 19139, Note_off_c, 81
8, 19140, Note_on_c, 73
8, 19169, Note_off_c, 73
8, 19170, Note_on_c, 81
8, 19199, Note_off_c, 81
8, 19200, Note_on_c, 74
8, 19229, Note_off_c, 74
8, 19230, Note_on_c, 81
8, 19259, Note_off_c, 81
8, 19260, Note_on_c, 73
8, 19289, Note_off_c, 73
8, 19290, Note_on_c, 81
8, 19319, Note_off_c, 81
8, 19320, Note_on_c, 74
8, 19349, Note_off_c, 74
8, 19350, Note_on_c, 81
8, 19379, Note_off_c, 81
8, 19380, Note_on_c, 76
8, 19409, Note_off_c, 76
8, 19410, Note_on_c, 81
8, 19439, Note_off_c, 81
8, 19440, Note_on_c, 77
8, 19469, Note_off_c, 77
8, 19470, Note_on_c, 81
8, 19499, Note_off_c, 81
8, 19500, Note_on_c, 76
8, 19529, Note_off_c, 76
8, 19530, Note_on_c, 81
8, 19559, Note_off_c, 81
8, 19560, Note_on_c, 74
8, 19589, Note_off_c, 74
8, 19590, Note_on_c, 81
8, 19619, Note_off_c, 81
8, 19620, Note_on_c, 72
8, 19649, Note_off_c, 72
8, 19650, Note_on_c, 81
8, 19679, Note_off_c, 81
8, 19680, Note_on_c, 62
8, 19680, Note_on_c, 55
8, 19799, Note_off_c, 55
8, 19799, Note_off_c, 62
8, 19920, Note_on_c, 48
8, 19920, Note_on_c, 60
8, 20039, Note_off_c, 60
8, 20039, Note_off_c, 48
8, 20040, Note_on_c, 52
8, 20040, Note_on_c, 60
8, 20159, Note_off_c, 60
8, 20159, Note_off_c, 52
8, 20160, Note_on_c, 60
8, 20160, Note_on_c, 53
8, 20279, Note_off_c, 53
8, 20279, Note_off_c, 60
8, 20400, Note_on_c, 46
8, 20400, Note_on_c, 58
8, 20519, Note_off_c, 58
8, 20519, Note_off_c, 46
8, 20520, Note_on_c, 58
8, 20520, Note_on_c, 50
8, 20639, Note_off_c, 50
8, 20639, Note_off_c, 58
8, 20640, Note_on_c, 58
8, 20640, Note_on_c, 51
8, 20759, Note_off_c, 51
8, 20759, Note_off_c, 58
8, 20880, Note_on_c, 45
8, 20880, Note_on_c, 57
8, 20999, Note_off_c, 57
8, 20999, Note_off_c, 45
8, 21000, Note_on_c, 49
8, 21000, Note_on_c, 57
8, 21119, Note_off_c, 57
8, 21119, Note_off_c, 49
8, 21120, Note_on_c, 57
8, 21120, Note_on_c, 50
8, 21239, Note_off_c, 50
8, 21239, Note_off_c, 57
8, 21300, Note_on_c, 53
8, 21300, Note_on_c, 62
8, 21359, Note_off_c, 62
8, 21359, Note_off_c, 53
8, 21360, Note_on_c, 61
8, 21360, Note_on_c, 58
8, 21419, Note_off_c, 58
8, 21419, Note_off_c, 61
8, 21420, Note_on_c, 61
8, 21420, Note_on_c, 58
8, 21479, Note_off_c, 58
8, 21479, Note_off_c, 61
8, 21480, Note_on_c, 62
8, 21480, Note_on_c, 57
8, 21539, Note_off_c, 57
8, 21539, Note_off_c, 62
8, 21540, Note_on_c, 62
8, 21540, Note_on_c, 57
8, 21599, Note_off_c, 57
8, 21599, Note_off_c, 62
8, 21600, Note_on_c, 64
8, 21600, Note_on_c, 55
8, 21719, Note_off_c, 55
8, 21719, Note_off_c, 64
8, 21780, Note_on_c, 62
8, 21780, Note_on_c, 57
8, 21839, Note_off_c, 57
8, 21839, Note_off_c, 62
8, 21840, Note_on_c, 61
8, 21840, Note_on_c, 58
8, 21899, Note_off_c, 58
8, 21899, Note_off_c, 61
8, 21900, Note_on_c, 61
8, 21900, Note_on_c, 58
8, 21959, Note_off_c, 58
8, 21959, Note_off_c, 61
8, 21960, Note_on_c, 62
8, 21960, Note_on_c, 57
8, 22019, Note_off_c, 57
8, 22019, Note_off_c, 62
8, 22020, Note_on_c, 57
8, 22020, Note_on_c, 62
8, 22079, Note_off_c, 62
8, 22079, Note_off_c, 57
8, 22080, Note_on_c, 56
8, 22080, Note_on_c, 64
8, 22199, Note_off_c, 64
8, 22199, Note_off_c, 56
8, 22320, Note_on_c, 57
8, 22439, Note_off_c, 57
8, 22560, Note_on_c, 65
8, 22679, Note_off_c, 65
8, 22680, Note_on_c, 62
8, 22799, Note_off_c, 62
8, 22800, Note_on_c, 57
8, 22829, Note_off_c, 57
8, 22830, Note_on_c, 69
8, 22859, Note_off_c, 69
8, 22860, Note_on_c, 67
8, 22889, Note_off_c, 67
8, 22890, Note_on_c, 69
8, 22919, Note_off_c, 69
8, 22920, Note_on_c, 61
8, 22949, Note_off_c, 61
8, 22950, Note_on_c, 67
8, 22979, Note_off_c, 67
8, 22980, Note_on_c, 65
8, 23009, Note_off_c, 65
8, 23010, Note_on_c, 64
8, 23039, Note_off_c, 64
8, 23070, Note_on_c, 62
8, 23099, Note_off_c, 62
8, 23100, Note_on_c, 61
8, 23129, Note_off_c, 61
8, 23130, Note_on_c, 62
8, 23159, Note_off_c, 62
8, 23160, Note_on_c, 57
8, 23189, Note_off_c, 57
8, 23190, Note_on_c, 57
8, 23219, Note_off_c, 57
8, 23220, Note_on_c, 55
8, 23249, Note_off_c, 55
8, 23250, Note_on_c, 57
8, 23279, Note_off_c, 57
8, 23280, Note_on_c, 54
8, 23309, Note_off_c, 54
8, 23310, Note_on_c, 62
8, 23339, Note_off_c, 62
8, 23340, Note_on_c, 61
8, 23369, Note_off_c, 61
8, 23370, Note_on_c, 62
8, 23399, Note_off_c, 62
8, 23400, Note_on_c, 55
8, 23429, Note_off_c, 55
8, 23430, Note_on_c, 65
8, 23459, Note_off_c, 65
8, 23460, Note_on_c, 63
8, 23489, Note_off_c, 63
8, 23490, Note_on_c, 62
8, 23519, Note_off_c, 62
8, 23520, Note_on_c, 61
8, 23549, Note_off_c, 61
8, 23550, Note_on_c, 64
8, 23579, Note_off_c, 64
8, 23580, Note_on_c, 57
8, 23609, Note_off_c, 57
8, 23610, Note_on_c, 61
8, 23639, Note_off_c, 61
8, 23640, Note_on_c, 50
8, 23669, Note_off_c, 50
8, 23670, Note_on_c, 63
8, 23699, Note_off_c, 63
8, 23700, Note_on_c, 62
8, 23729, Note_off_c, 62
8, 23730, Note_on_c, 60
8, 23759, Note_off_c, 60
8, 23760, Note_on_c, 59
8, 23789, Note_off_c, 59
8, 23790, Note_on_c, 62
8, 23819, Note_off_c, 62
8, 23820, Note_on_c, 55
8, 23849, Note_off_c, 55
8, 23850, Note_on_c, 59
8, 23879, Note_off_c, 59
8, 23880, Note_on_c, 48
8, 23909, Note_off_c, 48
8, 23910, Note_on_c, 62
8, 23939, Note_off_c, 62
8, 23940, Note_on_c, 60
8, 23969, Note_off_c, 60
8, 23970, Note_on_c, 58
8, 23999, Note_off_c, 58
8, 24000, Note_on_c, 57
8, 24029, Note_off_c, 57
8, 24030, Note_on_c, 60
8, 24059, Note_off_c, 60
8, 24060, Note_on_c, 54
8, 24089, Note_off_c, 54
8, 24090, Note_on_c, 57
8, 24119, Note_off_c, 57
8, 24120, Note_on_c, 50
8, 24149, Note_off_c, 50
8, 24150, Note_on_c, 60
8, 24179, Note_off_c, 60
8, 24180, Note_on_c, 58
8, 24209, Note_off_c, 58
8, 24210, Note_on_c, 57
8, 24239, Note_off_c, 57
8, 24240, Note_on_c, 58
8, 24269, Note_off_c, 58
8, 24270, Note_on_c, 69
8, 24299, Note_off_c, 69
8, 24300, Note_on_c, 67
8, 24329, Note_off_c, 67
8, 24330, Note_on_c, 66
8, 24359, Note_off_c, 66
8, 24360, Note_on_c, 67
8, 24389, Note_off_c, 67
8, 24390, Note_on_c, 58
8, 24419, Note_off_c, 58
8, 24420, Note_on_c, 57
8, 24449, Note_off_c, 57
8, 24450, Note_on_c, 55
8, 24479, Note_off_c, 55
8, 24480, Note_on_c, 62
8, 24599, Note_off_c, 62
8, 24660, Note_on_c, 62
8, 24719, Note_off_c, 62
8, 24720, Note_on_c, 62
8, 24779, Note_off_c, 62
8, 24780, Note_on_c, 62
8, 24839, Note_off_c, 62
8, 24840, Note_on_c, 62
8, 24899, Note_off_c, 62
8, 24900, Note_on_c, 60
8, 24959, Note_off_c, 60
8, 24960, Note_on_c, 58
8, 25019, Note_off_c, 58
8, 25020, Note_on_c, 62
8, 25079, Note_off_c, 62
8, 25080, Note_on_c, 62
8, 25139, Note_off_c, 62
8, 25140, Note_on_c, 60
8, 25199, Note_off_c, 60
8, 25200, Note_on_c, 58
8, 25259, Note_off_c, 58
8, 25260, Note_on_c, 62
8, 25319, Note_off_c, 62
8, 25320, Note_on_c, 62
8, 25379, Note_off_c, 62
8, 25380, Note_on_c, 60
8, 25439, Note_off_c, 60
8, 25440, Note_on_c, 58
8, 25559, Note_off_c, 58
8, 27150, Note_on_c, 60
8, 27179, Note_off_c, 60
8, 27180, Note_on_c, 58
8, 27209, Note_off_c, 58
8, 27210, Note_on_c, 60
8, 27239, Note_off_c, 60
8, 27240, Note_on_c, 57
8, 27269, Note_off_c, 57
8, 27270, Note_on_c, 60
8, 27299, Note_off_c, 60
8, 27300, Note_on_c, 55
8, 27329, Note_off_c, 55
8, 27330, Note_on_c, 60
8, 27359, Note_off_c, 60
8, 27360, Note_on_c, 53
8, 27389, Note_off_c, 53
8, 27390, Note_on_c, 60
8, 27419, Note_off_c, 60
8, 27420, Note_on_c, 52
8, 27449, Note_off_c, 52
8, 27450, Note_on_c, 60
8, 27479, Note_off_c, 60
8, 27480, Note_on_c, 53
8, 27509, Note_off_c, 53
8, 27510, Note_on_c, 60
8, 27539, Note_off_c, 60
8, 27540, Note_on_c, 55
8, 27569, Note_off_c, 55
8, 27570, Note_on_c, 60
8, 27599, Note_off_c, 60
8, 27600, Note_on_c, 57
8, 27629, Note_off_c, 57
8, 27630, Note_on_c, 60
8, 27659, Note_off_c, 60
8, 27660, Note_on_c, 48
8, 27689, Note_off_c, 48
8, 27690, Note_on_c, 60
8, 27719, Note_off_c, 60
8, 27720, Note_on_c, 50
8, 27749, Note_off_c, 50
8, 27750, Note_on_c, 60
8, 27779, Note_off_c, 60
8, 27780, Note_on_c, 52
8, 27809, Note_off_c, 52
8, 27810, Note_on_c, 60
8, 27839, Note_off_c, 60
8, 27840, Note_on_c, 53
8, 27869, Note_off_c, 53
8, 27870, Note_on_c, 60
8, 27899, Note_off_c, 60
8, 27900, Note_on_c, 52
8, 27929, Note_off_c, 52
8, 27930, Note_on_c, 60
8, 27959, Note_off_c, 60
8, 27960, Note_on_c, 53
8, 27989, Note_off_c, 53
8, 27990, Note_on_c, 60
8, 28019, Note_off_c, 60
8, 28020, Note_on_c, 55
8, 28049, Note_off_c, 55
8, 28050, Note_on_c, 60
8, 28079, Note_off_c, 60
8, 28080, Note_on_c, 57
8, 28199, Note_off_c, 57
8, 33360, Note_on_c, 69
8, 33419, Note_off_c, 69
8, 33420, Note_on_c, 73
8, 33479, Note_off_c, 73
8, 33480, Note_on_c, 74
8, 33539, Note_off_c, 74
8, 33540, Note_on_c, 67
8, 33599, Note_off_c, 67
8, 33600, Note_on_c, 65
8, 33659, Note_off_c, 65
8, 33660, Note_on_c, 69
8, 33719, Note_off_c, 69
8, 33720, Note_on_c, 71
8, 33779, Note_off_c, 71
8, 33780, Note_on_c, 73
8, 33839, Note_off_c, 73
8, 33840, Note_on_c, 74
8, 33899, Note_off_c, 74
8, 33900, Note_on_c, 73
8, 33959, Note_off_c, 73
8, 33960, Note_on_c, 74
8, 34019, Note_off_c, 74
8, 34020, Note_on_c, 76
8, 34079, Note_off_c, 76
8, 34080, Note_on_c, 77
8, 34139, Note_off_c, 77
8, 34140, Note_on_c, 76
8, 34199, Note_off_c, 76
8, 34200, Note_on_c, 77
8, 34230, Note_on_c, 69
8, 34259, Note_off_c, 69
8, 34259, Note_off_c, 77
8, 34260, Note_on_c, 67
8, 34260, Note_on_c, 73
8, 34289, Note_off_c, 67
8, 34290, Note_on_c, 69
8, 34319, Note_off_c, 69
8, 34319, Note_off_c, 73
8, 34350, Note_on_c, 66
8, 34379, Note_off_c, 66
8, 34380, Note_on_c, 64
8, 34409, Note_off_c, 64
8, 34410, Note_on_c, 66
8, 34439, Note_off_c, 66
8, 34470, Note_on_c, 62
8, 34499, Note_off_c, 62
8, 34500, Note_on_c, 60
8, 34529, Note_off_c, 60
8, 34530, Note_on_c, 62
8, 34559, Note_off_c, 62
8, 34560, Note_on_c, 58
8, 34589, Note_off_c, 58
8, 34590, Note_on_c, 60
8, 34619, Note_off_c, 60
8, 34620, Note_on_c, 58
8, 34649, Note_off_c, 58
8, 34650, Note_on_c, 57
8, 34679, Note_off_c, 57
8, 34680, Note_on_c, 55
8, 34709, Note_off_c, 55
8, 34710, Note_on_c, 53
8, 34739, Note_off_c, 53
8, 34740, Note_on_c, 52
8, 34769, Note_off_c, 52
8, 34770, Note_on_c, 50
8, 34799, Note_off_c, 50
8, 34800, Note_on_c, 49
8, 34829, Note_off_c, 49
8, 34830, Note_on_c, 45
8, 34859, Note_off_c, 45
8, 34860, Note_on_c, 49
8, 34889, Note_off_c, 49
8, 34890, Note_on_c, 52
8, 34919, Note_off_c, 52
8, 35040, Note_on_c, 49
8, 35069, Note_off_c, 49
8, 35070, Note_on_c, 45
8, 35099, Note_off_c, 45
8, 35100, Note_on_c, 49
8, 35129, Note_off_c, 49
8, 35130, Note_on_c, 52
8, 35159, Note_off_c, 52
8, 35280, Note_on_c, 50
8, 35309, Note_off_c, 50
8, 35310, Note_on_c, 45
8, 35339, Note_off_c, 45
8, 35340, Note_on_c, 50
8, 35369, Note_off_c, 50
8, 35370, Note_on_c, 53
8, 35399, Note_off_c, 53
8, 35520, Note_on_c, 50
8, 35549, Note_off_c, 50
8, 35550, Note_on_c, 45
8, 35579, Note_off_c, 45
8, 35580, Note_on_c, 50
8, 35609, Note_off_c, 50
8, 35610, Note_on_c, 53
8, 35639, Note_off_c, 53
8, 35760, Note_on_c, 49
8, 35789, Note_off_c, 49
8, 35790, Note_on_c, 45
8, 35819, Note_off_c, 45
8, 35820, Note_on_c, 49
8, 35849, Note_off_c, 49
8, 35850, Note_on_c, 52
8, 35879, Note_off_c, 52
8, 36000, Note_on_c, 49
8, 36029, Note_off_c, 49
8, 36030, Note_on_c, 45
8, 36059, Note_off_c, 45
8, 36060, Note_on_c, 49
8, 36089, Note_off_c, 49
8, 36090, Note_on_c, 52
8, 36119, Note_off_c, 52
8, 36240, Note_on_c, 50
8, 36269, Note_off_c, 50
8, 36270, Note_on_c, 45
8, 36299, Note_off_c, 45
8, 36300, Note_on_c, 50
8, 36329, Note_off_c, 50
8, 36330, Note_on_c, 53
8, 36359, Note_off_c, 53
8, 36480, Note_on_c, 50
8, 36509, Note_off_c, 50
8, 36510, Note_on_c, 45
8, 36539, Note_off_c, 45
8, 36540, Note_on_c, 50
8, 36569, Note_off_c, 50
8, 36570, Note_on_c, 53
8, 36599, Note_off_c, 53
8, 36720, Note_on_c, 52
8, 36749, Note_off_c, 52
8, 36750, Note_on_c, 49
8, 36779, Note_off_c, 49
8, 36780, Note_on_c, 52
8, 36809, Note_off_c, 52
8, 36810, Note_on_c, 55
8, 36839, Note_off_c, 55
8, 36960, Note_on_c, 52
8, 36989, Note_off_c, 52
8, 36990, Note_on_c, 49
8, 37019, Note_off_c, 49
8, 37020, Note_on_c, 52
8, 37049, Note_off_c, 52
8, 37050, Note_on_c, 55
8, 37079, Note_off_c, 55
8, 37200, Note_on_c, 53
8, 37229, Note_off_c, 53
8, 37230, Note_on_c, 50
8, 37259, Note_off_c, 50
8, 37260, Note_on_c, 53
8, 37289, Note_off_c, 53
8, 37290, Note_on_c, 57
8, 37319, Note_off_c, 57
8, 37440, Note_on_c, 53
8, 37469, Note_off_c, 53
8, 37470, Note_on_c, 50
8, 37499, Note_off_c, 50
8, 37500, Note_on_c, 53
8, 37529, Note_off_c, 53
8, 37530, Note_on_c, 57
8, 37559, Note_off_c, 57
8, 37680, Note_on_c, 52
8, 37709, Note_off_c, 52
8, 37710, Note_on_c, 49
8, 37739, Note_off_c, 49
8, 37740, Note_on_c, 52
8, 37769, Note_off_c, 52
8, 37770, Note_on_c, 55
8, 37799, Note_off_c, 55
8, 37920, Note_on_c, 52
8, 37949, Note_off_c, 52
8, 37950, Note_on_c, 49
8, 37979, Note_off_c, 49
8, 37980, Note_on_c, 52
8, 38009, Note_off_c, 52
8, 38010, Note_on_c, 55
8, 38039, Note_off_c, 55
8, 38160, Note_on_c, 53
8, 38189, Note_off_c, 53
8, 38190, Note_on_c, 50
8, 38219, Note_off_c, 50
8, 38220, Note_on_c, 53
8, 38249, Note_off_c, 53
8, 38250, Note_on_c, 57
8, 38279, Note_off_c, 57
8, 38400, Note_on_c, 53
8, 38429, Note_off_c, 53
8, 38430, Note_on_c, 50
8, 38459, Note_off_c, 50
8, 38460, Note_on_c, 53
8, 38489, Note_off_c, 53
8, 38490, Note_on_c, 57
8, 38519, Note_off_c, 57
8, 38640, Note_on_c, 55
8, 38669, Note_off_c, 55
8, 38670, Note_on_c, 52
8, 38699, Note_off_c, 52
8, 38700, Note_on_c, 55
8, 38729, Note_off_c, 55
8, 38730, Note_on_c, 58
8, 38759, Note_off_c, 58
8, 38880, Note_on_c, 55
8, 38909, Note_off_c, 55
8, 38910, Note_on_c, 52
8, 38939, Note_off_c, 52
8, 38940, Note_on_c, 55
8, 38969, Note_off_c, 55
8, 38970, Note_on_c, 58
8, 38999, Note_off_c, 58
8, 39120, Note_on_c, 57
8, 39149, Note_off_c, 57
8, 39150, Note_on_c, 53
8, 39179, Note_off_c, 53
8, 39180, Note_on_c, 57
8, 39209, Note_off_c, 57
8, 39210, Note_on_c, 61
8, 39239, Note_off_c, 61
8, 39330, Note_on_c, 57
8, 39359, Note_off_c, 57
8, 39360, Note_on_c, 58
8, 39389, Note_off_c, 58
8, 39450, Note_on_c, 55
8, 39479, Note_off_c, 55
8, 39480, Note_on_c, 53
8, 39509, Note_off_c, 53
8, 39570, Note_on_c, 50
8, 39599, Note_off_c, 50
8, 39600, Note_on_c, 45
8, 39629, Note_off_c, 45
8, 39690, Note_on_c, 41
8, 39719, Note_off_c, 41
8, 39720, Note_on_c, 38
8, 39749, Note_off_c, 38
8, 39840, Note_on_c, 49
8, 39869, Note_off_c, 49
8, 39960, Note_on_c, 53
8, 39989, Note_off_c, 53
8, 40080, Note_on_c, 50
8, 40109, Note_off_c, 50
8, 40200, Note_on_c, 53
8, 40229, Note_off_c, 53
8, 40320, Note_on_c, 50
8, 40349, Note_off_c, 50
8, 40350, Note_on_c, 52
8, 40364, Note_off_c, 52
8, 40365, Note_on_c, 53
8, 40379, Note_off_c, 53
8, 40380, Note_on_c, 55
8, 40394, Note_off_c, 55
8, 40395, Note_on_c, 57
8, 40409, Note_off_c, 57
8, 40410, Note_on_c, 59
8, 40424, Note_off_c, 59
8, 40425, Note_on_c, 61
8, 40439, Note_off_c, 61
8, 40440, Note_on_c, 62
8, 40469, Note_off_c, 62
8, 40560, Note_on_c, 57
8, 40589, Note_off_c, 57
8, 40590, Note_on_c, 59
8, 40604, Note_off_c, 59
8, 40605, Note_on_c, 61
8, 40619, Note_off_c, 61
8, 40620, Note_on_c, 62
8, 40634, Note_off_c, 62
8, 40635, Note_on_c, 64
8, 40649, Note_off_c, 64
8, 40650, Note_on_c, 65
8, 40664, Note_off_c, 65
8, 40665, Note_on_c, 67
8, 40679, Note_off_c, 67
8, 40680, Note_on_c, 69
8, 40709, Note_off_c, 69
8, 40710, Note_on_c, 67
8, 40739, Note_off_c, 67
8, 40740, Note_on_c, 65
8, 40769, Note_off_c, 65
8, 40770, Note_on_c, 64
8, 40799, Note_off_c, 64
8, 40800, Note_on_c, 65
8, 40859, Note_off_c, 65
8, 40950, Note_on_c, 63
8, 40979, Note_off_c, 63
8, 40980, Note_on_c, 62
8, 41009, Note_off_c, 62
8, 41010, Note_on_c, 60
8, 41039, Note_off_c, 60
8, 41040, Note_on_c, 58
8, 41099, Note_off_c, 58
8, 41100, Note_on_c, 59
8, 41159, Note_off_c, 59
8, 41160, Note_on_c, 60
8, 41219, Note_off_c, 60
8, 41220, Note_on_c, 67
8, 41279, Note_off_c, 67
8, 41280, Note_on_c, 67
8, 41294, Note_off_c, 67
8, 41295, Note_on_c, 69
8, 41309, Note_off_c, 69
8, 41310, Note_on_c, 67
8, 41324, Note_off_c, 67
8, 41325, Note_on_c, 69
8, 41339, Note_off_c, 69
8, 41340, Note_on_c, 67
8, 41354, Note_off_c, 67
8, 41355, Note_on_c, 69
8, 41369, Note_off_c, 69
8, 41370, Note_on_c, 67
8, 41384, Note_off_c, 67
8, 41385, Note_on_c, 69
8, 41399, Note_off_c, 69
8, 41400, Note_on_c, 67
8, 41414, Note_off_c, 67
8, 41415, Note_on_c, 69
8, 41429, Note_off_c, 69
8, 41430, Note_on_c, 67
8, 41444, Note_off_c, 67
8, 41445, Note_on_c, 69
8, 41459, Note_off_c, 69
8, 41460, Note_on_c, 67
8, 41474, Note_off_c, 67
8, 41475, Note_on_c, 69
8, 41489, Note_off_c, 69
8, 41490, Note_on_c, 67
8, 41504, Note_off_c, 67
8, 41505, Note_on_c, 69
8, 41519, Note_off_c, 69
8, 41520, Note_on_c, 67
8, 41534, Note_off_c, 67
8, 41535, Note_on_c, 69
8, 41549, Note_off_c, 69
8, 41550, Note_on_c, 67
8, 41564, Note_off_c, 67
8, 41565, Note_on_c, 69
8, 41579, Note_off_c, 69
8, 41580, Note_on_c, 67
8, 41594, Note_off_c, 67
8, 41595, Note_on_c, 69
8, 41609, Note_off_c, 69
8, 41610, Note_on_c, 67
8, 41624, Note_off_c, 67
8, 41625, Note_on_c, 69
8, 41639, Note_off_c, 69
8, 41640, Note_on_c, 67
8, 41654, Note_off_c, 67
8, 41655, Note_on_c, 69
8, 41669, Note_off_c, 69
8, 41670, Note_on_c, 67
8, 41684, Note_off_c, 67
8, 41685, Note_on_c, 69
8, 41699, Note_off_c, 69
8, 41700, Note_on_c, 67
8, 41714, Note_off_c, 67
8, 41715, Note_on_c, 69
8, 41729, Note_off_c, 69
8, 41730, Note_on_c, 67
8, 41744, Note_off_c, 67
8, 41745, Note_on_c, 69
8, 41759, Note_off_c, 69
8, 41760, Note_on_c, 67
8, 41774, Note_off_c, 67
8, 41775, Note_on_c, 69
8, 41789, Note_off_c, 69
8, 41790, Note_on_c, 67
8, 41804, Note_off_c, 67
8, 41805, Note_on_c, 69
8, 41819, Note_off_c, 69
8, 41820, Note_on_c, 67
8, 41834, Note_off_c, 67
8, 41835, Note_on_c, 69
8, 41849, Note_off_c, 69
8, 41850, Note_on_c, 67
8, 41864, Note_off_c, 67
8, 41865, Note_on_c, 69
8, 41879, Note_off_c, 69
8, 41880, Note_on_c, 67
8, 41894, Note_off_c, 67
8, 41895, Note_on_c, 69
8, 41909, Note_off_c, 69
8, 41910, Note_on_c, 67
8, 41924, Note_off_c, 67
8, 41925, Note_on_c, 69
8, 41939, Note_off_c, 69
8, 41940, Note_on_c, 67
8, 41954, Note_off_c, 67
8, 41955, Note_on_c, 69
8, 41969, Note_off_c, 69
8, 41970, Note_on_c, 67
8, 41984, Note_off_c, 67
8, 41985, Note_on_c, 69
8, 41999, Note_off_c, 69
8, 42000, Note_on_c, 67
8, 42029, Note_off_c, 67
8, 42030, Note_on_c, 67
8, 42059, Note_off_c, 67
8, 42060, Note_on_c, 65
8, 42089, Note_off_c, 65
8, 42090, Note_on_c, 67
8, 42119, Note_off_c, 67
8, 42120, Note_on_c, 63
8, 42149, Note_off_c, 63
8, 42150, Note_on_c, 67
8, 42179, Note_off_c, 67
8, 42180, Note_on_c, 62
8, 42209, Note_off_c, 62
8, 42210, Note_on_c, 67
8, 42239, Note_off_c, 67
8, 42240, Note_on_c, 60
8, 42269, Note_off_c, 60
8, 42270, Note_on_c, 67
8, 42299, Note_off_c, 67
8, 42300, Note_on_c, 59
8, 42329, Note_off_c, 59
8, 42330, Note_on_c, 67
8, 42359, Note_off_c, 67
8, 42360, Note_on_c, 60
8, 42389, Note_off_c, 60
8, 42390, Note_on_c, 67
8, 42419, Note_off_c, 67
8, 42420, Note_on_c, 62
8, 42449, Note_off_c, 62
8, 42450, Note_on_c, 67
8, 42479, Note_off_c, 67
8, 42480, Note_on_c, 63
8, 42509, Note_off_c, 63
8, 42510, Note_on_c, 67
8, 42539, Note_off_c, 67
8, 42540, Note_on_c, 55
8, 42569, Note_off_c, 55
8, 42570, Note_on_c, 67
8, 42599, Note_off_c, 67
8, 42600, Note_on_c, 57
8, 42629, Note_off_c, 57
8, 42630, Note_on_c, 67
8, 42659, Note_off_c, 67
8, 42660, Note_on_c, 59
8, 42689, Note_off_c, 59
8, 42690, Note_on_c, 67
8, 42719, Note_off_c, 67
8, 42720, Note_on_c, 60
8, 42749, Note_off_c, 60
8, 42750, Note_on_c, 67
8, 42779, Note_off_c, 67
8, 42780, Note_on_c, 59
8, 42809, Note_off_c, 59
8, 42810, Note_on_c, 67
8, 42839, Note_off_c, 67
8, 42840, Note_on_c, 60
8, 42869, Note_off_c, 60
8, 42870, Note_on_c, 67
8, 42899, Note_off_c, 67
8, 42900, Note_on_c, 62
8, 42929, Note_off_c, 62
8, 42930, Note_on_c, 67
8, 42959, Note_off_c, 67
8, 42960, Note_on_c, 63
8, 43019, Note_off_c, 63
8, 43020, Note_on_c, 62
8, 43079, Note_off_c, 62
8, 43080, Note_on_c, 67
8, 43109, Note_off_c, 67
8, 43110, Note_on_c, 68
8, 43139, Note_off_c, 68
8, 43140, Note_on_c, 65
8, 43169, Note_off_c, 65
8, 43170, Note_on_c, 67
8, 43199, Note_off_c, 67
8, 43200, Note_on_c, 63
8, 43259, Note_off_c, 63
8, 43260, Note_on_c, 60
8, 43319, Note_off_c, 60
8, 43320, Note_on_c, 65
8, 43349, Note_off_c, 65
8, 43350, Note_on_c, 67
8, 43379, Note_off_c, 67
8, 43380, Note_on_c, 63
8, 43409, Note_off_c, 63
8, 43410, Note_on_c, 65
8, 43439, Note_off_c, 65
8, 43440, Note_on_c, 62
8, 43499, Note_off_c, 62
8, 43500, Note_on_c, 58
8, 43559, Note_off_c, 58
8, 43560, Note_on_c, 63
8, 43589, Note_off_c, 63
8, 43590, Note_on_c, 65
8, 43619, Note_off_c, 65
8, 43620, Note_on_c, 62
8, 43649, Note_off_c, 62
8, 43650, Note_on_c, 63
8, 43679, Note_off_c, 63
8, 43680, Note_on_c, 60
8, 43739, Note_off_c, 60
8, 43740, Note_on_c, 66
8, 43799, Note_off_c, 66
8, 43800, Note_on_c, 67
8, 43829, Note_off_c, 67
8, 43830, Note_on_c, 69
8, 43859, Note_off_c, 69
8, 43860, Note_on_c, 65
8, 43889, Note_off_c, 65
8, 43890, Note_on_c, 67
8, 43919, Note_off_c, 67
8, 43920, Note_on_c, 63
8, 43949, Note_off_c, 63
8, 43950, Note_on_c, 67
8, 43979, Note_off_c, 67
8, 43980, Note_on_c, 66
8, 44009, Note_off_c, 66
8, 44010, Note_on_c, 67
8, 44039, Note_off_c, 67
8, 44040, Note_on_c, 69
8, 44069, Note_off_c, 69
8, 44070, Note_on_c, 67
8, 44099, Note_off_c, 67
8, 44100, Note_on_c, 66
8, 44129, Note_off_c, 66
8, 44130, Note_on_c, 64
8, 44159, Note_off_c, 64
8, 44190, Note_on_c, 62
8, 44219, Note_off_c, 62
8, 44220, Note_on_c, 60
8, 44249, Note_off_c, 60
8, 44250, Note_on_c, 62
8, 44279, Note_off_c, 62
8, 44280, Note_on_c, 58
8, 44309, Note_off_c, 58
8, 44310, Note_on_c, 62
8, 44339, Note_off_c, 62
8, 44340, Note_on_c, 57
8, 44369, Note_off_c, 57
8, 44370, Note_on_c, 62
8, 44399, Note_off_c, 62
8, 44400, Note_on_c, 55
8, 44429, Note_off_c, 55
8, 44430, Note_on_c, 62
8, 44459, Note_off_c, 62
8, 44460, Note_on_c, 54
8, 44489, Note_off_c, 54
8, 44490, Note_on_c, 62
8, 44519, Note_off_c, 62
8, 44520, Note_on_c, 55
8, 44549, Note_off_c, 55
8, 44550, Note_on_c, 62
8, 44579, Note_off_c, 62
8, 44580, Note_on_c, 57
8, 44609, Note_off_c, 57
8, 44610, Note_on_c, 62
8, 44639, Note_off_c, 62
8, 44640, Note_on_c, 58
8, 44669, Note_off_c, 58
8, 44670, Note_on_c, 62
8, 44699, Note_off_c, 62
8, 44700, Note_on_c, 50
8, 44729, Note_off_c, 50
8, 44730, Note_on_c, 62
8, 44759, Note_off_c, 62
8, 44760, Note_on_c, 52
8, 44789, Note_off_c, 52
8, 44790, Note_on_c, 62
8, 44819, Note_off_c, 62
8, 44820, Note_on_c, 54
8, 44849, Note_off_c, 54
8, 44850, Note_on_c, 62
8, 44879, Note_off_c, 62
8, 44880, Note_on_c, 55
8, 44909, Note_off_c, 55
8, 44910, Note_on_c, 62
8, 44939, Note_off_c, 62
8, 44940, Note_on_c, 54
8, 44969, Note_off_c, 54
8, 44970, Note_on_c, 62
8, 44999, Note_off_c, 62
8, 45000, Note_on_c, 55
8, 45029, Note_off_c, 55
8, 45030, Note_on_c, 62
8, 45059, Note_off_c, 62
8, 45060, Note_on_c, 57
8, 45089, Note_off_c, 57
8, 45090, Note_on_c, 62
8, 45119, Note_off_c, 62
8, 45120, Note_on_c, 58
8, 45179, Note_off_c, 58
8, 45180, Note_on_c, 57
8, 45239, Note_off_c, 57
8, 45240, Note_on_c, 55
8, 45479, Note_off_c, 55
8, 45480, Note_on_c, 54
8, 45599, Note_off_c, 54
8, 45600, Note_on_c, 55
8, 45659, Note_off_c, 55
8, 45660, Note_on_c, 57
8, 45719, Note_off_c, 57
8, 45720, Note_on_c, 58
8, 45749, Note_off_c, 58
8, 45750, Note_on_c, 57
8, 45779, Note_off_c, 57
8, 45780, Note_on_c, 55
8, 45809, Note_off_c, 55
8, 45810, Note_on_c, 53
8, 45839, Note_off_c, 53
8, 45840, Note_on_c, 51
8, 45899, Note_off_c, 51
8, 45900, Note_on_c, 63
8, 45959, Note_off_c, 63
8, 45960, Note_on_c, 62
8, 46079, Note_off_c, 62
8, 46080, Note_on_c, 60
8, 46139, Note_off_c, 60
8, 46140, Note_on_c, 62
8, 46199, Note_off_c, 62
8, 46200, Note_on_c, 63
8, 46229, Note_off_c, 63
8, 46230, Note_on_c, 65
8, 46259, Note_off_c, 65
8, 46260, Note_on_c, 62
8, 46289, Note_off_c, 62
8, 46290, Note_on_c, 63
8, 46319, Note_off_c, 63
8, 46320, Note_on_c, 60
8, 46349, Note_off_c, 60
8, 46350, Note_on_c, 63
8, 46379, Note_off_c, 63
8, 46380, Note_on_c, 62
8, 46409, Note_off_c, 62
8, 46410, Note_on_c, 65
8, 46439, Note_off_c, 65
8, 46440, Note_on_c, 69
8, 46469, Note_off_c, 69
8, 46470, Note_on_c, 67
8, 46499, Note_off_c, 67
8, 46500, Note_on_c, 65
8, 46529, Note_off_c, 65
8, 46530, Note_on_c, 67
8, 46559, Note_off_c, 67
8, 46560, Note_on_c, 62
8, 46589, Note_off_c, 62
8, 46590, Note_on_c, 58
8, 46619, Note_off_c, 58
8, 46620, Note_on_c, 63
8, 46649, Note_off_c, 63
8, 46650, Note_on_c, 62
8, 46679, Note_off_c, 62
8, 46680, Note_on_c, 61
8, 46709, Note_off_c, 61
8, 46710, Note_on_c, 57
8, 46739, Note_off_c, 57
8, 46740, Note_on_c, 62
8, 46769, Note_off_c, 62
8, 46770, Note_on_c, 60
8, 46799, Note_off_c, 60
8, 46800, Note_on_c, 59
8, 46829, Note_off_c, 59
8, 46830, Note_on_c, 55
8, 46859, Note_off_c, 55
8, 46860, Note_on_c, 60
8, 46889, Note_off_c, 60
8, 46890, Note_on_c, 58
8, 46919, Note_off_c, 58
8, 46920, Note_on_c, 57
8, 46949, Note_off_c, 57
8, 46950, Note_on_c, 53
8, 46979, Note_off_c, 53
8, 46980, Note_on_c, 58
8, 47009, Note_off_c, 58
8, 47010, Note_on_c, 62
8, 47039, Note_off_c, 62
8, 47040, Note_on_c, 60
8, 47069, Note_off_c, 60
8, 47070, Note_on_c, 62
8, 47099, Note_off_c, 62
8, 47100, Note_on_c, 60
8, 47129, Note_off_c, 60
8, 47130, Note_on_c, 58
8, 47159, Note_off_c, 58
8, 47160, Note_on_c, 57
8, 47189, Note_off_c, 57
8, 47190, Note_on_c, 60
8, 47219, Note_off_c, 60
8, 47220, Note_on_c, 58
8, 47249, Note_off_c, 58
8, 47250, Note_on_c, 57
8, 47279, Note_off_c, 57
8, 47280, Note_on_c, 55
8, 47309, Note_off_c, 55
8, 47310, Note_on_c, 60
8, 47339, Note_off_c, 60
8, 47340, Note_on_c, 58
8, 47369, Note_off_c, 58
8, 47370, Note_on_c, 57
8, 47399, Note_off_c, 57
8, 47400, Note_on_c, 58
8, 47429, Note_off_c, 58
8, 47430, Note_on_c, 60
8, 47459, Note_off_c, 60
8, 47460, Note_on_c, 58
8, 47489, Note_off_c, 58
8, 47490, Note_on_c, 57
8, 47519, Note_off_c, 57
8, 47520, Note_on_c, 55
8, 47549, Note_off_c, 55
8, 47550, Note_on_c, 57
8, 47579, Note_off_c, 57
8, 47580, Note_on_c, 53
8, 47609, Note_off_c, 53
8, 47610, Note_on_c, 55
8, 47639, Note_off_c, 55
8, 47640, Note_on_c, 52
8, 47759, Note_off_c, 52
8, 47760, Note_on_c, 54
8, 47879, Note_off_c, 54
8, 47880, Note_on_c, 50
8, 47999, Note_off_c, 50
8, 48000, Note_on_c, 55
8, 48119, Note_off_c, 55
8, 48120, Note_on_c, 57
8, 48149, Note_off_c, 57
8, 48150, Note_on_c, 58
8, 48179, Note_off_c, 58
8, 48180, Note_on_c, 57
8, 48209, Note_off_c, 57
8, 48210, Note_on_c, 55
8, 48239, Note_off_c, 55
8, 48240, Note_on_c, 53
8, 48269, Note_off_c, 53
8, 48270, Note_on_c, 55
8, 48299, Note_off_c, 55
8, 48300, Note_on_c, 52
8, 48329, Note_off_c, 52
8, 48330, Note_on_c, 57
8, 48359, Note_off_c, 57
8, 48360, Note_on_c, 50
8, 48479, Note_off_c, 50
8, 48960, Note_on_c, 58
8, 48989, Note_off_c, 58
8, 48990, Note_on_c, 57
8, 49019, Note_off_c, 57
8, 49020, Note_on_c, 55
8, 49049, Note_off_c, 55
8, 49050, Note_on_c, 53
8, 49079, Note_off_c, 53
8, 49080, Note_on_c, 52
8, 49109, Note_off_c, 52
8, 49110, Note_on_c, 53
8, 49139, Note_off_c, 53
8, 49140, Note_on_c, 52
8, 49169, Note_off_c, 52
8, 49170, Note_on_c, 50
8, 49199, Note_off_c, 50
8, 49200, Note_on_c, 49
8, 49229, Note_off_c, 49
8, 49230, Note_on_c, 45
8, 49259, Note_off_c, 45
8, 49260, Note_on_c, 50
8, 49289, Note_off_c, 50
8, 49290, Note_on_c, 45
8, 49319, Note_off_c, 45
8, 49320, Note_on_c, 52
8, 49349, Note_off_c, 52
8, 49350, Note_on_c, 45
8, 49379, Note_off_c, 45
8, 49380, Note_on_c, 53
8, 49409, Note_off_c, 53
8, 49410, Note_on_c, 45
8, 49439, Note_off_c, 45
8, 49440, Note_on_c, 55
8, 49469, Note_off_c, 55
8, 49470, Note_on_c, 45
8, 49499, Note_off_c, 45
8, 49500, Note_on_c, 53
8, 49529, Note_off_c, 53
8, 49530, Note_on_c, 45
8, 49559, Note_off_c, 45
8, 49560, Note_on_c, 52
8, 49589, Note_off_c, 52
8, 49590, Note_on_c, 45
8, 49619, Note_off_c, 45
8, 49620, Note_on_c, 50
8, 49649, Note_off_c, 50
8, 49650, Note_on_c, 45
8, 49679, Note_off_c, 45
8, 49680, Note_on_c, 49
8, 49709, Note_off_c, 49
8, 49710, Note_on_c, 57
8, 49739, Note_off_c, 57
8, 49740, Note_on_c, 45
8, 49769, Note_off_c, 45
8, 49770, Note_on_c, 57
8, 49799, Note_off_c, 57
8, 49800, Note_on_c, 50
8, 49829, Note_off_c, 50
8, 49830, Note_on_c, 57
8, 49859, Note_off_c, 57
8, 49860, Note_on_c, 53
8, 49889, Note_off_c, 53
8, 49890, Note_on_c, 62
8, 49919, Note_off_c, 62
8, 49920, Note_on_c, 55
8, 49949, Note_off_c, 55
8, 49950, Note_on_c, 62
8, 49979, Note_off_c, 62
8, 49980, Note_on_c, 52
8, 50009, Note_off_c, 52
8, 50010, Note_on_c, 61
8, 50039, Note_off_c, 61
8, 50040, Note_on_c, 53
8, 50069, Note_off_c, 53
8, 50070, Note_on_c, 62
8, 50099, Note_off_c, 62
8, 50100, Note_on_c, 50
8, 50129, Note_off_c, 50
8, 50130, Note_on_c, 62
8, 50159, Note_off_c, 62
8, 50160, Note_on_c, 64
8, 50189, Note_off_c, 64
8, 50190, Note_on_c, 69
8, 50219, Note_off_c, 69
8, 50220, Note_on_c, 67
8, 50249, Note_off_c, 67
8, 50250, Note_on_c, 69
8, 50279, Note_off_c, 69
8, 50280, Note_on_c, 65
8, 50309, Note_off_c, 65
8, 50310, Note_on_c, 69
8, 50339, Note_off_c, 69
8, 50340, Note_on_c, 64
8, 50369, Note_off_c, 64
8, 50370, Note_on_c, 69
8, 50399, Note_off_c, 69
8, 50400, Note_on_c, 62
8, 50429, Note_off_c, 62
8, 50430, Note_on_c, 69
8, 50459, Note_off_c, 69
8, 50460, Note_on_c, 61
8, 50489, Note_off_c, 61
8, 50490, Note_on_c, 69
8, 50519, Note_off_c, 69
8, 50520, Note_on_c, 62
8, 50549, Note_off_c, 62
8, 50550, Note_on_c, 69
8, 50579, Note_off_c, 69
8, 50580, Note_on_c, 64
8, 50609, Note_off_c, 64
8, 50610, Note_on_c, 69
8, 50639, Note_off_c, 69
8, 50640, Note_on_c, 65
8, 50669, Note_off_c, 65
8, 50670, Note_on_c, 69
8, 50699, Note_off_c, 69
8, 50700, Note_on_c, 57
8, 50729, Note_off_c, 57
8, 50730, Note_on_c, 69
8, 50759, Note_off_c, 69
8, 50760, Note_on_c, 59
8, 50789, Note_off_c, 59
8, 50790, Note_on_c, 69
8, 50819, Note_off_c, 69
8, 50820, Note_on_c, 61
8, 50849, Note_off_c, 61
8, 50850, Note_on_c, 69
8, 50879, Note_off_c, 69
8, 50880, Note_on_c, 62
8, 50909, Note_off_c, 62
8, 50910, Note_on_c, 69
8, 50939, Note_off_c, 69
8, 50940, Note_on_c, 61
8, 50969, Note_off_c, 61
8, 50970, Note_on_c, 69
8, 50999, Note_off_c, 69
8, 51000, Note_on_c, 62
8, 51029, Note_off_c, 62
8, 51030, Note_on_c, 69
8, 51059, Note_off_c, 69
8, 51060, Note_on_c, 64
8, 51089, Note_off_c, 64
8, 51090, Note_on_c, 69
8, 51119, Note_off_c, 69
8, 51120, Note_on_c, 65
8, 51179, Note_off_c, 65
8, 51180, Note_on_c, 64
8, 51239, Note_off_c, 64
8, 51240, Note_on_c, 62
8, 51299, Note_off_c, 62
8, 51300, Note_on_c, 67
8, 51359, Note_off_c, 67
8, 51360, Note_on_c, 65
8, 51419, Note_off_c, 65
8, 51420, Note_on_c, 64
8, 51479, Note_off_c, 64
8, 51480, Note_on_c, 65
8, 51539, Note_off_c, 65
8, 51540, Note_on_c, 61
8, 51599, Note_off_c, 61
8, 51600, Note_on_c, 62
8, 51659, Note_off_c, 62
8, 51660, Note_on_c, 61
8, 51719, Note_off_c, 61
8, 51720, Note_on_c, 62
8, 51779, Note_off_c, 62
8, 51780, Note_on_c, 59
8, 51839, Note_off_c, 59
8, 51840, Note_on_c, 61
8, 51899, Note_off_c, 61
8, 51900, Note_on_c, 67
8, 51959, Note_off_c, 67
8, 51960, Note_on_c, 65
8, 52019, Note_off_c, 65
8, 52020, Note_on_c, 62
8, 52079, Note_off_c, 62
8, 52080, Note_on_c, 61
8, 52199, Note_off_c, 61
8, 53070, Note_on_c, 67
8, 53099, Note_off_c, 67
8, 53100, Note_on_c, 65
8, 53129, Note_off_c, 65
8, 53130, Note_on_c, 64
8, 53159, Note_off_c, 64
8, 53160, Note_on_c, 65
8, 53189, Note_off_c, 65
8, 53190, Note_on_c, 61
8, 53219, Note_off_c, 61
8, 53220, Note_on_c, 62
8, 53399, Note_off_c, 62
8, 53400, Note_on_c, 61
8, 53519, Note_off_c, 61
8, 53520, Note_on_c, 62
8, 53549, Note_off_c, 62
8, 53550, Note_on_c, 69
8, 53579, Note_off_c, 69
8, 53580, Note_on_c, 71
8, 53609, Note_off_c, 71
8, 53610, Note_on_c, 73
8, 53639, Note_off_c, 73
8, 53640, Note_on_c, 74
8, 53699, Note_off_c, 74
8, 53700, Note_on_c, 72
8, 53759, Note_off_c, 72
8, 53760, Note_on_c, 65
8, 53939, Note_off_c, 65
8, 53940, Note_on_c, 63
8, 54029, Note_off_c, 63
8, 54030, Note_on_c, 60
8, 54059, Note_off_c, 60
8, 54060, Note_on_c, 57
8, 54089, Note_off_c, 57
8, 54090, Note_on_c, 53
8, 54119, Note_off_c, 53
8, 54120, Note_on_c, 57
8, 54149, Note_off_c, 57
8, 54150, Note_on_c, 60
8, 54179, Note_off_c, 60
8, 54180, Note_on_c, 63
8, 54209, Note_off_c, 63
8, 54210, Note_on_c, 60
8, 54239, Note_off_c, 60
8, 54240, Note_on_c, 62
8, 54269, Note_off_c, 62
8, 54270, Note_on_c, 58
8, 54299, Note_off_c, 58
8, 54300, Note_on_c, 55
8, 54329, Note_off_c, 55
8, 54330, Note_on_c, 50
8, 54359, Note_off_c, 50
8, 54360, Note_on_c, 55
8, 54389, Note_off_c, 55
8, 54390, Note_on_c, 58
8, 54419, Note_off_c, 58
8, 54420, Note_on_c, 62
8, 54449, Note_off_c, 62
8, 54450, Note_on_c, 67
8, 54479, Note_off_c, 67
8, 54480, Note_on_c, 60
8, 54509, Note_off_c, 60
8, 54510, Note_on_c, 62
8, 54539, Note_off_c, 62
8, 54540, Note_on_c, 58
8, 54569, Note_off_c, 58
8, 54570, Note_on_c, 60
8, 54599, Note_off_c, 60
8, 54600, Note_on_c, 57
8, 54629, Note_off_c, 57
8, 54630, Note_on_c, 55
8, 54659, Note_off_c, 55
8, 54660, Note_on_c, 54
8, 54689, Note_off_c, 54
8, 54690, Note_on_c, 52
8, 54719, Note_off_c, 52
8, 54720, Note_on_c, 54
8, 54749, Note_off_c, 54
8, 54750, Note_on_c, 50
8, 54779, Note_off_c, 50
8, 54780, Note_on_c, 54
8, 54809, Note_off_c, 54
8, 54810, Note_on_c, 55
8, 54839, Note_off_c, 55
8, 54960, Note_on_c, 54
8, 54989, Note_off_c, 54
8, 54990, Note_on_c, 50
8, 55019, Note_off_c, 50
8, 55020, Note_on_c, 54
8, 55049, Note_off_c, 54
8, 55050, Note_on_c, 55
8, 55079, Note_off_c, 55
8, 55200, Note_on_c, 55
8, 55229, Note_off_c, 55
8, 55230, Note_on_c, 50
8, 55259, Note_off_c, 50
8, 55260, Note_on_c, 55
8, 55289, Note_off_c, 55
8, 55290, Note_on_c, 57
8, 55319, Note_off_c, 57
8, 55440, Note_on_c, 55
8, 55469, Note_off_c, 55
8, 55470, Note_on_c, 50
8, 55499, Note_off_c, 50
8, 55500, Note_on_c, 55
8, 55529, Note_off_c, 55
8, 55530, Note_on_c, 57
8, 55559, Note_off_c, 57
8, 55680, Note_on_c, 57
8, 55709, Note_off_c, 57
8, 55710, Note_on_c, 54
8, 55739, Note_off_c, 54
8, 55740, Note_on_c, 57
8, 55769, Note_off_c, 57
8, 55770, Note_on_c, 58
8, 55799, Note_off_c, 58
8, 55920, Note_on_c, 57
8, 55949, Note_off_c, 57
8, 55950, Note_on_c, 54
8, 55979, Note_off_c, 54
8, 55980, Note_on_c, 57
8, 56009, Note_off_c, 57
8, 56010, Note_on_c, 58
8, 56039, Note_off_c, 58
8, 56160, Note_on_c, 57
8, 56189, Note_off_c, 57
8, 56190, Note_on_c, 58
8, 56219, Note_off_c, 58
8, 56220, Note_on_c, 62
8, 56249, Note_off_c, 62
8, 56250, Note_on_c, 66
8, 56279, Note_off_c, 66
8, 56400, Note_on_c, 58
8, 56429, Note_off_c, 58
8, 56430, Note_on_c, 55
8, 56459, Note_off_c, 55
8, 56460, Note_on_c, 58
8, 56489, Note_off_c, 58
8, 56490, Note_on_c, 62
8, 56519, Note_off_c, 62
8, 56640, Note_on_c, 60
8, 56669, Note_off_c, 60
8, 56670, Note_on_c, 57
8, 56699, Note_off_c, 57
8, 56700, Note_on_c, 60
8, 56729, Note_off_c, 60
8, 56730, Note_on_c, 63
8, 56759, Note_off_c, 63
8, 56880, Note_on_c, 60
8, 56909, Note_off_c, 60
8, 56910, Note_on_c, 57
8, 56939, Note_off_c, 57
8, 56940, Note_on_c, 60
8, 56969, Note_off_c, 60
8, 56970, Note_on_c, 63
8, 56999, Note_off_c, 63
8, 57120, Note_on_c, 54
8, 57179, Note_off_c, 54
8, 57240, Note_on_c, 55
8, 57299, Note_off_c, 55
8, 57300, Note_on_c, 57
8, 57359, Note_off_c, 57
8, 57360, Note_on_c, 58
8, 57479, Note_off_c, 58
8, 57480, Note_on_c, 63
8, 57539, Note_off_c, 63
8, 57540, Note_on_c, 59
8, 57599, Note_off_c, 59
8, 57600, Note_on_c, 55
8, 57719, Note_off_c, 55
8, 57720, Note_on_c, 60
8, 57779, Note_off_c, 60
8, 57780, Note_on_c, 58
8, 57839, Note_off_c, 58
8, 57840, Note_on_c, 57
8, 57959, Note_off_c, 57
8, 57960, Note_on_c, 58
8, 58019, Note_off_c, 58
8, 58020, Note_on_c, 60
8, 58079, Note_off_c, 60
8, 58080, Note_on_c, 62
8, 58109, Note_off_c, 62
8, 58110, Note_on_c, 67
8, 58139, Note_off_c, 67
8, 58140, Note_on_c, 65
8, 58169, Note_off_c, 65
8, 58170, Note_on_c, 63
8, 58199, Note_off_c, 63
8, 58200, Note_on_c, 62
8, 58229, Note_off_c, 62
8, 58230, Note_on_c, 63
8, 58259, Note_off_c, 63
8, 58260, Note_on_c, 62
8, 58289, Note_off_c, 62
8, 58290, Note_on_c, 60
8, 58319, Note_off_c, 60
8, 58320, Note_on_c, 58
8, 58349, Note_off_c, 58
8, 58350, Note_on_c, 63
8, 58379, Note_off_c, 63
8, 58380, Note_on_c, 62
8, 58409, Note_off_c, 62
8, 58410, Note_on_c, 60
8, 58439, Note_off_c, 60
8, 58440, Note_on_c, 58
8, 58469, Note_off_c, 58
8, 58470, Note_on_c, 60
8, 58499, Note_off_c, 60
8, 58500, Note_on_c, 58
8, 58529, Note_off_c, 58
8, 58530, Note_on_c, 57
8, 58559, Note_off_c, 57
8, 58560, Note_on_c, 58
8, 58589, Note_off_c, 58
8, 58590, Note_on_c, 57
8, 58619, Note_off_c, 57
8, 58620, Note_on_c, 55
8, 58649, Note_off_c, 55
8, 58650, Note_on_c, 53
8, 58679, Note_off_c, 53
8, 58680, Note_on_c, 52
8, 58739, Note_off_c, 52
8, 58740, Note_on_c, 55
8, 58799, Note_off_c, 55
8, 58800, Note_on_c, 57
8, 58829, Note_off_c, 57
8, 58830, Note_on_c, 59
8, 58859, Note_off_c, 59
8, 58860, Note_on_c, 61
8, 58889, Note_off_c, 61
8, 58890, Note_on_c, 62
8, 58919, Note_off_c, 62
8, 58920, Note_on_c, 64
8, 58949, Note_off_c, 64
8, 58950, Note_on_c, 65
8, 58979, Note_off_c, 65
8, 58980, Note_on_c, 67
8, 59009, Note_off_c, 67
8, 59010, Note_on_c, 69
8, 59039, Note_off_c, 69
8, 59040, Note_on_c, 70
8, 59099, Note_off_c, 70
8, 59100, Note_on_c, 69
8, 59129, Note_off_c, 69
8, 59130, Note_on_c, 67
8, 59159, Note_off_c, 67
8, 59160, Note_on_c, 65
8, 59189, Note_off_c, 65
8, 59190, Note_on_c, 69
8, 59219, Note_off_c, 69
8, 59220, Note_on_c, 64
8, 59249, Note_off_c, 64
8, 59250, Note_on_c, 69
8, 59279, Note_off_c, 69
8, 59280, Note_on_c, 62
8, 59309, Note_off_c, 62
8, 59310, Note_on_c, 69
8, 59339, Note_off_c, 69
8, 59340, Note_on_c, 61
8, 59369, Note_off_c, 61
8, 59370, Note_on_c, 69
8, 59399, Note_off_c, 69
8, 59400, Note_on_c, 62
8, 59429, Note_off_c, 62
8, 59430, Note_on_c, 69
8, 59459, Note_off_c, 69
8, 59460, Note_on_c, 64
8, 59489, Note_off_c, 64
8, 59490, Note_on_c, 69
8, 59519, Note_off_c, 69
8, 59520, Note_on_c, 65
8, 59549, Note_off_c, 65
8, 59550, Note_on_c, 69
8, 59579, Note_off_c, 69
8, 59580, Note_on_c, 57
8, 59609, Note_off_c, 57
8, 59610, Note_on_c, 69
8, 59639, Note_off_c, 69
8, 59640, Note_on_c, 59
8, 59669, Note_off_c, 59
8, 59670, Note_on_c, 69
8, 59699, Note_off_c, 69
8, 59700, Note_on_c, 61
8, 59729, Note_off_c, 61
8, 59730, Note_on_c, 69
8, 59759, Note_off_c, 69
8, 59760, Note_on_c, 62
8, 59789, Note_off_c, 62
8, 59790, Note_on_c, 69
8, 59819, Note_off_c, 69
8, 59820, Note_on_c, 61
8, 59849, Note_off_c, 61
8, 59850, Note_on_c, 69
8, 59879, Note_off_c, 69
8, 59880, Note_on_c, 62
8, 59909, Note_off_c, 62
8, 59910, Note_on_c, 69
8, 59939, Note_off_c, 69
8, 59940, Note_on_c, 59
8, 59969, Note_off_c, 59
8, 59970, Note_on_c, 69
8, 59999, Note_off_c, 69
8, 60000, Note_on_c, 61
8, 60059, Note_off_c, 61
8, 60060, Note_on_c, 62
8, 60119, Note_off_c, 62
8, 60120, Note_on_c, 67
8, 60179, Note_off_c, 67
8, 60180, Note_on_c, 64
8, 60239, Note_off_c, 64
8, 60240, Note_on_c, 65
8, 60299, Note_off_c, 65
8, 60300, Note_on_c, 69
8, 60359, Note_off_c, 69
8, 60360, Note_on_c, 70
8, 60419, Note_off_c, 70
8, 60420, Note_on_c, 69
8, 60479, Note_off_c, 69
8, 60480, Note_on_c, 58
8, 60480, Note_on_c, 62
8, 60480, Note_on_c, 53
8, 60719, Note_off_c, 53
8, 60719, Note_off_c, 62
8, 60719, Note_off_c, 58
8, 60795, Note_on_c, 69
8, 60809, Note_off_c, 69
8, 60810, Note_on_c, 70
8, 60824, Note_off_c, 70
8, 60825, Note_on_c, 72
8, 60839, Note_off_c, 72
8, 60840, Note_on_c, 74
8, 60854, Note_off_c, 74
8, 60915, Note_on_c, 65
8, 60929, Note_off_c, 65
8, 60930, Note_on_c, 67
8, 60944, Note_off_c, 67
8, 60945, Note_on_c, 69
8, 60959, Note_off_c, 69
8, 60960, Note_on_c, 70
8, 60974, Note_off_c, 70
8, 61035, Note_on_c, 69
8, 61049, Note_off_c, 69
8, 61050, Note_on_c, 67
8, 61064, Note_off_c, 67
8, 61065, Note_on_c, 65
8, 61079, Note_off_c, 65
8, 61080, Note_on_c, 63
8, 61094, Note_off_c, 63
8, 61155, Note_on_c, 67
8, 61169, Note_off_c, 67
8, 61170, Note_on_c, 65
8, 61184, Note_off_c, 65
8, 61185, Note_on_c, 63
8, 61199, Note_off_c, 63
8, 61200, Note_on_c, 62
8, 61214, Note_off_c, 62
8, 61275, Note_on_c, 57
8, 61289, Note_off_c, 57
8, 61290, Note_on_c, 58
8, 61304, Note_off_c, 58
8, 61305, Note_on_c, 60
8, 61319, Note_off_c, 60
8, 61320, Note_on_c, 62
8, 61334, Note_off_c, 62
8, 61395, Note_on_c, 53
8, 61409, Note_off_c, 53
8, 61410, Note_on_c, 55
8, 61424, Note_off_c, 55
8, 61425, Note_on_c, 57
8, 61439, Note_off_c, 57
8, 61440, Note_on_c, 58
8, 61454, Note_off_c, 58
8, 61515, Note_on_c, 60
8, 61529, Note_off_c, 60
8, 61530, Note_on_c, 58
8, 61544, Note_off_c, 58
8, 61545, Note_on_c, 57
8, 61559, Note_off_c, 57
8, 61560, Note_on_c, 55
8, 61574, Note_off_c, 55
8, 61635, Note_on_c, 62
8, 61649, Note_off_c, 62
8, 61650, Note_on_c, 60
8, 61664, Note_off_c, 60
8, 61665, Note_on_c, 58
8, 61679, Note_off_c, 58
8, 61680, Note_on_c, 57
8, 61694, Note_off_c, 57
8, 61755, Note_on_c, 63
8, 61769, Note_off_c, 63
8, 61770, Note_on_c, 62
8, 61784, Note_off_c, 62
8, 61785, Note_on_c, 60
8, 61799, Note_off_c, 60
8, 61800, Note_on_c, 58
8, 61814, Note_off_c, 58
8, 61890, Note_on_c, 55
8, 61919, Note_off_c, 55
8, 61920, Note_on_c, 61
8, 62279, Note_off_c, 61
8, 62280, Note_on_c, 62
8, 62399, Note_off_c, 62
8, 62400, Note_on_c, 59
8, 62639, Note_off_c, 59
8, 63060, Note_on_c, 59
8, 63060, Note_on_c, 56
8, 63060, Note_on_c, 52
8, 63119, Note_off_c, 52
8, 63119, Note_off_c, 56
8, 63119, Note_off_c, 59
8, 63120, Note_on_c, 52
8, 63120, Note_on_c, 60
8, 63120, Note_on_c, 57
8, 63359, Note_off_c, 57
8, 63360, Note_on_c, 64
8, 63360, Note_on_c, 55
8, 63599, Note_off_c, 55
8, 63599, Note_off_c, 52
8, 63599, Note_off_c, 60
8, 63599, Note_off_c, 64
8, 63675, Note_on_c, 64
8, 63689, Note_off_c, 64
8, 63690, Note_on_c, 62
8, 63704, Note_off_c, 62
8, 63705, Note_on_c, 64
8, 63719, Note_off_c, 64
8, 63720, Note_on_c, 60
8, 63734, Note_off_c, 60
8, 63795, Note_on_c, 65
8, 63809, Note_off_c, 65
8, 63810, Note_on_c, 64
8, 63824, Note_off_c, 64
8, 63825, Note_on_c, 65
8, 63839, Note_off_c, 65
8, 63840, Note_on_c, 62
8, 63854, Note_off_c, 62
8, 63915, Note_on_c, 67
8, 63929, Note_off_c, 67
8, 63930, Note_on_c, 65
8, 63944, Note_off_c, 65
8, 63945, Note_on_c, 67
8, 63959, Note_off_c, 67
8, 63960, Note_on_c, 64
8, 63974, Note_off_c, 64
8, 64020, Note_on_c, 69
8, 64034, Note_off_c, 69
8, 64080, Note_on_c, 71
8, 64094, Note_off_c, 71
8, 64140, Note_on_c, 72
8, 64154, Note_off_c, 72
8, 64200, Note_on_c, 74
8, 64214, Note_off_c, 74
8, 64275, Note_on_c, 72
8, 64289, Note_off_c, 72
8, 64290, Note_on_c, 71
8, 64304, Note_off_c, 71
8, 64305, Note_on_c, 72
8, 64319, Note_off_c, 72
8, 64320, Note_on_c, 69
8, 64334, Note_off_c, 69
8, 64395, Note_on_c, 68
8, 64409, Note_off_c, 68
8, 64410, Note_on_c, 66
8, 64424, Note_off_c, 66
8, 64425, Note_on_c, 68
8, 64439, Note_off_c, 68
8, 64440, Note_on_c, 64
8, 64454, Note_off_c, 64
8, 64515, Note_on_c, 65
8, 64529, Note_off_c, 65
8, 64530, Note_on_c, 64
8, 64544, Note_off_c, 64
8, 64545, Note_on_c, 65
8, 64559, Note_off_c, 65
8, 64560, Note_on_c, 62
8, 64574, Note_off_c, 62
8, 64620, Note_on_c, 60
8, 64634, Note_off_c, 60
8, 64680, Note_on_c, 59
8, 64694, Note_off_c, 59
8, 64755, Note_on_c, 60
8, 64769, Note_off_c, 60
8, 64770, Note_on_c, 59
8, 64784, Note_off_c, 59
8, 64785, Note_on_c, 57
8, 64799, Note_off_c, 57
8, 64800, Note_on_c, 56
8, 64814, Note_off_c, 56
8, 64860, Note_on_c, 57
8, 64874, Note_off_c, 57
8, 64920, Note_on_c, 59
8, 64934, Note_off_c, 59
8, 64980, Note_on_c, 60
8, 64994, Note_off_c, 60
8, 65040, Note_on_c, 62
8, 65054, Note_off_c, 62
8, 65100, Note_on_c, 64
8, 65114, Note_off_c, 64
8, 65220, Note_on_c, 55
8, 65279, Note_off_c, 55
8, 65280, Note_on_c, 57
8, 65339, Note_off_c, 57
8, 65340, Note_on_c, 57
8, 65354, Note_off_c, 57
8, 65355, Note_on_c, 61
8, 65369, Note_off_c, 61
8, 65370, Note_on_c, 64
8, 65384, Note_off_c, 64
8, 65460, Note_on_c, 57
8, 65519, Note_off_c, 57
8, 65520, Note_on_c, 57
8, 65579, Note_off_c, 57
8, 65580, Note_on_c, 57
8, 65594, Note_off_c, 57
8, 65595, Note_on_c, 62
8, 65609, Note_off_c, 62
8, 65610, Note_on_c, 65
8, 65624, Note_off_c, 65
8, 65700, Note_on_c, 57
8, 65759, Note_off_c, 57
8, 65760, Note_on_c, 59
8, 65819, Note_off_c, 59
8, 65820, Note_on_c, 55
8, 65834, Note_off_c, 55
8, 65835, Note_on_c, 59
8, 65849, Note_off_c, 59
8, 65850, Note_on_c, 62
8, 65864, Note_off_c, 62
8, 65940, Note_on_c, 55
8, 65999, Note_off_c, 55
8, 66000, Note_on_c, 55
8, 66059, Note_off_c, 55
8, 66060, Note_on_c, 55
8, 66074, Note_off_c, 55
8, 66075, Note_on_c, 60
8, 66089, Note_off_c, 60
8, 66090, Note_on_c, 64
8, 66104, Note_off_c, 64
8, 66180, Note_on_c, 55
8, 66239, Note_off_c, 55
8, 66240, Note_on_c, 57
8, 66299, Note_off_c, 57
8, 66300, Note_on_c, 53
8, 66314, Note_off_c, 53
8, 66315, Note_on_c, 57
8, 66329, Note_off_c, 57
8, 66330, Note_on_c, 60
8, 66344, Note_off_c, 60
8, 66420, Note_on_c, 53
8, 66479, Note_off_c, 53
8, 66480, Note_on_c, 53
8, 66539, Note_off_c, 53
8, 66540, Note_on_c, 53
8, 66554, Note_off_c, 53
8, 66555, Note_on_c, 58
8, 66569, Note_off_c, 58
8, 66570, Note_on_c, 62
8, 66584, Note_off_c, 62
8, 66660, Note_on_c, 53
8, 66719, Note_off_c, 53
8, 66720, Note_on_c, 52
8, 66779, Note_off_c, 52
8, 66780, Note_on_c, 52
8, 66794, Note_off_c, 52
8, 66795, Note_on_c, 55
8, 66809, Note_off_c, 55
8, 66810, Note_on_c, 58
8, 66824, Note_off_c, 58
8, 66900, Note_on_c, 52
8, 66959, Note_off_c, 52
8, 66960, Note_on_c, 54
8, 67019, Note_off_c, 54
8, 67020, Note_on_c, 50
8, 67034, Note_off_c, 50
8, 67035, Note_on_c, 57
8, 67049, Note_off_c, 57
8, 67050, Note_on_c, 62
8, 67064, Note_off_c, 62
8, 67140, Note_on_c, 54
8, 67199, Note_off_c, 54
8, 67200, Note_on_c, 55
8, 67439, Note_off_c, 55
8, 67440, Note_on_c, 58
8, 67559, Note_off_c, 58
8, 67560, Note_on_c, 57
8, 67679, Note_off_c, 57
8, 67680, Note_on_c, 57
8, 67919, Note_off_c, 57
8, 67920, Note_on_c, 53
8, 68039, Note_off_c, 53
8, 68040, Note_on_c, 55
8, 68159, Note_off_c, 55
8, 68160, Note_on_c, 53
8, 68639, Note_off_c, 53
8, 68639, End_track
9, 24510, Note_on_c, 50
9, 24539, Note_off_c, 50
9, 24540, Note_on_c, 48
9, 24569, Note_off_c, 48
9, 24570, Note_on_c, 50
9, 24599, Note_off_c, 50
9, 24600, Note_on_c, 46
9, 24629, Note_off_c, 46
9, 24630, Note_on_c, 50
9, 24659, Note_off_c, 50
9, 24660, Note_on_c, 45
9, 24689, Note_off_c, 45
9, 24690, Note_on_c, 50
9, 24719, Note_off_c, 50
9, 24720, Note_on_c, 43
9, 24749, Note_off_c, 43
9, 24750, Note_on_c, 50
9, 24779, Note_off_c, 50
9, 24780, Note_on_c, 42
9, 24809, Note_off_c, 42
9, 24810, Note_on_c, 50
9, 24839, Note_off_c, 50
9, 24840, Note_on_c, 43
9, 24869, Note_off_c, 43
9, 24870, Note_on_c, 50
9, 24899, Note_off_c, 50
9, 24900, Note_on_c, 45
9, 24929, Note_off_c, 45
9, 24930, Note_on_c, 50
9, 24959, Note_off_c, 50
9, 24960, Note_on_c, 46
9, 24989, Note_off_c, 46
9, 24990, Note_on_c, 50
9, 25019, Note_off_c, 50
9, 25020, Note_on_c, 38
9, 25049, Note_off_c, 38
9, 25050, Note_on_c, 50
9, 25079, Note_off_c, 50
9, 25080, Note_on_c, 40
9, 25109, Note_off_c, 40
9, 25110, Note_on_c, 50
9, 25139, Note_off_c, 50
9, 25140, Note_on_c, 42
9, 25169, Note_off_c, 42
9, 25170, Note_on_c, 50
9, 25199, Note_off_c, 50
9, 25200, Note_on_c, 43
9, 25229, Note_off_c, 43
9, 25230, Note_on_c, 50
9, 25259, Note_off_c, 50
9, 25260, Note_on_c, 42
9, 25289, Note_off_c, 42
9, 25290, Note_on_c, 50
9, 25319, Note_off_c, 50
9, 25320, Note_on_c, 43
9, 25349, Note_off_c, 43
9, 25350, Note_on_c, 50
9, 25379, Note_off_c, 50
9, 25380, Note_on_c, 45
9, 25409, Note_off_c, 45
9, 25410, Note_on_c, 50
9, 25439, Note_off_c, 50
9, 25440, Note_on_c, 46
9, 25559, Note_off_c, 46
9, 25620, Note_on_c, 47
9, 25679, Note_off_c, 47
9, 25680, Note_on_c, 48
9, 25799, Note_off_c, 48
9, 25860, Note_on_c, 49
9, 25919, Note_off_c, 49
9, 25920, Note_on_c, 50
9, 26039, Note_off_c, 50
9, 26100, Note_on_c, 50
9, 26159, Note_off_c, 50
9, 26160, Note_on_c, 52
9, 26279, Note_off_c, 52
9, 26340, Note_on_c, 52
9, 26399, Note_off_c, 52
9, 26400, Note_on_c, 53
9, 26459, Note_off_c, 53
9, 26460, Note_on_c, 45
9, 26519, Note_off_c, 45
9, 26520, Note_on_c, 46
9, 26579, Note_off_c, 46
9, 26580, Note_on_c, 50
9, 26639, Note_off_c, 50
9, 26640, Note_on_c, 43
9, 26759, Note_off_c, 43
9, 26820, Note_on_c, 46
9, 26939, Note_off_c, 46
9, 26940, Note_on_c, 45
9, 26999, Note_off_c, 45
9, 27000, Note_on_c, 43
9, 27059, Note_off_c, 43
9, 27060, Note_on_c, 48
9, 27119, Note_off_c, 48
9, 27120, Note_on_c, 41
9, 27239, Note_off_c, 41
9, 41070, Note_on_c, 55
9, 41099, Note_off_c, 55
9, 41100, Note_on_c, 53
9, 41129, Note_off_c, 53
9, 41130, Note_on_c, 55
9, 41159, Note_off_c, 55
9, 41160, Note_on_c, 51
9, 41189, Note_off_c, 51
9, 41190, Note_on_c, 55
9, 41219, Note_off_c, 55
9, 41220, Note_on_c, 50
9, 41249, Note_off_c, 50
9, 41250, Note_on_c, 55
9, 41279, Note_off_c, 55
9, 41280, Note_on_c, 48
9, 41309, Note_off_c, 48
9, 41310, Note_on_c, 55
9, 41339, Note_off_c, 55
9, 41340, Note_on_c, 47
9, 41369, Note_off_c, 47
9, 41370, Note_on_c, 55
9, 41399, Note_off_c, 55
9, 41400, Note_on_c, 48
9, 41429, Note_off_c, 48
9, 41430, Note_on_c, 55
9, 41459, Note_off_c, 55
9, 41460, Note_on_c, 50
9, 41489, Note_off_c, 50
9, 41490, Note_on_c, 55
9, 41519, Note_off_c, 55
9, 41520, Note_on_c, 51
9, 41549, Note_off_c, 51
9, 41550, Note_on_c, 55
9, 41579, Note_off_c, 55
9, 41580, Note_on_c, 43
9, 41609, Note_off_c, 43
9, 41610, Note_on_c, 55
9, 41639, Note_off_c, 55
9, 41640, Note_on_c, 45
9, 41669, Note_off_c, 45
9, 41670, Note_on_c, 55
9, 41699, Note_off_c, 55
9, 41700, Note_on_c, 47
9, 41729, Note_off_c, 47
9, 41730, Note_on_c, 55
9, 41759, Note_off_c, 55
9, 41760, Note_on_c, 48
9, 41789, Note_off_c, 48
9, 41790, Note_on_c, 55
9, 41819, Note_off_c, 55
9, 41820, Note_on_c, 47
9, 41849, Note_off_c, 47
9, 41850, Note_on_c, 55
9, 41879, Note_off_c, 55
9, 41880, Note_on_c, 48
9, 41909, Note_off_c, 48
9, 41910, Note_on_c, 55
9, 41939, Note_off_c, 55
9, 41940, Note_on_c, 50
9, 41969, Note_off_c, 50
9, 41970, Note_on_c, 55
9, 41999, Note_off_c, 55
9, 42000, Note_on_c, 51
9, 42059, Note_off_c, 51
9, 42060, Note_on_c, 50
9, 42119, Note_off_c, 50
9, 42120, Note_on_c, 48
9, 42179, Note_off_c, 48
9, 42180, Note_on_c, 47
9, 42239, Note_off_c, 47
9, 42240, Note_on_c, 48
9, 42299, Note_off_c, 48
9, 42300, Note_on_c, 50
9, 42359, Note_off_c, 50
9, 42360, Note_on_c, 51
9, 42419, Note_off_c, 51
9, 42420, Note_on_c, 53
9, 42479, Note_off_c, 53
9, 42480, Note_on_c, 55
9, 42539, Note_off_c, 55
9, 42540, Note_on_c, 47
9, 42599, Note_off_c, 47
9, 42600, Note_on_c, 48
9, 42659, Note_off_c, 48
9, 42660, Note_on_c, 50
9, 42719, Note_off_c, 50
9, 42720, Note_on_c, 51
9, 42779, Note_off_c, 51
9, 42780, Note_on_c, 50
9, 42839, Note_off_c, 50
9, 42840, Note_on_c, 51
9, 42899, Note_off_c, 51
9, 42900, Note_on_c, 53
9, 42959, Note_off_c, 53
9, 42960, Note_on_c, 55
9, 43019, Note_off_c, 55
9, 43020, Note_on_c, 47
9, 43079, Note_off_c, 47
9, 43080, Note_on_c, 48
9, 43139, Note_off_c, 48
9, 43140, Note_on_c, 50
9, 43199, Note_off_c, 50
9, 43200, Note_on_c, 51
9, 43259, Note_off_c, 51
9, 43260, Note_on_c, 45
9, 43319, Note_off_c, 45
9, 43320, Note_on_c, 46
9, 43379, Note_off_c, 46
9, 43380, Note_on_c, 48
9, 43439, Note_off_c, 48
9, 43440, Note_on_c, 50
9, 43499, Note_off_c, 50
9, 43500, Note_on_c, 43
9, 43559, Note_off_c, 43
9, 43560, Note_on_c, 45
9, 43619, Note_off_c, 45
9, 43620, Note_on_c, 46
9, 43679, Note_off_c, 46
9, 43680, Note_on_c, 48
9, 43739, Note_off_c, 48
9, 43740, Note_on_c, 50
9, 43799, Note_off_c, 50
9, 43800, Note_on_c, 55
9, 43859, Note_off_c, 55
9, 43860, Note_on_c, 50
9, 43919, Note_off_c, 50
9, 43920, Note_on_c, 51
9, 43979, Note_off_c, 51
9, 43980, Note_on_c, 46
9, 44039, Note_off_c, 46
9, 44040, Note_on_c, 45
9, 44099, Note_off_c, 45
9, 44100, Note_on_c, 48
9, 44159, Note_off_c, 48
9, 44160, Note_on_c, 50
9, 45239, Note_off_c, 50
9, 45300, Note_on_c, 43
9, 45359, Note_off_c, 43
9, 45360, Note_on_c, 48
9, 45419, Note_off_c, 48
9, 45420, Note_on_c, 45
9, 45479, Note_off_c, 45
9, 45480, Note_on_c, 50
9, 45539, Note_off_c, 50
9, 45540, Note_on_c, 38
9, 45599, Note_off_c, 38
9, 45600, Note_on_c, 43
9, 45719, Note_off_c, 43
9, 45780, Note_on_c, 43
9, 45839, Note_off_c, 43
9, 45840, Note_on_c, 48
9, 45959, Note_off_c, 48
9, 46020, Note_on_c, 47
9, 46079, Note_off_c, 47
9, 46080, Note_on_c, 48
9, 46199, Note_off_c, 48
9, 50160, Note_on_c, 57
9, 52110, Note_on_c, 57
9, 52139, Note_off_c, 57
9, 52140, Note_on_c, 55
9, 52169, Note_off_c, 55
9, 52170, Note_on_c, 57
9, 52199, Note_off_c, 57
9, 52199, Note_off_c, 57
9, 52200, Note_on_c, 53
9, 52229, Note_off_c, 53
9, 52230, Note_on_c, 57
9, 52259, Note_off_c, 57
9, 52260, Note_on_c, 52
9, 52289, Note_off_c, 52
9, 52290, Note_on_c, 57
9, 52319, Note_off_c, 57
9, 52320, Note_on_c, 50
9, 52349, Note_off_c, 50
9, 52350, Note_on_c, 57
9, 52379, Note_off_c, 57
9, 52380, Note_on_c, 49
9, 52409, Note_off_c, 49
9, 52410, Note_on_c, 57
9, 52439, Note_off_c, 57
9, 52440, Note_on_c, 50
9, 52469, Note_off_c, 50
9, 52470, Note_on_c, 57
9, 52499, Note_off_c, 57
9, 52500, Note_on_c, 52
9, 52529, Note_off_c, 52
9, 52530, Note_on_c, 57
9, 52559, Note_off_c, 57
9, 52560, Note_on_c, 53
9, 52589, Note_off_c, 53
9, 52590, Note_on_c, 57
9, 52619, Note_off_c, 57
9, 52620, Note_on_c, 45
9, 52649, Note_off_c, 45
9, 52650, Note_on_c, 57
9, 52679, Note_off_c, 57
9, 52680, Note_on_c, 47
9, 52709, Note_off_c, 47
9, 52710, Note_on_c, 57
9, 52739, Note_off_c, 57
9, 52740, Note_on_c, 49
9, 52769, Note_off_c, 49
9, 52770, Note_on_c, 57
9, 52799, Note_off_c, 57
9, 52800, Note_on_c, 50
9, 52829, Note_off_c, 50
9, 52830, Note_on_c, 57
9, 52859, Note_off_c, 57
9, 52860, Note_on_c, 49
9, 52889, Note_off_c, 49
9, 52890, Note_on_c, 57
9, 52919, Note_off_c, 57
9, 52920, Note_on_c, 50
9, 52949, Note_off_c, 50
9, 52950, Note_on_c, 57
9, 52979, Note_off_c, 57
9, 52980, Note_on_c, 52
9, 53009, Note_off_c, 52
9, 53010, Note_on_c, 57
9, 53039, Note_off_c, 57
9, 53040, Note_on_c, 53
9, 53159, Note_off_c, 53
9, 53220, Note_on_c, 53
9, 53279, Note_off_c, 53
9, 53280, Note_on_c, 55
9, 53339, Note_off_c, 55
9, 53340, Note_on_c, 52
9, 53399, Note_off_c, 52
9, 53400, Note_on_c, 57
9, 53459, Note_off_c, 57
9, 53460, Note_on_c, 45
9, 53519, Note_off_c, 45
9, 53520, Note_on_c, 50
9, 53639, Note_off_c, 50
9, 53700, Note_on_c, 45
9, 53759, Note_off_c, 45
9, 53760, Note_on_c, 46
9, 53819, Note_off_c, 46
9, 53820, Note_on_c, 43
9, 53879, Note_off_c, 43
9, 53880, Note_on_c, 48
9, 53939, Note_off_c, 48
9, 53940, Note_on_c, 36
9, 53999, Note_off_c, 36
9, 54000, Note_on_c, 41
9, 54119, Note_off_c, 41
9, 54180, Note_on_c, 45
9, 54239, Note_off_c, 45
9, 54240, Note_on_c, 46
9, 54359, Note_off_c, 46
9, 54420, Note_on_c, 46
9, 54479, Note_off_c, 46
9, 54480, Note_on_c, 48
9, 54599, Note_off_c, 48
9, 54660, Note_on_c, 45
9, 54719, Note_off_c, 45
9, 54720, Note_on_c, 50
9, 54839, Note_off_c, 50
9, 54960, Note_on_c, 50
9, 55079, Note_off_c, 50
9, 55200, Note_on_c, 50
9, 55319, Note_off_c, 50
9, 55440, Note_on_c, 50
9, 55559, Note_off_c, 50
9, 55680, Note_on_c, 50
9, 55799, Note_off_c, 50
9, 55920, Note_on_c, 50
9, 56039, Note_off_c, 50
9, 56160, Note_on_c, 50
9, 56279, Note_off_c, 50
9, 56400, Note_on_c, 50
9, 56519, Note_off_c, 50
9, 56640, Note_on_c, 50
9, 56759, Note_off_c, 50
9, 56880, Note_on_c, 50
9, 56999, Note_off_c, 50
9, 57150, Note_on_c, 50
9, 57179, Note_off_c, 50
9, 57180, Note_on_c, 48
9, 57209, Note_off_c, 48
9, 57210, Note_on_c, 50
9, 57239, Note_off_c, 50
9, 57240, Note_on_c, 46
9, 57269, Note_off_c, 46
9, 57270, Note_on_c, 50
9, 57299, Note_off_c, 50
9, 57300, Note_on_c, 45
9, 57329, Note_off_c, 45
9, 57330, Note_on_c, 50
9, 57359, Note_off_c, 50
9, 57360, Note_on_c, 43
9, 57389, Note_off_c, 43
9, 57390, Note_on_c, 55
9, 57419, Note_off_c, 55
9, 57420, Note_on_c, 53
9, 57449, Note_off_c, 53
9, 57450, Note_on_c, 55
9, 57479, Note_off_c, 55
9, 57480, Note_on_c, 51
9, 57509, Note_off_c, 51
9, 57510, Note_on_c, 55
9, 57539, Note_off_c, 55
9, 57540, Note_on_c, 50
9, 57569, Note_off_c, 50
9, 57570, Note_on_c, 55
9, 57599, Note_off_c, 55
9, 57600, Note_on_c, 48
9, 57629, Note_off_c, 48
9, 57630, Note_on_c, 48
9, 57659, Note_off_c, 48
9, 57660, Note_on_c, 46
9, 57689, Note_off_c, 46
9, 57690, Note_on_c, 48
9, 57719, Note_off_c, 48
9, 57720, Note_on_c, 45
9, 57749, Note_off_c, 45
9, 57750, Note_on_c, 48
9, 57779, Note_off_c, 48
9, 57780, Note_on_c, 43
9, 57809, Note_off_c, 43
9, 57810, Note_on_c, 48
9, 57839, Note_off_c, 48
9, 57840, Note_on_c, 41
9, 57869, Note_off_c, 41
9, 57870, Note_on_c, 53
9, 57899, Note_off_c, 53
9, 57900, Note_on_c, 51
9, 57929, Note_off_c, 51
9, 57930, Note_on_c, 53
9, 57959, Note_off_c, 53
9, 57960, Note_on_c, 50
9, 57989, Note_off_c, 50
9, 57990, Note_on_c, 53
9, 58019, Note_off_c, 53
9, 58020, Note_on_c, 48
9, 58049, Note_off_c, 48
9, 58050, Note_on_c, 53
9, 58079, Note_off_c, 53
9, 58080, Note_on_c, 46
9, 58139, Note_off_c, 46
9, 58140, Note_on_c, 51
9, 58199, Note_off_c, 51
9, 58200, Note_on_c, 53
9, 58259, Note_off_c, 53
9, 58260, Note_on_c, 41
9, 58319, Note_off_c, 41
9, 58320, Note_on_c, 43
9, 58379, Note_off_c, 43
9, 58380, Note_on_c, 48
9, 58439, Note_off_c, 48
9, 58440, Note_on_c, 50
9, 58499, Note_off_c, 50
9, 58500, Note_on_c, 38
9, 58559, Note_off_c, 38
9, 58560, Note_on_c, 43
9, 58679, Note_off_c, 43
9, 58710, Note_on_c, 45
9, 58739, Note_off_c, 45
9, 58740, Note_on_c, 43
9, 58769, Note_off_c, 43
9, 58770, Note_on_c, 45
9, 58799, Note_off_c, 45
9, 58800, Note_on_c, 41
9, 58859, Note_off_c, 41
9, 58860, Note_on_c, 38
9, 58919, Note_off_c, 38
9, 58920, Note_on_c, 45
9, 59039, Note_off_c, 45
9, 59040, Note_on_c, 38
9, 59759, Note_off_c, 38
9, 59940, Note_on_c, 50
9, 59999, Note_off_c, 50
9, 60000, Note_on_c, 45
9, 60059, Note_off_c, 45
9, 60060, Note_on_c, 41
9, 60119, Note_off_c, 41
9, 60120, Note_on_c, 43
9, 60179, Note_off_c, 43
9, 60180, Note_on_c, 45
9, 60239, Note_off_c, 45
9, 60240, Note_on_c, 41
9, 60299, Note_off_c, 41
9, 60300, Note_on_c, 38
9, 60359, Note_off_c, 38
9, 60360, Note_on_c, 43
9, 60419, Note_off_c, 43
9, 60420, Note_on_c, 45
9, 60479, Note_off_c, 45
9, 60480, Note_on_c, 46
9, 60719, Note_off_c, 46
9, 61920, Note_on_c, 49
9, 62159, Note_off_c, 49
9, 62160, Note_on_c, 53
9, 62339, Note_off_c, 53
9, 62340, Note_on_c, 50
9, 62399, Note_off_c, 50
9, 62400, Note_on_c, 44
9, 62639, Note_off_c, 44
9, 62670, Note_on_c, 56
9, 62699, Note_off_c, 56
9, 62700, Note_on_c, 59
9, 62729, Note_off_c, 59
9, 62730, Note_on_c, 53
9, 62759, Note_off_c, 53
9, 62760, Note_on_c, 55
9, 62789, Note_off_c, 55
9, 62790, Note_on_c, 50
9, 62819, Note_off_c, 50
9, 62820, Note_on_c, 53
9, 62849, Note_off_c, 53
9, 62850, Note_on_c, 47
9, 62879, Note_off_c, 47
9, 62880, Note_on_c, 50
9, 62909, Note_off_c, 50
9, 62910, Note_on_c, 44
9, 62939, Note_off_c, 44
9, 62940, Note_on_c, 45
9, 62999, Note_off_c, 45
9, 63000, Note_on_c, 40
9, 63599, Note_off_c, 40
9, 65220, Note_on_c, 52
9, 65279, Note_off_c, 52
9, 65280, Note_on_c, 55
9, 65339, Note_off_c, 55
9, 65460, Note_on_c, 55
9, 65519, Note_off_c, 55
9, 65520, Note_on_c, 53
9, 65579, Note_off_c, 53
9, 65700, Note_on_c, 53
9, 65759, Note_off_c, 53
9, 65760, Note_on_c, 53
9, 65819, Note_off_c, 53
9, 65940, Note_on_c, 53
9, 65999, Note_off_c, 53
9, 66000, Note_on_c, 52
9, 66059, Note_off_c, 52
9, 66180, Note_on_c, 52
9, 66239, Note_off_c, 52
9, 66240, Note_on_c, 52
9, 66299, Note_off_c, 52
9, 66420, Note_on_c, 52
9, 66479, Note_off_c, 52
9, 66480, Note_on_c, 50
9, 66539, Note_off_c, 50
9, 66660, Note_on_c, 50
9, 66719, Note_off_c, 50
9, 66720, Note_on_c, 49
9, 66779, Note_off_c, 49
9, 66900, Note_on_c, 49
9, 66959, Note_off_c, 49
9, 66960, Note_on_c, 48
9, 67019, Note_off_c, 48
9, 67140, Note_on_c, 48
9, 67199, Note_off_c, 48
9, 67200, Note_on_c, 43
9, 67319, Note_off_c, 43
9, 67320, Note_on_c, 46
9, 67439, Note_off_c, 46
9, 67440, Note_on_c, 40
9, 67559, Note_off_c, 40
9, 67560, Note_on_c, 41
9, 67679, Note_off_c, 41
9, 67680, Note_on_c, 45
9, 67919, Note_off_c, 45
9, 67920, Note_on_c, 46
9, 68039, Note_off_c, 46
9, 68040, Note_on_c, 43
9, 68159, Note_off_c, 43
9, 68160, Note_on_c, 50
9, 68160, Note_on_c, 38
9, 68639, Note_off_c, 38
9, 68639, Note_off_c, 50
9, 68639, End_track
10, 25440, Note_on_c, 67
10, 25469, Note_off_c, 67
10, 25470, Note_on_c, 70
10, 25499, Note_off_c, 70
10, 25500, Note_on_c, 69
10, 25529, Note_off_c, 69
10, 25530, Note_on_c, 70
10, 25559, Note_off_c, 70
10, 25560, Note_on_c, 67
10, 25589, Note_off_c, 67
10, 25590, Note_on_c, 69
10, 25619, Note_off_c, 69
10, 25620, Note_on_c, 65
10, 25649, Note_off_c, 65
10, 25650, Note_on_c, 67
10, 25679, Note_off_c, 67
10, 25680, Note_on_c, 64
10, 25709, Note_off_c, 64
10, 25710, Note_on_c, 72
10, 25739, Note_off_c, 72
10, 25740, Note_on_c, 70
10, 25769, Note_off_c, 70
10, 25770, Note_on_c, 72
10, 25799, Note_off_c, 72
10, 25800, Note_on_c, 69
10, 25829, Note_off_c, 69
10, 25830, Note_on_c, 70
10, 25859, Note_off_c, 70
10, 25860, Note_on_c, 67
10, 25889, Note_off_c, 67
10, 25890, Note_on_c, 69
10, 25919, Note_off_c, 69
10, 25920, Note_on_c, 65
10, 25949, Note_off_c, 65
10, 25950, Note_on_c, 74
10, 25979, Note_off_c, 74
10, 25980, Note_on_c, 72
10, 26009, Note_off_c, 72
10, 26010, Note_on_c, 74
10, 26039, Note_off_c, 74
10, 26040, Note_on_c, 70
10, 26069, Note_off_c, 70
10, 26070, Note_on_c, 72
10, 26099, Note_off_c, 72
10, 26100, Note_on_c, 69
10, 26129, Note_off_c, 69
10, 26130, Note_on_c, 70
10, 26159, Note_off_c, 70
10, 26160, Note_on_c, 67
10, 26189, Note_off_c, 67
10, 26190, Note_on_c, 76
10, 26219, Note_off_c, 76
10, 26220, Note_on_c, 74
10, 26249, Note_off_c, 74
10, 26250, Note_on_c, 76
10, 26279, Note_off_c, 76
10, 26280, Note_on_c, 72
10, 26309, Note_off_c, 72
10, 26310, Note_on_c, 74
10, 26339, Note_off_c, 74
10, 26340, Note_on_c, 70
10, 26369, Note_off_c, 70
10, 26370, Note_on_c, 72
10, 26399, Note_off_c, 72
10, 26400, Note_on_c, 69
10, 26459, Note_off_c, 69
10, 26460, Note_on_c, 65
10, 26519, Note_off_c, 65
10, 26520, Note_on_c, 70
10, 26549, Note_off_c, 70
10, 26550, Note_on_c, 69
10, 26579, Note_off_c, 69
10, 26580, Note_on_c, 67
10, 26609, Note_off_c, 67
10, 26610, Note_on_c, 65
10, 26639, Note_off_c, 65
10, 26640, Note_on_c, 67
10, 26669, Note_off_c, 67
10, 26670, Note_on_c, 70
10, 26699, Note_off_c, 70
10, 26700, Note_on_c, 67
10, 26729, Note_off_c, 67
10, 26730, Note_on_c, 65
10, 26759, Note_off_c, 65
10, 26760, Note_on_c, 64
10, 26789, Note_off_c, 64
10, 26790, Note_on_c, 67
10, 26819, Note_off_c, 67
10, 26820, Note_on_c, 64
10, 26849, Note_off_c, 64
10, 26850, Note_on_c, 62
10, 26879, Note_off_c, 62
10, 26880, Note_on_c, 60
10, 26909, Note_off_c, 60
10, 26910, Note_on_c, 62
10, 26939, Note_off_c, 62
10, 26940, Note_on_c, 64
10, 26969, Note_off_c, 64
10, 26970, Note_on_c, 65
10, 26999, Note_off_c, 65
10, 27000, Note_on_c, 67
10, 27059, Note_off_c, 67
10, 27060, Note_on_c, 64
10, 27119, Note_off_c, 64
10, 27120, Note_on_c, 65
10, 27239, Note_off_c, 65
10, 28230, Note_on_c, 63
10, 28259, Note_off_c, 63
10, 28260, Note_on_c, 62
10, 28289, Note_off_c, 62
10, 28290, Note_on_c, 60
10, 28319, Note_off_c, 60
10, 28320, Note_on_c, 58
10, 28379, Note_off_c, 58
10, 28470, Note_on_c, 65
10, 28499, Note_off_c, 65
10, 28500, Note_on_c, 64
10, 28529, Note_off_c, 64
10, 28530, Note_on_c, 62
10, 28559, Note_off_c, 62
10, 28560, Note_on_c, 60
10, 28619, Note_off_c, 60
10, 28710, Note_on_c, 67
10, 28739, Note_off_c, 67
10, 28740, Note_on_c, 65
10, 28769, Note_off_c, 65
10, 28770, Note_on_c, 64
10, 28799, Note_off_c, 64
10, 28800, Note_on_c, 62
10, 28859, Note_off_c, 62
10, 28950, Note_on_c, 69
10, 28979, Note_off_c, 69
10, 28980, Note_on_c, 67
10, 29009, Note_off_c, 67
10, 29010, Note_on_c, 65
10, 29039, Note_off_c, 65
10, 29040, Note_on_c, 64
10, 29099, Note_off_c, 64
10, 29190, Note_on_c, 70
10, 29219, Note_off_c, 70
10, 29220, Note_on_c, 69
10, 29249, Note_off_c, 69
10, 29250, Note_on_c, 67
10, 29279, Note_off_c, 67
10, 29280, Note_on_c, 65
10, 29339, Note_off_c, 65
10, 29400, Note_on_c, 72
10, 29459, Note_off_c, 72
10, 29520, Note_on_c, 65
10, 29579, Note_off_c, 65
10, 29640, Note_on_c, 72
10, 29699, Note_off_c, 72
10, 29760, Note_on_c, 64
10, 29819, Note_off_c, 64
10, 29880, Note_on_c, 72
10, 29939, Note_off_c, 72
10, 30000, Note_on_c, 64
10, 30059, Note_off_c, 64
10, 30120, Note_on_c, 72
10, 30179, Note_off_c, 72
10, 30240, Note_on_c, 65
10, 30299, Note_off_c, 65
10, 30360, Note_on_c, 72
10, 30419, Note_off_c, 72
10, 30480, Note_on_c, 65
10, 30539, Note_off_c, 65
10, 30600, Note_on_c, 72
10, 30659, Note_off_c, 72
10, 30720, Note_on_c, 64
10, 30779, Note_off_c, 64
10, 30840, Note_on_c, 72
10, 30899, Note_off_c, 72
10, 30960, Note_on_c, 64
10, 31019, Note_off_c, 64
10, 31080, Note_on_c, 72
10, 31139, Note_off_c, 72
10, 31200, Note_on_c, 62
10, 31259, Note_off_c, 62
10, 31350, Note_on_c, 72
10, 31379, Note_off_c, 72
10, 31380, Note_on_c, 71
10, 31409, Note_off_c, 71
10, 31410, Note_on_c, 69
10, 31439, Note_off_c, 69
10, 31440, Note_on_c, 71
10, 31469, Note_off_c, 71
10, 31470, Note_on_c, 67
10, 31499, Note_off_c, 67
10, 31500, Note_on_c, 71
10, 31529, Note_off_c, 71
10, 31530, Note_on_c, 74
10, 31559, Note_off_c, 74
10, 31680, Note_on_c, 71
10, 31709, Note_off_c, 71
10, 31710, Note_on_c, 67
10, 31739, Note_off_c, 67
10, 31740, Note_on_c, 71
10, 31769, Note_off_c, 71
10, 31770, Note_on_c, 74
10, 31799, Note_off_c, 74
10, 31920, Note_on_c, 70
10, 31949, Note_off_c, 70
10, 31950, Note_on_c, 67
10, 31979, Note_off_c, 67
10, 31980, Note_on_c, 70
10, 32009, Note_off_c, 70
10, 32010, Note_on_c, 72
10, 32039, Note_off_c, 72
10, 32160, Note_on_c, 70
10, 32189, Note_off_c, 70
10, 32190, Note_on_c, 67
10, 32219, Note_off_c, 67
10, 32220, Note_on_c, 70
10, 32249, Note_off_c, 70
10, 32250, Note_on_c, 72
10, 32279, Note_off_c, 72
10, 32400, Note_on_c, 69
10, 32429, Note_off_c, 69
10, 32430, Note_on_c, 65
10, 32459, Note_off_c, 65
10, 32460, Note_on_c, 69
10, 32489, Note_off_c, 69
10, 32490, Note_on_c, 72
10, 32519, Note_off_c, 72
10, 32640, Note_on_c, 69
10, 32669, Note_off_c, 69
10, 32670, Note_on_c, 65
10, 32699, Note_off_c, 65
10, 32700, Note_on_c, 69
10, 32729, Note_off_c, 69
10, 32730, Note_on_c, 72
10, 32759, Note_off_c, 72
10, 32880, Note_on_c, 67
10, 32909, Note_off_c, 67
10, 32910, Note_on_c, 64
10, 32939, Note_off_c, 64
10, 32940, Note_on_c, 67
10, 32969, Note_off_c, 67
10, 32970, Note_on_c, 70
10, 32999, Note_off_c, 70
10, 33120, Note_on_c, 67
10, 33149, Note_off_c, 67
10, 33150, Note_on_c, 64
10, 33179, Note_off_c, 64
10, 33180, Note_on_c, 67
10, 33209, Note_off_c, 67
10, 33210, Note_on_c, 70
10, 33239, Note_off_c, 70
10, 47670, Note_on_c, 70
10, 47699, Note_off_c, 70
10, 47700, Note_on_c, 69
10, 47729, Note_off_c, 69
10, 47730, Note_on_c, 67
10, 47759, Note_off_c, 67
10, 47790, Note_on_c, 63
10, 47819, Note_off_c, 63
10, 47820, Note_on_c, 62
10, 47849, Note_off_c, 62
10, 47850, Note_on_c, 60
10, 47879, Note_off_c, 60
10, 47880, Note_on_c, 62
10, 47909, Note_off_c, 62
10, 47910, Note_on_c, 60
10, 47939, Note_off_c, 60
10, 47940, Note_on_c, 58
10, 47969, Note_off_c, 58
10, 47970, Note_on_c, 57
10, 47999, Note_off_c, 57
10, 48000, Note_on_c, 67
10, 48029, Note_off_c, 67
10, 48030, Note_on_c, 65
10, 48059, Note_off_c, 65
10, 48060, Note_on_c, 63
10, 48089, Note_off_c, 63
10, 48090, Note_on_c, 62
10, 48119, Note_off_c, 62
10, 48360, Note_on_c, 69
10, 48389, Note_off_c, 69
10, 48390, Note_on_c, 67
10, 48419, Note_off_c, 67
10, 48420, Note_on_c, 69
10, 48449, Note_off_c, 69
10, 48450, Note_on_c, 65
10, 48479, Note_off_c, 65
10, 48480, Note_on_c, 67
10, 48509, Note_off_c, 67
10, 48510, Note_on_c, 69
10, 48539, Note_off_c, 69
10, 48540, Note_on_c, 67
10, 48569, Note_off_c, 67
10, 48570, Note_on_c, 69
10, 48599, Note_off_c, 69
10, 48600, Note_on_c, 70
10, 48629, Note_off_c, 70
10, 48630, Note_on_c, 69
10, 48659, Note_off_c, 69
10, 48660, Note_on_c, 67
10, 48689, Note_off_c, 67
10, 48690, Note_on_c, 69
10, 48719, Note_off_c, 69
10, 48720, Note_on_c, 69
10, 48720, Note_on_c, 65
10, 48749, Note_off_c, 65
10, 48749, Note_off_c, 69
10, 48750, Note_on_c, 70
10, 48750, Note_on_c, 67
10, 48779, Note_off_c, 67
10, 48779, Note_off_c, 70
10, 48780, Note_on_c, 67
10, 48780, Note_on_c, 64
10, 48809, Note_off_c, 64
10, 48809, Note_off_c, 67
10, 48810, Note_on_c, 69
10, 48810, Note_on_c, 65
10, 48839, Note_off_c, 65
10, 48839, Note_off_c, 69
10, 48840, Note_on_c, 65
10, 48840, Note_on_c, 62
10, 48869, Note_off_c, 62
10, 48870, Note_on_c, 60
10, 48899, Note_off_c, 60
10, 48899, Note_off_c, 65
10, 48900, Note_on_c, 69
10, 48900, Note_on_c, 58
10, 48929, Note_off_c, 58
10, 48930, Note_on_c, 57
10, 48959, Note_off_c, 57
10, 48959, Note_off_c, 69
10, 48960, Note_on_c, 67
10, 49019, Note_off_c, 67
10, 49020, Note_on_c, 69
10, 49079, Note_off_c, 69
10, 49080, Note_on_c, 67
10, 49139, Note_off_c, 67
10, 49140, Note_on_c, 65
10, 49199, Note_off_c, 65
10, 49200, Note_on_c, 67
10, 49259, Note_off_c, 67
10, 49260, Note_on_c, 65
10, 49319, Note_off_c, 65
10, 49320, Note_on_c, 64
10, 49379, Note_off_c, 64
10, 49380, Note_on_c, 69
10, 49439, Note_off_c, 69
10, 49440, Note_on_c, 70
10, 49499, Note_off_c, 70
10, 49500, Note_on_c, 69
10, 49559, Note_off_c, 69
10, 49560, Note_on_c, 67
10, 49619, Note_off_c, 67
10, 49620, Note_on_c, 65
10, 49679, Note_off_c, 65
10, 49680, Note_on_c, 69
10, 49739, Note_off_c, 69
10, 49740, Note_on_c, 76
10, 49799, Note_off_c, 76
10, 49800, Note_on_c, 74
10, 49859, Note_off_c, 74
10, 49860, Note_on_c, 69
10, 49919, Note_off_c, 69
10, 49920, Note_on_c, 67
10, 49979, Note_off_c, 67
10, 49980, Note_on_c, 67
10, 50039, Note_off_c, 67
10, 50040, Note_on_c, 69
10, 50099, Note_off_c, 69
10, 50100, Note_on_c, 65
10, 50159, Note_off_c, 65
10, 50159, End_track
