0, 0, Header, 0, 1, 480
1, 0, Start_track
1, 0, Sequencer_specific, 3, 0, 0, 65
1, 0, Title_t, "eEMPIRE.SB16"
1, 0, SMPTE_offset, 96, 0, 0, 0, 0
1, 0, Time_signature, 4, 2, 24, 8
1, 0, Program_c, 1, 48
1, 0, Control_c, 1, 7, 110
1, 2, Program_c, 1, 48
1, 2, Control_c, 1, 7, 110
1, 3, Program_c, 2, 48
1, 3, Control_c, 2, 7, 90
1, 5, Program_c, 4, 43
1, 5, Control_c, 4, 7, 120
1, 7, Program_c, 6, 47
1, 7, Control_c, 6, 7, 110
1, 8, Program_c, 7, 48
1, 10, Program_c, 9, 0
1, 10, Control_c, 9, 7, 100
1, 1920, Note_on_c, 1, 43, 114
1, 1920, Tempo, 588235
1, 1920, Note_on_c, 4, 31, 114
1, 1920, Note_on_c, 9, 38, 50
1, 1975, Note_off_c, 9, 38, 64
1, 2118, Note_off_c, 1, 43, 64
1, 2118, Note_off_c, 4, 31, 64
1, 2398, Note_on_c, 1, 43, 107
1, 2398, Note_on_c, 4, 31, 107
1, 2405, Note_on_c, 9, 38, 52
1, 2466, Note_off_c, 9, 38, 64
1, 2558, Note_off_c, 1, 43, 64
1, 2558, Note_off_c, 4, 31, 64
1, 2630, Note_on_c, 1, 43, 120
1, 2630, Note_on_c, 4, 31, 120
1, 2650, Note_on_c, 9, 38, 46
1, 2697, Note_off_c, 9, 38, 64
1, 2700, Note_off_c, 1, 43, 64
1, 2700, Note_off_c, 4, 31, 64
1, 2710, Note_on_c, 1, 43, 100
1, 2710, Note_on_c, 4, 31, 100
1, 2730, Note_on_c, 9, 38, 37
1, 2777, Note_off_c, 9, 38, 64
1, 2780, Note_off_c, 1, 43, 64
1, 2780, Note_off_c, 4, 31, 64
1, 2788, Note_on_c, 1, 43, 107
1, 2788, Note_on_c, 4, 31, 107
1, 2808, Note_on_c, 9, 38, 55
1, 2849, Note_off_c, 1, 43, 64
1, 2849, Note_off_c, 4, 31, 64
1, 2866, Note_off_c, 9, 38, 64
1, 2878, Note_on_c, 1, 43, 100
1, 2878, Note_on_c, 4, 31, 100
1, 2880, Note_on_c, 9, 38, 68
1, 2948, Note_off_c, 9, 38, 64
1, 2998, Note_off_c, 1, 43, 64
1, 2998, Note_off_c, 4, 31, 64
1, 3115, Note_on_c, 1, 43, 100
1, 3115, Note_on_c, 4, 31, 100
1, 3128, Note_on_c, 9, 38, 47
1, 3186, Note_off_c, 9, 38, 64
1, 3198, Note_on_c, 1, 43, 102
1, 3198, Note_on_c, 4, 31, 102
1, 3199, Note_off_c, 1, 43, 64
1, 3199, Note_off_c, 4, 31, 64
1, 3199, Note_off_c, 1, 43, 64
1, 3199, Note_off_c, 4, 31, 64
1, 3203, Note_on_c, 9, 38, 46
1, 3275, Note_off_c, 9, 38, 64
1, 3278, Note_on_c, 1, 43, 120
1, 3278, Note_on_c, 4, 31, 120
1, 3288, Note_on_c, 9, 38, 50
1, 3353, Note_off_c, 1, 43, 64
1, 3353, Note_off_c, 4, 31, 64
1, 3353, Note_on_c, 4, 27, 112
1, 3354, Note_off_c, 9, 38, 64
1, 3358, Note_on_c, 2, 66, 110
1, 3360, Note_on_c, 1, 51, 110
1, 3360, Note_on_c, 2, 70, 95
1, 3360, Note_on_c, 2, 75, 110
1, 3363, Note_on_c, 9, 38, 48
1, 3412, Note_off_c, 4, 27, 64
1, 3414, Note_off_c, 1, 51, 64
1, 3419, Note_off_c, 2, 75, 64
1, 3430, Note_on_c, 4, 27, 120
1, 3432, Note_off_c, 2, 66, 64
1, 3435, Note_off_c, 9, 38, 64
1, 3435, Note_on_c, 2, 66, 104
1, 3438, Note_off_c, 2, 70, 64
1, 3438, Note_on_c, 1, 51, 120
1, 3438, Note_on_c, 2, 75, 120
1, 3440, Note_on_c, 6, 39, 59
1, 3443, Note_on_c, 2, 70, 95
1, 3445, Note_on_c, 9, 38, 58
1, 3490, Note_off_c, 6, 39, 64
1, 3497, Note_off_c, 1, 51, 64
1, 3498, Note_off_c, 4, 27, 64
1, 3502, Note_off_c, 2, 75, 64
1, 3508, Note_on_c, 4, 27, 109
1, 3510, Note_off_c, 2, 70, 64
1, 3510, Note_on_c, 2, 66, 114
1, 3513, Note_off_c, 2, 66, 64
1, 3513, Note_off_c, 9, 38, 64
1, 3513, Note_off_c, 2, 66, 64
1, 3515, Note_on_c, 1, 51, 103
1, 3515, Note_on_c, 2, 75, 103
1, 3520, Note_on_c, 6, 39, 68
1, 3523, Note_on_c, 9, 38, 71
1, 3525, Note_on_c, 2, 70, 95
1, 3562, Note_off_c, 4, 27, 64
1, 3577, Note_off_c, 1, 51, 64
1, 3578, Note_off_c, 6, 39, 64
1, 3582, Note_off_c, 2, 75, 64
1, 3584, Note_off_c, 2, 70, 64
1, 3590, Note_on_c, 4, 27, 109
1, 3595, Note_off_c, 9, 38, 64
1, 3595, Note_on_c, 1, 51, 120
1, 3595, Note_on_c, 2, 75, 120
1, 3595, Note_on_c, 2, 66, 120
1, 3600, Note_on_c, 6, 39, 99
1, 3600, Note_on_c, 2, 70, 95
1, 3610, Note_on_c, 9, 38, 64
1, 3647, Note_off_c, 2, 75, 64
1, 3650, Note_off_c, 6, 39, 64
1, 3656, Note_off_c, 1, 51, 64
1, 3667, Note_off_c, 2, 70, 64
1, 3669, Note_off_c, 2, 66, 64
1, 3676, Note_off_c, 9, 38, 64
1, 3691, Note_off_c, 4, 27, 64
1, 3843, Note_on_c, 4, 31, 120
1, 3843, Note_on_c, 1, 43, 120
1, 3848, Note_on_c, 9, 38, 64
1, 3914, Note_off_c, 9, 38, 64
1, 4043, Note_off_c, 4, 31, 64
1, 4043, Note_off_c, 1, 43, 64
1, 4315, Note_on_c, 9, 38, 66
1, 4325, Note_on_c, 4, 31, 109
1, 4325, Note_on_c, 1, 43, 109
1, 4383, Note_off_c, 9, 38, 64
1, 4485, Note_off_c, 4, 31, 64
1, 4485, Note_off_c, 1, 43, 64
1, 4563, Note_on_c, 9, 38, 60
1, 4563, Note_on_c, 4, 31, 114
1, 4563, Note_on_c, 1, 43, 114
1, 4621, Note_off_c, 4, 31, 64
1, 4621, Note_off_c, 1, 43, 64
1, 4624, Note_off_c, 9, 38, 64
1, 4643, Note_on_c, 4, 31, 100
1, 4643, Note_on_c, 1, 43, 100
1, 4645, Note_on_c, 9, 38, 35
1, 4696, Note_off_c, 4, 31, 64
1, 4696, Note_off_c, 1, 43, 64
1, 4700, Note_off_c, 9, 38, 64
1, 4720, Note_on_c, 4, 31, 120
1, 4720, Note_on_c, 1, 43, 120
1, 4723, Note_on_c, 9, 38, 64
1, 4789, Note_off_c, 9, 38, 64
1, 4790, Note_off_c, 4, 31, 64
1, 4790, Note_off_c, 1, 43, 64
1, 4800, Note_on_c, 4, 31, 112
1, 4800, Note_on_c, 1, 43, 112
1, 4800, Note_on_c, 9, 38, 60
1, 4868, Note_off_c, 9, 38, 64
1, 4920, Note_off_c, 4, 31, 64
1, 4920, Note_off_c, 1, 43, 64
1, 5045, Note_on_c, 9, 38, 48
1, 5058, Note_on_c, 4, 31, 105
1, 5058, Note_on_c, 1, 43, 105
1, 5100, Note_off_c, 9, 38, 64
1, 5125, Note_on_c, 9, 38, 50
1, 5133, Note_off_c, 4, 31, 64
1, 5133, Note_off_c, 1, 43, 64
1, 5140, Note_on_c, 4, 31, 100
1, 5140, Note_on_c, 1, 43, 100
1, 5197, Note_off_c, 9, 38, 64
1, 5203, Note_off_c, 4, 31, 64
1, 5203, Note_off_c, 1, 43, 64
1, 5205, Note_on_c, 9, 38, 61
1, 5210, Note_on_c, 4, 31, 107
1, 5210, Note_on_c, 1, 43, 107
1, 5273, Note_off_c, 9, 38, 64
1, 5280, Note_on_c, 2, 75, 101
1, 5280, Note_on_c, 2, 66, 110
1, 5280, Note_on_c, 1, 51, 101
1, 5282, Note_off_c, 4, 31, 64
1, 5282, Note_off_c, 1, 43, 64
1, 5283, Note_on_c, 2, 70, 106
1, 5285, Note_on_c, 9, 38, 52
1, 5288, Note_on_c, 4, 27, 105
1, 5335, Note_off_c, 4, 27, 64
1, 5339, Note_off_c, 1, 51, 64
1, 5344, Note_off_c, 2, 75, 64
1, 5346, Note_off_c, 9, 38, 64
1, 5354, Note_off_c, 2, 66, 64
1, 5354, Note_off_c, 2, 70, 64
1, 5358, Note_on_c, 2, 66, 104
1, 5360, Note_on_c, 6, 39, 74
1, 5360, Note_on_c, 1, 51, 116
1, 5360, Note_on_c, 2, 75, 116
1, 5363, Note_on_c, 2, 70, 95
1, 5365, Note_on_c, 9, 38, 64
1, 5365, Note_on_c, 4, 27, 120
1, 5410, Note_off_c, 6, 39, 64
1, 5428, Note_off_c, 1, 51, 64
1, 5430, Note_off_c, 2, 70, 64
1, 5431, Note_off_c, 2, 75, 64
1, 5431, Note_off_c, 9, 38, 64
1, 5433, Note_on_c, 2, 66, 114
1, 5436, Note_off_c, 2, 66, 64
1, 5436, Note_off_c, 4, 27, 64
1, 5436, Note_off_c, 2, 66, 64
1, 5438, Note_on_c, 1, 51, 110
1, 5438, Note_on_c, 4, 27, 120
1, 5438, Note_on_c, 2, 75, 110
1, 5440, Note_on_c, 6, 39, 99
1, 5443, Note_on_c, 2, 70, 95
1, 5445, Note_on_c, 9, 38, 51
1, 5492, Note_off_c, 1, 51, 64
1, 5497, Note_off_c, 4, 27, 64
1, 5497, Note_off_c, 2, 75, 64
1, 5498, Note_off_c, 6, 39, 64
1, 5510, Note_off_c, 2, 70, 64
1, 5513, Note_off_c, 9, 38, 64
1, 5515, Note_on_c, 2, 66, 120
1, 5518, Note_on_c, 2, 70, 95
1, 5520, Note_on_c, 1, 51, 120
1, 5520, Note_on_c, 4, 27, 120
1, 5520, Note_on_c, 6, 39, 78
1, 5520, Note_on_c, 2, 75, 120
1, 5525, Note_on_c, 9, 38, 60
1, 5570, Note_off_c, 6, 39, 64
1, 5574, Note_off_c, 1, 51, 64
1, 5579, Note_off_c, 2, 75, 64
1, 5588, Note_off_c, 4, 27, 64
1, 5591, Note_off_c, 9, 38, 64
1, 5593, Note_off_c, 2, 66, 64
1, 5604, Note_off_c, 2, 70, 64
1, 5760, Control_c, 7, 7, 120
1, 5760, Note_on_c, 9, 38, 78
1, 5768, Note_on_c, 1, 43, 120
1, 5768, Note_on_c, 4, 31, 120
1, 5818, Note_off_c, 9, 38, 64
1, 5968, Note_off_c, 1, 43, 64
1, 5968, Note_off_c, 4, 31, 64
1, 6243, Note_on_c, 9, 38, 71
1, 6248, Note_on_c, 1, 43, 120
1, 6248, Note_on_c, 4, 31, 120
1, 6309, Note_off_c, 9, 38, 64
1, 6408, Note_off_c, 1, 43, 64
1, 6408, Note_off_c, 4, 31, 64
1, 6485, Note_on_c, 9, 38, 57
1, 6490, Note_on_c, 1, 43, 114
1, 6490, Note_on_c, 4, 31, 114
1, 6536, Note_off_c, 1, 43, 64
1, 6536, Note_off_c, 4, 31, 64
1, 6553, Note_off_c, 9, 38, 64
1, 6568, Note_on_c, 9, 38, 41
1, 6568, Note_on_c, 1, 43, 100
1, 6568, Note_on_c, 4, 31, 100
1, 6619, Note_off_c, 1, 43, 64
1, 6619, Note_off_c, 4, 31, 64
1, 6626, Note_off_c, 9, 38, 64
1, 6643, Note_on_c, 9, 38, 75
1, 6648, Note_on_c, 1, 43, 120
1, 6648, Note_on_c, 4, 31, 120
1, 6708, Note_off_c, 1, 43, 64
1, 6708, Note_off_c, 4, 31, 64
1, 6709, Note_off_c, 9, 38, 64
1, 6723, Note_on_c, 1, 43, 120
1, 6723, Note_on_c, 4, 31, 120
1, 6725, Note_on_c, 9, 38, 60
1, 6791, Note_off_c, 9, 38, 64
1, 6843, Note_off_c, 1, 43, 64
1, 6843, Note_off_c, 4, 31, 64
1, 6968, Note_on_c, 1, 43, 109
1, 6968, Note_on_c, 4, 31, 109
1, 6975, Note_on_c, 9, 38, 64
1, 7030, Note_off_c, 9, 38, 64
1, 7043, Note_off_c, 1, 43, 64
1, 7043, Note_off_c, 4, 31, 64
1, 7045, Note_on_c, 1, 43, 100
1, 7045, Note_on_c, 4, 31, 100
1, 7055, Note_on_c, 9, 38, 50
1, 7120, Note_off_c, 1, 43, 64
1, 7120, Note_off_c, 4, 31, 64
1, 7121, Note_off_c, 9, 38, 64
1, 7125, Note_on_c, 1, 43, 109
1, 7125, Note_on_c, 4, 31, 109
1, 7125, Note_on_c, 9, 38, 66
1, 7190, Note_on_c, 7, 66, 110
1, 7197, Note_off_c, 9, 38, 64
1, 7198, Note_on_c, 1, 51, 95
1, 7200, Note_on_c, 2, 70, 120
1, 7200, Note_on_c, 2, 70, 112
1, 7203, Note_on_c, 4, 27, 109
1, 7205, Note_on_c, 9, 38, 55
1, 7217, Note_off_c, 1, 43, 64
1, 7217, Note_off_c, 4, 31, 64
1, 7240, Note_off_c, 7, 66, 64
1, 7266, Note_off_c, 4, 27, 64
1, 7268, Note_on_c, 7, 66, 116
1, 7270, Note_off_c, 1, 51, 64
1, 7270, Note_off_c, 2, 70, 64
1, 7270, Note_off_c, 2, 70, 64
1, 7275, Note_on_c, 1, 51, 116
1, 7277, Note_off_c, 9, 38, 64
1, 7278, Note_on_c, 2, 70, 95
1, 7280, Note_on_c, 6, 39, 78
1, 7280, Note_on_c, 9, 38, 70
1, 7280, Note_on_c, 2, 70, 95
1, 7283, Note_on_c, 4, 27, 120
1, 7321, Note_off_c, 7, 66, 64
1, 7328, Note_off_c, 6, 39, 64
1, 7348, Note_off_c, 2, 70, 64
1, 7348, Note_off_c, 2, 70, 64
1, 7348, Note_on_c, 7, 66, 120
1, 7350, Note_off_c, 1, 51, 64
1, 7352, Note_off_c, 9, 38, 64
1, 7355, Note_off_c, 4, 27, 64
1, 7355, Note_on_c, 1, 51, 95
1, 7360, Note_on_c, 6, 39, 95
1, 7360, Note_on_c, 9, 38, 64
1, 7360, Note_on_c, 2, 70, 95
1, 7363, Note_on_c, 4, 27, 120
1, 7365, Note_on_c, 2, 70, 114
1, 7393, Note_off_c, 7, 66, 64
1, 7410, Note_off_c, 6, 39, 64
1, 7418, Note_off_c, 1, 51, 64
1, 7429, Note_off_c, 4, 27, 64
1, 7430, Note_off_c, 2, 70, 64
1, 7430, Note_off_c, 2, 70, 64
1, 7430, Note_on_c, 7, 66, 120
1, 7432, Note_off_c, 9, 38, 64
1, 7435, Note_on_c, 1, 51, 120
1, 7435, Note_on_c, 2, 70, 95
1, 7438, Note_on_c, 2, 70, 105
1, 7440, Note_on_c, 6, 39, 89
1, 7445, Note_on_c, 4, 27, 120
1, 7450, Note_on_c, 9, 38, 55
1, 7480, Note_off_c, 7, 66, 64
1, 7490, Note_off_c, 6, 39, 64
1, 7498, Note_off_c, 1, 51, 64
1, 7505, Note_off_c, 2, 70, 64
1, 7505, Note_off_c, 2, 70, 64
1, 7516, Note_off_c, 9, 38, 64
1, 7525, Note_off_c, 4, 27, 64
1, 7670, Note_on_c, 1, 43, 120
1, 7670, Note_on_c, 4, 31, 120
1, 7680, Program_c, 0, 56
1, 7680, Program_c, 5, 57
1, 7680, Control_c, 0, 7, 110
1, 7680, Control_c, 5, 7, 110
1, 7685, Note_on_c, 9, 38, 61
1, 7746, Note_off_c, 9, 38, 64
1, 7870, Note_off_c, 1, 43, 64
1, 7870, Note_off_c, 4, 31, 64
1, 8160, Note_on_c, 1, 43, 120
1, 8160, Note_on_c, 4, 31, 120
1, 8163, Note_on_c, 9, 38, 75
1, 8224, Note_off_c, 9, 38, 64
1, 8320, Note_off_c, 1, 43, 64
1, 8320, Note_off_c, 4, 31, 64
1, 8400, Note_on_c, 1, 43, 120
1, 8400, Note_on_c, 4, 31, 120
1, 8403, Note_on_c, 9, 38, 57
1, 8464, Note_off_c, 9, 38, 64
1, 8468, Note_off_c, 1, 43, 64
1, 8468, Note_off_c, 4, 31, 64
1, 8480, Note_on_c, 1, 43, 100
1, 8480, Note_on_c, 4, 31, 100
1, 8483, Note_on_c, 9, 38, 50
1, 8542, Note_off_c, 1, 43, 64
1, 8542, Note_off_c, 4, 31, 64
1, 8555, Note_off_c, 9, 38, 64
1, 8560, Note_on_c, 1, 43, 120
1, 8560, Note_on_c, 4, 31, 120
1, 8565, Note_on_c, 9, 38, 62
1, 8631, Note_off_c, 1, 43, 64
1, 8631, Note_off_c, 4, 31, 64
1, 8633, Note_off_c, 9, 38, 64
1, 8635, Note_on_c, 1, 43, 120
1, 8635, Note_on_c, 4, 31, 120
1, 8640, Note_on_c, 9, 38, 75
1, 8714, Note_off_c, 9, 38, 64
1, 8755, Note_off_c, 1, 43, 64
1, 8755, Note_off_c, 4, 31, 64
1, 8878, Note_on_c, 1, 43, 120
1, 8878, Note_on_c, 4, 31, 120
1, 8885, Note_on_c, 9, 38, 64
1, 8950, Note_off_c, 1, 43, 64
1, 8950, Note_off_c, 4, 31, 64
1, 8951, Note_off_c, 9, 38, 64
1, 8960, Note_on_c, 1, 43, 100
1, 8960, Note_on_c, 4, 31, 100
1, 8968, Note_on_c, 9, 38, 50
1, 9018, Note_off_c, 1, 43, 64
1, 9018, Note_off_c, 4, 31, 64
1, 9038, Note_on_c, 1, 43, 107
1, 9038, Note_on_c, 4, 31, 107
1, 9040, Note_off_c, 9, 38, 64
1, 9048, Note_on_c, 9, 38, 60
1, 9114, Note_off_c, 1, 43, 64
1, 9114, Note_off_c, 4, 31, 64
1, 9114, Note_off_c, 9, 38, 64
1, 9118, Note_on_c, 7, 66, 104
1, 9118, Note_on_c, 2, 70, 101
1, 9118, Note_on_c, 2, 75, 120
1, 9118, Note_on_c, 1, 51, 101
1, 9120, Note_on_c, 4, 27, 102
1, 9123, Note_on_c, 9, 38, 68
1, 9166, Note_off_c, 7, 66, 64
1, 9172, Note_off_c, 1, 51, 64
1, 9180, Note_off_c, 4, 27, 64
1, 9185, Note_off_c, 2, 70, 64
1, 9189, Note_off_c, 2, 75, 64
1, 9189, Note_off_c, 9, 38, 64
1, 9193, Note_on_c, 1, 51, 118
1, 9195, Note_on_c, 2, 75, 95
1, 9198, Note_on_c, 7, 66, 116
1, 9198, Note_on_c, 4, 27, 102
1, 9198, Note_on_c, 2, 70, 95
1, 9200, Note_on_c, 6, 39, 80
1, 9203, Note_on_c, 9, 38, 66
1, 9243, Note_off_c, 6, 39, 64
1, 9246, Note_off_c, 7, 66, 64
1, 9256, Note_off_c, 1, 51, 64
1, 9265, Note_on_c, 1, 51, 118
1, 9266, Note_off_c, 2, 75, 64
1, 9270, Note_off_c, 4, 27, 64
1, 9273, Note_on_c, 7, 66, 102
1, 9275, Note_off_c, 9, 38, 64
1, 9275, Note_on_c, 4, 27, 120
1, 9276, Note_off_c, 2, 70, 64
1, 9280, Note_on_c, 2, 75, 103
1, 9280, Note_on_c, 6, 39, 93
1, 9280, Note_on_c, 9, 38, 74
1, 9283, Note_on_c, 2, 70, 95
1, 9318, Note_off_c, 7, 66, 64
1, 9323, Note_off_c, 6, 39, 64
1, 9325, Note_off_c, 1, 51, 64
1, 9338, Note_off_c, 4, 27, 64
1, 9348, Note_off_c, 9, 38, 64
1, 9350, Note_off_c, 2, 70, 64
1, 9350, Note_on_c, 1, 51, 118
1, 9351, Note_off_c, 2, 75, 64
1, 9353, Note_on_c, 2, 75, 106
1, 9355, Note_on_c, 4, 27, 120
1, 9358, Note_on_c, 7, 66, 120
1, 9358, Note_on_c, 2, 70, 95
1, 9360, Note_on_c, 6, 39, 78
1, 9363, Note_on_c, 9, 38, 57
1, 9396, Note_off_c, 1, 51, 64
1, 9403, Note_off_c, 7, 66, 64
1, 9410, Note_off_c, 6, 39, 64
1, 9427, Note_off_c, 4, 27, 64
1, 9435, Note_off_c, 9, 38, 64
1, 9436, Note_off_c, 2, 70, 64
1, 9439, Note_off_c, 2, 75, 64
1, 9595, Note_on_c, 1, 43, 120
1, 9595, Note_on_c, 4, 31, 120
1, 9608, Note_on_c, 9, 38, 64
1, 9630, Note_on_c, 0, 67, 120
1, 9630, Note_on_c, 5, 55, 120
1, 9663, Note_off_c, 9, 38, 64
1, 9795, Note_off_c, 1, 43, 64
1, 9795, Note_off_c, 4, 31, 64
1, 9900, Note_off_c, 0, 67, 64
1, 9900, Note_off_c, 5, 55, 64
1, 10080, Note_on_c, 1, 43, 120
1, 10080, Note_on_c, 4, 31, 120
1, 10085, Note_on_c, 9, 38, 70
1, 10098, Note_on_c, 0, 67, 120
1, 10098, Note_on_c, 5, 55, 120
1, 10146, Note_off_c, 9, 38, 64
1, 10240, Note_off_c, 1, 43, 64
1, 10240, Note_off_c, 4, 31, 64
1, 10320, Note_on_c, 9, 38, 52
1, 10330, Note_on_c, 1, 43, 120
1, 10330, Note_on_c, 4, 31, 120
1, 10378, Note_off_c, 9, 38, 64
1, 10381, Note_off_c, 1, 43, 64
1, 10381, Note_off_c, 4, 31, 64
1, 10393, Note_off_c, 0, 67, 64
1, 10393, Note_off_c, 5, 55, 64
1, 10400, Note_on_c, 9, 38, 62
1, 10410, Note_on_c, 1, 43, 100
1, 10410, Note_on_c, 4, 31, 100
1, 10461, Note_off_c, 1, 43, 64
1, 10461, Note_off_c, 4, 31, 64
1, 10468, Note_off_c, 9, 38, 64
1, 10480, Note_on_c, 9, 38, 66
1, 10488, Note_on_c, 1, 43, 120
1, 10488, Note_on_c, 4, 31, 120
1, 10531, Note_off_c, 9, 38, 64
1, 10542, Note_off_c, 1, 43, 64
1, 10542, Note_off_c, 4, 31, 64
1, 10560, Note_on_c, 9, 38, 54
1, 10563, Note_on_c, 1, 43, 102
1, 10563, Note_on_c, 4, 31, 102
1, 10583, Note_on_c, 0, 67, 120
1, 10583, Note_on_c, 5, 55, 120
1, 10639, Note_off_c, 9, 38, 64
1, 10683, Note_off_c, 1, 43, 64
1, 10683, Note_off_c, 4, 31, 64
1, 10800, Note_on_c, 1, 43, 120
1, 10800, Note_on_c, 4, 31, 120
1, 10803, Note_on_c, 9, 38, 70
1, 10864, Note_off_c, 9, 38, 64
1, 10870, Note_off_c, 1, 43, 64
1, 10870, Note_off_c, 4, 31, 64
1, 10883, Note_off_c, 0, 67, 64
1, 10883, Note_off_c, 5, 55, 64
1, 10883, Note_on_c, 1, 43, 100
1, 10883, Note_on_c, 4, 31, 100
1, 10888, Note_on_c, 9, 38, 60
1, 10953, Note_off_c, 1, 43, 64
1, 10953, Note_off_c, 4, 31, 64
1, 10954, Note_off_c, 9, 38, 64
1, 10958, Note_on_c, 1, 43, 109
1, 10958, Note_on_c, 4, 31, 109
1, 10968, Note_on_c, 9, 38, 57
1, 11034, Note_off_c, 9, 38, 64
1, 11040, Note_on_c, 2, 75, 120
1, 11040, Note_on_c, 1, 51, 100
1, 11040, Note_on_c, 4, 27, 100
1, 11040, Note_on_c, 9, 38, 66
1, 11042, Note_off_c, 1, 43, 64
1, 11042, Note_off_c, 4, 31, 64
1, 11048, Note_on_c, 0, 63, 120
1, 11048, Note_on_c, 5, 51, 120
1, 11082, Note_off_c, 1, 51, 64
1, 11082, Note_off_c, 4, 27, 64
1, 11108, Note_off_c, 9, 38, 64
1, 11115, Note_on_c, 2, 66, 120
1, 11115, Note_on_c, 4, 27, 107
1, 11120, Note_on_c, 6, 39, 74
1, 11120, Note_on_c, 1, 51, 95
1, 11120, Note_on_c, 9, 38, 55
1, 11120, Note_on_c, 2, 75, 95
1, 11121, Note_off_c, 2, 75, 64
1, 11121, Note_off_c, 2, 75, 64
1, 11163, Note_off_c, 6, 39, 64
1, 11167, Note_off_c, 1, 51, 64
1, 11183, Note_off_c, 4, 27, 64
1, 11186, Note_off_c, 2, 66, 64
1, 11188, Note_off_c, 9, 38, 64
1, 11190, Note_on_c, 2, 66, 116
1, 11193, Note_on_c, 4, 27, 120
1, 11198, Note_on_c, 9, 38, 57
1, 11200, Note_on_c, 6, 39, 112
1, 11200, Note_on_c, 1, 51, 95
1, 11200, Note_on_c, 2, 75, 95
1, 11200, Note_on_c, 2, 67, 118
1, 11243, Note_off_c, 4, 27, 64
1, 11250, Note_off_c, 6, 39, 64
1, 11250, Note_off_c, 1, 51, 64
1, 11256, Note_off_c, 2, 67, 64
1, 11257, Note_off_c, 2, 66, 64
1, 11267, Note_off_c, 2, 75, 64
1, 11270, Note_off_c, 9, 38, 64
1, 11275, Note_on_c, 2, 67, 120
1, 11275, Note_on_c, 2, 66, 120
1, 11278, Note_on_c, 4, 27, 120
1, 11278, Note_on_c, 1, 51, 95
1, 11278, Note_on_c, 2, 75, 95
1, 11280, Note_on_c, 9, 38, 57
1, 11280, Note_on_c, 6, 39, 74
1, 11283, Note_off_c, 0, 63, 64
1, 11283, Note_off_c, 5, 51, 64
1, 11323, Note_off_c, 6, 39, 64
1, 11331, Note_off_c, 2, 67, 64
1, 11342, Note_off_c, 2, 66, 64
1, 11342, Note_off_c, 4, 27, 64
1, 11342, Note_off_c, 1, 51, 64
1, 11352, Note_off_c, 9, 38, 64
1, 11356, Note_off_c, 2, 75, 64
1, 11403, Note_on_c, 0, 70, 120
1, 11403, Note_on_c, 5, 58, 120
1, 11468, Note_off_c, 0, 70, 64
1, 11468, Note_off_c, 5, 58, 64
1, 11525, Note_on_c, 0, 67, 115
1, 11525, Note_on_c, 5, 55, 105
1, 11528, Note_on_c, 9, 38, 74
1, 11530, Note_on_c, 4, 31, 120
1, 11530, Note_on_c, 1, 43, 120
1, 11602, Note_off_c, 9, 38, 64
1, 11730, Note_off_c, 4, 31, 64
1, 11730, Note_off_c, 1, 43, 64
1, 11865, Note_off_c, 0, 67, 64
1, 11865, Note_off_c, 5, 55, 64
1, 11998, Note_on_c, 4, 31, 120
1, 11998, Note_on_c, 1, 43, 120
1, 12000, Note_on_c, 0, 63, 120
1, 12000, Note_on_c, 5, 51, 120
1, 12008, Note_on_c, 9, 38, 68
1, 12080, Note_off_c, 9, 38, 64
1, 12158, Note_off_c, 4, 31, 64
1, 12158, Note_off_c, 1, 43, 64
1, 12235, Note_off_c, 0, 63, 64
1, 12235, Note_off_c, 5, 51, 64
1, 12240, Note_on_c, 4, 31, 112
1, 12240, Note_on_c, 1, 43, 112
1, 12253, Note_on_c, 9, 38, 48
1, 12298, Note_off_c, 4, 31, 64
1, 12298, Note_off_c, 1, 43, 64
1, 12308, Note_off_c, 9, 38, 64
1, 12318, Note_on_c, 4, 31, 100
1, 12318, Note_on_c, 1, 43, 100
1, 12325, Note_on_c, 9, 38, 60
1, 12373, Note_on_c, 0, 70, 115
1, 12373, Note_on_c, 5, 58, 105
1, 12376, Note_off_c, 4, 31, 64
1, 12376, Note_off_c, 1, 43, 64
1, 12386, Note_off_c, 9, 38, 64
1, 12398, Note_on_c, 4, 31, 120
1, 12398, Note_on_c, 1, 43, 120
1, 12408, Note_on_c, 9, 38, 65
1, 12443, Note_off_c, 0, 70, 64
1, 12443, Note_off_c, 5, 58, 64
1, 12462, Note_off_c, 4, 31, 64
1, 12462, Note_off_c, 1, 43, 64
1, 12474, Note_off_c, 9, 38, 64
1, 12478, Note_on_c, 4, 31, 102
1, 12478, Note_on_c, 1, 43, 102
1, 12478, Note_on_c, 9, 38, 48
1, 12485, Note_on_c, 0, 67, 115
1, 12485, Note_on_c, 5, 55, 105
1, 12536, Note_off_c, 9, 38, 64
1, 12598, Note_off_c, 4, 31, 64
1, 12598, Note_off_c, 1, 43, 64
1, 12710, Note_on_c, 4, 31, 120
1, 12710, Note_on_c, 1, 43, 120
1, 12720, Note_on_c, 9, 38, 71
1, 12781, Note_off_c, 9, 38, 64
1, 12785, Note_off_c, 4, 31, 64
1, 12785, Note_off_c, 1, 43, 64
1, 12793, Note_on_c, 4, 31, 100
1, 12793, Note_on_c, 1, 43, 100
1, 12800, Note_on_c, 9, 38, 60
1, 12859, Note_off_c, 4, 31, 64
1, 12859, Note_off_c, 1, 43, 64
1, 12868, Note_off_c, 9, 38, 64
1, 12875, Note_on_c, 4, 31, 120
1, 12875, Note_on_c, 1, 43, 120
1, 12878, Note_on_c, 9, 38, 60
1, 12950, Note_off_c, 9, 38, 64
1, 12955, Note_on_c, 9, 38, 65
1, 12960, Note_on_c, 2, 66, 106
1, 12960, Note_on_c, 2, 70, 120
1, 12960, Note_on_c, 2, 67, 105
1, 12960, Note_on_c, 4, 27, 114
1, 12960, Note_on_c, 1, 51, 106
1, 12962, Note_off_c, 4, 31, 64
1, 12962, Note_off_c, 1, 43, 64
1, 13010, Note_off_c, 4, 27, 64
1, 13010, Note_off_c, 1, 51, 64
1, 13021, Note_off_c, 9, 38, 64
1, 13027, Note_off_c, 2, 66, 64
1, 13027, Note_off_c, 2, 67, 64
1, 13031, Note_off_c, 2, 70, 64
1, 13038, Note_on_c, 9, 38, 66
1, 13040, Note_on_c, 6, 39, 78
1, 13040, Note_on_c, 2, 66, 120
1, 13040, Note_on_c, 2, 67, 97
1, 13040, Note_on_c, 2, 70, 95
1, 13040, Note_on_c, 4, 27, 120
1, 13040, Note_on_c, 1, 51, 120
1, 13093, Note_off_c, 6, 39, 64
1, 13095, Note_off_c, 0, 67, 64
1, 13095, Note_off_c, 5, 55, 64
1, 13104, Note_off_c, 4, 27, 64
1, 13104, Note_off_c, 1, 51, 64
1, 13107, Note_off_c, 2, 67, 64
1, 13111, Note_off_c, 2, 70, 64
1, 13115, Note_on_c, 9, 38, 62
1, 13118, Note_off_c, 2, 66, 64
1, 13120, Note_off_c, 9, 38, 64
1, 13120, Note_off_c, 9, 38, 64
1, 13120, Note_on_c, 6, 39, 112
1, 13120, Note_on_c, 2, 66, 102
1, 13120, Note_on_c, 2, 70, 105
1, 13120, Note_on_c, 2, 67, 120
1, 13120, Note_on_c, 4, 27, 120
1, 13120, Note_on_c, 1, 51, 102
1, 13170, Note_off_c, 6, 39, 64
1, 13170, Note_off_c, 4, 27, 64
1, 13179, Note_off_c, 1, 51, 64
1, 13187, Note_off_c, 2, 67, 64
1, 13194, Note_off_c, 2, 66, 64
1, 13194, Note_off_c, 2, 70, 64
1, 13195, Note_on_c, 4, 27, 120
1, 13200, Note_on_c, 9, 38, 66
1, 13200, Note_on_c, 6, 39, 68
1, 13200, Note_on_c, 2, 66, 120
1, 13200, Note_on_c, 2, 67, 120
1, 13200, Note_on_c, 2, 70, 97
1, 13200, Note_on_c, 1, 51, 120
1, 13240, Note_off_c, 6, 39, 64
1, 13259, Note_off_c, 2, 67, 64
1, 13261, Note_off_c, 9, 38, 64
1, 13274, Note_off_c, 2, 66, 64
1, 13278, Note_off_c, 2, 70, 64
1, 13282, Note_off_c, 4, 27, 64
1, 13287, Note_off_c, 1, 51, 64
1, 13440, Note_on_c, 0, 74, 120
1, 13440, Note_on_c, 5, 62, 120
1, 13440, Note_on_c, 9, 38, 78
1, 13448, Note_on_c, 4, 31, 120
1, 13448, Note_on_c, 1, 43, 120
1, 13498, Note_off_c, 9, 38, 64
1, 13648, Note_off_c, 4, 31, 64
1, 13648, Note_off_c, 1, 43, 64
1, 13748, Note_off_c, 0, 74, 64
1, 13748, Note_off_c, 5, 62, 64
1, 13923, Note_on_c, 9, 38, 71
1, 13925, Note_on_c, 0, 74, 120
1, 13925, Note_on_c, 5, 62, 120
1, 13928, Note_on_c, 4, 31, 120
1, 13928, Note_on_c, 1, 43, 120
1, 13989, Note_off_c, 9, 38, 64
1, 14088, Note_off_c, 4, 31, 64
1, 14088, Note_off_c, 1, 43, 64
1, 14165, Note_on_c, 9, 38, 57
1, 14170, Note_on_c, 4, 31, 114
1, 14170, Note_on_c, 1, 43, 114
1, 14220, Note_off_c, 4, 31, 64
1, 14220, Note_off_c, 1, 43, 64
1, 14228, Note_off_c, 0, 74, 64
1, 14228, Note_off_c, 5, 62, 64
1, 14233, Note_off_c, 9, 38, 64
1, 14248, Note_on_c, 9, 38, 41
1, 14248, Note_on_c, 4, 31, 100
1, 14248, Note_on_c, 1, 43, 100
1, 14303, Note_off_c, 4, 31, 64
1, 14303, Note_off_c, 1, 43, 64
1, 14306, Note_off_c, 9, 38, 64
1, 14323, Note_on_c, 9, 38, 75
1, 14328, Note_on_c, 4, 31, 120
1, 14328, Note_on_c, 1, 43, 120
1, 14389, Note_off_c, 9, 38, 64
1, 14392, Note_off_c, 4, 31, 64
1, 14392, Note_off_c, 1, 43, 64
1, 14398, Note_on_c, 0, 74, 115
1, 14398, Note_on_c, 5, 62, 105
1, 14403, Note_on_c, 4, 31, 120
1, 14403, Note_on_c, 1, 43, 120
1, 14405, Note_on_c, 9, 38, 60
1, 14471, Note_off_c, 9, 38, 64
1, 14523, Note_off_c, 4, 31, 64
1, 14523, Note_off_c, 1, 43, 64
1, 14648, Note_on_c, 4, 31, 109
1, 14648, Note_on_c, 1, 43, 109
1, 14655, Note_on_c, 9, 38, 64
1, 14710, Note_off_c, 9, 38, 64
1, 14713, Note_off_c, 0, 74, 64
1, 14713, Note_off_c, 5, 62, 64
1, 14723, Note_off_c, 4, 31, 64
1, 14723, Note_off_c, 1, 43, 64
1, 14725, Note_on_c, 4, 31, 100
1, 14725, Note_on_c, 1, 43, 100
1, 14735, Note_on_c, 9, 38, 50
1, 14800, Note_off_c, 4, 31, 64
1, 14800, Note_off_c, 1, 43, 64
1, 14801, Note_off_c, 9, 38, 64
1, 14805, Note_on_c, 4, 31, 109
1, 14805, Note_on_c, 1, 43, 109
1, 14805, Note_on_c, 9, 38, 66
1, 14870, Note_on_c, 7, 66, 110
1, 14870, Note_on_c, 4, 39, 110
1, 14870, Note_on_c, 1, 51, 110
1, 14877, Note_off_c, 4, 31, 64
1, 14877, Note_off_c, 1, 43, 64
1, 14877, Note_off_c, 9, 38, 64
1, 14883, Note_on_c, 4, 27, 109
1, 14885, Note_on_c, 9, 38, 55
1, 14895, Note_on_c, 0, 75, 120
1, 14895, Note_on_c, 5, 63, 120
1, 14920, Note_off_c, 7, 66, 64
1, 14937, Note_off_c, 4, 39, 64
1, 14937, Note_off_c, 1, 51, 64
1, 14938, Note_off_c, 4, 27, 64
1, 14948, Note_on_c, 7, 66, 116
1, 14948, Note_on_c, 1, 51, 116
1, 14948, Note_on_c, 4, 39, 116
1, 14957, Note_off_c, 9, 38, 64
1, 14960, Note_on_c, 6, 39, 78
1, 14960, Note_on_c, 2, 70, 95
1, 14960, Note_on_c, 9, 38, 70
1, 14963, Note_on_c, 4, 27, 120
1, 15001, Note_off_c, 7, 66, 64
1, 15008, Note_off_c, 6, 39, 64
1, 15020, Note_off_c, 1, 51, 64
1, 15020, Note_off_c, 4, 39, 64
1, 15027, Note_off_c, 4, 27, 64
1, 15028, Note_on_c, 7, 66, 120
1, 15028, Note_on_c, 1, 51, 120
1, 15028, Note_on_c, 4, 39, 120
1, 15031, Note_off_c, 2, 70, 64
1, 15032, Note_off_c, 9, 38, 64
1, 15040, Note_on_c, 6, 39, 95
1, 15040, Note_on_c, 2, 70, 95
1, 15040, Note_on_c, 9, 38, 64
1, 15043, Note_on_c, 4, 27, 120
1, 15073, Note_off_c, 7, 66, 64
1, 15090, Note_off_c, 6, 39, 64
1, 15102, Note_off_c, 1, 51, 64
1, 15102, Note_off_c, 4, 39, 64
1, 15105, Note_off_c, 0, 75, 64
1, 15105, Note_off_c, 5, 63, 64
1, 15110, Note_on_c, 7, 66, 120
1, 15110, Note_on_c, 1, 51, 120
1, 15110, Note_on_c, 4, 39, 120
1, 15112, Note_off_c, 9, 38, 64
1, 15114, Note_off_c, 2, 70, 64
1, 15117, Note_off_c, 4, 27, 64
1, 15120, Note_on_c, 6, 39, 89
1, 15120, Note_on_c, 2, 70, 105
1, 15125, Note_on_c, 4, 27, 120
1, 15130, Note_on_c, 9, 38, 55
1, 15160, Note_off_c, 7, 66, 64
1, 15170, Note_off_c, 6, 39, 64
1, 15184, Note_off_c, 2, 70, 64
1, 15196, Note_off_c, 9, 38, 64
1, 15197, Note_off_c, 1, 51, 64
1, 15197, Note_off_c, 4, 39, 64
1, 15217, Note_off_c, 4, 27, 64
1, 15240, Note_on_c, 0, 70, 120
1, 15240, Note_on_c, 5, 58, 120
1, 15318, Note_off_c, 0, 70, 64
1, 15318, Note_off_c, 5, 58, 64
1, 15350, Note_on_c, 1, 51, 120
1, 15350, Note_on_c, 4, 39, 120
1, 15350, Note_on_c, 4, 27, 120
1, 15360, Program_c, 3, 60
1, 15360, Note_on_c, 2, 66, 120
1, 15360, Control_c, 3, 7, 120
1, 15365, Note_on_c, 9, 38, 61
1, 15368, Note_on_c, 2, 75, 120
1, 15373, Note_on_c, 2, 70, 95
1, 15375, Note_on_c, 0, 66, 115
1, 15375, Note_on_c, 5, 54, 105
1, 15426, Note_off_c, 9, 38, 64
1, 15427, Note_off_c, 2, 66, 64
1, 15432, Note_off_c, 2, 75, 64
1, 15492, Note_off_c, 2, 70, 64
1, 15550, Note_off_c, 1, 51, 64
1, 15550, Note_off_c, 4, 39, 64
1, 15550, Note_off_c, 4, 27, 64
1, 15715, Note_off_c, 0, 66, 64
1, 15715, Note_off_c, 5, 54, 64
1, 15835, Note_on_c, 1, 48, 120
1, 15835, Note_on_c, 4, 36, 120
1, 15835, Note_on_c, 2, 60, 120
1, 15838, Note_on_c, 2, 70, 102
1, 15840, Note_on_c, 2, 75, 120
1, 15843, Note_on_c, 9, 38, 75
1, 15843, Note_on_c, 0, 63, 120
1, 15843, Note_on_c, 5, 51, 120
1, 15884, Note_off_c, 2, 75, 64
1, 15904, Note_off_c, 9, 38, 64
1, 15905, Note_off_c, 2, 70, 64
1, 15924, Note_off_c, 2, 60, 64
1, 15995, Note_off_c, 1, 48, 64
1, 15995, Note_off_c, 4, 36, 64
1, 16046, Note_off_c, 0, 63, 64
1, 16046, Note_off_c, 5, 51, 64
1, 16080, Note_on_c, 2, 75, 118
1, 16083, Note_on_c, 1, 48, 120
1, 16083, Note_on_c, 4, 36, 120
1, 16083, Note_on_c, 9, 38, 57
1, 16083, Note_on_c, 2, 60, 120
1, 16085, Note_on_c, 2, 70, 120
1, 16139, Note_off_c, 2, 75, 64
1, 16144, Note_off_c, 9, 38, 64
1, 16147, Note_off_c, 1, 48, 64
1, 16147, Note_off_c, 4, 36, 64
1, 16152, Note_off_c, 2, 70, 64
1, 16160, Note_on_c, 2, 75, 101
1, 16160, Note_on_c, 2, 70, 100
1, 16163, Note_on_c, 1, 48, 108
1, 16163, Note_on_c, 4, 36, 108
1, 16163, Note_on_c, 9, 38, 50
1, 16163, Note_on_c, 2, 60, 108
1, 16164, Note_off_c, 2, 60, 64
1, 16164, Note_off_c, 2, 60, 64
1, 16190, Note_on_c, 0, 70, 120
1, 16190, Note_on_c, 5, 58, 120
1, 16223, Note_off_c, 1, 48, 64
1, 16223, Note_off_c, 4, 36, 64
1, 16227, Note_off_c, 2, 70, 64
1, 16231, Note_off_c, 2, 75, 64
1, 16235, Note_off_c, 9, 38, 64
1, 16240, Note_on_c, 1, 48, 120
1, 16240, Note_on_c, 4, 36, 120
1, 16240, Note_on_c, 2, 75, 99
1, 16240, Note_on_c, 2, 70, 116
1, 16240, Note_on_c, 2, 60, 120
1, 16241, Note_off_c, 2, 60, 64
1, 16245, Note_on_c, 9, 38, 62
1, 16260, Note_off_c, 0, 70, 64
1, 16260, Note_off_c, 5, 58, 64
1, 16281, Note_off_c, 2, 75, 64
1, 16307, Note_off_c, 2, 70, 64
1, 16313, Note_off_c, 9, 38, 64
1, 16315, Note_on_c, 7, 55, 120
1, 16315, Note_on_c, 4, 43, 120
1, 16315, Note_on_c, 4, 31, 120
1, 16316, Note_off_c, 1, 48, 64
1, 16316, Note_off_c, 4, 36, 64
1, 16320, Note_on_c, 9, 38, 75
1, 16325, Note_on_c, 0, 67, 115
1, 16325, Note_on_c, 5, 55, 105
1, 16358, Note_off_c, 7, 55, 64
1, 16394, Note_off_c, 9, 38, 64
1, 16435, Note_off_c, 4, 43, 64
1, 16435, Note_off_c, 4, 31, 64
1, 16558, Note_on_c, 3, 58, 93
1, 16558, Note_on_c, 2, 70, 64
1, 16560, Note_on_c, 2, 74, 78
1, 16563, Note_on_c, 3, 62, 93
1, 16565, Note_on_c, 9, 38, 64
1, 16608, Note_off_c, 3, 58, 64
1, 16613, Note_off_c, 3, 62, 64
1, 16619, Note_off_c, 2, 74, 64
1, 16631, Note_off_c, 9, 38, 64
1, 16632, Note_off_c, 2, 70, 64
1, 16635, Note_on_c, 2, 70, 95
1, 16635, Note_on_c, 2, 74, 95
1, 16635, Note_on_c, 3, 58, 89
1, 16640, Note_on_c, 1, 43, 100
1, 16640, Note_on_c, 4, 31, 100
1, 16640, Note_on_c, 3, 62, 89
1, 16648, Note_on_c, 9, 38, 50
1, 16690, Note_off_c, 3, 58, 64
1, 16694, Note_off_c, 1, 43, 64
1, 16694, Note_off_c, 4, 31, 64
1, 16695, Note_off_c, 3, 62, 64
1, 16716, Note_off_c, 2, 70, 64
1, 16716, Note_off_c, 2, 74, 64
1, 16718, Note_on_c, 2, 70, 113
1, 16718, Note_on_c, 2, 74, 113
1, 16718, Note_on_c, 1, 43, 107
1, 16718, Note_on_c, 4, 31, 107
1, 16718, Note_on_c, 3, 58, 99
1, 16720, Note_off_c, 9, 38, 64
1, 16723, Note_on_c, 3, 62, 99
1, 16728, Note_on_c, 9, 38, 60
1, 16745, Note_off_c, 0, 67, 64
1, 16745, Note_off_c, 5, 55, 64
1, 16771, Note_off_c, 3, 58, 64
1, 16776, Note_off_c, 3, 62, 64
1, 16790, Note_off_c, 1, 43, 64
1, 16790, Note_off_c, 4, 31, 64
1, 16794, Note_off_c, 9, 38, 64
1, 16795, Note_on_c, 2, 71, 106
1, 16795, Note_on_c, 2, 75, 106
1, 16795, Note_on_c, 3, 59, 93
1, 16796, Note_off_c, 2, 70, 64
1, 16796, Note_off_c, 2, 74, 64
1, 16798, Note_on_c, 3, 63, 93
1, 16800, Note_on_c, 1, 43, 102
1, 16800, Note_on_c, 4, 31, 102
1, 16803, Note_on_c, 9, 38, 68
1, 16848, Note_off_c, 3, 59, 64
1, 16851, Note_off_c, 3, 63, 64
1, 16860, Note_off_c, 1, 43, 64
1, 16860, Note_off_c, 4, 31, 64
1, 16869, Note_off_c, 9, 38, 64
1, 16873, Note_off_c, 2, 71, 64
1, 16873, Note_off_c, 2, 75, 64
1, 16875, Note_on_c, 2, 71, 106
1, 16875, Note_on_c, 2, 75, 113
1, 16875, Note_on_c, 3, 59, 99
1, 16878, Note_on_c, 1, 43, 102
1, 16878, Note_on_c, 4, 31, 102
1, 16880, Note_on_c, 6, 39, 80
1, 16880, Note_on_c, 3, 63, 93
1, 16883, Note_on_c, 9, 38, 66
1, 16923, Note_off_c, 6, 39, 64
1, 16925, Note_off_c, 3, 59, 64
1, 16930, Note_off_c, 3, 63, 64
1, 16949, Note_off_c, 2, 71, 64
1, 16949, Note_off_c, 2, 75, 64
1, 16950, Note_off_c, 1, 43, 64
1, 16950, Note_off_c, 4, 31, 64
1, 16955, Note_off_c, 9, 38, 64
1, 16955, Note_on_c, 1, 43, 120
1, 16955, Note_on_c, 4, 31, 120
1, 16955, Note_on_c, 3, 59, 120
1, 16958, Note_on_c, 2, 71, 106
1, 16958, Note_on_c, 2, 75, 106
1, 16958, Note_on_c, 3, 63, 93
1, 16960, Note_on_c, 6, 39, 93
1, 16960, Note_on_c, 9, 38, 74
1, 17003, Note_off_c, 6, 39, 64
1, 17010, Note_off_c, 3, 59, 64
1, 17013, Note_off_c, 3, 63, 64
1, 17018, Note_off_c, 1, 43, 64
1, 17018, Note_off_c, 4, 31, 64
1, 17028, Note_off_c, 9, 38, 64
1, 17035, Note_on_c, 1, 43, 120
1, 17035, Note_on_c, 4, 31, 120
1, 17038, Note_on_c, 2, 73, 106
1, 17038, Note_on_c, 2, 77, 106
1, 17038, Note_on_c, 3, 61, 93
1, 17038, Note_on_c, 3, 65, 93
1, 17039, Note_off_c, 2, 71, 64
1, 17039, Note_off_c, 2, 75, 64
1, 17040, Note_on_c, 6, 39, 78
1, 17043, Note_on_c, 9, 38, 52
1, 17086, Note_off_c, 3, 61, 64
1, 17086, Note_off_c, 3, 65, 64
1, 17090, Note_off_c, 6, 39, 64
1, 17098, Note_off_c, 9, 38, 64
1, 17107, Note_off_c, 1, 43, 64
1, 17107, Note_off_c, 4, 31, 64
1, 17109, Note_off_c, 2, 73, 64
1, 17109, Note_off_c, 2, 77, 64
1, 17115, Note_on_c, 2, 73, 106
1, 17115, Note_on_c, 2, 77, 106
1, 17115, Note_on_c, 3, 61, 93
1, 17115, Note_on_c, 3, 65, 93
1, 17165, Note_off_c, 3, 61, 64
1, 17165, Note_off_c, 3, 65, 64
1, 17190, Note_on_c, 3, 65, 93
1, 17193, Note_off_c, 2, 73, 64
1, 17193, Note_off_c, 2, 77, 64
1, 17195, Note_on_c, 2, 77, 106
1, 17195, Note_on_c, 2, 73, 106
1, 17195, Note_on_c, 3, 61, 93
1, 17235, Note_off_c, 3, 65, 64
1, 17240, Note_off_c, 3, 61, 64
1, 17262, Note_off_c, 2, 77, 64
1, 17262, Note_off_c, 2, 73, 64
1, 17275, Note_on_c, 1, 43, 120
1, 17275, Note_on_c, 4, 31, 120
1, 17280, Note_on_c, 0, 79, 120
1, 17280, Note_on_c, 5, 67, 120
1, 17285, Note_on_c, 7, 67, 120
1, 17288, Note_on_c, 9, 38, 64
1, 17330, Note_off_c, 7, 67, 64
1, 17343, Note_off_c, 9, 38, 64
1, 17475, Note_off_c, 1, 43, 64
1, 17475, Note_off_c, 4, 31, 64
1, 17653, Note_off_c, 0, 79, 64
1, 17653, Note_off_c, 5, 67, 64
1, 17755, Note_on_c, 7, 67, 108
1, 17760, Note_on_c, 1, 43, 120
1, 17760, Note_on_c, 4, 31, 120
1, 17760, Note_on_c, 0, 67, 115
1, 17760, Note_on_c, 5, 55, 106
1, 17765, Note_on_c, 9, 38, 70
1, 17805, Note_off_c, 7, 67, 64
1, 17826, Note_off_c, 9, 38, 64
1, 17920, Note_off_c, 1, 43, 64
1, 17920, Note_off_c, 4, 31, 64
1, 18000, Note_on_c, 7, 67, 114
1, 18000, Note_on_c, 9, 38, 52
1, 18003, Note_off_c, 0, 67, 64
1, 18003, Note_off_c, 5, 55, 64
1, 18010, Note_on_c, 1, 43, 120
1, 18010, Note_on_c, 4, 31, 120
1, 18045, Note_off_c, 7, 67, 64
1, 18058, Note_off_c, 9, 38, 64
1, 18077, Note_off_c, 1, 43, 64
1, 18077, Note_off_c, 4, 31, 64
1, 18078, Note_on_c, 7, 67, 104
1, 18080, Note_on_c, 9, 38, 62
1, 18090, Note_on_c, 1, 43, 100
1, 18090, Note_on_c, 4, 31, 100
1, 18123, Note_off_c, 7, 67, 64
1, 18135, Note_on_c, 0, 67, 120
1, 18135, Note_on_c, 5, 55, 120
1, 18148, Note_off_c, 9, 38, 64
1, 18157, Note_off_c, 1, 43, 64
1, 18157, Note_off_c, 4, 31, 64
1, 18158, Note_on_c, 7, 67, 120
1, 18160, Note_on_c, 9, 38, 66
1, 18168, Note_on_c, 1, 43, 120
1, 18168, Note_on_c, 4, 31, 120
1, 18203, Note_off_c, 7, 67, 64
1, 18211, Note_off_c, 9, 38, 64
1, 18218, Note_off_c, 1, 43, 64
1, 18218, Note_off_c, 4, 31, 64
1, 18230, Note_off_c, 0, 67, 64
1, 18230, Note_off_c, 5, 55, 64
1, 18235, Note_on_c, 7, 67, 104
1, 18240, Note_on_c, 9, 38, 54
1, 18243, Note_on_c, 1, 43, 102
1, 18243, Note_on_c, 4, 31, 102
1, 18258, Note_on_c, 0, 79, 116
1, 18258, Note_on_c, 5, 67, 116
1, 18280, Note_off_c, 7, 67, 64
1, 18319, Note_off_c, 9, 38, 64
1, 18363, Note_off_c, 1, 43, 64
1, 18363, Note_off_c, 4, 31, 64
1, 18475, Note_on_c, 7, 67, 120
1, 18480, Note_on_c, 1, 43, 120
1, 18480, Note_on_c, 4, 31, 120
1, 18483, Note_on_c, 9, 38, 70
1, 18520, Note_off_c, 7, 67, 64
1, 18544, Note_off_c, 9, 38, 64
1, 18555, Note_on_c, 7, 67, 100
1, 18558, Note_off_c, 1, 43, 64
1, 18558, Note_off_c, 4, 31, 64
1, 18561, Note_off_c, 0, 79, 64
1, 18561, Note_off_c, 5, 67, 64
1, 18563, Note_on_c, 1, 43, 100
1, 18563, Note_on_c, 4, 31, 100
1, 18568, Note_on_c, 9, 38, 60
1, 18603, Note_off_c, 7, 67, 64
1, 18634, Note_off_c, 9, 38, 64
1, 18635, Note_on_c, 7, 67, 100
1, 18638, Note_on_c, 1, 43, 109
1, 18638, Note_on_c, 4, 31, 109
1, 18641, Note_off_c, 1, 43, 64
1, 18641, Note_off_c, 4, 31, 64
1, 18641, Note_off_c, 1, 43, 64
1, 18641, Note_off_c, 4, 31, 64
1, 18648, Note_on_c, 9, 38, 57
1, 18688, Note_off_c, 7, 67, 64
1, 18695, Note_on_c, 0, 78, 120
1, 18695, Note_on_c, 5, 66, 120
1, 18714, Note_off_c, 9, 38, 64
1, 18715, Note_on_c, 2, 66, 100
1, 18715, Note_on_c, 1, 51, 100
1, 18715, Note_on_c, 4, 39, 100
1, 18720, Note_on_c, 9, 38, 66
1, 18720, Note_on_c, 2, 79, 101
1, 18720, Note_on_c, 2, 75, 108
1, 18773, Note_off_c, 1, 51, 64
1, 18773, Note_off_c, 4, 39, 64
1, 18782, Note_off_c, 2, 66, 64
1, 18787, Note_off_c, 2, 79, 64
1, 18788, Note_off_c, 9, 38, 64
1, 18795, Note_on_c, 1, 51, 120
1, 18795, Note_on_c, 4, 39, 120
1, 18795, Note_on_c, 2, 66, 120
1, 18800, Note_on_c, 6, 43, 74
1, 18800, Note_on_c, 9, 38, 55
1, 18800, Note_on_c, 2, 75, 101
1, 18800, Note_on_c, 2, 79, 112
1, 18801, Note_off_c, 2, 75, 64
1, 18801, Note_off_c, 2, 75, 64
1, 18843, Note_off_c, 6, 43, 64
1, 18859, Note_off_c, 1, 51, 64
1, 18859, Note_off_c, 4, 39, 64
1, 18866, Note_off_c, 2, 66, 64
1, 18867, Note_off_c, 2, 79, 64
1, 18868, Note_off_c, 9, 38, 64
1, 18870, Note_on_c, 1, 51, 116
1, 18870, Note_on_c, 4, 39, 116
1, 18870, Note_on_c, 2, 66, 116
1, 18878, Note_on_c, 9, 38, 57
1, 18880, Note_on_c, 6, 43, 74
1, 18880, Note_on_c, 2, 75, 101
1, 18880, Note_on_c, 2, 79, 112
1, 18923, Note_off_c, 6, 43, 64
1, 18928, Note_off_c, 1, 51, 64
1, 18928, Note_off_c, 4, 39, 64
1, 18936, Note_off_c, 2, 79, 64
1, 18937, Note_off_c, 2, 66, 64
1, 18947, Note_off_c, 2, 75, 64
1, 18950, Note_off_c, 9, 38, 64
1, 18955, Note_off_c, 0, 78, 64
1, 18955, Note_off_c, 5, 66, 64
1, 18955, Note_on_c, 1, 51, 120
1, 18955, Note_on_c, 4, 39, 120
1, 18955, Note_on_c, 2, 79, 112
1, 18955, Note_on_c, 2, 66, 120
1, 18958, Note_on_c, 2, 75, 101
1, 18960, Note_on_c, 9, 38, 57
1, 18960, Note_on_c, 6, 43, 112
1, 19010, Note_off_c, 6, 43, 64
1, 19011, Note_off_c, 2, 79, 64
1, 19022, Note_off_c, 2, 66, 64
1, 19032, Note_off_c, 9, 38, 64
1, 19033, Note_off_c, 1, 51, 64
1, 19033, Note_off_c, 4, 39, 64
1, 19036, Note_off_c, 2, 75, 64
1, 19080, Note_on_c, 0, 77, 115
1, 19080, Note_on_c, 5, 65, 105
1, 19160, Note_off_c, 0, 77, 64
1, 19160, Note_off_c, 5, 65, 64
1, 19195, Note_on_c, 1, 49, 120
1, 19195, Note_on_c, 4, 37, 120
1, 19200, Note_on_c, 2, 73, 104
1, 19200, Note_on_c, 6, 49, 100
1, 19200, Note_on_c, 0, 76, 115
1, 19200, Note_on_c, 5, 64, 105
1, 19205, Note_on_c, 2, 80, 112
1, 19205, Note_on_c, 2, 76, 108
1, 19208, Note_on_c, 9, 38, 74
1, 19261, Note_off_c, 2, 80, 64
1, 19261, Note_off_c, 2, 76, 64
1, 19267, Note_off_c, 2, 73, 64
1, 19282, Note_off_c, 9, 38, 64
1, 19315, Note_off_c, 0, 76, 64
1, 19315, Note_off_c, 5, 64, 64
1, 19318, Note_off_c, 6, 49, 64
1, 19320, Note_on_c, 0, 75, 115
1, 19320, Note_on_c, 5, 63, 110
1, 19395, Note_off_c, 1, 49, 64
1, 19395, Note_off_c, 4, 37, 64
1, 19403, Note_off_c, 0, 75, 64
1, 19403, Note_off_c, 5, 63, 64
1, 19440, Note_on_c, 0, 76, 115
1, 19440, Note_on_c, 5, 64, 105
1, 19548, Note_off_c, 0, 76, 64
1, 19548, Note_off_c, 5, 64, 64
1, 19668, Note_on_c, 1, 49, 120
1, 19668, Note_on_c, 4, 37, 120
1, 19680, Note_on_c, 2, 73, 120
1, 19688, Note_on_c, 9, 38, 68
1, 19690, Note_on_c, 2, 80, 112
1, 19690, Note_on_c, 2, 76, 108
1, 19742, Note_off_c, 2, 80, 64
1, 19742, Note_off_c, 2, 76, 64
1, 19747, Note_off_c, 2, 73, 64
1, 19760, Note_off_c, 9, 38, 64
1, 19828, Note_off_c, 1, 49, 64
1, 19828, Note_off_c, 4, 37, 64
1, 19918, Note_on_c, 2, 73, 120
1, 19920, Note_on_c, 1, 49, 112
1, 19920, Note_on_c, 4, 37, 112
1, 19920, Note_on_c, 2, 76, 108
1, 19920, Note_on_c, 2, 80, 112
1, 19930, Note_on_c, 0, 68, 115
1, 19930, Note_on_c, 5, 56, 100
1, 19933, Note_on_c, 9, 38, 48
1, 19972, Note_off_c, 2, 76, 64
1, 19972, Note_off_c, 2, 80, 64
1, 19985, Note_off_c, 2, 73, 64
1, 19986, Note_off_c, 1, 49, 64
1, 19986, Note_off_c, 4, 37, 64
1, 19988, Note_off_c, 9, 38, 64
1, 19995, Note_on_c, 2, 73, 100
1, 19998, Note_on_c, 1, 49, 100
1, 19998, Note_on_c, 4, 37, 100
1, 20000, Note_on_c, 2, 76, 101
1, 20000, Note_on_c, 2, 80, 99
1, 20005, Note_on_c, 9, 38, 60
1, 20023, Note_off_c, 0, 68, 64
1, 20023, Note_off_c, 5, 56, 64
1, 20062, Note_off_c, 2, 73, 64
1, 20064, Note_off_c, 1, 49, 64
1, 20064, Note_off_c, 4, 37, 64
1, 20064, Note_off_c, 2, 76, 64
1, 20064, Note_off_c, 2, 80, 64
1, 20066, Note_off_c, 9, 38, 64
1, 20075, Note_on_c, 2, 73, 120
1, 20078, Note_on_c, 1, 49, 120
1, 20078, Note_on_c, 4, 37, 120
1, 20080, Note_on_c, 2, 76, 101
1, 20080, Note_on_c, 2, 80, 108
1, 20088, Note_on_c, 9, 38, 65
1, 20147, Note_off_c, 2, 76, 64
1, 20147, Note_off_c, 2, 80, 64
1, 20149, Note_off_c, 2, 73, 64
1, 20150, Note_off_c, 1, 49, 64
1, 20150, Note_off_c, 4, 37, 64
1, 20150, Note_on_c, 2, 80, 112
1, 20150, Note_on_c, 2, 76, 108
1, 20150, Note_on_c, 2, 73, 110
1, 20154, Note_off_c, 9, 38, 64
1, 20158, Note_on_c, 1, 49, 102
1, 20158, Note_on_c, 4, 37, 102
1, 20158, Note_on_c, 9, 38, 48
1, 20173, Note_on_c, 0, 73, 115
1, 20173, Note_on_c, 5, 61, 100
1, 20216, Note_off_c, 9, 38, 64
1, 20224, Note_off_c, 2, 80, 64
1, 20224, Note_off_c, 2, 76, 64
1, 20224, Note_off_c, 2, 73, 64
1, 20278, Note_off_c, 1, 49, 64
1, 20278, Note_off_c, 4, 37, 64
1, 20390, Note_on_c, 1, 49, 120
1, 20390, Note_on_c, 4, 37, 120
1, 20400, Note_on_c, 9, 38, 71
1, 20403, Note_on_c, 2, 73, 120
1, 20418, Note_on_c, 2, 80, 112
1, 20418, Note_on_c, 2, 76, 108
1, 20457, Note_off_c, 1, 49, 64
1, 20457, Note_off_c, 4, 37, 64
1, 20461, Note_off_c, 9, 38, 64
1, 20473, Note_on_c, 1, 49, 100
1, 20473, Note_on_c, 4, 37, 100
1, 20474, Note_off_c, 2, 73, 64
1, 20474, Note_off_c, 2, 80, 64
1, 20474, Note_off_c, 2, 76, 64
1, 20480, Note_on_c, 9, 38, 60
1, 20480, Note_on_c, 2, 73, 116
1, 20491, Note_off_c, 0, 73, 64
1, 20491, Note_off_c, 5, 61, 64
1, 20498, Note_on_c, 2, 80, 95
1, 20498, Note_on_c, 2, 76, 101
1, 20531, Note_off_c, 1, 49, 64
1, 20531, Note_off_c, 4, 37, 64
1, 20548, Note_off_c, 9, 38, 64
1, 20554, Note_off_c, 2, 73, 64
1, 20555, Note_on_c, 1, 49, 120
1, 20555, Note_on_c, 4, 37, 120
1, 20558, Note_on_c, 9, 38, 60
1, 20560, Note_on_c, 2, 73, 120
1, 20562, Note_off_c, 2, 80, 64
1, 20562, Note_off_c, 2, 76, 64
1, 20568, Note_on_c, 2, 80, 101
1, 20568, Note_on_c, 2, 76, 101
1, 20622, Note_off_c, 1, 49, 64
1, 20622, Note_off_c, 4, 37, 64
1, 20630, Note_off_c, 9, 38, 64
1, 20634, Note_off_c, 2, 73, 64
1, 20635, Note_on_c, 1, 49, 114
1, 20635, Note_on_c, 4, 37, 114
1, 20635, Note_on_c, 9, 38, 65
1, 20639, Note_off_c, 2, 80, 64
1, 20639, Note_off_c, 2, 76, 64
1, 20640, Note_on_c, 6, 49, 116
1, 20640, Note_on_c, 2, 76, 101
1, 20640, Note_on_c, 2, 80, 105
1, 20640, Note_on_c, 2, 73, 106
1, 20653, Note_on_c, 0, 72, 115
1, 20653, Note_on_c, 5, 60, 100
1, 20693, Note_off_c, 1, 49, 64
1, 20693, Note_off_c, 4, 37, 64
1, 20693, Note_off_c, 6, 49, 64
1, 20701, Note_off_c, 9, 38, 64
1, 20707, Note_off_c, 2, 76, 64
1, 20707, Note_off_c, 2, 80, 64
1, 20707, Note_off_c, 2, 73, 64
1, 20715, Note_on_c, 1, 49, 120
1, 20715, Note_on_c, 4, 37, 120
1, 20718, Note_on_c, 9, 38, 66
1, 20720, Note_on_c, 6, 49, 78
1, 20720, Note_on_c, 2, 76, 101
1, 20720, Note_on_c, 2, 80, 97
1, 20723, Note_on_c, 2, 73, 120
1, 20773, Note_off_c, 6, 49, 64
1, 20787, Note_off_c, 1, 49, 64
1, 20787, Note_off_c, 4, 37, 64
1, 20787, Note_off_c, 2, 76, 64
1, 20787, Note_off_c, 2, 80, 64
1, 20793, Note_on_c, 1, 49, 120
1, 20793, Note_on_c, 4, 37, 120
1, 20795, Note_on_c, 9, 38, 62
1, 20800, Note_off_c, 9, 38, 64
1, 20800, Note_off_c, 9, 38, 64
1, 20800, Note_on_c, 6, 49, 112
1, 20800, Note_on_c, 2, 76, 108
1, 20800, Note_on_c, 2, 80, 112
1, 20800, Note_on_c, 2, 73, 102
1, 20801, Note_off_c, 2, 73, 64
1, 20801, Note_off_c, 2, 73, 64
1, 20850, Note_off_c, 6, 49, 64
1, 20851, Note_off_c, 1, 49, 64
1, 20851, Note_off_c, 4, 37, 64
1, 20867, Note_off_c, 2, 76, 64
1, 20867, Note_off_c, 2, 80, 64
1, 20875, Note_on_c, 1, 49, 120
1, 20875, Note_on_c, 4, 37, 120
1, 20875, Note_on_c, 2, 80, 112
1, 20875, Note_on_c, 2, 76, 108
1, 20880, Note_on_c, 9, 38, 66
1, 20880, Note_on_c, 6, 49, 68
1, 20885, Note_on_c, 2, 73, 120
1, 20916, Note_off_c, 0, 72, 64
1, 20916, Note_off_c, 5, 60, 64
1, 20920, Note_off_c, 6, 49, 64
1, 20934, Note_off_c, 2, 80, 64
1, 20934, Note_off_c, 2, 76, 64
1, 20941, Note_off_c, 9, 38, 64
1, 20959, Note_off_c, 2, 73, 64
1, 20962, Note_off_c, 1, 49, 64
1, 20962, Note_off_c, 4, 37, 64
1, 21013, Note_on_c, 0, 71, 115
1, 21013, Note_on_c, 5, 59, 91
1, 21101, Note_off_c, 0, 71, 64
1, 21101, Note_off_c, 5, 59, 64
1, 21115, Note_on_c, 1, 51, 120
1, 21115, Note_on_c, 4, 39, 120
1, 21128, Note_on_c, 9, 38, 64
1, 21130, Note_on_c, 2, 78, 112
1, 21130, Note_on_c, 2, 75, 108
1, 21130, Note_on_c, 2, 70, 120
1, 21138, Note_on_c, 0, 70, 115
1, 21138, Note_on_c, 5, 58, 100
1, 21183, Note_off_c, 9, 38, 64
1, 21197, Note_off_c, 2, 78, 64
1, 21197, Note_off_c, 2, 75, 64
1, 21197, Note_off_c, 2, 70, 64
1, 21231, Note_off_c, 0, 70, 64
1, 21231, Note_off_c, 5, 58, 64
1, 21248, Note_on_c, 0, 69, 115
1, 21248, Note_on_c, 5, 57, 91
1, 21315, Note_off_c, 1, 51, 64
1, 21315, Note_off_c, 4, 39, 64
1, 21321, Note_off_c, 0, 69, 64
1, 21321, Note_off_c, 5, 57, 64
1, 21370, Note_on_c, 0, 70, 115
1, 21370, Note_on_c, 5, 58, 100
1, 21475, Note_off_c, 0, 70, 64
1, 21475, Note_off_c, 5, 58, 64
1, 21588, Note_on_c, 1, 51, 120
1, 21588, Note_on_c, 4, 39, 120
1, 21588, Note_on_c, 2, 78, 112
1, 21588, Note_on_c, 2, 75, 108
1, 21588, Note_on_c, 2, 70, 120
1, 21605, Note_on_c, 9, 38, 70
1, 21652, Note_off_c, 2, 78, 64
1, 21652, Note_off_c, 2, 75, 64
1, 21652, Note_off_c, 2, 70, 64
1, 21666, Note_off_c, 9, 38, 64
1, 21748, Note_off_c, 1, 51, 64
1, 21748, Note_off_c, 4, 39, 64
1, 21840, Note_on_c, 1, 51, 112
1, 21840, Note_on_c, 4, 39, 112
1, 21840, Note_on_c, 2, 78, 106
1, 21840, Note_on_c, 2, 75, 101
1, 21840, Note_on_c, 2, 70, 112
1, 21840, Note_on_c, 9, 38, 52
1, 21858, Note_on_c, 0, 63, 115
1, 21858, Note_on_c, 5, 51, 100
1, 21898, Note_off_c, 9, 38, 64
1, 21902, Note_off_c, 1, 51, 64
1, 21902, Note_off_c, 4, 39, 64
1, 21907, Note_off_c, 2, 78, 64
1, 21907, Note_off_c, 2, 75, 64
1, 21907, Note_off_c, 2, 70, 64
1, 21918, Note_on_c, 1, 51, 100
1, 21918, Note_on_c, 4, 39, 100
1, 21918, Note_on_c, 2, 78, 95
1, 21918, Note_on_c, 2, 75, 101
1, 21918, Note_on_c, 2, 70, 100
1, 21920, Note_on_c, 9, 38, 62
1, 21938, Note_off_c, 0, 63, 64
1, 21938, Note_off_c, 5, 51, 64
1, 21980, Note_off_c, 1, 51, 64
1, 21980, Note_off_c, 4, 39, 64
1, 21985, Note_off_c, 2, 78, 64
1, 21985, Note_off_c, 2, 75, 64
1, 21985, Note_off_c, 2, 70, 64
1, 21988, Note_off_c, 9, 38, 64
1, 21993, Note_on_c, 1, 51, 120
1, 21993, Note_on_c, 4, 39, 120
1, 21998, Note_on_c, 2, 78, 112
1, 21998, Note_on_c, 2, 75, 108
1, 21998, Note_on_c, 2, 70, 120
1, 22000, Note_on_c, 9, 38, 66
1, 22051, Note_off_c, 9, 38, 64
1, 22061, Note_off_c, 1, 51, 64
1, 22061, Note_off_c, 4, 39, 64
1, 22069, Note_off_c, 2, 78, 64
1, 22069, Note_off_c, 2, 75, 64
1, 22069, Note_off_c, 2, 70, 64
1, 22078, Note_on_c, 1, 50, 102
1, 22078, Note_on_c, 4, 38, 102
1, 22078, Note_on_c, 2, 78, 97
1, 22078, Note_on_c, 2, 75, 101
1, 22078, Note_on_c, 2, 70, 102
1, 22080, Note_on_c, 9, 38, 54
1, 22095, Note_on_c, 0, 66, 115
1, 22095, Note_on_c, 5, 54, 89
1, 22145, Note_off_c, 2, 78, 64
1, 22145, Note_off_c, 2, 75, 64
1, 22145, Note_off_c, 2, 70, 64
1, 22159, Note_off_c, 9, 38, 64
1, 22258, Note_off_c, 1, 50, 64
1, 22258, Note_off_c, 4, 38, 64
1, 22323, Note_on_c, 9, 38, 70
1, 22384, Note_off_c, 9, 38, 64
1, 22385, Note_off_c, 0, 66, 64
1, 22385, Note_off_c, 5, 54, 64
1, 22408, Note_on_c, 9, 38, 60
1, 22474, Note_off_c, 9, 38, 64
1, 22488, Note_on_c, 9, 38, 57
1, 22554, Note_off_c, 9, 38, 64
1, 22555, Note_on_c, 1, 48, 114
1, 22555, Note_on_c, 4, 36, 114
1, 22555, Note_on_c, 2, 78, 108
1, 22555, Note_on_c, 2, 75, 101
1, 22555, Note_on_c, 2, 70, 114
1, 22560, Note_on_c, 6, 42, 116
1, 22560, Note_on_c, 9, 38, 66
1, 22585, Note_on_c, 0, 63, 115
1, 22585, Note_on_c, 5, 51, 100
1, 22613, Note_off_c, 1, 48, 64
1, 22613, Note_off_c, 4, 36, 64
1, 22618, Note_off_c, 6, 42, 64
1, 22622, Note_off_c, 2, 78, 64
1, 22622, Note_off_c, 2, 75, 64
1, 22622, Note_off_c, 2, 70, 64
1, 22628, Note_off_c, 9, 38, 64
1, 22635, Note_on_c, 1, 48, 120
1, 22635, Note_on_c, 4, 36, 120
1, 22635, Note_on_c, 2, 78, 112
1, 22635, Note_on_c, 2, 75, 108
1, 22635, Note_on_c, 2, 70, 120
1, 22640, Note_on_c, 6, 42, 74
1, 22640, Note_on_c, 9, 38, 55
1, 22683, Note_off_c, 6, 42, 64
1, 22707, Note_off_c, 1, 48, 64
1, 22707, Note_off_c, 4, 36, 64
1, 22708, Note_off_c, 9, 38, 64
1, 22713, Note_off_c, 2, 78, 64
1, 22713, Note_off_c, 2, 75, 64
1, 22713, Note_off_c, 2, 70, 64
1, 22713, Note_on_c, 1, 48, 120
1, 22713, Note_on_c, 4, 36, 120
1, 22713, Note_on_c, 2, 78, 112
1, 22713, Note_on_c, 2, 75, 104
1, 22713, Note_on_c, 2, 70, 120
1, 22718, Note_on_c, 9, 38, 57
1, 22720, Note_on_c, 6, 42, 112
1, 22770, Note_off_c, 6, 42, 64
1, 22771, Note_off_c, 1, 48, 64
1, 22771, Note_off_c, 4, 36, 64
1, 22780, Note_off_c, 2, 78, 64
1, 22780, Note_off_c, 2, 75, 64
1, 22780, Note_off_c, 2, 70, 64
1, 22790, Note_off_c, 9, 38, 64
1, 22795, Note_on_c, 1, 48, 120
1, 22795, Note_on_c, 4, 36, 120
1, 22795, Note_on_c, 2, 78, 112
1, 22795, Note_on_c, 2, 75, 108
1, 22795, Note_on_c, 2, 70, 120
1, 22800, Note_on_c, 9, 38, 57
1, 22800, Note_on_c, 6, 42, 74
1, 22843, Note_off_c, 6, 42, 64
1, 22860, Note_off_c, 0, 63, 64
1, 22860, Note_off_c, 5, 51, 64
1, 22862, Note_off_c, 1, 48, 64
1, 22862, Note_off_c, 4, 36, 64
1, 22869, Note_off_c, 2, 78, 64
1, 22869, Note_off_c, 2, 75, 64
1, 22869, Note_off_c, 2, 70, 64
1, 22872, Note_off_c, 9, 38, 64
1, 22945, Note_on_c, 0, 66, 115
1, 22945, Note_on_c, 5, 54, 89
1, 23005, Note_off_c, 0, 66, 64
1, 23005, Note_off_c, 5, 54, 64
1, 23040, Note_on_c, 7, 67, 120
1, 23040, Note_on_c, 1, 55, 120
1, 23040, Note_on_c, 4, 31, 120
1, 23048, Note_on_c, 9, 38, 74
1, 23078, Note_on_c, 0, 70, 115
1, 23078, Note_on_c, 5, 58, 91
1, 23088, Note_off_c, 7, 67, 64
1, 23122, Note_off_c, 9, 38, 64
1, 23240, Note_off_c, 1, 55, 64
1, 23240, Note_off_c, 4, 31, 64
1, 23401, Note_off_c, 0, 70, 64
1, 23401, Note_off_c, 5, 58, 64
1, 23515, Note_on_c, 2, 75, 101
1, 23515, Note_on_c, 7, 67, 114
1, 23515, Note_on_c, 1, 51, 114
1, 23515, Note_on_c, 4, 39, 114
1, 23520, Note_on_c, 9, 38, 64
1, 23535, Note_on_c, 0, 67, 115
1, 23535, Note_on_c, 5, 55, 91
1, 23560, Note_off_c, 7, 67, 64
1, 23577, Note_off_c, 1, 51, 64
1, 23577, Note_off_c, 4, 39, 64
1, 23582, Note_off_c, 2, 75, 64
1, 23588, Note_off_c, 9, 38, 64
1, 23595, Note_on_c, 2, 75, 108
1, 23595, Note_on_c, 7, 67, 120
1, 23595, Note_on_c, 1, 51, 120
1, 23595, Note_on_c, 4, 39, 120
1, 23600, Note_on_c, 9, 38, 54
1, 23648, Note_off_c, 7, 67, 64
1, 23671, Note_off_c, 1, 51, 64
1, 23671, Note_off_c, 4, 39, 64
1, 23673, Note_off_c, 2, 75, 64
1, 23673, Note_on_c, 2, 75, 104
1, 23673, Note_on_c, 7, 67, 120
1, 23673, Note_on_c, 1, 51, 120
1, 23673, Note_on_c, 4, 39, 120
1, 23679, Note_off_c, 9, 38, 64
1, 23680, Note_on_c, 9, 38, 53
1, 23718, Note_off_c, 7, 67, 64
1, 23735, Note_off_c, 1, 51, 64
1, 23735, Note_off_c, 4, 39, 64
1, 23740, Note_off_c, 2, 75, 64
1, 23754, Note_off_c, 9, 38, 64
1, 23755, Note_on_c, 2, 75, 108
1, 23755, Note_on_c, 7, 67, 120
1, 23755, Note_on_c, 1, 51, 120
1, 23755, Note_on_c, 4, 39, 120
1, 23773, Note_on_c, 9, 38, 48
1, 23805, Note_off_c, 0, 67, 64
1, 23805, Note_off_c, 5, 55, 64
1, 23805, Note_off_c, 7, 67, 64
1, 23828, Note_off_c, 9, 38, 64
1, 23829, Note_off_c, 2, 75, 64
1, 23875, Note_off_c, 1, 51, 64
1, 23875, Note_off_c, 4, 39, 64
1, 23895, Note_on_c, 0, 70, 115
1, 23895, Note_on_c, 5, 58, 91
1, 23960, Note_off_c, 0, 70, 64
1, 23960, Note_off_c, 5, 58, 64
1, 23998, Note_on_c, 9, 38, 48
1, 24008, Note_on_c, 7, 67, 102
1, 24008, Note_on_c, 1, 55, 102
1, 24008, Note_on_c, 4, 31, 102
1, 24025, Note_on_c, 0, 74, 115
1, 24025, Note_on_c, 5, 62, 89
1, 24051, Note_off_c, 7, 67, 64
1, 24056, Note_off_c, 9, 38, 64
1, 24083, Note_off_c, 1, 55, 64
1, 24083, Note_off_c, 4, 31, 64
1, 24240, Note_on_c, 9, 38, 71
1, 24243, Note_on_c, 7, 67, 120
1, 24243, Note_on_c, 1, 55, 120
1, 24243, Note_on_c, 4, 31, 120
1, 24288, Note_off_c, 7, 67, 64
1, 24301, Note_off_c, 9, 38, 64
1, 24301, Note_off_c, 1, 55, 64
1, 24301, Note_off_c, 4, 31, 64
1, 24320, Note_on_c, 9, 38, 60
1, 24323, Note_on_c, 7, 67, 100
1, 24323, Note_on_c, 1, 55, 100
1, 24323, Note_on_c, 4, 31, 100
1, 24368, Note_off_c, 7, 67, 64
1, 24381, Note_off_c, 1, 55, 64
1, 24381, Note_off_c, 4, 31, 64
1, 24388, Note_off_c, 9, 38, 64
1, 24398, Note_on_c, 9, 38, 60
1, 24400, Note_on_c, 7, 67, 109
1, 24400, Note_on_c, 1, 55, 109
1, 24400, Note_on_c, 4, 31, 109
1, 24443, Note_off_c, 7, 67, 64
1, 24455, Note_off_c, 1, 55, 64
1, 24470, Note_off_c, 9, 38, 64
1, 24472, Note_off_c, 4, 31, 64
1, 24475, Note_on_c, 9, 38, 65
1, 24483, Note_on_c, 7, 67, 100
1, 24483, Note_on_c, 1, 55, 100
1, 24483, Note_on_c, 4, 31, 100
1, 24521, Note_off_c, 7, 67, 64
1, 24529, Note_off_c, 1, 55, 64
1, 24529, Note_off_c, 4, 31, 64
1, 24541, Note_off_c, 9, 38, 64
1, 24558, Note_on_c, 9, 38, 66
1, 24560, Note_on_c, 7, 67, 107
1, 24560, Note_on_c, 1, 55, 107
1, 24560, Note_on_c, 4, 31, 107
1, 24610, Note_off_c, 7, 67, 64
1, 24627, Note_off_c, 1, 55, 64
1, 24627, Note_off_c, 4, 31, 64
1, 24633, Note_off_c, 0, 74, 64
1, 24633, Note_off_c, 5, 62, 64
1, 24635, Note_on_c, 9, 38, 62
1, 24638, Note_on_c, 7, 67, 120
1, 24638, Note_on_c, 1, 55, 120
1, 24638, Note_on_c, 4, 31, 120
1, 24640, Note_off_c, 9, 38, 64
1, 24640, Note_off_c, 9, 38, 64
1, 24683, Note_off_c, 7, 67, 64
1, 24696, Note_off_c, 1, 55, 64
1, 24696, Note_off_c, 4, 31, 64
1, 24720, Note_on_c, 6, 43, 112
1, 24720, Note_on_c, 9, 38, 52
1, 24723, Note_on_c, 7, 67, 120
1, 24723, Note_on_c, 1, 55, 120
1, 24723, Note_on_c, 4, 31, 100
1, 24769, Note_off_c, 4, 31, 64
1, 24770, Note_off_c, 6, 43, 64
1, 24775, Note_off_c, 9, 38, 64
1, 24776, Note_off_c, 7, 67, 64
1, 24788, Note_on_c, 9, 38, 62
1, 24795, Note_off_c, 1, 55, 64
1, 24800, Note_on_c, 6, 43, 116
1, 24800, Note_on_c, 1, 31, 107
1, 24855, Note_off_c, 6, 43, 64
1, 24856, Note_off_c, 9, 38, 64
1, 24875, Note_on_c, 9, 38, 66
1, 24878, Note_on_c, 1, 31, 120
1, 24880, Note_on_c, 6, 43, 78
1, 24887, Note_off_c, 1, 31, 64
1, 24887, Note_off_c, 1, 31, 64
1, 24922, Note_off_c, 9, 38, 64
1, 24935, Note_off_c, 6, 43, 64
1, 24955, Note_on_c, 4, 39, 120
1, 24955, Note_on_c, 1, 51, 120
1, 24960, Note_on_c, 0, 79, 120
1, 24960, Note_on_c, 5, 67, 120
1, 24960, Note_on_c, 6, 51, 100
1, 24965, Note_on_c, 7, 67, 120
1, 24968, Note_on_c, 9, 38, 64
1, 25010, Note_off_c, 7, 67, 64
1, 25023, Note_off_c, 9, 38, 64
1, 25073, Note_off_c, 6, 51, 64
1, 25155, Note_off_c, 4, 39, 64
1, 25155, Note_off_c, 1, 51, 64
1, 25333, Note_off_c, 0, 79, 64
1, 25333, Note_off_c, 5, 67, 64
1, 25435, Note_on_c, 7, 67, 108
1, 25440, Note_on_c, 1, 39, 120
1, 25440, Note_on_c, 0, 67, 115
1, 25440, Note_on_c, 5, 55, 106
1, 25440, Note_on_c, 9, 38, 70
1, 25485, Note_off_c, 7, 67, 64
1, 25501, Note_off_c, 9, 38, 64
1, 25600, Note_off_c, 1, 39, 64
1, 25680, Note_on_c, 7, 67, 114
1, 25680, Note_on_c, 9, 38, 52
1, 25683, Note_off_c, 0, 67, 64
1, 25683, Note_off_c, 5, 55, 64
1, 25690, Note_on_c, 4, 39, 120
1, 25690, Note_on_c, 1, 51, 120
1, 25725, Note_off_c, 7, 67, 64
1, 25738, Note_off_c, 9, 38, 64
1, 25758, Note_on_c, 7, 67, 104
1, 25760, Note_on_c, 9, 38, 62
1, 25765, Note_off_c, 4, 39, 64
1, 25765, Note_off_c, 1, 51, 64
1, 25770, Note_on_c, 4, 39, 100
1, 25770, Note_on_c, 1, 51, 100
1, 25803, Note_off_c, 7, 67, 64
1, 25815, Note_on_c, 0, 67, 120
1, 25815, Note_on_c, 5, 55, 120
1, 25828, Note_off_c, 9, 38, 64
1, 25838, Note_on_c, 7, 67, 120
1, 25840, Note_on_c, 9, 38, 66
1, 25845, Note_off_c, 4, 39, 64
1, 25845, Note_off_c, 1, 51, 64
1, 25848, Note_on_c, 4, 39, 120
1, 25848, Note_on_c, 1, 51, 120
1, 25883, Note_off_c, 7, 67, 64
1, 25891, Note_off_c, 9, 38, 64
1, 25910, Note_off_c, 0, 67, 64
1, 25910, Note_off_c, 5, 55, 64
1, 25910, Note_off_c, 4, 39, 64
1, 25910, Note_off_c, 1, 51, 64
1, 25915, Note_on_c, 7, 67, 104
1, 25915, Note_on_c, 1, 55, 104
1, 25920, Note_on_c, 9, 38, 54
1, 25923, Note_on_c, 4, 31, 102
1, 25938, Note_on_c, 0, 79, 116
1, 25938, Note_on_c, 5, 67, 116
1, 25960, Note_off_c, 7, 67, 64
1, 25999, Note_off_c, 9, 38, 64
1, 26035, Note_off_c, 1, 55, 64
1, 26043, Note_off_c, 4, 31, 64
1, 26155, Note_on_c, 7, 67, 120
1, 26155, Note_on_c, 1, 55, 120
1, 26160, Note_on_c, 4, 31, 120
1, 26163, Note_on_c, 9, 38, 70
1, 26200, Note_off_c, 7, 67, 64
1, 26221, Note_off_c, 1, 55, 64
1, 26224, Note_off_c, 9, 38, 64
1, 26226, Note_off_c, 4, 31, 64
1, 26235, Note_on_c, 7, 67, 100
1, 26235, Note_on_c, 1, 55, 100
1, 26241, Note_off_c, 0, 79, 64
1, 26241, Note_off_c, 5, 67, 64
1, 26243, Note_on_c, 4, 31, 100
1, 26248, Note_on_c, 9, 38, 60
1, 26283, Note_off_c, 7, 67, 64
1, 26307, Note_off_c, 1, 55, 64
1, 26309, Note_off_c, 4, 31, 64
1, 26314, Note_off_c, 9, 38, 64
1, 26315, Note_on_c, 7, 67, 100
1, 26315, Note_on_c, 1, 55, 100
1, 26318, Note_on_c, 4, 31, 109
1, 26328, Note_on_c, 9, 38, 57
1, 26368, Note_off_c, 7, 67, 64
1, 26375, Note_on_c, 0, 78, 120
1, 26375, Note_on_c, 5, 66, 120
1, 26394, Note_off_c, 9, 38, 64
1, 26395, Note_on_c, 2, 66, 100
1, 26395, Note_on_c, 4, 39, 100
1, 26400, Note_on_c, 9, 38, 66
1, 26400, Note_on_c, 2, 79, 101
1, 26400, Note_on_c, 2, 75, 108
1, 26407, Note_off_c, 1, 55, 64
1, 26410, Note_off_c, 4, 31, 64
1, 26449, Note_off_c, 4, 39, 64
1, 26462, Note_off_c, 2, 66, 64
1, 26467, Note_off_c, 2, 79, 64
1, 26468, Note_off_c, 9, 38, 64
1, 26475, Note_on_c, 1, 51, 120
1, 26475, Note_on_c, 4, 39, 120
1, 26475, Note_on_c, 2, 66, 120
1, 26480, Note_on_c, 6, 43, 116
1, 26480, Note_on_c, 9, 38, 55
1, 26480, Note_on_c, 2, 75, 101
1, 26480, Note_on_c, 2, 79, 112
1, 26481, Note_off_c, 2, 75, 64
1, 26481, Note_off_c, 2, 75, 64
1, 26535, Note_off_c, 1, 51, 64
1, 26535, Note_off_c, 4, 39, 64
1, 26538, Note_off_c, 6, 43, 64
1, 26546, Note_off_c, 2, 66, 64
1, 26547, Note_off_c, 2, 79, 64
1, 26548, Note_off_c, 9, 38, 64
1, 26550, Note_on_c, 1, 51, 116
1, 26550, Note_on_c, 4, 39, 116
1, 26550, Note_on_c, 2, 66, 116
1, 26558, Note_on_c, 9, 38, 57
1, 26560, Note_on_c, 6, 43, 95
1, 26560, Note_on_c, 2, 75, 101
1, 26560, Note_on_c, 2, 79, 112
1, 26603, Note_off_c, 6, 43, 64
1, 26604, Note_off_c, 1, 51, 64
1, 26604, Note_off_c, 4, 39, 64
1, 26616, Note_off_c, 2, 79, 64
1, 26617, Note_off_c, 2, 66, 64
1, 26627, Note_off_c, 2, 75, 64
1, 26630, Note_off_c, 9, 38, 64
1, 26635, Note_off_c, 0, 78, 64
1, 26635, Note_off_c, 5, 66, 64
1, 26635, Note_on_c, 1, 51, 120
1, 26635, Note_on_c, 4, 39, 120
1, 26635, Note_on_c, 2, 79, 112
1, 26635, Note_on_c, 2, 66, 120
1, 26638, Note_on_c, 2, 75, 101
1, 26640, Note_on_c, 9, 38, 57
1, 26640, Note_on_c, 6, 43, 112
1, 26690, Note_off_c, 6, 43, 64
1, 26691, Note_off_c, 2, 79, 64
1, 26702, Note_off_c, 2, 66, 64
1, 26712, Note_off_c, 9, 38, 64
1, 26713, Note_off_c, 1, 51, 64
1, 26713, Note_off_c, 4, 39, 64
1, 26716, Note_off_c, 2, 75, 64
1, 26760, Note_on_c, 0, 77, 115
1, 26760, Note_on_c, 5, 65, 105
1, 26840, Note_off_c, 0, 77, 64
1, 26840, Note_off_c, 5, 65, 64
1, 26875, Note_on_c, 1, 49, 120
1, 26875, Note_on_c, 4, 37, 120
1, 26880, Program_c, 8, 73
1, 26880, Note_on_c, 2, 73, 104
1, 26880, Control_c, 8, 7, 90
1, 26880, Note_on_c, 6, 49, 100
1, 26880, Note_on_c, 0, 76, 115
1, 26880, Note_on_c, 5, 64, 105
1, 26885, Note_on_c, 2, 80, 112
1, 26885, Note_on_c, 2, 76, 108
1, 26888, Note_on_c, 9, 38, 74
1, 26941, Note_off_c, 2, 80, 64
1, 26941, Note_off_c, 2, 76, 64
1, 26947, Note_off_c, 2, 73, 64
1, 26962, Note_off_c, 9, 38, 64
1, 26995, Note_off_c, 0, 76, 64
1, 26995, Note_off_c, 5, 64, 64
1, 26998, Note_off_c, 6, 49, 64
1, 27000, Note_on_c, 0, 75, 115
1, 27000, Note_on_c, 5, 63, 110
1, 27075, Note_off_c, 1, 49, 64
1, 27075, Note_off_c, 4, 37, 64
1, 27083, Note_off_c, 0, 75, 64
1, 27083, Note_off_c, 5, 63, 64
1, 27120, Note_on_c, 0, 76, 115
1, 27120, Note_on_c, 5, 64, 105
1, 27228, Note_off_c, 0, 76, 64
1, 27228, Note_off_c, 5, 64, 64
1, 27348, Note_on_c, 1, 49, 120
1, 27348, Note_on_c, 4, 37, 120
1, 27360, Note_on_c, 2, 73, 120
1, 27368, Note_on_c, 9, 38, 68
1, 27370, Note_on_c, 2, 80, 112
1, 27370, Note_on_c, 2, 76, 108
1, 27422, Note_off_c, 2, 80, 64
1, 27422, Note_off_c, 2, 76, 64
1, 27427, Note_off_c, 2, 73, 64
1, 27440, Note_off_c, 9, 38, 64
1, 27508, Note_off_c, 1, 49, 64
1, 27508, Note_off_c, 4, 37, 64
1, 27598, Note_on_c, 2, 73, 120
1, 27600, Note_on_c, 1, 49, 112
1, 27600, Note_on_c, 4, 37, 112
1, 27610, Note_on_c, 0, 68, 115
1, 27610, Note_on_c, 5, 56, 100
1, 27610, Note_on_c, 2, 76, 108
1, 27613, Note_on_c, 9, 38, 48
1, 27625, Note_on_c, 2, 80, 112
1, 27658, Note_off_c, 1, 49, 64
1, 27658, Note_off_c, 4, 37, 64
1, 27665, Note_off_c, 2, 73, 64
1, 27666, Note_off_c, 2, 76, 64
1, 27668, Note_off_c, 9, 38, 64
1, 27675, Note_on_c, 2, 73, 100
1, 27677, Note_off_c, 2, 80, 64
1, 27678, Note_on_c, 1, 49, 100
1, 27678, Note_on_c, 4, 37, 100
1, 27685, Note_on_c, 9, 38, 60
1, 27685, Note_on_c, 2, 76, 101
1, 27690, Note_on_c, 2, 80, 99
1, 27703, Note_off_c, 0, 68, 64
1, 27703, Note_off_c, 5, 56, 64
1, 27736, Note_off_c, 1, 49, 64
1, 27736, Note_off_c, 4, 37, 64
1, 27742, Note_off_c, 2, 73, 64
1, 27746, Note_off_c, 9, 38, 64
1, 27749, Note_off_c, 2, 76, 64
1, 27754, Note_off_c, 2, 80, 64
1, 27755, Note_on_c, 2, 73, 120
1, 27758, Note_on_c, 1, 49, 120
1, 27758, Note_on_c, 4, 37, 120
1, 27765, Note_on_c, 2, 76, 101
1, 27768, Note_on_c, 9, 38, 65
1, 27770, Note_on_c, 2, 80, 108
1, 27822, Note_off_c, 1, 49, 64
1, 27822, Note_off_c, 4, 37, 64
1, 27829, Note_off_c, 2, 73, 64
1, 27832, Note_off_c, 2, 76, 64
1, 27834, Note_off_c, 9, 38, 64
1, 27837, Note_off_c, 2, 80, 64
1, 27838, Note_on_c, 1, 49, 102
1, 27838, Note_on_c, 4, 37, 102
1, 27838, Note_on_c, 9, 38, 48
1, 27853, Note_on_c, 8, 80, 89
1, 27853, Note_on_c, 0, 73, 115
1, 27853, Note_on_c, 5, 61, 100
1, 27855, Note_on_c, 8, 76, 89
1, 27865, Note_on_c, 8, 85, 98
1, 27896, Note_off_c, 9, 38, 64
1, 27958, Note_off_c, 1, 49, 64
1, 27958, Note_off_c, 4, 37, 64
1, 28070, Note_on_c, 1, 49, 120
1, 28070, Note_on_c, 4, 37, 120
1, 28080, Note_on_c, 9, 38, 71
1, 28133, Note_off_c, 1, 49, 64
1, 28133, Note_off_c, 4, 37, 64
1, 28141, Note_off_c, 9, 38, 64
1, 28153, Note_on_c, 1, 49, 100
1, 28153, Note_on_c, 4, 37, 100
1, 28160, Note_on_c, 9, 38, 60
1, 28171, Note_off_c, 0, 73, 64
1, 28171, Note_off_c, 5, 61, 64
1, 28207, Note_off_c, 1, 49, 64
1, 28207, Note_off_c, 4, 37, 64
1, 28228, Note_off_c, 9, 38, 64
1, 28235, Note_on_c, 1, 49, 120
1, 28235, Note_on_c, 4, 37, 120
1, 28238, Note_on_c, 9, 38, 60
1, 28266, Note_off_c, 8, 80, 64
1, 28273, Note_off_c, 8, 85, 64
1, 28285, Note_off_c, 8, 76, 64
1, 28298, Note_off_c, 1, 49, 64
1, 28298, Note_off_c, 4, 37, 64
1, 28310, Note_off_c, 9, 38, 64
1, 28315, Note_on_c, 1, 49, 114
1, 28315, Note_on_c, 4, 37, 114
1, 28315, Note_on_c, 9, 38, 65
1, 28320, Note_on_c, 6, 49, 116
1, 28333, Note_on_c, 0, 72, 115
1, 28333, Note_on_c, 5, 60, 100
1, 28350, Note_on_c, 8, 73, 80
1, 28358, Note_on_c, 8, 80, 89
1, 28360, Note_on_c, 8, 76, 98
1, 28369, Note_off_c, 1, 49, 64
1, 28369, Note_off_c, 4, 37, 64
1, 28373, Note_off_c, 6, 49, 64
1, 28381, Note_off_c, 9, 38, 64
1, 28395, Note_on_c, 1, 49, 120
1, 28395, Note_on_c, 4, 37, 120
1, 28398, Note_on_c, 9, 38, 66
1, 28400, Note_on_c, 6, 49, 78
1, 28453, Note_off_c, 6, 49, 64
1, 28463, Note_off_c, 1, 49, 64
1, 28463, Note_off_c, 4, 37, 64
1, 28473, Note_on_c, 1, 49, 120
1, 28473, Note_on_c, 4, 37, 120
1, 28475, Note_on_c, 9, 38, 62
1, 28480, Note_off_c, 9, 38, 64
1, 28480, Note_off_c, 9, 38, 64
1, 28480, Note_on_c, 6, 49, 112
1, 28527, Note_off_c, 1, 49, 64
1, 28527, Note_off_c, 4, 37, 64
1, 28530, Note_off_c, 6, 49, 64
1, 28555, Note_on_c, 1, 49, 120
1, 28555, Note_on_c, 4, 37, 120
1, 28560, Note_on_c, 9, 38, 66
1, 28560, Note_on_c, 6, 49, 68
1, 28596, Note_off_c, 0, 72, 64
1, 28596, Note_off_c, 5, 60, 64
1, 28600, Note_off_c, 6, 49, 64
1, 28621, Note_off_c, 9, 38, 64
1, 28642, Note_off_c, 1, 49, 64
1, 28642, Note_off_c, 4, 37, 64
1, 28686, Note_off_c, 8, 80, 64
1, 28693, Note_on_c, 0, 71, 115
1, 28693, Note_on_c, 5, 59, 91
1, 28698, Note_off_c, 8, 76, 64
1, 28700, Note_off_c, 8, 73, 64
1, 28761, Note_off_c, 0, 71, 64
1, 28761, Note_off_c, 5, 59, 64
1, 28795, Note_on_c, 1, 51, 120
1, 28805, Note_on_c, 4, 27, 120
1, 28808, Note_on_c, 9, 38, 64
1, 28808, Note_on_c, 0, 70, 115
1, 28808, Note_on_c, 5, 58, 100
1, 28810, Note_on_c, 2, 78, 112
1, 28810, Note_on_c, 2, 75, 108
1, 28810, Note_on_c, 2, 70, 120
1, 28863, Note_off_c, 9, 38, 64
1, 28877, Note_off_c, 2, 78, 64
1, 28877, Note_off_c, 2, 75, 64
1, 28877, Note_off_c, 2, 70, 64
1, 28901, Note_off_c, 0, 70, 64
1, 28901, Note_off_c, 5, 58, 64
1, 28923, Note_on_c, 0, 69, 115
1, 28923, Note_on_c, 5, 57, 91
1, 28995, Note_off_c, 1, 51, 64
1, 28996, Note_off_c, 0, 69, 64
1, 28996, Note_off_c, 5, 57, 64
1, 29005, Note_off_c, 4, 27, 64
1, 29045, Note_on_c, 0, 70, 115
1, 29045, Note_on_c, 5, 58, 100
1, 29150, Note_off_c, 0, 70, 64
1, 29150, Note_off_c, 5, 58, 64
1, 29268, Note_on_c, 1, 51, 120
1, 29268, Note_on_c, 4, 27, 120
1, 29268, Note_on_c, 2, 78, 112
1, 29268, Note_on_c, 2, 75, 108
1, 29268, Note_on_c, 2, 70, 120
1, 29285, Note_on_c, 9, 38, 70
1, 29332, Note_off_c, 2, 78, 64
1, 29332, Note_off_c, 2, 75, 64
1, 29332, Note_off_c, 2, 70, 64
1, 29346, Note_off_c, 9, 38, 64
1, 29428, Note_off_c, 1, 51, 64
1, 29428, Note_off_c, 4, 27, 64
1, 29520, Note_on_c, 1, 51, 112
1, 29520, Note_on_c, 4, 27, 112
1, 29520, Note_on_c, 2, 78, 106
1, 29520, Note_on_c, 2, 75, 101
1, 29520, Note_on_c, 2, 70, 112
1, 29520, Note_on_c, 9, 38, 52
1, 29538, Note_on_c, 0, 63, 115
1, 29538, Note_on_c, 5, 51, 100
1, 29570, Note_off_c, 1, 51, 64
1, 29570, Note_off_c, 4, 27, 64
1, 29578, Note_off_c, 9, 38, 64
1, 29587, Note_off_c, 2, 78, 64
1, 29587, Note_off_c, 2, 75, 64
1, 29587, Note_off_c, 2, 70, 64
1, 29598, Note_on_c, 1, 51, 100
1, 29598, Note_on_c, 4, 27, 100
1, 29598, Note_on_c, 2, 78, 95
1, 29598, Note_on_c, 2, 75, 101
1, 29598, Note_on_c, 2, 70, 100
1, 29600, Note_on_c, 9, 38, 62
1, 29618, Note_off_c, 0, 63, 64
1, 29618, Note_off_c, 5, 51, 64
1, 29648, Note_off_c, 1, 51, 64
1, 29648, Note_off_c, 4, 27, 64
1, 29665, Note_off_c, 2, 78, 64
1, 29665, Note_off_c, 2, 75, 64
1, 29665, Note_off_c, 2, 70, 64
1, 29668, Note_off_c, 9, 38, 64
1, 29678, Note_on_c, 1, 51, 120
1, 29678, Note_on_c, 4, 27, 120
1, 29678, Note_on_c, 2, 78, 112
1, 29678, Note_on_c, 2, 75, 108
1, 29678, Note_on_c, 2, 70, 120
1, 29680, Note_on_c, 9, 38, 66
1, 29731, Note_off_c, 9, 38, 64
1, 29734, Note_off_c, 1, 51, 64
1, 29734, Note_off_c, 4, 27, 64
1, 29749, Note_off_c, 2, 78, 64
1, 29749, Note_off_c, 2, 75, 64
1, 29749, Note_off_c, 2, 70, 64
1, 29758, Note_on_c, 1, 51, 102
1, 29758, Note_on_c, 4, 27, 102
1, 29758, Note_on_c, 2, 78, 97
1, 29758, Note_on_c, 2, 75, 101
1, 29758, Note_on_c, 2, 70, 102
1, 29760, Note_on_c, 9, 38, 54
1, 29775, Note_on_c, 0, 66, 115
1, 29775, Note_on_c, 5, 54, 89
1, 29825, Note_off_c, 2, 78, 64
1, 29825, Note_off_c, 2, 75, 64
1, 29825, Note_off_c, 2, 70, 64
1, 29839, Note_off_c, 9, 38, 64
1, 29878, Note_off_c, 1, 51, 64
1, 29878, Note_off_c, 4, 27, 64
1, 30065, Note_off_c, 0, 66, 64
1, 30065, Note_off_c, 5, 54, 64
1, 30235, Note_on_c, 1, 48, 114
1, 30235, Note_on_c, 4, 36, 114
1, 30235, Note_on_c, 2, 78, 108
1, 30235, Note_on_c, 2, 75, 101
1, 30235, Note_on_c, 2, 70, 114
1, 30240, Note_on_c, 6, 42, 116
1, 30240, Note_on_c, 9, 38, 66
1, 30253, Note_on_c, 0, 63, 115
1, 30253, Note_on_c, 5, 51, 100
1, 30293, Note_off_c, 1, 48, 64
1, 30293, Note_off_c, 4, 36, 64
1, 30298, Note_off_c, 6, 42, 64
1, 30302, Note_off_c, 2, 78, 64
1, 30302, Note_off_c, 2, 75, 64
1, 30302, Note_off_c, 2, 70, 64
1, 30308, Note_off_c, 9, 38, 64
1, 30315, Note_on_c, 1, 48, 120
1, 30315, Note_on_c, 4, 36, 120
1, 30315, Note_on_c, 2, 78, 112
1, 30315, Note_on_c, 2, 75, 108
1, 30315, Note_on_c, 2, 70, 120
1, 30320, Note_on_c, 6, 42, 74
1, 30320, Note_on_c, 9, 38, 55
1, 30363, Note_off_c, 6, 42, 64
1, 30387, Note_off_c, 1, 48, 64
1, 30387, Note_off_c, 4, 36, 64
1, 30388, Note_off_c, 9, 38, 64
1, 30393, Note_off_c, 2, 78, 64
1, 30393, Note_off_c, 2, 75, 64
1, 30393, Note_off_c, 2, 70, 64
1, 30393, Note_on_c, 1, 48, 120
1, 30393, Note_on_c, 4, 36, 120
1, 30393, Note_on_c, 2, 78, 112
1, 30393, Note_on_c, 2, 75, 104
1, 30393, Note_on_c, 2, 70, 120
1, 30398, Note_on_c, 9, 38, 57
1, 30400, Note_on_c, 6, 42, 112
1, 30450, Note_off_c, 6, 42, 64
1, 30451, Note_off_c, 1, 48, 64
1, 30451, Note_off_c, 4, 36, 64
1, 30460, Note_off_c, 2, 78, 64
1, 30460, Note_off_c, 2, 75, 64
1, 30460, Note_off_c, 2, 70, 64
1, 30470, Note_off_c, 9, 38, 64
1, 30475, Note_on_c, 1, 48, 120
1, 30475, Note_on_c, 4, 36, 120
1, 30475, Note_on_c, 2, 78, 112
1, 30475, Note_on_c, 2, 75, 108
1, 30475, Note_on_c, 2, 70, 120
1, 30480, Note_on_c, 9, 38, 57
1, 30480, Note_on_c, 6, 42, 74
1, 30523, Note_off_c, 6, 42, 64
1, 30528, Note_off_c, 0, 63, 64
1, 30528, Note_off_c, 5, 51, 64
1, 30549, Note_off_c, 2, 78, 64
1, 30549, Note_off_c, 2, 75, 64
1, 30549, Note_off_c, 2, 70, 64
1, 30552, Note_off_c, 9, 38, 64
1, 30595, Note_off_c, 1, 48, 64
1, 30595, Note_off_c, 4, 36, 64
1, 30623, Note_on_c, 0, 70, 115
1, 30623, Note_on_c, 5, 58, 89
1, 30683, Note_off_c, 0, 70, 64
1, 30683, Note_off_c, 5, 58, 64
1, 30720, Note_on_c, 7, 67, 120
1, 30720, Note_on_c, 1, 55, 120
1, 30720, Note_on_c, 4, 31, 120
1, 30728, Note_on_c, 9, 38, 74
1, 30733, Note_on_c, 0, 67, 115
1, 30733, Note_on_c, 5, 55, 91
1, 30768, Note_off_c, 7, 67, 64
1, 30802, Note_off_c, 9, 38, 64
1, 30920, Note_off_c, 1, 55, 64
1, 30920, Note_off_c, 4, 31, 64
1, 31058, Note_off_c, 0, 67, 64
1, 31058, Note_off_c, 5, 55, 64
1, 31195, Note_on_c, 2, 75, 101
1, 31195, Note_on_c, 2, 78, 108
1, 31195, Note_on_c, 2, 70, 114
1, 31195, Note_on_c, 1, 51, 114
1, 31195, Note_on_c, 4, 27, 114
1, 31203, Note_on_c, 0, 63, 115
1, 31203, Note_on_c, 5, 51, 91
1, 31208, Note_on_c, 9, 38, 68
1, 31249, Note_off_c, 1, 51, 64
1, 31249, Note_off_c, 4, 27, 64
1, 31262, Note_off_c, 2, 75, 64
1, 31262, Note_off_c, 2, 78, 64
1, 31262, Note_off_c, 2, 70, 64
1, 31275, Note_on_c, 2, 75, 108
1, 31275, Note_on_c, 2, 78, 112
1, 31275, Note_on_c, 2, 70, 120
1, 31275, Note_on_c, 1, 51, 120
1, 31275, Note_on_c, 4, 27, 120
1, 31280, Note_off_c, 9, 38, 64
1, 31280, Note_on_c, 9, 38, 51
1, 31343, Note_off_c, 1, 51, 64
1, 31343, Note_off_c, 4, 27, 64
1, 31353, Note_off_c, 2, 75, 64
1, 31353, Note_off_c, 2, 78, 64
1, 31353, Note_off_c, 2, 70, 64
1, 31353, Note_on_c, 2, 75, 104
1, 31353, Note_on_c, 2, 78, 112
1, 31353, Note_on_c, 2, 70, 120
1, 31353, Note_on_c, 1, 51, 120
1, 31353, Note_on_c, 4, 27, 120
1, 31354, Note_off_c, 9, 38, 64
1, 31360, Note_on_c, 9, 38, 59
1, 31407, Note_off_c, 1, 51, 64
1, 31407, Note_off_c, 4, 27, 64
1, 31420, Note_off_c, 2, 75, 64
1, 31420, Note_off_c, 2, 78, 64
1, 31420, Note_off_c, 2, 70, 64
1, 31426, Note_off_c, 9, 38, 64
1, 31435, Note_on_c, 2, 75, 108
1, 31435, Note_on_c, 2, 78, 112
1, 31435, Note_on_c, 2, 70, 120
1, 31435, Note_on_c, 1, 51, 120
1, 31435, Note_on_c, 4, 27, 120
1, 31453, Note_on_c, 9, 38, 48
1, 31473, Note_off_c, 0, 63, 64
1, 31473, Note_off_c, 5, 51, 64
1, 31508, Note_off_c, 9, 38, 64
1, 31509, Note_off_c, 2, 75, 64
1, 31509, Note_off_c, 2, 78, 64
1, 31509, Note_off_c, 2, 70, 64
1, 31522, Note_off_c, 1, 51, 64
1, 31522, Note_off_c, 4, 27, 64
1, 31588, Note_on_c, 0, 70, 115
1, 31588, Note_on_c, 5, 58, 91
1, 31653, Note_off_c, 0, 70, 64
1, 31653, Note_off_c, 5, 58, 64
1, 31678, Note_on_c, 9, 38, 48
1, 31688, Note_on_c, 7, 67, 102
1, 31688, Note_on_c, 1, 43, 102
1, 31688, Note_on_c, 4, 31, 102
1, 31693, Note_on_c, 0, 67, 115
1, 31693, Note_on_c, 5, 55, 89
1, 31731, Note_off_c, 7, 67, 64
1, 31736, Note_off_c, 9, 38, 64
1, 31848, Note_off_c, 1, 43, 64
1, 31848, Note_off_c, 4, 31, 64
1, 31920, Note_on_c, 9, 38, 71
1, 31923, Note_on_c, 7, 67, 120
1, 31923, Note_on_c, 1, 43, 120
1, 31923, Note_on_c, 4, 31, 120
1, 31968, Note_off_c, 7, 67, 64
1, 31969, Note_off_c, 1, 43, 64
1, 31969, Note_off_c, 4, 31, 64
1, 31981, Note_off_c, 9, 38, 64
1, 32000, Note_on_c, 9, 38, 60
1, 32000, Note_on_c, 7, 67, 100
1, 32000, Note_on_c, 1, 43, 100
1, 32000, Note_on_c, 4, 31, 100
1, 32045, Note_off_c, 7, 67, 64
1, 32046, Note_off_c, 1, 43, 64
1, 32046, Note_off_c, 4, 31, 64
1, 32068, Note_off_c, 9, 38, 64
1, 32078, Note_on_c, 9, 38, 60
1, 32080, Note_on_c, 7, 67, 109
1, 32080, Note_on_c, 1, 43, 109
1, 32080, Note_on_c, 4, 31, 109
1, 32123, Note_off_c, 7, 67, 64
1, 32140, Note_off_c, 1, 43, 64
1, 32140, Note_off_c, 4, 31, 64
1, 32150, Note_off_c, 9, 38, 64
1, 32158, Note_on_c, 9, 38, 65
1, 32160, Note_on_c, 6, 43, 116
1, 32163, Note_on_c, 7, 67, 100
1, 32163, Note_on_c, 1, 43, 100
1, 32163, Note_on_c, 4, 31, 100
1, 32197, Note_off_c, 1, 43, 64
1, 32197, Note_off_c, 4, 31, 64
1, 32201, Note_off_c, 7, 67, 64
1, 32215, Note_off_c, 6, 43, 64
1, 32224, Note_off_c, 9, 38, 64
1, 32238, Note_on_c, 9, 38, 66
1, 32240, Note_on_c, 6, 43, 68
1, 32240, Note_on_c, 7, 67, 107
1, 32240, Note_on_c, 1, 43, 107
1, 32240, Note_on_c, 4, 31, 107
1, 32280, Note_off_c, 6, 43, 64
1, 32290, Note_off_c, 7, 67, 64
1, 32295, Note_off_c, 1, 43, 64
1, 32295, Note_off_c, 4, 31, 64
1, 32298, Note_off_c, 0, 67, 64
1, 32298, Note_off_c, 5, 55, 64
1, 32318, Note_on_c, 9, 38, 62
1, 32318, Note_on_c, 7, 67, 120
1, 32318, Note_on_c, 1, 43, 120
1, 32318, Note_on_c, 4, 31, 120
1, 32320, Note_off_c, 9, 38, 64
1, 32320, Note_off_c, 9, 38, 64
1, 32320, Note_on_c, 6, 43, 78
1, 32363, Note_off_c, 7, 67, 64
1, 32364, Note_off_c, 1, 43, 64
1, 32364, Note_off_c, 4, 31, 64
1, 32373, Note_off_c, 6, 43, 64
1, 32400, Note_on_c, 9, 38, 66
1, 32400, Note_on_c, 6, 43, 112
1, 32403, Note_on_c, 7, 67, 120
1, 32403, Note_on_c, 1, 43, 120
1, 32403, Note_on_c, 4, 31, 120
1, 32450, Note_off_c, 6, 43, 64
1, 32456, Note_off_c, 7, 67, 64
1, 32461, Note_off_c, 9, 38, 64
1, 32495, Note_off_c, 1, 43, 64
1, 32495, Note_off_c, 4, 31, 64
1, 32640, Note_on_c, 9, 38, 50
1, 32640, Note_on_c, 1, 43, 114
1, 32640, Note_on_c, 4, 31, 114
1, 32695, Note_off_c, 9, 38, 64
1, 32840, Note_off_c, 1, 43, 64
1, 32840, Note_off_c, 4, 31, 64
1, 33118, Note_on_c, 1, 43, 107
1, 33118, Note_on_c, 4, 31, 107
1, 33125, Note_on_c, 9, 38, 52
1, 33186, Note_off_c, 9, 38, 64
1, 33278, Note_off_c, 1, 43, 64
1, 33278, Note_off_c, 4, 31, 64
1, 33350, Note_on_c, 1, 43, 120
1, 33350, Note_on_c, 4, 31, 120
1, 33370, Note_on_c, 9, 38, 46
1, 33417, Note_off_c, 9, 38, 64
1, 33420, Note_off_c, 1, 43, 64
1, 33420, Note_off_c, 4, 31, 64
1, 33430, Note_on_c, 1, 43, 100
1, 33430, Note_on_c, 4, 31, 100
1, 33450, Note_on_c, 9, 38, 37
1, 33497, Note_off_c, 9, 38, 64
1, 33500, Note_off_c, 1, 43, 64
1, 33500, Note_off_c, 4, 31, 64
1, 33508, Note_on_c, 1, 43, 107
1, 33508, Note_on_c, 4, 31, 107
1, 33528, Note_on_c, 9, 38, 55
1, 33569, Note_off_c, 1, 43, 64
1, 33569, Note_off_c, 4, 31, 64
1, 33586, Note_off_c, 9, 38, 64
1, 33598, Note_on_c, 1, 43, 100
1, 33598, Note_on_c, 4, 31, 100
1, 33600, Note_on_c, 9, 38, 68
1, 33668, Note_off_c, 9, 38, 64
1, 33718, Note_off_c, 1, 43, 64
1, 33718, Note_off_c, 4, 31, 64
1, 33835, Note_on_c, 1, 43, 100
1, 33835, Note_on_c, 4, 31, 100
1, 33848, Note_on_c, 9, 38, 47
1, 33906, Note_off_c, 9, 38, 64
1, 33918, Note_on_c, 1, 43, 102
1, 33918, Note_on_c, 4, 31, 102
1, 33919, Note_off_c, 1, 43, 64
1, 33919, Note_off_c, 4, 31, 64
1, 33919, Note_off_c, 1, 43, 64
1, 33919, Note_off_c, 4, 31, 64
1, 33923, Note_on_c, 9, 38, 46
1, 33995, Note_off_c, 9, 38, 64
1, 33998, Note_on_c, 1, 43, 120
1, 33998, Note_on_c, 4, 31, 120
1, 34008, Note_on_c, 9, 38, 50
1, 34073, Note_off_c, 1, 43, 64
1, 34073, Note_off_c, 4, 31, 64
1, 34073, Note_on_c, 4, 39, 112
1, 34073, Note_on_c, 4, 27, 112
1, 34074, Note_off_c, 9, 38, 64
1, 34078, Note_on_c, 2, 66, 110
1, 34080, Note_on_c, 6, 39, 82
1, 34080, Note_on_c, 2, 70, 95
1, 34080, Note_on_c, 2, 75, 110
1, 34083, Note_on_c, 9, 38, 48
1, 34130, Note_off_c, 6, 39, 64
1, 34136, Note_off_c, 4, 39, 64
1, 34136, Note_off_c, 4, 27, 64
1, 34139, Note_off_c, 2, 75, 64
1, 34150, Note_on_c, 1, 39, 120
1, 34150, Note_on_c, 4, 27, 120
1, 34152, Note_off_c, 2, 66, 64
1, 34155, Note_off_c, 9, 38, 64
1, 34155, Note_on_c, 2, 66, 104
1, 34158, Note_off_c, 2, 70, 64
1, 34158, Note_on_c, 2, 75, 120
1, 34160, Note_on_c, 6, 39, 59
1, 34163, Note_on_c, 2, 70, 95
1, 34165, Note_on_c, 9, 38, 58
1, 34210, Note_off_c, 6, 39, 64
1, 34222, Note_off_c, 1, 39, 64
1, 34222, Note_off_c, 4, 27, 64
1, 34222, Note_off_c, 2, 75, 64
1, 34228, Note_on_c, 1, 39, 109
1, 34228, Note_on_c, 4, 27, 109
1, 34230, Note_off_c, 2, 70, 64
1, 34230, Note_on_c, 2, 66, 114
1, 34233, Note_off_c, 2, 66, 64
1, 34233, Note_off_c, 9, 38, 64
1, 34233, Note_off_c, 2, 66, 64
1, 34235, Note_on_c, 2, 75, 103
1, 34240, Note_on_c, 6, 39, 68
1, 34243, Note_on_c, 9, 38, 71
1, 34245, Note_on_c, 2, 70, 95
1, 34286, Note_off_c, 1, 39, 64
1, 34286, Note_off_c, 4, 27, 64
1, 34298, Note_off_c, 6, 39, 64
1, 34302, Note_off_c, 2, 75, 64
1, 34304, Note_off_c, 2, 70, 64
1, 34310, Note_on_c, 1, 39, 109
1, 34310, Note_on_c, 4, 27, 109
1, 34315, Note_off_c, 9, 38, 64
1, 34315, Note_on_c, 2, 75, 120
1, 34315, Note_on_c, 2, 66, 120
1, 34320, Note_on_c, 6, 39, 99
1, 34320, Note_on_c, 2, 70, 95
1, 34330, Note_on_c, 9, 38, 64
1, 34367, Note_off_c, 2, 75, 64
1, 34370, Note_off_c, 6, 39, 64
1, 34387, Note_off_c, 2, 70, 64
1, 34389, Note_off_c, 2, 66, 64
1, 34396, Note_off_c, 9, 38, 64
1, 34399, Note_off_c, 1, 39, 64
1, 34399, Note_off_c, 4, 27, 64
1, 34563, Note_on_c, 1, 43, 120
1, 34563, Note_on_c, 4, 31, 120
1, 34568, Note_on_c, 9, 38, 64
1, 34634, Note_off_c, 9, 38, 64
1, 34763, Note_off_c, 1, 43, 64
1, 34763, Note_off_c, 4, 31, 64
1, 35035, Note_on_c, 9, 38, 66
1, 35045, Note_on_c, 1, 43, 109
1, 35045, Note_on_c, 4, 31, 109
1, 35103, Note_off_c, 9, 38, 64
1, 35205, Note_off_c, 1, 43, 64
1, 35205, Note_off_c, 4, 31, 64
1, 35283, Note_on_c, 9, 38, 60
1, 35283, Note_on_c, 1, 43, 114
1, 35283, Note_on_c, 4, 31, 114
1, 35333, Note_off_c, 1, 43, 64
1, 35333, Note_off_c, 4, 31, 64
1, 35344, Note_off_c, 9, 38, 64
1, 35363, Note_on_c, 1, 43, 100
1, 35363, Note_on_c, 4, 31, 100
1, 35365, Note_on_c, 9, 38, 35
1, 35408, Note_off_c, 1, 43, 64
1, 35408, Note_off_c, 4, 31, 64
1, 35420, Note_off_c, 9, 38, 64
1, 35440, Note_on_c, 1, 43, 120
1, 35440, Note_on_c, 4, 31, 120
1, 35443, Note_on_c, 9, 38, 64
1, 35502, Note_off_c, 1, 43, 64
1, 35502, Note_off_c, 4, 31, 64
1, 35509, Note_off_c, 9, 38, 64
1, 35520, Note_on_c, 1, 43, 112
1, 35520, Note_on_c, 4, 31, 112
1, 35520, Note_on_c, 9, 38, 60
1, 35588, Note_off_c, 9, 38, 64
1, 35640, Note_off_c, 1, 43, 64
1, 35640, Note_off_c, 4, 31, 64
1, 35765, Note_on_c, 9, 38, 48
1, 35778, Note_on_c, 1, 43, 105
1, 35778, Note_on_c, 4, 31, 105
1, 35820, Note_off_c, 9, 38, 64
1, 35837, Note_off_c, 1, 43, 64
1, 35837, Note_off_c, 4, 31, 64
1, 35845, Note_on_c, 9, 38, 50
1, 35860, Note_on_c, 1, 43, 100
1, 35860, Note_on_c, 4, 31, 100
1, 35917, Note_off_c, 9, 38, 64
1, 35919, Note_off_c, 1, 43, 64
1, 35919, Note_off_c, 4, 31, 64
1, 35925, Note_on_c, 9, 38, 61
1, 35930, Note_on_c, 1, 43, 107
1, 35930, Note_on_c, 4, 31, 107
1, 35993, Note_off_c, 9, 38, 64
1, 35998, Note_off_c, 1, 43, 64
1, 35998, Note_off_c, 4, 31, 64
1, 36000, Note_on_c, 6, 39, 85
1, 36000, Note_on_c, 2, 75, 101
1, 36000, Note_on_c, 2, 66, 110
1, 36003, Note_on_c, 2, 70, 106
1, 36005, Note_on_c, 9, 38, 52
1, 36008, Note_on_c, 1, 39, 105
1, 36008, Note_on_c, 4, 27, 105
1, 36053, Note_off_c, 6, 39, 64
1, 36063, Note_off_c, 1, 39, 64
1, 36063, Note_off_c, 4, 27, 64
1, 36064, Note_off_c, 2, 75, 64
1, 36066, Note_off_c, 9, 38, 64
1, 36074, Note_off_c, 2, 66, 64
1, 36074, Note_off_c, 2, 70, 64
1, 36078, Note_on_c, 2, 66, 104
1, 36080, Note_on_c, 6, 39, 74
1, 36080, Note_on_c, 2, 75, 116
1, 36083, Note_on_c, 2, 70, 95
1, 36085, Note_on_c, 9, 38, 64
1, 36085, Note_on_c, 1, 39, 120
1, 36085, Note_on_c, 4, 27, 120
1, 36130, Note_off_c, 6, 39, 64
1, 36150, Note_off_c, 2, 70, 64
1, 36151, Note_off_c, 2, 75, 64
1, 36151, Note_off_c, 9, 38, 64
1, 36152, Note_off_c, 1, 39, 64
1, 36152, Note_off_c, 4, 27, 64
1, 36153, Note_on_c, 2, 66, 114
1, 36156, Note_off_c, 2, 66, 64
1, 36156, Note_off_c, 2, 66, 64
1, 36158, Note_on_c, 1, 39, 120
1, 36158, Note_on_c, 4, 27, 120
1, 36158, Note_on_c, 2, 75, 110
1, 36160, Note_on_c, 6, 39, 99
1, 36163, Note_on_c, 2, 70, 95
1, 36165, Note_on_c, 9, 38, 51
1, 36213, Note_off_c, 1, 39, 64
1, 36213, Note_off_c, 4, 27, 64
1, 36217, Note_off_c, 2, 75, 64
1, 36218, Note_off_c, 6, 39, 64
1, 36230, Note_off_c, 2, 70, 64
1, 36233, Note_off_c, 9, 38, 64
1, 36235, Note_on_c, 2, 66, 120
1, 36238, Note_on_c, 2, 70, 95
1, 36240, Note_on_c, 1, 39, 120
1, 36240, Note_on_c, 4, 27, 120
1, 36240, Note_on_c, 6, 39, 78
1, 36240, Note_on_c, 2, 75, 120
1, 36245, Note_on_c, 9, 38, 60
1, 36290, Note_off_c, 6, 39, 64
1, 36299, Note_off_c, 2, 75, 64
1, 36304, Note_off_c, 1, 39, 64
1, 36304, Note_off_c, 4, 27, 64
1, 36311, Note_off_c, 9, 38, 64
1, 36313, Note_off_c, 2, 66, 64
1, 36324, Note_off_c, 2, 70, 64
1, 36480, Note_on_c, 9, 38, 78
1, 36488, Note_on_c, 1, 43, 120
1, 36488, Note_on_c, 4, 31, 120
1, 36538, Note_off_c, 9, 38, 64
1, 36688, Note_off_c, 1, 43, 64
1, 36688, Note_off_c, 4, 31, 64
1, 36963, Note_on_c, 9, 38, 71
1, 36968, Note_on_c, 1, 43, 120
1, 36968, Note_on_c, 4, 31, 120
1, 37029, Note_off_c, 9, 38, 64
1, 37128, Note_off_c, 1, 43, 64
1, 37128, Note_off_c, 4, 31, 64
1, 37205, Note_on_c, 9, 38, 57
1, 37210, Note_on_c, 1, 43, 114
1, 37210, Note_on_c, 4, 31, 114
1, 37252, Note_off_c, 1, 43, 64
1, 37252, Note_off_c, 4, 31, 64
1, 37273, Note_off_c, 9, 38, 64
1, 37288, Note_on_c, 9, 38, 41
1, 37288, Note_on_c, 1, 43, 100
1, 37288, Note_on_c, 4, 31, 100
1, 37335, Note_off_c, 1, 43, 64
1, 37335, Note_off_c, 4, 31, 64
1, 37346, Note_off_c, 9, 38, 64
1, 37363, Note_on_c, 9, 38, 75
1, 37368, Note_on_c, 1, 43, 120
1, 37368, Note_on_c, 4, 31, 120
1, 37424, Note_off_c, 1, 43, 64
1, 37424, Note_off_c, 4, 31, 64
1, 37429, Note_off_c, 9, 38, 64
1, 37443, Note_on_c, 1, 43, 120
1, 37443, Note_on_c, 4, 31, 120
1, 37445, Note_on_c, 9, 38, 60
1, 37511, Note_off_c, 9, 38, 64
1, 37563, Note_off_c, 1, 43, 64
1, 37563, Note_off_c, 4, 31, 64
1, 37688, Note_on_c, 1, 43, 109
1, 37688, Note_on_c, 4, 31, 109
1, 37695, Note_on_c, 9, 38, 64
1, 37750, Note_off_c, 9, 38, 64
1, 37763, Note_off_c, 1, 43, 64
1, 37763, Note_off_c, 4, 31, 64
1, 37765, Note_on_c, 1, 43, 100
1, 37765, Note_on_c, 4, 31, 100
1, 37775, Note_on_c, 9, 38, 50
1, 37840, Note_off_c, 1, 43, 64
1, 37840, Note_off_c, 4, 31, 64
1, 37841, Note_off_c, 9, 38, 64
1, 37845, Note_on_c, 1, 43, 109
1, 37845, Note_on_c, 4, 31, 109
1, 37845, Note_on_c, 9, 38, 66
1, 37910, Note_on_c, 7, 66, 110
1, 37917, Note_off_c, 9, 38, 64
1, 37920, Note_on_c, 6, 39, 82
1, 37920, Note_on_c, 2, 70, 120
1, 37920, Note_on_c, 2, 70, 112
1, 37921, Note_off_c, 1, 43, 64
1, 37921, Note_off_c, 4, 31, 64
1, 37923, Note_on_c, 1, 39, 109
1, 37923, Note_on_c, 4, 27, 109
1, 37925, Note_on_c, 9, 38, 55
1, 37960, Note_off_c, 7, 66, 64
1, 37975, Note_off_c, 6, 39, 64
1, 37978, Note_off_c, 1, 39, 64
1, 37978, Note_off_c, 4, 27, 64
1, 37988, Note_on_c, 7, 66, 116
1, 37990, Note_off_c, 2, 70, 64
1, 37990, Note_off_c, 2, 70, 64
1, 37997, Note_off_c, 9, 38, 64
1, 37998, Note_on_c, 2, 70, 95
1, 38000, Note_on_c, 6, 39, 78
1, 38000, Note_on_c, 9, 38, 70
1, 38000, Note_on_c, 2, 70, 95
1, 38003, Note_on_c, 1, 39, 120
1, 38003, Note_on_c, 4, 27, 120
1, 38041, Note_off_c, 7, 66, 64
1, 38048, Note_off_c, 6, 39, 64
1, 38067, Note_off_c, 1, 39, 64
1, 38067, Note_off_c, 4, 27, 64
1, 38068, Note_off_c, 2, 70, 64
1, 38068, Note_off_c, 2, 70, 64
1, 38068, Note_on_c, 7, 66, 120
1, 38072, Note_off_c, 9, 38, 64
1, 38080, Note_on_c, 6, 39, 95
1, 38080, Note_on_c, 9, 38, 64
1, 38080, Note_on_c, 2, 70, 95
1, 38083, Note_on_c, 1, 39, 120
1, 38083, Note_on_c, 4, 27, 120
1, 38085, Note_on_c, 2, 70, 114
1, 38113, Note_off_c, 7, 66, 64
1, 38130, Note_off_c, 6, 39, 64
1, 38141, Note_off_c, 1, 39, 64
1, 38141, Note_off_c, 4, 27, 64
1, 38150, Note_off_c, 2, 70, 64
1, 38150, Note_off_c, 2, 70, 64
1, 38150, Note_on_c, 7, 66, 120
1, 38152, Note_off_c, 9, 38, 64
1, 38155, Note_on_c, 2, 70, 95
1, 38158, Note_on_c, 2, 70, 105
1, 38160, Note_on_c, 6, 39, 89
1, 38165, Note_on_c, 1, 39, 120
1, 38165, Note_on_c, 4, 27, 120
1, 38170, Note_on_c, 9, 38, 55
1, 38200, Note_off_c, 7, 66, 64
1, 38210, Note_off_c, 6, 39, 64
1, 38225, Note_off_c, 2, 70, 64
1, 38225, Note_off_c, 2, 70, 64
1, 38236, Note_off_c, 9, 38, 64
1, 38237, Note_off_c, 1, 39, 64
1, 38237, Note_off_c, 4, 27, 64
1, 38390, Note_on_c, 1, 43, 120
1, 38390, Note_on_c, 4, 31, 120
1, 38400, Note_on_c, 6, 50, 106
1, 38540, Note_off_c, 6, 50, 64
1, 38550, Note_off_c, 1, 43, 64
1, 38550, Note_off_c, 4, 31, 64
1, 38638, Note_on_c, 2, 70, 64
1, 38640, Note_on_c, 3, 58, 97
1, 38640, Note_on_c, 2, 74, 78
1, 38643, Note_on_c, 3, 62, 93
1, 38645, Note_on_c, 9, 38, 64
1, 38685, Note_off_c, 3, 58, 64
1, 38693, Note_off_c, 3, 62, 64
1, 38699, Note_off_c, 2, 74, 64
1, 38711, Note_off_c, 9, 38, 64
1, 38712, Note_off_c, 2, 70, 64
1, 38715, Note_on_c, 2, 70, 95
1, 38715, Note_on_c, 2, 74, 95
1, 38715, Note_on_c, 3, 58, 89
1, 38720, Note_on_c, 1, 43, 100
1, 38720, Note_on_c, 4, 31, 100
1, 38720, Note_on_c, 3, 62, 89
1, 38728, Note_on_c, 9, 38, 50
1, 38770, Note_off_c, 3, 58, 64
1, 38774, Note_off_c, 1, 43, 64
1, 38774, Note_off_c, 4, 31, 64
1, 38775, Note_off_c, 3, 62, 64
1, 38796, Note_off_c, 2, 70, 64
1, 38796, Note_off_c, 2, 74, 64
1, 38798, Note_on_c, 2, 70, 113
1, 38798, Note_on_c, 2, 74, 113
1, 38798, Note_on_c, 1, 43, 107
1, 38798, Note_on_c, 4, 31, 107
1, 38798, Note_on_c, 3, 58, 99
1, 38800, Note_off_c, 9, 38, 64
1, 38803, Note_on_c, 3, 62, 99
1, 38808, Note_on_c, 9, 38, 60
1, 38851, Note_off_c, 3, 58, 64
1, 38856, Note_off_c, 3, 62, 64
1, 38870, Note_off_c, 1, 43, 64
1, 38870, Note_off_c, 4, 31, 64
1, 38874, Note_off_c, 9, 38, 64
1, 38875, Note_on_c, 2, 71, 106
1, 38875, Note_on_c, 2, 75, 106
1, 38875, Note_on_c, 3, 59, 93
1, 38876, Note_off_c, 2, 70, 64
1, 38876, Note_off_c, 2, 74, 64
1, 38878, Note_on_c, 3, 63, 93
1, 38880, Note_on_c, 6, 39, 99
1, 38880, Note_on_c, 1, 43, 102
1, 38880, Note_on_c, 4, 31, 102
1, 38883, Note_on_c, 9, 38, 68
1, 38928, Note_off_c, 3, 59, 64
1, 38931, Note_off_c, 3, 63, 64
1, 38933, Note_off_c, 6, 39, 64
1, 38940, Note_off_c, 1, 43, 64
1, 38940, Note_off_c, 4, 31, 64
1, 38949, Note_off_c, 9, 38, 64
1, 38953, Note_off_c, 2, 71, 64
1, 38953, Note_off_c, 2, 75, 64
1, 38955, Note_on_c, 2, 71, 106
1, 38955, Note_on_c, 2, 75, 113
1, 38955, Note_on_c, 3, 59, 99
1, 38958, Note_on_c, 1, 43, 102
1, 38958, Note_on_c, 4, 31, 102
1, 38960, Note_on_c, 6, 39, 80
1, 38960, Note_on_c, 3, 63, 93
1, 38963, Note_on_c, 9, 38, 66
1, 39003, Note_off_c, 6, 39, 64
1, 39005, Note_off_c, 3, 59, 64
1, 39010, Note_off_c, 3, 63, 64
1, 39029, Note_off_c, 2, 71, 64
1, 39029, Note_off_c, 2, 75, 64
1, 39030, Note_off_c, 1, 43, 64
1, 39030, Note_off_c, 4, 31, 64
1, 39035, Note_off_c, 9, 38, 64
1, 39035, Note_on_c, 2, 75, 106
1, 39035, Note_on_c, 1, 43, 120
1, 39035, Note_on_c, 4, 31, 120
1, 39035, Note_on_c, 3, 59, 120
1, 39038, Note_on_c, 2, 71, 106
1, 39038, Note_on_c, 3, 63, 93
1, 39040, Note_on_c, 6, 39, 93
1, 39040, Note_on_c, 9, 38, 74
1, 39083, Note_off_c, 6, 39, 64
1, 39090, Note_off_c, 3, 59, 64
1, 39093, Note_off_c, 3, 63, 64
1, 39098, Note_off_c, 1, 43, 64
1, 39098, Note_off_c, 4, 31, 64
1, 39108, Note_off_c, 9, 38, 64
1, 39115, Note_on_c, 1, 43, 120
1, 39115, Note_on_c, 4, 31, 120
1, 39115, Note_on_c, 2, 77, 106
1, 39116, Note_off_c, 2, 75, 64
1, 39118, Note_on_c, 3, 61, 93
1, 39118, Note_on_c, 3, 65, 93
1, 39118, Note_on_c, 2, 73, 106
1, 39119, Note_off_c, 2, 71, 64
1, 39120, Note_on_c, 6, 39, 78
1, 39123, Note_on_c, 9, 38, 52
1, 39166, Note_off_c, 3, 61, 64
1, 39166, Note_off_c, 3, 65, 64
1, 39170, Note_off_c, 6, 39, 64
1, 39178, Note_off_c, 9, 38, 64
1, 39186, Note_off_c, 2, 77, 64
1, 39187, Note_off_c, 1, 43, 64
1, 39187, Note_off_c, 4, 31, 64
1, 39189, Note_off_c, 2, 73, 64
1, 39190, Note_on_c, 9, 38, 62
1, 39193, Note_on_c, 2, 77, 106
1, 39195, Note_on_c, 3, 61, 93
1, 39195, Note_on_c, 2, 73, 106
1, 39198, Note_on_c, 3, 65, 93
1, 39245, Note_off_c, 3, 61, 64
1, 39251, Note_off_c, 3, 65, 64
1, 39258, Note_off_c, 9, 38, 64
1, 39270, Note_on_c, 2, 77, 106
1, 39271, Note_off_c, 2, 77, 64
1, 39271, Note_off_c, 2, 77, 64
1, 39273, Note_off_c, 2, 73, 64
1, 39275, Note_on_c, 9, 38, 66
1, 39275, Note_on_c, 3, 61, 93
1, 39275, Note_on_c, 2, 73, 106
1, 39278, Note_on_c, 3, 65, 93
1, 39320, Note_off_c, 3, 61, 64
1, 39323, Note_off_c, 3, 65, 64
1, 39326, Note_off_c, 9, 38, 64
1, 39342, Note_off_c, 2, 73, 64
1, 39360, Note_on_c, 6, 50, 106
1, 39500, Note_off_c, 6, 50, 64
1, 39598, Note_on_c, 2, 70, 64
1, 39600, Note_on_c, 3, 63, 97
1, 39600, Note_on_c, 2, 74, 78
1, 39603, Note_on_c, 3, 67, 93
1, 39605, Note_on_c, 9, 38, 64
1, 39645, Note_off_c, 3, 63, 64
1, 39653, Note_off_c, 3, 67, 64
1, 39659, Note_off_c, 2, 74, 64
1, 39671, Note_off_c, 9, 38, 64
1, 39672, Note_off_c, 2, 70, 64
1, 39675, Note_on_c, 2, 70, 95
1, 39675, Note_on_c, 2, 74, 95
1, 39675, Note_on_c, 3, 63, 89
1, 39680, Note_on_c, 1, 43, 100
1, 39680, Note_on_c, 4, 31, 100
1, 39680, Note_on_c, 3, 67, 89
1, 39688, Note_on_c, 9, 38, 50
1, 39730, Note_off_c, 3, 63, 64
1, 39730, Note_off_c, 1, 43, 64
1, 39730, Note_off_c, 4, 31, 64
1, 39735, Note_off_c, 3, 67, 64
1, 39756, Note_off_c, 2, 70, 64
1, 39756, Note_off_c, 2, 74, 64
1, 39758, Note_on_c, 2, 70, 113
1, 39758, Note_on_c, 2, 74, 113
1, 39758, Note_on_c, 1, 43, 107
1, 39758, Note_on_c, 4, 31, 107
1, 39758, Note_on_c, 3, 63, 99
1, 39760, Note_off_c, 9, 38, 64
1, 39763, Note_on_c, 3, 67, 99
1, 39768, Note_on_c, 9, 38, 60
1, 39811, Note_off_c, 3, 63, 64
1, 39816, Note_off_c, 3, 67, 64
1, 39826, Note_off_c, 1, 43, 64
1, 39826, Note_off_c, 4, 31, 64
1, 39834, Note_off_c, 9, 38, 64
1, 39835, Note_on_c, 2, 71, 106
1, 39835, Note_on_c, 2, 75, 106
1, 39835, Note_on_c, 3, 64, 93
1, 39836, Note_off_c, 2, 70, 64
1, 39836, Note_off_c, 2, 74, 64
1, 39838, Note_on_c, 3, 68, 93
1, 39840, Note_on_c, 6, 39, 99
1, 39840, Note_on_c, 1, 43, 102
1, 39840, Note_on_c, 4, 31, 102
1, 39843, Note_on_c, 9, 38, 68
1, 39888, Note_off_c, 3, 64, 64
1, 39891, Note_off_c, 3, 68, 64
1, 39893, Note_off_c, 6, 39, 64
1, 39896, Note_off_c, 1, 43, 64
1, 39896, Note_off_c, 4, 31, 64
1, 39909, Note_off_c, 9, 38, 64
1, 39913, Note_off_c, 2, 71, 64
1, 39913, Note_off_c, 2, 75, 64
1, 39915, Note_on_c, 2, 71, 106
1, 39915, Note_on_c, 2, 75, 113
1, 39915, Note_on_c, 3, 64, 99
1, 39918, Note_on_c, 1, 43, 102
1, 39918, Note_on_c, 4, 31, 102
1, 39920, Note_on_c, 6, 39, 80
1, 39920, Note_on_c, 3, 68, 93
1, 39923, Note_on_c, 9, 38, 66
1, 39963, Note_off_c, 6, 39, 64
1, 39965, Note_off_c, 3, 64, 64
1, 39970, Note_off_c, 3, 68, 64
1, 39986, Note_off_c, 1, 43, 64
1, 39986, Note_off_c, 4, 31, 64
1, 39989, Note_off_c, 2, 71, 64
1, 39989, Note_off_c, 2, 75, 64
1, 39995, Note_off_c, 9, 38, 64
1, 39995, Note_on_c, 2, 75, 106
1, 39995, Note_on_c, 1, 43, 120
1, 39995, Note_on_c, 4, 31, 120
1, 39995, Note_on_c, 3, 64, 120
1, 39998, Note_on_c, 2, 71, 106
1, 39998, Note_on_c, 3, 68, 93
1, 40000, Note_on_c, 6, 39, 93
1, 40000, Note_on_c, 9, 38, 74
1, 40043, Note_off_c, 6, 39, 64
1, 40050, Note_off_c, 3, 64, 64
1, 40053, Note_off_c, 3, 68, 64
1, 40054, Note_off_c, 1, 43, 64
1, 40054, Note_off_c, 4, 31, 64
1, 40068, Note_off_c, 9, 38, 64
1, 40075, Note_on_c, 1, 43, 120
1, 40075, Note_on_c, 4, 31, 120
1, 40075, Note_on_c, 2, 77, 106
1, 40076, Note_off_c, 2, 75, 64
1, 40078, Note_on_c, 3, 66, 93
1, 40078, Note_on_c, 3, 70, 93
1, 40078, Note_on_c, 2, 73, 106
1, 40079, Note_off_c, 2, 71, 64
1, 40080, Note_on_c, 6, 39, 78
1, 40083, Note_on_c, 9, 38, 52
1, 40126, Note_off_c, 3, 66, 64
1, 40126, Note_off_c, 3, 70, 64
1, 40130, Note_off_c, 6, 39, 64
1, 40138, Note_off_c, 9, 38, 64
1, 40143, Note_off_c, 1, 43, 64
1, 40143, Note_off_c, 4, 31, 64
1, 40146, Note_off_c, 2, 77, 64
1, 40149, Note_off_c, 2, 73, 64
1, 40150, Note_on_c, 9, 38, 62
1, 40153, Note_on_c, 2, 77, 106
1, 40155, Note_on_c, 3, 66, 93
1, 40155, Note_on_c, 2, 73, 106
1, 40158, Note_on_c, 3, 70, 93
1, 40205, Note_off_c, 3, 66, 64
1, 40206, Note_off_c, 2, 77, 64
1, 40208, Note_off_c, 2, 73, 64
1, 40211, Note_off_c, 3, 70, 64
1, 40218, Note_off_c, 9, 38, 64
1, 40230, Note_on_c, 2, 77, 106
1, 40235, Note_on_c, 9, 38, 66
1, 40235, Note_on_c, 3, 66, 93
1, 40235, Note_on_c, 2, 73, 106
1, 40238, Note_on_c, 3, 70, 93
1, 40275, Note_off_c, 2, 77, 64
1, 40280, Note_off_c, 3, 66, 64
1, 40280, Note_off_c, 2, 73, 64
1, 40283, Note_off_c, 3, 70, 64
1, 40286, Note_off_c, 9, 38, 64
1, 40320, Tempo, 625000
1, 40320, Note_on_c, 4, 36, 108
1, 40320, Program_c, 8, 46
1, 40320, Note_on_c, 6, 43, 90
1, 40320, Program_c, 1, 42
1, 40320, Note_on_c, 1, 48, 108
1, 40320, Control_c, 2, 7, 110
1, 40320, Control_c, 8, 7, 120
1, 40320, Control_c, 1, 7, 115
1, 40350, Note_on_c, 8, 84, 60
1, 40355, Note_on_c, 8, 72, 56
1, 40408, Note_off_c, 6, 43, 64
1, 40543, Note_off_c, 8, 72, 64
1, 40555, Note_off_c, 8, 84, 64
1, 40575, Note_on_c, 2, 67, 88
1, 40585, Note_on_c, 2, 63, 110
1, 40605, Note_off_c, 2, 67, 64
1, 40618, Note_off_c, 2, 63, 64
1, 40655, Note_on_c, 2, 67, 77
1, 40665, Note_on_c, 2, 63, 88
1, 40678, Note_off_c, 4, 36, 64
1, 40678, Note_off_c, 1, 48, 64
1, 40683, Note_off_c, 2, 67, 64
1, 40685, Note_off_c, 2, 63, 64
1, 40723, Note_on_c, 2, 63, 88
1, 40730, Note_on_c, 2, 67, 67
1, 40770, Note_off_c, 2, 67, 64
1, 40781, Note_off_c, 2, 63, 64
1, 40810, Note_on_c, 2, 59, 99
1, 40813, Note_on_c, 2, 68, 110
1, 40848, Note_off_c, 2, 68, 64
1, 40860, Note_off_c, 2, 59, 64
1, 40890, Note_on_c, 2, 68, 88
1, 40903, Note_on_c, 2, 59, 88
1, 40920, Note_off_c, 2, 68, 64
1, 40941, Note_off_c, 2, 59, 64
1, 40968, Note_on_c, 2, 68, 77
1, 40975, Note_on_c, 2, 59, 88
1, 41010, Note_off_c, 2, 59, 64
1, 41021, Note_off_c, 2, 68, 64
1, 41048, Note_on_c, 2, 65, 88
1, 41058, Note_on_c, 2, 62, 99
1, 41091, Note_off_c, 2, 65, 64
1, 41101, Note_off_c, 2, 62, 64
1, 41130, Note_on_c, 2, 65, 67
1, 41143, Note_on_c, 2, 62, 77
1, 41173, Note_off_c, 2, 65, 64
1, 41176, Note_off_c, 2, 62, 64
1, 41205, Note_on_c, 2, 65, 88
1, 41215, Note_on_c, 2, 62, 72
1, 41245, Note_off_c, 2, 65, 64
1, 41270, Note_off_c, 2, 62, 64
1, 41290, Note_on_c, 4, 36, 113
1, 41290, Note_on_c, 1, 48, 113
1, 41528, Note_on_c, 2, 67, 88
1, 41548, Note_on_c, 2, 75, 110
1, 41564, Note_off_c, 4, 36, 64
1, 41564, Note_off_c, 1, 48, 64
1, 41566, Note_off_c, 2, 67, 64
1, 41581, Note_off_c, 2, 75, 64
1, 41603, Note_on_c, 2, 67, 110
1, 41625, Note_on_c, 2, 75, 88
1, 41641, Note_off_c, 2, 67, 64
1, 41653, Note_off_c, 2, 75, 64
1, 41680, Note_on_c, 2, 67, 99
1, 41698, Note_on_c, 2, 75, 88
1, 41725, Note_off_c, 2, 67, 64
1, 41733, Note_off_c, 2, 75, 64
1, 41768, Note_on_c, 2, 63, 99
1, 41778, Note_on_c, 2, 74, 88
1, 41806, Note_off_c, 2, 63, 64
1, 41813, Note_off_c, 2, 74, 64
1, 41853, Note_on_c, 2, 63, 110
1, 41855, Note_on_c, 2, 74, 88
1, 41886, Note_off_c, 2, 63, 64
1, 41888, Note_off_c, 2, 74, 64
1, 41920, Note_on_c, 2, 63, 110
1, 41933, Note_on_c, 2, 74, 77
1, 41955, Note_off_c, 2, 63, 64
1, 41983, Note_off_c, 2, 74, 64
1, 42015, Note_on_c, 2, 71, 77
1, 42018, Note_on_c, 2, 66, 110
1, 42053, Note_off_c, 2, 66, 64
1, 42058, Note_off_c, 2, 71, 64
1, 42098, Note_on_c, 2, 71, 88
1, 42100, Note_on_c, 2, 66, 77
1, 42130, Note_off_c, 2, 66, 64
1, 42136, Note_off_c, 2, 71, 64
1, 42165, Note_on_c, 2, 66, 88
1, 42178, Note_on_c, 2, 71, 77
1, 42200, Note_off_c, 2, 66, 64
1, 42213, Note_off_c, 2, 71, 64
1, 42240, Note_on_c, 4, 36, 114
1, 42240, Note_on_c, 1, 48, 114
1, 42485, Note_on_c, 2, 79, 113
1, 42488, Note_on_c, 2, 71, 113
1, 42505, Note_off_c, 4, 36, 64
1, 42505, Note_off_c, 1, 48, 64
1, 42520, Note_off_c, 2, 79, 64
1, 42521, Note_off_c, 2, 71, 64
1, 42568, Note_on_c, 2, 71, 106
1, 42570, Note_on_c, 2, 79, 74
1, 42598, Note_off_c, 2, 71, 64
1, 42600, Note_off_c, 2, 79, 64
1, 42640, Note_on_c, 2, 71, 74
1, 42640, Note_on_c, 2, 79, 66
1, 42673, Note_off_c, 2, 71, 64
1, 42688, Note_off_c, 2, 79, 64
1, 42733, Note_on_c, 2, 78, 121
1, 42743, Note_on_c, 2, 72, 103
1, 42771, Note_off_c, 2, 78, 64
1, 42776, Note_off_c, 2, 72, 64
1, 42798, Note_on_c, 2, 72, 81
1, 42815, Note_on_c, 2, 78, 115
1, 42836, Note_off_c, 2, 72, 64
1, 42848, Note_off_c, 2, 78, 64
1, 42875, Note_on_c, 2, 72, 85
1, 42885, Note_on_c, 2, 78, 94
1, 42925, Note_off_c, 2, 72, 64
1, 42930, Note_off_c, 2, 78, 64
1, 42965, Note_on_c, 2, 66, 99
1, 42975, Note_on_c, 2, 74, 79
1, 43003, Note_off_c, 2, 66, 64
1, 43018, Note_off_c, 2, 74, 64
1, 43048, Note_on_c, 2, 66, 74
1, 43065, Note_on_c, 2, 74, 74
1, 43078, Note_off_c, 2, 66, 64
1, 43105, Note_off_c, 2, 74, 64
1, 43120, Note_on_c, 2, 66, 106
1, 43143, Note_on_c, 2, 74, 62
1, 43155, Note_off_c, 2, 66, 64
1, 43186, Note_off_c, 2, 74, 64
1, 43200, Note_on_c, 2, 77, 113
1, 43208, Note_on_c, 2, 69, 99
1, 43238, Note_off_c, 2, 77, 64
1, 43243, Note_off_c, 2, 69, 64
1, 43275, Note_on_c, 2, 77, 101
1, 43280, Note_on_c, 2, 69, 79
1, 43313, Note_off_c, 2, 77, 64
1, 43318, Note_off_c, 2, 69, 64
1, 43353, Note_on_c, 2, 77, 79
1, 43360, Note_on_c, 2, 69, 85
1, 43386, Note_off_c, 2, 77, 64
1, 43415, Note_off_c, 2, 69, 64
1, 43440, Note_on_c, 2, 75, 113
1, 43443, Note_on_c, 2, 67, 94
1, 43468, Note_off_c, 2, 75, 64
1, 43481, Note_off_c, 2, 67, 64
1, 43510, Note_on_c, 2, 75, 79
1, 43520, Note_on_c, 2, 67, 81
1, 43540, Note_off_c, 2, 75, 64
1, 43553, Note_off_c, 2, 67, 64
1, 43580, Note_on_c, 2, 75, 85
1, 43600, Note_on_c, 2, 67, 113
1, 43630, Note_off_c, 2, 75, 64
1, 43638, Note_off_c, 2, 67, 64
1, 43670, Note_on_c, 2, 71, 101
1, 43680, Note_on_c, 2, 63, 113
1, 43710, Note_off_c, 2, 71, 64
1, 43715, Note_off_c, 2, 63, 64
1, 43750, Note_on_c, 2, 71, 92
1, 43760, Note_on_c, 2, 63, 113
1, 43793, Note_off_c, 2, 71, 64
1, 43795, Note_off_c, 2, 63, 64
1, 43830, Note_on_c, 2, 71, 62
1, 43835, Note_on_c, 2, 63, 99
1, 43870, Note_off_c, 2, 71, 64
1, 43873, Note_off_c, 2, 63, 64
1, 43903, Note_on_c, 2, 68, 70
1, 43923, Note_on_c, 2, 59, 101
1, 43946, Note_off_c, 2, 68, 64
1, 43961, Note_off_c, 2, 59, 64
1, 43995, Note_on_c, 2, 68, 85
1, 44003, Note_on_c, 2, 59, 106
1, 44020, Note_off_c, 2, 68, 64
1, 44038, Note_off_c, 2, 59, 64
1, 44063, Note_on_c, 2, 68, 92
1, 44075, Note_on_c, 2, 59, 117
1, 44098, Note_off_c, 2, 68, 64
1, 44115, Note_off_c, 2, 59, 64
1, 44160, Note_on_c, 4, 36, 116
1, 44160, Note_on_c, 1, 48, 116
1, 44190, Note_on_c, 8, 84, 60
1, 44195, Note_on_c, 8, 72, 56
1, 44383, Note_off_c, 8, 72, 64
1, 44395, Note_off_c, 8, 84, 64
1, 44415, Note_on_c, 2, 67, 88
1, 44425, Note_on_c, 2, 63, 110
1, 44445, Note_off_c, 2, 67, 64
1, 44458, Note_off_c, 2, 63, 64
1, 44495, Note_on_c, 2, 67, 77
1, 44505, Note_on_c, 2, 63, 88
1, 44518, Note_off_c, 4, 36, 64
1, 44518, Note_off_c, 1, 48, 64
1, 44523, Note_off_c, 2, 67, 64
1, 44525, Note_off_c, 2, 63, 64
1, 44563, Note_on_c, 2, 63, 88
1, 44570, Note_on_c, 2, 67, 67
1, 44610, Note_off_c, 2, 67, 64
1, 44621, Note_off_c, 2, 63, 64
1, 44650, Note_on_c, 2, 59, 99
1, 44653, Note_on_c, 2, 68, 110
1, 44688, Note_off_c, 2, 68, 64
1, 44700, Note_off_c, 2, 59, 64
1, 44730, Note_on_c, 2, 68, 88
1, 44743, Note_on_c, 2, 59, 88
1, 44760, Note_off_c, 2, 68, 64
1, 44781, Note_off_c, 2, 59, 64
1, 44808, Note_on_c, 2, 68, 77
1, 44815, Note_on_c, 2, 59, 88
1, 44850, Note_off_c, 2, 59, 64
1, 44861, Note_off_c, 2, 68, 64
1, 44888, Note_on_c, 2, 65, 88
1, 44898, Note_on_c, 2, 62, 99
1, 44931, Note_off_c, 2, 65, 64
1, 44941, Note_off_c, 2, 62, 64
1, 44970, Note_on_c, 2, 65, 67
1, 44983, Note_on_c, 2, 62, 77
1, 45013, Note_off_c, 2, 65, 64
1, 45016, Note_off_c, 2, 62, 64
1, 45045, Note_on_c, 2, 65, 88
1, 45055, Note_on_c, 2, 62, 72
1, 45085, Note_off_c, 2, 65, 64
1, 45110, Note_off_c, 2, 62, 64
1, 45130, Note_on_c, 4, 36, 117
1, 45130, Note_on_c, 1, 48, 117
1, 45368, Note_on_c, 2, 67, 88
1, 45388, Note_on_c, 2, 75, 110
1, 45404, Note_off_c, 4, 36, 64
1, 45404, Note_off_c, 1, 48, 64
1, 45406, Note_off_c, 2, 67, 64
1, 45421, Note_off_c, 2, 75, 64
1, 45443, Note_on_c, 2, 67, 110
1, 45465, Note_on_c, 2, 75, 88
1, 45481, Note_off_c, 2, 67, 64
1, 45493, Note_off_c, 2, 75, 64
1, 45520, Note_on_c, 2, 67, 99
1, 45538, Note_on_c, 2, 75, 88
1, 45565, Note_off_c, 2, 67, 64
1, 45573, Note_off_c, 2, 75, 64
1, 45608, Note_on_c, 2, 63, 99
1, 45618, Note_on_c, 2, 74, 88
1, 45646, Note_off_c, 2, 63, 64
1, 45653, Note_off_c, 2, 74, 64
1, 45693, Note_on_c, 2, 63, 110
1, 45695, Note_on_c, 2, 74, 88
1, 45726, Note_off_c, 2, 63, 64
1, 45728, Note_off_c, 2, 74, 64
1, 45760, Note_on_c, 2, 63, 110
1, 45773, Note_on_c, 2, 74, 77
1, 45795, Note_off_c, 2, 63, 64
1, 45823, Note_off_c, 2, 74, 64
1, 45855, Note_on_c, 2, 71, 77
1, 45858, Note_on_c, 2, 66, 110
1, 45893, Note_off_c, 2, 66, 64
1, 45898, Note_off_c, 2, 71, 64
1, 45938, Note_on_c, 2, 71, 88
1, 45940, Note_on_c, 2, 66, 77
1, 45970, Note_off_c, 2, 66, 64
1, 45976, Note_off_c, 2, 71, 64
1, 46005, Note_on_c, 2, 66, 88
1, 46018, Note_on_c, 2, 71, 77
1, 46040, Note_off_c, 2, 66, 64
1, 46053, Note_off_c, 2, 71, 64
1, 46080, Note_on_c, 4, 36, 116
1, 46080, Note_on_c, 1, 48, 116
1, 46325, Note_on_c, 2, 79, 113
1, 46328, Note_on_c, 2, 71, 113
1, 46345, Note_off_c, 4, 36, 64
1, 46345, Note_off_c, 1, 48, 64
1, 46360, Note_off_c, 2, 79, 64
1, 46361, Note_off_c, 2, 71, 64
1, 46408, Note_on_c, 2, 71, 106
1, 46410, Note_on_c, 2, 79, 74
1, 46438, Note_off_c, 2, 71, 64
1, 46440, Note_off_c, 2, 79, 64
1, 46480, Note_on_c, 2, 71, 74
1, 46480, Note_on_c, 2, 79, 66
1, 46513, Note_off_c, 2, 71, 64
1, 46528, Note_off_c, 2, 79, 64
1, 46573, Note_on_c, 2, 78, 121
1, 46583, Note_on_c, 2, 72, 103
1, 46611, Note_off_c, 2, 78, 64
1, 46616, Note_off_c, 2, 72, 64
1, 46638, Note_on_c, 2, 72, 81
1, 46655, Note_on_c, 2, 78, 115
1, 46676, Note_off_c, 2, 72, 64
1, 46688, Note_off_c, 2, 78, 64
1, 46715, Note_on_c, 2, 72, 85
1, 46725, Note_on_c, 2, 78, 94
1, 46765, Note_off_c, 2, 72, 64
1, 46770, Note_off_c, 2, 78, 64
1, 46805, Note_on_c, 2, 66, 99
1, 46815, Note_on_c, 2, 74, 79
1, 46843, Note_off_c, 2, 66, 64
1, 46858, Note_off_c, 2, 74, 64
1, 46888, Note_on_c, 2, 66, 74
1, 46905, Note_on_c, 2, 74, 74
1, 46918, Note_off_c, 2, 66, 64
1, 46945, Note_off_c, 2, 74, 64
1, 46960, Note_on_c, 2, 66, 106
1, 46983, Note_on_c, 2, 74, 62
1, 46995, Note_off_c, 2, 66, 64
1, 47026, Note_off_c, 2, 74, 64
1, 47040, Note_on_c, 2, 77, 113
1, 47048, Note_on_c, 2, 69, 99
1, 47078, Note_off_c, 2, 77, 64
1, 47083, Note_off_c, 2, 69, 64
1, 47115, Note_on_c, 2, 77, 101
1, 47120, Note_on_c, 2, 69, 79
1, 47153, Note_off_c, 2, 77, 64
1, 47158, Note_off_c, 2, 69, 64
1, 47193, Note_on_c, 2, 77, 79
1, 47200, Note_on_c, 2, 69, 85
1, 47226, Note_off_c, 2, 77, 64
1, 47255, Note_off_c, 2, 69, 64
1, 47280, Note_on_c, 2, 75, 113
1, 47283, Note_on_c, 2, 67, 94
1, 47308, Note_off_c, 2, 75, 64
1, 47321, Note_off_c, 2, 67, 64
1, 47350, Note_on_c, 2, 75, 79
1, 47360, Note_on_c, 2, 67, 81
1, 47380, Note_off_c, 2, 75, 64
1, 47393, Note_off_c, 2, 67, 64
1, 47420, Note_on_c, 2, 75, 85
1, 47440, Note_on_c, 2, 67, 113
1, 47470, Note_off_c, 2, 75, 64
1, 47478, Note_off_c, 2, 67, 64
1, 47510, Note_on_c, 2, 71, 101
1, 47520, Note_on_c, 2, 63, 113
1, 47550, Note_off_c, 2, 71, 64
1, 47555, Note_off_c, 2, 63, 64
1, 47590, Note_on_c, 2, 71, 92
1, 47600, Note_on_c, 2, 63, 113
1, 47633, Note_off_c, 2, 71, 64
1, 47635, Note_off_c, 2, 63, 64
1, 47670, Note_on_c, 2, 71, 62
1, 47675, Note_on_c, 2, 63, 99
1, 47710, Note_off_c, 2, 71, 64
1, 47713, Note_off_c, 2, 63, 64
1, 47743, Note_on_c, 2, 68, 70
1, 47763, Note_on_c, 2, 59, 101
1, 47786, Note_off_c, 2, 68, 64
1, 47801, Note_off_c, 2, 59, 64
1, 47835, Note_on_c, 2, 68, 85
1, 47843, Note_on_c, 2, 59, 106
1, 47860, Note_off_c, 2, 68, 64
1, 47878, Note_off_c, 2, 59, 64
1, 47903, Note_on_c, 2, 68, 92
1, 47915, Note_on_c, 2, 59, 117
1, 47938, Note_off_c, 2, 68, 64
1, 47955, Note_off_c, 2, 59, 64
1, 47990, Note_on_c, 4, 38, 105
1, 47990, Note_on_c, 1, 50, 105
1, 48003, Control_c, 0, 7, 110
1, 48003, Note_on_c, 5, 50, 96
1, 48003, Control_c, 5, 7, 80
1, 48003, Note_on_c, 0, 62, 103
1, 48030, Note_on_c, 8, 86, 60
1, 48035, Note_on_c, 8, 74, 56
1, 48223, Note_off_c, 8, 74, 64
1, 48235, Note_off_c, 8, 86, 64
1, 48238, Note_off_c, 0, 62, 64
1, 48255, Note_on_c, 2, 69, 88
1, 48265, Note_on_c, 2, 65, 110
1, 48285, Note_off_c, 2, 69, 64
1, 48298, Note_off_c, 2, 65, 64
1, 48335, Note_on_c, 2, 69, 77
1, 48340, Note_off_c, 4, 38, 64
1, 48340, Note_off_c, 1, 50, 64
1, 48345, Note_on_c, 2, 65, 88
1, 48363, Note_off_c, 2, 69, 64
1, 48365, Note_off_c, 2, 65, 64
1, 48403, Note_on_c, 2, 65, 88
1, 48407, Note_off_c, 5, 50, 64
1, 48410, Note_on_c, 2, 69, 67
1, 48450, Note_off_c, 2, 69, 64
1, 48461, Note_off_c, 2, 65, 64
1, 48490, Note_on_c, 2, 61, 99
1, 48493, Note_on_c, 2, 70, 110
1, 48528, Note_off_c, 2, 70, 64
1, 48540, Note_off_c, 2, 61, 64
1, 48570, Note_on_c, 2, 70, 88
1, 48583, Note_on_c, 2, 61, 88
1, 48600, Note_off_c, 2, 70, 64
1, 48621, Note_off_c, 2, 61, 64
1, 48648, Note_on_c, 2, 70, 77
1, 48655, Note_on_c, 2, 61, 88
1, 48690, Note_off_c, 2, 61, 64
1, 48701, Note_off_c, 2, 70, 64
1, 48728, Note_on_c, 2, 67, 88
1, 48738, Note_on_c, 2, 64, 99
1, 48771, Note_off_c, 2, 67, 64
1, 48781, Note_off_c, 2, 64, 64
1, 48810, Note_on_c, 2, 67, 67
1, 48823, Note_on_c, 2, 64, 77
1, 48853, Note_off_c, 2, 67, 64
1, 48856, Note_off_c, 2, 64, 64
1, 48885, Note_on_c, 2, 67, 88
1, 48895, Note_on_c, 2, 64, 72
1, 48925, Note_off_c, 2, 67, 64
1, 48950, Note_off_c, 2, 64, 64
1, 48970, Note_on_c, 4, 38, 114
1, 48970, Note_on_c, 1, 50, 114
1, 48970, Note_on_c, 5, 50, 85
1, 48970, Note_on_c, 0, 62, 103
1, 49170, Note_off_c, 0, 62, 64
1, 49208, Note_on_c, 2, 69, 88
1, 49228, Note_on_c, 2, 77, 110
1, 49246, Note_off_c, 2, 69, 64
1, 49261, Note_off_c, 2, 77, 64
1, 49267, Note_off_c, 4, 38, 64
1, 49267, Note_off_c, 1, 50, 64
1, 49283, Note_on_c, 2, 69, 110
1, 49305, Note_on_c, 2, 77, 88
1, 49321, Note_off_c, 2, 69, 64
1, 49333, Note_off_c, 2, 77, 64
1, 49360, Note_on_c, 2, 69, 99
1, 49378, Note_on_c, 2, 77, 88
1, 49381, Note_off_c, 5, 50, 64
1, 49405, Note_off_c, 2, 69, 64
1, 49413, Note_off_c, 2, 77, 64
1, 49448, Note_on_c, 2, 65, 99
1, 49458, Note_on_c, 2, 76, 88
1, 49486, Note_off_c, 2, 65, 64
1, 49493, Note_off_c, 2, 76, 64
1, 49533, Note_on_c, 2, 65, 110
1, 49535, Note_on_c, 2, 76, 88
1, 49566, Note_off_c, 2, 65, 64
1, 49568, Note_off_c, 2, 76, 64
1, 49600, Note_on_c, 2, 65, 110
1, 49613, Note_on_c, 2, 76, 77
1, 49635, Note_off_c, 2, 65, 64
1, 49663, Note_off_c, 2, 76, 64
1, 49695, Note_on_c, 2, 73, 77
1, 49698, Note_on_c, 2, 68, 110
1, 49733, Note_off_c, 2, 68, 64
1, 49738, Note_off_c, 2, 73, 64
1, 49778, Note_on_c, 2, 73, 88
1, 49780, Note_on_c, 2, 68, 77
1, 49810, Note_off_c, 2, 68, 64
1, 49816, Note_off_c, 2, 73, 64
1, 49845, Note_on_c, 2, 68, 88
1, 49858, Note_on_c, 2, 73, 77
1, 49880, Note_off_c, 2, 68, 64
1, 49893, Note_off_c, 2, 73, 64
1, 49923, Note_on_c, 4, 38, 105
1, 49923, Note_on_c, 1, 50, 105
1, 49930, Note_on_c, 5, 50, 105
1, 49930, Note_on_c, 0, 62, 108
1, 50123, Note_off_c, 0, 62, 64
1, 50165, Note_on_c, 2, 81, 113
1, 50168, Note_on_c, 2, 73, 113
1, 50200, Note_off_c, 2, 81, 64
1, 50201, Note_off_c, 2, 73, 64
1, 50246, Note_off_c, 4, 38, 64
1, 50246, Note_off_c, 1, 50, 64
1, 50248, Note_on_c, 2, 73, 106
1, 50250, Note_on_c, 2, 81, 74
1, 50278, Note_off_c, 2, 73, 64
1, 50280, Note_off_c, 2, 81, 64
1, 50320, Note_on_c, 2, 73, 74
1, 50320, Note_on_c, 2, 81, 66
1, 50353, Note_off_c, 2, 73, 64
1, 50362, Note_off_c, 5, 50, 64
1, 50368, Note_off_c, 2, 81, 64
1, 50413, Note_on_c, 2, 80, 121
1, 50423, Note_on_c, 2, 74, 103
1, 50451, Note_off_c, 2, 80, 64
1, 50456, Note_off_c, 2, 74, 64
1, 50478, Note_on_c, 2, 74, 81
1, 50495, Note_on_c, 2, 80, 115
1, 50516, Note_off_c, 2, 74, 64
1, 50528, Note_off_c, 2, 80, 64
1, 50555, Note_on_c, 2, 74, 85
1, 50565, Note_on_c, 2, 80, 94
1, 50605, Note_off_c, 2, 74, 64
1, 50610, Note_off_c, 2, 80, 64
1, 50645, Note_on_c, 2, 68, 99
1, 50655, Note_on_c, 2, 76, 79
1, 50683, Note_off_c, 2, 68, 64
1, 50698, Note_off_c, 2, 76, 64
1, 50728, Note_on_c, 2, 68, 74
1, 50745, Note_on_c, 2, 76, 74
1, 50758, Note_off_c, 2, 68, 64
1, 50785, Note_off_c, 2, 76, 64
1, 50800, Note_on_c, 2, 68, 106
1, 50823, Note_on_c, 2, 76, 62
1, 50835, Note_off_c, 2, 68, 64
1, 50866, Note_off_c, 2, 76, 64
1, 50880, Note_on_c, 2, 79, 113
1, 50888, Note_on_c, 2, 71, 99
1, 50918, Note_off_c, 2, 79, 64
1, 50923, Note_off_c, 2, 71, 64
1, 50955, Note_on_c, 2, 79, 101
1, 50960, Note_on_c, 2, 71, 79
1, 50993, Note_off_c, 2, 79, 64
1, 50998, Note_off_c, 2, 71, 64
1, 51033, Note_on_c, 2, 79, 79
1, 51040, Note_on_c, 2, 71, 85
1, 51066, Note_off_c, 2, 79, 64
1, 51095, Note_off_c, 2, 71, 64
1, 51120, Note_on_c, 2, 77, 113
1, 51123, Note_on_c, 2, 69, 94
1, 51148, Note_off_c, 2, 77, 64
1, 51161, Note_off_c, 2, 69, 64
1, 51260, Note_on_c, 2, 77, 85
1, 51280, Note_on_c, 2, 69, 113
1, 51310, Note_off_c, 2, 77, 64
1, 51318, Note_off_c, 2, 69, 64
1, 51350, Note_on_c, 2, 73, 101
1, 51360, Note_on_c, 2, 65, 113
1, 51390, Note_off_c, 2, 73, 64
1, 51395, Note_off_c, 2, 65, 64
1, 51430, Note_on_c, 2, 73, 92
1, 51440, Note_on_c, 2, 65, 113
1, 51473, Note_off_c, 2, 73, 64
1, 51475, Note_off_c, 2, 65, 64
1, 51510, Note_on_c, 2, 73, 62
1, 51515, Note_on_c, 2, 65, 99
1, 51550, Note_off_c, 2, 73, 64
1, 51553, Note_off_c, 2, 65, 64
1, 51583, Note_on_c, 2, 70, 70
1, 51603, Note_on_c, 2, 61, 101
1, 51626, Note_off_c, 2, 70, 64
1, 51641, Note_off_c, 2, 61, 64
1, 51675, Note_on_c, 2, 70, 85
1, 51683, Note_on_c, 2, 61, 106
1, 51700, Note_off_c, 2, 70, 64
1, 51718, Note_off_c, 2, 61, 64
1, 51748, Note_on_c, 2, 70, 92
1, 51765, Note_on_c, 2, 61, 117
1, 51783, Note_off_c, 2, 70, 64
1, 51805, Note_off_c, 2, 61, 64
1, 51843, Note_on_c, 5, 51, 96
1, 51843, Note_on_c, 0, 63, 103
1, 51850, Note_on_c, 4, 39, 114
1, 51850, Note_on_c, 1, 51, 114
1, 51870, Note_on_c, 8, 87, 60
1, 51875, Note_on_c, 8, 75, 56
1, 52063, Note_off_c, 8, 75, 64
1, 52075, Note_off_c, 8, 87, 64
1, 52078, Note_off_c, 0, 63, 64
1, 52095, Note_on_c, 2, 70, 88
1, 52105, Note_on_c, 2, 66, 110
1, 52125, Note_off_c, 2, 70, 64
1, 52138, Note_off_c, 2, 66, 64
1, 52147, Note_off_c, 4, 39, 64
1, 52147, Note_off_c, 1, 51, 64
1, 52175, Note_on_c, 2, 70, 77
1, 52185, Note_on_c, 2, 66, 88
1, 52203, Note_off_c, 2, 70, 64
1, 52205, Note_off_c, 2, 66, 64
1, 52243, Note_on_c, 2, 66, 88
1, 52250, Note_on_c, 2, 70, 67
1, 52290, Note_off_c, 2, 70, 64
1, 52301, Note_off_c, 2, 66, 64
1, 52303, Note_off_c, 5, 51, 64
1, 52330, Note_on_c, 2, 62, 99
1, 52333, Note_on_c, 2, 71, 110
1, 52368, Note_off_c, 2, 71, 64
1, 52380, Note_off_c, 2, 62, 64
1, 52410, Note_on_c, 2, 71, 88
1, 52423, Note_on_c, 2, 62, 88
1, 52440, Note_off_c, 2, 71, 64
1, 52461, Note_off_c, 2, 62, 64
1, 52488, Note_on_c, 2, 71, 77
1, 52495, Note_on_c, 2, 62, 88
1, 52530, Note_off_c, 2, 62, 64
1, 52541, Note_off_c, 2, 71, 64
1, 52568, Note_on_c, 2, 68, 88
1, 52578, Note_on_c, 2, 65, 99
1, 52611, Note_off_c, 2, 68, 64
1, 52621, Note_off_c, 2, 65, 64
1, 52650, Note_on_c, 2, 68, 67
1, 52663, Note_on_c, 2, 65, 77
1, 52693, Note_off_c, 2, 68, 64
1, 52696, Note_off_c, 2, 65, 64
1, 52725, Note_on_c, 2, 68, 88
1, 52735, Note_on_c, 2, 65, 72
1, 52765, Note_off_c, 2, 68, 64
1, 52790, Note_off_c, 2, 65, 64
1, 52810, Note_on_c, 5, 51, 85
1, 52810, Note_on_c, 0, 63, 103
1, 52810, Note_on_c, 4, 39, 114
1, 52810, Note_on_c, 1, 51, 114
1, 53010, Note_off_c, 0, 63, 64
1, 53048, Note_on_c, 2, 70, 88
1, 53068, Note_on_c, 2, 78, 110
1, 53086, Note_off_c, 2, 70, 64
1, 53101, Note_off_c, 2, 78, 64
1, 53107, Note_off_c, 4, 39, 64
1, 53107, Note_off_c, 1, 51, 64
1, 53123, Note_on_c, 2, 70, 110
1, 53145, Note_on_c, 2, 78, 88
1, 53161, Note_off_c, 2, 70, 64
1, 53173, Note_off_c, 2, 78, 64
1, 53200, Note_on_c, 2, 70, 99
1, 53218, Note_on_c, 2, 78, 88
1, 53235, Note_off_c, 5, 51, 64
1, 53245, Note_off_c, 2, 70, 64
1, 53253, Note_off_c, 2, 78, 64
1, 53288, Note_on_c, 2, 66, 99
1, 53298, Note_on_c, 2, 77, 88
1, 53326, Note_off_c, 2, 66, 64
1, 53333, Note_off_c, 2, 77, 64
1, 53373, Note_on_c, 2, 66, 110
1, 53375, Note_on_c, 2, 77, 88
1, 53406, Note_off_c, 2, 66, 64
1, 53408, Note_off_c, 2, 77, 64
1, 53440, Note_on_c, 2, 66, 110
1, 53453, Note_on_c, 2, 77, 77
1, 53475, Note_off_c, 2, 66, 64
1, 53503, Note_off_c, 2, 77, 64
1, 53535, Note_on_c, 2, 74, 77
1, 53538, Note_on_c, 2, 69, 110
1, 53573, Note_off_c, 2, 69, 64
1, 53578, Note_off_c, 2, 74, 64
1, 53618, Note_on_c, 2, 74, 88
1, 53620, Note_on_c, 2, 69, 77
1, 53650, Note_off_c, 2, 69, 64
1, 53656, Note_off_c, 2, 74, 64
1, 53685, Note_on_c, 2, 69, 88
1, 53698, Note_on_c, 2, 74, 77
1, 53720, Note_off_c, 2, 69, 64
1, 53733, Note_off_c, 2, 74, 64
1, 53760, Program_c, 3, 60
1, 53760, Control_c, 3, 7, 120
1, 53763, Note_on_c, 4, 39, 105
1, 53763, Note_on_c, 1, 51, 105
1, 53770, Note_on_c, 5, 51, 105
1, 53770, Note_on_c, 0, 63, 108
1, 53963, Note_off_c, 0, 63, 64
1, 54005, Note_on_c, 2, 82, 113
1, 54008, Note_on_c, 2, 74, 113
1, 54040, Note_off_c, 2, 82, 64
1, 54041, Note_off_c, 2, 74, 64
1, 54086, Note_off_c, 4, 39, 64
1, 54086, Note_off_c, 1, 51, 64
1, 54088, Note_on_c, 2, 74, 106
1, 54090, Note_on_c, 2, 82, 74
1, 54118, Note_off_c, 2, 74, 64
1, 54120, Note_off_c, 2, 82, 64
1, 54160, Note_on_c, 2, 74, 74
1, 54160, Note_on_c, 2, 82, 66
1, 54188, Note_off_c, 5, 51, 64
1, 54193, Note_off_c, 2, 74, 64
1, 54208, Note_off_c, 2, 82, 64
1, 54253, Note_on_c, 2, 81, 121
1, 54263, Note_on_c, 2, 75, 103
1, 54291, Note_off_c, 2, 81, 64
1, 54296, Note_off_c, 2, 75, 64
1, 54318, Note_on_c, 2, 75, 81
1, 54335, Note_on_c, 2, 81, 115
1, 54356, Note_off_c, 2, 75, 64
1, 54368, Note_off_c, 2, 81, 64
1, 54395, Note_on_c, 2, 75, 85
1, 54405, Note_on_c, 2, 81, 94
1, 54445, Note_off_c, 2, 75, 64
1, 54450, Note_off_c, 2, 81, 64
1, 54485, Note_on_c, 2, 69, 99
1, 54495, Note_on_c, 2, 77, 79
1, 54523, Note_off_c, 2, 69, 64
1, 54538, Note_off_c, 2, 77, 64
1, 54568, Note_on_c, 2, 69, 74
1, 54585, Note_on_c, 2, 77, 74
1, 54598, Note_off_c, 2, 69, 64
1, 54625, Note_off_c, 2, 77, 64
1, 54640, Note_on_c, 2, 69, 106
1, 54663, Note_on_c, 2, 77, 62
1, 54675, Note_off_c, 2, 69, 64
1, 54706, Note_off_c, 2, 77, 64
1, 54720, Note_on_c, 2, 80, 113
1, 54728, Note_on_c, 2, 72, 99
1, 54758, Note_off_c, 2, 80, 64
1, 54763, Note_off_c, 2, 72, 64
1, 54795, Note_on_c, 2, 80, 101
1, 54800, Note_on_c, 2, 72, 79
1, 54833, Note_off_c, 2, 80, 64
1, 54838, Note_off_c, 2, 72, 64
1, 54873, Note_on_c, 2, 80, 79
1, 54880, Note_on_c, 2, 72, 85
1, 54906, Note_off_c, 2, 80, 64
1, 54935, Note_off_c, 2, 72, 64
1, 54960, Note_on_c, 2, 78, 113
1, 54963, Note_on_c, 2, 70, 94
1, 54988, Note_off_c, 2, 78, 64
1, 55001, Note_off_c, 2, 70, 64
1, 55100, Note_on_c, 2, 78, 85
1, 55120, Note_on_c, 2, 70, 113
1, 55150, Note_off_c, 2, 78, 64
1, 55158, Note_off_c, 2, 70, 64
1, 55190, Note_on_c, 2, 74, 101
1, 55200, Note_on_c, 2, 66, 113
1, 55230, Note_off_c, 2, 74, 64
1, 55235, Note_off_c, 2, 66, 64
1, 55270, Note_on_c, 2, 74, 92
1, 55280, Note_on_c, 2, 66, 113
1, 55313, Note_off_c, 2, 74, 64
1, 55315, Note_off_c, 2, 66, 64
1, 55350, Note_on_c, 2, 74, 62
1, 55355, Note_on_c, 2, 66, 99
1, 55390, Note_off_c, 2, 74, 64
1, 55393, Note_off_c, 2, 66, 64
1, 55423, Note_on_c, 2, 71, 70
1, 55443, Note_on_c, 2, 62, 101
1, 55466, Note_off_c, 2, 71, 64
1, 55481, Note_off_c, 2, 62, 64
1, 55515, Note_on_c, 2, 71, 85
1, 55523, Note_on_c, 2, 62, 106
1, 55540, Note_off_c, 2, 71, 64
1, 55558, Note_off_c, 2, 62, 64
1, 55588, Note_on_c, 2, 71, 92
1, 55605, Note_on_c, 2, 62, 117
1, 55623, Note_off_c, 2, 71, 64
1, 55645, Note_off_c, 2, 62, 64
1, 55690, Note_on_c, 4, 40, 114
1, 55690, Note_on_c, 1, 52, 114
1, 55691, Note_on_c, 3, 64, 100
1, 55710, Note_on_c, 8, 88, 60
1, 55715, Note_on_c, 8, 76, 56
1, 55903, Note_off_c, 8, 76, 64
1, 55915, Note_off_c, 8, 88, 64
1, 55935, Note_on_c, 2, 71, 88
1, 55945, Note_on_c, 2, 67, 110
1, 55965, Note_off_c, 2, 71, 64
1, 55978, Note_off_c, 2, 67, 64
1, 55987, Note_off_c, 4, 40, 64
1, 55987, Note_off_c, 1, 52, 64
1, 56015, Note_on_c, 2, 71, 77
1, 56025, Note_on_c, 2, 67, 88
1, 56037, Note_off_c, 3, 64, 64
1, 56043, Note_off_c, 2, 71, 64
1, 56045, Note_off_c, 2, 67, 64
1, 56083, Note_on_c, 2, 67, 88
1, 56090, Note_on_c, 2, 71, 67
1, 56130, Note_off_c, 2, 71, 64
1, 56141, Note_off_c, 2, 67, 64
1, 56160, Note_on_c, 3, 64, 109
1, 56170, Note_on_c, 2, 63, 99
1, 56173, Note_on_c, 2, 72, 110
1, 56208, Note_off_c, 2, 72, 64
1, 56220, Note_off_c, 2, 63, 64
1, 56250, Note_on_c, 2, 72, 88
1, 56263, Note_on_c, 2, 63, 88
1, 56280, Note_off_c, 2, 72, 64
1, 56301, Note_off_c, 2, 63, 64
1, 56328, Note_on_c, 2, 72, 77
1, 56335, Note_on_c, 2, 63, 88
1, 56370, Note_off_c, 2, 63, 64
1, 56381, Note_off_c, 2, 72, 64
1, 56408, Note_on_c, 2, 69, 88
1, 56418, Note_on_c, 2, 66, 99
1, 56451, Note_off_c, 2, 69, 64
1, 56461, Note_off_c, 2, 66, 64
1, 56490, Note_on_c, 2, 69, 67
1, 56503, Note_on_c, 2, 66, 77
1, 56522, Note_off_c, 3, 64, 64
1, 56533, Note_off_c, 2, 69, 64
1, 56536, Note_off_c, 2, 66, 64
1, 56565, Note_on_c, 2, 69, 88
1, 56575, Note_on_c, 2, 66, 72
1, 56605, Note_off_c, 2, 69, 64
1, 56630, Note_off_c, 2, 66, 64
1, 56648, Note_on_c, 3, 64, 109
1, 56650, Note_on_c, 4, 40, 114
1, 56650, Note_on_c, 1, 52, 114
1, 56888, Note_on_c, 2, 71, 88
1, 56908, Note_on_c, 2, 79, 110
1, 56926, Note_off_c, 2, 71, 64
1, 56941, Note_off_c, 2, 79, 64
1, 56947, Note_off_c, 4, 40, 64
1, 56947, Note_off_c, 1, 52, 64
1, 56963, Note_on_c, 2, 71, 110
1, 56985, Note_on_c, 2, 79, 88
1, 57001, Note_off_c, 2, 71, 64
1, 57005, Note_off_c, 3, 64, 64
1, 57013, Note_off_c, 2, 79, 64
1, 57040, Note_on_c, 2, 71, 99
1, 57058, Note_on_c, 2, 79, 88
1, 57085, Note_off_c, 2, 71, 64
1, 57093, Note_off_c, 2, 79, 64
1, 57120, Note_on_c, 3, 60, 109
1, 57128, Note_on_c, 2, 67, 99
1, 57138, Note_on_c, 2, 78, 88
1, 57166, Note_off_c, 2, 67, 64
1, 57173, Note_off_c, 2, 78, 64
1, 57213, Note_on_c, 2, 67, 110
1, 57215, Note_on_c, 2, 78, 88
1, 57246, Note_off_c, 2, 67, 64
1, 57248, Note_off_c, 2, 78, 64
1, 57280, Note_on_c, 2, 67, 110
1, 57293, Note_on_c, 2, 78, 77
1, 57315, Note_off_c, 2, 67, 64
1, 57343, Note_off_c, 2, 78, 64
1, 57352, Note_off_c, 3, 60, 64
1, 57375, Note_on_c, 2, 75, 77
1, 57378, Note_on_c, 2, 70, 110
1, 57413, Note_off_c, 2, 70, 64
1, 57418, Note_off_c, 2, 75, 64
1, 57441, Note_on_c, 3, 67, 109
1, 57458, Note_on_c, 2, 75, 88
1, 57460, Note_on_c, 2, 70, 77
1, 57490, Note_off_c, 2, 70, 64
1, 57496, Note_off_c, 2, 75, 64
1, 57525, Note_on_c, 2, 70, 88
1, 57538, Note_on_c, 2, 75, 77
1, 57544, Note_off_c, 3, 67, 64
1, 57560, Note_off_c, 2, 70, 64
1, 57573, Note_off_c, 2, 75, 64
1, 57603, Note_on_c, 4, 40, 105
1, 57603, Note_on_c, 1, 52, 105
1, 57626, Note_on_c, 3, 64, 91
1, 57845, Note_on_c, 2, 83, 113
1, 57848, Note_on_c, 2, 75, 113
1, 57880, Note_off_c, 2, 83, 64
1, 57881, Note_off_c, 2, 75, 64
1, 57926, Note_off_c, 4, 40, 64
1, 57926, Note_off_c, 1, 52, 64
1, 57928, Note_on_c, 2, 75, 106
1, 57930, Note_on_c, 2, 83, 74
1, 57958, Note_off_c, 2, 75, 64
1, 57960, Note_off_c, 2, 83, 64
1, 57965, Note_off_c, 3, 64, 64
1, 58000, Note_on_c, 2, 75, 74
1, 58000, Note_on_c, 2, 83, 66
1, 58033, Note_off_c, 2, 75, 64
1, 58048, Note_off_c, 2, 83, 64
1, 58080, Note_on_c, 3, 60, 109
1, 58093, Note_on_c, 2, 82, 121
1, 58103, Note_on_c, 2, 76, 103
1, 58131, Note_off_c, 2, 82, 64
1, 58136, Note_off_c, 2, 76, 64
1, 58158, Note_on_c, 2, 76, 81
1, 58175, Note_on_c, 2, 82, 115
1, 58196, Note_off_c, 2, 76, 64
1, 58208, Note_off_c, 2, 82, 64
1, 58235, Note_on_c, 2, 76, 85
1, 58245, Note_on_c, 2, 82, 94
1, 58285, Note_off_c, 2, 76, 64
1, 58290, Note_off_c, 2, 82, 64
1, 58299, Note_off_c, 3, 60, 64
1, 58325, Note_on_c, 2, 70, 99
1, 58335, Note_on_c, 2, 78, 79
1, 58363, Note_off_c, 2, 70, 64
1, 58378, Note_off_c, 2, 78, 64
1, 58408, Note_on_c, 2, 70, 74
1, 58409, Note_on_c, 3, 67, 100
1, 58425, Note_on_c, 2, 78, 74
1, 58438, Note_off_c, 2, 70, 64
1, 58465, Note_off_c, 2, 78, 64
1, 58480, Note_on_c, 2, 70, 106
1, 58494, Note_off_c, 3, 67, 64
1, 58503, Note_on_c, 2, 78, 62
1, 58515, Note_off_c, 2, 70, 64
1, 58546, Note_off_c, 2, 78, 64
1, 58559, Note_on_c, 3, 64, 109
1, 58560, Note_on_c, 2, 81, 113
1, 58568, Note_on_c, 2, 73, 99
1, 58598, Note_off_c, 2, 81, 64
1, 58603, Note_off_c, 2, 73, 64
1, 58635, Note_on_c, 2, 81, 101
1, 58640, Note_on_c, 2, 73, 79
1, 58673, Note_off_c, 2, 81, 64
1, 58678, Note_off_c, 2, 73, 64
1, 58713, Note_on_c, 2, 81, 79
1, 58720, Note_on_c, 2, 73, 85
1, 58746, Note_off_c, 2, 81, 64
1, 58775, Note_off_c, 2, 73, 64
1, 58800, Note_on_c, 2, 79, 113
1, 58803, Note_on_c, 2, 71, 94
1, 58828, Note_off_c, 2, 79, 64
1, 58841, Note_off_c, 2, 71, 64
1, 58940, Note_on_c, 2, 79, 85
1, 58960, Note_on_c, 2, 71, 113
1, 58990, Note_off_c, 2, 79, 64
1, 58998, Note_off_c, 2, 71, 64
1, 59030, Note_on_c, 2, 75, 101
1, 59040, Note_on_c, 2, 67, 113
1, 59070, Note_off_c, 2, 75, 64
1, 59075, Note_off_c, 2, 67, 64
1, 59110, Note_on_c, 2, 75, 92
1, 59120, Note_on_c, 2, 67, 113
1, 59153, Note_off_c, 2, 75, 64
1, 59155, Note_off_c, 2, 67, 64
1, 59190, Note_on_c, 2, 75, 62
1, 59195, Note_on_c, 2, 67, 99
1, 59230, Note_off_c, 2, 75, 64
1, 59233, Note_off_c, 2, 67, 64
1, 59263, Note_on_c, 2, 72, 70
1, 59283, Note_on_c, 2, 63, 101
1, 59306, Note_off_c, 2, 72, 64
1, 59321, Note_off_c, 2, 63, 64
1, 59355, Note_on_c, 2, 72, 85
1, 59363, Note_on_c, 2, 63, 106
1, 59380, Note_off_c, 2, 72, 64
1, 59398, Note_off_c, 2, 63, 64
1, 59428, Note_on_c, 2, 72, 92
1, 59445, Note_on_c, 2, 63, 117
1, 59463, Note_off_c, 2, 72, 64
1, 59485, Note_off_c, 2, 63, 64
1, 59523, Note_on_c, 5, 52, 101
1, 59523, Note_on_c, 0, 64, 103
1, 59530, Note_on_c, 4, 40, 114
1, 59530, Note_on_c, 1, 52, 114
1, 59550, Note_on_c, 8, 88, 60
1, 59555, Note_on_c, 8, 76, 56
1, 59743, Note_off_c, 8, 76, 64
1, 59755, Note_off_c, 8, 88, 64
1, 59758, Note_off_c, 0, 64, 64
1, 59775, Note_on_c, 2, 71, 88
1, 59785, Note_on_c, 2, 67, 110
1, 59805, Note_off_c, 2, 71, 64
1, 59814, Note_off_c, 3, 64, 64
1, 59818, Note_off_c, 2, 67, 64
1, 59827, Note_off_c, 4, 40, 64
1, 59827, Note_off_c, 1, 52, 64
1, 59855, Note_on_c, 2, 71, 77
1, 59865, Note_on_c, 2, 67, 88
1, 59883, Note_off_c, 2, 71, 64
1, 59885, Note_off_c, 2, 67, 64
1, 59923, Note_on_c, 2, 67, 88
1, 59930, Note_on_c, 2, 71, 67
1, 59970, Note_off_c, 2, 71, 64
1, 59981, Note_off_c, 2, 67, 64
1, 60010, Note_on_c, 2, 63, 99
1, 60011, Note_off_c, 5, 52, 64
1, 60013, Note_on_c, 2, 72, 110
1, 60048, Note_off_c, 2, 72, 64
1, 60060, Note_off_c, 2, 63, 64
1, 60090, Note_on_c, 2, 72, 88
1, 60103, Note_on_c, 2, 63, 88
1, 60120, Note_off_c, 2, 72, 64
1, 60141, Note_off_c, 2, 63, 64
1, 60168, Note_on_c, 2, 72, 77
1, 60175, Note_on_c, 2, 63, 88
1, 60210, Note_off_c, 2, 63, 64
1, 60221, Note_off_c, 2, 72, 64
1, 60248, Note_on_c, 2, 69, 88
1, 60258, Note_on_c, 2, 66, 99
1, 60291, Note_off_c, 2, 69, 64
1, 60301, Note_off_c, 2, 66, 64
1, 60330, Note_on_c, 2, 69, 67
1, 60343, Note_on_c, 2, 66, 77
1, 60373, Note_off_c, 2, 69, 64
1, 60376, Note_off_c, 2, 66, 64
1, 60405, Note_on_c, 2, 69, 88
1, 60415, Note_on_c, 2, 66, 72
1, 60445, Note_off_c, 2, 69, 64
1, 60470, Note_off_c, 2, 66, 64
1, 60490, Note_on_c, 5, 52, 89
1, 60490, Note_on_c, 0, 64, 103
1, 60490, Note_on_c, 4, 40, 114
1, 60490, Note_on_c, 1, 52, 114
1, 60690, Note_off_c, 0, 64, 64
1, 60728, Note_on_c, 2, 71, 88
1, 60748, Note_on_c, 2, 79, 110
1, 60766, Note_off_c, 2, 71, 64
1, 60781, Note_off_c, 2, 79, 64
1, 60787, Note_off_c, 4, 40, 64
1, 60787, Note_off_c, 1, 52, 64
1, 60803, Note_on_c, 2, 71, 110
1, 60825, Note_on_c, 2, 79, 88
1, 60841, Note_off_c, 2, 71, 64
1, 60853, Note_off_c, 2, 79, 64
1, 60880, Note_on_c, 2, 71, 99
1, 60898, Note_on_c, 2, 79, 88
1, 60925, Note_off_c, 2, 71, 64
1, 60933, Note_off_c, 2, 79, 64
1, 60943, Note_off_c, 5, 52, 64
1, 60968, Note_on_c, 2, 67, 99
1, 60978, Note_on_c, 2, 78, 88
1, 61006, Note_off_c, 2, 67, 64
1, 61013, Note_off_c, 2, 78, 64
1, 61053, Note_on_c, 2, 67, 110
1, 61055, Note_on_c, 2, 78, 88
1, 61086, Note_off_c, 2, 67, 64
1, 61088, Note_off_c, 2, 78, 64
1, 61120, Note_on_c, 2, 67, 110
1, 61133, Note_on_c, 2, 78, 77
1, 61155, Note_off_c, 2, 67, 64
1, 61183, Note_off_c, 2, 78, 64
1, 61215, Note_on_c, 2, 75, 77
1, 61218, Note_on_c, 2, 70, 110
1, 61253, Note_off_c, 2, 70, 64
1, 61258, Note_off_c, 2, 75, 64
1, 61298, Note_on_c, 2, 75, 88
1, 61300, Note_on_c, 2, 70, 77
1, 61330, Note_off_c, 2, 70, 64
1, 61336, Note_off_c, 2, 75, 64
1, 61365, Note_on_c, 2, 70, 88
1, 61378, Note_on_c, 2, 75, 77
1, 61400, Note_off_c, 2, 70, 64
1, 61413, Note_off_c, 2, 75, 64
1, 61443, Note_on_c, 4, 40, 105
1, 61443, Note_on_c, 1, 52, 105
1, 61450, Note_on_c, 5, 52, 110
1, 61450, Note_on_c, 0, 64, 108
1, 61643, Note_off_c, 0, 64, 64
1, 61685, Note_on_c, 2, 83, 113
1, 61688, Note_on_c, 2, 75, 113
1, 61720, Note_off_c, 2, 83, 64
1, 61721, Note_off_c, 2, 75, 64
1, 61766, Note_off_c, 4, 40, 64
1, 61766, Note_off_c, 1, 52, 64
1, 61768, Note_on_c, 2, 75, 106
1, 61770, Note_on_c, 2, 83, 74
1, 61798, Note_off_c, 2, 75, 64
1, 61800, Note_off_c, 2, 83, 64
1, 61840, Note_on_c, 2, 75, 74
1, 61840, Note_on_c, 2, 83, 66
1, 61873, Note_off_c, 2, 75, 64
1, 61888, Note_off_c, 2, 83, 64
1, 61896, Note_off_c, 5, 52, 64
1, 61933, Note_on_c, 2, 82, 121
1, 61943, Note_on_c, 2, 76, 103
1, 61971, Note_off_c, 2, 82, 64
1, 61976, Note_off_c, 2, 76, 64
1, 61998, Note_on_c, 2, 76, 81
1, 62015, Note_on_c, 2, 82, 115
1, 62036, Note_off_c, 2, 76, 64
1, 62048, Note_off_c, 2, 82, 64
1, 62075, Note_on_c, 2, 76, 85
1, 62085, Note_on_c, 2, 82, 94
1, 62125, Note_off_c, 2, 76, 64
1, 62130, Note_off_c, 2, 82, 64
1, 62165, Note_on_c, 2, 70, 99
1, 62175, Note_on_c, 2, 78, 79
1, 62203, Note_off_c, 2, 70, 64
1, 62218, Note_off_c, 2, 78, 64
1, 62248, Note_on_c, 2, 70, 74
1, 62265, Note_on_c, 2, 78, 74
1, 62278, Note_off_c, 2, 70, 64
1, 62305, Note_off_c, 2, 78, 64
1, 62320, Note_on_c, 2, 70, 106
1, 62343, Note_on_c, 2, 78, 62
1, 62355, Note_off_c, 2, 70, 64
1, 62386, Note_off_c, 2, 78, 64
1, 62400, Note_on_c, 2, 81, 113
1, 62408, Note_on_c, 2, 73, 99
1, 62438, Note_off_c, 2, 81, 64
1, 62443, Note_off_c, 2, 73, 64
1, 62475, Note_on_c, 2, 81, 101
1, 62480, Note_on_c, 2, 73, 79
1, 62513, Note_off_c, 2, 81, 64
1, 62518, Note_off_c, 2, 73, 64
1, 62553, Note_on_c, 2, 81, 79
1, 62560, Note_on_c, 2, 73, 85
1, 62586, Note_off_c, 2, 81, 64
1, 62615, Note_off_c, 2, 73, 64
1, 62640, Note_on_c, 2, 79, 113
1, 62643, Note_on_c, 2, 71, 94
1, 62668, Note_off_c, 2, 79, 64
1, 62681, Note_off_c, 2, 71, 64
1, 62780, Note_on_c, 2, 79, 85
1, 62800, Note_on_c, 2, 71, 113
1, 62830, Note_off_c, 2, 79, 64
1, 62838, Note_off_c, 2, 71, 64
1, 62870, Note_on_c, 2, 75, 101
1, 62880, Note_on_c, 2, 67, 113
1, 62910, Note_off_c, 2, 75, 64
1, 62915, Note_off_c, 2, 67, 64
1, 62950, Note_on_c, 2, 75, 92
1, 62960, Note_on_c, 2, 67, 113
1, 62993, Note_off_c, 2, 75, 64
1, 62995, Note_off_c, 2, 67, 64
1, 63030, Note_on_c, 2, 75, 62
1, 63035, Note_on_c, 2, 67, 99
1, 63070, Note_off_c, 2, 75, 64
1, 63073, Note_off_c, 2, 67, 64
1, 63103, Note_on_c, 2, 72, 70
1, 63123, Note_on_c, 2, 63, 101
1, 63146, Note_off_c, 2, 72, 64
1, 63161, Note_off_c, 2, 63, 64
1, 63195, Note_on_c, 2, 72, 85
1, 63203, Note_on_c, 2, 63, 106
1, 63220, Note_off_c, 2, 72, 64
1, 63238, Note_off_c, 2, 63, 64
1, 63268, Note_on_c, 2, 72, 92
1, 63285, Note_on_c, 2, 63, 117
1, 63303, Note_off_c, 2, 72, 64
1, 63325, Note_off_c, 2, 63, 64
1, 63342, Note_on_c, 3, 71, 109
1, 63363, Note_on_c, 0, 64, 103
1, 63370, Note_on_c, 4, 40, 114
1, 63370, Note_on_c, 1, 52, 114
1, 63390, Note_on_c, 8, 88, 60
1, 63395, Note_on_c, 8, 76, 56
1, 63583, Note_off_c, 8, 76, 64
1, 63595, Note_off_c, 8, 88, 64
1, 63598, Note_off_c, 0, 64, 64
1, 63615, Note_on_c, 2, 71, 88
1, 63625, Note_on_c, 2, 67, 110
1, 63645, Note_off_c, 2, 71, 64
1, 63658, Note_off_c, 2, 67, 64
1, 63667, Note_off_c, 4, 40, 64
1, 63667, Note_off_c, 1, 52, 64
1, 63695, Note_on_c, 2, 71, 77
1, 63701, Note_off_c, 3, 71, 64
1, 63705, Note_on_c, 2, 67, 88
1, 63723, Note_off_c, 2, 71, 64
1, 63725, Note_off_c, 2, 67, 64
1, 63763, Note_on_c, 2, 67, 88
1, 63770, Note_on_c, 2, 71, 67
1, 63810, Note_off_c, 2, 71, 64
1, 63821, Note_off_c, 2, 67, 64
1, 63838, Note_on_c, 3, 71, 100
1, 63850, Note_on_c, 2, 63, 99
1, 63853, Note_on_c, 2, 72, 110
1, 63888, Note_off_c, 2, 72, 64
1, 63900, Note_off_c, 2, 63, 64
1, 63930, Note_on_c, 2, 72, 88
1, 63943, Note_on_c, 2, 63, 88
1, 63960, Note_off_c, 2, 72, 64
1, 63981, Note_off_c, 2, 63, 64
1, 64008, Note_on_c, 2, 72, 77
1, 64015, Note_on_c, 2, 63, 88
1, 64050, Note_off_c, 2, 63, 64
1, 64061, Note_off_c, 2, 72, 64
1, 64088, Note_on_c, 2, 69, 88
1, 64098, Note_on_c, 2, 66, 99
1, 64131, Note_off_c, 2, 69, 64
1, 64141, Note_off_c, 2, 66, 64
1, 64170, Note_on_c, 2, 69, 67
1, 64178, Note_off_c, 3, 71, 64
1, 64183, Note_on_c, 2, 66, 77
1, 64213, Note_off_c, 2, 69, 64
1, 64216, Note_off_c, 2, 66, 64
1, 64245, Note_on_c, 2, 69, 88
1, 64255, Note_on_c, 2, 66, 72
1, 64285, Note_off_c, 2, 69, 64
1, 64310, Note_off_c, 2, 66, 64
1, 64312, Note_on_c, 3, 71, 109
1, 64330, Note_on_c, 0, 64, 103
1, 64330, Note_on_c, 4, 40, 114
1, 64330, Note_on_c, 1, 52, 114
1, 64530, Note_off_c, 0, 64, 64
1, 64568, Note_on_c, 2, 71, 88
1, 64588, Note_on_c, 2, 79, 110
1, 64606, Note_off_c, 2, 71, 64
1, 64621, Note_off_c, 2, 79, 64
1, 64627, Note_off_c, 4, 40, 64
1, 64627, Note_off_c, 1, 52, 64
1, 64643, Note_on_c, 2, 71, 110
1, 64665, Note_on_c, 2, 79, 88
1, 64681, Note_off_c, 2, 71, 64
1, 64693, Note_off_c, 2, 79, 64
1, 64720, Note_on_c, 2, 71, 99
1, 64722, Note_off_c, 3, 71, 64
1, 64738, Note_on_c, 2, 79, 88
1, 64765, Note_off_c, 2, 71, 64
1, 64773, Note_off_c, 2, 79, 64
1, 64808, Note_on_c, 2, 67, 99
1, 64818, Note_on_c, 2, 78, 88
1, 64824, Note_on_c, 3, 72, 100
1, 64846, Note_off_c, 2, 67, 64
1, 64853, Note_off_c, 2, 78, 64
1, 64893, Note_on_c, 2, 67, 110
1, 64895, Note_on_c, 2, 78, 88
1, 64926, Note_off_c, 2, 67, 64
1, 64928, Note_off_c, 2, 78, 64
1, 64960, Note_on_c, 2, 67, 110
1, 64973, Note_on_c, 2, 78, 77
1, 64995, Note_off_c, 2, 67, 64
1, 65023, Note_off_c, 2, 78, 64
1, 65050, Note_off_c, 3, 72, 64
1, 65055, Note_on_c, 2, 75, 77
1, 65058, Note_on_c, 2, 70, 110
1, 65093, Note_off_c, 2, 70, 64
1, 65098, Note_off_c, 2, 75, 64
1, 65138, Note_on_c, 2, 75, 88
1, 65140, Note_on_c, 2, 70, 77
1, 65156, Note_on_c, 3, 67, 100
1, 65170, Note_off_c, 2, 70, 64
1, 65176, Note_off_c, 2, 75, 64
1, 65205, Note_on_c, 2, 70, 88
1, 65218, Note_on_c, 2, 75, 77
1, 65240, Note_off_c, 2, 70, 64
1, 65253, Note_off_c, 2, 75, 64
1, 65273, Note_off_c, 3, 67, 64
1, 65283, Note_on_c, 4, 40, 105
1, 65283, Note_on_c, 1, 52, 105
1, 65290, Note_on_c, 0, 64, 108
1, 65339, Note_on_c, 3, 63, 100
1, 65483, Note_off_c, 0, 64, 64
1, 65525, Note_on_c, 2, 83, 113
1, 65528, Note_on_c, 2, 75, 113
1, 65560, Note_off_c, 2, 83, 64
1, 65561, Note_off_c, 2, 75, 64
1, 65606, Note_off_c, 4, 40, 64
1, 65606, Note_off_c, 1, 52, 64
1, 65608, Note_on_c, 2, 75, 106
1, 65610, Note_on_c, 2, 83, 74
1, 65638, Note_off_c, 2, 75, 64
1, 65640, Note_off_c, 2, 83, 64
1, 65660, Note_off_c, 3, 63, 64
1, 65680, Note_on_c, 2, 75, 74
1, 65680, Note_on_c, 2, 83, 66
1, 65713, Note_off_c, 2, 75, 64
1, 65728, Note_off_c, 2, 83, 64
1, 65773, Note_on_c, 2, 82, 121
1, 65783, Note_on_c, 2, 76, 103
1, 65784, Note_on_c, 3, 60, 109
1, 65811, Note_off_c, 2, 82, 64
1, 65816, Note_off_c, 2, 76, 64
1, 65838, Note_on_c, 2, 76, 81
1, 65855, Note_on_c, 2, 82, 115
1, 65876, Note_off_c, 2, 76, 64
1, 65888, Note_off_c, 2, 82, 64
1, 65915, Note_on_c, 2, 76, 85
1, 65925, Note_on_c, 2, 82, 94
1, 65965, Note_off_c, 2, 76, 64
1, 65970, Note_off_c, 2, 82, 64
1, 65987, Note_off_c, 3, 60, 64
1, 66005, Note_on_c, 2, 70, 99
1, 66015, Note_on_c, 2, 78, 79
1, 66043, Note_off_c, 2, 70, 64
1, 66058, Note_off_c, 2, 78, 64
1, 66088, Note_on_c, 2, 70, 74
1, 66093, Note_on_c, 3, 67, 109
1, 66105, Note_on_c, 2, 78, 74
1, 66118, Note_off_c, 2, 70, 64
1, 66145, Note_off_c, 2, 78, 64
1, 66160, Note_on_c, 2, 70, 106
1, 66183, Note_on_c, 2, 78, 62
1, 66194, Note_off_c, 3, 67, 64
1, 66195, Note_off_c, 2, 70, 64
1, 66226, Note_off_c, 2, 78, 64
1, 66240, Note_on_c, 2, 81, 113
1, 66248, Note_on_c, 2, 73, 99
1, 66259, Note_on_c, 3, 64, 109
1, 66278, Note_off_c, 2, 81, 64
1, 66283, Note_off_c, 2, 73, 64
1, 66315, Note_on_c, 2, 81, 101
1, 66320, Note_on_c, 2, 73, 79
1, 66353, Note_off_c, 2, 81, 64
1, 66358, Note_off_c, 2, 73, 64
1, 66393, Note_on_c, 2, 81, 79
1, 66400, Note_on_c, 2, 73, 85
1, 66426, Note_off_c, 2, 81, 64
1, 66455, Note_off_c, 2, 73, 64
1, 66480, Note_on_c, 2, 79, 113
1, 66483, Note_on_c, 2, 71, 94
1, 66508, Note_off_c, 2, 79, 64
1, 66521, Note_off_c, 2, 71, 64
1, 66620, Note_on_c, 2, 79, 85
1, 66640, Note_on_c, 2, 71, 113
1, 66670, Note_off_c, 2, 79, 64
1, 66678, Note_off_c, 2, 71, 64
1, 66710, Note_on_c, 2, 75, 101
1, 66720, Note_on_c, 2, 67, 113
1, 66750, Note_off_c, 2, 75, 64
1, 66755, Note_off_c, 2, 67, 64
1, 66790, Note_on_c, 2, 75, 92
1, 66800, Note_on_c, 2, 67, 113
1, 66833, Note_off_c, 2, 75, 64
1, 66835, Note_off_c, 2, 67, 64
1, 66870, Note_on_c, 2, 75, 62
1, 66875, Note_on_c, 2, 67, 99
1, 66910, Note_off_c, 2, 75, 64
1, 66913, Note_off_c, 2, 67, 64
1, 66943, Note_on_c, 2, 72, 70
1, 66963, Note_on_c, 2, 63, 101
1, 66986, Note_off_c, 2, 72, 64
1, 67001, Note_off_c, 2, 63, 64
1, 67035, Note_on_c, 2, 72, 85
1, 67043, Note_on_c, 2, 63, 106
1, 67060, Note_off_c, 2, 72, 64
1, 67078, Note_off_c, 2, 63, 64
1, 67108, Note_on_c, 2, 72, 92
1, 67125, Note_on_c, 2, 63, 117
1, 67143, Note_off_c, 2, 72, 64
1, 67165, Note_off_c, 2, 63, 64
1, 67203, Note_on_c, 5, 52, 101
1, 67203, Note_on_c, 0, 64, 103
1, 67210, Note_on_c, 4, 40, 114
1, 67210, Note_on_c, 1, 52, 114
1, 67230, Note_on_c, 8, 88, 60
1, 67235, Note_on_c, 8, 76, 56
1, 67423, Note_off_c, 8, 76, 64
1, 67435, Note_off_c, 8, 88, 64
1, 67438, Note_off_c, 0, 64, 64
1, 67455, Note_on_c, 2, 71, 88
1, 67465, Note_on_c, 2, 67, 110
1, 67485, Note_off_c, 2, 71, 64
1, 67498, Note_off_c, 2, 67, 64
1, 67507, Note_off_c, 4, 40, 64
1, 67507, Note_off_c, 1, 52, 64
1, 67535, Note_on_c, 2, 71, 77
1, 67545, Note_on_c, 2, 67, 88
1, 67563, Note_off_c, 2, 71, 64
1, 67565, Note_off_c, 2, 67, 64
1, 67566, Note_off_c, 3, 64, 64
1, 67603, Note_on_c, 2, 67, 88
1, 67610, Note_on_c, 2, 71, 67
1, 67650, Note_off_c, 2, 71, 64
1, 67661, Note_off_c, 2, 67, 64
1, 67690, Note_on_c, 2, 63, 99
1, 67691, Note_off_c, 5, 52, 64
1, 67693, Note_on_c, 2, 72, 110
1, 67728, Note_off_c, 2, 72, 64
1, 67740, Note_off_c, 2, 63, 64
1, 67770, Note_on_c, 2, 72, 88
1, 67783, Note_on_c, 2, 63, 88
1, 67800, Note_off_c, 2, 72, 64
1, 67821, Note_off_c, 2, 63, 64
1, 67848, Note_on_c, 2, 72, 77
1, 67855, Note_on_c, 2, 63, 88
1, 67890, Note_off_c, 2, 63, 64
1, 67901, Note_off_c, 2, 72, 64
1, 67928, Note_on_c, 2, 69, 88
1, 67938, Note_on_c, 2, 66, 99
1, 67971, Note_off_c, 2, 69, 64
1, 67981, Note_off_c, 2, 66, 64
1, 68010, Note_on_c, 2, 69, 67
1, 68023, Note_on_c, 2, 66, 77
1, 68053, Note_off_c, 2, 69, 64
1, 68056, Note_off_c, 2, 66, 64
1, 68085, Note_on_c, 2, 69, 88
1, 68095, Note_on_c, 2, 66, 72
1, 68125, Note_off_c, 2, 69, 64
1, 68150, Note_off_c, 2, 66, 64
1, 68170, Note_on_c, 5, 52, 89
1, 68170, Note_on_c, 0, 64, 103
1, 68170, Note_on_c, 4, 40, 114
1, 68170, Note_on_c, 1, 52, 114
1, 68370, Note_off_c, 0, 64, 64
1, 68408, Note_on_c, 2, 71, 88
1, 68428, Note_on_c, 2, 79, 110
1, 68446, Note_off_c, 2, 71, 64
1, 68461, Note_off_c, 2, 79, 64
1, 68467, Note_off_c, 4, 40, 64
1, 68467, Note_off_c, 1, 52, 64
1, 68483, Note_on_c, 2, 71, 110
1, 68505, Note_on_c, 2, 79, 88
1, 68521, Note_off_c, 2, 71, 64
1, 68533, Note_off_c, 2, 79, 64
1, 68560, Note_on_c, 2, 71, 99
1, 68578, Note_on_c, 2, 79, 88
1, 68605, Note_off_c, 2, 71, 64
1, 68613, Note_off_c, 2, 79, 64
1, 68623, Note_off_c, 5, 52, 64
1, 68648, Note_on_c, 2, 67, 99
1, 68658, Note_on_c, 2, 78, 88
1, 68686, Note_off_c, 2, 67, 64
1, 68693, Note_off_c, 2, 78, 64
1, 68733, Note_on_c, 2, 67, 110
1, 68735, Note_on_c, 2, 78, 88
1, 68766, Note_off_c, 2, 67, 64
1, 68768, Note_off_c, 2, 78, 64
1, 68800, Note_on_c, 2, 67, 110
1, 68813, Note_on_c, 2, 78, 77
1, 68835, Note_off_c, 2, 67, 64
1, 68863, Note_off_c, 2, 78, 64
1, 68895, Note_on_c, 2, 75, 77
1, 68898, Note_on_c, 2, 70, 110
1, 68933, Note_off_c, 2, 70, 64
1, 68938, Note_off_c, 2, 75, 64
1, 68978, Note_on_c, 2, 75, 88
1, 68980, Note_on_c, 2, 70, 77
1, 69010, Note_off_c, 2, 70, 64
1, 69016, Note_off_c, 2, 75, 64
1, 69045, Note_on_c, 2, 70, 88
1, 69058, Note_on_c, 2, 75, 77
1, 69080, Note_off_c, 2, 70, 64
1, 69093, Note_off_c, 2, 75, 64
1, 69123, Note_on_c, 4, 40, 105
1, 69123, Note_on_c, 1, 52, 105
1, 69130, Note_on_c, 5, 52, 110
1, 69130, Note_on_c, 0, 64, 108
1, 69323, Note_off_c, 0, 64, 64
1, 69365, Note_on_c, 2, 83, 113
1, 69368, Note_on_c, 2, 75, 113
1, 69400, Note_off_c, 2, 83, 64
1, 69401, Note_off_c, 2, 75, 64
1, 69446, Note_off_c, 4, 40, 64
1, 69446, Note_off_c, 1, 52, 64
1, 69448, Note_on_c, 2, 75, 106
1, 69450, Note_on_c, 2, 83, 74
1, 69478, Note_off_c, 2, 75, 64
1, 69480, Note_off_c, 2, 83, 64
1, 69520, Note_on_c, 2, 75, 74
1, 69520, Note_on_c, 2, 83, 66
1, 69553, Note_off_c, 2, 75, 64
1, 69568, Note_off_c, 2, 83, 64
1, 69576, Note_off_c, 5, 52, 64
1, 69613, Note_on_c, 2, 82, 121
1, 69623, Note_on_c, 2, 76, 103
1, 69651, Note_off_c, 2, 82, 64
1, 69656, Note_off_c, 2, 76, 64
1, 69678, Note_on_c, 2, 76, 81
1, 69695, Note_on_c, 2, 82, 115
1, 69716, Note_off_c, 2, 76, 64
1, 69728, Note_off_c, 2, 82, 64
1, 69755, Note_on_c, 2, 76, 85
1, 69765, Note_on_c, 2, 82, 94
1, 69805, Note_off_c, 2, 76, 64
1, 69810, Note_off_c, 2, 82, 64
1, 69845, Note_on_c, 2, 70, 99
1, 69855, Note_on_c, 2, 78, 79
1, 69883, Note_off_c, 2, 70, 64
1, 69898, Note_off_c, 2, 78, 64
1, 69928, Note_on_c, 2, 70, 74
1, 69945, Note_on_c, 2, 78, 74
1, 69958, Note_off_c, 2, 70, 64
1, 69985, Note_off_c, 2, 78, 64
1, 70000, Note_on_c, 2, 70, 106
1, 70023, Note_on_c, 2, 78, 62
1, 70035, Note_off_c, 2, 70, 64
1, 70066, Note_off_c, 2, 78, 64
1, 70080, Note_on_c, 2, 81, 113
1, 70088, Note_on_c, 2, 73, 99
1, 70118, Note_off_c, 2, 81, 64
1, 70123, Note_off_c, 2, 73, 64
1, 70155, Note_on_c, 2, 81, 101
1, 70160, Note_on_c, 2, 73, 79
1, 70193, Note_off_c, 2, 81, 64
1, 70198, Note_off_c, 2, 73, 64
1, 70233, Note_on_c, 2, 81, 79
1, 70240, Note_on_c, 2, 73, 85
1, 70266, Note_off_c, 2, 81, 64
1, 70295, Note_off_c, 2, 73, 64
1, 70320, Note_on_c, 2, 79, 113
1, 70323, Note_on_c, 2, 71, 94
1, 70348, Note_off_c, 2, 79, 64
1, 70361, Note_off_c, 2, 71, 64
1, 70460, Note_on_c, 2, 79, 85
1, 70480, Note_on_c, 2, 71, 113
1, 70510, Note_off_c, 2, 79, 64
1, 70518, Note_off_c, 2, 71, 64
1, 70550, Note_on_c, 2, 75, 101
1, 70560, Note_on_c, 2, 67, 113
1, 70590, Note_off_c, 2, 75, 64
1, 70595, Note_off_c, 2, 67, 64
1, 70630, Note_on_c, 2, 75, 92
1, 70640, Note_on_c, 2, 67, 113
1, 70673, Note_off_c, 2, 75, 64
1, 70675, Note_off_c, 2, 67, 64
1, 70710, Note_on_c, 2, 75, 62
1, 70715, Note_on_c, 2, 67, 99
1, 70750, Note_off_c, 2, 75, 64
1, 70753, Note_off_c, 2, 67, 64
1, 70783, Note_on_c, 2, 72, 70
1, 70803, Note_on_c, 2, 63, 101
1, 70826, Note_off_c, 2, 72, 64
1, 70841, Note_off_c, 2, 63, 64
1, 70875, Note_on_c, 2, 72, 85
1, 70883, Note_on_c, 2, 63, 106
1, 70900, Note_off_c, 2, 72, 64
1, 70918, Note_off_c, 2, 63, 64
1, 70948, Note_on_c, 2, 72, 80
1, 70965, Note_on_c, 2, 63, 102
1, 70983, Note_off_c, 2, 72, 64
1, 71005, Note_off_c, 2, 63, 64
1, 71040, Control_c, 2, 7, 95
1, 71040, Note_on_c, 2, 83, 67
1, 71040, Note_on_c, 2, 64, 77
1, 71048, Note_on_c, 2, 80, 77
1, 71115, Note_on_c, 2, 65, 67
1, 71115, Note_on_c, 2, 59, 67
1, 71118, Note_on_c, 2, 84, 68
1, 71128, Note_off_c, 2, 83, 64
1, 71135, Note_on_c, 2, 79, 55
1, 71138, Note_off_c, 2, 80, 64
1, 71140, Note_off_c, 2, 64, 64
1, 71190, Note_off_c, 2, 59, 64
1, 71195, Note_on_c, 2, 86, 59
1, 71195, Note_on_c, 2, 67, 59
1, 71195, Note_on_c, 2, 53, 64
1, 71210, Note_off_c, 2, 65, 64
1, 71211, Note_off_c, 2, 84, 64
1, 71213, Note_on_c, 2, 76, 69
1, 71233, Note_off_c, 2, 79, 64
1, 71275, Note_on_c, 2, 68, 46
1, 71280, Note_on_c, 2, 89, 51
1, 71280, Note_on_c, 2, 52, 89
1, 71283, Note_off_c, 2, 67, 64
1, 71288, Note_off_c, 2, 76, 64
1, 71290, Note_on_c, 2, 72, 80
1, 71293, Note_off_c, 2, 86, 64
1, 71305, Note_off_c, 2, 53, 64
1, 71348, Note_off_c, 2, 89, 64
1, 71355, Note_on_c, 2, 67, 66
1, 71355, Note_on_c, 2, 51, 70
1, 71358, Note_on_c, 2, 88, 52
1, 71360, Note_off_c, 2, 72, 64
1, 71365, Note_off_c, 2, 52, 64
1, 71370, Note_on_c, 2, 71, 66
1, 71373, Note_off_c, 2, 68, 64
1, 71430, Note_off_c, 2, 71, 64
1, 71430, Note_on_c, 2, 72, 57
1, 71433, Note_off_c, 2, 88, 64
1, 71435, Note_off_c, 2, 67, 64
1, 71435, Note_on_c, 2, 89, 57
1, 71435, Note_on_c, 2, 68, 66
1, 71435, Note_on_c, 2, 52, 71
1, 71438, Note_off_c, 2, 51, 64
1, 71515, Note_on_c, 2, 76, 73
1, 71518, Note_on_c, 2, 84, 73
1, 71520, Note_off_c, 2, 72, 64
1, 71520, Note_on_c, 2, 65, 83
1, 71520, Note_on_c, 2, 56, 83
1, 71525, Note_off_c, 2, 89, 64
1, 71525, Note_off_c, 2, 52, 64
1, 71538, Note_off_c, 2, 68, 64
1, 71588, Note_off_c, 2, 65, 64
1, 71591, Note_off_c, 2, 84, 64
1, 71593, Note_on_c, 2, 75, 64
1, 71593, Note_on_c, 2, 83, 69
1, 71595, Note_off_c, 2, 76, 64
1, 71595, Note_on_c, 2, 64, 69
1, 71610, Note_on_c, 2, 55, 74
1, 71620, Note_off_c, 2, 56, 64
1, 71655, Note_on_c, 2, 76, 66
1, 71658, Note_off_c, 2, 75, 64
1, 71675, Note_on_c, 2, 84, 76
1, 71675, Note_on_c, 2, 65, 66
1, 71675, Note_on_c, 2, 56, 76
1, 71690, Note_off_c, 2, 64, 64
1, 71693, Note_off_c, 2, 83, 64
1, 71700, Note_off_c, 2, 55, 64
1, 71745, Note_off_c, 2, 76, 64
1, 71750, Note_on_c, 2, 80, 89
1, 71755, Note_on_c, 2, 88, 58
1, 71755, Note_on_c, 2, 72, 78
1, 71758, Note_off_c, 2, 56, 64
1, 71760, Note_off_c, 2, 65, 64
1, 71760, Note_on_c, 2, 59, 78
1, 71770, Note_off_c, 2, 84, 64
1, 71815, Note_off_c, 2, 88, 64
1, 71820, Note_on_c, 2, 79, 69
1, 71830, Note_off_c, 2, 80, 64
1, 71835, Note_off_c, 2, 72, 64
1, 71835, Note_on_c, 2, 87, 18
1, 71835, Note_on_c, 2, 71, 74
1, 71840, Note_off_c, 2, 59, 64
1, 71840, Note_on_c, 2, 58, 103
1, 71898, Note_on_c, 2, 80, 94
1, 71905, Note_off_c, 2, 79, 64
1, 71910, Note_off_c, 2, 71, 64
1, 71913, Note_on_c, 2, 88, 77
1, 71915, Note_on_c, 2, 72, 82
1, 71918, Note_off_c, 2, 87, 64
1, 71920, Note_off_c, 2, 58, 64
1, 71920, Note_on_c, 2, 59, 95
1, 71973, Note_off_c, 2, 80, 64
1, 71981, Note_off_c, 2, 88, 64
1, 71985, Note_off_c, 2, 59, 64
1, 71990, Note_off_c, 2, 72, 64
1, 72003, Note_on_c, 2, 81, 109
1, 72005, Note_on_c, 2, 89, 85
1, 72005, Note_on_c, 2, 64, 97
1, 72010, Note_on_c, 2, 72, 97
1, 72073, Note_off_c, 2, 81, 64
1, 72075, Note_on_c, 2, 80, 76
1, 72075, Note_on_c, 2, 88, 87
1, 72083, Note_off_c, 2, 89, 64
1, 72083, Note_on_c, 2, 71, 76
1, 72085, Note_on_c, 2, 60, 82
1, 72095, Note_off_c, 2, 64, 64
1, 72105, Note_off_c, 2, 72, 64
1, 72150, Note_on_c, 2, 89, 84
1, 72155, Note_on_c, 2, 81, 84
1, 72160, Note_off_c, 2, 88, 64
1, 72160, Note_on_c, 2, 59, 84
1, 72163, Note_off_c, 2, 60, 64
1, 72163, Note_on_c, 2, 69, 84
1, 72166, Note_off_c, 2, 71, 64
1, 72170, Note_off_c, 2, 80, 64
1, 72240, Note_off_c, 2, 89, 64
1, 72243, Note_on_c, 2, 92, 87
1, 72243, Note_on_c, 2, 83, 93
1, 72245, Note_on_c, 2, 65, 107
1, 72255, Note_off_c, 2, 81, 64
1, 72258, Note_off_c, 2, 59, 64
1, 72260, Note_on_c, 2, 68, 82
1, 72308, Note_off_c, 2, 69, 64
1, 72313, Note_on_c, 2, 81, 84
1, 72316, Note_off_c, 2, 83, 64
1, 72318, Note_on_c, 2, 91, 90
1, 72323, Note_on_c, 2, 64, 78
1, 72328, Note_off_c, 2, 92, 64
1, 72333, Note_off_c, 2, 68, 64
1, 72338, Note_off_c, 2, 65, 64
1, 72338, Note_on_c, 2, 71, 91
1, 72360, Note_on_c, 8, 76, 83
1, 72380, Note_on_c, 8, 77, 20
1, 72385, Note_on_c, 2, 83, 100
1, 72395, Note_on_c, 2, 92, 87
1, 72401, Note_off_c, 2, 91, 64
1, 72403, Note_on_c, 2, 60, 115
1, 72406, Note_off_c, 2, 81, 64
1, 72410, Note_on_c, 2, 76, 115
1, 72416, Note_off_c, 2, 71, 64
1, 72431, Note_off_c, 2, 64, 64
1, 72453, Note_off_c, 8, 76, 64
1, 72458, Note_off_c, 2, 76, 64
1, 72460, Note_on_c, 8, 79, 28
1, 72465, Note_off_c, 2, 83, 64
1, 72466, Note_off_c, 2, 60, 64
1, 72475, Note_off_c, 2, 92, 64
1, 72475, Note_on_c, 2, 95, 118
1, 72483, Note_on_c, 2, 53, 97
1, 72488, Note_on_c, 2, 71, 127
1, 72498, Note_on_c, 2, 76, 119
1, 72503, Note_off_c, 8, 77, 64
1, 72513, Note_on_c, 8, 81, 59
1, 72545, Note_off_c, 8, 79, 64
1, 72553, Note_on_c, 2, 94, 93
1, 72558, Note_off_c, 2, 95, 64
1, 72560, Note_on_c, 8, 83, 52
1, 72560, Note_on_c, 2, 56, 93
1, 72563, Note_on_c, 2, 72, 107
1, 72571, Note_off_c, 2, 76, 64
1, 72575, Note_on_c, 2, 72, 101
1, 72581, Note_off_c, 2, 71, 64
1, 72583, Note_off_c, 8, 81, 64
1, 72591, Note_off_c, 2, 53, 64
1, 72610, Note_on_c, 8, 84, 63
1, 72625, Note_on_c, 2, 95, 126
1, 72628, Note_off_c, 8, 83, 64
1, 72640, Note_off_c, 2, 72, 64
1, 72640, Note_off_c, 2, 72, 64
1, 72640, Note_on_c, 8, 86, 67
1, 72640, Note_on_c, 2, 76, 104
1, 72641, Note_off_c, 2, 94, 64
1, 72645, Note_on_c, 2, 59, 105
1, 72648, Note_on_c, 2, 71, 112
1, 72650, Note_off_c, 2, 56, 64
1, 72660, Note_off_c, 8, 84, 64
1, 72675, Note_on_c, 8, 88, 71
1, 72695, Note_off_c, 8, 86, 64
1, 72698, Note_off_c, 2, 95, 64
1, 72703, Note_off_c, 2, 76, 64
1, 72710, Note_on_c, 8, 89, 76
1, 72713, Note_on_c, 2, 77, 108
1, 72718, Note_on_c, 2, 83, 127
1, 72725, Note_off_c, 8, 88, 64
1, 72725, Note_on_c, 2, 60, 108
1, 72726, Note_off_c, 2, 71, 64
1, 72728, Note_off_c, 2, 59, 64
1, 72733, Note_on_c, 2, 68, 108
1, 72745, Note_on_c, 8, 91, 59
1, 72760, Note_off_c, 8, 89, 64
1, 72775, Note_on_c, 8, 93, 67
1, 72790, Note_on_c, 2, 84, 119
1, 72793, Note_on_c, 2, 80, 120
1, 72795, Note_off_c, 8, 91, 64
1, 72800, Note_off_c, 2, 60, 64
1, 72803, Note_on_c, 2, 59, 120
1, 72808, Note_off_c, 2, 77, 64
1, 72808, Note_off_c, 2, 83, 64
1, 72810, Note_on_c, 8, 95, 55
1, 72815, Note_on_c, 2, 76, 120
1, 72833, Note_off_c, 2, 68, 64
1, 72833, Note_off_c, 8, 93, 64
1, 72855, Note_on_c, 8, 84, 55
1, 72868, Note_on_c, 2, 83, 123
1, 72870, Note_off_c, 2, 84, 64
1, 72870, Note_on_c, 2, 88, 72
1, 72871, Note_off_c, 2, 80, 64
1, 72875, Note_off_c, 8, 95, 64
1, 72883, Note_on_c, 2, 60, 77
1, 72885, Note_on_c, 2, 80, 77
1, 72890, Note_off_c, 2, 76, 64
1, 72891, Note_off_c, 2, 59, 64
1, 72900, Note_on_c, 8, 86, 63
1, 72915, Note_off_c, 8, 84, 64
1, 72930, Note_off_c, 2, 80, 64
1, 72946, Note_off_c, 2, 83, 64
1, 72950, Note_off_c, 2, 88, 64
1, 72950, Note_on_c, 8, 88, 96
1, 72960, Program_c, 3, 56
1, 72960, Note_on_c, 1, 40, 120
1, 72960, Control_c, 3, 7, 105
1, 72965, Note_off_c, 8, 86, 64
1, 72966, Note_off_c, 2, 60, 64
1, 73050, Note_off_c, 8, 88, 64
1, 73145, Note_off_c, 1, 40, 64
1, 73200, Note_on_c, 1, 34, 120
1, 73205, Note_on_c, 3, 64, 104
1, 73205, Note_on_c, 3, 60, 106
1, 73208, Note_on_c, 3, 68, 110
1, 73243, Note_off_c, 3, 68, 64
1, 73248, Note_off_c, 3, 64, 64
1, 73250, Note_off_c, 3, 60, 64
1, 73295, Note_on_c, 3, 64, 85
1, 73295, Note_on_c, 3, 68, 110
1, 73295, Note_on_c, 3, 60, 99
1, 73325, Note_off_c, 3, 68, 64
1, 73330, Note_off_c, 3, 64, 64
1, 73335, Note_off_c, 3, 60, 64
1, 73365, Note_on_c, 3, 68, 85
1, 73365, Note_on_c, 3, 64, 89
1, 73370, Note_on_c, 3, 60, 89
1, 73378, Note_off_c, 1, 34, 64
1, 73403, Note_off_c, 3, 68, 64
1, 73408, Note_off_c, 3, 64, 64
1, 73413, Note_off_c, 3, 60, 64
1, 73440, Control_c, 2, 7, 80
1, 73440, Note_on_c, 1, 40, 120
1, 73448, Note_on_c, 3, 65, 68
1, 73450, Note_on_c, 3, 69, 76
1, 73453, Note_on_c, 3, 61, 110
1, 73486, Note_off_c, 3, 65, 64
1, 73490, Note_off_c, 3, 69, 64
1, 73491, Note_off_c, 3, 61, 64
1, 73525, Note_on_c, 3, 65, 74
1, 73525, Note_on_c, 3, 69, 74
1, 73533, Note_on_c, 3, 61, 106
1, 73560, Note_off_c, 3, 69, 64
1, 73563, Note_off_c, 3, 61, 64
1, 73565, Note_off_c, 3, 65, 64
1, 73598, Note_off_c, 1, 40, 64
1, 73603, Note_on_c, 3, 61, 118
1, 73603, Note_on_c, 3, 65, 76
1, 73603, Note_on_c, 3, 69, 76
1, 73638, Note_off_c, 3, 69, 64
1, 73641, Note_off_c, 3, 65, 64
1, 73643, Note_off_c, 3, 61, 64
1, 73680, Note_on_c, 1, 34, 120
1, 73695, Note_on_c, 3, 58, 99
1, 73698, Note_on_c, 3, 66, 120
1, 73700, Note_on_c, 3, 62, 97
1, 73731, Note_off_c, 3, 66, 64
1, 73735, Note_off_c, 3, 58, 64
1, 73740, Note_off_c, 3, 62, 64
1, 73773, Note_on_c, 3, 66, 104
1, 73773, Note_on_c, 3, 62, 64
1, 73778, Note_on_c, 3, 58, 118
1, 73803, Note_off_c, 3, 66, 64
1, 73806, Note_off_c, 3, 62, 64
1, 73811, Note_off_c, 3, 58, 64
1, 73835, Note_off_c, 1, 34, 64
1, 73843, Note_on_c, 3, 62, 74
1, 73845, Note_on_c, 3, 66, 116
1, 73850, Note_on_c, 3, 58, 102
1, 73893, Note_off_c, 3, 66, 64
1, 73895, Note_off_c, 3, 58, 64
1, 73896, Note_off_c, 3, 62, 64
1, 73920, Note_on_c, 1, 40, 120
1, 73931, Note_on_c, 2, 69, 88
1, 73933, Note_on_c, 7, 61, 88
1, 73941, Note_on_c, 2, 77, 98
1, 73959, Note_on_c, 2, 50, 109
1, 74046, Note_off_c, 7, 61, 64
1, 74064, Note_off_c, 2, 69, 64
1, 74065, Note_off_c, 1, 40, 64
1, 74066, Note_off_c, 2, 77, 64
1, 74077, Note_off_c, 2, 50, 64
1, 74160, Note_on_c, 1, 34, 91
1, 74170, Note_on_c, 3, 68, 120
1, 74170, Note_on_c, 3, 64, 95
1, 74173, Note_on_c, 3, 60, 95
1, 74208, Note_off_c, 3, 68, 64
1, 74210, Note_off_c, 3, 64, 64
1, 74216, Note_off_c, 3, 60, 64
1, 74255, Note_on_c, 3, 64, 95
1, 74255, Note_on_c, 3, 68, 93
1, 74258, Note_on_c, 3, 60, 99
1, 74285, Note_off_c, 3, 68, 64
1, 74291, Note_off_c, 3, 60, 64
1, 74293, Note_off_c, 3, 64, 64
1, 74323, Note_off_c, 1, 34, 64
1, 74323, Note_on_c, 3, 68, 95
1, 74323, Note_on_c, 3, 64, 95
1, 74328, Note_on_c, 3, 60, 78
1, 74358, Note_off_c, 3, 68, 64
1, 74363, Note_off_c, 3, 64, 64
1, 74368, Note_off_c, 3, 60, 64
1, 74400, Note_on_c, 1, 40, 120
1, 74413, Note_on_c, 3, 61, 120
1, 74413, Note_on_c, 3, 65, 89
1, 74415, Note_on_c, 3, 69, 91
1, 74448, Note_off_c, 3, 69, 64
1, 74451, Note_off_c, 3, 65, 64
1, 74456, Note_off_c, 3, 61, 64
1, 74490, Note_on_c, 3, 65, 78
1, 74490, Note_on_c, 3, 69, 85
1, 74498, Note_on_c, 3, 61, 106
1, 74523, Note_off_c, 3, 69, 64
1, 74525, Note_off_c, 3, 65, 64
1, 74528, Note_off_c, 3, 61, 64
1, 74550, Note_off_c, 1, 40, 64
1, 74565, Note_on_c, 3, 65, 78
1, 74568, Note_on_c, 3, 61, 118
1, 74568, Note_on_c, 3, 69, 95
1, 74601, Note_off_c, 3, 69, 64
1, 74605, Note_off_c, 3, 65, 64
1, 74608, Note_off_c, 3, 61, 64
1, 74640, Note_on_c, 1, 34, 120
1, 74663, Note_on_c, 3, 66, 120
1, 74663, Note_on_c, 3, 62, 99
1, 74668, Note_on_c, 3, 58, 120
1, 74701, Note_off_c, 3, 66, 64
1, 74708, Note_off_c, 3, 62, 64
1, 74711, Note_off_c, 3, 58, 64
1, 74740, Note_on_c, 3, 66, 120
1, 74743, Note_on_c, 3, 62, 78
1, 74745, Note_on_c, 3, 58, 99
1, 74773, Note_off_c, 3, 66, 64
1, 74778, Note_off_c, 3, 62, 64
1, 74790, Note_off_c, 3, 58, 64
1, 74810, Note_off_c, 1, 34, 64
1, 74880, Note_on_c, 1, 40, 120
1, 74893, Note_on_c, 7, 61, 98
1, 74909, Note_on_c, 2, 69, 98
1, 74911, Note_on_c, 2, 77, 98
1, 74926, Note_on_c, 2, 50, 109
1, 75011, Note_off_c, 7, 61, 64
1, 75016, Note_off_c, 2, 50, 64
1, 75032, Note_off_c, 2, 69, 64
1, 75061, Note_off_c, 2, 77, 64
1, 75065, Note_off_c, 1, 40, 64
1, 75120, Note_on_c, 1, 34, 120
1, 75125, Note_on_c, 3, 64, 104
1, 75125, Note_on_c, 3, 60, 106
1, 75128, Note_on_c, 3, 68, 110
1, 75163, Note_off_c, 3, 68, 64
1, 75168, Note_off_c, 3, 64, 64
1, 75170, Note_off_c, 3, 60, 64
1, 75215, Note_on_c, 3, 64, 85
1, 75215, Note_on_c, 3, 68, 110
1, 75215, Note_on_c, 3, 60, 99
1, 75245, Note_off_c, 3, 68, 64
1, 75250, Note_off_c, 3, 64, 64
1, 75255, Note_off_c, 3, 60, 64
1, 75285, Note_on_c, 3, 68, 85
1, 75285, Note_on_c, 3, 64, 89
1, 75290, Note_on_c, 3, 60, 89
1, 75298, Note_off_c, 1, 34, 64
1, 75323, Note_off_c, 3, 68, 64
1, 75328, Note_off_c, 3, 64, 64
1, 75333, Note_off_c, 3, 60, 64
1, 75360, Note_on_c, 1, 40, 120
1, 75368, Note_on_c, 3, 65, 68
1, 75370, Note_on_c, 3, 69, 76
1, 75373, Note_on_c, 3, 61, 110
1, 75406, Note_off_c, 3, 65, 64
1, 75410, Note_off_c, 3, 69, 64
1, 75411, Note_off_c, 3, 61, 64
1, 75445, Note_on_c, 3, 65, 74
1, 75445, Note_on_c, 3, 69, 74
1, 75453, Note_on_c, 3, 61, 106
1, 75480, Note_off_c, 3, 69, 64
1, 75483, Note_off_c, 3, 61, 64
1, 75485, Note_off_c, 3, 65, 64
1, 75518, Note_off_c, 1, 40, 64
1, 75523, Note_on_c, 3, 61, 118
1, 75523, Note_on_c, 3, 65, 76
1, 75523, Note_on_c, 3, 69, 76
1, 75558, Note_off_c, 3, 69, 64
1, 75561, Note_off_c, 3, 65, 64
1, 75563, Note_off_c, 3, 61, 64
1, 75600, Note_on_c, 1, 34, 120
1, 75615, Note_on_c, 3, 58, 99
1, 75618, Note_on_c, 3, 66, 120
1, 75620, Note_on_c, 3, 62, 97
1, 75651, Note_off_c, 3, 66, 64
1, 75655, Note_off_c, 3, 58, 64
1, 75660, Note_off_c, 3, 62, 64
1, 75693, Note_on_c, 3, 66, 104
1, 75693, Note_on_c, 3, 62, 64
1, 75698, Note_on_c, 3, 58, 118
1, 75723, Note_off_c, 3, 66, 64
1, 75726, Note_off_c, 3, 62, 64
1, 75731, Note_off_c, 3, 58, 64
1, 75755, Note_off_c, 1, 34, 64
1, 75763, Note_on_c, 3, 62, 74
1, 75765, Note_on_c, 3, 66, 116
1, 75770, Note_on_c, 3, 58, 102
1, 75813, Note_off_c, 3, 66, 64
1, 75815, Note_off_c, 3, 58, 64
1, 75816, Note_off_c, 3, 62, 64
1, 75840, Note_on_c, 1, 40, 120
1, 75851, Note_on_c, 2, 69, 109
1, 75856, Note_on_c, 2, 77, 109
1, 75858, Note_on_c, 7, 61, 98
1, 75884, Note_on_c, 2, 50, 120
1, 75973, Note_off_c, 7, 61, 64
1, 75984, Note_off_c, 2, 69, 64
1, 75984, Note_off_c, 2, 50, 64
1, 75985, Note_off_c, 1, 40, 64
1, 75996, Note_off_c, 2, 77, 64
1, 76080, Note_on_c, 1, 34, 91
1, 76090, Note_on_c, 3, 68, 120
1, 76090, Note_on_c, 3, 64, 95
1, 76093, Note_on_c, 3, 60, 95
1, 76128, Note_off_c, 3, 68, 64
1, 76130, Note_off_c, 3, 64, 64
1, 76136, Note_off_c, 3, 60, 64
1, 76175, Note_on_c, 3, 64, 95
1, 76175, Note_on_c, 3, 68, 93
1, 76178, Note_on_c, 3, 60, 99
1, 76205, Note_off_c, 3, 68, 64
1, 76211, Note_off_c, 3, 60, 64
1, 76213, Note_off_c, 3, 64, 64
1, 76243, Note_off_c, 1, 34, 64
1, 76243, Note_on_c, 3, 68, 95
1, 76243, Note_on_c, 3, 64, 95
1, 76248, Note_on_c, 3, 60, 78
1, 76278, Note_off_c, 3, 68, 64
1, 76283, Note_off_c, 3, 64, 64
1, 76288, Note_off_c, 3, 60, 64
1, 76320, Note_on_c, 1, 40, 120
1, 76333, Note_on_c, 3, 61, 120
1, 76333, Note_on_c, 3, 65, 89
1, 76335, Note_on_c, 3, 69, 91
1, 76368, Note_off_c, 3, 69, 64
1, 76371, Note_off_c, 3, 65, 64
1, 76376, Note_off_c, 3, 61, 64
1, 76410, Note_on_c, 3, 65, 78
1, 76410, Note_on_c, 3, 69, 85
1, 76418, Note_on_c, 3, 61, 106
1, 76443, Note_off_c, 3, 69, 64
1, 76445, Note_off_c, 3, 65, 64
1, 76448, Note_off_c, 3, 61, 64
1, 76470, Note_off_c, 1, 40, 64
1, 76485, Note_on_c, 3, 65, 78
1, 76488, Note_on_c, 3, 61, 118
1, 76488, Note_on_c, 3, 69, 95
1, 76521, Note_off_c, 3, 69, 64
1, 76525, Note_off_c, 3, 65, 64
1, 76528, Note_off_c, 3, 61, 64
1, 76560, Note_on_c, 1, 34, 120
1, 76583, Note_on_c, 3, 66, 120
1, 76583, Note_on_c, 3, 62, 99
1, 76588, Note_on_c, 3, 58, 120
1, 76621, Note_off_c, 3, 66, 64
1, 76628, Note_off_c, 3, 62, 64
1, 76631, Note_off_c, 3, 58, 64
1, 76660, Note_on_c, 3, 66, 120
1, 76663, Note_on_c, 3, 62, 78
1, 76665, Note_on_c, 3, 58, 99
1, 76693, Note_off_c, 3, 66, 64
1, 76698, Note_off_c, 3, 62, 64
1, 76710, Note_off_c, 3, 58, 64
1, 76730, Note_off_c, 1, 34, 64
1, 76730, Note_on_c, 3, 66, 112
1, 76730, Note_on_c, 3, 62, 95
1, 76733, Note_on_c, 3, 58, 120
1, 76773, Note_off_c, 3, 66, 64
1, 76776, Note_off_c, 3, 58, 64
1, 76780, Note_off_c, 3, 62, 64
1, 76800, Program_c, 9, 0
1, 76800, Note_on_c, 1, 42, 120
1, 76800, Program_c, 3, 61
1, 76800, Control_c, 5, 7, 70
1, 76800, Control_c, 0, 7, 90
1, 76800, Control_c, 9, 7, 70
1, 76800, Control_c, 3, 7, 90
1, 76835, Note_on_c, 5, 42, 73
1, 76835, Note_on_c, 0, 54, 88
1, 76835, Note_on_c, 3, 49, 120
1, 76840, Note_on_c, 9, 49, 95
1, 76938, Note_off_c, 1, 42, 64
1, 77040, Note_on_c, 1, 42, 100
1, 77113, Note_off_c, 3, 49, 64
1, 77141, Note_off_c, 5, 42, 64
1, 77143, Note_off_c, 9, 49, 64
1, 77198, Note_off_c, 1, 42, 64
1, 77245, Note_off_c, 0, 54, 64
1, 77280, Note_on_c, 1, 42, 100
1, 77298, Note_on_c, 9, 49, 85
1, 77320, Note_on_c, 3, 49, 120
1, 77323, Note_on_c, 5, 42, 59
1, 77323, Note_on_c, 0, 54, 88
1, 77427, Note_off_c, 3, 49, 64
1, 77428, Note_off_c, 1, 42, 64
1, 77457, Note_off_c, 5, 42, 64
1, 77493, Note_off_c, 0, 54, 64
1, 77520, Note_on_c, 1, 42, 100
1, 77543, Note_off_c, 9, 49, 64
1, 77543, Note_on_c, 3, 49, 120
1, 77545, Note_on_c, 5, 42, 76
1, 77545, Note_on_c, 0, 54, 88
1, 77550, Note_on_c, 9, 49, 72
1, 77678, Note_off_c, 1, 42, 64
1, 77760, Note_on_c, 1, 42, 100
1, 77779, Note_off_c, 3, 49, 64
1, 77804, Note_off_c, 9, 49, 64
1, 77823, Note_off_c, 5, 42, 64
1, 77908, Note_off_c, 1, 42, 64
1, 77969, Note_off_c, 0, 54, 64
1, 78000, Note_on_c, 1, 42, 100
1, 78013, Note_on_c, 9, 49, 85
1, 78033, Note_on_c, 3, 49, 120
1, 78038, Note_on_c, 5, 42, 76
1, 78038, Note_on_c, 0, 54, 88
1, 78158, Note_off_c, 1, 42, 64
1, 78227, Note_off_c, 9, 49, 64
1, 78240, Note_on_c, 1, 42, 100
1, 78283, Note_off_c, 3, 49, 64
1, 78302, Note_off_c, 5, 42, 64
1, 78390, Note_off_c, 1, 42, 64
1, 78448, Note_off_c, 0, 54, 64
1, 78480, Note_on_c, 1, 42, 100
1, 78488, Note_on_c, 9, 49, 78
1, 78495, Note_on_c, 3, 49, 120
1, 78503, Note_on_c, 5, 42, 88
1, 78503, Note_on_c, 0, 54, 92
1, 78615, Note_off_c, 1, 42, 64
1, 78717, Note_off_c, 3, 49, 64
1, 78720, Note_on_c, 1, 42, 100
1, 78722, Note_off_c, 9, 49, 64
1, 78795, Note_off_c, 5, 42, 64
1, 78858, Note_off_c, 1, 42, 64
1, 78941, Note_off_c, 0, 54, 64
1, 78943, Note_on_c, 9, 49, 64
1, 78960, Note_on_c, 1, 42, 100
1, 78983, Note_on_c, 3, 49, 120
1, 78983, Note_on_c, 5, 42, 88
1, 78983, Note_on_c, 0, 54, 92
1, 79023, Note_on_c, 8, 86, 76
1, 79056, Note_off_c, 8, 86, 64
1, 79065, Note_on_c, 8, 88, 11
1, 79118, Note_off_c, 1, 42, 64
1, 79120, Note_off_c, 8, 88, 64
1, 79128, Note_on_c, 8, 89, 36
1, 79156, Note_off_c, 8, 89, 64
1, 79170, Note_on_c, 8, 91, 52
1, 79185, Note_off_c, 9, 49, 64
1, 79200, Note_off_c, 8, 91, 64
1, 79200, Note_on_c, 1, 42, 100
1, 79210, Note_on_c, 8, 93, 52
1, 79240, Note_off_c, 8, 93, 64
1, 79245, Note_on_c, 8, 95, 71
1, 79261, Note_off_c, 3, 49, 64
1, 79261, Note_off_c, 5, 42, 64
1, 79275, Note_off_c, 8, 95, 64
1, 79285, Note_on_c, 8, 84, 62
1, 79318, Note_off_c, 8, 84, 64
1, 79345, Note_off_c, 1, 42, 64
1, 79407, Note_off_c, 0, 54, 64
1, 79440, Note_on_c, 1, 42, 100
1, 79453, Note_on_c, 9, 49, 85
1, 79473, Note_on_c, 3, 49, 120
1, 79478, Note_on_c, 5, 42, 76
1, 79478, Note_on_c, 0, 54, 88
1, 79598, Note_off_c, 1, 42, 64
1, 79667, Note_off_c, 9, 49, 64
1, 79680, Note_on_c, 1, 42, 100
1, 79723, Note_off_c, 3, 49, 64
1, 79798, Note_off_c, 5, 42, 64
1, 79830, Note_off_c, 1, 42, 64
1, 79920, Note_on_c, 1, 42, 100
1, 79930, Note_off_c, 0, 54, 64
1, 79938, Note_on_c, 9, 49, 85
1, 79960, Note_on_c, 3, 49, 120
1, 79963, Note_on_c, 5, 42, 76
1, 79963, Note_on_c, 0, 54, 88
1, 80067, Note_off_c, 3, 49, 64
1, 80068, Note_off_c, 1, 42, 64
1, 80069, Note_off_c, 5, 42, 64
1, 80147, Note_off_c, 0, 54, 64
1, 80160, Note_on_c, 1, 42, 100
1, 80173, Note_off_c, 9, 49, 64
1, 80183, Note_on_c, 3, 49, 120
1, 80185, Note_on_c, 5, 42, 75
1, 80185, Note_on_c, 0, 54, 88
1, 80190, Note_on_c, 9, 49, 72
1, 80318, Note_off_c, 1, 42, 64
1, 80400, Note_on_c, 1, 42, 100
1, 80401, Note_off_c, 1, 42, 64
1, 80421, Note_off_c, 5, 42, 64
1, 80447, Note_off_c, 3, 49, 64
1, 80640, Time_signature, 3, 3, 24, 8
1, 80640, Note_on_c, 4, 30, 74
1, 80640, Note_on_c, 7, 42, 74
1, 80640, Note_on_c, 2, 42, 74
1, 80640, Note_on_c, 2, 54, 74
1, 80640, Note_on_c, 1, 42, 74
1, 80693, Note_off_c, 0, 54, 64
1, 81344, Note_off_c, 9, 49, 64
1, 81360, Time_signature, 4, 2, 24, 8
1, 82656, Note_off_c, 1, 42, 64
1, 83320, Note_off_c, 2, 42, 64
1, 83320, Note_off_c, 2, 54, 64
1, 83388, Note_off_c, 7, 42, 64
1, 83648, Note_off_c, 4, 30, 64
1, 85200, End_track
0, 0, End_of_file
