1, 0, Note_off_c, 60
1, 0, Note_off_c, 80
1, 0, Note_off_c, 73
1, 0, Note_off_c, 68
1, 0, Note_off_c, 66
1, 0, Note_off_c, 64
1, 4, Note_on_c, 56
1, 4, Note_on_c, 61
1, 4, Note_on_c, 66
1, 4, Note_on_c, 56
1, 4, Note_on_c, 61
1, 4, Note_on_c, 66
1, 4, Note_on_c, 78
1, 4, Note_on_c, 32
1, 4, Note_on_c, 78
1, 4, Note_on_c, 48
1, 240, Note_off_c, 78
1, 240, Note_off_c, 32
1, 240, Note_off_c, 78
1, 240, Note_off_c, 66
1, 240, Note_off_c, 61
1, 240, Note_off_c, 56
1, 240, Note_off_c, 66
1, 240, Note_off_c, 61
1, 240, Note_off_c, 56
1, 244, Note_on_c, 56
1, 244, Note_on_c, 61
1, 244, Note_on_c, 64
1, 244, Note_on_c, 56
1, 244, Note_on_c, 61
1, 244, Note_on_c, 64
1, 244, Note_on_c, 76
1, 244, Note_on_c, 76
1, 480, Note_off_c, 76
1, 480, Note_off_c, 76
1, 480, Note_off_c, 64
1, 480, Note_off_c, 61
1, 480, Note_off_c, 56
1, 480, Note_off_c, 64
1, 480, Note_off_c, 61
1, 480, Note_off_c, 56
1, 484, Note_on_c, 56
1, 484, Note_on_c, 61
1, 484, Note_on_c, 64
1, 484, Note_on_c, 56
1, 484, Note_on_c, 61
1, 484, Note_on_c, 64
1, 484, Note_on_c, 76
1, 484, Note_on_c, 32
1, 484, Note_on_c, 76
1, 720, Note_off_c, 76
1, 720, Note_off_c, 32
1, 720, Note_off_c, 76
1, 720, Note_off_c, 64
1, 720, Note_off_c, 61
1, 720, Note_off_c, 56
1, 720, Note_off_c, 64
1, 720, Note_off_c, 61
1, 720, Note_off_c, 56
1, 960, Note_off_c, 48
1, 964, Note_on_c, 56
1, 964, Note_on_c, 59
1, 964, Note_on_c, 64
1, 964, Note_on_c, 56
1, 964, Note_on_c, 59
1, 964, Note_on_c, 64
1, 964, Note_on_c, 76
1, 964, Note_on_c, 32
1, 964, Note_on_c, 76
1, 1200, Note_off_c, 76
1, 1200, Note_off_c, 32
1, 1200, Note_off_c, 76
1, 1200, Note_off_c, 64
1, 1200, Note_off_c, 59
1, 1200, Note_off_c, 56
1, 1200, Note_off_c, 64
1, 1200, Note_off_c, 59
1, 1200, Note_off_c, 56
1, 1204, Note_on_c, 56
1, 1204, Note_on_c, 59
1, 1204, Note_on_c, 64
1, 1204, Note_on_c, 56
1, 1204, Note_on_c, 59
1, 1204, Note_on_c, 64
1, 1204, Note_on_c, 76
1, 1204, Note_on_c, 76
1, 1440, Note_off_c, 76
1, 1440, Note_off_c, 76
1, 1440, Note_off_c, 64
1, 1440, Note_off_c, 59
1, 1440, Note_off_c, 56
1, 1440, Note_off_c, 64
1, 1440, Note_off_c, 59
1, 1440, Note_off_c, 56
1, 1444, Note_on_c, 56
1, 1444, Note_on_c, 59
1, 1444, Note_on_c, 64
1, 1444, Note_on_c, 56
1, 1444, Note_on_c, 59
1, 1444, Note_on_c, 64
1, 1444, Note_on_c, 76
1, 1444, Note_on_c, 32
1, 1444, Note_on_c, 76
1, 1680, Note_off_c, 76
1, 1680, Note_off_c, 32
1, 1680, Note_off_c, 76
1, 1680, Note_off_c, 64
1, 1680, Note_off_c, 59
1, 1680, Note_off_c, 56
1, 1680, Note_off_c, 64
1, 1680, Note_off_c, 59
1, 1680, Note_off_c, 56
1, 1684, Note_on_c, 56
1, 1684, Note_on_c, 59
1, 1684, Note_on_c, 64
1, 1684, Note_on_c, 56
1, 1684, Note_on_c, 59
1, 1684, Note_on_c, 64
1, 1684, Note_on_c, 76
1, 1684, Note_on_c, 76
1, 1920, Note_off_c, 76
1, 1920, Note_off_c, 76
1, 1920, Note_off_c, 64
1, 1920, Note_off_c, 59
1, 1920, Note_off_c, 56
1, 1920, Note_off_c, 64
1, 1920, Note_off_c, 59
1, 1920, Note_off_c, 56
1, 1924, Note_on_c, 54
1, 1924, Note_on_c, 59
1, 1924, Note_on_c, 63
1, 1924, Note_on_c, 54
1, 1924, Note_on_c, 59
1, 1924, Note_on_c, 63
1, 1924, Note_on_c, 75
1, 1924, Note_on_c, 32
1, 1924, Note_on_c, 75
1, 2160, Note_off_c, 75
1, 2160, Note_off_c, 32
1, 2160, Note_off_c, 75
1, 2160, Note_off_c, 63
1, 2160, Note_off_c, 59
1, 2160, Note_off_c, 54
1, 2160, Note_off_c, 63
1, 2160, Note_off_c, 59
1, 2160, Note_off_c, 54
1, 2164, Note_on_c, 54
1, 2164, Note_on_c, 59
1, 2164, Note_on_c, 63
1, 2164, Note_on_c, 54
1, 2164, Note_on_c, 59
1, 2164, Note_on_c, 63
1, 2164, Note_on_c, 75
1, 2164, Note_on_c, 75
1, 2400, Note_off_c, 75
1, 2400, Note_off_c, 75
1, 2400, Note_off_c, 63
1, 2400, Note_off_c, 59
1, 2400, Note_off_c, 54
1, 2400, Note_off_c, 63
1, 2400, Note_off_c, 59
1, 2400, Note_off_c, 54
1, 2404, Note_on_c, 54
1, 2404, Note_on_c, 59
1, 2404, Note_on_c, 63
1, 2404, Note_on_c, 54
1, 2404, Note_on_c, 59
1, 2404, Note_on_c, 63
1, 2404, Note_on_c, 76
1, 2404, Note_on_c, 32
1, 2404, Note_on_c, 76
1, 2640, Note_off_c, 76
1, 2640, Note_off_c, 32
1, 2640, Note_off_c, 76
1, 2640, Note_off_c, 63
1, 2640, Note_off_c, 59
1, 2640, Note_off_c, 54
1, 2640, Note_off_c, 63
1, 2640, Note_off_c, 59
1, 2640, Note_off_c, 54
1, 2644, Note_on_c, 52
1, 2644, Note_on_c, 57
1, 2644, Note_on_c, 61
1, 2644, Note_on_c, 52
1, 2644, Note_on_c, 57
1, 2644, Note_on_c, 61
1, 2644, Note_on_c, 76
1, 2644, Note_on_c, 29
1, 2644, Note_on_c, 76
1, 2880, Note_off_c, 76
1, 2880, Note_off_c, 29
1, 2880, Note_off_c, 76
1, 2880, Note_off_c, 61
1, 2880, Note_off_c, 57
1, 2880, Note_off_c, 52
1, 2880, Note_off_c, 61
1, 2880, Note_off_c, 57
1, 2880, Note_off_c, 52
1, 2884, Note_on_c, 32
1, 3120, Note_off_c, 32
1, 3124, Note_on_c, 52
1, 3124, Note_on_c, 57
1, 3124, Note_on_c, 61
1, 3124, Note_on_c, 52
1, 3124, Note_on_c, 57
1, 3124, Note_on_c, 61
1, 3124, Note_on_c, 85
1, 3124, Note_on_c, 85
1, 3360, Note_off_c, 85
1, 3360, Note_off_c, 85
1, 3360, Note_off_c, 61
1, 3360, Note_off_c, 57
1, 3360, Note_off_c, 52
1, 3360, Note_off_c, 61
1, 3360, Note_off_c, 57
1, 3360, Note_off_c, 52
1, 3364, Note_on_c, 52
1, 3364, Note_on_c, 57
1, 3364, Note_on_c, 61
1, 3364, Note_on_c, 52
1, 3364, Note_on_c, 57
1, 3364, Note_on_c, 61
1, 3364, Note_on_c, 83
1, 3364, Note_on_c, 32
1, 3364, Note_on_c, 83
1, 3600, Note_off_c, 83
1, 3600, Note_off_c, 32
1, 3600, Note_off_c, 83
1, 3600, Note_off_c, 61
1, 3600, Note_off_c, 57
1, 3600, Note_off_c, 52
1, 3600, Note_off_c, 61
1, 3600, Note_off_c, 57
1, 3600, Note_off_c, 52
1, 3604, Note_on_c, 52
1, 3604, Note_on_c, 57
1, 3604, Note_on_c, 61
1, 3604, Note_on_c, 52
1, 3604, Note_on_c, 57
1, 3604, Note_on_c, 61
1, 3604, Note_on_c, 80
1, 3604, Note_on_c, 80
1, 3840, Note_off_c, 80
1, 3840, Note_off_c, 80
1, 3840, Note_off_c, 61
1, 3840, Note_off_c, 57
1, 3840, Note_off_c, 52
1, 3840, Note_off_c, 61
1, 3840, Note_off_c, 57
1, 3840, Note_off_c, 52
1, 3844, Note_on_c, 56
1, 3844, Note_on_c, 61
1, 3844, Note_on_c, 66
1, 3844, Note_on_c, 56
1, 3844, Note_on_c, 61
1, 3844, Note_on_c, 66
1, 3844, Note_on_c, 78
1, 3844, Note_on_c, 32
1, 3844, Note_on_c, 78
1, 4080, Note_off_c, 78
1, 4080, Note_off_c, 32
1, 4080, Note_off_c, 78
1, 4080, Note_off_c, 66
1, 4080, Note_off_c, 61
1, 4080, Note_off_c, 56
1, 4080, Note_off_c, 66
1, 4080, Note_off_c, 61
1, 4080, Note_off_c, 56
1, 4084, Note_on_c, 56
1, 4084, Note_on_c, 61
1, 4084, Note_on_c, 64
1, 4084, Note_on_c, 56
1, 4084, Note_on_c, 61
1, 4084, Note_on_c, 64
1, 4084, Note_on_c, 76
1, 4084, Note_on_c, 76
1, 4320, Note_off_c, 76
1, 4320, Note_off_c, 76
1, 4320, Note_off_c, 64
1, 4320, Note_off_c, 61
1, 4320, Note_off_c, 56
1, 4320, Note_off_c, 64
1, 4320, Note_off_c, 61
1, 4320, Note_off_c, 56
1, 4324, Note_on_c, 56
1, 4324, Note_on_c, 61
1, 4324, Note_on_c, 64
1, 4324, Note_on_c, 56
1, 4324, Note_on_c, 61
1, 4324, Note_on_c, 64
1, 4324, Note_on_c, 76
1, 4324, Note_on_c, 32
1, 4324, Note_on_c, 76
1, 4560, Note_off_c, 76
1, 4560, Note_off_c, 32
1, 4560, Note_off_c, 76
1, 4560, Note_off_c, 64
1, 4560, Note_off_c, 61
1, 4560, Note_off_c, 56
1, 4560, Note_off_c, 64
1, 4560, Note_off_c, 61
1, 4560, Note_off_c, 56
1, 4804, Note_on_c, 56
1, 4804, Note_on_c, 59
1, 4804, Note_on_c, 64
1, 4804, Note_on_c, 56
1, 4804, Note_on_c, 59
1, 4804, Note_on_c, 64
1, 4804, Note_on_c, 76
1, 4804, Note_on_c, 32
1, 4804, Note_on_c, 76
1, 5040, Note_off_c, 76
1, 5040, Note_off_c, 32
1, 5040, Note_off_c, 76
1, 5040, Note_off_c, 64
1, 5040, Note_off_c, 59
1, 5040, Note_off_c, 56
1, 5040, Note_off_c, 64
1, 5040, Note_off_c, 59
1, 5040, Note_off_c, 56
1, 5044, Note_on_c, 56
1, 5044, Note_on_c, 59
1, 5044, Note_on_c, 64
1, 5044, Note_on_c, 56
1, 5044, Note_on_c, 59
1, 5044, Note_on_c, 64
1, 5044, Note_on_c, 76
1, 5044, Note_on_c, 76
1, 5280, Note_off_c, 76
1, 5280, Note_off_c, 76
1, 5280, Note_off_c, 64
1, 5280, Note_off_c, 59
1, 5280, Note_off_c, 56
1, 5280, Note_off_c, 64
1, 5280, Note_off_c, 59
1, 5280, Note_off_c, 56
1, 5284, Note_on_c, 56
1, 5284, Note_on_c, 59
1, 5284, Note_on_c, 64
1, 5284, Note_on_c, 56
1, 5284, Note_on_c, 59
1, 5284, Note_on_c, 64
1, 5284, Note_on_c, 76
1, 5284, Note_on_c, 32
1, 5284, Note_on_c, 76
1, 5520, Note_off_c, 76
1, 5520, Note_off_c, 32
1, 5520, Note_off_c, 76
1, 5520, Note_off_c, 64
1, 5520, Note_off_c, 59
1, 5520, Note_off_c, 56
1, 5520, Note_off_c, 64
1, 5520, Note_off_c, 59
1, 5520, Note_off_c, 56
1, 5524, Note_on_c, 56
1, 5524, Note_on_c, 59
1, 5524, Note_on_c, 64
1, 5524, Note_on_c, 56
1, 5524, Note_on_c, 59
1, 5524, Note_on_c, 64
1, 5524, Note_on_c, 76
1, 5524, Note_on_c, 76
1, 5760, Note_off_c, 76
1, 5760, Note_off_c, 76
1, 5760, Note_off_c, 64
1, 5760, Note_off_c, 59
1, 5760, Note_off_c, 56
1, 5760, Note_off_c, 64
1, 5760, Note_off_c, 59
1, 5760, Note_off_c, 56
1, 5764, Note_on_c, 54
1, 5764, Note_on_c, 59
1, 5764, Note_on_c, 63
1, 5764, Note_on_c, 54
1, 5764, Note_on_c, 59
1, 5764, Note_on_c, 63
1, 5764, Note_on_c, 73
1, 5764, Note_on_c, 32
1, 5764, Note_on_c, 73
1, 6000, Note_off_c, 73
1, 6000, Note_off_c, 32
1, 6000, Note_off_c, 73
1, 6000, Note_off_c, 63
1, 6000, Note_off_c, 59
1, 6000, Note_off_c, 54
1, 6000, Note_off_c, 63
1, 6000, Note_off_c, 59
1, 6000, Note_off_c, 54
1, 6004, Note_on_c, 54
1, 6004, Note_on_c, 59
1, 6004, Note_on_c, 63
1, 6004, Note_on_c, 54
1, 6004, Note_on_c, 59
1, 6004, Note_on_c, 63
1, 6004, Note_on_c, 73
1, 6004, Note_on_c, 73
1, 6240, Note_off_c, 73
1, 6240, Note_off_c, 73
1, 6240, Note_off_c, 63
1, 6240, Note_off_c, 59
1, 6240, Note_off_c, 54
1, 6240, Note_off_c, 63
1, 6240, Note_off_c, 59
1, 6240, Note_off_c, 54
1, 6244, Note_on_c, 54
1, 6244, Note_on_c, 59
1, 6244, Note_on_c, 63
1, 6244, Note_on_c, 54
1, 6244, Note_on_c, 59
1, 6244, Note_on_c, 63
1, 6244, Note_on_c, 71
1, 6244, Note_on_c, 32
1, 6244, Note_on_c, 71
1, 6480, Note_off_c, 71
1, 6480, Note_off_c, 32
1, 6480, Note_off_c, 71
1, 6480, Note_off_c, 63
1, 6480, Note_off_c, 59
1, 6480, Note_off_c, 54
1, 6480, Note_off_c, 63
1, 6480, Note_off_c, 59
1, 6480, Note_off_c, 54
1, 6484, Note_on_c, 52
1, 6484, Note_on_c, 57
1, 6484, Note_on_c, 61
1, 6484, Note_on_c, 52
1, 6484, Note_on_c, 57
1, 6484, Note_on_c, 61
1, 6484, Note_on_c, 71
1, 6484, Note_on_c, 29
1, 6484, Note_on_c, 71
1, 6720, Note_off_c, 71
1, 6720, Note_off_c, 29
1, 6720, Note_off_c, 71
1, 6720, Note_off_c, 61
1, 6720, Note_off_c, 57
1, 6720, Note_off_c, 52
1, 6720, Note_off_c, 61
1, 6720, Note_off_c, 57
1, 6720, Note_off_c, 52
1, 6724, Note_on_c, 32
1, 6960, Note_off_c, 32
1, 6964, Note_on_c, 52
1, 6964, Note_on_c, 57
1, 6964, Note_on_c, 61
1, 6964, Note_on_c, 52
1, 6964, Note_on_c, 57
1, 6964, Note_on_c, 61
1, 6964, Note_on_c, 85
1, 6964, Note_on_c, 85
1, 7200, Note_off_c, 85
1, 7200, Note_off_c, 85
1, 7200, Note_off_c, 61
1, 7200, Note_off_c, 57
1, 7200, Note_off_c, 52
1, 7200, Note_off_c, 61
1, 7200, Note_off_c, 57
1, 7200, Note_off_c, 52
1, 7204, Note_on_c, 52
1, 7204, Note_on_c, 57
1, 7204, Note_on_c, 61
1, 7204, Note_on_c, 52
1, 7204, Note_on_c, 57
1, 7204, Note_on_c, 61
1, 7204, Note_on_c, 83
1, 7204, Note_on_c, 32
1, 7204, Note_on_c, 83
1, 7440, Note_off_c, 83
1, 7440, Note_off_c, 32
1, 7440, Note_off_c, 83
1, 7440, Note_off_c, 61
1, 7440, Note_off_c, 57
1, 7440, Note_off_c, 52
1, 7440, Note_off_c, 61
1, 7440, Note_off_c, 57
1, 7440, Note_off_c, 52
1, 7444, Note_on_c, 52
1, 7444, Note_on_c, 57
1, 7444, Note_on_c, 61
1, 7444, Note_on_c, 52
1, 7444, Note_on_c, 57
1, 7444, Note_on_c, 61
1, 7444, Note_on_c, 80
1, 7444, Note_on_c, 80
1, 7680, Note_off_c, 80
1, 7680, Note_off_c, 80
1, 7680, Note_off_c, 61
1, 7680, Note_off_c, 57
1, 7680, Note_off_c, 52
1, 7680, Note_off_c, 61
1, 7680, Note_off_c, 57
1, 7680, Note_off_c, 52
1, 7684, Note_on_c, 56
1, 7684, Note_on_c, 61
1, 7684, Note_on_c, 66
1, 7684, Note_on_c, 56
1, 7684, Note_on_c, 61
1, 7684, Note_on_c, 66
1, 7684, Note_on_c, 78
1, 7684, Note_on_c, 32
1, 7684, Note_on_c, 78
1, 7920, Note_off_c, 78
1, 7920, Note_off_c, 32
1, 7920, Note_off_c, 78
1, 7920, Note_off_c, 66
1, 7920, Note_off_c, 61
1, 7920, Note_off_c, 56
1, 7920, Note_off_c, 66
1, 7920, Note_off_c, 61
1, 7920, Note_off_c, 56
1, 7924, Note_on_c, 56
1, 7924, Note_on_c, 61
1, 7924, Note_on_c, 64
1, 7924, Note_on_c, 56
1, 7924, Note_on_c, 61
1, 7924, Note_on_c, 64
1, 7924, Note_on_c, 76
1, 7924, Note_on_c, 76
1, 8160, Note_off_c, 76
1, 8160, Note_off_c, 76
1, 8160, Note_off_c, 64
1, 8160, Note_off_c, 61
1, 8160, Note_off_c, 56
1, 8160, Note_off_c, 64
1, 8160, Note_off_c, 61
1, 8160, Note_off_c, 56
1, 8164, Note_on_c, 56
1, 8164, Note_on_c, 61
1, 8164, Note_on_c, 64
1, 8164, Note_on_c, 56
1, 8164, Note_on_c, 61
1, 8164, Note_on_c, 64
1, 8164, Note_on_c, 76
1, 8164, Note_on_c, 32
1, 8164, Note_on_c, 76
1, 8400, Note_off_c, 76
1, 8400, Note_off_c, 32
1, 8400, Note_off_c, 76
1, 8400, Note_off_c, 64
1, 8400, Note_off_c, 61
1, 8400, Note_off_c, 56
1, 8400, Note_off_c, 64
1, 8400, Note_off_c, 61
1, 8400, Note_off_c, 56
1, 8644, Note_on_c, 56
1, 8644, Note_on_c, 59
1, 8644, Note_on_c, 64
1, 8644, Note_on_c, 56
1, 8644, Note_on_c, 59
1, 8644, Note_on_c, 64
1, 8644, Note_on_c, 76
1, 8644, Note_on_c, 32
1, 8644, Note_on_c, 76
1, 8880, Note_off_c, 76
1, 8880, Note_off_c, 32
1, 8880, Note_off_c, 76
1, 8880, Note_off_c, 64
1, 8880, Note_off_c, 59
1, 8880, Note_off_c, 56
1, 8880, Note_off_c, 64
1, 8880, Note_off_c, 59
1, 8880, Note_off_c, 56
1, 8884, Note_on_c, 56
1, 8884, Note_on_c, 59
1, 8884, Note_on_c, 64
1, 8884, Note_on_c, 56
1, 8884, Note_on_c, 59
1, 8884, Note_on_c, 64
1, 8884, Note_on_c, 76
1, 8884, Note_on_c, 76
1, 9120, Note_off_c, 76
1, 9120, Note_off_c, 76
1, 9120, Note_off_c, 64
1, 9120, Note_off_c, 59
1, 9120, Note_off_c, 56
1, 9120, Note_off_c, 64
1, 9120, Note_off_c, 59
1, 9120, Note_off_c, 56
1, 9124, Note_on_c, 56
1, 9124, Note_on_c, 59
1, 9124, Note_on_c, 64
1, 9124, Note_on_c, 56
1, 9124, Note_on_c, 59
1, 9124, Note_on_c, 64
1, 9124, Note_on_c, 76
1, 9124, Note_on_c, 32
1, 9124, Note_on_c, 76
1, 9360, Note_off_c, 76
1, 9360, Note_off_c, 32
1, 9360, Note_off_c, 76
1, 9360, Note_off_c, 64
1, 9360, Note_off_c, 59
1, 9360, Note_off_c, 56
1, 9360, Note_off_c, 64
1, 9360, Note_off_c, 59
1, 9360, Note_off_c, 56
1, 9364, Note_on_c, 56
1, 9364, Note_on_c, 59
1, 9364, Note_on_c, 64
1, 9364, Note_on_c, 56
1, 9364, Note_on_c, 59
1, 9364, Note_on_c, 64
1, 9364, Note_on_c, 76
1, 9364, Note_on_c, 76
1, 9600, Note_off_c, 76
1, 9600, Note_off_c, 76
1, 9600, Note_off_c, 64
1, 9600, Note_off_c, 59
1, 9600, Note_off_c, 56
1, 9600, Note_off_c, 64
1, 9600, Note_off_c, 59
1, 9600, Note_off_c, 56
1, 9604, Note_on_c, 54
1, 9604, Note_on_c, 59
1, 9604, Note_on_c, 63
1, 9604, Note_on_c, 54
1, 9604, Note_on_c, 59
1, 9604, Note_on_c, 63
1, 9604, Note_on_c, 75
1, 9604, Note_on_c, 32
1, 9604, Note_on_c, 75
1, 9840, Note_off_c, 75
1, 9840, Note_off_c, 32
1, 9840, Note_off_c, 75
1, 9840, Note_off_c, 63
1, 9840, Note_off_c, 59
1, 9840, Note_off_c, 54
1, 9840, Note_off_c, 63
1, 9840, Note_off_c, 59
1, 9840, Note_off_c, 54
1, 9844, Note_on_c, 54
1, 9844, Note_on_c, 59
1, 9844, Note_on_c, 63
1, 9844, Note_on_c, 54
1, 9844, Note_on_c, 59
1, 9844, Note_on_c, 63
1, 9844, Note_on_c, 75
1, 9844, Note_on_c, 75
1, 10080, Note_off_c, 75
1, 10080, Note_off_c, 75
1, 10080, Note_off_c, 63
1, 10080, Note_off_c, 59
1, 10080, Note_off_c, 54
1, 10080, Note_off_c, 63
1, 10080, Note_off_c, 59
1, 10080, Note_off_c, 54
1, 10084, Note_on_c, 54
1, 10084, Note_on_c, 59
1, 10084, Note_on_c, 63
1, 10084, Note_on_c, 54
1, 10084, Note_on_c, 59
1, 10084, Note_on_c, 63
1, 10084, Note_on_c, 76
1, 10084, Note_on_c, 32
1, 10084, Note_on_c, 76
1, 10320, Note_off_c, 76
1, 10320, Note_off_c, 32
1, 10320, Note_off_c, 76
1, 10320, Note_off_c, 63
1, 10320, Note_off_c, 59
1, 10320, Note_off_c, 54
1, 10320, Note_off_c, 63
1, 10320, Note_off_c, 59
1, 10320, Note_off_c, 54
1, 10324, Note_on_c, 52
1, 10324, Note_on_c, 57
1, 10324, Note_on_c, 61
1, 10324, Note_on_c, 52
1, 10324, Note_on_c, 57
1, 10324, Note_on_c, 61
1, 10324, Note_on_c, 76
1, 10324, Note_on_c, 29
1, 10324, Note_on_c, 76
1, 10560, Note_off_c, 76
1, 10560, Note_off_c, 29
1, 10560, Note_off_c, 76
1, 10560, Note_off_c, 61
1, 10560, Note_off_c, 57
1, 10560, Note_off_c, 52
1, 10560, Note_off_c, 61
1, 10560, Note_off_c, 57
1, 10560, Note_off_c, 52
1, 10564, Note_on_c, 32
1, 10800, Note_off_c, 32
1, 10804, Note_on_c, 52
1, 10804, Note_on_c, 57
1, 10804, Note_on_c, 61
1, 10804, Note_on_c, 52
1, 10804, Note_on_c, 57
1, 10804, Note_on_c, 61
1, 10804, Note_on_c, 85
1, 10804, Note_on_c, 85
1, 11040, Note_off_c, 85
1, 11040, Note_off_c, 85
1, 11040, Note_off_c, 61
1, 11040, Note_off_c, 57
1, 11040, Note_off_c, 52
1, 11040, Note_off_c, 61
1, 11040, Note_off_c, 57
1, 11040, Note_off_c, 52
1, 11044, Note_on_c, 52
1, 11044, Note_on_c, 57
1, 11044, Note_on_c, 61
1, 11044, Note_on_c, 52
1, 11044, Note_on_c, 57
1, 11044, Note_on_c, 61
1, 11044, Note_on_c, 83
1, 11044, Note_on_c, 32
1, 11044, Note_on_c, 83
1, 11280, Note_off_c, 83
1, 11280, Note_off_c, 32
1, 11280, Note_off_c, 83
1, 11280, Note_off_c, 61
1, 11280, Note_off_c, 57
1, 11280, Note_off_c, 52
1, 11280, Note_off_c, 61
1, 11280, Note_off_c, 57
1, 11280, Note_off_c, 52
1, 11284, Note_on_c, 52
1, 11284, Note_on_c, 57
1, 11284, Note_on_c, 61
1, 11284, Note_on_c, 52
1, 11284, Note_on_c, 57
1, 11284, Note_on_c, 61
1, 11284, Note_on_c, 80
1, 11284, Note_on_c, 80
1, 11520, Note_off_c, 80
1, 11520, Note_off_c, 80
1, 11520, Note_off_c, 61
1, 11520, Note_off_c, 57
1, 11520, Note_off_c, 52
1, 11520, Note_off_c, 61
1, 11520, Note_off_c, 57
1, 11520, Note_off_c, 52
1, 11524, Note_on_c, 56
1, 11524, Note_on_c, 61
1, 11524, Note_on_c, 66
1, 11524, Note_on_c, 56
1, 11524, Note_on_c, 61
1, 11524, Note_on_c, 66
1, 11524, Note_on_c, 78
1, 11524, Note_on_c, 32
1, 11524, Note_on_c, 78
1, 11760, Note_off_c, 78
1, 11760, Note_off_c, 32
1, 11760, Note_off_c, 78
1, 11760, Note_off_c, 66
1, 11760, Note_off_c, 61
1, 11760, Note_off_c, 56
1, 11760, Note_off_c, 66
1, 11760, Note_off_c, 61
1, 11760, Note_off_c, 56
1, 11764, Note_on_c, 56
1, 11764, Note_on_c, 61
1, 11764, Note_on_c, 64
1, 11764, Note_on_c, 56
1, 11764, Note_on_c, 61
1, 11764, Note_on_c, 64
1, 11764, Note_on_c, 76
1, 11764, Note_on_c, 76
1, 12000, Note_off_c, 76
1, 12000, Note_off_c, 76
1, 12000, Note_off_c, 64
1, 12000, Note_off_c, 61
1, 12000, Note_off_c, 56
1, 12000, Note_off_c, 64
1, 12000, Note_off_c, 61
1, 12000, Note_off_c, 56
1, 12004, Note_on_c, 56
1, 12004, Note_on_c, 61
1, 12004, Note_on_c, 64
1, 12004, Note_on_c, 56
1, 12004, Note_on_c, 61
1, 12004, Note_on_c, 64
1, 12004, Note_on_c, 76
1, 12004, Note_on_c, 32
1, 12004, Note_on_c, 76
1, 12240, Note_off_c, 76
1, 12240, Note_off_c, 32
1, 12240, Note_off_c, 76
1, 12240, Note_off_c, 64
1, 12240, Note_off_c, 61
1, 12240, Note_off_c, 56
1, 12240, Note_off_c, 64
1, 12240, Note_off_c, 61
1, 12240, Note_off_c, 56
1, 12484, Note_on_c, 56
1, 12484, Note_on_c, 59
1, 12484, Note_on_c, 64
1, 12484, Note_on_c, 56
1, 12484, Note_on_c, 59
1, 12484, Note_on_c, 64
1, 12484, Note_on_c, 76
1, 12484, Note_on_c, 32
1, 12484, Note_on_c, 76
1, 12720, Note_off_c, 76
1, 12720, Note_off_c, 32
1, 12720, Note_off_c, 76
1, 12720, Note_off_c, 64
1, 12720, Note_off_c, 59
1, 12720, Note_off_c, 56
1, 12720, Note_off_c, 64
1, 12720, Note_off_c, 59
1, 12720, Note_off_c, 56
1, 12724, Note_on_c, 56
1, 12724, Note_on_c, 59
1, 12724, Note_on_c, 64
1, 12724, Note_on_c, 56
1, 12724, Note_on_c, 59
1, 12724, Note_on_c, 64
1, 12724, Note_on_c, 76
1, 12724, Note_on_c, 76
1, 12960, Note_off_c, 76
1, 12960, Note_off_c, 76
1, 12960, Note_off_c, 64
1, 12960, Note_off_c, 59
1, 12960, Note_off_c, 56
1, 12960, Note_off_c, 64
1, 12960, Note_off_c, 59
1, 12960, Note_off_c, 56
1, 12964, Note_on_c, 56
1, 12964, Note_on_c, 59
1, 12964, Note_on_c, 64
1, 12964, Note_on_c, 56
1, 12964, Note_on_c, 59
1, 12964, Note_on_c, 64
1, 12964, Note_on_c, 76
1, 12964, Note_on_c, 32
1, 12964, Note_on_c, 76
1, 13200, Note_off_c, 76
1, 13200, Note_off_c, 32
1, 13200, Note_off_c, 76
1, 13200, Note_off_c, 64
1, 13200, Note_off_c, 59
1, 13200, Note_off_c, 56
1, 13200, Note_off_c, 64
1, 13200, Note_off_c, 59
1, 13200, Note_off_c, 56
1, 13204, Note_on_c, 56
1, 13204, Note_on_c, 59
1, 13204, Note_on_c, 64
1, 13204, Note_on_c, 56
1, 13204, Note_on_c, 59
1, 13204, Note_on_c, 64
1, 13204, Note_on_c, 76
1, 13204, Note_on_c, 76
1, 13440, Note_off_c, 76
1, 13440, Note_off_c, 76
1, 13440, Note_off_c, 64
1, 13440, Note_off_c, 59
1, 13440, Note_off_c, 56
1, 13440, Note_off_c, 64
1, 13440, Note_off_c, 59
1, 13440, Note_off_c, 56
1, 13444, Note_on_c, 54
1, 13444, Note_on_c, 59
1, 13444, Note_on_c, 63
1, 13444, Note_on_c, 54
1, 13444, Note_on_c, 59
1, 13444, Note_on_c, 63
1, 13444, Note_on_c, 73
1, 13444, Note_on_c, 32
1, 13444, Note_on_c, 73
1, 13680, Note_off_c, 73
1, 13680, Note_off_c, 32
1, 13680, Note_off_c, 73
1, 13680, Note_off_c, 63
1, 13680, Note_off_c, 59
1, 13680, Note_off_c, 54
1, 13680, Note_off_c, 63
1, 13680, Note_off_c, 59
1, 13680, Note_off_c, 54
1, 13684, Note_on_c, 54
1, 13684, Note_on_c, 59
1, 13684, Note_on_c, 63
1, 13684, Note_on_c, 54
1, 13684, Note_on_c, 59
1, 13684, Note_on_c, 63
1, 13684, Note_on_c, 73
1, 13684, Note_on_c, 73
1, 13920, Note_off_c, 73
1, 13920, Note_off_c, 73
1, 13920, Note_off_c, 63
1, 13920, Note_off_c, 59
1, 13920, Note_off_c, 54
1, 13920, Note_off_c, 63
1, 13920, Note_off_c, 59
1, 13920, Note_off_c, 54
1, 13924, Note_on_c, 54
1, 13924, Note_on_c, 59
1, 13924, Note_on_c, 63
1, 13924, Note_on_c, 54
1, 13924, Note_on_c, 59
1, 13924, Note_on_c, 63
1, 13924, Note_on_c, 71
1, 13924, Note_on_c, 32
1, 13924, Note_on_c, 71
1, 14160, Note_off_c, 71
1, 14160, Note_off_c, 32
1, 14160, Note_off_c, 71
1, 14160, Note_off_c, 63
1, 14160, Note_off_c, 59
1, 14160, Note_off_c, 54
1, 14160, Note_off_c, 63
1, 14160, Note_off_c, 59
1, 14160, Note_off_c, 54
1, 14164, Note_on_c, 52
1, 14164, Note_on_c, 57
1, 14164, Note_on_c, 61
1, 14164, Note_on_c, 52
1, 14164, Note_on_c, 57
1, 14164, Note_on_c, 61
1, 14164, Note_on_c, 71
1, 14164, Note_on_c, 29
1, 14164, Note_on_c, 71
1, 14400, Note_off_c, 71
1, 14400, Note_off_c, 29
1, 14400, Note_off_c, 71
1, 14400, Note_off_c, 61
1, 14400, Note_off_c, 57
1, 14400, Note_off_c, 52
1, 14400, Note_off_c, 61
1, 14400, Note_off_c, 57
1, 14400, Note_off_c, 52
1, 14404, Note_on_c, 32
1, 14640, Note_off_c, 32
1, 14644, Note_on_c, 52
1, 14644, Note_on_c, 57
1, 14644, Note_on_c, 61
1, 14644, Note_on_c, 52
1, 14644, Note_on_c, 57
1, 14644, Note_on_c, 61
1, 14644, Note_on_c, 85
1, 14644, Note_on_c, 85
1, 14880, Note_off_c, 85
1, 14880, Note_off_c, 85
1, 14880, Note_off_c, 61
1, 14880, Note_off_c, 57
1, 14880, Note_off_c, 52
1, 14880, Note_off_c, 61
1, 14880, Note_off_c, 57
1, 14880, Note_off_c, 52
1, 14884, Note_on_c, 52
1, 14884, Note_on_c, 57
1, 14884, Note_on_c, 61
1, 14884, Note_on_c, 52
1, 14884, Note_on_c, 57
1, 14884, Note_on_c, 61
1, 14884, Note_on_c, 83
1, 14884, Note_on_c, 32
1, 14884, Note_on_c, 83
1, 15120, Note_off_c, 83
1, 15120, Note_off_c, 32
1, 15120, Note_off_c, 83
1, 15120, Note_off_c, 61
1, 15120, Note_off_c, 57
1, 15120, Note_off_c, 52
1, 15120, Note_off_c, 61
1, 15120, Note_off_c, 57
1, 15120, Note_off_c, 52
1, 15124, Note_on_c, 52
1, 15124, Note_on_c, 57
1, 15124, Note_on_c, 61
1, 15124, Note_on_c, 52
1, 15124, Note_on_c, 57
1, 15124, Note_on_c, 61
1, 15124, Note_on_c, 80
1, 15124, Note_on_c, 80
1, 15360, Note_off_c, 80
1, 15360, Note_off_c, 80
1, 15360, Note_off_c, 61
1, 15360, Note_off_c, 57
1, 15360, Note_off_c, 52
1, 15360, Note_off_c, 61
1, 15360, Note_off_c, 57
1, 15360, Note_off_c, 52
1, 15364, Note_on_c, 56
1, 15364, Note_on_c, 61
1, 15364, Note_on_c, 66
1, 15364, Note_on_c, 56
1, 15364, Note_on_c, 61
1, 15364, Note_on_c, 66
1, 15364, Note_on_c, 78
1, 15364, Note_on_c, 32
1, 15364, Note_on_c, 36
1, 15364, Note_on_c, 78
1, 15600, Note_off_c, 78
1, 15600, Note_off_c, 36
1, 15600, Note_off_c, 32
1, 15600, Note_off_c, 78
1, 15600, Note_off_c, 66
1, 15600, Note_off_c, 61
1, 15600, Note_off_c, 56
1, 15600, Note_off_c, 66
1, 15600, Note_off_c, 61
1, 15600, Note_off_c, 56
1, 15604, Note_on_c, 56
1, 15604, Note_on_c, 61
1, 15604, Note_on_c, 64
1, 15604, Note_on_c, 37
1, 15604, Note_on_c, 56
1, 15604, Note_on_c, 61
1, 15604, Note_on_c, 64
1, 15604, Note_on_c, 76
1, 15604, Note_on_c, 76
1, 15840, Note_off_c, 76
1, 15840, Note_off_c, 76
1, 15840, Note_off_c, 64
1, 15840, Note_off_c, 61
1, 15840, Note_off_c, 56
1, 15840, Note_off_c, 37
1, 15840, Note_off_c, 64
1, 15840, Note_off_c, 61
1, 15840, Note_off_c, 56
1, 15844, Note_on_c, 56
1, 15844, Note_on_c, 61
1, 15844, Note_on_c, 64
1, 15844, Note_on_c, 56
1, 15844, Note_on_c, 61
1, 15844, Note_on_c, 64
1, 15844, Note_on_c, 76
1, 15844, Note_on_c, 32
1, 15844, Note_on_c, 36
1, 15844, Note_on_c, 37
1, 15844, Note_on_c, 76
1, 16080, Note_off_c, 76
1, 16080, Note_off_c, 37
1, 16080, Note_off_c, 36
1, 16080, Note_off_c, 32
1, 16080, Note_off_c, 76
1, 16080, Note_off_c, 64
1, 16080, Note_off_c, 61
1, 16080, Note_off_c, 56
1, 16080, Note_off_c, 64
1, 16080, Note_off_c, 61
1, 16080, Note_off_c, 56
1, 16324, Note_on_c, 56
1, 16324, Note_on_c, 59
1, 16324, Note_on_c, 64
1, 16324, Note_on_c, 56
1, 16324, Note_on_c, 59
1, 16324, Note_on_c, 64
1, 16324, Note_on_c, 76
1, 16324, Note_on_c, 32
1, 16324, Note_on_c, 36
1, 16324, Note_on_c, 76
1, 16560, Note_off_c, 76
1, 16560, Note_off_c, 36
1, 16560, Note_off_c, 32
1, 16560, Note_off_c, 76
1, 16560, Note_off_c, 64
1, 16560, Note_off_c, 59
1, 16560, Note_off_c, 56
1, 16560, Note_off_c, 64
1, 16560, Note_off_c, 59
1, 16560, Note_off_c, 56
1, 16564, Note_on_c, 56
1, 16564, Note_on_c, 59
1, 16564, Note_on_c, 64
1, 16564, Note_on_c, 40
1, 16564, Note_on_c, 56
1, 16564, Note_on_c, 59
1, 16564, Note_on_c, 64
1, 16564, Note_on_c, 76
1, 16564, Note_on_c, 76
1, 16800, Note_off_c, 76
1, 16800, Note_off_c, 76
1, 16800, Note_off_c, 64
1, 16800, Note_off_c, 59
1, 16800, Note_off_c, 56
1, 16800, Note_off_c, 40
1, 16800, Note_off_c, 64
1, 16800, Note_off_c, 59
1, 16800, Note_off_c, 56
1, 16804, Note_on_c, 56
1, 16804, Note_on_c, 59
1, 16804, Note_on_c, 64
1, 16804, Note_on_c, 56
1, 16804, Note_on_c, 59
1, 16804, Note_on_c, 64
1, 16804, Note_on_c, 76
1, 16804, Note_on_c, 32
1, 16804, Note_on_c, 36
1, 16804, Note_on_c, 37
1, 16804, Note_on_c, 76
1, 17040, Note_off_c, 76
1, 17040, Note_off_c, 37
1, 17040, Note_off_c, 36
1, 17040, Note_off_c, 32
1, 17040, Note_off_c, 76
1, 17040, Note_off_c, 64
1, 17040, Note_off_c, 59
1, 17040, Note_off_c, 56
1, 17040, Note_off_c, 64
1, 17040, Note_off_c, 59
1, 17040, Note_off_c, 56
1, 17044, Note_on_c, 56
1, 17044, Note_on_c, 59
1, 17044, Note_on_c, 64
1, 17044, Note_on_c, 40
1, 17044, Note_on_c, 56
1, 17044, Note_on_c, 59
1, 17044, Note_on_c, 64
1, 17044, Note_on_c, 76
1, 17044, Note_on_c, 76
1, 17280, Note_off_c, 76
1, 17280, Note_off_c, 76
1, 17280, Note_off_c, 64
1, 17280, Note_off_c, 59
1, 17280, Note_off_c, 56
1, 17280, Note_off_c, 40
1, 17280, Note_off_c, 64
1, 17280, Note_off_c, 59
1, 17280, Note_off_c, 56
1, 17284, Note_on_c, 54
1, 17284, Note_on_c, 59
1, 17284, Note_on_c, 63
1, 17284, Note_on_c, 54
1, 17284, Note_on_c, 59
1, 17284, Note_on_c, 63
1, 17284, Note_on_c, 75
1, 17284, Note_on_c, 32
1, 17284, Note_on_c, 36
1, 17284, Note_on_c, 75
1, 17520, Note_off_c, 75
1, 17520, Note_off_c, 36
1, 17520, Note_off_c, 32
1, 17520, Note_off_c, 75
1, 17520, Note_off_c, 63
1, 17520, Note_off_c, 59
1, 17520, Note_off_c, 54
1, 17520, Note_off_c, 63
1, 17520, Note_off_c, 59
1, 17520, Note_off_c, 54
1, 17524, Note_on_c, 54
1, 17524, Note_on_c, 59
1, 17524, Note_on_c, 63
1, 17524, Note_on_c, 35
1, 17524, Note_on_c, 54
1, 17524, Note_on_c, 59
1, 17524, Note_on_c, 63
1, 17524, Note_on_c, 75
1, 17524, Note_on_c, 75
1, 17760, Note_off_c, 75
1, 17760, Note_off_c, 75
1, 17760, Note_off_c, 63
1, 17760, Note_off_c, 59
1, 17760, Note_off_c, 54
1, 17760, Note_off_c, 35
1, 17760, Note_off_c, 63
1, 17760, Note_off_c, 59
1, 17760, Note_off_c, 54
1, 17764, Note_on_c, 54
1, 17764, Note_on_c, 59
1, 17764, Note_on_c, 63
1, 17764, Note_on_c, 54
1, 17764, Note_on_c, 59
1, 17764, Note_on_c, 63
1, 17764, Note_on_c, 76
1, 17764, Note_on_c, 32
1, 17764, Note_on_c, 36
1, 17764, Note_on_c, 37
1, 17764, Note_on_c, 76
1, 18000, Note_off_c, 76
1, 18000, Note_off_c, 37
1, 18000, Note_off_c, 36
1, 18000, Note_off_c, 32
1, 18000, Note_off_c, 76
1, 18000, Note_off_c, 63
1, 18000, Note_off_c, 59
1, 18000, Note_off_c, 54
1, 18000, Note_off_c, 63
1, 18000, Note_off_c, 59
1, 18000, Note_off_c, 54
1, 18004, Note_on_c, 52
1, 18004, Note_on_c, 57
1, 18004, Note_on_c, 61
1, 18004, Note_on_c, 33
1, 18004, Note_on_c, 52
1, 18004, Note_on_c, 57
1, 18004, Note_on_c, 61
1, 18004, Note_on_c, 76
1, 18004, Note_on_c, 29
1, 18004, Note_on_c, 76
1, 18240, Note_off_c, 76
1, 18240, Note_off_c, 29
1, 18240, Note_off_c, 76
1, 18240, Note_off_c, 61
1, 18240, Note_off_c, 57
1, 18240, Note_off_c, 52
1, 18240, Note_off_c, 33
1, 18240, Note_off_c, 61
1, 18240, Note_off_c, 57
1, 18240, Note_off_c, 52
1, 18244, Note_on_c, 32
1, 18244, Note_on_c, 36
1, 18364, Note_on_c, 70
1, 18480, Note_off_c, 36
1, 18480, Note_off_c, 32
1, 18484, Note_on_c, 52
1, 18484, Note_on_c, 57
1, 18484, Note_on_c, 61
1, 18484, Note_on_c, 33
1, 18484, Note_on_c, 52
1, 18484, Note_on_c, 57
1, 18484, Note_on_c, 61
1, 18484, Note_on_c, 85
1, 18484, Note_on_c, 85
1, 18600, Note_off_c, 70
1, 18720, Note_off_c, 85
1, 18720, Note_off_c, 85
1, 18720, Note_off_c, 61
1, 18720, Note_off_c, 57
1, 18720, Note_off_c, 52
1, 18720, Note_off_c, 33
1, 18720, Note_off_c, 61
1, 18720, Note_off_c, 57
1, 18720, Note_off_c, 52
1, 18724, Note_on_c, 52
1, 18724, Note_on_c, 57
1, 18724, Note_on_c, 61
1, 18724, Note_on_c, 52
1, 18724, Note_on_c, 57
1, 18724, Note_on_c, 61
1, 18724, Note_on_c, 83
1, 18724, Note_on_c, 32
1, 18724, Note_on_c, 36
1, 18724, Note_on_c, 37
1, 18724, Note_on_c, 83
1, 18960, Note_off_c, 83
1, 18960, Note_off_c, 37
1, 18960, Note_off_c, 36
1, 18960, Note_off_c, 32
1, 18960, Note_off_c, 83
1, 18960, Note_off_c, 61
1, 18960, Note_off_c, 57
1, 18960, Note_off_c, 52
1, 18960, Note_off_c, 61
1, 18960, Note_off_c, 57
1, 18960, Note_off_c, 52
1, 18964, Note_on_c, 52
1, 18964, Note_on_c, 57
1, 18964, Note_on_c, 61
1, 18964, Note_on_c, 33
1, 18964, Note_on_c, 52
1, 18964, Note_on_c, 57
1, 18964, Note_on_c, 61
1, 18964, Note_on_c, 80
1, 18964, Note_on_c, 80
1, 19200, Note_off_c, 80
1, 19200, Note_off_c, 80
1, 19200, Note_off_c, 61
1, 19200, Note_off_c, 57
1, 19200, Note_off_c, 52
1, 19200, Note_off_c, 33
1, 19200, Note_off_c, 61
1, 19200, Note_off_c, 57
1, 19200, Note_off_c, 52
1, 19204, Note_on_c, 56
1, 19204, Note_on_c, 61
1, 19204, Note_on_c, 66
1, 19204, Note_on_c, 56
1, 19204, Note_on_c, 61
1, 19204, Note_on_c, 66
1, 19204, Note_on_c, 78
1, 19204, Note_on_c, 32
1, 19204, Note_on_c, 36
1, 19204, Note_on_c, 78
1, 19440, Note_off_c, 78
1, 19440, Note_off_c, 36
1, 19440, Note_off_c, 32
1, 19440, Note_off_c, 78
1, 19440, Note_off_c, 66
1, 19440, Note_off_c, 61
1, 19440, Note_off_c, 56
1, 19440, Note_off_c, 66
1, 19440, Note_off_c, 61
1, 19440, Note_off_c, 56
1, 19444, Note_on_c, 56
1, 19444, Note_on_c, 61
1, 19444, Note_on_c, 64
1, 19444, Note_on_c, 37
1, 19444, Note_on_c, 56
1, 19444, Note_on_c, 61
1, 19444, Note_on_c, 64
1, 19444, Note_on_c, 76
1, 19444, Note_on_c, 76
1, 19680, Note_off_c, 76
1, 19680, Note_off_c, 76
1, 19680, Note_off_c, 64
1, 19680, Note_off_c, 61
1, 19680, Note_off_c, 56
1, 19680, Note_off_c, 37
1, 19680, Note_off_c, 64
1, 19680, Note_off_c, 61
1, 19680, Note_off_c, 56
1, 19684, Note_on_c, 56
1, 19684, Note_on_c, 61
1, 19684, Note_on_c, 64
1, 19684, Note_on_c, 56
1, 19684, Note_on_c, 61
1, 19684, Note_on_c, 64
1, 19684, Note_on_c, 76
1, 19684, Note_on_c, 32
1, 19684, Note_on_c, 36
1, 19684, Note_on_c, 37
1, 19684, Note_on_c, 76
1, 19920, Note_off_c, 76
1, 19920, Note_off_c, 37
1, 19920, Note_off_c, 36
1, 19920, Note_off_c, 32
1, 19920, Note_off_c, 76
1, 19920, Note_off_c, 64
1, 19920, Note_off_c, 61
1, 19920, Note_off_c, 56
1, 19920, Note_off_c, 64
1, 19920, Note_off_c, 61
1, 19920, Note_off_c, 56
1, 20164, Note_on_c, 56
1, 20164, Note_on_c, 59
1, 20164, Note_on_c, 64
1, 20164, Note_on_c, 56
1, 20164, Note_on_c, 59
1, 20164, Note_on_c, 64
1, 20164, Note_on_c, 76
1, 20164, Note_on_c, 32
1, 20164, Note_on_c, 36
1, 20164, Note_on_c, 76
1, 20400, Note_off_c, 76
1, 20400, Note_off_c, 36
1, 20400, Note_off_c, 32
1, 20400, Note_off_c, 76
1, 20400, Note_off_c, 64
1, 20400, Note_off_c, 59
1, 20400, Note_off_c, 56
1, 20400, Note_off_c, 64
1, 20400, Note_off_c, 59
1, 20400, Note_off_c, 56
1, 20404, Note_on_c, 56
1, 20404, Note_on_c, 59
1, 20404, Note_on_c, 64
1, 20404, Note_on_c, 40
1, 20404, Note_on_c, 56
1, 20404, Note_on_c, 59
1, 20404, Note_on_c, 64
1, 20404, Note_on_c, 76
1, 20404, Note_on_c, 76
1, 20640, Note_off_c, 76
1, 20640, Note_off_c, 76
1, 20640, Note_off_c, 64
1, 20640, Note_off_c, 59
1, 20640, Note_off_c, 56
1, 20640, Note_off_c, 40
1, 20640, Note_off_c, 64
1, 20640, Note_off_c, 59
1, 20640, Note_off_c, 56
1, 20644, Note_on_c, 56
1, 20644, Note_on_c, 59
1, 20644, Note_on_c, 64
1, 20644, Note_on_c, 56
1, 20644, Note_on_c, 59
1, 20644, Note_on_c, 64
1, 20644, Note_on_c, 76
1, 20644, Note_on_c, 32
1, 20644, Note_on_c, 36
1, 20644, Note_on_c, 37
1, 20644, Note_on_c, 76
1, 20880, Note_off_c, 76
1, 20880, Note_off_c, 37
1, 20880, Note_off_c, 36
1, 20880, Note_off_c, 32
1, 20880, Note_off_c, 76
1, 20880, Note_off_c, 64
1, 20880, Note_off_c, 59
1, 20880, Note_off_c, 56
1, 20880, Note_off_c, 64
1, 20880, Note_off_c, 59
1, 20880, Note_off_c, 56
1, 20884, Note_on_c, 56
1, 20884, Note_on_c, 59
1, 20884, Note_on_c, 64
1, 20884, Note_on_c, 40
1, 20884, Note_on_c, 56
1, 20884, Note_on_c, 59
1, 20884, Note_on_c, 64
1, 20884, Note_on_c, 76
1, 20884, Note_on_c, 76
1, 21120, Note_off_c, 76
1, 21120, Note_off_c, 76
1, 21120, Note_off_c, 64
1, 21120, Note_off_c, 59
1, 21120, Note_off_c, 56
1, 21120, Note_off_c, 40
1, 21120, Note_off_c, 64
1, 21120, Note_off_c, 59
1, 21120, Note_off_c, 56
1, 21124, Note_on_c, 54
1, 21124, Note_on_c, 59
1, 21124, Note_on_c, 63
1, 21124, Note_on_c, 54
1, 21124, Note_on_c, 59
1, 21124, Note_on_c, 63
1, 21124, Note_on_c, 73
1, 21124, Note_on_c, 32
1, 21124, Note_on_c, 36
1, 21124, Note_on_c, 73
1, 21360, Note_off_c, 73
1, 21360, Note_off_c, 36
1, 21360, Note_off_c, 32
1, 21360, Note_off_c, 73
1, 21360, Note_off_c, 63
1, 21360, Note_off_c, 59
1, 21360, Note_off_c, 54
1, 21360, Note_off_c, 63
1, 21360, Note_off_c, 59
1, 21360, Note_off_c, 54
1, 21364, Note_on_c, 54
1, 21364, Note_on_c, 59
1, 21364, Note_on_c, 63
1, 21364, Note_on_c, 35
1, 21364, Note_on_c, 54
1, 21364, Note_on_c, 59
1, 21364, Note_on_c, 63
1, 21364, Note_on_c, 73
1, 21364, Note_on_c, 73
1, 21600, Note_off_c, 73
1, 21600, Note_off_c, 73
1, 21600, Note_off_c, 63
1, 21600, Note_off_c, 59
1, 21600, Note_off_c, 54
1, 21600, Note_off_c, 35
1, 21600, Note_off_c, 63
1, 21600, Note_off_c, 59
1, 21600, Note_off_c, 54
1, 21604, Note_on_c, 54
1, 21604, Note_on_c, 59
1, 21604, Note_on_c, 63
1, 21604, Note_on_c, 54
1, 21604, Note_on_c, 59
1, 21604, Note_on_c, 63
1, 21604, Note_on_c, 71
1, 21604, Note_on_c, 32
1, 21604, Note_on_c, 36
1, 21604, Note_on_c, 37
1, 21604, Note_on_c, 71
1, 21840, Note_off_c, 71
1, 21840, Note_off_c, 37
1, 21840, Note_off_c, 36
1, 21840, Note_off_c, 32
1, 21840, Note_off_c, 71
1, 21840, Note_off_c, 63
1, 21840, Note_off_c, 59
1, 21840, Note_off_c, 54
1, 21840, Note_off_c, 63
1, 21840, Note_off_c, 59
1, 21840, Note_off_c, 54
1, 21844, Note_on_c, 52
1, 21844, Note_on_c, 57
1, 21844, Note_on_c, 61
1, 21844, Note_on_c, 33
1, 21844, Note_on_c, 52
1, 21844, Note_on_c, 57
1, 21844, Note_on_c, 61
1, 21844, Note_on_c, 71
1, 21844, Note_on_c, 29
1, 21844, Note_on_c, 71
1, 22080, Note_off_c, 71
1, 22080, Note_off_c, 29
1, 22080, Note_off_c, 71
1, 22080, Note_off_c, 61
1, 22080, Note_off_c, 57
1, 22080, Note_off_c, 52
1, 22080, Note_off_c, 33
1, 22080, Note_off_c, 61
1, 22080, Note_off_c, 57
1, 22080, Note_off_c, 52
1, 22084, Note_on_c, 27
1, 22084, Note_on_c, 32
1, 22084, Note_on_c, 36
1, 22136, Note_off_c, 27
1, 22204, Note_on_c, 27
1, 22204, Note_on_c, 70
1, 22264, Note_off_c, 27
1, 22320, Note_off_c, 36
1, 22320, Note_off_c, 32
1, 22324, Note_on_c, 52
1, 22324, Note_on_c, 57
1, 22324, Note_on_c, 61
1, 22324, Note_on_c, 33
1, 22324, Note_on_c, 52
1, 22324, Note_on_c, 57
1, 22324, Note_on_c, 61
1, 22324, Note_on_c, 85
1, 22324, Note_on_c, 27
1, 22324, Note_on_c, 85
1, 22408, Note_off_c, 27
1, 22440, Note_off_c, 70
1, 22560, Note_off_c, 85
1, 22560, Note_off_c, 85
1, 22560, Note_off_c, 61
1, 22560, Note_off_c, 57
1, 22560, Note_off_c, 52
1, 22560, Note_off_c, 33
1, 22560, Note_off_c, 61
1, 22560, Note_off_c, 57
1, 22560, Note_off_c, 52
1, 22564, Note_on_c, 52
1, 22564, Note_on_c, 57
1, 22564, Note_on_c, 61
1, 22564, Note_on_c, 52
1, 22564, Note_on_c, 57
1, 22564, Note_on_c, 61
1, 22564, Note_on_c, 83
1, 22564, Note_on_c, 32
1, 22564, Note_on_c, 36
1, 22564, Note_on_c, 37
1, 22564, Note_on_c, 38
1, 22564, Note_on_c, 39
1, 22564, Note_on_c, 83
1, 22688, Note_off_c, 39
1, 22688, Note_off_c, 38
1, 22800, Note_off_c, 83
1, 22800, Note_off_c, 37
1, 22800, Note_off_c, 36
1, 22800, Note_off_c, 32
1, 22800, Note_off_c, 83
1, 22800, Note_off_c, 61
1, 22800, Note_off_c, 57
1, 22800, Note_off_c, 52
1, 22800, Note_off_c, 61
1, 22800, Note_off_c, 57
1, 22800, Note_off_c, 52
1, 22804, Note_on_c, 52
1, 22804, Note_on_c, 57
1, 22804, Note_on_c, 61
1, 22804, Note_on_c, 33
1, 22804, Note_on_c, 52
1, 22804, Note_on_c, 57
1, 22804, Note_on_c, 61
1, 22804, Note_on_c, 80
1, 22804, Note_on_c, 80
1, 23040, Note_off_c, 80
1, 23040, Note_off_c, 80
1, 23040, Note_off_c, 61
1, 23040, Note_off_c, 57
1, 23040, Note_off_c, 52
1, 23040, Note_off_c, 33
1, 23040, Note_off_c, 61
1, 23040, Note_off_c, 57
1, 23040, Note_off_c, 52
1, 23044, Note_on_c, 56
1, 23044, Note_on_c, 61
1, 23044, Note_on_c, 66
1, 23044, Note_on_c, 56
1, 23044, Note_on_c, 61
1, 23044, Note_on_c, 66
1, 23044, Note_on_c, 78
1, 23044, Note_on_c, 32
1, 23044, Note_on_c, 36
1, 23044, Note_on_c, 42
1, 23044, Note_on_c, 42
1, 23044, Note_on_c, 60
1, 23044, Note_on_c, 78
1, 23160, Note_off_c, 42
1, 23160, Note_off_c, 42
1, 23280, Note_off_c, 78
1, 23280, Note_off_c, 36
1, 23280, Note_off_c, 32
1, 23280, Note_off_c, 78
1, 23280, Note_off_c, 66
1, 23280, Note_off_c, 61
1, 23280, Note_off_c, 56
1, 23280, Note_off_c, 66
1, 23280, Note_off_c, 61
1, 23280, Note_off_c, 56
1, 23284, Note_on_c, 56
1, 23284, Note_on_c, 61
1, 23284, Note_on_c, 64
1, 23284, Note_on_c, 37
1, 23284, Note_on_c, 56
1, 23284, Note_on_c, 61
1, 23284, Note_on_c, 64
1, 23284, Note_on_c, 76
1, 23284, Note_on_c, 42
1, 23284, Note_on_c, 82
1, 23284, Note_on_c, 42
1, 23284, Note_on_c, 76
1, 23316, Note_off_c, 82
1, 23400, Note_off_c, 42
1, 23400, Note_off_c, 42
1, 23404, Note_on_c, 42
1, 23404, Note_on_c, 42
1, 23520, Note_off_c, 42
1, 23520, Note_off_c, 42
1, 23520, Note_off_c, 76
1, 23520, Note_off_c, 76
1, 23520, Note_off_c, 64
1, 23520, Note_off_c, 61
1, 23520, Note_off_c, 56
1, 23520, Note_off_c, 37
1, 23520, Note_off_c, 64
1, 23520, Note_off_c, 61
1, 23520, Note_off_c, 56
1, 23524, Note_on_c, 56
1, 23524, Note_on_c, 61
1, 23524, Note_on_c, 64
1, 23524, Note_on_c, 56
1, 23524, Note_on_c, 61
1, 23524, Note_on_c, 64
1, 23524, Note_on_c, 76
1, 23524, Note_on_c, 32
1, 23524, Note_on_c, 36
1, 23524, Note_on_c, 37
1, 23524, Note_on_c, 42
1, 23524, Note_on_c, 42
1, 23524, Note_on_c, 76
1, 23640, Note_off_c, 42
1, 23640, Note_off_c, 42
1, 23760, Note_off_c, 76
1, 23760, Note_off_c, 37
1, 23760, Note_off_c, 36
1, 23760, Note_off_c, 32
1, 23760, Note_off_c, 76
1, 23760, Note_off_c, 64
1, 23760, Note_off_c, 61
1, 23760, Note_off_c, 56
1, 23760, Note_off_c, 64
1, 23760, Note_off_c, 61
1, 23760, Note_off_c, 56
1, 23764, Note_on_c, 42
1, 23764, Note_on_c, 82
1, 23764, Note_on_c, 42
1, 23800, Note_off_c, 82
1, 23880, Note_off_c, 42
1, 23880, Note_off_c, 42
1, 23884, Note_on_c, 42
1, 23884, Note_on_c, 42
1, 24000, Note_off_c, 42
1, 24000, Note_off_c, 42
1, 24004, Note_on_c, 56
1, 24004, Note_on_c, 59
1, 24004, Note_on_c, 64
1, 24004, Note_on_c, 56
1, 24004, Note_on_c, 59
1, 24004, Note_on_c, 64
1, 24004, Note_on_c, 76
1, 24004, Note_on_c, 32
1, 24004, Note_on_c, 36
1, 24004, Note_on_c, 42
1, 24004, Note_on_c, 42
1, 24004, Note_on_c, 76
1, 24120, Note_off_c, 42
1, 24120, Note_off_c, 42
1, 24240, Note_off_c, 76
1, 24240, Note_off_c, 36
1, 24240, Note_off_c, 32
1, 24240, Note_off_c, 76
1, 24240, Note_off_c, 64
1, 24240, Note_off_c, 59
1, 24240, Note_off_c, 56
1, 24240, Note_off_c, 64
1, 24240, Note_off_c, 59
1, 24240, Note_off_c, 56
1, 24244, Note_on_c, 56
1, 24244, Note_on_c, 59
1, 24244, Note_on_c, 64
1, 24244, Note_on_c, 40
1, 24244, Note_on_c, 56
1, 24244, Note_on_c, 59
1, 24244, Note_on_c, 64
1, 24244, Note_on_c, 76
1, 24244, Note_on_c, 42
1, 24244, Note_on_c, 82
1, 24244, Note_on_c, 42
1, 24244, Note_on_c, 76
1, 24292, Note_off_c, 82
1, 24360, Note_off_c, 42
1, 24360, Note_off_c, 42
1, 24364, Note_on_c, 42
1, 24364, Note_on_c, 42
1, 24480, Note_off_c, 42
1, 24480, Note_off_c, 42
1, 24480, Note_off_c, 76
1, 24480, Note_off_c, 76
1, 24480, Note_off_c, 64
1, 24480, Note_off_c, 59
1, 24480, Note_off_c, 56
1, 24480, Note_off_c, 40
1, 24480, Note_off_c, 64
1, 24480, Note_off_c, 59
1, 24480, Note_off_c, 56
1, 24484, Note_on_c, 56
1, 24484, Note_on_c, 59
1, 24484, Note_on_c, 64
1, 24484, Note_on_c, 56
1, 24484, Note_on_c, 59
1, 24484, Note_on_c, 64
1, 24484, Note_on_c, 76
1, 24484, Note_on_c, 32
1, 24484, Note_on_c, 36
1, 24484, Note_on_c, 37
1, 24484, Note_on_c, 42
1, 24484, Note_on_c, 42
1, 24484, Note_on_c, 76
1, 24600, Note_off_c, 42
1, 24600, Note_off_c, 42
1, 24720, Note_off_c, 76
1, 24720, Note_off_c, 37
1, 24720, Note_off_c, 36
1, 24720, Note_off_c, 32
1, 24720, Note_off_c, 76
1, 24720, Note_off_c, 64
1, 24720, Note_off_c, 59
1, 24720, Note_off_c, 56
1, 24720, Note_off_c, 64
1, 24720, Note_off_c, 59
1, 24720, Note_off_c, 56
1, 24724, Note_on_c, 56
1, 24724, Note_on_c, 59
1, 24724, Note_on_c, 64
1, 24724, Note_on_c, 40
1, 24724, Note_on_c, 56
1, 24724, Note_on_c, 59
1, 24724, Note_on_c, 64
1, 24724, Note_on_c, 76
1, 24724, Note_on_c, 42
1, 24724, Note_on_c, 82
1, 24724, Note_on_c, 42
1, 24724, Note_on_c, 76
1, 24776, Note_off_c, 82
1, 24840, Note_off_c, 42
1, 24840, Note_off_c, 42
1, 24844, Note_on_c, 42
1, 24844, Note_on_c, 42
1, 24960, Note_off_c, 42
1, 24960, Note_off_c, 42
1, 24960, Note_off_c, 76
1, 24960, Note_off_c, 76
1, 24960, Note_off_c, 64
1, 24960, Note_off_c, 59
1, 24960, Note_off_c, 56
1, 24960, Note_off_c, 40
1, 24960, Note_off_c, 64
1, 24960, Note_off_c, 59
1, 24960, Note_off_c, 56
1, 24964, Note_on_c, 54
1, 24964, Note_on_c, 59
1, 24964, Note_on_c, 63
1, 24964, Note_on_c, 54
1, 24964, Note_on_c, 59
1, 24964, Note_on_c, 63
1, 24964, Note_on_c, 75
1, 24964, Note_on_c, 32
1, 24964, Note_on_c, 36
1, 24964, Note_on_c, 42
1, 24964, Note_on_c, 42
1, 24964, Note_on_c, 75
1, 25080, Note_off_c, 42
1, 25080, Note_off_c, 42
1, 25200, Note_off_c, 75
1, 25200, Note_off_c, 36
1, 25200, Note_off_c, 32
1, 25200, Note_off_c, 75
1, 25200, Note_off_c, 63
1, 25200, Note_off_c, 59
1, 25200, Note_off_c, 54
1, 25200, Note_off_c, 63
1, 25200, Note_off_c, 59
1, 25200, Note_off_c, 54
1, 25204, Note_on_c, 54
1, 25204, Note_on_c, 59
1, 25204, Note_on_c, 63
1, 25204, Note_on_c, 35
1, 25204, Note_on_c, 54
1, 25204, Note_on_c, 59
1, 25204, Note_on_c, 63
1, 25204, Note_on_c, 75
1, 25204, Note_on_c, 42
1, 25204, Note_on_c, 82
1, 25204, Note_on_c, 42
1, 25204, Note_on_c, 75
1, 25256, Note_off_c, 82
1, 25320, Note_off_c, 42
1, 25320, Note_off_c, 42
1, 25324, Note_on_c, 42
1, 25324, Note_on_c, 42
1, 25440, Note_off_c, 42
1, 25440, Note_off_c, 42
1, 25440, Note_off_c, 75
1, 25440, Note_off_c, 75
1, 25440, Note_off_c, 63
1, 25440, Note_off_c, 59
1, 25440, Note_off_c, 54
1, 25440, Note_off_c, 35
1, 25440, Note_off_c, 63
1, 25440, Note_off_c, 59
1, 25440, Note_off_c, 54
1, 25444, Note_on_c, 54
1, 25444, Note_on_c, 59
1, 25444, Note_on_c, 63
1, 25444, Note_on_c, 54
1, 25444, Note_on_c, 59
1, 25444, Note_on_c, 63
1, 25444, Note_on_c, 76
1, 25444, Note_on_c, 32
1, 25444, Note_on_c, 36
1, 25444, Note_on_c, 37
1, 25444, Note_on_c, 42
1, 25444, Note_on_c, 42
1, 25444, Note_on_c, 76
1, 25560, Note_off_c, 42
1, 25560, Note_off_c, 42
1, 25680, Note_off_c, 76
1, 25680, Note_off_c, 37
1, 25680, Note_off_c, 36
1, 25680, Note_off_c, 32
1, 25680, Note_off_c, 76
1, 25680, Note_off_c, 63
1, 25680, Note_off_c, 59
1, 25680, Note_off_c, 54
1, 25680, Note_off_c, 63
1, 25680, Note_off_c, 59
1, 25680, Note_off_c, 54
1, 25684, Note_on_c, 52
1, 25684, Note_on_c, 57
1, 25684, Note_on_c, 61
1, 25684, Note_on_c, 33
1, 25684, Note_on_c, 52
1, 25684, Note_on_c, 57
1, 25684, Note_on_c, 61
1, 25684, Note_on_c, 76
1, 25684, Note_on_c, 29
1, 25684, Note_on_c, 42
1, 25684, Note_on_c, 82
1, 25684, Note_on_c, 42
1, 25684, Note_on_c, 76
1, 25740, Note_off_c, 82
1, 25800, Note_off_c, 42
1, 25800, Note_off_c, 42
1, 25804, Note_on_c, 42
1, 25804, Note_on_c, 42
1, 25920, Note_off_c, 42
1, 25920, Note_off_c, 42
1, 25920, Note_off_c, 76
1, 25920, Note_off_c, 29
1, 25920, Note_off_c, 76
1, 25920, Note_off_c, 61
1, 25920, Note_off_c, 57
1, 25920, Note_off_c, 52
1, 25920, Note_off_c, 33
1, 25920, Note_off_c, 61
1, 25920, Note_off_c, 57
1, 25920, Note_off_c, 52
1, 25924, Note_on_c, 32
1, 25924, Note_on_c, 36
1, 25924, Note_on_c, 42
1, 25924, Note_on_c, 42
1, 26040, Note_off_c, 42
1, 26040, Note_off_c, 42
1, 26044, Note_on_c, 70
1, 26160, Note_off_c, 36
1, 26160, Note_off_c, 32
1, 26164, Note_on_c, 52
1, 26164, Note_on_c, 57
1, 26164, Note_on_c, 61
1, 26164, Note_on_c, 33
1, 26164, Note_on_c, 52
1, 26164, Note_on_c, 57
1, 26164, Note_on_c, 61
1, 26164, Note_on_c, 85
1, 26164, Note_on_c, 42
1, 26164, Note_on_c, 82
1, 26164, Note_on_c, 42
1, 26164, Note_on_c, 85
1, 26204, Note_off_c, 82
1, 26280, Note_off_c, 42
1, 26280, Note_off_c, 42
1, 26280, Note_off_c, 70
1, 26284, Note_on_c, 42
1, 26284, Note_on_c, 42
1, 26400, Note_off_c, 42
1, 26400, Note_off_c, 42
1, 26400, Note_off_c, 85
1, 26400, Note_off_c, 85
1, 26400, Note_off_c, 61
1, 26400, Note_off_c, 57
1, 26400, Note_off_c, 52
1, 26400, Note_off_c, 33
1, 26400, Note_off_c, 61
1, 26400, Note_off_c, 57
1, 26400, Note_off_c, 52
1, 26404, Note_on_c, 52
1, 26404, Note_on_c, 57
1, 26404, Note_on_c, 61
1, 26404, Note_on_c, 52
1, 26404, Note_on_c, 57
1, 26404, Note_on_c, 61
1, 26404, Note_on_c, 83
1, 26404, Note_on_c, 32
1, 26404, Note_on_c, 36
1, 26404, Note_on_c, 37
1, 26404, Note_on_c, 42
1, 26404, Note_on_c, 42
1, 26404, Note_on_c, 83
1, 26520, Note_off_c, 42
1, 26520, Note_off_c, 42
1, 26640, Note_off_c, 83
1, 26640, Note_off_c, 37
1, 26640, Note_off_c, 36
1, 26640, Note_off_c, 32
1, 26640, Note_off_c, 83
1, 26640, Note_off_c, 61
1, 26640, Note_off_c, 57
1, 26640, Note_off_c, 52
1, 26640, Note_off_c, 61
1, 26640, Note_off_c, 57
1, 26640, Note_off_c, 52
1, 26644, Note_on_c, 52
1, 26644, Note_on_c, 57
1, 26644, Note_on_c, 61
1, 26644, Note_on_c, 33
1, 26644, Note_on_c, 52
1, 26644, Note_on_c, 57
1, 26644, Note_on_c, 61
1, 26644, Note_on_c, 80
1, 26644, Note_on_c, 42
1, 26644, Note_on_c, 82
1, 26644, Note_on_c, 42
1, 26644, Note_on_c, 80
1, 26684, Note_off_c, 82
1, 26760, Note_off_c, 42
1, 26760, Note_off_c, 42
1, 26764, Note_on_c, 42
1, 26764, Note_on_c, 42
1, 26880, Note_off_c, 42
1, 26880, Note_off_c, 42
1, 26880, Note_off_c, 80
1, 26880, Note_off_c, 80
1, 26880, Note_off_c, 61
1, 26880, Note_off_c, 57
1, 26880, Note_off_c, 52
1, 26880, Note_off_c, 33
1, 26880, Note_off_c, 61
1, 26880, Note_off_c, 57
1, 26880, Note_off_c, 52
1, 26880, Note_off_c, 60
1, 26884, Note_on_c, 56
1, 26884, Note_on_c, 61
1, 26884, Note_on_c, 66
1, 26884, Note_on_c, 56
1, 26884, Note_on_c, 61
1, 26884, Note_on_c, 66
1, 26884, Note_on_c, 78
1, 26884, Note_on_c, 32
1, 26884, Note_on_c, 36
1, 26884, Note_on_c, 42
1, 26884, Note_on_c, 42
1, 26884, Note_on_c, 78
1, 27000, Note_off_c, 42
1, 27000, Note_off_c, 42
1, 27120, Note_off_c, 78
1, 27120, Note_off_c, 36
1, 27120, Note_off_c, 32
1, 27120, Note_off_c, 78
1, 27120, Note_off_c, 66
1, 27120, Note_off_c, 61
1, 27120, Note_off_c, 56
1, 27120, Note_off_c, 66
1, 27120, Note_off_c, 61
1, 27120, Note_off_c, 56
1, 27124, Note_on_c, 56
1, 27124, Note_on_c, 61
1, 27124, Note_on_c, 64
1, 27124, Note_on_c, 37
1, 27124, Note_on_c, 56
1, 27124, Note_on_c, 61
1, 27124, Note_on_c, 64
1, 27124, Note_on_c, 76
1, 27124, Note_on_c, 42
1, 27124, Note_on_c, 82
1, 27124, Note_on_c, 42
1, 27124, Note_on_c, 76
1, 27172, Note_off_c, 82
1, 27240, Note_off_c, 42
1, 27240, Note_off_c, 42
1, 27244, Note_on_c, 42
1, 27244, Note_on_c, 42
1, 27360, Note_off_c, 42
1, 27360, Note_off_c, 42
1, 27360, Note_off_c, 76
1, 27360, Note_off_c, 76
1, 27360, Note_off_c, 64
1, 27360, Note_off_c, 61
1, 27360, Note_off_c, 56
1, 27360, Note_off_c, 37
1, 27360, Note_off_c, 64
1, 27360, Note_off_c, 61
1, 27360, Note_off_c, 56
1, 27364, Note_on_c, 56
1, 27364, Note_on_c, 61
1, 27364, Note_on_c, 64
1, 27364, Note_on_c, 56
1, 27364, Note_on_c, 61
1, 27364, Note_on_c, 64
1, 27364, Note_on_c, 76
1, 27364, Note_on_c, 32
1, 27364, Note_on_c, 36
1, 27364, Note_on_c, 37
1, 27364, Note_on_c, 42
1, 27364, Note_on_c, 42
1, 27364, Note_on_c, 76
1, 27480, Note_off_c, 42
1, 27480, Note_off_c, 42
1, 27600, Note_off_c, 76
1, 27600, Note_off_c, 37
1, 27600, Note_off_c, 36
1, 27600, Note_off_c, 32
1, 27600, Note_off_c, 76
1, 27600, Note_off_c, 64
1, 27600, Note_off_c, 61
1, 27600, Note_off_c, 56
1, 27600, Note_off_c, 64
1, 27600, Note_off_c, 61
1, 27600, Note_off_c, 56
1, 27604, Note_on_c, 42
1, 27604, Note_on_c, 82
1, 27604, Note_on_c, 42
1, 27656, Note_off_c, 82
1, 27720, Note_off_c, 42
1, 27720, Note_off_c, 42
1, 27724, Note_on_c, 42
1, 27724, Note_on_c, 42
1, 27840, Note_off_c, 42
1, 27840, Note_off_c, 42
1, 27844, Note_on_c, 56
1, 27844, Note_on_c, 59
1, 27844, Note_on_c, 64
1, 27844, Note_on_c, 56
1, 27844, Note_on_c, 59
1, 27844, Note_on_c, 64
1, 27844, Note_on_c, 76
1, 27844, Note_on_c, 32
1, 27844, Note_on_c, 36
1, 27844, Note_on_c, 42
1, 27844, Note_on_c, 42
1, 27844, Note_on_c, 76
1, 27960, Note_off_c, 42
1, 27960, Note_off_c, 42
1, 28080, Note_off_c, 76
1, 28080, Note_off_c, 36
1, 28080, Note_off_c, 32
1, 28080, Note_off_c, 76
1, 28080, Note_off_c, 64
1, 28080, Note_off_c, 59
1, 28080, Note_off_c, 56
1, 28080, Note_off_c, 64
1, 28080, Note_off_c, 59
1, 28080, Note_off_c, 56
1, 28084, Note_on_c, 56
1, 28084, Note_on_c, 59
1, 28084, Note_on_c, 64
1, 28084, Note_on_c, 40
1, 28084, Note_on_c, 56
1, 28084, Note_on_c, 59
1, 28084, Note_on_c, 64
1, 28084, Note_on_c, 76
1, 28084, Note_on_c, 42
1, 28084, Note_on_c, 82
1, 28084, Note_on_c, 42
1, 28084, Note_on_c, 76
1, 28132, Note_off_c, 82
1, 28200, Note_off_c, 42
1, 28200, Note_off_c, 42
1, 28204, Note_on_c, 42
1, 28204, Note_on_c, 42
1, 28320, Note_off_c, 42
1, 28320, Note_off_c, 42
1, 28320, Note_off_c, 76
1, 28320, Note_off_c, 76
1, 28320, Note_off_c, 64
1, 28320, Note_off_c, 59
1, 28320, Note_off_c, 56
1, 28320, Note_off_c, 40
1, 28320, Note_off_c, 64
1, 28320, Note_off_c, 59
1, 28320, Note_off_c, 56
1, 28324, Note_on_c, 56
1, 28324, Note_on_c, 59
1, 28324, Note_on_c, 64
1, 28324, Note_on_c, 56
1, 28324, Note_on_c, 59
1, 28324, Note_on_c, 64
1, 28324, Note_on_c, 76
1, 28324, Note_on_c, 32
1, 28324, Note_on_c, 36
1, 28324, Note_on_c, 37
1, 28324, Note_on_c, 42
1, 28324, Note_on_c, 42
1, 28324, Note_on_c, 76
1, 28440, Note_off_c, 42
1, 28440, Note_off_c, 42
1, 28560, Note_off_c, 76
1, 28560, Note_off_c, 37
1, 28560, Note_off_c, 36
1, 28560, Note_off_c, 32
1, 28560, Note_off_c, 76
1, 28560, Note_off_c, 64
1, 28560, Note_off_c, 59
1, 28560, Note_off_c, 56
1, 28560, Note_off_c, 64
1, 28560, Note_off_c, 59
1, 28560, Note_off_c, 56
1, 28564, Note_on_c, 56
1, 28564, Note_on_c, 59
1, 28564, Note_on_c, 64
1, 28564, Note_on_c, 40
1, 28564, Note_on_c, 56
1, 28564, Note_on_c, 59
1, 28564, Note_on_c, 64
1, 28564, Note_on_c, 76
1, 28564, Note_on_c, 42
1, 28564, Note_on_c, 82
1, 28564, Note_on_c, 42
1, 28564, Note_on_c, 76
1, 28604, Note_off_c, 82
1, 28680, Note_off_c, 42
1, 28680, Note_off_c, 42
1, 28684, Note_on_c, 42
1, 28684, Note_on_c, 42
1, 28800, Note_off_c, 42
1, 28800, Note_off_c, 42
1, 28800, Note_off_c, 76
1, 28800, Note_off_c, 76
1, 28800, Note_off_c, 64
1, 28800, Note_off_c, 59
1, 28800, Note_off_c, 56
1, 28800, Note_off_c, 40
1, 28800, Note_off_c, 64
1, 28800, Note_off_c, 59
1, 28800, Note_off_c, 56
1, 28804, Note_on_c, 54
1, 28804, Note_on_c, 59
1, 28804, Note_on_c, 63
1, 28804, Note_on_c, 54
1, 28804, Note_on_c, 59
1, 28804, Note_on_c, 63
1, 28804, Note_on_c, 73
1, 28804, Note_on_c, 32
1, 28804, Note_on_c, 36
1, 28804, Note_on_c, 42
1, 28804, Note_on_c, 42
1, 28804, Note_on_c, 73
1, 28920, Note_off_c, 42
1, 28920, Note_off_c, 42
1, 29040, Note_off_c, 73
1, 29040, Note_off_c, 36
1, 29040, Note_off_c, 32
1, 29040, Note_off_c, 73
1, 29040, Note_off_c, 63
1, 29040, Note_off_c, 59
1, 29040, Note_off_c, 54
1, 29040, Note_off_c, 63
1, 29040, Note_off_c, 59
1, 29040, Note_off_c, 54
1, 29044, Note_on_c, 54
1, 29044, Note_on_c, 59
1, 29044, Note_on_c, 63
1, 29044, Note_on_c, 35
1, 29044, Note_on_c, 54
1, 29044, Note_on_c, 59
1, 29044, Note_on_c, 63
1, 29044, Note_on_c, 73
1, 29044, Note_on_c, 42
1, 29044, Note_on_c, 82
1, 29044, Note_on_c, 42
1, 29044, Note_on_c, 73
1, 29088, Note_off_c, 82
1, 29160, Note_off_c, 42
1, 29160, Note_off_c, 42
1, 29164, Note_on_c, 42
1, 29164, Note_on_c, 42
1, 29280, Note_off_c, 42
1, 29280, Note_off_c, 42
1, 29280, Note_off_c, 73
1, 29280, Note_off_c, 73
1, 29280, Note_off_c, 63
1, 29280, Note_off_c, 59
1, 29280, Note_off_c, 54
1, 29280, Note_off_c, 35
1, 29280, Note_off_c, 63
1, 29280, Note_off_c, 59
1, 29280, Note_off_c, 54
1, 29284, Note_on_c, 54
1, 29284, Note_on_c, 59
1, 29284, Note_on_c, 63
1, 29284, Note_on_c, 54
1, 29284, Note_on_c, 59
1, 29284, Note_on_c, 63
1, 29284, Note_on_c, 71
1, 29284, Note_on_c, 48
1, 29284, Note_on_c, 32
1, 29284, Note_on_c, 36
1, 29284, Note_on_c, 37
1, 29284, Note_on_c, 42
1, 29284, Note_on_c, 42
1, 29284, Note_on_c, 71
1, 29400, Note_off_c, 42
1, 29400, Note_off_c, 42
1, 29520, Note_off_c, 71
1, 29520, Note_off_c, 37
1, 29520, Note_off_c, 36
1, 29520, Note_off_c, 32
1, 29520, Note_off_c, 71
1, 29520, Note_off_c, 63
1, 29520, Note_off_c, 59
1, 29520, Note_off_c, 54
1, 29520, Note_off_c, 63
1, 29520, Note_off_c, 59
1, 29520, Note_off_c, 54
1, 29524, Note_on_c, 52
1, 29524, Note_on_c, 57
1, 29524, Note_on_c, 61
1, 29524, Note_on_c, 33
1, 29524, Note_on_c, 52
1, 29524, Note_on_c, 57
1, 29524, Note_on_c, 61
1, 29524, Note_on_c, 71
1, 29524, Note_on_c, 29
1, 29524, Note_on_c, 42
1, 29524, Note_on_c, 82
1, 29524, Note_on_c, 42
1, 29524, Note_on_c, 71
1, 29564, Note_off_c, 82
1, 29640, Note_off_c, 42
1, 29640, Note_off_c, 42
1, 29644, Note_on_c, 42
1, 29644, Note_on_c, 42
1, 29760, Note_off_c, 42
1, 29760, Note_off_c, 42
1, 29760, Note_off_c, 71
1, 29760, Note_off_c, 29
1, 29760, Note_off_c, 71
1, 29760, Note_off_c, 61
1, 29760, Note_off_c, 57
1, 29760, Note_off_c, 52
1, 29760, Note_off_c, 33
1, 29760, Note_off_c, 61
1, 29760, Note_off_c, 57
1, 29760, Note_off_c, 52
1, 29764, Note_on_c, 32
1, 29764, Note_on_c, 36
1, 29764, Note_on_c, 42
1, 29764, Note_on_c, 42
1, 29880, Note_off_c, 42
1, 29880, Note_off_c, 42
1, 29884, Note_on_c, 70
1, 30000, Note_off_c, 36
1, 30000, Note_off_c, 32
1, 30004, Note_on_c, 52
1, 30004, Note_on_c, 57
1, 30004, Note_on_c, 61
1, 30004, Note_on_c, 33
1, 30004, Note_on_c, 52
1, 30004, Note_on_c, 57
1, 30004, Note_on_c, 61
1, 30004, Note_on_c, 85
1, 30004, Note_on_c, 42
1, 30004, Note_on_c, 82
1, 30004, Note_on_c, 42
1, 30004, Note_on_c, 85
1, 30044, Note_off_c, 82
1, 30120, Note_off_c, 42
1, 30120, Note_off_c, 42
1, 30120, Note_off_c, 70
1, 30124, Note_on_c, 42
1, 30124, Note_on_c, 42
1, 30240, Note_off_c, 42
1, 30240, Note_off_c, 42
1, 30240, Note_off_c, 85
1, 30240, Note_off_c, 85
1, 30240, Note_off_c, 61
1, 30240, Note_off_c, 57
1, 30240, Note_off_c, 52
1, 30240, Note_off_c, 33
1, 30240, Note_off_c, 61
1, 30240, Note_off_c, 57
1, 30240, Note_off_c, 52
1, 30244, Note_on_c, 52
1, 30244, Note_on_c, 57
1, 30244, Note_on_c, 61
1, 30244, Note_on_c, 52
1, 30244, Note_on_c, 57
1, 30244, Note_on_c, 61
1, 30244, Note_on_c, 83
1, 30244, Note_on_c, 32
1, 30244, Note_on_c, 36
1, 30244, Note_on_c, 37
1, 30244, Note_on_c, 42
1, 30244, Note_on_c, 42
1, 30244, Note_on_c, 83
1, 30360, Note_off_c, 42
1, 30360, Note_off_c, 42
1, 30480, Note_off_c, 83
1, 30480, Note_off_c, 37
1, 30480, Note_off_c, 36
1, 30480, Note_off_c, 32
1, 30480, Note_off_c, 83
1, 30480, Note_off_c, 61
1, 30480, Note_off_c, 57
1, 30480, Note_off_c, 52
1, 30480, Note_off_c, 61
1, 30480, Note_off_c, 57
1, 30480, Note_off_c, 52
1, 30484, Note_on_c, 52
1, 30484, Note_on_c, 57
1, 30484, Note_on_c, 61
1, 30484, Note_on_c, 33
1, 30484, Note_on_c, 52
1, 30484, Note_on_c, 57
1, 30484, Note_on_c, 61
1, 30484, Note_on_c, 80
1, 30484, Note_on_c, 42
1, 30484, Note_on_c, 82
1, 30484, Note_on_c, 42
1, 30484, Note_on_c, 80
1, 30524, Note_off_c, 82
1, 30600, Note_off_c, 42
1, 30600, Note_off_c, 42
1, 30604, Note_on_c, 42
1, 30604, Note_on_c, 42
1, 30720, Note_off_c, 42
1, 30720, Note_off_c, 42
1, 30720, Note_off_c, 80
1, 30720, Note_off_c, 80
1, 30720, Note_off_c, 61
1, 30720, Note_off_c, 57
1, 30720, Note_off_c, 52
1, 30720, Note_off_c, 33
1, 30720, Note_off_c, 61
1, 30720, Note_off_c, 57
1, 30720, Note_off_c, 52
1, 30720, Note_off_c, 48
1, 30724, Note_on_c, 56
1, 30724, Note_on_c, 61
1, 30724, Note_on_c, 66
1, 30724, Note_on_c, 56
1, 30724, Note_on_c, 61
1, 30724, Note_on_c, 66
1, 30724, Note_on_c, 78
1, 30724, Note_on_c, 76
1, 30724, Note_on_c, 32
1, 30724, Note_on_c, 36
1, 30724, Note_on_c, 49
1, 30724, Note_on_c, 42
1, 30724, Note_on_c, 78
1, 30724, Note_on_c, 48
1, 30840, Note_off_c, 42
1, 30960, Note_off_c, 78
1, 30960, Note_off_c, 49
1, 30960, Note_off_c, 36
1, 30960, Note_off_c, 32
1, 30960, Note_off_c, 78
1, 30960, Note_off_c, 66
1, 30960, Note_off_c, 61
1, 30960, Note_off_c, 56
1, 30960, Note_off_c, 66
1, 30960, Note_off_c, 61
1, 30960, Note_off_c, 56
1, 30964, Note_on_c, 56
1, 30964, Note_on_c, 61
1, 30964, Note_on_c, 64
1, 30964, Note_on_c, 56
1, 30964, Note_on_c, 61
1, 30964, Note_on_c, 64
1, 30964, Note_on_c, 76
1, 30964, Note_on_c, 42
1, 30964, Note_on_c, 76
1, 31080, Note_off_c, 42
1, 31084, Note_on_c, 42
1, 31200, Note_off_c, 42
1, 31200, Note_off_c, 76
1, 31200, Note_off_c, 76
1, 31200, Note_off_c, 64
1, 31200, Note_off_c, 61
1, 31200, Note_off_c, 56
1, 31200, Note_off_c, 64
1, 31200, Note_off_c, 61
1, 31200, Note_off_c, 56
1, 31204, Note_on_c, 56
1, 31204, Note_on_c, 61
1, 31204, Note_on_c, 64
1, 31204, Note_on_c, 56
1, 31204, Note_on_c, 61
1, 31204, Note_on_c, 64
1, 31204, Note_on_c, 76
1, 31204, Note_on_c, 32
1, 31204, Note_on_c, 57
1, 31204, Note_on_c, 42
1, 31204, Note_on_c, 76
1, 31320, Note_off_c, 42
1, 31440, Note_off_c, 76
1, 31440, Note_off_c, 57
1, 31440, Note_off_c, 32
1, 31440, Note_off_c, 76
1, 31440, Note_off_c, 64
1, 31440, Note_off_c, 61
1, 31440, Note_off_c, 56
1, 31440, Note_off_c, 64
1, 31440, Note_off_c, 61
1, 31440, Note_off_c, 56
1, 31444, Note_on_c, 42
1, 31560, Note_off_c, 42
1, 31684, Note_on_c, 56
1, 31684, Note_on_c, 59
1, 31684, Note_on_c, 64
1, 31684, Note_on_c, 56
1, 31684, Note_on_c, 59
1, 31684, Note_on_c, 64
1, 31684, Note_on_c, 76
1, 31684, Note_on_c, 32
1, 31684, Note_on_c, 57
1, 31684, Note_on_c, 76
1, 31920, Note_off_c, 76
1, 31920, Note_off_c, 57
1, 31920, Note_off_c, 32
1, 31920, Note_off_c, 76
1, 31920, Note_off_c, 64
1, 31920, Note_off_c, 59
1, 31920, Note_off_c, 56
1, 31920, Note_off_c, 64
1, 31920, Note_off_c, 59
1, 31920, Note_off_c, 56
1, 31924, Note_on_c, 56
1, 31924, Note_on_c, 59
1, 31924, Note_on_c, 64
1, 31924, Note_on_c, 56
1, 31924, Note_on_c, 59
1, 31924, Note_on_c, 64
1, 31924, Note_on_c, 76
1, 31924, Note_on_c, 76
1, 32160, Note_off_c, 76
1, 32160, Note_off_c, 76
1, 32160, Note_off_c, 64
1, 32160, Note_off_c, 59
1, 32160, Note_off_c, 56
1, 32160, Note_off_c, 64
1, 32160, Note_off_c, 59
1, 32160, Note_off_c, 56
1, 32160, Note_off_c, 48
1, 32164, Note_on_c, 56
1, 32164, Note_on_c, 59
1, 32164, Note_on_c, 64
1, 32164, Note_on_c, 56
1, 32164, Note_on_c, 59
1, 32164, Note_on_c, 64
1, 32164, Note_on_c, 76
1, 32164, Note_on_c, 32
1, 32164, Note_on_c, 57
1, 32164, Note_on_c, 76
1, 32400, Note_off_c, 76
1, 32400, Note_off_c, 57
1, 32400, Note_off_c, 32
1, 32400, Note_off_c, 76
1, 32400, Note_off_c, 64
1, 32400, Note_off_c, 59
1, 32400, Note_off_c, 56
1, 32400, Note_off_c, 64
1, 32400, Note_off_c, 59
1, 32400, Note_off_c, 56
1, 32404, Note_on_c, 56
1, 32404, Note_on_c, 59
1, 32404, Note_on_c, 64
1, 32404, Note_on_c, 56
1, 32404, Note_on_c, 59
1, 32404, Note_on_c, 64
1, 32404, Note_on_c, 76
1, 32404, Note_on_c, 76
1, 32640, Note_off_c, 76
1, 32640, Note_off_c, 76
1, 32640, Note_off_c, 64
1, 32640, Note_off_c, 59
1, 32640, Note_off_c, 56
1, 32640, Note_off_c, 64
1, 32640, Note_off_c, 59
1, 32640, Note_off_c, 56
1, 32640, Note_off_c, 76
1, 32644, Note_on_c, 54
1, 32644, Note_on_c, 59
1, 32644, Note_on_c, 63
1, 32644, Note_on_c, 54
1, 32644, Note_on_c, 59
1, 32644, Note_on_c, 63
1, 32644, Note_on_c, 75
1, 32644, Note_on_c, 85
1, 32644, Note_on_c, 32
1, 32644, Note_on_c, 57
1, 32644, Note_on_c, 75
1, 32880, Note_off_c, 75
1, 32880, Note_off_c, 57
1, 32880, Note_off_c, 32
1, 32880, Note_off_c, 75
1, 32880, Note_off_c, 63
1, 32880, Note_off_c, 59
1, 32880, Note_off_c, 54
1, 32880, Note_off_c, 63
1, 32880, Note_off_c, 59
1, 32880, Note_off_c, 54
1, 32884, Note_on_c, 54
1, 32884, Note_on_c, 59
1, 32884, Note_on_c, 63
1, 32884, Note_on_c, 54
1, 32884, Note_on_c, 59
1, 32884, Note_on_c, 63
1, 32884, Note_on_c, 75
1, 32884, Note_on_c, 75
1, 33120, Note_off_c, 75
1, 33120, Note_off_c, 75
1, 33120, Note_off_c, 63
1, 33120, Note_off_c, 59
1, 33120, Note_off_c, 54
1, 33120, Note_off_c, 63
1, 33120, Note_off_c, 59
1, 33120, Note_off_c, 54
1, 33124, Note_on_c, 54
1, 33124, Note_on_c, 59
1, 33124, Note_on_c, 63
1, 33124, Note_on_c, 54
1, 33124, Note_on_c, 59
1, 33124, Note_on_c, 63
1, 33124, Note_on_c, 76
1, 33124, Note_on_c, 32
1, 33124, Note_on_c, 57
1, 33124, Note_on_c, 76
1, 33360, Note_off_c, 76
1, 33360, Note_off_c, 57
1, 33360, Note_off_c, 32
1, 33360, Note_off_c, 76
1, 33360, Note_off_c, 63
1, 33360, Note_off_c, 59
1, 33360, Note_off_c, 54
1, 33360, Note_off_c, 63
1, 33360, Note_off_c, 59
1, 33360, Note_off_c, 54
1, 33364, Note_on_c, 52
1, 33364, Note_on_c, 57
1, 33364, Note_on_c, 61
1, 33364, Note_on_c, 52
1, 33364, Note_on_c, 57
1, 33364, Note_on_c, 61
1, 33364, Note_on_c, 76
1, 33364, Note_on_c, 29
1, 33364, Note_on_c, 76
1, 33600, Note_off_c, 76
1, 33600, Note_off_c, 29
1, 33600, Note_off_c, 76
1, 33600, Note_off_c, 61
1, 33600, Note_off_c, 57
1, 33600, Note_off_c, 52
1, 33600, Note_off_c, 61
1, 33600, Note_off_c, 57
1, 33600, Note_off_c, 52
1, 33604, Note_on_c, 32
1, 33840, Note_off_c, 32
1, 33844, Note_on_c, 52
1, 33844, Note_on_c, 57
1, 33844, Note_on_c, 61
1, 33844, Note_on_c, 52
1, 33844, Note_on_c, 57
1, 33844, Note_on_c, 61
1, 33844, Note_on_c, 85
1, 33844, Note_on_c, 85
1, 34080, Note_off_c, 85
1, 34080, Note_off_c, 85
1, 34080, Note_off_c, 61
1, 34080, Note_off_c, 57
1, 34080, Note_off_c, 52
1, 34080, Note_off_c, 61
1, 34080, Note_off_c, 57
1, 34080, Note_off_c, 52
1, 34084, Note_on_c, 52
1, 34084, Note_on_c, 57
1, 34084, Note_on_c, 61
1, 34084, Note_on_c, 52
1, 34084, Note_on_c, 57
1, 34084, Note_on_c, 61
1, 34084, Note_on_c, 83
1, 34084, Note_on_c, 32
1, 34084, Note_on_c, 83
1, 34320, Note_off_c, 83
1, 34320, Note_off_c, 32
1, 34320, Note_off_c, 83
1, 34320, Note_off_c, 61
1, 34320, Note_off_c, 57
1, 34320, Note_off_c, 52
1, 34320, Note_off_c, 61
1, 34320, Note_off_c, 57
1, 34320, Note_off_c, 52
1, 34324, Note_on_c, 52
1, 34324, Note_on_c, 57
1, 34324, Note_on_c, 61
1, 34324, Note_on_c, 52
1, 34324, Note_on_c, 57
1, 34324, Note_on_c, 61
1, 34324, Note_on_c, 80
1, 34324, Note_on_c, 80
1, 34560, Note_off_c, 80
1, 34560, Note_off_c, 80
1, 34560, Note_off_c, 61
1, 34560, Note_off_c, 57
1, 34560, Note_off_c, 52
1, 34560, Note_off_c, 61
1, 34560, Note_off_c, 57
1, 34560, Note_off_c, 52
1, 34560, Note_off_c, 85
1, 34564, Note_on_c, 56
1, 34564, Note_on_c, 61
1, 34564, Note_on_c, 66
1, 34564, Note_on_c, 56
1, 34564, Note_on_c, 61
1, 34564, Note_on_c, 66
1, 34564, Note_on_c, 78
1, 34564, Note_on_c, 76
1, 34564, Note_on_c, 32
1, 34564, Note_on_c, 78
1, 34800, Note_off_c, 78
1, 34800, Note_off_c, 32
1, 34800, Note_off_c, 78
1, 34800, Note_off_c, 66
1, 34800, Note_off_c, 61
1, 34800, Note_off_c, 56
1, 34800, Note_off_c, 66
1, 34800, Note_off_c, 61
1, 34800, Note_off_c, 56
1, 34804, Note_on_c, 56
1, 34804, Note_on_c, 61
1, 34804, Note_on_c, 64
1, 34804, Note_on_c, 56
1, 34804, Note_on_c, 61
1, 34804, Note_on_c, 64
1, 34804, Note_on_c, 76
1, 34804, Note_on_c, 76
1, 35040, Note_off_c, 76
1, 35040, Note_off_c, 76
1, 35040, Note_off_c, 64
1, 35040, Note_off_c, 61
1, 35040, Note_off_c, 56
1, 35040, Note_off_c, 64
1, 35040, Note_off_c, 61
1, 35040, Note_off_c, 56
1, 35044, Note_on_c, 56
1, 35044, Note_on_c, 61
1, 35044, Note_on_c, 64
1, 35044, Note_on_c, 56
1, 35044, Note_on_c, 61
1, 35044, Note_on_c, 64
1, 35044, Note_on_c, 76
1, 35044, Note_on_c, 32
1, 35044, Note_on_c, 76
1, 35280, Note_off_c, 76
1, 35280, Note_off_c, 32
1, 35280, Note_off_c, 76
1, 35280, Note_off_c, 64
1, 35280, Note_off_c, 61
1, 35280, Note_off_c, 56
1, 35280, Note_off_c, 64
1, 35280, Note_off_c, 61
1, 35280, Note_off_c, 56
1, 35524, Note_on_c, 56
1, 35524, Note_on_c, 59
1, 35524, Note_on_c, 64
1, 35524, Note_on_c, 56
1, 35524, Note_on_c, 59
1, 35524, Note_on_c, 64
1, 35524, Note_on_c, 76
1, 35524, Note_on_c, 32
1, 35524, Note_on_c, 76
1, 35760, Note_off_c, 76
1, 35760, Note_off_c, 32
1, 35760, Note_off_c, 76
1, 35760, Note_off_c, 64
1, 35760, Note_off_c, 59
1, 35760, Note_off_c, 56
1, 35760, Note_off_c, 64
1, 35760, Note_off_c, 59
1, 35760, Note_off_c, 56
1, 35764, Note_on_c, 56
1, 35764, Note_on_c, 59
1, 35764, Note_on_c, 64
1, 35764, Note_on_c, 56
1, 35764, Note_on_c, 59
1, 35764, Note_on_c, 64
1, 35764, Note_on_c, 76
1, 35764, Note_on_c, 76
1, 36000, Note_off_c, 76
1, 36000, Note_off_c, 76
1, 36000, Note_off_c, 64
1, 36000, Note_off_c, 59
1, 36000, Note_off_c, 56
1, 36000, Note_off_c, 64
1, 36000, Note_off_c, 59
1, 36000, Note_off_c, 56
1, 36004, Note_on_c, 56
1, 36004, Note_on_c, 59
1, 36004, Note_on_c, 64
1, 36004, Note_on_c, 56
1, 36004, Note_on_c, 59
1, 36004, Note_on_c, 64
1, 36004, Note_on_c, 76
1, 36004, Note_on_c, 32
1, 36004, Note_on_c, 76
1, 36240, Note_off_c, 76
1, 36240, Note_off_c, 32
1, 36240, Note_off_c, 76
1, 36240, Note_off_c, 64
1, 36240, Note_off_c, 59
1, 36240, Note_off_c, 56
1, 36240, Note_off_c, 64
1, 36240, Note_off_c, 59
1, 36240, Note_off_c, 56
1, 36244, Note_on_c, 56
1, 36244, Note_on_c, 59
1, 36244, Note_on_c, 64
1, 36244, Note_on_c, 56
1, 36244, Note_on_c, 59
1, 36244, Note_on_c, 64
1, 36244, Note_on_c, 76
1, 36244, Note_on_c, 76
1, 36480, Note_off_c, 76
1, 36480, Note_off_c, 76
1, 36480, Note_off_c, 64
1, 36480, Note_off_c, 59
1, 36480, Note_off_c, 56
1, 36480, Note_off_c, 64
1, 36480, Note_off_c, 59
1, 36480, Note_off_c, 56
1, 36480, Note_off_c, 76
1, 36484, Note_on_c, 54
1, 36484, Note_on_c, 59
1, 36484, Note_on_c, 63
1, 36484, Note_on_c, 54
1, 36484, Note_on_c, 59
1, 36484, Note_on_c, 63
1, 36484, Note_on_c, 73
1, 36484, Note_on_c, 85
1, 36484, Note_on_c, 32
1, 36484, Note_on_c, 73
1, 36720, Note_off_c, 73
1, 36720, Note_off_c, 32
1, 36720, Note_off_c, 73
1, 36720, Note_off_c, 63
1, 36720, Note_off_c, 59
1, 36720, Note_off_c, 54
1, 36720, Note_off_c, 63
1, 36720, Note_off_c, 59
1, 36720, Note_off_c, 54
1, 36724, Note_on_c, 54
1, 36724, Note_on_c, 59
1, 36724, Note_on_c, 63
1, 36724, Note_on_c, 54
1, 36724, Note_on_c, 59
1, 36724, Note_on_c, 63
1, 36724, Note_on_c, 73
1, 36724, Note_on_c, 73
1, 36960, Note_off_c, 73
1, 36960, Note_off_c, 73
1, 36960, Note_off_c, 63
1, 36960, Note_off_c, 59
1, 36960, Note_off_c, 54
1, 36960, Note_off_c, 63
1, 36960, Note_off_c, 59
1, 36960, Note_off_c, 54
1, 36964, Note_on_c, 54
1, 36964, Note_on_c, 59
1, 36964, Note_on_c, 63
1, 36964, Note_on_c, 54
1, 36964, Note_on_c, 59
1, 36964, Note_on_c, 63
1, 36964, Note_on_c, 71
1, 36964, Note_on_c, 32
1, 36964, Note_on_c, 71
1, 37200, Note_off_c, 71
1, 37200, Note_off_c, 32
1, 37200, Note_off_c, 71
1, 37200, Note_off_c, 63
1, 37200, Note_off_c, 59
1, 37200, Note_off_c, 54
1, 37200, Note_off_c, 63
1, 37200, Note_off_c, 59
1, 37200, Note_off_c, 54
1, 37204, Note_on_c, 52
1, 37204, Note_on_c, 57
1, 37204, Note_on_c, 61
1, 37204, Note_on_c, 52
1, 37204, Note_on_c, 57
1, 37204, Note_on_c, 61
1, 37204, Note_on_c, 71
1, 37204, Note_on_c, 29
1, 37204, Note_on_c, 71
1, 37440, Note_off_c, 71
1, 37440, Note_off_c, 29
1, 37440, Note_off_c, 71
1, 37440, Note_off_c, 61
1, 37440, Note_off_c, 57
1, 37440, Note_off_c, 52
1, 37440, Note_off_c, 61
1, 37440, Note_off_c, 57
1, 37440, Note_off_c, 52
1, 37444, Note_on_c, 32
1, 37680, Note_off_c, 32
1, 37684, Note_on_c, 52
1, 37684, Note_on_c, 57
1, 37684, Note_on_c, 61
1, 37684, Note_on_c, 52
1, 37684, Note_on_c, 57
1, 37684, Note_on_c, 61
1, 37684, Note_on_c, 85
1, 37684, Note_on_c, 85
1, 37920, Note_off_c, 85
1, 37920, Note_off_c, 85
1, 37920, Note_off_c, 61
1, 37920, Note_off_c, 57
1, 37920, Note_off_c, 52
1, 37920, Note_off_c, 61
1, 37920, Note_off_c, 57
1, 37920, Note_off_c, 52
1, 37924, Note_on_c, 52
1, 37924, Note_on_c, 57
1, 37924, Note_on_c, 61
1, 37924, Note_on_c, 52
1, 37924, Note_on_c, 57
1, 37924, Note_on_c, 61
1, 37924, Note_on_c, 83
1, 37924, Note_on_c, 32
1, 37924, Note_on_c, 83
1, 38160, Note_off_c, 83
1, 38160, Note_off_c, 32
1, 38160, Note_off_c, 83
1, 38160, Note_off_c, 61
1, 38160, Note_off_c, 57
1, 38160, Note_off_c, 52
1, 38160, Note_off_c, 61
1, 38160, Note_off_c, 57
1, 38160, Note_off_c, 52
1, 38164, Note_on_c, 52
1, 38164, Note_on_c, 57
1, 38164, Note_on_c, 61
1, 38164, Note_on_c, 52
1, 38164, Note_on_c, 57
1, 38164, Note_on_c, 61
1, 38164, Note_on_c, 80
1, 38164, Note_on_c, 80
1, 38400, Note_off_c, 80
1, 38400, Note_off_c, 80
1, 38400, Note_off_c, 61
1, 38400, Note_off_c, 57
1, 38400, Note_off_c, 52
1, 38400, Note_off_c, 61
1, 38400, Note_off_c, 57
1, 38400, Note_off_c, 52
1, 38400, Note_off_c, 85
1, 38404, Note_on_c, 56
1, 38404, Note_on_c, 61
1, 38404, Note_on_c, 66
1, 38404, Note_on_c, 56
1, 38404, Note_on_c, 61
1, 38404, Note_on_c, 66
1, 38404, Note_on_c, 78
1, 38404, Note_on_c, 76
1, 38404, Note_on_c, 32
1, 38404, Note_on_c, 78
1, 38640, Note_off_c, 78
1, 38640, Note_off_c, 32
1, 38640, Note_off_c, 78
1, 38640, Note_off_c, 66
1, 38640, Note_off_c, 61
1, 38640, Note_off_c, 56
1, 38640, Note_off_c, 66
1, 38640, Note_off_c, 61
1, 38640, Note_off_c, 56
1, 38644, Note_on_c, 56
1, 38644, Note_on_c, 61
1, 38644, Note_on_c, 64
1, 38644, Note_on_c, 56
1, 38644, Note_on_c, 61
1, 38644, Note_on_c, 64
1, 38644, Note_on_c, 76
1, 38644, Note_on_c, 76
1, 38880, Note_off_c, 76
1, 38880, Note_off_c, 76
1, 38880, Note_off_c, 64
1, 38880, Note_off_c, 61
1, 38880, Note_off_c, 56
1, 38880, Note_off_c, 64
1, 38880, Note_off_c, 61
1, 38880, Note_off_c, 56
1, 38884, Note_on_c, 56
1, 38884, Note_on_c, 61
1, 38884, Note_on_c, 64
1, 38884, Note_on_c, 56
1, 38884, Note_on_c, 61
1, 38884, Note_on_c, 64
1, 38884, Note_on_c, 76
1, 38884, Note_on_c, 32
1, 38884, Note_on_c, 76
1, 39120, Note_off_c, 76
1, 39120, Note_off_c, 32
1, 39120, Note_off_c, 76
1, 39120, Note_off_c, 64
1, 39120, Note_off_c, 61
1, 39120, Note_off_c, 56
1, 39120, Note_off_c, 64
1, 39120, Note_off_c, 61
1, 39120, Note_off_c, 56
1, 39364, Note_on_c, 56
1, 39364, Note_on_c, 59
1, 39364, Note_on_c, 64
1, 39364, Note_on_c, 56
1, 39364, Note_on_c, 59
1, 39364, Note_on_c, 64
1, 39364, Note_on_c, 76
1, 39364, Note_on_c, 32
1, 39364, Note_on_c, 76
1, 39600, Note_off_c, 76
1, 39600, Note_off_c, 32
1, 39600, Note_off_c, 76
1, 39600, Note_off_c, 64
1, 39600, Note_off_c, 59
1, 39600, Note_off_c, 56
1, 39600, Note_off_c, 64
1, 39600, Note_off_c, 59
1, 39600, Note_off_c, 56
1, 39604, Note_on_c, 56
1, 39604, Note_on_c, 59
1, 39604, Note_on_c, 64
1, 39604, Note_on_c, 56
1, 39604, Note_on_c, 59
1, 39604, Note_on_c, 64
1, 39604, Note_on_c, 76
1, 39604, Note_on_c, 76
1, 39840, Note_off_c, 76
1, 39840, Note_off_c, 76
1, 39840, Note_off_c, 64
1, 39840, Note_off_c, 59
1, 39840, Note_off_c, 56
1, 39840, Note_off_c, 64
1, 39840, Note_off_c, 59
1, 39840, Note_off_c, 56
1, 39844, Note_on_c, 56
1, 39844, Note_on_c, 59
1, 39844, Note_on_c, 64
1, 39844, Note_on_c, 56
1, 39844, Note_on_c, 59
1, 39844, Note_on_c, 64
1, 39844, Note_on_c, 76
1, 39844, Note_on_c, 32
1, 39844, Note_on_c, 76
1, 40080, Note_off_c, 76
1, 40080, Note_off_c, 32
1, 40080, Note_off_c, 76
1, 40080, Note_off_c, 64
1, 40080, Note_off_c, 59
1, 40080, Note_off_c, 56
1, 40080, Note_off_c, 64
1, 40080, Note_off_c, 59
1, 40080, Note_off_c, 56
1, 40084, Note_on_c, 56
1, 40084, Note_on_c, 59
1, 40084, Note_on_c, 64
1, 40084, Note_on_c, 56
1, 40084, Note_on_c, 59
1, 40084, Note_on_c, 64
1, 40084, Note_on_c, 76
1, 40084, Note_on_c, 76
1, 40320, Note_off_c, 76
1, 40320, Note_off_c, 76
1, 40320, Note_off_c, 64
1, 40320, Note_off_c, 59
1, 40320, Note_off_c, 56
1, 40320, Note_off_c, 64
1, 40320, Note_off_c, 59
1, 40320, Note_off_c, 56
1, 40320, Note_off_c, 76
1, 40324, Note_on_c, 54
1, 40324, Note_on_c, 59
1, 40324, Note_on_c, 63
1, 40324, Note_on_c, 54
1, 40324, Note_on_c, 59
1, 40324, Note_on_c, 63
1, 40324, Note_on_c, 75
1, 40324, Note_on_c, 85
1, 40324, Note_on_c, 32
1, 40324, Note_on_c, 75
1, 40560, Note_off_c, 75
1, 40560, Note_off_c, 32
1, 40560, Note_off_c, 75
1, 40560, Note_off_c, 63
1, 40560, Note_off_c, 59
1, 40560, Note_off_c, 54
1, 40560, Note_off_c, 63
1, 40560, Note_off_c, 59
1, 40560, Note_off_c, 54
1, 40564, Note_on_c, 54
1, 40564, Note_on_c, 59
1, 40564, Note_on_c, 63
1, 40564, Note_on_c, 54
1, 40564, Note_on_c, 59
1, 40564, Note_on_c, 63
1, 40564, Note_on_c, 75
1, 40564, Note_on_c, 75
1, 40800, Note_off_c, 75
1, 40800, Note_off_c, 75
1, 40800, Note_off_c, 63
1, 40800, Note_off_c, 59
1, 40800, Note_off_c, 54
1, 40800, Note_off_c, 63
1, 40800, Note_off_c, 59
1, 40800, Note_off_c, 54
1, 40804, Note_on_c, 54
1, 40804, Note_on_c, 59
1, 40804, Note_on_c, 63
1, 40804, Note_on_c, 54
1, 40804, Note_on_c, 59
1, 40804, Note_on_c, 63
1, 40804, Note_on_c, 76
1, 40804, Note_on_c, 32
1, 40804, Note_on_c, 76
1, 41040, Note_off_c, 76
1, 41040, Note_off_c, 32
1, 41040, Note_off_c, 76
1, 41040, Note_off_c, 63
1, 41040, Note_off_c, 59
1, 41040, Note_off_c, 54
1, 41040, Note_off_c, 63
1, 41040, Note_off_c, 59
1, 41040, Note_off_c, 54
1, 41044, Note_on_c, 52
1, 41044, Note_on_c, 57
1, 41044, Note_on_c, 61
1, 41044, Note_on_c, 52
1, 41044, Note_on_c, 57
1, 41044, Note_on_c, 61
1, 41044, Note_on_c, 76
1, 41044, Note_on_c, 29
1, 41044, Note_on_c, 76
1, 41280, Note_off_c, 76
1, 41280, Note_off_c, 29
1, 41280, Note_off_c, 76
1, 41280, Note_off_c, 61
1, 41280, Note_off_c, 57
1, 41280, Note_off_c, 52
1, 41280, Note_off_c, 61
1, 41280, Note_off_c, 57
1, 41280, Note_off_c, 52
1, 41284, Note_on_c, 32
1, 41520, Note_off_c, 32
1, 41524, Note_on_c, 52
1, 41524, Note_on_c, 57
1, 41524, Note_on_c, 61
1, 41524, Note_on_c, 52
1, 41524, Note_on_c, 57
1, 41524, Note_on_c, 61
1, 41524, Note_on_c, 85
1, 41524, Note_on_c, 85
1, 41760, Note_off_c, 85
1, 41760, Note_off_c, 85
1, 41760, Note_off_c, 61
1, 41760, Note_off_c, 57
1, 41760, Note_off_c, 52
1, 41760, Note_off_c, 61
1, 41760, Note_off_c, 57
1, 41760, Note_off_c, 52
1, 41764, Note_on_c, 52
1, 41764, Note_on_c, 57
1, 41764, Note_on_c, 61
1, 41764, Note_on_c, 52
1, 41764, Note_on_c, 57
1, 41764, Note_on_c, 61
1, 41764, Note_on_c, 83
1, 41764, Note_on_c, 32
1, 41764, Note_on_c, 83
1, 42000, Note_off_c, 83
1, 42000, Note_off_c, 32
1, 42000, Note_off_c, 83
1, 42000, Note_off_c, 61
1, 42000, Note_off_c, 57
1, 42000, Note_off_c, 52
1, 42000, Note_off_c, 61
1, 42000, Note_off_c, 57
1, 42000, Note_off_c, 52
1, 42004, Note_on_c, 52
1, 42004, Note_on_c, 57
1, 42004, Note_on_c, 61
1, 42004, Note_on_c, 52
1, 42004, Note_on_c, 57
1, 42004, Note_on_c, 61
1, 42004, Note_on_c, 80
1, 42004, Note_on_c, 80
1, 42240, Note_off_c, 80
1, 42240, Note_off_c, 80
1, 42240, Note_off_c, 61
1, 42240, Note_off_c, 57
1, 42240, Note_off_c, 52
1, 42240, Note_off_c, 61
1, 42240, Note_off_c, 57
1, 42240, Note_off_c, 52
1, 42240, Note_off_c, 85
1, 42244, Note_on_c, 56
1, 42244, Note_on_c, 61
1, 42244, Note_on_c, 66
1, 42244, Note_on_c, 56
1, 42244, Note_on_c, 61
1, 42244, Note_on_c, 66
1, 42244, Note_on_c, 78
1, 42244, Note_on_c, 76
1, 42244, Note_on_c, 32
1, 42244, Note_on_c, 60
1, 42244, Note_on_c, 78
1, 42480, Note_off_c, 78
1, 42480, Note_off_c, 32
1, 42480, Note_off_c, 78
1, 42480, Note_off_c, 66
1, 42480, Note_off_c, 61
1, 42480, Note_off_c, 56
1, 42480, Note_off_c, 66
1, 42480, Note_off_c, 61
1, 42480, Note_off_c, 56
1, 42484, Note_on_c, 56
1, 42484, Note_on_c, 61
1, 42484, Note_on_c, 64
1, 42484, Note_on_c, 56
1, 42484, Note_on_c, 61
1, 42484, Note_on_c, 64
1, 42484, Note_on_c, 76
1, 42484, Note_on_c, 76
1, 42720, Note_off_c, 76
1, 42720, Note_off_c, 76
1, 42720, Note_off_c, 64
1, 42720, Note_off_c, 61
1, 42720, Note_off_c, 56
1, 42720, Note_off_c, 64
1, 42720, Note_off_c, 61
1, 42720, Note_off_c, 56
1, 42724, Note_on_c, 56
1, 42724, Note_on_c, 61
1, 42724, Note_on_c, 64
1, 42724, Note_on_c, 56
1, 42724, Note_on_c, 61
1, 42724, Note_on_c, 64
1, 42724, Note_on_c, 76
1, 42724, Note_on_c, 32
1, 42724, Note_on_c, 76
1, 42960, Note_off_c, 76
1, 42960, Note_off_c, 32
1, 42960, Note_off_c, 76
1, 42960, Note_off_c, 64
1, 42960, Note_off_c, 61
1, 42960, Note_off_c, 56
1, 42960, Note_off_c, 64
1, 42960, Note_off_c, 61
1, 42960, Note_off_c, 56
1, 43204, Note_on_c, 56
1, 43204, Note_on_c, 59
1, 43204, Note_on_c, 64
1, 43204, Note_on_c, 56
1, 43204, Note_on_c, 59
1, 43204, Note_on_c, 64
1, 43204, Note_on_c, 76
1, 43204, Note_on_c, 32
1, 43204, Note_on_c, 76
1, 43440, Note_off_c, 76
1, 43440, Note_off_c, 32
1, 43440, Note_off_c, 76
1, 43440, Note_off_c, 64
1, 43440, Note_off_c, 59
1, 43440, Note_off_c, 56
1, 43440, Note_off_c, 64
1, 43440, Note_off_c, 59
1, 43440, Note_off_c, 56
1, 43444, Note_on_c, 56
1, 43444, Note_on_c, 59
1, 43444, Note_on_c, 64
1, 43444, Note_on_c, 56
1, 43444, Note_on_c, 59
1, 43444, Note_on_c, 64
1, 43444, Note_on_c, 76
1, 43444, Note_on_c, 76
1, 43680, Note_off_c, 76
1, 43680, Note_off_c, 76
1, 43680, Note_off_c, 64
1, 43680, Note_off_c, 59
1, 43680, Note_off_c, 56
1, 43680, Note_off_c, 64
1, 43680, Note_off_c, 59
1, 43680, Note_off_c, 56
1, 43684, Note_on_c, 56
1, 43684, Note_on_c, 59
1, 43684, Note_on_c, 64
1, 43684, Note_on_c, 56
1, 43684, Note_on_c, 59
1, 43684, Note_on_c, 64
1, 43684, Note_on_c, 76
1, 43684, Note_on_c, 32
1, 43684, Note_on_c, 76
1, 43920, Note_off_c, 76
1, 43920, Note_off_c, 32
1, 43920, Note_off_c, 76
1, 43920, Note_off_c, 64
1, 43920, Note_off_c, 59
1, 43920, Note_off_c, 56
1, 43920, Note_off_c, 64
1, 43920, Note_off_c, 59
1, 43920, Note_off_c, 56
1, 43924, Note_on_c, 56
1, 43924, Note_on_c, 59
1, 43924, Note_on_c, 64
1, 43924, Note_on_c, 56
1, 43924, Note_on_c, 59
1, 43924, Note_on_c, 64
1, 43924, Note_on_c, 76
1, 43924, Note_on_c, 76
1, 44160, Note_off_c, 76
1, 44160, Note_off_c, 76
1, 44160, Note_off_c, 64
1, 44160, Note_off_c, 59
1, 44160, Note_off_c, 56
1, 44160, Note_off_c, 64
1, 44160, Note_off_c, 59
1, 44160, Note_off_c, 56
1, 44160, Note_off_c, 76
1, 44164, Note_on_c, 54
1, 44164, Note_on_c, 59
1, 44164, Note_on_c, 63
1, 44164, Note_on_c, 54
1, 44164, Note_on_c, 59
1, 44164, Note_on_c, 63
1, 44164, Note_on_c, 73
1, 44164, Note_on_c, 85
1, 44164, Note_on_c, 32
1, 44164, Note_on_c, 73
1, 44400, Note_off_c, 73
1, 44400, Note_off_c, 32
1, 44400, Note_off_c, 73
1, 44400, Note_off_c, 63
1, 44400, Note_off_c, 59
1, 44400, Note_off_c, 54
1, 44400, Note_off_c, 63
1, 44400, Note_off_c, 59
1, 44400, Note_off_c, 54
1, 44404, Note_on_c, 54
1, 44404, Note_on_c, 59
1, 44404, Note_on_c, 63
1, 44404, Note_on_c, 54
1, 44404, Note_on_c, 59
1, 44404, Note_on_c, 63
1, 44404, Note_on_c, 73
1, 44404, Note_on_c, 73
1, 44640, Note_off_c, 73
1, 44640, Note_off_c, 73
1, 44640, Note_off_c, 63
1, 44640, Note_off_c, 59
1, 44640, Note_off_c, 54
1, 44640, Note_off_c, 63
1, 44640, Note_off_c, 59
1, 44640, Note_off_c, 54
1, 44644, Note_on_c, 54
1, 44644, Note_on_c, 59
1, 44644, Note_on_c, 63
1, 44644, Note_on_c, 54
1, 44644, Note_on_c, 59
1, 44644, Note_on_c, 63
1, 44644, Note_on_c, 71
1, 44644, Note_on_c, 32
1, 44644, Note_on_c, 71
1, 44880, Note_off_c, 71
1, 44880, Note_off_c, 32
1, 44880, Note_off_c, 71
1, 44880, Note_off_c, 63
1, 44880, Note_off_c, 59
1, 44880, Note_off_c, 54
1, 44880, Note_off_c, 63
1, 44880, Note_off_c, 59
1, 44880, Note_off_c, 54
1, 44884, Note_on_c, 52
1, 44884, Note_on_c, 57
1, 44884, Note_on_c, 61
1, 44884, Note_on_c, 52
1, 44884, Note_on_c, 57
1, 44884, Note_on_c, 61
1, 44884, Note_on_c, 71
1, 44884, Note_on_c, 29
1, 44884, Note_on_c, 71
1, 45120, Note_off_c, 71
1, 45120, Note_off_c, 29
1, 45120, Note_off_c, 71
1, 45120, Note_off_c, 61
1, 45120, Note_off_c, 57
1, 45120, Note_off_c, 52
1, 45120, Note_off_c, 61
1, 45120, Note_off_c, 57
1, 45120, Note_off_c, 52
1, 45124, Note_on_c, 32
1, 45360, Note_off_c, 32
1, 45364, Note_on_c, 52
1, 45364, Note_on_c, 57
1, 45364, Note_on_c, 61
1, 45364, Note_on_c, 52
1, 45364, Note_on_c, 57
1, 45364, Note_on_c, 61
1, 45364, Note_on_c, 85
1, 45364, Note_on_c, 85
1, 45600, Note_off_c, 85
1, 45600, Note_off_c, 85
1, 45600, Note_off_c, 61
1, 45600, Note_off_c, 57
1, 45600, Note_off_c, 52
1, 45600, Note_off_c, 61
1, 45600, Note_off_c, 57
1, 45600, Note_off_c, 52
1, 45604, Note_on_c, 52
1, 45604, Note_on_c, 57
1, 45604, Note_on_c, 61
1, 45604, Note_on_c, 52
1, 45604, Note_on_c, 57
1, 45604, Note_on_c, 61
1, 45604, Note_on_c, 83
1, 45604, Note_on_c, 32
1, 45604, Note_on_c, 83
1, 45840, Note_off_c, 83
1, 45840, Note_off_c, 32
1, 45840, Note_off_c, 83
1, 45840, Note_off_c, 61
1, 45840, Note_off_c, 57
1, 45840, Note_off_c, 52
1, 45840, Note_off_c, 61
1, 45840, Note_off_c, 57
1, 45840, Note_off_c, 52
1, 45844, Note_on_c, 52
1, 45844, Note_on_c, 57
1, 45844, Note_on_c, 61
1, 45844, Note_on_c, 52
1, 45844, Note_on_c, 57
1, 45844, Note_on_c, 61
1, 45844, Note_on_c, 80
1, 45844, Note_on_c, 80
1, 46080, Note_off_c, 80
1, 46080, Note_off_c, 80
1, 46080, Note_off_c, 61
1, 46080, Note_off_c, 57
1, 46080, Note_off_c, 52
1, 46080, Note_off_c, 61
1, 46080, Note_off_c, 57
1, 46080, Note_off_c, 52
1, 46080, Note_off_c, 85
1, 46080, Note_off_c, 60
1, 46084, Note_on_c, 56
1, 46084, Note_on_c, 61
1, 46084, Note_on_c, 66
1, 46084, Note_on_c, 56
1, 46084, Note_on_c, 61
1, 46084, Note_on_c, 66
1, 46084, Note_on_c, 78
1, 46084, Note_on_c, 76
1, 46084, Note_on_c, 32
1, 46084, Note_on_c, 36
1, 46084, Note_on_c, 42
1, 46084, Note_on_c, 84
1, 46084, Note_on_c, 78
1, 46200, Note_off_c, 42
1, 46320, Note_off_c, 78
1, 46320, Note_off_c, 36
1, 46320, Note_off_c, 32
1, 46320, Note_off_c, 78
1, 46320, Note_off_c, 66
1, 46320, Note_off_c, 61
1, 46320, Note_off_c, 56
1, 46320, Note_off_c, 66
1, 46320, Note_off_c, 61
1, 46320, Note_off_c, 56
1, 46324, Note_on_c, 56
1, 46324, Note_on_c, 61
1, 46324, Note_on_c, 64
1, 46324, Note_on_c, 37
1, 46324, Note_on_c, 56
1, 46324, Note_on_c, 61
1, 46324, Note_on_c, 64
1, 46324, Note_on_c, 76
1, 46324, Note_on_c, 42
1, 46324, Note_on_c, 82
1, 46324, Note_on_c, 76
1, 46356, Note_off_c, 82
1, 46440, Note_off_c, 42
1, 46444, Note_on_c, 42
1, 46560, Note_off_c, 42
1, 46560, Note_off_c, 76
1, 46560, Note_off_c, 76
1, 46560, Note_off_c, 64
1, 46560, Note_off_c, 61
1, 46560, Note_off_c, 56
1, 46560, Note_off_c, 37
1, 46560, Note_off_c, 64
1, 46560, Note_off_c, 61
1, 46560, Note_off_c, 56
1, 46564, Note_on_c, 56
1, 46564, Note_on_c, 61
1, 46564, Note_on_c, 64
1, 46564, Note_on_c, 56
1, 46564, Note_on_c, 61
1, 46564, Note_on_c, 64
1, 46564, Note_on_c, 76
1, 46564, Note_on_c, 32
1, 46564, Note_on_c, 36
1, 46564, Note_on_c, 37
1, 46564, Note_on_c, 42
1, 46564, Note_on_c, 76
1, 46680, Note_off_c, 42
1, 46800, Note_off_c, 76
1, 46800, Note_off_c, 37
1, 46800, Note_off_c, 36
1, 46800, Note_off_c, 32
1, 46800, Note_off_c, 76
1, 46800, Note_off_c, 64
1, 46800, Note_off_c, 61
1, 46800, Note_off_c, 56
1, 46800, Note_off_c, 64
1, 46800, Note_off_c, 61
1, 46800, Note_off_c, 56
1, 46804, Note_on_c, 42
1, 46804, Note_on_c, 82
1, 46840, Note_off_c, 82
1, 46920, Note_off_c, 42
1, 46924, Note_on_c, 42
1, 47040, Note_off_c, 42
1, 47044, Note_on_c, 56
1, 47044, Note_on_c, 59
1, 47044, Note_on_c, 64
1, 47044, Note_on_c, 56
1, 47044, Note_on_c, 59
1, 47044, Note_on_c, 64
1, 47044, Note_on_c, 76
1, 47044, Note_on_c, 32
1, 47044, Note_on_c, 36
1, 47044, Note_on_c, 42
1, 47044, Note_on_c, 76
1, 47160, Note_off_c, 42
1, 47280, Note_off_c, 76
1, 47280, Note_off_c, 36
1, 47280, Note_off_c, 32
1, 47280, Note_off_c, 76
1, 47280, Note_off_c, 64
1, 47280, Note_off_c, 59
1, 47280, Note_off_c, 56
1, 47280, Note_off_c, 64
1, 47280, Note_off_c, 59
1, 47280, Note_off_c, 56
1, 47284, Note_on_c, 56
1, 47284, Note_on_c, 59
1, 47284, Note_on_c, 64
1, 47284, Note_on_c, 40
1, 47284, Note_on_c, 56
1, 47284, Note_on_c, 59
1, 47284, Note_on_c, 64
1, 47284, Note_on_c, 76
1, 47284, Note_on_c, 42
1, 47284, Note_on_c, 82
1, 47284, Note_on_c, 76
1, 47332, Note_off_c, 82
1, 47400, Note_off_c, 42
1, 47404, Note_on_c, 42
1, 47520, Note_off_c, 42
1, 47520, Note_off_c, 76
1, 47520, Note_off_c, 76
1, 47520, Note_off_c, 64
1, 47520, Note_off_c, 59
1, 47520, Note_off_c, 56
1, 47520, Note_off_c, 40
1, 47520, Note_off_c, 64
1, 47520, Note_off_c, 59
1, 47520, Note_off_c, 56
1, 47524, Note_on_c, 56
1, 47524, Note_on_c, 59
1, 47524, Note_on_c, 64
1, 47524, Note_on_c, 56
1, 47524, Note_on_c, 59
1, 47524, Note_on_c, 64
1, 47524, Note_on_c, 76
1, 47524, Note_on_c, 32
1, 47524, Note_on_c, 36
1, 47524, Note_on_c, 37
1, 47524, Note_on_c, 42
1, 47524, Note_on_c, 76
1, 47640, Note_off_c, 42
1, 47760, Note_off_c, 76
1, 47760, Note_off_c, 37
1, 47760, Note_off_c, 36
1, 47760, Note_off_c, 32
1, 47760, Note_off_c, 76
1, 47760, Note_off_c, 64
1, 47760, Note_off_c, 59
1, 47760, Note_off_c, 56
1, 47760, Note_off_c, 64
1, 47760, Note_off_c, 59
1, 47760, Note_off_c, 56
1, 47764, Note_on_c, 56
1, 47764, Note_on_c, 59
1, 47764, Note_on_c, 64
1, 47764, Note_on_c, 40
1, 47764, Note_on_c, 56
1, 47764, Note_on_c, 59
1, 47764, Note_on_c, 64
1, 47764, Note_on_c, 76
1, 47764, Note_on_c, 42
1, 47764, Note_on_c, 82
1, 47764, Note_on_c, 76
1, 47816, Note_off_c, 82
1, 47880, Note_off_c, 42
1, 47884, Note_on_c, 42
1, 48000, Note_off_c, 42
1, 48000, Note_off_c, 76
1, 48000, Note_off_c, 76
1, 48000, Note_off_c, 64
1, 48000, Note_off_c, 59
1, 48000, Note_off_c, 56
1, 48000, Note_off_c, 40
1, 48000, Note_off_c, 64
1, 48000, Note_off_c, 59
1, 48000, Note_off_c, 56
1, 48000, Note_off_c, 76
1, 48004, Note_on_c, 54
1, 48004, Note_on_c, 59
1, 48004, Note_on_c, 63
1, 48004, Note_on_c, 54
1, 48004, Note_on_c, 59
1, 48004, Note_on_c, 63
1, 48004, Note_on_c, 75
1, 48004, Note_on_c, 85
1, 48004, Note_on_c, 32
1, 48004, Note_on_c, 36
1, 48004, Note_on_c, 42
1, 48004, Note_on_c, 75
1, 48120, Note_off_c, 42
1, 48240, Note_off_c, 75
1, 48240, Note_off_c, 36
1, 48240, Note_off_c, 32
1, 48240, Note_off_c, 75
1, 48240, Note_off_c, 63
1, 48240, Note_off_c, 59
1, 48240, Note_off_c, 54
1, 48240, Note_off_c, 63
1, 48240, Note_off_c, 59
1, 48240, Note_off_c, 54
1, 48244, Note_on_c, 54
1, 48244, Note_on_c, 59
1, 48244, Note_on_c, 63
1, 48244, Note_on_c, 35
1, 48244, Note_on_c, 54
1, 48244, Note_on_c, 59
1, 48244, Note_on_c, 63
1, 48244, Note_on_c, 75
1, 48244, Note_on_c, 42
1, 48244, Note_on_c, 82
1, 48244, Note_on_c, 75
1, 48296, Note_off_c, 82
1, 48360, Note_off_c, 42
1, 48364, Note_on_c, 42
1, 48480, Note_off_c, 42
1, 48480, Note_off_c, 75
1, 48480, Note_off_c, 75
1, 48480, Note_off_c, 63
1, 48480, Note_off_c, 59
1, 48480, Note_off_c, 54
1, 48480, Note_off_c, 35
1, 48480, Note_off_c, 63
1, 48480, Note_off_c, 59
1, 48480, Note_off_c, 54
1, 48484, Note_on_c, 54
1, 48484, Note_on_c, 59
1, 48484, Note_on_c, 63
1, 48484, Note_on_c, 54
1, 48484, Note_on_c, 59
1, 48484, Note_on_c, 63
1, 48484, Note_on_c, 76
1, 48484, Note_on_c, 32
1, 48484, Note_on_c, 36
1, 48484, Note_on_c, 37
1, 48484, Note_on_c, 42
1, 48484, Note_on_c, 76
1, 48600, Note_off_c, 42
1, 48720, Note_off_c, 76
1, 48720, Note_off_c, 37
1, 48720, Note_off_c, 36
1, 48720, Note_off_c, 32
1, 48720, Note_off_c, 76
1, 48720, Note_off_c, 63
1, 48720, Note_off_c, 59
1, 48720, Note_off_c, 54
1, 48720, Note_off_c, 63
1, 48720, Note_off_c, 59
1, 48720, Note_off_c, 54
1, 48724, Note_on_c, 52
1, 48724, Note_on_c, 57
1, 48724, Note_on_c, 61
1, 48724, Note_on_c, 33
1, 48724, Note_on_c, 52
1, 48724, Note_on_c, 57
1, 48724, Note_on_c, 61
1, 48724, Note_on_c, 76
1, 48724, Note_on_c, 29
1, 48724, Note_on_c, 42
1, 48724, Note_on_c, 82
1, 48724, Note_on_c, 76
1, 48780, Note_off_c, 82
1, 48840, Note_off_c, 42
1, 48844, Note_on_c, 42
1, 48960, Note_off_c, 42
1, 48960, Note_off_c, 76
1, 48960, Note_off_c, 29
1, 48960, Note_off_c, 76
1, 48960, Note_off_c, 61
1, 48960, Note_off_c, 57
1, 48960, Note_off_c, 52
1, 48960, Note_off_c, 33
1, 48960, Note_off_c, 61
1, 48960, Note_off_c, 57
1, 48960, Note_off_c, 52
1, 48964, Note_on_c, 32
1, 48964, Note_on_c, 36
1, 48964, Note_on_c, 42
1, 49080, Note_off_c, 42
1, 49084, Note_on_c, 70
1, 49200, Note_off_c, 36
1, 49200, Note_off_c, 32
1, 49204, Note_on_c, 52
1, 49204, Note_on_c, 57
1, 49204, Note_on_c, 61
1, 49204, Note_on_c, 33
1, 49204, Note_on_c, 52
1, 49204, Note_on_c, 57
1, 49204, Note_on_c, 61
1, 49204, Note_on_c, 85
1, 49204, Note_on_c, 42
1, 49204, Note_on_c, 82
1, 49204, Note_on_c, 85
1, 49244, Note_off_c, 82
1, 49320, Note_off_c, 42
1, 49320, Note_off_c, 70
1, 49324, Note_on_c, 42
1, 49440, Note_off_c, 42
1, 49440, Note_off_c, 85
1, 49440, Note_off_c, 85
1, 49440, Note_off_c, 61
1, 49440, Note_off_c, 57
1, 49440, Note_off_c, 52
1, 49440, Note_off_c, 33
1, 49440, Note_off_c, 61
1, 49440, Note_off_c, 57
1, 49440, Note_off_c, 52
1, 49444, Note_on_c, 52
1, 49444, Note_on_c, 57
1, 49444, Note_on_c, 61
1, 49444, Note_on_c, 52
1, 49444, Note_on_c, 57
1, 49444, Note_on_c, 61
1, 49444, Note_on_c, 83
1, 49444, Note_on_c, 32
1, 49444, Note_on_c, 36
1, 49444, Note_on_c, 37
1, 49444, Note_on_c, 42
1, 49444, Note_on_c, 83
1, 49560, Note_off_c, 42
1, 49680, Note_off_c, 83
1, 49680, Note_off_c, 37
1, 49680, Note_off_c, 36
1, 49680, Note_off_c, 32
1, 49680, Note_off_c, 83
1, 49680, Note_off_c, 61
1, 49680, Note_off_c, 57
1, 49680, Note_off_c, 52
1, 49680, Note_off_c, 61
1, 49680, Note_off_c, 57
1, 49680, Note_off_c, 52
1, 49684, Note_on_c, 52
1, 49684, Note_on_c, 57
1, 49684, Note_on_c, 61
1, 49684, Note_on_c, 33
1, 49684, Note_on_c, 52
1, 49684, Note_on_c, 57
1, 49684, Note_on_c, 61
1, 49684, Note_on_c, 80
1, 49684, Note_on_c, 42
1, 49684, Note_on_c, 82
1, 49684, Note_on_c, 80
1, 49724, Note_off_c, 82
1, 49800, Note_off_c, 42
1, 49804, Note_on_c, 42
1, 49920, Note_off_c, 42
1, 49920, Note_off_c, 80
1, 49920, Note_off_c, 80
1, 49920, Note_off_c, 61
1, 49920, Note_off_c, 57
1, 49920, Note_off_c, 52
1, 49920, Note_off_c, 33
1, 49920, Note_off_c, 61
1, 49920, Note_off_c, 57
1, 49920, Note_off_c, 52
1, 49920, Note_off_c, 85
1, 49920, Note_off_c, 84
1, 49924, Note_on_c, 56
1, 49924, Note_on_c, 61
1, 49924, Note_on_c, 66
1, 49924, Note_on_c, 56
1, 49924, Note_on_c, 61
1, 49924, Note_on_c, 66
1, 49924, Note_on_c, 78
1, 49924, Note_on_c, 76
1, 49924, Note_on_c, 32
1, 49924, Note_on_c, 36
1, 49924, Note_on_c, 42
1, 49924, Note_on_c, 78
1, 50040, Note_off_c, 42
1, 50160, Note_off_c, 78
1, 50160, Note_off_c, 36
1, 50160, Note_off_c, 32
1, 50160, Note_off_c, 78
1, 50160, Note_off_c, 66
1, 50160, Note_off_c, 61
1, 50160, Note_off_c, 56
1, 50160, Note_off_c, 66
1, 50160, Note_off_c, 61
1, 50160, Note_off_c, 56
1, 50164, Note_on_c, 56
1, 50164, Note_on_c, 61
1, 50164, Note_on_c, 64
1, 50164, Note_on_c, 37
1, 50164, Note_on_c, 56
1, 50164, Note_on_c, 61
1, 50164, Note_on_c, 64
1, 50164, Note_on_c, 76
1, 50164, Note_on_c, 42
1, 50164, Note_on_c, 82
1, 50164, Note_on_c, 76
1, 50196, Note_off_c, 82
1, 50280, Note_off_c, 42
1, 50284, Note_on_c, 42
1, 50400, Note_off_c, 42
1, 50400, Note_off_c, 76
1, 50400, Note_off_c, 76
1, 50400, Note_off_c, 64
1, 50400, Note_off_c, 61
1, 50400, Note_off_c, 56
1, 50400, Note_off_c, 37
1, 50400, Note_off_c, 64
1, 50400, Note_off_c, 61
1, 50400, Note_off_c, 56
1, 50404, Note_on_c, 56
1, 50404, Note_on_c, 61
1, 50404, Note_on_c, 64
1, 50404, Note_on_c, 56
1, 50404, Note_on_c, 61
1, 50404, Note_on_c, 64
1, 50404, Note_on_c, 76
1, 50404, Note_on_c, 32
1, 50404, Note_on_c, 36
1, 50404, Note_on_c, 37
1, 50404, Note_on_c, 42
1, 50404, Note_on_c, 76
1, 50520, Note_off_c, 42
1, 50640, Note_off_c, 76
1, 50640, Note_off_c, 37
1, 50640, Note_off_c, 36
1, 50640, Note_off_c, 32
1, 50640, Note_off_c, 76
1, 50640, Note_off_c, 64
1, 50640, Note_off_c, 61
1, 50640, Note_off_c, 56
1, 50640, Note_off_c, 64
1, 50640, Note_off_c, 61
1, 50640, Note_off_c, 56
1, 50644, Note_on_c, 42
1, 50644, Note_on_c, 82
1, 50680, Note_off_c, 82
1, 50760, Note_off_c, 42
1, 50764, Note_on_c, 42
1, 50880, Note_off_c, 42
1, 50884, Note_on_c, 56
1, 50884, Note_on_c, 59
1, 50884, Note_on_c, 64
1, 50884, Note_on_c, 56
1, 50884, Note_on_c, 59
1, 50884, Note_on_c, 64
1, 50884, Note_on_c, 76
1, 50884, Note_on_c, 32
1, 50884, Note_on_c, 36
1, 50884, Note_on_c, 42
1, 50884, Note_on_c, 76
1, 51000, Note_off_c, 42
1, 51120, Note_off_c, 76
1, 51120, Note_off_c, 36
1, 51120, Note_off_c, 32
1, 51120, Note_off_c, 76
1, 51120, Note_off_c, 64
1, 51120, Note_off_c, 59
1, 51120, Note_off_c, 56
1, 51120, Note_off_c, 64
1, 51120, Note_off_c, 59
1, 51120, Note_off_c, 56
1, 51124, Note_on_c, 56
1, 51124, Note_on_c, 59
1, 51124, Note_on_c, 64
1, 51124, Note_on_c, 40
1, 51124, Note_on_c, 56
1, 51124, Note_on_c, 59
1, 51124, Note_on_c, 64
1, 51124, Note_on_c, 76
1, 51124, Note_on_c, 42
1, 51124, Note_on_c, 82
1, 51124, Note_on_c, 76
1, 51172, Note_off_c, 82
1, 51240, Note_off_c, 42
1, 51244, Note_on_c, 42
1, 51360, Note_off_c, 42
1, 51360, Note_off_c, 76
1, 51360, Note_off_c, 76
1, 51360, Note_off_c, 64
1, 51360, Note_off_c, 59
1, 51360, Note_off_c, 56
1, 51360, Note_off_c, 40
1, 51360, Note_off_c, 64
1, 51360, Note_off_c, 59
1, 51360, Note_off_c, 56
1, 51364, Note_on_c, 56
1, 51364, Note_on_c, 59
1, 51364, Note_on_c, 64
1, 51364, Note_on_c, 56
1, 51364, Note_on_c, 59
1, 51364, Note_on_c, 64
1, 51364, Note_on_c, 76
1, 51364, Note_on_c, 32
1, 51364, Note_on_c, 36
1, 51364, Note_on_c, 37
1, 51364, Note_on_c, 42
1, 51364, Note_on_c, 76
1, 51480, Note_off_c, 42
1, 51600, Note_off_c, 76
1, 51600, Note_off_c, 37
1, 51600, Note_off_c, 36
1, 51600, Note_off_c, 32
1, 51600, Note_off_c, 76
1, 51600, Note_off_c, 64
1, 51600, Note_off_c, 59
1, 51600, Note_off_c, 56
1, 51600, Note_off_c, 64
1, 51600, Note_off_c, 59
1, 51600, Note_off_c, 56
1, 51604, Note_on_c, 56
1, 51604, Note_on_c, 59
1, 51604, Note_on_c, 64
1, 51604, Note_on_c, 40
1, 51604, Note_on_c, 56
1, 51604, Note_on_c, 59
1, 51604, Note_on_c, 64
1, 51604, Note_on_c, 76
1, 51604, Note_on_c, 42
1, 51604, Note_on_c, 82
1, 51604, Note_on_c, 76
1, 51656, Note_off_c, 82
1, 51720, Note_off_c, 42
1, 51724, Note_on_c, 42
1, 51840, Note_off_c, 42
1, 51840, Note_off_c, 76
1, 51840, Note_off_c, 76
1, 51840, Note_off_c, 64
1, 51840, Note_off_c, 59
1, 51840, Note_off_c, 56
1, 51840, Note_off_c, 40
1, 51840, Note_off_c, 64
1, 51840, Note_off_c, 59
1, 51840, Note_off_c, 56
1, 51840, Note_off_c, 76
1, 51844, Note_on_c, 54
1, 51844, Note_on_c, 59
1, 51844, Note_on_c, 63
1, 51844, Note_on_c, 54
1, 51844, Note_on_c, 59
1, 51844, Note_on_c, 63
1, 51844, Note_on_c, 73
1, 51844, Note_on_c, 85
1, 51844, Note_on_c, 36
1, 51844, Note_on_c, 42
1, 51844, Note_on_c, 73
1, 51960, Note_off_c, 42
1, 52080, Note_off_c, 73
1, 52080, Note_off_c, 36
1, 52080, Note_off_c, 73
1, 52080, Note_off_c, 63
1, 52080, Note_off_c, 59
1, 52080, Note_off_c, 54
1, 52080, Note_off_c, 63
1, 52080, Note_off_c, 59
1, 52080, Note_off_c, 54
1, 52084, Note_on_c, 54
1, 52084, Note_on_c, 59
1, 52084, Note_on_c, 63
1, 52084, Note_on_c, 35
1, 52084, Note_on_c, 54
1, 52084, Note_on_c, 59
1, 52084, Note_on_c, 63
1, 52084, Note_on_c, 73
1, 52084, Note_on_c, 42
1, 52084, Note_on_c, 82
1, 52084, Note_on_c, 73
1, 52136, Note_off_c, 82
1, 52200, Note_off_c, 42
1, 52204, Note_on_c, 42
1, 52320, Note_off_c, 42
1, 52320, Note_off_c, 73
1, 52320, Note_off_c, 73
1, 52320, Note_off_c, 63
1, 52320, Note_off_c, 59
1, 52320, Note_off_c, 54
1, 52320, Note_off_c, 35
1, 52320, Note_off_c, 63
1, 52320, Note_off_c, 59
1, 52320, Note_off_c, 54
1, 52324, Note_on_c, 54
1, 52324, Note_on_c, 59
1, 52324, Note_on_c, 63
1, 52324, Note_on_c, 54
1, 52324, Note_on_c, 59
1, 52324, Note_on_c, 63
1, 52324, Note_on_c, 71
1, 52324, Note_on_c, 36
1, 52324, Note_on_c, 37
1, 52324, Note_on_c, 42
1, 52324, Note_on_c, 71
1, 52440, Note_off_c, 42
1, 52560, Note_off_c, 71
1, 52560, Note_off_c, 37
1, 52560, Note_off_c, 36
1, 52560, Note_off_c, 71
1, 52560, Note_off_c, 63
1, 52560, Note_off_c, 59
1, 52560, Note_off_c, 54
1, 52560, Note_off_c, 63
1, 52560, Note_off_c, 59
1, 52560, Note_off_c, 54
1, 52564, Note_on_c, 52
1, 52564, Note_on_c, 57
1, 52564, Note_on_c, 61
1, 52564, Note_on_c, 33
1, 52564, Note_on_c, 52
1, 52564, Note_on_c, 57
1, 52564, Note_on_c, 61
1, 52564, Note_on_c, 71
1, 52564, Note_on_c, 29
1, 52564, Note_on_c, 42
1, 52564, Note_on_c, 82
1, 52564, Note_on_c, 71
1, 52620, Note_off_c, 82
1, 52680, Note_off_c, 42
1, 52684, Note_on_c, 42
1, 52800, Note_off_c, 42
1, 52800, Note_off_c, 71
1, 52800, Note_off_c, 29
1, 52800, Note_off_c, 71
1, 52800, Note_off_c, 61
1, 52800, Note_off_c, 57
1, 52800, Note_off_c, 52
1, 52800, Note_off_c, 33
1, 52800, Note_off_c, 61
1, 52800, Note_off_c, 57
1, 52800, Note_off_c, 52
1, 52804, Note_on_c, 36
1, 52804, Note_on_c, 42
1, 52920, Note_off_c, 42
1, 52924, Note_on_c, 70
1, 53040, Note_off_c, 36
1, 53044, Note_on_c, 52
1, 53044, Note_on_c, 57
1, 53044, Note_on_c, 61
1, 53044, Note_on_c, 33
1, 53044, Note_on_c, 52
1, 53044, Note_on_c, 57
1, 53044, Note_on_c, 61
1, 53044, Note_on_c, 85
1, 53044, Note_on_c, 42
1, 53044, Note_on_c, 82
1, 53044, Note_on_c, 85
1, 53084, Note_off_c, 82
1, 53160, Note_off_c, 42
1, 53160, Note_off_c, 70
1, 53164, Note_on_c, 42
1, 53280, Note_off_c, 42
1, 53280, Note_off_c, 85
1, 53280, Note_off_c, 85
1, 53280, Note_off_c, 61
1, 53280, Note_off_c, 57
1, 53280, Note_off_c, 52
1, 53280, Note_off_c, 33
1, 53280, Note_off_c, 61
1, 53280, Note_off_c, 57
1, 53280, Note_off_c, 52
1, 53284, Note_on_c, 52
1, 53284, Note_on_c, 57
1, 53284, Note_on_c, 61
1, 53284, Note_on_c, 52
1, 53284, Note_on_c, 57
1, 53284, Note_on_c, 61
1, 53284, Note_on_c, 83
1, 53284, Note_on_c, 36
1, 53284, Note_on_c, 37
1, 53284, Note_on_c, 42
1, 53284, Note_on_c, 83
1, 53400, Note_off_c, 42
1, 53520, Note_off_c, 83
1, 53520, Note_off_c, 37
1, 53520, Note_off_c, 36
1, 53520, Note_off_c, 83
1, 53520, Note_off_c, 61
1, 53520, Note_off_c, 57
1, 53520, Note_off_c, 52
1, 53520, Note_off_c, 61
1, 53520, Note_off_c, 57
1, 53520, Note_off_c, 52
1, 53524, Note_on_c, 52
1, 53524, Note_on_c, 57
1, 53524, Note_on_c, 61
1, 53524, Note_on_c, 33
1, 53524, Note_on_c, 52
1, 53524, Note_on_c, 57
1, 53524, Note_on_c, 61
1, 53524, Note_on_c, 80
1, 53524, Note_on_c, 42
1, 53524, Note_on_c, 82
1, 53524, Note_on_c, 80
1, 53564, Note_off_c, 82
1, 53640, Note_off_c, 42
1, 53644, Note_on_c, 42
1, 53760, Note_off_c, 42
1, 53760, Note_off_c, 80
1, 53760, Note_off_c, 80
1, 53760, Note_off_c, 61
1, 53760, Note_off_c, 57
1, 53760, Note_off_c, 52
1, 53760, Note_off_c, 33
1, 53760, Note_off_c, 61
1, 53760, Note_off_c, 57
1, 53760, Note_off_c, 52
1, 53760, Note_off_c, 85
1, 53764, Note_on_c, 56
1, 53764, Note_on_c, 61
1, 53764, Note_on_c, 66
1, 53764, Note_on_c, 56
1, 53764, Note_on_c, 61
1, 53764, Note_on_c, 66
1, 53764, Note_on_c, 78
1, 53764, Note_on_c, 76
1, 53764, Note_on_c, 61
1, 53764, Note_on_c, 32
1, 53764, Note_on_c, 36
1, 53764, Note_on_c, 42
1, 53764, Note_on_c, 84
1, 53764, Note_on_c, 78
1, 53824, Note_off_c, 61
1, 53880, Note_off_c, 42
1, 53884, Note_on_c, 49
1, 53940, Note_off_c, 49
1, 54000, Note_off_c, 78
1, 54000, Note_off_c, 36
1, 54000, Note_off_c, 32
1, 54000, Note_off_c, 78
1, 54000, Note_off_c, 66
1, 54000, Note_off_c, 61
1, 54000, Note_off_c, 56
1, 54000, Note_off_c, 66
1, 54000, Note_off_c, 61
1, 54000, Note_off_c, 56
1, 54004, Note_on_c, 56
1, 54004, Note_on_c, 61
1, 54004, Note_on_c, 64
1, 54004, Note_on_c, 37
1, 54004, Note_on_c, 56
1, 54004, Note_on_c, 61
1, 54004, Note_on_c, 64
1, 54004, Note_on_c, 76
1, 54004, Note_on_c, 61
1, 54004, Note_on_c, 42
1, 54004, Note_on_c, 82
1, 54004, Note_on_c, 76
1, 54036, Note_off_c, 82
1, 54064, Note_off_c, 61
1, 54120, Note_off_c, 42
1, 54124, Note_on_c, 68
1, 54124, Note_on_c, 42
1, 54180, Note_off_c, 68
1, 54240, Note_off_c, 42
1, 54240, Note_off_c, 76
1, 54240, Note_off_c, 76
1, 54240, Note_off_c, 64
1, 54240, Note_off_c, 61
1, 54240, Note_off_c, 56
1, 54240, Note_off_c, 37
1, 54240, Note_off_c, 64
1, 54240, Note_off_c, 61
1, 54240, Note_off_c, 56
1, 54244, Note_on_c, 56
1, 54244, Note_on_c, 61
1, 54244, Note_on_c, 64
1, 54244, Note_on_c, 56
1, 54244, Note_on_c, 61
1, 54244, Note_on_c, 64
1, 54244, Note_on_c, 76
1, 54244, Note_on_c, 56
1, 54244, Note_on_c, 32
1, 54244, Note_on_c, 36
1, 54244, Note_on_c, 37
1, 54244, Note_on_c, 42
1, 54244, Note_on_c, 76
1, 54300, Note_off_c, 56
1, 54360, Note_off_c, 42
1, 54364, Note_on_c, 61
1, 54424, Note_off_c, 61
1, 54480, Note_off_c, 76
1, 54480, Note_off_c, 37
1, 54480, Note_off_c, 36
1, 54480, Note_off_c, 32
1, 54480, Note_off_c, 76
1, 54480, Note_off_c, 64
1, 54480, Note_off_c, 61
1, 54480, Note_off_c, 56
1, 54480, Note_off_c, 64
1, 54480, Note_off_c, 61
1, 54480, Note_off_c, 56
1, 54484, Note_on_c, 68
1, 54484, Note_on_c, 42
1, 54484, Note_on_c, 82
1, 54520, Note_off_c, 82
1, 54544, Note_off_c, 68
1, 54600, Note_off_c, 42
1, 54604, Note_on_c, 73
1, 54604, Note_on_c, 42
1, 54720, Note_off_c, 42
1, 54720, Note_off_c, 73
1, 54724, Note_on_c, 56
1, 54724, Note_on_c, 59
1, 54724, Note_on_c, 64
1, 54724, Note_on_c, 56
1, 54724, Note_on_c, 59
1, 54724, Note_on_c, 64
1, 54724, Note_on_c, 76
1, 54724, Note_on_c, 73
1, 54724, Note_on_c, 32
1, 54724, Note_on_c, 36
1, 54724, Note_on_c, 42
1, 54724, Note_on_c, 76
1, 54780, Note_off_c, 73
1, 54840, Note_off_c, 42
1, 54844, Note_on_c, 68
1, 54900, Note_off_c, 68
1, 54960, Note_off_c, 76
1, 54960, Note_off_c, 36
1, 54960, Note_off_c, 32
1, 54960, Note_off_c, 76
1, 54960, Note_off_c, 64
1, 54960, Note_off_c, 59
1, 54960, Note_off_c, 56
1, 54960, Note_off_c, 64
1, 54960, Note_off_c, 59
1, 54960, Note_off_c, 56
1, 54964, Note_on_c, 56
1, 54964, Note_on_c, 59
1, 54964, Note_on_c, 64
1, 54964, Note_on_c, 40
1, 54964, Note_on_c, 56
1, 54964, Note_on_c, 59
1, 54964, Note_on_c, 64
1, 54964, Note_on_c, 76
1, 54964, Note_on_c, 73
1, 54964, Note_on_c, 42
1, 54964, Note_on_c, 82
1, 54964, Note_on_c, 76
1, 55012, Note_off_c, 82
1, 55020, Note_off_c, 73
1, 55080, Note_off_c, 42
1, 55084, Note_on_c, 81
1, 55084, Note_on_c, 42
1, 55200, Note_off_c, 42
1, 55200, Note_off_c, 81
1, 55200, Note_off_c, 76
1, 55200, Note_off_c, 76
1, 55200, Note_off_c, 64
1, 55200, Note_off_c, 59
1, 55200, Note_off_c, 56
1, 55200, Note_off_c, 40
1, 55200, Note_off_c, 64
1, 55200, Note_off_c, 59
1, 55200, Note_off_c, 56
1, 55204, Note_on_c, 56
1, 55204, Note_on_c, 59
1, 55204, Note_on_c, 64
1, 55204, Note_on_c, 56
1, 55204, Note_on_c, 59
1, 55204, Note_on_c, 64
1, 55204, Note_on_c, 76
1, 55204, Note_on_c, 73
1, 55204, Note_on_c, 32
1, 55204, Note_on_c, 36
1, 55204, Note_on_c, 37
1, 55204, Note_on_c, 42
1, 55204, Note_on_c, 76
1, 55264, Note_off_c, 73
1, 55320, Note_off_c, 42
1, 55324, Note_on_c, 68
1, 55440, Note_off_c, 68
1, 55440, Note_off_c, 76
1, 55440, Note_off_c, 37
1, 55440, Note_off_c, 36
1, 55440, Note_off_c, 32
1, 55440, Note_off_c, 76
1, 55440, Note_off_c, 64
1, 55440, Note_off_c, 59
1, 55440, Note_off_c, 56
1, 55440, Note_off_c, 64
1, 55440, Note_off_c, 59
1, 55440, Note_off_c, 56
1, 55444, Note_on_c, 56
1, 55444, Note_on_c, 59
1, 55444, Note_on_c, 64
1, 55444, Note_on_c, 40
1, 55444, Note_on_c, 56
1, 55444, Note_on_c, 59
1, 55444, Note_on_c, 64
1, 55444, Note_on_c, 76
1, 55444, Note_on_c, 73
1, 55444, Note_on_c, 42
1, 55444, Note_on_c, 82
1, 55444, Note_on_c, 76
1, 55496, Note_off_c, 82
1, 55504, Note_off_c, 73
1, 55560, Note_off_c, 42
1, 55564, Note_on_c, 64
1, 55564, Note_on_c, 42
1, 55624, Note_off_c, 64
1, 55680, Note_off_c, 42
1, 55680, Note_off_c, 76
1, 55680, Note_off_c, 76
1, 55680, Note_off_c, 64
1, 55680, Note_off_c, 59
1, 55680, Note_off_c, 56
1, 55680, Note_off_c, 40
1, 55680, Note_off_c, 64
1, 55680, Note_off_c, 59
1, 55680, Note_off_c, 56
1, 55680, Note_off_c, 76
1, 55684, Note_on_c, 54
1, 55684, Note_on_c, 59
1, 55684, Note_on_c, 63
1, 55684, Note_on_c, 54
1, 55684, Note_on_c, 59
1, 55684, Note_on_c, 63
1, 55684, Note_on_c, 75
1, 55684, Note_on_c, 85
1, 55684, Note_on_c, 61
1, 55684, Note_on_c, 32
1, 55684, Note_on_c, 36
1, 55684, Note_on_c, 42
1, 55684, Note_on_c, 75
1, 55744, Note_off_c, 61
1, 55800, Note_off_c, 42
1, 55804, Note_on_c, 49
1, 55860, Note_off_c, 49
1, 55920, Note_off_c, 75
1, 55920, Note_off_c, 36
1, 55920, Note_off_c, 32
1, 55920, Note_off_c, 75
1, 55920, Note_off_c, 63
1, 55920, Note_off_c, 59
1, 55920, Note_off_c, 54
1, 55920, Note_off_c, 63
1, 55920, Note_off_c, 59
1, 55920, Note_off_c, 54
1, 55924, Note_on_c, 54
1, 55924, Note_on_c, 59
1, 55924, Note_on_c, 63
1, 55924, Note_on_c, 35
1, 55924, Note_on_c, 54
1, 55924, Note_on_c, 59
1, 55924, Note_on_c, 63
1, 55924, Note_on_c, 75
1, 55924, Note_on_c, 61
1, 55924, Note_on_c, 42
1, 55924, Note_on_c, 82
1, 55924, Note_on_c, 75
1, 55976, Note_off_c, 82
1, 55984, Note_off_c, 61
1, 56040, Note_off_c, 42
1, 56044, Note_on_c, 68
1, 56044, Note_on_c, 42
1, 56100, Note_off_c, 68
1, 56160, Note_off_c, 42
1, 56160, Note_off_c, 75
1, 56160, Note_off_c, 75
1, 56160, Note_off_c, 63
1, 56160, Note_off_c, 59
1, 56160, Note_off_c, 54
1, 56160, Note_off_c, 35
1, 56160, Note_off_c, 63
1, 56160, Note_off_c, 59
1, 56160, Note_off_c, 54
1, 56164, Note_on_c, 54
1, 56164, Note_on_c, 59
1, 56164, Note_on_c, 63
1, 56164, Note_on_c, 54
1, 56164, Note_on_c, 59
1, 56164, Note_on_c, 63
1, 56164, Note_on_c, 76
1, 56164, Note_on_c, 56
1, 56164, Note_on_c, 32
1, 56164, Note_on_c, 36
1, 56164, Note_on_c, 37
1, 56164, Note_on_c, 42
1, 56164, Note_on_c, 76
1, 56220, Note_off_c, 56
1, 56280, Note_off_c, 42
1, 56284, Note_on_c, 61
1, 56344, Note_off_c, 61
1, 56400, Note_off_c, 76
1, 56400, Note_off_c, 37
1, 56400, Note_off_c, 36
1, 56400, Note_off_c, 32
1, 56400, Note_off_c, 76
1, 56400, Note_off_c, 63
1, 56400, Note_off_c, 59
1, 56400, Note_off_c, 54
1, 56400, Note_off_c, 63
1, 56400, Note_off_c, 59
1, 56400, Note_off_c, 54
1, 56404, Note_on_c, 52
1, 56404, Note_on_c, 57
1, 56404, Note_on_c, 61
1, 56404, Note_on_c, 33
1, 56404, Note_on_c, 52
1, 56404, Note_on_c, 57
1, 56404, Note_on_c, 61
1, 56404, Note_on_c, 76
1, 56404, Note_on_c, 68
1, 56404, Note_on_c, 29
1, 56404, Note_on_c, 42
1, 56404, Note_on_c, 82
1, 56404, Note_on_c, 76
1, 56460, Note_off_c, 82
1, 56464, Note_off_c, 68
1, 56520, Note_off_c, 42
1, 56524, Note_on_c, 73
1, 56524, Note_on_c, 42
1, 56640, Note_off_c, 42
1, 56640, Note_off_c, 73
1, 56640, Note_off_c, 76
1, 56640, Note_off_c, 29
1, 56640, Note_off_c, 76
1, 56640, Note_off_c, 61
1, 56640, Note_off_c, 57
1, 56640, Note_off_c, 52
1, 56640, Note_off_c, 33
1, 56640, Note_off_c, 61
1, 56640, Note_off_c, 57
1, 56640, Note_off_c, 52
1, 56644, Note_on_c, 73
1, 56644, Note_on_c, 32
1, 56644, Note_on_c, 36
1, 56644, Note_on_c, 42
1, 56700, Note_off_c, 73
1, 56760, Note_off_c, 42
1, 56764, Note_on_c, 68
1, 56764, Note_on_c, 70
1, 56820, Note_off_c, 68
1, 56880, Note_off_c, 36
1, 56880, Note_off_c, 32
1, 56884, Note_on_c, 52
1, 56884, Note_on_c, 57
1, 56884, Note_on_c, 61
1, 56884, Note_on_c, 33
1, 56884, Note_on_c, 52
1, 56884, Note_on_c, 57
1, 56884, Note_on_c, 61
1, 56884, Note_on_c, 85
1, 56884, Note_on_c, 73
1, 56884, Note_on_c, 42
1, 56884, Note_on_c, 82
1, 56884, Note_on_c, 85
1, 56924, Note_off_c, 82
1, 56940, Note_off_c, 73
1, 57000, Note_off_c, 42
1, 57000, Note_off_c, 70
1, 57004, Note_on_c, 81
1, 57004, Note_on_c, 42
1, 57120, Note_off_c, 42
1, 57120, Note_off_c, 81
1, 57120, Note_off_c, 85
1, 57120, Note_off_c, 85
1, 57120, Note_off_c, 61
1, 57120, Note_off_c, 57
1, 57120, Note_off_c, 52
1, 57120, Note_off_c, 33
1, 57120, Note_off_c, 61
1, 57120, Note_off_c, 57
1, 57120, Note_off_c, 52
1, 57124, Note_on_c, 52
1, 57124, Note_on_c, 57
1, 57124, Note_on_c, 61
1, 57124, Note_on_c, 52
1, 57124, Note_on_c, 57
1, 57124, Note_on_c, 61
1, 57124, Note_on_c, 83
1, 57124, Note_on_c, 73
1, 57124, Note_on_c, 32
1, 57124, Note_on_c, 36
1, 57124, Note_on_c, 37
1, 57124, Note_on_c, 42
1, 57124, Note_on_c, 83
1, 57184, Note_off_c, 73
1, 57240, Note_off_c, 42
1, 57244, Note_on_c, 68
1, 57360, Note_off_c, 68
1, 57360, Note_off_c, 83
1, 57360, Note_off_c, 37
1, 57360, Note_off_c, 36
1, 57360, Note_off_c, 32
1, 57360, Note_off_c, 83
1, 57360, Note_off_c, 61
1, 57360, Note_off_c, 57
1, 57360, Note_off_c, 52
1, 57360, Note_off_c, 61
1, 57360, Note_off_c, 57
1, 57360, Note_off_c, 52
1, 57360, Note_off_c, 84
1, 57364, Note_on_c, 52
1, 57364, Note_on_c, 57
1, 57364, Note_on_c, 61
1, 57364, Note_on_c, 33
1, 57364, Note_on_c, 52
1, 57364, Note_on_c, 57
1, 57364, Note_on_c, 61
1, 57364, Note_on_c, 80
1, 57364, Note_on_c, 73
1, 57364, Note_on_c, 42
1, 57364, Note_on_c, 82
1, 57364, Note_on_c, 80
1, 57404, Note_off_c, 82
1, 57424, Note_off_c, 73
1, 57480, Note_off_c, 42
1, 57484, Note_on_c, 64
1, 57484, Note_on_c, 42
1, 57544, Note_off_c, 64
1, 57600, Note_off_c, 42
1, 57600, Note_off_c, 80
1, 57600, Note_off_c, 80
1, 57600, Note_off_c, 61
1, 57600, Note_off_c, 57
1, 57600, Note_off_c, 52
1, 57600, Note_off_c, 33
1, 57600, Note_off_c, 61
1, 57600, Note_off_c, 57
1, 57600, Note_off_c, 52
1, 57600, Note_off_c, 85
1, 57604, Note_on_c, 56
1, 57604, Note_on_c, 61
1, 57604, Note_on_c, 66
1, 57604, Note_on_c, 56
1, 57604, Note_on_c, 61
1, 57604, Note_on_c, 66
1, 57604, Note_on_c, 78
1, 57604, Note_on_c, 76
1, 57604, Note_on_c, 61
1, 57604, Note_on_c, 32
1, 57604, Note_on_c, 36
1, 57604, Note_on_c, 42
1, 57604, Note_on_c, 78
1, 57664, Note_off_c, 61
1, 57720, Note_off_c, 42
1, 57724, Note_on_c, 49
1, 57780, Note_off_c, 49
1, 57840, Note_off_c, 78
1, 57840, Note_off_c, 36
1, 57840, Note_off_c, 32
1, 57840, Note_off_c, 78
1, 57840, Note_off_c, 66
1, 57840, Note_off_c, 61
1, 57840, Note_off_c, 56
1, 57840, Note_off_c, 66
1, 57840, Note_off_c, 61
1, 57840, Note_off_c, 56
1, 57844, Note_on_c, 56
1, 57844, Note_on_c, 61
1, 57844, Note_on_c, 64
1, 57844, Note_on_c, 37
1, 57844, Note_on_c, 56
1, 57844, Note_on_c, 61
1, 57844, Note_on_c, 64
1, 57844, Note_on_c, 76
1, 57844, Note_on_c, 61
1, 57844, Note_on_c, 42
1, 57844, Note_on_c, 82
1, 57844, Note_on_c, 76
1, 57892, Note_off_c, 82
1, 57904, Note_off_c, 61
1, 57960, Note_off_c, 42
1, 57964, Note_on_c, 68
1, 57964, Note_on_c, 42
1, 58020, Note_off_c, 68
1, 58080, Note_off_c, 42
1, 58080, Note_off_c, 76
1, 58080, Note_off_c, 76
1, 58080, Note_off_c, 64
1, 58080, Note_off_c, 61
1, 58080, Note_off_c, 56
1, 58080, Note_off_c, 37
1, 58080, Note_off_c, 64
1, 58080, Note_off_c, 61
1, 58080, Note_off_c, 56
1, 58084, Note_on_c, 56
1, 58084, Note_on_c, 61
1, 58084, Note_on_c, 64
1, 58084, Note_on_c, 56
1, 58084, Note_on_c, 61
1, 58084, Note_on_c, 64
1, 58084, Note_on_c, 76
1, 58084, Note_on_c, 56
1, 58084, Note_on_c, 32
1, 58084, Note_on_c, 36
1, 58084, Note_on_c, 37
1, 58084, Note_on_c, 42
1, 58084, Note_on_c, 76
1, 58140, Note_off_c, 56
1, 58200, Note_off_c, 42
1, 58204, Note_on_c, 61
1, 58264, Note_off_c, 61
1, 58320, Note_off_c, 76
1, 58320, Note_off_c, 37
1, 58320, Note_off_c, 36
1, 58320, Note_off_c, 32
1, 58320, Note_off_c, 76
1, 58320, Note_off_c, 64
1, 58320, Note_off_c, 61
1, 58320, Note_off_c, 56
1, 58320, Note_off_c, 64
1, 58320, Note_off_c, 61
1, 58320, Note_off_c, 56
1, 58324, Note_on_c, 68
1, 58324, Note_on_c, 42
1, 58324, Note_on_c, 82
1, 58376, Note_off_c, 82
1, 58384, Note_off_c, 68
1, 58440, Note_off_c, 42
1, 58444, Note_on_c, 73
1, 58444, Note_on_c, 42
1, 58560, Note_off_c, 42
1, 58560, Note_off_c, 73
1, 58564, Note_on_c, 56
1, 58564, Note_on_c, 59
1, 58564, Note_on_c, 64
1, 58564, Note_on_c, 56
1, 58564, Note_on_c, 59
1, 58564, Note_on_c, 64
1, 58564, Note_on_c, 76
1, 58564, Note_on_c, 73
1, 58564, Note_on_c, 32
1, 58564, Note_on_c, 36
1, 58564, Note_on_c, 42
1, 58564, Note_on_c, 76
1, 58620, Note_off_c, 73
1, 58680, Note_off_c, 42
1, 58684, Note_on_c, 68
1, 58740, Note_off_c, 68
1, 58800, Note_off_c, 76
1, 58800, Note_off_c, 36
1, 58800, Note_off_c, 32
1, 58800, Note_off_c, 76
1, 58800, Note_off_c, 64
1, 58800, Note_off_c, 59
1, 58800, Note_off_c, 56
1, 58800, Note_off_c, 64
1, 58800, Note_off_c, 59
1, 58800, Note_off_c, 56
1, 58804, Note_on_c, 56
1, 58804, Note_on_c, 59
1, 58804, Note_on_c, 64
1, 58804, Note_on_c, 40
1, 58804, Note_on_c, 56
1, 58804, Note_on_c, 59
1, 58804, Note_on_c, 64
1, 58804, Note_on_c, 76
1, 58804, Note_on_c, 73
1, 58804, Note_on_c, 42
1, 58804, Note_on_c, 82
1, 58804, Note_on_c, 76
1, 58852, Note_off_c, 82
1, 58860, Note_off_c, 73
1, 58920, Note_off_c, 42
1, 58924, Note_on_c, 81
1, 58924, Note_on_c, 42
1, 59040, Note_off_c, 42
1, 59040, Note_off_c, 81
1, 59040, Note_off_c, 76
1, 59040, Note_off_c, 76
1, 59040, Note_off_c, 64
1, 59040, Note_off_c, 59
1, 59040, Note_off_c, 56
1, 59040, Note_off_c, 40
1, 59040, Note_off_c, 64
1, 59040, Note_off_c, 59
1, 59040, Note_off_c, 56
1, 59044, Note_on_c, 56
1, 59044, Note_on_c, 59
1, 59044, Note_on_c, 64
1, 59044, Note_on_c, 56
1, 59044, Note_on_c, 59
1, 59044, Note_on_c, 64
1, 59044, Note_on_c, 76
1, 59044, Note_on_c, 73
1, 59044, Note_on_c, 32
1, 59044, Note_on_c, 36
1, 59044, Note_on_c, 37
1, 59044, Note_on_c, 42
1, 59044, Note_on_c, 76
1, 59104, Note_off_c, 73
1, 59160, Note_off_c, 42
1, 59164, Note_on_c, 68
1, 59280, Note_off_c, 68
1, 59280, Note_off_c, 76
1, 59280, Note_off_c, 37
1, 59280, Note_off_c, 36
1, 59280, Note_off_c, 32
1, 59280, Note_off_c, 76
1, 59280, Note_off_c, 64
1, 59280, Note_off_c, 59
1, 59280, Note_off_c, 56
1, 59280, Note_off_c, 64
1, 59280, Note_off_c, 59
1, 59280, Note_off_c, 56
1, 59284, Note_on_c, 56
1, 59284, Note_on_c, 59
1, 59284, Note_on_c, 64
1, 59284, Note_on_c, 40
1, 59284, Note_on_c, 56
1, 59284, Note_on_c, 59
1, 59284, Note_on_c, 64
1, 59284, Note_on_c, 76
1, 59284, Note_on_c, 73
1, 59284, Note_on_c, 42
1, 59284, Note_on_c, 82
1, 59284, Note_on_c, 76
1, 59324, Note_off_c, 82
1, 59344, Note_off_c, 73
1, 59400, Note_off_c, 42
1, 59404, Note_on_c, 64
1, 59404, Note_on_c, 42
1, 59464, Note_off_c, 64
1, 59520, Note_off_c, 42
1, 59520, Note_off_c, 76
1, 59520, Note_off_c, 76
1, 59520, Note_off_c, 64
1, 59520, Note_off_c, 59
1, 59520, Note_off_c, 56
1, 59520, Note_off_c, 40
1, 59520, Note_off_c, 64
1, 59520, Note_off_c, 59
1, 59520, Note_off_c, 56
1, 59520, Note_off_c, 76
1, 59524, Note_on_c, 54
1, 59524, Note_on_c, 59
1, 59524, Note_on_c, 63
1, 59524, Note_on_c, 54
1, 59524, Note_on_c, 59
1, 59524, Note_on_c, 63
1, 59524, Note_on_c, 73
1, 59524, Note_on_c, 85
1, 59524, Note_on_c, 61
1, 59524, Note_on_c, 32
1, 59524, Note_on_c, 36
1, 59524, Note_on_c, 42
1, 59524, Note_on_c, 73
1, 59584, Note_off_c, 61
1, 59640, Note_off_c, 42
1, 59644, Note_on_c, 49
1, 59700, Note_off_c, 49
1, 59760, Note_off_c, 73
1, 59760, Note_off_c, 36
1, 59760, Note_off_c, 32
1, 59760, Note_off_c, 73
1, 59760, Note_off_c, 63
1, 59760, Note_off_c, 59
1, 59760, Note_off_c, 54
1, 59760, Note_off_c, 63
1, 59760, Note_off_c, 59
1, 59760, Note_off_c, 54
1, 59764, Note_on_c, 54
1, 59764, Note_on_c, 59
1, 59764, Note_on_c, 63
1, 59764, Note_on_c, 35
1, 59764, Note_on_c, 54
1, 59764, Note_on_c, 59
1, 59764, Note_on_c, 63
1, 59764, Note_on_c, 73
1, 59764, Note_on_c, 61
1, 59764, Note_on_c, 42
1, 59764, Note_on_c, 82
1, 59764, Note_on_c, 73
1, 59808, Note_off_c, 82
1, 59824, Note_off_c, 61
1, 59880, Note_off_c, 42
1, 59884, Note_on_c, 68
1, 59884, Note_on_c, 42
1, 59940, Note_off_c, 68
1, 60000, Note_off_c, 42
1, 60000, Note_off_c, 73
1, 60000, Note_off_c, 73
1, 60000, Note_off_c, 63
1, 60000, Note_off_c, 59
1, 60000, Note_off_c, 54
1, 60000, Note_off_c, 35
1, 60000, Note_off_c, 63
1, 60000, Note_off_c, 59
1, 60000, Note_off_c, 54
1, 60004, Note_on_c, 54
1, 60004, Note_on_c, 59
1, 60004, Note_on_c, 63
1, 60004, Note_on_c, 54
1, 60004, Note_on_c, 59
1, 60004, Note_on_c, 63
1, 60004, Note_on_c, 71
1, 60004, Note_on_c, 56
1, 60004, Note_on_c, 32
1, 60004, Note_on_c, 36
1, 60004, Note_on_c, 37
1, 60004, Note_on_c, 42
1, 60004, Note_on_c, 71
1, 60060, Note_off_c, 56
1, 60120, Note_off_c, 42
1, 60124, Note_on_c, 61
1, 60184, Note_off_c, 61
1, 60240, Note_off_c, 71
1, 60240, Note_off_c, 37
1, 60240, Note_off_c, 36
1, 60240, Note_off_c, 32
1, 60240, Note_off_c, 71
1, 60240, Note_off_c, 63
1, 60240, Note_off_c, 59
1, 60240, Note_off_c, 54
1, 60240, Note_off_c, 63
1, 60240, Note_off_c, 59
1, 60240, Note_off_c, 54
1, 60244, Note_on_c, 52
1, 60244, Note_on_c, 57
1, 60244, Note_on_c, 61
1, 60244, Note_on_c, 33
1, 60244, Note_on_c, 52
1, 60244, Note_on_c, 57
1, 60244, Note_on_c, 61
1, 60244, Note_on_c, 71
1, 60244, Note_on_c, 68
1, 60244, Note_on_c, 29
1, 60244, Note_on_c, 42
1, 60244, Note_on_c, 82
1, 60244, Note_on_c, 71
1, 60284, Note_off_c, 82
1, 60304, Note_off_c, 68
1, 60360, Note_off_c, 42
1, 60364, Note_on_c, 73
1, 60364, Note_on_c, 42
1, 60480, Note_off_c, 42
1, 60480, Note_off_c, 73
1, 60480, Note_off_c, 71
1, 60480, Note_off_c, 29
1, 60480, Note_off_c, 71
1, 60480, Note_off_c, 61
1, 60480, Note_off_c, 57
1, 60480, Note_off_c, 52
1, 60480, Note_off_c, 33
1, 60480, Note_off_c, 61
1, 60480, Note_off_c, 57
1, 60480, Note_off_c, 52
1, 60484, Note_on_c, 73
1, 60484, Note_on_c, 72
1, 60484, Note_on_c, 32
1, 60484, Note_on_c, 36
1, 60484, Note_on_c, 42
1, 60540, Note_off_c, 73
1, 60600, Note_off_c, 42
1, 60604, Note_on_c, 68
1, 60604, Note_on_c, 70
1, 60660, Note_off_c, 68
1, 60720, Note_off_c, 36
1, 60720, Note_off_c, 32
1, 60724, Note_on_c, 52
1, 60724, Note_on_c, 57
1, 60724, Note_on_c, 61
1, 60724, Note_on_c, 33
1, 60724, Note_on_c, 52
1, 60724, Note_on_c, 57
1, 60724, Note_on_c, 61
1, 60724, Note_on_c, 85
1, 60724, Note_on_c, 73
1, 60724, Note_on_c, 42
1, 60724, Note_on_c, 82
1, 60724, Note_on_c, 85
1, 60764, Note_off_c, 82
1, 60780, Note_off_c, 73
1, 60840, Note_off_c, 42
1, 60840, Note_off_c, 70
1, 60844, Note_on_c, 81
1, 60844, Note_on_c, 42
1, 60960, Note_off_c, 42
1, 60960, Note_off_c, 81
1, 60960, Note_off_c, 85
1, 60960, Note_off_c, 85
1, 60960, Note_off_c, 61
1, 60960, Note_off_c, 57
1, 60960, Note_off_c, 52
1, 60960, Note_off_c, 33
1, 60960, Note_off_c, 61
1, 60960, Note_off_c, 57
1, 60960, Note_off_c, 52
1, 60964, Note_on_c, 52
1, 60964, Note_on_c, 57
1, 60964, Note_on_c, 61
1, 60964, Note_on_c, 52
1, 60964, Note_on_c, 57
1, 60964, Note_on_c, 61
1, 60964, Note_on_c, 83
1, 60964, Note_on_c, 73
1, 60964, Note_on_c, 32
1, 60964, Note_on_c, 36
1, 60964, Note_on_c, 37
1, 60964, Note_on_c, 42
1, 60964, Note_on_c, 83
1, 61024, Note_off_c, 73
1, 61080, Note_off_c, 42
1, 61084, Note_on_c, 68
1, 61200, Note_off_c, 68
1, 61200, Note_off_c, 83
1, 61200, Note_off_c, 37
1, 61200, Note_off_c, 36
1, 61200, Note_off_c, 32
1, 61200, Note_off_c, 83
1, 61200, Note_off_c, 61
1, 61200, Note_off_c, 57
1, 61200, Note_off_c, 52
1, 61200, Note_off_c, 61
1, 61200, Note_off_c, 57
1, 61200, Note_off_c, 52
1, 61204, Note_on_c, 52
1, 61204, Note_on_c, 57
1, 61204, Note_on_c, 61
1, 61204, Note_on_c, 33
1, 61204, Note_on_c, 52
1, 61204, Note_on_c, 57
1, 61204, Note_on_c, 61
1, 61204, Note_on_c, 80
1, 61204, Note_on_c, 73
1, 61204, Note_on_c, 42
1, 61204, Note_on_c, 82
1, 61204, Note_on_c, 80
1, 61244, Note_off_c, 82
1, 61264, Note_off_c, 73
1, 61320, Note_off_c, 42
1, 61324, Note_on_c, 64
1, 61324, Note_on_c, 42
1, 61384, Note_off_c, 64
1, 61440, Note_off_c, 42
1, 61440, Note_off_c, 80
1, 61440, Note_off_c, 80
1, 61440, Note_off_c, 61
1, 61440, Note_off_c, 57
1, 61440, Note_off_c, 52
1, 61440, Note_off_c, 33
1, 61440, Note_off_c, 61
1, 61440, Note_off_c, 57
1, 61440, Note_off_c, 52
1, 61440, Note_off_c, 72
1, 61440, Note_off_c, 85
1, 61444, Note_on_c, 56
1, 61444, Note_on_c, 61
1, 61444, Note_on_c, 66
1, 61444, Note_on_c, 56
1, 61444, Note_on_c, 61
1, 61444, Note_on_c, 66
1, 61444, Note_on_c, 78
1, 61444, Note_on_c, 76
1, 61444, Note_on_c, 61
1, 61444, Note_on_c, 32
1, 61444, Note_on_c, 78
1, 61444, Note_on_c, 48
1, 61504, Note_off_c, 61
1, 61564, Note_on_c, 49
1, 61620, Note_off_c, 49
1, 61680, Note_off_c, 78
1, 61680, Note_off_c, 32
1, 61680, Note_off_c, 78
1, 61680, Note_off_c, 66
1, 61680, Note_off_c, 61
1, 61680, Note_off_c, 56
1, 61680, Note_off_c, 66
1, 61680, Note_off_c, 61
1, 61680, Note_off_c, 56
1, 61684, Note_on_c, 56
1, 61684, Note_on_c, 61
1, 61684, Note_on_c, 64
1, 61684, Note_on_c, 56
1, 61684, Note_on_c, 61
1, 61684, Note_on_c, 64
1, 61684, Note_on_c, 76
1, 61684, Note_on_c, 61
1, 61684, Note_on_c, 76
1, 61744, Note_off_c, 61
1, 61804, Note_on_c, 68
1, 61860, Note_off_c, 68
1, 61920, Note_off_c, 76
1, 61920, Note_off_c, 76
1, 61920, Note_off_c, 64
1, 61920, Note_off_c, 61
1, 61920, Note_off_c, 56
1, 61920, Note_off_c, 64
1, 61920, Note_off_c, 61
1, 61920, Note_off_c, 56
1, 61924, Note_on_c, 56
1, 61924, Note_on_c, 61
1, 61924, Note_on_c, 64
1, 61924, Note_on_c, 56
1, 61924, Note_on_c, 61
1, 61924, Note_on_c, 64
1, 61924, Note_on_c, 76
1, 61924, Note_on_c, 56
1, 61924, Note_on_c, 32
1, 61924, Note_on_c, 37
1, 61924, Note_on_c, 76
1, 61980, Note_off_c, 56
1, 62040, Note_off_c, 37
1, 62044, Note_on_c, 61
1, 62104, Note_off_c, 61
1, 62160, Note_off_c, 76
1, 62160, Note_off_c, 32
1, 62160, Note_off_c, 76
1, 62160, Note_off_c, 64
1, 62160, Note_off_c, 61
1, 62160, Note_off_c, 56
1, 62160, Note_off_c, 64
1, 62160, Note_off_c, 61
1, 62160, Note_off_c, 56
1, 62164, Note_on_c, 68
1, 62224, Note_off_c, 68
1, 62284, Note_on_c, 73
1, 62400, Note_off_c, 73
1, 62404, Note_on_c, 56
1, 62404, Note_on_c, 59
1, 62404, Note_on_c, 64
1, 62404, Note_on_c, 56
1, 62404, Note_on_c, 59
1, 62404, Note_on_c, 64
1, 62404, Note_on_c, 76
1, 62404, Note_on_c, 73
1, 62404, Note_on_c, 32
1, 62404, Note_on_c, 76
1, 62460, Note_off_c, 73
1, 62524, Note_on_c, 68
1, 62580, Note_off_c, 68
1, 62640, Note_off_c, 76
1, 62640, Note_off_c, 32
1, 62640, Note_off_c, 76
1, 62640, Note_off_c, 64
1, 62640, Note_off_c, 59
1, 62640, Note_off_c, 56
1, 62640, Note_off_c, 64
1, 62640, Note_off_c, 59
1, 62640, Note_off_c, 56
1, 62644, Note_on_c, 56
1, 62644, Note_on_c, 59
1, 62644, Note_on_c, 64
1, 62644, Note_on_c, 56
1, 62644, Note_on_c, 59
1, 62644, Note_on_c, 64
1, 62644, Note_on_c, 76
1, 62644, Note_on_c, 73
1, 62644, Note_on_c, 76
1, 62700, Note_off_c, 73
1, 62764, Note_on_c, 81
1, 62880, Note_off_c, 81
1, 62880, Note_off_c, 76
1, 62880, Note_off_c, 76
1, 62880, Note_off_c, 64
1, 62880, Note_off_c, 59
1, 62880, Note_off_c, 56
1, 62880, Note_off_c, 64
1, 62880, Note_off_c, 59
1, 62880, Note_off_c, 56
1, 62884, Note_on_c, 56
1, 62884, Note_on_c, 59
1, 62884, Note_on_c, 64
1, 62884, Note_on_c, 56
1, 62884, Note_on_c, 59
1, 62884, Note_on_c, 64
1, 62884, Note_on_c, 76
1, 62884, Note_on_c, 73
1, 62884, Note_on_c, 32
1, 62884, Note_on_c, 37
1, 62884, Note_on_c, 76
1, 62944, Note_off_c, 73
1, 63000, Note_off_c, 37
1, 63004, Note_on_c, 68
1, 63120, Note_off_c, 68
1, 63120, Note_off_c, 76
1, 63120, Note_off_c, 32
1, 63120, Note_off_c, 76
1, 63120, Note_off_c, 64
1, 63120, Note_off_c, 59
1, 63120, Note_off_c, 56
1, 63120, Note_off_c, 64
1, 63120, Note_off_c, 59
1, 63120, Note_off_c, 56
1, 63124, Note_on_c, 56
1, 63124, Note_on_c, 59
1, 63124, Note_on_c, 64
1, 63124, Note_on_c, 56
1, 63124, Note_on_c, 59
1, 63124, Note_on_c, 64
1, 63124, Note_on_c, 76
1, 63124, Note_on_c, 73
1, 63124, Note_on_c, 76
1, 63184, Note_off_c, 73
1, 63244, Note_on_c, 64
1, 63304, Note_off_c, 64
1, 63360, Note_off_c, 76
1, 63360, Note_off_c, 76
1, 63360, Note_off_c, 64
1, 63360, Note_off_c, 59
1, 63360, Note_off_c, 56
1, 63360, Note_off_c, 64
1, 63360, Note_off_c, 59
1, 63360, Note_off_c, 56
1, 63360, Note_off_c, 48
1, 63360, Note_off_c, 76
1, 63364, Note_on_c, 54
1, 63364, Note_on_c, 59
1, 63364, Note_on_c, 63
1, 63364, Note_on_c, 54
1, 63364, Note_on_c, 59
1, 63364, Note_on_c, 63
1, 63364, Note_on_c, 75
1, 63364, Note_on_c, 85
1, 63364, Note_on_c, 61
1, 63364, Note_on_c, 32
1, 63364, Note_on_c, 75
1, 63424, Note_off_c, 61
1, 63484, Note_on_c, 49
1, 63540, Note_off_c, 49
1, 63600, Note_off_c, 75
1, 63600, Note_off_c, 32
1, 63600, Note_off_c, 75
1, 63600, Note_off_c, 63
1, 63600, Note_off_c, 59
1, 63600, Note_off_c, 54
1, 63600, Note_off_c, 63
1, 63600, Note_off_c, 59
1, 63600, Note_off_c, 54
1, 63604, Note_on_c, 54
1, 63604, Note_on_c, 59
1, 63604, Note_on_c, 63
1, 63604, Note_on_c, 54
1, 63604, Note_on_c, 59
1, 63604, Note_on_c, 63
1, 63604, Note_on_c, 75
1, 63604, Note_on_c, 61
1, 63604, Note_on_c, 75
1, 63664, Note_off_c, 61
1, 63724, Note_on_c, 68
1, 63780, Note_off_c, 68
1, 63840, Note_off_c, 75
1, 63840, Note_off_c, 75
1, 63840, Note_off_c, 63
1, 63840, Note_off_c, 59
1, 63840, Note_off_c, 54
1, 63840, Note_off_c, 63
1, 63840, Note_off_c, 59
1, 63840, Note_off_c, 54
1, 63844, Note_on_c, 54
1, 63844, Note_on_c, 59
1, 63844, Note_on_c, 63
1, 63844, Note_on_c, 54
1, 63844, Note_on_c, 59
1, 63844, Note_on_c, 63
1, 63844, Note_on_c, 76
1, 63844, Note_on_c, 56
1, 63844, Note_on_c, 32
1, 63844, Note_on_c, 37
1, 63844, Note_on_c, 76
1, 63900, Note_off_c, 56
1, 63960, Note_off_c, 37
1, 63964, Note_on_c, 61
1, 64024, Note_off_c, 61
1, 64080, Note_off_c, 76
1, 64080, Note_off_c, 32
1, 64080, Note_off_c, 76
1, 64080, Note_off_c, 63
1, 64080, Note_off_c, 59
1, 64080, Note_off_c, 54
1, 64080, Note_off_c, 63
1, 64080, Note_off_c, 59
1, 64080, Note_off_c, 54
1, 64084, Note_on_c, 52
1, 64084, Note_on_c, 57
1, 64084, Note_on_c, 61
1, 64084, Note_on_c, 52
1, 64084, Note_on_c, 57
1, 64084, Note_on_c, 61
1, 64084, Note_on_c, 76
1, 64084, Note_on_c, 68
1, 64084, Note_on_c, 29
1, 64084, Note_on_c, 76
1, 64144, Note_off_c, 68
1, 64204, Note_on_c, 73
1, 64320, Note_off_c, 73
1, 64320, Note_off_c, 76
1, 64320, Note_off_c, 29
1, 64320, Note_off_c, 76
1, 64320, Note_off_c, 61
1, 64320, Note_off_c, 57
1, 64320, Note_off_c, 52
1, 64320, Note_off_c, 61
1, 64320, Note_off_c, 57
1, 64320, Note_off_c, 52
1, 64324, Note_on_c, 73
1, 64324, Note_on_c, 32
1, 64380, Note_off_c, 73
1, 64444, Note_on_c, 68
1, 64500, Note_off_c, 68
1, 64560, Note_off_c, 32
1, 64564, Note_on_c, 52
1, 64564, Note_on_c, 57
1, 64564, Note_on_c, 61
1, 64564, Note_on_c, 52
1, 64564, Note_on_c, 57
1, 64564, Note_on_c, 61
1, 64564, Note_on_c, 85
1, 64564, Note_on_c, 73
1, 64564, Note_on_c, 85
1, 64620, Note_off_c, 73
1, 64684, Note_on_c, 81
1, 64800, Note_off_c, 81
1, 64800, Note_off_c, 85
1, 64800, Note_off_c, 85
1, 64800, Note_off_c, 61
1, 64800, Note_off_c, 57
1, 64800, Note_off_c, 52
1, 64800, Note_off_c, 61
1, 64800, Note_off_c, 57
1, 64800, Note_off_c, 52
1, 64804, Note_on_c, 52
1, 64804, Note_on_c, 57
1, 64804, Note_on_c, 61
1, 64804, Note_on_c, 52
1, 64804, Note_on_c, 57
1, 64804, Note_on_c, 61
1, 64804, Note_on_c, 83
1, 64804, Note_on_c, 73
1, 64804, Note_on_c, 32
1, 64804, Note_on_c, 37
1, 64804, Note_on_c, 83
1, 64864, Note_off_c, 73
1, 64920, Note_off_c, 37
1, 64924, Note_on_c, 68
1, 65040, Note_off_c, 68
1, 65040, Note_off_c, 83
1, 65040, Note_off_c, 32
1, 65040, Note_off_c, 83
1, 65040, Note_off_c, 61
1, 65040, Note_off_c, 57
1, 65040, Note_off_c, 52
1, 65040, Note_off_c, 61
1, 65040, Note_off_c, 57
1, 65040, Note_off_c, 52
1, 65044, Note_on_c, 52
1, 65044, Note_on_c, 57
1, 65044, Note_on_c, 61
1, 65044, Note_on_c, 52
1, 65044, Note_on_c, 57
1, 65044, Note_on_c, 61
1, 65044, Note_on_c, 80
1, 65044, Note_on_c, 73
1, 65044, Note_on_c, 80
1, 65104, Note_off_c, 73
1, 65164, Note_on_c, 64
1, 65224, Note_off_c, 64
1, 65280, Note_off_c, 80
1, 65280, Note_off_c, 80
1, 65280, Note_off_c, 61
1, 65280, Note_off_c, 57
1, 65280, Note_off_c, 52
1, 65280, Note_off_c, 61
1, 65280, Note_off_c, 57
1, 65280, Note_off_c, 52
1, 65280, Note_off_c, 85
1, 65284, Note_on_c, 56
1, 65284, Note_on_c, 61
1, 65284, Note_on_c, 66
1, 65284, Note_on_c, 56
1, 65284, Note_on_c, 61
1, 65284, Note_on_c, 66
1, 65284, Note_on_c, 78
1, 65284, Note_on_c, 76
1, 65284, Note_on_c, 61
1, 65284, Note_on_c, 32
1, 65284, Note_on_c, 72
1, 65284, Note_on_c, 78
1, 65344, Note_off_c, 61
1, 65404, Note_on_c, 49
1, 65460, Note_off_c, 49
1, 65520, Note_off_c, 78
1, 65520, Note_off_c, 32
1, 65520, Note_off_c, 78
1, 65520, Note_off_c, 66
1, 65520, Note_off_c, 61
1, 65520, Note_off_c, 56
1, 65520, Note_off_c, 66
1, 65520, Note_off_c, 61
1, 65520, Note_off_c, 56
1, 65524, Note_on_c, 56
1, 65524, Note_on_c, 61
1, 65524, Note_on_c, 64
1, 65524, Note_on_c, 56
1, 65524, Note_on_c, 61
1, 65524, Note_on_c, 64
1, 65524, Note_on_c, 76
1, 65524, Note_on_c, 61
1, 65524, Note_on_c, 76
1, 65584, Note_off_c, 61
1, 65644, Note_on_c, 68
1, 65700, Note_off_c, 68
1, 65760, Note_off_c, 76
1, 65760, Note_off_c, 76
1, 65760, Note_off_c, 64
1, 65760, Note_off_c, 61
1, 65760, Note_off_c, 56
1, 65760, Note_off_c, 64
1, 65760, Note_off_c, 61
1, 65760, Note_off_c, 56
1, 65764, Note_on_c, 56
1, 65764, Note_on_c, 61
1, 65764, Note_on_c, 64
1, 65764, Note_on_c, 56
1, 65764, Note_on_c, 61
1, 65764, Note_on_c, 64
1, 65764, Note_on_c, 76
1, 65764, Note_on_c, 56
1, 65764, Note_on_c, 32
1, 65764, Note_on_c, 37
1, 65764, Note_on_c, 76
1, 65820, Note_off_c, 56
1, 65880, Note_off_c, 37
1, 65884, Note_on_c, 61
1, 65944, Note_off_c, 61
1, 66000, Note_off_c, 76
1, 66000, Note_off_c, 32
1, 66000, Note_off_c, 76
1, 66000, Note_off_c, 64
1, 66000, Note_off_c, 61
1, 66000, Note_off_c, 56
1, 66000, Note_off_c, 64
1, 66000, Note_off_c, 61
1, 66000, Note_off_c, 56
1, 66004, Note_on_c, 68
1, 66064, Note_off_c, 68
1, 66124, Note_on_c, 73
1, 66240, Note_off_c, 73
1, 66244, Note_on_c, 56
1, 66244, Note_on_c, 59
1, 66244, Note_on_c, 64
1, 66244, Note_on_c, 56
1, 66244, Note_on_c, 59
1, 66244, Note_on_c, 64
1, 66244, Note_on_c, 76
1, 66244, Note_on_c, 73
1, 66244, Note_on_c, 32
1, 66244, Note_on_c, 76
1, 66300, Note_off_c, 73
1, 66364, Note_on_c, 68
1, 66420, Note_off_c, 68
1, 66480, Note_off_c, 76
1, 66480, Note_off_c, 32
1, 66480, Note_off_c, 76
1, 66480, Note_off_c, 64
1, 66480, Note_off_c, 59
1, 66480, Note_off_c, 56
1, 66480, Note_off_c, 64
1, 66480, Note_off_c, 59
1, 66480, Note_off_c, 56
1, 66484, Note_on_c, 56
1, 66484, Note_on_c, 59
1, 66484, Note_on_c, 64
1, 66484, Note_on_c, 56
1, 66484, Note_on_c, 59
1, 66484, Note_on_c, 64
1, 66484, Note_on_c, 76
1, 66484, Note_on_c, 73
1, 66484, Note_on_c, 76
1, 66540, Note_off_c, 73
1, 66604, Note_on_c, 81
1, 66720, Note_off_c, 81
1, 66720, Note_off_c, 76
1, 66720, Note_off_c, 76
1, 66720, Note_off_c, 64
1, 66720, Note_off_c, 59
1, 66720, Note_off_c, 56
1, 66720, Note_off_c, 64
1, 66720, Note_off_c, 59
1, 66720, Note_off_c, 56
1, 66724, Note_on_c, 56
1, 66724, Note_on_c, 59
1, 66724, Note_on_c, 64
1, 66724, Note_on_c, 56
1, 66724, Note_on_c, 59
1, 66724, Note_on_c, 64
1, 66724, Note_on_c, 76
1, 66724, Note_on_c, 73
1, 66724, Note_on_c, 32
1, 66724, Note_on_c, 37
1, 66724, Note_on_c, 76
1, 66784, Note_off_c, 73
1, 66840, Note_off_c, 37
1, 66844, Note_on_c, 68
1, 66960, Note_off_c, 68
1, 66960, Note_off_c, 76
1, 66960, Note_off_c, 32
1, 66960, Note_off_c, 76
1, 66960, Note_off_c, 64
1, 66960, Note_off_c, 59
1, 66960, Note_off_c, 56
1, 66960, Note_off_c, 64
1, 66960, Note_off_c, 59
1, 66960, Note_off_c, 56
1, 66964, Note_on_c, 56
1, 66964, Note_on_c, 59
1, 66964, Note_on_c, 64
1, 66964, Note_on_c, 56
1, 66964, Note_on_c, 59
1, 66964, Note_on_c, 64
1, 66964, Note_on_c, 76
1, 66964, Note_on_c, 73
1, 66964, Note_on_c, 76
1, 67024, Note_off_c, 73
1, 67084, Note_on_c, 64
1, 67144, Note_off_c, 64
1, 67200, Note_off_c, 76
1, 67200, Note_off_c, 76
1, 67200, Note_off_c, 64
1, 67200, Note_off_c, 59
1, 67200, Note_off_c, 56
1, 67200, Note_off_c, 64
1, 67200, Note_off_c, 59
1, 67200, Note_off_c, 56
1, 67200, Note_off_c, 76
1, 67204, Note_on_c, 54
1, 67204, Note_on_c, 59
1, 67204, Note_on_c, 63
1, 67204, Note_on_c, 54
1, 67204, Note_on_c, 59
1, 67204, Note_on_c, 63
1, 67204, Note_on_c, 73
1, 67204, Note_on_c, 85
1, 67204, Note_on_c, 61
1, 67204, Note_on_c, 32
1, 67204, Note_on_c, 73
1, 67264, Note_off_c, 61
1, 67324, Note_on_c, 49
1, 67380, Note_off_c, 49
1, 67440, Note_off_c, 73
1, 67440, Note_off_c, 32
1, 67440, Note_off_c, 73
1, 67440, Note_off_c, 63
1, 67440, Note_off_c, 59
1, 67440, Note_off_c, 54
1, 67440, Note_off_c, 63
1, 67440, Note_off_c, 59
1, 67440, Note_off_c, 54
1, 67444, Note_on_c, 54
1, 67444, Note_on_c, 59
1, 67444, Note_on_c, 63
1, 67444, Note_on_c, 54
1, 67444, Note_on_c, 59
1, 67444, Note_on_c, 63
1, 67444, Note_on_c, 73
1, 67444, Note_on_c, 61
1, 67444, Note_on_c, 73
1, 67504, Note_off_c, 61
1, 67564, Note_on_c, 68
1, 67620, Note_off_c, 68
1, 67680, Note_off_c, 73
1, 67680, Note_off_c, 73
1, 67680, Note_off_c, 63
1, 67680, Note_off_c, 59
1, 67680, Note_off_c, 54
1, 67680, Note_off_c, 63
1, 67680, Note_off_c, 59
1, 67680, Note_off_c, 54
1, 67684, Note_on_c, 54
1, 67684, Note_on_c, 59
1, 67684, Note_on_c, 63
1, 67684, Note_on_c, 54
1, 67684, Note_on_c, 59
1, 67684, Note_on_c, 63
1, 67684, Note_on_c, 71
1, 67684, Note_on_c, 56
1, 67684, Note_on_c, 32
1, 67684, Note_on_c, 37
1, 67684, Note_on_c, 71
1, 67740, Note_off_c, 56
1, 67800, Note_off_c, 37
1, 67804, Note_on_c, 61
1, 67864, Note_off_c, 61
1, 67920, Note_off_c, 71
1, 67920, Note_off_c, 32
1, 67920, Note_off_c, 71
1, 67920, Note_off_c, 63
1, 67920, Note_off_c, 59
1, 67920, Note_off_c, 54
1, 67920, Note_off_c, 63
1, 67920, Note_off_c, 59
1, 67920, Note_off_c, 54
1, 67924, Note_on_c, 52
1, 67924, Note_on_c, 57
1, 67924, Note_on_c, 61
1, 67924, Note_on_c, 52
1, 67924, Note_on_c, 57
1, 67924, Note_on_c, 61
1, 67924, Note_on_c, 71
1, 67924, Note_on_c, 68
1, 67924, Note_on_c, 29
1, 67924, Note_on_c, 71
1, 67984, Note_off_c, 68
1, 68044, Note_on_c, 73
1, 68160, Note_off_c, 73
1, 68160, Note_off_c, 71
1, 68160, Note_off_c, 29
1, 68160, Note_off_c, 71
1, 68160, Note_off_c, 61
1, 68160, Note_off_c, 57
1, 68160, Note_off_c, 52
1, 68160, Note_off_c, 61
1, 68160, Note_off_c, 57
1, 68160, Note_off_c, 52
1, 68164, Note_on_c, 73
1, 68164, Note_on_c, 32
1, 68220, Note_off_c, 73
1, 68284, Note_on_c, 68
1, 68340, Note_off_c, 68
1, 68400, Note_off_c, 32
1, 68404, Note_on_c, 52
1, 68404, Note_on_c, 57
1, 68404, Note_on_c, 61
1, 68404, Note_on_c, 52
1, 68404, Note_on_c, 57
1, 68404, Note_on_c, 61
1, 68404, Note_on_c, 85
1, 68404, Note_on_c, 73
1, 68404, Note_on_c, 85
1, 68460, Note_off_c, 73
1, 68524, Note_on_c, 81
1, 68640, Note_off_c, 81
1, 68640, Note_off_c, 85
1, 68640, Note_off_c, 85
1, 68640, Note_off_c, 61
1, 68640, Note_off_c, 57
1, 68640, Note_off_c, 52
1, 68640, Note_off_c, 61
1, 68640, Note_off_c, 57
1, 68640, Note_off_c, 52
1, 68644, Note_on_c, 52
1, 68644, Note_on_c, 57
1, 68644, Note_on_c, 61
1, 68644, Note_on_c, 52
1, 68644, Note_on_c, 57
1, 68644, Note_on_c, 61
1, 68644, Note_on_c, 83
1, 68644, Note_on_c, 73
1, 68644, Note_on_c, 32
1, 68644, Note_on_c, 37
1, 68644, Note_on_c, 83
1, 68704, Note_off_c, 73
1, 68760, Note_off_c, 37
1, 68764, Note_on_c, 68
1, 68880, Note_off_c, 68
1, 68880, Note_off_c, 83
1, 68880, Note_off_c, 32
1, 68880, Note_off_c, 83
1, 68880, Note_off_c, 61
1, 68880, Note_off_c, 57
1, 68880, Note_off_c, 52
1, 68880, Note_off_c, 61
1, 68880, Note_off_c, 57
1, 68880, Note_off_c, 52
1, 68884, Note_on_c, 52
1, 68884, Note_on_c, 57
1, 68884, Note_on_c, 61
1, 68884, Note_on_c, 52
1, 68884, Note_on_c, 57
1, 68884, Note_on_c, 61
1, 68884, Note_on_c, 80
1, 68884, Note_on_c, 73
1, 68884, Note_on_c, 80
1, 68944, Note_off_c, 73
1, 69000, Note_off_c, 72
1, 69004, Note_on_c, 64
1, 69064, Note_off_c, 64
1, 69120, Note_off_c, 80
1, 69120, Note_off_c, 80
1, 69120, Note_off_c, 61
1, 69120, Note_off_c, 57
1, 69120, Note_off_c, 52
1, 69120, Note_off_c, 61
1, 69120, Note_off_c, 57
1, 69120, Note_off_c, 52
1, 69120, Note_off_c, 85
1, 69124, Note_on_c, 32
1, 69124, Note_on_c, 72
1, 69124, Note_on_c, 48
1, 69240, Note_off_c, 32
1, 69364, Note_on_c, 52
1, 69364, Note_on_c, 57
1, 69364, Note_on_c, 61
1, 69364, Note_on_c, 52
1, 69364, Note_on_c, 57
1, 69364, Note_on_c, 61
1, 69364, Note_on_c, 68
1, 69364, Note_on_c, 68
1, 69600, Note_off_c, 68
1, 69600, Note_off_c, 68
1, 69600, Note_off_c, 61
1, 69600, Note_off_c, 57
1, 69600, Note_off_c, 52
1, 69600, Note_off_c, 61
1, 69600, Note_off_c, 57
1, 69600, Note_off_c, 52
1, 69604, Note_on_c, 32
1, 69720, Note_off_c, 32
1, 69844, Note_on_c, 52
1, 69844, Note_on_c, 57
1, 69844, Note_on_c, 61
1, 69844, Note_on_c, 52
1, 69844, Note_on_c, 57
1, 69844, Note_on_c, 61
1, 69844, Note_on_c, 68
1, 69844, Note_on_c, 68
1, 70080, Note_off_c, 68
1, 70080, Note_off_c, 68
1, 70080, Note_off_c, 61
1, 70080, Note_off_c, 57
1, 70080, Note_off_c, 52
1, 70080, Note_off_c, 61
1, 70080, Note_off_c, 57
1, 70080, Note_off_c, 52
1, 70084, Note_on_c, 32
1, 70200, Note_off_c, 32
1, 70324, Note_on_c, 52
1, 70324, Note_on_c, 57
1, 70324, Note_on_c, 61
1, 70324, Note_on_c, 52
1, 70324, Note_on_c, 57
1, 70324, Note_on_c, 61
1, 70324, Note_on_c, 68
1, 70324, Note_on_c, 68
1, 70560, Note_off_c, 68
1, 70560, Note_off_c, 68
1, 70560, Note_off_c, 61
1, 70560, Note_off_c, 57
1, 70560, Note_off_c, 52
1, 70560, Note_off_c, 61
1, 70560, Note_off_c, 57
1, 70560, Note_off_c, 52
1, 70564, Note_on_c, 32
1, 70680, Note_off_c, 32
1, 70804, Note_on_c, 52
1, 70804, Note_on_c, 57
1, 70804, Note_on_c, 61
1, 70804, Note_on_c, 52
1, 70804, Note_on_c, 57
1, 70804, Note_on_c, 61
1, 70804, Note_on_c, 68
1, 70804, Note_on_c, 68
1, 71040, Note_off_c, 68
1, 71040, Note_off_c, 68
1, 71040, Note_off_c, 61
1, 71040, Note_off_c, 57
1, 71040, Note_off_c, 52
1, 71040, Note_off_c, 61
1, 71040, Note_off_c, 57
1, 71040, Note_off_c, 52
1, 71040, Note_off_c, 48
1, 71044, Note_on_c, 56
1, 71044, Note_on_c, 32
1, 71160, Note_off_c, 32
1, 71284, Note_on_c, 52
1, 71284, Note_on_c, 57
1, 71284, Note_on_c, 61
1, 71284, Note_on_c, 52
1, 71284, Note_on_c, 57
1, 71284, Note_on_c, 61
1, 71284, Note_on_c, 68
1, 71284, Note_on_c, 68
1, 71400, Note_off_c, 68
1, 71400, Note_off_c, 68
1, 71520, Note_off_c, 61
1, 71520, Note_off_c, 57
1, 71520, Note_off_c, 52
1, 71520, Note_off_c, 61
1, 71520, Note_off_c, 57
1, 71520, Note_off_c, 52
1, 71524, Note_on_c, 32
1, 71640, Note_off_c, 32
1, 71764, Note_on_c, 52
1, 71764, Note_on_c, 57
1, 71764, Note_on_c, 61
1, 71764, Note_on_c, 52
1, 71764, Note_on_c, 57
1, 71764, Note_on_c, 61
1, 71764, Note_on_c, 68
1, 71764, Note_on_c, 68
1, 71880, Note_off_c, 68
1, 71880, Note_off_c, 68
1, 72000, Note_off_c, 61
1, 72000, Note_off_c, 57
1, 72000, Note_off_c, 52
1, 72000, Note_off_c, 61
1, 72000, Note_off_c, 57
1, 72000, Note_off_c, 52
1, 72004, Note_on_c, 32
1, 72120, Note_off_c, 32
1, 72244, Note_on_c, 52
1, 72244, Note_on_c, 57
1, 72244, Note_on_c, 61
1, 72244, Note_on_c, 52
1, 72244, Note_on_c, 57
1, 72244, Note_on_c, 61
1, 72244, Note_on_c, 68
1, 72244, Note_on_c, 68
1, 72480, Note_off_c, 68
1, 72480, Note_off_c, 68
1, 72480, Note_off_c, 61
1, 72480, Note_off_c, 57
1, 72480, Note_off_c, 52
1, 72480, Note_off_c, 61
1, 72480, Note_off_c, 57
1, 72480, Note_off_c, 52
1, 72484, Note_on_c, 32
1, 72600, Note_off_c, 32
1, 72724, Note_on_c, 52
1, 72724, Note_on_c, 57
1, 72724, Note_on_c, 61
1, 72724, Note_on_c, 52
1, 72724, Note_on_c, 57
1, 72724, Note_on_c, 61
1, 72724, Note_on_c, 68
1, 72724, Note_on_c, 68
1, 72840, Note_off_c, 68
1, 72840, Note_off_c, 68
1, 72960, Note_off_c, 61
1, 72960, Note_off_c, 57
1, 72960, Note_off_c, 52
1, 72960, Note_off_c, 61
1, 72960, Note_off_c, 57
1, 72960, Note_off_c, 52
1, 72964, Note_on_c, 68
1, 72964, Note_on_c, 32
1, 73080, Note_off_c, 32
1, 73204, Note_on_c, 52
1, 73204, Note_on_c, 57
1, 73204, Note_on_c, 61
1, 73204, Note_on_c, 52
1, 73204, Note_on_c, 57
1, 73204, Note_on_c, 61
1, 73204, Note_on_c, 68
1, 73204, Note_on_c, 68
1, 73440, Note_off_c, 68
1, 73440, Note_off_c, 68
1, 73440, Note_off_c, 61
1, 73440, Note_off_c, 57
1, 73440, Note_off_c, 52
1, 73440, Note_off_c, 61
1, 73440, Note_off_c, 57
1, 73440, Note_off_c, 52
1, 73444, Note_on_c, 32
1, 73560, Note_off_c, 32
1, 73684, Note_on_c, 52
1, 73684, Note_on_c, 57
1, 73684, Note_on_c, 61
1, 73684, Note_on_c, 52
1, 73684, Note_on_c, 57
1, 73684, Note_on_c, 61
1, 73684, Note_on_c, 68
1, 73684, Note_on_c, 68
1, 73920, Note_off_c, 68
1, 73920, Note_off_c, 68
1, 73920, Note_off_c, 61
1, 73920, Note_off_c, 57
1, 73920, Note_off_c, 52
1, 73920, Note_off_c, 61
1, 73920, Note_off_c, 57
1, 73920, Note_off_c, 52
1, 73924, Note_on_c, 32
1, 74040, Note_off_c, 32
1, 74164, Note_on_c, 52
1, 74164, Note_on_c, 57
1, 74164, Note_on_c, 61
1, 74164, Note_on_c, 52
1, 74164, Note_on_c, 57
1, 74164, Note_on_c, 61
1, 74164, Note_on_c, 68
1, 74164, Note_on_c, 68
1, 74400, Note_off_c, 68
1, 74400, Note_off_c, 68
1, 74400, Note_off_c, 61
1, 74400, Note_off_c, 57
1, 74400, Note_off_c, 52
1, 74400, Note_off_c, 61
1, 74400, Note_off_c, 57
1, 74400, Note_off_c, 52
1, 74404, Note_on_c, 32
1, 74520, Note_off_c, 32
1, 74644, Note_on_c, 52
1, 74644, Note_on_c, 57
1, 74644, Note_on_c, 61
1, 74644, Note_on_c, 52
1, 74644, Note_on_c, 57
1, 74644, Note_on_c, 61
1, 74644, Note_on_c, 68
1, 74644, Note_on_c, 68
1, 74760, Note_off_c, 68
1, 74760, Note_off_c, 68
1, 74880, Note_off_c, 61
1, 74880, Note_off_c, 57
1, 74880, Note_off_c, 52
1, 74880, Note_off_c, 61
1, 74880, Note_off_c, 57
1, 74880, Note_off_c, 52
1, 74884, Note_on_c, 32
1, 75000, Note_off_c, 32
1, 75364, Note_on_c, 32
1, 75480, Note_off_c, 32
1, 75844, Note_on_c, 32
1, 75960, Note_off_c, 32
1, 76324, Note_on_c, 32
1, 76440, Note_off_c, 32
1, 76440, Note_off_c, 72
1, 76800, Note_off_c, 68
1, 76800, Note_off_c, 56
1, 76804, Note_on_c, 68
1, 76804, Note_on_c, 56
1, 76804, Note_on_c, 68
1, 76804, Note_on_c, 37
1, 76804, Note_on_c, 49
1, 76804, Note_on_c, 56
1, 76804, Note_on_c, 61
1, 76804, Note_on_c, 66
1, 77524, Note_on_c, 66
1, 77560, Note_off_c, 68
1, 77760, Note_off_c, 66
1, 77760, Note_off_c, 61
1, 77760, Note_off_c, 56
1, 77760, Note_off_c, 49
1, 77760, Note_off_c, 37
1, 77764, Note_on_c, 40
1, 77764, Note_on_c, 52
1, 77764, Note_on_c, 56
1, 77764, Note_on_c, 59
1, 77764, Note_on_c, 64
1, 78396, Note_off_c, 66
1, 78480, Note_off_c, 59
1, 78480, Note_off_c, 56
1, 78484, Note_on_c, 64
1, 78616, Note_off_c, 64
1, 78720, Note_off_c, 64
1, 78720, Note_off_c, 52
1, 78720, Note_off_c, 40
1, 78724, Note_on_c, 61
1, 78724, Note_on_c, 47
1, 78724, Note_on_c, 54
1, 78724, Note_on_c, 59
1, 78724, Note_on_c, 63
1, 79200, Note_off_c, 63
1, 79200, Note_off_c, 59
1, 79204, Note_on_c, 64
1, 79440, Note_off_c, 64
1, 79440, Note_off_c, 54
1, 79440, Note_off_c, 47
1, 79444, Note_on_c, 45
1, 79444, Note_on_c, 52
1, 79444, Note_on_c, 57
1, 79444, Note_on_c, 59
1, 79728, Note_off_c, 61
1, 79924, Note_on_c, 61
1, 80048, Note_off_c, 61
1, 80164, Note_on_c, 56
1, 80264, Note_off_c, 56
1, 80284, Note_on_c, 54
1, 80388, Note_off_c, 54
1, 80404, Note_on_c, 52
1, 80564, Note_off_c, 52
1, 80640, Note_off_c, 59
1, 80640, Note_off_c, 57
1, 80640, Note_off_c, 52
1, 80640, Note_off_c, 45
1, 80644, Note_on_c, 61
1, 80644, Note_on_c, 37
1, 80644, Note_on_c, 49
1, 80644, Note_on_c, 56
1, 80644, Note_on_c, 61
1, 80644, Note_on_c, 66
1, 80772, Note_off_c, 61
1, 80884, Note_on_c, 61
1, 81132, Note_off_c, 61
1, 81600, Note_off_c, 66
1, 81600, Note_off_c, 61
1, 81600, Note_off_c, 56
1, 81600, Note_off_c, 49
1, 81600, Note_off_c, 37
1, 81604, Note_on_c, 40
1, 81604, Note_on_c, 52
1, 81604, Note_on_c, 56
1, 81604, Note_on_c, 59
1, 81604, Note_on_c, 64
1, 82320, Note_off_c, 59
1, 82320, Note_off_c, 56
1, 82324, Note_on_c, 56
1, 82560, Note_off_c, 64
1, 82560, Note_off_c, 52
1, 82560, Note_off_c, 40
1, 82564, Note_on_c, 47
1, 82564, Note_on_c, 54
1, 82564, Note_on_c, 59
1, 82564, Note_on_c, 63
1, 82624, Note_off_c, 56
1, 83040, Note_off_c, 63
1, 83040, Note_off_c, 59
1, 83044, Note_on_c, 64
1, 83280, Note_off_c, 64
1, 83280, Note_off_c, 54
1, 83280, Note_off_c, 47
1, 83284, Note_on_c, 45
1, 83284, Note_on_c, 52
1, 83284, Note_on_c, 57
1, 83284, Note_on_c, 59
1, 84480, Note_off_c, 59
1, 84480, Note_off_c, 57
1, 84480, Note_off_c, 52
1, 84480, Note_off_c, 45
1, 84484, Note_on_c, 37
1, 84484, Note_on_c, 49
1, 84484, Note_on_c, 56
1, 84484, Note_on_c, 61
1, 84484, Note_on_c, 66
1, 84964, Note_on_c, 71
1, 85124, Note_off_c, 71
1, 85204, Note_on_c, 68
1, 85372, Note_off_c, 68
1, 85440, Note_off_c, 66
1, 85440, Note_off_c, 61
1, 85440, Note_off_c, 56
1, 85440, Note_off_c, 49
1, 85440, Note_off_c, 37
1, 85444, Note_on_c, 71
1, 85444, Note_on_c, 40
1, 85444, Note_on_c, 52
1, 85444, Note_on_c, 56
1, 85444, Note_on_c, 59
1, 85444, Note_on_c, 64
1, 85596, Note_off_c, 71
1, 85684, Note_on_c, 71
1, 85836, Note_off_c, 71
1, 85924, Note_on_c, 68
1, 86048, Note_off_c, 68
1, 86160, Note_off_c, 59
1, 86160, Note_off_c, 56
1, 86164, Note_on_c, 68
1, 86296, Note_off_c, 68
1, 86400, Note_off_c, 64
1, 86400, Note_off_c, 52
1, 86400, Note_off_c, 40
1, 86404, Note_on_c, 73
1, 86404, Note_on_c, 47
1, 86404, Note_on_c, 54
1, 86404, Note_on_c, 59
1, 86404, Note_on_c, 63
1, 86516, Note_off_c, 73
1, 86644, Note_on_c, 73
1, 86748, Note_off_c, 73
1, 86764, Note_on_c, 71
1, 86880, Note_off_c, 63
1, 86880, Note_off_c, 59
1, 86884, Note_off_c, 71
1, 86884, Note_on_c, 64
1, 87004, Note_on_c, 71
1, 87084, Note_off_c, 71
1, 87120, Note_off_c, 64
1, 87120, Note_off_c, 54
1, 87120, Note_off_c, 47
1, 87124, Note_on_c, 68
1, 87124, Note_on_c, 45
1, 87124, Note_on_c, 52
1, 87124, Note_on_c, 57
1, 87124, Note_on_c, 59
1, 87216, Note_off_c, 68
1, 87364, Note_on_c, 68
1, 87444, Note_off_c, 68
1, 87484, Note_on_c, 66
1, 87592, Note_off_c, 66
1, 87724, Note_on_c, 66
1, 87804, Note_off_c, 66
1, 87844, Note_on_c, 64
1, 87932, Note_off_c, 64
1, 88084, Note_on_c, 61
1, 88168, Note_off_c, 61
1, 88320, Note_off_c, 59
1, 88320, Note_off_c, 57
1, 88320, Note_off_c, 52
1, 88320, Note_off_c, 45
1, 88324, Note_on_c, 61
1, 88324, Note_on_c, 37
1, 88324, Note_on_c, 49
1, 88324, Note_on_c, 56
1, 88324, Note_on_c, 61
1, 88324, Note_on_c, 66
1, 88632, Note_off_c, 61
1, 89044, Note_on_c, 54
1, 89176, Note_off_c, 54
1, 89280, Note_off_c, 66
1, 89280, Note_off_c, 61
1, 89280, Note_off_c, 56
1, 89280, Note_off_c, 49
1, 89280, Note_off_c, 37
1, 89284, Note_on_c, 52
1, 89284, Note_on_c, 40
1, 89284, Note_on_c, 52
1, 89284, Note_on_c, 56
1, 89284, Note_on_c, 59
1, 89284, Note_on_c, 64
1, 89384, Note_off_c, 52
1, 89524, Note_on_c, 59
1, 89636, Note_off_c, 59
1, 89764, Note_on_c, 56
1, 89852, Note_off_c, 56
1, 89884, Note_on_c, 54
1, 89972, Note_off_c, 54
1, 90000, Note_off_c, 59
1, 90000, Note_off_c, 56
1, 90004, Note_on_c, 52
1, 90132, Note_off_c, 52
1, 90240, Note_off_c, 64
1, 90240, Note_off_c, 52
1, 90240, Note_off_c, 40
1, 90244, Note_on_c, 61
1, 90244, Note_on_c, 47
1, 90244, Note_on_c, 54
1, 90244, Note_on_c, 59
1, 90244, Note_on_c, 63
1, 90372, Note_off_c, 61
1, 90484, Note_on_c, 61
1, 90668, Note_off_c, 61
1, 90720, Note_off_c, 63
1, 90720, Note_off_c, 59
1, 90724, Note_on_c, 64
1, 90960, Note_off_c, 64
1, 90960, Note_off_c, 54
1, 90960, Note_off_c, 47
1, 90964, Note_on_c, 56
1, 90964, Note_on_c, 45
1, 90964, Note_on_c, 52
1, 90964, Note_on_c, 57
1, 90964, Note_on_c, 59
1, 91240, Note_off_c, 56
1, 91920, Note_off_c, 68
1, 91920, Note_off_c, 56
1, 92160, Note_off_c, 59
1, 92160, Note_off_c, 57
1, 92160, Note_off_c, 52
1, 92160, Note_off_c, 45
1, 92164, Note_on_c, 68
1, 92164, Note_on_c, 56
1, 92164, Note_on_c, 68
1, 92164, Note_on_c, 37
1, 92164, Note_on_c, 49
1, 92164, Note_on_c, 56
1, 92164, Note_on_c, 61
1, 92164, Note_on_c, 66
1, 92164, Note_on_c, 42
1, 92164, Note_on_c, 37
1, 92164, Note_on_c, 49
1, 92164, Note_on_c, 56
1, 92164, Note_on_c, 61
1, 92164, Note_on_c, 66
1, 92400, Note_off_c, 42
1, 92644, Note_on_c, 37
1, 92644, Note_on_c, 42
1, 92880, Note_off_c, 42
1, 92880, Note_off_c, 37
1, 92884, Note_on_c, 66
1, 92920, Note_off_c, 68
1, 93120, Note_off_c, 66
1, 93120, Note_off_c, 61
1, 93120, Note_off_c, 56
1, 93120, Note_off_c, 49
1, 93120, Note_off_c, 37
1, 93120, Note_off_c, 66
1, 93120, Note_off_c, 61
1, 93120, Note_off_c, 56
1, 93120, Note_off_c, 49
1, 93120, Note_off_c, 37
1, 93124, Note_on_c, 40
1, 93124, Note_on_c, 52
1, 93124, Note_on_c, 56
1, 93124, Note_on_c, 59
1, 93124, Note_on_c, 64
1, 93124, Note_on_c, 42
1, 93124, Note_on_c, 40
1, 93124, Note_on_c, 52
1, 93124, Note_on_c, 56
1, 93124, Note_on_c, 59
1, 93124, Note_on_c, 64
1, 93360, Note_off_c, 42
1, 93604, Note_on_c, 37
1, 93604, Note_on_c, 42
1, 93756, Note_off_c, 66
1, 93840, Note_off_c, 42
1, 93840, Note_off_c, 37
1, 93840, Note_off_c, 59
1, 93840, Note_off_c, 56
1, 93840, Note_off_c, 59
1, 93840, Note_off_c, 56
1, 93844, Note_on_c, 64
1, 93976, Note_off_c, 64
1, 94080, Note_off_c, 64
1, 94080, Note_off_c, 52
1, 94080, Note_off_c, 40
1, 94080, Note_off_c, 64
1, 94080, Note_off_c, 52
1, 94080, Note_off_c, 40
1, 94084, Note_on_c, 61
1, 94084, Note_on_c, 47
1, 94084, Note_on_c, 54
1, 94084, Note_on_c, 59
1, 94084, Note_on_c, 63
1, 94084, Note_on_c, 42
1, 94084, Note_on_c, 47
1, 94084, Note_on_c, 54
1, 94084, Note_on_c, 59
1, 94084, Note_on_c, 63
1, 94320, Note_off_c, 42
1, 94560, Note_off_c, 63
1, 94560, Note_off_c, 59
1, 94560, Note_off_c, 63
1, 94560, Note_off_c, 59
1, 94564, Note_on_c, 64
1, 94564, Note_on_c, 37
1, 94564, Note_on_c, 42
1, 94564, Note_on_c, 64
1, 94800, Note_off_c, 64
1, 94800, Note_off_c, 42
1, 94800, Note_off_c, 37
1, 94800, Note_off_c, 64
1, 94800, Note_off_c, 54
1, 94800, Note_off_c, 47
1, 94800, Note_off_c, 54
1, 94800, Note_off_c, 47
1, 94804, Note_on_c, 45
1, 94804, Note_on_c, 52
1, 94804, Note_on_c, 57
1, 94804, Note_on_c, 59
1, 94804, Note_on_c, 45
1, 94804, Note_on_c, 52
1, 94804, Note_on_c, 57
1, 94804, Note_on_c, 59
1, 95044, Note_on_c, 42
1, 95088, Note_off_c, 61
1, 95280, Note_off_c, 42
1, 95284, Note_on_c, 61
1, 95408, Note_off_c, 61
1, 95524, Note_on_c, 56
1, 95524, Note_on_c, 37
1, 95524, Note_on_c, 42
1, 95624, Note_off_c, 56
1, 95644, Note_on_c, 54
1, 95748, Note_off_c, 54
1, 95760, Note_off_c, 42
1, 95760, Note_off_c, 37
1, 95764, Note_on_c, 52
1, 95924, Note_off_c, 52
1, 96000, Note_off_c, 59
1, 96000, Note_off_c, 57
1, 96000, Note_off_c, 52
1, 96000, Note_off_c, 45
1, 96000, Note_off_c, 59
1, 96000, Note_off_c, 57
1, 96000, Note_off_c, 52
1, 96000, Note_off_c, 45
1, 96004, Note_on_c, 61
1, 96004, Note_on_c, 37
1, 96004, Note_on_c, 49
1, 96004, Note_on_c, 56
1, 96004, Note_on_c, 61
1, 96004, Note_on_c, 66
1, 96004, Note_on_c, 42
1, 96004, Note_on_c, 37
1, 96004, Note_on_c, 49
1, 96004, Note_on_c, 56
1, 96004, Note_on_c, 61
1, 96004, Note_on_c, 66
1, 96132, Note_off_c, 61
1, 96240, Note_off_c, 42
1, 96244, Note_on_c, 61
1, 96484, Note_on_c, 37
1, 96484, Note_on_c, 42
1, 96492, Note_off_c, 61
1, 96720, Note_off_c, 42
1, 96720, Note_off_c, 37
1, 96960, Note_off_c, 66
1, 96960, Note_off_c, 61
1, 96960, Note_off_c, 56
1, 96960, Note_off_c, 49
1, 96960, Note_off_c, 37
1, 96960, Note_off_c, 66
1, 96960, Note_off_c, 61
1, 96960, Note_off_c, 56
1, 96960, Note_off_c, 49
1, 96960, Note_off_c, 37
1, 96964, Note_on_c, 40
1, 96964, Note_on_c, 52
1, 96964, Note_on_c, 56
1, 96964, Note_on_c, 59
1, 96964, Note_on_c, 64
1, 96964, Note_on_c, 42
1, 96964, Note_on_c, 40
1, 96964, Note_on_c, 52
1, 96964, Note_on_c, 56
1, 96964, Note_on_c, 59
1, 96964, Note_on_c, 64
1, 97200, Note_off_c, 42
1, 97444, Note_on_c, 37
1, 97444, Note_on_c, 42
1, 97680, Note_off_c, 42
1, 97680, Note_off_c, 37
1, 97680, Note_off_c, 59
1, 97680, Note_off_c, 56
1, 97680, Note_off_c, 59
1, 97680, Note_off_c, 56
1, 97684, Note_on_c, 56
1, 97920, Note_off_c, 64
1, 97920, Note_off_c, 52
1, 97920, Note_off_c, 40
1, 97920, Note_off_c, 64
1, 97920, Note_off_c, 52
1, 97920, Note_off_c, 40
1, 97924, Note_on_c, 47
1, 97924, Note_on_c, 54
1, 97924, Note_on_c, 59
1, 97924, Note_on_c, 63
1, 97924, Note_on_c, 42
1, 97924, Note_on_c, 47
1, 97924, Note_on_c, 54
1, 97924, Note_on_c, 59
1, 97924, Note_on_c, 63
1, 97984, Note_off_c, 56
1, 98160, Note_off_c, 42
1, 98400, Note_off_c, 63
1, 98400, Note_off_c, 59
1, 98400, Note_off_c, 63
1, 98400, Note_off_c, 59
1, 98404, Note_on_c, 64
1, 98404, Note_on_c, 37
1, 98404, Note_on_c, 42
1, 98404, Note_on_c, 64
1, 98640, Note_off_c, 64
1, 98640, Note_off_c, 42
1, 98640, Note_off_c, 37
1, 98640, Note_off_c, 64
1, 98640, Note_off_c, 54
1, 98640, Note_off_c, 47
1, 98640, Note_off_c, 54
1, 98640, Note_off_c, 47
1, 98644, Note_on_c, 45
1, 98644, Note_on_c, 52
1, 98644, Note_on_c, 57
1, 98644, Note_on_c, 59
1, 98644, Note_on_c, 45
1, 98644, Note_on_c, 52
1, 98644, Note_on_c, 57
1, 98644, Note_on_c, 59
1, 98884, Note_on_c, 42
1, 99120, Note_off_c, 42
1, 99364, Note_on_c, 37
1, 99364, Note_on_c, 42
1, 99600, Note_off_c, 42
1, 99600, Note_off_c, 37
1, 99840, Note_off_c, 59
1, 99840, Note_off_c, 57
1, 99840, Note_off_c, 52
1, 99840, Note_off_c, 45
1, 99840, Note_off_c, 59
1, 99840, Note_off_c, 57
1, 99840, Note_off_c, 52
1, 99840, Note_off_c, 45
1, 99844, Note_on_c, 37
1, 99844, Note_on_c, 49
1, 99844, Note_on_c, 56
1, 99844, Note_on_c, 61
1, 99844, Note_on_c, 66
1, 99844, Note_on_c, 42
1, 99844, Note_on_c, 37
1, 99844, Note_on_c, 49
1, 99844, Note_on_c, 56
1, 99844, Note_on_c, 61
1, 99844, Note_on_c, 66
1, 100080, Note_off_c, 42
1, 100324, Note_on_c, 71
1, 100324, Note_on_c, 37
1, 100324, Note_on_c, 42
1, 100484, Note_off_c, 71
1, 100560, Note_off_c, 42
1, 100560, Note_off_c, 37
1, 100564, Note_on_c, 68
1, 100732, Note_off_c, 68
1, 100800, Note_off_c, 66
1, 100800, Note_off_c, 61
1, 100800, Note_off_c, 56
1, 100800, Note_off_c, 49
1, 100800, Note_off_c, 37
1, 100800, Note_off_c, 66
1, 100800, Note_off_c, 61
1, 100800, Note_off_c, 56
1, 100800, Note_off_c, 49
1, 100800, Note_off_c, 37
1, 100804, Note_on_c, 71
1, 100804, Note_on_c, 40
1, 100804, Note_on_c, 52
1, 100804, Note_on_c, 56
1, 100804, Note_on_c, 59
1, 100804, Note_on_c, 64
1, 100804, Note_on_c, 42
1, 100804, Note_on_c, 40
1, 100804, Note_on_c, 52
1, 100804, Note_on_c, 56
1, 100804, Note_on_c, 59
1, 100804, Note_on_c, 64
1, 100956, Note_off_c, 71
1, 101040, Note_off_c, 42
1, 101044, Note_on_c, 71
1, 101196, Note_off_c, 71
1, 101284, Note_on_c, 68
1, 101284, Note_on_c, 37
1, 101284, Note_on_c, 42
1, 101408, Note_off_c, 68
1, 101520, Note_off_c, 42
1, 101520, Note_off_c, 37
1, 101520, Note_off_c, 59
1, 101520, Note_off_c, 56
1, 101520, Note_off_c, 59
1, 101520, Note_off_c, 56
1, 101524, Note_on_c, 68
1, 101656, Note_off_c, 68
1, 101760, Note_off_c, 64
1, 101760, Note_off_c, 52
1, 101760, Note_off_c, 40
1, 101760, Note_off_c, 64
1, 101760, Note_off_c, 52
1, 101760, Note_off_c, 40
1, 101764, Note_on_c, 73
1, 101764, Note_on_c, 47
1, 101764, Note_on_c, 54
1, 101764, Note_on_c, 59
1, 101764, Note_on_c, 63
1, 101764, Note_on_c, 42
1, 101764, Note_on_c, 47
1, 101764, Note_on_c, 54
1, 101764, Note_on_c, 59
1, 101764, Note_on_c, 63
1, 101876, Note_off_c, 73
1, 102000, Note_off_c, 42
1, 102004, Note_on_c, 73
1, 102108, Note_off_c, 73
1, 102124, Note_on_c, 71
1, 102240, Note_off_c, 63
1, 102240, Note_off_c, 59
1, 102240, Note_off_c, 63
1, 102240, Note_off_c, 59
1, 102244, Note_off_c, 71
1, 102244, Note_on_c, 64
1, 102244, Note_on_c, 37
1, 102244, Note_on_c, 42
1, 102244, Note_on_c, 64
1, 102364, Note_on_c, 71
1, 102444, Note_off_c, 71
1, 102480, Note_off_c, 64
1, 102480, Note_off_c, 42
1, 102480, Note_off_c, 37
1, 102480, Note_off_c, 64
1, 102480, Note_off_c, 54
1, 102480, Note_off_c, 47
1, 102480, Note_off_c, 54
1, 102480, Note_off_c, 47
1, 102484, Note_on_c, 68
1, 102484, Note_on_c, 45
1, 102484, Note_on_c, 52
1, 102484, Note_on_c, 57
1, 102484, Note_on_c, 59
1, 102484, Note_on_c, 45
1, 102484, Note_on_c, 52
1, 102484, Note_on_c, 57
1, 102484, Note_on_c, 59
1, 102576, Note_off_c, 68
1, 102724, Note_on_c, 68
1, 102724, Note_on_c, 42
1, 102804, Note_off_c, 68
1, 102844, Note_on_c, 66
1, 102952, Note_off_c, 66
1, 102960, Note_off_c, 42
1, 103084, Note_on_c, 66
1, 103164, Note_off_c, 66
1, 103204, Note_on_c, 64
1, 103204, Note_on_c, 37
1, 103204, Note_on_c, 42
1, 103292, Note_off_c, 64
1, 103440, Note_off_c, 42
1, 103440, Note_off_c, 37
1, 103444, Note_on_c, 61
1, 103528, Note_off_c, 61
1, 103680, Note_off_c, 59
1, 103680, Note_off_c, 57
1, 103680, Note_off_c, 52
1, 103680, Note_off_c, 45
1, 103680, Note_off_c, 59
1, 103680, Note_off_c, 57
1, 103680, Note_off_c, 52
1, 103680, Note_off_c, 45
1, 103684, Note_on_c, 61
1, 103684, Note_on_c, 37
1, 103684, Note_on_c, 49
1, 103684, Note_on_c, 56
1, 103684, Note_on_c, 61
1, 103684, Note_on_c, 66
1, 103684, Note_on_c, 42
1, 103684, Note_on_c, 60
1, 103684, Note_on_c, 37
1, 103684, Note_on_c, 49
1, 103684, Note_on_c, 56
1, 103684, Note_on_c, 61
1, 103684, Note_on_c, 66
1, 103920, Note_off_c, 42
1, 103992, Note_off_c, 61
1, 104164, Note_on_c, 37
1, 104164, Note_on_c, 42
1, 104400, Note_off_c, 42
1, 104400, Note_off_c, 37
1, 104404, Note_on_c, 54
1, 104536, Note_off_c, 54
1, 104640, Note_off_c, 66
1, 104640, Note_off_c, 61
1, 104640, Note_off_c, 56
1, 104640, Note_off_c, 49
1, 104640, Note_off_c, 37
1, 104640, Note_off_c, 66
1, 104640, Note_off_c, 61
1, 104640, Note_off_c, 56
1, 104640, Note_off_c, 49
1, 104640, Note_off_c, 37
1, 104644, Note_on_c, 52
1, 104644, Note_on_c, 40
1, 104644, Note_on_c, 52
1, 104644, Note_on_c, 56
1, 104644, Note_on_c, 59
1, 104644, Note_on_c, 64
1, 104644, Note_on_c, 42
1, 104644, Note_on_c, 40
1, 104644, Note_on_c, 52
1, 104644, Note_on_c, 56
1, 104644, Note_on_c, 59
1, 104644, Note_on_c, 64
1, 104744, Note_off_c, 52
1, 104880, Note_off_c, 42
1, 104884, Note_on_c, 59
1, 104996, Note_off_c, 59
1, 105124, Note_on_c, 56
1, 105124, Note_on_c, 37
1, 105124, Note_on_c, 42
1, 105212, Note_off_c, 56
1, 105244, Note_on_c, 54
1, 105332, Note_off_c, 54
1, 105360, Note_off_c, 42
1, 105360, Note_off_c, 37
1, 105360, Note_off_c, 59
1, 105360, Note_off_c, 56
1, 105360, Note_off_c, 59
1, 105360, Note_off_c, 56
1, 105364, Note_on_c, 52
1, 105492, Note_off_c, 52
1, 105600, Note_off_c, 64
1, 105600, Note_off_c, 52
1, 105600, Note_off_c, 40
1, 105600, Note_off_c, 64
1, 105600, Note_off_c, 52
1, 105600, Note_off_c, 40
1, 105604, Note_on_c, 61
1, 105604, Note_on_c, 47
1, 105604, Note_on_c, 54
1, 105604, Note_on_c, 59
1, 105604, Note_on_c, 63
1, 105604, Note_on_c, 42
1, 105604, Note_on_c, 47
1, 105604, Note_on_c, 54
1, 105604, Note_on_c, 59
1, 105604, Note_on_c, 63
1, 105732, Note_off_c, 61
1, 105840, Note_off_c, 42
1, 105844, Note_on_c, 61
1, 106028, Note_off_c, 61
1, 106080, Note_off_c, 63
1, 106080, Note_off_c, 59
1, 106080, Note_off_c, 63
1, 106080, Note_off_c, 59
1, 106084, Note_on_c, 64
1, 106084, Note_on_c, 37
1, 106084, Note_on_c, 42
1, 106084, Note_on_c, 64
1, 106320, Note_off_c, 64
1, 106320, Note_off_c, 42
1, 106320, Note_off_c, 37
1, 106320, Note_off_c, 64
1, 106320, Note_off_c, 54
1, 106320, Note_off_c, 47
1, 106320, Note_off_c, 54
1, 106320, Note_off_c, 47
1, 106324, Note_on_c, 56
1, 106324, Note_on_c, 45
1, 106324, Note_on_c, 52
1, 106324, Note_on_c, 57
1, 106324, Note_on_c, 59
1, 106324, Note_on_c, 45
1, 106324, Note_on_c, 52
1, 106324, Note_on_c, 57
1, 106324, Note_on_c, 59
1, 106564, Note_on_c, 42
1, 106600, Note_off_c, 56
1, 106800, Note_off_c, 42
1, 107044, Note_on_c, 37
1, 107044, Note_on_c, 42
1, 107280, Note_off_c, 42
1, 107280, Note_off_c, 37
1, 107400, Note_off_c, 60
1, 107520, Note_off_c, 59
1, 107520, Note_off_c, 57
1, 107520, Note_off_c, 52
1, 107520, Note_off_c, 45
1, 107520, Note_off_c, 59
1, 107520, Note_off_c, 57
1, 107520, Note_off_c, 52
1, 107520, Note_off_c, 45
1, 107520, Note_off_c, 68
1, 107520, Note_off_c, 56
1, 107524, Note_on_c, 49
1, 107524, Note_on_c, 56
1, 107524, Note_on_c, 61
1, 107524, Note_on_c, 64
1, 107524, Note_on_c, 49
1, 107524, Note_on_c, 56
1, 107524, Note_on_c, 61
1, 107524, Note_on_c, 64
1, 107524, Note_on_c, 68
1, 107524, Note_on_c, 80
1, 107524, Note_on_c, 61
1, 107524, Note_on_c, 36
1, 107524, Note_on_c, 49
1, 107524, Note_on_c, 64
1, 107524, Note_on_c, 76
1, 107524, Note_on_c, 36
1, 107580, Note_off_c, 61
1, 107644, Note_on_c, 73
1, 107700, Note_off_c, 73
1, 107760, Note_off_c, 49
1, 107760, Note_off_c, 36
1, 107764, Note_on_c, 76
1, 107824, Note_off_c, 76
1, 107884, Note_on_c, 61
1, 107944, Note_off_c, 61
1, 108004, Note_on_c, 73
1, 108004, Note_on_c, 36
1, 108004, Note_on_c, 49
1, 108004, Note_on_c, 51
1, 108064, Note_off_c, 73
1, 108124, Note_on_c, 76
1, 108180, Note_off_c, 76
1, 108240, Note_off_c, 51
1, 108240, Note_off_c, 49
1, 108240, Note_off_c, 36
1, 108244, Note_on_c, 61
1, 108300, Note_off_c, 61
1, 108364, Note_on_c, 73
1, 108424, Note_off_c, 73
1, 108480, Note_off_c, 64
1, 108480, Note_off_c, 61
1, 108480, Note_off_c, 56
1, 108480, Note_off_c, 49
1, 108480, Note_off_c, 64
1, 108480, Note_off_c, 61
1, 108480, Note_off_c, 56
1, 108480, Note_off_c, 49
1, 108484, Note_on_c, 52
1, 108484, Note_on_c, 56
1, 108484, Note_on_c, 59
1, 108484, Note_on_c, 64
1, 108484, Note_on_c, 52
1, 108484, Note_on_c, 56
1, 108484, Note_on_c, 59
1, 108484, Note_on_c, 64
1, 108484, Note_on_c, 80
1, 108484, Note_on_c, 36
1, 108484, Note_on_c, 49
1, 108484, Note_on_c, 51
1, 108540, Note_off_c, 80
1, 108604, Note_on_c, 61
1, 108660, Note_off_c, 61
1, 108720, Note_off_c, 51
1, 108720, Note_off_c, 49
1, 108720, Note_off_c, 36
1, 108724, Note_on_c, 73
1, 108780, Note_off_c, 73
1, 108844, Note_on_c, 81
1, 108900, Note_off_c, 81
1, 108964, Note_on_c, 61
1, 108964, Note_on_c, 36
1, 108964, Note_on_c, 49
1, 108964, Note_on_c, 51
1, 109020, Note_off_c, 61
1, 109084, Note_on_c, 73
1, 109140, Note_off_c, 73
1, 109200, Note_off_c, 51
1, 109200, Note_off_c, 49
1, 109200, Note_off_c, 36
1, 109204, Note_on_c, 80
1, 109264, Note_off_c, 80
1, 109320, Note_off_c, 76
1, 109324, Note_on_c, 64
1, 109324, Note_on_c, 63
1, 109324, Note_on_c, 75
1, 109384, Note_off_c, 64
1, 109440, Note_off_c, 64
1, 109440, Note_off_c, 59
1, 109440, Note_off_c, 56
1, 109440, Note_off_c, 52
1, 109440, Note_off_c, 64
1, 109440, Note_off_c, 59
1, 109440, Note_off_c, 56
1, 109440, Note_off_c, 52
1, 109440, Note_off_c, 36
1, 109440, Note_off_c, 64
1, 109444, Note_on_c, 47
1, 109444, Note_on_c, 54
1, 109444, Note_on_c, 59
1, 109444, Note_on_c, 63
1, 109444, Note_on_c, 47
1, 109444, Note_on_c, 54
1, 109444, Note_on_c, 59
1, 109444, Note_on_c, 63
1, 109444, Note_on_c, 61
1, 109444, Note_on_c, 36
1, 109444, Note_on_c, 49
1, 109444, Note_on_c, 51
1, 109500, Note_off_c, 61
1, 109564, Note_on_c, 73
1, 109620, Note_off_c, 73
1, 109680, Note_off_c, 51
1, 109680, Note_off_c, 49
1, 109680, Note_off_c, 36
1, 109684, Note_on_c, 76
1, 109744, Note_off_c, 76
1, 109804, Note_on_c, 61
1, 109864, Note_off_c, 61
1, 109924, Note_on_c, 73
1, 109924, Note_on_c, 36
1, 109924, Note_on_c, 49
1, 109924, Note_on_c, 51
1, 109984, Note_off_c, 73
1, 110044, Note_on_c, 76
1, 110100, Note_off_c, 76
1, 110160, Note_off_c, 51
1, 110160, Note_off_c, 49
1, 110160, Note_off_c, 36
1, 110160, Note_off_c, 63
1, 110160, Note_off_c, 59
1, 110160, Note_off_c, 54
1, 110160, Note_off_c, 47
1, 110160, Note_off_c, 63
1, 110160, Note_off_c, 59
1, 110160, Note_off_c, 54
1, 110160, Note_off_c, 47
1, 110160, Note_off_c, 75
1, 110160, Note_off_c, 63
1, 110164, Note_on_c, 45
1, 110164, Note_on_c, 57
1, 110164, Note_on_c, 59
1, 110164, Note_on_c, 61
1, 110164, Note_on_c, 64
1, 110164, Note_on_c, 45
1, 110164, Note_on_c, 57
1, 110164, Note_on_c, 59
1, 110164, Note_on_c, 61
1, 110164, Note_on_c, 64
1, 110164, Note_on_c, 61
1, 110164, Note_on_c, 64
1, 110164, Note_on_c, 76
1, 110220, Note_off_c, 61
1, 110284, Note_on_c, 73
1, 110344, Note_off_c, 73
1, 110404, Note_on_c, 80
1, 110404, Note_on_c, 36
1, 110404, Note_on_c, 49
1, 110404, Note_on_c, 51
1, 110460, Note_off_c, 80
1, 110524, Note_on_c, 61
1, 110580, Note_off_c, 61
1, 110640, Note_off_c, 51
1, 110640, Note_off_c, 49
1, 110640, Note_off_c, 36
1, 110644, Note_on_c, 73
1, 110700, Note_off_c, 73
1, 110764, Note_on_c, 81
1, 110820, Note_off_c, 81
1, 110884, Note_on_c, 61
1, 110884, Note_on_c, 36
1, 110884, Note_on_c, 49
1, 110884, Note_on_c, 51
1, 110940, Note_off_c, 61
1, 111004, Note_on_c, 73
1, 111060, Note_off_c, 73
1, 111120, Note_off_c, 51
1, 111120, Note_off_c, 49
1, 111120, Note_off_c, 36
1, 111120, Note_off_c, 64
1, 111120, Note_off_c, 57
1, 111120, Note_off_c, 64
1, 111120, Note_off_c, 57
1, 111124, Note_on_c, 80
1, 111184, Note_off_c, 80
1, 111244, Note_on_c, 64
1, 111304, Note_off_c, 64
1, 111360, Note_off_c, 76
1, 111360, Note_off_c, 64
1, 111360, Note_off_c, 61
1, 111360, Note_off_c, 59
1, 111360, Note_off_c, 45
1, 111360, Note_off_c, 61
1, 111360, Note_off_c, 59
1, 111360, Note_off_c, 45
1, 111364, Note_on_c, 49
1, 111364, Note_on_c, 56
1, 111364, Note_on_c, 61
1, 111364, Note_on_c, 64
1, 111364, Note_on_c, 49
1, 111364, Note_on_c, 56
1, 111364, Note_on_c, 61
1, 111364, Note_on_c, 64
1, 111364, Note_on_c, 61
1, 111364, Note_on_c, 36
1, 111364, Note_on_c, 51
1, 111364, Note_on_c, 71
1, 111364, Note_on_c, 83
1, 111420, Note_off_c, 61
1, 111484, Note_on_c, 73
1, 111540, Note_off_c, 73
1, 111600, Note_off_c, 51
1, 111600, Note_off_c, 36
1, 111604, Note_on_c, 76
1, 111664, Note_off_c, 76
1, 111724, Note_on_c, 61
1, 111784, Note_off_c, 61
1, 111844, Note_on_c, 73
1, 111844, Note_on_c, 36
1, 111844, Note_on_c, 51
1, 111904, Note_off_c, 73
1, 111964, Note_on_c, 76
1, 112020, Note_off_c, 76
1, 112080, Note_off_c, 51
1, 112080, Note_off_c, 36
1, 112080, Note_off_c, 64
1, 112080, Note_off_c, 56
1, 112080, Note_off_c, 64
1, 112080, Note_off_c, 56
1, 112084, Note_on_c, 61
1, 112140, Note_off_c, 61
1, 112204, Note_on_c, 73
1, 112264, Note_off_c, 73
1, 112320, Note_off_c, 83
1, 112320, Note_off_c, 71
1, 112320, Note_off_c, 61
1, 112320, Note_off_c, 49
1, 112320, Note_off_c, 61
1, 112320, Note_off_c, 49
1, 112324, Note_on_c, 52
1, 112324, Note_on_c, 56
1, 112324, Note_on_c, 59
1, 112324, Note_on_c, 64
1, 112324, Note_on_c, 52
1, 112324, Note_on_c, 56
1, 112324, Note_on_c, 59
1, 112324, Note_on_c, 64
1, 112324, Note_on_c, 80
1, 112324, Note_on_c, 36
1, 112324, Note_on_c, 51
1, 112324, Note_on_c, 68
1, 112324, Note_on_c, 80
1, 112380, Note_off_c, 80
1, 112444, Note_on_c, 61
1, 112500, Note_off_c, 61
1, 112560, Note_off_c, 51
1, 112560, Note_off_c, 36
1, 112564, Note_on_c, 73
1, 112620, Note_off_c, 73
1, 112684, Note_on_c, 81
1, 112740, Note_off_c, 81
1, 112804, Note_on_c, 61
1, 112804, Note_on_c, 36
1, 112804, Note_on_c, 51
1, 112860, Note_off_c, 61
1, 112924, Note_on_c, 73
1, 112980, Note_off_c, 73
1, 113040, Note_off_c, 51
1, 113040, Note_off_c, 36
1, 113040, Note_off_c, 64
1, 113040, Note_off_c, 59
1, 113040, Note_off_c, 56
1, 113040, Note_off_c, 64
1, 113040, Note_off_c, 59
1, 113040, Note_off_c, 56
1, 113044, Note_on_c, 80
1, 113104, Note_off_c, 80
1, 113164, Note_on_c, 64
1, 113224, Note_off_c, 64
1, 113280, Note_off_c, 80
1, 113280, Note_off_c, 68
1, 113280, Note_off_c, 52
1, 113280, Note_off_c, 52
1, 113284, Note_on_c, 47
1, 113284, Note_on_c, 54
1, 113284, Note_on_c, 59
1, 113284, Note_on_c, 63
1, 113284, Note_on_c, 47
1, 113284, Note_on_c, 54
1, 113284, Note_on_c, 59
1, 113284, Note_on_c, 63
1, 113284, Note_on_c, 61
1, 113284, Note_on_c, 36
1, 113284, Note_on_c, 51
1, 113284, Note_on_c, 66
1, 113284, Note_on_c, 78
1, 113340, Note_off_c, 61
1, 113404, Note_on_c, 73
1, 113460, Note_off_c, 73
1, 113520, Note_off_c, 51
1, 113520, Note_off_c, 36
1, 113524, Note_on_c, 76
1, 113584, Note_off_c, 76
1, 113644, Note_on_c, 61
1, 113704, Note_off_c, 61
1, 113760, Note_off_c, 78
1, 113760, Note_off_c, 66
1, 113760, Note_off_c, 59
1, 113760, Note_off_c, 54
1, 113760, Note_off_c, 59
1, 113760, Note_off_c, 54
1, 113764, Note_on_c, 73
1, 113764, Note_on_c, 36
1, 113764, Note_on_c, 51
1, 113764, Note_on_c, 68
1, 113764, Note_on_c, 80
1, 113824, Note_off_c, 73
1, 113884, Note_on_c, 76
1, 113940, Note_off_c, 76
1, 114000, Note_off_c, 80
1, 114000, Note_off_c, 68
1, 114000, Note_off_c, 51
1, 114000, Note_off_c, 36
1, 114000, Note_off_c, 63
1, 114000, Note_off_c, 47
1, 114000, Note_off_c, 63
1, 114000, Note_off_c, 47
1, 114004, Note_on_c, 45
1, 114004, Note_on_c, 57
1, 114004, Note_on_c, 59
1, 114004, Note_on_c, 61
1, 114004, Note_on_c, 64
1, 114004, Note_on_c, 45
1, 114004, Note_on_c, 57
1, 114004, Note_on_c, 59
1, 114004, Note_on_c, 61
1, 114004, Note_on_c, 64
1, 114004, Note_on_c, 61
1, 114004, Note_on_c, 64
1, 114004, Note_on_c, 76
1, 114060, Note_off_c, 61
1, 114124, Note_on_c, 73
1, 114184, Note_off_c, 73
1, 114244, Note_on_c, 80
1, 114244, Note_on_c, 36
1, 114244, Note_on_c, 51
1, 114300, Note_off_c, 80
1, 114364, Note_on_c, 61
1, 114420, Note_off_c, 61
1, 114480, Note_off_c, 51
1, 114480, Note_off_c, 36
1, 114484, Note_on_c, 73
1, 114540, Note_off_c, 73
1, 114604, Note_on_c, 81
1, 114660, Note_off_c, 81
1, 114724, Note_on_c, 61
1, 114724, Note_on_c, 36
1, 114724, Note_on_c, 51
1, 114780, Note_off_c, 61
1, 114844, Note_on_c, 73
1, 114900, Note_off_c, 73
1, 114960, Note_off_c, 51
1, 114960, Note_off_c, 36
1, 114964, Note_on_c, 80
1, 115024, Note_off_c, 80
1, 115080, Note_off_c, 80
1, 115080, Note_off_c, 68
1, 115084, Note_on_c, 64
1, 115144, Note_off_c, 64
1, 115200, Note_off_c, 76
1, 115200, Note_off_c, 64
1, 115200, Note_off_c, 64
1, 115200, Note_off_c, 61
1, 115200, Note_off_c, 59
1, 115200, Note_off_c, 57
1, 115200, Note_off_c, 45
1, 115200, Note_off_c, 64
1, 115200, Note_off_c, 61
1, 115200, Note_off_c, 59
1, 115200, Note_off_c, 57
1, 115200, Note_off_c, 45
1, 115204, Note_on_c, 49
1, 115204, Note_on_c, 56
1, 115204, Note_on_c, 61
1, 115204, Note_on_c, 64
1, 115204, Note_on_c, 49
1, 115204, Note_on_c, 56
1, 115204, Note_on_c, 61
1, 115204, Note_on_c, 64
1, 115204, Note_on_c, 68
1, 115204, Note_on_c, 80
1, 115204, Note_on_c, 61
1, 115204, Note_on_c, 36
1, 115204, Note_on_c, 51
1, 115204, Note_on_c, 64
1, 115204, Note_on_c, 76
1, 115260, Note_off_c, 61
1, 115324, Note_on_c, 73
1, 115380, Note_off_c, 73
1, 115440, Note_off_c, 51
1, 115440, Note_off_c, 36
1, 115444, Note_on_c, 76
1, 115504, Note_off_c, 76
1, 115564, Note_on_c, 61
1, 115624, Note_off_c, 61
1, 115684, Note_on_c, 73
1, 115684, Note_on_c, 36
1, 115684, Note_on_c, 51
1, 115744, Note_off_c, 73
1, 115804, Note_on_c, 76
1, 115860, Note_off_c, 76
1, 115920, Note_off_c, 51
1, 115920, Note_off_c, 36
1, 115924, Note_on_c, 61
1, 115980, Note_off_c, 61
1, 116044, Note_on_c, 73
1, 116104, Note_off_c, 73
1, 116160, Note_off_c, 64
1, 116160, Note_off_c, 61
1, 116160, Note_off_c, 56
1, 116160, Note_off_c, 49
1, 116160, Note_off_c, 64
1, 116160, Note_off_c, 61
1, 116160, Note_off_c, 56
1, 116160, Note_off_c, 49
1, 116164, Note_on_c, 52
1, 116164, Note_on_c, 56
1, 116164, Note_on_c, 59
1, 116164, Note_on_c, 64
1, 116164, Note_on_c, 52
1, 116164, Note_on_c, 56
1, 116164, Note_on_c, 59
1, 116164, Note_on_c, 64
1, 116164, Note_on_c, 80
1, 116164, Note_on_c, 36
1, 116164, Note_on_c, 51
1, 116220, Note_off_c, 80
1, 116284, Note_on_c, 61
1, 116340, Note_off_c, 61
1, 116400, Note_off_c, 51
1, 116400, Note_off_c, 36
1, 116404, Note_on_c, 73
1, 116460, Note_off_c, 73
1, 116524, Note_on_c, 81
1, 116580, Note_off_c, 81
1, 116644, Note_on_c, 61
1, 116644, Note_on_c, 36
1, 116644, Note_on_c, 51
1, 116700, Note_off_c, 61
1, 116764, Note_on_c, 73
1, 116820, Note_off_c, 73
1, 116880, Note_off_c, 51
1, 116880, Note_off_c, 36
1, 116884, Note_on_c, 80
1, 116944, Note_off_c, 80
1, 117000, Note_off_c, 76
1, 117004, Note_on_c, 64
1, 117004, Note_on_c, 63
1, 117004, Note_on_c, 75
1, 117064, Note_off_c, 64
1, 117120, Note_off_c, 64
1, 117120, Note_off_c, 59
1, 117120, Note_off_c, 56
1, 117120, Note_off_c, 52
1, 117120, Note_off_c, 64
1, 117120, Note_off_c, 59
1, 117120, Note_off_c, 56
1, 117120, Note_off_c, 52
1, 117120, Note_off_c, 64
1, 117124, Note_on_c, 47
1, 117124, Note_on_c, 54
1, 117124, Note_on_c, 59
1, 117124, Note_on_c, 63
1, 117124, Note_on_c, 47
1, 117124, Note_on_c, 54
1, 117124, Note_on_c, 59
1, 117124, Note_on_c, 63
1, 117124, Note_on_c, 61
1, 117124, Note_on_c, 36
1, 117124, Note_on_c, 51
1, 117180, Note_off_c, 61
1, 117244, Note_on_c, 73
1, 117300, Note_off_c, 73
1, 117360, Note_off_c, 51
1, 117360, Note_off_c, 36
1, 117364, Note_on_c, 76
1, 117424, Note_off_c, 76
1, 117484, Note_on_c, 61
1, 117544, Note_off_c, 61
1, 117604, Note_on_c, 73
1, 117604, Note_on_c, 36
1, 117604, Note_on_c, 51
1, 117664, Note_off_c, 73
1, 117724, Note_on_c, 76
1, 117780, Note_off_c, 76
1, 117840, Note_off_c, 51
1, 117840, Note_off_c, 36
1, 117840, Note_off_c, 63
1, 117840, Note_off_c, 59
1, 117840, Note_off_c, 54
1, 117840, Note_off_c, 47
1, 117840, Note_off_c, 63
1, 117840, Note_off_c, 59
1, 117840, Note_off_c, 54
1, 117840, Note_off_c, 47
1, 117840, Note_off_c, 75
1, 117840, Note_off_c, 63
1, 117844, Note_on_c, 45
1, 117844, Note_on_c, 57
1, 117844, Note_on_c, 59
1, 117844, Note_on_c, 61
1, 117844, Note_on_c, 64
1, 117844, Note_on_c, 45
1, 117844, Note_on_c, 57
1, 117844, Note_on_c, 59
1, 117844, Note_on_c, 61
1, 117844, Note_on_c, 64
1, 117844, Note_on_c, 61
1, 117844, Note_on_c, 64
1, 117844, Note_on_c, 76
1, 117900, Note_off_c, 61
1, 117964, Note_on_c, 73
1, 118024, Note_off_c, 73
1, 118084, Note_on_c, 80
1, 118084, Note_on_c, 36
1, 118084, Note_on_c, 51
1, 118140, Note_off_c, 80
1, 118204, Note_on_c, 61
1, 118260, Note_off_c, 61
1, 118320, Note_off_c, 51
1, 118320, Note_off_c, 36
1, 118324, Note_on_c, 73
1, 118380, Note_off_c, 73
1, 118444, Note_on_c, 81
1, 118500, Note_off_c, 81
1, 118564, Note_on_c, 61
1, 118564, Note_on_c, 36
1, 118564, Note_on_c, 51
1, 118620, Note_off_c, 61
1, 118684, Note_on_c, 73
1, 118740, Note_off_c, 73
1, 118800, Note_off_c, 51
1, 118800, Note_off_c, 36
1, 118800, Note_off_c, 64
1, 118800, Note_off_c, 57
1, 118800, Note_off_c, 64
1, 118800, Note_off_c, 57
1, 118804, Note_on_c, 80
1, 118864, Note_off_c, 80
1, 118924, Note_on_c, 64
1, 118984, Note_off_c, 64
1, 119040, Note_off_c, 76
1, 119040, Note_off_c, 64
1, 119040, Note_off_c, 61
1, 119040, Note_off_c, 59
1, 119040, Note_off_c, 45
1, 119040, Note_off_c, 61
1, 119040, Note_off_c, 59
1, 119040, Note_off_c, 45
1, 119044, Note_on_c, 49
1, 119044, Note_on_c, 56
1, 119044, Note_on_c, 61
1, 119044, Note_on_c, 64
1, 119044, Note_on_c, 49
1, 119044, Note_on_c, 56
1, 119044, Note_on_c, 61
1, 119044, Note_on_c, 64
1, 119044, Note_on_c, 61
1, 119044, Note_on_c, 36
1, 119044, Note_on_c, 51
1, 119044, Note_on_c, 72
1, 119044, Note_on_c, 71
1, 119044, Note_on_c, 83
1, 119100, Note_off_c, 61
1, 119164, Note_on_c, 73
1, 119220, Note_off_c, 73
1, 119280, Note_off_c, 51
1, 119280, Note_off_c, 36
1, 119284, Note_on_c, 76
1, 119344, Note_off_c, 76
1, 119404, Note_on_c, 61
1, 119464, Note_off_c, 61
1, 119524, Note_on_c, 73
1, 119524, Note_on_c, 36
1, 119524, Note_on_c, 51
1, 119584, Note_off_c, 73
1, 119644, Note_on_c, 76
1, 119700, Note_off_c, 76
1, 119760, Note_off_c, 51
1, 119760, Note_off_c, 36
1, 119760, Note_off_c, 64
1, 119760, Note_off_c, 56
1, 119760, Note_off_c, 64
1, 119760, Note_off_c, 56
1, 119764, Note_on_c, 61
1, 119820, Note_off_c, 61
1, 119884, Note_on_c, 73
1, 119944, Note_off_c, 73
1, 120000, Note_off_c, 83
1, 120000, Note_off_c, 71
1, 120000, Note_off_c, 61
1, 120000, Note_off_c, 49
1, 120000, Note_off_c, 61
1, 120000, Note_off_c, 49
1, 120004, Note_on_c, 52
1, 120004, Note_on_c, 56
1, 120004, Note_on_c, 59
1, 120004, Note_on_c, 64
1, 120004, Note_on_c, 52
1, 120004, Note_on_c, 56
1, 120004, Note_on_c, 59
1, 120004, Note_on_c, 64
1, 120004, Note_on_c, 80
1, 120004, Note_on_c, 36
1, 120004, Note_on_c, 51
1, 120004, Note_on_c, 68
1, 120004, Note_on_c, 80
1, 120060, Note_off_c, 80
1, 120124, Note_on_c, 61
1, 120180, Note_off_c, 61
1, 120240, Note_off_c, 51
1, 120240, Note_off_c, 36
1, 120244, Note_on_c, 73
1, 120300, Note_off_c, 73
1, 120364, Note_on_c, 81
1, 120420, Note_off_c, 81
1, 120484, Note_on_c, 61
1, 120484, Note_on_c, 36
1, 120484, Note_on_c, 51
1, 120540, Note_off_c, 61
1, 120604, Note_on_c, 73
1, 120660, Note_off_c, 73
1, 120720, Note_off_c, 51
1, 120720, Note_off_c, 36
1, 120720, Note_off_c, 64
1, 120720, Note_off_c, 59
1, 120720, Note_off_c, 56
1, 120720, Note_off_c, 64
1, 120720, Note_off_c, 59
1, 120720, Note_off_c, 56
1, 120724, Note_on_c, 80
1, 120784, Note_off_c, 80
1, 120844, Note_on_c, 64
1, 120904, Note_off_c, 64
1, 120960, Note_off_c, 80
1, 120960, Note_off_c, 68
1, 120960, Note_off_c, 52
1, 120960, Note_off_c, 52
1, 120964, Note_on_c, 47
1, 120964, Note_on_c, 54
1, 120964, Note_on_c, 59
1, 120964, Note_on_c, 63
1, 120964, Note_on_c, 47
1, 120964, Note_on_c, 54
1, 120964, Note_on_c, 59
1, 120964, Note_on_c, 63
1, 120964, Note_on_c, 61
1, 120964, Note_on_c, 36
1, 120964, Note_on_c, 51
1, 120964, Note_on_c, 66
1, 120964, Note_on_c, 78
1, 121020, Note_off_c, 61
1, 121084, Note_on_c, 73
1, 121140, Note_off_c, 73
1, 121200, Note_off_c, 51
1, 121200, Note_off_c, 36
1, 121204, Note_on_c, 76
1, 121264, Note_off_c, 76
1, 121324, Note_on_c, 61
1, 121384, Note_off_c, 61
1, 121440, Note_off_c, 78
1, 121440, Note_off_c, 66
1, 121440, Note_off_c, 59
1, 121440, Note_off_c, 54
1, 121440, Note_off_c, 59
1, 121440, Note_off_c, 54
1, 121444, Note_on_c, 73
1, 121444, Note_on_c, 36
1, 121444, Note_on_c, 51
1, 121444, Note_on_c, 68
1, 121444, Note_on_c, 80
1, 121504, Note_off_c, 73
1, 121564, Note_on_c, 76
1, 121620, Note_off_c, 76
1, 121680, Note_off_c, 80
1, 121680, Note_off_c, 68
1, 121680, Note_off_c, 51
1, 121680, Note_off_c, 36
1, 121680, Note_off_c, 63
1, 121680, Note_off_c, 47
1, 121680, Note_off_c, 63
1, 121680, Note_off_c, 47
1, 121684, Note_on_c, 45
1, 121684, Note_on_c, 57
1, 121684, Note_on_c, 59
1, 121684, Note_on_c, 61
1, 121684, Note_on_c, 64
1, 121684, Note_on_c, 45
1, 121684, Note_on_c, 57
1, 121684, Note_on_c, 59
1, 121684, Note_on_c, 61
1, 121684, Note_on_c, 64
1, 121684, Note_on_c, 61
1, 121684, Note_on_c, 64
1, 121684, Note_on_c, 76
1, 121740, Note_off_c, 61
1, 121804, Note_on_c, 73
1, 121864, Note_off_c, 73
1, 121924, Note_on_c, 80
1, 121924, Note_on_c, 36
1, 121924, Note_on_c, 51
1, 121980, Note_off_c, 80
1, 122044, Note_on_c, 61
1, 122100, Note_off_c, 61
1, 122160, Note_off_c, 51
1, 122160, Note_off_c, 36
1, 122164, Note_on_c, 73
1, 122220, Note_off_c, 73
1, 122284, Note_on_c, 81
1, 122340, Note_off_c, 81
1, 122404, Note_on_c, 61
1, 122404, Note_on_c, 36
1, 122404, Note_on_c, 51
1, 122460, Note_off_c, 61
1, 122524, Note_on_c, 73
1, 122580, Note_off_c, 73
1, 122640, Note_off_c, 51
1, 122640, Note_off_c, 36
1, 122644, Note_on_c, 80
1, 122704, Note_off_c, 80
1, 122760, Note_off_c, 80
1, 122760, Note_off_c, 68
1, 122764, Note_on_c, 64
1, 122824, Note_off_c, 64
1, 122880, Note_off_c, 76
1, 122880, Note_off_c, 64
1, 122880, Note_off_c, 64
1, 122880, Note_off_c, 61
1, 122880, Note_off_c, 59
1, 122880, Note_off_c, 57
1, 122880, Note_off_c, 45
1, 122880, Note_off_c, 64
1, 122880, Note_off_c, 61
1, 122880, Note_off_c, 59
1, 122880, Note_off_c, 57
1, 122880, Note_off_c, 45
1, 122880, Note_off_c, 72
1, 122884, Note_on_c, 78
1, 122884, Note_on_c, 68
1, 122884, Note_on_c, 80
1, 122884, Note_on_c, 36
1, 122884, Note_on_c, 49
1, 122884, Note_on_c, 84
1, 122884, Note_on_c, 64
1, 122884, Note_on_c, 71
1, 122884, Note_on_c, 76
1, 122884, Note_on_c, 78
1, 122884, Note_on_c, 36
1, 123012, Note_off_c, 78
1, 123120, Note_off_c, 49
1, 123120, Note_off_c, 36
1, 123120, Note_off_c, 78
1, 123124, Note_on_c, 76
1, 123124, Note_on_c, 76
1, 123224, Note_off_c, 76
1, 123360, Note_off_c, 76
1, 123364, Note_on_c, 76
1, 123364, Note_on_c, 49
1, 123364, Note_on_c, 76
1, 123516, Note_off_c, 76
1, 123600, Note_off_c, 49
1, 123600, Note_off_c, 76
1, 123844, Note_on_c, 76
1, 123844, Note_on_c, 49
1, 123844, Note_on_c, 76
1, 123956, Note_off_c, 76
1, 124080, Note_off_c, 49
1, 124080, Note_off_c, 76
1, 124084, Note_on_c, 76
1, 124084, Note_on_c, 76
1, 124200, Note_off_c, 76
1, 124200, Note_off_c, 36
1, 124320, Note_off_c, 76
1, 124324, Note_on_c, 76
1, 124324, Note_on_c, 49
1, 124324, Note_on_c, 76
1, 124428, Note_off_c, 76
1, 124560, Note_off_c, 49
1, 124560, Note_off_c, 76
1, 124564, Note_on_c, 76
1, 124564, Note_on_c, 76
1, 124684, Note_off_c, 76
1, 124800, Note_off_c, 76
1, 124804, Note_on_c, 75
1, 124804, Note_on_c, 49
1, 124804, Note_on_c, 75
1, 124916, Note_off_c, 75
1, 125040, Note_off_c, 49
1, 125040, Note_off_c, 75
1, 125044, Note_on_c, 75
1, 125044, Note_on_c, 75
1, 125160, Note_off_c, 75
1, 125280, Note_off_c, 75
1, 125284, Note_on_c, 76
1, 125284, Note_on_c, 49
1, 125284, Note_on_c, 76
1, 125388, Note_off_c, 76
1, 125520, Note_off_c, 49
1, 125520, Note_off_c, 76
1, 125524, Note_on_c, 76
1, 125524, Note_on_c, 76
1, 125660, Note_off_c, 76
1, 125760, Note_off_c, 76
1, 125764, Note_on_c, 30
1, 125764, Note_on_c, 49
1, 126000, Note_off_c, 49
1, 126000, Note_off_c, 30
1, 126004, Note_on_c, 85
1, 126004, Note_on_c, 85
1, 126136, Note_off_c, 85
1, 126240, Note_off_c, 85
1, 126244, Note_on_c, 83
1, 126244, Note_on_c, 49
1, 126244, Note_on_c, 83
1, 126344, Note_off_c, 83
1, 126480, Note_off_c, 49
1, 126480, Note_off_c, 83
1, 126484, Note_on_c, 80
1, 126484, Note_on_c, 80
1, 126592, Note_off_c, 80
1, 126720, Note_off_c, 80
1, 126724, Note_on_c, 78
1, 126724, Note_on_c, 78
1, 126824, Note_off_c, 78
1, 126960, Note_off_c, 78
1, 126964, Note_on_c, 76
1, 126964, Note_on_c, 76
1, 127060, Note_off_c, 76
1, 127200, Note_off_c, 76
1, 127204, Note_on_c, 76
1, 127204, Note_on_c, 76
1, 127340, Note_off_c, 76
1, 127440, Note_off_c, 76
1, 127684, Note_on_c, 76
1, 127684, Note_on_c, 76
1, 127784, Note_off_c, 76
1, 127920, Note_off_c, 76
1, 127924, Note_on_c, 76
1, 127924, Note_on_c, 76
1, 128028, Note_off_c, 76
1, 128160, Note_off_c, 76
1, 128164, Note_on_c, 76
1, 128164, Note_on_c, 76
1, 128264, Note_off_c, 76
1, 128400, Note_off_c, 76
1, 128404, Note_on_c, 76
1, 128404, Note_on_c, 76
1, 128516, Note_off_c, 76
1, 128640, Note_off_c, 76
1, 128644, Note_on_c, 73
1, 128644, Note_on_c, 75
1, 128760, Note_off_c, 75
1, 128880, Note_off_c, 73
1, 128884, Note_on_c, 73
1, 128884, Note_on_c, 75
1, 128988, Note_off_c, 75
1, 129120, Note_off_c, 73
1, 129124, Note_on_c, 71
1, 129124, Note_on_c, 76
1, 129212, Note_off_c, 76
1, 129360, Note_off_c, 71
1, 129364, Note_on_c, 71
1, 129364, Note_on_c, 76
1, 129524, Note_off_c, 76
1, 129600, Note_off_c, 71
1, 129604, Note_on_c, 30
1, 129840, Note_off_c, 30
1, 129844, Note_on_c, 85
1, 129844, Note_on_c, 85
1, 129964, Note_off_c, 85
1, 130080, Note_off_c, 85
1, 130084, Note_on_c, 83
1, 130084, Note_on_c, 83
1, 130208, Note_off_c, 83
1, 130320, Note_off_c, 83
1, 130324, Note_on_c, 80
1, 130324, Note_on_c, 80
1, 130432, Note_off_c, 80
1, 130560, Note_off_c, 80
1, 130560, Note_off_c, 84
1, 130564, Note_on_c, 78
1, 130564, Note_on_c, 78
1, 130680, Note_off_c, 78
1, 130800, Note_off_c, 78
1, 130804, Note_on_c, 76
1, 130804, Note_on_c, 76
1, 130932, Note_off_c, 76
1, 131040, Note_off_c, 76
1, 131044, Note_on_c, 76
1, 131044, Note_on_c, 76
1, 131184, Note_off_c, 76
1, 131280, Note_off_c, 76
1, 131524, Note_on_c, 76
1, 131524, Note_on_c, 76
1, 131640, Note_off_c, 76
1, 131760, Note_off_c, 76
1, 131764, Note_on_c, 76
1, 131764, Note_on_c, 76
1, 131880, Note_off_c, 76
1, 132000, Note_off_c, 76
1, 132004, Note_on_c, 76
1, 132004, Note_on_c, 76
1, 132116, Note_off_c, 76
1, 132240, Note_off_c, 76
1, 132244, Note_on_c, 76
1, 132244, Note_on_c, 76
1, 132352, Note_off_c, 76
1, 132480, Note_off_c, 76
1, 132484, Note_on_c, 75
1, 132484, Note_on_c, 75
1, 132600, Note_off_c, 75
1, 132720, Note_off_c, 75
1, 132724, Note_on_c, 75
1, 132724, Note_on_c, 75
1, 132832, Note_off_c, 75
1, 132960, Note_off_c, 75
1, 132964, Note_on_c, 76
1, 132964, Note_on_c, 76
1, 133076, Note_off_c, 76
1, 133200, Note_off_c, 76
1, 133204, Note_on_c, 76
1, 133204, Note_on_c, 76
1, 133392, Note_off_c, 76
1, 133440, Note_off_c, 76
1, 133444, Note_on_c, 30
1, 133684, Note_on_c, 85
1, 133684, Note_on_c, 85
1, 133788, Note_off_c, 85
1, 133920, Note_off_c, 85
1, 133920, Note_off_c, 30
1, 133924, Note_on_c, 83
1, 133924, Note_on_c, 83
1, 134056, Note_off_c, 83
1, 134160, Note_off_c, 83
1, 134164, Note_on_c, 80
1, 134164, Note_on_c, 80
1, 134284, Note_off_c, 80
1, 134400, Note_off_c, 80
1, 134404, Note_on_c, 78
1, 134404, Note_on_c, 78
1, 134520, Note_off_c, 78
1, 134640, Note_off_c, 78
1, 134644, Note_on_c, 76
1, 134644, Note_on_c, 76
1, 134764, Note_on_c, 72
1, 134768, Note_off_c, 76
1, 134880, Note_off_c, 76
1, 134884, Note_on_c, 76
1, 134884, Note_on_c, 76
1, 135048, Note_off_c, 76
1, 135120, Note_off_c, 76
1, 135364, Note_on_c, 76
1, 135364, Note_on_c, 76
1, 135488, Note_off_c, 76
1, 135600, Note_off_c, 76
1, 135604, Note_on_c, 76
1, 135604, Note_on_c, 76
1, 135724, Note_off_c, 76
1, 135840, Note_off_c, 76
1, 135844, Note_on_c, 76
1, 135844, Note_on_c, 76
1, 135952, Note_off_c, 76
1, 136080, Note_off_c, 76
1, 136084, Note_on_c, 76
1, 136084, Note_on_c, 76
1, 136196, Note_off_c, 76
1, 136320, Note_off_c, 76
1, 136324, Note_on_c, 73
1, 136324, Note_on_c, 75
1, 136444, Note_off_c, 75
1, 136560, Note_off_c, 73
1, 136564, Note_on_c, 73
1, 136564, Note_on_c, 75
1, 136688, Note_off_c, 75
1, 136800, Note_off_c, 73
1, 136804, Note_on_c, 71
1, 136804, Note_on_c, 76
1, 136904, Note_off_c, 76
1, 137040, Note_off_c, 71
1, 137044, Note_on_c, 71
1, 137044, Note_on_c, 49
1, 137044, Note_on_c, 76
1, 137228, Note_off_c, 76
1, 137280, Note_off_c, 71
1, 137284, Note_on_c, 56
1, 137284, Note_on_c, 72
1, 137284, Note_on_c, 30
1, 137524, Note_on_c, 85
1, 137524, Note_on_c, 61
1, 137524, Note_on_c, 85
1, 137648, Note_off_c, 85
1, 137760, Note_off_c, 85
1, 137760, Note_off_c, 30
1, 137764, Note_on_c, 83
1, 137764, Note_on_c, 66
1, 137764, Note_on_c, 83
1, 137868, Note_off_c, 83
1, 138000, Note_off_c, 83
1, 138004, Note_on_c, 80
1, 138004, Note_on_c, 80
1, 138120, Note_off_c, 76
1, 138120, Note_off_c, 71
1, 138120, Note_off_c, 64
1, 138128, Note_off_c, 80
1, 138240, Note_off_c, 80
1, 138240, Note_off_c, 72
1, 138240, Note_off_c, 72
1, 138240, Note_off_c, 80
1, 138240, Note_off_c, 68
1, 138244, Note_on_c, 56
1, 138244, Note_on_c, 61
1, 138244, Note_on_c, 66
1, 138244, Note_on_c, 56
1, 138244, Note_on_c, 61
1, 138244, Note_on_c, 66
1, 138244, Note_on_c, 78
1, 138244, Note_on_c, 61
1, 138244, Note_on_c, 32
1, 138244, Note_on_c, 84
1, 138244, Note_on_c, 78
1, 138244, Note_on_c, 48
1, 138304, Note_off_c, 61
1, 138360, Note_off_c, 66
1, 138360, Note_off_c, 61
1, 138360, Note_off_c, 56
1, 138360, Note_off_c, 49
1, 138364, Note_on_c, 49
1, 138420, Note_off_c, 49
1, 138480, Note_off_c, 78
1, 138480, Note_off_c, 32
1, 138480, Note_off_c, 78
1, 138480, Note_off_c, 66
1, 138480, Note_off_c, 61
1, 138480, Note_off_c, 56
1, 138480, Note_off_c, 66
1, 138480, Note_off_c, 61
1, 138480, Note_off_c, 56
1, 138484, Note_on_c, 56
1, 138484, Note_on_c, 61
1, 138484, Note_on_c, 64
1, 138484, Note_on_c, 56
1, 138484, Note_on_c, 61
1, 138484, Note_on_c, 64
1, 138484, Note_on_c, 76
1, 138484, Note_on_c, 61
1, 138484, Note_on_c, 76
1, 138544, Note_off_c, 61
1, 138604, Note_on_c, 68
1, 138660, Note_off_c, 68
1, 138720, Note_off_c, 76
1, 138720, Note_off_c, 76
1, 138720, Note_off_c, 64
1, 138720, Note_off_c, 61
1, 138720, Note_off_c, 56
1, 138720, Note_off_c, 64
1, 138720, Note_off_c, 61
1, 138720, Note_off_c, 56
1, 138724, Note_on_c, 56
1, 138724, Note_on_c, 61
1, 138724, Note_on_c, 64
1, 138724, Note_on_c, 56
1, 138724, Note_on_c, 61
1, 138724, Note_on_c, 64
1, 138724, Note_on_c, 76
1, 138724, Note_on_c, 56
1, 138724, Note_on_c, 32
1, 138724, Note_on_c, 76
1, 138780, Note_off_c, 56
1, 138844, Note_on_c, 61
1, 138904, Note_off_c, 61
1, 138960, Note_off_c, 76
1, 138960, Note_off_c, 32
1, 138960, Note_off_c, 76
1, 138960, Note_off_c, 64
1, 138960, Note_off_c, 61
1, 138960, Note_off_c, 56
1, 138960, Note_off_c, 64
1, 138960, Note_off_c, 61
1, 138960, Note_off_c, 56
1, 138964, Note_on_c, 68
1, 139024, Note_off_c, 68
1, 139084, Note_on_c, 73
1, 139200, Note_off_c, 73
1, 139200, Note_off_c, 48
1, 139204, Note_on_c, 56
1, 139204, Note_on_c, 59
1, 139204, Note_on_c, 64
1, 139204, Note_on_c, 56
1, 139204, Note_on_c, 59
1, 139204, Note_on_c, 64
1, 139204, Note_on_c, 76
1, 139204, Note_on_c, 73
1, 139204, Note_on_c, 32
1, 139204, Note_on_c, 76
1, 139260, Note_off_c, 73
1, 139324, Note_on_c, 68
1, 139380, Note_off_c, 68
1, 139440, Note_off_c, 76
1, 139440, Note_off_c, 32
1, 139440, Note_off_c, 76
1, 139440, Note_off_c, 64
1, 139440, Note_off_c, 59
1, 139440, Note_off_c, 56
1, 139440, Note_off_c, 64
1, 139440, Note_off_c, 59
1, 139440, Note_off_c, 56
1, 139444, Note_on_c, 56
1, 139444, Note_on_c, 59
1, 139444, Note_on_c, 64
1, 139444, Note_on_c, 56
1, 139444, Note_on_c, 59
1, 139444, Note_on_c, 64
1, 139444, Note_on_c, 76
1, 139444, Note_on_c, 73
1, 139444, Note_on_c, 76
1, 139500, Note_off_c, 73
1, 139564, Note_on_c, 81
1, 139680, Note_off_c, 81
1, 139680, Note_off_c, 76
1, 139680, Note_off_c, 76
1, 139680, Note_off_c, 64
1, 139680, Note_off_c, 59
1, 139680, Note_off_c, 56
1, 139680, Note_off_c, 64
1, 139680, Note_off_c, 59
1, 139680, Note_off_c, 56
1, 139684, Note_on_c, 56
1, 139684, Note_on_c, 59
1, 139684, Note_on_c, 64
1, 139684, Note_on_c, 56
1, 139684, Note_on_c, 59
1, 139684, Note_on_c, 64
1, 139684, Note_on_c, 76
1, 139684, Note_on_c, 73
1, 139684, Note_on_c, 32
1, 139684, Note_on_c, 76
1, 139744, Note_off_c, 73
1, 139804, Note_on_c, 68
1, 139920, Note_off_c, 68
1, 139920, Note_off_c, 76
1, 139920, Note_off_c, 32
1, 139920, Note_off_c, 76
1, 139920, Note_off_c, 64
1, 139920, Note_off_c, 59
1, 139920, Note_off_c, 56
1, 139920, Note_off_c, 64
1, 139920, Note_off_c, 59
1, 139920, Note_off_c, 56
1, 139924, Note_on_c, 56
1, 139924, Note_on_c, 59
1, 139924, Note_on_c, 64
1, 139924, Note_on_c, 56
1, 139924, Note_on_c, 59
1, 139924, Note_on_c, 64
1, 139924, Note_on_c, 76
1, 139924, Note_on_c, 73
1, 139924, Note_on_c, 76
1, 139984, Note_off_c, 73
1, 140044, Note_on_c, 64
1, 140104, Note_off_c, 64
1, 140160, Note_off_c, 76
1, 140160, Note_off_c, 76
1, 140160, Note_off_c, 64
1, 140160, Note_off_c, 59
1, 140160, Note_off_c, 56
1, 140160, Note_off_c, 64
1, 140160, Note_off_c, 59
1, 140160, Note_off_c, 56
1, 140164, Note_on_c, 54
1, 140164, Note_on_c, 59
1, 140164, Note_on_c, 63
1, 140164, Note_on_c, 54
1, 140164, Note_on_c, 59
1, 140164, Note_on_c, 63
1, 140164, Note_on_c, 75
1, 140164, Note_on_c, 61
1, 140164, Note_on_c, 32
1, 140164, Note_on_c, 75
1, 140224, Note_off_c, 61
1, 140284, Note_on_c, 49
1, 140340, Note_off_c, 49
1, 140400, Note_off_c, 75
1, 140400, Note_off_c, 32
1, 140400, Note_off_c, 75
1, 140400, Note_off_c, 63
1, 140400, Note_off_c, 59
1, 140400, Note_off_c, 54
1, 140400, Note_off_c, 63
1, 140400, Note_off_c, 59
1, 140400, Note_off_c, 54
1, 140404, Note_on_c, 54
1, 140404, Note_on_c, 59
1, 140404, Note_on_c, 63
1, 140404, Note_on_c, 54
1, 140404, Note_on_c, 59
1, 140404, Note_on_c, 63
1, 140404, Note_on_c, 75
1, 140404, Note_on_c, 61
1, 140404, Note_on_c, 75
1, 140464, Note_off_c, 61
1, 140524, Note_on_c, 68
1, 140580, Note_off_c, 68
1, 140640, Note_off_c, 75
1, 140640, Note_off_c, 75
1, 140640, Note_off_c, 63
1, 140640, Note_off_c, 59
1, 140640, Note_off_c, 54
1, 140640, Note_off_c, 63
1, 140640, Note_off_c, 59
1, 140640, Note_off_c, 54
1, 140644, Note_on_c, 54
1, 140644, Note_on_c, 59
1, 140644, Note_on_c, 63
1, 140644, Note_on_c, 54
1, 140644, Note_on_c, 59
1, 140644, Note_on_c, 63
1, 140644, Note_on_c, 76
1, 140644, Note_on_c, 56
1, 140644, Note_on_c, 32
1, 140644, Note_on_c, 76
1, 140700, Note_off_c, 56
1, 140764, Note_on_c, 61
1, 140824, Note_off_c, 61
1, 140880, Note_off_c, 76
1, 140880, Note_off_c, 32
1, 140880, Note_off_c, 76
1, 140880, Note_off_c, 63
1, 140880, Note_off_c, 59
1, 140880, Note_off_c, 54
1, 140880, Note_off_c, 63
1, 140880, Note_off_c, 59
1, 140880, Note_off_c, 54
1, 140884, Note_on_c, 52
1, 140884, Note_on_c, 57
1, 140884, Note_on_c, 61
1, 140884, Note_on_c, 52
1, 140884, Note_on_c, 57
1, 140884, Note_on_c, 61
1, 140884, Note_on_c, 76
1, 140884, Note_on_c, 68
1, 140884, Note_on_c, 29
1, 140884, Note_on_c, 76
1, 140944, Note_off_c, 68
1, 141004, Note_on_c, 73
1, 141120, Note_off_c, 73
1, 141120, Note_off_c, 76
1, 141120, Note_off_c, 29
1, 141120, Note_off_c, 76
1, 141120, Note_off_c, 61
1, 141120, Note_off_c, 57
1, 141120, Note_off_c, 52
1, 141120, Note_off_c, 61
1, 141120, Note_off_c, 57
1, 141120, Note_off_c, 52
1, 141124, Note_on_c, 73
1, 141124, Note_on_c, 32
1, 141180, Note_off_c, 73
1, 141244, Note_on_c, 68
1, 141300, Note_off_c, 68
1, 141360, Note_off_c, 32
1, 141364, Note_on_c, 52
1, 141364, Note_on_c, 57
1, 141364, Note_on_c, 61
1, 141364, Note_on_c, 52
1, 141364, Note_on_c, 57
1, 141364, Note_on_c, 61
1, 141364, Note_on_c, 85
1, 141364, Note_on_c, 73
1, 141364, Note_on_c, 85
1, 141420, Note_off_c, 73
1, 141484, Note_on_c, 81
1, 141600, Note_off_c, 81
1, 141600, Note_off_c, 85
1, 141600, Note_off_c, 85
1, 141600, Note_off_c, 61
1, 141600, Note_off_c, 57
1, 141600, Note_off_c, 52
1, 141600, Note_off_c, 61
1, 141600, Note_off_c, 57
1, 141600, Note_off_c, 52
1, 141604, Note_on_c, 52
1, 141604, Note_on_c, 57
1, 141604, Note_on_c, 61
1, 141604, Note_on_c, 52
1, 141604, Note_on_c, 57
1, 141604, Note_on_c, 61
1, 141604, Note_on_c, 83
1, 141604, Note_on_c, 73
1, 141604, Note_on_c, 32
1, 141604, Note_on_c, 83
1, 141664, Note_off_c, 73
1, 141724, Note_on_c, 68
1, 141840, Note_off_c, 68
1, 141840, Note_off_c, 83
1, 141840, Note_off_c, 32
1, 141840, Note_off_c, 83
1, 141840, Note_off_c, 61
1, 141840, Note_off_c, 57
1, 141840, Note_off_c, 52
1, 141840, Note_off_c, 61
1, 141840, Note_off_c, 57
1, 141840, Note_off_c, 52
1, 141844, Note_on_c, 52
1, 141844, Note_on_c, 57
1, 141844, Note_on_c, 61
1, 141844, Note_on_c, 52
1, 141844, Note_on_c, 57
1, 141844, Note_on_c, 61
1, 141844, Note_on_c, 80
1, 141844, Note_on_c, 73
1, 141844, Note_on_c, 80
1, 141904, Note_off_c, 73
1, 141964, Note_on_c, 64
1, 142024, Note_off_c, 64
1, 142080, Note_off_c, 80
1, 142080, Note_off_c, 80
1, 142080, Note_off_c, 61
1, 142080, Note_off_c, 57
1, 142080, Note_off_c, 52
1, 142080, Note_off_c, 61
1, 142080, Note_off_c, 57
1, 142080, Note_off_c, 52
1, 142080, Note_off_c, 84
1, 142084, Note_on_c, 56
1, 142084, Note_on_c, 61
1, 142084, Note_on_c, 66
1, 142084, Note_on_c, 56
1, 142084, Note_on_c, 61
1, 142084, Note_on_c, 66
1, 142084, Note_on_c, 78
1, 142084, Note_on_c, 61
1, 142084, Note_on_c, 32
1, 142084, Note_on_c, 78
1, 142144, Note_off_c, 61
1, 142204, Note_on_c, 49
1, 142260, Note_off_c, 49
1, 142320, Note_off_c, 78
1, 142320, Note_off_c, 32
1, 142320, Note_off_c, 78
1, 142320, Note_off_c, 66
1, 142320, Note_off_c, 61
1, 142320, Note_off_c, 56
1, 142320, Note_off_c, 66
1, 142320, Note_off_c, 61
1, 142320, Note_off_c, 56
1, 142324, Note_on_c, 56
1, 142324, Note_on_c, 61
1, 142324, Note_on_c, 64
1, 142324, Note_on_c, 56
1, 142324, Note_on_c, 61
1, 142324, Note_on_c, 64
1, 142324, Note_on_c, 76
1, 142324, Note_on_c, 61
1, 142324, Note_on_c, 76
1, 142384, Note_off_c, 61
1, 142444, Note_on_c, 68
1, 142500, Note_off_c, 68
1, 142560, Note_off_c, 76
1, 142560, Note_off_c, 76
1, 142560, Note_off_c, 64
1, 142560, Note_off_c, 61
1, 142560, Note_off_c, 56
1, 142560, Note_off_c, 64
1, 142560, Note_off_c, 61
1, 142560, Note_off_c, 56
1, 142564, Note_on_c, 56
1, 142564, Note_on_c, 61
1, 142564, Note_on_c, 64
1, 142564, Note_on_c, 56
1, 142564, Note_on_c, 61
1, 142564, Note_on_c, 64
1, 142564, Note_on_c, 76
1, 142564, Note_on_c, 56
1, 142564, Note_on_c, 32
1, 142564, Note_on_c, 76
1, 142620, Note_off_c, 56
1, 142684, Note_on_c, 61
1, 142744, Note_off_c, 61
1, 142800, Note_off_c, 76
1, 142800, Note_off_c, 32
1, 142800, Note_off_c, 76
1, 142800, Note_off_c, 64
1, 142800, Note_off_c, 61
1, 142800, Note_off_c, 56
1, 142800, Note_off_c, 64
1, 142800, Note_off_c, 61
1, 142800, Note_off_c, 56
1, 142804, Note_on_c, 68
1, 142864, Note_off_c, 68
1, 142924, Note_on_c, 73
1, 143040, Note_off_c, 73
1, 143044, Note_on_c, 56
1, 143044, Note_on_c, 59
1, 143044, Note_on_c, 64
1, 143044, Note_on_c, 56
1, 143044, Note_on_c, 59
1, 143044, Note_on_c, 64
1, 143044, Note_on_c, 76
1, 143044, Note_on_c, 73
1, 143044, Note_on_c, 32
1, 143044, Note_on_c, 76
1, 143100, Note_off_c, 73
1, 143164, Note_on_c, 68
1, 143220, Note_off_c, 68
1, 143280, Note_off_c, 76
1, 143280, Note_off_c, 32
1, 143280, Note_off_c, 76
1, 143280, Note_off_c, 64
1, 143280, Note_off_c, 59
1, 143280, Note_off_c, 56
1, 143280, Note_off_c, 64
1, 143280, Note_off_c, 59
1, 143280, Note_off_c, 56
1, 143284, Note_on_c, 56
1, 143284, Note_on_c, 59
1, 143284, Note_on_c, 64
1, 143284, Note_on_c, 56
1, 143284, Note_on_c, 59
1, 143284, Note_on_c, 64
1, 143284, Note_on_c, 76
1, 143284, Note_on_c, 73
1, 143284, Note_on_c, 76
1, 143340, Note_off_c, 73
1, 143404, Note_on_c, 81
1, 143520, Note_off_c, 81
1, 143520, Note_off_c, 76
1, 143520, Note_off_c, 76
1, 143520, Note_off_c, 64
1, 143520, Note_off_c, 59
1, 143520, Note_off_c, 56
1, 143520, Note_off_c, 64
1, 143520, Note_off_c, 59
1, 143520, Note_off_c, 56
1, 143524, Note_on_c, 56
1, 143524, Note_on_c, 59
1, 143524, Note_on_c, 64
1, 143524, Note_on_c, 56
1, 143524, Note_on_c, 59
1, 143524, Note_on_c, 64
1, 143524, Note_on_c, 76
1, 143524, Note_on_c, 73
1, 143524, Note_on_c, 32
1, 143524, Note_on_c, 76
1, 143584, Note_off_c, 73
1, 143644, Note_on_c, 68
1, 143760, Note_off_c, 68
1, 143760, Note_off_c, 76
1, 143760, Note_off_c, 32
1, 143760, Note_off_c, 76
1, 143760, Note_off_c, 64
1, 143760, Note_off_c, 59
1, 143760, Note_off_c, 56
1, 143760, Note_off_c, 64
1, 143760, Note_off_c, 59
1, 143760, Note_off_c, 56
1, 143764, Note_on_c, 56
1, 143764, Note_on_c, 59
1, 143764, Note_on_c, 64
1, 143764, Note_on_c, 56
1, 143764, Note_on_c, 59
1, 143764, Note_on_c, 64
1, 143764, Note_on_c, 76
1, 143764, Note_on_c, 73
1, 143764, Note_on_c, 76
1, 143824, Note_off_c, 73
1, 143884, Note_on_c, 64
1, 143944, Note_off_c, 64
1, 144000, Note_off_c, 76
1, 144000, Note_off_c, 76
1, 144000, Note_off_c, 64
1, 144000, Note_off_c, 59
1, 144000, Note_off_c, 56
1, 144000, Note_off_c, 64
1, 144000, Note_off_c, 59
1, 144000, Note_off_c, 56
1, 144004, Note_on_c, 54
1, 144004, Note_on_c, 59
1, 144004, Note_on_c, 63
1, 144004, Note_on_c, 54
1, 144004, Note_on_c, 59
1, 144004, Note_on_c, 63
1, 144004, Note_on_c, 73
1, 144004, Note_on_c, 61
1, 144004, Note_on_c, 32
1, 144004, Note_on_c, 73
1, 144064, Note_off_c, 61
1, 144124, Note_on_c, 49
1, 144180, Note_off_c, 49
1, 144240, Note_off_c, 73
1, 144240, Note_off_c, 32
1, 144240, Note_off_c, 73
1, 144240, Note_off_c, 63
1, 144240, Note_off_c, 59
1, 144240, Note_off_c, 54
1, 144240, Note_off_c, 63
1, 144240, Note_off_c, 59
1, 144240, Note_off_c, 54
1, 144244, Note_on_c, 54
1, 144244, Note_on_c, 59
1, 144244, Note_on_c, 63
1, 144244, Note_on_c, 54
1, 144244, Note_on_c, 59
1, 144244, Note_on_c, 63
1, 144244, Note_on_c, 73
1, 144244, Note_on_c, 61
1, 144244, Note_on_c, 73
1, 144304, Note_off_c, 61
1, 144364, Note_on_c, 68
1, 144420, Note_off_c, 68
1, 144480, Note_off_c, 73
1, 144480, Note_off_c, 73
1, 144480, Note_off_c, 63
1, 144480, Note_off_c, 59
1, 144480, Note_off_c, 54
1, 144480, Note_off_c, 63
1, 144480, Note_off_c, 59
1, 144480, Note_off_c, 54
1, 144484, Note_on_c, 54
1, 144484, Note_on_c, 59
1, 144484, Note_on_c, 63
1, 144484, Note_on_c, 54
1, 144484, Note_on_c, 59
1, 144484, Note_on_c, 63
1, 144484, Note_on_c, 71
1, 144484, Note_on_c, 56
1, 144484, Note_on_c, 32
1, 144484, Note_on_c, 71
1, 144540, Note_off_c, 56
1, 144604, Note_on_c, 61
1, 144664, Note_off_c, 61
1, 144720, Note_off_c, 71
1, 144720, Note_off_c, 32
1, 144720, Note_off_c, 71
1, 144720, Note_off_c, 63
1, 144720, Note_off_c, 59
1, 144720, Note_off_c, 54
1, 144720, Note_off_c, 63
1, 144720, Note_off_c, 59
1, 144720, Note_off_c, 54
1, 144724, Note_on_c, 52
1, 144724, Note_on_c, 57
1, 144724, Note_on_c, 61
1, 144724, Note_on_c, 52
1, 144724, Note_on_c, 57
1, 144724, Note_on_c, 61
1, 144724, Note_on_c, 71
1, 144724, Note_on_c, 68
1, 144724, Note_on_c, 29
1, 144724, Note_on_c, 71
1, 144784, Note_off_c, 68
1, 144844, Note_on_c, 73
1, 144960, Note_off_c, 73
1, 144960, Note_off_c, 71
1, 144960, Note_off_c, 29
1, 144960, Note_off_c, 71
1, 144960, Note_off_c, 61
1, 144960, Note_off_c, 57
1, 144960, Note_off_c, 52
1, 144960, Note_off_c, 61
1, 144960, Note_off_c, 57
1, 144960, Note_off_c, 52
1, 144964, Note_on_c, 73
1, 144964, Note_on_c, 32
1, 145020, Note_off_c, 73
1, 145084, Note_on_c, 68
1, 145140, Note_off_c, 68
1, 145200, Note_off_c, 32
1, 145204, Note_on_c, 52
1, 145204, Note_on_c, 57
1, 145204, Note_on_c, 61
1, 145204, Note_on_c, 52
1, 145204, Note_on_c, 57
1, 145204, Note_on_c, 61
1, 145204, Note_on_c, 85
1, 145204, Note_on_c, 73
1, 145204, Note_on_c, 85
1, 145260, Note_off_c, 73
1, 145324, Note_on_c, 81
1, 145440, Note_off_c, 81
1, 145440, Note_off_c, 85
1, 145440, Note_off_c, 85
1, 145440, Note_off_c, 61
1, 145440, Note_off_c, 57
1, 145440, Note_off_c, 52
1, 145440, Note_off_c, 61
1, 145440, Note_off_c, 57
1, 145440, Note_off_c, 52
1, 145444, Note_on_c, 52
1, 145444, Note_on_c, 57
1, 145444, Note_on_c, 61
1, 145444, Note_on_c, 52
1, 145444, Note_on_c, 57
1, 145444, Note_on_c, 61
1, 145444, Note_on_c, 83
1, 145444, Note_on_c, 73
1, 145444, Note_on_c, 32
1, 145444, Note_on_c, 83
1, 145504, Note_off_c, 73
1, 145564, Note_on_c, 68
1, 145680, Note_off_c, 68
1, 145680, Note_off_c, 83
1, 145680, Note_off_c, 32
1, 145680, Note_off_c, 83
1, 145680, Note_off_c, 61
1, 145680, Note_off_c, 57
1, 145680, Note_off_c, 52
1, 145680, Note_off_c, 61
1, 145680, Note_off_c, 57
1, 145680, Note_off_c, 52
1, 145684, Note_on_c, 52
1, 145684, Note_on_c, 57
1, 145684, Note_on_c, 61
1, 145684, Note_on_c, 52
1, 145684, Note_on_c, 57
1, 145684, Note_on_c, 61
1, 145684, Note_on_c, 80
1, 145684, Note_on_c, 73
1, 145684, Note_on_c, 80
1, 145744, Note_off_c, 73
1, 145804, Note_on_c, 64
1, 145864, Note_off_c, 64
1, 145920, Note_off_c, 80
1, 145920, Note_off_c, 80
1, 145920, Note_off_c, 61
1, 145920, Note_off_c, 57
1, 145920, Note_off_c, 52
1, 145920, Note_off_c, 61
1, 145920, Note_off_c, 57
1, 145920, Note_off_c, 52
1, 145924, Note_on_c, 56
1, 145924, Note_on_c, 61
1, 145924, Note_on_c, 66
1, 145924, Note_on_c, 56
1, 145924, Note_on_c, 61
1, 145924, Note_on_c, 66
1, 145924, Note_on_c, 78
1, 145924, Note_on_c, 61
1, 145924, Note_on_c, 32
1, 145924, Note_on_c, 78
1, 145924, Note_on_c, 96
1, 145984, Note_off_c, 96
1, 145984, Note_off_c, 61
1, 146044, Note_on_c, 49
1, 146044, Note_on_c, 96
1, 146100, Note_off_c, 49
1, 146104, Note_off_c, 96
1, 146160, Note_off_c, 78
1, 146160, Note_off_c, 32
1, 146160, Note_off_c, 78
1, 146160, Note_off_c, 66
1, 146160, Note_off_c, 61
1, 146160, Note_off_c, 56
1, 146160, Note_off_c, 66
1, 146160, Note_off_c, 61
1, 146160, Note_off_c, 56
1, 146164, Note_on_c, 56
1, 146164, Note_on_c, 61
1, 146164, Note_on_c, 64
1, 146164, Note_on_c, 56
1, 146164, Note_on_c, 61
1, 146164, Note_on_c, 64
1, 146164, Note_on_c, 76
1, 146164, Note_on_c, 61
1, 146164, Note_on_c, 76
1, 146164, Note_on_c, 96
1, 146220, Note_off_c, 96
1, 146224, Note_off_c, 61
1, 146284, Note_on_c, 68
1, 146284, Note_on_c, 96
1, 146340, Note_off_c, 68
1, 146344, Note_off_c, 96
1, 146400, Note_off_c, 76
1, 146400, Note_off_c, 76
1, 146400, Note_off_c, 64
1, 146400, Note_off_c, 61
1, 146400, Note_off_c, 56
1, 146400, Note_off_c, 64
1, 146400, Note_off_c, 61
1, 146400, Note_off_c, 56
1, 146404, Note_on_c, 56
1, 146404, Note_on_c, 61
1, 146404, Note_on_c, 64
1, 146404, Note_on_c, 56
1, 146404, Note_on_c, 61
1, 146404, Note_on_c, 64
1, 146404, Note_on_c, 76
1, 146404, Note_on_c, 56
1, 146404, Note_on_c, 32
1, 146404, Note_on_c, 76
1, 146404, Note_on_c, 96
1, 146460, Note_off_c, 96
1, 146460, Note_off_c, 56
1, 146524, Note_on_c, 61
1, 146524, Note_on_c, 96
1, 146584, Note_off_c, 96
1, 146584, Note_off_c, 61
1, 146640, Note_off_c, 76
1, 146640, Note_off_c, 32
1, 146640, Note_off_c, 76
1, 146640, Note_off_c, 64
1, 146640, Note_off_c, 61
1, 146640, Note_off_c, 56
1, 146640, Note_off_c, 64
1, 146640, Note_off_c, 61
1, 146640, Note_off_c, 56
1, 146644, Note_on_c, 68
1, 146644, Note_on_c, 96
1, 146700, Note_off_c, 96
1, 146704, Note_off_c, 68
1, 146764, Note_on_c, 73
1, 146764, Note_on_c, 96
1, 146820, Note_off_c, 96
1, 146880, Note_off_c, 73
1, 146884, Note_on_c, 56
1, 146884, Note_on_c, 59
1, 146884, Note_on_c, 64
1, 146884, Note_on_c, 56
1, 146884, Note_on_c, 59
1, 146884, Note_on_c, 64
1, 146884, Note_on_c, 76
1, 146884, Note_on_c, 73
1, 146884, Note_on_c, 32
1, 146884, Note_on_c, 76
1, 146884, Note_on_c, 96
1, 146940, Note_off_c, 96
1, 146940, Note_off_c, 73
1, 147004, Note_on_c, 68
1, 147004, Note_on_c, 96
1, 147060, Note_off_c, 68
1, 147064, Note_off_c, 96
1, 147120, Note_off_c, 76
1, 147120, Note_off_c, 32
1, 147120, Note_off_c, 76
1, 147120, Note_off_c, 64
1, 147120, Note_off_c, 59
1, 147120, Note_off_c, 56
1, 147120, Note_off_c, 64
1, 147120, Note_off_c, 59
1, 147120, Note_off_c, 56
1, 147124, Note_on_c, 56
1, 147124, Note_on_c, 59
1, 147124, Note_on_c, 64
1, 147124, Note_on_c, 56
1, 147124, Note_on_c, 59
1, 147124, Note_on_c, 64
1, 147124, Note_on_c, 76
1, 147124, Note_on_c, 73
1, 147124, Note_on_c, 76
1, 147124, Note_on_c, 96
1, 147180, Note_off_c, 73
1, 147184, Note_off_c, 96
1, 147244, Note_on_c, 81
1, 147244, Note_on_c, 96
1, 147304, Note_off_c, 96
1, 147360, Note_off_c, 81
1, 147360, Note_off_c, 76
1, 147360, Note_off_c, 76
1, 147360, Note_off_c, 64
1, 147360, Note_off_c, 59
1, 147360, Note_off_c, 56
1, 147360, Note_off_c, 64
1, 147360, Note_off_c, 59
1, 147360, Note_off_c, 56
1, 147364, Note_on_c, 56
1, 147364, Note_on_c, 59
1, 147364, Note_on_c, 64
1, 147364, Note_on_c, 56
1, 147364, Note_on_c, 59
1, 147364, Note_on_c, 64
1, 147364, Note_on_c, 76
1, 147364, Note_on_c, 73
1, 147364, Note_on_c, 32
1, 147364, Note_on_c, 76
1, 147364, Note_on_c, 96
1, 147424, Note_off_c, 96
1, 147424, Note_off_c, 73
1, 147484, Note_on_c, 68
1, 147484, Note_on_c, 96
1, 147540, Note_off_c, 96
1, 147600, Note_off_c, 68
1, 147600, Note_off_c, 76
1, 147600, Note_off_c, 32
1, 147600, Note_off_c, 76
1, 147600, Note_off_c, 64
1, 147600, Note_off_c, 59
1, 147600, Note_off_c, 56
1, 147600, Note_off_c, 64
1, 147600, Note_off_c, 59
1, 147600, Note_off_c, 56
1, 147604, Note_on_c, 56
1, 147604, Note_on_c, 59
1, 147604, Note_on_c, 64
1, 147604, Note_on_c, 56
1, 147604, Note_on_c, 59
1, 147604, Note_on_c, 64
1, 147604, Note_on_c, 76
1, 147604, Note_on_c, 73
1, 147604, Note_on_c, 76
1, 147604, Note_on_c, 96
1, 147664, Note_off_c, 96
1, 147664, Note_off_c, 73
1, 147724, Note_on_c, 64
1, 147724, Note_on_c, 96
1, 147780, Note_off_c, 96
1, 147784, Note_off_c, 64
1, 147840, Note_off_c, 76
1, 147840, Note_off_c, 76
1, 147840, Note_off_c, 64
1, 147840, Note_off_c, 59
1, 147840, Note_off_c, 56
1, 147840, Note_off_c, 64
1, 147840, Note_off_c, 59
1, 147840, Note_off_c, 56
1, 147844, Note_on_c, 54
1, 147844, Note_on_c, 59
1, 147844, Note_on_c, 63
1, 147844, Note_on_c, 54
1, 147844, Note_on_c, 59
1, 147844, Note_on_c, 63
1, 147844, Note_on_c, 75
1, 147844, Note_on_c, 61
1, 147844, Note_on_c, 32
1, 147844, Note_on_c, 75
1, 147844, Note_on_c, 96
1, 147900, Note_off_c, 96
1, 147904, Note_off_c, 61
1, 147964, Note_on_c, 49
1, 147964, Note_on_c, 96
1, 148020, Note_off_c, 49
1, 148024, Note_off_c, 96
1, 148080, Note_off_c, 75
1, 148080, Note_off_c, 32
1, 148080, Note_off_c, 75
1, 148080, Note_off_c, 63
1, 148080, Note_off_c, 59
1, 148080, Note_off_c, 54
1, 148080, Note_off_c, 63
1, 148080, Note_off_c, 59
1, 148080, Note_off_c, 54
1, 148084, Note_on_c, 54
1, 148084, Note_on_c, 59
1, 148084, Note_on_c, 63
1, 148084, Note_on_c, 54
1, 148084, Note_on_c, 59
1, 148084, Note_on_c, 63
1, 148084, Note_on_c, 75
1, 148084, Note_on_c, 61
1, 148084, Note_on_c, 75
1, 148084, Note_on_c, 96
1, 148140, Note_off_c, 96
1, 148144, Note_off_c, 61
1, 148204, Note_on_c, 68
1, 148204, Note_on_c, 96
1, 148260, Note_off_c, 96
1, 148260, Note_off_c, 68
1, 148320, Note_off_c, 75
1, 148320, Note_off_c, 75
1, 148320, Note_off_c, 63
1, 148320, Note_off_c, 59
1, 148320, Note_off_c, 54
1, 148320, Note_off_c, 63
1, 148320, Note_off_c, 59
1, 148320, Note_off_c, 54
1, 148324, Note_on_c, 54
1, 148324, Note_on_c, 59
1, 148324, Note_on_c, 63
1, 148324, Note_on_c, 54
1, 148324, Note_on_c, 59
1, 148324, Note_on_c, 63
1, 148324, Note_on_c, 76
1, 148324, Note_on_c, 56
1, 148324, Note_on_c, 32
1, 148324, Note_on_c, 76
1, 148324, Note_on_c, 96
1, 148380, Note_off_c, 96
1, 148380, Note_off_c, 56
1, 148444, Note_on_c, 61
1, 148444, Note_on_c, 96
1, 148500, Note_off_c, 96
1, 148504, Note_off_c, 61
1, 148560, Note_off_c, 76
1, 148560, Note_off_c, 32
1, 148560, Note_off_c, 76
1, 148560, Note_off_c, 63
1, 148560, Note_off_c, 59
1, 148560, Note_off_c, 54
1, 148560, Note_off_c, 63
1, 148560, Note_off_c, 59
1, 148560, Note_off_c, 54
1, 148564, Note_on_c, 52
1, 148564, Note_on_c, 57
1, 148564, Note_on_c, 61
1, 148564, Note_on_c, 52
1, 148564, Note_on_c, 57
1, 148564, Note_on_c, 61
1, 148564, Note_on_c, 76
1, 148564, Note_on_c, 68
1, 148564, Note_on_c, 29
1, 148564, Note_on_c, 76
1, 148564, Note_on_c, 96
1, 148624, Note_off_c, 96
1, 148624, Note_off_c, 68
1, 148684, Note_on_c, 73
1, 148684, Note_on_c, 96
1, 148744, Note_off_c, 96
1, 148800, Note_off_c, 73
1, 148800, Note_off_c, 76
1, 148800, Note_off_c, 29
1, 148800, Note_off_c, 76
1, 148800, Note_off_c, 61
1, 148800, Note_off_c, 57
1, 148800, Note_off_c, 52
1, 148800, Note_off_c, 61
1, 148800, Note_off_c, 57
1, 148800, Note_off_c, 52
1, 148804, Note_on_c, 73
1, 148804, Note_on_c, 32
1, 148804, Note_on_c, 96
1, 148860, Note_off_c, 96
1, 148860, Note_off_c, 73
1, 148924, Note_on_c, 68
1, 148924, Note_on_c, 96
1, 148980, Note_off_c, 96
1, 148980, Note_off_c, 68
1, 149040, Note_off_c, 32
1, 149044, Note_on_c, 52
1, 149044, Note_on_c, 57
1, 149044, Note_on_c, 61
1, 149044, Note_on_c, 52
1, 149044, Note_on_c, 57
1, 149044, Note_on_c, 61
1, 149044, Note_on_c, 85
1, 149044, Note_on_c, 73
1, 149044, Note_on_c, 85
1, 149044, Note_on_c, 96
1, 149100, Note_off_c, 73
1, 149104, Note_off_c, 96
1, 149164, Note_on_c, 81
1, 149164, Note_on_c, 96
1, 149224, Note_off_c, 96
1, 149280, Note_off_c, 81
1, 149280, Note_off_c, 85
1, 149280, Note_off_c, 85
1, 149280, Note_off_c, 61
1, 149280, Note_off_c, 57
1, 149280, Note_off_c, 52
1, 149280, Note_off_c, 61
1, 149280, Note_off_c, 57
1, 149280, Note_off_c, 52
1, 149284, Note_on_c, 52
1, 149284, Note_on_c, 57
1, 149284, Note_on_c, 61
1, 149284, Note_on_c, 52
1, 149284, Note_on_c, 57
1, 149284, Note_on_c, 61
1, 149284, Note_on_c, 83
1, 149284, Note_on_c, 73
1, 149284, Note_on_c, 32
1, 149284, Note_on_c, 83
1, 149284, Note_on_c, 96
1, 149344, Note_off_c, 96
1, 149344, Note_off_c, 73
1, 149404, Note_on_c, 68
1, 149404, Note_on_c, 96
1, 149460, Note_off_c, 96
1, 149520, Note_off_c, 68
1, 149520, Note_off_c, 83
1, 149520, Note_off_c, 32
1, 149520, Note_off_c, 83
1, 149520, Note_off_c, 61
1, 149520, Note_off_c, 57
1, 149520, Note_off_c, 52
1, 149520, Note_off_c, 61
1, 149520, Note_off_c, 57
1, 149520, Note_off_c, 52
1, 149524, Note_on_c, 52
1, 149524, Note_on_c, 57
1, 149524, Note_on_c, 61
1, 149524, Note_on_c, 52
1, 149524, Note_on_c, 57
1, 149524, Note_on_c, 61
1, 149524, Note_on_c, 80
1, 149524, Note_on_c, 73
1, 149524, Note_on_c, 80
1, 149524, Note_on_c, 96
1, 149580, Note_off_c, 96
1, 149584, Note_off_c, 73
1, 149644, Note_on_c, 64
1, 149644, Note_on_c, 96
1, 149700, Note_off_c, 96
1, 149704, Note_off_c, 64
1, 149760, Note_off_c, 80
1, 149760, Note_off_c, 80
1, 149760, Note_off_c, 61
1, 149760, Note_off_c, 57
1, 149760, Note_off_c, 52
1, 149760, Note_off_c, 61
1, 149760, Note_off_c, 57
1, 149760, Note_off_c, 52
1, 149764, Note_on_c, 56
1, 149764, Note_on_c, 61
1, 149764, Note_on_c, 66
1, 149764, Note_on_c, 56
1, 149764, Note_on_c, 61
1, 149764, Note_on_c, 66
1, 149764, Note_on_c, 78
1, 149764, Note_on_c, 61
1, 149764, Note_on_c, 32
1, 149764, Note_on_c, 78
1, 149764, Note_on_c, 96
1, 149824, Note_off_c, 96
1, 149824, Note_off_c, 61
1, 149884, Note_on_c, 49
1, 149884, Note_on_c, 96
1, 149940, Note_off_c, 49
1, 149944, Note_off_c, 96
1, 150000, Note_off_c, 78
1, 150000, Note_off_c, 32
1, 150000, Note_off_c, 78
1, 150000, Note_off_c, 66
1, 150000, Note_off_c, 61
1, 150000, Note_off_c, 56
1, 150000, Note_off_c, 66
1, 150000, Note_off_c, 61
1, 150000, Note_off_c, 56
1, 150004, Note_on_c, 56
1, 150004, Note_on_c, 61
1, 150004, Note_on_c, 64
1, 150004, Note_on_c, 56
1, 150004, Note_on_c, 61
1, 150004, Note_on_c, 64
1, 150004, Note_on_c, 76
1, 150004, Note_on_c, 61
1, 150004, Note_on_c, 76
1, 150004, Note_on_c, 96
1, 150060, Note_off_c, 96
1, 150064, Note_off_c, 61
1, 150124, Note_on_c, 68
1, 150124, Note_on_c, 96
1, 150180, Note_off_c, 68
1, 150184, Note_off_c, 96
1, 150240, Note_off_c, 76
1, 150240, Note_off_c, 76
1, 150240, Note_off_c, 64
1, 150240, Note_off_c, 61
1, 150240, Note_off_c, 56
1, 150240, Note_off_c, 64
1, 150240, Note_off_c, 61
1, 150240, Note_off_c, 56
1, 150244, Note_on_c, 56
1, 150244, Note_on_c, 61
1, 150244, Note_on_c, 64
1, 150244, Note_on_c, 56
1, 150244, Note_on_c, 61
1, 150244, Note_on_c, 64
1, 150244, Note_on_c, 76
1, 150244, Note_on_c, 56
1, 150244, Note_on_c, 32
1, 150244, Note_on_c, 76
1, 150244, Note_on_c, 96
1, 150300, Note_off_c, 96
1, 150300, Note_off_c, 56
1, 150364, Note_on_c, 61
1, 150364, Note_on_c, 96
1, 150424, Note_off_c, 96
1, 150424, Note_off_c, 61
1, 150480, Note_off_c, 76
1, 150480, Note_off_c, 32
1, 150480, Note_off_c, 76
1, 150480, Note_off_c, 64
1, 150480, Note_off_c, 61
1, 150480, Note_off_c, 56
1, 150480, Note_off_c, 64
1, 150480, Note_off_c, 61
1, 150480, Note_off_c, 56
1, 150484, Note_on_c, 68
1, 150484, Note_on_c, 96
1, 150540, Note_off_c, 96
1, 150544, Note_off_c, 68
1, 150604, Note_on_c, 73
1, 150604, Note_on_c, 96
1, 150660, Note_off_c, 96
1, 150720, Note_off_c, 73
1, 150724, Note_on_c, 56
1, 150724, Note_on_c, 59
1, 150724, Note_on_c, 64
1, 150724, Note_on_c, 56
1, 150724, Note_on_c, 59
1, 150724, Note_on_c, 64
1, 150724, Note_on_c, 76
1, 150724, Note_on_c, 73
1, 150724, Note_on_c, 32
1, 150724, Note_on_c, 76
1, 150724, Note_on_c, 96
1, 150780, Note_off_c, 96
1, 150780, Note_off_c, 73
1, 150844, Note_on_c, 68
1, 150844, Note_on_c, 96
1, 150900, Note_off_c, 68
1, 150904, Note_off_c, 96
1, 150960, Note_off_c, 76
1, 150960, Note_off_c, 32
1, 150960, Note_off_c, 76
1, 150960, Note_off_c, 64
1, 150960, Note_off_c, 59
1, 150960, Note_off_c, 56
1, 150960, Note_off_c, 64
1, 150960, Note_off_c, 59
1, 150960, Note_off_c, 56
1, 150964, Note_on_c, 56
1, 150964, Note_on_c, 59
1, 150964, Note_on_c, 64
1, 150964, Note_on_c, 56
1, 150964, Note_on_c, 59
1, 150964, Note_on_c, 64
1, 150964, Note_on_c, 76
1, 150964, Note_on_c, 73
1, 150964, Note_on_c, 76
1, 150964, Note_on_c, 96
1, 151020, Note_off_c, 73
1, 151024, Note_off_c, 96
1, 151084, Note_on_c, 81
1, 151084, Note_on_c, 96
1, 151144, Note_off_c, 96
1, 151200, Note_off_c, 81
1, 151200, Note_off_c, 76
1, 151200, Note_off_c, 76
1, 151200, Note_off_c, 64
1, 151200, Note_off_c, 59
1, 151200, Note_off_c, 56
1, 151200, Note_off_c, 64
1, 151200, Note_off_c, 59
1, 151200, Note_off_c, 56
1, 151204, Note_on_c, 56
1, 151204, Note_on_c, 59
1, 151204, Note_on_c, 64
1, 151204, Note_on_c, 56
1, 151204, Note_on_c, 59
1, 151204, Note_on_c, 64
1, 151204, Note_on_c, 76
1, 151204, Note_on_c, 73
1, 151204, Note_on_c, 32
1, 151204, Note_on_c, 76
1, 151204, Note_on_c, 96
1, 151264, Note_off_c, 96
1, 151264, Note_off_c, 73
1, 151324, Note_on_c, 68
1, 151324, Note_on_c, 96
1, 151380, Note_off_c, 96
1, 151440, Note_off_c, 68
1, 151440, Note_off_c, 76
1, 151440, Note_off_c, 32
1, 151440, Note_off_c, 76
1, 151440, Note_off_c, 64
1, 151440, Note_off_c, 59
1, 151440, Note_off_c, 56
1, 151440, Note_off_c, 64
1, 151440, Note_off_c, 59
1, 151440, Note_off_c, 56
1, 151444, Note_on_c, 56
1, 151444, Note_on_c, 59
1, 151444, Note_on_c, 64
1, 151444, Note_on_c, 56
1, 151444, Note_on_c, 59
1, 151444, Note_on_c, 64
1, 151444, Note_on_c, 76
1, 151444, Note_on_c, 73
1, 151444, Note_on_c, 76
1, 151444, Note_on_c, 96
1, 151504, Note_off_c, 96
1, 151504, Note_off_c, 73
1, 151564, Note_on_c, 64
1, 151564, Note_on_c, 96
1, 151620, Note_off_c, 96
1, 151624, Note_off_c, 64
1, 151680, Note_off_c, 76
1, 151680, Note_off_c, 76
1, 151680, Note_off_c, 64
1, 151680, Note_off_c, 59
1, 151680, Note_off_c, 56
1, 151680, Note_off_c, 64
1, 151680, Note_off_c, 59
1, 151680, Note_off_c, 56
1, 151684, Note_on_c, 54
1, 151684, Note_on_c, 59
1, 151684, Note_on_c, 63
1, 151684, Note_on_c, 54
1, 151684, Note_on_c, 59
1, 151684, Note_on_c, 63
1, 151684, Note_on_c, 73
1, 151684, Note_on_c, 61
1, 151684, Note_on_c, 32
1, 151684, Note_on_c, 73
1, 151684, Note_on_c, 96
1, 151740, Note_off_c, 96
1, 151744, Note_off_c, 61
1, 151804, Note_on_c, 49
1, 151804, Note_on_c, 96
1, 151860, Note_off_c, 49
1, 151864, Note_off_c, 96
1, 151920, Note_off_c, 73
1, 151920, Note_off_c, 32
1, 151920, Note_off_c, 73
1, 151920, Note_off_c, 63
1, 151920, Note_off_c, 59
1, 151920, Note_off_c, 54
1, 151920, Note_off_c, 63
1, 151920, Note_off_c, 59
1, 151920, Note_off_c, 54
1, 151924, Note_on_c, 54
1, 151924, Note_on_c, 59
1, 151924, Note_on_c, 63
1, 151924, Note_on_c, 54
1, 151924, Note_on_c, 59
1, 151924, Note_on_c, 63
1, 151924, Note_on_c, 73
1, 151924, Note_on_c, 61
1, 151924, Note_on_c, 73
1, 151924, Note_on_c, 96
1, 151980, Note_off_c, 96
1, 151984, Note_off_c, 61
1, 152044, Note_on_c, 68
1, 152044, Note_on_c, 96
1, 152100, Note_off_c, 96
1, 152100, Note_off_c, 68
1, 152160, Note_off_c, 73
1, 152160, Note_off_c, 73
1, 152160, Note_off_c, 63
1, 152160, Note_off_c, 59
1, 152160, Note_off_c, 54
1, 152160, Note_off_c, 63
1, 152160, Note_off_c, 59
1, 152160, Note_off_c, 54
1, 152164, Note_on_c, 54
1, 152164, Note_on_c, 59
1, 152164, Note_on_c, 63
1, 152164, Note_on_c, 54
1, 152164, Note_on_c, 59
1, 152164, Note_on_c, 63
1, 152164, Note_on_c, 71
1, 152164, Note_on_c, 56
1, 152164, Note_on_c, 32
1, 152164, Note_on_c, 71
1, 152164, Note_on_c, 96
1, 152220, Note_off_c, 96
1, 152220, Note_off_c, 56
1, 152284, Note_on_c, 61
1, 152284, Note_on_c, 96
1, 152340, Note_off_c, 96
1, 152344, Note_off_c, 61
1, 152400, Note_off_c, 71
1, 152400, Note_off_c, 32
1, 152400, Note_off_c, 71
1, 152400, Note_off_c, 63
1, 152400, Note_off_c, 59
1, 152400, Note_off_c, 54
1, 152400, Note_off_c, 63
1, 152400, Note_off_c, 59
1, 152400, Note_off_c, 54
1, 152404, Note_on_c, 52
1, 152404, Note_on_c, 57
1, 152404, Note_on_c, 61
1, 152404, Note_on_c, 52
1, 152404, Note_on_c, 57
1, 152404, Note_on_c, 61
1, 152404, Note_on_c, 71
1, 152404, Note_on_c, 68
1, 152404, Note_on_c, 29
1, 152404, Note_on_c, 71
1, 152404, Note_on_c, 96
1, 152464, Note_off_c, 96
1, 152464, Note_off_c, 68
1, 152524, Note_on_c, 73
1, 152524, Note_on_c, 96
1, 152584, Note_off_c, 96
1, 152640, Note_off_c, 73
1, 152640, Note_off_c, 71
1, 152640, Note_off_c, 29
1, 152640, Note_off_c, 71
1, 152640, Note_off_c, 61
1, 152640, Note_off_c, 57
1, 152640, Note_off_c, 52
1, 152640, Note_off_c, 61
1, 152640, Note_off_c, 57
1, 152640, Note_off_c, 52
1, 152644, Note_on_c, 73
1, 152644, Note_on_c, 72
1, 152644, Note_on_c, 32
1, 152644, Note_on_c, 96
1, 152700, Note_off_c, 96
1, 152700, Note_off_c, 73
1, 152764, Note_on_c, 68
1, 152764, Note_on_c, 96
1, 152820, Note_off_c, 96
1, 152820, Note_off_c, 68
1, 152880, Note_off_c, 32
1, 152884, Note_on_c, 52
1, 152884, Note_on_c, 57
1, 152884, Note_on_c, 61
1, 152884, Note_on_c, 52
1, 152884, Note_on_c, 57
1, 152884, Note_on_c, 61
1, 152884, Note_on_c, 85
1, 152884, Note_on_c, 73
1, 152884, Note_on_c, 85
1, 152884, Note_on_c, 96
1, 152940, Note_off_c, 73
1, 152944, Note_off_c, 96
1, 153004, Note_on_c, 81
1, 153004, Note_on_c, 96
1, 153064, Note_off_c, 96
1, 153120, Note_off_c, 81
1, 153120, Note_off_c, 85
1, 153120, Note_off_c, 85
1, 153120, Note_off_c, 61
1, 153120, Note_off_c, 57
1, 153120, Note_off_c, 52
1, 153120, Note_off_c, 61
1, 153120, Note_off_c, 57
1, 153120, Note_off_c, 52
1, 153124, Note_on_c, 52
1, 153124, Note_on_c, 57
1, 153124, Note_on_c, 61
1, 153124, Note_on_c, 52
1, 153124, Note_on_c, 57
1, 153124, Note_on_c, 61
1, 153124, Note_on_c, 83
1, 153124, Note_on_c, 73
1, 153124, Note_on_c, 32
1, 153124, Note_on_c, 83
1, 153124, Note_on_c, 96
1, 153184, Note_off_c, 96
1, 153184, Note_off_c, 73
1, 153244, Note_on_c, 68
1, 153244, Note_on_c, 96
1, 153300, Note_off_c, 96
1, 153360, Note_off_c, 68
1, 153360, Note_off_c, 83
1, 153360, Note_off_c, 32
1, 153360, Note_off_c, 83
1, 153360, Note_off_c, 61
1, 153360, Note_off_c, 57
1, 153360, Note_off_c, 52
1, 153360, Note_off_c, 61
1, 153360, Note_off_c, 57
1, 153360, Note_off_c, 52
1, 153364, Note_on_c, 52
1, 153364, Note_on_c, 57
1, 153364, Note_on_c, 61
1, 153364, Note_on_c, 52
1, 153364, Note_on_c, 57
1, 153364, Note_on_c, 61
1, 153364, Note_on_c, 80
1, 153364, Note_on_c, 73
1, 153364, Note_on_c, 80
1, 153364, Note_on_c, 96
1, 153420, Note_off_c, 96
1, 153424, Note_off_c, 73
1, 153484, Note_on_c, 64
1, 153484, Note_on_c, 96
1, 153540, Note_off_c, 96
1, 153544, Note_off_c, 64
1, 153600, Note_off_c, 80
1, 153600, Note_off_c, 80
1, 153600, Note_off_c, 61
1, 153600, Note_off_c, 57
1, 153600, Note_off_c, 52
1, 153600, Note_off_c, 61
1, 153600, Note_off_c, 57
1, 153600, Note_off_c, 52
1, 153600, Note_off_c, 72
1, 153604, Note_on_c, 56
1, 153604, Note_on_c, 61
1, 153604, Note_on_c, 66
1, 153604, Note_on_c, 56
1, 153604, Note_on_c, 61
1, 153604, Note_on_c, 66
1, 153604, Note_on_c, 78
1, 153604, Note_on_c, 61
1, 153604, Note_on_c, 32
1, 153604, Note_on_c, 36
1, 153604, Note_on_c, 42
1, 153604, Note_on_c, 49
1, 153604, Note_on_c, 78
1, 153604, Note_on_c, 96
1, 153664, Note_off_c, 96
1, 153664, Note_off_c, 61
1, 153720, Note_off_c, 42
1, 153724, Note_on_c, 49
1, 153724, Note_on_c, 96
1, 153780, Note_off_c, 49
1, 153784, Note_off_c, 96
1, 153840, Note_off_c, 78
1, 153840, Note_off_c, 49
1, 153840, Note_off_c, 36
1, 153840, Note_off_c, 32
1, 153840, Note_off_c, 78
1, 153840, Note_off_c, 66
1, 153840, Note_off_c, 61
1, 153840, Note_off_c, 56
1, 153840, Note_off_c, 66
1, 153840, Note_off_c, 61
1, 153840, Note_off_c, 56
1, 153844, Note_on_c, 56
1, 153844, Note_on_c, 61
1, 153844, Note_on_c, 64
1, 153844, Note_on_c, 37
1, 153844, Note_on_c, 56
1, 153844, Note_on_c, 61
1, 153844, Note_on_c, 64
1, 153844, Note_on_c, 76
1, 153844, Note_on_c, 61
1, 153844, Note_on_c, 42
1, 153844, Note_on_c, 82
1, 153844, Note_on_c, 76
1, 153844, Note_on_c, 96
1, 153876, Note_off_c, 82
1, 153900, Note_off_c, 96
1, 153904, Note_off_c, 61
1, 153960, Note_off_c, 42
1, 153964, Note_on_c, 68
1, 153964, Note_on_c, 42
1, 153964, Note_on_c, 96
1, 154020, Note_off_c, 68
1, 154024, Note_off_c, 96
1, 154080, Note_off_c, 42
1, 154080, Note_off_c, 76
1, 154080, Note_off_c, 76
1, 154080, Note_off_c, 64
1, 154080, Note_off_c, 61
1, 154080, Note_off_c, 56
1, 154080, Note_off_c, 37
1, 154080, Note_off_c, 64
1, 154080, Note_off_c, 61
1, 154080, Note_off_c, 56
1, 154084, Note_on_c, 56
1, 154084, Note_on_c, 61
1, 154084, Note_on_c, 64
1, 154084, Note_on_c, 56
1, 154084, Note_on_c, 61
1, 154084, Note_on_c, 64
1, 154084, Note_on_c, 76
1, 154084, Note_on_c, 56
1, 154084, Note_on_c, 32
1, 154084, Note_on_c, 36
1, 154084, Note_on_c, 37
1, 154084, Note_on_c, 42
1, 154084, Note_on_c, 49
1, 154084, Note_on_c, 76
1, 154084, Note_on_c, 96
1, 154140, Note_off_c, 96
1, 154140, Note_off_c, 56
1, 154200, Note_off_c, 42
1, 154204, Note_on_c, 61
1, 154204, Note_on_c, 96
1, 154264, Note_off_c, 96
1, 154264, Note_off_c, 61
1, 154320, Note_off_c, 76
1, 154320, Note_off_c, 49
1, 154320, Note_off_c, 37
1, 154320, Note_off_c, 36
1, 154320, Note_off_c, 32
1, 154320, Note_off_c, 76
1, 154320, Note_off_c, 64
1, 154320, Note_off_c, 61
1, 154320, Note_off_c, 56
1, 154320, Note_off_c, 64
1, 154320, Note_off_c, 61
1, 154320, Note_off_c, 56
1, 154324, Note_on_c, 68
1, 154324, Note_on_c, 42
1, 154324, Note_on_c, 82
1, 154324, Note_on_c, 96
1, 154360, Note_off_c, 82
1, 154380, Note_off_c, 96
1, 154384, Note_off_c, 68
1, 154440, Note_off_c, 42
1, 154444, Note_on_c, 73
1, 154444, Note_on_c, 42
1, 154444, Note_on_c, 96
1, 154500, Note_off_c, 96
1, 154560, Note_off_c, 42
1, 154560, Note_off_c, 73
1, 154564, Note_on_c, 56
1, 154564, Note_on_c, 59
1, 154564, Note_on_c, 64
1, 154564, Note_on_c, 56
1, 154564, Note_on_c, 59
1, 154564, Note_on_c, 64
1, 154564, Note_on_c, 76
1, 154564, Note_on_c, 73
1, 154564, Note_on_c, 32
1, 154564, Note_on_c, 36
1, 154564, Note_on_c, 42
1, 154564, Note_on_c, 49
1, 154564, Note_on_c, 76
1, 154564, Note_on_c, 96
1, 154620, Note_off_c, 96
1, 154620, Note_off_c, 73
1, 154680, Note_off_c, 42
1, 154684, Note_on_c, 68
1, 154684, Note_on_c, 96
1, 154740, Note_off_c, 68
1, 154744, Note_off_c, 96
1, 154800, Note_off_c, 76
1, 154800, Note_off_c, 49
1, 154800, Note_off_c, 36
1, 154800, Note_off_c, 32
1, 154800, Note_off_c, 76
1, 154800, Note_off_c, 64
1, 154800, Note_off_c, 59
1, 154800, Note_off_c, 56
1, 154800, Note_off_c, 64
1, 154800, Note_off_c, 59
1, 154800, Note_off_c, 56
1, 154804, Note_on_c, 56
1, 154804, Note_on_c, 59
1, 154804, Note_on_c, 64
1, 154804, Note_on_c, 40
1, 154804, Note_on_c, 56
1, 154804, Note_on_c, 59
1, 154804, Note_on_c, 64
1, 154804, Note_on_c, 76
1, 154804, Note_on_c, 73
1, 154804, Note_on_c, 42
1, 154804, Note_on_c, 82
1, 154804, Note_on_c, 76
1, 154804, Note_on_c, 96
1, 154852, Note_off_c, 82
1, 154860, Note_off_c, 73
1, 154864, Note_off_c, 96
1, 154920, Note_off_c, 42
1, 154924, Note_on_c, 81
1, 154924, Note_on_c, 42
1, 154924, Note_on_c, 96
1, 154984, Note_off_c, 96
1, 155040, Note_off_c, 42
1, 155040, Note_off_c, 81
1, 155040, Note_off_c, 76
1, 155040, Note_off_c, 76
1, 155040, Note_off_c, 64
1, 155040, Note_off_c, 59
1, 155040, Note_off_c, 56
1, 155040, Note_off_c, 40
1, 155040, Note_off_c, 64
1, 155040, Note_off_c, 59
1, 155040, Note_off_c, 56
1, 155044, Note_on_c, 56
1, 155044, Note_on_c, 59
1, 155044, Note_on_c, 64
1, 155044, Note_on_c, 56
1, 155044, Note_on_c, 59
1, 155044, Note_on_c, 64
1, 155044, Note_on_c, 76
1, 155044, Note_on_c, 73
1, 155044, Note_on_c, 32
1, 155044, Note_on_c, 36
1, 155044, Note_on_c, 37
1, 155044, Note_on_c, 42
1, 155044, Note_on_c, 49
1, 155044, Note_on_c, 76
1, 155044, Note_on_c, 96
1, 155104, Note_off_c, 96
1, 155104, Note_off_c, 73
1, 155160, Note_off_c, 42
1, 155164, Note_on_c, 68
1, 155164, Note_on_c, 96
1, 155220, Note_off_c, 96
1, 155280, Note_off_c, 68
1, 155280, Note_off_c, 76
1, 155280, Note_off_c, 49
1, 155280, Note_off_c, 37
1, 155280, Note_off_c, 36
1, 155280, Note_off_c, 32
1, 155280, Note_off_c, 76
1, 155280, Note_off_c, 64
1, 155280, Note_off_c, 59
1, 155280, Note_off_c, 56
1, 155280, Note_off_c, 64
1, 155280, Note_off_c, 59
1, 155280, Note_off_c, 56
1, 155284, Note_on_c, 56
1, 155284, Note_on_c, 59
1, 155284, Note_on_c, 64
1, 155284, Note_on_c, 40
1, 155284, Note_on_c, 56
1, 155284, Note_on_c, 59
1, 155284, Note_on_c, 64
1, 155284, Note_on_c, 76
1, 155284, Note_on_c, 73
1, 155284, Note_on_c, 42
1, 155284, Note_on_c, 82
1, 155284, Note_on_c, 76
1, 155284, Note_on_c, 96
1, 155336, Note_off_c, 82
1, 155344, Note_off_c, 96
1, 155344, Note_off_c, 73
1, 155400, Note_off_c, 42
1, 155404, Note_on_c, 64
1, 155404, Note_on_c, 42
1, 155404, Note_on_c, 96
1, 155460, Note_off_c, 96
1, 155464, Note_off_c, 64
1, 155520, Note_off_c, 42
1, 155520, Note_off_c, 76
1, 155520, Note_off_c, 76
1, 155520, Note_off_c, 64
1, 155520, Note_off_c, 59
1, 155520, Note_off_c, 56
1, 155520, Note_off_c, 40
1, 155520, Note_off_c, 64
1, 155520, Note_off_c, 59
1, 155520, Note_off_c, 56
1, 155524, Note_on_c, 54
1, 155524, Note_on_c, 59
1, 155524, Note_on_c, 63
1, 155524, Note_on_c, 54
1, 155524, Note_on_c, 59
1, 155524, Note_on_c, 63
1, 155524, Note_on_c, 75
1, 155524, Note_on_c, 61
1, 155524, Note_on_c, 32
1, 155524, Note_on_c, 36
1, 155524, Note_on_c, 42
1, 155524, Note_on_c, 49
1, 155524, Note_on_c, 75
1, 155524, Note_on_c, 96
1, 155580, Note_off_c, 96
1, 155584, Note_off_c, 61
1, 155640, Note_off_c, 42
1, 155644, Note_on_c, 49
1, 155644, Note_on_c, 96
1, 155700, Note_off_c, 49
1, 155704, Note_off_c, 96
1, 155760, Note_off_c, 75
1, 155760, Note_off_c, 49
1, 155760, Note_off_c, 36
1, 155760, Note_off_c, 32
1, 155760, Note_off_c, 75
1, 155760, Note_off_c, 63
1, 155760, Note_off_c, 59
1, 155760, Note_off_c, 54
1, 155760, Note_off_c, 63
1, 155760, Note_off_c, 59
1, 155760, Note_off_c, 54
1, 155764, Note_on_c, 54
1, 155764, Note_on_c, 59
1, 155764, Note_on_c, 63
1, 155764, Note_on_c, 35
1, 155764, Note_on_c, 54
1, 155764, Note_on_c, 59
1, 155764, Note_on_c, 63
1, 155764, Note_on_c, 75
1, 155764, Note_on_c, 61
1, 155764, Note_on_c, 42
1, 155764, Note_on_c, 82
1, 155764, Note_on_c, 75
1, 155764, Note_on_c, 96
1, 155816, Note_off_c, 82
1, 155820, Note_off_c, 96
1, 155824, Note_off_c, 61
1, 155880, Note_off_c, 42
1, 155884, Note_on_c, 68
1, 155884, Note_on_c, 42
1, 155884, Note_on_c, 96
1, 155940, Note_off_c, 96
1, 155940, Note_off_c, 68
1, 156000, Note_off_c, 42
1, 156000, Note_off_c, 75
1, 156000, Note_off_c, 75
1, 156000, Note_off_c, 63
1, 156000, Note_off_c, 59
1, 156000, Note_off_c, 54
1, 156000, Note_off_c, 35
1, 156000, Note_off_c, 63
1, 156000, Note_off_c, 59
1, 156000, Note_off_c, 54
1, 156004, Note_on_c, 54
1, 156004, Note_on_c, 59
1, 156004, Note_on_c, 63
1, 156004, Note_on_c, 54
1, 156004, Note_on_c, 59
1, 156004, Note_on_c, 63
1, 156004, Note_on_c, 76
1, 156004, Note_on_c, 56
1, 156004, Note_on_c, 32
1, 156004, Note_on_c, 36
1, 156004, Note_on_c, 37
1, 156004, Note_on_c, 42
1, 156004, Note_on_c, 49
1, 156004, Note_on_c, 76
1, 156004, Note_on_c, 96
1, 156060, Note_off_c, 96
1, 156060, Note_off_c, 56
1, 156120, Note_off_c, 42
1, 156124, Note_on_c, 61
1, 156124, Note_on_c, 96
1, 156180, Note_off_c, 96
1, 156184, Note_off_c, 61
1, 156240, Note_off_c, 76
1, 156240, Note_off_c, 49
1, 156240, Note_off_c, 37
1, 156240, Note_off_c, 36
1, 156240, Note_off_c, 32
1, 156240, Note_off_c, 76
1, 156240, Note_off_c, 63
1, 156240, Note_off_c, 59
1, 156240, Note_off_c, 54
1, 156240, Note_off_c, 63
1, 156240, Note_off_c, 59
1, 156240, Note_off_c, 54
1, 156244, Note_on_c, 52
1, 156244, Note_on_c, 57
1, 156244, Note_on_c, 61
1, 156244, Note_on_c, 33
1, 156244, Note_on_c, 52
1, 156244, Note_on_c, 57
1, 156244, Note_on_c, 61
1, 156244, Note_on_c, 76
1, 156244, Note_on_c, 68
1, 156244, Note_on_c, 29
1, 156244, Note_on_c, 42
1, 156244, Note_on_c, 82
1, 156244, Note_on_c, 76
1, 156244, Note_on_c, 96
1, 156300, Note_off_c, 82
1, 156304, Note_off_c, 96
1, 156304, Note_off_c, 68
1, 156360, Note_off_c, 42
1, 156364, Note_on_c, 73
1, 156364, Note_on_c, 42
1, 156364, Note_on_c, 96
1, 156424, Note_off_c, 96
1, 156480, Note_off_c, 42
1, 156480, Note_off_c, 73
1, 156480, Note_off_c, 76
1, 156480, Note_off_c, 29
1, 156480, Note_off_c, 76
1, 156480, Note_off_c, 61
1, 156480, Note_off_c, 57
1, 156480, Note_off_c, 52
1, 156480, Note_off_c, 33
1, 156480, Note_off_c, 61
1, 156480, Note_off_c, 57
1, 156480, Note_off_c, 52
1, 156484, Note_on_c, 73
1, 156484, Note_on_c, 32
1, 156484, Note_on_c, 36
1, 156484, Note_on_c, 42
1, 156484, Note_on_c, 49
1, 156484, Note_on_c, 96
1, 156540, Note_off_c, 96
1, 156540, Note_off_c, 73
1, 156600, Note_off_c, 42
1, 156604, Note_on_c, 68
1, 156604, Note_on_c, 70
1, 156604, Note_on_c, 96
1, 156660, Note_off_c, 96
1, 156660, Note_off_c, 68
1, 156720, Note_off_c, 49
1, 156720, Note_off_c, 36
1, 156720, Note_off_c, 32
1, 156724, Note_on_c, 52
1, 156724, Note_on_c, 57
1, 156724, Note_on_c, 61
1, 156724, Note_on_c, 33
1, 156724, Note_on_c, 52
1, 156724, Note_on_c, 57
1, 156724, Note_on_c, 61
1, 156724, Note_on_c, 85
1, 156724, Note_on_c, 73
1, 156724, Note_on_c, 42
1, 156724, Note_on_c, 82
1, 156724, Note_on_c, 85
1, 156724, Note_on_c, 96
1, 156764, Note_off_c, 82
1, 156780, Note_off_c, 73
1, 156784, Note_off_c, 96
1, 156840, Note_off_c, 42
1, 156840, Note_off_c, 70
1, 156844, Note_on_c, 81
1, 156844, Note_on_c, 42
1, 156844, Note_on_c, 96
1, 156904, Note_off_c, 96
1, 156960, Note_off_c, 42
1, 156960, Note_off_c, 81
1, 156960, Note_off_c, 85
1, 156960, Note_off_c, 85
1, 156960, Note_off_c, 61
1, 156960, Note_off_c, 57
1, 156960, Note_off_c, 52
1, 156960, Note_off_c, 33
1, 156960, Note_off_c, 61
1, 156960, Note_off_c, 57
1, 156960, Note_off_c, 52
1, 156964, Note_on_c, 52
1, 156964, Note_on_c, 57
1, 156964, Note_on_c, 61
1, 156964, Note_on_c, 52
1, 156964, Note_on_c, 57
1, 156964, Note_on_c, 61
1, 156964, Note_on_c, 83
1, 156964, Note_on_c, 73
1, 156964, Note_on_c, 32
1, 156964, Note_on_c, 36
1, 156964, Note_on_c, 37
1, 156964, Note_on_c, 42
1, 156964, Note_on_c, 49
1, 156964, Note_on_c, 83
1, 156964, Note_on_c, 96
1, 157024, Note_off_c, 96
1, 157024, Note_off_c, 73
1, 157080, Note_off_c, 42
1, 157084, Note_on_c, 68
1, 157084, Note_on_c, 96
1, 157140, Note_off_c, 96
1, 157200, Note_off_c, 68
1, 157200, Note_off_c, 83
1, 157200, Note_off_c, 49
1, 157200, Note_off_c, 37
1, 157200, Note_off_c, 36
1, 157200, Note_off_c, 32
1, 157200, Note_off_c, 83
1, 157200, Note_off_c, 61
1, 157200, Note_off_c, 57
1, 157200, Note_off_c, 52
1, 157200, Note_off_c, 61
1, 157200, Note_off_c, 57
1, 157200, Note_off_c, 52
1, 157204, Note_on_c, 52
1, 157204, Note_on_c, 57
1, 157204, Note_on_c, 61
1, 157204, Note_on_c, 33
1, 157204, Note_on_c, 52
1, 157204, Note_on_c, 57
1, 157204, Note_on_c, 61
1, 157204, Note_on_c, 80
1, 157204, Note_on_c, 73
1, 157204, Note_on_c, 42
1, 157204, Note_on_c, 82
1, 157204, Note_on_c, 80
1, 157204, Note_on_c, 96
1, 157244, Note_off_c, 82
1, 157260, Note_off_c, 96
1, 157264, Note_off_c, 73
1, 157320, Note_off_c, 42
1, 157324, Note_on_c, 64
1, 157324, Note_on_c, 42
1, 157324, Note_on_c, 96
1, 157380, Note_off_c, 96
1, 157384, Note_off_c, 64
1, 157440, Note_off_c, 42
1, 157440, Note_off_c, 80
1, 157440, Note_off_c, 80
1, 157440, Note_off_c, 61
1, 157440, Note_off_c, 57
1, 157440, Note_off_c, 52
1, 157440, Note_off_c, 33
1, 157440, Note_off_c, 61
1, 157440, Note_off_c, 57
1, 157440, Note_off_c, 52
1, 157444, Note_on_c, 56
1, 157444, Note_on_c, 61
1, 157444, Note_on_c, 66
1, 157444, Note_on_c, 56
1, 157444, Note_on_c, 61
1, 157444, Note_on_c, 66
1, 157444, Note_on_c, 78
1, 157444, Note_on_c, 61
1, 157444, Note_on_c, 32
1, 157444, Note_on_c, 36
1, 157444, Note_on_c, 42
1, 157444, Note_on_c, 78
1, 157444, Note_on_c, 96
1, 157504, Note_off_c, 96
1, 157504, Note_off_c, 61
1, 157560, Note_off_c, 42
1, 157564, Note_on_c, 49
1, 157564, Note_on_c, 96
1, 157620, Note_off_c, 49
1, 157624, Note_off_c, 96
1, 157680, Note_off_c, 78
1, 157680, Note_off_c, 36
1, 157680, Note_off_c, 32
1, 157680, Note_off_c, 78
1, 157680, Note_off_c, 66
1, 157680, Note_off_c, 61
1, 157680, Note_off_c, 56
1, 157680, Note_off_c, 66
1, 157680, Note_off_c, 61
1, 157680, Note_off_c, 56
1, 157684, Note_on_c, 56
1, 157684, Note_on_c, 61
1, 157684, Note_on_c, 64
1, 157684, Note_on_c, 37
1, 157684, Note_on_c, 56
1, 157684, Note_on_c, 61
1, 157684, Note_on_c, 64
1, 157684, Note_on_c, 76
1, 157684, Note_on_c, 61
1, 157684, Note_on_c, 42
1, 157684, Note_on_c, 82
1, 157684, Note_on_c, 76
1, 157684, Note_on_c, 96
1, 157732, Note_off_c, 82
1, 157740, Note_off_c, 96
1, 157744, Note_off_c, 61
1, 157800, Note_off_c, 42
1, 157804, Note_on_c, 68
1, 157804, Note_on_c, 42
1, 157804, Note_on_c, 96
1, 157860, Note_off_c, 68
1, 157864, Note_off_c, 96
1, 157920, Note_off_c, 42
1, 157920, Note_off_c, 76
1, 157920, Note_off_c, 76
1, 157920, Note_off_c, 64
1, 157920, Note_off_c, 61
1, 157920, Note_off_c, 56
1, 157920, Note_off_c, 37
1, 157920, Note_off_c, 64
1, 157920, Note_off_c, 61
1, 157920, Note_off_c, 56
1, 157924, Note_on_c, 56
1, 157924, Note_on_c, 61
1, 157924, Note_on_c, 64
1, 157924, Note_on_c, 56
1, 157924, Note_on_c, 61
1, 157924, Note_on_c, 64
1, 157924, Note_on_c, 76
1, 157924, Note_on_c, 56
1, 157924, Note_on_c, 32
1, 157924, Note_on_c, 36
1, 157924, Note_on_c, 37
1, 157924, Note_on_c, 42
1, 157924, Note_on_c, 76
1, 157924, Note_on_c, 96
1, 157980, Note_off_c, 96
1, 157980, Note_off_c, 56
1, 158040, Note_off_c, 42
1, 158044, Note_on_c, 61
1, 158044, Note_on_c, 96
1, 158104, Note_off_c, 96
1, 158104, Note_off_c, 61
1, 158160, Note_off_c, 76
1, 158160, Note_off_c, 37
1, 158160, Note_off_c, 36
1, 158160, Note_off_c, 32
1, 158160, Note_off_c, 76
1, 158160, Note_off_c, 64
1, 158160, Note_off_c, 61
1, 158160, Note_off_c, 56
1, 158160, Note_off_c, 64
1, 158160, Note_off_c, 61
1, 158160, Note_off_c, 56
1, 158164, Note_on_c, 68
1, 158164, Note_on_c, 42
1, 158164, Note_on_c, 82
1, 158164, Note_on_c, 96
1, 158216, Note_off_c, 82
1, 158220, Note_off_c, 96
1, 158224, Note_off_c, 68
1, 158280, Note_off_c, 42
1, 158284, Note_on_c, 73
1, 158284, Note_on_c, 42
1, 158284, Note_on_c, 96
1, 158340, Note_off_c, 96
1, 158400, Note_off_c, 42
1, 158400, Note_off_c, 73
1, 158404, Note_on_c, 56
1, 158404, Note_on_c, 59
1, 158404, Note_on_c, 64
1, 158404, Note_on_c, 56
1, 158404, Note_on_c, 59
1, 158404, Note_on_c, 64
1, 158404, Note_on_c, 76
1, 158404, Note_on_c, 73
1, 158404, Note_on_c, 32
1, 158404, Note_on_c, 36
1, 158404, Note_on_c, 42
1, 158404, Note_on_c, 76
1, 158404, Note_on_c, 96
1, 158460, Note_off_c, 96
1, 158460, Note_off_c, 73
1, 158520, Note_off_c, 42
1, 158524, Note_on_c, 68
1, 158524, Note_on_c, 96
1, 158580, Note_off_c, 68
1, 158584, Note_off_c, 96
1, 158640, Note_off_c, 76
1, 158640, Note_off_c, 36
1, 158640, Note_off_c, 32
1, 158640, Note_off_c, 76
1, 158640, Note_off_c, 64
1, 158640, Note_off_c, 59
1, 158640, Note_off_c, 56
1, 158640, Note_off_c, 64
1, 158640, Note_off_c, 59
1, 158640, Note_off_c, 56
1, 158644, Note_on_c, 56
1, 158644, Note_on_c, 59
1, 158644, Note_on_c, 64
1, 158644, Note_on_c, 40
1, 158644, Note_on_c, 56
1, 158644, Note_on_c, 59
1, 158644, Note_on_c, 64
1, 158644, Note_on_c, 76
1, 158644, Note_on_c, 73
1, 158644, Note_on_c, 42
1, 158644, Note_on_c, 82
1, 158644, Note_on_c, 76
1, 158644, Note_on_c, 96
1, 158692, Note_off_c, 82
1, 158700, Note_off_c, 73
1, 158704, Note_off_c, 96
1, 158760, Note_off_c, 42
1, 158764, Note_on_c, 81
1, 158764, Note_on_c, 42
1, 158764, Note_on_c, 96
1, 158824, Note_off_c, 96
1, 158880, Note_off_c, 42
1, 158880, Note_off_c, 81
1, 158880, Note_off_c, 76
1, 158880, Note_off_c, 76
1, 158880, Note_off_c, 64
1, 158880, Note_off_c, 59
1, 158880, Note_off_c, 56
1, 158880, Note_off_c, 40
1, 158880, Note_off_c, 64
1, 158880, Note_off_c, 59
1, 158880, Note_off_c, 56
1, 158884, Note_on_c, 56
1, 158884, Note_on_c, 59
1, 158884, Note_on_c, 64
1, 158884, Note_on_c, 56
1, 158884, Note_on_c, 59
1, 158884, Note_on_c, 64
1, 158884, Note_on_c, 76
1, 158884, Note_on_c, 73
1, 158884, Note_on_c, 32
1, 158884, Note_on_c, 36
1, 158884, Note_on_c, 37
1, 158884, Note_on_c, 42
1, 158884, Note_on_c, 76
1, 158884, Note_on_c, 96
1, 158944, Note_off_c, 96
1, 158944, Note_off_c, 73
1, 159000, Note_off_c, 42
1, 159004, Note_on_c, 68
1, 159004, Note_on_c, 96
1, 159060, Note_off_c, 96
1, 159120, Note_off_c, 68
1, 159120, Note_off_c, 76
1, 159120, Note_off_c, 37
1, 159120, Note_off_c, 36
1, 159120, Note_off_c, 32
1, 159120, Note_off_c, 76
1, 159120, Note_off_c, 64
1, 159120, Note_off_c, 59
1, 159120, Note_off_c, 56
1, 159120, Note_off_c, 64
1, 159120, Note_off_c, 59
1, 159120, Note_off_c, 56
1, 159124, Note_on_c, 56
1, 159124, Note_on_c, 59
1, 159124, Note_on_c, 64
1, 159124, Note_on_c, 40
1, 159124, Note_on_c, 56
1, 159124, Note_on_c, 59
1, 159124, Note_on_c, 64
1, 159124, Note_on_c, 76
1, 159124, Note_on_c, 73
1, 159124, Note_on_c, 42
1, 159124, Note_on_c, 82
1, 159124, Note_on_c, 76
1, 159124, Note_on_c, 96
1, 159164, Note_off_c, 82
1, 159184, Note_off_c, 96
1, 159184, Note_off_c, 73
1, 159240, Note_off_c, 42
1, 159244, Note_on_c, 64
1, 159244, Note_on_c, 42
1, 159244, Note_on_c, 96
1, 159300, Note_off_c, 96
1, 159304, Note_off_c, 64
1, 159360, Note_off_c, 42
1, 159360, Note_off_c, 76
1, 159360, Note_off_c, 76
1, 159360, Note_off_c, 64
1, 159360, Note_off_c, 59
1, 159360, Note_off_c, 56
1, 159360, Note_off_c, 40
1, 159360, Note_off_c, 64
1, 159360, Note_off_c, 59
1, 159360, Note_off_c, 56
1, 159364, Note_on_c, 54
1, 159364, Note_on_c, 59
1, 159364, Note_on_c, 63
1, 159364, Note_on_c, 54
1, 159364, Note_on_c, 59
1, 159364, Note_on_c, 63
1, 159364, Note_on_c, 73
1, 159364, Note_on_c, 61
1, 159364, Note_on_c, 32
1, 159364, Note_on_c, 36
1, 159364, Note_on_c, 42
1, 159364, Note_on_c, 73
1, 159364, Note_on_c, 96
1, 159420, Note_off_c, 96
1, 159424, Note_off_c, 61
1, 159480, Note_off_c, 42
1, 159484, Note_on_c, 49
1, 159484, Note_on_c, 96
1, 159540, Note_off_c, 49
1, 159544, Note_off_c, 96
1, 159600, Note_off_c, 73
1, 159600, Note_off_c, 36
1, 159600, Note_off_c, 32
1, 159600, Note_off_c, 73
1, 159600, Note_off_c, 63
1, 159600, Note_off_c, 59
1, 159600, Note_off_c, 54
1, 159600, Note_off_c, 63
1, 159600, Note_off_c, 59
1, 159600, Note_off_c, 54
1, 159604, Note_on_c, 54
1, 159604, Note_on_c, 59
1, 159604, Note_on_c, 63
1, 159604, Note_on_c, 35
1, 159604, Note_on_c, 54
1, 159604, Note_on_c, 59
1, 159604, Note_on_c, 63
1, 159604, Note_on_c, 73
1, 159604, Note_on_c, 61
1, 159604, Note_on_c, 42
1, 159604, Note_on_c, 82
1, 159604, Note_on_c, 73
1, 159604, Note_on_c, 96
1, 159648, Note_off_c, 82
1, 159660, Note_off_c, 96
1, 159664, Note_off_c, 61
1, 159720, Note_off_c, 42
1, 159724, Note_on_c, 68
1, 159724, Note_on_c, 42
1, 159724, Note_on_c, 96
1, 159780, Note_off_c, 96
1, 159780, Note_off_c, 68
1, 159840, Note_off_c, 42
1, 159840, Note_off_c, 73
1, 159840, Note_off_c, 73
1, 159840, Note_off_c, 63
1, 159840, Note_off_c, 59
1, 159840, Note_off_c, 54
1, 159840, Note_off_c, 35
1, 159840, Note_off_c, 63
1, 159840, Note_off_c, 59
1, 159840, Note_off_c, 54
1, 159844, Note_on_c, 54
1, 159844, Note_on_c, 59
1, 159844, Note_on_c, 63
1, 159844, Note_on_c, 54
1, 159844, Note_on_c, 59
1, 159844, Note_on_c, 63
1, 159844, Note_on_c, 71
1, 159844, Note_on_c, 56
1, 159844, Note_on_c, 32
1, 159844, Note_on_c, 36
1, 159844, Note_on_c, 37
1, 159844, Note_on_c, 42
1, 159844, Note_on_c, 71
1, 159844, Note_on_c, 96
1, 159900, Note_off_c, 96
1, 159900, Note_off_c, 56
1, 159960, Note_off_c, 42
1, 159964, Note_on_c, 61
1, 159964, Note_on_c, 96
1, 160020, Note_off_c, 96
1, 160024, Note_off_c, 61
1, 160080, Note_off_c, 71
1, 160080, Note_off_c, 37
1, 160080, Note_off_c, 36
1, 160080, Note_off_c, 32
1, 160080, Note_off_c, 71
1, 160080, Note_off_c, 63
1, 160080, Note_off_c, 59
1, 160080, Note_off_c, 54
1, 160080, Note_off_c, 63
1, 160080, Note_off_c, 59
1, 160080, Note_off_c, 54
1, 160084, Note_on_c, 52
1, 160084, Note_on_c, 57
1, 160084, Note_on_c, 61
1, 160084, Note_on_c, 33
1, 160084, Note_on_c, 52
1, 160084, Note_on_c, 57
1, 160084, Note_on_c, 61
1, 160084, Note_on_c, 71
1, 160084, Note_on_c, 68
1, 160084, Note_on_c, 29
1, 160084, Note_on_c, 42
1, 160084, Note_on_c, 82
1, 160084, Note_on_c, 71
1, 160084, Note_on_c, 96
1, 160124, Note_off_c, 82
1, 160144, Note_off_c, 96
1, 160144, Note_off_c, 68
1, 160200, Note_off_c, 42
1, 160204, Note_on_c, 73
1, 160204, Note_on_c, 42
1, 160204, Note_on_c, 96
1, 160264, Note_off_c, 96
1, 160320, Note_off_c, 42
1, 160320, Note_off_c, 73
1, 160320, Note_off_c, 71
1, 160320, Note_off_c, 29
1, 160320, Note_off_c, 71
1, 160320, Note_off_c, 61
1, 160320, Note_off_c, 57
1, 160320, Note_off_c, 52
1, 160320, Note_off_c, 33
1, 160320, Note_off_c, 61
1, 160320, Note_off_c, 57
1, 160320, Note_off_c, 52
1, 160324, Note_on_c, 73
1, 160324, Note_on_c, 32
1, 160324, Note_on_c, 36
1, 160324, Note_on_c, 42
1, 160324, Note_on_c, 96
1, 160380, Note_off_c, 96
1, 160380, Note_off_c, 73
1, 160440, Note_off_c, 42
1, 160444, Note_on_c, 68
1, 160444, Note_on_c, 70
1, 160444, Note_on_c, 96
1, 160500, Note_off_c, 96
1, 160500, Note_off_c, 68
1, 160560, Note_off_c, 36
1, 160560, Note_off_c, 32
1, 160564, Note_on_c, 52
1, 160564, Note_on_c, 57
1, 160564, Note_on_c, 61
1, 160564, Note_on_c, 33
1, 160564, Note_on_c, 52
1, 160564, Note_on_c, 57
1, 160564, Note_on_c, 61
1, 160564, Note_on_c, 85
1, 160564, Note_on_c, 73
1, 160564, Note_on_c, 42
1, 160564, Note_on_c, 82
1, 160564, Note_on_c, 85
1, 160564, Note_on_c, 96
1, 160604, Note_off_c, 82
1, 160620, Note_off_c, 73
1, 160624, Note_off_c, 96
1, 160680, Note_off_c, 42
1, 160680, Note_off_c, 70
1, 160684, Note_on_c, 81
1, 160684, Note_on_c, 42
1, 160684, Note_on_c, 96
1, 160744, Note_off_c, 96
1, 160800, Note_off_c, 42
1, 160800, Note_off_c, 81
1, 160800, Note_off_c, 85
1, 160800, Note_off_c, 85
1, 160800, Note_off_c, 61
1, 160800, Note_off_c, 57
1, 160800, Note_off_c, 52
1, 160800, Note_off_c, 33
1, 160800, Note_off_c, 61
1, 160800, Note_off_c, 57
1, 160800, Note_off_c, 52
1, 160804, Note_on_c, 52
1, 160804, Note_on_c, 57
1, 160804, Note_on_c, 61
1, 160804, Note_on_c, 52
1, 160804, Note_on_c, 57
1, 160804, Note_on_c, 61
1, 160804, Note_on_c, 83
1, 160804, Note_on_c, 73
1, 160804, Note_on_c, 32
1, 160804, Note_on_c, 36
1, 160804, Note_on_c, 37
1, 160804, Note_on_c, 42
1, 160804, Note_on_c, 83
1, 160804, Note_on_c, 96
1, 160864, Note_off_c, 96
1, 160864, Note_off_c, 73
1, 160920, Note_off_c, 42
1, 160924, Note_on_c, 68
1, 160924, Note_on_c, 96
1, 160980, Note_off_c, 96
1, 161040, Note_off_c, 68
1, 161040, Note_off_c, 83
1, 161040, Note_off_c, 37
1, 161040, Note_off_c, 36
1, 161040, Note_off_c, 32
1, 161040, Note_off_c, 83
1, 161040, Note_off_c, 61
1, 161040, Note_off_c, 57
1, 161040, Note_off_c, 52
1, 161040, Note_off_c, 61
1, 161040, Note_off_c, 57
1, 161040, Note_off_c, 52
1, 161044, Note_on_c, 52
1, 161044, Note_on_c, 57
1, 161044, Note_on_c, 61
1, 161044, Note_on_c, 33
1, 161044, Note_on_c, 52
1, 161044, Note_on_c, 57
1, 161044, Note_on_c, 61
1, 161044, Note_on_c, 80
1, 161044, Note_on_c, 73
1, 161044, Note_on_c, 42
1, 161044, Note_on_c, 82
1, 161044, Note_on_c, 80
1, 161044, Note_on_c, 96
1, 161084, Note_off_c, 82
1, 161100, Note_off_c, 96
1, 161104, Note_off_c, 73
1, 161160, Note_off_c, 42
1, 161164, Note_on_c, 64
1, 161164, Note_on_c, 42
1, 161164, Note_on_c, 96
1, 161220, Note_off_c, 96
1, 161224, Note_off_c, 64
1, 161280, Note_off_c, 42
1, 161280, Note_off_c, 80
1, 161280, Note_off_c, 80
1, 161280, Note_off_c, 61
1, 161280, Note_off_c, 57
1, 161280, Note_off_c, 52
1, 161280, Note_off_c, 33
1, 161280, Note_off_c, 61
1, 161280, Note_off_c, 57
1, 161280, Note_off_c, 52
1, 161284, Note_on_c, 56
1, 161284, Note_on_c, 61
1, 161284, Note_on_c, 66
1, 161284, Note_on_c, 56
1, 161284, Note_on_c, 61
1, 161284, Note_on_c, 66
1, 161284, Note_on_c, 78
1, 161284, Note_on_c, 61
1, 161284, Note_on_c, 32
1, 161284, Note_on_c, 36
1, 161284, Note_on_c, 42
1, 161284, Note_on_c, 78
1, 161284, Note_on_c, 96
1, 161344, Note_off_c, 96
1, 161344, Note_off_c, 61
1, 161400, Note_off_c, 42
1, 161404, Note_on_c, 49
1, 161404, Note_on_c, 96
1, 161460, Note_off_c, 49
1, 161464, Note_off_c, 96
1, 161520, Note_off_c, 78
1, 161520, Note_off_c, 36
1, 161520, Note_off_c, 32
1, 161520, Note_off_c, 78
1, 161520, Note_off_c, 66
1, 161520, Note_off_c, 61
1, 161520, Note_off_c, 56
1, 161520, Note_off_c, 66
1, 161520, Note_off_c, 61
1, 161520, Note_off_c, 56
1, 161524, Note_on_c, 56
1, 161524, Note_on_c, 61
1, 161524, Note_on_c, 64
1, 161524, Note_on_c, 37
1, 161524, Note_on_c, 56
1, 161524, Note_on_c, 61
1, 161524, Note_on_c, 64
1, 161524, Note_on_c, 76
1, 161524, Note_on_c, 61
1, 161524, Note_on_c, 42
1, 161524, Note_on_c, 82
1, 161524, Note_on_c, 76
1, 161524, Note_on_c, 96
1, 161556, Note_off_c, 82
1, 161580, Note_off_c, 96
1, 161584, Note_off_c, 61
1, 161640, Note_off_c, 42
1, 161644, Note_on_c, 68
1, 161644, Note_on_c, 42
1, 161644, Note_on_c, 96
1, 161700, Note_off_c, 68
1, 161704, Note_off_c, 96
1, 161760, Note_off_c, 42
1, 161760, Note_off_c, 76
1, 161760, Note_off_c, 76
1, 161760, Note_off_c, 64
1, 161760, Note_off_c, 61
1, 161760, Note_off_c, 56
1, 161760, Note_off_c, 37
1, 161760, Note_off_c, 64
1, 161760, Note_off_c, 61
1, 161760, Note_off_c, 56
1, 161764, Note_on_c, 56
1, 161764, Note_on_c, 61
1, 161764, Note_on_c, 64
1, 161764, Note_on_c, 56
1, 161764, Note_on_c, 61
1, 161764, Note_on_c, 64
1, 161764, Note_on_c, 76
1, 161764, Note_on_c, 56
1, 161764, Note_on_c, 32
1, 161764, Note_on_c, 36
1, 161764, Note_on_c, 37
1, 161764, Note_on_c, 42
1, 161764, Note_on_c, 76
1, 161764, Note_on_c, 96
1, 161820, Note_off_c, 96
1, 161820, Note_off_c, 56
1, 161880, Note_off_c, 42
1, 161884, Note_on_c, 61
1, 161884, Note_on_c, 96
1, 161944, Note_off_c, 96
1, 161944, Note_off_c, 61
1, 162000, Note_off_c, 76
1, 162000, Note_off_c, 37
1, 162000, Note_off_c, 36
1, 162000, Note_off_c, 32
1, 162000, Note_off_c, 76
1, 162000, Note_off_c, 64
1, 162000, Note_off_c, 61
1, 162000, Note_off_c, 56
1, 162000, Note_off_c, 64
1, 162000, Note_off_c, 61
1, 162000, Note_off_c, 56
1, 162004, Note_on_c, 68
1, 162004, Note_on_c, 42
1, 162004, Note_on_c, 82
1, 162004, Note_on_c, 96
1, 162040, Note_off_c, 82
1, 162060, Note_off_c, 96
1, 162064, Note_off_c, 68
1, 162120, Note_off_c, 42
1, 162124, Note_on_c, 73
1, 162124, Note_on_c, 42
1, 162124, Note_on_c, 96
1, 162180, Note_off_c, 96
1, 162240, Note_off_c, 42
1, 162240, Note_off_c, 73
1, 162244, Note_on_c, 56
1, 162244, Note_on_c, 59
1, 162244, Note_on_c, 64
1, 162244, Note_on_c, 56
1, 162244, Note_on_c, 59
1, 162244, Note_on_c, 64
1, 162244, Note_on_c, 76
1, 162244, Note_on_c, 73
1, 162244, Note_on_c, 32
1, 162244, Note_on_c, 36
1, 162244, Note_on_c, 42
1, 162244, Note_on_c, 76
1, 162244, Note_on_c, 96
1, 162300, Note_off_c, 96
1, 162300, Note_off_c, 73
1, 162360, Note_off_c, 42
1, 162364, Note_on_c, 68
1, 162364, Note_on_c, 96
1, 162420, Note_off_c, 68
1, 162424, Note_off_c, 96
1, 162480, Note_off_c, 76
1, 162480, Note_off_c, 36
1, 162480, Note_off_c, 32
1, 162480, Note_off_c, 76
1, 162480, Note_off_c, 64
1, 162480, Note_off_c, 59
1, 162480, Note_off_c, 56
1, 162480, Note_off_c, 64
1, 162480, Note_off_c, 59
1, 162480, Note_off_c, 56
1, 162484, Note_on_c, 56
1, 162484, Note_on_c, 59
1, 162484, Note_on_c, 64
1, 162484, Note_on_c, 40
1, 162484, Note_on_c, 56
1, 162484, Note_on_c, 59
1, 162484, Note_on_c, 64
1, 162484, Note_on_c, 76
1, 162484, Note_on_c, 73
1, 162484, Note_on_c, 42
1, 162484, Note_on_c, 82
1, 162484, Note_on_c, 76
1, 162484, Note_on_c, 96
1, 162532, Note_off_c, 82
1, 162540, Note_off_c, 73
1, 162544, Note_off_c, 96
1, 162600, Note_off_c, 42
1, 162604, Note_on_c, 81
1, 162604, Note_on_c, 42
1, 162604, Note_on_c, 96
1, 162664, Note_off_c, 96
1, 162720, Note_off_c, 42
1, 162720, Note_off_c, 81
1, 162720, Note_off_c, 76
1, 162720, Note_off_c, 76
1, 162720, Note_off_c, 64
1, 162720, Note_off_c, 59
1, 162720, Note_off_c, 56
1, 162720, Note_off_c, 40
1, 162720, Note_off_c, 64
1, 162720, Note_off_c, 59
1, 162720, Note_off_c, 56
1, 162724, Note_on_c, 56
1, 162724, Note_on_c, 59
1, 162724, Note_on_c, 64
1, 162724, Note_on_c, 56
1, 162724, Note_on_c, 59
1, 162724, Note_on_c, 64
1, 162724, Note_on_c, 76
1, 162724, Note_on_c, 73
1, 162724, Note_on_c, 32
1, 162724, Note_on_c, 36
1, 162724, Note_on_c, 37
1, 162724, Note_on_c, 42
1, 162724, Note_on_c, 76
1, 162724, Note_on_c, 96
1, 162784, Note_off_c, 96
1, 162784, Note_off_c, 73
1, 162840, Note_off_c, 42
1, 162844, Note_on_c, 68
1, 162844, Note_on_c, 96
1, 162900, Note_off_c, 96
1, 162960, Note_off_c, 68
1, 162960, Note_off_c, 76
1, 162960, Note_off_c, 37
1, 162960, Note_off_c, 36
1, 162960, Note_off_c, 32
1, 162960, Note_off_c, 76
1, 162960, Note_off_c, 64
1, 162960, Note_off_c, 59
1, 162960, Note_off_c, 56
1, 162960, Note_off_c, 64
1, 162960, Note_off_c, 59
1, 162960, Note_off_c, 56
1, 162964, Note_on_c, 56
1, 162964, Note_on_c, 59
1, 162964, Note_on_c, 64
1, 162964, Note_on_c, 40
1, 162964, Note_on_c, 56
1, 162964, Note_on_c, 59
1, 162964, Note_on_c, 64
1, 162964, Note_on_c, 76
1, 162964, Note_on_c, 73
1, 162964, Note_on_c, 42
1, 162964, Note_on_c, 82
1, 162964, Note_on_c, 76
1, 162964, Note_on_c, 96
1, 163016, Note_off_c, 82
1, 163024, Note_off_c, 96
1, 163024, Note_off_c, 73
1, 163080, Note_off_c, 42
1, 163084, Note_on_c, 64
1, 163084, Note_on_c, 42
1, 163084, Note_on_c, 96
1, 163140, Note_off_c, 96
1, 163144, Note_off_c, 64
1, 163200, Note_off_c, 42
1, 163200, Note_off_c, 76
1, 163200, Note_off_c, 76
1, 163200, Note_off_c, 64
1, 163200, Note_off_c, 59
1, 163200, Note_off_c, 56
1, 163200, Note_off_c, 40
1, 163200, Note_off_c, 64
1, 163200, Note_off_c, 59
1, 163200, Note_off_c, 56
1, 163204, Note_on_c, 54
1, 163204, Note_on_c, 59
1, 163204, Note_on_c, 63
1, 163204, Note_on_c, 54
1, 163204, Note_on_c, 59
1, 163204, Note_on_c, 63
1, 163204, Note_on_c, 75
1, 163204, Note_on_c, 61
1, 163204, Note_on_c, 32
1, 163204, Note_on_c, 36
1, 163204, Note_on_c, 42
1, 163204, Note_on_c, 75
1, 163204, Note_on_c, 96
1, 163260, Note_off_c, 96
1, 163264, Note_off_c, 61
1, 163320, Note_off_c, 42
1, 163324, Note_on_c, 49
1, 163324, Note_on_c, 96
1, 163380, Note_off_c, 49
1, 163384, Note_off_c, 96
1, 163440, Note_off_c, 75
1, 163440, Note_off_c, 36
1, 163440, Note_off_c, 32
1, 163440, Note_off_c, 75
1, 163440, Note_off_c, 63
1, 163440, Note_off_c, 59
1, 163440, Note_off_c, 54
1, 163440, Note_off_c, 63
1, 163440, Note_off_c, 59
1, 163440, Note_off_c, 54
1, 163444, Note_on_c, 54
1, 163444, Note_on_c, 59
1, 163444, Note_on_c, 63
1, 163444, Note_on_c, 35
1, 163444, Note_on_c, 54
1, 163444, Note_on_c, 59
1, 163444, Note_on_c, 63
1, 163444, Note_on_c, 75
1, 163444, Note_on_c, 61
1, 163444, Note_on_c, 42
1, 163444, Note_on_c, 82
1, 163444, Note_on_c, 75
1, 163444, Note_on_c, 96
1, 163496, Note_off_c, 82
1, 163500, Note_off_c, 96
1, 163504, Note_off_c, 61
1, 163560, Note_off_c, 42
1, 163564, Note_on_c, 68
1, 163564, Note_on_c, 42
1, 163564, Note_on_c, 96
1, 163620, Note_off_c, 96
1, 163620, Note_off_c, 68
1, 163680, Note_off_c, 42
1, 163680, Note_off_c, 75
1, 163680, Note_off_c, 75
1, 163680, Note_off_c, 63
1, 163680, Note_off_c, 59
1, 163680, Note_off_c, 54
1, 163680, Note_off_c, 35
1, 163680, Note_off_c, 63
1, 163680, Note_off_c, 59
1, 163680, Note_off_c, 54
1, 163684, Note_on_c, 54
1, 163684, Note_on_c, 59
1, 163684, Note_on_c, 63
1, 163684, Note_on_c, 54
1, 163684, Note_on_c, 59
1, 163684, Note_on_c, 63
1, 163684, Note_on_c, 76
1, 163684, Note_on_c, 56
1, 163684, Note_on_c, 32
1, 163684, Note_on_c, 36
1, 163684, Note_on_c, 37
1, 163684, Note_on_c, 42
1, 163684, Note_on_c, 76
1, 163684, Note_on_c, 96
1, 163740, Note_off_c, 96
1, 163740, Note_off_c, 56
1, 163800, Note_off_c, 42
1, 163804, Note_on_c, 61
1, 163804, Note_on_c, 96
1, 163860, Note_off_c, 96
1, 163864, Note_off_c, 61
1, 163920, Note_off_c, 76
1, 163920, Note_off_c, 37
1, 163920, Note_off_c, 36
1, 163920, Note_off_c, 32
1, 163920, Note_off_c, 76
1, 163920, Note_off_c, 63
1, 163920, Note_off_c, 59
1, 163920, Note_off_c, 54
1, 163920, Note_off_c, 63
1, 163920, Note_off_c, 59
1, 163920, Note_off_c, 54
1, 163924, Note_on_c, 52
1, 163924, Note_on_c, 57
1, 163924, Note_on_c, 61
1, 163924, Note_on_c, 33
1, 163924, Note_on_c, 52
1, 163924, Note_on_c, 57
1, 163924, Note_on_c, 61
1, 163924, Note_on_c, 76
1, 163924, Note_on_c, 68
1, 163924, Note_on_c, 29
1, 163924, Note_on_c, 42
1, 163924, Note_on_c, 82
1, 163924, Note_on_c, 76
1, 163924, Note_on_c, 96
1, 163980, Note_off_c, 82
1, 163984, Note_off_c, 96
1, 163984, Note_off_c, 68
1, 164040, Note_off_c, 42
1, 164044, Note_on_c, 73
1, 164044, Note_on_c, 42
1, 164044, Note_on_c, 96
1, 164104, Note_off_c, 96
1, 164160, Note_off_c, 42
1, 164160, Note_off_c, 73
1, 164160, Note_off_c, 76
1, 164160, Note_off_c, 29
1, 164160, Note_off_c, 76
1, 164160, Note_off_c, 61
1, 164160, Note_off_c, 57
1, 164160, Note_off_c, 52
1, 164160, Note_off_c, 33
1, 164160, Note_off_c, 61
1, 164160, Note_off_c, 57
1, 164160, Note_off_c, 52
1, 164164, Note_on_c, 73
1, 164164, Note_on_c, 32
1, 164164, Note_on_c, 36
1, 164164, Note_on_c, 42
1, 164164, Note_on_c, 96
1, 164220, Note_off_c, 96
1, 164220, Note_off_c, 73
1, 164280, Note_off_c, 42
1, 164284, Note_on_c, 68
1, 164284, Note_on_c, 70
1, 164284, Note_on_c, 96
1, 164340, Note_off_c, 96
1, 164340, Note_off_c, 68
1, 164400, Note_off_c, 36
1, 164400, Note_off_c, 32
1, 164404, Note_on_c, 52
1, 164404, Note_on_c, 57
1, 164404, Note_on_c, 61
1, 164404, Note_on_c, 33
1, 164404, Note_on_c, 52
1, 164404, Note_on_c, 57
1, 164404, Note_on_c, 61
1, 164404, Note_on_c, 85
1, 164404, Note_on_c, 73
1, 164404, Note_on_c, 42
1, 164404, Note_on_c, 82
1, 164404, Note_on_c, 85
1, 164404, Note_on_c, 96
1, 164444, Note_off_c, 82
1, 164460, Note_off_c, 73
1, 164464, Note_off_c, 96
1, 164520, Note_off_c, 42
1, 164520, Note_off_c, 70
1, 164524, Note_on_c, 81
1, 164524, Note_on_c, 42
1, 164524, Note_on_c, 96
1, 164584, Note_off_c, 96
1, 164640, Note_off_c, 42
1, 164640, Note_off_c, 81
1, 164640, Note_off_c, 85
1, 164640, Note_off_c, 85
1, 164640, Note_off_c, 61
1, 164640, Note_off_c, 57
1, 164640, Note_off_c, 52
1, 164640, Note_off_c, 33
1, 164640, Note_off_c, 61
1, 164640, Note_off_c, 57
1, 164640, Note_off_c, 52
1, 164644, Note_on_c, 52
1, 164644, Note_on_c, 57
1, 164644, Note_on_c, 61
1, 164644, Note_on_c, 52
1, 164644, Note_on_c, 57
1, 164644, Note_on_c, 61
1, 164644, Note_on_c, 83
1, 164644, Note_on_c, 73
1, 164644, Note_on_c, 32
1, 164644, Note_on_c, 36
1, 164644, Note_on_c, 37
1, 164644, Note_on_c, 42
1, 164644, Note_on_c, 83
1, 164644, Note_on_c, 96
1, 164704, Note_off_c, 96
1, 164704, Note_off_c, 73
1, 164760, Note_off_c, 42
1, 164764, Note_on_c, 68
1, 164764, Note_on_c, 96
1, 164820, Note_off_c, 96
1, 164880, Note_off_c, 68
1, 164880, Note_off_c, 83
1, 164880, Note_off_c, 37
1, 164880, Note_off_c, 36
1, 164880, Note_off_c, 32
1, 164880, Note_off_c, 83
1, 164880, Note_off_c, 61
1, 164880, Note_off_c, 57
1, 164880, Note_off_c, 52
1, 164880, Note_off_c, 61
1, 164880, Note_off_c, 57
1, 164880, Note_off_c, 52
1, 164884, Note_on_c, 52
1, 164884, Note_on_c, 57
1, 164884, Note_on_c, 61
1, 164884, Note_on_c, 33
1, 164884, Note_on_c, 52
1, 164884, Note_on_c, 57
1, 164884, Note_on_c, 61
1, 164884, Note_on_c, 80
1, 164884, Note_on_c, 73
1, 164884, Note_on_c, 42
1, 164884, Note_on_c, 82
1, 164884, Note_on_c, 80
1, 164884, Note_on_c, 96
1, 164924, Note_off_c, 82
1, 164940, Note_off_c, 96
1, 164944, Note_off_c, 73
1, 165000, Note_off_c, 42
1, 165004, Note_on_c, 64
1, 165004, Note_on_c, 42
1, 165004, Note_on_c, 96
1, 165060, Note_off_c, 96
1, 165064, Note_off_c, 64
1, 165120, Note_off_c, 42
1, 165120, Note_off_c, 80
1, 165120, Note_off_c, 80
1, 165120, Note_off_c, 61
1, 165120, Note_off_c, 57
1, 165120, Note_off_c, 52
1, 165120, Note_off_c, 33
1, 165120, Note_off_c, 61
1, 165120, Note_off_c, 57
1, 165120, Note_off_c, 52
1, 165124, Note_on_c, 56
1, 165124, Note_on_c, 61
1, 165124, Note_on_c, 66
1, 165124, Note_on_c, 56
1, 165124, Note_on_c, 61
1, 165124, Note_on_c, 66
1, 165124, Note_on_c, 78
1, 165124, Note_on_c, 61
1, 165124, Note_on_c, 32
1, 165124, Note_on_c, 36
1, 165124, Note_on_c, 42
1, 165124, Note_on_c, 78
1, 165124, Note_on_c, 96
1, 165184, Note_off_c, 96
1, 165184, Note_off_c, 61
1, 165240, Note_off_c, 42
1, 165244, Note_on_c, 49
1, 165244, Note_on_c, 96
1, 165300, Note_off_c, 49
1, 165304, Note_off_c, 96
1, 165360, Note_off_c, 78
1, 165360, Note_off_c, 36
1, 165360, Note_off_c, 32
1, 165360, Note_off_c, 78
1, 165360, Note_off_c, 66
1, 165360, Note_off_c, 61
1, 165360, Note_off_c, 56
1, 165360, Note_off_c, 66
1, 165360, Note_off_c, 61
1, 165360, Note_off_c, 56
1, 165364, Note_on_c, 56
1, 165364, Note_on_c, 61
1, 165364, Note_on_c, 64
1, 165364, Note_on_c, 37
1, 165364, Note_on_c, 56
1, 165364, Note_on_c, 61
1, 165364, Note_on_c, 64
1, 165364, Note_on_c, 76
1, 165364, Note_on_c, 61
1, 165364, Note_on_c, 42
1, 165364, Note_on_c, 82
1, 165364, Note_on_c, 76
1, 165364, Note_on_c, 96
1, 165412, Note_off_c, 82
1, 165420, Note_off_c, 96
1, 165424, Note_off_c, 61
1, 165480, Note_off_c, 42
1, 165484, Note_on_c, 68
1, 165484, Note_on_c, 42
1, 165484, Note_on_c, 96
1, 165540, Note_off_c, 68
1, 165544, Note_off_c, 96
1, 165600, Note_off_c, 42
1, 165600, Note_off_c, 76
1, 165600, Note_off_c, 76
1, 165600, Note_off_c, 64
1, 165600, Note_off_c, 61
1, 165600, Note_off_c, 56
1, 165600, Note_off_c, 37
1, 165600, Note_off_c, 64
1, 165600, Note_off_c, 61
1, 165600, Note_off_c, 56
1, 165604, Note_on_c, 56
1, 165604, Note_on_c, 61
1, 165604, Note_on_c, 64
1, 165604, Note_on_c, 56
1, 165604, Note_on_c, 61
1, 165604, Note_on_c, 64
1, 165604, Note_on_c, 76
1, 165604, Note_on_c, 56
1, 165604, Note_on_c, 32
1, 165604, Note_on_c, 36
1, 165604, Note_on_c, 37
1, 165604, Note_on_c, 42
1, 165604, Note_on_c, 76
1, 165604, Note_on_c, 96
1, 165660, Note_off_c, 96
1, 165660, Note_off_c, 56
1, 165720, Note_off_c, 42
1, 165724, Note_on_c, 61
1, 165724, Note_on_c, 96
1, 165784, Note_off_c, 96
1, 165784, Note_off_c, 61
1, 165840, Note_off_c, 76
1, 165840, Note_off_c, 37
1, 165840, Note_off_c, 36
1, 165840, Note_off_c, 32
1, 165840, Note_off_c, 76
1, 165840, Note_off_c, 64
1, 165840, Note_off_c, 61
1, 165840, Note_off_c, 56
1, 165840, Note_off_c, 64
1, 165840, Note_off_c, 61
1, 165840, Note_off_c, 56
1, 165844, Note_on_c, 68
1, 165844, Note_on_c, 42
1, 165844, Note_on_c, 82
1, 165844, Note_on_c, 96
1, 165896, Note_off_c, 82
1, 165900, Note_off_c, 96
1, 165904, Note_off_c, 68
1, 165960, Note_off_c, 42
1, 165964, Note_on_c, 73
1, 165964, Note_on_c, 42
1, 165964, Note_on_c, 96
1, 166020, Note_off_c, 96
1, 166080, Note_off_c, 42
1, 166080, Note_off_c, 73
1, 166084, Note_on_c, 56
1, 166084, Note_on_c, 59
1, 166084, Note_on_c, 64
1, 166084, Note_on_c, 56
1, 166084, Note_on_c, 59
1, 166084, Note_on_c, 64
1, 166084, Note_on_c, 76
1, 166084, Note_on_c, 73
1, 166084, Note_on_c, 32
1, 166084, Note_on_c, 36
1, 166084, Note_on_c, 42
1, 166084, Note_on_c, 76
1, 166084, Note_on_c, 96
1, 166140, Note_off_c, 96
1, 166140, Note_off_c, 73
1, 166200, Note_off_c, 42
1, 166204, Note_on_c, 68
1, 166204, Note_on_c, 96
1, 166260, Note_off_c, 68
1, 166264, Note_off_c, 96
1, 166320, Note_off_c, 76
1, 166320, Note_off_c, 36
1, 166320, Note_off_c, 32
1, 166320, Note_off_c, 76
1, 166320, Note_off_c, 64
1, 166320, Note_off_c, 59
1, 166320, Note_off_c, 56
1, 166320, Note_off_c, 64
1, 166320, Note_off_c, 59
1, 166320, Note_off_c, 56
1, 166324, Note_on_c, 56
1, 166324, Note_on_c, 59
1, 166324, Note_on_c, 64
1, 166324, Note_on_c, 40
1, 166324, Note_on_c, 56
1, 166324, Note_on_c, 59
1, 166324, Note_on_c, 64
1, 166324, Note_on_c, 76
1, 166324, Note_on_c, 73
1, 166324, Note_on_c, 42
1, 166324, Note_on_c, 82
1, 166324, Note_on_c, 76
1, 166324, Note_on_c, 96
1, 166372, Note_off_c, 82
1, 166380, Note_off_c, 73
1, 166384, Note_off_c, 96
1, 166440, Note_off_c, 42
1, 166444, Note_on_c, 81
1, 166444, Note_on_c, 42
1, 166444, Note_on_c, 96
1, 166504, Note_off_c, 96
1, 166560, Note_off_c, 42
1, 166560, Note_off_c, 81
1, 166560, Note_off_c, 76
1, 166560, Note_off_c, 76
1, 166560, Note_off_c, 64
1, 166560, Note_off_c, 59
1, 166560, Note_off_c, 56
1, 166560, Note_off_c, 40
1, 166560, Note_off_c, 64
1, 166560, Note_off_c, 59
1, 166560, Note_off_c, 56
1, 166564, Note_on_c, 56
1, 166564, Note_on_c, 59
1, 166564, Note_on_c, 64
1, 166564, Note_on_c, 56
1, 166564, Note_on_c, 59
1, 166564, Note_on_c, 64
1, 166564, Note_on_c, 76
1, 166564, Note_on_c, 73
1, 166564, Note_on_c, 32
1, 166564, Note_on_c, 36
1, 166564, Note_on_c, 37
1, 166564, Note_on_c, 42
1, 166564, Note_on_c, 76
1, 166564, Note_on_c, 96
1, 166624, Note_off_c, 96
1, 166624, Note_off_c, 73
1, 166680, Note_off_c, 42
1, 166684, Note_on_c, 68
1, 166684, Note_on_c, 96
1, 166740, Note_off_c, 96
1, 166800, Note_off_c, 68
1, 166800, Note_off_c, 76
1, 166800, Note_off_c, 37
1, 166800, Note_off_c, 36
1, 166800, Note_off_c, 32
1, 166800, Note_off_c, 76
1, 166800, Note_off_c, 64
1, 166800, Note_off_c, 59
1, 166800, Note_off_c, 56
1, 166800, Note_off_c, 64
1, 166800, Note_off_c, 59
1, 166800, Note_off_c, 56
1, 166804, Note_on_c, 56
1, 166804, Note_on_c, 59
1, 166804, Note_on_c, 64
1, 166804, Note_on_c, 40
1, 166804, Note_on_c, 56
1, 166804, Note_on_c, 59
1, 166804, Note_on_c, 64
1, 166804, Note_on_c, 76
1, 166804, Note_on_c, 73
1, 166804, Note_on_c, 42
1, 166804, Note_on_c, 82
1, 166804, Note_on_c, 76
1, 166804, Note_on_c, 96
1, 166844, Note_off_c, 82
1, 166864, Note_off_c, 96
1, 166864, Note_off_c, 73
1, 166920, Note_off_c, 42
1, 166924, Note_on_c, 64
1, 166924, Note_on_c, 42
1, 166924, Note_on_c, 96
1, 166980, Note_off_c, 96
1, 166984, Note_off_c, 64
1, 167040, Note_off_c, 42
1, 167040, Note_off_c, 76
1, 167040, Note_off_c, 76
1, 167040, Note_off_c, 64
1, 167040, Note_off_c, 59
1, 167040, Note_off_c, 56
1, 167040, Note_off_c, 40
1, 167040, Note_off_c, 64
1, 167040, Note_off_c, 59
1, 167040, Note_off_c, 56
1, 167044, Note_on_c, 54
1, 167044, Note_on_c, 59
1, 167044, Note_on_c, 63
1, 167044, Note_on_c, 54
1, 167044, Note_on_c, 59
1, 167044, Note_on_c, 63
1, 167044, Note_on_c, 73
1, 167044, Note_on_c, 61
1, 167044, Note_on_c, 32
1, 167044, Note_on_c, 42
1, 167044, Note_on_c, 73
1, 167044, Note_on_c, 96
1, 167100, Note_off_c, 96
1, 167104, Note_off_c, 61
1, 167160, Note_off_c, 42
1, 167164, Note_on_c, 49
1, 167164, Note_on_c, 96
1, 167220, Note_off_c, 49
1, 167224, Note_off_c, 96
1, 167280, Note_off_c, 73
1, 167280, Note_off_c, 32
1, 167280, Note_off_c, 73
1, 167280, Note_off_c, 63
1, 167280, Note_off_c, 59
1, 167280, Note_off_c, 54
1, 167280, Note_off_c, 63
1, 167280, Note_off_c, 59
1, 167280, Note_off_c, 54
1, 167284, Note_on_c, 54
1, 167284, Note_on_c, 59
1, 167284, Note_on_c, 63
1, 167284, Note_on_c, 35
1, 167284, Note_on_c, 54
1, 167284, Note_on_c, 59
1, 167284, Note_on_c, 63
1, 167284, Note_on_c, 73
1, 167284, Note_on_c, 61
1, 167284, Note_on_c, 42
1, 167284, Note_on_c, 82
1, 167284, Note_on_c, 73
1, 167284, Note_on_c, 96
1, 167328, Note_off_c, 82
1, 167340, Note_off_c, 96
1, 167344, Note_off_c, 61
1, 167400, Note_off_c, 42
1, 167404, Note_on_c, 68
1, 167404, Note_on_c, 42
1, 167404, Note_on_c, 96
1, 167460, Note_off_c, 96
1, 167460, Note_off_c, 68
1, 167520, Note_off_c, 42
1, 167520, Note_off_c, 73
1, 167520, Note_off_c, 73
1, 167520, Note_off_c, 63
1, 167520, Note_off_c, 59
1, 167520, Note_off_c, 54
1, 167520, Note_off_c, 35
1, 167520, Note_off_c, 63
1, 167520, Note_off_c, 59
1, 167520, Note_off_c, 54
1, 167524, Note_on_c, 54
1, 167524, Note_on_c, 59
1, 167524, Note_on_c, 63
1, 167524, Note_on_c, 54
1, 167524, Note_on_c, 59
1, 167524, Note_on_c, 63
1, 167524, Note_on_c, 71
1, 167524, Note_on_c, 56
1, 167524, Note_on_c, 32
1, 167524, Note_on_c, 37
1, 167524, Note_on_c, 42
1, 167524, Note_on_c, 71
1, 167524, Note_on_c, 96
1, 167580, Note_off_c, 96
1, 167580, Note_off_c, 56
1, 167640, Note_off_c, 42
1, 167644, Note_on_c, 61
1, 167644, Note_on_c, 96
1, 167700, Note_off_c, 96
1, 167704, Note_off_c, 61
1, 167760, Note_off_c, 71
1, 167760, Note_off_c, 37
1, 167760, Note_off_c, 32
1, 167760, Note_off_c, 71
1, 167760, Note_off_c, 63
1, 167760, Note_off_c, 59
1, 167760, Note_off_c, 54
1, 167760, Note_off_c, 63
1, 167760, Note_off_c, 59
1, 167760, Note_off_c, 54
1, 167764, Note_on_c, 52
1, 167764, Note_on_c, 57
1, 167764, Note_on_c, 61
1, 167764, Note_on_c, 33
1, 167764, Note_on_c, 52
1, 167764, Note_on_c, 57
1, 167764, Note_on_c, 61
1, 167764, Note_on_c, 71
1, 167764, Note_on_c, 68
1, 167764, Note_on_c, 29
1, 167764, Note_on_c, 42
1, 167764, Note_on_c, 82
1, 167764, Note_on_c, 71
1, 167764, Note_on_c, 96
1, 167804, Note_off_c, 82
1, 167824, Note_off_c, 96
1, 167824, Note_off_c, 68
1, 167880, Note_off_c, 42
1, 167884, Note_on_c, 73
1, 167884, Note_on_c, 42
1, 167884, Note_on_c, 96
1, 167944, Note_off_c, 96
1, 168000, Note_off_c, 42
1, 168000, Note_off_c, 73
1, 168000, Note_off_c, 71
1, 168000, Note_off_c, 29
1, 168000, Note_off_c, 71
1, 168000, Note_off_c, 61
1, 168000, Note_off_c, 57
1, 168000, Note_off_c, 52
1, 168000, Note_off_c, 33
1, 168000, Note_off_c, 61
1, 168000, Note_off_c, 57
1, 168000, Note_off_c, 52
1, 168004, Note_on_c, 73
1, 168004, Note_on_c, 32
1, 168004, Note_on_c, 42
1, 168004, Note_on_c, 96
1, 168060, Note_off_c, 96
1, 168060, Note_off_c, 73
1, 168120, Note_off_c, 42
1, 168124, Note_on_c, 68
1, 168124, Note_on_c, 70
1, 168124, Note_on_c, 96
1, 168180, Note_off_c, 96
1, 168180, Note_off_c, 68
1, 168240, Note_off_c, 32
1, 168244, Note_on_c, 52
1, 168244, Note_on_c, 57
1, 168244, Note_on_c, 61
1, 168244, Note_on_c, 33
1, 168244, Note_on_c, 52
1, 168244, Note_on_c, 57
1, 168244, Note_on_c, 61
1, 168244, Note_on_c, 85
1, 168244, Note_on_c, 73
1, 168244, Note_on_c, 42
1, 168244, Note_on_c, 82
1, 168244, Note_on_c, 85
1, 168244, Note_on_c, 96
1, 168284, Note_off_c, 82
1, 168300, Note_off_c, 73
1, 168304, Note_off_c, 96
1, 168360, Note_off_c, 42
1, 168360, Note_off_c, 70
1, 168364, Note_on_c, 81
1, 168364, Note_on_c, 42
1, 168364, Note_on_c, 96
1, 168424, Note_off_c, 96
1, 168480, Note_off_c, 42
1, 168480, Note_off_c, 81
1, 168480, Note_off_c, 85
1, 168480, Note_off_c, 85
1, 168480, Note_off_c, 61
1, 168480, Note_off_c, 57
1, 168480, Note_off_c, 52
1, 168480, Note_off_c, 33
1, 168480, Note_off_c, 61
1, 168480, Note_off_c, 57
1, 168480, Note_off_c, 52
1, 168484, Note_on_c, 52
1, 168484, Note_on_c, 57
1, 168484, Note_on_c, 61
1, 168484, Note_on_c, 52
1, 168484, Note_on_c, 57
1, 168484, Note_on_c, 61
1, 168484, Note_on_c, 83
1, 168484, Note_on_c, 73
1, 168484, Note_on_c, 32
1, 168484, Note_on_c, 37
1, 168484, Note_on_c, 42
1, 168484, Note_on_c, 83
1, 168484, Note_on_c, 96
1, 168544, Note_off_c, 96
1, 168544, Note_off_c, 73
1, 168600, Note_off_c, 42
1, 168604, Note_on_c, 68
1, 168604, Note_on_c, 96
1, 168660, Note_off_c, 96
1, 168720, Note_off_c, 68
1, 168720, Note_off_c, 83
1, 168720, Note_off_c, 37
1, 168720, Note_off_c, 32
1, 168720, Note_off_c, 83
1, 168720, Note_off_c, 61
1, 168720, Note_off_c, 57
1, 168720, Note_off_c, 52
1, 168720, Note_off_c, 61
1, 168720, Note_off_c, 57
1, 168720, Note_off_c, 52
1, 168724, Note_on_c, 52
1, 168724, Note_on_c, 57
1, 168724, Note_on_c, 61
1, 168724, Note_on_c, 33
1, 168724, Note_on_c, 52
1, 168724, Note_on_c, 57
1, 168724, Note_on_c, 61
1, 168724, Note_on_c, 80
1, 168724, Note_on_c, 73
1, 168724, Note_on_c, 42
1, 168724, Note_on_c, 82
1, 168724, Note_on_c, 80
1, 168724, Note_on_c, 96
1, 168764, Note_off_c, 82
1, 168780, Note_off_c, 96
1, 168784, Note_off_c, 73
1, 168840, Note_off_c, 42
1, 168844, Note_on_c, 64
1, 168844, Note_on_c, 42
1, 168844, Note_on_c, 96
1, 168900, Note_off_c, 96
1, 168904, Note_off_c, 64
1, 168960, Note_off_c, 42
1, 168960, Note_off_c, 80
1, 168960, Note_off_c, 80
1, 168960, Note_off_c, 61
1, 168960, Note_off_c, 57
1, 168960, Note_off_c, 52
1, 168960, Note_off_c, 33
1, 168960, Note_off_c, 61
1, 168960, Note_off_c, 57
1, 168960, Note_off_c, 52
1, 168964, Note_on_c, 56
1, 168964, Note_on_c, 61
1, 168964, Note_on_c, 66
1, 168964, Note_on_c, 56
1, 168964, Note_on_c, 61
1, 168964, Note_on_c, 66
1, 168964, Note_on_c, 78
1, 168964, Note_on_c, 61
1, 168964, Note_on_c, 32
1, 168964, Note_on_c, 36
1, 168964, Note_on_c, 42
1, 168964, Note_on_c, 84
1, 168964, Note_on_c, 78
1, 168964, Note_on_c, 96
1, 169024, Note_off_c, 96
1, 169024, Note_off_c, 61
1, 169080, Note_off_c, 42
1, 169084, Note_on_c, 49
1, 169084, Note_on_c, 96
1, 169140, Note_off_c, 49
1, 169144, Note_off_c, 96
1, 169200, Note_off_c, 78
1, 169200, Note_off_c, 36
1, 169200, Note_off_c, 32
1, 169200, Note_off_c, 78
1, 169200, Note_off_c, 66
1, 169200, Note_off_c, 61
1, 169200, Note_off_c, 56
1, 169200, Note_off_c, 66
1, 169200, Note_off_c, 61
1, 169200, Note_off_c, 56
1, 169204, Note_on_c, 56
1, 169204, Note_on_c, 61
1, 169204, Note_on_c, 64
1, 169204, Note_on_c, 37
1, 169204, Note_on_c, 56
1, 169204, Note_on_c, 61
1, 169204, Note_on_c, 64
1, 169204, Note_on_c, 76
1, 169204, Note_on_c, 61
1, 169204, Note_on_c, 42
1, 169204, Note_on_c, 82
1, 169204, Note_on_c, 76
1, 169204, Note_on_c, 96
1, 169236, Note_off_c, 82
1, 169260, Note_off_c, 96
1, 169264, Note_off_c, 61
1, 169320, Note_off_c, 42
1, 169324, Note_on_c, 68
1, 169324, Note_on_c, 42
1, 169324, Note_on_c, 96
1, 169380, Note_off_c, 68
1, 169384, Note_off_c, 96
1, 169440, Note_off_c, 42
1, 169440, Note_off_c, 76
1, 169440, Note_off_c, 76
1, 169440, Note_off_c, 64
1, 169440, Note_off_c, 61
1, 169440, Note_off_c, 56
1, 169440, Note_off_c, 37
1, 169440, Note_off_c, 64
1, 169440, Note_off_c, 61
1, 169440, Note_off_c, 56
1, 169444, Note_on_c, 56
1, 169444, Note_on_c, 61
1, 169444, Note_on_c, 64
1, 169444, Note_on_c, 56
1, 169444, Note_on_c, 61
1, 169444, Note_on_c, 64
1, 169444, Note_on_c, 76
1, 169444, Note_on_c, 56
1, 169444, Note_on_c, 32
1, 169444, Note_on_c, 36
1, 169444, Note_on_c, 37
1, 169444, Note_on_c, 42
1, 169444, Note_on_c, 76
1, 169444, Note_on_c, 96
1, 169500, Note_off_c, 96
1, 169500, Note_off_c, 56
1, 169560, Note_off_c, 42
1, 169564, Note_on_c, 61
1, 169564, Note_on_c, 96
1, 169624, Note_off_c, 96
1, 169624, Note_off_c, 61
1, 169680, Note_off_c, 76
1, 169680, Note_off_c, 37
1, 169680, Note_off_c, 36
1, 169680, Note_off_c, 32
1, 169680, Note_off_c, 76
1, 169680, Note_off_c, 64
1, 169680, Note_off_c, 61
1, 169680, Note_off_c, 56
1, 169680, Note_off_c, 64
1, 169680, Note_off_c, 61
1, 169680, Note_off_c, 56
1, 169684, Note_on_c, 68
1, 169684, Note_on_c, 42
1, 169684, Note_on_c, 82
1, 169684, Note_on_c, 96
1, 169720, Note_off_c, 82
1, 169740, Note_off_c, 96
1, 169744, Note_off_c, 68
1, 169800, Note_off_c, 42
1, 169804, Note_on_c, 73
1, 169804, Note_on_c, 42
1, 169804, Note_on_c, 96
1, 169860, Note_off_c, 96
1, 169920, Note_off_c, 42
1, 169920, Note_off_c, 73
1, 169924, Note_on_c, 56
1, 169924, Note_on_c, 59
1, 169924, Note_on_c, 64
1, 169924, Note_on_c, 56
1, 169924, Note_on_c, 59
1, 169924, Note_on_c, 64
1, 169924, Note_on_c, 76
1, 169924, Note_on_c, 73
1, 169924, Note_on_c, 32
1, 169924, Note_on_c, 36
1, 169924, Note_on_c, 42
1, 169924, Note_on_c, 76
1, 169924, Note_on_c, 96
1, 169980, Note_off_c, 96
1, 169980, Note_off_c, 73
1, 170040, Note_off_c, 42
1, 170044, Note_on_c, 68
1, 170044, Note_on_c, 96
1, 170100, Note_off_c, 68
1, 170104, Note_off_c, 96
1, 170160, Note_off_c, 76
1, 170160, Note_off_c, 36
1, 170160, Note_off_c, 32
1, 170160, Note_off_c, 76
1, 170160, Note_off_c, 64
1, 170160, Note_off_c, 59
1, 170160, Note_off_c, 56
1, 170160, Note_off_c, 64
1, 170160, Note_off_c, 59
1, 170160, Note_off_c, 56
1, 170164, Note_on_c, 56
1, 170164, Note_on_c, 59
1, 170164, Note_on_c, 64
1, 170164, Note_on_c, 40
1, 170164, Note_on_c, 56
1, 170164, Note_on_c, 59
1, 170164, Note_on_c, 64
1, 170164, Note_on_c, 76
1, 170164, Note_on_c, 73
1, 170164, Note_on_c, 42
1, 170164, Note_on_c, 82
1, 170164, Note_on_c, 76
1, 170164, Note_on_c, 96
1, 170212, Note_off_c, 82
1, 170220, Note_off_c, 73
1, 170224, Note_off_c, 96
1, 170280, Note_off_c, 42
1, 170284, Note_on_c, 81
1, 170284, Note_on_c, 42
1, 170284, Note_on_c, 96
1, 170344, Note_off_c, 96
1, 170400, Note_off_c, 42
1, 170400, Note_off_c, 81
1, 170400, Note_off_c, 76
1, 170400, Note_off_c, 76
1, 170400, Note_off_c, 64
1, 170400, Note_off_c, 59
1, 170400, Note_off_c, 56
1, 170400, Note_off_c, 40
1, 170400, Note_off_c, 64
1, 170400, Note_off_c, 59
1, 170400, Note_off_c, 56
1, 170404, Note_on_c, 56
1, 170404, Note_on_c, 59
1, 170404, Note_on_c, 64
1, 170404, Note_on_c, 56
1, 170404, Note_on_c, 59
1, 170404, Note_on_c, 64
1, 170404, Note_on_c, 76
1, 170404, Note_on_c, 73
1, 170404, Note_on_c, 32
1, 170404, Note_on_c, 36
1, 170404, Note_on_c, 37
1, 170404, Note_on_c, 42
1, 170404, Note_on_c, 76
1, 170404, Note_on_c, 96
1, 170464, Note_off_c, 96
1, 170464, Note_off_c, 73
1, 170520, Note_off_c, 42
1, 170524, Note_on_c, 68
1, 170524, Note_on_c, 96
1, 170580, Note_off_c, 96
1, 170640, Note_off_c, 68
1, 170640, Note_off_c, 76
1, 170640, Note_off_c, 37
1, 170640, Note_off_c, 36
1, 170640, Note_off_c, 32
1, 170640, Note_off_c, 76
1, 170640, Note_off_c, 64
1, 170640, Note_off_c, 59
1, 170640, Note_off_c, 56
1, 170640, Note_off_c, 64
1, 170640, Note_off_c, 59
1, 170640, Note_off_c, 56
1, 170644, Note_on_c, 56
1, 170644, Note_on_c, 59
1, 170644, Note_on_c, 64
1, 170644, Note_on_c, 40
1, 170644, Note_on_c, 56
1, 170644, Note_on_c, 59
1, 170644, Note_on_c, 64
1, 170644, Note_on_c, 76
1, 170644, Note_on_c, 73
1, 170644, Note_on_c, 42
1, 170644, Note_on_c, 82
1, 170644, Note_on_c, 76
1, 170644, Note_on_c, 96
1, 170696, Note_off_c, 82
1, 170704, Note_off_c, 96
1, 170704, Note_off_c, 73
1, 170760, Note_off_c, 42
1, 170764, Note_on_c, 64
1, 170764, Note_on_c, 42
1, 170764, Note_on_c, 96
1, 170820, Note_off_c, 96
1, 170824, Note_off_c, 64
1, 170880, Note_off_c, 42
1, 170880, Note_off_c, 76
1, 170880, Note_off_c, 76
1, 170880, Note_off_c, 64
1, 170880, Note_off_c, 59
1, 170880, Note_off_c, 56
1, 170880, Note_off_c, 40
1, 170880, Note_off_c, 64
1, 170880, Note_off_c, 59
1, 170880, Note_off_c, 56
1, 170884, Note_on_c, 54
1, 170884, Note_on_c, 59
1, 170884, Note_on_c, 63
1, 170884, Note_on_c, 54
1, 170884, Note_on_c, 59
1, 170884, Note_on_c, 63
1, 170884, Note_on_c, 75
1, 170884, Note_on_c, 61
1, 170884, Note_on_c, 32
1, 170884, Note_on_c, 36
1, 170884, Note_on_c, 42
1, 170884, Note_on_c, 75
1, 170884, Note_on_c, 96
1, 170940, Note_off_c, 96
1, 170944, Note_off_c, 61
1, 171000, Note_off_c, 42
1, 171004, Note_on_c, 49
1, 171004, Note_on_c, 96
1, 171060, Note_off_c, 49
1, 171064, Note_off_c, 96
1, 171120, Note_off_c, 75
1, 171120, Note_off_c, 36
1, 171120, Note_off_c, 32
1, 171120, Note_off_c, 75
1, 171120, Note_off_c, 63
1, 171120, Note_off_c, 59
1, 171120, Note_off_c, 54
1, 171120, Note_off_c, 63
1, 171120, Note_off_c, 59
1, 171120, Note_off_c, 54
1, 171124, Note_on_c, 54
1, 171124, Note_on_c, 59
1, 171124, Note_on_c, 63
1, 171124, Note_on_c, 35
1, 171124, Note_on_c, 54
1, 171124, Note_on_c, 59
1, 171124, Note_on_c, 63
1, 171124, Note_on_c, 75
1, 171124, Note_on_c, 61
1, 171124, Note_on_c, 42
1, 171124, Note_on_c, 82
1, 171124, Note_on_c, 75
1, 171124, Note_on_c, 96
1, 171176, Note_off_c, 82
1, 171180, Note_off_c, 96
1, 171184, Note_off_c, 61
1, 171240, Note_off_c, 42
1, 171244, Note_on_c, 68
1, 171244, Note_on_c, 42
1, 171244, Note_on_c, 96
1, 171300, Note_off_c, 96
1, 171300, Note_off_c, 68
1, 171360, Note_off_c, 42
1, 171360, Note_off_c, 75
1, 171360, Note_off_c, 75
1, 171360, Note_off_c, 63
1, 171360, Note_off_c, 59
1, 171360, Note_off_c, 54
1, 171360, Note_off_c, 35
1, 171360, Note_off_c, 63
1, 171360, Note_off_c, 59
1, 171360, Note_off_c, 54
1, 171364, Note_on_c, 54
1, 171364, Note_on_c, 59
1, 171364, Note_on_c, 63
1, 171364, Note_on_c, 54
1, 171364, Note_on_c, 59
1, 171364, Note_on_c, 63
1, 171364, Note_on_c, 76
1, 171364, Note_on_c, 56
1, 171364, Note_on_c, 32
1, 171364, Note_on_c, 36
1, 171364, Note_on_c, 37
1, 171364, Note_on_c, 42
1, 171364, Note_on_c, 76
1, 171364, Note_on_c, 96
1, 171420, Note_off_c, 96
1, 171420, Note_off_c, 56
1, 171480, Note_off_c, 42
1, 171484, Note_on_c, 61
1, 171484, Note_on_c, 96
1, 171540, Note_off_c, 96
1, 171544, Note_off_c, 61
1, 171600, Note_off_c, 76
1, 171600, Note_off_c, 37
1, 171600, Note_off_c, 36
1, 171600, Note_off_c, 32
1, 171600, Note_off_c, 76
1, 171600, Note_off_c, 63
1, 171600, Note_off_c, 59
1, 171600, Note_off_c, 54
1, 171600, Note_off_c, 63
1, 171600, Note_off_c, 59
1, 171600, Note_off_c, 54
1, 171604, Note_on_c, 52
1, 171604, Note_on_c, 57
1, 171604, Note_on_c, 61
1, 171604, Note_on_c, 33
1, 171604, Note_on_c, 52
1, 171604, Note_on_c, 57
1, 171604, Note_on_c, 61
1, 171604, Note_on_c, 76
1, 171604, Note_on_c, 68
1, 171604, Note_on_c, 29
1, 171604, Note_on_c, 42
1, 171604, Note_on_c, 82
1, 171604, Note_on_c, 76
1, 171604, Note_on_c, 96
1, 171660, Note_off_c, 82
1, 171664, Note_off_c, 96
1, 171664, Note_off_c, 68
1, 171720, Note_off_c, 42
1, 171724, Note_on_c, 73
1, 171724, Note_on_c, 42
1, 171724, Note_on_c, 96
1, 171784, Note_off_c, 96
1, 171840, Note_off_c, 42
1, 171840, Note_off_c, 73
1, 171840, Note_off_c, 76
1, 171840, Note_off_c, 29
1, 171840, Note_off_c, 76
1, 171840, Note_off_c, 61
1, 171840, Note_off_c, 57
1, 171840, Note_off_c, 52
1, 171840, Note_off_c, 33
1, 171840, Note_off_c, 61
1, 171840, Note_off_c, 57
1, 171840, Note_off_c, 52
1, 171844, Note_on_c, 73
1, 171844, Note_on_c, 32
1, 171844, Note_on_c, 36
1, 171844, Note_on_c, 42
1, 171844, Note_on_c, 96
1, 171900, Note_off_c, 96
1, 171900, Note_off_c, 73
1, 171960, Note_off_c, 42
1, 171964, Note_on_c, 68
1, 171964, Note_on_c, 70
1, 171964, Note_on_c, 96
1, 172020, Note_off_c, 96
1, 172020, Note_off_c, 68
1, 172080, Note_off_c, 36
1, 172080, Note_off_c, 32
1, 172084, Note_on_c, 52
1, 172084, Note_on_c, 57
1, 172084, Note_on_c, 61
1, 172084, Note_on_c, 33
1, 172084, Note_on_c, 52
1, 172084, Note_on_c, 57
1, 172084, Note_on_c, 61
1, 172084, Note_on_c, 85
1, 172084, Note_on_c, 73
1, 172084, Note_on_c, 42
1, 172084, Note_on_c, 82
1, 172084, Note_on_c, 85
1, 172084, Note_on_c, 96
1, 172124, Note_off_c, 82
1, 172140, Note_off_c, 73
1, 172144, Note_off_c, 96
1, 172200, Note_off_c, 42
1, 172200, Note_off_c, 70
1, 172204, Note_on_c, 81
1, 172204, Note_on_c, 42
1, 172204, Note_on_c, 96
1, 172264, Note_off_c, 96
1, 172320, Note_off_c, 42
1, 172320, Note_off_c, 81
1, 172320, Note_off_c, 85
1, 172320, Note_off_c, 85
1, 172320, Note_off_c, 61
1, 172320, Note_off_c, 57
1, 172320, Note_off_c, 52
1, 172320, Note_off_c, 33
1, 172320, Note_off_c, 61
1, 172320, Note_off_c, 57
1, 172320, Note_off_c, 52
1, 172324, Note_on_c, 52
1, 172324, Note_on_c, 57
1, 172324, Note_on_c, 61
1, 172324, Note_on_c, 52
1, 172324, Note_on_c, 57
1, 172324, Note_on_c, 61
1, 172324, Note_on_c, 83
1, 172324, Note_on_c, 73
1, 172324, Note_on_c, 32
1, 172324, Note_on_c, 36
1, 172324, Note_on_c, 37
1, 172324, Note_on_c, 42
1, 172324, Note_on_c, 83
1, 172324, Note_on_c, 96
1, 172384, Note_off_c, 96
1, 172384, Note_off_c, 73
1, 172440, Note_off_c, 42
1, 172444, Note_on_c, 68
1, 172444, Note_on_c, 96
1, 172500, Note_off_c, 96
1, 172560, Note_off_c, 68
1, 172560, Note_off_c, 83
1, 172560, Note_off_c, 37
1, 172560, Note_off_c, 36
1, 172560, Note_off_c, 32
1, 172560, Note_off_c, 83
1, 172560, Note_off_c, 61
1, 172560, Note_off_c, 57
1, 172560, Note_off_c, 52
1, 172560, Note_off_c, 61
1, 172560, Note_off_c, 57
1, 172560, Note_off_c, 52
1, 172564, Note_on_c, 52
1, 172564, Note_on_c, 57
1, 172564, Note_on_c, 61
1, 172564, Note_on_c, 33
1, 172564, Note_on_c, 52
1, 172564, Note_on_c, 57
1, 172564, Note_on_c, 61
1, 172564, Note_on_c, 80
1, 172564, Note_on_c, 73
1, 172564, Note_on_c, 42
1, 172564, Note_on_c, 82
1, 172564, Note_on_c, 80
1, 172564, Note_on_c, 96
1, 172604, Note_off_c, 82
1, 172620, Note_off_c, 96
1, 172624, Note_off_c, 73
1, 172680, Note_off_c, 42
1, 172684, Note_on_c, 64
1, 172684, Note_on_c, 42
1, 172684, Note_on_c, 96
1, 172740, Note_off_c, 96
1, 172744, Note_off_c, 64
1, 172800, Note_off_c, 42
1, 172800, Note_off_c, 80
1, 172800, Note_off_c, 80
1, 172800, Note_off_c, 61
1, 172800, Note_off_c, 57
1, 172800, Note_off_c, 52
1, 172800, Note_off_c, 33
1, 172800, Note_off_c, 61
1, 172800, Note_off_c, 57
1, 172800, Note_off_c, 52
1, 172800, Note_off_c, 84
1, 172804, Note_on_c, 56
1, 172804, Note_on_c, 61
1, 172804, Note_on_c, 66
1, 172804, Note_on_c, 56
1, 172804, Note_on_c, 61
1, 172804, Note_on_c, 66
1, 172804, Note_on_c, 78
1, 172804, Note_on_c, 61
1, 172804, Note_on_c, 32
1, 172804, Note_on_c, 36
1, 172804, Note_on_c, 42
1, 172804, Note_on_c, 78
1, 172804, Note_on_c, 96
1, 172864, Note_off_c, 96
1, 172864, Note_off_c, 61
1, 172920, Note_off_c, 42
1, 172924, Note_on_c, 49
1, 172924, Note_on_c, 96
1, 172980, Note_off_c, 49
1, 172984, Note_off_c, 96
1, 173040, Note_off_c, 78
1, 173040, Note_off_c, 36
1, 173040, Note_off_c, 32
1, 173040, Note_off_c, 78
1, 173040, Note_off_c, 66
1, 173040, Note_off_c, 61
1, 173040, Note_off_c, 56
1, 173040, Note_off_c, 66
1, 173040, Note_off_c, 61
1, 173040, Note_off_c, 56
1, 173044, Note_on_c, 56
1, 173044, Note_on_c, 61
1, 173044, Note_on_c, 64
1, 173044, Note_on_c, 37
1, 173044, Note_on_c, 56
1, 173044, Note_on_c, 61
1, 173044, Note_on_c, 64
1, 173044, Note_on_c, 76
1, 173044, Note_on_c, 61
1, 173044, Note_on_c, 42
1, 173044, Note_on_c, 82
1, 173044, Note_on_c, 76
1, 173044, Note_on_c, 96
1, 173092, Note_off_c, 82
1, 173100, Note_off_c, 96
1, 173104, Note_off_c, 61
1, 173160, Note_off_c, 42
1, 173164, Note_on_c, 68
1, 173164, Note_on_c, 42
1, 173164, Note_on_c, 96
1, 173220, Note_off_c, 68
1, 173224, Note_off_c, 96
1, 173280, Note_off_c, 42
1, 173280, Note_off_c, 76
1, 173280, Note_off_c, 76
1, 173280, Note_off_c, 64
1, 173280, Note_off_c, 61
1, 173280, Note_off_c, 56
1, 173280, Note_off_c, 37
1, 173280, Note_off_c, 64
1, 173280, Note_off_c, 61
1, 173280, Note_off_c, 56
1, 173284, Note_on_c, 56
1, 173284, Note_on_c, 61
1, 173284, Note_on_c, 64
1, 173284, Note_on_c, 56
1, 173284, Note_on_c, 61
1, 173284, Note_on_c, 64
1, 173284, Note_on_c, 76
1, 173284, Note_on_c, 56
1, 173284, Note_on_c, 32
1, 173284, Note_on_c, 36
1, 173284, Note_on_c, 37
1, 173284, Note_on_c, 42
1, 173284, Note_on_c, 76
1, 173284, Note_on_c, 96
1, 173340, Note_off_c, 96
1, 173340, Note_off_c, 56
1, 173400, Note_off_c, 42
1, 173404, Note_on_c, 61
1, 173404, Note_on_c, 96
1, 173464, Note_off_c, 96
1, 173464, Note_off_c, 61
1, 173520, Note_off_c, 76
1, 173520, Note_off_c, 37
1, 173520, Note_off_c, 36
1, 173520, Note_off_c, 32
1, 173520, Note_off_c, 76
1, 173520, Note_off_c, 64
1, 173520, Note_off_c, 61
1, 173520, Note_off_c, 56
1, 173520, Note_off_c, 64
1, 173520, Note_off_c, 61
1, 173520, Note_off_c, 56
1, 173524, Note_on_c, 68
1, 173524, Note_on_c, 42
1, 173524, Note_on_c, 82
1, 173524, Note_on_c, 96
1, 173576, Note_off_c, 82
1, 173580, Note_off_c, 96
1, 173584, Note_off_c, 68
1, 173640, Note_off_c, 42
1, 173644, Note_on_c, 73
1, 173644, Note_on_c, 42
1, 173644, Note_on_c, 96
1, 173700, Note_off_c, 96
1, 173760, Note_off_c, 42
1, 173760, Note_off_c, 73
1, 173764, Note_on_c, 56
1, 173764, Note_on_c, 59
1, 173764, Note_on_c, 64
1, 173764, Note_on_c, 56
1, 173764, Note_on_c, 59
1, 173764, Note_on_c, 64
1, 173764, Note_on_c, 76
1, 173764, Note_on_c, 73
1, 173764, Note_on_c, 32
1, 173764, Note_on_c, 36
1, 173764, Note_on_c, 42
1, 173764, Note_on_c, 76
1, 173764, Note_on_c, 96
1, 173820, Note_off_c, 96
1, 173820, Note_off_c, 73
1, 173880, Note_off_c, 42
1, 173884, Note_on_c, 68
1, 173884, Note_on_c, 96
1, 173940, Note_off_c, 68
1, 173944, Note_off_c, 96
1, 174000, Note_off_c, 76
1, 174000, Note_off_c, 36
1, 174000, Note_off_c, 32
1, 174000, Note_off_c, 76
1, 174000, Note_off_c, 64
1, 174000, Note_off_c, 59
1, 174000, Note_off_c, 56
1, 174000, Note_off_c, 64
1, 174000, Note_off_c, 59
1, 174000, Note_off_c, 56
1, 174004, Note_on_c, 56
1, 174004, Note_on_c, 59
1, 174004, Note_on_c, 64
1, 174004, Note_on_c, 40
1, 174004, Note_on_c, 56
1, 174004, Note_on_c, 59
1, 174004, Note_on_c, 64
1, 174004, Note_on_c, 76
1, 174004, Note_on_c, 73
1, 174004, Note_on_c, 42
1, 174004, Note_on_c, 82
1, 174004, Note_on_c, 76
1, 174004, Note_on_c, 96
1, 174052, Note_off_c, 82
1, 174060, Note_off_c, 73
1, 174064, Note_off_c, 96
1, 174120, Note_off_c, 42
1, 174124, Note_on_c, 81
1, 174124, Note_on_c, 42
1, 174124, Note_on_c, 96
1, 174184, Note_off_c, 96
1, 174240, Note_off_c, 42
1, 174240, Note_off_c, 81
1, 174240, Note_off_c, 76
1, 174240, Note_off_c, 76
1, 174240, Note_off_c, 64
1, 174240, Note_off_c, 59
1, 174240, Note_off_c, 56
1, 174240, Note_off_c, 40
1, 174240, Note_off_c, 64
1, 174240, Note_off_c, 59
1, 174240, Note_off_c, 56
1, 174244, Note_on_c, 56
1, 174244, Note_on_c, 59
1, 174244, Note_on_c, 64
1, 174244, Note_on_c, 56
1, 174244, Note_on_c, 59
1, 174244, Note_on_c, 64
1, 174244, Note_on_c, 76
1, 174244, Note_on_c, 73
1, 174244, Note_on_c, 32
1, 174244, Note_on_c, 36
1, 174244, Note_on_c, 37
1, 174244, Note_on_c, 42
1, 174244, Note_on_c, 76
1, 174244, Note_on_c, 96
1, 174304, Note_off_c, 96
1, 174304, Note_off_c, 73
1, 174360, Note_off_c, 42
1, 174364, Note_on_c, 68
1, 174364, Note_on_c, 96
1, 174420, Note_off_c, 96
1, 174480, Note_off_c, 68
1, 174480, Note_off_c, 76
1, 174480, Note_off_c, 37
1, 174480, Note_off_c, 36
1, 174480, Note_off_c, 32
1, 174480, Note_off_c, 76
1, 174480, Note_off_c, 64
1, 174480, Note_off_c, 59
1, 174480, Note_off_c, 56
1, 174480, Note_off_c, 64
1, 174480, Note_off_c, 59
1, 174480, Note_off_c, 56
1, 174484, Note_on_c, 56
1, 174484, Note_on_c, 59
1, 174484, Note_on_c, 64
1, 174484, Note_on_c, 40
1, 174484, Note_on_c, 56
1, 174484, Note_on_c, 59
1, 174484, Note_on_c, 64
1, 174484, Note_on_c, 76
1, 174484, Note_on_c, 73
1, 174484, Note_on_c, 42
1, 174484, Note_on_c, 82
1, 174484, Note_on_c, 76
1, 174484, Note_on_c, 96
1, 174524, Note_off_c, 82
1, 174544, Note_off_c, 96
1, 174544, Note_off_c, 73
1, 174600, Note_off_c, 42
1, 174604, Note_on_c, 64
1, 174604, Note_on_c, 42
1, 174604, Note_on_c, 96
1, 174660, Note_off_c, 96
1, 174664, Note_off_c, 64
1, 174720, Note_off_c, 42
1, 174720, Note_off_c, 76
1, 174720, Note_off_c, 76
1, 174720, Note_off_c, 64
1, 174720, Note_off_c, 59
1, 174720, Note_off_c, 56
1, 174720, Note_off_c, 40
1, 174720, Note_off_c, 64
1, 174720, Note_off_c, 59
1, 174720, Note_off_c, 56
1, 174724, Note_on_c, 54
1, 174724, Note_on_c, 59
1, 174724, Note_on_c, 63
1, 174724, Note_on_c, 54
1, 174724, Note_on_c, 59
1, 174724, Note_on_c, 63
1, 174724, Note_on_c, 73
1, 174724, Note_on_c, 61
1, 174724, Note_on_c, 32
1, 174724, Note_on_c, 36
1, 174724, Note_on_c, 42
1, 174724, Note_on_c, 73
1, 174724, Note_on_c, 96
1, 174780, Note_off_c, 96
1, 174784, Note_off_c, 61
1, 174840, Note_off_c, 42
1, 174844, Note_on_c, 49
1, 174844, Note_on_c, 96
1, 174900, Note_off_c, 49
1, 174904, Note_off_c, 96
1, 174960, Note_off_c, 73
1, 174960, Note_off_c, 36
1, 174960, Note_off_c, 32
1, 174960, Note_off_c, 73
1, 174960, Note_off_c, 63
1, 174960, Note_off_c, 59
1, 174960, Note_off_c, 54
1, 174960, Note_off_c, 63
1, 174960, Note_off_c, 59
1, 174960, Note_off_c, 54
1, 174964, Note_on_c, 54
1, 174964, Note_on_c, 59
1, 174964, Note_on_c, 63
1, 174964, Note_on_c, 35
1, 174964, Note_on_c, 54
1, 174964, Note_on_c, 59
1, 174964, Note_on_c, 63
1, 174964, Note_on_c, 73
1, 174964, Note_on_c, 61
1, 174964, Note_on_c, 42
1, 174964, Note_on_c, 82
1, 174964, Note_on_c, 73
1, 174964, Note_on_c, 96
1, 175008, Note_off_c, 82
1, 175020, Note_off_c, 96
1, 175024, Note_off_c, 61
1, 175080, Note_off_c, 42
1, 175084, Note_on_c, 68
1, 175084, Note_on_c, 42
1, 175084, Note_on_c, 96
1, 175140, Note_off_c, 96
1, 175140, Note_off_c, 68
1, 175200, Note_off_c, 42
1, 175200, Note_off_c, 73
1, 175200, Note_off_c, 73
1, 175200, Note_off_c, 63
1, 175200, Note_off_c, 59
1, 175200, Note_off_c, 54
1, 175200, Note_off_c, 35
1, 175200, Note_off_c, 63
1, 175200, Note_off_c, 59
1, 175200, Note_off_c, 54
1, 175204, Note_on_c, 54
1, 175204, Note_on_c, 59
1, 175204, Note_on_c, 63
1, 175204, Note_on_c, 54
1, 175204, Note_on_c, 59
1, 175204, Note_on_c, 63
1, 175204, Note_on_c, 71
1, 175204, Note_on_c, 56
1, 175204, Note_on_c, 32
1, 175204, Note_on_c, 36
1, 175204, Note_on_c, 37
1, 175204, Note_on_c, 42
1, 175204, Note_on_c, 71
1, 175204, Note_on_c, 96
1, 175260, Note_off_c, 96
1, 175260, Note_off_c, 56
1, 175320, Note_off_c, 42
1, 175324, Note_on_c, 61
1, 175324, Note_on_c, 96
1, 175380, Note_off_c, 96
1, 175384, Note_off_c, 61
1, 175440, Note_off_c, 71
1, 175440, Note_off_c, 37
1, 175440, Note_off_c, 36
1, 175440, Note_off_c, 32
1, 175440, Note_off_c, 71
1, 175440, Note_off_c, 63
1, 175440, Note_off_c, 59
1, 175440, Note_off_c, 54
1, 175440, Note_off_c, 63
1, 175440, Note_off_c, 59
1, 175440, Note_off_c, 54
1, 175444, Note_on_c, 52
1, 175444, Note_on_c, 57
1, 175444, Note_on_c, 61
1, 175444, Note_on_c, 33
1, 175444, Note_on_c, 52
1, 175444, Note_on_c, 57
1, 175444, Note_on_c, 61
1, 175444, Note_on_c, 71
1, 175444, Note_on_c, 68
1, 175444, Note_on_c, 29
1, 175444, Note_on_c, 42
1, 175444, Note_on_c, 82
1, 175444, Note_on_c, 71
1, 175444, Note_on_c, 96
1, 175484, Note_off_c, 82
1, 175504, Note_off_c, 96
1, 175504, Note_off_c, 68
1, 175560, Note_off_c, 42
1, 175564, Note_on_c, 73
1, 175564, Note_on_c, 42
1, 175564, Note_on_c, 96
1, 175624, Note_off_c, 96
1, 175680, Note_off_c, 42
1, 175680, Note_off_c, 73
1, 175680, Note_off_c, 71
1, 175680, Note_off_c, 29
1, 175680, Note_off_c, 71
1, 175680, Note_off_c, 61
1, 175680, Note_off_c, 57
1, 175680, Note_off_c, 52
1, 175680, Note_off_c, 33
1, 175680, Note_off_c, 61
1, 175680, Note_off_c, 57
1, 175680, Note_off_c, 52
1, 175684, Note_on_c, 73
1, 175684, Note_on_c, 32
1, 175684, Note_on_c, 36
1, 175684, Note_on_c, 42
1, 175684, Note_on_c, 96
1, 175740, Note_off_c, 96
1, 175740, Note_off_c, 73
1, 175800, Note_off_c, 42
1, 175804, Note_on_c, 68
1, 175804, Note_on_c, 70
1, 175804, Note_on_c, 96
1, 175860, Note_off_c, 96
1, 175860, Note_off_c, 68
1, 175920, Note_off_c, 36
1, 175920, Note_off_c, 32
1, 175924, Note_on_c, 52
1, 175924, Note_on_c, 57
1, 175924, Note_on_c, 61
1, 175924, Note_on_c, 33
1, 175924, Note_on_c, 52
1, 175924, Note_on_c, 57
1, 175924, Note_on_c, 61
1, 175924, Note_on_c, 85
1, 175924, Note_on_c, 73
1, 175924, Note_on_c, 42
1, 175924, Note_on_c, 82
1, 175924, Note_on_c, 85
1, 175924, Note_on_c, 96
1, 175964, Note_off_c, 82
1, 175980, Note_off_c, 73
1, 175984, Note_off_c, 96
1, 176040, Note_off_c, 42
1, 176040, Note_off_c, 70
1, 176044, Note_on_c, 81
1, 176044, Note_on_c, 42
1, 176044, Note_on_c, 96
1, 176104, Note_off_c, 96
1, 176160, Note_off_c, 42
1, 176160, Note_off_c, 81
1, 176160, Note_off_c, 85
1, 176160, Note_off_c, 85
1, 176160, Note_off_c, 61
1, 176160, Note_off_c, 57
1, 176160, Note_off_c, 52
1, 176160, Note_off_c, 33
1, 176160, Note_off_c, 61
1, 176160, Note_off_c, 57
1, 176160, Note_off_c, 52
1, 176164, Note_on_c, 52
1, 176164, Note_on_c, 57
1, 176164, Note_on_c, 61
1, 176164, Note_on_c, 52
1, 176164, Note_on_c, 57
1, 176164, Note_on_c, 61
1, 176164, Note_on_c, 83
1, 176164, Note_on_c, 73
1, 176164, Note_on_c, 32
1, 176164, Note_on_c, 36
1, 176164, Note_on_c, 37
1, 176164, Note_on_c, 42
1, 176164, Note_on_c, 83
1, 176164, Note_on_c, 96
1, 176224, Note_off_c, 96
1, 176224, Note_off_c, 73
1, 176280, Note_off_c, 42
1, 176284, Note_on_c, 68
1, 176284, Note_on_c, 96
1, 176340, Note_off_c, 96
1, 176400, Note_off_c, 68
1, 176400, Note_off_c, 83
1, 176400, Note_off_c, 37
1, 176400, Note_off_c, 36
1, 176400, Note_off_c, 32
1, 176400, Note_off_c, 83
1, 176400, Note_off_c, 61
1, 176400, Note_off_c, 57
1, 176400, Note_off_c, 52
1, 176400, Note_off_c, 61
1, 176400, Note_off_c, 57
1, 176400, Note_off_c, 52
1, 176404, Note_on_c, 52
1, 176404, Note_on_c, 57
1, 176404, Note_on_c, 61
1, 176404, Note_on_c, 33
1, 176404, Note_on_c, 52
1, 176404, Note_on_c, 57
1, 176404, Note_on_c, 61
1, 176404, Note_on_c, 80
1, 176404, Note_on_c, 73
1, 176404, Note_on_c, 42
1, 176404, Note_on_c, 82
1, 176404, Note_on_c, 80
1, 176404, Note_on_c, 96
1, 176444, Note_off_c, 82
1, 176460, Note_off_c, 96
1, 176464, Note_off_c, 73
1, 176520, Note_off_c, 42
1, 176524, Note_on_c, 64
1, 176524, Note_on_c, 42
1, 176524, Note_on_c, 96
1, 176580, Note_off_c, 96
1, 176584, Note_off_c, 64
1, 176640, Note_off_c, 42
1, 176640, Note_off_c, 80
1, 176640, Note_off_c, 80
1, 176640, Note_off_c, 61
1, 176640, Note_off_c, 57
1, 176640, Note_off_c, 52
1, 176640, Note_off_c, 33
1, 176640, Note_off_c, 61
1, 176640, Note_off_c, 57
1, 176640, Note_off_c, 52
1, 176644, Note_on_c, 56
1, 176644, Note_on_c, 61
1, 176644, Note_on_c, 66
1, 176644, Note_on_c, 56
1, 176644, Note_on_c, 61
1, 176644, Note_on_c, 66
1, 176644, Note_on_c, 78
1, 176644, Note_on_c, 61
1, 176644, Note_on_c, 32
1, 176644, Note_on_c, 42
1, 176644, Note_on_c, 78
1, 176644, Note_on_c, 96
1, 176704, Note_off_c, 96
1, 176704, Note_off_c, 61
1, 176760, Note_off_c, 42
1, 176764, Note_on_c, 49
1, 176764, Note_on_c, 96
1, 176820, Note_off_c, 49
1, 176824, Note_off_c, 96
1, 176880, Note_off_c, 78
1, 176880, Note_off_c, 32
1, 176880, Note_off_c, 78
1, 176880, Note_off_c, 66
1, 176880, Note_off_c, 61
1, 176880, Note_off_c, 56
1, 176880, Note_off_c, 66
1, 176880, Note_off_c, 61
1, 176880, Note_off_c, 56
1, 176884, Note_on_c, 56
1, 176884, Note_on_c, 61
1, 176884, Note_on_c, 64
1, 176884, Note_on_c, 37
1, 176884, Note_on_c, 56
1, 176884, Note_on_c, 61
1, 176884, Note_on_c, 64
1, 176884, Note_on_c, 76
1, 176884, Note_on_c, 61
1, 176884, Note_on_c, 42
1, 176884, Note_on_c, 82
1, 176884, Note_on_c, 76
1, 176884, Note_on_c, 96
1, 176916, Note_off_c, 82
1, 176940, Note_off_c, 96
1, 176944, Note_off_c, 61
1, 177000, Note_off_c, 42
1, 177004, Note_on_c, 68
1, 177004, Note_on_c, 42
1, 177004, Note_on_c, 96
1, 177060, Note_off_c, 68
1, 177064, Note_off_c, 96
1, 177120, Note_off_c, 42
1, 177120, Note_off_c, 76
1, 177120, Note_off_c, 76
1, 177120, Note_off_c, 64
1, 177120, Note_off_c, 61
1, 177120, Note_off_c, 56
1, 177120, Note_off_c, 37
1, 177120, Note_off_c, 64
1, 177120, Note_off_c, 61
1, 177120, Note_off_c, 56
1, 177124, Note_on_c, 56
1, 177124, Note_on_c, 61
1, 177124, Note_on_c, 64
1, 177124, Note_on_c, 56
1, 177124, Note_on_c, 61
1, 177124, Note_on_c, 64
1, 177124, Note_on_c, 76
1, 177124, Note_on_c, 56
1, 177124, Note_on_c, 32
1, 177124, Note_on_c, 37
1, 177124, Note_on_c, 42
1, 177124, Note_on_c, 76
1, 177124, Note_on_c, 96
1, 177180, Note_off_c, 96
1, 177180, Note_off_c, 56
1, 177240, Note_off_c, 42
1, 177244, Note_on_c, 61
1, 177244, Note_on_c, 96
1, 177304, Note_off_c, 96
1, 177304, Note_off_c, 61
1, 177360, Note_off_c, 76
1, 177360, Note_off_c, 37
1, 177360, Note_off_c, 32
1, 177360, Note_off_c, 76
1, 177360, Note_off_c, 64
1, 177360, Note_off_c, 61
1, 177360, Note_off_c, 56
1, 177360, Note_off_c, 64
1, 177360, Note_off_c, 61
1, 177360, Note_off_c, 56
1, 177364, Note_on_c, 68
1, 177364, Note_on_c, 42
1, 177364, Note_on_c, 82
1, 177364, Note_on_c, 96
1, 177400, Note_off_c, 82
1, 177420, Note_off_c, 96
1, 177424, Note_off_c, 68
1, 177480, Note_off_c, 42
1, 177484, Note_on_c, 73
1, 177484, Note_on_c, 42
1, 177484, Note_on_c, 96
1, 177540, Note_off_c, 96
1, 177600, Note_off_c, 42
1, 177600, Note_off_c, 73
1, 177604, Note_on_c, 56
1, 177604, Note_on_c, 59
1, 177604, Note_on_c, 64
1, 177604, Note_on_c, 56
1, 177604, Note_on_c, 59
1, 177604, Note_on_c, 64
1, 177604, Note_on_c, 76
1, 177604, Note_on_c, 73
1, 177604, Note_on_c, 32
1, 177604, Note_on_c, 42
1, 177604, Note_on_c, 76
1, 177604, Note_on_c, 96
1, 177660, Note_off_c, 96
1, 177660, Note_off_c, 73
1, 177720, Note_off_c, 42
1, 177724, Note_on_c, 68
1, 177724, Note_on_c, 96
1, 177780, Note_off_c, 68
1, 177784, Note_off_c, 96
1, 177840, Note_off_c, 76
1, 177840, Note_off_c, 32
1, 177840, Note_off_c, 76
1, 177840, Note_off_c, 64
1, 177840, Note_off_c, 59
1, 177840, Note_off_c, 56
1, 177840, Note_off_c, 64
1, 177840, Note_off_c, 59
1, 177840, Note_off_c, 56
1, 177844, Note_on_c, 56
1, 177844, Note_on_c, 59
1, 177844, Note_on_c, 64
1, 177844, Note_on_c, 40
1, 177844, Note_on_c, 56
1, 177844, Note_on_c, 59
1, 177844, Note_on_c, 64
1, 177844, Note_on_c, 76
1, 177844, Note_on_c, 73
1, 177844, Note_on_c, 42
1, 177844, Note_on_c, 82
1, 177844, Note_on_c, 76
1, 177844, Note_on_c, 96
1, 177892, Note_off_c, 82
1, 177900, Note_off_c, 73
1, 177904, Note_off_c, 96
1, 177960, Note_off_c, 42
1, 177964, Note_on_c, 81
1, 177964, Note_on_c, 42
1, 177964, Note_on_c, 96
1, 178024, Note_off_c, 96
1, 178080, Note_off_c, 42
1, 178080, Note_off_c, 81
1, 178080, Note_off_c, 76
1, 178080, Note_off_c, 76
1, 178080, Note_off_c, 64
1, 178080, Note_off_c, 59
1, 178080, Note_off_c, 56
1, 178080, Note_off_c, 40
1, 178080, Note_off_c, 64
1, 178080, Note_off_c, 59
1, 178080, Note_off_c, 56
1, 178084, Note_on_c, 56
1, 178084, Note_on_c, 59
1, 178084, Note_on_c, 64
1, 178084, Note_on_c, 56
1, 178084, Note_on_c, 59
1, 178084, Note_on_c, 64
1, 178084, Note_on_c, 76
1, 178084, Note_on_c, 73
1, 178084, Note_on_c, 32
1, 178084, Note_on_c, 37
1, 178084, Note_on_c, 42
1, 178084, Note_on_c, 76
1, 178084, Note_on_c, 96
1, 178144, Note_off_c, 96
1, 178144, Note_off_c, 73
1, 178200, Note_off_c, 42
1, 178204, Note_on_c, 68
1, 178204, Note_on_c, 96
1, 178260, Note_off_c, 96
1, 178320, Note_off_c, 68
1, 178320, Note_off_c, 76
1, 178320, Note_off_c, 37
1, 178320, Note_off_c, 32
1, 178320, Note_off_c, 76
1, 178320, Note_off_c, 64
1, 178320, Note_off_c, 59
1, 178320, Note_off_c, 56
1, 178320, Note_off_c, 64
1, 178320, Note_off_c, 59
1, 178320, Note_off_c, 56
1, 178324, Note_on_c, 56
1, 178324, Note_on_c, 59
1, 178324, Note_on_c, 64
1, 178324, Note_on_c, 40
1, 178324, Note_on_c, 56
1, 178324, Note_on_c, 59
1, 178324, Note_on_c, 64
1, 178324, Note_on_c, 76
1, 178324, Note_on_c, 73
1, 178324, Note_on_c, 42
1, 178324, Note_on_c, 82
1, 178324, Note_on_c, 76
1, 178324, Note_on_c, 96
1, 178376, Note_off_c, 82
1, 178384, Note_off_c, 96
1, 178384, Note_off_c, 73
1, 178440, Note_off_c, 42
1, 178444, Note_on_c, 64
1, 178444, Note_on_c, 42
1, 178444, Note_on_c, 96
1, 178500, Note_off_c, 96
1, 178504, Note_off_c, 64
1, 178560, Note_off_c, 42
1, 178560, Note_off_c, 76
1, 178560, Note_off_c, 76
1, 178560, Note_off_c, 64
1, 178560, Note_off_c, 59
1, 178560, Note_off_c, 56
1, 178560, Note_off_c, 40
1, 178560, Note_off_c, 64
1, 178560, Note_off_c, 59
1, 178560, Note_off_c, 56
1, 178564, Note_on_c, 54
1, 178564, Note_on_c, 59
1, 178564, Note_on_c, 63
1, 178564, Note_on_c, 54
1, 178564, Note_on_c, 59
1, 178564, Note_on_c, 63
1, 178564, Note_on_c, 75
1, 178564, Note_on_c, 61
1, 178564, Note_on_c, 32
1, 178564, Note_on_c, 42
1, 178564, Note_on_c, 75
1, 178564, Note_on_c, 96
1, 178620, Note_off_c, 96
1, 178624, Note_off_c, 61
1, 178680, Note_off_c, 42
1, 178684, Note_on_c, 49
1, 178684, Note_on_c, 96
1, 178740, Note_off_c, 49
1, 178744, Note_off_c, 96
1, 178800, Note_off_c, 75
1, 178800, Note_off_c, 32
1, 178800, Note_off_c, 75
1, 178800, Note_off_c, 63
1, 178800, Note_off_c, 59
1, 178800, Note_off_c, 54
1, 178800, Note_off_c, 63
1, 178800, Note_off_c, 59
1, 178800, Note_off_c, 54
1, 178804, Note_on_c, 54
1, 178804, Note_on_c, 59
1, 178804, Note_on_c, 63
1, 178804, Note_on_c, 35
1, 178804, Note_on_c, 54
1, 178804, Note_on_c, 59
1, 178804, Note_on_c, 63
1, 178804, Note_on_c, 75
1, 178804, Note_on_c, 61
1, 178804, Note_on_c, 42
1, 178804, Note_on_c, 82
1, 178804, Note_on_c, 75
1, 178804, Note_on_c, 96
1, 178856, Note_off_c, 82
1, 178860, Note_off_c, 96
1, 178864, Note_off_c, 61
1, 178920, Note_off_c, 42
1, 178924, Note_on_c, 68
1, 178924, Note_on_c, 42
1, 178924, Note_on_c, 96
1, 178980, Note_off_c, 96
1, 178980, Note_off_c, 68
1, 179040, Note_off_c, 42
1, 179040, Note_off_c, 75
1, 179040, Note_off_c, 75
1, 179040, Note_off_c, 63
1, 179040, Note_off_c, 59
1, 179040, Note_off_c, 54
1, 179040, Note_off_c, 35
1, 179040, Note_off_c, 63
1, 179040, Note_off_c, 59
1, 179040, Note_off_c, 54
1, 179044, Note_on_c, 54
1, 179044, Note_on_c, 59
1, 179044, Note_on_c, 63
1, 179044, Note_on_c, 54
1, 179044, Note_on_c, 59
1, 179044, Note_on_c, 63
1, 179044, Note_on_c, 76
1, 179044, Note_on_c, 56
1, 179044, Note_on_c, 32
1, 179044, Note_on_c, 37
1, 179044, Note_on_c, 42
1, 179044, Note_on_c, 76
1, 179044, Note_on_c, 96
1, 179100, Note_off_c, 96
1, 179100, Note_off_c, 56
1, 179160, Note_off_c, 42
1, 179164, Note_on_c, 61
1, 179164, Note_on_c, 96
1, 179220, Note_off_c, 96
1, 179224, Note_off_c, 61
1, 179280, Note_off_c, 76
1, 179280, Note_off_c, 37
1, 179280, Note_off_c, 32
1, 179280, Note_off_c, 76
1, 179280, Note_off_c, 63
1, 179280, Note_off_c, 59
1, 179280, Note_off_c, 54
1, 179280, Note_off_c, 63
1, 179280, Note_off_c, 59
1, 179280, Note_off_c, 54
1, 179284, Note_on_c, 52
1, 179284, Note_on_c, 57
1, 179284, Note_on_c, 61
1, 179284, Note_on_c, 33
1, 179284, Note_on_c, 52
1, 179284, Note_on_c, 57
1, 179284, Note_on_c, 61
1, 179284, Note_on_c, 76
1, 179284, Note_on_c, 68
1, 179284, Note_on_c, 29
1, 179284, Note_on_c, 42
1, 179284, Note_on_c, 82
1, 179284, Note_on_c, 76
1, 179284, Note_on_c, 96
1, 179340, Note_off_c, 82
1, 179344, Note_off_c, 96
1, 179344, Note_off_c, 68
1, 179400, Note_off_c, 42
1, 179404, Note_on_c, 73
1, 179404, Note_on_c, 42
1, 179404, Note_on_c, 96
1, 179464, Note_off_c, 96
1, 179520, Note_off_c, 42
1, 179520, Note_off_c, 73
1, 179520, Note_off_c, 76
1, 179520, Note_off_c, 29
1, 179520, Note_off_c, 76
1, 179520, Note_off_c, 61
1, 179520, Note_off_c, 57
1, 179520, Note_off_c, 52
1, 179520, Note_off_c, 33
1, 179520, Note_off_c, 61
1, 179520, Note_off_c, 57
1, 179520, Note_off_c, 52
1, 179524, Note_on_c, 73
1, 179524, Note_on_c, 32
1, 179524, Note_on_c, 42
1, 179524, Note_on_c, 96
1, 179580, Note_off_c, 96
1, 179580, Note_off_c, 73
1, 179640, Note_off_c, 42
1, 179644, Note_on_c, 68
1, 179644, Note_on_c, 70
1, 179644, Note_on_c, 96
1, 179700, Note_off_c, 96
1, 179700, Note_off_c, 68
1, 179760, Note_off_c, 32
1, 179764, Note_on_c, 52
1, 179764, Note_on_c, 57
1, 179764, Note_on_c, 61
1, 179764, Note_on_c, 33
1, 179764, Note_on_c, 52
1, 179764, Note_on_c, 57
1, 179764, Note_on_c, 61
1, 179764, Note_on_c, 85
1, 179764, Note_on_c, 73
1, 179764, Note_on_c, 42
1, 179764, Note_on_c, 82
1, 179764, Note_on_c, 85
1, 179764, Note_on_c, 96
1, 179804, Note_off_c, 82
1, 179820, Note_off_c, 73
1, 179824, Note_off_c, 96
1, 179880, Note_off_c, 42
1, 179880, Note_off_c, 70
1, 179884, Note_on_c, 81
1, 179884, Note_on_c, 42
1, 179884, Note_on_c, 96
1, 179944, Note_off_c, 96
1, 180000, Note_off_c, 42
1, 180000, Note_off_c, 81
1, 180000, Note_off_c, 85
1, 180000, Note_off_c, 85
1, 180000, Note_off_c, 61
1, 180000, Note_off_c, 57
1, 180000, Note_off_c, 52
1, 180000, Note_off_c, 33
1, 180000, Note_off_c, 61
1, 180000, Note_off_c, 57
1, 180000, Note_off_c, 52
1, 180004, Note_on_c, 52
1, 180004, Note_on_c, 57
1, 180004, Note_on_c, 61
1, 180004, Note_on_c, 52
1, 180004, Note_on_c, 57
1, 180004, Note_on_c, 61
1, 180004, Note_on_c, 83
1, 180004, Note_on_c, 73
1, 180004, Note_on_c, 32
1, 180004, Note_on_c, 37
1, 180004, Note_on_c, 42
1, 180004, Note_on_c, 83
1, 180004, Note_on_c, 96
1, 180064, Note_off_c, 96
1, 180064, Note_off_c, 73
1, 180120, Note_off_c, 42
1, 180124, Note_on_c, 68
1, 180124, Note_on_c, 96
1, 180180, Note_off_c, 96
1, 180240, Note_off_c, 68
1, 180240, Note_off_c, 83
1, 180240, Note_off_c, 37
1, 180240, Note_off_c, 32
1, 180240, Note_off_c, 83
1, 180240, Note_off_c, 61
1, 180240, Note_off_c, 57
1, 180240, Note_off_c, 52
1, 180240, Note_off_c, 61
1, 180240, Note_off_c, 57
1, 180240, Note_off_c, 52
1, 180244, Note_on_c, 52
1, 180244, Note_on_c, 57
1, 180244, Note_on_c, 61
1, 180244, Note_on_c, 33
1, 180244, Note_on_c, 52
1, 180244, Note_on_c, 57
1, 180244, Note_on_c, 61
1, 180244, Note_on_c, 80
1, 180244, Note_on_c, 73
1, 180244, Note_on_c, 42
1, 180244, Note_on_c, 82
1, 180244, Note_on_c, 80
1, 180244, Note_on_c, 96
1, 180284, Note_off_c, 82
1, 180300, Note_off_c, 96
1, 180304, Note_off_c, 73
1, 180360, Note_off_c, 42
1, 180364, Note_on_c, 64
1, 180364, Note_on_c, 42
1, 180364, Note_on_c, 96
1, 180420, Note_off_c, 96
1, 180424, Note_off_c, 64
1, 180480, Note_off_c, 42
1, 180480, Note_off_c, 80
1, 180480, Note_off_c, 80
1, 180480, Note_off_c, 61
1, 180480, Note_off_c, 57
1, 180480, Note_off_c, 52
1, 180480, Note_off_c, 33
1, 180480, Note_off_c, 61
1, 180480, Note_off_c, 57
1, 180480, Note_off_c, 52
1, 180484, Note_on_c, 56
1, 180484, Note_on_c, 61
1, 180484, Note_on_c, 66
1, 180484, Note_on_c, 56
1, 180484, Note_on_c, 61
1, 180484, Note_on_c, 66
1, 180484, Note_on_c, 78
1, 180484, Note_on_c, 61
1, 180484, Note_on_c, 32
1, 180484, Note_on_c, 42
1, 180484, Note_on_c, 60
1, 180484, Note_on_c, 78
1, 180484, Note_on_c, 96
1, 180544, Note_off_c, 96
1, 180544, Note_off_c, 61
1, 180600, Note_off_c, 42
1, 180604, Note_on_c, 49
1, 180604, Note_on_c, 96
1, 180660, Note_off_c, 49
1, 180664, Note_off_c, 96
1, 180720, Note_off_c, 78
1, 180720, Note_off_c, 32
1, 180720, Note_off_c, 78
1, 180720, Note_off_c, 66
1, 180720, Note_off_c, 61
1, 180720, Note_off_c, 56
1, 180720, Note_off_c, 66
1, 180720, Note_off_c, 61
1, 180720, Note_off_c, 56
1, 180724, Note_on_c, 56
1, 180724, Note_on_c, 61
1, 180724, Note_on_c, 64
1, 180724, Note_on_c, 37
1, 180724, Note_on_c, 56
1, 180724, Note_on_c, 61
1, 180724, Note_on_c, 64
1, 180724, Note_on_c, 76
1, 180724, Note_on_c, 61
1, 180724, Note_on_c, 42
1, 180724, Note_on_c, 82
1, 180724, Note_on_c, 76
1, 180724, Note_on_c, 96
1, 180772, Note_off_c, 82
1, 180780, Note_off_c, 96
1, 180784, Note_off_c, 61
1, 180840, Note_off_c, 42
1, 180844, Note_on_c, 68
1, 180844, Note_on_c, 42
1, 180844, Note_on_c, 96
1, 180900, Note_off_c, 68
1, 180904, Note_off_c, 96
1, 180960, Note_off_c, 42
1, 180960, Note_off_c, 76
1, 180960, Note_off_c, 76
1, 180960, Note_off_c, 64
1, 180960, Note_off_c, 61
1, 180960, Note_off_c, 56
1, 180960, Note_off_c, 37
1, 180960, Note_off_c, 64
1, 180960, Note_off_c, 61
1, 180960, Note_off_c, 56
1, 180964, Note_on_c, 56
1, 180964, Note_on_c, 61
1, 180964, Note_on_c, 64
1, 180964, Note_on_c, 56
1, 180964, Note_on_c, 61
1, 180964, Note_on_c, 64
1, 180964, Note_on_c, 76
1, 180964, Note_on_c, 56
1, 180964, Note_on_c, 32
1, 180964, Note_on_c, 37
1, 180964, Note_on_c, 42
1, 180964, Note_on_c, 76
1, 180964, Note_on_c, 96
1, 181020, Note_off_c, 96
1, 181020, Note_off_c, 56
1, 181080, Note_off_c, 42
1, 181084, Note_on_c, 61
1, 181084, Note_on_c, 96
1, 181144, Note_off_c, 96
1, 181144, Note_off_c, 61
1, 181200, Note_off_c, 76
1, 181200, Note_off_c, 37
1, 181200, Note_off_c, 32
1, 181200, Note_off_c, 76
1, 181200, Note_off_c, 64
1, 181200, Note_off_c, 61
1, 181200, Note_off_c, 56
1, 181200, Note_off_c, 64
1, 181200, Note_off_c, 61
1, 181200, Note_off_c, 56
1, 181204, Note_on_c, 68
1, 181204, Note_on_c, 42
1, 181204, Note_on_c, 82
1, 181204, Note_on_c, 96
1, 181256, Note_off_c, 82
1, 181260, Note_off_c, 96
1, 181264, Note_off_c, 68
1, 181320, Note_off_c, 42
1, 181324, Note_on_c, 73
1, 181324, Note_on_c, 42
1, 181324, Note_on_c, 96
1, 181380, Note_off_c, 96
1, 181440, Note_off_c, 42
1, 181440, Note_off_c, 73
1, 181444, Note_on_c, 56
1, 181444, Note_on_c, 59
1, 181444, Note_on_c, 64
1, 181444, Note_on_c, 56
1, 181444, Note_on_c, 59
1, 181444, Note_on_c, 64
1, 181444, Note_on_c, 76
1, 181444, Note_on_c, 73
1, 181444, Note_on_c, 32
1, 181444, Note_on_c, 42
1, 181444, Note_on_c, 76
1, 181444, Note_on_c, 96
1, 181500, Note_off_c, 96
1, 181500, Note_off_c, 73
1, 181560, Note_off_c, 42
1, 181564, Note_on_c, 68
1, 181564, Note_on_c, 96
1, 181620, Note_off_c, 68
1, 181624, Note_off_c, 96
1, 181680, Note_off_c, 76
1, 181680, Note_off_c, 32
1, 181680, Note_off_c, 76
1, 181680, Note_off_c, 64
1, 181680, Note_off_c, 59
1, 181680, Note_off_c, 56
1, 181680, Note_off_c, 64
1, 181680, Note_off_c, 59
1, 181680, Note_off_c, 56
1, 181684, Note_on_c, 56
1, 181684, Note_on_c, 59
1, 181684, Note_on_c, 64
1, 181684, Note_on_c, 40
1, 181684, Note_on_c, 56
1, 181684, Note_on_c, 59
1, 181684, Note_on_c, 64
1, 181684, Note_on_c, 76
1, 181684, Note_on_c, 73
1, 181684, Note_on_c, 42
1, 181684, Note_on_c, 82
1, 181684, Note_on_c, 76
1, 181684, Note_on_c, 96
1, 181732, Note_off_c, 82
1, 181740, Note_off_c, 73
1, 181744, Note_off_c, 96
1, 181800, Note_off_c, 42
1, 181804, Note_on_c, 81
1, 181804, Note_on_c, 42
1, 181804, Note_on_c, 96
1, 181864, Note_off_c, 96
1, 181920, Note_off_c, 42
1, 181920, Note_off_c, 81
1, 181920, Note_off_c, 76
1, 181920, Note_off_c, 76
1, 181920, Note_off_c, 64
1, 181920, Note_off_c, 59
1, 181920, Note_off_c, 56
1, 181920, Note_off_c, 40
1, 181920, Note_off_c, 64
1, 181920, Note_off_c, 59
1, 181920, Note_off_c, 56
1, 181924, Note_on_c, 56
1, 181924, Note_on_c, 59
1, 181924, Note_on_c, 64
1, 181924, Note_on_c, 56
1, 181924, Note_on_c, 59
1, 181924, Note_on_c, 64
1, 181924, Note_on_c, 76
1, 181924, Note_on_c, 73
1, 181924, Note_on_c, 32
1, 181924, Note_on_c, 37
1, 181924, Note_on_c, 42
1, 181924, Note_on_c, 76
1, 181924, Note_on_c, 96
1, 181984, Note_off_c, 96
1, 181984, Note_off_c, 73
1, 182040, Note_off_c, 42
1, 182044, Note_on_c, 68
1, 182044, Note_on_c, 96
1, 182100, Note_off_c, 96
1, 182160, Note_off_c, 68
1, 182160, Note_off_c, 76
1, 182160, Note_off_c, 37
1, 182160, Note_off_c, 32
1, 182160, Note_off_c, 76
1, 182160, Note_off_c, 64
1, 182160, Note_off_c, 59
1, 182160, Note_off_c, 56
1, 182160, Note_off_c, 64
1, 182160, Note_off_c, 59
1, 182160, Note_off_c, 56
1, 182164, Note_on_c, 56
1, 182164, Note_on_c, 59
1, 182164, Note_on_c, 64
1, 182164, Note_on_c, 40
1, 182164, Note_on_c, 56
1, 182164, Note_on_c, 59
1, 182164, Note_on_c, 64
1, 182164, Note_on_c, 76
1, 182164, Note_on_c, 73
1, 182164, Note_on_c, 42
1, 182164, Note_on_c, 82
1, 182164, Note_on_c, 76
1, 182164, Note_on_c, 96
1, 182204, Note_off_c, 82
1, 182224, Note_off_c, 96
1, 182224, Note_off_c, 73
1, 182280, Note_off_c, 42
1, 182284, Note_on_c, 64
1, 182284, Note_on_c, 42
1, 182284, Note_on_c, 96
1, 182340, Note_off_c, 96
1, 182344, Note_off_c, 64
1, 182400, Note_off_c, 42
1, 182400, Note_off_c, 76
1, 182400, Note_off_c, 76
1, 182400, Note_off_c, 64
1, 182400, Note_off_c, 59
1, 182400, Note_off_c, 56
1, 182400, Note_off_c, 40
1, 182400, Note_off_c, 64
1, 182400, Note_off_c, 59
1, 182400, Note_off_c, 56
1, 182404, Note_on_c, 54
1, 182404, Note_on_c, 59
1, 182404, Note_on_c, 63
1, 182404, Note_on_c, 54
1, 182404, Note_on_c, 59
1, 182404, Note_on_c, 63
1, 182404, Note_on_c, 73
1, 182404, Note_on_c, 61
1, 182404, Note_on_c, 32
1, 182404, Note_on_c, 42
1, 182404, Note_on_c, 73
1, 182404, Note_on_c, 96
1, 182460, Note_off_c, 96
1, 182464, Note_off_c, 61
1, 182520, Note_off_c, 42
1, 182524, Note_on_c, 49
1, 182524, Note_on_c, 96
1, 182580, Note_off_c, 49
1, 182584, Note_off_c, 96
1, 182640, Note_off_c, 73
1, 182640, Note_off_c, 32
1, 182640, Note_off_c, 73
1, 182640, Note_off_c, 63
1, 182640, Note_off_c, 59
1, 182640, Note_off_c, 54
1, 182640, Note_off_c, 63
1, 182640, Note_off_c, 59
1, 182640, Note_off_c, 54
1, 182644, Note_on_c, 54
1, 182644, Note_on_c, 59
1, 182644, Note_on_c, 63
1, 182644, Note_on_c, 35
1, 182644, Note_on_c, 54
1, 182644, Note_on_c, 59
1, 182644, Note_on_c, 63
1, 182644, Note_on_c, 73
1, 182644, Note_on_c, 61
1, 182644, Note_on_c, 42
1, 182644, Note_on_c, 82
1, 182644, Note_on_c, 73
1, 182644, Note_on_c, 96
1, 182688, Note_off_c, 82
1, 182700, Note_off_c, 96
1, 182704, Note_off_c, 61
1, 182760, Note_off_c, 42
1, 182764, Note_on_c, 68
1, 182764, Note_on_c, 42
1, 182764, Note_on_c, 96
1, 182820, Note_off_c, 96
1, 182820, Note_off_c, 68
1, 182880, Note_off_c, 42
1, 182880, Note_off_c, 73
1, 182880, Note_off_c, 73
1, 182880, Note_off_c, 63
1, 182880, Note_off_c, 59
1, 182880, Note_off_c, 54
1, 182880, Note_off_c, 35
1, 182880, Note_off_c, 63
1, 182880, Note_off_c, 59
1, 182880, Note_off_c, 54
1, 182884, Note_on_c, 54
1, 182884, Note_on_c, 59
1, 182884, Note_on_c, 63
1, 182884, Note_on_c, 54
1, 182884, Note_on_c, 59
1, 182884, Note_on_c, 63
1, 182884, Note_on_c, 71
1, 182884, Note_on_c, 56
1, 182884, Note_on_c, 32
1, 182884, Note_on_c, 37
1, 182884, Note_on_c, 42
1, 182884, Note_on_c, 71
1, 182884, Note_on_c, 96
1, 182940, Note_off_c, 96
1, 182940, Note_off_c, 56
1, 183000, Note_off_c, 42
1, 183004, Note_on_c, 61
1, 183004, Note_on_c, 96
1, 183060, Note_off_c, 96
1, 183064, Note_off_c, 61
1, 183120, Note_off_c, 71
1, 183120, Note_off_c, 37
1, 183120, Note_off_c, 32
1, 183120, Note_off_c, 71
1, 183120, Note_off_c, 63
1, 183120, Note_off_c, 59
1, 183120, Note_off_c, 54
1, 183120, Note_off_c, 63
1, 183120, Note_off_c, 59
1, 183120, Note_off_c, 54
1, 183124, Note_on_c, 52
1, 183124, Note_on_c, 57
1, 183124, Note_on_c, 61
1, 183124, Note_on_c, 33
1, 183124, Note_on_c, 52
1, 183124, Note_on_c, 57
1, 183124, Note_on_c, 61
1, 183124, Note_on_c, 71
1, 183124, Note_on_c, 68
1, 183124, Note_on_c, 29
1, 183124, Note_on_c, 42
1, 183124, Note_on_c, 82
1, 183124, Note_on_c, 71
1, 183124, Note_on_c, 96
1, 183164, Note_off_c, 82
1, 183184, Note_off_c, 96
1, 183184, Note_off_c, 68
1, 183240, Note_off_c, 42
1, 183244, Note_on_c, 73
1, 183244, Note_on_c, 42
1, 183244, Note_on_c, 96
1, 183304, Note_off_c, 96
1, 183360, Note_off_c, 42
1, 183360, Note_off_c, 73
1, 183360, Note_off_c, 71
1, 183360, Note_off_c, 29
1, 183360, Note_off_c, 71
1, 183360, Note_off_c, 61
1, 183360, Note_off_c, 57
1, 183360, Note_off_c, 52
1, 183360, Note_off_c, 33
1, 183360, Note_off_c, 61
1, 183360, Note_off_c, 57
1, 183360, Note_off_c, 52
1, 183364, Note_on_c, 73
1, 183364, Note_on_c, 32
1, 183364, Note_on_c, 42
1, 183364, Note_on_c, 96
1, 183420, Note_off_c, 96
1, 183420, Note_off_c, 73
1, 183480, Note_off_c, 42
1, 183484, Note_on_c, 68
1, 183484, Note_on_c, 70
1, 183484, Note_on_c, 96
1, 183540, Note_off_c, 96
1, 183540, Note_off_c, 68
1, 183600, Note_off_c, 32
1, 183604, Note_on_c, 52
1, 183604, Note_on_c, 57
1, 183604, Note_on_c, 61
1, 183604, Note_on_c, 33
1, 183604, Note_on_c, 52
1, 183604, Note_on_c, 57
1, 183604, Note_on_c, 61
1, 183604, Note_on_c, 85
1, 183604, Note_on_c, 73
1, 183604, Note_on_c, 42
1, 183604, Note_on_c, 82
1, 183604, Note_on_c, 85
1, 183604, Note_on_c, 96
1, 183644, Note_off_c, 82
1, 183660, Note_off_c, 73
1, 183664, Note_off_c, 96
1, 183720, Note_off_c, 42
1, 183720, Note_off_c, 70
1, 183724, Note_on_c, 81
1, 183724, Note_on_c, 42
1, 183724, Note_on_c, 96
1, 183784, Note_off_c, 96
1, 183840, Note_off_c, 42
1, 183840, Note_off_c, 81
1, 183840, Note_off_c, 85
1, 183840, Note_off_c, 85
1, 183840, Note_off_c, 61
1, 183840, Note_off_c, 57
1, 183840, Note_off_c, 52
1, 183840, Note_off_c, 33
1, 183840, Note_off_c, 61
1, 183840, Note_off_c, 57
1, 183840, Note_off_c, 52
1, 183844, Note_on_c, 52
1, 183844, Note_on_c, 57
1, 183844, Note_on_c, 61
1, 183844, Note_on_c, 52
1, 183844, Note_on_c, 57
1, 183844, Note_on_c, 61
1, 183844, Note_on_c, 83
1, 183844, Note_on_c, 73
1, 183844, Note_on_c, 32
1, 183844, Note_on_c, 37
1, 183844, Note_on_c, 42
1, 183844, Note_on_c, 83
1, 183844, Note_on_c, 96
1, 183904, Note_off_c, 96
1, 183904, Note_off_c, 73
1, 183960, Note_off_c, 42
1, 183964, Note_on_c, 68
1, 183964, Note_on_c, 96
1, 184020, Note_off_c, 96
1, 184080, Note_off_c, 68
1, 184080, Note_off_c, 83
1, 184080, Note_off_c, 37
1, 184080, Note_off_c, 32
1, 184080, Note_off_c, 83
1, 184080, Note_off_c, 61
1, 184080, Note_off_c, 57
1, 184080, Note_off_c, 52
1, 184080, Note_off_c, 61
1, 184080, Note_off_c, 57
1, 184080, Note_off_c, 52
1, 184084, Note_on_c, 52
1, 184084, Note_on_c, 57
1, 184084, Note_on_c, 61
1, 184084, Note_on_c, 33
1, 184084, Note_on_c, 52
1, 184084, Note_on_c, 57
1, 184084, Note_on_c, 61
1, 184084, Note_on_c, 80
1, 184084, Note_on_c, 73
1, 184084, Note_on_c, 42
1, 184084, Note_on_c, 82
1, 184084, Note_on_c, 80
1, 184084, Note_on_c, 96
1, 184124, Note_off_c, 82
1, 184140, Note_off_c, 96
1, 184144, Note_off_c, 73
1, 184200, Note_off_c, 42
1, 184204, Note_on_c, 64
1, 184204, Note_on_c, 42
1, 184204, Note_on_c, 96
1, 184260, Note_off_c, 96
1, 184264, Note_off_c, 64
1, 184320, Note_off_c, 42
1, 184320, Note_off_c, 80
1, 184320, Note_off_c, 80
1, 184320, Note_off_c, 61
1, 184320, Note_off_c, 57
1, 184320, Note_off_c, 52
1, 184320, Note_off_c, 33
1, 184320, Note_off_c, 61
1, 184320, Note_off_c, 57
1, 184320, Note_off_c, 52
1, 184320, Note_off_c, 60
1, 184324, Note_on_c, 32
1, 184324, Note_on_c, 72
1, 184324, Note_on_c, 84
1, 184440, Note_off_c, 32
1, 184564, Note_on_c, 52
1, 184564, Note_on_c, 57
1, 184564, Note_on_c, 61
1, 184564, Note_on_c, 52
1, 184564, Note_on_c, 57
1, 184564, Note_on_c, 61
1, 184564, Note_on_c, 68
1, 184564, Note_on_c, 68
1, 184800, Note_off_c, 68
1, 184800, Note_off_c, 68
1, 184800, Note_off_c, 61
1, 184800, Note_off_c, 57
1, 184800, Note_off_c, 52
1, 184800, Note_off_c, 61
1, 184800, Note_off_c, 57
1, 184800, Note_off_c, 52
1, 184804, Note_on_c, 32
1, 184920, Note_off_c, 32
1, 185044, Note_on_c, 52
1, 185044, Note_on_c, 57
1, 185044, Note_on_c, 61
1, 185044, Note_on_c, 52
1, 185044, Note_on_c, 57
1, 185044, Note_on_c, 61
1, 185044, Note_on_c, 68
1, 185044, Note_on_c, 68
1, 185280, Note_off_c, 68
1, 185280, Note_off_c, 68
1, 185280, Note_off_c, 61
1, 185280, Note_off_c, 57
1, 185280, Note_off_c, 52
1, 185280, Note_off_c, 61
1, 185280, Note_off_c, 57
1, 185280, Note_off_c, 52
1, 185284, Note_on_c, 32
1, 185400, Note_off_c, 32
1, 185520, Note_off_c, 84
1, 185524, Note_on_c, 52
1, 185524, Note_on_c, 57
1, 185524, Note_on_c, 61
1, 185524, Note_on_c, 52
1, 185524, Note_on_c, 57
1, 185524, Note_on_c, 61
1, 185524, Note_on_c, 68
1, 185524, Note_on_c, 68
1, 185760, Note_off_c, 68
1, 185760, Note_off_c, 68
1, 185760, Note_off_c, 61
1, 185760, Note_off_c, 57
1, 185760, Note_off_c, 52
1, 185760, Note_off_c, 61
1, 185760, Note_off_c, 57
1, 185760, Note_off_c, 52
1, 185764, Note_on_c, 32
1, 185880, Note_off_c, 32
1, 186004, Note_on_c, 52
1, 186004, Note_on_c, 57
1, 186004, Note_on_c, 61
1, 186004, Note_on_c, 52
1, 186004, Note_on_c, 57
1, 186004, Note_on_c, 61
1, 186004, Note_on_c, 68
1, 186004, Note_on_c, 68
1, 186240, Note_off_c, 68
1, 186240, Note_off_c, 68
1, 186240, Note_off_c, 61
1, 186240, Note_off_c, 57
1, 186240, Note_off_c, 52
1, 186240, Note_off_c, 61
1, 186240, Note_off_c, 57
1, 186240, Note_off_c, 52
1, 186244, Note_on_c, 32
1, 186360, Note_off_c, 32
1, 186484, Note_on_c, 52
1, 186484, Note_on_c, 57
1, 186484, Note_on_c, 61
1, 186484, Note_on_c, 52
1, 186484, Note_on_c, 57
1, 186484, Note_on_c, 61
1, 186484, Note_on_c, 68
1, 186484, Note_on_c, 68
1, 186600, Note_off_c, 68
1, 186600, Note_off_c, 68
1, 186720, Note_off_c, 61
1, 186720, Note_off_c, 57
1, 186720, Note_off_c, 52
1, 186720, Note_off_c, 61
1, 186720, Note_off_c, 57
1, 186720, Note_off_c, 52
1, 186724, Note_on_c, 32
1, 186840, Note_off_c, 32
1, 186964, Note_on_c, 52
1, 186964, Note_on_c, 57
1, 186964, Note_on_c, 61
1, 186964, Note_on_c, 52
1, 186964, Note_on_c, 57
1, 186964, Note_on_c, 61
1, 186964, Note_on_c, 68
1, 186964, Note_on_c, 68
1, 187080, Note_off_c, 68
1, 187080, Note_off_c, 68
1, 187200, Note_off_c, 61
1, 187200, Note_off_c, 57
1, 187200, Note_off_c, 52
1, 187200, Note_off_c, 61
1, 187200, Note_off_c, 57
1, 187200, Note_off_c, 52
1, 187204, Note_on_c, 32
1, 187320, Note_off_c, 32
1, 187444, Note_on_c, 52
1, 187444, Note_on_c, 57
1, 187444, Note_on_c, 61
1, 187444, Note_on_c, 52
1, 187444, Note_on_c, 57
1, 187444, Note_on_c, 61
1, 187444, Note_on_c, 68
1, 187444, Note_on_c, 68
1, 187680, Note_off_c, 68
1, 187680, Note_off_c, 68
1, 187680, Note_off_c, 61
1, 187680, Note_off_c, 57
1, 187680, Note_off_c, 52
1, 187680, Note_off_c, 61
1, 187680, Note_off_c, 57
1, 187680, Note_off_c, 52
1, 187684, Note_on_c, 32
1, 187800, Note_off_c, 32
1, 187924, Note_on_c, 52
1, 187924, Note_on_c, 57
1, 187924, Note_on_c, 61
1, 187924, Note_on_c, 52
1, 187924, Note_on_c, 57
1, 187924, Note_on_c, 61
1, 187924, Note_on_c, 68
1, 187924, Note_on_c, 68
1, 188040, Note_off_c, 68
1, 188040, Note_off_c, 68
1, 188160, Note_off_c, 61
1, 188160, Note_off_c, 57
1, 188160, Note_off_c, 52
1, 188160, Note_off_c, 61
1, 188160, Note_off_c, 57
1, 188160, Note_off_c, 52
1, 188164, Note_on_c, 32
1, 188280, Note_off_c, 32
1, 188404, Note_on_c, 52
1, 188404, Note_on_c, 57
1, 188404, Note_on_c, 61
1, 188404, Note_on_c, 52
1, 188404, Note_on_c, 57
1, 188404, Note_on_c, 61
1, 188404, Note_on_c, 68
1, 188404, Note_on_c, 68
1, 188640, Note_off_c, 68
1, 188640, Note_off_c, 68
1, 188640, Note_off_c, 61
1, 188640, Note_off_c, 57
1, 188640, Note_off_c, 52
1, 188640, Note_off_c, 61
1, 188640, Note_off_c, 57
1, 188640, Note_off_c, 52
1, 188644, Note_on_c, 32
1, 188760, Note_off_c, 32
1, 188884, Note_on_c, 52
1, 188884, Note_on_c, 57
1, 188884, Note_on_c, 61
1, 188884, Note_on_c, 52
1, 188884, Note_on_c, 57
1, 188884, Note_on_c, 61
1, 188884, Note_on_c, 68
1, 188884, Note_on_c, 68
1, 189120, Note_off_c, 68
1, 189120, Note_off_c, 68
1, 189120, Note_off_c, 61
1, 189120, Note_off_c, 57
1, 189120, Note_off_c, 52
1, 189120, Note_off_c, 61
1, 189120, Note_off_c, 57
1, 189120, Note_off_c, 52
1, 189124, Note_on_c, 32
1, 189240, Note_off_c, 32
1, 189364, Note_on_c, 52
1, 189364, Note_on_c, 57
1, 189364, Note_on_c, 61
1, 189364, Note_on_c, 52
1, 189364, Note_on_c, 57
1, 189364, Note_on_c, 61
1, 189364, Note_on_c, 68
1, 189364, Note_on_c, 68
1, 189600, Note_off_c, 68
1, 189600, Note_off_c, 68
1, 189600, Note_off_c, 61
1, 189600, Note_off_c, 57
1, 189600, Note_off_c, 52
1, 189600, Note_off_c, 61
1, 189600, Note_off_c, 57
1, 189600, Note_off_c, 52
1, 189604, Note_on_c, 32
1, 189720, Note_off_c, 32
1, 189844, Note_on_c, 52
1, 189844, Note_on_c, 57
1, 189844, Note_on_c, 61
1, 189844, Note_on_c, 52
1, 189844, Note_on_c, 57
1, 189844, Note_on_c, 61
1, 189844, Note_on_c, 68
1, 189844, Note_on_c, 68
1, 189960, Note_off_c, 68
1, 189960, Note_off_c, 68
1, 190080, Note_off_c, 61
1, 190080, Note_off_c, 57
1, 190080, Note_off_c, 52
1, 190080, Note_off_c, 61
1, 190080, Note_off_c, 57
1, 190080, Note_off_c, 52
1, 191640, Note_off_c, 72
1, 191640, End_track
