0, 0, Header, 0, 1, 480
1, 0, Start_track
1, 0, Title_t, "Avicii - Levels"
1, 0, Copyright_t, "Midistern"
1, 0, Cue_point_t, "$Lyrc:1:0:L1"
1, 0, Time_signature, 4, 2, 24, 8
1, 0, Key_signature, 0, "major"
1, 0, Tempo, 476190
1, 200, System_exclusive, 8, 67, 16, 76, 0, 0, 126, 0, 247
1, 478, Control_c, 0, 0, 0
1, 480, Control_c, 0, 32, 0
1, 482, Program_c, 0, 2
1, 483, Control_c, 0, 7, 110
1, 484, Control_c, 0, 10, 64
1, 485, Control_c, 0, 11, 127
1, 486, Control_c, 0, 71, 64
1, 487, Control_c, 0, 72, 64
1, 488, Control_c, 0, 73, 64
1, 488, Control_c, 1, 0, 0
1, 489, Control_c, 0, 74, 64
1, 490, Control_c, 1, 32, 0
1, 492, Program_c, 1, 39
1, 493, Control_c, 1, 7, 120
1, 494, Control_c, 1, 10, 64
1, 495, Control_c, 1, 11, 127
1, 496, Control_c, 1, 71, 64
1, 497, Control_c, 1, 72, 64
1, 498, Control_c, 1, 73, 64
1, 498, Control_c, 2, 0, 0
1, 499, Control_c, 1, 74, 64
1, 500, Lyric_t, "Avicii "
1, 500, Control_c, 2, 32, 0
1, 502, Program_c, 2, 90
1, 503, Control_c, 2, 7, 110
1, 504, Control_c, 2, 10, 35
1, 505, Lyric_t, "\015"
1, 505, Control_c, 2, 11, 127
1, 506, Control_c, 2, 71, 64
1, 507, Control_c, 2, 72, 64
1, 508, Control_c, 2, 73, 64
1, 508, Control_c, 3, 0, 0
1, 509, Control_c, 2, 74, 64
1, 510, Lyric_t, "Levels "
1, 510, Control_c, 3, 32, 0
1, 512, Program_c, 3, 71
1, 513, Control_c, 3, 7, 120
1, 514, Control_c, 3, 10, 64
1, 515, Lyric_t, "\015"
1, 515, Control_c, 3, 11, 127
1, 516, Control_c, 3, 71, 64
1, 517, Control_c, 3, 72, 64
1, 518, Control_c, 3, 73, 64
1, 518, Control_c, 4, 0, 0
1, 519, Control_c, 3, 74, 64
1, 520, Control_c, 4, 32, 0
1, 522, Program_c, 4, 45
1, 523, Control_c, 4, 7, 100
1, 524, Control_c, 4, 10, 84
1, 525, Control_c, 4, 11, 127
1, 526, Control_c, 4, 71, 64
1, 527, Control_c, 4, 72, 64
1, 528, Control_c, 4, 73, 64
1, 528, Control_c, 5, 0, 0
1, 529, Control_c, 4, 74, 64
1, 530, Control_c, 5, 32, 0
1, 532, Program_c, 5, 50
1, 533, Control_c, 5, 7, 80
1, 534, Control_c, 5, 10, 31
1, 535, Control_c, 5, 11, 65
1, 536, Control_c, 5, 71, 64
1, 537, Control_c, 5, 72, 64
1, 538, Control_c, 5, 73, 64
1, 538, Control_c, 6, 0, 0
1, 539, Control_c, 5, 74, 64
1, 540, Control_c, 6, 32, 0
1, 542, Program_c, 6, 80
1, 543, Control_c, 6, 5, 50
1, 544, Control_c, 6, 7, 90
1, 545, Control_c, 6, 10, 98
1, 546, Control_c, 6, 11, 127
1, 547, Control_c, 6, 65, 1
1, 548, Control_c, 6, 71, 64
1, 549, Control_c, 6, 72, 64
1, 550, Control_c, 6, 73, 64
1, 550, Control_c, 7, 0, 0
1, 551, Control_c, 6, 74, 64
1, 552, Control_c, 7, 32, 0
1, 554, Program_c, 7, 87
1, 555, Control_c, 7, 7, 80
1, 556, Control_c, 7, 10, 45
1, 557, Control_c, 7, 11, 127
1, 558, Control_c, 7, 71, 64
1, 559, Control_c, 7, 72, 64
1, 560, Control_c, 7, 73, 64
1, 560, Control_c, 8, 0, 0
1, 561, Control_c, 7, 74, 64
1, 562, Control_c, 8, 32, 0
1, 564, Program_c, 8, 119
1, 565, Control_c, 8, 7, 120
1, 566, Control_c, 8, 10, 64
1, 567, Control_c, 8, 11, 127
1, 568, Control_c, 8, 71, 64
1, 569, Control_c, 8, 72, 64
1, 570, Control_c, 8, 73, 64
1, 570, Control_c, 9, 0, 127
1, 571, Control_c, 8, 74, 64
1, 572, Control_c, 9, 32, 0
1, 574, Program_c, 9, 0
1, 575, Control_c, 9, 7, 127
1, 576, Control_c, 9, 10, 65
1, 577, Control_c, 9, 11, 127
1, 578, Control_c, 9, 71, 64
1, 579, Control_c, 9, 72, 64
1, 580, Control_c, 9, 73, 64
1, 580, Control_c, 10, 0, 0
1, 581, Control_c, 9, 74, 64
1, 582, Control_c, 10, 32, 0
1, 584, Program_c, 10, 122
1, 585, Control_c, 10, 7, 127
1, 586, Control_c, 10, 10, 79
1, 587, Control_c, 10, 11, 127
1, 588, Control_c, 10, 71, 64
1, 589, Control_c, 10, 72, 64
1, 590, Control_c, 10, 73, 44
1, 591, Control_c, 10, 74, 64
1, 591, Control_c, 11, 0, 0
1, 592, Control_c, 10, 75, 44
1, 593, Control_c, 11, 32, 0
1, 595, Program_c, 11, 4
1, 596, Control_c, 11, 7, 110
1, 597, Control_c, 11, 10, 47
1, 598, Control_c, 11, 11, 127
1, 599, Control_c, 11, 71, 64
1, 600, Control_c, 11, 72, 64
1, 601, Control_c, 11, 73, 64
1, 601, Control_c, 12, 0, 0
1, 602, Control_c, 11, 74, 64
1, 603, Control_c, 12, 32, 0
1, 605, Program_c, 12, 48
1, 606, Control_c, 12, 7, 100
1, 607, Control_c, 12, 10, 109
1, 608, Control_c, 12, 11, 127
1, 609, Control_c, 12, 71, 64
1, 610, Control_c, 12, 72, 64
1, 611, Control_c, 12, 73, 64
1, 611, Control_c, 13, 0, 0
1, 612, Control_c, 12, 74, 64
1, 613, Control_c, 13, 32, 0
1, 615, Program_c, 13, 121
1, 616, Control_c, 13, 7, 120
1, 617, Control_c, 13, 10, 31
1, 618, Control_c, 13, 11, 127
1, 619, Control_c, 13, 71, 64
1, 620, Control_c, 13, 72, 64
1, 621, Control_c, 13, 73, 64
1, 621, Control_c, 14, 0, 0
1, 622, Control_c, 13, 74, 64
1, 623, Control_c, 14, 32, 0
1, 625, Program_c, 14, 0
1, 626, Control_c, 14, 101, 0
1, 626, Control_c, 14, 100, 0
1, 626, Control_c, 14, 6, 24
1, 626, Control_c, 14, 38, 0
1, 627, Control_c, 14, 7, 120
1, 628, Control_c, 14, 10, 93
1, 629, Control_c, 14, 11, 127
1, 630, Control_c, 14, 71, 64
1, 631, Control_c, 14, 72, 64
1, 632, Control_c, 14, 73, 64
1, 632, Control_c, 15, 0, 0
1, 633, Control_c, 14, 74, 64
1, 634, Control_c, 15, 32, 0
1, 636, Program_c, 15, 127
1, 637, Control_c, 15, 7, 120
1, 638, Control_c, 15, 10, 64
1, 639, Control_c, 15, 11, 127
1, 640, Control_c, 15, 71, 64
1, 641, Control_c, 15, 72, 64
1, 642, Control_c, 15, 73, 64
1, 643, Control_c, 15, 74, 44
1, 644, System_exclusive, 8, 67, 16, 76, 2, 1, 88, 65, 247
1, 649, System_exclusive, 8, 67, 16, 76, 2, 1, 89, 29, 247
1, 654, System_exclusive, 8, 67, 16, 76, 2, 1, 90, 1, 247
1, 659, System_exclusive, 8, 67, 16, 76, 8, 0, 24, 33, 247
1, 664, System_exclusive, 8, 67, 16, 76, 8, 0, 25, 36, 247
1, 669, System_exclusive, 8, 67, 16, 76, 8, 7, 24, 42, 247
1, 674, System_exclusive, 8, 67, 16, 76, 8, 14, 35, 88, 247
1, 679, System_exclusive, 8, 67, 16, 76, 8, 15, 24, 44, 247
1, 684, Control_c, 0, 91, 40
1, 685, Control_c, 0, 93, 20
1, 686, Control_c, 0, 94, 0
1, 687, Control_c, 1, 91, 0
1, 688, Control_c, 1, 93, 10
1, 689, Control_c, 1, 94, 0
1, 690, Control_c, 2, 91, 40
1, 691, Control_c, 2, 93, 0
1, 692, Control_c, 2, 94, 0
1, 693, Control_c, 3, 91, 100
1, 694, Control_c, 3, 93, 0
1, 695, Control_c, 3, 94, 21
1, 696, Control_c, 4, 91, 30
1, 697, Control_c, 4, 93, 0
1, 698, Control_c, 4, 94, 0
1, 699, Control_c, 5, 91, 50
1, 700, Control_c, 5, 93, 30
1, 701, Control_c, 5, 94, 0
1, 702, Control_c, 6, 91, 0
1, 703, Control_c, 6, 93, 0
1, 704, Control_c, 6, 94, 0
1, 705, Control_c, 7, 91, 30
1, 706, Control_c, 7, 93, 30
1, 707, Control_c, 7, 94, 0
1, 708, Control_c, 8, 91, 84
1, 709, Control_c, 8, 93, 0
1, 710, Control_c, 8, 94, 0
1, 711, Control_c, 9, 91, 30
1, 712, Control_c, 9, 93, 0
1, 713, Control_c, 9, 94, 0
1, 714, Control_c, 10, 91, 60
1, 715, Control_c, 10, 93, 0
1, 716, Control_c, 10, 94, 0
1, 717, Control_c, 11, 91, 50
1, 718, Control_c, 11, 93, 40
1, 719, Control_c, 11, 94, 0
1, 720, Control_c, 12, 91, 40
1, 721, Control_c, 12, 93, 0
1, 722, Control_c, 12, 94, 0
1, 723, Control_c, 13, 91, 72
1, 724, Control_c, 13, 93, 19
1, 725, Control_c, 13, 94, 0
1, 726, Control_c, 14, 91, 0
1, 727, Control_c, 14, 93, 0
1, 728, Control_c, 14, 94, 0
1, 729, Control_c, 15, 91, 109
1, 730, Control_c, 15, 93, 0
1, 731, Control_c, 15, 94, 0
1, 1920, Note_on_c, 9, 42, 84
1, 1980, Note_on_c, 9, 42, 0
1, 2400, Note_on_c, 9, 42, 64
1, 2460, Note_on_c, 9, 42, 0
1, 2880, Note_on_c, 9, 42, 64
1, 2940, Note_on_c, 9, 42, 0
1, 3360, Note_on_c, 9, 42, 64
1, 3420, Note_on_c, 9, 42, 0
1, 3840, Note_on_c, 5, 64, 100
1, 3840, Note_on_c, 5, 66, 100
1, 3840, Note_on_c, 5, 68, 100
1, 3840, Note_on_c, 5, 73, 100
1, 3840, Note_on_c, 5, 80, 100
1, 3840, Note_on_c, 9, 36, 118
1, 3840, Note_on_c, 9, 49, 118
1, 3840, Note_on_c, 15, 36, 127
1, 4076, Note_on_c, 9, 49, 0
1, 4076, Note_on_c, 9, 36, 0
1, 4080, Control_c, 5, 11, 116
1, 4320, Control_c, 5, 11, 72
1, 4320, Note_on_c, 9, 49, 104
1, 4556, Note_on_c, 9, 49, 0
1, 4560, Control_c, 5, 11, 116
1, 4800, Control_c, 5, 11, 65
1, 4800, Note_on_c, 9, 49, 89
1, 5036, Note_on_c, 9, 49, 0
1, 5040, Control_c, 5, 11, 109
1, 5280, Control_c, 5, 11, 64
1, 5280, Note_on_c, 9, 49, 75
1, 5516, Note_on_c, 9, 49, 0
1, 5520, Control_c, 5, 11, 111
1, 5756, Note_on_c, 15, 36, 0
1, 5760, Control_c, 5, 11, 62
1, 5760, Note_on_c, 9, 49, 61
1, 5996, Note_on_c, 9, 49, 0
1, 6000, Control_c, 5, 11, 113
1, 6240, Control_c, 5, 11, 58
1, 6240, Note_on_c, 9, 49, 46
1, 6476, Note_on_c, 9, 49, 0
1, 6480, Control_c, 5, 11, 109
1, 6720, Control_c, 5, 11, 56
1, 6720, Note_on_c, 9, 49, 32
1, 6956, Note_on_c, 9, 49, 0
1, 6960, Control_c, 5, 11, 111
1, 7200, Control_c, 5, 11, 64
1, 7200, Note_on_c, 9, 49, 18
1, 7436, Note_on_c, 9, 49, 0
1, 7440, Control_c, 5, 11, 111
1, 7680, Control_c, 5, 11, 57
1, 7920, Control_c, 5, 11, 108
1, 8160, Control_c, 5, 11, 47
1, 8400, Control_c, 5, 11, 98
1, 8640, Control_c, 5, 11, 38
1, 8880, Control_c, 5, 11, 89
1, 9120, Control_c, 5, 11, 29
1, 9360, Control_c, 5, 11, 80
1, 9600, Control_c, 5, 11, 19
1, 9840, Control_c, 5, 11, 70
1, 10080, Control_c, 5, 11, 10
1, 10080, Note_on_c, 8, 60, 100
1, 10320, Control_c, 5, 11, 61
1, 10560, Control_c, 5, 11, 4
1, 10800, Control_c, 5, 11, 55
1, 11040, Control_c, 5, 11, 0
1, 11280, Control_c, 5, 11, 25
1, 11516, Note_on_c, 8, 60, 0
1, 11516, Note_on_c, 5, 80, 0
1, 11516, Note_on_c, 5, 73, 0
1, 11516, Note_on_c, 5, 68, 0
1, 11516, Note_on_c, 5, 66, 0
1, 11516, Note_on_c, 5, 64, 0
1, 11520, Note_on_c, 0, 56, 100
1, 11520, Note_on_c, 0, 61, 100
1, 11520, Note_on_c, 0, 66, 100
1, 11520, Note_on_c, 2, 56, 100
1, 11520, Note_on_c, 2, 61, 100
1, 11520, Note_on_c, 2, 66, 100
1, 11520, Note_on_c, 4, 78, 127
1, 11520, Control_c, 5, 11, 0
1, 11520, Note_on_c, 9, 32, 100
1, 11520, Note_on_c, 13, 78, 127
1, 11520, Note_on_c, 15, 48, 100
1, 11756, Note_on_c, 13, 78, 0
1, 11756, Note_on_c, 9, 32, 0
1, 11756, Note_on_c, 4, 78, 0
1, 11756, Note_on_c, 2, 66, 0
1, 11756, Note_on_c, 2, 61, 0
1, 11756, Note_on_c, 2, 56, 0
1, 11756, Note_on_c, 0, 66, 0
1, 11756, Note_on_c, 0, 61, 0
1, 11756, Note_on_c, 0, 56, 0
1, 11760, Note_on_c, 0, 56, 100
1, 11760, Note_on_c, 0, 61, 100
1, 11760, Note_on_c, 0, 64, 100
1, 11760, Note_on_c, 2, 56, 100
1, 11760, Note_on_c, 2, 61, 100
1, 11760, Note_on_c, 2, 64, 100
1, 11760, Note_on_c, 4, 76, 118
1, 11760, Note_on_c, 13, 76, 118
1, 11996, Note_on_c, 13, 76, 0
1, 11996, Note_on_c, 4, 76, 0
1, 11996, Note_on_c, 2, 64, 0
1, 11996, Note_on_c, 2, 61, 0
1, 11996, Note_on_c, 2, 56, 0
1, 11996, Note_on_c, 0, 64, 0
1, 11996, Note_on_c, 0, 61, 0
1, 11996, Note_on_c, 0, 56, 0
1, 12000, Note_on_c, 0, 56, 100
1, 12000, Note_on_c, 0, 61, 100
1, 12000, Note_on_c, 0, 64, 100
1, 12000, Note_on_c, 2, 56, 100
1, 12000, Note_on_c, 2, 61, 100
1, 12000, Note_on_c, 2, 64, 100
1, 12000, Note_on_c, 4, 76, 119
1, 12000, Note_on_c, 9, 32, 100
1, 12000, Note_on_c, 13, 76, 119
1, 12236, Note_on_c, 13, 76, 0
1, 12236, Note_on_c, 9, 32, 0
1, 12236, Note_on_c, 4, 76, 0
1, 12236, Note_on_c, 2, 64, 0
1, 12236, Note_on_c, 2, 61, 0
1, 12236, Note_on_c, 2, 56, 0
1, 12236, Note_on_c, 0, 64, 0
1, 12236, Note_on_c, 0, 61, 0
1, 12236, Note_on_c, 0, 56, 0
1, 12476, Note_on_c, 15, 48, 0
1, 12480, Note_on_c, 0, 56, 100
1, 12480, Note_on_c, 0, 59, 100
1, 12480, Note_on_c, 0, 64, 100
1, 12480, Note_on_c, 2, 56, 100
1, 12480, Note_on_c, 2, 59, 100
1, 12480, Note_on_c, 2, 64, 100
1, 12480, Note_on_c, 4, 76, 125
1, 12480, Note_on_c, 9, 32, 100
1, 12480, Note_on_c, 13, 76, 125
1, 12716, Note_on_c, 13, 76, 0
1, 12716, Note_on_c, 9, 32, 0
1, 12716, Note_on_c, 4, 76, 0
1, 12716, Note_on_c, 2, 64, 0
1, 12716, Note_on_c, 2, 59, 0
1, 12716, Note_on_c, 2, 56, 0
1, 12716, Note_on_c, 0, 64, 0
1, 12716, Note_on_c, 0, 59, 0
1, 12716, Note_on_c, 0, 56, 0
1, 12720, Note_on_c, 0, 56, 100
1, 12720, Note_on_c, 0, 59, 100
1, 12720, Note_on_c, 0, 64, 100
1, 12720, Note_on_c, 2, 56, 100
1, 12720, Note_on_c, 2, 59, 100
1, 12720, Note_on_c, 2, 64, 100
1, 12720, Note_on_c, 4, 76, 119
1, 12720, Note_on_c, 13, 76, 119
1, 12956, Note_on_c, 13, 76, 0
1, 12956, Note_on_c, 4, 76, 0
1, 12956, Note_on_c, 2, 64, 0
1, 12956, Note_on_c, 2, 59, 0
1, 12956, Note_on_c, 2, 56, 0
1, 12956, Note_on_c, 0, 64, 0
1, 12956, Note_on_c, 0, 59, 0
1, 12956, Note_on_c, 0, 56, 0
1, 12960, Note_on_c, 0, 56, 100
1, 12960, Note_on_c, 0, 59, 100
1, 12960, Note_on_c, 0, 64, 100
1, 12960, Note_on_c, 2, 56, 100
1, 12960, Note_on_c, 2, 59, 100
1, 12960, Note_on_c, 2, 64, 100
1, 12960, Note_on_c, 4, 76, 118
1, 12960, Note_on_c, 9, 32, 100
1, 12960, Note_on_c, 13, 76, 118
1, 13196, Note_on_c, 13, 76, 0
1, 13196, Note_on_c, 9, 32, 0
1, 13196, Note_on_c, 4, 76, 0
1, 13196, Note_on_c, 2, 64, 0
1, 13196, Note_on_c, 2, 59, 0
1, 13196, Note_on_c, 2, 56, 0
1, 13196, Note_on_c, 0, 64, 0
1, 13196, Note_on_c, 0, 59, 0
1, 13196, Note_on_c, 0, 56, 0
1, 13200, Note_on_c, 0, 56, 100
1, 13200, Note_on_c, 0, 59, 100
1, 13200, Note_on_c, 0, 64, 100
1, 13200, Note_on_c, 2, 56, 100
1, 13200, Note_on_c, 2, 59, 100
1, 13200, Note_on_c, 2, 64, 100
1, 13200, Note_on_c, 4, 76, 116
1, 13200, Note_on_c, 13, 76, 116
1, 13436, Note_on_c, 13, 76, 0
1, 13436, Note_on_c, 4, 76, 0
1, 13436, Note_on_c, 2, 64, 0
1, 13436, Note_on_c, 2, 59, 0
1, 13436, Note_on_c, 2, 56, 0
1, 13436, Note_on_c, 0, 64, 0
1, 13436, Note_on_c, 0, 59, 0
1, 13436, Note_on_c, 0, 56, 0
1, 13440, Note_on_c, 0, 54, 100
1, 13440, Note_on_c, 0, 59, 100
1, 13440, Note_on_c, 0, 63, 100
1, 13440, Note_on_c, 2, 54, 100
1, 13440, Note_on_c, 2, 59, 100
1, 13440, Note_on_c, 2, 63, 100
1, 13440, Note_on_c, 4, 75, 119
1, 13440, Note_on_c, 9, 32, 100
1, 13440, Note_on_c, 13, 75, 119
1, 13676, Note_on_c, 13, 75, 0
1, 13676, Note_on_c, 9, 32, 0
1, 13676, Note_on_c, 4, 75, 0
1, 13676, Note_on_c, 2, 63, 0
1, 13676, Note_on_c, 2, 59, 0
1, 13676, Note_on_c, 2, 54, 0
1, 13676, Note_on_c, 0, 63, 0
1, 13676, Note_on_c, 0, 59, 0
1, 13676, Note_on_c, 0, 54, 0
1, 13680, Note_on_c, 0, 54, 100
1, 13680, Note_on_c, 0, 59, 100
1, 13680, Note_on_c, 0, 63, 100
1, 13680, Note_on_c, 2, 54, 100
1, 13680, Note_on_c, 2, 59, 100
1, 13680, Note_on_c, 2, 63, 100
1, 13680, Note_on_c, 4, 75, 119
1, 13680, Note_on_c, 13, 75, 119
1, 13916, Note_on_c, 13, 75, 0
1, 13916, Note_on_c, 4, 75, 0
1, 13916, Note_on_c, 2, 63, 0
1, 13916, Note_on_c, 2, 59, 0
1, 13916, Note_on_c, 2, 54, 0
1, 13916, Note_on_c, 0, 63, 0
1, 13916, Note_on_c, 0, 59, 0
1, 13916, Note_on_c, 0, 54, 0
1, 13920, Note_on_c, 0, 54, 100
1, 13920, Note_on_c, 0, 59, 100
1, 13920, Note_on_c, 0, 63, 100
1, 13920, Note_on_c, 2, 54, 100
1, 13920, Note_on_c, 2, 59, 100
1, 13920, Note_on_c, 2, 63, 100
1, 13920, Note_on_c, 4, 76, 113
1, 13920, Note_on_c, 9, 32, 100
1, 13920, Note_on_c, 13, 76, 113
1, 14156, Note_on_c, 13, 76, 0
1, 14156, Note_on_c, 9, 32, 0
1, 14156, Note_on_c, 4, 76, 0
1, 14156, Note_on_c, 2, 63, 0
1, 14156, Note_on_c, 2, 59, 0
1, 14156, Note_on_c, 2, 54, 0
1, 14156, Note_on_c, 0, 63, 0
1, 14156, Note_on_c, 0, 59, 0
1, 14156, Note_on_c, 0, 54, 0
1, 14160, Note_on_c, 0, 52, 100
1, 14160, Note_on_c, 0, 57, 100
1, 14160, Note_on_c, 0, 61, 100
1, 14160, Note_on_c, 2, 52, 100
1, 14160, Note_on_c, 2, 57, 100
1, 14160, Note_on_c, 2, 61, 100
1, 14160, Note_on_c, 4, 76, 111
1, 14160, Note_on_c, 9, 29, 100
1, 14160, Note_on_c, 13, 76, 111
1, 14396, Note_on_c, 13, 76, 0
1, 14396, Note_on_c, 9, 29, 0
1, 14396, Note_on_c, 4, 76, 0
1, 14396, Note_on_c, 2, 61, 0
1, 14396, Note_on_c, 2, 57, 0
1, 14396, Note_on_c, 2, 52, 0
1, 14396, Note_on_c, 0, 61, 0
1, 14396, Note_on_c, 0, 57, 0
1, 14396, Note_on_c, 0, 52, 0
1, 14400, Note_on_c, 9, 32, 100
1, 14636, Note_on_c, 9, 32, 0
1, 14640, Note_on_c, 0, 52, 100
1, 14640, Note_on_c, 0, 57, 100
1, 14640, Note_on_c, 0, 61, 100
1, 14640, Note_on_c, 2, 52, 100
1, 14640, Note_on_c, 2, 57, 100
1, 14640, Note_on_c, 2, 61, 100
1, 14640, Note_on_c, 4, 85, 127
1, 14640, Note_on_c, 13, 85, 127
1, 14876, Note_on_c, 13, 85, 0
1, 14876, Note_on_c, 4, 85, 0
1, 14876, Note_on_c, 2, 61, 0
1, 14876, Note_on_c, 2, 57, 0
1, 14876, Note_on_c, 2, 52, 0
1, 14876, Note_on_c, 0, 61, 0
1, 14876, Note_on_c, 0, 57, 0
1, 14876, Note_on_c, 0, 52, 0
1, 14880, Note_on_c, 0, 52, 100
1, 14880, Note_on_c, 0, 57, 100
1, 14880, Note_on_c, 0, 61, 100
1, 14880, Note_on_c, 2, 52, 100
1, 14880, Note_on_c, 2, 57, 100
1, 14880, Note_on_c, 2, 61, 100
1, 14880, Note_on_c, 4, 83, 119
1, 14880, Note_on_c, 9, 32, 100
1, 14880, Note_on_c, 13, 83, 119
1, 15116, Note_on_c, 13, 83, 0
1, 15116, Note_on_c, 9, 32, 0
1, 15116, Note_on_c, 4, 83, 0
1, 15116, Note_on_c, 2, 61, 0
1, 15116, Note_on_c, 2, 57, 0
1, 15116, Note_on_c, 2, 52, 0
1, 15116, Note_on_c, 0, 61, 0
1, 15116, Note_on_c, 0, 57, 0
1, 15116, Note_on_c, 0, 52, 0
1, 15120, Note_on_c, 0, 52, 100
1, 15120, Note_on_c, 0, 57, 100
1, 15120, Note_on_c, 0, 61, 100
1, 15120, Note_on_c, 2, 52, 100
1, 15120, Note_on_c, 2, 57, 100
1, 15120, Note_on_c, 2, 61, 100
1, 15120, Note_on_c, 4, 80, 125
1, 15120, Note_on_c, 13, 80, 125
1, 15356, Note_on_c, 13, 80, 0
1, 15356, Note_on_c, 4, 80, 0
1, 15356, Note_on_c, 2, 61, 0
1, 15356, Note_on_c, 2, 57, 0
1, 15356, Note_on_c, 2, 52, 0
1, 15356, Note_on_c, 0, 61, 0
1, 15356, Note_on_c, 0, 57, 0
1, 15356, Note_on_c, 0, 52, 0
1, 15360, Note_on_c, 0, 56, 100
1, 15360, Note_on_c, 0, 61, 100
1, 15360, Note_on_c, 0, 66, 100
1, 15360, Note_on_c, 2, 56, 100
1, 15360, Note_on_c, 2, 61, 100
1, 15360, Note_on_c, 2, 66, 100
1, 15360, Note_on_c, 4, 78, 127
1, 15360, Note_on_c, 9, 32, 100
1, 15360, Note_on_c, 13, 78, 127
1, 15596, Note_on_c, 13, 78, 0
1, 15596, Note_on_c, 9, 32, 0
1, 15596, Note_on_c, 4, 78, 0
1, 15596, Note_on_c, 2, 66, 0
1, 15596, Note_on_c, 2, 61, 0
1, 15596, Note_on_c, 2, 56, 0
1, 15596, Note_on_c, 0, 66, 0
1, 15596, Note_on_c, 0, 61, 0
1, 15596, Note_on_c, 0, 56, 0
1, 15600, Note_on_c, 0, 56, 100
1, 15600, Note_on_c, 0, 61, 100
1, 15600, Note_on_c, 0, 64, 100
1, 15600, Note_on_c, 2, 56, 100
1, 15600, Note_on_c, 2, 61, 100
1, 15600, Note_on_c, 2, 64, 100
1, 15600, Note_on_c, 4, 76, 101
1, 15600, Note_on_c, 13, 76, 101
1, 15836, Note_on_c, 13, 76, 0
1, 15836, Note_on_c, 4, 76, 0
1, 15836, Note_on_c, 2, 64, 0
1, 15836, Note_on_c, 2, 61, 0
1, 15836, Note_on_c, 2, 56, 0
1, 15836, Note_on_c, 0, 64, 0
1, 15836, Note_on_c, 0, 61, 0
1, 15836, Note_on_c, 0, 56, 0
1, 15840, Note_on_c, 0, 56, 100
1, 15840, Note_on_c, 0, 61, 100
1, 15840, Note_on_c, 0, 64, 100
1, 15840, Note_on_c, 2, 56, 100
1, 15840, Note_on_c, 2, 61, 100
1, 15840, Note_on_c, 2, 64, 100
1, 15840, Note_on_c, 4, 76, 116
1, 15840, Note_on_c, 9, 32, 100
1, 15840, Note_on_c, 13, 76, 116
1, 16076, Note_on_c, 13, 76, 0
1, 16076, Note_on_c, 9, 32, 0
1, 16076, Note_on_c, 4, 76, 0
1, 16076, Note_on_c, 2, 64, 0
1, 16076, Note_on_c, 2, 61, 0
1, 16076, Note_on_c, 2, 56, 0
1, 16076, Note_on_c, 0, 64, 0
1, 16076, Note_on_c, 0, 61, 0
1, 16076, Note_on_c, 0, 56, 0
1, 16320, Note_on_c, 0, 56, 100
1, 16320, Note_on_c, 0, 59, 100
1, 16320, Note_on_c, 0, 64, 100
1, 16320, Note_on_c, 2, 56, 100
1, 16320, Note_on_c, 2, 59, 100
1, 16320, Note_on_c, 2, 64, 100
1, 16320, Note_on_c, 4, 76, 119
1, 16320, Note_on_c, 9, 32, 100
1, 16320, Note_on_c, 13, 76, 119
1, 16556, Note_on_c, 13, 76, 0
1, 16556, Note_on_c, 9, 32, 0
1, 16556, Note_on_c, 4, 76, 0
1, 16556, Note_on_c, 2, 64, 0
1, 16556, Note_on_c, 2, 59, 0
1, 16556, Note_on_c, 2, 56, 0
1, 16556, Note_on_c, 0, 64, 0
1, 16556, Note_on_c, 0, 59, 0
1, 16556, Note_on_c, 0, 56, 0
1, 16560, Note_on_c, 0, 56, 100
1, 16560, Note_on_c, 0, 59, 100
1, 16560, Note_on_c, 0, 64, 100
1, 16560, Note_on_c, 2, 56, 100
1, 16560, Note_on_c, 2, 59, 100
1, 16560, Note_on_c, 2, 64, 100
1, 16560, Note_on_c, 4, 76, 111
1, 16560, Note_on_c, 13, 76, 111
1, 16796, Note_on_c, 13, 76, 0
1, 16796, Note_on_c, 4, 76, 0
1, 16796, Note_on_c, 2, 64, 0
1, 16796, Note_on_c, 2, 59, 0
1, 16796, Note_on_c, 2, 56, 0
1, 16796, Note_on_c, 0, 64, 0
1, 16796, Note_on_c, 0, 59, 0
1, 16796, Note_on_c, 0, 56, 0
1, 16800, Note_on_c, 0, 56, 100
1, 16800, Note_on_c, 0, 59, 100
1, 16800, Note_on_c, 0, 64, 100
1, 16800, Note_on_c, 2, 56, 100
1, 16800, Note_on_c, 2, 59, 100
1, 16800, Note_on_c, 2, 64, 100
1, 16800, Note_on_c, 4, 76, 109
1, 16800, Note_on_c, 9, 32, 100
1, 16800, Note_on_c, 13, 76, 109
1, 17036, Note_on_c, 13, 76, 0
1, 17036, Note_on_c, 9, 32, 0
1, 17036, Note_on_c, 4, 76, 0
1, 17036, Note_on_c, 2, 64, 0
1, 17036, Note_on_c, 2, 59, 0
1, 17036, Note_on_c, 2, 56, 0
1, 17036, Note_on_c, 0, 64, 0
1, 17036, Note_on_c, 0, 59, 0
1, 17036, Note_on_c, 0, 56, 0
1, 17040, Note_on_c, 0, 56, 100
1, 17040, Note_on_c, 0, 59, 100
1, 17040, Note_on_c, 0, 64, 100
1, 17040, Note_on_c, 2, 56, 100
1, 17040, Note_on_c, 2, 59, 100
1, 17040, Note_on_c, 2, 64, 100
1, 17040, Note_on_c, 4, 76, 87
1, 17040, Note_on_c, 13, 76, 87
1, 17276, Note_on_c, 13, 76, 0
1, 17276, Note_on_c, 4, 76, 0
1, 17276, Note_on_c, 2, 64, 0
1, 17276, Note_on_c, 2, 59, 0
1, 17276, Note_on_c, 2, 56, 0
1, 17276, Note_on_c, 0, 64, 0
1, 17276, Note_on_c, 0, 59, 0
1, 17276, Note_on_c, 0, 56, 0
1, 17280, Note_on_c, 0, 54, 100
1, 17280, Note_on_c, 0, 59, 100
1, 17280, Note_on_c, 0, 63, 100
1, 17280, Note_on_c, 2, 54, 100
1, 17280, Note_on_c, 2, 59, 100
1, 17280, Note_on_c, 2, 63, 100
1, 17280, Note_on_c, 4, 73, 127
1, 17280, Note_on_c, 9, 32, 100
1, 17280, Note_on_c, 13, 73, 127
1, 17516, Note_on_c, 13, 73, 0
1, 17516, Note_on_c, 9, 32, 0
1, 17516, Note_on_c, 4, 73, 0
1, 17516, Note_on_c, 2, 63, 0
1, 17516, Note_on_c, 2, 59, 0
1, 17516, Note_on_c, 2, 54, 0
1, 17516, Note_on_c, 0, 63, 0
1, 17516, Note_on_c, 0, 59, 0
1, 17516, Note_on_c, 0, 54, 0
1, 17520, Note_on_c, 0, 54, 100
1, 17520, Note_on_c, 0, 59, 100
1, 17520, Note_on_c, 0, 63, 100
1, 17520, Note_on_c, 2, 54, 100
1, 17520, Note_on_c, 2, 59, 100
1, 17520, Note_on_c, 2, 63, 100
1, 17520, Note_on_c, 4, 73, 127
1, 17520, Note_on_c, 13, 73, 127
1, 17756, Note_on_c, 13, 73, 0
1, 17756, Note_on_c, 4, 73, 0
1, 17756, Note_on_c, 2, 63, 0
1, 17756, Note_on_c, 2, 59, 0
1, 17756, Note_on_c, 2, 54, 0
1, 17756, Note_on_c, 0, 63, 0
1, 17756, Note_on_c, 0, 59, 0
1, 17756, Note_on_c, 0, 54, 0
1, 17760, Note_on_c, 0, 54, 100
1, 17760, Note_on_c, 0, 59, 100
1, 17760, Note_on_c, 0, 63, 100
1, 17760, Note_on_c, 2, 54, 100
1, 17760, Note_on_c, 2, 59, 100
1, 17760, Note_on_c, 2, 63, 100
1, 17760, Note_on_c, 4, 71, 113
1, 17760, Note_on_c, 9, 32, 100
1, 17760, Note_on_c, 13, 71, 113
1, 17996, Note_on_c, 13, 71, 0
1, 17996, Note_on_c, 9, 32, 0
1, 17996, Note_on_c, 4, 71, 0
1, 17996, Note_on_c, 2, 63, 0
1, 17996, Note_on_c, 2, 59, 0
1, 17996, Note_on_c, 2, 54, 0
1, 17996, Note_on_c, 0, 63, 0
1, 17996, Note_on_c, 0, 59, 0
1, 17996, Note_on_c, 0, 54, 0
1, 18000, Note_on_c, 0, 52, 100
1, 18000, Note_on_c, 0, 57, 100
1, 18000, Note_on_c, 0, 61, 100
1, 18000, Note_on_c, 2, 52, 100
1, 18000, Note_on_c, 2, 57, 100
1, 18000, Note_on_c, 2, 61, 100
1, 18000, Note_on_c, 4, 71, 122
1, 18000, Note_on_c, 9, 29, 100
1, 18000, Note_on_c, 13, 71, 122
1, 18236, Note_on_c, 13, 71, 0
1, 18236, Note_on_c, 9, 29, 0
1, 18236, Note_on_c, 4, 71, 0
1, 18236, Note_on_c, 2, 61, 0
1, 18236, Note_on_c, 2, 57, 0
1, 18236, Note_on_c, 2, 52, 0
1, 18236, Note_on_c, 0, 61, 0
1, 18236, Note_on_c, 0, 57, 0
1, 18236, Note_on_c, 0, 52, 0
1, 18240, Note_on_c, 9, 32, 100
1, 18476, Note_on_c, 9, 32, 0
1, 18480, Note_on_c, 0, 52, 100
1, 18480, Note_on_c, 0, 57, 100
1, 18480, Note_on_c, 0, 61, 100
1, 18480, Note_on_c, 2, 52, 100
1, 18480, Note_on_c, 2, 57, 100
1, 18480, Note_on_c, 2, 61, 100
1, 18480, Note_on_c, 4, 85, 127
1, 18480, Note_on_c, 13, 85, 127
1, 18716, Note_on_c, 13, 85, 0
1, 18716, Note_on_c, 4, 85, 0
1, 18716, Note_on_c, 2, 61, 0
1, 18716, Note_on_c, 2, 57, 0
1, 18716, Note_on_c, 2, 52, 0
1, 18716, Note_on_c, 0, 61, 0
1, 18716, Note_on_c, 0, 57, 0
1, 18716, Note_on_c, 0, 52, 0
1, 18720, Note_on_c, 0, 52, 100
1, 18720, Note_on_c, 0, 57, 100
1, 18720, Note_on_c, 0, 61, 100
1, 18720, Note_on_c, 2, 52, 100
1, 18720, Note_on_c, 2, 57, 100
1, 18720, Note_on_c, 2, 61, 100
1, 18720, Note_on_c, 4, 83, 119
1, 18720, Note_on_c, 9, 32, 100
1, 18720, Note_on_c, 13, 83, 119
1, 18956, Note_on_c, 13, 83, 0
1, 18956, Note_on_c, 9, 32, 0
1, 18956, Note_on_c, 4, 83, 0
1, 18956, Note_on_c, 2, 61, 0
1, 18956, Note_on_c, 2, 57, 0
1, 18956, Note_on_c, 2, 52, 0
1, 18956, Note_on_c, 0, 61, 0
1, 18956, Note_on_c, 0, 57, 0
1, 18956, Note_on_c, 0, 52, 0
1, 18960, Note_on_c, 0, 52, 100
1, 18960, Note_on_c, 0, 57, 100
1, 18960, Note_on_c, 0, 61, 100
1, 18960, Note_on_c, 2, 52, 100
1, 18960, Note_on_c, 2, 57, 100
1, 18960, Note_on_c, 2, 61, 100
1, 18960, Note_on_c, 4, 80, 127
1, 18960, Note_on_c, 13, 80, 127
1, 19196, Note_on_c, 13, 80, 0
1, 19196, Note_on_c, 4, 80, 0
1, 19196, Note_on_c, 2, 61, 0
1, 19196, Note_on_c, 2, 57, 0
1, 19196, Note_on_c, 2, 52, 0
1, 19196, Note_on_c, 0, 61, 0
1, 19196, Note_on_c, 0, 57, 0
1, 19196, Note_on_c, 0, 52, 0
1, 19200, Note_on_c, 0, 56, 100
1, 19200, Note_on_c, 0, 61, 100
1, 19200, Note_on_c, 0, 66, 100
1, 19200, Note_on_c, 2, 56, 100
1, 19200, Note_on_c, 2, 61, 100
1, 19200, Note_on_c, 2, 66, 100
1, 19200, Note_on_c, 4, 78, 127
1, 19200, Note_on_c, 9, 32, 100
1, 19200, Note_on_c, 13, 78, 127
1, 19436, Note_on_c, 13, 78, 0
1, 19436, Note_on_c, 9, 32, 0
1, 19436, Note_on_c, 4, 78, 0
1, 19436, Note_on_c, 2, 66, 0
1, 19436, Note_on_c, 2, 61, 0
1, 19436, Note_on_c, 2, 56, 0
1, 19436, Note_on_c, 0, 66, 0
1, 19436, Note_on_c, 0, 61, 0
1, 19436, Note_on_c, 0, 56, 0
1, 19440, Note_on_c, 0, 56, 100
1, 19440, Note_on_c, 0, 61, 100
1, 19440, Note_on_c, 0, 64, 100
1, 19440, Note_on_c, 2, 56, 100
1, 19440, Note_on_c, 2, 61, 100
1, 19440, Note_on_c, 2, 64, 100
1, 19440, Note_on_c, 4, 76, 118
1, 19440, Note_on_c, 13, 76, 118
1, 19676, Note_on_c, 13, 76, 0
1, 19676, Note_on_c, 4, 76, 0
1, 19676, Note_on_c, 2, 64, 0
1, 19676, Note_on_c, 2, 61, 0
1, 19676, Note_on_c, 2, 56, 0
1, 19676, Note_on_c, 0, 64, 0
1, 19676, Note_on_c, 0, 61, 0
1, 19676, Note_on_c, 0, 56, 0
1, 19680, Note_on_c, 0, 56, 100
1, 19680, Note_on_c, 0, 61, 100
1, 19680, Note_on_c, 0, 64, 100
1, 19680, Note_on_c, 2, 56, 100
1, 19680, Note_on_c, 2, 61, 100
1, 19680, Note_on_c, 2, 64, 100
1, 19680, Note_on_c, 4, 76, 119
1, 19680, Note_on_c, 9, 32, 100
1, 19680, Note_on_c, 13, 76, 119
1, 19916, Note_on_c, 13, 76, 0
1, 19916, Note_on_c, 9, 32, 0
1, 19916, Note_on_c, 4, 76, 0
1, 19916, Note_on_c, 2, 64, 0
1, 19916, Note_on_c, 2, 61, 0
1, 19916, Note_on_c, 2, 56, 0
1, 19916, Note_on_c, 0, 64, 0
1, 19916, Note_on_c, 0, 61, 0
1, 19916, Note_on_c, 0, 56, 0
1, 20160, Note_on_c, 0, 56, 100
1, 20160, Note_on_c, 0, 59, 100
1, 20160, Note_on_c, 0, 64, 100
1, 20160, Note_on_c, 2, 56, 100
1, 20160, Note_on_c, 2, 59, 100
1, 20160, Note_on_c, 2, 64, 100
1, 20160, Note_on_c, 4, 76, 125
1, 20160, Note_on_c, 9, 32, 100
1, 20160, Note_on_c, 13, 76, 125
1, 20396, Note_on_c, 13, 76, 0
1, 20396, Note_on_c, 9, 32, 0
1, 20396, Note_on_c, 4, 76, 0
1, 20396, Note_on_c, 2, 64, 0
1, 20396, Note_on_c, 2, 59, 0
1, 20396, Note_on_c, 2, 56, 0
1, 20396, Note_on_c, 0, 64, 0
1, 20396, Note_on_c, 0, 59, 0
1, 20396, Note_on_c, 0, 56, 0
1, 20400, Note_on_c, 0, 56, 100
1, 20400, Note_on_c, 0, 59, 100
1, 20400, Note_on_c, 0, 64, 100
1, 20400, Note_on_c, 2, 56, 100
1, 20400, Note_on_c, 2, 59, 100
1, 20400, Note_on_c, 2, 64, 100
1, 20400, Note_on_c, 4, 76, 119
1, 20400, Note_on_c, 13, 76, 119
1, 20636, Note_on_c, 13, 76, 0
1, 20636, Note_on_c, 4, 76, 0
1, 20636, Note_on_c, 2, 64, 0
1, 20636, Note_on_c, 2, 59, 0
1, 20636, Note_on_c, 2, 56, 0
1, 20636, Note_on_c, 0, 64, 0
1, 20636, Note_on_c, 0, 59, 0
1, 20636, Note_on_c, 0, 56, 0
1, 20640, Note_on_c, 0, 56, 100
1, 20640, Note_on_c, 0, 59, 100
1, 20640, Note_on_c, 0, 64, 100
1, 20640, Note_on_c, 2, 56, 100
1, 20640, Note_on_c, 2, 59, 100
1, 20640, Note_on_c, 2, 64, 100
1, 20640, Note_on_c, 4, 76, 118
1, 20640, Note_on_c, 9, 32, 100
1, 20640, Note_on_c, 13, 76, 118
1, 20876, Note_on_c, 13, 76, 0
1, 20876, Note_on_c, 9, 32, 0
1, 20876, Note_on_c, 4, 76, 0
1, 20876, Note_on_c, 2, 64, 0
1, 20876, Note_on_c, 2, 59, 0
1, 20876, Note_on_c, 2, 56, 0
1, 20876, Note_on_c, 0, 64, 0
1, 20876, Note_on_c, 0, 59, 0
1, 20876, Note_on_c, 0, 56, 0
1, 20880, Note_on_c, 0, 56, 100
1, 20880, Note_on_c, 0, 59, 100
1, 20880, Note_on_c, 0, 64, 100
1, 20880, Note_on_c, 2, 56, 100
1, 20880, Note_on_c, 2, 59, 100
1, 20880, Note_on_c, 2, 64, 100
1, 20880, Note_on_c, 4, 76, 116
1, 20880, Note_on_c, 13, 76, 116
1, 21116, Note_on_c, 13, 76, 0
1, 21116, Note_on_c, 4, 76, 0
1, 21116, Note_on_c, 2, 64, 0
1, 21116, Note_on_c, 2, 59, 0
1, 21116, Note_on_c, 2, 56, 0
1, 21116, Note_on_c, 0, 64, 0
1, 21116, Note_on_c, 0, 59, 0
1, 21116, Note_on_c, 0, 56, 0
1, 21120, Note_on_c, 0, 54, 100
1, 21120, Note_on_c, 0, 59, 100
1, 21120, Note_on_c, 0, 63, 100
1, 21120, Note_on_c, 2, 54, 100
1, 21120, Note_on_c, 2, 59, 100
1, 21120, Note_on_c, 2, 63, 100
1, 21120, Note_on_c, 4, 75, 119
1, 21120, Note_on_c, 9, 32, 100
1, 21120, Note_on_c, 13, 75, 119
1, 21356, Note_on_c, 13, 75, 0
1, 21356, Note_on_c, 9, 32, 0
1, 21356, Note_on_c, 4, 75, 0
1, 21356, Note_on_c, 2, 63, 0
1, 21356, Note_on_c, 2, 59, 0
1, 21356, Note_on_c, 2, 54, 0
1, 21356, Note_on_c, 0, 63, 0
1, 21356, Note_on_c, 0, 59, 0
1, 21356, Note_on_c, 0, 54, 0
1, 21360, Note_on_c, 0, 54, 100
1, 21360, Note_on_c, 0, 59, 100
1, 21360, Note_on_c, 0, 63, 100
1, 21360, Note_on_c, 2, 54, 100
1, 21360, Note_on_c, 2, 59, 100
1, 21360, Note_on_c, 2, 63, 100
1, 21360, Note_on_c, 4, 75, 119
1, 21360, Note_on_c, 13, 75, 119
1, 21596, Note_on_c, 13, 75, 0
1, 21596, Note_on_c, 4, 75, 0
1, 21596, Note_on_c, 2, 63, 0
1, 21596, Note_on_c, 2, 59, 0
1, 21596, Note_on_c, 2, 54, 0
1, 21596, Note_on_c, 0, 63, 0
1, 21596, Note_on_c, 0, 59, 0
1, 21596, Note_on_c, 0, 54, 0
1, 21600, Note_on_c, 0, 54, 100
1, 21600, Note_on_c, 0, 59, 100
1, 21600, Note_on_c, 0, 63, 100
1, 21600, Note_on_c, 2, 54, 100
1, 21600, Note_on_c, 2, 59, 100
1, 21600, Note_on_c, 2, 63, 100
1, 21600, Note_on_c, 4, 76, 113
1, 21600, Note_on_c, 9, 32, 100
1, 21600, Note_on_c, 13, 76, 113
1, 21836, Note_on_c, 13, 76, 0
1, 21836, Note_on_c, 9, 32, 0
1, 21836, Note_on_c, 4, 76, 0
1, 21836, Note_on_c, 2, 63, 0
1, 21836, Note_on_c, 2, 59, 0
1, 21836, Note_on_c, 2, 54, 0
1, 21836, Note_on_c, 0, 63, 0
1, 21836, Note_on_c, 0, 59, 0
1, 21836, Note_on_c, 0, 54, 0
1, 21840, Note_on_c, 0, 52, 100
1, 21840, Note_on_c, 0, 57, 100
1, 21840, Note_on_c, 0, 61, 100
1, 21840, Note_on_c, 2, 52, 100
1, 21840, Note_on_c, 2, 57, 100
1, 21840, Note_on_c, 2, 61, 100
1, 21840, Note_on_c, 4, 76, 111
1, 21840, Note_on_c, 9, 29, 100
1, 21840, Note_on_c, 13, 76, 111
1, 22076, Note_on_c, 13, 76, 0
1, 22076, Note_on_c, 9, 29, 0
1, 22076, Note_on_c, 4, 76, 0
1, 22076, Note_on_c, 2, 61, 0
1, 22076, Note_on_c, 2, 57, 0
1, 22076, Note_on_c, 2, 52, 0
1, 22076, Note_on_c, 0, 61, 0
1, 22076, Note_on_c, 0, 57, 0
1, 22076, Note_on_c, 0, 52, 0
1, 22080, Note_on_c, 9, 32, 100
1, 22316, Note_on_c, 9, 32, 0
1, 22320, Note_on_c, 0, 52, 100
1, 22320, Note_on_c, 0, 57, 100
1, 22320, Note_on_c, 0, 61, 100
1, 22320, Note_on_c, 2, 52, 100
1, 22320, Note_on_c, 2, 57, 100
1, 22320, Note_on_c, 2, 61, 100
1, 22320, Note_on_c, 4, 85, 127
1, 22320, Note_on_c, 13, 85, 127
1, 22556, Note_on_c, 13, 85, 0
1, 22556, Note_on_c, 4, 85, 0
1, 22556, Note_on_c, 2, 61, 0
1, 22556, Note_on_c, 2, 57, 0
1, 22556, Note_on_c, 2, 52, 0
1, 22556, Note_on_c, 0, 61, 0
1, 22556, Note_on_c, 0, 57, 0
1, 22556, Note_on_c, 0, 52, 0
1, 22560, Note_on_c, 0, 52, 100
1, 22560, Note_on_c, 0, 57, 100
1, 22560, Note_on_c, 0, 61, 100
1, 22560, Note_on_c, 2, 52, 100
1, 22560, Note_on_c, 2, 57, 100
1, 22560, Note_on_c, 2, 61, 100
1, 22560, Note_on_c, 4, 83, 119
1, 22560, Note_on_c, 9, 32, 100
1, 22560, Note_on_c, 13, 83, 119
1, 22796, Note_on_c, 13, 83, 0
1, 22796, Note_on_c, 9, 32, 0
1, 22796, Note_on_c, 4, 83, 0
1, 22796, Note_on_c, 2, 61, 0
1, 22796, Note_on_c, 2, 57, 0
1, 22796, Note_on_c, 2, 52, 0
1, 22796, Note_on_c, 0, 61, 0
1, 22796, Note_on_c, 0, 57, 0
1, 22796, Note_on_c, 0, 52, 0
1, 22800, Note_on_c, 0, 52, 100
1, 22800, Note_on_c, 0, 57, 100
1, 22800, Note_on_c, 0, 61, 100
1, 22800, Note_on_c, 2, 52, 100
1, 22800, Note_on_c, 2, 57, 100
1, 22800, Note_on_c, 2, 61, 100
1, 22800, Note_on_c, 4, 80, 125
1, 22800, Note_on_c, 13, 80, 125
1, 23036, Note_on_c, 13, 80, 0
1, 23036, Note_on_c, 4, 80, 0
1, 23036, Note_on_c, 2, 61, 0
1, 23036, Note_on_c, 2, 57, 0
1, 23036, Note_on_c, 2, 52, 0
1, 23036, Note_on_c, 0, 61, 0
1, 23036, Note_on_c, 0, 57, 0
1, 23036, Note_on_c, 0, 52, 0
1, 23040, Note_on_c, 0, 56, 100
1, 23040, Note_on_c, 0, 61, 100
1, 23040, Note_on_c, 0, 66, 100
1, 23040, Note_on_c, 2, 56, 100
1, 23040, Note_on_c, 2, 61, 100
1, 23040, Note_on_c, 2, 66, 100
1, 23040, Note_on_c, 4, 78, 127
1, 23040, Note_on_c, 9, 32, 100
1, 23040, Note_on_c, 13, 78, 127
1, 23276, Note_on_c, 13, 78, 0
1, 23276, Note_on_c, 9, 32, 0
1, 23276, Note_on_c, 4, 78, 0
1, 23276, Note_on_c, 2, 66, 0
1, 23276, Note_on_c, 2, 61, 0
1, 23276, Note_on_c, 2, 56, 0
1, 23276, Note_on_c, 0, 66, 0
1, 23276, Note_on_c, 0, 61, 0
1, 23276, Note_on_c, 0, 56, 0
1, 23280, Note_on_c, 0, 56, 100
1, 23280, Note_on_c, 0, 61, 100
1, 23280, Note_on_c, 0, 64, 100
1, 23280, Note_on_c, 2, 56, 100
1, 23280, Note_on_c, 2, 61, 100
1, 23280, Note_on_c, 2, 64, 100
1, 23280, Note_on_c, 4, 76, 101
1, 23280, Note_on_c, 13, 76, 101
1, 23516, Note_on_c, 13, 76, 0
1, 23516, Note_on_c, 4, 76, 0
1, 23516, Note_on_c, 2, 64, 0
1, 23516, Note_on_c, 2, 61, 0
1, 23516, Note_on_c, 2, 56, 0
1, 23516, Note_on_c, 0, 64, 0
1, 23516, Note_on_c, 0, 61, 0
1, 23516, Note_on_c, 0, 56, 0
1, 23520, Note_on_c, 0, 56, 100
1, 23520, Note_on_c, 0, 61, 100
1, 23520, Note_on_c, 0, 64, 100
1, 23520, Note_on_c, 2, 56, 100
1, 23520, Note_on_c, 2, 61, 100
1, 23520, Note_on_c, 2, 64, 100
1, 23520, Note_on_c, 4, 76, 116
1, 23520, Note_on_c, 9, 32, 100
1, 23520, Note_on_c, 13, 76, 116
1, 23756, Note_on_c, 13, 76, 0
1, 23756, Note_on_c, 9, 32, 0
1, 23756, Note_on_c, 4, 76, 0
1, 23756, Note_on_c, 2, 64, 0
1, 23756, Note_on_c, 2, 61, 0
1, 23756, Note_on_c, 2, 56, 0
1, 23756, Note_on_c, 0, 64, 0
1, 23756, Note_on_c, 0, 61, 0
1, 23756, Note_on_c, 0, 56, 0
1, 24000, Note_on_c, 0, 56, 100
1, 24000, Note_on_c, 0, 59, 100
1, 24000, Note_on_c, 0, 64, 100
1, 24000, Note_on_c, 2, 56, 100
1, 24000, Note_on_c, 2, 59, 100
1, 24000, Note_on_c, 2, 64, 100
1, 24000, Note_on_c, 4, 76, 119
1, 24000, Note_on_c, 9, 32, 100
1, 24000, Note_on_c, 13, 76, 119
1, 24236, Note_on_c, 13, 76, 0
1, 24236, Note_on_c, 9, 32, 0
1, 24236, Note_on_c, 4, 76, 0
1, 24236, Note_on_c, 2, 64, 0
1, 24236, Note_on_c, 2, 59, 0
1, 24236, Note_on_c, 2, 56, 0
1, 24236, Note_on_c, 0, 64, 0
1, 24236, Note_on_c, 0, 59, 0
1, 24236, Note_on_c, 0, 56, 0
1, 24240, Note_on_c, 0, 56, 100
1, 24240, Note_on_c, 0, 59, 100
1, 24240, Note_on_c, 0, 64, 100
1, 24240, Note_on_c, 2, 56, 100
1, 24240, Note_on_c, 2, 59, 100
1, 24240, Note_on_c, 2, 64, 100
1, 24240, Note_on_c, 4, 76, 111
1, 24240, Note_on_c, 13, 76, 111
1, 24476, Note_on_c, 13, 76, 0
1, 24476, Note_on_c, 4, 76, 0
1, 24476, Note_on_c, 2, 64, 0
1, 24476, Note_on_c, 2, 59, 0
1, 24476, Note_on_c, 2, 56, 0
1, 24476, Note_on_c, 0, 64, 0
1, 24476, Note_on_c, 0, 59, 0
1, 24476, Note_on_c, 0, 56, 0
1, 24480, Note_on_c, 0, 56, 100
1, 24480, Note_on_c, 0, 59, 100
1, 24480, Note_on_c, 0, 64, 100
1, 24480, Note_on_c, 2, 56, 100
1, 24480, Note_on_c, 2, 59, 100
1, 24480, Note_on_c, 2, 64, 100
1, 24480, Note_on_c, 4, 76, 109
1, 24480, Note_on_c, 9, 32, 100
1, 24480, Note_on_c, 13, 76, 109
1, 24716, Note_on_c, 13, 76, 0
1, 24716, Note_on_c, 9, 32, 0
1, 24716, Note_on_c, 4, 76, 0
1, 24716, Note_on_c, 2, 64, 0
1, 24716, Note_on_c, 2, 59, 0
1, 24716, Note_on_c, 2, 56, 0
1, 24716, Note_on_c, 0, 64, 0
1, 24716, Note_on_c, 0, 59, 0
1, 24716, Note_on_c, 0, 56, 0
1, 24720, Note_on_c, 0, 56, 100
1, 24720, Note_on_c, 0, 59, 100
1, 24720, Note_on_c, 0, 64, 100
1, 24720, Note_on_c, 2, 56, 100
1, 24720, Note_on_c, 2, 59, 100
1, 24720, Note_on_c, 2, 64, 100
1, 24720, Note_on_c, 4, 76, 87
1, 24720, Note_on_c, 13, 76, 87
1, 24956, Note_on_c, 13, 76, 0
1, 24956, Note_on_c, 4, 76, 0
1, 24956, Note_on_c, 2, 64, 0
1, 24956, Note_on_c, 2, 59, 0
1, 24956, Note_on_c, 2, 56, 0
1, 24956, Note_on_c, 0, 64, 0
1, 24956, Note_on_c, 0, 59, 0
1, 24956, Note_on_c, 0, 56, 0
1, 24960, Note_on_c, 0, 54, 100
1, 24960, Note_on_c, 0, 59, 100
1, 24960, Note_on_c, 0, 63, 100
1, 24960, Note_on_c, 2, 54, 100
1, 24960, Note_on_c, 2, 59, 100
1, 24960, Note_on_c, 2, 63, 100
1, 24960, Note_on_c, 4, 73, 127
1, 24960, Note_on_c, 9, 32, 100
1, 24960, Note_on_c, 13, 73, 127
1, 25196, Note_on_c, 13, 73, 0
1, 25196, Note_on_c, 9, 32, 0
1, 25196, Note_on_c, 4, 73, 0
1, 25196, Note_on_c, 2, 63, 0
1, 25196, Note_on_c, 2, 59, 0
1, 25196, Note_on_c, 2, 54, 0
1, 25196, Note_on_c, 0, 63, 0
1, 25196, Note_on_c, 0, 59, 0
1, 25196, Note_on_c, 0, 54, 0
1, 25200, Note_on_c, 0, 54, 100
1, 25200, Note_on_c, 0, 59, 100
1, 25200, Note_on_c, 0, 63, 100
1, 25200, Note_on_c, 2, 54, 100
1, 25200, Note_on_c, 2, 59, 100
1, 25200, Note_on_c, 2, 63, 100
1, 25200, Note_on_c, 4, 73, 127
1, 25200, Note_on_c, 13, 73, 127
1, 25436, Note_on_c, 13, 73, 0
1, 25436, Note_on_c, 4, 73, 0
1, 25436, Note_on_c, 2, 63, 0
1, 25436, Note_on_c, 2, 59, 0
1, 25436, Note_on_c, 2, 54, 0
1, 25436, Note_on_c, 0, 63, 0
1, 25436, Note_on_c, 0, 59, 0
1, 25436, Note_on_c, 0, 54, 0
1, 25440, Note_on_c, 0, 54, 100
1, 25440, Note_on_c, 0, 59, 100
1, 25440, Note_on_c, 0, 63, 100
1, 25440, Note_on_c, 2, 54, 100
1, 25440, Note_on_c, 2, 59, 100
1, 25440, Note_on_c, 2, 63, 100
1, 25440, Note_on_c, 4, 71, 113
1, 25440, Note_on_c, 9, 32, 100
1, 25440, Note_on_c, 13, 71, 113
1, 25676, Note_on_c, 13, 71, 0
1, 25676, Note_on_c, 9, 32, 0
1, 25676, Note_on_c, 4, 71, 0
1, 25676, Note_on_c, 2, 63, 0
1, 25676, Note_on_c, 2, 59, 0
1, 25676, Note_on_c, 2, 54, 0
1, 25676, Note_on_c, 0, 63, 0
1, 25676, Note_on_c, 0, 59, 0
1, 25676, Note_on_c, 0, 54, 0
1, 25680, Note_on_c, 0, 52, 100
1, 25680, Note_on_c, 0, 57, 100
1, 25680, Note_on_c, 0, 61, 100
1, 25680, Note_on_c, 2, 52, 100
1, 25680, Note_on_c, 2, 57, 100
1, 25680, Note_on_c, 2, 61, 100
1, 25680, Note_on_c, 4, 71, 122
1, 25680, Note_on_c, 9, 29, 100
1, 25680, Note_on_c, 13, 71, 122
1, 25916, Note_on_c, 13, 71, 0
1, 25916, Note_on_c, 9, 29, 0
1, 25916, Note_on_c, 4, 71, 0
1, 25916, Note_on_c, 2, 61, 0
1, 25916, Note_on_c, 2, 57, 0
1, 25916, Note_on_c, 2, 52, 0
1, 25916, Note_on_c, 0, 61, 0
1, 25916, Note_on_c, 0, 57, 0
1, 25916, Note_on_c, 0, 52, 0
1, 25920, Note_on_c, 9, 32, 100
1, 26156, Note_on_c, 9, 32, 0
1, 26160, Note_on_c, 0, 52, 100
1, 26160, Note_on_c, 0, 57, 100
1, 26160, Note_on_c, 0, 61, 100
1, 26160, Note_on_c, 2, 52, 100
1, 26160, Note_on_c, 2, 57, 100
1, 26160, Note_on_c, 2, 61, 100
1, 26160, Note_on_c, 4, 85, 127
1, 26160, Note_on_c, 13, 85, 127
1, 26396, Note_on_c, 13, 85, 0
1, 26396, Note_on_c, 4, 85, 0
1, 26396, Note_on_c, 2, 61, 0
1, 26396, Note_on_c, 2, 57, 0
1, 26396, Note_on_c, 2, 52, 0
1, 26396, Note_on_c, 0, 61, 0
1, 26396, Note_on_c, 0, 57, 0
1, 26396, Note_on_c, 0, 52, 0
1, 26400, Note_on_c, 0, 52, 100
1, 26400, Note_on_c, 0, 57, 100
1, 26400, Note_on_c, 0, 61, 100
1, 26400, Note_on_c, 2, 52, 100
1, 26400, Note_on_c, 2, 57, 100
1, 26400, Note_on_c, 2, 61, 100
1, 26400, Note_on_c, 4, 83, 119
1, 26400, Note_on_c, 9, 32, 100
1, 26400, Note_on_c, 13, 83, 119
1, 26636, Note_on_c, 13, 83, 0
1, 26636, Note_on_c, 9, 32, 0
1, 26636, Note_on_c, 4, 83, 0
1, 26636, Note_on_c, 2, 61, 0
1, 26636, Note_on_c, 2, 57, 0
1, 26636, Note_on_c, 2, 52, 0
1, 26636, Note_on_c, 0, 61, 0
1, 26636, Note_on_c, 0, 57, 0
1, 26636, Note_on_c, 0, 52, 0
1, 26640, Note_on_c, 0, 52, 100
1, 26640, Note_on_c, 0, 57, 100
1, 26640, Note_on_c, 0, 61, 100
1, 26640, Note_on_c, 2, 52, 100
1, 26640, Note_on_c, 2, 57, 100
1, 26640, Note_on_c, 2, 61, 100
1, 26640, Note_on_c, 4, 80, 127
1, 26640, Note_on_c, 13, 80, 127
1, 26876, Note_on_c, 13, 80, 0
1, 26876, Note_on_c, 4, 80, 0
1, 26876, Note_on_c, 2, 61, 0
1, 26876, Note_on_c, 2, 57, 0
1, 26876, Note_on_c, 2, 52, 0
1, 26876, Note_on_c, 0, 61, 0
1, 26876, Note_on_c, 0, 57, 0
1, 26876, Note_on_c, 0, 52, 0
1, 26880, Note_on_c, 0, 56, 100
1, 26880, Note_on_c, 0, 61, 100
1, 26880, Note_on_c, 0, 66, 100
1, 26880, Note_on_c, 2, 56, 100
1, 26880, Note_on_c, 2, 61, 100
1, 26880, Note_on_c, 2, 66, 100
1, 26880, Note_on_c, 4, 78, 127
1, 26880, Note_on_c, 9, 32, 100
1, 26880, Note_on_c, 9, 36, 127
1, 26880, Note_on_c, 13, 78, 127
1, 27116, Note_on_c, 13, 78, 0
1, 27116, Note_on_c, 9, 36, 0
1, 27116, Note_on_c, 9, 32, 0
1, 27116, Note_on_c, 4, 78, 0
1, 27116, Note_on_c, 2, 66, 0
1, 27116, Note_on_c, 2, 61, 0
1, 27116, Note_on_c, 2, 56, 0
1, 27116, Note_on_c, 0, 66, 0
1, 27116, Note_on_c, 0, 61, 0
1, 27116, Note_on_c, 0, 56, 0
1, 27120, Note_on_c, 0, 56, 100
1, 27120, Note_on_c, 0, 61, 100
1, 27120, Note_on_c, 0, 64, 100
1, 27120, Note_on_c, 1, 37, 100
1, 27120, Note_on_c, 2, 56, 100
1, 27120, Note_on_c, 2, 61, 100
1, 27120, Note_on_c, 2, 64, 100
1, 27120, Note_on_c, 4, 76, 118
1, 27120, Note_on_c, 13, 76, 118
1, 27356, Note_on_c, 13, 76, 0
1, 27356, Note_on_c, 4, 76, 0
1, 27356, Note_on_c, 2, 64, 0
1, 27356, Note_on_c, 2, 61, 0
1, 27356, Note_on_c, 2, 56, 0
1, 27356, Note_on_c, 1, 37, 0
1, 27356, Note_on_c, 0, 64, 0
1, 27356, Note_on_c, 0, 61, 0
1, 27356, Note_on_c, 0, 56, 0
1, 27360, Note_on_c, 0, 56, 100
1, 27360, Note_on_c, 0, 61, 100
1, 27360, Note_on_c, 0, 64, 100
1, 27360, Note_on_c, 2, 56, 100
1, 27360, Note_on_c, 2, 61, 100
1, 27360, Note_on_c, 2, 64, 100
1, 27360, Note_on_c, 4, 76, 119
1, 27360, Note_on_c, 9, 32, 100
1, 27360, Note_on_c, 9, 36, 127
1, 27360, Note_on_c, 9, 37, 127
1, 27360, Note_on_c, 13, 76, 119
1, 27596, Note_on_c, 13, 76, 0
1, 27596, Note_on_c, 9, 37, 0
1, 27596, Note_on_c, 9, 36, 0
1, 27596, Note_on_c, 9, 32, 0
1, 27596, Note_on_c, 4, 76, 0
1, 27596, Note_on_c, 2, 64, 0
1, 27596, Note_on_c, 2, 61, 0
1, 27596, Note_on_c, 2, 56, 0
1, 27596, Note_on_c, 0, 64, 0
1, 27596, Note_on_c, 0, 61, 0
1, 27596, Note_on_c, 0, 56, 0
1, 27840, Note_on_c, 0, 56, 100
1, 27840, Note_on_c, 0, 59, 100
1, 27840, Note_on_c, 0, 64, 100
1, 27840, Note_on_c, 2, 56, 100
1, 27840, Note_on_c, 2, 59, 100
1, 27840, Note_on_c, 2, 64, 100
1, 27840, Note_on_c, 4, 76, 125
1, 27840, Note_on_c, 9, 32, 100
1, 27840, Note_on_c, 9, 36, 127
1, 27840, Note_on_c, 13, 76, 125
1, 28076, Note_on_c, 13, 76, 0
1, 28076, Note_on_c, 9, 36, 0
1, 28076, Note_on_c, 9, 32, 0
1, 28076, Note_on_c, 4, 76, 0
1, 28076, Note_on_c, 2, 64, 0
1, 28076, Note_on_c, 2, 59, 0
1, 28076, Note_on_c, 2, 56, 0
1, 28076, Note_on_c, 0, 64, 0
1, 28076, Note_on_c, 0, 59, 0
1, 28076, Note_on_c, 0, 56, 0
1, 28080, Note_on_c, 0, 56, 100
1, 28080, Note_on_c, 0, 59, 100
1, 28080, Note_on_c, 0, 64, 100
1, 28080, Note_on_c, 1, 40, 100
1, 28080, Note_on_c, 2, 56, 100
1, 28080, Note_on_c, 2, 59, 100
1, 28080, Note_on_c, 2, 64, 100
1, 28080, Note_on_c, 4, 76, 119
1, 28080, Note_on_c, 13, 76, 119
1, 28316, Note_on_c, 13, 76, 0
1, 28316, Note_on_c, 4, 76, 0
1, 28316, Note_on_c, 2, 64, 0
1, 28316, Note_on_c, 2, 59, 0
1, 28316, Note_on_c, 2, 56, 0
1, 28316, Note_on_c, 1, 40, 0
1, 28316, Note_on_c, 0, 64, 0
1, 28316, Note_on_c, 0, 59, 0
1, 28316, Note_on_c, 0, 56, 0
1, 28320, Note_on_c, 0, 56, 100
1, 28320, Note_on_c, 0, 59, 100
1, 28320, Note_on_c, 0, 64, 100
1, 28320, Note_on_c, 2, 56, 100
1, 28320, Note_on_c, 2, 59, 100
1, 28320, Note_on_c, 2, 64, 100
1, 28320, Note_on_c, 4, 76, 118
1, 28320, Note_on_c, 9, 32, 100
1, 28320, Note_on_c, 9, 36, 127
1, 28320, Note_on_c, 9, 37, 127
1, 28320, Note_on_c, 13, 76, 118
1, 28556, Note_on_c, 13, 76, 0
1, 28556, Note_on_c, 9, 37, 0
1, 28556, Note_on_c, 9, 36, 0
1, 28556, Note_on_c, 9, 32, 0
1, 28556, Note_on_c, 4, 76, 0
1, 28556, Note_on_c, 2, 64, 0
1, 28556, Note_on_c, 2, 59, 0
1, 28556, Note_on_c, 2, 56, 0
1, 28556, Note_on_c, 0, 64, 0
1, 28556, Note_on_c, 0, 59, 0
1, 28556, Note_on_c, 0, 56, 0
1, 28560, Note_on_c, 0, 56, 100
1, 28560, Note_on_c, 0, 59, 100
1, 28560, Note_on_c, 0, 64, 100
1, 28560, Note_on_c, 1, 40, 100
1, 28560, Note_on_c, 2, 56, 100
1, 28560, Note_on_c, 2, 59, 100
1, 28560, Note_on_c, 2, 64, 100
1, 28560, Note_on_c, 4, 76, 116
1, 28560, Note_on_c, 13, 76, 116
1, 28796, Note_on_c, 13, 76, 0
1, 28796, Note_on_c, 4, 76, 0
1, 28796, Note_on_c, 2, 64, 0
1, 28796, Note_on_c, 2, 59, 0
1, 28796, Note_on_c, 2, 56, 0
1, 28796, Note_on_c, 1, 40, 0
1, 28796, Note_on_c, 0, 64, 0
1, 28796, Note_on_c, 0, 59, 0
1, 28796, Note_on_c, 0, 56, 0
1, 28800, Note_on_c, 0, 54, 100
1, 28800, Note_on_c, 0, 59, 100
1, 28800, Note_on_c, 0, 63, 100
1, 28800, Note_on_c, 2, 54, 100
1, 28800, Note_on_c, 2, 59, 100
1, 28800, Note_on_c, 2, 63, 100
1, 28800, Note_on_c, 4, 75, 119
1, 28800, Note_on_c, 9, 32, 100
1, 28800, Note_on_c, 9, 36, 127
1, 28800, Note_on_c, 13, 75, 119
1, 29036, Note_on_c, 13, 75, 0
1, 29036, Note_on_c, 9, 36, 0
1, 29036, Note_on_c, 9, 32, 0
1, 29036, Note_on_c, 4, 75, 0
1, 29036, Note_on_c, 2, 63, 0
1, 29036, Note_on_c, 2, 59, 0
1, 29036, Note_on_c, 2, 54, 0
1, 29036, Note_on_c, 0, 63, 0
1, 29036, Note_on_c, 0, 59, 0
1, 29036, Note_on_c, 0, 54, 0
1, 29040, Note_on_c, 0, 54, 100
1, 29040, Note_on_c, 0, 59, 100
1, 29040, Note_on_c, 0, 63, 100
1, 29040, Note_on_c, 1, 35, 100
1, 29040, Note_on_c, 2, 54, 100
1, 29040, Note_on_c, 2, 59, 100
1, 29040, Note_on_c, 2, 63, 100
1, 29040, Note_on_c, 4, 75, 119
1, 29040, Note_on_c, 13, 75, 119
1, 29276, Note_on_c, 13, 75, 0
1, 29276, Note_on_c, 4, 75, 0
1, 29276, Note_on_c, 2, 63, 0
1, 29276, Note_on_c, 2, 59, 0
1, 29276, Note_on_c, 2, 54, 0
1, 29276, Note_on_c, 1, 35, 0
1, 29276, Note_on_c, 0, 63, 0
1, 29276, Note_on_c, 0, 59, 0
1, 29276, Note_on_c, 0, 54, 0
1, 29280, Note_on_c, 0, 54, 100
1, 29280, Note_on_c, 0, 59, 100
1, 29280, Note_on_c, 0, 63, 100
1, 29280, Note_on_c, 2, 54, 100
1, 29280, Note_on_c, 2, 59, 100
1, 29280, Note_on_c, 2, 63, 100
1, 29280, Note_on_c, 4, 76, 113
1, 29280, Note_on_c, 9, 32, 100
1, 29280, Note_on_c, 9, 36, 127
1, 29280, Note_on_c, 9, 37, 127
1, 29280, Note_on_c, 13, 76, 113
1, 29516, Note_on_c, 13, 76, 0
1, 29516, Note_on_c, 9, 37, 0
1, 29516, Note_on_c, 9, 36, 0
1, 29516, Note_on_c, 9, 32, 0
1, 29516, Note_on_c, 4, 76, 0
1, 29516, Note_on_c, 2, 63, 0
1, 29516, Note_on_c, 2, 59, 0
1, 29516, Note_on_c, 2, 54, 0
1, 29516, Note_on_c, 0, 63, 0
1, 29516, Note_on_c, 0, 59, 0
1, 29516, Note_on_c, 0, 54, 0
1, 29520, Note_on_c, 0, 52, 100
1, 29520, Note_on_c, 0, 57, 100
1, 29520, Note_on_c, 0, 61, 100
1, 29520, Note_on_c, 1, 33, 100
1, 29520, Note_on_c, 2, 52, 100
1, 29520, Note_on_c, 2, 57, 100
1, 29520, Note_on_c, 2, 61, 100
1, 29520, Note_on_c, 4, 76, 111
1, 29520, Note_on_c, 9, 29, 100
1, 29520, Note_on_c, 13, 76, 111
1, 29756, Note_on_c, 13, 76, 0
1, 29756, Note_on_c, 9, 29, 0
1, 29756, Note_on_c, 4, 76, 0
1, 29756, Note_on_c, 2, 61, 0
1, 29756, Note_on_c, 2, 57, 0
1, 29756, Note_on_c, 2, 52, 0
1, 29756, Note_on_c, 1, 33, 0
1, 29756, Note_on_c, 0, 61, 0
1, 29756, Note_on_c, 0, 57, 0
1, 29756, Note_on_c, 0, 52, 0
1, 29760, Note_on_c, 9, 32, 100
1, 29760, Note_on_c, 9, 36, 127
1, 29880, Note_on_c, 9, 70, 80
1, 29996, Note_on_c, 9, 36, 0
1, 29996, Note_on_c, 9, 32, 0
1, 30000, Note_on_c, 0, 52, 100
1, 30000, Note_on_c, 0, 57, 100
1, 30000, Note_on_c, 0, 61, 100
1, 30000, Note_on_c, 1, 33, 100
1, 30000, Note_on_c, 2, 52, 100
1, 30000, Note_on_c, 2, 57, 100
1, 30000, Note_on_c, 2, 61, 100
1, 30000, Note_on_c, 4, 85, 127
1, 30000, Note_on_c, 13, 85, 127
1, 30116, Note_on_c, 9, 70, 0
1, 30236, Note_on_c, 13, 85, 0
1, 30236, Note_on_c, 4, 85, 0
1, 30236, Note_on_c, 2, 61, 0
1, 30236, Note_on_c, 2, 57, 0
1, 30236, Note_on_c, 2, 52, 0
1, 30236, Note_on_c, 1, 33, 0
1, 30236, Note_on_c, 0, 61, 0
1, 30236, Note_on_c, 0, 57, 0
1, 30236, Note_on_c, 0, 52, 0
1, 30240, Note_on_c, 0, 52, 100
1, 30240, Note_on_c, 0, 57, 100
1, 30240, Note_on_c, 0, 61, 100
1, 30240, Note_on_c, 2, 52, 100
1, 30240, Note_on_c, 2, 57, 100
1, 30240, Note_on_c, 2, 61, 100
1, 30240, Note_on_c, 4, 83, 119
1, 30240, Note_on_c, 9, 32, 100
1, 30240, Note_on_c, 9, 36, 127
1, 30240, Note_on_c, 9, 37, 127
1, 30240, Note_on_c, 13, 83, 119
1, 30476, Note_on_c, 13, 83, 0
1, 30476, Note_on_c, 9, 37, 0
1, 30476, Note_on_c, 9, 36, 0
1, 30476, Note_on_c, 9, 32, 0
1, 30476, Note_on_c, 4, 83, 0
1, 30476, Note_on_c, 2, 61, 0
1, 30476, Note_on_c, 2, 57, 0
1, 30476, Note_on_c, 2, 52, 0
1, 30476, Note_on_c, 0, 61, 0
1, 30476, Note_on_c, 0, 57, 0
1, 30476, Note_on_c, 0, 52, 0
1, 30480, Note_on_c, 0, 52, 100
1, 30480, Note_on_c, 0, 57, 100
1, 30480, Note_on_c, 0, 61, 100
1, 30480, Note_on_c, 1, 33, 100
1, 30480, Note_on_c, 2, 52, 100
1, 30480, Note_on_c, 2, 57, 100
1, 30480, Note_on_c, 2, 61, 100
1, 30480, Note_on_c, 4, 80, 125
1, 30480, Note_on_c, 13, 80, 125
1, 30716, Note_on_c, 13, 80, 0
1, 30716, Note_on_c, 4, 80, 0
1, 30716, Note_on_c, 2, 61, 0
1, 30716, Note_on_c, 2, 57, 0
1, 30716, Note_on_c, 2, 52, 0
1, 30716, Note_on_c, 1, 33, 0
1, 30716, Note_on_c, 0, 61, 0
1, 30716, Note_on_c, 0, 57, 0
1, 30716, Note_on_c, 0, 52, 0
1, 30720, Note_on_c, 0, 56, 100
1, 30720, Note_on_c, 0, 61, 100
1, 30720, Note_on_c, 0, 66, 100
1, 30720, Note_on_c, 2, 56, 100
1, 30720, Note_on_c, 2, 61, 100
1, 30720, Note_on_c, 2, 66, 100
1, 30720, Note_on_c, 4, 78, 127
1, 30720, Note_on_c, 9, 32, 100
1, 30720, Note_on_c, 9, 36, 127
1, 30720, Note_on_c, 13, 78, 127
1, 30956, Note_on_c, 13, 78, 0
1, 30956, Note_on_c, 9, 36, 0
1, 30956, Note_on_c, 9, 32, 0
1, 30956, Note_on_c, 4, 78, 0
1, 30956, Note_on_c, 2, 66, 0
1, 30956, Note_on_c, 2, 61, 0
1, 30956, Note_on_c, 2, 56, 0
1, 30956, Note_on_c, 0, 66, 0
1, 30956, Note_on_c, 0, 61, 0
1, 30956, Note_on_c, 0, 56, 0
1, 30960, Note_on_c, 0, 56, 100
1, 30960, Note_on_c, 0, 61, 100
1, 30960, Note_on_c, 0, 64, 100
1, 30960, Note_on_c, 1, 37, 100
1, 30960, Note_on_c, 2, 56, 100
1, 30960, Note_on_c, 2, 61, 100
1, 30960, Note_on_c, 2, 64, 100
1, 30960, Note_on_c, 4, 76, 101
1, 30960, Note_on_c, 13, 76, 101
1, 31196, Note_on_c, 13, 76, 0
1, 31196, Note_on_c, 4, 76, 0
1, 31196, Note_on_c, 2, 64, 0
1, 31196, Note_on_c, 2, 61, 0
1, 31196, Note_on_c, 2, 56, 0
1, 31196, Note_on_c, 1, 37, 0
1, 31196, Note_on_c, 0, 64, 0
1, 31196, Note_on_c, 0, 61, 0
1, 31196, Note_on_c, 0, 56, 0
1, 31200, Note_on_c, 0, 56, 100
1, 31200, Note_on_c, 0, 61, 100
1, 31200, Note_on_c, 0, 64, 100
1, 31200, Note_on_c, 2, 56, 100
1, 31200, Note_on_c, 2, 61, 100
1, 31200, Note_on_c, 2, 64, 100
1, 31200, Note_on_c, 4, 76, 116
1, 31200, Note_on_c, 9, 32, 100
1, 31200, Note_on_c, 9, 36, 127
1, 31200, Note_on_c, 9, 37, 127
1, 31200, Note_on_c, 13, 76, 116
1, 31436, Note_on_c, 13, 76, 0
1, 31436, Note_on_c, 9, 37, 0
1, 31436, Note_on_c, 9, 36, 0
1, 31436, Note_on_c, 9, 32, 0
1, 31436, Note_on_c, 4, 76, 0
1, 31436, Note_on_c, 2, 64, 0
1, 31436, Note_on_c, 2, 61, 0
1, 31436, Note_on_c, 2, 56, 0
1, 31436, Note_on_c, 0, 64, 0
1, 31436, Note_on_c, 0, 61, 0
1, 31436, Note_on_c, 0, 56, 0
1, 31680, Note_on_c, 0, 56, 100
1, 31680, Note_on_c, 0, 59, 100
1, 31680, Note_on_c, 0, 64, 100
1, 31680, Note_on_c, 2, 56, 100
1, 31680, Note_on_c, 2, 59, 100
1, 31680, Note_on_c, 2, 64, 100
1, 31680, Note_on_c, 4, 76, 119
1, 31680, Note_on_c, 9, 32, 100
1, 31680, Note_on_c, 9, 36, 127
1, 31680, Note_on_c, 13, 76, 119
1, 31916, Note_on_c, 13, 76, 0
1, 31916, Note_on_c, 9, 36, 0
1, 31916, Note_on_c, 9, 32, 0
1, 31916, Note_on_c, 4, 76, 0
1, 31916, Note_on_c, 2, 64, 0
1, 31916, Note_on_c, 2, 59, 0
1, 31916, Note_on_c, 2, 56, 0
1, 31916, Note_on_c, 0, 64, 0
1, 31916, Note_on_c, 0, 59, 0
1, 31916, Note_on_c, 0, 56, 0
1, 31920, Note_on_c, 0, 56, 100
1, 31920, Note_on_c, 0, 59, 100
1, 31920, Note_on_c, 0, 64, 100
1, 31920, Note_on_c, 1, 40, 100
1, 31920, Note_on_c, 2, 56, 100
1, 31920, Note_on_c, 2, 59, 100
1, 31920, Note_on_c, 2, 64, 100
1, 31920, Note_on_c, 4, 76, 111
1, 31920, Note_on_c, 13, 76, 111
1, 32156, Note_on_c, 13, 76, 0
1, 32156, Note_on_c, 4, 76, 0
1, 32156, Note_on_c, 2, 64, 0
1, 32156, Note_on_c, 2, 59, 0
1, 32156, Note_on_c, 2, 56, 0
1, 32156, Note_on_c, 1, 40, 0
1, 32156, Note_on_c, 0, 64, 0
1, 32156, Note_on_c, 0, 59, 0
1, 32156, Note_on_c, 0, 56, 0
1, 32160, Note_on_c, 0, 56, 100
1, 32160, Note_on_c, 0, 59, 100
1, 32160, Note_on_c, 0, 64, 100
1, 32160, Note_on_c, 2, 56, 100
1, 32160, Note_on_c, 2, 59, 100
1, 32160, Note_on_c, 2, 64, 100
1, 32160, Note_on_c, 4, 76, 109
1, 32160, Note_on_c, 9, 32, 100
1, 32160, Note_on_c, 9, 36, 127
1, 32160, Note_on_c, 9, 37, 127
1, 32160, Note_on_c, 13, 76, 109
1, 32396, Note_on_c, 13, 76, 0
1, 32396, Note_on_c, 9, 37, 0
1, 32396, Note_on_c, 9, 36, 0
1, 32396, Note_on_c, 9, 32, 0
1, 32396, Note_on_c, 4, 76, 0
1, 32396, Note_on_c, 2, 64, 0
1, 32396, Note_on_c, 2, 59, 0
1, 32396, Note_on_c, 2, 56, 0
1, 32396, Note_on_c, 0, 64, 0
1, 32396, Note_on_c, 0, 59, 0
1, 32396, Note_on_c, 0, 56, 0
1, 32400, Note_on_c, 0, 56, 100
1, 32400, Note_on_c, 0, 59, 100
1, 32400, Note_on_c, 0, 64, 100
1, 32400, Note_on_c, 1, 40, 100
1, 32400, Note_on_c, 2, 56, 100
1, 32400, Note_on_c, 2, 59, 100
1, 32400, Note_on_c, 2, 64, 100
1, 32400, Note_on_c, 4, 76, 87
1, 32400, Note_on_c, 13, 76, 87
1, 32636, Note_on_c, 13, 76, 0
1, 32636, Note_on_c, 4, 76, 0
1, 32636, Note_on_c, 2, 64, 0
1, 32636, Note_on_c, 2, 59, 0
1, 32636, Note_on_c, 2, 56, 0
1, 32636, Note_on_c, 1, 40, 0
1, 32636, Note_on_c, 0, 64, 0
1, 32636, Note_on_c, 0, 59, 0
1, 32636, Note_on_c, 0, 56, 0
1, 32640, Note_on_c, 0, 54, 100
1, 32640, Note_on_c, 0, 59, 100
1, 32640, Note_on_c, 0, 63, 100
1, 32640, Note_on_c, 2, 54, 100
1, 32640, Note_on_c, 2, 59, 100
1, 32640, Note_on_c, 2, 63, 100
1, 32640, Note_on_c, 4, 73, 127
1, 32640, Note_on_c, 9, 32, 100
1, 32640, Note_on_c, 9, 36, 127
1, 32640, Note_on_c, 13, 73, 127
1, 32876, Note_on_c, 13, 73, 0
1, 32876, Note_on_c, 9, 36, 0
1, 32876, Note_on_c, 9, 32, 0
1, 32876, Note_on_c, 4, 73, 0
1, 32876, Note_on_c, 2, 63, 0
1, 32876, Note_on_c, 2, 59, 0
1, 32876, Note_on_c, 2, 54, 0
1, 32876, Note_on_c, 0, 63, 0
1, 32876, Note_on_c, 0, 59, 0
1, 32876, Note_on_c, 0, 54, 0
1, 32880, Note_on_c, 0, 54, 100
1, 32880, Note_on_c, 0, 59, 100
1, 32880, Note_on_c, 0, 63, 100
1, 32880, Note_on_c, 1, 35, 100
1, 32880, Note_on_c, 2, 54, 100
1, 32880, Note_on_c, 2, 59, 100
1, 32880, Note_on_c, 2, 63, 100
1, 32880, Note_on_c, 4, 73, 127
1, 32880, Note_on_c, 13, 73, 127
1, 33116, Note_on_c, 13, 73, 0
1, 33116, Note_on_c, 4, 73, 0
1, 33116, Note_on_c, 2, 63, 0
1, 33116, Note_on_c, 2, 59, 0
1, 33116, Note_on_c, 2, 54, 0
1, 33116, Note_on_c, 1, 35, 0
1, 33116, Note_on_c, 0, 63, 0
1, 33116, Note_on_c, 0, 59, 0
1, 33116, Note_on_c, 0, 54, 0
1, 33120, Note_on_c, 0, 54, 100
1, 33120, Note_on_c, 0, 59, 100
1, 33120, Note_on_c, 0, 63, 100
1, 33120, Note_on_c, 2, 54, 100
1, 33120, Note_on_c, 2, 59, 100
1, 33120, Note_on_c, 2, 63, 100
1, 33120, Note_on_c, 4, 71, 113
1, 33120, Note_on_c, 9, 32, 100
1, 33120, Note_on_c, 9, 36, 127
1, 33120, Note_on_c, 9, 37, 127
1, 33120, Note_on_c, 13, 71, 113
1, 33356, Note_on_c, 13, 71, 0
1, 33356, Note_on_c, 9, 37, 0
1, 33356, Note_on_c, 9, 36, 0
1, 33356, Note_on_c, 9, 32, 0
1, 33356, Note_on_c, 4, 71, 0
1, 33356, Note_on_c, 2, 63, 0
1, 33356, Note_on_c, 2, 59, 0
1, 33356, Note_on_c, 2, 54, 0
1, 33356, Note_on_c, 0, 63, 0
1, 33356, Note_on_c, 0, 59, 0
1, 33356, Note_on_c, 0, 54, 0
1, 33360, Note_on_c, 0, 52, 100
1, 33360, Note_on_c, 0, 57, 100
1, 33360, Note_on_c, 0, 61, 100
1, 33360, Note_on_c, 1, 33, 100
1, 33360, Note_on_c, 2, 52, 100
1, 33360, Note_on_c, 2, 57, 100
1, 33360, Note_on_c, 2, 61, 100
1, 33360, Note_on_c, 4, 71, 122
1, 33360, Note_on_c, 9, 29, 100
1, 33360, Note_on_c, 13, 71, 122
1, 33596, Note_on_c, 13, 71, 0
1, 33596, Note_on_c, 9, 29, 0
1, 33596, Note_on_c, 4, 71, 0
1, 33596, Note_on_c, 2, 61, 0
1, 33596, Note_on_c, 2, 57, 0
1, 33596, Note_on_c, 2, 52, 0
1, 33596, Note_on_c, 1, 33, 0
1, 33596, Note_on_c, 0, 61, 0
1, 33596, Note_on_c, 0, 57, 0
1, 33596, Note_on_c, 0, 52, 0
1, 33600, Note_on_c, 9, 27, 127
1, 33600, Note_on_c, 9, 32, 100
1, 33600, Note_on_c, 9, 36, 127
1, 33652, Note_on_c, 9, 27, 0
1, 33720, Note_on_c, 9, 27, 127
1, 33720, Note_on_c, 9, 70, 80
1, 33780, Note_on_c, 9, 27, 0
1, 33836, Note_on_c, 9, 36, 0
1, 33836, Note_on_c, 9, 32, 0
1, 33840, Note_on_c, 0, 52, 100
1, 33840, Note_on_c, 0, 57, 100
1, 33840, Note_on_c, 0, 61, 100
1, 33840, Note_on_c, 1, 33, 100
1, 33840, Note_on_c, 2, 52, 100
1, 33840, Note_on_c, 2, 57, 100
1, 33840, Note_on_c, 2, 61, 100
1, 33840, Note_on_c, 4, 85, 127
1, 33840, Note_on_c, 9, 27, 127
1, 33840, Note_on_c, 13, 85, 127
1, 33924, Note_on_c, 9, 27, 0
1, 33956, Note_on_c, 9, 70, 0
1, 34076, Note_on_c, 13, 85, 0
1, 34076, Note_on_c, 4, 85, 0
1, 34076, Note_on_c, 2, 61, 0
1, 34076, Note_on_c, 2, 57, 0
1, 34076, Note_on_c, 2, 52, 0
1, 34076, Note_on_c, 1, 33, 0
1, 34076, Note_on_c, 0, 61, 0
1, 34076, Note_on_c, 0, 57, 0
1, 34076, Note_on_c, 0, 52, 0
1, 34080, Note_on_c, 0, 52, 100
1, 34080, Note_on_c, 0, 57, 100
1, 34080, Note_on_c, 0, 61, 100
1, 34080, Note_on_c, 2, 52, 100
1, 34080, Note_on_c, 2, 57, 100
1, 34080, Note_on_c, 2, 61, 100
1, 34080, Note_on_c, 4, 83, 119
1, 34080, Note_on_c, 9, 32, 100
1, 34080, Note_on_c, 9, 36, 127
1, 34080, Note_on_c, 9, 37, 127
1, 34080, Note_on_c, 9, 38, 127
1, 34080, Note_on_c, 9, 39, 127
1, 34080, Note_on_c, 13, 83, 119
1, 34204, Note_on_c, 9, 39, 0
1, 34204, Note_on_c, 9, 38, 0
1, 34316, Note_on_c, 13, 83, 0
1, 34316, Note_on_c, 9, 37, 0
1, 34316, Note_on_c, 9, 36, 0
1, 34316, Note_on_c, 9, 32, 0
1, 34316, Note_on_c, 4, 83, 0
1, 34316, Note_on_c, 2, 61, 0
1, 34316, Note_on_c, 2, 57, 0
1, 34316, Note_on_c, 2, 52, 0
1, 34316, Note_on_c, 0, 61, 0
1, 34316, Note_on_c, 0, 57, 0
1, 34316, Note_on_c, 0, 52, 0
1, 34320, Note_on_c, 0, 52, 100
1, 34320, Note_on_c, 0, 57, 100
1, 34320, Note_on_c, 0, 61, 100
1, 34320, Note_on_c, 1, 33, 100
1, 34320, Note_on_c, 2, 52, 100
1, 34320, Note_on_c, 2, 57, 100
1, 34320, Note_on_c, 2, 61, 100
1, 34320, Note_on_c, 4, 80, 127
1, 34320, Note_on_c, 13, 80, 127
1, 34556, Note_on_c, 13, 80, 0
1, 34556, Note_on_c, 4, 80, 0
1, 34556, Note_on_c, 2, 61, 0
1, 34556, Note_on_c, 2, 57, 0
1, 34556, Note_on_c, 2, 52, 0
1, 34556, Note_on_c, 1, 33, 0
1, 34556, Note_on_c, 0, 61, 0
1, 34556, Note_on_c, 0, 57, 0
1, 34556, Note_on_c, 0, 52, 0
1, 34560, Note_on_c, 0, 56, 100
1, 34560, Note_on_c, 0, 61, 100
1, 34560, Note_on_c, 0, 66, 100
1, 34560, Note_on_c, 2, 56, 100
1, 34560, Note_on_c, 2, 61, 100
1, 34560, Note_on_c, 2, 66, 100
1, 34560, Note_on_c, 4, 78, 127
1, 34560, Note_on_c, 9, 32, 100
1, 34560, Note_on_c, 9, 36, 127
1, 34560, Note_on_c, 9, 42, 100
1, 34560, Note_on_c, 10, 42, 100
1, 34560, Note_on_c, 10, 60, 80
1, 34560, Note_on_c, 13, 78, 127
1, 34676, Note_on_c, 10, 42, 0
1, 34676, Note_on_c, 9, 42, 0
1, 34796, Note_on_c, 13, 78, 0
1, 34796, Note_on_c, 9, 36, 0
1, 34796, Note_on_c, 9, 32, 0
1, 34796, Note_on_c, 4, 78, 0
1, 34796, Note_on_c, 2, 66, 0
1, 34796, Note_on_c, 2, 61, 0
1, 34796, Note_on_c, 2, 56, 0
1, 34796, Note_on_c, 0, 66, 0
1, 34796, Note_on_c, 0, 61, 0
1, 34796, Note_on_c, 0, 56, 0
1, 34800, Note_on_c, 0, 56, 100
1, 34800, Note_on_c, 0, 61, 100
1, 34800, Note_on_c, 0, 64, 100
1, 34800, Note_on_c, 1, 37, 100
1, 34800, Note_on_c, 2, 56, 100
1, 34800, Note_on_c, 2, 61, 100
1, 34800, Note_on_c, 2, 64, 100
1, 34800, Note_on_c, 4, 76, 118
1, 34800, Note_on_c, 9, 42, 100
1, 34800, Note_on_c, 9, 82, 80
1, 34800, Note_on_c, 10, 42, 100
1, 34800, Note_on_c, 13, 76, 118
1, 34832, Note_on_c, 9, 82, 0
1, 34916, Note_on_c, 10, 42, 0
1, 34916, Note_on_c, 9, 42, 0
1, 34920, Note_on_c, 9, 42, 100
1, 34920, Note_on_c, 10, 42, 100
1, 35036, Note_on_c, 10, 42, 0
1, 35036, Note_on_c, 9, 42, 0
1, 35036, Note_on_c, 13, 76, 0
1, 35036, Note_on_c, 4, 76, 0
1, 35036, Note_on_c, 2, 64, 0
1, 35036, Note_on_c, 2, 61, 0
1, 35036, Note_on_c, 2, 56, 0
1, 35036, Note_on_c, 1, 37, 0
1, 35036, Note_on_c, 0, 64, 0
1, 35036, Note_on_c, 0, 61, 0
1, 35036, Note_on_c, 0, 56, 0
1, 35040, Note_on_c, 0, 56, 100
1, 35040, Note_on_c, 0, 61, 100
1, 35040, Note_on_c, 0, 64, 100
1, 35040, Note_on_c, 2, 56, 100
1, 35040, Note_on_c, 2, 61, 100
1, 35040, Note_on_c, 2, 64, 100
1, 35040, Note_on_c, 4, 76, 119
1, 35040, Note_on_c, 9, 32, 100
1, 35040, Note_on_c, 9, 36, 127
1, 35040, Note_on_c, 9, 37, 127
1, 35040, Note_on_c, 9, 42, 100
1, 35040, Note_on_c, 10, 42, 100
1, 35040, Note_on_c, 13, 76, 119
1, 35156, Note_on_c, 10, 42, 0
1, 35156, Note_on_c, 9, 42, 0
1, 35276, Note_on_c, 13, 76, 0
1, 35276, Note_on_c, 9, 37, 0
1, 35276, Note_on_c, 9, 36, 0
1, 35276, Note_on_c, 9, 32, 0
1, 35276, Note_on_c, 4, 76, 0
1, 35276, Note_on_c, 2, 64, 0
1, 35276, Note_on_c, 2, 61, 0
1, 35276, Note_on_c, 2, 56, 0
1, 35276, Note_on_c, 0, 64, 0
1, 35276, Note_on_c, 0, 61, 0
1, 35276, Note_on_c, 0, 56, 0
1, 35280, Note_on_c, 9, 42, 100
1, 35280, Note_on_c, 9, 82, 80
1, 35280, Note_on_c, 10, 42, 100
1, 35316, Note_on_c, 9, 82, 0
1, 35396, Note_on_c, 10, 42, 0
1, 35396, Note_on_c, 9, 42, 0
1, 35400, Note_on_c, 9, 42, 100
1, 35400, Note_on_c, 10, 42, 100
1, 35516, Note_on_c, 10, 42, 0
1, 35516, Note_on_c, 9, 42, 0
1, 35520, Note_on_c, 0, 56, 100
1, 35520, Note_on_c, 0, 59, 100
1, 35520, Note_on_c, 0, 64, 100
1, 35520, Note_on_c, 2, 56, 100
1, 35520, Note_on_c, 2, 59, 100
1, 35520, Note_on_c, 2, 64, 100
1, 35520, Note_on_c, 4, 76, 125
1, 35520, Note_on_c, 9, 32, 100
1, 35520, Note_on_c, 9, 36, 127
1, 35520, Note_on_c, 9, 42, 100
1, 35520, Note_on_c, 10, 42, 100
1, 35520, Note_on_c, 13, 76, 125
1, 35636, Note_on_c, 10, 42, 0
1, 35636, Note_on_c, 9, 42, 0
1, 35756, Note_on_c, 13, 76, 0
1, 35756, Note_on_c, 9, 36, 0
1, 35756, Note_on_c, 9, 32, 0
1, 35756, Note_on_c, 4, 76, 0
1, 35756, Note_on_c, 2, 64, 0
1, 35756, Note_on_c, 2, 59, 0
1, 35756, Note_on_c, 2, 56, 0
1, 35756, Note_on_c, 0, 64, 0
1, 35756, Note_on_c, 0, 59, 0
1, 35756, Note_on_c, 0, 56, 0
1, 35760, Note_on_c, 0, 56, 100
1, 35760, Note_on_c, 0, 59, 100
1, 35760, Note_on_c, 0, 64, 100
1, 35760, Note_on_c, 1, 40, 100
1, 35760, Note_on_c, 2, 56, 100
1, 35760, Note_on_c, 2, 59, 100
1, 35760, Note_on_c, 2, 64, 100
1, 35760, Note_on_c, 4, 76, 119
1, 35760, Note_on_c, 9, 42, 100
1, 35760, Note_on_c, 9, 82, 80
1, 35760, Note_on_c, 10, 42, 100
1, 35760, Note_on_c, 13, 76, 119
1, 35808, Note_on_c, 9, 82, 0
1, 35876, Note_on_c, 10, 42, 0
1, 35876, Note_on_c, 9, 42, 0
1, 35880, Note_on_c, 9, 42, 100
1, 35880, Note_on_c, 10, 42, 100
1, 35996, Note_on_c, 10, 42, 0
1, 35996, Note_on_c, 9, 42, 0
1, 35996, Note_on_c, 13, 76, 0
1, 35996, Note_on_c, 4, 76, 0
1, 35996, Note_on_c, 2, 64, 0
1, 35996, Note_on_c, 2, 59, 0
1, 35996, Note_on_c, 2, 56, 0
1, 35996, Note_on_c, 1, 40, 0
1, 35996, Note_on_c, 0, 64, 0
1, 35996, Note_on_c, 0, 59, 0
1, 35996, Note_on_c, 0, 56, 0
1, 36000, Note_on_c, 0, 56, 100
1, 36000, Note_on_c, 0, 59, 100
1, 36000, Note_on_c, 0, 64, 100
1, 36000, Note_on_c, 2, 56, 100
1, 36000, Note_on_c, 2, 59, 100
1, 36000, Note_on_c, 2, 64, 100
1, 36000, Note_on_c, 4, 76, 118
1, 36000, Note_on_c, 9, 32, 100
1, 36000, Note_on_c, 9, 36, 127
1, 36000, Note_on_c, 9, 37, 127
1, 36000, Note_on_c, 9, 42, 100
1, 36000, Note_on_c, 10, 42, 100
1, 36000, Note_on_c, 13, 76, 118
1, 36116, Note_on_c, 10, 42, 0
1, 36116, Note_on_c, 9, 42, 0
1, 36236, Note_on_c, 13, 76, 0
1, 36236, Note_on_c, 9, 37, 0
1, 36236, Note_on_c, 9, 36, 0
1, 36236, Note_on_c, 9, 32, 0
1, 36236, Note_on_c, 4, 76, 0
1, 36236, Note_on_c, 2, 64, 0
1, 36236, Note_on_c, 2, 59, 0
1, 36236, Note_on_c, 2, 56, 0
1, 36236, Note_on_c, 0, 64, 0
1, 36236, Note_on_c, 0, 59, 0
1, 36236, Note_on_c, 0, 56, 0
1, 36240, Note_on_c, 0, 56, 100
1, 36240, Note_on_c, 0, 59, 100
1, 36240, Note_on_c, 0, 64, 100
1, 36240, Note_on_c, 1, 40, 100
1, 36240, Note_on_c, 2, 56, 100
1, 36240, Note_on_c, 2, 59, 100
1, 36240, Note_on_c, 2, 64, 100
1, 36240, Note_on_c, 4, 76, 116
1, 36240, Note_on_c, 9, 42, 100
1, 36240, Note_on_c, 9, 82, 80
1, 36240, Note_on_c, 10, 42, 100
1, 36240, Note_on_c, 13, 76, 116
1, 36292, Note_on_c, 9, 82, 0
1, 36356, Note_on_c, 10, 42, 0
1, 36356, Note_on_c, 9, 42, 0
1, 36360, Note_on_c, 9, 42, 100
1, 36360, Note_on_c, 10, 42, 100
1, 36476, Note_on_c, 10, 42, 0
1, 36476, Note_on_c, 9, 42, 0
1, 36476, Note_on_c, 13, 76, 0
1, 36476, Note_on_c, 4, 76, 0
1, 36476, Note_on_c, 2, 64, 0
1, 36476, Note_on_c, 2, 59, 0
1, 36476, Note_on_c, 2, 56, 0
1, 36476, Note_on_c, 1, 40, 0
1, 36476, Note_on_c, 0, 64, 0
1, 36476, Note_on_c, 0, 59, 0
1, 36476, Note_on_c, 0, 56, 0
1, 36480, Note_on_c, 0, 54, 100
1, 36480, Note_on_c, 0, 59, 100
1, 36480, Note_on_c, 0, 63, 100
1, 36480, Note_on_c, 2, 54, 100
1, 36480, Note_on_c, 2, 59, 100
1, 36480, Note_on_c, 2, 63, 100
1, 36480, Note_on_c, 4, 75, 119
1, 36480, Note_on_c, 9, 32, 100
1, 36480, Note_on_c, 9, 36, 127
1, 36480, Note_on_c, 9, 42, 100
1, 36480, Note_on_c, 10, 42, 100
1, 36480, Note_on_c, 13, 75, 119
1, 36596, Note_on_c, 10, 42, 0
1, 36596, Note_on_c, 9, 42, 0
1, 36716, Note_on_c, 13, 75, 0
1, 36716, Note_on_c, 9, 36, 0
1, 36716, Note_on_c, 9, 32, 0
1, 36716, Note_on_c, 4, 75, 0
1, 36716, Note_on_c, 2, 63, 0
1, 36716, Note_on_c, 2, 59, 0
1, 36716, Note_on_c, 2, 54, 0
1, 36716, Note_on_c, 0, 63, 0
1, 36716, Note_on_c, 0, 59, 0
1, 36716, Note_on_c, 0, 54, 0
1, 36720, Note_on_c, 0, 54, 100
1, 36720, Note_on_c, 0, 59, 100
1, 36720, Note_on_c, 0, 63, 100
1, 36720, Note_on_c, 1, 35, 100
1, 36720, Note_on_c, 2, 54, 100
1, 36720, Note_on_c, 2, 59, 100
1, 36720, Note_on_c, 2, 63, 100
1, 36720, Note_on_c, 4, 75, 119
1, 36720, Note_on_c, 9, 42, 100
1, 36720, Note_on_c, 9, 82, 80
1, 36720, Note_on_c, 10, 42, 100
1, 36720, Note_on_c, 13, 75, 119
1, 36772, Note_on_c, 9, 82, 0
1, 36836, Note_on_c, 10, 42, 0
1, 36836, Note_on_c, 9, 42, 0
1, 36840, Note_on_c, 9, 42, 100
1, 36840, Note_on_c, 10, 42, 100
1, 36956, Note_on_c, 10, 42, 0
1, 36956, Note_on_c, 9, 42, 0
1, 36956, Note_on_c, 13, 75, 0
1, 36956, Note_on_c, 4, 75, 0
1, 36956, Note_on_c, 2, 63, 0
1, 36956, Note_on_c, 2, 59, 0
1, 36956, Note_on_c, 2, 54, 0
1, 36956, Note_on_c, 1, 35, 0
1, 36956, Note_on_c, 0, 63, 0
1, 36956, Note_on_c, 0, 59, 0
1, 36956, Note_on_c, 0, 54, 0
1, 36960, Note_on_c, 0, 54, 100
1, 36960, Note_on_c, 0, 59, 100
1, 36960, Note_on_c, 0, 63, 100
1, 36960, Note_on_c, 2, 54, 100
1, 36960, Note_on_c, 2, 59, 100
1, 36960, Note_on_c, 2, 63, 100
1, 36960, Note_on_c, 4, 76, 113
1, 36960, Note_on_c, 9, 32, 100
1, 36960, Note_on_c, 9, 36, 127
1, 36960, Note_on_c, 9, 37, 127
1, 36960, Note_on_c, 9, 42, 100
1, 36960, Note_on_c, 10, 42, 100
1, 36960, Note_on_c, 13, 76, 113
1, 37076, Note_on_c, 10, 42, 0
1, 37076, Note_on_c, 9, 42, 0
1, 37196, Note_on_c, 13, 76, 0
1, 37196, Note_on_c, 9, 37, 0
1, 37196, Note_on_c, 9, 36, 0
1, 37196, Note_on_c, 9, 32, 0
1, 37196, Note_on_c, 4, 76, 0
1, 37196, Note_on_c, 2, 63, 0
1, 37196, Note_on_c, 2, 59, 0
1, 37196, Note_on_c, 2, 54, 0
1, 37196, Note_on_c, 0, 63, 0
1, 37196, Note_on_c, 0, 59, 0
1, 37196, Note_on_c, 0, 54, 0
1, 37200, Note_on_c, 0, 52, 100
1, 37200, Note_on_c, 0, 57, 100
1, 37200, Note_on_c, 0, 61, 100
1, 37200, Note_on_c, 1, 33, 100
1, 37200, Note_on_c, 2, 52, 100
1, 37200, Note_on_c, 2, 57, 100
1, 37200, Note_on_c, 2, 61, 100
1, 37200, Note_on_c, 4, 76, 111
1, 37200, Note_on_c, 9, 29, 100
1, 37200, Note_on_c, 9, 42, 100
1, 37200, Note_on_c, 9, 82, 80
1, 37200, Note_on_c, 10, 42, 100
1, 37200, Note_on_c, 13, 76, 111
1, 37256, Note_on_c, 9, 82, 0
1, 37316, Note_on_c, 10, 42, 0
1, 37316, Note_on_c, 9, 42, 0
1, 37320, Note_on_c, 9, 42, 100
1, 37320, Note_on_c, 10, 42, 100
1, 37436, Note_on_c, 10, 42, 0
1, 37436, Note_on_c, 9, 42, 0
1, 37436, Note_on_c, 13, 76, 0
1, 37436, Note_on_c, 9, 29, 0
1, 37436, Note_on_c, 4, 76, 0
1, 37436, Note_on_c, 2, 61, 0
1, 37436, Note_on_c, 2, 57, 0
1, 37436, Note_on_c, 2, 52, 0
1, 37436, Note_on_c, 1, 33, 0
1, 37436, Note_on_c, 0, 61, 0
1, 37436, Note_on_c, 0, 57, 0
1, 37436, Note_on_c, 0, 52, 0
1, 37440, Note_on_c, 9, 32, 100
1, 37440, Note_on_c, 9, 36, 127
1, 37440, Note_on_c, 9, 42, 100
1, 37440, Note_on_c, 10, 42, 100
1, 37556, Note_on_c, 10, 42, 0
1, 37556, Note_on_c, 9, 42, 0
1, 37560, Note_on_c, 9, 70, 80
1, 37676, Note_on_c, 9, 36, 0
1, 37676, Note_on_c, 9, 32, 0
1, 37680, Note_on_c, 0, 52, 100
1, 37680, Note_on_c, 0, 57, 100
1, 37680, Note_on_c, 0, 61, 100
1, 37680, Note_on_c, 1, 33, 100
1, 37680, Note_on_c, 2, 52, 100
1, 37680, Note_on_c, 2, 57, 100
1, 37680, Note_on_c, 2, 61, 100
1, 37680, Note_on_c, 4, 85, 127
1, 37680, Note_on_c, 9, 42, 100
1, 37680, Note_on_c, 9, 82, 80
1, 37680, Note_on_c, 10, 42, 100
1, 37680, Note_on_c, 13, 85, 127
1, 37720, Note_on_c, 9, 82, 0
1, 37796, Note_on_c, 10, 42, 0
1, 37796, Note_on_c, 9, 42, 0
1, 37796, Note_on_c, 9, 70, 0
1, 37800, Note_on_c, 9, 42, 100
1, 37800, Note_on_c, 10, 42, 100
1, 37916, Note_on_c, 10, 42, 0
1, 37916, Note_on_c, 9, 42, 0
1, 37916, Note_on_c, 13, 85, 0
1, 37916, Note_on_c, 4, 85, 0
1, 37916, Note_on_c, 2, 61, 0
1, 37916, Note_on_c, 2, 57, 0
1, 37916, Note_on_c, 2, 52, 0
1, 37916, Note_on_c, 1, 33, 0
1, 37916, Note_on_c, 0, 61, 0
1, 37916, Note_on_c, 0, 57, 0
1, 37916, Note_on_c, 0, 52, 0
1, 37920, Note_on_c, 0, 52, 100
1, 37920, Note_on_c, 0, 57, 100
1, 37920, Note_on_c, 0, 61, 100
1, 37920, Note_on_c, 2, 52, 100
1, 37920, Note_on_c, 2, 57, 100
1, 37920, Note_on_c, 2, 61, 100
1, 37920, Note_on_c, 4, 83, 119
1, 37920, Note_on_c, 9, 32, 100
1, 37920, Note_on_c, 9, 36, 127
1, 37920, Note_on_c, 9, 37, 127
1, 37920, Note_on_c, 9, 42, 100
1, 37920, Note_on_c, 10, 42, 100
1, 37920, Note_on_c, 13, 83, 119
1, 38036, Note_on_c, 10, 42, 0
1, 38036, Note_on_c, 9, 42, 0
1, 38156, Note_on_c, 13, 83, 0
1, 38156, Note_on_c, 9, 37, 0
1, 38156, Note_on_c, 9, 36, 0
1, 38156, Note_on_c, 9, 32, 0
1, 38156, Note_on_c, 4, 83, 0
1, 38156, Note_on_c, 2, 61, 0
1, 38156, Note_on_c, 2, 57, 0
1, 38156, Note_on_c, 2, 52, 0
1, 38156, Note_on_c, 0, 61, 0
1, 38156, Note_on_c, 0, 57, 0
1, 38156, Note_on_c, 0, 52, 0
1, 38160, Note_on_c, 0, 52, 100
1, 38160, Note_on_c, 0, 57, 100
1, 38160, Note_on_c, 0, 61, 100
1, 38160, Note_on_c, 1, 33, 100
1, 38160, Note_on_c, 2, 52, 100
1, 38160, Note_on_c, 2, 57, 100
1, 38160, Note_on_c, 2, 61, 100
1, 38160, Note_on_c, 4, 80, 125
1, 38160, Note_on_c, 9, 42, 100
1, 38160, Note_on_c, 9, 82, 80
1, 38160, Note_on_c, 10, 42, 100
1, 38160, Note_on_c, 13, 80, 125
1, 38200, Note_on_c, 9, 82, 0
1, 38276, Note_on_c, 10, 42, 0
1, 38276, Note_on_c, 9, 42, 0
1, 38280, Note_on_c, 9, 42, 100
1, 38280, Note_on_c, 10, 42, 100
1, 38396, Note_on_c, 10, 42, 0
1, 38396, Note_on_c, 9, 42, 0
1, 38396, Note_on_c, 13, 80, 0
1, 38396, Note_on_c, 4, 80, 0
1, 38396, Note_on_c, 2, 61, 0
1, 38396, Note_on_c, 2, 57, 0
1, 38396, Note_on_c, 2, 52, 0
1, 38396, Note_on_c, 1, 33, 0
1, 38396, Note_on_c, 0, 61, 0
1, 38396, Note_on_c, 0, 57, 0
1, 38396, Note_on_c, 0, 52, 0
1, 38396, Note_on_c, 10, 60, 0
1, 38400, Note_on_c, 0, 56, 100
1, 38400, Note_on_c, 0, 61, 100
1, 38400, Note_on_c, 0, 66, 100
1, 38400, Note_on_c, 2, 56, 100
1, 38400, Note_on_c, 2, 61, 100
1, 38400, Note_on_c, 2, 66, 100
1, 38400, Note_on_c, 4, 78, 127
1, 38400, Note_on_c, 9, 32, 100
1, 38400, Note_on_c, 9, 36, 127
1, 38400, Note_on_c, 9, 42, 100
1, 38400, Note_on_c, 10, 42, 100
1, 38400, Note_on_c, 13, 78, 127
1, 38516, Note_on_c, 10, 42, 0
1, 38516, Note_on_c, 9, 42, 0
1, 38636, Note_on_c, 13, 78, 0
1, 38636, Note_on_c, 9, 36, 0
1, 38636, Note_on_c, 9, 32, 0
1, 38636, Note_on_c, 4, 78, 0
1, 38636, Note_on_c, 2, 66, 0
1, 38636, Note_on_c, 2, 61, 0
1, 38636, Note_on_c, 2, 56, 0
1, 38636, Note_on_c, 0, 66, 0
1, 38636, Note_on_c, 0, 61, 0
1, 38636, Note_on_c, 0, 56, 0
1, 38640, Note_on_c, 0, 56, 100
1, 38640, Note_on_c, 0, 61, 100
1, 38640, Note_on_c, 0, 64, 100
1, 38640, Note_on_c, 1, 37, 100
1, 38640, Note_on_c, 2, 56, 100
1, 38640, Note_on_c, 2, 61, 100
1, 38640, Note_on_c, 2, 64, 100
1, 38640, Note_on_c, 4, 76, 101
1, 38640, Note_on_c, 9, 42, 100
1, 38640, Note_on_c, 9, 82, 80
1, 38640, Note_on_c, 10, 42, 100
1, 38640, Note_on_c, 13, 76, 101
1, 38688, Note_on_c, 9, 82, 0
1, 38756, Note_on_c, 10, 42, 0
1, 38756, Note_on_c, 9, 42, 0
1, 38760, Note_on_c, 9, 42, 100
1, 38760, Note_on_c, 10, 42, 100
1, 38876, Note_on_c, 10, 42, 0
1, 38876, Note_on_c, 9, 42, 0
1, 38876, Note_on_c, 13, 76, 0
1, 38876, Note_on_c, 4, 76, 0
1, 38876, Note_on_c, 2, 64, 0
1, 38876, Note_on_c, 2, 61, 0
1, 38876, Note_on_c, 2, 56, 0
1, 38876, Note_on_c, 1, 37, 0
1, 38876, Note_on_c, 0, 64, 0
1, 38876, Note_on_c, 0, 61, 0
1, 38876, Note_on_c, 0, 56, 0
1, 38880, Note_on_c, 0, 56, 100
1, 38880, Note_on_c, 0, 61, 100
1, 38880, Note_on_c, 0, 64, 100
1, 38880, Note_on_c, 2, 56, 100
1, 38880, Note_on_c, 2, 61, 100
1, 38880, Note_on_c, 2, 64, 100
1, 38880, Note_on_c, 4, 76, 116
1, 38880, Note_on_c, 9, 32, 100
1, 38880, Note_on_c, 9, 36, 127
1, 38880, Note_on_c, 9, 37, 127
1, 38880, Note_on_c, 9, 42, 100
1, 38880, Note_on_c, 10, 42, 100
1, 38880, Note_on_c, 13, 76, 116
1, 38996, Note_on_c, 10, 42, 0
1, 38996, Note_on_c, 9, 42, 0
1, 39116, Note_on_c, 13, 76, 0
1, 39116, Note_on_c, 9, 37, 0
1, 39116, Note_on_c, 9, 36, 0
1, 39116, Note_on_c, 9, 32, 0
1, 39116, Note_on_c, 4, 76, 0
1, 39116, Note_on_c, 2, 64, 0
1, 39116, Note_on_c, 2, 61, 0
1, 39116, Note_on_c, 2, 56, 0
1, 39116, Note_on_c, 0, 64, 0
1, 39116, Note_on_c, 0, 61, 0
1, 39116, Note_on_c, 0, 56, 0
1, 39120, Note_on_c, 9, 42, 100
1, 39120, Note_on_c, 9, 82, 80
1, 39120, Note_on_c, 10, 42, 100
1, 39172, Note_on_c, 9, 82, 0
1, 39236, Note_on_c, 10, 42, 0
1, 39236, Note_on_c, 9, 42, 0
1, 39240, Note_on_c, 9, 42, 100
1, 39240, Note_on_c, 10, 42, 100
1, 39356, Note_on_c, 10, 42, 0
1, 39356, Note_on_c, 9, 42, 0
1, 39360, Note_on_c, 0, 56, 100
1, 39360, Note_on_c, 0, 59, 100
1, 39360, Note_on_c, 0, 64, 100
1, 39360, Note_on_c, 2, 56, 100
1, 39360, Note_on_c, 2, 59, 100
1, 39360, Note_on_c, 2, 64, 100
1, 39360, Note_on_c, 4, 76, 119
1, 39360, Note_on_c, 9, 32, 100
1, 39360, Note_on_c, 9, 36, 127
1, 39360, Note_on_c, 9, 42, 100
1, 39360, Note_on_c, 10, 42, 100
1, 39360, Note_on_c, 13, 76, 119
1, 39476, Note_on_c, 10, 42, 0
1, 39476, Note_on_c, 9, 42, 0
1, 39596, Note_on_c, 13, 76, 0
1, 39596, Note_on_c, 9, 36, 0
1, 39596, Note_on_c, 9, 32, 0
1, 39596, Note_on_c, 4, 76, 0
1, 39596, Note_on_c, 2, 64, 0
1, 39596, Note_on_c, 2, 59, 0
1, 39596, Note_on_c, 2, 56, 0
1, 39596, Note_on_c, 0, 64, 0
1, 39596, Note_on_c, 0, 59, 0
1, 39596, Note_on_c, 0, 56, 0
1, 39600, Note_on_c, 0, 56, 100
1, 39600, Note_on_c, 0, 59, 100
1, 39600, Note_on_c, 0, 64, 100
1, 39600, Note_on_c, 1, 40, 100
1, 39600, Note_on_c, 2, 56, 100
1, 39600, Note_on_c, 2, 59, 100
1, 39600, Note_on_c, 2, 64, 100
1, 39600, Note_on_c, 4, 76, 111
1, 39600, Note_on_c, 9, 42, 100
1, 39600, Note_on_c, 9, 82, 80
1, 39600, Note_on_c, 10, 42, 100
1, 39600, Note_on_c, 13, 76, 111
1, 39648, Note_on_c, 9, 82, 0
1, 39716, Note_on_c, 10, 42, 0
1, 39716, Note_on_c, 9, 42, 0
1, 39720, Note_on_c, 9, 42, 100
1, 39720, Note_on_c, 10, 42, 100
1, 39836, Note_on_c, 10, 42, 0
1, 39836, Note_on_c, 9, 42, 0
1, 39836, Note_on_c, 13, 76, 0
1, 39836, Note_on_c, 4, 76, 0
1, 39836, Note_on_c, 2, 64, 0
1, 39836, Note_on_c, 2, 59, 0
1, 39836, Note_on_c, 2, 56, 0
1, 39836, Note_on_c, 1, 40, 0
1, 39836, Note_on_c, 0, 64, 0
1, 39836, Note_on_c, 0, 59, 0
1, 39836, Note_on_c, 0, 56, 0
1, 39840, Note_on_c, 0, 56, 100
1, 39840, Note_on_c, 0, 59, 100
1, 39840, Note_on_c, 0, 64, 100
1, 39840, Note_on_c, 2, 56, 100
1, 39840, Note_on_c, 2, 59, 100
1, 39840, Note_on_c, 2, 64, 100
1, 39840, Note_on_c, 4, 76, 109
1, 39840, Note_on_c, 9, 32, 100
1, 39840, Note_on_c, 9, 36, 127
1, 39840, Note_on_c, 9, 37, 127
1, 39840, Note_on_c, 9, 42, 100
1, 39840, Note_on_c, 10, 42, 100
1, 39840, Note_on_c, 13, 76, 109
1, 39956, Note_on_c, 10, 42, 0
1, 39956, Note_on_c, 9, 42, 0
1, 40076, Note_on_c, 13, 76, 0
1, 40076, Note_on_c, 9, 37, 0
1, 40076, Note_on_c, 9, 36, 0
1, 40076, Note_on_c, 9, 32, 0
1, 40076, Note_on_c, 4, 76, 0
1, 40076, Note_on_c, 2, 64, 0
1, 40076, Note_on_c, 2, 59, 0
1, 40076, Note_on_c, 2, 56, 0
1, 40076, Note_on_c, 0, 64, 0
1, 40076, Note_on_c, 0, 59, 0
1, 40076, Note_on_c, 0, 56, 0
1, 40080, Note_on_c, 0, 56, 100
1, 40080, Note_on_c, 0, 59, 100
1, 40080, Note_on_c, 0, 64, 100
1, 40080, Note_on_c, 1, 40, 100
1, 40080, Note_on_c, 2, 56, 100
1, 40080, Note_on_c, 2, 59, 100
1, 40080, Note_on_c, 2, 64, 100
1, 40080, Note_on_c, 4, 76, 87
1, 40080, Note_on_c, 9, 42, 100
1, 40080, Note_on_c, 9, 82, 80
1, 40080, Note_on_c, 10, 42, 100
1, 40080, Note_on_c, 13, 76, 87
1, 40120, Note_on_c, 9, 82, 0
1, 40196, Note_on_c, 10, 42, 0
1, 40196, Note_on_c, 9, 42, 0
1, 40200, Note_on_c, 9, 42, 100
1, 40200, Note_on_c, 10, 42, 100
1, 40316, Note_on_c, 10, 42, 0
1, 40316, Note_on_c, 9, 42, 0
1, 40316, Note_on_c, 13, 76, 0
1, 40316, Note_on_c, 4, 76, 0
1, 40316, Note_on_c, 2, 64, 0
1, 40316, Note_on_c, 2, 59, 0
1, 40316, Note_on_c, 2, 56, 0
1, 40316, Note_on_c, 1, 40, 0
1, 40316, Note_on_c, 0, 64, 0
1, 40316, Note_on_c, 0, 59, 0
1, 40316, Note_on_c, 0, 56, 0
1, 40320, Note_on_c, 0, 54, 100
1, 40320, Note_on_c, 0, 59, 100
1, 40320, Note_on_c, 0, 63, 100
1, 40320, Note_on_c, 2, 54, 100
1, 40320, Note_on_c, 2, 59, 100
1, 40320, Note_on_c, 2, 63, 100
1, 40320, Note_on_c, 4, 73, 127
1, 40320, Note_on_c, 9, 32, 100
1, 40320, Note_on_c, 9, 36, 127
1, 40320, Note_on_c, 9, 42, 100
1, 40320, Note_on_c, 10, 42, 100
1, 40320, Note_on_c, 13, 73, 127
1, 40436, Note_on_c, 10, 42, 0
1, 40436, Note_on_c, 9, 42, 0
1, 40556, Note_on_c, 13, 73, 0
1, 40556, Note_on_c, 9, 36, 0
1, 40556, Note_on_c, 9, 32, 0
1, 40556, Note_on_c, 4, 73, 0
1, 40556, Note_on_c, 2, 63, 0
1, 40556, Note_on_c, 2, 59, 0
1, 40556, Note_on_c, 2, 54, 0
1, 40556, Note_on_c, 0, 63, 0
1, 40556, Note_on_c, 0, 59, 0
1, 40556, Note_on_c, 0, 54, 0
1, 40560, Note_on_c, 0, 54, 100
1, 40560, Note_on_c, 0, 59, 100
1, 40560, Note_on_c, 0, 63, 100
1, 40560, Note_on_c, 1, 35, 100
1, 40560, Note_on_c, 2, 54, 100
1, 40560, Note_on_c, 2, 59, 100
1, 40560, Note_on_c, 2, 63, 100
1, 40560, Note_on_c, 4, 73, 127
1, 40560, Note_on_c, 9, 42, 100
1, 40560, Note_on_c, 9, 82, 80
1, 40560, Note_on_c, 10, 42, 100
1, 40560, Note_on_c, 13, 73, 127
1, 40604, Note_on_c, 9, 82, 0
1, 40676, Note_on_c, 10, 42, 0
1, 40676, Note_on_c, 9, 42, 0
1, 40680, Note_on_c, 9, 42, 100
1, 40680, Note_on_c, 10, 42, 100
1, 40796, Note_on_c, 10, 42, 0
1, 40796, Note_on_c, 9, 42, 0
1, 40796, Note_on_c, 13, 73, 0
1, 40796, Note_on_c, 4, 73, 0
1, 40796, Note_on_c, 2, 63, 0
1, 40796, Note_on_c, 2, 59, 0
1, 40796, Note_on_c, 2, 54, 0
1, 40796, Note_on_c, 1, 35, 0
1, 40796, Note_on_c, 0, 63, 0
1, 40796, Note_on_c, 0, 59, 0
1, 40796, Note_on_c, 0, 54, 0
1, 40800, Note_on_c, 0, 54, 100
1, 40800, Note_on_c, 0, 59, 100
1, 40800, Note_on_c, 0, 63, 100
1, 40800, Note_on_c, 2, 54, 100
1, 40800, Note_on_c, 2, 59, 100
1, 40800, Note_on_c, 2, 63, 100
1, 40800, Note_on_c, 4, 71, 113
1, 40800, Note_on_c, 8, 48, 80
1, 40800, Note_on_c, 9, 32, 100
1, 40800, Note_on_c, 9, 36, 127
1, 40800, Note_on_c, 9, 37, 127
1, 40800, Note_on_c, 9, 42, 100
1, 40800, Note_on_c, 10, 42, 100
1, 40800, Note_on_c, 13, 71, 113
1, 40916, Note_on_c, 10, 42, 0
1, 40916, Note_on_c, 9, 42, 0
1, 41036, Note_on_c, 13, 71, 0
1, 41036, Note_on_c, 9, 37, 0
1, 41036, Note_on_c, 9, 36, 0
1, 41036, Note_on_c, 9, 32, 0
1, 41036, Note_on_c, 4, 71, 0
1, 41036, Note_on_c, 2, 63, 0
1, 41036, Note_on_c, 2, 59, 0
1, 41036, Note_on_c, 2, 54, 0
1, 41036, Note_on_c, 0, 63, 0
1, 41036, Note_on_c, 0, 59, 0
1, 41036, Note_on_c, 0, 54, 0
1, 41040, Note_on_c, 0, 52, 100
1, 41040, Note_on_c, 0, 57, 100
1, 41040, Note_on_c, 0, 61, 100
1, 41040, Note_on_c, 1, 33, 100
1, 41040, Note_on_c, 2, 52, 100
1, 41040, Note_on_c, 2, 57, 100
1, 41040, Note_on_c, 2, 61, 100
1, 41040, Note_on_c, 4, 71, 122
1, 41040, Note_on_c, 9, 29, 100
1, 41040, Note_on_c, 9, 42, 100
1, 41040, Note_on_c, 9, 82, 80
1, 41040, Note_on_c, 10, 42, 100
1, 41040, Note_on_c, 13, 71, 122
1, 41080, Note_on_c, 9, 82, 0
1, 41156, Note_on_c, 10, 42, 0
1, 41156, Note_on_c, 9, 42, 0
1, 41160, Note_on_c, 9, 42, 100
1, 41160, Note_on_c, 10, 42, 100
1, 41276, Note_on_c, 10, 42, 0
1, 41276, Note_on_c, 9, 42, 0
1, 41276, Note_on_c, 13, 71, 0
1, 41276, Note_on_c, 9, 29, 0
1, 41276, Note_on_c, 4, 71, 0
1, 41276, Note_on_c, 2, 61, 0
1, 41276, Note_on_c, 2, 57, 0
1, 41276, Note_on_c, 2, 52, 0
1, 41276, Note_on_c, 1, 33, 0
1, 41276, Note_on_c, 0, 61, 0
1, 41276, Note_on_c, 0, 57, 0
1, 41276, Note_on_c, 0, 52, 0
1, 41280, Note_on_c, 9, 32, 100
1, 41280, Note_on_c, 9, 36, 127
1, 41280, Note_on_c, 9, 42, 100
1, 41280, Note_on_c, 10, 42, 100
1, 41396, Note_on_c, 10, 42, 0
1, 41396, Note_on_c, 9, 42, 0
1, 41400, Note_on_c, 9, 70, 80
1, 41516, Note_on_c, 9, 36, 0
1, 41516, Note_on_c, 9, 32, 0
1, 41520, Note_on_c, 0, 52, 100
1, 41520, Note_on_c, 0, 57, 100
1, 41520, Note_on_c, 0, 61, 100
1, 41520, Note_on_c, 1, 33, 100
1, 41520, Note_on_c, 2, 52, 100
1, 41520, Note_on_c, 2, 57, 100
1, 41520, Note_on_c, 2, 61, 100
1, 41520, Note_on_c, 4, 85, 127
1, 41520, Note_on_c, 9, 42, 100
1, 41520, Note_on_c, 9, 82, 80
1, 41520, Note_on_c, 10, 42, 100
1, 41520, Note_on_c, 13, 85, 127
1, 41560, Note_on_c, 9, 82, 0
1, 41636, Note_on_c, 10, 42, 0
1, 41636, Note_on_c, 9, 42, 0
1, 41636, Note_on_c, 9, 70, 0
1, 41640, Note_on_c, 9, 42, 100
1, 41640, Note_on_c, 10, 42, 100
1, 41756, Note_on_c, 10, 42, 0
1, 41756, Note_on_c, 9, 42, 0
1, 41756, Note_on_c, 13, 85, 0
1, 41756, Note_on_c, 4, 85, 0
1, 41756, Note_on_c, 2, 61, 0
1, 41756, Note_on_c, 2, 57, 0
1, 41756, Note_on_c, 2, 52, 0
1, 41756, Note_on_c, 1, 33, 0
1, 41756, Note_on_c, 0, 61, 0
1, 41756, Note_on_c, 0, 57, 0
1, 41756, Note_on_c, 0, 52, 0
1, 41760, Note_on_c, 0, 52, 100
1, 41760, Note_on_c, 0, 57, 100
1, 41760, Note_on_c, 0, 61, 100
1, 41760, Note_on_c, 2, 52, 100
1, 41760, Note_on_c, 2, 57, 100
1, 41760, Note_on_c, 2, 61, 100
1, 41760, Note_on_c, 4, 83, 119
1, 41760, Note_on_c, 9, 32, 100
1, 41760, Note_on_c, 9, 36, 127
1, 41760, Note_on_c, 9, 37, 127
1, 41760, Note_on_c, 9, 42, 100
1, 41760, Note_on_c, 10, 42, 100
1, 41760, Note_on_c, 13, 83, 119
1, 41876, Note_on_c, 10, 42, 0
1, 41876, Note_on_c, 9, 42, 0
1, 41996, Note_on_c, 13, 83, 0
1, 41996, Note_on_c, 9, 37, 0
1, 41996, Note_on_c, 9, 36, 0
1, 41996, Note_on_c, 9, 32, 0
1, 41996, Note_on_c, 4, 83, 0
1, 41996, Note_on_c, 2, 61, 0
1, 41996, Note_on_c, 2, 57, 0
1, 41996, Note_on_c, 2, 52, 0
1, 41996, Note_on_c, 0, 61, 0
1, 41996, Note_on_c, 0, 57, 0
1, 41996, Note_on_c, 0, 52, 0
1, 42000, Note_on_c, 0, 52, 100
1, 42000, Note_on_c, 0, 57, 100
1, 42000, Note_on_c, 0, 61, 100
1, 42000, Note_on_c, 1, 33, 100
1, 42000, Note_on_c, 2, 52, 100
1, 42000, Note_on_c, 2, 57, 100
1, 42000, Note_on_c, 2, 61, 100
1, 42000, Note_on_c, 4, 80, 127
1, 42000, Note_on_c, 9, 42, 100
1, 42000, Note_on_c, 9, 82, 80
1, 42000, Note_on_c, 10, 42, 100
1, 42000, Note_on_c, 13, 80, 127
1, 42040, Note_on_c, 9, 82, 0
1, 42116, Note_on_c, 10, 42, 0
1, 42116, Note_on_c, 9, 42, 0
1, 42120, Note_on_c, 9, 42, 100
1, 42120, Note_on_c, 10, 42, 100
1, 42236, Note_on_c, 10, 42, 0
1, 42236, Note_on_c, 9, 42, 0
1, 42236, Note_on_c, 13, 80, 0
1, 42236, Note_on_c, 4, 80, 0
1, 42236, Note_on_c, 2, 61, 0
1, 42236, Note_on_c, 2, 57, 0
1, 42236, Note_on_c, 2, 52, 0
1, 42236, Note_on_c, 1, 33, 0
1, 42236, Note_on_c, 0, 61, 0
1, 42236, Note_on_c, 0, 57, 0
1, 42236, Note_on_c, 0, 52, 0
1, 42236, Note_on_c, 8, 48, 0
1, 42240, Control_c, 0, 74, 19
1, 42240, Control_c, 0, 71, 80
1, 42240, Note_on_c, 0, 56, 100
1, 42240, Note_on_c, 0, 61, 100
1, 42240, Note_on_c, 0, 66, 100
1, 42240, Note_on_c, 2, 56, 100
1, 42240, Note_on_c, 2, 61, 100
1, 42240, Note_on_c, 2, 66, 100
1, 42240, Note_on_c, 4, 78, 127
1, 42240, Note_on_c, 6, 76, 127
1, 42240, Note_on_c, 9, 32, 100
1, 42240, Note_on_c, 9, 36, 127
1, 42240, Note_on_c, 9, 49, 127
1, 42240, Note_on_c, 10, 42, 100
1, 42240, Note_on_c, 13, 78, 127
1, 42240, Note_on_c, 15, 48, 127
1, 42356, Note_on_c, 10, 42, 0
1, 42476, Note_on_c, 13, 78, 0
1, 42476, Note_on_c, 9, 49, 0
1, 42476, Note_on_c, 9, 36, 0
1, 42476, Note_on_c, 9, 32, 0
1, 42476, Note_on_c, 4, 78, 0
1, 42476, Note_on_c, 2, 66, 0
1, 42476, Note_on_c, 2, 61, 0
1, 42476, Note_on_c, 2, 56, 0
1, 42476, Note_on_c, 0, 66, 0
1, 42476, Note_on_c, 0, 61, 0
1, 42476, Note_on_c, 0, 56, 0
1, 42480, Note_on_c, 0, 56, 100
1, 42480, Note_on_c, 0, 61, 100
1, 42480, Note_on_c, 0, 64, 100
1, 42480, Note_on_c, 2, 56, 100
1, 42480, Note_on_c, 2, 61, 100
1, 42480, Note_on_c, 2, 64, 100
1, 42480, Note_on_c, 4, 76, 118
1, 42480, Note_on_c, 10, 42, 100
1, 42480, Note_on_c, 13, 76, 118
1, 42596, Note_on_c, 10, 42, 0
1, 42600, Note_on_c, 10, 42, 100
1, 42716, Note_on_c, 10, 42, 0
1, 42716, Note_on_c, 13, 76, 0
1, 42716, Note_on_c, 4, 76, 0
1, 42716, Note_on_c, 2, 64, 0
1, 42716, Note_on_c, 2, 61, 0
1, 42716, Note_on_c, 2, 56, 0
1, 42716, Note_on_c, 0, 64, 0
1, 42716, Note_on_c, 0, 61, 0
1, 42716, Note_on_c, 0, 56, 0
1, 42720, Note_on_c, 0, 56, 100
1, 42720, Note_on_c, 0, 61, 100
1, 42720, Note_on_c, 0, 64, 100
1, 42720, Note_on_c, 2, 56, 100
1, 42720, Note_on_c, 2, 61, 100
1, 42720, Note_on_c, 2, 64, 100
1, 42720, Note_on_c, 4, 76, 119
1, 42720, Note_on_c, 9, 32, 100
1, 42720, Note_on_c, 9, 57, 38
1, 42720, Note_on_c, 10, 42, 100
1, 42720, Note_on_c, 13, 76, 119
1, 42836, Note_on_c, 10, 42, 0
1, 42920, Control_c, 0, 74, 20
1, 42956, Note_on_c, 13, 76, 0
1, 42956, Note_on_c, 9, 57, 0
1, 42956, Note_on_c, 9, 32, 0
1, 42956, Note_on_c, 4, 76, 0
1, 42956, Note_on_c, 2, 64, 0
1, 42956, Note_on_c, 2, 61, 0
1, 42956, Note_on_c, 2, 56, 0
1, 42956, Note_on_c, 0, 64, 0
1, 42956, Note_on_c, 0, 61, 0
1, 42956, Note_on_c, 0, 56, 0
1, 42960, Note_on_c, 10, 42, 100
1, 43076, Note_on_c, 10, 42, 0
1, 43200, Note_on_c, 0, 56, 100
1, 43200, Note_on_c, 0, 59, 100
1, 43200, Note_on_c, 0, 64, 100
1, 43200, Note_on_c, 2, 56, 100
1, 43200, Note_on_c, 2, 59, 100
1, 43200, Note_on_c, 2, 64, 100
1, 43200, Note_on_c, 4, 76, 125
1, 43200, Note_on_c, 9, 32, 100
1, 43200, Note_on_c, 9, 57, 51
1, 43200, Note_on_c, 13, 76, 125
1, 43264, Control_c, 0, 74, 21
1, 43436, Note_on_c, 13, 76, 0
1, 43436, Note_on_c, 9, 57, 0
1, 43436, Note_on_c, 9, 32, 0
1, 43436, Note_on_c, 4, 76, 0
1, 43436, Note_on_c, 2, 64, 0
1, 43436, Note_on_c, 2, 59, 0
1, 43436, Note_on_c, 2, 56, 0
1, 43436, Note_on_c, 0, 64, 0
1, 43436, Note_on_c, 0, 59, 0
1, 43436, Note_on_c, 0, 56, 0
1, 43440, Note_on_c, 0, 56, 100
1, 43440, Note_on_c, 0, 59, 100
1, 43440, Note_on_c, 0, 64, 100
1, 43440, Note_on_c, 2, 56, 100
1, 43440, Note_on_c, 2, 59, 100
1, 43440, Note_on_c, 2, 64, 100
1, 43440, Note_on_c, 4, 76, 119
1, 43440, Note_on_c, 13, 76, 119
1, 43604, Control_c, 0, 74, 22
1, 43676, Note_on_c, 13, 76, 0
1, 43676, Note_on_c, 4, 76, 0
1, 43676, Note_on_c, 2, 64, 0
1, 43676, Note_on_c, 2, 59, 0
1, 43676, Note_on_c, 2, 56, 0
1, 43676, Note_on_c, 0, 64, 0
1, 43676, Note_on_c, 0, 59, 0
1, 43676, Note_on_c, 0, 56, 0
1, 43676, Note_on_c, 15, 48, 0
1, 43680, Note_on_c, 0, 56, 100
1, 43680, Note_on_c, 0, 59, 100
1, 43680, Note_on_c, 0, 64, 100
1, 43680, Note_on_c, 2, 56, 100
1, 43680, Note_on_c, 2, 59, 100
1, 43680, Note_on_c, 2, 64, 100
1, 43680, Note_on_c, 4, 76, 118
1, 43680, Note_on_c, 9, 32, 100
1, 43680, Note_on_c, 9, 57, 36
1, 43680, Note_on_c, 13, 76, 118
1, 43916, Note_on_c, 13, 76, 0
1, 43916, Note_on_c, 9, 57, 0
1, 43916, Note_on_c, 9, 32, 0
1, 43916, Note_on_c, 4, 76, 0
1, 43916, Note_on_c, 2, 64, 0
1, 43916, Note_on_c, 2, 59, 0
1, 43916, Note_on_c, 2, 56, 0
1, 43916, Note_on_c, 0, 64, 0
1, 43916, Note_on_c, 0, 59, 0
1, 43916, Note_on_c, 0, 56, 0
1, 43920, Note_on_c, 0, 56, 100
1, 43920, Note_on_c, 0, 59, 100
1, 43920, Note_on_c, 0, 64, 100
1, 43920, Note_on_c, 2, 56, 100
1, 43920, Note_on_c, 2, 59, 100
1, 43920, Note_on_c, 2, 64, 100
1, 43920, Note_on_c, 4, 76, 116
1, 43920, Note_on_c, 13, 76, 116
1, 43944, Control_c, 0, 74, 23
1, 44156, Note_on_c, 13, 76, 0
1, 44156, Note_on_c, 4, 76, 0
1, 44156, Note_on_c, 2, 64, 0
1, 44156, Note_on_c, 2, 59, 0
1, 44156, Note_on_c, 2, 56, 0
1, 44156, Note_on_c, 0, 64, 0
1, 44156, Note_on_c, 0, 59, 0
1, 44156, Note_on_c, 0, 56, 0
1, 44156, Note_on_c, 6, 76, 0
1, 44160, Note_on_c, 0, 54, 100
1, 44160, Note_on_c, 0, 59, 100
1, 44160, Note_on_c, 0, 63, 100
1, 44160, Note_on_c, 2, 54, 100
1, 44160, Note_on_c, 2, 59, 100
1, 44160, Note_on_c, 2, 63, 100
1, 44160, Note_on_c, 4, 75, 119
1, 44160, Note_on_c, 6, 85, 127
1, 44160, Note_on_c, 9, 32, 100
1, 44160, Note_on_c, 9, 57, 26
1, 44160, Note_on_c, 13, 75, 119
1, 44284, Control_c, 0, 74, 24
1, 44396, Note_on_c, 13, 75, 0
1, 44396, Note_on_c, 9, 57, 0
1, 44396, Note_on_c, 9, 32, 0
1, 44396, Note_on_c, 4, 75, 0
1, 44396, Note_on_c, 2, 63, 0
1, 44396, Note_on_c, 2, 59, 0
1, 44396, Note_on_c, 2, 54, 0
1, 44396, Note_on_c, 0, 63, 0
1, 44396, Note_on_c, 0, 59, 0
1, 44396, Note_on_c, 0, 54, 0
1, 44400, Note_on_c, 0, 54, 100
1, 44400, Note_on_c, 0, 59, 100
1, 44400, Note_on_c, 0, 63, 100
1, 44400, Note_on_c, 2, 54, 100
1, 44400, Note_on_c, 2, 59, 100
1, 44400, Note_on_c, 2, 63, 100
1, 44400, Note_on_c, 4, 75, 119
1, 44400, Note_on_c, 13, 75, 119
1, 44628, Control_c, 0, 74, 25
1, 44636, Note_on_c, 13, 75, 0
1, 44636, Note_on_c, 4, 75, 0
1, 44636, Note_on_c, 2, 63, 0
1, 44636, Note_on_c, 2, 59, 0
1, 44636, Note_on_c, 2, 54, 0
1, 44636, Note_on_c, 0, 63, 0
1, 44636, Note_on_c, 0, 59, 0
1, 44636, Note_on_c, 0, 54, 0
1, 44640, Note_on_c, 0, 54, 100
1, 44640, Note_on_c, 0, 59, 100
1, 44640, Note_on_c, 0, 63, 100
1, 44640, Note_on_c, 2, 54, 100
1, 44640, Note_on_c, 2, 59, 100
1, 44640, Note_on_c, 2, 63, 100
1, 44640, Note_on_c, 4, 76, 113
1, 44640, Note_on_c, 9, 32, 100
1, 44640, Note_on_c, 9, 57, 21
1, 44640, Note_on_c, 13, 76, 113
1, 44876, Note_on_c, 13, 76, 0
1, 44876, Note_on_c, 9, 57, 0
1, 44876, Note_on_c, 9, 32, 0
1, 44876, Note_on_c, 4, 76, 0
1, 44876, Note_on_c, 2, 63, 0
1, 44876, Note_on_c, 2, 59, 0
1, 44876, Note_on_c, 2, 54, 0
1, 44876, Note_on_c, 0, 63, 0
1, 44876, Note_on_c, 0, 59, 0
1, 44876, Note_on_c, 0, 54, 0
1, 44880, Note_on_c, 0, 52, 100
1, 44880, Note_on_c, 0, 57, 100
1, 44880, Note_on_c, 0, 61, 100
1, 44880, Note_on_c, 2, 52, 100
1, 44880, Note_on_c, 2, 57, 100
1, 44880, Note_on_c, 2, 61, 100
1, 44880, Note_on_c, 4, 76, 111
1, 44880, Note_on_c, 9, 29, 100
1, 44880, Note_on_c, 13, 76, 111
1, 44968, Control_c, 0, 74, 26
1, 45116, Note_on_c, 13, 76, 0
1, 45116, Note_on_c, 9, 29, 0
1, 45116, Note_on_c, 4, 76, 0
1, 45116, Note_on_c, 2, 61, 0
1, 45116, Note_on_c, 2, 57, 0
1, 45116, Note_on_c, 2, 52, 0
1, 45116, Note_on_c, 0, 61, 0
1, 45116, Note_on_c, 0, 57, 0
1, 45116, Note_on_c, 0, 52, 0
1, 45120, Note_on_c, 9, 32, 100
1, 45308, Control_c, 0, 74, 27
1, 45356, Note_on_c, 9, 32, 0
1, 45360, Note_on_c, 0, 52, 100
1, 45360, Note_on_c, 0, 57, 100
1, 45360, Note_on_c, 0, 61, 100
1, 45360, Note_on_c, 2, 52, 100
1, 45360, Note_on_c, 2, 57, 100
1, 45360, Note_on_c, 2, 61, 100
1, 45360, Note_on_c, 4, 85, 127
1, 45360, Note_on_c, 13, 85, 127
1, 45596, Note_on_c, 13, 85, 0
1, 45596, Note_on_c, 4, 85, 0
1, 45596, Note_on_c, 2, 61, 0
1, 45596, Note_on_c, 2, 57, 0
1, 45596, Note_on_c, 2, 52, 0
1, 45596, Note_on_c, 0, 61, 0
1, 45596, Note_on_c, 0, 57, 0
1, 45596, Note_on_c, 0, 52, 0
1, 45600, Note_on_c, 0, 52, 100
1, 45600, Note_on_c, 0, 57, 100
1, 45600, Note_on_c, 0, 61, 100
1, 45600, Note_on_c, 2, 52, 100
1, 45600, Note_on_c, 2, 57, 100
1, 45600, Note_on_c, 2, 61, 100
1, 45600, Note_on_c, 4, 83, 119
1, 45600, Note_on_c, 9, 32, 100
1, 45600, Note_on_c, 13, 83, 119
1, 45648, Control_c, 0, 74, 28
1, 45836, Note_on_c, 13, 83, 0
1, 45836, Note_on_c, 9, 32, 0
1, 45836, Note_on_c, 4, 83, 0
1, 45836, Note_on_c, 2, 61, 0
1, 45836, Note_on_c, 2, 57, 0
1, 45836, Note_on_c, 2, 52, 0
1, 45836, Note_on_c, 0, 61, 0
1, 45836, Note_on_c, 0, 57, 0
1, 45836, Note_on_c, 0, 52, 0
1, 45840, Note_on_c, 0, 52, 100
1, 45840, Note_on_c, 0, 57, 100
1, 45840, Note_on_c, 0, 61, 100
1, 45840, Note_on_c, 2, 52, 100
1, 45840, Note_on_c, 2, 57, 100
1, 45840, Note_on_c, 2, 61, 100
1, 45840, Note_on_c, 4, 80, 125
1, 45840, Note_on_c, 13, 80, 125
1, 45992, Control_c, 0, 74, 29
1, 46076, Note_on_c, 13, 80, 0
1, 46076, Note_on_c, 4, 80, 0
1, 46076, Note_on_c, 2, 61, 0
1, 46076, Note_on_c, 2, 57, 0
1, 46076, Note_on_c, 2, 52, 0
1, 46076, Note_on_c, 0, 61, 0
1, 46076, Note_on_c, 0, 57, 0
1, 46076, Note_on_c, 0, 52, 0
1, 46076, Note_on_c, 6, 85, 0
1, 46080, Note_on_c, 0, 56, 100
1, 46080, Note_on_c, 0, 61, 100
1, 46080, Note_on_c, 0, 66, 100
1, 46080, Note_on_c, 2, 56, 100
1, 46080, Note_on_c, 2, 61, 100
1, 46080, Note_on_c, 2, 66, 100
1, 46080, Note_on_c, 4, 78, 127
1, 46080, Note_on_c, 6, 76, 127
1, 46080, Note_on_c, 9, 32, 100
1, 46080, Note_on_c, 13, 78, 127
1, 46316, Note_on_c, 13, 78, 0
1, 46316, Note_on_c, 9, 32, 0
1, 46316, Note_on_c, 4, 78, 0
1, 46316, Note_on_c, 2, 66, 0
1, 46316, Note_on_c, 2, 61, 0
1, 46316, Note_on_c, 2, 56, 0
1, 46316, Note_on_c, 0, 66, 0
1, 46316, Note_on_c, 0, 61, 0
1, 46316, Note_on_c, 0, 56, 0
1, 46320, Note_on_c, 0, 56, 100
1, 46320, Note_on_c, 0, 61, 100
1, 46320, Note_on_c, 0, 64, 100
1, 46320, Note_on_c, 2, 56, 100
1, 46320, Note_on_c, 2, 61, 100
1, 46320, Note_on_c, 2, 64, 100
1, 46320, Note_on_c, 4, 76, 101
1, 46320, Note_on_c, 13, 76, 101
1, 46332, Control_c, 0, 74, 30
1, 46556, Note_on_c, 13, 76, 0
1, 46556, Note_on_c, 4, 76, 0
1, 46556, Note_on_c, 2, 64, 0
1, 46556, Note_on_c, 2, 61, 0
1, 46556, Note_on_c, 2, 56, 0
1, 46556, Note_on_c, 0, 64, 0
1, 46556, Note_on_c, 0, 61, 0
1, 46556, Note_on_c, 0, 56, 0
1, 46560, Note_on_c, 0, 56, 100
1, 46560, Note_on_c, 0, 61, 100
1, 46560, Note_on_c, 0, 64, 100
1, 46560, Note_on_c, 2, 56, 100
1, 46560, Note_on_c, 2, 61, 100
1, 46560, Note_on_c, 2, 64, 100
1, 46560, Note_on_c, 4, 76, 116
1, 46560, Note_on_c, 9, 32, 100
1, 46560, Note_on_c, 13, 76, 116
1, 46672, Control_c, 0, 74, 31
1, 46796, Note_on_c, 13, 76, 0
1, 46796, Note_on_c, 9, 32, 0
1, 46796, Note_on_c, 4, 76, 0
1, 46796, Note_on_c, 2, 64, 0
1, 46796, Note_on_c, 2, 61, 0
1, 46796, Note_on_c, 2, 56, 0
1, 46796, Note_on_c, 0, 64, 0
1, 46796, Note_on_c, 0, 61, 0
1, 46796, Note_on_c, 0, 56, 0
1, 47012, Control_c, 0, 74, 32
1, 47040, Note_on_c, 0, 56, 100
1, 47040, Note_on_c, 0, 59, 100
1, 47040, Note_on_c, 0, 64, 100
1, 47040, Note_on_c, 2, 56, 100
1, 47040, Note_on_c, 2, 59, 100
1, 47040, Note_on_c, 2, 64, 100
1, 47040, Note_on_c, 4, 76, 119
1, 47040, Note_on_c, 9, 32, 100
1, 47040, Note_on_c, 13, 76, 119
1, 47276, Note_on_c, 13, 76, 0
1, 47276, Note_on_c, 9, 32, 0
1, 47276, Note_on_c, 4, 76, 0
1, 47276, Note_on_c, 2, 64, 0
1, 47276, Note_on_c, 2, 59, 0
1, 47276, Note_on_c, 2, 56, 0
1, 47276, Note_on_c, 0, 64, 0
1, 47276, Note_on_c, 0, 59, 0
1, 47276, Note_on_c, 0, 56, 0
1, 47280, Note_on_c, 0, 56, 100
1, 47280, Note_on_c, 0, 59, 100
1, 47280, Note_on_c, 0, 64, 100
1, 47280, Note_on_c, 2, 56, 100
1, 47280, Note_on_c, 2, 59, 100
1, 47280, Note_on_c, 2, 64, 100
1, 47280, Note_on_c, 4, 76, 111
1, 47280, Note_on_c, 13, 76, 111
1, 47356, Control_c, 0, 74, 33
1, 47516, Note_on_c, 13, 76, 0
1, 47516, Note_on_c, 4, 76, 0
1, 47516, Note_on_c, 2, 64, 0
1, 47516, Note_on_c, 2, 59, 0
1, 47516, Note_on_c, 2, 56, 0
1, 47516, Note_on_c, 0, 64, 0
1, 47516, Note_on_c, 0, 59, 0
1, 47516, Note_on_c, 0, 56, 0
1, 47520, Note_on_c, 0, 56, 100
1, 47520, Note_on_c, 0, 59, 100
1, 47520, Note_on_c, 0, 64, 100
1, 47520, Note_on_c, 2, 56, 100
1, 47520, Note_on_c, 2, 59, 100
1, 47520, Note_on_c, 2, 64, 100
1, 47520, Note_on_c, 4, 76, 109
1, 47520, Note_on_c, 9, 32, 100
1, 47520, Note_on_c, 13, 76, 109
1, 47696, Control_c, 0, 74, 34
1, 47756, Note_on_c, 13, 76, 0
1, 47756, Note_on_c, 9, 32, 0
1, 47756, Note_on_c, 4, 76, 0
1, 47756, Note_on_c, 2, 64, 0
1, 47756, Note_on_c, 2, 59, 0
1, 47756, Note_on_c, 2, 56, 0
1, 47756, Note_on_c, 0, 64, 0
1, 47756, Note_on_c, 0, 59, 0
1, 47756, Note_on_c, 0, 56, 0
1, 47760, Note_on_c, 0, 56, 100
1, 47760, Note_on_c, 0, 59, 100
1, 47760, Note_on_c, 0, 64, 100
1, 47760, Note_on_c, 2, 56, 100
1, 47760, Note_on_c, 2, 59, 100
1, 47760, Note_on_c, 2, 64, 100
1, 47760, Note_on_c, 4, 76, 87
1, 47760, Note_on_c, 13, 76, 87
1, 47996, Note_on_c, 13, 76, 0
1, 47996, Note_on_c, 4, 76, 0
1, 47996, Note_on_c, 2, 64, 0
1, 47996, Note_on_c, 2, 59, 0
1, 47996, Note_on_c, 2, 56, 0
1, 47996, Note_on_c, 0, 64, 0
1, 47996, Note_on_c, 0, 59, 0
1, 47996, Note_on_c, 0, 56, 0
1, 47996, Note_on_c, 6, 76, 0
1, 48000, Note_on_c, 0, 54, 100
1, 48000, Note_on_c, 0, 59, 100
1, 48000, Note_on_c, 0, 63, 100
1, 48000, Note_on_c, 2, 54, 100
1, 48000, Note_on_c, 2, 59, 100
1, 48000, Note_on_c, 2, 63, 100
1, 48000, Note_on_c, 4, 73, 127
1, 48000, Note_on_c, 6, 85, 127
1, 48000, Note_on_c, 9, 32, 100
1, 48000, Note_on_c, 13, 73, 127
1, 48036, Control_c, 0, 74, 35
1, 48236, Note_on_c, 13, 73, 0
1, 48236, Note_on_c, 9, 32, 0
1, 48236, Note_on_c, 4, 73, 0
1, 48236, Note_on_c, 2, 63, 0
1, 48236, Note_on_c, 2, 59, 0
1, 48236, Note_on_c, 2, 54, 0
1, 48236, Note_on_c, 0, 63, 0
1, 48236, Note_on_c, 0, 59, 0
1, 48236, Note_on_c, 0, 54, 0
1, 48240, Note_on_c, 0, 54, 100
1, 48240, Note_on_c, 0, 59, 100
1, 48240, Note_on_c, 0, 63, 100
1, 48240, Note_on_c, 2, 54, 100
1, 48240, Note_on_c, 2, 59, 100
1, 48240, Note_on_c, 2, 63, 100
1, 48240, Note_on_c, 4, 73, 127
1, 48240, Note_on_c, 13, 73, 127
1, 48376, Control_c, 0, 74, 36
1, 48476, Note_on_c, 13, 73, 0
1, 48476, Note_on_c, 4, 73, 0
1, 48476, Note_on_c, 2, 63, 0
1, 48476, Note_on_c, 2, 59, 0
1, 48476, Note_on_c, 2, 54, 0
1, 48476, Note_on_c, 0, 63, 0
1, 48476, Note_on_c, 0, 59, 0
1, 48476, Note_on_c, 0, 54, 0
1, 48480, Note_on_c, 0, 54, 100
1, 48480, Note_on_c, 0, 59, 100
1, 48480, Note_on_c, 0, 63, 100
1, 48480, Note_on_c, 2, 54, 100
1, 48480, Note_on_c, 2, 59, 100
1, 48480, Note_on_c, 2, 63, 100
1, 48480, Note_on_c, 4, 71, 113
1, 48480, Note_on_c, 9, 32, 100
1, 48480, Note_on_c, 13, 71, 113
1, 48716, Note_on_c, 13, 71, 0
1, 48716, Note_on_c, 9, 32, 0
1, 48716, Note_on_c, 4, 71, 0
1, 48716, Note_on_c, 2, 63, 0
1, 48716, Note_on_c, 2, 59, 0
1, 48716, Note_on_c, 2, 54, 0
1, 48716, Note_on_c, 0, 63, 0
1, 48716, Note_on_c, 0, 59, 0
1, 48716, Note_on_c, 0, 54, 0
1, 48720, Control_c, 0, 74, 37
1, 48720, Note_on_c, 0, 52, 100
1, 48720, Note_on_c, 0, 57, 100
1, 48720, Note_on_c, 0, 61, 100
1, 48720, Note_on_c, 2, 52, 100
1, 48720, Note_on_c, 2, 57, 100
1, 48720, Note_on_c, 2, 61, 100
1, 48720, Note_on_c, 4, 71, 122
1, 48720, Note_on_c, 9, 29, 100
1, 48720, Note_on_c, 13, 71, 122
1, 48956, Note_on_c, 13, 71, 0
1, 48956, Note_on_c, 9, 29, 0
1, 48956, Note_on_c, 4, 71, 0
1, 48956, Note_on_c, 2, 61, 0
1, 48956, Note_on_c, 2, 57, 0
1, 48956, Note_on_c, 2, 52, 0
1, 48956, Note_on_c, 0, 61, 0
1, 48956, Note_on_c, 0, 57, 0
1, 48956, Note_on_c, 0, 52, 0
1, 48960, Note_on_c, 9, 32, 100
1, 49060, Control_c, 0, 74, 38
1, 49196, Note_on_c, 9, 32, 0
1, 49200, Note_on_c, 0, 52, 100
1, 49200, Note_on_c, 0, 57, 100
1, 49200, Note_on_c, 0, 61, 100
1, 49200, Note_on_c, 2, 52, 100
1, 49200, Note_on_c, 2, 57, 100
1, 49200, Note_on_c, 2, 61, 100
1, 49200, Note_on_c, 4, 85, 127
1, 49200, Note_on_c, 13, 85, 127
1, 49400, Control_c, 0, 74, 39
1, 49436, Note_on_c, 13, 85, 0
1, 49436, Note_on_c, 4, 85, 0
1, 49436, Note_on_c, 2, 61, 0
1, 49436, Note_on_c, 2, 57, 0
1, 49436, Note_on_c, 2, 52, 0
1, 49436, Note_on_c, 0, 61, 0
1, 49436, Note_on_c, 0, 57, 0
1, 49436, Note_on_c, 0, 52, 0
1, 49440, Note_on_c, 0, 52, 100
1, 49440, Note_on_c, 0, 57, 100
1, 49440, Note_on_c, 0, 61, 100
1, 49440, Note_on_c, 2, 52, 100
1, 49440, Note_on_c, 2, 57, 100
1, 49440, Note_on_c, 2, 61, 100
1, 49440, Note_on_c, 4, 83, 119
1, 49440, Note_on_c, 9, 32, 100
1, 49440, Note_on_c, 13, 83, 119
1, 49676, Note_on_c, 13, 83, 0
1, 49676, Note_on_c, 9, 32, 0
1, 49676, Note_on_c, 4, 83, 0
1, 49676, Note_on_c, 2, 61, 0
1, 49676, Note_on_c, 2, 57, 0
1, 49676, Note_on_c, 2, 52, 0
1, 49676, Note_on_c, 0, 61, 0
1, 49676, Note_on_c, 0, 57, 0
1, 49676, Note_on_c, 0, 52, 0
1, 49680, Note_on_c, 0, 52, 100
1, 49680, Note_on_c, 0, 57, 100
1, 49680, Note_on_c, 0, 61, 100
1, 49680, Note_on_c, 2, 52, 100
1, 49680, Note_on_c, 2, 57, 100
1, 49680, Note_on_c, 2, 61, 100
1, 49680, Note_on_c, 4, 80, 127
1, 49680, Note_on_c, 13, 80, 127
1, 49740, Control_c, 0, 74, 40
1, 49916, Note_on_c, 13, 80, 0
1, 49916, Note_on_c, 4, 80, 0
1, 49916, Note_on_c, 2, 61, 0
1, 49916, Note_on_c, 2, 57, 0
1, 49916, Note_on_c, 2, 52, 0
1, 49916, Note_on_c, 0, 61, 0
1, 49916, Note_on_c, 0, 57, 0
1, 49916, Note_on_c, 0, 52, 0
1, 49916, Note_on_c, 6, 85, 0
1, 49920, Note_on_c, 0, 56, 100
1, 49920, Note_on_c, 0, 61, 100
1, 49920, Note_on_c, 0, 66, 100
1, 49920, Note_on_c, 2, 56, 100
1, 49920, Note_on_c, 2, 61, 100
1, 49920, Note_on_c, 2, 66, 100
1, 49920, Note_on_c, 4, 78, 127
1, 49920, Note_on_c, 6, 76, 127
1, 49920, Note_on_c, 9, 32, 100
1, 49920, Note_on_c, 13, 78, 127
1, 50084, Control_c, 0, 74, 41
1, 50156, Note_on_c, 13, 78, 0
1, 50156, Note_on_c, 9, 32, 0
1, 50156, Note_on_c, 4, 78, 0
1, 50156, Note_on_c, 2, 66, 0
1, 50156, Note_on_c, 2, 61, 0
1, 50156, Note_on_c, 2, 56, 0
1, 50156, Note_on_c, 0, 66, 0
1, 50156, Note_on_c, 0, 61, 0
1, 50156, Note_on_c, 0, 56, 0
1, 50160, Note_on_c, 0, 56, 100
1, 50160, Note_on_c, 0, 61, 100
1, 50160, Note_on_c, 0, 64, 100
1, 50160, Note_on_c, 2, 56, 100
1, 50160, Note_on_c, 2, 61, 100
1, 50160, Note_on_c, 2, 64, 100
1, 50160, Note_on_c, 4, 76, 118
1, 50160, Note_on_c, 13, 76, 118
1, 50396, Note_on_c, 13, 76, 0
1, 50396, Note_on_c, 4, 76, 0
1, 50396, Note_on_c, 2, 64, 0
1, 50396, Note_on_c, 2, 61, 0
1, 50396, Note_on_c, 2, 56, 0
1, 50396, Note_on_c, 0, 64, 0
1, 50396, Note_on_c, 0, 61, 0
1, 50396, Note_on_c, 0, 56, 0
1, 50400, Note_on_c, 0, 56, 100
1, 50400, Note_on_c, 0, 61, 100
1, 50400, Note_on_c, 0, 64, 100
1, 50400, Note_on_c, 2, 56, 100
1, 50400, Note_on_c, 2, 61, 100
1, 50400, Note_on_c, 2, 64, 100
1, 50400, Note_on_c, 4, 76, 119
1, 50400, Note_on_c, 9, 32, 100
1, 50400, Note_on_c, 13, 76, 119
1, 50424, Control_c, 0, 74, 42
1, 50636, Note_on_c, 13, 76, 0
1, 50636, Note_on_c, 9, 32, 0
1, 50636, Note_on_c, 4, 76, 0
1, 50636, Note_on_c, 2, 64, 0
1, 50636, Note_on_c, 2, 61, 0
1, 50636, Note_on_c, 2, 56, 0
1, 50636, Note_on_c, 0, 64, 0
1, 50636, Note_on_c, 0, 61, 0
1, 50636, Note_on_c, 0, 56, 0
1, 50764, Control_c, 0, 74, 43
1, 50880, Note_on_c, 0, 56, 100
1, 50880, Note_on_c, 0, 59, 100
1, 50880, Note_on_c, 0, 64, 100
1, 50880, Note_on_c, 2, 56, 100
1, 50880, Note_on_c, 2, 59, 100
1, 50880, Note_on_c, 2, 64, 100
1, 50880, Note_on_c, 4, 76, 125
1, 50880, Note_on_c, 9, 32, 100
1, 50880, Note_on_c, 13, 76, 125
1, 51104, Control_c, 0, 74, 44
1, 51116, Note_on_c, 13, 76, 0
1, 51116, Note_on_c, 9, 32, 0
1, 51116, Note_on_c, 4, 76, 0
1, 51116, Note_on_c, 2, 64, 0
1, 51116, Note_on_c, 2, 59, 0
1, 51116, Note_on_c, 2, 56, 0
1, 51116, Note_on_c, 0, 64, 0
1, 51116, Note_on_c, 0, 59, 0
1, 51116, Note_on_c, 0, 56, 0
1, 51120, Note_on_c, 0, 56, 100
1, 51120, Note_on_c, 0, 59, 100
1, 51120, Note_on_c, 0, 64, 100
1, 51120, Note_on_c, 2, 56, 100
1, 51120, Note_on_c, 2, 59, 100
1, 51120, Note_on_c, 2, 64, 100
1, 51120, Note_on_c, 4, 76, 119
1, 51120, Note_on_c, 13, 76, 119
1, 51356, Note_on_c, 13, 76, 0
1, 51356, Note_on_c, 4, 76, 0
1, 51356, Note_on_c, 2, 64, 0
1, 51356, Note_on_c, 2, 59, 0
1, 51356, Note_on_c, 2, 56, 0
1, 51356, Note_on_c, 0, 64, 0
1, 51356, Note_on_c, 0, 59, 0
1, 51356, Note_on_c, 0, 56, 0
1, 51360, Note_on_c, 0, 56, 100
1, 51360, Note_on_c, 0, 59, 100
1, 51360, Note_on_c, 0, 64, 100
1, 51360, Note_on_c, 2, 56, 100
1, 51360, Note_on_c, 2, 59, 100
1, 51360, Note_on_c, 2, 64, 100
1, 51360, Note_on_c, 4, 76, 118
1, 51360, Note_on_c, 9, 32, 100
1, 51360, Note_on_c, 13, 76, 118
1, 51448, Control_c, 0, 74, 45
1, 51596, Note_on_c, 13, 76, 0
1, 51596, Note_on_c, 9, 32, 0
1, 51596, Note_on_c, 4, 76, 0
1, 51596, Note_on_c, 2, 64, 0
1, 51596, Note_on_c, 2, 59, 0
1, 51596, Note_on_c, 2, 56, 0
1, 51596, Note_on_c, 0, 64, 0
1, 51596, Note_on_c, 0, 59, 0
1, 51596, Note_on_c, 0, 56, 0
1, 51600, Note_on_c, 0, 56, 100
1, 51600, Note_on_c, 0, 59, 100
1, 51600, Note_on_c, 0, 64, 100
1, 51600, Note_on_c, 2, 56, 100
1, 51600, Note_on_c, 2, 59, 100
1, 51600, Note_on_c, 2, 64, 100
1, 51600, Note_on_c, 4, 76, 116
1, 51600, Note_on_c, 13, 76, 116
1, 51788, Control_c, 0, 74, 46
1, 51836, Note_on_c, 13, 76, 0
1, 51836, Note_on_c, 4, 76, 0
1, 51836, Note_on_c, 2, 64, 0
1, 51836, Note_on_c, 2, 59, 0
1, 51836, Note_on_c, 2, 56, 0
1, 51836, Note_on_c, 0, 64, 0
1, 51836, Note_on_c, 0, 59, 0
1, 51836, Note_on_c, 0, 56, 0
1, 51836, Note_on_c, 6, 76, 0
1, 51840, Note_on_c, 0, 54, 100
1, 51840, Note_on_c, 0, 59, 100
1, 51840, Note_on_c, 0, 63, 100
1, 51840, Note_on_c, 2, 54, 100
1, 51840, Note_on_c, 2, 59, 100
1, 51840, Note_on_c, 2, 63, 100
1, 51840, Note_on_c, 4, 75, 119
1, 51840, Note_on_c, 6, 85, 127
1, 51840, Note_on_c, 9, 32, 100
1, 51840, Note_on_c, 13, 75, 119
1, 52076, Note_on_c, 13, 75, 0
1, 52076, Note_on_c, 9, 32, 0
1, 52076, Note_on_c, 4, 75, 0
1, 52076, Note_on_c, 2, 63, 0
1, 52076, Note_on_c, 2, 59, 0
1, 52076, Note_on_c, 2, 54, 0
1, 52076, Note_on_c, 0, 63, 0
1, 52076, Note_on_c, 0, 59, 0
1, 52076, Note_on_c, 0, 54, 0
1, 52080, Note_on_c, 0, 54, 100
1, 52080, Note_on_c, 0, 59, 100
1, 52080, Note_on_c, 0, 63, 100
1, 52080, Note_on_c, 2, 54, 100
1, 52080, Note_on_c, 2, 59, 100
1, 52080, Note_on_c, 2, 63, 100
1, 52080, Note_on_c, 4, 75, 119
1, 52080, Note_on_c, 13, 75, 119
1, 52128, Control_c, 0, 74, 47
1, 52316, Note_on_c, 13, 75, 0
1, 52316, Note_on_c, 4, 75, 0
1, 52316, Note_on_c, 2, 63, 0
1, 52316, Note_on_c, 2, 59, 0
1, 52316, Note_on_c, 2, 54, 0
1, 52316, Note_on_c, 0, 63, 0
1, 52316, Note_on_c, 0, 59, 0
1, 52316, Note_on_c, 0, 54, 0
1, 52320, Note_on_c, 0, 54, 100
1, 52320, Note_on_c, 0, 59, 100
1, 52320, Note_on_c, 0, 63, 100
1, 52320, Note_on_c, 2, 54, 100
1, 52320, Note_on_c, 2, 59, 100
1, 52320, Note_on_c, 2, 63, 100
1, 52320, Note_on_c, 4, 76, 113
1, 52320, Note_on_c, 9, 32, 100
1, 52320, Note_on_c, 13, 76, 113
1, 52468, Control_c, 0, 74, 48
1, 52556, Note_on_c, 13, 76, 0
1, 52556, Note_on_c, 9, 32, 0
1, 52556, Note_on_c, 4, 76, 0
1, 52556, Note_on_c, 2, 63, 0
1, 52556, Note_on_c, 2, 59, 0
1, 52556, Note_on_c, 2, 54, 0
1, 52556, Note_on_c, 0, 63, 0
1, 52556, Note_on_c, 0, 59, 0
1, 52556, Note_on_c, 0, 54, 0
1, 52560, Note_on_c, 0, 52, 100
1, 52560, Note_on_c, 0, 57, 100
1, 52560, Note_on_c, 0, 61, 100
1, 52560, Note_on_c, 2, 52, 100
1, 52560, Note_on_c, 2, 57, 100
1, 52560, Note_on_c, 2, 61, 100
1, 52560, Note_on_c, 4, 76, 111
1, 52560, Note_on_c, 9, 29, 100
1, 52560, Note_on_c, 13, 76, 111
1, 52796, Note_on_c, 13, 76, 0
1, 52796, Note_on_c, 9, 29, 0
1, 52796, Note_on_c, 4, 76, 0
1, 52796, Note_on_c, 2, 61, 0
1, 52796, Note_on_c, 2, 57, 0
1, 52796, Note_on_c, 2, 52, 0
1, 52796, Note_on_c, 0, 61, 0
1, 52796, Note_on_c, 0, 57, 0
1, 52796, Note_on_c, 0, 52, 0
1, 52800, Note_on_c, 9, 32, 100
1, 52812, Control_c, 0, 74, 49
1, 53036, Note_on_c, 9, 32, 0
1, 53040, Note_on_c, 0, 52, 100
1, 53040, Note_on_c, 0, 57, 100
1, 53040, Note_on_c, 0, 61, 100
1, 53040, Note_on_c, 2, 52, 100
1, 53040, Note_on_c, 2, 57, 100
1, 53040, Note_on_c, 2, 61, 100
1, 53040, Note_on_c, 4, 85, 127
1, 53040, Note_on_c, 13, 85, 127
1, 53152, Control_c, 0, 74, 50
1, 53276, Note_on_c, 13, 85, 0
1, 53276, Note_on_c, 4, 85, 0
1, 53276, Note_on_c, 2, 61, 0
1, 53276, Note_on_c, 2, 57, 0
1, 53276, Note_on_c, 2, 52, 0
1, 53276, Note_on_c, 0, 61, 0
1, 53276, Note_on_c, 0, 57, 0
1, 53276, Note_on_c, 0, 52, 0
1, 53280, Note_on_c, 0, 52, 100
1, 53280, Note_on_c, 0, 57, 100
1, 53280, Note_on_c, 0, 61, 100
1, 53280, Note_on_c, 2, 52, 100
1, 53280, Note_on_c, 2, 57, 100
1, 53280, Note_on_c, 2, 61, 100
1, 53280, Note_on_c, 4, 83, 119
1, 53280, Note_on_c, 9, 32, 100
1, 53280, Note_on_c, 13, 83, 119
1, 53492, Control_c, 0, 74, 51
1, 53516, Note_on_c, 13, 83, 0
1, 53516, Note_on_c, 9, 32, 0
1, 53516, Note_on_c, 4, 83, 0
1, 53516, Note_on_c, 2, 61, 0
1, 53516, Note_on_c, 2, 57, 0
1, 53516, Note_on_c, 2, 52, 0
1, 53516, Note_on_c, 0, 61, 0
1, 53516, Note_on_c, 0, 57, 0
1, 53516, Note_on_c, 0, 52, 0
1, 53520, Note_on_c, 0, 52, 100
1, 53520, Note_on_c, 0, 57, 100
1, 53520, Note_on_c, 0, 61, 100
1, 53520, Note_on_c, 2, 52, 100
1, 53520, Note_on_c, 2, 57, 100
1, 53520, Note_on_c, 2, 61, 100
1, 53520, Note_on_c, 4, 80, 125
1, 53520, Note_on_c, 13, 80, 125
1, 53756, Note_on_c, 13, 80, 0
1, 53756, Note_on_c, 4, 80, 0
1, 53756, Note_on_c, 2, 61, 0
1, 53756, Note_on_c, 2, 57, 0
1, 53756, Note_on_c, 2, 52, 0
1, 53756, Note_on_c, 0, 61, 0
1, 53756, Note_on_c, 0, 57, 0
1, 53756, Note_on_c, 0, 52, 0
1, 53756, Note_on_c, 6, 85, 0
1, 53760, Note_on_c, 0, 56, 100
1, 53760, Note_on_c, 0, 61, 100
1, 53760, Note_on_c, 0, 66, 100
1, 53760, Note_on_c, 2, 56, 100
1, 53760, Note_on_c, 2, 61, 100
1, 53760, Note_on_c, 2, 66, 100
1, 53760, Note_on_c, 4, 78, 127
1, 53760, Note_on_c, 6, 76, 118
1, 53760, Note_on_c, 9, 32, 100
1, 53760, Note_on_c, 10, 60, 127
1, 53760, Note_on_c, 13, 78, 127
1, 53832, Control_c, 0, 74, 52
1, 53996, Note_on_c, 13, 78, 0
1, 53996, Note_on_c, 9, 32, 0
1, 53996, Note_on_c, 4, 78, 0
1, 53996, Note_on_c, 2, 66, 0
1, 53996, Note_on_c, 2, 61, 0
1, 53996, Note_on_c, 2, 56, 0
1, 53996, Note_on_c, 0, 66, 0
1, 53996, Note_on_c, 0, 61, 0
1, 53996, Note_on_c, 0, 56, 0
1, 54000, Note_on_c, 0, 56, 100
1, 54000, Note_on_c, 0, 61, 100
1, 54000, Note_on_c, 0, 64, 100
1, 54000, Note_on_c, 2, 56, 100
1, 54000, Note_on_c, 2, 61, 100
1, 54000, Note_on_c, 2, 64, 100
1, 54000, Note_on_c, 4, 76, 101
1, 54000, Note_on_c, 13, 76, 101
1, 54176, Control_c, 0, 74, 53
1, 54236, Note_on_c, 13, 76, 0
1, 54236, Note_on_c, 4, 76, 0
1, 54236, Note_on_c, 2, 64, 0
1, 54236, Note_on_c, 2, 61, 0
1, 54236, Note_on_c, 2, 56, 0
1, 54236, Note_on_c, 0, 64, 0
1, 54236, Note_on_c, 0, 61, 0
1, 54236, Note_on_c, 0, 56, 0
1, 54240, Note_on_c, 0, 56, 100
1, 54240, Note_on_c, 0, 61, 100
1, 54240, Note_on_c, 0, 64, 100
1, 54240, Note_on_c, 2, 56, 100
1, 54240, Note_on_c, 2, 61, 100
1, 54240, Note_on_c, 2, 64, 100
1, 54240, Note_on_c, 4, 76, 116
1, 54240, Note_on_c, 9, 32, 100
1, 54240, Note_on_c, 13, 76, 116
1, 54476, Note_on_c, 13, 76, 0
1, 54476, Note_on_c, 9, 32, 0
1, 54476, Note_on_c, 4, 76, 0
1, 54476, Note_on_c, 2, 64, 0
1, 54476, Note_on_c, 2, 61, 0
1, 54476, Note_on_c, 2, 56, 0
1, 54476, Note_on_c, 0, 64, 0
1, 54476, Note_on_c, 0, 61, 0
1, 54476, Note_on_c, 0, 56, 0
1, 54516, Control_c, 0, 74, 54
1, 54720, Note_on_c, 0, 56, 100
1, 54720, Note_on_c, 0, 59, 100
1, 54720, Note_on_c, 0, 64, 100
1, 54720, Note_on_c, 2, 56, 100
1, 54720, Note_on_c, 2, 59, 100
1, 54720, Note_on_c, 2, 64, 100
1, 54720, Note_on_c, 4, 76, 119
1, 54720, Note_on_c, 9, 32, 100
1, 54720, Note_on_c, 13, 76, 119
1, 54856, Control_c, 0, 74, 55
1, 54956, Note_on_c, 13, 76, 0
1, 54956, Note_on_c, 9, 32, 0
1, 54956, Note_on_c, 4, 76, 0
1, 54956, Note_on_c, 2, 64, 0
1, 54956, Note_on_c, 2, 59, 0
1, 54956, Note_on_c, 2, 56, 0
1, 54956, Note_on_c, 0, 64, 0
1, 54956, Note_on_c, 0, 59, 0
1, 54956, Note_on_c, 0, 56, 0
1, 54960, Note_on_c, 0, 56, 100
1, 54960, Note_on_c, 0, 59, 100
1, 54960, Note_on_c, 0, 64, 100
1, 54960, Note_on_c, 2, 56, 100
1, 54960, Note_on_c, 2, 59, 100
1, 54960, Note_on_c, 2, 64, 100
1, 54960, Note_on_c, 4, 76, 111
1, 54960, Note_on_c, 13, 76, 111
1, 55196, Note_on_c, 13, 76, 0
1, 55196, Note_on_c, 4, 76, 0
1, 55196, Note_on_c, 2, 64, 0
1, 55196, Note_on_c, 2, 59, 0
1, 55196, Note_on_c, 2, 56, 0
1, 55196, Note_on_c, 0, 64, 0
1, 55196, Note_on_c, 0, 59, 0
1, 55196, Note_on_c, 0, 56, 0
1, 55196, Control_c, 0, 74, 56
1, 55200, Note_on_c, 0, 56, 100
1, 55200, Note_on_c, 0, 59, 100
1, 55200, Note_on_c, 0, 64, 100
1, 55200, Note_on_c, 2, 56, 100
1, 55200, Note_on_c, 2, 59, 100
1, 55200, Note_on_c, 2, 64, 100
1, 55200, Note_on_c, 4, 76, 109
1, 55200, Note_on_c, 9, 32, 100
1, 55200, Note_on_c, 13, 76, 109
1, 55436, Note_on_c, 13, 76, 0
1, 55436, Note_on_c, 9, 32, 0
1, 55436, Note_on_c, 4, 76, 0
1, 55436, Note_on_c, 2, 64, 0
1, 55436, Note_on_c, 2, 59, 0
1, 55436, Note_on_c, 2, 56, 0
1, 55436, Note_on_c, 0, 64, 0
1, 55436, Note_on_c, 0, 59, 0
1, 55436, Note_on_c, 0, 56, 0
1, 55440, Note_on_c, 0, 56, 100
1, 55440, Note_on_c, 0, 59, 100
1, 55440, Note_on_c, 0, 64, 100
1, 55440, Note_on_c, 2, 56, 100
1, 55440, Note_on_c, 2, 59, 100
1, 55440, Note_on_c, 2, 64, 100
1, 55440, Note_on_c, 4, 76, 87
1, 55440, Note_on_c, 13, 76, 87
1, 55540, Control_c, 0, 74, 57
1, 55676, Note_on_c, 13, 76, 0
1, 55676, Note_on_c, 4, 76, 0
1, 55676, Note_on_c, 2, 64, 0
1, 55676, Note_on_c, 2, 59, 0
1, 55676, Note_on_c, 2, 56, 0
1, 55676, Note_on_c, 0, 64, 0
1, 55676, Note_on_c, 0, 59, 0
1, 55676, Note_on_c, 0, 56, 0
1, 55676, Note_on_c, 6, 76, 0
1, 55680, Note_on_c, 0, 54, 100
1, 55680, Note_on_c, 0, 59, 100
1, 55680, Note_on_c, 0, 63, 100
1, 55680, Note_on_c, 2, 54, 100
1, 55680, Note_on_c, 2, 59, 100
1, 55680, Note_on_c, 2, 63, 100
1, 55680, Note_on_c, 4, 73, 127
1, 55680, Note_on_c, 6, 85, 127
1, 55680, Note_on_c, 9, 32, 100
1, 55680, Note_on_c, 13, 73, 127
1, 55880, Control_c, 0, 74, 58
1, 55916, Note_on_c, 13, 73, 0
1, 55916, Note_on_c, 9, 32, 0
1, 55916, Note_on_c, 4, 73, 0
1, 55916, Note_on_c, 2, 63, 0
1, 55916, Note_on_c, 2, 59, 0
1, 55916, Note_on_c, 2, 54, 0
1, 55916, Note_on_c, 0, 63, 0
1, 55916, Note_on_c, 0, 59, 0
1, 55916, Note_on_c, 0, 54, 0
1, 55920, Note_on_c, 0, 54, 100
1, 55920, Note_on_c, 0, 59, 100
1, 55920, Note_on_c, 0, 63, 100
1, 55920, Note_on_c, 2, 54, 100
1, 55920, Note_on_c, 2, 59, 100
1, 55920, Note_on_c, 2, 63, 100
1, 55920, Note_on_c, 4, 73, 127
1, 55920, Note_on_c, 13, 73, 127
1, 56156, Note_on_c, 13, 73, 0
1, 56156, Note_on_c, 4, 73, 0
1, 56156, Note_on_c, 2, 63, 0
1, 56156, Note_on_c, 2, 59, 0
1, 56156, Note_on_c, 2, 54, 0
1, 56156, Note_on_c, 0, 63, 0
1, 56156, Note_on_c, 0, 59, 0
1, 56156, Note_on_c, 0, 54, 0
1, 56160, Note_on_c, 0, 54, 100
1, 56160, Note_on_c, 0, 59, 100
1, 56160, Note_on_c, 0, 63, 100
1, 56160, Note_on_c, 2, 54, 100
1, 56160, Note_on_c, 2, 59, 100
1, 56160, Note_on_c, 2, 63, 100
1, 56160, Note_on_c, 4, 71, 113
1, 56160, Note_on_c, 9, 32, 100
1, 56160, Note_on_c, 13, 71, 113
1, 56220, Control_c, 0, 74, 59
1, 56396, Note_on_c, 13, 71, 0
1, 56396, Note_on_c, 9, 32, 0
1, 56396, Note_on_c, 4, 71, 0
1, 56396, Note_on_c, 2, 63, 0
1, 56396, Note_on_c, 2, 59, 0
1, 56396, Note_on_c, 2, 54, 0
1, 56396, Note_on_c, 0, 63, 0
1, 56396, Note_on_c, 0, 59, 0
1, 56396, Note_on_c, 0, 54, 0
1, 56400, Note_on_c, 0, 52, 100
1, 56400, Note_on_c, 0, 57, 100
1, 56400, Note_on_c, 0, 61, 100
1, 56400, Note_on_c, 2, 52, 100
1, 56400, Note_on_c, 2, 57, 100
1, 56400, Note_on_c, 2, 61, 100
1, 56400, Note_on_c, 4, 71, 122
1, 56400, Note_on_c, 9, 29, 100
1, 56400, Note_on_c, 13, 71, 122
1, 56560, Control_c, 0, 74, 60
1, 56636, Note_on_c, 13, 71, 0
1, 56636, Note_on_c, 9, 29, 0
1, 56636, Note_on_c, 4, 71, 0
1, 56636, Note_on_c, 2, 61, 0
1, 56636, Note_on_c, 2, 57, 0
1, 56636, Note_on_c, 2, 52, 0
1, 56636, Note_on_c, 0, 61, 0
1, 56636, Note_on_c, 0, 57, 0
1, 56636, Note_on_c, 0, 52, 0
1, 56640, Note_on_c, 9, 32, 100
1, 56876, Note_on_c, 9, 32, 0
1, 56880, Note_on_c, 0, 52, 100
1, 56880, Note_on_c, 0, 57, 100
1, 56880, Note_on_c, 0, 61, 100
1, 56880, Note_on_c, 2, 52, 100
1, 56880, Note_on_c, 2, 57, 100
1, 56880, Note_on_c, 2, 61, 100
1, 56880, Note_on_c, 4, 85, 127
1, 56880, Note_on_c, 13, 85, 127
1, 56904, Control_c, 0, 74, 61
1, 57116, Note_on_c, 13, 85, 0
1, 57116, Note_on_c, 4, 85, 0
1, 57116, Note_on_c, 2, 61, 0
1, 57116, Note_on_c, 2, 57, 0
1, 57116, Note_on_c, 2, 52, 0
1, 57116, Note_on_c, 0, 61, 0
1, 57116, Note_on_c, 0, 57, 0
1, 57116, Note_on_c, 0, 52, 0
1, 57120, Note_on_c, 0, 52, 100
1, 57120, Note_on_c, 0, 57, 100
1, 57120, Note_on_c, 0, 61, 100
1, 57120, Note_on_c, 2, 52, 100
1, 57120, Note_on_c, 2, 57, 100
1, 57120, Note_on_c, 2, 61, 100
1, 57120, Note_on_c, 4, 83, 119
1, 57120, Note_on_c, 9, 32, 100
1, 57120, Note_on_c, 13, 83, 119
1, 57244, Control_c, 0, 74, 62
1, 57356, Note_on_c, 13, 83, 0
1, 57356, Note_on_c, 9, 32, 0
1, 57356, Note_on_c, 4, 83, 0
1, 57356, Note_on_c, 2, 61, 0
1, 57356, Note_on_c, 2, 57, 0
1, 57356, Note_on_c, 2, 52, 0
1, 57356, Note_on_c, 0, 61, 0
1, 57356, Note_on_c, 0, 57, 0
1, 57356, Note_on_c, 0, 52, 0
1, 57360, Note_on_c, 0, 52, 100
1, 57360, Note_on_c, 0, 57, 100
1, 57360, Note_on_c, 0, 61, 100
1, 57360, Note_on_c, 2, 52, 100
1, 57360, Note_on_c, 2, 57, 100
1, 57360, Note_on_c, 2, 61, 100
1, 57360, Note_on_c, 4, 80, 127
1, 57360, Note_on_c, 13, 80, 127
1, 57584, Control_c, 0, 74, 63
1, 57596, Note_on_c, 13, 80, 0
1, 57596, Note_on_c, 4, 80, 0
1, 57596, Note_on_c, 2, 61, 0
1, 57596, Note_on_c, 2, 57, 0
1, 57596, Note_on_c, 2, 52, 0
1, 57596, Note_on_c, 0, 61, 0
1, 57596, Note_on_c, 0, 57, 0
1, 57596, Note_on_c, 0, 52, 0
1, 57596, Note_on_c, 6, 85, 0
1, 57596, Note_on_c, 10, 60, 0
1, 57600, Note_on_c, 0, 56, 100
1, 57600, Note_on_c, 0, 61, 100
1, 57600, Note_on_c, 0, 66, 100
1, 57600, Note_on_c, 2, 56, 100
1, 57600, Note_on_c, 2, 61, 100
1, 57600, Note_on_c, 2, 66, 100
1, 57600, Note_on_c, 4, 78, 127
1, 57600, Note_on_c, 6, 76, 127
1, 57600, Note_on_c, 9, 32, 100
1, 57600, Note_on_c, 9, 36, 127
1, 57600, Note_on_c, 9, 42, 100
1, 57600, Note_on_c, 10, 84, 127
1, 57600, Note_on_c, 13, 78, 127
1, 57716, Note_on_c, 9, 42, 0
1, 57836, Note_on_c, 13, 78, 0
1, 57836, Note_on_c, 9, 36, 0
1, 57836, Note_on_c, 9, 32, 0
1, 57836, Note_on_c, 4, 78, 0
1, 57836, Note_on_c, 2, 66, 0
1, 57836, Note_on_c, 2, 61, 0
1, 57836, Note_on_c, 2, 56, 0
1, 57836, Note_on_c, 0, 66, 0
1, 57836, Note_on_c, 0, 61, 0
1, 57836, Note_on_c, 0, 56, 0
1, 57840, Note_on_c, 0, 56, 100
1, 57840, Note_on_c, 0, 61, 100
1, 57840, Note_on_c, 0, 64, 100
1, 57840, Note_on_c, 1, 37, 100
1, 57840, Note_on_c, 2, 56, 100
1, 57840, Note_on_c, 2, 61, 100
1, 57840, Note_on_c, 2, 64, 100
1, 57840, Note_on_c, 4, 76, 118
1, 57840, Note_on_c, 9, 42, 100
1, 57840, Note_on_c, 9, 82, 80
1, 57840, Note_on_c, 13, 76, 118
1, 57872, Note_on_c, 9, 82, 0
1, 57956, Note_on_c, 9, 42, 0
1, 57960, Note_on_c, 9, 42, 100
1, 58076, Note_on_c, 9, 42, 0
1, 58076, Note_on_c, 13, 76, 0
1, 58076, Note_on_c, 4, 76, 0
1, 58076, Note_on_c, 2, 64, 0
1, 58076, Note_on_c, 2, 61, 0
1, 58076, Note_on_c, 2, 56, 0
1, 58076, Note_on_c, 1, 37, 0
1, 58076, Note_on_c, 0, 64, 0
1, 58076, Note_on_c, 0, 61, 0
1, 58076, Note_on_c, 0, 56, 0
1, 58080, Note_on_c, 0, 56, 100
1, 58080, Note_on_c, 0, 61, 100
1, 58080, Note_on_c, 0, 64, 100
1, 58080, Note_on_c, 2, 56, 100
1, 58080, Note_on_c, 2, 61, 100
1, 58080, Note_on_c, 2, 64, 100
1, 58080, Note_on_c, 4, 76, 119
1, 58080, Note_on_c, 9, 32, 100
1, 58080, Note_on_c, 9, 36, 127
1, 58080, Note_on_c, 9, 37, 127
1, 58080, Note_on_c, 9, 42, 100
1, 58080, Note_on_c, 13, 76, 119
1, 58196, Note_on_c, 9, 42, 0
1, 58316, Note_on_c, 13, 76, 0
1, 58316, Note_on_c, 9, 37, 0
1, 58316, Note_on_c, 9, 36, 0
1, 58316, Note_on_c, 9, 32, 0
1, 58316, Note_on_c, 4, 76, 0
1, 58316, Note_on_c, 2, 64, 0
1, 58316, Note_on_c, 2, 61, 0
1, 58316, Note_on_c, 2, 56, 0
1, 58316, Note_on_c, 0, 64, 0
1, 58316, Note_on_c, 0, 61, 0
1, 58316, Note_on_c, 0, 56, 0
1, 58320, Note_on_c, 9, 42, 100
1, 58320, Note_on_c, 9, 82, 80
1, 58356, Note_on_c, 9, 82, 0
1, 58436, Note_on_c, 9, 42, 0
1, 58440, Note_on_c, 9, 42, 100
1, 58556, Note_on_c, 9, 42, 0
1, 58560, Note_on_c, 0, 56, 100
1, 58560, Note_on_c, 0, 59, 100
1, 58560, Note_on_c, 0, 64, 100
1, 58560, Note_on_c, 2, 56, 100
1, 58560, Note_on_c, 2, 59, 100
1, 58560, Note_on_c, 2, 64, 100
1, 58560, Note_on_c, 4, 76, 125
1, 58560, Note_on_c, 9, 32, 100
1, 58560, Note_on_c, 9, 36, 127
1, 58560, Note_on_c, 9, 42, 100
1, 58560, Note_on_c, 13, 76, 125
1, 58676, Note_on_c, 9, 42, 0
1, 58796, Note_on_c, 13, 76, 0
1, 58796, Note_on_c, 9, 36, 0
1, 58796, Note_on_c, 9, 32, 0
1, 58796, Note_on_c, 4, 76, 0
1, 58796, Note_on_c, 2, 64, 0
1, 58796, Note_on_c, 2, 59, 0
1, 58796, Note_on_c, 2, 56, 0
1, 58796, Note_on_c, 0, 64, 0
1, 58796, Note_on_c, 0, 59, 0
1, 58796, Note_on_c, 0, 56, 0
1, 58800, Note_on_c, 0, 56, 100
1, 58800, Note_on_c, 0, 59, 100
1, 58800, Note_on_c, 0, 64, 100
1, 58800, Note_on_c, 1, 40, 100
1, 58800, Note_on_c, 2, 56, 100
1, 58800, Note_on_c, 2, 59, 100
1, 58800, Note_on_c, 2, 64, 100
1, 58800, Note_on_c, 4, 76, 119
1, 58800, Note_on_c, 9, 42, 100
1, 58800, Note_on_c, 9, 82, 80
1, 58800, Note_on_c, 13, 76, 119
1, 58848, Note_on_c, 9, 82, 0
1, 58916, Note_on_c, 9, 42, 0
1, 58920, Note_on_c, 9, 42, 100
1, 59036, Note_on_c, 9, 42, 0
1, 59036, Note_on_c, 13, 76, 0
1, 59036, Note_on_c, 4, 76, 0
1, 59036, Note_on_c, 2, 64, 0
1, 59036, Note_on_c, 2, 59, 0
1, 59036, Note_on_c, 2, 56, 0
1, 59036, Note_on_c, 1, 40, 0
1, 59036, Note_on_c, 0, 64, 0
1, 59036, Note_on_c, 0, 59, 0
1, 59036, Note_on_c, 0, 56, 0
1, 59040, Note_on_c, 0, 56, 100
1, 59040, Note_on_c, 0, 59, 100
1, 59040, Note_on_c, 0, 64, 100
1, 59040, Note_on_c, 2, 56, 100
1, 59040, Note_on_c, 2, 59, 100
1, 59040, Note_on_c, 2, 64, 100
1, 59040, Note_on_c, 4, 76, 118
1, 59040, Note_on_c, 9, 32, 100
1, 59040, Note_on_c, 9, 36, 127
1, 59040, Note_on_c, 9, 37, 127
1, 59040, Note_on_c, 9, 42, 100
1, 59040, Note_on_c, 13, 76, 118
1, 59156, Note_on_c, 9, 42, 0
1, 59276, Note_on_c, 13, 76, 0
1, 59276, Note_on_c, 9, 37, 0
1, 59276, Note_on_c, 9, 36, 0
1, 59276, Note_on_c, 9, 32, 0
1, 59276, Note_on_c, 4, 76, 0
1, 59276, Note_on_c, 2, 64, 0
1, 59276, Note_on_c, 2, 59, 0
1, 59276, Note_on_c, 2, 56, 0
1, 59276, Note_on_c, 0, 64, 0
1, 59276, Note_on_c, 0, 59, 0
1, 59276, Note_on_c, 0, 56, 0
1, 59280, Note_on_c, 0, 56, 100
1, 59280, Note_on_c, 0, 59, 100
1, 59280, Note_on_c, 0, 64, 100
1, 59280, Note_on_c, 1, 40, 100
1, 59280, Note_on_c, 2, 56, 100
1, 59280, Note_on_c, 2, 59, 100
1, 59280, Note_on_c, 2, 64, 100
1, 59280, Note_on_c, 4, 76, 116
1, 59280, Note_on_c, 9, 42, 100
1, 59280, Note_on_c, 9, 82, 80
1, 59280, Note_on_c, 13, 76, 116
1, 59332, Note_on_c, 9, 82, 0
1, 59396, Note_on_c, 9, 42, 0
1, 59400, Note_on_c, 9, 42, 100
1, 59516, Note_on_c, 9, 42, 0
1, 59516, Note_on_c, 13, 76, 0
1, 59516, Note_on_c, 4, 76, 0
1, 59516, Note_on_c, 2, 64, 0
1, 59516, Note_on_c, 2, 59, 0
1, 59516, Note_on_c, 2, 56, 0
1, 59516, Note_on_c, 1, 40, 0
1, 59516, Note_on_c, 0, 64, 0
1, 59516, Note_on_c, 0, 59, 0
1, 59516, Note_on_c, 0, 56, 0
1, 59516, Note_on_c, 6, 76, 0
1, 59520, Note_on_c, 0, 54, 100
1, 59520, Note_on_c, 0, 59, 100
1, 59520, Note_on_c, 0, 63, 100
1, 59520, Note_on_c, 2, 54, 100
1, 59520, Note_on_c, 2, 59, 100
1, 59520, Note_on_c, 2, 63, 100
1, 59520, Note_on_c, 4, 75, 119
1, 59520, Note_on_c, 6, 85, 127
1, 59520, Note_on_c, 9, 32, 100
1, 59520, Note_on_c, 9, 36, 127
1, 59520, Note_on_c, 9, 42, 100
1, 59520, Note_on_c, 13, 75, 119
1, 59636, Note_on_c, 9, 42, 0
1, 59756, Note_on_c, 13, 75, 0
1, 59756, Note_on_c, 9, 36, 0
1, 59756, Note_on_c, 9, 32, 0
1, 59756, Note_on_c, 4, 75, 0
1, 59756, Note_on_c, 2, 63, 0
1, 59756, Note_on_c, 2, 59, 0
1, 59756, Note_on_c, 2, 54, 0
1, 59756, Note_on_c, 0, 63, 0
1, 59756, Note_on_c, 0, 59, 0
1, 59756, Note_on_c, 0, 54, 0
1, 59760, Note_on_c, 0, 54, 100
1, 59760, Note_on_c, 0, 59, 100
1, 59760, Note_on_c, 0, 63, 100
1, 59760, Note_on_c, 1, 35, 100
1, 59760, Note_on_c, 2, 54, 100
1, 59760, Note_on_c, 2, 59, 100
1, 59760, Note_on_c, 2, 63, 100
1, 59760, Note_on_c, 4, 75, 119
1, 59760, Note_on_c, 9, 42, 100
1, 59760, Note_on_c, 9, 82, 80
1, 59760, Note_on_c, 13, 75, 119
1, 59812, Note_on_c, 9, 82, 0
1, 59876, Note_on_c, 9, 42, 0
1, 59880, Note_on_c, 9, 42, 100
1, 59996, Note_on_c, 9, 42, 0
1, 59996, Note_on_c, 13, 75, 0
1, 59996, Note_on_c, 4, 75, 0
1, 59996, Note_on_c, 2, 63, 0
1, 59996, Note_on_c, 2, 59, 0
1, 59996, Note_on_c, 2, 54, 0
1, 59996, Note_on_c, 1, 35, 0
1, 59996, Note_on_c, 0, 63, 0
1, 59996, Note_on_c, 0, 59, 0
1, 59996, Note_on_c, 0, 54, 0
1, 60000, Note_on_c, 0, 54, 100
1, 60000, Note_on_c, 0, 59, 100
1, 60000, Note_on_c, 0, 63, 100
1, 60000, Note_on_c, 2, 54, 100
1, 60000, Note_on_c, 2, 59, 100
1, 60000, Note_on_c, 2, 63, 100
1, 60000, Note_on_c, 4, 76, 113
1, 60000, Note_on_c, 9, 32, 100
1, 60000, Note_on_c, 9, 36, 127
1, 60000, Note_on_c, 9, 37, 127
1, 60000, Note_on_c, 9, 42, 100
1, 60000, Note_on_c, 13, 76, 113
1, 60116, Note_on_c, 9, 42, 0
1, 60236, Note_on_c, 13, 76, 0
1, 60236, Note_on_c, 9, 37, 0
1, 60236, Note_on_c, 9, 36, 0
1, 60236, Note_on_c, 9, 32, 0
1, 60236, Note_on_c, 4, 76, 0
1, 60236, Note_on_c, 2, 63, 0
1, 60236, Note_on_c, 2, 59, 0
1, 60236, Note_on_c, 2, 54, 0
1, 60236, Note_on_c, 0, 63, 0
1, 60236, Note_on_c, 0, 59, 0
1, 60236, Note_on_c, 0, 54, 0
1, 60240, Note_on_c, 0, 52, 100
1, 60240, Note_on_c, 0, 57, 100
1, 60240, Note_on_c, 0, 61, 100
1, 60240, Note_on_c, 1, 33, 100
1, 60240, Note_on_c, 2, 52, 100
1, 60240, Note_on_c, 2, 57, 100
1, 60240, Note_on_c, 2, 61, 100
1, 60240, Note_on_c, 4, 76, 111
1, 60240, Note_on_c, 9, 29, 100
1, 60240, Note_on_c, 9, 42, 100
1, 60240, Note_on_c, 9, 82, 80
1, 60240, Note_on_c, 13, 76, 111
1, 60296, Note_on_c, 9, 82, 0
1, 60356, Note_on_c, 9, 42, 0
1, 60360, Note_on_c, 9, 42, 100
1, 60476, Note_on_c, 9, 42, 0
1, 60476, Note_on_c, 13, 76, 0
1, 60476, Note_on_c, 9, 29, 0
1, 60476, Note_on_c, 4, 76, 0
1, 60476, Note_on_c, 2, 61, 0
1, 60476, Note_on_c, 2, 57, 0
1, 60476, Note_on_c, 2, 52, 0
1, 60476, Note_on_c, 1, 33, 0
1, 60476, Note_on_c, 0, 61, 0
1, 60476, Note_on_c, 0, 57, 0
1, 60476, Note_on_c, 0, 52, 0
1, 60480, Note_on_c, 9, 32, 100
1, 60480, Note_on_c, 9, 36, 127
1, 60480, Note_on_c, 9, 42, 100
1, 60596, Note_on_c, 9, 42, 0
1, 60600, Note_on_c, 9, 70, 80
1, 60716, Note_on_c, 9, 36, 0
1, 60716, Note_on_c, 9, 32, 0
1, 60720, Note_on_c, 0, 52, 100
1, 60720, Note_on_c, 0, 57, 100
1, 60720, Note_on_c, 0, 61, 100
1, 60720, Note_on_c, 1, 33, 100
1, 60720, Note_on_c, 2, 52, 100
1, 60720, Note_on_c, 2, 57, 100
1, 60720, Note_on_c, 2, 61, 100
1, 60720, Note_on_c, 4, 85, 127
1, 60720, Note_on_c, 9, 42, 100
1, 60720, Note_on_c, 9, 82, 80
1, 60720, Note_on_c, 13, 85, 127
1, 60760, Note_on_c, 9, 82, 0
1, 60836, Note_on_c, 9, 42, 0
1, 60836, Note_on_c, 9, 70, 0
1, 60840, Note_on_c, 9, 42, 100
1, 60956, Note_on_c, 9, 42, 0
1, 60956, Note_on_c, 13, 85, 0
1, 60956, Note_on_c, 4, 85, 0
1, 60956, Note_on_c, 2, 61, 0
1, 60956, Note_on_c, 2, 57, 0
1, 60956, Note_on_c, 2, 52, 0
1, 60956, Note_on_c, 1, 33, 0
1, 60956, Note_on_c, 0, 61, 0
1, 60956, Note_on_c, 0, 57, 0
1, 60956, Note_on_c, 0, 52, 0
1, 60960, Note_on_c, 0, 52, 100
1, 60960, Note_on_c, 0, 57, 100
1, 60960, Note_on_c, 0, 61, 100
1, 60960, Note_on_c, 2, 52, 100
1, 60960, Note_on_c, 2, 57, 100
1, 60960, Note_on_c, 2, 61, 100
1, 60960, Note_on_c, 4, 83, 119
1, 60960, Note_on_c, 9, 32, 100
1, 60960, Note_on_c, 9, 36, 127
1, 60960, Note_on_c, 9, 37, 127
1, 60960, Note_on_c, 9, 42, 100
1, 60960, Note_on_c, 13, 83, 119
1, 61076, Note_on_c, 9, 42, 0
1, 61196, Note_on_c, 13, 83, 0
1, 61196, Note_on_c, 9, 37, 0
1, 61196, Note_on_c, 9, 36, 0
1, 61196, Note_on_c, 9, 32, 0
1, 61196, Note_on_c, 4, 83, 0
1, 61196, Note_on_c, 2, 61, 0
1, 61196, Note_on_c, 2, 57, 0
1, 61196, Note_on_c, 2, 52, 0
1, 61196, Note_on_c, 0, 61, 0
1, 61196, Note_on_c, 0, 57, 0
1, 61196, Note_on_c, 0, 52, 0
1, 61200, Note_on_c, 0, 52, 100
1, 61200, Note_on_c, 0, 57, 100
1, 61200, Note_on_c, 0, 61, 100
1, 61200, Note_on_c, 1, 33, 100
1, 61200, Note_on_c, 2, 52, 100
1, 61200, Note_on_c, 2, 57, 100
1, 61200, Note_on_c, 2, 61, 100
1, 61200, Note_on_c, 4, 80, 125
1, 61200, Note_on_c, 9, 42, 100
1, 61200, Note_on_c, 9, 82, 80
1, 61200, Note_on_c, 13, 80, 125
1, 61240, Note_on_c, 9, 82, 0
1, 61316, Note_on_c, 9, 42, 0
1, 61320, Note_on_c, 9, 42, 100
1, 61436, Note_on_c, 9, 42, 0
1, 61436, Note_on_c, 13, 80, 0
1, 61436, Note_on_c, 4, 80, 0
1, 61436, Note_on_c, 2, 61, 0
1, 61436, Note_on_c, 2, 57, 0
1, 61436, Note_on_c, 2, 52, 0
1, 61436, Note_on_c, 1, 33, 0
1, 61436, Note_on_c, 0, 61, 0
1, 61436, Note_on_c, 0, 57, 0
1, 61436, Note_on_c, 0, 52, 0
1, 61436, Note_on_c, 6, 85, 0
1, 61436, Note_on_c, 10, 84, 0
1, 61440, Note_on_c, 0, 56, 100
1, 61440, Note_on_c, 0, 61, 100
1, 61440, Note_on_c, 0, 66, 100
1, 61440, Note_on_c, 2, 56, 100
1, 61440, Note_on_c, 2, 61, 100
1, 61440, Note_on_c, 2, 66, 100
1, 61440, Note_on_c, 4, 78, 127
1, 61440, Note_on_c, 6, 76, 127
1, 61440, Note_on_c, 9, 32, 100
1, 61440, Note_on_c, 9, 36, 127
1, 61440, Note_on_c, 9, 42, 100
1, 61440, Note_on_c, 13, 78, 127
1, 61556, Note_on_c, 9, 42, 0
1, 61676, Note_on_c, 13, 78, 0
1, 61676, Note_on_c, 9, 36, 0
1, 61676, Note_on_c, 9, 32, 0
1, 61676, Note_on_c, 4, 78, 0
1, 61676, Note_on_c, 2, 66, 0
1, 61676, Note_on_c, 2, 61, 0
1, 61676, Note_on_c, 2, 56, 0
1, 61676, Note_on_c, 0, 66, 0
1, 61676, Note_on_c, 0, 61, 0
1, 61676, Note_on_c, 0, 56, 0
1, 61680, Note_on_c, 0, 56, 100
1, 61680, Note_on_c, 0, 61, 100
1, 61680, Note_on_c, 0, 64, 100
1, 61680, Note_on_c, 1, 37, 100
1, 61680, Note_on_c, 2, 56, 100
1, 61680, Note_on_c, 2, 61, 100
1, 61680, Note_on_c, 2, 64, 100
1, 61680, Note_on_c, 4, 76, 101
1, 61680, Note_on_c, 9, 42, 100
1, 61680, Note_on_c, 9, 82, 80
1, 61680, Note_on_c, 13, 76, 101
1, 61712, Note_on_c, 9, 82, 0
1, 61796, Note_on_c, 9, 42, 0
1, 61800, Note_on_c, 9, 42, 100
1, 61916, Note_on_c, 9, 42, 0
1, 61916, Note_on_c, 13, 76, 0
1, 61916, Note_on_c, 4, 76, 0
1, 61916, Note_on_c, 2, 64, 0
1, 61916, Note_on_c, 2, 61, 0
1, 61916, Note_on_c, 2, 56, 0
1, 61916, Note_on_c, 1, 37, 0
1, 61916, Note_on_c, 0, 64, 0
1, 61916, Note_on_c, 0, 61, 0
1, 61916, Note_on_c, 0, 56, 0
1, 61920, Note_on_c, 0, 56, 100
1, 61920, Note_on_c, 0, 61, 100
1, 61920, Note_on_c, 0, 64, 100
1, 61920, Note_on_c, 2, 56, 100
1, 61920, Note_on_c, 2, 61, 100
1, 61920, Note_on_c, 2, 64, 100
1, 61920, Note_on_c, 4, 76, 116
1, 61920, Note_on_c, 9, 32, 100
1, 61920, Note_on_c, 9, 36, 127
1, 61920, Note_on_c, 9, 37, 127
1, 61920, Note_on_c, 9, 42, 100
1, 61920, Note_on_c, 13, 76, 116
1, 62036, Note_on_c, 9, 42, 0
1, 62156, Note_on_c, 13, 76, 0
1, 62156, Note_on_c, 9, 37, 0
1, 62156, Note_on_c, 9, 36, 0
1, 62156, Note_on_c, 9, 32, 0
1, 62156, Note_on_c, 4, 76, 0
1, 62156, Note_on_c, 2, 64, 0
1, 62156, Note_on_c, 2, 61, 0
1, 62156, Note_on_c, 2, 56, 0
1, 62156, Note_on_c, 0, 64, 0
1, 62156, Note_on_c, 0, 61, 0
1, 62156, Note_on_c, 0, 56, 0
1, 62160, Note_on_c, 9, 42, 100
1, 62160, Note_on_c, 9, 82, 80
1, 62196, Note_on_c, 9, 82, 0
1, 62276, Note_on_c, 9, 42, 0
1, 62280, Note_on_c, 9, 42, 100
1, 62396, Note_on_c, 9, 42, 0
1, 62400, Note_on_c, 0, 56, 100
1, 62400, Note_on_c, 0, 59, 100
1, 62400, Note_on_c, 0, 64, 100
1, 62400, Note_on_c, 2, 56, 100
1, 62400, Note_on_c, 2, 59, 100
1, 62400, Note_on_c, 2, 64, 100
1, 62400, Note_on_c, 4, 76, 119
1, 62400, Note_on_c, 9, 32, 100
1, 62400, Note_on_c, 9, 36, 127
1, 62400, Note_on_c, 9, 42, 100
1, 62400, Note_on_c, 13, 76, 119
1, 62516, Note_on_c, 9, 42, 0
1, 62636, Note_on_c, 13, 76, 0
1, 62636, Note_on_c, 9, 36, 0
1, 62636, Note_on_c, 9, 32, 0
1, 62636, Note_on_c, 4, 76, 0
1, 62636, Note_on_c, 2, 64, 0
1, 62636, Note_on_c, 2, 59, 0
1, 62636, Note_on_c, 2, 56, 0
1, 62636, Note_on_c, 0, 64, 0
1, 62636, Note_on_c, 0, 59, 0
1, 62636, Note_on_c, 0, 56, 0
1, 62640, Note_on_c, 0, 56, 100
1, 62640, Note_on_c, 0, 59, 100
1, 62640, Note_on_c, 0, 64, 100
1, 62640, Note_on_c, 1, 40, 100
1, 62640, Note_on_c, 2, 56, 100
1, 62640, Note_on_c, 2, 59, 100
1, 62640, Note_on_c, 2, 64, 100
1, 62640, Note_on_c, 4, 76, 111
1, 62640, Note_on_c, 9, 42, 100
1, 62640, Note_on_c, 9, 82, 80
1, 62640, Note_on_c, 13, 76, 111
1, 62688, Note_on_c, 9, 82, 0
1, 62756, Note_on_c, 9, 42, 0
1, 62760, Note_on_c, 9, 42, 100
1, 62876, Note_on_c, 9, 42, 0
1, 62876, Note_on_c, 13, 76, 0
1, 62876, Note_on_c, 4, 76, 0
1, 62876, Note_on_c, 2, 64, 0
1, 62876, Note_on_c, 2, 59, 0
1, 62876, Note_on_c, 2, 56, 0
1, 62876, Note_on_c, 1, 40, 0
1, 62876, Note_on_c, 0, 64, 0
1, 62876, Note_on_c, 0, 59, 0
1, 62876, Note_on_c, 0, 56, 0
1, 62880, Note_on_c, 0, 56, 100
1, 62880, Note_on_c, 0, 59, 100
1, 62880, Note_on_c, 0, 64, 100
1, 62880, Note_on_c, 2, 56, 100
1, 62880, Note_on_c, 2, 59, 100
1, 62880, Note_on_c, 2, 64, 100
1, 62880, Note_on_c, 4, 76, 109
1, 62880, Note_on_c, 9, 32, 100
1, 62880, Note_on_c, 9, 36, 127
1, 62880, Note_on_c, 9, 37, 127
1, 62880, Note_on_c, 9, 42, 100
1, 62880, Note_on_c, 13, 76, 109
1, 62996, Note_on_c, 9, 42, 0
1, 63116, Note_on_c, 13, 76, 0
1, 63116, Note_on_c, 9, 37, 0
1, 63116, Note_on_c, 9, 36, 0
1, 63116, Note_on_c, 9, 32, 0
1, 63116, Note_on_c, 4, 76, 0
1, 63116, Note_on_c, 2, 64, 0
1, 63116, Note_on_c, 2, 59, 0
1, 63116, Note_on_c, 2, 56, 0
1, 63116, Note_on_c, 0, 64, 0
1, 63116, Note_on_c, 0, 59, 0
1, 63116, Note_on_c, 0, 56, 0
1, 63120, Note_on_c, 0, 56, 100
1, 63120, Note_on_c, 0, 59, 100
1, 63120, Note_on_c, 0, 64, 100
1, 63120, Note_on_c, 1, 40, 100
1, 63120, Note_on_c, 2, 56, 100
1, 63120, Note_on_c, 2, 59, 100
1, 63120, Note_on_c, 2, 64, 100
1, 63120, Note_on_c, 4, 76, 87
1, 63120, Note_on_c, 9, 42, 100
1, 63120, Note_on_c, 9, 82, 80
1, 63120, Note_on_c, 13, 76, 87
1, 63172, Note_on_c, 9, 82, 0
1, 63236, Note_on_c, 9, 42, 0
1, 63240, Note_on_c, 9, 42, 100
1, 63356, Note_on_c, 9, 42, 0
1, 63356, Note_on_c, 13, 76, 0
1, 63356, Note_on_c, 4, 76, 0
1, 63356, Note_on_c, 2, 64, 0
1, 63356, Note_on_c, 2, 59, 0
1, 63356, Note_on_c, 2, 56, 0
1, 63356, Note_on_c, 1, 40, 0
1, 63356, Note_on_c, 0, 64, 0
1, 63356, Note_on_c, 0, 59, 0
1, 63356, Note_on_c, 0, 56, 0
1, 63356, Note_on_c, 6, 76, 0
1, 63360, Note_on_c, 0, 54, 100
1, 63360, Note_on_c, 0, 59, 100
1, 63360, Note_on_c, 0, 63, 100
1, 63360, Note_on_c, 2, 54, 100
1, 63360, Note_on_c, 2, 59, 100
1, 63360, Note_on_c, 2, 63, 100
1, 63360, Note_on_c, 4, 73, 127
1, 63360, Note_on_c, 6, 85, 127
1, 63360, Note_on_c, 9, 36, 127
1, 63360, Note_on_c, 9, 42, 100
1, 63360, Note_on_c, 13, 73, 127
1, 63476, Note_on_c, 9, 42, 0
1, 63596, Note_on_c, 13, 73, 0
1, 63596, Note_on_c, 9, 36, 0
1, 63596, Note_on_c, 4, 73, 0
1, 63596, Note_on_c, 2, 63, 0
1, 63596, Note_on_c, 2, 59, 0
1, 63596, Note_on_c, 2, 54, 0
1, 63596, Note_on_c, 0, 63, 0
1, 63596, Note_on_c, 0, 59, 0
1, 63596, Note_on_c, 0, 54, 0
1, 63600, Note_on_c, 0, 54, 100
1, 63600, Note_on_c, 0, 59, 100
1, 63600, Note_on_c, 0, 63, 100
1, 63600, Note_on_c, 1, 35, 100
1, 63600, Note_on_c, 2, 54, 100
1, 63600, Note_on_c, 2, 59, 100
1, 63600, Note_on_c, 2, 63, 100
1, 63600, Note_on_c, 4, 73, 127
1, 63600, Note_on_c, 9, 42, 100
1, 63600, Note_on_c, 9, 82, 80
1, 63600, Note_on_c, 13, 73, 127
1, 63652, Note_on_c, 9, 82, 0
1, 63716, Note_on_c, 9, 42, 0
1, 63720, Note_on_c, 9, 42, 100
1, 63836, Note_on_c, 9, 42, 0
1, 63836, Note_on_c, 13, 73, 0
1, 63836, Note_on_c, 4, 73, 0
1, 63836, Note_on_c, 2, 63, 0
1, 63836, Note_on_c, 2, 59, 0
1, 63836, Note_on_c, 2, 54, 0
1, 63836, Note_on_c, 1, 35, 0
1, 63836, Note_on_c, 0, 63, 0
1, 63836, Note_on_c, 0, 59, 0
1, 63836, Note_on_c, 0, 54, 0
1, 63840, Note_on_c, 0, 54, 100
1, 63840, Note_on_c, 0, 59, 100
1, 63840, Note_on_c, 0, 63, 100
1, 63840, Note_on_c, 2, 54, 100
1, 63840, Note_on_c, 2, 59, 100
1, 63840, Note_on_c, 2, 63, 100
1, 63840, Note_on_c, 4, 71, 113
1, 63840, Note_on_c, 9, 36, 127
1, 63840, Note_on_c, 9, 37, 127
1, 63840, Note_on_c, 9, 42, 100
1, 63840, Note_on_c, 13, 71, 113
1, 63956, Note_on_c, 9, 42, 0
1, 64076, Note_on_c, 13, 71, 0
1, 64076, Note_on_c, 9, 37, 0
1, 64076, Note_on_c, 9, 36, 0
1, 64076, Note_on_c, 4, 71, 0
1, 64076, Note_on_c, 2, 63, 0
1, 64076, Note_on_c, 2, 59, 0
1, 64076, Note_on_c, 2, 54, 0
1, 64076, Note_on_c, 0, 63, 0
1, 64076, Note_on_c, 0, 59, 0
1, 64076, Note_on_c, 0, 54, 0
1, 64080, Note_on_c, 0, 52, 100
1, 64080, Note_on_c, 0, 57, 100
1, 64080, Note_on_c, 0, 61, 100
1, 64080, Note_on_c, 1, 33, 100
1, 64080, Note_on_c, 2, 52, 100
1, 64080, Note_on_c, 2, 57, 100
1, 64080, Note_on_c, 2, 61, 100
1, 64080, Note_on_c, 4, 71, 122
1, 64080, Note_on_c, 9, 29, 100
1, 64080, Note_on_c, 9, 42, 100
1, 64080, Note_on_c, 9, 82, 80
1, 64080, Note_on_c, 13, 71, 122
1, 64136, Note_on_c, 9, 82, 0
1, 64196, Note_on_c, 9, 42, 0
1, 64200, Note_on_c, 9, 42, 100
1, 64316, Note_on_c, 9, 42, 0
1, 64316, Note_on_c, 13, 71, 0
1, 64316, Note_on_c, 9, 29, 0
1, 64316, Note_on_c, 4, 71, 0
1, 64316, Note_on_c, 2, 61, 0
1, 64316, Note_on_c, 2, 57, 0
1, 64316, Note_on_c, 2, 52, 0
1, 64316, Note_on_c, 1, 33, 0
1, 64316, Note_on_c, 0, 61, 0
1, 64316, Note_on_c, 0, 57, 0
1, 64316, Note_on_c, 0, 52, 0
1, 64320, Note_on_c, 9, 36, 127
1, 64320, Note_on_c, 9, 42, 100
1, 64436, Note_on_c, 9, 42, 0
1, 64440, Note_on_c, 9, 70, 80
1, 64556, Note_on_c, 9, 36, 0
1, 64560, Note_on_c, 0, 52, 100
1, 64560, Note_on_c, 0, 57, 100
1, 64560, Note_on_c, 0, 61, 100
1, 64560, Note_on_c, 1, 33, 100
1, 64560, Note_on_c, 2, 52, 100
1, 64560, Note_on_c, 2, 57, 100
1, 64560, Note_on_c, 2, 61, 100
1, 64560, Note_on_c, 4, 85, 127
1, 64560, Note_on_c, 9, 42, 100
1, 64560, Note_on_c, 9, 82, 80
1, 64560, Note_on_c, 13, 85, 127
1, 64600, Note_on_c, 9, 82, 0
1, 64676, Note_on_c, 9, 42, 0
1, 64676, Note_on_c, 9, 70, 0
1, 64680, Note_on_c, 9, 42, 100
1, 64796, Note_on_c, 9, 42, 0
1, 64796, Note_on_c, 13, 85, 0
1, 64796, Note_on_c, 4, 85, 0
1, 64796, Note_on_c, 2, 61, 0
1, 64796, Note_on_c, 2, 57, 0
1, 64796, Note_on_c, 2, 52, 0
1, 64796, Note_on_c, 1, 33, 0
1, 64796, Note_on_c, 0, 61, 0
1, 64796, Note_on_c, 0, 57, 0
1, 64796, Note_on_c, 0, 52, 0
1, 64800, Note_on_c, 0, 52, 100
1, 64800, Note_on_c, 0, 57, 100
1, 64800, Note_on_c, 0, 61, 100
1, 64800, Note_on_c, 2, 52, 100
1, 64800, Note_on_c, 2, 57, 100
1, 64800, Note_on_c, 2, 61, 100
1, 64800, Note_on_c, 4, 83, 119
1, 64800, Note_on_c, 9, 36, 127
1, 64800, Note_on_c, 9, 37, 127
1, 64800, Note_on_c, 9, 42, 100
1, 64800, Note_on_c, 13, 83, 119
1, 64916, Note_on_c, 9, 42, 0
1, 65036, Note_on_c, 13, 83, 0
1, 65036, Note_on_c, 9, 37, 0
1, 65036, Note_on_c, 9, 36, 0
1, 65036, Note_on_c, 4, 83, 0
1, 65036, Note_on_c, 2, 61, 0
1, 65036, Note_on_c, 2, 57, 0
1, 65036, Note_on_c, 2, 52, 0
1, 65036, Note_on_c, 0, 61, 0
1, 65036, Note_on_c, 0, 57, 0
1, 65036, Note_on_c, 0, 52, 0
1, 65040, Note_on_c, 0, 52, 100
1, 65040, Note_on_c, 0, 57, 100
1, 65040, Note_on_c, 0, 61, 100
1, 65040, Note_on_c, 1, 33, 100
1, 65040, Note_on_c, 2, 52, 100
1, 65040, Note_on_c, 2, 57, 100
1, 65040, Note_on_c, 2, 61, 100
1, 65040, Note_on_c, 4, 80, 127
1, 65040, Note_on_c, 9, 42, 100
1, 65040, Note_on_c, 9, 82, 80
1, 65040, Note_on_c, 13, 80, 127
1, 65080, Note_on_c, 9, 82, 0
1, 65156, Note_on_c, 9, 42, 0
1, 65160, Note_on_c, 9, 42, 100
1, 65276, Note_on_c, 9, 42, 0
1, 65276, Note_on_c, 13, 80, 0
1, 65276, Note_on_c, 4, 80, 0
1, 65276, Note_on_c, 2, 61, 0
1, 65276, Note_on_c, 2, 57, 0
1, 65276, Note_on_c, 2, 52, 0
1, 65276, Note_on_c, 1, 33, 0
1, 65276, Note_on_c, 0, 61, 0
1, 65276, Note_on_c, 0, 57, 0
1, 65276, Note_on_c, 0, 52, 0
1, 65276, Note_on_c, 6, 85, 0
1, 65280, Note_on_c, 0, 56, 100
1, 65280, Note_on_c, 0, 61, 100
1, 65280, Note_on_c, 0, 66, 100
1, 65280, Note_on_c, 2, 56, 100
1, 65280, Note_on_c, 2, 61, 100
1, 65280, Note_on_c, 2, 66, 100
1, 65280, Note_on_c, 4, 78, 127
1, 65280, Note_on_c, 6, 76, 127
1, 65280, Note_on_c, 7, 61, 106
1, 65280, Note_on_c, 9, 32, 100
1, 65280, Note_on_c, 9, 36, 127
1, 65280, Note_on_c, 9, 42, 100
1, 65280, Note_on_c, 10, 84, 127
1, 65280, Note_on_c, 13, 78, 127
1, 65340, Note_on_c, 7, 61, 0
1, 65396, Note_on_c, 9, 42, 0
1, 65400, Note_on_c, 7, 49, 92
1, 65456, Note_on_c, 7, 49, 0
1, 65516, Note_on_c, 13, 78, 0
1, 65516, Note_on_c, 9, 36, 0
1, 65516, Note_on_c, 9, 32, 0
1, 65516, Note_on_c, 4, 78, 0
1, 65516, Note_on_c, 2, 66, 0
1, 65516, Note_on_c, 2, 61, 0
1, 65516, Note_on_c, 2, 56, 0
1, 65516, Note_on_c, 0, 66, 0
1, 65516, Note_on_c, 0, 61, 0
1, 65516, Note_on_c, 0, 56, 0
1, 65520, Note_on_c, 0, 56, 100
1, 65520, Note_on_c, 0, 61, 100
1, 65520, Note_on_c, 0, 64, 100
1, 65520, Note_on_c, 1, 37, 100
1, 65520, Note_on_c, 2, 56, 100
1, 65520, Note_on_c, 2, 61, 100
1, 65520, Note_on_c, 2, 64, 100
1, 65520, Note_on_c, 4, 76, 118
1, 65520, Note_on_c, 7, 61, 106
1, 65520, Note_on_c, 9, 42, 100
1, 65520, Note_on_c, 9, 82, 80
1, 65520, Note_on_c, 13, 76, 118
1, 65552, Note_on_c, 9, 82, 0
1, 65580, Note_on_c, 7, 61, 0
1, 65636, Note_on_c, 9, 42, 0
1, 65640, Note_on_c, 7, 68, 127
1, 65640, Note_on_c, 9, 42, 100
1, 65696, Note_on_c, 7, 68, 0
1, 65756, Note_on_c, 9, 42, 0
1, 65756, Note_on_c, 13, 76, 0
1, 65756, Note_on_c, 4, 76, 0
1, 65756, Note_on_c, 2, 64, 0
1, 65756, Note_on_c, 2, 61, 0
1, 65756, Note_on_c, 2, 56, 0
1, 65756, Note_on_c, 1, 37, 0
1, 65756, Note_on_c, 0, 64, 0
1, 65756, Note_on_c, 0, 61, 0
1, 65756, Note_on_c, 0, 56, 0
1, 65760, Note_on_c, 0, 56, 100
1, 65760, Note_on_c, 0, 61, 100
1, 65760, Note_on_c, 0, 64, 100
1, 65760, Note_on_c, 2, 56, 100
1, 65760, Note_on_c, 2, 61, 100
1, 65760, Note_on_c, 2, 64, 100
1, 65760, Note_on_c, 4, 76, 119
1, 65760, Note_on_c, 7, 56, 92
1, 65760, Note_on_c, 9, 32, 100
1, 65760, Note_on_c, 9, 36, 127
1, 65760, Note_on_c, 9, 37, 127
1, 65760, Note_on_c, 9, 42, 100
1, 65760, Note_on_c, 13, 76, 119
1, 65816, Note_on_c, 7, 56, 0
1, 65876, Note_on_c, 9, 42, 0
1, 65880, Note_on_c, 7, 61, 109
1, 65940, Note_on_c, 7, 61, 0
1, 65996, Note_on_c, 13, 76, 0
1, 65996, Note_on_c, 9, 37, 0
1, 65996, Note_on_c, 9, 36, 0
1, 65996, Note_on_c, 9, 32, 0
1, 65996, Note_on_c, 4, 76, 0
1, 65996, Note_on_c, 2, 64, 0
1, 65996, Note_on_c, 2, 61, 0
1, 65996, Note_on_c, 2, 56, 0
1, 65996, Note_on_c, 0, 64, 0
1, 65996, Note_on_c, 0, 61, 0
1, 65996, Note_on_c, 0, 56, 0
1, 66000, Note_on_c, 7, 68, 127
1, 66000, Note_on_c, 9, 42, 100
1, 66000, Note_on_c, 9, 82, 80
1, 66036, Note_on_c, 9, 82, 0
1, 66060, Note_on_c, 7, 68, 0
1, 66116, Note_on_c, 9, 42, 0
1, 66120, Note_on_c, 7, 73, 100
1, 66120, Note_on_c, 9, 42, 100
1, 66236, Note_on_c, 9, 42, 0
1, 66236, Note_on_c, 7, 73, 0
1, 66240, Note_on_c, 0, 56, 100
1, 66240, Note_on_c, 0, 59, 100
1, 66240, Note_on_c, 0, 64, 100
1, 66240, Note_on_c, 2, 56, 100
1, 66240, Note_on_c, 2, 59, 100
1, 66240, Note_on_c, 2, 64, 100
1, 66240, Note_on_c, 4, 76, 125
1, 66240, Note_on_c, 7, 73, 127
1, 66240, Note_on_c, 9, 32, 100
1, 66240, Note_on_c, 9, 36, 127
1, 66240, Note_on_c, 9, 42, 100
1, 66240, Note_on_c, 13, 76, 125
1, 66296, Note_on_c, 7, 73, 0
1, 66356, Note_on_c, 9, 42, 0
1, 66360, Note_on_c, 7, 68, 59
1, 66416, Note_on_c, 7, 68, 0
1, 66476, Note_on_c, 13, 76, 0
1, 66476, Note_on_c, 9, 36, 0
1, 66476, Note_on_c, 9, 32, 0
1, 66476, Note_on_c, 4, 76, 0
1, 66476, Note_on_c, 2, 64, 0
1, 66476, Note_on_c, 2, 59, 0
1, 66476, Note_on_c, 2, 56, 0
1, 66476, Note_on_c, 0, 64, 0
1, 66476, Note_on_c, 0, 59, 0
1, 66476, Note_on_c, 0, 56, 0
1, 66480, Note_on_c, 0, 56, 100
1, 66480, Note_on_c, 0, 59, 100
1, 66480, Note_on_c, 0, 64, 100
1, 66480, Note_on_c, 1, 40, 100
1, 66480, Note_on_c, 2, 56, 100
1, 66480, Note_on_c, 2, 59, 100
1, 66480, Note_on_c, 2, 64, 100
1, 66480, Note_on_c, 4, 76, 119
1, 66480, Note_on_c, 7, 73, 78
1, 66480, Note_on_c, 9, 42, 100
1, 66480, Note_on_c, 9, 82, 80
1, 66480, Note_on_c, 13, 76, 119
1, 66528, Note_on_c, 9, 82, 0
1, 66536, Note_on_c, 7, 73, 0
1, 66596, Note_on_c, 9, 42, 0
1, 66600, Note_on_c, 7, 81, 125
1, 66600, Note_on_c, 9, 42, 100
1, 66716, Note_on_c, 9, 42, 0
1, 66716, Note_on_c, 7, 81, 0
1, 66716, Note_on_c, 13, 76, 0
1, 66716, Note_on_c, 4, 76, 0
1, 66716, Note_on_c, 2, 64, 0
1, 66716, Note_on_c, 2, 59, 0
1, 66716, Note_on_c, 2, 56, 0
1, 66716, Note_on_c, 1, 40, 0
1, 66716, Note_on_c, 0, 64, 0
1, 66716, Note_on_c, 0, 59, 0
1, 66716, Note_on_c, 0, 56, 0
1, 66720, Note_on_c, 0, 56, 100
1, 66720, Note_on_c, 0, 59, 100
1, 66720, Note_on_c, 0, 64, 100
1, 66720, Note_on_c, 2, 56, 100
1, 66720, Note_on_c, 2, 59, 100
1, 66720, Note_on_c, 2, 64, 100
1, 66720, Note_on_c, 4, 76, 118
1, 66720, Note_on_c, 7, 73, 84
1, 66720, Note_on_c, 9, 32, 100
1, 66720, Note_on_c, 9, 36, 127
1, 66720, Note_on_c, 9, 37, 127
1, 66720, Note_on_c, 9, 42, 100
1, 66720, Note_on_c, 13, 76, 118
1, 66780, Note_on_c, 7, 73, 0
1, 66836, Note_on_c, 9, 42, 0
1, 66840, Note_on_c, 7, 68, 73
1, 66956, Note_on_c, 7, 68, 0
1, 66956, Note_on_c, 13, 76, 0
1, 66956, Note_on_c, 9, 37, 0
1, 66956, Note_on_c, 9, 36, 0
1, 66956, Note_on_c, 9, 32, 0
1, 66956, Note_on_c, 4, 76, 0
1, 66956, Note_on_c, 2, 64, 0
1, 66956, Note_on_c, 2, 59, 0
1, 66956, Note_on_c, 2, 56, 0
1, 66956, Note_on_c, 0, 64, 0
1, 66956, Note_on_c, 0, 59, 0
1, 66956, Note_on_c, 0, 56, 0
1, 66960, Note_on_c, 0, 56, 100
1, 66960, Note_on_c, 0, 59, 100
1, 66960, Note_on_c, 0, 64, 100
1, 66960, Note_on_c, 1, 40, 100
1, 66960, Note_on_c, 2, 56, 100
1, 66960, Note_on_c, 2, 59, 100
1, 66960, Note_on_c, 2, 64, 100
1, 66960, Note_on_c, 4, 76, 116
1, 66960, Note_on_c, 7, 73, 119
1, 66960, Note_on_c, 9, 42, 100
1, 66960, Note_on_c, 9, 82, 80
1, 66960, Note_on_c, 13, 76, 116
1, 67012, Note_on_c, 9, 82, 0
1, 67020, Note_on_c, 7, 73, 0
1, 67076, Note_on_c, 9, 42, 0
1, 67080, Note_on_c, 7, 64, 109
1, 67080, Note_on_c, 9, 42, 100
1, 67140, Note_on_c, 7, 64, 0
1, 67196, Note_on_c, 9, 42, 0
1, 67196, Note_on_c, 13, 76, 0
1, 67196, Note_on_c, 4, 76, 0
1, 67196, Note_on_c, 2, 64, 0
1, 67196, Note_on_c, 2, 59, 0
1, 67196, Note_on_c, 2, 56, 0
1, 67196, Note_on_c, 1, 40, 0
1, 67196, Note_on_c, 0, 64, 0
1, 67196, Note_on_c, 0, 59, 0
1, 67196, Note_on_c, 0, 56, 0
1, 67196, Note_on_c, 6, 76, 0
1, 67200, Note_on_c, 0, 54, 100
1, 67200, Note_on_c, 0, 59, 100
1, 67200, Note_on_c, 0, 63, 100
1, 67200, Note_on_c, 2, 54, 100
1, 67200, Note_on_c, 2, 59, 100
1, 67200, Note_on_c, 2, 63, 100
1, 67200, Note_on_c, 4, 75, 119
1, 67200, Note_on_c, 6, 85, 127
1, 67200, Note_on_c, 7, 61, 106
1, 67200, Note_on_c, 9, 32, 100
1, 67200, Note_on_c, 9, 36, 127
1, 67200, Note_on_c, 9, 42, 100
1, 67200, Note_on_c, 13, 75, 119
1, 67260, Note_on_c, 7, 61, 0
1, 67316, Note_on_c, 9, 42, 0
1, 67320, Note_on_c, 7, 49, 92
1, 67376, Note_on_c, 7, 49, 0
1, 67436, Note_on_c, 13, 75, 0
1, 67436, Note_on_c, 9, 36, 0
1, 67436, Note_on_c, 9, 32, 0
1, 67436, Note_on_c, 4, 75, 0
1, 67436, Note_on_c, 2, 63, 0
1, 67436, Note_on_c, 2, 59, 0
1, 67436, Note_on_c, 2, 54, 0
1, 67436, Note_on_c, 0, 63, 0
1, 67436, Note_on_c, 0, 59, 0
1, 67436, Note_on_c, 0, 54, 0
1, 67440, Note_on_c, 0, 54, 100
1, 67440, Note_on_c, 0, 59, 100
1, 67440, Note_on_c, 0, 63, 100
1, 67440, Note_on_c, 1, 35, 100
1, 67440, Note_on_c, 2, 54, 100
1, 67440, Note_on_c, 2, 59, 100
1, 67440, Note_on_c, 2, 63, 100
1, 67440, Note_on_c, 4, 75, 119
1, 67440, Note_on_c, 7, 61, 106
1, 67440, Note_on_c, 9, 42, 100
1, 67440, Note_on_c, 9, 82, 80
1, 67440, Note_on_c, 13, 75, 119
1, 67492, Note_on_c, 9, 82, 0
1, 67500, Note_on_c, 7, 61, 0
1, 67556, Note_on_c, 9, 42, 0
1, 67560, Note_on_c, 7, 68, 127
1, 67560, Note_on_c, 9, 42, 100
1, 67616, Note_on_c, 7, 68, 0
1, 67676, Note_on_c, 9, 42, 0
1, 67676, Note_on_c, 13, 75, 0
1, 67676, Note_on_c, 4, 75, 0
1, 67676, Note_on_c, 2, 63, 0
1, 67676, Note_on_c, 2, 59, 0
1, 67676, Note_on_c, 2, 54, 0
1, 67676, Note_on_c, 1, 35, 0
1, 67676, Note_on_c, 0, 63, 0
1, 67676, Note_on_c, 0, 59, 0
1, 67676, Note_on_c, 0, 54, 0
1, 67680, Note_on_c, 0, 54, 100
1, 67680, Note_on_c, 0, 59, 100
1, 67680, Note_on_c, 0, 63, 100
1, 67680, Note_on_c, 2, 54, 100
1, 67680, Note_on_c, 2, 59, 100
1, 67680, Note_on_c, 2, 63, 100
1, 67680, Note_on_c, 4, 76, 113
1, 67680, Note_on_c, 7, 56, 92
1, 67680, Note_on_c, 9, 32, 100
1, 67680, Note_on_c, 9, 36, 127
1, 67680, Note_on_c, 9, 37, 127
1, 67680, Note_on_c, 9, 42, 100
1, 67680, Note_on_c, 13, 76, 113
1, 67736, Note_on_c, 7, 56, 0
1, 67796, Note_on_c, 9, 42, 0
1, 67800, Note_on_c, 7, 61, 109
1, 67860, Note_on_c, 7, 61, 0
1, 67916, Note_on_c, 13, 76, 0
1, 67916, Note_on_c, 9, 37, 0
1, 67916, Note_on_c, 9, 36, 0
1, 67916, Note_on_c, 9, 32, 0
1, 67916, Note_on_c, 4, 76, 0
1, 67916, Note_on_c, 2, 63, 0
1, 67916, Note_on_c, 2, 59, 0
1, 67916, Note_on_c, 2, 54, 0
1, 67916, Note_on_c, 0, 63, 0
1, 67916, Note_on_c, 0, 59, 0
1, 67916, Note_on_c, 0, 54, 0
1, 67920, Note_on_c, 0, 52, 100
1, 67920, Note_on_c, 0, 57, 100
1, 67920, Note_on_c, 0, 61, 100
1, 67920, Note_on_c, 1, 33, 100
1, 67920, Note_on_c, 2, 52, 100
1, 67920, Note_on_c, 2, 57, 100
1, 67920, Note_on_c, 2, 61, 100
1, 67920, Note_on_c, 4, 76, 111
1, 67920, Note_on_c, 7, 68, 127
1, 67920, Note_on_c, 9, 29, 100
1, 67920, Note_on_c, 9, 42, 100
1, 67920, Note_on_c, 9, 82, 80
1, 67920, Note_on_c, 13, 76, 111
1, 67976, Note_on_c, 9, 82, 0
1, 67980, Note_on_c, 7, 68, 0
1, 68036, Note_on_c, 9, 42, 0
1, 68040, Note_on_c, 7, 73, 100
1, 68040, Note_on_c, 9, 42, 100
1, 68156, Note_on_c, 9, 42, 0
1, 68156, Note_on_c, 7, 73, 0
1, 68156, Note_on_c, 13, 76, 0
1, 68156, Note_on_c, 9, 29, 0
1, 68156, Note_on_c, 4, 76, 0
1, 68156, Note_on_c, 2, 61, 0
1, 68156, Note_on_c, 2, 57, 0
1, 68156, Note_on_c, 2, 52, 0
1, 68156, Note_on_c, 1, 33, 0
1, 68156, Note_on_c, 0, 61, 0
1, 68156, Note_on_c, 0, 57, 0
1, 68156, Note_on_c, 0, 52, 0
1, 68160, Note_on_c, 7, 73, 127
1, 68160, Note_on_c, 9, 32, 100
1, 68160, Note_on_c, 9, 36, 127
1, 68160, Note_on_c, 9, 42, 100
1, 68216, Note_on_c, 7, 73, 0
1, 68276, Note_on_c, 9, 42, 0
1, 68280, Note_on_c, 7, 68, 59
1, 68280, Note_on_c, 9, 70, 80
1, 68336, Note_on_c, 7, 68, 0
1, 68396, Note_on_c, 9, 36, 0
1, 68396, Note_on_c, 9, 32, 0
1, 68400, Note_on_c, 0, 52, 100
1, 68400, Note_on_c, 0, 57, 100
1, 68400, Note_on_c, 0, 61, 100
1, 68400, Note_on_c, 1, 33, 100
1, 68400, Note_on_c, 2, 52, 100
1, 68400, Note_on_c, 2, 57, 100
1, 68400, Note_on_c, 2, 61, 100
1, 68400, Note_on_c, 4, 85, 127
1, 68400, Note_on_c, 7, 73, 78
1, 68400, Note_on_c, 9, 42, 100
1, 68400, Note_on_c, 9, 82, 80
1, 68400, Note_on_c, 13, 85, 127
1, 68440, Note_on_c, 9, 82, 0
1, 68456, Note_on_c, 7, 73, 0
1, 68516, Note_on_c, 9, 42, 0
1, 68516, Note_on_c, 9, 70, 0
1, 68520, Note_on_c, 7, 81, 125
1, 68520, Note_on_c, 9, 42, 100
1, 68636, Note_on_c, 9, 42, 0
1, 68636, Note_on_c, 7, 81, 0
1, 68636, Note_on_c, 13, 85, 0
1, 68636, Note_on_c, 4, 85, 0
1, 68636, Note_on_c, 2, 61, 0
1, 68636, Note_on_c, 2, 57, 0
1, 68636, Note_on_c, 2, 52, 0
1, 68636, Note_on_c, 1, 33, 0
1, 68636, Note_on_c, 0, 61, 0
1, 68636, Note_on_c, 0, 57, 0
1, 68636, Note_on_c, 0, 52, 0
1, 68640, Note_on_c, 0, 52, 100
1, 68640, Note_on_c, 0, 57, 100
1, 68640, Note_on_c, 0, 61, 100
1, 68640, Note_on_c, 2, 52, 100
1, 68640, Note_on_c, 2, 57, 100
1, 68640, Note_on_c, 2, 61, 100
1, 68640, Note_on_c, 4, 83, 119
1, 68640, Note_on_c, 7, 73, 84
1, 68640, Note_on_c, 9, 32, 100
1, 68640, Note_on_c, 9, 36, 127
1, 68640, Note_on_c, 9, 37, 127
1, 68640, Note_on_c, 9, 42, 100
1, 68640, Note_on_c, 13, 83, 119
1, 68700, Note_on_c, 7, 73, 0
1, 68756, Note_on_c, 9, 42, 0
1, 68760, Note_on_c, 7, 68, 73
1, 68876, Note_on_c, 7, 68, 0
1, 68876, Note_on_c, 13, 83, 0
1, 68876, Note_on_c, 9, 37, 0
1, 68876, Note_on_c, 9, 36, 0
1, 68876, Note_on_c, 9, 32, 0
1, 68876, Note_on_c, 4, 83, 0
1, 68876, Note_on_c, 2, 61, 0
1, 68876, Note_on_c, 2, 57, 0
1, 68876, Note_on_c, 2, 52, 0
1, 68876, Note_on_c, 0, 61, 0
1, 68876, Note_on_c, 0, 57, 0
1, 68876, Note_on_c, 0, 52, 0
1, 68876, Note_on_c, 10, 84, 0
1, 68880, Note_on_c, 0, 52, 100
1, 68880, Note_on_c, 0, 57, 100
1, 68880, Note_on_c, 0, 61, 100
1, 68880, Note_on_c, 1, 33, 100
1, 68880, Note_on_c, 2, 52, 100
1, 68880, Note_on_c, 2, 57, 100
1, 68880, Note_on_c, 2, 61, 100
1, 68880, Note_on_c, 4, 80, 125
1, 68880, Note_on_c, 7, 73, 119
1, 68880, Note_on_c, 9, 42, 100
1, 68880, Note_on_c, 9, 82, 80
1, 68880, Note_on_c, 13, 80, 125
1, 68920, Note_on_c, 9, 82, 0
1, 68940, Note_on_c, 7, 73, 0
1, 68996, Note_on_c, 9, 42, 0
1, 69000, Note_on_c, 7, 64, 109
1, 69000, Note_on_c, 9, 42, 100
1, 69060, Note_on_c, 7, 64, 0
1, 69116, Note_on_c, 9, 42, 0
1, 69116, Note_on_c, 13, 80, 0
1, 69116, Note_on_c, 4, 80, 0
1, 69116, Note_on_c, 2, 61, 0
1, 69116, Note_on_c, 2, 57, 0
1, 69116, Note_on_c, 2, 52, 0
1, 69116, Note_on_c, 1, 33, 0
1, 69116, Note_on_c, 0, 61, 0
1, 69116, Note_on_c, 0, 57, 0
1, 69116, Note_on_c, 0, 52, 0
1, 69116, Note_on_c, 6, 85, 0
1, 69120, Note_on_c, 0, 56, 100
1, 69120, Note_on_c, 0, 61, 100
1, 69120, Note_on_c, 0, 66, 100
1, 69120, Note_on_c, 2, 56, 100
1, 69120, Note_on_c, 2, 61, 100
1, 69120, Note_on_c, 2, 66, 100
1, 69120, Note_on_c, 4, 78, 127
1, 69120, Note_on_c, 6, 76, 118
1, 69120, Note_on_c, 7, 61, 106
1, 69120, Note_on_c, 9, 32, 100
1, 69120, Note_on_c, 9, 36, 127
1, 69120, Note_on_c, 9, 42, 100
1, 69120, Note_on_c, 13, 78, 127
1, 69180, Note_on_c, 7, 61, 0
1, 69236, Note_on_c, 9, 42, 0
1, 69240, Note_on_c, 7, 49, 92
1, 69296, Note_on_c, 7, 49, 0
1, 69356, Note_on_c, 13, 78, 0
1, 69356, Note_on_c, 9, 36, 0
1, 69356, Note_on_c, 9, 32, 0
1, 69356, Note_on_c, 4, 78, 0
1, 69356, Note_on_c, 2, 66, 0
1, 69356, Note_on_c, 2, 61, 0
1, 69356, Note_on_c, 2, 56, 0
1, 69356, Note_on_c, 0, 66, 0
1, 69356, Note_on_c, 0, 61, 0
1, 69356, Note_on_c, 0, 56, 0
1, 69360, Note_on_c, 0, 56, 100
1, 69360, Note_on_c, 0, 61, 100
1, 69360, Note_on_c, 0, 64, 100
1, 69360, Note_on_c, 1, 37, 100
1, 69360, Note_on_c, 2, 56, 100
1, 69360, Note_on_c, 2, 61, 100
1, 69360, Note_on_c, 2, 64, 100
1, 69360, Note_on_c, 4, 76, 101
1, 69360, Note_on_c, 7, 61, 106
1, 69360, Note_on_c, 9, 42, 100
1, 69360, Note_on_c, 9, 82, 80
1, 69360, Note_on_c, 13, 76, 101
1, 69408, Note_on_c, 9, 82, 0
1, 69420, Note_on_c, 7, 61, 0
1, 69476, Note_on_c, 9, 42, 0
1, 69480, Note_on_c, 7, 68, 127
1, 69480, Note_on_c, 9, 42, 100
1, 69536, Note_on_c, 7, 68, 0
1, 69596, Note_on_c, 9, 42, 0
1, 69596, Note_on_c, 13, 76, 0
1, 69596, Note_on_c, 4, 76, 0
1, 69596, Note_on_c, 2, 64, 0
1, 69596, Note_on_c, 2, 61, 0
1, 69596, Note_on_c, 2, 56, 0
1, 69596, Note_on_c, 1, 37, 0
1, 69596, Note_on_c, 0, 64, 0
1, 69596, Note_on_c, 0, 61, 0
1, 69596, Note_on_c, 0, 56, 0
1, 69600, Note_on_c, 0, 56, 100
1, 69600, Note_on_c, 0, 61, 100
1, 69600, Note_on_c, 0, 64, 100
1, 69600, Note_on_c, 2, 56, 100
1, 69600, Note_on_c, 2, 61, 100
1, 69600, Note_on_c, 2, 64, 100
1, 69600, Note_on_c, 4, 76, 116
1, 69600, Note_on_c, 7, 56, 92
1, 69600, Note_on_c, 9, 32, 100
1, 69600, Note_on_c, 9, 36, 127
1, 69600, Note_on_c, 9, 37, 127
1, 69600, Note_on_c, 9, 42, 100
1, 69600, Note_on_c, 13, 76, 116
1, 69656, Note_on_c, 7, 56, 0
1, 69716, Note_on_c, 9, 42, 0
1, 69720, Note_on_c, 7, 61, 109
1, 69780, Note_on_c, 7, 61, 0
1, 69836, Note_on_c, 13, 76, 0
1, 69836, Note_on_c, 9, 37, 0
1, 69836, Note_on_c, 9, 36, 0
1, 69836, Note_on_c, 9, 32, 0
1, 69836, Note_on_c, 4, 76, 0
1, 69836, Note_on_c, 2, 64, 0
1, 69836, Note_on_c, 2, 61, 0
1, 69836, Note_on_c, 2, 56, 0
1, 69836, Note_on_c, 0, 64, 0
1, 69836, Note_on_c, 0, 61, 0
1, 69836, Note_on_c, 0, 56, 0
1, 69840, Note_on_c, 7, 68, 127
1, 69840, Note_on_c, 9, 42, 100
1, 69840, Note_on_c, 9, 82, 80
1, 69892, Note_on_c, 9, 82, 0
1, 69900, Note_on_c, 7, 68, 0
1, 69956, Note_on_c, 9, 42, 0
1, 69960, Note_on_c, 7, 73, 100
1, 69960, Note_on_c, 9, 42, 100
1, 70076, Note_on_c, 9, 42, 0
1, 70076, Note_on_c, 7, 73, 0
1, 70080, Note_on_c, 0, 56, 100
1, 70080, Note_on_c, 0, 59, 100
1, 70080, Note_on_c, 0, 64, 100
1, 70080, Note_on_c, 2, 56, 100
1, 70080, Note_on_c, 2, 59, 100
1, 70080, Note_on_c, 2, 64, 100
1, 70080, Note_on_c, 4, 76, 119
1, 70080, Note_on_c, 7, 73, 127
1, 70080, Note_on_c, 9, 32, 100
1, 70080, Note_on_c, 9, 36, 127
1, 70080, Note_on_c, 9, 42, 100
1, 70080, Note_on_c, 13, 76, 119
1, 70136, Note_on_c, 7, 73, 0
1, 70196, Note_on_c, 9, 42, 0
1, 70200, Note_on_c, 7, 68, 59
1, 70256, Note_on_c, 7, 68, 0
1, 70316, Note_on_c, 13, 76, 0
1, 70316, Note_on_c, 9, 36, 0
1, 70316, Note_on_c, 9, 32, 0
1, 70316, Note_on_c, 4, 76, 0
1, 70316, Note_on_c, 2, 64, 0
1, 70316, Note_on_c, 2, 59, 0
1, 70316, Note_on_c, 2, 56, 0
1, 70316, Note_on_c, 0, 64, 0
1, 70316, Note_on_c, 0, 59, 0
1, 70316, Note_on_c, 0, 56, 0
1, 70320, Note_on_c, 0, 56, 100
1, 70320, Note_on_c, 0, 59, 100
1, 70320, Note_on_c, 0, 64, 100
1, 70320, Note_on_c, 1, 40, 100
1, 70320, Note_on_c, 2, 56, 100
1, 70320, Note_on_c, 2, 59, 100
1, 70320, Note_on_c, 2, 64, 100
1, 70320, Note_on_c, 4, 76, 111
1, 70320, Note_on_c, 7, 73, 78
1, 70320, Note_on_c, 9, 42, 100
1, 70320, Note_on_c, 9, 82, 80
1, 70320, Note_on_c, 13, 76, 111
1, 70368, Note_on_c, 9, 82, 0
1, 70376, Note_on_c, 7, 73, 0
1, 70436, Note_on_c, 9, 42, 0
1, 70440, Note_on_c, 7, 81, 125
1, 70440, Note_on_c, 9, 42, 100
1, 70556, Note_on_c, 9, 42, 0
1, 70556, Note_on_c, 7, 81, 0
1, 70556, Note_on_c, 13, 76, 0
1, 70556, Note_on_c, 4, 76, 0
1, 70556, Note_on_c, 2, 64, 0
1, 70556, Note_on_c, 2, 59, 0
1, 70556, Note_on_c, 2, 56, 0
1, 70556, Note_on_c, 1, 40, 0
1, 70556, Note_on_c, 0, 64, 0
1, 70556, Note_on_c, 0, 59, 0
1, 70556, Note_on_c, 0, 56, 0
1, 70560, Note_on_c, 0, 56, 100
1, 70560, Note_on_c, 0, 59, 100
1, 70560, Note_on_c, 0, 64, 100
1, 70560, Note_on_c, 2, 56, 100
1, 70560, Note_on_c, 2, 59, 100
1, 70560, Note_on_c, 2, 64, 100
1, 70560, Note_on_c, 4, 76, 109
1, 70560, Note_on_c, 7, 73, 84
1, 70560, Note_on_c, 9, 32, 100
1, 70560, Note_on_c, 9, 36, 127
1, 70560, Note_on_c, 9, 37, 127
1, 70560, Note_on_c, 9, 42, 100
1, 70560, Note_on_c, 13, 76, 109
1, 70620, Note_on_c, 7, 73, 0
1, 70676, Note_on_c, 9, 42, 0
1, 70680, Note_on_c, 7, 68, 73
1, 70796, Note_on_c, 7, 68, 0
1, 70796, Note_on_c, 13, 76, 0
1, 70796, Note_on_c, 9, 37, 0
1, 70796, Note_on_c, 9, 36, 0
1, 70796, Note_on_c, 9, 32, 0
1, 70796, Note_on_c, 4, 76, 0
1, 70796, Note_on_c, 2, 64, 0
1, 70796, Note_on_c, 2, 59, 0
1, 70796, Note_on_c, 2, 56, 0
1, 70796, Note_on_c, 0, 64, 0
1, 70796, Note_on_c, 0, 59, 0
1, 70796, Note_on_c, 0, 56, 0
1, 70800, Note_on_c, 0, 56, 100
1, 70800, Note_on_c, 0, 59, 100
1, 70800, Note_on_c, 0, 64, 100
1, 70800, Note_on_c, 1, 40, 100
1, 70800, Note_on_c, 2, 56, 100
1, 70800, Note_on_c, 2, 59, 100
1, 70800, Note_on_c, 2, 64, 100
1, 70800, Note_on_c, 4, 76, 87
1, 70800, Note_on_c, 7, 73, 119
1, 70800, Note_on_c, 9, 42, 100
1, 70800, Note_on_c, 9, 82, 80
1, 70800, Note_on_c, 13, 76, 87
1, 70840, Note_on_c, 9, 82, 0
1, 70860, Note_on_c, 7, 73, 0
1, 70916, Note_on_c, 9, 42, 0
1, 70920, Note_on_c, 7, 64, 109
1, 70920, Note_on_c, 9, 42, 100
1, 70980, Note_on_c, 7, 64, 0
1, 71036, Note_on_c, 9, 42, 0
1, 71036, Note_on_c, 13, 76, 0
1, 71036, Note_on_c, 4, 76, 0
1, 71036, Note_on_c, 2, 64, 0
1, 71036, Note_on_c, 2, 59, 0
1, 71036, Note_on_c, 2, 56, 0
1, 71036, Note_on_c, 1, 40, 0
1, 71036, Note_on_c, 0, 64, 0
1, 71036, Note_on_c, 0, 59, 0
1, 71036, Note_on_c, 0, 56, 0
1, 71036, Note_on_c, 6, 76, 0
1, 71040, Note_on_c, 0, 54, 100
1, 71040, Note_on_c, 0, 59, 100
1, 71040, Note_on_c, 0, 63, 100
1, 71040, Note_on_c, 2, 54, 100
1, 71040, Note_on_c, 2, 59, 100
1, 71040, Note_on_c, 2, 63, 100
1, 71040, Note_on_c, 4, 73, 127
1, 71040, Note_on_c, 6, 85, 127
1, 71040, Note_on_c, 7, 61, 106
1, 71040, Note_on_c, 9, 32, 100
1, 71040, Note_on_c, 9, 36, 127
1, 71040, Note_on_c, 9, 42, 100
1, 71040, Note_on_c, 13, 73, 127
1, 71100, Note_on_c, 7, 61, 0
1, 71156, Note_on_c, 9, 42, 0
1, 71160, Note_on_c, 7, 49, 92
1, 71216, Note_on_c, 7, 49, 0
1, 71276, Note_on_c, 13, 73, 0
1, 71276, Note_on_c, 9, 36, 0
1, 71276, Note_on_c, 9, 32, 0
1, 71276, Note_on_c, 4, 73, 0
1, 71276, Note_on_c, 2, 63, 0
1, 71276, Note_on_c, 2, 59, 0
1, 71276, Note_on_c, 2, 54, 0
1, 71276, Note_on_c, 0, 63, 0
1, 71276, Note_on_c, 0, 59, 0
1, 71276, Note_on_c, 0, 54, 0
1, 71280, Note_on_c, 0, 54, 100
1, 71280, Note_on_c, 0, 59, 100
1, 71280, Note_on_c, 0, 63, 100
1, 71280, Note_on_c, 1, 35, 100
1, 71280, Note_on_c, 2, 54, 100
1, 71280, Note_on_c, 2, 59, 100
1, 71280, Note_on_c, 2, 63, 100
1, 71280, Note_on_c, 4, 73, 127
1, 71280, Note_on_c, 7, 61, 106
1, 71280, Note_on_c, 9, 42, 100
1, 71280, Note_on_c, 9, 82, 80
1, 71280, Note_on_c, 13, 73, 127
1, 71324, Note_on_c, 9, 82, 0
1, 71340, Note_on_c, 7, 61, 0
1, 71396, Note_on_c, 9, 42, 0
1, 71400, Note_on_c, 7, 68, 127
1, 71400, Note_on_c, 9, 42, 100
1, 71456, Note_on_c, 7, 68, 0
1, 71516, Note_on_c, 9, 42, 0
1, 71516, Note_on_c, 13, 73, 0
1, 71516, Note_on_c, 4, 73, 0
1, 71516, Note_on_c, 2, 63, 0
1, 71516, Note_on_c, 2, 59, 0
1, 71516, Note_on_c, 2, 54, 0
1, 71516, Note_on_c, 1, 35, 0
1, 71516, Note_on_c, 0, 63, 0
1, 71516, Note_on_c, 0, 59, 0
1, 71516, Note_on_c, 0, 54, 0
1, 71520, Note_on_c, 0, 54, 100
1, 71520, Note_on_c, 0, 59, 100
1, 71520, Note_on_c, 0, 63, 100
1, 71520, Note_on_c, 2, 54, 100
1, 71520, Note_on_c, 2, 59, 100
1, 71520, Note_on_c, 2, 63, 100
1, 71520, Note_on_c, 4, 71, 113
1, 71520, Note_on_c, 7, 56, 92
1, 71520, Note_on_c, 9, 32, 100
1, 71520, Note_on_c, 9, 36, 127
1, 71520, Note_on_c, 9, 37, 127
1, 71520, Note_on_c, 9, 42, 100
1, 71520, Note_on_c, 13, 71, 113
1, 71576, Note_on_c, 7, 56, 0
1, 71636, Note_on_c, 9, 42, 0
1, 71640, Note_on_c, 7, 61, 109
1, 71700, Note_on_c, 7, 61, 0
1, 71756, Note_on_c, 13, 71, 0
1, 71756, Note_on_c, 9, 37, 0
1, 71756, Note_on_c, 9, 36, 0
1, 71756, Note_on_c, 9, 32, 0
1, 71756, Note_on_c, 4, 71, 0
1, 71756, Note_on_c, 2, 63, 0
1, 71756, Note_on_c, 2, 59, 0
1, 71756, Note_on_c, 2, 54, 0
1, 71756, Note_on_c, 0, 63, 0
1, 71756, Note_on_c, 0, 59, 0
1, 71756, Note_on_c, 0, 54, 0
1, 71760, Note_on_c, 0, 52, 100
1, 71760, Note_on_c, 0, 57, 100
1, 71760, Note_on_c, 0, 61, 100
1, 71760, Note_on_c, 1, 33, 100
1, 71760, Note_on_c, 2, 52, 100
1, 71760, Note_on_c, 2, 57, 100
1, 71760, Note_on_c, 2, 61, 100
1, 71760, Note_on_c, 4, 71, 122
1, 71760, Note_on_c, 7, 68, 127
1, 71760, Note_on_c, 9, 29, 100
1, 71760, Note_on_c, 9, 42, 100
1, 71760, Note_on_c, 9, 82, 80
1, 71760, Note_on_c, 13, 71, 122
1, 71800, Note_on_c, 9, 82, 0
1, 71820, Note_on_c, 7, 68, 0
1, 71876, Note_on_c, 9, 42, 0
1, 71880, Note_on_c, 7, 73, 100
1, 71880, Note_on_c, 9, 42, 100
1, 71996, Note_on_c, 9, 42, 0
1, 71996, Note_on_c, 7, 73, 0
1, 71996, Note_on_c, 13, 71, 0
1, 71996, Note_on_c, 9, 29, 0
1, 71996, Note_on_c, 4, 71, 0
1, 71996, Note_on_c, 2, 61, 0
1, 71996, Note_on_c, 2, 57, 0
1, 71996, Note_on_c, 2, 52, 0
1, 71996, Note_on_c, 1, 33, 0
1, 71996, Note_on_c, 0, 61, 0
1, 71996, Note_on_c, 0, 57, 0
1, 71996, Note_on_c, 0, 52, 0
1, 72000, Note_on_c, 7, 73, 127
1, 72000, Note_on_c, 8, 72, 127
1, 72000, Note_on_c, 9, 32, 100
1, 72000, Note_on_c, 9, 36, 127
1, 72000, Note_on_c, 9, 42, 100
1, 72056, Note_on_c, 7, 73, 0
1, 72116, Note_on_c, 9, 42, 0
1, 72120, Note_on_c, 7, 68, 59
1, 72120, Note_on_c, 9, 70, 80
1, 72176, Note_on_c, 7, 68, 0
1, 72236, Note_on_c, 9, 36, 0
1, 72236, Note_on_c, 9, 32, 0
1, 72240, Note_on_c, 0, 52, 100
1, 72240, Note_on_c, 0, 57, 100
1, 72240, Note_on_c, 0, 61, 100
1, 72240, Note_on_c, 1, 33, 100
1, 72240, Note_on_c, 2, 52, 100
1, 72240, Note_on_c, 2, 57, 100
1, 72240, Note_on_c, 2, 61, 100
1, 72240, Note_on_c, 4, 85, 127
1, 72240, Note_on_c, 7, 73, 78
1, 72240, Note_on_c, 9, 42, 100
1, 72240, Note_on_c, 9, 82, 80
1, 72240, Note_on_c, 13, 85, 127
1, 72280, Note_on_c, 9, 82, 0
1, 72296, Note_on_c, 7, 73, 0
1, 72356, Note_on_c, 9, 42, 0
1, 72356, Note_on_c, 9, 70, 0
1, 72360, Note_on_c, 7, 81, 125
1, 72360, Note_on_c, 9, 42, 100
1, 72476, Note_on_c, 9, 42, 0
1, 72476, Note_on_c, 7, 81, 0
1, 72476, Note_on_c, 13, 85, 0
1, 72476, Note_on_c, 4, 85, 0
1, 72476, Note_on_c, 2, 61, 0
1, 72476, Note_on_c, 2, 57, 0
1, 72476, Note_on_c, 2, 52, 0
1, 72476, Note_on_c, 1, 33, 0
1, 72476, Note_on_c, 0, 61, 0
1, 72476, Note_on_c, 0, 57, 0
1, 72476, Note_on_c, 0, 52, 0
1, 72480, Note_on_c, 0, 52, 100
1, 72480, Note_on_c, 0, 57, 100
1, 72480, Note_on_c, 0, 61, 100
1, 72480, Note_on_c, 2, 52, 100
1, 72480, Note_on_c, 2, 57, 100
1, 72480, Note_on_c, 2, 61, 100
1, 72480, Note_on_c, 4, 83, 119
1, 72480, Note_on_c, 7, 73, 84
1, 72480, Note_on_c, 9, 32, 100
1, 72480, Note_on_c, 9, 36, 127
1, 72480, Note_on_c, 9, 37, 127
1, 72480, Note_on_c, 9, 42, 100
1, 72480, Note_on_c, 13, 83, 119
1, 72540, Note_on_c, 7, 73, 0
1, 72596, Note_on_c, 9, 42, 0
1, 72600, Note_on_c, 7, 68, 73
1, 72716, Note_on_c, 7, 68, 0
1, 72716, Note_on_c, 13, 83, 0
1, 72716, Note_on_c, 9, 37, 0
1, 72716, Note_on_c, 9, 36, 0
1, 72716, Note_on_c, 9, 32, 0
1, 72716, Note_on_c, 4, 83, 0
1, 72716, Note_on_c, 2, 61, 0
1, 72716, Note_on_c, 2, 57, 0
1, 72716, Note_on_c, 2, 52, 0
1, 72716, Note_on_c, 0, 61, 0
1, 72716, Note_on_c, 0, 57, 0
1, 72716, Note_on_c, 0, 52, 0
1, 72720, Note_on_c, 0, 52, 100
1, 72720, Note_on_c, 0, 57, 100
1, 72720, Note_on_c, 0, 61, 100
1, 72720, Note_on_c, 1, 33, 100
1, 72720, Note_on_c, 2, 52, 100
1, 72720, Note_on_c, 2, 57, 100
1, 72720, Note_on_c, 2, 61, 100
1, 72720, Note_on_c, 4, 80, 127
1, 72720, Note_on_c, 7, 73, 119
1, 72720, Note_on_c, 9, 42, 100
1, 72720, Note_on_c, 9, 82, 80
1, 72720, Note_on_c, 13, 80, 127
1, 72760, Note_on_c, 9, 82, 0
1, 72780, Note_on_c, 7, 73, 0
1, 72836, Note_on_c, 9, 42, 0
1, 72840, Note_on_c, 7, 64, 109
1, 72840, Note_on_c, 9, 42, 100
1, 72900, Note_on_c, 7, 64, 0
1, 72956, Note_on_c, 9, 42, 0
1, 72956, Note_on_c, 13, 80, 0
1, 72956, Note_on_c, 4, 80, 0
1, 72956, Note_on_c, 2, 61, 0
1, 72956, Note_on_c, 2, 57, 0
1, 72956, Note_on_c, 2, 52, 0
1, 72956, Note_on_c, 1, 33, 0
1, 72956, Note_on_c, 0, 61, 0
1, 72956, Note_on_c, 0, 57, 0
1, 72956, Note_on_c, 0, 52, 0
1, 72956, Note_on_c, 8, 72, 0
1, 72956, Note_on_c, 6, 85, 0
1, 72960, Note_on_c, 0, 56, 100
1, 72960, Note_on_c, 0, 61, 100
1, 72960, Note_on_c, 0, 66, 100
1, 72960, Note_on_c, 2, 56, 100
1, 72960, Note_on_c, 2, 61, 100
1, 72960, Note_on_c, 2, 66, 100
1, 72960, Note_on_c, 4, 78, 127
1, 72960, Note_on_c, 6, 76, 127
1, 72960, Note_on_c, 7, 61, 106
1, 72960, Note_on_c, 9, 32, 100
1, 72960, Note_on_c, 13, 78, 127
1, 72960, Note_on_c, 15, 48, 127
1, 73020, Note_on_c, 7, 61, 0
1, 73080, Note_on_c, 7, 49, 92
1, 73136, Note_on_c, 7, 49, 0
1, 73196, Note_on_c, 13, 78, 0
1, 73196, Note_on_c, 9, 32, 0
1, 73196, Note_on_c, 4, 78, 0
1, 73196, Note_on_c, 2, 66, 0
1, 73196, Note_on_c, 2, 61, 0
1, 73196, Note_on_c, 2, 56, 0
1, 73196, Note_on_c, 0, 66, 0
1, 73196, Note_on_c, 0, 61, 0
1, 73196, Note_on_c, 0, 56, 0
1, 73200, Note_on_c, 0, 56, 100
1, 73200, Note_on_c, 0, 61, 100
1, 73200, Note_on_c, 0, 64, 100
1, 73200, Note_on_c, 2, 56, 100
1, 73200, Note_on_c, 2, 61, 100
1, 73200, Note_on_c, 2, 64, 100
1, 73200, Note_on_c, 4, 76, 118
1, 73200, Note_on_c, 7, 61, 106
1, 73200, Note_on_c, 13, 76, 118
1, 73260, Note_on_c, 7, 61, 0
1, 73320, Note_on_c, 7, 68, 127
1, 73376, Note_on_c, 7, 68, 0
1, 73436, Note_on_c, 13, 76, 0
1, 73436, Note_on_c, 4, 76, 0
1, 73436, Note_on_c, 2, 64, 0
1, 73436, Note_on_c, 2, 61, 0
1, 73436, Note_on_c, 2, 56, 0
1, 73436, Note_on_c, 0, 64, 0
1, 73436, Note_on_c, 0, 61, 0
1, 73436, Note_on_c, 0, 56, 0
1, 73440, Note_on_c, 0, 56, 100
1, 73440, Note_on_c, 0, 61, 100
1, 73440, Note_on_c, 0, 64, 100
1, 73440, Note_on_c, 2, 56, 100
1, 73440, Note_on_c, 2, 61, 100
1, 73440, Note_on_c, 2, 64, 100
1, 73440, Note_on_c, 4, 76, 119
1, 73440, Note_on_c, 7, 56, 92
1, 73440, Note_on_c, 9, 32, 100
1, 73440, Note_on_c, 9, 37, 100
1, 73440, Note_on_c, 13, 76, 119
1, 73496, Note_on_c, 7, 56, 0
1, 73556, Note_on_c, 9, 37, 0
1, 73560, Note_on_c, 7, 61, 109
1, 73620, Note_on_c, 7, 61, 0
1, 73676, Note_on_c, 13, 76, 0
1, 73676, Note_on_c, 9, 32, 0
1, 73676, Note_on_c, 4, 76, 0
1, 73676, Note_on_c, 2, 64, 0
1, 73676, Note_on_c, 2, 61, 0
1, 73676, Note_on_c, 2, 56, 0
1, 73676, Note_on_c, 0, 64, 0
1, 73676, Note_on_c, 0, 61, 0
1, 73676, Note_on_c, 0, 56, 0
1, 73680, Note_on_c, 7, 68, 127
1, 73740, Note_on_c, 7, 68, 0
1, 73800, Note_on_c, 7, 73, 100
1, 73916, Note_on_c, 7, 73, 0
1, 73920, Note_on_c, 0, 56, 100
1, 73920, Note_on_c, 0, 59, 100
1, 73920, Note_on_c, 0, 64, 100
1, 73920, Note_on_c, 2, 56, 100
1, 73920, Note_on_c, 2, 59, 100
1, 73920, Note_on_c, 2, 64, 100
1, 73920, Note_on_c, 4, 76, 125
1, 73920, Note_on_c, 7, 73, 127
1, 73920, Note_on_c, 9, 32, 100
1, 73920, Note_on_c, 13, 76, 125
1, 73976, Note_on_c, 7, 73, 0
1, 74040, Note_on_c, 7, 68, 59
1, 74096, Note_on_c, 7, 68, 0
1, 74156, Note_on_c, 13, 76, 0
1, 74156, Note_on_c, 9, 32, 0
1, 74156, Note_on_c, 4, 76, 0
1, 74156, Note_on_c, 2, 64, 0
1, 74156, Note_on_c, 2, 59, 0
1, 74156, Note_on_c, 2, 56, 0
1, 74156, Note_on_c, 0, 64, 0
1, 74156, Note_on_c, 0, 59, 0
1, 74156, Note_on_c, 0, 56, 0
1, 74160, Note_on_c, 0, 56, 100
1, 74160, Note_on_c, 0, 59, 100
1, 74160, Note_on_c, 0, 64, 100
1, 74160, Note_on_c, 2, 56, 100
1, 74160, Note_on_c, 2, 59, 100
1, 74160, Note_on_c, 2, 64, 100
1, 74160, Note_on_c, 4, 76, 119
1, 74160, Note_on_c, 7, 73, 78
1, 74160, Note_on_c, 13, 76, 119
1, 74216, Note_on_c, 7, 73, 0
1, 74280, Note_on_c, 7, 81, 125
1, 74396, Note_on_c, 7, 81, 0
1, 74396, Note_on_c, 13, 76, 0
1, 74396, Note_on_c, 4, 76, 0
1, 74396, Note_on_c, 2, 64, 0
1, 74396, Note_on_c, 2, 59, 0
1, 74396, Note_on_c, 2, 56, 0
1, 74396, Note_on_c, 0, 64, 0
1, 74396, Note_on_c, 0, 59, 0
1, 74396, Note_on_c, 0, 56, 0
1, 74400, Note_on_c, 0, 56, 100
1, 74400, Note_on_c, 0, 59, 100
1, 74400, Note_on_c, 0, 64, 100
1, 74400, Note_on_c, 2, 56, 100
1, 74400, Note_on_c, 2, 59, 100
1, 74400, Note_on_c, 2, 64, 100
1, 74400, Note_on_c, 4, 76, 118
1, 74400, Note_on_c, 7, 73, 84
1, 74400, Note_on_c, 9, 32, 100
1, 74400, Note_on_c, 9, 37, 100
1, 74400, Note_on_c, 13, 76, 118
1, 74460, Note_on_c, 7, 73, 0
1, 74516, Note_on_c, 9, 37, 0
1, 74520, Note_on_c, 7, 68, 73
1, 74636, Note_on_c, 7, 68, 0
1, 74636, Note_on_c, 13, 76, 0
1, 74636, Note_on_c, 9, 32, 0
1, 74636, Note_on_c, 4, 76, 0
1, 74636, Note_on_c, 2, 64, 0
1, 74636, Note_on_c, 2, 59, 0
1, 74636, Note_on_c, 2, 56, 0
1, 74636, Note_on_c, 0, 64, 0
1, 74636, Note_on_c, 0, 59, 0
1, 74636, Note_on_c, 0, 56, 0
1, 74640, Note_on_c, 0, 56, 100
1, 74640, Note_on_c, 0, 59, 100
1, 74640, Note_on_c, 0, 64, 100
1, 74640, Note_on_c, 2, 56, 100
1, 74640, Note_on_c, 2, 59, 100
1, 74640, Note_on_c, 2, 64, 100
1, 74640, Note_on_c, 4, 76, 116
1, 74640, Note_on_c, 7, 73, 119
1, 74640, Note_on_c, 13, 76, 116
1, 74700, Note_on_c, 7, 73, 0
1, 74760, Note_on_c, 7, 64, 109
1, 74820, Note_on_c, 7, 64, 0
1, 74876, Note_on_c, 13, 76, 0
1, 74876, Note_on_c, 4, 76, 0
1, 74876, Note_on_c, 2, 64, 0
1, 74876, Note_on_c, 2, 59, 0
1, 74876, Note_on_c, 2, 56, 0
1, 74876, Note_on_c, 0, 64, 0
1, 74876, Note_on_c, 0, 59, 0
1, 74876, Note_on_c, 0, 56, 0
1, 74876, Note_on_c, 15, 48, 0
1, 74876, Note_on_c, 6, 76, 0
1, 74880, Note_on_c, 0, 54, 100
1, 74880, Note_on_c, 0, 59, 100
1, 74880, Note_on_c, 0, 63, 100
1, 74880, Note_on_c, 2, 54, 100
1, 74880, Note_on_c, 2, 59, 100
1, 74880, Note_on_c, 2, 63, 100
1, 74880, Note_on_c, 4, 75, 119
1, 74880, Note_on_c, 6, 85, 127
1, 74880, Note_on_c, 7, 61, 106
1, 74880, Note_on_c, 9, 32, 100
1, 74880, Note_on_c, 13, 75, 119
1, 74940, Note_on_c, 7, 61, 0
1, 75000, Note_on_c, 7, 49, 92
1, 75056, Note_on_c, 7, 49, 0
1, 75116, Note_on_c, 13, 75, 0
1, 75116, Note_on_c, 9, 32, 0
1, 75116, Note_on_c, 4, 75, 0
1, 75116, Note_on_c, 2, 63, 0
1, 75116, Note_on_c, 2, 59, 0
1, 75116, Note_on_c, 2, 54, 0
1, 75116, Note_on_c, 0, 63, 0
1, 75116, Note_on_c, 0, 59, 0
1, 75116, Note_on_c, 0, 54, 0
1, 75120, Note_on_c, 0, 54, 100
1, 75120, Note_on_c, 0, 59, 100
1, 75120, Note_on_c, 0, 63, 100
1, 75120, Note_on_c, 2, 54, 100
1, 75120, Note_on_c, 2, 59, 100
1, 75120, Note_on_c, 2, 63, 100
1, 75120, Note_on_c, 4, 75, 119
1, 75120, Note_on_c, 7, 61, 106
1, 75120, Note_on_c, 13, 75, 119
1, 75180, Note_on_c, 7, 61, 0
1, 75240, Note_on_c, 7, 68, 127
1, 75296, Note_on_c, 7, 68, 0
1, 75356, Note_on_c, 13, 75, 0
1, 75356, Note_on_c, 4, 75, 0
1, 75356, Note_on_c, 2, 63, 0
1, 75356, Note_on_c, 2, 59, 0
1, 75356, Note_on_c, 2, 54, 0
1, 75356, Note_on_c, 0, 63, 0
1, 75356, Note_on_c, 0, 59, 0
1, 75356, Note_on_c, 0, 54, 0
1, 75360, Note_on_c, 0, 54, 100
1, 75360, Note_on_c, 0, 59, 100
1, 75360, Note_on_c, 0, 63, 100
1, 75360, Note_on_c, 2, 54, 100
1, 75360, Note_on_c, 2, 59, 100
1, 75360, Note_on_c, 2, 63, 100
1, 75360, Note_on_c, 4, 76, 113
1, 75360, Note_on_c, 7, 56, 92
1, 75360, Note_on_c, 9, 32, 100
1, 75360, Note_on_c, 9, 37, 100
1, 75360, Note_on_c, 13, 76, 113
1, 75416, Note_on_c, 7, 56, 0
1, 75476, Note_on_c, 9, 37, 0
1, 75480, Note_on_c, 7, 61, 109
1, 75540, Note_on_c, 7, 61, 0
1, 75596, Note_on_c, 13, 76, 0
1, 75596, Note_on_c, 9, 32, 0
1, 75596, Note_on_c, 4, 76, 0
1, 75596, Note_on_c, 2, 63, 0
1, 75596, Note_on_c, 2, 59, 0
1, 75596, Note_on_c, 2, 54, 0
1, 75596, Note_on_c, 0, 63, 0
1, 75596, Note_on_c, 0, 59, 0
1, 75596, Note_on_c, 0, 54, 0
1, 75600, Note_on_c, 0, 52, 100
1, 75600, Note_on_c, 0, 57, 100
1, 75600, Note_on_c, 0, 61, 100
1, 75600, Note_on_c, 2, 52, 100
1, 75600, Note_on_c, 2, 57, 100
1, 75600, Note_on_c, 2, 61, 100
1, 75600, Note_on_c, 4, 76, 111
1, 75600, Note_on_c, 7, 68, 127
1, 75600, Note_on_c, 9, 29, 100
1, 75600, Note_on_c, 13, 76, 111
1, 75660, Note_on_c, 7, 68, 0
1, 75720, Note_on_c, 7, 73, 100
1, 75836, Note_on_c, 7, 73, 0
1, 75836, Note_on_c, 13, 76, 0
1, 75836, Note_on_c, 9, 29, 0
1, 75836, Note_on_c, 4, 76, 0
1, 75836, Note_on_c, 2, 61, 0
1, 75836, Note_on_c, 2, 57, 0
1, 75836, Note_on_c, 2, 52, 0
1, 75836, Note_on_c, 0, 61, 0
1, 75836, Note_on_c, 0, 57, 0
1, 75836, Note_on_c, 0, 52, 0
1, 75840, Note_on_c, 7, 73, 127
1, 75840, Note_on_c, 9, 32, 100
1, 75896, Note_on_c, 7, 73, 0
1, 75960, Note_on_c, 7, 68, 59
1, 76016, Note_on_c, 7, 68, 0
1, 76076, Note_on_c, 9, 32, 0
1, 76080, Note_on_c, 0, 52, 100
1, 76080, Note_on_c, 0, 57, 100
1, 76080, Note_on_c, 0, 61, 100
1, 76080, Note_on_c, 2, 52, 100
1, 76080, Note_on_c, 2, 57, 100
1, 76080, Note_on_c, 2, 61, 100
1, 76080, Note_on_c, 4, 85, 127
1, 76080, Note_on_c, 7, 73, 78
1, 76080, Note_on_c, 13, 85, 127
1, 76136, Note_on_c, 7, 73, 0
1, 76200, Note_on_c, 7, 81, 125
1, 76316, Note_on_c, 7, 81, 0
1, 76316, Note_on_c, 13, 85, 0
1, 76316, Note_on_c, 4, 85, 0
1, 76316, Note_on_c, 2, 61, 0
1, 76316, Note_on_c, 2, 57, 0
1, 76316, Note_on_c, 2, 52, 0
1, 76316, Note_on_c, 0, 61, 0
1, 76316, Note_on_c, 0, 57, 0
1, 76316, Note_on_c, 0, 52, 0
1, 76320, Note_on_c, 0, 52, 100
1, 76320, Note_on_c, 0, 57, 100
1, 76320, Note_on_c, 0, 61, 100
1, 76320, Note_on_c, 2, 52, 100
1, 76320, Note_on_c, 2, 57, 100
1, 76320, Note_on_c, 2, 61, 100
1, 76320, Note_on_c, 4, 83, 119
1, 76320, Note_on_c, 7, 73, 84
1, 76320, Note_on_c, 9, 32, 100
1, 76320, Note_on_c, 9, 37, 100
1, 76320, Note_on_c, 13, 83, 119
1, 76380, Note_on_c, 7, 73, 0
1, 76436, Note_on_c, 9, 37, 0
1, 76440, Note_on_c, 7, 68, 73
1, 76556, Note_on_c, 7, 68, 0
1, 76556, Note_on_c, 13, 83, 0
1, 76556, Note_on_c, 9, 32, 0
1, 76556, Note_on_c, 4, 83, 0
1, 76556, Note_on_c, 2, 61, 0
1, 76556, Note_on_c, 2, 57, 0
1, 76556, Note_on_c, 2, 52, 0
1, 76556, Note_on_c, 0, 61, 0
1, 76556, Note_on_c, 0, 57, 0
1, 76556, Note_on_c, 0, 52, 0
1, 76560, Note_on_c, 0, 52, 100
1, 76560, Note_on_c, 0, 57, 100
1, 76560, Note_on_c, 0, 61, 100
1, 76560, Note_on_c, 2, 52, 100
1, 76560, Note_on_c, 2, 57, 100
1, 76560, Note_on_c, 2, 61, 100
1, 76560, Note_on_c, 4, 80, 125
1, 76560, Note_on_c, 7, 73, 119
1, 76560, Note_on_c, 13, 80, 125
1, 76620, Note_on_c, 7, 73, 0
1, 76680, Note_on_c, 7, 64, 109
1, 76740, Note_on_c, 7, 64, 0
1, 76796, Note_on_c, 13, 80, 0
1, 76796, Note_on_c, 4, 80, 0
1, 76796, Note_on_c, 2, 61, 0
1, 76796, Note_on_c, 2, 57, 0
1, 76796, Note_on_c, 2, 52, 0
1, 76796, Note_on_c, 0, 61, 0
1, 76796, Note_on_c, 0, 57, 0
1, 76796, Note_on_c, 0, 52, 0
1, 76796, Note_on_c, 6, 85, 0
1, 76800, Note_on_c, 0, 56, 100
1, 76800, Note_on_c, 0, 61, 100
1, 76800, Note_on_c, 0, 66, 100
1, 76800, Note_on_c, 2, 56, 100
1, 76800, Note_on_c, 2, 61, 100
1, 76800, Note_on_c, 2, 66, 100
1, 76800, Note_on_c, 4, 78, 127
1, 76800, Note_on_c, 6, 76, 118
1, 76800, Note_on_c, 7, 61, 106
1, 76800, Note_on_c, 9, 32, 100
1, 76800, Note_on_c, 10, 72, 127
1, 76800, Note_on_c, 13, 78, 127
1, 76860, Note_on_c, 7, 61, 0
1, 76920, Note_on_c, 7, 49, 92
1, 76976, Note_on_c, 7, 49, 0
1, 77036, Note_on_c, 13, 78, 0
1, 77036, Note_on_c, 9, 32, 0
1, 77036, Note_on_c, 4, 78, 0
1, 77036, Note_on_c, 2, 66, 0
1, 77036, Note_on_c, 2, 61, 0
1, 77036, Note_on_c, 2, 56, 0
1, 77036, Note_on_c, 0, 66, 0
1, 77036, Note_on_c, 0, 61, 0
1, 77036, Note_on_c, 0, 56, 0
1, 77040, Note_on_c, 0, 56, 100
1, 77040, Note_on_c, 0, 61, 100
1, 77040, Note_on_c, 0, 64, 100
1, 77040, Note_on_c, 2, 56, 100
1, 77040, Note_on_c, 2, 61, 100
1, 77040, Note_on_c, 2, 64, 100
1, 77040, Note_on_c, 4, 76, 101
1, 77040, Note_on_c, 7, 61, 106
1, 77040, Note_on_c, 13, 76, 101
1, 77100, Note_on_c, 7, 61, 0
1, 77160, Note_on_c, 7, 68, 127
1, 77216, Note_on_c, 7, 68, 0
1, 77276, Note_on_c, 13, 76, 0
1, 77276, Note_on_c, 4, 76, 0
1, 77276, Note_on_c, 2, 64, 0
1, 77276, Note_on_c, 2, 61, 0
1, 77276, Note_on_c, 2, 56, 0
1, 77276, Note_on_c, 0, 64, 0
1, 77276, Note_on_c, 0, 61, 0
1, 77276, Note_on_c, 0, 56, 0
1, 77280, Note_on_c, 0, 56, 100
1, 77280, Note_on_c, 0, 61, 100
1, 77280, Note_on_c, 0, 64, 100
1, 77280, Note_on_c, 2, 56, 100
1, 77280, Note_on_c, 2, 61, 100
1, 77280, Note_on_c, 2, 64, 100
1, 77280, Note_on_c, 4, 76, 116
1, 77280, Note_on_c, 7, 56, 92
1, 77280, Note_on_c, 9, 32, 100
1, 77280, Note_on_c, 9, 37, 100
1, 77280, Note_on_c, 13, 76, 116
1, 77336, Note_on_c, 7, 56, 0
1, 77396, Note_on_c, 9, 37, 0
1, 77400, Note_on_c, 7, 61, 109
1, 77460, Note_on_c, 7, 61, 0
1, 77516, Note_on_c, 13, 76, 0
1, 77516, Note_on_c, 9, 32, 0
1, 77516, Note_on_c, 4, 76, 0
1, 77516, Note_on_c, 2, 64, 0
1, 77516, Note_on_c, 2, 61, 0
1, 77516, Note_on_c, 2, 56, 0
1, 77516, Note_on_c, 0, 64, 0
1, 77516, Note_on_c, 0, 61, 0
1, 77516, Note_on_c, 0, 56, 0
1, 77520, Note_on_c, 7, 68, 127
1, 77580, Note_on_c, 7, 68, 0
1, 77640, Note_on_c, 7, 73, 100
1, 77756, Note_on_c, 7, 73, 0
1, 77760, Note_on_c, 0, 56, 100
1, 77760, Note_on_c, 0, 59, 100
1, 77760, Note_on_c, 0, 64, 100
1, 77760, Note_on_c, 2, 56, 100
1, 77760, Note_on_c, 2, 59, 100
1, 77760, Note_on_c, 2, 64, 100
1, 77760, Note_on_c, 4, 76, 119
1, 77760, Note_on_c, 7, 73, 127
1, 77760, Note_on_c, 9, 32, 100
1, 77760, Note_on_c, 13, 76, 119
1, 77816, Note_on_c, 7, 73, 0
1, 77880, Note_on_c, 7, 68, 59
1, 77936, Note_on_c, 7, 68, 0
1, 77996, Note_on_c, 13, 76, 0
1, 77996, Note_on_c, 9, 32, 0
1, 77996, Note_on_c, 4, 76, 0
1, 77996, Note_on_c, 2, 64, 0
1, 77996, Note_on_c, 2, 59, 0
1, 77996, Note_on_c, 2, 56, 0
1, 77996, Note_on_c, 0, 64, 0
1, 77996, Note_on_c, 0, 59, 0
1, 77996, Note_on_c, 0, 56, 0
1, 78000, Note_on_c, 0, 56, 100
1, 78000, Note_on_c, 0, 59, 100
1, 78000, Note_on_c, 0, 64, 100
1, 78000, Note_on_c, 2, 56, 100
1, 78000, Note_on_c, 2, 59, 100
1, 78000, Note_on_c, 2, 64, 100
1, 78000, Note_on_c, 4, 76, 111
1, 78000, Note_on_c, 7, 73, 78
1, 78000, Note_on_c, 13, 76, 111
1, 78056, Note_on_c, 7, 73, 0
1, 78120, Note_on_c, 7, 81, 125
1, 78236, Note_on_c, 7, 81, 0
1, 78236, Note_on_c, 13, 76, 0
1, 78236, Note_on_c, 4, 76, 0
1, 78236, Note_on_c, 2, 64, 0
1, 78236, Note_on_c, 2, 59, 0
1, 78236, Note_on_c, 2, 56, 0
1, 78236, Note_on_c, 0, 64, 0
1, 78236, Note_on_c, 0, 59, 0
1, 78236, Note_on_c, 0, 56, 0
1, 78240, Note_on_c, 0, 56, 100
1, 78240, Note_on_c, 0, 59, 100
1, 78240, Note_on_c, 0, 64, 100
1, 78240, Note_on_c, 2, 56, 100
1, 78240, Note_on_c, 2, 59, 100
1, 78240, Note_on_c, 2, 64, 100
1, 78240, Note_on_c, 4, 76, 109
1, 78240, Note_on_c, 7, 73, 84
1, 78240, Note_on_c, 9, 32, 100
1, 78240, Note_on_c, 9, 37, 100
1, 78240, Note_on_c, 13, 76, 109
1, 78300, Note_on_c, 7, 73, 0
1, 78356, Note_on_c, 9, 37, 0
1, 78360, Note_on_c, 7, 68, 73
1, 78476, Note_on_c, 7, 68, 0
1, 78476, Note_on_c, 13, 76, 0
1, 78476, Note_on_c, 9, 32, 0
1, 78476, Note_on_c, 4, 76, 0
1, 78476, Note_on_c, 2, 64, 0
1, 78476, Note_on_c, 2, 59, 0
1, 78476, Note_on_c, 2, 56, 0
1, 78476, Note_on_c, 0, 64, 0
1, 78476, Note_on_c, 0, 59, 0
1, 78476, Note_on_c, 0, 56, 0
1, 78480, Note_on_c, 0, 56, 100
1, 78480, Note_on_c, 0, 59, 100
1, 78480, Note_on_c, 0, 64, 100
1, 78480, Note_on_c, 2, 56, 100
1, 78480, Note_on_c, 2, 59, 100
1, 78480, Note_on_c, 2, 64, 100
1, 78480, Note_on_c, 4, 76, 87
1, 78480, Note_on_c, 7, 73, 119
1, 78480, Note_on_c, 13, 76, 87
1, 78540, Note_on_c, 7, 73, 0
1, 78600, Note_on_c, 7, 64, 109
1, 78660, Note_on_c, 7, 64, 0
1, 78716, Note_on_c, 13, 76, 0
1, 78716, Note_on_c, 4, 76, 0
1, 78716, Note_on_c, 2, 64, 0
1, 78716, Note_on_c, 2, 59, 0
1, 78716, Note_on_c, 2, 56, 0
1, 78716, Note_on_c, 0, 64, 0
1, 78716, Note_on_c, 0, 59, 0
1, 78716, Note_on_c, 0, 56, 0
1, 78716, Note_on_c, 6, 76, 0
1, 78720, Note_on_c, 0, 54, 100
1, 78720, Note_on_c, 0, 59, 100
1, 78720, Note_on_c, 0, 63, 100
1, 78720, Note_on_c, 2, 54, 100
1, 78720, Note_on_c, 2, 59, 100
1, 78720, Note_on_c, 2, 63, 100
1, 78720, Note_on_c, 4, 73, 127
1, 78720, Note_on_c, 6, 85, 127
1, 78720, Note_on_c, 7, 61, 106
1, 78720, Note_on_c, 9, 32, 100
1, 78720, Note_on_c, 13, 73, 127
1, 78780, Note_on_c, 7, 61, 0
1, 78840, Note_on_c, 7, 49, 92
1, 78896, Note_on_c, 7, 49, 0
1, 78956, Note_on_c, 13, 73, 0
1, 78956, Note_on_c, 9, 32, 0
1, 78956, Note_on_c, 4, 73, 0
1, 78956, Note_on_c, 2, 63, 0
1, 78956, Note_on_c, 2, 59, 0
1, 78956, Note_on_c, 2, 54, 0
1, 78956, Note_on_c, 0, 63, 0
1, 78956, Note_on_c, 0, 59, 0
1, 78956, Note_on_c, 0, 54, 0
1, 78960, Note_on_c, 0, 54, 100
1, 78960, Note_on_c, 0, 59, 100
1, 78960, Note_on_c, 0, 63, 100
1, 78960, Note_on_c, 2, 54, 100
1, 78960, Note_on_c, 2, 59, 100
1, 78960, Note_on_c, 2, 63, 100
1, 78960, Note_on_c, 4, 73, 127
1, 78960, Note_on_c, 7, 61, 106
1, 78960, Note_on_c, 13, 73, 127
1, 79020, Note_on_c, 7, 61, 0
1, 79080, Note_on_c, 7, 68, 127
1, 79136, Note_on_c, 7, 68, 0
1, 79196, Note_on_c, 13, 73, 0
1, 79196, Note_on_c, 4, 73, 0
1, 79196, Note_on_c, 2, 63, 0
1, 79196, Note_on_c, 2, 59, 0
1, 79196, Note_on_c, 2, 54, 0
1, 79196, Note_on_c, 0, 63, 0
1, 79196, Note_on_c, 0, 59, 0
1, 79196, Note_on_c, 0, 54, 0
1, 79200, Note_on_c, 0, 54, 100
1, 79200, Note_on_c, 0, 59, 100
1, 79200, Note_on_c, 0, 63, 100
1, 79200, Note_on_c, 2, 54, 100
1, 79200, Note_on_c, 2, 59, 100
1, 79200, Note_on_c, 2, 63, 100
1, 79200, Note_on_c, 4, 71, 113
1, 79200, Note_on_c, 7, 56, 92
1, 79200, Note_on_c, 9, 32, 100
1, 79200, Note_on_c, 9, 37, 100
1, 79200, Note_on_c, 13, 71, 113
1, 79256, Note_on_c, 7, 56, 0
1, 79316, Note_on_c, 9, 37, 0
1, 79320, Note_on_c, 7, 61, 109
1, 79380, Note_on_c, 7, 61, 0
1, 79436, Note_on_c, 13, 71, 0
1, 79436, Note_on_c, 9, 32, 0
1, 79436, Note_on_c, 4, 71, 0
1, 79436, Note_on_c, 2, 63, 0
1, 79436, Note_on_c, 2, 59, 0
1, 79436, Note_on_c, 2, 54, 0
1, 79436, Note_on_c, 0, 63, 0
1, 79436, Note_on_c, 0, 59, 0
1, 79436, Note_on_c, 0, 54, 0
1, 79440, Note_on_c, 0, 52, 100
1, 79440, Note_on_c, 0, 57, 100
1, 79440, Note_on_c, 0, 61, 100
1, 79440, Note_on_c, 2, 52, 100
1, 79440, Note_on_c, 2, 57, 100
1, 79440, Note_on_c, 2, 61, 100
1, 79440, Note_on_c, 4, 71, 122
1, 79440, Note_on_c, 7, 68, 127
1, 79440, Note_on_c, 9, 29, 100
1, 79440, Note_on_c, 13, 71, 122
1, 79500, Note_on_c, 7, 68, 0
1, 79560, Note_on_c, 7, 73, 100
1, 79676, Note_on_c, 7, 73, 0
1, 79676, Note_on_c, 13, 71, 0
1, 79676, Note_on_c, 9, 29, 0
1, 79676, Note_on_c, 4, 71, 0
1, 79676, Note_on_c, 2, 61, 0
1, 79676, Note_on_c, 2, 57, 0
1, 79676, Note_on_c, 2, 52, 0
1, 79676, Note_on_c, 0, 61, 0
1, 79676, Note_on_c, 0, 57, 0
1, 79676, Note_on_c, 0, 52, 0
1, 79680, Note_on_c, 7, 73, 127
1, 79680, Note_on_c, 9, 32, 100
1, 79736, Note_on_c, 7, 73, 0
1, 79800, Note_on_c, 7, 68, 59
1, 79856, Note_on_c, 7, 68, 0
1, 79916, Note_on_c, 9, 32, 0
1, 79920, Note_on_c, 0, 52, 100
1, 79920, Note_on_c, 0, 57, 100
1, 79920, Note_on_c, 0, 61, 100
1, 79920, Note_on_c, 2, 52, 100
1, 79920, Note_on_c, 2, 57, 100
1, 79920, Note_on_c, 2, 61, 100
1, 79920, Note_on_c, 4, 85, 127
1, 79920, Note_on_c, 7, 73, 78
1, 79920, Note_on_c, 13, 85, 127
1, 79976, Note_on_c, 7, 73, 0
1, 80040, Note_on_c, 7, 81, 125
1, 80156, Note_on_c, 7, 81, 0
1, 80156, Note_on_c, 13, 85, 0
1, 80156, Note_on_c, 4, 85, 0
1, 80156, Note_on_c, 2, 61, 0
1, 80156, Note_on_c, 2, 57, 0
1, 80156, Note_on_c, 2, 52, 0
1, 80156, Note_on_c, 0, 61, 0
1, 80156, Note_on_c, 0, 57, 0
1, 80156, Note_on_c, 0, 52, 0
1, 80160, Note_on_c, 0, 52, 100
1, 80160, Note_on_c, 0, 57, 100
1, 80160, Note_on_c, 0, 61, 100
1, 80160, Note_on_c, 2, 52, 100
1, 80160, Note_on_c, 2, 57, 100
1, 80160, Note_on_c, 2, 61, 100
1, 80160, Note_on_c, 4, 83, 119
1, 80160, Note_on_c, 7, 73, 84
1, 80160, Note_on_c, 9, 32, 100
1, 80160, Note_on_c, 9, 37, 100
1, 80160, Note_on_c, 13, 83, 119
1, 80220, Note_on_c, 7, 73, 0
1, 80276, Note_on_c, 9, 37, 0
1, 80280, Note_on_c, 7, 68, 73
1, 80396, Note_on_c, 7, 68, 0
1, 80396, Note_on_c, 13, 83, 0
1, 80396, Note_on_c, 9, 32, 0
1, 80396, Note_on_c, 4, 83, 0
1, 80396, Note_on_c, 2, 61, 0
1, 80396, Note_on_c, 2, 57, 0
1, 80396, Note_on_c, 2, 52, 0
1, 80396, Note_on_c, 0, 61, 0
1, 80396, Note_on_c, 0, 57, 0
1, 80396, Note_on_c, 0, 52, 0
1, 80400, Note_on_c, 0, 52, 100
1, 80400, Note_on_c, 0, 57, 100
1, 80400, Note_on_c, 0, 61, 100
1, 80400, Note_on_c, 2, 52, 100
1, 80400, Note_on_c, 2, 57, 100
1, 80400, Note_on_c, 2, 61, 100
1, 80400, Note_on_c, 4, 80, 127
1, 80400, Note_on_c, 7, 73, 119
1, 80400, Note_on_c, 13, 80, 127
1, 80460, Note_on_c, 7, 73, 0
1, 80516, Note_on_c, 10, 72, 0
1, 80520, Note_on_c, 7, 64, 109
1, 80580, Note_on_c, 7, 64, 0
1, 80636, Note_on_c, 13, 80, 0
1, 80636, Note_on_c, 4, 80, 0
1, 80636, Note_on_c, 2, 61, 0
1, 80636, Note_on_c, 2, 57, 0
1, 80636, Note_on_c, 2, 52, 0
1, 80636, Note_on_c, 0, 61, 0
1, 80636, Note_on_c, 0, 57, 0
1, 80636, Note_on_c, 0, 52, 0
1, 80636, Note_on_c, 6, 85, 0
1, 80640, Note_on_c, 9, 32, 100
1, 80640, Note_on_c, 10, 72, 127
1, 80640, Note_on_c, 15, 48, 127
1, 80756, Note_on_c, 9, 32, 0
1, 80880, Control_c, 0, 11, 121
1, 80880, Note_on_c, 0, 52, 100
1, 80880, Note_on_c, 0, 57, 100
1, 80880, Note_on_c, 0, 61, 100
1, 80880, Control_c, 2, 11, 121
1, 80880, Note_on_c, 2, 52, 100
1, 80880, Note_on_c, 2, 57, 100
1, 80880, Note_on_c, 2, 61, 100
1, 80880, Note_on_c, 4, 68, 100
1, 80880, Note_on_c, 13, 68, 100
1, 81116, Note_on_c, 13, 68, 0
1, 81116, Note_on_c, 4, 68, 0
1, 81116, Note_on_c, 2, 61, 0
1, 81116, Note_on_c, 2, 57, 0
1, 81116, Note_on_c, 2, 52, 0
1, 81116, Note_on_c, 0, 61, 0
1, 81116, Note_on_c, 0, 57, 0
1, 81116, Note_on_c, 0, 52, 0
1, 81120, Control_c, 0, 11, 116
1, 81120, Control_c, 2, 11, 116
1, 81120, Note_on_c, 9, 32, 100
1, 81236, Note_on_c, 9, 32, 0
1, 81360, Control_c, 0, 11, 111
1, 81360, Note_on_c, 0, 52, 100
1, 81360, Note_on_c, 0, 57, 100
1, 81360, Note_on_c, 0, 61, 100
1, 81360, Control_c, 2, 11, 111
1, 81360, Note_on_c, 2, 52, 100
1, 81360, Note_on_c, 2, 57, 100
1, 81360, Note_on_c, 2, 61, 100
1, 81360, Note_on_c, 4, 68, 100
1, 81360, Note_on_c, 13, 68, 100
1, 81596, Note_on_c, 13, 68, 0
1, 81596, Note_on_c, 4, 68, 0
1, 81596, Note_on_c, 2, 61, 0
1, 81596, Note_on_c, 2, 57, 0
1, 81596, Note_on_c, 2, 52, 0
1, 81596, Note_on_c, 0, 61, 0
1, 81596, Note_on_c, 0, 57, 0
1, 81596, Note_on_c, 0, 52, 0
1, 81600, Control_c, 0, 11, 105
1, 81600, Control_c, 2, 11, 105
1, 81600, Note_on_c, 9, 32, 100
1, 81716, Note_on_c, 9, 32, 0
1, 81840, Control_c, 0, 11, 100
1, 81840, Note_on_c, 0, 52, 100
1, 81840, Note_on_c, 0, 57, 100
1, 81840, Note_on_c, 0, 61, 100
1, 81840, Control_c, 2, 11, 100
1, 81840, Note_on_c, 2, 52, 100
1, 81840, Note_on_c, 2, 57, 100
1, 81840, Note_on_c, 2, 61, 100
1, 81840, Note_on_c, 4, 68, 100
1, 81840, Note_on_c, 13, 68, 100
1, 82076, Note_on_c, 13, 68, 0
1, 82076, Note_on_c, 4, 68, 0
1, 82076, Note_on_c, 2, 61, 0
1, 82076, Note_on_c, 2, 57, 0
1, 82076, Note_on_c, 2, 52, 0
1, 82076, Note_on_c, 0, 61, 0
1, 82076, Note_on_c, 0, 57, 0
1, 82076, Note_on_c, 0, 52, 0
1, 82080, Control_c, 0, 11, 95
1, 82080, Control_c, 2, 11, 95
1, 82080, Note_on_c, 9, 32, 100
1, 82196, Note_on_c, 9, 32, 0
1, 82320, Control_c, 0, 11, 89
1, 82320, Note_on_c, 0, 52, 100
1, 82320, Note_on_c, 0, 57, 100
1, 82320, Note_on_c, 0, 61, 100
1, 82320, Control_c, 2, 11, 89
1, 82320, Note_on_c, 2, 52, 100
1, 82320, Note_on_c, 2, 57, 100
1, 82320, Note_on_c, 2, 61, 100
1, 82320, Note_on_c, 4, 68, 100
1, 82320, Note_on_c, 13, 68, 100
1, 82440, Control_c, 5, 11, 5
1, 82556, Note_on_c, 13, 68, 0
1, 82556, Note_on_c, 4, 68, 0
1, 82556, Note_on_c, 2, 61, 0
1, 82556, Note_on_c, 2, 57, 0
1, 82556, Note_on_c, 2, 52, 0
1, 82556, Note_on_c, 0, 61, 0
1, 82556, Note_on_c, 0, 57, 0
1, 82556, Note_on_c, 0, 52, 0
1, 82556, Note_on_c, 15, 48, 0
1, 82560, Control_c, 0, 11, 84
1, 82560, Control_c, 2, 11, 84
1, 82560, Control_c, 5, 11, 7
1, 82560, Note_on_c, 5, 56, 115
1, 82560, Note_on_c, 9, 32, 100
1, 82676, Note_on_c, 9, 32, 0
1, 82680, Control_c, 5, 11, 9
1, 82800, Control_c, 0, 11, 79
1, 82800, Note_on_c, 0, 52, 100
1, 82800, Note_on_c, 0, 57, 100
1, 82800, Note_on_c, 0, 61, 100
1, 82800, Control_c, 2, 11, 79
1, 82800, Note_on_c, 2, 52, 100
1, 82800, Note_on_c, 2, 57, 100
1, 82800, Note_on_c, 2, 61, 100
1, 82800, Note_on_c, 4, 68, 100
1, 82800, Control_c, 5, 11, 12
1, 82800, Note_on_c, 13, 68, 100
1, 82916, Note_on_c, 13, 68, 0
1, 82916, Note_on_c, 4, 68, 0
1, 82920, Control_c, 5, 11, 14
1, 83036, Note_on_c, 2, 61, 0
1, 83036, Note_on_c, 2, 57, 0
1, 83036, Note_on_c, 2, 52, 0
1, 83036, Note_on_c, 0, 61, 0
1, 83036, Note_on_c, 0, 57, 0
1, 83036, Note_on_c, 0, 52, 0
1, 83040, Control_c, 0, 11, 74
1, 83040, Control_c, 2, 11, 74
1, 83040, Control_c, 5, 11, 16
1, 83040, Note_on_c, 9, 32, 100
1, 83156, Note_on_c, 9, 32, 0
1, 83160, Control_c, 5, 11, 19
1, 83280, Control_c, 0, 11, 68
1, 83280, Note_on_c, 0, 52, 100
1, 83280, Note_on_c, 0, 57, 100
1, 83280, Note_on_c, 0, 61, 100
1, 83280, Control_c, 2, 11, 68
1, 83280, Note_on_c, 2, 52, 100
1, 83280, Note_on_c, 2, 57, 100
1, 83280, Note_on_c, 2, 61, 100
1, 83280, Note_on_c, 4, 68, 100
1, 83280, Control_c, 5, 11, 21
1, 83280, Note_on_c, 13, 68, 100
1, 83396, Note_on_c, 13, 68, 0
1, 83396, Note_on_c, 4, 68, 0
1, 83400, Control_c, 5, 11, 24
1, 83516, Note_on_c, 2, 61, 0
1, 83516, Note_on_c, 2, 57, 0
1, 83516, Note_on_c, 2, 52, 0
1, 83516, Note_on_c, 0, 61, 0
1, 83516, Note_on_c, 0, 57, 0
1, 83516, Note_on_c, 0, 52, 0
1, 83520, Control_c, 0, 11, 63
1, 83520, Control_c, 2, 11, 63
1, 83520, Control_c, 5, 11, 26
1, 83520, Note_on_c, 9, 32, 100
1, 83636, Note_on_c, 9, 32, 0
1, 83640, Control_c, 5, 11, 28
1, 83760, Control_c, 0, 11, 58
1, 83760, Note_on_c, 0, 52, 100
1, 83760, Note_on_c, 0, 57, 100
1, 83760, Note_on_c, 0, 61, 100
1, 83760, Control_c, 2, 11, 58
1, 83760, Note_on_c, 2, 52, 100
1, 83760, Note_on_c, 2, 57, 100
1, 83760, Note_on_c, 2, 61, 100
1, 83760, Note_on_c, 4, 68, 100
1, 83760, Control_c, 5, 11, 31
1, 83760, Note_on_c, 13, 68, 100
1, 83880, Control_c, 5, 11, 33
1, 83996, Note_on_c, 13, 68, 0
1, 83996, Note_on_c, 4, 68, 0
1, 83996, Note_on_c, 2, 61, 0
1, 83996, Note_on_c, 2, 57, 0
1, 83996, Note_on_c, 2, 52, 0
1, 83996, Note_on_c, 0, 61, 0
1, 83996, Note_on_c, 0, 57, 0
1, 83996, Note_on_c, 0, 52, 0
1, 84000, Control_c, 0, 11, 52
1, 84000, Control_c, 2, 11, 52
1, 84000, Control_c, 5, 11, 36
1, 84000, Note_on_c, 9, 32, 100
1, 84116, Note_on_c, 9, 32, 0
1, 84120, Control_c, 5, 11, 38
1, 84240, Control_c, 0, 11, 47
1, 84240, Note_on_c, 0, 52, 100
1, 84240, Note_on_c, 0, 57, 100
1, 84240, Note_on_c, 0, 61, 100
1, 84240, Control_c, 2, 11, 47
1, 84240, Note_on_c, 2, 52, 100
1, 84240, Note_on_c, 2, 57, 100
1, 84240, Note_on_c, 2, 61, 100
1, 84240, Note_on_c, 4, 68, 100
1, 84240, Control_c, 5, 11, 40
1, 84240, Note_on_c, 13, 68, 100
1, 84356, Note_on_c, 13, 68, 0
1, 84356, Note_on_c, 4, 68, 0
1, 84360, Control_c, 5, 11, 43
1, 84476, Note_on_c, 2, 61, 0
1, 84476, Note_on_c, 2, 57, 0
1, 84476, Note_on_c, 2, 52, 0
1, 84476, Note_on_c, 0, 61, 0
1, 84476, Note_on_c, 0, 57, 0
1, 84476, Note_on_c, 0, 52, 0
1, 84480, Control_c, 0, 11, 42
1, 84480, Control_c, 2, 11, 42
1, 84480, Control_c, 5, 11, 45
1, 84480, Note_on_c, 5, 68, 96
1, 84480, Note_on_c, 9, 32, 100
1, 84596, Note_on_c, 9, 32, 0
1, 84600, Control_c, 5, 11, 48
1, 84720, Control_c, 0, 11, 37
1, 84720, Note_on_c, 0, 52, 100
1, 84720, Note_on_c, 0, 57, 100
1, 84720, Note_on_c, 0, 61, 100
1, 84720, Control_c, 2, 11, 37
1, 84720, Note_on_c, 2, 52, 100
1, 84720, Note_on_c, 2, 57, 100
1, 84720, Note_on_c, 2, 61, 100
1, 84720, Note_on_c, 4, 68, 100
1, 84720, Control_c, 5, 11, 50
1, 84720, Note_on_c, 13, 68, 100
1, 84840, Control_c, 5, 11, 52
1, 84956, Note_on_c, 13, 68, 0
1, 84956, Note_on_c, 4, 68, 0
1, 84956, Note_on_c, 2, 61, 0
1, 84956, Note_on_c, 2, 57, 0
1, 84956, Note_on_c, 2, 52, 0
1, 84956, Note_on_c, 0, 61, 0
1, 84956, Note_on_c, 0, 57, 0
1, 84956, Note_on_c, 0, 52, 0
1, 84960, Control_c, 0, 11, 31
1, 84960, Control_c, 2, 11, 31
1, 84960, Control_c, 5, 11, 55
1, 84960, Note_on_c, 9, 32, 100
1, 85076, Note_on_c, 9, 32, 0
1, 85080, Control_c, 5, 11, 57
1, 85200, Control_c, 0, 11, 26
1, 85200, Note_on_c, 0, 52, 100
1, 85200, Note_on_c, 0, 57, 100
1, 85200, Note_on_c, 0, 61, 100
1, 85200, Control_c, 2, 11, 26
1, 85200, Note_on_c, 2, 52, 100
1, 85200, Note_on_c, 2, 57, 100
1, 85200, Note_on_c, 2, 61, 100
1, 85200, Note_on_c, 4, 68, 100
1, 85200, Control_c, 5, 11, 60
1, 85200, Note_on_c, 13, 68, 100
1, 85320, Control_c, 5, 11, 62
1, 85436, Note_on_c, 13, 68, 0
1, 85436, Note_on_c, 4, 68, 0
1, 85436, Note_on_c, 2, 61, 0
1, 85436, Note_on_c, 2, 57, 0
1, 85436, Note_on_c, 2, 52, 0
1, 85436, Note_on_c, 0, 61, 0
1, 85436, Note_on_c, 0, 57, 0
1, 85436, Note_on_c, 0, 52, 0
1, 85440, Control_c, 0, 11, 21
1, 85440, Control_c, 2, 11, 21
1, 85440, Control_c, 5, 11, 64
1, 85440, Note_on_c, 9, 32, 100
1, 85556, Note_on_c, 9, 32, 0
1, 85560, Control_c, 5, 11, 67
1, 85680, Control_c, 0, 11, 15
1, 85680, Note_on_c, 0, 52, 100
1, 85680, Note_on_c, 0, 57, 100
1, 85680, Note_on_c, 0, 61, 100
1, 85680, Control_c, 2, 11, 15
1, 85680, Note_on_c, 2, 52, 100
1, 85680, Note_on_c, 2, 57, 100
1, 85680, Note_on_c, 2, 61, 100
1, 85680, Note_on_c, 4, 68, 100
1, 85680, Control_c, 5, 11, 69
1, 85680, Note_on_c, 13, 68, 100
1, 85800, Control_c, 5, 11, 71
1, 85916, Note_on_c, 13, 68, 0
1, 85916, Note_on_c, 4, 68, 0
1, 85916, Note_on_c, 2, 61, 0
1, 85916, Note_on_c, 2, 57, 0
1, 85916, Note_on_c, 2, 52, 0
1, 85916, Note_on_c, 0, 61, 0
1, 85916, Note_on_c, 0, 57, 0
1, 85916, Note_on_c, 0, 52, 0
1, 85920, Control_c, 0, 11, 10
1, 85920, Control_c, 2, 11, 10
1, 85920, Control_c, 5, 11, 74
1, 85920, Note_on_c, 9, 32, 100
1, 86036, Note_on_c, 9, 32, 0
1, 86040, Control_c, 5, 11, 76
1, 86160, Control_c, 0, 11, 5
1, 86160, Note_on_c, 0, 52, 100
1, 86160, Note_on_c, 0, 57, 100
1, 86160, Note_on_c, 0, 61, 100
1, 86160, Control_c, 2, 11, 5
1, 86160, Note_on_c, 2, 52, 100
1, 86160, Note_on_c, 2, 57, 100
1, 86160, Note_on_c, 2, 61, 100
1, 86160, Note_on_c, 4, 68, 100
1, 86160, Control_c, 5, 11, 79
1, 86160, Note_on_c, 13, 68, 100
1, 86276, Note_on_c, 13, 68, 0
1, 86276, Note_on_c, 4, 68, 0
1, 86280, Control_c, 5, 11, 81
1, 86396, Note_on_c, 2, 61, 0
1, 86396, Note_on_c, 2, 57, 0
1, 86396, Note_on_c, 2, 52, 0
1, 86396, Note_on_c, 0, 61, 0
1, 86396, Note_on_c, 0, 57, 0
1, 86396, Note_on_c, 0, 52, 0
1, 86400, Control_c, 0, 11, 0
1, 86400, Control_c, 2, 11, 0
1, 86400, Control_c, 5, 11, 83
1, 86400, Note_on_c, 9, 32, 100
1, 86516, Note_on_c, 9, 32, 0
1, 86520, Control_c, 5, 11, 86
1, 86640, Control_c, 5, 11, 88
1, 86760, Control_c, 5, 11, 91
1, 86880, Control_c, 5, 11, 93
1, 86880, Note_on_c, 9, 32, 100
1, 86996, Note_on_c, 9, 32, 0
1, 87000, Control_c, 5, 11, 95
1, 87120, Control_c, 5, 11, 98
1, 87240, Control_c, 5, 11, 100
1, 87360, Control_c, 5, 11, 103
1, 87360, Note_on_c, 9, 32, 100
1, 87476, Note_on_c, 9, 32, 0
1, 87480, Control_c, 5, 11, 105
1, 87600, Control_c, 5, 11, 107
1, 87720, Control_c, 5, 11, 110
1, 87840, Control_c, 5, 11, 112
1, 87840, Note_on_c, 9, 32, 100
1, 87956, Note_on_c, 9, 32, 0
1, 87956, Note_on_c, 10, 72, 0
1, 87960, Control_c, 5, 11, 115
1, 88080, Control_c, 5, 11, 117
1, 88200, Control_c, 5, 11, 119
1, 88316, Note_on_c, 5, 68, 0
1, 88316, Note_on_c, 5, 56, 0
1, 88320, Lyric_t, "O"
1, 88320, Note_on_c, 3, 68, 127
1, 88320, Control_c, 5, 11, 122
1, 88320, Note_on_c, 5, 56, 87
1, 88320, Note_on_c, 5, 68, 89
1, 88320, Note_on_c, 11, 37, 81
1, 88320, Note_on_c, 11, 49, 111
1, 88320, Note_on_c, 11, 56, 109
1, 88320, Note_on_c, 11, 61, 102
1, 88320, Note_on_c, 11, 66, 100
1, 88440, Control_c, 5, 11, 124
1, 88560, Control_c, 5, 11, 127
1, 89040, Lyric_t, "h, "
1, 89040, Note_on_c, 3, 66, 127
1, 89076, Note_on_c, 3, 68, 0
1, 89276, Note_on_c, 11, 66, 0
1, 89276, Note_on_c, 11, 61, 0
1, 89276, Note_on_c, 11, 56, 0
1, 89276, Note_on_c, 11, 49, 0
1, 89276, Note_on_c, 11, 37, 0
1, 89280, Note_on_c, 11, 40, 98
1, 89280, Note_on_c, 11, 52, 105
1, 89280, Note_on_c, 11, 56, 96
1, 89280, Note_on_c, 11, 59, 111
1, 89280, Note_on_c, 11, 64, 101
1, 89912, Note_on_c, 3, 66, 0
1, 89996, Note_on_c, 11, 59, 0
1, 89996, Note_on_c, 11, 56, 0
1, 90000, Lyric_t, "some"
1, 90000, Note_on_c, 3, 64, 127
1, 90132, Note_on_c, 3, 64, 0
1, 90236, Note_on_c, 11, 64, 0
1, 90236, Note_on_c, 11, 52, 0
1, 90236, Note_on_c, 11, 40, 0
1, 90240, Lyric_t, "times, \015"
1, 90240, Control_c, 0, 11, 127
1, 90240, Control_c, 2, 11, 127
1, 90240, Note_on_c, 3, 61, 127
1, 90240, Note_on_c, 11, 47, 94
1, 90240, Note_on_c, 11, 54, 109
1, 90240, Note_on_c, 11, 59, 122
1, 90240, Note_on_c, 11, 63, 98
1, 90716, Note_on_c, 11, 63, 0
1, 90716, Note_on_c, 11, 59, 0
1, 90720, Note_on_c, 11, 64, 98
1, 90956, Note_on_c, 11, 64, 0
1, 90956, Note_on_c, 11, 54, 0
1, 90956, Note_on_c, 11, 47, 0
1, 90960, Note_on_c, 11, 45, 105
1, 90960, Note_on_c, 11, 52, 111
1, 90960, Note_on_c, 11, 57, 113
1, 90960, Note_on_c, 11, 59, 122
1, 91244, Note_on_c, 3, 61, 0
1, 91440, Lyric_t, "I "
1, 91440, Note_on_c, 3, 61, 127
1, 91564, Note_on_c, 3, 61, 0
1, 91680, Lyric_t, "get "
1, 91680, Note_on_c, 3, 56, 127
1, 91780, Note_on_c, 3, 56, 0
1, 91800, Lyric_t, "a "
1, 91800, Note_on_c, 3, 54, 127
1, 91904, Note_on_c, 3, 54, 0
1, 91920, Lyric_t, "good "
1, 91920, Note_on_c, 3, 52, 116
1, 92080, Note_on_c, 3, 52, 0
1, 92156, Note_on_c, 11, 59, 0
1, 92156, Note_on_c, 11, 57, 0
1, 92156, Note_on_c, 11, 52, 0
1, 92156, Note_on_c, 11, 45, 0
1, 92160, Lyric_t, "fee"
1, 92160, Note_on_c, 3, 61, 127
1, 92160, Note_on_c, 11, 37, 81
1, 92160, Note_on_c, 11, 49, 111
1, 92160, Note_on_c, 11, 56, 109
1, 92160, Note_on_c, 11, 61, 102
1, 92160, Note_on_c, 11, 66, 100
1, 92288, Note_on_c, 3, 61, 0
1, 92400, Lyric_t, "ling, "
1, 92400, Note_on_c, 3, 61, 127
1, 92648, Note_on_c, 3, 61, 0
1, 93116, Note_on_c, 11, 66, 0
1, 93116, Note_on_c, 11, 61, 0
1, 93116, Note_on_c, 11, 56, 0
1, 93116, Note_on_c, 11, 49, 0
1, 93116, Note_on_c, 11, 37, 0
1, 93120, Note_on_c, 11, 40, 98
1, 93120, Note_on_c, 11, 52, 105
1, 93120, Note_on_c, 11, 56, 96
1, 93120, Note_on_c, 11, 59, 111
1, 93120, Note_on_c, 11, 64, 101
1, 93836, Note_on_c, 11, 59, 0
1, 93836, Note_on_c, 11, 56, 0
1, 93840, Lyric_t, "yeah \015"
1, 93840, Note_on_c, 3, 56, 127
1, 94076, Note_on_c, 11, 64, 0
1, 94076, Note_on_c, 11, 52, 0
1, 94076, Note_on_c, 11, 40, 0
1, 94080, Note_on_c, 11, 47, 94
1, 94080, Note_on_c, 11, 54, 109
1, 94080, Note_on_c, 11, 59, 122
1, 94080, Note_on_c, 11, 63, 98
1, 94140, Note_on_c, 3, 56, 0
1, 94556, Note_on_c, 11, 63, 0
1, 94556, Note_on_c, 11, 59, 0
1, 94560, Note_on_c, 11, 64, 98
1, 94796, Note_on_c, 11, 64, 0
1, 94796, Note_on_c, 11, 54, 0
1, 94796, Note_on_c, 11, 47, 0
1, 94800, Note_on_c, 11, 45, 105
1, 94800, Note_on_c, 11, 52, 111
1, 94800, Note_on_c, 11, 57, 113
1, 94800, Note_on_c, 11, 59, 122
1, 95996, Note_on_c, 11, 59, 0
1, 95996, Note_on_c, 11, 57, 0
1, 95996, Note_on_c, 11, 52, 0
1, 95996, Note_on_c, 11, 45, 0
1, 96000, Note_on_c, 11, 37, 81
1, 96000, Note_on_c, 11, 49, 111
1, 96000, Note_on_c, 11, 56, 109
1, 96000, Note_on_c, 11, 61, 102
1, 96000, Note_on_c, 11, 66, 100
1, 96480, Lyric_t, "Get "
1, 96480, Note_on_c, 3, 71, 113
1, 96640, Note_on_c, 3, 71, 0
1, 96720, Lyric_t, "a "
1, 96720, Note_on_c, 3, 68, 104
1, 96888, Note_on_c, 3, 68, 0
1, 96956, Note_on_c, 11, 66, 0
1, 96956, Note_on_c, 11, 61, 0
1, 96956, Note_on_c, 11, 56, 0
1, 96956, Note_on_c, 11, 49, 0
1, 96956, Note_on_c, 11, 37, 0
1, 96960, Lyric_t, "fee"
1, 96960, Note_on_c, 3, 71, 116
1, 96960, Note_on_c, 11, 40, 98
1, 96960, Note_on_c, 11, 52, 105
1, 96960, Note_on_c, 11, 56, 96
1, 96960, Note_on_c, 11, 59, 111
1, 96960, Note_on_c, 11, 64, 101
1, 97112, Note_on_c, 3, 71, 0
1, 97200, Lyric_t, "ling "
1, 97200, Note_on_c, 3, 71, 116
1, 97352, Note_on_c, 3, 71, 0
1, 97440, Lyric_t, "that "
1, 97440, Note_on_c, 3, 68, 127
1, 97564, Note_on_c, 3, 68, 0
1, 97676, Note_on_c, 11, 59, 0
1, 97676, Note_on_c, 11, 56, 0
1, 97680, Lyric_t, "I \015"
1, 97680, Note_on_c, 3, 68, 125
1, 97812, Note_on_c, 3, 68, 0
1, 97916, Note_on_c, 11, 64, 0
1, 97916, Note_on_c, 11, 52, 0
1, 97916, Note_on_c, 11, 40, 0
1, 97920, Lyric_t, "ne"
1, 97920, Note_on_c, 3, 73, 127
1, 97920, Note_on_c, 11, 47, 94
1, 97920, Note_on_c, 11, 54, 109
1, 97920, Note_on_c, 11, 59, 122
1, 97920, Note_on_c, 11, 63, 98
1, 98032, Note_on_c, 3, 73, 0
1, 98160, Lyric_t, "ver, "
1, 98160, Note_on_c, 3, 73, 109
1, 98264, Note_on_c, 3, 73, 0
1, 98280, Lyric_t, "ne"
1, 98280, Note_on_c, 3, 71, 116
1, 98396, Note_on_c, 11, 63, 0
1, 98396, Note_on_c, 11, 59, 0
1, 98400, Note_on_c, 3, 71, 0
1, 98400, Note_on_c, 11, 64, 98
1, 98520, Lyric_t, "ver, "
1, 98520, Note_on_c, 3, 71, 92
1, 98600, Note_on_c, 3, 71, 0
1, 98636, Note_on_c, 11, 64, 0
1, 98636, Note_on_c, 11, 54, 0
1, 98636, Note_on_c, 11, 47, 0
1, 98640, Lyric_t, "ne"
1, 98640, Note_on_c, 3, 68, 125
1, 98640, Note_on_c, 11, 45, 105
1, 98640, Note_on_c, 11, 52, 111
1, 98640, Note_on_c, 11, 57, 113
1, 98640, Note_on_c, 11, 59, 122
1, 98732, Note_on_c, 3, 68, 0
1, 98880, Lyric_t, "ver, "
1, 98880, Note_on_c, 3, 68, 127
1, 98960, Note_on_c, 3, 68, 0
1, 99000, Lyric_t, "ne"
1, 99000, Note_on_c, 3, 66, 127
1, 99108, Note_on_c, 3, 66, 0
1, 99240, Lyric_t, "ver \015"
1, 99240, Note_on_c, 3, 66, 127
1, 99320, Note_on_c, 3, 66, 0
1, 99360, Lyric_t, "had "
1, 99360, Note_on_c, 3, 64, 103
1, 99448, Note_on_c, 3, 64, 0
1, 99600, Lyric_t, "be"
1, 99600, Note_on_c, 3, 61, 127
1, 99684, Note_on_c, 3, 61, 0
1, 99836, Note_on_c, 11, 59, 0
1, 99836, Note_on_c, 11, 57, 0
1, 99836, Note_on_c, 11, 52, 0
1, 99836, Note_on_c, 11, 45, 0
1, 99840, Lyric_t, "fore, "
1, 99840, Note_on_c, 3, 61, 127
1, 99840, Note_on_c, 11, 37, 81
1, 99840, Note_on_c, 11, 49, 111
1, 99840, Note_on_c, 11, 56, 109
1, 99840, Note_on_c, 11, 61, 102
1, 99840, Note_on_c, 11, 66, 100
1, 100148, Note_on_c, 3, 61, 0
1, 100560, Lyric_t, "no "
1, 100560, Note_on_c, 3, 54, 127
1, 100692, Note_on_c, 3, 54, 0
1, 100796, Note_on_c, 11, 66, 0
1, 100796, Note_on_c, 11, 61, 0
1, 100796, Note_on_c, 11, 56, 0
1, 100796, Note_on_c, 11, 49, 0
1, 100796, Note_on_c, 11, 37, 0
1, 100800, Lyric_t, "no, \015"
1, 100800, Note_on_c, 3, 52, 116
1, 100800, Note_on_c, 11, 40, 98
1, 100800, Note_on_c, 11, 52, 105
1, 100800, Note_on_c, 11, 56, 96
1, 100800, Note_on_c, 11, 59, 111
1, 100800, Note_on_c, 11, 64, 101
1, 100900, Note_on_c, 3, 52, 0
1, 101040, Lyric_t, "I "
1, 101040, Note_on_c, 3, 59, 127
1, 101152, Note_on_c, 3, 59, 0
1, 101280, Lyric_t, "get "
1, 101280, Note_on_c, 3, 56, 127
1, 101368, Note_on_c, 3, 56, 0
1, 101400, Lyric_t, "a "
1, 101400, Note_on_c, 3, 54, 125
1, 101488, Note_on_c, 3, 54, 0
1, 101516, Note_on_c, 11, 59, 0
1, 101516, Note_on_c, 11, 56, 0
1, 101520, Lyric_t, "good "
1, 101520, Note_on_c, 3, 52, 95
1, 101648, Note_on_c, 3, 52, 0
1, 101756, Note_on_c, 11, 64, 0
1, 101756, Note_on_c, 11, 52, 0
1, 101756, Note_on_c, 11, 40, 0
1, 101760, Lyric_t, "fee"
1, 101760, Note_on_c, 3, 61, 119
1, 101760, Note_on_c, 11, 47, 94
1, 101760, Note_on_c, 11, 54, 109
1, 101760, Note_on_c, 11, 59, 122
1, 101760, Note_on_c, 11, 63, 98
1, 101888, Note_on_c, 3, 61, 0
1, 102000, Lyric_t, "ling, "
1, 102000, Note_on_c, 3, 61, 127
1, 102184, Note_on_c, 3, 61, 0
1, 102236, Note_on_c, 11, 63, 0
1, 102236, Note_on_c, 11, 59, 0
1, 102240, Note_on_c, 11, 64, 98
1, 102476, Note_on_c, 11, 64, 0
1, 102476, Note_on_c, 11, 54, 0
1, 102476, Note_on_c, 11, 47, 0
1, 102480, Lyric_t, "yeah \015"
1, 102480, Note_on_c, 3, 56, 127
1, 102480, Note_on_c, 11, 45, 105
1, 102480, Note_on_c, 11, 52, 111
1, 102480, Note_on_c, 11, 57, 113
1, 102480, Note_on_c, 11, 59, 122
1, 102756, Note_on_c, 3, 56, 0
1, 103436, Note_on_c, 5, 68, 0
1, 103436, Note_on_c, 5, 56, 0
1, 103560, Control_c, 7, 74, 10
1, 103560, Control_c, 7, 11, 9
1, 103676, Note_on_c, 11, 59, 0
1, 103676, Note_on_c, 11, 57, 0
1, 103676, Note_on_c, 11, 52, 0
1, 103676, Note_on_c, 11, 45, 0
1, 103680, Lyric_t, "O"
1, 103680, Note_on_c, 3, 68, 127
1, 103680, Note_on_c, 5, 56, 106
1, 103680, Note_on_c, 5, 68, 84
1, 103680, Control_c, 7, 11, 10
1, 103680, Note_on_c, 7, 37, 81
1, 103680, Note_on_c, 7, 49, 111
1, 103680, Note_on_c, 7, 56, 109
1, 103680, Note_on_c, 7, 61, 102
1, 103680, Note_on_c, 7, 66, 100
1, 103680, Note_on_c, 9, 42, 115
1, 103680, Note_on_c, 11, 37, 81
1, 103680, Note_on_c, 11, 49, 111
1, 103680, Note_on_c, 11, 56, 109
1, 103680, Note_on_c, 11, 61, 102
1, 103680, Note_on_c, 11, 66, 100
1, 103800, Control_c, 7, 11, 11
1, 103812, Control_c, 7, 74, 11
1, 103916, Note_on_c, 9, 42, 0
1, 103920, Control_c, 7, 11, 12
1, 103940, Control_c, 7, 74, 12
1, 104040, Control_c, 7, 11, 13
1, 104068, Control_c, 7, 74, 13
1, 104160, Control_c, 7, 11, 15
1, 104160, Note_on_c, 9, 37, 125
1, 104160, Note_on_c, 9, 42, 111
1, 104196, Control_c, 7, 74, 14
1, 104280, Control_c, 7, 11, 16
1, 104320, Control_c, 7, 74, 15
1, 104396, Note_on_c, 9, 42, 0
1, 104396, Note_on_c, 9, 37, 0
1, 104400, Lyric_t, "h, "
1, 104400, Note_on_c, 3, 66, 127
1, 104400, Control_c, 7, 11, 17
1, 104436, Note_on_c, 3, 68, 0
1, 104448, Control_c, 7, 74, 16
1, 104520, Control_c, 7, 11, 18
1, 104576, Control_c, 7, 74, 17
1, 104636, Note_on_c, 11, 66, 0
1, 104636, Note_on_c, 11, 61, 0
1, 104636, Note_on_c, 11, 56, 0
1, 104636, Note_on_c, 11, 49, 0
1, 104636, Note_on_c, 11, 37, 0
1, 104636, Note_on_c, 7, 66, 0
1, 104636, Note_on_c, 7, 61, 0
1, 104636, Note_on_c, 7, 56, 0
1, 104636, Note_on_c, 7, 49, 0
1, 104636, Note_on_c, 7, 37, 0
1, 104640, Control_c, 7, 11, 19
1, 104640, Note_on_c, 7, 40, 98
1, 104640, Note_on_c, 7, 52, 105
1, 104640, Note_on_c, 7, 56, 96
1, 104640, Note_on_c, 7, 59, 111
1, 104640, Note_on_c, 7, 64, 101
1, 104640, Note_on_c, 9, 42, 102
1, 104640, Note_on_c, 11, 40, 98
1, 104640, Note_on_c, 11, 52, 105
1, 104640, Note_on_c, 11, 56, 96
1, 104640, Note_on_c, 11, 59, 111
1, 104640, Note_on_c, 11, 64, 101
1, 104704, Control_c, 7, 74, 18
1, 104760, Control_c, 7, 11, 21
1, 104828, Control_c, 7, 74, 19
1, 104876, Note_on_c, 9, 42, 0
1, 104880, Control_c, 7, 11, 22
1, 104956, Control_c, 7, 74, 20
1, 105000, Control_c, 7, 11, 23
1, 105084, Control_c, 7, 74, 21
1, 105120, Control_c, 7, 11, 24
1, 105120, Note_on_c, 9, 37, 96
1, 105120, Note_on_c, 9, 42, 119
1, 105212, Control_c, 7, 74, 22
1, 105240, Control_c, 7, 11, 26
1, 105272, Note_on_c, 3, 66, 0
1, 105336, Control_c, 7, 74, 23
1, 105356, Note_on_c, 9, 42, 0
1, 105356, Note_on_c, 9, 37, 0
1, 105356, Note_on_c, 11, 59, 0
1, 105356, Note_on_c, 11, 56, 0
1, 105356, Note_on_c, 7, 59, 0
1, 105356, Note_on_c, 7, 56, 0
1, 105360, Lyric_t, "some"
1, 105360, Note_on_c, 3, 64, 127
1, 105360, Control_c, 7, 11, 27
1, 105464, Control_c, 7, 74, 24
1, 105480, Control_c, 7, 11, 28
1, 105492, Note_on_c, 3, 64, 0
1, 105592, Control_c, 7, 74, 25
1, 105596, Note_on_c, 11, 64, 0
1, 105596, Note_on_c, 11, 52, 0
1, 105596, Note_on_c, 11, 40, 0
1, 105596, Note_on_c, 7, 64, 0
1, 105596, Note_on_c, 7, 52, 0
1, 105596, Note_on_c, 7, 40, 0
1, 105600, Lyric_t, "times, \015"
1, 105600, Note_on_c, 3, 61, 127
1, 105600, Control_c, 7, 11, 29
1, 105600, Note_on_c, 7, 47, 94
1, 105600, Note_on_c, 7, 54, 109
1, 105600, Note_on_c, 7, 59, 122
1, 105600, Note_on_c, 7, 63, 98
1, 105600, Note_on_c, 9, 42, 109
1, 105600, Note_on_c, 11, 47, 94
1, 105600, Note_on_c, 11, 54, 109
1, 105600, Note_on_c, 11, 59, 122
1, 105600, Note_on_c, 11, 63, 98
1, 105720, Control_c, 7, 74, 26
1, 105720, Control_c, 7, 11, 30
1, 105836, Note_on_c, 9, 42, 0
1, 105840, Control_c, 7, 11, 32
1, 105844, Control_c, 7, 74, 27
1, 105960, Control_c, 7, 11, 33
1, 105972, Control_c, 7, 74, 28
1, 106076, Note_on_c, 11, 63, 0
1, 106076, Note_on_c, 11, 59, 0
1, 106076, Note_on_c, 7, 63, 0
1, 106076, Note_on_c, 7, 59, 0
1, 106080, Control_c, 7, 11, 34
1, 106080, Note_on_c, 7, 64, 98
1, 106080, Note_on_c, 9, 37, 119
1, 106080, Note_on_c, 9, 42, 115
1, 106080, Note_on_c, 11, 64, 98
1, 106100, Control_c, 7, 74, 29
1, 106200, Control_c, 7, 11, 35
1, 106228, Control_c, 7, 74, 30
1, 106316, Note_on_c, 11, 64, 0
1, 106316, Note_on_c, 9, 42, 0
1, 106316, Note_on_c, 9, 37, 0
1, 106316, Note_on_c, 7, 64, 0
1, 106316, Note_on_c, 11, 54, 0
1, 106316, Note_on_c, 11, 47, 0
1, 106316, Note_on_c, 7, 54, 0
1, 106316, Note_on_c, 7, 47, 0
1, 106320, Control_c, 7, 11, 36
1, 106320, Note_on_c, 7, 45, 105
1, 106320, Note_on_c, 7, 52, 111
1, 106320, Note_on_c, 7, 57, 113
1, 106320, Note_on_c, 7, 59, 122
1, 106320, Note_on_c, 11, 45, 105
1, 106320, Note_on_c, 11, 52, 111
1, 106320, Note_on_c, 11, 57, 113
1, 106320, Note_on_c, 11, 59, 122
1, 106352, Control_c, 7, 74, 31
1, 106440, Control_c, 7, 11, 38
1, 106480, Control_c, 7, 74, 32
1, 106560, Control_c, 7, 11, 39
1, 106560, Note_on_c, 9, 42, 102
1, 106604, Note_on_c, 3, 61, 0
1, 106608, Control_c, 7, 74, 33
1, 106680, Control_c, 7, 11, 40
1, 106736, Control_c, 7, 74, 34
1, 106796, Note_on_c, 9, 42, 0
1, 106800, Lyric_t, "I "
1, 106800, Note_on_c, 3, 61, 127
1, 106800, Control_c, 7, 11, 41
1, 106860, Control_c, 7, 74, 35
1, 106920, Control_c, 7, 11, 43
1, 106924, Note_on_c, 3, 61, 0
1, 106988, Control_c, 7, 74, 36
1, 107040, Lyric_t, "get "
1, 107040, Note_on_c, 3, 56, 127
1, 107040, Control_c, 7, 11, 44
1, 107040, Note_on_c, 9, 37, 119
1, 107040, Note_on_c, 9, 42, 119
1, 107116, Control_c, 7, 74, 37
1, 107140, Note_on_c, 3, 56, 0
1, 107160, Lyric_t, "a "
1, 107160, Note_on_c, 3, 54, 127
1, 107160, Control_c, 7, 11, 45
1, 107244, Control_c, 7, 74, 38
1, 107264, Note_on_c, 3, 54, 0
1, 107276, Note_on_c, 9, 42, 0
1, 107276, Note_on_c, 9, 37, 0
1, 107280, Lyric_t, "good "
1, 107280, Note_on_c, 3, 52, 116
1, 107280, Control_c, 7, 11, 46
1, 107368, Control_c, 7, 74, 39
1, 107400, Control_c, 7, 11, 47
1, 107440, Note_on_c, 3, 52, 0
1, 107496, Control_c, 7, 74, 40
1, 107516, Note_on_c, 11, 59, 0
1, 107516, Note_on_c, 11, 57, 0
1, 107516, Note_on_c, 11, 52, 0
1, 107516, Note_on_c, 11, 45, 0
1, 107516, Note_on_c, 7, 59, 0
1, 107516, Note_on_c, 7, 57, 0
1, 107516, Note_on_c, 7, 52, 0
1, 107516, Note_on_c, 7, 45, 0
1, 107520, Lyric_t, "fee"
1, 107520, Note_on_c, 3, 61, 127
1, 107520, Control_c, 7, 11, 49
1, 107520, Note_on_c, 7, 37, 81
1, 107520, Note_on_c, 7, 49, 111
1, 107520, Note_on_c, 7, 56, 109
1, 107520, Note_on_c, 7, 61, 102
1, 107520, Note_on_c, 7, 66, 100
1, 107520, Note_on_c, 9, 42, 115
1, 107520, Note_on_c, 11, 37, 81
1, 107520, Note_on_c, 11, 49, 111
1, 107520, Note_on_c, 11, 56, 109
1, 107520, Note_on_c, 11, 61, 102
1, 107520, Note_on_c, 11, 66, 100
1, 107624, Control_c, 7, 74, 41
1, 107640, Control_c, 7, 11, 50
1, 107648, Note_on_c, 3, 61, 0
1, 107752, Control_c, 7, 74, 42
1, 107756, Note_on_c, 9, 42, 0
1, 107760, Lyric_t, "ling, "
1, 107760, Note_on_c, 3, 61, 127
1, 107760, Control_c, 7, 11, 51
1, 107876, Control_c, 7, 74, 43
1, 107880, Control_c, 7, 11, 52
1, 108000, Control_c, 7, 11, 54
1, 108000, Note_on_c, 9, 37, 127
1, 108000, Note_on_c, 9, 42, 111
1, 108004, Control_c, 7, 74, 44
1, 108008, Note_on_c, 3, 61, 0
1, 108120, Control_c, 7, 11, 55
1, 108132, Control_c, 7, 74, 45
1, 108236, Note_on_c, 9, 42, 0
1, 108236, Note_on_c, 9, 37, 0
1, 108240, Control_c, 7, 11, 56
1, 108260, Control_c, 7, 74, 46
1, 108360, Control_c, 7, 11, 57
1, 108384, Control_c, 7, 74, 47
1, 108476, Note_on_c, 11, 66, 0
1, 108476, Note_on_c, 11, 61, 0
1, 108476, Note_on_c, 11, 56, 0
1, 108476, Note_on_c, 11, 49, 0
1, 108476, Note_on_c, 11, 37, 0
1, 108476, Note_on_c, 7, 66, 0
1, 108476, Note_on_c, 7, 61, 0
1, 108476, Note_on_c, 7, 56, 0
1, 108476, Note_on_c, 7, 49, 0
1, 108476, Note_on_c, 7, 37, 0
1, 108480, Control_c, 7, 11, 58
1, 108480, Note_on_c, 7, 40, 98
1, 108480, Note_on_c, 7, 52, 105
1, 108480, Note_on_c, 7, 56, 96
1, 108480, Note_on_c, 7, 59, 111
1, 108480, Note_on_c, 7, 64, 101
1, 108480, Note_on_c, 9, 42, 104
1, 108480, Note_on_c, 11, 40, 98
1, 108480, Note_on_c, 11, 52, 105
1, 108480, Note_on_c, 11, 56, 96
1, 108480, Note_on_c, 11, 59, 111
1, 108480, Note_on_c, 11, 64, 101
1, 108512, Control_c, 7, 74, 48
1, 108600, Control_c, 7, 11, 60
1, 108640, Control_c, 7, 74, 49
1, 108716, Note_on_c, 9, 42, 0
1, 108720, Control_c, 7, 11, 61
1, 108768, Control_c, 7, 74, 50
1, 108840, Control_c, 7, 11, 62
1, 108892, Control_c, 7, 74, 51
1, 108960, Control_c, 7, 11, 63
1, 108960, Note_on_c, 9, 37, 127
1, 108960, Note_on_c, 9, 42, 119
1, 109020, Control_c, 7, 74, 52
1, 109080, Control_c, 7, 11, 64
1, 109148, Control_c, 7, 74, 53
1, 109196, Note_on_c, 9, 42, 0
1, 109196, Note_on_c, 9, 37, 0
1, 109196, Note_on_c, 11, 59, 0
1, 109196, Note_on_c, 11, 56, 0
1, 109196, Note_on_c, 7, 59, 0
1, 109196, Note_on_c, 7, 56, 0
1, 109200, Lyric_t, "yeah \015"
1, 109200, Note_on_c, 3, 56, 127
1, 109200, Control_c, 7, 11, 66
1, 109276, Control_c, 7, 74, 54
1, 109320, Control_c, 7, 11, 67
1, 109400, Control_c, 7, 74, 55
1, 109436, Note_on_c, 11, 64, 0
1, 109436, Note_on_c, 11, 52, 0
1, 109436, Note_on_c, 11, 40, 0
1, 109436, Note_on_c, 7, 64, 0
1, 109436, Note_on_c, 7, 52, 0
1, 109436, Note_on_c, 7, 40, 0
1, 109440, Control_c, 7, 11, 68
1, 109440, Note_on_c, 7, 47, 94
1, 109440, Note_on_c, 7, 54, 109
1, 109440, Note_on_c, 7, 59, 122
1, 109440, Note_on_c, 7, 63, 98
1, 109440, Note_on_c, 9, 42, 106
1, 109440, Note_on_c, 11, 47, 94
1, 109440, Note_on_c, 11, 54, 109
1, 109440, Note_on_c, 11, 59, 122
1, 109440, Note_on_c, 11, 63, 98
1, 109500, Note_on_c, 3, 56, 0
1, 109528, Control_c, 7, 74, 56
1, 109560, Control_c, 7, 11, 69
1, 109656, Control_c, 7, 74, 57
1, 109676, Note_on_c, 9, 42, 0
1, 109680, Control_c, 7, 11, 71
1, 109784, Control_c, 7, 74, 58
1, 109800, Control_c, 7, 11, 72
1, 109908, Control_c, 7, 74, 59
1, 109916, Note_on_c, 11, 63, 0
1, 109916, Note_on_c, 11, 59, 0
1, 109916, Note_on_c, 7, 63, 0
1, 109916, Note_on_c, 7, 59, 0
1, 109920, Control_c, 7, 11, 73
1, 109920, Note_on_c, 7, 64, 98
1, 109920, Note_on_c, 9, 37, 127
1, 109920, Note_on_c, 9, 42, 119
1, 109920, Note_on_c, 11, 64, 98
1, 110036, Control_c, 7, 74, 60
1, 110040, Control_c, 7, 11, 74
1, 110156, Note_on_c, 11, 64, 0
1, 110156, Note_on_c, 9, 42, 0
1, 110156, Note_on_c, 9, 37, 0
1, 110156, Note_on_c, 7, 64, 0
1, 110156, Note_on_c, 11, 54, 0
1, 110156, Note_on_c, 11, 47, 0
1, 110156, Note_on_c, 7, 54, 0
1, 110156, Note_on_c, 7, 47, 0
1, 110160, Control_c, 7, 11, 75
1, 110160, Note_on_c, 7, 45, 105
1, 110160, Note_on_c, 7, 52, 111
1, 110160, Note_on_c, 7, 57, 113
1, 110160, Note_on_c, 7, 59, 122
1, 110160, Note_on_c, 11, 45, 105
1, 110160, Note_on_c, 11, 52, 111
1, 110160, Note_on_c, 11, 57, 113
1, 110160, Note_on_c, 11, 59, 122
1, 110164, Control_c, 7, 74, 61
1, 110280, Control_c, 7, 11, 77
1, 110292, Control_c, 7, 74, 62
1, 110400, Control_c, 7, 11, 78
1, 110400, Note_on_c, 9, 42, 109
1, 110416, Control_c, 7, 74, 63
1, 110520, Control_c, 7, 11, 79
1, 110544, Control_c, 7, 74, 64
1, 110636, Note_on_c, 9, 42, 0
1, 110640, Control_c, 7, 11, 80
1, 110672, Control_c, 7, 74, 65
1, 110760, Control_c, 7, 11, 81
1, 110800, Control_c, 7, 74, 66
1, 110880, Control_c, 7, 11, 83
1, 110880, Note_on_c, 9, 37, 119
1, 110880, Note_on_c, 9, 42, 119
1, 110924, Control_c, 7, 74, 67
1, 111000, Control_c, 7, 11, 84
1, 111052, Control_c, 7, 74, 68
1, 111116, Note_on_c, 9, 42, 0
1, 111116, Note_on_c, 9, 37, 0
1, 111120, Control_c, 7, 11, 85
1, 111180, Control_c, 7, 74, 69
1, 111240, Control_c, 7, 11, 86
1, 111308, Control_c, 7, 74, 70
1, 111356, Note_on_c, 11, 59, 0
1, 111356, Note_on_c, 11, 57, 0
1, 111356, Note_on_c, 11, 52, 0
1, 111356, Note_on_c, 11, 45, 0
1, 111356, Note_on_c, 7, 59, 0
1, 111356, Note_on_c, 7, 57, 0
1, 111356, Note_on_c, 7, 52, 0
1, 111356, Note_on_c, 7, 45, 0
1, 111360, Control_c, 7, 11, 88
1, 111360, Note_on_c, 7, 37, 81
1, 111360, Note_on_c, 7, 49, 111
1, 111360, Note_on_c, 7, 56, 109
1, 111360, Note_on_c, 7, 61, 102
1, 111360, Note_on_c, 7, 66, 100
1, 111360, Note_on_c, 9, 42, 109
1, 111360, Note_on_c, 11, 37, 81
1, 111360, Note_on_c, 11, 49, 111
1, 111360, Note_on_c, 11, 56, 109
1, 111360, Note_on_c, 11, 61, 102
1, 111360, Note_on_c, 11, 66, 100
1, 111432, Control_c, 7, 74, 71
1, 111480, Control_c, 7, 11, 89
1, 111560, Control_c, 7, 74, 72
1, 111596, Note_on_c, 9, 42, 0
1, 111600, Control_c, 7, 11, 90
1, 111688, Control_c, 7, 74, 73
1, 111720, Control_c, 7, 11, 91
1, 111816, Control_c, 7, 74, 74
1, 111840, Lyric_t, "Get "
1, 111840, Note_on_c, 3, 71, 113
1, 111840, Control_c, 7, 11, 92
1, 111840, Note_on_c, 9, 37, 89
1, 111840, Note_on_c, 9, 42, 119
1, 111940, Control_c, 7, 74, 75
1, 111960, Control_c, 7, 11, 94
1, 112000, Note_on_c, 3, 71, 0
1, 112068, Control_c, 7, 74, 76
1, 112076, Note_on_c, 9, 42, 0
1, 112076, Note_on_c, 9, 37, 0
1, 112080, Lyric_t, "a "
1, 112080, Note_on_c, 3, 68, 104
1, 112080, Control_c, 7, 11, 95
1, 112196, Control_c, 7, 74, 77
1, 112200, Control_c, 7, 11, 96
1, 112248, Note_on_c, 3, 68, 0
1, 112316, Note_on_c, 11, 66, 0
1, 112316, Note_on_c, 11, 61, 0
1, 112316, Note_on_c, 11, 56, 0
1, 112316, Note_on_c, 11, 49, 0
1, 112316, Note_on_c, 11, 37, 0
1, 112316, Note_on_c, 7, 66, 0
1, 112316, Note_on_c, 7, 61, 0
1, 112316, Note_on_c, 7, 56, 0
1, 112316, Note_on_c, 7, 49, 0
1, 112316, Note_on_c, 7, 37, 0
1, 112320, Lyric_t, "fee"
1, 112320, Note_on_c, 3, 71, 116
1, 112320, Control_c, 7, 11, 97
1, 112320, Note_on_c, 7, 40, 98
1, 112320, Note_on_c, 7, 52, 105
1, 112320, Note_on_c, 7, 56, 96
1, 112320, Note_on_c, 7, 59, 111
1, 112320, Note_on_c, 7, 64, 101
1, 112320, Note_on_c, 9, 42, 109
1, 112320, Note_on_c, 11, 40, 98
1, 112320, Note_on_c, 11, 52, 105
1, 112320, Note_on_c, 11, 56, 96
1, 112320, Note_on_c, 11, 59, 111
1, 112320, Note_on_c, 11, 64, 101
1, 112324, Control_c, 7, 74, 78
1, 112440, Control_c, 7, 11, 99
1, 112448, Control_c, 7, 74, 79
1, 112472, Note_on_c, 3, 71, 0
1, 112556, Note_on_c, 9, 42, 0
1, 112560, Lyric_t, "ling "
1, 112560, Note_on_c, 3, 71, 116
1, 112560, Control_c, 7, 11, 100
1, 112576, Control_c, 7, 74, 80
1, 112680, Control_c, 7, 11, 101
1, 112704, Control_c, 7, 74, 81
1, 112712, Note_on_c, 3, 71, 0
1, 112800, Lyric_t, "that "
1, 112800, Note_on_c, 3, 68, 127
1, 112800, Control_c, 7, 11, 102
1, 112800, Note_on_c, 9, 37, 127
1, 112800, Note_on_c, 9, 42, 119
1, 112832, Control_c, 7, 74, 82
1, 112920, Control_c, 7, 11, 103
1, 112924, Note_on_c, 3, 68, 0
1, 112956, Control_c, 7, 74, 83
1, 113036, Note_on_c, 9, 42, 0
1, 113036, Note_on_c, 9, 37, 0
1, 113036, Note_on_c, 11, 59, 0
1, 113036, Note_on_c, 11, 56, 0
1, 113036, Note_on_c, 7, 59, 0
1, 113036, Note_on_c, 7, 56, 0
1, 113040, Lyric_t, "I \015"
1, 113040, Note_on_c, 3, 68, 125
1, 113040, Control_c, 7, 11, 105
1, 113084, Control_c, 7, 74, 84
1, 113160, Control_c, 7, 11, 106
1, 113172, Note_on_c, 3, 68, 0
1, 113212, Control_c, 7, 74, 85
1, 113276, Note_on_c, 11, 64, 0
1, 113276, Note_on_c, 11, 52, 0
1, 113276, Note_on_c, 11, 40, 0
1, 113276, Note_on_c, 7, 64, 0
1, 113276, Note_on_c, 7, 52, 0
1, 113276, Note_on_c, 7, 40, 0
1, 113280, Lyric_t, "ne"
1, 113280, Note_on_c, 3, 73, 127
1, 113280, Control_c, 7, 11, 107
1, 113280, Note_on_c, 7, 47, 94
1, 113280, Note_on_c, 7, 54, 109
1, 113280, Note_on_c, 7, 59, 122
1, 113280, Note_on_c, 7, 63, 98
1, 113280, Note_on_c, 9, 42, 109
1, 113280, Note_on_c, 11, 47, 94
1, 113280, Note_on_c, 11, 54, 109
1, 113280, Note_on_c, 11, 59, 122
1, 113280, Note_on_c, 11, 63, 98
1, 113340, Control_c, 7, 74, 86
1, 113392, Note_on_c, 3, 73, 0
1, 113400, Control_c, 7, 11, 108
1, 113464, Control_c, 7, 74, 87
1, 113516, Note_on_c, 9, 42, 0
1, 113520, Lyric_t, "ver, "
1, 113520, Note_on_c, 3, 73, 109
1, 113520, Control_c, 7, 11, 109
1, 113592, Control_c, 7, 74, 88
1, 113624, Note_on_c, 3, 73, 0
1, 113640, Lyric_t, "ne"
1, 113640, Note_on_c, 3, 71, 116
1, 113640, Control_c, 7, 11, 111
1, 113720, Control_c, 7, 74, 89
1, 113756, Note_on_c, 11, 63, 0
1, 113756, Note_on_c, 11, 59, 0
1, 113756, Note_on_c, 7, 63, 0
1, 113756, Note_on_c, 7, 59, 0
1, 113760, Note_on_c, 3, 71, 0
1, 113760, Control_c, 7, 11, 112
1, 113760, Note_on_c, 7, 64, 98
1, 113760, Note_on_c, 9, 37, 119
1, 113760, Note_on_c, 9, 42, 119
1, 113760, Note_on_c, 11, 64, 98
1, 113848, Control_c, 7, 74, 90
1, 113880, Lyric_t, "ver, "
1, 113880, Note_on_c, 3, 71, 92
1, 113880, Control_c, 7, 11, 113
1, 113960, Note_on_c, 3, 71, 0
1, 113972, Control_c, 7, 74, 91
1, 113996, Note_on_c, 11, 64, 0
1, 113996, Note_on_c, 9, 42, 0
1, 113996, Note_on_c, 9, 37, 0
1, 113996, Note_on_c, 7, 64, 0
1, 113996, Note_on_c, 11, 54, 0
1, 113996, Note_on_c, 11, 47, 0
1, 113996, Note_on_c, 7, 54, 0
1, 113996, Note_on_c, 7, 47, 0
1, 114000, Lyric_t, "ne"
1, 114000, Note_on_c, 3, 68, 125
1, 114000, Control_c, 7, 11, 114
1, 114000, Note_on_c, 7, 45, 105
1, 114000, Note_on_c, 7, 52, 111
1, 114000, Note_on_c, 7, 57, 113
1, 114000, Note_on_c, 7, 59, 122
1, 114000, Note_on_c, 11, 45, 105
1, 114000, Note_on_c, 11, 52, 111
1, 114000, Note_on_c, 11, 57, 113
1, 114000, Note_on_c, 11, 59, 122
1, 114092, Note_on_c, 3, 68, 0
1, 114100, Control_c, 7, 74, 92
1, 114120, Control_c, 7, 11, 116
1, 114228, Control_c, 7, 74, 93
1, 114240, Lyric_t, "ver, "
1, 114240, Note_on_c, 3, 68, 127
1, 114240, Control_c, 7, 11, 117
1, 114240, Note_on_c, 9, 42, 119
1, 114320, Note_on_c, 3, 68, 0
1, 114356, Control_c, 7, 74, 94
1, 114360, Lyric_t, "ne"
1, 114360, Note_on_c, 3, 66, 127
1, 114360, Control_c, 7, 11, 118
1, 114468, Note_on_c, 3, 66, 0
1, 114476, Note_on_c, 9, 42, 0
1, 114480, Control_c, 7, 11, 119
1, 114480, Control_c, 7, 74, 95
1, 114600, Lyric_t, "ver \015"
1, 114600, Note_on_c, 3, 66, 127
1, 114600, Control_c, 7, 11, 120
1, 114608, Control_c, 7, 74, 96
1, 114680, Note_on_c, 3, 66, 0
1, 114720, Lyric_t, "had "
1, 114720, Note_on_c, 3, 64, 103
1, 114720, Control_c, 7, 11, 122
1, 114720, Note_on_c, 9, 37, 127
1, 114720, Note_on_c, 9, 42, 119
1, 114736, Control_c, 7, 74, 97
1, 114808, Note_on_c, 3, 64, 0
1, 114840, Control_c, 7, 11, 123
1, 114864, Control_c, 7, 74, 98
1, 114956, Note_on_c, 9, 42, 0
1, 114956, Note_on_c, 9, 37, 0
1, 114960, Lyric_t, "be"
1, 114960, Note_on_c, 3, 61, 127
1, 114960, Control_c, 7, 11, 124
1, 114988, Control_c, 7, 74, 99
1, 115044, Note_on_c, 3, 61, 0
1, 115080, Control_c, 7, 11, 125
1, 115116, Control_c, 7, 74, 100
1, 115196, Note_on_c, 11, 59, 0
1, 115196, Note_on_c, 11, 57, 0
1, 115196, Note_on_c, 11, 52, 0
1, 115196, Note_on_c, 11, 45, 0
1, 115196, Note_on_c, 7, 59, 0
1, 115196, Note_on_c, 7, 57, 0
1, 115196, Note_on_c, 7, 52, 0
1, 115196, Note_on_c, 7, 45, 0
1, 115200, Lyric_t, "fore, "
1, 115200, Note_on_c, 3, 61, 127
1, 115200, Control_c, 7, 11, 127
1, 115200, Note_on_c, 7, 37, 81
1, 115200, Note_on_c, 7, 49, 111
1, 115200, Note_on_c, 7, 56, 109
1, 115200, Note_on_c, 7, 61, 102
1, 115200, Note_on_c, 7, 66, 100
1, 115200, Note_on_c, 9, 42, 104
1, 115200, Note_on_c, 10, 60, 127
1, 115200, Note_on_c, 11, 37, 81
1, 115200, Note_on_c, 11, 49, 111
1, 115200, Note_on_c, 11, 56, 109
1, 115200, Note_on_c, 11, 61, 102
1, 115200, Note_on_c, 11, 66, 100
1, 115244, Control_c, 7, 74, 101
1, 115372, Control_c, 7, 74, 102
1, 115436, Note_on_c, 9, 42, 0
1, 115496, Control_c, 7, 74, 103
1, 115508, Note_on_c, 3, 61, 0
1, 115624, Control_c, 7, 74, 104
1, 115680, Note_on_c, 9, 37, 115
1, 115680, Note_on_c, 9, 42, 127
1, 115752, Control_c, 7, 74, 105
1, 115880, Control_c, 7, 74, 106
1, 115916, Note_on_c, 9, 42, 0
1, 115916, Note_on_c, 9, 37, 0
1, 115920, Lyric_t, "no "
1, 115920, Note_on_c, 3, 54, 127
1, 116004, Control_c, 7, 74, 107
1, 116052, Note_on_c, 3, 54, 0
1, 116132, Control_c, 7, 74, 108
1, 116156, Note_on_c, 11, 66, 0
1, 116156, Note_on_c, 11, 61, 0
1, 116156, Note_on_c, 11, 56, 0
1, 116156, Note_on_c, 11, 49, 0
1, 116156, Note_on_c, 11, 37, 0
1, 116156, Note_on_c, 7, 66, 0
1, 116156, Note_on_c, 7, 61, 0
1, 116156, Note_on_c, 7, 56, 0
1, 116156, Note_on_c, 7, 49, 0
1, 116156, Note_on_c, 7, 37, 0
1, 116160, Lyric_t, "no, \015"
1, 116160, Note_on_c, 3, 52, 116
1, 116160, Note_on_c, 7, 40, 98
1, 116160, Note_on_c, 7, 52, 105
1, 116160, Note_on_c, 7, 56, 96
1, 116160, Note_on_c, 7, 59, 111
1, 116160, Note_on_c, 7, 64, 101
1, 116160, Note_on_c, 9, 42, 115
1, 116160, Note_on_c, 11, 40, 98
1, 116160, Note_on_c, 11, 52, 105
1, 116160, Note_on_c, 11, 56, 96
1, 116160, Note_on_c, 11, 59, 111
1, 116160, Note_on_c, 11, 64, 101
1, 116260, Note_on_c, 3, 52, 0
1, 116260, Control_c, 7, 74, 109
1, 116388, Control_c, 7, 74, 110
1, 116396, Note_on_c, 9, 42, 0
1, 116400, Lyric_t, "I "
1, 116400, Note_on_c, 3, 59, 127
1, 116512, Note_on_c, 3, 59, 0
1, 116512, Control_c, 7, 74, 111
1, 116640, Lyric_t, "get "
1, 116640, Note_on_c, 3, 56, 127
1, 116640, Control_c, 7, 74, 112
1, 116640, Note_on_c, 9, 37, 127
1, 116640, Note_on_c, 9, 42, 119
1, 116728, Note_on_c, 3, 56, 0
1, 116760, Lyric_t, "a "
1, 116760, Note_on_c, 3, 54, 125
1, 116768, Control_c, 7, 74, 113
1, 116848, Note_on_c, 3, 54, 0
1, 116876, Note_on_c, 9, 42, 0
1, 116876, Note_on_c, 9, 37, 0
1, 116876, Note_on_c, 11, 59, 0
1, 116876, Note_on_c, 11, 56, 0
1, 116876, Note_on_c, 7, 59, 0
1, 116876, Note_on_c, 7, 56, 0
1, 116880, Lyric_t, "good "
1, 116880, Note_on_c, 3, 52, 95
1, 116896, Control_c, 7, 74, 114
1, 117008, Note_on_c, 3, 52, 0
1, 117020, Control_c, 7, 74, 115
1, 117116, Note_on_c, 11, 64, 0
1, 117116, Note_on_c, 11, 52, 0
1, 117116, Note_on_c, 11, 40, 0
1, 117116, Note_on_c, 7, 64, 0
1, 117116, Note_on_c, 7, 52, 0
1, 117116, Note_on_c, 7, 40, 0
1, 117120, Lyric_t, "fee"
1, 117120, Note_on_c, 3, 61, 119
1, 117120, Note_on_c, 7, 47, 94
1, 117120, Note_on_c, 7, 54, 109
1, 117120, Note_on_c, 7, 59, 122
1, 117120, Note_on_c, 7, 63, 98
1, 117120, Note_on_c, 9, 42, 119
1, 117120, Note_on_c, 11, 47, 94
1, 117120, Note_on_c, 11, 54, 109
1, 117120, Note_on_c, 11, 59, 122
1, 117120, Note_on_c, 11, 63, 98
1, 117148, Control_c, 7, 74, 116
1, 117248, Note_on_c, 3, 61, 0
1, 117276, Control_c, 7, 74, 117
1, 117356, Note_on_c, 9, 42, 0
1, 117360, Lyric_t, "ling, "
1, 117360, Note_on_c, 3, 61, 127
1, 117404, Control_c, 7, 74, 118
1, 117528, Control_c, 7, 74, 119
1, 117544, Note_on_c, 3, 61, 0
1, 117596, Note_on_c, 11, 63, 0
1, 117596, Note_on_c, 11, 59, 0
1, 117596, Note_on_c, 7, 63, 0
1, 117596, Note_on_c, 7, 59, 0
1, 117600, Note_on_c, 7, 64, 98
1, 117600, Note_on_c, 9, 37, 127
1, 117600, Note_on_c, 9, 42, 125
1, 117600, Note_on_c, 11, 64, 98
1, 117656, Control_c, 7, 74, 120
1, 117784, Control_c, 7, 74, 121
1, 117836, Note_on_c, 11, 64, 0
1, 117836, Note_on_c, 9, 42, 0
1, 117836, Note_on_c, 9, 37, 0
1, 117836, Note_on_c, 7, 64, 0
1, 117836, Note_on_c, 11, 54, 0
1, 117836, Note_on_c, 11, 47, 0
1, 117836, Note_on_c, 7, 54, 0
1, 117836, Note_on_c, 7, 47, 0
1, 117840, Lyric_t, "yeah \015"
1, 117840, Note_on_c, 3, 56, 127
1, 117840, Note_on_c, 7, 45, 105
1, 117840, Note_on_c, 7, 52, 111
1, 117840, Note_on_c, 7, 57, 113
1, 117840, Note_on_c, 7, 59, 122
1, 117840, Note_on_c, 11, 45, 105
1, 117840, Note_on_c, 11, 52, 111
1, 117840, Note_on_c, 11, 57, 113
1, 117840, Note_on_c, 11, 59, 122
1, 117912, Control_c, 7, 74, 122
1, 118036, Control_c, 7, 74, 123
1, 118080, Note_on_c, 9, 42, 119
1, 118116, Note_on_c, 3, 56, 0
1, 118164, Control_c, 7, 74, 124
1, 118292, Control_c, 7, 74, 125
1, 118316, Note_on_c, 9, 42, 0
1, 118420, Control_c, 7, 74, 126
1, 118560, Note_on_c, 9, 37, 127
1, 118560, Note_on_c, 9, 42, 127
1, 118796, Note_on_c, 9, 42, 0
1, 118796, Note_on_c, 9, 37, 0
1, 118916, Note_on_c, 10, 60, 0
1, 118920, Control_c, 7, 74, 65
1, 119036, Note_on_c, 11, 59, 0
1, 119036, Note_on_c, 11, 57, 0
1, 119036, Note_on_c, 11, 52, 0
1, 119036, Note_on_c, 11, 45, 0
1, 119036, Note_on_c, 7, 59, 0
1, 119036, Note_on_c, 7, 57, 0
1, 119036, Note_on_c, 7, 52, 0
1, 119036, Note_on_c, 7, 45, 0
1, 119036, Note_on_c, 5, 68, 0
1, 119036, Note_on_c, 5, 56, 0
1, 119040, Control_c, 0, 71, 15
1, 119040, Note_on_c, 0, 49, 92
1, 119040, Note_on_c, 0, 56, 91
1, 119040, Note_on_c, 0, 61, 87
1, 119040, Note_on_c, 0, 64, 98
1, 119040, Note_on_c, 2, 49, 92
1, 119040, Note_on_c, 2, 56, 91
1, 119040, Note_on_c, 2, 61, 87
1, 119040, Note_on_c, 2, 64, 98
1, 119040, Note_on_c, 5, 68, 115
1, 119040, Note_on_c, 5, 80, 98
1, 119040, Note_on_c, 7, 61, 127
1, 119040, Note_on_c, 9, 36, 127
1, 119040, Note_on_c, 9, 49, 127
1, 119040, Note_on_c, 12, 64, 109
1, 119040, Note_on_c, 12, 76, 105
1, 119040, Note_on_c, 15, 36, 127
1, 119096, Note_on_c, 7, 61, 0
1, 119160, Note_on_c, 7, 73, 115
1, 119216, Note_on_c, 7, 73, 0
1, 119276, Note_on_c, 9, 49, 0
1, 119276, Note_on_c, 9, 36, 0
1, 119280, Note_on_c, 7, 76, 91
1, 119340, Note_on_c, 7, 76, 0
1, 119400, Note_on_c, 7, 61, 115
1, 119460, Note_on_c, 7, 61, 0
1, 119520, Note_on_c, 7, 73, 125
1, 119520, Note_on_c, 9, 36, 127
1, 119520, Note_on_c, 9, 49, 94
1, 119520, Note_on_c, 9, 51, 127
1, 119580, Note_on_c, 7, 73, 0
1, 119640, Note_on_c, 7, 76, 94
1, 119664, Control_c, 0, 71, 16
1, 119696, Note_on_c, 7, 76, 0
1, 119756, Note_on_c, 9, 51, 0
1, 119756, Note_on_c, 9, 49, 0
1, 119756, Note_on_c, 9, 36, 0
1, 119760, Note_on_c, 7, 61, 125
1, 119816, Note_on_c, 7, 61, 0
1, 119880, Note_on_c, 7, 73, 115
1, 119940, Note_on_c, 7, 73, 0
1, 119980, Control_c, 0, 71, 17
1, 119996, Note_on_c, 2, 64, 0
1, 119996, Note_on_c, 2, 61, 0
1, 119996, Note_on_c, 2, 56, 0
1, 119996, Note_on_c, 2, 49, 0
1, 119996, Note_on_c, 0, 64, 0
1, 119996, Note_on_c, 0, 61, 0
1, 119996, Note_on_c, 0, 56, 0
1, 119996, Note_on_c, 0, 49, 0
1, 120000, Note_on_c, 0, 52, 98
1, 120000, Note_on_c, 0, 56, 92
1, 120000, Note_on_c, 0, 59, 116
1, 120000, Note_on_c, 0, 64, 107
1, 120000, Note_on_c, 2, 52, 98
1, 120000, Note_on_c, 2, 56, 92
1, 120000, Note_on_c, 2, 59, 116
1, 120000, Note_on_c, 2, 64, 107
1, 120000, Note_on_c, 7, 80, 127
1, 120000, Note_on_c, 9, 36, 127
1, 120000, Note_on_c, 9, 49, 76
1, 120000, Note_on_c, 9, 51, 127
1, 120056, Note_on_c, 7, 80, 0
1, 120120, Note_on_c, 7, 61, 84
1, 120176, Note_on_c, 7, 61, 0
1, 120236, Note_on_c, 9, 51, 0
1, 120236, Note_on_c, 9, 49, 0
1, 120236, Note_on_c, 9, 36, 0
1, 120240, Note_on_c, 7, 73, 125
1, 120292, Control_c, 0, 71, 18
1, 120296, Note_on_c, 7, 73, 0
1, 120360, Note_on_c, 7, 81, 116
1, 120416, Note_on_c, 7, 81, 0
1, 120480, Note_on_c, 7, 61, 109
1, 120480, Note_on_c, 9, 36, 127
1, 120480, Note_on_c, 9, 49, 62
1, 120480, Note_on_c, 9, 51, 125
1, 120536, Note_on_c, 7, 61, 0
1, 120600, Note_on_c, 7, 73, 115
1, 120604, Control_c, 0, 71, 19
1, 120656, Note_on_c, 7, 73, 0
1, 120716, Note_on_c, 9, 51, 0
1, 120716, Note_on_c, 9, 49, 0
1, 120716, Note_on_c, 9, 36, 0
1, 120720, Note_on_c, 7, 80, 119
1, 120780, Note_on_c, 7, 80, 0
1, 120836, Note_on_c, 12, 76, 0
1, 120840, Note_on_c, 7, 64, 127
1, 120840, Note_on_c, 12, 63, 109
1, 120840, Note_on_c, 12, 75, 91
1, 120900, Note_on_c, 7, 64, 0
1, 120916, Control_c, 0, 71, 20
1, 120956, Note_on_c, 2, 64, 0
1, 120956, Note_on_c, 2, 59, 0
1, 120956, Note_on_c, 2, 56, 0
1, 120956, Note_on_c, 2, 52, 0
1, 120956, Note_on_c, 0, 64, 0
1, 120956, Note_on_c, 0, 59, 0
1, 120956, Note_on_c, 0, 56, 0
1, 120956, Note_on_c, 0, 52, 0
1, 120956, Note_on_c, 15, 36, 0
1, 120956, Note_on_c, 12, 64, 0
1, 120960, Note_on_c, 0, 47, 98
1, 120960, Note_on_c, 0, 54, 115
1, 120960, Note_on_c, 0, 59, 116
1, 120960, Note_on_c, 0, 63, 94
1, 120960, Note_on_c, 2, 47, 98
1, 120960, Note_on_c, 2, 54, 115
1, 120960, Note_on_c, 2, 59, 116
1, 120960, Note_on_c, 2, 63, 94
1, 120960, Note_on_c, 7, 61, 127
1, 120960, Note_on_c, 9, 36, 127
1, 120960, Note_on_c, 9, 49, 51
1, 120960, Note_on_c, 9, 51, 127
1, 121016, Note_on_c, 7, 61, 0
1, 121080, Note_on_c, 7, 73, 115
1, 121136, Note_on_c, 7, 73, 0
1, 121196, Note_on_c, 9, 51, 0
1, 121196, Note_on_c, 9, 49, 0
1, 121196, Note_on_c, 9, 36, 0
1, 121200, Note_on_c, 7, 76, 91
1, 121232, Control_c, 0, 71, 21
1, 121260, Note_on_c, 7, 76, 0
1, 121320, Note_on_c, 7, 61, 115
1, 121380, Note_on_c, 7, 61, 0
1, 121440, Note_on_c, 7, 73, 125
1, 121440, Note_on_c, 9, 36, 127
1, 121440, Note_on_c, 9, 49, 26
1, 121440, Note_on_c, 9, 51, 127
1, 121500, Note_on_c, 7, 73, 0
1, 121544, Control_c, 0, 71, 22
1, 121560, Note_on_c, 7, 76, 94
1, 121616, Note_on_c, 7, 76, 0
1, 121676, Note_on_c, 9, 51, 0
1, 121676, Note_on_c, 9, 49, 0
1, 121676, Note_on_c, 9, 36, 0
1, 121676, Note_on_c, 2, 63, 0
1, 121676, Note_on_c, 2, 59, 0
1, 121676, Note_on_c, 2, 54, 0
1, 121676, Note_on_c, 2, 47, 0
1, 121676, Note_on_c, 0, 63, 0
1, 121676, Note_on_c, 0, 59, 0
1, 121676, Note_on_c, 0, 54, 0
1, 121676, Note_on_c, 0, 47, 0
1, 121676, Note_on_c, 12, 75, 0
1, 121676, Note_on_c, 12, 63, 0
1, 121680, Note_on_c, 0, 45, 101
1, 121680, Note_on_c, 0, 57, 111
1, 121680, Note_on_c, 0, 59, 116
1, 121680, Note_on_c, 0, 61, 98
1, 121680, Note_on_c, 0, 64, 111
1, 121680, Note_on_c, 2, 45, 101
1, 121680, Note_on_c, 2, 57, 111
1, 121680, Note_on_c, 2, 59, 116
1, 121680, Note_on_c, 2, 61, 98
1, 121680, Note_on_c, 2, 64, 111
1, 121680, Note_on_c, 7, 61, 125
1, 121680, Note_on_c, 12, 64, 97
1, 121680, Note_on_c, 12, 76, 109
1, 121736, Note_on_c, 7, 61, 0
1, 121800, Note_on_c, 7, 73, 115
1, 121856, Control_c, 0, 71, 23
1, 121860, Note_on_c, 7, 73, 0
1, 121920, Note_on_c, 7, 80, 127
1, 121920, Note_on_c, 9, 36, 127
1, 121920, Note_on_c, 9, 49, 16
1, 121920, Note_on_c, 9, 51, 127
1, 121976, Note_on_c, 7, 80, 0
1, 122040, Note_on_c, 7, 61, 84
1, 122096, Note_on_c, 7, 61, 0
1, 122156, Note_on_c, 9, 51, 0
1, 122156, Note_on_c, 9, 49, 0
1, 122156, Note_on_c, 9, 36, 0
1, 122160, Note_on_c, 7, 73, 125
1, 122168, Control_c, 0, 71, 24
1, 122216, Note_on_c, 7, 73, 0
1, 122280, Note_on_c, 7, 81, 116
1, 122336, Note_on_c, 7, 81, 0
1, 122400, Note_on_c, 7, 61, 109
1, 122400, Note_on_c, 9, 36, 127
1, 122400, Note_on_c, 9, 49, 28
1, 122400, Note_on_c, 9, 51, 127
1, 122456, Note_on_c, 7, 61, 0
1, 122484, Control_c, 0, 71, 25
1, 122520, Note_on_c, 7, 73, 115
1, 122576, Note_on_c, 7, 73, 0
1, 122636, Note_on_c, 9, 51, 0
1, 122636, Note_on_c, 9, 49, 0
1, 122636, Note_on_c, 9, 36, 0
1, 122636, Note_on_c, 2, 64, 0
1, 122636, Note_on_c, 2, 57, 0
1, 122636, Note_on_c, 0, 64, 0
1, 122636, Note_on_c, 0, 57, 0
1, 122640, Note_on_c, 7, 80, 119
1, 122700, Note_on_c, 7, 80, 0
1, 122760, Note_on_c, 7, 64, 127
1, 122796, Control_c, 0, 71, 26
1, 122820, Note_on_c, 7, 64, 0
1, 122876, Note_on_c, 12, 76, 0
1, 122876, Note_on_c, 12, 64, 0
1, 122876, Note_on_c, 2, 61, 0
1, 122876, Note_on_c, 2, 59, 0
1, 122876, Note_on_c, 2, 45, 0
1, 122876, Note_on_c, 0, 61, 0
1, 122876, Note_on_c, 0, 59, 0
1, 122876, Note_on_c, 0, 45, 0
1, 122880, Note_on_c, 0, 49, 109
1, 122880, Note_on_c, 0, 56, 115
1, 122880, Note_on_c, 0, 61, 102
1, 122880, Note_on_c, 0, 64, 86
1, 122880, Note_on_c, 2, 49, 109
1, 122880, Note_on_c, 2, 56, 115
1, 122880, Note_on_c, 2, 61, 102
1, 122880, Note_on_c, 2, 64, 86
1, 122880, Note_on_c, 7, 61, 127
1, 122880, Note_on_c, 9, 36, 127
1, 122880, Note_on_c, 9, 51, 127
1, 122880, Note_on_c, 12, 71, 105
1, 122880, Note_on_c, 12, 83, 111
1, 122936, Note_on_c, 7, 61, 0
1, 123000, Note_on_c, 7, 73, 115
1, 123056, Note_on_c, 7, 73, 0
1, 123108, Control_c, 0, 71, 27
1, 123116, Note_on_c, 9, 51, 0
1, 123116, Note_on_c, 9, 36, 0
1, 123120, Note_on_c, 7, 76, 91
1, 123180, Note_on_c, 7, 76, 0
1, 123240, Note_on_c, 7, 61, 115
1, 123300, Note_on_c, 7, 61, 0
1, 123360, Note_on_c, 7, 73, 125
1, 123360, Note_on_c, 9, 36, 127
1, 123360, Note_on_c, 9, 51, 119
1, 123420, Note_on_c, 7, 73, 0
1, 123420, Control_c, 0, 71, 28
1, 123480, Note_on_c, 7, 76, 94
1, 123536, Note_on_c, 7, 76, 0
1, 123596, Note_on_c, 9, 51, 0
1, 123596, Note_on_c, 9, 36, 0
1, 123596, Note_on_c, 2, 64, 0
1, 123596, Note_on_c, 2, 56, 0
1, 123596, Note_on_c, 0, 64, 0
1, 123596, Note_on_c, 0, 56, 0
1, 123600, Note_on_c, 7, 61, 125
1, 123656, Note_on_c, 7, 61, 0
1, 123720, Note_on_c, 7, 73, 115
1, 123736, Control_c, 0, 71, 29
1, 123780, Note_on_c, 7, 73, 0
1, 123836, Note_on_c, 12, 83, 0
1, 123836, Note_on_c, 12, 71, 0
1, 123836, Note_on_c, 2, 61, 0
1, 123836, Note_on_c, 2, 49, 0
1, 123836, Note_on_c, 0, 61, 0
1, 123836, Note_on_c, 0, 49, 0
1, 123840, Note_on_c, 0, 52, 95
1, 123840, Note_on_c, 0, 56, 102
1, 123840, Note_on_c, 0, 59, 119
1, 123840, Note_on_c, 0, 64, 109
1, 123840, Note_on_c, 2, 52, 95
1, 123840, Note_on_c, 2, 56, 102
1, 123840, Note_on_c, 2, 59, 119
1, 123840, Note_on_c, 2, 64, 109
1, 123840, Note_on_c, 7, 80, 127
1, 123840, Note_on_c, 9, 36, 127
1, 123840, Note_on_c, 9, 51, 127
1, 123840, Note_on_c, 12, 68, 127
1, 123840, Note_on_c, 12, 80, 119
1, 123896, Note_on_c, 7, 80, 0
1, 123960, Note_on_c, 7, 61, 84
1, 124016, Note_on_c, 7, 61, 0
1, 124048, Control_c, 0, 71, 30
1, 124076, Note_on_c, 9, 51, 0
1, 124076, Note_on_c, 9, 36, 0
1, 124080, Note_on_c, 7, 73, 125
1, 124136, Note_on_c, 7, 73, 0
1, 124200, Note_on_c, 7, 81, 116
1, 124256, Note_on_c, 7, 81, 0
1, 124320, Note_on_c, 7, 61, 109
1, 124320, Note_on_c, 9, 36, 127
1, 124320, Note_on_c, 9, 51, 127
1, 124360, Control_c, 0, 71, 31
1, 124376, Note_on_c, 7, 61, 0
1, 124440, Note_on_c, 7, 73, 115
1, 124496, Note_on_c, 7, 73, 0
1, 124556, Note_on_c, 9, 51, 0
1, 124556, Note_on_c, 9, 36, 0
1, 124556, Note_on_c, 2, 64, 0
1, 124556, Note_on_c, 2, 59, 0
1, 124556, Note_on_c, 2, 56, 0
1, 124556, Note_on_c, 0, 64, 0
1, 124556, Note_on_c, 0, 59, 0
1, 124556, Note_on_c, 0, 56, 0
1, 124560, Note_on_c, 7, 80, 119
1, 124620, Note_on_c, 7, 80, 0
1, 124672, Control_c, 0, 71, 32
1, 124680, Note_on_c, 7, 64, 127
1, 124740, Note_on_c, 7, 64, 0
1, 124796, Note_on_c, 12, 80, 0
1, 124796, Note_on_c, 12, 68, 0
1, 124796, Note_on_c, 2, 52, 0
1, 124796, Note_on_c, 0, 52, 0
1, 124800, Note_on_c, 0, 47, 101
1, 124800, Note_on_c, 0, 54, 111
1, 124800, Note_on_c, 0, 59, 118
1, 124800, Note_on_c, 0, 63, 87
1, 124800, Note_on_c, 2, 47, 101
1, 124800, Note_on_c, 2, 54, 111
1, 124800, Note_on_c, 2, 59, 118
1, 124800, Note_on_c, 2, 63, 87
1, 124800, Note_on_c, 7, 61, 127
1, 124800, Note_on_c, 9, 36, 127
1, 124800, Note_on_c, 9, 51, 127
1, 124800, Note_on_c, 12, 66, 119
1, 124800, Note_on_c, 12, 78, 127
1, 124856, Note_on_c, 7, 61, 0
1, 124920, Note_on_c, 7, 73, 115
1, 124976, Note_on_c, 7, 73, 0
1, 124988, Control_c, 0, 71, 33
1, 125036, Note_on_c, 9, 51, 0
1, 125036, Note_on_c, 9, 36, 0
1, 125040, Note_on_c, 7, 76, 91
1, 125100, Note_on_c, 7, 76, 0
1, 125160, Note_on_c, 7, 61, 115
1, 125220, Note_on_c, 7, 61, 0
1, 125276, Note_on_c, 12, 78, 0
1, 125276, Note_on_c, 12, 66, 0
1, 125276, Note_on_c, 2, 59, 0
1, 125276, Note_on_c, 2, 54, 0
1, 125276, Note_on_c, 0, 59, 0
1, 125276, Note_on_c, 0, 54, 0
1, 125280, Note_on_c, 7, 73, 125
1, 125280, Note_on_c, 9, 36, 127
1, 125280, Note_on_c, 9, 51, 127
1, 125280, Note_on_c, 12, 68, 109
1, 125280, Note_on_c, 12, 80, 127
1, 125300, Control_c, 0, 71, 34
1, 125340, Note_on_c, 7, 73, 0
1, 125400, Note_on_c, 7, 76, 94
1, 125456, Note_on_c, 7, 76, 0
1, 125516, Note_on_c, 12, 80, 0
1, 125516, Note_on_c, 12, 68, 0
1, 125516, Note_on_c, 9, 51, 0
1, 125516, Note_on_c, 9, 36, 0
1, 125516, Note_on_c, 2, 63, 0
1, 125516, Note_on_c, 2, 47, 0
1, 125516, Note_on_c, 0, 63, 0
1, 125516, Note_on_c, 0, 47, 0
1, 125520, Note_on_c, 0, 45, 103
1, 125520, Note_on_c, 0, 57, 105
1, 125520, Note_on_c, 0, 59, 101
1, 125520, Note_on_c, 0, 61, 89
1, 125520, Note_on_c, 0, 64, 101
1, 125520, Note_on_c, 2, 45, 103
1, 125520, Note_on_c, 2, 57, 105
1, 125520, Note_on_c, 2, 59, 101
1, 125520, Note_on_c, 2, 61, 89
1, 125520, Note_on_c, 2, 64, 101
1, 125520, Note_on_c, 7, 61, 125
1, 125520, Note_on_c, 12, 64, 125
1, 125520, Note_on_c, 12, 76, 116
1, 125576, Note_on_c, 7, 61, 0
1, 125612, Control_c, 0, 71, 35
1, 125640, Note_on_c, 7, 73, 115
1, 125700, Note_on_c, 7, 73, 0
1, 125760, Note_on_c, 7, 80, 127
1, 125760, Note_on_c, 9, 36, 127
1, 125760, Note_on_c, 9, 51, 127
1, 125816, Note_on_c, 7, 80, 0
1, 125880, Note_on_c, 7, 61, 84
1, 125924, Control_c, 0, 71, 36
1, 125936, Note_on_c, 7, 61, 0
1, 125996, Note_on_c, 9, 51, 0
1, 125996, Note_on_c, 9, 36, 0
1, 126000, Note_on_c, 7, 73, 125
1, 126056, Note_on_c, 7, 73, 0
1, 126120, Note_on_c, 7, 81, 116
1, 126176, Note_on_c, 7, 81, 0
1, 126240, Control_c, 0, 71, 37
1, 126240, Note_on_c, 7, 61, 109
1, 126240, Note_on_c, 9, 36, 127
1, 126240, Note_on_c, 9, 51, 119
1, 126296, Note_on_c, 7, 61, 0
1, 126360, Note_on_c, 7, 73, 115
1, 126416, Note_on_c, 7, 73, 0
1, 126476, Note_on_c, 9, 51, 0
1, 126476, Note_on_c, 9, 36, 0
1, 126480, Note_on_c, 7, 80, 119
1, 126540, Note_on_c, 7, 80, 0
1, 126552, Control_c, 0, 71, 38
1, 126596, Note_on_c, 5, 80, 0
1, 126596, Note_on_c, 5, 68, 0
1, 126600, Note_on_c, 7, 64, 127
1, 126660, Note_on_c, 7, 64, 0
1, 126716, Note_on_c, 12, 76, 0
1, 126716, Note_on_c, 12, 64, 0
1, 126716, Note_on_c, 2, 64, 0
1, 126716, Note_on_c, 2, 61, 0
1, 126716, Note_on_c, 2, 59, 0
1, 126716, Note_on_c, 2, 57, 0
1, 126716, Note_on_c, 2, 45, 0
1, 126716, Note_on_c, 0, 64, 0
1, 126716, Note_on_c, 0, 61, 0
1, 126716, Note_on_c, 0, 59, 0
1, 126716, Note_on_c, 0, 57, 0
1, 126716, Note_on_c, 0, 45, 0
1, 126720, Note_on_c, 0, 49, 92
1, 126720, Note_on_c, 0, 56, 91
1, 126720, Note_on_c, 0, 61, 87
1, 126720, Note_on_c, 0, 64, 98
1, 126720, Note_on_c, 2, 49, 92
1, 126720, Note_on_c, 2, 56, 91
1, 126720, Note_on_c, 2, 61, 87
1, 126720, Note_on_c, 2, 64, 98
1, 126720, Note_on_c, 5, 68, 100
1, 126720, Note_on_c, 5, 80, 98
1, 126720, Note_on_c, 7, 61, 127
1, 126720, Note_on_c, 9, 36, 127
1, 126720, Note_on_c, 9, 51, 127
1, 126720, Note_on_c, 12, 64, 109
1, 126720, Note_on_c, 12, 76, 105
1, 126776, Note_on_c, 7, 61, 0
1, 126840, Note_on_c, 7, 73, 115
1, 126864, Control_c, 0, 71, 39
1, 126896, Note_on_c, 7, 73, 0
1, 126956, Note_on_c, 9, 51, 0
1, 126956, Note_on_c, 9, 36, 0
1, 126960, Note_on_c, 7, 76, 91
1, 127020, Note_on_c, 7, 76, 0
1, 127080, Note_on_c, 7, 61, 115
1, 127140, Note_on_c, 7, 61, 0
1, 127176, Control_c, 0, 71, 40
1, 127200, Note_on_c, 7, 73, 125
1, 127200, Note_on_c, 9, 36, 127
1, 127200, Note_on_c, 9, 51, 127
1, 127260, Note_on_c, 7, 73, 0
1, 127320, Note_on_c, 7, 76, 94
1, 127376, Note_on_c, 7, 76, 0
1, 127436, Note_on_c, 9, 51, 0
1, 127436, Note_on_c, 9, 36, 0
1, 127440, Note_on_c, 7, 61, 125
1, 127492, Control_c, 0, 71, 41
1, 127496, Note_on_c, 7, 61, 0
1, 127560, Note_on_c, 7, 73, 115
1, 127620, Note_on_c, 7, 73, 0
1, 127676, Note_on_c, 2, 64, 0
1, 127676, Note_on_c, 2, 61, 0
1, 127676, Note_on_c, 2, 56, 0
1, 127676, Note_on_c, 2, 49, 0
1, 127676, Note_on_c, 0, 64, 0
1, 127676, Note_on_c, 0, 61, 0
1, 127676, Note_on_c, 0, 56, 0
1, 127676, Note_on_c, 0, 49, 0
1, 127680, Note_on_c, 0, 52, 98
1, 127680, Note_on_c, 0, 56, 92
1, 127680, Note_on_c, 0, 59, 116
1, 127680, Note_on_c, 0, 64, 107
1, 127680, Note_on_c, 2, 52, 98
1, 127680, Note_on_c, 2, 56, 92
1, 127680, Note_on_c, 2, 59, 116
1, 127680, Note_on_c, 2, 64, 107
1, 127680, Note_on_c, 7, 80, 127
1, 127680, Note_on_c, 9, 36, 127
1, 127680, Note_on_c, 9, 51, 127
1, 127736, Note_on_c, 7, 80, 0
1, 127800, Note_on_c, 7, 61, 84
1, 127804, Control_c, 0, 71, 42
1, 127856, Note_on_c, 7, 61, 0
1, 127916, Note_on_c, 9, 51, 0
1, 127916, Note_on_c, 9, 36, 0
1, 127920, Note_on_c, 7, 73, 125
1, 127976, Note_on_c, 7, 73, 0
1, 128040, Note_on_c, 7, 81, 116
1, 128096, Note_on_c, 7, 81, 0
1, 128116, Control_c, 0, 71, 43
1, 128160, Note_on_c, 7, 61, 109
1, 128160, Note_on_c, 9, 36, 127
1, 128160, Note_on_c, 9, 51, 127
1, 128216, Note_on_c, 7, 61, 0
1, 128280, Note_on_c, 7, 73, 115
1, 128336, Note_on_c, 7, 73, 0
1, 128396, Note_on_c, 9, 51, 0
1, 128396, Note_on_c, 9, 36, 0
1, 128400, Note_on_c, 7, 80, 119
1, 128428, Control_c, 0, 71, 44
1, 128460, Note_on_c, 7, 80, 0
1, 128516, Note_on_c, 12, 76, 0
1, 128520, Note_on_c, 7, 64, 127
1, 128520, Note_on_c, 12, 63, 109
1, 128520, Note_on_c, 12, 75, 91
1, 128580, Note_on_c, 7, 64, 0
1, 128636, Note_on_c, 2, 64, 0
1, 128636, Note_on_c, 2, 59, 0
1, 128636, Note_on_c, 2, 56, 0
1, 128636, Note_on_c, 2, 52, 0
1, 128636, Note_on_c, 0, 64, 0
1, 128636, Note_on_c, 0, 59, 0
1, 128636, Note_on_c, 0, 56, 0
1, 128636, Note_on_c, 0, 52, 0
1, 128636, Note_on_c, 12, 64, 0
1, 128640, Note_on_c, 0, 47, 98
1, 128640, Note_on_c, 0, 54, 115
1, 128640, Note_on_c, 0, 59, 116
1, 128640, Note_on_c, 0, 63, 94
1, 128640, Note_on_c, 2, 47, 98
1, 128640, Note_on_c, 2, 54, 115
1, 128640, Note_on_c, 2, 59, 116
1, 128640, Note_on_c, 2, 63, 94
1, 128640, Note_on_c, 7, 61, 127
1, 128640, Note_on_c, 9, 36, 127
1, 128640, Note_on_c, 9, 51, 127
1, 128696, Note_on_c, 7, 61, 0
1, 128744, Control_c, 0, 71, 45
1, 128760, Note_on_c, 7, 73, 115
1, 128816, Note_on_c, 7, 73, 0
1, 128876, Note_on_c, 9, 51, 0
1, 128876, Note_on_c, 9, 36, 0
1, 128880, Note_on_c, 7, 76, 91
1, 128940, Note_on_c, 7, 76, 0
1, 129000, Note_on_c, 7, 61, 115
1, 129056, Control_c, 0, 71, 46
1, 129060, Note_on_c, 7, 61, 0
1, 129120, Note_on_c, 7, 73, 125
1, 129120, Note_on_c, 9, 36, 127
1, 129120, Note_on_c, 9, 51, 127
1, 129180, Note_on_c, 7, 73, 0
1, 129240, Note_on_c, 7, 76, 94
1, 129296, Note_on_c, 7, 76, 0
1, 129356, Note_on_c, 9, 51, 0
1, 129356, Note_on_c, 9, 36, 0
1, 129356, Note_on_c, 2, 63, 0
1, 129356, Note_on_c, 2, 59, 0
1, 129356, Note_on_c, 2, 54, 0
1, 129356, Note_on_c, 2, 47, 0
1, 129356, Note_on_c, 0, 63, 0
1, 129356, Note_on_c, 0, 59, 0
1, 129356, Note_on_c, 0, 54, 0
1, 129356, Note_on_c, 0, 47, 0
1, 129356, Note_on_c, 12, 75, 0
1, 129356, Note_on_c, 12, 63, 0
1, 129360, Note_on_c, 0, 45, 101
1, 129360, Note_on_c, 0, 57, 111
1, 129360, Note_on_c, 0, 59, 116
1, 129360, Note_on_c, 0, 61, 98
1, 129360, Note_on_c, 0, 64, 111
1, 129360, Note_on_c, 2, 45, 101
1, 129360, Note_on_c, 2, 57, 111
1, 129360, Note_on_c, 2, 59, 116
1, 129360, Note_on_c, 2, 61, 98
1, 129360, Note_on_c, 2, 64, 111
1, 129360, Note_on_c, 7, 61, 125
1, 129360, Note_on_c, 12, 64, 97
1, 129360, Note_on_c, 12, 76, 109
1, 129368, Control_c, 0, 71, 47
1, 129416, Note_on_c, 7, 61, 0
1, 129480, Note_on_c, 7, 73, 115
1, 129540, Note_on_c, 7, 73, 0
1, 129600, Note_on_c, 7, 80, 127
1, 129600, Note_on_c, 9, 36, 127
1, 129600, Note_on_c, 9, 51, 127
1, 129656, Note_on_c, 7, 80, 0
1, 129680, Control_c, 0, 71, 48
1, 129720, Note_on_c, 7, 61, 84
1, 129776, Note_on_c, 7, 61, 0
1, 129836, Note_on_c, 9, 51, 0
1, 129836, Note_on_c, 9, 36, 0
1, 129840, Note_on_c, 7, 73, 125
1, 129896, Note_on_c, 7, 73, 0
1, 129960, Note_on_c, 7, 81, 116
1, 129996, Control_c, 0, 71, 49
1, 130016, Note_on_c, 7, 81, 0
1, 130080, Note_on_c, 7, 61, 109
1, 130080, Note_on_c, 9, 36, 127
1, 130080, Note_on_c, 9, 51, 127
1, 130136, Note_on_c, 7, 61, 0
1, 130200, Note_on_c, 7, 73, 115
1, 130256, Note_on_c, 7, 73, 0
1, 130308, Control_c, 0, 71, 50
1, 130316, Note_on_c, 9, 51, 0
1, 130316, Note_on_c, 9, 36, 0
1, 130316, Note_on_c, 2, 64, 0
1, 130316, Note_on_c, 2, 57, 0
1, 130316, Note_on_c, 0, 64, 0
1, 130316, Note_on_c, 0, 57, 0
1, 130320, Note_on_c, 7, 80, 119
1, 130380, Note_on_c, 7, 80, 0
1, 130440, Note_on_c, 7, 64, 127
1, 130500, Note_on_c, 7, 64, 0
1, 130556, Note_on_c, 12, 76, 0
1, 130556, Note_on_c, 12, 64, 0
1, 130556, Note_on_c, 2, 61, 0
1, 130556, Note_on_c, 2, 59, 0
1, 130556, Note_on_c, 2, 45, 0
1, 130556, Note_on_c, 0, 61, 0
1, 130556, Note_on_c, 0, 59, 0
1, 130556, Note_on_c, 0, 45, 0
1, 130560, Note_on_c, 0, 49, 109
1, 130560, Note_on_c, 0, 56, 115
1, 130560, Note_on_c, 0, 61, 102
1, 130560, Note_on_c, 0, 64, 86
1, 130560, Note_on_c, 2, 49, 109
1, 130560, Note_on_c, 2, 56, 115
1, 130560, Note_on_c, 2, 61, 102
1, 130560, Note_on_c, 2, 64, 86
1, 130560, Note_on_c, 7, 61, 127
1, 130560, Note_on_c, 9, 36, 127
1, 130560, Note_on_c, 9, 51, 127
1, 130560, Note_on_c, 10, 72, 127
1, 130560, Note_on_c, 12, 71, 105
1, 130560, Note_on_c, 12, 83, 111
1, 130616, Note_on_c, 7, 61, 0
1, 130620, Control_c, 0, 71, 51
1, 130680, Note_on_c, 7, 73, 115
1, 130736, Note_on_c, 7, 73, 0
1, 130796, Note_on_c, 9, 51, 0
1, 130796, Note_on_c, 9, 36, 0
1, 130800, Note_on_c, 7, 76, 91
1, 130860, Note_on_c, 7, 76, 0
1, 130920, Note_on_c, 7, 61, 115
1, 130932, Control_c, 0, 71, 52
1, 130980, Note_on_c, 7, 61, 0
1, 131040, Note_on_c, 7, 73, 125
1, 131040, Note_on_c, 9, 36, 127
1, 131040, Note_on_c, 9, 51, 127
1, 131100, Note_on_c, 7, 73, 0
1, 131160, Note_on_c, 7, 76, 94
1, 131216, Note_on_c, 7, 76, 0
1, 131248, Control_c, 0, 71, 53
1, 131276, Note_on_c, 9, 51, 0
1, 131276, Note_on_c, 9, 36, 0
1, 131276, Note_on_c, 2, 64, 0
1, 131276, Note_on_c, 2, 56, 0
1, 131276, Note_on_c, 0, 64, 0
1, 131276, Note_on_c, 0, 56, 0
1, 131280, Note_on_c, 7, 61, 125
1, 131336, Note_on_c, 7, 61, 0
1, 131400, Note_on_c, 7, 73, 115
1, 131460, Note_on_c, 7, 73, 0
1, 131516, Note_on_c, 12, 83, 0
1, 131516, Note_on_c, 12, 71, 0
1, 131516, Note_on_c, 2, 61, 0
1, 131516, Note_on_c, 2, 49, 0
1, 131516, Note_on_c, 0, 61, 0
1, 131516, Note_on_c, 0, 49, 0
1, 131520, Note_on_c, 0, 52, 95
1, 131520, Note_on_c, 0, 56, 102
1, 131520, Note_on_c, 0, 59, 119
1, 131520, Note_on_c, 0, 64, 109
1, 131520, Note_on_c, 2, 52, 95
1, 131520, Note_on_c, 2, 56, 102
1, 131520, Note_on_c, 2, 59, 119
1, 131520, Note_on_c, 2, 64, 109
1, 131520, Note_on_c, 7, 80, 127
1, 131520, Note_on_c, 9, 36, 127
1, 131520, Note_on_c, 9, 51, 127
1, 131520, Note_on_c, 12, 68, 127
1, 131520, Note_on_c, 12, 80, 119
1, 131560, Control_c, 0, 71, 54
1, 131576, Note_on_c, 7, 80, 0
1, 131640, Note_on_c, 7, 61, 84
1, 131696, Note_on_c, 7, 61, 0
1, 131756, Note_on_c, 9, 51, 0
1, 131756, Note_on_c, 9, 36, 0
1, 131760, Note_on_c, 7, 73, 125
1, 131816, Note_on_c, 7, 73, 0
1, 131872, Control_c, 0, 71, 55
1, 131880, Note_on_c, 7, 81, 116
1, 131936, Note_on_c, 7, 81, 0
1, 132000, Note_on_c, 7, 61, 109
1, 132000, Note_on_c, 9, 36, 127
1, 132000, Note_on_c, 9, 51, 127
1, 132056, Note_on_c, 7, 61, 0
1, 132120, Note_on_c, 7, 73, 115
1, 132176, Note_on_c, 7, 73, 0
1, 132184, Control_c, 0, 71, 56
1, 132236, Note_on_c, 9, 51, 0
1, 132236, Note_on_c, 9, 36, 0
1, 132236, Note_on_c, 2, 64, 0
1, 132236, Note_on_c, 2, 59, 0
1, 132236, Note_on_c, 2, 56, 0
1, 132236, Note_on_c, 0, 64, 0
1, 132236, Note_on_c, 0, 59, 0
1, 132236, Note_on_c, 0, 56, 0
1, 132240, Note_on_c, 7, 80, 119
1, 132300, Note_on_c, 7, 80, 0
1, 132360, Note_on_c, 7, 64, 127
1, 132420, Note_on_c, 7, 64, 0
1, 132476, Note_on_c, 12, 80, 0
1, 132476, Note_on_c, 12, 68, 0
1, 132476, Note_on_c, 2, 52, 0
1, 132476, Note_on_c, 0, 52, 0
1, 132480, Note_on_c, 0, 47, 101
1, 132480, Note_on_c, 0, 54, 111
1, 132480, Note_on_c, 0, 59, 118
1, 132480, Note_on_c, 0, 63, 87
1, 132480, Note_on_c, 2, 47, 101
1, 132480, Note_on_c, 2, 54, 111
1, 132480, Note_on_c, 2, 59, 118
1, 132480, Note_on_c, 2, 63, 87
1, 132480, Note_on_c, 7, 61, 127
1, 132480, Note_on_c, 9, 36, 127
1, 132480, Note_on_c, 9, 51, 127
1, 132480, Note_on_c, 12, 66, 119
1, 132480, Note_on_c, 12, 78, 127
1, 132500, Control_c, 0, 71, 57
1, 132536, Note_on_c, 7, 61, 0
1, 132600, Note_on_c, 7, 73, 115
1, 132656, Note_on_c, 7, 73, 0
1, 132716, Note_on_c, 9, 51, 0
1, 132716, Note_on_c, 9, 36, 0
1, 132720, Note_on_c, 7, 76, 91
1, 132780, Note_on_c, 7, 76, 0
1, 132812, Control_c, 0, 71, 58
1, 132840, Note_on_c, 7, 61, 115
1, 132900, Note_on_c, 7, 61, 0
1, 132956, Note_on_c, 12, 78, 0
1, 132956, Note_on_c, 12, 66, 0
1, 132956, Note_on_c, 2, 59, 0
1, 132956, Note_on_c, 2, 54, 0
1, 132956, Note_on_c, 0, 59, 0
1, 132956, Note_on_c, 0, 54, 0
1, 132960, Note_on_c, 7, 73, 125
1, 132960, Note_on_c, 9, 36, 127
1, 132960, Note_on_c, 9, 51, 127
1, 132960, Note_on_c, 12, 68, 109
1, 132960, Note_on_c, 12, 80, 127
1, 133020, Note_on_c, 7, 73, 0
1, 133080, Note_on_c, 7, 76, 94
1, 133124, Control_c, 0, 71, 59
1, 133136, Note_on_c, 7, 76, 0
1, 133196, Note_on_c, 12, 80, 0
1, 133196, Note_on_c, 12, 68, 0
1, 133196, Note_on_c, 9, 51, 0
1, 133196, Note_on_c, 9, 36, 0
1, 133196, Note_on_c, 2, 63, 0
1, 133196, Note_on_c, 2, 47, 0
1, 133196, Note_on_c, 0, 63, 0
1, 133196, Note_on_c, 0, 47, 0
1, 133200, Note_on_c, 0, 45, 103
1, 133200, Note_on_c, 0, 57, 105
1, 133200, Note_on_c, 0, 59, 101
1, 133200, Note_on_c, 0, 61, 89
1, 133200, Note_on_c, 0, 64, 101
1, 133200, Note_on_c, 2, 45, 103
1, 133200, Note_on_c, 2, 57, 105
1, 133200, Note_on_c, 2, 59, 101
1, 133200, Note_on_c, 2, 61, 89
1, 133200, Note_on_c, 2, 64, 101
1, 133200, Note_on_c, 7, 61, 125
1, 133200, Note_on_c, 12, 64, 125
1, 133200, Note_on_c, 12, 76, 116
1, 133256, Note_on_c, 7, 61, 0
1, 133320, Note_on_c, 7, 73, 115
1, 133380, Note_on_c, 7, 73, 0
1, 133436, Control_c, 0, 71, 60
1, 133440, Note_on_c, 7, 80, 127
1, 133440, Note_on_c, 9, 36, 127
1, 133440, Note_on_c, 9, 51, 127
1, 133496, Note_on_c, 7, 80, 0
1, 133560, Note_on_c, 7, 61, 84
1, 133616, Note_on_c, 7, 61, 0
1, 133676, Note_on_c, 9, 51, 0
1, 133676, Note_on_c, 9, 36, 0
1, 133680, Note_on_c, 7, 73, 125
1, 133736, Note_on_c, 7, 73, 0
1, 133752, Control_c, 0, 71, 61
1, 133800, Note_on_c, 7, 81, 116
1, 133856, Note_on_c, 7, 81, 0
1, 133920, Note_on_c, 7, 61, 109
1, 133920, Note_on_c, 9, 36, 127
1, 133920, Note_on_c, 9, 51, 127
1, 133976, Note_on_c, 7, 61, 0
1, 134040, Note_on_c, 7, 73, 115
1, 134064, Control_c, 0, 71, 62
1, 134096, Note_on_c, 7, 73, 0
1, 134156, Note_on_c, 9, 51, 0
1, 134156, Note_on_c, 9, 36, 0
1, 134160, Note_on_c, 7, 80, 119
1, 134220, Note_on_c, 7, 80, 0
1, 134276, Note_on_c, 5, 80, 0
1, 134276, Note_on_c, 5, 68, 0
1, 134280, Note_on_c, 7, 64, 127
1, 134340, Note_on_c, 7, 64, 0
1, 134376, Control_c, 0, 71, 63
1, 134396, Note_on_c, 12, 76, 0
1, 134396, Note_on_c, 12, 64, 0
1, 134396, Note_on_c, 2, 64, 0
1, 134396, Note_on_c, 2, 61, 0
1, 134396, Note_on_c, 2, 59, 0
1, 134396, Note_on_c, 2, 57, 0
1, 134396, Note_on_c, 2, 45, 0
1, 134396, Note_on_c, 0, 64, 0
1, 134396, Note_on_c, 0, 61, 0
1, 134396, Note_on_c, 0, 59, 0
1, 134396, Note_on_c, 0, 57, 0
1, 134396, Note_on_c, 0, 45, 0
1, 134396, Note_on_c, 10, 72, 0
1, 134400, Note_on_c, 4, 78, 127
1, 134400, Note_on_c, 5, 68, 98
1, 134400, Note_on_c, 5, 80, 100
1, 134400, Note_on_c, 9, 36, 127
1, 134400, Note_on_c, 9, 49, 127
1, 134400, Note_on_c, 10, 84, 127
1, 134400, Note_on_c, 12, 64, 72
1, 134400, Note_on_c, 12, 71, 55
1, 134400, Note_on_c, 12, 76, 75
1, 134400, Note_on_c, 13, 78, 127
1, 134400, Note_on_c, 15, 36, 127
1, 134528, Note_on_c, 13, 78, 0
1, 134636, Note_on_c, 9, 49, 0
1, 134636, Note_on_c, 9, 36, 0
1, 134636, Note_on_c, 4, 78, 0
1, 134640, Note_on_c, 4, 76, 118
1, 134640, Control_c, 5, 11, 125
1, 134640, Control_c, 12, 11, 125
1, 134640, Note_on_c, 13, 76, 119
1, 134740, Note_on_c, 13, 76, 0
1, 134876, Note_on_c, 4, 76, 0
1, 134880, Note_on_c, 4, 76, 119
1, 134880, Control_c, 5, 11, 123
1, 134880, Note_on_c, 9, 49, 102
1, 134880, Control_c, 12, 11, 123
1, 134880, Note_on_c, 13, 76, 119
1, 135032, Note_on_c, 13, 76, 0
1, 135116, Note_on_c, 9, 49, 0
1, 135116, Note_on_c, 4, 76, 0
1, 135120, Control_c, 5, 11, 121
1, 135120, Control_c, 12, 11, 121
1, 135360, Note_on_c, 4, 76, 125
1, 135360, Control_c, 5, 11, 119
1, 135360, Note_on_c, 9, 49, 81
1, 135360, Control_c, 12, 11, 119
1, 135360, Note_on_c, 13, 76, 116
1, 135472, Note_on_c, 13, 76, 0
1, 135596, Note_on_c, 9, 49, 0
1, 135596, Note_on_c, 4, 76, 0
1, 135600, Note_on_c, 4, 76, 119
1, 135600, Control_c, 5, 11, 117
1, 135600, Control_c, 12, 11, 117
1, 135600, Note_on_c, 13, 76, 116
1, 135716, Note_on_c, 13, 76, 0
1, 135716, Note_on_c, 15, 36, 0
1, 135836, Note_on_c, 4, 76, 0
1, 135840, Note_on_c, 4, 76, 118
1, 135840, Control_c, 5, 11, 116
1, 135840, Note_on_c, 9, 49, 74
1, 135840, Control_c, 12, 11, 115
1, 135840, Note_on_c, 13, 76, 107
1, 135944, Note_on_c, 13, 76, 0
1, 136076, Note_on_c, 9, 49, 0
1, 136076, Note_on_c, 4, 76, 0
1, 136080, Note_on_c, 4, 76, 116
1, 136080, Control_c, 5, 11, 114
1, 136080, Control_c, 12, 11, 113
1, 136080, Note_on_c, 13, 76, 105
1, 136200, Note_on_c, 13, 76, 0
1, 136316, Note_on_c, 4, 76, 0
1, 136320, Note_on_c, 4, 75, 119
1, 136320, Control_c, 5, 11, 112
1, 136320, Note_on_c, 9, 49, 54
1, 136320, Control_c, 12, 11, 111
1, 136320, Note_on_c, 13, 75, 119
1, 136432, Note_on_c, 13, 75, 0
1, 136556, Note_on_c, 9, 49, 0
1, 136556, Note_on_c, 4, 75, 0
1, 136560, Note_on_c, 4, 75, 119
1, 136560, Control_c, 5, 11, 110
1, 136560, Control_c, 12, 11, 109
1, 136560, Note_on_c, 13, 75, 115
1, 136676, Note_on_c, 13, 75, 0
1, 136796, Note_on_c, 4, 75, 0
1, 136800, Note_on_c, 4, 76, 113
1, 136800, Control_c, 5, 11, 108
1, 136800, Note_on_c, 9, 49, 50
1, 136800, Control_c, 12, 11, 107
1, 136800, Note_on_c, 13, 76, 111
1, 136904, Note_on_c, 13, 76, 0
1, 137036, Note_on_c, 9, 49, 0
1, 137036, Note_on_c, 4, 76, 0
1, 137040, Note_on_c, 4, 76, 111
1, 137040, Control_c, 5, 11, 106
1, 137040, Control_c, 12, 11, 105
1, 137040, Note_on_c, 13, 76, 113
1, 137176, Note_on_c, 13, 76, 0
1, 137276, Note_on_c, 4, 76, 0
1, 137280, Control_c, 5, 11, 105
1, 137280, Note_on_c, 9, 30, 96
1, 137280, Note_on_c, 9, 49, 46
1, 137280, Control_c, 12, 11, 103
1, 137516, Note_on_c, 9, 49, 0
1, 137516, Note_on_c, 9, 30, 0
1, 137520, Note_on_c, 4, 85, 127
1, 137520, Control_c, 5, 11, 103
1, 137520, Control_c, 12, 11, 101
1, 137520, Note_on_c, 13, 85, 119
1, 137652, Note_on_c, 13, 85, 0
1, 137756, Note_on_c, 4, 85, 0
1, 137760, Note_on_c, 4, 83, 119
1, 137760, Control_c, 5, 11, 101
1, 137760, Note_on_c, 9, 49, 37
1, 137760, Control_c, 12, 11, 99
1, 137760, Note_on_c, 13, 83, 107
1, 137860, Note_on_c, 13, 83, 0
1, 137996, Note_on_c, 9, 49, 0
1, 137996, Note_on_c, 4, 83, 0
1, 138000, Note_on_c, 4, 80, 125
1, 138000, Control_c, 5, 11, 99
1, 138000, Control_c, 12, 11, 97
1, 138000, Note_on_c, 13, 80, 115
1, 138108, Note_on_c, 13, 80, 0
1, 138236, Note_on_c, 4, 80, 0
1, 138240, Note_on_c, 4, 78, 127
1, 138240, Control_c, 5, 11, 97
1, 138240, Control_c, 12, 11, 95
1, 138240, Note_on_c, 13, 78, 127
1, 138340, Note_on_c, 13, 78, 0
1, 138476, Note_on_c, 4, 78, 0
1, 138480, Note_on_c, 4, 76, 101
1, 138480, Control_c, 5, 11, 96
1, 138480, Control_c, 12, 11, 93
1, 138480, Note_on_c, 13, 76, 87
1, 138576, Note_on_c, 13, 76, 0
1, 138716, Note_on_c, 4, 76, 0
1, 138720, Note_on_c, 4, 76, 116
1, 138720, Control_c, 5, 11, 94
1, 138720, Control_c, 12, 11, 91
1, 138720, Note_on_c, 13, 76, 111
1, 138856, Note_on_c, 13, 76, 0
1, 138956, Note_on_c, 4, 76, 0
1, 138960, Control_c, 5, 11, 92
1, 138960, Control_c, 12, 11, 89
1, 139200, Note_on_c, 4, 76, 119
1, 139200, Control_c, 5, 11, 90
1, 139200, Control_c, 12, 11, 87
1, 139200, Note_on_c, 13, 76, 109
1, 139300, Note_on_c, 13, 76, 0
1, 139436, Note_on_c, 4, 76, 0
1, 139440, Note_on_c, 4, 76, 111
1, 139440, Control_c, 5, 11, 88
1, 139440, Control_c, 12, 11, 85
1, 139440, Note_on_c, 13, 76, 87
1, 139544, Note_on_c, 13, 76, 0
1, 139676, Note_on_c, 4, 76, 0
1, 139680, Note_on_c, 4, 76, 109
1, 139680, Control_c, 5, 11, 86
1, 139680, Control_c, 12, 11, 83
1, 139680, Note_on_c, 13, 76, 103
1, 139780, Note_on_c, 13, 76, 0
1, 139916, Note_on_c, 4, 76, 0
1, 139920, Note_on_c, 4, 76, 87
1, 139920, Control_c, 5, 11, 85
1, 139920, Control_c, 12, 11, 81
1, 139920, Note_on_c, 13, 76, 84
1, 140032, Note_on_c, 13, 76, 0
1, 140156, Note_on_c, 4, 76, 0
1, 140160, Note_on_c, 4, 73, 127
1, 140160, Control_c, 5, 11, 83
1, 140160, Control_c, 12, 11, 79
1, 140160, Note_on_c, 13, 75, 115
1, 140276, Note_on_c, 13, 75, 0
1, 140396, Note_on_c, 4, 73, 0
1, 140400, Note_on_c, 4, 73, 127
1, 140400, Control_c, 5, 11, 81
1, 140400, Control_c, 12, 11, 77
1, 140400, Note_on_c, 13, 75, 119
1, 140504, Note_on_c, 13, 75, 0
1, 140636, Note_on_c, 4, 73, 0
1, 140640, Note_on_c, 4, 71, 113
1, 140640, Control_c, 5, 11, 79
1, 140640, Control_c, 12, 11, 75
1, 140640, Note_on_c, 13, 76, 113
1, 140728, Note_on_c, 13, 76, 0
1, 140876, Note_on_c, 4, 71, 0
1, 140880, Note_on_c, 4, 71, 122
1, 140880, Control_c, 5, 11, 77
1, 140880, Control_c, 12, 11, 73
1, 140880, Note_on_c, 13, 76, 116
1, 141040, Note_on_c, 13, 76, 0
1, 141116, Note_on_c, 4, 71, 0
1, 141120, Control_c, 5, 11, 76
1, 141120, Note_on_c, 9, 30, 87
1, 141120, Control_c, 12, 11, 71
1, 141356, Note_on_c, 9, 30, 0
1, 141360, Note_on_c, 4, 85, 127
1, 141360, Control_c, 5, 11, 74
1, 141360, Control_c, 12, 11, 69
1, 141360, Note_on_c, 13, 85, 119
1, 141480, Note_on_c, 13, 85, 0
1, 141596, Note_on_c, 4, 85, 0
1, 141600, Note_on_c, 4, 83, 119
1, 141600, Control_c, 5, 11, 72
1, 141600, Control_c, 12, 11, 67
1, 141600, Note_on_c, 13, 83, 111
1, 141724, Note_on_c, 13, 83, 0
1, 141836, Note_on_c, 4, 83, 0
1, 141840, Note_on_c, 4, 80, 127
1, 141840, Control_c, 5, 11, 70
1, 141840, Control_c, 12, 11, 65
1, 141840, Note_on_c, 13, 80, 104
1, 141948, Note_on_c, 13, 80, 0
1, 142076, Note_on_c, 4, 80, 0
1, 142076, Note_on_c, 10, 84, 0
1, 142080, Note_on_c, 4, 78, 127
1, 142080, Control_c, 5, 11, 68
1, 142080, Control_c, 12, 11, 63
1, 142080, Note_on_c, 13, 78, 115
1, 142196, Note_on_c, 13, 78, 0
1, 142316, Note_on_c, 4, 78, 0
1, 142320, Note_on_c, 4, 76, 118
1, 142320, Control_c, 5, 11, 66
1, 142320, Control_c, 12, 11, 61
1, 142320, Note_on_c, 13, 76, 109
1, 142448, Note_on_c, 13, 76, 0
1, 142556, Note_on_c, 4, 76, 0
1, 142560, Note_on_c, 4, 76, 119
1, 142560, Control_c, 5, 11, 65
1, 142560, Control_c, 12, 11, 59
1, 142560, Note_on_c, 13, 76, 111
1, 142700, Note_on_c, 13, 76, 0
1, 142796, Note_on_c, 4, 76, 0
1, 142800, Control_c, 5, 11, 63
1, 142800, Control_c, 12, 11, 57
1, 143040, Note_on_c, 4, 76, 125
1, 143040, Control_c, 5, 11, 61
1, 143040, Control_c, 12, 11, 55
1, 143040, Note_on_c, 13, 76, 105
1, 143156, Note_on_c, 13, 76, 0
1, 143276, Note_on_c, 4, 76, 0
1, 143280, Note_on_c, 4, 76, 119
1, 143280, Control_c, 5, 11, 59
1, 143280, Control_c, 12, 11, 53
1, 143280, Note_on_c, 13, 76, 113
1, 143396, Note_on_c, 13, 76, 0
1, 143516, Note_on_c, 4, 76, 0
1, 143520, Note_on_c, 4, 76, 118
1, 143520, Control_c, 5, 11, 57
1, 143520, Control_c, 12, 11, 51
1, 143520, Note_on_c, 13, 76, 119
1, 143632, Note_on_c, 13, 76, 0
1, 143756, Note_on_c, 4, 76, 0
1, 143760, Note_on_c, 4, 76, 116
1, 143760, Control_c, 5, 11, 55
1, 143760, Control_c, 12, 11, 49
1, 143760, Note_on_c, 13, 76, 107
1, 143868, Note_on_c, 13, 76, 0
1, 143996, Note_on_c, 4, 76, 0
1, 144000, Note_on_c, 4, 75, 119
1, 144000, Control_c, 5, 11, 54
1, 144000, Control_c, 12, 11, 47
1, 144000, Note_on_c, 13, 75, 119
1, 144116, Note_on_c, 13, 75, 0
1, 144236, Note_on_c, 4, 75, 0
1, 144240, Note_on_c, 4, 75, 119
1, 144240, Control_c, 5, 11, 52
1, 144240, Control_c, 12, 11, 45
1, 144240, Note_on_c, 13, 75, 119
1, 144348, Note_on_c, 13, 75, 0
1, 144476, Note_on_c, 4, 75, 0
1, 144480, Note_on_c, 4, 76, 113
1, 144480, Control_c, 5, 11, 50
1, 144480, Control_c, 12, 11, 43
1, 144480, Note_on_c, 13, 76, 101
1, 144592, Note_on_c, 13, 76, 0
1, 144716, Note_on_c, 4, 76, 0
1, 144720, Note_on_c, 4, 76, 111
1, 144720, Control_c, 5, 11, 48
1, 144720, Control_c, 12, 11, 41
1, 144720, Note_on_c, 13, 76, 116
1, 144908, Note_on_c, 13, 76, 0
1, 144956, Note_on_c, 4, 76, 0
1, 144960, Control_c, 5, 11, 46
1, 144960, Note_on_c, 9, 30, 74
1, 144960, Control_c, 12, 11, 39
1, 145200, Note_on_c, 4, 85, 127
1, 145200, Control_c, 5, 11, 45
1, 145200, Control_c, 12, 11, 37
1, 145200, Note_on_c, 13, 85, 125
1, 145304, Note_on_c, 13, 85, 0
1, 145436, Note_on_c, 4, 85, 0
1, 145436, Note_on_c, 9, 30, 0
1, 145440, Note_on_c, 4, 83, 119
1, 145440, Control_c, 5, 11, 43
1, 145440, Control_c, 12, 11, 35
1, 145440, Note_on_c, 13, 83, 119
1, 145572, Note_on_c, 13, 83, 0
1, 145676, Note_on_c, 4, 83, 0
1, 145680, Note_on_c, 4, 80, 125
1, 145680, Control_c, 5, 11, 41
1, 145680, Control_c, 12, 11, 33
1, 145680, Note_on_c, 13, 80, 125
1, 145800, Note_on_c, 13, 80, 0
1, 145916, Note_on_c, 4, 80, 0
1, 145920, Note_on_c, 4, 78, 127
1, 145920, Control_c, 5, 11, 39
1, 145920, Control_c, 12, 11, 31
1, 145920, Note_on_c, 13, 78, 125
1, 146036, Note_on_c, 13, 78, 0
1, 146156, Note_on_c, 4, 78, 0
1, 146160, Note_on_c, 4, 76, 101
1, 146160, Control_c, 5, 11, 37
1, 146160, Control_c, 12, 11, 29
1, 146160, Note_on_c, 13, 76, 107
1, 146280, Note_on_c, 10, 72, 127
1, 146284, Note_on_c, 13, 76, 0
1, 146396, Note_on_c, 4, 76, 0
1, 146400, Note_on_c, 4, 76, 116
1, 146400, Control_c, 5, 11, 35
1, 146400, Control_c, 12, 11, 27
1, 146400, Note_on_c, 13, 76, 111
1, 146564, Note_on_c, 13, 76, 0
1, 146636, Note_on_c, 4, 76, 0
1, 146640, Control_c, 5, 11, 34
1, 146640, Control_c, 12, 11, 25
1, 146880, Note_on_c, 4, 76, 119
1, 146880, Control_c, 5, 11, 32
1, 146880, Control_c, 12, 11, 23
1, 146880, Note_on_c, 13, 76, 116
1, 147004, Note_on_c, 13, 76, 0
1, 147116, Note_on_c, 4, 76, 0
1, 147120, Note_on_c, 4, 76, 111
1, 147120, Control_c, 5, 11, 30
1, 147120, Control_c, 12, 11, 21
1, 147120, Note_on_c, 13, 76, 116
1, 147240, Note_on_c, 13, 76, 0
1, 147356, Note_on_c, 4, 76, 0
1, 147360, Note_on_c, 4, 76, 109
1, 147360, Control_c, 5, 11, 28
1, 147360, Control_c, 12, 11, 19
1, 147360, Note_on_c, 13, 76, 111
1, 147468, Note_on_c, 13, 76, 0
1, 147596, Note_on_c, 4, 76, 0
1, 147600, Note_on_c, 4, 76, 87
1, 147600, Control_c, 5, 11, 26
1, 147600, Control_c, 12, 11, 17
1, 147600, Note_on_c, 13, 76, 101
1, 147712, Note_on_c, 13, 76, 0
1, 147836, Note_on_c, 4, 76, 0
1, 147840, Note_on_c, 4, 73, 127
1, 147840, Control_c, 5, 11, 25
1, 147840, Control_c, 12, 11, 15
1, 147840, Note_on_c, 13, 75, 127
1, 147960, Note_on_c, 13, 75, 0
1, 148076, Note_on_c, 4, 73, 0
1, 148080, Note_on_c, 4, 73, 127
1, 148080, Control_c, 5, 11, 28
1, 148080, Control_c, 12, 11, 13
1, 148080, Note_on_c, 13, 75, 119
1, 148204, Note_on_c, 13, 75, 0
1, 148316, Note_on_c, 4, 73, 0
1, 148320, Note_on_c, 4, 71, 113
1, 148320, Control_c, 5, 11, 42
1, 148320, Control_c, 12, 11, 11
1, 148320, Note_on_c, 13, 76, 116
1, 148420, Note_on_c, 13, 76, 0
1, 148556, Note_on_c, 4, 71, 0
1, 148560, Note_on_c, 4, 71, 122
1, 148560, Control_c, 5, 11, 56
1, 148560, Note_on_c, 5, 49, 100
1, 148560, Control_c, 12, 11, 9
1, 148560, Note_on_c, 13, 76, 119
1, 148744, Note_on_c, 13, 76, 0
1, 148796, Note_on_c, 4, 71, 0
1, 148800, Control_c, 5, 11, 70
1, 148800, Note_on_c, 5, 56, 84
1, 148800, Note_on_c, 8, 72, 127
1, 148800, Note_on_c, 9, 30, 92
1, 148800, Control_c, 12, 11, 7
1, 149040, Note_on_c, 4, 85, 127
1, 149040, Control_c, 5, 11, 84
1, 149040, Note_on_c, 5, 61, 102
1, 149040, Control_c, 12, 11, 5
1, 149040, Note_on_c, 13, 85, 127
1, 149164, Note_on_c, 13, 85, 0
1, 149276, Note_on_c, 4, 85, 0
1, 149276, Note_on_c, 9, 30, 0
1, 149280, Note_on_c, 4, 83, 119
1, 149280, Control_c, 5, 11, 98
1, 149280, Note_on_c, 5, 66, 109
1, 149280, Control_c, 12, 11, 3
1, 149280, Note_on_c, 13, 83, 119
1, 149384, Note_on_c, 13, 83, 0
1, 149516, Note_on_c, 4, 83, 0
1, 149520, Note_on_c, 4, 80, 127
1, 149520, Control_c, 5, 11, 112
1, 149520, Control_c, 12, 11, 1
1, 149520, Note_on_c, 13, 80, 127
1, 149636, Note_on_c, 12, 76, 0
1, 149636, Note_on_c, 12, 71, 0
1, 149636, Note_on_c, 12, 64, 0
1, 149644, Note_on_c, 13, 80, 0
1, 149756, Note_on_c, 4, 80, 0
1, 149756, Note_on_c, 8, 72, 0
1, 149756, Note_on_c, 10, 72, 0
1, 149756, Note_on_c, 5, 80, 0
1, 149756, Note_on_c, 5, 68, 0
1, 149760, Note_on_c, 0, 56, 100
1, 149760, Note_on_c, 0, 61, 100
1, 149760, Note_on_c, 0, 66, 100
1, 149760, Note_on_c, 2, 56, 100
1, 149760, Note_on_c, 2, 61, 100
1, 149760, Note_on_c, 2, 66, 100
1, 149760, Note_on_c, 4, 78, 127
1, 149760, Control_c, 5, 11, 127
1, 149760, Note_on_c, 7, 61, 106
1, 149760, Note_on_c, 9, 32, 100
1, 149760, Note_on_c, 10, 84, 127
1, 149760, Control_c, 12, 11, 0
1, 149760, Note_on_c, 13, 78, 127
1, 149760, Note_on_c, 15, 48, 100
1, 149820, Note_on_c, 7, 61, 0
1, 149876, Note_on_c, 5, 66, 0
1, 149876, Note_on_c, 5, 61, 0
1, 149876, Note_on_c, 5, 56, 0
1, 149876, Note_on_c, 5, 49, 0
1, 149880, Note_on_c, 7, 49, 92
1, 149936, Note_on_c, 7, 49, 0
1, 149996, Note_on_c, 13, 78, 0
1, 149996, Note_on_c, 9, 32, 0
1, 149996, Note_on_c, 4, 78, 0
1, 149996, Note_on_c, 2, 66, 0
1, 149996, Note_on_c, 2, 61, 0
1, 149996, Note_on_c, 2, 56, 0
1, 149996, Note_on_c, 0, 66, 0
1, 149996, Note_on_c, 0, 61, 0
1, 149996, Note_on_c, 0, 56, 0
1, 150000, Note_on_c, 0, 56, 100
1, 150000, Note_on_c, 0, 61, 100
1, 150000, Note_on_c, 0, 64, 100
1, 150000, Note_on_c, 2, 56, 100
1, 150000, Note_on_c, 2, 61, 100
1, 150000, Note_on_c, 2, 64, 100
1, 150000, Note_on_c, 4, 76, 118
1, 150000, Note_on_c, 7, 61, 106
1, 150000, Note_on_c, 13, 76, 118
1, 150060, Note_on_c, 7, 61, 0
1, 150120, Note_on_c, 7, 68, 127
1, 150176, Note_on_c, 7, 68, 0
1, 150236, Note_on_c, 13, 76, 0
1, 150236, Note_on_c, 4, 76, 0
1, 150236, Note_on_c, 2, 64, 0
1, 150236, Note_on_c, 2, 61, 0
1, 150236, Note_on_c, 2, 56, 0
1, 150236, Note_on_c, 0, 64, 0
1, 150236, Note_on_c, 0, 61, 0
1, 150236, Note_on_c, 0, 56, 0
1, 150240, Note_on_c, 0, 56, 100
1, 150240, Note_on_c, 0, 61, 100
1, 150240, Note_on_c, 0, 64, 100
1, 150240, Note_on_c, 2, 56, 100
1, 150240, Note_on_c, 2, 61, 100
1, 150240, Note_on_c, 2, 64, 100
1, 150240, Note_on_c, 4, 76, 119
1, 150240, Note_on_c, 7, 56, 92
1, 150240, Note_on_c, 9, 32, 100
1, 150240, Note_on_c, 13, 76, 119
1, 150296, Note_on_c, 7, 56, 0
1, 150360, Note_on_c, 7, 61, 109
1, 150420, Note_on_c, 7, 61, 0
1, 150476, Note_on_c, 13, 76, 0
1, 150476, Note_on_c, 9, 32, 0
1, 150476, Note_on_c, 4, 76, 0
1, 150476, Note_on_c, 2, 64, 0
1, 150476, Note_on_c, 2, 61, 0
1, 150476, Note_on_c, 2, 56, 0
1, 150476, Note_on_c, 0, 64, 0
1, 150476, Note_on_c, 0, 61, 0
1, 150476, Note_on_c, 0, 56, 0
1, 150480, Note_on_c, 7, 68, 127
1, 150540, Note_on_c, 7, 68, 0
1, 150600, Note_on_c, 7, 73, 100
1, 150716, Note_on_c, 7, 73, 0
1, 150716, Note_on_c, 15, 48, 0
1, 150720, Note_on_c, 0, 56, 100
1, 150720, Note_on_c, 0, 59, 100
1, 150720, Note_on_c, 0, 64, 100
1, 150720, Note_on_c, 2, 56, 100
1, 150720, Note_on_c, 2, 59, 100
1, 150720, Note_on_c, 2, 64, 100
1, 150720, Note_on_c, 4, 76, 125
1, 150720, Note_on_c, 7, 73, 127
1, 150720, Note_on_c, 9, 32, 100
1, 150720, Note_on_c, 13, 76, 125
1, 150776, Note_on_c, 7, 73, 0
1, 150840, Note_on_c, 7, 68, 59
1, 150896, Note_on_c, 7, 68, 0
1, 150956, Note_on_c, 13, 76, 0
1, 150956, Note_on_c, 9, 32, 0
1, 150956, Note_on_c, 4, 76, 0
1, 150956, Note_on_c, 2, 64, 0
1, 150956, Note_on_c, 2, 59, 0
1, 150956, Note_on_c, 2, 56, 0
1, 150956, Note_on_c, 0, 64, 0
1, 150956, Note_on_c, 0, 59, 0
1, 150956, Note_on_c, 0, 56, 0
1, 150960, Note_on_c, 0, 56, 100
1, 150960, Note_on_c, 0, 59, 100
1, 150960, Note_on_c, 0, 64, 100
1, 150960, Note_on_c, 2, 56, 100
1, 150960, Note_on_c, 2, 59, 100
1, 150960, Note_on_c, 2, 64, 100
1, 150960, Note_on_c, 4, 76, 119
1, 150960, Note_on_c, 7, 73, 78
1, 150960, Note_on_c, 13, 76, 119
1, 151016, Note_on_c, 7, 73, 0
1, 151080, Note_on_c, 7, 81, 125
1, 151196, Note_on_c, 7, 81, 0
1, 151196, Note_on_c, 13, 76, 0
1, 151196, Note_on_c, 4, 76, 0
1, 151196, Note_on_c, 2, 64, 0
1, 151196, Note_on_c, 2, 59, 0
1, 151196, Note_on_c, 2, 56, 0
1, 151196, Note_on_c, 0, 64, 0
1, 151196, Note_on_c, 0, 59, 0
1, 151196, Note_on_c, 0, 56, 0
1, 151200, Note_on_c, 0, 56, 100
1, 151200, Note_on_c, 0, 59, 100
1, 151200, Note_on_c, 0, 64, 100
1, 151200, Note_on_c, 2, 56, 100
1, 151200, Note_on_c, 2, 59, 100
1, 151200, Note_on_c, 2, 64, 100
1, 151200, Note_on_c, 4, 76, 118
1, 151200, Note_on_c, 7, 73, 84
1, 151200, Note_on_c, 9, 32, 100
1, 151200, Note_on_c, 13, 76, 118
1, 151260, Note_on_c, 7, 73, 0
1, 151320, Note_on_c, 7, 68, 73
1, 151436, Note_on_c, 7, 68, 0
1, 151436, Note_on_c, 13, 76, 0
1, 151436, Note_on_c, 9, 32, 0
1, 151436, Note_on_c, 4, 76, 0
1, 151436, Note_on_c, 2, 64, 0
1, 151436, Note_on_c, 2, 59, 0
1, 151436, Note_on_c, 2, 56, 0
1, 151436, Note_on_c, 0, 64, 0
1, 151436, Note_on_c, 0, 59, 0
1, 151436, Note_on_c, 0, 56, 0
1, 151440, Note_on_c, 0, 56, 100
1, 151440, Note_on_c, 0, 59, 100
1, 151440, Note_on_c, 0, 64, 100
1, 151440, Note_on_c, 2, 56, 100
1, 151440, Note_on_c, 2, 59, 100
1, 151440, Note_on_c, 2, 64, 100
1, 151440, Note_on_c, 4, 76, 116
1, 151440, Note_on_c, 7, 73, 119
1, 151440, Note_on_c, 13, 76, 116
1, 151500, Note_on_c, 7, 73, 0
1, 151560, Note_on_c, 7, 64, 109
1, 151620, Note_on_c, 7, 64, 0
1, 151676, Note_on_c, 13, 76, 0
1, 151676, Note_on_c, 4, 76, 0
1, 151676, Note_on_c, 2, 64, 0
1, 151676, Note_on_c, 2, 59, 0
1, 151676, Note_on_c, 2, 56, 0
1, 151676, Note_on_c, 0, 64, 0
1, 151676, Note_on_c, 0, 59, 0
1, 151676, Note_on_c, 0, 56, 0
1, 151680, Note_on_c, 0, 54, 100
1, 151680, Note_on_c, 0, 59, 100
1, 151680, Note_on_c, 0, 63, 100
1, 151680, Note_on_c, 2, 54, 100
1, 151680, Note_on_c, 2, 59, 100
1, 151680, Note_on_c, 2, 63, 100
1, 151680, Note_on_c, 4, 75, 119
1, 151680, Note_on_c, 7, 61, 106
1, 151680, Note_on_c, 9, 32, 100
1, 151680, Note_on_c, 13, 75, 119
1, 151740, Note_on_c, 7, 61, 0
1, 151800, Note_on_c, 7, 49, 92
1, 151856, Note_on_c, 7, 49, 0
1, 151916, Note_on_c, 13, 75, 0
1, 151916, Note_on_c, 9, 32, 0
1, 151916, Note_on_c, 4, 75, 0
1, 151916, Note_on_c, 2, 63, 0
1, 151916, Note_on_c, 2, 59, 0
1, 151916, Note_on_c, 2, 54, 0
1, 151916, Note_on_c, 0, 63, 0
1, 151916, Note_on_c, 0, 59, 0
1, 151916, Note_on_c, 0, 54, 0
1, 151920, Note_on_c, 0, 54, 100
1, 151920, Note_on_c, 0, 59, 100
1, 151920, Note_on_c, 0, 63, 100
1, 151920, Note_on_c, 2, 54, 100
1, 151920, Note_on_c, 2, 59, 100
1, 151920, Note_on_c, 2, 63, 100
1, 151920, Note_on_c, 4, 75, 119
1, 151920, Note_on_c, 7, 61, 106
1, 151920, Note_on_c, 13, 75, 119
1, 151980, Note_on_c, 7, 61, 0
1, 152040, Note_on_c, 7, 68, 127
1, 152096, Note_on_c, 7, 68, 0
1, 152156, Note_on_c, 13, 75, 0
1, 152156, Note_on_c, 4, 75, 0
1, 152156, Note_on_c, 2, 63, 0
1, 152156, Note_on_c, 2, 59, 0
1, 152156, Note_on_c, 2, 54, 0
1, 152156, Note_on_c, 0, 63, 0
1, 152156, Note_on_c, 0, 59, 0
1, 152156, Note_on_c, 0, 54, 0
1, 152160, Note_on_c, 0, 54, 100
1, 152160, Note_on_c, 0, 59, 100
1, 152160, Note_on_c, 0, 63, 100
1, 152160, Note_on_c, 2, 54, 100
1, 152160, Note_on_c, 2, 59, 100
1, 152160, Note_on_c, 2, 63, 100
1, 152160, Note_on_c, 4, 76, 113
1, 152160, Note_on_c, 7, 56, 92
1, 152160, Note_on_c, 9, 32, 100
1, 152160, Note_on_c, 13, 76, 113
1, 152216, Note_on_c, 7, 56, 0
1, 152280, Note_on_c, 7, 61, 109
1, 152340, Note_on_c, 7, 61, 0
1, 152396, Note_on_c, 13, 76, 0
1, 152396, Note_on_c, 9, 32, 0
1, 152396, Note_on_c, 4, 76, 0
1, 152396, Note_on_c, 2, 63, 0
1, 152396, Note_on_c, 2, 59, 0
1, 152396, Note_on_c, 2, 54, 0
1, 152396, Note_on_c, 0, 63, 0
1, 152396, Note_on_c, 0, 59, 0
1, 152396, Note_on_c, 0, 54, 0
1, 152400, Note_on_c, 0, 52, 100
1, 152400, Note_on_c, 0, 57, 100
1, 152400, Note_on_c, 0, 61, 100
1, 152400, Note_on_c, 2, 52, 100
1, 152400, Note_on_c, 2, 57, 100
1, 152400, Note_on_c, 2, 61, 100
1, 152400, Note_on_c, 4, 76, 111
1, 152400, Note_on_c, 7, 68, 127
1, 152400, Note_on_c, 9, 29, 100
1, 152400, Note_on_c, 13, 76, 111
1, 152460, Note_on_c, 7, 68, 0
1, 152520, Note_on_c, 7, 73, 100
1, 152636, Note_on_c, 7, 73, 0
1, 152636, Note_on_c, 13, 76, 0
1, 152636, Note_on_c, 9, 29, 0
1, 152636, Note_on_c, 4, 76, 0
1, 152636, Note_on_c, 2, 61, 0
1, 152636, Note_on_c, 2, 57, 0
1, 152636, Note_on_c, 2, 52, 0
1, 152636, Note_on_c, 0, 61, 0
1, 152636, Note_on_c, 0, 57, 0
1, 152636, Note_on_c, 0, 52, 0
1, 152640, Note_on_c, 7, 73, 127
1, 152640, Note_on_c, 9, 32, 100
1, 152696, Note_on_c, 7, 73, 0
1, 152760, Note_on_c, 7, 68, 59
1, 152816, Note_on_c, 7, 68, 0
1, 152876, Note_on_c, 9, 32, 0
1, 152880, Note_on_c, 0, 52, 100
1, 152880, Note_on_c, 0, 57, 100
1, 152880, Note_on_c, 0, 61, 100
1, 152880, Note_on_c, 2, 52, 100
1, 152880, Note_on_c, 2, 57, 100
1, 152880, Note_on_c, 2, 61, 100
1, 152880, Note_on_c, 4, 85, 127
1, 152880, Note_on_c, 7, 73, 78
1, 152880, Note_on_c, 13, 85, 127
1, 152936, Note_on_c, 7, 73, 0
1, 153000, Note_on_c, 7, 81, 125
1, 153116, Note_on_c, 7, 81, 0
1, 153116, Note_on_c, 13, 85, 0
1, 153116, Note_on_c, 4, 85, 0
1, 153116, Note_on_c, 2, 61, 0
1, 153116, Note_on_c, 2, 57, 0
1, 153116, Note_on_c, 2, 52, 0
1, 153116, Note_on_c, 0, 61, 0
1, 153116, Note_on_c, 0, 57, 0
1, 153116, Note_on_c, 0, 52, 0
1, 153120, Note_on_c, 0, 52, 100
1, 153120, Note_on_c, 0, 57, 100
1, 153120, Note_on_c, 0, 61, 100
1, 153120, Note_on_c, 2, 52, 100
1, 153120, Note_on_c, 2, 57, 100
1, 153120, Note_on_c, 2, 61, 100
1, 153120, Note_on_c, 4, 83, 119
1, 153120, Note_on_c, 7, 73, 84
1, 153120, Note_on_c, 9, 32, 100
1, 153120, Note_on_c, 13, 83, 119
1, 153180, Note_on_c, 7, 73, 0
1, 153240, Note_on_c, 7, 68, 73
1, 153356, Note_on_c, 7, 68, 0
1, 153356, Note_on_c, 13, 83, 0
1, 153356, Note_on_c, 9, 32, 0
1, 153356, Note_on_c, 4, 83, 0
1, 153356, Note_on_c, 2, 61, 0
1, 153356, Note_on_c, 2, 57, 0
1, 153356, Note_on_c, 2, 52, 0
1, 153356, Note_on_c, 0, 61, 0
1, 153356, Note_on_c, 0, 57, 0
1, 153356, Note_on_c, 0, 52, 0
1, 153360, Note_on_c, 0, 52, 100
1, 153360, Note_on_c, 0, 57, 100
1, 153360, Note_on_c, 0, 61, 100
1, 153360, Note_on_c, 2, 52, 100
1, 153360, Note_on_c, 2, 57, 100
1, 153360, Note_on_c, 2, 61, 100
1, 153360, Note_on_c, 4, 80, 125
1, 153360, Note_on_c, 7, 73, 119
1, 153360, Note_on_c, 13, 80, 125
1, 153420, Note_on_c, 7, 73, 0
1, 153480, Note_on_c, 7, 64, 109
1, 153540, Note_on_c, 7, 64, 0
1, 153596, Note_on_c, 13, 80, 0
1, 153596, Note_on_c, 4, 80, 0
1, 153596, Note_on_c, 2, 61, 0
1, 153596, Note_on_c, 2, 57, 0
1, 153596, Note_on_c, 2, 52, 0
1, 153596, Note_on_c, 0, 61, 0
1, 153596, Note_on_c, 0, 57, 0
1, 153596, Note_on_c, 0, 52, 0
1, 153596, Note_on_c, 10, 84, 0
1, 153600, Note_on_c, 0, 56, 100
1, 153600, Note_on_c, 0, 61, 100
1, 153600, Note_on_c, 0, 66, 100
1, 153600, Note_on_c, 2, 56, 100
1, 153600, Note_on_c, 2, 61, 100
1, 153600, Note_on_c, 2, 66, 100
1, 153600, Note_on_c, 4, 78, 127
1, 153600, Note_on_c, 7, 61, 106
1, 153600, Note_on_c, 9, 32, 100
1, 153600, Note_on_c, 13, 78, 127
1, 153660, Note_on_c, 7, 61, 0
1, 153720, Note_on_c, 7, 49, 92
1, 153776, Note_on_c, 7, 49, 0
1, 153836, Note_on_c, 13, 78, 0
1, 153836, Note_on_c, 9, 32, 0
1, 153836, Note_on_c, 4, 78, 0
1, 153836, Note_on_c, 2, 66, 0
1, 153836, Note_on_c, 2, 61, 0
1, 153836, Note_on_c, 2, 56, 0
1, 153836, Note_on_c, 0, 66, 0
1, 153836, Note_on_c, 0, 61, 0
1, 153836, Note_on_c, 0, 56, 0
1, 153840, Note_on_c, 0, 56, 100
1, 153840, Note_on_c, 0, 61, 100
1, 153840, Note_on_c, 0, 64, 100
1, 153840, Note_on_c, 2, 56, 100
1, 153840, Note_on_c, 2, 61, 100
1, 153840, Note_on_c, 2, 64, 100
1, 153840, Note_on_c, 4, 76, 101
1, 153840, Note_on_c, 7, 61, 106
1, 153840, Note_on_c, 13, 76, 101
1, 153900, Note_on_c, 7, 61, 0
1, 153960, Note_on_c, 7, 68, 127
1, 154016, Note_on_c, 7, 68, 0
1, 154076, Note_on_c, 13, 76, 0
1, 154076, Note_on_c, 4, 76, 0
1, 154076, Note_on_c, 2, 64, 0
1, 154076, Note_on_c, 2, 61, 0
1, 154076, Note_on_c, 2, 56, 0
1, 154076, Note_on_c, 0, 64, 0
1, 154076, Note_on_c, 0, 61, 0
1, 154076, Note_on_c, 0, 56, 0
1, 154080, Note_on_c, 0, 56, 100
1, 154080, Note_on_c, 0, 61, 100
1, 154080, Note_on_c, 0, 64, 100
1, 154080, Note_on_c, 2, 56, 100
1, 154080, Note_on_c, 2, 61, 100
1, 154080, Note_on_c, 2, 64, 100
1, 154080, Note_on_c, 4, 76, 116
1, 154080, Note_on_c, 7, 56, 92
1, 154080, Note_on_c, 9, 32, 100
1, 154080, Note_on_c, 13, 76, 116
1, 154136, Note_on_c, 7, 56, 0
1, 154200, Note_on_c, 7, 61, 109
1, 154260, Note_on_c, 7, 61, 0
1, 154316, Note_on_c, 13, 76, 0
1, 154316, Note_on_c, 9, 32, 0
1, 154316, Note_on_c, 4, 76, 0
1, 154316, Note_on_c, 2, 64, 0
1, 154316, Note_on_c, 2, 61, 0
1, 154316, Note_on_c, 2, 56, 0
1, 154316, Note_on_c, 0, 64, 0
1, 154316, Note_on_c, 0, 61, 0
1, 154316, Note_on_c, 0, 56, 0
1, 154320, Note_on_c, 7, 68, 127
1, 154380, Note_on_c, 7, 68, 0
1, 154440, Note_on_c, 7, 73, 100
1, 154556, Note_on_c, 7, 73, 0
1, 154560, Note_on_c, 0, 56, 100
1, 154560, Note_on_c, 0, 59, 100
1, 154560, Note_on_c, 0, 64, 100
1, 154560, Note_on_c, 2, 56, 100
1, 154560, Note_on_c, 2, 59, 100
1, 154560, Note_on_c, 2, 64, 100
1, 154560, Note_on_c, 4, 76, 119
1, 154560, Note_on_c, 7, 73, 127
1, 154560, Note_on_c, 9, 32, 100
1, 154560, Note_on_c, 13, 76, 119
1, 154616, Note_on_c, 7, 73, 0
1, 154680, Note_on_c, 7, 68, 59
1, 154736, Note_on_c, 7, 68, 0
1, 154796, Note_on_c, 13, 76, 0
1, 154796, Note_on_c, 9, 32, 0
1, 154796, Note_on_c, 4, 76, 0
1, 154796, Note_on_c, 2, 64, 0
1, 154796, Note_on_c, 2, 59, 0
1, 154796, Note_on_c, 2, 56, 0
1, 154796, Note_on_c, 0, 64, 0
1, 154796, Note_on_c, 0, 59, 0
1, 154796, Note_on_c, 0, 56, 0
1, 154800, Note_on_c, 0, 56, 100
1, 154800, Note_on_c, 0, 59, 100
1, 154800, Note_on_c, 0, 64, 100
1, 154800, Note_on_c, 2, 56, 100
1, 154800, Note_on_c, 2, 59, 100
1, 154800, Note_on_c, 2, 64, 100
1, 154800, Note_on_c, 4, 76, 111
1, 154800, Note_on_c, 7, 73, 78
1, 154800, Note_on_c, 13, 76, 111
1, 154856, Note_on_c, 7, 73, 0
1, 154920, Note_on_c, 7, 81, 125
1, 155036, Note_on_c, 7, 81, 0
1, 155036, Note_on_c, 13, 76, 0
1, 155036, Note_on_c, 4, 76, 0
1, 155036, Note_on_c, 2, 64, 0
1, 155036, Note_on_c, 2, 59, 0
1, 155036, Note_on_c, 2, 56, 0
1, 155036, Note_on_c, 0, 64, 0
1, 155036, Note_on_c, 0, 59, 0
1, 155036, Note_on_c, 0, 56, 0
1, 155040, Note_on_c, 0, 56, 100
1, 155040, Note_on_c, 0, 59, 100
1, 155040, Note_on_c, 0, 64, 100
1, 155040, Note_on_c, 2, 56, 100
1, 155040, Note_on_c, 2, 59, 100
1, 155040, Note_on_c, 2, 64, 100
1, 155040, Note_on_c, 4, 76, 109
1, 155040, Note_on_c, 7, 73, 84
1, 155040, Note_on_c, 9, 32, 100
1, 155040, Note_on_c, 13, 76, 109
1, 155100, Note_on_c, 7, 73, 0
1, 155160, Note_on_c, 7, 68, 73
1, 155276, Note_on_c, 7, 68, 0
1, 155276, Note_on_c, 13, 76, 0
1, 155276, Note_on_c, 9, 32, 0
1, 155276, Note_on_c, 4, 76, 0
1, 155276, Note_on_c, 2, 64, 0
1, 155276, Note_on_c, 2, 59, 0
1, 155276, Note_on_c, 2, 56, 0
1, 155276, Note_on_c, 0, 64, 0
1, 155276, Note_on_c, 0, 59, 0
1, 155276, Note_on_c, 0, 56, 0
1, 155280, Note_on_c, 0, 56, 100
1, 155280, Note_on_c, 0, 59, 100
1, 155280, Note_on_c, 0, 64, 100
1, 155280, Note_on_c, 2, 56, 100
1, 155280, Note_on_c, 2, 59, 100
1, 155280, Note_on_c, 2, 64, 100
1, 155280, Note_on_c, 4, 76, 87
1, 155280, Note_on_c, 7, 73, 119
1, 155280, Note_on_c, 13, 76, 87
1, 155340, Note_on_c, 7, 73, 0
1, 155400, Note_on_c, 7, 64, 109
1, 155460, Note_on_c, 7, 64, 0
1, 155516, Note_on_c, 13, 76, 0
1, 155516, Note_on_c, 4, 76, 0
1, 155516, Note_on_c, 2, 64, 0
1, 155516, Note_on_c, 2, 59, 0
1, 155516, Note_on_c, 2, 56, 0
1, 155516, Note_on_c, 0, 64, 0
1, 155516, Note_on_c, 0, 59, 0
1, 155516, Note_on_c, 0, 56, 0
1, 155520, Note_on_c, 0, 54, 100
1, 155520, Note_on_c, 0, 59, 100
1, 155520, Note_on_c, 0, 63, 100
1, 155520, Note_on_c, 2, 54, 100
1, 155520, Note_on_c, 2, 59, 100
1, 155520, Note_on_c, 2, 63, 100
1, 155520, Note_on_c, 4, 73, 127
1, 155520, Note_on_c, 7, 61, 106
1, 155520, Note_on_c, 9, 32, 100
1, 155520, Note_on_c, 13, 73, 127
1, 155580, Note_on_c, 7, 61, 0
1, 155640, Note_on_c, 7, 49, 92
1, 155696, Note_on_c, 7, 49, 0
1, 155756, Note_on_c, 13, 73, 0
1, 155756, Note_on_c, 9, 32, 0
1, 155756, Note_on_c, 4, 73, 0
1, 155756, Note_on_c, 2, 63, 0
1, 155756, Note_on_c, 2, 59, 0
1, 155756, Note_on_c, 2, 54, 0
1, 155756, Note_on_c, 0, 63, 0
1, 155756, Note_on_c, 0, 59, 0
1, 155756, Note_on_c, 0, 54, 0
1, 155760, Note_on_c, 0, 54, 100
1, 155760, Note_on_c, 0, 59, 100
1, 155760, Note_on_c, 0, 63, 100
1, 155760, Note_on_c, 2, 54, 100
1, 155760, Note_on_c, 2, 59, 100
1, 155760, Note_on_c, 2, 63, 100
1, 155760, Note_on_c, 4, 73, 127
1, 155760, Note_on_c, 7, 61, 106
1, 155760, Note_on_c, 13, 73, 127
1, 155820, Note_on_c, 7, 61, 0
1, 155880, Note_on_c, 7, 68, 127
1, 155936, Note_on_c, 7, 68, 0
1, 155996, Note_on_c, 13, 73, 0
1, 155996, Note_on_c, 4, 73, 0
1, 155996, Note_on_c, 2, 63, 0
1, 155996, Note_on_c, 2, 59, 0
1, 155996, Note_on_c, 2, 54, 0
1, 155996, Note_on_c, 0, 63, 0
1, 155996, Note_on_c, 0, 59, 0
1, 155996, Note_on_c, 0, 54, 0
1, 156000, Note_on_c, 0, 54, 100
1, 156000, Note_on_c, 0, 59, 100
1, 156000, Note_on_c, 0, 63, 100
1, 156000, Note_on_c, 2, 54, 100
1, 156000, Note_on_c, 2, 59, 100
1, 156000, Note_on_c, 2, 63, 100
1, 156000, Note_on_c, 4, 71, 113
1, 156000, Note_on_c, 7, 56, 92
1, 156000, Note_on_c, 9, 32, 100
1, 156000, Note_on_c, 13, 71, 113
1, 156056, Note_on_c, 7, 56, 0
1, 156120, Note_on_c, 7, 61, 109
1, 156180, Note_on_c, 7, 61, 0
1, 156236, Note_on_c, 13, 71, 0
1, 156236, Note_on_c, 9, 32, 0
1, 156236, Note_on_c, 4, 71, 0
1, 156236, Note_on_c, 2, 63, 0
1, 156236, Note_on_c, 2, 59, 0
1, 156236, Note_on_c, 2, 54, 0
1, 156236, Note_on_c, 0, 63, 0
1, 156236, Note_on_c, 0, 59, 0
1, 156236, Note_on_c, 0, 54, 0
1, 156240, Note_on_c, 0, 52, 100
1, 156240, Note_on_c, 0, 57, 100
1, 156240, Note_on_c, 0, 61, 100
1, 156240, Note_on_c, 2, 52, 100
1, 156240, Note_on_c, 2, 57, 100
1, 156240, Note_on_c, 2, 61, 100
1, 156240, Note_on_c, 4, 71, 122
1, 156240, Note_on_c, 7, 68, 127
1, 156240, Note_on_c, 9, 29, 100
1, 156240, Note_on_c, 13, 71, 122
1, 156300, Note_on_c, 7, 68, 0
1, 156360, Note_on_c, 7, 73, 100
1, 156476, Note_on_c, 7, 73, 0
1, 156476, Note_on_c, 13, 71, 0
1, 156476, Note_on_c, 9, 29, 0
1, 156476, Note_on_c, 4, 71, 0
1, 156476, Note_on_c, 2, 61, 0
1, 156476, Note_on_c, 2, 57, 0
1, 156476, Note_on_c, 2, 52, 0
1, 156476, Note_on_c, 0, 61, 0
1, 156476, Note_on_c, 0, 57, 0
1, 156476, Note_on_c, 0, 52, 0
1, 156480, Note_on_c, 7, 73, 127
1, 156480, Note_on_c, 9, 32, 100
1, 156536, Note_on_c, 7, 73, 0
1, 156600, Note_on_c, 7, 68, 59
1, 156656, Note_on_c, 7, 68, 0
1, 156716, Note_on_c, 9, 32, 0
1, 156720, Note_on_c, 0, 52, 100
1, 156720, Note_on_c, 0, 57, 100
1, 156720, Note_on_c, 0, 61, 100
1, 156720, Note_on_c, 2, 52, 100
1, 156720, Note_on_c, 2, 57, 100
1, 156720, Note_on_c, 2, 61, 100
1, 156720, Note_on_c, 4, 85, 127
1, 156720, Note_on_c, 7, 73, 78
1, 156720, Note_on_c, 13, 85, 127
1, 156776, Note_on_c, 7, 73, 0
1, 156840, Note_on_c, 7, 81, 125
1, 156956, Note_on_c, 7, 81, 0
1, 156956, Note_on_c, 13, 85, 0
1, 156956, Note_on_c, 4, 85, 0
1, 156956, Note_on_c, 2, 61, 0
1, 156956, Note_on_c, 2, 57, 0
1, 156956, Note_on_c, 2, 52, 0
1, 156956, Note_on_c, 0, 61, 0
1, 156956, Note_on_c, 0, 57, 0
1, 156956, Note_on_c, 0, 52, 0
1, 156960, Note_on_c, 0, 52, 100
1, 156960, Note_on_c, 0, 57, 100
1, 156960, Note_on_c, 0, 61, 100
1, 156960, Note_on_c, 2, 52, 100
1, 156960, Note_on_c, 2, 57, 100
1, 156960, Note_on_c, 2, 61, 100
1, 156960, Note_on_c, 4, 83, 119
1, 156960, Note_on_c, 7, 73, 84
1, 156960, Note_on_c, 9, 32, 100
1, 156960, Note_on_c, 13, 83, 119
1, 157020, Note_on_c, 7, 73, 0
1, 157080, Note_on_c, 7, 68, 73
1, 157196, Note_on_c, 7, 68, 0
1, 157196, Note_on_c, 13, 83, 0
1, 157196, Note_on_c, 9, 32, 0
1, 157196, Note_on_c, 4, 83, 0
1, 157196, Note_on_c, 2, 61, 0
1, 157196, Note_on_c, 2, 57, 0
1, 157196, Note_on_c, 2, 52, 0
1, 157196, Note_on_c, 0, 61, 0
1, 157196, Note_on_c, 0, 57, 0
1, 157196, Note_on_c, 0, 52, 0
1, 157200, Note_on_c, 0, 52, 100
1, 157200, Note_on_c, 0, 57, 100
1, 157200, Note_on_c, 0, 61, 100
1, 157200, Note_on_c, 2, 52, 100
1, 157200, Note_on_c, 2, 57, 100
1, 157200, Note_on_c, 2, 61, 100
1, 157200, Note_on_c, 4, 80, 127
1, 157200, Note_on_c, 7, 73, 119
1, 157200, Note_on_c, 13, 80, 127
1, 157200, Pitch_bend_c, 14, 1329
1, 157260, Note_on_c, 7, 73, 0
1, 157320, Note_on_c, 7, 64, 109
1, 157320, Pitch_bend_c, 14, 1467
1, 157380, Note_on_c, 7, 64, 0
1, 157436, Note_on_c, 13, 80, 0
1, 157436, Note_on_c, 4, 80, 0
1, 157436, Note_on_c, 2, 61, 0
1, 157436, Note_on_c, 2, 57, 0
1, 157436, Note_on_c, 2, 52, 0
1, 157436, Note_on_c, 0, 61, 0
1, 157436, Note_on_c, 0, 57, 0
1, 157436, Note_on_c, 0, 52, 0
1, 157440, Note_on_c, 0, 56, 100
1, 157440, Note_on_c, 0, 61, 100
1, 157440, Note_on_c, 0, 66, 100
1, 157440, Note_on_c, 2, 56, 100
1, 157440, Note_on_c, 2, 61, 100
1, 157440, Note_on_c, 2, 66, 100
1, 157440, Note_on_c, 4, 78, 127
1, 157440, Note_on_c, 7, 61, 106
1, 157440, Note_on_c, 9, 32, 100
1, 157440, Control_c, 12, 11, 127
1, 157440, Note_on_c, 13, 78, 127
1, 157440, Pitch_bend_c, 14, 1606
1, 157440, Note_on_c, 14, 96, 116
1, 157500, Note_on_c, 14, 96, 0
1, 157500, Note_on_c, 7, 61, 0
1, 157560, Note_on_c, 7, 49, 92
1, 157560, Pitch_bend_c, 14, 1745
1, 157560, Note_on_c, 14, 96, 87
1, 157616, Note_on_c, 7, 49, 0
1, 157620, Note_on_c, 14, 96, 0
1, 157676, Note_on_c, 13, 78, 0
1, 157676, Note_on_c, 9, 32, 0
1, 157676, Note_on_c, 4, 78, 0
1, 157676, Note_on_c, 2, 66, 0
1, 157676, Note_on_c, 2, 61, 0
1, 157676, Note_on_c, 2, 56, 0
1, 157676, Note_on_c, 0, 66, 0
1, 157676, Note_on_c, 0, 61, 0
1, 157676, Note_on_c, 0, 56, 0
1, 157680, Note_on_c, 0, 56, 100
1, 157680, Note_on_c, 0, 61, 100
1, 157680, Note_on_c, 0, 64, 100
1, 157680, Note_on_c, 2, 56, 100
1, 157680, Note_on_c, 2, 61, 100
1, 157680, Note_on_c, 2, 64, 100
1, 157680, Note_on_c, 4, 76, 118
1, 157680, Note_on_c, 7, 61, 106
1, 157680, Note_on_c, 13, 76, 118
1, 157680, Pitch_bend_c, 14, 1884
1, 157680, Note_on_c, 14, 96, 111
1, 157736, Note_on_c, 14, 96, 0
1, 157740, Note_on_c, 7, 61, 0
1, 157800, Note_on_c, 7, 68, 127
1, 157800, Pitch_bend_c, 14, 2023
1, 157800, Note_on_c, 14, 96, 92
1, 157856, Note_on_c, 7, 68, 0
1, 157860, Note_on_c, 14, 96, 0
1, 157916, Note_on_c, 13, 76, 0
1, 157916, Note_on_c, 4, 76, 0
1, 157916, Note_on_c, 2, 64, 0
1, 157916, Note_on_c, 2, 61, 0
1, 157916, Note_on_c, 2, 56, 0
1, 157916, Note_on_c, 0, 64, 0
1, 157916, Note_on_c, 0, 61, 0
1, 157916, Note_on_c, 0, 56, 0
1, 157920, Note_on_c, 0, 56, 100
1, 157920, Note_on_c, 0, 61, 100
1, 157920, Note_on_c, 0, 64, 100
1, 157920, Note_on_c, 2, 56, 100
1, 157920, Note_on_c, 2, 61, 100
1, 157920, Note_on_c, 2, 64, 100
1, 157920, Note_on_c, 4, 76, 119
1, 157920, Note_on_c, 7, 56, 92
1, 157920, Note_on_c, 9, 32, 100
1, 157920, Note_on_c, 13, 76, 119
1, 157920, Pitch_bend_c, 14, 2162
1, 157920, Note_on_c, 14, 96, 105
1, 157976, Note_on_c, 14, 96, 0
1, 157976, Note_on_c, 7, 56, 0
1, 158040, Note_on_c, 7, 61, 109
1, 158040, Pitch_bend_c, 14, 2301
1, 158040, Note_on_c, 14, 96, 91
1, 158100, Note_on_c, 14, 96, 0
1, 158100, Note_on_c, 7, 61, 0
1, 158156, Note_on_c, 13, 76, 0
1, 158156, Note_on_c, 9, 32, 0
1, 158156, Note_on_c, 4, 76, 0
1, 158156, Note_on_c, 2, 64, 0
1, 158156, Note_on_c, 2, 61, 0
1, 158156, Note_on_c, 2, 56, 0
1, 158156, Note_on_c, 0, 64, 0
1, 158156, Note_on_c, 0, 61, 0
1, 158156, Note_on_c, 0, 56, 0
1, 158160, Note_on_c, 7, 68, 127
1, 158160, Pitch_bend_c, 14, 2440
1, 158160, Note_on_c, 14, 96, 113
1, 158216, Note_on_c, 14, 96, 0
1, 158220, Note_on_c, 7, 68, 0
1, 158280, Note_on_c, 7, 73, 100
1, 158280, Pitch_bend_c, 14, 2579
1, 158280, Note_on_c, 14, 96, 101
1, 158336, Note_on_c, 14, 96, 0
1, 158396, Note_on_c, 7, 73, 0
1, 158400, Note_on_c, 0, 56, 100
1, 158400, Note_on_c, 0, 59, 100
1, 158400, Note_on_c, 0, 64, 100
1, 158400, Note_on_c, 2, 56, 100
1, 158400, Note_on_c, 2, 59, 100
1, 158400, Note_on_c, 2, 64, 100
1, 158400, Note_on_c, 4, 76, 125
1, 158400, Note_on_c, 7, 73, 127
1, 158400, Note_on_c, 9, 32, 100
1, 158400, Note_on_c, 13, 76, 125
1, 158400, Pitch_bend_c, 14, 2718
1, 158400, Note_on_c, 14, 96, 119
1, 158456, Note_on_c, 14, 96, 0
1, 158456, Note_on_c, 7, 73, 0
1, 158520, Note_on_c, 7, 68, 59
1, 158520, Pitch_bend_c, 14, 2857
1, 158520, Note_on_c, 14, 96, 91
1, 158576, Note_on_c, 7, 68, 0
1, 158580, Note_on_c, 14, 96, 0
1, 158636, Note_on_c, 13, 76, 0
1, 158636, Note_on_c, 9, 32, 0
1, 158636, Note_on_c, 4, 76, 0
1, 158636, Note_on_c, 2, 64, 0
1, 158636, Note_on_c, 2, 59, 0
1, 158636, Note_on_c, 2, 56, 0
1, 158636, Note_on_c, 0, 64, 0
1, 158636, Note_on_c, 0, 59, 0
1, 158636, Note_on_c, 0, 56, 0
1, 158640, Note_on_c, 0, 56, 100
1, 158640, Note_on_c, 0, 59, 100
1, 158640, Note_on_c, 0, 64, 100
1, 158640, Note_on_c, 2, 56, 100
1, 158640, Note_on_c, 2, 59, 100
1, 158640, Note_on_c, 2, 64, 100
1, 158640, Note_on_c, 4, 76, 119
1, 158640, Note_on_c, 7, 73, 78
1, 158640, Note_on_c, 13, 76, 119
1, 158640, Pitch_bend_c, 14, 2996
1, 158640, Note_on_c, 14, 96, 119
1, 158696, Note_on_c, 7, 73, 0
1, 158700, Note_on_c, 14, 96, 0
1, 158760, Note_on_c, 7, 81, 125
1, 158760, Pitch_bend_c, 14, 3134
1, 158760, Note_on_c, 14, 96, 94
1, 158820, Note_on_c, 14, 96, 0
1, 158876, Note_on_c, 7, 81, 0
1, 158876, Note_on_c, 13, 76, 0
1, 158876, Note_on_c, 4, 76, 0
1, 158876, Note_on_c, 2, 64, 0
1, 158876, Note_on_c, 2, 59, 0
1, 158876, Note_on_c, 2, 56, 0
1, 158876, Note_on_c, 0, 64, 0
1, 158876, Note_on_c, 0, 59, 0
1, 158876, Note_on_c, 0, 56, 0
1, 158880, Note_on_c, 0, 56, 100
1, 158880, Note_on_c, 0, 59, 100
1, 158880, Note_on_c, 0, 64, 100
1, 158880, Note_on_c, 2, 56, 100
1, 158880, Note_on_c, 2, 59, 100
1, 158880, Note_on_c, 2, 64, 100
1, 158880, Note_on_c, 4, 76, 118
1, 158880, Note_on_c, 7, 73, 84
1, 158880, Note_on_c, 9, 32, 100
1, 158880, Note_on_c, 13, 76, 118
1, 158880, Pitch_bend_c, 14, 3273
1, 158880, Note_on_c, 14, 96, 116
1, 158940, Note_on_c, 14, 96, 0
1, 158940, Note_on_c, 7, 73, 0
1, 159000, Note_on_c, 7, 68, 73
1, 159000, Pitch_bend_c, 14, 3412
1, 159000, Note_on_c, 14, 96, 94
1, 159056, Note_on_c, 14, 96, 0
1, 159116, Note_on_c, 7, 68, 0
1, 159116, Note_on_c, 13, 76, 0
1, 159116, Note_on_c, 9, 32, 0
1, 159116, Note_on_c, 4, 76, 0
1, 159116, Note_on_c, 2, 64, 0
1, 159116, Note_on_c, 2, 59, 0
1, 159116, Note_on_c, 2, 56, 0
1, 159116, Note_on_c, 0, 64, 0
1, 159116, Note_on_c, 0, 59, 0
1, 159116, Note_on_c, 0, 56, 0
1, 159120, Note_on_c, 0, 56, 100
1, 159120, Note_on_c, 0, 59, 100
1, 159120, Note_on_c, 0, 64, 100
1, 159120, Note_on_c, 2, 56, 100
1, 159120, Note_on_c, 2, 59, 100
1, 159120, Note_on_c, 2, 64, 100
1, 159120, Note_on_c, 4, 76, 116
1, 159120, Note_on_c, 7, 73, 119
1, 159120, Note_on_c, 13, 76, 116
1, 159120, Pitch_bend_c, 14, 3551
1, 159120, Note_on_c, 14, 96, 107
1, 159180, Note_on_c, 14, 96, 0
1, 159180, Note_on_c, 7, 73, 0
1, 159240, Note_on_c, 7, 64, 109
1, 159240, Pitch_bend_c, 14, 3690
1, 159240, Note_on_c, 14, 96, 97
1, 159296, Note_on_c, 14, 96, 0
1, 159300, Note_on_c, 7, 64, 0
1, 159356, Note_on_c, 13, 76, 0
1, 159356, Note_on_c, 4, 76, 0
1, 159356, Note_on_c, 2, 64, 0
1, 159356, Note_on_c, 2, 59, 0
1, 159356, Note_on_c, 2, 56, 0
1, 159356, Note_on_c, 0, 64, 0
1, 159356, Note_on_c, 0, 59, 0
1, 159356, Note_on_c, 0, 56, 0
1, 159360, Note_on_c, 0, 54, 100
1, 159360, Note_on_c, 0, 59, 100
1, 159360, Note_on_c, 0, 63, 100
1, 159360, Note_on_c, 2, 54, 100
1, 159360, Note_on_c, 2, 59, 100
1, 159360, Note_on_c, 2, 63, 100
1, 159360, Note_on_c, 4, 75, 119
1, 159360, Note_on_c, 7, 61, 106
1, 159360, Note_on_c, 9, 32, 100
1, 159360, Note_on_c, 13, 75, 119
1, 159360, Pitch_bend_c, 14, 3829
1, 159360, Note_on_c, 14, 96, 116
1, 159416, Note_on_c, 14, 96, 0
1, 159420, Note_on_c, 7, 61, 0
1, 159480, Note_on_c, 7, 49, 92
1, 159480, Pitch_bend_c, 14, 3968
1, 159480, Note_on_c, 14, 96, 98
1, 159536, Note_on_c, 7, 49, 0
1, 159540, Note_on_c, 14, 96, 0
1, 159596, Note_on_c, 13, 75, 0
1, 159596, Note_on_c, 9, 32, 0
1, 159596, Note_on_c, 4, 75, 0
1, 159596, Note_on_c, 2, 63, 0
1, 159596, Note_on_c, 2, 59, 0
1, 159596, Note_on_c, 2, 54, 0
1, 159596, Note_on_c, 0, 63, 0
1, 159596, Note_on_c, 0, 59, 0
1, 159596, Note_on_c, 0, 54, 0
1, 159600, Note_on_c, 0, 54, 100
1, 159600, Note_on_c, 0, 59, 100
1, 159600, Note_on_c, 0, 63, 100
1, 159600, Note_on_c, 2, 54, 100
1, 159600, Note_on_c, 2, 59, 100
1, 159600, Note_on_c, 2, 63, 100
1, 159600, Note_on_c, 4, 75, 119
1, 159600, Note_on_c, 7, 61, 106
1, 159600, Note_on_c, 13, 75, 119
1, 159600, Pitch_bend_c, 14, 4107
1, 159600, Note_on_c, 14, 96, 109
1, 159656, Note_on_c, 14, 96, 0
1, 159660, Note_on_c, 7, 61, 0
1, 159720, Note_on_c, 7, 68, 127
1, 159720, Pitch_bend_c, 14, 4246
1, 159720, Note_on_c, 14, 96, 95
1, 159776, Note_on_c, 14, 96, 0
1, 159776, Note_on_c, 7, 68, 0
1, 159836, Note_on_c, 13, 75, 0
1, 159836, Note_on_c, 4, 75, 0
1, 159836, Note_on_c, 2, 63, 0
1, 159836, Note_on_c, 2, 59, 0
1, 159836, Note_on_c, 2, 54, 0
1, 159836, Note_on_c, 0, 63, 0
1, 159836, Note_on_c, 0, 59, 0
1, 159836, Note_on_c, 0, 54, 0
1, 159840, Note_on_c, 0, 54, 100
1, 159840, Note_on_c, 0, 59, 100
1, 159840, Note_on_c, 0, 63, 100
1, 159840, Note_on_c, 2, 54, 100
1, 159840, Note_on_c, 2, 59, 100
1, 159840, Note_on_c, 2, 63, 100
1, 159840, Note_on_c, 4, 76, 113
1, 159840, Note_on_c, 7, 56, 92
1, 159840, Note_on_c, 9, 32, 100
1, 159840, Note_on_c, 13, 76, 113
1, 159840, Pitch_bend_c, 14, 4385
1, 159840, Note_on_c, 14, 96, 111
1, 159896, Note_on_c, 14, 96, 0
1, 159896, Note_on_c, 7, 56, 0
1, 159960, Note_on_c, 7, 61, 109
1, 159960, Pitch_bend_c, 14, 4524
1, 159960, Note_on_c, 14, 96, 95
1, 160016, Note_on_c, 14, 96, 0
1, 160020, Note_on_c, 7, 61, 0
1, 160076, Note_on_c, 13, 76, 0
1, 160076, Note_on_c, 9, 32, 0
1, 160076, Note_on_c, 4, 76, 0
1, 160076, Note_on_c, 2, 63, 0
1, 160076, Note_on_c, 2, 59, 0
1, 160076, Note_on_c, 2, 54, 0
1, 160076, Note_on_c, 0, 63, 0
1, 160076, Note_on_c, 0, 59, 0
1, 160076, Note_on_c, 0, 54, 0
1, 160080, Note_on_c, 0, 52, 100
1, 160080, Note_on_c, 0, 57, 100
1, 160080, Note_on_c, 0, 61, 100
1, 160080, Note_on_c, 2, 52, 100
1, 160080, Note_on_c, 2, 57, 100
1, 160080, Note_on_c, 2, 61, 100
1, 160080, Note_on_c, 4, 76, 111
1, 160080, Note_on_c, 7, 68, 127
1, 160080, Note_on_c, 9, 29, 100
1, 160080, Note_on_c, 13, 76, 111
1, 160080, Pitch_bend_c, 14, 4663
1, 160080, Note_on_c, 14, 96, 111
1, 160140, Note_on_c, 14, 96, 0
1, 160140, Note_on_c, 7, 68, 0
1, 160200, Note_on_c, 7, 73, 100
1, 160200, Pitch_bend_c, 14, 4802
1, 160200, Note_on_c, 14, 96, 95
1, 160260, Note_on_c, 14, 96, 0
1, 160316, Note_on_c, 7, 73, 0
1, 160316, Note_on_c, 13, 76, 0
1, 160316, Note_on_c, 9, 29, 0
1, 160316, Note_on_c, 4, 76, 0
1, 160316, Note_on_c, 2, 61, 0
1, 160316, Note_on_c, 2, 57, 0
1, 160316, Note_on_c, 2, 52, 0
1, 160316, Note_on_c, 0, 61, 0
1, 160316, Note_on_c, 0, 57, 0
1, 160316, Note_on_c, 0, 52, 0
1, 160320, Note_on_c, 7, 73, 127
1, 160320, Note_on_c, 9, 32, 100
1, 160320, Pitch_bend_c, 14, 4940
1, 160320, Note_on_c, 14, 96, 116
1, 160376, Note_on_c, 14, 96, 0
1, 160376, Note_on_c, 7, 73, 0
1, 160440, Note_on_c, 7, 68, 59
1, 160440, Pitch_bend_c, 14, 5079
1, 160440, Note_on_c, 14, 96, 90
1, 160496, Note_on_c, 14, 96, 0
1, 160496, Note_on_c, 7, 68, 0
1, 160556, Note_on_c, 9, 32, 0
1, 160560, Note_on_c, 0, 52, 100
1, 160560, Note_on_c, 0, 57, 100
1, 160560, Note_on_c, 0, 61, 100
1, 160560, Note_on_c, 2, 52, 100
1, 160560, Note_on_c, 2, 57, 100
1, 160560, Note_on_c, 2, 61, 100
1, 160560, Note_on_c, 4, 85, 127
1, 160560, Note_on_c, 7, 73, 78
1, 160560, Note_on_c, 13, 85, 127
1, 160560, Pitch_bend_c, 14, 5218
1, 160560, Note_on_c, 14, 96, 109
1, 160616, Note_on_c, 7, 73, 0
1, 160620, Note_on_c, 14, 96, 0
1, 160680, Note_on_c, 7, 81, 125
1, 160680, Pitch_bend_c, 14, 5357
1, 160680, Note_on_c, 14, 96, 97
1, 160740, Note_on_c, 14, 96, 0
1, 160796, Note_on_c, 7, 81, 0
1, 160796, Note_on_c, 13, 85, 0
1, 160796, Note_on_c, 4, 85, 0
1, 160796, Note_on_c, 2, 61, 0
1, 160796, Note_on_c, 2, 57, 0
1, 160796, Note_on_c, 2, 52, 0
1, 160796, Note_on_c, 0, 61, 0
1, 160796, Note_on_c, 0, 57, 0
1, 160796, Note_on_c, 0, 52, 0
1, 160800, Note_on_c, 0, 52, 100
1, 160800, Note_on_c, 0, 57, 100
1, 160800, Note_on_c, 0, 61, 100
1, 160800, Note_on_c, 2, 52, 100
1, 160800, Note_on_c, 2, 57, 100
1, 160800, Note_on_c, 2, 61, 100
1, 160800, Note_on_c, 4, 83, 119
1, 160800, Note_on_c, 7, 73, 84
1, 160800, Note_on_c, 9, 32, 100
1, 160800, Note_on_c, 13, 83, 119
1, 160800, Pitch_bend_c, 14, 5496
1, 160800, Note_on_c, 14, 96, 122
1, 160860, Note_on_c, 14, 96, 0
1, 160860, Note_on_c, 7, 73, 0
1, 160920, Note_on_c, 7, 68, 73
1, 160920, Pitch_bend_c, 14, 5635
1, 160920, Note_on_c, 14, 96, 92
1, 160976, Note_on_c, 14, 96, 0
1, 161036, Note_on_c, 7, 68, 0
1, 161036, Note_on_c, 13, 83, 0
1, 161036, Note_on_c, 9, 32, 0
1, 161036, Note_on_c, 4, 83, 0
1, 161036, Note_on_c, 2, 61, 0
1, 161036, Note_on_c, 2, 57, 0
1, 161036, Note_on_c, 2, 52, 0
1, 161036, Note_on_c, 0, 61, 0
1, 161036, Note_on_c, 0, 57, 0
1, 161036, Note_on_c, 0, 52, 0
1, 161040, Note_on_c, 0, 52, 100
1, 161040, Note_on_c, 0, 57, 100
1, 161040, Note_on_c, 0, 61, 100
1, 161040, Note_on_c, 2, 52, 100
1, 161040, Note_on_c, 2, 57, 100
1, 161040, Note_on_c, 2, 61, 100
1, 161040, Note_on_c, 4, 80, 125
1, 161040, Note_on_c, 7, 73, 119
1, 161040, Note_on_c, 13, 80, 125
1, 161040, Pitch_bend_c, 14, 5774
1, 161040, Note_on_c, 14, 96, 116
1, 161096, Note_on_c, 14, 96, 0
1, 161100, Note_on_c, 7, 73, 0
1, 161160, Note_on_c, 7, 64, 109
1, 161160, Pitch_bend_c, 14, 5913
1, 161160, Note_on_c, 14, 96, 111
1, 161216, Note_on_c, 14, 96, 0
1, 161220, Note_on_c, 7, 64, 0
1, 161276, Note_on_c, 13, 80, 0
1, 161276, Note_on_c, 4, 80, 0
1, 161276, Note_on_c, 2, 61, 0
1, 161276, Note_on_c, 2, 57, 0
1, 161276, Note_on_c, 2, 52, 0
1, 161276, Note_on_c, 0, 61, 0
1, 161276, Note_on_c, 0, 57, 0
1, 161276, Note_on_c, 0, 52, 0
1, 161280, Note_on_c, 0, 56, 100
1, 161280, Note_on_c, 0, 61, 100
1, 161280, Note_on_c, 0, 66, 100
1, 161280, Note_on_c, 2, 56, 100
1, 161280, Note_on_c, 2, 61, 100
1, 161280, Note_on_c, 2, 66, 100
1, 161280, Note_on_c, 4, 78, 127
1, 161280, Note_on_c, 7, 61, 106
1, 161280, Note_on_c, 9, 32, 100
1, 161280, Note_on_c, 13, 78, 127
1, 161280, Pitch_bend_c, 14, 6052
1, 161280, Note_on_c, 14, 96, 116
1, 161340, Note_on_c, 14, 96, 0
1, 161340, Note_on_c, 7, 61, 0
1, 161400, Note_on_c, 7, 49, 92
1, 161400, Pitch_bend_c, 14, 6191
1, 161400, Note_on_c, 14, 96, 87
1, 161456, Note_on_c, 7, 49, 0
1, 161460, Note_on_c, 14, 96, 0
1, 161516, Note_on_c, 13, 78, 0
1, 161516, Note_on_c, 9, 32, 0
1, 161516, Note_on_c, 4, 78, 0
1, 161516, Note_on_c, 2, 66, 0
1, 161516, Note_on_c, 2, 61, 0
1, 161516, Note_on_c, 2, 56, 0
1, 161516, Note_on_c, 0, 66, 0
1, 161516, Note_on_c, 0, 61, 0
1, 161516, Note_on_c, 0, 56, 0
1, 161520, Note_on_c, 0, 56, 100
1, 161520, Note_on_c, 0, 61, 100
1, 161520, Note_on_c, 0, 64, 100
1, 161520, Note_on_c, 2, 56, 100
1, 161520, Note_on_c, 2, 61, 100
1, 161520, Note_on_c, 2, 64, 100
1, 161520, Note_on_c, 4, 76, 101
1, 161520, Note_on_c, 7, 61, 106
1, 161520, Note_on_c, 13, 76, 101
1, 161520, Pitch_bend_c, 14, 6330
1, 161520, Note_on_c, 14, 96, 111
1, 161576, Note_on_c, 14, 96, 0
1, 161580, Note_on_c, 7, 61, 0
1, 161640, Note_on_c, 7, 68, 127
1, 161640, Pitch_bend_c, 14, 6469
1, 161640, Note_on_c, 14, 96, 92
1, 161696, Note_on_c, 7, 68, 0
1, 161700, Note_on_c, 14, 96, 0
1, 161756, Note_on_c, 13, 76, 0
1, 161756, Note_on_c, 4, 76, 0
1, 161756, Note_on_c, 2, 64, 0
1, 161756, Note_on_c, 2, 61, 0
1, 161756, Note_on_c, 2, 56, 0
1, 161756, Note_on_c, 0, 64, 0
1, 161756, Note_on_c, 0, 61, 0
1, 161756, Note_on_c, 0, 56, 0
1, 161760, Note_on_c, 0, 56, 100
1, 161760, Note_on_c, 0, 61, 100
1, 161760, Note_on_c, 0, 64, 100
1, 161760, Note_on_c, 2, 56, 100
1, 161760, Note_on_c, 2, 61, 100
1, 161760, Note_on_c, 2, 64, 100
1, 161760, Note_on_c, 4, 76, 116
1, 161760, Note_on_c, 7, 56, 92
1, 161760, Note_on_c, 9, 32, 100
1, 161760, Note_on_c, 13, 76, 116
1, 161760, Pitch_bend_c, 14, 6608
1, 161760, Note_on_c, 14, 96, 105
1, 161816, Note_on_c, 14, 96, 0
1, 161816, Note_on_c, 7, 56, 0
1, 161880, Note_on_c, 7, 61, 109
1, 161880, Pitch_bend_c, 14, 6746
1, 161880, Note_on_c, 14, 96, 91
1, 161940, Note_on_c, 14, 96, 0
1, 161940, Note_on_c, 7, 61, 0
1, 161996, Note_on_c, 13, 76, 0
1, 161996, Note_on_c, 9, 32, 0
1, 161996, Note_on_c, 4, 76, 0
1, 161996, Note_on_c, 2, 64, 0
1, 161996, Note_on_c, 2, 61, 0
1, 161996, Note_on_c, 2, 56, 0
1, 161996, Note_on_c, 0, 64, 0
1, 161996, Note_on_c, 0, 61, 0
1, 161996, Note_on_c, 0, 56, 0
1, 162000, Note_on_c, 7, 68, 127
1, 162000, Pitch_bend_c, 14, 6885
1, 162000, Note_on_c, 14, 96, 113
1, 162056, Note_on_c, 14, 96, 0
1, 162060, Note_on_c, 7, 68, 0
1, 162120, Note_on_c, 7, 73, 100
1, 162120, Pitch_bend_c, 14, 7024
1, 162120, Note_on_c, 14, 96, 101
1, 162176, Note_on_c, 14, 96, 0
1, 162236, Note_on_c, 7, 73, 0
1, 162240, Note_on_c, 0, 56, 100
1, 162240, Note_on_c, 0, 59, 100
1, 162240, Note_on_c, 0, 64, 100
1, 162240, Note_on_c, 2, 56, 100
1, 162240, Note_on_c, 2, 59, 100
1, 162240, Note_on_c, 2, 64, 100
1, 162240, Note_on_c, 4, 76, 119
1, 162240, Note_on_c, 7, 73, 127
1, 162240, Note_on_c, 9, 32, 100
1, 162240, Note_on_c, 13, 76, 119
1, 162240, Pitch_bend_c, 14, 7163
1, 162240, Note_on_c, 14, 96, 119
1, 162296, Note_on_c, 14, 96, 0
1, 162296, Note_on_c, 7, 73, 0
1, 162360, Note_on_c, 7, 68, 59
1, 162360, Pitch_bend_c, 14, 7302
1, 162360, Note_on_c, 14, 96, 91
1, 162416, Note_on_c, 7, 68, 0
1, 162420, Note_on_c, 14, 96, 0
1, 162476, Note_on_c, 13, 76, 0
1, 162476, Note_on_c, 9, 32, 0
1, 162476, Note_on_c, 4, 76, 0
1, 162476, Note_on_c, 2, 64, 0
1, 162476, Note_on_c, 2, 59, 0
1, 162476, Note_on_c, 2, 56, 0
1, 162476, Note_on_c, 0, 64, 0
1, 162476, Note_on_c, 0, 59, 0
1, 162476, Note_on_c, 0, 56, 0
1, 162480, Note_on_c, 0, 56, 100
1, 162480, Note_on_c, 0, 59, 100
1, 162480, Note_on_c, 0, 64, 100
1, 162480, Note_on_c, 2, 56, 100
1, 162480, Note_on_c, 2, 59, 100
1, 162480, Note_on_c, 2, 64, 100
1, 162480, Note_on_c, 4, 76, 111
1, 162480, Note_on_c, 7, 73, 78
1, 162480, Note_on_c, 13, 76, 111
1, 162480, Pitch_bend_c, 14, 7441
1, 162480, Note_on_c, 14, 96, 119
1, 162536, Note_on_c, 7, 73, 0
1, 162540, Note_on_c, 14, 96, 0
1, 162600, Note_on_c, 7, 81, 125
1, 162600, Pitch_bend_c, 14, 7580
1, 162600, Note_on_c, 14, 96, 94
1, 162660, Note_on_c, 14, 96, 0
1, 162716, Note_on_c, 7, 81, 0
1, 162716, Note_on_c, 13, 76, 0
1, 162716, Note_on_c, 4, 76, 0
1, 162716, Note_on_c, 2, 64, 0
1, 162716, Note_on_c, 2, 59, 0
1, 162716, Note_on_c, 2, 56, 0
1, 162716, Note_on_c, 0, 64, 0
1, 162716, Note_on_c, 0, 59, 0
1, 162716, Note_on_c, 0, 56, 0
1, 162720, Note_on_c, 0, 56, 100
1, 162720, Note_on_c, 0, 59, 100
1, 162720, Note_on_c, 0, 64, 100
1, 162720, Note_on_c, 2, 56, 100
1, 162720, Note_on_c, 2, 59, 100
1, 162720, Note_on_c, 2, 64, 100
1, 162720, Note_on_c, 4, 76, 109
1, 162720, Note_on_c, 7, 73, 84
1, 162720, Note_on_c, 9, 32, 100
1, 162720, Note_on_c, 13, 76, 109
1, 162720, Pitch_bend_c, 14, 7719
1, 162720, Note_on_c, 14, 96, 116
1, 162780, Note_on_c, 14, 96, 0
1, 162780, Note_on_c, 7, 73, 0
1, 162840, Note_on_c, 7, 68, 73
1, 162840, Pitch_bend_c, 14, 7858
1, 162840, Note_on_c, 14, 96, 94
1, 162896, Note_on_c, 14, 96, 0
1, 162956, Note_on_c, 7, 68, 0
1, 162956, Note_on_c, 13, 76, 0
1, 162956, Note_on_c, 9, 32, 0
1, 162956, Note_on_c, 4, 76, 0
1, 162956, Note_on_c, 2, 64, 0
1, 162956, Note_on_c, 2, 59, 0
1, 162956, Note_on_c, 2, 56, 0
1, 162956, Note_on_c, 0, 64, 0
1, 162956, Note_on_c, 0, 59, 0
1, 162956, Note_on_c, 0, 56, 0
1, 162960, Note_on_c, 0, 56, 100
1, 162960, Note_on_c, 0, 59, 100
1, 162960, Note_on_c, 0, 64, 100
1, 162960, Note_on_c, 2, 56, 100
1, 162960, Note_on_c, 2, 59, 100
1, 162960, Note_on_c, 2, 64, 100
1, 162960, Note_on_c, 4, 76, 87
1, 162960, Note_on_c, 7, 73, 119
1, 162960, Note_on_c, 13, 76, 87
1, 162960, Pitch_bend_c, 14, 7997
1, 162960, Note_on_c, 14, 96, 107
1, 163020, Note_on_c, 14, 96, 0
1, 163020, Note_on_c, 7, 73, 0
1, 163080, Note_on_c, 7, 64, 109
1, 163080, Pitch_bend_c, 14, 8192
1, 163080, Note_on_c, 14, 96, 97
1, 163136, Note_on_c, 14, 96, 0
1, 163140, Note_on_c, 7, 64, 0
1, 163196, Note_on_c, 13, 76, 0
1, 163196, Note_on_c, 4, 76, 0
1, 163196, Note_on_c, 2, 64, 0
1, 163196, Note_on_c, 2, 59, 0
1, 163196, Note_on_c, 2, 56, 0
1, 163196, Note_on_c, 0, 64, 0
1, 163196, Note_on_c, 0, 59, 0
1, 163196, Note_on_c, 0, 56, 0
1, 163200, Note_on_c, 0, 54, 100
1, 163200, Note_on_c, 0, 59, 100
1, 163200, Note_on_c, 0, 63, 100
1, 163200, Note_on_c, 2, 54, 100
1, 163200, Note_on_c, 2, 59, 100
1, 163200, Note_on_c, 2, 63, 100
1, 163200, Note_on_c, 4, 73, 127
1, 163200, Note_on_c, 7, 61, 106
1, 163200, Note_on_c, 9, 32, 100
1, 163200, Note_on_c, 13, 73, 127
1, 163200, Pitch_bend_c, 14, 8275
1, 163200, Note_on_c, 14, 96, 116
1, 163256, Note_on_c, 14, 96, 0
1, 163260, Note_on_c, 7, 61, 0
1, 163320, Note_on_c, 7, 49, 92
1, 163320, Pitch_bend_c, 14, 8414
1, 163320, Note_on_c, 14, 96, 98
1, 163376, Note_on_c, 7, 49, 0
1, 163380, Note_on_c, 14, 96, 0
1, 163436, Note_on_c, 13, 73, 0
1, 163436, Note_on_c, 9, 32, 0
1, 163436, Note_on_c, 4, 73, 0
1, 163436, Note_on_c, 2, 63, 0
1, 163436, Note_on_c, 2, 59, 0
1, 163436, Note_on_c, 2, 54, 0
1, 163436, Note_on_c, 0, 63, 0
1, 163436, Note_on_c, 0, 59, 0
1, 163436, Note_on_c, 0, 54, 0
1, 163440, Note_on_c, 0, 54, 100
1, 163440, Note_on_c, 0, 59, 100
1, 163440, Note_on_c, 0, 63, 100
1, 163440, Note_on_c, 2, 54, 100
1, 163440, Note_on_c, 2, 59, 100
1, 163440, Note_on_c, 2, 63, 100
1, 163440, Note_on_c, 4, 73, 127
1, 163440, Note_on_c, 7, 61, 106
1, 163440, Note_on_c, 13, 73, 127
1, 163440, Note_on_c, 14, 96, 109
1, 163496, Note_on_c, 14, 96, 0
1, 163500, Note_on_c, 7, 61, 0
1, 163560, Note_on_c, 7, 68, 127
1, 163560, Note_on_c, 14, 96, 95
1, 163616, Note_on_c, 14, 96, 0
1, 163616, Note_on_c, 7, 68, 0
1, 163676, Note_on_c, 13, 73, 0
1, 163676, Note_on_c, 4, 73, 0
1, 163676, Note_on_c, 2, 63, 0
1, 163676, Note_on_c, 2, 59, 0
1, 163676, Note_on_c, 2, 54, 0
1, 163676, Note_on_c, 0, 63, 0
1, 163676, Note_on_c, 0, 59, 0
1, 163676, Note_on_c, 0, 54, 0
1, 163680, Note_on_c, 0, 54, 100
1, 163680, Note_on_c, 0, 59, 100
1, 163680, Note_on_c, 0, 63, 100
1, 163680, Note_on_c, 2, 54, 100
1, 163680, Note_on_c, 2, 59, 100
1, 163680, Note_on_c, 2, 63, 100
1, 163680, Note_on_c, 4, 71, 113
1, 163680, Note_on_c, 7, 56, 92
1, 163680, Note_on_c, 9, 32, 100
1, 163680, Note_on_c, 13, 71, 113
1, 163680, Note_on_c, 14, 96, 111
1, 163736, Note_on_c, 14, 96, 0
1, 163736, Note_on_c, 7, 56, 0
1, 163800, Note_on_c, 7, 61, 109
1, 163800, Pitch_bend_c, 14, 9299
1, 163800, Note_on_c, 14, 96, 95
1, 163856, Note_on_c, 14, 96, 0
1, 163860, Note_on_c, 7, 61, 0
1, 163916, Note_on_c, 13, 71, 0
1, 163916, Note_on_c, 9, 32, 0
1, 163916, Note_on_c, 4, 71, 0
1, 163916, Note_on_c, 2, 63, 0
1, 163916, Note_on_c, 2, 59, 0
1, 163916, Note_on_c, 2, 54, 0
1, 163916, Note_on_c, 0, 63, 0
1, 163916, Note_on_c, 0, 59, 0
1, 163916, Note_on_c, 0, 54, 0
1, 163920, Note_on_c, 0, 52, 100
1, 163920, Note_on_c, 0, 57, 100
1, 163920, Note_on_c, 0, 61, 100
1, 163920, Note_on_c, 2, 52, 100
1, 163920, Note_on_c, 2, 57, 100
1, 163920, Note_on_c, 2, 61, 100
1, 163920, Note_on_c, 4, 71, 122
1, 163920, Note_on_c, 7, 68, 127
1, 163920, Note_on_c, 9, 29, 100
1, 163920, Note_on_c, 13, 71, 122
1, 163920, Pitch_bend_c, 14, 9943
1, 163920, Note_on_c, 14, 96, 111
1, 163980, Note_on_c, 14, 96, 0
1, 163980, Note_on_c, 7, 68, 0
1, 164040, Note_on_c, 7, 73, 100
1, 164040, Pitch_bend_c, 14, 10587
1, 164040, Note_on_c, 14, 96, 95
1, 164100, Note_on_c, 14, 96, 0
1, 164156, Note_on_c, 7, 73, 0
1, 164156, Note_on_c, 13, 71, 0
1, 164156, Note_on_c, 9, 29, 0
1, 164156, Note_on_c, 4, 71, 0
1, 164156, Note_on_c, 2, 61, 0
1, 164156, Note_on_c, 2, 57, 0
1, 164156, Note_on_c, 2, 52, 0
1, 164156, Note_on_c, 0, 61, 0
1, 164156, Note_on_c, 0, 57, 0
1, 164156, Note_on_c, 0, 52, 0
1, 164160, Note_on_c, 7, 73, 127
1, 164160, Note_on_c, 8, 72, 127
1, 164160, Note_on_c, 9, 32, 100
1, 164160, Pitch_bend_c, 14, 11231
1, 164160, Note_on_c, 14, 96, 116
1, 164216, Note_on_c, 14, 96, 0
1, 164216, Note_on_c, 7, 73, 0
1, 164280, Note_on_c, 7, 68, 59
1, 164280, Pitch_bend_c, 14, 11875
1, 164280, Note_on_c, 14, 96, 90
1, 164336, Note_on_c, 14, 96, 0
1, 164336, Note_on_c, 7, 68, 0
1, 164396, Note_on_c, 9, 32, 0
1, 164400, Note_on_c, 0, 52, 100
1, 164400, Note_on_c, 0, 57, 100
1, 164400, Note_on_c, 0, 61, 100
1, 164400, Note_on_c, 2, 52, 100
1, 164400, Note_on_c, 2, 57, 100
1, 164400, Note_on_c, 2, 61, 100
1, 164400, Note_on_c, 4, 85, 127
1, 164400, Note_on_c, 7, 73, 78
1, 164400, Note_on_c, 13, 85, 127
1, 164400, Pitch_bend_c, 14, 12519
1, 164400, Note_on_c, 14, 96, 109
1, 164456, Note_on_c, 7, 73, 0
1, 164460, Note_on_c, 14, 96, 0
1, 164520, Note_on_c, 7, 81, 125
1, 164520, Pitch_bend_c, 14, 13163
1, 164520, Note_on_c, 14, 96, 97
1, 164580, Note_on_c, 14, 96, 0
1, 164636, Note_on_c, 7, 81, 0
1, 164636, Note_on_c, 13, 85, 0
1, 164636, Note_on_c, 4, 85, 0
1, 164636, Note_on_c, 2, 61, 0
1, 164636, Note_on_c, 2, 57, 0
1, 164636, Note_on_c, 2, 52, 0
1, 164636, Note_on_c, 0, 61, 0
1, 164636, Note_on_c, 0, 57, 0
1, 164636, Note_on_c, 0, 52, 0
1, 164640, Note_on_c, 0, 52, 100
1, 164640, Note_on_c, 0, 57, 100
1, 164640, Note_on_c, 0, 61, 100
1, 164640, Note_on_c, 2, 52, 100
1, 164640, Note_on_c, 2, 57, 100
1, 164640, Note_on_c, 2, 61, 100
1, 164640, Note_on_c, 4, 83, 119
1, 164640, Note_on_c, 7, 73, 84
1, 164640, Note_on_c, 9, 32, 100
1, 164640, Note_on_c, 13, 83, 119
1, 164640, Pitch_bend_c, 14, 13807
1, 164640, Note_on_c, 14, 96, 122
1, 164700, Note_on_c, 14, 96, 0
1, 164700, Note_on_c, 7, 73, 0
1, 164760, Note_on_c, 7, 68, 73
1, 164760, Pitch_bend_c, 14, 14451
1, 164760, Note_on_c, 14, 96, 92
1, 164816, Note_on_c, 14, 96, 0
1, 164876, Note_on_c, 7, 68, 0
1, 164876, Note_on_c, 13, 83, 0
1, 164876, Note_on_c, 9, 32, 0
1, 164876, Note_on_c, 4, 83, 0
1, 164876, Note_on_c, 2, 61, 0
1, 164876, Note_on_c, 2, 57, 0
1, 164876, Note_on_c, 2, 52, 0
1, 164876, Note_on_c, 0, 61, 0
1, 164876, Note_on_c, 0, 57, 0
1, 164876, Note_on_c, 0, 52, 0
1, 164880, Note_on_c, 0, 52, 100
1, 164880, Note_on_c, 0, 57, 100
1, 164880, Note_on_c, 0, 61, 100
1, 164880, Note_on_c, 2, 52, 100
1, 164880, Note_on_c, 2, 57, 100
1, 164880, Note_on_c, 2, 61, 100
1, 164880, Note_on_c, 4, 80, 127
1, 164880, Note_on_c, 7, 73, 119
1, 164880, Note_on_c, 13, 80, 127
1, 164880, Pitch_bend_c, 14, 15095
1, 164880, Note_on_c, 14, 96, 116
1, 164936, Note_on_c, 14, 96, 0
1, 164940, Note_on_c, 7, 73, 0
1, 165000, Note_on_c, 7, 64, 109
1, 165000, Pitch_bend_c, 14, 15739
1, 165000, Note_on_c, 14, 96, 111
1, 165056, Note_on_c, 14, 96, 0
1, 165060, Note_on_c, 7, 64, 0
1, 165116, Note_on_c, 13, 80, 0
1, 165116, Note_on_c, 4, 80, 0
1, 165116, Note_on_c, 2, 61, 0
1, 165116, Note_on_c, 2, 57, 0
1, 165116, Note_on_c, 2, 52, 0
1, 165116, Note_on_c, 0, 61, 0
1, 165116, Note_on_c, 0, 57, 0
1, 165116, Note_on_c, 0, 52, 0
1, 165116, Note_on_c, 8, 72, 0
1, 165120, Note_on_c, 0, 56, 100
1, 165120, Note_on_c, 0, 61, 100
1, 165120, Note_on_c, 0, 66, 100
1, 165120, Note_on_c, 2, 56, 100
1, 165120, Note_on_c, 2, 61, 100
1, 165120, Note_on_c, 2, 66, 100
1, 165120, Note_on_c, 4, 78, 127
1, 165120, Note_on_c, 7, 61, 106
1, 165120, Note_on_c, 9, 32, 100
1, 165120, Note_on_c, 9, 36, 127
1, 165120, Note_on_c, 9, 42, 100
1, 165120, Note_on_c, 9, 49, 127
1, 165120, Note_on_c, 13, 78, 127
1, 165120, Pitch_bend_c, 14, 16383
1, 165120, Note_on_c, 14, 96, 116
1, 165180, Note_on_c, 14, 96, 0
1, 165180, Note_on_c, 7, 61, 0
1, 165236, Note_on_c, 9, 42, 0
1, 165240, Note_on_c, 7, 49, 92
1, 165240, Note_on_c, 14, 96, 87
1, 165296, Note_on_c, 7, 49, 0
1, 165300, Note_on_c, 14, 96, 0
1, 165356, Note_on_c, 13, 78, 0
1, 165356, Note_on_c, 9, 49, 0
1, 165356, Note_on_c, 9, 36, 0
1, 165356, Note_on_c, 9, 32, 0
1, 165356, Note_on_c, 4, 78, 0
1, 165356, Note_on_c, 2, 66, 0
1, 165356, Note_on_c, 2, 61, 0
1, 165356, Note_on_c, 2, 56, 0
1, 165356, Note_on_c, 0, 66, 0
1, 165356, Note_on_c, 0, 61, 0
1, 165356, Note_on_c, 0, 56, 0
1, 165360, Note_on_c, 0, 56, 100
1, 165360, Note_on_c, 0, 61, 100
1, 165360, Note_on_c, 0, 64, 100
1, 165360, Note_on_c, 1, 37, 100
1, 165360, Note_on_c, 2, 56, 100
1, 165360, Note_on_c, 2, 61, 100
1, 165360, Note_on_c, 2, 64, 100
1, 165360, Note_on_c, 4, 76, 118
1, 165360, Note_on_c, 7, 61, 106
1, 165360, Note_on_c, 9, 42, 100
1, 165360, Note_on_c, 9, 82, 80
1, 165360, Note_on_c, 13, 76, 118
1, 165360, Note_on_c, 14, 96, 111
1, 165392, Note_on_c, 9, 82, 0
1, 165416, Note_on_c, 14, 96, 0
1, 165420, Note_on_c, 7, 61, 0
1, 165476, Note_on_c, 9, 42, 0
1, 165480, Note_on_c, 7, 68, 127
1, 165480, Note_on_c, 9, 42, 100
1, 165480, Pitch_bend_c, 14, 15941
1, 165480, Note_on_c, 14, 96, 92
1, 165536, Note_on_c, 7, 68, 0
1, 165540, Note_on_c, 14, 96, 0
1, 165596, Note_on_c, 9, 42, 0
1, 165596, Note_on_c, 13, 76, 0
1, 165596, Note_on_c, 4, 76, 0
1, 165596, Note_on_c, 2, 64, 0
1, 165596, Note_on_c, 2, 61, 0
1, 165596, Note_on_c, 2, 56, 0
1, 165596, Note_on_c, 1, 37, 0
1, 165596, Note_on_c, 0, 64, 0
1, 165596, Note_on_c, 0, 61, 0
1, 165596, Note_on_c, 0, 56, 0
1, 165600, Note_on_c, 0, 56, 100
1, 165600, Note_on_c, 0, 61, 100
1, 165600, Note_on_c, 0, 64, 100
1, 165600, Note_on_c, 2, 56, 100
1, 165600, Note_on_c, 2, 61, 100
1, 165600, Note_on_c, 2, 64, 100
1, 165600, Note_on_c, 4, 76, 119
1, 165600, Note_on_c, 7, 56, 92
1, 165600, Note_on_c, 9, 32, 100
1, 165600, Note_on_c, 9, 36, 127
1, 165600, Note_on_c, 9, 37, 127
1, 165600, Note_on_c, 9, 42, 100
1, 165600, Note_on_c, 9, 49, 115
1, 165600, Note_on_c, 13, 76, 119
1, 165600, Pitch_bend_c, 14, 15918
1, 165600, Note_on_c, 14, 96, 105
1, 165656, Note_on_c, 14, 96, 0
1, 165656, Note_on_c, 7, 56, 0
1, 165716, Note_on_c, 9, 42, 0
1, 165720, Note_on_c, 7, 61, 109
1, 165720, Pitch_bend_c, 14, 15895
1, 165720, Note_on_c, 14, 96, 91
1, 165780, Note_on_c, 14, 96, 0
1, 165780, Note_on_c, 7, 61, 0
1, 165836, Note_on_c, 13, 76, 0
1, 165836, Note_on_c, 9, 49, 0
1, 165836, Note_on_c, 9, 37, 0
1, 165836, Note_on_c, 9, 36, 0
1, 165836, Note_on_c, 9, 32, 0
1, 165836, Note_on_c, 4, 76, 0
1, 165836, Note_on_c, 2, 64, 0
1, 165836, Note_on_c, 2, 61, 0
1, 165836, Note_on_c, 2, 56, 0
1, 165836, Note_on_c, 0, 64, 0
1, 165836, Note_on_c, 0, 61, 0
1, 165836, Note_on_c, 0, 56, 0
1, 165840, Note_on_c, 7, 68, 127
1, 165840, Note_on_c, 9, 42, 100
1, 165840, Note_on_c, 9, 82, 80
1, 165840, Pitch_bend_c, 14, 15872
1, 165840, Note_on_c, 14, 96, 113
1, 165876, Note_on_c, 9, 82, 0
1, 165896, Note_on_c, 14, 96, 0
1, 165900, Note_on_c, 7, 68, 0
1, 165956, Note_on_c, 9, 42, 0
1, 165960, Note_on_c, 7, 73, 100
1, 165960, Note_on_c, 9, 42, 100
1, 165960, Pitch_bend_c, 14, 15849
1, 165960, Note_on_c, 14, 96, 101
1, 166016, Note_on_c, 14, 96, 0
1, 166076, Note_on_c, 9, 42, 0
1, 166076, Note_on_c, 7, 73, 0
1, 166080, Note_on_c, 0, 56, 100
1, 166080, Note_on_c, 0, 59, 100
1, 166080, Note_on_c, 0, 64, 100
1, 166080, Note_on_c, 2, 56, 100
1, 166080, Note_on_c, 2, 59, 100
1, 166080, Note_on_c, 2, 64, 100
1, 166080, Note_on_c, 4, 76, 125
1, 166080, Note_on_c, 7, 73, 127
1, 166080, Note_on_c, 9, 32, 100
1, 166080, Note_on_c, 9, 36, 127
1, 166080, Note_on_c, 9, 42, 100
1, 166080, Note_on_c, 9, 49, 74
1, 166080, Note_on_c, 13, 76, 125
1, 166080, Pitch_bend_c, 14, 15826
1, 166080, Note_on_c, 14, 96, 119
1, 166136, Note_on_c, 14, 96, 0
1, 166136, Note_on_c, 7, 73, 0
1, 166196, Note_on_c, 9, 42, 0
1, 166200, Note_on_c, 7, 68, 59
1, 166200, Pitch_bend_c, 14, 15803
1, 166200, Note_on_c, 14, 96, 91
1, 166256, Note_on_c, 7, 68, 0
1, 166260, Note_on_c, 14, 96, 0
1, 166316, Note_on_c, 13, 76, 0
1, 166316, Note_on_c, 9, 49, 0
1, 166316, Note_on_c, 9, 36, 0
1, 166316, Note_on_c, 9, 32, 0
1, 166316, Note_on_c, 4, 76, 0
1, 166316, Note_on_c, 2, 64, 0
1, 166316, Note_on_c, 2, 59, 0
1, 166316, Note_on_c, 2, 56, 0
1, 166316, Note_on_c, 0, 64, 0
1, 166316, Note_on_c, 0, 59, 0
1, 166316, Note_on_c, 0, 56, 0
1, 166320, Note_on_c, 0, 56, 100
1, 166320, Note_on_c, 0, 59, 100
1, 166320, Note_on_c, 0, 64, 100
1, 166320, Note_on_c, 1, 40, 100
1, 166320, Note_on_c, 2, 56, 100
1, 166320, Note_on_c, 2, 59, 100
1, 166320, Note_on_c, 2, 64, 100
1, 166320, Note_on_c, 4, 76, 119
1, 166320, Note_on_c, 7, 73, 78
1, 166320, Note_on_c, 9, 42, 100
1, 166320, Note_on_c, 9, 82, 80
1, 166320, Note_on_c, 13, 76, 119
1, 166320, Pitch_bend_c, 14, 15780
1, 166320, Note_on_c, 14, 96, 119
1, 166368, Note_on_c, 9, 82, 0
1, 166376, Note_on_c, 7, 73, 0
1, 166380, Note_on_c, 14, 96, 0
1, 166436, Note_on_c, 9, 42, 0
1, 166440, Note_on_c, 7, 81, 125
1, 166440, Note_on_c, 9, 42, 100
1, 166440, Pitch_bend_c, 14, 15757
1, 166440, Note_on_c, 14, 96, 94
1, 166500, Note_on_c, 14, 96, 0
1, 166556, Note_on_c, 9, 42, 0
1, 166556, Note_on_c, 7, 81, 0
1, 166556, Note_on_c, 13, 76, 0
1, 166556, Note_on_c, 4, 76, 0
1, 166556, Note_on_c, 2, 64, 0
1, 166556, Note_on_c, 2, 59, 0
1, 166556, Note_on_c, 2, 56, 0
1, 166556, Note_on_c, 1, 40, 0
1, 166556, Note_on_c, 0, 64, 0
1, 166556, Note_on_c, 0, 59, 0
1, 166556, Note_on_c, 0, 56, 0
1, 166560, Note_on_c, 0, 56, 100
1, 166560, Note_on_c, 0, 59, 100
1, 166560, Note_on_c, 0, 64, 100
1, 166560, Note_on_c, 2, 56, 100
1, 166560, Note_on_c, 2, 59, 100
1, 166560, Note_on_c, 2, 64, 100
1, 166560, Note_on_c, 4, 76, 118
1, 166560, Note_on_c, 7, 73, 84
1, 166560, Note_on_c, 9, 32, 100
1, 166560, Note_on_c, 9, 36, 127
1, 166560, Note_on_c, 9, 37, 127
1, 166560, Note_on_c, 9, 42, 100
1, 166560, Note_on_c, 9, 49, 80
1, 166560, Note_on_c, 13, 76, 118
1, 166560, Pitch_bend_c, 14, 15734
1, 166560, Note_on_c, 14, 96, 116
1, 166620, Note_on_c, 14, 96, 0
1, 166620, Note_on_c, 7, 73, 0
1, 166676, Note_on_c, 9, 42, 0
1, 166680, Note_on_c, 7, 68, 73
1, 166680, Pitch_bend_c, 14, 15711
1, 166680, Note_on_c, 14, 96, 94
1, 166736, Note_on_c, 14, 96, 0
1, 166796, Note_on_c, 7, 68, 0
1, 166796, Note_on_c, 13, 76, 0
1, 166796, Note_on_c, 9, 49, 0
1, 166796, Note_on_c, 9, 37, 0
1, 166796, Note_on_c, 9, 36, 0
1, 166796, Note_on_c, 9, 32, 0
1, 166796, Note_on_c, 4, 76, 0
1, 166796, Note_on_c, 2, 64, 0
1, 166796, Note_on_c, 2, 59, 0
1, 166796, Note_on_c, 2, 56, 0
1, 166796, Note_on_c, 0, 64, 0
1, 166796, Note_on_c, 0, 59, 0
1, 166796, Note_on_c, 0, 56, 0
1, 166800, Note_on_c, 0, 56, 100
1, 166800, Note_on_c, 0, 59, 100
1, 166800, Note_on_c, 0, 64, 100
1, 166800, Note_on_c, 1, 40, 100
1, 166800, Note_on_c, 2, 56, 100
1, 166800, Note_on_c, 2, 59, 100
1, 166800, Note_on_c, 2, 64, 100
1, 166800, Note_on_c, 4, 76, 116
1, 166800, Note_on_c, 7, 73, 119
1, 166800, Note_on_c, 9, 42, 100
1, 166800, Note_on_c, 9, 82, 80
1, 166800, Note_on_c, 13, 76, 116
1, 166800, Pitch_bend_c, 14, 15688
1, 166800, Note_on_c, 14, 96, 107
1, 166852, Note_on_c, 9, 82, 0
1, 166860, Note_on_c, 14, 96, 0
1, 166860, Note_on_c, 7, 73, 0
1, 166916, Note_on_c, 9, 42, 0
1, 166920, Note_on_c, 7, 64, 109
1, 166920, Note_on_c, 9, 42, 100
1, 166920, Pitch_bend_c, 14, 15665
1, 166920, Note_on_c, 14, 96, 97
1, 166976, Note_on_c, 14, 96, 0
1, 166980, Note_on_c, 7, 64, 0
1, 167036, Note_on_c, 9, 42, 0
1, 167036, Note_on_c, 13, 76, 0
1, 167036, Note_on_c, 4, 76, 0
1, 167036, Note_on_c, 2, 64, 0
1, 167036, Note_on_c, 2, 59, 0
1, 167036, Note_on_c, 2, 56, 0
1, 167036, Note_on_c, 1, 40, 0
1, 167036, Note_on_c, 0, 64, 0
1, 167036, Note_on_c, 0, 59, 0
1, 167036, Note_on_c, 0, 56, 0
1, 167040, Note_on_c, 0, 54, 100
1, 167040, Note_on_c, 0, 59, 100
1, 167040, Note_on_c, 0, 63, 100
1, 167040, Note_on_c, 2, 54, 100
1, 167040, Note_on_c, 2, 59, 100
1, 167040, Note_on_c, 2, 63, 100
1, 167040, Note_on_c, 4, 75, 119
1, 167040, Note_on_c, 7, 61, 106
1, 167040, Note_on_c, 9, 32, 100
1, 167040, Note_on_c, 9, 36, 127
1, 167040, Note_on_c, 9, 42, 100
1, 167040, Note_on_c, 9, 49, 72
1, 167040, Note_on_c, 13, 75, 119
1, 167040, Pitch_bend_c, 14, 15642
1, 167040, Note_on_c, 14, 96, 116
1, 167096, Note_on_c, 14, 96, 0
1, 167100, Note_on_c, 7, 61, 0
1, 167156, Note_on_c, 9, 42, 0
1, 167160, Note_on_c, 7, 49, 92
1, 167160, Pitch_bend_c, 14, 15619
1, 167160, Note_on_c, 14, 96, 98
1, 167216, Note_on_c, 7, 49, 0
1, 167220, Note_on_c, 14, 96, 0
1, 167276, Note_on_c, 13, 75, 0
1, 167276, Note_on_c, 9, 49, 0
1, 167276, Note_on_c, 9, 36, 0
1, 167276, Note_on_c, 9, 32, 0
1, 167276, Note_on_c, 4, 75, 0
1, 167276, Note_on_c, 2, 63, 0
1, 167276, Note_on_c, 2, 59, 0
1, 167276, Note_on_c, 2, 54, 0
1, 167276, Note_on_c, 0, 63, 0
1, 167276, Note_on_c, 0, 59, 0
1, 167276, Note_on_c, 0, 54, 0
1, 167280, Note_on_c, 0, 54, 100
1, 167280, Note_on_c, 0, 59, 100
1, 167280, Note_on_c, 0, 63, 100
1, 167280, Note_on_c, 1, 35, 100
1, 167280, Note_on_c, 2, 54, 100
1, 167280, Note_on_c, 2, 59, 100
1, 167280, Note_on_c, 2, 63, 100
1, 167280, Note_on_c, 4, 75, 119
1, 167280, Note_on_c, 7, 61, 106
1, 167280, Note_on_c, 9, 42, 100
1, 167280, Note_on_c, 9, 82, 80
1, 167280, Note_on_c, 13, 75, 119
1, 167280, Pitch_bend_c, 14, 15597
1, 167280, Note_on_c, 14, 96, 109
1, 167332, Note_on_c, 9, 82, 0
1, 167336, Note_on_c, 14, 96, 0
1, 167340, Note_on_c, 7, 61, 0
1, 167396, Note_on_c, 9, 42, 0
1, 167400, Note_on_c, 7, 68, 127
1, 167400, Note_on_c, 9, 42, 100
1, 167400, Pitch_bend_c, 14, 15574
1, 167400, Note_on_c, 14, 96, 95
1, 167456, Note_on_c, 14, 96, 0
1, 167456, Note_on_c, 7, 68, 0
1, 167516, Note_on_c, 9, 42, 0
1, 167516, Note_on_c, 13, 75, 0
1, 167516, Note_on_c, 4, 75, 0
1, 167516, Note_on_c, 2, 63, 0
1, 167516, Note_on_c, 2, 59, 0
1, 167516, Note_on_c, 2, 54, 0
1, 167516, Note_on_c, 1, 35, 0
1, 167516, Note_on_c, 0, 63, 0
1, 167516, Note_on_c, 0, 59, 0
1, 167516, Note_on_c, 0, 54, 0
1, 167520, Note_on_c, 0, 54, 100
1, 167520, Note_on_c, 0, 59, 100
1, 167520, Note_on_c, 0, 63, 100
1, 167520, Note_on_c, 2, 54, 100
1, 167520, Note_on_c, 2, 59, 100
1, 167520, Note_on_c, 2, 63, 100
1, 167520, Note_on_c, 4, 76, 113
1, 167520, Note_on_c, 7, 56, 92
1, 167520, Note_on_c, 9, 32, 100
1, 167520, Note_on_c, 9, 36, 127
1, 167520, Note_on_c, 9, 37, 127
1, 167520, Note_on_c, 9, 42, 100
1, 167520, Note_on_c, 9, 49, 57
1, 167520, Note_on_c, 13, 76, 113
1, 167520, Pitch_bend_c, 14, 15551
1, 167520, Note_on_c, 14, 96, 111
1, 167576, Note_on_c, 14, 96, 0
1, 167576, Note_on_c, 7, 56, 0
1, 167636, Note_on_c, 9, 42, 0
1, 167640, Note_on_c, 7, 61, 109
1, 167640, Pitch_bend_c, 14, 15528
1, 167640, Note_on_c, 14, 96, 95
1, 167696, Note_on_c, 14, 96, 0
1, 167700, Note_on_c, 7, 61, 0
1, 167756, Note_on_c, 13, 76, 0
1, 167756, Note_on_c, 9, 49, 0
1, 167756, Note_on_c, 9, 37, 0
1, 167756, Note_on_c, 9, 36, 0
1, 167756, Note_on_c, 9, 32, 0
1, 167756, Note_on_c, 4, 76, 0
1, 167756, Note_on_c, 2, 63, 0
1, 167756, Note_on_c, 2, 59, 0
1, 167756, Note_on_c, 2, 54, 0
1, 167756, Note_on_c, 0, 63, 0
1, 167756, Note_on_c, 0, 59, 0
1, 167756, Note_on_c, 0, 54, 0
1, 167760, Note_on_c, 0, 52, 100
1, 167760, Note_on_c, 0, 57, 100
1, 167760, Note_on_c, 0, 61, 100
1, 167760, Note_on_c, 1, 33, 100
1, 167760, Note_on_c, 2, 52, 100
1, 167760, Note_on_c, 2, 57, 100
1, 167760, Note_on_c, 2, 61, 100
1, 167760, Note_on_c, 4, 76, 111
1, 167760, Note_on_c, 7, 68, 127
1, 167760, Note_on_c, 9, 29, 100
1, 167760, Note_on_c, 9, 42, 100
1, 167760, Note_on_c, 9, 82, 80
1, 167760, Note_on_c, 13, 76, 111
1, 167760, Pitch_bend_c, 14, 15505
1, 167760, Note_on_c, 14, 96, 111
1, 167816, Note_on_c, 9, 82, 0
1, 167820, Note_on_c, 14, 96, 0
1, 167820, Note_on_c, 7, 68, 0
1, 167876, Note_on_c, 9, 42, 0
1, 167880, Note_on_c, 7, 73, 100
1, 167880, Note_on_c, 9, 42, 100
1, 167880, Pitch_bend_c, 14, 15482
1, 167880, Note_on_c, 14, 96, 95
1, 167940, Note_on_c, 14, 96, 0
1, 167996, Note_on_c, 9, 42, 0
1, 167996, Note_on_c, 7, 73, 0
1, 167996, Note_on_c, 13, 76, 0
1, 167996, Note_on_c, 9, 29, 0
1, 167996, Note_on_c, 4, 76, 0
1, 167996, Note_on_c, 2, 61, 0
1, 167996, Note_on_c, 2, 57, 0
1, 167996, Note_on_c, 2, 52, 0
1, 167996, Note_on_c, 1, 33, 0
1, 167996, Note_on_c, 0, 61, 0
1, 167996, Note_on_c, 0, 57, 0
1, 167996, Note_on_c, 0, 52, 0
1, 168000, Note_on_c, 7, 73, 127
1, 168000, Note_on_c, 9, 32, 100
1, 168000, Note_on_c, 9, 36, 127
1, 168000, Note_on_c, 9, 42, 100
1, 168000, Note_on_c, 9, 49, 52
1, 168000, Pitch_bend_c, 14, 15459
1, 168000, Note_on_c, 14, 96, 116
1, 168056, Note_on_c, 14, 96, 0
1, 168056, Note_on_c, 7, 73, 0
1, 168116, Note_on_c, 9, 42, 0
1, 168120, Note_on_c, 7, 68, 59
1, 168120, Note_on_c, 9, 70, 80
1, 168120, Pitch_bend_c, 14, 15436
1, 168120, Note_on_c, 14, 96, 90
1, 168176, Note_on_c, 14, 96, 0
1, 168176, Note_on_c, 7, 68, 0
1, 168236, Note_on_c, 9, 49, 0
1, 168236, Note_on_c, 9, 36, 0
1, 168236, Note_on_c, 9, 32, 0
1, 168240, Note_on_c, 0, 52, 100
1, 168240, Note_on_c, 0, 57, 100
1, 168240, Note_on_c, 0, 61, 100
1, 168240, Note_on_c, 1, 33, 100
1, 168240, Note_on_c, 2, 52, 100
1, 168240, Note_on_c, 2, 57, 100
1, 168240, Note_on_c, 2, 61, 100
1, 168240, Note_on_c, 4, 85, 127
1, 168240, Note_on_c, 7, 73, 78
1, 168240, Note_on_c, 9, 42, 100
1, 168240, Note_on_c, 9, 82, 80
1, 168240, Note_on_c, 13, 85, 127
1, 168240, Pitch_bend_c, 14, 15413
1, 168240, Note_on_c, 14, 96, 109
1, 168280, Note_on_c, 9, 82, 0
1, 168296, Note_on_c, 7, 73, 0
1, 168300, Note_on_c, 14, 96, 0
1, 168356, Note_on_c, 9, 42, 0
1, 168356, Note_on_c, 9, 70, 0
1, 168360, Note_on_c, 7, 81, 125
1, 168360, Note_on_c, 9, 42, 100
1, 168360, Pitch_bend_c, 14, 15390
1, 168360, Note_on_c, 14, 96, 97
1, 168420, Note_on_c, 14, 96, 0
1, 168476, Note_on_c, 9, 42, 0
1, 168476, Note_on_c, 7, 81, 0
1, 168476, Note_on_c, 13, 85, 0
1, 168476, Note_on_c, 4, 85, 0
1, 168476, Note_on_c, 2, 61, 0
1, 168476, Note_on_c, 2, 57, 0
1, 168476, Note_on_c, 2, 52, 0
1, 168476, Note_on_c, 1, 33, 0
1, 168476, Note_on_c, 0, 61, 0
1, 168476, Note_on_c, 0, 57, 0
1, 168476, Note_on_c, 0, 52, 0
1, 168480, Note_on_c, 0, 52, 100
1, 168480, Note_on_c, 0, 57, 100
1, 168480, Note_on_c, 0, 61, 100
1, 168480, Note_on_c, 2, 52, 100
1, 168480, Note_on_c, 2, 57, 100
1, 168480, Note_on_c, 2, 61, 100
1, 168480, Note_on_c, 4, 83, 119
1, 168480, Note_on_c, 7, 73, 84
1, 168480, Note_on_c, 9, 32, 100
1, 168480, Note_on_c, 9, 36, 127
1, 168480, Note_on_c, 9, 37, 127
1, 168480, Note_on_c, 9, 42, 100
1, 168480, Note_on_c, 9, 49, 52
1, 168480, Note_on_c, 13, 83, 119
1, 168480, Pitch_bend_c, 14, 15367
1, 168480, Note_on_c, 14, 96, 122
1, 168540, Note_on_c, 14, 96, 0
1, 168540, Note_on_c, 7, 73, 0
1, 168596, Note_on_c, 9, 42, 0
1, 168600, Note_on_c, 7, 68, 73
1, 168600, Pitch_bend_c, 14, 15344
1, 168600, Note_on_c, 14, 96, 92
1, 168656, Note_on_c, 14, 96, 0
1, 168716, Note_on_c, 7, 68, 0
1, 168716, Note_on_c, 13, 83, 0
1, 168716, Note_on_c, 9, 49, 0
1, 168716, Note_on_c, 9, 37, 0
1, 168716, Note_on_c, 9, 36, 0
1, 168716, Note_on_c, 9, 32, 0
1, 168716, Note_on_c, 4, 83, 0
1, 168716, Note_on_c, 2, 61, 0
1, 168716, Note_on_c, 2, 57, 0
1, 168716, Note_on_c, 2, 52, 0
1, 168716, Note_on_c, 0, 61, 0
1, 168716, Note_on_c, 0, 57, 0
1, 168716, Note_on_c, 0, 52, 0
1, 168720, Note_on_c, 0, 52, 100
1, 168720, Note_on_c, 0, 57, 100
1, 168720, Note_on_c, 0, 61, 100
1, 168720, Note_on_c, 1, 33, 100
1, 168720, Note_on_c, 2, 52, 100
1, 168720, Note_on_c, 2, 57, 100
1, 168720, Note_on_c, 2, 61, 100
1, 168720, Note_on_c, 4, 80, 125
1, 168720, Note_on_c, 7, 73, 119
1, 168720, Note_on_c, 9, 42, 100
1, 168720, Note_on_c, 9, 82, 80
1, 168720, Note_on_c, 13, 80, 125
1, 168720, Pitch_bend_c, 14, 15321
1, 168720, Note_on_c, 14, 96, 116
1, 168760, Note_on_c, 9, 82, 0
1, 168776, Note_on_c, 14, 96, 0
1, 168780, Note_on_c, 7, 73, 0
1, 168836, Note_on_c, 9, 42, 0
1, 168840, Note_on_c, 7, 64, 109
1, 168840, Note_on_c, 9, 42, 100
1, 168840, Pitch_bend_c, 14, 15298
1, 168840, Note_on_c, 14, 96, 111
1, 168896, Note_on_c, 14, 96, 0
1, 168900, Note_on_c, 7, 64, 0
1, 168956, Note_on_c, 9, 42, 0
1, 168956, Note_on_c, 13, 80, 0
1, 168956, Note_on_c, 4, 80, 0
1, 168956, Note_on_c, 2, 61, 0
1, 168956, Note_on_c, 2, 57, 0
1, 168956, Note_on_c, 2, 52, 0
1, 168956, Note_on_c, 1, 33, 0
1, 168956, Note_on_c, 0, 61, 0
1, 168956, Note_on_c, 0, 57, 0
1, 168956, Note_on_c, 0, 52, 0
1, 168960, Note_on_c, 0, 56, 100
1, 168960, Note_on_c, 0, 61, 100
1, 168960, Note_on_c, 0, 66, 100
1, 168960, Note_on_c, 2, 56, 100
1, 168960, Note_on_c, 2, 61, 100
1, 168960, Note_on_c, 2, 66, 100
1, 168960, Note_on_c, 4, 78, 127
1, 168960, Note_on_c, 7, 61, 106
1, 168960, Note_on_c, 9, 32, 100
1, 168960, Note_on_c, 9, 36, 127
1, 168960, Note_on_c, 9, 42, 100
1, 168960, Note_on_c, 13, 78, 127
1, 168960, Pitch_bend_c, 14, 15275
1, 168960, Note_on_c, 14, 96, 116
1, 169020, Note_on_c, 14, 96, 0
1, 169020, Note_on_c, 7, 61, 0
1, 169076, Note_on_c, 9, 42, 0
1, 169080, Note_on_c, 7, 49, 92
1, 169080, Pitch_bend_c, 14, 15253
1, 169080, Note_on_c, 14, 96, 87
1, 169136, Note_on_c, 7, 49, 0
1, 169140, Note_on_c, 14, 96, 0
1, 169196, Note_on_c, 13, 78, 0
1, 169196, Note_on_c, 9, 36, 0
1, 169196, Note_on_c, 9, 32, 0
1, 169196, Note_on_c, 4, 78, 0
1, 169196, Note_on_c, 2, 66, 0
1, 169196, Note_on_c, 2, 61, 0
1, 169196, Note_on_c, 2, 56, 0
1, 169196, Note_on_c, 0, 66, 0
1, 169196, Note_on_c, 0, 61, 0
1, 169196, Note_on_c, 0, 56, 0
1, 169200, Note_on_c, 0, 56, 100
1, 169200, Note_on_c, 0, 61, 100
1, 169200, Note_on_c, 0, 64, 100
1, 169200, Note_on_c, 1, 37, 100
1, 169200, Note_on_c, 2, 56, 100
1, 169200, Note_on_c, 2, 61, 100
1, 169200, Note_on_c, 2, 64, 100
1, 169200, Note_on_c, 4, 76, 101
1, 169200, Note_on_c, 7, 61, 106
1, 169200, Note_on_c, 9, 42, 100
1, 169200, Note_on_c, 9, 82, 80
1, 169200, Note_on_c, 13, 76, 101
1, 169200, Pitch_bend_c, 14, 15230
1, 169200, Note_on_c, 14, 96, 111
1, 169248, Note_on_c, 9, 82, 0
1, 169256, Note_on_c, 14, 96, 0
1, 169260, Note_on_c, 7, 61, 0
1, 169316, Note_on_c, 9, 42, 0
1, 169320, Note_on_c, 7, 68, 127
1, 169320, Note_on_c, 9, 42, 100
1, 169320, Pitch_bend_c, 14, 15207
1, 169320, Note_on_c, 14, 96, 92
1, 169376, Note_on_c, 7, 68, 0
1, 169380, Note_on_c, 14, 96, 0
1, 169436, Note_on_c, 9, 42, 0
1, 169436, Note_on_c, 13, 76, 0
1, 169436, Note_on_c, 4, 76, 0
1, 169436, Note_on_c, 2, 64, 0
1, 169436, Note_on_c, 2, 61, 0
1, 169436, Note_on_c, 2, 56, 0
1, 169436, Note_on_c, 1, 37, 0
1, 169436, Note_on_c, 0, 64, 0
1, 169436, Note_on_c, 0, 61, 0
1, 169436, Note_on_c, 0, 56, 0
1, 169440, Note_on_c, 0, 56, 100
1, 169440, Note_on_c, 0, 61, 100
1, 169440, Note_on_c, 0, 64, 100
1, 169440, Note_on_c, 2, 56, 100
1, 169440, Note_on_c, 2, 61, 100
1, 169440, Note_on_c, 2, 64, 100
1, 169440, Note_on_c, 4, 76, 116
1, 169440, Note_on_c, 7, 56, 92
1, 169440, Note_on_c, 9, 32, 100
1, 169440, Note_on_c, 9, 36, 127
1, 169440, Note_on_c, 9, 37, 127
1, 169440, Note_on_c, 9, 42, 100
1, 169440, Note_on_c, 13, 76, 116
1, 169440, Pitch_bend_c, 14, 15184
1, 169440, Note_on_c, 14, 96, 105
1, 169496, Note_on_c, 14, 96, 0
1, 169496, Note_on_c, 7, 56, 0
1, 169556, Note_on_c, 9, 42, 0
1, 169560, Note_on_c, 7, 61, 109
1, 169560, Pitch_bend_c, 14, 15161
1, 169560, Note_on_c, 14, 96, 91
1, 169620, Note_on_c, 14, 96, 0
1, 169620, Note_on_c, 7, 61, 0
1, 169676, Note_on_c, 13, 76, 0
1, 169676, Note_on_c, 9, 37, 0
1, 169676, Note_on_c, 9, 36, 0
1, 169676, Note_on_c, 9, 32, 0
1, 169676, Note_on_c, 4, 76, 0
1, 169676, Note_on_c, 2, 64, 0
1, 169676, Note_on_c, 2, 61, 0
1, 169676, Note_on_c, 2, 56, 0
1, 169676, Note_on_c, 0, 64, 0
1, 169676, Note_on_c, 0, 61, 0
1, 169676, Note_on_c, 0, 56, 0
1, 169680, Note_on_c, 7, 68, 127
1, 169680, Note_on_c, 9, 42, 100
1, 169680, Note_on_c, 9, 82, 80
1, 169680, Pitch_bend_c, 14, 15138
1, 169680, Note_on_c, 14, 96, 113
1, 169732, Note_on_c, 9, 82, 0
1, 169736, Note_on_c, 14, 96, 0
1, 169740, Note_on_c, 7, 68, 0
1, 169796, Note_on_c, 9, 42, 0
1, 169800, Note_on_c, 7, 73, 100
1, 169800, Note_on_c, 9, 42, 100
1, 169800, Pitch_bend_c, 14, 15115
1, 169800, Note_on_c, 14, 96, 101
1, 169856, Note_on_c, 14, 96, 0
1, 169916, Note_on_c, 9, 42, 0
1, 169916, Note_on_c, 7, 73, 0
1, 169920, Note_on_c, 0, 56, 100
1, 169920, Note_on_c, 0, 59, 100
1, 169920, Note_on_c, 0, 64, 100
1, 169920, Note_on_c, 2, 56, 100
1, 169920, Note_on_c, 2, 59, 100
1, 169920, Note_on_c, 2, 64, 100
1, 169920, Note_on_c, 4, 76, 119
1, 169920, Note_on_c, 7, 73, 127
1, 169920, Note_on_c, 9, 32, 100
1, 169920, Note_on_c, 9, 36, 127
1, 169920, Note_on_c, 9, 42, 100
1, 169920, Note_on_c, 13, 76, 119
1, 169920, Pitch_bend_c, 14, 15092
1, 169920, Note_on_c, 14, 96, 119
1, 169976, Note_on_c, 14, 96, 0
1, 169976, Note_on_c, 7, 73, 0
1, 170036, Note_on_c, 9, 42, 0
1, 170040, Note_on_c, 7, 68, 59
1, 170040, Pitch_bend_c, 14, 15069
1, 170040, Note_on_c, 14, 96, 91
1, 170096, Note_on_c, 7, 68, 0
1, 170100, Note_on_c, 14, 96, 0
1, 170156, Note_on_c, 13, 76, 0
1, 170156, Note_on_c, 9, 36, 0
1, 170156, Note_on_c, 9, 32, 0
1, 170156, Note_on_c, 4, 76, 0
1, 170156, Note_on_c, 2, 64, 0
1, 170156, Note_on_c, 2, 59, 0
1, 170156, Note_on_c, 2, 56, 0
1, 170156, Note_on_c, 0, 64, 0
1, 170156, Note_on_c, 0, 59, 0
1, 170156, Note_on_c, 0, 56, 0
1, 170160, Note_on_c, 0, 56, 100
1, 170160, Note_on_c, 0, 59, 100
1, 170160, Note_on_c, 0, 64, 100
1, 170160, Note_on_c, 1, 40, 100
1, 170160, Note_on_c, 2, 56, 100
1, 170160, Note_on_c, 2, 59, 100
1, 170160, Note_on_c, 2, 64, 100
1, 170160, Note_on_c, 4, 76, 111
1, 170160, Note_on_c, 7, 73, 78
1, 170160, Note_on_c, 9, 42, 100
1, 170160, Note_on_c, 9, 82, 80
1, 170160, Note_on_c, 13, 76, 111
1, 170160, Pitch_bend_c, 14, 15046
1, 170160, Note_on_c, 14, 96, 119
1, 170208, Note_on_c, 9, 82, 0
1, 170216, Note_on_c, 7, 73, 0
1, 170220, Note_on_c, 14, 96, 0
1, 170276, Note_on_c, 9, 42, 0
1, 170280, Note_on_c, 7, 81, 125
1, 170280, Note_on_c, 9, 42, 100
1, 170280, Pitch_bend_c, 14, 15023
1, 170280, Note_on_c, 14, 96, 94
1, 170340, Note_on_c, 14, 96, 0
1, 170396, Note_on_c, 9, 42, 0
1, 170396, Note_on_c, 7, 81, 0
1, 170396, Note_on_c, 13, 76, 0
1, 170396, Note_on_c, 4, 76, 0
1, 170396, Note_on_c, 2, 64, 0
1, 170396, Note_on_c, 2, 59, 0
1, 170396, Note_on_c, 2, 56, 0
1, 170396, Note_on_c, 1, 40, 0
1, 170396, Note_on_c, 0, 64, 0
1, 170396, Note_on_c, 0, 59, 0
1, 170396, Note_on_c, 0, 56, 0
1, 170400, Note_on_c, 0, 56, 100
1, 170400, Note_on_c, 0, 59, 100
1, 170400, Note_on_c, 0, 64, 100
1, 170400, Note_on_c, 2, 56, 100
1, 170400, Note_on_c, 2, 59, 100
1, 170400, Note_on_c, 2, 64, 100
1, 170400, Note_on_c, 4, 76, 109
1, 170400, Note_on_c, 7, 73, 84
1, 170400, Note_on_c, 9, 32, 100
1, 170400, Note_on_c, 9, 36, 127
1, 170400, Note_on_c, 9, 37, 127
1, 170400, Note_on_c, 9, 42, 100
1, 170400, Note_on_c, 13, 76, 109
1, 170400, Pitch_bend_c, 14, 15000
1, 170400, Note_on_c, 14, 96, 116
1, 170460, Note_on_c, 14, 96, 0
1, 170460, Note_on_c, 7, 73, 0
1, 170516, Note_on_c, 9, 42, 0
1, 170520, Note_on_c, 7, 68, 73
1, 170520, Pitch_bend_c, 14, 14977
1, 170520, Note_on_c, 14, 96, 94
1, 170576, Note_on_c, 14, 96, 0
1, 170636, Note_on_c, 7, 68, 0
1, 170636, Note_on_c, 13, 76, 0
1, 170636, Note_on_c, 9, 37, 0
1, 170636, Note_on_c, 9, 36, 0
1, 170636, Note_on_c, 9, 32, 0
1, 170636, Note_on_c, 4, 76, 0
1, 170636, Note_on_c, 2, 64, 0
1, 170636, Note_on_c, 2, 59, 0
1, 170636, Note_on_c, 2, 56, 0
1, 170636, Note_on_c, 0, 64, 0
1, 170636, Note_on_c, 0, 59, 0
1, 170636, Note_on_c, 0, 56, 0
1, 170640, Note_on_c, 0, 56, 100
1, 170640, Note_on_c, 0, 59, 100
1, 170640, Note_on_c, 0, 64, 100
1, 170640, Note_on_c, 1, 40, 100
1, 170640, Note_on_c, 2, 56, 100
1, 170640, Note_on_c, 2, 59, 100
1, 170640, Note_on_c, 2, 64, 100
1, 170640, Note_on_c, 4, 76, 87
1, 170640, Note_on_c, 7, 73, 119
1, 170640, Note_on_c, 9, 42, 100
1, 170640, Note_on_c, 9, 82, 80
1, 170640, Note_on_c, 13, 76, 87
1, 170640, Pitch_bend_c, 14, 14954
1, 170640, Note_on_c, 14, 96, 107
1, 170680, Note_on_c, 9, 82, 0
1, 170700, Note_on_c, 14, 96, 0
1, 170700, Note_on_c, 7, 73, 0
1, 170756, Note_on_c, 9, 42, 0
1, 170760, Note_on_c, 7, 64, 109
1, 170760, Note_on_c, 9, 42, 100
1, 170760, Pitch_bend_c, 14, 14931
1, 170760, Note_on_c, 14, 96, 97
1, 170816, Note_on_c, 14, 96, 0
1, 170820, Note_on_c, 7, 64, 0
1, 170876, Note_on_c, 9, 42, 0
1, 170876, Note_on_c, 13, 76, 0
1, 170876, Note_on_c, 4, 76, 0
1, 170876, Note_on_c, 2, 64, 0
1, 170876, Note_on_c, 2, 59, 0
1, 170876, Note_on_c, 2, 56, 0
1, 170876, Note_on_c, 1, 40, 0
1, 170876, Note_on_c, 0, 64, 0
1, 170876, Note_on_c, 0, 59, 0
1, 170876, Note_on_c, 0, 56, 0
1, 170880, Note_on_c, 0, 54, 100
1, 170880, Note_on_c, 0, 59, 100
1, 170880, Note_on_c, 0, 63, 100
1, 170880, Note_on_c, 2, 54, 100
1, 170880, Note_on_c, 2, 59, 100
1, 170880, Note_on_c, 2, 63, 100
1, 170880, Note_on_c, 4, 73, 127
1, 170880, Note_on_c, 7, 61, 106
1, 170880, Note_on_c, 9, 32, 100
1, 170880, Note_on_c, 9, 36, 127
1, 170880, Note_on_c, 9, 42, 100
1, 170880, Note_on_c, 13, 73, 127
1, 170880, Pitch_bend_c, 14, 14909
1, 170880, Note_on_c, 14, 96, 116
1, 170936, Note_on_c, 14, 96, 0
1, 170940, Note_on_c, 7, 61, 0
1, 170996, Note_on_c, 9, 42, 0
1, 171000, Note_on_c, 7, 49, 92
1, 171000, Pitch_bend_c, 14, 14886
1, 171000, Note_on_c, 14, 96, 98
1, 171056, Note_on_c, 7, 49, 0
1, 171060, Note_on_c, 14, 96, 0
1, 171116, Note_on_c, 13, 73, 0
1, 171116, Note_on_c, 9, 36, 0
1, 171116, Note_on_c, 9, 32, 0
1, 171116, Note_on_c, 4, 73, 0
1, 171116, Note_on_c, 2, 63, 0
1, 171116, Note_on_c, 2, 59, 0
1, 171116, Note_on_c, 2, 54, 0
1, 171116, Note_on_c, 0, 63, 0
1, 171116, Note_on_c, 0, 59, 0
1, 171116, Note_on_c, 0, 54, 0
1, 171120, Note_on_c, 0, 54, 100
1, 171120, Note_on_c, 0, 59, 100
1, 171120, Note_on_c, 0, 63, 100
1, 171120, Note_on_c, 1, 35, 100
1, 171120, Note_on_c, 2, 54, 100
1, 171120, Note_on_c, 2, 59, 100
1, 171120, Note_on_c, 2, 63, 100
1, 171120, Note_on_c, 4, 73, 127
1, 171120, Note_on_c, 7, 61, 106
1, 171120, Note_on_c, 9, 42, 100
1, 171120, Note_on_c, 9, 82, 80
1, 171120, Note_on_c, 13, 73, 127
1, 171120, Pitch_bend_c, 14, 14863
1, 171120, Note_on_c, 14, 96, 109
1, 171164, Note_on_c, 9, 82, 0
1, 171176, Note_on_c, 14, 96, 0
1, 171180, Note_on_c, 7, 61, 0
1, 171236, Note_on_c, 9, 42, 0
1, 171240, Note_on_c, 7, 68, 127
1, 171240, Note_on_c, 9, 42, 100
1, 171240, Pitch_bend_c, 14, 14840
1, 171240, Note_on_c, 14, 96, 95
1, 171296, Note_on_c, 14, 96, 0
1, 171296, Note_on_c, 7, 68, 0
1, 171356, Note_on_c, 9, 42, 0
1, 171356, Note_on_c, 13, 73, 0
1, 171356, Note_on_c, 4, 73, 0
1, 171356, Note_on_c, 2, 63, 0
1, 171356, Note_on_c, 2, 59, 0
1, 171356, Note_on_c, 2, 54, 0
1, 171356, Note_on_c, 1, 35, 0
1, 171356, Note_on_c, 0, 63, 0
1, 171356, Note_on_c, 0, 59, 0
1, 171356, Note_on_c, 0, 54, 0
1, 171360, Note_on_c, 0, 54, 100
1, 171360, Note_on_c, 0, 59, 100
1, 171360, Note_on_c, 0, 63, 100
1, 171360, Note_on_c, 2, 54, 100
1, 171360, Note_on_c, 2, 59, 100
1, 171360, Note_on_c, 2, 63, 100
1, 171360, Note_on_c, 4, 71, 113
1, 171360, Note_on_c, 7, 56, 92
1, 171360, Note_on_c, 9, 32, 100
1, 171360, Note_on_c, 9, 36, 127
1, 171360, Note_on_c, 9, 37, 127
1, 171360, Note_on_c, 9, 42, 100
1, 171360, Note_on_c, 13, 71, 113
1, 171360, Pitch_bend_c, 14, 14817
1, 171360, Note_on_c, 14, 96, 111
1, 171416, Note_on_c, 14, 96, 0
1, 171416, Note_on_c, 7, 56, 0
1, 171476, Note_on_c, 9, 42, 0
1, 171480, Note_on_c, 7, 61, 109
1, 171480, Pitch_bend_c, 14, 14794
1, 171480, Note_on_c, 14, 96, 95
1, 171536, Note_on_c, 14, 96, 0
1, 171540, Note_on_c, 7, 61, 0
1, 171596, Note_on_c, 13, 71, 0
1, 171596, Note_on_c, 9, 37, 0
1, 171596, Note_on_c, 9, 36, 0
1, 171596, Note_on_c, 9, 32, 0
1, 171596, Note_on_c, 4, 71, 0
1, 171596, Note_on_c, 2, 63, 0
1, 171596, Note_on_c, 2, 59, 0
1, 171596, Note_on_c, 2, 54, 0
1, 171596, Note_on_c, 0, 63, 0
1, 171596, Note_on_c, 0, 59, 0
1, 171596, Note_on_c, 0, 54, 0
1, 171600, Note_on_c, 0, 52, 100
1, 171600, Note_on_c, 0, 57, 100
1, 171600, Note_on_c, 0, 61, 100
1, 171600, Note_on_c, 1, 33, 100
1, 171600, Note_on_c, 2, 52, 100
1, 171600, Note_on_c, 2, 57, 100
1, 171600, Note_on_c, 2, 61, 100
1, 171600, Note_on_c, 4, 71, 122
1, 171600, Note_on_c, 7, 68, 127
1, 171600, Note_on_c, 9, 29, 100
1, 171600, Note_on_c, 9, 42, 100
1, 171600, Note_on_c, 9, 82, 80
1, 171600, Note_on_c, 13, 71, 122
1, 171600, Pitch_bend_c, 14, 14771
1, 171600, Note_on_c, 14, 96, 111
1, 171640, Note_on_c, 9, 82, 0
1, 171660, Note_on_c, 14, 96, 0
1, 171660, Note_on_c, 7, 68, 0
1, 171716, Note_on_c, 9, 42, 0
1, 171720, Note_on_c, 7, 73, 100
1, 171720, Note_on_c, 9, 42, 100
1, 171720, Pitch_bend_c, 14, 14748
1, 171720, Note_on_c, 14, 96, 95
1, 171780, Note_on_c, 14, 96, 0
1, 171836, Note_on_c, 9, 42, 0
1, 171836, Note_on_c, 7, 73, 0
1, 171836, Note_on_c, 13, 71, 0
1, 171836, Note_on_c, 9, 29, 0
1, 171836, Note_on_c, 4, 71, 0
1, 171836, Note_on_c, 2, 61, 0
1, 171836, Note_on_c, 2, 57, 0
1, 171836, Note_on_c, 2, 52, 0
1, 171836, Note_on_c, 1, 33, 0
1, 171836, Note_on_c, 0, 61, 0
1, 171836, Note_on_c, 0, 57, 0
1, 171836, Note_on_c, 0, 52, 0
1, 171840, Note_on_c, 7, 73, 127
1, 171840, Note_on_c, 9, 32, 100
1, 171840, Note_on_c, 9, 36, 127
1, 171840, Note_on_c, 9, 42, 100
1, 171840, Pitch_bend_c, 14, 14725
1, 171840, Note_on_c, 14, 96, 116
1, 171896, Note_on_c, 14, 96, 0
1, 171896, Note_on_c, 7, 73, 0
1, 171956, Note_on_c, 9, 42, 0
1, 171960, Note_on_c, 7, 68, 59
1, 171960, Note_on_c, 9, 70, 80
1, 171960, Pitch_bend_c, 14, 14702
1, 171960, Note_on_c, 14, 96, 90
1, 172016, Note_on_c, 14, 96, 0
1, 172016, Note_on_c, 7, 68, 0
1, 172076, Note_on_c, 9, 36, 0
1, 172076, Note_on_c, 9, 32, 0
1, 172080, Note_on_c, 0, 52, 100
1, 172080, Note_on_c, 0, 57, 100
1, 172080, Note_on_c, 0, 61, 100
1, 172080, Note_on_c, 1, 33, 100
1, 172080, Note_on_c, 2, 52, 100
1, 172080, Note_on_c, 2, 57, 100
1, 172080, Note_on_c, 2, 61, 100
1, 172080, Note_on_c, 4, 85, 127
1, 172080, Note_on_c, 7, 73, 78
1, 172080, Note_on_c, 9, 42, 100
1, 172080, Note_on_c, 9, 82, 80
1, 172080, Note_on_c, 13, 85, 127
1, 172080, Pitch_bend_c, 14, 14679
1, 172080, Note_on_c, 14, 96, 109
1, 172120, Note_on_c, 9, 82, 0
1, 172136, Note_on_c, 7, 73, 0
1, 172140, Note_on_c, 14, 96, 0
1, 172196, Note_on_c, 9, 42, 0
1, 172196, Note_on_c, 9, 70, 0
1, 172200, Note_on_c, 7, 81, 125
1, 172200, Note_on_c, 9, 42, 100
1, 172200, Pitch_bend_c, 14, 14656
1, 172200, Note_on_c, 14, 96, 97
1, 172260, Note_on_c, 14, 96, 0
1, 172316, Note_on_c, 9, 42, 0
1, 172316, Note_on_c, 7, 81, 0
1, 172316, Note_on_c, 13, 85, 0
1, 172316, Note_on_c, 4, 85, 0
1, 172316, Note_on_c, 2, 61, 0
1, 172316, Note_on_c, 2, 57, 0
1, 172316, Note_on_c, 2, 52, 0
1, 172316, Note_on_c, 1, 33, 0
1, 172316, Note_on_c, 0, 61, 0
1, 172316, Note_on_c, 0, 57, 0
1, 172316, Note_on_c, 0, 52, 0
1, 172320, Note_on_c, 0, 52, 100
1, 172320, Note_on_c, 0, 57, 100
1, 172320, Note_on_c, 0, 61, 100
1, 172320, Note_on_c, 2, 52, 100
1, 172320, Note_on_c, 2, 57, 100
1, 172320, Note_on_c, 2, 61, 100
1, 172320, Note_on_c, 4, 83, 119
1, 172320, Note_on_c, 7, 73, 84
1, 172320, Note_on_c, 9, 32, 100
1, 172320, Note_on_c, 9, 36, 127
1, 172320, Note_on_c, 9, 37, 127
1, 172320, Note_on_c, 9, 42, 100
1, 172320, Note_on_c, 13, 83, 119
1, 172320, Pitch_bend_c, 14, 14633
1, 172320, Note_on_c, 14, 96, 122
1, 172380, Note_on_c, 14, 96, 0
1, 172380, Note_on_c, 7, 73, 0
1, 172436, Note_on_c, 9, 42, 0
1, 172440, Note_on_c, 7, 68, 73
1, 172440, Pitch_bend_c, 14, 14610
1, 172440, Note_on_c, 14, 96, 92
1, 172496, Note_on_c, 14, 96, 0
1, 172556, Note_on_c, 7, 68, 0
1, 172556, Note_on_c, 13, 83, 0
1, 172556, Note_on_c, 9, 37, 0
1, 172556, Note_on_c, 9, 36, 0
1, 172556, Note_on_c, 9, 32, 0
1, 172556, Note_on_c, 4, 83, 0
1, 172556, Note_on_c, 2, 61, 0
1, 172556, Note_on_c, 2, 57, 0
1, 172556, Note_on_c, 2, 52, 0
1, 172556, Note_on_c, 0, 61, 0
1, 172556, Note_on_c, 0, 57, 0
1, 172556, Note_on_c, 0, 52, 0
1, 172560, Note_on_c, 0, 52, 100
1, 172560, Note_on_c, 0, 57, 100
1, 172560, Note_on_c, 0, 61, 100
1, 172560, Note_on_c, 1, 33, 100
1, 172560, Note_on_c, 2, 52, 100
1, 172560, Note_on_c, 2, 57, 100
1, 172560, Note_on_c, 2, 61, 100
1, 172560, Note_on_c, 4, 80, 127
1, 172560, Note_on_c, 7, 73, 119
1, 172560, Note_on_c, 9, 42, 100
1, 172560, Note_on_c, 9, 82, 80
1, 172560, Note_on_c, 13, 80, 127
1, 172560, Pitch_bend_c, 14, 14587
1, 172560, Note_on_c, 14, 96, 116
1, 172600, Note_on_c, 9, 82, 0
1, 172616, Note_on_c, 14, 96, 0
1, 172620, Note_on_c, 7, 73, 0
1, 172676, Note_on_c, 9, 42, 0
1, 172680, Note_on_c, 7, 64, 109
1, 172680, Note_on_c, 9, 42, 100
1, 172680, Pitch_bend_c, 14, 14565
1, 172680, Note_on_c, 14, 96, 111
1, 172736, Note_on_c, 14, 96, 0
1, 172740, Note_on_c, 7, 64, 0
1, 172796, Note_on_c, 9, 42, 0
1, 172796, Note_on_c, 13, 80, 0
1, 172796, Note_on_c, 4, 80, 0
1, 172796, Note_on_c, 2, 61, 0
1, 172796, Note_on_c, 2, 57, 0
1, 172796, Note_on_c, 2, 52, 0
1, 172796, Note_on_c, 1, 33, 0
1, 172796, Note_on_c, 0, 61, 0
1, 172796, Note_on_c, 0, 57, 0
1, 172796, Note_on_c, 0, 52, 0
1, 172800, Note_on_c, 0, 56, 100
1, 172800, Note_on_c, 0, 61, 100
1, 172800, Note_on_c, 0, 66, 100
1, 172800, Note_on_c, 2, 56, 100
1, 172800, Note_on_c, 2, 61, 100
1, 172800, Note_on_c, 2, 66, 100
1, 172800, Note_on_c, 4, 78, 127
1, 172800, Note_on_c, 7, 61, 106
1, 172800, Note_on_c, 9, 32, 100
1, 172800, Note_on_c, 9, 36, 127
1, 172800, Note_on_c, 9, 42, 100
1, 172800, Note_on_c, 13, 78, 127
1, 172800, Pitch_bend_c, 14, 14542
1, 172800, Note_on_c, 14, 96, 116
1, 172860, Note_on_c, 14, 96, 0
1, 172860, Note_on_c, 7, 61, 0
1, 172916, Note_on_c, 9, 42, 0
1, 172920, Note_on_c, 7, 49, 92
1, 172920, Pitch_bend_c, 14, 14519
1, 172920, Note_on_c, 14, 96, 87
1, 172976, Note_on_c, 7, 49, 0
1, 172980, Note_on_c, 14, 96, 0
1, 173036, Note_on_c, 13, 78, 0
1, 173036, Note_on_c, 9, 36, 0
1, 173036, Note_on_c, 9, 32, 0
1, 173036, Note_on_c, 4, 78, 0
1, 173036, Note_on_c, 2, 66, 0
1, 173036, Note_on_c, 2, 61, 0
1, 173036, Note_on_c, 2, 56, 0
1, 173036, Note_on_c, 0, 66, 0
1, 173036, Note_on_c, 0, 61, 0
1, 173036, Note_on_c, 0, 56, 0
1, 173040, Note_on_c, 0, 56, 100
1, 173040, Note_on_c, 0, 61, 100
1, 173040, Note_on_c, 0, 64, 100
1, 173040, Note_on_c, 1, 37, 100
1, 173040, Note_on_c, 2, 56, 100
1, 173040, Note_on_c, 2, 61, 100
1, 173040, Note_on_c, 2, 64, 100
1, 173040, Note_on_c, 4, 76, 118
1, 173040, Note_on_c, 7, 61, 106
1, 173040, Note_on_c, 9, 42, 100
1, 173040, Note_on_c, 9, 82, 80
1, 173040, Note_on_c, 13, 76, 118
1, 173040, Pitch_bend_c, 14, 14496
1, 173040, Note_on_c, 14, 96, 111
1, 173072, Note_on_c, 9, 82, 0
1, 173096, Note_on_c, 14, 96, 0
1, 173100, Note_on_c, 7, 61, 0
1, 173156, Note_on_c, 9, 42, 0
1, 173160, Note_on_c, 7, 68, 127
1, 173160, Note_on_c, 9, 42, 100
1, 173160, Pitch_bend_c, 14, 14473
1, 173160, Note_on_c, 14, 96, 92
1, 173216, Note_on_c, 7, 68, 0
1, 173220, Note_on_c, 14, 96, 0
1, 173276, Note_on_c, 9, 42, 0
1, 173276, Note_on_c, 13, 76, 0
1, 173276, Note_on_c, 4, 76, 0
1, 173276, Note_on_c, 2, 64, 0
1, 173276, Note_on_c, 2, 61, 0
1, 173276, Note_on_c, 2, 56, 0
1, 173276, Note_on_c, 1, 37, 0
1, 173276, Note_on_c, 0, 64, 0
1, 173276, Note_on_c, 0, 61, 0
1, 173276, Note_on_c, 0, 56, 0
1, 173280, Note_on_c, 0, 56, 100
1, 173280, Note_on_c, 0, 61, 100
1, 173280, Note_on_c, 0, 64, 100
1, 173280, Note_on_c, 2, 56, 100
1, 173280, Note_on_c, 2, 61, 100
1, 173280, Note_on_c, 2, 64, 100
1, 173280, Note_on_c, 4, 76, 119
1, 173280, Note_on_c, 7, 56, 92
1, 173280, Note_on_c, 9, 32, 100
1, 173280, Note_on_c, 9, 36, 127
1, 173280, Note_on_c, 9, 37, 127
1, 173280, Note_on_c, 9, 42, 100
1, 173280, Note_on_c, 13, 76, 119
1, 173280, Pitch_bend_c, 14, 14450
1, 173280, Note_on_c, 14, 96, 105
1, 173336, Note_on_c, 14, 96, 0
1, 173336, Note_on_c, 7, 56, 0
1, 173396, Note_on_c, 9, 42, 0
1, 173400, Note_on_c, 7, 61, 109
1, 173400, Pitch_bend_c, 14, 14427
1, 173400, Note_on_c, 14, 96, 91
1, 173460, Note_on_c, 14, 96, 0
1, 173460, Note_on_c, 7, 61, 0
1, 173516, Note_on_c, 13, 76, 0
1, 173516, Note_on_c, 9, 37, 0
1, 173516, Note_on_c, 9, 36, 0
1, 173516, Note_on_c, 9, 32, 0
1, 173516, Note_on_c, 4, 76, 0
1, 173516, Note_on_c, 2, 64, 0
1, 173516, Note_on_c, 2, 61, 0
1, 173516, Note_on_c, 2, 56, 0
1, 173516, Note_on_c, 0, 64, 0
1, 173516, Note_on_c, 0, 61, 0
1, 173516, Note_on_c, 0, 56, 0
1, 173520, Note_on_c, 7, 68, 127
1, 173520, Note_on_c, 9, 42, 100
1, 173520, Note_on_c, 9, 82, 80
1, 173520, Pitch_bend_c, 14, 14404
1, 173520, Note_on_c, 14, 96, 113
1, 173556, Note_on_c, 9, 82, 0
1, 173576, Note_on_c, 14, 96, 0
1, 173580, Note_on_c, 7, 68, 0
1, 173636, Note_on_c, 9, 42, 0
1, 173640, Note_on_c, 7, 73, 100
1, 173640, Note_on_c, 9, 42, 100
1, 173640, Pitch_bend_c, 14, 14381
1, 173640, Note_on_c, 14, 96, 101
1, 173696, Note_on_c, 14, 96, 0
1, 173756, Note_on_c, 9, 42, 0
1, 173756, Note_on_c, 7, 73, 0
1, 173760, Note_on_c, 0, 56, 100
1, 173760, Note_on_c, 0, 59, 100
1, 173760, Note_on_c, 0, 64, 100
1, 173760, Note_on_c, 2, 56, 100
1, 173760, Note_on_c, 2, 59, 100
1, 173760, Note_on_c, 2, 64, 100
1, 173760, Note_on_c, 4, 76, 125
1, 173760, Note_on_c, 7, 73, 127
1, 173760, Note_on_c, 9, 32, 100
1, 173760, Note_on_c, 9, 36, 127
1, 173760, Note_on_c, 9, 42, 100
1, 173760, Note_on_c, 13, 76, 125
1, 173760, Pitch_bend_c, 14, 14358
1, 173760, Note_on_c, 14, 96, 119
1, 173816, Note_on_c, 14, 96, 0
1, 173816, Note_on_c, 7, 73, 0
1, 173876, Note_on_c, 9, 42, 0
1, 173880, Note_on_c, 7, 68, 59
1, 173880, Pitch_bend_c, 14, 14335
1, 173880, Note_on_c, 14, 96, 91
1, 173936, Note_on_c, 7, 68, 0
1, 173940, Note_on_c, 14, 96, 0
1, 173996, Note_on_c, 13, 76, 0
1, 173996, Note_on_c, 9, 36, 0
1, 173996, Note_on_c, 9, 32, 0
1, 173996, Note_on_c, 4, 76, 0
1, 173996, Note_on_c, 2, 64, 0
1, 173996, Note_on_c, 2, 59, 0
1, 173996, Note_on_c, 2, 56, 0
1, 173996, Note_on_c, 0, 64, 0
1, 173996, Note_on_c, 0, 59, 0
1, 173996, Note_on_c, 0, 56, 0
1, 174000, Note_on_c, 0, 56, 100
1, 174000, Note_on_c, 0, 59, 100
1, 174000, Note_on_c, 0, 64, 100
1, 174000, Note_on_c, 1, 40, 100
1, 174000, Note_on_c, 2, 56, 100
1, 174000, Note_on_c, 2, 59, 100
1, 174000, Note_on_c, 2, 64, 100
1, 174000, Note_on_c, 4, 76, 119
1, 174000, Note_on_c, 7, 73, 78
1, 174000, Note_on_c, 9, 42, 100
1, 174000, Note_on_c, 9, 82, 80
1, 174000, Note_on_c, 13, 76, 119
1, 174000, Pitch_bend_c, 14, 14312
1, 174000, Note_on_c, 14, 96, 119
1, 174048, Note_on_c, 9, 82, 0
1, 174056, Note_on_c, 7, 73, 0
1, 174060, Note_on_c, 14, 96, 0
1, 174116, Note_on_c, 9, 42, 0
1, 174120, Note_on_c, 7, 81, 125
1, 174120, Note_on_c, 9, 42, 100
1, 174120, Pitch_bend_c, 14, 14289
1, 174120, Note_on_c, 14, 96, 94
1, 174180, Note_on_c, 14, 96, 0
1, 174236, Note_on_c, 9, 42, 0
1, 174236, Note_on_c, 7, 81, 0
1, 174236, Note_on_c, 13, 76, 0
1, 174236, Note_on_c, 4, 76, 0
1, 174236, Note_on_c, 2, 64, 0
1, 174236, Note_on_c, 2, 59, 0
1, 174236, Note_on_c, 2, 56, 0
1, 174236, Note_on_c, 1, 40, 0
1, 174236, Note_on_c, 0, 64, 0
1, 174236, Note_on_c, 0, 59, 0
1, 174236, Note_on_c, 0, 56, 0
1, 174240, Note_on_c, 0, 56, 100
1, 174240, Note_on_c, 0, 59, 100
1, 174240, Note_on_c, 0, 64, 100
1, 174240, Note_on_c, 2, 56, 100
1, 174240, Note_on_c, 2, 59, 100
1, 174240, Note_on_c, 2, 64, 100
1, 174240, Note_on_c, 4, 76, 118
1, 174240, Note_on_c, 7, 73, 84
1, 174240, Note_on_c, 9, 32, 100
1, 174240, Note_on_c, 9, 36, 127
1, 174240, Note_on_c, 9, 37, 127
1, 174240, Note_on_c, 9, 42, 100
1, 174240, Note_on_c, 13, 76, 118
1, 174240, Pitch_bend_c, 14, 14266
1, 174240, Note_on_c, 14, 96, 116
1, 174300, Note_on_c, 14, 96, 0
1, 174300, Note_on_c, 7, 73, 0
1, 174356, Note_on_c, 9, 42, 0
1, 174360, Note_on_c, 7, 68, 73
1, 174360, Pitch_bend_c, 14, 14244
1, 174360, Note_on_c, 14, 96, 94
1, 174416, Note_on_c, 14, 96, 0
1, 174476, Note_on_c, 7, 68, 0
1, 174476, Note_on_c, 13, 76, 0
1, 174476, Note_on_c, 9, 37, 0
1, 174476, Note_on_c, 9, 36, 0
1, 174476, Note_on_c, 9, 32, 0
1, 174476, Note_on_c, 4, 76, 0
1, 174476, Note_on_c, 2, 64, 0
1, 174476, Note_on_c, 2, 59, 0
1, 174476, Note_on_c, 2, 56, 0
1, 174476, Note_on_c, 0, 64, 0
1, 174476, Note_on_c, 0, 59, 0
1, 174476, Note_on_c, 0, 56, 0
1, 174480, Note_on_c, 0, 56, 100
1, 174480, Note_on_c, 0, 59, 100
1, 174480, Note_on_c, 0, 64, 100
1, 174480, Note_on_c, 1, 40, 100
1, 174480, Note_on_c, 2, 56, 100
1, 174480, Note_on_c, 2, 59, 100
1, 174480, Note_on_c, 2, 64, 100
1, 174480, Note_on_c, 4, 76, 116
1, 174480, Note_on_c, 7, 73, 119
1, 174480, Note_on_c, 9, 42, 100
1, 174480, Note_on_c, 9, 82, 80
1, 174480, Note_on_c, 13, 76, 116
1, 174480, Pitch_bend_c, 14, 14221
1, 174480, Note_on_c, 14, 96, 107
1, 174532, Note_on_c, 9, 82, 0
1, 174540, Note_on_c, 14, 96, 0
1, 174540, Note_on_c, 7, 73, 0
1, 174596, Note_on_c, 9, 42, 0
1, 174600, Note_on_c, 7, 64, 109
1, 174600, Note_on_c, 9, 42, 100
1, 174600, Pitch_bend_c, 14, 14198
1, 174600, Note_on_c, 14, 96, 97
1, 174656, Note_on_c, 14, 96, 0
1, 174660, Note_on_c, 7, 64, 0
1, 174716, Note_on_c, 9, 42, 0
1, 174716, Note_on_c, 13, 76, 0
1, 174716, Note_on_c, 4, 76, 0
1, 174716, Note_on_c, 2, 64, 0
1, 174716, Note_on_c, 2, 59, 0
1, 174716, Note_on_c, 2, 56, 0
1, 174716, Note_on_c, 1, 40, 0
1, 174716, Note_on_c, 0, 64, 0
1, 174716, Note_on_c, 0, 59, 0
1, 174716, Note_on_c, 0, 56, 0
1, 174720, Note_on_c, 0, 54, 100
1, 174720, Note_on_c, 0, 59, 100
1, 174720, Note_on_c, 0, 63, 100
1, 174720, Note_on_c, 2, 54, 100
1, 174720, Note_on_c, 2, 59, 100
1, 174720, Note_on_c, 2, 63, 100
1, 174720, Note_on_c, 4, 75, 119
1, 174720, Note_on_c, 7, 61, 106
1, 174720, Note_on_c, 9, 32, 100
1, 174720, Note_on_c, 9, 36, 127
1, 174720, Note_on_c, 9, 42, 100
1, 174720, Note_on_c, 13, 75, 119
1, 174720, Pitch_bend_c, 14, 14175
1, 174720, Note_on_c, 14, 96, 116
1, 174776, Note_on_c, 14, 96, 0
1, 174780, Note_on_c, 7, 61, 0
1, 174836, Note_on_c, 9, 42, 0
1, 174840, Note_on_c, 7, 49, 92
1, 174840, Pitch_bend_c, 14, 14152
1, 174840, Note_on_c, 14, 96, 98
1, 174896, Note_on_c, 7, 49, 0
1, 174900, Note_on_c, 14, 96, 0
1, 174956, Note_on_c, 13, 75, 0
1, 174956, Note_on_c, 9, 36, 0
1, 174956, Note_on_c, 9, 32, 0
1, 174956, Note_on_c, 4, 75, 0
1, 174956, Note_on_c, 2, 63, 0
1, 174956, Note_on_c, 2, 59, 0
1, 174956, Note_on_c, 2, 54, 0
1, 174956, Note_on_c, 0, 63, 0
1, 174956, Note_on_c, 0, 59, 0
1, 174956, Note_on_c, 0, 54, 0
1, 174960, Note_on_c, 0, 54, 100
1, 174960, Note_on_c, 0, 59, 100
1, 174960, Note_on_c, 0, 63, 100
1, 174960, Note_on_c, 1, 35, 100
1, 174960, Note_on_c, 2, 54, 100
1, 174960, Note_on_c, 2, 59, 100
1, 174960, Note_on_c, 2, 63, 100
1, 174960, Note_on_c, 4, 75, 119
1, 174960, Note_on_c, 7, 61, 106
1, 174960, Note_on_c, 9, 42, 100
1, 174960, Note_on_c, 9, 82, 80
1, 174960, Note_on_c, 13, 75, 119
1, 174960, Pitch_bend_c, 14, 14129
1, 174960, Note_on_c, 14, 96, 109
1, 175012, Note_on_c, 9, 82, 0
1, 175016, Note_on_c, 14, 96, 0
1, 175020, Note_on_c, 7, 61, 0
1, 175076, Note_on_c, 9, 42, 0
1, 175080, Note_on_c, 7, 68, 127
1, 175080, Note_on_c, 9, 42, 100
1, 175080, Pitch_bend_c, 14, 14106
1, 175080, Note_on_c, 14, 96, 95
1, 175136, Note_on_c, 14, 96, 0
1, 175136, Note_on_c, 7, 68, 0
1, 175196, Note_on_c, 9, 42, 0
1, 175196, Note_on_c, 13, 75, 0
1, 175196, Note_on_c, 4, 75, 0
1, 175196, Note_on_c, 2, 63, 0
1, 175196, Note_on_c, 2, 59, 0
1, 175196, Note_on_c, 2, 54, 0
1, 175196, Note_on_c, 1, 35, 0
1, 175196, Note_on_c, 0, 63, 0
1, 175196, Note_on_c, 0, 59, 0
1, 175196, Note_on_c, 0, 54, 0
1, 175200, Note_on_c, 0, 54, 100
1, 175200, Note_on_c, 0, 59, 100
1, 175200, Note_on_c, 0, 63, 100
1, 175200, Note_on_c, 2, 54, 100
1, 175200, Note_on_c, 2, 59, 100
1, 175200, Note_on_c, 2, 63, 100
1, 175200, Note_on_c, 4, 76, 113
1, 175200, Note_on_c, 7, 56, 92
1, 175200, Note_on_c, 9, 32, 100
1, 175200, Note_on_c, 9, 36, 127
1, 175200, Note_on_c, 9, 37, 127
1, 175200, Note_on_c, 9, 42, 100
1, 175200, Note_on_c, 13, 76, 113
1, 175200, Pitch_bend_c, 14, 14083
1, 175200, Note_on_c, 14, 96, 111
1, 175256, Note_on_c, 14, 96, 0
1, 175256, Note_on_c, 7, 56, 0
1, 175316, Note_on_c, 9, 42, 0
1, 175320, Note_on_c, 7, 61, 109
1, 175320, Pitch_bend_c, 14, 14060
1, 175320, Note_on_c, 14, 96, 95
1, 175376, Note_on_c, 14, 96, 0
1, 175380, Note_on_c, 7, 61, 0
1, 175436, Note_on_c, 13, 76, 0
1, 175436, Note_on_c, 9, 37, 0
1, 175436, Note_on_c, 9, 36, 0
1, 175436, Note_on_c, 9, 32, 0
1, 175436, Note_on_c, 4, 76, 0
1, 175436, Note_on_c, 2, 63, 0
1, 175436, Note_on_c, 2, 59, 0
1, 175436, Note_on_c, 2, 54, 0
1, 175436, Note_on_c, 0, 63, 0
1, 175436, Note_on_c, 0, 59, 0
1, 175436, Note_on_c, 0, 54, 0
1, 175440, Note_on_c, 0, 52, 100
1, 175440, Note_on_c, 0, 57, 100
1, 175440, Note_on_c, 0, 61, 100
1, 175440, Note_on_c, 1, 33, 100
1, 175440, Note_on_c, 2, 52, 100
1, 175440, Note_on_c, 2, 57, 100
1, 175440, Note_on_c, 2, 61, 100
1, 175440, Note_on_c, 4, 76, 111
1, 175440, Note_on_c, 7, 68, 127
1, 175440, Note_on_c, 9, 29, 100
1, 175440, Note_on_c, 9, 42, 100
1, 175440, Note_on_c, 9, 82, 80
1, 175440, Note_on_c, 13, 76, 111
1, 175440, Pitch_bend_c, 14, 14037
1, 175440, Note_on_c, 14, 96, 111
1, 175496, Note_on_c, 9, 82, 0
1, 175500, Note_on_c, 14, 96, 0
1, 175500, Note_on_c, 7, 68, 0
1, 175556, Note_on_c, 9, 42, 0
1, 175560, Note_on_c, 7, 73, 100
1, 175560, Note_on_c, 9, 42, 100
1, 175560, Pitch_bend_c, 14, 14014
1, 175560, Note_on_c, 14, 96, 95
1, 175620, Note_on_c, 14, 96, 0
1, 175676, Note_on_c, 9, 42, 0
1, 175676, Note_on_c, 7, 73, 0
1, 175676, Note_on_c, 13, 76, 0
1, 175676, Note_on_c, 9, 29, 0
1, 175676, Note_on_c, 4, 76, 0
1, 175676, Note_on_c, 2, 61, 0
1, 175676, Note_on_c, 2, 57, 0
1, 175676, Note_on_c, 2, 52, 0
1, 175676, Note_on_c, 1, 33, 0
1, 175676, Note_on_c, 0, 61, 0
1, 175676, Note_on_c, 0, 57, 0
1, 175676, Note_on_c, 0, 52, 0
1, 175680, Note_on_c, 7, 73, 127
1, 175680, Note_on_c, 9, 32, 100
1, 175680, Note_on_c, 9, 36, 127
1, 175680, Note_on_c, 9, 42, 100
1, 175680, Pitch_bend_c, 14, 13991
1, 175680, Note_on_c, 14, 96, 116
1, 175736, Note_on_c, 14, 96, 0
1, 175736, Note_on_c, 7, 73, 0
1, 175796, Note_on_c, 9, 42, 0
1, 175800, Note_on_c, 7, 68, 59
1, 175800, Note_on_c, 9, 70, 80
1, 175800, Pitch_bend_c, 14, 13968
1, 175800, Note_on_c, 14, 96, 90
1, 175856, Note_on_c, 14, 96, 0
1, 175856, Note_on_c, 7, 68, 0
1, 175916, Note_on_c, 9, 36, 0
1, 175916, Note_on_c, 9, 32, 0
1, 175920, Note_on_c, 0, 52, 100
1, 175920, Note_on_c, 0, 57, 100
1, 175920, Note_on_c, 0, 61, 100
1, 175920, Note_on_c, 1, 33, 100
1, 175920, Note_on_c, 2, 52, 100
1, 175920, Note_on_c, 2, 57, 100
1, 175920, Note_on_c, 2, 61, 100
1, 175920, Note_on_c, 4, 85, 127
1, 175920, Note_on_c, 7, 73, 78
1, 175920, Note_on_c, 9, 42, 100
1, 175920, Note_on_c, 9, 82, 80
1, 175920, Note_on_c, 13, 85, 127
1, 175920, Pitch_bend_c, 14, 13945
1, 175920, Note_on_c, 14, 96, 109
1, 175960, Note_on_c, 9, 82, 0
1, 175976, Note_on_c, 7, 73, 0
1, 175980, Note_on_c, 14, 96, 0
1, 176036, Note_on_c, 9, 42, 0
1, 176036, Note_on_c, 9, 70, 0
1, 176040, Note_on_c, 7, 81, 125
1, 176040, Note_on_c, 9, 42, 100
1, 176040, Pitch_bend_c, 14, 13922
1, 176040, Note_on_c, 14, 96, 97
1, 176100, Note_on_c, 14, 96, 0
1, 176156, Note_on_c, 9, 42, 0
1, 176156, Note_on_c, 7, 81, 0
1, 176156, Note_on_c, 13, 85, 0
1, 176156, Note_on_c, 4, 85, 0
1, 176156, Note_on_c, 2, 61, 0
1, 176156, Note_on_c, 2, 57, 0
1, 176156, Note_on_c, 2, 52, 0
1, 176156, Note_on_c, 1, 33, 0
1, 176156, Note_on_c, 0, 61, 0
1, 176156, Note_on_c, 0, 57, 0
1, 176156, Note_on_c, 0, 52, 0
1, 176160, Note_on_c, 0, 52, 100
1, 176160, Note_on_c, 0, 57, 100
1, 176160, Note_on_c, 0, 61, 100
1, 176160, Note_on_c, 2, 52, 100
1, 176160, Note_on_c, 2, 57, 100
1, 176160, Note_on_c, 2, 61, 100
1, 176160, Note_on_c, 4, 83, 119
1, 176160, Note_on_c, 7, 73, 84
1, 176160, Note_on_c, 9, 32, 100
1, 176160, Note_on_c, 9, 36, 127
1, 176160, Note_on_c, 9, 37, 127
1, 176160, Note_on_c, 9, 42, 100
1, 176160, Note_on_c, 13, 83, 119
1, 176160, Pitch_bend_c, 14, 13900
1, 176160, Note_on_c, 14, 96, 122
1, 176220, Note_on_c, 14, 96, 0
1, 176220, Note_on_c, 7, 73, 0
1, 176276, Note_on_c, 9, 42, 0
1, 176280, Note_on_c, 7, 68, 73
1, 176280, Pitch_bend_c, 14, 13877
1, 176280, Note_on_c, 14, 96, 92
1, 176336, Note_on_c, 14, 96, 0
1, 176396, Note_on_c, 7, 68, 0
1, 176396, Note_on_c, 13, 83, 0
1, 176396, Note_on_c, 9, 37, 0
1, 176396, Note_on_c, 9, 36, 0
1, 176396, Note_on_c, 9, 32, 0
1, 176396, Note_on_c, 4, 83, 0
1, 176396, Note_on_c, 2, 61, 0
1, 176396, Note_on_c, 2, 57, 0
1, 176396, Note_on_c, 2, 52, 0
1, 176396, Note_on_c, 0, 61, 0
1, 176396, Note_on_c, 0, 57, 0
1, 176396, Note_on_c, 0, 52, 0
1, 176400, Note_on_c, 0, 52, 100
1, 176400, Note_on_c, 0, 57, 100
1, 176400, Note_on_c, 0, 61, 100
1, 176400, Note_on_c, 1, 33, 100
1, 176400, Note_on_c, 2, 52, 100
1, 176400, Note_on_c, 2, 57, 100
1, 176400, Note_on_c, 2, 61, 100
1, 176400, Note_on_c, 4, 80, 125
1, 176400, Note_on_c, 7, 73, 119
1, 176400, Note_on_c, 9, 42, 100
1, 176400, Note_on_c, 9, 82, 80
1, 176400, Note_on_c, 13, 80, 125
1, 176400, Pitch_bend_c, 14, 13854
1, 176400, Note_on_c, 14, 96, 116
1, 176440, Note_on_c, 9, 82, 0
1, 176456, Note_on_c, 14, 96, 0
1, 176460, Note_on_c, 7, 73, 0
1, 176516, Note_on_c, 9, 42, 0
1, 176520, Note_on_c, 7, 64, 109
1, 176520, Note_on_c, 9, 42, 100
1, 176520, Pitch_bend_c, 14, 13831
1, 176520, Note_on_c, 14, 96, 111
1, 176576, Note_on_c, 14, 96, 0
1, 176580, Note_on_c, 7, 64, 0
1, 176636, Note_on_c, 9, 42, 0
1, 176636, Note_on_c, 13, 80, 0
1, 176636, Note_on_c, 4, 80, 0
1, 176636, Note_on_c, 2, 61, 0
1, 176636, Note_on_c, 2, 57, 0
1, 176636, Note_on_c, 2, 52, 0
1, 176636, Note_on_c, 1, 33, 0
1, 176636, Note_on_c, 0, 61, 0
1, 176636, Note_on_c, 0, 57, 0
1, 176636, Note_on_c, 0, 52, 0
1, 176640, Note_on_c, 0, 56, 100
1, 176640, Note_on_c, 0, 61, 100
1, 176640, Note_on_c, 0, 66, 100
1, 176640, Note_on_c, 2, 56, 100
1, 176640, Note_on_c, 2, 61, 100
1, 176640, Note_on_c, 2, 66, 100
1, 176640, Note_on_c, 4, 78, 127
1, 176640, Note_on_c, 7, 61, 106
1, 176640, Note_on_c, 9, 32, 100
1, 176640, Note_on_c, 9, 36, 127
1, 176640, Note_on_c, 9, 42, 100
1, 176640, Note_on_c, 13, 78, 127
1, 176640, Pitch_bend_c, 14, 13808
1, 176640, Note_on_c, 14, 96, 116
1, 176700, Note_on_c, 14, 96, 0
1, 176700, Note_on_c, 7, 61, 0
1, 176756, Note_on_c, 9, 42, 0
1, 176760, Note_on_c, 7, 49, 92
1, 176760, Pitch_bend_c, 14, 13785
1, 176760, Note_on_c, 14, 96, 87
1, 176816, Note_on_c, 7, 49, 0
1, 176820, Note_on_c, 14, 96, 0
1, 176876, Note_on_c, 13, 78, 0
1, 176876, Note_on_c, 9, 36, 0
1, 176876, Note_on_c, 9, 32, 0
1, 176876, Note_on_c, 4, 78, 0
1, 176876, Note_on_c, 2, 66, 0
1, 176876, Note_on_c, 2, 61, 0
1, 176876, Note_on_c, 2, 56, 0
1, 176876, Note_on_c, 0, 66, 0
1, 176876, Note_on_c, 0, 61, 0
1, 176876, Note_on_c, 0, 56, 0
1, 176880, Note_on_c, 0, 56, 100
1, 176880, Note_on_c, 0, 61, 100
1, 176880, Note_on_c, 0, 64, 100
1, 176880, Note_on_c, 1, 37, 100
1, 176880, Note_on_c, 2, 56, 100
1, 176880, Note_on_c, 2, 61, 100
1, 176880, Note_on_c, 2, 64, 100
1, 176880, Note_on_c, 4, 76, 101
1, 176880, Note_on_c, 7, 61, 106
1, 176880, Note_on_c, 9, 42, 100
1, 176880, Note_on_c, 9, 82, 80
1, 176880, Note_on_c, 13, 76, 101
1, 176880, Pitch_bend_c, 14, 13762
1, 176880, Note_on_c, 14, 96, 111
1, 176928, Note_on_c, 9, 82, 0
1, 176936, Note_on_c, 14, 96, 0
1, 176940, Note_on_c, 7, 61, 0
1, 176996, Note_on_c, 9, 42, 0
1, 177000, Note_on_c, 7, 68, 127
1, 177000, Note_on_c, 9, 42, 100
1, 177000, Pitch_bend_c, 14, 13739
1, 177000, Note_on_c, 14, 96, 92
1, 177056, Note_on_c, 7, 68, 0
1, 177060, Note_on_c, 14, 96, 0
1, 177116, Note_on_c, 9, 42, 0
1, 177116, Note_on_c, 13, 76, 0
1, 177116, Note_on_c, 4, 76, 0
1, 177116, Note_on_c, 2, 64, 0
1, 177116, Note_on_c, 2, 61, 0
1, 177116, Note_on_c, 2, 56, 0
1, 177116, Note_on_c, 1, 37, 0
1, 177116, Note_on_c, 0, 64, 0
1, 177116, Note_on_c, 0, 61, 0
1, 177116, Note_on_c, 0, 56, 0
1, 177120, Note_on_c, 0, 56, 100
1, 177120, Note_on_c, 0, 61, 100
1, 177120, Note_on_c, 0, 64, 100
1, 177120, Note_on_c, 2, 56, 100
1, 177120, Note_on_c, 2, 61, 100
1, 177120, Note_on_c, 2, 64, 100
1, 177120, Note_on_c, 4, 76, 116
1, 177120, Note_on_c, 7, 56, 92
1, 177120, Note_on_c, 9, 32, 100
1, 177120, Note_on_c, 9, 36, 127
1, 177120, Note_on_c, 9, 37, 127
1, 177120, Note_on_c, 9, 42, 100
1, 177120, Note_on_c, 13, 76, 116
1, 177120, Pitch_bend_c, 14, 13716
1, 177120, Note_on_c, 14, 96, 105
1, 177176, Note_on_c, 14, 96, 0
1, 177176, Note_on_c, 7, 56, 0
1, 177236, Note_on_c, 9, 42, 0
1, 177240, Note_on_c, 7, 61, 109
1, 177240, Pitch_bend_c, 14, 13693
1, 177240, Note_on_c, 14, 96, 91
1, 177300, Note_on_c, 14, 96, 0
1, 177300, Note_on_c, 7, 61, 0
1, 177356, Note_on_c, 13, 76, 0
1, 177356, Note_on_c, 9, 37, 0
1, 177356, Note_on_c, 9, 36, 0
1, 177356, Note_on_c, 9, 32, 0
1, 177356, Note_on_c, 4, 76, 0
1, 177356, Note_on_c, 2, 64, 0
1, 177356, Note_on_c, 2, 61, 0
1, 177356, Note_on_c, 2, 56, 0
1, 177356, Note_on_c, 0, 64, 0
1, 177356, Note_on_c, 0, 61, 0
1, 177356, Note_on_c, 0, 56, 0
1, 177360, Note_on_c, 7, 68, 127
1, 177360, Note_on_c, 9, 42, 100
1, 177360, Note_on_c, 9, 82, 80
1, 177360, Pitch_bend_c, 14, 13670
1, 177360, Note_on_c, 14, 96, 113
1, 177412, Note_on_c, 9, 82, 0
1, 177416, Note_on_c, 14, 96, 0
1, 177420, Note_on_c, 7, 68, 0
1, 177476, Note_on_c, 9, 42, 0
1, 177480, Note_on_c, 7, 73, 100
1, 177480, Note_on_c, 9, 42, 100
1, 177480, Pitch_bend_c, 14, 13647
1, 177480, Note_on_c, 14, 96, 101
1, 177536, Note_on_c, 14, 96, 0
1, 177596, Note_on_c, 9, 42, 0
1, 177596, Note_on_c, 7, 73, 0
1, 177600, Note_on_c, 0, 56, 100
1, 177600, Note_on_c, 0, 59, 100
1, 177600, Note_on_c, 0, 64, 100
1, 177600, Note_on_c, 2, 56, 100
1, 177600, Note_on_c, 2, 59, 100
1, 177600, Note_on_c, 2, 64, 100
1, 177600, Note_on_c, 4, 76, 119
1, 177600, Note_on_c, 7, 73, 127
1, 177600, Note_on_c, 9, 32, 100
1, 177600, Note_on_c, 9, 36, 127
1, 177600, Note_on_c, 9, 42, 100
1, 177600, Note_on_c, 13, 76, 119
1, 177600, Pitch_bend_c, 14, 13624
1, 177600, Note_on_c, 14, 96, 119
1, 177656, Note_on_c, 14, 96, 0
1, 177656, Note_on_c, 7, 73, 0
1, 177716, Note_on_c, 9, 42, 0
1, 177720, Note_on_c, 7, 68, 59
1, 177720, Pitch_bend_c, 14, 13601
1, 177720, Note_on_c, 14, 96, 91
1, 177776, Note_on_c, 7, 68, 0
1, 177780, Note_on_c, 14, 96, 0
1, 177836, Note_on_c, 13, 76, 0
1, 177836, Note_on_c, 9, 36, 0
1, 177836, Note_on_c, 9, 32, 0
1, 177836, Note_on_c, 4, 76, 0
1, 177836, Note_on_c, 2, 64, 0
1, 177836, Note_on_c, 2, 59, 0
1, 177836, Note_on_c, 2, 56, 0
1, 177836, Note_on_c, 0, 64, 0
1, 177836, Note_on_c, 0, 59, 0
1, 177836, Note_on_c, 0, 56, 0
1, 177840, Note_on_c, 0, 56, 100
1, 177840, Note_on_c, 0, 59, 100
1, 177840, Note_on_c, 0, 64, 100
1, 177840, Note_on_c, 1, 40, 100
1, 177840, Note_on_c, 2, 56, 100
1, 177840, Note_on_c, 2, 59, 100
1, 177840, Note_on_c, 2, 64, 100
1, 177840, Note_on_c, 4, 76, 111
1, 177840, Note_on_c, 7, 73, 78
1, 177840, Note_on_c, 9, 42, 100
1, 177840, Note_on_c, 9, 82, 80
1, 177840, Note_on_c, 13, 76, 111
1, 177840, Pitch_bend_c, 14, 13578
1, 177840, Note_on_c, 14, 96, 119
1, 177888, Note_on_c, 9, 82, 0
1, 177896, Note_on_c, 7, 73, 0
1, 177900, Note_on_c, 14, 96, 0
1, 177956, Note_on_c, 9, 42, 0
1, 177960, Note_on_c, 7, 81, 125
1, 177960, Note_on_c, 9, 42, 100
1, 177960, Pitch_bend_c, 14, 13556
1, 177960, Note_on_c, 14, 96, 94
1, 178020, Note_on_c, 14, 96, 0
1, 178076, Note_on_c, 9, 42, 0
1, 178076, Note_on_c, 7, 81, 0
1, 178076, Note_on_c, 13, 76, 0
1, 178076, Note_on_c, 4, 76, 0
1, 178076, Note_on_c, 2, 64, 0
1, 178076, Note_on_c, 2, 59, 0
1, 178076, Note_on_c, 2, 56, 0
1, 178076, Note_on_c, 1, 40, 0
1, 178076, Note_on_c, 0, 64, 0
1, 178076, Note_on_c, 0, 59, 0
1, 178076, Note_on_c, 0, 56, 0
1, 178080, Note_on_c, 0, 56, 100
1, 178080, Note_on_c, 0, 59, 100
1, 178080, Note_on_c, 0, 64, 100
1, 178080, Note_on_c, 2, 56, 100
1, 178080, Note_on_c, 2, 59, 100
1, 178080, Note_on_c, 2, 64, 100
1, 178080, Note_on_c, 4, 76, 109
1, 178080, Note_on_c, 7, 73, 84
1, 178080, Note_on_c, 9, 32, 100
1, 178080, Note_on_c, 9, 36, 127
1, 178080, Note_on_c, 9, 37, 127
1, 178080, Note_on_c, 9, 42, 100
1, 178080, Note_on_c, 13, 76, 109
1, 178080, Pitch_bend_c, 14, 13533
1, 178080, Note_on_c, 14, 96, 116
1, 178140, Note_on_c, 14, 96, 0
1, 178140, Note_on_c, 7, 73, 0
1, 178196, Note_on_c, 9, 42, 0
1, 178200, Note_on_c, 7, 68, 73
1, 178200, Pitch_bend_c, 14, 13510
1, 178200, Note_on_c, 14, 96, 94
1, 178256, Note_on_c, 14, 96, 0
1, 178316, Note_on_c, 7, 68, 0
1, 178316, Note_on_c, 13, 76, 0
1, 178316, Note_on_c, 9, 37, 0
1, 178316, Note_on_c, 9, 36, 0
1, 178316, Note_on_c, 9, 32, 0
1, 178316, Note_on_c, 4, 76, 0
1, 178316, Note_on_c, 2, 64, 0
1, 178316, Note_on_c, 2, 59, 0
1, 178316, Note_on_c, 2, 56, 0
1, 178316, Note_on_c, 0, 64, 0
1, 178316, Note_on_c, 0, 59, 0
1, 178316, Note_on_c, 0, 56, 0
1, 178320, Note_on_c, 0, 56, 100
1, 178320, Note_on_c, 0, 59, 100
1, 178320, Note_on_c, 0, 64, 100
1, 178320, Note_on_c, 1, 40, 100
1, 178320, Note_on_c, 2, 56, 100
1, 178320, Note_on_c, 2, 59, 100
1, 178320, Note_on_c, 2, 64, 100
1, 178320, Note_on_c, 4, 76, 87
1, 178320, Note_on_c, 7, 73, 119
1, 178320, Note_on_c, 9, 42, 100
1, 178320, Note_on_c, 9, 82, 80
1, 178320, Note_on_c, 13, 76, 87
1, 178320, Pitch_bend_c, 14, 13487
1, 178320, Note_on_c, 14, 96, 107
1, 178360, Note_on_c, 9, 82, 0
1, 178380, Note_on_c, 14, 96, 0
1, 178380, Note_on_c, 7, 73, 0
1, 178436, Note_on_c, 9, 42, 0
1, 178440, Note_on_c, 7, 64, 109
1, 178440, Note_on_c, 9, 42, 100
1, 178440, Pitch_bend_c, 14, 13464
1, 178440, Note_on_c, 14, 96, 97
1, 178496, Note_on_c, 14, 96, 0
1, 178500, Note_on_c, 7, 64, 0
1, 178556, Note_on_c, 9, 42, 0
1, 178556, Note_on_c, 13, 76, 0
1, 178556, Note_on_c, 4, 76, 0
1, 178556, Note_on_c, 2, 64, 0
1, 178556, Note_on_c, 2, 59, 0
1, 178556, Note_on_c, 2, 56, 0
1, 178556, Note_on_c, 1, 40, 0
1, 178556, Note_on_c, 0, 64, 0
1, 178556, Note_on_c, 0, 59, 0
1, 178556, Note_on_c, 0, 56, 0
1, 178560, Note_on_c, 0, 54, 100
1, 178560, Note_on_c, 0, 59, 100
1, 178560, Note_on_c, 0, 63, 100
1, 178560, Note_on_c, 2, 54, 100
1, 178560, Note_on_c, 2, 59, 100
1, 178560, Note_on_c, 2, 63, 100
1, 178560, Note_on_c, 4, 73, 127
1, 178560, Note_on_c, 7, 61, 106
1, 178560, Note_on_c, 9, 32, 100
1, 178560, Note_on_c, 9, 42, 100
1, 178560, Note_on_c, 13, 73, 127
1, 178560, Pitch_bend_c, 14, 13441
1, 178560, Note_on_c, 14, 96, 116
1, 178616, Note_on_c, 14, 96, 0
1, 178620, Note_on_c, 7, 61, 0
1, 178676, Note_on_c, 9, 42, 0
1, 178680, Note_on_c, 7, 49, 92
1, 178680, Pitch_bend_c, 14, 13418
1, 178680, Note_on_c, 14, 96, 98
1, 178736, Note_on_c, 7, 49, 0
1, 178740, Note_on_c, 14, 96, 0
1, 178796, Note_on_c, 13, 73, 0
1, 178796, Note_on_c, 9, 32, 0
1, 178796, Note_on_c, 4, 73, 0
1, 178796, Note_on_c, 2, 63, 0
1, 178796, Note_on_c, 2, 59, 0
1, 178796, Note_on_c, 2, 54, 0
1, 178796, Note_on_c, 0, 63, 0
1, 178796, Note_on_c, 0, 59, 0
1, 178796, Note_on_c, 0, 54, 0
1, 178800, Note_on_c, 0, 54, 100
1, 178800, Note_on_c, 0, 59, 100
1, 178800, Note_on_c, 0, 63, 100
1, 178800, Note_on_c, 1, 35, 100
1, 178800, Note_on_c, 2, 54, 100
1, 178800, Note_on_c, 2, 59, 100
1, 178800, Note_on_c, 2, 63, 100
1, 178800, Note_on_c, 4, 73, 127
1, 178800, Note_on_c, 7, 61, 106
1, 178800, Note_on_c, 9, 42, 100
1, 178800, Note_on_c, 9, 82, 80
1, 178800, Note_on_c, 13, 73, 127
1, 178800, Pitch_bend_c, 14, 13395
1, 178800, Note_on_c, 14, 96, 109
1, 178844, Note_on_c, 9, 82, 0
1, 178856, Note_on_c, 14, 96, 0
1, 178860, Note_on_c, 7, 61, 0
1, 178916, Note_on_c, 9, 42, 0
1, 178920, Note_on_c, 7, 68, 127
1, 178920, Note_on_c, 9, 42, 100
1, 178920, Pitch_bend_c, 14, 13372
1, 178920, Note_on_c, 14, 96, 95
1, 178976, Note_on_c, 14, 96, 0
1, 178976, Note_on_c, 7, 68, 0
1, 179036, Note_on_c, 9, 42, 0
1, 179036, Note_on_c, 13, 73, 0
1, 179036, Note_on_c, 4, 73, 0
1, 179036, Note_on_c, 2, 63, 0
1, 179036, Note_on_c, 2, 59, 0
1, 179036, Note_on_c, 2, 54, 0
1, 179036, Note_on_c, 1, 35, 0
1, 179036, Note_on_c, 0, 63, 0
1, 179036, Note_on_c, 0, 59, 0
1, 179036, Note_on_c, 0, 54, 0
1, 179040, Note_on_c, 0, 54, 100
1, 179040, Note_on_c, 0, 59, 100
1, 179040, Note_on_c, 0, 63, 100
1, 179040, Note_on_c, 2, 54, 100
1, 179040, Note_on_c, 2, 59, 100
1, 179040, Note_on_c, 2, 63, 100
1, 179040, Note_on_c, 4, 71, 113
1, 179040, Note_on_c, 7, 56, 92
1, 179040, Note_on_c, 9, 32, 100
1, 179040, Note_on_c, 9, 37, 127
1, 179040, Note_on_c, 9, 42, 100
1, 179040, Note_on_c, 13, 71, 113
1, 179040, Pitch_bend_c, 14, 13349
1, 179040, Note_on_c, 14, 96, 111
1, 179096, Note_on_c, 14, 96, 0
1, 179096, Note_on_c, 7, 56, 0
1, 179156, Note_on_c, 9, 42, 0
1, 179160, Note_on_c, 7, 61, 109
1, 179160, Pitch_bend_c, 14, 13326
1, 179160, Note_on_c, 14, 96, 95
1, 179216, Note_on_c, 14, 96, 0
1, 179220, Note_on_c, 7, 61, 0
1, 179276, Note_on_c, 13, 71, 0
1, 179276, Note_on_c, 9, 37, 0
1, 179276, Note_on_c, 9, 32, 0
1, 179276, Note_on_c, 4, 71, 0
1, 179276, Note_on_c, 2, 63, 0
1, 179276, Note_on_c, 2, 59, 0
1, 179276, Note_on_c, 2, 54, 0
1, 179276, Note_on_c, 0, 63, 0
1, 179276, Note_on_c, 0, 59, 0
1, 179276, Note_on_c, 0, 54, 0
1, 179280, Note_on_c, 0, 52, 100
1, 179280, Note_on_c, 0, 57, 100
1, 179280, Note_on_c, 0, 61, 100
1, 179280, Note_on_c, 1, 33, 100
1, 179280, Note_on_c, 2, 52, 100
1, 179280, Note_on_c, 2, 57, 100
1, 179280, Note_on_c, 2, 61, 100
1, 179280, Note_on_c, 4, 71, 122
1, 179280, Note_on_c, 7, 68, 127
1, 179280, Note_on_c, 9, 29, 100
1, 179280, Note_on_c, 9, 42, 100
1, 179280, Note_on_c, 9, 82, 80
1, 179280, Note_on_c, 13, 71, 122
1, 179280, Pitch_bend_c, 14, 13303
1, 179280, Note_on_c, 14, 96, 111
1, 179320, Note_on_c, 9, 82, 0
1, 179340, Note_on_c, 14, 96, 0
1, 179340, Note_on_c, 7, 68, 0
1, 179396, Note_on_c, 9, 42, 0
1, 179400, Note_on_c, 7, 73, 100
1, 179400, Note_on_c, 9, 42, 100
1, 179400, Pitch_bend_c, 14, 13280
1, 179400, Note_on_c, 14, 96, 95
1, 179460, Note_on_c, 14, 96, 0
1, 179516, Note_on_c, 9, 42, 0
1, 179516, Note_on_c, 7, 73, 0
1, 179516, Note_on_c, 13, 71, 0
1, 179516, Note_on_c, 9, 29, 0
1, 179516, Note_on_c, 4, 71, 0
1, 179516, Note_on_c, 2, 61, 0
1, 179516, Note_on_c, 2, 57, 0
1, 179516, Note_on_c, 2, 52, 0
1, 179516, Note_on_c, 1, 33, 0
1, 179516, Note_on_c, 0, 61, 0
1, 179516, Note_on_c, 0, 57, 0
1, 179516, Note_on_c, 0, 52, 0
1, 179520, Note_on_c, 7, 73, 127
1, 179520, Note_on_c, 9, 32, 100
1, 179520, Note_on_c, 9, 42, 100
1, 179520, Pitch_bend_c, 14, 13257
1, 179520, Note_on_c, 14, 96, 116
1, 179576, Note_on_c, 14, 96, 0
1, 179576, Note_on_c, 7, 73, 0
1, 179636, Note_on_c, 9, 42, 0
1, 179640, Note_on_c, 7, 68, 59
1, 179640, Note_on_c, 9, 70, 80
1, 179640, Pitch_bend_c, 14, 13234
1, 179640, Note_on_c, 14, 96, 90
1, 179696, Note_on_c, 14, 96, 0
1, 179696, Note_on_c, 7, 68, 0
1, 179756, Note_on_c, 9, 32, 0
1, 179760, Note_on_c, 0, 52, 100
1, 179760, Note_on_c, 0, 57, 100
1, 179760, Note_on_c, 0, 61, 100
1, 179760, Note_on_c, 1, 33, 100
1, 179760, Note_on_c, 2, 52, 100
1, 179760, Note_on_c, 2, 57, 100
1, 179760, Note_on_c, 2, 61, 100
1, 179760, Note_on_c, 4, 85, 127
1, 179760, Note_on_c, 7, 73, 78
1, 179760, Note_on_c, 9, 42, 100
1, 179760, Note_on_c, 9, 82, 80
1, 179760, Note_on_c, 13, 85, 127
1, 179760, Pitch_bend_c, 14, 13212
1, 179760, Note_on_c, 14, 96, 109
1, 179800, Note_on_c, 9, 82, 0
1, 179816, Note_on_c, 7, 73, 0
1, 179820, Note_on_c, 14, 96, 0
1, 179876, Note_on_c, 9, 42, 0
1, 179876, Note_on_c, 9, 70, 0
1, 179880, Note_on_c, 7, 81, 125
1, 179880, Note_on_c, 9, 42, 100
1, 179880, Pitch_bend_c, 14, 13189
1, 179880, Note_on_c, 14, 96, 97
1, 179940, Note_on_c, 14, 96, 0
1, 179996, Note_on_c, 9, 42, 0
1, 179996, Note_on_c, 7, 81, 0
1, 179996, Note_on_c, 13, 85, 0
1, 179996, Note_on_c, 4, 85, 0
1, 179996, Note_on_c, 2, 61, 0
1, 179996, Note_on_c, 2, 57, 0
1, 179996, Note_on_c, 2, 52, 0
1, 179996, Note_on_c, 1, 33, 0
1, 179996, Note_on_c, 0, 61, 0
1, 179996, Note_on_c, 0, 57, 0
1, 179996, Note_on_c, 0, 52, 0
1, 180000, Note_on_c, 0, 52, 100
1, 180000, Note_on_c, 0, 57, 100
1, 180000, Note_on_c, 0, 61, 100
1, 180000, Note_on_c, 2, 52, 100
1, 180000, Note_on_c, 2, 57, 100
1, 180000, Note_on_c, 2, 61, 100
1, 180000, Note_on_c, 4, 83, 119
1, 180000, Note_on_c, 7, 73, 84
1, 180000, Note_on_c, 9, 32, 100
1, 180000, Note_on_c, 9, 37, 127
1, 180000, Note_on_c, 9, 42, 100
1, 180000, Note_on_c, 13, 83, 119
1, 180000, Pitch_bend_c, 14, 13166
1, 180000, Note_on_c, 14, 96, 122
1, 180060, Note_on_c, 14, 96, 0
1, 180060, Note_on_c, 7, 73, 0
1, 180116, Note_on_c, 9, 42, 0
1, 180120, Note_on_c, 7, 68, 73
1, 180120, Pitch_bend_c, 14, 13143
1, 180120, Note_on_c, 14, 96, 92
1, 180176, Note_on_c, 14, 96, 0
1, 180236, Note_on_c, 7, 68, 0
1, 180236, Note_on_c, 13, 83, 0
1, 180236, Note_on_c, 9, 37, 0
1, 180236, Note_on_c, 9, 32, 0
1, 180236, Note_on_c, 4, 83, 0
1, 180236, Note_on_c, 2, 61, 0
1, 180236, Note_on_c, 2, 57, 0
1, 180236, Note_on_c, 2, 52, 0
1, 180236, Note_on_c, 0, 61, 0
1, 180236, Note_on_c, 0, 57, 0
1, 180236, Note_on_c, 0, 52, 0
1, 180240, Note_on_c, 0, 52, 100
1, 180240, Note_on_c, 0, 57, 100
1, 180240, Note_on_c, 0, 61, 100
1, 180240, Note_on_c, 1, 33, 100
1, 180240, Note_on_c, 2, 52, 100
1, 180240, Note_on_c, 2, 57, 100
1, 180240, Note_on_c, 2, 61, 100
1, 180240, Note_on_c, 4, 80, 127
1, 180240, Note_on_c, 7, 73, 119
1, 180240, Note_on_c, 9, 42, 100
1, 180240, Note_on_c, 9, 82, 80
1, 180240, Note_on_c, 13, 80, 127
1, 180240, Pitch_bend_c, 14, 13120
1, 180240, Note_on_c, 14, 96, 116
1, 180280, Note_on_c, 9, 82, 0
1, 180296, Note_on_c, 14, 96, 0
1, 180300, Note_on_c, 7, 73, 0
1, 180356, Note_on_c, 9, 42, 0
1, 180360, Note_on_c, 7, 64, 109
1, 180360, Note_on_c, 9, 42, 100
1, 180360, Pitch_bend_c, 14, 13097
1, 180360, Note_on_c, 14, 96, 111
1, 180416, Note_on_c, 14, 96, 0
1, 180420, Note_on_c, 7, 64, 0
1, 180476, Note_on_c, 9, 42, 0
1, 180476, Note_on_c, 13, 80, 0
1, 180476, Note_on_c, 4, 80, 0
1, 180476, Note_on_c, 2, 61, 0
1, 180476, Note_on_c, 2, 57, 0
1, 180476, Note_on_c, 2, 52, 0
1, 180476, Note_on_c, 1, 33, 0
1, 180476, Note_on_c, 0, 61, 0
1, 180476, Note_on_c, 0, 57, 0
1, 180476, Note_on_c, 0, 52, 0
1, 180480, Note_on_c, 0, 56, 100
1, 180480, Note_on_c, 0, 61, 100
1, 180480, Note_on_c, 0, 66, 100
1, 180480, Note_on_c, 2, 56, 100
1, 180480, Note_on_c, 2, 61, 100
1, 180480, Note_on_c, 2, 66, 100
1, 180480, Note_on_c, 4, 78, 127
1, 180480, Note_on_c, 7, 61, 106
1, 180480, Note_on_c, 9, 32, 100
1, 180480, Note_on_c, 9, 36, 127
1, 180480, Note_on_c, 9, 42, 100
1, 180480, Note_on_c, 10, 84, 127
1, 180480, Note_on_c, 13, 78, 127
1, 180480, Pitch_bend_c, 14, 13074
1, 180480, Note_on_c, 14, 96, 116
1, 180540, Note_on_c, 14, 96, 0
1, 180540, Note_on_c, 7, 61, 0
1, 180596, Note_on_c, 9, 42, 0
1, 180600, Note_on_c, 7, 49, 92
1, 180600, Pitch_bend_c, 14, 13051
1, 180600, Note_on_c, 14, 96, 87
1, 180656, Note_on_c, 7, 49, 0
1, 180660, Note_on_c, 14, 96, 0
1, 180716, Note_on_c, 13, 78, 0
1, 180716, Note_on_c, 9, 36, 0
1, 180716, Note_on_c, 9, 32, 0
1, 180716, Note_on_c, 4, 78, 0
1, 180716, Note_on_c, 2, 66, 0
1, 180716, Note_on_c, 2, 61, 0
1, 180716, Note_on_c, 2, 56, 0
1, 180716, Note_on_c, 0, 66, 0
1, 180716, Note_on_c, 0, 61, 0
1, 180716, Note_on_c, 0, 56, 0
1, 180720, Note_on_c, 0, 56, 100
1, 180720, Note_on_c, 0, 61, 100
1, 180720, Note_on_c, 0, 64, 100
1, 180720, Note_on_c, 1, 37, 100
1, 180720, Note_on_c, 2, 56, 100
1, 180720, Note_on_c, 2, 61, 100
1, 180720, Note_on_c, 2, 64, 100
1, 180720, Note_on_c, 4, 76, 118
1, 180720, Note_on_c, 7, 61, 106
1, 180720, Note_on_c, 9, 42, 100
1, 180720, Note_on_c, 9, 82, 80
1, 180720, Note_on_c, 13, 76, 118
1, 180720, Pitch_bend_c, 14, 13028
1, 180720, Note_on_c, 14, 96, 111
1, 180752, Note_on_c, 9, 82, 0
1, 180776, Note_on_c, 14, 96, 0
1, 180780, Note_on_c, 7, 61, 0
1, 180836, Note_on_c, 9, 42, 0
1, 180840, Note_on_c, 7, 68, 127
1, 180840, Note_on_c, 9, 42, 100
1, 180840, Pitch_bend_c, 14, 13005
1, 180840, Note_on_c, 14, 96, 92
1, 180896, Note_on_c, 7, 68, 0
1, 180900, Note_on_c, 14, 96, 0
1, 180956, Note_on_c, 9, 42, 0
1, 180956, Note_on_c, 13, 76, 0
1, 180956, Note_on_c, 4, 76, 0
1, 180956, Note_on_c, 2, 64, 0
1, 180956, Note_on_c, 2, 61, 0
1, 180956, Note_on_c, 2, 56, 0
1, 180956, Note_on_c, 1, 37, 0
1, 180956, Note_on_c, 0, 64, 0
1, 180956, Note_on_c, 0, 61, 0
1, 180956, Note_on_c, 0, 56, 0
1, 180960, Note_on_c, 0, 56, 100
1, 180960, Note_on_c, 0, 61, 100
1, 180960, Note_on_c, 0, 64, 100
1, 180960, Note_on_c, 2, 56, 100
1, 180960, Note_on_c, 2, 61, 100
1, 180960, Note_on_c, 2, 64, 100
1, 180960, Note_on_c, 4, 76, 119
1, 180960, Note_on_c, 7, 56, 92
1, 180960, Note_on_c, 9, 32, 100
1, 180960, Note_on_c, 9, 36, 127
1, 180960, Note_on_c, 9, 37, 127
1, 180960, Note_on_c, 9, 42, 100
1, 180960, Note_on_c, 13, 76, 119
1, 180960, Pitch_bend_c, 14, 12982
1, 180960, Note_on_c, 14, 96, 105
1, 181016, Note_on_c, 14, 96, 0
1, 181016, Note_on_c, 7, 56, 0
1, 181076, Note_on_c, 9, 42, 0
1, 181080, Note_on_c, 7, 61, 109
1, 181080, Pitch_bend_c, 14, 12959
1, 181080, Note_on_c, 14, 96, 91
1, 181140, Note_on_c, 14, 96, 0
1, 181140, Note_on_c, 7, 61, 0
1, 181196, Note_on_c, 13, 76, 0
1, 181196, Note_on_c, 9, 37, 0
1, 181196, Note_on_c, 9, 36, 0
1, 181196, Note_on_c, 9, 32, 0
1, 181196, Note_on_c, 4, 76, 0
1, 181196, Note_on_c, 2, 64, 0
1, 181196, Note_on_c, 2, 61, 0
1, 181196, Note_on_c, 2, 56, 0
1, 181196, Note_on_c, 0, 64, 0
1, 181196, Note_on_c, 0, 61, 0
1, 181196, Note_on_c, 0, 56, 0
1, 181200, Note_on_c, 7, 68, 127
1, 181200, Note_on_c, 9, 42, 100
1, 181200, Note_on_c, 9, 82, 80
1, 181200, Pitch_bend_c, 14, 12936
1, 181200, Note_on_c, 14, 96, 113
1, 181236, Note_on_c, 9, 82, 0
1, 181256, Note_on_c, 14, 96, 0
1, 181260, Note_on_c, 7, 68, 0
1, 181316, Note_on_c, 9, 42, 0
1, 181320, Note_on_c, 7, 73, 100
1, 181320, Note_on_c, 9, 42, 100
1, 181320, Pitch_bend_c, 14, 12913
1, 181320, Note_on_c, 14, 96, 101
1, 181376, Note_on_c, 14, 96, 0
1, 181436, Note_on_c, 9, 42, 0
1, 181436, Note_on_c, 7, 73, 0
1, 181440, Note_on_c, 0, 56, 100
1, 181440, Note_on_c, 0, 59, 100
1, 181440, Note_on_c, 0, 64, 100
1, 181440, Note_on_c, 2, 56, 100
1, 181440, Note_on_c, 2, 59, 100
1, 181440, Note_on_c, 2, 64, 100
1, 181440, Note_on_c, 4, 76, 125
1, 181440, Note_on_c, 7, 73, 127
1, 181440, Note_on_c, 9, 32, 100
1, 181440, Note_on_c, 9, 36, 127
1, 181440, Note_on_c, 9, 42, 100
1, 181440, Note_on_c, 13, 76, 125
1, 181440, Pitch_bend_c, 14, 12891
1, 181440, Note_on_c, 14, 96, 119
1, 181496, Note_on_c, 14, 96, 0
1, 181496, Note_on_c, 7, 73, 0
1, 181556, Note_on_c, 9, 42, 0
1, 181560, Note_on_c, 7, 68, 59
1, 181560, Pitch_bend_c, 14, 12868
1, 181560, Note_on_c, 14, 96, 91
1, 181616, Note_on_c, 7, 68, 0
1, 181620, Note_on_c, 14, 96, 0
1, 181676, Note_on_c, 13, 76, 0
1, 181676, Note_on_c, 9, 36, 0
1, 181676, Note_on_c, 9, 32, 0
1, 181676, Note_on_c, 4, 76, 0
1, 181676, Note_on_c, 2, 64, 0
1, 181676, Note_on_c, 2, 59, 0
1, 181676, Note_on_c, 2, 56, 0
1, 181676, Note_on_c, 0, 64, 0
1, 181676, Note_on_c, 0, 59, 0
1, 181676, Note_on_c, 0, 56, 0
1, 181680, Note_on_c, 0, 56, 100
1, 181680, Note_on_c, 0, 59, 100
1, 181680, Note_on_c, 0, 64, 100
1, 181680, Note_on_c, 1, 40, 100
1, 181680, Note_on_c, 2, 56, 100
1, 181680, Note_on_c, 2, 59, 100
1, 181680, Note_on_c, 2, 64, 100
1, 181680, Note_on_c, 4, 76, 119
1, 181680, Note_on_c, 7, 73, 78
1, 181680, Note_on_c, 9, 42, 100
1, 181680, Note_on_c, 9, 82, 80
1, 181680, Note_on_c, 13, 76, 119
1, 181680, Pitch_bend_c, 14, 12845
1, 181680, Note_on_c, 14, 96, 119
1, 181728, Note_on_c, 9, 82, 0
1, 181736, Note_on_c, 7, 73, 0
1, 181740, Note_on_c, 14, 96, 0
1, 181796, Note_on_c, 9, 42, 0
1, 181800, Note_on_c, 7, 81, 125
1, 181800, Note_on_c, 9, 42, 100
1, 181800, Pitch_bend_c, 14, 12822
1, 181800, Note_on_c, 14, 96, 94
1, 181860, Note_on_c, 14, 96, 0
1, 181916, Note_on_c, 9, 42, 0
1, 181916, Note_on_c, 7, 81, 0
1, 181916, Note_on_c, 13, 76, 0
1, 181916, Note_on_c, 4, 76, 0
1, 181916, Note_on_c, 2, 64, 0
1, 181916, Note_on_c, 2, 59, 0
1, 181916, Note_on_c, 2, 56, 0
1, 181916, Note_on_c, 1, 40, 0
1, 181916, Note_on_c, 0, 64, 0
1, 181916, Note_on_c, 0, 59, 0
1, 181916, Note_on_c, 0, 56, 0
1, 181920, Note_on_c, 0, 56, 100
1, 181920, Note_on_c, 0, 59, 100
1, 181920, Note_on_c, 0, 64, 100
1, 181920, Note_on_c, 2, 56, 100
1, 181920, Note_on_c, 2, 59, 100
1, 181920, Note_on_c, 2, 64, 100
1, 181920, Note_on_c, 4, 76, 118
1, 181920, Note_on_c, 7, 73, 84
1, 181920, Note_on_c, 9, 32, 100
1, 181920, Note_on_c, 9, 36, 127
1, 181920, Note_on_c, 9, 37, 127
1, 181920, Note_on_c, 9, 42, 100
1, 181920, Note_on_c, 13, 76, 118
1, 181920, Pitch_bend_c, 14, 12799
1, 181920, Note_on_c, 14, 96, 116
1, 181980, Note_on_c, 14, 96, 0
1, 181980, Note_on_c, 7, 73, 0
1, 182036, Note_on_c, 9, 42, 0
1, 182040, Note_on_c, 7, 68, 73
1, 182040, Pitch_bend_c, 14, 12776
1, 182040, Note_on_c, 14, 96, 94
1, 182096, Note_on_c, 14, 96, 0
1, 182156, Note_on_c, 7, 68, 0
1, 182156, Note_on_c, 13, 76, 0
1, 182156, Note_on_c, 9, 37, 0
1, 182156, Note_on_c, 9, 36, 0
1, 182156, Note_on_c, 9, 32, 0
1, 182156, Note_on_c, 4, 76, 0
1, 182156, Note_on_c, 2, 64, 0
1, 182156, Note_on_c, 2, 59, 0
1, 182156, Note_on_c, 2, 56, 0
1, 182156, Note_on_c, 0, 64, 0
1, 182156, Note_on_c, 0, 59, 0
1, 182156, Note_on_c, 0, 56, 0
1, 182160, Note_on_c, 0, 56, 100
1, 182160, Note_on_c, 0, 59, 100
1, 182160, Note_on_c, 0, 64, 100
1, 182160, Note_on_c, 1, 40, 100
1, 182160, Note_on_c, 2, 56, 100
1, 182160, Note_on_c, 2, 59, 100
1, 182160, Note_on_c, 2, 64, 100
1, 182160, Note_on_c, 4, 76, 116
1, 182160, Note_on_c, 7, 73, 119
1, 182160, Note_on_c, 9, 42, 100
1, 182160, Note_on_c, 9, 82, 80
1, 182160, Note_on_c, 13, 76, 116
1, 182160, Pitch_bend_c, 14, 12753
1, 182160, Note_on_c, 14, 96, 107
1, 182212, Note_on_c, 9, 82, 0
1, 182220, Note_on_c, 14, 96, 0
1, 182220, Note_on_c, 7, 73, 0
1, 182276, Note_on_c, 9, 42, 0
1, 182280, Note_on_c, 7, 64, 109
1, 182280, Note_on_c, 9, 42, 100
1, 182280, Pitch_bend_c, 14, 12730
1, 182280, Note_on_c, 14, 96, 97
1, 182336, Note_on_c, 14, 96, 0
1, 182340, Note_on_c, 7, 64, 0
1, 182396, Note_on_c, 9, 42, 0
1, 182396, Note_on_c, 13, 76, 0
1, 182396, Note_on_c, 4, 76, 0
1, 182396, Note_on_c, 2, 64, 0
1, 182396, Note_on_c, 2, 59, 0
1, 182396, Note_on_c, 2, 56, 0
1, 182396, Note_on_c, 1, 40, 0
1, 182396, Note_on_c, 0, 64, 0
1, 182396, Note_on_c, 0, 59, 0
1, 182396, Note_on_c, 0, 56, 0
1, 182400, Note_on_c, 0, 54, 100
1, 182400, Note_on_c, 0, 59, 100
1, 182400, Note_on_c, 0, 63, 100
1, 182400, Note_on_c, 2, 54, 100
1, 182400, Note_on_c, 2, 59, 100
1, 182400, Note_on_c, 2, 63, 100
1, 182400, Note_on_c, 4, 75, 119
1, 182400, Note_on_c, 7, 61, 106
1, 182400, Note_on_c, 9, 32, 100
1, 182400, Note_on_c, 9, 36, 127
1, 182400, Note_on_c, 9, 42, 100
1, 182400, Note_on_c, 13, 75, 119
1, 182400, Pitch_bend_c, 14, 12707
1, 182400, Note_on_c, 14, 96, 116
1, 182456, Note_on_c, 14, 96, 0
1, 182460, Note_on_c, 7, 61, 0
1, 182516, Note_on_c, 9, 42, 0
1, 182520, Note_on_c, 7, 49, 92
1, 182520, Pitch_bend_c, 14, 12684
1, 182520, Note_on_c, 14, 96, 98
1, 182576, Note_on_c, 7, 49, 0
1, 182580, Note_on_c, 14, 96, 0
1, 182636, Note_on_c, 13, 75, 0
1, 182636, Note_on_c, 9, 36, 0
1, 182636, Note_on_c, 9, 32, 0
1, 182636, Note_on_c, 4, 75, 0
1, 182636, Note_on_c, 2, 63, 0
1, 182636, Note_on_c, 2, 59, 0
1, 182636, Note_on_c, 2, 54, 0
1, 182636, Note_on_c, 0, 63, 0
1, 182636, Note_on_c, 0, 59, 0
1, 182636, Note_on_c, 0, 54, 0
1, 182640, Note_on_c, 0, 54, 100
1, 182640, Note_on_c, 0, 59, 100
1, 182640, Note_on_c, 0, 63, 100
1, 182640, Note_on_c, 1, 35, 100
1, 182640, Note_on_c, 2, 54, 100
1, 182640, Note_on_c, 2, 59, 100
1, 182640, Note_on_c, 2, 63, 100
1, 182640, Note_on_c, 4, 75, 119
1, 182640, Note_on_c, 7, 61, 106
1, 182640, Note_on_c, 9, 42, 100
1, 182640, Note_on_c, 9, 82, 80
1, 182640, Note_on_c, 13, 75, 119
1, 182640, Pitch_bend_c, 14, 12661
1, 182640, Note_on_c, 14, 96, 109
1, 182692, Note_on_c, 9, 82, 0
1, 182696, Note_on_c, 14, 96, 0
1, 182700, Note_on_c, 7, 61, 0
1, 182756, Note_on_c, 9, 42, 0
1, 182760, Note_on_c, 7, 68, 127
1, 182760, Note_on_c, 9, 42, 100
1, 182760, Pitch_bend_c, 14, 12638
1, 182760, Note_on_c, 14, 96, 95
1, 182816, Note_on_c, 14, 96, 0
1, 182816, Note_on_c, 7, 68, 0
1, 182876, Note_on_c, 9, 42, 0
1, 182876, Note_on_c, 13, 75, 0
1, 182876, Note_on_c, 4, 75, 0
1, 182876, Note_on_c, 2, 63, 0
1, 182876, Note_on_c, 2, 59, 0
1, 182876, Note_on_c, 2, 54, 0
1, 182876, Note_on_c, 1, 35, 0
1, 182876, Note_on_c, 0, 63, 0
1, 182876, Note_on_c, 0, 59, 0
1, 182876, Note_on_c, 0, 54, 0
1, 182880, Note_on_c, 0, 54, 100
1, 182880, Note_on_c, 0, 59, 100
1, 182880, Note_on_c, 0, 63, 100
1, 182880, Note_on_c, 2, 54, 100
1, 182880, Note_on_c, 2, 59, 100
1, 182880, Note_on_c, 2, 63, 100
1, 182880, Note_on_c, 4, 76, 113
1, 182880, Note_on_c, 7, 56, 92
1, 182880, Note_on_c, 9, 32, 100
1, 182880, Note_on_c, 9, 36, 127
1, 182880, Note_on_c, 9, 37, 127
1, 182880, Note_on_c, 9, 42, 100
1, 182880, Note_on_c, 13, 76, 113
1, 182880, Pitch_bend_c, 14, 12615
1, 182880, Note_on_c, 14, 96, 111
1, 182936, Note_on_c, 14, 96, 0
1, 182936, Note_on_c, 7, 56, 0
1, 182996, Note_on_c, 9, 42, 0
1, 183000, Note_on_c, 7, 61, 109
1, 183000, Pitch_bend_c, 14, 12592
1, 183000, Note_on_c, 14, 96, 95
1, 183056, Note_on_c, 14, 96, 0
1, 183060, Note_on_c, 7, 61, 0
1, 183116, Note_on_c, 13, 76, 0
1, 183116, Note_on_c, 9, 37, 0
1, 183116, Note_on_c, 9, 36, 0
1, 183116, Note_on_c, 9, 32, 0
1, 183116, Note_on_c, 4, 76, 0
1, 183116, Note_on_c, 2, 63, 0
1, 183116, Note_on_c, 2, 59, 0
1, 183116, Note_on_c, 2, 54, 0
1, 183116, Note_on_c, 0, 63, 0
1, 183116, Note_on_c, 0, 59, 0
1, 183116, Note_on_c, 0, 54, 0
1, 183120, Note_on_c, 0, 52, 100
1, 183120, Note_on_c, 0, 57, 100
1, 183120, Note_on_c, 0, 61, 100
1, 183120, Note_on_c, 1, 33, 100
1, 183120, Note_on_c, 2, 52, 100
1, 183120, Note_on_c, 2, 57, 100
1, 183120, Note_on_c, 2, 61, 100
1, 183120, Note_on_c, 4, 76, 111
1, 183120, Note_on_c, 7, 68, 127
1, 183120, Note_on_c, 9, 29, 100
1, 183120, Note_on_c, 9, 42, 100
1, 183120, Note_on_c, 9, 82, 80
1, 183120, Note_on_c, 13, 76, 111
1, 183120, Pitch_bend_c, 14, 12569
1, 183120, Note_on_c, 14, 96, 111
1, 183176, Note_on_c, 9, 82, 0
1, 183180, Note_on_c, 14, 96, 0
1, 183180, Note_on_c, 7, 68, 0
1, 183236, Note_on_c, 9, 42, 0
1, 183240, Note_on_c, 7, 73, 100
1, 183240, Note_on_c, 9, 42, 100
1, 183240, Pitch_bend_c, 14, 12547
1, 183240, Note_on_c, 14, 96, 95
1, 183300, Note_on_c, 14, 96, 0
1, 183356, Note_on_c, 9, 42, 0
1, 183356, Note_on_c, 7, 73, 0
1, 183356, Note_on_c, 13, 76, 0
1, 183356, Note_on_c, 9, 29, 0
1, 183356, Note_on_c, 4, 76, 0
1, 183356, Note_on_c, 2, 61, 0
1, 183356, Note_on_c, 2, 57, 0
1, 183356, Note_on_c, 2, 52, 0
1, 183356, Note_on_c, 1, 33, 0
1, 183356, Note_on_c, 0, 61, 0
1, 183356, Note_on_c, 0, 57, 0
1, 183356, Note_on_c, 0, 52, 0
1, 183360, Note_on_c, 7, 73, 127
1, 183360, Note_on_c, 9, 32, 100
1, 183360, Note_on_c, 9, 36, 127
1, 183360, Note_on_c, 9, 42, 100
1, 183360, Pitch_bend_c, 14, 12524
1, 183360, Note_on_c, 14, 96, 116
1, 183416, Note_on_c, 14, 96, 0
1, 183416, Note_on_c, 7, 73, 0
1, 183476, Note_on_c, 9, 42, 0
1, 183480, Note_on_c, 7, 68, 59
1, 183480, Note_on_c, 9, 70, 80
1, 183480, Pitch_bend_c, 14, 12501
1, 183480, Note_on_c, 14, 96, 90
1, 183536, Note_on_c, 14, 96, 0
1, 183536, Note_on_c, 7, 68, 0
1, 183596, Note_on_c, 9, 36, 0
1, 183596, Note_on_c, 9, 32, 0
1, 183600, Note_on_c, 0, 52, 100
1, 183600, Note_on_c, 0, 57, 100
1, 183600, Note_on_c, 0, 61, 100
1, 183600, Note_on_c, 1, 33, 100
1, 183600, Note_on_c, 2, 52, 100
1, 183600, Note_on_c, 2, 57, 100
1, 183600, Note_on_c, 2, 61, 100
1, 183600, Note_on_c, 4, 85, 127
1, 183600, Note_on_c, 7, 73, 78
1, 183600, Note_on_c, 9, 42, 100
1, 183600, Note_on_c, 9, 82, 80
1, 183600, Note_on_c, 13, 85, 127
1, 183600, Pitch_bend_c, 14, 12478
1, 183600, Note_on_c, 14, 96, 109
1, 183640, Note_on_c, 9, 82, 0
1, 183656, Note_on_c, 7, 73, 0
1, 183660, Note_on_c, 14, 96, 0
1, 183716, Note_on_c, 9, 42, 0
1, 183716, Note_on_c, 9, 70, 0
1, 183720, Note_on_c, 7, 81, 125
1, 183720, Note_on_c, 9, 42, 100
1, 183720, Pitch_bend_c, 14, 12455
1, 183720, Note_on_c, 14, 96, 97
1, 183780, Note_on_c, 14, 96, 0
1, 183836, Note_on_c, 9, 42, 0
1, 183836, Note_on_c, 7, 81, 0
1, 183836, Note_on_c, 13, 85, 0
1, 183836, Note_on_c, 4, 85, 0
1, 183836, Note_on_c, 2, 61, 0
1, 183836, Note_on_c, 2, 57, 0
1, 183836, Note_on_c, 2, 52, 0
1, 183836, Note_on_c, 1, 33, 0
1, 183836, Note_on_c, 0, 61, 0
1, 183836, Note_on_c, 0, 57, 0
1, 183836, Note_on_c, 0, 52, 0
1, 183840, Note_on_c, 0, 52, 100
1, 183840, Note_on_c, 0, 57, 100
1, 183840, Note_on_c, 0, 61, 100
1, 183840, Note_on_c, 2, 52, 100
1, 183840, Note_on_c, 2, 57, 100
1, 183840, Note_on_c, 2, 61, 100
1, 183840, Note_on_c, 4, 83, 119
1, 183840, Note_on_c, 7, 73, 84
1, 183840, Note_on_c, 9, 32, 100
1, 183840, Note_on_c, 9, 36, 127
1, 183840, Note_on_c, 9, 37, 127
1, 183840, Note_on_c, 9, 42, 100
1, 183840, Note_on_c, 13, 83, 119
1, 183840, Pitch_bend_c, 14, 12432
1, 183840, Note_on_c, 14, 96, 122
1, 183900, Note_on_c, 14, 96, 0
1, 183900, Note_on_c, 7, 73, 0
1, 183956, Note_on_c, 9, 42, 0
1, 183960, Note_on_c, 7, 68, 73
1, 183960, Pitch_bend_c, 14, 12409
1, 183960, Note_on_c, 14, 96, 92
1, 184016, Note_on_c, 14, 96, 0
1, 184076, Note_on_c, 7, 68, 0
1, 184076, Note_on_c, 13, 83, 0
1, 184076, Note_on_c, 9, 37, 0
1, 184076, Note_on_c, 9, 36, 0
1, 184076, Note_on_c, 9, 32, 0
1, 184076, Note_on_c, 4, 83, 0
1, 184076, Note_on_c, 2, 61, 0
1, 184076, Note_on_c, 2, 57, 0
1, 184076, Note_on_c, 2, 52, 0
1, 184076, Note_on_c, 0, 61, 0
1, 184076, Note_on_c, 0, 57, 0
1, 184076, Note_on_c, 0, 52, 0
1, 184080, Note_on_c, 0, 52, 100
1, 184080, Note_on_c, 0, 57, 100
1, 184080, Note_on_c, 0, 61, 100
1, 184080, Note_on_c, 1, 33, 100
1, 184080, Note_on_c, 2, 52, 100
1, 184080, Note_on_c, 2, 57, 100
1, 184080, Note_on_c, 2, 61, 100
1, 184080, Note_on_c, 4, 80, 125
1, 184080, Note_on_c, 7, 73, 119
1, 184080, Note_on_c, 9, 42, 100
1, 184080, Note_on_c, 9, 82, 80
1, 184080, Note_on_c, 13, 80, 125
1, 184080, Pitch_bend_c, 14, 12386
1, 184080, Note_on_c, 14, 96, 116
1, 184120, Note_on_c, 9, 82, 0
1, 184136, Note_on_c, 14, 96, 0
1, 184140, Note_on_c, 7, 73, 0
1, 184196, Note_on_c, 9, 42, 0
1, 184200, Note_on_c, 7, 64, 109
1, 184200, Note_on_c, 9, 42, 100
1, 184200, Pitch_bend_c, 14, 12363
1, 184200, Note_on_c, 14, 96, 111
1, 184256, Note_on_c, 14, 96, 0
1, 184260, Note_on_c, 7, 64, 0
1, 184316, Note_on_c, 9, 42, 0
1, 184316, Note_on_c, 13, 80, 0
1, 184316, Note_on_c, 4, 80, 0
1, 184316, Note_on_c, 2, 61, 0
1, 184316, Note_on_c, 2, 57, 0
1, 184316, Note_on_c, 2, 52, 0
1, 184316, Note_on_c, 1, 33, 0
1, 184316, Note_on_c, 0, 61, 0
1, 184316, Note_on_c, 0, 57, 0
1, 184316, Note_on_c, 0, 52, 0
1, 184316, Note_on_c, 10, 84, 0
1, 184320, Note_on_c, 0, 56, 100
1, 184320, Note_on_c, 0, 61, 100
1, 184320, Note_on_c, 0, 66, 100
1, 184320, Note_on_c, 2, 56, 100
1, 184320, Note_on_c, 2, 61, 100
1, 184320, Note_on_c, 2, 66, 100
1, 184320, Note_on_c, 4, 78, 127
1, 184320, Note_on_c, 7, 61, 106
1, 184320, Note_on_c, 9, 32, 100
1, 184320, Note_on_c, 9, 36, 127
1, 184320, Note_on_c, 9, 42, 100
1, 184320, Note_on_c, 13, 78, 127
1, 184320, Pitch_bend_c, 14, 12340
1, 184320, Note_on_c, 14, 96, 116
1, 184380, Note_on_c, 14, 96, 0
1, 184380, Note_on_c, 7, 61, 0
1, 184436, Note_on_c, 9, 42, 0
1, 184440, Note_on_c, 7, 49, 92
1, 184440, Pitch_bend_c, 14, 12317
1, 184440, Note_on_c, 14, 96, 87
1, 184496, Note_on_c, 7, 49, 0
1, 184500, Note_on_c, 14, 96, 0
1, 184556, Note_on_c, 13, 78, 0
1, 184556, Note_on_c, 9, 36, 0
1, 184556, Note_on_c, 9, 32, 0
1, 184556, Note_on_c, 4, 78, 0
1, 184556, Note_on_c, 2, 66, 0
1, 184556, Note_on_c, 2, 61, 0
1, 184556, Note_on_c, 2, 56, 0
1, 184556, Note_on_c, 0, 66, 0
1, 184556, Note_on_c, 0, 61, 0
1, 184556, Note_on_c, 0, 56, 0
1, 184560, Note_on_c, 0, 56, 100
1, 184560, Note_on_c, 0, 61, 100
1, 184560, Note_on_c, 0, 64, 100
1, 184560, Note_on_c, 1, 37, 100
1, 184560, Note_on_c, 2, 56, 100
1, 184560, Note_on_c, 2, 61, 100
1, 184560, Note_on_c, 2, 64, 100
1, 184560, Note_on_c, 4, 76, 101
1, 184560, Note_on_c, 7, 61, 106
1, 184560, Note_on_c, 9, 42, 100
1, 184560, Note_on_c, 9, 82, 80
1, 184560, Note_on_c, 13, 76, 101
1, 184560, Pitch_bend_c, 14, 12294
1, 184560, Note_on_c, 14, 96, 111
1, 184608, Note_on_c, 9, 82, 0
1, 184616, Note_on_c, 14, 96, 0
1, 184620, Note_on_c, 7, 61, 0
1, 184676, Note_on_c, 9, 42, 0
1, 184680, Note_on_c, 7, 68, 127
1, 184680, Note_on_c, 9, 42, 100
1, 184680, Pitch_bend_c, 14, 12271
1, 184680, Note_on_c, 14, 96, 92
1, 184736, Note_on_c, 7, 68, 0
1, 184740, Note_on_c, 14, 96, 0
1, 184796, Note_on_c, 9, 42, 0
1, 184796, Note_on_c, 13, 76, 0
1, 184796, Note_on_c, 4, 76, 0
1, 184796, Note_on_c, 2, 64, 0
1, 184796, Note_on_c, 2, 61, 0
1, 184796, Note_on_c, 2, 56, 0
1, 184796, Note_on_c, 1, 37, 0
1, 184796, Note_on_c, 0, 64, 0
1, 184796, Note_on_c, 0, 61, 0
1, 184796, Note_on_c, 0, 56, 0
1, 184800, Note_on_c, 0, 56, 100
1, 184800, Note_on_c, 0, 61, 100
1, 184800, Note_on_c, 0, 64, 100
1, 184800, Note_on_c, 2, 56, 100
1, 184800, Note_on_c, 2, 61, 100
1, 184800, Note_on_c, 2, 64, 100
1, 184800, Note_on_c, 4, 76, 116
1, 184800, Note_on_c, 7, 56, 92
1, 184800, Note_on_c, 9, 32, 100
1, 184800, Note_on_c, 9, 36, 127
1, 184800, Note_on_c, 9, 37, 127
1, 184800, Note_on_c, 9, 42, 100
1, 184800, Note_on_c, 13, 76, 116
1, 184800, Pitch_bend_c, 14, 12248
1, 184800, Note_on_c, 14, 96, 105
1, 184856, Note_on_c, 14, 96, 0
1, 184856, Note_on_c, 7, 56, 0
1, 184916, Note_on_c, 9, 42, 0
1, 184920, Note_on_c, 7, 61, 109
1, 184920, Pitch_bend_c, 14, 12225
1, 184920, Note_on_c, 14, 96, 91
1, 184980, Note_on_c, 14, 96, 0
1, 184980, Note_on_c, 7, 61, 0
1, 185036, Note_on_c, 13, 76, 0
1, 185036, Note_on_c, 9, 37, 0
1, 185036, Note_on_c, 9, 36, 0
1, 185036, Note_on_c, 9, 32, 0
1, 185036, Note_on_c, 4, 76, 0
1, 185036, Note_on_c, 2, 64, 0
1, 185036, Note_on_c, 2, 61, 0
1, 185036, Note_on_c, 2, 56, 0
1, 185036, Note_on_c, 0, 64, 0
1, 185036, Note_on_c, 0, 61, 0
1, 185036, Note_on_c, 0, 56, 0
1, 185040, Note_on_c, 7, 68, 127
1, 185040, Note_on_c, 9, 42, 100
1, 185040, Note_on_c, 9, 82, 80
1, 185040, Pitch_bend_c, 14, 12203
1, 185040, Note_on_c, 14, 96, 113
1, 185092, Note_on_c, 9, 82, 0
1, 185096, Note_on_c, 14, 96, 0
1, 185100, Note_on_c, 7, 68, 0
1, 185156, Note_on_c, 9, 42, 0
1, 185160, Note_on_c, 7, 73, 100
1, 185160, Note_on_c, 9, 42, 100
1, 185160, Pitch_bend_c, 14, 12180
1, 185160, Note_on_c, 14, 96, 101
1, 185216, Note_on_c, 14, 96, 0
1, 185276, Note_on_c, 9, 42, 0
1, 185276, Note_on_c, 7, 73, 0
1, 185280, Note_on_c, 0, 56, 100
1, 185280, Note_on_c, 0, 59, 100
1, 185280, Note_on_c, 0, 64, 100
1, 185280, Note_on_c, 2, 56, 100
1, 185280, Note_on_c, 2, 59, 100
1, 185280, Note_on_c, 2, 64, 100
1, 185280, Note_on_c, 4, 76, 119
1, 185280, Note_on_c, 7, 73, 127
1, 185280, Note_on_c, 9, 32, 100
1, 185280, Note_on_c, 9, 36, 127
1, 185280, Note_on_c, 9, 42, 100
1, 185280, Note_on_c, 13, 76, 119
1, 185280, Pitch_bend_c, 14, 12157
1, 185280, Note_on_c, 14, 96, 119
1, 185336, Note_on_c, 14, 96, 0
1, 185336, Note_on_c, 7, 73, 0
1, 185396, Note_on_c, 9, 42, 0
1, 185400, Note_on_c, 7, 68, 59
1, 185400, Pitch_bend_c, 14, 12134
1, 185400, Note_on_c, 14, 96, 91
1, 185456, Note_on_c, 7, 68, 0
1, 185460, Note_on_c, 14, 96, 0
1, 185516, Note_on_c, 13, 76, 0
1, 185516, Note_on_c, 9, 36, 0
1, 185516, Note_on_c, 9, 32, 0
1, 185516, Note_on_c, 4, 76, 0
1, 185516, Note_on_c, 2, 64, 0
1, 185516, Note_on_c, 2, 59, 0
1, 185516, Note_on_c, 2, 56, 0
1, 185516, Note_on_c, 0, 64, 0
1, 185516, Note_on_c, 0, 59, 0
1, 185516, Note_on_c, 0, 56, 0
1, 185520, Note_on_c, 0, 56, 100
1, 185520, Note_on_c, 0, 59, 100
1, 185520, Note_on_c, 0, 64, 100
1, 185520, Note_on_c, 1, 40, 100
1, 185520, Note_on_c, 2, 56, 100
1, 185520, Note_on_c, 2, 59, 100
1, 185520, Note_on_c, 2, 64, 100
1, 185520, Note_on_c, 4, 76, 111
1, 185520, Note_on_c, 7, 73, 78
1, 185520, Note_on_c, 9, 42, 100
1, 185520, Note_on_c, 9, 82, 80
1, 185520, Note_on_c, 13, 76, 111
1, 185520, Pitch_bend_c, 14, 12111
1, 185520, Note_on_c, 14, 96, 119
1, 185568, Note_on_c, 9, 82, 0
1, 185576, Note_on_c, 7, 73, 0
1, 185580, Note_on_c, 14, 96, 0
1, 185636, Note_on_c, 9, 42, 0
1, 185640, Note_on_c, 7, 81, 125
1, 185640, Note_on_c, 9, 42, 100
1, 185640, Pitch_bend_c, 14, 12088
1, 185640, Note_on_c, 14, 96, 94
1, 185700, Note_on_c, 14, 96, 0
1, 185756, Note_on_c, 9, 42, 0
1, 185756, Note_on_c, 7, 81, 0
1, 185756, Note_on_c, 13, 76, 0
1, 185756, Note_on_c, 4, 76, 0
1, 185756, Note_on_c, 2, 64, 0
1, 185756, Note_on_c, 2, 59, 0
1, 185756, Note_on_c, 2, 56, 0
1, 185756, Note_on_c, 1, 40, 0
1, 185756, Note_on_c, 0, 64, 0
1, 185756, Note_on_c, 0, 59, 0
1, 185756, Note_on_c, 0, 56, 0
1, 185760, Note_on_c, 0, 56, 100
1, 185760, Note_on_c, 0, 59, 100
1, 185760, Note_on_c, 0, 64, 100
1, 185760, Note_on_c, 2, 56, 100
1, 185760, Note_on_c, 2, 59, 100
1, 185760, Note_on_c, 2, 64, 100
1, 185760, Note_on_c, 4, 76, 109
1, 185760, Note_on_c, 7, 73, 84
1, 185760, Note_on_c, 9, 32, 100
1, 185760, Note_on_c, 9, 36, 127
1, 185760, Note_on_c, 9, 37, 127
1, 185760, Note_on_c, 9, 42, 100
1, 185760, Note_on_c, 13, 76, 109
1, 185760, Pitch_bend_c, 14, 12065
1, 185760, Note_on_c, 14, 96, 116
1, 185820, Note_on_c, 14, 96, 0
1, 185820, Note_on_c, 7, 73, 0
1, 185876, Note_on_c, 9, 42, 0
1, 185880, Note_on_c, 7, 68, 73
1, 185880, Pitch_bend_c, 14, 12042
1, 185880, Note_on_c, 14, 96, 94
1, 185936, Note_on_c, 14, 96, 0
1, 185996, Note_on_c, 7, 68, 0
1, 185996, Note_on_c, 13, 76, 0
1, 185996, Note_on_c, 9, 37, 0
1, 185996, Note_on_c, 9, 36, 0
1, 185996, Note_on_c, 9, 32, 0
1, 185996, Note_on_c, 4, 76, 0
1, 185996, Note_on_c, 2, 64, 0
1, 185996, Note_on_c, 2, 59, 0
1, 185996, Note_on_c, 2, 56, 0
1, 185996, Note_on_c, 0, 64, 0
1, 185996, Note_on_c, 0, 59, 0
1, 185996, Note_on_c, 0, 56, 0
1, 186000, Note_on_c, 0, 56, 100
1, 186000, Note_on_c, 0, 59, 100
1, 186000, Note_on_c, 0, 64, 100
1, 186000, Note_on_c, 1, 40, 100
1, 186000, Note_on_c, 2, 56, 100
1, 186000, Note_on_c, 2, 59, 100
1, 186000, Note_on_c, 2, 64, 100
1, 186000, Note_on_c, 4, 76, 87
1, 186000, Note_on_c, 7, 73, 119
1, 186000, Note_on_c, 9, 42, 100
1, 186000, Note_on_c, 9, 82, 80
1, 186000, Note_on_c, 13, 76, 87
1, 186000, Pitch_bend_c, 14, 12019
1, 186000, Note_on_c, 14, 96, 107
1, 186040, Note_on_c, 9, 82, 0
1, 186060, Note_on_c, 14, 96, 0
1, 186060, Note_on_c, 7, 73, 0
1, 186116, Note_on_c, 9, 42, 0
1, 186120, Note_on_c, 7, 64, 109
1, 186120, Note_on_c, 9, 42, 100
1, 186120, Pitch_bend_c, 14, 11996
1, 186120, Note_on_c, 14, 96, 97
1, 186176, Note_on_c, 14, 96, 0
1, 186180, Note_on_c, 7, 64, 0
1, 186236, Note_on_c, 9, 42, 0
1, 186236, Note_on_c, 13, 76, 0
1, 186236, Note_on_c, 4, 76, 0
1, 186236, Note_on_c, 2, 64, 0
1, 186236, Note_on_c, 2, 59, 0
1, 186236, Note_on_c, 2, 56, 0
1, 186236, Note_on_c, 1, 40, 0
1, 186236, Note_on_c, 0, 64, 0
1, 186236, Note_on_c, 0, 59, 0
1, 186236, Note_on_c, 0, 56, 0
1, 186240, Note_on_c, 0, 54, 100
1, 186240, Note_on_c, 0, 59, 100
1, 186240, Note_on_c, 0, 63, 100
1, 186240, Note_on_c, 2, 54, 100
1, 186240, Note_on_c, 2, 59, 100
1, 186240, Note_on_c, 2, 63, 100
1, 186240, Note_on_c, 4, 73, 127
1, 186240, Note_on_c, 7, 61, 106
1, 186240, Note_on_c, 9, 32, 100
1, 186240, Note_on_c, 9, 36, 127
1, 186240, Note_on_c, 9, 42, 100
1, 186240, Note_on_c, 13, 73, 127
1, 186240, Pitch_bend_c, 14, 11973
1, 186240, Note_on_c, 14, 96, 116
1, 186296, Note_on_c, 14, 96, 0
1, 186300, Note_on_c, 7, 61, 0
1, 186356, Note_on_c, 9, 42, 0
1, 186360, Note_on_c, 7, 49, 92
1, 186360, Pitch_bend_c, 14, 11950
1, 186360, Note_on_c, 14, 96, 98
1, 186416, Note_on_c, 7, 49, 0
1, 186420, Note_on_c, 14, 96, 0
1, 186476, Note_on_c, 13, 73, 0
1, 186476, Note_on_c, 9, 36, 0
1, 186476, Note_on_c, 9, 32, 0
1, 186476, Note_on_c, 4, 73, 0
1, 186476, Note_on_c, 2, 63, 0
1, 186476, Note_on_c, 2, 59, 0
1, 186476, Note_on_c, 2, 54, 0
1, 186476, Note_on_c, 0, 63, 0
1, 186476, Note_on_c, 0, 59, 0
1, 186476, Note_on_c, 0, 54, 0
1, 186480, Note_on_c, 0, 54, 100
1, 186480, Note_on_c, 0, 59, 100
1, 186480, Note_on_c, 0, 63, 100
1, 186480, Note_on_c, 1, 35, 100
1, 186480, Note_on_c, 2, 54, 100
1, 186480, Note_on_c, 2, 59, 100
1, 186480, Note_on_c, 2, 63, 100
1, 186480, Note_on_c, 4, 73, 127
1, 186480, Note_on_c, 7, 61, 106
1, 186480, Note_on_c, 9, 42, 100
1, 186480, Note_on_c, 9, 82, 80
1, 186480, Note_on_c, 13, 73, 127
1, 186480, Pitch_bend_c, 14, 11927
1, 186480, Note_on_c, 14, 96, 109
1, 186524, Note_on_c, 9, 82, 0
1, 186536, Note_on_c, 14, 96, 0
1, 186540, Note_on_c, 7, 61, 0
1, 186596, Note_on_c, 9, 42, 0
1, 186600, Note_on_c, 7, 68, 127
1, 186600, Note_on_c, 9, 42, 100
1, 186600, Pitch_bend_c, 14, 11904
1, 186600, Note_on_c, 14, 96, 95
1, 186656, Note_on_c, 14, 96, 0
1, 186656, Note_on_c, 7, 68, 0
1, 186716, Note_on_c, 9, 42, 0
1, 186716, Note_on_c, 13, 73, 0
1, 186716, Note_on_c, 4, 73, 0
1, 186716, Note_on_c, 2, 63, 0
1, 186716, Note_on_c, 2, 59, 0
1, 186716, Note_on_c, 2, 54, 0
1, 186716, Note_on_c, 1, 35, 0
1, 186716, Note_on_c, 0, 63, 0
1, 186716, Note_on_c, 0, 59, 0
1, 186716, Note_on_c, 0, 54, 0
1, 186720, Note_on_c, 0, 54, 100
1, 186720, Note_on_c, 0, 59, 100
1, 186720, Note_on_c, 0, 63, 100
1, 186720, Note_on_c, 2, 54, 100
1, 186720, Note_on_c, 2, 59, 100
1, 186720, Note_on_c, 2, 63, 100
1, 186720, Note_on_c, 4, 71, 113
1, 186720, Note_on_c, 7, 56, 92
1, 186720, Note_on_c, 9, 32, 100
1, 186720, Note_on_c, 9, 36, 127
1, 186720, Note_on_c, 9, 37, 127
1, 186720, Note_on_c, 9, 42, 100
1, 186720, Note_on_c, 13, 71, 113
1, 186720, Pitch_bend_c, 14, 11881
1, 186720, Note_on_c, 14, 96, 111
1, 186776, Note_on_c, 14, 96, 0
1, 186776, Note_on_c, 7, 56, 0
1, 186836, Note_on_c, 9, 42, 0
1, 186840, Note_on_c, 7, 61, 109
1, 186840, Pitch_bend_c, 14, 11859
1, 186840, Note_on_c, 14, 96, 95
1, 186896, Note_on_c, 14, 96, 0
1, 186900, Note_on_c, 7, 61, 0
1, 186956, Note_on_c, 13, 71, 0
1, 186956, Note_on_c, 9, 37, 0
1, 186956, Note_on_c, 9, 36, 0
1, 186956, Note_on_c, 9, 32, 0
1, 186956, Note_on_c, 4, 71, 0
1, 186956, Note_on_c, 2, 63, 0
1, 186956, Note_on_c, 2, 59, 0
1, 186956, Note_on_c, 2, 54, 0
1, 186956, Note_on_c, 0, 63, 0
1, 186956, Note_on_c, 0, 59, 0
1, 186956, Note_on_c, 0, 54, 0
1, 186960, Note_on_c, 0, 52, 100
1, 186960, Note_on_c, 0, 57, 100
1, 186960, Note_on_c, 0, 61, 100
1, 186960, Note_on_c, 1, 33, 100
1, 186960, Note_on_c, 2, 52, 100
1, 186960, Note_on_c, 2, 57, 100
1, 186960, Note_on_c, 2, 61, 100
1, 186960, Note_on_c, 4, 71, 122
1, 186960, Note_on_c, 7, 68, 127
1, 186960, Note_on_c, 9, 29, 100
1, 186960, Note_on_c, 9, 42, 100
1, 186960, Note_on_c, 9, 82, 80
1, 186960, Note_on_c, 13, 71, 122
1, 186960, Pitch_bend_c, 14, 11836
1, 186960, Note_on_c, 14, 96, 111
1, 187000, Note_on_c, 9, 82, 0
1, 187020, Note_on_c, 14, 96, 0
1, 187020, Note_on_c, 7, 68, 0
1, 187076, Note_on_c, 9, 42, 0
1, 187080, Note_on_c, 7, 73, 100
1, 187080, Note_on_c, 9, 42, 100
1, 187080, Pitch_bend_c, 14, 11813
1, 187080, Note_on_c, 14, 96, 95
1, 187140, Note_on_c, 14, 96, 0
1, 187196, Note_on_c, 9, 42, 0
1, 187196, Note_on_c, 7, 73, 0
1, 187196, Note_on_c, 13, 71, 0
1, 187196, Note_on_c, 9, 29, 0
1, 187196, Note_on_c, 4, 71, 0
1, 187196, Note_on_c, 2, 61, 0
1, 187196, Note_on_c, 2, 57, 0
1, 187196, Note_on_c, 2, 52, 0
1, 187196, Note_on_c, 1, 33, 0
1, 187196, Note_on_c, 0, 61, 0
1, 187196, Note_on_c, 0, 57, 0
1, 187196, Note_on_c, 0, 52, 0
1, 187200, Note_on_c, 7, 73, 127
1, 187200, Note_on_c, 9, 32, 100
1, 187200, Note_on_c, 9, 36, 127
1, 187200, Note_on_c, 9, 42, 100
1, 187200, Pitch_bend_c, 14, 11790
1, 187200, Note_on_c, 14, 96, 116
1, 187256, Note_on_c, 14, 96, 0
1, 187256, Note_on_c, 7, 73, 0
1, 187316, Note_on_c, 9, 42, 0
1, 187320, Note_on_c, 7, 68, 59
1, 187320, Note_on_c, 9, 70, 80
1, 187320, Pitch_bend_c, 14, 11767
1, 187320, Note_on_c, 14, 96, 90
1, 187376, Note_on_c, 14, 96, 0
1, 187376, Note_on_c, 7, 68, 0
1, 187436, Note_on_c, 9, 36, 0
1, 187436, Note_on_c, 9, 32, 0
1, 187440, Note_on_c, 0, 52, 100
1, 187440, Note_on_c, 0, 57, 100
1, 187440, Note_on_c, 0, 61, 100
1, 187440, Note_on_c, 1, 33, 100
1, 187440, Note_on_c, 2, 52, 100
1, 187440, Note_on_c, 2, 57, 100
1, 187440, Note_on_c, 2, 61, 100
1, 187440, Note_on_c, 4, 85, 127
1, 187440, Note_on_c, 7, 73, 78
1, 187440, Note_on_c, 9, 42, 100
1, 187440, Note_on_c, 9, 82, 80
1, 187440, Note_on_c, 13, 85, 127
1, 187440, Pitch_bend_c, 14, 11744
1, 187440, Note_on_c, 14, 96, 109
1, 187480, Note_on_c, 9, 82, 0
1, 187496, Note_on_c, 7, 73, 0
1, 187500, Note_on_c, 14, 96, 0
1, 187556, Note_on_c, 9, 42, 0
1, 187556, Note_on_c, 9, 70, 0
1, 187560, Note_on_c, 7, 81, 125
1, 187560, Note_on_c, 9, 42, 100
1, 187560, Pitch_bend_c, 14, 11721
1, 187560, Note_on_c, 14, 96, 97
1, 187620, Note_on_c, 14, 96, 0
1, 187676, Note_on_c, 9, 42, 0
1, 187676, Note_on_c, 7, 81, 0
1, 187676, Note_on_c, 13, 85, 0
1, 187676, Note_on_c, 4, 85, 0
1, 187676, Note_on_c, 2, 61, 0
1, 187676, Note_on_c, 2, 57, 0
1, 187676, Note_on_c, 2, 52, 0
1, 187676, Note_on_c, 1, 33, 0
1, 187676, Note_on_c, 0, 61, 0
1, 187676, Note_on_c, 0, 57, 0
1, 187676, Note_on_c, 0, 52, 0
1, 187680, Note_on_c, 0, 52, 100
1, 187680, Note_on_c, 0, 57, 100
1, 187680, Note_on_c, 0, 61, 100
1, 187680, Note_on_c, 2, 52, 100
1, 187680, Note_on_c, 2, 57, 100
1, 187680, Note_on_c, 2, 61, 100
1, 187680, Note_on_c, 4, 83, 119
1, 187680, Note_on_c, 7, 73, 84
1, 187680, Note_on_c, 9, 32, 100
1, 187680, Note_on_c, 9, 36, 127
1, 187680, Note_on_c, 9, 37, 127
1, 187680, Note_on_c, 9, 42, 100
1, 187680, Note_on_c, 13, 83, 119
1, 187680, Pitch_bend_c, 14, 11698
1, 187680, Note_on_c, 14, 96, 122
1, 187740, Note_on_c, 14, 96, 0
1, 187740, Note_on_c, 7, 73, 0
1, 187796, Note_on_c, 9, 42, 0
1, 187800, Note_on_c, 7, 68, 73
1, 187800, Pitch_bend_c, 14, 11675
1, 187800, Note_on_c, 14, 96, 92
1, 187856, Note_on_c, 14, 96, 0
1, 187916, Note_on_c, 7, 68, 0
1, 187916, Note_on_c, 13, 83, 0
1, 187916, Note_on_c, 9, 37, 0
1, 187916, Note_on_c, 9, 36, 0
1, 187916, Note_on_c, 9, 32, 0
1, 187916, Note_on_c, 4, 83, 0
1, 187916, Note_on_c, 2, 61, 0
1, 187916, Note_on_c, 2, 57, 0
1, 187916, Note_on_c, 2, 52, 0
1, 187916, Note_on_c, 0, 61, 0
1, 187916, Note_on_c, 0, 57, 0
1, 187916, Note_on_c, 0, 52, 0
1, 187920, Note_on_c, 0, 52, 100
1, 187920, Note_on_c, 0, 57, 100
1, 187920, Note_on_c, 0, 61, 100
1, 187920, Note_on_c, 1, 33, 100
1, 187920, Note_on_c, 2, 52, 100
1, 187920, Note_on_c, 2, 57, 100
1, 187920, Note_on_c, 2, 61, 100
1, 187920, Note_on_c, 4, 80, 127
1, 187920, Note_on_c, 7, 73, 119
1, 187920, Note_on_c, 9, 42, 100
1, 187920, Note_on_c, 9, 82, 80
1, 187920, Note_on_c, 13, 80, 127
1, 187920, Pitch_bend_c, 14, 11652
1, 187920, Note_on_c, 14, 96, 116
1, 187960, Note_on_c, 9, 82, 0
1, 187976, Note_on_c, 14, 96, 0
1, 187980, Note_on_c, 7, 73, 0
1, 188036, Note_on_c, 9, 42, 0
1, 188040, Note_on_c, 7, 64, 109
1, 188040, Note_on_c, 9, 42, 100
1, 188040, Pitch_bend_c, 14, 11629
1, 188040, Note_on_c, 14, 96, 111
1, 188096, Note_on_c, 14, 96, 0
1, 188100, Note_on_c, 7, 64, 0
1, 188156, Note_on_c, 9, 42, 0
1, 188156, Note_on_c, 13, 80, 0
1, 188156, Note_on_c, 4, 80, 0
1, 188156, Note_on_c, 2, 61, 0
1, 188156, Note_on_c, 2, 57, 0
1, 188156, Note_on_c, 2, 52, 0
1, 188156, Note_on_c, 1, 33, 0
1, 188156, Note_on_c, 0, 61, 0
1, 188156, Note_on_c, 0, 57, 0
1, 188156, Note_on_c, 0, 52, 0
1, 188160, Note_on_c, 0, 56, 100
1, 188160, Note_on_c, 0, 61, 100
1, 188160, Note_on_c, 0, 66, 100
1, 188160, Note_on_c, 2, 56, 100
1, 188160, Note_on_c, 2, 61, 100
1, 188160, Note_on_c, 2, 66, 100
1, 188160, Note_on_c, 4, 78, 127
1, 188160, Note_on_c, 7, 61, 106
1, 188160, Note_on_c, 9, 32, 100
1, 188160, Note_on_c, 9, 42, 100
1, 188160, Note_on_c, 13, 78, 127
1, 188160, Pitch_bend_c, 14, 11606
1, 188160, Note_on_c, 14, 96, 116
1, 188220, Note_on_c, 14, 96, 0
1, 188220, Note_on_c, 7, 61, 0
1, 188276, Note_on_c, 9, 42, 0
1, 188280, Note_on_c, 7, 49, 92
1, 188280, Pitch_bend_c, 14, 11583
1, 188280, Note_on_c, 14, 96, 87
1, 188336, Note_on_c, 7, 49, 0
1, 188340, Note_on_c, 14, 96, 0
1, 188396, Note_on_c, 13, 78, 0
1, 188396, Note_on_c, 9, 32, 0
1, 188396, Note_on_c, 4, 78, 0
1, 188396, Note_on_c, 2, 66, 0
1, 188396, Note_on_c, 2, 61, 0
1, 188396, Note_on_c, 2, 56, 0
1, 188396, Note_on_c, 0, 66, 0
1, 188396, Note_on_c, 0, 61, 0
1, 188396, Note_on_c, 0, 56, 0
1, 188400, Note_on_c, 0, 56, 100
1, 188400, Note_on_c, 0, 61, 100
1, 188400, Note_on_c, 0, 64, 100
1, 188400, Note_on_c, 1, 37, 100
1, 188400, Note_on_c, 2, 56, 100
1, 188400, Note_on_c, 2, 61, 100
1, 188400, Note_on_c, 2, 64, 100
1, 188400, Note_on_c, 4, 76, 118
1, 188400, Note_on_c, 7, 61, 106
1, 188400, Note_on_c, 9, 42, 100
1, 188400, Note_on_c, 9, 82, 80
1, 188400, Note_on_c, 13, 76, 118
1, 188400, Pitch_bend_c, 14, 11560
1, 188400, Note_on_c, 14, 96, 111
1, 188432, Note_on_c, 9, 82, 0
1, 188456, Note_on_c, 14, 96, 0
1, 188460, Note_on_c, 7, 61, 0
1, 188516, Note_on_c, 9, 42, 0
1, 188520, Note_on_c, 7, 68, 127
1, 188520, Note_on_c, 9, 42, 100
1, 188520, Pitch_bend_c, 14, 11538
1, 188520, Note_on_c, 14, 96, 92
1, 188576, Note_on_c, 7, 68, 0
1, 188580, Note_on_c, 14, 96, 0
1, 188636, Note_on_c, 9, 42, 0
1, 188636, Note_on_c, 13, 76, 0
1, 188636, Note_on_c, 4, 76, 0
1, 188636, Note_on_c, 2, 64, 0
1, 188636, Note_on_c, 2, 61, 0
1, 188636, Note_on_c, 2, 56, 0
1, 188636, Note_on_c, 1, 37, 0
1, 188636, Note_on_c, 0, 64, 0
1, 188636, Note_on_c, 0, 61, 0
1, 188636, Note_on_c, 0, 56, 0
1, 188640, Note_on_c, 0, 56, 100
1, 188640, Note_on_c, 0, 61, 100
1, 188640, Note_on_c, 0, 64, 100
1, 188640, Note_on_c, 2, 56, 100
1, 188640, Note_on_c, 2, 61, 100
1, 188640, Note_on_c, 2, 64, 100
1, 188640, Note_on_c, 4, 76, 119
1, 188640, Note_on_c, 7, 56, 92
1, 188640, Note_on_c, 9, 32, 100
1, 188640, Note_on_c, 9, 37, 127
1, 188640, Note_on_c, 9, 42, 100
1, 188640, Note_on_c, 13, 76, 119
1, 188640, Pitch_bend_c, 14, 11515
1, 188640, Note_on_c, 14, 96, 105
1, 188696, Note_on_c, 14, 96, 0
1, 188696, Note_on_c, 7, 56, 0
1, 188756, Note_on_c, 9, 42, 0
1, 188760, Note_on_c, 7, 61, 109
1, 188760, Pitch_bend_c, 14, 11492
1, 188760, Note_on_c, 14, 96, 91
1, 188820, Note_on_c, 14, 96, 0
1, 188820, Note_on_c, 7, 61, 0
1, 188876, Note_on_c, 13, 76, 0
1, 188876, Note_on_c, 9, 37, 0
1, 188876, Note_on_c, 9, 32, 0
1, 188876, Note_on_c, 4, 76, 0
1, 188876, Note_on_c, 2, 64, 0
1, 188876, Note_on_c, 2, 61, 0
1, 188876, Note_on_c, 2, 56, 0
1, 188876, Note_on_c, 0, 64, 0
1, 188876, Note_on_c, 0, 61, 0
1, 188876, Note_on_c, 0, 56, 0
1, 188880, Note_on_c, 7, 68, 127
1, 188880, Note_on_c, 9, 42, 100
1, 188880, Note_on_c, 9, 82, 80
1, 188880, Pitch_bend_c, 14, 11469
1, 188880, Note_on_c, 14, 96, 113
1, 188916, Note_on_c, 9, 82, 0
1, 188936, Note_on_c, 14, 96, 0
1, 188940, Note_on_c, 7, 68, 0
1, 188996, Note_on_c, 9, 42, 0
1, 189000, Note_on_c, 7, 73, 100
1, 189000, Note_on_c, 9, 42, 100
1, 189000, Pitch_bend_c, 14, 11446
1, 189000, Note_on_c, 14, 96, 101
1, 189056, Note_on_c, 14, 96, 0
1, 189116, Note_on_c, 9, 42, 0
1, 189116, Note_on_c, 7, 73, 0
1, 189120, Note_on_c, 0, 56, 100
1, 189120, Note_on_c, 0, 59, 100
1, 189120, Note_on_c, 0, 64, 100
1, 189120, Note_on_c, 2, 56, 100
1, 189120, Note_on_c, 2, 59, 100
1, 189120, Note_on_c, 2, 64, 100
1, 189120, Note_on_c, 4, 76, 125
1, 189120, Note_on_c, 7, 73, 127
1, 189120, Note_on_c, 9, 32, 100
1, 189120, Note_on_c, 9, 42, 100
1, 189120, Note_on_c, 13, 76, 125
1, 189120, Pitch_bend_c, 14, 11423
1, 189120, Note_on_c, 14, 96, 119
1, 189176, Note_on_c, 14, 96, 0
1, 189176, Note_on_c, 7, 73, 0
1, 189236, Note_on_c, 9, 42, 0
1, 189240, Note_on_c, 7, 68, 59
1, 189240, Pitch_bend_c, 14, 11400
1, 189240, Note_on_c, 14, 96, 91
1, 189296, Note_on_c, 7, 68, 0
1, 189300, Note_on_c, 14, 96, 0
1, 189356, Note_on_c, 13, 76, 0
1, 189356, Note_on_c, 9, 32, 0
1, 189356, Note_on_c, 4, 76, 0
1, 189356, Note_on_c, 2, 64, 0
1, 189356, Note_on_c, 2, 59, 0
1, 189356, Note_on_c, 2, 56, 0
1, 189356, Note_on_c, 0, 64, 0
1, 189356, Note_on_c, 0, 59, 0
1, 189356, Note_on_c, 0, 56, 0
1, 189360, Note_on_c, 0, 56, 100
1, 189360, Note_on_c, 0, 59, 100
1, 189360, Note_on_c, 0, 64, 100
1, 189360, Note_on_c, 1, 40, 100
1, 189360, Note_on_c, 2, 56, 100
1, 189360, Note_on_c, 2, 59, 100
1, 189360, Note_on_c, 2, 64, 100
1, 189360, Note_on_c, 4, 76, 119
1, 189360, Note_on_c, 7, 73, 78
1, 189360, Note_on_c, 9, 42, 100
1, 189360, Note_on_c, 9, 82, 80
1, 189360, Note_on_c, 13, 76, 119
1, 189360, Pitch_bend_c, 14, 11377
1, 189360, Note_on_c, 14, 96, 119
1, 189408, Note_on_c, 9, 82, 0
1, 189416, Note_on_c, 7, 73, 0
1, 189420, Note_on_c, 14, 96, 0
1, 189476, Note_on_c, 9, 42, 0
1, 189480, Note_on_c, 7, 81, 125
1, 189480, Note_on_c, 9, 42, 100
1, 189480, Pitch_bend_c, 14, 11354
1, 189480, Note_on_c, 14, 96, 94
1, 189540, Note_on_c, 14, 96, 0
1, 189596, Note_on_c, 9, 42, 0
1, 189596, Note_on_c, 7, 81, 0
1, 189596, Note_on_c, 13, 76, 0
1, 189596, Note_on_c, 4, 76, 0
1, 189596, Note_on_c, 2, 64, 0
1, 189596, Note_on_c, 2, 59, 0
1, 189596, Note_on_c, 2, 56, 0
1, 189596, Note_on_c, 1, 40, 0
1, 189596, Note_on_c, 0, 64, 0
1, 189596, Note_on_c, 0, 59, 0
1, 189596, Note_on_c, 0, 56, 0
1, 189600, Note_on_c, 0, 56, 100
1, 189600, Note_on_c, 0, 59, 100
1, 189600, Note_on_c, 0, 64, 100
1, 189600, Note_on_c, 2, 56, 100
1, 189600, Note_on_c, 2, 59, 100
1, 189600, Note_on_c, 2, 64, 100
1, 189600, Note_on_c, 4, 76, 118
1, 189600, Note_on_c, 7, 73, 84
1, 189600, Note_on_c, 9, 32, 100
1, 189600, Note_on_c, 9, 37, 127
1, 189600, Note_on_c, 9, 42, 100
1, 189600, Note_on_c, 13, 76, 118
1, 189600, Pitch_bend_c, 14, 11331
1, 189600, Note_on_c, 14, 96, 116
1, 189660, Note_on_c, 14, 96, 0
1, 189660, Note_on_c, 7, 73, 0
1, 189716, Note_on_c, 9, 42, 0
1, 189720, Note_on_c, 7, 68, 73
1, 189720, Pitch_bend_c, 14, 11308
1, 189720, Note_on_c, 14, 96, 94
1, 189776, Note_on_c, 14, 96, 0
1, 189836, Note_on_c, 7, 68, 0
1, 189836, Note_on_c, 13, 76, 0
1, 189836, Note_on_c, 9, 37, 0
1, 189836, Note_on_c, 9, 32, 0
1, 189836, Note_on_c, 4, 76, 0
1, 189836, Note_on_c, 2, 64, 0
1, 189836, Note_on_c, 2, 59, 0
1, 189836, Note_on_c, 2, 56, 0
1, 189836, Note_on_c, 0, 64, 0
1, 189836, Note_on_c, 0, 59, 0
1, 189836, Note_on_c, 0, 56, 0
1, 189840, Note_on_c, 0, 56, 100
1, 189840, Note_on_c, 0, 59, 100
1, 189840, Note_on_c, 0, 64, 100
1, 189840, Note_on_c, 1, 40, 100
1, 189840, Note_on_c, 2, 56, 100
1, 189840, Note_on_c, 2, 59, 100
1, 189840, Note_on_c, 2, 64, 100
1, 189840, Note_on_c, 4, 76, 116
1, 189840, Note_on_c, 7, 73, 119
1, 189840, Note_on_c, 9, 42, 100
1, 189840, Note_on_c, 9, 82, 80
1, 189840, Note_on_c, 13, 76, 116
1, 189840, Pitch_bend_c, 14, 11285
1, 189840, Note_on_c, 14, 96, 107
1, 189892, Note_on_c, 9, 82, 0
1, 189900, Note_on_c, 14, 96, 0
1, 189900, Note_on_c, 7, 73, 0
1, 189956, Note_on_c, 9, 42, 0
1, 189960, Note_on_c, 7, 64, 109
1, 189960, Note_on_c, 9, 42, 100
1, 189960, Pitch_bend_c, 14, 11262
1, 189960, Note_on_c, 14, 96, 97
1, 190016, Note_on_c, 14, 96, 0
1, 190020, Note_on_c, 7, 64, 0
1, 190076, Note_on_c, 9, 42, 0
1, 190076, Note_on_c, 13, 76, 0
1, 190076, Note_on_c, 4, 76, 0
1, 190076, Note_on_c, 2, 64, 0
1, 190076, Note_on_c, 2, 59, 0
1, 190076, Note_on_c, 2, 56, 0
1, 190076, Note_on_c, 1, 40, 0
1, 190076, Note_on_c, 0, 64, 0
1, 190076, Note_on_c, 0, 59, 0
1, 190076, Note_on_c, 0, 56, 0
1, 190080, Note_on_c, 0, 54, 100
1, 190080, Note_on_c, 0, 59, 100
1, 190080, Note_on_c, 0, 63, 100
1, 190080, Note_on_c, 2, 54, 100
1, 190080, Note_on_c, 2, 59, 100
1, 190080, Note_on_c, 2, 63, 100
1, 190080, Note_on_c, 4, 75, 119
1, 190080, Note_on_c, 7, 61, 106
1, 190080, Note_on_c, 9, 32, 100
1, 190080, Note_on_c, 9, 42, 100
1, 190080, Note_on_c, 13, 75, 119
1, 190080, Pitch_bend_c, 14, 11239
1, 190080, Note_on_c, 14, 96, 116
1, 190136, Note_on_c, 14, 96, 0
1, 190140, Note_on_c, 7, 61, 0
1, 190196, Note_on_c, 9, 42, 0
1, 190200, Note_on_c, 7, 49, 92
1, 190200, Pitch_bend_c, 14, 11216
1, 190200, Note_on_c, 14, 96, 98
1, 190256, Note_on_c, 7, 49, 0
1, 190260, Note_on_c, 14, 96, 0
1, 190316, Note_on_c, 13, 75, 0
1, 190316, Note_on_c, 9, 32, 0
1, 190316, Note_on_c, 4, 75, 0
1, 190316, Note_on_c, 2, 63, 0
1, 190316, Note_on_c, 2, 59, 0
1, 190316, Note_on_c, 2, 54, 0
1, 190316, Note_on_c, 0, 63, 0
1, 190316, Note_on_c, 0, 59, 0
1, 190316, Note_on_c, 0, 54, 0
1, 190320, Note_on_c, 0, 54, 100
1, 190320, Note_on_c, 0, 59, 100
1, 190320, Note_on_c, 0, 63, 100
1, 190320, Note_on_c, 1, 35, 100
1, 190320, Note_on_c, 2, 54, 100
1, 190320, Note_on_c, 2, 59, 100
1, 190320, Note_on_c, 2, 63, 100
1, 190320, Note_on_c, 4, 75, 119
1, 190320, Note_on_c, 7, 61, 106
1, 190320, Note_on_c, 9, 42, 100
1, 190320, Note_on_c, 9, 82, 80
1, 190320, Note_on_c, 13, 75, 119
1, 190320, Pitch_bend_c, 14, 11194
1, 190320, Note_on_c, 14, 96, 109
1, 190372, Note_on_c, 9, 82, 0
1, 190376, Note_on_c, 14, 96, 0
1, 190380, Note_on_c, 7, 61, 0
1, 190436, Note_on_c, 9, 42, 0
1, 190440, Note_on_c, 7, 68, 127
1, 190440, Note_on_c, 9, 42, 100
1, 190440, Pitch_bend_c, 14, 11171
1, 190440, Note_on_c, 14, 96, 95
1, 190496, Note_on_c, 14, 96, 0
1, 190496, Note_on_c, 7, 68, 0
1, 190556, Note_on_c, 9, 42, 0
1, 190556, Note_on_c, 13, 75, 0
1, 190556, Note_on_c, 4, 75, 0
1, 190556, Note_on_c, 2, 63, 0
1, 190556, Note_on_c, 2, 59, 0
1, 190556, Note_on_c, 2, 54, 0
1, 190556, Note_on_c, 1, 35, 0
1, 190556, Note_on_c, 0, 63, 0
1, 190556, Note_on_c, 0, 59, 0
1, 190556, Note_on_c, 0, 54, 0
1, 190560, Note_on_c, 0, 54, 100
1, 190560, Note_on_c, 0, 59, 100
1, 190560, Note_on_c, 0, 63, 100
1, 190560, Note_on_c, 2, 54, 100
1, 190560, Note_on_c, 2, 59, 100
1, 190560, Note_on_c, 2, 63, 100
1, 190560, Note_on_c, 4, 76, 113
1, 190560, Note_on_c, 7, 56, 92
1, 190560, Note_on_c, 9, 32, 100
1, 190560, Note_on_c, 9, 37, 127
1, 190560, Note_on_c, 9, 42, 100
1, 190560, Note_on_c, 13, 76, 113
1, 190560, Pitch_bend_c, 14, 11148
1, 190560, Note_on_c, 14, 96, 111
1, 190616, Note_on_c, 14, 96, 0
1, 190616, Note_on_c, 7, 56, 0
1, 190676, Note_on_c, 9, 42, 0
1, 190680, Note_on_c, 7, 61, 109
1, 190680, Pitch_bend_c, 14, 11125
1, 190680, Note_on_c, 14, 96, 95
1, 190736, Note_on_c, 14, 96, 0
1, 190740, Note_on_c, 7, 61, 0
1, 190796, Note_on_c, 13, 76, 0
1, 190796, Note_on_c, 9, 37, 0
1, 190796, Note_on_c, 9, 32, 0
1, 190796, Note_on_c, 4, 76, 0
1, 190796, Note_on_c, 2, 63, 0
1, 190796, Note_on_c, 2, 59, 0
1, 190796, Note_on_c, 2, 54, 0
1, 190796, Note_on_c, 0, 63, 0
1, 190796, Note_on_c, 0, 59, 0
1, 190796, Note_on_c, 0, 54, 0
1, 190800, Note_on_c, 0, 52, 100
1, 190800, Note_on_c, 0, 57, 100
1, 190800, Note_on_c, 0, 61, 100
1, 190800, Note_on_c, 1, 33, 100
1, 190800, Note_on_c, 2, 52, 100
1, 190800, Note_on_c, 2, 57, 100
1, 190800, Note_on_c, 2, 61, 100
1, 190800, Note_on_c, 4, 76, 111
1, 190800, Note_on_c, 7, 68, 127
1, 190800, Note_on_c, 9, 29, 100
1, 190800, Note_on_c, 9, 42, 100
1, 190800, Note_on_c, 9, 82, 80
1, 190800, Note_on_c, 13, 76, 111
1, 190800, Pitch_bend_c, 14, 11102
1, 190800, Note_on_c, 14, 96, 111
1, 190856, Note_on_c, 9, 82, 0
1, 190860, Note_on_c, 14, 96, 0
1, 190860, Note_on_c, 7, 68, 0
1, 190916, Note_on_c, 9, 42, 0
1, 190920, Note_on_c, 7, 73, 100
1, 190920, Note_on_c, 9, 42, 100
1, 190920, Pitch_bend_c, 14, 11079
1, 190920, Note_on_c, 14, 96, 95
1, 190980, Note_on_c, 14, 96, 0
1, 191036, Note_on_c, 9, 42, 0
1, 191036, Note_on_c, 7, 73, 0
1, 191036, Note_on_c, 13, 76, 0
1, 191036, Note_on_c, 9, 29, 0
1, 191036, Note_on_c, 4, 76, 0
1, 191036, Note_on_c, 2, 61, 0
1, 191036, Note_on_c, 2, 57, 0
1, 191036, Note_on_c, 2, 52, 0
1, 191036, Note_on_c, 1, 33, 0
1, 191036, Note_on_c, 0, 61, 0
1, 191036, Note_on_c, 0, 57, 0
1, 191036, Note_on_c, 0, 52, 0
1, 191040, Note_on_c, 7, 73, 127
1, 191040, Note_on_c, 9, 32, 100
1, 191040, Note_on_c, 9, 42, 100
1, 191040, Pitch_bend_c, 14, 11056
1, 191040, Note_on_c, 14, 96, 116
1, 191096, Note_on_c, 14, 96, 0
1, 191096, Note_on_c, 7, 73, 0
1, 191156, Note_on_c, 9, 42, 0
1, 191160, Note_on_c, 7, 68, 59
1, 191160, Note_on_c, 9, 70, 80
1, 191160, Pitch_bend_c, 14, 11033
1, 191160, Note_on_c, 14, 96, 90
1, 191216, Note_on_c, 14, 96, 0
1, 191216, Note_on_c, 7, 68, 0
1, 191276, Note_on_c, 9, 32, 0
1, 191280, Note_on_c, 0, 52, 100
1, 191280, Note_on_c, 0, 57, 100
1, 191280, Note_on_c, 0, 61, 100
1, 191280, Note_on_c, 1, 33, 100
1, 191280, Note_on_c, 2, 52, 100
1, 191280, Note_on_c, 2, 57, 100
1, 191280, Note_on_c, 2, 61, 100
1, 191280, Note_on_c, 4, 85, 127
1, 191280, Note_on_c, 7, 73, 78
1, 191280, Note_on_c, 9, 42, 100
1, 191280, Note_on_c, 9, 82, 80
1, 191280, Note_on_c, 13, 85, 127
1, 191280, Pitch_bend_c, 14, 11010
1, 191280, Note_on_c, 14, 96, 109
1, 191320, Note_on_c, 9, 82, 0
1, 191336, Note_on_c, 7, 73, 0
1, 191340, Note_on_c, 14, 96, 0
1, 191396, Note_on_c, 9, 42, 0
1, 191396, Note_on_c, 9, 70, 0
1, 191400, Note_on_c, 7, 81, 125
1, 191400, Note_on_c, 9, 42, 100
1, 191400, Pitch_bend_c, 14, 10987
1, 191400, Note_on_c, 14, 96, 97
1, 191460, Note_on_c, 14, 96, 0
1, 191516, Note_on_c, 9, 42, 0
1, 191516, Note_on_c, 7, 81, 0
1, 191516, Note_on_c, 13, 85, 0
1, 191516, Note_on_c, 4, 85, 0
1, 191516, Note_on_c, 2, 61, 0
1, 191516, Note_on_c, 2, 57, 0
1, 191516, Note_on_c, 2, 52, 0
1, 191516, Note_on_c, 1, 33, 0
1, 191516, Note_on_c, 0, 61, 0
1, 191516, Note_on_c, 0, 57, 0
1, 191516, Note_on_c, 0, 52, 0
1, 191520, Note_on_c, 0, 52, 100
1, 191520, Note_on_c, 0, 57, 100
1, 191520, Note_on_c, 0, 61, 100
1, 191520, Note_on_c, 2, 52, 100
1, 191520, Note_on_c, 2, 57, 100
1, 191520, Note_on_c, 2, 61, 100
1, 191520, Note_on_c, 4, 83, 119
1, 191520, Note_on_c, 7, 73, 84
1, 191520, Note_on_c, 9, 32, 100
1, 191520, Note_on_c, 9, 37, 127
1, 191520, Note_on_c, 9, 42, 100
1, 191520, Note_on_c, 13, 83, 119
1, 191520, Pitch_bend_c, 14, 10964
1, 191520, Note_on_c, 14, 96, 122
1, 191580, Note_on_c, 14, 96, 0
1, 191580, Note_on_c, 7, 73, 0
1, 191636, Note_on_c, 9, 42, 0
1, 191640, Note_on_c, 7, 68, 73
1, 191640, Pitch_bend_c, 14, 10941
1, 191640, Note_on_c, 14, 96, 92
1, 191696, Note_on_c, 14, 96, 0
1, 191756, Note_on_c, 7, 68, 0
1, 191756, Note_on_c, 13, 83, 0
1, 191756, Note_on_c, 9, 37, 0
1, 191756, Note_on_c, 9, 32, 0
1, 191756, Note_on_c, 4, 83, 0
1, 191756, Note_on_c, 2, 61, 0
1, 191756, Note_on_c, 2, 57, 0
1, 191756, Note_on_c, 2, 52, 0
1, 191756, Note_on_c, 0, 61, 0
1, 191756, Note_on_c, 0, 57, 0
1, 191756, Note_on_c, 0, 52, 0
1, 191760, Note_on_c, 0, 52, 100
1, 191760, Note_on_c, 0, 57, 100
1, 191760, Note_on_c, 0, 61, 100
1, 191760, Note_on_c, 1, 33, 100
1, 191760, Note_on_c, 2, 52, 100
1, 191760, Note_on_c, 2, 57, 100
1, 191760, Note_on_c, 2, 61, 100
1, 191760, Note_on_c, 4, 80, 125
1, 191760, Note_on_c, 7, 73, 119
1, 191760, Note_on_c, 9, 42, 100
1, 191760, Note_on_c, 9, 82, 80
1, 191760, Note_on_c, 13, 80, 125
1, 191760, Pitch_bend_c, 14, 10918
1, 191760, Note_on_c, 14, 96, 116
1, 191800, Note_on_c, 9, 82, 0
1, 191816, Note_on_c, 14, 96, 0
1, 191820, Note_on_c, 7, 73, 0
1, 191876, Note_on_c, 9, 42, 0
1, 191880, Note_on_c, 7, 64, 109
1, 191880, Note_on_c, 9, 42, 100
1, 191880, Pitch_bend_c, 14, 10895
1, 191880, Note_on_c, 14, 96, 111
1, 191936, Note_on_c, 14, 96, 0
1, 191940, Note_on_c, 7, 64, 0
1, 191996, Note_on_c, 9, 42, 0
1, 191996, Note_on_c, 13, 80, 0
1, 191996, Note_on_c, 4, 80, 0
1, 191996, Note_on_c, 2, 61, 0
1, 191996, Note_on_c, 2, 57, 0
1, 191996, Note_on_c, 2, 52, 0
1, 191996, Note_on_c, 1, 33, 0
1, 191996, Note_on_c, 0, 61, 0
1, 191996, Note_on_c, 0, 57, 0
1, 191996, Note_on_c, 0, 52, 0
1, 192000, Note_on_c, 0, 56, 100
1, 192000, Note_on_c, 0, 61, 100
1, 192000, Note_on_c, 0, 66, 100
1, 192000, Note_on_c, 2, 56, 100
1, 192000, Note_on_c, 2, 61, 100
1, 192000, Note_on_c, 2, 66, 100
1, 192000, Note_on_c, 4, 78, 127
1, 192000, Note_on_c, 7, 61, 106
1, 192000, Note_on_c, 9, 32, 100
1, 192000, Note_on_c, 9, 42, 100
1, 192000, Note_on_c, 10, 60, 127
1, 192000, Note_on_c, 13, 78, 127
1, 192000, Pitch_bend_c, 14, 10872
1, 192000, Note_on_c, 14, 96, 116
1, 192060, Note_on_c, 14, 96, 0
1, 192060, Note_on_c, 7, 61, 0
1, 192116, Note_on_c, 9, 42, 0
1, 192120, Note_on_c, 7, 49, 92
1, 192120, Pitch_bend_c, 14, 10850
1, 192120, Note_on_c, 14, 96, 87
1, 192176, Note_on_c, 7, 49, 0
1, 192180, Note_on_c, 14, 96, 0
1, 192236, Note_on_c, 13, 78, 0
1, 192236, Note_on_c, 9, 32, 0
1, 192236, Note_on_c, 4, 78, 0
1, 192236, Note_on_c, 2, 66, 0
1, 192236, Note_on_c, 2, 61, 0
1, 192236, Note_on_c, 2, 56, 0
1, 192236, Note_on_c, 0, 66, 0
1, 192236, Note_on_c, 0, 61, 0
1, 192236, Note_on_c, 0, 56, 0
1, 192240, Note_on_c, 0, 56, 100
1, 192240, Note_on_c, 0, 61, 100
1, 192240, Note_on_c, 0, 64, 100
1, 192240, Note_on_c, 1, 37, 100
1, 192240, Note_on_c, 2, 56, 100
1, 192240, Note_on_c, 2, 61, 100
1, 192240, Note_on_c, 2, 64, 100
1, 192240, Note_on_c, 4, 76, 101
1, 192240, Note_on_c, 7, 61, 106
1, 192240, Note_on_c, 9, 42, 100
1, 192240, Note_on_c, 9, 82, 80
1, 192240, Note_on_c, 13, 76, 101
1, 192240, Pitch_bend_c, 14, 10827
1, 192240, Note_on_c, 14, 96, 111
1, 192288, Note_on_c, 9, 82, 0
1, 192296, Note_on_c, 14, 96, 0
1, 192300, Note_on_c, 7, 61, 0
1, 192356, Note_on_c, 9, 42, 0
1, 192360, Note_on_c, 7, 68, 127
1, 192360, Note_on_c, 9, 42, 100
1, 192360, Pitch_bend_c, 14, 10804
1, 192360, Note_on_c, 14, 96, 92
1, 192416, Note_on_c, 7, 68, 0
1, 192420, Note_on_c, 14, 96, 0
1, 192476, Note_on_c, 9, 42, 0
1, 192476, Note_on_c, 13, 76, 0
1, 192476, Note_on_c, 4, 76, 0
1, 192476, Note_on_c, 2, 64, 0
1, 192476, Note_on_c, 2, 61, 0
1, 192476, Note_on_c, 2, 56, 0
1, 192476, Note_on_c, 1, 37, 0
1, 192476, Note_on_c, 0, 64, 0
1, 192476, Note_on_c, 0, 61, 0
1, 192476, Note_on_c, 0, 56, 0
1, 192480, Note_on_c, 0, 56, 100
1, 192480, Note_on_c, 0, 61, 100
1, 192480, Note_on_c, 0, 64, 100
1, 192480, Note_on_c, 2, 56, 100
1, 192480, Note_on_c, 2, 61, 100
1, 192480, Note_on_c, 2, 64, 100
1, 192480, Note_on_c, 4, 76, 116
1, 192480, Note_on_c, 7, 56, 92
1, 192480, Note_on_c, 9, 32, 100
1, 192480, Note_on_c, 9, 37, 127
1, 192480, Note_on_c, 9, 42, 100
1, 192480, Note_on_c, 13, 76, 116
1, 192480, Pitch_bend_c, 14, 10781
1, 192480, Note_on_c, 14, 96, 105
1, 192536, Note_on_c, 14, 96, 0
1, 192536, Note_on_c, 7, 56, 0
1, 192596, Note_on_c, 9, 42, 0
1, 192600, Note_on_c, 7, 61, 109
1, 192600, Pitch_bend_c, 14, 10758
1, 192600, Note_on_c, 14, 96, 91
1, 192660, Note_on_c, 14, 96, 0
1, 192660, Note_on_c, 7, 61, 0
1, 192716, Note_on_c, 13, 76, 0
1, 192716, Note_on_c, 9, 37, 0
1, 192716, Note_on_c, 9, 32, 0
1, 192716, Note_on_c, 4, 76, 0
1, 192716, Note_on_c, 2, 64, 0
1, 192716, Note_on_c, 2, 61, 0
1, 192716, Note_on_c, 2, 56, 0
1, 192716, Note_on_c, 0, 64, 0
1, 192716, Note_on_c, 0, 61, 0
1, 192716, Note_on_c, 0, 56, 0
1, 192720, Note_on_c, 7, 68, 127
1, 192720, Note_on_c, 9, 42, 100
1, 192720, Note_on_c, 9, 82, 80
1, 192720, Pitch_bend_c, 14, 10735
1, 192720, Note_on_c, 14, 96, 113
1, 192772, Note_on_c, 9, 82, 0
1, 192776, Note_on_c, 14, 96, 0
1, 192780, Note_on_c, 7, 68, 0
1, 192836, Note_on_c, 9, 42, 0
1, 192840, Note_on_c, 7, 73, 100
1, 192840, Note_on_c, 9, 42, 100
1, 192840, Pitch_bend_c, 14, 10712
1, 192840, Note_on_c, 14, 96, 101
1, 192896, Note_on_c, 14, 96, 0
1, 192956, Note_on_c, 9, 42, 0
1, 192956, Note_on_c, 7, 73, 0
1, 192960, Note_on_c, 0, 56, 100
1, 192960, Note_on_c, 0, 59, 100
1, 192960, Note_on_c, 0, 64, 100
1, 192960, Note_on_c, 2, 56, 100
1, 192960, Note_on_c, 2, 59, 100
1, 192960, Note_on_c, 2, 64, 100
1, 192960, Note_on_c, 4, 76, 119
1, 192960, Note_on_c, 7, 73, 127
1, 192960, Note_on_c, 9, 32, 100
1, 192960, Note_on_c, 9, 42, 100
1, 192960, Note_on_c, 13, 76, 119
1, 192960, Pitch_bend_c, 14, 10689
1, 192960, Note_on_c, 14, 96, 119
1, 193016, Note_on_c, 14, 96, 0
1, 193016, Note_on_c, 7, 73, 0
1, 193076, Note_on_c, 9, 42, 0
1, 193080, Note_on_c, 7, 68, 59
1, 193080, Pitch_bend_c, 14, 10666
1, 193080, Note_on_c, 14, 96, 91
1, 193136, Note_on_c, 7, 68, 0
1, 193140, Note_on_c, 14, 96, 0
1, 193196, Note_on_c, 13, 76, 0
1, 193196, Note_on_c, 9, 32, 0
1, 193196, Note_on_c, 4, 76, 0
1, 193196, Note_on_c, 2, 64, 0
1, 193196, Note_on_c, 2, 59, 0
1, 193196, Note_on_c, 2, 56, 0
1, 193196, Note_on_c, 0, 64, 0
1, 193196, Note_on_c, 0, 59, 0
1, 193196, Note_on_c, 0, 56, 0
1, 193200, Note_on_c, 0, 56, 100
1, 193200, Note_on_c, 0, 59, 100
1, 193200, Note_on_c, 0, 64, 100
1, 193200, Note_on_c, 1, 40, 100
1, 193200, Note_on_c, 2, 56, 100
1, 193200, Note_on_c, 2, 59, 100
1, 193200, Note_on_c, 2, 64, 100
1, 193200, Note_on_c, 4, 76, 111
1, 193200, Note_on_c, 7, 73, 78
1, 193200, Note_on_c, 9, 42, 100
1, 193200, Note_on_c, 9, 82, 80
1, 193200, Note_on_c, 13, 76, 111
1, 193200, Pitch_bend_c, 14, 10643
1, 193200, Note_on_c, 14, 96, 119
1, 193248, Note_on_c, 9, 82, 0
1, 193256, Note_on_c, 7, 73, 0
1, 193260, Note_on_c, 14, 96, 0
1, 193316, Note_on_c, 9, 42, 0
1, 193320, Note_on_c, 7, 81, 125
1, 193320, Note_on_c, 9, 42, 100
1, 193320, Pitch_bend_c, 14, 10620
1, 193320, Note_on_c, 14, 96, 94
1, 193380, Note_on_c, 14, 96, 0
1, 193436, Note_on_c, 9, 42, 0
1, 193436, Note_on_c, 7, 81, 0
1, 193436, Note_on_c, 13, 76, 0
1, 193436, Note_on_c, 4, 76, 0
1, 193436, Note_on_c, 2, 64, 0
1, 193436, Note_on_c, 2, 59, 0
1, 193436, Note_on_c, 2, 56, 0
1, 193436, Note_on_c, 1, 40, 0
1, 193436, Note_on_c, 0, 64, 0
1, 193436, Note_on_c, 0, 59, 0
1, 193436, Note_on_c, 0, 56, 0
1, 193440, Note_on_c, 0, 56, 100
1, 193440, Note_on_c, 0, 59, 100
1, 193440, Note_on_c, 0, 64, 100
1, 193440, Note_on_c, 2, 56, 100
1, 193440, Note_on_c, 2, 59, 100
1, 193440, Note_on_c, 2, 64, 100
1, 193440, Note_on_c, 4, 76, 109
1, 193440, Note_on_c, 7, 73, 84
1, 193440, Note_on_c, 9, 32, 100
1, 193440, Note_on_c, 9, 37, 127
1, 193440, Note_on_c, 9, 42, 100
1, 193440, Note_on_c, 13, 76, 109
1, 193440, Pitch_bend_c, 14, 10597
1, 193440, Note_on_c, 14, 96, 116
1, 193500, Note_on_c, 14, 96, 0
1, 193500, Note_on_c, 7, 73, 0
1, 193556, Note_on_c, 9, 42, 0
1, 193560, Note_on_c, 7, 68, 73
1, 193560, Pitch_bend_c, 14, 10574
1, 193560, Note_on_c, 14, 96, 94
1, 193616, Note_on_c, 14, 96, 0
1, 193676, Note_on_c, 7, 68, 0
1, 193676, Note_on_c, 13, 76, 0
1, 193676, Note_on_c, 9, 37, 0
1, 193676, Note_on_c, 9, 32, 0
1, 193676, Note_on_c, 4, 76, 0
1, 193676, Note_on_c, 2, 64, 0
1, 193676, Note_on_c, 2, 59, 0
1, 193676, Note_on_c, 2, 56, 0
1, 193676, Note_on_c, 0, 64, 0
1, 193676, Note_on_c, 0, 59, 0
1, 193676, Note_on_c, 0, 56, 0
1, 193680, Note_on_c, 0, 56, 100
1, 193680, Note_on_c, 0, 59, 100
1, 193680, Note_on_c, 0, 64, 100
1, 193680, Note_on_c, 1, 40, 100
1, 193680, Note_on_c, 2, 56, 100
1, 193680, Note_on_c, 2, 59, 100
1, 193680, Note_on_c, 2, 64, 100
1, 193680, Note_on_c, 4, 76, 87
1, 193680, Note_on_c, 7, 73, 119
1, 193680, Note_on_c, 9, 42, 100
1, 193680, Note_on_c, 9, 82, 80
1, 193680, Note_on_c, 13, 76, 87
1, 193680, Pitch_bend_c, 14, 10551
1, 193680, Note_on_c, 14, 96, 107
1, 193720, Note_on_c, 9, 82, 0
1, 193740, Note_on_c, 14, 96, 0
1, 193740, Note_on_c, 7, 73, 0
1, 193796, Note_on_c, 9, 42, 0
1, 193800, Note_on_c, 7, 64, 109
1, 193800, Note_on_c, 9, 42, 100
1, 193800, Pitch_bend_c, 14, 10528
1, 193800, Note_on_c, 14, 96, 97
1, 193856, Note_on_c, 14, 96, 0
1, 193860, Note_on_c, 7, 64, 0
1, 193916, Note_on_c, 9, 42, 0
1, 193916, Note_on_c, 13, 76, 0
1, 193916, Note_on_c, 4, 76, 0
1, 193916, Note_on_c, 2, 64, 0
1, 193916, Note_on_c, 2, 59, 0
1, 193916, Note_on_c, 2, 56, 0
1, 193916, Note_on_c, 1, 40, 0
1, 193916, Note_on_c, 0, 64, 0
1, 193916, Note_on_c, 0, 59, 0
1, 193916, Note_on_c, 0, 56, 0
1, 193920, Note_on_c, 0, 54, 100
1, 193920, Note_on_c, 0, 59, 100
1, 193920, Note_on_c, 0, 63, 100
1, 193920, Note_on_c, 2, 54, 100
1, 193920, Note_on_c, 2, 59, 100
1, 193920, Note_on_c, 2, 63, 100
1, 193920, Note_on_c, 4, 73, 127
1, 193920, Note_on_c, 7, 61, 106
1, 193920, Note_on_c, 9, 32, 100
1, 193920, Note_on_c, 9, 42, 100
1, 193920, Note_on_c, 13, 73, 127
1, 193920, Pitch_bend_c, 14, 10506
1, 193920, Note_on_c, 14, 96, 116
1, 193976, Note_on_c, 14, 96, 0
1, 193980, Note_on_c, 7, 61, 0
1, 194036, Note_on_c, 9, 42, 0
1, 194040, Note_on_c, 7, 49, 92
1, 194040, Pitch_bend_c, 14, 10483
1, 194040, Note_on_c, 14, 96, 98
1, 194096, Note_on_c, 7, 49, 0
1, 194100, Note_on_c, 14, 96, 0
1, 194156, Note_on_c, 13, 73, 0
1, 194156, Note_on_c, 9, 32, 0
1, 194156, Note_on_c, 4, 73, 0
1, 194156, Note_on_c, 2, 63, 0
1, 194156, Note_on_c, 2, 59, 0
1, 194156, Note_on_c, 2, 54, 0
1, 194156, Note_on_c, 0, 63, 0
1, 194156, Note_on_c, 0, 59, 0
1, 194156, Note_on_c, 0, 54, 0
1, 194160, Note_on_c, 0, 54, 100
1, 194160, Note_on_c, 0, 59, 100
1, 194160, Note_on_c, 0, 63, 100
1, 194160, Note_on_c, 1, 35, 100
1, 194160, Note_on_c, 2, 54, 100
1, 194160, Note_on_c, 2, 59, 100
1, 194160, Note_on_c, 2, 63, 100
1, 194160, Note_on_c, 4, 73, 127
1, 194160, Note_on_c, 7, 61, 106
1, 194160, Note_on_c, 9, 42, 100
1, 194160, Note_on_c, 9, 82, 80
1, 194160, Note_on_c, 13, 73, 127
1, 194160, Pitch_bend_c, 14, 10460
1, 194160, Note_on_c, 14, 96, 109
1, 194204, Note_on_c, 9, 82, 0
1, 194216, Note_on_c, 14, 96, 0
1, 194220, Note_on_c, 7, 61, 0
1, 194276, Note_on_c, 9, 42, 0
1, 194280, Note_on_c, 7, 68, 127
1, 194280, Note_on_c, 9, 42, 100
1, 194280, Pitch_bend_c, 14, 10437
1, 194280, Note_on_c, 14, 96, 95
1, 194336, Note_on_c, 14, 96, 0
1, 194336, Note_on_c, 7, 68, 0
1, 194396, Note_on_c, 9, 42, 0
1, 194396, Note_on_c, 13, 73, 0
1, 194396, Note_on_c, 4, 73, 0
1, 194396, Note_on_c, 2, 63, 0
1, 194396, Note_on_c, 2, 59, 0
1, 194396, Note_on_c, 2, 54, 0
1, 194396, Note_on_c, 1, 35, 0
1, 194396, Note_on_c, 0, 63, 0
1, 194396, Note_on_c, 0, 59, 0
1, 194396, Note_on_c, 0, 54, 0
1, 194400, Note_on_c, 0, 54, 100
1, 194400, Note_on_c, 0, 59, 100
1, 194400, Note_on_c, 0, 63, 100
1, 194400, Note_on_c, 2, 54, 100
1, 194400, Note_on_c, 2, 59, 100
1, 194400, Note_on_c, 2, 63, 100
1, 194400, Note_on_c, 4, 71, 113
1, 194400, Note_on_c, 7, 56, 92
1, 194400, Note_on_c, 9, 32, 100
1, 194400, Note_on_c, 9, 37, 127
1, 194400, Note_on_c, 9, 42, 100
1, 194400, Note_on_c, 13, 71, 113
1, 194400, Pitch_bend_c, 14, 10414
1, 194400, Note_on_c, 14, 96, 111
1, 194456, Note_on_c, 14, 96, 0
1, 194456, Note_on_c, 7, 56, 0
1, 194516, Note_on_c, 9, 42, 0
1, 194520, Note_on_c, 7, 61, 109
1, 194520, Pitch_bend_c, 14, 10391
1, 194520, Note_on_c, 14, 96, 95
1, 194576, Note_on_c, 14, 96, 0
1, 194580, Note_on_c, 7, 61, 0
1, 194636, Note_on_c, 13, 71, 0
1, 194636, Note_on_c, 9, 37, 0
1, 194636, Note_on_c, 9, 32, 0
1, 194636, Note_on_c, 4, 71, 0
1, 194636, Note_on_c, 2, 63, 0
1, 194636, Note_on_c, 2, 59, 0
1, 194636, Note_on_c, 2, 54, 0
1, 194636, Note_on_c, 0, 63, 0
1, 194636, Note_on_c, 0, 59, 0
1, 194636, Note_on_c, 0, 54, 0
1, 194640, Note_on_c, 0, 52, 100
1, 194640, Note_on_c, 0, 57, 100
1, 194640, Note_on_c, 0, 61, 100
1, 194640, Note_on_c, 1, 33, 100
1, 194640, Note_on_c, 2, 52, 100
1, 194640, Note_on_c, 2, 57, 100
1, 194640, Note_on_c, 2, 61, 100
1, 194640, Note_on_c, 4, 71, 122
1, 194640, Note_on_c, 7, 68, 127
1, 194640, Note_on_c, 9, 29, 100
1, 194640, Note_on_c, 9, 42, 100
1, 194640, Note_on_c, 9, 82, 80
1, 194640, Note_on_c, 13, 71, 122
1, 194640, Pitch_bend_c, 14, 10368
1, 194640, Note_on_c, 14, 96, 111
1, 194680, Note_on_c, 9, 82, 0
1, 194700, Note_on_c, 14, 96, 0
1, 194700, Note_on_c, 7, 68, 0
1, 194756, Note_on_c, 9, 42, 0
1, 194760, Note_on_c, 7, 73, 100
1, 194760, Note_on_c, 9, 42, 100
1, 194760, Pitch_bend_c, 14, 10345
1, 194760, Note_on_c, 14, 96, 95
1, 194820, Note_on_c, 14, 96, 0
1, 194876, Note_on_c, 9, 42, 0
1, 194876, Note_on_c, 7, 73, 0
1, 194876, Note_on_c, 13, 71, 0
1, 194876, Note_on_c, 9, 29, 0
1, 194876, Note_on_c, 4, 71, 0
1, 194876, Note_on_c, 2, 61, 0
1, 194876, Note_on_c, 2, 57, 0
1, 194876, Note_on_c, 2, 52, 0
1, 194876, Note_on_c, 1, 33, 0
1, 194876, Note_on_c, 0, 61, 0
1, 194876, Note_on_c, 0, 57, 0
1, 194876, Note_on_c, 0, 52, 0
1, 194880, Note_on_c, 7, 73, 127
1, 194880, Note_on_c, 9, 32, 100
1, 194880, Note_on_c, 9, 42, 100
1, 194880, Pitch_bend_c, 14, 10322
1, 194880, Note_on_c, 14, 96, 116
1, 194936, Note_on_c, 14, 96, 0
1, 194936, Note_on_c, 7, 73, 0
1, 194996, Note_on_c, 9, 42, 0
1, 195000, Note_on_c, 7, 68, 59
1, 195000, Note_on_c, 9, 70, 80
1, 195000, Pitch_bend_c, 14, 10299
1, 195000, Note_on_c, 14, 96, 90
1, 195056, Note_on_c, 14, 96, 0
1, 195056, Note_on_c, 7, 68, 0
1, 195116, Note_on_c, 9, 32, 0
1, 195120, Note_on_c, 0, 52, 100
1, 195120, Note_on_c, 0, 57, 100
1, 195120, Note_on_c, 0, 61, 100
1, 195120, Note_on_c, 1, 33, 100
1, 195120, Note_on_c, 2, 52, 100
1, 195120, Note_on_c, 2, 57, 100
1, 195120, Note_on_c, 2, 61, 100
1, 195120, Note_on_c, 4, 85, 127
1, 195120, Note_on_c, 7, 73, 78
1, 195120, Note_on_c, 9, 42, 100
1, 195120, Note_on_c, 9, 82, 80
1, 195120, Note_on_c, 13, 85, 127
1, 195120, Pitch_bend_c, 14, 10276
1, 195120, Note_on_c, 14, 96, 109
1, 195160, Note_on_c, 9, 82, 0
1, 195176, Note_on_c, 7, 73, 0
1, 195180, Note_on_c, 14, 96, 0
1, 195236, Note_on_c, 9, 42, 0
1, 195236, Note_on_c, 9, 70, 0
1, 195240, Note_on_c, 7, 81, 125
1, 195240, Note_on_c, 9, 42, 100
1, 195240, Pitch_bend_c, 14, 10253
1, 195240, Note_on_c, 14, 96, 97
1, 195300, Note_on_c, 14, 96, 0
1, 195356, Note_on_c, 9, 42, 0
1, 195356, Note_on_c, 7, 81, 0
1, 195356, Note_on_c, 13, 85, 0
1, 195356, Note_on_c, 4, 85, 0
1, 195356, Note_on_c, 2, 61, 0
1, 195356, Note_on_c, 2, 57, 0
1, 195356, Note_on_c, 2, 52, 0
1, 195356, Note_on_c, 1, 33, 0
1, 195356, Note_on_c, 0, 61, 0
1, 195356, Note_on_c, 0, 57, 0
1, 195356, Note_on_c, 0, 52, 0
1, 195360, Note_on_c, 0, 52, 100
1, 195360, Note_on_c, 0, 57, 100
1, 195360, Note_on_c, 0, 61, 100
1, 195360, Note_on_c, 2, 52, 100
1, 195360, Note_on_c, 2, 57, 100
1, 195360, Note_on_c, 2, 61, 100
1, 195360, Note_on_c, 4, 83, 119
1, 195360, Note_on_c, 7, 73, 84
1, 195360, Note_on_c, 9, 32, 100
1, 195360, Note_on_c, 9, 37, 127
1, 195360, Note_on_c, 9, 42, 100
1, 195360, Note_on_c, 13, 83, 119
1, 195360, Pitch_bend_c, 14, 10230
1, 195360, Note_on_c, 14, 96, 122
1, 195420, Note_on_c, 14, 96, 0
1, 195420, Note_on_c, 7, 73, 0
1, 195476, Note_on_c, 9, 42, 0
1, 195480, Note_on_c, 7, 68, 73
1, 195480, Pitch_bend_c, 14, 10207
1, 195480, Note_on_c, 14, 96, 92
1, 195536, Note_on_c, 14, 96, 0
1, 195596, Note_on_c, 7, 68, 0
1, 195596, Note_on_c, 13, 83, 0
1, 195596, Note_on_c, 9, 37, 0
1, 195596, Note_on_c, 9, 32, 0
1, 195596, Note_on_c, 4, 83, 0
1, 195596, Note_on_c, 2, 61, 0
1, 195596, Note_on_c, 2, 57, 0
1, 195596, Note_on_c, 2, 52, 0
1, 195596, Note_on_c, 0, 61, 0
1, 195596, Note_on_c, 0, 57, 0
1, 195596, Note_on_c, 0, 52, 0
1, 195600, Note_on_c, 0, 52, 100
1, 195600, Note_on_c, 0, 57, 100
1, 195600, Note_on_c, 0, 61, 100
1, 195600, Note_on_c, 1, 33, 100
1, 195600, Note_on_c, 2, 52, 100
1, 195600, Note_on_c, 2, 57, 100
1, 195600, Note_on_c, 2, 61, 100
1, 195600, Note_on_c, 4, 80, 127
1, 195600, Note_on_c, 7, 73, 119
1, 195600, Note_on_c, 9, 42, 100
1, 195600, Note_on_c, 9, 82, 80
1, 195600, Note_on_c, 13, 80, 127
1, 195600, Pitch_bend_c, 14, 10185
1, 195600, Note_on_c, 14, 96, 116
1, 195640, Note_on_c, 9, 82, 0
1, 195656, Note_on_c, 14, 96, 0
1, 195660, Note_on_c, 7, 73, 0
1, 195716, Note_on_c, 9, 42, 0
1, 195720, Note_on_c, 7, 64, 109
1, 195720, Note_on_c, 9, 42, 100
1, 195720, Note_on_c, 14, 96, 111
1, 195776, Note_on_c, 14, 96, 0
1, 195780, Note_on_c, 7, 64, 0
1, 195836, Note_on_c, 9, 42, 0
1, 195836, Note_on_c, 13, 80, 0
1, 195836, Note_on_c, 4, 80, 0
1, 195836, Note_on_c, 2, 61, 0
1, 195836, Note_on_c, 2, 57, 0
1, 195836, Note_on_c, 2, 52, 0
1, 195836, Note_on_c, 1, 33, 0
1, 195836, Note_on_c, 0, 61, 0
1, 195836, Note_on_c, 0, 57, 0
1, 195836, Note_on_c, 0, 52, 0
1, 195836, Note_on_c, 10, 60, 0
1, 195840, Note_on_c, 9, 32, 100
1, 195840, Note_on_c, 10, 72, 127
1, 195840, Note_on_c, 10, 84, 127
1, 195852, Control_c, 2, 11, 125
1, 195868, Control_c, 9, 11, 125
1, 195884, Control_c, 4, 11, 124
1, 195920, Control_c, 0, 11, 126
1, 195920, Control_c, 2, 11, 124
1, 195920, Control_c, 9, 11, 124
1, 195952, Control_c, 4, 11, 123
1, 195952, Control_c, 13, 11, 126
1, 195956, Note_on_c, 9, 32, 0
1, 195972, Control_c, 0, 11, 125
1, 195972, Control_c, 2, 11, 123
1, 195972, Control_c, 9, 11, 123
1, 196004, Control_c, 4, 11, 122
1, 196004, Control_c, 13, 11, 125
1, 196020, Control_c, 0, 11, 124
1, 196020, Control_c, 2, 11, 122
1, 196020, Control_c, 9, 11, 122
1, 196056, Control_c, 4, 11, 121
1, 196056, Control_c, 13, 11, 124
1, 196072, Control_c, 0, 11, 123
1, 196072, Control_c, 2, 11, 121
1, 196072, Control_c, 9, 11, 121
1, 196080, Note_on_c, 0, 52, 100
1, 196080, Note_on_c, 0, 57, 100
1, 196080, Note_on_c, 0, 61, 100
1, 196080, Note_on_c, 2, 52, 100
1, 196080, Note_on_c, 2, 57, 100
1, 196080, Note_on_c, 2, 61, 100
1, 196080, Note_on_c, 4, 68, 100
1, 196080, Note_on_c, 13, 68, 100
1, 196108, Control_c, 4, 11, 120
1, 196108, Control_c, 13, 11, 123
1, 196124, Control_c, 0, 11, 122
1, 196124, Control_c, 2, 11, 120
1, 196124, Control_c, 9, 11, 120
1, 196160, Control_c, 4, 11, 119
1, 196160, Control_c, 13, 11, 122
1, 196176, Control_c, 0, 11, 121
1, 196176, Control_c, 2, 11, 119
1, 196176, Control_c, 9, 11, 119
1, 196212, Control_c, 13, 11, 121
1, 196228, Control_c, 0, 11, 120
1, 196228, Control_c, 4, 11, 118
1, 196228, Control_c, 9, 11, 118
1, 196244, Control_c, 2, 11, 118
1, 196260, Control_c, 13, 11, 120
1, 196280, Control_c, 0, 11, 119
1, 196280, Control_c, 4, 11, 117
1, 196280, Control_c, 9, 11, 117
1, 196296, Control_c, 2, 11, 117
1, 196316, Note_on_c, 13, 68, 0
1, 196316, Note_on_c, 4, 68, 0
1, 196316, Note_on_c, 2, 61, 0
1, 196316, Note_on_c, 2, 57, 0
1, 196316, Note_on_c, 2, 52, 0
1, 196316, Note_on_c, 0, 61, 0
1, 196316, Note_on_c, 0, 57, 0
1, 196316, Note_on_c, 0, 52, 0
1, 196320, Note_on_c, 9, 32, 100
1, 196332, Control_c, 0, 11, 118
1, 196332, Control_c, 4, 11, 116
1, 196332, Control_c, 9, 11, 116
1, 196332, Control_c, 13, 11, 119
1, 196348, Control_c, 2, 11, 116
1, 196380, Control_c, 0, 11, 117
1, 196380, Control_c, 4, 11, 115
1, 196380, Control_c, 9, 11, 115
1, 196380, Control_c, 13, 11, 118
1, 196400, Control_c, 2, 11, 115
1, 196432, Control_c, 0, 11, 116
1, 196432, Control_c, 4, 11, 114
1, 196432, Control_c, 9, 11, 114
1, 196432, Control_c, 13, 11, 117
1, 196436, Note_on_c, 9, 32, 0
1, 196452, Control_c, 2, 11, 114
1, 196484, Control_c, 0, 11, 115
1, 196484, Control_c, 4, 11, 113
1, 196484, Control_c, 9, 11, 113
1, 196484, Control_c, 13, 11, 116
1, 196500, Control_c, 2, 11, 113
1, 196536, Control_c, 9, 11, 112
1, 196536, Control_c, 13, 11, 115
1, 196552, Control_c, 0, 11, 114
1, 196552, Control_c, 4, 11, 112
1, 196560, Note_on_c, 0, 52, 100
1, 196560, Note_on_c, 0, 57, 100
1, 196560, Note_on_c, 0, 61, 100
1, 196560, Note_on_c, 2, 52, 100
1, 196560, Note_on_c, 2, 57, 100
1, 196560, Note_on_c, 2, 61, 100
1, 196560, Note_on_c, 4, 68, 100
1, 196560, Note_on_c, 13, 68, 100
1, 196572, Control_c, 2, 11, 112
1, 196588, Control_c, 9, 11, 111
1, 196588, Control_c, 13, 11, 114
1, 196604, Control_c, 0, 11, 113
1, 196604, Control_c, 4, 11, 111
1, 196620, Control_c, 2, 11, 111
1, 196640, Control_c, 9, 11, 110
1, 196640, Control_c, 13, 11, 113
1, 196656, Control_c, 0, 11, 112
1, 196656, Control_c, 4, 11, 110
1, 196672, Control_c, 2, 11, 110
1, 196692, Control_c, 9, 11, 109
1, 196708, Control_c, 0, 11, 111
1, 196708, Control_c, 4, 11, 109
1, 196708, Control_c, 13, 11, 112
1, 196724, Control_c, 2, 11, 109
1, 196740, Control_c, 9, 11, 108
1, 196760, Control_c, 0, 11, 110
1, 196760, Control_c, 4, 11, 108
1, 196760, Control_c, 13, 11, 111
1, 196776, Control_c, 2, 11, 108
1, 196792, Control_c, 9, 11, 107
1, 196796, Note_on_c, 13, 68, 0
1, 196796, Note_on_c, 4, 68, 0
1, 196796, Note_on_c, 2, 61, 0
1, 196796, Note_on_c, 2, 57, 0
1, 196796, Note_on_c, 2, 52, 0
1, 196796, Note_on_c, 0, 61, 0
1, 196796, Note_on_c, 0, 57, 0
1, 196796, Note_on_c, 0, 52, 0
1, 196800, Note_on_c, 9, 32, 100
1, 196812, Control_c, 0, 11, 109
1, 196812, Control_c, 4, 11, 107
1, 196812, Control_c, 13, 11, 110
1, 196828, Control_c, 2, 11, 107
1, 196844, Control_c, 9, 11, 106
1, 196860, Control_c, 0, 11, 108
1, 196860, Control_c, 13, 11, 109
1, 196880, Control_c, 2, 11, 106
1, 196880, Control_c, 4, 11, 106
1, 196896, Control_c, 9, 11, 105
1, 196912, Control_c, 0, 11, 107
1, 196912, Control_c, 13, 11, 108
1, 196916, Note_on_c, 9, 32, 0
1, 196932, Control_c, 4, 11, 105
1, 196948, Control_c, 2, 11, 105
1, 196948, Control_c, 9, 11, 104
1, 196964, Control_c, 0, 11, 106
1, 196964, Control_c, 13, 11, 107
1, 196980, Control_c, 4, 11, 104
1, 197000, Control_c, 2, 11, 104
1, 197000, Control_c, 9, 11, 103
1, 197016, Control_c, 0, 11, 105
1, 197016, Control_c, 13, 11, 106
1, 197032, Control_c, 4, 11, 103
1, 197036, Note_on_c, 10, 84, 0
1, 197040, Note_on_c, 0, 52, 100
1, 197040, Note_on_c, 0, 57, 100
1, 197040, Note_on_c, 0, 61, 100
1, 197040, Note_on_c, 2, 52, 100
1, 197040, Note_on_c, 2, 57, 100
1, 197040, Note_on_c, 2, 61, 100
1, 197040, Note_on_c, 4, 68, 100
1, 197040, Note_on_c, 13, 68, 100
1, 197052, Control_c, 2, 11, 103
1, 197052, Control_c, 9, 11, 102
1, 197068, Control_c, 0, 11, 104
1, 197084, Control_c, 4, 11, 102
1, 197084, Control_c, 13, 11, 105
1, 197100, Control_c, 2, 11, 102
1, 197100, Control_c, 9, 11, 101
1, 197120, Control_c, 0, 11, 103
1, 197136, Control_c, 4, 11, 101
1, 197136, Control_c, 13, 11, 104
1, 197152, Control_c, 2, 11, 101
1, 197152, Control_c, 9, 11, 100
1, 197188, Control_c, 0, 11, 102
1, 197188, Control_c, 13, 11, 103
1, 197204, Control_c, 2, 11, 100
1, 197204, Control_c, 4, 11, 100
1, 197204, Control_c, 9, 11, 99
1, 197240, Control_c, 0, 11, 101
1, 197240, Control_c, 13, 11, 102
1, 197256, Control_c, 4, 11, 99
1, 197256, Control_c, 9, 11, 98
1, 197272, Control_c, 2, 11, 99
1, 197276, Note_on_c, 13, 68, 0
1, 197276, Note_on_c, 4, 68, 0
1, 197276, Note_on_c, 2, 61, 0
1, 197276, Note_on_c, 2, 57, 0
1, 197276, Note_on_c, 2, 52, 0
1, 197276, Note_on_c, 0, 61, 0
1, 197276, Note_on_c, 0, 57, 0
1, 197276, Note_on_c, 0, 52, 0
1, 197280, Note_on_c, 9, 32, 100
1, 197292, Control_c, 0, 11, 100
1, 197292, Control_c, 13, 11, 101
1, 197308, Control_c, 4, 11, 98
1, 197308, Control_c, 9, 11, 97
1, 197324, Control_c, 2, 11, 98
1, 197340, Control_c, 0, 11, 99
1, 197340, Control_c, 13, 11, 100
1, 197360, Control_c, 4, 11, 97
1, 197360, Control_c, 9, 11, 96
1, 197376, Control_c, 2, 11, 97
1, 197392, Control_c, 0, 11, 98
1, 197392, Control_c, 13, 11, 99
1, 197396, Note_on_c, 9, 32, 0
1, 197412, Control_c, 4, 11, 96
1, 197412, Control_c, 9, 11, 95
1, 197428, Control_c, 2, 11, 96
1, 197444, Control_c, 0, 11, 97
1, 197460, Control_c, 4, 11, 95
1, 197460, Control_c, 9, 11, 94
1, 197460, Control_c, 13, 11, 98
1, 197480, Control_c, 2, 11, 95
1, 197496, Control_c, 0, 11, 96
1, 197512, Control_c, 9, 11, 93
1, 197512, Control_c, 13, 11, 97
1, 197520, Note_on_c, 0, 52, 100
1, 197520, Note_on_c, 0, 57, 100
1, 197520, Note_on_c, 0, 61, 100
1, 197520, Note_on_c, 2, 52, 100
1, 197520, Note_on_c, 2, 57, 100
1, 197520, Note_on_c, 2, 61, 100
1, 197520, Note_on_c, 4, 68, 100
1, 197520, Note_on_c, 13, 68, 100
1, 197532, Control_c, 2, 11, 94
1, 197532, Control_c, 4, 11, 94
1, 197548, Control_c, 0, 11, 95
1, 197564, Control_c, 9, 11, 92
1, 197564, Control_c, 13, 11, 96
1, 197580, Control_c, 2, 11, 93
1, 197580, Control_c, 4, 11, 93
1, 197600, Control_c, 0, 11, 94
1, 197616, Control_c, 9, 11, 91
1, 197616, Control_c, 13, 11, 95
1, 197632, Control_c, 4, 11, 92
1, 197652, Control_c, 0, 11, 93
1, 197652, Control_c, 2, 11, 92
1, 197652, Control_c, 9, 11, 90
1, 197668, Control_c, 13, 11, 94
1, 197684, Control_c, 4, 11, 91
1, 197700, Control_c, 0, 11, 92
1, 197700, Control_c, 2, 11, 91
1, 197700, Control_c, 9, 11, 89
1, 197720, Control_c, 13, 11, 93
1, 197736, Control_c, 4, 11, 90
1, 197752, Control_c, 0, 11, 91
1, 197752, Control_c, 2, 11, 90
1, 197752, Control_c, 9, 11, 88
1, 197756, Note_on_c, 13, 68, 0
1, 197756, Note_on_c, 4, 68, 0
1, 197756, Note_on_c, 2, 61, 0
1, 197756, Note_on_c, 2, 57, 0
1, 197756, Note_on_c, 2, 52, 0
1, 197756, Note_on_c, 0, 61, 0
1, 197756, Note_on_c, 0, 57, 0
1, 197756, Note_on_c, 0, 52, 0
1, 197760, Note_on_c, 9, 32, 100
1, 197772, Control_c, 13, 11, 92
1, 197788, Control_c, 4, 11, 89
1, 197804, Control_c, 2, 11, 89
1, 197804, Control_c, 9, 11, 87
1, 197820, Control_c, 0, 11, 90
1, 197840, Control_c, 13, 11, 91
1, 197856, Control_c, 2, 11, 88
1, 197856, Control_c, 4, 11, 88
1, 197856, Control_c, 9, 11, 86
1, 197872, Control_c, 0, 11, 89
1, 197876, Note_on_c, 9, 32, 0
1, 197892, Control_c, 13, 11, 90
1, 197908, Control_c, 2, 11, 87
1, 197908, Control_c, 4, 11, 87
1, 197908, Control_c, 9, 11, 85
1, 197924, Control_c, 0, 11, 88
1, 197940, Control_c, 13, 11, 89
1, 197960, Control_c, 4, 11, 86
1, 197960, Control_c, 9, 11, 84
1, 197976, Control_c, 0, 11, 87
1, 197976, Control_c, 2, 11, 86
1, 197992, Control_c, 13, 11, 88
1, 198000, Note_on_c, 0, 52, 100
1, 198000, Note_on_c, 0, 57, 100
1, 198000, Note_on_c, 0, 61, 100
1, 198000, Note_on_c, 2, 52, 100
1, 198000, Note_on_c, 2, 57, 100
1, 198000, Note_on_c, 2, 61, 100
1, 198000, Note_on_c, 4, 68, 100
1, 198000, Note_on_c, 13, 68, 100
1, 198012, Control_c, 4, 11, 85
1, 198012, Control_c, 9, 11, 83
1, 198028, Control_c, 0, 11, 86
1, 198028, Control_c, 2, 11, 85
1, 198044, Control_c, 13, 11, 87
1, 198060, Control_c, 4, 11, 84
1, 198060, Control_c, 9, 11, 82
1, 198080, Control_c, 0, 11, 85
1, 198080, Control_c, 2, 11, 84
1, 198096, Control_c, 13, 11, 86
1, 198112, Control_c, 4, 11, 83
1, 198112, Control_c, 9, 11, 81
1, 198116, Note_on_c, 13, 68, 0
1, 198116, Note_on_c, 4, 68, 0
1, 198132, Control_c, 0, 11, 84
1, 198132, Control_c, 2, 11, 83
1, 198148, Control_c, 13, 11, 85
1, 198164, Control_c, 9, 11, 80
1, 198180, Control_c, 0, 11, 83
1, 198180, Control_c, 2, 11, 82
1, 198180, Control_c, 4, 11, 82
1, 198216, Control_c, 9, 11, 79
1, 198216, Control_c, 13, 11, 84
1, 198232, Control_c, 0, 11, 82
1, 198232, Control_c, 2, 11, 81
1, 198232, Control_c, 4, 11, 81
1, 198236, Note_on_c, 2, 61, 0
1, 198236, Note_on_c, 2, 57, 0
1, 198236, Note_on_c, 2, 52, 0
1, 198236, Note_on_c, 0, 61, 0
1, 198236, Note_on_c, 0, 57, 0
1, 198236, Note_on_c, 0, 52, 0
1, 198240, Note_on_c, 9, 32, 100
1, 198268, Control_c, 9, 11, 78
1, 198268, Control_c, 13, 11, 83
1, 198284, Control_c, 0, 11, 81
1, 198284, Control_c, 4, 11, 80
1, 198300, Control_c, 2, 11, 80
1, 198320, Control_c, 9, 11, 77
1, 198320, Control_c, 13, 11, 82
1, 198336, Control_c, 0, 11, 80
1, 198336, Control_c, 4, 11, 79
1, 198352, Control_c, 2, 11, 79
1, 198356, Note_on_c, 9, 32, 0
1, 198372, Control_c, 9, 11, 76
1, 198372, Control_c, 13, 11, 81
1, 198388, Control_c, 0, 11, 79
1, 198388, Control_c, 4, 11, 78
1, 198404, Control_c, 2, 11, 78
1, 198420, Control_c, 9, 11, 75
1, 198420, Control_c, 13, 11, 80
1, 198440, Control_c, 4, 11, 77
1, 198456, Control_c, 0, 11, 78
1, 198456, Control_c, 2, 11, 77
1, 198472, Control_c, 9, 11, 74
1, 198472, Control_c, 13, 11, 79
1, 198480, Note_on_c, 0, 52, 100
1, 198480, Note_on_c, 0, 57, 100
1, 198480, Note_on_c, 0, 61, 100
1, 198480, Note_on_c, 2, 52, 100
1, 198480, Note_on_c, 2, 57, 100
1, 198480, Note_on_c, 2, 61, 100
1, 198480, Note_on_c, 4, 68, 100
1, 198480, Note_on_c, 13, 68, 100
1, 198508, Control_c, 0, 11, 77
1, 198508, Control_c, 2, 11, 76
1, 198508, Control_c, 4, 11, 76
1, 198524, Control_c, 9, 11, 73
1, 198524, Control_c, 13, 11, 78
1, 198560, Control_c, 0, 11, 76
1, 198560, Control_c, 2, 11, 75
1, 198560, Control_c, 4, 11, 75
1, 198576, Control_c, 9, 11, 72
1, 198592, Control_c, 13, 11, 77
1, 198596, Note_on_c, 13, 68, 0
1, 198596, Note_on_c, 4, 68, 0
1, 198612, Control_c, 0, 11, 75
1, 198612, Control_c, 2, 11, 74
1, 198612, Control_c, 4, 11, 74
1, 198628, Control_c, 9, 11, 71
1, 198644, Control_c, 13, 11, 76
1, 198660, Control_c, 0, 11, 74
1, 198660, Control_c, 4, 11, 73
1, 198680, Control_c, 2, 11, 73
1, 198680, Control_c, 9, 11, 70
1, 198696, Control_c, 13, 11, 75
1, 198712, Control_c, 0, 11, 73
1, 198712, Control_c, 4, 11, 72
1, 198716, Note_on_c, 2, 61, 0
1, 198716, Note_on_c, 2, 57, 0
1, 198716, Note_on_c, 2, 52, 0
1, 198716, Note_on_c, 0, 61, 0
1, 198716, Note_on_c, 0, 57, 0
1, 198716, Note_on_c, 0, 52, 0
1, 198720, Note_on_c, 9, 32, 100
1, 198732, Control_c, 2, 11, 72
1, 198732, Control_c, 9, 11, 69
1, 198748, Control_c, 13, 11, 74
1, 198764, Control_c, 0, 11, 72
1, 198764, Control_c, 4, 11, 71
1, 198780, Control_c, 2, 11, 71
1, 198780, Control_c, 9, 11, 68
1, 198800, Control_c, 13, 11, 73
1, 198816, Control_c, 0, 11, 71
1, 198832, Control_c, 2, 11, 70
1, 198832, Control_c, 4, 11, 70
1, 198832, Control_c, 9, 11, 67
1, 198836, Note_on_c, 9, 32, 0
1, 198852, Control_c, 13, 11, 72
1, 198868, Control_c, 0, 11, 70
1, 198884, Control_c, 2, 11, 69
1, 198884, Control_c, 4, 11, 69
1, 198884, Control_c, 9, 11, 66
1, 198900, Control_c, 13, 11, 71
1, 198920, Control_c, 0, 11, 69
1, 198936, Control_c, 2, 11, 68
1, 198936, Control_c, 4, 11, 68
1, 198936, Control_c, 9, 11, 65
1, 198952, Control_c, 13, 11, 70
1, 198960, Note_on_c, 0, 52, 100
1, 198960, Note_on_c, 0, 57, 100
1, 198960, Note_on_c, 0, 61, 100
1, 198960, Note_on_c, 2, 52, 100
1, 198960, Note_on_c, 2, 57, 100
1, 198960, Note_on_c, 2, 61, 100
1, 198960, Note_on_c, 4, 68, 100
1, 198960, Note_on_c, 13, 68, 100
1, 198972, Control_c, 0, 11, 68
1, 198988, Control_c, 4, 11, 67
1, 198988, Control_c, 9, 11, 64
1, 199004, Control_c, 2, 11, 67
1, 199020, Control_c, 0, 11, 67
1, 199020, Control_c, 13, 11, 69
1, 199040, Control_c, 4, 11, 66
1, 199040, Control_c, 9, 11, 63
1, 199056, Control_c, 2, 11, 66
1, 199072, Control_c, 0, 11, 66
1, 199072, Control_c, 13, 11, 68
1, 199092, Control_c, 9, 11, 62
1, 199108, Control_c, 2, 11, 65
1, 199108, Control_c, 4, 11, 65
1, 199124, Control_c, 13, 11, 67
1, 199140, Control_c, 0, 11, 65
1, 199140, Control_c, 9, 11, 61
1, 199160, Control_c, 2, 11, 64
1, 199160, Control_c, 4, 11, 64
1, 199176, Control_c, 13, 11, 66
1, 199192, Control_c, 0, 11, 64
1, 199192, Control_c, 9, 11, 60
1, 199196, Note_on_c, 13, 68, 0
1, 199196, Note_on_c, 4, 68, 0
1, 199196, Note_on_c, 2, 61, 0
1, 199196, Note_on_c, 2, 57, 0
1, 199196, Note_on_c, 2, 52, 0
1, 199196, Note_on_c, 0, 61, 0
1, 199196, Note_on_c, 0, 57, 0
1, 199196, Note_on_c, 0, 52, 0
1, 199200, Note_on_c, 9, 32, 100
1, 199212, Control_c, 2, 11, 63
1, 199212, Control_c, 4, 11, 63
1, 199228, Control_c, 13, 11, 65
1, 199244, Control_c, 0, 11, 63
1, 199244, Control_c, 9, 11, 59
1, 199260, Control_c, 2, 11, 62
1, 199260, Control_c, 4, 11, 62
1, 199280, Control_c, 13, 11, 64
1, 199296, Control_c, 0, 11, 62
1, 199296, Control_c, 9, 11, 58
1, 199312, Control_c, 2, 11, 61
1, 199312, Control_c, 4, 11, 61
1, 199316, Note_on_c, 9, 32, 0
1, 199332, Control_c, 13, 11, 63
1, 199348, Control_c, 0, 11, 61
1, 199348, Control_c, 9, 11, 57
1, 199364, Control_c, 4, 11, 60
1, 199380, Control_c, 2, 11, 60
1, 199400, Control_c, 0, 11, 60
1, 199400, Control_c, 9, 11, 56
1, 199400, Control_c, 13, 11, 62
1, 199432, Control_c, 2, 11, 59
1, 199432, Control_c, 4, 11, 59
1, 199432, Control_c, 9, 11, 55
1, 199440, Note_on_c, 0, 52, 100
1, 199440, Note_on_c, 0, 57, 100
1, 199440, Note_on_c, 0, 61, 100
1, 199440, Note_on_c, 2, 52, 100
1, 199440, Note_on_c, 2, 57, 100
1, 199440, Note_on_c, 2, 61, 100
1, 199440, Note_on_c, 4, 68, 100
1, 199440, Note_on_c, 13, 68, 100
1, 199452, Control_c, 0, 11, 59
1, 199452, Control_c, 13, 11, 61
1, 199484, Control_c, 2, 11, 58
1, 199484, Control_c, 4, 11, 58
1, 199484, Control_c, 9, 11, 54
1, 199500, Control_c, 0, 11, 58
1, 199500, Control_c, 13, 11, 60
1, 199536, Control_c, 2, 11, 57
1, 199536, Control_c, 4, 11, 57
1, 199536, Control_c, 9, 11, 53
1, 199552, Control_c, 0, 11, 57
1, 199552, Control_c, 13, 11, 59
1, 199556, Note_on_c, 13, 68, 0
1, 199556, Note_on_c, 4, 68, 0
1, 199588, Control_c, 2, 11, 56
1, 199588, Control_c, 4, 11, 56
1, 199588, Control_c, 9, 11, 52
1, 199604, Control_c, 0, 11, 56
1, 199604, Control_c, 13, 11, 58
1, 199640, Control_c, 2, 11, 55
1, 199640, Control_c, 4, 11, 55
1, 199640, Control_c, 9, 11, 51
1, 199656, Control_c, 0, 11, 55
1, 199656, Control_c, 13, 11, 57
1, 199676, Note_on_c, 2, 61, 0
1, 199676, Note_on_c, 2, 57, 0
1, 199676, Note_on_c, 2, 52, 0
1, 199676, Note_on_c, 0, 61, 0
1, 199676, Note_on_c, 0, 57, 0
1, 199676, Note_on_c, 0, 52, 0
1, 199680, Note_on_c, 9, 32, 100
1, 199692, Control_c, 4, 11, 54
1, 199692, Control_c, 9, 11, 50
1, 199708, Control_c, 0, 11, 54
1, 199708, Control_c, 2, 11, 54
1, 199708, Control_c, 13, 11, 56
1, 199740, Control_c, 9, 11, 49
1, 199760, Control_c, 2, 11, 53
1, 199760, Control_c, 4, 11, 53
1, 199776, Control_c, 0, 11, 53
1, 199776, Control_c, 13, 11, 55
1, 199792, Control_c, 9, 11, 48
1, 199796, Note_on_c, 9, 32, 0
1, 199812, Control_c, 2, 11, 52
1, 199812, Control_c, 4, 11, 52
1, 199828, Control_c, 0, 11, 52
1, 199828, Control_c, 13, 11, 54
1, 199844, Control_c, 9, 11, 47
1, 199860, Control_c, 2, 11, 51
1, 199860, Control_c, 4, 11, 51
1, 199880, Control_c, 0, 11, 51
1, 199880, Control_c, 13, 11, 53
1, 199896, Control_c, 9, 11, 46
1, 199912, Control_c, 2, 11, 50
1, 199912, Control_c, 4, 11, 50
1, 199920, Note_on_c, 0, 52, 100
1, 199920, Note_on_c, 0, 57, 100
1, 199920, Note_on_c, 0, 61, 100
1, 199920, Note_on_c, 2, 52, 100
1, 199920, Note_on_c, 2, 57, 100
1, 199920, Note_on_c, 2, 61, 100
1, 199920, Note_on_c, 4, 68, 100
1, 199920, Note_on_c, 13, 68, 100
1, 199932, Control_c, 0, 11, 50
1, 199932, Control_c, 13, 11, 52
1, 199948, Control_c, 9, 11, 45
1, 199964, Control_c, 2, 11, 49
1, 199964, Control_c, 4, 11, 49
1, 199980, Control_c, 0, 11, 49
1, 199980, Control_c, 13, 11, 51
1, 200000, Control_c, 9, 11, 44
1, 200016, Control_c, 4, 11, 48
1, 200032, Control_c, 0, 11, 48
1, 200032, Control_c, 2, 11, 48
1, 200032, Control_c, 13, 11, 50
1, 200052, Control_c, 9, 11, 43
1, 200084, Control_c, 0, 11, 47
1, 200084, Control_c, 2, 11, 47
1, 200084, Control_c, 4, 11, 47
1, 200084, Control_c, 13, 11, 49
1, 200100, Control_c, 9, 11, 42
1, 200136, Control_c, 0, 11, 46
1, 200136, Control_c, 2, 11, 46
1, 200136, Control_c, 4, 11, 46
1, 200152, Control_c, 9, 11, 41
1, 200152, Control_c, 13, 11, 48
1, 200156, Note_on_c, 13, 68, 0
1, 200156, Note_on_c, 4, 68, 0
1, 200156, Note_on_c, 2, 61, 0
1, 200156, Note_on_c, 2, 57, 0
1, 200156, Note_on_c, 2, 52, 0
1, 200156, Note_on_c, 0, 61, 0
1, 200156, Note_on_c, 0, 57, 0
1, 200156, Note_on_c, 0, 52, 0
1, 200160, Note_on_c, 9, 32, 100
1, 200188, Control_c, 0, 11, 45
1, 200188, Control_c, 2, 11, 45
1, 200188, Control_c, 4, 11, 45
1, 200204, Control_c, 9, 11, 40
1, 200204, Control_c, 13, 11, 47
1, 200240, Control_c, 0, 11, 44
1, 200240, Control_c, 2, 11, 44
1, 200240, Control_c, 4, 11, 44
1, 200256, Control_c, 9, 11, 39
1, 200256, Control_c, 13, 11, 46
1, 200276, Note_on_c, 9, 32, 0
1, 200292, Control_c, 0, 11, 43
1, 200292, Control_c, 2, 11, 43
1, 200292, Control_c, 4, 11, 43
1, 200308, Control_c, 9, 11, 38
1, 200308, Control_c, 13, 11, 45
1, 200340, Control_c, 0, 11, 42
1, 200340, Control_c, 2, 11, 42
1, 200340, Control_c, 4, 11, 42
1, 200360, Control_c, 9, 11, 37
1, 200360, Control_c, 13, 11, 44
1, 200400, Note_on_c, 0, 52, 100
1, 200400, Note_on_c, 0, 57, 100
1, 200400, Note_on_c, 0, 61, 100
1, 200400, Note_on_c, 2, 52, 100
1, 200400, Note_on_c, 2, 57, 100
1, 200400, Note_on_c, 2, 61, 100
1, 200400, Note_on_c, 4, 68, 100
1, 200400, Note_on_c, 13, 68, 100
1, 200412, Control_c, 0, 11, 41
1, 200412, Control_c, 2, 11, 41
1, 200412, Control_c, 4, 11, 41
1, 200412, Control_c, 9, 11, 36
1, 200412, Control_c, 13, 11, 43
1, 200460, Control_c, 0, 11, 40
1, 200460, Control_c, 2, 11, 40
1, 200460, Control_c, 4, 11, 40
1, 200460, Control_c, 9, 11, 35
1, 200460, Control_c, 13, 11, 42
1, 200512, Control_c, 0, 11, 39
1, 200512, Control_c, 2, 11, 39
1, 200512, Control_c, 4, 11, 39
1, 200512, Control_c, 9, 11, 34
1, 200532, Control_c, 13, 11, 41
1, 200564, Control_c, 0, 11, 38
1, 200564, Control_c, 2, 11, 38
1, 200564, Control_c, 4, 11, 38
1, 200564, Control_c, 9, 11, 33
1, 200580, Control_c, 13, 11, 40
1, 200616, Control_c, 0, 11, 37
1, 200616, Control_c, 2, 11, 37
1, 200616, Control_c, 4, 11, 37
1, 200616, Control_c, 9, 11, 32
1, 200632, Control_c, 13, 11, 39
1, 200636, Note_on_c, 13, 68, 0
1, 200636, Note_on_c, 4, 68, 0
1, 200636, Note_on_c, 2, 61, 0
1, 200636, Note_on_c, 2, 57, 0
1, 200636, Note_on_c, 2, 52, 0
1, 200636, Note_on_c, 0, 61, 0
1, 200636, Note_on_c, 0, 57, 0
1, 200636, Note_on_c, 0, 52, 0
1, 200640, Note_on_c, 9, 32, 100
1, 200668, Control_c, 0, 11, 36
1, 200668, Control_c, 2, 11, 36
1, 200668, Control_c, 4, 11, 36
1, 200668, Control_c, 9, 11, 31
1, 200684, Control_c, 13, 11, 38
1, 200720, Control_c, 0, 11, 35
1, 200720, Control_c, 9, 11, 30
1, 200736, Control_c, 2, 11, 35
1, 200736, Control_c, 4, 11, 35
1, 200736, Control_c, 13, 11, 37
1, 200756, Note_on_c, 9, 32, 0
1, 200772, Control_c, 0, 11, 34
1, 200772, Control_c, 9, 11, 29
1, 200788, Control_c, 2, 11, 34
1, 200788, Control_c, 4, 11, 34
1, 200788, Control_c, 13, 11, 36
1, 200820, Control_c, 0, 11, 33
1, 200820, Control_c, 9, 11, 28
1, 200840, Control_c, 2, 11, 33
1, 200840, Control_c, 4, 11, 33
1, 200840, Control_c, 13, 11, 35
1, 200872, Control_c, 0, 11, 32
1, 200872, Control_c, 9, 11, 27
1, 200880, Note_on_c, 0, 52, 100
1, 200880, Note_on_c, 0, 57, 100
1, 200880, Note_on_c, 0, 61, 100
1, 200880, Note_on_c, 2, 52, 100
1, 200880, Note_on_c, 2, 57, 100
1, 200880, Note_on_c, 2, 61, 100
1, 200880, Note_on_c, 4, 68, 100
1, 200880, Note_on_c, 13, 68, 100
1, 200892, Control_c, 2, 11, 32
1, 200892, Control_c, 4, 11, 32
1, 200908, Control_c, 13, 11, 34
1, 200924, Control_c, 0, 11, 31
1, 200924, Control_c, 9, 11, 26
1, 200940, Control_c, 2, 11, 31
1, 200940, Control_c, 4, 11, 31
1, 200960, Control_c, 13, 11, 33
1, 200976, Control_c, 0, 11, 30
1, 200976, Control_c, 9, 11, 25
1, 200992, Control_c, 2, 11, 30
1, 200992, Control_c, 4, 11, 30
1, 201012, Control_c, 13, 11, 32
1, 201028, Control_c, 9, 11, 24
1, 201044, Control_c, 0, 11, 29
1, 201044, Control_c, 2, 11, 29
1, 201060, Control_c, 4, 11, 29
1, 201060, Control_c, 13, 11, 31
1, 201080, Control_c, 9, 11, 23
1, 201096, Control_c, 0, 11, 28
1, 201112, Control_c, 2, 11, 28
1, 201112, Control_c, 4, 11, 28
1, 201112, Control_c, 13, 11, 30
1, 201116, Note_on_c, 13, 68, 0
1, 201116, Note_on_c, 4, 68, 0
1, 201116, Note_on_c, 2, 61, 0
1, 201116, Note_on_c, 2, 57, 0
1, 201116, Note_on_c, 2, 52, 0
1, 201116, Note_on_c, 0, 61, 0
1, 201116, Note_on_c, 0, 57, 0
1, 201116, Note_on_c, 0, 52, 0
1, 201120, Note_on_c, 9, 32, 100
1, 201132, Control_c, 9, 11, 22
1, 201148, Control_c, 0, 11, 27
1, 201164, Control_c, 2, 11, 27
1, 201164, Control_c, 4, 11, 27
1, 201164, Control_c, 9, 11, 21
1, 201164, Control_c, 13, 11, 29
1, 201200, Control_c, 0, 11, 26
1, 201216, Control_c, 2, 11, 26
1, 201216, Control_c, 4, 11, 26
1, 201216, Control_c, 13, 11, 28
1, 201236, Note_on_c, 9, 32, 0
1, 201252, Control_c, 0, 11, 25
1, 201268, Control_c, 2, 11, 25
1, 201268, Control_c, 4, 11, 25
1, 201284, Control_c, 13, 11, 27
1, 201300, Control_c, 0, 11, 24
1, 201320, Control_c, 2, 11, 24
1, 201320, Control_c, 4, 11, 24
1, 201336, Control_c, 13, 11, 26
1, 201352, Control_c, 0, 11, 23
1, 201360, Note_on_c, 0, 52, 100
1, 201360, Note_on_c, 0, 57, 100
1, 201360, Note_on_c, 0, 61, 100
1, 201360, Note_on_c, 2, 52, 100
1, 201360, Note_on_c, 2, 57, 100
1, 201360, Note_on_c, 2, 61, 100
1, 201360, Note_on_c, 4, 68, 100
1, 201360, Note_on_c, 13, 68, 100
1, 201372, Control_c, 2, 11, 23
1, 201388, Control_c, 4, 11, 23
1, 201388, Control_c, 13, 11, 25
1, 201404, Control_c, 0, 11, 22
1, 201440, Control_c, 2, 11, 22
1, 201440, Control_c, 4, 11, 22
1, 201440, Control_c, 13, 11, 24
1, 201456, Control_c, 0, 11, 21
1, 201476, Note_on_c, 13, 68, 0
1, 201476, Note_on_c, 4, 68, 0
1, 201492, Control_c, 2, 11, 21
1, 201492, Control_c, 4, 11, 21
1, 201492, Control_c, 13, 11, 23
1, 201508, Control_c, 0, 11, 20
1, 201540, Control_c, 2, 11, 20
1, 201540, Control_c, 4, 11, 20
1, 201540, Control_c, 13, 11, 22
1, 201560, Control_c, 0, 11, 19
1, 201592, Control_c, 2, 11, 19
1, 201592, Control_c, 4, 11, 19
1, 201592, Control_c, 13, 11, 21
1, 201596, Note_on_c, 2, 61, 0
1, 201596, Note_on_c, 2, 57, 0
1, 201596, Note_on_c, 2, 52, 0
1, 201596, Note_on_c, 0, 61, 0
1, 201596, Note_on_c, 0, 57, 0
1, 201596, Note_on_c, 0, 52, 0
1, 201612, Control_c, 0, 11, 18
1, 201644, Control_c, 2, 11, 18
1, 201644, Control_c, 4, 11, 18
1, 201644, Control_c, 13, 11, 20
1, 201660, Control_c, 0, 11, 17
1, 201696, Control_c, 2, 11, 17
1, 201748, Control_c, 2, 11, 16
1, 203016, Control_c, 9, 11, 126
1, 203156, Note_on_c, 10, 72, 0
1, 203392, Control_c, 13, 11, 124
1, 203412, Control_c, 4, 11, 125
1, 203496, Control_c, 0, 11, 125
1, 203496, Control_c, 2, 11, 124
1, 205419, Lyric_t, "*"
1, 205419, End_track
0, 0, End_of_file
