0, 0, Header, 1, 15, 120
1, 0, Start_track
1, 0, Sequencer_specific, 15, 5, 15, 28, 50, 48, 49, 51, 46, 48, 49, 46, 48, 56, 1, 1
1, 0, Sequencer_specific, 11, 5, 15, 18, 3, 3, 127, 127, 0, 255, 1, 5
1, 0, Sequencer_specific, 42, 5, 15, 45, 77, 105, 99, 114, 111, 115, 111, 102, 116, 32, 83, 97, 110, 115, 32, 83, 101, 114, 105, 102, 44, 56, 46, 50, 53, 44, 70, 97, 108, 115, 101, 44, 70, 97, 108, 115, 101, 44, 49
1, 0, Key_signature, 1, "major"
1, 0, SMPTE_offset, 96, 0, 0, 0, 0
1, 0, Tempo, 555555
1, 0, Time_signature, 4, 2, 24, 8
1, 3360, Time_signature, 2, 2, 24, 8
1, 3600, Time_signature, 4, 2, 24, 8
1, 6960, Time_signature, 2, 2, 24, 8
1, 7200, Time_signature, 4, 2, 24, 8
1, 11040, Time_signature, 3, 2, 24, 8
1, 19680, Time_signature, 2, 2, 24, 8
1, 19920, Time_signature, 3, 2, 24, 8
1, 22440, Time_signature, 2, 2, 24, 8
1, 22680, Time_signature, 6, 2, 24, 8
1, 24120, Time_signature, 3, 2, 24, 8
1, 29520, Time_signature, 2, 2, 24, 8
1, 29760, Time_signature, 3, 2, 24, 8
1, 32280, Time_signature, 2, 2, 24, 8
1, 32520, Time_signature, 6, 2, 24, 8
1, 33960, Time_signature, 3, 2, 24, 8
1, 39720, Time_signature, 6, 2, 24, 8
1, 43320, Time_signature, 3, 2, 24, 8
1, 51960, Time_signature, 4, 2, 24, 8
1, 62520, Tempo, 277777
1, 62520, End_track
2, 0, Start_track
2, 0, Sequencer_specific, 5, 5, 15, 9, 72, 72
2, 0, Sequencer_specific, 15, 5, 15, 6, 71, 101, 110, 101, 114, 97, 108, 32, 77, 73, 68, 73
2, 0, Channel_prefix, 2
2, 0, MIDI_port, 0
2, 0, Title_t, "Voice"
2, 0, Control_c, 2, 7, 99
2, 0, Program_c, 2, 56
2, 3360, Time_signature, 2, 2, 24, 8
2, 3600, Time_signature, 4, 2, 24, 8
2, 6960, Time_signature, 2, 2, 24, 8
2, 7200, Time_signature, 4, 2, 24, 8
2, 11040, Time_signature, 3, 2, 24, 8
2, 17280, Note_on_c, 2, 54, 127
2, 17340, Note_on_c, 2, 54, 0
2, 17340, Note_on_c, 2, 54, 127
2, 17370, Note_on_c, 2, 54, 0
2, 17370, Note_on_c, 2, 54, 127
2, 17400, Note_on_c, 2, 54, 0
2, 17400, Note_on_c, 2, 54, 127
2, 17460, Note_on_c, 2, 54, 0
2, 17460, Note_on_c, 2, 54, 127
2, 17520, Note_on_c, 2, 54, 0
2, 17520, Note_on_c, 2, 55, 127
2, 17640, Note_on_c, 2, 55, 0
2, 17640, Note_on_c, 2, 54, 127
2, 17700, Note_on_c, 2, 54, 0
2, 17700, Note_on_c, 2, 54, 127
2, 17880, Note_on_c, 2, 54, 0
2, 18000, Note_on_c, 2, 54, 127
2, 18060, Note_on_c, 2, 54, 0
2, 18060, Note_on_c, 2, 54, 127
2, 18090, Note_on_c, 2, 54, 0
2, 18090, Note_on_c, 2, 54, 127
2, 18120, Note_on_c, 2, 54, 0
2, 18120, Note_on_c, 2, 54, 127
2, 18180, Note_on_c, 2, 54, 0
2, 18180, Note_on_c, 2, 54, 127
2, 18240, Note_on_c, 2, 54, 0
2, 18240, Note_on_c, 2, 55, 127
2, 18360, Note_on_c, 2, 55, 0
2, 18360, Note_on_c, 2, 54, 127
2, 18420, Note_on_c, 2, 54, 0
2, 18420, Note_on_c, 2, 50, 127
2, 18480, Note_on_c, 2, 50, 0
2, 18480, Note_on_c, 2, 50, 127
2, 18600, Note_on_c, 2, 50, 0
2, 18720, Note_on_c, 2, 54, 127
2, 18780, Note_on_c, 2, 54, 0
2, 18780, Note_on_c, 2, 54, 127
2, 18810, Note_on_c, 2, 54, 0
2, 18810, Note_on_c, 2, 54, 127
2, 18840, Note_on_c, 2, 54, 0
2, 18840, Note_on_c, 2, 54, 127
2, 18900, Note_on_c, 2, 54, 0
2, 18900, Note_on_c, 2, 50, 127
2, 18960, Note_on_c, 2, 50, 0
2, 18960, Note_on_c, 2, 52, 127
2, 19080, Note_on_c, 2, 52, 0
2, 19080, Note_on_c, 2, 54, 127
2, 19140, Note_on_c, 2, 54, 0
2, 19140, Note_on_c, 2, 54, 127
2, 19170, Note_on_c, 2, 54, 0
2, 19170, Note_on_c, 2, 55, 127
2, 19200, Note_on_c, 2, 55, 0
2, 19200, Note_on_c, 2, 54, 127
2, 19320, Note_on_c, 2, 54, 0
2, 19380, Note_on_c, 2, 57, 127
2, 19440, Note_on_c, 2, 57, 0
2, 19440, Note_on_c, 2, 59, 127
2, 19500, Note_on_c, 2, 59, 0
2, 19500, Note_on_c, 2, 59, 127
2, 19530, Note_on_c, 2, 59, 0
2, 19530, Note_on_c, 2, 59, 127
2, 19560, Note_on_c, 2, 59, 0
2, 19560, Note_on_c, 2, 59, 127
2, 19620, Note_on_c, 2, 59, 0
2, 19620, Note_on_c, 2, 57, 127
2, 19680, Note_on_c, 2, 57, 0
2, 19680, Time_signature, 2, 2, 24, 8
2, 19680, Note_on_c, 2, 55, 127
2, 19740, Note_on_c, 2, 55, 0
2, 19740, Note_on_c, 2, 54, 127
2, 19800, Note_on_c, 2, 54, 0
2, 19800, Note_on_c, 2, 54, 127
2, 19920, Note_on_c, 2, 54, 0
2, 19920, Time_signature, 3, 2, 24, 8
2, 20040, Note_on_c, 2, 54, 127
2, 20100, Note_on_c, 2, 54, 0
2, 20100, Note_on_c, 2, 54, 127
2, 20130, Note_on_c, 2, 54, 0
2, 20130, Note_on_c, 2, 54, 127
2, 20160, Note_on_c, 2, 54, 0
2, 20160, Note_on_c, 2, 54, 127
2, 20220, Note_on_c, 2, 54, 0
2, 20220, Note_on_c, 2, 54, 127
2, 20280, Note_on_c, 2, 54, 0
2, 20280, Note_on_c, 2, 55, 127
2, 20400, Note_on_c, 2, 55, 0
2, 20400, Note_on_c, 2, 54, 127
2, 20460, Note_on_c, 2, 54, 0
2, 20460, Note_on_c, 2, 54, 127
2, 20640, Note_on_c, 2, 54, 0
2, 20760, Note_on_c, 2, 54, 127
2, 20820, Note_on_c, 2, 54, 0
2, 20820, Note_on_c, 2, 54, 127
2, 20850, Note_on_c, 2, 54, 0
2, 20850, Note_on_c, 2, 54, 127
2, 20880, Note_on_c, 2, 54, 0
2, 20880, Note_on_c, 2, 54, 127
2, 20940, Note_on_c, 2, 54, 0
2, 20940, Note_on_c, 2, 54, 127
2, 20995, Note_on_c, 2, 54, 75
2, 21000, Note_on_c, 2, 54, 0
2, 21000, Note_on_c, 2, 66, 0
2, 21000, Note_on_c, 2, 55, 127
2, 21120, Note_on_c, 2, 55, 0
2, 21120, Note_on_c, 2, 54, 127
2, 21180, Note_on_c, 2, 54, 0
2, 21180, Note_on_c, 2, 50, 127
2, 21240, Note_on_c, 2, 50, 0
2, 21240, Note_on_c, 2, 50, 127
2, 21360, Note_on_c, 2, 50, 0
2, 21480, Note_on_c, 2, 54, 127
2, 21540, Note_on_c, 2, 54, 0
2, 21540, Note_on_c, 2, 54, 127
2, 21600, Note_on_c, 2, 54, 0
2, 21600, Note_on_c, 2, 54, 127
2, 21660, Note_on_c, 2, 54, 0
2, 21660, Note_on_c, 2, 50, 127
2, 21720, Note_on_c, 2, 50, 0
2, 21720, Note_on_c, 2, 52, 127
2, 21840, Note_on_c, 2, 52, 0
2, 21840, Note_on_c, 2, 54, 127
2, 21900, Note_on_c, 2, 54, 0
2, 21900, Note_on_c, 2, 54, 127
2, 22080, Note_on_c, 2, 54, 0
2, 22200, Note_on_c, 2, 59, 127
2, 22260, Note_on_c, 2, 59, 0
2, 22260, Note_on_c, 2, 59, 127
2, 22290, Note_on_c, 2, 59, 0
2, 22290, Note_on_c, 2, 59, 127
2, 22320, Note_on_c, 2, 59, 0
2, 22320, Note_on_c, 2, 59, 127
2, 22380, Note_on_c, 2, 59, 0
2, 22380, Note_on_c, 2, 57, 127
2, 22440, Note_on_c, 2, 57, 0
2, 22440, Time_signature, 2, 2, 24, 8
2, 22440, Note_on_c, 2, 55, 127
2, 22500, Note_on_c, 2, 55, 0
2, 22500, Note_on_c, 2, 54, 127
2, 22560, Note_on_c, 2, 54, 0
2, 22560, Note_on_c, 2, 54, 127
2, 22680, Note_on_c, 2, 54, 0
2, 22680, Time_signature, 6, 2, 24, 8
2, 22680, Note_on_c, 2, 55, 127
2, 22860, Note_on_c, 2, 55, 0
2, 22860, Note_on_c, 2, 57, 127
2, 22920, Note_on_c, 2, 57, 0
2, 22920, Note_on_c, 2, 59, 127
2, 22980, Note_on_c, 2, 59, 0
2, 22980, Note_on_c, 2, 57, 127
2, 23040, Note_on_c, 2, 57, 0
2, 23040, Note_on_c, 2, 55, 127
2, 23160, Note_on_c, 2, 55, 0
2, 23160, Note_on_c, 2, 54, 127
2, 23280, Note_on_c, 2, 54, 0
2, 23280, Note_on_c, 2, 55, 127
2, 23340, Note_on_c, 2, 55, 0
2, 23340, Note_on_c, 2, 57, 127
2, 23640, Note_on_c, 2, 57, 0
2, 23700, Note_on_c, 2, 57, 127
2, 23760, Note_on_c, 2, 57, 0
2, 23760, Note_on_c, 2, 62, 127
2, 23880, Note_on_c, 2, 62, 0
2, 23880, Note_on_c, 2, 61, 127
2, 24000, Note_on_c, 2, 61, 0
2, 24000, Note_on_c, 2, 62, 127
2, 24120, Note_on_c, 2, 62, 0
2, 24120, Time_signature, 3, 2, 24, 8
2, 24120, Note_on_c, 2, 62, 127
2, 25440, Note_on_c, 2, 62, 0
2, 27120, Note_on_c, 2, 54, 127
2, 27180, Note_on_c, 2, 54, 0
2, 27180, Note_on_c, 2, 54, 127
2, 27210, Note_on_c, 2, 54, 0
2, 27210, Note_on_c, 2, 54, 127
2, 27240, Note_on_c, 2, 54, 0
2, 27240, Note_on_c, 2, 54, 127
2, 27300, Note_on_c, 2, 54, 0
2, 27300, Note_on_c, 2, 54, 127
2, 27360, Note_on_c, 2, 54, 0
2, 27360, Note_on_c, 2, 55, 127
2, 27480, Note_on_c, 2, 55, 0
2, 27480, Note_on_c, 2, 54, 127
2, 27540, Note_on_c, 2, 54, 0
2, 27540, Note_on_c, 2, 54, 127
2, 27720, Note_on_c, 2, 54, 0
2, 27840, Note_on_c, 2, 54, 127
2, 27900, Note_on_c, 2, 54, 0
2, 27900, Note_on_c, 2, 54, 127
2, 27960, Note_on_c, 2, 54, 0
2, 27960, Note_on_c, 2, 54, 127
2, 28020, Note_on_c, 2, 54, 0
2, 28020, Note_on_c, 2, 54, 127
2, 28080, Note_on_c, 2, 54, 0
2, 28080, Note_on_c, 2, 55, 127
2, 28200, Note_on_c, 2, 55, 0
2, 28200, Note_on_c, 2, 54, 127
2, 28260, Note_on_c, 2, 54, 0
2, 28260, Note_on_c, 2, 50, 127
2, 28320, Note_on_c, 2, 50, 0
2, 28320, Note_on_c, 2, 50, 127
2, 28440, Note_on_c, 2, 50, 0
2, 28500, Note_on_c, 2, 50, 127
2, 28560, Note_on_c, 2, 50, 0
2, 28560, Note_on_c, 2, 54, 127
2, 28620, Note_on_c, 2, 54, 0
2, 28620, Note_on_c, 2, 54, 127
2, 28680, Note_on_c, 2, 54, 0
2, 28680, Note_on_c, 2, 54, 127
2, 28740, Note_on_c, 2, 54, 0
2, 28740, Note_on_c, 2, 50, 127
2, 28800, Note_on_c, 2, 50, 0
2, 28800, Note_on_c, 2, 52, 127
2, 28920, Note_on_c, 2, 52, 0
2, 28920, Note_on_c, 2, 54, 127
2, 28980, Note_on_c, 2, 54, 0
2, 28980, Note_on_c, 2, 54, 127
2, 29010, Note_on_c, 2, 54, 0
2, 29010, Note_on_c, 2, 55, 127
2, 29040, Note_on_c, 2, 55, 0
2, 29040, Note_on_c, 2, 54, 127
2, 29160, Note_on_c, 2, 54, 0
2, 29280, Note_on_c, 2, 59, 127
2, 29340, Note_on_c, 2, 59, 0
2, 29340, Note_on_c, 2, 59, 127
2, 29370, Note_on_c, 2, 59, 0
2, 29370, Note_on_c, 2, 59, 127
2, 29400, Note_on_c, 2, 59, 0
2, 29400, Note_on_c, 2, 59, 127
2, 29460, Note_on_c, 2, 59, 0
2, 29460, Note_on_c, 2, 57, 127
2, 29520, Note_on_c, 2, 57, 0
2, 29520, Time_signature, 2, 2, 24, 8
2, 29520, Note_on_c, 2, 55, 127
2, 29580, Note_on_c, 2, 55, 0
2, 29580, Note_on_c, 2, 54, 127
2, 29640, Note_on_c, 2, 54, 0
2, 29640, Note_on_c, 2, 54, 127
2, 29760, Note_on_c, 2, 54, 0
2, 29760, Time_signature, 3, 2, 24, 8
2, 29880, Note_on_c, 2, 54, 127
2, 29940, Note_on_c, 2, 54, 0
2, 29940, Note_on_c, 2, 54, 127
2, 29970, Note_on_c, 2, 54, 0
2, 29970, Note_on_c, 2, 54, 127
2, 30000, Note_on_c, 2, 54, 0
2, 30000, Note_on_c, 2, 54, 127
2, 30060, Note_on_c, 2, 54, 0
2, 30060, Note_on_c, 2, 54, 127
2, 30120, Note_on_c, 2, 54, 0
2, 30120, Note_on_c, 2, 55, 127
2, 30240, Note_on_c, 2, 55, 0
2, 30240, Note_on_c, 2, 54, 127
2, 30300, Note_on_c, 2, 54, 0
2, 30300, Note_on_c, 2, 54, 127
2, 30480, Note_on_c, 2, 54, 0
2, 30600, Note_on_c, 2, 59, 127
2, 30660, Note_on_c, 2, 59, 0
2, 30660, Note_on_c, 2, 59, 127
2, 30690, Note_on_c, 2, 59, 0
2, 30690, Note_on_c, 2, 59, 127
2, 30720, Note_on_c, 2, 59, 0
2, 30720, Note_on_c, 2, 59, 127
2, 30780, Note_on_c, 2, 59, 0
2, 30780, Note_on_c, 2, 59, 127
2, 30835, Note_on_c, 2, 59, 75
2, 30840, Note_on_c, 2, 59, 0
2, 30840, Note_on_c, 2, 71, 0
2, 30840, Note_on_c, 2, 61, 127
2, 30960, Note_on_c, 2, 61, 0
2, 30960, Note_on_c, 2, 59, 127
2, 31020, Note_on_c, 2, 59, 0
2, 31020, Note_on_c, 2, 54, 127
2, 31080, Note_on_c, 2, 54, 0
2, 31080, Note_on_c, 2, 54, 127
2, 31200, Note_on_c, 2, 54, 0
2, 31320, Note_on_c, 2, 54, 127
2, 31380, Note_on_c, 2, 54, 0
2, 31380, Note_on_c, 2, 54, 127
2, 31410, Note_on_c, 2, 54, 0
2, 31410, Note_on_c, 2, 54, 127
2, 31440, Note_on_c, 2, 54, 0
2, 31440, Note_on_c, 2, 54, 127
2, 31500, Note_on_c, 2, 54, 0
2, 31500, Note_on_c, 2, 50, 127
2, 31560, Note_on_c, 2, 50, 0
2, 31560, Note_on_c, 2, 52, 127
2, 31680, Note_on_c, 2, 52, 0
2, 31680, Note_on_c, 2, 54, 127
2, 31740, Note_on_c, 2, 54, 0
2, 31740, Note_on_c, 2, 54, 127
2, 31920, Note_on_c, 2, 54, 0
2, 32040, Note_on_c, 2, 59, 127
2, 32100, Note_on_c, 2, 59, 0
2, 32100, Note_on_c, 2, 59, 127
2, 32130, Note_on_c, 2, 59, 0
2, 32130, Note_on_c, 2, 59, 127
2, 32160, Note_on_c, 2, 59, 0
2, 32160, Note_on_c, 2, 59, 127
2, 32220, Note_on_c, 2, 59, 0
2, 32220, Note_on_c, 2, 57, 127
2, 32280, Note_on_c, 2, 57, 0
2, 32280, Time_signature, 2, 2, 24, 8
2, 32280, Note_on_c, 2, 55, 127
2, 32340, Note_on_c, 2, 55, 0
2, 32340, Note_on_c, 2, 54, 127
2, 32400, Note_on_c, 2, 54, 0
2, 32400, Note_on_c, 2, 54, 127
2, 32520, Note_on_c, 2, 54, 0
2, 32520, Time_signature, 6, 2, 24, 8
2, 32520, Note_on_c, 2, 55, 127
2, 32700, Note_on_c, 2, 55, 0
2, 32700, Note_on_c, 2, 57, 127
2, 32760, Note_on_c, 2, 57, 0
2, 32760, Note_on_c, 2, 59, 127
2, 32820, Note_on_c, 2, 59, 0
2, 32820, Note_on_c, 2, 57, 127
2, 32880, Note_on_c, 2, 57, 0
2, 32880, Note_on_c, 2, 55, 127
2, 33000, Note_on_c, 2, 55, 0
2, 33000, Note_on_c, 2, 54, 127
2, 33120, Note_on_c, 2, 54, 0
2, 33120, Note_on_c, 2, 55, 127
2, 33180, Note_on_c, 2, 55, 0
2, 33180, Note_on_c, 2, 57, 127
2, 33480, Note_on_c, 2, 57, 0
2, 33540, Note_on_c, 2, 57, 127
2, 33600, Note_on_c, 2, 57, 0
2, 33600, Note_on_c, 2, 62, 127
2, 33720, Note_on_c, 2, 62, 0
2, 33720, Note_on_c, 2, 61, 127
2, 33840, Note_on_c, 2, 61, 0
2, 33840, Note_on_c, 2, 62, 127
2, 33960, Note_on_c, 2, 62, 0
2, 33960, Time_signature, 3, 2, 24, 8
2, 33960, Note_on_c, 2, 62, 127
2, 35280, Note_on_c, 2, 62, 0
2, 39720, Time_signature, 6, 2, 24, 8
2, 39720, Note_on_c, 2, 55, 127
2, 39900, Note_on_c, 2, 55, 0
2, 39900, Note_on_c, 2, 57, 127
2, 39960, Note_on_c, 2, 57, 0
2, 39960, Note_on_c, 2, 59, 127
2, 40020, Note_on_c, 2, 59, 0
2, 40020, Note_on_c, 2, 57, 127
2, 40080, Note_on_c, 2, 57, 0
2, 40080, Note_on_c, 2, 55, 127
2, 40200, Note_on_c, 2, 55, 0
2, 40200, Note_on_c, 2, 54, 127
2, 40320, Note_on_c, 2, 54, 0
2, 40320, Note_on_c, 2, 55, 127
2, 40380, Note_on_c, 2, 55, 0
2, 40380, Note_on_c, 2, 57, 127
2, 40680, Note_on_c, 2, 57, 0
2, 40740, Note_on_c, 2, 57, 127
2, 40800, Note_on_c, 2, 57, 0
2, 40800, Note_on_c, 2, 62, 127
2, 40920, Note_on_c, 2, 62, 0
2, 40920, Note_on_c, 2, 61, 127
2, 41040, Note_on_c, 2, 61, 0
2, 41040, Note_on_c, 2, 62, 127
2, 41160, Note_on_c, 2, 62, 0
2, 41160, Note_on_c, 2, 55, 127
2, 41340, Note_on_c, 2, 55, 0
2, 41340, Note_on_c, 2, 57, 127
2, 41400, Note_on_c, 2, 57, 0
2, 41400, Note_on_c, 2, 59, 127
2, 41460, Note_on_c, 2, 59, 0
2, 41460, Note_on_c, 2, 57, 127
2, 41520, Note_on_c, 2, 57, 0
2, 41520, Note_on_c, 2, 55, 127
2, 41640, Note_on_c, 2, 55, 0
2, 41640, Note_on_c, 2, 54, 127
2, 41760, Note_on_c, 2, 54, 0
2, 41760, Note_on_c, 2, 55, 127
2, 41820, Note_on_c, 2, 55, 0
2, 41820, Note_on_c, 2, 57, 127
2, 42120, Note_on_c, 2, 57, 0
2, 42180, Note_on_c, 2, 57, 127
2, 42240, Note_on_c, 2, 57, 0
2, 42240, Note_on_c, 2, 62, 127
2, 42360, Note_on_c, 2, 62, 0
2, 42360, Note_on_c, 2, 61, 127
2, 42480, Note_on_c, 2, 61, 0
2, 42480, Note_on_c, 2, 62, 127
2, 42600, Note_on_c, 2, 62, 0
2, 42600, Note_on_c, 2, 62, 127
2, 43320, Note_on_c, 2, 62, 0
2, 43320, Time_signature, 3, 2, 24, 8
2, 51960, Time_signature, 4, 2, 24, 8
2, 56760, Note_on_c, 2, 64, 127
2, 56820, Note_on_c, 2, 64, 0
2, 56820, Note_on_c, 2, 64, 127
2, 56880, Note_on_c, 2, 64, 0
2, 56940, Note_on_c, 2, 64, 127
2, 57000, Note_on_c, 2, 64, 0
2, 57000, Note_on_c, 2, 64, 127
2, 57030, Note_on_c, 2, 64, 0
2, 57030, Note_on_c, 2, 64, 127
2, 57060, Note_on_c, 2, 64, 0
2, 57060, Note_on_c, 2, 64, 127
2, 57120, Note_on_c, 2, 64, 0
2, 57120, Note_on_c, 2, 64, 127
2, 57180, Note_on_c, 2, 64, 0
2, 57240, Note_on_c, 2, 64, 127
2, 57270, Note_on_c, 2, 64, 0
2, 57270, Note_on_c, 2, 64, 127
2, 57300, Note_on_c, 2, 64, 0
2, 57300, Note_on_c, 2, 64, 127
2, 57360, Note_on_c, 2, 64, 0
2, 57360, Note_on_c, 2, 64, 127
2, 57420, Note_on_c, 2, 64, 0
2, 57480, Note_on_c, 2, 64, 127
2, 57510, Note_on_c, 2, 64, 0
2, 57510, Note_on_c, 2, 64, 127
2, 57540, Note_on_c, 2, 64, 0
2, 57540, Note_on_c, 2, 64, 127
2, 57600, Note_on_c, 2, 64, 0
2, 57600, Note_on_c, 2, 64, 127
2, 57660, Note_on_c, 2, 64, 0
2, 57660, Note_on_c, 2, 65, 127
2, 57720, Note_on_c, 2, 65, 0
2, 57720, Note_on_c, 2, 64, 127
2, 57750, Note_on_c, 2, 64, 0
2, 57750, Note_on_c, 2, 64, 127
2, 57780, Note_on_c, 2, 64, 0
2, 57780, Note_on_c, 2, 64, 127
2, 57840, Note_on_c, 2, 64, 0
2, 57840, Note_on_c, 2, 64, 127
2, 57900, Note_on_c, 2, 64, 0
2, 57960, Note_on_c, 2, 64, 127
2, 57990, Note_on_c, 2, 64, 0
2, 57990, Note_on_c, 2, 64, 127
2, 58020, Note_on_c, 2, 64, 0
2, 58020, Note_on_c, 2, 64, 127
2, 58080, Note_on_c, 2, 64, 0
2, 58080, Note_on_c, 2, 64, 127
2, 58140, Note_on_c, 2, 64, 0
2, 58200, Note_on_c, 2, 64, 127
2, 58230, Note_on_c, 2, 64, 0
2, 58230, Note_on_c, 2, 64, 127
2, 58260, Note_on_c, 2, 64, 0
2, 58260, Note_on_c, 2, 64, 127
2, 58320, Note_on_c, 2, 64, 0
2, 58320, Note_on_c, 2, 64, 127
2, 58380, Note_on_c, 2, 64, 0
2, 58440, Note_on_c, 2, 64, 127
2, 58470, Note_on_c, 2, 64, 0
2, 58470, Note_on_c, 2, 64, 127
2, 58500, Note_on_c, 2, 64, 0
2, 58500, Note_on_c, 2, 64, 127
2, 58560, Note_on_c, 2, 64, 0
2, 58560, Note_on_c, 2, 64, 127
2, 58620, Note_on_c, 2, 64, 0
2, 58620, Note_on_c, 2, 64, 127
2, 58680, Note_on_c, 2, 64, 0
2, 58680, Note_on_c, 2, 64, 127
2, 58710, Note_on_c, 2, 64, 0
2, 58710, Note_on_c, 2, 63, 127
2, 58740, Note_on_c, 2, 63, 0
2, 58740, Note_on_c, 2, 64, 127
2, 58920, Note_on_c, 2, 64, 0
2, 60600, Note_on_c, 2, 64, 127
2, 60660, Note_on_c, 2, 64, 0
2, 60660, Note_on_c, 2, 64, 127
2, 60720, Note_on_c, 2, 64, 0
2, 60780, Note_on_c, 2, 64, 127
2, 60840, Note_on_c, 2, 64, 0
2, 60840, Note_on_c, 2, 64, 127
2, 60870, Note_on_c, 2, 64, 0
2, 60870, Note_on_c, 2, 64, 127
2, 60900, Note_on_c, 2, 64, 0
2, 60900, Note_on_c, 2, 64, 127
2, 60960, Note_on_c, 2, 64, 0
2, 60960, Note_on_c, 2, 64, 127
2, 61020, Note_on_c, 2, 64, 0
2, 61080, Note_on_c, 2, 64, 127
2, 61110, Note_on_c, 2, 64, 0
2, 61110, Note_on_c, 2, 64, 127
2, 61140, Note_on_c, 2, 64, 0
2, 61140, Note_on_c, 2, 64, 127
2, 61200, Note_on_c, 2, 64, 0
2, 61200, Note_on_c, 2, 64, 127
2, 61260, Note_on_c, 2, 64, 0
2, 61320, Note_on_c, 2, 64, 127
2, 61350, Note_on_c, 2, 64, 0
2, 61350, Note_on_c, 2, 64, 127
2, 61380, Note_on_c, 2, 64, 0
2, 61380, Note_on_c, 2, 64, 127
2, 61440, Note_on_c, 2, 64, 0
2, 61440, Note_on_c, 2, 64, 127
2, 61500, Note_on_c, 2, 64, 0
2, 61500, Note_on_c, 2, 65, 127
2, 61560, Note_on_c, 2, 65, 0
2, 61560, Note_on_c, 2, 64, 127
2, 61590, Note_on_c, 2, 64, 0
2, 61590, Note_on_c, 2, 64, 127
2, 61620, Note_on_c, 2, 64, 0
2, 61620, Note_on_c, 2, 64, 127
2, 61680, Note_on_c, 2, 64, 0
2, 61680, Note_on_c, 2, 64, 127
2, 61740, Note_on_c, 2, 64, 0
2, 61800, Note_on_c, 2, 64, 127
2, 61830, Note_on_c, 2, 64, 0
2, 61830, Note_on_c, 2, 64, 127
2, 61860, Note_on_c, 2, 64, 0
2, 61860, Note_on_c, 2, 64, 127
2, 61920, Note_on_c, 2, 64, 0
2, 61920, Note_on_c, 2, 64, 127
2, 61980, Note_on_c, 2, 64, 0
2, 62040, Note_on_c, 2, 64, 127
2, 62070, Note_on_c, 2, 64, 0
2, 62070, Note_on_c, 2, 64, 127
2, 62100, Note_on_c, 2, 64, 0
2, 62100, Note_on_c, 2, 64, 127
2, 62160, Note_on_c, 2, 64, 0
2, 62160, Note_on_c, 2, 64, 127
2, 62220, Note_on_c, 2, 64, 0
2, 62280, Note_on_c, 2, 64, 127
2, 62310, Note_on_c, 2, 64, 0
2, 62310, Note_on_c, 2, 64, 127
2, 62340, Note_on_c, 2, 64, 0
2, 62340, Note_on_c, 2, 64, 127
2, 62400, Note_on_c, 2, 64, 0
2, 62400, Note_on_c, 2, 64, 127
2, 62460, Note_on_c, 2, 64, 0
2, 62460, Note_on_c, 2, 64, 127
2, 62520, Note_on_c, 2, 64, 0
2, 62520, Note_on_c, 2, 67, 127
2, 62550, Note_on_c, 2, 67, 0
2, 62550, Note_on_c, 2, 64, 127
2, 62580, Note_on_c, 2, 64, 0
2, 62580, Note_on_c, 2, 67, 127
2, 63720, Note_on_c, 2, 67, 0
2, 63720, End_track
3, 0, Start_track
3, 0, Sequencer_specific, 5, 5, 15, 9, 8, 64
3, 0, Program_c, 1, 56
3, 0, Sequencer_specific, 15, 5, 15, 6, 71, 101, 110, 101, 114, 97, 108, 32, 77, 73, 68, 73
3, 0, MIDI_port, 0
3, 0, Title_t, "Electric Guitar (Guitar 2)"
3, 0, Control_c, 1, 7, 99
3, 3360, Time_signature, 2, 2, 24, 8
3, 3600, Time_signature, 4, 2, 24, 8
3, 3660, Note_on_c, 1, 40, 127
3, 3690, Note_on_c, 1, 40, 0
3, 3690, Note_on_c, 1, 42, 127
3, 3720, Note_on_c, 1, 42, 0
3, 3720, Note_on_c, 1, 45, 127
3, 3750, Note_on_c, 1, 45, 0
3, 3780, Note_on_c, 1, 47, 127
3, 4080, Note_on_c, 1, 47, 0
3, 4140, Note_on_c, 1, 50, 127
3, 4170, Note_on_c, 1, 50, 0
3, 4170, Note_on_c, 1, 49, 127
3, 4200, Note_on_c, 1, 49, 0
3, 4200, Note_on_c, 1, 47, 127
3, 4260, Note_on_c, 1, 47, 0
3, 4320, Note_on_c, 1, 50, 127
3, 4350, Note_on_c, 1, 50, 0
3, 4350, Note_on_c, 1, 49, 127
3, 4380, Note_on_c, 1, 49, 0
3, 4380, Note_on_c, 1, 45, 127
3, 4440, Note_on_c, 1, 45, 0
3, 4500, Note_on_c, 1, 50, 127
3, 4560, Note_on_c, 1, 50, 0
3, 4560, Note_on_c, 1, 50, 127
3, 4590, Note_on_c, 1, 50, 0
3, 4590, Note_on_c, 1, 49, 127
3, 4620, Note_on_c, 1, 49, 0
3, 4620, Note_on_c, 1, 47, 127
3, 5040, Note_on_c, 1, 47, 0
3, 5100, Note_on_c, 1, 54, 127
3, 5130, Note_on_c, 1, 54, 0
3, 5130, Note_on_c, 1, 52, 127
3, 5160, Note_on_c, 1, 52, 0
3, 5160, Note_on_c, 1, 50, 127
3, 5190, Note_on_c, 1, 50, 0
3, 5190, Note_on_c, 1, 52, 127
3, 5220, Note_on_c, 1, 52, 0
3, 5220, Note_on_c, 1, 50, 127
3, 5250, Note_on_c, 1, 50, 0
3, 5280, Note_on_c, 1, 50, 127
3, 5300, Note_on_c, 1, 50, 0
3, 5300, Note_on_c, 1, 49, 127
3, 5320, Note_on_c, 1, 49, 0
3, 5320, Note_on_c, 1, 43, 127
3, 5340, Note_on_c, 1, 43, 0
3, 5340, Note_on_c, 1, 45, 127
3, 5370, Note_on_c, 1, 45, 0
3, 5370, Note_on_c, 1, 49, 127
3, 5400, Note_on_c, 1, 49, 0
3, 5400, Note_on_c, 1, 47, 127
3, 5430, Note_on_c, 1, 47, 0
3, 5430, Note_on_c, 1, 43, 127
3, 5460, Note_on_c, 1, 43, 0
3, 5460, Note_on_c, 1, 45, 127
3, 5520, Note_on_c, 1, 45, 0
3, 5520, Note_on_c, 1, 47, 127
3, 5880, Note_on_c, 1, 47, 0
3, 5880, Note_on_c, 1, 47, 127
3, 5940, Note_on_c, 1, 47, 0
3, 5940, Note_on_c, 1, 49, 127
3, 5970, Note_on_c, 1, 49, 0
3, 5970, Note_on_c, 1, 50, 127
3, 6000, Note_on_c, 1, 50, 0
3, 6000, Note_on_c, 1, 49, 127
3, 6240, Note_on_c, 1, 49, 0
3, 6240, Note_on_c, 1, 47, 127
3, 6300, Note_on_c, 1, 47, 0
3, 6300, Note_on_c, 1, 49, 127
3, 6360, Note_on_c, 1, 49, 0
3, 6360, Note_on_c, 1, 50, 127
3, 6390, Note_on_c, 1, 50, 0
3, 6390, Note_on_c, 1, 49, 127
3, 6420, Note_on_c, 1, 49, 0
3, 6420, Note_on_c, 1, 45, 127
3, 6480, Note_on_c, 1, 45, 0
3, 6480, Control_c, 1, 1, 0
3, 6480, Note_on_c, 1, 47, 127
3, 6481, Control_c, 1, 1, 7
3, 6482, Control_c, 1, 1, 13
3, 6483, Control_c, 1, 1, 20
3, 6484, Control_c, 1, 1, 26
3, 6485, Control_c, 1, 1, 32
3, 6486, Control_c, 1, 1, 39
3, 6487, Control_c, 1, 1, 45
3, 6488, Control_c, 1, 1, 52
3, 6489, Control_c, 1, 1, 58
3, 6490, Control_c, 1, 1, 64
3, 6959, Control_c, 1, 1, 0
3, 6960, Note_on_c, 1, 47, 0
3, 6960, Time_signature, 2, 2, 24, 8
3, 7200, Time_signature, 4, 2, 24, 8
3, 7494, Note_on_c, 1, 54, 75
3, 7496, Note_on_c, 1, 59, 75
3, 7498, Note_on_c, 1, 62, 75
3, 7499, Note_on_c, 1, 54, 0
3, 7500, Note_on_c, 1, 62, 0
3, 7500, Note_on_c, 1, 66, 127
3, 7501, Note_on_c, 1, 59, 0
3, 7560, Note_on_c, 1, 66, 0
3, 7560, Note_on_c, 1, 71, 127
3, 7620, Note_on_c, 1, 71, 0
3, 7680, Note_on_c, 1, 69, 127
3, 7710, Note_on_c, 1, 69, 0
3, 7710, Note_on_c, 1, 67, 127
3, 7740, Note_on_c, 1, 67, 0
3, 7740, Note_on_c, 1, 66, 127
3, 7770, Note_on_c, 1, 66, 0
3, 7770, Note_on_c, 1, 67, 127
3, 7800, Note_on_c, 1, 67, 0
3, 7800, Note_on_c, 1, 62, 127
3, 8160, Note_on_c, 1, 62, 0
3, 8220, Note_on_c, 1, 50, 127
3, 8250, Note_on_c, 1, 50, 0
3, 8250, Note_on_c, 1, 49, 127
3, 8280, Note_on_c, 1, 49, 0
3, 8280, Note_on_c, 1, 50, 127
3, 8340, Note_on_c, 1, 50, 0
3, 8400, Note_on_c, 1, 52, 127
3, 8430, Note_on_c, 1, 52, 0
3, 8430, Note_on_c, 1, 50, 127
3, 8460, Note_on_c, 1, 50, 0
3, 8460, Note_on_c, 1, 52, 127
3, 8520, Note_on_c, 1, 52, 0
3, 8580, Note_on_c, 1, 54, 127
3, 8610, Note_on_c, 1, 54, 0
3, 8610, Note_on_c, 1, 52, 127
3, 8640, Note_on_c, 1, 52, 0
3, 8640, Note_on_c, 1, 54, 127
3, 8700, Note_on_c, 1, 54, 0
3, 8760, Note_on_c, 1, 55, 127
3, 8820, Note_on_c, 1, 55, 0
3, 8820, Note_on_c, 1, 55, 127
3, 8880, Note_on_c, 1, 55, 0
3, 8880, Note_on_c, 1, 54, 127
3, 9150, Note_on_c, 1, 54, 0
3, 9180, Note_on_c, 1, 47, 127
3, 9210, Note_on_c, 1, 47, 0
3, 9210, Note_on_c, 1, 50, 127
3, 9240, Note_on_c, 1, 50, 0
3, 9240, Note_on_c, 1, 54, 127
3, 9270, Note_on_c, 1, 54, 0
3, 9270, Note_on_c, 1, 55, 127
3, 9300, Note_on_c, 1, 55, 0
3, 9300, Note_on_c, 1, 57, 127
3, 9330, Note_on_c, 1, 57, 0
3, 9360, Note_on_c, 1, 47, 127
3, 9390, Note_on_c, 1, 47, 0
3, 9390, Note_on_c, 1, 50, 127
3, 9420, Note_on_c, 1, 50, 0
3, 9420, Note_on_c, 1, 54, 127
3, 9450, Note_on_c, 1, 54, 0
3, 9450, Note_on_c, 1, 55, 127
3, 9480, Note_on_c, 1, 55, 0
3, 9480, Note_on_c, 1, 59, 127
3, 9510, Note_on_c, 1, 59, 0
3, 9540, Note_on_c, 1, 47, 127
3, 9570, Note_on_c, 1, 47, 0
3, 9570, Note_on_c, 1, 50, 127
3, 9600, Note_on_c, 1, 50, 0
3, 9600, Note_on_c, 1, 54, 127
3, 9630, Note_on_c, 1, 54, 0
3, 9630, Note_on_c, 1, 59, 127
3, 9660, Note_on_c, 1, 59, 0
3, 9660, Note_on_c, 1, 61, 127
3, 9715, Note_on_c, 1, 61, 75
3, 9720, Note_on_c, 1, 61, 0
3, 9720, Note_on_c, 1, 73, 0
3, 9720, Note_on_c, 1, 62, 127
3, 9775, Note_on_c, 1, 62, 75
3, 9780, Note_on_c, 1, 62, 0
3, 9780, Note_on_c, 1, 74, 0
3, 9780, Note_on_c, 1, 64, 127
3, 9840, Note_on_c, 1, 64, 0
3, 9840, Note_on_c, 1, 62, 127
3, 9900, Note_on_c, 1, 62, 0
3, 9900, Note_on_c, 1, 61, 127
3, 9960, Note_on_c, 1, 61, 0
3, 9960, Note_on_c, 1, 59, 127
3, 10020, Note_on_c, 1, 59, 0
3, 10020, Note_on_c, 1, 61, 127
3, 10080, Note_on_c, 1, 61, 0
3, 10080, Note_on_c, 1, 61, 127
3, 10170, Note_on_c, 1, 61, 0
3, 10170, Note_on_c, 1, 62, 127
3, 10200, Note_on_c, 1, 62, 0
3, 10200, Note_on_c, 1, 59, 127
3, 10560, Note_on_c, 1, 59, 0
3, 11040, Time_signature, 3, 2, 24, 8
3, 11040, Note_on_c, 1, 35, 127
3, 11100, Note_on_c, 1, 35, 0
3, 11100, Note_on_c, 1, 42, 127
3, 11160, Note_on_c, 1, 42, 0
3, 11160, Note_on_c, 1, 35, 127
3, 11220, Note_on_c, 1, 35, 0
3, 11220, Note_on_c, 1, 38, 127
3, 11250, Note_on_c, 1, 38, 0
3, 11250, Note_on_c, 1, 38, 127
3, 11280, Note_on_c, 1, 38, 0
3, 11280, Note_on_c, 1, 42, 127
3, 11340, Note_on_c, 1, 42, 0
3, 11340, Note_on_c, 1, 38, 127
3, 11400, Note_on_c, 1, 38, 0
3, 11400, Note_on_c, 1, 31, 127
3, 11460, Note_on_c, 1, 31, 0
3, 11460, Note_on_c, 1, 42, 127
3, 11520, Note_on_c, 1, 42, 0
3, 11520, Note_on_c, 1, 31, 127
3, 11580, Note_on_c, 1, 31, 0
3, 11580, Note_on_c, 1, 38, 127
3, 11640, Note_on_c, 1, 38, 0
3, 11640, Note_on_c, 1, 42, 127
3, 11670, Note_on_c, 1, 42, 0
3, 11670, Note_on_c, 1, 42, 127
3, 11700, Note_on_c, 1, 42, 0
3, 11700, Note_on_c, 1, 38, 127
3, 11760, Note_on_c, 1, 38, 0
3, 11760, Note_on_c, 1, 35, 127
3, 11820, Note_on_c, 1, 35, 0
3, 11820, Note_on_c, 1, 42, 127
3, 11880, Note_on_c, 1, 42, 0
3, 11880, Note_on_c, 1, 35, 127
3, 11940, Note_on_c, 1, 35, 0
3, 11940, Note_on_c, 1, 38, 127
3, 11970, Note_on_c, 1, 38, 0
3, 11970, Note_on_c, 1, 38, 127
3, 12000, Note_on_c, 1, 38, 0
3, 12000, Note_on_c, 1, 42, 127
3, 12060, Note_on_c, 1, 42, 0
3, 12060, Note_on_c, 1, 38, 127
3, 12120, Note_on_c, 1, 38, 0
3, 12120, Note_on_c, 1, 31, 127
3, 12180, Note_on_c, 1, 31, 0
3, 12180, Note_on_c, 1, 42, 127
3, 12240, Note_on_c, 1, 42, 0
3, 12240, Note_on_c, 1, 31, 127
3, 12300, Note_on_c, 1, 31, 0
3, 12300, Note_on_c, 1, 38, 127
3, 12360, Note_on_c, 1, 38, 0
3, 12360, Note_on_c, 1, 42, 127
3, 12390, Note_on_c, 1, 42, 0
3, 12390, Note_on_c, 1, 42, 127
3, 12420, Note_on_c, 1, 42, 0
3, 12420, Note_on_c, 1, 38, 127
3, 12480, Note_on_c, 1, 38, 0
3, 12480, Note_on_c, 1, 35, 127
3, 12540, Note_on_c, 1, 35, 0
3, 12540, Note_on_c, 1, 42, 127
3, 12600, Note_on_c, 1, 42, 0
3, 12600, Note_on_c, 1, 35, 127
3, 12660, Note_on_c, 1, 35, 0
3, 12660, Note_on_c, 1, 38, 127
3, 12690, Note_on_c, 1, 38, 0
3, 12690, Note_on_c, 1, 38, 127
3, 12720, Note_on_c, 1, 38, 0
3, 12720, Note_on_c, 1, 42, 127
3, 12780, Note_on_c, 1, 42, 0
3, 12780, Note_on_c, 1, 38, 127
3, 12840, Note_on_c, 1, 38, 0
3, 12840, Note_on_c, 1, 33, 127
3, 12900, Note_on_c, 1, 33, 0
3, 12900, Note_on_c, 1, 42, 127
3, 12960, Note_on_c, 1, 42, 0
3, 12960, Note_on_c, 1, 33, 127
3, 13020, Note_on_c, 1, 33, 0
3, 13020, Note_on_c, 1, 38, 127
3, 13080, Note_on_c, 1, 38, 0
3, 13080, Note_on_c, 1, 42, 127
3, 13110, Note_on_c, 1, 42, 0
3, 13110, Note_on_c, 1, 42, 127
3, 13140, Note_on_c, 1, 42, 0
3, 13140, Note_on_c, 1, 43, 127
3, 13200, Note_on_c, 1, 31, 127
3, 13260, Note_on_c, 1, 31, 0
3, 13260, Note_on_c, 1, 42, 127
3, 13320, Note_on_c, 1, 42, 0
3, 13320, Note_on_c, 1, 31, 127
3, 13380, Note_on_c, 1, 31, 0
3, 13380, Note_on_c, 1, 38, 127
3, 13410, Note_on_c, 1, 38, 0
3, 13410, Note_on_c, 1, 38, 127
3, 13440, Note_on_c, 1, 38, 0
3, 13440, Note_on_c, 1, 42, 127
3, 13500, Note_on_c, 1, 42, 0
3, 13500, Note_on_c, 1, 38, 127
3, 13560, Note_on_c, 1, 43, 0
3, 13560, Note_on_c, 1, 38, 0
3, 13560, Note_on_c, 1, 28, 127
3, 13615, Note_on_c, 1, 40, 75
3, 13620, Note_on_c, 1, 28, 0
3, 13620, Note_on_c, 1, 40, 0
3, 13620, Control_c, 1, 1, 0
3, 13620, Note_on_c, 1, 42, 127
3, 13621, Control_c, 1, 1, 7
3, 13622, Control_c, 1, 1, 13
3, 13623, Control_c, 1, 1, 20
3, 13624, Control_c, 1, 1, 26
3, 13625, Control_c, 1, 1, 32
3, 13626, Control_c, 1, 1, 39
3, 13627, Control_c, 1, 1, 45
3, 13628, Control_c, 1, 1, 52
3, 13629, Control_c, 1, 1, 58
3, 13630, Control_c, 1, 1, 64
3, 13739, Control_c, 1, 1, 0
3, 13740, Note_on_c, 1, 42, 0
3, 13740, Note_on_c, 1, 40, 127
3, 13800, Note_on_c, 1, 40, 0
3, 13800, Note_on_c, 1, 30, 127
3, 13860, Note_on_c, 1, 30, 0
3, 13860, Note_on_c, 1, 37, 127
3, 13920, Note_on_c, 1, 37, 0
3, 13920, Note_on_c, 1, 31, 127
3, 13980, Note_on_c, 1, 31, 0
3, 13980, Note_on_c, 1, 38, 127
3, 14040, Note_on_c, 1, 38, 0
3, 14040, Note_on_c, 1, 38, 127
3, 14100, Note_on_c, 1, 38, 0
3, 14100, Note_on_c, 1, 31, 127
3, 14160, Note_on_c, 1, 31, 0
3, 14160, Note_on_c, 1, 33, 127
3, 14220, Note_on_c, 1, 33, 0
3, 14220, Note_on_c, 1, 40, 127
3, 14280, Note_on_c, 1, 40, 0
3, 17160, Note_on_c, 1, 35, 127
3, 17220, Note_on_c, 1, 35, 0
3, 17220, Note_on_c, 1, 42, 127
3, 17280, Note_on_c, 1, 42, 0
3, 17280, Note_on_c, 1, 35, 127
3, 17340, Note_on_c, 1, 35, 0
3, 17340, Note_on_c, 1, 38, 127
3, 17370, Note_on_c, 1, 38, 0
3, 17370, Note_on_c, 1, 38, 127
3, 17400, Note_on_c, 1, 38, 0
3, 17400, Note_on_c, 1, 42, 127
3, 17460, Note_on_c, 1, 42, 0
3, 17460, Note_on_c, 1, 38, 127
3, 17520, Note_on_c, 1, 38, 0
3, 17520, Note_on_c, 1, 31, 127
3, 17580, Note_on_c, 1, 31, 0
3, 17580, Note_on_c, 1, 42, 127
3, 17640, Note_on_c, 1, 42, 0
3, 17640, Note_on_c, 1, 31, 127
3, 17700, Note_on_c, 1, 31, 0
3, 17700, Note_on_c, 1, 38, 127
3, 17760, Note_on_c, 1, 38, 0
3, 17760, Note_on_c, 1, 42, 127
3, 17790, Note_on_c, 1, 42, 0
3, 17790, Note_on_c, 1, 42, 127
3, 17820, Note_on_c, 1, 42, 0
3, 17820, Note_on_c, 1, 38, 127
3, 17880, Note_on_c, 1, 38, 0
3, 17880, Note_on_c, 1, 35, 127
3, 17940, Note_on_c, 1, 35, 0
3, 17940, Note_on_c, 1, 42, 127
3, 18000, Note_on_c, 1, 42, 0
3, 18000, Note_on_c, 1, 35, 127
3, 18060, Note_on_c, 1, 35, 0
3, 18060, Note_on_c, 1, 38, 127
3, 18090, Note_on_c, 1, 38, 0
3, 18090, Note_on_c, 1, 38, 127
3, 18120, Note_on_c, 1, 38, 0
3, 18120, Note_on_c, 1, 42, 127
3, 18180, Note_on_c, 1, 42, 0
3, 18180, Note_on_c, 1, 38, 127
3, 18240, Note_on_c, 1, 38, 0
3, 18240, Note_on_c, 1, 31, 127
3, 18300, Note_on_c, 1, 31, 0
3, 18300, Note_on_c, 1, 42, 127
3, 18360, Note_on_c, 1, 42, 0
3, 18360, Note_on_c, 1, 31, 127
3, 18420, Note_on_c, 1, 31, 0
3, 18420, Note_on_c, 1, 38, 127
3, 18480, Note_on_c, 1, 38, 0
3, 18480, Note_on_c, 1, 33, 127
3, 18480, Note_on_c, 1, 38, 127
3, 18600, Note_on_c, 1, 33, 0
3, 18600, Note_on_c, 1, 38, 0
3, 18600, Note_on_c, 1, 35, 127
3, 18660, Note_on_c, 1, 35, 0
3, 18660, Note_on_c, 1, 42, 127
3, 18720, Note_on_c, 1, 42, 0
3, 18720, Note_on_c, 1, 35, 127
3, 18780, Note_on_c, 1, 35, 0
3, 18780, Note_on_c, 1, 38, 127
3, 18810, Note_on_c, 1, 38, 0
3, 18810, Note_on_c, 1, 38, 127
3, 18840, Note_on_c, 1, 38, 0
3, 18840, Note_on_c, 1, 42, 127
3, 18900, Note_on_c, 1, 42, 0
3, 18900, Note_on_c, 1, 38, 127
3, 18960, Note_on_c, 1, 38, 0
3, 18960, Note_on_c, 1, 33, 127
3, 19020, Note_on_c, 1, 33, 0
3, 19020, Note_on_c, 1, 42, 127
3, 19080, Note_on_c, 1, 42, 0
3, 19080, Note_on_c, 1, 33, 127
3, 19140, Note_on_c, 1, 33, 0
3, 19140, Note_on_c, 1, 38, 127
3, 19200, Note_on_c, 1, 38, 0
3, 19200, Note_on_c, 1, 42, 127
3, 19230, Note_on_c, 1, 42, 0
3, 19230, Note_on_c, 1, 42, 127
3, 19260, Note_on_c, 1, 42, 0
3, 19260, Note_on_c, 1, 43, 127
3, 19320, Note_on_c, 1, 31, 127
3, 19380, Note_on_c, 1, 31, 0
3, 19380, Note_on_c, 1, 42, 127
3, 19440, Note_on_c, 1, 42, 0
3, 19440, Note_on_c, 1, 31, 127
3, 19500, Note_on_c, 1, 31, 0
3, 19500, Note_on_c, 1, 38, 127
3, 19530, Note_on_c, 1, 38, 0
3, 19530, Note_on_c, 1, 38, 127
3, 19560, Note_on_c, 1, 38, 0
3, 19560, Note_on_c, 1, 42, 127
3, 19620, Note_on_c, 1, 42, 0
3, 19620, Note_on_c, 1, 38, 127
3, 19680, Note_on_c, 1, 43, 0
3, 19680, Note_on_c, 1, 38, 0
3, 19680, Time_signature, 2, 2, 24, 8
3, 19680, Note_on_c, 1, 28, 127
3, 19740, Note_on_c, 1, 28, 0
3, 19740, Note_on_c, 1, 35, 127
3, 19770, Note_on_c, 1, 35, 0
3, 19800, Note_on_c, 1, 30, 127
3, 19860, Note_on_c, 1, 30, 0
3, 19860, Note_on_c, 1, 35, 127
3, 19890, Note_on_c, 1, 35, 0
3, 19920, Time_signature, 3, 2, 24, 8
3, 19920, Note_on_c, 1, 35, 127
3, 19980, Note_on_c, 1, 35, 0
3, 19980, Note_on_c, 1, 42, 127
3, 20040, Note_on_c, 1, 42, 0
3, 20040, Note_on_c, 1, 35, 127
3, 20100, Note_on_c, 1, 35, 0
3, 20100, Note_on_c, 1, 38, 127
3, 20130, Note_on_c, 1, 38, 0
3, 20130, Note_on_c, 1, 38, 127
3, 20160, Note_on_c, 1, 38, 0
3, 20160, Note_on_c, 1, 42, 127
3, 20220, Note_on_c, 1, 42, 0
3, 20220, Note_on_c, 1, 38, 127
3, 20280, Note_on_c, 1, 38, 0
3, 20280, Note_on_c, 1, 31, 127
3, 20340, Note_on_c, 1, 31, 0
3, 20340, Note_on_c, 1, 42, 127
3, 20400, Note_on_c, 1, 42, 0
3, 20400, Note_on_c, 1, 31, 127
3, 20460, Note_on_c, 1, 31, 0
3, 20460, Note_on_c, 1, 38, 127
3, 20520, Note_on_c, 1, 38, 0
3, 20520, Note_on_c, 1, 42, 127
3, 20550, Note_on_c, 1, 42, 0
3, 20550, Note_on_c, 1, 42, 127
3, 20580, Note_on_c, 1, 42, 0
3, 20580, Note_on_c, 1, 38, 127
3, 20640, Note_on_c, 1, 38, 0
3, 20640, Note_on_c, 1, 35, 127
3, 20700, Note_on_c, 1, 35, 0
3, 20700, Note_on_c, 1, 42, 127
3, 20760, Note_on_c, 1, 42, 0
3, 20760, Note_on_c, 1, 35, 127
3, 20820, Note_on_c, 1, 35, 0
3, 20820, Note_on_c, 1, 38, 127
3, 20850, Note_on_c, 1, 38, 0
3, 20850, Note_on_c, 1, 38, 127
3, 20880, Note_on_c, 1, 38, 0
3, 20880, Note_on_c, 1, 42, 127
3, 20940, Note_on_c, 1, 42, 0
3, 20940, Note_on_c, 1, 38, 127
3, 21000, Note_on_c, 1, 38, 0
3, 21000, Note_on_c, 1, 31, 127
3, 21060, Note_on_c, 1, 31, 0
3, 21060, Note_on_c, 1, 42, 127
3, 21120, Note_on_c, 1, 42, 0
3, 21120, Note_on_c, 1, 31, 127
3, 21180, Note_on_c, 1, 31, 0
3, 21180, Note_on_c, 1, 38, 127
3, 21240, Note_on_c, 1, 38, 0
3, 21240, Note_on_c, 1, 33, 127
3, 21240, Note_on_c, 1, 38, 127
3, 21360, Note_on_c, 1, 33, 0
3, 21360, Note_on_c, 1, 38, 0
3, 21360, Note_on_c, 1, 35, 127
3, 21420, Note_on_c, 1, 35, 0
3, 21420, Note_on_c, 1, 42, 127
3, 21480, Note_on_c, 1, 42, 0
3, 21480, Note_on_c, 1, 35, 127
3, 21540, Note_on_c, 1, 35, 0
3, 21540, Note_on_c, 1, 38, 127
3, 21570, Note_on_c, 1, 38, 0
3, 21570, Note_on_c, 1, 38, 127
3, 21600, Note_on_c, 1, 38, 0
3, 21600, Note_on_c, 1, 42, 127
3, 21660, Note_on_c, 1, 42, 0
3, 21660, Note_on_c, 1, 38, 127
3, 21720, Note_on_c, 1, 38, 0
3, 21720, Note_on_c, 1, 33, 127
3, 21780, Note_on_c, 1, 33, 0
3, 21780, Note_on_c, 1, 42, 127
3, 21840, Note_on_c, 1, 42, 0
3, 21840, Note_on_c, 1, 33, 127
3, 21900, Note_on_c, 1, 33, 0
3, 21900, Note_on_c, 1, 38, 127
3, 21960, Note_on_c, 1, 38, 0
3, 21960, Note_on_c, 1, 42, 127
3, 21990, Note_on_c, 1, 42, 0
3, 21990, Note_on_c, 1, 42, 127
3, 22020, Note_on_c, 1, 42, 0
3, 22020, Note_on_c, 1, 43, 127
3, 22080, Note_on_c, 1, 31, 127
3, 22140, Note_on_c, 1, 31, 0
3, 22140, Note_on_c, 1, 42, 127
3, 22200, Note_on_c, 1, 42, 0
3, 22200, Note_on_c, 1, 31, 127
3, 22260, Note_on_c, 1, 31, 0
3, 22260, Note_on_c, 1, 38, 127
3, 22290, Note_on_c, 1, 38, 0
3, 22290, Note_on_c, 1, 38, 127
3, 22320, Note_on_c, 1, 38, 0
3, 22320, Note_on_c, 1, 42, 127
3, 22380, Note_on_c, 1, 42, 0
3, 22380, Note_on_c, 1, 38, 127
3, 22440, Note_on_c, 1, 43, 0
3, 22440, Note_on_c, 1, 38, 0
3, 22440, Time_signature, 2, 2, 24, 8
3, 22440, Note_on_c, 1, 28, 127
3, 22500, Note_on_c, 1, 28, 0
3, 22500, Note_on_c, 1, 35, 127
3, 22530, Note_on_c, 1, 35, 0
3, 22560, Note_on_c, 1, 30, 127
3, 22620, Note_on_c, 1, 30, 0
3, 22620, Note_on_c, 1, 35, 127
3, 22650, Note_on_c, 1, 35, 0
3, 22680, Time_signature, 6, 2, 24, 8
3, 22680, Note_on_c, 1, 31, 127
3, 22680, Note_on_c, 1, 38, 127
3, 22680, Note_on_c, 1, 43, 127
3, 22860, Note_on_c, 1, 31, 0
3, 22860, Note_on_c, 1, 38, 0
3, 22860, Note_on_c, 1, 43, 0
3, 22860, Note_on_c, 1, 45, 127
3, 22860, Note_on_c, 1, 40, 127
3, 22860, Note_on_c, 1, 33, 127
3, 22920, Note_on_c, 1, 45, 0
3, 22920, Note_on_c, 1, 40, 0
3, 22920, Note_on_c, 1, 33, 0
3, 22920, Note_on_c, 1, 35, 127
3, 22920, Note_on_c, 1, 42, 127
3, 22920, Note_on_c, 1, 47, 127
3, 22980, Note_on_c, 1, 35, 0
3, 22980, Note_on_c, 1, 42, 0
3, 22980, Note_on_c, 1, 47, 0
3, 22980, Note_on_c, 1, 45, 127
3, 22980, Note_on_c, 1, 40, 127
3, 22980, Note_on_c, 1, 33, 127
3, 23040, Note_on_c, 1, 45, 0
3, 23040, Note_on_c, 1, 40, 0
3, 23040, Note_on_c, 1, 33, 0
3, 23040, Note_on_c, 1, 31, 127
3, 23040, Note_on_c, 1, 38, 127
3, 23040, Note_on_c, 1, 43, 127
3, 23160, Note_on_c, 1, 31, 0
3, 23160, Note_on_c, 1, 38, 0
3, 23160, Note_on_c, 1, 43, 0
3, 23160, Note_on_c, 1, 42, 127
3, 23160, Note_on_c, 1, 37, 127
3, 23160, Note_on_c, 1, 30, 127
3, 23280, Note_on_c, 1, 42, 0
3, 23280, Note_on_c, 1, 37, 0
3, 23280, Note_on_c, 1, 30, 0
3, 23280, Note_on_c, 1, 47, 127
3, 23280, Note_on_c, 1, 42, 127
3, 23280, Note_on_c, 1, 35, 127
3, 23400, Note_on_c, 1, 47, 0
3, 23400, Note_on_c, 1, 42, 0
3, 23400, Note_on_c, 1, 35, 0
3, 23400, Note_on_c, 1, 45, 127
3, 23400, Note_on_c, 1, 40, 127
3, 23400, Note_on_c, 1, 33, 127
3, 23580, Note_on_c, 1, 45, 0
3, 23580, Note_on_c, 1, 40, 0
3, 23580, Note_on_c, 1, 33, 0
3, 23580, Note_on_c, 1, 35, 127
3, 23580, Note_on_c, 1, 42, 127
3, 23580, Note_on_c, 1, 47, 127
3, 23640, Note_on_c, 1, 35, 0
3, 23640, Note_on_c, 1, 42, 0
3, 23640, Note_on_c, 1, 47, 0
3, 23640, Note_on_c, 1, 49, 127
3, 23640, Note_on_c, 1, 44, 127
3, 23640, Note_on_c, 1, 37, 127
3, 23700, Note_on_c, 1, 49, 0
3, 23700, Note_on_c, 1, 44, 0
3, 23700, Note_on_c, 1, 37, 0
3, 23700, Note_on_c, 1, 35, 127
3, 23700, Note_on_c, 1, 42, 127
3, 23700, Note_on_c, 1, 47, 127
3, 23760, Note_on_c, 1, 35, 0
3, 23760, Note_on_c, 1, 42, 0
3, 23760, Note_on_c, 1, 47, 0
3, 23760, Note_on_c, 1, 45, 127
3, 23760, Note_on_c, 1, 40, 127
3, 23760, Note_on_c, 1, 33, 127
3, 23880, Note_on_c, 1, 45, 0
3, 23880, Note_on_c, 1, 40, 0
3, 23880, Note_on_c, 1, 33, 0
3, 23880, Control_c, 1, 1, 0
3, 23880, Note_on_c, 1, 36, 127
3, 23881, Control_c, 1, 1, 7
3, 23882, Control_c, 1, 1, 13
3, 23883, Control_c, 1, 1, 20
3, 23884, Control_c, 1, 1, 26
3, 23885, Control_c, 1, 1, 32
3, 23886, Control_c, 1, 1, 39
3, 23887, Control_c, 1, 1, 45
3, 23888, Control_c, 1, 1, 52
3, 23889, Control_c, 1, 1, 58
3, 23890, Control_c, 1, 1, 64
3, 23999, Control_c, 1, 1, 0
3, 24000, Note_on_c, 1, 36, 0
3, 24000, Note_on_c, 1, 37, 127
3, 24120, Note_on_c, 1, 37, 0
3, 24120, Time_signature, 3, 2, 24, 8
3, 24120, Note_on_c, 1, 38, 127
3, 25560, Note_on_c, 1, 38, 0
3, 27000, Note_on_c, 1, 35, 127
3, 27060, Note_on_c, 1, 35, 0
3, 27060, Note_on_c, 1, 42, 127
3, 27120, Note_on_c, 1, 42, 0
3, 27120, Note_on_c, 1, 35, 127
3, 27180, Note_on_c, 1, 35, 0
3, 27180, Note_on_c, 1, 38, 127
3, 27210, Note_on_c, 1, 38, 0
3, 27210, Note_on_c, 1, 38, 127
3, 27240, Note_on_c, 1, 38, 0
3, 27240, Note_on_c, 1, 42, 127
3, 27300, Note_on_c, 1, 42, 0
3, 27300, Note_on_c, 1, 38, 127
3, 27360, Note_on_c, 1, 38, 0
3, 27360, Note_on_c, 1, 31, 127
3, 27420, Note_on_c, 1, 31, 0
3, 27420, Note_on_c, 1, 42, 127
3, 27480, Note_on_c, 1, 42, 0
3, 27480, Note_on_c, 1, 31, 127
3, 27540, Note_on_c, 1, 31, 0
3, 27540, Note_on_c, 1, 38, 127
3, 27600, Note_on_c, 1, 38, 0
3, 27600, Note_on_c, 1, 42, 127
3, 27630, Note_on_c, 1, 42, 0
3, 27630, Note_on_c, 1, 42, 127
3, 27660, Note_on_c, 1, 42, 0
3, 27660, Note_on_c, 1, 38, 127
3, 27720, Note_on_c, 1, 38, 0
3, 27720, Note_on_c, 1, 35, 127
3, 27780, Note_on_c, 1, 35, 0
3, 27780, Note_on_c, 1, 42, 127
3, 27840, Note_on_c, 1, 42, 0
3, 27840, Note_on_c, 1, 35, 127
3, 27900, Note_on_c, 1, 35, 0
3, 27900, Note_on_c, 1, 38, 127
3, 27930, Note_on_c, 1, 38, 0
3, 27930, Note_on_c, 1, 38, 127
3, 27960, Note_on_c, 1, 38, 0
3, 27960, Note_on_c, 1, 42, 127
3, 28020, Note_on_c, 1, 42, 0
3, 28020, Note_on_c, 1, 38, 127
3, 28080, Note_on_c, 1, 38, 0
3, 28080, Note_on_c, 1, 31, 127
3, 28140, Note_on_c, 1, 31, 0
3, 28140, Note_on_c, 1, 42, 127
3, 28200, Note_on_c, 1, 42, 0
3, 28200, Note_on_c, 1, 31, 127
3, 28260, Note_on_c, 1, 31, 0
3, 28260, Note_on_c, 1, 38, 127
3, 28320, Note_on_c, 1, 38, 0
3, 28320, Note_on_c, 1, 33, 127
3, 28320, Note_on_c, 1, 38, 127
3, 28440, Note_on_c, 1, 33, 0
3, 28440, Note_on_c, 1, 38, 0
3, 28440, Note_on_c, 1, 35, 127
3, 28500, Note_on_c, 1, 35, 0
3, 28500, Note_on_c, 1, 42, 127
3, 28560, Note_on_c, 1, 42, 0
3, 28560, Note_on_c, 1, 35, 127
3, 28620, Note_on_c, 1, 35, 0
3, 28620, Note_on_c, 1, 38, 127
3, 28650, Note_on_c, 1, 38, 0
3, 28650, Note_on_c, 1, 38, 127
3, 28680, Note_on_c, 1, 38, 0
3, 28680, Note_on_c, 1, 42, 127
3, 28740, Note_on_c, 1, 42, 0
3, 28740, Note_on_c, 1, 38, 127
3, 28800, Note_on_c, 1, 38, 0
3, 28800, Note_on_c, 1, 33, 127
3, 28860, Note_on_c, 1, 33, 0
3, 28860, Note_on_c, 1, 42, 127
3, 28920, Note_on_c, 1, 42, 0
3, 28920, Note_on_c, 1, 33, 127
3, 28980, Note_on_c, 1, 33, 0
3, 28980, Note_on_c, 1, 38, 127
3, 29040, Note_on_c, 1, 38, 0
3, 29040, Note_on_c, 1, 42, 127
3, 29070, Note_on_c, 1, 42, 0
3, 29070, Note_on_c, 1, 42, 127
3, 29100, Note_on_c, 1, 42, 0
3, 29100, Note_on_c, 1, 43, 127
3, 29160, Note_on_c, 1, 31, 127
3, 29220, Note_on_c, 1, 31, 0
3, 29220, Note_on_c, 1, 42, 127
3, 29280, Note_on_c, 1, 42, 0
3, 29280, Note_on_c, 1, 31, 127
3, 29340, Note_on_c, 1, 31, 0
3, 29340, Note_on_c, 1, 38, 127
3, 29370, Note_on_c, 1, 38, 0
3, 29370, Note_on_c, 1, 38, 127
3, 29400, Note_on_c, 1, 38, 0
3, 29400, Note_on_c, 1, 42, 127
3, 29460, Note_on_c, 1, 42, 0
3, 29460, Note_on_c, 1, 38, 127
3, 29520, Note_on_c, 1, 43, 0
3, 29520, Note_on_c, 1, 38, 0
3, 29520, Time_signature, 2, 2, 24, 8
3, 29520, Note_on_c, 1, 28, 127
3, 29580, Note_on_c, 1, 28, 0
3, 29580, Note_on_c, 1, 35, 127
3, 29610, Note_on_c, 1, 35, 0
3, 29640, Note_on_c, 1, 30, 127
3, 29700, Note_on_c, 1, 30, 0
3, 29700, Note_on_c, 1, 35, 127
3, 29730, Note_on_c, 1, 35, 0
3, 29760, Time_signature, 3, 2, 24, 8
3, 29760, Note_on_c, 1, 35, 127
3, 29820, Note_on_c, 1, 35, 0
3, 29820, Note_on_c, 1, 42, 127
3, 29880, Note_on_c, 1, 42, 0
3, 29880, Note_on_c, 1, 35, 127
3, 29940, Note_on_c, 1, 35, 0
3, 29940, Note_on_c, 1, 38, 127
3, 29970, Note_on_c, 1, 38, 0
3, 29970, Note_on_c, 1, 38, 127
3, 30000, Note_on_c, 1, 38, 0
3, 30000, Note_on_c, 1, 42, 127
3, 30060, Note_on_c, 1, 42, 0
3, 30060, Note_on_c, 1, 38, 127
3, 30120, Note_on_c, 1, 38, 0
3, 30120, Note_on_c, 1, 31, 127
3, 30180, Note_on_c, 1, 31, 0
3, 30180, Note_on_c, 1, 42, 127
3, 30240, Note_on_c, 1, 42, 0
3, 30240, Note_on_c, 1, 31, 127
3, 30300, Note_on_c, 1, 31, 0
3, 30300, Note_on_c, 1, 38, 127
3, 30360, Note_on_c, 1, 38, 0
3, 30360, Note_on_c, 1, 42, 127
3, 30390, Note_on_c, 1, 42, 0
3, 30390, Note_on_c, 1, 42, 127
3, 30420, Note_on_c, 1, 42, 0
3, 30420, Note_on_c, 1, 38, 127
3, 30480, Note_on_c, 1, 38, 0
3, 30480, Note_on_c, 1, 35, 127
3, 30540, Note_on_c, 1, 35, 0
3, 30540, Note_on_c, 1, 42, 127
3, 30600, Note_on_c, 1, 42, 0
3, 30600, Note_on_c, 1, 35, 127
3, 30660, Note_on_c, 1, 35, 0
3, 30660, Note_on_c, 1, 38, 127
3, 30690, Note_on_c, 1, 38, 0
3, 30690, Note_on_c, 1, 38, 127
3, 30720, Note_on_c, 1, 38, 0
3, 30720, Note_on_c, 1, 42, 127
3, 30780, Note_on_c, 1, 42, 0
3, 30780, Note_on_c, 1, 38, 127
3, 30840, Note_on_c, 1, 38, 0
3, 30840, Note_on_c, 1, 31, 127
3, 30900, Note_on_c, 1, 31, 0
3, 30900, Note_on_c, 1, 42, 127
3, 30960, Note_on_c, 1, 42, 0
3, 30960, Note_on_c, 1, 31, 127
3, 31020, Note_on_c, 1, 31, 0
3, 31020, Note_on_c, 1, 38, 127
3, 31080, Note_on_c, 1, 38, 0
3, 31080, Note_on_c, 1, 33, 127
3, 31080, Note_on_c, 1, 38, 127
3, 31200, Note_on_c, 1, 33, 0
3, 31200, Note_on_c, 1, 38, 0
3, 31200, Note_on_c, 1, 35, 127
3, 31260, Note_on_c, 1, 35, 0
3, 31260, Note_on_c, 1, 42, 127
3, 31320, Note_on_c, 1, 42, 0
3, 31320, Note_on_c, 1, 35, 127
3, 31380, Note_on_c, 1, 35, 0
3, 31380, Note_on_c, 1, 38, 127
3, 31410, Note_on_c, 1, 38, 0
3, 31410, Note_on_c, 1, 38, 127
3, 31440, Note_on_c, 1, 38, 0
3, 31440, Note_on_c, 1, 42, 127
3, 31500, Note_on_c, 1, 42, 0
3, 31500, Note_on_c, 1, 38, 127
3, 31560, Note_on_c, 1, 38, 0
3, 31560, Note_on_c, 1, 33, 127
3, 31620, Note_on_c, 1, 33, 0
3, 31620, Note_on_c, 1, 42, 127
3, 31680, Note_on_c, 1, 42, 0
3, 31680, Note_on_c, 1, 33, 127
3, 31740, Note_on_c, 1, 33, 0
3, 31740, Note_on_c, 1, 38, 127
3, 31800, Note_on_c, 1, 38, 0
3, 31800, Note_on_c, 1, 42, 127
3, 31830, Note_on_c, 1, 42, 0
3, 31830, Note_on_c, 1, 42, 127
3, 31860, Note_on_c, 1, 42, 0
3, 31860, Note_on_c, 1, 43, 127
3, 31920, Note_on_c, 1, 31, 127
3, 31980, Note_on_c, 1, 31, 0
3, 31980, Note_on_c, 1, 42, 127
3, 32040, Note_on_c, 1, 42, 0
3, 32040, Note_on_c, 1, 31, 127
3, 32100, Note_on_c, 1, 31, 0
3, 32100, Note_on_c, 1, 38, 127
3, 32130, Note_on_c, 1, 38, 0
3, 32130, Note_on_c, 1, 38, 127
3, 32160, Note_on_c, 1, 38, 0
3, 32160, Note_on_c, 1, 42, 127
3, 32220, Note_on_c, 1, 42, 0
3, 32220, Note_on_c, 1, 38, 127
3, 32280, Note_on_c, 1, 43, 0
3, 32280, Note_on_c, 1, 38, 0
3, 32280, Time_signature, 2, 2, 24, 8
3, 32280, Note_on_c, 1, 28, 127
3, 32340, Note_on_c, 1, 28, 0
3, 32340, Note_on_c, 1, 35, 127
3, 32370, Note_on_c, 1, 35, 0
3, 32400, Note_on_c, 1, 30, 127
3, 32460, Note_on_c, 1, 30, 0
3, 32460, Note_on_c, 1, 35, 127
3, 32490, Note_on_c, 1, 35, 0
3, 32520, Time_signature, 6, 2, 24, 8
3, 32520, Note_on_c, 1, 31, 127
3, 32520, Note_on_c, 1, 38, 127
3, 32520, Note_on_c, 1, 43, 127
3, 32700, Note_on_c, 1, 31, 0
3, 32700, Note_on_c, 1, 38, 0
3, 32700, Note_on_c, 1, 43, 0
3, 32700, Note_on_c, 1, 45, 127
3, 32700, Note_on_c, 1, 40, 127
3, 32700, Note_on_c, 1, 33, 127
3, 32760, Note_on_c, 1, 45, 0
3, 32760, Note_on_c, 1, 40, 0
3, 32760, Note_on_c, 1, 33, 0
3, 32760, Note_on_c, 1, 35, 127
3, 32760, Note_on_c, 1, 42, 127
3, 32760, Note_on_c, 1, 47, 127
3, 32820, Note_on_c, 1, 35, 0
3, 32820, Note_on_c, 1, 42, 0
3, 32820, Note_on_c, 1, 47, 0
3, 32820, Note_on_c, 1, 45, 127
3, 32820, Note_on_c, 1, 40, 127
3, 32820, Note_on_c, 1, 33, 127
3, 32880, Note_on_c, 1, 45, 0
3, 32880, Note_on_c, 1, 40, 0
3, 32880, Note_on_c, 1, 33, 0
3, 32880, Note_on_c, 1, 31, 127
3, 32880, Note_on_c, 1, 38, 127
3, 32880, Note_on_c, 1, 43, 127
3, 33000, Note_on_c, 1, 31, 0
3, 33000, Note_on_c, 1, 38, 0
3, 33000, Note_on_c, 1, 43, 0
3, 33000, Note_on_c, 1, 42, 127
3, 33000, Note_on_c, 1, 37, 127
3, 33000, Note_on_c, 1, 30, 127
3, 33120, Note_on_c, 1, 42, 0
3, 33120, Note_on_c, 1, 37, 0
3, 33120, Note_on_c, 1, 30, 0
3, 33120, Note_on_c, 1, 47, 127
3, 33120, Note_on_c, 1, 42, 127
3, 33120, Note_on_c, 1, 35, 127
3, 33240, Note_on_c, 1, 47, 0
3, 33240, Note_on_c, 1, 42, 0
3, 33240, Note_on_c, 1, 35, 0
3, 33240, Note_on_c, 1, 45, 127
3, 33240, Note_on_c, 1, 40, 127
3, 33240, Note_on_c, 1, 33, 127
3, 33420, Note_on_c, 1, 45, 0
3, 33420, Note_on_c, 1, 40, 0
3, 33420, Note_on_c, 1, 33, 0
3, 33420, Note_on_c, 1, 35, 127
3, 33420, Note_on_c, 1, 42, 127
3, 33420, Note_on_c, 1, 47, 127
3, 33480, Note_on_c, 1, 35, 0
3, 33480, Note_on_c, 1, 42, 0
3, 33480, Note_on_c, 1, 47, 0
3, 33480, Note_on_c, 1, 49, 127
3, 33480, Note_on_c, 1, 44, 127
3, 33480, Note_on_c, 1, 37, 127
3, 33540, Note_on_c, 1, 49, 0
3, 33540, Note_on_c, 1, 44, 0
3, 33540, Note_on_c, 1, 37, 0
3, 33540, Note_on_c, 1, 35, 127
3, 33540, Note_on_c, 1, 42, 127
3, 33540, Note_on_c, 1, 47, 127
3, 33600, Note_on_c, 1, 35, 0
3, 33600, Note_on_c, 1, 42, 0
3, 33600, Note_on_c, 1, 47, 0
3, 33600, Note_on_c, 1, 45, 127
3, 33600, Note_on_c, 1, 40, 127
3, 33600, Note_on_c, 1, 33, 127
3, 33720, Note_on_c, 1, 45, 0
3, 33720, Note_on_c, 1, 40, 0
3, 33720, Note_on_c, 1, 33, 0
3, 33720, Control_c, 1, 1, 0
3, 33720, Note_on_c, 1, 36, 127
3, 33721, Control_c, 1, 1, 7
3, 33722, Control_c, 1, 1, 13
3, 33723, Control_c, 1, 1, 20
3, 33724, Control_c, 1, 1, 26
3, 33725, Control_c, 1, 1, 32
3, 33726, Control_c, 1, 1, 39
3, 33727, Control_c, 1, 1, 45
3, 33728, Control_c, 1, 1, 52
3, 33729, Control_c, 1, 1, 58
3, 33730, Control_c, 1, 1, 64
3, 33839, Control_c, 1, 1, 0
3, 33840, Note_on_c, 1, 36, 0
3, 33840, Note_on_c, 1, 37, 127
3, 33960, Note_on_c, 1, 37, 0
3, 33960, Time_signature, 3, 2, 24, 8
3, 33960, Note_on_c, 1, 38, 127
3, 35280, Note_on_c, 1, 38, 0
3, 35280, Note_on_c, 1, 57, 127
3, 35310, Note_on_c, 1, 57, 0
3, 35310, Note_on_c, 1, 54, 127
3, 35340, Note_on_c, 1, 54, 0
3, 35340, Note_on_c, 1, 50, 127
3, 35370, Note_on_c, 1, 50, 0
3, 35370, Note_on_c, 1, 54, 127
3, 35400, Note_on_c, 1, 54, 0
3, 35400, Note_on_c, 1, 57, 127
3, 35520, Note_on_c, 1, 57, 0
3, 35520, Note_on_c, 1, 57, 127
3, 35580, Note_on_c, 1, 57, 0
3, 35580, Note_on_c, 1, 55, 127
3, 35640, Note_on_c, 1, 55, 0
3, 35640, Note_on_c, 1, 54, 127
3, 35700, Note_on_c, 1, 54, 0
3, 35700, Note_on_c, 1, 52, 127
3, 35760, Note_on_c, 1, 52, 0
3, 35760, Note_on_c, 1, 54, 127
3, 35820, Note_on_c, 1, 54, 0
3, 35820, Note_on_c, 1, 55, 127
3, 35850, Note_on_c, 1, 55, 0
3, 35850, Note_on_c, 1, 54, 127
3, 35880, Note_on_c, 1, 54, 0
3, 35880, Note_on_c, 1, 50, 127
3, 36120, Note_on_c, 1, 50, 0
3, 36120, Note_on_c, 1, 62, 127
3, 36180, Note_on_c, 1, 62, 0
3, 36180, Note_on_c, 1, 60, 127
3, 36240, Note_on_c, 1, 60, 0
3, 36240, Note_on_c, 1, 59, 127
3, 36300, Note_on_c, 1, 59, 0
3, 36300, Note_on_c, 1, 57, 127
3, 36360, Note_on_c, 1, 57, 0
3, 36360, Note_on_c, 1, 59, 127
3, 36420, Note_on_c, 1, 59, 0
3, 36420, Note_on_c, 1, 60, 127
3, 36480, Note_on_c, 1, 60, 0
3, 36480, Control_c, 1, 1, 0
3, 36480, Note_on_c, 1, 55, 127
3, 36481, Control_c, 1, 1, 7
3, 36482, Control_c, 1, 1, 13
3, 36483, Control_c, 1, 1, 20
3, 36484, Control_c, 1, 1, 26
3, 36485, Control_c, 1, 1, 32
3, 36486, Control_c, 1, 1, 39
3, 36487, Control_c, 1, 1, 45
3, 36488, Control_c, 1, 1, 52
3, 36489, Control_c, 1, 1, 58
3, 36490, Control_c, 1, 1, 64
3, 36719, Control_c, 1, 1, 0
3, 36720, Note_on_c, 1, 55, 0
3, 36720, Note_on_c, 1, 69, 127
3, 36750, Note_on_c, 1, 69, 0
3, 36750, Note_on_c, 1, 66, 127
3, 36780, Note_on_c, 1, 66, 0
3, 36780, Note_on_c, 1, 62, 127
3, 36810, Note_on_c, 1, 62, 0
3, 36810, Note_on_c, 1, 66, 127
3, 36840, Note_on_c, 1, 66, 0
3, 36840, Note_on_c, 1, 69, 127
3, 36960, Note_on_c, 1, 69, 0
3, 36960, Note_on_c, 1, 69, 127
3, 37020, Note_on_c, 1, 69, 0
3, 37020, Note_on_c, 1, 67, 127
3, 37080, Note_on_c, 1, 67, 0
3, 37080, Note_on_c, 1, 66, 127
3, 37140, Note_on_c, 1, 66, 0
3, 37140, Note_on_c, 1, 67, 127
3, 37170, Note_on_c, 1, 67, 0
3, 37170, Note_on_c, 1, 66, 127
3, 37200, Note_on_c, 1, 66, 0
3, 37200, Note_on_c, 1, 62, 127
3, 37320, Note_on_c, 1, 62, 0
3, 37320, Note_on_c, 1, 62, 127
3, 37380, Note_on_c, 1, 62, 0
3, 37380, Note_on_c, 1, 66, 127
3, 37440, Note_on_c, 1, 66, 0
3, 37440, Note_on_c, 1, 67, 127
3, 37500, Note_on_c, 1, 67, 0
3, 37500, Note_on_c, 1, 69, 127
3, 37560, Note_on_c, 1, 69, 0
3, 37560, Note_on_c, 1, 71, 127
3, 37580, Note_on_c, 1, 71, 0
3, 37580, Note_on_c, 1, 69, 127
3, 37600, Note_on_c, 1, 69, 0
3, 37600, Note_on_c, 1, 67, 127
3, 37620, Note_on_c, 1, 67, 0
3, 37620, Note_on_c, 1, 71, 127
3, 37640, Note_on_c, 1, 71, 0
3, 37640, Note_on_c, 1, 69, 127
3, 37660, Note_on_c, 1, 69, 0
3, 37660, Note_on_c, 1, 67, 127
3, 37680, Note_on_c, 1, 67, 0
3, 37680, Note_on_c, 1, 71, 127
3, 37700, Note_on_c, 1, 71, 0
3, 37700, Note_on_c, 1, 69, 127
3, 37720, Note_on_c, 1, 69, 0
3, 37720, Note_on_c, 1, 67, 127
3, 37740, Note_on_c, 1, 67, 0
3, 37740, Note_on_c, 1, 66, 127
3, 37770, Note_on_c, 1, 66, 0
3, 37770, Note_on_c, 1, 67, 127
3, 37800, Note_on_c, 1, 67, 0
3, 37800, Note_on_c, 1, 64, 127
3, 37830, Note_on_c, 1, 64, 0
3, 37830, Note_on_c, 1, 66, 127
3, 37860, Note_on_c, 1, 66, 0
3, 37860, Note_on_c, 1, 62, 127
3, 38160, Note_on_c, 1, 62, 0
3, 38280, Note_on_c, 1, 50, 127
3, 38280, Note_on_c, 1, 55, 127
3, 38400, Note_on_c, 1, 50, 0
3, 38400, Note_on_c, 1, 55, 0
3, 38400, Note_on_c, 1, 55, 127
3, 38400, Note_on_c, 1, 50, 127
3, 38460, Note_on_c, 1, 55, 0
3, 38460, Note_on_c, 1, 50, 0
3, 38460, Note_on_c, 1, 50, 127
3, 38460, Note_on_c, 1, 55, 127
3, 38520, Note_on_c, 1, 55, 0
3, 38520, Note_on_c, 1, 54, 127
3, 38580, Note_on_c, 1, 50, 0
3, 38580, Note_on_c, 1, 54, 0
3, 38580, Note_on_c, 1, 54, 127
3, 38580, Note_on_c, 1, 50, 127
3, 38640, Note_on_c, 1, 54, 0
3, 38640, Note_on_c, 1, 50, 0
3, 38640, Note_on_c, 1, 60, 127
3, 38640, Note_on_c, 1, 55, 127
3, 38700, Note_on_c, 1, 60, 0
3, 38700, Note_on_c, 1, 55, 0
3, 38700, Note_on_c, 1, 60, 127
3, 38700, Note_on_c, 1, 55, 127
3, 38760, Note_on_c, 1, 60, 0
3, 38760, Note_on_c, 1, 55, 0
3, 38760, Note_on_c, 1, 60, 127
3, 38760, Note_on_c, 1, 55, 127
3, 38820, Note_on_c, 1, 60, 0
3, 38820, Note_on_c, 1, 55, 0
3, 38820, Note_on_c, 1, 60, 127
3, 38820, Note_on_c, 1, 55, 127
3, 38880, Note_on_c, 1, 60, 0
3, 38880, Note_on_c, 1, 55, 0
3, 38880, Note_on_c, 1, 59, 127
3, 38880, Note_on_c, 1, 55, 127
3, 38940, Note_on_c, 1, 59, 0
3, 38940, Note_on_c, 1, 55, 0
3, 39000, Note_on_c, 1, 72, 127
3, 39020, Note_on_c, 1, 72, 0
3, 39020, Note_on_c, 1, 69, 127
3, 39040, Note_on_c, 1, 69, 0
3, 39040, Note_on_c, 1, 65, 127
3, 39060, Note_on_c, 1, 65, 0
3, 39060, Note_on_c, 1, 72, 127
3, 39080, Note_on_c, 1, 72, 0
3, 39080, Note_on_c, 1, 69, 127
3, 39100, Note_on_c, 1, 69, 0
3, 39100, Note_on_c, 1, 65, 127
3, 39120, Note_on_c, 1, 65, 0
3, 39120, Note_on_c, 1, 72, 127
3, 39140, Note_on_c, 1, 72, 0
3, 39140, Note_on_c, 1, 69, 127
3, 39160, Note_on_c, 1, 69, 0
3, 39160, Note_on_c, 1, 65, 127
3, 39180, Note_on_c, 1, 65, 0
3, 39180, Note_on_c, 1, 72, 127
3, 39200, Note_on_c, 1, 72, 0
3, 39200, Note_on_c, 1, 69, 127
3, 39220, Note_on_c, 1, 69, 0
3, 39220, Note_on_c, 1, 65, 127
3, 39240, Note_on_c, 1, 65, 0
3, 39240, Note_on_c, 1, 72, 127
3, 39260, Note_on_c, 1, 72, 0
3, 39260, Note_on_c, 1, 69, 127
3, 39280, Note_on_c, 1, 69, 0
3, 39280, Note_on_c, 1, 65, 127
3, 39300, Note_on_c, 1, 65, 0
3, 39300, Note_on_c, 1, 72, 127
3, 39320, Note_on_c, 1, 72, 0
3, 39320, Note_on_c, 1, 69, 127
3, 39340, Note_on_c, 1, 69, 0
3, 39340, Note_on_c, 1, 65, 127
3, 39355, Note_on_c, 1, 72, 75
3, 39360, Note_on_c, 1, 65, 0
3, 39360, Note_on_c, 1, 72, 0
3, 39360, Note_on_c, 1, 64, 127
3, 39390, Note_on_c, 1, 64, 0
3, 39390, Note_on_c, 1, 65, 127
3, 39420, Note_on_c, 1, 65, 0
3, 39420, Note_on_c, 1, 64, 127
3, 39475, Note_on_c, 1, 72, 75
3, 39480, Note_on_c, 1, 64, 0
3, 39480, Note_on_c, 1, 72, 0
3, 39480, Note_on_c, 1, 64, 127
3, 39510, Note_on_c, 1, 64, 0
3, 39510, Note_on_c, 1, 65, 127
3, 39540, Note_on_c, 1, 65, 0
3, 39540, Note_on_c, 1, 64, 127
3, 39720, Note_on_c, 1, 64, 0
3, 39720, Time_signature, 6, 2, 24, 8
3, 39720, Note_on_c, 1, 43, 127
3, 39720, Note_on_c, 1, 38, 127
3, 39720, Note_on_c, 1, 31, 127
3, 39900, Note_on_c, 1, 43, 0
3, 39900, Note_on_c, 1, 38, 0
3, 39900, Note_on_c, 1, 31, 0
3, 39900, Note_on_c, 1, 33, 127
3, 39900, Note_on_c, 1, 40, 127
3, 39900, Note_on_c, 1, 45, 127
3, 39960, Note_on_c, 1, 33, 0
3, 39960, Note_on_c, 1, 40, 0
3, 39960, Note_on_c, 1, 45, 0
3, 39960, Note_on_c, 1, 47, 127
3, 39960, Note_on_c, 1, 42, 127
3, 39960, Note_on_c, 1, 35, 127
3, 40020, Note_on_c, 1, 47, 0
3, 40020, Note_on_c, 1, 42, 0
3, 40020, Note_on_c, 1, 35, 0
3, 40020, Note_on_c, 1, 33, 127
3, 40020, Note_on_c, 1, 40, 127
3, 40020, Note_on_c, 1, 45, 127
3, 40080, Note_on_c, 1, 33, 0
3, 40080, Note_on_c, 1, 40, 0
3, 40080, Note_on_c, 1, 45, 0
3, 40080, Note_on_c, 1, 43, 127
3, 40080, Note_on_c, 1, 38, 127
3, 40080, Note_on_c, 1, 31, 127
3, 40200, Note_on_c, 1, 43, 0
3, 40200, Note_on_c, 1, 38, 0
3, 40200, Note_on_c, 1, 31, 0
3, 40200, Note_on_c, 1, 30, 127
3, 40200, Note_on_c, 1, 37, 127
3, 40200, Note_on_c, 1, 42, 127
3, 40320, Note_on_c, 1, 30, 0
3, 40320, Note_on_c, 1, 37, 0
3, 40320, Note_on_c, 1, 42, 0
3, 40320, Note_on_c, 1, 47, 127
3, 40320, Note_on_c, 1, 42, 127
3, 40320, Note_on_c, 1, 31, 127
3, 40440, Note_on_c, 1, 47, 0
3, 40440, Note_on_c, 1, 42, 0
3, 40440, Note_on_c, 1, 31, 0
3, 40440, Note_on_c, 1, 45, 127
3, 40440, Note_on_c, 1, 40, 127
3, 40440, Note_on_c, 1, 33, 127
3, 40620, Note_on_c, 1, 45, 0
3, 40620, Note_on_c, 1, 40, 0
3, 40620, Note_on_c, 1, 33, 0
3, 40620, Note_on_c, 1, 35, 127
3, 40620, Note_on_c, 1, 42, 127
3, 40620, Note_on_c, 1, 47, 127
3, 40680, Note_on_c, 1, 35, 0
3, 40680, Note_on_c, 1, 42, 0
3, 40680, Note_on_c, 1, 47, 0
3, 40680, Note_on_c, 1, 49, 127
3, 40680, Note_on_c, 1, 44, 127
3, 40680, Note_on_c, 1, 37, 127
3, 40740, Note_on_c, 1, 49, 0
3, 40740, Note_on_c, 1, 44, 0
3, 40740, Note_on_c, 1, 37, 0
3, 40740, Note_on_c, 1, 35, 127
3, 40740, Note_on_c, 1, 42, 127
3, 40740, Note_on_c, 1, 47, 127
3, 40800, Note_on_c, 1, 35, 0
3, 40800, Note_on_c, 1, 42, 0
3, 40800, Note_on_c, 1, 47, 0
3, 40800, Note_on_c, 1, 45, 127
3, 40800, Note_on_c, 1, 40, 127
3, 40800, Note_on_c, 1, 33, 127
3, 40920, Note_on_c, 1, 45, 0
3, 40920, Note_on_c, 1, 40, 0
3, 40920, Note_on_c, 1, 33, 0
3, 40920, Note_on_c, 1, 35, 127
3, 40920, Note_on_c, 1, 42, 127
3, 40920, Note_on_c, 1, 47, 127
3, 41040, Note_on_c, 1, 35, 0
3, 41040, Note_on_c, 1, 42, 0
3, 41040, Note_on_c, 1, 47, 0
3, 41040, Note_on_c, 1, 49, 127
3, 41040, Note_on_c, 1, 44, 127
3, 41040, Note_on_c, 1, 37, 127
3, 41160, Note_on_c, 1, 49, 0
3, 41160, Note_on_c, 1, 44, 0
3, 41160, Note_on_c, 1, 37, 0
3, 41160, Note_on_c, 1, 43, 127
3, 41160, Note_on_c, 1, 38, 127
3, 41160, Note_on_c, 1, 31, 127
3, 41340, Note_on_c, 1, 43, 0
3, 41340, Note_on_c, 1, 38, 0
3, 41340, Note_on_c, 1, 31, 0
3, 41340, Note_on_c, 1, 33, 127
3, 41340, Note_on_c, 1, 40, 127
3, 41340, Note_on_c, 1, 45, 127
3, 41400, Note_on_c, 1, 33, 0
3, 41400, Note_on_c, 1, 40, 0
3, 41400, Note_on_c, 1, 45, 0
3, 41400, Note_on_c, 1, 47, 127
3, 41400, Note_on_c, 1, 42, 127
3, 41400, Note_on_c, 1, 35, 127
3, 41460, Note_on_c, 1, 47, 0
3, 41460, Note_on_c, 1, 42, 0
3, 41460, Note_on_c, 1, 35, 0
3, 41460, Note_on_c, 1, 33, 127
3, 41460, Note_on_c, 1, 40, 127
3, 41460, Note_on_c, 1, 45, 127
3, 41520, Note_on_c, 1, 33, 0
3, 41520, Note_on_c, 1, 40, 0
3, 41520, Note_on_c, 1, 45, 0
3, 41520, Note_on_c, 1, 43, 127
3, 41520, Note_on_c, 1, 38, 127
3, 41520, Note_on_c, 1, 31, 127
3, 41640, Note_on_c, 1, 43, 0
3, 41640, Note_on_c, 1, 38, 0
3, 41640, Note_on_c, 1, 31, 0
3, 41640, Note_on_c, 1, 30, 127
3, 41640, Note_on_c, 1, 37, 127
3, 41640, Note_on_c, 1, 42, 127
3, 41760, Note_on_c, 1, 30, 0
3, 41760, Note_on_c, 1, 37, 0
3, 41760, Note_on_c, 1, 42, 0
3, 41760, Note_on_c, 1, 47, 127
3, 41760, Note_on_c, 1, 42, 127
3, 41760, Note_on_c, 1, 31, 127
3, 41880, Note_on_c, 1, 47, 0
3, 41880, Note_on_c, 1, 42, 0
3, 41880, Note_on_c, 1, 31, 0
3, 41880, Note_on_c, 1, 45, 127
3, 41880, Note_on_c, 1, 40, 127
3, 41880, Note_on_c, 1, 33, 127
3, 42060, Note_on_c, 1, 45, 0
3, 42060, Note_on_c, 1, 40, 0
3, 42060, Note_on_c, 1, 33, 0
3, 42060, Note_on_c, 1, 35, 127
3, 42060, Note_on_c, 1, 42, 127
3, 42060, Note_on_c, 1, 47, 127
3, 42120, Note_on_c, 1, 35, 0
3, 42120, Note_on_c, 1, 42, 0
3, 42120, Note_on_c, 1, 47, 0
3, 42120, Note_on_c, 1, 49, 127
3, 42120, Note_on_c, 1, 44, 127
3, 42120, Note_on_c, 1, 37, 127
3, 42180, Note_on_c, 1, 49, 0
3, 42180, Note_on_c, 1, 44, 0
3, 42180, Note_on_c, 1, 37, 0
3, 42180, Note_on_c, 1, 35, 127
3, 42180, Note_on_c, 1, 42, 127
3, 42180, Note_on_c, 1, 47, 127
3, 42240, Note_on_c, 1, 35, 0
3, 42240, Note_on_c, 1, 42, 0
3, 42240, Note_on_c, 1, 47, 0
3, 42240, Note_on_c, 1, 45, 127
3, 42240, Note_on_c, 1, 40, 127
3, 42240, Note_on_c, 1, 33, 127
3, 42360, Note_on_c, 1, 45, 0
3, 42360, Note_on_c, 1, 40, 0
3, 42360, Note_on_c, 1, 33, 0
3, 42360, Note_on_c, 1, 35, 127
3, 42360, Note_on_c, 1, 42, 127
3, 42360, Note_on_c, 1, 47, 127
3, 42480, Note_on_c, 1, 35, 0
3, 42480, Note_on_c, 1, 42, 0
3, 42480, Note_on_c, 1, 47, 0
3, 42480, Note_on_c, 1, 49, 127
3, 42480, Note_on_c, 1, 44, 127
3, 42480, Note_on_c, 1, 37, 127
3, 42600, Note_on_c, 1, 49, 0
3, 42600, Note_on_c, 1, 44, 0
3, 42600, Note_on_c, 1, 37, 0
3, 42600, Note_on_c, 1, 43, 127
3, 42600, Note_on_c, 1, 38, 127
3, 42600, Note_on_c, 1, 31, 127
3, 42780, Note_on_c, 1, 43, 0
3, 42780, Note_on_c, 1, 38, 0
3, 42780, Note_on_c, 1, 31, 0
3, 42780, Note_on_c, 1, 33, 127
3, 42780, Note_on_c, 1, 40, 127
3, 42780, Note_on_c, 1, 45, 127
3, 42840, Note_on_c, 1, 33, 0
3, 42840, Note_on_c, 1, 40, 0
3, 42840, Note_on_c, 1, 45, 0
3, 42840, Note_on_c, 1, 47, 127
3, 42840, Note_on_c, 1, 42, 127
3, 42840, Note_on_c, 1, 35, 127
3, 42900, Note_on_c, 1, 47, 0
3, 42900, Note_on_c, 1, 42, 0
3, 42900, Note_on_c, 1, 35, 0
3, 42900, Note_on_c, 1, 33, 127
3, 42900, Note_on_c, 1, 40, 127
3, 42900, Note_on_c, 1, 45, 127
3, 42960, Note_on_c, 1, 33, 0
3, 42960, Note_on_c, 1, 40, 0
3, 42960, Note_on_c, 1, 45, 0
3, 42960, Note_on_c, 1, 43, 127
3, 42960, Note_on_c, 1, 38, 127
3, 42960, Note_on_c, 1, 31, 127
3, 43080, Note_on_c, 1, 43, 0
3, 43080, Note_on_c, 1, 38, 0
3, 43080, Note_on_c, 1, 31, 0
3, 43080, Note_on_c, 1, 30, 127
3, 43080, Note_on_c, 1, 37, 127
3, 43080, Note_on_c, 1, 42, 127
3, 43200, Note_on_c, 1, 30, 0
3, 43200, Note_on_c, 1, 37, 0
3, 43200, Note_on_c, 1, 42, 0
3, 43200, Note_on_c, 1, 47, 127
3, 43200, Note_on_c, 1, 42, 127
3, 43200, Note_on_c, 1, 31, 127
3, 43320, Note_on_c, 1, 47, 0
3, 43320, Note_on_c, 1, 42, 0
3, 43320, Note_on_c, 1, 31, 0
3, 43320, Time_signature, 3, 2, 24, 8
3, 43320, Note_on_c, 1, 45, 127
3, 43320, Note_on_c, 1, 40, 127
3, 43500, Note_on_c, 1, 45, 0
3, 43500, Note_on_c, 1, 40, 0
3, 43500, Note_on_c, 1, 38, 127
3, 43500, Note_on_c, 1, 43, 127
3, 43560, Note_on_c, 1, 38, 0
3, 43560, Note_on_c, 1, 43, 0
3, 43560, Note_on_c, 1, 45, 127
3, 43560, Note_on_c, 1, 40, 127
3, 43620, Note_on_c, 1, 45, 0
3, 43620, Note_on_c, 1, 40, 0
3, 43620, Note_on_c, 1, 45, 127
3, 43620, Note_on_c, 1, 42, 127
3, 43680, Note_on_c, 1, 45, 0
3, 43680, Note_on_c, 1, 42, 0
3, 43680, Note_on_c, 1, 43, 127
3, 43680, Note_on_c, 1, 47, 127
3, 43800, Note_on_c, 1, 43, 0
3, 43800, Note_on_c, 1, 47, 0
3, 43800, Note_on_c, 1, 43, 127
3, 43800, Note_on_c, 1, 47, 127
3, 43860, Note_on_c, 1, 43, 0
3, 43860, Note_on_c, 1, 47, 0
3, 43860, Note_on_c, 1, 48, 127
3, 43860, Note_on_c, 1, 45, 127
3, 43920, Note_on_c, 1, 48, 0
3, 43920, Note_on_c, 1, 45, 0
3, 43920, Note_on_c, 1, 43, 127
3, 43920, Note_on_c, 1, 47, 127
3, 44040, Note_on_c, 1, 43, 0
3, 44040, Note_on_c, 1, 47, 0
3, 44040, Note_on_c, 1, 47, 127
3, 44040, Note_on_c, 1, 51, 127
3, 44040, Note_on_c, 1, 54, 127
3, 44280, Note_on_c, 1, 47, 0
3, 44280, Note_on_c, 1, 51, 0
3, 44280, Note_on_c, 1, 54, 0
3, 44280, Note_on_c, 1, 54, 127
3, 44280, Note_on_c, 1, 51, 127
3, 44280, Note_on_c, 1, 47, 127
3, 44400, Note_on_c, 1, 54, 0
3, 44400, Note_on_c, 1, 51, 0
3, 44400, Note_on_c, 1, 47, 0
3, 44400, Note_on_c, 1, 47, 127
3, 44430, Note_on_c, 1, 47, 0
3, 44430, Note_on_c, 1, 45, 127
3, 44460, Note_on_c, 1, 45, 0
3, 44460, Note_on_c, 1, 43, 127
3, 44760, Note_on_c, 1, 43, 0
3, 44760, Note_on_c, 1, 45, 127
3, 44760, Note_on_c, 1, 40, 127
3, 44940, Note_on_c, 1, 45, 0
3, 44940, Note_on_c, 1, 40, 0
3, 44940, Note_on_c, 1, 38, 127
3, 44940, Note_on_c, 1, 43, 127
3, 45000, Note_on_c, 1, 38, 0
3, 45000, Note_on_c, 1, 43, 0
3, 45000, Note_on_c, 1, 45, 127
3, 45000, Note_on_c, 1, 40, 127
3, 45060, Note_on_c, 1, 45, 0
3, 45060, Note_on_c, 1, 40, 0
3, 45060, Note_on_c, 1, 45, 127
3, 45060, Note_on_c, 1, 42, 127
3, 45120, Note_on_c, 1, 45, 0
3, 45120, Note_on_c, 1, 42, 0
3, 45120, Note_on_c, 1, 43, 127
3, 45120, Note_on_c, 1, 47, 127
3, 45240, Note_on_c, 1, 43, 0
3, 45240, Note_on_c, 1, 47, 0
3, 45240, Note_on_c, 1, 43, 127
3, 45240, Note_on_c, 1, 47, 127
3, 45300, Note_on_c, 1, 43, 0
3, 45300, Note_on_c, 1, 47, 0
3, 45300, Note_on_c, 1, 48, 127
3, 45300, Note_on_c, 1, 45, 127
3, 45360, Note_on_c, 1, 48, 0
3, 45360, Note_on_c, 1, 45, 0
3, 45360, Note_on_c, 1, 43, 127
3, 45360, Note_on_c, 1, 47, 127
3, 45480, Note_on_c, 1, 43, 0
3, 45480, Note_on_c, 1, 47, 0
3, 45480, Note_on_c, 1, 47, 127
3, 45480, Note_on_c, 1, 51, 127
3, 45480, Note_on_c, 1, 54, 127
3, 45720, Note_on_c, 1, 47, 0
3, 45720, Note_on_c, 1, 51, 0
3, 45720, Note_on_c, 1, 54, 0
3, 45720, Note_on_c, 1, 54, 127
3, 45720, Note_on_c, 1, 51, 127
3, 45720, Note_on_c, 1, 47, 127
3, 45840, Note_on_c, 1, 54, 0
3, 45840, Note_on_c, 1, 51, 0
3, 45840, Note_on_c, 1, 47, 0
3, 45840, Note_on_c, 1, 47, 127
3, 45870, Note_on_c, 1, 47, 0
3, 45870, Note_on_c, 1, 45, 127
3, 45900, Note_on_c, 1, 45, 0
3, 45900, Note_on_c, 1, 43, 127
3, 46200, Note_on_c, 1, 43, 0
3, 46200, Note_on_c, 1, 45, 127
3, 46200, Note_on_c, 1, 40, 127
3, 46380, Note_on_c, 1, 45, 0
3, 46380, Note_on_c, 1, 40, 0
3, 46380, Note_on_c, 1, 38, 127
3, 46380, Note_on_c, 1, 43, 127
3, 46440, Note_on_c, 1, 38, 0
3, 46440, Note_on_c, 1, 43, 0
3, 46440, Note_on_c, 1, 45, 127
3, 46440, Note_on_c, 1, 40, 127
3, 46500, Note_on_c, 1, 45, 0
3, 46500, Note_on_c, 1, 40, 0
3, 46500, Note_on_c, 1, 45, 127
3, 46500, Note_on_c, 1, 42, 127
3, 46560, Note_on_c, 1, 45, 0
3, 46560, Note_on_c, 1, 42, 0
3, 46560, Note_on_c, 1, 43, 127
3, 46560, Note_on_c, 1, 47, 127
3, 46680, Note_on_c, 1, 43, 0
3, 46680, Note_on_c, 1, 47, 0
3, 46680, Note_on_c, 1, 43, 127
3, 46680, Note_on_c, 1, 47, 127
3, 46740, Note_on_c, 1, 43, 0
3, 46740, Note_on_c, 1, 47, 0
3, 46740, Note_on_c, 1, 48, 127
3, 46740, Note_on_c, 1, 45, 127
3, 46800, Note_on_c, 1, 48, 0
3, 46800, Note_on_c, 1, 45, 0
3, 46800, Note_on_c, 1, 43, 127
3, 46800, Note_on_c, 1, 47, 127
3, 46920, Note_on_c, 1, 43, 0
3, 46920, Note_on_c, 1, 47, 0
3, 46920, Note_on_c, 1, 47, 127
3, 46920, Note_on_c, 1, 51, 127
3, 46920, Note_on_c, 1, 54, 127
3, 47160, Note_on_c, 1, 47, 0
3, 47160, Note_on_c, 1, 51, 0
3, 47160, Note_on_c, 1, 54, 0
3, 47160, Note_on_c, 1, 54, 127
3, 47160, Note_on_c, 1, 51, 127
3, 47160, Note_on_c, 1, 47, 127
3, 47280, Note_on_c, 1, 54, 0
3, 47280, Note_on_c, 1, 51, 0
3, 47280, Note_on_c, 1, 47, 0
3, 47280, Note_on_c, 1, 47, 127
3, 47310, Note_on_c, 1, 47, 0
3, 47310, Note_on_c, 1, 45, 127
3, 47340, Note_on_c, 1, 45, 0
3, 47340, Note_on_c, 1, 43, 127
3, 47640, Note_on_c, 1, 43, 0
3, 47640, Note_on_c, 1, 45, 127
3, 47640, Note_on_c, 1, 40, 127
3, 47820, Note_on_c, 1, 45, 0
3, 47820, Note_on_c, 1, 40, 0
3, 47820, Note_on_c, 1, 38, 127
3, 47820, Note_on_c, 1, 43, 127
3, 47880, Note_on_c, 1, 38, 0
3, 47880, Note_on_c, 1, 43, 0
3, 47880, Note_on_c, 1, 45, 127
3, 47880, Note_on_c, 1, 40, 127
3, 47940, Note_on_c, 1, 45, 0
3, 47940, Note_on_c, 1, 40, 0
3, 47940, Note_on_c, 1, 45, 127
3, 47940, Note_on_c, 1, 42, 127
3, 48000, Note_on_c, 1, 45, 0
3, 48000, Note_on_c, 1, 42, 0
3, 48000, Note_on_c, 1, 43, 127
3, 48000, Note_on_c, 1, 47, 127
3, 48120, Note_on_c, 1, 43, 0
3, 48120, Note_on_c, 1, 47, 0
3, 48120, Note_on_c, 1, 43, 127
3, 48120, Note_on_c, 1, 47, 127
3, 48180, Note_on_c, 1, 43, 0
3, 48180, Note_on_c, 1, 47, 0
3, 48180, Note_on_c, 1, 48, 127
3, 48180, Note_on_c, 1, 45, 127
3, 48240, Note_on_c, 1, 48, 0
3, 48240, Note_on_c, 1, 45, 0
3, 48240, Note_on_c, 1, 43, 127
3, 48240, Note_on_c, 1, 47, 127
3, 48360, Note_on_c, 1, 43, 0
3, 48360, Note_on_c, 1, 47, 0
3, 48360, Note_on_c, 1, 47, 127
3, 48360, Note_on_c, 1, 51, 127
3, 48360, Note_on_c, 1, 54, 127
3, 48600, Note_on_c, 1, 47, 0
3, 48600, Note_on_c, 1, 51, 0
3, 48600, Note_on_c, 1, 54, 0
3, 48600, Note_on_c, 1, 54, 127
3, 48600, Note_on_c, 1, 51, 127
3, 48600, Note_on_c, 1, 47, 127
3, 48720, Note_on_c, 1, 54, 0
3, 48720, Note_on_c, 1, 51, 0
3, 48720, Note_on_c, 1, 47, 0
3, 48720, Note_on_c, 1, 47, 127
3, 48750, Note_on_c, 1, 47, 0
3, 48750, Note_on_c, 1, 45, 127
3, 48780, Note_on_c, 1, 45, 0
3, 48780, Note_on_c, 1, 43, 127
3, 49080, Note_on_c, 1, 43, 0
3, 49080, Note_on_c, 1, 43, 127
3, 49080, Note_on_c, 1, 40, 127
3, 49140, Note_on_c, 1, 43, 0
3, 49140, Note_on_c, 1, 40, 0
3, 49140, Note_on_c, 1, 43, 127
3, 49140, Note_on_c, 1, 40, 127
3, 49200, Note_on_c, 1, 43, 0
3, 49200, Note_on_c, 1, 40, 0
3, 49200, Note_on_c, 1, 43, 127
3, 49200, Note_on_c, 1, 40, 127
3, 49260, Note_on_c, 1, 43, 0
3, 49260, Note_on_c, 1, 40, 0
3, 49260, Note_on_c, 1, 45, 127
3, 49260, Note_on_c, 1, 40, 127
3, 49320, Note_on_c, 1, 45, 0
3, 49320, Note_on_c, 1, 40, 0
3, 49320, Note_on_c, 1, 43, 127
3, 49320, Note_on_c, 1, 40, 127
3, 49380, Note_on_c, 1, 43, 0
3, 49380, Note_on_c, 1, 40, 0
3, 49380, Note_on_c, 1, 38, 127
3, 49440, Note_on_c, 1, 38, 0
3, 49440, Note_on_c, 1, 42, 127
3, 49440, Note_on_c, 1, 38, 127
3, 49500, Note_on_c, 1, 42, 0
3, 49500, Note_on_c, 1, 38, 0
3, 49500, Note_on_c, 1, 42, 127
3, 49500, Note_on_c, 1, 38, 127
3, 49560, Note_on_c, 1, 42, 0
3, 49560, Note_on_c, 1, 38, 0
3, 49560, Note_on_c, 1, 42, 127
3, 49560, Note_on_c, 1, 38, 127
3, 49620, Note_on_c, 1, 42, 0
3, 49620, Note_on_c, 1, 38, 0
3, 49620, Note_on_c, 1, 43, 127
3, 49620, Note_on_c, 1, 38, 127
3, 49680, Note_on_c, 1, 43, 0
3, 49680, Note_on_c, 1, 38, 0
3, 49680, Note_on_c, 1, 42, 127
3, 49680, Note_on_c, 1, 38, 127
3, 49800, Note_on_c, 1, 42, 0
3, 49800, Note_on_c, 1, 38, 0
3, 49800, Note_on_c, 1, 35, 127
3, 49800, Note_on_c, 1, 47, 127
3, 49800, Note_on_c, 1, 42, 127
3, 49980, Note_on_c, 1, 35, 0
3, 49980, Note_on_c, 1, 47, 0
3, 49980, Note_on_c, 1, 42, 0
3, 49980, Note_on_c, 1, 30, 127
3, 50040, Note_on_c, 1, 30, 0
3, 50040, Note_on_c, 1, 47, 127
3, 50040, Note_on_c, 1, 42, 127
3, 50040, Note_on_c, 1, 35, 127
3, 50100, Note_on_c, 1, 47, 0
3, 50100, Note_on_c, 1, 42, 0
3, 50100, Note_on_c, 1, 35, 0
3, 50100, Note_on_c, 1, 30, 127
3, 50160, Note_on_c, 1, 30, 0
3, 50160, Note_on_c, 1, 48, 127
3, 50160, Note_on_c, 1, 43, 127
3, 50160, Note_on_c, 1, 36, 127
3, 50220, Note_on_c, 1, 48, 0
3, 50220, Note_on_c, 1, 43, 0
3, 50220, Note_on_c, 1, 36, 0
3, 50220, Note_on_c, 1, 43, 127
3, 50220, Note_on_c, 1, 36, 127
3, 50250, Note_on_c, 1, 43, 0
3, 50250, Note_on_c, 1, 36, 0
3, 50250, Note_on_c, 1, 43, 127
3, 50250, Note_on_c, 1, 36, 127
3, 50280, Note_on_c, 1, 43, 0
3, 50280, Note_on_c, 1, 36, 0
3, 50280, Note_on_c, 1, 48, 127
3, 50280, Note_on_c, 1, 43, 127
3, 50280, Note_on_c, 1, 36, 127
3, 50340, Note_on_c, 1, 48, 0
3, 50340, Note_on_c, 1, 43, 0
3, 50340, Note_on_c, 1, 36, 0
3, 50340, Note_on_c, 1, 31, 127
3, 50400, Note_on_c, 1, 31, 0
3, 50400, Note_on_c, 1, 48, 127
3, 50400, Note_on_c, 1, 43, 127
3, 50400, Note_on_c, 1, 36, 127
3, 50460, Note_on_c, 1, 48, 0
3, 50460, Note_on_c, 1, 43, 0
3, 50460, Note_on_c, 1, 36, 0
3, 50460, Note_on_c, 1, 31, 127
3, 50520, Note_on_c, 1, 31, 0
3, 50520, Note_on_c, 1, 43, 127
3, 50520, Note_on_c, 1, 40, 127
3, 50580, Note_on_c, 1, 43, 0
3, 50580, Note_on_c, 1, 40, 0
3, 50580, Note_on_c, 1, 43, 127
3, 50580, Note_on_c, 1, 40, 127
3, 50640, Note_on_c, 1, 43, 0
3, 50640, Note_on_c, 1, 40, 0
3, 50640, Note_on_c, 1, 43, 127
3, 50640, Note_on_c, 1, 40, 127
3, 50700, Note_on_c, 1, 43, 0
3, 50700, Note_on_c, 1, 40, 0
3, 50700, Note_on_c, 1, 45, 127
3, 50700, Note_on_c, 1, 40, 127
3, 50760, Note_on_c, 1, 45, 0
3, 50760, Note_on_c, 1, 40, 0
3, 50760, Note_on_c, 1, 43, 127
3, 50760, Note_on_c, 1, 40, 127
3, 50820, Note_on_c, 1, 43, 0
3, 50820, Note_on_c, 1, 40, 0
3, 50820, Note_on_c, 1, 38, 127
3, 50880, Note_on_c, 1, 38, 0
3, 50880, Note_on_c, 1, 42, 127
3, 50880, Note_on_c, 1, 38, 127
3, 50940, Note_on_c, 1, 42, 0
3, 50940, Note_on_c, 1, 38, 0
3, 50940, Note_on_c, 1, 42, 127
3, 50940, Note_on_c, 1, 38, 127
3, 51000, Note_on_c, 1, 42, 0
3, 51000, Note_on_c, 1, 38, 0
3, 51000, Note_on_c, 1, 42, 127
3, 51000, Note_on_c, 1, 38, 127
3, 51060, Note_on_c, 1, 42, 0
3, 51060, Note_on_c, 1, 38, 0
3, 51060, Note_on_c, 1, 43, 127
3, 51060, Note_on_c, 1, 38, 127
3, 51120, Note_on_c, 1, 43, 0
3, 51120, Note_on_c, 1, 38, 0
3, 51120, Note_on_c, 1, 42, 127
3, 51120, Note_on_c, 1, 38, 127
3, 51240, Note_on_c, 1, 42, 0
3, 51240, Note_on_c, 1, 38, 0
3, 51240, Note_on_c, 1, 35, 127
3, 51240, Note_on_c, 1, 47, 127
3, 51240, Note_on_c, 1, 42, 127
3, 51420, Note_on_c, 1, 35, 0
3, 51420, Note_on_c, 1, 47, 0
3, 51420, Note_on_c, 1, 42, 0
3, 51420, Note_on_c, 1, 30, 127
3, 51480, Note_on_c, 1, 30, 0
3, 51480, Note_on_c, 1, 47, 127
3, 51480, Note_on_c, 1, 42, 127
3, 51480, Note_on_c, 1, 35, 127
3, 51540, Note_on_c, 1, 47, 0
3, 51540, Note_on_c, 1, 42, 0
3, 51540, Note_on_c, 1, 35, 0
3, 51540, Note_on_c, 1, 30, 127
3, 51600, Note_on_c, 1, 30, 0
3, 51600, Note_on_c, 1, 48, 127
3, 51600, Note_on_c, 1, 43, 127
3, 51600, Note_on_c, 1, 36, 127
3, 51660, Note_on_c, 1, 48, 0
3, 51660, Note_on_c, 1, 43, 0
3, 51660, Note_on_c, 1, 36, 0
3, 51660, Note_on_c, 1, 43, 127
3, 51660, Note_on_c, 1, 36, 127
3, 51690, Note_on_c, 1, 43, 0
3, 51690, Note_on_c, 1, 36, 0
3, 51690, Note_on_c, 1, 43, 127
3, 51690, Note_on_c, 1, 36, 127
3, 51720, Note_on_c, 1, 43, 0
3, 51720, Note_on_c, 1, 36, 0
3, 51720, Note_on_c, 1, 48, 127
3, 51720, Note_on_c, 1, 43, 127
3, 51720, Note_on_c, 1, 36, 127
3, 51780, Note_on_c, 1, 48, 0
3, 51780, Note_on_c, 1, 43, 0
3, 51780, Note_on_c, 1, 36, 0
3, 51780, Note_on_c, 1, 31, 127
3, 51840, Note_on_c, 1, 31, 0
3, 51840, Note_on_c, 1, 48, 127
3, 51840, Note_on_c, 1, 43, 127
3, 51840, Note_on_c, 1, 36, 127
3, 51900, Note_on_c, 1, 48, 0
3, 51900, Note_on_c, 1, 43, 0
3, 51900, Note_on_c, 1, 36, 0
3, 51900, Note_on_c, 1, 31, 127
3, 51960, Note_on_c, 1, 31, 0
3, 51960, Time_signature, 4, 2, 24, 8
3, 51960, Note_on_c, 1, 28, 127
3, 51960, Note_on_c, 1, 40, 127
3, 51960, Note_on_c, 1, 43, 127
3, 52920, Note_on_c, 1, 28, 0
3, 52920, Note_on_c, 1, 40, 0
3, 52920, Note_on_c, 1, 43, 0
3, 52920, Note_on_c, 1, 28, 127
3, 52940, Note_on_c, 1, 28, 0
3, 52940, Note_on_c, 1, 28, 127
3, 52960, Note_on_c, 1, 28, 0
3, 52960, Note_on_c, 1, 28, 127
3, 52980, Note_on_c, 1, 28, 0
3, 52980, Note_on_c, 1, 28, 127
3, 53000, Note_on_c, 1, 28, 0
3, 53000, Note_on_c, 1, 28, 127
3, 53020, Note_on_c, 1, 28, 0
3, 53020, Note_on_c, 1, 28, 127
3, 53040, Note_on_c, 1, 28, 0
3, 53040, Note_on_c, 1, 40, 127
3, 53040, Note_on_c, 1, 35, 127
3, 53040, Note_on_c, 1, 28, 127
3, 53100, Note_on_c, 1, 40, 0
3, 53100, Note_on_c, 1, 35, 0
3, 53100, Note_on_c, 1, 28, 0
3, 53160, Note_on_c, 1, 28, 127
3, 53180, Note_on_c, 1, 28, 0
3, 53180, Note_on_c, 1, 28, 127
3, 53200, Note_on_c, 1, 28, 0
3, 53200, Note_on_c, 1, 28, 127
3, 53220, Note_on_c, 1, 28, 0
3, 53220, Note_on_c, 1, 28, 127
3, 53240, Note_on_c, 1, 28, 0
3, 53240, Note_on_c, 1, 28, 127
3, 53260, Note_on_c, 1, 28, 0
3, 53260, Note_on_c, 1, 28, 127
3, 53280, Note_on_c, 1, 28, 0
3, 53280, Note_on_c, 1, 40, 127
3, 53280, Note_on_c, 1, 35, 127
3, 53280, Note_on_c, 1, 28, 127
3, 53340, Note_on_c, 1, 40, 0
3, 53340, Note_on_c, 1, 35, 0
3, 53340, Note_on_c, 1, 28, 0
3, 53400, Note_on_c, 1, 28, 127
3, 53420, Note_on_c, 1, 28, 0
3, 53420, Note_on_c, 1, 28, 127
3, 53440, Note_on_c, 1, 28, 0
3, 53440, Note_on_c, 1, 28, 127
3, 53460, Note_on_c, 1, 28, 0
3, 53460, Note_on_c, 1, 28, 127
3, 53480, Note_on_c, 1, 28, 0
3, 53480, Note_on_c, 1, 28, 127
3, 53500, Note_on_c, 1, 28, 0
3, 53500, Note_on_c, 1, 28, 127
3, 53520, Note_on_c, 1, 28, 0
3, 53520, Note_on_c, 1, 40, 127
3, 53520, Note_on_c, 1, 35, 127
3, 53520, Note_on_c, 1, 28, 127
3, 53580, Note_on_c, 1, 40, 0
3, 53580, Note_on_c, 1, 35, 0
3, 53580, Note_on_c, 1, 28, 0
3, 53640, Note_on_c, 1, 28, 127
3, 53660, Note_on_c, 1, 28, 0
3, 53660, Note_on_c, 1, 28, 127
3, 53680, Note_on_c, 1, 28, 0
3, 53680, Note_on_c, 1, 28, 127
3, 53700, Note_on_c, 1, 28, 0
3, 53700, Note_on_c, 1, 28, 127
3, 53720, Note_on_c, 1, 28, 0
3, 53720, Note_on_c, 1, 28, 127
3, 53740, Note_on_c, 1, 28, 0
3, 53740, Note_on_c, 1, 28, 127
3, 53760, Note_on_c, 1, 28, 0
3, 53760, Note_on_c, 1, 40, 127
3, 53760, Note_on_c, 1, 35, 127
3, 53760, Note_on_c, 1, 28, 127
3, 53820, Note_on_c, 1, 40, 0
3, 53820, Note_on_c, 1, 35, 0
3, 53820, Note_on_c, 1, 28, 0
3, 53880, Note_on_c, 1, 28, 127
3, 53900, Note_on_c, 1, 28, 0
3, 53900, Note_on_c, 1, 28, 127
3, 53920, Note_on_c, 1, 28, 0
3, 53920, Note_on_c, 1, 28, 127
3, 53940, Note_on_c, 1, 28, 0
3, 53940, Note_on_c, 1, 28, 127
3, 53960, Note_on_c, 1, 28, 0
3, 53960, Note_on_c, 1, 28, 127
3, 53980, Note_on_c, 1, 28, 0
3, 53980, Note_on_c, 1, 28, 127
3, 54000, Note_on_c, 1, 28, 0
3, 54000, Note_on_c, 1, 40, 127
3, 54000, Note_on_c, 1, 35, 127
3, 54000, Note_on_c, 1, 28, 127
3, 54120, Note_on_c, 1, 40, 0
3, 54120, Note_on_c, 1, 35, 0
3, 54120, Note_on_c, 1, 28, 0
3, 54120, Note_on_c, 1, 28, 127
3, 54140, Note_on_c, 1, 28, 0
3, 54140, Note_on_c, 1, 28, 127
3, 54160, Note_on_c, 1, 28, 0
3, 54160, Note_on_c, 1, 28, 127
3, 54180, Note_on_c, 1, 28, 0
3, 54180, Note_on_c, 1, 28, 127
3, 54200, Note_on_c, 1, 28, 0
3, 54200, Note_on_c, 1, 28, 127
3, 54220, Note_on_c, 1, 28, 0
3, 54220, Note_on_c, 1, 28, 127
3, 54240, Note_on_c, 1, 28, 0
3, 54240, Note_on_c, 1, 40, 127
3, 54240, Note_on_c, 1, 35, 127
3, 54240, Note_on_c, 1, 28, 127
3, 54300, Note_on_c, 1, 40, 0
3, 54300, Note_on_c, 1, 35, 0
3, 54300, Note_on_c, 1, 28, 0
3, 54360, Note_on_c, 1, 28, 127
3, 54380, Note_on_c, 1, 28, 0
3, 54380, Note_on_c, 1, 28, 127
3, 54400, Note_on_c, 1, 28, 0
3, 54400, Note_on_c, 1, 28, 127
3, 54420, Note_on_c, 1, 28, 0
3, 54420, Note_on_c, 1, 28, 127
3, 54440, Note_on_c, 1, 28, 0
3, 54440, Note_on_c, 1, 28, 127
3, 54460, Note_on_c, 1, 28, 0
3, 54460, Note_on_c, 1, 28, 127
3, 54480, Note_on_c, 1, 28, 0
3, 54480, Note_on_c, 1, 40, 127
3, 54480, Note_on_c, 1, 35, 127
3, 54480, Note_on_c, 1, 28, 127
3, 54600, Note_on_c, 1, 40, 0
3, 54600, Note_on_c, 1, 35, 0
3, 54600, Note_on_c, 1, 28, 0
3, 54600, Note_on_c, 1, 28, 127
3, 54620, Note_on_c, 1, 28, 0
3, 54620, Note_on_c, 1, 28, 127
3, 54640, Note_on_c, 1, 28, 0
3, 54640, Note_on_c, 1, 28, 127
3, 54660, Note_on_c, 1, 28, 0
3, 54660, Note_on_c, 1, 28, 127
3, 54680, Note_on_c, 1, 28, 0
3, 54680, Note_on_c, 1, 28, 127
3, 54700, Note_on_c, 1, 28, 0
3, 54700, Note_on_c, 1, 28, 127
3, 54720, Note_on_c, 1, 28, 0
3, 54720, Note_on_c, 1, 40, 127
3, 54720, Note_on_c, 1, 35, 127
3, 54780, Note_on_c, 1, 40, 0
3, 54780, Note_on_c, 1, 35, 0
3, 54780, Note_on_c, 1, 36, 127
3, 54780, Note_on_c, 1, 41, 127
3, 54840, Note_on_c, 1, 36, 0
3, 54840, Note_on_c, 1, 41, 0
3, 54840, Note_on_c, 1, 28, 127
3, 54860, Note_on_c, 1, 28, 0
3, 54860, Note_on_c, 1, 28, 127
3, 54880, Note_on_c, 1, 28, 0
3, 54880, Note_on_c, 1, 28, 127
3, 54900, Note_on_c, 1, 28, 0
3, 54900, Note_on_c, 1, 28, 127
3, 54920, Note_on_c, 1, 28, 0
3, 54920, Note_on_c, 1, 28, 127
3, 54940, Note_on_c, 1, 28, 0
3, 54940, Note_on_c, 1, 28, 127
3, 54960, Note_on_c, 1, 28, 0
3, 54960, Note_on_c, 1, 40, 127
3, 54960, Note_on_c, 1, 35, 127
3, 54960, Note_on_c, 1, 28, 127
3, 55080, Note_on_c, 1, 40, 0
3, 55080, Note_on_c, 1, 35, 0
3, 55080, Note_on_c, 1, 28, 0
3, 55080, Note_on_c, 1, 28, 127
3, 55100, Note_on_c, 1, 28, 0
3, 55100, Note_on_c, 1, 28, 127
3, 55120, Note_on_c, 1, 28, 0
3, 55120, Note_on_c, 1, 28, 127
3, 55140, Note_on_c, 1, 28, 0
3, 55140, Note_on_c, 1, 28, 127
3, 55160, Note_on_c, 1, 28, 0
3, 55160, Note_on_c, 1, 28, 127
3, 55180, Note_on_c, 1, 28, 0
3, 55180, Note_on_c, 1, 28, 127
3, 55200, Note_on_c, 1, 28, 0
3, 55200, Note_on_c, 1, 40, 127
3, 55200, Note_on_c, 1, 35, 127
3, 55260, Note_on_c, 1, 40, 0
3, 55260, Note_on_c, 1, 35, 0
3, 55260, Note_on_c, 1, 36, 127
3, 55260, Note_on_c, 1, 41, 127
3, 55320, Note_on_c, 1, 36, 0
3, 55320, Note_on_c, 1, 41, 0
3, 55320, Note_on_c, 1, 28, 127
3, 55340, Note_on_c, 1, 28, 0
3, 55340, Note_on_c, 1, 28, 127
3, 55360, Note_on_c, 1, 28, 0
3, 55360, Note_on_c, 1, 28, 127
3, 55380, Note_on_c, 1, 28, 0
3, 55380, Note_on_c, 1, 28, 127
3, 55400, Note_on_c, 1, 28, 0
3, 55400, Note_on_c, 1, 28, 127
3, 55420, Note_on_c, 1, 28, 0
3, 55420, Note_on_c, 1, 28, 127
3, 55440, Note_on_c, 1, 28, 0
3, 55440, Note_on_c, 1, 40, 127
3, 55440, Note_on_c, 1, 35, 127
3, 55440, Note_on_c, 1, 28, 127
3, 55560, Note_on_c, 1, 40, 0
3, 55560, Note_on_c, 1, 35, 0
3, 55560, Note_on_c, 1, 28, 0
3, 55560, Note_on_c, 1, 28, 127
3, 55580, Note_on_c, 1, 28, 0
3, 55580, Note_on_c, 1, 28, 127
3, 55600, Note_on_c, 1, 28, 0
3, 55600, Note_on_c, 1, 28, 127
3, 55620, Note_on_c, 1, 28, 0
3, 55620, Note_on_c, 1, 28, 127
3, 55640, Note_on_c, 1, 28, 0
3, 55640, Note_on_c, 1, 28, 127
3, 55660, Note_on_c, 1, 28, 0
3, 55660, Note_on_c, 1, 28, 127
3, 55680, Note_on_c, 1, 28, 0
3, 55680, Note_on_c, 1, 40, 127
3, 55680, Note_on_c, 1, 35, 127
3, 55740, Note_on_c, 1, 40, 0
3, 55740, Note_on_c, 1, 35, 0
3, 55740, Note_on_c, 1, 36, 127
3, 55740, Note_on_c, 1, 41, 127
3, 55800, Note_on_c, 1, 36, 0
3, 55800, Note_on_c, 1, 41, 0
3, 55800, Note_on_c, 1, 28, 127
3, 55820, Note_on_c, 1, 28, 0
3, 55820, Note_on_c, 1, 28, 127
3, 55840, Note_on_c, 1, 28, 0
3, 55840, Note_on_c, 1, 28, 127
3, 55860, Note_on_c, 1, 28, 0
3, 55860, Note_on_c, 1, 28, 127
3, 55880, Note_on_c, 1, 28, 0
3, 55880, Note_on_c, 1, 28, 127
3, 55900, Note_on_c, 1, 28, 0
3, 55900, Note_on_c, 1, 28, 127
3, 55920, Note_on_c, 1, 28, 0
3, 55920, Note_on_c, 1, 40, 127
3, 55920, Note_on_c, 1, 35, 127
3, 55920, Note_on_c, 1, 28, 127
3, 56040, Note_on_c, 1, 40, 0
3, 56040, Note_on_c, 1, 35, 0
3, 56040, Note_on_c, 1, 28, 0
3, 56040, Note_on_c, 1, 28, 127
3, 56060, Note_on_c, 1, 28, 0
3, 56060, Note_on_c, 1, 28, 127
3, 56080, Note_on_c, 1, 28, 0
3, 56080, Note_on_c, 1, 28, 127
3, 56100, Note_on_c, 1, 28, 0
3, 56100, Note_on_c, 1, 28, 127
3, 56120, Note_on_c, 1, 28, 0
3, 56120, Note_on_c, 1, 28, 127
3, 56140, Note_on_c, 1, 28, 0
3, 56140, Note_on_c, 1, 28, 127
3, 56160, Note_on_c, 1, 28, 0
3, 56160, Note_on_c, 1, 40, 127
3, 56160, Note_on_c, 1, 35, 127
3, 56220, Note_on_c, 1, 40, 0
3, 56220, Note_on_c, 1, 35, 0
3, 56220, Note_on_c, 1, 36, 127
3, 56220, Note_on_c, 1, 41, 127
3, 56280, Note_on_c, 1, 36, 0
3, 56280, Note_on_c, 1, 41, 0
3, 56280, Note_on_c, 1, 28, 127
3, 56300, Note_on_c, 1, 28, 0
3, 56300, Note_on_c, 1, 28, 127
3, 56320, Note_on_c, 1, 28, 0
3, 56320, Note_on_c, 1, 28, 127
3, 56340, Note_on_c, 1, 28, 0
3, 56340, Note_on_c, 1, 28, 127
3, 56360, Note_on_c, 1, 28, 0
3, 56360, Note_on_c, 1, 28, 127
3, 56380, Note_on_c, 1, 28, 0
3, 56380, Note_on_c, 1, 28, 127
3, 56400, Note_on_c, 1, 28, 0
3, 56400, Note_on_c, 1, 40, 127
3, 56400, Note_on_c, 1, 35, 127
3, 56400, Note_on_c, 1, 28, 127
3, 56520, Note_on_c, 1, 40, 0
3, 56520, Note_on_c, 1, 35, 0
3, 56520, Note_on_c, 1, 28, 0
3, 56520, Note_on_c, 1, 28, 127
3, 56540, Note_on_c, 1, 28, 0
3, 56540, Note_on_c, 1, 28, 127
3, 56560, Note_on_c, 1, 28, 0
3, 56560, Note_on_c, 1, 28, 127
3, 56580, Note_on_c, 1, 28, 0
3, 56580, Note_on_c, 1, 28, 127
3, 56600, Note_on_c, 1, 28, 0
3, 56600, Note_on_c, 1, 28, 127
3, 56620, Note_on_c, 1, 28, 0
3, 56620, Note_on_c, 1, 28, 127
3, 56640, Note_on_c, 1, 28, 0
3, 56640, Note_on_c, 1, 40, 127
3, 56640, Note_on_c, 1, 35, 127
3, 56700, Note_on_c, 1, 40, 0
3, 56700, Note_on_c, 1, 35, 0
3, 56700, Note_on_c, 1, 36, 127
3, 56700, Note_on_c, 1, 41, 127
3, 56760, Note_on_c, 1, 36, 0
3, 56760, Note_on_c, 1, 41, 0
3, 56760, Note_on_c, 1, 28, 127
3, 56780, Note_on_c, 1, 28, 0
3, 56780, Note_on_c, 1, 28, 127
3, 56800, Note_on_c, 1, 28, 0
3, 56800, Note_on_c, 1, 28, 127
3, 56820, Note_on_c, 1, 28, 0
3, 56820, Note_on_c, 1, 28, 127
3, 56840, Note_on_c, 1, 28, 0
3, 56840, Note_on_c, 1, 28, 127
3, 56860, Note_on_c, 1, 28, 0
3, 56860, Note_on_c, 1, 28, 127
3, 56880, Note_on_c, 1, 28, 0
3, 56880, Note_on_c, 1, 40, 127
3, 56880, Note_on_c, 1, 35, 127
3, 56940, Note_on_c, 1, 40, 0
3, 56940, Note_on_c, 1, 35, 0
3, 57000, Note_on_c, 1, 28, 127
3, 57020, Note_on_c, 1, 28, 0
3, 57020, Note_on_c, 1, 28, 127
3, 57040, Note_on_c, 1, 28, 0
3, 57040, Note_on_c, 1, 28, 127
3, 57060, Note_on_c, 1, 28, 0
3, 57060, Note_on_c, 1, 28, 127
3, 57080, Note_on_c, 1, 28, 0
3, 57080, Note_on_c, 1, 28, 127
3, 57100, Note_on_c, 1, 28, 0
3, 57100, Note_on_c, 1, 28, 127
3, 57120, Note_on_c, 1, 28, 0
3, 57120, Note_on_c, 1, 40, 127
3, 57120, Note_on_c, 1, 35, 127
3, 57180, Note_on_c, 1, 40, 0
3, 57180, Note_on_c, 1, 35, 0
3, 57240, Note_on_c, 1, 28, 127
3, 57260, Note_on_c, 1, 28, 0
3, 57260, Note_on_c, 1, 28, 127
3, 57280, Note_on_c, 1, 28, 0
3, 57280, Note_on_c, 1, 28, 127
3, 57300, Note_on_c, 1, 28, 0
3, 57300, Note_on_c, 1, 28, 127
3, 57320, Note_on_c, 1, 28, 0
3, 57320, Note_on_c, 1, 28, 127
3, 57340, Note_on_c, 1, 28, 0
3, 57340, Note_on_c, 1, 28, 127
3, 57360, Note_on_c, 1, 28, 0
3, 57360, Note_on_c, 1, 40, 127
3, 57360, Note_on_c, 1, 35, 127
3, 57420, Note_on_c, 1, 40, 0
3, 57420, Note_on_c, 1, 35, 0
3, 57480, Note_on_c, 1, 28, 127
3, 57500, Note_on_c, 1, 28, 0
3, 57500, Note_on_c, 1, 28, 127
3, 57520, Note_on_c, 1, 28, 0
3, 57520, Note_on_c, 1, 28, 127
3, 57540, Note_on_c, 1, 28, 0
3, 57540, Note_on_c, 1, 28, 127
3, 57560, Note_on_c, 1, 28, 0
3, 57560, Note_on_c, 1, 28, 127
3, 57580, Note_on_c, 1, 28, 0
3, 57580, Note_on_c, 1, 28, 127
3, 57600, Note_on_c, 1, 28, 0
3, 57600, Note_on_c, 1, 40, 127
3, 57600, Note_on_c, 1, 35, 127
3, 57660, Note_on_c, 1, 40, 0
3, 57660, Note_on_c, 1, 35, 0
3, 57660, Note_on_c, 1, 36, 127
3, 57660, Note_on_c, 1, 41, 127
3, 57720, Note_on_c, 1, 36, 0
3, 57720, Note_on_c, 1, 41, 0
3, 57720, Note_on_c, 1, 28, 127
3, 57740, Note_on_c, 1, 28, 0
3, 57740, Note_on_c, 1, 28, 127
3, 57760, Note_on_c, 1, 28, 0
3, 57760, Note_on_c, 1, 28, 127
3, 57780, Note_on_c, 1, 28, 0
3, 57780, Note_on_c, 1, 28, 127
3, 57800, Note_on_c, 1, 28, 0
3, 57800, Note_on_c, 1, 28, 127
3, 57820, Note_on_c, 1, 28, 0
3, 57820, Note_on_c, 1, 28, 127
3, 57840, Note_on_c, 1, 28, 0
3, 57840, Note_on_c, 1, 40, 127
3, 57840, Note_on_c, 1, 35, 127
3, 57900, Note_on_c, 1, 40, 0
3, 57900, Note_on_c, 1, 35, 0
3, 57960, Note_on_c, 1, 28, 127
3, 57980, Note_on_c, 1, 28, 0
3, 57980, Note_on_c, 1, 28, 127
3, 58000, Note_on_c, 1, 28, 0
3, 58000, Note_on_c, 1, 28, 127
3, 58020, Note_on_c, 1, 28, 0
3, 58020, Note_on_c, 1, 28, 127
3, 58040, Note_on_c, 1, 28, 0
3, 58040, Note_on_c, 1, 28, 127
3, 58060, Note_on_c, 1, 28, 0
3, 58060, Note_on_c, 1, 28, 127
3, 58080, Note_on_c, 1, 28, 0
3, 58080, Note_on_c, 1, 40, 127
3, 58080, Note_on_c, 1, 35, 127
3, 58140, Note_on_c, 1, 40, 0
3, 58140, Note_on_c, 1, 35, 0
3, 58200, Note_on_c, 1, 28, 127
3, 58220, Note_on_c, 1, 28, 0
3, 58220, Note_on_c, 1, 28, 127
3, 58240, Note_on_c, 1, 28, 0
3, 58240, Note_on_c, 1, 28, 127
3, 58260, Note_on_c, 1, 28, 0
3, 58260, Note_on_c, 1, 28, 127
3, 58280, Note_on_c, 1, 28, 0
3, 58280, Note_on_c, 1, 28, 127
3, 58300, Note_on_c, 1, 28, 0
3, 58300, Note_on_c, 1, 28, 127
3, 58320, Note_on_c, 1, 28, 0
3, 58320, Note_on_c, 1, 40, 127
3, 58320, Note_on_c, 1, 35, 127
3, 58380, Note_on_c, 1, 40, 0
3, 58380, Note_on_c, 1, 35, 0
3, 58440, Note_on_c, 1, 28, 127
3, 58460, Note_on_c, 1, 28, 0
3, 58460, Note_on_c, 1, 28, 127
3, 58480, Note_on_c, 1, 28, 0
3, 58480, Note_on_c, 1, 28, 127
3, 58500, Note_on_c, 1, 28, 0
3, 58500, Note_on_c, 1, 28, 127
3, 58520, Note_on_c, 1, 28, 0
3, 58520, Note_on_c, 1, 28, 127
3, 58540, Note_on_c, 1, 28, 0
3, 58540, Note_on_c, 1, 28, 127
3, 58560, Note_on_c, 1, 28, 0
3, 58560, Note_on_c, 1, 40, 127
3, 58560, Note_on_c, 1, 35, 127
3, 58620, Note_on_c, 1, 40, 0
3, 58620, Note_on_c, 1, 35, 0
3, 58620, Note_on_c, 1, 36, 127
3, 58620, Note_on_c, 1, 41, 127
3, 58680, Note_on_c, 1, 36, 0
3, 58680, Note_on_c, 1, 41, 0
3, 58680, Note_on_c, 1, 28, 127
3, 58700, Note_on_c, 1, 28, 0
3, 58700, Note_on_c, 1, 28, 127
3, 58720, Note_on_c, 1, 28, 0
3, 58720, Note_on_c, 1, 28, 127
3, 58740, Note_on_c, 1, 28, 0
3, 58740, Note_on_c, 1, 28, 127
3, 58760, Note_on_c, 1, 28, 0
3, 58760, Note_on_c, 1, 28, 127
3, 58780, Note_on_c, 1, 28, 0
3, 58780, Note_on_c, 1, 28, 127
3, 58800, Note_on_c, 1, 28, 0
3, 58800, Control_c, 1, 1, 0
3, 58800, Note_on_c, 1, 40, 127
3, 58801, Control_c, 1, 1, 7
3, 58802, Control_c, 1, 1, 13
3, 58803, Control_c, 1, 1, 20
3, 58804, Control_c, 1, 1, 26
3, 58805, Control_c, 1, 1, 32
3, 58806, Control_c, 1, 1, 39
3, 58807, Control_c, 1, 1, 45
3, 58808, Control_c, 1, 1, 52
3, 58809, Control_c, 1, 1, 58
3, 58810, Control_c, 1, 1, 64
3, 58919, Control_c, 1, 1, 0
3, 58920, Note_on_c, 1, 40, 0
3, 58920, Note_on_c, 1, 28, 127
3, 58940, Note_on_c, 1, 28, 0
3, 58940, Note_on_c, 1, 28, 127
3, 58960, Note_on_c, 1, 28, 0
3, 58960, Note_on_c, 1, 28, 127
3, 58980, Note_on_c, 1, 28, 0
3, 58980, Note_on_c, 1, 28, 127
3, 59000, Note_on_c, 1, 28, 0
3, 59000, Note_on_c, 1, 28, 127
3, 59020, Note_on_c, 1, 28, 0
3, 59020, Note_on_c, 1, 28, 127
3, 59040, Note_on_c, 1, 28, 0
3, 59040, Note_on_c, 1, 40, 127
3, 59100, Note_on_c, 1, 40, 0
3, 59100, Note_on_c, 1, 41, 127
3, 59160, Note_on_c, 1, 41, 0
3, 59160, Note_on_c, 1, 28, 127
3, 59180, Note_on_c, 1, 28, 0
3, 59180, Note_on_c, 1, 28, 127
3, 59200, Note_on_c, 1, 28, 0
3, 59200, Note_on_c, 1, 28, 127
3, 59220, Note_on_c, 1, 28, 0
3, 59220, Note_on_c, 1, 28, 127
3, 59240, Note_on_c, 1, 28, 0
3, 59240, Note_on_c, 1, 28, 127
3, 59260, Note_on_c, 1, 28, 0
3, 59260, Note_on_c, 1, 28, 127
3, 59280, Note_on_c, 1, 28, 0
3, 59280, Note_on_c, 1, 38, 127
3, 59280, Control_c, 1, 1, 0
3, 59281, Control_c, 1, 1, 7
3, 59282, Control_c, 1, 1, 13
3, 59283, Control_c, 1, 1, 20
3, 59284, Control_c, 1, 1, 26
3, 59285, Control_c, 1, 1, 32
3, 59286, Control_c, 1, 1, 39
3, 59287, Control_c, 1, 1, 45
3, 59288, Control_c, 1, 1, 52
3, 59289, Control_c, 1, 1, 58
3, 59290, Control_c, 1, 1, 64
3, 59399, Control_c, 1, 1, 0
3, 59400, Note_on_c, 1, 38, 0
3, 59400, Note_on_c, 1, 28, 127
3, 59420, Note_on_c, 1, 28, 0
3, 59420, Note_on_c, 1, 28, 127
3, 59440, Note_on_c, 1, 28, 0
3, 59440, Note_on_c, 1, 28, 127
3, 59460, Note_on_c, 1, 28, 0
3, 59460, Note_on_c, 1, 28, 127
3, 59480, Note_on_c, 1, 28, 0
3, 59480, Note_on_c, 1, 28, 127
3, 59500, Note_on_c, 1, 28, 0
3, 59500, Note_on_c, 1, 28, 127
3, 59520, Note_on_c, 1, 28, 0
3, 59520, Note_on_c, 1, 38, 127
3, 59580, Note_on_c, 1, 38, 0
3, 59580, Note_on_c, 1, 41, 127
3, 59640, Note_on_c, 1, 41, 0
3, 59640, Note_on_c, 1, 28, 127
3, 59660, Note_on_c, 1, 28, 0
3, 59660, Note_on_c, 1, 28, 127
3, 59680, Note_on_c, 1, 28, 0
3, 59680, Note_on_c, 1, 28, 127
3, 59700, Note_on_c, 1, 28, 0
3, 59700, Note_on_c, 1, 28, 127
3, 59720, Note_on_c, 1, 28, 0
3, 59720, Note_on_c, 1, 28, 127
3, 59740, Note_on_c, 1, 28, 0
3, 59740, Note_on_c, 1, 28, 127
3, 59760, Note_on_c, 1, 28, 0
3, 59760, Note_on_c, 1, 40, 127
3, 59760, Control_c, 1, 1, 0
3, 59761, Control_c, 1, 1, 7
3, 59762, Control_c, 1, 1, 13
3, 59763, Control_c, 1, 1, 20
3, 59764, Control_c, 1, 1, 26
3, 59765, Control_c, 1, 1, 32
3, 59766, Control_c, 1, 1, 39
3, 59767, Control_c, 1, 1, 45
3, 59768, Control_c, 1, 1, 52
3, 59769, Control_c, 1, 1, 58
3, 59770, Control_c, 1, 1, 64
3, 59879, Control_c, 1, 1, 0
3, 59880, Note_on_c, 1, 40, 0
3, 59880, Note_on_c, 1, 28, 127
3, 59900, Note_on_c, 1, 28, 0
3, 59900, Note_on_c, 1, 28, 127
3, 59920, Note_on_c, 1, 28, 0
3, 59920, Note_on_c, 1, 28, 127
3, 59940, Note_on_c, 1, 28, 0
3, 59940, Note_on_c, 1, 28, 127
3, 59960, Note_on_c, 1, 28, 0
3, 59960, Note_on_c, 1, 28, 127
3, 59980, Note_on_c, 1, 28, 0
3, 59980, Note_on_c, 1, 28, 127
3, 60000, Note_on_c, 1, 28, 0
3, 60000, Note_on_c, 1, 40, 127
3, 60060, Note_on_c, 1, 40, 0
3, 60060, Note_on_c, 1, 41, 127
3, 60120, Note_on_c, 1, 41, 0
3, 60120, Note_on_c, 1, 28, 127
3, 60140, Note_on_c, 1, 28, 0
3, 60140, Note_on_c, 1, 28, 127
3, 60160, Note_on_c, 1, 28, 0
3, 60160, Note_on_c, 1, 28, 127
3, 60180, Note_on_c, 1, 28, 0
3, 60180, Note_on_c, 1, 28, 127
3, 60200, Note_on_c, 1, 28, 0
3, 60200, Note_on_c, 1, 28, 127
3, 60220, Note_on_c, 1, 28, 0
3, 60220, Note_on_c, 1, 28, 127
3, 60240, Note_on_c, 1, 28, 0
3, 60240, Note_on_c, 1, 38, 127
3, 60240, Control_c, 1, 1, 0
3, 60241, Control_c, 1, 1, 7
3, 60242, Control_c, 1, 1, 13
3, 60243, Control_c, 1, 1, 20
3, 60244, Control_c, 1, 1, 26
3, 60245, Control_c, 1, 1, 32
3, 60246, Control_c, 1, 1, 39
3, 60247, Control_c, 1, 1, 45
3, 60248, Control_c, 1, 1, 52
3, 60249, Control_c, 1, 1, 58
3, 60250, Control_c, 1, 1, 64
3, 60359, Control_c, 1, 1, 0
3, 60360, Note_on_c, 1, 38, 0
3, 60360, Note_on_c, 1, 28, 127
3, 60380, Note_on_c, 1, 28, 0
3, 60380, Note_on_c, 1, 28, 127
3, 60400, Note_on_c, 1, 28, 0
3, 60400, Note_on_c, 1, 28, 127
3, 60420, Note_on_c, 1, 28, 0
3, 60420, Note_on_c, 1, 28, 127
3, 60440, Note_on_c, 1, 28, 0
3, 60440, Note_on_c, 1, 28, 127
3, 60460, Note_on_c, 1, 28, 0
3, 60460, Note_on_c, 1, 28, 127
3, 60480, Note_on_c, 1, 28, 0
3, 60480, Note_on_c, 1, 38, 127
3, 60540, Note_on_c, 1, 38, 0
3, 60540, Note_on_c, 1, 35, 127
3, 60600, Note_on_c, 1, 35, 0
3, 60600, Note_on_c, 1, 28, 127
3, 60620, Note_on_c, 1, 28, 0
3, 60620, Note_on_c, 1, 28, 127
3, 60640, Note_on_c, 1, 28, 0
3, 60640, Note_on_c, 1, 28, 127
3, 60660, Note_on_c, 1, 28, 0
3, 60660, Note_on_c, 1, 28, 127
3, 60680, Note_on_c, 1, 28, 0
3, 60680, Note_on_c, 1, 28, 127
3, 60700, Note_on_c, 1, 28, 0
3, 60700, Note_on_c, 1, 28, 127
3, 60720, Note_on_c, 1, 28, 0
3, 60720, Note_on_c, 1, 40, 127
3, 60720, Note_on_c, 1, 35, 127
3, 60780, Note_on_c, 1, 40, 0
3, 60780, Note_on_c, 1, 35, 0
3, 60840, Note_on_c, 1, 28, 127
3, 60860, Note_on_c, 1, 28, 0
3, 60860, Note_on_c, 1, 28, 127
3, 60880, Note_on_c, 1, 28, 0
3, 60880, Note_on_c, 1, 28, 127
3, 60900, Note_on_c, 1, 28, 0
3, 60900, Note_on_c, 1, 28, 127
3, 60920, Note_on_c, 1, 28, 0
3, 60920, Note_on_c, 1, 28, 127
3, 60940, Note_on_c, 1, 28, 0
3, 60940, Note_on_c, 1, 28, 127
3, 60960, Note_on_c, 1, 28, 0
3, 60960, Note_on_c, 1, 40, 127
3, 60960, Note_on_c, 1, 35, 127
3, 61020, Note_on_c, 1, 40, 0
3, 61020, Note_on_c, 1, 35, 0
3, 61080, Note_on_c, 1, 28, 127
3, 61100, Note_on_c, 1, 28, 0
3, 61100, Note_on_c, 1, 28, 127
3, 61120, Note_on_c, 1, 28, 0
3, 61120, Note_on_c, 1, 28, 127
3, 61140, Note_on_c, 1, 28, 0
3, 61140, Note_on_c, 1, 28, 127
3, 61160, Note_on_c, 1, 28, 0
3, 61160, Note_on_c, 1, 28, 127
3, 61180, Note_on_c, 1, 28, 0
3, 61180, Note_on_c, 1, 28, 127
3, 61200, Note_on_c, 1, 28, 0
3, 61200, Note_on_c, 1, 40, 127
3, 61200, Note_on_c, 1, 35, 127
3, 61260, Note_on_c, 1, 40, 0
3, 61260, Note_on_c, 1, 35, 0
3, 61320, Note_on_c, 1, 28, 127
3, 61340, Note_on_c, 1, 28, 0
3, 61340, Note_on_c, 1, 28, 127
3, 61360, Note_on_c, 1, 28, 0
3, 61360, Note_on_c, 1, 28, 127
3, 61380, Note_on_c, 1, 28, 0
3, 61380, Note_on_c, 1, 28, 127
3, 61400, Note_on_c, 1, 28, 0
3, 61400, Note_on_c, 1, 28, 127
3, 61420, Note_on_c, 1, 28, 0
3, 61420, Note_on_c, 1, 28, 127
3, 61440, Note_on_c, 1, 28, 0
3, 61440, Note_on_c, 1, 40, 127
3, 61440, Note_on_c, 1, 35, 127
3, 61500, Note_on_c, 1, 40, 0
3, 61500, Note_on_c, 1, 35, 0
3, 61500, Note_on_c, 1, 36, 127
3, 61500, Note_on_c, 1, 41, 127
3, 61560, Note_on_c, 1, 36, 0
3, 61560, Note_on_c, 1, 41, 0
3, 61560, Note_on_c, 1, 28, 127
3, 61580, Note_on_c, 1, 28, 0
3, 61580, Note_on_c, 1, 28, 127
3, 61600, Note_on_c, 1, 28, 0
3, 61600, Note_on_c, 1, 28, 127
3, 61620, Note_on_c, 1, 28, 0
3, 61620, Note_on_c, 1, 28, 127
3, 61640, Note_on_c, 1, 28, 0
3, 61640, Note_on_c, 1, 28, 127
3, 61660, Note_on_c, 1, 28, 0
3, 61660, Note_on_c, 1, 28, 127
3, 61680, Note_on_c, 1, 28, 0
3, 61680, Note_on_c, 1, 40, 127
3, 61680, Note_on_c, 1, 35, 127
3, 61740, Note_on_c, 1, 40, 0
3, 61740, Note_on_c, 1, 35, 0
3, 61800, Note_on_c, 1, 28, 127
3, 61820, Note_on_c, 1, 28, 0
3, 61820, Note_on_c, 1, 28, 127
3, 61840, Note_on_c, 1, 28, 0
3, 61840, Note_on_c, 1, 28, 127
3, 61860, Note_on_c, 1, 28, 0
3, 61860, Note_on_c, 1, 28, 127
3, 61880, Note_on_c, 1, 28, 0
3, 61880, Note_on_c, 1, 28, 127
3, 61900, Note_on_c, 1, 28, 0
3, 61900, Note_on_c, 1, 28, 127
3, 61920, Note_on_c, 1, 28, 0
3, 61920, Note_on_c, 1, 40, 127
3, 61920, Note_on_c, 1, 35, 127
3, 61980, Note_on_c, 1, 40, 0
3, 61980, Note_on_c, 1, 35, 0
3, 62040, Note_on_c, 1, 28, 127
3, 62060, Note_on_c, 1, 28, 0
3, 62060, Note_on_c, 1, 28, 127
3, 62080, Note_on_c, 1, 28, 0
3, 62080, Note_on_c, 1, 28, 127
3, 62100, Note_on_c, 1, 28, 0
3, 62100, Note_on_c, 1, 28, 127
3, 62120, Note_on_c, 1, 28, 0
3, 62120, Note_on_c, 1, 28, 127
3, 62140, Note_on_c, 1, 28, 0
3, 62140, Note_on_c, 1, 28, 127
3, 62160, Note_on_c, 1, 28, 0
3, 62160, Note_on_c, 1, 40, 127
3, 62160, Note_on_c, 1, 35, 127
3, 62220, Note_on_c, 1, 40, 0
3, 62220, Note_on_c, 1, 35, 0
3, 62280, Note_on_c, 1, 28, 127
3, 62300, Note_on_c, 1, 28, 0
3, 62300, Note_on_c, 1, 28, 127
3, 62320, Note_on_c, 1, 28, 0
3, 62320, Note_on_c, 1, 28, 127
3, 62340, Note_on_c, 1, 28, 0
3, 62340, Note_on_c, 1, 28, 127
3, 62360, Note_on_c, 1, 28, 0
3, 62360, Note_on_c, 1, 28, 127
3, 62380, Note_on_c, 1, 28, 0
3, 62380, Note_on_c, 1, 28, 127
3, 62400, Note_on_c, 1, 28, 0
3, 62400, Note_on_c, 1, 40, 127
3, 62400, Note_on_c, 1, 35, 127
3, 62460, Note_on_c, 1, 40, 0
3, 62460, Note_on_c, 1, 35, 0
3, 62460, Note_on_c, 1, 36, 127
3, 62460, Note_on_c, 1, 41, 127
3, 62520, Note_on_c, 1, 36, 0
3, 62520, Note_on_c, 1, 41, 0
3, 62520, Note_on_c, 1, 28, 127
3, 62560, Note_on_c, 1, 28, 0
3, 62560, Note_on_c, 1, 28, 127
3, 62600, Note_on_c, 1, 28, 0
3, 62600, Note_on_c, 1, 28, 127
3, 62640, Note_on_c, 1, 28, 0
3, 62640, Note_on_c, 1, 28, 127
3, 62680, Note_on_c, 1, 28, 0
3, 62680, Note_on_c, 1, 28, 127
3, 62720, Note_on_c, 1, 28, 0
3, 62720, Note_on_c, 1, 28, 127
3, 62760, Note_on_c, 1, 28, 0
3, 62760, Note_on_c, 1, 40, 127
3, 62760, Note_on_c, 1, 35, 127
3, 62880, Note_on_c, 1, 40, 0
3, 62880, Note_on_c, 1, 35, 0
3, 62880, Note_on_c, 1, 28, 127
3, 62920, Note_on_c, 1, 28, 0
3, 62920, Note_on_c, 1, 28, 127
3, 62960, Note_on_c, 1, 28, 0
3, 62960, Note_on_c, 1, 28, 127
3, 63000, Note_on_c, 1, 28, 0
3, 63000, Note_on_c, 1, 28, 127
3, 63040, Note_on_c, 1, 28, 0
3, 63040, Note_on_c, 1, 28, 127
3, 63080, Note_on_c, 1, 28, 0
3, 63080, Note_on_c, 1, 28, 127
3, 63120, Note_on_c, 1, 28, 0
3, 63120, Note_on_c, 1, 40, 127
3, 63120, Note_on_c, 1, 35, 127
3, 63240, Note_on_c, 1, 40, 0
3, 63240, Note_on_c, 1, 35, 0
3, 63240, Note_on_c, 1, 28, 127
3, 63280, Note_on_c, 1, 28, 0
3, 63280, Note_on_c, 1, 28, 127
3, 63320, Note_on_c, 1, 28, 0
3, 63320, Note_on_c, 1, 28, 127
3, 63360, Note_on_c, 1, 28, 0
3, 63360, Note_on_c, 1, 41, 127
3, 63360, Note_on_c, 1, 36, 127
3, 63480, Note_on_c, 1, 41, 0
3, 63480, Note_on_c, 1, 36, 0
3, 63480, Note_on_c, 1, 28, 127
3, 63520, Note_on_c, 1, 28, 0
3, 63520, Note_on_c, 1, 28, 127
3, 63560, Note_on_c, 1, 28, 0
3, 63560, Note_on_c, 1, 28, 127
3, 63600, Note_on_c, 1, 28, 0
3, 63600, Note_on_c, 1, 28, 127
3, 63640, Note_on_c, 1, 28, 0
3, 63640, Note_on_c, 1, 28, 127
3, 63680, Note_on_c, 1, 28, 0
3, 63680, Note_on_c, 1, 28, 127
3, 63720, Note_on_c, 1, 28, 0
3, 63720, Note_on_c, 1, 40, 127
3, 63720, Note_on_c, 1, 35, 127
3, 63840, Note_on_c, 1, 40, 0
3, 63840, Note_on_c, 1, 35, 0
3, 63840, Note_on_c, 1, 28, 127
3, 63880, Note_on_c, 1, 28, 0
3, 63880, Note_on_c, 1, 28, 127
3, 63920, Note_on_c, 1, 28, 0
3, 63920, Note_on_c, 1, 28, 127
3, 63960, Note_on_c, 1, 28, 0
3, 63960, Note_on_c, 1, 28, 127
3, 64000, Note_on_c, 1, 28, 0
3, 64000, Note_on_c, 1, 28, 127
3, 64040, Note_on_c, 1, 28, 0
3, 64040, Note_on_c, 1, 28, 127
3, 64080, Note_on_c, 1, 28, 0
3, 64080, Note_on_c, 1, 40, 127
3, 64080, Note_on_c, 1, 35, 127
3, 64200, Note_on_c, 1, 40, 0
3, 64200, Note_on_c, 1, 35, 0
3, 64200, Note_on_c, 1, 28, 127
3, 64240, Note_on_c, 1, 28, 0
3, 64240, Note_on_c, 1, 28, 127
3, 64280, Note_on_c, 1, 28, 0
3, 64280, Note_on_c, 1, 28, 127
3, 64320, Note_on_c, 1, 28, 0
3, 64320, Note_on_c, 1, 41, 127
3, 64320, Note_on_c, 1, 36, 127
3, 64440, Note_on_c, 1, 41, 0
3, 64440, Note_on_c, 1, 36, 0
3, 64440, Note_on_c, 1, 28, 127
3, 64480, Note_on_c, 1, 28, 0
3, 64480, Note_on_c, 1, 28, 127
3, 64520, Note_on_c, 1, 28, 0
3, 64520, Note_on_c, 1, 28, 127
3, 64560, Note_on_c, 1, 28, 0
3, 64560, Note_on_c, 1, 28, 127
3, 64600, Note_on_c, 1, 28, 0
3, 64600, Note_on_c, 1, 28, 127
3, 64640, Note_on_c, 1, 28, 0
3, 64640, Note_on_c, 1, 28, 127
3, 64680, Note_on_c, 1, 28, 0
3, 64680, Note_on_c, 1, 40, 127
3, 64680, Note_on_c, 1, 35, 127
3, 64800, Note_on_c, 1, 40, 0
3, 64800, Note_on_c, 1, 35, 0
3, 64800, Note_on_c, 1, 28, 127
3, 64840, Note_on_c, 1, 28, 0
3, 64840, Note_on_c, 1, 28, 127
3, 64880, Note_on_c, 1, 28, 0
3, 64880, Note_on_c, 1, 28, 127
3, 64920, Note_on_c, 1, 28, 0
3, 64920, Note_on_c, 1, 28, 127
3, 64960, Note_on_c, 1, 28, 0
3, 64960, Note_on_c, 1, 28, 127
3, 65000, Note_on_c, 1, 28, 0
3, 65000, Note_on_c, 1, 28, 127
3, 65040, Note_on_c, 1, 28, 0
3, 65040, Note_on_c, 1, 40, 127
3, 65040, Note_on_c, 1, 35, 127
3, 65160, Note_on_c, 1, 40, 0
3, 65160, Note_on_c, 1, 35, 0
3, 65160, Note_on_c, 1, 28, 127
3, 65200, Note_on_c, 1, 28, 0
3, 65200, Note_on_c, 1, 28, 127
3, 65240, Note_on_c, 1, 28, 0
3, 65240, Note_on_c, 1, 28, 127
3, 65280, Note_on_c, 1, 28, 0
3, 65280, Note_on_c, 1, 41, 127
3, 65280, Note_on_c, 1, 36, 127
3, 65400, Note_on_c, 1, 41, 0
3, 65400, Note_on_c, 1, 36, 0
3, 65400, Note_on_c, 1, 28, 127
3, 65440, Note_on_c, 1, 28, 0
3, 65440, Note_on_c, 1, 28, 127
3, 65480, Note_on_c, 1, 28, 0
3, 65480, Note_on_c, 1, 28, 127
3, 65520, Note_on_c, 1, 28, 0
3, 65520, Note_on_c, 1, 28, 127
3, 65560, Note_on_c, 1, 28, 0
3, 65560, Note_on_c, 1, 28, 127
3, 65600, Note_on_c, 1, 28, 0
3, 65600, Note_on_c, 1, 28, 127
3, 65640, Note_on_c, 1, 28, 0
3, 65640, Note_on_c, 1, 40, 127
3, 65640, Note_on_c, 1, 35, 127
3, 65760, Note_on_c, 1, 40, 0
3, 65760, Note_on_c, 1, 35, 0
3, 65760, Note_on_c, 1, 28, 127
3, 65800, Note_on_c, 1, 28, 0
3, 65800, Note_on_c, 1, 28, 127
3, 65840, Note_on_c, 1, 28, 0
3, 65840, Note_on_c, 1, 28, 127
3, 65880, Note_on_c, 1, 28, 0
3, 65880, Note_on_c, 1, 28, 127
3, 65920, Note_on_c, 1, 28, 0
3, 65920, Note_on_c, 1, 28, 127
3, 65960, Note_on_c, 1, 28, 0
3, 65960, Note_on_c, 1, 28, 127
3, 66000, Note_on_c, 1, 28, 0
3, 66000, Note_on_c, 1, 40, 127
3, 66000, Note_on_c, 1, 35, 127
3, 66120, Note_on_c, 1, 40, 0
3, 66120, Note_on_c, 1, 35, 0
3, 66120, Note_on_c, 1, 28, 127
3, 66160, Note_on_c, 1, 28, 0
3, 66160, Note_on_c, 1, 28, 127
3, 66200, Note_on_c, 1, 28, 0
3, 66200, Note_on_c, 1, 28, 127
3, 66240, Note_on_c, 1, 28, 0
3, 66240, Note_on_c, 1, 41, 127
3, 66240, Note_on_c, 1, 36, 127
3, 66360, Note_on_c, 1, 41, 0
3, 66360, Note_on_c, 1, 36, 0
3, 66360, Note_on_c, 1, 28, 127
3, 66400, Note_on_c, 1, 28, 0
3, 66400, Note_on_c, 1, 28, 127
3, 66440, Note_on_c, 1, 28, 0
3, 66440, Note_on_c, 1, 28, 127
3, 66480, Note_on_c, 1, 28, 0
3, 66480, Note_on_c, 1, 28, 127
3, 66520, Note_on_c, 1, 28, 0
3, 66520, Note_on_c, 1, 28, 127
3, 66560, Note_on_c, 1, 28, 0
3, 66560, Note_on_c, 1, 28, 127
3, 66600, Note_on_c, 1, 28, 0
3, 66600, Note_on_c, 1, 28, 127
3, 66660, Note_on_c, 1, 28, 0
3, 66720, Note_on_c, 1, 28, 127
3, 66760, Note_on_c, 1, 28, 0
3, 66760, Note_on_c, 1, 28, 127
3, 66800, Note_on_c, 1, 28, 0
3, 66800, Note_on_c, 1, 28, 127
3, 66840, Note_on_c, 1, 28, 0
3, 66840, Note_on_c, 1, 28, 127
3, 66880, Note_on_c, 1, 28, 0
3, 66880, Note_on_c, 1, 28, 127
3, 66920, Note_on_c, 1, 28, 0
3, 66920, Note_on_c, 1, 28, 127
3, 66960, Note_on_c, 1, 28, 0
3, 66960, Note_on_c, 1, 28, 127
3, 67020, Note_on_c, 1, 28, 0
3, 67080, Note_on_c, 1, 28, 127
3, 67120, Note_on_c, 1, 28, 0
3, 67120, Note_on_c, 1, 28, 127
3, 67160, Note_on_c, 1, 28, 0
3, 67160, Note_on_c, 1, 28, 127
3, 67200, Note_on_c, 1, 28, 0
3, 67200, Note_on_c, 1, 28, 127
3, 67260, Note_on_c, 1, 28, 0
3, 67320, Note_on_c, 1, 28, 127
3, 67360, Note_on_c, 1, 28, 0
3, 67360, Note_on_c, 1, 28, 127
3, 67400, Note_on_c, 1, 28, 0
3, 67400, Note_on_c, 1, 28, 127
3, 67440, Note_on_c, 1, 28, 0
3, 67440, Note_on_c, 1, 28, 127
3, 67480, Note_on_c, 1, 28, 0
3, 67480, Note_on_c, 1, 28, 127
3, 67520, Note_on_c, 1, 28, 0
3, 67520, Note_on_c, 1, 28, 127
3, 67560, Note_on_c, 1, 28, 0
3, 67560, Note_on_c, 1, 28, 127
3, 67620, Note_on_c, 1, 28, 0
3, 67680, Note_on_c, 1, 28, 127
3, 67720, Note_on_c, 1, 28, 0
3, 67720, Note_on_c, 1, 28, 127
3, 67760, Note_on_c, 1, 28, 0
3, 67760, Note_on_c, 1, 28, 127
3, 67800, Note_on_c, 1, 28, 0
3, 67800, Note_on_c, 1, 28, 127
3, 67840, Note_on_c, 1, 28, 0
3, 67840, Note_on_c, 1, 28, 127
3, 67880, Note_on_c, 1, 28, 0
3, 67880, Note_on_c, 1, 28, 127
3, 67920, Note_on_c, 1, 28, 0
3, 67920, Note_on_c, 1, 28, 127
3, 67980, Note_on_c, 1, 28, 0
3, 68040, Note_on_c, 1, 28, 127
3, 68080, Note_on_c, 1, 28, 0
3, 68080, Note_on_c, 1, 28, 127
3, 68120, Note_on_c, 1, 28, 0
3, 68120, Note_on_c, 1, 28, 127
3, 68160, Note_on_c, 1, 28, 0
3, 68160, Note_on_c, 1, 28, 127
3, 68200, Note_on_c, 1, 28, 0
3, 68200, Note_on_c, 1, 28, 127
3, 68240, Note_on_c, 1, 28, 0
3, 68240, Note_on_c, 1, 28, 127
3, 68280, Note_on_c, 1, 28, 0
3, 68280, Note_on_c, 1, 28, 127
3, 68320, Note_on_c, 1, 28, 0
3, 68320, Note_on_c, 1, 28, 127
3, 68360, Note_on_c, 1, 28, 0
3, 68360, Note_on_c, 1, 28, 127
3, 68400, Note_on_c, 1, 28, 0
3, 68400, Note_on_c, 1, 28, 127
3, 68440, Note_on_c, 1, 28, 0
3, 68440, Note_on_c, 1, 28, 127
3, 68480, Note_on_c, 1, 28, 0
3, 68480, Note_on_c, 1, 28, 127
3, 68520, Note_on_c, 1, 28, 0
3, 68520, Note_on_c, 1, 40, 127
3, 68520, Note_on_c, 1, 35, 127
3, 68640, Note_on_c, 1, 40, 0
3, 68640, Note_on_c, 1, 35, 0
3, 68640, Note_on_c, 1, 28, 127
3, 68680, Note_on_c, 1, 28, 0
3, 68680, Note_on_c, 1, 28, 127
3, 68720, Note_on_c, 1, 28, 0
3, 68720, Note_on_c, 1, 28, 127
3, 68760, Note_on_c, 1, 28, 0
3, 68760, Note_on_c, 1, 28, 127
3, 68800, Note_on_c, 1, 28, 0
3, 68800, Note_on_c, 1, 28, 127
3, 68840, Note_on_c, 1, 28, 0
3, 68840, Note_on_c, 1, 28, 127
3, 68880, Note_on_c, 1, 28, 0
3, 68880, Note_on_c, 1, 40, 127
3, 68880, Note_on_c, 1, 35, 127
3, 69000, Note_on_c, 1, 40, 0
3, 69000, Note_on_c, 1, 35, 0
3, 69000, Note_on_c, 1, 28, 127
3, 69040, Note_on_c, 1, 28, 0
3, 69040, Note_on_c, 1, 28, 127
3, 69080, Note_on_c, 1, 28, 0
3, 69080, Note_on_c, 1, 28, 127
3, 69120, Note_on_c, 1, 28, 0
3, 69120, Note_on_c, 1, 41, 127
3, 69120, Note_on_c, 1, 36, 127
3, 69240, Note_on_c, 1, 41, 0
3, 69240, Note_on_c, 1, 36, 0
3, 69240, Note_on_c, 1, 28, 127
3, 69280, Note_on_c, 1, 28, 0
3, 69280, Note_on_c, 1, 28, 127
3, 69320, Note_on_c, 1, 28, 0
3, 69320, Note_on_c, 1, 28, 127
3, 69360, Note_on_c, 1, 28, 0
3, 69360, Note_on_c, 1, 28, 127
3, 69400, Note_on_c, 1, 28, 0
3, 69400, Note_on_c, 1, 28, 127
3, 69440, Note_on_c, 1, 28, 0
3, 69440, Note_on_c, 1, 28, 127
3, 69480, Note_on_c, 1, 28, 0
3, 69480, Note_on_c, 1, 40, 127
3, 69480, Note_on_c, 1, 35, 127
3, 69600, Note_on_c, 1, 40, 0
3, 69600, Note_on_c, 1, 35, 0
3, 69600, Note_on_c, 1, 28, 127
3, 69640, Note_on_c, 1, 28, 0
3, 69640, Note_on_c, 1, 28, 127
3, 69680, Note_on_c, 1, 28, 0
3, 69680, Note_on_c, 1, 28, 127
3, 69720, Note_on_c, 1, 28, 0
3, 69720, Note_on_c, 1, 28, 127
3, 69760, Note_on_c, 1, 28, 0
3, 69760, Note_on_c, 1, 28, 127
3, 69800, Note_on_c, 1, 28, 0
3, 69800, Note_on_c, 1, 28, 127
3, 69840, Note_on_c, 1, 28, 0
3, 69840, Note_on_c, 1, 40, 127
3, 69840, Note_on_c, 1, 35, 127
3, 69960, Note_on_c, 1, 40, 0
3, 69960, Note_on_c, 1, 35, 0
3, 69960, Note_on_c, 1, 28, 127
3, 70000, Note_on_c, 1, 28, 0
3, 70000, Note_on_c, 1, 28, 127
3, 70040, Note_on_c, 1, 28, 0
3, 70040, Note_on_c, 1, 28, 127
3, 70080, Note_on_c, 1, 28, 0
3, 70080, Note_on_c, 1, 41, 127
3, 70080, Note_on_c, 1, 36, 127
3, 70200, Note_on_c, 1, 41, 0
3, 70200, Note_on_c, 1, 36, 0
3, 70200, Note_on_c, 1, 28, 127
3, 70240, Note_on_c, 1, 28, 0
3, 70240, Note_on_c, 1, 28, 127
3, 70280, Note_on_c, 1, 28, 0
3, 70280, Note_on_c, 1, 28, 127
3, 70320, Note_on_c, 1, 28, 0
3, 70320, Note_on_c, 1, 28, 127
3, 70360, Note_on_c, 1, 28, 0
3, 70360, Note_on_c, 1, 28, 127
3, 70400, Note_on_c, 1, 28, 0
3, 70400, Note_on_c, 1, 28, 127
3, 70440, Note_on_c, 1, 28, 0
3, 70440, Note_on_c, 1, 40, 127
3, 70440, Note_on_c, 1, 35, 127
3, 70560, Note_on_c, 1, 40, 0
3, 70560, Note_on_c, 1, 35, 0
3, 70560, Note_on_c, 1, 28, 127
3, 70600, Note_on_c, 1, 28, 0
3, 70600, Note_on_c, 1, 28, 127
3, 70640, Note_on_c, 1, 28, 0
3, 70640, Note_on_c, 1, 28, 127
3, 70680, Note_on_c, 1, 28, 0
3, 70680, Note_on_c, 1, 28, 127
3, 70720, Note_on_c, 1, 28, 0
3, 70720, Note_on_c, 1, 28, 127
3, 70760, Note_on_c, 1, 28, 0
3, 70760, Note_on_c, 1, 28, 127
3, 70800, Note_on_c, 1, 28, 0
3, 70800, Note_on_c, 1, 40, 127
3, 70800, Note_on_c, 1, 35, 127
3, 70920, Note_on_c, 1, 40, 0
3, 70920, Note_on_c, 1, 35, 0
3, 70920, Note_on_c, 1, 28, 127
3, 70960, Note_on_c, 1, 28, 0
3, 70960, Note_on_c, 1, 28, 127
3, 71000, Note_on_c, 1, 28, 0
3, 71000, Note_on_c, 1, 28, 127
3, 71040, Note_on_c, 1, 28, 0
3, 71040, Note_on_c, 1, 41, 127
3, 71040, Note_on_c, 1, 36, 127
3, 71160, Note_on_c, 1, 41, 0
3, 71160, Note_on_c, 1, 36, 0
3, 71160, Note_on_c, 1, 28, 127
3, 71200, Note_on_c, 1, 28, 0
3, 71200, Note_on_c, 1, 28, 127
3, 71240, Note_on_c, 1, 28, 0
3, 71240, Note_on_c, 1, 28, 127
3, 71280, Note_on_c, 1, 28, 0
3, 71280, Note_on_c, 1, 28, 127
3, 71320, Note_on_c, 1, 28, 0
3, 71320, Note_on_c, 1, 28, 127
3, 71360, Note_on_c, 1, 28, 0
3, 71360, Note_on_c, 1, 28, 127
3, 71400, Note_on_c, 1, 28, 0
3, 71400, Note_on_c, 1, 40, 127
3, 71400, Note_on_c, 1, 35, 127
3, 71520, Note_on_c, 1, 40, 0
3, 71520, Note_on_c, 1, 35, 0
3, 71520, Note_on_c, 1, 28, 127
3, 71560, Note_on_c, 1, 28, 0
3, 71560, Note_on_c, 1, 28, 127
3, 71600, Note_on_c, 1, 28, 0
3, 71600, Note_on_c, 1, 28, 127
3, 71640, Note_on_c, 1, 28, 0
3, 71640, Note_on_c, 1, 28, 127
3, 71680, Note_on_c, 1, 28, 0
3, 71680, Note_on_c, 1, 28, 127
3, 71720, Note_on_c, 1, 28, 0
3, 71720, Note_on_c, 1, 28, 127
3, 71760, Note_on_c, 1, 28, 0
3, 71760, Note_on_c, 1, 40, 127
3, 71760, Note_on_c, 1, 35, 127
3, 71880, Note_on_c, 1, 40, 0
3, 71880, Note_on_c, 1, 35, 0
3, 71880, Note_on_c, 1, 28, 127
3, 71920, Note_on_c, 1, 28, 0
3, 71920, Note_on_c, 1, 28, 127
3, 71960, Note_on_c, 1, 28, 0
3, 71960, Note_on_c, 1, 28, 127
3, 72000, Note_on_c, 1, 28, 0
3, 72000, Note_on_c, 1, 41, 127
3, 72000, Note_on_c, 1, 36, 127
3, 72120, Note_on_c, 1, 41, 0
3, 72120, Note_on_c, 1, 36, 0
3, 72120, Note_on_c, 1, 28, 127
3, 72160, Note_on_c, 1, 28, 0
3, 72160, Note_on_c, 1, 28, 127
3, 72200, Note_on_c, 1, 28, 0
3, 72200, Note_on_c, 1, 28, 127
3, 72240, Note_on_c, 1, 28, 0
3, 72240, Note_on_c, 1, 28, 127
3, 72280, Note_on_c, 1, 28, 0
3, 72280, Note_on_c, 1, 28, 127
3, 72320, Note_on_c, 1, 28, 0
3, 72320, Note_on_c, 1, 28, 127
3, 72360, Note_on_c, 1, 28, 0
3, 72360, Note_on_c, 1, 28, 127
3, 72420, Note_on_c, 1, 28, 0
3, 72480, Note_on_c, 1, 28, 127
3, 72520, Note_on_c, 1, 28, 0
3, 72520, Note_on_c, 1, 28, 127
3, 72560, Note_on_c, 1, 28, 0
3, 72560, Note_on_c, 1, 28, 127
3, 72600, Note_on_c, 1, 28, 0
3, 72600, Note_on_c, 1, 28, 127
3, 72640, Note_on_c, 1, 28, 0
3, 72640, Note_on_c, 1, 28, 127
3, 72680, Note_on_c, 1, 28, 0
3, 72680, Note_on_c, 1, 28, 127
3, 72720, Note_on_c, 1, 28, 0
3, 72720, Note_on_c, 1, 28, 127
3, 72780, Note_on_c, 1, 28, 0
3, 72840, Note_on_c, 1, 28, 127
3, 72880, Note_on_c, 1, 28, 0
3, 72880, Note_on_c, 1, 28, 127
3, 72920, Note_on_c, 1, 28, 0
3, 72920, Note_on_c, 1, 28, 127
3, 72960, Note_on_c, 1, 28, 0
3, 72960, Note_on_c, 1, 28, 127
3, 73020, Note_on_c, 1, 28, 0
3, 73080, Note_on_c, 1, 28, 127
3, 73120, Note_on_c, 1, 28, 0
3, 73120, Note_on_c, 1, 28, 127
3, 73160, Note_on_c, 1, 28, 0
3, 73160, Note_on_c, 1, 28, 127
3, 73200, Note_on_c, 1, 28, 0
3, 73200, Note_on_c, 1, 28, 127
3, 73240, Note_on_c, 1, 28, 0
3, 73240, Note_on_c, 1, 28, 127
3, 73280, Note_on_c, 1, 28, 0
3, 73280, Note_on_c, 1, 28, 127
3, 73320, Note_on_c, 1, 28, 0
3, 73320, Note_on_c, 1, 28, 127
3, 73380, Note_on_c, 1, 28, 0
3, 73440, Note_on_c, 1, 28, 127
3, 73480, Note_on_c, 1, 28, 0
3, 73480, Note_on_c, 1, 28, 127
3, 73520, Note_on_c, 1, 28, 0
3, 73520, Note_on_c, 1, 28, 127
3, 73560, Note_on_c, 1, 28, 0
3, 73560, Note_on_c, 1, 28, 127
3, 73600, Note_on_c, 1, 28, 0
3, 73600, Note_on_c, 1, 28, 127
3, 73640, Note_on_c, 1, 28, 0
3, 73640, Note_on_c, 1, 28, 127
3, 73680, Note_on_c, 1, 28, 0
3, 73680, Note_on_c, 1, 28, 127
3, 73740, Note_on_c, 1, 28, 0
3, 73800, Note_on_c, 1, 28, 127
3, 73840, Note_on_c, 1, 28, 0
3, 73840, Note_on_c, 1, 28, 127
3, 73880, Note_on_c, 1, 28, 0
3, 73880, Note_on_c, 1, 28, 127
3, 73920, Note_on_c, 1, 28, 0
3, 73920, Note_on_c, 1, 28, 127
3, 73960, Note_on_c, 1, 28, 0
3, 73960, Note_on_c, 1, 28, 127
3, 74000, Note_on_c, 1, 28, 0
3, 74000, Note_on_c, 1, 28, 127
3, 74040, Note_on_c, 1, 28, 0
3, 74040, Note_on_c, 1, 28, 127
3, 74080, Note_on_c, 1, 28, 0
3, 74080, Note_on_c, 1, 28, 127
3, 74120, Note_on_c, 1, 28, 0
3, 74120, Note_on_c, 1, 28, 127
3, 74160, Note_on_c, 1, 28, 0
3, 74160, Note_on_c, 1, 28, 127
3, 74200, Note_on_c, 1, 28, 0
3, 74200, Note_on_c, 1, 28, 127
3, 74240, Note_on_c, 1, 28, 0
3, 74240, Note_on_c, 1, 28, 127
3, 74280, Note_on_c, 1, 28, 0
3, 74280, Note_on_c, 1, 40, 127
3, 74280, Note_on_c, 1, 35, 127
3, 74400, Note_on_c, 1, 40, 0
3, 74400, Note_on_c, 1, 35, 0
3, 74400, Note_on_c, 1, 28, 127
3, 74440, Note_on_c, 1, 28, 0
3, 74440, Note_on_c, 1, 28, 127
3, 74480, Note_on_c, 1, 28, 0
3, 74480, Note_on_c, 1, 28, 127
3, 74520, Note_on_c, 1, 28, 0
3, 74520, Note_on_c, 1, 28, 127
3, 74560, Note_on_c, 1, 28, 0
3, 74560, Note_on_c, 1, 28, 127
3, 74600, Note_on_c, 1, 28, 0
3, 74600, Note_on_c, 1, 28, 127
3, 74640, Note_on_c, 1, 28, 0
3, 74640, Note_on_c, 1, 40, 127
3, 74640, Note_on_c, 1, 35, 127
3, 74760, Note_on_c, 1, 40, 0
3, 74760, Note_on_c, 1, 35, 0
3, 74760, Note_on_c, 1, 28, 127
3, 74800, Note_on_c, 1, 28, 0
3, 74800, Note_on_c, 1, 28, 127
3, 74840, Note_on_c, 1, 28, 0
3, 74840, Note_on_c, 1, 28, 127
3, 74880, Note_on_c, 1, 28, 0
3, 74880, Note_on_c, 1, 41, 127
3, 74880, Note_on_c, 1, 36, 127
3, 75000, Note_on_c, 1, 41, 0
3, 75000, Note_on_c, 1, 36, 0
3, 75000, Note_on_c, 1, 28, 127
3, 75040, Note_on_c, 1, 28, 0
3, 75040, Note_on_c, 1, 28, 127
3, 75080, Note_on_c, 1, 28, 0
3, 75080, Note_on_c, 1, 28, 127
3, 75120, Note_on_c, 1, 28, 0
3, 75120, Note_on_c, 1, 28, 127
3, 75160, Note_on_c, 1, 28, 0
3, 75160, Note_on_c, 1, 28, 127
3, 75200, Note_on_c, 1, 28, 0
3, 75200, Note_on_c, 1, 28, 127
3, 75240, Note_on_c, 1, 28, 0
3, 75240, Note_on_c, 1, 40, 127
3, 75240, Note_on_c, 1, 35, 127
3, 75360, Note_on_c, 1, 40, 0
3, 75360, Note_on_c, 1, 35, 0
3, 75360, Note_on_c, 1, 28, 127
3, 75400, Note_on_c, 1, 28, 0
3, 75400, Note_on_c, 1, 28, 127
3, 75440, Note_on_c, 1, 28, 0
3, 75440, Note_on_c, 1, 28, 127
3, 75480, Note_on_c, 1, 28, 0
3, 75480, Note_on_c, 1, 28, 127
3, 75520, Note_on_c, 1, 28, 0
3, 75520, Note_on_c, 1, 28, 127
3, 75560, Note_on_c, 1, 28, 0
3, 75560, Note_on_c, 1, 28, 127
3, 75600, Note_on_c, 1, 28, 0
3, 75600, Note_on_c, 1, 40, 127
3, 75600, Note_on_c, 1, 35, 127
3, 75720, Note_on_c, 1, 40, 0
3, 75720, Note_on_c, 1, 35, 0
3, 75720, Note_on_c, 1, 28, 127
3, 75760, Note_on_c, 1, 28, 0
3, 75760, Note_on_c, 1, 28, 127
3, 75800, Note_on_c, 1, 28, 0
3, 75800, Note_on_c, 1, 28, 127
3, 75840, Note_on_c, 1, 28, 0
3, 75840, Note_on_c, 1, 41, 127
3, 75840, Note_on_c, 1, 36, 127
3, 75960, Note_on_c, 1, 41, 0
3, 75960, Note_on_c, 1, 36, 0
3, 75960, Note_on_c, 1, 28, 127
3, 76000, Note_on_c, 1, 28, 0
3, 76000, Note_on_c, 1, 28, 127
3, 76040, Note_on_c, 1, 28, 0
3, 76040, Note_on_c, 1, 28, 127
3, 76080, Note_on_c, 1, 28, 0
3, 76080, Note_on_c, 1, 28, 127
3, 76120, Note_on_c, 1, 28, 0
3, 76120, Note_on_c, 1, 28, 127
3, 76160, Note_on_c, 1, 28, 0
3, 76160, Note_on_c, 1, 28, 127
3, 76200, Note_on_c, 1, 28, 0
3, 76200, Note_on_c, 1, 40, 127
3, 76200, Note_on_c, 1, 35, 127
3, 76320, Note_on_c, 1, 40, 0
3, 76320, Note_on_c, 1, 35, 0
3, 76320, Note_on_c, 1, 28, 127
3, 76360, Note_on_c, 1, 28, 0
3, 76360, Note_on_c, 1, 28, 127
3, 76400, Note_on_c, 1, 28, 0
3, 76400, Note_on_c, 1, 28, 127
3, 76440, Note_on_c, 1, 28, 0
3, 76440, Note_on_c, 1, 28, 127
3, 76480, Note_on_c, 1, 28, 0
3, 76480, Note_on_c, 1, 28, 127
3, 76520, Note_on_c, 1, 28, 0
3, 76520, Note_on_c, 1, 28, 127
3, 76560, Note_on_c, 1, 28, 0
3, 76560, Note_on_c, 1, 40, 127
3, 76560, Note_on_c, 1, 35, 127
3, 76680, Note_on_c, 1, 40, 0
3, 76680, Note_on_c, 1, 35, 0
3, 76680, Note_on_c, 1, 28, 127
3, 76720, Note_on_c, 1, 28, 0
3, 76720, Note_on_c, 1, 28, 127
3, 76760, Note_on_c, 1, 28, 0
3, 76760, Note_on_c, 1, 28, 127
3, 76800, Note_on_c, 1, 28, 0
3, 76800, Note_on_c, 1, 41, 127
3, 76800, Note_on_c, 1, 36, 127
3, 76920, Note_on_c, 1, 41, 0
3, 76920, Note_on_c, 1, 36, 0
3, 76920, Note_on_c, 1, 28, 127
3, 76960, Note_on_c, 1, 28, 0
3, 76960, Note_on_c, 1, 28, 127
3, 77000, Note_on_c, 1, 28, 0
3, 77000, Note_on_c, 1, 28, 127
3, 77040, Note_on_c, 1, 28, 0
3, 77040, Note_on_c, 1, 28, 127
3, 77080, Note_on_c, 1, 28, 0
3, 77080, Note_on_c, 1, 28, 127
3, 77120, Note_on_c, 1, 28, 0
3, 77120, Note_on_c, 1, 28, 127
3, 77160, Note_on_c, 1, 28, 0
3, 77160, Note_on_c, 1, 40, 127
3, 77160, Note_on_c, 1, 35, 127
3, 77280, Note_on_c, 1, 40, 0
3, 77280, Note_on_c, 1, 35, 0
3, 77280, Note_on_c, 1, 28, 127
3, 77320, Note_on_c, 1, 28, 0
3, 77320, Note_on_c, 1, 28, 127
3, 77360, Note_on_c, 1, 28, 0
3, 77360, Note_on_c, 1, 28, 127
3, 77400, Note_on_c, 1, 28, 0
3, 77400, Note_on_c, 1, 28, 127
3, 77440, Note_on_c, 1, 28, 0
3, 77440, Note_on_c, 1, 28, 127
3, 77480, Note_on_c, 1, 28, 0
3, 77480, Note_on_c, 1, 28, 127
3, 77520, Note_on_c, 1, 28, 0
3, 77520, Note_on_c, 1, 40, 127
3, 77520, Note_on_c, 1, 35, 127
3, 77640, Note_on_c, 1, 40, 0
3, 77640, Note_on_c, 1, 35, 0
3, 77640, Note_on_c, 1, 28, 127
3, 77680, Note_on_c, 1, 28, 0
3, 77680, Note_on_c, 1, 28, 127
3, 77720, Note_on_c, 1, 28, 0
3, 77720, Note_on_c, 1, 28, 127
3, 77760, Note_on_c, 1, 28, 0
3, 77760, Note_on_c, 1, 41, 127
3, 77760, Note_on_c, 1, 36, 127
3, 77880, Note_on_c, 1, 41, 0
3, 77880, Note_on_c, 1, 36, 0
3, 77880, Note_on_c, 1, 28, 127
3, 77920, Note_on_c, 1, 28, 0
3, 77920, Note_on_c, 1, 28, 127
3, 77960, Note_on_c, 1, 28, 0
3, 77960, Note_on_c, 1, 28, 127
3, 78000, Note_on_c, 1, 28, 0
3, 78000, Note_on_c, 1, 28, 127
3, 78040, Note_on_c, 1, 28, 0
3, 78040, Note_on_c, 1, 28, 127
3, 78080, Note_on_c, 1, 28, 0
3, 78080, Note_on_c, 1, 28, 127
3, 78120, Note_on_c, 1, 28, 0
3, 78120, Note_on_c, 1, 40, 127
3, 78120, Note_on_c, 1, 35, 127
3, 78240, Note_on_c, 1, 40, 0
3, 78240, Note_on_c, 1, 35, 0
3, 78240, Note_on_c, 1, 28, 127
3, 78280, Note_on_c, 1, 28, 0
3, 78280, Note_on_c, 1, 28, 127
3, 78320, Note_on_c, 1, 28, 0
3, 78320, Note_on_c, 1, 28, 127
3, 78360, Note_on_c, 1, 28, 0
3, 78360, Note_on_c, 1, 28, 127
3, 78400, Note_on_c, 1, 28, 0
3, 78400, Note_on_c, 1, 28, 127
3, 78440, Note_on_c, 1, 28, 0
3, 78440, Note_on_c, 1, 28, 127
3, 78480, Note_on_c, 1, 28, 0
3, 78480, Note_on_c, 1, 40, 127
3, 78480, Note_on_c, 1, 35, 127
3, 78600, Note_on_c, 1, 40, 0
3, 78600, Note_on_c, 1, 35, 0
3, 78600, Note_on_c, 1, 28, 127
3, 78640, Note_on_c, 1, 28, 0
3, 78640, Note_on_c, 1, 28, 127
3, 78680, Note_on_c, 1, 28, 0
3, 78680, Note_on_c, 1, 28, 127
3, 78720, Note_on_c, 1, 28, 0
3, 78720, Note_on_c, 1, 41, 127
3, 78720, Note_on_c, 1, 36, 127
3, 78840, Note_on_c, 1, 41, 0
3, 78840, Note_on_c, 1, 36, 0
3, 78840, Note_on_c, 1, 28, 127
3, 78880, Note_on_c, 1, 28, 0
3, 78880, Note_on_c, 1, 28, 127
3, 78920, Note_on_c, 1, 28, 0
3, 78920, Note_on_c, 1, 28, 127
3, 78960, Note_on_c, 1, 28, 0
3, 78960, Note_on_c, 1, 28, 127
3, 79000, Note_on_c, 1, 28, 0
3, 79000, Note_on_c, 1, 28, 127
3, 79040, Note_on_c, 1, 28, 0
3, 79040, Note_on_c, 1, 28, 127
3, 79080, Note_on_c, 1, 28, 0
3, 79080, Note_on_c, 1, 40, 127
3, 79080, Note_on_c, 1, 35, 127
3, 79080, Note_on_c, 1, 28, 127
3, 79200, Note_on_c, 1, 40, 0
3, 79200, Note_on_c, 1, 35, 0
3, 79200, Note_on_c, 1, 28, 0
3, 79200, Note_on_c, 1, 40, 127
3, 79200, Note_on_c, 1, 35, 127
3, 79200, Note_on_c, 1, 28, 127
3, 79320, Note_on_c, 1, 40, 0
3, 79320, Note_on_c, 1, 35, 0
3, 79320, Note_on_c, 1, 28, 0
3, 79320, Note_on_c, 1, 28, 127
3, 79360, Note_on_c, 1, 28, 0
3, 79360, Note_on_c, 1, 28, 127
3, 79400, Note_on_c, 1, 28, 0
3, 79400, Note_on_c, 1, 28, 127
3, 79440, Note_on_c, 1, 28, 0
3, 79440, Note_on_c, 1, 28, 127
3, 79480, Note_on_c, 1, 28, 0
3, 79480, Note_on_c, 1, 28, 127
3, 79520, Note_on_c, 1, 28, 0
3, 79520, Note_on_c, 1, 28, 127
3, 79560, Note_on_c, 1, 28, 0
3, 79560, Note_on_c, 1, 40, 127
3, 79560, Note_on_c, 1, 35, 127
3, 79560, Note_on_c, 1, 28, 127
3, 79680, Note_on_c, 1, 40, 0
3, 79680, Note_on_c, 1, 35, 0
3, 79680, Note_on_c, 1, 28, 0
3, 79680, Note_on_c, 1, 28, 127
3, 79680, Note_on_c, 1, 35, 127
3, 79680, Note_on_c, 1, 40, 127
3, 79800, Note_on_c, 1, 28, 0
3, 79800, Note_on_c, 1, 35, 0
3, 79800, Note_on_c, 1, 40, 0
3, 79800, Note_on_c, 1, 28, 127
3, 79840, Note_on_c, 1, 28, 0
3, 79840, Note_on_c, 1, 28, 127
3, 79880, Note_on_c, 1, 28, 0
3, 79880, Note_on_c, 1, 28, 127
3, 79920, Note_on_c, 1, 28, 0
3, 79920, Note_on_c, 1, 28, 127
3, 79960, Note_on_c, 1, 28, 0
3, 79960, Note_on_c, 1, 28, 127
3, 80000, Note_on_c, 1, 28, 0
3, 80000, Note_on_c, 1, 28, 127
3, 80040, Note_on_c, 1, 28, 0
3, 80040, Note_on_c, 1, 40, 127
3, 80040, Note_on_c, 1, 35, 127
3, 80160, Note_on_c, 1, 40, 0
3, 80160, Note_on_c, 1, 35, 0
3, 80160, Note_on_c, 1, 36, 127
3, 80160, Note_on_c, 1, 41, 127
3, 80280, Note_on_c, 1, 36, 0
3, 80280, Note_on_c, 1, 41, 0
3, 80280, Note_on_c, 1, 31, 127
3, 80320, Note_on_c, 1, 31, 0
3, 80320, Note_on_c, 1, 31, 127
3, 80360, Note_on_c, 1, 31, 0
3, 80360, Note_on_c, 1, 31, 127
3, 80400, Note_on_c, 1, 31, 0
3, 80400, Note_on_c, 1, 31, 127
3, 80440, Note_on_c, 1, 31, 0
3, 80440, Note_on_c, 1, 31, 127
3, 80480, Note_on_c, 1, 31, 0
3, 80480, Note_on_c, 1, 31, 127
3, 80520, Note_on_c, 1, 31, 0
3, 80520, Note_on_c, 1, 43, 127
3, 80520, Note_on_c, 1, 38, 127
3, 80520, Note_on_c, 1, 31, 127
3, 80640, Note_on_c, 1, 43, 0
3, 80640, Note_on_c, 1, 38, 0
3, 80640, Note_on_c, 1, 31, 0
3, 80640, Note_on_c, 1, 43, 127
3, 80640, Note_on_c, 1, 38, 127
3, 80640, Note_on_c, 1, 31, 127
3, 80760, Note_on_c, 1, 43, 0
3, 80760, Note_on_c, 1, 38, 0
3, 80760, Note_on_c, 1, 31, 0
3, 80760, Note_on_c, 1, 28, 127
3, 80800, Note_on_c, 1, 28, 0
3, 80800, Note_on_c, 1, 28, 127
3, 80840, Note_on_c, 1, 28, 0
3, 80840, Note_on_c, 1, 28, 127
3, 80880, Note_on_c, 1, 28, 0
3, 80880, Note_on_c, 1, 28, 127
3, 80920, Note_on_c, 1, 28, 0
3, 80920, Note_on_c, 1, 28, 127
3, 80960, Note_on_c, 1, 28, 0
3, 80960, Note_on_c, 1, 28, 127
3, 81000, Note_on_c, 1, 28, 0
3, 81000, Note_on_c, 1, 40, 127
3, 81000, Note_on_c, 1, 35, 127
3, 81000, Note_on_c, 1, 28, 127
3, 81120, Note_on_c, 1, 40, 0
3, 81120, Note_on_c, 1, 35, 0
3, 81120, Note_on_c, 1, 28, 0
3, 81120, Note_on_c, 1, 40, 127
3, 81120, Note_on_c, 1, 35, 127
3, 81120, Note_on_c, 1, 28, 127
3, 81240, Note_on_c, 1, 40, 0
3, 81240, Note_on_c, 1, 35, 0
3, 81240, Note_on_c, 1, 28, 0
3, 81240, Note_on_c, 1, 28, 127
3, 81280, Note_on_c, 1, 28, 0
3, 81280, Note_on_c, 1, 28, 127
3, 81320, Note_on_c, 1, 28, 0
3, 81320, Note_on_c, 1, 28, 127
3, 81360, Note_on_c, 1, 28, 0
3, 81360, Note_on_c, 1, 28, 127
3, 81400, Note_on_c, 1, 28, 0
3, 81400, Note_on_c, 1, 28, 127
3, 81440, Note_on_c, 1, 28, 0
3, 81440, Note_on_c, 1, 28, 127
3, 81480, Note_on_c, 1, 28, 0
3, 81480, Note_on_c, 1, 40, 127
3, 81480, Note_on_c, 1, 35, 127
3, 81480, Note_on_c, 1, 28, 127
3, 81600, Note_on_c, 1, 40, 0
3, 81600, Note_on_c, 1, 35, 0
3, 81600, Note_on_c, 1, 28, 0
3, 81600, Note_on_c, 1, 28, 127
3, 81600, Note_on_c, 1, 35, 127
3, 81600, Note_on_c, 1, 40, 127
3, 81720, Note_on_c, 1, 28, 0
3, 81720, Note_on_c, 1, 35, 0
3, 81720, Note_on_c, 1, 40, 0
3, 81720, Note_on_c, 1, 28, 127
3, 81760, Note_on_c, 1, 28, 0
3, 81760, Note_on_c, 1, 28, 127
3, 81800, Note_on_c, 1, 28, 0
3, 81800, Note_on_c, 1, 28, 127
3, 81840, Note_on_c, 1, 28, 0
3, 81840, Note_on_c, 1, 28, 127
3, 81880, Note_on_c, 1, 28, 0
3, 81880, Note_on_c, 1, 28, 127
3, 81920, Note_on_c, 1, 28, 0
3, 81920, Note_on_c, 1, 28, 127
3, 81960, Note_on_c, 1, 28, 0
3, 81960, Note_on_c, 1, 40, 127
3, 81960, Note_on_c, 1, 35, 127
3, 82080, Note_on_c, 1, 40, 0
3, 82080, Note_on_c, 1, 35, 0
3, 82080, Note_on_c, 1, 36, 127
3, 82080, Note_on_c, 1, 41, 127
3, 82200, Note_on_c, 1, 36, 0
3, 82200, Note_on_c, 1, 41, 0
3, 82200, Note_on_c, 1, 31, 127
3, 82240, Note_on_c, 1, 31, 0
3, 82240, Note_on_c, 1, 31, 127
3, 82280, Note_on_c, 1, 31, 0
3, 82280, Note_on_c, 1, 31, 127
3, 82320, Note_on_c, 1, 31, 0
3, 82320, Note_on_c, 1, 31, 127
3, 82360, Note_on_c, 1, 31, 0
3, 82360, Note_on_c, 1, 31, 127
3, 82400, Note_on_c, 1, 31, 0
3, 82400, Note_on_c, 1, 31, 127
3, 82440, Note_on_c, 1, 31, 0
3, 82440, Note_on_c, 1, 43, 127
3, 82440, Note_on_c, 1, 38, 127
3, 82440, Note_on_c, 1, 31, 127
3, 82560, Note_on_c, 1, 43, 0
3, 82560, Note_on_c, 1, 38, 0
3, 82560, Note_on_c, 1, 31, 0
3, 82560, Note_on_c, 1, 43, 127
3, 82560, Note_on_c, 1, 38, 127
3, 82560, Note_on_c, 1, 31, 127
3, 82680, Note_on_c, 1, 43, 0
3, 82680, Note_on_c, 1, 38, 0
3, 82680, Note_on_c, 1, 31, 0
3, 82680, Note_on_c, 1, 31, 127
3, 82720, Note_on_c, 1, 31, 0
3, 82720, Note_on_c, 1, 31, 127
3, 82760, Note_on_c, 1, 31, 0
3, 82760, Note_on_c, 1, 31, 127
3, 82800, Note_on_c, 1, 31, 0
3, 82800, Note_on_c, 1, 31, 127
3, 82840, Note_on_c, 1, 31, 0
3, 82840, Note_on_c, 1, 31, 127
3, 82880, Note_on_c, 1, 31, 0
3, 82880, Note_on_c, 1, 31, 127
3, 82920, Note_on_c, 1, 31, 0
3, 82920, Note_on_c, 1, 43, 127
3, 82920, Note_on_c, 1, 38, 127
3, 82920, Note_on_c, 1, 31, 127
3, 83040, Note_on_c, 1, 43, 0
3, 83040, Note_on_c, 1, 38, 0
3, 83040, Note_on_c, 1, 31, 0
3, 83040, Note_on_c, 1, 43, 127
3, 83040, Note_on_c, 1, 38, 127
3, 83040, Note_on_c, 1, 31, 127
3, 83160, Note_on_c, 1, 43, 0
3, 83160, Note_on_c, 1, 38, 0
3, 83160, Note_on_c, 1, 31, 0
3, 83160, Note_on_c, 1, 31, 127
3, 83200, Note_on_c, 1, 31, 0
3, 83200, Note_on_c, 1, 31, 127
3, 83240, Note_on_c, 1, 31, 0
3, 83240, Note_on_c, 1, 31, 127
3, 83280, Note_on_c, 1, 31, 0
3, 83280, Note_on_c, 1, 31, 127
3, 83320, Note_on_c, 1, 31, 0
3, 83320, Note_on_c, 1, 31, 127
3, 83360, Note_on_c, 1, 31, 0
3, 83360, Note_on_c, 1, 31, 127
3, 83400, Note_on_c, 1, 31, 0
3, 83400, Note_on_c, 1, 43, 127
3, 83400, Note_on_c, 1, 38, 127
3, 83400, Note_on_c, 1, 31, 127
3, 83520, Note_on_c, 1, 43, 0
3, 83520, Note_on_c, 1, 38, 0
3, 83520, Note_on_c, 1, 31, 0
3, 83520, Note_on_c, 1, 43, 127
3, 83520, Note_on_c, 1, 38, 127
3, 83520, Note_on_c, 1, 31, 127
3, 83640, Note_on_c, 1, 43, 0
3, 83640, Note_on_c, 1, 38, 0
3, 83640, Note_on_c, 1, 31, 0
3, 83640, Note_on_c, 1, 31, 127
3, 83680, Note_on_c, 1, 31, 0
3, 83680, Note_on_c, 1, 31, 127
3, 83720, Note_on_c, 1, 31, 0
3, 83720, Note_on_c, 1, 31, 127
3, 83760, Note_on_c, 1, 31, 0
3, 83760, Note_on_c, 1, 31, 127
3, 83800, Note_on_c, 1, 31, 0
3, 83800, Note_on_c, 1, 31, 127
3, 83840, Note_on_c, 1, 31, 0
3, 83840, Note_on_c, 1, 31, 127
3, 83880, Note_on_c, 1, 31, 0
3, 83880, Note_on_c, 1, 43, 127
3, 83880, Note_on_c, 1, 38, 127
3, 84000, Note_on_c, 1, 43, 0
3, 84000, Note_on_c, 1, 38, 0
3, 84000, Note_on_c, 1, 44, 127
3, 84000, Note_on_c, 1, 39, 127
3, 84120, Note_on_c, 1, 44, 0
3, 84120, Note_on_c, 1, 39, 0
3, 84120, Note_on_c, 1, 29, 127
3, 84160, Note_on_c, 1, 29, 0
3, 84160, Note_on_c, 1, 29, 127
3, 84200, Note_on_c, 1, 29, 0
3, 84200, Note_on_c, 1, 29, 127
3, 84240, Note_on_c, 1, 29, 0
3, 84240, Note_on_c, 1, 29, 127
3, 84280, Note_on_c, 1, 29, 0
3, 84280, Note_on_c, 1, 29, 127
3, 84320, Note_on_c, 1, 29, 0
3, 84320, Note_on_c, 1, 29, 127
3, 84360, Note_on_c, 1, 29, 0
3, 84360, Note_on_c, 1, 41, 127
3, 84360, Note_on_c, 1, 36, 127
3, 84360, Note_on_c, 1, 29, 127
3, 84480, Note_on_c, 1, 41, 0
3, 84480, Note_on_c, 1, 36, 0
3, 84480, Note_on_c, 1, 29, 0
3, 84480, Note_on_c, 1, 41, 127
3, 84480, Note_on_c, 1, 36, 127
3, 84480, Note_on_c, 1, 29, 127
3, 84600, Note_on_c, 1, 41, 0
3, 84600, Note_on_c, 1, 36, 0
3, 84600, Note_on_c, 1, 29, 0
3, 84600, Note_on_c, 1, 31, 127
3, 84640, Note_on_c, 1, 31, 0
3, 84640, Note_on_c, 1, 31, 127
3, 84680, Note_on_c, 1, 31, 0
3, 84680, Note_on_c, 1, 31, 127
3, 84720, Note_on_c, 1, 31, 0
3, 84720, Note_on_c, 1, 31, 127
3, 84760, Note_on_c, 1, 31, 0
3, 84760, Note_on_c, 1, 31, 127
3, 84800, Note_on_c, 1, 31, 0
3, 84800, Note_on_c, 1, 31, 127
3, 84840, Note_on_c, 1, 31, 0
3, 84840, Note_on_c, 1, 43, 127
3, 84840, Note_on_c, 1, 38, 127
3, 84840, Note_on_c, 1, 31, 127
3, 84960, Note_on_c, 1, 43, 0
3, 84960, Note_on_c, 1, 38, 0
3, 84960, Note_on_c, 1, 31, 0
3, 84960, Note_on_c, 1, 43, 127
3, 84960, Note_on_c, 1, 38, 127
3, 84960, Note_on_c, 1, 31, 127
3, 85080, Note_on_c, 1, 43, 0
3, 85080, Note_on_c, 1, 38, 0
3, 85080, Note_on_c, 1, 31, 0
3, 85080, Note_on_c, 1, 31, 127
3, 85120, Note_on_c, 1, 31, 0
3, 85120, Note_on_c, 1, 31, 127
3, 85160, Note_on_c, 1, 31, 0
3, 85160, Note_on_c, 1, 31, 127
3, 85200, Note_on_c, 1, 31, 0
3, 85200, Note_on_c, 1, 31, 127
3, 85240, Note_on_c, 1, 31, 0
3, 85240, Note_on_c, 1, 31, 127
3, 85280, Note_on_c, 1, 31, 0
3, 85280, Note_on_c, 1, 31, 127
3, 85320, Note_on_c, 1, 31, 0
3, 85320, Note_on_c, 1, 43, 127
3, 85320, Note_on_c, 1, 38, 127
3, 85320, Note_on_c, 1, 31, 127
3, 85440, Note_on_c, 1, 43, 0
3, 85440, Note_on_c, 1, 38, 0
3, 85440, Note_on_c, 1, 31, 0
3, 85440, Note_on_c, 1, 43, 127
3, 85440, Note_on_c, 1, 38, 127
3, 85440, Note_on_c, 1, 31, 127
3, 85560, Note_on_c, 1, 43, 0
3, 85560, Note_on_c, 1, 38, 0
3, 85560, Note_on_c, 1, 31, 0
3, 85560, Note_on_c, 1, 31, 127
3, 85600, Note_on_c, 1, 31, 0
3, 85600, Note_on_c, 1, 31, 127
3, 85640, Note_on_c, 1, 31, 0
3, 85640, Note_on_c, 1, 31, 127
3, 85680, Note_on_c, 1, 31, 0
3, 85680, Note_on_c, 1, 31, 127
3, 85720, Note_on_c, 1, 31, 0
3, 85720, Note_on_c, 1, 31, 127
3, 85760, Note_on_c, 1, 31, 0
3, 85760, Note_on_c, 1, 31, 127
3, 85800, Note_on_c, 1, 31, 0
3, 85800, Note_on_c, 1, 43, 127
3, 85800, Note_on_c, 1, 38, 127
3, 85920, Note_on_c, 1, 43, 0
3, 85920, Note_on_c, 1, 38, 0
3, 85920, Note_on_c, 1, 44, 127
3, 85920, Note_on_c, 1, 39, 127
3, 86040, Note_on_c, 1, 44, 0
3, 86040, Note_on_c, 1, 39, 0
3, 86040, Note_on_c, 1, 29, 127
3, 86080, Note_on_c, 1, 29, 0
3, 86080, Note_on_c, 1, 29, 127
3, 86120, Note_on_c, 1, 29, 0
3, 86120, Note_on_c, 1, 29, 127
3, 86160, Note_on_c, 1, 29, 0
3, 86160, Note_on_c, 1, 29, 127
3, 86200, Note_on_c, 1, 29, 0
3, 86200, Note_on_c, 1, 29, 127
3, 86240, Note_on_c, 1, 29, 0
3, 86240, Note_on_c, 1, 29, 127
3, 86280, Note_on_c, 1, 29, 0
3, 86280, Note_on_c, 1, 41, 127
3, 86280, Note_on_c, 1, 36, 127
3, 86280, Note_on_c, 1, 29, 127
3, 86400, Note_on_c, 1, 41, 0
3, 86400, Note_on_c, 1, 36, 0
3, 86400, Note_on_c, 1, 29, 0
3, 86400, Note_on_c, 1, 41, 127
3, 86400, Note_on_c, 1, 36, 127
3, 86400, Note_on_c, 1, 29, 127
3, 86520, Note_on_c, 1, 41, 0
3, 86520, Note_on_c, 1, 36, 0
3, 86520, Note_on_c, 1, 29, 0
3, 86520, Note_on_c, 1, 31, 127
3, 86580, Note_on_c, 1, 31, 0
3, 86580, Note_on_c, 1, 31, 127
3, 86640, Note_on_c, 1, 31, 0
3, 86640, Note_on_c, 1, 43, 127
3, 86640, Note_on_c, 1, 38, 127
3, 86640, Note_on_c, 1, 31, 127
3, 86760, Note_on_c, 1, 43, 0
3, 86760, Note_on_c, 1, 38, 0
3, 86760, Note_on_c, 1, 31, 0
3, 86760, Note_on_c, 1, 31, 127
3, 86820, Note_on_c, 1, 31, 0
3, 86820, Note_on_c, 1, 31, 127
3, 86880, Note_on_c, 1, 31, 0
3, 86880, Note_on_c, 1, 43, 127
3, 86880, Note_on_c, 1, 38, 127
3, 86880, Note_on_c, 1, 31, 127
3, 87000, Note_on_c, 1, 43, 0
3, 87000, Note_on_c, 1, 38, 0
3, 87000, Note_on_c, 1, 31, 0
3, 87000, Note_on_c, 1, 31, 127
3, 87060, Note_on_c, 1, 31, 0
3, 87060, Note_on_c, 1, 31, 127
3, 87120, Note_on_c, 1, 31, 0
3, 87120, Note_on_c, 1, 43, 127
3, 87120, Note_on_c, 1, 38, 127
3, 87120, Note_on_c, 1, 31, 127
3, 87240, Note_on_c, 1, 43, 0
3, 87240, Note_on_c, 1, 38, 0
3, 87240, Note_on_c, 1, 31, 0
3, 87240, Note_on_c, 1, 31, 127
3, 87300, Note_on_c, 1, 31, 0
3, 87300, Note_on_c, 1, 31, 127
3, 87360, Note_on_c, 1, 31, 0
3, 87360, Note_on_c, 1, 43, 127
3, 87360, Note_on_c, 1, 38, 127
3, 87360, Note_on_c, 1, 31, 127
3, 87480, Note_on_c, 1, 43, 0
3, 87480, Note_on_c, 1, 38, 0
3, 87480, Note_on_c, 1, 31, 0
3, 87480, Note_on_c, 1, 29, 127
3, 87520, Note_on_c, 1, 29, 0
3, 87520, Note_on_c, 1, 29, 127
3, 87560, Note_on_c, 1, 29, 0
3, 87560, Note_on_c, 1, 29, 127
3, 87600, Note_on_c, 1, 29, 0
3, 87600, Note_on_c, 1, 29, 127
3, 87640, Note_on_c, 1, 29, 0
3, 87640, Note_on_c, 1, 29, 127
3, 87680, Note_on_c, 1, 29, 0
3, 87680, Note_on_c, 1, 29, 127
3, 87720, Note_on_c, 1, 29, 0
3, 87720, Note_on_c, 1, 36, 127
3, 87720, Note_on_c, 1, 29, 127
3, 87840, Note_on_c, 1, 36, 0
3, 87840, Note_on_c, 1, 29, 0
3, 87840, Note_on_c, 1, 36, 127
3, 87840, Note_on_c, 1, 29, 127
3, 87960, Note_on_c, 1, 36, 0
3, 87960, Note_on_c, 1, 29, 0
3, 87960, Note_on_c, 1, 29, 127
3, 88000, Note_on_c, 1, 29, 0
3, 88000, Note_on_c, 1, 29, 127
3, 88040, Note_on_c, 1, 29, 0
3, 88040, Note_on_c, 1, 29, 127
3, 88080, Note_on_c, 1, 29, 0
3, 88080, Note_on_c, 1, 29, 127
3, 88120, Note_on_c, 1, 29, 0
3, 88120, Note_on_c, 1, 29, 127
3, 88160, Note_on_c, 1, 29, 0
3, 88160, Note_on_c, 1, 29, 127
3, 88200, Note_on_c, 1, 29, 0
3, 88200, Note_on_c, 1, 36, 127
3, 88200, Note_on_c, 1, 29, 127
3, 88320, Note_on_c, 1, 36, 0
3, 88320, Note_on_c, 1, 29, 0
3, 88320, Note_on_c, 1, 36, 127
3, 88320, Note_on_c, 1, 29, 127
3, 88440, Note_on_c, 1, 36, 0
3, 88440, Note_on_c, 1, 29, 0
3, 88440, Note_on_c, 1, 31, 127
3, 88500, Note_on_c, 1, 31, 0
3, 88500, Note_on_c, 1, 31, 127
3, 88560, Note_on_c, 1, 31, 0
3, 88560, Note_on_c, 1, 43, 127
3, 88560, Note_on_c, 1, 38, 127
3, 88560, Note_on_c, 1, 31, 127
3, 88680, Note_on_c, 1, 43, 0
3, 88680, Note_on_c, 1, 38, 0
3, 88680, Note_on_c, 1, 31, 0
3, 88680, Note_on_c, 1, 31, 127
3, 88740, Note_on_c, 1, 31, 0
3, 88740, Note_on_c, 1, 31, 127
3, 88800, Note_on_c, 1, 31, 0
3, 88800, Note_on_c, 1, 43, 127
3, 88800, Note_on_c, 1, 38, 127
3, 88800, Note_on_c, 1, 31, 127
3, 88920, Note_on_c, 1, 43, 0
3, 88920, Note_on_c, 1, 38, 0
3, 88920, Note_on_c, 1, 31, 0
3, 88920, Note_on_c, 1, 31, 127
3, 88980, Note_on_c, 1, 31, 0
3, 88980, Note_on_c, 1, 31, 127
3, 89040, Note_on_c, 1, 31, 0
3, 89040, Note_on_c, 1, 43, 127
3, 89040, Note_on_c, 1, 38, 127
3, 89040, Note_on_c, 1, 31, 127
3, 89160, Note_on_c, 1, 43, 0
3, 89160, Note_on_c, 1, 38, 0
3, 89160, Note_on_c, 1, 31, 0
3, 89160, Note_on_c, 1, 31, 127
3, 89220, Note_on_c, 1, 31, 0
3, 89220, Note_on_c, 1, 31, 127
3, 89280, Note_on_c, 1, 31, 0
3, 89280, Note_on_c, 1, 43, 127
3, 89280, Note_on_c, 1, 38, 127
3, 89280, Note_on_c, 1, 31, 127
3, 89400, Note_on_c, 1, 43, 0
3, 89400, Note_on_c, 1, 38, 0
3, 89400, Note_on_c, 1, 31, 0
3, 89400, Note_on_c, 1, 29, 127
3, 89440, Note_on_c, 1, 29, 0
3, 89440, Note_on_c, 1, 29, 127
3, 89480, Note_on_c, 1, 29, 0
3, 89480, Note_on_c, 1, 29, 127
3, 89520, Note_on_c, 1, 29, 0
3, 89520, Note_on_c, 1, 29, 127
3, 89560, Note_on_c, 1, 29, 0
3, 89560, Note_on_c, 1, 29, 127
3, 89600, Note_on_c, 1, 29, 0
3, 89600, Note_on_c, 1, 29, 127
3, 89640, Note_on_c, 1, 29, 0
3, 89640, Note_on_c, 1, 36, 127
3, 89640, Note_on_c, 1, 29, 127
3, 89760, Note_on_c, 1, 36, 0
3, 89760, Note_on_c, 1, 29, 0
3, 89760, Note_on_c, 1, 36, 127
3, 89760, Note_on_c, 1, 29, 127
3, 89880, Note_on_c, 1, 36, 0
3, 89880, Note_on_c, 1, 29, 0
3, 89880, Note_on_c, 1, 29, 127
3, 89920, Note_on_c, 1, 29, 0
3, 89920, Note_on_c, 1, 29, 127
3, 89960, Note_on_c, 1, 29, 0
3, 89960, Note_on_c, 1, 29, 127
3, 90000, Note_on_c, 1, 29, 0
3, 90000, Note_on_c, 1, 29, 127
3, 90040, Note_on_c, 1, 29, 0
3, 90040, Note_on_c, 1, 29, 127
3, 90080, Note_on_c, 1, 29, 0
3, 90080, Note_on_c, 1, 29, 127
3, 90120, Note_on_c, 1, 29, 0
3, 90120, Note_on_c, 1, 36, 127
3, 90120, Note_on_c, 1, 29, 127
3, 90240, Note_on_c, 1, 36, 0
3, 90240, Note_on_c, 1, 29, 0
3, 90240, Note_on_c, 1, 36, 127
3, 90240, Note_on_c, 1, 29, 127
3, 90360, Note_on_c, 1, 36, 0
3, 90360, Note_on_c, 1, 29, 0
3, 96120, Note_on_c, 1, 55, 127
3, 96120, Note_on_c, 1, 52, 127
3, 96160, Note_on_c, 1, 55, 0
3, 96160, Note_on_c, 1, 52, 0
3, 96160, Note_on_c, 1, 55, 127
3, 96160, Note_on_c, 1, 52, 127
3, 96200, Note_on_c, 1, 55, 0
3, 96200, Note_on_c, 1, 52, 0
3, 96200, Note_on_c, 1, 55, 127
3, 96200, Note_on_c, 1, 52, 127
3, 96240, Note_on_c, 1, 55, 0
3, 96240, Note_on_c, 1, 52, 0
3, 96240, Pitch_bend_c, 1, 8192
3, 96240, Note_on_c, 1, 50, 127
3, 96240, Note_on_c, 1, 54, 127
3, 96241, Pitch_bend_c, 1, 8397
3, 96242, Pitch_bend_c, 1, 8602
3, 96243, Pitch_bend_c, 1, 8807
3, 96244, Pitch_bend_c, 1, 9012
3, 96245, Pitch_bend_c, 1, 9216
3, 96246, Pitch_bend_c, 1, 9421
3, 96247, Pitch_bend_c, 1, 9626
3, 96248, Pitch_bend_c, 1, 9831
3, 96249, Pitch_bend_c, 1, 10036
3, 96250, Pitch_bend_c, 1, 10240
3, 96360, Note_on_c, 1, 50, 0
3, 96360, Note_on_c, 1, 54, 0
3, 96360, Pitch_bend_c, 1, 8192
3, 96360, Note_on_c, 1, 47, 127
3, 96360, Note_on_c, 1, 50, 127
3, 96480, Note_on_c, 1, 47, 0
3, 96480, Note_on_c, 1, 50, 0
3, 96480, Note_on_c, 1, 57, 127
3, 96480, Note_on_c, 1, 54, 127
3, 96520, Note_on_c, 1, 57, 0
3, 96520, Note_on_c, 1, 54, 0
3, 96520, Note_on_c, 1, 54, 127
3, 96520, Note_on_c, 1, 57, 127
3, 96560, Note_on_c, 1, 54, 0
3, 96560, Note_on_c, 1, 57, 0
3, 96560, Note_on_c, 1, 54, 127
3, 96560, Note_on_c, 1, 57, 127
3, 96600, Note_on_c, 1, 54, 0
3, 96600, Note_on_c, 1, 57, 0
3, 96600, Pitch_bend_c, 1, 8192
3, 96600, Note_on_c, 1, 52, 127
3, 96600, Note_on_c, 1, 55, 127
3, 96601, Pitch_bend_c, 1, 8397
3, 96602, Pitch_bend_c, 1, 8602
3, 96603, Pitch_bend_c, 1, 8807
3, 96604, Pitch_bend_c, 1, 9012
3, 96605, Pitch_bend_c, 1, 9216
3, 96606, Pitch_bend_c, 1, 9421
3, 96607, Pitch_bend_c, 1, 9626
3, 96608, Pitch_bend_c, 1, 9831
3, 96609, Pitch_bend_c, 1, 10036
3, 96610, Pitch_bend_c, 1, 10240
3, 96720, Note_on_c, 1, 52, 0
3, 96720, Note_on_c, 1, 55, 0
3, 96720, Pitch_bend_c, 1, 8192
3, 96720, Note_on_c, 1, 47, 127
3, 96720, Note_on_c, 1, 52, 127
3, 96840, Note_on_c, 1, 47, 0
3, 96840, Note_on_c, 1, 52, 0
3, 96840, Note_on_c, 1, 59, 127
3, 96840, Note_on_c, 1, 55, 127
3, 96880, Note_on_c, 1, 59, 0
3, 96880, Note_on_c, 1, 55, 0
3, 96880, Note_on_c, 1, 59, 127
3, 96880, Note_on_c, 1, 55, 127
3, 96920, Note_on_c, 1, 59, 0
3, 96920, Note_on_c, 1, 55, 0
3, 96920, Note_on_c, 1, 59, 127
3, 96920, Note_on_c, 1, 55, 127
3, 96960, Note_on_c, 1, 59, 0
3, 96960, Note_on_c, 1, 55, 0
3, 96960, Note_on_c, 1, 57, 127
3, 96960, Note_on_c, 1, 54, 127
3, 97080, Note_on_c, 1, 57, 0
3, 97080, Note_on_c, 1, 54, 0
3, 97080, Note_on_c, 1, 59, 127
3, 97080, Note_on_c, 1, 55, 127
3, 97120, Note_on_c, 1, 59, 0
3, 97120, Note_on_c, 1, 55, 0
3, 97120, Note_on_c, 1, 54, 127
3, 97120, Note_on_c, 1, 57, 127
3, 97160, Note_on_c, 1, 54, 0
3, 97160, Note_on_c, 1, 57, 0
3, 97160, Note_on_c, 1, 55, 127
3, 97160, Note_on_c, 1, 52, 127
3, 97200, Note_on_c, 1, 55, 0
3, 97200, Note_on_c, 1, 52, 0
3, 97200, Note_on_c, 1, 57, 127
3, 97200, Note_on_c, 1, 54, 127
3, 97320, Note_on_c, 1, 57, 0
3, 97320, Note_on_c, 1, 54, 0
3, 97320, Note_on_c, 1, 57, 127
3, 97320, Note_on_c, 1, 54, 127
3, 97360, Note_on_c, 1, 57, 0
3, 97360, Note_on_c, 1, 54, 0
3, 97360, Note_on_c, 1, 52, 127
3, 97360, Note_on_c, 1, 55, 127
3, 97400, Note_on_c, 1, 52, 0
3, 97400, Note_on_c, 1, 55, 0
3, 97400, Note_on_c, 1, 54, 127
3, 97400, Note_on_c, 1, 50, 127
3, 97440, Note_on_c, 1, 54, 0
3, 97440, Note_on_c, 1, 50, 0
3, 97440, Note_on_c, 1, 52, 127
3, 97440, Note_on_c, 1, 55, 127
3, 97560, Note_on_c, 1, 52, 0
3, 97560, Note_on_c, 1, 55, 0
3, 97560, Note_on_c, 1, 52, 127
3, 97560, Note_on_c, 1, 55, 127
3, 97600, Note_on_c, 1, 52, 0
3, 97600, Note_on_c, 1, 55, 0
3, 97600, Note_on_c, 1, 54, 127
3, 97600, Note_on_c, 1, 50, 127
3, 97640, Note_on_c, 1, 54, 0
3, 97640, Note_on_c, 1, 50, 0
3, 97640, Note_on_c, 1, 49, 127
3, 97640, Note_on_c, 1, 52, 127
3, 97680, Note_on_c, 1, 49, 0
3, 97680, Note_on_c, 1, 52, 0
3, 97680, Note_on_c, 1, 50, 127
3, 97680, Note_on_c, 1, 54, 127
3, 97800, Note_on_c, 1, 50, 0
3, 97800, Note_on_c, 1, 54, 0
3, 97800, Note_on_c, 1, 54, 127
3, 97800, Note_on_c, 1, 50, 127
3, 97840, Note_on_c, 1, 54, 0
3, 97840, Note_on_c, 1, 50, 0
3, 97840, Note_on_c, 1, 49, 127
3, 97840, Note_on_c, 1, 52, 127
3, 97880, Note_on_c, 1, 49, 0
3, 97880, Note_on_c, 1, 52, 0
3, 97880, Note_on_c, 1, 50, 127
3, 97880, Note_on_c, 1, 47, 127
3, 97920, Note_on_c, 1, 50, 0
3, 97920, Note_on_c, 1, 47, 0
3, 97920, Note_on_c, 1, 48, 127
3, 97920, Note_on_c, 1, 52, 127
3, 98040, Note_on_c, 1, 48, 0
3, 98040, Note_on_c, 1, 52, 0
3, 98040, Note_on_c, 1, 55, 127
3, 98040, Note_on_c, 1, 52, 127
3, 98080, Note_on_c, 1, 55, 0
3, 98080, Note_on_c, 1, 52, 0
3, 98080, Note_on_c, 1, 55, 127
3, 98080, Note_on_c, 1, 52, 127
3, 98120, Note_on_c, 1, 55, 0
3, 98120, Note_on_c, 1, 52, 0
3, 98120, Note_on_c, 1, 55, 127
3, 98120, Note_on_c, 1, 52, 127
3, 98160, Note_on_c, 1, 55, 0
3, 98160, Note_on_c, 1, 52, 0
3, 98160, Note_on_c, 1, 50, 127
3, 98160, Note_on_c, 1, 54, 127
3, 98280, Note_on_c, 1, 50, 0
3, 98280, Note_on_c, 1, 54, 0
3, 98280, Note_on_c, 1, 47, 127
3, 98280, Note_on_c, 1, 50, 127
3, 98400, Note_on_c, 1, 47, 0
3, 98400, Note_on_c, 1, 50, 0
3, 98400, Note_on_c, 1, 57, 127
3, 98400, Note_on_c, 1, 54, 127
3, 98440, Note_on_c, 1, 57, 0
3, 98440, Note_on_c, 1, 54, 0
3, 98440, Note_on_c, 1, 54, 127
3, 98440, Note_on_c, 1, 57, 127
3, 98480, Note_on_c, 1, 54, 0
3, 98480, Note_on_c, 1, 57, 0
3, 98480, Note_on_c, 1, 54, 127
3, 98480, Note_on_c, 1, 57, 127
3, 98520, Note_on_c, 1, 54, 0
3, 98520, Note_on_c, 1, 57, 0
3, 98520, Note_on_c, 1, 52, 127
3, 98520, Note_on_c, 1, 55, 127
3, 98640, Note_on_c, 1, 52, 0
3, 98640, Note_on_c, 1, 55, 0
3, 98640, Note_on_c, 1, 47, 127
3, 98640, Note_on_c, 1, 52, 127
3, 98760, Note_on_c, 1, 47, 0
3, 98760, Note_on_c, 1, 52, 0
3, 98760, Note_on_c, 1, 59, 127
3, 98760, Note_on_c, 1, 55, 127
3, 98800, Note_on_c, 1, 59, 0
3, 98800, Note_on_c, 1, 55, 0
3, 98800, Note_on_c, 1, 59, 127
3, 98800, Note_on_c, 1, 55, 127
3, 98840, Note_on_c, 1, 59, 0
3, 98840, Note_on_c, 1, 55, 0
3, 98840, Note_on_c, 1, 59, 127
3, 98840, Note_on_c, 1, 55, 127
3, 98880, Note_on_c, 1, 59, 0
3, 98880, Note_on_c, 1, 55, 0
3, 98880, Note_on_c, 1, 57, 127
3, 98880, Note_on_c, 1, 54, 127
3, 99000, Note_on_c, 1, 57, 0
3, 99000, Note_on_c, 1, 54, 0
3, 99000, Note_on_c, 1, 59, 127
3, 99000, Note_on_c, 1, 55, 127
3, 99040, Note_on_c, 1, 59, 0
3, 99040, Note_on_c, 1, 55, 0
3, 99040, Note_on_c, 1, 54, 127
3, 99040, Note_on_c, 1, 57, 127
3, 99080, Note_on_c, 1, 54, 0
3, 99080, Note_on_c, 1, 57, 0
3, 99080, Note_on_c, 1, 55, 127
3, 99080, Note_on_c, 1, 52, 127
3, 99120, Note_on_c, 1, 55, 0
3, 99120, Note_on_c, 1, 52, 0
3, 99120, Note_on_c, 1, 57, 127
3, 99120, Note_on_c, 1, 54, 127
3, 99240, Note_on_c, 1, 57, 0
3, 99240, Note_on_c, 1, 54, 0
3, 99240, Note_on_c, 1, 57, 127
3, 99240, Note_on_c, 1, 54, 127
3, 99280, Note_on_c, 1, 57, 0
3, 99280, Note_on_c, 1, 54, 0
3, 99280, Note_on_c, 1, 52, 127
3, 99280, Note_on_c, 1, 55, 127
3, 99320, Note_on_c, 1, 52, 0
3, 99320, Note_on_c, 1, 55, 0
3, 99320, Note_on_c, 1, 54, 127
3, 99320, Note_on_c, 1, 50, 127
3, 99360, Note_on_c, 1, 54, 0
3, 99360, Note_on_c, 1, 50, 0
3, 99360, Note_on_c, 1, 52, 127
3, 99360, Note_on_c, 1, 55, 127
3, 99480, Note_on_c, 1, 52, 0
3, 99480, Note_on_c, 1, 55, 0
3, 99480, Note_on_c, 1, 60, 127
3, 99480, Note_on_c, 1, 57, 127
3, 99520, Note_on_c, 1, 60, 0
3, 99520, Note_on_c, 1, 57, 0
3, 99520, Note_on_c, 1, 55, 127
3, 99520, Note_on_c, 1, 59, 127
3, 99560, Note_on_c, 1, 55, 0
3, 99560, Note_on_c, 1, 59, 0
3, 99560, Note_on_c, 1, 57, 127
3, 99560, Note_on_c, 1, 54, 127
3, 99600, Note_on_c, 1, 57, 0
3, 99600, Note_on_c, 1, 54, 0
3, 99600, Note_on_c, 1, 55, 127
3, 99600, Note_on_c, 1, 59, 127
3, 99720, Note_on_c, 1, 55, 0
3, 99720, Note_on_c, 1, 59, 0
3, 99720, Note_on_c, 1, 59, 127
3, 99720, Note_on_c, 1, 55, 127
3, 99760, Note_on_c, 1, 59, 0
3, 99760, Note_on_c, 1, 55, 0
3, 99760, Note_on_c, 1, 54, 127
3, 99760, Note_on_c, 1, 57, 127
3, 99800, Note_on_c, 1, 54, 0
3, 99800, Note_on_c, 1, 57, 0
3, 99800, Note_on_c, 1, 55, 127
3, 99800, Note_on_c, 1, 52, 127
3, 99840, Note_on_c, 1, 55, 0
3, 99840, Note_on_c, 1, 52, 0
3, 99840, Note_on_c, 1, 54, 127
3, 99840, Note_on_c, 1, 57, 127
3, 99960, Note_on_c, 1, 54, 0
3, 99960, Note_on_c, 1, 57, 0
3, 99960, Note_on_c, 1, 55, 127
3, 99960, Note_on_c, 1, 52, 127
3, 100000, Note_on_c, 1, 55, 0
3, 100000, Note_on_c, 1, 52, 0
3, 100000, Note_on_c, 1, 55, 127
3, 100000, Note_on_c, 1, 52, 127
3, 100040, Note_on_c, 1, 55, 0
3, 100040, Note_on_c, 1, 52, 0
3, 100040, Note_on_c, 1, 55, 127
3, 100040, Note_on_c, 1, 52, 127
3, 100080, Note_on_c, 1, 55, 0
3, 100080, Note_on_c, 1, 52, 0
3, 100080, Note_on_c, 1, 50, 127
3, 100080, Note_on_c, 1, 54, 127
3, 100200, Note_on_c, 1, 50, 0
3, 100200, Note_on_c, 1, 54, 0
3, 100200, Note_on_c, 1, 47, 127
3, 100200, Note_on_c, 1, 50, 127
3, 100320, Note_on_c, 1, 47, 0
3, 100320, Note_on_c, 1, 50, 0
3, 100320, Note_on_c, 1, 57, 127
3, 100320, Note_on_c, 1, 54, 127
3, 100360, Note_on_c, 1, 57, 0
3, 100360, Note_on_c, 1, 54, 0
3, 100360, Note_on_c, 1, 54, 127
3, 100360, Note_on_c, 1, 57, 127
3, 100400, Note_on_c, 1, 54, 0
3, 100400, Note_on_c, 1, 57, 0
3, 100400, Note_on_c, 1, 54, 127
3, 100400, Note_on_c, 1, 57, 127
3, 100440, Note_on_c, 1, 54, 0
3, 100440, Note_on_c, 1, 57, 0
3, 100440, Note_on_c, 1, 52, 127
3, 100440, Note_on_c, 1, 55, 127
3, 100560, Note_on_c, 1, 52, 0
3, 100560, Note_on_c, 1, 55, 0
3, 100560, Note_on_c, 1, 47, 127
3, 100560, Note_on_c, 1, 52, 127
3, 100680, Note_on_c, 1, 47, 0
3, 100680, Note_on_c, 1, 52, 0
3, 100680, Note_on_c, 1, 59, 127
3, 100680, Note_on_c, 1, 55, 127
3, 100720, Note_on_c, 1, 59, 0
3, 100720, Note_on_c, 1, 55, 0
3, 100720, Note_on_c, 1, 59, 127
3, 100720, Note_on_c, 1, 55, 127
3, 100760, Note_on_c, 1, 59, 0
3, 100760, Note_on_c, 1, 55, 0
3, 100760, Note_on_c, 1, 59, 127
3, 100760, Note_on_c, 1, 55, 127
3, 100800, Note_on_c, 1, 59, 0
3, 100800, Note_on_c, 1, 55, 0
3, 100800, Note_on_c, 1, 57, 127
3, 100800, Note_on_c, 1, 54, 127
3, 100920, Note_on_c, 1, 57, 0
3, 100920, Note_on_c, 1, 54, 0
3, 100920, Note_on_c, 1, 59, 127
3, 100920, Note_on_c, 1, 55, 127
3, 100960, Note_on_c, 1, 59, 0
3, 100960, Note_on_c, 1, 55, 0
3, 100960, Note_on_c, 1, 54, 127
3, 100960, Note_on_c, 1, 57, 127
3, 101000, Note_on_c, 1, 54, 0
3, 101000, Note_on_c, 1, 57, 0
3, 101000, Note_on_c, 1, 55, 127
3, 101000, Note_on_c, 1, 52, 127
3, 101040, Note_on_c, 1, 55, 0
3, 101040, Note_on_c, 1, 52, 0
3, 101040, Note_on_c, 1, 57, 127
3, 101040, Note_on_c, 1, 54, 127
3, 101160, Note_on_c, 1, 57, 0
3, 101160, Note_on_c, 1, 54, 0
3, 101160, Note_on_c, 1, 57, 127
3, 101160, Note_on_c, 1, 54, 127
3, 101200, Note_on_c, 1, 57, 0
3, 101200, Note_on_c, 1, 54, 0
3, 101200, Note_on_c, 1, 52, 127
3, 101200, Note_on_c, 1, 55, 127
3, 101240, Note_on_c, 1, 52, 0
3, 101240, Note_on_c, 1, 55, 0
3, 101240, Note_on_c, 1, 54, 127
3, 101240, Note_on_c, 1, 50, 127
3, 101280, Note_on_c, 1, 54, 0
3, 101280, Note_on_c, 1, 50, 0
3, 101280, Note_on_c, 1, 52, 127
3, 101280, Note_on_c, 1, 55, 127
3, 101400, Note_on_c, 1, 52, 0
3, 101400, Note_on_c, 1, 55, 0
3, 101400, Note_on_c, 1, 52, 127
3, 101400, Note_on_c, 1, 55, 127
3, 101440, Note_on_c, 1, 52, 0
3, 101440, Note_on_c, 1, 55, 0
3, 101440, Note_on_c, 1, 54, 127
3, 101440, Note_on_c, 1, 50, 127
3, 101480, Note_on_c, 1, 54, 0
3, 101480, Note_on_c, 1, 50, 0
3, 101480, Note_on_c, 1, 49, 127
3, 101480, Note_on_c, 1, 52, 127
3, 101520, Note_on_c, 1, 49, 0
3, 101520, Note_on_c, 1, 52, 0
3, 101520, Note_on_c, 1, 50, 127
3, 101520, Note_on_c, 1, 54, 127
3, 101640, Note_on_c, 1, 50, 0
3, 101640, Note_on_c, 1, 54, 0
3, 101640, Note_on_c, 1, 54, 127
3, 101640, Note_on_c, 1, 50, 127
3, 101680, Note_on_c, 1, 54, 0
3, 101680, Note_on_c, 1, 50, 0
3, 101680, Note_on_c, 1, 49, 127
3, 101680, Note_on_c, 1, 52, 127
3, 101720, Note_on_c, 1, 49, 0
3, 101720, Note_on_c, 1, 52, 0
3, 101720, Note_on_c, 1, 50, 127
3, 101720, Note_on_c, 1, 47, 127
3, 101760, Note_on_c, 1, 50, 0
3, 101760, Note_on_c, 1, 47, 0
3, 101760, Note_on_c, 1, 48, 127
3, 101760, Note_on_c, 1, 52, 127
3, 101880, Note_on_c, 1, 48, 0
3, 101880, Note_on_c, 1, 52, 0
3, 101880, Note_on_c, 1, 55, 127
3, 101880, Note_on_c, 1, 52, 127
3, 101920, Note_on_c, 1, 55, 0
3, 101920, Note_on_c, 1, 52, 0
3, 101920, Note_on_c, 1, 55, 127
3, 101920, Note_on_c, 1, 52, 127
3, 101960, Note_on_c, 1, 55, 0
3, 101960, Note_on_c, 1, 52, 0
3, 101960, Note_on_c, 1, 55, 127
3, 101960, Note_on_c, 1, 52, 127
3, 102000, Note_on_c, 1, 55, 0
3, 102000, Note_on_c, 1, 52, 0
3, 102000, Note_on_c, 1, 50, 127
3, 102000, Note_on_c, 1, 54, 127
3, 102120, Note_on_c, 1, 50, 0
3, 102120, Note_on_c, 1, 54, 0
3, 102120, Note_on_c, 1, 47, 127
3, 102120, Note_on_c, 1, 50, 127
3, 102240, Note_on_c, 1, 47, 0
3, 102240, Note_on_c, 1, 50, 0
3, 102240, Note_on_c, 1, 57, 127
3, 102240, Note_on_c, 1, 54, 127
3, 102280, Note_on_c, 1, 57, 0
3, 102280, Note_on_c, 1, 54, 0
3, 102280, Note_on_c, 1, 54, 127
3, 102280, Note_on_c, 1, 57, 127
3, 102320, Note_on_c, 1, 54, 0
3, 102320, Note_on_c, 1, 57, 0
3, 102320, Note_on_c, 1, 54, 127
3, 102320, Note_on_c, 1, 57, 127
3, 102360, Note_on_c, 1, 54, 0
3, 102360, Note_on_c, 1, 57, 0
3, 102360, Note_on_c, 1, 52, 127
3, 102360, Note_on_c, 1, 55, 127
3, 102480, Note_on_c, 1, 52, 0
3, 102480, Note_on_c, 1, 55, 0
3, 102480, Note_on_c, 1, 47, 127
3, 102480, Note_on_c, 1, 52, 127
3, 102600, Note_on_c, 1, 47, 0
3, 102600, Note_on_c, 1, 52, 0
3, 102600, Note_on_c, 1, 59, 127
3, 102600, Note_on_c, 1, 55, 127
3, 102640, Note_on_c, 1, 59, 0
3, 102640, Note_on_c, 1, 55, 0
3, 102640, Note_on_c, 1, 59, 127
3, 102640, Note_on_c, 1, 55, 127
3, 102680, Note_on_c, 1, 59, 0
3, 102680, Note_on_c, 1, 55, 0
3, 102680, Note_on_c, 1, 59, 127
3, 102680, Note_on_c, 1, 55, 127
3, 102720, Note_on_c, 1, 59, 0
3, 102720, Note_on_c, 1, 55, 0
3, 102720, Note_on_c, 1, 57, 127
3, 102720, Note_on_c, 1, 54, 127
3, 102840, Note_on_c, 1, 57, 0
3, 102840, Note_on_c, 1, 54, 0
3, 102840, Note_on_c, 1, 59, 127
3, 102840, Note_on_c, 1, 55, 127
3, 102880, Note_on_c, 1, 59, 0
3, 102880, Note_on_c, 1, 55, 0
3, 102880, Note_on_c, 1, 54, 127
3, 102880, Note_on_c, 1, 57, 127
3, 102920, Note_on_c, 1, 54, 0
3, 102920, Note_on_c, 1, 57, 0
3, 102920, Note_on_c, 1, 55, 127
3, 102920, Note_on_c, 1, 52, 127
3, 102960, Note_on_c, 1, 55, 0
3, 102960, Note_on_c, 1, 52, 0
3, 102960, Note_on_c, 1, 57, 127
3, 102960, Note_on_c, 1, 54, 127
3, 103080, Note_on_c, 1, 57, 0
3, 103080, Note_on_c, 1, 54, 0
3, 103080, Note_on_c, 1, 57, 127
3, 103080, Note_on_c, 1, 54, 127
3, 103120, Note_on_c, 1, 57, 0
3, 103120, Note_on_c, 1, 54, 0
3, 103120, Note_on_c, 1, 52, 127
3, 103120, Note_on_c, 1, 55, 127
3, 103160, Note_on_c, 1, 52, 0
3, 103160, Note_on_c, 1, 55, 0
3, 103160, Note_on_c, 1, 54, 127
3, 103160, Note_on_c, 1, 50, 127
3, 103200, Note_on_c, 1, 54, 0
3, 103200, Note_on_c, 1, 50, 0
3, 103200, Note_on_c, 1, 52, 127
3, 103200, Note_on_c, 1, 55, 127
3, 103320, Note_on_c, 1, 52, 0
3, 103320, Note_on_c, 1, 55, 0
3, 103320, Note_on_c, 1, 52, 127
3, 103320, Note_on_c, 1, 55, 127
3, 103360, Note_on_c, 1, 52, 0
3, 103360, Note_on_c, 1, 55, 0
3, 103360, Note_on_c, 1, 54, 127
3, 103360, Note_on_c, 1, 50, 127
3, 103400, Note_on_c, 1, 54, 0
3, 103400, Note_on_c, 1, 50, 0
3, 103400, Note_on_c, 1, 49, 127
3, 103400, Note_on_c, 1, 52, 127
3, 103440, Note_on_c, 1, 49, 0
3, 103440, Note_on_c, 1, 52, 0
3, 103440, Note_on_c, 1, 50, 127
3, 103440, Note_on_c, 1, 54, 127
3, 103560, Note_on_c, 1, 50, 0
3, 103560, Note_on_c, 1, 54, 0
3, 103560, Note_on_c, 1, 54, 127
3, 103560, Note_on_c, 1, 50, 127
3, 103600, Note_on_c, 1, 54, 0
3, 103600, Note_on_c, 1, 50, 0
3, 103600, Note_on_c, 1, 49, 127
3, 103600, Note_on_c, 1, 52, 127
3, 103640, Note_on_c, 1, 49, 0
3, 103640, Note_on_c, 1, 52, 0
3, 103640, Note_on_c, 1, 50, 127
3, 103640, Note_on_c, 1, 47, 127
3, 103680, Note_on_c, 1, 50, 0
3, 103680, Note_on_c, 1, 47, 0
3, 103680, Note_on_c, 1, 48, 127
3, 103680, Note_on_c, 1, 52, 127
3, 103800, Note_on_c, 1, 48, 0
3, 103800, Note_on_c, 1, 52, 0
3, 103800, Note_on_c, 1, 49, 127
3, 103800, Note_on_c, 1, 52, 127
3, 103840, Note_on_c, 1, 49, 0
3, 103840, Note_on_c, 1, 52, 0
3, 103840, Note_on_c, 1, 47, 127
3, 103840, Note_on_c, 1, 50, 127
3, 103880, Note_on_c, 1, 47, 0
3, 103880, Note_on_c, 1, 50, 0
3, 103880, Note_on_c, 1, 49, 127
3, 103880, Note_on_c, 1, 45, 127
3, 103920, Note_on_c, 1, 49, 0
3, 103920, Note_on_c, 1, 45, 0
3, 103920, Note_on_c, 1, 47, 127
3, 103920, Note_on_c, 1, 50, 127
3, 104040, Note_on_c, 1, 47, 0
3, 104040, Note_on_c, 1, 50, 0
3, 104040, Note_on_c, 1, 50, 127
3, 104040, Note_on_c, 1, 47, 127
3, 104080, Note_on_c, 1, 50, 0
3, 104080, Note_on_c, 1, 47, 0
3, 104080, Note_on_c, 1, 45, 127
3, 104080, Note_on_c, 1, 49, 127
3, 104120, Note_on_c, 1, 45, 0
3, 104120, Note_on_c, 1, 49, 0
3, 104120, Note_on_c, 1, 43, 127
3, 104120, Note_on_c, 1, 47, 127
3, 104160, Note_on_c, 1, 43, 0
3, 104160, Note_on_c, 1, 47, 0
3, 104160, Note_on_c, 1, 49, 127
3, 104160, Note_on_c, 1, 45, 127
3, 104280, Note_on_c, 1, 49, 0
3, 104280, Note_on_c, 1, 45, 0
3, 104280, Note_on_c, 1, 45, 127
3, 104280, Note_on_c, 1, 49, 127
3, 104320, Note_on_c, 1, 45, 0
3, 104320, Note_on_c, 1, 49, 0
3, 104320, Note_on_c, 1, 47, 127
3, 104320, Note_on_c, 1, 43, 127
3, 104360, Note_on_c, 1, 47, 0
3, 104360, Note_on_c, 1, 43, 0
3, 104360, Note_on_c, 1, 42, 127
3, 104360, Note_on_c, 1, 45, 127
3, 104400, Note_on_c, 1, 42, 0
3, 104400, Note_on_c, 1, 45, 0
3, 104400, Note_on_c, 1, 47, 127
3, 104400, Note_on_c, 1, 43, 127
3, 104520, Note_on_c, 1, 47, 0
3, 104520, Note_on_c, 1, 43, 0
3, 104520, Note_on_c, 1, 42, 127
3, 104520, Note_on_c, 1, 47, 127
3, 104560, Note_on_c, 1, 42, 0
3, 104560, Note_on_c, 1, 47, 0
3, 104560, Note_on_c, 1, 45, 127
3, 104560, Note_on_c, 1, 40, 127
3, 104600, Note_on_c, 1, 45, 0
3, 104600, Note_on_c, 1, 40, 0
3, 104600, Note_on_c, 1, 38, 127
3, 104600, Note_on_c, 1, 43, 127
3, 104640, Note_on_c, 1, 38, 0
3, 104640, Note_on_c, 1, 43, 0
3, 104640, Note_on_c, 1, 45, 127
3, 104640, Note_on_c, 1, 42, 127
3, 104760, Note_on_c, 1, 45, 0
3, 104760, Note_on_c, 1, 42, 0
3, 104760, Note_on_c, 1, 28, 127
3, 104800, Note_on_c, 1, 28, 0
3, 104800, Note_on_c, 1, 28, 127
3, 104840, Note_on_c, 1, 28, 0
3, 104840, Note_on_c, 1, 28, 127
3, 104880, Note_on_c, 1, 28, 0
3, 104880, Note_on_c, 1, 28, 127
3, 104920, Note_on_c, 1, 28, 0
3, 104920, Note_on_c, 1, 28, 127
3, 104960, Note_on_c, 1, 28, 0
3, 104960, Note_on_c, 1, 28, 127
3, 105000, Note_on_c, 1, 28, 0
3, 105000, Note_on_c, 1, 40, 127
3, 105000, Note_on_c, 1, 35, 127
3, 105120, Note_on_c, 1, 40, 0
3, 105120, Note_on_c, 1, 35, 0
3, 105120, Note_on_c, 1, 28, 127
3, 105160, Note_on_c, 1, 28, 0
3, 105160, Note_on_c, 1, 28, 127
3, 105200, Note_on_c, 1, 28, 0
3, 105200, Note_on_c, 1, 28, 127
3, 105240, Note_on_c, 1, 28, 0
3, 105240, Note_on_c, 1, 28, 127
3, 105280, Note_on_c, 1, 28, 0
3, 105280, Note_on_c, 1, 28, 127
3, 105320, Note_on_c, 1, 28, 0
3, 105320, Note_on_c, 1, 28, 127
3, 105360, Note_on_c, 1, 28, 0
3, 105360, Note_on_c, 1, 40, 127
3, 105360, Note_on_c, 1, 35, 127
3, 105480, Note_on_c, 1, 40, 0
3, 105480, Note_on_c, 1, 35, 0
3, 105480, Note_on_c, 1, 28, 127
3, 105520, Note_on_c, 1, 28, 0
3, 105520, Note_on_c, 1, 28, 127
3, 105560, Note_on_c, 1, 28, 0
3, 105560, Note_on_c, 1, 28, 127
3, 105600, Note_on_c, 1, 28, 0
3, 105600, Note_on_c, 1, 41, 127
3, 105600, Note_on_c, 1, 36, 127
3, 105720, Note_on_c, 1, 41, 0
3, 105720, Note_on_c, 1, 36, 0
3, 105720, Note_on_c, 1, 28, 127
3, 105760, Note_on_c, 1, 28, 0
3, 105760, Note_on_c, 1, 28, 127
3, 105800, Note_on_c, 1, 28, 0
3, 105800, Note_on_c, 1, 28, 127
3, 105840, Note_on_c, 1, 28, 0
3, 105840, Note_on_c, 1, 28, 127
3, 105880, Note_on_c, 1, 28, 0
3, 105880, Note_on_c, 1, 28, 127
3, 105920, Note_on_c, 1, 28, 0
3, 105920, Note_on_c, 1, 28, 127
3, 105960, Note_on_c, 1, 28, 0
3, 105960, Note_on_c, 1, 40, 127
3, 105960, Note_on_c, 1, 35, 127
3, 106080, Note_on_c, 1, 40, 0
3, 106080, Note_on_c, 1, 35, 0
3, 106080, Note_on_c, 1, 28, 127
3, 106120, Note_on_c, 1, 28, 0
3, 106120, Note_on_c, 1, 28, 127
3, 106160, Note_on_c, 1, 28, 0
3, 106160, Note_on_c, 1, 28, 127
3, 106200, Note_on_c, 1, 28, 0
3, 106200, Note_on_c, 1, 28, 127
3, 106240, Note_on_c, 1, 28, 0
3, 106240, Note_on_c, 1, 28, 127
3, 106280, Note_on_c, 1, 28, 0
3, 106280, Note_on_c, 1, 28, 127
3, 106320, Note_on_c, 1, 28, 0
3, 106320, Note_on_c, 1, 40, 127
3, 106320, Note_on_c, 1, 35, 127
3, 106440, Note_on_c, 1, 40, 0
3, 106440, Note_on_c, 1, 35, 0
3, 106440, Note_on_c, 1, 28, 127
3, 106480, Note_on_c, 1, 28, 0
3, 106480, Note_on_c, 1, 28, 127
3, 106520, Note_on_c, 1, 28, 0
3, 106520, Note_on_c, 1, 28, 127
3, 106560, Note_on_c, 1, 28, 0
3, 106560, Note_on_c, 1, 41, 127
3, 106560, Note_on_c, 1, 36, 127
3, 106680, Note_on_c, 1, 41, 0
3, 106680, Note_on_c, 1, 36, 0
3, 106680, Note_on_c, 1, 28, 127
3, 106720, Note_on_c, 1, 28, 0
3, 106720, Note_on_c, 1, 28, 127
3, 106760, Note_on_c, 1, 28, 0
3, 106760, Note_on_c, 1, 28, 127
3, 106800, Note_on_c, 1, 28, 0
3, 106800, Note_on_c, 1, 28, 127
3, 106840, Note_on_c, 1, 28, 0
3, 106840, Note_on_c, 1, 28, 127
3, 106880, Note_on_c, 1, 28, 0
3, 106880, Note_on_c, 1, 28, 127
3, 106920, Note_on_c, 1, 28, 0
3, 106920, Note_on_c, 1, 40, 127
3, 106920, Note_on_c, 1, 35, 127
3, 107040, Note_on_c, 1, 40, 0
3, 107040, Note_on_c, 1, 35, 0
3, 107040, Note_on_c, 1, 28, 127
3, 107080, Note_on_c, 1, 28, 0
3, 107080, Note_on_c, 1, 28, 127
3, 107120, Note_on_c, 1, 28, 0
3, 107120, Note_on_c, 1, 28, 127
3, 107160, Note_on_c, 1, 28, 0
3, 107160, Note_on_c, 1, 28, 127
3, 107200, Note_on_c, 1, 28, 0
3, 107200, Note_on_c, 1, 28, 127
3, 107240, Note_on_c, 1, 28, 0
3, 107240, Note_on_c, 1, 28, 127
3, 107280, Note_on_c, 1, 28, 0
3, 107280, Note_on_c, 1, 40, 127
3, 107280, Note_on_c, 1, 35, 127
3, 107400, Note_on_c, 1, 40, 0
3, 107400, Note_on_c, 1, 35, 0
3, 107400, Note_on_c, 1, 28, 127
3, 107440, Note_on_c, 1, 28, 0
3, 107440, Note_on_c, 1, 28, 127
3, 107480, Note_on_c, 1, 28, 0
3, 107480, Note_on_c, 1, 28, 127
3, 107520, Note_on_c, 1, 28, 0
3, 107520, Note_on_c, 1, 41, 127
3, 107520, Note_on_c, 1, 36, 127
3, 107640, Note_on_c, 1, 41, 0
3, 107640, Note_on_c, 1, 36, 0
3, 107640, Note_on_c, 1, 28, 127
3, 107680, Note_on_c, 1, 28, 0
3, 107680, Note_on_c, 1, 28, 127
3, 107720, Note_on_c, 1, 28, 0
3, 107720, Note_on_c, 1, 28, 127
3, 107760, Note_on_c, 1, 28, 0
3, 107760, Note_on_c, 1, 28, 127
3, 107800, Note_on_c, 1, 28, 0
3, 107800, Note_on_c, 1, 28, 127
3, 107840, Note_on_c, 1, 28, 0
3, 107840, Note_on_c, 1, 28, 127
3, 107880, Note_on_c, 1, 28, 0
3, 107880, Note_on_c, 1, 40, 127
3, 107880, Note_on_c, 1, 35, 127
3, 108000, Note_on_c, 1, 40, 0
3, 108000, Note_on_c, 1, 35, 0
3, 108000, Note_on_c, 1, 28, 127
3, 108040, Note_on_c, 1, 28, 0
3, 108040, Note_on_c, 1, 28, 127
3, 108080, Note_on_c, 1, 28, 0
3, 108080, Note_on_c, 1, 28, 127
3, 108120, Note_on_c, 1, 28, 0
3, 108120, Note_on_c, 1, 28, 127
3, 108160, Note_on_c, 1, 28, 0
3, 108160, Note_on_c, 1, 28, 127
3, 108200, Note_on_c, 1, 28, 0
3, 108200, Note_on_c, 1, 28, 127
3, 108240, Note_on_c, 1, 28, 0
3, 108240, Note_on_c, 1, 40, 127
3, 108240, Note_on_c, 1, 35, 127
3, 108360, Note_on_c, 1, 40, 0
3, 108360, Note_on_c, 1, 35, 0
3, 108360, Note_on_c, 1, 28, 127
3, 108400, Note_on_c, 1, 28, 0
3, 108400, Note_on_c, 1, 28, 127
3, 108440, Note_on_c, 1, 28, 0
3, 108440, Note_on_c, 1, 28, 127
3, 108480, Note_on_c, 1, 28, 0
3, 108480, Note_on_c, 1, 41, 127
3, 108480, Note_on_c, 1, 36, 127
3, 108600, Note_on_c, 1, 41, 0
3, 108600, Note_on_c, 1, 36, 0
3, 108600, Note_on_c, 1, 31, 127
3, 108660, Note_on_c, 1, 31, 0
3, 108660, Note_on_c, 1, 31, 127
3, 108720, Note_on_c, 1, 31, 0
3, 108720, Note_on_c, 1, 43, 127
3, 108720, Note_on_c, 1, 38, 127
3, 108720, Note_on_c, 1, 31, 127
3, 108840, Note_on_c, 1, 43, 0
3, 108840, Note_on_c, 1, 38, 0
3, 108840, Note_on_c, 1, 31, 0
3, 108840, Note_on_c, 1, 31, 127
3, 108900, Note_on_c, 1, 31, 0
3, 108900, Note_on_c, 1, 31, 127
3, 108960, Note_on_c, 1, 31, 0
3, 108960, Note_on_c, 1, 43, 127
3, 108960, Note_on_c, 1, 38, 127
3, 108960, Note_on_c, 1, 31, 127
3, 109080, Note_on_c, 1, 43, 0
3, 109080, Note_on_c, 1, 38, 0
3, 109080, Note_on_c, 1, 31, 0
3, 109080, Note_on_c, 1, 31, 127
3, 109140, Note_on_c, 1, 31, 0
3, 109140, Note_on_c, 1, 31, 127
3, 109200, Note_on_c, 1, 31, 0
3, 109200, Note_on_c, 1, 43, 127
3, 109200, Note_on_c, 1, 38, 127
3, 109200, Note_on_c, 1, 31, 127
3, 109320, Note_on_c, 1, 43, 0
3, 109320, Note_on_c, 1, 38, 0
3, 109320, Note_on_c, 1, 31, 0
3, 109320, Note_on_c, 1, 31, 127
3, 109380, Note_on_c, 1, 31, 0
3, 109380, Note_on_c, 1, 31, 127
3, 109440, Note_on_c, 1, 31, 0
3, 109440, Note_on_c, 1, 43, 127
3, 109440, Note_on_c, 1, 38, 127
3, 109440, Note_on_c, 1, 31, 127
3, 109560, Note_on_c, 1, 43, 0
3, 109560, Note_on_c, 1, 38, 0
3, 109560, Note_on_c, 1, 31, 0
3, 109560, Note_on_c, 1, 28, 127
3, 109600, Note_on_c, 1, 28, 0
3, 109600, Note_on_c, 1, 28, 127
3, 109640, Note_on_c, 1, 28, 0
3, 109640, Note_on_c, 1, 28, 127
3, 109680, Note_on_c, 1, 28, 0
3, 109680, Note_on_c, 1, 28, 127
3, 109720, Note_on_c, 1, 28, 0
3, 109720, Note_on_c, 1, 28, 127
3, 109760, Note_on_c, 1, 28, 0
3, 109760, Note_on_c, 1, 28, 127
3, 109800, Note_on_c, 1, 28, 0
3, 109800, Note_on_c, 1, 40, 127
3, 109800, Note_on_c, 1, 35, 127
3, 109920, Note_on_c, 1, 40, 0
3, 109920, Note_on_c, 1, 35, 0
3, 109920, Note_on_c, 1, 28, 127
3, 109960, Note_on_c, 1, 28, 0
3, 109960, Note_on_c, 1, 28, 127
3, 110000, Note_on_c, 1, 28, 0
3, 110000, Note_on_c, 1, 28, 127
3, 110040, Note_on_c, 1, 28, 0
3, 110040, Note_on_c, 1, 28, 127
3, 110080, Note_on_c, 1, 28, 0
3, 110080, Note_on_c, 1, 28, 127
3, 110120, Note_on_c, 1, 28, 0
3, 110120, Note_on_c, 1, 28, 127
3, 110160, Note_on_c, 1, 28, 0
3, 110160, Note_on_c, 1, 40, 127
3, 110160, Note_on_c, 1, 35, 127
3, 110280, Note_on_c, 1, 40, 0
3, 110280, Note_on_c, 1, 35, 0
3, 110280, Note_on_c, 1, 28, 127
3, 110320, Note_on_c, 1, 28, 0
3, 110320, Note_on_c, 1, 28, 127
3, 110360, Note_on_c, 1, 28, 0
3, 110360, Note_on_c, 1, 28, 127
3, 110400, Note_on_c, 1, 28, 0
3, 110400, Note_on_c, 1, 41, 127
3, 110400, Note_on_c, 1, 36, 127
3, 110520, Note_on_c, 1, 41, 0
3, 110520, Note_on_c, 1, 36, 0
3, 110520, Note_on_c, 1, 31, 127
3, 110580, Note_on_c, 1, 31, 0
3, 110580, Note_on_c, 1, 31, 127
3, 110640, Note_on_c, 1, 31, 0
3, 110640, Note_on_c, 1, 43, 127
3, 110640, Note_on_c, 1, 38, 127
3, 110640, Note_on_c, 1, 31, 127
3, 110760, Note_on_c, 1, 43, 0
3, 110760, Note_on_c, 1, 38, 0
3, 110760, Note_on_c, 1, 31, 0
3, 110760, Note_on_c, 1, 31, 127
3, 110820, Note_on_c, 1, 31, 0
3, 110820, Note_on_c, 1, 31, 127
3, 110880, Note_on_c, 1, 31, 0
3, 110880, Note_on_c, 1, 43, 127
3, 110880, Note_on_c, 1, 38, 127
3, 110880, Note_on_c, 1, 31, 127
3, 111000, Note_on_c, 1, 43, 0
3, 111000, Note_on_c, 1, 38, 0
3, 111000, Note_on_c, 1, 31, 0
3, 111000, Note_on_c, 1, 31, 127
3, 111060, Note_on_c, 1, 31, 0
3, 111060, Note_on_c, 1, 31, 127
3, 111120, Note_on_c, 1, 31, 0
3, 111120, Note_on_c, 1, 43, 127
3, 111120, Note_on_c, 1, 38, 127
3, 111120, Note_on_c, 1, 31, 127
3, 111240, Note_on_c, 1, 43, 0
3, 111240, Note_on_c, 1, 38, 0
3, 111240, Note_on_c, 1, 31, 0
3, 111240, Note_on_c, 1, 31, 127
3, 111300, Note_on_c, 1, 31, 0
3, 111300, Note_on_c, 1, 31, 127
3, 111360, Note_on_c, 1, 31, 0
3, 111360, Note_on_c, 1, 43, 127
3, 111360, Note_on_c, 1, 38, 127
3, 111360, Note_on_c, 1, 31, 127
3, 111480, Note_on_c, 1, 43, 0
3, 111480, Note_on_c, 1, 38, 0
3, 111480, Note_on_c, 1, 31, 0
3, 111480, Note_on_c, 1, 28, 127
3, 111520, Note_on_c, 1, 28, 0
3, 111520, Note_on_c, 1, 28, 127
3, 111560, Note_on_c, 1, 28, 0
3, 111560, Note_on_c, 1, 28, 127
3, 111600, Note_on_c, 1, 28, 0
3, 111600, Note_on_c, 1, 28, 127
3, 111640, Note_on_c, 1, 28, 0
3, 111640, Note_on_c, 1, 28, 127
3, 111680, Note_on_c, 1, 28, 0
3, 111680, Note_on_c, 1, 28, 127
3, 111720, Note_on_c, 1, 28, 0
3, 111720, Note_on_c, 1, 40, 127
3, 111720, Note_on_c, 1, 35, 127
3, 111720, Note_on_c, 1, 28, 127
3, 111840, Note_on_c, 1, 40, 0
3, 111840, Note_on_c, 1, 35, 0
3, 111840, Note_on_c, 1, 28, 0
3, 111840, Note_on_c, 1, 40, 127
3, 111840, Note_on_c, 1, 35, 127
3, 111840, Note_on_c, 1, 28, 127
3, 111960, Note_on_c, 1, 40, 0
3, 111960, Note_on_c, 1, 35, 0
3, 111960, Note_on_c, 1, 28, 0
3, 111960, Note_on_c, 1, 29, 127
3, 112020, Note_on_c, 1, 29, 0
3, 112020, Note_on_c, 1, 29, 127
3, 112080, Note_on_c, 1, 29, 0
3, 112080, Note_on_c, 1, 42, 127
3, 112080, Note_on_c, 1, 36, 127
3, 112080, Note_on_c, 1, 29, 127
3, 112200, Note_on_c, 1, 42, 0
3, 112200, Note_on_c, 1, 36, 0
3, 112200, Note_on_c, 1, 29, 0
3, 112200, Note_on_c, 1, 29, 127
3, 112260, Note_on_c, 1, 29, 0
3, 112260, Note_on_c, 1, 29, 127
3, 112320, Note_on_c, 1, 29, 0
3, 112320, Note_on_c, 1, 42, 127
3, 112320, Note_on_c, 1, 36, 127
3, 112320, Note_on_c, 1, 29, 127
3, 112440, Note_on_c, 1, 42, 0
3, 112440, Note_on_c, 1, 36, 0
3, 112440, Note_on_c, 1, 29, 0
3, 112440, Note_on_c, 1, 28, 127
3, 112480, Note_on_c, 1, 28, 0
3, 112480, Note_on_c, 1, 28, 127
3, 112520, Note_on_c, 1, 28, 0
3, 112520, Note_on_c, 1, 28, 127
3, 112560, Note_on_c, 1, 28, 0
3, 112560, Note_on_c, 1, 28, 127
3, 112600, Note_on_c, 1, 28, 0
3, 112600, Note_on_c, 1, 28, 127
3, 112640, Note_on_c, 1, 28, 0
3, 112640, Note_on_c, 1, 28, 127
3, 112680, Note_on_c, 1, 28, 0
3, 112680, Note_on_c, 1, 40, 127
3, 112680, Note_on_c, 1, 35, 127
3, 112680, Note_on_c, 1, 28, 127
3, 112800, Note_on_c, 1, 40, 0
3, 112800, Note_on_c, 1, 35, 0
3, 112800, Note_on_c, 1, 28, 0
3, 112800, Note_on_c, 1, 40, 127
3, 112800, Note_on_c, 1, 35, 127
3, 112800, Note_on_c, 1, 28, 127
3, 112920, Note_on_c, 1, 40, 0
3, 112920, Note_on_c, 1, 35, 0
3, 112920, Note_on_c, 1, 28, 0
3, 112920, Note_on_c, 1, 29, 127
3, 112980, Note_on_c, 1, 29, 0
3, 112980, Note_on_c, 1, 29, 127
3, 113040, Note_on_c, 1, 29, 0
3, 113040, Note_on_c, 1, 42, 127
3, 113040, Note_on_c, 1, 36, 127
3, 113040, Note_on_c, 1, 29, 127
3, 113160, Note_on_c, 1, 42, 0
3, 113160, Note_on_c, 1, 36, 0
3, 113160, Note_on_c, 1, 29, 0
3, 113160, Note_on_c, 1, 29, 127
3, 113220, Note_on_c, 1, 29, 0
3, 113220, Note_on_c, 1, 29, 127
3, 113280, Note_on_c, 1, 29, 0
3, 113280, Note_on_c, 1, 42, 127
3, 113280, Note_on_c, 1, 36, 127
3, 113280, Note_on_c, 1, 29, 127
3, 113400, Note_on_c, 1, 42, 0
3, 113400, Note_on_c, 1, 36, 0
3, 113400, Note_on_c, 1, 29, 0
3, 113400, Note_on_c, 1, 28, 127
3, 113440, Note_on_c, 1, 28, 0
3, 113440, Note_on_c, 1, 28, 127
3, 113480, Note_on_c, 1, 28, 0
3, 113480, Note_on_c, 1, 28, 127
3, 113520, Note_on_c, 1, 28, 0
3, 113520, Note_on_c, 1, 28, 127
3, 113560, Note_on_c, 1, 28, 0
3, 113560, Note_on_c, 1, 28, 127
3, 113600, Note_on_c, 1, 28, 0
3, 113600, Note_on_c, 1, 28, 127
3, 113640, Note_on_c, 1, 28, 0
3, 113640, Note_on_c, 1, 40, 127
3, 113640, Note_on_c, 1, 35, 127
3, 113640, Note_on_c, 1, 28, 127
3, 113760, Note_on_c, 1, 40, 0
3, 113760, Note_on_c, 1, 35, 0
3, 113760, Note_on_c, 1, 28, 0
3, 113760, Note_on_c, 1, 40, 127
3, 113760, Note_on_c, 1, 35, 127
3, 113760, Note_on_c, 1, 28, 127
3, 113880, Note_on_c, 1, 40, 0
3, 113880, Note_on_c, 1, 35, 0
3, 113880, Note_on_c, 1, 28, 0
3, 113880, Note_on_c, 1, 29, 127
3, 113940, Note_on_c, 1, 29, 0
3, 113940, Note_on_c, 1, 29, 127
3, 114000, Note_on_c, 1, 29, 0
3, 114000, Note_on_c, 1, 42, 127
3, 114000, Note_on_c, 1, 36, 127
3, 114000, Note_on_c, 1, 29, 127
3, 114120, Note_on_c, 1, 42, 0
3, 114120, Note_on_c, 1, 36, 0
3, 114120, Note_on_c, 1, 29, 0
3, 114120, Note_on_c, 1, 29, 127
3, 114180, Note_on_c, 1, 29, 0
3, 114180, Note_on_c, 1, 29, 127
3, 114240, Note_on_c, 1, 29, 0
3, 114240, Note_on_c, 1, 42, 127
3, 114240, Note_on_c, 1, 36, 127
3, 114240, Note_on_c, 1, 29, 127
3, 114360, Note_on_c, 1, 42, 0
3, 114360, Note_on_c, 1, 36, 0
3, 114360, Note_on_c, 1, 29, 0
3, 114360, Note_on_c, 1, 28, 127
3, 114400, Note_on_c, 1, 28, 0
3, 114400, Note_on_c, 1, 28, 127
3, 114440, Note_on_c, 1, 28, 0
3, 114440, Note_on_c, 1, 28, 127
3, 114480, Note_on_c, 1, 28, 0
3, 114480, Note_on_c, 1, 28, 127
3, 114520, Note_on_c, 1, 28, 0
3, 114520, Note_on_c, 1, 28, 127
3, 114560, Note_on_c, 1, 28, 0
3, 114560, Note_on_c, 1, 28, 127
3, 114600, Note_on_c, 1, 28, 0
3, 114600, Note_on_c, 1, 40, 127
3, 114600, Note_on_c, 1, 35, 127
3, 114600, Note_on_c, 1, 28, 127
3, 114720, Note_on_c, 1, 40, 0
3, 114720, Note_on_c, 1, 35, 0
3, 114720, Note_on_c, 1, 28, 0
3, 114720, Note_on_c, 1, 40, 127
3, 114720, Note_on_c, 1, 35, 127
3, 114720, Note_on_c, 1, 28, 127
3, 114840, Note_on_c, 1, 40, 0
3, 114840, Note_on_c, 1, 35, 0
3, 114840, Note_on_c, 1, 28, 0
3, 114840, Note_on_c, 1, 31, 127
3, 114900, Note_on_c, 1, 31, 0
3, 114900, Note_on_c, 1, 31, 127
3, 114960, Note_on_c, 1, 31, 0
3, 114960, Note_on_c, 1, 43, 127
3, 114960, Note_on_c, 1, 38, 127
3, 114960, Note_on_c, 1, 31, 127
3, 115080, Note_on_c, 1, 43, 0
3, 115080, Note_on_c, 1, 38, 0
3, 115080, Note_on_c, 1, 31, 0
3, 115080, Note_on_c, 1, 31, 127
3, 115140, Note_on_c, 1, 31, 0
3, 115140, Note_on_c, 1, 31, 127
3, 115200, Note_on_c, 1, 31, 0
3, 115200, Note_on_c, 1, 38, 127
3, 115200, Note_on_c, 1, 43, 127
3, 115200, Note_on_c, 1, 31, 127
3, 115320, Note_on_c, 1, 38, 0
3, 115320, Note_on_c, 1, 43, 0
3, 115320, Note_on_c, 1, 31, 0
3, 115320, Note_on_c, 1, 31, 127
3, 115380, Note_on_c, 1, 31, 0
3, 115380, Note_on_c, 1, 31, 127
3, 115440, Note_on_c, 1, 31, 0
3, 115440, Note_on_c, 1, 43, 127
3, 115440, Note_on_c, 1, 38, 127
3, 115440, Note_on_c, 1, 31, 127
3, 115560, Note_on_c, 1, 43, 0
3, 115560, Note_on_c, 1, 38, 0
3, 115560, Note_on_c, 1, 31, 0
3, 115560, Note_on_c, 1, 31, 127
3, 115620, Note_on_c, 1, 31, 0
3, 115620, Note_on_c, 1, 31, 127
3, 115680, Note_on_c, 1, 31, 0
3, 115680, Note_on_c, 1, 38, 127
3, 115680, Note_on_c, 1, 43, 127
3, 115680, Note_on_c, 1, 31, 127
3, 115800, Note_on_c, 1, 38, 0
3, 115800, Note_on_c, 1, 43, 0
3, 115800, Note_on_c, 1, 31, 0
3, 115800, Note_on_c, 1, 28, 127
3, 115840, Note_on_c, 1, 28, 0
3, 115840, Note_on_c, 1, 28, 127
3, 115880, Note_on_c, 1, 28, 0
3, 115880, Note_on_c, 1, 28, 127
3, 115920, Note_on_c, 1, 28, 0
3, 115920, Note_on_c, 1, 28, 127
3, 115960, Note_on_c, 1, 28, 0
3, 115960, Note_on_c, 1, 28, 127
3, 116000, Note_on_c, 1, 28, 0
3, 116000, Note_on_c, 1, 28, 127
3, 116040, Note_on_c, 1, 28, 0
3, 116040, Note_on_c, 1, 40, 127
3, 116040, Note_on_c, 1, 35, 127
3, 116160, Note_on_c, 1, 40, 0
3, 116160, Note_on_c, 1, 35, 0
3, 116160, Note_on_c, 1, 28, 127
3, 116200, Note_on_c, 1, 28, 0
3, 116200, Note_on_c, 1, 28, 127
3, 116240, Note_on_c, 1, 28, 0
3, 116240, Note_on_c, 1, 28, 127
3, 116280, Note_on_c, 1, 28, 0
3, 116280, Note_on_c, 1, 28, 127
3, 116320, Note_on_c, 1, 28, 0
3, 116320, Note_on_c, 1, 28, 127
3, 116360, Note_on_c, 1, 28, 0
3, 116360, Note_on_c, 1, 28, 127
3, 116400, Note_on_c, 1, 28, 0
3, 116400, Note_on_c, 1, 40, 127
3, 116400, Note_on_c, 1, 35, 127
3, 116520, Note_on_c, 1, 40, 0
3, 116520, Note_on_c, 1, 35, 0
3, 116520, Note_on_c, 1, 28, 127
3, 116560, Note_on_c, 1, 28, 0
3, 116560, Note_on_c, 1, 28, 127
3, 116600, Note_on_c, 1, 28, 0
3, 116600, Note_on_c, 1, 28, 127
3, 116640, Note_on_c, 1, 28, 0
3, 116640, Note_on_c, 1, 41, 127
3, 116640, Note_on_c, 1, 36, 127
3, 116760, Note_on_c, 1, 41, 0
3, 116760, Note_on_c, 1, 36, 0
3, 116760, Note_on_c, 1, 28, 127
3, 116760, Note_on_c, 1, 35, 127
3, 116760, Note_on_c, 1, 40, 127
3, 116800, Note_on_c, 1, 28, 0
3, 116800, Note_on_c, 1, 35, 0
3, 116800, Note_on_c, 1, 40, 0
3, 116800, Note_on_c, 1, 28, 127
3, 116800, Note_on_c, 1, 35, 127
3, 116800, Note_on_c, 1, 40, 127
3, 116840, Note_on_c, 1, 28, 0
3, 116840, Note_on_c, 1, 35, 0
3, 116840, Note_on_c, 1, 40, 0
3, 116840, Note_on_c, 1, 28, 127
3, 116840, Note_on_c, 1, 35, 127
3, 116840, Note_on_c, 1, 40, 127
3, 116880, Note_on_c, 1, 28, 0
3, 116880, Note_on_c, 1, 35, 0
3, 116880, Note_on_c, 1, 40, 0
3, 116880, Note_on_c, 1, 28, 127
3, 116880, Note_on_c, 1, 35, 127
3, 116880, Note_on_c, 1, 40, 127
3, 116920, Note_on_c, 1, 28, 0
3, 116920, Note_on_c, 1, 35, 0
3, 116920, Note_on_c, 1, 40, 0
3, 116920, Note_on_c, 1, 28, 127
3, 116920, Note_on_c, 1, 35, 127
3, 116920, Note_on_c, 1, 40, 127
3, 116960, Note_on_c, 1, 28, 0
3, 116960, Note_on_c, 1, 35, 0
3, 116960, Note_on_c, 1, 40, 0
3, 116960, Note_on_c, 1, 28, 127
3, 116960, Note_on_c, 1, 35, 127
3, 116960, Note_on_c, 1, 40, 127
3, 117000, Note_on_c, 1, 28, 0
3, 117000, Note_on_c, 1, 35, 0
3, 117000, Note_on_c, 1, 40, 0
3, 117000, Note_on_c, 1, 28, 127
3, 117000, Note_on_c, 1, 35, 127
3, 117000, Note_on_c, 1, 40, 127
3, 117060, Note_on_c, 1, 28, 0
3, 117060, Note_on_c, 1, 35, 0
3, 117060, Note_on_c, 1, 40, 0
3, 117120, Note_on_c, 1, 28, 127
3, 117120, Note_on_c, 1, 35, 127
3, 117120, Note_on_c, 1, 40, 127
3, 117160, Note_on_c, 1, 28, 0
3, 117160, Note_on_c, 1, 35, 0
3, 117160, Note_on_c, 1, 40, 0
3, 117160, Note_on_c, 1, 28, 127
3, 117160, Note_on_c, 1, 35, 127
3, 117160, Note_on_c, 1, 40, 127
3, 117200, Note_on_c, 1, 28, 0
3, 117200, Note_on_c, 1, 35, 0
3, 117200, Note_on_c, 1, 40, 0
3, 117200, Note_on_c, 1, 28, 127
3, 117200, Note_on_c, 1, 35, 127
3, 117200, Note_on_c, 1, 40, 127
3, 117240, Note_on_c, 1, 28, 0
3, 117240, Note_on_c, 1, 35, 0
3, 117240, Note_on_c, 1, 40, 0
3, 117240, Note_on_c, 1, 28, 127
3, 117240, Note_on_c, 1, 35, 127
3, 117240, Note_on_c, 1, 40, 127
3, 117280, Note_on_c, 1, 28, 0
3, 117280, Note_on_c, 1, 35, 0
3, 117280, Note_on_c, 1, 40, 0
3, 117280, Note_on_c, 1, 28, 127
3, 117280, Note_on_c, 1, 35, 127
3, 117280, Note_on_c, 1, 40, 127
3, 117320, Note_on_c, 1, 28, 0
3, 117320, Note_on_c, 1, 35, 0
3, 117320, Note_on_c, 1, 40, 0
3, 117320, Note_on_c, 1, 28, 127
3, 117320, Note_on_c, 1, 35, 127
3, 117320, Note_on_c, 1, 40, 127
3, 117360, Note_on_c, 1, 28, 0
3, 117360, Note_on_c, 1, 35, 0
3, 117360, Note_on_c, 1, 40, 0
3, 117360, Note_on_c, 1, 28, 127
3, 117360, Note_on_c, 1, 35, 127
3, 117360, Note_on_c, 1, 40, 127
3, 117420, Note_on_c, 1, 28, 0
3, 117420, Note_on_c, 1, 35, 0
3, 117420, Note_on_c, 1, 40, 0
3, 117420, End_track
4, 0, Start_track
4, 0, Sequencer_specific, 5, 5, 15, 9, 8, 64
4, 0, Sequencer_specific, 15, 5, 15, 6, 71, 101, 110, 101, 114, 97, 108, 32, 77, 73, 68, 73
4, 0, Channel_prefix, 6
4, 0, MIDI_port, 0
4, 0, Title_t, "Acoustic Guitar (Guitar 1)"
4, 0, Program_c, 6, 25
4, 0, Control_c, 6, 7, 99
4, 0, Note_on_c, 6, 35, 127
4, 60, Note_on_c, 6, 35, 0
4, 60, Note_on_c, 6, 42, 127
4, 120, Note_on_c, 6, 42, 0
4, 120, Note_on_c, 6, 35, 127
4, 180, Note_on_c, 6, 35, 0
4, 180, Note_on_c, 6, 38, 127
4, 480, Note_on_c, 6, 38, 0
4, 480, Note_on_c, 6, 31, 127
4, 540, Note_on_c, 6, 31, 0
4, 540, Note_on_c, 6, 42, 127
4, 600, Note_on_c, 6, 42, 0
4, 600, Note_on_c, 6, 31, 127
4, 660, Note_on_c, 6, 31, 0
4, 660, Note_on_c, 6, 38, 127
4, 960, Note_on_c, 6, 38, 0
4, 960, Note_on_c, 6, 35, 127
4, 1020, Note_on_c, 6, 35, 0
4, 1020, Note_on_c, 6, 42, 127
4, 1080, Note_on_c, 6, 42, 0
4, 1080, Note_on_c, 6, 35, 127
4, 1140, Note_on_c, 6, 35, 0
4, 1140, Note_on_c, 6, 38, 127
4, 1440, Note_on_c, 6, 38, 0
4, 1440, Note_on_c, 6, 31, 127
4, 1500, Note_on_c, 6, 31, 0
4, 1500, Note_on_c, 6, 42, 127
4, 1560, Note_on_c, 6, 42, 0
4, 1560, Note_on_c, 6, 31, 127
4, 1620, Note_on_c, 6, 31, 0
4, 1620, Note_on_c, 6, 38, 127
4, 1740, Note_on_c, 6, 38, 0
4, 1740, Note_on_c, 6, 43, 127
4, 1920, Note_on_c, 6, 35, 127
4, 1980, Note_on_c, 6, 35, 0
4, 1980, Note_on_c, 6, 42, 127
4, 2040, Note_on_c, 6, 42, 0
4, 2040, Note_on_c, 6, 35, 127
4, 2100, Note_on_c, 6, 35, 0
4, 2100, Note_on_c, 6, 38, 127
4, 2400, Note_on_c, 6, 43, 0
4, 2400, Note_on_c, 6, 38, 0
4, 2400, Note_on_c, 6, 33, 127
4, 2460, Note_on_c, 6, 33, 0
4, 2460, Note_on_c, 6, 42, 127
4, 2520, Note_on_c, 6, 42, 0
4, 2520, Note_on_c, 6, 33, 127
4, 2580, Note_on_c, 6, 33, 0
4, 2580, Note_on_c, 6, 38, 127
4, 2880, Note_on_c, 6, 38, 0
4, 2880, Note_on_c, 6, 31, 127
4, 2940, Note_on_c, 6, 31, 0
4, 2940, Note_on_c, 6, 42, 127
4, 3000, Note_on_c, 6, 42, 0
4, 3000, Note_on_c, 6, 31, 127
4, 3060, Note_on_c, 6, 31, 0
4, 3060, Note_on_c, 6, 38, 127
4, 3360, Note_on_c, 6, 38, 0
4, 3360, Time_signature, 2, 2, 24, 8
4, 3360, Note_on_c, 6, 28, 127
4, 3420, Note_on_c, 6, 28, 0
4, 3420, Note_on_c, 6, 35, 127
4, 3450, Note_on_c, 6, 35, 0
4, 3480, Note_on_c, 6, 30, 127
4, 3540, Note_on_c, 6, 30, 0
4, 3540, Note_on_c, 6, 35, 127
4, 3570, Note_on_c, 6, 35, 0
4, 3600, Time_signature, 4, 2, 24, 8
4, 3600, Note_on_c, 6, 35, 127
4, 3660, Note_on_c, 6, 35, 0
4, 3660, Note_on_c, 6, 42, 127
4, 3720, Note_on_c, 6, 42, 0
4, 3720, Note_on_c, 6, 35, 127
4, 3780, Note_on_c, 6, 35, 0
4, 3780, Note_on_c, 6, 38, 127
4, 4080, Note_on_c, 6, 38, 0
4, 4080, Note_on_c, 6, 31, 127
4, 4140, Note_on_c, 6, 31, 0
4, 4140, Note_on_c, 6, 42, 127
4, 4200, Note_on_c, 6, 42, 0
4, 4200, Note_on_c, 6, 31, 127
4, 4260, Note_on_c, 6, 31, 0
4, 4260, Note_on_c, 6, 38, 127
4, 4560, Note_on_c, 6, 38, 0
4, 4560, Note_on_c, 6, 35, 127
4, 4620, Note_on_c, 6, 35, 0
4, 4620, Note_on_c, 6, 42, 127
4, 4680, Note_on_c, 6, 42, 0
4, 4680, Note_on_c, 6, 35, 127
4, 4740, Note_on_c, 6, 35, 0
4, 4740, Note_on_c, 6, 38, 127
4, 5040, Note_on_c, 6, 38, 0
4, 5040, Note_on_c, 6, 31, 127
4, 5100, Note_on_c, 6, 31, 0
4, 5100, Note_on_c, 6, 42, 127
4, 5160, Note_on_c, 6, 42, 0
4, 5160, Note_on_c, 6, 31, 127
4, 5220, Note_on_c, 6, 31, 0
4, 5220, Note_on_c, 6, 38, 127
4, 5340, Note_on_c, 6, 38, 0
4, 5340, Note_on_c, 6, 43, 127
4, 5400, Note_on_c, 6, 43, 0
4, 5520, Note_on_c, 6, 35, 127
4, 5580, Note_on_c, 6, 35, 0
4, 5580, Note_on_c, 6, 42, 127
4, 5640, Note_on_c, 6, 42, 0
4, 5640, Note_on_c, 6, 35, 127
4, 5700, Note_on_c, 6, 35, 0
4, 5700, Note_on_c, 6, 38, 127
4, 6000, Note_on_c, 6, 38, 0
4, 6000, Note_on_c, 6, 33, 127
4, 6060, Note_on_c, 6, 33, 0
4, 6060, Note_on_c, 6, 42, 127
4, 6120, Note_on_c, 6, 42, 0
4, 6120, Note_on_c, 6, 33, 127
4, 6180, Note_on_c, 6, 33, 0
4, 6180, Note_on_c, 6, 38, 127
4, 6480, Note_on_c, 6, 38, 0
4, 6480, Note_on_c, 6, 31, 127
4, 6540, Note_on_c, 6, 31, 0
4, 6540, Note_on_c, 6, 42, 127
4, 6600, Note_on_c, 6, 42, 0
4, 6600, Note_on_c, 6, 31, 127
4, 6660, Note_on_c, 6, 31, 0
4, 6660, Note_on_c, 6, 38, 127
4, 6960, Note_on_c, 6, 38, 0
4, 6960, Time_signature, 2, 2, 24, 8
4, 6960, Note_on_c, 6, 28, 127
4, 7020, Note_on_c, 6, 28, 0
4, 7020, Note_on_c, 6, 35, 127
4, 7050, Note_on_c, 6, 35, 0
4, 7080, Note_on_c, 6, 30, 127
4, 7140, Note_on_c, 6, 30, 0
4, 7140, Note_on_c, 6, 35, 127
4, 7170, Note_on_c, 6, 35, 0
4, 7200, Time_signature, 4, 2, 24, 8
4, 7200, Note_on_c, 6, 35, 127
4, 7260, Note_on_c, 6, 35, 0
4, 7260, Note_on_c, 6, 42, 127
4, 7320, Note_on_c, 6, 42, 0
4, 7320, Note_on_c, 6, 35, 127
4, 7380, Note_on_c, 6, 35, 0
4, 7380, Note_on_c, 6, 38, 127
4, 7680, Note_on_c, 6, 38, 0
4, 7680, Note_on_c, 6, 31, 127
4, 7740, Note_on_c, 6, 31, 0
4, 7740, Note_on_c, 6, 42, 127
4, 7800, Note_on_c, 6, 42, 0
4, 7800, Note_on_c, 6, 31, 127
4, 7860, Note_on_c, 6, 31, 0
4, 7860, Note_on_c, 6, 38, 127
4, 8160, Note_on_c, 6, 38, 0
4, 8160, Note_on_c, 6, 35, 127
4, 8220, Note_on_c, 6, 35, 0
4, 8220, Note_on_c, 6, 42, 127
4, 8280, Note_on_c, 6, 42, 0
4, 8280, Note_on_c, 6, 35, 127
4, 8340, Note_on_c, 6, 35, 0
4, 8340, Note_on_c, 6, 38, 127
4, 8640, Note_on_c, 6, 38, 0
4, 8640, Note_on_c, 6, 31, 127
4, 8700, Note_on_c, 6, 31, 0
4, 8700, Note_on_c, 6, 42, 127
4, 8760, Note_on_c, 6, 42, 0
4, 8760, Note_on_c, 6, 31, 127
4, 8820, Note_on_c, 6, 31, 0
4, 8820, Note_on_c, 6, 38, 127
4, 8940, Note_on_c, 6, 38, 0
4, 8940, Note_on_c, 6, 43, 127
4, 9000, Note_on_c, 6, 43, 0
4, 9120, Note_on_c, 6, 35, 127
4, 9180, Note_on_c, 6, 35, 0
4, 9180, Note_on_c, 6, 42, 127
4, 9240, Note_on_c, 6, 42, 0
4, 9240, Note_on_c, 6, 35, 127
4, 9300, Note_on_c, 6, 35, 0
4, 9300, Note_on_c, 6, 38, 127
4, 9600, Note_on_c, 6, 38, 0
4, 9600, Note_on_c, 6, 33, 127
4, 9660, Note_on_c, 6, 33, 0
4, 9660, Note_on_c, 6, 42, 127
4, 9720, Note_on_c, 6, 42, 0
4, 9720, Note_on_c, 6, 33, 127
4, 9780, Note_on_c, 6, 33, 0
4, 9780, Note_on_c, 6, 38, 127
4, 10080, Note_on_c, 6, 38, 0
4, 10080, Note_on_c, 6, 31, 127
4, 10140, Note_on_c, 6, 31, 0
4, 10140, Note_on_c, 6, 42, 127
4, 10200, Note_on_c, 6, 42, 0
4, 10200, Note_on_c, 6, 31, 127
4, 10260, Note_on_c, 6, 31, 0
4, 10260, Note_on_c, 6, 38, 127
4, 10560, Note_on_c, 6, 38, 0
4, 10560, Note_on_c, 6, 28, 127
4, 10620, Note_on_c, 6, 28, 0
4, 10620, Note_on_c, 6, 35, 127
4, 10650, Note_on_c, 6, 35, 0
4, 10680, Note_on_c, 6, 30, 127
4, 10740, Note_on_c, 6, 30, 0
4, 10740, Note_on_c, 6, 35, 127
4, 10770, Note_on_c, 6, 35, 0
4, 10800, Note_on_c, 6, 28, 127
4, 10860, Note_on_c, 6, 28, 0
4, 10860, Note_on_c, 6, 35, 127
4, 10890, Note_on_c, 6, 35, 0
4, 10915, Note_on_c, 6, 35, 75
4, 10920, Note_on_c, 6, 37, 127
4, 10980, Note_on_c, 6, 35, 0
4, 10980, Note_on_c, 6, 37, 0
4, 10980, Note_on_c, 6, 35, 127
4, 11010, Note_on_c, 6, 35, 0
4, 11040, Time_signature, 3, 2, 24, 8
4, 11040, Note_on_c, 6, 35, 127
4, 11100, Note_on_c, 6, 35, 0
4, 11100, Note_on_c, 6, 42, 127
4, 11160, Note_on_c, 6, 42, 0
4, 11160, Note_on_c, 6, 35, 127
4, 11220, Note_on_c, 6, 35, 0
4, 11220, Note_on_c, 6, 38, 127
4, 11400, Note_on_c, 6, 38, 0
4, 11400, Note_on_c, 6, 31, 127
4, 11460, Note_on_c, 6, 31, 0
4, 11460, Note_on_c, 6, 42, 127
4, 11520, Note_on_c, 6, 42, 0
4, 11520, Note_on_c, 6, 31, 127
4, 11580, Note_on_c, 6, 31, 0
4, 11580, Note_on_c, 6, 38, 127
4, 11760, Note_on_c, 6, 38, 0
4, 11760, Note_on_c, 6, 35, 127
4, 11820, Note_on_c, 6, 35, 0
4, 11820, Note_on_c, 6, 42, 127
4, 11880, Note_on_c, 6, 42, 0
4, 11880, Note_on_c, 6, 35, 127
4, 11940, Note_on_c, 6, 35, 0
4, 11940, Note_on_c, 6, 38, 127
4, 12120, Note_on_c, 6, 38, 0
4, 12120, Note_on_c, 6, 31, 127
4, 12180, Note_on_c, 6, 31, 0
4, 12180, Note_on_c, 6, 42, 127
4, 12240, Note_on_c, 6, 42, 0
4, 12240, Note_on_c, 6, 31, 127
4, 12300, Note_on_c, 6, 31, 0
4, 12300, Note_on_c, 6, 38, 127
4, 12480, Note_on_c, 6, 38, 0
4, 12480, Note_on_c, 6, 35, 127
4, 12540, Note_on_c, 6, 35, 0
4, 12540, Note_on_c, 6, 42, 127
4, 12600, Note_on_c, 6, 42, 0
4, 12600, Note_on_c, 6, 35, 127
4, 12660, Note_on_c, 6, 35, 0
4, 12660, Note_on_c, 6, 38, 127
4, 12840, Note_on_c, 6, 38, 0
4, 12840, Note_on_c, 6, 33, 127
4, 12900, Note_on_c, 6, 33, 0
4, 12900, Note_on_c, 6, 42, 127
4, 12960, Note_on_c, 6, 42, 0
4, 12960, Note_on_c, 6, 33, 127
4, 13020, Note_on_c, 6, 33, 0
4, 13020, Note_on_c, 6, 38, 127
4, 13200, Note_on_c, 6, 38, 0
4, 13200, Note_on_c, 6, 31, 127
4, 13260, Note_on_c, 6, 31, 0
4, 13260, Note_on_c, 6, 42, 127
4, 13320, Note_on_c, 6, 42, 0
4, 13320, Note_on_c, 6, 31, 127
4, 13380, Note_on_c, 6, 31, 0
4, 13380, Note_on_c, 6, 38, 127
4, 13560, Note_on_c, 6, 38, 0
4, 13560, Note_on_c, 6, 28, 127
4, 13615, Note_on_c, 6, 40, 75
4, 13620, Note_on_c, 6, 28, 0
4, 13620, Note_on_c, 6, 40, 0
4, 13620, Control_c, 6, 1, 0
4, 13620, Note_on_c, 6, 42, 127
4, 13621, Control_c, 6, 1, 7
4, 13622, Control_c, 6, 1, 13
4, 13623, Control_c, 6, 1, 20
4, 13624, Control_c, 6, 1, 26
4, 13625, Control_c, 6, 1, 32
4, 13626, Control_c, 6, 1, 39
4, 13627, Control_c, 6, 1, 45
4, 13628, Control_c, 6, 1, 52
4, 13629, Control_c, 6, 1, 58
4, 13630, Control_c, 6, 1, 64
4, 13739, Control_c, 6, 1, 0
4, 13740, Note_on_c, 6, 42, 0
4, 13740, Note_on_c, 6, 40, 127
4, 13800, Note_on_c, 6, 40, 0
4, 13800, Note_on_c, 6, 30, 127
4, 13860, Note_on_c, 6, 30, 0
4, 13860, Note_on_c, 6, 37, 127
4, 13920, Note_on_c, 6, 37, 0
4, 13920, Note_on_c, 6, 31, 127
4, 13980, Note_on_c, 6, 31, 0
4, 13980, Note_on_c, 6, 38, 127
4, 14040, Note_on_c, 6, 38, 0
4, 14040, Note_on_c, 6, 38, 127
4, 14100, Note_on_c, 6, 38, 0
4, 14100, Note_on_c, 6, 31, 127
4, 14160, Note_on_c, 6, 31, 0
4, 14160, Note_on_c, 6, 33, 127
4, 14220, Note_on_c, 6, 33, 0
4, 14220, Note_on_c, 6, 40, 127
4, 14280, Note_on_c, 6, 40, 0
4, 17160, Note_on_c, 6, 35, 127
4, 17220, Note_on_c, 6, 35, 0
4, 17220, Note_on_c, 6, 42, 127
4, 17280, Note_on_c, 6, 42, 0
4, 17280, Note_on_c, 6, 35, 127
4, 17340, Note_on_c, 6, 35, 0
4, 17340, Note_on_c, 6, 38, 127
4, 17520, Note_on_c, 6, 38, 0
4, 17520, Note_on_c, 6, 31, 127
4, 17580, Note_on_c, 6, 31, 0
4, 17580, Note_on_c, 6, 42, 127
4, 17640, Note_on_c, 6, 42, 0
4, 17640, Note_on_c, 6, 31, 127
4, 17700, Note_on_c, 6, 31, 0
4, 17700, Note_on_c, 6, 38, 127
4, 17880, Note_on_c, 6, 38, 0
4, 17880, Note_on_c, 6, 35, 127
4, 17940, Note_on_c, 6, 35, 0
4, 17940, Note_on_c, 6, 42, 127
4, 18000, Note_on_c, 6, 42, 0
4, 18000, Note_on_c, 6, 35, 127
4, 18060, Note_on_c, 6, 35, 0
4, 18060, Note_on_c, 6, 38, 127
4, 18240, Note_on_c, 6, 38, 0
4, 18240, Note_on_c, 6, 31, 127
4, 18300, Note_on_c, 6, 31, 0
4, 18300, Note_on_c, 6, 42, 127
4, 18360, Note_on_c, 6, 42, 0
4, 18360, Note_on_c, 6, 31, 127
4, 18420, Note_on_c, 6, 31, 0
4, 18420, Note_on_c, 6, 38, 127
4, 18475, Note_on_c, 6, 31, 75
4, 18480, Note_on_c, 6, 38, 0
4, 18480, Note_on_c, 6, 31, 0
4, 18480, Note_on_c, 6, 38, 127
4, 18480, Note_on_c, 6, 33, 127
4, 18600, Note_on_c, 6, 38, 0
4, 18600, Note_on_c, 6, 33, 0
4, 18600, Note_on_c, 6, 35, 127
4, 18660, Note_on_c, 6, 35, 0
4, 18660, Note_on_c, 6, 42, 127
4, 18720, Note_on_c, 6, 42, 0
4, 18720, Note_on_c, 6, 35, 127
4, 18780, Note_on_c, 6, 35, 0
4, 18780, Note_on_c, 6, 38, 127
4, 18960, Note_on_c, 6, 38, 0
4, 18960, Note_on_c, 6, 33, 127
4, 19020, Note_on_c, 6, 33, 0
4, 19020, Note_on_c, 6, 42, 127
4, 19080, Note_on_c, 6, 42, 0
4, 19080, Note_on_c, 6, 33, 127
4, 19140, Note_on_c, 6, 33, 0
4, 19140, Note_on_c, 6, 38, 127
4, 19320, Note_on_c, 6, 38, 0
4, 19320, Note_on_c, 6, 31, 127
4, 19380, Note_on_c, 6, 31, 0
4, 19380, Note_on_c, 6, 42, 127
4, 19440, Note_on_c, 6, 42, 0
4, 19440, Note_on_c, 6, 31, 127
4, 19500, Note_on_c, 6, 31, 0
4, 19500, Note_on_c, 6, 38, 127
4, 19680, Note_on_c, 6, 38, 0
4, 19680, Time_signature, 2, 2, 24, 8
4, 19680, Note_on_c, 6, 28, 127
4, 19740, Note_on_c, 6, 28, 0
4, 19740, Note_on_c, 6, 35, 127
4, 19770, Note_on_c, 6, 35, 0
4, 19800, Note_on_c, 6, 30, 127
4, 19860, Note_on_c, 6, 30, 0
4, 19860, Note_on_c, 6, 35, 127
4, 19890, Note_on_c, 6, 35, 0
4, 19920, Time_signature, 3, 2, 24, 8
4, 19920, Note_on_c, 6, 35, 127
4, 19980, Note_on_c, 6, 35, 0
4, 19980, Note_on_c, 6, 42, 127
4, 20040, Note_on_c, 6, 42, 0
4, 20040, Note_on_c, 6, 35, 127
4, 20100, Note_on_c, 6, 35, 0
4, 20100, Note_on_c, 6, 38, 127
4, 20280, Note_on_c, 6, 38, 0
4, 20280, Note_on_c, 6, 31, 127
4, 20340, Note_on_c, 6, 31, 0
4, 20340, Note_on_c, 6, 42, 127
4, 20400, Note_on_c, 6, 42, 0
4, 20400, Note_on_c, 6, 31, 127
4, 20460, Note_on_c, 6, 31, 0
4, 20460, Note_on_c, 6, 38, 127
4, 20640, Note_on_c, 6, 38, 0
4, 20640, Note_on_c, 6, 35, 127
4, 20700, Note_on_c, 6, 35, 0
4, 20700, Note_on_c, 6, 42, 127
4, 20760, Note_on_c, 6, 42, 0
4, 20760, Note_on_c, 6, 35, 127
4, 20820, Note_on_c, 6, 35, 0
4, 20820, Note_on_c, 6, 38, 127
4, 21000, Note_on_c, 6, 38, 0
4, 21000, Note_on_c, 6, 31, 127
4, 21060, Note_on_c, 6, 31, 0
4, 21060, Note_on_c, 6, 42, 127
4, 21120, Note_on_c, 6, 42, 0
4, 21120, Note_on_c, 6, 31, 127
4, 21180, Note_on_c, 6, 31, 0
4, 21180, Note_on_c, 6, 38, 127
4, 21235, Note_on_c, 6, 31, 75
4, 21240, Note_on_c, 6, 38, 0
4, 21240, Note_on_c, 6, 31, 0
4, 21240, Note_on_c, 6, 38, 127
4, 21240, Note_on_c, 6, 33, 127
4, 21360, Note_on_c, 6, 38, 0
4, 21360, Note_on_c, 6, 33, 0
4, 21360, Note_on_c, 6, 35, 127
4, 21420, Note_on_c, 6, 35, 0
4, 21420, Note_on_c, 6, 42, 127
4, 21480, Note_on_c, 6, 42, 0
4, 21480, Note_on_c, 6, 35, 127
4, 21540, Note_on_c, 6, 35, 0
4, 21540, Note_on_c, 6, 38, 127
4, 21720, Note_on_c, 6, 38, 0
4, 21720, Note_on_c, 6, 33, 127
4, 21780, Note_on_c, 6, 33, 0
4, 21780, Note_on_c, 6, 42, 127
4, 21840, Note_on_c, 6, 42, 0
4, 21840, Note_on_c, 6, 33, 127
4, 21900, Note_on_c, 6, 33, 0
4, 21900, Note_on_c, 6, 38, 127
4, 22080, Note_on_c, 6, 38, 0
4, 22080, Note_on_c, 6, 31, 127
4, 22140, Note_on_c, 6, 31, 0
4, 22140, Note_on_c, 6, 42, 127
4, 22200, Note_on_c, 6, 42, 0
4, 22200, Note_on_c, 6, 31, 127
4, 22260, Note_on_c, 6, 31, 0
4, 22260, Note_on_c, 6, 38, 127
4, 22440, Note_on_c, 6, 38, 0
4, 22440, Time_signature, 2, 2, 24, 8
4, 22440, Note_on_c, 6, 28, 127
4, 22500, Note_on_c, 6, 28, 0
4, 22500, Note_on_c, 6, 35, 127
4, 22530, Note_on_c, 6, 35, 0
4, 22560, Note_on_c, 6, 30, 127
4, 22620, Note_on_c, 6, 30, 0
4, 22620, Note_on_c, 6, 35, 127
4, 22650, Note_on_c, 6, 35, 0
4, 22680, Time_signature, 6, 2, 24, 8
4, 22680, Note_on_c, 6, 31, 127
4, 22680, Note_on_c, 6, 38, 127
4, 22680, Note_on_c, 6, 43, 127
4, 22860, Note_on_c, 6, 31, 0
4, 22860, Note_on_c, 6, 38, 0
4, 22860, Note_on_c, 6, 43, 0
4, 22860, Note_on_c, 6, 45, 127
4, 22860, Note_on_c, 6, 40, 127
4, 22860, Note_on_c, 6, 33, 127
4, 22920, Note_on_c, 6, 45, 0
4, 22920, Note_on_c, 6, 40, 0
4, 22920, Note_on_c, 6, 33, 0
4, 22920, Note_on_c, 6, 35, 127
4, 22920, Note_on_c, 6, 42, 127
4, 22920, Note_on_c, 6, 47, 127
4, 22980, Note_on_c, 6, 35, 0
4, 22980, Note_on_c, 6, 42, 0
4, 22980, Note_on_c, 6, 47, 0
4, 22980, Note_on_c, 6, 45, 127
4, 22980, Note_on_c, 6, 40, 127
4, 22980, Note_on_c, 6, 33, 127
4, 23040, Note_on_c, 6, 45, 0
4, 23040, Note_on_c, 6, 40, 0
4, 23040, Note_on_c, 6, 33, 0
4, 23040, Note_on_c, 6, 31, 127
4, 23040, Note_on_c, 6, 38, 127
4, 23040, Note_on_c, 6, 43, 127
4, 23160, Note_on_c, 6, 31, 0
4, 23160, Note_on_c, 6, 38, 0
4, 23160, Note_on_c, 6, 43, 0
4, 23160, Note_on_c, 6, 42, 127
4, 23160, Note_on_c, 6, 37, 127
4, 23160, Note_on_c, 6, 30, 127
4, 23280, Note_on_c, 6, 42, 0
4, 23280, Note_on_c, 6, 37, 0
4, 23280, Note_on_c, 6, 30, 0
4, 23280, Note_on_c, 6, 47, 127
4, 23280, Note_on_c, 6, 42, 127
4, 23280, Note_on_c, 6, 35, 127
4, 23400, Note_on_c, 6, 47, 0
4, 23400, Note_on_c, 6, 42, 0
4, 23400, Note_on_c, 6, 35, 0
4, 23400, Note_on_c, 6, 45, 127
4, 23400, Note_on_c, 6, 40, 127
4, 23400, Note_on_c, 6, 33, 127
4, 23580, Note_on_c, 6, 45, 0
4, 23580, Note_on_c, 6, 40, 0
4, 23580, Note_on_c, 6, 33, 0
4, 23580, Note_on_c, 6, 35, 127
4, 23580, Note_on_c, 6, 42, 127
4, 23580, Note_on_c, 6, 47, 127
4, 23640, Note_on_c, 6, 35, 0
4, 23640, Note_on_c, 6, 42, 0
4, 23640, Note_on_c, 6, 47, 0
4, 23640, Note_on_c, 6, 49, 127
4, 23640, Note_on_c, 6, 44, 127
4, 23640, Note_on_c, 6, 37, 127
4, 23700, Note_on_c, 6, 49, 0
4, 23700, Note_on_c, 6, 44, 0
4, 23700, Note_on_c, 6, 37, 0
4, 23700, Note_on_c, 6, 35, 127
4, 23700, Note_on_c, 6, 42, 127
4, 23700, Note_on_c, 6, 47, 127
4, 23760, Note_on_c, 6, 35, 0
4, 23760, Note_on_c, 6, 42, 0
4, 23760, Note_on_c, 6, 47, 0
4, 23760, Note_on_c, 6, 45, 127
4, 23760, Note_on_c, 6, 40, 127
4, 23760, Note_on_c, 6, 33, 127
4, 23880, Note_on_c, 6, 45, 0
4, 23880, Note_on_c, 6, 40, 0
4, 23880, Note_on_c, 6, 33, 0
4, 23880, Control_c, 6, 1, 0
4, 23880, Note_on_c, 6, 36, 127
4, 23881, Control_c, 6, 1, 7
4, 23882, Control_c, 6, 1, 13
4, 23883, Control_c, 6, 1, 20
4, 23884, Control_c, 6, 1, 26
4, 23885, Control_c, 6, 1, 32
4, 23886, Control_c, 6, 1, 39
4, 23887, Control_c, 6, 1, 45
4, 23888, Control_c, 6, 1, 52
4, 23889, Control_c, 6, 1, 58
4, 23890, Control_c, 6, 1, 64
4, 23999, Control_c, 6, 1, 0
4, 24000, Note_on_c, 6, 36, 0
4, 24000, Note_on_c, 6, 37, 127
4, 24120, Note_on_c, 6, 37, 0
4, 24120, Time_signature, 3, 2, 24, 8
4, 24120, Note_on_c, 6, 38, 127
4, 25560, Note_on_c, 6, 38, 0
4, 27000, Note_on_c, 6, 35, 127
4, 27060, Note_on_c, 6, 35, 0
4, 27060, Note_on_c, 6, 42, 127
4, 27120, Note_on_c, 6, 42, 0
4, 27120, Note_on_c, 6, 35, 127
4, 27180, Note_on_c, 6, 35, 0
4, 27180, Note_on_c, 6, 38, 127
4, 27360, Note_on_c, 6, 38, 0
4, 27360, Note_on_c, 6, 31, 127
4, 27420, Note_on_c, 6, 31, 0
4, 27420, Note_on_c, 6, 42, 127
4, 27480, Note_on_c, 6, 42, 0
4, 27480, Note_on_c, 6, 31, 127
4, 27540, Note_on_c, 6, 31, 0
4, 27540, Note_on_c, 6, 38, 127
4, 27720, Note_on_c, 6, 38, 0
4, 27720, Note_on_c, 6, 35, 127
4, 27780, Note_on_c, 6, 35, 0
4, 27780, Note_on_c, 6, 42, 127
4, 27840, Note_on_c, 6, 42, 0
4, 27840, Note_on_c, 6, 35, 127
4, 27900, Note_on_c, 6, 35, 0
4, 27900, Note_on_c, 6, 38, 127
4, 28080, Note_on_c, 6, 38, 0
4, 28080, Note_on_c, 6, 31, 127
4, 28140, Note_on_c, 6, 31, 0
4, 28140, Note_on_c, 6, 42, 127
4, 28200, Note_on_c, 6, 42, 0
4, 28200, Note_on_c, 6, 31, 127
4, 28260, Note_on_c, 6, 31, 0
4, 28260, Note_on_c, 6, 38, 127
4, 28315, Note_on_c, 6, 31, 75
4, 28320, Note_on_c, 6, 38, 0
4, 28320, Note_on_c, 6, 31, 0
4, 28320, Note_on_c, 6, 38, 127
4, 28320, Note_on_c, 6, 33, 127
4, 28440, Note_on_c, 6, 38, 0
4, 28440, Note_on_c, 6, 33, 0
4, 28440, Note_on_c, 6, 35, 127
4, 28500, Note_on_c, 6, 35, 0
4, 28500, Note_on_c, 6, 42, 127
4, 28560, Note_on_c, 6, 42, 0
4, 28560, Note_on_c, 6, 35, 127
4, 28620, Note_on_c, 6, 35, 0
4, 28620, Note_on_c, 6, 38, 127
4, 28800, Note_on_c, 6, 38, 0
4, 28800, Note_on_c, 6, 33, 127
4, 28860, Note_on_c, 6, 33, 0
4, 28860, Note_on_c, 6, 42, 127
4, 28920, Note_on_c, 6, 42, 0
4, 28920, Note_on_c, 6, 33, 127
4, 28980, Note_on_c, 6, 33, 0
4, 28980, Note_on_c, 6, 38, 127
4, 29160, Note_on_c, 6, 38, 0
4, 29160, Note_on_c, 6, 31, 127
4, 29220, Note_on_c, 6, 31, 0
4, 29220, Note_on_c, 6, 42, 127
4, 29280, Note_on_c, 6, 42, 0
4, 29280, Note_on_c, 6, 31, 127
4, 29340, Note_on_c, 6, 31, 0
4, 29340, Note_on_c, 6, 38, 127
4, 29520, Note_on_c, 6, 38, 0
4, 29520, Time_signature, 2, 2, 24, 8
4, 29520, Note_on_c, 6, 28, 127
4, 29580, Note_on_c, 6, 28, 0
4, 29580, Note_on_c, 6, 35, 127
4, 29610, Note_on_c, 6, 35, 0
4, 29640, Note_on_c, 6, 30, 127
4, 29700, Note_on_c, 6, 30, 0
4, 29700, Note_on_c, 6, 35, 127
4, 29730, Note_on_c, 6, 35, 0
4, 29760, Time_signature, 3, 2, 24, 8
4, 29760, Note_on_c, 6, 35, 127
4, 29820, Note_on_c, 6, 35, 0
4, 29820, Note_on_c, 6, 42, 127
4, 29880, Note_on_c, 6, 42, 0
4, 29880, Note_on_c, 6, 35, 127
4, 29940, Note_on_c, 6, 35, 0
4, 29940, Note_on_c, 6, 38, 127
4, 30120, Note_on_c, 6, 38, 0
4, 30120, Note_on_c, 6, 31, 127
4, 30180, Note_on_c, 6, 31, 0
4, 30180, Note_on_c, 6, 42, 127
4, 30240, Note_on_c, 6, 42, 0
4, 30240, Note_on_c, 6, 31, 127
4, 30300, Note_on_c, 6, 31, 0
4, 30300, Note_on_c, 6, 38, 127
4, 30480, Note_on_c, 6, 38, 0
4, 30480, Note_on_c, 6, 35, 127
4, 30540, Note_on_c, 6, 35, 0
4, 30540, Note_on_c, 6, 42, 127
4, 30600, Note_on_c, 6, 42, 0
4, 30600, Note_on_c, 6, 35, 127
4, 30660, Note_on_c, 6, 35, 0
4, 30660, Note_on_c, 6, 38, 127
4, 30840, Note_on_c, 6, 38, 0
4, 30840, Note_on_c, 6, 31, 127
4, 30900, Note_on_c, 6, 31, 0
4, 30900, Note_on_c, 6, 42, 127
4, 30960, Note_on_c, 6, 42, 0
4, 30960, Note_on_c, 6, 31, 127
4, 31020, Note_on_c, 6, 31, 0
4, 31020, Note_on_c, 6, 38, 127
4, 31075, Note_on_c, 6, 31, 75
4, 31080, Note_on_c, 6, 38, 0
4, 31080, Note_on_c, 6, 31, 0
4, 31080, Note_on_c, 6, 38, 127
4, 31080, Note_on_c, 6, 33, 127
4, 31200, Note_on_c, 6, 38, 0
4, 31200, Note_on_c, 6, 33, 0
4, 31200, Note_on_c, 6, 35, 127
4, 31260, Note_on_c, 6, 35, 0
4, 31260, Note_on_c, 6, 42, 127
4, 31320, Note_on_c, 6, 42, 0
4, 31320, Note_on_c, 6, 35, 127
4, 31380, Note_on_c, 6, 35, 0
4, 31380, Note_on_c, 6, 38, 127
4, 31560, Note_on_c, 6, 38, 0
4, 31560, Note_on_c, 6, 33, 127
4, 31620, Note_on_c, 6, 33, 0
4, 31620, Note_on_c, 6, 42, 127
4, 31680, Note_on_c, 6, 42, 0
4, 31680, Note_on_c, 6, 33, 127
4, 31740, Note_on_c, 6, 33, 0
4, 31740, Note_on_c, 6, 38, 127
4, 31920, Note_on_c, 6, 38, 0
4, 31920, Note_on_c, 6, 31, 127
4, 31980, Note_on_c, 6, 31, 0
4, 31980, Note_on_c, 6, 42, 127
4, 32040, Note_on_c, 6, 42, 0
4, 32040, Note_on_c, 6, 31, 127
4, 32100, Note_on_c, 6, 31, 0
4, 32100, Note_on_c, 6, 38, 127
4, 32280, Note_on_c, 6, 38, 0
4, 32280, Time_signature, 2, 2, 24, 8
4, 32280, Note_on_c, 6, 28, 127
4, 32340, Note_on_c, 6, 28, 0
4, 32340, Note_on_c, 6, 35, 127
4, 32370, Note_on_c, 6, 35, 0
4, 32400, Note_on_c, 6, 30, 127
4, 32460, Note_on_c, 6, 30, 0
4, 32460, Note_on_c, 6, 35, 127
4, 32490, Note_on_c, 6, 35, 0
4, 32520, Time_signature, 6, 2, 24, 8
4, 32520, Note_on_c, 6, 31, 127
4, 32520, Note_on_c, 6, 38, 127
4, 32520, Note_on_c, 6, 43, 127
4, 32700, Note_on_c, 6, 31, 0
4, 32700, Note_on_c, 6, 38, 0
4, 32700, Note_on_c, 6, 43, 0
4, 32700, Note_on_c, 6, 45, 127
4, 32700, Note_on_c, 6, 40, 127
4, 32700, Note_on_c, 6, 33, 127
4, 32760, Note_on_c, 6, 45, 0
4, 32760, Note_on_c, 6, 40, 0
4, 32760, Note_on_c, 6, 33, 0
4, 32760, Note_on_c, 6, 35, 127
4, 32760, Note_on_c, 6, 42, 127
4, 32760, Note_on_c, 6, 47, 127
4, 32820, Note_on_c, 6, 35, 0
4, 32820, Note_on_c, 6, 42, 0
4, 32820, Note_on_c, 6, 47, 0
4, 32820, Note_on_c, 6, 45, 127
4, 32820, Note_on_c, 6, 40, 127
4, 32820, Note_on_c, 6, 33, 127
4, 32880, Note_on_c, 6, 45, 0
4, 32880, Note_on_c, 6, 40, 0
4, 32880, Note_on_c, 6, 33, 0
4, 32880, Note_on_c, 6, 31, 127
4, 32880, Note_on_c, 6, 38, 127
4, 32880, Note_on_c, 6, 43, 127
4, 33000, Note_on_c, 6, 31, 0
4, 33000, Note_on_c, 6, 38, 0
4, 33000, Note_on_c, 6, 43, 0
4, 33000, Note_on_c, 6, 42, 127
4, 33000, Note_on_c, 6, 37, 127
4, 33000, Note_on_c, 6, 30, 127
4, 33120, Note_on_c, 6, 42, 0
4, 33120, Note_on_c, 6, 37, 0
4, 33120, Note_on_c, 6, 30, 0
4, 33120, Note_on_c, 6, 47, 127
4, 33120, Note_on_c, 6, 42, 127
4, 33120, Note_on_c, 6, 35, 127
4, 33240, Note_on_c, 6, 47, 0
4, 33240, Note_on_c, 6, 42, 0
4, 33240, Note_on_c, 6, 35, 0
4, 33240, Note_on_c, 6, 45, 127
4, 33240, Note_on_c, 6, 40, 127
4, 33240, Note_on_c, 6, 33, 127
4, 33420, Note_on_c, 6, 45, 0
4, 33420, Note_on_c, 6, 40, 0
4, 33420, Note_on_c, 6, 33, 0
4, 33420, Note_on_c, 6, 35, 127
4, 33420, Note_on_c, 6, 42, 127
4, 33420, Note_on_c, 6, 47, 127
4, 33480, Note_on_c, 6, 35, 0
4, 33480, Note_on_c, 6, 42, 0
4, 33480, Note_on_c, 6, 47, 0
4, 33480, Note_on_c, 6, 49, 127
4, 33480, Note_on_c, 6, 44, 127
4, 33480, Note_on_c, 6, 37, 127
4, 33540, Note_on_c, 6, 49, 0
4, 33540, Note_on_c, 6, 44, 0
4, 33540, Note_on_c, 6, 37, 0
4, 33540, Note_on_c, 6, 35, 127
4, 33540, Note_on_c, 6, 42, 127
4, 33540, Note_on_c, 6, 47, 127
4, 33600, Note_on_c, 6, 35, 0
4, 33600, Note_on_c, 6, 42, 0
4, 33600, Note_on_c, 6, 47, 0
4, 33600, Note_on_c, 6, 45, 127
4, 33600, Note_on_c, 6, 40, 127
4, 33600, Note_on_c, 6, 33, 127
4, 33720, Note_on_c, 6, 45, 0
4, 33720, Note_on_c, 6, 40, 0
4, 33720, Note_on_c, 6, 33, 0
4, 33720, Control_c, 6, 1, 0
4, 33720, Note_on_c, 6, 36, 127
4, 33721, Control_c, 6, 1, 7
4, 33722, Control_c, 6, 1, 13
4, 33723, Control_c, 6, 1, 20
4, 33724, Control_c, 6, 1, 26
4, 33725, Control_c, 6, 1, 32
4, 33726, Control_c, 6, 1, 39
4, 33727, Control_c, 6, 1, 45
4, 33728, Control_c, 6, 1, 52
4, 33729, Control_c, 6, 1, 58
4, 33730, Control_c, 6, 1, 64
4, 33839, Control_c, 6, 1, 0
4, 33840, Note_on_c, 6, 36, 0
4, 33840, Note_on_c, 6, 37, 127
4, 33960, Note_on_c, 6, 37, 0
4, 33960, Time_signature, 3, 2, 24, 8
4, 33960, Note_on_c, 6, 38, 127
4, 35280, Note_on_c, 6, 38, 0
4, 35280, Note_on_c, 6, 57, 127
4, 35310, Note_on_c, 6, 57, 0
4, 35310, Note_on_c, 6, 54, 127
4, 35340, Note_on_c, 6, 54, 0
4, 35340, Note_on_c, 6, 50, 127
4, 35370, Note_on_c, 6, 50, 0
4, 35370, Note_on_c, 6, 54, 127
4, 35400, Note_on_c, 6, 54, 0
4, 35400, Note_on_c, 6, 57, 127
4, 35520, Note_on_c, 6, 57, 0
4, 35520, Note_on_c, 6, 57, 127
4, 35580, Note_on_c, 6, 57, 0
4, 35580, Note_on_c, 6, 55, 127
4, 35640, Note_on_c, 6, 55, 0
4, 35640, Note_on_c, 6, 54, 127
4, 35700, Note_on_c, 6, 54, 0
4, 35700, Note_on_c, 6, 52, 127
4, 35760, Note_on_c, 6, 52, 0
4, 35760, Note_on_c, 6, 54, 127
4, 35820, Note_on_c, 6, 54, 0
4, 35820, Note_on_c, 6, 55, 127
4, 35850, Note_on_c, 6, 55, 0
4, 35850, Note_on_c, 6, 54, 127
4, 35880, Note_on_c, 6, 54, 0
4, 35880, Note_on_c, 6, 50, 127
4, 36120, Note_on_c, 6, 50, 0
4, 36120, Note_on_c, 6, 62, 127
4, 36180, Note_on_c, 6, 62, 0
4, 36180, Note_on_c, 6, 60, 127
4, 36240, Note_on_c, 6, 60, 0
4, 36240, Note_on_c, 6, 59, 127
4, 36300, Note_on_c, 6, 59, 0
4, 36300, Note_on_c, 6, 57, 127
4, 36360, Note_on_c, 6, 57, 0
4, 36360, Note_on_c, 6, 59, 127
4, 36420, Note_on_c, 6, 59, 0
4, 36420, Note_on_c, 6, 60, 127
4, 36480, Note_on_c, 6, 60, 0
4, 36480, Control_c, 6, 1, 0
4, 36480, Note_on_c, 6, 55, 127
4, 36481, Control_c, 6, 1, 7
4, 36482, Control_c, 6, 1, 13
4, 36483, Control_c, 6, 1, 20
4, 36484, Control_c, 6, 1, 26
4, 36485, Control_c, 6, 1, 32
4, 36486, Control_c, 6, 1, 39
4, 36487, Control_c, 6, 1, 45
4, 36488, Control_c, 6, 1, 52
4, 36489, Control_c, 6, 1, 58
4, 36490, Control_c, 6, 1, 64
4, 36719, Control_c, 6, 1, 0
4, 36720, Note_on_c, 6, 55, 0
4, 36720, Note_on_c, 6, 69, 127
4, 36750, Note_on_c, 6, 69, 0
4, 36750, Note_on_c, 6, 66, 127
4, 36780, Note_on_c, 6, 66, 0
4, 36780, Note_on_c, 6, 62, 127
4, 36810, Note_on_c, 6, 62, 0
4, 36810, Note_on_c, 6, 66, 127
4, 36840, Note_on_c, 6, 66, 0
4, 36840, Note_on_c, 6, 69, 127
4, 36960, Note_on_c, 6, 69, 0
4, 36960, Note_on_c, 6, 69, 127
4, 37020, Note_on_c, 6, 69, 0
4, 37020, Note_on_c, 6, 67, 127
4, 37080, Note_on_c, 6, 67, 0
4, 37080, Note_on_c, 6, 66, 127
4, 37140, Note_on_c, 6, 66, 0
4, 37140, Note_on_c, 6, 67, 127
4, 37170, Note_on_c, 6, 67, 0
4, 37170, Note_on_c, 6, 66, 127
4, 37200, Note_on_c, 6, 66, 0
4, 37200, Note_on_c, 6, 62, 127
4, 37320, Note_on_c, 6, 62, 0
4, 37320, Note_on_c, 6, 62, 127
4, 37380, Note_on_c, 6, 62, 0
4, 37380, Note_on_c, 6, 66, 127
4, 37440, Note_on_c, 6, 66, 0
4, 37440, Note_on_c, 6, 67, 127
4, 37500, Note_on_c, 6, 67, 0
4, 37500, Note_on_c, 6, 69, 127
4, 37560, Note_on_c, 6, 69, 0
4, 37560, Note_on_c, 6, 71, 127
4, 37580, Note_on_c, 6, 71, 0
4, 37580, Note_on_c, 6, 69, 127
4, 37600, Note_on_c, 6, 69, 0
4, 37600, Note_on_c, 6, 67, 127
4, 37620, Note_on_c, 6, 67, 0
4, 37620, Note_on_c, 6, 71, 127
4, 37640, Note_on_c, 6, 71, 0
4, 37640, Note_on_c, 6, 69, 127
4, 37660, Note_on_c, 6, 69, 0
4, 37660, Note_on_c, 6, 67, 127
4, 37680, Note_on_c, 6, 67, 0
4, 37680, Note_on_c, 6, 71, 127
4, 37700, Note_on_c, 6, 71, 0
4, 37700, Note_on_c, 6, 69, 127
4, 37720, Note_on_c, 6, 69, 0
4, 37720, Note_on_c, 6, 67, 127
4, 37740, Note_on_c, 6, 67, 0
4, 37740, Note_on_c, 6, 66, 127
4, 37770, Note_on_c, 6, 66, 0
4, 37770, Note_on_c, 6, 67, 127
4, 37800, Note_on_c, 6, 67, 0
4, 37800, Note_on_c, 6, 64, 127
4, 37830, Note_on_c, 6, 64, 0
4, 37830, Note_on_c, 6, 66, 127
4, 37860, Note_on_c, 6, 66, 0
4, 37860, Note_on_c, 6, 62, 127
4, 38160, Note_on_c, 6, 62, 0
4, 38280, Note_on_c, 6, 50, 127
4, 38280, Note_on_c, 6, 55, 127
4, 38400, Note_on_c, 6, 50, 0
4, 38400, Note_on_c, 6, 55, 0
4, 38400, Note_on_c, 6, 55, 127
4, 38400, Note_on_c, 6, 50, 127
4, 38460, Note_on_c, 6, 55, 0
4, 38460, Note_on_c, 6, 50, 0
4, 38460, Note_on_c, 6, 50, 127
4, 38460, Note_on_c, 6, 55, 127
4, 38520, Note_on_c, 6, 55, 0
4, 38520, Note_on_c, 6, 54, 127
4, 38580, Note_on_c, 6, 50, 0
4, 38580, Note_on_c, 6, 54, 0
4, 38580, Note_on_c, 6, 54, 127
4, 38580, Note_on_c, 6, 50, 127
4, 38640, Note_on_c, 6, 54, 0
4, 38640, Note_on_c, 6, 50, 0
4, 38640, Note_on_c, 6, 60, 127
4, 38640, Note_on_c, 6, 55, 127
4, 38700, Note_on_c, 6, 60, 0
4, 38700, Note_on_c, 6, 55, 0
4, 38700, Note_on_c, 6, 60, 127
4, 38700, Note_on_c, 6, 55, 127
4, 38760, Note_on_c, 6, 60, 0
4, 38760, Note_on_c, 6, 55, 0
4, 38760, Note_on_c, 6, 60, 127
4, 38760, Note_on_c, 6, 55, 127
4, 38820, Note_on_c, 6, 60, 0
4, 38820, Note_on_c, 6, 55, 0
4, 38820, Note_on_c, 6, 60, 127
4, 38820, Note_on_c, 6, 55, 127
4, 38880, Note_on_c, 6, 60, 0
4, 38880, Note_on_c, 6, 55, 0
4, 38880, Note_on_c, 6, 59, 127
4, 38880, Note_on_c, 6, 55, 127
4, 38940, Note_on_c, 6, 59, 0
4, 38940, Note_on_c, 6, 55, 0
4, 39000, Note_on_c, 6, 72, 127
4, 39020, Note_on_c, 6, 72, 0
4, 39020, Note_on_c, 6, 69, 127
4, 39040, Note_on_c, 6, 69, 0
4, 39040, Note_on_c, 6, 65, 127
4, 39060, Note_on_c, 6, 65, 0
4, 39060, Note_on_c, 6, 72, 127
4, 39080, Note_on_c, 6, 72, 0
4, 39080, Note_on_c, 6, 69, 127
4, 39100, Note_on_c, 6, 69, 0
4, 39100, Note_on_c, 6, 65, 127
4, 39120, Note_on_c, 6, 65, 0
4, 39120, Note_on_c, 6, 72, 127
4, 39140, Note_on_c, 6, 72, 0
4, 39140, Note_on_c, 6, 69, 127
4, 39160, Note_on_c, 6, 69, 0
4, 39160, Note_on_c, 6, 65, 127
4, 39180, Note_on_c, 6, 65, 0
4, 39180, Note_on_c, 6, 72, 127
4, 39200, Note_on_c, 6, 72, 0
4, 39200, Note_on_c, 6, 69, 127
4, 39220, Note_on_c, 6, 69, 0
4, 39220, Note_on_c, 6, 65, 127
4, 39240, Note_on_c, 6, 65, 0
4, 39240, Note_on_c, 6, 72, 127
4, 39260, Note_on_c, 6, 72, 0
4, 39260, Note_on_c, 6, 69, 127
4, 39280, Note_on_c, 6, 69, 0
4, 39280, Note_on_c, 6, 65, 127
4, 39300, Note_on_c, 6, 65, 0
4, 39300, Note_on_c, 6, 72, 127
4, 39320, Note_on_c, 6, 72, 0
4, 39320, Note_on_c, 6, 69, 127
4, 39340, Note_on_c, 6, 69, 0
4, 39340, Note_on_c, 6, 65, 127
4, 39355, Note_on_c, 6, 72, 75
4, 39360, Note_on_c, 6, 65, 0
4, 39360, Note_on_c, 6, 72, 0
4, 39360, Note_on_c, 6, 64, 127
4, 39390, Note_on_c, 6, 64, 0
4, 39390, Note_on_c, 6, 65, 127
4, 39420, Note_on_c, 6, 65, 0
4, 39420, Note_on_c, 6, 64, 127
4, 39475, Note_on_c, 6, 72, 75
4, 39480, Note_on_c, 6, 64, 0
4, 39480, Note_on_c, 6, 72, 0
4, 39480, Note_on_c, 6, 64, 127
4, 39510, Note_on_c, 6, 64, 0
4, 39510, Note_on_c, 6, 65, 127
4, 39540, Note_on_c, 6, 65, 0
4, 39540, Note_on_c, 6, 64, 127
4, 39720, Note_on_c, 6, 64, 0
4, 39720, Time_signature, 6, 2, 24, 8
4, 39720, Note_on_c, 6, 43, 127
4, 39720, Note_on_c, 6, 38, 127
4, 39720, Note_on_c, 6, 31, 127
4, 39900, Note_on_c, 6, 43, 0
4, 39900, Note_on_c, 6, 38, 0
4, 39900, Note_on_c, 6, 31, 0
4, 39900, Note_on_c, 6, 33, 127
4, 39900, Note_on_c, 6, 40, 127
4, 39900, Note_on_c, 6, 45, 127
4, 39960, Note_on_c, 6, 33, 0
4, 39960, Note_on_c, 6, 40, 0
4, 39960, Note_on_c, 6, 45, 0
4, 39960, Note_on_c, 6, 47, 127
4, 39960, Note_on_c, 6, 42, 127
4, 39960, Note_on_c, 6, 35, 127
4, 40020, Note_on_c, 6, 47, 0
4, 40020, Note_on_c, 6, 42, 0
4, 40020, Note_on_c, 6, 35, 0
4, 40020, Note_on_c, 6, 33, 127
4, 40020, Note_on_c, 6, 40, 127
4, 40020, Note_on_c, 6, 45, 127
4, 40080, Note_on_c, 6, 33, 0
4, 40080, Note_on_c, 6, 40, 0
4, 40080, Note_on_c, 6, 45, 0
4, 40080, Note_on_c, 6, 43, 127
4, 40080, Note_on_c, 6, 38, 127
4, 40080, Note_on_c, 6, 31, 127
4, 40200, Note_on_c, 6, 43, 0
4, 40200, Note_on_c, 6, 38, 0
4, 40200, Note_on_c, 6, 31, 0
4, 40200, Note_on_c, 6, 30, 127
4, 40200, Note_on_c, 6, 37, 127
4, 40200, Note_on_c, 6, 42, 127
4, 40320, Note_on_c, 6, 30, 0
4, 40320, Note_on_c, 6, 37, 0
4, 40320, Note_on_c, 6, 42, 0
4, 40320, Note_on_c, 6, 47, 127
4, 40320, Note_on_c, 6, 42, 127
4, 40320, Note_on_c, 6, 31, 127
4, 40440, Note_on_c, 6, 47, 0
4, 40440, Note_on_c, 6, 42, 0
4, 40440, Note_on_c, 6, 31, 0
4, 40440, Note_on_c, 6, 45, 127
4, 40440, Note_on_c, 6, 40, 127
4, 40440, Note_on_c, 6, 33, 127
4, 40620, Note_on_c, 6, 45, 0
4, 40620, Note_on_c, 6, 40, 0
4, 40620, Note_on_c, 6, 33, 0
4, 40620, Note_on_c, 6, 35, 127
4, 40620, Note_on_c, 6, 42, 127
4, 40620, Note_on_c, 6, 47, 127
4, 40680, Note_on_c, 6, 35, 0
4, 40680, Note_on_c, 6, 42, 0
4, 40680, Note_on_c, 6, 47, 0
4, 40680, Note_on_c, 6, 49, 127
4, 40680, Note_on_c, 6, 44, 127
4, 40680, Note_on_c, 6, 37, 127
4, 40740, Note_on_c, 6, 49, 0
4, 40740, Note_on_c, 6, 44, 0
4, 40740, Note_on_c, 6, 37, 0
4, 40740, Note_on_c, 6, 35, 127
4, 40740, Note_on_c, 6, 42, 127
4, 40740, Note_on_c, 6, 47, 127
4, 40800, Note_on_c, 6, 35, 0
4, 40800, Note_on_c, 6, 42, 0
4, 40800, Note_on_c, 6, 47, 0
4, 40800, Note_on_c, 6, 45, 127
4, 40800, Note_on_c, 6, 40, 127
4, 40800, Note_on_c, 6, 33, 127
4, 40920, Note_on_c, 6, 45, 0
4, 40920, Note_on_c, 6, 40, 0
4, 40920, Note_on_c, 6, 33, 0
4, 40920, Note_on_c, 6, 35, 127
4, 40920, Note_on_c, 6, 42, 127
4, 40920, Note_on_c, 6, 47, 127
4, 41040, Note_on_c, 6, 35, 0
4, 41040, Note_on_c, 6, 42, 0
4, 41040, Note_on_c, 6, 47, 0
4, 41040, Note_on_c, 6, 49, 127
4, 41040, Note_on_c, 6, 44, 127
4, 41040, Note_on_c, 6, 37, 127
4, 41160, Note_on_c, 6, 49, 0
4, 41160, Note_on_c, 6, 44, 0
4, 41160, Note_on_c, 6, 37, 0
4, 41160, Note_on_c, 6, 43, 127
4, 41160, Note_on_c, 6, 38, 127
4, 41160, Note_on_c, 6, 31, 127
4, 41340, Note_on_c, 6, 43, 0
4, 41340, Note_on_c, 6, 38, 0
4, 41340, Note_on_c, 6, 31, 0
4, 41340, Note_on_c, 6, 33, 127
4, 41340, Note_on_c, 6, 40, 127
4, 41340, Note_on_c, 6, 45, 127
4, 41400, Note_on_c, 6, 33, 0
4, 41400, Note_on_c, 6, 40, 0
4, 41400, Note_on_c, 6, 45, 0
4, 41400, Note_on_c, 6, 47, 127
4, 41400, Note_on_c, 6, 42, 127
4, 41400, Note_on_c, 6, 35, 127
4, 41460, Note_on_c, 6, 47, 0
4, 41460, Note_on_c, 6, 42, 0
4, 41460, Note_on_c, 6, 35, 0
4, 41460, Note_on_c, 6, 33, 127
4, 41460, Note_on_c, 6, 40, 127
4, 41460, Note_on_c, 6, 45, 127
4, 41520, Note_on_c, 6, 33, 0
4, 41520, Note_on_c, 6, 40, 0
4, 41520, Note_on_c, 6, 45, 0
4, 41520, Note_on_c, 6, 43, 127
4, 41520, Note_on_c, 6, 38, 127
4, 41520, Note_on_c, 6, 31, 127
4, 41640, Note_on_c, 6, 43, 0
4, 41640, Note_on_c, 6, 38, 0
4, 41640, Note_on_c, 6, 31, 0
4, 41640, Note_on_c, 6, 30, 127
4, 41640, Note_on_c, 6, 37, 127
4, 41640, Note_on_c, 6, 42, 127
4, 41760, Note_on_c, 6, 30, 0
4, 41760, Note_on_c, 6, 37, 0
4, 41760, Note_on_c, 6, 42, 0
4, 41760, Note_on_c, 6, 47, 127
4, 41760, Note_on_c, 6, 42, 127
4, 41760, Note_on_c, 6, 31, 127
4, 41880, Note_on_c, 6, 47, 0
4, 41880, Note_on_c, 6, 42, 0
4, 41880, Note_on_c, 6, 31, 0
4, 41880, Note_on_c, 6, 45, 127
4, 41880, Note_on_c, 6, 40, 127
4, 41880, Note_on_c, 6, 33, 127
4, 42060, Note_on_c, 6, 45, 0
4, 42060, Note_on_c, 6, 40, 0
4, 42060, Note_on_c, 6, 33, 0
4, 42060, Note_on_c, 6, 35, 127
4, 42060, Note_on_c, 6, 42, 127
4, 42060, Note_on_c, 6, 47, 127
4, 42120, Note_on_c, 6, 35, 0
4, 42120, Note_on_c, 6, 42, 0
4, 42120, Note_on_c, 6, 47, 0
4, 42120, Note_on_c, 6, 49, 127
4, 42120, Note_on_c, 6, 44, 127
4, 42120, Note_on_c, 6, 37, 127
4, 42180, Note_on_c, 6, 49, 0
4, 42180, Note_on_c, 6, 44, 0
4, 42180, Note_on_c, 6, 37, 0
4, 42180, Note_on_c, 6, 35, 127
4, 42180, Note_on_c, 6, 42, 127
4, 42180, Note_on_c, 6, 47, 127
4, 42240, Note_on_c, 6, 35, 0
4, 42240, Note_on_c, 6, 42, 0
4, 42240, Note_on_c, 6, 47, 0
4, 42240, Note_on_c, 6, 45, 127
4, 42240, Note_on_c, 6, 40, 127
4, 42240, Note_on_c, 6, 33, 127
4, 42360, Note_on_c, 6, 45, 0
4, 42360, Note_on_c, 6, 40, 0
4, 42360, Note_on_c, 6, 33, 0
4, 42360, Note_on_c, 6, 35, 127
4, 42360, Note_on_c, 6, 42, 127
4, 42360, Note_on_c, 6, 47, 127
4, 42480, Note_on_c, 6, 35, 0
4, 42480, Note_on_c, 6, 42, 0
4, 42480, Note_on_c, 6, 47, 0
4, 42480, Note_on_c, 6, 49, 127
4, 42480, Note_on_c, 6, 44, 127
4, 42480, Note_on_c, 6, 37, 127
4, 42600, Note_on_c, 6, 49, 0
4, 42600, Note_on_c, 6, 44, 0
4, 42600, Note_on_c, 6, 37, 0
4, 42600, Note_on_c, 6, 43, 127
4, 42600, Note_on_c, 6, 38, 127
4, 42600, Note_on_c, 6, 31, 127
4, 42780, Note_on_c, 6, 43, 0
4, 42780, Note_on_c, 6, 38, 0
4, 42780, Note_on_c, 6, 31, 0
4, 42780, Note_on_c, 6, 33, 127
4, 42780, Note_on_c, 6, 40, 127
4, 42780, Note_on_c, 6, 45, 127
4, 42840, Note_on_c, 6, 33, 0
4, 42840, Note_on_c, 6, 40, 0
4, 42840, Note_on_c, 6, 45, 0
4, 42840, Note_on_c, 6, 47, 127
4, 42840, Note_on_c, 6, 42, 127
4, 42840, Note_on_c, 6, 35, 127
4, 42900, Note_on_c, 6, 47, 0
4, 42900, Note_on_c, 6, 42, 0
4, 42900, Note_on_c, 6, 35, 0
4, 42900, Note_on_c, 6, 33, 127
4, 42900, Note_on_c, 6, 40, 127
4, 42900, Note_on_c, 6, 45, 127
4, 42960, Note_on_c, 6, 33, 0
4, 42960, Note_on_c, 6, 40, 0
4, 42960, Note_on_c, 6, 45, 0
4, 42960, Note_on_c, 6, 43, 127
4, 42960, Note_on_c, 6, 38, 127
4, 42960, Note_on_c, 6, 31, 127
4, 43080, Note_on_c, 6, 43, 0
4, 43080, Note_on_c, 6, 38, 0
4, 43080, Note_on_c, 6, 31, 0
4, 43080, Note_on_c, 6, 30, 127
4, 43080, Note_on_c, 6, 37, 127
4, 43080, Note_on_c, 6, 42, 127
4, 43200, Note_on_c, 6, 30, 0
4, 43200, Note_on_c, 6, 37, 0
4, 43200, Note_on_c, 6, 42, 0
4, 43200, Note_on_c, 6, 47, 127
4, 43200, Note_on_c, 6, 42, 127
4, 43200, Note_on_c, 6, 31, 127
4, 43320, Note_on_c, 6, 47, 0
4, 43320, Note_on_c, 6, 42, 0
4, 43320, Note_on_c, 6, 31, 0
4, 43320, Time_signature, 3, 2, 24, 8
4, 43320, Note_on_c, 6, 48, 127
4, 43320, Note_on_c, 6, 52, 127
4, 43500, Note_on_c, 6, 48, 0
4, 43500, Note_on_c, 6, 52, 0
4, 43500, Note_on_c, 6, 47, 127
4, 43500, Note_on_c, 6, 50, 127
4, 43560, Note_on_c, 6, 47, 0
4, 43560, Note_on_c, 6, 50, 0
4, 43560, Note_on_c, 6, 52, 127
4, 43560, Note_on_c, 6, 48, 127
4, 43620, Note_on_c, 6, 52, 0
4, 43620, Note_on_c, 6, 48, 0
4, 43620, Note_on_c, 6, 55, 127
4, 43620, Note_on_c, 6, 50, 127
4, 43680, Note_on_c, 6, 55, 0
4, 43680, Note_on_c, 6, 50, 0
4, 43680, Note_on_c, 6, 55, 127
4, 43680, Note_on_c, 6, 50, 127
4, 44040, Note_on_c, 6, 55, 0
4, 44040, Note_on_c, 6, 50, 0
4, 44040, Note_on_c, 6, 47, 127
4, 44040, Note_on_c, 6, 51, 127
4, 44040, Note_on_c, 6, 54, 127
4, 44280, Note_on_c, 6, 47, 0
4, 44280, Note_on_c, 6, 51, 0
4, 44280, Note_on_c, 6, 54, 0
4, 44280, Note_on_c, 6, 47, 127
4, 44280, Note_on_c, 6, 51, 127
4, 44280, Note_on_c, 6, 54, 127
4, 44400, Note_on_c, 6, 47, 0
4, 44400, Note_on_c, 6, 51, 0
4, 44400, Note_on_c, 6, 54, 0
4, 44400, Control_c, 6, 1, 0
4, 44400, Note_on_c, 6, 48, 127
4, 44400, Note_on_c, 6, 52, 127
4, 44400, Note_on_c, 6, 55, 127
4, 44401, Control_c, 6, 1, 7
4, 44402, Control_c, 6, 1, 13
4, 44403, Control_c, 6, 1, 20
4, 44404, Control_c, 6, 1, 26
4, 44405, Control_c, 6, 1, 32
4, 44406, Control_c, 6, 1, 39
4, 44407, Control_c, 6, 1, 45
4, 44408, Control_c, 6, 1, 52
4, 44409, Control_c, 6, 1, 58
4, 44410, Control_c, 6, 1, 64
4, 44759, Control_c, 6, 1, 0
4, 44760, Note_on_c, 6, 48, 0
4, 44760, Note_on_c, 6, 52, 0
4, 44760, Note_on_c, 6, 55, 0
4, 44760, Note_on_c, 6, 48, 127
4, 44760, Note_on_c, 6, 52, 127
4, 44940, Note_on_c, 6, 48, 0
4, 44940, Note_on_c, 6, 52, 0
4, 44940, Note_on_c, 6, 47, 127
4, 44940, Note_on_c, 6, 50, 127
4, 45000, Note_on_c, 6, 47, 0
4, 45000, Note_on_c, 6, 50, 0
4, 45000, Note_on_c, 6, 52, 127
4, 45000, Note_on_c, 6, 48, 127
4, 45060, Note_on_c, 6, 52, 0
4, 45060, Note_on_c, 6, 48, 0
4, 45060, Note_on_c, 6, 55, 127
4, 45060, Note_on_c, 6, 50, 127
4, 45120, Note_on_c, 6, 55, 0
4, 45120, Note_on_c, 6, 50, 0
4, 45120, Note_on_c, 6, 55, 127
4, 45120, Note_on_c, 6, 50, 127
4, 45480, Note_on_c, 6, 55, 0
4, 45480, Note_on_c, 6, 50, 0
4, 45480, Note_on_c, 6, 47, 127
4, 45480, Note_on_c, 6, 51, 127
4, 45480, Note_on_c, 6, 54, 127
4, 45720, Note_on_c, 6, 47, 0
4, 45720, Note_on_c, 6, 51, 0
4, 45720, Note_on_c, 6, 54, 0
4, 45720, Note_on_c, 6, 47, 127
4, 45720, Note_on_c, 6, 51, 127
4, 45720, Note_on_c, 6, 54, 127
4, 45840, Note_on_c, 6, 47, 0
4, 45840, Note_on_c, 6, 51, 0
4, 45840, Note_on_c, 6, 54, 0
4, 45840, Control_c, 6, 1, 0
4, 45840, Note_on_c, 6, 48, 127
4, 45840, Note_on_c, 6, 52, 127
4, 45840, Note_on_c, 6, 55, 127
4, 45841, Control_c, 6, 1, 7
4, 45842, Control_c, 6, 1, 13
4, 45843, Control_c, 6, 1, 20
4, 45844, Control_c, 6, 1, 26
4, 45845, Control_c, 6, 1, 32
4, 45846, Control_c, 6, 1, 39
4, 45847, Control_c, 6, 1, 45
4, 45848, Control_c, 6, 1, 52
4, 45849, Control_c, 6, 1, 58
4, 45850, Control_c, 6, 1, 64
4, 46199, Control_c, 6, 1, 0
4, 46200, Note_on_c, 6, 48, 0
4, 46200, Note_on_c, 6, 52, 0
4, 46200, Note_on_c, 6, 55, 0
4, 46200, Note_on_c, 6, 48, 127
4, 46200, Note_on_c, 6, 52, 127
4, 46380, Note_on_c, 6, 48, 0
4, 46380, Note_on_c, 6, 52, 0
4, 46380, Note_on_c, 6, 47, 127
4, 46380, Note_on_c, 6, 50, 127
4, 46440, Note_on_c, 6, 47, 0
4, 46440, Note_on_c, 6, 50, 0
4, 46440, Note_on_c, 6, 52, 127
4, 46440, Note_on_c, 6, 48, 127
4, 46500, Note_on_c, 6, 52, 0
4, 46500, Note_on_c, 6, 48, 0
4, 46500, Note_on_c, 6, 55, 127
4, 46500, Note_on_c, 6, 50, 127
4, 46560, Note_on_c, 6, 55, 0
4, 46560, Note_on_c, 6, 50, 0
4, 46560, Note_on_c, 6, 55, 127
4, 46560, Note_on_c, 6, 50, 127
4, 46920, Note_on_c, 6, 55, 0
4, 46920, Note_on_c, 6, 50, 0
4, 46920, Note_on_c, 6, 47, 127
4, 46920, Note_on_c, 6, 51, 127
4, 46920, Note_on_c, 6, 54, 127
4, 47160, Note_on_c, 6, 47, 0
4, 47160, Note_on_c, 6, 51, 0
4, 47160, Note_on_c, 6, 54, 0
4, 47160, Note_on_c, 6, 47, 127
4, 47160, Note_on_c, 6, 51, 127
4, 47160, Note_on_c, 6, 54, 127
4, 47280, Note_on_c, 6, 47, 0
4, 47280, Note_on_c, 6, 51, 0
4, 47280, Note_on_c, 6, 54, 0
4, 47280, Control_c, 6, 1, 0
4, 47280, Note_on_c, 6, 48, 127
4, 47280, Note_on_c, 6, 52, 127
4, 47280, Note_on_c, 6, 55, 127
4, 47281, Control_c, 6, 1, 7
4, 47282, Control_c, 6, 1, 13
4, 47283, Control_c, 6, 1, 20
4, 47284, Control_c, 6, 1, 26
4, 47285, Control_c, 6, 1, 32
4, 47286, Control_c, 6, 1, 39
4, 47287, Control_c, 6, 1, 45
4, 47288, Control_c, 6, 1, 52
4, 47289, Control_c, 6, 1, 58
4, 47290, Control_c, 6, 1, 64
4, 47639, Control_c, 6, 1, 0
4, 47640, Note_on_c, 6, 48, 0
4, 47640, Note_on_c, 6, 52, 0
4, 47640, Note_on_c, 6, 55, 0
4, 47640, Note_on_c, 6, 48, 127
4, 47640, Note_on_c, 6, 52, 127
4, 47820, Note_on_c, 6, 48, 0
4, 47820, Note_on_c, 6, 52, 0
4, 47820, Note_on_c, 6, 47, 127
4, 47820, Note_on_c, 6, 50, 127
4, 47880, Note_on_c, 6, 47, 0
4, 47880, Note_on_c, 6, 50, 0
4, 47880, Note_on_c, 6, 52, 127
4, 47880, Note_on_c, 6, 48, 127
4, 47940, Note_on_c, 6, 52, 0
4, 47940, Note_on_c, 6, 48, 0
4, 47940, Note_on_c, 6, 55, 127
4, 47940, Note_on_c, 6, 50, 127
4, 48000, Note_on_c, 6, 55, 0
4, 48000, Note_on_c, 6, 50, 0
4, 48000, Note_on_c, 6, 55, 127
4, 48000, Note_on_c, 6, 50, 127
4, 48360, Note_on_c, 6, 55, 0
4, 48360, Note_on_c, 6, 50, 0
4, 48360, Note_on_c, 6, 47, 127
4, 48360, Note_on_c, 6, 51, 127
4, 48360, Note_on_c, 6, 54, 127
4, 48600, Note_on_c, 6, 47, 0
4, 48600, Note_on_c, 6, 51, 0
4, 48600, Note_on_c, 6, 54, 0
4, 48600, Note_on_c, 6, 47, 127
4, 48600, Note_on_c, 6, 51, 127
4, 48600, Note_on_c, 6, 54, 127
4, 48720, Note_on_c, 6, 47, 0
4, 48720, Note_on_c, 6, 51, 0
4, 48720, Note_on_c, 6, 54, 0
4, 48720, Control_c, 6, 1, 0
4, 48720, Note_on_c, 6, 48, 127
4, 48720, Note_on_c, 6, 52, 127
4, 48720, Note_on_c, 6, 55, 127
4, 48721, Control_c, 6, 1, 7
4, 48722, Control_c, 6, 1, 13
4, 48723, Control_c, 6, 1, 20
4, 48724, Control_c, 6, 1, 26
4, 48725, Control_c, 6, 1, 32
4, 48726, Control_c, 6, 1, 39
4, 48727, Control_c, 6, 1, 45
4, 48728, Control_c, 6, 1, 52
4, 48729, Control_c, 6, 1, 58
4, 48730, Control_c, 6, 1, 64
4, 49079, Control_c, 6, 1, 0
4, 49080, Note_on_c, 6, 48, 0
4, 49080, Note_on_c, 6, 52, 0
4, 49080, Note_on_c, 6, 55, 0
4, 49080, Note_on_c, 6, 43, 127
4, 49080, Note_on_c, 6, 40, 127
4, 49140, Note_on_c, 6, 43, 0
4, 49140, Note_on_c, 6, 40, 0
4, 49140, Note_on_c, 6, 43, 127
4, 49140, Note_on_c, 6, 40, 127
4, 49200, Note_on_c, 6, 43, 0
4, 49200, Note_on_c, 6, 40, 0
4, 49200, Note_on_c, 6, 43, 127
4, 49200, Note_on_c, 6, 40, 127
4, 49260, Note_on_c, 6, 43, 0
4, 49260, Note_on_c, 6, 40, 0
4, 49260, Note_on_c, 6, 45, 127
4, 49260, Note_on_c, 6, 40, 127
4, 49320, Note_on_c, 6, 45, 0
4, 49320, Note_on_c, 6, 40, 0
4, 49320, Note_on_c, 6, 43, 127
4, 49320, Note_on_c, 6, 40, 127
4, 49380, Note_on_c, 6, 43, 0
4, 49380, Note_on_c, 6, 40, 0
4, 49380, Note_on_c, 6, 38, 127
4, 49440, Note_on_c, 6, 38, 0
4, 49440, Note_on_c, 6, 42, 127
4, 49440, Note_on_c, 6, 38, 127
4, 49500, Note_on_c, 6, 42, 0
4, 49500, Note_on_c, 6, 38, 0
4, 49500, Note_on_c, 6, 42, 127
4, 49500, Note_on_c, 6, 38, 127
4, 49560, Note_on_c, 6, 42, 0
4, 49560, Note_on_c, 6, 38, 0
4, 49560, Note_on_c, 6, 42, 127
4, 49560, Note_on_c, 6, 38, 127
4, 49620, Note_on_c, 6, 42, 0
4, 49620, Note_on_c, 6, 38, 0
4, 49620, Note_on_c, 6, 43, 127
4, 49620, Note_on_c, 6, 38, 127
4, 49680, Note_on_c, 6, 43, 0
4, 49680, Note_on_c, 6, 38, 0
4, 49680, Note_on_c, 6, 42, 127
4, 49680, Note_on_c, 6, 38, 127
4, 49800, Note_on_c, 6, 42, 0
4, 49800, Note_on_c, 6, 38, 0
4, 49800, Note_on_c, 6, 35, 127
4, 49800, Note_on_c, 6, 47, 127
4, 49800, Note_on_c, 6, 42, 127
4, 49980, Note_on_c, 6, 35, 0
4, 49980, Note_on_c, 6, 47, 0
4, 49980, Note_on_c, 6, 42, 0
4, 49980, Note_on_c, 6, 30, 127
4, 50040, Note_on_c, 6, 30, 0
4, 50040, Note_on_c, 6, 47, 127
4, 50040, Note_on_c, 6, 42, 127
4, 50040, Note_on_c, 6, 35, 127
4, 50100, Note_on_c, 6, 47, 0
4, 50100, Note_on_c, 6, 42, 0
4, 50100, Note_on_c, 6, 35, 0
4, 50100, Note_on_c, 6, 30, 127
4, 50160, Note_on_c, 6, 30, 0
4, 50160, Note_on_c, 6, 48, 127
4, 50160, Note_on_c, 6, 43, 127
4, 50160, Note_on_c, 6, 36, 127
4, 50220, Note_on_c, 6, 48, 0
4, 50220, Note_on_c, 6, 43, 0
4, 50220, Note_on_c, 6, 36, 0
4, 50220, Note_on_c, 6, 43, 127
4, 50220, Note_on_c, 6, 36, 127
4, 50250, Note_on_c, 6, 43, 0
4, 50250, Note_on_c, 6, 36, 0
4, 50250, Note_on_c, 6, 43, 127
4, 50250, Note_on_c, 6, 36, 127
4, 50280, Note_on_c, 6, 43, 0
4, 50280, Note_on_c, 6, 36, 0
4, 50280, Note_on_c, 6, 48, 127
4, 50280, Note_on_c, 6, 43, 127
4, 50280, Note_on_c, 6, 36, 127
4, 50340, Note_on_c, 6, 48, 0
4, 50340, Note_on_c, 6, 43, 0
4, 50340, Note_on_c, 6, 36, 0
4, 50340, Note_on_c, 6, 31, 127
4, 50400, Note_on_c, 6, 31, 0
4, 50400, Note_on_c, 6, 48, 127
4, 50400, Note_on_c, 6, 43, 127
4, 50400, Note_on_c, 6, 36, 127
4, 50460, Note_on_c, 6, 48, 0
4, 50460, Note_on_c, 6, 43, 0
4, 50460, Note_on_c, 6, 36, 0
4, 50460, Note_on_c, 6, 31, 127
4, 50520, Note_on_c, 6, 31, 0
4, 50520, Note_on_c, 6, 43, 127
4, 50520, Note_on_c, 6, 40, 127
4, 50580, Note_on_c, 6, 43, 0
4, 50580, Note_on_c, 6, 40, 0
4, 50580, Note_on_c, 6, 43, 127
4, 50580, Note_on_c, 6, 40, 127
4, 50640, Note_on_c, 6, 43, 0
4, 50640, Note_on_c, 6, 40, 0
4, 50640, Note_on_c, 6, 43, 127
4, 50640, Note_on_c, 6, 40, 127
4, 50700, Note_on_c, 6, 43, 0
4, 50700, Note_on_c, 6, 40, 0
4, 50700, Note_on_c, 6, 45, 127
4, 50700, Note_on_c, 6, 40, 127
4, 50760, Note_on_c, 6, 45, 0
4, 50760, Note_on_c, 6, 40, 0
4, 50760, Note_on_c, 6, 43, 127
4, 50760, Note_on_c, 6, 40, 127
4, 50820, Note_on_c, 6, 43, 0
4, 50820, Note_on_c, 6, 40, 0
4, 50820, Note_on_c, 6, 38, 127
4, 50880, Note_on_c, 6, 38, 0
4, 50880, Note_on_c, 6, 42, 127
4, 50880, Note_on_c, 6, 38, 127
4, 50940, Note_on_c, 6, 42, 0
4, 50940, Note_on_c, 6, 38, 0
4, 50940, Note_on_c, 6, 42, 127
4, 50940, Note_on_c, 6, 38, 127
4, 51000, Note_on_c, 6, 42, 0
4, 51000, Note_on_c, 6, 38, 0
4, 51000, Note_on_c, 6, 42, 127
4, 51000, Note_on_c, 6, 38, 127
4, 51060, Note_on_c, 6, 42, 0
4, 51060, Note_on_c, 6, 38, 0
4, 51060, Note_on_c, 6, 43, 127
4, 51060, Note_on_c, 6, 38, 127
4, 51120, Note_on_c, 6, 43, 0
4, 51120, Note_on_c, 6, 38, 0
4, 51120, Note_on_c, 6, 42, 127
4, 51120, Note_on_c, 6, 38, 127
4, 51240, Note_on_c, 6, 42, 0
4, 51240, Note_on_c, 6, 38, 0
4, 51240, Note_on_c, 6, 35, 127
4, 51240, Note_on_c, 6, 47, 127
4, 51240, Note_on_c, 6, 42, 127
4, 51420, Note_on_c, 6, 35, 0
4, 51420, Note_on_c, 6, 47, 0
4, 51420, Note_on_c, 6, 42, 0
4, 51420, Note_on_c, 6, 30, 127
4, 51480, Note_on_c, 6, 30, 0
4, 51480, Note_on_c, 6, 47, 127
4, 51480, Note_on_c, 6, 42, 127
4, 51480, Note_on_c, 6, 35, 127
4, 51540, Note_on_c, 6, 47, 0
4, 51540, Note_on_c, 6, 42, 0
4, 51540, Note_on_c, 6, 35, 0
4, 51540, Note_on_c, 6, 30, 127
4, 51600, Note_on_c, 6, 30, 0
4, 51600, Note_on_c, 6, 48, 127
4, 51600, Note_on_c, 6, 43, 127
4, 51600, Note_on_c, 6, 36, 127
4, 51660, Note_on_c, 6, 48, 0
4, 51660, Note_on_c, 6, 43, 0
4, 51660, Note_on_c, 6, 36, 0
4, 51660, Note_on_c, 6, 43, 127
4, 51660, Note_on_c, 6, 36, 127
4, 51690, Note_on_c, 6, 43, 0
4, 51690, Note_on_c, 6, 36, 0
4, 51690, Note_on_c, 6, 43, 127
4, 51690, Note_on_c, 6, 36, 127
4, 51720, Note_on_c, 6, 43, 0
4, 51720, Note_on_c, 6, 36, 0
4, 51720, Note_on_c, 6, 48, 127
4, 51720, Note_on_c, 6, 43, 127
4, 51720, Note_on_c, 6, 36, 127
4, 51780, Note_on_c, 6, 48, 0
4, 51780, Note_on_c, 6, 43, 0
4, 51780, Note_on_c, 6, 36, 0
4, 51780, Note_on_c, 6, 31, 127
4, 51840, Note_on_c, 6, 31, 0
4, 51840, Note_on_c, 6, 48, 127
4, 51840, Note_on_c, 6, 43, 127
4, 51840, Note_on_c, 6, 36, 127
4, 51900, Note_on_c, 6, 48, 0
4, 51900, Note_on_c, 6, 43, 0
4, 51900, Note_on_c, 6, 36, 0
4, 51900, Note_on_c, 6, 31, 127
4, 51960, Note_on_c, 6, 31, 0
4, 51960, Time_signature, 4, 2, 24, 8
4, 51960, Note_on_c, 6, 28, 127
4, 51960, Note_on_c, 6, 40, 127
4, 51960, Note_on_c, 6, 43, 127
4, 52920, Note_on_c, 6, 28, 0
4, 52920, Note_on_c, 6, 40, 0
4, 52920, Note_on_c, 6, 43, 0
4, 52920, Note_on_c, 6, 28, 127
4, 52940, Note_on_c, 6, 28, 0
4, 52940, Note_on_c, 6, 28, 127
4, 52960, Note_on_c, 6, 28, 0
4, 52960, Note_on_c, 6, 28, 127
4, 52980, Note_on_c, 6, 28, 0
4, 52980, Note_on_c, 6, 28, 127
4, 53000, Note_on_c, 6, 28, 0
4, 53000, Note_on_c, 6, 28, 127
4, 53020, Note_on_c, 6, 28, 0
4, 53020, Note_on_c, 6, 28, 127
4, 53040, Note_on_c, 6, 28, 0
4, 53040, Note_on_c, 6, 40, 127
4, 53040, Note_on_c, 6, 35, 127
4, 53040, Note_on_c, 6, 28, 127
4, 53100, Note_on_c, 6, 40, 0
4, 53100, Note_on_c, 6, 35, 0
4, 53100, Note_on_c, 6, 28, 0
4, 53160, Note_on_c, 6, 28, 127
4, 53180, Note_on_c, 6, 28, 0
4, 53180, Note_on_c, 6, 28, 127
4, 53200, Note_on_c, 6, 28, 0
4, 53200, Note_on_c, 6, 28, 127
4, 53220, Note_on_c, 6, 28, 0
4, 53220, Note_on_c, 6, 28, 127
4, 53240, Note_on_c, 6, 28, 0
4, 53240, Note_on_c, 6, 28, 127
4, 53260, Note_on_c, 6, 28, 0
4, 53260, Note_on_c, 6, 28, 127
4, 53280, Note_on_c, 6, 28, 0
4, 53280, Note_on_c, 6, 40, 127
4, 53280, Note_on_c, 6, 35, 127
4, 53280, Note_on_c, 6, 28, 127
4, 53340, Note_on_c, 6, 40, 0
4, 53340, Note_on_c, 6, 35, 0
4, 53340, Note_on_c, 6, 28, 0
4, 53400, Note_on_c, 6, 28, 127
4, 53420, Note_on_c, 6, 28, 0
4, 53420, Note_on_c, 6, 28, 127
4, 53440, Note_on_c, 6, 28, 0
4, 53440, Note_on_c, 6, 28, 127
4, 53460, Note_on_c, 6, 28, 0
4, 53460, Note_on_c, 6, 28, 127
4, 53480, Note_on_c, 6, 28, 0
4, 53480, Note_on_c, 6, 28, 127
4, 53500, Note_on_c, 6, 28, 0
4, 53500, Note_on_c, 6, 28, 127
4, 53520, Note_on_c, 6, 28, 0
4, 53520, Note_on_c, 6, 40, 127
4, 53520, Note_on_c, 6, 35, 127
4, 53520, Note_on_c, 6, 28, 127
4, 53580, Note_on_c, 6, 40, 0
4, 53580, Note_on_c, 6, 35, 0
4, 53580, Note_on_c, 6, 28, 0
4, 53640, Note_on_c, 6, 28, 127
4, 53660, Note_on_c, 6, 28, 0
4, 53660, Note_on_c, 6, 28, 127
4, 53680, Note_on_c, 6, 28, 0
4, 53680, Note_on_c, 6, 28, 127
4, 53700, Note_on_c, 6, 28, 0
4, 53700, Note_on_c, 6, 28, 127
4, 53720, Note_on_c, 6, 28, 0
4, 53720, Note_on_c, 6, 28, 127
4, 53740, Note_on_c, 6, 28, 0
4, 53740, Note_on_c, 6, 28, 127
4, 53760, Note_on_c, 6, 28, 0
4, 53760, Note_on_c, 6, 40, 127
4, 53760, Note_on_c, 6, 35, 127
4, 53760, Note_on_c, 6, 28, 127
4, 53820, Note_on_c, 6, 40, 0
4, 53820, Note_on_c, 6, 35, 0
4, 53820, Note_on_c, 6, 28, 0
4, 53880, Note_on_c, 6, 28, 127
4, 53900, Note_on_c, 6, 28, 0
4, 53900, Note_on_c, 6, 28, 127
4, 53920, Note_on_c, 6, 28, 0
4, 53920, Note_on_c, 6, 28, 127
4, 53940, Note_on_c, 6, 28, 0
4, 53940, Note_on_c, 6, 28, 127
4, 53960, Note_on_c, 6, 28, 0
4, 53960, Note_on_c, 6, 28, 127
4, 53980, Note_on_c, 6, 28, 0
4, 53980, Note_on_c, 6, 28, 127
4, 54000, Note_on_c, 6, 28, 0
4, 54000, Note_on_c, 6, 40, 127
4, 54000, Note_on_c, 6, 35, 127
4, 54000, Note_on_c, 6, 28, 127
4, 54120, Note_on_c, 6, 40, 0
4, 54120, Note_on_c, 6, 35, 0
4, 54120, Note_on_c, 6, 28, 0
4, 54120, Note_on_c, 6, 28, 127
4, 54140, Note_on_c, 6, 28, 0
4, 54140, Note_on_c, 6, 28, 127
4, 54160, Note_on_c, 6, 28, 0
4, 54160, Note_on_c, 6, 28, 127
4, 54180, Note_on_c, 6, 28, 0
4, 54180, Note_on_c, 6, 28, 127
4, 54200, Note_on_c, 6, 28, 0
4, 54200, Note_on_c, 6, 28, 127
4, 54220, Note_on_c, 6, 28, 0
4, 54220, Note_on_c, 6, 28, 127
4, 54240, Note_on_c, 6, 28, 0
4, 54240, Note_on_c, 6, 40, 127
4, 54240, Note_on_c, 6, 35, 127
4, 54240, Note_on_c, 6, 28, 127
4, 54300, Note_on_c, 6, 40, 0
4, 54300, Note_on_c, 6, 35, 0
4, 54300, Note_on_c, 6, 28, 0
4, 54360, Note_on_c, 6, 28, 127
4, 54380, Note_on_c, 6, 28, 0
4, 54380, Note_on_c, 6, 28, 127
4, 54400, Note_on_c, 6, 28, 0
4, 54400, Note_on_c, 6, 28, 127
4, 54420, Note_on_c, 6, 28, 0
4, 54420, Note_on_c, 6, 28, 127
4, 54440, Note_on_c, 6, 28, 0
4, 54440, Note_on_c, 6, 28, 127
4, 54460, Note_on_c, 6, 28, 0
4, 54460, Note_on_c, 6, 28, 127
4, 54480, Note_on_c, 6, 28, 0
4, 54480, Note_on_c, 6, 40, 127
4, 54480, Note_on_c, 6, 35, 127
4, 54480, Note_on_c, 6, 28, 127
4, 54600, Note_on_c, 6, 40, 0
4, 54600, Note_on_c, 6, 35, 0
4, 54600, Note_on_c, 6, 28, 0
4, 54600, Note_on_c, 6, 28, 127
4, 54620, Note_on_c, 6, 28, 0
4, 54620, Note_on_c, 6, 28, 127
4, 54640, Note_on_c, 6, 28, 0
4, 54640, Note_on_c, 6, 28, 127
4, 54660, Note_on_c, 6, 28, 0
4, 54660, Note_on_c, 6, 28, 127
4, 54680, Note_on_c, 6, 28, 0
4, 54680, Note_on_c, 6, 28, 127
4, 54700, Note_on_c, 6, 28, 0
4, 54700, Note_on_c, 6, 28, 127
4, 54720, Note_on_c, 6, 28, 0
4, 54720, Note_on_c, 6, 40, 127
4, 54720, Note_on_c, 6, 35, 127
4, 54780, Note_on_c, 6, 40, 0
4, 54780, Note_on_c, 6, 35, 0
4, 54780, Note_on_c, 6, 36, 127
4, 54780, Note_on_c, 6, 41, 127
4, 54840, Note_on_c, 6, 36, 0
4, 54840, Note_on_c, 6, 41, 0
4, 54840, Note_on_c, 6, 28, 127
4, 54860, Note_on_c, 6, 28, 0
4, 54860, Note_on_c, 6, 28, 127
4, 54880, Note_on_c, 6, 28, 0
4, 54880, Note_on_c, 6, 28, 127
4, 54900, Note_on_c, 6, 28, 0
4, 54900, Note_on_c, 6, 28, 127
4, 54920, Note_on_c, 6, 28, 0
4, 54920, Note_on_c, 6, 28, 127
4, 54940, Note_on_c, 6, 28, 0
4, 54940, Note_on_c, 6, 28, 127
4, 54960, Note_on_c, 6, 28, 0
4, 54960, Note_on_c, 6, 40, 127
4, 54960, Note_on_c, 6, 35, 127
4, 54960, Note_on_c, 6, 28, 127
4, 55080, Note_on_c, 6, 40, 0
4, 55080, Note_on_c, 6, 35, 0
4, 55080, Note_on_c, 6, 28, 0
4, 55080, Note_on_c, 6, 28, 127
4, 55100, Note_on_c, 6, 28, 0
4, 55100, Note_on_c, 6, 28, 127
4, 55120, Note_on_c, 6, 28, 0
4, 55120, Note_on_c, 6, 28, 127
4, 55140, Note_on_c, 6, 28, 0
4, 55140, Note_on_c, 6, 28, 127
4, 55160, Note_on_c, 6, 28, 0
4, 55160, Note_on_c, 6, 28, 127
4, 55180, Note_on_c, 6, 28, 0
4, 55180, Note_on_c, 6, 28, 127
4, 55200, Note_on_c, 6, 28, 0
4, 55200, Note_on_c, 6, 40, 127
4, 55200, Note_on_c, 6, 35, 127
4, 55260, Note_on_c, 6, 40, 0
4, 55260, Note_on_c, 6, 35, 0
4, 55260, Note_on_c, 6, 36, 127
4, 55260, Note_on_c, 6, 41, 127
4, 55320, Note_on_c, 6, 36, 0
4, 55320, Note_on_c, 6, 41, 0
4, 55320, Note_on_c, 6, 28, 127
4, 55340, Note_on_c, 6, 28, 0
4, 55340, Note_on_c, 6, 28, 127
4, 55360, Note_on_c, 6, 28, 0
4, 55360, Note_on_c, 6, 28, 127
4, 55380, Note_on_c, 6, 28, 0
4, 55380, Note_on_c, 6, 28, 127
4, 55400, Note_on_c, 6, 28, 0
4, 55400, Note_on_c, 6, 28, 127
4, 55420, Note_on_c, 6, 28, 0
4, 55420, Note_on_c, 6, 28, 127
4, 55440, Note_on_c, 6, 28, 0
4, 55440, Note_on_c, 6, 40, 127
4, 55440, Note_on_c, 6, 35, 127
4, 55440, Note_on_c, 6, 28, 127
4, 55560, Note_on_c, 6, 40, 0
4, 55560, Note_on_c, 6, 35, 0
4, 55560, Note_on_c, 6, 28, 0
4, 55560, Note_on_c, 6, 28, 127
4, 55580, Note_on_c, 6, 28, 0
4, 55580, Note_on_c, 6, 28, 127
4, 55600, Note_on_c, 6, 28, 0
4, 55600, Note_on_c, 6, 28, 127
4, 55620, Note_on_c, 6, 28, 0
4, 55620, Note_on_c, 6, 28, 127
4, 55640, Note_on_c, 6, 28, 0
4, 55640, Note_on_c, 6, 28, 127
4, 55660, Note_on_c, 6, 28, 0
4, 55660, Note_on_c, 6, 28, 127
4, 55680, Note_on_c, 6, 28, 0
4, 55680, Note_on_c, 6, 40, 127
4, 55680, Note_on_c, 6, 35, 127
4, 55740, Note_on_c, 6, 40, 0
4, 55740, Note_on_c, 6, 35, 0
4, 55740, Note_on_c, 6, 36, 127
4, 55740, Note_on_c, 6, 41, 127
4, 55800, Note_on_c, 6, 36, 0
4, 55800, Note_on_c, 6, 41, 0
4, 55800, Note_on_c, 6, 28, 127
4, 55820, Note_on_c, 6, 28, 0
4, 55820, Note_on_c, 6, 28, 127
4, 55840, Note_on_c, 6, 28, 0
4, 55840, Note_on_c, 6, 28, 127
4, 55860, Note_on_c, 6, 28, 0
4, 55860, Note_on_c, 6, 28, 127
4, 55880, Note_on_c, 6, 28, 0
4, 55880, Note_on_c, 6, 28, 127
4, 55900, Note_on_c, 6, 28, 0
4, 55900, Note_on_c, 6, 28, 127
4, 55920, Note_on_c, 6, 28, 0
4, 55920, Note_on_c, 6, 40, 127
4, 55920, Note_on_c, 6, 35, 127
4, 55920, Note_on_c, 6, 28, 127
4, 56040, Note_on_c, 6, 40, 0
4, 56040, Note_on_c, 6, 35, 0
4, 56040, Note_on_c, 6, 28, 0
4, 56040, Note_on_c, 6, 28, 127
4, 56060, Note_on_c, 6, 28, 0
4, 56060, Note_on_c, 6, 28, 127
4, 56080, Note_on_c, 6, 28, 0
4, 56080, Note_on_c, 6, 28, 127
4, 56100, Note_on_c, 6, 28, 0
4, 56100, Note_on_c, 6, 28, 127
4, 56120, Note_on_c, 6, 28, 0
4, 56120, Note_on_c, 6, 28, 127
4, 56140, Note_on_c, 6, 28, 0
4, 56140, Note_on_c, 6, 28, 127
4, 56160, Note_on_c, 6, 28, 0
4, 56160, Note_on_c, 6, 40, 127
4, 56160, Note_on_c, 6, 35, 127
4, 56220, Note_on_c, 6, 40, 0
4, 56220, Note_on_c, 6, 35, 0
4, 56220, Note_on_c, 6, 36, 127
4, 56220, Note_on_c, 6, 41, 127
4, 56280, Note_on_c, 6, 36, 0
4, 56280, Note_on_c, 6, 41, 0
4, 56280, Note_on_c, 6, 28, 127
4, 56300, Note_on_c, 6, 28, 0
4, 56300, Note_on_c, 6, 28, 127
4, 56320, Note_on_c, 6, 28, 0
4, 56320, Note_on_c, 6, 28, 127
4, 56340, Note_on_c, 6, 28, 0
4, 56340, Note_on_c, 6, 28, 127
4, 56360, Note_on_c, 6, 28, 0
4, 56360, Note_on_c, 6, 28, 127
4, 56380, Note_on_c, 6, 28, 0
4, 56380, Note_on_c, 6, 28, 127
4, 56400, Note_on_c, 6, 28, 0
4, 56400, Note_on_c, 6, 40, 127
4, 56400, Note_on_c, 6, 35, 127
4, 56400, Note_on_c, 6, 28, 127
4, 56520, Note_on_c, 6, 40, 0
4, 56520, Note_on_c, 6, 35, 0
4, 56520, Note_on_c, 6, 28, 0
4, 56520, Note_on_c, 6, 28, 127
4, 56540, Note_on_c, 6, 28, 0
4, 56540, Note_on_c, 6, 28, 127
4, 56560, Note_on_c, 6, 28, 0
4, 56560, Note_on_c, 6, 28, 127
4, 56580, Note_on_c, 6, 28, 0
4, 56580, Note_on_c, 6, 28, 127
4, 56600, Note_on_c, 6, 28, 0
4, 56600, Note_on_c, 6, 28, 127
4, 56620, Note_on_c, 6, 28, 0
4, 56620, Note_on_c, 6, 28, 127
4, 56640, Note_on_c, 6, 28, 0
4, 56640, Note_on_c, 6, 40, 127
4, 56640, Note_on_c, 6, 35, 127
4, 56700, Note_on_c, 6, 40, 0
4, 56700, Note_on_c, 6, 35, 0
4, 56700, Note_on_c, 6, 36, 127
4, 56700, Note_on_c, 6, 41, 127
4, 56760, Note_on_c, 6, 36, 0
4, 56760, Note_on_c, 6, 41, 0
4, 56760, Note_on_c, 6, 28, 127
4, 56780, Note_on_c, 6, 28, 0
4, 56780, Note_on_c, 6, 28, 127
4, 56800, Note_on_c, 6, 28, 0
4, 56800, Note_on_c, 6, 28, 127
4, 56820, Note_on_c, 6, 28, 0
4, 56820, Note_on_c, 6, 28, 127
4, 56840, Note_on_c, 6, 28, 0
4, 56840, Note_on_c, 6, 28, 127
4, 56860, Note_on_c, 6, 28, 0
4, 56860, Note_on_c, 6, 28, 127
4, 56880, Note_on_c, 6, 28, 0
4, 56880, Note_on_c, 6, 40, 127
4, 56880, Note_on_c, 6, 35, 127
4, 56940, Note_on_c, 6, 40, 0
4, 56940, Note_on_c, 6, 35, 0
4, 57000, Note_on_c, 6, 28, 127
4, 57020, Note_on_c, 6, 28, 0
4, 57020, Note_on_c, 6, 28, 127
4, 57040, Note_on_c, 6, 28, 0
4, 57040, Note_on_c, 6, 28, 127
4, 57060, Note_on_c, 6, 28, 0
4, 57060, Note_on_c, 6, 28, 127
4, 57080, Note_on_c, 6, 28, 0
4, 57080, Note_on_c, 6, 28, 127
4, 57100, Note_on_c, 6, 28, 0
4, 57100, Note_on_c, 6, 28, 127
4, 57120, Note_on_c, 6, 28, 0
4, 57120, Note_on_c, 6, 40, 127
4, 57120, Note_on_c, 6, 35, 127
4, 57180, Note_on_c, 6, 40, 0
4, 57180, Note_on_c, 6, 35, 0
4, 57240, Note_on_c, 6, 28, 127
4, 57260, Note_on_c, 6, 28, 0
4, 57260, Note_on_c, 6, 28, 127
4, 57280, Note_on_c, 6, 28, 0
4, 57280, Note_on_c, 6, 28, 127
4, 57300, Note_on_c, 6, 28, 0
4, 57300, Note_on_c, 6, 28, 127
4, 57320, Note_on_c, 6, 28, 0
4, 57320, Note_on_c, 6, 28, 127
4, 57340, Note_on_c, 6, 28, 0
4, 57340, Note_on_c, 6, 28, 127
4, 57360, Note_on_c, 6, 28, 0
4, 57360, Note_on_c, 6, 40, 127
4, 57360, Note_on_c, 6, 35, 127
4, 57420, Note_on_c, 6, 40, 0
4, 57420, Note_on_c, 6, 35, 0
4, 57480, Note_on_c, 6, 28, 127
4, 57500, Note_on_c, 6, 28, 0
4, 57500, Note_on_c, 6, 28, 127
4, 57520, Note_on_c, 6, 28, 0
4, 57520, Note_on_c, 6, 28, 127
4, 57540, Note_on_c, 6, 28, 0
4, 57540, Note_on_c, 6, 28, 127
4, 57560, Note_on_c, 6, 28, 0
4, 57560, Note_on_c, 6, 28, 127
4, 57580, Note_on_c, 6, 28, 0
4, 57580, Note_on_c, 6, 28, 127
4, 57600, Note_on_c, 6, 28, 0
4, 57600, Note_on_c, 6, 40, 127
4, 57600, Note_on_c, 6, 35, 127
4, 57660, Note_on_c, 6, 40, 0
4, 57660, Note_on_c, 6, 35, 0
4, 57660, Note_on_c, 6, 36, 127
4, 57660, Note_on_c, 6, 41, 127
4, 57720, Note_on_c, 6, 36, 0
4, 57720, Note_on_c, 6, 41, 0
4, 57720, Note_on_c, 6, 28, 127
4, 57740, Note_on_c, 6, 28, 0
4, 57740, Note_on_c, 6, 28, 127
4, 57760, Note_on_c, 6, 28, 0
4, 57760, Note_on_c, 6, 28, 127
4, 57780, Note_on_c, 6, 28, 0
4, 57780, Note_on_c, 6, 28, 127
4, 57800, Note_on_c, 6, 28, 0
4, 57800, Note_on_c, 6, 28, 127
4, 57820, Note_on_c, 6, 28, 0
4, 57820, Note_on_c, 6, 28, 127
4, 57840, Note_on_c, 6, 28, 0
4, 57840, Note_on_c, 6, 40, 127
4, 57840, Note_on_c, 6, 35, 127
4, 57900, Note_on_c, 6, 40, 0
4, 57900, Note_on_c, 6, 35, 0
4, 57960, Note_on_c, 6, 28, 127
4, 57980, Note_on_c, 6, 28, 0
4, 57980, Note_on_c, 6, 28, 127
4, 58000, Note_on_c, 6, 28, 0
4, 58000, Note_on_c, 6, 28, 127
4, 58020, Note_on_c, 6, 28, 0
4, 58020, Note_on_c, 6, 28, 127
4, 58040, Note_on_c, 6, 28, 0
4, 58040, Note_on_c, 6, 28, 127
4, 58060, Note_on_c, 6, 28, 0
4, 58060, Note_on_c, 6, 28, 127
4, 58080, Note_on_c, 6, 28, 0
4, 58080, Note_on_c, 6, 40, 127
4, 58080, Note_on_c, 6, 35, 127
4, 58140, Note_on_c, 6, 40, 0
4, 58140, Note_on_c, 6, 35, 0
4, 58200, Note_on_c, 6, 28, 127
4, 58220, Note_on_c, 6, 28, 0
4, 58220, Note_on_c, 6, 28, 127
4, 58240, Note_on_c, 6, 28, 0
4, 58240, Note_on_c, 6, 28, 127
4, 58260, Note_on_c, 6, 28, 0
4, 58260, Note_on_c, 6, 28, 127
4, 58280, Note_on_c, 6, 28, 0
4, 58280, Note_on_c, 6, 28, 127
4, 58300, Note_on_c, 6, 28, 0
4, 58300, Note_on_c, 6, 28, 127
4, 58320, Note_on_c, 6, 28, 0
4, 58320, Note_on_c, 6, 40, 127
4, 58320, Note_on_c, 6, 35, 127
4, 58380, Note_on_c, 6, 40, 0
4, 58380, Note_on_c, 6, 35, 0
4, 58440, Note_on_c, 6, 28, 127
4, 58460, Note_on_c, 6, 28, 0
4, 58460, Note_on_c, 6, 28, 127
4, 58480, Note_on_c, 6, 28, 0
4, 58480, Note_on_c, 6, 28, 127
4, 58500, Note_on_c, 6, 28, 0
4, 58500, Note_on_c, 6, 28, 127
4, 58520, Note_on_c, 6, 28, 0
4, 58520, Note_on_c, 6, 28, 127
4, 58540, Note_on_c, 6, 28, 0
4, 58540, Note_on_c, 6, 28, 127
4, 58560, Note_on_c, 6, 28, 0
4, 58560, Note_on_c, 6, 40, 127
4, 58560, Note_on_c, 6, 35, 127
4, 58620, Note_on_c, 6, 40, 0
4, 58620, Note_on_c, 6, 35, 0
4, 58620, Note_on_c, 6, 36, 127
4, 58620, Note_on_c, 6, 41, 127
4, 58680, Note_on_c, 6, 36, 0
4, 58680, Note_on_c, 6, 41, 0
4, 58680, Note_on_c, 6, 28, 127
4, 58700, Note_on_c, 6, 28, 0
4, 58700, Note_on_c, 6, 28, 127
4, 58720, Note_on_c, 6, 28, 0
4, 58720, Note_on_c, 6, 28, 127
4, 58740, Note_on_c, 6, 28, 0
4, 58740, Note_on_c, 6, 28, 127
4, 58760, Note_on_c, 6, 28, 0
4, 58760, Note_on_c, 6, 28, 127
4, 58780, Note_on_c, 6, 28, 0
4, 58780, Note_on_c, 6, 28, 127
4, 58800, Note_on_c, 6, 28, 0
4, 58800, Control_c, 6, 1, 0
4, 58800, Note_on_c, 6, 40, 127
4, 58801, Control_c, 6, 1, 7
4, 58802, Control_c, 6, 1, 13
4, 58803, Control_c, 6, 1, 20
4, 58804, Control_c, 6, 1, 26
4, 58805, Control_c, 6, 1, 32
4, 58806, Control_c, 6, 1, 39
4, 58807, Control_c, 6, 1, 45
4, 58808, Control_c, 6, 1, 52
4, 58809, Control_c, 6, 1, 58
4, 58810, Control_c, 6, 1, 64
4, 58919, Control_c, 6, 1, 0
4, 58920, Note_on_c, 6, 40, 0
4, 58920, Note_on_c, 6, 28, 127
4, 58940, Note_on_c, 6, 28, 0
4, 58940, Note_on_c, 6, 28, 127
4, 58960, Note_on_c, 6, 28, 0
4, 58960, Note_on_c, 6, 28, 127
4, 58980, Note_on_c, 6, 28, 0
4, 58980, Note_on_c, 6, 28, 127
4, 59000, Note_on_c, 6, 28, 0
4, 59000, Note_on_c, 6, 28, 127
4, 59020, Note_on_c, 6, 28, 0
4, 59020, Note_on_c, 6, 28, 127
4, 59040, Note_on_c, 6, 28, 0
4, 59040, Note_on_c, 6, 40, 127
4, 59100, Note_on_c, 6, 40, 0
4, 59100, Note_on_c, 6, 41, 127
4, 59160, Note_on_c, 6, 41, 0
4, 59160, Note_on_c, 6, 28, 127
4, 59180, Note_on_c, 6, 28, 0
4, 59180, Note_on_c, 6, 28, 127
4, 59200, Note_on_c, 6, 28, 0
4, 59200, Note_on_c, 6, 28, 127
4, 59220, Note_on_c, 6, 28, 0
4, 59220, Note_on_c, 6, 28, 127
4, 59240, Note_on_c, 6, 28, 0
4, 59240, Note_on_c, 6, 28, 127
4, 59260, Note_on_c, 6, 28, 0
4, 59260, Note_on_c, 6, 28, 127
4, 59280, Note_on_c, 6, 28, 0
4, 59280, Note_on_c, 6, 38, 127
4, 59280, Control_c, 6, 1, 0
4, 59281, Control_c, 6, 1, 7
4, 59282, Control_c, 6, 1, 13
4, 59283, Control_c, 6, 1, 20
4, 59284, Control_c, 6, 1, 26
4, 59285, Control_c, 6, 1, 32
4, 59286, Control_c, 6, 1, 39
4, 59287, Control_c, 6, 1, 45
4, 59288, Control_c, 6, 1, 52
4, 59289, Control_c, 6, 1, 58
4, 59290, Control_c, 6, 1, 64
4, 59399, Control_c, 6, 1, 0
4, 59400, Note_on_c, 6, 38, 0
4, 59400, Note_on_c, 6, 28, 127
4, 59420, Note_on_c, 6, 28, 0
4, 59420, Note_on_c, 6, 28, 127
4, 59440, Note_on_c, 6, 28, 0
4, 59440, Note_on_c, 6, 28, 127
4, 59460, Note_on_c, 6, 28, 0
4, 59460, Note_on_c, 6, 28, 127
4, 59480, Note_on_c, 6, 28, 0
4, 59480, Note_on_c, 6, 28, 127
4, 59500, Note_on_c, 6, 28, 0
4, 59500, Note_on_c, 6, 28, 127
4, 59520, Note_on_c, 6, 28, 0
4, 59520, Note_on_c, 6, 38, 127
4, 59580, Note_on_c, 6, 38, 0
4, 59580, Note_on_c, 6, 41, 127
4, 59640, Note_on_c, 6, 41, 0
4, 59640, Note_on_c, 6, 28, 127
4, 59660, Note_on_c, 6, 28, 0
4, 59660, Note_on_c, 6, 28, 127
4, 59680, Note_on_c, 6, 28, 0
4, 59680, Note_on_c, 6, 28, 127
4, 59700, Note_on_c, 6, 28, 0
4, 59700, Note_on_c, 6, 28, 127
4, 59720, Note_on_c, 6, 28, 0
4, 59720, Note_on_c, 6, 28, 127
4, 59740, Note_on_c, 6, 28, 0
4, 59740, Note_on_c, 6, 28, 127
4, 59760, Note_on_c, 6, 28, 0
4, 59760, Note_on_c, 6, 40, 127
4, 59760, Control_c, 6, 1, 0
4, 59761, Control_c, 6, 1, 7
4, 59762, Control_c, 6, 1, 13
4, 59763, Control_c, 6, 1, 20
4, 59764, Control_c, 6, 1, 26
4, 59765, Control_c, 6, 1, 32
4, 59766, Control_c, 6, 1, 39
4, 59767, Control_c, 6, 1, 45
4, 59768, Control_c, 6, 1, 52
4, 59769, Control_c, 6, 1, 58
4, 59770, Control_c, 6, 1, 64
4, 59879, Control_c, 6, 1, 0
4, 59880, Note_on_c, 6, 40, 0
4, 59880, Note_on_c, 6, 28, 127
4, 59900, Note_on_c, 6, 28, 0
4, 59900, Note_on_c, 6, 28, 127
4, 59920, Note_on_c, 6, 28, 0
4, 59920, Note_on_c, 6, 28, 127
4, 59940, Note_on_c, 6, 28, 0
4, 59940, Note_on_c, 6, 28, 127
4, 59960, Note_on_c, 6, 28, 0
4, 59960, Note_on_c, 6, 28, 127
4, 59980, Note_on_c, 6, 28, 0
4, 59980, Note_on_c, 6, 28, 127
4, 60000, Note_on_c, 6, 28, 0
4, 60000, Note_on_c, 6, 40, 127
4, 60060, Note_on_c, 6, 40, 0
4, 60060, Note_on_c, 6, 41, 127
4, 60120, Note_on_c, 6, 41, 0
4, 60120, Note_on_c, 6, 28, 127
4, 60140, Note_on_c, 6, 28, 0
4, 60140, Note_on_c, 6, 28, 127
4, 60160, Note_on_c, 6, 28, 0
4, 60160, Note_on_c, 6, 28, 127
4, 60180, Note_on_c, 6, 28, 0
4, 60180, Note_on_c, 6, 28, 127
4, 60200, Note_on_c, 6, 28, 0
4, 60200, Note_on_c, 6, 28, 127
4, 60220, Note_on_c, 6, 28, 0
4, 60220, Note_on_c, 6, 28, 127
4, 60240, Note_on_c, 6, 28, 0
4, 60240, Note_on_c, 6, 38, 127
4, 60240, Control_c, 6, 1, 0
4, 60241, Control_c, 6, 1, 7
4, 60242, Control_c, 6, 1, 13
4, 60243, Control_c, 6, 1, 20
4, 60244, Control_c, 6, 1, 26
4, 60245, Control_c, 6, 1, 32
4, 60246, Control_c, 6, 1, 39
4, 60247, Control_c, 6, 1, 45
4, 60248, Control_c, 6, 1, 52
4, 60249, Control_c, 6, 1, 58
4, 60250, Control_c, 6, 1, 64
4, 60359, Control_c, 6, 1, 0
4, 60360, Note_on_c, 6, 38, 0
4, 60360, Note_on_c, 6, 28, 127
4, 60380, Note_on_c, 6, 28, 0
4, 60380, Note_on_c, 6, 28, 127
4, 60400, Note_on_c, 6, 28, 0
4, 60400, Note_on_c, 6, 28, 127
4, 60420, Note_on_c, 6, 28, 0
4, 60420, Note_on_c, 6, 28, 127
4, 60440, Note_on_c, 6, 28, 0
4, 60440, Note_on_c, 6, 28, 127
4, 60460, Note_on_c, 6, 28, 0
4, 60460, Note_on_c, 6, 28, 127
4, 60480, Note_on_c, 6, 28, 0
4, 60480, Note_on_c, 6, 38, 127
4, 60540, Note_on_c, 6, 38, 0
4, 60540, Note_on_c, 6, 35, 127
4, 60600, Note_on_c, 6, 35, 0
4, 60600, Note_on_c, 6, 28, 127
4, 60620, Note_on_c, 6, 28, 0
4, 60620, Note_on_c, 6, 28, 127
4, 60640, Note_on_c, 6, 28, 0
4, 60640, Note_on_c, 6, 28, 127
4, 60660, Note_on_c, 6, 28, 0
4, 60660, Note_on_c, 6, 28, 127
4, 60680, Note_on_c, 6, 28, 0
4, 60680, Note_on_c, 6, 28, 127
4, 60700, Note_on_c, 6, 28, 0
4, 60700, Note_on_c, 6, 28, 127
4, 60720, Note_on_c, 6, 28, 0
4, 60720, Note_on_c, 6, 40, 127
4, 60720, Note_on_c, 6, 35, 127
4, 60780, Note_on_c, 6, 40, 0
4, 60780, Note_on_c, 6, 35, 0
4, 60840, Note_on_c, 6, 28, 127
4, 60860, Note_on_c, 6, 28, 0
4, 60860, Note_on_c, 6, 28, 127
4, 60880, Note_on_c, 6, 28, 0
4, 60880, Note_on_c, 6, 28, 127
4, 60900, Note_on_c, 6, 28, 0
4, 60900, Note_on_c, 6, 28, 127
4, 60920, Note_on_c, 6, 28, 0
4, 60920, Note_on_c, 6, 28, 127
4, 60940, Note_on_c, 6, 28, 0
4, 60940, Note_on_c, 6, 28, 127
4, 60960, Note_on_c, 6, 28, 0
4, 60960, Note_on_c, 6, 40, 127
4, 60960, Note_on_c, 6, 35, 127
4, 61020, Note_on_c, 6, 40, 0
4, 61020, Note_on_c, 6, 35, 0
4, 61080, Note_on_c, 6, 28, 127
4, 61100, Note_on_c, 6, 28, 0
4, 61100, Note_on_c, 6, 28, 127
4, 61120, Note_on_c, 6, 28, 0
4, 61120, Note_on_c, 6, 28, 127
4, 61140, Note_on_c, 6, 28, 0
4, 61140, Note_on_c, 6, 28, 127
4, 61160, Note_on_c, 6, 28, 0
4, 61160, Note_on_c, 6, 28, 127
4, 61180, Note_on_c, 6, 28, 0
4, 61180, Note_on_c, 6, 28, 127
4, 61200, Note_on_c, 6, 28, 0
4, 61200, Note_on_c, 6, 40, 127
4, 61200, Note_on_c, 6, 35, 127
4, 61260, Note_on_c, 6, 40, 0
4, 61260, Note_on_c, 6, 35, 0
4, 61320, Note_on_c, 6, 28, 127
4, 61340, Note_on_c, 6, 28, 0
4, 61340, Note_on_c, 6, 28, 127
4, 61360, Note_on_c, 6, 28, 0
4, 61360, Note_on_c, 6, 28, 127
4, 61380, Note_on_c, 6, 28, 0
4, 61380, Note_on_c, 6, 28, 127
4, 61400, Note_on_c, 6, 28, 0
4, 61400, Note_on_c, 6, 28, 127
4, 61420, Note_on_c, 6, 28, 0
4, 61420, Note_on_c, 6, 28, 127
4, 61440, Note_on_c, 6, 28, 0
4, 61440, Note_on_c, 6, 40, 127
4, 61440, Note_on_c, 6, 35, 127
4, 61500, Note_on_c, 6, 40, 0
4, 61500, Note_on_c, 6, 35, 0
4, 61500, Note_on_c, 6, 36, 127
4, 61500, Note_on_c, 6, 41, 127
4, 61560, Note_on_c, 6, 36, 0
4, 61560, Note_on_c, 6, 41, 0
4, 61560, Note_on_c, 6, 28, 127
4, 61580, Note_on_c, 6, 28, 0
4, 61580, Note_on_c, 6, 28, 127
4, 61600, Note_on_c, 6, 28, 0
4, 61600, Note_on_c, 6, 28, 127
4, 61620, Note_on_c, 6, 28, 0
4, 61620, Note_on_c, 6, 28, 127
4, 61640, Note_on_c, 6, 28, 0
4, 61640, Note_on_c, 6, 28, 127
4, 61660, Note_on_c, 6, 28, 0
4, 61660, Note_on_c, 6, 28, 127
4, 61680, Note_on_c, 6, 28, 0
4, 61680, Note_on_c, 6, 40, 127
4, 61680, Note_on_c, 6, 35, 127
4, 61740, Note_on_c, 6, 40, 0
4, 61740, Note_on_c, 6, 35, 0
4, 61800, Note_on_c, 6, 28, 127
4, 61820, Note_on_c, 6, 28, 0
4, 61820, Note_on_c, 6, 28, 127
4, 61840, Note_on_c, 6, 28, 0
4, 61840, Note_on_c, 6, 28, 127
4, 61860, Note_on_c, 6, 28, 0
4, 61860, Note_on_c, 6, 28, 127
4, 61880, Note_on_c, 6, 28, 0
4, 61880, Note_on_c, 6, 28, 127
4, 61900, Note_on_c, 6, 28, 0
4, 61900, Note_on_c, 6, 28, 127
4, 61920, Note_on_c, 6, 28, 0
4, 61920, Note_on_c, 6, 40, 127
4, 61920, Note_on_c, 6, 35, 127
4, 61980, Note_on_c, 6, 40, 0
4, 61980, Note_on_c, 6, 35, 0
4, 62040, Note_on_c, 6, 28, 127
4, 62060, Note_on_c, 6, 28, 0
4, 62060, Note_on_c, 6, 28, 127
4, 62080, Note_on_c, 6, 28, 0
4, 62080, Note_on_c, 6, 28, 127
4, 62100, Note_on_c, 6, 28, 0
4, 62100, Note_on_c, 6, 28, 127
4, 62120, Note_on_c, 6, 28, 0
4, 62120, Note_on_c, 6, 28, 127
4, 62140, Note_on_c, 6, 28, 0
4, 62140, Note_on_c, 6, 28, 127
4, 62160, Note_on_c, 6, 28, 0
4, 62160, Note_on_c, 6, 40, 127
4, 62160, Note_on_c, 6, 35, 127
4, 62220, Note_on_c, 6, 40, 0
4, 62220, Note_on_c, 6, 35, 0
4, 62280, Note_on_c, 6, 28, 127
4, 62300, Note_on_c, 6, 28, 0
4, 62300, Note_on_c, 6, 28, 127
4, 62320, Note_on_c, 6, 28, 0
4, 62320, Note_on_c, 6, 28, 127
4, 62340, Note_on_c, 6, 28, 0
4, 62340, Note_on_c, 6, 28, 127
4, 62360, Note_on_c, 6, 28, 0
4, 62360, Note_on_c, 6, 28, 127
4, 62380, Note_on_c, 6, 28, 0
4, 62380, Note_on_c, 6, 28, 127
4, 62400, Note_on_c, 6, 28, 0
4, 62400, Note_on_c, 6, 40, 127
4, 62400, Note_on_c, 6, 35, 127
4, 62460, Note_on_c, 6, 40, 0
4, 62460, Note_on_c, 6, 35, 0
4, 62460, Note_on_c, 6, 36, 127
4, 62460, Note_on_c, 6, 41, 127
4, 62520, Note_on_c, 6, 36, 0
4, 62520, Note_on_c, 6, 41, 0
4, 62520, Note_on_c, 6, 28, 127
4, 62560, Note_on_c, 6, 28, 0
4, 62560, Note_on_c, 6, 28, 127
4, 62600, Note_on_c, 6, 28, 0
4, 62600, Note_on_c, 6, 28, 127
4, 62640, Note_on_c, 6, 28, 0
4, 62640, Note_on_c, 6, 28, 127
4, 62680, Note_on_c, 6, 28, 0
4, 62680, Note_on_c, 6, 28, 127
4, 62720, Note_on_c, 6, 28, 0
4, 62720, Note_on_c, 6, 28, 127
4, 62760, Note_on_c, 6, 28, 0
4, 62760, Note_on_c, 6, 40, 127
4, 62760, Note_on_c, 6, 35, 127
4, 62880, Note_on_c, 6, 40, 0
4, 62880, Note_on_c, 6, 35, 0
4, 62880, Note_on_c, 6, 28, 127
4, 62920, Note_on_c, 6, 28, 0
4, 62920, Note_on_c, 6, 28, 127
4, 62960, Note_on_c, 6, 28, 0
4, 62960, Note_on_c, 6, 28, 127
4, 63000, Note_on_c, 6, 28, 0
4, 63000, Note_on_c, 6, 28, 127
4, 63040, Note_on_c, 6, 28, 0
4, 63040, Note_on_c, 6, 28, 127
4, 63080, Note_on_c, 6, 28, 0
4, 63080, Note_on_c, 6, 28, 127
4, 63120, Note_on_c, 6, 28, 0
4, 63120, Note_on_c, 6, 40, 127
4, 63120, Note_on_c, 6, 35, 127
4, 63240, Note_on_c, 6, 40, 0
4, 63240, Note_on_c, 6, 35, 0
4, 63240, Note_on_c, 6, 28, 127
4, 63280, Note_on_c, 6, 28, 0
4, 63280, Note_on_c, 6, 28, 127
4, 63320, Note_on_c, 6, 28, 0
4, 63320, Note_on_c, 6, 28, 127
4, 63360, Note_on_c, 6, 28, 0
4, 63360, Note_on_c, 6, 41, 127
4, 63360, Note_on_c, 6, 36, 127
4, 63480, Note_on_c, 6, 41, 0
4, 63480, Note_on_c, 6, 36, 0
4, 63480, Note_on_c, 6, 28, 127
4, 63520, Note_on_c, 6, 28, 0
4, 63520, Note_on_c, 6, 28, 127
4, 63560, Note_on_c, 6, 28, 0
4, 63560, Note_on_c, 6, 28, 127
4, 63600, Note_on_c, 6, 28, 0
4, 63600, Note_on_c, 6, 28, 127
4, 63640, Note_on_c, 6, 28, 0
4, 63640, Note_on_c, 6, 28, 127
4, 63680, Note_on_c, 6, 28, 0
4, 63680, Note_on_c, 6, 28, 127
4, 63720, Note_on_c, 6, 28, 0
4, 63720, Note_on_c, 6, 40, 127
4, 63720, Note_on_c, 6, 35, 127
4, 63840, Note_on_c, 6, 40, 0
4, 63840, Note_on_c, 6, 35, 0
4, 63840, Note_on_c, 6, 28, 127
4, 63880, Note_on_c, 6, 28, 0
4, 63880, Note_on_c, 6, 28, 127
4, 63920, Note_on_c, 6, 28, 0
4, 63920, Note_on_c, 6, 28, 127
4, 63960, Note_on_c, 6, 28, 0
4, 63960, Note_on_c, 6, 28, 127
4, 64000, Note_on_c, 6, 28, 0
4, 64000, Note_on_c, 6, 28, 127
4, 64040, Note_on_c, 6, 28, 0
4, 64040, Note_on_c, 6, 28, 127
4, 64080, Note_on_c, 6, 28, 0
4, 64080, Note_on_c, 6, 40, 127
4, 64080, Note_on_c, 6, 35, 127
4, 64200, Note_on_c, 6, 40, 0
4, 64200, Note_on_c, 6, 35, 0
4, 64200, Note_on_c, 6, 28, 127
4, 64240, Note_on_c, 6, 28, 0
4, 64240, Note_on_c, 6, 28, 127
4, 64280, Note_on_c, 6, 28, 0
4, 64280, Note_on_c, 6, 28, 127
4, 64320, Note_on_c, 6, 28, 0
4, 64320, Note_on_c, 6, 41, 127
4, 64320, Note_on_c, 6, 36, 127
4, 64440, Note_on_c, 6, 41, 0
4, 64440, Note_on_c, 6, 36, 0
4, 64440, Note_on_c, 6, 28, 127
4, 64480, Note_on_c, 6, 28, 0
4, 64480, Note_on_c, 6, 28, 127
4, 64520, Note_on_c, 6, 28, 0
4, 64520, Note_on_c, 6, 28, 127
4, 64560, Note_on_c, 6, 28, 0
4, 64560, Note_on_c, 6, 28, 127
4, 64600, Note_on_c, 6, 28, 0
4, 64600, Note_on_c, 6, 28, 127
4, 64640, Note_on_c, 6, 28, 0
4, 64640, Note_on_c, 6, 28, 127
4, 64680, Note_on_c, 6, 28, 0
4, 64680, Note_on_c, 6, 40, 127
4, 64680, Note_on_c, 6, 35, 127
4, 64800, Note_on_c, 6, 40, 0
4, 64800, Note_on_c, 6, 35, 0
4, 64800, Note_on_c, 6, 28, 127
4, 64840, Note_on_c, 6, 28, 0
4, 64840, Note_on_c, 6, 28, 127
4, 64880, Note_on_c, 6, 28, 0
4, 64880, Note_on_c, 6, 28, 127
4, 64920, Note_on_c, 6, 28, 0
4, 64920, Note_on_c, 6, 28, 127
4, 64960, Note_on_c, 6, 28, 0
4, 64960, Note_on_c, 6, 28, 127
4, 65000, Note_on_c, 6, 28, 0
4, 65000, Note_on_c, 6, 28, 127
4, 65040, Note_on_c, 6, 28, 0
4, 65040, Note_on_c, 6, 40, 127
4, 65040, Note_on_c, 6, 35, 127
4, 65160, Note_on_c, 6, 40, 0
4, 65160, Note_on_c, 6, 35, 0
4, 65160, Note_on_c, 6, 28, 127
4, 65200, Note_on_c, 6, 28, 0
4, 65200, Note_on_c, 6, 28, 127
4, 65240, Note_on_c, 6, 28, 0
4, 65240, Note_on_c, 6, 28, 127
4, 65280, Note_on_c, 6, 28, 0
4, 65280, Note_on_c, 6, 41, 127
4, 65280, Note_on_c, 6, 36, 127
4, 65400, Note_on_c, 6, 41, 0
4, 65400, Note_on_c, 6, 36, 0
4, 65400, Note_on_c, 6, 28, 127
4, 65440, Note_on_c, 6, 28, 0
4, 65440, Note_on_c, 6, 28, 127
4, 65480, Note_on_c, 6, 28, 0
4, 65480, Note_on_c, 6, 28, 127
4, 65520, Note_on_c, 6, 28, 0
4, 65520, Note_on_c, 6, 28, 127
4, 65560, Note_on_c, 6, 28, 0
4, 65560, Note_on_c, 6, 28, 127
4, 65600, Note_on_c, 6, 28, 0
4, 65600, Note_on_c, 6, 28, 127
4, 65640, Note_on_c, 6, 28, 0
4, 65640, Note_on_c, 6, 40, 127
4, 65640, Note_on_c, 6, 35, 127
4, 65760, Note_on_c, 6, 40, 0
4, 65760, Note_on_c, 6, 35, 0
4, 65760, Note_on_c, 6, 28, 127
4, 65800, Note_on_c, 6, 28, 0
4, 65800, Note_on_c, 6, 28, 127
4, 65840, Note_on_c, 6, 28, 0
4, 65840, Note_on_c, 6, 28, 127
4, 65880, Note_on_c, 6, 28, 0
4, 65880, Note_on_c, 6, 28, 127
4, 65920, Note_on_c, 6, 28, 0
4, 65920, Note_on_c, 6, 28, 127
4, 65960, Note_on_c, 6, 28, 0
4, 65960, Note_on_c, 6, 28, 127
4, 66000, Note_on_c, 6, 28, 0
4, 66000, Note_on_c, 6, 40, 127
4, 66000, Note_on_c, 6, 35, 127
4, 66120, Note_on_c, 6, 40, 0
4, 66120, Note_on_c, 6, 35, 0
4, 66120, Note_on_c, 6, 28, 127
4, 66160, Note_on_c, 6, 28, 0
4, 66160, Note_on_c, 6, 28, 127
4, 66200, Note_on_c, 6, 28, 0
4, 66200, Note_on_c, 6, 28, 127
4, 66240, Note_on_c, 6, 28, 0
4, 66240, Note_on_c, 6, 41, 127
4, 66240, Note_on_c, 6, 36, 127
4, 66360, Note_on_c, 6, 41, 0
4, 66360, Note_on_c, 6, 36, 0
4, 66360, Note_on_c, 6, 28, 127
4, 66400, Note_on_c, 6, 28, 0
4, 66400, Note_on_c, 6, 28, 127
4, 66440, Note_on_c, 6, 28, 0
4, 66440, Note_on_c, 6, 28, 127
4, 66480, Note_on_c, 6, 28, 0
4, 66480, Note_on_c, 6, 28, 127
4, 66520, Note_on_c, 6, 28, 0
4, 66520, Note_on_c, 6, 28, 127
4, 66560, Note_on_c, 6, 28, 0
4, 66560, Note_on_c, 6, 28, 127
4, 66600, Note_on_c, 6, 28, 0
4, 66600, Note_on_c, 6, 28, 127
4, 66660, Note_on_c, 6, 28, 0
4, 66720, Note_on_c, 6, 28, 127
4, 66760, Note_on_c, 6, 28, 0
4, 66760, Note_on_c, 6, 28, 127
4, 66800, Note_on_c, 6, 28, 0
4, 66800, Note_on_c, 6, 28, 127
4, 66840, Note_on_c, 6, 28, 0
4, 66840, Note_on_c, 6, 28, 127
4, 66880, Note_on_c, 6, 28, 0
4, 66880, Note_on_c, 6, 28, 127
4, 66920, Note_on_c, 6, 28, 0
4, 66920, Note_on_c, 6, 28, 127
4, 66960, Note_on_c, 6, 28, 0
4, 66960, Note_on_c, 6, 28, 127
4, 67020, Note_on_c, 6, 28, 0
4, 67080, Note_on_c, 6, 28, 127
4, 67120, Note_on_c, 6, 28, 0
4, 67120, Note_on_c, 6, 28, 127
4, 67160, Note_on_c, 6, 28, 0
4, 67160, Note_on_c, 6, 28, 127
4, 67200, Note_on_c, 6, 28, 0
4, 67200, Note_on_c, 6, 28, 127
4, 67260, Note_on_c, 6, 28, 0
4, 67320, Note_on_c, 6, 28, 127
4, 67360, Note_on_c, 6, 28, 0
4, 67360, Note_on_c, 6, 28, 127
4, 67400, Note_on_c, 6, 28, 0
4, 67400, Note_on_c, 6, 28, 127
4, 67440, Note_on_c, 6, 28, 0
4, 67440, Note_on_c, 6, 28, 127
4, 67480, Note_on_c, 6, 28, 0
4, 67480, Note_on_c, 6, 28, 127
4, 67520, Note_on_c, 6, 28, 0
4, 67520, Note_on_c, 6, 28, 127
4, 67560, Note_on_c, 6, 28, 0
4, 67560, Note_on_c, 6, 28, 127
4, 67620, Note_on_c, 6, 28, 0
4, 67680, Note_on_c, 6, 28, 127
4, 67720, Note_on_c, 6, 28, 0
4, 67720, Note_on_c, 6, 28, 127
4, 67760, Note_on_c, 6, 28, 0
4, 67760, Note_on_c, 6, 28, 127
4, 67800, Note_on_c, 6, 28, 0
4, 67800, Note_on_c, 6, 28, 127
4, 67840, Note_on_c, 6, 28, 0
4, 67840, Note_on_c, 6, 28, 127
4, 67880, Note_on_c, 6, 28, 0
4, 67880, Note_on_c, 6, 28, 127
4, 67920, Note_on_c, 6, 28, 0
4, 67920, Note_on_c, 6, 28, 127
4, 67980, Note_on_c, 6, 28, 0
4, 68040, Note_on_c, 6, 28, 127
4, 68080, Note_on_c, 6, 28, 0
4, 68080, Note_on_c, 6, 28, 127
4, 68120, Note_on_c, 6, 28, 0
4, 68120, Note_on_c, 6, 28, 127
4, 68160, Note_on_c, 6, 28, 0
4, 68160, Note_on_c, 6, 28, 127
4, 68200, Note_on_c, 6, 28, 0
4, 68200, Note_on_c, 6, 28, 127
4, 68240, Note_on_c, 6, 28, 0
4, 68240, Note_on_c, 6, 28, 127
4, 68280, Note_on_c, 6, 28, 0
4, 68280, Note_on_c, 6, 28, 127
4, 68320, Note_on_c, 6, 28, 0
4, 68320, Note_on_c, 6, 28, 127
4, 68360, Note_on_c, 6, 28, 0
4, 68360, Note_on_c, 6, 28, 127
4, 68400, Note_on_c, 6, 28, 0
4, 68400, Note_on_c, 6, 28, 127
4, 68440, Note_on_c, 6, 28, 0
4, 68440, Note_on_c, 6, 28, 127
4, 68480, Note_on_c, 6, 28, 0
4, 68480, Note_on_c, 6, 28, 127
4, 68520, Note_on_c, 6, 28, 0
4, 68520, Note_on_c, 6, 40, 127
4, 68520, Note_on_c, 6, 35, 127
4, 68640, Note_on_c, 6, 40, 0
4, 68640, Note_on_c, 6, 35, 0
4, 68640, Note_on_c, 6, 28, 127
4, 68680, Note_on_c, 6, 28, 0
4, 68680, Note_on_c, 6, 28, 127
4, 68720, Note_on_c, 6, 28, 0
4, 68720, Note_on_c, 6, 28, 127
4, 68760, Note_on_c, 6, 28, 0
4, 68760, Note_on_c, 6, 28, 127
4, 68800, Note_on_c, 6, 28, 0
4, 68800, Note_on_c, 6, 28, 127
4, 68840, Note_on_c, 6, 28, 0
4, 68840, Note_on_c, 6, 28, 127
4, 68880, Note_on_c, 6, 28, 0
4, 68880, Note_on_c, 6, 40, 127
4, 68880, Note_on_c, 6, 35, 127
4, 69000, Note_on_c, 6, 40, 0
4, 69000, Note_on_c, 6, 35, 0
4, 69000, Note_on_c, 6, 28, 127
4, 69040, Note_on_c, 6, 28, 0
4, 69040, Note_on_c, 6, 28, 127
4, 69080, Note_on_c, 6, 28, 0
4, 69080, Note_on_c, 6, 28, 127
4, 69120, Note_on_c, 6, 28, 0
4, 69120, Note_on_c, 6, 41, 127
4, 69120, Note_on_c, 6, 36, 127
4, 69240, Note_on_c, 6, 41, 0
4, 69240, Note_on_c, 6, 36, 0
4, 69240, Note_on_c, 6, 28, 127
4, 69280, Note_on_c, 6, 28, 0
4, 69280, Note_on_c, 6, 28, 127
4, 69320, Note_on_c, 6, 28, 0
4, 69320, Note_on_c, 6, 28, 127
4, 69360, Note_on_c, 6, 28, 0
4, 69360, Note_on_c, 6, 28, 127
4, 69400, Note_on_c, 6, 28, 0
4, 69400, Note_on_c, 6, 28, 127
4, 69440, Note_on_c, 6, 28, 0
4, 69440, Note_on_c, 6, 28, 127
4, 69480, Note_on_c, 6, 28, 0
4, 69480, Note_on_c, 6, 40, 127
4, 69480, Note_on_c, 6, 35, 127
4, 69600, Note_on_c, 6, 40, 0
4, 69600, Note_on_c, 6, 35, 0
4, 69600, Note_on_c, 6, 28, 127
4, 69640, Note_on_c, 6, 28, 0
4, 69640, Note_on_c, 6, 28, 127
4, 69680, Note_on_c, 6, 28, 0
4, 69680, Note_on_c, 6, 28, 127
4, 69720, Note_on_c, 6, 28, 0
4, 69720, Note_on_c, 6, 28, 127
4, 69760, Note_on_c, 6, 28, 0
4, 69760, Note_on_c, 6, 28, 127
4, 69800, Note_on_c, 6, 28, 0
4, 69800, Note_on_c, 6, 28, 127
4, 69840, Note_on_c, 6, 28, 0
4, 69840, Note_on_c, 6, 40, 127
4, 69840, Note_on_c, 6, 35, 127
4, 69960, Note_on_c, 6, 40, 0
4, 69960, Note_on_c, 6, 35, 0
4, 69960, Note_on_c, 6, 28, 127
4, 70000, Note_on_c, 6, 28, 0
4, 70000, Note_on_c, 6, 28, 127
4, 70040, Note_on_c, 6, 28, 0
4, 70040, Note_on_c, 6, 28, 127
4, 70080, Note_on_c, 6, 28, 0
4, 70080, Note_on_c, 6, 41, 127
4, 70080, Note_on_c, 6, 36, 127
4, 70200, Note_on_c, 6, 41, 0
4, 70200, Note_on_c, 6, 36, 0
4, 70200, Note_on_c, 6, 28, 127
4, 70240, Note_on_c, 6, 28, 0
4, 70240, Note_on_c, 6, 28, 127
4, 70280, Note_on_c, 6, 28, 0
4, 70280, Note_on_c, 6, 28, 127
4, 70320, Note_on_c, 6, 28, 0
4, 70320, Note_on_c, 6, 28, 127
4, 70360, Note_on_c, 6, 28, 0
4, 70360, Note_on_c, 6, 28, 127
4, 70400, Note_on_c, 6, 28, 0
4, 70400, Note_on_c, 6, 28, 127
4, 70440, Note_on_c, 6, 28, 0
4, 70440, Note_on_c, 6, 40, 127
4, 70440, Note_on_c, 6, 35, 127
4, 70560, Note_on_c, 6, 40, 0
4, 70560, Note_on_c, 6, 35, 0
4, 70560, Note_on_c, 6, 28, 127
4, 70600, Note_on_c, 6, 28, 0
4, 70600, Note_on_c, 6, 28, 127
4, 70640, Note_on_c, 6, 28, 0
4, 70640, Note_on_c, 6, 28, 127
4, 70680, Note_on_c, 6, 28, 0
4, 70680, Note_on_c, 6, 28, 127
4, 70720, Note_on_c, 6, 28, 0
4, 70720, Note_on_c, 6, 28, 127
4, 70760, Note_on_c, 6, 28, 0
4, 70760, Note_on_c, 6, 28, 127
4, 70800, Note_on_c, 6, 28, 0
4, 70800, Note_on_c, 6, 40, 127
4, 70800, Note_on_c, 6, 35, 127
4, 70920, Note_on_c, 6, 40, 0
4, 70920, Note_on_c, 6, 35, 0
4, 70920, Note_on_c, 6, 28, 127
4, 70960, Note_on_c, 6, 28, 0
4, 70960, Note_on_c, 6, 28, 127
4, 71000, Note_on_c, 6, 28, 0
4, 71000, Note_on_c, 6, 28, 127
4, 71040, Note_on_c, 6, 28, 0
4, 71040, Note_on_c, 6, 41, 127
4, 71040, Note_on_c, 6, 36, 127
4, 71160, Note_on_c, 6, 41, 0
4, 71160, Note_on_c, 6, 36, 0
4, 71160, Note_on_c, 6, 28, 127
4, 71200, Note_on_c, 6, 28, 0
4, 71200, Note_on_c, 6, 28, 127
4, 71240, Note_on_c, 6, 28, 0
4, 71240, Note_on_c, 6, 28, 127
4, 71280, Note_on_c, 6, 28, 0
4, 71280, Note_on_c, 6, 28, 127
4, 71320, Note_on_c, 6, 28, 0
4, 71320, Note_on_c, 6, 28, 127
4, 71360, Note_on_c, 6, 28, 0
4, 71360, Note_on_c, 6, 28, 127
4, 71400, Note_on_c, 6, 28, 0
4, 71400, Note_on_c, 6, 40, 127
4, 71400, Note_on_c, 6, 35, 127
4, 71520, Note_on_c, 6, 40, 0
4, 71520, Note_on_c, 6, 35, 0
4, 71520, Note_on_c, 6, 28, 127
4, 71560, Note_on_c, 6, 28, 0
4, 71560, Note_on_c, 6, 28, 127
4, 71600, Note_on_c, 6, 28, 0
4, 71600, Note_on_c, 6, 28, 127
4, 71640, Note_on_c, 6, 28, 0
4, 71640, Note_on_c, 6, 28, 127
4, 71680, Note_on_c, 6, 28, 0
4, 71680, Note_on_c, 6, 28, 127
4, 71720, Note_on_c, 6, 28, 0
4, 71720, Note_on_c, 6, 28, 127
4, 71760, Note_on_c, 6, 28, 0
4, 71760, Note_on_c, 6, 40, 127
4, 71760, Note_on_c, 6, 35, 127
4, 71880, Note_on_c, 6, 40, 0
4, 71880, Note_on_c, 6, 35, 0
4, 71880, Note_on_c, 6, 28, 127
4, 71920, Note_on_c, 6, 28, 0
4, 71920, Note_on_c, 6, 28, 127
4, 71960, Note_on_c, 6, 28, 0
4, 71960, Note_on_c, 6, 28, 127
4, 72000, Note_on_c, 6, 28, 0
4, 72000, Note_on_c, 6, 41, 127
4, 72000, Note_on_c, 6, 36, 127
4, 72120, Note_on_c, 6, 41, 0
4, 72120, Note_on_c, 6, 36, 0
4, 72120, Note_on_c, 6, 28, 127
4, 72160, Note_on_c, 6, 28, 0
4, 72160, Note_on_c, 6, 28, 127
4, 72200, Note_on_c, 6, 28, 0
4, 72200, Note_on_c, 6, 28, 127
4, 72240, Note_on_c, 6, 28, 0
4, 72240, Note_on_c, 6, 28, 127
4, 72280, Note_on_c, 6, 28, 0
4, 72280, Note_on_c, 6, 28, 127
4, 72320, Note_on_c, 6, 28, 0
4, 72320, Note_on_c, 6, 28, 127
4, 72360, Note_on_c, 6, 28, 0
4, 72360, Note_on_c, 6, 28, 127
4, 72420, Note_on_c, 6, 28, 0
4, 72480, Note_on_c, 6, 28, 127
4, 72520, Note_on_c, 6, 28, 0
4, 72520, Note_on_c, 6, 28, 127
4, 72560, Note_on_c, 6, 28, 0
4, 72560, Note_on_c, 6, 28, 127
4, 72600, Note_on_c, 6, 28, 0
4, 72600, Note_on_c, 6, 28, 127
4, 72640, Note_on_c, 6, 28, 0
4, 72640, Note_on_c, 6, 28, 127
4, 72680, Note_on_c, 6, 28, 0
4, 72680, Note_on_c, 6, 28, 127
4, 72720, Note_on_c, 6, 28, 0
4, 72720, Note_on_c, 6, 28, 127
4, 72780, Note_on_c, 6, 28, 0
4, 72840, Note_on_c, 6, 28, 127
4, 72880, Note_on_c, 6, 28, 0
4, 72880, Note_on_c, 6, 28, 127
4, 72920, Note_on_c, 6, 28, 0
4, 72920, Note_on_c, 6, 28, 127
4, 72960, Note_on_c, 6, 28, 0
4, 72960, Note_on_c, 6, 28, 127
4, 73020, Note_on_c, 6, 28, 0
4, 73080, Note_on_c, 6, 28, 127
4, 73120, Note_on_c, 6, 28, 0
4, 73120, Note_on_c, 6, 28, 127
4, 73160, Note_on_c, 6, 28, 0
4, 73160, Note_on_c, 6, 28, 127
4, 73200, Note_on_c, 6, 28, 0
4, 73200, Note_on_c, 6, 28, 127
4, 73240, Note_on_c, 6, 28, 0
4, 73240, Note_on_c, 6, 28, 127
4, 73280, Note_on_c, 6, 28, 0
4, 73280, Note_on_c, 6, 28, 127
4, 73320, Note_on_c, 6, 28, 0
4, 73320, Note_on_c, 6, 28, 127
4, 73380, Note_on_c, 6, 28, 0
4, 73440, Note_on_c, 6, 28, 127
4, 73480, Note_on_c, 6, 28, 0
4, 73480, Note_on_c, 6, 28, 127
4, 73520, Note_on_c, 6, 28, 0
4, 73520, Note_on_c, 6, 28, 127
4, 73560, Note_on_c, 6, 28, 0
4, 73560, Note_on_c, 6, 28, 127
4, 73600, Note_on_c, 6, 28, 0
4, 73600, Note_on_c, 6, 28, 127
4, 73640, Note_on_c, 6, 28, 0
4, 73640, Note_on_c, 6, 28, 127
4, 73680, Note_on_c, 6, 28, 0
4, 73680, Note_on_c, 6, 28, 127
4, 73740, Note_on_c, 6, 28, 0
4, 73800, Note_on_c, 6, 28, 127
4, 73840, Note_on_c, 6, 28, 0
4, 73840, Note_on_c, 6, 28, 127
4, 73880, Note_on_c, 6, 28, 0
4, 73880, Note_on_c, 6, 28, 127
4, 73920, Note_on_c, 6, 28, 0
4, 73920, Note_on_c, 6, 28, 127
4, 73960, Note_on_c, 6, 28, 0
4, 73960, Note_on_c, 6, 28, 127
4, 74000, Note_on_c, 6, 28, 0
4, 74000, Note_on_c, 6, 28, 127
4, 74040, Note_on_c, 6, 28, 0
4, 74040, Note_on_c, 6, 40, 127
4, 74080, Note_on_c, 6, 40, 0
4, 74080, Note_on_c, 6, 40, 127
4, 74120, Note_on_c, 6, 40, 0
4, 74120, Note_on_c, 6, 40, 127
4, 74160, Note_on_c, 6, 40, 0
4, 74160, Note_on_c, 6, 40, 127
4, 74200, Note_on_c, 6, 40, 0
4, 74200, Note_on_c, 6, 40, 127
4, 74240, Note_on_c, 6, 40, 0
4, 74240, Note_on_c, 6, 40, 127
4, 74280, Note_on_c, 6, 40, 0
4, 74280, Note_on_c, 6, 52, 127
4, 74280, Note_on_c, 6, 47, 127
4, 74400, Note_on_c, 6, 52, 0
4, 74400, Note_on_c, 6, 47, 0
4, 74400, Note_on_c, 6, 40, 127
4, 74440, Note_on_c, 6, 40, 0
4, 74440, Note_on_c, 6, 40, 127
4, 74480, Note_on_c, 6, 40, 0
4, 74480, Note_on_c, 6, 40, 127
4, 74520, Note_on_c, 6, 40, 0
4, 74520, Note_on_c, 6, 40, 127
4, 74560, Note_on_c, 6, 40, 0
4, 74560, Note_on_c, 6, 40, 127
4, 74600, Note_on_c, 6, 40, 0
4, 74600, Note_on_c, 6, 40, 127
4, 74640, Note_on_c, 6, 40, 0
4, 74640, Note_on_c, 6, 52, 127
4, 74640, Note_on_c, 6, 47, 127
4, 74760, Note_on_c, 6, 52, 0
4, 74760, Note_on_c, 6, 47, 0
4, 74760, Note_on_c, 6, 40, 127
4, 74800, Note_on_c, 6, 40, 0
4, 74800, Note_on_c, 6, 40, 127
4, 74840, Note_on_c, 6, 40, 0
4, 74840, Note_on_c, 6, 40, 127
4, 74880, Note_on_c, 6, 40, 0
4, 74880, Note_on_c, 6, 53, 127
4, 74880, Note_on_c, 6, 48, 127
4, 75000, Note_on_c, 6, 53, 0
4, 75000, Note_on_c, 6, 48, 0
4, 75000, Note_on_c, 6, 40, 127
4, 75040, Note_on_c, 6, 40, 0
4, 75040, Note_on_c, 6, 40, 127
4, 75080, Note_on_c, 6, 40, 0
4, 75080, Note_on_c, 6, 40, 127
4, 75120, Note_on_c, 6, 40, 0
4, 75120, Note_on_c, 6, 40, 127
4, 75160, Note_on_c, 6, 40, 0
4, 75160, Note_on_c, 6, 40, 127
4, 75200, Note_on_c, 6, 40, 0
4, 75200, Note_on_c, 6, 40, 127
4, 75240, Note_on_c, 6, 40, 0
4, 75240, Note_on_c, 6, 52, 127
4, 75240, Note_on_c, 6, 47, 127
4, 75360, Note_on_c, 6, 52, 0
4, 75360, Note_on_c, 6, 47, 0
4, 75360, Note_on_c, 6, 40, 127
4, 75400, Note_on_c, 6, 40, 0
4, 75400, Note_on_c, 6, 40, 127
4, 75440, Note_on_c, 6, 40, 0
4, 75440, Note_on_c, 6, 40, 127
4, 75480, Note_on_c, 6, 40, 0
4, 75480, Note_on_c, 6, 40, 127
4, 75520, Note_on_c, 6, 40, 0
4, 75520, Note_on_c, 6, 40, 127
4, 75560, Note_on_c, 6, 40, 0
4, 75560, Note_on_c, 6, 40, 127
4, 75600, Note_on_c, 6, 40, 0
4, 75600, Note_on_c, 6, 52, 127
4, 75600, Note_on_c, 6, 47, 127
4, 75720, Note_on_c, 6, 52, 0
4, 75720, Note_on_c, 6, 47, 0
4, 75720, Note_on_c, 6, 40, 127
4, 75760, Note_on_c, 6, 40, 0
4, 75760, Note_on_c, 6, 40, 127
4, 75800, Note_on_c, 6, 40, 0
4, 75800, Note_on_c, 6, 40, 127
4, 75840, Note_on_c, 6, 40, 0
4, 75840, Note_on_c, 6, 53, 127
4, 75840, Note_on_c, 6, 48, 127
4, 75960, Note_on_c, 6, 53, 0
4, 75960, Note_on_c, 6, 48, 0
4, 75960, Note_on_c, 6, 40, 127
4, 76000, Note_on_c, 6, 40, 0
4, 76000, Note_on_c, 6, 40, 127
4, 76040, Note_on_c, 6, 40, 0
4, 76040, Note_on_c, 6, 40, 127
4, 76080, Note_on_c, 6, 40, 0
4, 76080, Note_on_c, 6, 40, 127
4, 76120, Note_on_c, 6, 40, 0
4, 76120, Note_on_c, 6, 40, 127
4, 76160, Note_on_c, 6, 40, 0
4, 76160, Note_on_c, 6, 40, 127
4, 76200, Note_on_c, 6, 40, 0
4, 76200, Note_on_c, 6, 52, 127
4, 76200, Note_on_c, 6, 47, 127
4, 76320, Note_on_c, 6, 52, 0
4, 76320, Note_on_c, 6, 47, 0
4, 76320, Note_on_c, 6, 40, 127
4, 76360, Note_on_c, 6, 40, 0
4, 76360, Note_on_c, 6, 40, 127
4, 76400, Note_on_c, 6, 40, 0
4, 76400, Note_on_c, 6, 40, 127
4, 76440, Note_on_c, 6, 40, 0
4, 76440, Note_on_c, 6, 40, 127
4, 76480, Note_on_c, 6, 40, 0
4, 76480, Note_on_c, 6, 40, 127
4, 76520, Note_on_c, 6, 40, 0
4, 76520, Note_on_c, 6, 40, 127
4, 76560, Note_on_c, 6, 40, 0
4, 76560, Note_on_c, 6, 52, 127
4, 76560, Note_on_c, 6, 47, 127
4, 76680, Note_on_c, 6, 52, 0
4, 76680, Note_on_c, 6, 47, 0
4, 76680, Note_on_c, 6, 40, 127
4, 76720, Note_on_c, 6, 40, 0
4, 76720, Note_on_c, 6, 40, 127
4, 76760, Note_on_c, 6, 40, 0
4, 76760, Note_on_c, 6, 40, 127
4, 76800, Note_on_c, 6, 40, 0
4, 76800, Note_on_c, 6, 53, 127
4, 76800, Note_on_c, 6, 48, 127
4, 76920, Note_on_c, 6, 53, 0
4, 76920, Note_on_c, 6, 48, 0
4, 76920, Note_on_c, 6, 28, 127
4, 76960, Note_on_c, 6, 28, 0
4, 76960, Note_on_c, 6, 28, 127
4, 77000, Note_on_c, 6, 28, 0
4, 77000, Note_on_c, 6, 28, 127
4, 77040, Note_on_c, 6, 28, 0
4, 77040, Note_on_c, 6, 28, 127
4, 77080, Note_on_c, 6, 28, 0
4, 77080, Note_on_c, 6, 28, 127
4, 77120, Note_on_c, 6, 28, 0
4, 77120, Note_on_c, 6, 28, 127
4, 77160, Note_on_c, 6, 28, 0
4, 77160, Note_on_c, 6, 40, 127
4, 77160, Note_on_c, 6, 35, 127
4, 77280, Note_on_c, 6, 40, 0
4, 77280, Note_on_c, 6, 35, 0
4, 77280, Note_on_c, 6, 28, 127
4, 77320, Note_on_c, 6, 28, 0
4, 77320, Note_on_c, 6, 28, 127
4, 77360, Note_on_c, 6, 28, 0
4, 77360, Note_on_c, 6, 28, 127
4, 77400, Note_on_c, 6, 28, 0
4, 77400, Note_on_c, 6, 28, 127
4, 77440, Note_on_c, 6, 28, 0
4, 77440, Note_on_c, 6, 28, 127
4, 77480, Note_on_c, 6, 28, 0
4, 77480, Note_on_c, 6, 28, 127
4, 77520, Note_on_c, 6, 28, 0
4, 77520, Note_on_c, 6, 40, 127
4, 77520, Note_on_c, 6, 35, 127
4, 77640, Note_on_c, 6, 40, 0
4, 77640, Note_on_c, 6, 35, 0
4, 77640, Note_on_c, 6, 28, 127
4, 77680, Note_on_c, 6, 28, 0
4, 77680, Note_on_c, 6, 28, 127
4, 77720, Note_on_c, 6, 28, 0
4, 77720, Note_on_c, 6, 28, 127
4, 77760, Note_on_c, 6, 28, 0
4, 77760, Note_on_c, 6, 41, 127
4, 77760, Note_on_c, 6, 36, 127
4, 77880, Note_on_c, 6, 41, 0
4, 77880, Note_on_c, 6, 36, 0
4, 77880, Note_on_c, 6, 28, 127
4, 77920, Note_on_c, 6, 28, 0
4, 77920, Note_on_c, 6, 28, 127
4, 77960, Note_on_c, 6, 28, 0
4, 77960, Note_on_c, 6, 28, 127
4, 78000, Note_on_c, 6, 28, 0
4, 78000, Note_on_c, 6, 28, 127
4, 78040, Note_on_c, 6, 28, 0
4, 78040, Note_on_c, 6, 28, 127
4, 78080, Note_on_c, 6, 28, 0
4, 78080, Note_on_c, 6, 28, 127
4, 78120, Note_on_c, 6, 28, 0
4, 78120, Note_on_c, 6, 40, 127
4, 78120, Note_on_c, 6, 35, 127
4, 78240, Note_on_c, 6, 40, 0
4, 78240, Note_on_c, 6, 35, 0
4, 78240, Note_on_c, 6, 28, 127
4, 78280, Note_on_c, 6, 28, 0
4, 78280, Note_on_c, 6, 28, 127
4, 78320, Note_on_c, 6, 28, 0
4, 78320, Note_on_c, 6, 28, 127
4, 78360, Note_on_c, 6, 28, 0
4, 78360, Note_on_c, 6, 28, 127
4, 78400, Note_on_c, 6, 28, 0
4, 78400, Note_on_c, 6, 28, 127
4, 78440, Note_on_c, 6, 28, 0
4, 78440, Note_on_c, 6, 28, 127
4, 78480, Note_on_c, 6, 28, 0
4, 78480, Note_on_c, 6, 40, 127
4, 78480, Note_on_c, 6, 35, 127
4, 78600, Note_on_c, 6, 40, 0
4, 78600, Note_on_c, 6, 35, 0
4, 78600, Note_on_c, 6, 28, 127
4, 78640, Note_on_c, 6, 28, 0
4, 78640, Note_on_c, 6, 28, 127
4, 78680, Note_on_c, 6, 28, 0
4, 78680, Note_on_c, 6, 28, 127
4, 78720, Note_on_c, 6, 28, 0
4, 78720, Note_on_c, 6, 41, 127
4, 78720, Note_on_c, 6, 36, 127
4, 78840, Note_on_c, 6, 41, 0
4, 78840, Note_on_c, 6, 36, 0
4, 78840, Note_on_c, 6, 28, 127
4, 78880, Note_on_c, 6, 28, 0
4, 78880, Note_on_c, 6, 28, 127
4, 78920, Note_on_c, 6, 28, 0
4, 78920, Note_on_c, 6, 28, 127
4, 78960, Note_on_c, 6, 28, 0
4, 78960, Note_on_c, 6, 28, 127
4, 79000, Note_on_c, 6, 28, 0
4, 79000, Note_on_c, 6, 28, 127
4, 79040, Note_on_c, 6, 28, 0
4, 79040, Note_on_c, 6, 28, 127
4, 79080, Note_on_c, 6, 28, 0
4, 79080, Note_on_c, 6, 40, 127
4, 79080, Note_on_c, 6, 35, 127
4, 79080, Note_on_c, 6, 28, 127
4, 79200, Note_on_c, 6, 40, 0
4, 79200, Note_on_c, 6, 35, 0
4, 79200, Note_on_c, 6, 28, 0
4, 79200, Note_on_c, 6, 40, 127
4, 79200, Note_on_c, 6, 35, 127
4, 79200, Note_on_c, 6, 28, 127
4, 79320, Note_on_c, 6, 40, 0
4, 79320, Note_on_c, 6, 35, 0
4, 79320, Note_on_c, 6, 28, 0
4, 79320, Note_on_c, 6, 28, 127
4, 79360, Note_on_c, 6, 28, 0
4, 79360, Note_on_c, 6, 28, 127
4, 79400, Note_on_c, 6, 28, 0
4, 79400, Note_on_c, 6, 28, 127
4, 79440, Note_on_c, 6, 28, 0
4, 79440, Note_on_c, 6, 28, 127
4, 79480, Note_on_c, 6, 28, 0
4, 79480, Note_on_c, 6, 28, 127
4, 79520, Note_on_c, 6, 28, 0
4, 79520, Note_on_c, 6, 28, 127
4, 79560, Note_on_c, 6, 28, 0
4, 79560, Note_on_c, 6, 40, 127
4, 79560, Note_on_c, 6, 35, 127
4, 79560, Note_on_c, 6, 28, 127
4, 79680, Note_on_c, 6, 40, 0
4, 79680, Note_on_c, 6, 35, 0
4, 79680, Note_on_c, 6, 28, 0
4, 79680, Note_on_c, 6, 28, 127
4, 79680, Note_on_c, 6, 35, 127
4, 79680, Note_on_c, 6, 40, 127
4, 79800, Note_on_c, 6, 28, 0
4, 79800, Note_on_c, 6, 35, 0
4, 79800, Note_on_c, 6, 40, 0
4, 79800, Note_on_c, 6, 28, 127
4, 79840, Note_on_c, 6, 28, 0
4, 79840, Note_on_c, 6, 28, 127
4, 79880, Note_on_c, 6, 28, 0
4, 79880, Note_on_c, 6, 28, 127
4, 79920, Note_on_c, 6, 28, 0
4, 79920, Note_on_c, 6, 28, 127
4, 79960, Note_on_c, 6, 28, 0
4, 79960, Note_on_c, 6, 28, 127
4, 80000, Note_on_c, 6, 28, 0
4, 80000, Note_on_c, 6, 28, 127
4, 80040, Note_on_c, 6, 28, 0
4, 80040, Note_on_c, 6, 40, 127
4, 80040, Note_on_c, 6, 35, 127
4, 80160, Note_on_c, 6, 40, 0
4, 80160, Note_on_c, 6, 35, 0
4, 80160, Note_on_c, 6, 36, 127
4, 80160, Note_on_c, 6, 41, 127
4, 80280, Note_on_c, 6, 36, 0
4, 80280, Note_on_c, 6, 41, 0
4, 80280, Note_on_c, 6, 31, 127
4, 80320, Note_on_c, 6, 31, 0
4, 80320, Note_on_c, 6, 31, 127
4, 80360, Note_on_c, 6, 31, 0
4, 80360, Note_on_c, 6, 31, 127
4, 80400, Note_on_c, 6, 31, 0
4, 80400, Note_on_c, 6, 31, 127
4, 80440, Note_on_c, 6, 31, 0
4, 80440, Note_on_c, 6, 31, 127
4, 80480, Note_on_c, 6, 31, 0
4, 80480, Note_on_c, 6, 31, 127
4, 80520, Note_on_c, 6, 31, 0
4, 80520, Note_on_c, 6, 43, 127
4, 80520, Note_on_c, 6, 38, 127
4, 80520, Note_on_c, 6, 31, 127
4, 80640, Note_on_c, 6, 43, 0
4, 80640, Note_on_c, 6, 38, 0
4, 80640, Note_on_c, 6, 31, 0
4, 80640, Note_on_c, 6, 43, 127
4, 80640, Note_on_c, 6, 38, 127
4, 80640, Note_on_c, 6, 31, 127
4, 80760, Note_on_c, 6, 43, 0
4, 80760, Note_on_c, 6, 38, 0
4, 80760, Note_on_c, 6, 31, 0
4, 80760, Note_on_c, 6, 28, 127
4, 80800, Note_on_c, 6, 28, 0
4, 80800, Note_on_c, 6, 28, 127
4, 80840, Note_on_c, 6, 28, 0
4, 80840, Note_on_c, 6, 28, 127
4, 80880, Note_on_c, 6, 28, 0
4, 80880, Note_on_c, 6, 28, 127
4, 80920, Note_on_c, 6, 28, 0
4, 80920, Note_on_c, 6, 28, 127
4, 80960, Note_on_c, 6, 28, 0
4, 80960, Note_on_c, 6, 28, 127
4, 81000, Note_on_c, 6, 28, 0
4, 81000, Note_on_c, 6, 40, 127
4, 81000, Note_on_c, 6, 35, 127
4, 81000, Note_on_c, 6, 28, 127
4, 81120, Note_on_c, 6, 40, 0
4, 81120, Note_on_c, 6, 35, 0
4, 81120, Note_on_c, 6, 28, 0
4, 81120, Note_on_c, 6, 40, 127
4, 81120, Note_on_c, 6, 35, 127
4, 81120, Note_on_c, 6, 28, 127
4, 81240, Note_on_c, 6, 40, 0
4, 81240, Note_on_c, 6, 35, 0
4, 81240, Note_on_c, 6, 28, 0
4, 81240, Note_on_c, 6, 28, 127
4, 81280, Note_on_c, 6, 28, 0
4, 81280, Note_on_c, 6, 28, 127
4, 81320, Note_on_c, 6, 28, 0
4, 81320, Note_on_c, 6, 28, 127
4, 81360, Note_on_c, 6, 28, 0
4, 81360, Note_on_c, 6, 28, 127
4, 81400, Note_on_c, 6, 28, 0
4, 81400, Note_on_c, 6, 28, 127
4, 81440, Note_on_c, 6, 28, 0
4, 81440, Note_on_c, 6, 28, 127
4, 81480, Note_on_c, 6, 28, 0
4, 81480, Note_on_c, 6, 40, 127
4, 81480, Note_on_c, 6, 35, 127
4, 81480, Note_on_c, 6, 28, 127
4, 81600, Note_on_c, 6, 40, 0
4, 81600, Note_on_c, 6, 35, 0
4, 81600, Note_on_c, 6, 28, 0
4, 81600, Note_on_c, 6, 28, 127
4, 81600, Note_on_c, 6, 35, 127
4, 81600, Note_on_c, 6, 40, 127
4, 81720, Note_on_c, 6, 28, 0
4, 81720, Note_on_c, 6, 35, 0
4, 81720, Note_on_c, 6, 40, 0
4, 81720, Note_on_c, 6, 28, 127
4, 81760, Note_on_c, 6, 28, 0
4, 81760, Note_on_c, 6, 28, 127
4, 81800, Note_on_c, 6, 28, 0
4, 81800, Note_on_c, 6, 28, 127
4, 81840, Note_on_c, 6, 28, 0
4, 81840, Note_on_c, 6, 28, 127
4, 81880, Note_on_c, 6, 28, 0
4, 81880, Note_on_c, 6, 28, 127
4, 81920, Note_on_c, 6, 28, 0
4, 81920, Note_on_c, 6, 28, 127
4, 81960, Note_on_c, 6, 28, 0
4, 81960, Note_on_c, 6, 40, 127
4, 81960, Note_on_c, 6, 35, 127
4, 82080, Note_on_c, 6, 40, 0
4, 82080, Note_on_c, 6, 35, 0
4, 82080, Note_on_c, 6, 36, 127
4, 82080, Note_on_c, 6, 41, 127
4, 82200, Note_on_c, 6, 36, 0
4, 82200, Note_on_c, 6, 41, 0
4, 82200, Note_on_c, 6, 31, 127
4, 82240, Note_on_c, 6, 31, 0
4, 82240, Note_on_c, 6, 31, 127
4, 82280, Note_on_c, 6, 31, 0
4, 82280, Note_on_c, 6, 31, 127
4, 82320, Note_on_c, 6, 31, 0
4, 82320, Note_on_c, 6, 31, 127
4, 82360, Note_on_c, 6, 31, 0
4, 82360, Note_on_c, 6, 31, 127
4, 82400, Note_on_c, 6, 31, 0
4, 82400, Note_on_c, 6, 31, 127
4, 82440, Note_on_c, 6, 31, 0
4, 82440, Note_on_c, 6, 43, 127
4, 82440, Note_on_c, 6, 38, 127
4, 82440, Note_on_c, 6, 31, 127
4, 82560, Note_on_c, 6, 43, 0
4, 82560, Note_on_c, 6, 38, 0
4, 82560, Note_on_c, 6, 31, 0
4, 82560, Note_on_c, 6, 43, 127
4, 82560, Note_on_c, 6, 38, 127
4, 82560, Note_on_c, 6, 31, 127
4, 82680, Note_on_c, 6, 43, 0
4, 82680, Note_on_c, 6, 38, 0
4, 82680, Note_on_c, 6, 31, 0
4, 82680, Note_on_c, 6, 31, 127
4, 82720, Note_on_c, 6, 31, 0
4, 82720, Note_on_c, 6, 31, 127
4, 82760, Note_on_c, 6, 31, 0
4, 82760, Note_on_c, 6, 31, 127
4, 82800, Note_on_c, 6, 31, 0
4, 82800, Note_on_c, 6, 31, 127
4, 82840, Note_on_c, 6, 31, 0
4, 82840, Note_on_c, 6, 31, 127
4, 82880, Note_on_c, 6, 31, 0
4, 82880, Note_on_c, 6, 31, 127
4, 82920, Note_on_c, 6, 31, 0
4, 82920, Note_on_c, 6, 43, 127
4, 82920, Note_on_c, 6, 38, 127
4, 82920, Note_on_c, 6, 31, 127
4, 83040, Note_on_c, 6, 43, 0
4, 83040, Note_on_c, 6, 38, 0
4, 83040, Note_on_c, 6, 31, 0
4, 83040, Note_on_c, 6, 43, 127
4, 83040, Note_on_c, 6, 38, 127
4, 83040, Note_on_c, 6, 31, 127
4, 83160, Note_on_c, 6, 43, 0
4, 83160, Note_on_c, 6, 38, 0
4, 83160, Note_on_c, 6, 31, 0
4, 83160, Note_on_c, 6, 31, 127
4, 83200, Note_on_c, 6, 31, 0
4, 83200, Note_on_c, 6, 31, 127
4, 83240, Note_on_c, 6, 31, 0
4, 83240, Note_on_c, 6, 31, 127
4, 83280, Note_on_c, 6, 31, 0
4, 83280, Note_on_c, 6, 31, 127
4, 83320, Note_on_c, 6, 31, 0
4, 83320, Note_on_c, 6, 31, 127
4, 83360, Note_on_c, 6, 31, 0
4, 83360, Note_on_c, 6, 31, 127
4, 83400, Note_on_c, 6, 31, 0
4, 83400, Note_on_c, 6, 43, 127
4, 83400, Note_on_c, 6, 38, 127
4, 83400, Note_on_c, 6, 31, 127
4, 83520, Note_on_c, 6, 43, 0
4, 83520, Note_on_c, 6, 38, 0
4, 83520, Note_on_c, 6, 31, 0
4, 83520, Note_on_c, 6, 43, 127
4, 83520, Note_on_c, 6, 38, 127
4, 83520, Note_on_c, 6, 31, 127
4, 83640, Note_on_c, 6, 43, 0
4, 83640, Note_on_c, 6, 38, 0
4, 83640, Note_on_c, 6, 31, 0
4, 83640, Note_on_c, 6, 31, 127
4, 83680, Note_on_c, 6, 31, 0
4, 83680, Note_on_c, 6, 31, 127
4, 83720, Note_on_c, 6, 31, 0
4, 83720, Note_on_c, 6, 31, 127
4, 83760, Note_on_c, 6, 31, 0
4, 83760, Note_on_c, 6, 31, 127
4, 83800, Note_on_c, 6, 31, 0
4, 83800, Note_on_c, 6, 31, 127
4, 83840, Note_on_c, 6, 31, 0
4, 83840, Note_on_c, 6, 31, 127
4, 83880, Note_on_c, 6, 31, 0
4, 83880, Note_on_c, 6, 43, 127
4, 83880, Note_on_c, 6, 38, 127
4, 84000, Note_on_c, 6, 43, 0
4, 84000, Note_on_c, 6, 38, 0
4, 84000, Note_on_c, 6, 44, 127
4, 84000, Note_on_c, 6, 39, 127
4, 84120, Note_on_c, 6, 44, 0
4, 84120, Note_on_c, 6, 39, 0
4, 84120, Note_on_c, 6, 29, 127
4, 84160, Note_on_c, 6, 29, 0
4, 84160, Note_on_c, 6, 29, 127
4, 84200, Note_on_c, 6, 29, 0
4, 84200, Note_on_c, 6, 29, 127
4, 84240, Note_on_c, 6, 29, 0
4, 84240, Note_on_c, 6, 29, 127
4, 84280, Note_on_c, 6, 29, 0
4, 84280, Note_on_c, 6, 29, 127
4, 84320, Note_on_c, 6, 29, 0
4, 84320, Note_on_c, 6, 29, 127
4, 84360, Note_on_c, 6, 29, 0
4, 84360, Note_on_c, 6, 41, 127
4, 84360, Note_on_c, 6, 36, 127
4, 84360, Note_on_c, 6, 29, 127
4, 84480, Note_on_c, 6, 41, 0
4, 84480, Note_on_c, 6, 36, 0
4, 84480, Note_on_c, 6, 29, 0
4, 84480, Note_on_c, 6, 41, 127
4, 84480, Note_on_c, 6, 36, 127
4, 84480, Note_on_c, 6, 29, 127
4, 84600, Note_on_c, 6, 41, 0
4, 84600, Note_on_c, 6, 36, 0
4, 84600, Note_on_c, 6, 29, 0
4, 84600, Note_on_c, 6, 31, 127
4, 84640, Note_on_c, 6, 31, 0
4, 84640, Note_on_c, 6, 31, 127
4, 84680, Note_on_c, 6, 31, 0
4, 84680, Note_on_c, 6, 31, 127
4, 84720, Note_on_c, 6, 31, 0
4, 84720, Note_on_c, 6, 31, 127
4, 84760, Note_on_c, 6, 31, 0
4, 84760, Note_on_c, 6, 31, 127
4, 84800, Note_on_c, 6, 31, 0
4, 84800, Note_on_c, 6, 31, 127
4, 84840, Note_on_c, 6, 31, 0
4, 84840, Note_on_c, 6, 43, 127
4, 84840, Note_on_c, 6, 38, 127
4, 84840, Note_on_c, 6, 31, 127
4, 84960, Note_on_c, 6, 43, 0
4, 84960, Note_on_c, 6, 38, 0
4, 84960, Note_on_c, 6, 31, 0
4, 84960, Note_on_c, 6, 43, 127
4, 84960, Note_on_c, 6, 38, 127
4, 84960, Note_on_c, 6, 31, 127
4, 85080, Note_on_c, 6, 43, 0
4, 85080, Note_on_c, 6, 38, 0
4, 85080, Note_on_c, 6, 31, 0
4, 85080, Note_on_c, 6, 31, 127
4, 85120, Note_on_c, 6, 31, 0
4, 85120, Note_on_c, 6, 31, 127
4, 85160, Note_on_c, 6, 31, 0
4, 85160, Note_on_c, 6, 31, 127
4, 85200, Note_on_c, 6, 31, 0
4, 85200, Note_on_c, 6, 31, 127
4, 85240, Note_on_c, 6, 31, 0
4, 85240, Note_on_c, 6, 31, 127
4, 85280, Note_on_c, 6, 31, 0
4, 85280, Note_on_c, 6, 31, 127
4, 85320, Note_on_c, 6, 31, 0
4, 85320, Note_on_c, 6, 43, 127
4, 85320, Note_on_c, 6, 38, 127
4, 85320, Note_on_c, 6, 31, 127
4, 85440, Note_on_c, 6, 43, 0
4, 85440, Note_on_c, 6, 38, 0
4, 85440, Note_on_c, 6, 31, 0
4, 85440, Note_on_c, 6, 43, 127
4, 85440, Note_on_c, 6, 38, 127
4, 85440, Note_on_c, 6, 31, 127
4, 85560, Note_on_c, 6, 43, 0
4, 85560, Note_on_c, 6, 38, 0
4, 85560, Note_on_c, 6, 31, 0
4, 85560, Note_on_c, 6, 31, 127
4, 85600, Note_on_c, 6, 31, 0
4, 85600, Note_on_c, 6, 31, 127
4, 85640, Note_on_c, 6, 31, 0
4, 85640, Note_on_c, 6, 31, 127
4, 85680, Note_on_c, 6, 31, 0
4, 85680, Note_on_c, 6, 31, 127
4, 85720, Note_on_c, 6, 31, 0
4, 85720, Note_on_c, 6, 31, 127
4, 85760, Note_on_c, 6, 31, 0
4, 85760, Note_on_c, 6, 31, 127
4, 85800, Note_on_c, 6, 31, 0
4, 85800, Note_on_c, 6, 43, 127
4, 85800, Note_on_c, 6, 38, 127
4, 85920, Note_on_c, 6, 43, 0
4, 85920, Note_on_c, 6, 38, 0
4, 85920, Note_on_c, 6, 44, 127
4, 85920, Note_on_c, 6, 39, 127
4, 86040, Note_on_c, 6, 44, 0
4, 86040, Note_on_c, 6, 39, 0
4, 86040, Note_on_c, 6, 29, 127
4, 86080, Note_on_c, 6, 29, 0
4, 86080, Note_on_c, 6, 29, 127
4, 86120, Note_on_c, 6, 29, 0
4, 86120, Note_on_c, 6, 29, 127
4, 86160, Note_on_c, 6, 29, 0
4, 86160, Note_on_c, 6, 29, 127
4, 86200, Note_on_c, 6, 29, 0
4, 86200, Note_on_c, 6, 29, 127
4, 86240, Note_on_c, 6, 29, 0
4, 86240, Note_on_c, 6, 29, 127
4, 86280, Note_on_c, 6, 29, 0
4, 86280, Note_on_c, 6, 41, 127
4, 86280, Note_on_c, 6, 36, 127
4, 86280, Note_on_c, 6, 29, 127
4, 86400, Note_on_c, 6, 41, 0
4, 86400, Note_on_c, 6, 36, 0
4, 86400, Note_on_c, 6, 29, 0
4, 86400, Note_on_c, 6, 41, 127
4, 86400, Note_on_c, 6, 36, 127
4, 86400, Note_on_c, 6, 29, 127
4, 86520, Note_on_c, 6, 41, 0
4, 86520, Note_on_c, 6, 36, 0
4, 86520, Note_on_c, 6, 29, 0
4, 86520, Note_on_c, 6, 31, 127
4, 86580, Note_on_c, 6, 31, 0
4, 86580, Note_on_c, 6, 31, 127
4, 86640, Note_on_c, 6, 31, 0
4, 86640, Note_on_c, 6, 43, 127
4, 86640, Note_on_c, 6, 38, 127
4, 86640, Note_on_c, 6, 31, 127
4, 86760, Note_on_c, 6, 43, 0
4, 86760, Note_on_c, 6, 38, 0
4, 86760, Note_on_c, 6, 31, 0
4, 86760, Note_on_c, 6, 31, 127
4, 86820, Note_on_c, 6, 31, 0
4, 86820, Note_on_c, 6, 31, 127
4, 86880, Note_on_c, 6, 31, 0
4, 86880, Note_on_c, 6, 43, 127
4, 86880, Note_on_c, 6, 38, 127
4, 86880, Note_on_c, 6, 31, 127
4, 87000, Note_on_c, 6, 43, 0
4, 87000, Note_on_c, 6, 38, 0
4, 87000, Note_on_c, 6, 31, 0
4, 87000, Note_on_c, 6, 31, 127
4, 87060, Note_on_c, 6, 31, 0
4, 87060, Note_on_c, 6, 31, 127
4, 87120, Note_on_c, 6, 31, 0
4, 87120, Note_on_c, 6, 43, 127
4, 87120, Note_on_c, 6, 38, 127
4, 87120, Note_on_c, 6, 31, 127
4, 87240, Note_on_c, 6, 43, 0
4, 87240, Note_on_c, 6, 38, 0
4, 87240, Note_on_c, 6, 31, 0
4, 87240, Note_on_c, 6, 31, 127
4, 87300, Note_on_c, 6, 31, 0
4, 87300, Note_on_c, 6, 31, 127
4, 87360, Note_on_c, 6, 31, 0
4, 87360, Note_on_c, 6, 43, 127
4, 87360, Note_on_c, 6, 38, 127
4, 87360, Note_on_c, 6, 31, 127
4, 87480, Note_on_c, 6, 43, 0
4, 87480, Note_on_c, 6, 38, 0
4, 87480, Note_on_c, 6, 31, 0
4, 87480, Note_on_c, 6, 29, 127
4, 87520, Note_on_c, 6, 29, 0
4, 87520, Note_on_c, 6, 29, 127
4, 87560, Note_on_c, 6, 29, 0
4, 87560, Note_on_c, 6, 29, 127
4, 87600, Note_on_c, 6, 29, 0
4, 87600, Note_on_c, 6, 29, 127
4, 87640, Note_on_c, 6, 29, 0
4, 87640, Note_on_c, 6, 29, 127
4, 87680, Note_on_c, 6, 29, 0
4, 87680, Note_on_c, 6, 29, 127
4, 87720, Note_on_c, 6, 29, 0
4, 87720, Note_on_c, 6, 36, 127
4, 87720, Note_on_c, 6, 29, 127
4, 87840, Note_on_c, 6, 36, 0
4, 87840, Note_on_c, 6, 29, 0
4, 87840, Note_on_c, 6, 36, 127
4, 87840, Note_on_c, 6, 29, 127
4, 87960, Note_on_c, 6, 36, 0
4, 87960, Note_on_c, 6, 29, 0
4, 87960, Note_on_c, 6, 29, 127
4, 88000, Note_on_c, 6, 29, 0
4, 88000, Note_on_c, 6, 29, 127
4, 88040, Note_on_c, 6, 29, 0
4, 88040, Note_on_c, 6, 29, 127
4, 88080, Note_on_c, 6, 29, 0
4, 88080, Note_on_c, 6, 29, 127
4, 88120, Note_on_c, 6, 29, 0
4, 88120, Note_on_c, 6, 29, 127
4, 88160, Note_on_c, 6, 29, 0
4, 88160, Note_on_c, 6, 29, 127
4, 88200, Note_on_c, 6, 29, 0
4, 88200, Note_on_c, 6, 36, 127
4, 88200, Note_on_c, 6, 29, 127
4, 88320, Note_on_c, 6, 36, 0
4, 88320, Note_on_c, 6, 29, 0
4, 88320, Note_on_c, 6, 36, 127
4, 88320, Note_on_c, 6, 29, 127
4, 88440, Note_on_c, 6, 36, 0
4, 88440, Note_on_c, 6, 29, 0
4, 88440, Note_on_c, 6, 31, 127
4, 88500, Note_on_c, 6, 31, 0
4, 88500, Note_on_c, 6, 31, 127
4, 88560, Note_on_c, 6, 31, 0
4, 88560, Note_on_c, 6, 43, 127
4, 88560, Note_on_c, 6, 38, 127
4, 88560, Note_on_c, 6, 31, 127
4, 88680, Note_on_c, 6, 43, 0
4, 88680, Note_on_c, 6, 38, 0
4, 88680, Note_on_c, 6, 31, 0
4, 88680, Note_on_c, 6, 31, 127
4, 88740, Note_on_c, 6, 31, 0
4, 88740, Note_on_c, 6, 31, 127
4, 88800, Note_on_c, 6, 31, 0
4, 88800, Note_on_c, 6, 43, 127
4, 88800, Note_on_c, 6, 38, 127
4, 88800, Note_on_c, 6, 31, 127
4, 88920, Note_on_c, 6, 43, 0
4, 88920, Note_on_c, 6, 38, 0
4, 88920, Note_on_c, 6, 31, 0
4, 88920, Note_on_c, 6, 31, 127
4, 88980, Note_on_c, 6, 31, 0
4, 88980, Note_on_c, 6, 31, 127
4, 89040, Note_on_c, 6, 31, 0
4, 89040, Note_on_c, 6, 43, 127
4, 89040, Note_on_c, 6, 38, 127
4, 89040, Note_on_c, 6, 31, 127
4, 89160, Note_on_c, 6, 43, 0
4, 89160, Note_on_c, 6, 38, 0
4, 89160, Note_on_c, 6, 31, 0
4, 89160, Note_on_c, 6, 31, 127
4, 89220, Note_on_c, 6, 31, 0
4, 89220, Note_on_c, 6, 31, 127
4, 89280, Note_on_c, 6, 31, 0
4, 89280, Note_on_c, 6, 43, 127
4, 89280, Note_on_c, 6, 38, 127
4, 89280, Note_on_c, 6, 31, 127
4, 89400, Note_on_c, 6, 43, 0
4, 89400, Note_on_c, 6, 38, 0
4, 89400, Note_on_c, 6, 31, 0
4, 89400, Note_on_c, 6, 29, 127
4, 89440, Note_on_c, 6, 29, 0
4, 89440, Note_on_c, 6, 29, 127
4, 89480, Note_on_c, 6, 29, 0
4, 89480, Note_on_c, 6, 29, 127
4, 89520, Note_on_c, 6, 29, 0
4, 89520, Note_on_c, 6, 29, 127
4, 89560, Note_on_c, 6, 29, 0
4, 89560, Note_on_c, 6, 29, 127
4, 89600, Note_on_c, 6, 29, 0
4, 89600, Note_on_c, 6, 29, 127
4, 89640, Note_on_c, 6, 29, 0
4, 89640, Note_on_c, 6, 36, 127
4, 89640, Note_on_c, 6, 29, 127
4, 89760, Note_on_c, 6, 36, 0
4, 89760, Note_on_c, 6, 29, 0
4, 89760, Note_on_c, 6, 36, 127
4, 89760, Note_on_c, 6, 29, 127
4, 89880, Note_on_c, 6, 36, 0
4, 89880, Note_on_c, 6, 29, 0
4, 89880, Note_on_c, 6, 29, 127
4, 89920, Note_on_c, 6, 29, 0
4, 89920, Note_on_c, 6, 29, 127
4, 89960, Note_on_c, 6, 29, 0
4, 89960, Note_on_c, 6, 29, 127
4, 90000, Note_on_c, 6, 29, 0
4, 90000, Note_on_c, 6, 29, 127
4, 90040, Note_on_c, 6, 29, 0
4, 90040, Note_on_c, 6, 29, 127
4, 90080, Note_on_c, 6, 29, 0
4, 90080, Note_on_c, 6, 29, 127
4, 90120, Note_on_c, 6, 29, 0
4, 90120, Note_on_c, 6, 36, 127
4, 90120, Note_on_c, 6, 29, 127
4, 90240, Note_on_c, 6, 36, 0
4, 90240, Note_on_c, 6, 29, 0
4, 90240, Note_on_c, 6, 36, 127
4, 90240, Note_on_c, 6, 29, 127
4, 90360, Note_on_c, 6, 36, 0
4, 90360, Note_on_c, 6, 29, 0
4, 96120, Note_on_c, 6, 55, 127
4, 96120, Note_on_c, 6, 52, 127
4, 96160, Note_on_c, 6, 55, 0
4, 96160, Note_on_c, 6, 52, 0
4, 96160, Note_on_c, 6, 55, 127
4, 96160, Note_on_c, 6, 52, 127
4, 96200, Note_on_c, 6, 55, 0
4, 96200, Note_on_c, 6, 52, 0
4, 96200, Note_on_c, 6, 55, 127
4, 96200, Note_on_c, 6, 52, 127
4, 96240, Note_on_c, 6, 55, 0
4, 96240, Note_on_c, 6, 52, 0
4, 96240, Pitch_bend_c, 6, 8192
4, 96240, Note_on_c, 6, 50, 127
4, 96240, Note_on_c, 6, 54, 127
4, 96241, Pitch_bend_c, 6, 8397
4, 96242, Pitch_bend_c, 6, 8602
4, 96243, Pitch_bend_c, 6, 8807
4, 96244, Pitch_bend_c, 6, 9012
4, 96245, Pitch_bend_c, 6, 9216
4, 96246, Pitch_bend_c, 6, 9421
4, 96247, Pitch_bend_c, 6, 9626
4, 96248, Pitch_bend_c, 6, 9831
4, 96249, Pitch_bend_c, 6, 10036
4, 96250, Pitch_bend_c, 6, 10240
4, 96360, Note_on_c, 6, 50, 0
4, 96360, Note_on_c, 6, 54, 0
4, 96360, Pitch_bend_c, 6, 8192
4, 96360, Note_on_c, 6, 47, 127
4, 96360, Note_on_c, 6, 50, 127
4, 96480, Note_on_c, 6, 47, 0
4, 96480, Note_on_c, 6, 50, 0
4, 96480, Note_on_c, 6, 57, 127
4, 96480, Note_on_c, 6, 54, 127
4, 96520, Note_on_c, 6, 57, 0
4, 96520, Note_on_c, 6, 54, 0
4, 96520, Note_on_c, 6, 54, 127
4, 96520, Note_on_c, 6, 57, 127
4, 96560, Note_on_c, 6, 54, 0
4, 96560, Note_on_c, 6, 57, 0
4, 96560, Note_on_c, 6, 54, 127
4, 96560, Note_on_c, 6, 57, 127
4, 96600, Note_on_c, 6, 54, 0
4, 96600, Note_on_c, 6, 57, 0
4, 96600, Pitch_bend_c, 6, 8192
4, 96600, Note_on_c, 6, 52, 127
4, 96600, Note_on_c, 6, 55, 127
4, 96601, Pitch_bend_c, 6, 8397
4, 96602, Pitch_bend_c, 6, 8602
4, 96603, Pitch_bend_c, 6, 8807
4, 96604, Pitch_bend_c, 6, 9012
4, 96605, Pitch_bend_c, 6, 9216
4, 96606, Pitch_bend_c, 6, 9421
4, 96607, Pitch_bend_c, 6, 9626
4, 96608, Pitch_bend_c, 6, 9831
4, 96609, Pitch_bend_c, 6, 10036
4, 96610, Pitch_bend_c, 6, 10240
4, 96720, Note_on_c, 6, 52, 0
4, 96720, Note_on_c, 6, 55, 0
4, 96720, Pitch_bend_c, 6, 8192
4, 96720, Note_on_c, 6, 47, 127
4, 96720, Note_on_c, 6, 52, 127
4, 96840, Note_on_c, 6, 47, 0
4, 96840, Note_on_c, 6, 52, 0
4, 96840, Note_on_c, 6, 59, 127
4, 96840, Note_on_c, 6, 55, 127
4, 96880, Note_on_c, 6, 59, 0
4, 96880, Note_on_c, 6, 55, 0
4, 96880, Note_on_c, 6, 59, 127
4, 96880, Note_on_c, 6, 55, 127
4, 96920, Note_on_c, 6, 59, 0
4, 96920, Note_on_c, 6, 55, 0
4, 96920, Note_on_c, 6, 59, 127
4, 96920, Note_on_c, 6, 55, 127
4, 96960, Note_on_c, 6, 59, 0
4, 96960, Note_on_c, 6, 55, 0
4, 96960, Note_on_c, 6, 57, 127
4, 96960, Note_on_c, 6, 54, 127
4, 97080, Note_on_c, 6, 57, 0
4, 97080, Note_on_c, 6, 54, 0
4, 97080, Note_on_c, 6, 59, 127
4, 97080, Note_on_c, 6, 55, 127
4, 97120, Note_on_c, 6, 59, 0
4, 97120, Note_on_c, 6, 55, 0
4, 97120, Note_on_c, 6, 54, 127
4, 97120, Note_on_c, 6, 57, 127
4, 97160, Note_on_c, 6, 54, 0
4, 97160, Note_on_c, 6, 57, 0
4, 97160, Note_on_c, 6, 55, 127
4, 97160, Note_on_c, 6, 52, 127
4, 97200, Note_on_c, 6, 55, 0
4, 97200, Note_on_c, 6, 52, 0
4, 97200, Note_on_c, 6, 57, 127
4, 97200, Note_on_c, 6, 54, 127
4, 97320, Note_on_c, 6, 57, 0
4, 97320, Note_on_c, 6, 54, 0
4, 97320, Note_on_c, 6, 57, 127
4, 97320, Note_on_c, 6, 54, 127
4, 97360, Note_on_c, 6, 57, 0
4, 97360, Note_on_c, 6, 54, 0
4, 97360, Note_on_c, 6, 52, 127
4, 97360, Note_on_c, 6, 55, 127
4, 97400, Note_on_c, 6, 52, 0
4, 97400, Note_on_c, 6, 55, 0
4, 97400, Note_on_c, 6, 54, 127
4, 97400, Note_on_c, 6, 50, 127
4, 97440, Note_on_c, 6, 54, 0
4, 97440, Note_on_c, 6, 50, 0
4, 97440, Note_on_c, 6, 52, 127
4, 97440, Note_on_c, 6, 55, 127
4, 97560, Note_on_c, 6, 52, 0
4, 97560, Note_on_c, 6, 55, 0
4, 97560, Note_on_c, 6, 52, 127
4, 97560, Note_on_c, 6, 55, 127
4, 97600, Note_on_c, 6, 52, 0
4, 97600, Note_on_c, 6, 55, 0
4, 97600, Note_on_c, 6, 54, 127
4, 97600, Note_on_c, 6, 50, 127
4, 97640, Note_on_c, 6, 54, 0
4, 97640, Note_on_c, 6, 50, 0
4, 97640, Note_on_c, 6, 49, 127
4, 97640, Note_on_c, 6, 52, 127
4, 97680, Note_on_c, 6, 49, 0
4, 97680, Note_on_c, 6, 52, 0
4, 97680, Note_on_c, 6, 50, 127
4, 97680, Note_on_c, 6, 54, 127
4, 97800, Note_on_c, 6, 50, 0
4, 97800, Note_on_c, 6, 54, 0
4, 97800, Note_on_c, 6, 54, 127
4, 97800, Note_on_c, 6, 50, 127
4, 97840, Note_on_c, 6, 54, 0
4, 97840, Note_on_c, 6, 50, 0
4, 97840, Note_on_c, 6, 49, 127
4, 97840, Note_on_c, 6, 52, 127
4, 97880, Note_on_c, 6, 49, 0
4, 97880, Note_on_c, 6, 52, 0
4, 97880, Note_on_c, 6, 50, 127
4, 97880, Note_on_c, 6, 47, 127
4, 97920, Note_on_c, 6, 50, 0
4, 97920, Note_on_c, 6, 47, 0
4, 97920, Note_on_c, 6, 48, 127
4, 97920, Note_on_c, 6, 52, 127
4, 98040, Note_on_c, 6, 48, 0
4, 98040, Note_on_c, 6, 52, 0
4, 98040, Note_on_c, 6, 55, 127
4, 98040, Note_on_c, 6, 52, 127
4, 98080, Note_on_c, 6, 55, 0
4, 98080, Note_on_c, 6, 52, 0
4, 98080, Note_on_c, 6, 55, 127
4, 98080, Note_on_c, 6, 52, 127
4, 98120, Note_on_c, 6, 55, 0
4, 98120, Note_on_c, 6, 52, 0
4, 98120, Note_on_c, 6, 55, 127
4, 98120, Note_on_c, 6, 52, 127
4, 98160, Note_on_c, 6, 55, 0
4, 98160, Note_on_c, 6, 52, 0
4, 98160, Note_on_c, 6, 50, 127
4, 98160, Note_on_c, 6, 54, 127
4, 98280, Note_on_c, 6, 50, 0
4, 98280, Note_on_c, 6, 54, 0
4, 98280, Note_on_c, 6, 47, 127
4, 98280, Note_on_c, 6, 50, 127
4, 98400, Note_on_c, 6, 47, 0
4, 98400, Note_on_c, 6, 50, 0
4, 98400, Note_on_c, 6, 57, 127
4, 98400, Note_on_c, 6, 54, 127
4, 98440, Note_on_c, 6, 57, 0
4, 98440, Note_on_c, 6, 54, 0
4, 98440, Note_on_c, 6, 54, 127
4, 98440, Note_on_c, 6, 57, 127
4, 98480, Note_on_c, 6, 54, 0
4, 98480, Note_on_c, 6, 57, 0
4, 98480, Note_on_c, 6, 54, 127
4, 98480, Note_on_c, 6, 57, 127
4, 98520, Note_on_c, 6, 54, 0
4, 98520, Note_on_c, 6, 57, 0
4, 98520, Note_on_c, 6, 52, 127
4, 98520, Note_on_c, 6, 55, 127
4, 98640, Note_on_c, 6, 52, 0
4, 98640, Note_on_c, 6, 55, 0
4, 98640, Note_on_c, 6, 47, 127
4, 98640, Note_on_c, 6, 52, 127
4, 98760, Note_on_c, 6, 47, 0
4, 98760, Note_on_c, 6, 52, 0
4, 98760, Note_on_c, 6, 59, 127
4, 98760, Note_on_c, 6, 55, 127
4, 98800, Note_on_c, 6, 59, 0
4, 98800, Note_on_c, 6, 55, 0
4, 98800, Note_on_c, 6, 59, 127
4, 98800, Note_on_c, 6, 55, 127
4, 98840, Note_on_c, 6, 59, 0
4, 98840, Note_on_c, 6, 55, 0
4, 98840, Note_on_c, 6, 59, 127
4, 98840, Note_on_c, 6, 55, 127
4, 98880, Note_on_c, 6, 59, 0
4, 98880, Note_on_c, 6, 55, 0
4, 98880, Note_on_c, 6, 57, 127
4, 98880, Note_on_c, 6, 54, 127
4, 99000, Note_on_c, 6, 57, 0
4, 99000, Note_on_c, 6, 54, 0
4, 99000, Note_on_c, 6, 59, 127
4, 99000, Note_on_c, 6, 55, 127
4, 99040, Note_on_c, 6, 59, 0
4, 99040, Note_on_c, 6, 55, 0
4, 99040, Note_on_c, 6, 54, 127
4, 99040, Note_on_c, 6, 57, 127
4, 99080, Note_on_c, 6, 54, 0
4, 99080, Note_on_c, 6, 57, 0
4, 99080, Note_on_c, 6, 55, 127
4, 99080, Note_on_c, 6, 52, 127
4, 99120, Note_on_c, 6, 55, 0
4, 99120, Note_on_c, 6, 52, 0
4, 99120, Note_on_c, 6, 57, 127
4, 99120, Note_on_c, 6, 54, 127
4, 99240, Note_on_c, 6, 57, 0
4, 99240, Note_on_c, 6, 54, 0
4, 99240, Note_on_c, 6, 57, 127
4, 99240, Note_on_c, 6, 54, 127
4, 99280, Note_on_c, 6, 57, 0
4, 99280, Note_on_c, 6, 54, 0
4, 99280, Note_on_c, 6, 52, 127
4, 99280, Note_on_c, 6, 55, 127
4, 99320, Note_on_c, 6, 52, 0
4, 99320, Note_on_c, 6, 55, 0
4, 99320, Note_on_c, 6, 54, 127
4, 99320, Note_on_c, 6, 50, 127
4, 99360, Note_on_c, 6, 54, 0
4, 99360, Note_on_c, 6, 50, 0
4, 99360, Note_on_c, 6, 52, 127
4, 99360, Note_on_c, 6, 55, 127
4, 99480, Note_on_c, 6, 52, 0
4, 99480, Note_on_c, 6, 55, 0
4, 99480, Note_on_c, 6, 60, 127
4, 99480, Note_on_c, 6, 57, 127
4, 99520, Note_on_c, 6, 60, 0
4, 99520, Note_on_c, 6, 57, 0
4, 99520, Note_on_c, 6, 55, 127
4, 99520, Note_on_c, 6, 59, 127
4, 99560, Note_on_c, 6, 55, 0
4, 99560, Note_on_c, 6, 59, 0
4, 99560, Note_on_c, 6, 57, 127
4, 99560, Note_on_c, 6, 54, 127
4, 99600, Note_on_c, 6, 57, 0
4, 99600, Note_on_c, 6, 54, 0
4, 99600, Note_on_c, 6, 55, 127
4, 99600, Note_on_c, 6, 59, 127
4, 99720, Note_on_c, 6, 55, 0
4, 99720, Note_on_c, 6, 59, 0
4, 99720, Note_on_c, 6, 59, 127
4, 99720, Note_on_c, 6, 55, 127
4, 99760, Note_on_c, 6, 59, 0
4, 99760, Note_on_c, 6, 55, 0
4, 99760, Note_on_c, 6, 54, 127
4, 99760, Note_on_c, 6, 57, 127
4, 99800, Note_on_c, 6, 54, 0
4, 99800, Note_on_c, 6, 57, 0
4, 99800, Note_on_c, 6, 55, 127
4, 99800, Note_on_c, 6, 52, 127
4, 99840, Note_on_c, 6, 55, 0
4, 99840, Note_on_c, 6, 52, 0
4, 99840, Note_on_c, 6, 54, 127
4, 99840, Note_on_c, 6, 57, 127
4, 99960, Note_on_c, 6, 54, 0
4, 99960, Note_on_c, 6, 57, 0
4, 99960, Note_on_c, 6, 55, 127
4, 99960, Note_on_c, 6, 52, 127
4, 100000, Note_on_c, 6, 55, 0
4, 100000, Note_on_c, 6, 52, 0
4, 100000, Note_on_c, 6, 55, 127
4, 100000, Note_on_c, 6, 52, 127
4, 100040, Note_on_c, 6, 55, 0
4, 100040, Note_on_c, 6, 52, 0
4, 100040, Note_on_c, 6, 55, 127
4, 100040, Note_on_c, 6, 52, 127
4, 100080, Note_on_c, 6, 55, 0
4, 100080, Note_on_c, 6, 52, 0
4, 100080, Note_on_c, 6, 50, 127
4, 100080, Note_on_c, 6, 54, 127
4, 100200, Note_on_c, 6, 50, 0
4, 100200, Note_on_c, 6, 54, 0
4, 100200, Note_on_c, 6, 47, 127
4, 100200, Note_on_c, 6, 50, 127
4, 100320, Note_on_c, 6, 47, 0
4, 100320, Note_on_c, 6, 50, 0
4, 100320, Note_on_c, 6, 57, 127
4, 100320, Note_on_c, 6, 54, 127
4, 100360, Note_on_c, 6, 57, 0
4, 100360, Note_on_c, 6, 54, 0
4, 100360, Note_on_c, 6, 54, 127
4, 100360, Note_on_c, 6, 57, 127
4, 100400, Note_on_c, 6, 54, 0
4, 100400, Note_on_c, 6, 57, 0
4, 100400, Note_on_c, 6, 54, 127
4, 100400, Note_on_c, 6, 57, 127
4, 100440, Note_on_c, 6, 54, 0
4, 100440, Note_on_c, 6, 57, 0
4, 100440, Note_on_c, 6, 52, 127
4, 100440, Note_on_c, 6, 55, 127
4, 100560, Note_on_c, 6, 52, 0
4, 100560, Note_on_c, 6, 55, 0
4, 100560, Note_on_c, 6, 47, 127
4, 100560, Note_on_c, 6, 52, 127
4, 100680, Note_on_c, 6, 47, 0
4, 100680, Note_on_c, 6, 52, 0
4, 100680, Note_on_c, 6, 59, 127
4, 100680, Note_on_c, 6, 55, 127
4, 100720, Note_on_c, 6, 59, 0
4, 100720, Note_on_c, 6, 55, 0
4, 100720, Note_on_c, 6, 59, 127
4, 100720, Note_on_c, 6, 55, 127
4, 100760, Note_on_c, 6, 59, 0
4, 100760, Note_on_c, 6, 55, 0
4, 100760, Note_on_c, 6, 59, 127
4, 100760, Note_on_c, 6, 55, 127
4, 100800, Note_on_c, 6, 59, 0
4, 100800, Note_on_c, 6, 55, 0
4, 100800, Note_on_c, 6, 57, 127
4, 100800, Note_on_c, 6, 54, 127
4, 100920, Note_on_c, 6, 57, 0
4, 100920, Note_on_c, 6, 54, 0
4, 100920, Note_on_c, 6, 59, 127
4, 100920, Note_on_c, 6, 55, 127
4, 100960, Note_on_c, 6, 59, 0
4, 100960, Note_on_c, 6, 55, 0
4, 100960, Note_on_c, 6, 54, 127
4, 100960, Note_on_c, 6, 57, 127
4, 101000, Note_on_c, 6, 54, 0
4, 101000, Note_on_c, 6, 57, 0
4, 101000, Note_on_c, 6, 55, 127
4, 101000, Note_on_c, 6, 52, 127
4, 101040, Note_on_c, 6, 55, 0
4, 101040, Note_on_c, 6, 52, 0
4, 101040, Note_on_c, 6, 57, 127
4, 101040, Note_on_c, 6, 54, 127
4, 101160, Note_on_c, 6, 57, 0
4, 101160, Note_on_c, 6, 54, 0
4, 101160, Note_on_c, 6, 57, 127
4, 101160, Note_on_c, 6, 54, 127
4, 101200, Note_on_c, 6, 57, 0
4, 101200, Note_on_c, 6, 54, 0
4, 101200, Note_on_c, 6, 52, 127
4, 101200, Note_on_c, 6, 55, 127
4, 101240, Note_on_c, 6, 52, 0
4, 101240, Note_on_c, 6, 55, 0
4, 101240, Note_on_c, 6, 54, 127
4, 101240, Note_on_c, 6, 50, 127
4, 101280, Note_on_c, 6, 54, 0
4, 101280, Note_on_c, 6, 50, 0
4, 101280, Note_on_c, 6, 52, 127
4, 101280, Note_on_c, 6, 55, 127
4, 101400, Note_on_c, 6, 52, 0
4, 101400, Note_on_c, 6, 55, 0
4, 101400, Note_on_c, 6, 52, 127
4, 101400, Note_on_c, 6, 55, 127
4, 101440, Note_on_c, 6, 52, 0
4, 101440, Note_on_c, 6, 55, 0
4, 101440, Note_on_c, 6, 54, 127
4, 101440, Note_on_c, 6, 50, 127
4, 101480, Note_on_c, 6, 54, 0
4, 101480, Note_on_c, 6, 50, 0
4, 101480, Note_on_c, 6, 49, 127
4, 101480, Note_on_c, 6, 52, 127
4, 101520, Note_on_c, 6, 49, 0
4, 101520, Note_on_c, 6, 52, 0
4, 101520, Note_on_c, 6, 50, 127
4, 101520, Note_on_c, 6, 54, 127
4, 101640, Note_on_c, 6, 50, 0
4, 101640, Note_on_c, 6, 54, 0
4, 101640, Note_on_c, 6, 54, 127
4, 101640, Note_on_c, 6, 50, 127
4, 101680, Note_on_c, 6, 54, 0
4, 101680, Note_on_c, 6, 50, 0
4, 101680, Note_on_c, 6, 49, 127
4, 101680, Note_on_c, 6, 52, 127
4, 101720, Note_on_c, 6, 49, 0
4, 101720, Note_on_c, 6, 52, 0
4, 101720, Note_on_c, 6, 50, 127
4, 101720, Note_on_c, 6, 47, 127
4, 101760, Note_on_c, 6, 50, 0
4, 101760, Note_on_c, 6, 47, 0
4, 101760, Note_on_c, 6, 48, 127
4, 101760, Note_on_c, 6, 52, 127
4, 101880, Note_on_c, 6, 48, 0
4, 101880, Note_on_c, 6, 52, 0
4, 101880, Note_on_c, 6, 55, 127
4, 101880, Note_on_c, 6, 52, 127
4, 101920, Note_on_c, 6, 55, 0
4, 101920, Note_on_c, 6, 52, 0
4, 101920, Note_on_c, 6, 55, 127
4, 101920, Note_on_c, 6, 52, 127
4, 101960, Note_on_c, 6, 55, 0
4, 101960, Note_on_c, 6, 52, 0
4, 101960, Note_on_c, 6, 55, 127
4, 101960, Note_on_c, 6, 52, 127
4, 102000, Note_on_c, 6, 55, 0
4, 102000, Note_on_c, 6, 52, 0
4, 102000, Note_on_c, 6, 50, 127
4, 102000, Note_on_c, 6, 54, 127
4, 102120, Note_on_c, 6, 50, 0
4, 102120, Note_on_c, 6, 54, 0
4, 102120, Note_on_c, 6, 47, 127
4, 102120, Note_on_c, 6, 50, 127
4, 102240, Note_on_c, 6, 47, 0
4, 102240, Note_on_c, 6, 50, 0
4, 102240, Note_on_c, 6, 57, 127
4, 102240, Note_on_c, 6, 54, 127
4, 102280, Note_on_c, 6, 57, 0
4, 102280, Note_on_c, 6, 54, 0
4, 102280, Note_on_c, 6, 54, 127
4, 102280, Note_on_c, 6, 57, 127
4, 102320, Note_on_c, 6, 54, 0
4, 102320, Note_on_c, 6, 57, 0
4, 102320, Note_on_c, 6, 54, 127
4, 102320, Note_on_c, 6, 57, 127
4, 102360, Note_on_c, 6, 54, 0
4, 102360, Note_on_c, 6, 57, 0
4, 102360, Note_on_c, 6, 52, 127
4, 102360, Note_on_c, 6, 55, 127
4, 102480, Note_on_c, 6, 52, 0
4, 102480, Note_on_c, 6, 55, 0
4, 102480, Note_on_c, 6, 47, 127
4, 102480, Note_on_c, 6, 52, 127
4, 102600, Note_on_c, 6, 47, 0
4, 102600, Note_on_c, 6, 52, 0
4, 102600, Note_on_c, 6, 59, 127
4, 102600, Note_on_c, 6, 55, 127
4, 102640, Note_on_c, 6, 59, 0
4, 102640, Note_on_c, 6, 55, 0
4, 102640, Note_on_c, 6, 59, 127
4, 102640, Note_on_c, 6, 55, 127
4, 102680, Note_on_c, 6, 59, 0
4, 102680, Note_on_c, 6, 55, 0
4, 102680, Note_on_c, 6, 59, 127
4, 102680, Note_on_c, 6, 55, 127
4, 102720, Note_on_c, 6, 59, 0
4, 102720, Note_on_c, 6, 55, 0
4, 102720, Note_on_c, 6, 57, 127
4, 102720, Note_on_c, 6, 54, 127
4, 102840, Note_on_c, 6, 57, 0
4, 102840, Note_on_c, 6, 54, 0
4, 102840, Note_on_c, 6, 59, 127
4, 102840, Note_on_c, 6, 55, 127
4, 102880, Note_on_c, 6, 59, 0
4, 102880, Note_on_c, 6, 55, 0
4, 102880, Note_on_c, 6, 54, 127
4, 102880, Note_on_c, 6, 57, 127
4, 102920, Note_on_c, 6, 54, 0
4, 102920, Note_on_c, 6, 57, 0
4, 102920, Note_on_c, 6, 55, 127
4, 102920, Note_on_c, 6, 52, 127
4, 102960, Note_on_c, 6, 55, 0
4, 102960, Note_on_c, 6, 52, 0
4, 102960, Note_on_c, 6, 57, 127
4, 102960, Note_on_c, 6, 54, 127
4, 103080, Note_on_c, 6, 57, 0
4, 103080, Note_on_c, 6, 54, 0
4, 103080, Note_on_c, 6, 57, 127
4, 103080, Note_on_c, 6, 54, 127
4, 103120, Note_on_c, 6, 57, 0
4, 103120, Note_on_c, 6, 54, 0
4, 103120, Note_on_c, 6, 52, 127
4, 103120, Note_on_c, 6, 55, 127
4, 103160, Note_on_c, 6, 52, 0
4, 103160, Note_on_c, 6, 55, 0
4, 103160, Note_on_c, 6, 54, 127
4, 103160, Note_on_c, 6, 50, 127
4, 103200, Note_on_c, 6, 54, 0
4, 103200, Note_on_c, 6, 50, 0
4, 103200, Note_on_c, 6, 52, 127
4, 103200, Note_on_c, 6, 55, 127
4, 103320, Note_on_c, 6, 52, 0
4, 103320, Note_on_c, 6, 55, 0
4, 103320, Note_on_c, 6, 52, 127
4, 103320, Note_on_c, 6, 55, 127
4, 103360, Note_on_c, 6, 52, 0
4, 103360, Note_on_c, 6, 55, 0
4, 103360, Note_on_c, 6, 54, 127
4, 103360, Note_on_c, 6, 50, 127
4, 103400, Note_on_c, 6, 54, 0
4, 103400, Note_on_c, 6, 50, 0
4, 103400, Note_on_c, 6, 49, 127
4, 103400, Note_on_c, 6, 52, 127
4, 103440, Note_on_c, 6, 49, 0
4, 103440, Note_on_c, 6, 52, 0
4, 103440, Note_on_c, 6, 50, 127
4, 103440, Note_on_c, 6, 54, 127
4, 103560, Note_on_c, 6, 50, 0
4, 103560, Note_on_c, 6, 54, 0
4, 103560, Note_on_c, 6, 54, 127
4, 103560, Note_on_c, 6, 50, 127
4, 103600, Note_on_c, 6, 54, 0
4, 103600, Note_on_c, 6, 50, 0
4, 103600, Note_on_c, 6, 49, 127
4, 103600, Note_on_c, 6, 52, 127
4, 103640, Note_on_c, 6, 49, 0
4, 103640, Note_on_c, 6, 52, 0
4, 103640, Note_on_c, 6, 50, 127
4, 103640, Note_on_c, 6, 47, 127
4, 103680, Note_on_c, 6, 50, 0
4, 103680, Note_on_c, 6, 47, 0
4, 103680, Note_on_c, 6, 48, 127
4, 103680, Note_on_c, 6, 52, 127
4, 103800, Note_on_c, 6, 48, 0
4, 103800, Note_on_c, 6, 52, 0
4, 103800, Note_on_c, 6, 49, 127
4, 103800, Note_on_c, 6, 52, 127
4, 103840, Note_on_c, 6, 49, 0
4, 103840, Note_on_c, 6, 52, 0
4, 103840, Note_on_c, 6, 47, 127
4, 103840, Note_on_c, 6, 50, 127
4, 103880, Note_on_c, 6, 47, 0
4, 103880, Note_on_c, 6, 50, 0
4, 103880, Note_on_c, 6, 49, 127
4, 103880, Note_on_c, 6, 45, 127
4, 103920, Note_on_c, 6, 49, 0
4, 103920, Note_on_c, 6, 45, 0
4, 103920, Note_on_c, 6, 47, 127
4, 103920, Note_on_c, 6, 50, 127
4, 104040, Note_on_c, 6, 47, 0
4, 104040, Note_on_c, 6, 50, 0
4, 104040, Note_on_c, 6, 50, 127
4, 104040, Note_on_c, 6, 47, 127
4, 104080, Note_on_c, 6, 50, 0
4, 104080, Note_on_c, 6, 47, 0
4, 104080, Note_on_c, 6, 45, 127
4, 104080, Note_on_c, 6, 49, 127
4, 104120, Note_on_c, 6, 45, 0
4, 104120, Note_on_c, 6, 49, 0
4, 104120, Note_on_c, 6, 43, 127
4, 104120, Note_on_c, 6, 47, 127
4, 104160, Note_on_c, 6, 43, 0
4, 104160, Note_on_c, 6, 47, 0
4, 104160, Note_on_c, 6, 49, 127
4, 104160, Note_on_c, 6, 45, 127
4, 104280, Note_on_c, 6, 49, 0
4, 104280, Note_on_c, 6, 45, 0
4, 104280, Note_on_c, 6, 45, 127
4, 104280, Note_on_c, 6, 49, 127
4, 104320, Note_on_c, 6, 45, 0
4, 104320, Note_on_c, 6, 49, 0
4, 104320, Note_on_c, 6, 47, 127
4, 104320, Note_on_c, 6, 43, 127
4, 104360, Note_on_c, 6, 47, 0
4, 104360, Note_on_c, 6, 43, 0
4, 104360, Note_on_c, 6, 42, 127
4, 104360, Note_on_c, 6, 45, 127
4, 104400, Note_on_c, 6, 42, 0
4, 104400, Note_on_c, 6, 45, 0
4, 104400, Note_on_c, 6, 47, 127
4, 104400, Note_on_c, 6, 43, 127
4, 104520, Note_on_c, 6, 47, 0
4, 104520, Note_on_c, 6, 43, 0
4, 104520, Note_on_c, 6, 42, 127
4, 104520, Note_on_c, 6, 47, 127
4, 104560, Note_on_c, 6, 42, 0
4, 104560, Note_on_c, 6, 47, 0
4, 104560, Note_on_c, 6, 45, 127
4, 104560, Note_on_c, 6, 40, 127
4, 104600, Note_on_c, 6, 45, 0
4, 104600, Note_on_c, 6, 40, 0
4, 104600, Note_on_c, 6, 38, 127
4, 104600, Note_on_c, 6, 43, 127
4, 104640, Note_on_c, 6, 38, 0
4, 104640, Note_on_c, 6, 43, 0
4, 104640, Note_on_c, 6, 45, 127
4, 104640, Note_on_c, 6, 42, 127
4, 104760, Note_on_c, 6, 45, 0
4, 104760, Note_on_c, 6, 42, 0
4, 104760, Note_on_c, 6, 28, 127
4, 104800, Note_on_c, 6, 28, 0
4, 104800, Note_on_c, 6, 28, 127
4, 104840, Note_on_c, 6, 28, 0
4, 104840, Note_on_c, 6, 28, 127
4, 104880, Note_on_c, 6, 28, 0
4, 104880, Note_on_c, 6, 28, 127
4, 104920, Note_on_c, 6, 28, 0
4, 104920, Note_on_c, 6, 28, 127
4, 104960, Note_on_c, 6, 28, 0
4, 104960, Note_on_c, 6, 28, 127
4, 105000, Note_on_c, 6, 28, 0
4, 105000, Note_on_c, 6, 40, 127
4, 105000, Note_on_c, 6, 35, 127
4, 105120, Note_on_c, 6, 40, 0
4, 105120, Note_on_c, 6, 35, 0
4, 105120, Note_on_c, 6, 28, 127
4, 105160, Note_on_c, 6, 28, 0
4, 105160, Note_on_c, 6, 28, 127
4, 105200, Note_on_c, 6, 28, 0
4, 105200, Note_on_c, 6, 28, 127
4, 105240, Note_on_c, 6, 28, 0
4, 105240, Note_on_c, 6, 28, 127
4, 105280, Note_on_c, 6, 28, 0
4, 105280, Note_on_c, 6, 28, 127
4, 105320, Note_on_c, 6, 28, 0
4, 105320, Note_on_c, 6, 28, 127
4, 105360, Note_on_c, 6, 28, 0
4, 105360, Note_on_c, 6, 40, 127
4, 105360, Note_on_c, 6, 35, 127
4, 105480, Note_on_c, 6, 40, 0
4, 105480, Note_on_c, 6, 35, 0
4, 105480, Note_on_c, 6, 28, 127
4, 105520, Note_on_c, 6, 28, 0
4, 105520, Note_on_c, 6, 28, 127
4, 105560, Note_on_c, 6, 28, 0
4, 105560, Note_on_c, 6, 28, 127
4, 105600, Note_on_c, 6, 28, 0
4, 105600, Note_on_c, 6, 41, 127
4, 105600, Note_on_c, 6, 36, 127
4, 105720, Note_on_c, 6, 41, 0
4, 105720, Note_on_c, 6, 36, 0
4, 105720, Note_on_c, 6, 28, 127
4, 105760, Note_on_c, 6, 28, 0
4, 105760, Note_on_c, 6, 28, 127
4, 105800, Note_on_c, 6, 28, 0
4, 105800, Note_on_c, 6, 28, 127
4, 105840, Note_on_c, 6, 28, 0
4, 105840, Note_on_c, 6, 28, 127
4, 105880, Note_on_c, 6, 28, 0
4, 105880, Note_on_c, 6, 28, 127
4, 105920, Note_on_c, 6, 28, 0
4, 105920, Note_on_c, 6, 28, 127
4, 105960, Note_on_c, 6, 28, 0
4, 105960, Note_on_c, 6, 40, 127
4, 105960, Note_on_c, 6, 35, 127
4, 106080, Note_on_c, 6, 40, 0
4, 106080, Note_on_c, 6, 35, 0
4, 106080, Note_on_c, 6, 28, 127
4, 106120, Note_on_c, 6, 28, 0
4, 106120, Note_on_c, 6, 28, 127
4, 106160, Note_on_c, 6, 28, 0
4, 106160, Note_on_c, 6, 28, 127
4, 106200, Note_on_c, 6, 28, 0
4, 106200, Note_on_c, 6, 28, 127
4, 106240, Note_on_c, 6, 28, 0
4, 106240, Note_on_c, 6, 28, 127
4, 106280, Note_on_c, 6, 28, 0
4, 106280, Note_on_c, 6, 28, 127
4, 106320, Note_on_c, 6, 28, 0
4, 106320, Note_on_c, 6, 40, 127
4, 106320, Note_on_c, 6, 35, 127
4, 106440, Note_on_c, 6, 40, 0
4, 106440, Note_on_c, 6, 35, 0
4, 106440, Note_on_c, 6, 28, 127
4, 106480, Note_on_c, 6, 28, 0
4, 106480, Note_on_c, 6, 28, 127
4, 106520, Note_on_c, 6, 28, 0
4, 106520, Note_on_c, 6, 28, 127
4, 106560, Note_on_c, 6, 28, 0
4, 106560, Note_on_c, 6, 41, 127
4, 106560, Note_on_c, 6, 36, 127
4, 106680, Note_on_c, 6, 41, 0
4, 106680, Note_on_c, 6, 36, 0
4, 106680, Note_on_c, 6, 28, 127
4, 106720, Note_on_c, 6, 28, 0
4, 106720, Note_on_c, 6, 28, 127
4, 106760, Note_on_c, 6, 28, 0
4, 106760, Note_on_c, 6, 28, 127
4, 106800, Note_on_c, 6, 28, 0
4, 106800, Note_on_c, 6, 28, 127
4, 106840, Note_on_c, 6, 28, 0
4, 106840, Note_on_c, 6, 28, 127
4, 106880, Note_on_c, 6, 28, 0
4, 106880, Note_on_c, 6, 28, 127
4, 106920, Note_on_c, 6, 28, 0
4, 106920, Note_on_c, 6, 40, 127
4, 106920, Note_on_c, 6, 35, 127
4, 107040, Note_on_c, 6, 40, 0
4, 107040, Note_on_c, 6, 35, 0
4, 107040, Note_on_c, 6, 28, 127
4, 107080, Note_on_c, 6, 28, 0
4, 107080, Note_on_c, 6, 28, 127
4, 107120, Note_on_c, 6, 28, 0
4, 107120, Note_on_c, 6, 28, 127
4, 107160, Note_on_c, 6, 28, 0
4, 107160, Note_on_c, 6, 28, 127
4, 107200, Note_on_c, 6, 28, 0
4, 107200, Note_on_c, 6, 28, 127
4, 107240, Note_on_c, 6, 28, 0
4, 107240, Note_on_c, 6, 28, 127
4, 107280, Note_on_c, 6, 28, 0
4, 107280, Note_on_c, 6, 40, 127
4, 107280, Note_on_c, 6, 35, 127
4, 107400, Note_on_c, 6, 40, 0
4, 107400, Note_on_c, 6, 35, 0
4, 107400, Note_on_c, 6, 28, 127
4, 107440, Note_on_c, 6, 28, 0
4, 107440, Note_on_c, 6, 28, 127
4, 107480, Note_on_c, 6, 28, 0
4, 107480, Note_on_c, 6, 28, 127
4, 107520, Note_on_c, 6, 28, 0
4, 107520, Note_on_c, 6, 41, 127
4, 107520, Note_on_c, 6, 36, 127
4, 107640, Note_on_c, 6, 41, 0
4, 107640, Note_on_c, 6, 36, 0
4, 107640, Note_on_c, 6, 28, 127
4, 107680, Note_on_c, 6, 28, 0
4, 107680, Note_on_c, 6, 28, 127
4, 107720, Note_on_c, 6, 28, 0
4, 107720, Note_on_c, 6, 28, 127
4, 107760, Note_on_c, 6, 28, 0
4, 107760, Note_on_c, 6, 28, 127
4, 107800, Note_on_c, 6, 28, 0
4, 107800, Note_on_c, 6, 28, 127
4, 107840, Note_on_c, 6, 28, 0
4, 107840, Note_on_c, 6, 28, 127
4, 107880, Note_on_c, 6, 28, 0
4, 107880, Note_on_c, 6, 40, 127
4, 107880, Note_on_c, 6, 35, 127
4, 108000, Note_on_c, 6, 40, 0
4, 108000, Note_on_c, 6, 35, 0
4, 108000, Note_on_c, 6, 28, 127
4, 108040, Note_on_c, 6, 28, 0
4, 108040, Note_on_c, 6, 28, 127
4, 108080, Note_on_c, 6, 28, 0
4, 108080, Note_on_c, 6, 28, 127
4, 108120, Note_on_c, 6, 28, 0
4, 108120, Note_on_c, 6, 28, 127
4, 108160, Note_on_c, 6, 28, 0
4, 108160, Note_on_c, 6, 28, 127
4, 108200, Note_on_c, 6, 28, 0
4, 108200, Note_on_c, 6, 28, 127
4, 108240, Note_on_c, 6, 28, 0
4, 108240, Note_on_c, 6, 40, 127
4, 108240, Note_on_c, 6, 35, 127
4, 108360, Note_on_c, 6, 40, 0
4, 108360, Note_on_c, 6, 35, 0
4, 108360, Note_on_c, 6, 28, 127
4, 108400, Note_on_c, 6, 28, 0
4, 108400, Note_on_c, 6, 28, 127
4, 108440, Note_on_c, 6, 28, 0
4, 108440, Note_on_c, 6, 28, 127
4, 108480, Note_on_c, 6, 28, 0
4, 108480, Note_on_c, 6, 41, 127
4, 108480, Note_on_c, 6, 36, 127
4, 108600, Note_on_c, 6, 41, 0
4, 108600, Note_on_c, 6, 36, 0
4, 108600, Note_on_c, 6, 31, 127
4, 108660, Note_on_c, 6, 31, 0
4, 108660, Note_on_c, 6, 31, 127
4, 108720, Note_on_c, 6, 31, 0
4, 108720, Note_on_c, 6, 43, 127
4, 108720, Note_on_c, 6, 38, 127
4, 108720, Note_on_c, 6, 31, 127
4, 108840, Note_on_c, 6, 43, 0
4, 108840, Note_on_c, 6, 38, 0
4, 108840, Note_on_c, 6, 31, 0
4, 108840, Note_on_c, 6, 31, 127
4, 108900, Note_on_c, 6, 31, 0
4, 108900, Note_on_c, 6, 31, 127
4, 108960, Note_on_c, 6, 31, 0
4, 108960, Note_on_c, 6, 43, 127
4, 108960, Note_on_c, 6, 38, 127
4, 108960, Note_on_c, 6, 31, 127
4, 109080, Note_on_c, 6, 43, 0
4, 109080, Note_on_c, 6, 38, 0
4, 109080, Note_on_c, 6, 31, 0
4, 109080, Note_on_c, 6, 31, 127
4, 109140, Note_on_c, 6, 31, 0
4, 109140, Note_on_c, 6, 31, 127
4, 109200, Note_on_c, 6, 31, 0
4, 109200, Note_on_c, 6, 43, 127
4, 109200, Note_on_c, 6, 38, 127
4, 109200, Note_on_c, 6, 31, 127
4, 109320, Note_on_c, 6, 43, 0
4, 109320, Note_on_c, 6, 38, 0
4, 109320, Note_on_c, 6, 31, 0
4, 109320, Note_on_c, 6, 31, 127
4, 109380, Note_on_c, 6, 31, 0
4, 109380, Note_on_c, 6, 31, 127
4, 109440, Note_on_c, 6, 31, 0
4, 109440, Note_on_c, 6, 43, 127
4, 109440, Note_on_c, 6, 38, 127
4, 109440, Note_on_c, 6, 31, 127
4, 109560, Note_on_c, 6, 43, 0
4, 109560, Note_on_c, 6, 38, 0
4, 109560, Note_on_c, 6, 31, 0
4, 109560, Note_on_c, 6, 28, 127
4, 109600, Note_on_c, 6, 28, 0
4, 109600, Note_on_c, 6, 28, 127
4, 109640, Note_on_c, 6, 28, 0
4, 109640, Note_on_c, 6, 28, 127
4, 109680, Note_on_c, 6, 28, 0
4, 109680, Note_on_c, 6, 28, 127
4, 109720, Note_on_c, 6, 28, 0
4, 109720, Note_on_c, 6, 28, 127
4, 109760, Note_on_c, 6, 28, 0
4, 109760, Note_on_c, 6, 28, 127
4, 109800, Note_on_c, 6, 28, 0
4, 109800, Note_on_c, 6, 40, 127
4, 109800, Note_on_c, 6, 35, 127
4, 109920, Note_on_c, 6, 40, 0
4, 109920, Note_on_c, 6, 35, 0
4, 109920, Note_on_c, 6, 28, 127
4, 109960, Note_on_c, 6, 28, 0
4, 109960, Note_on_c, 6, 28, 127
4, 110000, Note_on_c, 6, 28, 0
4, 110000, Note_on_c, 6, 28, 127
4, 110040, Note_on_c, 6, 28, 0
4, 110040, Note_on_c, 6, 28, 127
4, 110080, Note_on_c, 6, 28, 0
4, 110080, Note_on_c, 6, 28, 127
4, 110120, Note_on_c, 6, 28, 0
4, 110120, Note_on_c, 6, 28, 127
4, 110160, Note_on_c, 6, 28, 0
4, 110160, Note_on_c, 6, 40, 127
4, 110160, Note_on_c, 6, 35, 127
4, 110280, Note_on_c, 6, 40, 0
4, 110280, Note_on_c, 6, 35, 0
4, 110280, Note_on_c, 6, 28, 127
4, 110320, Note_on_c, 6, 28, 0
4, 110320, Note_on_c, 6, 28, 127
4, 110360, Note_on_c, 6, 28, 0
4, 110360, Note_on_c, 6, 28, 127
4, 110400, Note_on_c, 6, 28, 0
4, 110400, Note_on_c, 6, 41, 127
4, 110400, Note_on_c, 6, 36, 127
4, 110520, Note_on_c, 6, 41, 0
4, 110520, Note_on_c, 6, 36, 0
4, 110520, Note_on_c, 6, 31, 127
4, 110580, Note_on_c, 6, 31, 0
4, 110580, Note_on_c, 6, 31, 127
4, 110640, Note_on_c, 6, 31, 0
4, 110640, Note_on_c, 6, 43, 127
4, 110640, Note_on_c, 6, 38, 127
4, 110640, Note_on_c, 6, 31, 127
4, 110760, Note_on_c, 6, 43, 0
4, 110760, Note_on_c, 6, 38, 0
4, 110760, Note_on_c, 6, 31, 0
4, 110760, Note_on_c, 6, 31, 127
4, 110820, Note_on_c, 6, 31, 0
4, 110820, Note_on_c, 6, 31, 127
4, 110880, Note_on_c, 6, 31, 0
4, 110880, Note_on_c, 6, 43, 127
4, 110880, Note_on_c, 6, 38, 127
4, 110880, Note_on_c, 6, 31, 127
4, 111000, Note_on_c, 6, 43, 0
4, 111000, Note_on_c, 6, 38, 0
4, 111000, Note_on_c, 6, 31, 0
4, 111000, Note_on_c, 6, 31, 127
4, 111060, Note_on_c, 6, 31, 0
4, 111060, Note_on_c, 6, 31, 127
4, 111120, Note_on_c, 6, 31, 0
4, 111120, Note_on_c, 6, 43, 127
4, 111120, Note_on_c, 6, 38, 127
4, 111120, Note_on_c, 6, 31, 127
4, 111240, Note_on_c, 6, 43, 0
4, 111240, Note_on_c, 6, 38, 0
4, 111240, Note_on_c, 6, 31, 0
4, 111240, Note_on_c, 6, 31, 127
4, 111300, Note_on_c, 6, 31, 0
4, 111300, Note_on_c, 6, 31, 127
4, 111360, Note_on_c, 6, 31, 0
4, 111360, Note_on_c, 6, 43, 127
4, 111360, Note_on_c, 6, 38, 127
4, 111360, Note_on_c, 6, 31, 127
4, 111480, Note_on_c, 6, 43, 0
4, 111480, Note_on_c, 6, 38, 0
4, 111480, Note_on_c, 6, 31, 0
4, 111480, Note_on_c, 6, 28, 127
4, 111520, Note_on_c, 6, 28, 0
4, 111520, Note_on_c, 6, 28, 127
4, 111560, Note_on_c, 6, 28, 0
4, 111560, Note_on_c, 6, 28, 127
4, 111600, Note_on_c, 6, 28, 0
4, 111600, Note_on_c, 6, 28, 127
4, 111640, Note_on_c, 6, 28, 0
4, 111640, Note_on_c, 6, 28, 127
4, 111680, Note_on_c, 6, 28, 0
4, 111680, Note_on_c, 6, 28, 127
4, 111720, Note_on_c, 6, 28, 0
4, 111720, Note_on_c, 6, 40, 127
4, 111720, Note_on_c, 6, 35, 127
4, 111720, Note_on_c, 6, 28, 127
4, 111840, Note_on_c, 6, 40, 0
4, 111840, Note_on_c, 6, 35, 0
4, 111840, Note_on_c, 6, 28, 0
4, 111840, Note_on_c, 6, 40, 127
4, 111840, Note_on_c, 6, 35, 127
4, 111840, Note_on_c, 6, 28, 127
4, 111960, Note_on_c, 6, 40, 0
4, 111960, Note_on_c, 6, 35, 0
4, 111960, Note_on_c, 6, 28, 0
4, 111960, Note_on_c, 6, 29, 127
4, 112020, Note_on_c, 6, 29, 0
4, 112020, Note_on_c, 6, 29, 127
4, 112080, Note_on_c, 6, 29, 0
4, 112080, Note_on_c, 6, 42, 127
4, 112080, Note_on_c, 6, 36, 127
4, 112080, Note_on_c, 6, 29, 127
4, 112200, Note_on_c, 6, 42, 0
4, 112200, Note_on_c, 6, 36, 0
4, 112200, Note_on_c, 6, 29, 0
4, 112200, Note_on_c, 6, 29, 127
4, 112260, Note_on_c, 6, 29, 0
4, 112260, Note_on_c, 6, 29, 127
4, 112320, Note_on_c, 6, 29, 0
4, 112320, Note_on_c, 6, 42, 127
4, 112320, Note_on_c, 6, 36, 127
4, 112320, Note_on_c, 6, 29, 127
4, 112440, Note_on_c, 6, 42, 0
4, 112440, Note_on_c, 6, 36, 0
4, 112440, Note_on_c, 6, 29, 0
4, 112440, Note_on_c, 6, 28, 127
4, 112480, Note_on_c, 6, 28, 0
4, 112480, Note_on_c, 6, 28, 127
4, 112520, Note_on_c, 6, 28, 0
4, 112520, Note_on_c, 6, 28, 127
4, 112560, Note_on_c, 6, 28, 0
4, 112560, Note_on_c, 6, 28, 127
4, 112600, Note_on_c, 6, 28, 0
4, 112600, Note_on_c, 6, 28, 127
4, 112640, Note_on_c, 6, 28, 0
4, 112640, Note_on_c, 6, 28, 127
4, 112680, Note_on_c, 6, 28, 0
4, 112680, Note_on_c, 6, 40, 127
4, 112680, Note_on_c, 6, 35, 127
4, 112680, Note_on_c, 6, 28, 127
4, 112800, Note_on_c, 6, 40, 0
4, 112800, Note_on_c, 6, 35, 0
4, 112800, Note_on_c, 6, 28, 0
4, 112800, Note_on_c, 6, 40, 127
4, 112800, Note_on_c, 6, 35, 127
4, 112800, Note_on_c, 6, 28, 127
4, 112920, Note_on_c, 6, 40, 0
4, 112920, Note_on_c, 6, 35, 0
4, 112920, Note_on_c, 6, 28, 0
4, 112920, Note_on_c, 6, 29, 127
4, 112980, Note_on_c, 6, 29, 0
4, 112980, Note_on_c, 6, 29, 127
4, 113040, Note_on_c, 6, 29, 0
4, 113040, Note_on_c, 6, 42, 127
4, 113040, Note_on_c, 6, 36, 127
4, 113040, Note_on_c, 6, 29, 127
4, 113160, Note_on_c, 6, 42, 0
4, 113160, Note_on_c, 6, 36, 0
4, 113160, Note_on_c, 6, 29, 0
4, 113160, Note_on_c, 6, 29, 127
4, 113220, Note_on_c, 6, 29, 0
4, 113220, Note_on_c, 6, 29, 127
4, 113280, Note_on_c, 6, 29, 0
4, 113280, Note_on_c, 6, 42, 127
4, 113280, Note_on_c, 6, 36, 127
4, 113280, Note_on_c, 6, 29, 127
4, 113400, Note_on_c, 6, 42, 0
4, 113400, Note_on_c, 6, 36, 0
4, 113400, Note_on_c, 6, 29, 0
4, 113400, Note_on_c, 6, 28, 127
4, 113440, Note_on_c, 6, 28, 0
4, 113440, Note_on_c, 6, 28, 127
4, 113480, Note_on_c, 6, 28, 0
4, 113480, Note_on_c, 6, 28, 127
4, 113520, Note_on_c, 6, 28, 0
4, 113520, Note_on_c, 6, 28, 127
4, 113560, Note_on_c, 6, 28, 0
4, 113560, Note_on_c, 6, 28, 127
4, 113600, Note_on_c, 6, 28, 0
4, 113600, Note_on_c, 6, 28, 127
4, 113640, Note_on_c, 6, 28, 0
4, 113640, Note_on_c, 6, 40, 127
4, 113640, Note_on_c, 6, 35, 127
4, 113640, Note_on_c, 6, 28, 127
4, 113760, Note_on_c, 6, 40, 0
4, 113760, Note_on_c, 6, 35, 0
4, 113760, Note_on_c, 6, 28, 0
4, 113760, Note_on_c, 6, 40, 127
4, 113760, Note_on_c, 6, 35, 127
4, 113760, Note_on_c, 6, 28, 127
4, 113880, Note_on_c, 6, 40, 0
4, 113880, Note_on_c, 6, 35, 0
4, 113880, Note_on_c, 6, 28, 0
4, 113880, Note_on_c, 6, 29, 127
4, 113940, Note_on_c, 6, 29, 0
4, 113940, Note_on_c, 6, 29, 127
4, 114000, Note_on_c, 6, 29, 0
4, 114000, Note_on_c, 6, 42, 127
4, 114000, Note_on_c, 6, 36, 127
4, 114000, Note_on_c, 6, 29, 127
4, 114120, Note_on_c, 6, 42, 0
4, 114120, Note_on_c, 6, 36, 0
4, 114120, Note_on_c, 6, 29, 0
4, 114120, Note_on_c, 6, 29, 127
4, 114180, Note_on_c, 6, 29, 0
4, 114180, Note_on_c, 6, 29, 127
4, 114240, Note_on_c, 6, 29, 0
4, 114240, Note_on_c, 6, 42, 127
4, 114240, Note_on_c, 6, 36, 127
4, 114240, Note_on_c, 6, 29, 127
4, 114360, Note_on_c, 6, 42, 0
4, 114360, Note_on_c, 6, 36, 0
4, 114360, Note_on_c, 6, 29, 0
4, 114360, Note_on_c, 6, 28, 127
4, 114400, Note_on_c, 6, 28, 0
4, 114400, Note_on_c, 6, 28, 127
4, 114440, Note_on_c, 6, 28, 0
4, 114440, Note_on_c, 6, 28, 127
4, 114480, Note_on_c, 6, 28, 0
4, 114480, Note_on_c, 6, 28, 127
4, 114520, Note_on_c, 6, 28, 0
4, 114520, Note_on_c, 6, 28, 127
4, 114560, Note_on_c, 6, 28, 0
4, 114560, Note_on_c, 6, 28, 127
4, 114600, Note_on_c, 6, 28, 0
4, 114600, Note_on_c, 6, 40, 127
4, 114600, Note_on_c, 6, 35, 127
4, 114600, Note_on_c, 6, 28, 127
4, 114720, Note_on_c, 6, 40, 0
4, 114720, Note_on_c, 6, 35, 0
4, 114720, Note_on_c, 6, 28, 0
4, 114720, Note_on_c, 6, 40, 127
4, 114720, Note_on_c, 6, 35, 127
4, 114720, Note_on_c, 6, 28, 127
4, 114840, Note_on_c, 6, 40, 0
4, 114840, Note_on_c, 6, 35, 0
4, 114840, Note_on_c, 6, 28, 0
4, 114840, Note_on_c, 6, 31, 127
4, 114900, Note_on_c, 6, 31, 0
4, 114900, Note_on_c, 6, 31, 127
4, 114960, Note_on_c, 6, 31, 0
4, 114960, Note_on_c, 6, 43, 127
4, 114960, Note_on_c, 6, 38, 127
4, 114960, Note_on_c, 6, 31, 127
4, 115080, Note_on_c, 6, 43, 0
4, 115080, Note_on_c, 6, 38, 0
4, 115080, Note_on_c, 6, 31, 0
4, 115080, Note_on_c, 6, 31, 127
4, 115140, Note_on_c, 6, 31, 0
4, 115140, Note_on_c, 6, 31, 127
4, 115200, Note_on_c, 6, 31, 0
4, 115200, Note_on_c, 6, 38, 127
4, 115200, Note_on_c, 6, 43, 127
4, 115200, Note_on_c, 6, 31, 127
4, 115320, Note_on_c, 6, 38, 0
4, 115320, Note_on_c, 6, 43, 0
4, 115320, Note_on_c, 6, 31, 0
4, 115320, Note_on_c, 6, 31, 127
4, 115380, Note_on_c, 6, 31, 0
4, 115380, Note_on_c, 6, 31, 127
4, 115440, Note_on_c, 6, 31, 0
4, 115440, Note_on_c, 6, 43, 127
4, 115440, Note_on_c, 6, 38, 127
4, 115440, Note_on_c, 6, 31, 127
4, 115560, Note_on_c, 6, 43, 0
4, 115560, Note_on_c, 6, 38, 0
4, 115560, Note_on_c, 6, 31, 0
4, 115560, Note_on_c, 6, 31, 127
4, 115620, Note_on_c, 6, 31, 0
4, 115620, Note_on_c, 6, 31, 127
4, 115680, Note_on_c, 6, 31, 0
4, 115680, Note_on_c, 6, 38, 127
4, 115680, Note_on_c, 6, 43, 127
4, 115680, Note_on_c, 6, 31, 127
4, 115800, Note_on_c, 6, 38, 0
4, 115800, Note_on_c, 6, 43, 0
4, 115800, Note_on_c, 6, 31, 0
4, 115800, Note_on_c, 6, 28, 127
4, 115840, Note_on_c, 6, 28, 0
4, 115840, Note_on_c, 6, 28, 127
4, 115880, Note_on_c, 6, 28, 0
4, 115880, Note_on_c, 6, 28, 127
4, 115920, Note_on_c, 6, 28, 0
4, 115920, Note_on_c, 6, 28, 127
4, 115960, Note_on_c, 6, 28, 0
4, 115960, Note_on_c, 6, 28, 127
4, 116000, Note_on_c, 6, 28, 0
4, 116000, Note_on_c, 6, 28, 127
4, 116040, Note_on_c, 6, 28, 0
4, 116040, Note_on_c, 6, 40, 127
4, 116040, Note_on_c, 6, 35, 127
4, 116160, Note_on_c, 6, 40, 0
4, 116160, Note_on_c, 6, 35, 0
4, 116160, Note_on_c, 6, 28, 127
4, 116200, Note_on_c, 6, 28, 0
4, 116200, Note_on_c, 6, 28, 127
4, 116240, Note_on_c, 6, 28, 0
4, 116240, Note_on_c, 6, 28, 127
4, 116280, Note_on_c, 6, 28, 0
4, 116280, Note_on_c, 6, 28, 127
4, 116320, Note_on_c, 6, 28, 0
4, 116320, Note_on_c, 6, 28, 127
4, 116360, Note_on_c, 6, 28, 0
4, 116360, Note_on_c, 6, 28, 127
4, 116400, Note_on_c, 6, 28, 0
4, 116400, Note_on_c, 6, 40, 127
4, 116400, Note_on_c, 6, 35, 127
4, 116520, Note_on_c, 6, 40, 0
4, 116520, Note_on_c, 6, 35, 0
4, 116520, Note_on_c, 6, 28, 127
4, 116560, Note_on_c, 6, 28, 0
4, 116560, Note_on_c, 6, 28, 127
4, 116600, Note_on_c, 6, 28, 0
4, 116600, Note_on_c, 6, 28, 127
4, 116640, Note_on_c, 6, 28, 0
4, 116640, Note_on_c, 6, 41, 127
4, 116640, Note_on_c, 6, 36, 127
4, 116760, Note_on_c, 6, 41, 0
4, 116760, Note_on_c, 6, 36, 0
4, 116760, Note_on_c, 6, 28, 127
4, 116760, Note_on_c, 6, 35, 127
4, 116760, Note_on_c, 6, 40, 127
4, 116800, Note_on_c, 6, 28, 0
4, 116800, Note_on_c, 6, 35, 0
4, 116800, Note_on_c, 6, 40, 0
4, 116800, Note_on_c, 6, 28, 127
4, 116800, Note_on_c, 6, 35, 127
4, 116800, Note_on_c, 6, 40, 127
4, 116840, Note_on_c, 6, 28, 0
4, 116840, Note_on_c, 6, 35, 0
4, 116840, Note_on_c, 6, 40, 0
4, 116840, Note_on_c, 6, 28, 127
4, 116840, Note_on_c, 6, 35, 127
4, 116840, Note_on_c, 6, 40, 127
4, 116880, Note_on_c, 6, 28, 0
4, 116880, Note_on_c, 6, 35, 0
4, 116880, Note_on_c, 6, 40, 0
4, 116880, Note_on_c, 6, 28, 127
4, 116880, Note_on_c, 6, 35, 127
4, 116880, Note_on_c, 6, 40, 127
4, 116920, Note_on_c, 6, 28, 0
4, 116920, Note_on_c, 6, 35, 0
4, 116920, Note_on_c, 6, 40, 0
4, 116920, Note_on_c, 6, 28, 127
4, 116920, Note_on_c, 6, 35, 127
4, 116920, Note_on_c, 6, 40, 127
4, 116960, Note_on_c, 6, 28, 0
4, 116960, Note_on_c, 6, 35, 0
4, 116960, Note_on_c, 6, 40, 0
4, 116960, Note_on_c, 6, 28, 127
4, 116960, Note_on_c, 6, 35, 127
4, 116960, Note_on_c, 6, 40, 127
4, 117000, Note_on_c, 6, 28, 0
4, 117000, Note_on_c, 6, 35, 0
4, 117000, Note_on_c, 6, 40, 0
4, 117000, Note_on_c, 6, 28, 127
4, 117000, Note_on_c, 6, 35, 127
4, 117000, Note_on_c, 6, 40, 127
4, 117060, Note_on_c, 6, 28, 0
4, 117060, Note_on_c, 6, 35, 0
4, 117060, Note_on_c, 6, 40, 0
4, 117120, Note_on_c, 6, 28, 127
4, 117120, Note_on_c, 6, 35, 127
4, 117120, Note_on_c, 6, 40, 127
4, 117160, Note_on_c, 6, 28, 0
4, 117160, Note_on_c, 6, 35, 0
4, 117160, Note_on_c, 6, 40, 0
4, 117160, Note_on_c, 6, 28, 127
4, 117160, Note_on_c, 6, 35, 127
4, 117160, Note_on_c, 6, 40, 127
4, 117200, Note_on_c, 6, 28, 0
4, 117200, Note_on_c, 6, 35, 0
4, 117200, Note_on_c, 6, 40, 0
4, 117200, Note_on_c, 6, 28, 127
4, 117200, Note_on_c, 6, 35, 127
4, 117200, Note_on_c, 6, 40, 127
4, 117240, Note_on_c, 6, 28, 0
4, 117240, Note_on_c, 6, 35, 0
4, 117240, Note_on_c, 6, 40, 0
4, 117240, Note_on_c, 6, 28, 127
4, 117240, Note_on_c, 6, 35, 127
4, 117240, Note_on_c, 6, 40, 127
4, 117280, Note_on_c, 6, 28, 0
4, 117280, Note_on_c, 6, 35, 0
4, 117280, Note_on_c, 6, 40, 0
4, 117280, Note_on_c, 6, 28, 127
4, 117280, Note_on_c, 6, 35, 127
4, 117280, Note_on_c, 6, 40, 127
4, 117320, Note_on_c, 6, 28, 0
4, 117320, Note_on_c, 6, 35, 0
4, 117320, Note_on_c, 6, 40, 0
4, 117320, Note_on_c, 6, 28, 127
4, 117320, Note_on_c, 6, 35, 127
4, 117320, Note_on_c, 6, 40, 127
4, 117360, Note_on_c, 6, 28, 0
4, 117360, Note_on_c, 6, 35, 0
4, 117360, Note_on_c, 6, 40, 0
4, 117360, Note_on_c, 6, 28, 127
4, 117360, Note_on_c, 6, 35, 127
4, 117360, Note_on_c, 6, 40, 127
4, 117420, Note_on_c, 6, 28, 0
4, 117420, Note_on_c, 6, 35, 0
4, 117420, Note_on_c, 6, 40, 0
4, 117420, End_track
5, 0, Start_track
5, 0, Sequencer_specific, 5, 5, 15, 9, 8, 64
5, 0, Sequencer_specific, 15, 5, 15, 6, 71, 101, 110, 101, 114, 97, 108, 32, 77, 73, 68, 73
5, 0, MIDI_port, 0
5, 0, Title_t, "Electric Guitar (Riff A)"
5, 0, Program_c, 3, 27
5, 0, Control_c, 3, 7, 99
5, 3360, Time_signature, 2, 2, 24, 8
5, 3600, Time_signature, 4, 2, 24, 8
5, 6960, Time_signature, 2, 2, 24, 8
5, 7200, Time_signature, 4, 2, 24, 8
5, 11040, Time_signature, 3, 2, 24, 8
5, 14280, Note_on_c, 3, 50, 127
5, 14280, Note_on_c, 3, 50, 127
5, 14340, Note_on_c, 3, 50, 0
5, 14340, Note_on_c, 3, 50, 0
5, 14340, Note_on_c, 3, 57, 127
5, 14340, Note_on_c, 3, 57, 127
5, 14400, Note_on_c, 3, 57, 0
5, 14400, Note_on_c, 3, 57, 0
5, 14400, Note_on_c, 3, 55, 127
5, 14400, Note_on_c, 3, 55, 127
5, 14460, Note_on_c, 3, 55, 0
5, 14460, Note_on_c, 3, 55, 0
5, 14460, Note_on_c, 3, 62, 127
5, 14460, Note_on_c, 3, 62, 127
5, 14520, Note_on_c, 3, 62, 0
5, 14520, Note_on_c, 3, 62, 0
5, 14520, Note_on_c, 3, 57, 127
5, 14520, Note_on_c, 3, 57, 127
5, 14580, Note_on_c, 3, 57, 0
5, 14580, Note_on_c, 3, 57, 0
5, 14580, Note_on_c, 3, 55, 127
5, 14580, Note_on_c, 3, 55, 127
5, 14640, Note_on_c, 3, 55, 0
5, 14640, Note_on_c, 3, 55, 0
5, 14640, Note_on_c, 3, 55, 127
5, 14640, Note_on_c, 3, 55, 127
5, 14760, Note_on_c, 3, 55, 0
5, 14760, Note_on_c, 3, 55, 0
5, 14760, Note_on_c, 3, 59, 127
5, 14760, Note_on_c, 3, 59, 127
5, 14780, Note_on_c, 3, 59, 0
5, 14780, Note_on_c, 3, 59, 0
5, 14780, Note_on_c, 3, 62, 127
5, 14780, Note_on_c, 3, 62, 127
5, 14800, Note_on_c, 3, 62, 0
5, 14800, Note_on_c, 3, 62, 0
5, 14800, Note_on_c, 3, 59, 127
5, 14800, Note_on_c, 3, 59, 127
5, 14820, Note_on_c, 3, 59, 0
5, 14820, Note_on_c, 3, 59, 0
5, 14820, Note_on_c, 3, 59, 127
5, 14820, Note_on_c, 3, 59, 127
5, 14850, Note_on_c, 3, 59, 0
5, 14850, Note_on_c, 3, 59, 0
5, 14850, Note_on_c, 3, 59, 127
5, 14850, Note_on_c, 3, 59, 127
5, 14880, Note_on_c, 3, 59, 0
5, 14880, Note_on_c, 3, 59, 0
5, 14880, Note_on_c, 3, 59, 127
5, 14880, Note_on_c, 3, 59, 127
5, 14900, Note_on_c, 3, 59, 0
5, 14900, Note_on_c, 3, 59, 0
5, 14900, Note_on_c, 3, 62, 127
5, 14900, Note_on_c, 3, 62, 127
5, 14920, Note_on_c, 3, 62, 0
5, 14920, Note_on_c, 3, 62, 0
5, 14920, Note_on_c, 3, 59, 127
5, 14920, Note_on_c, 3, 59, 127
5, 14940, Note_on_c, 3, 59, 0
5, 14940, Note_on_c, 3, 59, 0
5, 14940, Note_on_c, 3, 55, 127
5, 14940, Note_on_c, 3, 55, 127
5, 15000, Note_on_c, 3, 55, 0
5, 15000, Note_on_c, 3, 55, 0
5, 15000, Note_on_c, 3, 53, 127
5, 15000, Note_on_c, 3, 53, 127
5, 15120, Note_on_c, 3, 53, 0
5, 15120, Note_on_c, 3, 53, 0
5, 15120, Note_on_c, 3, 55, 127
5, 15120, Note_on_c, 3, 55, 127
5, 15180, Note_on_c, 3, 55, 0
5, 15180, Note_on_c, 3, 55, 0
5, 15180, Note_on_c, 3, 65, 127
5, 15180, Note_on_c, 3, 65, 127
5, 15240, Note_on_c, 3, 65, 0
5, 15240, Note_on_c, 3, 65, 0
5, 15240, Note_on_c, 3, 60, 127
5, 15240, Note_on_c, 3, 60, 127
5, 15300, Note_on_c, 3, 60, 0
5, 15300, Note_on_c, 3, 60, 0
5, 15300, Note_on_c, 3, 55, 127
5, 15300, Note_on_c, 3, 55, 127
5, 15360, Note_on_c, 3, 55, 0
5, 15360, Note_on_c, 3, 55, 0
5, 15360, Note_on_c, 3, 52, 127
5, 15360, Note_on_c, 3, 52, 127
5, 15420, Note_on_c, 3, 52, 0
5, 15420, Note_on_c, 3, 52, 0
5, 15420, Note_on_c, 3, 59, 127
5, 15420, Note_on_c, 3, 59, 127
5, 15480, Note_on_c, 3, 59, 0
5, 15480, Note_on_c, 3, 59, 0
5, 15480, Note_on_c, 3, 55, 127
5, 15480, Note_on_c, 3, 55, 127
5, 15540, Note_on_c, 3, 55, 0
5, 15540, Note_on_c, 3, 55, 0
5, 15540, Note_on_c, 3, 59, 127
5, 15540, Note_on_c, 3, 59, 127
5, 15600, Note_on_c, 3, 59, 0
5, 15600, Note_on_c, 3, 59, 0
5, 15600, Note_on_c, 3, 64, 127
5, 15600, Note_on_c, 3, 64, 127
5, 15660, Note_on_c, 3, 64, 0
5, 15660, Note_on_c, 3, 64, 0
5, 15660, Note_on_c, 3, 59, 127
5, 15660, Note_on_c, 3, 59, 127
5, 15720, Note_on_c, 3, 59, 0
5, 15720, Note_on_c, 3, 59, 0
5, 15720, Note_on_c, 3, 50, 127
5, 15720, Note_on_c, 3, 50, 127
5, 15780, Note_on_c, 3, 50, 0
5, 15780, Note_on_c, 3, 50, 0
5, 15780, Note_on_c, 3, 57, 127
5, 15780, Note_on_c, 3, 57, 127
5, 15840, Note_on_c, 3, 57, 0
5, 15840, Note_on_c, 3, 57, 0
5, 15840, Note_on_c, 3, 55, 127
5, 15840, Note_on_c, 3, 55, 127
5, 15900, Note_on_c, 3, 55, 0
5, 15900, Note_on_c, 3, 55, 0
5, 15900, Note_on_c, 3, 62, 127
5, 15900, Note_on_c, 3, 62, 127
5, 15960, Note_on_c, 3, 62, 0
5, 15960, Note_on_c, 3, 62, 0
5, 15960, Note_on_c, 3, 57, 127
5, 15960, Note_on_c, 3, 57, 127
5, 16020, Note_on_c, 3, 57, 0
5, 16020, Note_on_c, 3, 57, 0
5, 16020, Note_on_c, 3, 55, 127
5, 16020, Note_on_c, 3, 55, 127
5, 16080, Note_on_c, 3, 55, 0
5, 16080, Note_on_c, 3, 55, 0
5, 16080, Note_on_c, 3, 55, 127
5, 16080, Note_on_c, 3, 55, 127
5, 16200, Note_on_c, 3, 55, 0
5, 16200, Note_on_c, 3, 55, 0
5, 16200, Note_on_c, 3, 59, 127
5, 16200, Note_on_c, 3, 59, 127
5, 16220, Note_on_c, 3, 59, 0
5, 16220, Note_on_c, 3, 59, 0
5, 16220, Note_on_c, 3, 62, 127
5, 16220, Note_on_c, 3, 62, 127
5, 16240, Note_on_c, 3, 62, 0
5, 16240, Note_on_c, 3, 62, 0
5, 16240, Note_on_c, 3, 59, 127
5, 16240, Note_on_c, 3, 59, 127
5, 16260, Note_on_c, 3, 59, 0
5, 16260, Note_on_c, 3, 59, 0
5, 16260, Note_on_c, 3, 59, 127
5, 16260, Note_on_c, 3, 59, 127
5, 16290, Note_on_c, 3, 59, 0
5, 16290, Note_on_c, 3, 59, 0
5, 16290, Note_on_c, 3, 59, 127
5, 16290, Note_on_c, 3, 59, 127
5, 16320, Note_on_c, 3, 59, 0
5, 16320, Note_on_c, 3, 59, 0
5, 16320, Note_on_c, 3, 59, 127
5, 16320, Note_on_c, 3, 59, 127
5, 16340, Note_on_c, 3, 59, 0
5, 16340, Note_on_c, 3, 59, 0
5, 16340, Note_on_c, 3, 62, 127
5, 16340, Note_on_c, 3, 62, 127
5, 16360, Note_on_c, 3, 62, 0
5, 16360, Note_on_c, 3, 62, 0
5, 16360, Note_on_c, 3, 59, 127
5, 16360, Note_on_c, 3, 59, 127
5, 16380, Note_on_c, 3, 59, 0
5, 16380, Note_on_c, 3, 59, 0
5, 16380, Note_on_c, 3, 55, 127
5, 16380, Note_on_c, 3, 55, 127
5, 16440, Note_on_c, 3, 55, 0
5, 16440, Note_on_c, 3, 55, 0
5, 16440, Note_on_c, 3, 53, 127
5, 16440, Note_on_c, 3, 53, 127
5, 16560, Note_on_c, 3, 53, 0
5, 16560, Note_on_c, 3, 53, 0
5, 16560, Note_on_c, 3, 55, 127
5, 16560, Note_on_c, 3, 55, 127
5, 16620, Note_on_c, 3, 55, 0
5, 16620, Note_on_c, 3, 55, 0
5, 16620, Note_on_c, 3, 65, 127
5, 16620, Note_on_c, 3, 65, 127
5, 16680, Note_on_c, 3, 65, 0
5, 16680, Note_on_c, 3, 65, 0
5, 16680, Note_on_c, 3, 60, 127
5, 16680, Note_on_c, 3, 60, 127
5, 16740, Note_on_c, 3, 60, 0
5, 16740, Note_on_c, 3, 60, 0
5, 16740, Note_on_c, 3, 55, 127
5, 16740, Note_on_c, 3, 55, 127
5, 16800, Note_on_c, 3, 55, 0
5, 16800, Note_on_c, 3, 55, 0
5, 16800, Note_on_c, 3, 52, 127
5, 16800, Note_on_c, 3, 52, 127
5, 16860, Note_on_c, 3, 52, 0
5, 16860, Note_on_c, 3, 52, 0
5, 16860, Note_on_c, 3, 59, 127
5, 16860, Note_on_c, 3, 59, 127
5, 16920, Note_on_c, 3, 59, 0
5, 16920, Note_on_c, 3, 59, 0
5, 16920, Note_on_c, 3, 55, 127
5, 16920, Note_on_c, 3, 55, 127
5, 16980, Note_on_c, 3, 55, 0
5, 16980, Note_on_c, 3, 55, 0
5, 16980, Note_on_c, 3, 59, 127
5, 16980, Note_on_c, 3, 59, 127
5, 17040, Note_on_c, 3, 59, 0
5, 17040, Note_on_c, 3, 59, 0
5, 17040, Note_on_c, 3, 48, 127
5, 17040, Note_on_c, 3, 48, 127
5, 17160, Note_on_c, 3, 48, 0
5, 17160, Note_on_c, 3, 48, 0
5, 19680, Time_signature, 2, 2, 24, 8
5, 19920, Time_signature, 3, 2, 24, 8
5, 22440, Time_signature, 2, 2, 24, 8
5, 22680, Time_signature, 6, 2, 24, 8
5, 24120, Time_signature, 3, 2, 24, 8
5, 24120, Note_on_c, 3, 50, 127
5, 24120, Note_on_c, 3, 50, 127
5, 24180, Note_on_c, 3, 50, 0
5, 24180, Note_on_c, 3, 50, 0
5, 24180, Note_on_c, 3, 57, 127
5, 24180, Note_on_c, 3, 57, 127
5, 24240, Note_on_c, 3, 57, 0
5, 24240, Note_on_c, 3, 57, 0
5, 24240, Note_on_c, 3, 55, 127
5, 24240, Note_on_c, 3, 55, 127
5, 24300, Note_on_c, 3, 55, 0
5, 24300, Note_on_c, 3, 55, 0
5, 24300, Note_on_c, 3, 62, 127
5, 24300, Note_on_c, 3, 62, 127
5, 24360, Note_on_c, 3, 62, 0
5, 24360, Note_on_c, 3, 62, 0
5, 24360, Note_on_c, 3, 57, 127
5, 24360, Note_on_c, 3, 57, 127
5, 24420, Note_on_c, 3, 57, 0
5, 24420, Note_on_c, 3, 57, 0
5, 24420, Note_on_c, 3, 55, 127
5, 24420, Note_on_c, 3, 55, 127
5, 24480, Note_on_c, 3, 55, 0
5, 24480, Note_on_c, 3, 55, 0
5, 24480, Note_on_c, 3, 55, 127
5, 24480, Note_on_c, 3, 55, 127
5, 24600, Note_on_c, 3, 55, 0
5, 24600, Note_on_c, 3, 55, 0
5, 24600, Note_on_c, 3, 59, 127
5, 24600, Note_on_c, 3, 59, 127
5, 24620, Note_on_c, 3, 59, 0
5, 24620, Note_on_c, 3, 59, 0
5, 24620, Note_on_c, 3, 62, 127
5, 24620, Note_on_c, 3, 62, 127
5, 24640, Note_on_c, 3, 62, 0
5, 24640, Note_on_c, 3, 62, 0
5, 24640, Note_on_c, 3, 59, 127
5, 24640, Note_on_c, 3, 59, 127
5, 24660, Note_on_c, 3, 59, 0
5, 24660, Note_on_c, 3, 59, 0
5, 24660, Note_on_c, 3, 59, 127
5, 24660, Note_on_c, 3, 59, 127
5, 24690, Note_on_c, 3, 59, 0
5, 24690, Note_on_c, 3, 59, 0
5, 24690, Note_on_c, 3, 59, 127
5, 24690, Note_on_c, 3, 59, 127
5, 24720, Note_on_c, 3, 59, 0
5, 24720, Note_on_c, 3, 59, 0
5, 24720, Note_on_c, 3, 59, 127
5, 24720, Note_on_c, 3, 59, 127
5, 24740, Note_on_c, 3, 59, 0
5, 24740, Note_on_c, 3, 59, 0
5, 24740, Note_on_c, 3, 62, 127
5, 24740, Note_on_c, 3, 62, 127
5, 24760, Note_on_c, 3, 62, 0
5, 24760, Note_on_c, 3, 62, 0
5, 24760, Note_on_c, 3, 59, 127
5, 24760, Note_on_c, 3, 59, 127
5, 24780, Note_on_c, 3, 59, 0
5, 24780, Note_on_c, 3, 59, 0
5, 24780, Note_on_c, 3, 55, 127
5, 24780, Note_on_c, 3, 55, 127
5, 24840, Note_on_c, 3, 55, 0
5, 24840, Note_on_c, 3, 55, 0
5, 24840, Note_on_c, 3, 53, 127
5, 24840, Note_on_c, 3, 53, 127
5, 24960, Note_on_c, 3, 53, 0
5, 24960, Note_on_c, 3, 53, 0
5, 24960, Note_on_c, 3, 55, 127
5, 24960, Note_on_c, 3, 55, 127
5, 25020, Note_on_c, 3, 55, 0
5, 25020, Note_on_c, 3, 55, 0
5, 25020, Note_on_c, 3, 65, 127
5, 25020, Note_on_c, 3, 65, 127
5, 25080, Note_on_c, 3, 65, 0
5, 25080, Note_on_c, 3, 65, 0
5, 25080, Note_on_c, 3, 60, 127
5, 25080, Note_on_c, 3, 60, 127
5, 25140, Note_on_c, 3, 60, 0
5, 25140, Note_on_c, 3, 60, 0
5, 25140, Note_on_c, 3, 55, 127
5, 25140, Note_on_c, 3, 55, 127
5, 25200, Note_on_c, 3, 55, 0
5, 25200, Note_on_c, 3, 55, 0
5, 25200, Note_on_c, 3, 52, 127
5, 25200, Note_on_c, 3, 52, 127
5, 25260, Note_on_c, 3, 52, 0
5, 25260, Note_on_c, 3, 52, 0
5, 25260, Note_on_c, 3, 59, 127
5, 25260, Note_on_c, 3, 59, 127
5, 25320, Note_on_c, 3, 59, 0
5, 25320, Note_on_c, 3, 59, 0
5, 25320, Note_on_c, 3, 55, 127
5, 25320, Note_on_c, 3, 55, 127
5, 25380, Note_on_c, 3, 55, 0
5, 25380, Note_on_c, 3, 55, 0
5, 25380, Note_on_c, 3, 59, 127
5, 25380, Note_on_c, 3, 59, 127
5, 25440, Note_on_c, 3, 59, 0
5, 25440, Note_on_c, 3, 59, 0
5, 25440, Note_on_c, 3, 64, 127
5, 25440, Note_on_c, 3, 64, 127
5, 25500, Note_on_c, 3, 64, 0
5, 25500, Note_on_c, 3, 64, 0
5, 25500, Note_on_c, 3, 59, 127
5, 25500, Note_on_c, 3, 59, 127
5, 25560, Note_on_c, 3, 59, 0
5, 25560, Note_on_c, 3, 59, 0
5, 25560, Note_on_c, 3, 50, 127
5, 25560, Note_on_c, 3, 50, 127
5, 25620, Note_on_c, 3, 50, 0
5, 25620, Note_on_c, 3, 50, 0
5, 25620, Note_on_c, 3, 57, 127
5, 25620, Note_on_c, 3, 57, 127
5, 25680, Note_on_c, 3, 57, 0
5, 25680, Note_on_c, 3, 57, 0
5, 25680, Note_on_c, 3, 55, 127
5, 25680, Note_on_c, 3, 55, 127
5, 25740, Note_on_c, 3, 55, 0
5, 25740, Note_on_c, 3, 55, 0
5, 25740, Note_on_c, 3, 62, 127
5, 25740, Note_on_c, 3, 62, 127
5, 25800, Note_on_c, 3, 62, 0
5, 25800, Note_on_c, 3, 62, 0
5, 25800, Note_on_c, 3, 57, 127
5, 25800, Note_on_c, 3, 57, 127
5, 25860, Note_on_c, 3, 57, 0
5, 25860, Note_on_c, 3, 57, 0
5, 25860, Note_on_c, 3, 55, 127
5, 25860, Note_on_c, 3, 55, 127
5, 25920, Note_on_c, 3, 55, 0
5, 25920, Note_on_c, 3, 55, 0
5, 25920, Note_on_c, 3, 55, 127
5, 25920, Note_on_c, 3, 55, 127
5, 26040, Note_on_c, 3, 55, 0
5, 26040, Note_on_c, 3, 55, 0
5, 26040, Note_on_c, 3, 59, 127
5, 26040, Note_on_c, 3, 59, 127
5, 26060, Note_on_c, 3, 59, 0
5, 26060, Note_on_c, 3, 59, 0
5, 26060, Note_on_c, 3, 62, 127
5, 26060, Note_on_c, 3, 62, 127
5, 26080, Note_on_c, 3, 62, 0
5, 26080, Note_on_c, 3, 62, 0
5, 26080, Note_on_c, 3, 59, 127
5, 26080, Note_on_c, 3, 59, 127
5, 26100, Note_on_c, 3, 59, 0
5, 26100, Note_on_c, 3, 59, 0
5, 26100, Note_on_c, 3, 59, 127
5, 26100, Note_on_c, 3, 59, 127
5, 26130, Note_on_c, 3, 59, 0
5, 26130, Note_on_c, 3, 59, 0
5, 26130, Note_on_c, 3, 59, 127
5, 26130, Note_on_c, 3, 59, 127
5, 26160, Note_on_c, 3, 59, 0
5, 26160, Note_on_c, 3, 59, 0
5, 26160, Note_on_c, 3, 59, 127
5, 26160, Note_on_c, 3, 59, 127
5, 26180, Note_on_c, 3, 59, 0
5, 26180, Note_on_c, 3, 59, 0
5, 26180, Note_on_c, 3, 62, 127
5, 26180, Note_on_c, 3, 62, 127
5, 26200, Note_on_c, 3, 62, 0
5, 26200, Note_on_c, 3, 62, 0
5, 26200, Note_on_c, 3, 59, 127
5, 26200, Note_on_c, 3, 59, 127
5, 26220, Note_on_c, 3, 59, 0
5, 26220, Note_on_c, 3, 59, 0
5, 26220, Note_on_c, 3, 55, 127
5, 26220, Note_on_c, 3, 55, 127
5, 26280, Note_on_c, 3, 55, 0
5, 26280, Note_on_c, 3, 55, 0
5, 26280, Note_on_c, 3, 53, 127
5, 26280, Note_on_c, 3, 53, 127
5, 26400, Note_on_c, 3, 53, 0
5, 26400, Note_on_c, 3, 53, 0
5, 26400, Note_on_c, 3, 55, 127
5, 26400, Note_on_c, 3, 55, 127
5, 26460, Note_on_c, 3, 55, 0
5, 26460, Note_on_c, 3, 55, 0
5, 26460, Note_on_c, 3, 65, 127
5, 26460, Note_on_c, 3, 65, 127
5, 26520, Note_on_c, 3, 65, 0
5, 26520, Note_on_c, 3, 65, 0
5, 26520, Note_on_c, 3, 60, 127
5, 26520, Note_on_c, 3, 60, 127
5, 26580, Note_on_c, 3, 60, 0
5, 26580, Note_on_c, 3, 60, 0
5, 26580, Note_on_c, 3, 55, 127
5, 26580, Note_on_c, 3, 55, 127
5, 26640, Note_on_c, 3, 55, 0
5, 26640, Note_on_c, 3, 55, 0
5, 26640, Note_on_c, 3, 52, 127
5, 26640, Note_on_c, 3, 52, 127
5, 26700, Note_on_c, 3, 52, 0
5, 26700, Note_on_c, 3, 52, 0
5, 26700, Note_on_c, 3, 59, 127
5, 26700, Note_on_c, 3, 59, 127
5, 26760, Note_on_c, 3, 59, 0
5, 26760, Note_on_c, 3, 59, 0
5, 26760, Note_on_c, 3, 55, 127
5, 26760, Note_on_c, 3, 55, 127
5, 26820, Note_on_c, 3, 55, 0
5, 26820, Note_on_c, 3, 55, 0
5, 26820, Note_on_c, 3, 59, 127
5, 26820, Note_on_c, 3, 59, 127
5, 26880, Note_on_c, 3, 59, 0
5, 26880, Note_on_c, 3, 59, 0
5, 26880, Note_on_c, 3, 48, 127
5, 26880, Note_on_c, 3, 48, 127
5, 27000, Note_on_c, 3, 48, 0
5, 27000, Note_on_c, 3, 48, 0
5, 29520, Time_signature, 2, 2, 24, 8
5, 29760, Time_signature, 3, 2, 24, 8
5, 32280, Time_signature, 2, 2, 24, 8
5, 32520, Time_signature, 6, 2, 24, 8
5, 33960, Time_signature, 3, 2, 24, 8
5, 33960, Note_on_c, 3, 50, 127
5, 33960, Note_on_c, 3, 50, 127
5, 34020, Note_on_c, 3, 50, 0
5, 34020, Note_on_c, 3, 50, 0
5, 34020, Note_on_c, 3, 57, 127
5, 34020, Note_on_c, 3, 57, 127
5, 34080, Note_on_c, 3, 57, 0
5, 34080, Note_on_c, 3, 57, 0
5, 34080, Note_on_c, 3, 55, 127
5, 34080, Note_on_c, 3, 55, 127
5, 34140, Note_on_c, 3, 55, 0
5, 34140, Note_on_c, 3, 55, 0
5, 34140, Note_on_c, 3, 62, 127
5, 34140, Note_on_c, 3, 62, 127
5, 34200, Note_on_c, 3, 62, 0
5, 34200, Note_on_c, 3, 62, 0
5, 34200, Note_on_c, 3, 57, 127
5, 34200, Note_on_c, 3, 57, 127
5, 34260, Note_on_c, 3, 57, 0
5, 34260, Note_on_c, 3, 57, 0
5, 34260, Note_on_c, 3, 55, 127
5, 34260, Note_on_c, 3, 55, 127
5, 34320, Note_on_c, 3, 55, 0
5, 34320, Note_on_c, 3, 55, 0
5, 34320, Note_on_c, 3, 55, 127
5, 34320, Note_on_c, 3, 55, 127
5, 34440, Note_on_c, 3, 55, 0
5, 34440, Note_on_c, 3, 55, 0
5, 34440, Note_on_c, 3, 59, 127
5, 34440, Note_on_c, 3, 59, 127
5, 34460, Note_on_c, 3, 59, 0
5, 34460, Note_on_c, 3, 59, 0
5, 34460, Note_on_c, 3, 62, 127
5, 34460, Note_on_c, 3, 62, 127
5, 34480, Note_on_c, 3, 62, 0
5, 34480, Note_on_c, 3, 62, 0
5, 34480, Note_on_c, 3, 59, 127
5, 34480, Note_on_c, 3, 59, 127
5, 34500, Note_on_c, 3, 59, 0
5, 34500, Note_on_c, 3, 59, 0
5, 34500, Note_on_c, 3, 59, 127
5, 34500, Note_on_c, 3, 59, 127
5, 34530, Note_on_c, 3, 59, 0
5, 34530, Note_on_c, 3, 59, 0
5, 34530, Note_on_c, 3, 59, 127
5, 34530, Note_on_c, 3, 59, 127
5, 34560, Note_on_c, 3, 59, 0
5, 34560, Note_on_c, 3, 59, 0
5, 34560, Note_on_c, 3, 59, 127
5, 34560, Note_on_c, 3, 59, 127
5, 34580, Note_on_c, 3, 59, 0
5, 34580, Note_on_c, 3, 59, 0
5, 34580, Note_on_c, 3, 62, 127
5, 34580, Note_on_c, 3, 62, 127
5, 34600, Note_on_c, 3, 62, 0
5, 34600, Note_on_c, 3, 62, 0
5, 34600, Note_on_c, 3, 59, 127
5, 34600, Note_on_c, 3, 59, 127
5, 34620, Note_on_c, 3, 59, 0
5, 34620, Note_on_c, 3, 59, 0
5, 34620, Note_on_c, 3, 55, 127
5, 34620, Note_on_c, 3, 55, 127
5, 34680, Note_on_c, 3, 55, 0
5, 34680, Note_on_c, 3, 55, 0
5, 34680, Note_on_c, 3, 53, 127
5, 34680, Note_on_c, 3, 53, 127
5, 34800, Note_on_c, 3, 53, 0
5, 34800, Note_on_c, 3, 53, 0
5, 34800, Note_on_c, 3, 55, 127
5, 34800, Note_on_c, 3, 55, 127
5, 34860, Note_on_c, 3, 55, 0
5, 34860, Note_on_c, 3, 55, 0
5, 34860, Note_on_c, 3, 65, 127
5, 34860, Note_on_c, 3, 65, 127
5, 34920, Note_on_c, 3, 65, 0
5, 34920, Note_on_c, 3, 65, 0
5, 34920, Note_on_c, 3, 60, 127
5, 34920, Note_on_c, 3, 60, 127
5, 34980, Note_on_c, 3, 60, 0
5, 34980, Note_on_c, 3, 60, 0
5, 34980, Note_on_c, 3, 55, 127
5, 34980, Note_on_c, 3, 55, 127
5, 35040, Note_on_c, 3, 55, 0
5, 35040, Note_on_c, 3, 55, 0
5, 35040, Note_on_c, 3, 52, 127
5, 35040, Note_on_c, 3, 52, 127
5, 35100, Note_on_c, 3, 52, 0
5, 35100, Note_on_c, 3, 52, 0
5, 35100, Note_on_c, 3, 59, 127
5, 35100, Note_on_c, 3, 59, 127
5, 35160, Note_on_c, 3, 59, 0
5, 35160, Note_on_c, 3, 59, 0
5, 35160, Note_on_c, 3, 55, 127
5, 35160, Note_on_c, 3, 55, 127
5, 35220, Note_on_c, 3, 55, 0
5, 35220, Note_on_c, 3, 55, 0
5, 35220, Note_on_c, 3, 59, 127
5, 35220, Note_on_c, 3, 59, 127
5, 35280, Note_on_c, 3, 59, 0
5, 35280, Note_on_c, 3, 59, 0
5, 35280, Note_on_c, 3, 64, 127
5, 35280, Note_on_c, 3, 64, 127
5, 35340, Note_on_c, 3, 64, 0
5, 35340, Note_on_c, 3, 64, 0
5, 35340, Note_on_c, 3, 59, 127
5, 35340, Note_on_c, 3, 59, 127
5, 35400, Note_on_c, 3, 59, 0
5, 35400, Note_on_c, 3, 59, 0
5, 35400, Note_on_c, 3, 50, 127
5, 35400, Note_on_c, 3, 50, 127
5, 35460, Note_on_c, 3, 50, 0
5, 35460, Note_on_c, 3, 50, 0
5, 35460, Note_on_c, 3, 57, 127
5, 35460, Note_on_c, 3, 57, 127
5, 35520, Note_on_c, 3, 57, 0
5, 35520, Note_on_c, 3, 57, 0
5, 35520, Note_on_c, 3, 55, 127
5, 35520, Note_on_c, 3, 55, 127
5, 35580, Note_on_c, 3, 55, 0
5, 35580, Note_on_c, 3, 55, 0
5, 35580, Note_on_c, 3, 62, 127
5, 35580, Note_on_c, 3, 62, 127
5, 35640, Note_on_c, 3, 62, 0
5, 35640, Note_on_c, 3, 62, 0
5, 35640, Note_on_c, 3, 57, 127
5, 35640, Note_on_c, 3, 57, 127
5, 35700, Note_on_c, 3, 57, 0
5, 35700, Note_on_c, 3, 57, 0
5, 35700, Note_on_c, 3, 55, 127
5, 35700, Note_on_c, 3, 55, 127
5, 35760, Note_on_c, 3, 55, 0
5, 35760, Note_on_c, 3, 55, 0
5, 35760, Note_on_c, 3, 55, 127
5, 35760, Note_on_c, 3, 55, 127
5, 35880, Note_on_c, 3, 55, 0
5, 35880, Note_on_c, 3, 55, 0
5, 35880, Note_on_c, 3, 59, 127
5, 35880, Note_on_c, 3, 59, 127
5, 35900, Note_on_c, 3, 59, 0
5, 35900, Note_on_c, 3, 59, 0
5, 35900, Note_on_c, 3, 62, 127
5, 35900, Note_on_c, 3, 62, 127
5, 35920, Note_on_c, 3, 62, 0
5, 35920, Note_on_c, 3, 62, 0
5, 35920, Note_on_c, 3, 59, 127
5, 35920, Note_on_c, 3, 59, 127
5, 35940, Note_on_c, 3, 59, 0
5, 35940, Note_on_c, 3, 59, 0
5, 35940, Note_on_c, 3, 59, 127
5, 35940, Note_on_c, 3, 59, 127
5, 35970, Note_on_c, 3, 59, 0
5, 35970, Note_on_c, 3, 59, 0
5, 35970, Note_on_c, 3, 59, 127
5, 35970, Note_on_c, 3, 59, 127
5, 36000, Note_on_c, 3, 59, 0
5, 36000, Note_on_c, 3, 59, 0
5, 36000, Note_on_c, 3, 59, 127
5, 36000, Note_on_c, 3, 59, 127
5, 36020, Note_on_c, 3, 59, 0
5, 36020, Note_on_c, 3, 59, 0
5, 36020, Note_on_c, 3, 62, 127
5, 36020, Note_on_c, 3, 62, 127
5, 36040, Note_on_c, 3, 62, 0
5, 36040, Note_on_c, 3, 62, 0
5, 36040, Note_on_c, 3, 59, 127
5, 36040, Note_on_c, 3, 59, 127
5, 36060, Note_on_c, 3, 59, 0
5, 36060, Note_on_c, 3, 59, 0
5, 36060, Note_on_c, 3, 55, 127
5, 36060, Note_on_c, 3, 55, 127
5, 36120, Note_on_c, 3, 55, 0
5, 36120, Note_on_c, 3, 55, 0
5, 36120, Note_on_c, 3, 53, 127
5, 36120, Note_on_c, 3, 53, 127
5, 36240, Note_on_c, 3, 53, 0
5, 36240, Note_on_c, 3, 53, 0
5, 36240, Note_on_c, 3, 55, 127
5, 36240, Note_on_c, 3, 55, 127
5, 36300, Note_on_c, 3, 55, 0
5, 36300, Note_on_c, 3, 55, 0
5, 36300, Note_on_c, 3, 65, 127
5, 36300, Note_on_c, 3, 65, 127
5, 36360, Note_on_c, 3, 65, 0
5, 36360, Note_on_c, 3, 65, 0
5, 36360, Note_on_c, 3, 60, 127
5, 36360, Note_on_c, 3, 60, 127
5, 36420, Note_on_c, 3, 60, 0
5, 36420, Note_on_c, 3, 60, 0
5, 36420, Note_on_c, 3, 55, 127
5, 36420, Note_on_c, 3, 55, 127
5, 36480, Note_on_c, 3, 55, 0
5, 36480, Note_on_c, 3, 55, 0
5, 36480, Note_on_c, 3, 52, 127
5, 36480, Note_on_c, 3, 52, 127
5, 36540, Note_on_c, 3, 52, 0
5, 36540, Note_on_c, 3, 52, 0
5, 36540, Note_on_c, 3, 59, 127
5, 36540, Note_on_c, 3, 59, 127
5, 36600, Note_on_c, 3, 59, 0
5, 36600, Note_on_c, 3, 59, 0
5, 36600, Note_on_c, 3, 55, 127
5, 36600, Note_on_c, 3, 55, 127
5, 36660, Note_on_c, 3, 55, 0
5, 36660, Note_on_c, 3, 55, 0
5, 36660, Note_on_c, 3, 59, 127
5, 36660, Note_on_c, 3, 59, 127
5, 36720, Note_on_c, 3, 59, 0
5, 36720, Note_on_c, 3, 59, 0
5, 36720, Note_on_c, 3, 64, 127
5, 36720, Note_on_c, 3, 64, 127
5, 36780, Note_on_c, 3, 64, 0
5, 36780, Note_on_c, 3, 64, 0
5, 36780, Note_on_c, 3, 59, 127
5, 36780, Note_on_c, 3, 59, 127
5, 36840, Note_on_c, 3, 59, 0
5, 36840, Note_on_c, 3, 59, 0
5, 36840, Note_on_c, 3, 50, 127
5, 36840, Note_on_c, 3, 50, 127
5, 36900, Note_on_c, 3, 50, 0
5, 36900, Note_on_c, 3, 50, 0
5, 36900, Note_on_c, 3, 57, 127
5, 36900, Note_on_c, 3, 57, 127
5, 36960, Note_on_c, 3, 57, 0
5, 36960, Note_on_c, 3, 57, 0
5, 36960, Note_on_c, 3, 55, 127
5, 36960, Note_on_c, 3, 55, 127
5, 37020, Note_on_c, 3, 55, 0
5, 37020, Note_on_c, 3, 55, 0
5, 37020, Note_on_c, 3, 62, 127
5, 37020, Note_on_c, 3, 62, 127
5, 37080, Note_on_c, 3, 62, 0
5, 37080, Note_on_c, 3, 62, 0
5, 37080, Note_on_c, 3, 57, 127
5, 37080, Note_on_c, 3, 57, 127
5, 37140, Note_on_c, 3, 57, 0
5, 37140, Note_on_c, 3, 57, 0
5, 37140, Note_on_c, 3, 55, 127
5, 37140, Note_on_c, 3, 55, 127
5, 37200, Note_on_c, 3, 55, 0
5, 37200, Note_on_c, 3, 55, 0
5, 37200, Note_on_c, 3, 55, 127
5, 37200, Note_on_c, 3, 55, 127
5, 37320, Note_on_c, 3, 55, 0
5, 37320, Note_on_c, 3, 55, 0
5, 37320, Note_on_c, 3, 59, 127
5, 37320, Note_on_c, 3, 59, 127
5, 37340, Note_on_c, 3, 59, 0
5, 37340, Note_on_c, 3, 59, 0
5, 37340, Note_on_c, 3, 62, 127
5, 37340, Note_on_c, 3, 62, 127
5, 37360, Note_on_c, 3, 62, 0
5, 37360, Note_on_c, 3, 62, 0
5, 37360, Note_on_c, 3, 59, 127
5, 37360, Note_on_c, 3, 59, 127
5, 37380, Note_on_c, 3, 59, 0
5, 37380, Note_on_c, 3, 59, 0
5, 37380, Note_on_c, 3, 59, 127
5, 37380, Note_on_c, 3, 59, 127
5, 37410, Note_on_c, 3, 59, 0
5, 37410, Note_on_c, 3, 59, 0
5, 37410, Note_on_c, 3, 59, 127
5, 37410, Note_on_c, 3, 59, 127
5, 37440, Note_on_c, 3, 59, 0
5, 37440, Note_on_c, 3, 59, 0
5, 37440, Note_on_c, 3, 59, 127
5, 37440, Note_on_c, 3, 59, 127
5, 37460, Note_on_c, 3, 59, 0
5, 37460, Note_on_c, 3, 59, 0
5, 37460, Note_on_c, 3, 62, 127
5, 37460, Note_on_c, 3, 62, 127
5, 37480, Note_on_c, 3, 62, 0
5, 37480, Note_on_c, 3, 62, 0
5, 37480, Note_on_c, 3, 59, 127
5, 37480, Note_on_c, 3, 59, 127
5, 37500, Note_on_c, 3, 59, 0
5, 37500, Note_on_c, 3, 59, 0
5, 37500, Note_on_c, 3, 55, 127
5, 37500, Note_on_c, 3, 55, 127
5, 37560, Note_on_c, 3, 55, 0
5, 37560, Note_on_c, 3, 55, 0
5, 37560, Note_on_c, 3, 53, 127
5, 37560, Note_on_c, 3, 53, 127
5, 37680, Note_on_c, 3, 53, 0
5, 37680, Note_on_c, 3, 53, 0
5, 37680, Note_on_c, 3, 55, 127
5, 37680, Note_on_c, 3, 55, 127
5, 37740, Note_on_c, 3, 55, 0
5, 37740, Note_on_c, 3, 55, 0
5, 37740, Note_on_c, 3, 65, 127
5, 37740, Note_on_c, 3, 65, 127
5, 37800, Note_on_c, 3, 65, 0
5, 37800, Note_on_c, 3, 65, 0
5, 37800, Note_on_c, 3, 60, 127
5, 37800, Note_on_c, 3, 60, 127
5, 37860, Note_on_c, 3, 60, 0
5, 37860, Note_on_c, 3, 60, 0
5, 37860, Note_on_c, 3, 55, 127
5, 37860, Note_on_c, 3, 55, 127
5, 37920, Note_on_c, 3, 55, 0
5, 37920, Note_on_c, 3, 55, 0
5, 37920, Note_on_c, 3, 52, 127
5, 37920, Note_on_c, 3, 52, 127
5, 37980, Note_on_c, 3, 52, 0
5, 37980, Note_on_c, 3, 52, 0
5, 37980, Note_on_c, 3, 59, 127
5, 37980, Note_on_c, 3, 59, 127
5, 38040, Note_on_c, 3, 59, 0
5, 38040, Note_on_c, 3, 59, 0
5, 38040, Note_on_c, 3, 55, 127
5, 38040, Note_on_c, 3, 55, 127
5, 38100, Note_on_c, 3, 55, 0
5, 38100, Note_on_c, 3, 55, 0
5, 38100, Note_on_c, 3, 59, 127
5, 38100, Note_on_c, 3, 59, 127
5, 38160, Note_on_c, 3, 59, 0
5, 38160, Note_on_c, 3, 59, 0
5, 38160, Note_on_c, 3, 64, 127
5, 38160, Note_on_c, 3, 64, 127
5, 38220, Note_on_c, 3, 64, 0
5, 38220, Note_on_c, 3, 64, 0
5, 38220, Note_on_c, 3, 59, 127
5, 38220, Note_on_c, 3, 59, 127
5, 38280, Note_on_c, 3, 59, 0
5, 38280, Note_on_c, 3, 59, 0
5, 38280, Note_on_c, 3, 50, 127
5, 38280, Note_on_c, 3, 50, 127
5, 38340, Note_on_c, 3, 50, 0
5, 38340, Note_on_c, 3, 50, 0
5, 38340, Note_on_c, 3, 57, 127
5, 38340, Note_on_c, 3, 57, 127
5, 38400, Note_on_c, 3, 57, 0
5, 38400, Note_on_c, 3, 57, 0
5, 38400, Note_on_c, 3, 55, 127
5, 38400, Note_on_c, 3, 55, 127
5, 38460, Note_on_c, 3, 55, 0
5, 38460, Note_on_c, 3, 55, 0
5, 38460, Note_on_c, 3, 62, 127
5, 38460, Note_on_c, 3, 62, 127
5, 38520, Note_on_c, 3, 62, 0
5, 38520, Note_on_c, 3, 62, 0
5, 38520, Note_on_c, 3, 57, 127
5, 38520, Note_on_c, 3, 57, 127
5, 38580, Note_on_c, 3, 57, 0
5, 38580, Note_on_c, 3, 57, 0
5, 38580, Note_on_c, 3, 55, 127
5, 38580, Note_on_c, 3, 55, 127
5, 38640, Note_on_c, 3, 55, 0
5, 38640, Note_on_c, 3, 55, 0
5, 38640, Note_on_c, 3, 55, 127
5, 38640, Note_on_c, 3, 55, 127
5, 38760, Note_on_c, 3, 55, 0
5, 38760, Note_on_c, 3, 55, 0
5, 38760, Note_on_c, 3, 59, 127
5, 38760, Note_on_c, 3, 59, 127
5, 38780, Note_on_c, 3, 59, 0
5, 38780, Note_on_c, 3, 59, 0
5, 38780, Note_on_c, 3, 62, 127
5, 38780, Note_on_c, 3, 62, 127
5, 38800, Note_on_c, 3, 62, 0
5, 38800, Note_on_c, 3, 62, 0
5, 38800, Note_on_c, 3, 59, 127
5, 38800, Note_on_c, 3, 59, 127
5, 38820, Note_on_c, 3, 59, 0
5, 38820, Note_on_c, 3, 59, 0
5, 38820, Note_on_c, 3, 59, 127
5, 38820, Note_on_c, 3, 59, 127
5, 38850, Note_on_c, 3, 59, 0
5, 38850, Note_on_c, 3, 59, 0
5, 38850, Note_on_c, 3, 59, 127
5, 38850, Note_on_c, 3, 59, 127
5, 38880, Note_on_c, 3, 59, 0
5, 38880, Note_on_c, 3, 59, 0
5, 38880, Note_on_c, 3, 59, 127
5, 38880, Note_on_c, 3, 59, 127
5, 38900, Note_on_c, 3, 59, 0
5, 38900, Note_on_c, 3, 59, 0
5, 38900, Note_on_c, 3, 62, 127
5, 38900, Note_on_c, 3, 62, 127
5, 38920, Note_on_c, 3, 62, 0
5, 38920, Note_on_c, 3, 62, 0
5, 38920, Note_on_c, 3, 59, 127
5, 38920, Note_on_c, 3, 59, 127
5, 38940, Note_on_c, 3, 59, 0
5, 38940, Note_on_c, 3, 59, 0
5, 38940, Note_on_c, 3, 55, 127
5, 38940, Note_on_c, 3, 55, 127
5, 39000, Note_on_c, 3, 55, 0
5, 39000, Note_on_c, 3, 55, 0
5, 39000, Note_on_c, 3, 53, 127
5, 39000, Note_on_c, 3, 53, 127
5, 39120, Note_on_c, 3, 53, 0
5, 39120, Note_on_c, 3, 53, 0
5, 39120, Note_on_c, 3, 55, 127
5, 39120, Note_on_c, 3, 55, 127
5, 39180, Note_on_c, 3, 55, 0
5, 39180, Note_on_c, 3, 55, 0
5, 39180, Note_on_c, 3, 65, 127
5, 39180, Note_on_c, 3, 65, 127
5, 39240, Note_on_c, 3, 65, 0
5, 39240, Note_on_c, 3, 65, 0
5, 39240, Note_on_c, 3, 60, 127
5, 39240, Note_on_c, 3, 60, 127
5, 39300, Note_on_c, 3, 60, 0
5, 39300, Note_on_c, 3, 60, 0
5, 39300, Note_on_c, 3, 55, 127
5, 39300, Note_on_c, 3, 55, 127
5, 39360, Note_on_c, 3, 55, 0
5, 39360, Note_on_c, 3, 55, 0
5, 39360, Note_on_c, 3, 52, 127
5, 39360, Note_on_c, 3, 52, 127
5, 39420, Note_on_c, 3, 52, 0
5, 39420, Note_on_c, 3, 52, 0
5, 39420, Note_on_c, 3, 59, 127
5, 39420, Note_on_c, 3, 59, 127
5, 39480, Note_on_c, 3, 59, 0
5, 39480, Note_on_c, 3, 59, 0
5, 39480, Note_on_c, 3, 55, 127
5, 39480, Note_on_c, 3, 55, 127
5, 39540, Note_on_c, 3, 55, 0
5, 39540, Note_on_c, 3, 55, 0
5, 39540, Note_on_c, 3, 59, 127
5, 39540, Note_on_c, 3, 59, 127
5, 39600, Note_on_c, 3, 59, 0
5, 39600, Note_on_c, 3, 59, 0
5, 39600, Note_on_c, 3, 64, 127
5, 39600, Note_on_c, 3, 64, 127
5, 39660, Note_on_c, 3, 64, 0
5, 39660, Note_on_c, 3, 64, 0
5, 39660, Note_on_c, 3, 59, 127
5, 39660, Note_on_c, 3, 59, 127
5, 39720, Note_on_c, 3, 59, 0
5, 39720, Note_on_c, 3, 59, 0
5, 39720, Time_signature, 6, 2, 24, 8
5, 43320, Time_signature, 3, 2, 24, 8
5, 43320, Note_on_c, 3, 52, 127
5, 43320, Note_on_c, 3, 48, 127
5, 43500, Note_on_c, 3, 52, 0
5, 43500, Note_on_c, 3, 48, 0
5, 43500, Note_on_c, 3, 47, 127
5, 43500, Note_on_c, 3, 50, 127
5, 43560, Note_on_c, 3, 47, 0
5, 43560, Note_on_c, 3, 50, 0
5, 43560, Note_on_c, 3, 52, 127
5, 43560, Note_on_c, 3, 48, 127
5, 43620, Note_on_c, 3, 52, 0
5, 43620, Note_on_c, 3, 48, 0
5, 43620, Note_on_c, 3, 45, 127
5, 43620, Note_on_c, 3, 50, 127
5, 43680, Note_on_c, 3, 45, 0
5, 43680, Note_on_c, 3, 50, 0
5, 43680, Note_on_c, 3, 43, 127
5, 43680, Note_on_c, 3, 47, 127
5, 43800, Note_on_c, 3, 43, 0
5, 43800, Note_on_c, 3, 47, 0
5, 43800, Note_on_c, 3, 43, 127
5, 43800, Note_on_c, 3, 50, 127
5, 43800, Note_on_c, 3, 55, 127
5, 43860, Note_on_c, 3, 43, 0
5, 43860, Note_on_c, 3, 50, 0
5, 43860, Note_on_c, 3, 55, 0
5, 43860, Note_on_c, 3, 43, 127
5, 43860, Note_on_c, 3, 50, 127
5, 43860, Note_on_c, 3, 55, 127
5, 43920, Note_on_c, 3, 43, 0
5, 43920, Note_on_c, 3, 50, 0
5, 43920, Note_on_c, 3, 55, 0
5, 43920, Note_on_c, 3, 43, 127
5, 43920, Note_on_c, 3, 50, 127
5, 43920, Note_on_c, 3, 55, 127
5, 43980, Note_on_c, 3, 43, 0
5, 43980, Note_on_c, 3, 50, 0
5, 43980, Note_on_c, 3, 55, 0
5, 43980, Note_on_c, 3, 43, 127
5, 43980, Note_on_c, 3, 50, 127
5, 43980, Note_on_c, 3, 55, 127
5, 44040, Note_on_c, 3, 43, 0
5, 44040, Note_on_c, 3, 50, 0
5, 44040, Note_on_c, 3, 55, 0
5, 44040, Note_on_c, 3, 59, 127
5, 44040, Note_on_c, 3, 54, 127
5, 44040, Note_on_c, 3, 47, 127
5, 44220, Note_on_c, 3, 59, 0
5, 44220, Note_on_c, 3, 54, 0
5, 44220, Note_on_c, 3, 47, 0
5, 44220, Note_on_c, 3, 42, 127
5, 44280, Note_on_c, 3, 42, 0
5, 44280, Note_on_c, 3, 59, 127
5, 44280, Note_on_c, 3, 54, 127
5, 44280, Note_on_c, 3, 47, 127
5, 44340, Note_on_c, 3, 59, 0
5, 44340, Note_on_c, 3, 54, 0
5, 44340, Note_on_c, 3, 47, 0
5, 44340, Note_on_c, 3, 42, 127
5, 44400, Note_on_c, 3, 42, 0
5, 44400, Note_on_c, 3, 60, 127
5, 44400, Note_on_c, 3, 55, 127
5, 44400, Note_on_c, 3, 48, 127
5, 44580, Note_on_c, 3, 60, 0
5, 44580, Note_on_c, 3, 55, 0
5, 44580, Note_on_c, 3, 48, 0
5, 44580, Note_on_c, 3, 43, 127
5, 44640, Note_on_c, 3, 43, 0
5, 44640, Note_on_c, 3, 60, 127
5, 44640, Note_on_c, 3, 55, 127
5, 44640, Note_on_c, 3, 48, 127
5, 44700, Note_on_c, 3, 60, 0
5, 44700, Note_on_c, 3, 55, 0
5, 44700, Note_on_c, 3, 48, 0
5, 44760, Note_on_c, 3, 52, 127
5, 44760, Note_on_c, 3, 48, 127
5, 44940, Note_on_c, 3, 52, 0
5, 44940, Note_on_c, 3, 48, 0
5, 44940, Note_on_c, 3, 47, 127
5, 44940, Note_on_c, 3, 50, 127
5, 45000, Note_on_c, 3, 47, 0
5, 45000, Note_on_c, 3, 50, 0
5, 45000, Note_on_c, 3, 52, 127
5, 45000, Note_on_c, 3, 48, 127
5, 45060, Note_on_c, 3, 52, 0
5, 45060, Note_on_c, 3, 48, 0
5, 45060, Note_on_c, 3, 45, 127
5, 45060, Note_on_c, 3, 50, 127
5, 45120, Note_on_c, 3, 45, 0
5, 45120, Note_on_c, 3, 50, 0
5, 45120, Note_on_c, 3, 43, 127
5, 45120, Note_on_c, 3, 47, 127
5, 45240, Note_on_c, 3, 43, 0
5, 45240, Note_on_c, 3, 47, 0
5, 45240, Note_on_c, 3, 43, 127
5, 45240, Note_on_c, 3, 50, 127
5, 45240, Note_on_c, 3, 55, 127
5, 45300, Note_on_c, 3, 43, 0
5, 45300, Note_on_c, 3, 50, 0
5, 45300, Note_on_c, 3, 55, 0
5, 45300, Note_on_c, 3, 43, 127
5, 45300, Note_on_c, 3, 50, 127
5, 45300, Note_on_c, 3, 55, 127
5, 45360, Note_on_c, 3, 43, 0
5, 45360, Note_on_c, 3, 50, 0
5, 45360, Note_on_c, 3, 55, 0
5, 45360, Note_on_c, 3, 43, 127
5, 45360, Note_on_c, 3, 50, 127
5, 45360, Note_on_c, 3, 55, 127
5, 45420, Note_on_c, 3, 43, 0
5, 45420, Note_on_c, 3, 50, 0
5, 45420, Note_on_c, 3, 55, 0
5, 45420, Note_on_c, 3, 43, 127
5, 45420, Note_on_c, 3, 50, 127
5, 45420, Note_on_c, 3, 55, 127
5, 45480, Note_on_c, 3, 43, 0
5, 45480, Note_on_c, 3, 50, 0
5, 45480, Note_on_c, 3, 55, 0
5, 45480, Note_on_c, 3, 59, 127
5, 45480, Note_on_c, 3, 54, 127
5, 45480, Note_on_c, 3, 47, 127
5, 45660, Note_on_c, 3, 59, 0
5, 45660, Note_on_c, 3, 54, 0
5, 45660, Note_on_c, 3, 47, 0
5, 45660, Note_on_c, 3, 42, 127
5, 45720, Note_on_c, 3, 42, 0
5, 45720, Note_on_c, 3, 59, 127
5, 45720, Note_on_c, 3, 54, 127
5, 45720, Note_on_c, 3, 47, 127
5, 45780, Note_on_c, 3, 59, 0
5, 45780, Note_on_c, 3, 54, 0
5, 45780, Note_on_c, 3, 47, 0
5, 45780, Note_on_c, 3, 42, 127
5, 45840, Note_on_c, 3, 42, 0
5, 45840, Note_on_c, 3, 60, 127
5, 45840, Note_on_c, 3, 55, 127
5, 45840, Note_on_c, 3, 48, 127
5, 46020, Note_on_c, 3, 60, 0
5, 46020, Note_on_c, 3, 55, 0
5, 46020, Note_on_c, 3, 48, 0
5, 46020, Note_on_c, 3, 43, 127
5, 46080, Note_on_c, 3, 43, 0
5, 46080, Note_on_c, 3, 60, 127
5, 46080, Note_on_c, 3, 55, 127
5, 46080, Note_on_c, 3, 48, 127
5, 46140, Note_on_c, 3, 60, 0
5, 46140, Note_on_c, 3, 55, 0
5, 46140, Note_on_c, 3, 48, 0
5, 46200, Note_on_c, 3, 52, 127
5, 46200, Note_on_c, 3, 48, 127
5, 46380, Note_on_c, 3, 52, 0
5, 46380, Note_on_c, 3, 48, 0
5, 46380, Note_on_c, 3, 47, 127
5, 46380, Note_on_c, 3, 50, 127
5, 46440, Note_on_c, 3, 47, 0
5, 46440, Note_on_c, 3, 50, 0
5, 46440, Note_on_c, 3, 52, 127
5, 46440, Note_on_c, 3, 48, 127
5, 46500, Note_on_c, 3, 52, 0
5, 46500, Note_on_c, 3, 48, 0
5, 46500, Note_on_c, 3, 45, 127
5, 46500, Note_on_c, 3, 50, 127
5, 46560, Note_on_c, 3, 45, 0
5, 46560, Note_on_c, 3, 50, 0
5, 46560, Note_on_c, 3, 43, 127
5, 46560, Note_on_c, 3, 47, 127
5, 46680, Note_on_c, 3, 43, 0
5, 46680, Note_on_c, 3, 47, 0
5, 46680, Note_on_c, 3, 43, 127
5, 46680, Note_on_c, 3, 50, 127
5, 46680, Note_on_c, 3, 55, 127
5, 46740, Note_on_c, 3, 43, 0
5, 46740, Note_on_c, 3, 50, 0
5, 46740, Note_on_c, 3, 55, 0
5, 46740, Note_on_c, 3, 43, 127
5, 46740, Note_on_c, 3, 50, 127
5, 46740, Note_on_c, 3, 55, 127
5, 46800, Note_on_c, 3, 43, 0
5, 46800, Note_on_c, 3, 50, 0
5, 46800, Note_on_c, 3, 55, 0
5, 46800, Note_on_c, 3, 43, 127
5, 46800, Note_on_c, 3, 50, 127
5, 46800, Note_on_c, 3, 55, 127
5, 46860, Note_on_c, 3, 43, 0
5, 46860, Note_on_c, 3, 50, 0
5, 46860, Note_on_c, 3, 55, 0
5, 46860, Note_on_c, 3, 43, 127
5, 46860, Note_on_c, 3, 50, 127
5, 46860, Note_on_c, 3, 55, 127
5, 46920, Note_on_c, 3, 43, 0
5, 46920, Note_on_c, 3, 50, 0
5, 46920, Note_on_c, 3, 55, 0
5, 46920, Note_on_c, 3, 59, 127
5, 46920, Note_on_c, 3, 54, 127
5, 46920, Note_on_c, 3, 47, 127
5, 47100, Note_on_c, 3, 59, 0
5, 47100, Note_on_c, 3, 54, 0
5, 47100, Note_on_c, 3, 47, 0
5, 47100, Note_on_c, 3, 42, 127
5, 47160, Note_on_c, 3, 42, 0
5, 47160, Note_on_c, 3, 59, 127
5, 47160, Note_on_c, 3, 54, 127
5, 47160, Note_on_c, 3, 47, 127
5, 47220, Note_on_c, 3, 59, 0
5, 47220, Note_on_c, 3, 54, 0
5, 47220, Note_on_c, 3, 47, 0
5, 47220, Note_on_c, 3, 42, 127
5, 47280, Note_on_c, 3, 42, 0
5, 47280, Note_on_c, 3, 60, 127
5, 47280, Note_on_c, 3, 55, 127
5, 47280, Note_on_c, 3, 48, 127
5, 47460, Note_on_c, 3, 60, 0
5, 47460, Note_on_c, 3, 55, 0
5, 47460, Note_on_c, 3, 48, 0
5, 47460, Note_on_c, 3, 43, 127
5, 47520, Note_on_c, 3, 43, 0
5, 47520, Note_on_c, 3, 60, 127
5, 47520, Note_on_c, 3, 55, 127
5, 47520, Note_on_c, 3, 48, 127
5, 47580, Note_on_c, 3, 60, 0
5, 47580, Note_on_c, 3, 55, 0
5, 47580, Note_on_c, 3, 48, 0
5, 47640, Note_on_c, 3, 52, 127
5, 47640, Note_on_c, 3, 48, 127
5, 47820, Note_on_c, 3, 52, 0
5, 47820, Note_on_c, 3, 48, 0
5, 47820, Note_on_c, 3, 47, 127
5, 47820, Note_on_c, 3, 50, 127
5, 47880, Note_on_c, 3, 47, 0
5, 47880, Note_on_c, 3, 50, 0
5, 47880, Note_on_c, 3, 52, 127
5, 47880, Note_on_c, 3, 48, 127
5, 47940, Note_on_c, 3, 52, 0
5, 47940, Note_on_c, 3, 48, 0
5, 47940, Note_on_c, 3, 45, 127
5, 47940, Note_on_c, 3, 50, 127
5, 48000, Note_on_c, 3, 45, 0
5, 48000, Note_on_c, 3, 50, 0
5, 48000, Note_on_c, 3, 43, 127
5, 48000, Note_on_c, 3, 47, 127
5, 48120, Note_on_c, 3, 43, 0
5, 48120, Note_on_c, 3, 47, 0
5, 48120, Note_on_c, 3, 43, 127
5, 48120, Note_on_c, 3, 50, 127
5, 48120, Note_on_c, 3, 55, 127
5, 48180, Note_on_c, 3, 43, 0
5, 48180, Note_on_c, 3, 50, 0
5, 48180, Note_on_c, 3, 55, 0
5, 48180, Note_on_c, 3, 43, 127
5, 48180, Note_on_c, 3, 50, 127
5, 48180, Note_on_c, 3, 55, 127
5, 48240, Note_on_c, 3, 43, 0
5, 48240, Note_on_c, 3, 50, 0
5, 48240, Note_on_c, 3, 55, 0
5, 48240, Note_on_c, 3, 43, 127
5, 48240, Note_on_c, 3, 50, 127
5, 48240, Note_on_c, 3, 55, 127
5, 48300, Note_on_c, 3, 43, 0
5, 48300, Note_on_c, 3, 50, 0
5, 48300, Note_on_c, 3, 55, 0
5, 48300, Note_on_c, 3, 43, 127
5, 48300, Note_on_c, 3, 50, 127
5, 48300, Note_on_c, 3, 55, 127
5, 48360, Note_on_c, 3, 43, 0
5, 48360, Note_on_c, 3, 50, 0
5, 48360, Note_on_c, 3, 55, 0
5, 48360, Note_on_c, 3, 59, 127
5, 48360, Note_on_c, 3, 54, 127
5, 48360, Note_on_c, 3, 47, 127
5, 48540, Note_on_c, 3, 59, 0
5, 48540, Note_on_c, 3, 54, 0
5, 48540, Note_on_c, 3, 47, 0
5, 48540, Note_on_c, 3, 42, 127
5, 48600, Note_on_c, 3, 42, 0
5, 48600, Note_on_c, 3, 59, 127
5, 48600, Note_on_c, 3, 54, 127
5, 48600, Note_on_c, 3, 47, 127
5, 48660, Note_on_c, 3, 59, 0
5, 48660, Note_on_c, 3, 54, 0
5, 48660, Note_on_c, 3, 47, 0
5, 48660, Note_on_c, 3, 42, 127
5, 48720, Note_on_c, 3, 42, 0
5, 48720, Note_on_c, 3, 60, 127
5, 48720, Note_on_c, 3, 55, 127
5, 48720, Note_on_c, 3, 48, 127
5, 48900, Note_on_c, 3, 60, 0
5, 48900, Note_on_c, 3, 55, 0
5, 48900, Note_on_c, 3, 48, 0
5, 48900, Note_on_c, 3, 43, 127
5, 48960, Note_on_c, 3, 43, 0
5, 48960, Note_on_c, 3, 60, 127
5, 48960, Note_on_c, 3, 55, 127
5, 48960, Note_on_c, 3, 48, 127
5, 49020, Note_on_c, 3, 60, 0
5, 49020, Note_on_c, 3, 55, 0
5, 49020, Note_on_c, 3, 48, 0
5, 51960, Time_signature, 4, 2, 24, 8
5, 96120, Note_on_c, 3, 40, 127
5, 96160, Note_on_c, 3, 40, 0
5, 96160, Note_on_c, 3, 40, 127
5, 96200, Note_on_c, 3, 40, 0
5, 96200, Note_on_c, 3, 40, 127
5, 96240, Note_on_c, 3, 40, 0
5, 96240, Note_on_c, 3, 40, 127
5, 96280, Note_on_c, 3, 40, 0
5, 96280, Note_on_c, 3, 40, 127
5, 96320, Note_on_c, 3, 40, 0
5, 96320, Note_on_c, 3, 40, 127
5, 96360, Note_on_c, 3, 40, 0
5, 96360, Note_on_c, 3, 52, 127
5, 96360, Note_on_c, 3, 47, 127
5, 96480, Note_on_c, 3, 52, 0
5, 96480, Note_on_c, 3, 47, 0
5, 96480, Note_on_c, 3, 40, 127
5, 96520, Note_on_c, 3, 40, 0
5, 96520, Note_on_c, 3, 40, 127
5, 96560, Note_on_c, 3, 40, 0
5, 96560, Note_on_c, 3, 40, 127
5, 96600, Note_on_c, 3, 40, 0
5, 96600, Note_on_c, 3, 40, 127
5, 96640, Note_on_c, 3, 40, 0
5, 96640, Note_on_c, 3, 40, 127
5, 96680, Note_on_c, 3, 40, 0
5, 96680, Note_on_c, 3, 40, 127
5, 96720, Note_on_c, 3, 40, 0
5, 96720, Note_on_c, 3, 52, 127
5, 96720, Note_on_c, 3, 47, 127
5, 96840, Note_on_c, 3, 52, 0
5, 96840, Note_on_c, 3, 47, 0
5, 96840, Note_on_c, 3, 40, 127
5, 96880, Note_on_c, 3, 40, 0
5, 96880, Note_on_c, 3, 40, 127
5, 96920, Note_on_c, 3, 40, 0
5, 96920, Note_on_c, 3, 40, 127
5, 96960, Note_on_c, 3, 40, 0
5, 96960, Note_on_c, 3, 53, 127
5, 96960, Note_on_c, 3, 48, 127
5, 97080, Note_on_c, 3, 53, 0
5, 97080, Note_on_c, 3, 48, 0
5, 97080, Note_on_c, 3, 40, 127
5, 97120, Note_on_c, 3, 40, 0
5, 97120, Note_on_c, 3, 40, 127
5, 97160, Note_on_c, 3, 40, 0
5, 97160, Note_on_c, 3, 40, 127
5, 97200, Note_on_c, 3, 40, 0
5, 97200, Note_on_c, 3, 40, 127
5, 97240, Note_on_c, 3, 40, 0
5, 97240, Note_on_c, 3, 40, 127
5, 97280, Note_on_c, 3, 40, 0
5, 97280, Note_on_c, 3, 40, 127
5, 97320, Note_on_c, 3, 40, 0
5, 97320, Note_on_c, 3, 52, 127
5, 97320, Note_on_c, 3, 47, 127
5, 97440, Note_on_c, 3, 52, 0
5, 97440, Note_on_c, 3, 47, 0
5, 97440, Note_on_c, 3, 40, 127
5, 97480, Note_on_c, 3, 40, 0
5, 97480, Note_on_c, 3, 40, 127
5, 97520, Note_on_c, 3, 40, 0
5, 97520, Note_on_c, 3, 40, 127
5, 97560, Note_on_c, 3, 40, 0
5, 97560, Note_on_c, 3, 40, 127
5, 97600, Note_on_c, 3, 40, 0
5, 97600, Note_on_c, 3, 40, 127
5, 97640, Note_on_c, 3, 40, 0
5, 97640, Note_on_c, 3, 40, 127
5, 97680, Note_on_c, 3, 40, 0
5, 97680, Note_on_c, 3, 52, 127
5, 97680, Note_on_c, 3, 47, 127
5, 97800, Note_on_c, 3, 52, 0
5, 97800, Note_on_c, 3, 47, 0
5, 97800, Note_on_c, 3, 40, 127
5, 97840, Note_on_c, 3, 40, 0
5, 97840, Note_on_c, 3, 40, 127
5, 97880, Note_on_c, 3, 40, 0
5, 97880, Note_on_c, 3, 40, 127
5, 97920, Note_on_c, 3, 40, 0
5, 97920, Note_on_c, 3, 53, 127
5, 97920, Note_on_c, 3, 48, 127
5, 98040, Note_on_c, 3, 53, 0
5, 98040, Note_on_c, 3, 48, 0
5, 98040, Note_on_c, 3, 40, 127
5, 98080, Note_on_c, 3, 40, 0
5, 98080, Note_on_c, 3, 40, 127
5, 98120, Note_on_c, 3, 40, 0
5, 98120, Note_on_c, 3, 40, 127
5, 98160, Note_on_c, 3, 40, 0
5, 98160, Note_on_c, 3, 40, 127
5, 98200, Note_on_c, 3, 40, 0
5, 98200, Note_on_c, 3, 40, 127
5, 98240, Note_on_c, 3, 40, 0
5, 98240, Note_on_c, 3, 40, 127
5, 98280, Note_on_c, 3, 40, 0
5, 98280, Note_on_c, 3, 52, 127
5, 98280, Note_on_c, 3, 47, 127
5, 98400, Note_on_c, 3, 52, 0
5, 98400, Note_on_c, 3, 47, 0
5, 98400, Note_on_c, 3, 40, 127
5, 98440, Note_on_c, 3, 40, 0
5, 98440, Note_on_c, 3, 40, 127
5, 98480, Note_on_c, 3, 40, 0
5, 98480, Note_on_c, 3, 40, 127
5, 98520, Note_on_c, 3, 40, 0
5, 98520, Note_on_c, 3, 40, 127
5, 98560, Note_on_c, 3, 40, 0
5, 98560, Note_on_c, 3, 40, 127
5, 98600, Note_on_c, 3, 40, 0
5, 98600, Note_on_c, 3, 40, 127
5, 98640, Note_on_c, 3, 40, 0
5, 98640, Note_on_c, 3, 52, 127
5, 98640, Note_on_c, 3, 47, 127
5, 98760, Note_on_c, 3, 52, 0
5, 98760, Note_on_c, 3, 47, 0
5, 98760, Note_on_c, 3, 40, 127
5, 98800, Note_on_c, 3, 40, 0
5, 98800, Note_on_c, 3, 40, 127
5, 98840, Note_on_c, 3, 40, 0
5, 98840, Note_on_c, 3, 40, 127
5, 98880, Note_on_c, 3, 40, 0
5, 98880, Note_on_c, 3, 53, 127
5, 98880, Note_on_c, 3, 48, 127
5, 99000, Note_on_c, 3, 53, 0
5, 99000, Note_on_c, 3, 48, 0
5, 99000, Note_on_c, 3, 40, 127
5, 99040, Note_on_c, 3, 40, 0
5, 99040, Note_on_c, 3, 40, 127
5, 99080, Note_on_c, 3, 40, 0
5, 99080, Note_on_c, 3, 40, 127
5, 99120, Note_on_c, 3, 40, 0
5, 99120, Note_on_c, 3, 40, 127
5, 99160, Note_on_c, 3, 40, 0
5, 99160, Note_on_c, 3, 40, 127
5, 99200, Note_on_c, 3, 40, 0
5, 99200, Note_on_c, 3, 40, 127
5, 99240, Note_on_c, 3, 40, 0
5, 99240, Note_on_c, 3, 52, 127
5, 99240, Note_on_c, 3, 47, 127
5, 99360, Note_on_c, 3, 52, 0
5, 99360, Note_on_c, 3, 47, 0
5, 99360, Note_on_c, 3, 40, 127
5, 99400, Note_on_c, 3, 40, 0
5, 99400, Note_on_c, 3, 40, 127
5, 99440, Note_on_c, 3, 40, 0
5, 99440, Note_on_c, 3, 40, 127
5, 99480, Note_on_c, 3, 40, 0
5, 99480, Note_on_c, 3, 40, 127
5, 99520, Note_on_c, 3, 40, 0
5, 99520, Note_on_c, 3, 40, 127
5, 99560, Note_on_c, 3, 40, 0
5, 99560, Note_on_c, 3, 40, 127
5, 99600, Note_on_c, 3, 40, 0
5, 99600, Note_on_c, 3, 52, 127
5, 99600, Note_on_c, 3, 47, 127
5, 99720, Note_on_c, 3, 52, 0
5, 99720, Note_on_c, 3, 47, 0
5, 99720, Note_on_c, 3, 40, 127
5, 99760, Note_on_c, 3, 40, 0
5, 99760, Note_on_c, 3, 40, 127
5, 99800, Note_on_c, 3, 40, 0
5, 99800, Note_on_c, 3, 40, 127
5, 99840, Note_on_c, 3, 40, 0
5, 99840, Note_on_c, 3, 53, 127
5, 99840, Note_on_c, 3, 48, 127
5, 99960, Note_on_c, 3, 53, 0
5, 99960, Note_on_c, 3, 48, 0
5, 99960, Note_on_c, 3, 40, 127
5, 100000, Note_on_c, 3, 40, 0
5, 100000, Note_on_c, 3, 40, 127
5, 100040, Note_on_c, 3, 40, 0
5, 100040, Note_on_c, 3, 40, 127
5, 100080, Note_on_c, 3, 40, 0
5, 100080, Note_on_c, 3, 40, 127
5, 100120, Note_on_c, 3, 40, 0
5, 100120, Note_on_c, 3, 40, 127
5, 100160, Note_on_c, 3, 40, 0
5, 100160, Note_on_c, 3, 40, 127
5, 100200, Note_on_c, 3, 40, 0
5, 100200, Note_on_c, 3, 52, 127
5, 100200, Note_on_c, 3, 47, 127
5, 100320, Note_on_c, 3, 52, 0
5, 100320, Note_on_c, 3, 47, 0
5, 100320, Note_on_c, 3, 40, 127
5, 100360, Note_on_c, 3, 40, 0
5, 100360, Note_on_c, 3, 40, 127
5, 100400, Note_on_c, 3, 40, 0
5, 100400, Note_on_c, 3, 40, 127
5, 100440, Note_on_c, 3, 40, 0
5, 100440, Note_on_c, 3, 40, 127
5, 100480, Note_on_c, 3, 40, 0
5, 100480, Note_on_c, 3, 40, 127
5, 100520, Note_on_c, 3, 40, 0
5, 100520, Note_on_c, 3, 40, 127
5, 100560, Note_on_c, 3, 40, 0
5, 100560, Note_on_c, 3, 52, 127
5, 100560, Note_on_c, 3, 47, 127
5, 100680, Note_on_c, 3, 52, 0
5, 100680, Note_on_c, 3, 47, 0
5, 100680, Note_on_c, 3, 40, 127
5, 100720, Note_on_c, 3, 40, 0
5, 100720, Note_on_c, 3, 40, 127
5, 100760, Note_on_c, 3, 40, 0
5, 100760, Note_on_c, 3, 40, 127
5, 100800, Note_on_c, 3, 40, 0
5, 100800, Note_on_c, 3, 53, 127
5, 100800, Note_on_c, 3, 48, 127
5, 100920, Note_on_c, 3, 53, 0
5, 100920, Note_on_c, 3, 48, 0
5, 100920, Note_on_c, 3, 40, 127
5, 100960, Note_on_c, 3, 40, 0
5, 100960, Note_on_c, 3, 40, 127
5, 101000, Note_on_c, 3, 40, 0
5, 101000, Note_on_c, 3, 40, 127
5, 101040, Note_on_c, 3, 40, 0
5, 101040, Note_on_c, 3, 40, 127
5, 101080, Note_on_c, 3, 40, 0
5, 101080, Note_on_c, 3, 40, 127
5, 101120, Note_on_c, 3, 40, 0
5, 101120, Note_on_c, 3, 40, 127
5, 101160, Note_on_c, 3, 40, 0
5, 101160, Note_on_c, 3, 52, 127
5, 101160, Note_on_c, 3, 47, 127
5, 101280, Note_on_c, 3, 52, 0
5, 101280, Note_on_c, 3, 47, 0
5, 101280, Note_on_c, 3, 40, 127
5, 101320, Note_on_c, 3, 40, 0
5, 101320, Note_on_c, 3, 40, 127
5, 101360, Note_on_c, 3, 40, 0
5, 101360, Note_on_c, 3, 40, 127
5, 101400, Note_on_c, 3, 40, 0
5, 101400, Note_on_c, 3, 40, 127
5, 101440, Note_on_c, 3, 40, 0
5, 101440, Note_on_c, 3, 40, 127
5, 101480, Note_on_c, 3, 40, 0
5, 101480, Note_on_c, 3, 40, 127
5, 101520, Note_on_c, 3, 40, 0
5, 101520, Note_on_c, 3, 52, 127
5, 101520, Note_on_c, 3, 47, 127
5, 101640, Note_on_c, 3, 52, 0
5, 101640, Note_on_c, 3, 47, 0
5, 101640, Note_on_c, 3, 40, 127
5, 101680, Note_on_c, 3, 40, 0
5, 101680, Note_on_c, 3, 40, 127
5, 101720, Note_on_c, 3, 40, 0
5, 101720, Note_on_c, 3, 40, 127
5, 101760, Note_on_c, 3, 40, 0
5, 101760, Note_on_c, 3, 53, 127
5, 101760, Note_on_c, 3, 48, 127
5, 101880, Note_on_c, 3, 53, 0
5, 101880, Note_on_c, 3, 48, 0
5, 101880, Note_on_c, 3, 40, 127
5, 101920, Note_on_c, 3, 40, 0
5, 101920, Note_on_c, 3, 40, 127
5, 101960, Note_on_c, 3, 40, 0
5, 101960, Note_on_c, 3, 40, 127
5, 102000, Note_on_c, 3, 40, 0
5, 102000, Note_on_c, 3, 40, 127
5, 102040, Note_on_c, 3, 40, 0
5, 102040, Note_on_c, 3, 40, 127
5, 102080, Note_on_c, 3, 40, 0
5, 102080, Note_on_c, 3, 40, 127
5, 102120, Note_on_c, 3, 40, 0
5, 102120, Note_on_c, 3, 52, 127
5, 102120, Note_on_c, 3, 47, 127
5, 102240, Note_on_c, 3, 52, 0
5, 102240, Note_on_c, 3, 47, 0
5, 102240, Note_on_c, 3, 40, 127
5, 102280, Note_on_c, 3, 40, 0
5, 102280, Note_on_c, 3, 40, 127
5, 102320, Note_on_c, 3, 40, 0
5, 102320, Note_on_c, 3, 40, 127
5, 102360, Note_on_c, 3, 40, 0
5, 102360, Note_on_c, 3, 40, 127
5, 102400, Note_on_c, 3, 40, 0
5, 102400, Note_on_c, 3, 40, 127
5, 102440, Note_on_c, 3, 40, 0
5, 102440, Note_on_c, 3, 40, 127
5, 102480, Note_on_c, 3, 40, 0
5, 102480, Note_on_c, 3, 52, 127
5, 102480, Note_on_c, 3, 47, 127
5, 102600, Note_on_c, 3, 52, 0
5, 102600, Note_on_c, 3, 47, 0
5, 102600, Note_on_c, 3, 40, 127
5, 102640, Note_on_c, 3, 40, 0
5, 102640, Note_on_c, 3, 40, 127
5, 102680, Note_on_c, 3, 40, 0
5, 102680, Note_on_c, 3, 40, 127
5, 102720, Note_on_c, 3, 40, 0
5, 102720, Note_on_c, 3, 53, 127
5, 102720, Note_on_c, 3, 48, 127
5, 102840, Note_on_c, 3, 53, 0
5, 102840, Note_on_c, 3, 48, 0
5, 102840, Note_on_c, 3, 40, 127
5, 102880, Note_on_c, 3, 40, 0
5, 102880, Note_on_c, 3, 40, 127
5, 102920, Note_on_c, 3, 40, 0
5, 102920, Note_on_c, 3, 40, 127
5, 102960, Note_on_c, 3, 40, 0
5, 102960, Note_on_c, 3, 40, 127
5, 103000, Note_on_c, 3, 40, 0
5, 103000, Note_on_c, 3, 40, 127
5, 103040, Note_on_c, 3, 40, 0
5, 103040, Note_on_c, 3, 40, 127
5, 103080, Note_on_c, 3, 40, 0
5, 103080, Note_on_c, 3, 52, 127
5, 103080, Note_on_c, 3, 47, 127
5, 103200, Note_on_c, 3, 52, 0
5, 103200, Note_on_c, 3, 47, 0
5, 103200, Note_on_c, 3, 40, 127
5, 103240, Note_on_c, 3, 40, 0
5, 103240, Note_on_c, 3, 40, 127
5, 103280, Note_on_c, 3, 40, 0
5, 103280, Note_on_c, 3, 40, 127
5, 103320, Note_on_c, 3, 40, 0
5, 103320, Note_on_c, 3, 40, 127
5, 103360, Note_on_c, 3, 40, 0
5, 103360, Note_on_c, 3, 40, 127
5, 103400, Note_on_c, 3, 40, 0
5, 103400, Note_on_c, 3, 40, 127
5, 103440, Note_on_c, 3, 40, 0
5, 103440, Note_on_c, 3, 52, 127
5, 103440, Note_on_c, 3, 47, 127
5, 103560, Note_on_c, 3, 52, 0
5, 103560, Note_on_c, 3, 47, 0
5, 103560, Note_on_c, 3, 40, 127
5, 103600, Note_on_c, 3, 40, 0
5, 103600, Note_on_c, 3, 40, 127
5, 103640, Note_on_c, 3, 40, 0
5, 103640, Note_on_c, 3, 40, 127
5, 103680, Note_on_c, 3, 40, 0
5, 103680, Note_on_c, 3, 53, 127
5, 103680, Note_on_c, 3, 48, 127
5, 103800, Note_on_c, 3, 53, 0
5, 103800, Note_on_c, 3, 48, 0
5, 103800, Note_on_c, 3, 40, 127
5, 103840, Note_on_c, 3, 40, 0
5, 103840, Note_on_c, 3, 40, 127
5, 103880, Note_on_c, 3, 40, 0
5, 103880, Note_on_c, 3, 40, 127
5, 103920, Note_on_c, 3, 40, 0
5, 103920, Note_on_c, 3, 40, 127
5, 103960, Note_on_c, 3, 40, 0
5, 103960, Note_on_c, 3, 40, 127
5, 104000, Note_on_c, 3, 40, 0
5, 104000, Note_on_c, 3, 40, 127
5, 104040, Note_on_c, 3, 40, 0
5, 104040, Note_on_c, 3, 52, 127
5, 104040, Note_on_c, 3, 47, 127
5, 104160, Note_on_c, 3, 52, 0
5, 104160, Note_on_c, 3, 47, 0
5, 104160, Note_on_c, 3, 40, 127
5, 104200, Note_on_c, 3, 40, 0
5, 104200, Note_on_c, 3, 40, 127
5, 104240, Note_on_c, 3, 40, 0
5, 104240, Note_on_c, 3, 40, 127
5, 104280, Note_on_c, 3, 40, 0
5, 104280, Note_on_c, 3, 40, 127
5, 104320, Note_on_c, 3, 40, 0
5, 104320, Note_on_c, 3, 40, 127
5, 104360, Note_on_c, 3, 40, 0
5, 104360, Note_on_c, 3, 40, 127
5, 104400, Note_on_c, 3, 40, 0
5, 104400, Note_on_c, 3, 52, 127
5, 104400, Note_on_c, 3, 47, 127
5, 104520, Note_on_c, 3, 52, 0
5, 104520, Note_on_c, 3, 47, 0
5, 104520, Note_on_c, 3, 40, 127
5, 104560, Note_on_c, 3, 40, 0
5, 104560, Note_on_c, 3, 40, 127
5, 104600, Note_on_c, 3, 40, 0
5, 104600, Note_on_c, 3, 40, 127
5, 104640, Note_on_c, 3, 40, 0
5, 104640, Note_on_c, 3, 53, 127
5, 104640, Note_on_c, 3, 48, 127
5, 104760, Note_on_c, 3, 53, 0
5, 104760, Note_on_c, 3, 48, 0
5, 104760, End_track
6, 0, Start_track
6, 0, Sequencer_specific, 5, 5, 15, 9, 8, 64
6, 0, Sequencer_specific, 15, 5, 15, 6, 71, 101, 110, 101, 114, 97, 108, 32, 77, 73, 68, 73
6, 0, MIDI_port, 0
6, 0, Title_t, "Acoustic Guitar (Riff A1)"
6, 0, Program_c, 4, 25
6, 0, Control_c, 4, 7, 99
6, 3360, Time_signature, 2, 2, 24, 8
6, 3600, Time_signature, 4, 2, 24, 8
6, 6960, Time_signature, 2, 2, 24, 8
6, 7200, Time_signature, 4, 2, 24, 8
6, 11040, Time_signature, 3, 2, 24, 8
6, 14280, Note_on_c, 4, 50, 127
6, 14340, Note_on_c, 4, 50, 0
6, 14340, Note_on_c, 4, 62, 127
6, 14400, Note_on_c, 4, 62, 0
6, 14400, Note_on_c, 4, 57, 127
6, 14460, Note_on_c, 4, 57, 0
6, 14460, Note_on_c, 4, 62, 127
6, 14580, Note_on_c, 4, 62, 0
6, 14580, Note_on_c, 4, 62, 127
6, 14640, Note_on_c, 4, 62, 0
6, 14640, Note_on_c, 4, 64, 127
6, 14700, Note_on_c, 4, 64, 0
6, 14700, Note_on_c, 4, 62, 127
6, 14720, Note_on_c, 4, 62, 0
6, 14720, Note_on_c, 4, 64, 127
6, 14740, Note_on_c, 4, 64, 0
6, 14740, Note_on_c, 4, 62, 127
6, 14760, Note_on_c, 4, 62, 0
6, 14760, Note_on_c, 4, 60, 127
6, 14780, Note_on_c, 4, 60, 0
6, 14780, Note_on_c, 4, 62, 127
6, 14800, Note_on_c, 4, 62, 0
6, 14800, Note_on_c, 4, 60, 127
6, 14820, Note_on_c, 4, 60, 0
6, 14820, Note_on_c, 4, 59, 127
6, 14940, Note_on_c, 4, 59, 0
6, 14940, Note_on_c, 4, 59, 127
6, 15000, Note_on_c, 4, 59, 0
6, 15000, Note_on_c, 4, 57, 127
6, 15120, Note_on_c, 4, 57, 0
6, 15120, Note_on_c, 4, 57, 127
6, 15180, Note_on_c, 4, 57, 0
6, 15180, Note_on_c, 4, 59, 127
6, 15240, Note_on_c, 4, 59, 0
6, 15240, Note_on_c, 4, 60, 127
6, 15360, Note_on_c, 4, 60, 0
6, 15360, Note_on_c, 4, 59, 127
6, 15480, Note_on_c, 4, 59, 0
6, 15480, Note_on_c, 4, 55, 127
6, 15600, Note_on_c, 4, 55, 0
6, 15600, Note_on_c, 4, 59, 127
6, 15660, Note_on_c, 4, 59, 0
6, 15660, Note_on_c, 4, 55, 127
6, 15720, Note_on_c, 4, 55, 0
6, 15720, Note_on_c, 4, 50, 127
6, 15780, Note_on_c, 4, 50, 0
6, 15780, Note_on_c, 4, 62, 127
6, 15840, Note_on_c, 4, 62, 0
6, 15840, Note_on_c, 4, 57, 127
6, 15900, Note_on_c, 4, 57, 0
6, 15900, Note_on_c, 4, 62, 127
6, 16020, Note_on_c, 4, 62, 0
6, 16020, Note_on_c, 4, 62, 127
6, 16080, Note_on_c, 4, 62, 0
6, 16080, Note_on_c, 4, 64, 127
6, 16140, Note_on_c, 4, 64, 0
6, 16140, Note_on_c, 4, 62, 127
6, 16160, Note_on_c, 4, 62, 0
6, 16160, Note_on_c, 4, 64, 127
6, 16180, Note_on_c, 4, 64, 0
6, 16180, Note_on_c, 4, 62, 127
6, 16200, Note_on_c, 4, 62, 0
6, 16200, Note_on_c, 4, 60, 127
6, 16220, Note_on_c, 4, 60, 0
6, 16220, Note_on_c, 4, 62, 127
6, 16240, Note_on_c, 4, 62, 0
6, 16240, Note_on_c, 4, 60, 127
6, 16260, Note_on_c, 4, 60, 0
6, 16260, Note_on_c, 4, 59, 127
6, 16380, Note_on_c, 4, 59, 0
6, 16380, Note_on_c, 4, 59, 127
6, 16440, Note_on_c, 4, 59, 0
6, 16440, Note_on_c, 4, 57, 127
6, 16560, Note_on_c, 4, 57, 0
6, 16560, Note_on_c, 4, 57, 127
6, 16620, Note_on_c, 4, 57, 0
6, 16620, Note_on_c, 4, 59, 127
6, 16680, Note_on_c, 4, 59, 0
6, 16680, Note_on_c, 4, 60, 127
6, 16740, Note_on_c, 4, 60, 0
6, 16740, Note_on_c, 4, 59, 127
6, 16800, Note_on_c, 4, 59, 0
6, 16800, Note_on_c, 4, 57, 127
6, 16920, Note_on_c, 4, 57, 0
6, 16920, Note_on_c, 4, 55, 127
6, 17040, Note_on_c, 4, 55, 0
6, 17040, Note_on_c, 4, 48, 127
6, 17160, Note_on_c, 4, 48, 0
6, 19680, Time_signature, 2, 2, 24, 8
6, 19920, Time_signature, 3, 2, 24, 8
6, 22440, Time_signature, 2, 2, 24, 8
6, 22680, Time_signature, 6, 2, 24, 8
6, 24120, Time_signature, 3, 2, 24, 8
6, 24120, Note_on_c, 4, 50, 127
6, 24180, Note_on_c, 4, 50, 0
6, 24180, Note_on_c, 4, 62, 127
6, 24240, Note_on_c, 4, 62, 0
6, 24240, Note_on_c, 4, 57, 127
6, 24300, Note_on_c, 4, 57, 0
6, 24300, Note_on_c, 4, 62, 127
6, 24420, Note_on_c, 4, 62, 0
6, 24420, Note_on_c, 4, 62, 127
6, 24480, Note_on_c, 4, 62, 0
6, 24480, Note_on_c, 4, 64, 127
6, 24540, Note_on_c, 4, 64, 0
6, 24540, Note_on_c, 4, 62, 127
6, 24560, Note_on_c, 4, 62, 0
6, 24560, Note_on_c, 4, 64, 127
6, 24580, Note_on_c, 4, 64, 0
6, 24580, Note_on_c, 4, 62, 127
6, 24600, Note_on_c, 4, 62, 0
6, 24600, Note_on_c, 4, 60, 127
6, 24620, Note_on_c, 4, 60, 0
6, 24620, Note_on_c, 4, 62, 127
6, 24640, Note_on_c, 4, 62, 0
6, 24640, Note_on_c, 4, 60, 127
6, 24660, Note_on_c, 4, 60, 0
6, 24660, Note_on_c, 4, 59, 127
6, 24780, Note_on_c, 4, 59, 0
6, 24780, Note_on_c, 4, 59, 127
6, 24840, Note_on_c, 4, 59, 0
6, 24840, Note_on_c, 4, 57, 127
6, 24960, Note_on_c, 4, 57, 0
6, 24960, Note_on_c, 4, 57, 127
6, 25020, Note_on_c, 4, 57, 0
6, 25020, Note_on_c, 4, 59, 127
6, 25080, Note_on_c, 4, 59, 0
6, 25080, Note_on_c, 4, 60, 127
6, 25200, Note_on_c, 4, 60, 0
6, 25200, Note_on_c, 4, 59, 127
6, 25320, Note_on_c, 4, 59, 0
6, 25320, Note_on_c, 4, 55, 127
6, 25440, Note_on_c, 4, 55, 0
6, 25440, Note_on_c, 4, 59, 127
6, 25500, Note_on_c, 4, 59, 0
6, 25500, Note_on_c, 4, 55, 127
6, 25560, Note_on_c, 4, 55, 0
6, 25560, Note_on_c, 4, 50, 127
6, 25620, Note_on_c, 4, 50, 0
6, 25620, Note_on_c, 4, 62, 127
6, 25680, Note_on_c, 4, 62, 0
6, 25680, Note_on_c, 4, 57, 127
6, 25740, Note_on_c, 4, 57, 0
6, 25740, Note_on_c, 4, 62, 127
6, 25860, Note_on_c, 4, 62, 0
6, 25860, Note_on_c, 4, 62, 127
6, 25920, Note_on_c, 4, 62, 0
6, 25920, Note_on_c, 4, 64, 127
6, 25980, Note_on_c, 4, 64, 0
6, 25980, Note_on_c, 4, 62, 127
6, 26000, Note_on_c, 4, 62, 0
6, 26000, Note_on_c, 4, 64, 127
6, 26020, Note_on_c, 4, 64, 0
6, 26020, Note_on_c, 4, 62, 127
6, 26040, Note_on_c, 4, 62, 0
6, 26040, Note_on_c, 4, 60, 127
6, 26060, Note_on_c, 4, 60, 0
6, 26060, Note_on_c, 4, 62, 127
6, 26080, Note_on_c, 4, 62, 0
6, 26080, Note_on_c, 4, 60, 127
6, 26100, Note_on_c, 4, 60, 0
6, 26100, Note_on_c, 4, 59, 127
6, 26220, Note_on_c, 4, 59, 0
6, 26220, Note_on_c, 4, 59, 127
6, 26280, Note_on_c, 4, 59, 0
6, 26280, Note_on_c, 4, 57, 127
6, 26400, Note_on_c, 4, 57, 0
6, 26400, Note_on_c, 4, 57, 127
6, 26460, Note_on_c, 4, 57, 0
6, 26460, Note_on_c, 4, 59, 127
6, 26520, Note_on_c, 4, 59, 0
6, 26520, Note_on_c, 4, 60, 127
6, 26580, Note_on_c, 4, 60, 0
6, 26580, Note_on_c, 4, 59, 127
6, 26640, Note_on_c, 4, 59, 0
6, 26640, Note_on_c, 4, 57, 127
6, 26760, Note_on_c, 4, 57, 0
6, 26760, Note_on_c, 4, 55, 127
6, 26880, Note_on_c, 4, 55, 0
6, 26880, Note_on_c, 4, 48, 127
6, 27000, Note_on_c, 4, 48, 0
6, 29520, Time_signature, 2, 2, 24, 8
6, 29760, Time_signature, 3, 2, 24, 8
6, 32280, Time_signature, 2, 2, 24, 8
6, 32520, Time_signature, 6, 2, 24, 8
6, 33960, Time_signature, 3, 2, 24, 8
6, 33960, Note_on_c, 4, 50, 127
6, 34020, Note_on_c, 4, 50, 0
6, 34020, Note_on_c, 4, 62, 127
6, 34080, Note_on_c, 4, 62, 0
6, 34080, Note_on_c, 4, 57, 127
6, 34140, Note_on_c, 4, 57, 0
6, 34140, Note_on_c, 4, 62, 127
6, 34260, Note_on_c, 4, 62, 0
6, 34260, Note_on_c, 4, 62, 127
6, 34320, Note_on_c, 4, 62, 0
6, 34320, Note_on_c, 4, 64, 127
6, 34380, Note_on_c, 4, 64, 0
6, 34380, Note_on_c, 4, 62, 127
6, 34400, Note_on_c, 4, 62, 0
6, 34400, Note_on_c, 4, 64, 127
6, 34420, Note_on_c, 4, 64, 0
6, 34420, Note_on_c, 4, 62, 127
6, 34440, Note_on_c, 4, 62, 0
6, 34440, Note_on_c, 4, 60, 127
6, 34460, Note_on_c, 4, 60, 0
6, 34460, Note_on_c, 4, 62, 127
6, 34480, Note_on_c, 4, 62, 0
6, 34480, Note_on_c, 4, 60, 127
6, 34500, Note_on_c, 4, 60, 0
6, 34500, Note_on_c, 4, 59, 127
6, 34620, Note_on_c, 4, 59, 0
6, 34620, Note_on_c, 4, 59, 127
6, 34680, Note_on_c, 4, 59, 0
6, 34680, Note_on_c, 4, 57, 127
6, 34800, Note_on_c, 4, 57, 0
6, 34800, Note_on_c, 4, 57, 127
6, 34860, Note_on_c, 4, 57, 0
6, 34860, Note_on_c, 4, 59, 127
6, 34920, Note_on_c, 4, 59, 0
6, 34920, Note_on_c, 4, 60, 127
6, 35040, Note_on_c, 4, 60, 0
6, 35040, Note_on_c, 4, 59, 127
6, 35160, Note_on_c, 4, 59, 0
6, 35160, Note_on_c, 4, 55, 127
6, 35280, Note_on_c, 4, 55, 0
6, 35280, Note_on_c, 4, 59, 127
6, 35340, Note_on_c, 4, 59, 0
6, 35340, Note_on_c, 4, 55, 127
6, 35400, Note_on_c, 4, 55, 0
6, 35400, Note_on_c, 4, 50, 127
6, 35460, Note_on_c, 4, 50, 0
6, 35460, Note_on_c, 4, 62, 127
6, 35520, Note_on_c, 4, 62, 0
6, 35520, Note_on_c, 4, 57, 127
6, 35580, Note_on_c, 4, 57, 0
6, 35580, Note_on_c, 4, 62, 127
6, 35700, Note_on_c, 4, 62, 0
6, 35700, Note_on_c, 4, 62, 127
6, 35760, Note_on_c, 4, 62, 0
6, 35760, Note_on_c, 4, 64, 127
6, 35820, Note_on_c, 4, 64, 0
6, 35820, Note_on_c, 4, 62, 127
6, 35840, Note_on_c, 4, 62, 0
6, 35840, Note_on_c, 4, 64, 127
6, 35860, Note_on_c, 4, 64, 0
6, 35860, Note_on_c, 4, 62, 127
6, 35880, Note_on_c, 4, 62, 0
6, 35880, Note_on_c, 4, 60, 127
6, 35900, Note_on_c, 4, 60, 0
6, 35900, Note_on_c, 4, 62, 127
6, 35920, Note_on_c, 4, 62, 0
6, 35920, Note_on_c, 4, 60, 127
6, 35940, Note_on_c, 4, 60, 0
6, 35940, Note_on_c, 4, 59, 127
6, 36060, Note_on_c, 4, 59, 0
6, 36060, Note_on_c, 4, 59, 127
6, 36120, Note_on_c, 4, 59, 0
6, 36120, Note_on_c, 4, 57, 127
6, 36240, Note_on_c, 4, 57, 0
6, 36240, Note_on_c, 4, 57, 127
6, 36300, Note_on_c, 4, 57, 0
6, 36300, Note_on_c, 4, 59, 127
6, 36360, Note_on_c, 4, 59, 0
6, 36360, Note_on_c, 4, 60, 127
6, 36480, Note_on_c, 4, 60, 0
6, 36480, Note_on_c, 4, 59, 127
6, 36600, Note_on_c, 4, 59, 0
6, 36600, Note_on_c, 4, 55, 127
6, 36720, Note_on_c, 4, 55, 0
6, 36720, Note_on_c, 4, 59, 127
6, 36780, Note_on_c, 4, 59, 0
6, 36780, Note_on_c, 4, 55, 127
6, 36840, Note_on_c, 4, 55, 0
6, 36840, Note_on_c, 4, 50, 127
6, 36900, Note_on_c, 4, 50, 0
6, 36900, Note_on_c, 4, 62, 127
6, 36960, Note_on_c, 4, 62, 0
6, 36960, Note_on_c, 4, 57, 127
6, 37020, Note_on_c, 4, 57, 0
6, 37020, Note_on_c, 4, 62, 127
6, 37140, Note_on_c, 4, 62, 0
6, 37140, Note_on_c, 4, 62, 127
6, 37200, Note_on_c, 4, 62, 0
6, 37200, Note_on_c, 4, 64, 127
6, 37260, Note_on_c, 4, 64, 0
6, 37260, Note_on_c, 4, 62, 127
6, 37280, Note_on_c, 4, 62, 0
6, 37280, Note_on_c, 4, 64, 127
6, 37300, Note_on_c, 4, 64, 0
6, 37300, Note_on_c, 4, 62, 127
6, 37320, Note_on_c, 4, 62, 0
6, 37320, Note_on_c, 4, 60, 127
6, 37340, Note_on_c, 4, 60, 0
6, 37340, Note_on_c, 4, 62, 127
6, 37360, Note_on_c, 4, 62, 0
6, 37360, Note_on_c, 4, 60, 127
6, 37380, Note_on_c, 4, 60, 0
6, 37380, Note_on_c, 4, 59, 127
6, 37500, Note_on_c, 4, 59, 0
6, 37500, Note_on_c, 4, 59, 127
6, 37560, Note_on_c, 4, 59, 0
6, 37560, Note_on_c, 4, 57, 127
6, 37680, Note_on_c, 4, 57, 0
6, 37680, Note_on_c, 4, 57, 127
6, 37740, Note_on_c, 4, 57, 0
6, 37740, Note_on_c, 4, 59, 127
6, 37800, Note_on_c, 4, 59, 0
6, 37800, Note_on_c, 4, 60, 127
6, 37920, Note_on_c, 4, 60, 0
6, 37920, Note_on_c, 4, 59, 127
6, 38040, Note_on_c, 4, 59, 0
6, 38040, Note_on_c, 4, 55, 127
6, 38160, Note_on_c, 4, 55, 0
6, 38160, Note_on_c, 4, 59, 127
6, 38220, Note_on_c, 4, 59, 0
6, 38220, Note_on_c, 4, 55, 127
6, 38280, Note_on_c, 4, 55, 0
6, 38280, Note_on_c, 4, 50, 127
6, 38340, Note_on_c, 4, 50, 0
6, 38340, Note_on_c, 4, 62, 127
6, 38400, Note_on_c, 4, 62, 0
6, 38400, Note_on_c, 4, 57, 127
6, 38460, Note_on_c, 4, 57, 0
6, 38460, Note_on_c, 4, 62, 127
6, 38580, Note_on_c, 4, 62, 0
6, 38580, Note_on_c, 4, 62, 127
6, 38640, Note_on_c, 4, 62, 0
6, 38640, Note_on_c, 4, 64, 127
6, 38700, Note_on_c, 4, 64, 0
6, 38700, Note_on_c, 4, 62, 127
6, 38720, Note_on_c, 4, 62, 0
6, 38720, Note_on_c, 4, 64, 127
6, 38740, Note_on_c, 4, 64, 0
6, 38740, Note_on_c, 4, 62, 127
6, 38760, Note_on_c, 4, 62, 0
6, 38760, Note_on_c, 4, 60, 127
6, 38780, Note_on_c, 4, 60, 0
6, 38780, Note_on_c, 4, 62, 127
6, 38800, Note_on_c, 4, 62, 0
6, 38800, Note_on_c, 4, 60, 127
6, 38820, Note_on_c, 4, 60, 0
6, 38820, Note_on_c, 4, 59, 127
6, 38940, Note_on_c, 4, 59, 0
6, 38940, Note_on_c, 4, 59, 127
6, 39000, Note_on_c, 4, 59, 0
6, 39000, Note_on_c, 4, 57, 127
6, 39120, Note_on_c, 4, 57, 0
6, 39120, Note_on_c, 4, 57, 127
6, 39180, Note_on_c, 4, 57, 0
6, 39180, Note_on_c, 4, 59, 127
6, 39240, Note_on_c, 4, 59, 0
6, 39240, Note_on_c, 4, 60, 127
6, 39360, Note_on_c, 4, 60, 0
6, 39360, Note_on_c, 4, 59, 127
6, 39480, Note_on_c, 4, 59, 0
6, 39480, Note_on_c, 4, 55, 127
6, 39600, Note_on_c, 4, 55, 0
6, 39600, Note_on_c, 4, 59, 127
6, 39660, Note_on_c, 4, 59, 0
6, 39660, Note_on_c, 4, 55, 127
6, 39720, Note_on_c, 4, 55, 0
6, 39720, Time_signature, 6, 2, 24, 8
6, 43320, Time_signature, 3, 2, 24, 8
6, 43320, Note_on_c, 4, 45, 127
6, 43320, Note_on_c, 4, 52, 127
6, 43350, Note_on_c, 4, 45, 0
6, 43350, Note_on_c, 4, 52, 0
6, 43350, Note_on_c, 4, 45, 127
6, 43350, Note_on_c, 4, 52, 127
6, 43380, Note_on_c, 4, 45, 0
6, 43380, Note_on_c, 4, 52, 0
6, 43380, Note_on_c, 4, 45, 127
6, 43380, Note_on_c, 4, 52, 127
6, 43410, Note_on_c, 4, 45, 0
6, 43410, Note_on_c, 4, 52, 0
6, 43410, Note_on_c, 4, 45, 127
6, 43410, Note_on_c, 4, 52, 127
6, 43440, Note_on_c, 4, 45, 0
6, 43440, Note_on_c, 4, 52, 0
6, 43440, Note_on_c, 4, 45, 127
6, 43440, Note_on_c, 4, 52, 127
6, 43500, Note_on_c, 4, 45, 0
6, 43500, Note_on_c, 4, 52, 0
6, 43500, Note_on_c, 4, 47, 127
6, 43560, Note_on_c, 4, 47, 0
6, 43560, Note_on_c, 4, 48, 127
6, 43620, Note_on_c, 4, 48, 0
6, 43620, Note_on_c, 4, 45, 127
6, 43680, Note_on_c, 4, 45, 0
6, 43680, Note_on_c, 4, 50, 127
6, 43680, Note_on_c, 4, 43, 127
6, 43800, Note_on_c, 4, 50, 0
6, 43800, Note_on_c, 4, 43, 0
6, 43800, Note_on_c, 4, 43, 127
6, 43800, Note_on_c, 4, 50, 127
6, 43860, Note_on_c, 4, 43, 0
6, 43860, Note_on_c, 4, 50, 0
6, 43860, Note_on_c, 4, 50, 127
6, 43860, Note_on_c, 4, 43, 127
6, 43920, Note_on_c, 4, 50, 0
6, 43920, Note_on_c, 4, 43, 0
6, 43920, Note_on_c, 4, 50, 127
6, 43920, Note_on_c, 4, 43, 127
6, 43980, Note_on_c, 4, 50, 0
6, 43980, Note_on_c, 4, 43, 0
6, 43980, Note_on_c, 4, 50, 127
6, 43980, Note_on_c, 4, 43, 127
6, 44040, Note_on_c, 4, 50, 0
6, 44040, Note_on_c, 4, 43, 0
6, 44040, Note_on_c, 4, 54, 127
6, 44040, Note_on_c, 4, 47, 127
6, 44100, Note_on_c, 4, 54, 0
6, 44100, Note_on_c, 4, 47, 0
6, 44100, Note_on_c, 4, 42, 127
6, 44160, Note_on_c, 4, 42, 0
6, 44160, Note_on_c, 4, 54, 127
6, 44160, Note_on_c, 4, 47, 127
6, 44220, Note_on_c, 4, 54, 0
6, 44220, Note_on_c, 4, 47, 0
6, 44220, Note_on_c, 4, 42, 127
6, 44280, Note_on_c, 4, 42, 0
6, 44280, Note_on_c, 4, 54, 127
6, 44280, Note_on_c, 4, 47, 127
6, 44340, Note_on_c, 4, 54, 0
6, 44340, Note_on_c, 4, 47, 0
6, 44340, Note_on_c, 4, 42, 127
6, 44400, Note_on_c, 4, 42, 0
6, 44400, Note_on_c, 4, 47, 127
6, 44400, Note_on_c, 4, 55, 127
6, 44430, Note_on_c, 4, 47, 0
6, 44430, Note_on_c, 4, 55, 0
6, 44430, Note_on_c, 4, 45, 127
6, 44460, Note_on_c, 4, 45, 0
6, 44460, Note_on_c, 4, 43, 127
6, 44520, Note_on_c, 4, 43, 0
6, 44520, Note_on_c, 4, 55, 127
6, 44520, Note_on_c, 4, 48, 127
6, 44580, Note_on_c, 4, 55, 0
6, 44580, Note_on_c, 4, 48, 0
6, 44580, Note_on_c, 4, 43, 127
6, 44640, Note_on_c, 4, 43, 0
6, 44640, Note_on_c, 4, 55, 127
6, 44640, Note_on_c, 4, 48, 127
6, 44700, Note_on_c, 4, 55, 0
6, 44700, Note_on_c, 4, 48, 0
6, 44700, Note_on_c, 4, 45, 127
6, 44760, Note_on_c, 4, 45, 0
6, 44760, Note_on_c, 4, 45, 127
6, 44760, Note_on_c, 4, 52, 127
6, 44790, Note_on_c, 4, 45, 0
6, 44790, Note_on_c, 4, 52, 0
6, 44790, Note_on_c, 4, 45, 127
6, 44790, Note_on_c, 4, 52, 127
6, 44820, Note_on_c, 4, 45, 0
6, 44820, Note_on_c, 4, 52, 0
6, 44820, Note_on_c, 4, 45, 127
6, 44820, Note_on_c, 4, 52, 127
6, 44850, Note_on_c, 4, 45, 0
6, 44850, Note_on_c, 4, 52, 0
6, 44850, Note_on_c, 4, 45, 127
6, 44850, Note_on_c, 4, 52, 127
6, 44880, Note_on_c, 4, 45, 0
6, 44880, Note_on_c, 4, 52, 0
6, 44880, Note_on_c, 4, 45, 127
6, 44880, Note_on_c, 4, 52, 127
6, 44940, Note_on_c, 4, 45, 0
6, 44940, Note_on_c, 4, 52, 0
6, 44940, Note_on_c, 4, 47, 127
6, 45000, Note_on_c, 4, 47, 0
6, 45000, Note_on_c, 4, 48, 127
6, 45060, Note_on_c, 4, 48, 0
6, 45060, Note_on_c, 4, 45, 127
6, 45120, Note_on_c, 4, 45, 0
6, 45120, Note_on_c, 4, 50, 127
6, 45120, Note_on_c, 4, 43, 127
6, 45240, Note_on_c, 4, 50, 0
6, 45240, Note_on_c, 4, 43, 0
6, 45240, Note_on_c, 4, 43, 127
6, 45240, Note_on_c, 4, 50, 127
6, 45300, Note_on_c, 4, 43, 0
6, 45300, Note_on_c, 4, 50, 0
6, 45300, Note_on_c, 4, 50, 127
6, 45300, Note_on_c, 4, 43, 127
6, 45360, Note_on_c, 4, 50, 0
6, 45360, Note_on_c, 4, 43, 0
6, 45360, Note_on_c, 4, 50, 127
6, 45360, Note_on_c, 4, 43, 127
6, 45420, Note_on_c, 4, 50, 0
6, 45420, Note_on_c, 4, 43, 0
6, 45420, Note_on_c, 4, 50, 127
6, 45420, Note_on_c, 4, 43, 127
6, 45480, Note_on_c, 4, 50, 0
6, 45480, Note_on_c, 4, 43, 0
6, 45480, Note_on_c, 4, 54, 127
6, 45480, Note_on_c, 4, 47, 127
6, 45540, Note_on_c, 4, 54, 0
6, 45540, Note_on_c, 4, 47, 0
6, 45540, Note_on_c, 4, 42, 127
6, 45600, Note_on_c, 4, 42, 0
6, 45600, Note_on_c, 4, 54, 127
6, 45600, Note_on_c, 4, 47, 127
6, 45660, Note_on_c, 4, 54, 0
6, 45660, Note_on_c, 4, 47, 0
6, 45660, Note_on_c, 4, 42, 127
6, 45720, Note_on_c, 4, 42, 0
6, 45720, Note_on_c, 4, 54, 127
6, 45720, Note_on_c, 4, 47, 127
6, 45780, Note_on_c, 4, 54, 0
6, 45780, Note_on_c, 4, 47, 0
6, 45780, Note_on_c, 4, 42, 127
6, 45840, Note_on_c, 4, 42, 0
6, 45840, Note_on_c, 4, 47, 127
6, 45840, Note_on_c, 4, 55, 127
6, 45870, Note_on_c, 4, 47, 0
6, 45870, Note_on_c, 4, 55, 0
6, 45870, Note_on_c, 4, 45, 127
6, 45900, Note_on_c, 4, 45, 0
6, 45900, Note_on_c, 4, 43, 127
6, 45960, Note_on_c, 4, 43, 0
6, 45960, Note_on_c, 4, 55, 127
6, 45960, Note_on_c, 4, 48, 127
6, 46020, Note_on_c, 4, 55, 0
6, 46020, Note_on_c, 4, 48, 0
6, 46020, Note_on_c, 4, 43, 127
6, 46080, Note_on_c, 4, 43, 0
6, 46080, Note_on_c, 4, 55, 127
6, 46080, Note_on_c, 4, 48, 127
6, 46140, Note_on_c, 4, 55, 0
6, 46140, Note_on_c, 4, 48, 0
6, 46140, Note_on_c, 4, 45, 127
6, 46200, Note_on_c, 4, 45, 0
6, 46200, Note_on_c, 4, 45, 127
6, 46200, Note_on_c, 4, 52, 127
6, 46230, Note_on_c, 4, 45, 0
6, 46230, Note_on_c, 4, 52, 0
6, 46230, Note_on_c, 4, 45, 127
6, 46230, Note_on_c, 4, 52, 127
6, 46260, Note_on_c, 4, 45, 0
6, 46260, Note_on_c, 4, 52, 0
6, 46260, Note_on_c, 4, 45, 127
6, 46260, Note_on_c, 4, 52, 127
6, 46290, Note_on_c, 4, 45, 0
6, 46290, Note_on_c, 4, 52, 0
6, 46290, Note_on_c, 4, 45, 127
6, 46290, Note_on_c, 4, 52, 127
6, 46320, Note_on_c, 4, 45, 0
6, 46320, Note_on_c, 4, 52, 0
6, 46320, Note_on_c, 4, 45, 127
6, 46320, Note_on_c, 4, 52, 127
6, 46380, Note_on_c, 4, 45, 0
6, 46380, Note_on_c, 4, 52, 0
6, 46380, Note_on_c, 4, 47, 127
6, 46440, Note_on_c, 4, 47, 0
6, 46440, Note_on_c, 4, 48, 127
6, 46500, Note_on_c, 4, 48, 0
6, 46500, Note_on_c, 4, 45, 127
6, 46560, Note_on_c, 4, 45, 0
6, 46560, Note_on_c, 4, 50, 127
6, 46560, Note_on_c, 4, 43, 127
6, 46680, Note_on_c, 4, 50, 0
6, 46680, Note_on_c, 4, 43, 0
6, 46680, Note_on_c, 4, 43, 127
6, 46680, Note_on_c, 4, 50, 127
6, 46740, Note_on_c, 4, 43, 0
6, 46740, Note_on_c, 4, 50, 0
6, 46740, Note_on_c, 4, 50, 127
6, 46740, Note_on_c, 4, 43, 127
6, 46800, Note_on_c, 4, 50, 0
6, 46800, Note_on_c, 4, 43, 0
6, 46800, Note_on_c, 4, 50, 127
6, 46800, Note_on_c, 4, 43, 127
6, 46860, Note_on_c, 4, 50, 0
6, 46860, Note_on_c, 4, 43, 0
6, 46860, Note_on_c, 4, 50, 127
6, 46860, Note_on_c, 4, 43, 127
6, 46920, Note_on_c, 4, 50, 0
6, 46920, Note_on_c, 4, 43, 0
6, 46920, Note_on_c, 4, 54, 127
6, 46920, Note_on_c, 4, 47, 127
6, 46980, Note_on_c, 4, 54, 0
6, 46980, Note_on_c, 4, 47, 0
6, 46980, Note_on_c, 4, 42, 127
6, 47040, Note_on_c, 4, 42, 0
6, 47040, Note_on_c, 4, 54, 127
6, 47040, Note_on_c, 4, 47, 127
6, 47100, Note_on_c, 4, 54, 0
6, 47100, Note_on_c, 4, 47, 0
6, 47100, Note_on_c, 4, 42, 127
6, 47160, Note_on_c, 4, 42, 0
6, 47160, Note_on_c, 4, 54, 127
6, 47160, Note_on_c, 4, 47, 127
6, 47220, Note_on_c, 4, 54, 0
6, 47220, Note_on_c, 4, 47, 0
6, 47220, Note_on_c, 4, 42, 127
6, 47280, Note_on_c, 4, 42, 0
6, 47280, Note_on_c, 4, 47, 127
6, 47280, Note_on_c, 4, 55, 127
6, 47310, Note_on_c, 4, 47, 0
6, 47310, Note_on_c, 4, 55, 0
6, 47310, Note_on_c, 4, 45, 127
6, 47340, Note_on_c, 4, 45, 0
6, 47340, Note_on_c, 4, 43, 127
6, 47400, Note_on_c, 4, 43, 0
6, 47400, Note_on_c, 4, 55, 127
6, 47400, Note_on_c, 4, 48, 127
6, 47460, Note_on_c, 4, 55, 0
6, 47460, Note_on_c, 4, 48, 0
6, 47460, Note_on_c, 4, 43, 127
6, 47520, Note_on_c, 4, 43, 0
6, 47520, Note_on_c, 4, 55, 127
6, 47520, Note_on_c, 4, 48, 127
6, 47580, Note_on_c, 4, 55, 0
6, 47580, Note_on_c, 4, 48, 0
6, 47580, Note_on_c, 4, 45, 127
6, 47640, Note_on_c, 4, 45, 0
6, 47640, Note_on_c, 4, 45, 127
6, 47640, Note_on_c, 4, 52, 127
6, 47670, Note_on_c, 4, 45, 0
6, 47670, Note_on_c, 4, 52, 0
6, 47670, Note_on_c, 4, 45, 127
6, 47670, Note_on_c, 4, 52, 127
6, 47700, Note_on_c, 4, 45, 0
6, 47700, Note_on_c, 4, 52, 0
6, 47700, Note_on_c, 4, 45, 127
6, 47700, Note_on_c, 4, 52, 127
6, 47730, Note_on_c, 4, 45, 0
6, 47730, Note_on_c, 4, 52, 0
6, 47730, Note_on_c, 4, 45, 127
6, 47730, Note_on_c, 4, 52, 127
6, 47760, Note_on_c, 4, 45, 0
6, 47760, Note_on_c, 4, 52, 0
6, 47760, Note_on_c, 4, 45, 127
6, 47760, Note_on_c, 4, 52, 127
6, 47820, Note_on_c, 4, 45, 0
6, 47820, Note_on_c, 4, 52, 0
6, 47820, Note_on_c, 4, 47, 127
6, 47880, Note_on_c, 4, 47, 0
6, 47880, Note_on_c, 4, 48, 127
6, 47940, Note_on_c, 4, 48, 0
6, 47940, Note_on_c, 4, 45, 127
6, 48000, Note_on_c, 4, 45, 0
6, 48000, Note_on_c, 4, 50, 127
6, 48000, Note_on_c, 4, 43, 127
6, 48120, Note_on_c, 4, 50, 0
6, 48120, Note_on_c, 4, 43, 0
6, 48120, Note_on_c, 4, 43, 127
6, 48120, Note_on_c, 4, 50, 127
6, 48180, Note_on_c, 4, 43, 0
6, 48180, Note_on_c, 4, 50, 0
6, 48180, Note_on_c, 4, 50, 127
6, 48180, Note_on_c, 4, 43, 127
6, 48240, Note_on_c, 4, 50, 0
6, 48240, Note_on_c, 4, 43, 0
6, 48240, Note_on_c, 4, 50, 127
6, 48240, Note_on_c, 4, 43, 127
6, 48300, Note_on_c, 4, 50, 0
6, 48300, Note_on_c, 4, 43, 0
6, 48300, Note_on_c, 4, 50, 127
6, 48300, Note_on_c, 4, 43, 127
6, 48360, Note_on_c, 4, 50, 0
6, 48360, Note_on_c, 4, 43, 0
6, 48360, Note_on_c, 4, 54, 127
6, 48360, Note_on_c, 4, 47, 127
6, 48420, Note_on_c, 4, 54, 0
6, 48420, Note_on_c, 4, 47, 0
6, 48420, Note_on_c, 4, 42, 127
6, 48480, Note_on_c, 4, 42, 0
6, 48480, Note_on_c, 4, 54, 127
6, 48480, Note_on_c, 4, 47, 127
6, 48540, Note_on_c, 4, 54, 0
6, 48540, Note_on_c, 4, 47, 0
6, 48540, Note_on_c, 4, 42, 127
6, 48600, Note_on_c, 4, 42, 0
6, 48600, Note_on_c, 4, 54, 127
6, 48600, Note_on_c, 4, 47, 127
6, 48660, Note_on_c, 4, 54, 0
6, 48660, Note_on_c, 4, 47, 0
6, 48660, Note_on_c, 4, 42, 127
6, 48720, Note_on_c, 4, 42, 0
6, 48720, Note_on_c, 4, 47, 127
6, 48720, Note_on_c, 4, 55, 127
6, 48750, Note_on_c, 4, 47, 0
6, 48750, Note_on_c, 4, 55, 0
6, 48750, Note_on_c, 4, 45, 127
6, 48780, Note_on_c, 4, 45, 0
6, 48780, Note_on_c, 4, 43, 127
6, 48840, Note_on_c, 4, 43, 0
6, 48840, Note_on_c, 4, 55, 127
6, 48840, Note_on_c, 4, 48, 127
6, 48900, Note_on_c, 4, 55, 0
6, 48900, Note_on_c, 4, 48, 0
6, 48900, Note_on_c, 4, 43, 127
6, 48960, Note_on_c, 4, 43, 0
6, 48960, Note_on_c, 4, 55, 127
6, 48960, Note_on_c, 4, 48, 127
6, 49020, Note_on_c, 4, 55, 0
6, 49020, Note_on_c, 4, 48, 0
6, 49020, Note_on_c, 4, 45, 127
6, 49080, Note_on_c, 4, 45, 0
6, 49080, End_track
7, 0, Start_track
7, 0, Sequencer_specific, 5, 5, 15, 9, 8, 64
7, 0, Sequencer_specific, 15, 5, 15, 6, 71, 101, 110, 101, 114, 97, 108, 32, 77, 73, 68, 73
7, 0, MIDI_port, 0
7, 0, Title_t, "Guitar Solo"
7, 0, Program_c, 5, 29
7, 0, Control_c, 5, 7, 99
7, 3360, Time_signature, 2, 2, 24, 8
7, 3600, Time_signature, 4, 2, 24, 8
7, 6960, Time_signature, 2, 2, 24, 8
7, 7200, Time_signature, 4, 2, 24, 8
7, 11040, Time_signature, 3, 2, 24, 8
7, 19680, Time_signature, 2, 2, 24, 8
7, 19920, Time_signature, 3, 2, 24, 8
7, 22440, Time_signature, 2, 2, 24, 8
7, 22680, Time_signature, 6, 2, 24, 8
7, 24120, Time_signature, 3, 2, 24, 8
7, 29520, Time_signature, 2, 2, 24, 8
7, 29760, Time_signature, 3, 2, 24, 8
7, 32280, Time_signature, 2, 2, 24, 8
7, 32520, Time_signature, 6, 2, 24, 8
7, 33960, Time_signature, 3, 2, 24, 8
7, 39720, Time_signature, 6, 2, 24, 8
7, 43320, Time_signature, 3, 2, 24, 8
7, 51960, Time_signature, 4, 2, 24, 8
7, 74040, Note_on_c, 5, 59, 127
7, 74060, Note_on_c, 5, 59, 0
7, 74060, Note_on_c, 5, 55, 127
7, 74080, Note_on_c, 5, 55, 0
7, 74080, Note_on_c, 5, 52, 127
7, 74100, Note_on_c, 5, 52, 0
7, 74100, Note_on_c, 5, 59, 127
7, 74120, Note_on_c, 5, 59, 0
7, 74120, Note_on_c, 5, 52, 127
7, 74140, Note_on_c, 5, 52, 0
7, 74140, Note_on_c, 5, 55, 127
7, 74160, Note_on_c, 5, 55, 0
7, 74160, Note_on_c, 5, 59, 127
7, 74180, Note_on_c, 5, 59, 0
7, 74180, Note_on_c, 5, 55, 127
7, 74200, Note_on_c, 5, 55, 0
7, 74200, Note_on_c, 5, 52, 127
7, 74220, Note_on_c, 5, 52, 0
7, 74220, Note_on_c, 5, 59, 127
7, 74240, Note_on_c, 5, 59, 0
7, 74240, Note_on_c, 5, 52, 127
7, 74260, Note_on_c, 5, 52, 0
7, 74260, Note_on_c, 5, 55, 127
7, 74280, Note_on_c, 5, 55, 0
7, 74280, Note_on_c, 5, 59, 127
7, 74300, Note_on_c, 5, 59, 0
7, 74300, Note_on_c, 5, 55, 127
7, 74320, Note_on_c, 5, 55, 0
7, 74320, Note_on_c, 5, 52, 127
7, 74340, Note_on_c, 5, 52, 0
7, 74340, Note_on_c, 5, 59, 127
7, 74360, Note_on_c, 5, 59, 0
7, 74360, Note_on_c, 5, 55, 127
7, 74380, Note_on_c, 5, 55, 0
7, 74380, Note_on_c, 5, 52, 127
7, 74400, Note_on_c, 5, 52, 0
7, 74400, Note_on_c, 5, 59, 127
7, 74420, Note_on_c, 5, 59, 0
7, 74420, Note_on_c, 5, 52, 127
7, 74440, Note_on_c, 5, 52, 0
7, 74440, Note_on_c, 5, 55, 127
7, 74460, Note_on_c, 5, 55, 0
7, 74460, Note_on_c, 5, 59, 127
7, 74480, Note_on_c, 5, 59, 0
7, 74480, Note_on_c, 5, 52, 127
7, 74500, Note_on_c, 5, 52, 0
7, 74500, Note_on_c, 5, 55, 127
7, 74520, Note_on_c, 5, 55, 0
7, 74520, Note_on_c, 5, 60, 127
7, 74540, Note_on_c, 5, 60, 0
7, 74540, Note_on_c, 5, 52, 127
7, 74560, Note_on_c, 5, 52, 0
7, 74560, Note_on_c, 5, 55, 127
7, 74580, Note_on_c, 5, 55, 0
7, 74580, Note_on_c, 5, 60, 127
7, 74600, Note_on_c, 5, 60, 0
7, 74600, Note_on_c, 5, 55, 127
7, 74620, Note_on_c, 5, 55, 0
7, 74620, Note_on_c, 5, 52, 127
7, 74640, Note_on_c, 5, 52, 0
7, 74640, Note_on_c, 5, 60, 127
7, 74660, Note_on_c, 5, 60, 0
7, 74660, Note_on_c, 5, 52, 127
7, 74680, Note_on_c, 5, 52, 0
7, 74680, Note_on_c, 5, 55, 127
7, 74700, Note_on_c, 5, 55, 0
7, 74700, Note_on_c, 5, 59, 127
7, 74720, Note_on_c, 5, 59, 0
7, 74720, Note_on_c, 5, 52, 127
7, 74740, Note_on_c, 5, 52, 0
7, 74740, Note_on_c, 5, 55, 127
7, 74760, Note_on_c, 5, 55, 0
7, 74760, Note_on_c, 5, 60, 127
7, 74780, Note_on_c, 5, 60, 0
7, 74780, Note_on_c, 5, 52, 127
7, 74800, Note_on_c, 5, 52, 0
7, 74800, Note_on_c, 5, 55, 127
7, 74820, Note_on_c, 5, 55, 0
7, 74820, Note_on_c, 5, 60, 127
7, 74840, Note_on_c, 5, 60, 0
7, 74840, Note_on_c, 5, 55, 127
7, 74860, Note_on_c, 5, 55, 0
7, 74860, Note_on_c, 5, 52, 127
7, 74880, Note_on_c, 5, 52, 0
7, 74880, Note_on_c, 5, 60, 127
7, 74900, Note_on_c, 5, 60, 0
7, 74900, Note_on_c, 5, 52, 127
7, 74920, Note_on_c, 5, 52, 0
7, 74920, Note_on_c, 5, 55, 127
7, 74940, Note_on_c, 5, 55, 0
7, 74940, Note_on_c, 5, 60, 127
7, 74960, Note_on_c, 5, 60, 0
7, 74960, Note_on_c, 5, 55, 127
7, 74980, Note_on_c, 5, 55, 0
7, 74980, Note_on_c, 5, 52, 127
7, 75000, Note_on_c, 5, 52, 0
7, 75000, Note_on_c, 5, 54, 127
7, 75020, Note_on_c, 5, 54, 0
7, 75020, Note_on_c, 5, 50, 127
7, 75040, Note_on_c, 5, 50, 0
7, 75040, Note_on_c, 5, 47, 127
7, 75060, Note_on_c, 5, 47, 0
7, 75060, Note_on_c, 5, 54, 127
7, 75080, Note_on_c, 5, 54, 0
7, 75080, Note_on_c, 5, 47, 127
7, 75100, Note_on_c, 5, 47, 0
7, 75100, Note_on_c, 5, 50, 127
7, 75120, Note_on_c, 5, 50, 0
7, 75120, Note_on_c, 5, 54, 127
7, 75140, Note_on_c, 5, 54, 0
7, 75140, Note_on_c, 5, 50, 127
7, 75160, Note_on_c, 5, 50, 0
7, 75160, Note_on_c, 5, 47, 127
7, 75180, Note_on_c, 5, 47, 0
7, 75180, Note_on_c, 5, 54, 127
7, 75200, Note_on_c, 5, 54, 0
7, 75200, Note_on_c, 5, 47, 127
7, 75220, Note_on_c, 5, 47, 0
7, 75220, Note_on_c, 5, 50, 127
7, 75240, Note_on_c, 5, 50, 0
7, 75240, Note_on_c, 5, 54, 127
7, 75260, Note_on_c, 5, 54, 0
7, 75260, Note_on_c, 5, 50, 127
7, 75280, Note_on_c, 5, 50, 0
7, 75280, Note_on_c, 5, 47, 127
7, 75300, Note_on_c, 5, 47, 0
7, 75300, Note_on_c, 5, 54, 127
7, 75320, Note_on_c, 5, 54, 0
7, 75320, Note_on_c, 5, 47, 127
7, 75340, Note_on_c, 5, 47, 0
7, 75340, Note_on_c, 5, 50, 127
7, 75360, Note_on_c, 5, 50, 0
7, 75360, Note_on_c, 5, 54, 127
7, 75380, Note_on_c, 5, 54, 0
7, 75380, Note_on_c, 5, 50, 127
7, 75400, Note_on_c, 5, 50, 0
7, 75400, Note_on_c, 5, 47, 127
7, 75420, Note_on_c, 5, 47, 0
7, 75420, Note_on_c, 5, 54, 127
7, 75440, Note_on_c, 5, 54, 0
7, 75440, Note_on_c, 5, 50, 127
7, 75460, Note_on_c, 5, 50, 0
7, 75460, Note_on_c, 5, 47, 127
7, 75480, Note_on_c, 5, 47, 0
7, 75480, Note_on_c, 5, 55, 127
7, 75500, Note_on_c, 5, 55, 0
7, 75500, Note_on_c, 5, 50, 127
7, 75520, Note_on_c, 5, 50, 0
7, 75520, Note_on_c, 5, 47, 127
7, 75540, Note_on_c, 5, 47, 0
7, 75540, Note_on_c, 5, 55, 127
7, 75560, Note_on_c, 5, 55, 0
7, 75560, Note_on_c, 5, 47, 127
7, 75580, Note_on_c, 5, 47, 0
7, 75580, Note_on_c, 5, 50, 127
7, 75600, Note_on_c, 5, 50, 0
7, 75600, Note_on_c, 5, 55, 127
7, 75620, Note_on_c, 5, 55, 0
7, 75620, Note_on_c, 5, 50, 127
7, 75640, Note_on_c, 5, 50, 0
7, 75640, Note_on_c, 5, 47, 127
7, 75660, Note_on_c, 5, 47, 0
7, 75660, Note_on_c, 5, 55, 127
7, 75680, Note_on_c, 5, 55, 0
7, 75680, Note_on_c, 5, 50, 127
7, 75700, Note_on_c, 5, 50, 0
7, 75700, Note_on_c, 5, 47, 127
7, 75720, Note_on_c, 5, 47, 0
7, 75720, Note_on_c, 5, 55, 127
7, 75740, Note_on_c, 5, 55, 0
7, 75740, Note_on_c, 5, 50, 127
7, 75760, Note_on_c, 5, 50, 0
7, 75760, Note_on_c, 5, 47, 127
7, 75780, Note_on_c, 5, 47, 0
7, 75780, Note_on_c, 5, 55, 127
7, 75800, Note_on_c, 5, 55, 0
7, 75800, Note_on_c, 5, 47, 127
7, 75820, Note_on_c, 5, 47, 0
7, 75820, Note_on_c, 5, 50, 127
7, 75840, Note_on_c, 5, 50, 0
7, 75840, Note_on_c, 5, 55, 127
7, 75860, Note_on_c, 5, 55, 0
7, 75860, Note_on_c, 5, 50, 127
7, 75880, Note_on_c, 5, 50, 0
7, 75880, Note_on_c, 5, 47, 127
7, 75900, Note_on_c, 5, 47, 0
7, 75900, Note_on_c, 5, 55, 127
7, 75920, Note_on_c, 5, 55, 0
7, 75920, Note_on_c, 5, 50, 127
7, 75940, Note_on_c, 5, 50, 0
7, 75940, Note_on_c, 5, 47, 127
7, 75960, Note_on_c, 5, 47, 0
7, 75960, Note_on_c, 5, 52, 127
7, 75980, Note_on_c, 5, 52, 0
7, 75980, Note_on_c, 5, 48, 127
7, 76000, Note_on_c, 5, 48, 0
7, 76000, Note_on_c, 5, 45, 127
7, 76020, Note_on_c, 5, 45, 0
7, 76020, Note_on_c, 5, 52, 127
7, 76040, Note_on_c, 5, 52, 0
7, 76040, Note_on_c, 5, 45, 127
7, 76060, Note_on_c, 5, 45, 0
7, 76060, Note_on_c, 5, 48, 127
7, 76080, Note_on_c, 5, 48, 0
7, 76080, Note_on_c, 5, 52, 127
7, 76100, Note_on_c, 5, 52, 0
7, 76100, Note_on_c, 5, 45, 127
7, 76120, Note_on_c, 5, 45, 0
7, 76120, Note_on_c, 5, 48, 127
7, 76140, Note_on_c, 5, 48, 0
7, 76140, Note_on_c, 5, 52, 127
7, 76160, Note_on_c, 5, 52, 0
7, 76160, Note_on_c, 5, 45, 127
7, 76180, Note_on_c, 5, 45, 0
7, 76180, Note_on_c, 5, 48, 127
7, 76200, Note_on_c, 5, 48, 0
7, 76200, Note_on_c, 5, 52, 127
7, 76220, Note_on_c, 5, 52, 0
7, 76220, Note_on_c, 5, 45, 127
7, 76240, Note_on_c, 5, 45, 0
7, 76240, Note_on_c, 5, 48, 127
7, 76260, Note_on_c, 5, 48, 0
7, 76260, Note_on_c, 5, 52, 127
7, 76280, Note_on_c, 5, 52, 0
7, 76280, Note_on_c, 5, 45, 127
7, 76300, Note_on_c, 5, 45, 0
7, 76300, Note_on_c, 5, 48, 127
7, 76320, Note_on_c, 5, 48, 0
7, 76320, Note_on_c, 5, 52, 127
7, 76340, Note_on_c, 5, 52, 0
7, 76340, Note_on_c, 5, 45, 127
7, 76360, Note_on_c, 5, 45, 0
7, 76360, Note_on_c, 5, 48, 127
7, 76380, Note_on_c, 5, 48, 0
7, 76380, Note_on_c, 5, 52, 127
7, 76400, Note_on_c, 5, 52, 0
7, 76400, Note_on_c, 5, 45, 127
7, 76420, Note_on_c, 5, 45, 0
7, 76420, Note_on_c, 5, 48, 127
7, 76440, Note_on_c, 5, 48, 0
7, 76440, Note_on_c, 5, 53, 127
7, 76460, Note_on_c, 5, 53, 0
7, 76460, Note_on_c, 5, 48, 127
7, 76480, Note_on_c, 5, 48, 0
7, 76480, Note_on_c, 5, 45, 127
7, 76500, Note_on_c, 5, 45, 0
7, 76500, Note_on_c, 5, 53, 127
7, 76520, Note_on_c, 5, 53, 0
7, 76520, Note_on_c, 5, 45, 127
7, 76540, Note_on_c, 5, 45, 0
7, 76540, Note_on_c, 5, 48, 127
7, 76560, Note_on_c, 5, 48, 0
7, 76560, Note_on_c, 5, 53, 127
7, 76580, Note_on_c, 5, 53, 0
7, 76580, Note_on_c, 5, 48, 127
7, 76600, Note_on_c, 5, 48, 0
7, 76600, Note_on_c, 5, 45, 127
7, 76620, Note_on_c, 5, 45, 0
7, 76620, Note_on_c, 5, 53, 127
7, 76640, Note_on_c, 5, 53, 0
7, 76640, Note_on_c, 5, 45, 127
7, 76660, Note_on_c, 5, 45, 0
7, 76660, Note_on_c, 5, 48, 127
7, 76680, Note_on_c, 5, 48, 0
7, 76680, Note_on_c, 5, 53, 127
7, 76700, Note_on_c, 5, 53, 0
7, 76700, Note_on_c, 5, 48, 127
7, 76720, Note_on_c, 5, 48, 0
7, 76720, Note_on_c, 5, 45, 127
7, 76740, Note_on_c, 5, 45, 0
7, 76740, Note_on_c, 5, 53, 127
7, 76760, Note_on_c, 5, 53, 0
7, 76760, Note_on_c, 5, 45, 127
7, 76780, Note_on_c, 5, 45, 0
7, 76780, Note_on_c, 5, 48, 127
7, 76800, Note_on_c, 5, 48, 0
7, 76800, Note_on_c, 5, 53, 127
7, 76820, Note_on_c, 5, 53, 0
7, 76820, Note_on_c, 5, 45, 127
7, 76840, Note_on_c, 5, 45, 0
7, 76840, Note_on_c, 5, 48, 127
7, 76860, Note_on_c, 5, 48, 0
7, 76860, Note_on_c, 5, 53, 127
7, 76880, Note_on_c, 5, 53, 0
7, 76880, Note_on_c, 5, 45, 127
7, 76900, Note_on_c, 5, 45, 0
7, 76900, Note_on_c, 5, 48, 127
7, 76915, Note_on_c, 5, 52, 75
7, 76920, Note_on_c, 5, 48, 0
7, 76920, Note_on_c, 5, 52, 0
7, 76920, Note_on_c, 5, 47, 127
7, 76960, Note_on_c, 5, 47, 0
7, 76960, Note_on_c, 5, 49, 127
7, 77000, Note_on_c, 5, 49, 0
7, 77000, Note_on_c, 5, 52, 127
7, 77040, Note_on_c, 5, 52, 0
7, 77040, Note_on_c, 5, 47, 127
7, 77095, Note_on_c, 5, 52, 75
7, 77100, Note_on_c, 5, 47, 0
7, 77100, Note_on_c, 5, 52, 0
7, 77100, Note_on_c, 5, 45, 127
7, 77155, Note_on_c, 5, 52, 75
7, 77160, Note_on_c, 5, 45, 0
7, 77160, Note_on_c, 5, 52, 0
7, 77160, Note_on_c, 5, 47, 127
7, 77235, Note_on_c, 5, 52, 75
7, 77240, Note_on_c, 5, 47, 0
7, 77240, Note_on_c, 5, 52, 0
7, 77240, Note_on_c, 5, 45, 127
7, 77315, Note_on_c, 5, 52, 75
7, 77320, Note_on_c, 5, 45, 0
7, 77320, Note_on_c, 5, 52, 0
7, 77320, Note_on_c, 5, 43, 127
7, 77395, Note_on_c, 5, 52, 75
7, 77400, Note_on_c, 5, 43, 0
7, 77400, Note_on_c, 5, 52, 0
7, 77400, Control_c, 5, 1, 64
7, 77400, Note_on_c, 5, 45, 127
7, 77475, Note_on_c, 5, 52, 75
7, 77480, Note_on_c, 5, 45, 0
7, 77480, Note_on_c, 5, 52, 0
7, 77480, Note_on_c, 5, 43, 127
7, 77555, Note_on_c, 5, 52, 75
7, 77560, Note_on_c, 5, 43, 0
7, 77560, Note_on_c, 5, 52, 0
7, 77560, Note_on_c, 5, 42, 127
7, 77635, Note_on_c, 5, 52, 75
7, 77639, Control_c, 5, 1, 0
7, 77640, Note_on_c, 5, 42, 0
7, 77640, Note_on_c, 5, 52, 0
7, 77640, Note_on_c, 5, 43, 127
7, 77715, Note_on_c, 5, 52, 75
7, 77720, Note_on_c, 5, 43, 0
7, 77720, Note_on_c, 5, 52, 0
7, 77720, Note_on_c, 5, 42, 127
7, 77795, Note_on_c, 5, 52, 75
7, 77800, Note_on_c, 5, 42, 0
7, 77800, Note_on_c, 5, 52, 0
7, 77800, Note_on_c, 5, 40, 127
7, 77880, Note_on_c, 5, 40, 0
7, 77880, Note_on_c, 5, 47, 127
7, 77920, Note_on_c, 5, 47, 0
7, 77920, Note_on_c, 5, 47, 127
7, 77960, Note_on_c, 5, 47, 0
7, 77960, Note_on_c, 5, 47, 127
7, 78000, Note_on_c, 5, 47, 0
7, 78000, Note_on_c, 5, 47, 127
7, 78040, Note_on_c, 5, 47, 0
7, 78040, Note_on_c, 5, 47, 127
7, 78080, Note_on_c, 5, 47, 0
7, 78080, Note_on_c, 5, 47, 127
7, 78120, Note_on_c, 5, 47, 0
7, 78120, Note_on_c, 5, 47, 127
7, 78180, Note_on_c, 5, 47, 0
7, 78180, Note_on_c, 5, 47, 127
7, 78240, Note_on_c, 5, 47, 0
7, 78240, Note_on_c, 5, 54, 127
7, 78280, Note_on_c, 5, 54, 0
7, 78280, Note_on_c, 5, 54, 127
7, 78320, Note_on_c, 5, 54, 0
7, 78320, Note_on_c, 5, 54, 127
7, 78360, Note_on_c, 5, 54, 0
7, 78360, Note_on_c, 5, 55, 127
7, 78400, Note_on_c, 5, 55, 0
7, 78400, Note_on_c, 5, 55, 127
7, 78440, Note_on_c, 5, 55, 0
7, 78440, Note_on_c, 5, 55, 127
7, 78480, Note_on_c, 5, 55, 0
7, 78480, Note_on_c, 5, 57, 127
7, 78520, Note_on_c, 5, 57, 0
7, 78520, Note_on_c, 5, 57, 127
7, 78560, Note_on_c, 5, 57, 0
7, 78560, Note_on_c, 5, 57, 127
7, 78580, Note_on_c, 5, 57, 0
7, 78580, Note_on_c, 5, 57, 127
7, 78600, Note_on_c, 5, 57, 0
7, 78600, Note_on_c, 5, 50, 127
7, 78640, Note_on_c, 5, 50, 0
7, 78640, Note_on_c, 5, 50, 127
7, 78680, Note_on_c, 5, 50, 0
7, 78680, Note_on_c, 5, 50, 127
7, 78720, Note_on_c, 5, 50, 0
7, 78720, Note_on_c, 5, 57, 127
7, 78760, Note_on_c, 5, 57, 0
7, 78760, Note_on_c, 5, 57, 127
7, 78800, Note_on_c, 5, 57, 0
7, 78800, Note_on_c, 5, 57, 127
7, 78820, Note_on_c, 5, 57, 0
7, 78820, Note_on_c, 5, 57, 127
7, 78840, Note_on_c, 5, 57, 0
7, 78840, Pitch_bend_c, 5, 8192
7, 78840, Note_on_c, 5, 62, 127
7, 78841, Pitch_bend_c, 5, 9012
7, 78842, Pitch_bend_c, 5, 9831
7, 78843, Pitch_bend_c, 5, 10650
7, 78844, Pitch_bend_c, 5, 11469
7, 78845, Pitch_bend_c, 5, 12288
7, 78846, Pitch_bend_c, 5, 13107
7, 78847, Pitch_bend_c, 5, 13926
7, 78848, Pitch_bend_c, 5, 14745
7, 78849, Pitch_bend_c, 5, 15564
7, 78850, Pitch_bend_c, 5, 16383
7, 79080, Note_on_c, 5, 62, 0
7, 79080, Pitch_bend_c, 5, 8192
7, 79080, Note_on_c, 5, 62, 127
7, 79081, Pitch_bend_c, 5, 9012
7, 79082, Pitch_bend_c, 5, 9831
7, 79083, Pitch_bend_c, 5, 10650
7, 79084, Pitch_bend_c, 5, 11469
7, 79085, Pitch_bend_c, 5, 12288
7, 79086, Pitch_bend_c, 5, 13107
7, 79087, Pitch_bend_c, 5, 13926
7, 79088, Pitch_bend_c, 5, 14745
7, 79089, Pitch_bend_c, 5, 15564
7, 79090, Pitch_bend_c, 5, 16383
7, 79200, Note_on_c, 5, 62, 0
7, 79200, Control_c, 5, 1, 0
7, 79200, Pitch_bend_c, 5, 8192
7, 79200, Note_on_c, 5, 62, 127
7, 79201, Control_c, 5, 1, 7
7, 79201, Pitch_bend_c, 5, 9012
7, 79202, Control_c, 5, 1, 13
7, 79202, Pitch_bend_c, 5, 9831
7, 79203, Control_c, 5, 1, 20
7, 79203, Pitch_bend_c, 5, 10650
7, 79204, Control_c, 5, 1, 26
7, 79204, Pitch_bend_c, 5, 11469
7, 79205, Control_c, 5, 1, 32
7, 79205, Pitch_bend_c, 5, 12288
7, 79206, Control_c, 5, 1, 39
7, 79206, Pitch_bend_c, 5, 13107
7, 79207, Control_c, 5, 1, 45
7, 79207, Pitch_bend_c, 5, 13926
7, 79208, Control_c, 5, 1, 52
7, 79208, Pitch_bend_c, 5, 14745
7, 79209, Control_c, 5, 1, 58
7, 79209, Pitch_bend_c, 5, 15564
7, 79210, Control_c, 5, 1, 64
7, 79210, Pitch_bend_c, 5, 16383
7, 79679, Control_c, 5, 1, 0
7, 79680, Note_on_c, 5, 62, 0
7, 79680, Pitch_bend_c, 5, 8192
7, 79680, Note_on_c, 5, 52, 127
7, 79740, Note_on_c, 5, 52, 0
7, 79740, Note_on_c, 5, 55, 127
7, 79800, Note_on_c, 5, 55, 0
7, 79800, Note_on_c, 5, 57, 127
7, 79840, Note_on_c, 5, 57, 0
7, 79840, Note_on_c, 5, 55, 127
7, 79880, Note_on_c, 5, 55, 0
7, 79880, Note_on_c, 5, 52, 127
7, 79920, Note_on_c, 5, 52, 0
7, 79920, Note_on_c, 5, 50, 127
7, 79960, Note_on_c, 5, 50, 0
7, 79960, Note_on_c, 5, 52, 127
7, 80000, Note_on_c, 5, 52, 0
7, 80000, Note_on_c, 5, 54, 127
7, 80040, Note_on_c, 5, 54, 0
7, 80040, Note_on_c, 5, 55, 127
7, 80060, Note_on_c, 5, 55, 0
7, 80060, Note_on_c, 5, 57, 127
7, 80080, Note_on_c, 5, 57, 0
7, 80080, Note_on_c, 5, 55, 127
7, 80100, Note_on_c, 5, 55, 0
7, 80100, Note_on_c, 5, 52, 127
7, 80160, Note_on_c, 5, 52, 0
7, 80160, Note_on_c, 5, 50, 127
7, 80200, Note_on_c, 5, 50, 0
7, 80200, Note_on_c, 5, 52, 127
7, 80240, Note_on_c, 5, 52, 0
7, 80240, Note_on_c, 5, 54, 127
7, 80280, Note_on_c, 5, 54, 0
7, 80280, Note_on_c, 5, 55, 127
7, 80300, Note_on_c, 5, 55, 0
7, 80300, Note_on_c, 5, 57, 127
7, 80320, Note_on_c, 5, 57, 0
7, 80320, Note_on_c, 5, 55, 127
7, 80340, Note_on_c, 5, 55, 0
7, 80340, Note_on_c, 5, 52, 127
7, 80400, Note_on_c, 5, 52, 0
7, 80400, Note_on_c, 5, 48, 127
7, 80440, Note_on_c, 5, 48, 0
7, 80440, Note_on_c, 5, 52, 127
7, 80480, Note_on_c, 5, 52, 0
7, 80480, Note_on_c, 5, 54, 127
7, 80520, Note_on_c, 5, 54, 0
7, 80520, Note_on_c, 5, 55, 127
7, 80540, Note_on_c, 5, 55, 0
7, 80540, Note_on_c, 5, 57, 127
7, 80560, Note_on_c, 5, 57, 0
7, 80560, Note_on_c, 5, 55, 127
7, 80580, Note_on_c, 5, 55, 0
7, 80580, Note_on_c, 5, 52, 127
7, 80640, Note_on_c, 5, 52, 0
7, 80640, Note_on_c, 5, 52, 127
7, 80680, Note_on_c, 5, 52, 0
7, 80680, Note_on_c, 5, 54, 127
7, 80720, Note_on_c, 5, 54, 0
7, 80720, Note_on_c, 5, 55, 127
7, 80760, Note_on_c, 5, 55, 0
7, 80760, Note_on_c, 5, 57, 127
7, 80800, Note_on_c, 5, 57, 0
7, 80800, Note_on_c, 5, 55, 127
7, 80840, Note_on_c, 5, 55, 0
7, 80840, Note_on_c, 5, 52, 127
7, 80860, Note_on_c, 5, 52, 0
7, 80860, Note_on_c, 5, 50, 127
7, 80880, Note_on_c, 5, 50, 0
7, 80880, Note_on_c, 5, 52, 127
7, 80920, Note_on_c, 5, 52, 0
7, 80920, Note_on_c, 5, 54, 127
7, 80960, Note_on_c, 5, 54, 0
7, 80960, Note_on_c, 5, 55, 127
7, 81000, Note_on_c, 5, 55, 0
7, 81000, Note_on_c, 5, 57, 127
7, 81040, Note_on_c, 5, 57, 0
7, 81040, Note_on_c, 5, 55, 127
7, 81080, Note_on_c, 5, 55, 0
7, 81080, Note_on_c, 5, 52, 127
7, 81100, Note_on_c, 5, 52, 0
7, 81100, Note_on_c, 5, 50, 127
7, 81120, Note_on_c, 5, 50, 0
7, 81120, Note_on_c, 5, 55, 127
7, 81160, Note_on_c, 5, 55, 0
7, 81160, Note_on_c, 5, 57, 127
7, 81200, Note_on_c, 5, 57, 0
7, 81240, Note_on_c, 5, 59, 127
7, 81270, Note_on_c, 5, 59, 0
7, 81270, Note_on_c, 5, 57, 127
7, 81300, Note_on_c, 5, 57, 0
7, 81300, Note_on_c, 5, 55, 127
7, 81330, Note_on_c, 5, 55, 0
7, 81330, Note_on_c, 5, 50, 127
7, 81360, Note_on_c, 5, 50, 0
7, 81360, Note_on_c, 5, 59, 127
7, 81390, Note_on_c, 5, 59, 0
7, 81390, Note_on_c, 5, 57, 127
7, 81420, Note_on_c, 5, 57, 0
7, 81420, Note_on_c, 5, 55, 127
7, 81450, Note_on_c, 5, 55, 0
7, 81450, Note_on_c, 5, 50, 127
7, 81480, Note_on_c, 5, 50, 0
7, 81480, Note_on_c, 5, 59, 127
7, 81500, Note_on_c, 5, 59, 0
7, 81500, Note_on_c, 5, 57, 127
7, 81520, Note_on_c, 5, 57, 0
7, 81520, Note_on_c, 5, 55, 127
7, 81540, Note_on_c, 5, 55, 0
7, 81540, Note_on_c, 5, 50, 127
7, 81600, Note_on_c, 5, 50, 0
7, 81600, Note_on_c, 5, 59, 127
7, 81620, Note_on_c, 5, 59, 0
7, 81620, Note_on_c, 5, 57, 127
7, 81640, Note_on_c, 5, 57, 0
7, 81640, Note_on_c, 5, 55, 127
7, 81660, Note_on_c, 5, 55, 0
7, 81660, Note_on_c, 5, 50, 127
7, 81720, Note_on_c, 5, 50, 0
7, 81720, Note_on_c, 5, 59, 127
7, 81760, Note_on_c, 5, 59, 0
7, 81760, Note_on_c, 5, 57, 127
7, 81800, Note_on_c, 5, 57, 0
7, 81800, Note_on_c, 5, 50, 127
7, 81840, Note_on_c, 5, 50, 0
7, 81840, Note_on_c, 5, 59, 127
7, 81880, Note_on_c, 5, 59, 0
7, 81880, Note_on_c, 5, 57, 127
7, 81920, Note_on_c, 5, 57, 0
7, 81920, Note_on_c, 5, 50, 127
7, 81960, Note_on_c, 5, 50, 0
7, 81960, Note_on_c, 5, 59, 127
7, 82000, Note_on_c, 5, 59, 0
7, 82000, Note_on_c, 5, 57, 127
7, 82040, Note_on_c, 5, 57, 0
7, 82040, Note_on_c, 5, 50, 127
7, 82080, Note_on_c, 5, 50, 0
7, 82080, Note_on_c, 5, 59, 127
7, 82120, Note_on_c, 5, 59, 0
7, 82120, Note_on_c, 5, 57, 127
7, 82160, Note_on_c, 5, 57, 0
7, 82160, Note_on_c, 5, 55, 127
7, 82200, Note_on_c, 5, 55, 0
7, 82200, Pitch_bend_c, 5, 8192
7, 82200, Note_on_c, 5, 53, 127
7, 82201, Pitch_bend_c, 5, 9012
7, 82202, Pitch_bend_c, 5, 9831
7, 82203, Pitch_bend_c, 5, 10650
7, 82204, Pitch_bend_c, 5, 11469
7, 82205, Pitch_bend_c, 5, 12288
7, 82206, Pitch_bend_c, 5, 13107
7, 82207, Pitch_bend_c, 5, 13926
7, 82208, Pitch_bend_c, 5, 14745
7, 82209, Pitch_bend_c, 5, 15564
7, 82210, Pitch_bend_c, 5, 16383
7, 82260, Note_on_c, 5, 53, 0
7, 82260, Pitch_bend_c, 5, 8192
7, 82260, Note_on_c, 5, 55, 127
7, 82320, Note_on_c, 5, 55, 0
7, 82320, Pitch_bend_c, 5, 8192
7, 82320, Note_on_c, 5, 53, 127
7, 82321, Pitch_bend_c, 5, 9012
7, 82322, Pitch_bend_c, 5, 9831
7, 82323, Pitch_bend_c, 5, 10650
7, 82324, Pitch_bend_c, 5, 11469
7, 82325, Pitch_bend_c, 5, 12288
7, 82326, Pitch_bend_c, 5, 13107
7, 82327, Pitch_bend_c, 5, 13926
7, 82328, Pitch_bend_c, 5, 14745
7, 82329, Pitch_bend_c, 5, 15564
7, 82330, Pitch_bend_c, 5, 16383
7, 82380, Note_on_c, 5, 53, 0
7, 82380, Pitch_bend_c, 5, 8192
7, 82380, Note_on_c, 5, 55, 127
7, 82440, Note_on_c, 5, 55, 0
7, 82440, Pitch_bend_c, 5, 8192
7, 82440, Note_on_c, 5, 53, 127
7, 82441, Pitch_bend_c, 5, 9012
7, 82442, Pitch_bend_c, 5, 9831
7, 82443, Pitch_bend_c, 5, 10650
7, 82444, Pitch_bend_c, 5, 11469
7, 82445, Pitch_bend_c, 5, 12288
7, 82446, Pitch_bend_c, 5, 13107
7, 82447, Pitch_bend_c, 5, 13926
7, 82448, Pitch_bend_c, 5, 14745
7, 82449, Pitch_bend_c, 5, 15564
7, 82450, Pitch_bend_c, 5, 16383
7, 82500, Note_on_c, 5, 53, 0
7, 82500, Pitch_bend_c, 5, 8192
7, 82500, Note_on_c, 5, 55, 127
7, 82560, Note_on_c, 5, 55, 0
7, 82560, Pitch_bend_c, 5, 8192
7, 82560, Note_on_c, 5, 53, 127
7, 82561, Pitch_bend_c, 5, 9012
7, 82562, Pitch_bend_c, 5, 9831
7, 82563, Pitch_bend_c, 5, 10650
7, 82564, Pitch_bend_c, 5, 11469
7, 82565, Pitch_bend_c, 5, 12288
7, 82566, Pitch_bend_c, 5, 13107
7, 82567, Pitch_bend_c, 5, 13926
7, 82568, Pitch_bend_c, 5, 14745
7, 82569, Pitch_bend_c, 5, 15564
7, 82570, Pitch_bend_c, 5, 16383
7, 82620, Note_on_c, 5, 53, 0
7, 82620, Pitch_bend_c, 5, 8192
7, 82620, Note_on_c, 5, 55, 127
7, 82680, Note_on_c, 5, 55, 0
7, 82680, Pitch_bend_c, 5, 8192
7, 82680, Note_on_c, 5, 58, 127
7, 82681, Pitch_bend_c, 5, 9012
7, 82682, Pitch_bend_c, 5, 9831
7, 82683, Pitch_bend_c, 5, 10650
7, 82684, Pitch_bend_c, 5, 11469
7, 82685, Pitch_bend_c, 5, 12288
7, 82740, Note_on_c, 5, 58, 0
7, 82740, Pitch_bend_c, 5, 8192
7, 82740, Note_on_c, 5, 55, 127
7, 82800, Note_on_c, 5, 55, 0
7, 82800, Pitch_bend_c, 5, 8192
7, 82800, Note_on_c, 5, 53, 127
7, 82801, Pitch_bend_c, 5, 9012
7, 82802, Pitch_bend_c, 5, 9831
7, 82803, Pitch_bend_c, 5, 10650
7, 82804, Pitch_bend_c, 5, 11469
7, 82805, Pitch_bend_c, 5, 12288
7, 82806, Pitch_bend_c, 5, 13107
7, 82807, Pitch_bend_c, 5, 13926
7, 82808, Pitch_bend_c, 5, 14745
7, 82809, Pitch_bend_c, 5, 15564
7, 82810, Pitch_bend_c, 5, 16383
7, 82860, Note_on_c, 5, 53, 0
7, 82860, Pitch_bend_c, 5, 8192
7, 82860, Note_on_c, 5, 55, 127
7, 82920, Note_on_c, 5, 55, 0
7, 82920, Pitch_bend_c, 5, 8192
7, 82920, Note_on_c, 5, 58, 127
7, 82921, Pitch_bend_c, 5, 9012
7, 82922, Pitch_bend_c, 5, 9831
7, 82923, Pitch_bend_c, 5, 10650
7, 82924, Pitch_bend_c, 5, 11469
7, 82925, Pitch_bend_c, 5, 12288
7, 82980, Note_on_c, 5, 58, 0
7, 82980, Pitch_bend_c, 5, 8192
7, 82980, Note_on_c, 5, 55, 127
7, 83040, Note_on_c, 5, 55, 0
7, 83040, Pitch_bend_c, 5, 8192
7, 83040, Note_on_c, 5, 53, 127
7, 83041, Pitch_bend_c, 5, 9012
7, 83042, Pitch_bend_c, 5, 9831
7, 83043, Pitch_bend_c, 5, 10650
7, 83044, Pitch_bend_c, 5, 11469
7, 83045, Pitch_bend_c, 5, 12288
7, 83046, Pitch_bend_c, 5, 13107
7, 83047, Pitch_bend_c, 5, 13926
7, 83048, Pitch_bend_c, 5, 14745
7, 83049, Pitch_bend_c, 5, 15564
7, 83050, Pitch_bend_c, 5, 16383
7, 83100, Note_on_c, 5, 53, 0
7, 83100, Pitch_bend_c, 5, 8192
7, 83100, Note_on_c, 5, 55, 127
7, 83160, Note_on_c, 5, 55, 0
7, 83160, Note_on_c, 5, 59, 127
7, 83200, Note_on_c, 5, 59, 0
7, 83200, Note_on_c, 5, 57, 127
7, 83240, Note_on_c, 5, 57, 0
7, 83240, Note_on_c, 5, 55, 127
7, 83280, Note_on_c, 5, 55, 0
7, 83280, Note_on_c, 5, 57, 127
7, 83400, Note_on_c, 5, 57, 0
7, 83400, Note_on_c, 5, 57, 127
7, 83440, Note_on_c, 5, 57, 0
7, 83440, Note_on_c, 5, 55, 127
7, 83480, Note_on_c, 5, 55, 0
7, 83480, Note_on_c, 5, 54, 127
7, 83520, Note_on_c, 5, 54, 0
7, 83520, Note_on_c, 5, 55, 127
7, 83640, Note_on_c, 5, 55, 0
7, 83640, Note_on_c, 5, 54, 127
7, 83680, Note_on_c, 5, 54, 0
7, 83680, Note_on_c, 5, 52, 127
7, 83720, Note_on_c, 5, 52, 0
7, 83720, Note_on_c, 5, 50, 127
7, 83760, Note_on_c, 5, 50, 0
7, 83760, Note_on_c, 5, 52, 127
7, 83880, Note_on_c, 5, 52, 0
7, 83880, Note_on_c, 5, 50, 127
7, 83900, Note_on_c, 5, 50, 0
7, 83900, Note_on_c, 5, 52, 127
7, 83920, Note_on_c, 5, 52, 0
7, 83920, Note_on_c, 5, 50, 127
7, 83940, Note_on_c, 5, 50, 0
7, 83940, Note_on_c, 5, 48, 127
7, 84000, Note_on_c, 5, 48, 0
7, 84000, Note_on_c, 5, 50, 127
7, 84120, Note_on_c, 5, 50, 0
7, 84120, Note_on_c, 5, 48, 127
7, 84140, Note_on_c, 5, 48, 0
7, 84140, Note_on_c, 5, 50, 127
7, 84160, Note_on_c, 5, 50, 0
7, 84160, Note_on_c, 5, 48, 127
7, 84180, Note_on_c, 5, 48, 0
7, 84180, Note_on_c, 5, 47, 127
7, 84240, Note_on_c, 5, 47, 0
7, 84240, Note_on_c, 5, 48, 127
7, 84360, Note_on_c, 5, 48, 0
7, 84360, Note_on_c, 5, 47, 127
7, 84380, Note_on_c, 5, 47, 0
7, 84380, Note_on_c, 5, 48, 127
7, 84400, Note_on_c, 5, 48, 0
7, 84400, Note_on_c, 5, 47, 127
7, 84420, Note_on_c, 5, 47, 0
7, 84420, Note_on_c, 5, 45, 127
7, 84480, Note_on_c, 5, 45, 0
7, 84480, Note_on_c, 5, 47, 127
7, 84520, Note_on_c, 5, 47, 0
7, 84520, Note_on_c, 5, 45, 127
7, 84560, Note_on_c, 5, 45, 0
7, 84560, Note_on_c, 5, 43, 127
7, 84600, Note_on_c, 5, 43, 0
7, 84600, Note_on_c, 5, 45, 127
7, 84640, Note_on_c, 5, 45, 0
7, 84640, Note_on_c, 5, 43, 127
7, 84680, Note_on_c, 5, 43, 0
7, 84680, Note_on_c, 5, 40, 127
7, 84720, Note_on_c, 5, 40, 0
7, 84720, Note_on_c, 5, 43, 127
7, 84760, Note_on_c, 5, 43, 0
7, 84760, Note_on_c, 5, 40, 127
7, 84800, Note_on_c, 5, 40, 0
7, 84800, Note_on_c, 5, 43, 127
7, 84840, Note_on_c, 5, 43, 0
7, 84840, Pitch_bend_c, 5, 8192
7, 84840, Note_on_c, 5, 45, 127
7, 84841, Pitch_bend_c, 5, 9012
7, 84842, Pitch_bend_c, 5, 9831
7, 84843, Pitch_bend_c, 5, 10650
7, 84844, Pitch_bend_c, 5, 11469
7, 84845, Pitch_bend_c, 5, 12288
7, 84846, Pitch_bend_c, 5, 13107
7, 84847, Pitch_bend_c, 5, 13926
7, 84848, Pitch_bend_c, 5, 14745
7, 84849, Pitch_bend_c, 5, 15564
7, 84850, Pitch_bend_c, 5, 16383
7, 84880, Note_on_c, 5, 45, 0
7, 84920, Pitch_bend_c, 5, 8192
7, 84920, Note_on_c, 5, 45, 127
7, 84921, Pitch_bend_c, 5, 9012
7, 84922, Pitch_bend_c, 5, 9831
7, 84923, Pitch_bend_c, 5, 10650
7, 84924, Pitch_bend_c, 5, 11469
7, 84925, Pitch_bend_c, 5, 12288
7, 84926, Pitch_bend_c, 5, 13107
7, 84927, Pitch_bend_c, 5, 13926
7, 84928, Pitch_bend_c, 5, 14745
7, 84929, Pitch_bend_c, 5, 15564
7, 84930, Pitch_bend_c, 5, 16383
7, 84960, Note_on_c, 5, 45, 0
7, 85000, Pitch_bend_c, 5, 8192
7, 85000, Note_on_c, 5, 45, 127
7, 85001, Pitch_bend_c, 5, 9012
7, 85002, Pitch_bend_c, 5, 9831
7, 85003, Pitch_bend_c, 5, 10650
7, 85004, Pitch_bend_c, 5, 11469
7, 85005, Pitch_bend_c, 5, 12288
7, 85006, Pitch_bend_c, 5, 13107
7, 85007, Pitch_bend_c, 5, 13926
7, 85008, Pitch_bend_c, 5, 14745
7, 85009, Pitch_bend_c, 5, 15564
7, 85010, Pitch_bend_c, 5, 16383
7, 85040, Note_on_c, 5, 45, 0
7, 85080, Pitch_bend_c, 5, 8192
7, 85080, Note_on_c, 5, 45, 127
7, 85081, Pitch_bend_c, 5, 9012
7, 85082, Pitch_bend_c, 5, 9831
7, 85083, Pitch_bend_c, 5, 10650
7, 85084, Pitch_bend_c, 5, 11469
7, 85085, Pitch_bend_c, 5, 12288
7, 85086, Pitch_bend_c, 5, 13107
7, 85087, Pitch_bend_c, 5, 13926
7, 85088, Pitch_bend_c, 5, 14745
7, 85089, Pitch_bend_c, 5, 15564
7, 85090, Pitch_bend_c, 5, 16383
7, 85120, Note_on_c, 5, 45, 0
7, 85160, Pitch_bend_c, 5, 8192
7, 85160, Note_on_c, 5, 47, 127
7, 85161, Pitch_bend_c, 5, 9012
7, 85162, Pitch_bend_c, 5, 9831
7, 85163, Pitch_bend_c, 5, 10650
7, 85164, Pitch_bend_c, 5, 11469
7, 85165, Pitch_bend_c, 5, 12288
7, 85166, Pitch_bend_c, 5, 13107
7, 85167, Pitch_bend_c, 5, 13926
7, 85168, Pitch_bend_c, 5, 14745
7, 85169, Pitch_bend_c, 5, 15564
7, 85170, Pitch_bend_c, 5, 16383
7, 85450, Pitch_bend_c, 5, 16383
7, 85451, Pitch_bend_c, 5, 15563
7, 85452, Pitch_bend_c, 5, 14744
7, 85453, Pitch_bend_c, 5, 13925
7, 85454, Pitch_bend_c, 5, 13106
7, 85455, Pitch_bend_c, 5, 12287
7, 85456, Pitch_bend_c, 5, 11468
7, 85457, Pitch_bend_c, 5, 10649
7, 85458, Pitch_bend_c, 5, 9830
7, 85459, Pitch_bend_c, 5, 9011
7, 85460, Pitch_bend_c, 5, 8192
7, 85480, Note_on_c, 5, 47, 0
7, 85480, Note_on_c, 5, 43, 127
7, 85500, Note_on_c, 5, 43, 0
7, 85500, Note_on_c, 5, 40, 127
7, 85560, Note_on_c, 5, 40, 0
7, 85560, Note_on_c, 5, 43, 127
7, 85640, Note_on_c, 5, 43, 0
7, 85640, Note_on_c, 5, 40, 127
7, 85720, Note_on_c, 5, 40, 0
7, 85720, Note_on_c, 5, 43, 127
7, 85800, Note_on_c, 5, 43, 0
7, 85800, Note_on_c, 5, 40, 127
7, 85880, Note_on_c, 5, 40, 0
7, 85880, Note_on_c, 5, 39, 127
7, 85960, Note_on_c, 5, 39, 0
7, 85960, Note_on_c, 5, 38, 127
7, 86040, Note_on_c, 5, 38, 0
7, 86040, Note_on_c, 5, 35, 127
7, 86120, Note_on_c, 5, 35, 0
7, 86120, Note_on_c, 5, 34, 127
7, 86200, Note_on_c, 5, 34, 0
7, 86200, Note_on_c, 5, 33, 127
7, 86280, Note_on_c, 5, 33, 0
7, 86280, Control_c, 5, 1, 0
7, 86280, Note_on_c, 5, 31, 127
7, 86281, Control_c, 5, 1, 7
7, 86282, Control_c, 5, 1, 13
7, 86283, Control_c, 5, 1, 20
7, 86284, Control_c, 5, 1, 26
7, 86285, Control_c, 5, 1, 32
7, 86286, Control_c, 5, 1, 39
7, 86287, Control_c, 5, 1, 45
7, 86288, Control_c, 5, 1, 52
7, 86289, Control_c, 5, 1, 58
7, 86290, Control_c, 5, 1, 64
7, 86519, Control_c, 5, 1, 0
7, 86520, Note_on_c, 5, 31, 0
7, 86520, Note_on_c, 5, 43, 127
7, 86580, Note_on_c, 5, 43, 0
7, 86580, Note_on_c, 5, 43, 127
7, 86640, Note_on_c, 5, 43, 0
7, 86640, Pitch_bend_c, 5, 8192
7, 86640, Pitch_bend_c, 5, 8192
7, 86640, Note_on_c, 5, 46, 127
7, 86640, Note_on_c, 5, 50, 127
7, 86641, Pitch_bend_c, 5, 9012
7, 86641, Pitch_bend_c, 5, 8602
7, 86642, Pitch_bend_c, 5, 9831
7, 86642, Pitch_bend_c, 5, 9012
7, 86643, Pitch_bend_c, 5, 10650
7, 86643, Pitch_bend_c, 5, 9421
7, 86644, Pitch_bend_c, 5, 11469
7, 86644, Pitch_bend_c, 5, 9831
7, 86645, Pitch_bend_c, 5, 12288
7, 86645, Pitch_bend_c, 5, 10240
7, 86646, Pitch_bend_c, 5, 13107
7, 86646, Pitch_bend_c, 5, 10650
7, 86647, Pitch_bend_c, 5, 13926
7, 86647, Pitch_bend_c, 5, 11060
7, 86648, Pitch_bend_c, 5, 14745
7, 86648, Pitch_bend_c, 5, 11469
7, 86649, Pitch_bend_c, 5, 15564
7, 86649, Pitch_bend_c, 5, 11879
7, 86650, Pitch_bend_c, 5, 16383
7, 86650, Pitch_bend_c, 5, 12288
7, 86759, Pitch_bend_c, 5, 8192
7, 86760, Note_on_c, 5, 46, 0
7, 86760, Note_on_c, 5, 50, 0
7, 86760, Pitch_bend_c, 5, 8192
7, 86760, Note_on_c, 5, 43, 127
7, 86820, Note_on_c, 5, 43, 0
7, 86820, Note_on_c, 5, 43, 127
7, 86880, Note_on_c, 5, 43, 0
7, 86880, Pitch_bend_c, 5, 8192
7, 86880, Pitch_bend_c, 5, 8192
7, 86880, Note_on_c, 5, 46, 127
7, 86880, Note_on_c, 5, 50, 127
7, 86881, Pitch_bend_c, 5, 9012
7, 86881, Pitch_bend_c, 5, 8602
7, 86882, Pitch_bend_c, 5, 9831
7, 86882, Pitch_bend_c, 5, 9012
7, 86883, Pitch_bend_c, 5, 10650
7, 86883, Pitch_bend_c, 5, 9421
7, 86884, Pitch_bend_c, 5, 11469
7, 86884, Pitch_bend_c, 5, 9831
7, 86885, Pitch_bend_c, 5, 12288
7, 86885, Pitch_bend_c, 5, 10240
7, 86886, Pitch_bend_c, 5, 13107
7, 86886, Pitch_bend_c, 5, 10650
7, 86887, Pitch_bend_c, 5, 13926
7, 86887, Pitch_bend_c, 5, 11060
7, 86888, Pitch_bend_c, 5, 14745
7, 86888, Pitch_bend_c, 5, 11469
7, 86889, Pitch_bend_c, 5, 15564
7, 86889, Pitch_bend_c, 5, 11879
7, 86890, Pitch_bend_c, 5, 16383
7, 86890, Pitch_bend_c, 5, 12288
7, 86999, Pitch_bend_c, 5, 8192
7, 87000, Note_on_c, 5, 46, 0
7, 87000, Note_on_c, 5, 50, 0
7, 87000, Pitch_bend_c, 5, 8192
7, 87000, Note_on_c, 5, 43, 127
7, 87060, Note_on_c, 5, 43, 0
7, 87060, Note_on_c, 5, 43, 127
7, 87120, Note_on_c, 5, 43, 0
7, 87120, Pitch_bend_c, 5, 8192
7, 87120, Note_on_c, 5, 44, 127
7, 87120, Note_on_c, 5, 50, 127
7, 87120, Pitch_bend_c, 5, 8192
7, 87121, Pitch_bend_c, 5, 8602
7, 87121, Pitch_bend_c, 5, 9012
7, 87122, Pitch_bend_c, 5, 9012
7, 87122, Pitch_bend_c, 5, 9831
7, 87123, Pitch_bend_c, 5, 9421
7, 87123, Pitch_bend_c, 5, 10650
7, 87124, Pitch_bend_c, 5, 9831
7, 87124, Pitch_bend_c, 5, 11469
7, 87125, Pitch_bend_c, 5, 10240
7, 87125, Pitch_bend_c, 5, 12288
7, 87126, Pitch_bend_c, 5, 10650
7, 87126, Pitch_bend_c, 5, 13107
7, 87127, Pitch_bend_c, 5, 11060
7, 87127, Pitch_bend_c, 5, 13926
7, 87128, Pitch_bend_c, 5, 11469
7, 87128, Pitch_bend_c, 5, 14745
7, 87129, Pitch_bend_c, 5, 11879
7, 87129, Pitch_bend_c, 5, 15564
7, 87130, Pitch_bend_c, 5, 12288
7, 87130, Pitch_bend_c, 5, 16383
7, 87239, Pitch_bend_c, 5, 8192
7, 87240, Note_on_c, 5, 44, 0
7, 87240, Note_on_c, 5, 50, 0
7, 87240, Pitch_bend_c, 5, 8192
7, 87240, Note_on_c, 5, 43, 127
7, 87300, Note_on_c, 5, 43, 0
7, 87300, Note_on_c, 5, 43, 127
7, 87360, Note_on_c, 5, 43, 0
7, 87360, Pitch_bend_c, 5, 8192
7, 87360, Note_on_c, 5, 46, 127
7, 87360, Note_on_c, 5, 50, 127
7, 87360, Pitch_bend_c, 5, 8192
7, 87361, Pitch_bend_c, 5, 8602
7, 87361, Pitch_bend_c, 5, 9012
7, 87362, Pitch_bend_c, 5, 9012
7, 87362, Pitch_bend_c, 5, 9831
7, 87363, Pitch_bend_c, 5, 9421
7, 87363, Pitch_bend_c, 5, 10650
7, 87364, Pitch_bend_c, 5, 9831
7, 87364, Pitch_bend_c, 5, 11469
7, 87365, Pitch_bend_c, 5, 10240
7, 87365, Pitch_bend_c, 5, 12288
7, 87366, Pitch_bend_c, 5, 10650
7, 87366, Pitch_bend_c, 5, 13107
7, 87367, Pitch_bend_c, 5, 11060
7, 87367, Pitch_bend_c, 5, 13926
7, 87368, Pitch_bend_c, 5, 11469
7, 87368, Pitch_bend_c, 5, 14745
7, 87369, Pitch_bend_c, 5, 11879
7, 87369, Pitch_bend_c, 5, 15564
7, 87370, Pitch_bend_c, 5, 12288
7, 87370, Pitch_bend_c, 5, 16383
7, 87479, Pitch_bend_c, 5, 8192
7, 87480, Note_on_c, 5, 46, 0
7, 87480, Note_on_c, 5, 50, 0
7, 87480, Pitch_bend_c, 5, 8192
7, 87480, Note_on_c, 5, 52, 127
7, 87480, Note_on_c, 5, 48, 127
7, 87481, Pitch_bend_c, 5, 8238
7, 87482, Pitch_bend_c, 5, 8284
7, 87483, Pitch_bend_c, 5, 8329
7, 87484, Pitch_bend_c, 5, 8375
7, 87485, Pitch_bend_c, 5, 8420
7, 87486, Pitch_bend_c, 5, 8466
7, 87487, Pitch_bend_c, 5, 8511
7, 87488, Pitch_bend_c, 5, 8557
7, 87489, Pitch_bend_c, 5, 8602
7, 87490, Pitch_bend_c, 5, 8648
7, 87491, Pitch_bend_c, 5, 8693
7, 87492, Pitch_bend_c, 5, 8739
7, 87493, Pitch_bend_c, 5, 8784
7, 87494, Pitch_bend_c, 5, 8830
7, 87495, Pitch_bend_c, 5, 8875
7, 87496, Pitch_bend_c, 5, 8921
7, 87497, Pitch_bend_c, 5, 8966
7, 87498, Pitch_bend_c, 5, 9012
7, 87499, Pitch_bend_c, 5, 9057
7, 87500, Pitch_bend_c, 5, 9103
7, 87501, Pitch_bend_c, 5, 9148
7, 87502, Pitch_bend_c, 5, 9194
7, 87503, Pitch_bend_c, 5, 9239
7, 87504, Pitch_bend_c, 5, 9285
7, 87505, Pitch_bend_c, 5, 9330
7, 87506, Pitch_bend_c, 5, 9376
7, 87507, Pitch_bend_c, 5, 9421
7, 87508, Pitch_bend_c, 5, 9467
7, 87509, Pitch_bend_c, 5, 9512
7, 87510, Pitch_bend_c, 5, 9558
7, 87511, Pitch_bend_c, 5, 9603
7, 87512, Pitch_bend_c, 5, 9649
7, 87513, Pitch_bend_c, 5, 9694
7, 87514, Pitch_bend_c, 5, 9740
7, 87515, Pitch_bend_c, 5, 9785
7, 87516, Pitch_bend_c, 5, 9831
7, 87517, Pitch_bend_c, 5, 9876
7, 87518, Pitch_bend_c, 5, 9922
7, 87519, Pitch_bend_c, 5, 9967
7, 87520, Pitch_bend_c, 5, 10013
7, 87521, Pitch_bend_c, 5, 10058
7, 87522, Pitch_bend_c, 5, 10104
7, 87523, Pitch_bend_c, 5, 10149
7, 87524, Pitch_bend_c, 5, 10195
7, 87525, Pitch_bend_c, 5, 10240
7, 87526, Pitch_bend_c, 5, 10286
7, 87527, Pitch_bend_c, 5, 10332
7, 87528, Pitch_bend_c, 5, 10377
7, 87529, Pitch_bend_c, 5, 10423
7, 87530, Pitch_bend_c, 5, 10468
7, 87531, Pitch_bend_c, 5, 10514
7, 87532, Pitch_bend_c, 5, 10559
7, 87533, Pitch_bend_c, 5, 10605
7, 87534, Pitch_bend_c, 5, 10650
7, 87535, Pitch_bend_c, 5, 10696
7, 87536, Pitch_bend_c, 5, 10741
7, 87537, Pitch_bend_c, 5, 10787
7, 87538, Pitch_bend_c, 5, 10832
7, 87539, Pitch_bend_c, 5, 10878
7, 87540, Pitch_bend_c, 5, 10923
7, 87541, Pitch_bend_c, 5, 10969
7, 87542, Pitch_bend_c, 5, 11014
7, 87543, Pitch_bend_c, 5, 11060
7, 87544, Pitch_bend_c, 5, 11105
7, 87545, Pitch_bend_c, 5, 11151
7, 87546, Pitch_bend_c, 5, 11196
7, 87547, Pitch_bend_c, 5, 11242
7, 87548, Pitch_bend_c, 5, 11287
7, 87549, Pitch_bend_c, 5, 11333
7, 87550, Pitch_bend_c, 5, 11378
7, 87551, Pitch_bend_c, 5, 11424
7, 87552, Pitch_bend_c, 5, 11469
7, 87553, Pitch_bend_c, 5, 11515
7, 87554, Pitch_bend_c, 5, 11560
7, 87555, Pitch_bend_c, 5, 11606
7, 87556, Pitch_bend_c, 5, 11651
7, 87557, Pitch_bend_c, 5, 11697
7, 87558, Pitch_bend_c, 5, 11742
7, 87559, Pitch_bend_c, 5, 11788
7, 87560, Pitch_bend_c, 5, 11833
7, 87561, Pitch_bend_c, 5, 11879
7, 87562, Pitch_bend_c, 5, 11924
7, 87563, Pitch_bend_c, 5, 11970
7, 87564, Pitch_bend_c, 5, 12015
7, 87565, Pitch_bend_c, 5, 12061
7, 87566, Pitch_bend_c, 5, 12106
7, 87567, Pitch_bend_c, 5, 12152
7, 87568, Pitch_bend_c, 5, 12197
7, 87569, Pitch_bend_c, 5, 12243
7, 87570, Pitch_bend_c, 5, 12288
7, 87571, Pitch_bend_c, 5, 12151
7, 87572, Pitch_bend_c, 5, 12014
7, 87573, Pitch_bend_c, 5, 11878
7, 87574, Pitch_bend_c, 5, 11741
7, 87575, Pitch_bend_c, 5, 11605
7, 87576, Pitch_bend_c, 5, 11468
7, 87577, Pitch_bend_c, 5, 11332
7, 87578, Pitch_bend_c, 5, 11195
7, 87579, Pitch_bend_c, 5, 11059
7, 87580, Pitch_bend_c, 5, 10922
7, 87581, Pitch_bend_c, 5, 10786
7, 87582, Pitch_bend_c, 5, 10649
7, 87583, Pitch_bend_c, 5, 10513
7, 87584, Pitch_bend_c, 5, 10376
7, 87585, Pitch_bend_c, 5, 10240
7, 87586, Pitch_bend_c, 5, 10103
7, 87587, Pitch_bend_c, 5, 9966
7, 87588, Pitch_bend_c, 5, 9830
7, 87589, Pitch_bend_c, 5, 9693
7, 87590, Pitch_bend_c, 5, 9557
7, 87591, Pitch_bend_c, 5, 9420
7, 87592, Pitch_bend_c, 5, 9284
7, 87593, Pitch_bend_c, 5, 9147
7, 87594, Pitch_bend_c, 5, 9011
7, 87595, Pitch_bend_c, 5, 8874
7, 87596, Pitch_bend_c, 5, 8738
7, 87597, Pitch_bend_c, 5, 8601
7, 87598, Pitch_bend_c, 5, 8465
7, 87599, Pitch_bend_c, 5, 8328
7, 87600, Pitch_bend_c, 5, 8192
7, 87601, Pitch_bend_c, 5, 8329
7, 87602, Pitch_bend_c, 5, 8466
7, 87603, Pitch_bend_c, 5, 8602
7, 87604, Pitch_bend_c, 5, 8739
7, 87605, Pitch_bend_c, 5, 8875
7, 87606, Pitch_bend_c, 5, 9012
7, 87607, Pitch_bend_c, 5, 9148
7, 87608, Pitch_bend_c, 5, 9285
7, 87609, Pitch_bend_c, 5, 9421
7, 87610, Pitch_bend_c, 5, 9558
7, 87611, Pitch_bend_c, 5, 9694
7, 87612, Pitch_bend_c, 5, 9831
7, 87613, Pitch_bend_c, 5, 9967
7, 87614, Pitch_bend_c, 5, 10104
7, 87615, Pitch_bend_c, 5, 10240
7, 87616, Pitch_bend_c, 5, 10377
7, 87617, Pitch_bend_c, 5, 10514
7, 87618, Pitch_bend_c, 5, 10650
7, 87619, Pitch_bend_c, 5, 10787
7, 87620, Pitch_bend_c, 5, 10923
7, 87621, Pitch_bend_c, 5, 11060
7, 87622, Pitch_bend_c, 5, 11196
7, 87623, Pitch_bend_c, 5, 11333
7, 87624, Pitch_bend_c, 5, 11469
7, 87625, Pitch_bend_c, 5, 11606
7, 87626, Pitch_bend_c, 5, 11742
7, 87627, Pitch_bend_c, 5, 11879
7, 87628, Pitch_bend_c, 5, 12015
7, 87629, Pitch_bend_c, 5, 12152
7, 87630, Pitch_bend_c, 5, 12288
7, 87631, Pitch_bend_c, 5, 12151
7, 87632, Pitch_bend_c, 5, 12014
7, 87633, Pitch_bend_c, 5, 11878
7, 87634, Pitch_bend_c, 5, 11741
7, 87635, Pitch_bend_c, 5, 11605
7, 87636, Pitch_bend_c, 5, 11468
7, 87637, Pitch_bend_c, 5, 11332
7, 87638, Pitch_bend_c, 5, 11195
7, 87639, Pitch_bend_c, 5, 11059
7, 87640, Pitch_bend_c, 5, 10922
7, 87641, Pitch_bend_c, 5, 10786
7, 87642, Pitch_bend_c, 5, 10649
7, 87643, Pitch_bend_c, 5, 10513
7, 87644, Pitch_bend_c, 5, 10376
7, 87645, Pitch_bend_c, 5, 10240
7, 87646, Pitch_bend_c, 5, 10103
7, 87647, Pitch_bend_c, 5, 9966
7, 87648, Pitch_bend_c, 5, 9830
7, 87649, Pitch_bend_c, 5, 9693
7, 87650, Pitch_bend_c, 5, 9557
7, 87651, Pitch_bend_c, 5, 9420
7, 87652, Pitch_bend_c, 5, 9284
7, 87653, Pitch_bend_c, 5, 9147
7, 87654, Pitch_bend_c, 5, 9011
7, 87655, Pitch_bend_c, 5, 8874
7, 87656, Pitch_bend_c, 5, 8738
7, 87657, Pitch_bend_c, 5, 8601
7, 87658, Pitch_bend_c, 5, 8465
7, 87659, Pitch_bend_c, 5, 8328
7, 87660, Pitch_bend_c, 5, 8192
7, 87661, Pitch_bend_c, 5, 8329
7, 87662, Pitch_bend_c, 5, 8466
7, 87663, Pitch_bend_c, 5, 8602
7, 87664, Pitch_bend_c, 5, 8739
7, 87665, Pitch_bend_c, 5, 8875
7, 87666, Pitch_bend_c, 5, 9012
7, 87667, Pitch_bend_c, 5, 9148
7, 87668, Pitch_bend_c, 5, 9285
7, 87669, Pitch_bend_c, 5, 9421
7, 87670, Pitch_bend_c, 5, 9558
7, 87671, Pitch_bend_c, 5, 9694
7, 87672, Pitch_bend_c, 5, 9831
7, 87673, Pitch_bend_c, 5, 9967
7, 87674, Pitch_bend_c, 5, 10104
7, 87675, Pitch_bend_c, 5, 10240
7, 87676, Pitch_bend_c, 5, 10377
7, 87677, Pitch_bend_c, 5, 10514
7, 87678, Pitch_bend_c, 5, 10650
7, 87679, Pitch_bend_c, 5, 10787
7, 87680, Pitch_bend_c, 5, 10923
7, 87681, Pitch_bend_c, 5, 11060
7, 87682, Pitch_bend_c, 5, 11196
7, 87683, Pitch_bend_c, 5, 11333
7, 87684, Pitch_bend_c, 5, 11469
7, 87685, Pitch_bend_c, 5, 11606
7, 87686, Pitch_bend_c, 5, 11742
7, 87687, Pitch_bend_c, 5, 11879
7, 87688, Pitch_bend_c, 5, 12015
7, 87689, Pitch_bend_c, 5, 12152
7, 87690, Pitch_bend_c, 5, 12288
7, 87691, Pitch_bend_c, 5, 12151
7, 87692, Pitch_bend_c, 5, 12014
7, 87693, Pitch_bend_c, 5, 11878
7, 87694, Pitch_bend_c, 5, 11741
7, 87695, Pitch_bend_c, 5, 11605
7, 87696, Pitch_bend_c, 5, 11468
7, 87697, Pitch_bend_c, 5, 11332
7, 87698, Pitch_bend_c, 5, 11195
7, 87699, Pitch_bend_c, 5, 11059
7, 87700, Pitch_bend_c, 5, 10922
7, 87701, Pitch_bend_c, 5, 10786
7, 87702, Pitch_bend_c, 5, 10649
7, 87703, Pitch_bend_c, 5, 10513
7, 87704, Pitch_bend_c, 5, 10376
7, 87705, Pitch_bend_c, 5, 10240
7, 87706, Pitch_bend_c, 5, 10103
7, 87707, Pitch_bend_c, 5, 9966
7, 87708, Pitch_bend_c, 5, 9830
7, 87709, Pitch_bend_c, 5, 9693
7, 87710, Pitch_bend_c, 5, 9557
7, 87711, Pitch_bend_c, 5, 9420
7, 87712, Pitch_bend_c, 5, 9284
7, 87713, Pitch_bend_c, 5, 9147
7, 87714, Pitch_bend_c, 5, 9011
7, 87715, Pitch_bend_c, 5, 8874
7, 87716, Pitch_bend_c, 5, 8738
7, 87717, Pitch_bend_c, 5, 8601
7, 87718, Pitch_bend_c, 5, 8465
7, 87719, Pitch_bend_c, 5, 8328
7, 87720, Control_c, 5, 1, 0
7, 87720, Pitch_bend_c, 5, 8192
7, 87721, Control_c, 5, 1, 7
7, 87722, Control_c, 5, 1, 13
7, 87723, Control_c, 5, 1, 20
7, 87724, Control_c, 5, 1, 26
7, 87725, Control_c, 5, 1, 32
7, 87726, Control_c, 5, 1, 39
7, 87727, Control_c, 5, 1, 45
7, 87728, Control_c, 5, 1, 52
7, 87729, Control_c, 5, 1, 58
7, 87730, Control_c, 5, 1, 64
7, 87839, Control_c, 5, 1, 0
7, 87840, Note_on_c, 5, 52, 0
7, 87840, Note_on_c, 5, 48, 0
7, 87840, Note_on_c, 5, 48, 127
7, 87840, Note_on_c, 5, 52, 127
7, 87841, Pitch_bend_c, 5, 8329
7, 87842, Pitch_bend_c, 5, 8466
7, 87843, Pitch_bend_c, 5, 8602
7, 87844, Pitch_bend_c, 5, 8739
7, 87845, Pitch_bend_c, 5, 8875
7, 87846, Pitch_bend_c, 5, 9012
7, 87847, Pitch_bend_c, 5, 9148
7, 87848, Pitch_bend_c, 5, 9285
7, 87849, Pitch_bend_c, 5, 9421
7, 87850, Pitch_bend_c, 5, 9558
7, 87851, Pitch_bend_c, 5, 9694
7, 87852, Pitch_bend_c, 5, 9831
7, 87853, Pitch_bend_c, 5, 9967
7, 87854, Pitch_bend_c, 5, 10104
7, 87855, Pitch_bend_c, 5, 10240
7, 87856, Pitch_bend_c, 5, 10377
7, 87857, Pitch_bend_c, 5, 10514
7, 87858, Pitch_bend_c, 5, 10650
7, 87859, Pitch_bend_c, 5, 10787
7, 87860, Pitch_bend_c, 5, 10923
7, 87861, Pitch_bend_c, 5, 11060
7, 87862, Pitch_bend_c, 5, 11196
7, 87863, Pitch_bend_c, 5, 11333
7, 87864, Pitch_bend_c, 5, 11469
7, 87865, Pitch_bend_c, 5, 11606
7, 87866, Pitch_bend_c, 5, 11742
7, 87867, Pitch_bend_c, 5, 11879
7, 87868, Pitch_bend_c, 5, 12015
7, 87869, Pitch_bend_c, 5, 12152
7, 87870, Pitch_bend_c, 5, 12288
7, 87871, Pitch_bend_c, 5, 12151
7, 87872, Pitch_bend_c, 5, 12014
7, 87873, Pitch_bend_c, 5, 11878
7, 87874, Pitch_bend_c, 5, 11741
7, 87875, Pitch_bend_c, 5, 11605
7, 87876, Pitch_bend_c, 5, 11468
7, 87877, Pitch_bend_c, 5, 11332
7, 87878, Pitch_bend_c, 5, 11195
7, 87879, Pitch_bend_c, 5, 11059
7, 87880, Pitch_bend_c, 5, 10922
7, 87881, Pitch_bend_c, 5, 10786
7, 87882, Pitch_bend_c, 5, 10649
7, 87883, Pitch_bend_c, 5, 10513
7, 87884, Pitch_bend_c, 5, 10376
7, 87885, Pitch_bend_c, 5, 10240
7, 87886, Pitch_bend_c, 5, 10103
7, 87887, Pitch_bend_c, 5, 9966
7, 87888, Pitch_bend_c, 5, 9830
7, 87889, Pitch_bend_c, 5, 9693
7, 87890, Pitch_bend_c, 5, 9557
7, 87891, Pitch_bend_c, 5, 9420
7, 87892, Pitch_bend_c, 5, 9284
7, 87893, Pitch_bend_c, 5, 9147
7, 87894, Pitch_bend_c, 5, 9011
7, 87895, Pitch_bend_c, 5, 8874
7, 87896, Pitch_bend_c, 5, 8738
7, 87897, Pitch_bend_c, 5, 8601
7, 87898, Pitch_bend_c, 5, 8465
7, 87899, Pitch_bend_c, 5, 8328
7, 87900, Pitch_bend_c, 5, 8192
7, 87901, Pitch_bend_c, 5, 8329
7, 87902, Pitch_bend_c, 5, 8466
7, 87903, Pitch_bend_c, 5, 8602
7, 87904, Pitch_bend_c, 5, 8739
7, 87905, Pitch_bend_c, 5, 8875
7, 87906, Pitch_bend_c, 5, 9012
7, 87907, Pitch_bend_c, 5, 9148
7, 87908, Pitch_bend_c, 5, 9285
7, 87909, Pitch_bend_c, 5, 9421
7, 87910, Pitch_bend_c, 5, 9558
7, 87911, Pitch_bend_c, 5, 9694
7, 87912, Pitch_bend_c, 5, 9831
7, 87913, Pitch_bend_c, 5, 9967
7, 87914, Pitch_bend_c, 5, 10104
7, 87915, Pitch_bend_c, 5, 10240
7, 87916, Pitch_bend_c, 5, 10377
7, 87917, Pitch_bend_c, 5, 10514
7, 87918, Pitch_bend_c, 5, 10650
7, 87919, Pitch_bend_c, 5, 10787
7, 87920, Pitch_bend_c, 5, 10923
7, 87921, Pitch_bend_c, 5, 11060
7, 87922, Pitch_bend_c, 5, 11196
7, 87923, Pitch_bend_c, 5, 11333
7, 87924, Pitch_bend_c, 5, 11469
7, 87925, Pitch_bend_c, 5, 11606
7, 87926, Pitch_bend_c, 5, 11742
7, 87927, Pitch_bend_c, 5, 11879
7, 87928, Pitch_bend_c, 5, 12015
7, 87929, Pitch_bend_c, 5, 12152
7, 87930, Pitch_bend_c, 5, 12288
7, 87931, Pitch_bend_c, 5, 12151
7, 87932, Pitch_bend_c, 5, 12014
7, 87933, Pitch_bend_c, 5, 11878
7, 87934, Pitch_bend_c, 5, 11741
7, 87935, Pitch_bend_c, 5, 11605
7, 87936, Pitch_bend_c, 5, 11468
7, 87937, Pitch_bend_c, 5, 11332
7, 87938, Pitch_bend_c, 5, 11195
7, 87939, Pitch_bend_c, 5, 11059
7, 87940, Pitch_bend_c, 5, 10922
7, 87941, Pitch_bend_c, 5, 10786
7, 87942, Pitch_bend_c, 5, 10649
7, 87943, Pitch_bend_c, 5, 10513
7, 87944, Pitch_bend_c, 5, 10376
7, 87945, Pitch_bend_c, 5, 10240
7, 87946, Pitch_bend_c, 5, 10103
7, 87947, Pitch_bend_c, 5, 9966
7, 87948, Pitch_bend_c, 5, 9830
7, 87949, Pitch_bend_c, 5, 9693
7, 87950, Pitch_bend_c, 5, 9557
7, 87951, Pitch_bend_c, 5, 9420
7, 87952, Pitch_bend_c, 5, 9284
7, 87953, Pitch_bend_c, 5, 9147
7, 87954, Pitch_bend_c, 5, 9011
7, 87955, Pitch_bend_c, 5, 8874
7, 87956, Pitch_bend_c, 5, 8738
7, 87957, Pitch_bend_c, 5, 8601
7, 87958, Pitch_bend_c, 5, 8465
7, 87959, Pitch_bend_c, 5, 8328
7, 87960, Pitch_bend_c, 5, 8192
7, 88080, Pitch_bend_c, 5, 8192
7, 88081, Pitch_bend_c, 5, 8261
7, 88082, Pitch_bend_c, 5, 8329
7, 88083, Pitch_bend_c, 5, 8397
7, 88084, Pitch_bend_c, 5, 8466
7, 88085, Pitch_bend_c, 5, 8534
7, 88086, Pitch_bend_c, 5, 8602
7, 88087, Pitch_bend_c, 5, 8670
7, 88088, Pitch_bend_c, 5, 8739
7, 88089, Pitch_bend_c, 5, 8807
7, 88090, Pitch_bend_c, 5, 8875
7, 88091, Pitch_bend_c, 5, 8943
7, 88092, Pitch_bend_c, 5, 9012
7, 88093, Pitch_bend_c, 5, 9080
7, 88094, Pitch_bend_c, 5, 9148
7, 88095, Pitch_bend_c, 5, 9216
7, 88096, Pitch_bend_c, 5, 9285
7, 88097, Pitch_bend_c, 5, 9353
7, 88098, Pitch_bend_c, 5, 9421
7, 88099, Pitch_bend_c, 5, 9490
7, 88100, Pitch_bend_c, 5, 9558
7, 88101, Pitch_bend_c, 5, 9626
7, 88102, Pitch_bend_c, 5, 9694
7, 88103, Pitch_bend_c, 5, 9763
7, 88104, Pitch_bend_c, 5, 9831
7, 88105, Pitch_bend_c, 5, 9899
7, 88106, Pitch_bend_c, 5, 9967
7, 88107, Pitch_bend_c, 5, 10036
7, 88108, Pitch_bend_c, 5, 10104
7, 88109, Pitch_bend_c, 5, 10172
7, 88110, Pitch_bend_c, 5, 10240
7, 88111, Pitch_bend_c, 5, 10309
7, 88112, Pitch_bend_c, 5, 10377
7, 88113, Pitch_bend_c, 5, 10445
7, 88114, Pitch_bend_c, 5, 10514
7, 88115, Pitch_bend_c, 5, 10582
7, 88116, Pitch_bend_c, 5, 10650
7, 88117, Pitch_bend_c, 5, 10718
7, 88118, Pitch_bend_c, 5, 10787
7, 88119, Pitch_bend_c, 5, 10855
7, 88120, Pitch_bend_c, 5, 10923
7, 88121, Pitch_bend_c, 5, 10991
7, 88122, Pitch_bend_c, 5, 11060
7, 88123, Pitch_bend_c, 5, 11128
7, 88124, Pitch_bend_c, 5, 11196
7, 88125, Pitch_bend_c, 5, 11264
7, 88126, Pitch_bend_c, 5, 11333
7, 88127, Pitch_bend_c, 5, 11401
7, 88128, Pitch_bend_c, 5, 11469
7, 88129, Pitch_bend_c, 5, 11538
7, 88130, Pitch_bend_c, 5, 11606
7, 88131, Pitch_bend_c, 5, 11674
7, 88132, Pitch_bend_c, 5, 11742
7, 88133, Pitch_bend_c, 5, 11811
7, 88134, Pitch_bend_c, 5, 11879
7, 88135, Pitch_bend_c, 5, 11947
7, 88136, Pitch_bend_c, 5, 12015
7, 88137, Pitch_bend_c, 5, 12084
7, 88138, Pitch_bend_c, 5, 12152
7, 88139, Pitch_bend_c, 5, 12220
7, 88140, Pitch_bend_c, 5, 12288
7, 88141, Pitch_bend_c, 5, 12219
7, 88142, Pitch_bend_c, 5, 12151
7, 88143, Pitch_bend_c, 5, 12083
7, 88144, Pitch_bend_c, 5, 12014
7, 88145, Pitch_bend_c, 5, 11946
7, 88146, Pitch_bend_c, 5, 11878
7, 88147, Pitch_bend_c, 5, 11810
7, 88148, Pitch_bend_c, 5, 11741
7, 88149, Pitch_bend_c, 5, 11673
7, 88150, Pitch_bend_c, 5, 11605
7, 88151, Pitch_bend_c, 5, 11537
7, 88152, Pitch_bend_c, 5, 11468
7, 88153, Pitch_bend_c, 5, 11400
7, 88154, Pitch_bend_c, 5, 11332
7, 88155, Pitch_bend_c, 5, 11264
7, 88156, Pitch_bend_c, 5, 11195
7, 88157, Pitch_bend_c, 5, 11127
7, 88158, Pitch_bend_c, 5, 11059
7, 88159, Pitch_bend_c, 5, 10990
7, 88160, Pitch_bend_c, 5, 10922
7, 88161, Pitch_bend_c, 5, 10854
7, 88162, Pitch_bend_c, 5, 10786
7, 88163, Pitch_bend_c, 5, 10717
7, 88164, Pitch_bend_c, 5, 10649
7, 88165, Pitch_bend_c, 5, 10581
7, 88166, Pitch_bend_c, 5, 10513
7, 88167, Pitch_bend_c, 5, 10444
7, 88168, Pitch_bend_c, 5, 10376
7, 88169, Pitch_bend_c, 5, 10308
7, 88170, Pitch_bend_c, 5, 10240
7, 88171, Pitch_bend_c, 5, 10171
7, 88172, Pitch_bend_c, 5, 10103
7, 88173, Pitch_bend_c, 5, 10035
7, 88174, Pitch_bend_c, 5, 9966
7, 88175, Pitch_bend_c, 5, 9898
7, 88176, Pitch_bend_c, 5, 9830
7, 88177, Pitch_bend_c, 5, 9762
7, 88178, Pitch_bend_c, 5, 9693
7, 88179, Pitch_bend_c, 5, 9625
7, 88180, Pitch_bend_c, 5, 9557
7, 88181, Pitch_bend_c, 5, 9489
7, 88182, Pitch_bend_c, 5, 9420
7, 88183, Pitch_bend_c, 5, 9352
7, 88184, Pitch_bend_c, 5, 9284
7, 88185, Pitch_bend_c, 5, 9216
7, 88186, Pitch_bend_c, 5, 9147
7, 88187, Pitch_bend_c, 5, 9079
7, 88188, Pitch_bend_c, 5, 9011
7, 88189, Pitch_bend_c, 5, 8942
7, 88190, Pitch_bend_c, 5, 8874
7, 88191, Pitch_bend_c, 5, 8806
7, 88192, Pitch_bend_c, 5, 8738
7, 88193, Pitch_bend_c, 5, 8669
7, 88194, Pitch_bend_c, 5, 8601
7, 88195, Pitch_bend_c, 5, 8533
7, 88195, Note_on_c, 5, 48, 75
7, 88195, Note_on_c, 5, 52, 75
7, 88196, Pitch_bend_c, 5, 8465
7, 88197, Pitch_bend_c, 5, 8396
7, 88198, Pitch_bend_c, 5, 8328
7, 88199, Pitch_bend_c, 5, 8260
7, 88200, Note_on_c, 5, 48, 0
7, 88200, Note_on_c, 5, 52, 0
7, 88200, Pitch_bend_c, 5, 8192
7, 88200, Note_on_c, 5, 52, 127
7, 88200, Note_on_c, 5, 48, 127
7, 88240, Note_on_c, 5, 48, 0
7, 88240, Note_on_c, 5, 52, 0
7, 88240, Note_on_c, 5, 76, 0
7, 88240, Note_on_c, 5, 72, 0
7, 88240, Note_on_c, 5, 50, 127
7, 88240, Note_on_c, 5, 46, 127
7, 88280, Note_on_c, 5, 50, 0
7, 88280, Note_on_c, 5, 46, 0
7, 88280, Note_on_c, 5, 43, 127
7, 88320, Note_on_c, 5, 43, 0
7, 88320, Note_on_c, 5, 50, 127
7, 88320, Note_on_c, 5, 47, 127
7, 88440, Note_on_c, 5, 50, 0
7, 88440, Note_on_c, 5, 47, 0
7, 88440, Note_on_c, 5, 43, 127
7, 88500, Note_on_c, 5, 43, 0
7, 88500, Note_on_c, 5, 43, 127
7, 88560, Note_on_c, 5, 43, 0
7, 88560, Pitch_bend_c, 5, 8192
7, 88560, Note_on_c, 5, 45, 127
7, 88560, Note_on_c, 5, 50, 127
7, 88560, Pitch_bend_c, 5, 8192
7, 88561, Pitch_bend_c, 5, 8602
7, 88561, Pitch_bend_c, 5, 9012
7, 88562, Pitch_bend_c, 5, 9012
7, 88562, Pitch_bend_c, 5, 9831
7, 88563, Pitch_bend_c, 5, 9421
7, 88563, Pitch_bend_c, 5, 10650
7, 88564, Pitch_bend_c, 5, 9831
7, 88564, Pitch_bend_c, 5, 11469
7, 88565, Pitch_bend_c, 5, 10240
7, 88565, Pitch_bend_c, 5, 12288
7, 88566, Pitch_bend_c, 5, 10650
7, 88566, Pitch_bend_c, 5, 13107
7, 88567, Pitch_bend_c, 5, 11060
7, 88567, Pitch_bend_c, 5, 13926
7, 88568, Pitch_bend_c, 5, 11469
7, 88568, Pitch_bend_c, 5, 14745
7, 88569, Pitch_bend_c, 5, 11879
7, 88569, Pitch_bend_c, 5, 15564
7, 88570, Pitch_bend_c, 5, 12288
7, 88570, Pitch_bend_c, 5, 16383
7, 88679, Pitch_bend_c, 5, 8192
7, 88680, Note_on_c, 5, 45, 0
7, 88680, Note_on_c, 5, 50, 0
7, 88680, Pitch_bend_c, 5, 8192
7, 88680, Note_on_c, 5, 43, 127
7, 88740, Note_on_c, 5, 43, 0
7, 88740, Note_on_c, 5, 43, 127
7, 88800, Note_on_c, 5, 43, 0
7, 88800, Pitch_bend_c, 5, 8192
7, 88800, Note_on_c, 5, 45, 127
7, 88800, Note_on_c, 5, 50, 127
7, 88800, Pitch_bend_c, 5, 8192
7, 88801, Pitch_bend_c, 5, 8602
7, 88801, Pitch_bend_c, 5, 9012
7, 88802, Pitch_bend_c, 5, 9012
7, 88802, Pitch_bend_c, 5, 9831
7, 88803, Pitch_bend_c, 5, 9421
7, 88803, Pitch_bend_c, 5, 10650
7, 88804, Pitch_bend_c, 5, 9831
7, 88804, Pitch_bend_c, 5, 11469
7, 88805, Pitch_bend_c, 5, 10240
7, 88805, Pitch_bend_c, 5, 12288
7, 88806, Pitch_bend_c, 5, 10650
7, 88806, Pitch_bend_c, 5, 13107
7, 88807, Pitch_bend_c, 5, 11060
7, 88807, Pitch_bend_c, 5, 13926
7, 88808, Pitch_bend_c, 5, 11469
7, 88808, Pitch_bend_c, 5, 14745
7, 88809, Pitch_bend_c, 5, 11879
7, 88809, Pitch_bend_c, 5, 15564
7, 88810, Pitch_bend_c, 5, 12288
7, 88810, Pitch_bend_c, 5, 16383
7, 88919, Pitch_bend_c, 5, 8192
7, 88920, Note_on_c, 5, 45, 0
7, 88920, Note_on_c, 5, 50, 0
7, 88920, Pitch_bend_c, 5, 8192
7, 88920, Note_on_c, 5, 43, 127
7, 88980, Note_on_c, 5, 43, 0
7, 88980, Note_on_c, 5, 52, 127
7, 88980, Note_on_c, 5, 48, 127
7, 89100, Note_on_c, 5, 52, 0
7, 89100, Note_on_c, 5, 48, 0
7, 89100, Note_on_c, 5, 52, 127
7, 89100, Note_on_c, 5, 48, 127
7, 89160, Note_on_c, 5, 52, 0
7, 89160, Note_on_c, 5, 48, 0
7, 89160, Pitch_bend_c, 5, 8192
7, 89160, Pitch_bend_c, 5, 8192
7, 89160, Note_on_c, 5, 50, 127
7, 89160, Note_on_c, 5, 47, 127
7, 89161, Pitch_bend_c, 5, 9012
7, 89161, Pitch_bend_c, 5, 8602
7, 89162, Pitch_bend_c, 5, 9831
7, 89162, Pitch_bend_c, 5, 9012
7, 89163, Pitch_bend_c, 5, 10650
7, 89163, Pitch_bend_c, 5, 9421
7, 89164, Pitch_bend_c, 5, 11469
7, 89164, Pitch_bend_c, 5, 9831
7, 89165, Pitch_bend_c, 5, 12288
7, 89165, Pitch_bend_c, 5, 10240
7, 89166, Pitch_bend_c, 5, 13107
7, 89166, Pitch_bend_c, 5, 10650
7, 89167, Pitch_bend_c, 5, 13926
7, 89167, Pitch_bend_c, 5, 11060
7, 89168, Pitch_bend_c, 5, 14745
7, 89168, Pitch_bend_c, 5, 11469
7, 89169, Pitch_bend_c, 5, 15564
7, 89169, Pitch_bend_c, 5, 11879
7, 89170, Pitch_bend_c, 5, 16383
7, 89170, Pitch_bend_c, 5, 12288
7, 89339, Pitch_bend_c, 5, 8192
7, 89340, Note_on_c, 5, 50, 0
7, 89340, Note_on_c, 5, 47, 0
7, 89340, Pitch_bend_c, 5, 8192
7, 89340, Note_on_c, 5, 38, 127
7, 89400, Note_on_c, 5, 38, 0
7, 89400, Pitch_bend_c, 5, 8192
7, 89400, Note_on_c, 5, 53, 127
7, 89401, Pitch_bend_c, 5, 9012
7, 89402, Pitch_bend_c, 5, 9831
7, 89403, Pitch_bend_c, 5, 10650
7, 89404, Pitch_bend_c, 5, 11469
7, 89405, Pitch_bend_c, 5, 12288
7, 89406, Pitch_bend_c, 5, 13107
7, 89407, Pitch_bend_c, 5, 13926
7, 89408, Pitch_bend_c, 5, 14745
7, 89409, Pitch_bend_c, 5, 15564
7, 89410, Pitch_bend_c, 5, 16383
7, 89460, Note_on_c, 5, 53, 0
7, 89460, Pitch_bend_c, 5, 8192
7, 89460, Note_on_c, 5, 55, 127
7, 89520, Note_on_c, 5, 55, 0
7, 89520, Pitch_bend_c, 5, 8192
7, 89520, Note_on_c, 5, 53, 127
7, 89521, Pitch_bend_c, 5, 9012
7, 89522, Pitch_bend_c, 5, 9831
7, 89523, Pitch_bend_c, 5, 10650
7, 89524, Pitch_bend_c, 5, 11469
7, 89525, Pitch_bend_c, 5, 12288
7, 89526, Pitch_bend_c, 5, 13107
7, 89527, Pitch_bend_c, 5, 13926
7, 89528, Pitch_bend_c, 5, 14745
7, 89529, Pitch_bend_c, 5, 15564
7, 89530, Pitch_bend_c, 5, 16383
7, 89580, Note_on_c, 5, 53, 0
7, 89580, Pitch_bend_c, 5, 8192
7, 89580, Note_on_c, 5, 55, 127
7, 89640, Note_on_c, 5, 55, 0
7, 89640, Pitch_bend_c, 5, 8192
7, 89640, Note_on_c, 5, 53, 127
7, 89641, Pitch_bend_c, 5, 9012
7, 89642, Pitch_bend_c, 5, 9831
7, 89643, Pitch_bend_c, 5, 10650
7, 89644, Pitch_bend_c, 5, 11469
7, 89645, Pitch_bend_c, 5, 12288
7, 89646, Pitch_bend_c, 5, 13107
7, 89647, Pitch_bend_c, 5, 13926
7, 89648, Pitch_bend_c, 5, 14745
7, 89649, Pitch_bend_c, 5, 15564
7, 89650, Pitch_bend_c, 5, 16383
7, 89700, Note_on_c, 5, 53, 0
7, 89700, Pitch_bend_c, 5, 8192
7, 89700, Note_on_c, 5, 55, 127
7, 89760, Note_on_c, 5, 55, 0
7, 89760, Pitch_bend_c, 5, 8192
7, 89760, Note_on_c, 5, 53, 127
7, 89761, Pitch_bend_c, 5, 9012
7, 89762, Pitch_bend_c, 5, 9831
7, 89763, Pitch_bend_c, 5, 10650
7, 89764, Pitch_bend_c, 5, 11469
7, 89765, Pitch_bend_c, 5, 12288
7, 89766, Pitch_bend_c, 5, 13107
7, 89767, Pitch_bend_c, 5, 13926
7, 89768, Pitch_bend_c, 5, 14745
7, 89769, Pitch_bend_c, 5, 15564
7, 89770, Pitch_bend_c, 5, 16383
7, 89820, Note_on_c, 5, 53, 0
7, 89820, Pitch_bend_c, 5, 8192
7, 89820, Note_on_c, 5, 55, 127
7, 89880, Note_on_c, 5, 55, 0
7, 89880, Pitch_bend_c, 5, 8192
7, 89880, Note_on_c, 5, 53, 127
7, 89881, Pitch_bend_c, 5, 9012
7, 89882, Pitch_bend_c, 5, 9831
7, 89883, Pitch_bend_c, 5, 10650
7, 89884, Pitch_bend_c, 5, 11469
7, 89885, Pitch_bend_c, 5, 12288
7, 89886, Pitch_bend_c, 5, 13107
7, 89887, Pitch_bend_c, 5, 13926
7, 89888, Pitch_bend_c, 5, 14745
7, 89889, Pitch_bend_c, 5, 15564
7, 89890, Pitch_bend_c, 5, 16383
7, 89940, Note_on_c, 5, 53, 0
7, 89940, Pitch_bend_c, 5, 8192
7, 89940, Note_on_c, 5, 55, 127
7, 90000, Note_on_c, 5, 55, 0
7, 90000, Pitch_bend_c, 5, 8192
7, 90000, Note_on_c, 5, 53, 127
7, 90001, Pitch_bend_c, 5, 9012
7, 90002, Pitch_bend_c, 5, 9831
7, 90003, Pitch_bend_c, 5, 10650
7, 90004, Pitch_bend_c, 5, 11469
7, 90005, Pitch_bend_c, 5, 12288
7, 90006, Pitch_bend_c, 5, 13107
7, 90007, Pitch_bend_c, 5, 13926
7, 90008, Pitch_bend_c, 5, 14745
7, 90009, Pitch_bend_c, 5, 15564
7, 90010, Pitch_bend_c, 5, 16383
7, 90060, Note_on_c, 5, 53, 0
7, 90060, Pitch_bend_c, 5, 8192
7, 90060, Note_on_c, 5, 55, 127
7, 90120, Note_on_c, 5, 55, 0
7, 90120, Control_c, 5, 1, 0
7, 90120, Pitch_bend_c, 5, 8192
7, 90120, Note_on_c, 5, 53, 127
7, 90121, Control_c, 5, 1, 7
7, 90121, Pitch_bend_c, 5, 9012
7, 90122, Control_c, 5, 1, 13
7, 90122, Pitch_bend_c, 5, 9831
7, 90123, Control_c, 5, 1, 20
7, 90123, Pitch_bend_c, 5, 10650
7, 90124, Control_c, 5, 1, 26
7, 90124, Pitch_bend_c, 5, 11469
7, 90125, Control_c, 5, 1, 32
7, 90125, Pitch_bend_c, 5, 12288
7, 90126, Control_c, 5, 1, 39
7, 90126, Pitch_bend_c, 5, 13107
7, 90127, Control_c, 5, 1, 45
7, 90127, Pitch_bend_c, 5, 13926
7, 90128, Control_c, 5, 1, 52
7, 90128, Pitch_bend_c, 5, 14745
7, 90129, Control_c, 5, 1, 58
7, 90129, Pitch_bend_c, 5, 15564
7, 90130, Control_c, 5, 1, 64
7, 90130, Pitch_bend_c, 5, 16383
7, 90359, Control_c, 5, 1, 0
7, 90360, Note_on_c, 5, 53, 0
7, 90360, Pitch_bend_c, 5, 8192
7, 90360, Note_on_c, 5, 19, 127
7, 90400, Note_on_c, 5, 19, 0
7, 90400, Note_on_c, 5, 19, 127
7, 90440, Note_on_c, 5, 19, 0
7, 90440, Note_on_c, 5, 19, 127
7, 90480, Note_on_c, 5, 19, 0
7, 90480, Note_on_c, 5, 19, 127
7, 90520, Note_on_c, 5, 19, 0
7, 90520, Note_on_c, 5, 19, 127
7, 90560, Note_on_c, 5, 19, 0
7, 90560, Note_on_c, 5, 19, 127
7, 90600, Note_on_c, 5, 19, 0
7, 90600, Note_on_c, 5, 19, 127
7, 90660, Note_on_c, 5, 19, 0
7, 90720, Note_on_c, 5, 19, 127
7, 90760, Note_on_c, 5, 19, 0
7, 90760, Note_on_c, 5, 19, 127
7, 90800, Note_on_c, 5, 19, 0
7, 90800, Note_on_c, 5, 19, 127
7, 90840, Note_on_c, 5, 19, 0
7, 90840, Note_on_c, 5, 19, 127
7, 90880, Note_on_c, 5, 19, 0
7, 90880, Note_on_c, 5, 19, 127
7, 90920, Note_on_c, 5, 19, 0
7, 90920, Note_on_c, 5, 19, 127
7, 90960, Note_on_c, 5, 19, 0
7, 90960, Note_on_c, 5, 18, 127
7, 91000, Note_on_c, 5, 18, 0
7, 91000, Note_on_c, 5, 18, 127
7, 91040, Note_on_c, 5, 18, 0
7, 91040, Note_on_c, 5, 18, 127
7, 91080, Note_on_c, 5, 18, 0
7, 91080, Note_on_c, 5, 18, 127
7, 91120, Note_on_c, 5, 18, 0
7, 91120, Note_on_c, 5, 18, 127
7, 91160, Note_on_c, 5, 18, 0
7, 91160, Note_on_c, 5, 18, 127
7, 91200, Note_on_c, 5, 18, 0
7, 91200, Note_on_c, 5, 16, 127
7, 91240, Note_on_c, 5, 16, 0
7, 91240, Note_on_c, 5, 16, 127
7, 91280, Note_on_c, 5, 16, 0
7, 91280, Note_on_c, 5, 16, 127
7, 91320, Note_on_c, 5, 16, 0
7, 91320, Note_on_c, 5, 16, 127
7, 91360, Note_on_c, 5, 16, 0
7, 91360, Note_on_c, 5, 16, 127
7, 91400, Note_on_c, 5, 16, 0
7, 91400, Note_on_c, 5, 16, 127
7, 91440, Note_on_c, 5, 16, 0
7, 91440, Note_on_c, 5, 16, 127
7, 91480, Note_on_c, 5, 16, 0
7, 91480, Note_on_c, 5, 16, 127
7, 91520, Note_on_c, 5, 16, 0
7, 91520, Note_on_c, 5, 16, 127
7, 91560, Note_on_c, 5, 16, 0
7, 91560, Note_on_c, 5, 28, 127
7, 91560, Note_on_c, 5, 23, 127
7, 91680, Note_on_c, 5, 28, 0
7, 91680, Note_on_c, 5, 23, 0
7, 91680, Note_on_c, 5, 16, 127
7, 91720, Note_on_c, 5, 16, 0
7, 91720, Note_on_c, 5, 16, 127
7, 91760, Note_on_c, 5, 16, 0
7, 91760, Note_on_c, 5, 16, 127
7, 91800, Note_on_c, 5, 16, 0
7, 91800, Note_on_c, 5, 16, 127
7, 91840, Note_on_c, 5, 16, 0
7, 91840, Note_on_c, 5, 16, 127
7, 91880, Note_on_c, 5, 16, 0
7, 91880, Note_on_c, 5, 16, 127
7, 91920, Note_on_c, 5, 16, 0
7, 91920, Note_on_c, 5, 28, 127
7, 91920, Note_on_c, 5, 23, 127
7, 92040, Note_on_c, 5, 28, 0
7, 92040, Note_on_c, 5, 23, 0
7, 92040, Note_on_c, 5, 16, 127
7, 92080, Note_on_c, 5, 16, 0
7, 92080, Note_on_c, 5, 16, 127
7, 92120, Note_on_c, 5, 16, 0
7, 92120, Note_on_c, 5, 16, 127
7, 92160, Note_on_c, 5, 16, 0
7, 92160, Note_on_c, 5, 29, 127
7, 92160, Note_on_c, 5, 24, 127
7, 92280, Note_on_c, 5, 29, 0
7, 92280, Note_on_c, 5, 24, 0
7, 92280, Note_on_c, 5, 16, 127
7, 92320, Note_on_c, 5, 16, 0
7, 92320, Note_on_c, 5, 16, 127
7, 92360, Note_on_c, 5, 16, 0
7, 92360, Note_on_c, 5, 16, 127
7, 92400, Note_on_c, 5, 16, 0
7, 92400, Note_on_c, 5, 16, 127
7, 92440, Note_on_c, 5, 16, 0
7, 92440, Note_on_c, 5, 16, 127
7, 92480, Note_on_c, 5, 16, 0
7, 92480, Note_on_c, 5, 16, 127
7, 92520, Note_on_c, 5, 16, 0
7, 92520, Note_on_c, 5, 28, 127
7, 92520, Note_on_c, 5, 23, 127
7, 92640, Note_on_c, 5, 28, 0
7, 92640, Note_on_c, 5, 23, 0
7, 92640, Note_on_c, 5, 16, 127
7, 92680, Note_on_c, 5, 16, 0
7, 92680, Note_on_c, 5, 16, 127
7, 92720, Note_on_c, 5, 16, 0
7, 92720, Note_on_c, 5, 16, 127
7, 92760, Note_on_c, 5, 16, 0
7, 92760, Note_on_c, 5, 16, 127
7, 92800, Note_on_c, 5, 16, 0
7, 92800, Note_on_c, 5, 16, 127
7, 92840, Note_on_c, 5, 16, 0
7, 92840, Note_on_c, 5, 16, 127
7, 92880, Note_on_c, 5, 16, 0
7, 92880, Note_on_c, 5, 28, 127
7, 92880, Note_on_c, 5, 23, 127
7, 93000, Note_on_c, 5, 28, 0
7, 93000, Note_on_c, 5, 23, 0
7, 93000, Note_on_c, 5, 16, 127
7, 93040, Note_on_c, 5, 16, 0
7, 93040, Note_on_c, 5, 16, 127
7, 93080, Note_on_c, 5, 16, 0
7, 93080, Note_on_c, 5, 16, 127
7, 93120, Note_on_c, 5, 16, 0
7, 93120, Note_on_c, 5, 29, 127
7, 93120, Note_on_c, 5, 24, 127
7, 93240, Note_on_c, 5, 29, 0
7, 93240, Note_on_c, 5, 24, 0
7, 93240, Note_on_c, 5, 16, 127
7, 93280, Note_on_c, 5, 16, 0
7, 93280, Note_on_c, 5, 16, 127
7, 93320, Note_on_c, 5, 16, 0
7, 93320, Note_on_c, 5, 16, 127
7, 93360, Note_on_c, 5, 16, 0
7, 93360, Note_on_c, 5, 16, 127
7, 93400, Note_on_c, 5, 16, 0
7, 93400, Note_on_c, 5, 16, 127
7, 93440, Note_on_c, 5, 16, 0
7, 93440, Note_on_c, 5, 16, 127
7, 93480, Note_on_c, 5, 16, 0
7, 93480, Note_on_c, 5, 28, 127
7, 93480, Note_on_c, 5, 23, 127
7, 93600, Note_on_c, 5, 28, 0
7, 93600, Note_on_c, 5, 23, 0
7, 93600, Note_on_c, 5, 16, 127
7, 93640, Note_on_c, 5, 16, 0
7, 93640, Note_on_c, 5, 16, 127
7, 93680, Note_on_c, 5, 16, 0
7, 93680, Note_on_c, 5, 16, 127
7, 93720, Note_on_c, 5, 16, 0
7, 93720, Note_on_c, 5, 16, 127
7, 93760, Note_on_c, 5, 16, 0
7, 93760, Note_on_c, 5, 16, 127
7, 93800, Note_on_c, 5, 16, 0
7, 93800, Note_on_c, 5, 16, 127
7, 93840, Note_on_c, 5, 16, 0
7, 93840, Note_on_c, 5, 28, 127
7, 93840, Note_on_c, 5, 23, 127
7, 93960, Note_on_c, 5, 28, 0
7, 93960, Note_on_c, 5, 23, 0
7, 93960, Note_on_c, 5, 16, 127
7, 94000, Note_on_c, 5, 16, 0
7, 94000, Note_on_c, 5, 16, 127
7, 94040, Note_on_c, 5, 16, 0
7, 94040, Note_on_c, 5, 16, 127
7, 94080, Note_on_c, 5, 16, 0
7, 94080, Note_on_c, 5, 29, 127
7, 94080, Note_on_c, 5, 24, 127
7, 94200, Note_on_c, 5, 29, 0
7, 94200, Note_on_c, 5, 24, 0
7, 94200, Note_on_c, 5, 16, 127
7, 94240, Note_on_c, 5, 16, 0
7, 94240, Note_on_c, 5, 16, 127
7, 94280, Note_on_c, 5, 16, 0
7, 94280, Note_on_c, 5, 16, 127
7, 94320, Note_on_c, 5, 16, 0
7, 94320, Note_on_c, 5, 16, 127
7, 94360, Note_on_c, 5, 16, 0
7, 94360, Note_on_c, 5, 16, 127
7, 94400, Note_on_c, 5, 16, 0
7, 94400, Note_on_c, 5, 16, 127
7, 94440, Note_on_c, 5, 16, 0
7, 94440, Note_on_c, 5, 28, 127
7, 94440, Note_on_c, 5, 23, 127
7, 94560, Note_on_c, 5, 28, 0
7, 94560, Note_on_c, 5, 23, 0
7, 94560, Note_on_c, 5, 16, 127
7, 94600, Note_on_c, 5, 16, 0
7, 94600, Note_on_c, 5, 16, 127
7, 94640, Note_on_c, 5, 16, 0
7, 94640, Note_on_c, 5, 16, 127
7, 94680, Note_on_c, 5, 16, 0
7, 94680, Note_on_c, 5, 16, 127
7, 94720, Note_on_c, 5, 16, 0
7, 94720, Note_on_c, 5, 16, 127
7, 94760, Note_on_c, 5, 16, 0
7, 94760, Note_on_c, 5, 16, 127
7, 94800, Note_on_c, 5, 16, 0
7, 94800, Note_on_c, 5, 28, 127
7, 94800, Note_on_c, 5, 23, 127
7, 94920, Note_on_c, 5, 28, 0
7, 94920, Note_on_c, 5, 23, 0
7, 94920, Note_on_c, 5, 16, 127
7, 94960, Note_on_c, 5, 16, 0
7, 94960, Note_on_c, 5, 16, 127
7, 95000, Note_on_c, 5, 16, 0
7, 95000, Note_on_c, 5, 16, 127
7, 95040, Note_on_c, 5, 16, 0
7, 95040, Note_on_c, 5, 29, 127
7, 95040, Note_on_c, 5, 24, 127
7, 95160, Note_on_c, 5, 29, 0
7, 95160, Note_on_c, 5, 24, 0
7, 95160, Note_on_c, 5, 16, 127
7, 95200, Note_on_c, 5, 16, 0
7, 95200, Note_on_c, 5, 16, 127
7, 95240, Note_on_c, 5, 16, 0
7, 95240, Note_on_c, 5, 16, 127
7, 95280, Note_on_c, 5, 16, 0
7, 95280, Note_on_c, 5, 16, 127
7, 95320, Note_on_c, 5, 16, 0
7, 95320, Note_on_c, 5, 16, 127
7, 95360, Note_on_c, 5, 16, 0
7, 95360, Note_on_c, 5, 16, 127
7, 95400, Note_on_c, 5, 16, 0
7, 95400, Note_on_c, 5, 16, 127
7, 95460, Note_on_c, 5, 16, 0
7, 95520, Note_on_c, 5, 26, 127
7, 95560, Note_on_c, 5, 26, 0
7, 95560, Note_on_c, 5, 26, 127
7, 95600, Note_on_c, 5, 26, 0
7, 95600, Note_on_c, 5, 26, 127
7, 95640, Note_on_c, 5, 26, 0
7, 95640, Note_on_c, 5, 26, 127
7, 95680, Note_on_c, 5, 26, 0
7, 95680, Note_on_c, 5, 26, 127
7, 95720, Note_on_c, 5, 26, 0
7, 95720, Note_on_c, 5, 26, 127
7, 95760, Note_on_c, 5, 26, 0
7, 95760, Note_on_c, 5, 25, 127
7, 95800, Note_on_c, 5, 25, 0
7, 95800, Note_on_c, 5, 25, 127
7, 95840, Note_on_c, 5, 25, 0
7, 95840, Note_on_c, 5, 25, 127
7, 95880, Note_on_c, 5, 25, 0
7, 95880, Note_on_c, 5, 24, 127
7, 95920, Note_on_c, 5, 24, 0
7, 95920, Note_on_c, 5, 24, 127
7, 95960, Note_on_c, 5, 24, 0
7, 95960, Note_on_c, 5, 24, 127
7, 96000, Note_on_c, 5, 24, 0
7, 96000, Note_on_c, 5, 23, 127
7, 96040, Note_on_c, 5, 23, 0
7, 96040, Note_on_c, 5, 23, 127
7, 96080, Note_on_c, 5, 23, 0
7, 96080, Note_on_c, 5, 23, 127
7, 96120, Note_on_c, 5, 23, 0
7, 96120, End_track
8, 0, Start_track
8, 0, Sequencer_specific, 5, 5, 15, 9, 8, 64
8, 0, Sequencer_specific, 15, 5, 15, 6, 71, 101, 110, 101, 114, 97, 108, 32, 77, 73, 68, 73
8, 0, Program_c, 0, 56
8, 0, MIDI_port, 0
8, 0, Title_t, "Bass"
8, 0, Control_c, 0, 7, 99
8, 3360, Time_signature, 2, 2, 24, 8
8, 3600, Time_signature, 4, 2, 24, 8
8, 6960, Time_signature, 2, 2, 24, 8
8, 7200, Time_signature, 4, 2, 24, 8
8, 10620, Note_on_c, 0, 35, 127
8, 10680, Note_on_c, 0, 35, 0
8, 10740, Note_on_c, 0, 35, 127
8, 10800, Note_on_c, 0, 35, 0
8, 10860, Note_on_c, 0, 35, 127
8, 10920, Note_on_c, 0, 35, 0
8, 10980, Note_on_c, 0, 35, 127
8, 11040, Note_on_c, 0, 35, 0
8, 11040, Time_signature, 3, 2, 24, 8
8, 11040, Note_on_c, 0, 35, 127
8, 11160, Note_on_c, 0, 35, 0
8, 11160, Note_on_c, 0, 47, 127
8, 11220, Note_on_c, 0, 47, 0
8, 11220, Note_on_c, 0, 35, 127
8, 11280, Note_on_c, 0, 35, 0
8, 11280, Note_on_c, 0, 36, 127
8, 11340, Note_on_c, 0, 36, 0
8, 11340, Note_on_c, 0, 35, 127
8, 11400, Note_on_c, 0, 35, 0
8, 11400, Note_on_c, 0, 31, 127
8, 11580, Note_on_c, 0, 31, 0
8, 11580, Note_on_c, 0, 31, 127
8, 11640, Note_on_c, 0, 31, 0
8, 11640, Note_on_c, 0, 28, 127
8, 11700, Note_on_c, 0, 28, 0
8, 11700, Note_on_c, 0, 30, 127
8, 11760, Note_on_c, 0, 30, 0
8, 11760, Note_on_c, 0, 35, 127
8, 11880, Note_on_c, 0, 35, 0
8, 11880, Note_on_c, 0, 47, 127
8, 11940, Note_on_c, 0, 47, 0
8, 11940, Note_on_c, 0, 35, 127
8, 11995, Note_on_c, 0, 35, 75
8, 12000, Note_on_c, 0, 35, 0
8, 12000, Note_on_c, 0, 35, 0
8, 12000, Note_on_c, 0, 36, 127
8, 12060, Note_on_c, 0, 36, 0
8, 12060, Note_on_c, 0, 35, 127
8, 12120, Note_on_c, 0, 35, 0
8, 12120, Note_on_c, 0, 31, 127
8, 12300, Note_on_c, 0, 31, 0
8, 12300, Note_on_c, 0, 31, 127
8, 12360, Note_on_c, 0, 31, 0
8, 12360, Note_on_c, 0, 28, 127
8, 12420, Note_on_c, 0, 28, 0
8, 12420, Note_on_c, 0, 30, 127
8, 12480, Note_on_c, 0, 30, 0
8, 12480, Note_on_c, 0, 35, 127
8, 12600, Note_on_c, 0, 35, 0
8, 12600, Note_on_c, 0, 47, 127
8, 12660, Note_on_c, 0, 47, 0
8, 12660, Note_on_c, 0, 35, 127
8, 12715, Note_on_c, 0, 35, 75
8, 12720, Note_on_c, 0, 35, 0
8, 12720, Note_on_c, 0, 35, 0
8, 12720, Note_on_c, 0, 36, 127
8, 12780, Note_on_c, 0, 36, 0
8, 12780, Note_on_c, 0, 35, 127
8, 12840, Note_on_c, 0, 35, 0
8, 12840, Note_on_c, 0, 33, 127
8, 13020, Note_on_c, 0, 33, 0
8, 13020, Note_on_c, 0, 33, 127
8, 13080, Note_on_c, 0, 33, 0
8, 13080, Note_on_c, 0, 45, 127
8, 13110, Note_on_c, 0, 45, 0
8, 13110, Note_on_c, 0, 43, 127
8, 13140, Note_on_c, 0, 43, 0
8, 13140, Note_on_c, 0, 40, 127
8, 13200, Note_on_c, 0, 40, 0
8, 13200, Note_on_c, 0, 31, 127
8, 13380, Note_on_c, 0, 31, 0
8, 13380, Note_on_c, 0, 31, 127
8, 13440, Note_on_c, 0, 31, 0
8, 13440, Note_on_c, 0, 28, 127
8, 13470, Note_on_c, 0, 28, 0
8, 13470, Note_on_c, 0, 30, 127
8, 13500, Note_on_c, 0, 30, 0
8, 13500, Note_on_c, 0, 31, 127
8, 13560, Note_on_c, 0, 31, 0
8, 13560, Note_on_c, 0, 28, 127
8, 13740, Note_on_c, 0, 28, 0
8, 13740, Note_on_c, 0, 28, 127
8, 13800, Note_on_c, 0, 28, 0
8, 13800, Note_on_c, 0, 30, 127
8, 13860, Note_on_c, 0, 30, 0
8, 13860, Note_on_c, 0, 37, 127
8, 13920, Note_on_c, 0, 37, 0
8, 13920, Note_on_c, 0, 31, 127
8, 14040, Note_on_c, 0, 31, 0
8, 14040, Note_on_c, 0, 38, 127
8, 14100, Note_on_c, 0, 38, 0
8, 14100, Note_on_c, 0, 31, 127
8, 14160, Note_on_c, 0, 31, 0
8, 14160, Note_on_c, 0, 33, 127
8, 14220, Note_on_c, 0, 33, 0
8, 14220, Note_on_c, 0, 40, 127
8, 14280, Note_on_c, 0, 40, 0
8, 14280, Note_on_c, 0, 38, 127
8, 14340, Note_on_c, 0, 38, 0
8, 14340, Note_on_c, 0, 45, 127
8, 14400, Note_on_c, 0, 45, 0
8, 14400, Note_on_c, 0, 38, 127
8, 14460, Note_on_c, 0, 38, 0
8, 14460, Note_on_c, 0, 50, 127
8, 14520, Note_on_c, 0, 50, 0
8, 14520, Note_on_c, 0, 40, 127
8, 14580, Note_on_c, 0, 40, 0
8, 14580, Note_on_c, 0, 36, 127
8, 14640, Note_on_c, 0, 36, 0
8, 14640, Note_on_c, 0, 31, 127
8, 14760, Note_on_c, 0, 31, 0
8, 14760, Note_on_c, 0, 43, 127
8, 14820, Note_on_c, 0, 43, 0
8, 14820, Note_on_c, 0, 31, 127
8, 14880, Note_on_c, 0, 31, 0
8, 14880, Note_on_c, 0, 33, 127
8, 14940, Note_on_c, 0, 33, 0
8, 14940, Note_on_c, 0, 31, 127
8, 15000, Note_on_c, 0, 31, 0
8, 15000, Note_on_c, 0, 29, 127
8, 15120, Note_on_c, 0, 29, 0
8, 15120, Note_on_c, 0, 41, 127
8, 15180, Note_on_c, 0, 41, 0
8, 15180, Note_on_c, 0, 29, 127
8, 15240, Note_on_c, 0, 29, 0
8, 15240, Note_on_c, 0, 41, 127
8, 15300, Note_on_c, 0, 41, 0
8, 15300, Note_on_c, 0, 29, 127
8, 15360, Note_on_c, 0, 29, 0
8, 15360, Note_on_c, 0, 28, 127
8, 15420, Note_on_c, 0, 28, 0
8, 15420, Note_on_c, 0, 35, 127
8, 15480, Note_on_c, 0, 35, 0
8, 15480, Note_on_c, 0, 40, 127
8, 15540, Note_on_c, 0, 40, 0
8, 15540, Note_on_c, 0, 35, 127
8, 15600, Note_on_c, 0, 35, 0
8, 15600, Note_on_c, 0, 40, 127
8, 15660, Note_on_c, 0, 40, 0
8, 15660, Note_on_c, 0, 35, 127
8, 15720, Note_on_c, 0, 35, 0
8, 15720, Note_on_c, 0, 38, 127
8, 15780, Note_on_c, 0, 38, 0
8, 15780, Note_on_c, 0, 45, 127
8, 15840, Note_on_c, 0, 45, 0
8, 15840, Note_on_c, 0, 38, 127
8, 15900, Note_on_c, 0, 38, 0
8, 15900, Note_on_c, 0, 50, 127
8, 15960, Note_on_c, 0, 50, 0
8, 15960, Note_on_c, 0, 40, 127
8, 16020, Note_on_c, 0, 40, 0
8, 16020, Note_on_c, 0, 36, 127
8, 16080, Note_on_c, 0, 36, 0
8, 16080, Note_on_c, 0, 31, 127
8, 16200, Note_on_c, 0, 31, 0
8, 16200, Note_on_c, 0, 43, 127
8, 16260, Note_on_c, 0, 43, 0
8, 16260, Note_on_c, 0, 31, 127
8, 16320, Note_on_c, 0, 31, 0
8, 16320, Note_on_c, 0, 33, 127
8, 16380, Note_on_c, 0, 33, 0
8, 16380, Note_on_c, 0, 31, 127
8, 16440, Note_on_c, 0, 31, 0
8, 16440, Note_on_c, 0, 29, 127
8, 16560, Note_on_c, 0, 29, 0
8, 16560, Note_on_c, 0, 41, 127
8, 16620, Note_on_c, 0, 41, 0
8, 16620, Note_on_c, 0, 29, 127
8, 16680, Note_on_c, 0, 29, 0
8, 16680, Note_on_c, 0, 41, 127
8, 16740, Note_on_c, 0, 41, 0
8, 16740, Note_on_c, 0, 29, 127
8, 16800, Note_on_c, 0, 29, 0
8, 16800, Note_on_c, 0, 28, 127
8, 16980, Note_on_c, 0, 28, 0
8, 16980, Note_on_c, 0, 28, 127
8, 17035, Note_on_c, 0, 35, 75
8, 17040, Note_on_c, 0, 28, 0
8, 17040, Note_on_c, 0, 35, 0
8, 17040, Note_on_c, 0, 36, 127
8, 17160, Note_on_c, 0, 36, 0
8, 17160, Note_on_c, 0, 35, 127
8, 17340, Note_on_c, 0, 35, 0
8, 17340, Note_on_c, 0, 47, 127
8, 17400, Note_on_c, 0, 47, 0
8, 17400, Note_on_c, 0, 36, 127
8, 17460, Note_on_c, 0, 36, 0
8, 17460, Note_on_c, 0, 35, 127
8, 17520, Note_on_c, 0, 35, 0
8, 17520, Note_on_c, 0, 31, 127
8, 17700, Note_on_c, 0, 31, 0
8, 17700, Note_on_c, 0, 31, 127
8, 17760, Note_on_c, 0, 31, 0
8, 17760, Note_on_c, 0, 28, 127
8, 17820, Note_on_c, 0, 28, 0
8, 17820, Note_on_c, 0, 30, 127
8, 17880, Note_on_c, 0, 30, 0
8, 17880, Note_on_c, 0, 35, 127
8, 17940, Note_on_c, 0, 35, 0
8, 17940, Note_on_c, 0, 47, 127
8, 18060, Note_on_c, 0, 47, 0
8, 18060, Note_on_c, 0, 35, 127
8, 18120, Note_on_c, 0, 35, 0
8, 18120, Note_on_c, 0, 36, 127
8, 18180, Note_on_c, 0, 36, 0
8, 18180, Note_on_c, 0, 35, 127
8, 18240, Note_on_c, 0, 35, 0
8, 18240, Note_on_c, 0, 31, 127
8, 18360, Note_on_c, 0, 31, 0
8, 18360, Note_on_c, 0, 31, 127
8, 18420, Note_on_c, 0, 31, 0
8, 18420, Note_on_c, 0, 33, 127
8, 18475, Note_on_c, 0, 35, 75
8, 18480, Note_on_c, 0, 33, 0
8, 18480, Note_on_c, 0, 35, 0
8, 18480, Note_on_c, 0, 38, 127
8, 18600, Note_on_c, 0, 38, 0
8, 18600, Note_on_c, 0, 35, 127
8, 18780, Note_on_c, 0, 35, 0
8, 18780, Note_on_c, 0, 35, 127
8, 18840, Note_on_c, 0, 35, 0
8, 18840, Note_on_c, 0, 35, 127
8, 18870, Note_on_c, 0, 35, 0
8, 18870, Note_on_c, 0, 36, 127
8, 18900, Note_on_c, 0, 36, 0
8, 18900, Note_on_c, 0, 35, 127
8, 18960, Note_on_c, 0, 35, 0
8, 18960, Note_on_c, 0, 33, 127
8, 19140, Note_on_c, 0, 33, 0
8, 19140, Note_on_c, 0, 33, 127
8, 19200, Note_on_c, 0, 33, 0
8, 19200, Note_on_c, 0, 45, 127
8, 19230, Note_on_c, 0, 45, 0
8, 19230, Note_on_c, 0, 43, 127
8, 19260, Note_on_c, 0, 43, 0
8, 19260, Note_on_c, 0, 40, 127
8, 19320, Note_on_c, 0, 40, 0
8, 19320, Note_on_c, 0, 31, 127
8, 19500, Note_on_c, 0, 31, 0
8, 19500, Note_on_c, 0, 31, 127
8, 19560, Note_on_c, 0, 31, 0
8, 19560, Note_on_c, 0, 28, 127
8, 19590, Note_on_c, 0, 28, 0
8, 19590, Note_on_c, 0, 30, 127
8, 19620, Note_on_c, 0, 30, 0
8, 19620, Note_on_c, 0, 31, 127
8, 19680, Note_on_c, 0, 31, 0
8, 19680, Time_signature, 2, 2, 24, 8
8, 19680, Note_on_c, 0, 28, 127
8, 19740, Note_on_c, 0, 28, 0
8, 19740, Note_on_c, 0, 35, 127
8, 19770, Note_on_c, 0, 35, 0
8, 19800, Note_on_c, 0, 30, 127
8, 19860, Note_on_c, 0, 30, 0
8, 19860, Note_on_c, 0, 35, 127
8, 19890, Note_on_c, 0, 35, 0
8, 19920, Time_signature, 3, 2, 24, 8
8, 19920, Note_on_c, 0, 35, 127
8, 20040, Note_on_c, 0, 35, 0
8, 20040, Note_on_c, 0, 47, 127
8, 20100, Note_on_c, 0, 47, 0
8, 20100, Note_on_c, 0, 35, 127
8, 20155, Note_on_c, 0, 35, 75
8, 20160, Note_on_c, 0, 35, 0
8, 20160, Note_on_c, 0, 35, 0
8, 20160, Note_on_c, 0, 36, 127
8, 20220, Note_on_c, 0, 36, 0
8, 20220, Note_on_c, 0, 35, 127
8, 20280, Note_on_c, 0, 35, 0
8, 20280, Note_on_c, 0, 31, 127
8, 20460, Note_on_c, 0, 31, 0
8, 20460, Note_on_c, 0, 31, 127
8, 20520, Note_on_c, 0, 31, 0
8, 20520, Note_on_c, 0, 28, 127
8, 20580, Note_on_c, 0, 28, 0
8, 20580, Note_on_c, 0, 30, 127
8, 20640, Note_on_c, 0, 30, 0
8, 20640, Note_on_c, 0, 35, 127
8, 20820, Note_on_c, 0, 35, 0
8, 20820, Note_on_c, 0, 35, 127
8, 20875, Note_on_c, 0, 35, 75
8, 20880, Note_on_c, 0, 35, 0
8, 20880, Note_on_c, 0, 35, 0
8, 20880, Note_on_c, 0, 36, 127
8, 20940, Note_on_c, 0, 36, 0
8, 20940, Note_on_c, 0, 35, 127
8, 21000, Note_on_c, 0, 35, 0
8, 21000, Note_on_c, 0, 31, 127
8, 21120, Note_on_c, 0, 31, 0
8, 21120, Note_on_c, 0, 31, 127
8, 21180, Note_on_c, 0, 31, 0
8, 21180, Note_on_c, 0, 33, 127
8, 21235, Note_on_c, 0, 35, 75
8, 21240, Note_on_c, 0, 33, 0
8, 21240, Note_on_c, 0, 35, 0
8, 21240, Note_on_c, 0, 38, 127
8, 21360, Note_on_c, 0, 38, 0
8, 21360, Note_on_c, 0, 35, 127
8, 21540, Note_on_c, 0, 35, 0
8, 21540, Note_on_c, 0, 35, 127
8, 21595, Note_on_c, 0, 35, 75
8, 21600, Note_on_c, 0, 35, 0
8, 21600, Note_on_c, 0, 35, 0
8, 21600, Note_on_c, 0, 36, 127
8, 21660, Note_on_c, 0, 36, 0
8, 21660, Note_on_c, 0, 35, 127
8, 21720, Note_on_c, 0, 35, 0
8, 21720, Note_on_c, 0, 33, 127
8, 21900, Note_on_c, 0, 33, 0
8, 21900, Note_on_c, 0, 33, 127
8, 21960, Note_on_c, 0, 33, 0
8, 21960, Note_on_c, 0, 45, 127
8, 21990, Note_on_c, 0, 45, 0
8, 21990, Note_on_c, 0, 43, 127
8, 22020, Note_on_c, 0, 43, 0
8, 22020, Note_on_c, 0, 40, 127
8, 22080, Note_on_c, 0, 40, 0
8, 22080, Note_on_c, 0, 31, 127
8, 22260, Note_on_c, 0, 31, 0
8, 22260, Note_on_c, 0, 31, 127
8, 22320, Note_on_c, 0, 31, 0
8, 22320, Note_on_c, 0, 28, 127
8, 22350, Note_on_c, 0, 28, 0
8, 22350, Note_on_c, 0, 30, 127
8, 22380, Note_on_c, 0, 30, 0
8, 22380, Note_on_c, 0, 31, 127
8, 22440, Note_on_c, 0, 31, 0
8, 22440, Time_signature, 2, 2, 24, 8
8, 22440, Note_on_c, 0, 28, 127
8, 22560, Note_on_c, 0, 28, 0
8, 22560, Note_on_c, 0, 30, 127
8, 22620, Note_on_c, 0, 30, 0
8, 22620, Note_on_c, 0, 28, 127
8, 22680, Note_on_c, 0, 28, 0
8, 22680, Time_signature, 6, 2, 24, 8
8, 22680, Note_on_c, 0, 31, 127
8, 22860, Note_on_c, 0, 31, 0
8, 22860, Note_on_c, 0, 33, 127
8, 22920, Note_on_c, 0, 33, 0
8, 22920, Note_on_c, 0, 35, 127
8, 22980, Note_on_c, 0, 35, 0
8, 22980, Note_on_c, 0, 33, 127
8, 23040, Note_on_c, 0, 33, 0
8, 23040, Note_on_c, 0, 31, 127
8, 23160, Note_on_c, 0, 31, 0
8, 23160, Note_on_c, 0, 30, 127
8, 23280, Note_on_c, 0, 30, 0
8, 23280, Note_on_c, 0, 35, 127
8, 23400, Note_on_c, 0, 35, 0
8, 23400, Note_on_c, 0, 33, 127
8, 23580, Note_on_c, 0, 33, 0
8, 23580, Note_on_c, 0, 35, 127
8, 23640, Note_on_c, 0, 35, 0
8, 23640, Note_on_c, 0, 37, 127
8, 23700, Note_on_c, 0, 37, 0
8, 23700, Note_on_c, 0, 35, 127
8, 23760, Note_on_c, 0, 35, 0
8, 23760, Note_on_c, 0, 33, 127
8, 23880, Note_on_c, 0, 33, 0
8, 23880, Note_on_c, 0, 36, 127
8, 23940, Note_on_c, 0, 36, 0
8, 23940, Note_on_c, 0, 43, 127
8, 24000, Note_on_c, 0, 43, 0
8, 24000, Note_on_c, 0, 37, 127
8, 24060, Note_on_c, 0, 37, 0
8, 24060, Note_on_c, 0, 44, 127
8, 24120, Note_on_c, 0, 44, 0
8, 24120, Time_signature, 3, 2, 24, 8
8, 24120, Note_on_c, 0, 38, 127
8, 24240, Note_on_c, 0, 38, 0
8, 24240, Note_on_c, 0, 45, 127
8, 24300, Note_on_c, 0, 45, 0
8, 24300, Note_on_c, 0, 38, 127
8, 24360, Note_on_c, 0, 38, 0
8, 24360, Note_on_c, 0, 40, 127
8, 24420, Note_on_c, 0, 40, 0
8, 24420, Note_on_c, 0, 36, 127
8, 24480, Note_on_c, 0, 36, 0
8, 24480, Note_on_c, 0, 31, 127
8, 24600, Note_on_c, 0, 31, 0
8, 24600, Note_on_c, 0, 43, 127
8, 24660, Note_on_c, 0, 43, 0
8, 24660, Note_on_c, 0, 31, 127
8, 24720, Note_on_c, 0, 31, 0
8, 24720, Note_on_c, 0, 33, 127
8, 24780, Note_on_c, 0, 33, 0
8, 24780, Note_on_c, 0, 31, 127
8, 24840, Note_on_c, 0, 31, 0
8, 24840, Note_on_c, 0, 29, 127
8, 24960, Note_on_c, 0, 29, 0
8, 24960, Note_on_c, 0, 41, 127
8, 25020, Note_on_c, 0, 41, 0
8, 25020, Note_on_c, 0, 29, 127
8, 25080, Note_on_c, 0, 29, 0
8, 25080, Note_on_c, 0, 41, 127
8, 25140, Note_on_c, 0, 41, 0
8, 25140, Note_on_c, 0, 29, 127
8, 25200, Note_on_c, 0, 29, 0
8, 25200, Note_on_c, 0, 28, 127
8, 25260, Note_on_c, 0, 28, 0
8, 25260, Note_on_c, 0, 35, 127
8, 25320, Note_on_c, 0, 35, 0
8, 25320, Note_on_c, 0, 40, 127
8, 25380, Note_on_c, 0, 40, 0
8, 25380, Note_on_c, 0, 35, 127
8, 25440, Note_on_c, 0, 35, 0
8, 25440, Note_on_c, 0, 40, 127
8, 25500, Note_on_c, 0, 40, 0
8, 25500, Note_on_c, 0, 35, 127
8, 25560, Note_on_c, 0, 35, 0
8, 25560, Note_on_c, 0, 38, 127
8, 25620, Note_on_c, 0, 38, 0
8, 25620, Note_on_c, 0, 45, 127
8, 25680, Note_on_c, 0, 45, 0
8, 25680, Note_on_c, 0, 38, 127
8, 25740, Note_on_c, 0, 38, 0
8, 25740, Note_on_c, 0, 50, 127
8, 25800, Note_on_c, 0, 50, 0
8, 25800, Note_on_c, 0, 40, 127
8, 25860, Note_on_c, 0, 40, 0
8, 25860, Note_on_c, 0, 36, 127
8, 25920, Note_on_c, 0, 36, 0
8, 25920, Note_on_c, 0, 31, 127
8, 26040, Note_on_c, 0, 31, 0
8, 26040, Note_on_c, 0, 43, 127
8, 26100, Note_on_c, 0, 43, 0
8, 26100, Note_on_c, 0, 31, 127
8, 26160, Note_on_c, 0, 31, 0
8, 26160, Note_on_c, 0, 33, 127
8, 26220, Note_on_c, 0, 33, 0
8, 26220, Note_on_c, 0, 31, 127
8, 26280, Note_on_c, 0, 31, 0
8, 26280, Note_on_c, 0, 29, 127
8, 26400, Note_on_c, 0, 29, 0
8, 26400, Note_on_c, 0, 41, 127
8, 26460, Note_on_c, 0, 41, 0
8, 26460, Note_on_c, 0, 29, 127
8, 26520, Note_on_c, 0, 29, 0
8, 26520, Note_on_c, 0, 41, 127
8, 26580, Note_on_c, 0, 41, 0
8, 26580, Note_on_c, 0, 29, 127
8, 26640, Note_on_c, 0, 29, 0
8, 26640, Note_on_c, 0, 28, 127
8, 26820, Note_on_c, 0, 28, 0
8, 26820, Note_on_c, 0, 28, 127
8, 26875, Note_on_c, 0, 35, 75
8, 26880, Note_on_c, 0, 28, 0
8, 26880, Note_on_c, 0, 35, 0
8, 26880, Note_on_c, 0, 36, 127
8, 27000, Note_on_c, 0, 36, 0
8, 27000, Note_on_c, 0, 35, 127
8, 27180, Note_on_c, 0, 35, 0
8, 27180, Note_on_c, 0, 47, 127
8, 27240, Note_on_c, 0, 47, 0
8, 27240, Note_on_c, 0, 36, 127
8, 27300, Note_on_c, 0, 36, 0
8, 27300, Note_on_c, 0, 35, 127
8, 27360, Note_on_c, 0, 35, 0
8, 27360, Note_on_c, 0, 31, 127
8, 27540, Note_on_c, 0, 31, 0
8, 27540, Note_on_c, 0, 31, 127
8, 27600, Note_on_c, 0, 31, 0
8, 27600, Note_on_c, 0, 28, 127
8, 27660, Note_on_c, 0, 28, 0
8, 27660, Note_on_c, 0, 30, 127
8, 27720, Note_on_c, 0, 30, 0
8, 27720, Note_on_c, 0, 35, 127
8, 27780, Note_on_c, 0, 35, 0
8, 27780, Note_on_c, 0, 47, 127
8, 27900, Note_on_c, 0, 47, 0
8, 27900, Note_on_c, 0, 35, 127
8, 27960, Note_on_c, 0, 35, 0
8, 27960, Note_on_c, 0, 36, 127
8, 28020, Note_on_c, 0, 36, 0
8, 28020, Note_on_c, 0, 35, 127
8, 28080, Note_on_c, 0, 35, 0
8, 28080, Note_on_c, 0, 31, 127
8, 28200, Note_on_c, 0, 31, 0
8, 28200, Note_on_c, 0, 31, 127
8, 28260, Note_on_c, 0, 31, 0
8, 28260, Note_on_c, 0, 33, 127
8, 28315, Note_on_c, 0, 35, 75
8, 28320, Note_on_c, 0, 33, 0
8, 28320, Note_on_c, 0, 35, 0
8, 28320, Note_on_c, 0, 38, 127
8, 28440, Note_on_c, 0, 38, 0
8, 28440, Note_on_c, 0, 35, 127
8, 28620, Note_on_c, 0, 35, 0
8, 28620, Note_on_c, 0, 35, 127
8, 28680, Note_on_c, 0, 35, 0
8, 28680, Note_on_c, 0, 35, 127
8, 28710, Note_on_c, 0, 35, 0
8, 28710, Note_on_c, 0, 36, 127
8, 28740, Note_on_c, 0, 36, 0
8, 28740, Note_on_c, 0, 35, 127
8, 28800, Note_on_c, 0, 35, 0
8, 28800, Note_on_c, 0, 33, 127
8, 28980, Note_on_c, 0, 33, 0
8, 28980, Note_on_c, 0, 33, 127
8, 29040, Note_on_c, 0, 33, 0
8, 29040, Note_on_c, 0, 45, 127
8, 29070, Note_on_c, 0, 45, 0
8, 29070, Note_on_c, 0, 43, 127
8, 29100, Note_on_c, 0, 43, 0
8, 29100, Note_on_c, 0, 40, 127
8, 29160, Note_on_c, 0, 40, 0
8, 29160, Note_on_c, 0, 31, 127
8, 29340, Note_on_c, 0, 31, 0
8, 29340, Note_on_c, 0, 31, 127
8, 29400, Note_on_c, 0, 31, 0
8, 29400, Note_on_c, 0, 28, 127
8, 29430, Note_on_c, 0, 28, 0
8, 29430, Note_on_c, 0, 30, 127
8, 29460, Note_on_c, 0, 30, 0
8, 29460, Note_on_c, 0, 31, 127
8, 29520, Note_on_c, 0, 31, 0
8, 29520, Time_signature, 2, 2, 24, 8
8, 29520, Note_on_c, 0, 28, 127
8, 29580, Note_on_c, 0, 28, 0
8, 29580, Note_on_c, 0, 35, 127
8, 29610, Note_on_c, 0, 35, 0
8, 29640, Note_on_c, 0, 30, 127
8, 29700, Note_on_c, 0, 30, 0
8, 29700, Note_on_c, 0, 35, 127
8, 29730, Note_on_c, 0, 35, 0
8, 29760, Time_signature, 3, 2, 24, 8
8, 29760, Note_on_c, 0, 35, 127
8, 29880, Note_on_c, 0, 35, 0
8, 29880, Note_on_c, 0, 47, 127
8, 29940, Note_on_c, 0, 47, 0
8, 29940, Note_on_c, 0, 35, 127
8, 29995, Note_on_c, 0, 35, 75
8, 30000, Note_on_c, 0, 35, 0
8, 30000, Note_on_c, 0, 35, 0
8, 30000, Note_on_c, 0, 36, 127
8, 30060, Note_on_c, 0, 36, 0
8, 30060, Note_on_c, 0, 35, 127
8, 30120, Note_on_c, 0, 35, 0
8, 30120, Note_on_c, 0, 31, 127
8, 30300, Note_on_c, 0, 31, 0
8, 30300, Note_on_c, 0, 31, 127
8, 30360, Note_on_c, 0, 31, 0
8, 30360, Note_on_c, 0, 28, 127
8, 30420, Note_on_c, 0, 28, 0
8, 30420, Note_on_c, 0, 30, 127
8, 30480, Note_on_c, 0, 30, 0
8, 30480, Note_on_c, 0, 35, 127
8, 30660, Note_on_c, 0, 35, 0
8, 30660, Note_on_c, 0, 35, 127
8, 30715, Note_on_c, 0, 35, 75
8, 30720, Note_on_c, 0, 35, 0
8, 30720, Note_on_c, 0, 35, 0
8, 30720, Note_on_c, 0, 36, 127
8, 30780, Note_on_c, 0, 36, 0
8, 30780, Note_on_c, 0, 35, 127
8, 30840, Note_on_c, 0, 35, 0
8, 30840, Note_on_c, 0, 31, 127
8, 30960, Note_on_c, 0, 31, 0
8, 30960, Note_on_c, 0, 31, 127
8, 31020, Note_on_c, 0, 31, 0
8, 31020, Note_on_c, 0, 33, 127
8, 31075, Note_on_c, 0, 35, 75
8, 31080, Note_on_c, 0, 33, 0
8, 31080, Note_on_c, 0, 35, 0
8, 31080, Note_on_c, 0, 38, 127
8, 31200, Note_on_c, 0, 38, 0
8, 31200, Note_on_c, 0, 35, 127
8, 31380, Note_on_c, 0, 35, 0
8, 31380, Note_on_c, 0, 35, 127
8, 31435, Note_on_c, 0, 35, 75
8, 31440, Note_on_c, 0, 35, 0
8, 31440, Note_on_c, 0, 35, 0
8, 31440, Note_on_c, 0, 36, 127
8, 31500, Note_on_c, 0, 36, 0
8, 31500, Note_on_c, 0, 35, 127
8, 31560, Note_on_c, 0, 35, 0
8, 31560, Note_on_c, 0, 33, 127
8, 31740, Note_on_c, 0, 33, 0
8, 31740, Note_on_c, 0, 33, 127
8, 31800, Note_on_c, 0, 33, 0
8, 31800, Note_on_c, 0, 45, 127
8, 31830, Note_on_c, 0, 45, 0
8, 31830, Note_on_c, 0, 43, 127
8, 31860, Note_on_c, 0, 43, 0
8, 31860, Note_on_c, 0, 40, 127
8, 31920, Note_on_c, 0, 40, 0
8, 31920, Note_on_c, 0, 31, 127
8, 32100, Note_on_c, 0, 31, 0
8, 32100, Note_on_c, 0, 31, 127
8, 32160, Note_on_c, 0, 31, 0
8, 32160, Note_on_c, 0, 28, 127
8, 32190, Note_on_c, 0, 28, 0
8, 32190, Note_on_c, 0, 30, 127
8, 32220, Note_on_c, 0, 30, 0
8, 32220, Note_on_c, 0, 31, 127
8, 32280, Note_on_c, 0, 31, 0
8, 32280, Time_signature, 2, 2, 24, 8
8, 32280, Note_on_c, 0, 28, 127
8, 32400, Note_on_c, 0, 28, 0
8, 32400, Note_on_c, 0, 30, 127
8, 32460, Note_on_c, 0, 30, 0
8, 32460, Note_on_c, 0, 28, 127
8, 32520, Note_on_c, 0, 28, 0
8, 32520, Time_signature, 6, 2, 24, 8
8, 32520, Note_on_c, 0, 31, 127
8, 32700, Note_on_c, 0, 31, 0
8, 32700, Note_on_c, 0, 33, 127
8, 32760, Note_on_c, 0, 33, 0
8, 32760, Note_on_c, 0, 35, 127
8, 32820, Note_on_c, 0, 35, 0
8, 32820, Note_on_c, 0, 33, 127
8, 32880, Note_on_c, 0, 33, 0
8, 32880, Note_on_c, 0, 31, 127
8, 33000, Note_on_c, 0, 31, 0
8, 33000, Note_on_c, 0, 30, 127
8, 33120, Note_on_c, 0, 30, 0
8, 33120, Note_on_c, 0, 35, 127
8, 33240, Note_on_c, 0, 35, 0
8, 33240, Note_on_c, 0, 33, 127
8, 33420, Note_on_c, 0, 33, 0
8, 33420, Note_on_c, 0, 35, 127
8, 33480, Note_on_c, 0, 35, 0
8, 33480, Note_on_c, 0, 37, 127
8, 33540, Note_on_c, 0, 37, 0
8, 33540, Note_on_c, 0, 35, 127
8, 33600, Note_on_c, 0, 35, 0
8, 33600, Note_on_c, 0, 33, 127
8, 33720, Note_on_c, 0, 33, 0
8, 33720, Note_on_c, 0, 36, 127
8, 33780, Note_on_c, 0, 36, 0
8, 33780, Note_on_c, 0, 43, 127
8, 33840, Note_on_c, 0, 43, 0
8, 33840, Note_on_c, 0, 37, 127
8, 33900, Note_on_c, 0, 37, 0
8, 33900, Note_on_c, 0, 44, 127
8, 33960, Note_on_c, 0, 44, 0
8, 33960, Time_signature, 3, 2, 24, 8
8, 33960, Note_on_c, 0, 38, 127
8, 34080, Note_on_c, 0, 38, 0
8, 34080, Note_on_c, 0, 45, 127
8, 34140, Note_on_c, 0, 45, 0
8, 34140, Note_on_c, 0, 38, 127
8, 34200, Note_on_c, 0, 38, 0
8, 34200, Note_on_c, 0, 40, 127
8, 34260, Note_on_c, 0, 40, 0
8, 34260, Note_on_c, 0, 36, 127
8, 34320, Note_on_c, 0, 36, 0
8, 34320, Note_on_c, 0, 31, 127
8, 34440, Note_on_c, 0, 31, 0
8, 34440, Note_on_c, 0, 43, 127
8, 34500, Note_on_c, 0, 43, 0
8, 34500, Note_on_c, 0, 31, 127
8, 34560, Note_on_c, 0, 31, 0
8, 34560, Note_on_c, 0, 33, 127
8, 34620, Note_on_c, 0, 33, 0
8, 34620, Note_on_c, 0, 31, 127
8, 34680, Note_on_c, 0, 31, 0
8, 34680, Note_on_c, 0, 29, 127
8, 34800, Note_on_c, 0, 29, 0
8, 34800, Note_on_c, 0, 41, 127
8, 34860, Note_on_c, 0, 41, 0
8, 34860, Note_on_c, 0, 29, 127
8, 34920, Note_on_c, 0, 29, 0
8, 34920, Note_on_c, 0, 41, 127
8, 34980, Note_on_c, 0, 41, 0
8, 34980, Note_on_c, 0, 29, 127
8, 35040, Note_on_c, 0, 29, 0
8, 35040, Note_on_c, 0, 28, 127
8, 35100, Note_on_c, 0, 28, 0
8, 35100, Note_on_c, 0, 35, 127
8, 35160, Note_on_c, 0, 35, 0
8, 35160, Note_on_c, 0, 40, 127
8, 35220, Note_on_c, 0, 40, 0
8, 35220, Note_on_c, 0, 35, 127
8, 35280, Note_on_c, 0, 35, 0
8, 35280, Note_on_c, 0, 40, 127
8, 35340, Note_on_c, 0, 40, 0
8, 35340, Note_on_c, 0, 35, 127
8, 35400, Note_on_c, 0, 35, 0
8, 35400, Note_on_c, 0, 38, 127
8, 35460, Note_on_c, 0, 38, 0
8, 35460, Note_on_c, 0, 45, 127
8, 35520, Note_on_c, 0, 45, 0
8, 35520, Note_on_c, 0, 38, 127
8, 35580, Note_on_c, 0, 38, 0
8, 35580, Note_on_c, 0, 50, 127
8, 35640, Note_on_c, 0, 50, 0
8, 35640, Note_on_c, 0, 40, 127
8, 35700, Note_on_c, 0, 40, 0
8, 35700, Note_on_c, 0, 36, 127
8, 35760, Note_on_c, 0, 36, 0
8, 35760, Note_on_c, 0, 31, 127
8, 35880, Note_on_c, 0, 31, 0
8, 35880, Note_on_c, 0, 43, 127
8, 35940, Note_on_c, 0, 43, 0
8, 35940, Note_on_c, 0, 31, 127
8, 36000, Note_on_c, 0, 31, 0
8, 36000, Note_on_c, 0, 33, 127
8, 36060, Note_on_c, 0, 33, 0
8, 36060, Note_on_c, 0, 31, 127
8, 36120, Note_on_c, 0, 31, 0
8, 36120, Note_on_c, 0, 29, 127
8, 36240, Note_on_c, 0, 29, 0
8, 36240, Note_on_c, 0, 41, 127
8, 36300, Note_on_c, 0, 41, 0
8, 36300, Note_on_c, 0, 29, 127
8, 36360, Note_on_c, 0, 29, 0
8, 36360, Note_on_c, 0, 41, 127
8, 36420, Note_on_c, 0, 41, 0
8, 36420, Note_on_c, 0, 29, 127
8, 36480, Note_on_c, 0, 29, 0
8, 36480, Note_on_c, 0, 28, 127
8, 36540, Note_on_c, 0, 28, 0
8, 36540, Note_on_c, 0, 35, 127
8, 36600, Note_on_c, 0, 35, 0
8, 36600, Note_on_c, 0, 40, 127
8, 36660, Note_on_c, 0, 40, 0
8, 36660, Note_on_c, 0, 35, 127
8, 36720, Note_on_c, 0, 35, 0
8, 36720, Note_on_c, 0, 40, 127
8, 36780, Note_on_c, 0, 40, 0
8, 36780, Note_on_c, 0, 35, 127
8, 36840, Note_on_c, 0, 35, 0
8, 36840, Note_on_c, 0, 38, 127
8, 36900, Note_on_c, 0, 38, 0
8, 36900, Note_on_c, 0, 45, 127
8, 36960, Note_on_c, 0, 45, 0
8, 36960, Note_on_c, 0, 38, 127
8, 37020, Note_on_c, 0, 38, 0
8, 37020, Note_on_c, 0, 50, 127
8, 37080, Note_on_c, 0, 50, 0
8, 37080, Note_on_c, 0, 40, 127
8, 37140, Note_on_c, 0, 40, 0
8, 37140, Note_on_c, 0, 36, 127
8, 37200, Note_on_c, 0, 36, 0
8, 37200, Note_on_c, 0, 31, 127
8, 37320, Note_on_c, 0, 31, 0
8, 37320, Note_on_c, 0, 43, 127
8, 37380, Note_on_c, 0, 43, 0
8, 37380, Note_on_c, 0, 31, 127
8, 37440, Note_on_c, 0, 31, 0
8, 37440, Note_on_c, 0, 33, 127
8, 37500, Note_on_c, 0, 33, 0
8, 37500, Note_on_c, 0, 31, 127
8, 37560, Note_on_c, 0, 31, 0
8, 37560, Note_on_c, 0, 29, 127
8, 37680, Note_on_c, 0, 29, 0
8, 37680, Note_on_c, 0, 41, 127
8, 37740, Note_on_c, 0, 41, 0
8, 37740, Note_on_c, 0, 29, 127
8, 37800, Note_on_c, 0, 29, 0
8, 37800, Note_on_c, 0, 41, 127
8, 37860, Note_on_c, 0, 41, 0
8, 37860, Note_on_c, 0, 29, 127
8, 37920, Note_on_c, 0, 29, 0
8, 37920, Note_on_c, 0, 28, 127
8, 37980, Note_on_c, 0, 28, 0
8, 37980, Note_on_c, 0, 35, 127
8, 38040, Note_on_c, 0, 35, 0
8, 38040, Note_on_c, 0, 40, 127
8, 38100, Note_on_c, 0, 40, 0
8, 38100, Note_on_c, 0, 35, 127
8, 38160, Note_on_c, 0, 35, 0
8, 38160, Note_on_c, 0, 40, 127
8, 38220, Note_on_c, 0, 40, 0
8, 38220, Note_on_c, 0, 35, 127
8, 38280, Note_on_c, 0, 35, 0
8, 38280, Note_on_c, 0, 38, 127
8, 38340, Note_on_c, 0, 38, 0
8, 38340, Note_on_c, 0, 45, 127
8, 38400, Note_on_c, 0, 45, 0
8, 38400, Note_on_c, 0, 38, 127
8, 38460, Note_on_c, 0, 38, 0
8, 38460, Note_on_c, 0, 50, 127
8, 38520, Note_on_c, 0, 50, 0
8, 38520, Note_on_c, 0, 40, 127
8, 38580, Note_on_c, 0, 40, 0
8, 38580, Note_on_c, 0, 36, 127
8, 38640, Note_on_c, 0, 36, 0
8, 38640, Note_on_c, 0, 31, 127
8, 38760, Note_on_c, 0, 31, 0
8, 38760, Note_on_c, 0, 43, 127
8, 38820, Note_on_c, 0, 43, 0
8, 38820, Note_on_c, 0, 31, 127
8, 38880, Note_on_c, 0, 31, 0
8, 38880, Note_on_c, 0, 33, 127
8, 38940, Note_on_c, 0, 33, 0
8, 38940, Note_on_c, 0, 31, 127
8, 39000, Note_on_c, 0, 31, 0
8, 39000, Note_on_c, 0, 29, 127
8, 39120, Note_on_c, 0, 29, 0
8, 39120, Note_on_c, 0, 41, 127
8, 39180, Note_on_c, 0, 41, 0
8, 39180, Note_on_c, 0, 29, 127
8, 39240, Note_on_c, 0, 29, 0
8, 39240, Note_on_c, 0, 41, 127
8, 39300, Note_on_c, 0, 41, 0
8, 39300, Note_on_c, 0, 29, 127
8, 39360, Note_on_c, 0, 29, 0
8, 39360, Note_on_c, 0, 28, 127
8, 39420, Note_on_c, 0, 28, 0
8, 39420, Note_on_c, 0, 35, 127
8, 39480, Note_on_c, 0, 35, 0
8, 39480, Note_on_c, 0, 40, 127
8, 39540, Note_on_c, 0, 40, 0
8, 39540, Note_on_c, 0, 35, 127
8, 39600, Note_on_c, 0, 35, 0
8, 39600, Note_on_c, 0, 40, 127
8, 39660, Note_on_c, 0, 40, 0
8, 39660, Note_on_c, 0, 35, 127
8, 39720, Note_on_c, 0, 35, 0
8, 39720, Time_signature, 6, 2, 24, 8
8, 39720, Note_on_c, 0, 31, 127
8, 39900, Note_on_c, 0, 31, 0
8, 39900, Note_on_c, 0, 33, 127
8, 39960, Note_on_c, 0, 33, 0
8, 39960, Note_on_c, 0, 35, 127
8, 40020, Note_on_c, 0, 35, 0
8, 40020, Note_on_c, 0, 33, 127
8, 40080, Note_on_c, 0, 33, 0
8, 40080, Note_on_c, 0, 31, 127
8, 40200, Note_on_c, 0, 31, 0
8, 40200, Note_on_c, 0, 30, 127
8, 40320, Note_on_c, 0, 30, 0
8, 40320, Note_on_c, 0, 35, 127
8, 40440, Note_on_c, 0, 35, 0
8, 40440, Note_on_c, 0, 33, 127
8, 40620, Note_on_c, 0, 33, 0
8, 40620, Note_on_c, 0, 35, 127
8, 40680, Note_on_c, 0, 35, 0
8, 40680, Note_on_c, 0, 37, 127
8, 40740, Note_on_c, 0, 37, 0
8, 40740, Note_on_c, 0, 35, 127
8, 40800, Note_on_c, 0, 35, 0
8, 40800, Note_on_c, 0, 33, 127
8, 40920, Note_on_c, 0, 33, 0
8, 40920, Note_on_c, 0, 35, 127
8, 41040, Note_on_c, 0, 35, 0
8, 41040, Note_on_c, 0, 37, 127
8, 41160, Note_on_c, 0, 37, 0
8, 41160, Note_on_c, 0, 31, 127
8, 41340, Note_on_c, 0, 31, 0
8, 41340, Note_on_c, 0, 33, 127
8, 41400, Note_on_c, 0, 33, 0
8, 41400, Note_on_c, 0, 35, 127
8, 41460, Note_on_c, 0, 35, 0
8, 41460, Note_on_c, 0, 33, 127
8, 41520, Note_on_c, 0, 33, 0
8, 41520, Note_on_c, 0, 31, 127
8, 41640, Note_on_c, 0, 31, 0
8, 41640, Note_on_c, 0, 30, 127
8, 41760, Note_on_c, 0, 30, 0
8, 41760, Note_on_c, 0, 35, 127
8, 41880, Note_on_c, 0, 35, 0
8, 41880, Note_on_c, 0, 33, 127
8, 42060, Note_on_c, 0, 33, 0
8, 42060, Note_on_c, 0, 35, 127
8, 42120, Note_on_c, 0, 35, 0
8, 42120, Note_on_c, 0, 37, 127
8, 42180, Note_on_c, 0, 37, 0
8, 42180, Note_on_c, 0, 35, 127
8, 42240, Note_on_c, 0, 35, 0
8, 42240, Note_on_c, 0, 33, 127
8, 42360, Note_on_c, 0, 33, 0
8, 42360, Note_on_c, 0, 35, 127
8, 42480, Note_on_c, 0, 35, 0
8, 42480, Note_on_c, 0, 37, 127
8, 42600, Note_on_c, 0, 37, 0
8, 42600, Note_on_c, 0, 31, 127
8, 42780, Note_on_c, 0, 31, 0
8, 42780, Note_on_c, 0, 33, 127
8, 42840, Note_on_c, 0, 33, 0
8, 42840, Note_on_c, 0, 35, 127
8, 42900, Note_on_c, 0, 35, 0
8, 42900, Note_on_c, 0, 33, 127
8, 42960, Note_on_c, 0, 33, 0
8, 42960, Note_on_c, 0, 31, 127
8, 43080, Note_on_c, 0, 31, 0
8, 43080, Note_on_c, 0, 30, 127
8, 43200, Note_on_c, 0, 30, 0
8, 43200, Note_on_c, 0, 35, 127
8, 43320, Note_on_c, 0, 35, 0
8, 43320, Time_signature, 3, 2, 24, 8
8, 43320, Note_on_c, 0, 33, 127
8, 43440, Note_on_c, 0, 33, 0
8, 43440, Note_on_c, 0, 38, 127
8, 43500, Note_on_c, 0, 38, 0
8, 43500, Note_on_c, 0, 33, 127
8, 43560, Note_on_c, 0, 33, 0
8, 43560, Note_on_c, 0, 33, 127
8, 43620, Note_on_c, 0, 33, 0
8, 43620, Note_on_c, 0, 38, 127
8, 43680, Note_on_c, 0, 38, 0
8, 43680, Note_on_c, 0, 31, 127
8, 43740, Note_on_c, 0, 31, 0
8, 43740, Note_on_c, 0, 31, 127
8, 43800, Note_on_c, 0, 31, 0
8, 43800, Note_on_c, 0, 31, 127
8, 43860, Note_on_c, 0, 31, 0
8, 43860, Note_on_c, 0, 38, 127
8, 43920, Note_on_c, 0, 38, 0
8, 43920, Note_on_c, 0, 31, 127
8, 43980, Note_on_c, 0, 31, 0
8, 43980, Note_on_c, 0, 28, 127
8, 44040, Note_on_c, 0, 28, 0
8, 44040, Note_on_c, 0, 35, 127
8, 44160, Note_on_c, 0, 35, 0
8, 44160, Note_on_c, 0, 35, 127
8, 44220, Note_on_c, 0, 35, 0
8, 44220, Note_on_c, 0, 28, 127
8, 44280, Note_on_c, 0, 28, 0
8, 44280, Note_on_c, 0, 35, 127
8, 44340, Note_on_c, 0, 35, 0
8, 44340, Note_on_c, 0, 28, 127
8, 44400, Note_on_c, 0, 28, 0
8, 44400, Note_on_c, 0, 36, 127
8, 44520, Note_on_c, 0, 36, 0
8, 44520, Note_on_c, 0, 36, 127
8, 44580, Note_on_c, 0, 36, 0
8, 44580, Note_on_c, 0, 29, 127
8, 44640, Note_on_c, 0, 29, 0
8, 44640, Note_on_c, 0, 36, 127
8, 44700, Note_on_c, 0, 36, 0
8, 44700, Note_on_c, 0, 28, 127
8, 44760, Note_on_c, 0, 28, 0
8, 44760, Note_on_c, 0, 33, 127
8, 44820, Note_on_c, 0, 33, 0
8, 44820, Note_on_c, 0, 33, 127
8, 44880, Note_on_c, 0, 33, 0
8, 44880, Note_on_c, 0, 38, 127
8, 44940, Note_on_c, 0, 38, 0
8, 44940, Note_on_c, 0, 33, 127
8, 45000, Note_on_c, 0, 33, 0
8, 45000, Note_on_c, 0, 38, 127
8, 45060, Note_on_c, 0, 38, 0
8, 45060, Note_on_c, 0, 33, 127
8, 45120, Note_on_c, 0, 33, 0
8, 45120, Note_on_c, 0, 31, 127
8, 45180, Note_on_c, 0, 31, 0
8, 45180, Note_on_c, 0, 31, 127
8, 45240, Note_on_c, 0, 31, 0
8, 45240, Note_on_c, 0, 31, 127
8, 45300, Note_on_c, 0, 31, 0
8, 45300, Note_on_c, 0, 33, 127
8, 45360, Note_on_c, 0, 33, 0
8, 45360, Note_on_c, 0, 31, 127
8, 45420, Note_on_c, 0, 31, 0
8, 45420, Note_on_c, 0, 28, 127
8, 45480, Note_on_c, 0, 28, 0
8, 45480, Note_on_c, 0, 35, 127
8, 45600, Note_on_c, 0, 35, 0
8, 45600, Note_on_c, 0, 35, 127
8, 45660, Note_on_c, 0, 35, 0
8, 45660, Note_on_c, 0, 28, 127
8, 45720, Note_on_c, 0, 28, 0
8, 45720, Note_on_c, 0, 35, 127
8, 45780, Note_on_c, 0, 35, 0
8, 45780, Note_on_c, 0, 33, 127
8, 45840, Note_on_c, 0, 33, 0
8, 45840, Note_on_c, 0, 36, 127
8, 45900, Note_on_c, 0, 36, 0
8, 45900, Note_on_c, 0, 36, 127
8, 45930, Note_on_c, 0, 36, 0
8, 45930, Note_on_c, 0, 36, 127
8, 45960, Note_on_c, 0, 36, 0
8, 45960, Note_on_c, 0, 36, 127
8, 46020, Note_on_c, 0, 36, 0
8, 46020, Note_on_c, 0, 29, 127
8, 46080, Note_on_c, 0, 29, 0
8, 46080, Note_on_c, 0, 36, 127
8, 46140, Note_on_c, 0, 36, 0
8, 46140, Note_on_c, 0, 28, 127
8, 46200, Note_on_c, 0, 28, 0
8, 46200, Note_on_c, 0, 33, 127
8, 46260, Note_on_c, 0, 33, 0
8, 46260, Note_on_c, 0, 38, 127
8, 46320, Note_on_c, 0, 38, 0
8, 46320, Note_on_c, 0, 45, 127
8, 46380, Note_on_c, 0, 45, 0
8, 46380, Note_on_c, 0, 38, 127
8, 46440, Note_on_c, 0, 38, 0
8, 46440, Note_on_c, 0, 33, 127
8, 46500, Note_on_c, 0, 33, 0
8, 46500, Note_on_c, 0, 28, 127
8, 46560, Note_on_c, 0, 28, 0
8, 46560, Note_on_c, 0, 31, 127
8, 46620, Note_on_c, 0, 31, 0
8, 46620, Note_on_c, 0, 31, 127
8, 46680, Note_on_c, 0, 31, 0
8, 46680, Note_on_c, 0, 31, 127
8, 46740, Note_on_c, 0, 31, 0
8, 46740, Note_on_c, 0, 38, 127
8, 46800, Note_on_c, 0, 38, 0
8, 46800, Note_on_c, 0, 31, 127
8, 46860, Note_on_c, 0, 31, 0
8, 46860, Note_on_c, 0, 28, 127
8, 46920, Note_on_c, 0, 28, 0
8, 46920, Note_on_c, 0, 35, 127
8, 47040, Note_on_c, 0, 35, 0
8, 47040, Note_on_c, 0, 35, 127
8, 47100, Note_on_c, 0, 35, 0
8, 47100, Note_on_c, 0, 28, 127
8, 47160, Note_on_c, 0, 28, 0
8, 47160, Note_on_c, 0, 35, 127
8, 47220, Note_on_c, 0, 35, 0
8, 47220, Note_on_c, 0, 28, 127
8, 47280, Note_on_c, 0, 28, 0
8, 47280, Note_on_c, 0, 36, 127
8, 47340, Note_on_c, 0, 36, 0
8, 47340, Note_on_c, 0, 36, 127
8, 47400, Note_on_c, 0, 36, 0
8, 47400, Note_on_c, 0, 36, 127
8, 47460, Note_on_c, 0, 36, 0
8, 47460, Note_on_c, 0, 29, 127
8, 47520, Note_on_c, 0, 29, 0
8, 47520, Note_on_c, 0, 36, 127
8, 47580, Note_on_c, 0, 36, 0
8, 47580, Note_on_c, 0, 28, 127
8, 47640, Note_on_c, 0, 28, 0
8, 47640, Note_on_c, 0, 33, 127
8, 47700, Note_on_c, 0, 33, 0
8, 47700, Note_on_c, 0, 38, 127
8, 47760, Note_on_c, 0, 38, 0
8, 47760, Note_on_c, 0, 45, 127
8, 47820, Note_on_c, 0, 45, 0
8, 47820, Note_on_c, 0, 38, 127
8, 47880, Note_on_c, 0, 38, 0
8, 47880, Note_on_c, 0, 33, 127
8, 47940, Note_on_c, 0, 33, 0
8, 47940, Note_on_c, 0, 28, 127
8, 48000, Note_on_c, 0, 28, 0
8, 48000, Note_on_c, 0, 31, 127
8, 48060, Note_on_c, 0, 31, 0
8, 48060, Note_on_c, 0, 31, 127
8, 48120, Note_on_c, 0, 31, 0
8, 48120, Note_on_c, 0, 31, 127
8, 48180, Note_on_c, 0, 31, 0
8, 48180, Note_on_c, 0, 33, 127
8, 48240, Note_on_c, 0, 33, 0
8, 48240, Note_on_c, 0, 31, 127
8, 48300, Note_on_c, 0, 31, 0
8, 48300, Note_on_c, 0, 28, 127
8, 48360, Note_on_c, 0, 28, 0
8, 48360, Note_on_c, 0, 35, 127
8, 48480, Note_on_c, 0, 35, 0
8, 48480, Note_on_c, 0, 35, 127
8, 48540, Note_on_c, 0, 35, 0
8, 48540, Note_on_c, 0, 28, 127
8, 48600, Note_on_c, 0, 28, 0
8, 48600, Note_on_c, 0, 35, 127
8, 48660, Note_on_c, 0, 35, 0
8, 48660, Note_on_c, 0, 33, 127
8, 48720, Note_on_c, 0, 33, 0
8, 48720, Note_on_c, 0, 36, 127
8, 48780, Note_on_c, 0, 36, 0
8, 48780, Note_on_c, 0, 36, 127
8, 48810, Note_on_c, 0, 36, 0
8, 48810, Note_on_c, 0, 36, 127
8, 48840, Note_on_c, 0, 36, 0
8, 48840, Note_on_c, 0, 36, 127
8, 48900, Note_on_c, 0, 36, 0
8, 48900, Note_on_c, 0, 29, 127
8, 48960, Note_on_c, 0, 29, 0
8, 48960, Note_on_c, 0, 36, 127
8, 49080, Note_on_c, 0, 36, 0
8, 49080, Note_on_c, 0, 40, 127
8, 49140, Note_on_c, 0, 40, 0
8, 49140, Note_on_c, 0, 40, 127
8, 49200, Note_on_c, 0, 40, 0
8, 49200, Note_on_c, 0, 40, 127
8, 49260, Note_on_c, 0, 40, 0
8, 49260, Note_on_c, 0, 45, 127
8, 49320, Note_on_c, 0, 45, 0
8, 49320, Note_on_c, 0, 40, 127
8, 49380, Note_on_c, 0, 40, 0
8, 49380, Note_on_c, 0, 33, 127
8, 49440, Note_on_c, 0, 33, 0
8, 49440, Note_on_c, 0, 38, 127
8, 49500, Note_on_c, 0, 38, 0
8, 49500, Note_on_c, 0, 38, 127
8, 49560, Note_on_c, 0, 38, 0
8, 49560, Note_on_c, 0, 38, 127
8, 49620, Note_on_c, 0, 38, 0
8, 49620, Note_on_c, 0, 45, 127
8, 49680, Note_on_c, 0, 45, 0
8, 49680, Note_on_c, 0, 38, 127
8, 49800, Note_on_c, 0, 38, 0
8, 49800, Note_on_c, 0, 35, 127
8, 49980, Note_on_c, 0, 35, 0
8, 49980, Note_on_c, 0, 28, 127
8, 50040, Note_on_c, 0, 28, 0
8, 50040, Note_on_c, 0, 35, 127
8, 50100, Note_on_c, 0, 35, 0
8, 50100, Note_on_c, 0, 33, 127
8, 50160, Note_on_c, 0, 33, 0
8, 50160, Note_on_c, 0, 36, 127
8, 50220, Note_on_c, 0, 36, 0
8, 50220, Note_on_c, 0, 36, 127
8, 50280, Note_on_c, 0, 36, 0
8, 50280, Note_on_c, 0, 36, 127
8, 50340, Note_on_c, 0, 36, 0
8, 50340, Note_on_c, 0, 29, 127
8, 50400, Note_on_c, 0, 29, 0
8, 50400, Note_on_c, 0, 36, 127
8, 50520, Note_on_c, 0, 36, 0
8, 50520, Note_on_c, 0, 40, 127
8, 50580, Note_on_c, 0, 40, 0
8, 50580, Note_on_c, 0, 40, 127
8, 50640, Note_on_c, 0, 40, 0
8, 50640, Note_on_c, 0, 40, 127
8, 50700, Note_on_c, 0, 40, 0
8, 50700, Note_on_c, 0, 45, 127
8, 50760, Note_on_c, 0, 45, 0
8, 50760, Note_on_c, 0, 40, 127
8, 50820, Note_on_c, 0, 40, 0
8, 50820, Note_on_c, 0, 33, 127
8, 50880, Note_on_c, 0, 33, 0
8, 50880, Note_on_c, 0, 38, 127
8, 50940, Note_on_c, 0, 38, 0
8, 50940, Note_on_c, 0, 38, 127
8, 51000, Note_on_c, 0, 38, 0
8, 51000, Note_on_c, 0, 38, 127
8, 51060, Note_on_c, 0, 38, 0
8, 51060, Note_on_c, 0, 45, 127
8, 51120, Note_on_c, 0, 45, 0
8, 51120, Note_on_c, 0, 38, 127
8, 51240, Note_on_c, 0, 38, 0
8, 51240, Note_on_c, 0, 35, 127
8, 51360, Note_on_c, 0, 35, 0
8, 51360, Note_on_c, 0, 35, 127
8, 51420, Note_on_c, 0, 35, 0
8, 51420, Note_on_c, 0, 33, 127
8, 51480, Note_on_c, 0, 33, 0
8, 51480, Note_on_c, 0, 35, 127
8, 51540, Note_on_c, 0, 35, 0
8, 51540, Note_on_c, 0, 33, 127
8, 51600, Note_on_c, 0, 33, 0
8, 51600, Note_on_c, 0, 36, 127
8, 51660, Note_on_c, 0, 36, 0
8, 51660, Note_on_c, 0, 36, 127
8, 51690, Note_on_c, 0, 36, 0
8, 51690, Note_on_c, 0, 36, 127
8, 51720, Note_on_c, 0, 36, 0
8, 51720, Note_on_c, 0, 36, 127
8, 51780, Note_on_c, 0, 36, 0
8, 51780, Note_on_c, 0, 29, 127
8, 51840, Note_on_c, 0, 29, 0
8, 51840, Note_on_c, 0, 36, 127
8, 51900, Note_on_c, 0, 36, 0
8, 51900, Note_on_c, 0, 28, 127
8, 51960, Note_on_c, 0, 28, 0
8, 51960, Time_signature, 4, 2, 24, 8
8, 51960, Note_on_c, 0, 28, 127
8, 51960, Note_on_c, 0, 40, 127
8, 52920, Note_on_c, 0, 28, 0
8, 52920, Note_on_c, 0, 40, 0
8, 52920, Note_on_c, 0, 28, 127
8, 52940, Note_on_c, 0, 28, 0
8, 52940, Note_on_c, 0, 28, 127
8, 52960, Note_on_c, 0, 28, 0
8, 52960, Note_on_c, 0, 28, 127
8, 52980, Note_on_c, 0, 28, 0
8, 52980, Note_on_c, 0, 28, 127
8, 53000, Note_on_c, 0, 28, 0
8, 53000, Note_on_c, 0, 28, 127
8, 53020, Note_on_c, 0, 28, 0
8, 53020, Note_on_c, 0, 28, 127
8, 53040, Note_on_c, 0, 28, 0
8, 53040, Note_on_c, 0, 40, 127
8, 53040, Note_on_c, 0, 28, 127
8, 53100, Note_on_c, 0, 40, 0
8, 53100, Note_on_c, 0, 28, 0
8, 53160, Note_on_c, 0, 28, 127
8, 53180, Note_on_c, 0, 28, 0
8, 53180, Note_on_c, 0, 28, 127
8, 53200, Note_on_c, 0, 28, 0
8, 53200, Note_on_c, 0, 28, 127
8, 53220, Note_on_c, 0, 28, 0
8, 53220, Note_on_c, 0, 28, 127
8, 53240, Note_on_c, 0, 28, 0
8, 53240, Note_on_c, 0, 28, 127
8, 53260, Note_on_c, 0, 28, 0
8, 53260, Note_on_c, 0, 28, 127
8, 53280, Note_on_c, 0, 28, 0
8, 53280, Note_on_c, 0, 40, 127
8, 53280, Note_on_c, 0, 28, 127
8, 53340, Note_on_c, 0, 40, 0
8, 53340, Note_on_c, 0, 28, 0
8, 53400, Note_on_c, 0, 28, 127
8, 53420, Note_on_c, 0, 28, 0
8, 53420, Note_on_c, 0, 28, 127
8, 53440, Note_on_c, 0, 28, 0
8, 53440, Note_on_c, 0, 28, 127
8, 53460, Note_on_c, 0, 28, 0
8, 53460, Note_on_c, 0, 28, 127
8, 53480, Note_on_c, 0, 28, 0
8, 53480, Note_on_c, 0, 28, 127
8, 53500, Note_on_c, 0, 28, 0
8, 53500, Note_on_c, 0, 28, 127
8, 53520, Note_on_c, 0, 28, 0
8, 53520, Note_on_c, 0, 40, 127
8, 53520, Note_on_c, 0, 28, 127
8, 53580, Note_on_c, 0, 40, 0
8, 53580, Note_on_c, 0, 28, 0
8, 53640, Note_on_c, 0, 28, 127
8, 53660, Note_on_c, 0, 28, 0
8, 53660, Note_on_c, 0, 28, 127
8, 53680, Note_on_c, 0, 28, 0
8, 53680, Note_on_c, 0, 28, 127
8, 53700, Note_on_c, 0, 28, 0
8, 53700, Note_on_c, 0, 28, 127
8, 53720, Note_on_c, 0, 28, 0
8, 53720, Note_on_c, 0, 28, 127
8, 53740, Note_on_c, 0, 28, 0
8, 53740, Note_on_c, 0, 28, 127
8, 53760, Note_on_c, 0, 28, 0
8, 53760, Note_on_c, 0, 40, 127
8, 53760, Note_on_c, 0, 28, 127
8, 53820, Note_on_c, 0, 40, 0
8, 53820, Note_on_c, 0, 28, 0
8, 53880, Note_on_c, 0, 28, 127
8, 53900, Note_on_c, 0, 28, 0
8, 53900, Note_on_c, 0, 28, 127
8, 53920, Note_on_c, 0, 28, 0
8, 53920, Note_on_c, 0, 28, 127
8, 53940, Note_on_c, 0, 28, 0
8, 53940, Note_on_c, 0, 28, 127
8, 53960, Note_on_c, 0, 28, 0
8, 53960, Note_on_c, 0, 28, 127
8, 53980, Note_on_c, 0, 28, 0
8, 53980, Note_on_c, 0, 28, 127
8, 54000, Note_on_c, 0, 28, 0
8, 54000, Note_on_c, 0, 40, 127
8, 54000, Note_on_c, 0, 28, 127
8, 54120, Note_on_c, 0, 40, 0
8, 54120, Note_on_c, 0, 28, 0
8, 54120, Note_on_c, 0, 28, 127
8, 54140, Note_on_c, 0, 28, 0
8, 54140, Note_on_c, 0, 28, 127
8, 54160, Note_on_c, 0, 28, 0
8, 54160, Note_on_c, 0, 28, 127
8, 54180, Note_on_c, 0, 28, 0
8, 54180, Note_on_c, 0, 28, 127
8, 54200, Note_on_c, 0, 28, 0
8, 54200, Note_on_c, 0, 28, 127
8, 54220, Note_on_c, 0, 28, 0
8, 54220, Note_on_c, 0, 28, 127
8, 54240, Note_on_c, 0, 28, 0
8, 54240, Note_on_c, 0, 40, 127
8, 54240, Note_on_c, 0, 28, 127
8, 54300, Note_on_c, 0, 40, 0
8, 54300, Note_on_c, 0, 28, 0
8, 54360, Note_on_c, 0, 28, 127
8, 54380, Note_on_c, 0, 28, 0
8, 54380, Note_on_c, 0, 28, 127
8, 54400, Note_on_c, 0, 28, 0
8, 54400, Note_on_c, 0, 28, 127
8, 54420, Note_on_c, 0, 28, 0
8, 54420, Note_on_c, 0, 28, 127
8, 54440, Note_on_c, 0, 28, 0
8, 54440, Note_on_c, 0, 28, 127
8, 54460, Note_on_c, 0, 28, 0
8, 54460, Note_on_c, 0, 28, 127
8, 54480, Note_on_c, 0, 28, 0
8, 54480, Note_on_c, 0, 40, 127
8, 54480, Note_on_c, 0, 28, 127
8, 54600, Note_on_c, 0, 40, 0
8, 54600, Note_on_c, 0, 28, 0
8, 54600, Note_on_c, 0, 28, 127
8, 54620, Note_on_c, 0, 28, 0
8, 54620, Note_on_c, 0, 28, 127
8, 54640, Note_on_c, 0, 28, 0
8, 54640, Note_on_c, 0, 28, 127
8, 54660, Note_on_c, 0, 28, 0
8, 54660, Note_on_c, 0, 28, 127
8, 54680, Note_on_c, 0, 28, 0
8, 54680, Note_on_c, 0, 28, 127
8, 54700, Note_on_c, 0, 28, 0
8, 54700, Note_on_c, 0, 28, 127
8, 54720, Note_on_c, 0, 28, 0
8, 54720, Note_on_c, 0, 28, 127
8, 54780, Note_on_c, 0, 28, 0
8, 54780, Note_on_c, 0, 29, 127
8, 54840, Note_on_c, 0, 29, 0
8, 54840, Note_on_c, 0, 28, 127
8, 54860, Note_on_c, 0, 28, 0
8, 54860, Note_on_c, 0, 28, 127
8, 54880, Note_on_c, 0, 28, 0
8, 54880, Note_on_c, 0, 28, 127
8, 54900, Note_on_c, 0, 28, 0
8, 54900, Note_on_c, 0, 28, 127
8, 54920, Note_on_c, 0, 28, 0
8, 54920, Note_on_c, 0, 28, 127
8, 54940, Note_on_c, 0, 28, 0
8, 54940, Note_on_c, 0, 28, 127
8, 54960, Note_on_c, 0, 28, 0
8, 54960, Note_on_c, 0, 40, 127
8, 54960, Note_on_c, 0, 28, 127
8, 55080, Note_on_c, 0, 40, 0
8, 55080, Note_on_c, 0, 28, 0
8, 55080, Note_on_c, 0, 28, 127
8, 55100, Note_on_c, 0, 28, 0
8, 55100, Note_on_c, 0, 28, 127
8, 55120, Note_on_c, 0, 28, 0
8, 55120, Note_on_c, 0, 28, 127
8, 55140, Note_on_c, 0, 28, 0
8, 55140, Note_on_c, 0, 28, 127
8, 55160, Note_on_c, 0, 28, 0
8, 55160, Note_on_c, 0, 28, 127
8, 55180, Note_on_c, 0, 28, 0
8, 55180, Note_on_c, 0, 28, 127
8, 55200, Note_on_c, 0, 28, 0
8, 55200, Note_on_c, 0, 28, 127
8, 55260, Note_on_c, 0, 28, 0
8, 55260, Note_on_c, 0, 29, 127
8, 55320, Note_on_c, 0, 29, 0
8, 55320, Note_on_c, 0, 28, 127
8, 55340, Note_on_c, 0, 28, 0
8, 55340, Note_on_c, 0, 28, 127
8, 55360, Note_on_c, 0, 28, 0
8, 55360, Note_on_c, 0, 28, 127
8, 55380, Note_on_c, 0, 28, 0
8, 55380, Note_on_c, 0, 28, 127
8, 55400, Note_on_c, 0, 28, 0
8, 55400, Note_on_c, 0, 28, 127
8, 55420, Note_on_c, 0, 28, 0
8, 55420, Note_on_c, 0, 28, 127
8, 55440, Note_on_c, 0, 28, 0
8, 55440, Note_on_c, 0, 40, 127
8, 55440, Note_on_c, 0, 28, 127
8, 55560, Note_on_c, 0, 40, 0
8, 55560, Note_on_c, 0, 28, 0
8, 55560, Note_on_c, 0, 28, 127
8, 55580, Note_on_c, 0, 28, 0
8, 55580, Note_on_c, 0, 28, 127
8, 55600, Note_on_c, 0, 28, 0
8, 55600, Note_on_c, 0, 28, 127
8, 55620, Note_on_c, 0, 28, 0
8, 55620, Note_on_c, 0, 28, 127
8, 55640, Note_on_c, 0, 28, 0
8, 55640, Note_on_c, 0, 28, 127
8, 55660, Note_on_c, 0, 28, 0
8, 55660, Note_on_c, 0, 28, 127
8, 55680, Note_on_c, 0, 28, 0
8, 55680, Note_on_c, 0, 28, 127
8, 55740, Note_on_c, 0, 28, 0
8, 55740, Note_on_c, 0, 29, 127
8, 55800, Note_on_c, 0, 29, 0
8, 55800, Note_on_c, 0, 28, 127
8, 55820, Note_on_c, 0, 28, 0
8, 55820, Note_on_c, 0, 28, 127
8, 55840, Note_on_c, 0, 28, 0
8, 55840, Note_on_c, 0, 28, 127
8, 55860, Note_on_c, 0, 28, 0
8, 55860, Note_on_c, 0, 28, 127
8, 55880, Note_on_c, 0, 28, 0
8, 55880, Note_on_c, 0, 28, 127
8, 55900, Note_on_c, 0, 28, 0
8, 55900, Note_on_c, 0, 28, 127
8, 55920, Note_on_c, 0, 28, 0
8, 55920, Note_on_c, 0, 40, 127
8, 55920, Note_on_c, 0, 28, 127
8, 56040, Note_on_c, 0, 40, 0
8, 56040, Note_on_c, 0, 28, 0
8, 56040, Note_on_c, 0, 28, 127
8, 56060, Note_on_c, 0, 28, 0
8, 56060, Note_on_c, 0, 28, 127
8, 56080, Note_on_c, 0, 28, 0
8, 56080, Note_on_c, 0, 28, 127
8, 56100, Note_on_c, 0, 28, 0
8, 56100, Note_on_c, 0, 28, 127
8, 56120, Note_on_c, 0, 28, 0
8, 56120, Note_on_c, 0, 28, 127
8, 56140, Note_on_c, 0, 28, 0
8, 56140, Note_on_c, 0, 28, 127
8, 56160, Note_on_c, 0, 28, 0
8, 56160, Note_on_c, 0, 28, 127
8, 56220, Note_on_c, 0, 28, 0
8, 56220, Note_on_c, 0, 29, 127
8, 56280, Note_on_c, 0, 29, 0
8, 56280, Note_on_c, 0, 28, 127
8, 56300, Note_on_c, 0, 28, 0
8, 56300, Note_on_c, 0, 28, 127
8, 56320, Note_on_c, 0, 28, 0
8, 56320, Note_on_c, 0, 28, 127
8, 56340, Note_on_c, 0, 28, 0
8, 56340, Note_on_c, 0, 28, 127
8, 56360, Note_on_c, 0, 28, 0
8, 56360, Note_on_c, 0, 28, 127
8, 56380, Note_on_c, 0, 28, 0
8, 56380, Note_on_c, 0, 28, 127
8, 56400, Note_on_c, 0, 28, 0
8, 56400, Note_on_c, 0, 40, 127
8, 56400, Note_on_c, 0, 28, 127
8, 56520, Note_on_c, 0, 40, 0
8, 56520, Note_on_c, 0, 28, 0
8, 56520, Note_on_c, 0, 28, 127
8, 56540, Note_on_c, 0, 28, 0
8, 56540, Note_on_c, 0, 28, 127
8, 56560, Note_on_c, 0, 28, 0
8, 56560, Note_on_c, 0, 28, 127
8, 56580, Note_on_c, 0, 28, 0
8, 56580, Note_on_c, 0, 28, 127
8, 56600, Note_on_c, 0, 28, 0
8, 56600, Note_on_c, 0, 28, 127
8, 56620, Note_on_c, 0, 28, 0
8, 56620, Note_on_c, 0, 28, 127
8, 56640, Note_on_c, 0, 28, 0
8, 56640, Note_on_c, 0, 28, 127
8, 56700, Note_on_c, 0, 28, 0
8, 56700, Note_on_c, 0, 29, 127
8, 56760, Note_on_c, 0, 29, 0
8, 56760, Note_on_c, 0, 28, 127
8, 56780, Note_on_c, 0, 28, 0
8, 56780, Note_on_c, 0, 28, 127
8, 56800, Note_on_c, 0, 28, 0
8, 56800, Note_on_c, 0, 28, 127
8, 56820, Note_on_c, 0, 28, 0
8, 56820, Note_on_c, 0, 28, 127
8, 56840, Note_on_c, 0, 28, 0
8, 56840, Note_on_c, 0, 28, 127
8, 56860, Note_on_c, 0, 28, 0
8, 56860, Note_on_c, 0, 28, 127
8, 56880, Note_on_c, 0, 28, 0
8, 56880, Note_on_c, 0, 40, 127
8, 56880, Note_on_c, 0, 28, 127
8, 56940, Note_on_c, 0, 40, 0
8, 56940, Note_on_c, 0, 28, 0
8, 57000, Note_on_c, 0, 28, 127
8, 57020, Note_on_c, 0, 28, 0
8, 57020, Note_on_c, 0, 28, 127
8, 57040, Note_on_c, 0, 28, 0
8, 57040, Note_on_c, 0, 28, 127
8, 57060, Note_on_c, 0, 28, 0
8, 57060, Note_on_c, 0, 28, 127
8, 57080, Note_on_c, 0, 28, 0
8, 57080, Note_on_c, 0, 28, 127
8, 57100, Note_on_c, 0, 28, 0
8, 57100, Note_on_c, 0, 28, 127
8, 57120, Note_on_c, 0, 28, 0
8, 57120, Note_on_c, 0, 40, 127
8, 57120, Note_on_c, 0, 28, 127
8, 57180, Note_on_c, 0, 40, 0
8, 57180, Note_on_c, 0, 28, 0
8, 57240, Note_on_c, 0, 28, 127
8, 57260, Note_on_c, 0, 28, 0
8, 57260, Note_on_c, 0, 28, 127
8, 57280, Note_on_c, 0, 28, 0
8, 57280, Note_on_c, 0, 28, 127
8, 57300, Note_on_c, 0, 28, 0
8, 57300, Note_on_c, 0, 28, 127
8, 57320, Note_on_c, 0, 28, 0
8, 57320, Note_on_c, 0, 28, 127
8, 57340, Note_on_c, 0, 28, 0
8, 57340, Note_on_c, 0, 28, 127
8, 57360, Note_on_c, 0, 28, 0
8, 57360, Note_on_c, 0, 40, 127
8, 57360, Note_on_c, 0, 28, 127
8, 57420, Note_on_c, 0, 40, 0
8, 57420, Note_on_c, 0, 28, 0
8, 57480, Note_on_c, 0, 28, 127
8, 57500, Note_on_c, 0, 28, 0
8, 57500, Note_on_c, 0, 28, 127
8, 57520, Note_on_c, 0, 28, 0
8, 57520, Note_on_c, 0, 28, 127
8, 57540, Note_on_c, 0, 28, 0
8, 57540, Note_on_c, 0, 28, 127
8, 57560, Note_on_c, 0, 28, 0
8, 57560, Note_on_c, 0, 28, 127
8, 57580, Note_on_c, 0, 28, 0
8, 57580, Note_on_c, 0, 28, 127
8, 57600, Note_on_c, 0, 28, 0
8, 57600, Note_on_c, 0, 28, 127
8, 57660, Note_on_c, 0, 28, 0
8, 57660, Note_on_c, 0, 29, 127
8, 57720, Note_on_c, 0, 29, 0
8, 57720, Note_on_c, 0, 28, 127
8, 57740, Note_on_c, 0, 28, 0
8, 57740, Note_on_c, 0, 28, 127
8, 57760, Note_on_c, 0, 28, 0
8, 57760, Note_on_c, 0, 28, 127
8, 57780, Note_on_c, 0, 28, 0
8, 57780, Note_on_c, 0, 28, 127
8, 57800, Note_on_c, 0, 28, 0
8, 57800, Note_on_c, 0, 28, 127
8, 57820, Note_on_c, 0, 28, 0
8, 57820, Note_on_c, 0, 28, 127
8, 57840, Note_on_c, 0, 28, 0
8, 57840, Note_on_c, 0, 40, 127
8, 57840, Note_on_c, 0, 28, 127
8, 57900, Note_on_c, 0, 40, 0
8, 57900, Note_on_c, 0, 28, 0
8, 57960, Note_on_c, 0, 28, 127
8, 57980, Note_on_c, 0, 28, 0
8, 57980, Note_on_c, 0, 28, 127
8, 58000, Note_on_c, 0, 28, 0
8, 58000, Note_on_c, 0, 28, 127
8, 58020, Note_on_c, 0, 28, 0
8, 58020, Note_on_c, 0, 28, 127
8, 58040, Note_on_c, 0, 28, 0
8, 58040, Note_on_c, 0, 28, 127
8, 58060, Note_on_c, 0, 28, 0
8, 58060, Note_on_c, 0, 28, 127
8, 58080, Note_on_c, 0, 28, 0
8, 58080, Note_on_c, 0, 40, 127
8, 58080, Note_on_c, 0, 28, 127
8, 58140, Note_on_c, 0, 40, 0
8, 58140, Note_on_c, 0, 28, 0
8, 58200, Note_on_c, 0, 28, 127
8, 58220, Note_on_c, 0, 28, 0
8, 58220, Note_on_c, 0, 28, 127
8, 58240, Note_on_c, 0, 28, 0
8, 58240, Note_on_c, 0, 28, 127
8, 58260, Note_on_c, 0, 28, 0
8, 58260, Note_on_c, 0, 28, 127
8, 58280, Note_on_c, 0, 28, 0
8, 58280, Note_on_c, 0, 28, 127
8, 58300, Note_on_c, 0, 28, 0
8, 58300, Note_on_c, 0, 28, 127
8, 58320, Note_on_c, 0, 28, 0
8, 58320, Note_on_c, 0, 40, 127
8, 58320, Note_on_c, 0, 28, 127
8, 58380, Note_on_c, 0, 40, 0
8, 58380, Note_on_c, 0, 28, 0
8, 58440, Note_on_c, 0, 28, 127
8, 58460, Note_on_c, 0, 28, 0
8, 58460, Note_on_c, 0, 28, 127
8, 58480, Note_on_c, 0, 28, 0
8, 58480, Note_on_c, 0, 28, 127
8, 58500, Note_on_c, 0, 28, 0
8, 58500, Note_on_c, 0, 28, 127
8, 58520, Note_on_c, 0, 28, 0
8, 58520, Note_on_c, 0, 28, 127
8, 58540, Note_on_c, 0, 28, 0
8, 58540, Note_on_c, 0, 28, 127
8, 58560, Note_on_c, 0, 28, 0
8, 58560, Note_on_c, 0, 28, 127
8, 58620, Note_on_c, 0, 28, 0
8, 58620, Note_on_c, 0, 29, 127
8, 58680, Note_on_c, 0, 29, 0
8, 58680, Note_on_c, 0, 28, 127
8, 58700, Note_on_c, 0, 28, 0
8, 58700, Note_on_c, 0, 28, 127
8, 58720, Note_on_c, 0, 28, 0
8, 58720, Note_on_c, 0, 28, 127
8, 58740, Note_on_c, 0, 28, 0
8, 58740, Note_on_c, 0, 28, 127
8, 58760, Note_on_c, 0, 28, 0
8, 58760, Note_on_c, 0, 28, 127
8, 58780, Note_on_c, 0, 28, 0
8, 58780, Note_on_c, 0, 28, 127
8, 58800, Note_on_c, 0, 28, 0
8, 58800, Note_on_c, 0, 40, 127
8, 58920, Note_on_c, 0, 40, 0
8, 58920, Note_on_c, 0, 28, 127
8, 58940, Note_on_c, 0, 28, 0
8, 58940, Note_on_c, 0, 28, 127
8, 58960, Note_on_c, 0, 28, 0
8, 58960, Note_on_c, 0, 28, 127
8, 58980, Note_on_c, 0, 28, 0
8, 58980, Note_on_c, 0, 28, 127
8, 59000, Note_on_c, 0, 28, 0
8, 59000, Note_on_c, 0, 28, 127
8, 59020, Note_on_c, 0, 28, 0
8, 59020, Note_on_c, 0, 28, 127
8, 59040, Note_on_c, 0, 28, 0
8, 59040, Note_on_c, 0, 40, 127
8, 59100, Note_on_c, 0, 40, 0
8, 59100, Note_on_c, 0, 41, 127
8, 59160, Note_on_c, 0, 41, 0
8, 59160, Note_on_c, 0, 28, 127
8, 59180, Note_on_c, 0, 28, 0
8, 59180, Note_on_c, 0, 28, 127
8, 59200, Note_on_c, 0, 28, 0
8, 59200, Note_on_c, 0, 28, 127
8, 59220, Note_on_c, 0, 28, 0
8, 59220, Note_on_c, 0, 28, 127
8, 59240, Note_on_c, 0, 28, 0
8, 59240, Note_on_c, 0, 28, 127
8, 59260, Note_on_c, 0, 28, 0
8, 59260, Note_on_c, 0, 28, 127
8, 59280, Note_on_c, 0, 28, 0
8, 59280, Note_on_c, 0, 38, 127
8, 59400, Note_on_c, 0, 38, 0
8, 59400, Note_on_c, 0, 28, 127
8, 59420, Note_on_c, 0, 28, 0
8, 59420, Note_on_c, 0, 28, 127
8, 59440, Note_on_c, 0, 28, 0
8, 59440, Note_on_c, 0, 28, 127
8, 59460, Note_on_c, 0, 28, 0
8, 59460, Note_on_c, 0, 28, 127
8, 59480, Note_on_c, 0, 28, 0
8, 59480, Note_on_c, 0, 28, 127
8, 59500, Note_on_c, 0, 28, 0
8, 59500, Note_on_c, 0, 28, 127
8, 59520, Note_on_c, 0, 28, 0
8, 59520, Note_on_c, 0, 38, 127
8, 59580, Note_on_c, 0, 38, 0
8, 59580, Note_on_c, 0, 41, 127
8, 59640, Note_on_c, 0, 41, 0
8, 59640, Note_on_c, 0, 28, 127
8, 59660, Note_on_c, 0, 28, 0
8, 59660, Note_on_c, 0, 28, 127
8, 59680, Note_on_c, 0, 28, 0
8, 59680, Note_on_c, 0, 28, 127
8, 59700, Note_on_c, 0, 28, 0
8, 59700, Note_on_c, 0, 28, 127
8, 59720, Note_on_c, 0, 28, 0
8, 59720, Note_on_c, 0, 28, 127
8, 59740, Note_on_c, 0, 28, 0
8, 59740, Note_on_c, 0, 28, 127
8, 59760, Note_on_c, 0, 28, 0
8, 59760, Note_on_c, 0, 40, 127
8, 59880, Note_on_c, 0, 40, 0
8, 59880, Note_on_c, 0, 28, 127
8, 59900, Note_on_c, 0, 28, 0
8, 59900, Note_on_c, 0, 28, 127
8, 59920, Note_on_c, 0, 28, 0
8, 59920, Note_on_c, 0, 28, 127
8, 59940, Note_on_c, 0, 28, 0
8, 59940, Note_on_c, 0, 28, 127
8, 59960, Note_on_c, 0, 28, 0
8, 59960, Note_on_c, 0, 28, 127
8, 59980, Note_on_c, 0, 28, 0
8, 59980, Note_on_c, 0, 28, 127
8, 60000, Note_on_c, 0, 28, 0
8, 60000, Note_on_c, 0, 40, 127
8, 60060, Note_on_c, 0, 40, 0
8, 60060, Note_on_c, 0, 41, 127
8, 60120, Note_on_c, 0, 41, 0
8, 60120, Note_on_c, 0, 28, 127
8, 60140, Note_on_c, 0, 28, 0
8, 60140, Note_on_c, 0, 28, 127
8, 60160, Note_on_c, 0, 28, 0
8, 60160, Note_on_c, 0, 28, 127
8, 60180, Note_on_c, 0, 28, 0
8, 60180, Note_on_c, 0, 28, 127
8, 60200, Note_on_c, 0, 28, 0
8, 60200, Note_on_c, 0, 28, 127
8, 60220, Note_on_c, 0, 28, 0
8, 60220, Note_on_c, 0, 28, 127
8, 60240, Note_on_c, 0, 28, 0
8, 60240, Note_on_c, 0, 38, 127
8, 60360, Note_on_c, 0, 38, 0
8, 60360, Note_on_c, 0, 28, 127
8, 60380, Note_on_c, 0, 28, 0
8, 60380, Note_on_c, 0, 28, 127
8, 60400, Note_on_c, 0, 28, 0
8, 60400, Note_on_c, 0, 28, 127
8, 60420, Note_on_c, 0, 28, 0
8, 60420, Note_on_c, 0, 28, 127
8, 60440, Note_on_c, 0, 28, 0
8, 60440, Note_on_c, 0, 28, 127
8, 60460, Note_on_c, 0, 28, 0
8, 60460, Note_on_c, 0, 28, 127
8, 60480, Note_on_c, 0, 28, 0
8, 60480, Note_on_c, 0, 35, 127
8, 60540, Note_on_c, 0, 35, 0
8, 60540, Note_on_c, 0, 29, 127
8, 60600, Note_on_c, 0, 29, 0
8, 60600, Note_on_c, 0, 28, 127
8, 60620, Note_on_c, 0, 28, 0
8, 60620, Note_on_c, 0, 28, 127
8, 60640, Note_on_c, 0, 28, 0
8, 60640, Note_on_c, 0, 28, 127
8, 60660, Note_on_c, 0, 28, 0
8, 60660, Note_on_c, 0, 28, 127
8, 60680, Note_on_c, 0, 28, 0
8, 60680, Note_on_c, 0, 28, 127
8, 60700, Note_on_c, 0, 28, 0
8, 60700, Note_on_c, 0, 28, 127
8, 60720, Note_on_c, 0, 28, 0
8, 60720, Note_on_c, 0, 40, 127
8, 60720, Note_on_c, 0, 28, 127
8, 60780, Note_on_c, 0, 40, 0
8, 60780, Note_on_c, 0, 28, 0
8, 60840, Note_on_c, 0, 28, 127
8, 60860, Note_on_c, 0, 28, 0
8, 60860, Note_on_c, 0, 28, 127
8, 60880, Note_on_c, 0, 28, 0
8, 60880, Note_on_c, 0, 28, 127
8, 60900, Note_on_c, 0, 28, 0
8, 60900, Note_on_c, 0, 28, 127
8, 60920, Note_on_c, 0, 28, 0
8, 60920, Note_on_c, 0, 28, 127
8, 60940, Note_on_c, 0, 28, 0
8, 60940, Note_on_c, 0, 28, 127
8, 60960, Note_on_c, 0, 28, 0
8, 60960, Note_on_c, 0, 40, 127
8, 60960, Note_on_c, 0, 28, 127
8, 61020, Note_on_c, 0, 40, 0
8, 61020, Note_on_c, 0, 28, 0
8, 61080, Note_on_c, 0, 28, 127
8, 61100, Note_on_c, 0, 28, 0
8, 61100, Note_on_c, 0, 28, 127
8, 61120, Note_on_c, 0, 28, 0
8, 61120, Note_on_c, 0, 28, 127
8, 61140, Note_on_c, 0, 28, 0
8, 61140, Note_on_c, 0, 28, 127
8, 61160, Note_on_c, 0, 28, 0
8, 61160, Note_on_c, 0, 28, 127
8, 61180, Note_on_c, 0, 28, 0
8, 61180, Note_on_c, 0, 28, 127
8, 61200, Note_on_c, 0, 28, 0
8, 61200, Note_on_c, 0, 40, 127
8, 61200, Note_on_c, 0, 28, 127
8, 61260, Note_on_c, 0, 40, 0
8, 61260, Note_on_c, 0, 28, 0
8, 61320, Note_on_c, 0, 28, 127
8, 61340, Note_on_c, 0, 28, 0
8, 61340, Note_on_c, 0, 28, 127
8, 61360, Note_on_c, 0, 28, 0
8, 61360, Note_on_c, 0, 28, 127
8, 61380, Note_on_c, 0, 28, 0
8, 61380, Note_on_c, 0, 28, 127
8, 61400, Note_on_c, 0, 28, 0
8, 61400, Note_on_c, 0, 28, 127
8, 61420, Note_on_c, 0, 28, 0
8, 61420, Note_on_c, 0, 28, 127
8, 61440, Note_on_c, 0, 28, 0
8, 61440, Note_on_c, 0, 28, 127
8, 61500, Note_on_c, 0, 28, 0
8, 61500, Note_on_c, 0, 29, 127
8, 61560, Note_on_c, 0, 29, 0
8, 61560, Note_on_c, 0, 28, 127
8, 61580, Note_on_c, 0, 28, 0
8, 61580, Note_on_c, 0, 28, 127
8, 61600, Note_on_c, 0, 28, 0
8, 61600, Note_on_c, 0, 28, 127
8, 61620, Note_on_c, 0, 28, 0
8, 61620, Note_on_c, 0, 28, 127
8, 61640, Note_on_c, 0, 28, 0
8, 61640, Note_on_c, 0, 28, 127
8, 61660, Note_on_c, 0, 28, 0
8, 61660, Note_on_c, 0, 28, 127
8, 61680, Note_on_c, 0, 28, 0
8, 61680, Note_on_c, 0, 40, 127
8, 61680, Note_on_c, 0, 28, 127
8, 61740, Note_on_c, 0, 40, 0
8, 61740, Note_on_c, 0, 28, 0
8, 61800, Note_on_c, 0, 28, 127
8, 61820, Note_on_c, 0, 28, 0
8, 61820, Note_on_c, 0, 28, 127
8, 61840, Note_on_c, 0, 28, 0
8, 61840, Note_on_c, 0, 28, 127
8, 61860, Note_on_c, 0, 28, 0
8, 61860, Note_on_c, 0, 28, 127
8, 61880, Note_on_c, 0, 28, 0
8, 61880, Note_on_c, 0, 28, 127
8, 61900, Note_on_c, 0, 28, 0
8, 61900, Note_on_c, 0, 28, 127
8, 61920, Note_on_c, 0, 28, 0
8, 61920, Note_on_c, 0, 40, 127
8, 61920, Note_on_c, 0, 28, 127
8, 61980, Note_on_c, 0, 40, 0
8, 61980, Note_on_c, 0, 28, 0
8, 62040, Note_on_c, 0, 28, 127
8, 62060, Note_on_c, 0, 28, 0
8, 62060, Note_on_c, 0, 28, 127
8, 62080, Note_on_c, 0, 28, 0
8, 62080, Note_on_c, 0, 28, 127
8, 62100, Note_on_c, 0, 28, 0
8, 62100, Note_on_c, 0, 28, 127
8, 62120, Note_on_c, 0, 28, 0
8, 62120, Note_on_c, 0, 28, 127
8, 62140, Note_on_c, 0, 28, 0
8, 62140, Note_on_c, 0, 28, 127
8, 62160, Note_on_c, 0, 28, 0
8, 62160, Note_on_c, 0, 40, 127
8, 62160, Note_on_c, 0, 28, 127
8, 62220, Note_on_c, 0, 40, 0
8, 62220, Note_on_c, 0, 28, 0
8, 62280, Note_on_c, 0, 28, 127
8, 62300, Note_on_c, 0, 28, 0
8, 62300, Note_on_c, 0, 28, 127
8, 62320, Note_on_c, 0, 28, 0
8, 62320, Note_on_c, 0, 28, 127
8, 62340, Note_on_c, 0, 28, 0
8, 62340, Note_on_c, 0, 28, 127
8, 62360, Note_on_c, 0, 28, 0
8, 62360, Note_on_c, 0, 28, 127
8, 62380, Note_on_c, 0, 28, 0
8, 62380, Note_on_c, 0, 28, 127
8, 62400, Note_on_c, 0, 28, 0
8, 62400, Note_on_c, 0, 28, 127
8, 62460, Note_on_c, 0, 28, 0
8, 62460, Note_on_c, 0, 29, 127
8, 62520, Note_on_c, 0, 29, 0
8, 62520, Note_on_c, 0, 28, 127
8, 62560, Note_on_c, 0, 28, 0
8, 62560, Note_on_c, 0, 28, 127
8, 62600, Note_on_c, 0, 28, 0
8, 62600, Note_on_c, 0, 28, 127
8, 62640, Note_on_c, 0, 28, 0
8, 62640, Note_on_c, 0, 28, 127
8, 62680, Note_on_c, 0, 28, 0
8, 62680, Note_on_c, 0, 28, 127
8, 62720, Note_on_c, 0, 28, 0
8, 62720, Note_on_c, 0, 28, 127
8, 62760, Note_on_c, 0, 28, 0
8, 62760, Note_on_c, 0, 35, 127
8, 62880, Note_on_c, 0, 35, 0
8, 62880, Note_on_c, 0, 28, 127
8, 62920, Note_on_c, 0, 28, 0
8, 62920, Note_on_c, 0, 28, 127
8, 62960, Note_on_c, 0, 28, 0
8, 62960, Note_on_c, 0, 28, 127
8, 63000, Note_on_c, 0, 28, 0
8, 63000, Note_on_c, 0, 28, 127
8, 63040, Note_on_c, 0, 28, 0
8, 63040, Note_on_c, 0, 28, 127
8, 63080, Note_on_c, 0, 28, 0
8, 63080, Note_on_c, 0, 28, 127
8, 63120, Note_on_c, 0, 28, 0
8, 63120, Note_on_c, 0, 35, 127
8, 63240, Note_on_c, 0, 35, 0
8, 63240, Note_on_c, 0, 28, 127
8, 63280, Note_on_c, 0, 28, 0
8, 63280, Note_on_c, 0, 28, 127
8, 63320, Note_on_c, 0, 28, 0
8, 63320, Note_on_c, 0, 28, 127
8, 63360, Note_on_c, 0, 28, 0
8, 63360, Note_on_c, 0, 36, 127
8, 63480, Note_on_c, 0, 36, 0
8, 63480, Note_on_c, 0, 28, 127
8, 63520, Note_on_c, 0, 28, 0
8, 63520, Note_on_c, 0, 28, 127
8, 63560, Note_on_c, 0, 28, 0
8, 63560, Note_on_c, 0, 28, 127
8, 63600, Note_on_c, 0, 28, 0
8, 63600, Note_on_c, 0, 28, 127
8, 63640, Note_on_c, 0, 28, 0
8, 63640, Note_on_c, 0, 28, 127
8, 63680, Note_on_c, 0, 28, 0
8, 63680, Note_on_c, 0, 28, 127
8, 63720, Note_on_c, 0, 28, 0
8, 63720, Note_on_c, 0, 35, 127
8, 63840, Note_on_c, 0, 35, 0
8, 63840, Note_on_c, 0, 28, 127
8, 63880, Note_on_c, 0, 28, 0
8, 63880, Note_on_c, 0, 28, 127
8, 63920, Note_on_c, 0, 28, 0
8, 63920, Note_on_c, 0, 28, 127
8, 63960, Note_on_c, 0, 28, 0
8, 63960, Note_on_c, 0, 28, 127
8, 64000, Note_on_c, 0, 28, 0
8, 64000, Note_on_c, 0, 28, 127
8, 64040, Note_on_c, 0, 28, 0
8, 64040, Note_on_c, 0, 28, 127
8, 64080, Note_on_c, 0, 28, 0
8, 64080, Note_on_c, 0, 35, 127
8, 64200, Note_on_c, 0, 35, 0
8, 64200, Note_on_c, 0, 28, 127
8, 64240, Note_on_c, 0, 28, 0
8, 64240, Note_on_c, 0, 28, 127
8, 64280, Note_on_c, 0, 28, 0
8, 64280, Note_on_c, 0, 28, 127
8, 64320, Note_on_c, 0, 28, 0
8, 64320, Note_on_c, 0, 36, 127
8, 64440, Note_on_c, 0, 36, 0
8, 64440, Note_on_c, 0, 28, 127
8, 64480, Note_on_c, 0, 28, 0
8, 64480, Note_on_c, 0, 28, 127
8, 64520, Note_on_c, 0, 28, 0
8, 64520, Note_on_c, 0, 28, 127
8, 64560, Note_on_c, 0, 28, 0
8, 64560, Note_on_c, 0, 28, 127
8, 64600, Note_on_c, 0, 28, 0
8, 64600, Note_on_c, 0, 28, 127
8, 64640, Note_on_c, 0, 28, 0
8, 64640, Note_on_c, 0, 28, 127
8, 64680, Note_on_c, 0, 28, 0
8, 64680, Note_on_c, 0, 35, 127
8, 64800, Note_on_c, 0, 35, 0
8, 64800, Note_on_c, 0, 28, 127
8, 64840, Note_on_c, 0, 28, 0
8, 64840, Note_on_c, 0, 28, 127
8, 64880, Note_on_c, 0, 28, 0
8, 64880, Note_on_c, 0, 28, 127
8, 64920, Note_on_c, 0, 28, 0
8, 64920, Note_on_c, 0, 28, 127
8, 64960, Note_on_c, 0, 28, 0
8, 64960, Note_on_c, 0, 28, 127
8, 65000, Note_on_c, 0, 28, 0
8, 65000, Note_on_c, 0, 28, 127
8, 65040, Note_on_c, 0, 28, 0
8, 65040, Note_on_c, 0, 35, 127
8, 65160, Note_on_c, 0, 35, 0
8, 65160, Note_on_c, 0, 28, 127
8, 65200, Note_on_c, 0, 28, 0
8, 65200, Note_on_c, 0, 28, 127
8, 65240, Note_on_c, 0, 28, 0
8, 65240, Note_on_c, 0, 28, 127
8, 65280, Note_on_c, 0, 28, 0
8, 65280, Note_on_c, 0, 36, 127
8, 65400, Note_on_c, 0, 36, 0
8, 65400, Note_on_c, 0, 28, 127
8, 65440, Note_on_c, 0, 28, 0
8, 65440, Note_on_c, 0, 28, 127
8, 65480, Note_on_c, 0, 28, 0
8, 65480, Note_on_c, 0, 28, 127
8, 65520, Note_on_c, 0, 28, 0
8, 65520, Note_on_c, 0, 28, 127
8, 65560, Note_on_c, 0, 28, 0
8, 65560, Note_on_c, 0, 28, 127
8, 65600, Note_on_c, 0, 28, 0
8, 65600, Note_on_c, 0, 28, 127
8, 65640, Note_on_c, 0, 28, 0
8, 65640, Note_on_c, 0, 35, 127
8, 65760, Note_on_c, 0, 35, 0
8, 65760, Note_on_c, 0, 28, 127
8, 65800, Note_on_c, 0, 28, 0
8, 65800, Note_on_c, 0, 28, 127
8, 65840, Note_on_c, 0, 28, 0
8, 65840, Note_on_c, 0, 28, 127
8, 65880, Note_on_c, 0, 28, 0
8, 65880, Note_on_c, 0, 28, 127
8, 65920, Note_on_c, 0, 28, 0
8, 65920, Note_on_c, 0, 28, 127
8, 65960, Note_on_c, 0, 28, 0
8, 65960, Note_on_c, 0, 28, 127
8, 66000, Note_on_c, 0, 28, 0
8, 66000, Note_on_c, 0, 35, 127
8, 66120, Note_on_c, 0, 35, 0
8, 66120, Note_on_c, 0, 28, 127
8, 66160, Note_on_c, 0, 28, 0
8, 66160, Note_on_c, 0, 28, 127
8, 66200, Note_on_c, 0, 28, 0
8, 66200, Note_on_c, 0, 28, 127
8, 66240, Note_on_c, 0, 28, 0
8, 66240, Note_on_c, 0, 36, 127
8, 66360, Note_on_c, 0, 36, 0
8, 66360, Note_on_c, 0, 40, 127
8, 66360, Note_on_c, 0, 28, 127
8, 66400, Note_on_c, 0, 40, 0
8, 66400, Note_on_c, 0, 28, 0
8, 66400, Note_on_c, 0, 40, 127
8, 66400, Note_on_c, 0, 28, 127
8, 66440, Note_on_c, 0, 40, 0
8, 66440, Note_on_c, 0, 28, 0
8, 66440, Note_on_c, 0, 40, 127
8, 66440, Note_on_c, 0, 28, 127
8, 66480, Note_on_c, 0, 40, 0
8, 66480, Note_on_c, 0, 28, 0
8, 66480, Note_on_c, 0, 40, 127
8, 66480, Note_on_c, 0, 28, 127
8, 66520, Note_on_c, 0, 40, 0
8, 66520, Note_on_c, 0, 28, 0
8, 66520, Note_on_c, 0, 40, 127
8, 66520, Note_on_c, 0, 28, 127
8, 66560, Note_on_c, 0, 40, 0
8, 66560, Note_on_c, 0, 28, 0
8, 66560, Note_on_c, 0, 40, 127
8, 66560, Note_on_c, 0, 28, 127
8, 66600, Note_on_c, 0, 40, 0
8, 66600, Note_on_c, 0, 28, 0
8, 66600, Note_on_c, 0, 40, 127
8, 66600, Note_on_c, 0, 28, 127
8, 66660, Note_on_c, 0, 40, 0
8, 66660, Note_on_c, 0, 28, 0
8, 66720, Note_on_c, 0, 40, 127
8, 66720, Note_on_c, 0, 28, 127
8, 66760, Note_on_c, 0, 40, 0
8, 66760, Note_on_c, 0, 28, 0
8, 66760, Note_on_c, 0, 40, 127
8, 66760, Note_on_c, 0, 28, 127
8, 66800, Note_on_c, 0, 40, 0
8, 66800, Note_on_c, 0, 28, 0
8, 66800, Note_on_c, 0, 40, 127
8, 66800, Note_on_c, 0, 28, 127
8, 66840, Note_on_c, 0, 40, 0
8, 66840, Note_on_c, 0, 28, 0
8, 66840, Note_on_c, 0, 40, 127
8, 66840, Note_on_c, 0, 28, 127
8, 66880, Note_on_c, 0, 40, 0
8, 66880, Note_on_c, 0, 28, 0
8, 66880, Note_on_c, 0, 40, 127
8, 66880, Note_on_c, 0, 28, 127
8, 66920, Note_on_c, 0, 40, 0
8, 66920, Note_on_c, 0, 28, 0
8, 66920, Note_on_c, 0, 40, 127
8, 66920, Note_on_c, 0, 28, 127
8, 66960, Note_on_c, 0, 40, 0
8, 66960, Note_on_c, 0, 28, 0
8, 66960, Note_on_c, 0, 40, 127
8, 66960, Note_on_c, 0, 28, 127
8, 67020, Note_on_c, 0, 40, 0
8, 67020, Note_on_c, 0, 28, 0
8, 67080, Note_on_c, 0, 40, 127
8, 67080, Note_on_c, 0, 28, 127
8, 67120, Note_on_c, 0, 40, 0
8, 67120, Note_on_c, 0, 28, 0
8, 67120, Note_on_c, 0, 40, 127
8, 67120, Note_on_c, 0, 28, 127
8, 67160, Note_on_c, 0, 40, 0
8, 67160, Note_on_c, 0, 28, 0
8, 67160, Note_on_c, 0, 40, 127
8, 67160, Note_on_c, 0, 28, 127
8, 67200, Note_on_c, 0, 40, 0
8, 67200, Note_on_c, 0, 28, 0
8, 67200, Note_on_c, 0, 40, 127
8, 67200, Note_on_c, 0, 28, 127
8, 67260, Note_on_c, 0, 40, 0
8, 67260, Note_on_c, 0, 28, 0
8, 67320, Note_on_c, 0, 40, 127
8, 67320, Note_on_c, 0, 28, 127
8, 67360, Note_on_c, 0, 40, 0
8, 67360, Note_on_c, 0, 28, 0
8, 67360, Note_on_c, 0, 40, 127
8, 67360, Note_on_c, 0, 28, 127
8, 67400, Note_on_c, 0, 40, 0
8, 67400, Note_on_c, 0, 28, 0
8, 67400, Note_on_c, 0, 40, 127
8, 67400, Note_on_c, 0, 28, 127
8, 67440, Note_on_c, 0, 40, 0
8, 67440, Note_on_c, 0, 28, 0
8, 67440, Note_on_c, 0, 40, 127
8, 67440, Note_on_c, 0, 28, 127
8, 67480, Note_on_c, 0, 40, 0
8, 67480, Note_on_c, 0, 28, 0
8, 67480, Note_on_c, 0, 40, 127
8, 67480, Note_on_c, 0, 28, 127
8, 67520, Note_on_c, 0, 40, 0
8, 67520, Note_on_c, 0, 28, 0
8, 67520, Note_on_c, 0, 40, 127
8, 67520, Note_on_c, 0, 28, 127
8, 67560, Note_on_c, 0, 40, 0
8, 67560, Note_on_c, 0, 28, 0
8, 67560, Note_on_c, 0, 40, 127
8, 67560, Note_on_c, 0, 28, 127
8, 67620, Note_on_c, 0, 40, 0
8, 67620, Note_on_c, 0, 28, 0
8, 67680, Note_on_c, 0, 40, 127
8, 67680, Note_on_c, 0, 28, 127
8, 67720, Note_on_c, 0, 40, 0
8, 67720, Note_on_c, 0, 28, 0
8, 67720, Note_on_c, 0, 40, 127
8, 67720, Note_on_c, 0, 28, 127
8, 67760, Note_on_c, 0, 40, 0
8, 67760, Note_on_c, 0, 28, 0
8, 67760, Note_on_c, 0, 40, 127
8, 67760, Note_on_c, 0, 28, 127
8, 67800, Note_on_c, 0, 40, 0
8, 67800, Note_on_c, 0, 28, 0
8, 67800, Note_on_c, 0, 40, 127
8, 67800, Note_on_c, 0, 28, 127
8, 67840, Note_on_c, 0, 40, 0
8, 67840, Note_on_c, 0, 28, 0
8, 67840, Note_on_c, 0, 40, 127
8, 67840, Note_on_c, 0, 28, 127
8, 67880, Note_on_c, 0, 40, 0
8, 67880, Note_on_c, 0, 28, 0
8, 67880, Note_on_c, 0, 40, 127
8, 67880, Note_on_c, 0, 28, 127
8, 67920, Note_on_c, 0, 40, 0
8, 67920, Note_on_c, 0, 28, 0
8, 67920, Note_on_c, 0, 40, 127
8, 67920, Note_on_c, 0, 28, 127
8, 67980, Note_on_c, 0, 40, 0
8, 67980, Note_on_c, 0, 28, 0
8, 68040, Note_on_c, 0, 40, 127
8, 68040, Note_on_c, 0, 28, 127
8, 68080, Note_on_c, 0, 40, 0
8, 68080, Note_on_c, 0, 28, 0
8, 68080, Note_on_c, 0, 40, 127
8, 68080, Note_on_c, 0, 28, 127
8, 68120, Note_on_c, 0, 40, 0
8, 68120, Note_on_c, 0, 28, 0
8, 68120, Note_on_c, 0, 40, 127
8, 68120, Note_on_c, 0, 28, 127
8, 68160, Note_on_c, 0, 40, 0
8, 68160, Note_on_c, 0, 28, 0
8, 68160, Note_on_c, 0, 40, 127
8, 68160, Note_on_c, 0, 28, 127
8, 68200, Note_on_c, 0, 40, 0
8, 68200, Note_on_c, 0, 28, 0
8, 68200, Note_on_c, 0, 40, 127
8, 68200, Note_on_c, 0, 28, 127
8, 68240, Note_on_c, 0, 40, 0
8, 68240, Note_on_c, 0, 28, 0
8, 68240, Note_on_c, 0, 40, 127
8, 68240, Note_on_c, 0, 28, 127
8, 68280, Note_on_c, 0, 40, 0
8, 68280, Note_on_c, 0, 28, 0
8, 68280, Note_on_c, 0, 28, 127
8, 68320, Note_on_c, 0, 28, 0
8, 68320, Note_on_c, 0, 28, 127
8, 68360, Note_on_c, 0, 28, 0
8, 68360, Note_on_c, 0, 28, 127
8, 68400, Note_on_c, 0, 28, 0
8, 68400, Note_on_c, 0, 28, 127
8, 68440, Note_on_c, 0, 28, 0
8, 68440, Note_on_c, 0, 28, 127
8, 68480, Note_on_c, 0, 28, 0
8, 68480, Note_on_c, 0, 28, 127
8, 68520, Note_on_c, 0, 28, 0
8, 68520, Note_on_c, 0, 35, 127
8, 68640, Note_on_c, 0, 35, 0
8, 68640, Note_on_c, 0, 28, 127
8, 68680, Note_on_c, 0, 28, 0
8, 68680, Note_on_c, 0, 28, 127
8, 68720, Note_on_c, 0, 28, 0
8, 68720, Note_on_c, 0, 28, 127
8, 68760, Note_on_c, 0, 28, 0
8, 68760, Note_on_c, 0, 28, 127
8, 68800, Note_on_c, 0, 28, 0
8, 68800, Note_on_c, 0, 28, 127
8, 68840, Note_on_c, 0, 28, 0
8, 68840, Note_on_c, 0, 28, 127
8, 68880, Note_on_c, 0, 28, 0
8, 68880, Note_on_c, 0, 35, 127
8, 69000, Note_on_c, 0, 35, 0
8, 69000, Note_on_c, 0, 28, 127
8, 69040, Note_on_c, 0, 28, 0
8, 69040, Note_on_c, 0, 28, 127
8, 69080, Note_on_c, 0, 28, 0
8, 69080, Note_on_c, 0, 28, 127
8, 69120, Note_on_c, 0, 28, 0
8, 69120, Note_on_c, 0, 36, 127
8, 69240, Note_on_c, 0, 36, 0
8, 69240, Note_on_c, 0, 28, 127
8, 69280, Note_on_c, 0, 28, 0
8, 69280, Note_on_c, 0, 28, 127
8, 69320, Note_on_c, 0, 28, 0
8, 69320, Note_on_c, 0, 28, 127
8, 69360, Note_on_c, 0, 28, 0
8, 69360, Note_on_c, 0, 28, 127
8, 69400, Note_on_c, 0, 28, 0
8, 69400, Note_on_c, 0, 28, 127
8, 69440, Note_on_c, 0, 28, 0
8, 69440, Note_on_c, 0, 28, 127
8, 69480, Note_on_c, 0, 28, 0
8, 69480, Note_on_c, 0, 35, 127
8, 69600, Note_on_c, 0, 35, 0
8, 69600, Note_on_c, 0, 28, 127
8, 69640, Note_on_c, 0, 28, 0
8, 69640, Note_on_c, 0, 28, 127
8, 69680, Note_on_c, 0, 28, 0
8, 69680, Note_on_c, 0, 28, 127
8, 69720, Note_on_c, 0, 28, 0
8, 69720, Note_on_c, 0, 28, 127
8, 69760, Note_on_c, 0, 28, 0
8, 69760, Note_on_c, 0, 28, 127
8, 69800, Note_on_c, 0, 28, 0
8, 69800, Note_on_c, 0, 28, 127
8, 69840, Note_on_c, 0, 28, 0
8, 69840, Note_on_c, 0, 35, 127
8, 69960, Note_on_c, 0, 35, 0
8, 69960, Note_on_c, 0, 28, 127
8, 70000, Note_on_c, 0, 28, 0
8, 70000, Note_on_c, 0, 28, 127
8, 70040, Note_on_c, 0, 28, 0
8, 70040, Note_on_c, 0, 28, 127
8, 70080, Note_on_c, 0, 28, 0
8, 70080, Note_on_c, 0, 36, 127
8, 70200, Note_on_c, 0, 36, 0
8, 70200, Note_on_c, 0, 28, 127
8, 70240, Note_on_c, 0, 28, 0
8, 70240, Note_on_c, 0, 28, 127
8, 70280, Note_on_c, 0, 28, 0
8, 70280, Note_on_c, 0, 28, 127
8, 70320, Note_on_c, 0, 28, 0
8, 70320, Note_on_c, 0, 28, 127
8, 70360, Note_on_c, 0, 28, 0
8, 70360, Note_on_c, 0, 28, 127
8, 70400, Note_on_c, 0, 28, 0
8, 70400, Note_on_c, 0, 28, 127
8, 70440, Note_on_c, 0, 28, 0
8, 70440, Note_on_c, 0, 35, 127
8, 70560, Note_on_c, 0, 35, 0
8, 70560, Note_on_c, 0, 28, 127
8, 70600, Note_on_c, 0, 28, 0
8, 70600, Note_on_c, 0, 28, 127
8, 70640, Note_on_c, 0, 28, 0
8, 70640, Note_on_c, 0, 28, 127
8, 70680, Note_on_c, 0, 28, 0
8, 70680, Note_on_c, 0, 28, 127
8, 70720, Note_on_c, 0, 28, 0
8, 70720, Note_on_c, 0, 28, 127
8, 70760, Note_on_c, 0, 28, 0
8, 70760, Note_on_c, 0, 28, 127
8, 70800, Note_on_c, 0, 28, 0
8, 70800, Note_on_c, 0, 35, 127
8, 70920, Note_on_c, 0, 35, 0
8, 70920, Note_on_c, 0, 28, 127
8, 70960, Note_on_c, 0, 28, 0
8, 70960, Note_on_c, 0, 28, 127
8, 71000, Note_on_c, 0, 28, 0
8, 71000, Note_on_c, 0, 28, 127
8, 71040, Note_on_c, 0, 28, 0
8, 71040, Note_on_c, 0, 36, 127
8, 71160, Note_on_c, 0, 36, 0
8, 71160, Note_on_c, 0, 28, 127
8, 71200, Note_on_c, 0, 28, 0
8, 71200, Note_on_c, 0, 28, 127
8, 71240, Note_on_c, 0, 28, 0
8, 71240, Note_on_c, 0, 28, 127
8, 71280, Note_on_c, 0, 28, 0
8, 71280, Note_on_c, 0, 28, 127
8, 71320, Note_on_c, 0, 28, 0
8, 71320, Note_on_c, 0, 28, 127
8, 71360, Note_on_c, 0, 28, 0
8, 71360, Note_on_c, 0, 28, 127
8, 71400, Note_on_c, 0, 28, 0
8, 71400, Note_on_c, 0, 35, 127
8, 71520, Note_on_c, 0, 35, 0
8, 71520, Note_on_c, 0, 28, 127
8, 71560, Note_on_c, 0, 28, 0
8, 71560, Note_on_c, 0, 28, 127
8, 71600, Note_on_c, 0, 28, 0
8, 71600, Note_on_c, 0, 28, 127
8, 71640, Note_on_c, 0, 28, 0
8, 71640, Note_on_c, 0, 28, 127
8, 71680, Note_on_c, 0, 28, 0
8, 71680, Note_on_c, 0, 28, 127
8, 71720, Note_on_c, 0, 28, 0
8, 71720, Note_on_c, 0, 28, 127
8, 71760, Note_on_c, 0, 28, 0
8, 71760, Note_on_c, 0, 35, 127
8, 71880, Note_on_c, 0, 35, 0
8, 71880, Note_on_c, 0, 28, 127
8, 71920, Note_on_c, 0, 28, 0
8, 71920, Note_on_c, 0, 28, 127
8, 71960, Note_on_c, 0, 28, 0
8, 71960, Note_on_c, 0, 28, 127
8, 72000, Note_on_c, 0, 28, 0
8, 72000, Note_on_c, 0, 36, 127
8, 72120, Note_on_c, 0, 36, 0
8, 72120, Note_on_c, 0, 40, 127
8, 72120, Note_on_c, 0, 28, 127
8, 72160, Note_on_c, 0, 40, 0
8, 72160, Note_on_c, 0, 28, 0
8, 72160, Note_on_c, 0, 40, 127
8, 72160, Note_on_c, 0, 28, 127
8, 72200, Note_on_c, 0, 40, 0
8, 72200, Note_on_c, 0, 28, 0
8, 72200, Note_on_c, 0, 40, 127
8, 72200, Note_on_c, 0, 28, 127
8, 72240, Note_on_c, 0, 40, 0
8, 72240, Note_on_c, 0, 28, 0
8, 72240, Note_on_c, 0, 40, 127
8, 72240, Note_on_c, 0, 28, 127
8, 72280, Note_on_c, 0, 40, 0
8, 72280, Note_on_c, 0, 28, 0
8, 72280, Note_on_c, 0, 40, 127
8, 72280, Note_on_c, 0, 28, 127
8, 72320, Note_on_c, 0, 40, 0
8, 72320, Note_on_c, 0, 28, 0
8, 72320, Note_on_c, 0, 40, 127
8, 72320, Note_on_c, 0, 28, 127
8, 72360, Note_on_c, 0, 40, 0
8, 72360, Note_on_c, 0, 28, 0
8, 72360, Note_on_c, 0, 40, 127
8, 72360, Note_on_c, 0, 28, 127
8, 72420, Note_on_c, 0, 40, 0
8, 72420, Note_on_c, 0, 28, 0
8, 72480, Note_on_c, 0, 40, 127
8, 72480, Note_on_c, 0, 28, 127
8, 72520, Note_on_c, 0, 40, 0
8, 72520, Note_on_c, 0, 28, 0
8, 72520, Note_on_c, 0, 40, 127
8, 72520, Note_on_c, 0, 28, 127
8, 72560, Note_on_c, 0, 40, 0
8, 72560, Note_on_c, 0, 28, 0
8, 72560, Note_on_c, 0, 40, 127
8, 72560, Note_on_c, 0, 28, 127
8, 72600, Note_on_c, 0, 40, 0
8, 72600, Note_on_c, 0, 28, 0
8, 72600, Note_on_c, 0, 40, 127
8, 72600, Note_on_c, 0, 28, 127
8, 72640, Note_on_c, 0, 40, 0
8, 72640, Note_on_c, 0, 28, 0
8, 72640, Note_on_c, 0, 40, 127
8, 72640, Note_on_c, 0, 28, 127
8, 72680, Note_on_c, 0, 40, 0
8, 72680, Note_on_c, 0, 28, 0
8, 72680, Note_on_c, 0, 40, 127
8, 72680, Note_on_c, 0, 28, 127
8, 72720, Note_on_c, 0, 40, 0
8, 72720, Note_on_c, 0, 28, 0
8, 72720, Note_on_c, 0, 40, 127
8, 72720, Note_on_c, 0, 28, 127
8, 72780, Note_on_c, 0, 40, 0
8, 72780, Note_on_c, 0, 28, 0
8, 72840, Note_on_c, 0, 40, 127
8, 72840, Note_on_c, 0, 28, 127
8, 72880, Note_on_c, 0, 40, 0
8, 72880, Note_on_c, 0, 28, 0
8, 72880, Note_on_c, 0, 40, 127
8, 72880, Note_on_c, 0, 28, 127
8, 72920, Note_on_c, 0, 40, 0
8, 72920, Note_on_c, 0, 28, 0
8, 72920, Note_on_c, 0, 40, 127
8, 72920, Note_on_c, 0, 28, 127
8, 72960, Note_on_c, 0, 40, 0
8, 72960, Note_on_c, 0, 28, 0
8, 72960, Note_on_c, 0, 40, 127
8, 72960, Note_on_c, 0, 28, 127
8, 73020, Note_on_c, 0, 40, 0
8, 73020, Note_on_c, 0, 28, 0
8, 73080, Note_on_c, 0, 40, 127
8, 73080, Note_on_c, 0, 28, 127
8, 73120, Note_on_c, 0, 40, 0
8, 73120, Note_on_c, 0, 28, 0
8, 73120, Note_on_c, 0, 40, 127
8, 73120, Note_on_c, 0, 28, 127
8, 73160, Note_on_c, 0, 40, 0
8, 73160, Note_on_c, 0, 28, 0
8, 73160, Note_on_c, 0, 40, 127
8, 73160, Note_on_c, 0, 28, 127
8, 73200, Note_on_c, 0, 40, 0
8, 73200, Note_on_c, 0, 28, 0
8, 73200, Note_on_c, 0, 40, 127
8, 73200, Note_on_c, 0, 28, 127
8, 73240, Note_on_c, 0, 40, 0
8, 73240, Note_on_c, 0, 28, 0
8, 73240, Note_on_c, 0, 40, 127
8, 73240, Note_on_c, 0, 28, 127
8, 73280, Note_on_c, 0, 40, 0
8, 73280, Note_on_c, 0, 28, 0
8, 73280, Note_on_c, 0, 40, 127
8, 73280, Note_on_c, 0, 28, 127
8, 73320, Note_on_c, 0, 40, 0
8, 73320, Note_on_c, 0, 28, 0
8, 73320, Note_on_c, 0, 40, 127
8, 73320, Note_on_c, 0, 28, 127
8, 73380, Note_on_c, 0, 40, 0
8, 73380, Note_on_c, 0, 28, 0
8, 73440, Note_on_c, 0, 40, 127
8, 73440, Note_on_c, 0, 28, 127
8, 73480, Note_on_c, 0, 40, 0
8, 73480, Note_on_c, 0, 28, 0
8, 73480, Note_on_c, 0, 40, 127
8, 73480, Note_on_c, 0, 28, 127
8, 73520, Note_on_c, 0, 40, 0
8, 73520, Note_on_c, 0, 28, 0
8, 73520, Note_on_c, 0, 40, 127
8, 73520, Note_on_c, 0, 28, 127
8, 73560, Note_on_c, 0, 40, 0
8, 73560, Note_on_c, 0, 28, 0
8, 73560, Note_on_c, 0, 40, 127
8, 73560, Note_on_c, 0, 28, 127
8, 73600, Note_on_c, 0, 40, 0
8, 73600, Note_on_c, 0, 28, 0
8, 73600, Note_on_c, 0, 40, 127
8, 73600, Note_on_c, 0, 28, 127
8, 73640, Note_on_c, 0, 40, 0
8, 73640, Note_on_c, 0, 28, 0
8, 73640, Note_on_c, 0, 40, 127
8, 73640, Note_on_c, 0, 28, 127
8, 73680, Note_on_c, 0, 40, 0
8, 73680, Note_on_c, 0, 28, 0
8, 73680, Note_on_c, 0, 40, 127
8, 73680, Note_on_c, 0, 28, 127
8, 73740, Note_on_c, 0, 40, 0
8, 73740, Note_on_c, 0, 28, 0
8, 73800, Note_on_c, 0, 40, 127
8, 73800, Note_on_c, 0, 28, 127
8, 73840, Note_on_c, 0, 40, 0
8, 73840, Note_on_c, 0, 28, 0
8, 73840, Note_on_c, 0, 40, 127
8, 73840, Note_on_c, 0, 28, 127
8, 73880, Note_on_c, 0, 40, 0
8, 73880, Note_on_c, 0, 28, 0
8, 73880, Note_on_c, 0, 40, 127
8, 73880, Note_on_c, 0, 28, 127
8, 73920, Note_on_c, 0, 40, 0
8, 73920, Note_on_c, 0, 28, 0
8, 73920, Note_on_c, 0, 40, 127
8, 73920, Note_on_c, 0, 28, 127
8, 73960, Note_on_c, 0, 40, 0
8, 73960, Note_on_c, 0, 28, 0
8, 73960, Note_on_c, 0, 40, 127
8, 73960, Note_on_c, 0, 28, 127
8, 74000, Note_on_c, 0, 40, 0
8, 74000, Note_on_c, 0, 28, 0
8, 74000, Note_on_c, 0, 40, 127
8, 74000, Note_on_c, 0, 28, 127
8, 74040, Note_on_c, 0, 40, 0
8, 74040, Note_on_c, 0, 28, 0
8, 74040, Note_on_c, 0, 28, 127
8, 74080, Note_on_c, 0, 28, 0
8, 74080, Note_on_c, 0, 28, 127
8, 74120, Note_on_c, 0, 28, 0
8, 74120, Note_on_c, 0, 28, 127
8, 74160, Note_on_c, 0, 28, 0
8, 74160, Note_on_c, 0, 28, 127
8, 74200, Note_on_c, 0, 28, 0
8, 74200, Note_on_c, 0, 28, 127
8, 74240, Note_on_c, 0, 28, 0
8, 74240, Note_on_c, 0, 28, 127
8, 74280, Note_on_c, 0, 28, 0
8, 74280, Note_on_c, 0, 35, 127
8, 74400, Note_on_c, 0, 35, 0
8, 74400, Note_on_c, 0, 28, 127
8, 74440, Note_on_c, 0, 28, 0
8, 74440, Note_on_c, 0, 28, 127
8, 74480, Note_on_c, 0, 28, 0
8, 74480, Note_on_c, 0, 28, 127
8, 74520, Note_on_c, 0, 28, 0
8, 74520, Note_on_c, 0, 28, 127
8, 74560, Note_on_c, 0, 28, 0
8, 74560, Note_on_c, 0, 28, 127
8, 74600, Note_on_c, 0, 28, 0
8, 74600, Note_on_c, 0, 28, 127
8, 74640, Note_on_c, 0, 28, 0
8, 74640, Note_on_c, 0, 35, 127
8, 74760, Note_on_c, 0, 35, 0
8, 74760, Note_on_c, 0, 28, 127
8, 74800, Note_on_c, 0, 28, 0
8, 74800, Note_on_c, 0, 28, 127
8, 74840, Note_on_c, 0, 28, 0
8, 74840, Note_on_c, 0, 28, 127
8, 74880, Note_on_c, 0, 28, 0
8, 74880, Note_on_c, 0, 36, 127
8, 75000, Note_on_c, 0, 36, 0
8, 75000, Note_on_c, 0, 28, 127
8, 75040, Note_on_c, 0, 28, 0
8, 75040, Note_on_c, 0, 28, 127
8, 75080, Note_on_c, 0, 28, 0
8, 75080, Note_on_c, 0, 28, 127
8, 75120, Note_on_c, 0, 28, 0
8, 75120, Note_on_c, 0, 28, 127
8, 75160, Note_on_c, 0, 28, 0
8, 75160, Note_on_c, 0, 28, 127
8, 75200, Note_on_c, 0, 28, 0
8, 75200, Note_on_c, 0, 28, 127
8, 75240, Note_on_c, 0, 28, 0
8, 75240, Note_on_c, 0, 35, 127
8, 75360, Note_on_c, 0, 35, 0
8, 75360, Note_on_c, 0, 28, 127
8, 75400, Note_on_c, 0, 28, 0
8, 75400, Note_on_c, 0, 28, 127
8, 75440, Note_on_c, 0, 28, 0
8, 75440, Note_on_c, 0, 28, 127
8, 75480, Note_on_c, 0, 28, 0
8, 75480, Note_on_c, 0, 28, 127
8, 75520, Note_on_c, 0, 28, 0
8, 75520, Note_on_c, 0, 28, 127
8, 75560, Note_on_c, 0, 28, 0
8, 75560, Note_on_c, 0, 28, 127
8, 75600, Note_on_c, 0, 28, 0
8, 75600, Note_on_c, 0, 35, 127
8, 75720, Note_on_c, 0, 35, 0
8, 75720, Note_on_c, 0, 28, 127
8, 75760, Note_on_c, 0, 28, 0
8, 75760, Note_on_c, 0, 28, 127
8, 75800, Note_on_c, 0, 28, 0
8, 75800, Note_on_c, 0, 28, 127
8, 75840, Note_on_c, 0, 28, 0
8, 75840, Note_on_c, 0, 36, 127
8, 75960, Note_on_c, 0, 36, 0
8, 75960, Note_on_c, 0, 28, 127
8, 76000, Note_on_c, 0, 28, 0
8, 76000, Note_on_c, 0, 28, 127
8, 76040, Note_on_c, 0, 28, 0
8, 76040, Note_on_c, 0, 28, 127
8, 76080, Note_on_c, 0, 28, 0
8, 76080, Note_on_c, 0, 28, 127
8, 76120, Note_on_c, 0, 28, 0
8, 76120, Note_on_c, 0, 28, 127
8, 76160, Note_on_c, 0, 28, 0
8, 76160, Note_on_c, 0, 28, 127
8, 76200, Note_on_c, 0, 28, 0
8, 76200, Note_on_c, 0, 35, 127
8, 76320, Note_on_c, 0, 35, 0
8, 76320, Note_on_c, 0, 28, 127
8, 76360, Note_on_c, 0, 28, 0
8, 76360, Note_on_c, 0, 28, 127
8, 76400, Note_on_c, 0, 28, 0
8, 76400, Note_on_c, 0, 28, 127
8, 76440, Note_on_c, 0, 28, 0
8, 76440, Note_on_c, 0, 28, 127
8, 76480, Note_on_c, 0, 28, 0
8, 76480, Note_on_c, 0, 28, 127
8, 76520, Note_on_c, 0, 28, 0
8, 76520, Note_on_c, 0, 28, 127
8, 76560, Note_on_c, 0, 28, 0
8, 76560, Note_on_c, 0, 35, 127
8, 76680, Note_on_c, 0, 35, 0
8, 76680, Note_on_c, 0, 28, 127
8, 76720, Note_on_c, 0, 28, 0
8, 76720, Note_on_c, 0, 28, 127
8, 76760, Note_on_c, 0, 28, 0
8, 76760, Note_on_c, 0, 28, 127
8, 76800, Note_on_c, 0, 28, 0
8, 76800, Note_on_c, 0, 36, 127
8, 76920, Note_on_c, 0, 36, 0
8, 76920, Note_on_c, 0, 28, 127
8, 76960, Note_on_c, 0, 28, 0
8, 76960, Note_on_c, 0, 28, 127
8, 77000, Note_on_c, 0, 28, 0
8, 77000, Note_on_c, 0, 28, 127
8, 77040, Note_on_c, 0, 28, 0
8, 77040, Note_on_c, 0, 28, 127
8, 77080, Note_on_c, 0, 28, 0
8, 77080, Note_on_c, 0, 28, 127
8, 77120, Note_on_c, 0, 28, 0
8, 77120, Note_on_c, 0, 28, 127
8, 77160, Note_on_c, 0, 28, 0
8, 77160, Note_on_c, 0, 35, 127
8, 77280, Note_on_c, 0, 35, 0
8, 77280, Note_on_c, 0, 28, 127
8, 77320, Note_on_c, 0, 28, 0
8, 77320, Note_on_c, 0, 28, 127
8, 77360, Note_on_c, 0, 28, 0
8, 77360, Note_on_c, 0, 28, 127
8, 77400, Note_on_c, 0, 28, 0
8, 77400, Note_on_c, 0, 28, 127
8, 77440, Note_on_c, 0, 28, 0
8, 77440, Note_on_c, 0, 28, 127
8, 77480, Note_on_c, 0, 28, 0
8, 77480, Note_on_c, 0, 28, 127
8, 77520, Note_on_c, 0, 28, 0
8, 77520, Note_on_c, 0, 35, 127
8, 77640, Note_on_c, 0, 35, 0
8, 77640, Note_on_c, 0, 28, 127
8, 77680, Note_on_c, 0, 28, 0
8, 77680, Note_on_c, 0, 28, 127
8, 77720, Note_on_c, 0, 28, 0
8, 77720, Note_on_c, 0, 28, 127
8, 77760, Note_on_c, 0, 28, 0
8, 77760, Note_on_c, 0, 36, 127
8, 77880, Note_on_c, 0, 36, 0
8, 77880, Note_on_c, 0, 40, 127
8, 77880, Note_on_c, 0, 28, 127
8, 77920, Note_on_c, 0, 40, 0
8, 77920, Note_on_c, 0, 28, 0
8, 77920, Note_on_c, 0, 40, 127
8, 77920, Note_on_c, 0, 28, 127
8, 77960, Note_on_c, 0, 40, 0
8, 77960, Note_on_c, 0, 28, 0
8, 77960, Note_on_c, 0, 40, 127
8, 77960, Note_on_c, 0, 28, 127
8, 78000, Note_on_c, 0, 40, 0
8, 78000, Note_on_c, 0, 28, 0
8, 78000, Note_on_c, 0, 40, 127
8, 78000, Note_on_c, 0, 28, 127
8, 78040, Note_on_c, 0, 40, 0
8, 78040, Note_on_c, 0, 28, 0
8, 78040, Note_on_c, 0, 40, 127
8, 78040, Note_on_c, 0, 28, 127
8, 78080, Note_on_c, 0, 40, 0
8, 78080, Note_on_c, 0, 28, 0
8, 78080, Note_on_c, 0, 40, 127
8, 78080, Note_on_c, 0, 28, 127
8, 78120, Note_on_c, 0, 40, 0
8, 78120, Note_on_c, 0, 28, 0
8, 78120, Note_on_c, 0, 40, 127
8, 78120, Note_on_c, 0, 28, 127
8, 78180, Note_on_c, 0, 40, 0
8, 78180, Note_on_c, 0, 28, 0
8, 78240, Note_on_c, 0, 40, 127
8, 78240, Note_on_c, 0, 28, 127
8, 78280, Note_on_c, 0, 40, 0
8, 78280, Note_on_c, 0, 28, 0
8, 78280, Note_on_c, 0, 40, 127
8, 78280, Note_on_c, 0, 28, 127
8, 78320, Note_on_c, 0, 40, 0
8, 78320, Note_on_c, 0, 28, 0
8, 78320, Note_on_c, 0, 40, 127
8, 78320, Note_on_c, 0, 28, 127
8, 78360, Note_on_c, 0, 40, 0
8, 78360, Note_on_c, 0, 28, 0
8, 78360, Note_on_c, 0, 40, 127
8, 78360, Note_on_c, 0, 28, 127
8, 78400, Note_on_c, 0, 40, 0
8, 78400, Note_on_c, 0, 28, 0
8, 78400, Note_on_c, 0, 40, 127
8, 78400, Note_on_c, 0, 28, 127
8, 78440, Note_on_c, 0, 40, 0
8, 78440, Note_on_c, 0, 28, 0
8, 78440, Note_on_c, 0, 40, 127
8, 78440, Note_on_c, 0, 28, 127
8, 78480, Note_on_c, 0, 40, 0
8, 78480, Note_on_c, 0, 28, 0
8, 78480, Note_on_c, 0, 40, 127
8, 78480, Note_on_c, 0, 28, 127
8, 78540, Note_on_c, 0, 40, 0
8, 78540, Note_on_c, 0, 28, 0
8, 78600, Note_on_c, 0, 40, 127
8, 78600, Note_on_c, 0, 28, 127
8, 78640, Note_on_c, 0, 40, 0
8, 78640, Note_on_c, 0, 28, 0
8, 78640, Note_on_c, 0, 40, 127
8, 78640, Note_on_c, 0, 28, 127
8, 78680, Note_on_c, 0, 40, 0
8, 78680, Note_on_c, 0, 28, 0
8, 78680, Note_on_c, 0, 40, 127
8, 78680, Note_on_c, 0, 28, 127
8, 78720, Note_on_c, 0, 40, 0
8, 78720, Note_on_c, 0, 28, 0
8, 78720, Note_on_c, 0, 40, 127
8, 78720, Note_on_c, 0, 28, 127
8, 78760, Note_on_c, 0, 40, 0
8, 78760, Note_on_c, 0, 28, 0
8, 78760, Note_on_c, 0, 40, 127
8, 78760, Note_on_c, 0, 28, 127
8, 78800, Note_on_c, 0, 40, 0
8, 78800, Note_on_c, 0, 28, 0
8, 78800, Note_on_c, 0, 40, 127
8, 78800, Note_on_c, 0, 28, 127
8, 78840, Note_on_c, 0, 40, 0
8, 78840, Note_on_c, 0, 28, 0
8, 78840, Note_on_c, 0, 28, 127
8, 78880, Note_on_c, 0, 28, 0
8, 78880, Note_on_c, 0, 28, 127
8, 78920, Note_on_c, 0, 28, 0
8, 78920, Note_on_c, 0, 28, 127
8, 78960, Note_on_c, 0, 28, 0
8, 78960, Note_on_c, 0, 28, 127
8, 79000, Note_on_c, 0, 28, 0
8, 79000, Note_on_c, 0, 28, 127
8, 79040, Note_on_c, 0, 28, 0
8, 79040, Note_on_c, 0, 28, 127
8, 79080, Note_on_c, 0, 28, 0
8, 79080, Note_on_c, 0, 40, 127
8, 79080, Note_on_c, 0, 28, 127
8, 79200, Note_on_c, 0, 40, 0
8, 79200, Note_on_c, 0, 28, 0
8, 79200, Note_on_c, 0, 40, 127
8, 79200, Note_on_c, 0, 28, 127
8, 79320, Note_on_c, 0, 40, 0
8, 79320, Note_on_c, 0, 28, 0
8, 79320, Note_on_c, 0, 28, 127
8, 79360, Note_on_c, 0, 28, 0
8, 79360, Note_on_c, 0, 28, 127
8, 79400, Note_on_c, 0, 28, 0
8, 79400, Note_on_c, 0, 28, 127
8, 79440, Note_on_c, 0, 28, 0
8, 79440, Note_on_c, 0, 28, 127
8, 79480, Note_on_c, 0, 28, 0
8, 79480, Note_on_c, 0, 28, 127
8, 79520, Note_on_c, 0, 28, 0
8, 79520, Note_on_c, 0, 28, 127
8, 79560, Note_on_c, 0, 28, 0
8, 79560, Note_on_c, 0, 40, 127
8, 79560, Note_on_c, 0, 28, 127
8, 79680, Note_on_c, 0, 40, 0
8, 79680, Note_on_c, 0, 28, 0
8, 79680, Note_on_c, 0, 40, 127
8, 79680, Note_on_c, 0, 28, 127
8, 79800, Note_on_c, 0, 40, 0
8, 79800, Note_on_c, 0, 28, 0
8, 79800, Note_on_c, 0, 28, 127
8, 79840, Note_on_c, 0, 28, 0
8, 79840, Note_on_c, 0, 28, 127
8, 79880, Note_on_c, 0, 28, 0
8, 79880, Note_on_c, 0, 28, 127
8, 79920, Note_on_c, 0, 28, 0
8, 79920, Note_on_c, 0, 28, 127
8, 79960, Note_on_c, 0, 28, 0
8, 79960, Note_on_c, 0, 28, 127
8, 80000, Note_on_c, 0, 28, 0
8, 80000, Note_on_c, 0, 28, 127
8, 80040, Note_on_c, 0, 28, 0
8, 80040, Note_on_c, 0, 28, 127
8, 80160, Note_on_c, 0, 28, 0
8, 80160, Note_on_c, 0, 29, 127
8, 80280, Note_on_c, 0, 29, 0
8, 80280, Note_on_c, 0, 31, 127
8, 80320, Note_on_c, 0, 31, 0
8, 80320, Note_on_c, 0, 31, 127
8, 80360, Note_on_c, 0, 31, 0
8, 80360, Note_on_c, 0, 31, 127
8, 80400, Note_on_c, 0, 31, 0
8, 80400, Note_on_c, 0, 31, 127
8, 80440, Note_on_c, 0, 31, 0
8, 80440, Note_on_c, 0, 31, 127
8, 80480, Note_on_c, 0, 31, 0
8, 80480, Note_on_c, 0, 31, 127
8, 80520, Note_on_c, 0, 31, 0
8, 80520, Note_on_c, 0, 31, 127
8, 80640, Note_on_c, 0, 31, 0
8, 80640, Note_on_c, 0, 31, 127
8, 80760, Note_on_c, 0, 31, 0
8, 80760, Note_on_c, 0, 28, 127
8, 80800, Note_on_c, 0, 28, 0
8, 80800, Note_on_c, 0, 28, 127
8, 80840, Note_on_c, 0, 28, 0
8, 80840, Note_on_c, 0, 28, 127
8, 80880, Note_on_c, 0, 28, 0
8, 80880, Note_on_c, 0, 28, 127
8, 80920, Note_on_c, 0, 28, 0
8, 80920, Note_on_c, 0, 28, 127
8, 80960, Note_on_c, 0, 28, 0
8, 80960, Note_on_c, 0, 28, 127
8, 81000, Note_on_c, 0, 28, 0
8, 81000, Note_on_c, 0, 40, 127
8, 81000, Note_on_c, 0, 28, 127
8, 81120, Note_on_c, 0, 40, 0
8, 81120, Note_on_c, 0, 28, 0
8, 81120, Note_on_c, 0, 40, 127
8, 81120, Note_on_c, 0, 28, 127
8, 81240, Note_on_c, 0, 40, 0
8, 81240, Note_on_c, 0, 28, 0
8, 81240, Note_on_c, 0, 28, 127
8, 81280, Note_on_c, 0, 28, 0
8, 81280, Note_on_c, 0, 28, 127
8, 81320, Note_on_c, 0, 28, 0
8, 81320, Note_on_c, 0, 28, 127
8, 81360, Note_on_c, 0, 28, 0
8, 81360, Note_on_c, 0, 28, 127
8, 81400, Note_on_c, 0, 28, 0
8, 81400, Note_on_c, 0, 28, 127
8, 81440, Note_on_c, 0, 28, 0
8, 81440, Note_on_c, 0, 28, 127
8, 81480, Note_on_c, 0, 28, 0
8, 81480, Note_on_c, 0, 40, 127
8, 81480, Note_on_c, 0, 28, 127
8, 81600, Note_on_c, 0, 40, 0
8, 81600, Note_on_c, 0, 28, 0
8, 81600, Note_on_c, 0, 40, 127
8, 81600, Note_on_c, 0, 28, 127
8, 81720, Note_on_c, 0, 40, 0
8, 81720, Note_on_c, 0, 28, 0
8, 81720, Note_on_c, 0, 28, 127
8, 81760, Note_on_c, 0, 28, 0
8, 81760, Note_on_c, 0, 28, 127
8, 81800, Note_on_c, 0, 28, 0
8, 81800, Note_on_c, 0, 28, 127
8, 81840, Note_on_c, 0, 28, 0
8, 81840, Note_on_c, 0, 28, 127
8, 81880, Note_on_c, 0, 28, 0
8, 81880, Note_on_c, 0, 28, 127
8, 81920, Note_on_c, 0, 28, 0
8, 81920, Note_on_c, 0, 28, 127
8, 81960, Note_on_c, 0, 28, 0
8, 81960, Note_on_c, 0, 28, 127
8, 82080, Note_on_c, 0, 28, 0
8, 82080, Note_on_c, 0, 29, 127
8, 82200, Note_on_c, 0, 29, 0
8, 82200, Note_on_c, 0, 31, 127
8, 82240, Note_on_c, 0, 31, 0
8, 82240, Note_on_c, 0, 31, 127
8, 82280, Note_on_c, 0, 31, 0
8, 82280, Note_on_c, 0, 31, 127
8, 82320, Note_on_c, 0, 31, 0
8, 82320, Note_on_c, 0, 31, 127
8, 82360, Note_on_c, 0, 31, 0
8, 82360, Note_on_c, 0, 31, 127
8, 82400, Note_on_c, 0, 31, 0
8, 82400, Note_on_c, 0, 31, 127
8, 82440, Note_on_c, 0, 31, 0
8, 82440, Note_on_c, 0, 31, 127
8, 82560, Note_on_c, 0, 31, 0
8, 82560, Note_on_c, 0, 31, 127
8, 82680, Note_on_c, 0, 31, 0
8, 82680, Note_on_c, 0, 31, 127
8, 82720, Note_on_c, 0, 31, 0
8, 82720, Note_on_c, 0, 31, 127
8, 82760, Note_on_c, 0, 31, 0
8, 82760, Note_on_c, 0, 31, 127
8, 82800, Note_on_c, 0, 31, 0
8, 82800, Note_on_c, 0, 31, 127
8, 82840, Note_on_c, 0, 31, 0
8, 82840, Note_on_c, 0, 31, 127
8, 82880, Note_on_c, 0, 31, 0
8, 82880, Note_on_c, 0, 31, 127
8, 82920, Note_on_c, 0, 31, 0
8, 82920, Note_on_c, 0, 38, 127
8, 83040, Note_on_c, 0, 38, 0
8, 83040, Note_on_c, 0, 38, 127
8, 83160, Note_on_c, 0, 38, 0
8, 83160, Note_on_c, 0, 31, 127
8, 83200, Note_on_c, 0, 31, 0
8, 83200, Note_on_c, 0, 31, 127
8, 83240, Note_on_c, 0, 31, 0
8, 83240, Note_on_c, 0, 31, 127
8, 83280, Note_on_c, 0, 31, 0
8, 83280, Note_on_c, 0, 31, 127
8, 83320, Note_on_c, 0, 31, 0
8, 83320, Note_on_c, 0, 31, 127
8, 83360, Note_on_c, 0, 31, 0
8, 83360, Note_on_c, 0, 31, 127
8, 83400, Note_on_c, 0, 31, 0
8, 83400, Note_on_c, 0, 38, 127
8, 83520, Note_on_c, 0, 38, 0
8, 83520, Note_on_c, 0, 38, 127
8, 83640, Note_on_c, 0, 38, 0
8, 83640, Note_on_c, 0, 31, 127
8, 83680, Note_on_c, 0, 31, 0
8, 83680, Note_on_c, 0, 31, 127
8, 83720, Note_on_c, 0, 31, 0
8, 83720, Note_on_c, 0, 31, 127
8, 83760, Note_on_c, 0, 31, 0
8, 83760, Note_on_c, 0, 31, 127
8, 83800, Note_on_c, 0, 31, 0
8, 83800, Note_on_c, 0, 31, 127
8, 83840, Note_on_c, 0, 31, 0
8, 83840, Note_on_c, 0, 31, 127
8, 83880, Note_on_c, 0, 31, 0
8, 83880, Note_on_c, 0, 38, 127
8, 84000, Note_on_c, 0, 38, 0
8, 84000, Note_on_c, 0, 39, 127
8, 84120, Note_on_c, 0, 39, 0
8, 84120, Note_on_c, 0, 29, 127
8, 84160, Note_on_c, 0, 29, 0
8, 84160, Note_on_c, 0, 29, 127
8, 84200, Note_on_c, 0, 29, 0
8, 84200, Note_on_c, 0, 29, 127
8, 84240, Note_on_c, 0, 29, 0
8, 84240, Note_on_c, 0, 29, 127
8, 84280, Note_on_c, 0, 29, 0
8, 84280, Note_on_c, 0, 29, 127
8, 84320, Note_on_c, 0, 29, 0
8, 84320, Note_on_c, 0, 29, 127
8, 84360, Note_on_c, 0, 29, 0
8, 84360, Note_on_c, 0, 29, 127
8, 84480, Note_on_c, 0, 29, 0
8, 84480, Note_on_c, 0, 29, 127
8, 84600, Note_on_c, 0, 29, 0
8, 84600, Note_on_c, 0, 31, 127
8, 84640, Note_on_c, 0, 31, 0
8, 84640, Note_on_c, 0, 31, 127
8, 84680, Note_on_c, 0, 31, 0
8, 84680, Note_on_c, 0, 31, 127
8, 84720, Note_on_c, 0, 31, 0
8, 84720, Note_on_c, 0, 31, 127
8, 84760, Note_on_c, 0, 31, 0
8, 84760, Note_on_c, 0, 31, 127
8, 84800, Note_on_c, 0, 31, 0
8, 84800, Note_on_c, 0, 31, 127
8, 84840, Note_on_c, 0, 31, 0
8, 84840, Note_on_c, 0, 38, 127
8, 84960, Note_on_c, 0, 38, 0
8, 84960, Note_on_c, 0, 38, 127
8, 85080, Note_on_c, 0, 38, 0
8, 85080, Note_on_c, 0, 31, 127
8, 85120, Note_on_c, 0, 31, 0
8, 85120, Note_on_c, 0, 31, 127
8, 85160, Note_on_c, 0, 31, 0
8, 85160, Note_on_c, 0, 31, 127
8, 85200, Note_on_c, 0, 31, 0
8, 85200, Note_on_c, 0, 31, 127
8, 85240, Note_on_c, 0, 31, 0
8, 85240, Note_on_c, 0, 31, 127
8, 85280, Note_on_c, 0, 31, 0
8, 85280, Note_on_c, 0, 31, 127
8, 85320, Note_on_c, 0, 31, 0
8, 85320, Note_on_c, 0, 38, 127
8, 85440, Note_on_c, 0, 38, 0
8, 85440, Note_on_c, 0, 38, 127
8, 85560, Note_on_c, 0, 38, 0
8, 85560, Note_on_c, 0, 31, 127
8, 85600, Note_on_c, 0, 31, 0
8, 85600, Note_on_c, 0, 31, 127
8, 85640, Note_on_c, 0, 31, 0
8, 85640, Note_on_c, 0, 31, 127
8, 85680, Note_on_c, 0, 31, 0
8, 85680, Note_on_c, 0, 31, 127
8, 85720, Note_on_c, 0, 31, 0
8, 85720, Note_on_c, 0, 31, 127
8, 85760, Note_on_c, 0, 31, 0
8, 85760, Note_on_c, 0, 31, 127
8, 85800, Note_on_c, 0, 31, 0
8, 85800, Note_on_c, 0, 38, 127
8, 85920, Note_on_c, 0, 38, 0
8, 85920, Note_on_c, 0, 39, 127
8, 86040, Note_on_c, 0, 39, 0
8, 86040, Note_on_c, 0, 29, 127
8, 86080, Note_on_c, 0, 29, 0
8, 86080, Note_on_c, 0, 29, 127
8, 86120, Note_on_c, 0, 29, 0
8, 86120, Note_on_c, 0, 29, 127
8, 86160, Note_on_c, 0, 29, 0
8, 86160, Note_on_c, 0, 29, 127
8, 86200, Note_on_c, 0, 29, 0
8, 86200, Note_on_c, 0, 29, 127
8, 86240, Note_on_c, 0, 29, 0
8, 86240, Note_on_c, 0, 29, 127
8, 86280, Note_on_c, 0, 29, 0
8, 86280, Note_on_c, 0, 29, 127
8, 86400, Note_on_c, 0, 29, 0
8, 86400, Note_on_c, 0, 29, 127
8, 86520, Note_on_c, 0, 29, 0
8, 86520, Note_on_c, 0, 28, 127
8, 86580, Note_on_c, 0, 28, 0
8, 86580, Note_on_c, 0, 28, 127
8, 86640, Note_on_c, 0, 28, 0
8, 86640, Note_on_c, 0, 31, 127
8, 86760, Note_on_c, 0, 31, 0
8, 86760, Note_on_c, 0, 28, 127
8, 86820, Note_on_c, 0, 28, 0
8, 86820, Note_on_c, 0, 28, 127
8, 86880, Note_on_c, 0, 28, 0
8, 86880, Note_on_c, 0, 31, 127
8, 87000, Note_on_c, 0, 31, 0
8, 87000, Note_on_c, 0, 28, 127
8, 87060, Note_on_c, 0, 28, 0
8, 87060, Note_on_c, 0, 28, 127
8, 87120, Note_on_c, 0, 28, 0
8, 87120, Note_on_c, 0, 31, 127
8, 87240, Note_on_c, 0, 31, 0
8, 87240, Note_on_c, 0, 28, 127
8, 87300, Note_on_c, 0, 28, 0
8, 87300, Note_on_c, 0, 28, 127
8, 87360, Note_on_c, 0, 28, 0
8, 87360, Note_on_c, 0, 31, 127
8, 87480, Note_on_c, 0, 31, 0
8, 87480, Note_on_c, 0, 29, 127
8, 87520, Note_on_c, 0, 29, 0
8, 87520, Note_on_c, 0, 29, 127
8, 87560, Note_on_c, 0, 29, 0
8, 87560, Note_on_c, 0, 29, 127
8, 87600, Note_on_c, 0, 29, 0
8, 87600, Note_on_c, 0, 29, 127
8, 87640, Note_on_c, 0, 29, 0
8, 87640, Note_on_c, 0, 29, 127
8, 87680, Note_on_c, 0, 29, 0
8, 87680, Note_on_c, 0, 29, 127
8, 87720, Note_on_c, 0, 29, 0
8, 87720, Note_on_c, 0, 29, 127
8, 87840, Note_on_c, 0, 29, 0
8, 87840, Note_on_c, 0, 29, 127
8, 87960, Note_on_c, 0, 29, 0
8, 87960, Note_on_c, 0, 29, 127
8, 88000, Note_on_c, 0, 29, 0
8, 88000, Note_on_c, 0, 29, 127
8, 88040, Note_on_c, 0, 29, 0
8, 88040, Note_on_c, 0, 29, 127
8, 88080, Note_on_c, 0, 29, 0
8, 88080, Note_on_c, 0, 29, 127
8, 88120, Note_on_c, 0, 29, 0
8, 88120, Note_on_c, 0, 29, 127
8, 88160, Note_on_c, 0, 29, 0
8, 88160, Note_on_c, 0, 29, 127
8, 88200, Note_on_c, 0, 29, 0
8, 88200, Note_on_c, 0, 29, 127
8, 88320, Note_on_c, 0, 29, 0
8, 88320, Note_on_c, 0, 29, 127
8, 88440, Note_on_c, 0, 29, 0
8, 88440, Note_on_c, 0, 28, 127
8, 88500, Note_on_c, 0, 28, 0
8, 88500, Note_on_c, 0, 28, 127
8, 88560, Note_on_c, 0, 28, 0
8, 88560, Note_on_c, 0, 31, 127
8, 88680, Note_on_c, 0, 31, 0
8, 88680, Note_on_c, 0, 28, 127
8, 88740, Note_on_c, 0, 28, 0
8, 88740, Note_on_c, 0, 28, 127
8, 88800, Note_on_c, 0, 28, 0
8, 88800, Note_on_c, 0, 31, 127
8, 88920, Note_on_c, 0, 31, 0
8, 88920, Note_on_c, 0, 28, 127
8, 88980, Note_on_c, 0, 28, 0
8, 88980, Note_on_c, 0, 28, 127
8, 89040, Note_on_c, 0, 28, 0
8, 89040, Note_on_c, 0, 31, 127
8, 89160, Note_on_c, 0, 31, 0
8, 89160, Note_on_c, 0, 28, 127
8, 89220, Note_on_c, 0, 28, 0
8, 89220, Note_on_c, 0, 28, 127
8, 89280, Note_on_c, 0, 28, 0
8, 89280, Note_on_c, 0, 31, 127
8, 89400, Note_on_c, 0, 31, 0
8, 89400, Note_on_c, 0, 29, 127
8, 89440, Note_on_c, 0, 29, 0
8, 89440, Note_on_c, 0, 29, 127
8, 89480, Note_on_c, 0, 29, 0
8, 89480, Note_on_c, 0, 29, 127
8, 89520, Note_on_c, 0, 29, 0
8, 89520, Note_on_c, 0, 29, 127
8, 89560, Note_on_c, 0, 29, 0
8, 89560, Note_on_c, 0, 29, 127
8, 89600, Note_on_c, 0, 29, 0
8, 89600, Note_on_c, 0, 29, 127
8, 89640, Note_on_c, 0, 29, 0
8, 89640, Note_on_c, 0, 29, 127
8, 89760, Note_on_c, 0, 29, 0
8, 89760, Note_on_c, 0, 29, 127
8, 89880, Note_on_c, 0, 29, 0
8, 89880, Note_on_c, 0, 29, 127
8, 89920, Note_on_c, 0, 29, 0
8, 89920, Note_on_c, 0, 29, 127
8, 89960, Note_on_c, 0, 29, 0
8, 89960, Note_on_c, 0, 29, 127
8, 90000, Note_on_c, 0, 29, 0
8, 90000, Note_on_c, 0, 29, 127
8, 90040, Note_on_c, 0, 29, 0
8, 90040, Note_on_c, 0, 29, 127
8, 90080, Note_on_c, 0, 29, 0
8, 90080, Note_on_c, 0, 29, 127
8, 90120, Note_on_c, 0, 29, 0
8, 90120, Note_on_c, 0, 29, 127
8, 90240, Note_on_c, 0, 29, 0
8, 90240, Note_on_c, 0, 29, 127
8, 90360, Note_on_c, 0, 29, 0
8, 90360, Note_on_c, 0, 31, 127
8, 90400, Note_on_c, 0, 31, 0
8, 90400, Note_on_c, 0, 31, 127
8, 90440, Note_on_c, 0, 31, 0
8, 90440, Note_on_c, 0, 31, 127
8, 90480, Note_on_c, 0, 31, 0
8, 90480, Note_on_c, 0, 31, 127
8, 90520, Note_on_c, 0, 31, 0
8, 90520, Note_on_c, 0, 31, 127
8, 90560, Note_on_c, 0, 31, 0
8, 90560, Note_on_c, 0, 31, 127
8, 90600, Note_on_c, 0, 31, 0
8, 90600, Note_on_c, 0, 31, 127
8, 90660, Note_on_c, 0, 31, 0
8, 90720, Note_on_c, 0, 38, 127
8, 90760, Note_on_c, 0, 38, 0
8, 90760, Note_on_c, 0, 38, 127
8, 90800, Note_on_c, 0, 38, 0
8, 90800, Note_on_c, 0, 38, 127
8, 90840, Note_on_c, 0, 38, 0
8, 90840, Note_on_c, 0, 38, 127
8, 90880, Note_on_c, 0, 38, 0
8, 90880, Note_on_c, 0, 38, 127
8, 90920, Note_on_c, 0, 38, 0
8, 90920, Note_on_c, 0, 38, 127
8, 90960, Note_on_c, 0, 38, 0
8, 90960, Note_on_c, 0, 37, 127
8, 91000, Note_on_c, 0, 37, 0
8, 91000, Note_on_c, 0, 37, 127
8, 91040, Note_on_c, 0, 37, 0
8, 91040, Note_on_c, 0, 37, 127
8, 91080, Note_on_c, 0, 37, 0
8, 91080, Note_on_c, 0, 36, 127
8, 91120, Note_on_c, 0, 36, 0
8, 91120, Note_on_c, 0, 36, 127
8, 91160, Note_on_c, 0, 36, 0
8, 91160, Note_on_c, 0, 36, 127
8, 91200, Note_on_c, 0, 36, 0
8, 91200, Note_on_c, 0, 35, 127
8, 91240, Note_on_c, 0, 35, 0
8, 91240, Note_on_c, 0, 35, 127
8, 91280, Note_on_c, 0, 35, 0
8, 91280, Note_on_c, 0, 35, 127
8, 91320, Note_on_c, 0, 35, 0
8, 91320, Note_on_c, 0, 28, 127
8, 91360, Note_on_c, 0, 28, 0
8, 91360, Note_on_c, 0, 28, 127
8, 91400, Note_on_c, 0, 28, 0
8, 91400, Note_on_c, 0, 28, 127
8, 91440, Note_on_c, 0, 28, 0
8, 91440, Note_on_c, 0, 28, 127
8, 91480, Note_on_c, 0, 28, 0
8, 91480, Note_on_c, 0, 28, 127
8, 91520, Note_on_c, 0, 28, 0
8, 91520, Note_on_c, 0, 28, 127
8, 91560, Note_on_c, 0, 28, 0
8, 91560, Note_on_c, 0, 35, 127
8, 91680, Note_on_c, 0, 35, 0
8, 91680, Note_on_c, 0, 28, 127
8, 91720, Note_on_c, 0, 28, 0
8, 91720, Note_on_c, 0, 28, 127
8, 91760, Note_on_c, 0, 28, 0
8, 91760, Note_on_c, 0, 28, 127
8, 91800, Note_on_c, 0, 28, 0
8, 91800, Note_on_c, 0, 28, 127
8, 91840, Note_on_c, 0, 28, 0
8, 91840, Note_on_c, 0, 28, 127
8, 91880, Note_on_c, 0, 28, 0
8, 91880, Note_on_c, 0, 28, 127
8, 91920, Note_on_c, 0, 28, 0
8, 91920, Note_on_c, 0, 35, 127
8, 92040, Note_on_c, 0, 35, 0
8, 92040, Note_on_c, 0, 28, 127
8, 92080, Note_on_c, 0, 28, 0
8, 92080, Note_on_c, 0, 28, 127
8, 92120, Note_on_c, 0, 28, 0
8, 92120, Note_on_c, 0, 28, 127
8, 92160, Note_on_c, 0, 28, 0
8, 92160, Note_on_c, 0, 36, 127
8, 92280, Note_on_c, 0, 36, 0
8, 92280, Note_on_c, 0, 28, 127
8, 92320, Note_on_c, 0, 28, 0
8, 92320, Note_on_c, 0, 28, 127
8, 92360, Note_on_c, 0, 28, 0
8, 92360, Note_on_c, 0, 28, 127
8, 92400, Note_on_c, 0, 28, 0
8, 92400, Note_on_c, 0, 28, 127
8, 92440, Note_on_c, 0, 28, 0
8, 92440, Note_on_c, 0, 28, 127
8, 92480, Note_on_c, 0, 28, 0
8, 92480, Note_on_c, 0, 28, 127
8, 92520, Note_on_c, 0, 28, 0
8, 92520, Note_on_c, 0, 35, 127
8, 92640, Note_on_c, 0, 35, 0
8, 92640, Note_on_c, 0, 28, 127
8, 92680, Note_on_c, 0, 28, 0
8, 92680, Note_on_c, 0, 28, 127
8, 92720, Note_on_c, 0, 28, 0
8, 92720, Note_on_c, 0, 28, 127
8, 92760, Note_on_c, 0, 28, 0
8, 92760, Note_on_c, 0, 28, 127
8, 92800, Note_on_c, 0, 28, 0
8, 92800, Note_on_c, 0, 28, 127
8, 92840, Note_on_c, 0, 28, 0
8, 92840, Note_on_c, 0, 28, 127
8, 92880, Note_on_c, 0, 28, 0
8, 92880, Note_on_c, 0, 35, 127
8, 93000, Note_on_c, 0, 35, 0
8, 93000, Note_on_c, 0, 28, 127
8, 93040, Note_on_c, 0, 28, 0
8, 93040, Note_on_c, 0, 28, 127
8, 93080, Note_on_c, 0, 28, 0
8, 93080, Note_on_c, 0, 28, 127
8, 93120, Note_on_c, 0, 28, 0
8, 93120, Note_on_c, 0, 36, 127
8, 93240, Note_on_c, 0, 36, 0
8, 93240, Note_on_c, 0, 28, 127
8, 93280, Note_on_c, 0, 28, 0
8, 93280, Note_on_c, 0, 28, 127
8, 93320, Note_on_c, 0, 28, 0
8, 93320, Note_on_c, 0, 28, 127
8, 93360, Note_on_c, 0, 28, 0
8, 93360, Note_on_c, 0, 28, 127
8, 93400, Note_on_c, 0, 28, 0
8, 93400, Note_on_c, 0, 28, 127
8, 93440, Note_on_c, 0, 28, 0
8, 93440, Note_on_c, 0, 28, 127
8, 93480, Note_on_c, 0, 28, 0
8, 93480, Note_on_c, 0, 35, 127
8, 93600, Note_on_c, 0, 35, 0
8, 93600, Note_on_c, 0, 28, 127
8, 93640, Note_on_c, 0, 28, 0
8, 93640, Note_on_c, 0, 28, 127
8, 93680, Note_on_c, 0, 28, 0
8, 93680, Note_on_c, 0, 28, 127
8, 93720, Note_on_c, 0, 28, 0
8, 93720, Note_on_c, 0, 28, 127
8, 93760, Note_on_c, 0, 28, 0
8, 93760, Note_on_c, 0, 28, 127
8, 93800, Note_on_c, 0, 28, 0
8, 93800, Note_on_c, 0, 28, 127
8, 93840, Note_on_c, 0, 28, 0
8, 93840, Note_on_c, 0, 35, 127
8, 93960, Note_on_c, 0, 35, 0
8, 93960, Note_on_c, 0, 28, 127
8, 94000, Note_on_c, 0, 28, 0
8, 94000, Note_on_c, 0, 28, 127
8, 94040, Note_on_c, 0, 28, 0
8, 94040, Note_on_c, 0, 28, 127
8, 94080, Note_on_c, 0, 28, 0
8, 94080, Note_on_c, 0, 36, 127
8, 94200, Note_on_c, 0, 36, 0
8, 94200, Note_on_c, 0, 28, 127
8, 94240, Note_on_c, 0, 28, 0
8, 94240, Note_on_c, 0, 28, 127
8, 94280, Note_on_c, 0, 28, 0
8, 94280, Note_on_c, 0, 28, 127
8, 94320, Note_on_c, 0, 28, 0
8, 94320, Note_on_c, 0, 28, 127
8, 94360, Note_on_c, 0, 28, 0
8, 94360, Note_on_c, 0, 28, 127
8, 94400, Note_on_c, 0, 28, 0
8, 94400, Note_on_c, 0, 28, 127
8, 94440, Note_on_c, 0, 28, 0
8, 94440, Note_on_c, 0, 35, 127
8, 94560, Note_on_c, 0, 35, 0
8, 94560, Note_on_c, 0, 28, 127
8, 94600, Note_on_c, 0, 28, 0
8, 94600, Note_on_c, 0, 28, 127
8, 94640, Note_on_c, 0, 28, 0
8, 94640, Note_on_c, 0, 28, 127
8, 94680, Note_on_c, 0, 28, 0
8, 94680, Note_on_c, 0, 28, 127
8, 94720, Note_on_c, 0, 28, 0
8, 94720, Note_on_c, 0, 28, 127
8, 94760, Note_on_c, 0, 28, 0
8, 94760, Note_on_c, 0, 28, 127
8, 94800, Note_on_c, 0, 28, 0
8, 94800, Note_on_c, 0, 35, 127
8, 94920, Note_on_c, 0, 35, 0
8, 94920, Note_on_c, 0, 28, 127
8, 94960, Note_on_c, 0, 28, 0
8, 94960, Note_on_c, 0, 28, 127
8, 95000, Note_on_c, 0, 28, 0
8, 95000, Note_on_c, 0, 28, 127
8, 95040, Note_on_c, 0, 28, 0
8, 95040, Note_on_c, 0, 36, 127
8, 95160, Note_on_c, 0, 36, 0
8, 95160, Note_on_c, 0, 40, 127
8, 95200, Note_on_c, 0, 40, 0
8, 95200, Note_on_c, 0, 40, 127
8, 95240, Note_on_c, 0, 40, 0
8, 95240, Note_on_c, 0, 40, 127
8, 95280, Note_on_c, 0, 40, 0
8, 95280, Note_on_c, 0, 40, 127
8, 95320, Note_on_c, 0, 40, 0
8, 95320, Note_on_c, 0, 40, 127
8, 95360, Note_on_c, 0, 40, 0
8, 95360, Note_on_c, 0, 40, 127
8, 95400, Note_on_c, 0, 40, 0
8, 95400, Note_on_c, 0, 40, 127
8, 95460, Note_on_c, 0, 40, 0
8, 95520, Note_on_c, 0, 38, 127
8, 95560, Note_on_c, 0, 38, 0
8, 95560, Note_on_c, 0, 38, 127
8, 95600, Note_on_c, 0, 38, 0
8, 95600, Note_on_c, 0, 38, 127
8, 95640, Note_on_c, 0, 38, 0
8, 95640, Note_on_c, 0, 38, 127
8, 95680, Note_on_c, 0, 38, 0
8, 95680, Note_on_c, 0, 38, 127
8, 95720, Note_on_c, 0, 38, 0
8, 95720, Note_on_c, 0, 38, 127
8, 95760, Note_on_c, 0, 38, 0
8, 95760, Note_on_c, 0, 37, 127
8, 95800, Note_on_c, 0, 37, 0
8, 95800, Note_on_c, 0, 37, 127
8, 95840, Note_on_c, 0, 37, 0
8, 95840, Note_on_c, 0, 37, 127
8, 95880, Note_on_c, 0, 37, 0
8, 95880, Note_on_c, 0, 36, 127
8, 95920, Note_on_c, 0, 36, 0
8, 95920, Note_on_c, 0, 36, 127
8, 95960, Note_on_c, 0, 36, 0
8, 95960, Note_on_c, 0, 36, 127
8, 96000, Note_on_c, 0, 36, 0
8, 96000, Note_on_c, 0, 35, 127
8, 96040, Note_on_c, 0, 35, 0
8, 96040, Note_on_c, 0, 35, 127
8, 96080, Note_on_c, 0, 35, 0
8, 96080, Note_on_c, 0, 35, 127
8, 96120, Note_on_c, 0, 35, 0
8, 96120, Note_on_c, 0, 28, 127
8, 96160, Note_on_c, 0, 28, 0
8, 96160, Note_on_c, 0, 28, 127
8, 96200, Note_on_c, 0, 28, 0
8, 96200, Note_on_c, 0, 28, 127
8, 96240, Note_on_c, 0, 28, 0
8, 96240, Note_on_c, 0, 28, 127
8, 96280, Note_on_c, 0, 28, 0
8, 96280, Note_on_c, 0, 28, 127
8, 96320, Note_on_c, 0, 28, 0
8, 96320, Note_on_c, 0, 28, 127
8, 96360, Note_on_c, 0, 28, 0
8, 96360, Note_on_c, 0, 35, 127
8, 96480, Note_on_c, 0, 35, 0
8, 96480, Note_on_c, 0, 28, 127
8, 96520, Note_on_c, 0, 28, 0
8, 96520, Note_on_c, 0, 28, 127
8, 96560, Note_on_c, 0, 28, 0
8, 96560, Note_on_c, 0, 28, 127
8, 96600, Note_on_c, 0, 28, 0
8, 96600, Note_on_c, 0, 28, 127
8, 96640, Note_on_c, 0, 28, 0
8, 96640, Note_on_c, 0, 28, 127
8, 96680, Note_on_c, 0, 28, 0
8, 96680, Note_on_c, 0, 28, 127
8, 96720, Note_on_c, 0, 28, 0
8, 96720, Note_on_c, 0, 35, 127
8, 96840, Note_on_c, 0, 35, 0
8, 96840, Note_on_c, 0, 28, 127
8, 96880, Note_on_c, 0, 28, 0
8, 96880, Note_on_c, 0, 28, 127
8, 96920, Note_on_c, 0, 28, 0
8, 96920, Note_on_c, 0, 28, 127
8, 96960, Note_on_c, 0, 28, 0
8, 96960, Note_on_c, 0, 36, 127
8, 97080, Note_on_c, 0, 36, 0
8, 97080, Note_on_c, 0, 28, 127
8, 97120, Note_on_c, 0, 28, 0
8, 97120, Note_on_c, 0, 28, 127
8, 97160, Note_on_c, 0, 28, 0
8, 97160, Note_on_c, 0, 28, 127
8, 97200, Note_on_c, 0, 28, 0
8, 97200, Note_on_c, 0, 28, 127
8, 97240, Note_on_c, 0, 28, 0
8, 97240, Note_on_c, 0, 28, 127
8, 97280, Note_on_c, 0, 28, 0
8, 97280, Note_on_c, 0, 28, 127
8, 97320, Note_on_c, 0, 28, 0
8, 97320, Note_on_c, 0, 35, 127
8, 97440, Note_on_c, 0, 35, 0
8, 97440, Note_on_c, 0, 28, 127
8, 97480, Note_on_c, 0, 28, 0
8, 97480, Note_on_c, 0, 28, 127
8, 97520, Note_on_c, 0, 28, 0
8, 97520, Note_on_c, 0, 28, 127
8, 97560, Note_on_c, 0, 28, 0
8, 97560, Note_on_c, 0, 28, 127
8, 97600, Note_on_c, 0, 28, 0
8, 97600, Note_on_c, 0, 28, 127
8, 97640, Note_on_c, 0, 28, 0
8, 97640, Note_on_c, 0, 28, 127
8, 97680, Note_on_c, 0, 28, 0
8, 97680, Note_on_c, 0, 35, 127
8, 97800, Note_on_c, 0, 35, 0
8, 97800, Note_on_c, 0, 28, 127
8, 97840, Note_on_c, 0, 28, 0
8, 97840, Note_on_c, 0, 28, 127
8, 97880, Note_on_c, 0, 28, 0
8, 97880, Note_on_c, 0, 28, 127
8, 97920, Note_on_c, 0, 28, 0
8, 97920, Note_on_c, 0, 36, 127
8, 98040, Note_on_c, 0, 36, 0
8, 98040, Note_on_c, 0, 28, 127
8, 98080, Note_on_c, 0, 28, 0
8, 98080, Note_on_c, 0, 28, 127
8, 98120, Note_on_c, 0, 28, 0
8, 98120, Note_on_c, 0, 28, 127
8, 98160, Note_on_c, 0, 28, 0
8, 98160, Note_on_c, 0, 28, 127
8, 98200, Note_on_c, 0, 28, 0
8, 98200, Note_on_c, 0, 28, 127
8, 98240, Note_on_c, 0, 28, 0
8, 98240, Note_on_c, 0, 28, 127
8, 98280, Note_on_c, 0, 28, 0
8, 98280, Note_on_c, 0, 35, 127
8, 98400, Note_on_c, 0, 35, 0
8, 98400, Note_on_c, 0, 28, 127
8, 98440, Note_on_c, 0, 28, 0
8, 98440, Note_on_c, 0, 28, 127
8, 98480, Note_on_c, 0, 28, 0
8, 98480, Note_on_c, 0, 28, 127
8, 98520, Note_on_c, 0, 28, 0
8, 98520, Note_on_c, 0, 28, 127
8, 98560, Note_on_c, 0, 28, 0
8, 98560, Note_on_c, 0, 28, 127
8, 98600, Note_on_c, 0, 28, 0
8, 98600, Note_on_c, 0, 28, 127
8, 98640, Note_on_c, 0, 28, 0
8, 98640, Note_on_c, 0, 35, 127
8, 98760, Note_on_c, 0, 35, 0
8, 98760, Note_on_c, 0, 28, 127
8, 98800, Note_on_c, 0, 28, 0
8, 98800, Note_on_c, 0, 28, 127
8, 98840, Note_on_c, 0, 28, 0
8, 98840, Note_on_c, 0, 28, 127
8, 98880, Note_on_c, 0, 28, 0
8, 98880, Note_on_c, 0, 36, 127
8, 99000, Note_on_c, 0, 36, 0
8, 99000, Note_on_c, 0, 28, 127
8, 99040, Note_on_c, 0, 28, 0
8, 99040, Note_on_c, 0, 28, 127
8, 99080, Note_on_c, 0, 28, 0
8, 99080, Note_on_c, 0, 28, 127
8, 99120, Note_on_c, 0, 28, 0
8, 99120, Note_on_c, 0, 28, 127
8, 99160, Note_on_c, 0, 28, 0
8, 99160, Note_on_c, 0, 28, 127
8, 99200, Note_on_c, 0, 28, 0
8, 99200, Note_on_c, 0, 28, 127
8, 99240, Note_on_c, 0, 28, 0
8, 99240, Note_on_c, 0, 35, 127
8, 99360, Note_on_c, 0, 35, 0
8, 99360, Note_on_c, 0, 28, 127
8, 99400, Note_on_c, 0, 28, 0
8, 99400, Note_on_c, 0, 28, 127
8, 99440, Note_on_c, 0, 28, 0
8, 99440, Note_on_c, 0, 28, 127
8, 99480, Note_on_c, 0, 28, 0
8, 99480, Note_on_c, 0, 28, 127
8, 99520, Note_on_c, 0, 28, 0
8, 99520, Note_on_c, 0, 28, 127
8, 99560, Note_on_c, 0, 28, 0
8, 99560, Note_on_c, 0, 28, 127
8, 99600, Note_on_c, 0, 28, 0
8, 99600, Note_on_c, 0, 35, 127
8, 99720, Note_on_c, 0, 35, 0
8, 99720, Note_on_c, 0, 28, 127
8, 99760, Note_on_c, 0, 28, 0
8, 99760, Note_on_c, 0, 28, 127
8, 99800, Note_on_c, 0, 28, 0
8, 99800, Note_on_c, 0, 28, 127
8, 99840, Note_on_c, 0, 28, 0
8, 99840, Note_on_c, 0, 36, 127
8, 99960, Note_on_c, 0, 36, 0
8, 99960, Note_on_c, 0, 28, 127
8, 100000, Note_on_c, 0, 28, 0
8, 100000, Note_on_c, 0, 28, 127
8, 100040, Note_on_c, 0, 28, 0
8, 100040, Note_on_c, 0, 28, 127
8, 100080, Note_on_c, 0, 28, 0
8, 100080, Note_on_c, 0, 28, 127
8, 100120, Note_on_c, 0, 28, 0
8, 100120, Note_on_c, 0, 28, 127
8, 100160, Note_on_c, 0, 28, 0
8, 100160, Note_on_c, 0, 28, 127
8, 100200, Note_on_c, 0, 28, 0
8, 100200, Note_on_c, 0, 35, 127
8, 100320, Note_on_c, 0, 35, 0
8, 100320, Note_on_c, 0, 28, 127
8, 100360, Note_on_c, 0, 28, 0
8, 100360, Note_on_c, 0, 28, 127
8, 100400, Note_on_c, 0, 28, 0
8, 100400, Note_on_c, 0, 28, 127
8, 100440, Note_on_c, 0, 28, 0
8, 100440, Note_on_c, 0, 28, 127
8, 100480, Note_on_c, 0, 28, 0
8, 100480, Note_on_c, 0, 28, 127
8, 100520, Note_on_c, 0, 28, 0
8, 100520, Note_on_c, 0, 28, 127
8, 100560, Note_on_c, 0, 28, 0
8, 100560, Note_on_c, 0, 35, 127
8, 100680, Note_on_c, 0, 35, 0
8, 100680, Note_on_c, 0, 28, 127
8, 100720, Note_on_c, 0, 28, 0
8, 100720, Note_on_c, 0, 28, 127
8, 100760, Note_on_c, 0, 28, 0
8, 100760, Note_on_c, 0, 28, 127
8, 100800, Note_on_c, 0, 28, 0
8, 100800, Note_on_c, 0, 36, 127
8, 100920, Note_on_c, 0, 36, 0
8, 100920, Note_on_c, 0, 28, 127
8, 100960, Note_on_c, 0, 28, 0
8, 100960, Note_on_c, 0, 28, 127
8, 101000, Note_on_c, 0, 28, 0
8, 101000, Note_on_c, 0, 28, 127
8, 101040, Note_on_c, 0, 28, 0
8, 101040, Note_on_c, 0, 28, 127
8, 101080, Note_on_c, 0, 28, 0
8, 101080, Note_on_c, 0, 28, 127
8, 101120, Note_on_c, 0, 28, 0
8, 101120, Note_on_c, 0, 28, 127
8, 101160, Note_on_c, 0, 28, 0
8, 101160, Note_on_c, 0, 35, 127
8, 101280, Note_on_c, 0, 35, 0
8, 101280, Note_on_c, 0, 28, 127
8, 101320, Note_on_c, 0, 28, 0
8, 101320, Note_on_c, 0, 28, 127
8, 101360, Note_on_c, 0, 28, 0
8, 101360, Note_on_c, 0, 28, 127
8, 101400, Note_on_c, 0, 28, 0
8, 101400, Note_on_c, 0, 28, 127
8, 101440, Note_on_c, 0, 28, 0
8, 101440, Note_on_c, 0, 28, 127
8, 101480, Note_on_c, 0, 28, 0
8, 101480, Note_on_c, 0, 28, 127
8, 101520, Note_on_c, 0, 28, 0
8, 101520, Note_on_c, 0, 35, 127
8, 101640, Note_on_c, 0, 35, 0
8, 101640, Note_on_c, 0, 28, 127
8, 101680, Note_on_c, 0, 28, 0
8, 101680, Note_on_c, 0, 28, 127
8, 101720, Note_on_c, 0, 28, 0
8, 101720, Note_on_c, 0, 28, 127
8, 101760, Note_on_c, 0, 28, 0
8, 101760, Note_on_c, 0, 36, 127
8, 101880, Note_on_c, 0, 36, 0
8, 101880, Note_on_c, 0, 28, 127
8, 101920, Note_on_c, 0, 28, 0
8, 101920, Note_on_c, 0, 28, 127
8, 101960, Note_on_c, 0, 28, 0
8, 101960, Note_on_c, 0, 28, 127
8, 102000, Note_on_c, 0, 28, 0
8, 102000, Note_on_c, 0, 28, 127
8, 102040, Note_on_c, 0, 28, 0
8, 102040, Note_on_c, 0, 28, 127
8, 102080, Note_on_c, 0, 28, 0
8, 102080, Note_on_c, 0, 28, 127
8, 102120, Note_on_c, 0, 28, 0
8, 102120, Note_on_c, 0, 35, 127
8, 102240, Note_on_c, 0, 35, 0
8, 102240, Note_on_c, 0, 28, 127
8, 102280, Note_on_c, 0, 28, 0
8, 102280, Note_on_c, 0, 28, 127
8, 102320, Note_on_c, 0, 28, 0
8, 102320, Note_on_c, 0, 28, 127
8, 102360, Note_on_c, 0, 28, 0
8, 102360, Note_on_c, 0, 28, 127
8, 102400, Note_on_c, 0, 28, 0
8, 102400, Note_on_c, 0, 28, 127
8, 102440, Note_on_c, 0, 28, 0
8, 102440, Note_on_c, 0, 28, 127
8, 102480, Note_on_c, 0, 28, 0
8, 102480, Note_on_c, 0, 35, 127
8, 102600, Note_on_c, 0, 35, 0
8, 102600, Note_on_c, 0, 28, 127
8, 102640, Note_on_c, 0, 28, 0
8, 102640, Note_on_c, 0, 28, 127
8, 102680, Note_on_c, 0, 28, 0
8, 102680, Note_on_c, 0, 28, 127
8, 102720, Note_on_c, 0, 28, 0
8, 102720, Note_on_c, 0, 36, 127
8, 102840, Note_on_c, 0, 36, 0
8, 102840, Note_on_c, 0, 28, 127
8, 102880, Note_on_c, 0, 28, 0
8, 102880, Note_on_c, 0, 28, 127
8, 102920, Note_on_c, 0, 28, 0
8, 102920, Note_on_c, 0, 28, 127
8, 102960, Note_on_c, 0, 28, 0
8, 102960, Note_on_c, 0, 28, 127
8, 103000, Note_on_c, 0, 28, 0
8, 103000, Note_on_c, 0, 28, 127
8, 103040, Note_on_c, 0, 28, 0
8, 103040, Note_on_c, 0, 28, 127
8, 103080, Note_on_c, 0, 28, 0
8, 103080, Note_on_c, 0, 35, 127
8, 103200, Note_on_c, 0, 35, 0
8, 103200, Note_on_c, 0, 28, 127
8, 103240, Note_on_c, 0, 28, 0
8, 103240, Note_on_c, 0, 28, 127
8, 103280, Note_on_c, 0, 28, 0
8, 103280, Note_on_c, 0, 28, 127
8, 103320, Note_on_c, 0, 28, 0
8, 103320, Note_on_c, 0, 28, 127
8, 103360, Note_on_c, 0, 28, 0
8, 103360, Note_on_c, 0, 28, 127
8, 103400, Note_on_c, 0, 28, 0
8, 103400, Note_on_c, 0, 28, 127
8, 103440, Note_on_c, 0, 28, 0
8, 103440, Note_on_c, 0, 35, 127
8, 103560, Note_on_c, 0, 35, 0
8, 103560, Note_on_c, 0, 28, 127
8, 103600, Note_on_c, 0, 28, 0
8, 103600, Note_on_c, 0, 28, 127
8, 103640, Note_on_c, 0, 28, 0
8, 103640, Note_on_c, 0, 28, 127
8, 103680, Note_on_c, 0, 28, 0
8, 103680, Note_on_c, 0, 36, 127
8, 103800, Note_on_c, 0, 36, 0
8, 103800, Note_on_c, 0, 28, 127
8, 103840, Note_on_c, 0, 28, 0
8, 103840, Note_on_c, 0, 28, 127
8, 103880, Note_on_c, 0, 28, 0
8, 103880, Note_on_c, 0, 28, 127
8, 103920, Note_on_c, 0, 28, 0
8, 103920, Note_on_c, 0, 28, 127
8, 103960, Note_on_c, 0, 28, 0
8, 103960, Note_on_c, 0, 28, 127
8, 104000, Note_on_c, 0, 28, 0
8, 104000, Note_on_c, 0, 28, 127
8, 104040, Note_on_c, 0, 28, 0
8, 104040, Note_on_c, 0, 35, 127
8, 104160, Note_on_c, 0, 35, 0
8, 104160, Note_on_c, 0, 28, 127
8, 104200, Note_on_c, 0, 28, 0
8, 104200, Note_on_c, 0, 28, 127
8, 104240, Note_on_c, 0, 28, 0
8, 104240, Note_on_c, 0, 28, 127
8, 104280, Note_on_c, 0, 28, 0
8, 104280, Note_on_c, 0, 28, 127
8, 104320, Note_on_c, 0, 28, 0
8, 104320, Note_on_c, 0, 28, 127
8, 104360, Note_on_c, 0, 28, 0
8, 104360, Note_on_c, 0, 28, 127
8, 104400, Note_on_c, 0, 28, 0
8, 104400, Note_on_c, 0, 35, 127
8, 104520, Note_on_c, 0, 35, 0
8, 104520, Note_on_c, 0, 28, 127
8, 104560, Note_on_c, 0, 28, 0
8, 104560, Note_on_c, 0, 28, 127
8, 104600, Note_on_c, 0, 28, 0
8, 104600, Note_on_c, 0, 28, 127
8, 104640, Note_on_c, 0, 28, 0
8, 104640, Note_on_c, 0, 36, 127
8, 104760, Note_on_c, 0, 36, 0
8, 104760, Note_on_c, 0, 28, 127
8, 104800, Note_on_c, 0, 28, 0
8, 104800, Note_on_c, 0, 28, 127
8, 104840, Note_on_c, 0, 28, 0
8, 104840, Note_on_c, 0, 28, 127
8, 104880, Note_on_c, 0, 28, 0
8, 104880, Note_on_c, 0, 28, 127
8, 104920, Note_on_c, 0, 28, 0
8, 104920, Note_on_c, 0, 28, 127
8, 104960, Note_on_c, 0, 28, 0
8, 104960, Note_on_c, 0, 28, 127
8, 105000, Note_on_c, 0, 28, 0
8, 105000, Note_on_c, 0, 35, 127
8, 105120, Note_on_c, 0, 35, 0
8, 105120, Note_on_c, 0, 28, 127
8, 105160, Note_on_c, 0, 28, 0
8, 105160, Note_on_c, 0, 28, 127
8, 105200, Note_on_c, 0, 28, 0
8, 105200, Note_on_c, 0, 28, 127
8, 105240, Note_on_c, 0, 28, 0
8, 105240, Note_on_c, 0, 28, 127
8, 105280, Note_on_c, 0, 28, 0
8, 105280, Note_on_c, 0, 28, 127
8, 105320, Note_on_c, 0, 28, 0
8, 105320, Note_on_c, 0, 28, 127
8, 105360, Note_on_c, 0, 28, 0
8, 105360, Note_on_c, 0, 35, 127
8, 105480, Note_on_c, 0, 35, 0
8, 105480, Note_on_c, 0, 28, 127
8, 105520, Note_on_c, 0, 28, 0
8, 105520, Note_on_c, 0, 28, 127
8, 105560, Note_on_c, 0, 28, 0
8, 105560, Note_on_c, 0, 28, 127
8, 105600, Note_on_c, 0, 28, 0
8, 105600, Note_on_c, 0, 36, 127
8, 105720, Note_on_c, 0, 36, 0
8, 105720, Note_on_c, 0, 28, 127
8, 105760, Note_on_c, 0, 28, 0
8, 105760, Note_on_c, 0, 28, 127
8, 105800, Note_on_c, 0, 28, 0
8, 105800, Note_on_c, 0, 28, 127
8, 105840, Note_on_c, 0, 28, 0
8, 105840, Note_on_c, 0, 28, 127
8, 105880, Note_on_c, 0, 28, 0
8, 105880, Note_on_c, 0, 28, 127
8, 105920, Note_on_c, 0, 28, 0
8, 105920, Note_on_c, 0, 28, 127
8, 105960, Note_on_c, 0, 28, 0
8, 105960, Note_on_c, 0, 35, 127
8, 106080, Note_on_c, 0, 35, 0
8, 106080, Note_on_c, 0, 28, 127
8, 106120, Note_on_c, 0, 28, 0
8, 106120, Note_on_c, 0, 28, 127
8, 106160, Note_on_c, 0, 28, 0
8, 106160, Note_on_c, 0, 28, 127
8, 106200, Note_on_c, 0, 28, 0
8, 106200, Note_on_c, 0, 28, 127
8, 106240, Note_on_c, 0, 28, 0
8, 106240, Note_on_c, 0, 28, 127
8, 106280, Note_on_c, 0, 28, 0
8, 106280, Note_on_c, 0, 28, 127
8, 106320, Note_on_c, 0, 28, 0
8, 106320, Note_on_c, 0, 35, 127
8, 106440, Note_on_c, 0, 35, 0
8, 106440, Note_on_c, 0, 28, 127
8, 106480, Note_on_c, 0, 28, 0
8, 106480, Note_on_c, 0, 28, 127
8, 106520, Note_on_c, 0, 28, 0
8, 106520, Note_on_c, 0, 28, 127
8, 106560, Note_on_c, 0, 28, 0
8, 106560, Note_on_c, 0, 36, 127
8, 106680, Note_on_c, 0, 36, 0
8, 106680, Note_on_c, 0, 28, 127
8, 106720, Note_on_c, 0, 28, 0
8, 106720, Note_on_c, 0, 28, 127
8, 106760, Note_on_c, 0, 28, 0
8, 106760, Note_on_c, 0, 28, 127
8, 106800, Note_on_c, 0, 28, 0
8, 106800, Note_on_c, 0, 28, 127
8, 106840, Note_on_c, 0, 28, 0
8, 106840, Note_on_c, 0, 28, 127
8, 106880, Note_on_c, 0, 28, 0
8, 106880, Note_on_c, 0, 28, 127
8, 106920, Note_on_c, 0, 28, 0
8, 106920, Note_on_c, 0, 35, 127
8, 107040, Note_on_c, 0, 35, 0
8, 107040, Note_on_c, 0, 28, 127
8, 107080, Note_on_c, 0, 28, 0
8, 107080, Note_on_c, 0, 28, 127
8, 107120, Note_on_c, 0, 28, 0
8, 107120, Note_on_c, 0, 28, 127
8, 107160, Note_on_c, 0, 28, 0
8, 107160, Note_on_c, 0, 28, 127
8, 107200, Note_on_c, 0, 28, 0
8, 107200, Note_on_c, 0, 28, 127
8, 107240, Note_on_c, 0, 28, 0
8, 107240, Note_on_c, 0, 28, 127
8, 107280, Note_on_c, 0, 28, 0
8, 107280, Note_on_c, 0, 35, 127
8, 107400, Note_on_c, 0, 35, 0
8, 107400, Note_on_c, 0, 28, 127
8, 107440, Note_on_c, 0, 28, 0
8, 107440, Note_on_c, 0, 28, 127
8, 107480, Note_on_c, 0, 28, 0
8, 107480, Note_on_c, 0, 28, 127
8, 107520, Note_on_c, 0, 28, 0
8, 107520, Note_on_c, 0, 36, 127
8, 107640, Note_on_c, 0, 36, 0
8, 107640, Note_on_c, 0, 28, 127
8, 107680, Note_on_c, 0, 28, 0
8, 107680, Note_on_c, 0, 28, 127
8, 107720, Note_on_c, 0, 28, 0
8, 107720, Note_on_c, 0, 28, 127
8, 107760, Note_on_c, 0, 28, 0
8, 107760, Note_on_c, 0, 28, 127
8, 107800, Note_on_c, 0, 28, 0
8, 107800, Note_on_c, 0, 28, 127
8, 107840, Note_on_c, 0, 28, 0
8, 107840, Note_on_c, 0, 28, 127
8, 107880, Note_on_c, 0, 28, 0
8, 107880, Note_on_c, 0, 35, 127
8, 108000, Note_on_c, 0, 35, 0
8, 108000, Note_on_c, 0, 28, 127
8, 108040, Note_on_c, 0, 28, 0
8, 108040, Note_on_c, 0, 28, 127
8, 108080, Note_on_c, 0, 28, 0
8, 108080, Note_on_c, 0, 28, 127
8, 108120, Note_on_c, 0, 28, 0
8, 108120, Note_on_c, 0, 28, 127
8, 108160, Note_on_c, 0, 28, 0
8, 108160, Note_on_c, 0, 28, 127
8, 108200, Note_on_c, 0, 28, 0
8, 108200, Note_on_c, 0, 28, 127
8, 108240, Note_on_c, 0, 28, 0
8, 108240, Note_on_c, 0, 35, 127
8, 108360, Note_on_c, 0, 35, 0
8, 108360, Note_on_c, 0, 28, 127
8, 108400, Note_on_c, 0, 28, 0
8, 108400, Note_on_c, 0, 28, 127
8, 108440, Note_on_c, 0, 28, 0
8, 108440, Note_on_c, 0, 28, 127
8, 108480, Note_on_c, 0, 28, 0
8, 108480, Note_on_c, 0, 36, 127
8, 108600, Note_on_c, 0, 36, 0
8, 108600, Note_on_c, 0, 28, 127
8, 108660, Note_on_c, 0, 28, 0
8, 108660, Note_on_c, 0, 28, 127
8, 108720, Note_on_c, 0, 28, 0
8, 108720, Note_on_c, 0, 31, 127
8, 108840, Note_on_c, 0, 31, 0
8, 108840, Note_on_c, 0, 28, 127
8, 108900, Note_on_c, 0, 28, 0
8, 108900, Note_on_c, 0, 28, 127
8, 108960, Note_on_c, 0, 28, 0
8, 108960, Note_on_c, 0, 31, 127
8, 109080, Note_on_c, 0, 31, 0
8, 109080, Note_on_c, 0, 28, 127
8, 109140, Note_on_c, 0, 28, 0
8, 109140, Note_on_c, 0, 28, 127
8, 109200, Note_on_c, 0, 28, 0
8, 109200, Note_on_c, 0, 31, 127
8, 109320, Note_on_c, 0, 31, 0
8, 109320, Note_on_c, 0, 28, 127
8, 109380, Note_on_c, 0, 28, 0
8, 109380, Note_on_c, 0, 28, 127
8, 109440, Note_on_c, 0, 28, 0
8, 109440, Note_on_c, 0, 31, 127
8, 109560, Note_on_c, 0, 31, 0
8, 109560, Note_on_c, 0, 28, 127
8, 109600, Note_on_c, 0, 28, 0
8, 109600, Note_on_c, 0, 28, 127
8, 109640, Note_on_c, 0, 28, 0
8, 109640, Note_on_c, 0, 28, 127
8, 109680, Note_on_c, 0, 28, 0
8, 109680, Note_on_c, 0, 28, 127
8, 109720, Note_on_c, 0, 28, 0
8, 109720, Note_on_c, 0, 28, 127
8, 109760, Note_on_c, 0, 28, 0
8, 109760, Note_on_c, 0, 28, 127
8, 109800, Note_on_c, 0, 28, 0
8, 109800, Note_on_c, 0, 35, 127
8, 109920, Note_on_c, 0, 35, 0
8, 109920, Note_on_c, 0, 28, 127
8, 109960, Note_on_c, 0, 28, 0
8, 109960, Note_on_c, 0, 28, 127
8, 110000, Note_on_c, 0, 28, 0
8, 110000, Note_on_c, 0, 28, 127
8, 110040, Note_on_c, 0, 28, 0
8, 110040, Note_on_c, 0, 28, 127
8, 110080, Note_on_c, 0, 28, 0
8, 110080, Note_on_c, 0, 28, 127
8, 110120, Note_on_c, 0, 28, 0
8, 110120, Note_on_c, 0, 28, 127
8, 110160, Note_on_c, 0, 28, 0
8, 110160, Note_on_c, 0, 35, 127
8, 110280, Note_on_c, 0, 35, 0
8, 110280, Note_on_c, 0, 28, 127
8, 110320, Note_on_c, 0, 28, 0
8, 110320, Note_on_c, 0, 28, 127
8, 110360, Note_on_c, 0, 28, 0
8, 110360, Note_on_c, 0, 28, 127
8, 110400, Note_on_c, 0, 28, 0
8, 110400, Note_on_c, 0, 36, 127
8, 110520, Note_on_c, 0, 36, 0
8, 110520, Note_on_c, 0, 28, 127
8, 110580, Note_on_c, 0, 28, 0
8, 110580, Note_on_c, 0, 28, 127
8, 110640, Note_on_c, 0, 28, 0
8, 110640, Note_on_c, 0, 31, 127
8, 110760, Note_on_c, 0, 31, 0
8, 110760, Note_on_c, 0, 28, 127
8, 110820, Note_on_c, 0, 28, 0
8, 110820, Note_on_c, 0, 28, 127
8, 110880, Note_on_c, 0, 28, 0
8, 110880, Note_on_c, 0, 31, 127
8, 111000, Note_on_c, 0, 31, 0
8, 111000, Note_on_c, 0, 28, 127
8, 111060, Note_on_c, 0, 28, 0
8, 111060, Note_on_c, 0, 28, 127
8, 111120, Note_on_c, 0, 28, 0
8, 111120, Note_on_c, 0, 31, 127
8, 111240, Note_on_c, 0, 31, 0
8, 111240, Note_on_c, 0, 28, 127
8, 111300, Note_on_c, 0, 28, 0
8, 111300, Note_on_c, 0, 28, 127
8, 111360, Note_on_c, 0, 28, 0
8, 111360, Note_on_c, 0, 31, 127
8, 111480, Note_on_c, 0, 31, 0
8, 111480, Note_on_c, 0, 28, 127
8, 111520, Note_on_c, 0, 28, 0
8, 111520, Note_on_c, 0, 28, 127
8, 111560, Note_on_c, 0, 28, 0
8, 111560, Note_on_c, 0, 28, 127
8, 111600, Note_on_c, 0, 28, 0
8, 111600, Note_on_c, 0, 28, 127
8, 111640, Note_on_c, 0, 28, 0
8, 111640, Note_on_c, 0, 28, 127
8, 111680, Note_on_c, 0, 28, 0
8, 111680, Note_on_c, 0, 28, 127
8, 111720, Note_on_c, 0, 28, 0
8, 111720, Note_on_c, 0, 40, 127
8, 111720, Note_on_c, 0, 28, 127
8, 111840, Note_on_c, 0, 40, 0
8, 111840, Note_on_c, 0, 28, 0
8, 111840, Note_on_c, 0, 40, 127
8, 111840, Note_on_c, 0, 28, 127
8, 111960, Note_on_c, 0, 40, 0
8, 111960, Note_on_c, 0, 28, 0
8, 111960, Note_on_c, 0, 29, 127
8, 112020, Note_on_c, 0, 29, 0
8, 112020, Note_on_c, 0, 29, 127
8, 112080, Note_on_c, 0, 29, 0
8, 112080, Note_on_c, 0, 29, 127
8, 112200, Note_on_c, 0, 29, 0
8, 112200, Note_on_c, 0, 29, 127
8, 112260, Note_on_c, 0, 29, 0
8, 112260, Note_on_c, 0, 29, 127
8, 112320, Note_on_c, 0, 29, 0
8, 112320, Note_on_c, 0, 29, 127
8, 112440, Note_on_c, 0, 29, 0
8, 112440, Note_on_c, 0, 28, 127
8, 112480, Note_on_c, 0, 28, 0
8, 112480, Note_on_c, 0, 28, 127
8, 112520, Note_on_c, 0, 28, 0
8, 112520, Note_on_c, 0, 28, 127
8, 112560, Note_on_c, 0, 28, 0
8, 112560, Note_on_c, 0, 28, 127
8, 112600, Note_on_c, 0, 28, 0
8, 112600, Note_on_c, 0, 28, 127
8, 112640, Note_on_c, 0, 28, 0
8, 112640, Note_on_c, 0, 28, 127
8, 112680, Note_on_c, 0, 28, 0
8, 112680, Note_on_c, 0, 40, 127
8, 112680, Note_on_c, 0, 28, 127
8, 112800, Note_on_c, 0, 40, 0
8, 112800, Note_on_c, 0, 28, 0
8, 112800, Note_on_c, 0, 40, 127
8, 112800, Note_on_c, 0, 28, 127
8, 112920, Note_on_c, 0, 40, 0
8, 112920, Note_on_c, 0, 28, 0
8, 112920, Note_on_c, 0, 29, 127
8, 112980, Note_on_c, 0, 29, 0
8, 112980, Note_on_c, 0, 29, 127
8, 113040, Note_on_c, 0, 29, 0
8, 113040, Note_on_c, 0, 29, 127
8, 113160, Note_on_c, 0, 29, 0
8, 113160, Note_on_c, 0, 29, 127
8, 113220, Note_on_c, 0, 29, 0
8, 113220, Note_on_c, 0, 29, 127
8, 113280, Note_on_c, 0, 29, 0
8, 113280, Note_on_c, 0, 29, 127
8, 113400, Note_on_c, 0, 29, 0
8, 113400, Note_on_c, 0, 28, 127
8, 113440, Note_on_c, 0, 28, 0
8, 113440, Note_on_c, 0, 28, 127
8, 113480, Note_on_c, 0, 28, 0
8, 113480, Note_on_c, 0, 28, 127
8, 113520, Note_on_c, 0, 28, 0
8, 113520, Note_on_c, 0, 28, 127
8, 113560, Note_on_c, 0, 28, 0
8, 113560, Note_on_c, 0, 28, 127
8, 113600, Note_on_c, 0, 28, 0
8, 113600, Note_on_c, 0, 28, 127
8, 113640, Note_on_c, 0, 28, 0
8, 113640, Note_on_c, 0, 40, 127
8, 113640, Note_on_c, 0, 28, 127
8, 113760, Note_on_c, 0, 40, 0
8, 113760, Note_on_c, 0, 28, 0
8, 113760, Note_on_c, 0, 40, 127
8, 113760, Note_on_c, 0, 28, 127
8, 113880, Note_on_c, 0, 40, 0
8, 113880, Note_on_c, 0, 28, 0
8, 113880, Note_on_c, 0, 29, 127
8, 113940, Note_on_c, 0, 29, 0
8, 113940, Note_on_c, 0, 29, 127
8, 114000, Note_on_c, 0, 29, 0
8, 114000, Note_on_c, 0, 29, 127
8, 114120, Note_on_c, 0, 29, 0
8, 114120, Note_on_c, 0, 29, 127
8, 114180, Note_on_c, 0, 29, 0
8, 114180, Note_on_c, 0, 29, 127
8, 114240, Note_on_c, 0, 29, 0
8, 114240, Note_on_c, 0, 29, 127
8, 114360, Note_on_c, 0, 29, 0
8, 114360, Note_on_c, 0, 28, 127
8, 114400, Note_on_c, 0, 28, 0
8, 114400, Note_on_c, 0, 28, 127
8, 114440, Note_on_c, 0, 28, 0
8, 114440, Note_on_c, 0, 28, 127
8, 114480, Note_on_c, 0, 28, 0
8, 114480, Note_on_c, 0, 28, 127
8, 114520, Note_on_c, 0, 28, 0
8, 114520, Note_on_c, 0, 28, 127
8, 114560, Note_on_c, 0, 28, 0
8, 114560, Note_on_c, 0, 28, 127
8, 114600, Note_on_c, 0, 28, 0
8, 114600, Note_on_c, 0, 40, 127
8, 114600, Note_on_c, 0, 28, 127
8, 114720, Note_on_c, 0, 40, 0
8, 114720, Note_on_c, 0, 28, 0
8, 114720, Note_on_c, 0, 40, 127
8, 114720, Note_on_c, 0, 28, 127
8, 114840, Note_on_c, 0, 40, 0
8, 114840, Note_on_c, 0, 28, 0
8, 114840, Note_on_c, 0, 31, 127
8, 114900, Note_on_c, 0, 31, 0
8, 114900, Note_on_c, 0, 31, 127
8, 114960, Note_on_c, 0, 31, 0
8, 114960, Note_on_c, 0, 31, 127
8, 115080, Note_on_c, 0, 31, 0
8, 115080, Note_on_c, 0, 31, 127
8, 115140, Note_on_c, 0, 31, 0
8, 115140, Note_on_c, 0, 31, 127
8, 115200, Note_on_c, 0, 31, 0
8, 115200, Note_on_c, 0, 31, 127
8, 115320, Note_on_c, 0, 31, 0
8, 115320, Note_on_c, 0, 31, 127
8, 115380, Note_on_c, 0, 31, 0
8, 115380, Note_on_c, 0, 31, 127
8, 115440, Note_on_c, 0, 31, 0
8, 115440, Note_on_c, 0, 31, 127
8, 115560, Note_on_c, 0, 31, 0
8, 115560, Note_on_c, 0, 31, 127
8, 115620, Note_on_c, 0, 31, 0
8, 115620, Note_on_c, 0, 31, 127
8, 115680, Note_on_c, 0, 31, 0
8, 115680, Note_on_c, 0, 31, 127
8, 115800, Note_on_c, 0, 31, 0
8, 115800, Note_on_c, 0, 28, 127
8, 115840, Note_on_c, 0, 28, 0
8, 115840, Note_on_c, 0, 28, 127
8, 115880, Note_on_c, 0, 28, 0
8, 115880, Note_on_c, 0, 28, 127
8, 115920, Note_on_c, 0, 28, 0
8, 115920, Note_on_c, 0, 28, 127
8, 115960, Note_on_c, 0, 28, 0
8, 115960, Note_on_c, 0, 28, 127
8, 116000, Note_on_c, 0, 28, 0
8, 116000, Note_on_c, 0, 28, 127
8, 116040, Note_on_c, 0, 28, 0
8, 116040, Note_on_c, 0, 35, 127
8, 116160, Note_on_c, 0, 35, 0
8, 116160, Note_on_c, 0, 28, 127
8, 116200, Note_on_c, 0, 28, 0
8, 116200, Note_on_c, 0, 28, 127
8, 116240, Note_on_c, 0, 28, 0
8, 116240, Note_on_c, 0, 28, 127
8, 116280, Note_on_c, 0, 28, 0
8, 116280, Note_on_c, 0, 28, 127
8, 116320, Note_on_c, 0, 28, 0
8, 116320, Note_on_c, 0, 28, 127
8, 116360, Note_on_c, 0, 28, 0
8, 116360, Note_on_c, 0, 28, 127
8, 116400, Note_on_c, 0, 28, 0
8, 116400, Note_on_c, 0, 35, 127
8, 116520, Note_on_c, 0, 35, 0
8, 116520, Note_on_c, 0, 28, 127
8, 116560, Note_on_c, 0, 28, 0
8, 116560, Note_on_c, 0, 28, 127
8, 116600, Note_on_c, 0, 28, 0
8, 116600, Note_on_c, 0, 28, 127
8, 116640, Note_on_c, 0, 28, 0
8, 116640, Note_on_c, 0, 36, 127
8, 116760, Note_on_c, 0, 36, 0
8, 116760, Note_on_c, 0, 40, 127
8, 116760, Note_on_c, 0, 28, 127
8, 116800, Note_on_c, 0, 40, 0
8, 116800, Note_on_c, 0, 28, 0
8, 116800, Note_on_c, 0, 40, 127
8, 116800, Note_on_c, 0, 28, 127
8, 116840, Note_on_c, 0, 40, 0
8, 116840, Note_on_c, 0, 28, 0
8, 116840, Note_on_c, 0, 40, 127
8, 116840, Note_on_c, 0, 28, 127
8, 116880, Note_on_c, 0, 40, 0
8, 116880, Note_on_c, 0, 28, 0
8, 116880, Note_on_c, 0, 40, 127
8, 116880, Note_on_c, 0, 28, 127
8, 116920, Note_on_c, 0, 40, 0
8, 116920, Note_on_c, 0, 28, 0
8, 116920, Note_on_c, 0, 40, 127
8, 116920, Note_on_c, 0, 28, 127
8, 116960, Note_on_c, 0, 40, 0
8, 116960, Note_on_c, 0, 28, 0
8, 116960, Note_on_c, 0, 40, 127
8, 116960, Note_on_c, 0, 28, 127
8, 117000, Note_on_c, 0, 40, 0
8, 117000, Note_on_c, 0, 28, 0
8, 117000, Note_on_c, 0, 40, 127
8, 117000, Note_on_c, 0, 28, 127
8, 117060, Note_on_c, 0, 40, 0
8, 117060, Note_on_c, 0, 28, 0
8, 117120, Note_on_c, 0, 52, 127
8, 117120, Note_on_c, 0, 28, 127
8, 117160, Note_on_c, 0, 52, 0
8, 117160, Note_on_c, 0, 28, 0
8, 117160, Note_on_c, 0, 28, 127
8, 117160, Note_on_c, 0, 52, 127
8, 117200, Note_on_c, 0, 28, 0
8, 117200, Note_on_c, 0, 52, 0
8, 117200, Note_on_c, 0, 28, 127
8, 117200, Note_on_c, 0, 52, 127
8, 117240, Note_on_c, 0, 28, 0
8, 117240, Note_on_c, 0, 52, 0
8, 117240, Note_on_c, 0, 28, 127
8, 117240, Note_on_c, 0, 52, 127
8, 117280, Note_on_c, 0, 28, 0
8, 117280, Note_on_c, 0, 52, 0
8, 117280, Note_on_c, 0, 28, 127
8, 117280, Note_on_c, 0, 52, 127
8, 117320, Note_on_c, 0, 28, 0
8, 117320, Note_on_c, 0, 52, 0
8, 117320, Note_on_c, 0, 28, 127
8, 117320, Note_on_c, 0, 52, 127
8, 117360, Note_on_c, 0, 28, 0
8, 117360, Note_on_c, 0, 52, 0
8, 117360, Note_on_c, 0, 28, 127
8, 117360, Note_on_c, 0, 52, 127
8, 117420, Note_on_c, 0, 28, 0
8, 117420, Note_on_c, 0, 52, 0
8, 117420, End_track
9, 0, Start_track
9, 0, Channel_prefix, 9
9, 0, Sequencer_specific, 5, 5, 15, 9, 8, 64
9, 0, Sequencer_specific, 15, 5, 15, 6, 71, 101, 110, 101, 114, 97, 108, 32, 77, 73, 68, 73
9, 0, Sequencer_specific, 4, 5, 15, 16, 25
9, 0, Program_c, 9, 0
9, 0, MIDI_port, 0
9, 0, Title_t, "Drums"
9, 0, Control_c, 9, 7, 99
9, 3360, Time_signature, 2, 2, 24, 8
9, 3600, Time_signature, 4, 2, 24, 8
9, 6960, Time_signature, 2, 2, 24, 8
9, 7020, Note_on_c, 9, 35, 127
9, 7020, Note_on_c, 9, 57, 127
9, 7080, Note_on_c, 9, 35, 0
9, 7080, Note_on_c, 9, 57, 0
9, 7140, Note_on_c, 9, 35, 127
9, 7140, Note_on_c, 9, 57, 127
9, 7200, Note_on_c, 9, 35, 0
9, 7200, Note_on_c, 9, 57, 0
9, 7200, Time_signature, 4, 2, 24, 8
9, 7200, Note_on_c, 9, 57, 127
9, 7200, Note_on_c, 9, 35, 127
9, 7260, Note_on_c, 9, 57, 0
9, 7260, Note_on_c, 9, 42, 127
9, 7320, Note_on_c, 9, 35, 0
9, 7320, Note_on_c, 9, 42, 0
9, 7320, Note_on_c, 9, 42, 127
9, 7380, Note_on_c, 9, 42, 0
9, 7380, Note_on_c, 9, 35, 127
9, 7380, Note_on_c, 9, 42, 127
9, 7440, Note_on_c, 9, 35, 0
9, 7440, Note_on_c, 9, 42, 0
9, 7440, Note_on_c, 9, 42, 127
9, 7500, Note_on_c, 9, 42, 0
9, 7500, Note_on_c, 9, 35, 127
9, 7500, Note_on_c, 9, 42, 127
9, 7560, Note_on_c, 9, 35, 0
9, 7560, Note_on_c, 9, 42, 0
9, 7560, Note_on_c, 9, 35, 127
9, 7560, Note_on_c, 9, 42, 127
9, 7620, Note_on_c, 9, 42, 0
9, 7620, Note_on_c, 9, 42, 127
9, 7650, Note_on_c, 9, 35, 0
9, 7650, Note_on_c, 9, 35, 127
9, 7680, Note_on_c, 9, 42, 0
9, 7680, Note_on_c, 9, 35, 0
9, 7680, Note_on_c, 9, 35, 127
9, 7680, Note_on_c, 9, 42, 127
9, 7740, Note_on_c, 9, 42, 0
9, 7740, Note_on_c, 9, 42, 127
9, 7800, Note_on_c, 9, 35, 0
9, 7800, Note_on_c, 9, 42, 0
9, 7800, Note_on_c, 9, 42, 127
9, 7860, Note_on_c, 9, 42, 0
9, 7860, Note_on_c, 9, 35, 127
9, 7860, Note_on_c, 9, 42, 127
9, 7920, Note_on_c, 9, 35, 0
9, 7920, Note_on_c, 9, 42, 0
9, 7920, Note_on_c, 9, 42, 127
9, 7980, Note_on_c, 9, 42, 0
9, 7980, Note_on_c, 9, 35, 127
9, 7980, Note_on_c, 9, 42, 127
9, 8040, Note_on_c, 9, 35, 0
9, 8040, Note_on_c, 9, 42, 0
9, 8040, Note_on_c, 9, 35, 127
9, 8040, Note_on_c, 9, 42, 127
9, 8100, Note_on_c, 9, 42, 0
9, 8100, Note_on_c, 9, 42, 127
9, 8130, Note_on_c, 9, 35, 0
9, 8130, Note_on_c, 9, 35, 127
9, 8160, Note_on_c, 9, 42, 0
9, 8160, Note_on_c, 9, 35, 0
9, 8160, Note_on_c, 9, 35, 127
9, 8160, Note_on_c, 9, 42, 127
9, 8220, Note_on_c, 9, 42, 0
9, 8220, Note_on_c, 9, 42, 127
9, 8280, Note_on_c, 9, 35, 0
9, 8280, Note_on_c, 9, 42, 0
9, 8280, Note_on_c, 9, 42, 127
9, 8340, Note_on_c, 9, 42, 0
9, 8340, Note_on_c, 9, 35, 127
9, 8340, Note_on_c, 9, 42, 127
9, 8400, Note_on_c, 9, 35, 0
9, 8400, Note_on_c, 9, 42, 0
9, 8400, Note_on_c, 9, 42, 127
9, 8460, Note_on_c, 9, 42, 0
9, 8460, Note_on_c, 9, 35, 127
9, 8460, Note_on_c, 9, 42, 127
9, 8520, Note_on_c, 9, 35, 0
9, 8520, Note_on_c, 9, 42, 0
9, 8520, Note_on_c, 9, 35, 127
9, 8520, Note_on_c, 9, 42, 127
9, 8580, Note_on_c, 9, 42, 0
9, 8580, Note_on_c, 9, 42, 127
9, 8610, Note_on_c, 9, 35, 0
9, 8610, Note_on_c, 9, 35, 127
9, 8640, Note_on_c, 9, 42, 0
9, 8640, Note_on_c, 9, 35, 0
9, 8640, Note_on_c, 9, 35, 127
9, 8640, Note_on_c, 9, 42, 127
9, 8700, Note_on_c, 9, 42, 0
9, 8700, Note_on_c, 9, 42, 127
9, 8760, Note_on_c, 9, 35, 0
9, 8760, Note_on_c, 9, 42, 0
9, 8760, Note_on_c, 9, 42, 127
9, 8820, Note_on_c, 9, 42, 0
9, 8820, Note_on_c, 9, 35, 127
9, 8820, Note_on_c, 9, 42, 127
9, 8880, Note_on_c, 9, 35, 0
9, 8880, Note_on_c, 9, 42, 0
9, 8880, Note_on_c, 9, 42, 127
9, 8940, Note_on_c, 9, 42, 0
9, 8940, Note_on_c, 9, 35, 127
9, 8940, Note_on_c, 9, 42, 127
9, 9000, Note_on_c, 9, 35, 0
9, 9000, Note_on_c, 9, 42, 0
9, 9000, Note_on_c, 9, 35, 127
9, 9000, Note_on_c, 9, 42, 127
9, 9060, Note_on_c, 9, 42, 0
9, 9060, Note_on_c, 9, 42, 127
9, 9090, Note_on_c, 9, 35, 0
9, 9090, Note_on_c, 9, 35, 127
9, 9120, Note_on_c, 9, 42, 0
9, 9120, Note_on_c, 9, 35, 0
9, 9120, Note_on_c, 9, 35, 127
9, 9120, Note_on_c, 9, 42, 127
9, 9180, Note_on_c, 9, 42, 0
9, 9180, Note_on_c, 9, 42, 127
9, 9240, Note_on_c, 9, 35, 0
9, 9240, Note_on_c, 9, 42, 0
9, 9240, Note_on_c, 9, 42, 127
9, 9300, Note_on_c, 9, 42, 0
9, 9300, Note_on_c, 9, 35, 127
9, 9300, Note_on_c, 9, 42, 127
9, 9360, Note_on_c, 9, 35, 0
9, 9360, Note_on_c, 9, 42, 0
9, 9360, Note_on_c, 9, 42, 127
9, 9420, Note_on_c, 9, 42, 0
9, 9420, Note_on_c, 9, 35, 127
9, 9420, Note_on_c, 9, 42, 127
9, 9480, Note_on_c, 9, 35, 0
9, 9480, Note_on_c, 9, 42, 0
9, 9480, Note_on_c, 9, 35, 127
9, 9480, Note_on_c, 9, 42, 127
9, 9540, Note_on_c, 9, 42, 0
9, 9540, Note_on_c, 9, 42, 127
9, 9570, Note_on_c, 9, 35, 0
9, 9570, Note_on_c, 9, 35, 127
9, 9600, Note_on_c, 9, 42, 0
9, 9600, Note_on_c, 9, 35, 0
9, 9600, Note_on_c, 9, 35, 127
9, 9600, Note_on_c, 9, 42, 127
9, 9660, Note_on_c, 9, 42, 0
9, 9660, Note_on_c, 9, 42, 127
9, 9720, Note_on_c, 9, 35, 0
9, 9720, Note_on_c, 9, 42, 0
9, 9720, Note_on_c, 9, 42, 127
9, 9780, Note_on_c, 9, 42, 0
9, 9780, Note_on_c, 9, 35, 127
9, 9780, Note_on_c, 9, 42, 127
9, 9840, Note_on_c, 9, 35, 0
9, 9840, Note_on_c, 9, 42, 0
9, 9840, Note_on_c, 9, 42, 127
9, 9900, Note_on_c, 9, 42, 0
9, 9900, Note_on_c, 9, 35, 127
9, 9900, Note_on_c, 9, 42, 127
9, 9960, Note_on_c, 9, 35, 0
9, 9960, Note_on_c, 9, 42, 0
9, 9960, Note_on_c, 9, 35, 127
9, 9960, Note_on_c, 9, 42, 127
9, 10020, Note_on_c, 9, 42, 0
9, 10020, Note_on_c, 9, 42, 127
9, 10050, Note_on_c, 9, 35, 0
9, 10050, Note_on_c, 9, 35, 127
9, 10080, Note_on_c, 9, 42, 0
9, 10080, Note_on_c, 9, 35, 0
9, 10080, Note_on_c, 9, 35, 127
9, 10080, Note_on_c, 9, 42, 127
9, 10140, Note_on_c, 9, 42, 0
9, 10140, Note_on_c, 9, 42, 127
9, 10200, Note_on_c, 9, 35, 0
9, 10200, Note_on_c, 9, 42, 0
9, 10200, Note_on_c, 9, 42, 127
9, 10260, Note_on_c, 9, 42, 0
9, 10260, Note_on_c, 9, 35, 127
9, 10260, Note_on_c, 9, 42, 127
9, 10320, Note_on_c, 9, 35, 0
9, 10320, Note_on_c, 9, 42, 0
9, 10320, Note_on_c, 9, 42, 127
9, 10380, Note_on_c, 9, 42, 0
9, 10380, Note_on_c, 9, 35, 127
9, 10380, Note_on_c, 9, 42, 127
9, 10440, Note_on_c, 9, 35, 0
9, 10440, Note_on_c, 9, 42, 0
9, 10440, Note_on_c, 9, 35, 127
9, 10440, Note_on_c, 9, 42, 127
9, 10500, Note_on_c, 9, 42, 0
9, 10500, Note_on_c, 9, 42, 127
9, 10560, Note_on_c, 9, 35, 0
9, 10560, Note_on_c, 9, 42, 0
9, 10560, Note_on_c, 9, 42, 127
9, 10620, Note_on_c, 9, 42, 0
9, 10620, Note_on_c, 9, 35, 127
9, 10620, Note_on_c, 9, 57, 127
9, 10680, Note_on_c, 9, 35, 0
9, 10680, Note_on_c, 9, 57, 0
9, 10740, Note_on_c, 9, 35, 127
9, 10740, Note_on_c, 9, 57, 127
9, 10800, Note_on_c, 9, 35, 0
9, 10800, Note_on_c, 9, 57, 0
9, 10860, Note_on_c, 9, 35, 127
9, 10860, Note_on_c, 9, 57, 127
9, 10920, Note_on_c, 9, 35, 0
9, 10920, Note_on_c, 9, 57, 0
9, 10980, Note_on_c, 9, 35, 127
9, 10980, Note_on_c, 9, 57, 127
9, 11040, Note_on_c, 9, 35, 0
9, 11040, Note_on_c, 9, 57, 0
9, 11040, Time_signature, 3, 2, 24, 8
9, 11040, Note_on_c, 9, 57, 127
9, 11040, Note_on_c, 9, 35, 127
9, 11160, Note_on_c, 9, 57, 0
9, 11160, Note_on_c, 9, 35, 0
9, 11160, Note_on_c, 9, 42, 127
9, 11220, Note_on_c, 9, 42, 0
9, 11220, Note_on_c, 9, 35, 127
9, 11220, Note_on_c, 9, 42, 127
9, 11280, Note_on_c, 9, 35, 0
9, 11280, Note_on_c, 9, 42, 0
9, 11280, Note_on_c, 9, 38, 127
9, 11280, Note_on_c, 9, 42, 127
9, 11310, Note_on_c, 9, 35, 127
9, 11340, Note_on_c, 9, 38, 0
9, 11340, Note_on_c, 9, 42, 0
9, 11340, Note_on_c, 9, 42, 127
9, 11370, Note_on_c, 9, 35, 0
9, 11370, Note_on_c, 9, 35, 127
9, 11400, Note_on_c, 9, 42, 0
9, 11400, Note_on_c, 9, 35, 0
9, 11400, Note_on_c, 9, 42, 127
9, 11400, Note_on_c, 9, 35, 127
9, 11460, Note_on_c, 9, 42, 0
9, 11460, Note_on_c, 9, 42, 127
9, 11520, Note_on_c, 9, 35, 0
9, 11520, Note_on_c, 9, 42, 0
9, 11520, Note_on_c, 9, 42, 127
9, 11580, Note_on_c, 9, 42, 0
9, 11580, Note_on_c, 9, 35, 127
9, 11580, Note_on_c, 9, 42, 127
9, 11640, Note_on_c, 9, 35, 0
9, 11640, Note_on_c, 9, 42, 0
9, 11640, Note_on_c, 9, 38, 127
9, 11640, Note_on_c, 9, 42, 127
9, 11700, Note_on_c, 9, 38, 0
9, 11700, Note_on_c, 9, 42, 0
9, 11700, Note_on_c, 9, 35, 127
9, 11700, Note_on_c, 9, 42, 127
9, 11760, Note_on_c, 9, 35, 0
9, 11760, Note_on_c, 9, 42, 0
9, 11760, Note_on_c, 9, 35, 127
9, 11760, Note_on_c, 9, 42, 127
9, 11820, Note_on_c, 9, 42, 0
9, 11820, Note_on_c, 9, 42, 127
9, 11880, Note_on_c, 9, 35, 0
9, 11880, Note_on_c, 9, 42, 0
9, 11880, Note_on_c, 9, 42, 127
9, 11940, Note_on_c, 9, 42, 0
9, 11940, Note_on_c, 9, 35, 127
9, 11940, Note_on_c, 9, 42, 127
9, 12000, Note_on_c, 9, 35, 0
9, 12000, Note_on_c, 9, 42, 0
9, 12000, Note_on_c, 9, 38, 127
9, 12000, Note_on_c, 9, 42, 127
9, 12030, Note_on_c, 9, 35, 127
9, 12060, Note_on_c, 9, 38, 0
9, 12060, Note_on_c, 9, 42, 0
9, 12060, Note_on_c, 9, 42, 127
9, 12090, Note_on_c, 9, 35, 0
9, 12090, Note_on_c, 9, 35, 127
9, 12120, Note_on_c, 9, 42, 0
9, 12120, Note_on_c, 9, 35, 0
9, 12120, Note_on_c, 9, 42, 127
9, 12120, Note_on_c, 9, 35, 127
9, 12180, Note_on_c, 9, 42, 0
9, 12180, Note_on_c, 9, 42, 127
9, 12240, Note_on_c, 9, 35, 0
9, 12240, Note_on_c, 9, 42, 0
9, 12240, Note_on_c, 9, 42, 127
9, 12300, Note_on_c, 9, 42, 0
9, 12300, Note_on_c, 9, 35, 127
9, 12300, Note_on_c, 9, 42, 127
9, 12360, Note_on_c, 9, 35, 0
9, 12360, Note_on_c, 9, 42, 0
9, 12360, Note_on_c, 9, 38, 127
9, 12360, Note_on_c, 9, 42, 127
9, 12420, Note_on_c, 9, 38, 0
9, 12420, Note_on_c, 9, 42, 0
9, 12420, Note_on_c, 9, 45, 127
9, 12480, Note_on_c, 9, 45, 0
9, 12480, Note_on_c, 9, 35, 127
9, 12480, Note_on_c, 9, 42, 127
9, 12540, Note_on_c, 9, 42, 0
9, 12540, Note_on_c, 9, 42, 127
9, 12600, Note_on_c, 9, 35, 0
9, 12600, Note_on_c, 9, 42, 0
9, 12600, Note_on_c, 9, 42, 127
9, 12660, Note_on_c, 9, 42, 0
9, 12660, Note_on_c, 9, 35, 127
9, 12660, Note_on_c, 9, 42, 127
9, 12720, Note_on_c, 9, 35, 0
9, 12720, Note_on_c, 9, 42, 0
9, 12720, Note_on_c, 9, 38, 127
9, 12720, Note_on_c, 9, 42, 127
9, 12750, Note_on_c, 9, 35, 127
9, 12780, Note_on_c, 9, 38, 0
9, 12780, Note_on_c, 9, 42, 0
9, 12780, Note_on_c, 9, 42, 127
9, 12810, Note_on_c, 9, 35, 0
9, 12810, Note_on_c, 9, 35, 127
9, 12840, Note_on_c, 9, 42, 0
9, 12840, Note_on_c, 9, 35, 0
9, 12840, Note_on_c, 9, 42, 127
9, 12840, Note_on_c, 9, 35, 127
9, 12900, Note_on_c, 9, 42, 0
9, 12900, Note_on_c, 9, 42, 127
9, 12960, Note_on_c, 9, 35, 0
9, 12960, Note_on_c, 9, 42, 0
9, 12960, Note_on_c, 9, 42, 127
9, 13020, Note_on_c, 9, 42, 0
9, 13020, Note_on_c, 9, 35, 127
9, 13020, Note_on_c, 9, 42, 127
9, 13080, Note_on_c, 9, 35, 0
9, 13080, Note_on_c, 9, 42, 0
9, 13080, Note_on_c, 9, 57, 127
9, 13080, Note_on_c, 9, 38, 127
9, 13140, Note_on_c, 9, 57, 0
9, 13140, Note_on_c, 9, 38, 0
9, 13140, Note_on_c, 9, 35, 127
9, 13140, Note_on_c, 9, 42, 127
9, 13200, Note_on_c, 9, 35, 0
9, 13200, Note_on_c, 9, 42, 0
9, 13200, Note_on_c, 9, 42, 127
9, 13200, Note_on_c, 9, 35, 127
9, 13260, Note_on_c, 9, 42, 0
9, 13260, Note_on_c, 9, 42, 127
9, 13320, Note_on_c, 9, 35, 0
9, 13320, Note_on_c, 9, 42, 0
9, 13320, Note_on_c, 9, 42, 127
9, 13380, Note_on_c, 9, 42, 0
9, 13380, Note_on_c, 9, 35, 127
9, 13380, Note_on_c, 9, 42, 127
9, 13440, Note_on_c, 9, 35, 0
9, 13440, Note_on_c, 9, 42, 0
9, 13440, Note_on_c, 9, 38, 127
9, 13440, Note_on_c, 9, 57, 127
9, 13500, Note_on_c, 9, 38, 0
9, 13500, Note_on_c, 9, 57, 0
9, 13500, Note_on_c, 9, 35, 127
9, 13500, Note_on_c, 9, 42, 127
9, 13560, Note_on_c, 9, 35, 0
9, 13560, Note_on_c, 9, 42, 0
9, 13560, Note_on_c, 9, 42, 127
9, 13560, Note_on_c, 9, 35, 127
9, 13620, Note_on_c, 9, 42, 0
9, 13620, Note_on_c, 9, 42, 127
9, 13680, Note_on_c, 9, 35, 0
9, 13680, Note_on_c, 9, 42, 0
9, 13680, Note_on_c, 9, 42, 127
9, 13740, Note_on_c, 9, 42, 0
9, 13740, Note_on_c, 9, 35, 127
9, 13740, Note_on_c, 9, 42, 127
9, 13800, Note_on_c, 9, 35, 0
9, 13800, Note_on_c, 9, 42, 0
9, 13800, Note_on_c, 9, 57, 127
9, 13800, Note_on_c, 9, 38, 127
9, 13860, Note_on_c, 9, 57, 0
9, 13860, Note_on_c, 9, 38, 0
9, 13860, Note_on_c, 9, 57, 127
9, 13860, Note_on_c, 9, 38, 127
9, 13920, Note_on_c, 9, 57, 0
9, 13920, Note_on_c, 9, 38, 0
9, 13920, Note_on_c, 9, 57, 127
9, 13920, Note_on_c, 9, 35, 127
9, 13980, Note_on_c, 9, 57, 0
9, 13980, Note_on_c, 9, 42, 127
9, 14040, Note_on_c, 9, 35, 0
9, 14040, Note_on_c, 9, 42, 0
9, 14040, Note_on_c, 9, 38, 127
9, 14040, Note_on_c, 9, 42, 127
9, 14100, Note_on_c, 9, 38, 0
9, 14100, Note_on_c, 9, 42, 0
9, 14100, Note_on_c, 9, 42, 127
9, 14160, Note_on_c, 9, 42, 0
9, 14160, Note_on_c, 9, 35, 127
9, 14160, Note_on_c, 9, 42, 127
9, 14220, Note_on_c, 9, 42, 0
9, 14220, Note_on_c, 9, 42, 127
9, 14250, Note_on_c, 9, 35, 0
9, 14250, Note_on_c, 9, 35, 127
9, 14260, Note_on_c, 9, 35, 0
9, 14260, Note_on_c, 9, 36, 127
9, 14270, Note_on_c, 9, 36, 0
9, 14270, Note_on_c, 9, 35, 127
9, 14280, Note_on_c, 9, 42, 0
9, 14280, Note_on_c, 9, 35, 0
9, 14280, Note_on_c, 9, 38, 127
9, 14280, Note_on_c, 9, 57, 127
9, 14400, Note_on_c, 9, 38, 0
9, 14400, Note_on_c, 9, 57, 0
9, 14400, Note_on_c, 9, 42, 127
9, 14460, Note_on_c, 9, 42, 0
9, 14460, Note_on_c, 9, 35, 127
9, 14460, Note_on_c, 9, 42, 127
9, 14520, Note_on_c, 9, 35, 0
9, 14520, Note_on_c, 9, 42, 0
9, 14520, Note_on_c, 9, 42, 127
9, 14520, Note_on_c, 9, 38, 127
9, 14550, Note_on_c, 9, 35, 127
9, 14580, Note_on_c, 9, 42, 0
9, 14580, Note_on_c, 9, 38, 0
9, 14580, Note_on_c, 9, 42, 127
9, 14610, Note_on_c, 9, 35, 0
9, 14610, Note_on_c, 9, 35, 127
9, 14640, Note_on_c, 9, 42, 0
9, 14640, Note_on_c, 9, 35, 0
9, 14640, Note_on_c, 9, 42, 127
9, 14640, Note_on_c, 9, 35, 127
9, 14700, Note_on_c, 9, 42, 0
9, 14700, Note_on_c, 9, 42, 127
9, 14760, Note_on_c, 9, 35, 0
9, 14760, Note_on_c, 9, 42, 0
9, 14760, Note_on_c, 9, 42, 127
9, 14820, Note_on_c, 9, 42, 0
9, 14820, Note_on_c, 9, 35, 127
9, 14820, Note_on_c, 9, 42, 127
9, 14880, Note_on_c, 9, 35, 0
9, 14880, Note_on_c, 9, 42, 0
9, 14880, Note_on_c, 9, 38, 127
9, 14880, Note_on_c, 9, 42, 127
9, 14940, Note_on_c, 9, 38, 0
9, 14940, Note_on_c, 9, 42, 0
9, 14940, Note_on_c, 9, 45, 127
9, 15000, Note_on_c, 9, 45, 0
9, 15000, Note_on_c, 9, 42, 127
9, 15000, Note_on_c, 9, 35, 127
9, 15060, Note_on_c, 9, 42, 0
9, 15060, Note_on_c, 9, 42, 127
9, 15120, Note_on_c, 9, 35, 0
9, 15120, Note_on_c, 9, 42, 0
9, 15120, Note_on_c, 9, 42, 127
9, 15180, Note_on_c, 9, 42, 0
9, 15180, Note_on_c, 9, 35, 127
9, 15180, Note_on_c, 9, 42, 127
9, 15240, Note_on_c, 9, 35, 0
9, 15240, Note_on_c, 9, 42, 0
9, 15240, Note_on_c, 9, 42, 127
9, 15240, Note_on_c, 9, 38, 127
9, 15270, Note_on_c, 9, 35, 127
9, 15300, Note_on_c, 9, 42, 0
9, 15300, Note_on_c, 9, 38, 0
9, 15300, Note_on_c, 9, 42, 127
9, 15330, Note_on_c, 9, 35, 0
9, 15330, Note_on_c, 9, 35, 127
9, 15360, Note_on_c, 9, 42, 0
9, 15360, Note_on_c, 9, 35, 0
9, 15360, Note_on_c, 9, 42, 127
9, 15360, Note_on_c, 9, 35, 127
9, 15420, Note_on_c, 9, 42, 0
9, 15420, Note_on_c, 9, 42, 127
9, 15480, Note_on_c, 9, 35, 0
9, 15480, Note_on_c, 9, 42, 0
9, 15480, Note_on_c, 9, 42, 127
9, 15540, Note_on_c, 9, 42, 0
9, 15540, Note_on_c, 9, 42, 127
9, 15600, Note_on_c, 9, 42, 0
9, 15600, Note_on_c, 9, 38, 127
9, 15630, Note_on_c, 9, 38, 0
9, 15630, Note_on_c, 9, 38, 127
9, 15660, Note_on_c, 9, 38, 0
9, 15660, Note_on_c, 9, 45, 127
9, 15720, Note_on_c, 9, 45, 0
9, 15720, Note_on_c, 9, 38, 127
9, 15720, Note_on_c, 9, 57, 127
9, 15780, Note_on_c, 9, 38, 0
9, 15780, Note_on_c, 9, 57, 0
9, 15780, Note_on_c, 9, 42, 127
9, 15840, Note_on_c, 9, 42, 0
9, 15840, Note_on_c, 9, 42, 127
9, 15900, Note_on_c, 9, 42, 0
9, 15900, Note_on_c, 9, 35, 127
9, 15900, Note_on_c, 9, 42, 127
9, 15960, Note_on_c, 9, 35, 0
9, 15960, Note_on_c, 9, 42, 0
9, 15960, Note_on_c, 9, 38, 127
9, 15960, Note_on_c, 9, 42, 127
9, 15990, Note_on_c, 9, 35, 127
9, 16020, Note_on_c, 9, 38, 0
9, 16020, Note_on_c, 9, 42, 0
9, 16020, Note_on_c, 9, 42, 127
9, 16050, Note_on_c, 9, 35, 0
9, 16050, Note_on_c, 9, 35, 127
9, 16080, Note_on_c, 9, 42, 0
9, 16080, Note_on_c, 9, 35, 0
9, 16080, Note_on_c, 9, 42, 127
9, 16080, Note_on_c, 9, 35, 127
9, 16140, Note_on_c, 9, 42, 0
9, 16140, Note_on_c, 9, 42, 127
9, 16200, Note_on_c, 9, 35, 0
9, 16200, Note_on_c, 9, 42, 0
9, 16200, Note_on_c, 9, 42, 127
9, 16260, Note_on_c, 9, 42, 0
9, 16260, Note_on_c, 9, 35, 127
9, 16260, Note_on_c, 9, 42, 127
9, 16320, Note_on_c, 9, 35, 0
9, 16320, Note_on_c, 9, 42, 0
9, 16320, Note_on_c, 9, 42, 127
9, 16320, Note_on_c, 9, 38, 127
9, 16350, Note_on_c, 9, 35, 127
9, 16380, Note_on_c, 9, 42, 0
9, 16380, Note_on_c, 9, 38, 0
9, 16380, Note_on_c, 9, 42, 127
9, 16410, Note_on_c, 9, 35, 0
9, 16410, Note_on_c, 9, 35, 127
9, 16440, Note_on_c, 9, 42, 0
9, 16440, Note_on_c, 9, 35, 0
9, 16440, Note_on_c, 9, 38, 127
9, 16440, Note_on_c, 9, 57, 127
9, 16500, Note_on_c, 9, 38, 0
9, 16500, Note_on_c, 9, 57, 0
9, 16500, Note_on_c, 9, 42, 127
9, 16560, Note_on_c, 9, 42, 0
9, 16560, Note_on_c, 9, 42, 127
9, 16620, Note_on_c, 9, 42, 0
9, 16620, Note_on_c, 9, 35, 127
9, 16620, Note_on_c, 9, 42, 127
9, 16680, Note_on_c, 9, 35, 0
9, 16680, Note_on_c, 9, 42, 0
9, 16680, Note_on_c, 9, 38, 127
9, 16680, Note_on_c, 9, 42, 127
9, 16710, Note_on_c, 9, 35, 127
9, 16740, Note_on_c, 9, 38, 0
9, 16740, Note_on_c, 9, 42, 0
9, 16740, Note_on_c, 9, 42, 127
9, 16770, Note_on_c, 9, 35, 0
9, 16770, Note_on_c, 9, 35, 127
9, 16800, Note_on_c, 9, 42, 0
9, 16800, Note_on_c, 9, 35, 0
9, 16800, Note_on_c, 9, 57, 127
9, 16800, Note_on_c, 9, 38, 127
9, 16860, Note_on_c, 9, 57, 0
9, 16860, Note_on_c, 9, 38, 0
9, 16860, Note_on_c, 9, 42, 127
9, 16920, Note_on_c, 9, 42, 0
9, 16920, Note_on_c, 9, 42, 127
9, 16980, Note_on_c, 9, 42, 0
9, 16980, Note_on_c, 9, 42, 127
9, 17010, Note_on_c, 9, 35, 127
9, 17020, Note_on_c, 9, 35, 0
9, 17020, Note_on_c, 9, 36, 127
9, 17030, Note_on_c, 9, 36, 0
9, 17030, Note_on_c, 9, 35, 127
9, 17040, Note_on_c, 9, 42, 0
9, 17040, Note_on_c, 9, 35, 0
9, 17040, Note_on_c, 9, 38, 127
9, 17040, Note_on_c, 9, 42, 127
9, 17070, Note_on_c, 9, 35, 127
9, 17130, Note_on_c, 9, 35, 0
9, 17160, Note_on_c, 9, 38, 0
9, 17160, Note_on_c, 9, 42, 0
9, 17160, Note_on_c, 9, 35, 127
9, 17160, Note_on_c, 9, 57, 127
9, 17280, Note_on_c, 9, 35, 0
9, 17280, Note_on_c, 9, 57, 0
9, 17280, Note_on_c, 9, 42, 127
9, 17340, Note_on_c, 9, 42, 0
9, 17340, Note_on_c, 9, 35, 127
9, 17340, Note_on_c, 9, 42, 127
9, 17400, Note_on_c, 9, 35, 0
9, 17400, Note_on_c, 9, 42, 0
9, 17400, Note_on_c, 9, 42, 127
9, 17400, Note_on_c, 9, 38, 127
9, 17430, Note_on_c, 9, 35, 127
9, 17460, Note_on_c, 9, 42, 0
9, 17460, Note_on_c, 9, 38, 0
9, 17460, Note_on_c, 9, 42, 127
9, 17490, Note_on_c, 9, 35, 0
9, 17490, Note_on_c, 9, 35, 127
9, 17520, Note_on_c, 9, 42, 0
9, 17520, Note_on_c, 9, 35, 0
9, 17520, Note_on_c, 9, 35, 127
9, 17520, Note_on_c, 9, 42, 127
9, 17580, Note_on_c, 9, 42, 0
9, 17580, Note_on_c, 9, 42, 127
9, 17640, Note_on_c, 9, 35, 0
9, 17640, Note_on_c, 9, 42, 0
9, 17640, Note_on_c, 9, 42, 127
9, 17700, Note_on_c, 9, 42, 0
9, 17700, Note_on_c, 9, 42, 127
9, 17700, Note_on_c, 9, 35, 127
9, 17760, Note_on_c, 9, 42, 0
9, 17760, Note_on_c, 9, 35, 0
9, 17760, Note_on_c, 9, 38, 127
9, 17760, Note_on_c, 9, 42, 127
9, 17820, Note_on_c, 9, 38, 0
9, 17820, Note_on_c, 9, 42, 0
9, 17820, Note_on_c, 9, 42, 127
9, 17820, Note_on_c, 9, 35, 127
9, 17880, Note_on_c, 9, 42, 0
9, 17880, Note_on_c, 9, 35, 0
9, 17880, Note_on_c, 9, 42, 127
9, 17880, Note_on_c, 9, 35, 127
9, 17940, Note_on_c, 9, 42, 0
9, 17940, Note_on_c, 9, 42, 127
9, 18000, Note_on_c, 9, 35, 0
9, 18000, Note_on_c, 9, 42, 0
9, 18000, Note_on_c, 9, 42, 127
9, 18060, Note_on_c, 9, 42, 0
9, 18060, Note_on_c, 9, 42, 127
9, 18060, Note_on_c, 9, 35, 127
9, 18120, Note_on_c, 9, 42, 0
9, 18120, Note_on_c, 9, 35, 0
9, 18120, Note_on_c, 9, 38, 127
9, 18120, Note_on_c, 9, 42, 127
9, 18150, Note_on_c, 9, 35, 127
9, 18180, Note_on_c, 9, 38, 0
9, 18180, Note_on_c, 9, 42, 0
9, 18180, Note_on_c, 9, 42, 127
9, 18240, Note_on_c, 9, 35, 0
9, 18240, Note_on_c, 9, 42, 0
9, 18240, Note_on_c, 9, 42, 127
9, 18240, Note_on_c, 9, 35, 127
9, 18300, Note_on_c, 9, 42, 0
9, 18300, Note_on_c, 9, 42, 127
9, 18360, Note_on_c, 9, 35, 0
9, 18360, Note_on_c, 9, 42, 0
9, 18360, Note_on_c, 9, 42, 127
9, 18420, Note_on_c, 9, 42, 0
9, 18420, Note_on_c, 9, 35, 127
9, 18420, Note_on_c, 9, 42, 127
9, 18480, Note_on_c, 9, 35, 0
9, 18480, Note_on_c, 9, 42, 0
9, 18480, Note_on_c, 9, 42, 127
9, 18480, Note_on_c, 9, 35, 127
9, 18540, Note_on_c, 9, 42, 0
9, 18540, Note_on_c, 9, 38, 127
9, 18540, Note_on_c, 9, 42, 127
9, 18600, Note_on_c, 9, 35, 0
9, 18600, Note_on_c, 9, 38, 0
9, 18600, Note_on_c, 9, 42, 0
9, 18600, Note_on_c, 9, 35, 127
9, 18600, Note_on_c, 9, 42, 127
9, 18660, Note_on_c, 9, 42, 0
9, 18660, Note_on_c, 9, 42, 127
9, 18720, Note_on_c, 9, 35, 0
9, 18720, Note_on_c, 9, 42, 0
9, 18720, Note_on_c, 9, 42, 127
9, 18780, Note_on_c, 9, 42, 0
9, 18780, Note_on_c, 9, 35, 127
9, 18780, Note_on_c, 9, 42, 127
9, 18840, Note_on_c, 9, 35, 0
9, 18840, Note_on_c, 9, 42, 0
9, 18840, Note_on_c, 9, 38, 127
9, 18840, Note_on_c, 9, 42, 127
9, 18870, Note_on_c, 9, 35, 127
9, 18900, Note_on_c, 9, 38, 0
9, 18900, Note_on_c, 9, 42, 0
9, 18900, Note_on_c, 9, 42, 127
9, 18930, Note_on_c, 9, 35, 0
9, 18930, Note_on_c, 9, 35, 127
9, 18960, Note_on_c, 9, 42, 0
9, 18960, Note_on_c, 9, 35, 0
9, 18960, Note_on_c, 9, 42, 127
9, 18960, Note_on_c, 9, 35, 127
9, 19020, Note_on_c, 9, 42, 0
9, 19020, Note_on_c, 9, 42, 127
9, 19080, Note_on_c, 9, 35, 0
9, 19080, Note_on_c, 9, 42, 0
9, 19080, Note_on_c, 9, 42, 127
9, 19140, Note_on_c, 9, 42, 0
9, 19140, Note_on_c, 9, 42, 127
9, 19140, Note_on_c, 9, 35, 127
9, 19200, Note_on_c, 9, 42, 0
9, 19200, Note_on_c, 9, 35, 0
9, 19200, Note_on_c, 9, 38, 127
9, 19200, Note_on_c, 9, 42, 127
9, 19260, Note_on_c, 9, 38, 0
9, 19260, Note_on_c, 9, 42, 0
9, 19260, Note_on_c, 9, 45, 127
9, 19320, Note_on_c, 9, 45, 0
9, 19320, Note_on_c, 9, 42, 127
9, 19320, Note_on_c, 9, 35, 127
9, 19380, Note_on_c, 9, 42, 0
9, 19380, Note_on_c, 9, 42, 127
9, 19440, Note_on_c, 9, 35, 0
9, 19440, Note_on_c, 9, 42, 0
9, 19440, Note_on_c, 9, 42, 127
9, 19500, Note_on_c, 9, 42, 0
9, 19500, Note_on_c, 9, 35, 127
9, 19500, Note_on_c, 9, 42, 127
9, 19560, Note_on_c, 9, 35, 0
9, 19560, Note_on_c, 9, 42, 0
9, 19560, Note_on_c, 9, 38, 127
9, 19560, Note_on_c, 9, 42, 127
9, 19620, Note_on_c, 9, 38, 0
9, 19620, Note_on_c, 9, 42, 0
9, 19620, Note_on_c, 9, 42, 127
9, 19680, Note_on_c, 9, 42, 0
9, 19680, Time_signature, 2, 2, 24, 8
9, 19680, Note_on_c, 9, 42, 127
9, 19680, Note_on_c, 9, 35, 127
9, 19740, Note_on_c, 9, 42, 0
9, 19740, Note_on_c, 9, 38, 127
9, 19740, Note_on_c, 9, 57, 127
9, 19800, Note_on_c, 9, 35, 0
9, 19800, Note_on_c, 9, 38, 0
9, 19800, Note_on_c, 9, 57, 0
9, 19800, Note_on_c, 9, 42, 127
9, 19800, Note_on_c, 9, 35, 127
9, 19860, Note_on_c, 9, 42, 0
9, 19860, Note_on_c, 9, 57, 127
9, 19860, Note_on_c, 9, 38, 127
9, 19920, Note_on_c, 9, 35, 0
9, 19920, Note_on_c, 9, 57, 0
9, 19920, Note_on_c, 9, 38, 0
9, 19920, Time_signature, 3, 2, 24, 8
9, 19920, Note_on_c, 9, 42, 127
9, 19920, Note_on_c, 9, 35, 127
9, 19980, Note_on_c, 9, 42, 0
9, 19980, Note_on_c, 9, 42, 127
9, 20040, Note_on_c, 9, 35, 0
9, 20040, Note_on_c, 9, 42, 0
9, 20040, Note_on_c, 9, 42, 127
9, 20100, Note_on_c, 9, 42, 0
9, 20100, Note_on_c, 9, 42, 127
9, 20100, Note_on_c, 9, 35, 127
9, 20160, Note_on_c, 9, 42, 0
9, 20160, Note_on_c, 9, 35, 0
9, 20160, Note_on_c, 9, 38, 127
9, 20160, Note_on_c, 9, 42, 127
9, 20190, Note_on_c, 9, 35, 127
9, 20220, Note_on_c, 9, 38, 0
9, 20220, Note_on_c, 9, 42, 0
9, 20220, Note_on_c, 9, 42, 127
9, 20280, Note_on_c, 9, 35, 0
9, 20280, Note_on_c, 9, 42, 0
9, 20280, Note_on_c, 9, 42, 127
9, 20280, Note_on_c, 9, 35, 127
9, 20340, Note_on_c, 9, 42, 0
9, 20340, Note_on_c, 9, 42, 127
9, 20400, Note_on_c, 9, 35, 0
9, 20400, Note_on_c, 9, 42, 0
9, 20400, Note_on_c, 9, 42, 127
9, 20460, Note_on_c, 9, 42, 0
9, 20460, Note_on_c, 9, 35, 127
9, 20460, Note_on_c, 9, 42, 127
9, 20520, Note_on_c, 9, 35, 0
9, 20520, Note_on_c, 9, 42, 0
9, 20520, Note_on_c, 9, 42, 127
9, 20520, Note_on_c, 9, 38, 127
9, 20580, Note_on_c, 9, 42, 0
9, 20580, Note_on_c, 9, 38, 0
9, 20580, Note_on_c, 9, 35, 127
9, 20580, Note_on_c, 9, 42, 127
9, 20640, Note_on_c, 9, 35, 0
9, 20640, Note_on_c, 9, 42, 0
9, 20640, Note_on_c, 9, 42, 127
9, 20640, Note_on_c, 9, 35, 127
9, 20700, Note_on_c, 9, 42, 0
9, 20700, Note_on_c, 9, 42, 127
9, 20760, Note_on_c, 9, 35, 0
9, 20760, Note_on_c, 9, 42, 0
9, 20760, Note_on_c, 9, 42, 127
9, 20820, Note_on_c, 9, 42, 0
9, 20820, Note_on_c, 9, 42, 127
9, 20820, Note_on_c, 9, 35, 127
9, 20880, Note_on_c, 9, 42, 0
9, 20880, Note_on_c, 9, 35, 0
9, 20880, Note_on_c, 9, 38, 127
9, 20880, Note_on_c, 9, 42, 127
9, 20910, Note_on_c, 9, 35, 127
9, 20940, Note_on_c, 9, 38, 0
9, 20940, Note_on_c, 9, 42, 0
9, 20940, Note_on_c, 9, 42, 127
9, 20970, Note_on_c, 9, 35, 0
9, 20970, Note_on_c, 9, 35, 127
9, 21000, Note_on_c, 9, 42, 0
9, 21000, Note_on_c, 9, 35, 0
9, 21000, Note_on_c, 9, 42, 127
9, 21000, Note_on_c, 9, 38, 127
9, 21060, Note_on_c, 9, 42, 0
9, 21060, Note_on_c, 9, 38, 0
9, 21060, Note_on_c, 9, 42, 127
9, 21120, Note_on_c, 9, 42, 0
9, 21120, Note_on_c, 9, 42, 127
9, 21180, Note_on_c, 9, 42, 0
9, 21180, Note_on_c, 9, 35, 127
9, 21180, Note_on_c, 9, 42, 127
9, 21240, Note_on_c, 9, 35, 0
9, 21240, Note_on_c, 9, 42, 0
9, 21240, Note_on_c, 9, 42, 127
9, 21240, Note_on_c, 9, 38, 127
9, 21300, Note_on_c, 9, 42, 0
9, 21300, Note_on_c, 9, 38, 0
9, 21300, Note_on_c, 9, 38, 127
9, 21300, Note_on_c, 9, 42, 127
9, 21360, Note_on_c, 9, 38, 0
9, 21360, Note_on_c, 9, 42, 0
9, 21360, Note_on_c, 9, 42, 127
9, 21360, Note_on_c, 9, 35, 127
9, 21420, Note_on_c, 9, 42, 0
9, 21420, Note_on_c, 9, 42, 127
9, 21480, Note_on_c, 9, 35, 0
9, 21480, Note_on_c, 9, 42, 0
9, 21480, Note_on_c, 9, 42, 127
9, 21540, Note_on_c, 9, 42, 0
9, 21540, Note_on_c, 9, 35, 127
9, 21540, Note_on_c, 9, 42, 127
9, 21600, Note_on_c, 9, 35, 0
9, 21600, Note_on_c, 9, 42, 0
9, 21600, Note_on_c, 9, 42, 127
9, 21600, Note_on_c, 9, 38, 127
9, 21630, Note_on_c, 9, 35, 127
9, 21660, Note_on_c, 9, 42, 0
9, 21660, Note_on_c, 9, 38, 0
9, 21660, Note_on_c, 9, 42, 127
9, 21690, Note_on_c, 9, 35, 0
9, 21690, Note_on_c, 9, 35, 127
9, 21720, Note_on_c, 9, 42, 0
9, 21720, Note_on_c, 9, 35, 0
9, 21720, Note_on_c, 9, 42, 127
9, 21720, Note_on_c, 9, 35, 127
9, 21780, Note_on_c, 9, 42, 0
9, 21780, Note_on_c, 9, 42, 127
9, 21840, Note_on_c, 9, 35, 0
9, 21840, Note_on_c, 9, 42, 0
9, 21840, Note_on_c, 9, 42, 127
9, 21900, Note_on_c, 9, 42, 0
9, 21900, Note_on_c, 9, 42, 127
9, 21900, Note_on_c, 9, 35, 127
9, 21960, Note_on_c, 9, 42, 0
9, 21960, Note_on_c, 9, 35, 0
9, 21960, Note_on_c, 9, 38, 127
9, 21960, Note_on_c, 9, 42, 127
9, 22020, Note_on_c, 9, 38, 0
9, 22020, Note_on_c, 9, 42, 0
9, 22020, Note_on_c, 9, 42, 127
9, 22020, Note_on_c, 9, 35, 127
9, 22080, Note_on_c, 9, 42, 0
9, 22080, Note_on_c, 9, 35, 0
9, 22080, Note_on_c, 9, 57, 127
9, 22080, Note_on_c, 9, 35, 127
9, 22140, Note_on_c, 9, 57, 0
9, 22140, Note_on_c, 9, 42, 127
9, 22200, Note_on_c, 9, 35, 0
9, 22200, Note_on_c, 9, 42, 0
9, 22200, Note_on_c, 9, 42, 127
9, 22260, Note_on_c, 9, 42, 0
9, 22260, Note_on_c, 9, 35, 127
9, 22260, Note_on_c, 9, 42, 127
9, 22320, Note_on_c, 9, 35, 0
9, 22320, Note_on_c, 9, 42, 0
9, 22320, Note_on_c, 9, 42, 127
9, 22320, Note_on_c, 9, 38, 127
9, 22350, Note_on_c, 9, 35, 127
9, 22380, Note_on_c, 9, 42, 0
9, 22380, Note_on_c, 9, 38, 0
9, 22380, Note_on_c, 9, 42, 127
9, 22440, Note_on_c, 9, 35, 0
9, 22440, Note_on_c, 9, 42, 0
9, 22440, Time_signature, 2, 2, 24, 8
9, 22440, Note_on_c, 9, 42, 127
9, 22440, Note_on_c, 9, 35, 127
9, 22500, Note_on_c, 9, 42, 0
9, 22500, Note_on_c, 9, 57, 127
9, 22500, Note_on_c, 9, 38, 127
9, 22560, Note_on_c, 9, 35, 0
9, 22560, Note_on_c, 9, 57, 0
9, 22560, Note_on_c, 9, 38, 0
9, 22560, Note_on_c, 9, 42, 127
9, 22560, Note_on_c, 9, 35, 127
9, 22620, Note_on_c, 9, 42, 0
9, 22620, Note_on_c, 9, 57, 127
9, 22620, Note_on_c, 9, 38, 127
9, 22680, Note_on_c, 9, 35, 0
9, 22680, Note_on_c, 9, 57, 0
9, 22680, Note_on_c, 9, 38, 0
9, 22680, Time_signature, 6, 2, 24, 8
9, 22680, Note_on_c, 9, 42, 127
9, 22680, Note_on_c, 9, 35, 127
9, 22800, Note_on_c, 9, 42, 0
9, 22800, Note_on_c, 9, 35, 0
9, 22800, Note_on_c, 9, 42, 127
9, 22800, Note_on_c, 9, 38, 127
9, 22860, Note_on_c, 9, 42, 0
9, 22860, Note_on_c, 9, 38, 0
9, 22860, Note_on_c, 9, 42, 127
9, 22920, Note_on_c, 9, 42, 0
9, 22920, Note_on_c, 9, 42, 127
9, 22920, Note_on_c, 9, 35, 127
9, 22980, Note_on_c, 9, 42, 0
9, 22980, Note_on_c, 9, 42, 127
9, 23040, Note_on_c, 9, 35, 0
9, 23040, Note_on_c, 9, 42, 0
9, 23040, Note_on_c, 9, 38, 127
9, 23040, Note_on_c, 9, 42, 127
9, 23100, Note_on_c, 9, 38, 0
9, 23100, Note_on_c, 9, 42, 0
9, 23100, Note_on_c, 9, 42, 127
9, 23160, Note_on_c, 9, 42, 0
9, 23160, Note_on_c, 9, 42, 127
9, 23160, Note_on_c, 9, 35, 127
9, 23220, Note_on_c, 9, 42, 0
9, 23220, Note_on_c, 9, 42, 127
9, 23280, Note_on_c, 9, 35, 0
9, 23280, Note_on_c, 9, 42, 0
9, 23280, Note_on_c, 9, 38, 127
9, 23280, Note_on_c, 9, 42, 127
9, 23340, Note_on_c, 9, 38, 0
9, 23340, Note_on_c, 9, 42, 0
9, 23340, Note_on_c, 9, 42, 127
9, 23340, Note_on_c, 9, 35, 127
9, 23400, Note_on_c, 9, 42, 0
9, 23400, Note_on_c, 9, 35, 0
9, 23400, Note_on_c, 9, 35, 127
9, 23400, Note_on_c, 9, 57, 127
9, 23460, Note_on_c, 9, 57, 0
9, 23460, Note_on_c, 9, 42, 127
9, 23520, Note_on_c, 9, 35, 0
9, 23520, Note_on_c, 9, 42, 0
9, 23520, Note_on_c, 9, 42, 127
9, 23520, Note_on_c, 9, 38, 127
9, 23580, Note_on_c, 9, 42, 0
9, 23580, Note_on_c, 9, 38, 0
9, 23580, Note_on_c, 9, 42, 127
9, 23640, Note_on_c, 9, 42, 0
9, 23640, Note_on_c, 9, 42, 127
9, 23640, Note_on_c, 9, 35, 127
9, 23700, Note_on_c, 9, 42, 0
9, 23700, Note_on_c, 9, 42, 127
9, 23760, Note_on_c, 9, 35, 0
9, 23760, Note_on_c, 9, 42, 0
9, 23760, Note_on_c, 9, 38, 127
9, 23760, Note_on_c, 9, 42, 127
9, 23820, Note_on_c, 9, 38, 0
9, 23820, Note_on_c, 9, 42, 0
9, 23820, Note_on_c, 9, 42, 127
9, 23880, Note_on_c, 9, 42, 0
9, 23880, Note_on_c, 9, 42, 127
9, 23880, Note_on_c, 9, 35, 127
9, 23940, Note_on_c, 9, 42, 0
9, 23940, Note_on_c, 9, 42, 127
9, 23970, Note_on_c, 9, 35, 127
9, 23980, Note_on_c, 9, 35, 0
9, 23980, Note_on_c, 9, 36, 127
9, 23990, Note_on_c, 9, 36, 0
9, 23990, Note_on_c, 9, 35, 127
9, 24000, Note_on_c, 9, 42, 0
9, 24000, Note_on_c, 9, 35, 0
9, 24000, Note_on_c, 9, 35, 0
9, 24000, Note_on_c, 9, 57, 127
9, 24000, Note_on_c, 9, 38, 127
9, 24120, Note_on_c, 9, 57, 0
9, 24120, Note_on_c, 9, 38, 0
9, 24120, Time_signature, 3, 2, 24, 8
9, 24120, Note_on_c, 9, 57, 127
9, 24120, Note_on_c, 9, 35, 127
9, 24240, Note_on_c, 9, 57, 0
9, 24240, Note_on_c, 9, 35, 0
9, 24240, Note_on_c, 9, 42, 127
9, 24300, Note_on_c, 9, 42, 0
9, 24300, Note_on_c, 9, 35, 127
9, 24300, Note_on_c, 9, 42, 127
9, 24360, Note_on_c, 9, 35, 0
9, 24360, Note_on_c, 9, 42, 0
9, 24360, Note_on_c, 9, 38, 127
9, 24360, Note_on_c, 9, 42, 127
9, 24390, Note_on_c, 9, 35, 127
9, 24420, Note_on_c, 9, 38, 0
9, 24420, Note_on_c, 9, 42, 0
9, 24420, Note_on_c, 9, 42, 127
9, 24450, Note_on_c, 9, 35, 0
9, 24450, Note_on_c, 9, 35, 127
9, 24480, Note_on_c, 9, 42, 0
9, 24480, Note_on_c, 9, 35, 0
9, 24480, Note_on_c, 9, 42, 127
9, 24480, Note_on_c, 9, 35, 127
9, 24540, Note_on_c, 9, 42, 0
9, 24540, Note_on_c, 9, 42, 127
9, 24600, Note_on_c, 9, 35, 0
9, 24600, Note_on_c, 9, 42, 0
9, 24600, Note_on_c, 9, 42, 127
9, 24660, Note_on_c, 9, 42, 0
9, 24660, Note_on_c, 9, 42, 127
9, 24660, Note_on_c, 9, 35, 127
9, 24720, Note_on_c, 9, 42, 0
9, 24720, Note_on_c, 9, 35, 0
9, 24720, Note_on_c, 9, 38, 127
9, 24720, Note_on_c, 9, 42, 127
9, 24780, Note_on_c, 9, 38, 0
9, 24780, Note_on_c, 9, 42, 0
9, 24780, Note_on_c, 9, 42, 127
9, 24840, Note_on_c, 9, 42, 0
9, 24840, Note_on_c, 9, 42, 127
9, 24840, Note_on_c, 9, 35, 127
9, 24900, Note_on_c, 9, 42, 0
9, 24900, Note_on_c, 9, 42, 127
9, 24960, Note_on_c, 9, 35, 0
9, 24960, Note_on_c, 9, 42, 0
9, 24960, Note_on_c, 9, 42, 127
9, 25020, Note_on_c, 9, 42, 0
9, 25020, Note_on_c, 9, 35, 127
9, 25020, Note_on_c, 9, 42, 127
9, 25080, Note_on_c, 9, 35, 0
9, 25080, Note_on_c, 9, 42, 0
9, 25080, Note_on_c, 9, 57, 127
9, 25080, Note_on_c, 9, 38, 127
9, 25110, Note_on_c, 9, 35, 127
9, 25140, Note_on_c, 9, 57, 0
9, 25140, Note_on_c, 9, 38, 0
9, 25140, Note_on_c, 9, 42, 127
9, 25170, Note_on_c, 9, 35, 0
9, 25170, Note_on_c, 9, 35, 127
9, 25200, Note_on_c, 9, 42, 0
9, 25200, Note_on_c, 9, 35, 0
9, 25200, Note_on_c, 9, 57, 127
9, 25200, Note_on_c, 9, 38, 127
9, 25260, Note_on_c, 9, 57, 0
9, 25260, Note_on_c, 9, 38, 0
9, 25260, Note_on_c, 9, 42, 127
9, 25320, Note_on_c, 9, 42, 0
9, 25320, Note_on_c, 9, 42, 127
9, 25380, Note_on_c, 9, 42, 0
9, 25380, Note_on_c, 9, 42, 127
9, 25440, Note_on_c, 9, 42, 0
9, 25440, Note_on_c, 9, 45, 127
9, 25470, Note_on_c, 9, 45, 0
9, 25470, Note_on_c, 9, 45, 127
9, 25500, Note_on_c, 9, 45, 0
9, 25500, Note_on_c, 9, 38, 127
9, 25530, Note_on_c, 9, 38, 0
9, 25530, Note_on_c, 9, 38, 127
9, 25560, Note_on_c, 9, 38, 0
9, 25560, Note_on_c, 9, 35, 127
9, 25560, Note_on_c, 9, 57, 127
9, 25680, Note_on_c, 9, 35, 0
9, 25680, Note_on_c, 9, 57, 0
9, 25680, Note_on_c, 9, 42, 127
9, 25740, Note_on_c, 9, 42, 0
9, 25740, Note_on_c, 9, 35, 127
9, 25740, Note_on_c, 9, 42, 127
9, 25800, Note_on_c, 9, 35, 0
9, 25800, Note_on_c, 9, 42, 0
9, 25800, Note_on_c, 9, 38, 127
9, 25800, Note_on_c, 9, 42, 127
9, 25830, Note_on_c, 9, 35, 127
9, 25860, Note_on_c, 9, 38, 0
9, 25860, Note_on_c, 9, 42, 0
9, 25860, Note_on_c, 9, 42, 127
9, 25890, Note_on_c, 9, 35, 0
9, 25890, Note_on_c, 9, 35, 127
9, 25920, Note_on_c, 9, 42, 0
9, 25920, Note_on_c, 9, 35, 0
9, 25920, Note_on_c, 9, 42, 127
9, 25920, Note_on_c, 9, 45, 127
9, 25980, Note_on_c, 9, 42, 0
9, 25980, Note_on_c, 9, 45, 0
9, 25980, Note_on_c, 9, 42, 127
9, 25980, Note_on_c, 9, 45, 127
9, 26040, Note_on_c, 9, 42, 0
9, 26040, Note_on_c, 9, 45, 0
9, 26040, Note_on_c, 9, 42, 127
9, 26100, Note_on_c, 9, 42, 0
9, 26100, Note_on_c, 9, 35, 127
9, 26100, Note_on_c, 9, 42, 127
9, 26160, Note_on_c, 9, 35, 0
9, 26160, Note_on_c, 9, 42, 0
9, 26160, Note_on_c, 9, 57, 127
9, 26160, Note_on_c, 9, 38, 127
9, 26220, Note_on_c, 9, 57, 0
9, 26220, Note_on_c, 9, 38, 0
9, 26220, Note_on_c, 9, 42, 127
9, 26280, Note_on_c, 9, 42, 0
9, 26280, Note_on_c, 9, 42, 127
9, 26280, Note_on_c, 9, 35, 127
9, 26340, Note_on_c, 9, 42, 0
9, 26340, Note_on_c, 9, 42, 127
9, 26400, Note_on_c, 9, 35, 0
9, 26400, Note_on_c, 9, 42, 0
9, 26400, Note_on_c, 9, 42, 127
9, 26460, Note_on_c, 9, 42, 0
9, 26460, Note_on_c, 9, 42, 127
9, 26490, Note_on_c, 9, 35, 127
9, 26500, Note_on_c, 9, 35, 0
9, 26500, Note_on_c, 9, 36, 127
9, 26510, Note_on_c, 9, 36, 0
9, 26510, Note_on_c, 9, 35, 127
9, 26520, Note_on_c, 9, 42, 0
9, 26520, Note_on_c, 9, 35, 0
9, 26520, Note_on_c, 9, 57, 127
9, 26520, Note_on_c, 9, 38, 127
9, 26580, Note_on_c, 9, 57, 0
9, 26580, Note_on_c, 9, 38, 0
9, 26580, Note_on_c, 9, 42, 127
9, 26640, Note_on_c, 9, 42, 0
9, 26640, Note_on_c, 9, 42, 127
9, 26640, Note_on_c, 9, 35, 127
9, 26700, Note_on_c, 9, 42, 0
9, 26700, Note_on_c, 9, 42, 127
9, 26760, Note_on_c, 9, 35, 0
9, 26760, Note_on_c, 9, 42, 0
9, 26760, Note_on_c, 9, 42, 127
9, 26820, Note_on_c, 9, 42, 0
9, 26820, Note_on_c, 9, 42, 127
9, 26850, Note_on_c, 9, 35, 127
9, 26860, Note_on_c, 9, 35, 0
9, 26860, Note_on_c, 9, 36, 127
9, 26870, Note_on_c, 9, 36, 0
9, 26870, Note_on_c, 9, 35, 127
9, 26875, Note_on_c, 9, 38, 75
9, 26880, Note_on_c, 9, 42, 0
9, 26880, Note_on_c, 9, 35, 0
9, 26880, Note_on_c, 9, 38, 0
9, 26880, Note_on_c, 9, 38, 127
9, 26910, Note_on_c, 9, 35, 127
9, 27000, Note_on_c, 9, 38, 0
9, 27000, Note_on_c, 9, 35, 0
9, 27000, Note_on_c, 9, 35, 127
9, 27000, Note_on_c, 9, 57, 127
9, 27120, Note_on_c, 9, 35, 0
9, 27120, Note_on_c, 9, 57, 0
9, 27120, Note_on_c, 9, 42, 127
9, 27180, Note_on_c, 9, 42, 0
9, 27180, Note_on_c, 9, 35, 127
9, 27180, Note_on_c, 9, 42, 127
9, 27240, Note_on_c, 9, 35, 0
9, 27240, Note_on_c, 9, 42, 0
9, 27240, Note_on_c, 9, 42, 127
9, 27240, Note_on_c, 9, 38, 127
9, 27270, Note_on_c, 9, 35, 127
9, 27300, Note_on_c, 9, 42, 0
9, 27300, Note_on_c, 9, 38, 0
9, 27300, Note_on_c, 9, 42, 127
9, 27360, Note_on_c, 9, 35, 0
9, 27360, Note_on_c, 9, 42, 0
9, 27360, Note_on_c, 9, 42, 127
9, 27360, Note_on_c, 9, 35, 127
9, 27420, Note_on_c, 9, 42, 0
9, 27420, Note_on_c, 9, 42, 127
9, 27480, Note_on_c, 9, 35, 0
9, 27480, Note_on_c, 9, 42, 0
9, 27480, Note_on_c, 9, 42, 127
9, 27540, Note_on_c, 9, 42, 0
9, 27540, Note_on_c, 9, 35, 127
9, 27540, Note_on_c, 9, 42, 127
9, 27600, Note_on_c, 9, 35, 0
9, 27600, Note_on_c, 9, 42, 0
9, 27600, Note_on_c, 9, 42, 127
9, 27600, Note_on_c, 9, 38, 127
9, 27660, Note_on_c, 9, 42, 0
9, 27660, Note_on_c, 9, 38, 0
9, 27660, Note_on_c, 9, 35, 127
9, 27660, Note_on_c, 9, 42, 127
9, 27720, Note_on_c, 9, 35, 0
9, 27720, Note_on_c, 9, 42, 0
9, 27720, Note_on_c, 9, 42, 127
9, 27720, Note_on_c, 9, 35, 127
9, 27780, Note_on_c, 9, 42, 0
9, 27780, Note_on_c, 9, 42, 127
9, 27840, Note_on_c, 9, 35, 0
9, 27840, Note_on_c, 9, 42, 0
9, 27840, Note_on_c, 9, 42, 127
9, 27900, Note_on_c, 9, 42, 0
9, 27900, Note_on_c, 9, 35, 127
9, 27900, Note_on_c, 9, 42, 127
9, 27960, Note_on_c, 9, 35, 0
9, 27960, Note_on_c, 9, 42, 0
9, 27960, Note_on_c, 9, 38, 127
9, 27960, Note_on_c, 9, 42, 127
9, 27990, Note_on_c, 9, 35, 127
9, 28020, Note_on_c, 9, 38, 0
9, 28020, Note_on_c, 9, 42, 0
9, 28020, Note_on_c, 9, 42, 127
9, 28050, Note_on_c, 9, 35, 0
9, 28050, Note_on_c, 9, 35, 127
9, 28080, Note_on_c, 9, 42, 0
9, 28080, Note_on_c, 9, 35, 0
9, 28080, Note_on_c, 9, 42, 127
9, 28080, Note_on_c, 9, 35, 127
9, 28140, Note_on_c, 9, 42, 0
9, 28140, Note_on_c, 9, 42, 127
9, 28200, Note_on_c, 9, 35, 0
9, 28200, Note_on_c, 9, 42, 0
9, 28200, Note_on_c, 9, 42, 127
9, 28260, Note_on_c, 9, 42, 0
9, 28260, Note_on_c, 9, 35, 127
9, 28260, Note_on_c, 9, 42, 127
9, 28320, Note_on_c, 9, 35, 0
9, 28320, Note_on_c, 9, 42, 0
9, 28320, Note_on_c, 9, 38, 127
9, 28350, Note_on_c, 9, 38, 0
9, 28350, Note_on_c, 9, 38, 127
9, 28380, Note_on_c, 9, 38, 0
9, 28440, Note_on_c, 9, 42, 127
9, 28440, Note_on_c, 9, 35, 127
9, 28500, Note_on_c, 9, 42, 0
9, 28500, Note_on_c, 9, 42, 127
9, 28560, Note_on_c, 9, 35, 0
9, 28560, Note_on_c, 9, 42, 0
9, 28560, Note_on_c, 9, 42, 127
9, 28620, Note_on_c, 9, 42, 0
9, 28620, Note_on_c, 9, 35, 127
9, 28620, Note_on_c, 9, 42, 127
9, 28680, Note_on_c, 9, 35, 0
9, 28680, Note_on_c, 9, 42, 0
9, 28680, Note_on_c, 9, 42, 127
9, 28680, Note_on_c, 9, 38, 127
9, 28710, Note_on_c, 9, 35, 127
9, 28740, Note_on_c, 9, 42, 0
9, 28740, Note_on_c, 9, 38, 0
9, 28740, Note_on_c, 9, 42, 127
9, 28770, Note_on_c, 9, 35, 0
9, 28770, Note_on_c, 9, 35, 127
9, 28800, Note_on_c, 9, 42, 0
9, 28800, Note_on_c, 9, 35, 0
9, 28800, Note_on_c, 9, 42, 127
9, 28800, Note_on_c, 9, 35, 127
9, 28860, Note_on_c, 9, 42, 0
9, 28860, Note_on_c, 9, 42, 127
9, 28920, Note_on_c, 9, 35, 0
9, 28920, Note_on_c, 9, 42, 0
9, 28920, Note_on_c, 9, 42, 127
9, 28980, Note_on_c, 9, 42, 0
9, 28980, Note_on_c, 9, 35, 127
9, 28980, Note_on_c, 9, 42, 127
9, 29040, Note_on_c, 9, 35, 0
9, 29040, Note_on_c, 9, 42, 0
9, 29040, Note_on_c, 9, 57, 127
9, 29040, Note_on_c, 9, 38, 127
9, 29100, Note_on_c, 9, 57, 0
9, 29100, Note_on_c, 9, 38, 0
9, 29100, Note_on_c, 9, 57, 127
9, 29100, Note_on_c, 9, 38, 127
9, 29160, Note_on_c, 9, 57, 0
9, 29160, Note_on_c, 9, 38, 0
9, 29160, Note_on_c, 9, 42, 127
9, 29160, Note_on_c, 9, 35, 127
9, 29220, Note_on_c, 9, 42, 0
9, 29220, Note_on_c, 9, 42, 127
9, 29280, Note_on_c, 9, 35, 0
9, 29280, Note_on_c, 9, 42, 0
9, 29280, Note_on_c, 9, 42, 127
9, 29340, Note_on_c, 9, 42, 0
9, 29340, Note_on_c, 9, 35, 127
9, 29340, Note_on_c, 9, 42, 127
9, 29400, Note_on_c, 9, 35, 0
9, 29400, Note_on_c, 9, 42, 0
9, 29400, Note_on_c, 9, 42, 127
9, 29400, Note_on_c, 9, 38, 127
9, 29430, Note_on_c, 9, 35, 127
9, 29460, Note_on_c, 9, 42, 0
9, 29460, Note_on_c, 9, 38, 0
9, 29460, Note_on_c, 9, 42, 127
9, 29520, Note_on_c, 9, 35, 0
9, 29520, Note_on_c, 9, 42, 0
9, 29520, Time_signature, 2, 2, 24, 8
9, 29520, Note_on_c, 9, 42, 127
9, 29520, Note_on_c, 9, 35, 127
9, 29580, Note_on_c, 9, 42, 0
9, 29580, Note_on_c, 9, 57, 127
9, 29580, Note_on_c, 9, 38, 127
9, 29640, Note_on_c, 9, 35, 0
9, 29640, Note_on_c, 9, 57, 0
9, 29640, Note_on_c, 9, 38, 0
9, 29640, Note_on_c, 9, 42, 127
9, 29640, Note_on_c, 9, 35, 127
9, 29700, Note_on_c, 9, 42, 0
9, 29700, Note_on_c, 9, 57, 127
9, 29700, Note_on_c, 9, 38, 127
9, 29760, Note_on_c, 9, 35, 0
9, 29760, Note_on_c, 9, 57, 0
9, 29760, Note_on_c, 9, 38, 0
9, 29760, Time_signature, 3, 2, 24, 8
9, 29760, Note_on_c, 9, 42, 127
9, 29760, Note_on_c, 9, 35, 127
9, 29820, Note_on_c, 9, 42, 0
9, 29820, Note_on_c, 9, 42, 127
9, 29880, Note_on_c, 9, 35, 0
9, 29880, Note_on_c, 9, 42, 0
9, 29880, Note_on_c, 9, 42, 127
9, 29940, Note_on_c, 9, 42, 0
9, 29940, Note_on_c, 9, 35, 127
9, 29940, Note_on_c, 9, 42, 127
9, 30000, Note_on_c, 9, 35, 0
9, 30000, Note_on_c, 9, 42, 0
9, 30000, Note_on_c, 9, 42, 127
9, 30000, Note_on_c, 9, 38, 127
9, 30030, Note_on_c, 9, 35, 127
9, 30060, Note_on_c, 9, 42, 0
9, 30060, Note_on_c, 9, 38, 0
9, 30060, Note_on_c, 9, 42, 127
9, 30120, Note_on_c, 9, 35, 0
9, 30120, Note_on_c, 9, 42, 0
9, 30120, Note_on_c, 9, 42, 127
9, 30120, Note_on_c, 9, 35, 127
9, 30180, Note_on_c, 9, 42, 0
9, 30180, Note_on_c, 9, 42, 127
9, 30240, Note_on_c, 9, 35, 0
9, 30240, Note_on_c, 9, 42, 0
9, 30240, Note_on_c, 9, 42, 127
9, 30300, Note_on_c, 9, 42, 0
9, 30300, Note_on_c, 9, 35, 127
9, 30300, Note_on_c, 9, 42, 127
9, 30360, Note_on_c, 9, 35, 0
9, 30360, Note_on_c, 9, 42, 0
9, 30360, Note_on_c, 9, 42, 127
9, 30360, Note_on_c, 9, 38, 127
9, 30420, Note_on_c, 9, 42, 0
9, 30420, Note_on_c, 9, 38, 0
9, 30420, Note_on_c, 9, 45, 127
9, 30420, Note_on_c, 9, 42, 127
9, 30480, Note_on_c, 9, 45, 0
9, 30480, Note_on_c, 9, 42, 0
9, 30480, Note_on_c, 9, 42, 127
9, 30480, Note_on_c, 9, 45, 127
9, 30540, Note_on_c, 9, 42, 0
9, 30540, Note_on_c, 9, 45, 0
9, 30540, Note_on_c, 9, 42, 127
9, 30600, Note_on_c, 9, 42, 0
9, 30600, Note_on_c, 9, 42, 127
9, 30660, Note_on_c, 9, 42, 0
9, 30660, Note_on_c, 9, 35, 127
9, 30660, Note_on_c, 9, 42, 127
9, 30720, Note_on_c, 9, 35, 0
9, 30720, Note_on_c, 9, 42, 0
9, 30720, Note_on_c, 9, 42, 127
9, 30720, Note_on_c, 9, 38, 127
9, 30750, Note_on_c, 9, 35, 127
9, 30780, Note_on_c, 9, 42, 0
9, 30780, Note_on_c, 9, 38, 0
9, 30780, Note_on_c, 9, 42, 127
9, 30840, Note_on_c, 9, 35, 0
9, 30840, Note_on_c, 9, 42, 0
9, 30840, Note_on_c, 9, 42, 127
9, 30840, Note_on_c, 9, 35, 127
9, 30900, Note_on_c, 9, 42, 0
9, 30900, Note_on_c, 9, 42, 127
9, 30960, Note_on_c, 9, 35, 0
9, 30960, Note_on_c, 9, 42, 0
9, 30960, Note_on_c, 9, 42, 127
9, 31020, Note_on_c, 9, 42, 0
9, 31020, Note_on_c, 9, 35, 127
9, 31020, Note_on_c, 9, 42, 127
9, 31080, Note_on_c, 9, 35, 0
9, 31080, Note_on_c, 9, 42, 0
9, 31080, Note_on_c, 9, 38, 127
9, 31110, Note_on_c, 9, 38, 0
9, 31110, Note_on_c, 9, 38, 127
9, 31140, Note_on_c, 9, 38, 0
9, 31140, Note_on_c, 9, 38, 127
9, 31200, Note_on_c, 9, 38, 0
9, 31200, Note_on_c, 9, 42, 127
9, 31200, Note_on_c, 9, 35, 127
9, 31260, Note_on_c, 9, 42, 0
9, 31260, Note_on_c, 9, 42, 127
9, 31320, Note_on_c, 9, 35, 0
9, 31320, Note_on_c, 9, 42, 0
9, 31320, Note_on_c, 9, 42, 127
9, 31380, Note_on_c, 9, 42, 0
9, 31380, Note_on_c, 9, 35, 127
9, 31380, Note_on_c, 9, 42, 127
9, 31440, Note_on_c, 9, 35, 0
9, 31440, Note_on_c, 9, 42, 0
9, 31440, Note_on_c, 9, 42, 127
9, 31440, Note_on_c, 9, 38, 127
9, 31470, Note_on_c, 9, 35, 127
9, 31500, Note_on_c, 9, 42, 0
9, 31500, Note_on_c, 9, 38, 0
9, 31500, Note_on_c, 9, 42, 127
9, 31560, Note_on_c, 9, 35, 0
9, 31560, Note_on_c, 9, 42, 0
9, 31560, Note_on_c, 9, 42, 127
9, 31560, Note_on_c, 9, 35, 127
9, 31620, Note_on_c, 9, 42, 0
9, 31620, Note_on_c, 9, 42, 127
9, 31680, Note_on_c, 9, 35, 0
9, 31680, Note_on_c, 9, 42, 0
9, 31680, Note_on_c, 9, 42, 127
9, 31740, Note_on_c, 9, 42, 0
9, 31740, Note_on_c, 9, 35, 127
9, 31740, Note_on_c, 9, 42, 127
9, 31800, Note_on_c, 9, 35, 0
9, 31800, Note_on_c, 9, 42, 0
9, 31800, Note_on_c, 9, 57, 127
9, 31800, Note_on_c, 9, 38, 127
9, 31860, Note_on_c, 9, 57, 0
9, 31860, Note_on_c, 9, 38, 0
9, 31860, Note_on_c, 9, 35, 127
9, 31860, Note_on_c, 9, 42, 127
9, 31920, Note_on_c, 9, 35, 0
9, 31920, Note_on_c, 9, 42, 0
9, 31920, Note_on_c, 9, 57, 127
9, 31920, Note_on_c, 9, 35, 127
9, 31980, Note_on_c, 9, 57, 0
9, 31980, Note_on_c, 9, 42, 127
9, 32040, Note_on_c, 9, 35, 0
9, 32040, Note_on_c, 9, 42, 0
9, 32040, Note_on_c, 9, 42, 127
9, 32100, Note_on_c, 9, 42, 0
9, 32100, Note_on_c, 9, 35, 127
9, 32100, Note_on_c, 9, 42, 127
9, 32160, Note_on_c, 9, 35, 0
9, 32160, Note_on_c, 9, 42, 0
9, 32160, Note_on_c, 9, 42, 127
9, 32160, Note_on_c, 9, 38, 127
9, 32190, Note_on_c, 9, 35, 127
9, 32220, Note_on_c, 9, 42, 0
9, 32220, Note_on_c, 9, 38, 0
9, 32220, Note_on_c, 9, 42, 127
9, 32280, Note_on_c, 9, 35, 0
9, 32280, Note_on_c, 9, 42, 0
9, 32280, Time_signature, 2, 2, 24, 8
9, 32280, Note_on_c, 9, 42, 127
9, 32280, Note_on_c, 9, 35, 127
9, 32340, Note_on_c, 9, 42, 0
9, 32340, Note_on_c, 9, 57, 127
9, 32340, Note_on_c, 9, 38, 127
9, 32400, Note_on_c, 9, 35, 0
9, 32400, Note_on_c, 9, 57, 0
9, 32400, Note_on_c, 9, 38, 0
9, 32400, Note_on_c, 9, 42, 127
9, 32400, Note_on_c, 9, 35, 127
9, 32460, Note_on_c, 9, 42, 0
9, 32460, Note_on_c, 9, 57, 127
9, 32460, Note_on_c, 9, 38, 127
9, 32520, Note_on_c, 9, 35, 0
9, 32520, Note_on_c, 9, 57, 0
9, 32520, Note_on_c, 9, 38, 0
9, 32520, Time_signature, 6, 2, 24, 8
9, 32520, Note_on_c, 9, 42, 127
9, 32520, Note_on_c, 9, 35, 127
9, 32580, Note_on_c, 9, 42, 0
9, 32580, Note_on_c, 9, 42, 127
9, 32640, Note_on_c, 9, 35, 0
9, 32640, Note_on_c, 9, 42, 0
9, 32640, Note_on_c, 9, 38, 127
9, 32640, Note_on_c, 9, 42, 127
9, 32700, Note_on_c, 9, 38, 0
9, 32700, Note_on_c, 9, 42, 0
9, 32700, Note_on_c, 9, 42, 127
9, 32760, Note_on_c, 9, 42, 0
9, 32760, Note_on_c, 9, 42, 127
9, 32760, Note_on_c, 9, 35, 127
9, 32820, Note_on_c, 9, 42, 0
9, 32820, Note_on_c, 9, 42, 127
9, 32880, Note_on_c, 9, 35, 0
9, 32880, Note_on_c, 9, 42, 0
9, 32880, Note_on_c, 9, 38, 127
9, 32880, Note_on_c, 9, 42, 127
9, 32940, Note_on_c, 9, 38, 0
9, 32940, Note_on_c, 9, 42, 0
9, 32940, Note_on_c, 9, 42, 127
9, 33000, Note_on_c, 9, 42, 0
9, 33000, Note_on_c, 9, 42, 127
9, 33000, Note_on_c, 9, 35, 127
9, 33060, Note_on_c, 9, 42, 0
9, 33060, Note_on_c, 9, 42, 127
9, 33120, Note_on_c, 9, 35, 0
9, 33120, Note_on_c, 9, 42, 0
9, 33120, Note_on_c, 9, 38, 127
9, 33120, Note_on_c, 9, 42, 127
9, 33180, Note_on_c, 9, 38, 0
9, 33180, Note_on_c, 9, 42, 0
9, 33180, Note_on_c, 9, 42, 127
9, 33180, Note_on_c, 9, 35, 127
9, 33240, Note_on_c, 9, 42, 0
9, 33240, Note_on_c, 9, 35, 0
9, 33240, Note_on_c, 9, 57, 127
9, 33240, Note_on_c, 9, 35, 127
9, 33360, Note_on_c, 9, 57, 0
9, 33360, Note_on_c, 9, 35, 0
9, 33360, Note_on_c, 9, 38, 127
9, 33360, Note_on_c, 9, 42, 127
9, 33420, Note_on_c, 9, 38, 0
9, 33420, Note_on_c, 9, 42, 0
9, 33420, Note_on_c, 9, 42, 127
9, 33480, Note_on_c, 9, 42, 0
9, 33480, Note_on_c, 9, 42, 127
9, 33480, Note_on_c, 9, 35, 127
9, 33540, Note_on_c, 9, 42, 0
9, 33540, Note_on_c, 9, 42, 127
9, 33600, Note_on_c, 9, 35, 0
9, 33600, Note_on_c, 9, 42, 0
9, 33600, Note_on_c, 9, 38, 127
9, 33600, Note_on_c, 9, 42, 127
9, 33660, Note_on_c, 9, 38, 0
9, 33660, Note_on_c, 9, 42, 0
9, 33660, Note_on_c, 9, 42, 127
9, 33720, Note_on_c, 9, 42, 0
9, 33720, Note_on_c, 9, 42, 127
9, 33720, Note_on_c, 9, 35, 127
9, 33780, Note_on_c, 9, 42, 0
9, 33780, Note_on_c, 9, 42, 127
9, 33810, Note_on_c, 9, 35, 127
9, 33820, Note_on_c, 9, 35, 0
9, 33820, Note_on_c, 9, 36, 127
9, 33830, Note_on_c, 9, 36, 0
9, 33830, Note_on_c, 9, 35, 127
9, 33840, Note_on_c, 9, 42, 0
9, 33840, Note_on_c, 9, 35, 0
9, 33840, Note_on_c, 9, 35, 0
9, 33840, Note_on_c, 9, 57, 127
9, 33840, Note_on_c, 9, 38, 127
9, 33960, Note_on_c, 9, 57, 0
9, 33960, Note_on_c, 9, 38, 0
9, 33960, Time_signature, 3, 2, 24, 8
9, 33960, Note_on_c, 9, 35, 127
9, 33960, Note_on_c, 9, 57, 127
9, 34080, Note_on_c, 9, 35, 0
9, 34080, Note_on_c, 9, 57, 0
9, 34080, Note_on_c, 9, 42, 127
9, 34140, Note_on_c, 9, 42, 0
9, 34140, Note_on_c, 9, 35, 127
9, 34140, Note_on_c, 9, 42, 127
9, 34200, Note_on_c, 9, 35, 0
9, 34200, Note_on_c, 9, 42, 0
9, 34200, Note_on_c, 9, 42, 127
9, 34200, Note_on_c, 9, 38, 127
9, 34230, Note_on_c, 9, 35, 127
9, 34260, Note_on_c, 9, 42, 0
9, 34260, Note_on_c, 9, 38, 0
9, 34260, Note_on_c, 9, 42, 127
9, 34290, Note_on_c, 9, 35, 0
9, 34290, Note_on_c, 9, 35, 127
9, 34320, Note_on_c, 9, 42, 0
9, 34320, Note_on_c, 9, 35, 0
9, 34320, Note_on_c, 9, 42, 127
9, 34320, Note_on_c, 9, 35, 127
9, 34380, Note_on_c, 9, 42, 0
9, 34380, Note_on_c, 9, 42, 127
9, 34440, Note_on_c, 9, 35, 0
9, 34440, Note_on_c, 9, 42, 0
9, 34440, Note_on_c, 9, 42, 127
9, 34500, Note_on_c, 9, 42, 0
9, 34500, Note_on_c, 9, 35, 127
9, 34500, Note_on_c, 9, 42, 127
9, 34560, Note_on_c, 9, 35, 0
9, 34560, Note_on_c, 9, 42, 0
9, 34560, Note_on_c, 9, 57, 127
9, 34560, Note_on_c, 9, 38, 127
9, 34620, Note_on_c, 9, 57, 0
9, 34620, Note_on_c, 9, 38, 0
9, 34620, Note_on_c, 9, 42, 127
9, 34680, Note_on_c, 9, 42, 0
9, 34680, Note_on_c, 9, 42, 127
9, 34680, Note_on_c, 9, 35, 127
9, 34740, Note_on_c, 9, 42, 0
9, 34740, Note_on_c, 9, 42, 127
9, 34800, Note_on_c, 9, 35, 0
9, 34800, Note_on_c, 9, 42, 0
9, 34800, Note_on_c, 9, 42, 127
9, 34860, Note_on_c, 9, 42, 0
9, 34860, Note_on_c, 9, 35, 127
9, 34860, Note_on_c, 9, 42, 127
9, 34920, Note_on_c, 9, 35, 0
9, 34920, Note_on_c, 9, 42, 0
9, 34920, Note_on_c, 9, 42, 127
9, 34920, Note_on_c, 9, 38, 127
9, 34950, Note_on_c, 9, 35, 127
9, 34980, Note_on_c, 9, 42, 0
9, 34980, Note_on_c, 9, 38, 0
9, 34980, Note_on_c, 9, 42, 127
9, 35010, Note_on_c, 9, 35, 0
9, 35010, Note_on_c, 9, 35, 127
9, 35040, Note_on_c, 9, 42, 0
9, 35040, Note_on_c, 9, 35, 0
9, 35040, Note_on_c, 9, 57, 127
9, 35040, Note_on_c, 9, 38, 127
9, 35100, Note_on_c, 9, 57, 0
9, 35100, Note_on_c, 9, 38, 0
9, 35100, Note_on_c, 9, 42, 127
9, 35160, Note_on_c, 9, 42, 0
9, 35160, Note_on_c, 9, 42, 127
9, 35220, Note_on_c, 9, 42, 0
9, 35220, Note_on_c, 9, 35, 127
9, 35220, Note_on_c, 9, 42, 127
9, 35280, Note_on_c, 9, 35, 0
9, 35280, Note_on_c, 9, 42, 0
9, 35280, Note_on_c, 9, 57, 127
9, 35280, Note_on_c, 9, 38, 127
9, 35340, Note_on_c, 9, 57, 0
9, 35340, Note_on_c, 9, 38, 0
9, 35340, Note_on_c, 9, 38, 127
9, 35340, Note_on_c, 9, 57, 127
9, 35400, Note_on_c, 9, 38, 0
9, 35400, Note_on_c, 9, 57, 0
9, 35400, Note_on_c, 9, 42, 127
9, 35400, Note_on_c, 9, 35, 127
9, 35460, Note_on_c, 9, 42, 0
9, 35460, Note_on_c, 9, 42, 127
9, 35520, Note_on_c, 9, 35, 0
9, 35520, Note_on_c, 9, 42, 0
9, 35520, Note_on_c, 9, 42, 127
9, 35580, Note_on_c, 9, 42, 0
9, 35580, Note_on_c, 9, 35, 127
9, 35580, Note_on_c, 9, 42, 127
9, 35640, Note_on_c, 9, 35, 0
9, 35640, Note_on_c, 9, 42, 0
9, 35640, Note_on_c, 9, 42, 127
9, 35640, Note_on_c, 9, 38, 127
9, 35670, Note_on_c, 9, 35, 127
9, 35700, Note_on_c, 9, 42, 0
9, 35700, Note_on_c, 9, 38, 0
9, 35700, Note_on_c, 9, 42, 127
9, 35760, Note_on_c, 9, 35, 0
9, 35760, Note_on_c, 9, 42, 0
9, 35760, Note_on_c, 9, 42, 127
9, 35760, Note_on_c, 9, 35, 127
9, 35820, Note_on_c, 9, 42, 0
9, 35820, Note_on_c, 9, 42, 127
9, 35880, Note_on_c, 9, 35, 0
9, 35880, Note_on_c, 9, 42, 0
9, 35880, Note_on_c, 9, 42, 127
9, 35940, Note_on_c, 9, 42, 0
9, 35940, Note_on_c, 9, 35, 127
9, 35940, Note_on_c, 9, 42, 127
9, 36000, Note_on_c, 9, 35, 0
9, 36000, Note_on_c, 9, 42, 0
9, 36000, Note_on_c, 9, 42, 127
9, 36000, Note_on_c, 9, 38, 127
9, 36030, Note_on_c, 9, 35, 127
9, 36060, Note_on_c, 9, 42, 0
9, 36060, Note_on_c, 9, 38, 0
9, 36060, Note_on_c, 9, 42, 127
9, 36090, Note_on_c, 9, 35, 0
9, 36090, Note_on_c, 9, 35, 127
9, 36120, Note_on_c, 9, 42, 0
9, 36120, Note_on_c, 9, 35, 0
9, 36120, Note_on_c, 9, 42, 127
9, 36120, Note_on_c, 9, 45, 127
9, 36180, Note_on_c, 9, 42, 0
9, 36180, Note_on_c, 9, 45, 0
9, 36180, Note_on_c, 9, 42, 127
9, 36240, Note_on_c, 9, 42, 0
9, 36240, Note_on_c, 9, 42, 127
9, 36300, Note_on_c, 9, 42, 0
9, 36300, Note_on_c, 9, 35, 127
9, 36300, Note_on_c, 9, 42, 127
9, 36360, Note_on_c, 9, 35, 0
9, 36360, Note_on_c, 9, 42, 0
9, 36360, Note_on_c, 9, 42, 127
9, 36360, Note_on_c, 9, 45, 127
9, 36390, Note_on_c, 9, 35, 127
9, 36420, Note_on_c, 9, 42, 0
9, 36420, Note_on_c, 9, 45, 0
9, 36420, Note_on_c, 9, 42, 127
9, 36450, Note_on_c, 9, 35, 0
9, 36450, Note_on_c, 9, 35, 127
9, 36480, Note_on_c, 9, 42, 0
9, 36480, Note_on_c, 9, 35, 0
9, 36480, Note_on_c, 9, 42, 127
9, 36480, Note_on_c, 9, 45, 127
9, 36540, Note_on_c, 9, 42, 0
9, 36540, Note_on_c, 9, 45, 0
9, 36540, Note_on_c, 9, 42, 127
9, 36600, Note_on_c, 9, 42, 0
9, 36600, Note_on_c, 9, 42, 127
9, 36660, Note_on_c, 9, 42, 0
9, 36660, Note_on_c, 9, 35, 127
9, 36660, Note_on_c, 9, 42, 127
9, 36720, Note_on_c, 9, 35, 0
9, 36720, Note_on_c, 9, 42, 0
9, 36720, Note_on_c, 9, 38, 127
9, 36750, Note_on_c, 9, 38, 0
9, 36750, Note_on_c, 9, 38, 127
9, 36780, Note_on_c, 9, 38, 0
9, 36780, Note_on_c, 9, 38, 127
9, 36840, Note_on_c, 9, 38, 0
9, 36840, Note_on_c, 9, 35, 127
9, 36840, Note_on_c, 9, 57, 127
9, 36960, Note_on_c, 9, 35, 0
9, 36960, Note_on_c, 9, 57, 0
9, 36960, Note_on_c, 9, 42, 127
9, 37020, Note_on_c, 9, 42, 0
9, 37020, Note_on_c, 9, 35, 127
9, 37020, Note_on_c, 9, 42, 127
9, 37080, Note_on_c, 9, 35, 0
9, 37080, Note_on_c, 9, 42, 0
9, 37080, Note_on_c, 9, 42, 127
9, 37080, Note_on_c, 9, 38, 127
9, 37110, Note_on_c, 9, 35, 127
9, 37140, Note_on_c, 9, 42, 0
9, 37140, Note_on_c, 9, 38, 0
9, 37140, Note_on_c, 9, 42, 127
9, 37170, Note_on_c, 9, 35, 0
9, 37170, Note_on_c, 9, 35, 127
9, 37200, Note_on_c, 9, 42, 0
9, 37200, Note_on_c, 9, 35, 0
9, 37200, Note_on_c, 9, 42, 127
9, 37200, Note_on_c, 9, 35, 127
9, 37260, Note_on_c, 9, 42, 0
9, 37260, Note_on_c, 9, 42, 127
9, 37320, Note_on_c, 9, 35, 0
9, 37320, Note_on_c, 9, 42, 0
9, 37320, Note_on_c, 9, 42, 127
9, 37380, Note_on_c, 9, 42, 0
9, 37380, Note_on_c, 9, 35, 127
9, 37380, Note_on_c, 9, 42, 127
9, 37440, Note_on_c, 9, 35, 0
9, 37440, Note_on_c, 9, 42, 0
9, 37440, Note_on_c, 9, 42, 127
9, 37440, Note_on_c, 9, 38, 127
9, 37500, Note_on_c, 9, 42, 0
9, 37500, Note_on_c, 9, 38, 0
9, 37500, Note_on_c, 9, 35, 127
9, 37500, Note_on_c, 9, 42, 127
9, 37560, Note_on_c, 9, 35, 0
9, 37560, Note_on_c, 9, 42, 0
9, 37560, Note_on_c, 9, 42, 127
9, 37560, Note_on_c, 9, 38, 127
9, 37620, Note_on_c, 9, 42, 0
9, 37620, Note_on_c, 9, 38, 0
9, 37620, Note_on_c, 9, 42, 127
9, 37680, Note_on_c, 9, 42, 0
9, 37680, Note_on_c, 9, 42, 127
9, 37740, Note_on_c, 9, 42, 0
9, 37740, Note_on_c, 9, 35, 127
9, 37740, Note_on_c, 9, 42, 127
9, 37800, Note_on_c, 9, 35, 0
9, 37800, Note_on_c, 9, 42, 0
9, 37800, Note_on_c, 9, 42, 127
9, 37800, Note_on_c, 9, 35, 127
9, 37860, Note_on_c, 9, 42, 0
9, 37860, Note_on_c, 9, 35, 0
9, 37860, Note_on_c, 9, 42, 127
9, 37860, Note_on_c, 9, 35, 127
9, 37920, Note_on_c, 9, 42, 0
9, 37920, Note_on_c, 9, 35, 0
9, 37920, Note_on_c, 9, 57, 127
9, 37920, Note_on_c, 9, 38, 127
9, 37980, Note_on_c, 9, 57, 0
9, 37980, Note_on_c, 9, 38, 0
9, 37980, Note_on_c, 9, 42, 127
9, 38040, Note_on_c, 9, 42, 0
9, 38040, Note_on_c, 9, 42, 127
9, 38130, Note_on_c, 9, 42, 0
9, 38130, Note_on_c, 9, 45, 127
9, 38160, Note_on_c, 9, 45, 0
9, 38160, Note_on_c, 9, 45, 127
9, 38220, Note_on_c, 9, 45, 0
9, 38220, Note_on_c, 9, 47, 127
9, 38280, Note_on_c, 9, 47, 0
9, 38280, Note_on_c, 9, 57, 127
9, 38280, Note_on_c, 9, 35, 127
9, 38400, Note_on_c, 9, 57, 0
9, 38400, Note_on_c, 9, 35, 0
9, 38400, Note_on_c, 9, 42, 127
9, 38460, Note_on_c, 9, 42, 0
9, 38460, Note_on_c, 9, 35, 127
9, 38460, Note_on_c, 9, 42, 127
9, 38520, Note_on_c, 9, 35, 0
9, 38520, Note_on_c, 9, 42, 0
9, 38520, Note_on_c, 9, 42, 127
9, 38520, Note_on_c, 9, 38, 127
9, 38550, Note_on_c, 9, 35, 127
9, 38580, Note_on_c, 9, 42, 0
9, 38580, Note_on_c, 9, 38, 0
9, 38580, Note_on_c, 9, 42, 127
9, 38610, Note_on_c, 9, 35, 0
9, 38610, Note_on_c, 9, 35, 127
9, 38640, Note_on_c, 9, 42, 0
9, 38640, Note_on_c, 9, 35, 0
9, 38640, Note_on_c, 9, 57, 127
9, 38640, Note_on_c, 9, 38, 127
9, 38700, Note_on_c, 9, 57, 0
9, 38700, Note_on_c, 9, 38, 0
9, 38700, Note_on_c, 9, 42, 127
9, 38760, Note_on_c, 9, 42, 0
9, 38760, Note_on_c, 9, 42, 127
9, 38820, Note_on_c, 9, 42, 0
9, 38820, Note_on_c, 9, 42, 127
9, 38850, Note_on_c, 9, 35, 127
9, 38860, Note_on_c, 9, 36, 127
9, 38870, Note_on_c, 9, 36, 0
9, 38870, Note_on_c, 9, 35, 127
9, 38880, Note_on_c, 9, 42, 0
9, 38880, Note_on_c, 9, 35, 0
9, 38880, Note_on_c, 9, 35, 0
9, 38880, Note_on_c, 9, 57, 127
9, 38880, Note_on_c, 9, 38, 127
9, 38940, Note_on_c, 9, 57, 0
9, 38940, Note_on_c, 9, 38, 0
9, 38940, Note_on_c, 9, 57, 127
9, 38940, Note_on_c, 9, 38, 127
9, 39000, Note_on_c, 9, 57, 0
9, 39000, Note_on_c, 9, 38, 0
9, 39000, Note_on_c, 9, 57, 127
9, 39000, Note_on_c, 9, 38, 127
9, 39060, Note_on_c, 9, 57, 0
9, 39060, Note_on_c, 9, 38, 0
9, 39060, Note_on_c, 9, 42, 127
9, 39120, Note_on_c, 9, 42, 0
9, 39120, Note_on_c, 9, 42, 127
9, 39180, Note_on_c, 9, 42, 0
9, 39180, Note_on_c, 9, 35, 127
9, 39180, Note_on_c, 9, 42, 127
9, 39240, Note_on_c, 9, 35, 0
9, 39240, Note_on_c, 9, 42, 0
9, 39240, Note_on_c, 9, 42, 127
9, 39240, Note_on_c, 9, 38, 127
9, 39330, Note_on_c, 9, 42, 0
9, 39330, Note_on_c, 9, 38, 0
9, 39330, Note_on_c, 9, 38, 127
9, 39360, Note_on_c, 9, 38, 0
9, 39360, Note_on_c, 9, 38, 127
9, 39420, Note_on_c, 9, 38, 0
9, 39420, Note_on_c, 9, 38, 127
9, 39480, Note_on_c, 9, 38, 0
9, 39480, Note_on_c, 9, 38, 127
9, 39540, Note_on_c, 9, 35, 127
9, 39600, Note_on_c, 9, 38, 0
9, 39600, Note_on_c, 9, 35, 0
9, 39600, Note_on_c, 9, 38, 127
9, 39630, Note_on_c, 9, 38, 0
9, 39630, Note_on_c, 9, 38, 127
9, 39660, Note_on_c, 9, 38, 0
9, 39660, Note_on_c, 9, 38, 127
9, 39720, Note_on_c, 9, 38, 0
9, 39720, Time_signature, 6, 2, 24, 8
9, 39720, Note_on_c, 9, 35, 127
9, 39720, Note_on_c, 9, 57, 127
9, 39840, Note_on_c, 9, 35, 0
9, 39840, Note_on_c, 9, 57, 0
9, 39840, Note_on_c, 9, 42, 127
9, 39840, Note_on_c, 9, 38, 127
9, 39900, Note_on_c, 9, 42, 0
9, 39900, Note_on_c, 9, 38, 0
9, 39900, Note_on_c, 9, 42, 127
9, 39960, Note_on_c, 9, 42, 0
9, 39960, Note_on_c, 9, 42, 127
9, 39960, Note_on_c, 9, 35, 127
9, 40020, Note_on_c, 9, 42, 0
9, 40020, Note_on_c, 9, 42, 127
9, 40080, Note_on_c, 9, 35, 0
9, 40080, Note_on_c, 9, 42, 0
9, 40080, Note_on_c, 9, 38, 127
9, 40080, Note_on_c, 9, 42, 127
9, 40140, Note_on_c, 9, 38, 0
9, 40140, Note_on_c, 9, 42, 0
9, 40140, Note_on_c, 9, 42, 127
9, 40200, Note_on_c, 9, 42, 0
9, 40200, Note_on_c, 9, 42, 127
9, 40200, Note_on_c, 9, 35, 127
9, 40260, Note_on_c, 9, 42, 0
9, 40260, Note_on_c, 9, 42, 127
9, 40320, Note_on_c, 9, 35, 0
9, 40320, Note_on_c, 9, 42, 0
9, 40320, Note_on_c, 9, 38, 127
9, 40320, Note_on_c, 9, 42, 127
9, 40380, Note_on_c, 9, 38, 0
9, 40380, Note_on_c, 9, 42, 0
9, 40380, Note_on_c, 9, 35, 127
9, 40380, Note_on_c, 9, 42, 127
9, 40440, Note_on_c, 9, 35, 0
9, 40440, Note_on_c, 9, 42, 0
9, 40440, Note_on_c, 9, 57, 127
9, 40440, Note_on_c, 9, 35, 127
9, 40560, Note_on_c, 9, 57, 0
9, 40560, Note_on_c, 9, 35, 0
9, 40560, Note_on_c, 9, 42, 127
9, 40560, Note_on_c, 9, 38, 127
9, 40620, Note_on_c, 9, 42, 0
9, 40620, Note_on_c, 9, 38, 0
9, 40620, Note_on_c, 9, 42, 127
9, 40680, Note_on_c, 9, 42, 0
9, 40680, Note_on_c, 9, 42, 127
9, 40680, Note_on_c, 9, 35, 127
9, 40740, Note_on_c, 9, 42, 0
9, 40740, Note_on_c, 9, 42, 127
9, 40800, Note_on_c, 9, 35, 0
9, 40800, Note_on_c, 9, 42, 0
9, 40800, Note_on_c, 9, 38, 127
9, 40800, Note_on_c, 9, 42, 127
9, 40860, Note_on_c, 9, 38, 0
9, 40860, Note_on_c, 9, 42, 0
9, 40860, Note_on_c, 9, 42, 127
9, 40920, Note_on_c, 9, 42, 0
9, 40920, Note_on_c, 9, 42, 127
9, 40920, Note_on_c, 9, 35, 127
9, 40980, Note_on_c, 9, 42, 0
9, 40980, Note_on_c, 9, 42, 127
9, 41010, Note_on_c, 9, 35, 127
9, 41020, Note_on_c, 9, 35, 0
9, 41020, Note_on_c, 9, 36, 127
9, 41030, Note_on_c, 9, 36, 0
9, 41030, Note_on_c, 9, 35, 127
9, 41040, Note_on_c, 9, 42, 0
9, 41040, Note_on_c, 9, 35, 0
9, 41040, Note_on_c, 9, 35, 0
9, 41040, Note_on_c, 9, 57, 127
9, 41040, Note_on_c, 9, 38, 127
9, 41160, Note_on_c, 9, 57, 0
9, 41160, Note_on_c, 9, 38, 0
9, 41160, Note_on_c, 9, 35, 127
9, 41160, Note_on_c, 9, 57, 127
9, 41280, Note_on_c, 9, 35, 0
9, 41280, Note_on_c, 9, 57, 0
9, 41280, Note_on_c, 9, 38, 127
9, 41280, Note_on_c, 9, 42, 127
9, 41340, Note_on_c, 9, 38, 0
9, 41340, Note_on_c, 9, 42, 0
9, 41340, Note_on_c, 9, 42, 127
9, 41400, Note_on_c, 9, 42, 0
9, 41400, Note_on_c, 9, 42, 127
9, 41400, Note_on_c, 9, 35, 127
9, 41460, Note_on_c, 9, 42, 0
9, 41460, Note_on_c, 9, 42, 127
9, 41520, Note_on_c, 9, 35, 0
9, 41520, Note_on_c, 9, 42, 0
9, 41520, Note_on_c, 9, 38, 127
9, 41520, Note_on_c, 9, 42, 127
9, 41580, Note_on_c, 9, 38, 0
9, 41580, Note_on_c, 9, 42, 0
9, 41580, Note_on_c, 9, 42, 127
9, 41640, Note_on_c, 9, 42, 0
9, 41640, Note_on_c, 9, 42, 127
9, 41640, Note_on_c, 9, 35, 127
9, 41700, Note_on_c, 9, 42, 0
9, 41700, Note_on_c, 9, 42, 127
9, 41760, Note_on_c, 9, 35, 0
9, 41760, Note_on_c, 9, 42, 0
9, 41760, Note_on_c, 9, 38, 127
9, 41760, Note_on_c, 9, 42, 127
9, 41820, Note_on_c, 9, 38, 0
9, 41820, Note_on_c, 9, 42, 0
9, 41820, Note_on_c, 9, 35, 127
9, 41820, Note_on_c, 9, 42, 127
9, 41880, Note_on_c, 9, 35, 0
9, 41880, Note_on_c, 9, 42, 0
9, 41880, Note_on_c, 9, 57, 127
9, 41880, Note_on_c, 9, 35, 127
9, 42000, Note_on_c, 9, 57, 0
9, 42000, Note_on_c, 9, 35, 0
9, 42000, Note_on_c, 9, 42, 127
9, 42000, Note_on_c, 9, 38, 127
9, 42060, Note_on_c, 9, 42, 0
9, 42060, Note_on_c, 9, 38, 0
9, 42060, Note_on_c, 9, 42, 127
9, 42120, Note_on_c, 9, 42, 0
9, 42120, Note_on_c, 9, 42, 127
9, 42120, Note_on_c, 9, 35, 127
9, 42180, Note_on_c, 9, 42, 0
9, 42180, Note_on_c, 9, 42, 127
9, 42240, Note_on_c, 9, 35, 0
9, 42240, Note_on_c, 9, 42, 0
9, 42240, Note_on_c, 9, 38, 127
9, 42240, Note_on_c, 9, 42, 127
9, 42300, Note_on_c, 9, 38, 0
9, 42300, Note_on_c, 9, 42, 0
9, 42300, Note_on_c, 9, 42, 127
9, 42360, Note_on_c, 9, 42, 0
9, 42360, Note_on_c, 9, 42, 127
9, 42360, Note_on_c, 9, 35, 127
9, 42420, Note_on_c, 9, 42, 0
9, 42420, Note_on_c, 9, 42, 127
9, 42450, Note_on_c, 9, 35, 127
9, 42460, Note_on_c, 9, 35, 0
9, 42460, Note_on_c, 9, 36, 127
9, 42470, Note_on_c, 9, 36, 0
9, 42470, Note_on_c, 9, 35, 127
9, 42480, Note_on_c, 9, 42, 0
9, 42480, Note_on_c, 9, 35, 0
9, 42480, Note_on_c, 9, 35, 0
9, 42480, Note_on_c, 9, 57, 127
9, 42480, Note_on_c, 9, 38, 127
9, 42600, Note_on_c, 9, 57, 0
9, 42600, Note_on_c, 9, 38, 0
9, 42600, Note_on_c, 9, 42, 127
9, 42600, Note_on_c, 9, 38, 127
9, 42720, Note_on_c, 9, 42, 0
9, 42720, Note_on_c, 9, 38, 0
9, 42720, Note_on_c, 9, 42, 127
9, 42780, Note_on_c, 9, 42, 0
9, 42780, Note_on_c, 9, 50, 127
9, 42780, Note_on_c, 9, 38, 127
9, 42840, Note_on_c, 9, 50, 0
9, 42840, Note_on_c, 9, 38, 0
9, 42840, Note_on_c, 9, 50, 127
9, 42840, Note_on_c, 9, 38, 127
9, 42900, Note_on_c, 9, 50, 0
9, 42900, Note_on_c, 9, 38, 0
9, 42900, Note_on_c, 9, 50, 127
9, 42900, Note_on_c, 9, 38, 127
9, 42960, Note_on_c, 9, 50, 0
9, 42960, Note_on_c, 9, 38, 0
9, 42960, Note_on_c, 9, 35, 127
9, 42960, Note_on_c, 9, 57, 127
9, 43080, Note_on_c, 9, 35, 0
9, 43080, Note_on_c, 9, 57, 0
9, 43080, Note_on_c, 9, 35, 127
9, 43080, Note_on_c, 9, 57, 127
9, 43200, Note_on_c, 9, 35, 0
9, 43200, Note_on_c, 9, 57, 0
9, 43200, Note_on_c, 9, 35, 127
9, 43200, Note_on_c, 9, 57, 127
9, 43320, Note_on_c, 9, 35, 0
9, 43320, Note_on_c, 9, 57, 0
9, 43320, Time_signature, 3, 2, 24, 8
9, 43320, Note_on_c, 9, 35, 127
9, 43320, Note_on_c, 9, 57, 127
9, 43440, Note_on_c, 9, 35, 0
9, 43440, Note_on_c, 9, 57, 0
9, 43440, Note_on_c, 9, 38, 127
9, 43440, Note_on_c, 9, 42, 127
9, 43500, Note_on_c, 9, 38, 0
9, 43500, Note_on_c, 9, 42, 0
9, 43500, Note_on_c, 9, 42, 127
9, 43560, Note_on_c, 9, 42, 0
9, 43560, Note_on_c, 9, 42, 127
9, 43560, Note_on_c, 9, 35, 127
9, 43620, Note_on_c, 9, 42, 0
9, 43620, Note_on_c, 9, 42, 127
9, 43680, Note_on_c, 9, 35, 0
9, 43680, Note_on_c, 9, 42, 0
9, 43680, Note_on_c, 9, 38, 127
9, 43680, Note_on_c, 9, 42, 127
9, 43740, Note_on_c, 9, 38, 0
9, 43740, Note_on_c, 9, 42, 0
9, 43740, Note_on_c, 9, 42, 127
9, 43800, Note_on_c, 9, 42, 0
9, 43800, Note_on_c, 9, 42, 127
9, 43800, Note_on_c, 9, 35, 127
9, 43860, Note_on_c, 9, 42, 0
9, 43860, Note_on_c, 9, 42, 127
9, 43920, Note_on_c, 9, 35, 0
9, 43920, Note_on_c, 9, 42, 0
9, 43920, Note_on_c, 9, 38, 127
9, 43920, Note_on_c, 9, 42, 127
9, 43980, Note_on_c, 9, 38, 0
9, 43980, Note_on_c, 9, 42, 0
9, 43980, Note_on_c, 9, 35, 127
9, 43980, Note_on_c, 9, 42, 127
9, 44040, Note_on_c, 9, 35, 0
9, 44040, Note_on_c, 9, 42, 0
9, 44040, Note_on_c, 9, 42, 127
9, 44040, Note_on_c, 9, 35, 127
9, 44100, Note_on_c, 9, 42, 0
9, 44100, Note_on_c, 9, 42, 127
9, 44160, Note_on_c, 9, 35, 0
9, 44160, Note_on_c, 9, 42, 0
9, 44160, Note_on_c, 9, 57, 127
9, 44160, Note_on_c, 9, 38, 127
9, 44280, Note_on_c, 9, 57, 0
9, 44280, Note_on_c, 9, 38, 0
9, 44280, Note_on_c, 9, 42, 127
9, 44280, Note_on_c, 9, 35, 127
9, 44340, Note_on_c, 9, 42, 0
9, 44340, Note_on_c, 9, 42, 127
9, 44400, Note_on_c, 9, 35, 0
9, 44400, Note_on_c, 9, 42, 0
9, 44400, Note_on_c, 9, 42, 127
9, 44400, Note_on_c, 9, 38, 127
9, 44460, Note_on_c, 9, 42, 0
9, 44460, Note_on_c, 9, 38, 0
9, 44460, Note_on_c, 9, 42, 127
9, 44520, Note_on_c, 9, 42, 0
9, 44520, Note_on_c, 9, 42, 127
9, 44520, Note_on_c, 9, 35, 127
9, 44580, Note_on_c, 9, 42, 0
9, 44580, Note_on_c, 9, 42, 127
9, 44640, Note_on_c, 9, 35, 0
9, 44640, Note_on_c, 9, 42, 0
9, 44640, Note_on_c, 9, 42, 127
9, 44640, Note_on_c, 9, 38, 127
9, 44700, Note_on_c, 9, 42, 0
9, 44700, Note_on_c, 9, 38, 0
9, 44700, Note_on_c, 9, 35, 127
9, 44700, Note_on_c, 9, 42, 127
9, 44760, Note_on_c, 9, 35, 0
9, 44760, Note_on_c, 9, 42, 0
9, 44760, Note_on_c, 9, 57, 127
9, 44760, Note_on_c, 9, 35, 127
9, 44820, Note_on_c, 9, 57, 0
9, 44820, Note_on_c, 9, 42, 127
9, 44850, Note_on_c, 9, 35, 127
9, 44860, Note_on_c, 9, 35, 0
9, 44860, Note_on_c, 9, 36, 127
9, 44870, Note_on_c, 9, 36, 0
9, 44870, Note_on_c, 9, 35, 127
9, 44880, Note_on_c, 9, 42, 0
9, 44880, Note_on_c, 9, 35, 0
9, 44880, Note_on_c, 9, 35, 0
9, 44880, Note_on_c, 9, 57, 127
9, 44880, Note_on_c, 9, 38, 127
9, 44940, Note_on_c, 9, 57, 0
9, 44940, Note_on_c, 9, 38, 0
9, 44940, Note_on_c, 9, 57, 127
9, 44940, Note_on_c, 9, 38, 127
9, 45000, Note_on_c, 9, 57, 0
9, 45000, Note_on_c, 9, 38, 0
9, 45000, Note_on_c, 9, 57, 127
9, 45000, Note_on_c, 9, 38, 127
9, 45060, Note_on_c, 9, 57, 0
9, 45060, Note_on_c, 9, 38, 0
9, 45060, Note_on_c, 9, 42, 127
9, 45120, Note_on_c, 9, 42, 0
9, 45120, Note_on_c, 9, 42, 127
9, 45120, Note_on_c, 9, 35, 127
9, 45180, Note_on_c, 9, 42, 0
9, 45180, Note_on_c, 9, 42, 127
9, 45240, Note_on_c, 9, 35, 0
9, 45240, Note_on_c, 9, 42, 0
9, 45240, Note_on_c, 9, 38, 127
9, 45240, Note_on_c, 9, 42, 127
9, 45300, Note_on_c, 9, 38, 0
9, 45300, Note_on_c, 9, 42, 0
9, 45300, Note_on_c, 9, 42, 127
9, 45360, Note_on_c, 9, 42, 0
9, 45360, Note_on_c, 9, 42, 127
9, 45360, Note_on_c, 9, 35, 127
9, 45420, Note_on_c, 9, 42, 0
9, 45420, Note_on_c, 9, 42, 127
9, 45480, Note_on_c, 9, 35, 0
9, 45480, Note_on_c, 9, 42, 0
9, 45480, Note_on_c, 9, 42, 127
9, 45480, Note_on_c, 9, 38, 127
9, 45540, Note_on_c, 9, 42, 0
9, 45540, Note_on_c, 9, 38, 0
9, 45540, Note_on_c, 9, 42, 127
9, 45600, Note_on_c, 9, 42, 0
9, 45600, Note_on_c, 9, 42, 127
9, 45600, Note_on_c, 9, 35, 127
9, 45660, Note_on_c, 9, 42, 0
9, 45660, Note_on_c, 9, 42, 127
9, 45720, Note_on_c, 9, 35, 0
9, 45720, Note_on_c, 9, 42, 0
9, 45720, Note_on_c, 9, 42, 127
9, 45720, Note_on_c, 9, 38, 127
9, 45780, Note_on_c, 9, 42, 0
9, 45780, Note_on_c, 9, 38, 0
9, 45780, Note_on_c, 9, 42, 127
9, 45840, Note_on_c, 9, 42, 0
9, 45840, Note_on_c, 9, 42, 127
9, 45840, Note_on_c, 9, 35, 127
9, 45900, Note_on_c, 9, 42, 0
9, 45900, Note_on_c, 9, 42, 127
9, 45960, Note_on_c, 9, 35, 0
9, 45960, Note_on_c, 9, 42, 0
9, 45960, Note_on_c, 9, 57, 127
9, 45960, Note_on_c, 9, 38, 127
9, 46020, Note_on_c, 9, 57, 0
9, 46020, Note_on_c, 9, 38, 0
9, 46020, Note_on_c, 9, 57, 127
9, 46020, Note_on_c, 9, 38, 127
9, 46080, Note_on_c, 9, 57, 0
9, 46080, Note_on_c, 9, 38, 0
9, 46080, Note_on_c, 9, 42, 127
9, 46080, Note_on_c, 9, 35, 127
9, 46140, Note_on_c, 9, 42, 0
9, 46140, Note_on_c, 9, 57, 127
9, 46140, Note_on_c, 9, 38, 127
9, 46200, Note_on_c, 9, 35, 0
9, 46200, Note_on_c, 9, 57, 0
9, 46200, Note_on_c, 9, 38, 0
9, 46200, Note_on_c, 9, 57, 127
9, 46200, Note_on_c, 9, 38, 127
9, 46260, Note_on_c, 9, 57, 0
9, 46260, Note_on_c, 9, 38, 0
9, 46260, Note_on_c, 9, 42, 127
9, 46320, Note_on_c, 9, 42, 0
9, 46320, Note_on_c, 9, 57, 127
9, 46320, Note_on_c, 9, 38, 127
9, 46380, Note_on_c, 9, 57, 0
9, 46380, Note_on_c, 9, 38, 0
9, 46380, Note_on_c, 9, 57, 127
9, 46380, Note_on_c, 9, 38, 127
9, 46440, Note_on_c, 9, 57, 0
9, 46440, Note_on_c, 9, 38, 0
9, 46440, Note_on_c, 9, 42, 127
9, 46440, Note_on_c, 9, 35, 127
9, 46500, Note_on_c, 9, 42, 0
9, 46500, Note_on_c, 9, 42, 127
9, 46560, Note_on_c, 9, 35, 0
9, 46560, Note_on_c, 9, 42, 0
9, 46560, Note_on_c, 9, 38, 127
9, 46560, Note_on_c, 9, 42, 127
9, 46620, Note_on_c, 9, 38, 0
9, 46620, Note_on_c, 9, 42, 0
9, 46620, Note_on_c, 9, 42, 127
9, 46680, Note_on_c, 9, 42, 0
9, 46680, Note_on_c, 9, 42, 127
9, 46680, Note_on_c, 9, 35, 127
9, 46740, Note_on_c, 9, 42, 0
9, 46740, Note_on_c, 9, 42, 127
9, 46800, Note_on_c, 9, 35, 0
9, 46800, Note_on_c, 9, 42, 0
9, 46800, Note_on_c, 9, 38, 127
9, 46800, Note_on_c, 9, 42, 127
9, 46860, Note_on_c, 9, 38, 0
9, 46860, Note_on_c, 9, 42, 0
9, 46860, Note_on_c, 9, 42, 127
9, 46920, Note_on_c, 9, 42, 0
9, 46920, Note_on_c, 9, 42, 127
9, 46920, Note_on_c, 9, 35, 127
9, 46980, Note_on_c, 9, 42, 0
9, 46980, Note_on_c, 9, 42, 127
9, 47040, Note_on_c, 9, 35, 0
9, 47040, Note_on_c, 9, 42, 0
9, 47040, Note_on_c, 9, 57, 127
9, 47040, Note_on_c, 9, 38, 127
9, 47100, Note_on_c, 9, 57, 0
9, 47100, Note_on_c, 9, 38, 0
9, 47100, Note_on_c, 9, 42, 127
9, 47160, Note_on_c, 9, 42, 0
9, 47160, Note_on_c, 9, 42, 127
9, 47160, Note_on_c, 9, 35, 127
9, 47220, Note_on_c, 9, 42, 0
9, 47220, Note_on_c, 9, 42, 127
9, 47280, Note_on_c, 9, 35, 0
9, 47280, Note_on_c, 9, 42, 0
9, 47280, Note_on_c, 9, 57, 127
9, 47280, Note_on_c, 9, 38, 127
9, 47400, Note_on_c, 9, 57, 0
9, 47400, Note_on_c, 9, 38, 0
9, 47400, Note_on_c, 9, 42, 127
9, 47400, Note_on_c, 9, 35, 127
9, 47455, Note_on_c, 9, 38, 75
9, 47460, Note_on_c, 9, 42, 0
9, 47460, Note_on_c, 9, 38, 0
9, 47460, Note_on_c, 9, 38, 127
9, 47515, Note_on_c, 9, 38, 0
9, 47515, Note_on_c, 9, 38, 75
9, 47520, Note_on_c, 9, 35, 0
9, 47520, Note_on_c, 9, 38, 0
9, 47520, Note_on_c, 9, 38, 127
9, 47580, Note_on_c, 9, 35, 127
9, 47640, Note_on_c, 9, 38, 0
9, 47640, Note_on_c, 9, 35, 0
9, 47640, Note_on_c, 9, 38, 127
9, 47700, Note_on_c, 9, 38, 0
9, 47700, Note_on_c, 9, 38, 127
9, 47730, Note_on_c, 9, 35, 127
9, 47760, Note_on_c, 9, 38, 0
9, 47760, Note_on_c, 9, 35, 0
9, 47760, Note_on_c, 9, 57, 127
9, 47760, Note_on_c, 9, 38, 127
9, 47880, Note_on_c, 9, 57, 0
9, 47880, Note_on_c, 9, 38, 0
9, 47880, Note_on_c, 9, 42, 127
9, 47880, Note_on_c, 9, 35, 127
9, 47940, Note_on_c, 9, 42, 0
9, 47940, Note_on_c, 9, 42, 127
9, 48000, Note_on_c, 9, 35, 0
9, 48000, Note_on_c, 9, 42, 0
9, 48000, Note_on_c, 9, 57, 127
9, 48000, Note_on_c, 9, 38, 127
9, 48120, Note_on_c, 9, 57, 0
9, 48120, Note_on_c, 9, 38, 0
9, 48120, Note_on_c, 9, 42, 127
9, 48120, Note_on_c, 9, 35, 127
9, 48180, Note_on_c, 9, 42, 0
9, 48180, Note_on_c, 9, 42, 127
9, 48240, Note_on_c, 9, 35, 0
9, 48240, Note_on_c, 9, 42, 0
9, 48240, Note_on_c, 9, 57, 127
9, 48240, Note_on_c, 9, 38, 127
9, 48360, Note_on_c, 9, 57, 0
9, 48360, Note_on_c, 9, 38, 0
9, 48360, Note_on_c, 9, 42, 127
9, 48360, Note_on_c, 9, 35, 127
9, 48420, Note_on_c, 9, 42, 0
9, 48420, Note_on_c, 9, 42, 127
9, 48480, Note_on_c, 9, 35, 0
9, 48480, Note_on_c, 9, 42, 0
9, 48480, Note_on_c, 9, 57, 127
9, 48480, Note_on_c, 9, 38, 127
9, 48600, Note_on_c, 9, 57, 0
9, 48600, Note_on_c, 9, 38, 0
9, 48600, Note_on_c, 9, 42, 127
9, 48600, Note_on_c, 9, 35, 127
9, 48660, Note_on_c, 9, 42, 0
9, 48660, Note_on_c, 9, 42, 127
9, 48720, Note_on_c, 9, 35, 0
9, 48720, Note_on_c, 9, 42, 0
9, 48720, Note_on_c, 9, 57, 127
9, 48720, Note_on_c, 9, 38, 127
9, 48840, Note_on_c, 9, 57, 0
9, 48840, Note_on_c, 9, 38, 0
9, 48840, Note_on_c, 9, 42, 127
9, 48840, Note_on_c, 9, 35, 127
9, 48900, Note_on_c, 9, 42, 0
9, 48900, Note_on_c, 9, 42, 127
9, 48960, Note_on_c, 9, 35, 0
9, 48960, Note_on_c, 9, 42, 0
9, 48960, Note_on_c, 9, 57, 127
9, 48960, Note_on_c, 9, 38, 127
9, 49080, Note_on_c, 9, 57, 0
9, 49080, Note_on_c, 9, 38, 0
9, 49080, Note_on_c, 9, 42, 127
9, 49080, Note_on_c, 9, 38, 127
9, 49080, Note_on_c, 9, 35, 127
9, 49100, Note_on_c, 9, 35, 0
9, 49100, Note_on_c, 9, 36, 127
9, 49120, Note_on_c, 9, 36, 0
9, 49120, Note_on_c, 9, 35, 127
9, 49140, Note_on_c, 9, 42, 0
9, 49140, Note_on_c, 9, 38, 0
9, 49140, Note_on_c, 9, 35, 0
9, 49140, Note_on_c, 9, 42, 127
9, 49140, Note_on_c, 9, 36, 127
9, 49160, Note_on_c, 9, 36, 0
9, 49160, Note_on_c, 9, 35, 127
9, 49180, Note_on_c, 9, 35, 0
9, 49180, Note_on_c, 9, 36, 127
9, 49200, Note_on_c, 9, 42, 0
9, 49200, Note_on_c, 9, 36, 0
9, 49200, Note_on_c, 9, 38, 127
9, 49200, Note_on_c, 9, 42, 127
9, 49260, Note_on_c, 9, 38, 0
9, 49260, Note_on_c, 9, 42, 0
9, 49260, Note_on_c, 9, 42, 127
9, 49320, Note_on_c, 9, 42, 0
9, 49320, Note_on_c, 9, 42, 127
9, 49320, Note_on_c, 9, 38, 127
9, 49320, Note_on_c, 9, 35, 127
9, 49340, Note_on_c, 9, 35, 0
9, 49340, Note_on_c, 9, 36, 127
9, 49360, Note_on_c, 9, 36, 0
9, 49360, Note_on_c, 9, 35, 127
9, 49380, Note_on_c, 9, 42, 0
9, 49380, Note_on_c, 9, 38, 0
9, 49380, Note_on_c, 9, 35, 0
9, 49380, Note_on_c, 9, 42, 127
9, 49380, Note_on_c, 9, 36, 127
9, 49400, Note_on_c, 9, 36, 0
9, 49400, Note_on_c, 9, 35, 127
9, 49420, Note_on_c, 9, 35, 0
9, 49420, Note_on_c, 9, 36, 127
9, 49440, Note_on_c, 9, 42, 0
9, 49440, Note_on_c, 9, 36, 0
9, 49440, Note_on_c, 9, 42, 127
9, 49440, Note_on_c, 9, 38, 127
9, 49500, Note_on_c, 9, 42, 0
9, 49500, Note_on_c, 9, 38, 0
9, 49500, Note_on_c, 9, 42, 127
9, 49560, Note_on_c, 9, 42, 0
9, 49560, Note_on_c, 9, 42, 127
9, 49560, Note_on_c, 9, 38, 127
9, 49560, Note_on_c, 9, 35, 127
9, 49580, Note_on_c, 9, 35, 0
9, 49580, Note_on_c, 9, 36, 127
9, 49600, Note_on_c, 9, 36, 0
9, 49600, Note_on_c, 9, 35, 127
9, 49620, Note_on_c, 9, 42, 0
9, 49620, Note_on_c, 9, 38, 0
9, 49620, Note_on_c, 9, 35, 0
9, 49620, Note_on_c, 9, 42, 127
9, 49620, Note_on_c, 9, 36, 127
9, 49640, Note_on_c, 9, 36, 0
9, 49640, Note_on_c, 9, 35, 127
9, 49660, Note_on_c, 9, 35, 0
9, 49660, Note_on_c, 9, 36, 127
9, 49680, Note_on_c, 9, 42, 0
9, 49680, Note_on_c, 9, 36, 0
9, 49680, Note_on_c, 9, 38, 127
9, 49680, Note_on_c, 9, 42, 127
9, 49740, Note_on_c, 9, 38, 0
9, 49740, Note_on_c, 9, 42, 0
9, 49740, Note_on_c, 9, 42, 127
9, 49800, Note_on_c, 9, 42, 0
9, 49800, Note_on_c, 9, 42, 127
9, 49800, Note_on_c, 9, 38, 127
9, 49800, Note_on_c, 9, 35, 127
9, 49820, Note_on_c, 9, 35, 0
9, 49820, Note_on_c, 9, 36, 127
9, 49840, Note_on_c, 9, 36, 0
9, 49840, Note_on_c, 9, 35, 127
9, 49860, Note_on_c, 9, 42, 0
9, 49860, Note_on_c, 9, 38, 0
9, 49860, Note_on_c, 9, 35, 0
9, 49860, Note_on_c, 9, 42, 127
9, 49860, Note_on_c, 9, 36, 127
9, 49880, Note_on_c, 9, 36, 0
9, 49880, Note_on_c, 9, 35, 127
9, 49900, Note_on_c, 9, 35, 0
9, 49900, Note_on_c, 9, 36, 127
9, 49920, Note_on_c, 9, 42, 0
9, 49920, Note_on_c, 9, 36, 0
9, 49920, Note_on_c, 9, 38, 127
9, 49920, Note_on_c, 9, 42, 127
9, 49980, Note_on_c, 9, 38, 0
9, 49980, Note_on_c, 9, 42, 0
9, 49980, Note_on_c, 9, 42, 127
9, 50040, Note_on_c, 9, 42, 0
9, 50040, Note_on_c, 9, 42, 127
9, 50040, Note_on_c, 9, 38, 127
9, 50040, Note_on_c, 9, 35, 127
9, 50060, Note_on_c, 9, 35, 0
9, 50060, Note_on_c, 9, 36, 127
9, 50080, Note_on_c, 9, 36, 0
9, 50080, Note_on_c, 9, 35, 127
9, 50100, Note_on_c, 9, 42, 0
9, 50100, Note_on_c, 9, 38, 0
9, 50100, Note_on_c, 9, 35, 0
9, 50100, Note_on_c, 9, 42, 127
9, 50100, Note_on_c, 9, 36, 127
9, 50120, Note_on_c, 9, 36, 0
9, 50120, Note_on_c, 9, 35, 127
9, 50140, Note_on_c, 9, 35, 0
9, 50140, Note_on_c, 9, 36, 127
9, 50160, Note_on_c, 9, 42, 0
9, 50160, Note_on_c, 9, 36, 0
9, 50160, Note_on_c, 9, 42, 127
9, 50160, Note_on_c, 9, 38, 127
9, 50220, Note_on_c, 9, 42, 0
9, 50220, Note_on_c, 9, 38, 0
9, 50220, Note_on_c, 9, 42, 127
9, 50280, Note_on_c, 9, 42, 0
9, 50280, Note_on_c, 9, 42, 127
9, 50280, Note_on_c, 9, 38, 127
9, 50280, Note_on_c, 9, 35, 127
9, 50300, Note_on_c, 9, 35, 0
9, 50300, Note_on_c, 9, 36, 127
9, 50320, Note_on_c, 9, 36, 0
9, 50320, Note_on_c, 9, 35, 127
9, 50340, Note_on_c, 9, 42, 0
9, 50340, Note_on_c, 9, 38, 0
9, 50340, Note_on_c, 9, 35, 0
9, 50340, Note_on_c, 9, 42, 127
9, 50340, Note_on_c, 9, 36, 127
9, 50360, Note_on_c, 9, 36, 0
9, 50360, Note_on_c, 9, 35, 127
9, 50380, Note_on_c, 9, 35, 0
9, 50380, Note_on_c, 9, 36, 127
9, 50400, Note_on_c, 9, 42, 0
9, 50400, Note_on_c, 9, 36, 0
9, 50400, Note_on_c, 9, 38, 127
9, 50400, Note_on_c, 9, 42, 127
9, 50460, Note_on_c, 9, 38, 0
9, 50460, Note_on_c, 9, 42, 0
9, 50460, Note_on_c, 9, 42, 127
9, 50520, Note_on_c, 9, 42, 0
9, 50520, Note_on_c, 9, 57, 127
9, 50520, Note_on_c, 9, 38, 127
9, 50520, Note_on_c, 9, 35, 127
9, 50540, Note_on_c, 9, 35, 0
9, 50540, Note_on_c, 9, 36, 127
9, 50560, Note_on_c, 9, 36, 0
9, 50560, Note_on_c, 9, 35, 127
9, 50580, Note_on_c, 9, 35, 0
9, 50580, Note_on_c, 9, 36, 127
9, 50600, Note_on_c, 9, 36, 0
9, 50600, Note_on_c, 9, 35, 127
9, 50620, Note_on_c, 9, 35, 0
9, 50620, Note_on_c, 9, 36, 127
9, 50640, Note_on_c, 9, 57, 0
9, 50640, Note_on_c, 9, 38, 0
9, 50640, Note_on_c, 9, 36, 0
9, 50640, Note_on_c, 9, 38, 127
9, 50640, Note_on_c, 9, 42, 127
9, 50700, Note_on_c, 9, 38, 0
9, 50700, Note_on_c, 9, 42, 0
9, 50700, Note_on_c, 9, 42, 127
9, 50760, Note_on_c, 9, 42, 0
9, 50760, Note_on_c, 9, 42, 127
9, 50760, Note_on_c, 9, 38, 127
9, 50760, Note_on_c, 9, 35, 127
9, 50780, Note_on_c, 9, 35, 0
9, 50780, Note_on_c, 9, 36, 127
9, 50800, Note_on_c, 9, 36, 0
9, 50800, Note_on_c, 9, 35, 127
9, 50820, Note_on_c, 9, 42, 0
9, 50820, Note_on_c, 9, 38, 0
9, 50820, Note_on_c, 9, 35, 0
9, 50820, Note_on_c, 9, 42, 127
9, 50820, Note_on_c, 9, 36, 127
9, 50840, Note_on_c, 9, 36, 0
9, 50840, Note_on_c, 9, 35, 127
9, 50860, Note_on_c, 9, 35, 0
9, 50860, Note_on_c, 9, 36, 127
9, 50880, Note_on_c, 9, 42, 0
9, 50880, Note_on_c, 9, 36, 0
9, 50880, Note_on_c, 9, 42, 127
9, 50880, Note_on_c, 9, 38, 127
9, 50940, Note_on_c, 9, 42, 0
9, 50940, Note_on_c, 9, 38, 0
9, 50940, Note_on_c, 9, 42, 127
9, 51000, Note_on_c, 9, 42, 0
9, 51000, Note_on_c, 9, 57, 127
9, 51000, Note_on_c, 9, 38, 127
9, 51000, Note_on_c, 9, 35, 127
9, 51020, Note_on_c, 9, 35, 0
9, 51020, Note_on_c, 9, 36, 127
9, 51040, Note_on_c, 9, 36, 0
9, 51040, Note_on_c, 9, 35, 127
9, 51060, Note_on_c, 9, 35, 0
9, 51060, Note_on_c, 9, 36, 127
9, 51080, Note_on_c, 9, 36, 0
9, 51080, Note_on_c, 9, 35, 127
9, 51100, Note_on_c, 9, 35, 0
9, 51100, Note_on_c, 9, 36, 127
9, 51120, Note_on_c, 9, 57, 0
9, 51120, Note_on_c, 9, 38, 0
9, 51120, Note_on_c, 9, 36, 0
9, 51120, Note_on_c, 9, 38, 127
9, 51120, Note_on_c, 9, 42, 127
9, 51180, Note_on_c, 9, 38, 0
9, 51180, Note_on_c, 9, 42, 0
9, 51180, Note_on_c, 9, 42, 127
9, 51240, Note_on_c, 9, 42, 0
9, 51240, Note_on_c, 9, 42, 127
9, 51240, Note_on_c, 9, 38, 127
9, 51240, Note_on_c, 9, 35, 127
9, 51260, Note_on_c, 9, 35, 0
9, 51260, Note_on_c, 9, 36, 127
9, 51280, Note_on_c, 9, 36, 0
9, 51280, Note_on_c, 9, 35, 127
9, 51300, Note_on_c, 9, 42, 0
9, 51300, Note_on_c, 9, 38, 0
9, 51300, Note_on_c, 9, 35, 0
9, 51300, Note_on_c, 9, 42, 127
9, 51300, Note_on_c, 9, 36, 127
9, 51320, Note_on_c, 9, 36, 0
9, 51320, Note_on_c, 9, 35, 127
9, 51340, Note_on_c, 9, 35, 0
9, 51340, Note_on_c, 9, 36, 127
9, 51360, Note_on_c, 9, 42, 0
9, 51360, Note_on_c, 9, 36, 0
9, 51360, Note_on_c, 9, 38, 127
9, 51360, Note_on_c, 9, 42, 127
9, 51420, Note_on_c, 9, 38, 0
9, 51420, Note_on_c, 9, 42, 0
9, 51420, Note_on_c, 9, 42, 127
9, 51480, Note_on_c, 9, 42, 0
9, 51480, Note_on_c, 9, 57, 127
9, 51480, Note_on_c, 9, 38, 127
9, 51480, Note_on_c, 9, 35, 127
9, 51500, Note_on_c, 9, 35, 0
9, 51500, Note_on_c, 9, 36, 127
9, 51520, Note_on_c, 9, 36, 0
9, 51520, Note_on_c, 9, 35, 127
9, 51540, Note_on_c, 9, 35, 0
9, 51540, Note_on_c, 9, 36, 127
9, 51560, Note_on_c, 9, 36, 0
9, 51560, Note_on_c, 9, 35, 127
9, 51580, Note_on_c, 9, 35, 0
9, 51580, Note_on_c, 9, 36, 127
9, 51600, Note_on_c, 9, 57, 0
9, 51600, Note_on_c, 9, 38, 0
9, 51600, Note_on_c, 9, 36, 0
9, 51600, Note_on_c, 9, 42, 127
9, 51600, Note_on_c, 9, 38, 127
9, 51660, Note_on_c, 9, 42, 0
9, 51660, Note_on_c, 9, 38, 0
9, 51660, Note_on_c, 9, 42, 127
9, 51720, Note_on_c, 9, 42, 0
9, 51720, Note_on_c, 9, 42, 127
9, 51720, Note_on_c, 9, 38, 127
9, 51720, Note_on_c, 9, 35, 127
9, 51740, Note_on_c, 9, 35, 0
9, 51740, Note_on_c, 9, 36, 127
9, 51760, Note_on_c, 9, 36, 0
9, 51760, Note_on_c, 9, 35, 127
9, 51780, Note_on_c, 9, 42, 0
9, 51780, Note_on_c, 9, 38, 0
9, 51780, Note_on_c, 9, 35, 0
9, 51780, Note_on_c, 9, 42, 127
9, 51780, Note_on_c, 9, 36, 127
9, 51800, Note_on_c, 9, 36, 0
9, 51800, Note_on_c, 9, 35, 127
9, 51820, Note_on_c, 9, 35, 0
9, 51820, Note_on_c, 9, 36, 127
9, 51840, Note_on_c, 9, 42, 0
9, 51840, Note_on_c, 9, 36, 0
9, 51840, Note_on_c, 9, 38, 127
9, 51840, Note_on_c, 9, 42, 127
9, 51900, Note_on_c, 9, 38, 0
9, 51900, Note_on_c, 9, 42, 0
9, 51900, Note_on_c, 9, 42, 127
9, 51960, Note_on_c, 9, 42, 0
9, 51960, Time_signature, 4, 2, 24, 8
9, 51960, Note_on_c, 9, 57, 127
9, 51960, Note_on_c, 9, 35, 127
9, 51980, Note_on_c, 9, 35, 0
9, 51980, Note_on_c, 9, 36, 127
9, 52000, Note_on_c, 9, 36, 0
9, 52000, Note_on_c, 9, 35, 127
9, 52020, Note_on_c, 9, 35, 0
9, 52020, Note_on_c, 9, 36, 127
9, 52040, Note_on_c, 9, 36, 0
9, 52040, Note_on_c, 9, 35, 127
9, 52060, Note_on_c, 9, 35, 0
9, 52060, Note_on_c, 9, 36, 127
9, 52080, Note_on_c, 9, 57, 0
9, 52080, Note_on_c, 9, 36, 0
9, 52080, Note_on_c, 9, 38, 127
9, 52080, Note_on_c, 9, 42, 127
9, 52200, Note_on_c, 9, 38, 0
9, 52200, Note_on_c, 9, 42, 0
9, 52200, Note_on_c, 9, 42, 127
9, 52200, Note_on_c, 9, 35, 127
9, 52220, Note_on_c, 9, 35, 0
9, 52220, Note_on_c, 9, 36, 127
9, 52240, Note_on_c, 9, 36, 0
9, 52240, Note_on_c, 9, 35, 127
9, 52260, Note_on_c, 9, 35, 0
9, 52260, Note_on_c, 9, 36, 127
9, 52280, Note_on_c, 9, 36, 0
9, 52280, Note_on_c, 9, 35, 127
9, 52300, Note_on_c, 9, 35, 0
9, 52300, Note_on_c, 9, 36, 127
9, 52320, Note_on_c, 9, 42, 0
9, 52320, Note_on_c, 9, 36, 0
9, 52320, Note_on_c, 9, 38, 127
9, 52320, Note_on_c, 9, 42, 127
9, 52440, Note_on_c, 9, 38, 0
9, 52440, Note_on_c, 9, 42, 0
9, 52440, Note_on_c, 9, 42, 127
9, 52440, Note_on_c, 9, 35, 127
9, 52460, Note_on_c, 9, 35, 0
9, 52460, Note_on_c, 9, 36, 127
9, 52480, Note_on_c, 9, 36, 0
9, 52480, Note_on_c, 9, 35, 127
9, 52500, Note_on_c, 9, 35, 0
9, 52500, Note_on_c, 9, 36, 127
9, 52520, Note_on_c, 9, 36, 0
9, 52520, Note_on_c, 9, 35, 127
9, 52540, Note_on_c, 9, 35, 0
9, 52540, Note_on_c, 9, 36, 127
9, 52560, Note_on_c, 9, 42, 0
9, 52560, Note_on_c, 9, 36, 0
9, 52560, Note_on_c, 9, 38, 127
9, 52560, Note_on_c, 9, 42, 127
9, 52680, Note_on_c, 9, 38, 0
9, 52680, Note_on_c, 9, 42, 0
9, 52680, Note_on_c, 9, 42, 127
9, 52680, Note_on_c, 9, 35, 127
9, 52700, Note_on_c, 9, 35, 0
9, 52700, Note_on_c, 9, 36, 127
9, 52720, Note_on_c, 9, 36, 0
9, 52720, Note_on_c, 9, 35, 127
9, 52740, Note_on_c, 9, 35, 0
9, 52740, Note_on_c, 9, 36, 127
9, 52760, Note_on_c, 9, 36, 0
9, 52760, Note_on_c, 9, 35, 127
9, 52780, Note_on_c, 9, 35, 0
9, 52780, Note_on_c, 9, 36, 127
9, 52800, Note_on_c, 9, 42, 0
9, 52800, Note_on_c, 9, 36, 0
9, 52800, Note_on_c, 9, 38, 127
9, 52800, Note_on_c, 9, 42, 127
9, 52920, Note_on_c, 9, 38, 0
9, 52920, Note_on_c, 9, 42, 0
9, 52920, Note_on_c, 9, 57, 127
9, 52920, Note_on_c, 9, 35, 127
9, 52940, Note_on_c, 9, 35, 0
9, 52940, Note_on_c, 9, 36, 127
9, 52960, Note_on_c, 9, 36, 0
9, 52960, Note_on_c, 9, 35, 127
9, 52980, Note_on_c, 9, 35, 0
9, 52980, Note_on_c, 9, 36, 127
9, 53000, Note_on_c, 9, 36, 0
9, 53000, Note_on_c, 9, 35, 127
9, 53020, Note_on_c, 9, 35, 0
9, 53020, Note_on_c, 9, 36, 127
9, 53040, Note_on_c, 9, 57, 0
9, 53040, Note_on_c, 9, 36, 0
9, 53040, Note_on_c, 9, 38, 127
9, 53040, Note_on_c, 9, 42, 127
9, 53160, Note_on_c, 9, 38, 0
9, 53160, Note_on_c, 9, 42, 0
9, 53160, Note_on_c, 9, 42, 127
9, 53160, Note_on_c, 9, 35, 127
9, 53180, Note_on_c, 9, 35, 0
9, 53180, Note_on_c, 9, 36, 127
9, 53200, Note_on_c, 9, 36, 0
9, 53200, Note_on_c, 9, 35, 127
9, 53220, Note_on_c, 9, 35, 0
9, 53220, Note_on_c, 9, 36, 127
9, 53240, Note_on_c, 9, 36, 0
9, 53240, Note_on_c, 9, 35, 127
9, 53260, Note_on_c, 9, 35, 0
9, 53260, Note_on_c, 9, 36, 127
9, 53280, Note_on_c, 9, 42, 0
9, 53280, Note_on_c, 9, 36, 0
9, 53280, Note_on_c, 9, 38, 127
9, 53280, Note_on_c, 9, 42, 127
9, 53400, Note_on_c, 9, 38, 0
9, 53400, Note_on_c, 9, 42, 0
9, 53400, Note_on_c, 9, 42, 127
9, 53400, Note_on_c, 9, 35, 127
9, 53420, Note_on_c, 9, 35, 0
9, 53420, Note_on_c, 9, 36, 127
9, 53440, Note_on_c, 9, 36, 0
9, 53440, Note_on_c, 9, 35, 127
9, 53460, Note_on_c, 9, 35, 0
9, 53460, Note_on_c, 9, 36, 127
9, 53480, Note_on_c, 9, 36, 0
9, 53480, Note_on_c, 9, 35, 127
9, 53500, Note_on_c, 9, 35, 0
9, 53500, Note_on_c, 9, 36, 127
9, 53520, Note_on_c, 9, 42, 0
9, 53520, Note_on_c, 9, 36, 0
9, 53520, Note_on_c, 9, 38, 127
9, 53520, Note_on_c, 9, 42, 127
9, 53640, Note_on_c, 9, 38, 0
9, 53640, Note_on_c, 9, 42, 0
9, 53640, Note_on_c, 9, 42, 127
9, 53640, Note_on_c, 9, 35, 127
9, 53660, Note_on_c, 9, 35, 0
9, 53660, Note_on_c, 9, 36, 127
9, 53680, Note_on_c, 9, 36, 0
9, 53680, Note_on_c, 9, 35, 127
9, 53700, Note_on_c, 9, 35, 0
9, 53700, Note_on_c, 9, 36, 127
9, 53720, Note_on_c, 9, 36, 0
9, 53720, Note_on_c, 9, 35, 127
9, 53740, Note_on_c, 9, 35, 0
9, 53740, Note_on_c, 9, 36, 127
9, 53760, Note_on_c, 9, 42, 0
9, 53760, Note_on_c, 9, 36, 0
9, 53760, Note_on_c, 9, 38, 127
9, 53760, Note_on_c, 9, 42, 127
9, 53880, Note_on_c, 9, 38, 0
9, 53880, Note_on_c, 9, 42, 0
9, 53880, Note_on_c, 9, 42, 127
9, 53880, Note_on_c, 9, 35, 127
9, 53900, Note_on_c, 9, 35, 0
9, 53900, Note_on_c, 9, 36, 127
9, 53920, Note_on_c, 9, 36, 0
9, 53920, Note_on_c, 9, 35, 127
9, 53940, Note_on_c, 9, 35, 0
9, 53940, Note_on_c, 9, 36, 127
9, 53960, Note_on_c, 9, 36, 0
9, 53960, Note_on_c, 9, 35, 127
9, 53980, Note_on_c, 9, 35, 0
9, 53980, Note_on_c, 9, 36, 127
9, 54000, Note_on_c, 9, 42, 0
9, 54000, Note_on_c, 9, 36, 0
9, 54000, Note_on_c, 9, 38, 127
9, 54000, Note_on_c, 9, 42, 127
9, 54120, Note_on_c, 9, 38, 0
9, 54120, Note_on_c, 9, 42, 0
9, 54120, Note_on_c, 9, 42, 127
9, 54120, Note_on_c, 9, 35, 127
9, 54140, Note_on_c, 9, 35, 0
9, 54140, Note_on_c, 9, 36, 127
9, 54160, Note_on_c, 9, 36, 0
9, 54160, Note_on_c, 9, 35, 127
9, 54180, Note_on_c, 9, 35, 0
9, 54180, Note_on_c, 9, 36, 127
9, 54200, Note_on_c, 9, 36, 0
9, 54200, Note_on_c, 9, 35, 127
9, 54220, Note_on_c, 9, 35, 0
9, 54220, Note_on_c, 9, 36, 127
9, 54240, Note_on_c, 9, 42, 0
9, 54240, Note_on_c, 9, 36, 0
9, 54240, Note_on_c, 9, 38, 127
9, 54240, Note_on_c, 9, 42, 127
9, 54360, Note_on_c, 9, 38, 0
9, 54360, Note_on_c, 9, 42, 0
9, 54360, Note_on_c, 9, 42, 127
9, 54360, Note_on_c, 9, 35, 127
9, 54380, Note_on_c, 9, 35, 0
9, 54380, Note_on_c, 9, 36, 127
9, 54400, Note_on_c, 9, 36, 0
9, 54400, Note_on_c, 9, 35, 127
9, 54420, Note_on_c, 9, 35, 0
9, 54420, Note_on_c, 9, 36, 127
9, 54440, Note_on_c, 9, 36, 0
9, 54440, Note_on_c, 9, 35, 127
9, 54460, Note_on_c, 9, 35, 0
9, 54460, Note_on_c, 9, 36, 127
9, 54480, Note_on_c, 9, 42, 0
9, 54480, Note_on_c, 9, 36, 0
9, 54480, Note_on_c, 9, 38, 127
9, 54480, Note_on_c, 9, 42, 127
9, 54600, Note_on_c, 9, 38, 0
9, 54600, Note_on_c, 9, 42, 0
9, 54600, Note_on_c, 9, 42, 127
9, 54600, Note_on_c, 9, 35, 127
9, 54620, Note_on_c, 9, 35, 0
9, 54620, Note_on_c, 9, 36, 127
9, 54640, Note_on_c, 9, 36, 0
9, 54640, Note_on_c, 9, 35, 127
9, 54660, Note_on_c, 9, 35, 0
9, 54660, Note_on_c, 9, 36, 127
9, 54680, Note_on_c, 9, 36, 0
9, 54680, Note_on_c, 9, 35, 127
9, 54700, Note_on_c, 9, 35, 0
9, 54700, Note_on_c, 9, 36, 127
9, 54720, Note_on_c, 9, 42, 0
9, 54720, Note_on_c, 9, 36, 0
9, 54720, Note_on_c, 9, 38, 127
9, 54720, Note_on_c, 9, 57, 127
9, 54780, Note_on_c, 9, 38, 0
9, 54780, Note_on_c, 9, 57, 0
9, 54780, Note_on_c, 9, 38, 127
9, 54780, Note_on_c, 9, 57, 127
9, 54840, Note_on_c, 9, 38, 0
9, 54840, Note_on_c, 9, 57, 0
9, 54840, Note_on_c, 9, 42, 127
9, 54840, Note_on_c, 9, 35, 127
9, 54860, Note_on_c, 9, 35, 0
9, 54860, Note_on_c, 9, 36, 127
9, 54880, Note_on_c, 9, 36, 0
9, 54880, Note_on_c, 9, 35, 127
9, 54900, Note_on_c, 9, 35, 0
9, 54900, Note_on_c, 9, 36, 127
9, 54920, Note_on_c, 9, 36, 0
9, 54920, Note_on_c, 9, 35, 127
9, 54940, Note_on_c, 9, 35, 0
9, 54940, Note_on_c, 9, 36, 127
9, 54960, Note_on_c, 9, 42, 0
9, 54960, Note_on_c, 9, 36, 0
9, 54960, Note_on_c, 9, 38, 127
9, 54960, Note_on_c, 9, 42, 127
9, 55080, Note_on_c, 9, 38, 0
9, 55080, Note_on_c, 9, 42, 0
9, 55080, Note_on_c, 9, 42, 127
9, 55080, Note_on_c, 9, 35, 127
9, 55100, Note_on_c, 9, 35, 0
9, 55100, Note_on_c, 9, 36, 127
9, 55120, Note_on_c, 9, 36, 0
9, 55120, Note_on_c, 9, 35, 127
9, 55140, Note_on_c, 9, 35, 0
9, 55140, Note_on_c, 9, 36, 127
9, 55160, Note_on_c, 9, 36, 0
9, 55160, Note_on_c, 9, 35, 127
9, 55180, Note_on_c, 9, 35, 0
9, 55180, Note_on_c, 9, 36, 127
9, 55200, Note_on_c, 9, 42, 0
9, 55200, Note_on_c, 9, 36, 0
9, 55200, Note_on_c, 9, 38, 127
9, 55200, Note_on_c, 9, 42, 127
9, 55320, Note_on_c, 9, 38, 0
9, 55320, Note_on_c, 9, 42, 0
9, 55320, Note_on_c, 9, 42, 127
9, 55320, Note_on_c, 9, 35, 127
9, 55340, Note_on_c, 9, 35, 0
9, 55340, Note_on_c, 9, 36, 127
9, 55360, Note_on_c, 9, 36, 0
9, 55360, Note_on_c, 9, 35, 127
9, 55380, Note_on_c, 9, 35, 0
9, 55380, Note_on_c, 9, 36, 127
9, 55400, Note_on_c, 9, 36, 0
9, 55400, Note_on_c, 9, 35, 127
9, 55420, Note_on_c, 9, 35, 0
9, 55420, Note_on_c, 9, 36, 127
9, 55440, Note_on_c, 9, 42, 0
9, 55440, Note_on_c, 9, 36, 0
9, 55440, Note_on_c, 9, 38, 127
9, 55440, Note_on_c, 9, 42, 127
9, 55560, Note_on_c, 9, 38, 0
9, 55560, Note_on_c, 9, 42, 0
9, 55560, Note_on_c, 9, 42, 127
9, 55560, Note_on_c, 9, 35, 127
9, 55580, Note_on_c, 9, 35, 0
9, 55580, Note_on_c, 9, 36, 127
9, 55600, Note_on_c, 9, 36, 0
9, 55600, Note_on_c, 9, 35, 127
9, 55620, Note_on_c, 9, 35, 0
9, 55620, Note_on_c, 9, 36, 127
9, 55640, Note_on_c, 9, 36, 0
9, 55640, Note_on_c, 9, 35, 127
9, 55660, Note_on_c, 9, 35, 0
9, 55660, Note_on_c, 9, 36, 127
9, 55680, Note_on_c, 9, 42, 0
9, 55680, Note_on_c, 9, 36, 0
9, 55680, Note_on_c, 9, 38, 127
9, 55680, Note_on_c, 9, 57, 127
9, 55740, Note_on_c, 9, 38, 0
9, 55740, Note_on_c, 9, 57, 0
9, 55740, Note_on_c, 9, 38, 127
9, 55740, Note_on_c, 9, 57, 127
9, 55800, Note_on_c, 9, 38, 0
9, 55800, Note_on_c, 9, 57, 0
9, 55800, Note_on_c, 9, 42, 127
9, 55800, Note_on_c, 9, 35, 127
9, 55820, Note_on_c, 9, 35, 0
9, 55820, Note_on_c, 9, 36, 127
9, 55840, Note_on_c, 9, 36, 0
9, 55840, Note_on_c, 9, 35, 127
9, 55860, Note_on_c, 9, 35, 0
9, 55860, Note_on_c, 9, 36, 127
9, 55880, Note_on_c, 9, 36, 0
9, 55880, Note_on_c, 9, 35, 127
9, 55900, Note_on_c, 9, 35, 0
9, 55900, Note_on_c, 9, 36, 127
9, 55920, Note_on_c, 9, 42, 0
9, 55920, Note_on_c, 9, 36, 0
9, 55920, Note_on_c, 9, 38, 127
9, 55920, Note_on_c, 9, 42, 127
9, 56040, Note_on_c, 9, 38, 0
9, 56040, Note_on_c, 9, 42, 0
9, 56040, Note_on_c, 9, 42, 127
9, 56040, Note_on_c, 9, 35, 127
9, 56060, Note_on_c, 9, 35, 0
9, 56060, Note_on_c, 9, 36, 127
9, 56080, Note_on_c, 9, 36, 0
9, 56080, Note_on_c, 9, 35, 127
9, 56100, Note_on_c, 9, 35, 0
9, 56100, Note_on_c, 9, 36, 127
9, 56120, Note_on_c, 9, 36, 0
9, 56120, Note_on_c, 9, 35, 127
9, 56140, Note_on_c, 9, 35, 0
9, 56140, Note_on_c, 9, 36, 127
9, 56160, Note_on_c, 9, 42, 0
9, 56160, Note_on_c, 9, 36, 0
9, 56160, Note_on_c, 9, 38, 127
9, 56160, Note_on_c, 9, 42, 127
9, 56280, Note_on_c, 9, 38, 0
9, 56280, Note_on_c, 9, 42, 0
9, 56280, Note_on_c, 9, 42, 127
9, 56280, Note_on_c, 9, 35, 127
9, 56300, Note_on_c, 9, 35, 0
9, 56300, Note_on_c, 9, 36, 127
9, 56320, Note_on_c, 9, 36, 0
9, 56320, Note_on_c, 9, 35, 127
9, 56340, Note_on_c, 9, 35, 0
9, 56340, Note_on_c, 9, 36, 127
9, 56360, Note_on_c, 9, 36, 0
9, 56360, Note_on_c, 9, 35, 127
9, 56380, Note_on_c, 9, 35, 0
9, 56380, Note_on_c, 9, 36, 127
9, 56400, Note_on_c, 9, 42, 0
9, 56400, Note_on_c, 9, 36, 0
9, 56400, Note_on_c, 9, 38, 127
9, 56400, Note_on_c, 9, 42, 127
9, 56520, Note_on_c, 9, 38, 0
9, 56520, Note_on_c, 9, 42, 0
9, 56520, Note_on_c, 9, 42, 127
9, 56520, Note_on_c, 9, 35, 127
9, 56540, Note_on_c, 9, 35, 0
9, 56540, Note_on_c, 9, 36, 127
9, 56560, Note_on_c, 9, 36, 0
9, 56560, Note_on_c, 9, 35, 127
9, 56580, Note_on_c, 9, 35, 0
9, 56580, Note_on_c, 9, 36, 127
9, 56600, Note_on_c, 9, 36, 0
9, 56600, Note_on_c, 9, 35, 127
9, 56620, Note_on_c, 9, 35, 0
9, 56620, Note_on_c, 9, 36, 127
9, 56640, Note_on_c, 9, 42, 0
9, 56640, Note_on_c, 9, 36, 0
9, 56640, Note_on_c, 9, 38, 127
9, 56640, Note_on_c, 9, 57, 127
9, 56700, Note_on_c, 9, 38, 0
9, 56700, Note_on_c, 9, 57, 0
9, 56700, Note_on_c, 9, 38, 127
9, 56700, Note_on_c, 9, 57, 127
9, 56760, Note_on_c, 9, 38, 0
9, 56760, Note_on_c, 9, 57, 0
9, 56760, Note_on_c, 9, 42, 127
9, 56760, Note_on_c, 9, 35, 127
9, 56780, Note_on_c, 9, 35, 0
9, 56780, Note_on_c, 9, 36, 127
9, 56800, Note_on_c, 9, 36, 0
9, 56800, Note_on_c, 9, 35, 127
9, 56820, Note_on_c, 9, 35, 0
9, 56820, Note_on_c, 9, 36, 127
9, 56840, Note_on_c, 9, 36, 0
9, 56840, Note_on_c, 9, 35, 127
9, 56860, Note_on_c, 9, 35, 0
9, 56860, Note_on_c, 9, 36, 127
9, 56880, Note_on_c, 9, 42, 0
9, 56880, Note_on_c, 9, 36, 0
9, 56880, Note_on_c, 9, 38, 127
9, 56880, Note_on_c, 9, 42, 127
9, 57000, Note_on_c, 9, 38, 0
9, 57000, Note_on_c, 9, 42, 0
9, 57000, Note_on_c, 9, 42, 127
9, 57000, Note_on_c, 9, 35, 127
9, 57020, Note_on_c, 9, 35, 0
9, 57020, Note_on_c, 9, 36, 127
9, 57040, Note_on_c, 9, 36, 0
9, 57040, Note_on_c, 9, 35, 127
9, 57060, Note_on_c, 9, 35, 0
9, 57060, Note_on_c, 9, 36, 127
9, 57080, Note_on_c, 9, 36, 0
9, 57080, Note_on_c, 9, 35, 127
9, 57100, Note_on_c, 9, 35, 0
9, 57100, Note_on_c, 9, 36, 127
9, 57120, Note_on_c, 9, 42, 0
9, 57120, Note_on_c, 9, 36, 0
9, 57120, Note_on_c, 9, 38, 127
9, 57120, Note_on_c, 9, 42, 127
9, 57240, Note_on_c, 9, 38, 0
9, 57240, Note_on_c, 9, 42, 0
9, 57240, Note_on_c, 9, 42, 127
9, 57240, Note_on_c, 9, 35, 127
9, 57260, Note_on_c, 9, 35, 0
9, 57260, Note_on_c, 9, 36, 127
9, 57280, Note_on_c, 9, 36, 0
9, 57280, Note_on_c, 9, 35, 127
9, 57300, Note_on_c, 9, 35, 0
9, 57300, Note_on_c, 9, 36, 127
9, 57320, Note_on_c, 9, 36, 0
9, 57320, Note_on_c, 9, 35, 127
9, 57340, Note_on_c, 9, 35, 0
9, 57340, Note_on_c, 9, 36, 127
9, 57360, Note_on_c, 9, 42, 0
9, 57360, Note_on_c, 9, 36, 0
9, 57360, Note_on_c, 9, 38, 127
9, 57360, Note_on_c, 9, 42, 127
9, 57480, Note_on_c, 9, 38, 0
9, 57480, Note_on_c, 9, 42, 0
9, 57480, Note_on_c, 9, 42, 127
9, 57480, Note_on_c, 9, 35, 127
9, 57500, Note_on_c, 9, 35, 0
9, 57500, Note_on_c, 9, 36, 127
9, 57520, Note_on_c, 9, 36, 0
9, 57520, Note_on_c, 9, 35, 127
9, 57540, Note_on_c, 9, 35, 0
9, 57540, Note_on_c, 9, 36, 127
9, 57560, Note_on_c, 9, 36, 0
9, 57560, Note_on_c, 9, 35, 127
9, 57580, Note_on_c, 9, 35, 0
9, 57580, Note_on_c, 9, 36, 127
9, 57600, Note_on_c, 9, 42, 0
9, 57600, Note_on_c, 9, 36, 0
9, 57600, Note_on_c, 9, 38, 127
9, 57600, Note_on_c, 9, 57, 127
9, 57660, Note_on_c, 9, 38, 0
9, 57660, Note_on_c, 9, 57, 0
9, 57660, Note_on_c, 9, 38, 127
9, 57660, Note_on_c, 9, 57, 127
9, 57720, Note_on_c, 9, 38, 0
9, 57720, Note_on_c, 9, 57, 0
9, 57720, Note_on_c, 9, 42, 127
9, 57720, Note_on_c, 9, 35, 127
9, 57740, Note_on_c, 9, 35, 0
9, 57740, Note_on_c, 9, 36, 127
9, 57760, Note_on_c, 9, 36, 0
9, 57760, Note_on_c, 9, 35, 127
9, 57780, Note_on_c, 9, 35, 0
9, 57780, Note_on_c, 9, 36, 127
9, 57800, Note_on_c, 9, 36, 0
9, 57800, Note_on_c, 9, 35, 127
9, 57820, Note_on_c, 9, 35, 0
9, 57820, Note_on_c, 9, 36, 127
9, 57840, Note_on_c, 9, 42, 0
9, 57840, Note_on_c, 9, 36, 0
9, 57840, Note_on_c, 9, 38, 127
9, 57840, Note_on_c, 9, 42, 127
9, 57960, Note_on_c, 9, 38, 0
9, 57960, Note_on_c, 9, 42, 0
9, 57960, Note_on_c, 9, 42, 127
9, 57960, Note_on_c, 9, 35, 127
9, 57980, Note_on_c, 9, 35, 0
9, 57980, Note_on_c, 9, 36, 127
9, 58000, Note_on_c, 9, 36, 0
9, 58000, Note_on_c, 9, 35, 127
9, 58020, Note_on_c, 9, 35, 0
9, 58020, Note_on_c, 9, 36, 127
9, 58040, Note_on_c, 9, 36, 0
9, 58040, Note_on_c, 9, 35, 127
9, 58060, Note_on_c, 9, 35, 0
9, 58060, Note_on_c, 9, 36, 127
9, 58080, Note_on_c, 9, 42, 0
9, 58080, Note_on_c, 9, 36, 0
9, 58080, Note_on_c, 9, 38, 127
9, 58080, Note_on_c, 9, 42, 127
9, 58200, Note_on_c, 9, 38, 0
9, 58200, Note_on_c, 9, 42, 0
9, 58200, Note_on_c, 9, 42, 127
9, 58200, Note_on_c, 9, 35, 127
9, 58220, Note_on_c, 9, 35, 0
9, 58220, Note_on_c, 9, 36, 127
9, 58240, Note_on_c, 9, 36, 0
9, 58240, Note_on_c, 9, 35, 127
9, 58260, Note_on_c, 9, 35, 0
9, 58260, Note_on_c, 9, 36, 127
9, 58280, Note_on_c, 9, 36, 0
9, 58280, Note_on_c, 9, 35, 127
9, 58300, Note_on_c, 9, 35, 0
9, 58300, Note_on_c, 9, 36, 127
9, 58320, Note_on_c, 9, 42, 0
9, 58320, Note_on_c, 9, 36, 0
9, 58320, Note_on_c, 9, 38, 127
9, 58320, Note_on_c, 9, 42, 127
9, 58440, Note_on_c, 9, 38, 0
9, 58440, Note_on_c, 9, 42, 0
9, 58440, Note_on_c, 9, 42, 127
9, 58440, Note_on_c, 9, 35, 127
9, 58460, Note_on_c, 9, 35, 0
9, 58460, Note_on_c, 9, 36, 127
9, 58480, Note_on_c, 9, 36, 0
9, 58480, Note_on_c, 9, 35, 127
9, 58500, Note_on_c, 9, 35, 0
9, 58500, Note_on_c, 9, 36, 127
9, 58520, Note_on_c, 9, 36, 0
9, 58520, Note_on_c, 9, 35, 127
9, 58540, Note_on_c, 9, 35, 0
9, 58540, Note_on_c, 9, 36, 127
9, 58560, Note_on_c, 9, 42, 0
9, 58560, Note_on_c, 9, 36, 0
9, 58560, Note_on_c, 9, 38, 127
9, 58560, Note_on_c, 9, 57, 127
9, 58620, Note_on_c, 9, 38, 0
9, 58620, Note_on_c, 9, 57, 0
9, 58620, Note_on_c, 9, 38, 127
9, 58620, Note_on_c, 9, 57, 127
9, 58680, Note_on_c, 9, 38, 0
9, 58680, Note_on_c, 9, 57, 0
9, 58680, Note_on_c, 9, 42, 127
9, 58680, Note_on_c, 9, 35, 127
9, 58700, Note_on_c, 9, 35, 0
9, 58700, Note_on_c, 9, 36, 127
9, 58720, Note_on_c, 9, 36, 0
9, 58720, Note_on_c, 9, 35, 127
9, 58740, Note_on_c, 9, 35, 0
9, 58740, Note_on_c, 9, 36, 127
9, 58760, Note_on_c, 9, 36, 0
9, 58760, Note_on_c, 9, 35, 127
9, 58780, Note_on_c, 9, 35, 0
9, 58780, Note_on_c, 9, 36, 127
9, 58800, Note_on_c, 9, 42, 0
9, 58800, Note_on_c, 9, 36, 0
9, 58800, Note_on_c, 9, 57, 127
9, 58800, Note_on_c, 9, 38, 127
9, 58920, Note_on_c, 9, 57, 0
9, 58920, Note_on_c, 9, 38, 0
9, 58920, Note_on_c, 9, 42, 127
9, 58920, Note_on_c, 9, 35, 127
9, 58940, Note_on_c, 9, 35, 0
9, 58940, Note_on_c, 9, 36, 127
9, 58960, Note_on_c, 9, 36, 0
9, 58960, Note_on_c, 9, 35, 127
9, 58980, Note_on_c, 9, 35, 0
9, 58980, Note_on_c, 9, 36, 127
9, 59000, Note_on_c, 9, 36, 0
9, 59000, Note_on_c, 9, 35, 127
9, 59020, Note_on_c, 9, 35, 0
9, 59020, Note_on_c, 9, 36, 127
9, 59040, Note_on_c, 9, 42, 0
9, 59040, Note_on_c, 9, 36, 0
9, 59040, Note_on_c, 9, 57, 127
9, 59040, Note_on_c, 9, 38, 127
9, 59160, Note_on_c, 9, 57, 0
9, 59160, Note_on_c, 9, 38, 0
9, 59160, Note_on_c, 9, 42, 127
9, 59160, Note_on_c, 9, 35, 127
9, 59180, Note_on_c, 9, 35, 0
9, 59180, Note_on_c, 9, 36, 127
9, 59200, Note_on_c, 9, 36, 0
9, 59200, Note_on_c, 9, 35, 127
9, 59220, Note_on_c, 9, 35, 0
9, 59220, Note_on_c, 9, 36, 127
9, 59240, Note_on_c, 9, 36, 0
9, 59240, Note_on_c, 9, 35, 127
9, 59260, Note_on_c, 9, 35, 0
9, 59260, Note_on_c, 9, 36, 127
9, 59280, Note_on_c, 9, 42, 0
9, 59280, Note_on_c, 9, 36, 0
9, 59280, Note_on_c, 9, 57, 127
9, 59280, Note_on_c, 9, 38, 127
9, 59400, Note_on_c, 9, 57, 0
9, 59400, Note_on_c, 9, 38, 0
9, 59400, Note_on_c, 9, 42, 127
9, 59400, Note_on_c, 9, 35, 127
9, 59420, Note_on_c, 9, 35, 0
9, 59420, Note_on_c, 9, 36, 127
9, 59440, Note_on_c, 9, 36, 0
9, 59440, Note_on_c, 9, 35, 127
9, 59460, Note_on_c, 9, 35, 0
9, 59460, Note_on_c, 9, 36, 127
9, 59480, Note_on_c, 9, 36, 0
9, 59480, Note_on_c, 9, 35, 127
9, 59500, Note_on_c, 9, 35, 0
9, 59500, Note_on_c, 9, 36, 127
9, 59520, Note_on_c, 9, 42, 0
9, 59520, Note_on_c, 9, 36, 0
9, 59520, Note_on_c, 9, 38, 127
9, 59520, Note_on_c, 9, 57, 127
9, 59580, Note_on_c, 9, 38, 0
9, 59580, Note_on_c, 9, 57, 0
9, 59580, Note_on_c, 9, 38, 127
9, 59580, Note_on_c, 9, 57, 127
9, 59640, Note_on_c, 9, 38, 0
9, 59640, Note_on_c, 9, 57, 0
9, 59640, Note_on_c, 9, 42, 127
9, 59640, Note_on_c, 9, 35, 127
9, 59660, Note_on_c, 9, 35, 0
9, 59660, Note_on_c, 9, 36, 127
9, 59680, Note_on_c, 9, 36, 0
9, 59680, Note_on_c, 9, 35, 127
9, 59700, Note_on_c, 9, 35, 0
9, 59700, Note_on_c, 9, 36, 127
9, 59720, Note_on_c, 9, 36, 0
9, 59720, Note_on_c, 9, 35, 127
9, 59740, Note_on_c, 9, 35, 0
9, 59740, Note_on_c, 9, 36, 127
9, 59760, Note_on_c, 9, 42, 0
9, 59760, Note_on_c, 9, 36, 0
9, 59760, Note_on_c, 9, 57, 127
9, 59760, Note_on_c, 9, 38, 127
9, 59880, Note_on_c, 9, 57, 0
9, 59880, Note_on_c, 9, 38, 0
9, 59880, Note_on_c, 9, 42, 127
9, 59880, Note_on_c, 9, 35, 127
9, 59900, Note_on_c, 9, 35, 0
9, 59900, Note_on_c, 9, 36, 127
9, 59920, Note_on_c, 9, 36, 0
9, 59920, Note_on_c, 9, 35, 127
9, 59940, Note_on_c, 9, 35, 0
9, 59940, Note_on_c, 9, 36, 127
9, 59960, Note_on_c, 9, 36, 0
9, 59960, Note_on_c, 9, 35, 127
9, 59980, Note_on_c, 9, 35, 0
9, 59980, Note_on_c, 9, 36, 127
9, 60000, Note_on_c, 9, 42, 0
9, 60000, Note_on_c, 9, 36, 0
9, 60000, Note_on_c, 9, 57, 127
9, 60000, Note_on_c, 9, 38, 127
9, 60120, Note_on_c, 9, 57, 0
9, 60120, Note_on_c, 9, 38, 0
9, 60120, Note_on_c, 9, 42, 127
9, 60120, Note_on_c, 9, 35, 127
9, 60140, Note_on_c, 9, 35, 0
9, 60140, Note_on_c, 9, 36, 127
9, 60160, Note_on_c, 9, 36, 0
9, 60160, Note_on_c, 9, 35, 127
9, 60180, Note_on_c, 9, 35, 0
9, 60180, Note_on_c, 9, 36, 127
9, 60200, Note_on_c, 9, 36, 0
9, 60200, Note_on_c, 9, 35, 127
9, 60220, Note_on_c, 9, 35, 0
9, 60220, Note_on_c, 9, 36, 127
9, 60240, Note_on_c, 9, 42, 0
9, 60240, Note_on_c, 9, 36, 0
9, 60240, Note_on_c, 9, 57, 127
9, 60240, Note_on_c, 9, 38, 127
9, 60360, Note_on_c, 9, 57, 0
9, 60360, Note_on_c, 9, 38, 0
9, 60360, Note_on_c, 9, 42, 127
9, 60360, Note_on_c, 9, 35, 127
9, 60380, Note_on_c, 9, 35, 0
9, 60380, Note_on_c, 9, 36, 127
9, 60400, Note_on_c, 9, 36, 0
9, 60400, Note_on_c, 9, 35, 127
9, 60420, Note_on_c, 9, 35, 0
9, 60420, Note_on_c, 9, 36, 127
9, 60440, Note_on_c, 9, 36, 0
9, 60440, Note_on_c, 9, 35, 127
9, 60460, Note_on_c, 9, 35, 0
9, 60460, Note_on_c, 9, 36, 127
9, 60480, Note_on_c, 9, 42, 0
9, 60480, Note_on_c, 9, 36, 0
9, 60480, Note_on_c, 9, 38, 127
9, 60480, Note_on_c, 9, 57, 127
9, 60540, Note_on_c, 9, 38, 0
9, 60540, Note_on_c, 9, 57, 0
9, 60540, Note_on_c, 9, 38, 127
9, 60540, Note_on_c, 9, 57, 127
9, 60600, Note_on_c, 9, 38, 0
9, 60600, Note_on_c, 9, 57, 0
9, 60600, Note_on_c, 9, 42, 127
9, 60600, Note_on_c, 9, 35, 127
9, 60620, Note_on_c, 9, 35, 0
9, 60620, Note_on_c, 9, 36, 127
9, 60640, Note_on_c, 9, 36, 0
9, 60640, Note_on_c, 9, 35, 127
9, 60660, Note_on_c, 9, 35, 0
9, 60660, Note_on_c, 9, 36, 127
9, 60680, Note_on_c, 9, 36, 0
9, 60680, Note_on_c, 9, 35, 127
9, 60700, Note_on_c, 9, 35, 0
9, 60700, Note_on_c, 9, 36, 127
9, 60720, Note_on_c, 9, 42, 0
9, 60720, Note_on_c, 9, 36, 0
9, 60720, Note_on_c, 9, 38, 127
9, 60720, Note_on_c, 9, 42, 127
9, 60840, Note_on_c, 9, 38, 0
9, 60840, Note_on_c, 9, 42, 0
9, 60840, Note_on_c, 9, 42, 127
9, 60840, Note_on_c, 9, 35, 127
9, 60860, Note_on_c, 9, 35, 0
9, 60860, Note_on_c, 9, 36, 127
9, 60880, Note_on_c, 9, 36, 0
9, 60880, Note_on_c, 9, 35, 127
9, 60900, Note_on_c, 9, 35, 0
9, 60900, Note_on_c, 9, 36, 127
9, 60920, Note_on_c, 9, 36, 0
9, 60920, Note_on_c, 9, 35, 127
9, 60940, Note_on_c, 9, 35, 0
9, 60940, Note_on_c, 9, 36, 127
9, 60960, Note_on_c, 9, 42, 0
9, 60960, Note_on_c, 9, 36, 0
9, 60960, Note_on_c, 9, 38, 127
9, 60960, Note_on_c, 9, 42, 127
9, 61080, Note_on_c, 9, 38, 0
9, 61080, Note_on_c, 9, 42, 0
9, 61080, Note_on_c, 9, 42, 127
9, 61080, Note_on_c, 9, 35, 127
9, 61100, Note_on_c, 9, 35, 0
9, 61100, Note_on_c, 9, 36, 127
9, 61120, Note_on_c, 9, 36, 0
9, 61120, Note_on_c, 9, 35, 127
9, 61140, Note_on_c, 9, 35, 0
9, 61140, Note_on_c, 9, 36, 127
9, 61160, Note_on_c, 9, 36, 0
9, 61160, Note_on_c, 9, 35, 127
9, 61180, Note_on_c, 9, 35, 0
9, 61180, Note_on_c, 9, 36, 127
9, 61200, Note_on_c, 9, 42, 0
9, 61200, Note_on_c, 9, 36, 0
9, 61200, Note_on_c, 9, 38, 127
9, 61200, Note_on_c, 9, 42, 127
9, 61320, Note_on_c, 9, 38, 0
9, 61320, Note_on_c, 9, 42, 0
9, 61320, Note_on_c, 9, 42, 127
9, 61320, Note_on_c, 9, 35, 127
9, 61340, Note_on_c, 9, 35, 0
9, 61340, Note_on_c, 9, 36, 127
9, 61360, Note_on_c, 9, 36, 0
9, 61360, Note_on_c, 9, 35, 127
9, 61380, Note_on_c, 9, 35, 0
9, 61380, Note_on_c, 9, 36, 127
9, 61400, Note_on_c, 9, 36, 0
9, 61400, Note_on_c, 9, 35, 127
9, 61420, Note_on_c, 9, 35, 0
9, 61420, Note_on_c, 9, 36, 127
9, 61440, Note_on_c, 9, 42, 0
9, 61440, Note_on_c, 9, 36, 0
9, 61440, Note_on_c, 9, 38, 127
9, 61440, Note_on_c, 9, 57, 127
9, 61500, Note_on_c, 9, 38, 0
9, 61500, Note_on_c, 9, 57, 0
9, 61500, Note_on_c, 9, 38, 127
9, 61500, Note_on_c, 9, 57, 127
9, 61560, Note_on_c, 9, 38, 0
9, 61560, Note_on_c, 9, 57, 0
9, 61560, Note_on_c, 9, 42, 127
9, 61560, Note_on_c, 9, 35, 127
9, 61580, Note_on_c, 9, 35, 0
9, 61580, Note_on_c, 9, 36, 127
9, 61600, Note_on_c, 9, 36, 0
9, 61600, Note_on_c, 9, 35, 127
9, 61620, Note_on_c, 9, 35, 0
9, 61620, Note_on_c, 9, 36, 127
9, 61640, Note_on_c, 9, 36, 0
9, 61640, Note_on_c, 9, 35, 127
9, 61660, Note_on_c, 9, 35, 0
9, 61660, Note_on_c, 9, 36, 127
9, 61680, Note_on_c, 9, 42, 0
9, 61680, Note_on_c, 9, 36, 0
9, 61680, Note_on_c, 9, 38, 127
9, 61680, Note_on_c, 9, 42, 127
9, 61800, Note_on_c, 9, 38, 0
9, 61800, Note_on_c, 9, 42, 0
9, 61800, Note_on_c, 9, 42, 127
9, 61800, Note_on_c, 9, 35, 127
9, 61820, Note_on_c, 9, 35, 0
9, 61820, Note_on_c, 9, 36, 127
9, 61840, Note_on_c, 9, 36, 0
9, 61840, Note_on_c, 9, 35, 127
9, 61860, Note_on_c, 9, 35, 0
9, 61860, Note_on_c, 9, 36, 127
9, 61880, Note_on_c, 9, 36, 0
9, 61880, Note_on_c, 9, 35, 127
9, 61900, Note_on_c, 9, 35, 0
9, 61900, Note_on_c, 9, 36, 127
9, 61920, Note_on_c, 9, 42, 0
9, 61920, Note_on_c, 9, 36, 0
9, 61920, Note_on_c, 9, 38, 127
9, 61920, Note_on_c, 9, 42, 127
9, 62040, Note_on_c, 9, 38, 0
9, 62040, Note_on_c, 9, 42, 0
9, 62040, Note_on_c, 9, 42, 127
9, 62040, Note_on_c, 9, 35, 127
9, 62060, Note_on_c, 9, 35, 0
9, 62060, Note_on_c, 9, 36, 127
9, 62080, Note_on_c, 9, 36, 0
9, 62080, Note_on_c, 9, 35, 127
9, 62100, Note_on_c, 9, 35, 0
9, 62100, Note_on_c, 9, 36, 127
9, 62120, Note_on_c, 9, 36, 0
9, 62120, Note_on_c, 9, 35, 127
9, 62140, Note_on_c, 9, 35, 0
9, 62140, Note_on_c, 9, 36, 127
9, 62160, Note_on_c, 9, 42, 0
9, 62160, Note_on_c, 9, 36, 0
9, 62160, Note_on_c, 9, 38, 127
9, 62160, Note_on_c, 9, 42, 127
9, 62280, Note_on_c, 9, 38, 0
9, 62280, Note_on_c, 9, 42, 0
9, 62280, Note_on_c, 9, 35, 127
9, 62280, Note_on_c, 9, 42, 127
9, 62340, Note_on_c, 9, 42, 0
9, 62340, Note_on_c, 9, 38, 127
9, 62340, Note_on_c, 9, 57, 127
9, 62400, Note_on_c, 9, 35, 0
9, 62400, Note_on_c, 9, 38, 0
9, 62400, Note_on_c, 9, 57, 0
9, 62400, Note_on_c, 9, 35, 127
9, 62400, Note_on_c, 9, 42, 127
9, 62430, Note_on_c, 9, 35, 0
9, 62430, Note_on_c, 9, 35, 127
9, 62460, Note_on_c, 9, 42, 0
9, 62460, Note_on_c, 9, 35, 0
9, 62460, Note_on_c, 9, 57, 127
9, 62460, Note_on_c, 9, 38, 127
9, 62520, Note_on_c, 9, 57, 0
9, 62520, Note_on_c, 9, 38, 0
9, 62520, Note_on_c, 9, 35, 127
9, 62520, Note_on_c, 9, 57, 127
9, 62640, Note_on_c, 9, 35, 0
9, 62640, Note_on_c, 9, 57, 0
9, 62640, Note_on_c, 9, 42, 127
9, 62640, Note_on_c, 9, 38, 127
9, 62760, Note_on_c, 9, 42, 0
9, 62760, Note_on_c, 9, 38, 0
9, 62760, Note_on_c, 9, 35, 127
9, 62760, Note_on_c, 9, 42, 127
9, 62880, Note_on_c, 9, 35, 0
9, 62880, Note_on_c, 9, 42, 0
9, 62880, Note_on_c, 9, 42, 127
9, 62880, Note_on_c, 9, 38, 127
9, 62940, Note_on_c, 9, 35, 127
9, 63000, Note_on_c, 9, 42, 0
9, 63000, Note_on_c, 9, 38, 0
9, 63000, Note_on_c, 9, 35, 0
9, 63000, Note_on_c, 9, 42, 127
9, 63060, Note_on_c, 9, 35, 127
9, 63120, Note_on_c, 9, 42, 0
9, 63120, Note_on_c, 9, 35, 0
9, 63120, Note_on_c, 9, 38, 127
9, 63120, Note_on_c, 9, 42, 127
9, 63180, Note_on_c, 9, 35, 127
9, 63240, Note_on_c, 9, 38, 0
9, 63240, Note_on_c, 9, 42, 0
9, 63240, Note_on_c, 9, 35, 0
9, 63240, Note_on_c, 9, 42, 127
9, 63300, Note_on_c, 9, 35, 127
9, 63320, Note_on_c, 9, 35, 0
9, 63320, Note_on_c, 9, 36, 127
9, 63340, Note_on_c, 9, 36, 0
9, 63340, Note_on_c, 9, 35, 127
9, 63360, Note_on_c, 9, 42, 0
9, 63360, Note_on_c, 9, 35, 0
9, 63360, Note_on_c, 9, 57, 127
9, 63360, Note_on_c, 9, 38, 127
9, 63480, Note_on_c, 9, 57, 0
9, 63480, Note_on_c, 9, 38, 0
9, 63480, Note_on_c, 9, 42, 127
9, 63480, Note_on_c, 9, 35, 127
9, 63600, Note_on_c, 9, 42, 0
9, 63600, Note_on_c, 9, 35, 0
9, 63600, Note_on_c, 9, 38, 127
9, 63600, Note_on_c, 9, 42, 127
9, 63720, Note_on_c, 9, 38, 0
9, 63720, Note_on_c, 9, 42, 0
9, 63720, Note_on_c, 9, 42, 127
9, 63780, Note_on_c, 9, 35, 127
9, 63840, Note_on_c, 9, 42, 0
9, 63840, Note_on_c, 9, 35, 0
9, 63840, Note_on_c, 9, 38, 127
9, 63840, Note_on_c, 9, 42, 127
9, 63900, Note_on_c, 9, 35, 127
9, 63960, Note_on_c, 9, 38, 0
9, 63960, Note_on_c, 9, 42, 0
9, 63960, Note_on_c, 9, 35, 0
9, 63960, Note_on_c, 9, 42, 127
9, 64020, Note_on_c, 9, 35, 127
9, 64080, Note_on_c, 9, 42, 0
9, 64080, Note_on_c, 9, 35, 0
9, 64080, Note_on_c, 9, 38, 127
9, 64080, Note_on_c, 9, 42, 127
9, 64140, Note_on_c, 9, 35, 127
9, 64200, Note_on_c, 9, 38, 0
9, 64200, Note_on_c, 9, 42, 0
9, 64200, Note_on_c, 9, 35, 0
9, 64200, Note_on_c, 9, 42, 127
9, 64260, Note_on_c, 9, 35, 127
9, 64320, Note_on_c, 9, 42, 0
9, 64320, Note_on_c, 9, 35, 0
9, 64320, Note_on_c, 9, 57, 127
9, 64320, Note_on_c, 9, 38, 127
9, 64440, Note_on_c, 9, 57, 0
9, 64440, Note_on_c, 9, 38, 0
9, 64440, Note_on_c, 9, 35, 127
9, 64440, Note_on_c, 9, 42, 127
9, 64560, Note_on_c, 9, 35, 0
9, 64560, Note_on_c, 9, 42, 0
9, 64560, Note_on_c, 9, 38, 127
9, 64560, Note_on_c, 9, 42, 127
9, 64620, Note_on_c, 9, 35, 127
9, 64680, Note_on_c, 9, 38, 0
9, 64680, Note_on_c, 9, 42, 0
9, 64680, Note_on_c, 9, 35, 0
9, 64680, Note_on_c, 9, 42, 127
9, 64740, Note_on_c, 9, 35, 127
9, 64800, Note_on_c, 9, 42, 0
9, 64800, Note_on_c, 9, 35, 0
9, 64800, Note_on_c, 9, 42, 127
9, 64800, Note_on_c, 9, 38, 127
9, 64860, Note_on_c, 9, 35, 127
9, 64920, Note_on_c, 9, 42, 0
9, 64920, Note_on_c, 9, 38, 0
9, 64920, Note_on_c, 9, 35, 0
9, 64920, Note_on_c, 9, 42, 127
9, 64980, Note_on_c, 9, 35, 127
9, 65040, Note_on_c, 9, 42, 0
9, 65040, Note_on_c, 9, 35, 0
9, 65040, Note_on_c, 9, 38, 127
9, 65040, Note_on_c, 9, 42, 127
9, 65100, Note_on_c, 9, 35, 127
9, 65160, Note_on_c, 9, 38, 0
9, 65160, Note_on_c, 9, 42, 0
9, 65160, Note_on_c, 9, 35, 0
9, 65160, Note_on_c, 9, 42, 127
9, 65220, Note_on_c, 9, 35, 127
9, 65240, Note_on_c, 9, 35, 0
9, 65240, Note_on_c, 9, 36, 127
9, 65260, Note_on_c, 9, 36, 0
9, 65260, Note_on_c, 9, 35, 127
9, 65280, Note_on_c, 9, 42, 0
9, 65280, Note_on_c, 9, 35, 0
9, 65280, Note_on_c, 9, 57, 127
9, 65280, Note_on_c, 9, 38, 127
9, 65400, Note_on_c, 9, 57, 0
9, 65400, Note_on_c, 9, 38, 0
9, 65400, Note_on_c, 9, 42, 127
9, 65400, Note_on_c, 9, 35, 127
9, 65520, Note_on_c, 9, 42, 0
9, 65520, Note_on_c, 9, 35, 0
9, 65520, Note_on_c, 9, 38, 127
9, 65520, Note_on_c, 9, 42, 127
9, 65640, Note_on_c, 9, 38, 0
9, 65640, Note_on_c, 9, 42, 0
9, 65640, Note_on_c, 9, 42, 127
9, 65700, Note_on_c, 9, 35, 127
9, 65760, Note_on_c, 9, 42, 0
9, 65760, Note_on_c, 9, 35, 0
9, 65760, Note_on_c, 9, 38, 127
9, 65760, Note_on_c, 9, 42, 127
9, 65820, Note_on_c, 9, 35, 127
9, 65880, Note_on_c, 9, 38, 0
9, 65880, Note_on_c, 9, 42, 0
9, 65880, Note_on_c, 9, 35, 0
9, 65880, Note_on_c, 9, 42, 127
9, 65940, Note_on_c, 9, 35, 127
9, 66000, Note_on_c, 9, 42, 0
9, 66000, Note_on_c, 9, 35, 0
9, 66000, Note_on_c, 9, 38, 127
9, 66000, Note_on_c, 9, 42, 127
9, 66060, Note_on_c, 9, 35, 127
9, 66120, Note_on_c, 9, 38, 0
9, 66120, Note_on_c, 9, 42, 0
9, 66120, Note_on_c, 9, 35, 0
9, 66120, Note_on_c, 9, 42, 127
9, 66180, Note_on_c, 9, 35, 127
9, 66240, Note_on_c, 9, 42, 0
9, 66240, Note_on_c, 9, 35, 0
9, 66240, Note_on_c, 9, 57, 127
9, 66240, Note_on_c, 9, 38, 127
9, 66360, Note_on_c, 9, 57, 0
9, 66360, Note_on_c, 9, 38, 0
9, 66360, Note_on_c, 9, 38, 127
9, 66400, Note_on_c, 9, 38, 0
9, 66400, Note_on_c, 9, 38, 127
9, 66440, Note_on_c, 9, 38, 0
9, 66440, Note_on_c, 9, 38, 127
9, 66480, Note_on_c, 9, 38, 0
9, 66480, Note_on_c, 9, 38, 127
9, 66520, Note_on_c, 9, 38, 0
9, 66520, Note_on_c, 9, 38, 127
9, 66560, Note_on_c, 9, 38, 0
9, 66560, Note_on_c, 9, 38, 127
9, 66600, Note_on_c, 9, 38, 0
9, 66600, Note_on_c, 9, 38, 127
9, 66720, Note_on_c, 9, 38, 0
9, 66720, Note_on_c, 9, 38, 127
9, 66760, Note_on_c, 9, 38, 0
9, 66760, Note_on_c, 9, 38, 127
9, 66800, Note_on_c, 9, 38, 0
9, 66800, Note_on_c, 9, 38, 127
9, 66840, Note_on_c, 9, 38, 0
9, 66840, Note_on_c, 9, 38, 127
9, 66880, Note_on_c, 9, 38, 0
9, 66880, Note_on_c, 9, 38, 127
9, 66920, Note_on_c, 9, 38, 0
9, 66920, Note_on_c, 9, 38, 127
9, 66960, Note_on_c, 9, 38, 0
9, 66960, Note_on_c, 9, 38, 127
9, 67080, Note_on_c, 9, 38, 0
9, 67080, Note_on_c, 9, 38, 127
9, 67120, Note_on_c, 9, 38, 0
9, 67120, Note_on_c, 9, 38, 127
9, 67160, Note_on_c, 9, 38, 0
9, 67160, Note_on_c, 9, 38, 127
9, 67200, Note_on_c, 9, 38, 0
9, 67200, Note_on_c, 9, 38, 127
9, 67320, Note_on_c, 9, 38, 0
9, 67320, Note_on_c, 9, 38, 127
9, 67360, Note_on_c, 9, 38, 0
9, 67360, Note_on_c, 9, 38, 127
9, 67400, Note_on_c, 9, 38, 0
9, 67400, Note_on_c, 9, 38, 127
9, 67440, Note_on_c, 9, 38, 0
9, 67440, Note_on_c, 9, 38, 127
9, 67480, Note_on_c, 9, 38, 0
9, 67480, Note_on_c, 9, 38, 127
9, 67520, Note_on_c, 9, 38, 0
9, 67520, Note_on_c, 9, 38, 127
9, 67560, Note_on_c, 9, 38, 0
9, 67560, Note_on_c, 9, 38, 127
9, 67680, Note_on_c, 9, 38, 0
9, 67680, Note_on_c, 9, 38, 127
9, 67720, Note_on_c, 9, 38, 0
9, 67720, Note_on_c, 9, 38, 127
9, 67760, Note_on_c, 9, 38, 0
9, 67760, Note_on_c, 9, 38, 127
9, 67800, Note_on_c, 9, 38, 0
9, 67800, Note_on_c, 9, 38, 127
9, 67840, Note_on_c, 9, 38, 0
9, 67840, Note_on_c, 9, 38, 127
9, 67880, Note_on_c, 9, 38, 0
9, 67880, Note_on_c, 9, 38, 127
9, 67920, Note_on_c, 9, 38, 0
9, 67920, Note_on_c, 9, 38, 127
9, 68040, Note_on_c, 9, 38, 0
9, 68040, Note_on_c, 9, 38, 127
9, 68080, Note_on_c, 9, 38, 0
9, 68080, Note_on_c, 9, 38, 127
9, 68120, Note_on_c, 9, 38, 0
9, 68120, Note_on_c, 9, 38, 127
9, 68160, Note_on_c, 9, 38, 0
9, 68160, Note_on_c, 9, 38, 127
9, 68200, Note_on_c, 9, 38, 0
9, 68200, Note_on_c, 9, 38, 127
9, 68240, Note_on_c, 9, 38, 0
9, 68240, Note_on_c, 9, 38, 127
9, 68280, Note_on_c, 9, 38, 0
9, 68280, Note_on_c, 9, 35, 127
9, 68280, Note_on_c, 9, 57, 127
9, 68400, Note_on_c, 9, 35, 0
9, 68400, Note_on_c, 9, 57, 0
9, 68400, Note_on_c, 9, 42, 127
9, 68400, Note_on_c, 9, 38, 127
9, 68520, Note_on_c, 9, 42, 0
9, 68520, Note_on_c, 9, 38, 0
9, 68520, Note_on_c, 9, 42, 127
9, 68580, Note_on_c, 9, 35, 127
9, 68640, Note_on_c, 9, 42, 0
9, 68640, Note_on_c, 9, 35, 0
9, 68640, Note_on_c, 9, 42, 127
9, 68640, Note_on_c, 9, 38, 127
9, 68700, Note_on_c, 9, 35, 127
9, 68760, Note_on_c, 9, 42, 0
9, 68760, Note_on_c, 9, 38, 0
9, 68760, Note_on_c, 9, 35, 0
9, 68760, Note_on_c, 9, 42, 127
9, 68820, Note_on_c, 9, 35, 127
9, 68880, Note_on_c, 9, 42, 0
9, 68880, Note_on_c, 9, 35, 0
9, 68880, Note_on_c, 9, 38, 127
9, 68880, Note_on_c, 9, 42, 127
9, 68940, Note_on_c, 9, 35, 127
9, 69000, Note_on_c, 9, 38, 0
9, 69000, Note_on_c, 9, 42, 0
9, 69000, Note_on_c, 9, 35, 0
9, 69000, Note_on_c, 9, 42, 127
9, 69060, Note_on_c, 9, 35, 127
9, 69080, Note_on_c, 9, 35, 0
9, 69080, Note_on_c, 9, 36, 127
9, 69100, Note_on_c, 9, 36, 0
9, 69100, Note_on_c, 9, 35, 127
9, 69120, Note_on_c, 9, 42, 0
9, 69120, Note_on_c, 9, 35, 0
9, 69120, Note_on_c, 9, 57, 127
9, 69120, Note_on_c, 9, 38, 127
9, 69240, Note_on_c, 9, 57, 0
9, 69240, Note_on_c, 9, 38, 0
9, 69240, Note_on_c, 9, 42, 127
9, 69240, Note_on_c, 9, 35, 127
9, 69360, Note_on_c, 9, 42, 0
9, 69360, Note_on_c, 9, 35, 0
9, 69360, Note_on_c, 9, 38, 127
9, 69360, Note_on_c, 9, 42, 127
9, 69480, Note_on_c, 9, 38, 0
9, 69480, Note_on_c, 9, 42, 0
9, 69480, Note_on_c, 9, 42, 127
9, 69540, Note_on_c, 9, 35, 127
9, 69600, Note_on_c, 9, 42, 0
9, 69600, Note_on_c, 9, 35, 0
9, 69600, Note_on_c, 9, 38, 127
9, 69600, Note_on_c, 9, 42, 127
9, 69660, Note_on_c, 9, 35, 127
9, 69720, Note_on_c, 9, 38, 0
9, 69720, Note_on_c, 9, 42, 0
9, 69720, Note_on_c, 9, 35, 0
9, 69720, Note_on_c, 9, 42, 127
9, 69780, Note_on_c, 9, 35, 127
9, 69840, Note_on_c, 9, 42, 0
9, 69840, Note_on_c, 9, 35, 0
9, 69840, Note_on_c, 9, 38, 127
9, 69840, Note_on_c, 9, 42, 127
9, 69900, Note_on_c, 9, 35, 127
9, 69960, Note_on_c, 9, 38, 0
9, 69960, Note_on_c, 9, 42, 0
9, 69960, Note_on_c, 9, 35, 0
9, 69960, Note_on_c, 9, 42, 127
9, 70020, Note_on_c, 9, 35, 127
9, 70080, Note_on_c, 9, 42, 0
9, 70080, Note_on_c, 9, 35, 0
9, 70080, Note_on_c, 9, 57, 127
9, 70080, Note_on_c, 9, 38, 127
9, 70200, Note_on_c, 9, 57, 0
9, 70200, Note_on_c, 9, 38, 0
9, 70200, Note_on_c, 9, 35, 127
9, 70200, Note_on_c, 9, 42, 127
9, 70320, Note_on_c, 9, 35, 0
9, 70320, Note_on_c, 9, 42, 0
9, 70320, Note_on_c, 9, 38, 127
9, 70320, Note_on_c, 9, 42, 127
9, 70380, Note_on_c, 9, 35, 127
9, 70440, Note_on_c, 9, 38, 0
9, 70440, Note_on_c, 9, 42, 0
9, 70440, Note_on_c, 9, 35, 0
9, 70440, Note_on_c, 9, 42, 127
9, 70500, Note_on_c, 9, 35, 127
9, 70560, Note_on_c, 9, 42, 0
9, 70560, Note_on_c, 9, 35, 0
9, 70560, Note_on_c, 9, 42, 127
9, 70560, Note_on_c, 9, 38, 127
9, 70620, Note_on_c, 9, 35, 127
9, 70680, Note_on_c, 9, 42, 0
9, 70680, Note_on_c, 9, 38, 0
9, 70680, Note_on_c, 9, 35, 0
9, 70680, Note_on_c, 9, 42, 127
9, 70740, Note_on_c, 9, 35, 127
9, 70800, Note_on_c, 9, 42, 0
9, 70800, Note_on_c, 9, 35, 0
9, 70800, Note_on_c, 9, 38, 127
9, 70800, Note_on_c, 9, 42, 127
9, 70860, Note_on_c, 9, 35, 127
9, 70920, Note_on_c, 9, 38, 0
9, 70920, Note_on_c, 9, 42, 0
9, 70920, Note_on_c, 9, 35, 0
9, 70920, Note_on_c, 9, 42, 127
9, 70980, Note_on_c, 9, 35, 127
9, 71000, Note_on_c, 9, 35, 0
9, 71000, Note_on_c, 9, 36, 127
9, 71020, Note_on_c, 9, 36, 0
9, 71020, Note_on_c, 9, 35, 127
9, 71040, Note_on_c, 9, 42, 0
9, 71040, Note_on_c, 9, 35, 0
9, 71040, Note_on_c, 9, 57, 127
9, 71040, Note_on_c, 9, 38, 127
9, 71160, Note_on_c, 9, 57, 0
9, 71160, Note_on_c, 9, 38, 0
9, 71160, Note_on_c, 9, 42, 127
9, 71160, Note_on_c, 9, 35, 127
9, 71280, Note_on_c, 9, 42, 0
9, 71280, Note_on_c, 9, 35, 0
9, 71280, Note_on_c, 9, 38, 127
9, 71280, Note_on_c, 9, 42, 127
9, 71400, Note_on_c, 9, 38, 0
9, 71400, Note_on_c, 9, 42, 0
9, 71400, Note_on_c, 9, 42, 127
9, 71460, Note_on_c, 9, 35, 127
9, 71520, Note_on_c, 9, 42, 0
9, 71520, Note_on_c, 9, 35, 0
9, 71520, Note_on_c, 9, 38, 127
9, 71520, Note_on_c, 9, 42, 127
9, 71580, Note_on_c, 9, 35, 127
9, 71640, Note_on_c, 9, 38, 0
9, 71640, Note_on_c, 9, 42, 0
9, 71640, Note_on_c, 9, 35, 0
9, 71640, Note_on_c, 9, 42, 127
9, 71700, Note_on_c, 9, 35, 127
9, 71760, Note_on_c, 9, 42, 0
9, 71760, Note_on_c, 9, 35, 0
9, 71760, Note_on_c, 9, 38, 127
9, 71760, Note_on_c, 9, 42, 127
9, 71820, Note_on_c, 9, 35, 127
9, 71880, Note_on_c, 9, 38, 0
9, 71880, Note_on_c, 9, 42, 0
9, 71880, Note_on_c, 9, 35, 0
9, 71880, Note_on_c, 9, 42, 127
9, 71940, Note_on_c, 9, 35, 127
9, 71960, Note_on_c, 9, 35, 0
9, 71960, Note_on_c, 9, 36, 127
9, 71980, Note_on_c, 9, 36, 0
9, 71980, Note_on_c, 9, 35, 127
9, 72000, Note_on_c, 9, 42, 0
9, 72000, Note_on_c, 9, 35, 0
9, 72000, Note_on_c, 9, 57, 127
9, 72000, Note_on_c, 9, 38, 127
9, 72120, Note_on_c, 9, 57, 0
9, 72120, Note_on_c, 9, 38, 0
9, 72120, Note_on_c, 9, 38, 127
9, 72160, Note_on_c, 9, 38, 0
9, 72160, Note_on_c, 9, 38, 127
9, 72200, Note_on_c, 9, 38, 0
9, 72200, Note_on_c, 9, 38, 127
9, 72240, Note_on_c, 9, 38, 0
9, 72240, Note_on_c, 9, 38, 127
9, 72280, Note_on_c, 9, 38, 0
9, 72280, Note_on_c, 9, 38, 127
9, 72320, Note_on_c, 9, 38, 0
9, 72320, Note_on_c, 9, 38, 127
9, 72360, Note_on_c, 9, 38, 0
9, 72360, Note_on_c, 9, 38, 127
9, 72480, Note_on_c, 9, 38, 0
9, 72480, Note_on_c, 9, 38, 127
9, 72520, Note_on_c, 9, 38, 0
9, 72520, Note_on_c, 9, 38, 127
9, 72560, Note_on_c, 9, 38, 0
9, 72560, Note_on_c, 9, 38, 127
9, 72600, Note_on_c, 9, 38, 0
9, 72600, Note_on_c, 9, 38, 127
9, 72640, Note_on_c, 9, 38, 0
9, 72640, Note_on_c, 9, 38, 127
9, 72680, Note_on_c, 9, 38, 0
9, 72680, Note_on_c, 9, 38, 127
9, 72720, Note_on_c, 9, 38, 0
9, 72720, Note_on_c, 9, 38, 127
9, 72840, Note_on_c, 9, 38, 0
9, 72840, Note_on_c, 9, 38, 127
9, 72880, Note_on_c, 9, 38, 0
9, 72880, Note_on_c, 9, 38, 127
9, 72920, Note_on_c, 9, 38, 0
9, 72920, Note_on_c, 9, 38, 127
9, 72960, Note_on_c, 9, 38, 0
9, 72960, Note_on_c, 9, 38, 127
9, 73080, Note_on_c, 9, 38, 0
9, 73080, Note_on_c, 9, 38, 127
9, 73120, Note_on_c, 9, 38, 0
9, 73120, Note_on_c, 9, 38, 127
9, 73160, Note_on_c, 9, 38, 0
9, 73160, Note_on_c, 9, 38, 127
9, 73200, Note_on_c, 9, 38, 0
9, 73200, Note_on_c, 9, 38, 127
9, 73240, Note_on_c, 9, 38, 0
9, 73240, Note_on_c, 9, 38, 127
9, 73280, Note_on_c, 9, 38, 0
9, 73280, Note_on_c, 9, 38, 127
9, 73320, Note_on_c, 9, 38, 0
9, 73320, Note_on_c, 9, 38, 127
9, 73440, Note_on_c, 9, 38, 0
9, 73440, Note_on_c, 9, 38, 127
9, 73480, Note_on_c, 9, 38, 0
9, 73480, Note_on_c, 9, 38, 127
9, 73520, Note_on_c, 9, 38, 0
9, 73520, Note_on_c, 9, 38, 127
9, 73560, Note_on_c, 9, 38, 0
9, 73560, Note_on_c, 9, 38, 127
9, 73600, Note_on_c, 9, 38, 0
9, 73600, Note_on_c, 9, 38, 127
9, 73640, Note_on_c, 9, 38, 0
9, 73640, Note_on_c, 9, 38, 127
9, 73680, Note_on_c, 9, 38, 0
9, 73680, Note_on_c, 9, 38, 127
9, 73800, Note_on_c, 9, 38, 0
9, 73800, Note_on_c, 9, 38, 127
9, 73840, Note_on_c, 9, 38, 0
9, 73840, Note_on_c, 9, 38, 127
9, 73880, Note_on_c, 9, 38, 0
9, 73880, Note_on_c, 9, 38, 127
9, 73920, Note_on_c, 9, 38, 0
9, 73920, Note_on_c, 9, 38, 127
9, 73960, Note_on_c, 9, 38, 0
9, 73960, Note_on_c, 9, 38, 127
9, 74000, Note_on_c, 9, 38, 0
9, 74000, Note_on_c, 9, 38, 127
9, 74040, Note_on_c, 9, 38, 0
9, 74040, Note_on_c, 9, 57, 127
9, 74040, Note_on_c, 9, 35, 127
9, 74160, Note_on_c, 9, 57, 0
9, 74160, Note_on_c, 9, 35, 0
9, 74160, Note_on_c, 9, 42, 127
9, 74160, Note_on_c, 9, 38, 127
9, 74280, Note_on_c, 9, 42, 0
9, 74280, Note_on_c, 9, 38, 0
9, 74280, Note_on_c, 9, 42, 127
9, 74340, Note_on_c, 9, 35, 127
9, 74400, Note_on_c, 9, 42, 0
9, 74400, Note_on_c, 9, 35, 0
9, 74400, Note_on_c, 9, 38, 127
9, 74400, Note_on_c, 9, 42, 127
9, 74460, Note_on_c, 9, 35, 127
9, 74520, Note_on_c, 9, 38, 0
9, 74520, Note_on_c, 9, 42, 0
9, 74520, Note_on_c, 9, 35, 0
9, 74520, Note_on_c, 9, 42, 127
9, 74580, Note_on_c, 9, 35, 127
9, 74640, Note_on_c, 9, 42, 0
9, 74640, Note_on_c, 9, 35, 0
9, 74640, Note_on_c, 9, 38, 127
9, 74640, Note_on_c, 9, 42, 127
9, 74700, Note_on_c, 9, 35, 127
9, 74760, Note_on_c, 9, 38, 0
9, 74760, Note_on_c, 9, 42, 0
9, 74760, Note_on_c, 9, 35, 0
9, 74760, Note_on_c, 9, 42, 127
9, 74820, Note_on_c, 9, 35, 127
9, 74840, Note_on_c, 9, 35, 0
9, 74840, Note_on_c, 9, 36, 127
9, 74860, Note_on_c, 9, 36, 0
9, 74860, Note_on_c, 9, 35, 127
9, 74880, Note_on_c, 9, 42, 0
9, 74880, Note_on_c, 9, 35, 0
9, 74880, Note_on_c, 9, 57, 127
9, 74880, Note_on_c, 9, 38, 127
9, 75000, Note_on_c, 9, 57, 0
9, 75000, Note_on_c, 9, 38, 0
9, 75000, Note_on_c, 9, 35, 127
9, 75000, Note_on_c, 9, 42, 127
9, 75120, Note_on_c, 9, 35, 0
9, 75120, Note_on_c, 9, 42, 0
9, 75120, Note_on_c, 9, 42, 127
9, 75120, Note_on_c, 9, 38, 127
9, 75240, Note_on_c, 9, 42, 0
9, 75240, Note_on_c, 9, 38, 0
9, 75240, Note_on_c, 9, 42, 127
9, 75300, Note_on_c, 9, 35, 127
9, 75360, Note_on_c, 9, 42, 0
9, 75360, Note_on_c, 9, 35, 0
9, 75360, Note_on_c, 9, 38, 127
9, 75360, Note_on_c, 9, 42, 127
9, 75420, Note_on_c, 9, 35, 127
9, 75480, Note_on_c, 9, 38, 0
9, 75480, Note_on_c, 9, 42, 0
9, 75480, Note_on_c, 9, 35, 0
9, 75480, Note_on_c, 9, 42, 127
9, 75540, Note_on_c, 9, 35, 127
9, 75600, Note_on_c, 9, 42, 0
9, 75600, Note_on_c, 9, 35, 0
9, 75600, Note_on_c, 9, 38, 127
9, 75600, Note_on_c, 9, 42, 127
9, 75660, Note_on_c, 9, 35, 127
9, 75720, Note_on_c, 9, 38, 0
9, 75720, Note_on_c, 9, 42, 0
9, 75720, Note_on_c, 9, 35, 0
9, 75720, Note_on_c, 9, 42, 127
9, 75780, Note_on_c, 9, 35, 127
9, 75840, Note_on_c, 9, 42, 0
9, 75840, Note_on_c, 9, 35, 0
9, 75840, Note_on_c, 9, 57, 127
9, 75840, Note_on_c, 9, 38, 127
9, 75960, Note_on_c, 9, 57, 0
9, 75960, Note_on_c, 9, 38, 0
9, 75960, Note_on_c, 9, 42, 127
9, 75960, Note_on_c, 9, 35, 127
9, 76080, Note_on_c, 9, 42, 0
9, 76080, Note_on_c, 9, 35, 0
9, 76080, Note_on_c, 9, 38, 127
9, 76080, Note_on_c, 9, 42, 127
9, 76200, Note_on_c, 9, 38, 0
9, 76200, Note_on_c, 9, 42, 0
9, 76200, Note_on_c, 9, 42, 127
9, 76260, Note_on_c, 9, 35, 127
9, 76320, Note_on_c, 9, 42, 0
9, 76320, Note_on_c, 9, 35, 0
9, 76320, Note_on_c, 9, 38, 127
9, 76320, Note_on_c, 9, 42, 127
9, 76380, Note_on_c, 9, 35, 127
9, 76440, Note_on_c, 9, 38, 0
9, 76440, Note_on_c, 9, 42, 0
9, 76440, Note_on_c, 9, 35, 0
9, 76440, Note_on_c, 9, 42, 127
9, 76500, Note_on_c, 9, 35, 127
9, 76560, Note_on_c, 9, 42, 0
9, 76560, Note_on_c, 9, 35, 0
9, 76560, Note_on_c, 9, 38, 127
9, 76560, Note_on_c, 9, 42, 127
9, 76620, Note_on_c, 9, 35, 127
9, 76680, Note_on_c, 9, 38, 0
9, 76680, Note_on_c, 9, 42, 0
9, 76680, Note_on_c, 9, 35, 0
9, 76680, Note_on_c, 9, 42, 127
9, 76740, Note_on_c, 9, 35, 127
9, 76760, Note_on_c, 9, 35, 0
9, 76760, Note_on_c, 9, 36, 127
9, 76780, Note_on_c, 9, 36, 0
9, 76780, Note_on_c, 9, 35, 127
9, 76800, Note_on_c, 9, 42, 0
9, 76800, Note_on_c, 9, 35, 0
9, 76800, Note_on_c, 9, 57, 127
9, 76800, Note_on_c, 9, 38, 127
9, 76920, Note_on_c, 9, 57, 0
9, 76920, Note_on_c, 9, 38, 0
9, 76920, Note_on_c, 9, 35, 127
9, 76920, Note_on_c, 9, 42, 127
9, 77040, Note_on_c, 9, 35, 0
9, 77040, Note_on_c, 9, 42, 0
9, 77040, Note_on_c, 9, 38, 127
9, 77040, Note_on_c, 9, 42, 127
9, 77160, Note_on_c, 9, 38, 0
9, 77160, Note_on_c, 9, 42, 0
9, 77160, Note_on_c, 9, 42, 127
9, 77220, Note_on_c, 9, 35, 127
9, 77280, Note_on_c, 9, 42, 0
9, 77280, Note_on_c, 9, 35, 0
9, 77280, Note_on_c, 9, 38, 127
9, 77280, Note_on_c, 9, 42, 127
9, 77340, Note_on_c, 9, 35, 127
9, 77400, Note_on_c, 9, 38, 0
9, 77400, Note_on_c, 9, 42, 0
9, 77400, Note_on_c, 9, 35, 0
9, 77400, Note_on_c, 9, 42, 127
9, 77460, Note_on_c, 9, 35, 127
9, 77520, Note_on_c, 9, 42, 0
9, 77520, Note_on_c, 9, 35, 0
9, 77520, Note_on_c, 9, 38, 127
9, 77520, Note_on_c, 9, 42, 127
9, 77580, Note_on_c, 9, 35, 127
9, 77640, Note_on_c, 9, 38, 0
9, 77640, Note_on_c, 9, 42, 0
9, 77640, Note_on_c, 9, 35, 0
9, 77640, Note_on_c, 9, 42, 127
9, 77700, Note_on_c, 9, 35, 127
9, 77760, Note_on_c, 9, 42, 0
9, 77760, Note_on_c, 9, 35, 0
9, 77760, Note_on_c, 9, 57, 127
9, 77760, Note_on_c, 9, 38, 127
9, 77880, Note_on_c, 9, 57, 0
9, 77880, Note_on_c, 9, 38, 0
9, 77880, Note_on_c, 9, 38, 127
9, 77920, Note_on_c, 9, 38, 0
9, 77920, Note_on_c, 9, 38, 127
9, 77960, Note_on_c, 9, 38, 0
9, 77960, Note_on_c, 9, 38, 127
9, 78000, Note_on_c, 9, 38, 0
9, 78000, Note_on_c, 9, 38, 127
9, 78040, Note_on_c, 9, 38, 0
9, 78040, Note_on_c, 9, 38, 127
9, 78080, Note_on_c, 9, 38, 0
9, 78080, Note_on_c, 9, 38, 127
9, 78120, Note_on_c, 9, 38, 0
9, 78120, Note_on_c, 9, 38, 127
9, 78240, Note_on_c, 9, 38, 0
9, 78240, Note_on_c, 9, 38, 127
9, 78280, Note_on_c, 9, 38, 0
9, 78280, Note_on_c, 9, 38, 127
9, 78320, Note_on_c, 9, 38, 0
9, 78320, Note_on_c, 9, 38, 127
9, 78360, Note_on_c, 9, 38, 0
9, 78360, Note_on_c, 9, 38, 127
9, 78400, Note_on_c, 9, 38, 0
9, 78400, Note_on_c, 9, 38, 127
9, 78440, Note_on_c, 9, 38, 0
9, 78440, Note_on_c, 9, 38, 127
9, 78480, Note_on_c, 9, 38, 0
9, 78480, Note_on_c, 9, 38, 127
9, 78600, Note_on_c, 9, 38, 0
9, 78600, Note_on_c, 9, 38, 127
9, 78640, Note_on_c, 9, 38, 0
9, 78640, Note_on_c, 9, 38, 127
9, 78680, Note_on_c, 9, 38, 0
9, 78680, Note_on_c, 9, 38, 127
9, 78720, Note_on_c, 9, 38, 0
9, 78720, Note_on_c, 9, 38, 127
9, 78760, Note_on_c, 9, 38, 0
9, 78760, Note_on_c, 9, 38, 127
9, 78800, Note_on_c, 9, 38, 0
9, 78800, Note_on_c, 9, 38, 127
9, 78840, Note_on_c, 9, 38, 0
9, 78840, Note_on_c, 9, 35, 127
9, 78840, Note_on_c, 9, 57, 127
9, 78960, Note_on_c, 9, 35, 0
9, 78960, Note_on_c, 9, 57, 0
9, 78960, Note_on_c, 9, 42, 127
9, 78960, Note_on_c, 9, 38, 127
9, 79020, Note_on_c, 9, 35, 127
9, 79080, Note_on_c, 9, 42, 0
9, 79080, Note_on_c, 9, 38, 0
9, 79080, Note_on_c, 9, 35, 0
9, 79080, Note_on_c, 9, 42, 127
9, 79140, Note_on_c, 9, 35, 127
9, 79200, Note_on_c, 9, 42, 0
9, 79200, Note_on_c, 9, 35, 0
9, 79200, Note_on_c, 9, 57, 127
9, 79200, Note_on_c, 9, 38, 127
9, 79320, Note_on_c, 9, 57, 0
9, 79320, Note_on_c, 9, 38, 0
9, 79320, Note_on_c, 9, 42, 127
9, 79320, Note_on_c, 9, 35, 127
9, 79440, Note_on_c, 9, 42, 0
9, 79440, Note_on_c, 9, 35, 0
9, 79440, Note_on_c, 9, 38, 127
9, 79440, Note_on_c, 9, 42, 127
9, 79560, Note_on_c, 9, 38, 0
9, 79560, Note_on_c, 9, 42, 0
9, 79560, Note_on_c, 9, 42, 127
9, 79620, Note_on_c, 9, 35, 127
9, 79640, Note_on_c, 9, 35, 0
9, 79640, Note_on_c, 9, 36, 127
9, 79660, Note_on_c, 9, 36, 0
9, 79660, Note_on_c, 9, 35, 127
9, 79680, Note_on_c, 9, 42, 0
9, 79680, Note_on_c, 9, 35, 0
9, 79680, Note_on_c, 9, 57, 127
9, 79680, Note_on_c, 9, 38, 127
9, 79800, Note_on_c, 9, 57, 0
9, 79800, Note_on_c, 9, 38, 0
9, 79800, Note_on_c, 9, 42, 127
9, 79800, Note_on_c, 9, 35, 127
9, 79920, Note_on_c, 9, 42, 0
9, 79920, Note_on_c, 9, 35, 0
9, 79920, Note_on_c, 9, 38, 127
9, 79920, Note_on_c, 9, 42, 127
9, 79980, Note_on_c, 9, 35, 127
9, 80040, Note_on_c, 9, 38, 0
9, 80040, Note_on_c, 9, 42, 0
9, 80040, Note_on_c, 9, 35, 0
9, 80040, Note_on_c, 9, 42, 127
9, 80100, Note_on_c, 9, 35, 127
9, 80160, Note_on_c, 9, 42, 0
9, 80160, Note_on_c, 9, 35, 0
9, 80160, Note_on_c, 9, 38, 127
9, 80160, Note_on_c, 9, 42, 127
9, 80220, Note_on_c, 9, 35, 127
9, 80280, Note_on_c, 9, 38, 0
9, 80280, Note_on_c, 9, 42, 0
9, 80280, Note_on_c, 9, 35, 0
9, 80280, Note_on_c, 9, 42, 127
9, 80340, Note_on_c, 9, 35, 127
9, 80400, Note_on_c, 9, 42, 0
9, 80400, Note_on_c, 9, 35, 0
9, 80400, Note_on_c, 9, 38, 127
9, 80400, Note_on_c, 9, 42, 127
9, 80520, Note_on_c, 9, 38, 0
9, 80520, Note_on_c, 9, 42, 0
9, 80520, Note_on_c, 9, 42, 127
9, 80580, Note_on_c, 9, 35, 127
9, 80640, Note_on_c, 9, 42, 0
9, 80640, Note_on_c, 9, 35, 0
9, 80640, Note_on_c, 9, 57, 127
9, 80640, Note_on_c, 9, 38, 127
9, 80760, Note_on_c, 9, 57, 0
9, 80760, Note_on_c, 9, 38, 0
9, 80760, Note_on_c, 9, 35, 127
9, 80760, Note_on_c, 9, 42, 127
9, 80880, Note_on_c, 9, 35, 0
9, 80880, Note_on_c, 9, 42, 0
9, 80880, Note_on_c, 9, 38, 127
9, 80880, Note_on_c, 9, 42, 127
9, 80940, Note_on_c, 9, 35, 127
9, 81000, Note_on_c, 9, 38, 0
9, 81000, Note_on_c, 9, 42, 0
9, 81000, Note_on_c, 9, 35, 0
9, 81000, Note_on_c, 9, 42, 127
9, 81060, Note_on_c, 9, 35, 127
9, 81080, Note_on_c, 9, 35, 0
9, 81080, Note_on_c, 9, 36, 127
9, 81100, Note_on_c, 9, 36, 0
9, 81100, Note_on_c, 9, 35, 127
9, 81120, Note_on_c, 9, 42, 0
9, 81120, Note_on_c, 9, 35, 0
9, 81120, Note_on_c, 9, 57, 127
9, 81120, Note_on_c, 9, 38, 127
9, 81240, Note_on_c, 9, 57, 0
9, 81240, Note_on_c, 9, 38, 0
9, 81240, Note_on_c, 9, 42, 127
9, 81240, Note_on_c, 9, 35, 127
9, 81360, Note_on_c, 9, 42, 0
9, 81360, Note_on_c, 9, 35, 0
9, 81360, Note_on_c, 9, 38, 127
9, 81360, Note_on_c, 9, 42, 127
9, 81480, Note_on_c, 9, 38, 0
9, 81480, Note_on_c, 9, 42, 0
9, 81480, Note_on_c, 9, 42, 127
9, 81540, Note_on_c, 9, 35, 127
9, 81560, Note_on_c, 9, 35, 0
9, 81560, Note_on_c, 9, 36, 127
9, 81580, Note_on_c, 9, 36, 0
9, 81580, Note_on_c, 9, 35, 127
9, 81600, Note_on_c, 9, 42, 0
9, 81600, Note_on_c, 9, 35, 0
9, 81600, Note_on_c, 9, 57, 127
9, 81600, Note_on_c, 9, 38, 127
9, 81720, Note_on_c, 9, 57, 0
9, 81720, Note_on_c, 9, 38, 0
9, 81720, Note_on_c, 9, 42, 127
9, 81720, Note_on_c, 9, 35, 127
9, 81840, Note_on_c, 9, 42, 0
9, 81840, Note_on_c, 9, 35, 0
9, 81840, Note_on_c, 9, 38, 127
9, 81840, Note_on_c, 9, 42, 127
9, 81900, Note_on_c, 9, 35, 127
9, 81960, Note_on_c, 9, 38, 0
9, 81960, Note_on_c, 9, 42, 0
9, 81960, Note_on_c, 9, 35, 0
9, 81960, Note_on_c, 9, 42, 127
9, 82020, Note_on_c, 9, 35, 127
9, 82080, Note_on_c, 9, 42, 0
9, 82080, Note_on_c, 9, 35, 0
9, 82080, Note_on_c, 9, 38, 127
9, 82080, Note_on_c, 9, 42, 127
9, 82140, Note_on_c, 9, 35, 127
9, 82200, Note_on_c, 9, 38, 0
9, 82200, Note_on_c, 9, 42, 0
9, 82200, Note_on_c, 9, 35, 0
9, 82200, Note_on_c, 9, 42, 127
9, 82260, Note_on_c, 9, 35, 127
9, 82320, Note_on_c, 9, 42, 0
9, 82320, Note_on_c, 9, 35, 0
9, 82320, Note_on_c, 9, 38, 127
9, 82320, Note_on_c, 9, 42, 127
9, 82380, Note_on_c, 9, 35, 127
9, 82440, Note_on_c, 9, 38, 0
9, 82440, Note_on_c, 9, 42, 0
9, 82440, Note_on_c, 9, 35, 0
9, 82440, Note_on_c, 9, 42, 127
9, 82500, Note_on_c, 9, 35, 127
9, 82520, Note_on_c, 9, 35, 0
9, 82520, Note_on_c, 9, 36, 127
9, 82540, Note_on_c, 9, 36, 0
9, 82540, Note_on_c, 9, 35, 127
9, 82560, Note_on_c, 9, 42, 0
9, 82560, Note_on_c, 9, 35, 0
9, 82560, Note_on_c, 9, 57, 127
9, 82560, Note_on_c, 9, 38, 127
9, 82680, Note_on_c, 9, 57, 0
9, 82680, Note_on_c, 9, 38, 0
9, 82680, Note_on_c, 9, 42, 127
9, 82680, Note_on_c, 9, 35, 127
9, 82800, Note_on_c, 9, 42, 0
9, 82800, Note_on_c, 9, 35, 0
9, 82800, Note_on_c, 9, 38, 127
9, 82800, Note_on_c, 9, 42, 127
9, 82860, Note_on_c, 9, 35, 127
9, 82920, Note_on_c, 9, 38, 0
9, 82920, Note_on_c, 9, 42, 0
9, 82920, Note_on_c, 9, 35, 0
9, 82920, Note_on_c, 9, 42, 127
9, 82980, Note_on_c, 9, 35, 127
9, 83040, Note_on_c, 9, 42, 0
9, 83040, Note_on_c, 9, 35, 0
9, 83040, Note_on_c, 9, 57, 127
9, 83040, Note_on_c, 9, 38, 127
9, 83160, Note_on_c, 9, 57, 0
9, 83160, Note_on_c, 9, 38, 0
9, 83160, Note_on_c, 9, 35, 127
9, 83160, Note_on_c, 9, 42, 127
9, 83280, Note_on_c, 9, 35, 0
9, 83280, Note_on_c, 9, 42, 0
9, 83280, Note_on_c, 9, 38, 127
9, 83280, Note_on_c, 9, 42, 127
9, 83340, Note_on_c, 9, 35, 127
9, 83400, Note_on_c, 9, 38, 0
9, 83400, Note_on_c, 9, 42, 0
9, 83400, Note_on_c, 9, 35, 0
9, 83400, Note_on_c, 9, 42, 127
9, 83460, Note_on_c, 9, 35, 127
9, 83480, Note_on_c, 9, 35, 0
9, 83480, Note_on_c, 9, 36, 127
9, 83500, Note_on_c, 9, 36, 0
9, 83500, Note_on_c, 9, 35, 127
9, 83520, Note_on_c, 9, 42, 0
9, 83520, Note_on_c, 9, 35, 0
9, 83520, Note_on_c, 9, 57, 127
9, 83520, Note_on_c, 9, 38, 127
9, 83640, Note_on_c, 9, 57, 0
9, 83640, Note_on_c, 9, 38, 0
9, 83640, Note_on_c, 9, 42, 127
9, 83640, Note_on_c, 9, 35, 127
9, 83760, Note_on_c, 9, 42, 0
9, 83760, Note_on_c, 9, 35, 0
9, 83760, Note_on_c, 9, 38, 127
9, 83760, Note_on_c, 9, 42, 127
9, 83820, Note_on_c, 9, 35, 127
9, 83880, Note_on_c, 9, 38, 0
9, 83880, Note_on_c, 9, 42, 0
9, 83880, Note_on_c, 9, 35, 0
9, 83880, Note_on_c, 9, 42, 127
9, 83940, Note_on_c, 9, 35, 127
9, 84000, Note_on_c, 9, 42, 0
9, 84000, Note_on_c, 9, 35, 0
9, 84000, Note_on_c, 9, 38, 127
9, 84000, Note_on_c, 9, 42, 127
9, 84060, Note_on_c, 9, 35, 127
9, 84120, Note_on_c, 9, 38, 0
9, 84120, Note_on_c, 9, 42, 0
9, 84120, Note_on_c, 9, 35, 0
9, 84120, Note_on_c, 9, 42, 127
9, 84180, Note_on_c, 9, 35, 127
9, 84240, Note_on_c, 9, 42, 0
9, 84240, Note_on_c, 9, 35, 0
9, 84240, Note_on_c, 9, 38, 127
9, 84240, Note_on_c, 9, 42, 127
9, 84300, Note_on_c, 9, 35, 127
9, 84360, Note_on_c, 9, 38, 0
9, 84360, Note_on_c, 9, 42, 0
9, 84360, Note_on_c, 9, 35, 0
9, 84360, Note_on_c, 9, 42, 127
9, 84420, Note_on_c, 9, 35, 127
9, 84440, Note_on_c, 9, 35, 0
9, 84440, Note_on_c, 9, 36, 127
9, 84460, Note_on_c, 9, 36, 0
9, 84460, Note_on_c, 9, 35, 127
9, 84480, Note_on_c, 9, 42, 0
9, 84480, Note_on_c, 9, 35, 0
9, 84480, Note_on_c, 9, 57, 127
9, 84480, Note_on_c, 9, 38, 127
9, 84600, Note_on_c, 9, 57, 0
9, 84600, Note_on_c, 9, 38, 0
9, 84600, Note_on_c, 9, 42, 127
9, 84600, Note_on_c, 9, 35, 127
9, 84720, Note_on_c, 9, 42, 0
9, 84720, Note_on_c, 9, 35, 0
9, 84720, Note_on_c, 9, 38, 127
9, 84720, Note_on_c, 9, 42, 127
9, 84780, Note_on_c, 9, 35, 127
9, 84840, Note_on_c, 9, 38, 0
9, 84840, Note_on_c, 9, 42, 0
9, 84840, Note_on_c, 9, 35, 0
9, 84840, Note_on_c, 9, 42, 127
9, 84900, Note_on_c, 9, 35, 127
9, 84960, Note_on_c, 9, 42, 0
9, 84960, Note_on_c, 9, 35, 0
9, 84960, Note_on_c, 9, 57, 127
9, 84960, Note_on_c, 9, 38, 127
9, 85080, Note_on_c, 9, 57, 0
9, 85080, Note_on_c, 9, 38, 0
9, 85080, Note_on_c, 9, 42, 127
9, 85080, Note_on_c, 9, 35, 127
9, 85200, Note_on_c, 9, 42, 0
9, 85200, Note_on_c, 9, 35, 0
9, 85200, Note_on_c, 9, 38, 127
9, 85200, Note_on_c, 9, 42, 127
9, 85320, Note_on_c, 9, 38, 0
9, 85320, Note_on_c, 9, 42, 0
9, 85320, Note_on_c, 9, 42, 127
9, 85380, Note_on_c, 9, 35, 127
9, 85400, Note_on_c, 9, 35, 0
9, 85400, Note_on_c, 9, 36, 127
9, 85420, Note_on_c, 9, 36, 0
9, 85420, Note_on_c, 9, 35, 127
9, 85440, Note_on_c, 9, 42, 0
9, 85440, Note_on_c, 9, 35, 0
9, 85440, Note_on_c, 9, 57, 127
9, 85440, Note_on_c, 9, 38, 127
9, 85560, Note_on_c, 9, 57, 0
9, 85560, Note_on_c, 9, 38, 0
9, 85560, Note_on_c, 9, 42, 127
9, 85560, Note_on_c, 9, 35, 127
9, 85680, Note_on_c, 9, 42, 0
9, 85680, Note_on_c, 9, 35, 0
9, 85680, Note_on_c, 9, 42, 127
9, 85680, Note_on_c, 9, 38, 127
9, 85740, Note_on_c, 9, 35, 127
9, 85800, Note_on_c, 9, 42, 0
9, 85800, Note_on_c, 9, 38, 0
9, 85800, Note_on_c, 9, 35, 0
9, 85800, Note_on_c, 9, 42, 127
9, 85860, Note_on_c, 9, 35, 127
9, 85920, Note_on_c, 9, 42, 0
9, 85920, Note_on_c, 9, 35, 0
9, 85920, Note_on_c, 9, 38, 127
9, 85920, Note_on_c, 9, 42, 127
9, 85980, Note_on_c, 9, 35, 127
9, 86040, Note_on_c, 9, 38, 0
9, 86040, Note_on_c, 9, 42, 0
9, 86040, Note_on_c, 9, 35, 0
9, 86040, Note_on_c, 9, 42, 127
9, 86100, Note_on_c, 9, 35, 127
9, 86160, Note_on_c, 9, 42, 0
9, 86160, Note_on_c, 9, 35, 0
9, 86160, Note_on_c, 9, 38, 127
9, 86160, Note_on_c, 9, 42, 127
9, 86220, Note_on_c, 9, 35, 127
9, 86280, Note_on_c, 9, 38, 0
9, 86280, Note_on_c, 9, 42, 0
9, 86280, Note_on_c, 9, 35, 0
9, 86280, Note_on_c, 9, 42, 127
9, 86340, Note_on_c, 9, 35, 127
9, 86360, Note_on_c, 9, 35, 0
9, 86360, Note_on_c, 9, 36, 127
9, 86380, Note_on_c, 9, 36, 0
9, 86380, Note_on_c, 9, 35, 127
9, 86395, Note_on_c, 9, 38, 75
9, 86400, Note_on_c, 9, 42, 0
9, 86400, Note_on_c, 9, 35, 0
9, 86400, Note_on_c, 9, 38, 0
9, 86400, Note_on_c, 9, 38, 127
9, 86520, Note_on_c, 9, 38, 0
9, 86520, Note_on_c, 9, 35, 127
9, 86580, Note_on_c, 9, 35, 0
9, 86580, Note_on_c, 9, 35, 127
9, 86640, Note_on_c, 9, 35, 0
9, 86640, Note_on_c, 9, 57, 127
9, 86640, Note_on_c, 9, 38, 127
9, 86760, Note_on_c, 9, 57, 0
9, 86760, Note_on_c, 9, 38, 0
9, 86760, Note_on_c, 9, 35, 127
9, 86820, Note_on_c, 9, 35, 0
9, 86820, Note_on_c, 9, 35, 127
9, 86880, Note_on_c, 9, 35, 0
9, 86880, Note_on_c, 9, 38, 127
9, 86880, Note_on_c, 9, 57, 127
9, 87000, Note_on_c, 9, 38, 0
9, 87000, Note_on_c, 9, 57, 0
9, 87000, Note_on_c, 9, 35, 127
9, 87060, Note_on_c, 9, 35, 0
9, 87060, Note_on_c, 9, 35, 127
9, 87120, Note_on_c, 9, 35, 0
9, 87120, Note_on_c, 9, 38, 127
9, 87120, Note_on_c, 9, 57, 127
9, 87240, Note_on_c, 9, 38, 0
9, 87240, Note_on_c, 9, 57, 0
9, 87240, Note_on_c, 9, 35, 127
9, 87300, Note_on_c, 9, 35, 0
9, 87300, Note_on_c, 9, 35, 127
9, 87360, Note_on_c, 9, 35, 0
9, 87360, Note_on_c, 9, 38, 127
9, 87360, Note_on_c, 9, 57, 127
9, 87480, Note_on_c, 9, 38, 0
9, 87480, Note_on_c, 9, 57, 0
9, 87480, Note_on_c, 9, 42, 127
9, 87480, Note_on_c, 9, 35, 127
9, 87600, Note_on_c, 9, 42, 0
9, 87600, Note_on_c, 9, 35, 0
9, 87600, Note_on_c, 9, 38, 127
9, 87600, Note_on_c, 9, 42, 127
9, 87660, Note_on_c, 9, 35, 127
9, 87720, Note_on_c, 9, 38, 0
9, 87720, Note_on_c, 9, 42, 0
9, 87720, Note_on_c, 9, 35, 0
9, 87720, Note_on_c, 9, 42, 127
9, 87780, Note_on_c, 9, 35, 127
9, 87840, Note_on_c, 9, 42, 0
9, 87840, Note_on_c, 9, 35, 0
9, 87840, Note_on_c, 9, 38, 127
9, 87840, Note_on_c, 9, 42, 127
9, 87900, Note_on_c, 9, 35, 127
9, 87960, Note_on_c, 9, 38, 0
9, 87960, Note_on_c, 9, 42, 0
9, 87960, Note_on_c, 9, 35, 0
9, 87960, Note_on_c, 9, 42, 127
9, 88020, Note_on_c, 9, 35, 127
9, 88080, Note_on_c, 9, 42, 0
9, 88080, Note_on_c, 9, 35, 0
9, 88080, Note_on_c, 9, 38, 127
9, 88080, Note_on_c, 9, 42, 127
9, 88140, Note_on_c, 9, 35, 127
9, 88200, Note_on_c, 9, 38, 0
9, 88200, Note_on_c, 9, 42, 0
9, 88200, Note_on_c, 9, 35, 0
9, 88200, Note_on_c, 9, 42, 127
9, 88260, Note_on_c, 9, 35, 127
9, 88280, Note_on_c, 9, 35, 0
9, 88280, Note_on_c, 9, 36, 127
9, 88300, Note_on_c, 9, 36, 0
9, 88300, Note_on_c, 9, 35, 127
9, 88315, Note_on_c, 9, 38, 75
9, 88320, Note_on_c, 9, 42, 0
9, 88320, Note_on_c, 9, 35, 0
9, 88320, Note_on_c, 9, 38, 0
9, 88320, Note_on_c, 9, 38, 127
9, 88440, Note_on_c, 9, 38, 0
9, 88440, Note_on_c, 9, 35, 127
9, 88500, Note_on_c, 9, 35, 0
9, 88500, Note_on_c, 9, 35, 127
9, 88560, Note_on_c, 9, 35, 0
9, 88560, Note_on_c, 9, 57, 127
9, 88560, Note_on_c, 9, 38, 127
9, 88680, Note_on_c, 9, 57, 0
9, 88680, Note_on_c, 9, 38, 0
9, 88680, Note_on_c, 9, 35, 127
9, 88740, Note_on_c, 9, 35, 0
9, 88740, Note_on_c, 9, 35, 127
9, 88800, Note_on_c, 9, 35, 0
9, 88800, Note_on_c, 9, 38, 127
9, 88800, Note_on_c, 9, 57, 127
9, 88920, Note_on_c, 9, 38, 0
9, 88920, Note_on_c, 9, 57, 0
9, 88920, Note_on_c, 9, 35, 127
9, 88980, Note_on_c, 9, 35, 0
9, 88980, Note_on_c, 9, 35, 127
9, 89040, Note_on_c, 9, 35, 0
9, 89040, Note_on_c, 9, 38, 127
9, 89040, Note_on_c, 9, 57, 127
9, 89160, Note_on_c, 9, 38, 0
9, 89160, Note_on_c, 9, 57, 0
9, 89160, Note_on_c, 9, 35, 127
9, 89220, Note_on_c, 9, 35, 0
9, 89220, Note_on_c, 9, 35, 127
9, 89280, Note_on_c, 9, 35, 0
9, 89280, Note_on_c, 9, 38, 127
9, 89280, Note_on_c, 9, 57, 127
9, 89400, Note_on_c, 9, 38, 0
9, 89400, Note_on_c, 9, 57, 0
9, 89400, Note_on_c, 9, 42, 127
9, 89400, Note_on_c, 9, 35, 127
9, 89520, Note_on_c, 9, 42, 0
9, 89520, Note_on_c, 9, 35, 0
9, 89520, Note_on_c, 9, 38, 127
9, 89520, Note_on_c, 9, 42, 127
9, 89580, Note_on_c, 9, 35, 127
9, 89640, Note_on_c, 9, 38, 0
9, 89640, Note_on_c, 9, 42, 0
9, 89640, Note_on_c, 9, 35, 0
9, 89640, Note_on_c, 9, 42, 127
9, 89700, Note_on_c, 9, 35, 127
9, 89760, Note_on_c, 9, 42, 0
9, 89760, Note_on_c, 9, 35, 0
9, 89760, Note_on_c, 9, 38, 127
9, 89760, Note_on_c, 9, 42, 127
9, 89820, Note_on_c, 9, 35, 127
9, 89880, Note_on_c, 9, 38, 0
9, 89880, Note_on_c, 9, 42, 0
9, 89880, Note_on_c, 9, 35, 0
9, 89880, Note_on_c, 9, 42, 127
9, 89940, Note_on_c, 9, 35, 127
9, 90000, Note_on_c, 9, 42, 0
9, 90000, Note_on_c, 9, 35, 0
9, 90000, Note_on_c, 9, 38, 127
9, 90000, Note_on_c, 9, 42, 127
9, 90060, Note_on_c, 9, 35, 127
9, 90120, Note_on_c, 9, 38, 0
9, 90120, Note_on_c, 9, 42, 0
9, 90120, Note_on_c, 9, 35, 0
9, 90120, Note_on_c, 9, 42, 127
9, 90180, Note_on_c, 9, 35, 127
9, 90200, Note_on_c, 9, 35, 0
9, 90200, Note_on_c, 9, 36, 127
9, 90220, Note_on_c, 9, 36, 0
9, 90220, Note_on_c, 9, 35, 127
9, 90235, Note_on_c, 9, 38, 75
9, 90240, Note_on_c, 9, 42, 0
9, 90240, Note_on_c, 9, 35, 0
9, 90240, Note_on_c, 9, 38, 0
9, 90240, Note_on_c, 9, 57, 127
9, 90240, Note_on_c, 9, 38, 127
9, 90360, Note_on_c, 9, 57, 0
9, 90360, Note_on_c, 9, 38, 0
9, 90360, Note_on_c, 9, 38, 127
9, 90400, Note_on_c, 9, 38, 0
9, 90400, Note_on_c, 9, 38, 127
9, 90440, Note_on_c, 9, 38, 0
9, 90440, Note_on_c, 9, 38, 127
9, 90480, Note_on_c, 9, 38, 0
9, 90480, Note_on_c, 9, 38, 127
9, 90520, Note_on_c, 9, 38, 0
9, 90520, Note_on_c, 9, 38, 127
9, 90560, Note_on_c, 9, 38, 0
9, 90560, Note_on_c, 9, 38, 127
9, 90600, Note_on_c, 9, 38, 0
9, 90600, Note_on_c, 9, 38, 127
9, 90720, Note_on_c, 9, 38, 0
9, 90720, Note_on_c, 9, 38, 127
9, 90760, Note_on_c, 9, 38, 0
9, 90760, Note_on_c, 9, 38, 127
9, 90800, Note_on_c, 9, 38, 0
9, 90800, Note_on_c, 9, 38, 127
9, 90840, Note_on_c, 9, 38, 0
9, 90840, Note_on_c, 9, 38, 127
9, 90880, Note_on_c, 9, 38, 0
9, 90880, Note_on_c, 9, 38, 127
9, 90920, Note_on_c, 9, 38, 0
9, 90920, Note_on_c, 9, 38, 127
9, 90960, Note_on_c, 9, 38, 0
9, 90960, Note_on_c, 9, 45, 127
9, 91000, Note_on_c, 9, 45, 0
9, 91000, Note_on_c, 9, 45, 127
9, 91040, Note_on_c, 9, 45, 0
9, 91040, Note_on_c, 9, 45, 127
9, 91080, Note_on_c, 9, 45, 0
9, 91080, Note_on_c, 9, 45, 127
9, 91120, Note_on_c, 9, 45, 0
9, 91120, Note_on_c, 9, 45, 127
9, 91160, Note_on_c, 9, 45, 0
9, 91160, Note_on_c, 9, 45, 127
9, 91200, Note_on_c, 9, 45, 0
9, 91200, Note_on_c, 9, 45, 127
9, 91240, Note_on_c, 9, 45, 0
9, 91240, Note_on_c, 9, 45, 127
9, 91280, Note_on_c, 9, 45, 0
9, 91280, Note_on_c, 9, 45, 127
9, 91320, Note_on_c, 9, 45, 0
9, 91320, Note_on_c, 9, 57, 127
9, 91320, Note_on_c, 9, 35, 127
9, 91440, Note_on_c, 9, 57, 0
9, 91440, Note_on_c, 9, 35, 0
9, 91440, Note_on_c, 9, 42, 127
9, 91440, Note_on_c, 9, 38, 127
9, 91560, Note_on_c, 9, 42, 0
9, 91560, Note_on_c, 9, 38, 0
9, 91560, Note_on_c, 9, 42, 127
9, 91620, Note_on_c, 9, 35, 127
9, 91680, Note_on_c, 9, 42, 0
9, 91680, Note_on_c, 9, 35, 0
9, 91680, Note_on_c, 9, 38, 127
9, 91680, Note_on_c, 9, 42, 127
9, 91740, Note_on_c, 9, 35, 127
9, 91800, Note_on_c, 9, 38, 0
9, 91800, Note_on_c, 9, 42, 0
9, 91800, Note_on_c, 9, 35, 0
9, 91800, Note_on_c, 9, 42, 127
9, 91860, Note_on_c, 9, 35, 127
9, 91920, Note_on_c, 9, 42, 0
9, 91920, Note_on_c, 9, 35, 0
9, 91920, Note_on_c, 9, 38, 127
9, 91920, Note_on_c, 9, 42, 127
9, 91980, Note_on_c, 9, 35, 127
9, 92040, Note_on_c, 9, 38, 0
9, 92040, Note_on_c, 9, 42, 0
9, 92040, Note_on_c, 9, 35, 0
9, 92040, Note_on_c, 9, 42, 127
9, 92100, Note_on_c, 9, 35, 127
9, 92120, Note_on_c, 9, 35, 0
9, 92120, Note_on_c, 9, 36, 127
9, 92140, Note_on_c, 9, 36, 0
9, 92140, Note_on_c, 9, 35, 127
9, 92160, Note_on_c, 9, 42, 0
9, 92160, Note_on_c, 9, 35, 0
9, 92160, Note_on_c, 9, 57, 127
9, 92160, Note_on_c, 9, 38, 127
9, 92280, Note_on_c, 9, 57, 0
9, 92280, Note_on_c, 9, 38, 0
9, 92280, Note_on_c, 9, 42, 127
9, 92280, Note_on_c, 9, 35, 127
9, 92400, Note_on_c, 9, 42, 0
9, 92400, Note_on_c, 9, 35, 0
9, 92400, Note_on_c, 9, 38, 127
9, 92400, Note_on_c, 9, 42, 127
9, 92520, Note_on_c, 9, 38, 0
9, 92520, Note_on_c, 9, 42, 0
9, 92520, Note_on_c, 9, 42, 127
9, 92580, Note_on_c, 9, 35, 127
9, 92640, Note_on_c, 9, 42, 0
9, 92640, Note_on_c, 9, 35, 0
9, 92640, Note_on_c, 9, 38, 127
9, 92640, Note_on_c, 9, 42, 127
9, 92700, Note_on_c, 9, 35, 127
9, 92760, Note_on_c, 9, 38, 0
9, 92760, Note_on_c, 9, 42, 0
9, 92760, Note_on_c, 9, 35, 0
9, 92760, Note_on_c, 9, 42, 127
9, 92820, Note_on_c, 9, 35, 127
9, 92880, Note_on_c, 9, 42, 0
9, 92880, Note_on_c, 9, 35, 0
9, 92880, Note_on_c, 9, 38, 127
9, 92880, Note_on_c, 9, 42, 127
9, 92940, Note_on_c, 9, 35, 127
9, 93000, Note_on_c, 9, 38, 0
9, 93000, Note_on_c, 9, 42, 0
9, 93000, Note_on_c, 9, 35, 0
9, 93000, Note_on_c, 9, 42, 127
9, 93060, Note_on_c, 9, 35, 127
9, 93080, Note_on_c, 9, 35, 0
9, 93080, Note_on_c, 9, 36, 127
9, 93100, Note_on_c, 9, 36, 0
9, 93100, Note_on_c, 9, 35, 127
9, 93120, Note_on_c, 9, 42, 0
9, 93120, Note_on_c, 9, 35, 0
9, 93120, Note_on_c, 9, 57, 127
9, 93120, Note_on_c, 9, 38, 127
9, 93240, Note_on_c, 9, 57, 0
9, 93240, Note_on_c, 9, 38, 0
9, 93240, Note_on_c, 9, 35, 127
9, 93240, Note_on_c, 9, 57, 127
9, 93360, Note_on_c, 9, 35, 0
9, 93360, Note_on_c, 9, 57, 0
9, 93360, Note_on_c, 9, 38, 127
9, 93360, Note_on_c, 9, 57, 127
9, 93480, Note_on_c, 9, 38, 0
9, 93480, Note_on_c, 9, 57, 0
9, 93480, Note_on_c, 9, 42, 127
9, 93480, Note_on_c, 9, 35, 127
9, 93600, Note_on_c, 9, 42, 0
9, 93600, Note_on_c, 9, 35, 0
9, 93600, Note_on_c, 9, 38, 127
9, 93600, Note_on_c, 9, 42, 127
9, 93660, Note_on_c, 9, 35, 127
9, 93720, Note_on_c, 9, 38, 0
9, 93720, Note_on_c, 9, 42, 0
9, 93720, Note_on_c, 9, 35, 0
9, 93720, Note_on_c, 9, 42, 127
9, 93780, Note_on_c, 9, 35, 127
9, 93840, Note_on_c, 9, 42, 0
9, 93840, Note_on_c, 9, 35, 0
9, 93840, Note_on_c, 9, 38, 127
9, 93840, Note_on_c, 9, 42, 127
9, 93900, Note_on_c, 9, 35, 127
9, 93960, Note_on_c, 9, 38, 0
9, 93960, Note_on_c, 9, 42, 0
9, 93960, Note_on_c, 9, 35, 0
9, 93960, Note_on_c, 9, 42, 127
9, 94020, Note_on_c, 9, 35, 127
9, 94040, Note_on_c, 9, 35, 0
9, 94040, Note_on_c, 9, 36, 127
9, 94060, Note_on_c, 9, 36, 0
9, 94060, Note_on_c, 9, 35, 127
9, 94080, Note_on_c, 9, 42, 0
9, 94080, Note_on_c, 9, 35, 0
9, 94080, Note_on_c, 9, 57, 127
9, 94080, Note_on_c, 9, 38, 127
9, 94200, Note_on_c, 9, 57, 0
9, 94200, Note_on_c, 9, 38, 0
9, 94200, Note_on_c, 9, 42, 127
9, 94200, Note_on_c, 9, 35, 127
9, 94320, Note_on_c, 9, 42, 0
9, 94320, Note_on_c, 9, 35, 0
9, 94320, Note_on_c, 9, 38, 127
9, 94320, Note_on_c, 9, 42, 127
9, 94440, Note_on_c, 9, 38, 0
9, 94440, Note_on_c, 9, 42, 0
9, 94440, Note_on_c, 9, 42, 127
9, 94500, Note_on_c, 9, 35, 127
9, 94560, Note_on_c, 9, 42, 0
9, 94560, Note_on_c, 9, 35, 0
9, 94560, Note_on_c, 9, 38, 127
9, 94560, Note_on_c, 9, 42, 127
9, 94620, Note_on_c, 9, 35, 127
9, 94680, Note_on_c, 9, 38, 0
9, 94680, Note_on_c, 9, 42, 0
9, 94680, Note_on_c, 9, 35, 0
9, 94680, Note_on_c, 9, 42, 127
9, 94740, Note_on_c, 9, 35, 127
9, 94800, Note_on_c, 9, 42, 0
9, 94800, Note_on_c, 9, 35, 0
9, 94800, Note_on_c, 9, 38, 127
9, 94800, Note_on_c, 9, 42, 127
9, 94860, Note_on_c, 9, 35, 127
9, 94920, Note_on_c, 9, 38, 0
9, 94920, Note_on_c, 9, 42, 0
9, 94920, Note_on_c, 9, 35, 0
9, 94920, Note_on_c, 9, 42, 127
9, 94980, Note_on_c, 9, 35, 127
9, 95000, Note_on_c, 9, 35, 0
9, 95000, Note_on_c, 9, 36, 127
9, 95020, Note_on_c, 9, 36, 0
9, 95020, Note_on_c, 9, 35, 127
9, 95040, Note_on_c, 9, 42, 0
9, 95040, Note_on_c, 9, 35, 0
9, 95040, Note_on_c, 9, 57, 127
9, 95040, Note_on_c, 9, 38, 127
9, 95160, Note_on_c, 9, 57, 0
9, 95160, Note_on_c, 9, 38, 0
9, 95160, Note_on_c, 9, 38, 127
9, 95200, Note_on_c, 9, 38, 0
9, 95200, Note_on_c, 9, 38, 127
9, 95240, Note_on_c, 9, 38, 0
9, 95240, Note_on_c, 9, 38, 127
9, 95280, Note_on_c, 9, 38, 0
9, 95280, Note_on_c, 9, 38, 127
9, 95320, Note_on_c, 9, 38, 0
9, 95320, Note_on_c, 9, 38, 127
9, 95360, Note_on_c, 9, 38, 0
9, 95360, Note_on_c, 9, 38, 127
9, 95400, Note_on_c, 9, 38, 0
9, 95400, Note_on_c, 9, 38, 127
9, 95520, Note_on_c, 9, 38, 0
9, 95520, Note_on_c, 9, 38, 127
9, 95560, Note_on_c, 9, 38, 0
9, 95560, Note_on_c, 9, 38, 127
9, 95600, Note_on_c, 9, 38, 0
9, 95600, Note_on_c, 9, 38, 127
9, 95640, Note_on_c, 9, 38, 0
9, 95640, Note_on_c, 9, 38, 127
9, 95680, Note_on_c, 9, 38, 0
9, 95680, Note_on_c, 9, 38, 127
9, 95720, Note_on_c, 9, 38, 0
9, 95720, Note_on_c, 9, 38, 127
9, 95760, Note_on_c, 9, 38, 0
9, 95760, Note_on_c, 9, 45, 127
9, 95800, Note_on_c, 9, 45, 0
9, 95800, Note_on_c, 9, 45, 127
9, 95840, Note_on_c, 9, 45, 0
9, 95840, Note_on_c, 9, 45, 127
9, 95880, Note_on_c, 9, 45, 0
9, 95880, Note_on_c, 9, 45, 127
9, 95920, Note_on_c, 9, 45, 0
9, 95920, Note_on_c, 9, 45, 127
9, 95960, Note_on_c, 9, 45, 0
9, 95960, Note_on_c, 9, 45, 127
9, 96000, Note_on_c, 9, 45, 0
9, 96000, Note_on_c, 9, 45, 127
9, 96040, Note_on_c, 9, 45, 0
9, 96040, Note_on_c, 9, 45, 127
9, 96080, Note_on_c, 9, 45, 0
9, 96080, Note_on_c, 9, 45, 127
9, 96120, Note_on_c, 9, 45, 0
9, 96120, Note_on_c, 9, 57, 127
9, 96120, Note_on_c, 9, 35, 127
9, 96240, Note_on_c, 9, 57, 0
9, 96240, Note_on_c, 9, 35, 0
9, 96240, Note_on_c, 9, 42, 127
9, 96240, Note_on_c, 9, 38, 127
9, 96360, Note_on_c, 9, 42, 0
9, 96360, Note_on_c, 9, 38, 0
9, 96360, Note_on_c, 9, 42, 127
9, 96420, Note_on_c, 9, 35, 127
9, 96480, Note_on_c, 9, 42, 0
9, 96480, Note_on_c, 9, 35, 0
9, 96480, Note_on_c, 9, 38, 127
9, 96480, Note_on_c, 9, 42, 127
9, 96540, Note_on_c, 9, 35, 127
9, 96600, Note_on_c, 9, 38, 0
9, 96600, Note_on_c, 9, 42, 0
9, 96600, Note_on_c, 9, 35, 0
9, 96600, Note_on_c, 9, 42, 127
9, 96660, Note_on_c, 9, 35, 127
9, 96720, Note_on_c, 9, 42, 0
9, 96720, Note_on_c, 9, 35, 0
9, 96720, Note_on_c, 9, 38, 127
9, 96720, Note_on_c, 9, 42, 127
9, 96840, Note_on_c, 9, 38, 0
9, 96840, Note_on_c, 9, 42, 0
9, 96840, Note_on_c, 9, 42, 127
9, 96840, Note_on_c, 9, 35, 127
9, 96960, Note_on_c, 9, 42, 0
9, 96960, Note_on_c, 9, 35, 0
9, 96960, Note_on_c, 9, 38, 127
9, 96960, Note_on_c, 9, 42, 127
9, 97080, Note_on_c, 9, 38, 0
9, 97080, Note_on_c, 9, 42, 0
9, 97080, Note_on_c, 9, 42, 127
9, 97140, Note_on_c, 9, 35, 127
9, 97200, Note_on_c, 9, 42, 0
9, 97200, Note_on_c, 9, 35, 0
9, 97200, Note_on_c, 9, 38, 127
9, 97200, Note_on_c, 9, 42, 127
9, 97260, Note_on_c, 9, 35, 127
9, 97320, Note_on_c, 9, 38, 0
9, 97320, Note_on_c, 9, 42, 0
9, 97320, Note_on_c, 9, 35, 0
9, 97320, Note_on_c, 9, 42, 127
9, 97380, Note_on_c, 9, 35, 127
9, 97440, Note_on_c, 9, 42, 0
9, 97440, Note_on_c, 9, 35, 0
9, 97440, Note_on_c, 9, 38, 127
9, 97440, Note_on_c, 9, 42, 127
9, 97500, Note_on_c, 9, 35, 127
9, 97560, Note_on_c, 9, 38, 0
9, 97560, Note_on_c, 9, 42, 0
9, 97560, Note_on_c, 9, 35, 0
9, 97560, Note_on_c, 9, 42, 127
9, 97620, Note_on_c, 9, 35, 127
9, 97640, Note_on_c, 9, 35, 0
9, 97640, Note_on_c, 9, 36, 127
9, 97660, Note_on_c, 9, 36, 0
9, 97660, Note_on_c, 9, 35, 127
9, 97680, Note_on_c, 9, 42, 0
9, 97680, Note_on_c, 9, 35, 0
9, 97680, Note_on_c, 9, 38, 127
9, 97680, Note_on_c, 9, 42, 127
9, 97800, Note_on_c, 9, 38, 0
9, 97800, Note_on_c, 9, 42, 0
9, 97800, Note_on_c, 9, 35, 127
9, 97800, Note_on_c, 9, 42, 127
9, 97920, Note_on_c, 9, 35, 0
9, 97920, Note_on_c, 9, 42, 0
9, 97920, Note_on_c, 9, 42, 127
9, 97920, Note_on_c, 9, 38, 127
9, 98040, Note_on_c, 9, 42, 0
9, 98040, Note_on_c, 9, 38, 0
9, 98040, Note_on_c, 9, 42, 127
9, 98100, Note_on_c, 9, 35, 127
9, 98160, Note_on_c, 9, 42, 0
9, 98160, Note_on_c, 9, 35, 0
9, 98160, Note_on_c, 9, 38, 127
9, 98160, Note_on_c, 9, 42, 127
9, 98220, Note_on_c, 9, 35, 127
9, 98280, Note_on_c, 9, 38, 0
9, 98280, Note_on_c, 9, 42, 0
9, 98280, Note_on_c, 9, 35, 0
9, 98280, Note_on_c, 9, 42, 127
9, 98340, Note_on_c, 9, 35, 127
9, 98400, Note_on_c, 9, 42, 0
9, 98400, Note_on_c, 9, 35, 0
9, 98400, Note_on_c, 9, 38, 127
9, 98400, Note_on_c, 9, 42, 127
9, 98460, Note_on_c, 9, 35, 127
9, 98520, Note_on_c, 9, 38, 0
9, 98520, Note_on_c, 9, 42, 0
9, 98520, Note_on_c, 9, 35, 0
9, 98520, Note_on_c, 9, 42, 127
9, 98580, Note_on_c, 9, 35, 127
9, 98640, Note_on_c, 9, 42, 0
9, 98640, Note_on_c, 9, 35, 0
9, 98640, Note_on_c, 9, 38, 127
9, 98640, Note_on_c, 9, 42, 127
9, 98760, Note_on_c, 9, 38, 0
9, 98760, Note_on_c, 9, 42, 0
9, 98760, Note_on_c, 9, 42, 127
9, 98820, Note_on_c, 9, 35, 127
9, 98840, Note_on_c, 9, 35, 0
9, 98840, Note_on_c, 9, 36, 127
9, 98860, Note_on_c, 9, 36, 0
9, 98860, Note_on_c, 9, 35, 127
9, 98880, Note_on_c, 9, 42, 0
9, 98880, Note_on_c, 9, 35, 0
9, 98880, Note_on_c, 9, 38, 127
9, 98880, Note_on_c, 9, 42, 127
9, 99000, Note_on_c, 9, 38, 0
9, 99000, Note_on_c, 9, 42, 0
9, 99000, Note_on_c, 9, 42, 127
9, 99060, Note_on_c, 9, 35, 127
9, 99120, Note_on_c, 9, 42, 0
9, 99120, Note_on_c, 9, 35, 0
9, 99120, Note_on_c, 9, 38, 127
9, 99120, Note_on_c, 9, 42, 127
9, 99180, Note_on_c, 9, 35, 127
9, 99240, Note_on_c, 9, 38, 0
9, 99240, Note_on_c, 9, 42, 0
9, 99240, Note_on_c, 9, 35, 0
9, 99240, Note_on_c, 9, 42, 127
9, 99300, Note_on_c, 9, 35, 127
9, 99360, Note_on_c, 9, 42, 0
9, 99360, Note_on_c, 9, 35, 0
9, 99360, Note_on_c, 9, 38, 127
9, 99360, Note_on_c, 9, 42, 127
9, 99420, Note_on_c, 9, 35, 127
9, 99480, Note_on_c, 9, 38, 0
9, 99480, Note_on_c, 9, 42, 0
9, 99480, Note_on_c, 9, 35, 0
9, 99480, Note_on_c, 9, 42, 127
9, 99540, Note_on_c, 9, 35, 127
9, 99560, Note_on_c, 9, 35, 0
9, 99560, Note_on_c, 9, 36, 127
9, 99580, Note_on_c, 9, 36, 0
9, 99580, Note_on_c, 9, 35, 127
9, 99600, Note_on_c, 9, 42, 0
9, 99600, Note_on_c, 9, 35, 0
9, 99600, Note_on_c, 9, 38, 127
9, 99600, Note_on_c, 9, 42, 127
9, 99720, Note_on_c, 9, 38, 0
9, 99720, Note_on_c, 9, 42, 0
9, 99720, Note_on_c, 9, 35, 127
9, 99720, Note_on_c, 9, 42, 127
9, 99840, Note_on_c, 9, 35, 0
9, 99840, Note_on_c, 9, 42, 0
9, 99840, Note_on_c, 9, 42, 127
9, 99840, Note_on_c, 9, 38, 127
9, 99960, Note_on_c, 9, 42, 0
9, 99960, Note_on_c, 9, 38, 0
9, 99960, Note_on_c, 9, 42, 127
9, 100020, Note_on_c, 9, 35, 127
9, 100080, Note_on_c, 9, 42, 0
9, 100080, Note_on_c, 9, 35, 0
9, 100080, Note_on_c, 9, 38, 127
9, 100080, Note_on_c, 9, 42, 127
9, 100140, Note_on_c, 9, 35, 127
9, 100200, Note_on_c, 9, 38, 0
9, 100200, Note_on_c, 9, 42, 0
9, 100200, Note_on_c, 9, 35, 0
9, 100200, Note_on_c, 9, 42, 127
9, 100260, Note_on_c, 9, 35, 127
9, 100320, Note_on_c, 9, 42, 0
9, 100320, Note_on_c, 9, 35, 0
9, 100320, Note_on_c, 9, 38, 127
9, 100320, Note_on_c, 9, 42, 127
9, 100380, Note_on_c, 9, 35, 127
9, 100440, Note_on_c, 9, 38, 0
9, 100440, Note_on_c, 9, 42, 0
9, 100440, Note_on_c, 9, 35, 0
9, 100440, Note_on_c, 9, 42, 127
9, 100500, Note_on_c, 9, 35, 127
9, 100520, Note_on_c, 9, 35, 0
9, 100520, Note_on_c, 9, 36, 127
9, 100540, Note_on_c, 9, 36, 0
9, 100540, Note_on_c, 9, 35, 127
9, 100560, Note_on_c, 9, 42, 0
9, 100560, Note_on_c, 9, 35, 0
9, 100560, Note_on_c, 9, 38, 127
9, 100560, Note_on_c, 9, 42, 127
9, 100680, Note_on_c, 9, 38, 0
9, 100680, Note_on_c, 9, 42, 0
9, 100680, Note_on_c, 9, 35, 127
9, 100680, Note_on_c, 9, 42, 127
9, 100800, Note_on_c, 9, 35, 0
9, 100800, Note_on_c, 9, 42, 0
9, 100800, Note_on_c, 9, 42, 127
9, 100800, Note_on_c, 9, 38, 127
9, 100920, Note_on_c, 9, 42, 0
9, 100920, Note_on_c, 9, 38, 0
9, 100920, Note_on_c, 9, 42, 127
9, 100980, Note_on_c, 9, 35, 127
9, 101040, Note_on_c, 9, 42, 0
9, 101040, Note_on_c, 9, 35, 0
9, 101040, Note_on_c, 9, 38, 127
9, 101040, Note_on_c, 9, 42, 127
9, 101100, Note_on_c, 9, 35, 127
9, 101160, Note_on_c, 9, 38, 0
9, 101160, Note_on_c, 9, 42, 0
9, 101160, Note_on_c, 9, 35, 0
9, 101160, Note_on_c, 9, 42, 127
9, 101220, Note_on_c, 9, 35, 127
9, 101280, Note_on_c, 9, 42, 0
9, 101280, Note_on_c, 9, 35, 0
9, 101280, Note_on_c, 9, 38, 127
9, 101280, Note_on_c, 9, 42, 127
9, 101340, Note_on_c, 9, 35, 127
9, 101400, Note_on_c, 9, 38, 0
9, 101400, Note_on_c, 9, 42, 0
9, 101400, Note_on_c, 9, 35, 0
9, 101400, Note_on_c, 9, 42, 127
9, 101460, Note_on_c, 9, 35, 127
9, 101520, Note_on_c, 9, 42, 0
9, 101520, Note_on_c, 9, 35, 0
9, 101520, Note_on_c, 9, 38, 127
9, 101520, Note_on_c, 9, 42, 127
9, 101640, Note_on_c, 9, 38, 0
9, 101640, Note_on_c, 9, 42, 0
9, 101640, Note_on_c, 9, 42, 127
9, 101640, Note_on_c, 9, 35, 127
9, 101760, Note_on_c, 9, 42, 0
9, 101760, Note_on_c, 9, 35, 0
9, 101760, Note_on_c, 9, 38, 127
9, 101760, Note_on_c, 9, 42, 127
9, 101880, Note_on_c, 9, 38, 0
9, 101880, Note_on_c, 9, 42, 0
9, 101880, Note_on_c, 9, 42, 127
9, 101940, Note_on_c, 9, 35, 127
9, 102000, Note_on_c, 9, 42, 0
9, 102000, Note_on_c, 9, 35, 0
9, 102000, Note_on_c, 9, 38, 127
9, 102000, Note_on_c, 9, 42, 127
9, 102060, Note_on_c, 9, 35, 127
9, 102120, Note_on_c, 9, 38, 0
9, 102120, Note_on_c, 9, 42, 0
9, 102120, Note_on_c, 9, 35, 0
9, 102120, Note_on_c, 9, 42, 127
9, 102180, Note_on_c, 9, 35, 127
9, 102240, Note_on_c, 9, 42, 0
9, 102240, Note_on_c, 9, 35, 0
9, 102240, Note_on_c, 9, 38, 127
9, 102240, Note_on_c, 9, 42, 127
9, 102300, Note_on_c, 9, 35, 127
9, 102360, Note_on_c, 9, 38, 0
9, 102360, Note_on_c, 9, 42, 0
9, 102360, Note_on_c, 9, 35, 0
9, 102360, Note_on_c, 9, 42, 127
9, 102420, Note_on_c, 9, 35, 127
9, 102480, Note_on_c, 9, 42, 0
9, 102480, Note_on_c, 9, 35, 0
9, 102480, Note_on_c, 9, 38, 127
9, 102480, Note_on_c, 9, 42, 127
9, 102540, Note_on_c, 9, 35, 127
9, 102600, Note_on_c, 9, 38, 0
9, 102600, Note_on_c, 9, 42, 0
9, 102600, Note_on_c, 9, 35, 0
9, 102600, Note_on_c, 9, 42, 127
9, 102660, Note_on_c, 9, 35, 127
9, 102720, Note_on_c, 9, 42, 0
9, 102720, Note_on_c, 9, 35, 0
9, 102720, Note_on_c, 9, 38, 127
9, 102720, Note_on_c, 9, 42, 127
9, 102840, Note_on_c, 9, 38, 0
9, 102840, Note_on_c, 9, 42, 0
9, 102840, Note_on_c, 9, 42, 127
9, 102900, Note_on_c, 9, 35, 127
9, 102960, Note_on_c, 9, 42, 0
9, 102960, Note_on_c, 9, 35, 0
9, 102960, Note_on_c, 9, 38, 127
9, 102960, Note_on_c, 9, 42, 127
9, 103020, Note_on_c, 9, 35, 127
9, 103080, Note_on_c, 9, 38, 0
9, 103080, Note_on_c, 9, 42, 0
9, 103080, Note_on_c, 9, 35, 0
9, 103080, Note_on_c, 9, 42, 127
9, 103140, Note_on_c, 9, 35, 127
9, 103200, Note_on_c, 9, 42, 0
9, 103200, Note_on_c, 9, 35, 0
9, 103200, Note_on_c, 9, 42, 127
9, 103260, Note_on_c, 9, 35, 127
9, 103320, Note_on_c, 9, 42, 0
9, 103320, Note_on_c, 9, 35, 0
9, 103320, Note_on_c, 9, 42, 127
9, 103380, Note_on_c, 9, 35, 127
9, 103440, Note_on_c, 9, 42, 0
9, 103440, Note_on_c, 9, 35, 0
9, 103440, Note_on_c, 9, 38, 127
9, 103440, Note_on_c, 9, 42, 127
9, 103560, Note_on_c, 9, 38, 0
9, 103560, Note_on_c, 9, 42, 0
9, 103560, Note_on_c, 9, 42, 127
9, 103620, Note_on_c, 9, 35, 127
9, 103640, Note_on_c, 9, 35, 0
9, 103640, Note_on_c, 9, 36, 127
9, 103660, Note_on_c, 9, 36, 0
9, 103660, Note_on_c, 9, 35, 127
9, 103680, Note_on_c, 9, 42, 0
9, 103680, Note_on_c, 9, 35, 0
9, 103680, Note_on_c, 9, 38, 127
9, 103680, Note_on_c, 9, 42, 127
9, 103800, Note_on_c, 9, 38, 0
9, 103800, Note_on_c, 9, 42, 0
9, 103800, Note_on_c, 9, 35, 127
9, 103800, Note_on_c, 9, 42, 127
9, 103920, Note_on_c, 9, 35, 0
9, 103920, Note_on_c, 9, 42, 0
9, 103920, Note_on_c, 9, 38, 127
9, 103920, Note_on_c, 9, 42, 127
9, 103980, Note_on_c, 9, 35, 127
9, 104040, Note_on_c, 9, 38, 0
9, 104040, Note_on_c, 9, 42, 0
9, 104040, Note_on_c, 9, 35, 0
9, 104040, Note_on_c, 9, 42, 127
9, 104100, Note_on_c, 9, 35, 127
9, 104160, Note_on_c, 9, 42, 0
9, 104160, Note_on_c, 9, 35, 0
9, 104160, Note_on_c, 9, 38, 127
9, 104160, Note_on_c, 9, 42, 127
9, 104280, Note_on_c, 9, 38, 0
9, 104280, Note_on_c, 9, 42, 0
9, 104280, Note_on_c, 9, 35, 127
9, 104280, Note_on_c, 9, 57, 127
9, 104400, Note_on_c, 9, 35, 0
9, 104400, Note_on_c, 9, 57, 0
9, 104400, Note_on_c, 9, 35, 127
9, 104400, Note_on_c, 9, 38, 127
9, 104400, Note_on_c, 9, 57, 127
9, 104520, Note_on_c, 9, 35, 0
9, 104520, Note_on_c, 9, 38, 0
9, 104520, Note_on_c, 9, 57, 0
9, 104520, Note_on_c, 9, 35, 127
9, 104520, Note_on_c, 9, 57, 127
9, 104640, Note_on_c, 9, 35, 0
9, 104640, Note_on_c, 9, 57, 0
9, 104640, Note_on_c, 9, 35, 127
9, 104640, Note_on_c, 9, 38, 127
9, 104640, Note_on_c, 9, 57, 127
9, 104760, Note_on_c, 9, 35, 0
9, 104760, Note_on_c, 9, 38, 0
9, 104760, Note_on_c, 9, 57, 0
9, 104760, Note_on_c, 9, 57, 127
9, 104760, Note_on_c, 9, 35, 127
9, 104880, Note_on_c, 9, 57, 0
9, 104880, Note_on_c, 9, 35, 0
9, 104880, Note_on_c, 9, 42, 127
9, 104880, Note_on_c, 9, 38, 127
9, 105000, Note_on_c, 9, 42, 0
9, 105000, Note_on_c, 9, 38, 0
9, 105000, Note_on_c, 9, 35, 127
9, 105120, Note_on_c, 9, 35, 0
9, 105120, Note_on_c, 9, 38, 127
9, 105120, Note_on_c, 9, 42, 127
9, 105240, Note_on_c, 9, 38, 0
9, 105240, Note_on_c, 9, 42, 0
9, 105240, Note_on_c, 9, 42, 127
9, 105240, Note_on_c, 9, 35, 127
9, 105360, Note_on_c, 9, 42, 0
9, 105360, Note_on_c, 9, 35, 0
9, 105360, Note_on_c, 9, 57, 127
9, 105360, Note_on_c, 9, 38, 127
9, 105480, Note_on_c, 9, 57, 0
9, 105480, Note_on_c, 9, 38, 0
9, 105480, Note_on_c, 9, 42, 127
9, 105480, Note_on_c, 9, 35, 127
9, 105600, Note_on_c, 9, 42, 0
9, 105600, Note_on_c, 9, 35, 0
9, 105600, Note_on_c, 9, 57, 127
9, 105600, Note_on_c, 9, 38, 127
9, 105720, Note_on_c, 9, 57, 0
9, 105720, Note_on_c, 9, 38, 0
9, 105720, Note_on_c, 9, 42, 127
9, 105720, Note_on_c, 9, 35, 127
9, 105840, Note_on_c, 9, 42, 0
9, 105840, Note_on_c, 9, 35, 0
9, 105840, Note_on_c, 9, 42, 127
9, 105840, Note_on_c, 9, 38, 127
9, 105960, Note_on_c, 9, 42, 0
9, 105960, Note_on_c, 9, 38, 0
9, 105960, Note_on_c, 9, 35, 127
9, 106080, Note_on_c, 9, 35, 0
9, 106080, Note_on_c, 9, 38, 127
9, 106080, Note_on_c, 9, 42, 127
9, 106200, Note_on_c, 9, 38, 0
9, 106200, Note_on_c, 9, 42, 0
9, 106200, Note_on_c, 9, 42, 127
9, 106200, Note_on_c, 9, 35, 127
9, 106320, Note_on_c, 9, 42, 0
9, 106320, Note_on_c, 9, 35, 0
9, 106320, Note_on_c, 9, 57, 127
9, 106320, Note_on_c, 9, 38, 127
9, 106440, Note_on_c, 9, 57, 0
9, 106440, Note_on_c, 9, 38, 0
9, 106440, Note_on_c, 9, 42, 127
9, 106440, Note_on_c, 9, 35, 127
9, 106560, Note_on_c, 9, 42, 0
9, 106560, Note_on_c, 9, 35, 0
9, 106560, Note_on_c, 9, 57, 127
9, 106560, Note_on_c, 9, 38, 127
9, 106680, Note_on_c, 9, 57, 0
9, 106680, Note_on_c, 9, 38, 0
9, 106680, Note_on_c, 9, 42, 127
9, 106680, Note_on_c, 9, 35, 127
9, 106800, Note_on_c, 9, 42, 0
9, 106800, Note_on_c, 9, 35, 0
9, 106800, Note_on_c, 9, 42, 127
9, 106800, Note_on_c, 9, 38, 127
9, 106920, Note_on_c, 9, 42, 0
9, 106920, Note_on_c, 9, 38, 0
9, 106920, Note_on_c, 9, 35, 127
9, 107040, Note_on_c, 9, 35, 0
9, 107040, Note_on_c, 9, 38, 127
9, 107040, Note_on_c, 9, 42, 127
9, 107160, Note_on_c, 9, 38, 0
9, 107160, Note_on_c, 9, 42, 0
9, 107160, Note_on_c, 9, 42, 127
9, 107160, Note_on_c, 9, 35, 127
9, 107280, Note_on_c, 9, 42, 0
9, 107280, Note_on_c, 9, 35, 0
9, 107280, Note_on_c, 9, 57, 127
9, 107280, Note_on_c, 9, 38, 127
9, 107400, Note_on_c, 9, 57, 0
9, 107400, Note_on_c, 9, 38, 0
9, 107400, Note_on_c, 9, 42, 127
9, 107400, Note_on_c, 9, 35, 127
9, 107520, Note_on_c, 9, 42, 0
9, 107520, Note_on_c, 9, 35, 0
9, 107520, Note_on_c, 9, 57, 127
9, 107520, Note_on_c, 9, 38, 127
9, 107640, Note_on_c, 9, 57, 0
9, 107640, Note_on_c, 9, 38, 0
9, 107640, Note_on_c, 9, 42, 127
9, 107640, Note_on_c, 9, 35, 127
9, 107760, Note_on_c, 9, 42, 0
9, 107760, Note_on_c, 9, 35, 0
9, 107760, Note_on_c, 9, 42, 127
9, 107760, Note_on_c, 9, 38, 127
9, 107880, Note_on_c, 9, 42, 0
9, 107880, Note_on_c, 9, 38, 0
9, 107880, Note_on_c, 9, 35, 127
9, 108000, Note_on_c, 9, 35, 0
9, 108000, Note_on_c, 9, 38, 127
9, 108000, Note_on_c, 9, 42, 127
9, 108120, Note_on_c, 9, 38, 0
9, 108120, Note_on_c, 9, 42, 0
9, 108120, Note_on_c, 9, 42, 127
9, 108120, Note_on_c, 9, 35, 127
9, 108240, Note_on_c, 9, 42, 0
9, 108240, Note_on_c, 9, 35, 0
9, 108240, Note_on_c, 9, 57, 127
9, 108240, Note_on_c, 9, 38, 127
9, 108360, Note_on_c, 9, 57, 0
9, 108360, Note_on_c, 9, 38, 0
9, 108360, Note_on_c, 9, 42, 127
9, 108420, Note_on_c, 9, 35, 127
9, 108440, Note_on_c, 9, 35, 0
9, 108440, Note_on_c, 9, 36, 127
9, 108460, Note_on_c, 9, 36, 0
9, 108460, Note_on_c, 9, 35, 127
9, 108475, Note_on_c, 9, 38, 75
9, 108480, Note_on_c, 9, 42, 0
9, 108480, Note_on_c, 9, 35, 0
9, 108480, Note_on_c, 9, 38, 0
9, 108480, Note_on_c, 9, 57, 127
9, 108480, Note_on_c, 9, 38, 127
9, 108600, Note_on_c, 9, 57, 0
9, 108600, Note_on_c, 9, 38, 0
9, 108600, Note_on_c, 9, 35, 127
9, 108660, Note_on_c, 9, 35, 0
9, 108660, Note_on_c, 9, 35, 127
9, 108720, Note_on_c, 9, 35, 0
9, 108720, Note_on_c, 9, 38, 127
9, 108720, Note_on_c, 9, 57, 127
9, 108840, Note_on_c, 9, 38, 0
9, 108840, Note_on_c, 9, 57, 0
9, 108840, Note_on_c, 9, 35, 127
9, 108900, Note_on_c, 9, 35, 0
9, 108900, Note_on_c, 9, 35, 127
9, 108960, Note_on_c, 9, 35, 0
9, 108960, Note_on_c, 9, 38, 127
9, 108960, Note_on_c, 9, 57, 127
9, 109080, Note_on_c, 9, 38, 0
9, 109080, Note_on_c, 9, 57, 0
9, 109080, Note_on_c, 9, 35, 127
9, 109140, Note_on_c, 9, 35, 0
9, 109140, Note_on_c, 9, 35, 127
9, 109200, Note_on_c, 9, 35, 0
9, 109200, Note_on_c, 9, 38, 127
9, 109200, Note_on_c, 9, 57, 127
9, 109320, Note_on_c, 9, 38, 0
9, 109320, Note_on_c, 9, 57, 0
9, 109320, Note_on_c, 9, 35, 127
9, 109380, Note_on_c, 9, 35, 0
9, 109380, Note_on_c, 9, 35, 127
9, 109440, Note_on_c, 9, 35, 0
9, 109440, Note_on_c, 9, 38, 127
9, 109440, Note_on_c, 9, 57, 127
9, 109560, Note_on_c, 9, 38, 0
9, 109560, Note_on_c, 9, 57, 0
9, 109560, Note_on_c, 9, 35, 127
9, 109560, Note_on_c, 9, 42, 127
9, 109680, Note_on_c, 9, 35, 0
9, 109680, Note_on_c, 9, 42, 0
9, 109680, Note_on_c, 9, 42, 127
9, 109680, Note_on_c, 9, 38, 127
9, 109800, Note_on_c, 9, 42, 0
9, 109800, Note_on_c, 9, 38, 0
9, 109800, Note_on_c, 9, 42, 127
9, 109860, Note_on_c, 9, 35, 127
9, 109920, Note_on_c, 9, 42, 0
9, 109920, Note_on_c, 9, 35, 0
9, 109920, Note_on_c, 9, 38, 127
9, 109920, Note_on_c, 9, 42, 127
9, 109980, Note_on_c, 9, 35, 127
9, 110040, Note_on_c, 9, 38, 0
9, 110040, Note_on_c, 9, 42, 0
9, 110040, Note_on_c, 9, 35, 0
9, 110040, Note_on_c, 9, 42, 127
9, 110100, Note_on_c, 9, 35, 127
9, 110160, Note_on_c, 9, 42, 0
9, 110160, Note_on_c, 9, 35, 0
9, 110160, Note_on_c, 9, 38, 127
9, 110160, Note_on_c, 9, 42, 127
9, 110220, Note_on_c, 9, 35, 127
9, 110280, Note_on_c, 9, 38, 0
9, 110280, Note_on_c, 9, 42, 0
9, 110280, Note_on_c, 9, 35, 0
9, 110280, Note_on_c, 9, 42, 127
9, 110340, Note_on_c, 9, 35, 127
9, 110360, Note_on_c, 9, 35, 0
9, 110360, Note_on_c, 9, 36, 127
9, 110380, Note_on_c, 9, 36, 0
9, 110380, Note_on_c, 9, 35, 127
9, 110395, Note_on_c, 9, 38, 75
9, 110400, Note_on_c, 9, 42, 0
9, 110400, Note_on_c, 9, 35, 0
9, 110400, Note_on_c, 9, 38, 0
9, 110400, Note_on_c, 9, 38, 127
9, 110520, Note_on_c, 9, 38, 0
9, 110520, Note_on_c, 9, 35, 127
9, 110580, Note_on_c, 9, 35, 0
9, 110580, Note_on_c, 9, 35, 127
9, 110640, Note_on_c, 9, 35, 0
9, 110640, Note_on_c, 9, 38, 127
9, 110640, Note_on_c, 9, 57, 127
9, 110760, Note_on_c, 9, 38, 0
9, 110760, Note_on_c, 9, 57, 0
9, 110760, Note_on_c, 9, 35, 127
9, 110820, Note_on_c, 9, 35, 0
9, 110820, Note_on_c, 9, 35, 127
9, 110880, Note_on_c, 9, 35, 0
9, 110880, Note_on_c, 9, 38, 127
9, 110880, Note_on_c, 9, 57, 127
9, 111000, Note_on_c, 9, 38, 0
9, 111000, Note_on_c, 9, 57, 0
9, 111000, Note_on_c, 9, 35, 127
9, 111060, Note_on_c, 9, 35, 0
9, 111060, Note_on_c, 9, 35, 127
9, 111120, Note_on_c, 9, 35, 0
9, 111120, Note_on_c, 9, 38, 127
9, 111120, Note_on_c, 9, 57, 127
9, 111240, Note_on_c, 9, 38, 0
9, 111240, Note_on_c, 9, 57, 0
9, 111240, Note_on_c, 9, 35, 127
9, 111300, Note_on_c, 9, 35, 0
9, 111300, Note_on_c, 9, 35, 127
9, 111360, Note_on_c, 9, 35, 0
9, 111360, Note_on_c, 9, 38, 127
9, 111360, Note_on_c, 9, 57, 127
9, 111480, Note_on_c, 9, 38, 0
9, 111480, Note_on_c, 9, 57, 0
9, 111480, Note_on_c, 9, 35, 127
9, 111480, Note_on_c, 9, 42, 127
9, 111600, Note_on_c, 9, 35, 0
9, 111600, Note_on_c, 9, 42, 0
9, 111600, Note_on_c, 9, 38, 127
9, 111600, Note_on_c, 9, 42, 127
9, 111660, Note_on_c, 9, 35, 127
9, 111720, Note_on_c, 9, 38, 0
9, 111720, Note_on_c, 9, 42, 0
9, 111720, Note_on_c, 9, 35, 0
9, 111720, Note_on_c, 9, 42, 127
9, 111780, Note_on_c, 9, 35, 127
9, 111800, Note_on_c, 9, 35, 0
9, 111800, Note_on_c, 9, 36, 127
9, 111820, Note_on_c, 9, 36, 0
9, 111820, Note_on_c, 9, 35, 127
9, 111835, Note_on_c, 9, 38, 75
9, 111840, Note_on_c, 9, 42, 0
9, 111840, Note_on_c, 9, 35, 0
9, 111840, Note_on_c, 9, 38, 0
9, 111840, Note_on_c, 9, 38, 127
9, 111960, Note_on_c, 9, 38, 0
9, 111960, Note_on_c, 9, 35, 127
9, 112020, Note_on_c, 9, 35, 0
9, 112020, Note_on_c, 9, 35, 127
9, 112080, Note_on_c, 9, 35, 0
9, 112080, Note_on_c, 9, 38, 127
9, 112080, Note_on_c, 9, 57, 127
9, 112200, Note_on_c, 9, 38, 0
9, 112200, Note_on_c, 9, 57, 0
9, 112200, Note_on_c, 9, 35, 127
9, 112260, Note_on_c, 9, 35, 0
9, 112260, Note_on_c, 9, 35, 127
9, 112320, Note_on_c, 9, 35, 0
9, 112320, Note_on_c, 9, 38, 127
9, 112320, Note_on_c, 9, 57, 127
9, 112440, Note_on_c, 9, 38, 0
9, 112440, Note_on_c, 9, 57, 0
9, 112440, Note_on_c, 9, 35, 127
9, 112440, Note_on_c, 9, 42, 127
9, 112560, Note_on_c, 9, 35, 0
9, 112560, Note_on_c, 9, 42, 0
9, 112560, Note_on_c, 9, 38, 127
9, 112560, Note_on_c, 9, 42, 127
9, 112620, Note_on_c, 9, 35, 127
9, 112680, Note_on_c, 9, 38, 0
9, 112680, Note_on_c, 9, 42, 0
9, 112680, Note_on_c, 9, 35, 0
9, 112680, Note_on_c, 9, 42, 127
9, 112740, Note_on_c, 9, 35, 127
9, 112760, Note_on_c, 9, 35, 0
9, 112760, Note_on_c, 9, 36, 127
9, 112780, Note_on_c, 9, 36, 0
9, 112780, Note_on_c, 9, 35, 127
9, 112795, Note_on_c, 9, 38, 75
9, 112800, Note_on_c, 9, 42, 0
9, 112800, Note_on_c, 9, 35, 0
9, 112800, Note_on_c, 9, 38, 0
9, 112800, Note_on_c, 9, 38, 127
9, 112920, Note_on_c, 9, 38, 0
9, 112920, Note_on_c, 9, 35, 127
9, 112980, Note_on_c, 9, 35, 0
9, 112980, Note_on_c, 9, 35, 127
9, 113040, Note_on_c, 9, 35, 0
9, 113040, Note_on_c, 9, 38, 127
9, 113040, Note_on_c, 9, 57, 127
9, 113160, Note_on_c, 9, 38, 0
9, 113160, Note_on_c, 9, 57, 0
9, 113160, Note_on_c, 9, 35, 127
9, 113220, Note_on_c, 9, 35, 0
9, 113220, Note_on_c, 9, 35, 127
9, 113280, Note_on_c, 9, 35, 0
9, 113280, Note_on_c, 9, 38, 127
9, 113280, Note_on_c, 9, 57, 127
9, 113400, Note_on_c, 9, 38, 0
9, 113400, Note_on_c, 9, 57, 0
9, 113400, Note_on_c, 9, 35, 127
9, 113400, Note_on_c, 9, 42, 127
9, 113520, Note_on_c, 9, 35, 0
9, 113520, Note_on_c, 9, 42, 0
9, 113520, Note_on_c, 9, 38, 127
9, 113520, Note_on_c, 9, 42, 127
9, 113580, Note_on_c, 9, 35, 127
9, 113640, Note_on_c, 9, 38, 0
9, 113640, Note_on_c, 9, 42, 0
9, 113640, Note_on_c, 9, 35, 0
9, 113640, Note_on_c, 9, 42, 127
9, 113700, Note_on_c, 9, 35, 127
9, 113720, Note_on_c, 9, 35, 0
9, 113720, Note_on_c, 9, 36, 127
9, 113740, Note_on_c, 9, 36, 0
9, 113740, Note_on_c, 9, 35, 127
9, 113755, Note_on_c, 9, 38, 75
9, 113760, Note_on_c, 9, 42, 0
9, 113760, Note_on_c, 9, 35, 0
9, 113760, Note_on_c, 9, 38, 0
9, 113760, Note_on_c, 9, 38, 127
9, 113880, Note_on_c, 9, 38, 0
9, 113880, Note_on_c, 9, 35, 127
9, 113940, Note_on_c, 9, 35, 0
9, 113940, Note_on_c, 9, 35, 127
9, 114000, Note_on_c, 9, 35, 0
9, 114000, Note_on_c, 9, 38, 127
9, 114000, Note_on_c, 9, 57, 127
9, 114120, Note_on_c, 9, 38, 0
9, 114120, Note_on_c, 9, 57, 0
9, 114120, Note_on_c, 9, 35, 127
9, 114180, Note_on_c, 9, 35, 0
9, 114180, Note_on_c, 9, 35, 127
9, 114240, Note_on_c, 9, 35, 0
9, 114240, Note_on_c, 9, 38, 127
9, 114240, Note_on_c, 9, 57, 127
9, 114360, Note_on_c, 9, 38, 0
9, 114360, Note_on_c, 9, 57, 0
9, 114360, Note_on_c, 9, 35, 127
9, 114360, Note_on_c, 9, 42, 127
9, 114480, Note_on_c, 9, 35, 0
9, 114480, Note_on_c, 9, 42, 0
9, 114480, Note_on_c, 9, 38, 127
9, 114480, Note_on_c, 9, 42, 127
9, 114540, Note_on_c, 9, 35, 127
9, 114600, Note_on_c, 9, 38, 0
9, 114600, Note_on_c, 9, 42, 0
9, 114600, Note_on_c, 9, 35, 0
9, 114600, Note_on_c, 9, 42, 127
9, 114660, Note_on_c, 9, 35, 127
9, 114680, Note_on_c, 9, 35, 0
9, 114680, Note_on_c, 9, 36, 127
9, 114700, Note_on_c, 9, 36, 0
9, 114700, Note_on_c, 9, 35, 127
9, 114715, Note_on_c, 9, 38, 75
9, 114720, Note_on_c, 9, 42, 0
9, 114720, Note_on_c, 9, 35, 0
9, 114720, Note_on_c, 9, 38, 0
9, 114720, Note_on_c, 9, 38, 127
9, 114840, Note_on_c, 9, 38, 0
9, 114840, Note_on_c, 9, 35, 127
9, 114900, Note_on_c, 9, 35, 0
9, 114900, Note_on_c, 9, 35, 127
9, 114960, Note_on_c, 9, 35, 0
9, 114960, Note_on_c, 9, 38, 127
9, 114960, Note_on_c, 9, 57, 127
9, 115080, Note_on_c, 9, 38, 0
9, 115080, Note_on_c, 9, 57, 0
9, 115080, Note_on_c, 9, 35, 127
9, 115140, Note_on_c, 9, 35, 0
9, 115140, Note_on_c, 9, 35, 127
9, 115200, Note_on_c, 9, 35, 0
9, 115200, Note_on_c, 9, 38, 127
9, 115200, Note_on_c, 9, 57, 127
9, 115320, Note_on_c, 9, 38, 0
9, 115320, Note_on_c, 9, 57, 0
9, 115320, Note_on_c, 9, 35, 127
9, 115380, Note_on_c, 9, 35, 0
9, 115380, Note_on_c, 9, 35, 127
9, 115440, Note_on_c, 9, 35, 0
9, 115440, Note_on_c, 9, 38, 127
9, 115440, Note_on_c, 9, 57, 127
9, 115560, Note_on_c, 9, 38, 0
9, 115560, Note_on_c, 9, 57, 0
9, 115560, Note_on_c, 9, 35, 127
9, 115620, Note_on_c, 9, 35, 0
9, 115620, Note_on_c, 9, 35, 127
9, 115680, Note_on_c, 9, 35, 0
9, 115680, Note_on_c, 9, 38, 127
9, 115680, Note_on_c, 9, 57, 127
9, 115800, Note_on_c, 9, 38, 0
9, 115800, Note_on_c, 9, 57, 0
9, 115800, Note_on_c, 9, 57, 127
9, 115800, Note_on_c, 9, 35, 127
9, 115920, Note_on_c, 9, 57, 0
9, 115920, Note_on_c, 9, 35, 0
9, 115920, Note_on_c, 9, 57, 127
9, 115920, Note_on_c, 9, 38, 127
9, 116040, Note_on_c, 9, 57, 0
9, 116040, Note_on_c, 9, 38, 0
9, 116040, Note_on_c, 9, 57, 127
9, 116040, Note_on_c, 9, 35, 127
9, 116160, Note_on_c, 9, 57, 0
9, 116160, Note_on_c, 9, 35, 0
9, 116160, Note_on_c, 9, 57, 127
9, 116160, Note_on_c, 9, 38, 127
9, 116280, Note_on_c, 9, 57, 0
9, 116280, Note_on_c, 9, 38, 0
9, 116280, Note_on_c, 9, 35, 127
9, 116280, Note_on_c, 9, 57, 127
9, 116400, Note_on_c, 9, 35, 0
9, 116400, Note_on_c, 9, 57, 0
9, 116400, Note_on_c, 9, 38, 127
9, 116400, Note_on_c, 9, 57, 127
9, 116520, Note_on_c, 9, 38, 0
9, 116520, Note_on_c, 9, 57, 0
9, 116520, Note_on_c, 9, 35, 127
9, 116640, Note_on_c, 9, 35, 0
9, 116640, Note_on_c, 9, 38, 127
9, 116640, Note_on_c, 9, 57, 127
9, 116760, Note_on_c, 9, 38, 0
9, 116760, Note_on_c, 9, 57, 0
9, 116760, Note_on_c, 9, 38, 127
9, 116800, Note_on_c, 9, 38, 0
9, 116800, Note_on_c, 9, 38, 127
9, 116840, Note_on_c, 9, 38, 0
9, 116840, Note_on_c, 9, 38, 127
9, 116880, Note_on_c, 9, 38, 0
9, 116880, Note_on_c, 9, 38, 127
9, 116920, Note_on_c, 9, 38, 0
9, 116920, Note_on_c, 9, 38, 127
9, 116960, Note_on_c, 9, 38, 0
9, 116960, Note_on_c, 9, 38, 127
9, 117000, Note_on_c, 9, 38, 0
9, 117000, Note_on_c, 9, 38, 127
9, 117120, Note_on_c, 9, 38, 0
9, 117120, Note_on_c, 9, 38, 127
9, 117160, Note_on_c, 9, 38, 0
9, 117160, Note_on_c, 9, 38, 127
9, 117200, Note_on_c, 9, 38, 0
9, 117200, Note_on_c, 9, 38, 127
9, 117240, Note_on_c, 9, 38, 0
9, 117240, Note_on_c, 9, 38, 127
9, 117280, Note_on_c, 9, 38, 0
9, 117280, Note_on_c, 9, 38, 127
9, 117320, Note_on_c, 9, 38, 0
9, 117320, Note_on_c, 9, 38, 127
9, 117360, Note_on_c, 9, 38, 0
9, 117360, Note_on_c, 9, 38, 127
9, 117480, Note_on_c, 9, 38, 0
9, 117480, End_track
10, 0, Start_track
10, 0, Sequencer_specific, 5, 5, 15, 9, 8, 64
10, 0, Sequencer_specific, 15, 5, 15, 6, 71, 101, 110, 101, 114, 97, 108, 32, 77, 73, 68, 73
10, 0, MIDI_port, 0
10, 0, Title_t, " "
10, 0, End_track
11, 0, Start_track
11, 0, Sequencer_specific, 5, 5, 15, 9, 8, 64
11, 0, Sequencer_specific, 15, 5, 15, 6, 71, 101, 110, 101, 114, 97, 108, 32, 77, 73, 68, 73
11, 0, MIDI_port, 0
11, 0, Title_t, "One"
11, 0, End_track
12, 0, Start_track
12, 0, Sequencer_specific, 5, 5, 15, 9, 8, 64
12, 0, Sequencer_specific, 15, 5, 15, 6, 71, 101, 110, 101, 114, 97, 108, 32, 77, 73, 68, 73
12, 0, MIDI_port, 0
12, 0, Title_t, "by Metallica"
12, 0, End_track
13, 0, Start_track
13, 0, Sequencer_specific, 5, 5, 15, 9, 8, 64
13, 0, Sequencer_specific, 15, 5, 15, 6, 71, 101, 110, 101, 114, 97, 108, 32, 77, 73, 68, 73
13, 0, MIDI_port, 0
13, 0, Title_t, " "
13, 0, End_track
14, 0, Start_track
14, 0, Sequencer_specific, 5, 5, 15, 9, 8, 64
14, 0, Sequencer_specific, 15, 5, 15, 6, 71, 101, 110, 101, 114, 97, 108, 32, 77, 73, 68, 73
14, 0, MIDI_port, 0
14, 0, Title_t, "Transcribed by"
14, 0, End_track
15, 0, Start_track
15, 0, Sequencer_specific, 5, 5, 15, 9, 8, 64
15, 0, Sequencer_specific, 15, 5, 15, 6, 71, 101, 110, 101, 114, 97, 108, 32, 77, 73, 68, 73
15, 0, MIDI_port, 0
15, 0, Title_t, "King Diamond"
15, 0, End_track
0, 0, End_of_file
