3, 3660, Note_on_c, 40
3, 3690, Note_off_c, 40
3, 3690, Note_on_c, 42
3, 3720, Note_off_c, 42
3, 3720, Note_on_c, 45
3, 3750, Note_off_c, 45
3, 3780, Note_on_c, 47
3, 4080, Note_off_c, 47
3, 4140, Note_on_c, 50
3, 4170, Note_off_c, 50
3, 4170, Note_on_c, 49
3, 4200, Note_off_c, 49
3, 4200, Note_on_c, 47
3, 4260, Note_off_c, 47
3, 4320, Note_on_c, 50
3, 4350, Note_off_c, 50
3, 4350, Note_on_c, 49
3, 4380, Note_off_c, 49
3, 4380, Note_on_c, 45
3, 4440, Note_off_c, 45
3, 4500, Note_on_c, 50
3, 4560, Note_off_c, 50
3, 4560, Note_on_c, 50
3, 4590, Note_off_c, 50
3, 4590, Note_on_c, 49
3, 4620, Note_off_c, 49
3, 4620, Note_on_c, 47
3, 5040, Note_off_c, 47
3, 5100, Note_on_c, 54
3, 5130, Note_off_c, 54
3, 5130, Note_on_c, 52
3, 5160, Note_off_c, 52
3, 5160, Note_on_c, 50
3, 5190, Note_off_c, 50
3, 5190, Note_on_c, 52
3, 5220, Note_off_c, 52
3, 5220, Note_on_c, 50
3, 5250, Note_off_c, 50
3, 5280, Note_on_c, 50
3, 5300, Note_off_c, 50
3, 5300, Note_on_c, 49
3, 5320, Note_off_c, 49
3, 5320, Note_on_c, 43
3, 5340, Note_off_c, 43
3, 5340, Note_on_c, 45
3, 5370, Note_off_c, 45
3, 5370, Note_on_c, 49
3, 5400, Note_off_c, 49
3, 5400, Note_on_c, 47
3, 5430, Note_off_c, 47
3, 5430, Note_on_c, 43
3, 5460, Note_off_c, 43
3, 5460, Note_on_c, 45
3, 5520, Note_off_c, 45
3, 5520, Note_on_c, 47
3, 5880, Note_off_c, 47
3, 5880, Note_on_c, 47
3, 5940, Note_off_c, 47
3, 5940, Note_on_c, 49
3, 5970, Note_off_c, 49
3, 5970, Note_on_c, 50
3, 6000, Note_off_c, 50
3, 6000, Note_on_c, 49
3, 6240, Note_off_c, 49
3, 6240, Note_on_c, 47
3, 6300, Note_off_c, 47
3, 6300, Note_on_c, 49
3, 6360, Note_off_c, 49
3, 6360, Note_on_c, 50
3, 6390, Note_off_c, 50
3, 6390, Note_on_c, 49
3, 6420, Note_off_c, 49
3, 6420, Note_on_c, 45
3, 6480, Note_off_c, 45
3, 6480, Note_on_c, 47
3, 6960, Note_off_c, 47
3, 7494, Note_off_c, 54
3, 7496, Note_off_c, 59
3, 7498, Note_off_c, 62
3, 7499, Note_off_c, 54
3, 7500, Note_off_c, 62
3, 7500, Note_on_c, 66
3, 7501, Note_off_c, 59
3, 7560, Note_off_c, 66
3, 7560, Note_on_c, 71
3, 7620, Note_off_c, 71
3, 7680, Note_on_c, 69
3, 7710, Note_off_c, 69
3, 7710, Note_on_c, 67
3, 7740, Note_off_c, 67
3, 7740, Note_on_c, 66
3, 7770, Note_off_c, 66
3, 7770, Note_on_c, 67
3, 7800, Note_off_c, 67
3, 7800, Note_on_c, 62
3, 8160, Note_off_c, 62
3, 8220, Note_on_c, 50
3, 8250, Note_off_c, 50
3, 8250, Note_on_c, 49
3, 8280, Note_off_c, 49
3, 8280, Note_on_c, 50
3, 8340, Note_off_c, 50
3, 8400, Note_on_c, 52
3, 8430, Note_off_c, 52
3, 8430, Note_on_c, 50
3, 8460, Note_off_c, 50
3, 8460, Note_on_c, 52
3, 8520, Note_off_c, 52
3, 8580, Note_on_c, 54
3, 8610, Note_off_c, 54
3, 8610, Note_on_c, 52
3, 8640, Note_off_c, 52
3, 8640, Note_on_c, 54
3, 8700, Note_off_c, 54
3, 8760, Note_on_c, 55
3, 8820, Note_off_c, 55
3, 8820, Note_on_c, 55
3, 8880, Note_off_c, 55
3, 8880, Note_on_c, 54
3, 9150, Note_off_c, 54
3, 9180, Note_on_c, 47
3, 9210, Note_off_c, 47
3, 9210, Note_on_c, 50
3, 9240, Note_off_c, 50
3, 9240, Note_on_c, 54
3, 9270, Note_off_c, 54
3, 9270, Note_on_c, 55
3, 9300, Note_off_c, 55
3, 9300, Note_on_c, 57
3, 9330, Note_off_c, 57
3, 9360, Note_on_c, 47
3, 9390, Note_off_c, 47
3, 9390, Note_on_c, 50
3, 9420, Note_off_c, 50
3, 9420, Note_on_c, 54
3, 9450, Note_off_c, 54
3, 9450, Note_on_c, 55
3, 9480, Note_off_c, 55
3, 9480, Note_on_c, 59
3, 9510, Note_off_c, 59
3, 9540, Note_on_c, 47
3, 9570, Note_off_c, 47
3, 9570, Note_on_c, 50
3, 9600, Note_off_c, 50
3, 9600, Note_on_c, 54
3, 9630, Note_off_c, 54
3, 9630, Note_on_c, 59
3, 9660, Note_off_c, 59
3, 9660, Note_on_c, 61
3, 9715, Note_off_c, 61
3, 9720, Note_off_c, 61
3, 9720, Note_off_c, 73
3, 9720, Note_on_c, 62
3, 9775, Note_off_c, 62
3, 9780, Note_off_c, 62
3, 9780, Note_off_c, 74
3, 9780, Note_on_c, 64
3, 9840, Note_off_c, 64
3, 9840, Note_on_c, 62
3, 9900, Note_off_c, 62
3, 9900, Note_on_c, 61
3, 9960, Note_off_c, 61
3, 9960, Note_on_c, 59
3, 10020, Note_off_c, 59
3, 10020, Note_on_c, 61
3, 10080, Note_off_c, 61
3, 10080, Note_on_c, 61
3, 10170, Note_off_c, 61
3, 10170, Note_on_c, 62
3, 10200, Note_off_c, 62
3, 10200, Note_on_c, 59
3, 10560, Note_off_c, 59
3, 11040, Note_on_c, 35
3, 11100, Note_off_c, 35
3, 11100, Note_on_c, 42
3, 11160, Note_off_c, 42
3, 11160, Note_on_c, 35
3, 11220, Note_off_c, 35
3, 11220, Note_on_c, 38
3, 11250, Note_off_c, 38
3, 11250, Note_on_c, 38
3, 11280, Note_off_c, 38
3, 11280, Note_on_c, 42
3, 11340, Note_off_c, 42
3, 11340, Note_on_c, 38
3, 11400, Note_off_c, 38
3, 11400, Note_on_c, 31
3, 11460, Note_off_c, 31
3, 11460, Note_on_c, 42
3, 11520, Note_off_c, 42
3, 11520, Note_on_c, 31
3, 11580, Note_off_c, 31
3, 11580, Note_on_c, 38
3, 11640, Note_off_c, 38
3, 11640, Note_on_c, 42
3, 11670, Note_off_c, 42
3, 11670, Note_on_c, 42
3, 11700, Note_off_c, 42
3, 11700, Note_on_c, 38
3, 11760, Note_off_c, 38
3, 11760, Note_on_c, 35
3, 11820, Note_off_c, 35
3, 11820, Note_on_c, 42
3, 11880, Note_off_c, 42
3, 11880, Note_on_c, 35
3, 11940, Note_off_c, 35
3, 11940, Note_on_c, 38
3, 11970, Note_off_c, 38
3, 11970, Note_on_c, 38
3, 12000, Note_off_c, 38
3, 12000, Note_on_c, 42
3, 12060, Note_off_c, 42
3, 12060, Note_on_c, 38
3, 12120, Note_off_c, 38
3, 12120, Note_on_c, 31
3, 12180, Note_off_c, 31
3, 12180, Note_on_c, 42
3, 12240, Note_off_c, 42
3, 12240, Note_on_c, 31
3, 12300, Note_off_c, 31
3, 12300, Note_on_c, 38
3, 12360, Note_off_c, 38
3, 12360, Note_on_c, 42
3, 12390, Note_off_c, 42
3, 12390, Note_on_c, 42
3, 12420, Note_off_c, 42
3, 12420, Note_on_c, 38
3, 12480, Note_off_c, 38
3, 12480, Note_on_c, 35
3, 12540, Note_off_c, 35
3, 12540, Note_on_c, 42
3, 12600, Note_off_c, 42
3, 12600, Note_on_c, 35
3, 12660, Note_off_c, 35
3, 12660, Note_on_c, 38
3, 12690, Note_off_c, 38
3, 12690, Note_on_c, 38
3, 12720, Note_off_c, 38
3, 12720, Note_on_c, 42
3, 12780, Note_off_c, 42
3, 12780, Note_on_c, 38
3, 12840, Note_off_c, 38
3, 12840, Note_on_c, 33
3, 12900, Note_off_c, 33
3, 12900, Note_on_c, 42
3, 12960, Note_off_c, 42
3, 12960, Note_on_c, 33
3, 13020, Note_off_c, 33
3, 13020, Note_on_c, 38
3, 13080, Note_off_c, 38
3, 13080, Note_on_c, 42
3, 13110, Note_off_c, 42
3, 13110, Note_on_c, 42
3, 13140, Note_off_c, 42
3, 13140, Note_on_c, 43
3, 13200, Note_on_c, 31
3, 13260, Note_off_c, 31
3, 13260, Note_on_c, 42
3, 13320, Note_off_c, 42
3, 13320, Note_on_c, 31
3, 13380, Note_off_c, 31
3, 13380, Note_on_c, 38
3, 13410, Note_off_c, 38
3, 13410, Note_on_c, 38
3, 13440, Note_off_c, 38
3, 13440, Note_on_c, 42
3, 13500, Note_off_c, 42
3, 13500, Note_on_c, 38
3, 13560, Note_off_c, 43
3, 13560, Note_off_c, 38
3, 13560, Note_on_c, 28
3, 13615, Note_off_c, 40
3, 13620, Note_off_c, 28
3, 13620, Note_off_c, 40
3, 13620, Note_on_c, 42
3, 13740, Note_off_c, 42
3, 13740, Note_on_c, 40
3, 13800, Note_off_c, 40
3, 13800, Note_on_c, 30
3, 13860, Note_off_c, 30
3, 13860, Note_on_c, 37
3, 13920, Note_off_c, 37
3, 13920, Note_on_c, 31
3, 13980, Note_off_c, 31
3, 13980, Note_on_c, 38
3, 14040, Note_off_c, 38
3, 14040, Note_on_c, 38
3, 14100, Note_off_c, 38
3, 14100, Note_on_c, 31
3, 14160, Note_off_c, 31
3, 14160, Note_on_c, 33
3, 14220, Note_off_c, 33
3, 14220, Note_on_c, 40
3, 14280, Note_off_c, 40
3, 17160, Note_on_c, 35
3, 17220, Note_off_c, 35
3, 17220, Note_on_c, 42
3, 17280, Note_off_c, 42
3, 17280, Note_on_c, 35
3, 17340, Note_off_c, 35
3, 17340, Note_on_c, 38
3, 17370, Note_off_c, 38
3, 17370, Note_on_c, 38
3, 17400, Note_off_c, 38
3, 17400, Note_on_c, 42
3, 17460, Note_off_c, 42
3, 17460, Note_on_c, 38
3, 17520, Note_off_c, 38
3, 17520, Note_on_c, 31
3, 17580, Note_off_c, 31
3, 17580, Note_on_c, 42
3, 17640, Note_off_c, 42
3, 17640, Note_on_c, 31
3, 17700, Note_off_c, 31
3, 17700, Note_on_c, 38
3, 17760, Note_off_c, 38
3, 17760, Note_on_c, 42
3, 17790, Note_off_c, 42
3, 17790, Note_on_c, 42
3, 17820, Note_off_c, 42
3, 17820, Note_on_c, 38
3, 17880, Note_off_c, 38
3, 17880, Note_on_c, 35
3, 17940, Note_off_c, 35
3, 17940, Note_on_c, 42
3, 18000, Note_off_c, 42
3, 18000, Note_on_c, 35
3, 18060, Note_off_c, 35
3, 18060, Note_on_c, 38
3, 18090, Note_off_c, 38
3, 18090, Note_on_c, 38
3, 18120, Note_off_c, 38
3, 18120, Note_on_c, 42
3, 18180, Note_off_c, 42
3, 18180, Note_on_c, 38
3, 18240, Note_off_c, 38
3, 18240, Note_on_c, 31
3, 18300, Note_off_c, 31
3, 18300, Note_on_c, 42
3, 18360, Note_off_c, 42
3, 18360, Note_on_c, 31
3, 18420, Note_off_c, 31
3, 18420, Note_on_c, 38
3, 18480, Note_off_c, 38
3, 18480, Note_on_c, 33
3, 18480, Note_on_c, 38
3, 18600, Note_off_c, 33
3, 18600, Note_off_c, 38
3, 18600, Note_on_c, 35
3, 18660, Note_off_c, 35
3, 18660, Note_on_c, 42
3, 18720, Note_off_c, 42
3, 18720, Note_on_c, 35
3, 18780, Note_off_c, 35
3, 18780, Note_on_c, 38
3, 18810, Note_off_c, 38
3, 18810, Note_on_c, 38
3, 18840, Note_off_c, 38
3, 18840, Note_on_c, 42
3, 18900, Note_off_c, 42
3, 18900, Note_on_c, 38
3, 18960, Note_off_c, 38
3, 18960, Note_on_c, 33
3, 19020, Note_off_c, 33
3, 19020, Note_on_c, 42
3, 19080, Note_off_c, 42
3, 19080, Note_on_c, 33
3, 19140, Note_off_c, 33
3, 19140, Note_on_c, 38
3, 19200, Note_off_c, 38
3, 19200, Note_on_c, 42
3, 19230, Note_off_c, 42
3, 19230, Note_on_c, 42
3, 19260, Note_off_c, 42
3, 19260, Note_on_c, 43
3, 19320, Note_on_c, 31
3, 19380, Note_off_c, 31
3, 19380, Note_on_c, 42
3, 19440, Note_off_c, 42
3, 19440, Note_on_c, 31
3, 19500, Note_off_c, 31
3, 19500, Note_on_c, 38
3, 19530, Note_off_c, 38
3, 19530, Note_on_c, 38
3, 19560, Note_off_c, 38
3, 19560, Note_on_c, 42
3, 19620, Note_off_c, 42
3, 19620, Note_on_c, 38
3, 19680, Note_off_c, 43
3, 19680, Note_off_c, 38
3, 19680, Note_on_c, 28
3, 19740, Note_off_c, 28
3, 19740, Note_on_c, 35
3, 19770, Note_off_c, 35
3, 19800, Note_on_c, 30
3, 19860, Note_off_c, 30
3, 19860, Note_on_c, 35
3, 19890, Note_off_c, 35
3, 19920, Note_on_c, 35
3, 19980, Note_off_c, 35
3, 19980, Note_on_c, 42
3, 20040, Note_off_c, 42
3, 20040, Note_on_c, 35
3, 20100, Note_off_c, 35
3, 20100, Note_on_c, 38
3, 20130, Note_off_c, 38
3, 20130, Note_on_c, 38
3, 20160, Note_off_c, 38
3, 20160, Note_on_c, 42
3, 20220, Note_off_c, 42
3, 20220, Note_on_c, 38
3, 20280, Note_off_c, 38
3, 20280, Note_on_c, 31
3, 20340, Note_off_c, 31
3, 20340, Note_on_c, 42
3, 20400, Note_off_c, 42
3, 20400, Note_on_c, 31
3, 20460, Note_off_c, 31
3, 20460, Note_on_c, 38
3, 20520, Note_off_c, 38
3, 20520, Note_on_c, 42
3, 20550, Note_off_c, 42
3, 20550, Note_on_c, 42
3, 20580, Note_off_c, 42
3, 20580, Note_on_c, 38
3, 20640, Note_off_c, 38
3, 20640, Note_on_c, 35
3, 20700, Note_off_c, 35
3, 20700, Note_on_c, 42
3, 20760, Note_off_c, 42
3, 20760, Note_on_c, 35
3, 20820, Note_off_c, 35
3, 20820, Note_on_c, 38
3, 20850, Note_off_c, 38
3, 20850, Note_on_c, 38
3, 20880, Note_off_c, 38
3, 20880, Note_on_c, 42
3, 20940, Note_off_c, 42
3, 20940, Note_on_c, 38
3, 21000, Note_off_c, 38
3, 21000, Note_on_c, 31
3, 21060, Note_off_c, 31
3, 21060, Note_on_c, 42
3, 21120, Note_off_c, 42
3, 21120, Note_on_c, 31
3, 21180, Note_off_c, 31
3, 21180, Note_on_c, 38
3, 21240, Note_off_c, 38
3, 21240, Note_on_c, 33
3, 21240, Note_on_c, 38
3, 21360, Note_off_c, 33
3, 21360, Note_off_c, 38
3, 21360, Note_on_c, 35
3, 21420, Note_off_c, 35
3, 21420, Note_on_c, 42
3, 21480, Note_off_c, 42
3, 21480, Note_on_c, 35
3, 21540, Note_off_c, 35
3, 21540, Note_on_c, 38
3, 21570, Note_off_c, 38
3, 21570, Note_on_c, 38
3, 21600, Note_off_c, 38
3, 21600, Note_on_c, 42
3, 21660, Note_off_c, 42
3, 21660, Note_on_c, 38
3, 21720, Note_off_c, 38
3, 21720, Note_on_c, 33
3, 21780, Note_off_c, 33
3, 21780, Note_on_c, 42
3, 21840, Note_off_c, 42
3, 21840, Note_on_c, 33
3, 21900, Note_off_c, 33
3, 21900, Note_on_c, 38
3, 21960, Note_off_c, 38
3, 21960, Note_on_c, 42
3, 21990, Note_off_c, 42
3, 21990, Note_on_c, 42
3, 22020, Note_off_c, 42
3, 22020, Note_on_c, 43
3, 22080, Note_on_c, 31
3, 22140, Note_off_c, 31
3, 22140, Note_on_c, 42
3, 22200, Note_off_c, 42
3, 22200, Note_on_c, 31
3, 22260, Note_off_c, 31
3, 22260, Note_on_c, 38
3, 22290, Note_off_c, 38
3, 22290, Note_on_c, 38
3, 22320, Note_off_c, 38
3, 22320, Note_on_c, 42
3, 22380, Note_off_c, 42
3, 22380, Note_on_c, 38
3, 22440, Note_off_c, 43
3, 22440, Note_off_c, 38
3, 22440, Note_on_c, 28
3, 22500, Note_off_c, 28
3, 22500, Note_on_c, 35
3, 22530, Note_off_c, 35
3, 22560, Note_on_c, 30
3, 22620, Note_off_c, 30
3, 22620, Note_on_c, 35
3, 22650, Note_off_c, 35
3, 22680, Note_on_c, 31
3, 22680, Note_on_c, 38
3, 22680, Note_on_c, 43
3, 22860, Note_off_c, 31
3, 22860, Note_off_c, 38
3, 22860, Note_off_c, 43
3, 22860, Note_on_c, 45
3, 22860, Note_on_c, 40
3, 22860, Note_on_c, 33
3, 22920, Note_off_c, 45
3, 22920, Note_off_c, 40
3, 22920, Note_off_c, 33
3, 22920, Note_on_c, 35
3, 22920, Note_on_c, 42
3, 22920, Note_on_c, 47
3, 22980, Note_off_c, 35
3, 22980, Note_off_c, 42
3, 22980, Note_off_c, 47
3, 22980, Note_on_c, 45
3, 22980, Note_on_c, 40
3, 22980, Note_on_c, 33
3, 23040, Note_off_c, 45
3, 23040, Note_off_c, 40
3, 23040, Note_off_c, 33
3, 23040, Note_on_c, 31
3, 23040, Note_on_c, 38
3, 23040, Note_on_c, 43
3, 23160, Note_off_c, 31
3, 23160, Note_off_c, 38
3, 23160, Note_off_c, 43
3, 23160, Note_on_c, 42
3, 23160, Note_on_c, 37
3, 23160, Note_on_c, 30
3, 23280, Note_off_c, 42
3, 23280, Note_off_c, 37
3, 23280, Note_off_c, 30
3, 23280, Note_on_c, 47
3, 23280, Note_on_c, 42
3, 23280, Note_on_c, 35
3, 23400, Note_off_c, 47
3, 23400, Note_off_c, 42
3, 23400, Note_off_c, 35
3, 23400, Note_on_c, 45
3, 23400, Note_on_c, 40
3, 23400, Note_on_c, 33
3, 23580, Note_off_c, 45
3, 23580, Note_off_c, 40
3, 23580, Note_off_c, 33
3, 23580, Note_on_c, 35
3, 23580, Note_on_c, 42
3, 23580, Note_on_c, 47
3, 23640, Note_off_c, 35
3, 23640, Note_off_c, 42
3, 23640, Note_off_c, 47
3, 23640, Note_on_c, 49
3, 23640, Note_on_c, 44
3, 23640, Note_on_c, 37
3, 23700, Note_off_c, 49
3, 23700, Note_off_c, 44
3, 23700, Note_off_c, 37
3, 23700, Note_on_c, 35
3, 23700, Note_on_c, 42
3, 23700, Note_on_c, 47
3, 23760, Note_off_c, 35
3, 23760, Note_off_c, 42
3, 23760, Note_off_c, 47
3, 23760, Note_on_c, 45
3, 23760, Note_on_c, 40
3, 23760, Note_on_c, 33
3, 23880, Note_off_c, 45
3, 23880, Note_off_c, 40
3, 23880, Note_off_c, 33
3, 23880, Note_on_c, 36
3, 24000, Note_off_c, 36
3, 24000, Note_on_c, 37
3, 24120, Note_off_c, 37
3, 24120, Note_on_c, 38
3, 25560, Note_off_c, 38
3, 27000, Note_on_c, 35
3, 27060, Note_off_c, 35
3, 27060, Note_on_c, 42
3, 27120, Note_off_c, 42
3, 27120, Note_on_c, 35
3, 27180, Note_off_c, 35
3, 27180, Note_on_c, 38
3, 27210, Note_off_c, 38
3, 27210, Note_on_c, 38
3, 27240, Note_off_c, 38
3, 27240, Note_on_c, 42
3, 27300, Note_off_c, 42
3, 27300, Note_on_c, 38
3, 27360, Note_off_c, 38
3, 27360, Note_on_c, 31
3, 27420, Note_off_c, 31
3, 27420, Note_on_c, 42
3, 27480, Note_off_c, 42
3, 27480, Note_on_c, 31
3, 27540, Note_off_c, 31
3, 27540, Note_on_c, 38
3, 27600, Note_off_c, 38
3, 27600, Note_on_c, 42
3, 27630, Note_off_c, 42
3, 27630, Note_on_c, 42
3, 27660, Note_off_c, 42
3, 27660, Note_on_c, 38
3, 27720, Note_off_c, 38
3, 27720, Note_on_c, 35
3, 27780, Note_off_c, 35
3, 27780, Note_on_c, 42
3, 27840, Note_off_c, 42
3, 27840, Note_on_c, 35
3, 27900, Note_off_c, 35
3, 27900, Note_on_c, 38
3, 27930, Note_off_c, 38
3, 27930, Note_on_c, 38
3, 27960, Note_off_c, 38
3, 27960, Note_on_c, 42
3, 28020, Note_off_c, 42
3, 28020, Note_on_c, 38
3, 28080, Note_off_c, 38
3, 28080, Note_on_c, 31
3, 28140, Note_off_c, 31
3, 28140, Note_on_c, 42
3, 28200, Note_off_c, 42
3, 28200, Note_on_c, 31
3, 28260, Note_off_c, 31
3, 28260, Note_on_c, 38
3, 28320, Note_off_c, 38
3, 28320, Note_on_c, 33
3, 28320, Note_on_c, 38
3, 28440, Note_off_c, 33
3, 28440, Note_off_c, 38
3, 28440, Note_on_c, 35
3, 28500, Note_off_c, 35
3, 28500, Note_on_c, 42
3, 28560, Note_off_c, 42
3, 28560, Note_on_c, 35
3, 28620, Note_off_c, 35
3, 28620, Note_on_c, 38
3, 28650, Note_off_c, 38
3, 28650, Note_on_c, 38
3, 28680, Note_off_c, 38
3, 28680, Note_on_c, 42
3, 28740, Note_off_c, 42
3, 28740, Note_on_c, 38
3, 28800, Note_off_c, 38
3, 28800, Note_on_c, 33
3, 28860, Note_off_c, 33
3, 28860, Note_on_c, 42
3, 28920, Note_off_c, 42
3, 28920, Note_on_c, 33
3, 28980, Note_off_c, 33
3, 28980, Note_on_c, 38
3, 29040, Note_off_c, 38
3, 29040, Note_on_c, 42
3, 29070, Note_off_c, 42
3, 29070, Note_on_c, 42
3, 29100, Note_off_c, 42
3, 29100, Note_on_c, 43
3, 29160, Note_on_c, 31
3, 29220, Note_off_c, 31
3, 29220, Note_on_c, 42
3, 29280, Note_off_c, 42
3, 29280, Note_on_c, 31
3, 29340, Note_off_c, 31
3, 29340, Note_on_c, 38
3, 29370, Note_off_c, 38
3, 29370, Note_on_c, 38
3, 29400, Note_off_c, 38
3, 29400, Note_on_c, 42
3, 29460, Note_off_c, 42
3, 29460, Note_on_c, 38
3, 29520, Note_off_c, 43
3, 29520, Note_off_c, 38
3, 29520, Note_on_c, 28
3, 29580, Note_off_c, 28
3, 29580, Note_on_c, 35
3, 29610, Note_off_c, 35
3, 29640, Note_on_c, 30
3, 29700, Note_off_c, 30
3, 29700, Note_on_c, 35
3, 29730, Note_off_c, 35
3, 29760, Note_on_c, 35
3, 29820, Note_off_c, 35
3, 29820, Note_on_c, 42
3, 29880, Note_off_c, 42
3, 29880, Note_on_c, 35
3, 29940, Note_off_c, 35
3, 29940, Note_on_c, 38
3, 29970, Note_off_c, 38
3, 29970, Note_on_c, 38
3, 30000, Note_off_c, 38
3, 30000, Note_on_c, 42
3, 30060, Note_off_c, 42
3, 30060, Note_on_c, 38
3, 30120, Note_off_c, 38
3, 30120, Note_on_c, 31
3, 30180, Note_off_c, 31
3, 30180, Note_on_c, 42
3, 30240, Note_off_c, 42
3, 30240, Note_on_c, 31
3, 30300, Note_off_c, 31
3, 30300, Note_on_c, 38
3, 30360, Note_off_c, 38
3, 30360, Note_on_c, 42
3, 30390, Note_off_c, 42
3, 30390, Note_on_c, 42
3, 30420, Note_off_c, 42
3, 30420, Note_on_c, 38
3, 30480, Note_off_c, 38
3, 30480, Note_on_c, 35
3, 30540, Note_off_c, 35
3, 30540, Note_on_c, 42
3, 30600, Note_off_c, 42
3, 30600, Note_on_c, 35
3, 30660, Note_off_c, 35
3, 30660, Note_on_c, 38
3, 30690, Note_off_c, 38
3, 30690, Note_on_c, 38
3, 30720, Note_off_c, 38
3, 30720, Note_on_c, 42
3, 30780, Note_off_c, 42
3, 30780, Note_on_c, 38
3, 30840, Note_off_c, 38
3, 30840, Note_on_c, 31
3, 30900, Note_off_c, 31
3, 30900, Note_on_c, 42
3, 30960, Note_off_c, 42
3, 30960, Note_on_c, 31
3, 31020, Note_off_c, 31
3, 31020, Note_on_c, 38
3, 31080, Note_off_c, 38
3, 31080, Note_on_c, 33
3, 31080, Note_on_c, 38
3, 31200, Note_off_c, 33
3, 31200, Note_off_c, 38
3, 31200, Note_on_c, 35
3, 31260, Note_off_c, 35
3, 31260, Note_on_c, 42
3, 31320, Note_off_c, 42
3, 31320, Note_on_c, 35
3, 31380, Note_off_c, 35
3, 31380, Note_on_c, 38
3, 31410, Note_off_c, 38
3, 31410, Note_on_c, 38
3, 31440, Note_off_c, 38
3, 31440, Note_on_c, 42
3, 31500, Note_off_c, 42
3, 31500, Note_on_c, 38
3, 31560, Note_off_c, 38
3, 31560, Note_on_c, 33
3, 31620, Note_off_c, 33
3, 31620, Note_on_c, 42
3, 31680, Note_off_c, 42
3, 31680, Note_on_c, 33
3, 31740, Note_off_c, 33
3, 31740, Note_on_c, 38
3, 31800, Note_off_c, 38
3, 31800, Note_on_c, 42
3, 31830, Note_off_c, 42
3, 31830, Note_on_c, 42
3, 31860, Note_off_c, 42
3, 31860, Note_on_c, 43
3, 31920, Note_on_c, 31
3, 31980, Note_off_c, 31
3, 31980, Note_on_c, 42
3, 32040, Note_off_c, 42
3, 32040, Note_on_c, 31
3, 32100, Note_off_c, 31
3, 32100, Note_on_c, 38
3, 32130, Note_off_c, 38
3, 32130, Note_on_c, 38
3, 32160, Note_off_c, 38
3, 32160, Note_on_c, 42
3, 32220, Note_off_c, 42
3, 32220, Note_on_c, 38
3, 32280, Note_off_c, 43
3, 32280, Note_off_c, 38
3, 32280, Note_on_c, 28
3, 32340, Note_off_c, 28
3, 32340, Note_on_c, 35
3, 32370, Note_off_c, 35
3, 32400, Note_on_c, 30
3, 32460, Note_off_c, 30
3, 32460, Note_on_c, 35
3, 32490, Note_off_c, 35
3, 32520, Note_on_c, 31
3, 32520, Note_on_c, 38
3, 32520, Note_on_c, 43
3, 32700, Note_off_c, 31
3, 32700, Note_off_c, 38
3, 32700, Note_off_c, 43
3, 32700, Note_on_c, 45
3, 32700, Note_on_c, 40
3, 32700, Note_on_c, 33
3, 32760, Note_off_c, 45
3, 32760, Note_off_c, 40
3, 32760, Note_off_c, 33
3, 32760, Note_on_c, 35
3, 32760, Note_on_c, 42
3, 32760, Note_on_c, 47
3, 32820, Note_off_c, 35
3, 32820, Note_off_c, 42
3, 32820, Note_off_c, 47
3, 32820, Note_on_c, 45
3, 32820, Note_on_c, 40
3, 32820, Note_on_c, 33
3, 32880, Note_off_c, 45
3, 32880, Note_off_c, 40
3, 32880, Note_off_c, 33
3, 32880, Note_on_c, 31
3, 32880, Note_on_c, 38
3, 32880, Note_on_c, 43
3, 33000, Note_off_c, 31
3, 33000, Note_off_c, 38
3, 33000, Note_off_c, 43
3, 33000, Note_on_c, 42
3, 33000, Note_on_c, 37
3, 33000, Note_on_c, 30
3, 33120, Note_off_c, 42
3, 33120, Note_off_c, 37
3, 33120, Note_off_c, 30
3, 33120, Note_on_c, 47
3, 33120, Note_on_c, 42
3, 33120, Note_on_c, 35
3, 33240, Note_off_c, 47
3, 33240, Note_off_c, 42
3, 33240, Note_off_c, 35
3, 33240, Note_on_c, 45
3, 33240, Note_on_c, 40
3, 33240, Note_on_c, 33
3, 33420, Note_off_c, 45
3, 33420, Note_off_c, 40
3, 33420, Note_off_c, 33
3, 33420, Note_on_c, 35
3, 33420, Note_on_c, 42
3, 33420, Note_on_c, 47
3, 33480, Note_off_c, 35
3, 33480, Note_off_c, 42
3, 33480, Note_off_c, 47
3, 33480, Note_on_c, 49
3, 33480, Note_on_c, 44
3, 33480, Note_on_c, 37
3, 33540, Note_off_c, 49
3, 33540, Note_off_c, 44
3, 33540, Note_off_c, 37
3, 33540, Note_on_c, 35
3, 33540, Note_on_c, 42
3, 33540, Note_on_c, 47
3, 33600, Note_off_c, 35
3, 33600, Note_off_c, 42
3, 33600, Note_off_c, 47
3, 33600, Note_on_c, 45
3, 33600, Note_on_c, 40
3, 33600, Note_on_c, 33
3, 33720, Note_off_c, 45
3, 33720, Note_off_c, 40
3, 33720, Note_off_c, 33
3, 33720, Note_on_c, 36
3, 33840, Note_off_c, 36
3, 33840, Note_on_c, 37
3, 33960, Note_off_c, 37
3, 33960, Note_on_c, 38
3, 35280, Note_off_c, 38
3, 35280, Note_on_c, 57
3, 35310, Note_off_c, 57
3, 35310, Note_on_c, 54
3, 35340, Note_off_c, 54
3, 35340, Note_on_c, 50
3, 35370, Note_off_c, 50
3, 35370, Note_on_c, 54
3, 35400, Note_off_c, 54
3, 35400, Note_on_c, 57
3, 35520, Note_off_c, 57
3, 35520, Note_on_c, 57
3, 35580, Note_off_c, 57
3, 35580, Note_on_c, 55
3, 35640, Note_off_c, 55
3, 35640, Note_on_c, 54
3, 35700, Note_off_c, 54
3, 35700, Note_on_c, 52
3, 35760, Note_off_c, 52
3, 35760, Note_on_c, 54
3, 35820, Note_off_c, 54
3, 35820, Note_on_c, 55
3, 35850, Note_off_c, 55
3, 35850, Note_on_c, 54
3, 35880, Note_off_c, 54
3, 35880, Note_on_c, 50
3, 36120, Note_off_c, 50
3, 36120, Note_on_c, 62
3, 36180, Note_off_c, 62
3, 36180, Note_on_c, 60
3, 36240, Note_off_c, 60
3, 36240, Note_on_c, 59
3, 36300, Note_off_c, 59
3, 36300, Note_on_c, 57
3, 36360, Note_off_c, 57
3, 36360, Note_on_c, 59
3, 36420, Note_off_c, 59
3, 36420, Note_on_c, 60
3, 36480, Note_off_c, 60
3, 36480, Note_on_c, 55
3, 36720, Note_off_c, 55
3, 36720, Note_on_c, 69
3, 36750, Note_off_c, 69
3, 36750, Note_on_c, 66
3, 36780, Note_off_c, 66
3, 36780, Note_on_c, 62
3, 36810, Note_off_c, 62
3, 36810, Note_on_c, 66
3, 36840, Note_off_c, 66
3, 36840, Note_on_c, 69
3, 36960, Note_off_c, 69
3, 36960, Note_on_c, 69
3, 37020, Note_off_c, 69
3, 37020, Note_on_c, 67
3, 37080, Note_off_c, 67
3, 37080, Note_on_c, 66
3, 37140, Note_off_c, 66
3, 37140, Note_on_c, 67
3, 37170, Note_off_c, 67
3, 37170, Note_on_c, 66
3, 37200, Note_off_c, 66
3, 37200, Note_on_c, 62
3, 37320, Note_off_c, 62
3, 37320, Note_on_c, 62
3, 37380, Note_off_c, 62
3, 37380, Note_on_c, 66
3, 37440, Note_off_c, 66
3, 37440, Note_on_c, 67
3, 37500, Note_off_c, 67
3, 37500, Note_on_c, 69
3, 37560, Note_off_c, 69
3, 37560, Note_on_c, 71
3, 37580, Note_off_c, 71
3, 37580, Note_on_c, 69
3, 37600, Note_off_c, 69
3, 37600, Note_on_c, 67
3, 37620, Note_off_c, 67
3, 37620, Note_on_c, 71
3, 37640, Note_off_c, 71
3, 37640, Note_on_c, 69
3, 37660, Note_off_c, 69
3, 37660, Note_on_c, 67
3, 37680, Note_off_c, 67
3, 37680, Note_on_c, 71
3, 37700, Note_off_c, 71
3, 37700, Note_on_c, 69
3, 37720, Note_off_c, 69
3, 37720, Note_on_c, 67
3, 37740, Note_off_c, 67
3, 37740, Note_on_c, 66
3, 37770, Note_off_c, 66
3, 37770, Note_on_c, 67
3, 37800, Note_off_c, 67
3, 37800, Note_on_c, 64
3, 37830, Note_off_c, 64
3, 37830, Note_on_c, 66
3, 37860, Note_off_c, 66
3, 37860, Note_on_c, 62
3, 38160, Note_off_c, 62
3, 38280, Note_on_c, 50
3, 38280, Note_on_c, 55
3, 38400, Note_off_c, 50
3, 38400, Note_off_c, 55
3, 38400, Note_on_c, 55
3, 38400, Note_on_c, 50
3, 38460, Note_off_c, 55
3, 38460, Note_off_c, 50
3, 38460, Note_on_c, 50
3, 38460, Note_on_c, 55
3, 38520, Note_off_c, 55
3, 38520, Note_on_c, 54
3, 38580, Note_off_c, 50
3, 38580, Note_off_c, 54
3, 38580, Note_on_c, 54
3, 38580, Note_on_c, 50
3, 38640, Note_off_c, 54
3, 38640, Note_off_c, 50
3, 38640, Note_on_c, 60
3, 38640, Note_on_c, 55
3, 38700, Note_off_c, 60
3, 38700, Note_off_c, 55
3, 38700, Note_on_c, 60
3, 38700, Note_on_c, 55
3, 38760, Note_off_c, 60
3, 38760, Note_off_c, 55
3, 38760, Note_on_c, 60
3, 38760, Note_on_c, 55
3, 38820, Note_off_c, 60
3, 38820, Note_off_c, 55
3, 38820, Note_on_c, 60
3, 38820, Note_on_c, 55
3, 38880, Note_off_c, 60
3, 38880, Note_off_c, 55
3, 38880, Note_on_c, 59
3, 38880, Note_on_c, 55
3, 38940, Note_off_c, 59
3, 38940, Note_off_c, 55
3, 39000, Note_on_c, 72
3, 39020, Note_off_c, 72
3, 39020, Note_on_c, 69
3, 39040, Note_off_c, 69
3, 39040, Note_on_c, 65
3, 39060, Note_off_c, 65
3, 39060, Note_on_c, 72
3, 39080, Note_off_c, 72
3, 39080, Note_on_c, 69
3, 39100, Note_off_c, 69
3, 39100, Note_on_c, 65
3, 39120, Note_off_c, 65
3, 39120, Note_on_c, 72
3, 39140, Note_off_c, 72
3, 39140, Note_on_c, 69
3, 39160, Note_off_c, 69
3, 39160, Note_on_c, 65
3, 39180, Note_off_c, 65
3, 39180, Note_on_c, 72
3, 39200, Note_off_c, 72
3, 39200, Note_on_c, 69
3, 39220, Note_off_c, 69
3, 39220, Note_on_c, 65
3, 39240, Note_off_c, 65
3, 39240, Note_on_c, 72
3, 39260, Note_off_c, 72
3, 39260, Note_on_c, 69
3, 39280, Note_off_c, 69
3, 39280, Note_on_c, 65
3, 39300, Note_off_c, 65
3, 39300, Note_on_c, 72
3, 39320, Note_off_c, 72
3, 39320, Note_on_c, 69
3, 39340, Note_off_c, 69
3, 39340, Note_on_c, 65
3, 39355, Note_off_c, 72
3, 39360, Note_off_c, 65
3, 39360, Note_off_c, 72
3, 39360, Note_on_c, 64
3, 39390, Note_off_c, 64
3, 39390, Note_on_c, 65
3, 39420, Note_off_c, 65
3, 39420, Note_on_c, 64
3, 39475, Note_off_c, 72
3, 39480, Note_off_c, 64
3, 39480, Note_off_c, 72
3, 39480, Note_on_c, 64
3, 39510, Note_off_c, 64
3, 39510, Note_on_c, 65
3, 39540, Note_off_c, 65
3, 39540, Note_on_c, 64
3, 39720, Note_off_c, 64
3, 39720, Note_on_c, 43
3, 39720, Note_on_c, 38
3, 39720, Note_on_c, 31
3, 39900, Note_off_c, 43
3, 39900, Note_off_c, 38
3, 39900, Note_off_c, 31
3, 39900, Note_on_c, 33
3, 39900, Note_on_c, 40
3, 39900, Note_on_c, 45
3, 39960, Note_off_c, 33
3, 39960, Note_off_c, 40
3, 39960, Note_off_c, 45
3, 39960, Note_on_c, 47
3, 39960, Note_on_c, 42
3, 39960, Note_on_c, 35
3, 40020, Note_off_c, 47
3, 40020, Note_off_c, 42
3, 40020, Note_off_c, 35
3, 40020, Note_on_c, 33
3, 40020, Note_on_c, 40
3, 40020, Note_on_c, 45
3, 40080, Note_off_c, 33
3, 40080, Note_off_c, 40
3, 40080, Note_off_c, 45
3, 40080, Note_on_c, 43
3, 40080, Note_on_c, 38
3, 40080, Note_on_c, 31
3, 40200, Note_off_c, 43
3, 40200, Note_off_c, 38
3, 40200, Note_off_c, 31
3, 40200, Note_on_c, 30
3, 40200, Note_on_c, 37
3, 40200, Note_on_c, 42
3, 40320, Note_off_c, 30
3, 40320, Note_off_c, 37
3, 40320, Note_off_c, 42
3, 40320, Note_on_c, 47
3, 40320, Note_on_c, 42
3, 40320, Note_on_c, 31
3, 40440, Note_off_c, 47
3, 40440, Note_off_c, 42
3, 40440, Note_off_c, 31
3, 40440, Note_on_c, 45
3, 40440, Note_on_c, 40
3, 40440, Note_on_c, 33
3, 40620, Note_off_c, 45
3, 40620, Note_off_c, 40
3, 40620, Note_off_c, 33
3, 40620, Note_on_c, 35
3, 40620, Note_on_c, 42
3, 40620, Note_on_c, 47
3, 40680, Note_off_c, 35
3, 40680, Note_off_c, 42
3, 40680, Note_off_c, 47
3, 40680, Note_on_c, 49
3, 40680, Note_on_c, 44
3, 40680, Note_on_c, 37
3, 40740, Note_off_c, 49
3, 40740, Note_off_c, 44
3, 40740, Note_off_c, 37
3, 40740, Note_on_c, 35
3, 40740, Note_on_c, 42
3, 40740, Note_on_c, 47
3, 40800, Note_off_c, 35
3, 40800, Note_off_c, 42
3, 40800, Note_off_c, 47
3, 40800, Note_on_c, 45
3, 40800, Note_on_c, 40
3, 40800, Note_on_c, 33
3, 40920, Note_off_c, 45
3, 40920, Note_off_c, 40
3, 40920, Note_off_c, 33
3, 40920, Note_on_c, 35
3, 40920, Note_on_c, 42
3, 40920, Note_on_c, 47
3, 41040, Note_off_c, 35
3, 41040, Note_off_c, 42
3, 41040, Note_off_c, 47
3, 41040, Note_on_c, 49
3, 41040, Note_on_c, 44
3, 41040, Note_on_c, 37
3, 41160, Note_off_c, 49
3, 41160, Note_off_c, 44
3, 41160, Note_off_c, 37
3, 41160, Note_on_c, 43
3, 41160, Note_on_c, 38
3, 41160, Note_on_c, 31
3, 41340, Note_off_c, 43
3, 41340, Note_off_c, 38
3, 41340, Note_off_c, 31
3, 41340, Note_on_c, 33
3, 41340, Note_on_c, 40
3, 41340, Note_on_c, 45
3, 41400, Note_off_c, 33
3, 41400, Note_off_c, 40
3, 41400, Note_off_c, 45
3, 41400, Note_on_c, 47
3, 41400, Note_on_c, 42
3, 41400, Note_on_c, 35
3, 41460, Note_off_c, 47
3, 41460, Note_off_c, 42
3, 41460, Note_off_c, 35
3, 41460, Note_on_c, 33
3, 41460, Note_on_c, 40
3, 41460, Note_on_c, 45
3, 41520, Note_off_c, 33
3, 41520, Note_off_c, 40
3, 41520, Note_off_c, 45
3, 41520, Note_on_c, 43
3, 41520, Note_on_c, 38
3, 41520, Note_on_c, 31
3, 41640, Note_off_c, 43
3, 41640, Note_off_c, 38
3, 41640, Note_off_c, 31
3, 41640, Note_on_c, 30
3, 41640, Note_on_c, 37
3, 41640, Note_on_c, 42
3, 41760, Note_off_c, 30
3, 41760, Note_off_c, 37
3, 41760, Note_off_c, 42
3, 41760, Note_on_c, 47
3, 41760, Note_on_c, 42
3, 41760, Note_on_c, 31
3, 41880, Note_off_c, 47
3, 41880, Note_off_c, 42
3, 41880, Note_off_c, 31
3, 41880, Note_on_c, 45
3, 41880, Note_on_c, 40
3, 41880, Note_on_c, 33
3, 42060, Note_off_c, 45
3, 42060, Note_off_c, 40
3, 42060, Note_off_c, 33
3, 42060, Note_on_c, 35
3, 42060, Note_on_c, 42
3, 42060, Note_on_c, 47
3, 42120, Note_off_c, 35
3, 42120, Note_off_c, 42
3, 42120, Note_off_c, 47
3, 42120, Note_on_c, 49
3, 42120, Note_on_c, 44
3, 42120, Note_on_c, 37
3, 42180, Note_off_c, 49
3, 42180, Note_off_c, 44
3, 42180, Note_off_c, 37
3, 42180, Note_on_c, 35
3, 42180, Note_on_c, 42
3, 42180, Note_on_c, 47
3, 42240, Note_off_c, 35
3, 42240, Note_off_c, 42
3, 42240, Note_off_c, 47
3, 42240, Note_on_c, 45
3, 42240, Note_on_c, 40
3, 42240, Note_on_c, 33
3, 42360, Note_off_c, 45
3, 42360, Note_off_c, 40
3, 42360, Note_off_c, 33
3, 42360, Note_on_c, 35
3, 42360, Note_on_c, 42
3, 42360, Note_on_c, 47
3, 42480, Note_off_c, 35
3, 42480, Note_off_c, 42
3, 42480, Note_off_c, 47
3, 42480, Note_on_c, 49
3, 42480, Note_on_c, 44
3, 42480, Note_on_c, 37
3, 42600, Note_off_c, 49
3, 42600, Note_off_c, 44
3, 42600, Note_off_c, 37
3, 42600, Note_on_c, 43
3, 42600, Note_on_c, 38
3, 42600, Note_on_c, 31
3, 42780, Note_off_c, 43
3, 42780, Note_off_c, 38
3, 42780, Note_off_c, 31
3, 42780, Note_on_c, 33
3, 42780, Note_on_c, 40
3, 42780, Note_on_c, 45
3, 42840, Note_off_c, 33
3, 42840, Note_off_c, 40
3, 42840, Note_off_c, 45
3, 42840, Note_on_c, 47
3, 42840, Note_on_c, 42
3, 42840, Note_on_c, 35
3, 42900, Note_off_c, 47
3, 42900, Note_off_c, 42
3, 42900, Note_off_c, 35
3, 42900, Note_on_c, 33
3, 42900, Note_on_c, 40
3, 42900, Note_on_c, 45
3, 42960, Note_off_c, 33
3, 42960, Note_off_c, 40
3, 42960, Note_off_c, 45
3, 42960, Note_on_c, 43
3, 42960, Note_on_c, 38
3, 42960, Note_on_c, 31
3, 43080, Note_off_c, 43
3, 43080, Note_off_c, 38
3, 43080, Note_off_c, 31
3, 43080, Note_on_c, 30
3, 43080, Note_on_c, 37
3, 43080, Note_on_c, 42
3, 43200, Note_off_c, 30
3, 43200, Note_off_c, 37
3, 43200, Note_off_c, 42
3, 43200, Note_on_c, 47
3, 43200, Note_on_c, 42
3, 43200, Note_on_c, 31
3, 43320, Note_off_c, 47
3, 43320, Note_off_c, 42
3, 43320, Note_off_c, 31
3, 43320, Note_on_c, 45
3, 43320, Note_on_c, 40
3, 43500, Note_off_c, 45
3, 43500, Note_off_c, 40
3, 43500, Note_on_c, 38
3, 43500, Note_on_c, 43
3, 43560, Note_off_c, 38
3, 43560, Note_off_c, 43
3, 43560, Note_on_c, 45
3, 43560, Note_on_c, 40
3, 43620, Note_off_c, 45
3, 43620, Note_off_c, 40
3, 43620, Note_on_c, 45
3, 43620, Note_on_c, 42
3, 43680, Note_off_c, 45
3, 43680, Note_off_c, 42
3, 43680, Note_on_c, 43
3, 43680, Note_on_c, 47
3, 43800, Note_off_c, 43
3, 43800, Note_off_c, 47
3, 43800, Note_on_c, 43
3, 43800, Note_on_c, 47
3, 43860, Note_off_c, 43
3, 43860, Note_off_c, 47
3, 43860, Note_on_c, 48
3, 43860, Note_on_c, 45
3, 43920, Note_off_c, 48
3, 43920, Note_off_c, 45
3, 43920, Note_on_c, 43
3, 43920, Note_on_c, 47
3, 44040, Note_off_c, 43
3, 44040, Note_off_c, 47
3, 44040, Note_on_c, 47
3, 44040, Note_on_c, 51
3, 44040, Note_on_c, 54
3, 44280, Note_off_c, 47
3, 44280, Note_off_c, 51
3, 44280, Note_off_c, 54
3, 44280, Note_on_c, 54
3, 44280, Note_on_c, 51
3, 44280, Note_on_c, 47
3, 44400, Note_off_c, 54
3, 44400, Note_off_c, 51
3, 44400, Note_off_c, 47
3, 44400, Note_on_c, 47
3, 44430, Note_off_c, 47
3, 44430, Note_on_c, 45
3, 44460, Note_off_c, 45
3, 44460, Note_on_c, 43
3, 44760, Note_off_c, 43
3, 44760, Note_on_c, 45
3, 44760, Note_on_c, 40
3, 44940, Note_off_c, 45
3, 44940, Note_off_c, 40
3, 44940, Note_on_c, 38
3, 44940, Note_on_c, 43
3, 45000, Note_off_c, 38
3, 45000, Note_off_c, 43
3, 45000, Note_on_c, 45
3, 45000, Note_on_c, 40
3, 45060, Note_off_c, 45
3, 45060, Note_off_c, 40
3, 45060, Note_on_c, 45
3, 45060, Note_on_c, 42
3, 45120, Note_off_c, 45
3, 45120, Note_off_c, 42
3, 45120, Note_on_c, 43
3, 45120, Note_on_c, 47
3, 45240, Note_off_c, 43
3, 45240, Note_off_c, 47
3, 45240, Note_on_c, 43
3, 45240, Note_on_c, 47
3, 45300, Note_off_c, 43
3, 45300, Note_off_c, 47
3, 45300, Note_on_c, 48
3, 45300, Note_on_c, 45
3, 45360, Note_off_c, 48
3, 45360, Note_off_c, 45
3, 45360, Note_on_c, 43
3, 45360, Note_on_c, 47
3, 45480, Note_off_c, 43
3, 45480, Note_off_c, 47
3, 45480, Note_on_c, 47
3, 45480, Note_on_c, 51
3, 45480, Note_on_c, 54
3, 45720, Note_off_c, 47
3, 45720, Note_off_c, 51
3, 45720, Note_off_c, 54
3, 45720, Note_on_c, 54
3, 45720, Note_on_c, 51
3, 45720, Note_on_c, 47
3, 45840, Note_off_c, 54
3, 45840, Note_off_c, 51
3, 45840, Note_off_c, 47
3, 45840, Note_on_c, 47
3, 45870, Note_off_c, 47
3, 45870, Note_on_c, 45
3, 45900, Note_off_c, 45
3, 45900, Note_on_c, 43
3, 46200, Note_off_c, 43
3, 46200, Note_on_c, 45
3, 46200, Note_on_c, 40
3, 46380, Note_off_c, 45
3, 46380, Note_off_c, 40
3, 46380, Note_on_c, 38
3, 46380, Note_on_c, 43
3, 46440, Note_off_c, 38
3, 46440, Note_off_c, 43
3, 46440, Note_on_c, 45
3, 46440, Note_on_c, 40
3, 46500, Note_off_c, 45
3, 46500, Note_off_c, 40
3, 46500, Note_on_c, 45
3, 46500, Note_on_c, 42
3, 46560, Note_off_c, 45
3, 46560, Note_off_c, 42
3, 46560, Note_on_c, 43
3, 46560, Note_on_c, 47
3, 46680, Note_off_c, 43
3, 46680, Note_off_c, 47
3, 46680, Note_on_c, 43
3, 46680, Note_on_c, 47
3, 46740, Note_off_c, 43
3, 46740, Note_off_c, 47
3, 46740, Note_on_c, 48
3, 46740, Note_on_c, 45
3, 46800, Note_off_c, 48
3, 46800, Note_off_c, 45
3, 46800, Note_on_c, 43
3, 46800, Note_on_c, 47
3, 46920, Note_off_c, 43
3, 46920, Note_off_c, 47
3, 46920, Note_on_c, 47
3, 46920, Note_on_c, 51
3, 46920, Note_on_c, 54
3, 47160, Note_off_c, 47
3, 47160, Note_off_c, 51
3, 47160, Note_off_c, 54
3, 47160, Note_on_c, 54
3, 47160, Note_on_c, 51
3, 47160, Note_on_c, 47
3, 47280, Note_off_c, 54
3, 47280, Note_off_c, 51
3, 47280, Note_off_c, 47
3, 47280, Note_on_c, 47
3, 47310, Note_off_c, 47
3, 47310, Note_on_c, 45
3, 47340, Note_off_c, 45
3, 47340, Note_on_c, 43
3, 47640, Note_off_c, 43
3, 47640, Note_on_c, 45
3, 47640, Note_on_c, 40
3, 47820, Note_off_c, 45
3, 47820, Note_off_c, 40
3, 47820, Note_on_c, 38
3, 47820, Note_on_c, 43
3, 47880, Note_off_c, 38
3, 47880, Note_off_c, 43
3, 47880, Note_on_c, 45
3, 47880, Note_on_c, 40
3, 47940, Note_off_c, 45
3, 47940, Note_off_c, 40
3, 47940, Note_on_c, 45
3, 47940, Note_on_c, 42
3, 48000, Note_off_c, 45
3, 48000, Note_off_c, 42
3, 48000, Note_on_c, 43
3, 48000, Note_on_c, 47
3, 48120, Note_off_c, 43
3, 48120, Note_off_c, 47
3, 48120, Note_on_c, 43
3, 48120, Note_on_c, 47
3, 48180, Note_off_c, 43
3, 48180, Note_off_c, 47
3, 48180, Note_on_c, 48
3, 48180, Note_on_c, 45
3, 48240, Note_off_c, 48
3, 48240, Note_off_c, 45
3, 48240, Note_on_c, 43
3, 48240, Note_on_c, 47
3, 48360, Note_off_c, 43
3, 48360, Note_off_c, 47
3, 48360, Note_on_c, 47
3, 48360, Note_on_c, 51
3, 48360, Note_on_c, 54
3, 48600, Note_off_c, 47
3, 48600, Note_off_c, 51
3, 48600, Note_off_c, 54
3, 48600, Note_on_c, 54
3, 48600, Note_on_c, 51
3, 48600, Note_on_c, 47
3, 48720, Note_off_c, 54
3, 48720, Note_off_c, 51
3, 48720, Note_off_c, 47
3, 48720, Note_on_c, 47
3, 48750, Note_off_c, 47
3, 48750, Note_on_c, 45
3, 48780, Note_off_c, 45
3, 48780, Note_on_c, 43
3, 49080, Note_off_c, 43
3, 49080, Note_on_c, 43
3, 49080, Note_on_c, 40
3, 49140, Note_off_c, 43
3, 49140, Note_off_c, 40
3, 49140, Note_on_c, 43
3, 49140, Note_on_c, 40
3, 49200, Note_off_c, 43
3, 49200, Note_off_c, 40
3, 49200, Note_on_c, 43
3, 49200, Note_on_c, 40
3, 49260, Note_off_c, 43
3, 49260, Note_off_c, 40
3, 49260, Note_on_c, 45
3, 49260, Note_on_c, 40
3, 49320, Note_off_c, 45
3, 49320, Note_off_c, 40
3, 49320, Note_on_c, 43
3, 49320, Note_on_c, 40
3, 49380, Note_off_c, 43
3, 49380, Note_off_c, 40
3, 49380, Note_on_c, 38
3, 49440, Note_off_c, 38
3, 49440, Note_on_c, 42
3, 49440, Note_on_c, 38
3, 49500, Note_off_c, 42
3, 49500, Note_off_c, 38
3, 49500, Note_on_c, 42
3, 49500, Note_on_c, 38
3, 49560, Note_off_c, 42
3, 49560, Note_off_c, 38
3, 49560, Note_on_c, 42
3, 49560, Note_on_c, 38
3, 49620, Note_off_c, 42
3, 49620, Note_off_c, 38
3, 49620, Note_on_c, 43
3, 49620, Note_on_c, 38
3, 49680, Note_off_c, 43
3, 49680, Note_off_c, 38
3, 49680, Note_on_c, 42
3, 49680, Note_on_c, 38
3, 49800, Note_off_c, 42
3, 49800, Note_off_c, 38
3, 49800, Note_on_c, 35
3, 49800, Note_on_c, 47
3, 49800, Note_on_c, 42
3, 49980, Note_off_c, 35
3, 49980, Note_off_c, 47
3, 49980, Note_off_c, 42
3, 49980, Note_on_c, 30
3, 50040, Note_off_c, 30
3, 50040, Note_on_c, 47
3, 50040, Note_on_c, 42
3, 50040, Note_on_c, 35
3, 50100, Note_off_c, 47
3, 50100, Note_off_c, 42
3, 50100, Note_off_c, 35
3, 50100, Note_on_c, 30
3, 50160, Note_off_c, 30
3, 50160, Note_on_c, 48
3, 50160, Note_on_c, 43
3, 50160, Note_on_c, 36
3, 50220, Note_off_c, 48
3, 50220, Note_off_c, 43
3, 50220, Note_off_c, 36
3, 50220, Note_on_c, 43
3, 50220, Note_on_c, 36
3, 50250, Note_off_c, 43
3, 50250, Note_off_c, 36
3, 50250, Note_on_c, 43
3, 50250, Note_on_c, 36
3, 50280, Note_off_c, 43
3, 50280, Note_off_c, 36
3, 50280, Note_on_c, 48
3, 50280, Note_on_c, 43
3, 50280, Note_on_c, 36
3, 50340, Note_off_c, 48
3, 50340, Note_off_c, 43
3, 50340, Note_off_c, 36
3, 50340, Note_on_c, 31
3, 50400, Note_off_c, 31
3, 50400, Note_on_c, 48
3, 50400, Note_on_c, 43
3, 50400, Note_on_c, 36
3, 50460, Note_off_c, 48
3, 50460, Note_off_c, 43
3, 50460, Note_off_c, 36
3, 50460, Note_on_c, 31
3, 50520, Note_off_c, 31
3, 50520, Note_on_c, 43
3, 50520, Note_on_c, 40
3, 50580, Note_off_c, 43
3, 50580, Note_off_c, 40
3, 50580, Note_on_c, 43
3, 50580, Note_on_c, 40
3, 50640, Note_off_c, 43
3, 50640, Note_off_c, 40
3, 50640, Note_on_c, 43
3, 50640, Note_on_c, 40
3, 50700, Note_off_c, 43
3, 50700, Note_off_c, 40
3, 50700, Note_on_c, 45
3, 50700, Note_on_c, 40
3, 50760, Note_off_c, 45
3, 50760, Note_off_c, 40
3, 50760, Note_on_c, 43
3, 50760, Note_on_c, 40
3, 50820, Note_off_c, 43
3, 50820, Note_off_c, 40
3, 50820, Note_on_c, 38
3, 50880, Note_off_c, 38
3, 50880, Note_on_c, 42
3, 50880, Note_on_c, 38
3, 50940, Note_off_c, 42
3, 50940, Note_off_c, 38
3, 50940, Note_on_c, 42
3, 50940, Note_on_c, 38
3, 51000, Note_off_c, 42
3, 51000, Note_off_c, 38
3, 51000, Note_on_c, 42
3, 51000, Note_on_c, 38
3, 51060, Note_off_c, 42
3, 51060, Note_off_c, 38
3, 51060, Note_on_c, 43
3, 51060, Note_on_c, 38
3, 51120, Note_off_c, 43
3, 51120, Note_off_c, 38
3, 51120, Note_on_c, 42
3, 51120, Note_on_c, 38
3, 51240, Note_off_c, 42
3, 51240, Note_off_c, 38
3, 51240, Note_on_c, 35
3, 51240, Note_on_c, 47
3, 51240, Note_on_c, 42
3, 51420, Note_off_c, 35
3, 51420, Note_off_c, 47
3, 51420, Note_off_c, 42
3, 51420, Note_on_c, 30
3, 51480, Note_off_c, 30
3, 51480, Note_on_c, 47
3, 51480, Note_on_c, 42
3, 51480, Note_on_c, 35
3, 51540, Note_off_c, 47
3, 51540, Note_off_c, 42
3, 51540, Note_off_c, 35
3, 51540, Note_on_c, 30
3, 51600, Note_off_c, 30
3, 51600, Note_on_c, 48
3, 51600, Note_on_c, 43
3, 51600, Note_on_c, 36
3, 51660, Note_off_c, 48
3, 51660, Note_off_c, 43
3, 51660, Note_off_c, 36
3, 51660, Note_on_c, 43
3, 51660, Note_on_c, 36
3, 51690, Note_off_c, 43
3, 51690, Note_off_c, 36
3, 51690, Note_on_c, 43
3, 51690, Note_on_c, 36
3, 51720, Note_off_c, 43
3, 51720, Note_off_c, 36
3, 51720, Note_on_c, 48
3, 51720, Note_on_c, 43
3, 51720, Note_on_c, 36
3, 51780, Note_off_c, 48
3, 51780, Note_off_c, 43
3, 51780, Note_off_c, 36
3, 51780, Note_on_c, 31
3, 51840, Note_off_c, 31
3, 51840, Note_on_c, 48
3, 51840, Note_on_c, 43
3, 51840, Note_on_c, 36
3, 51900, Note_off_c, 48
3, 51900, Note_off_c, 43
3, 51900, Note_off_c, 36
3, 51900, Note_on_c, 31
3, 51960, Note_off_c, 31
3, 51960, Note_on_c, 28
3, 51960, Note_on_c, 40
3, 51960, Note_on_c, 43
3, 52920, Note_off_c, 28
3, 52920, Note_off_c, 40
3, 52920, Note_off_c, 43
3, 52920, Note_on_c, 28
3, 52940, Note_off_c, 28
3, 52940, Note_on_c, 28
3, 52960, Note_off_c, 28
3, 52960, Note_on_c, 28
3, 52980, Note_off_c, 28
3, 52980, Note_on_c, 28
3, 53000, Note_off_c, 28
3, 53000, Note_on_c, 28
3, 53020, Note_off_c, 28
3, 53020, Note_on_c, 28
3, 53040, Note_off_c, 28
3, 53040, Note_on_c, 40
3, 53040, Note_on_c, 35
3, 53040, Note_on_c, 28
3, 53100, Note_off_c, 40
3, 53100, Note_off_c, 35
3, 53100, Note_off_c, 28
3, 53160, Note_on_c, 28
3, 53180, Note_off_c, 28
3, 53180, Note_on_c, 28
3, 53200, Note_off_c, 28
3, 53200, Note_on_c, 28
3, 53220, Note_off_c, 28
3, 53220, Note_on_c, 28
3, 53240, Note_off_c, 28
3, 53240, Note_on_c, 28
3, 53260, Note_off_c, 28
3, 53260, Note_on_c, 28
3, 53280, Note_off_c, 28
3, 53280, Note_on_c, 40
3, 53280, Note_on_c, 35
3, 53280, Note_on_c, 28
3, 53340, Note_off_c, 40
3, 53340, Note_off_c, 35
3, 53340, Note_off_c, 28
3, 53400, Note_on_c, 28
3, 53420, Note_off_c, 28
3, 53420, Note_on_c, 28
3, 53440, Note_off_c, 28
3, 53440, Note_on_c, 28
3, 53460, Note_off_c, 28
3, 53460, Note_on_c, 28
3, 53480, Note_off_c, 28
3, 53480, Note_on_c, 28
3, 53500, Note_off_c, 28
3, 53500, Note_on_c, 28
3, 53520, Note_off_c, 28
3, 53520, Note_on_c, 40
3, 53520, Note_on_c, 35
3, 53520, Note_on_c, 28
3, 53580, Note_off_c, 40
3, 53580, Note_off_c, 35
3, 53580, Note_off_c, 28
3, 53640, Note_on_c, 28
3, 53660, Note_off_c, 28
3, 53660, Note_on_c, 28
3, 53680, Note_off_c, 28
3, 53680, Note_on_c, 28
3, 53700, Note_off_c, 28
3, 53700, Note_on_c, 28
3, 53720, Note_off_c, 28
3, 53720, Note_on_c, 28
3, 53740, Note_off_c, 28
3, 53740, Note_on_c, 28
3, 53760, Note_off_c, 28
3, 53760, Note_on_c, 40
3, 53760, Note_on_c, 35
3, 53760, Note_on_c, 28
3, 53820, Note_off_c, 40
3, 53820, Note_off_c, 35
3, 53820, Note_off_c, 28
3, 53880, Note_on_c, 28
3, 53900, Note_off_c, 28
3, 53900, Note_on_c, 28
3, 53920, Note_off_c, 28
3, 53920, Note_on_c, 28
3, 53940, Note_off_c, 28
3, 53940, Note_on_c, 28
3, 53960, Note_off_c, 28
3, 53960, Note_on_c, 28
3, 53980, Note_off_c, 28
3, 53980, Note_on_c, 28
3, 54000, Note_off_c, 28
3, 54000, Note_on_c, 40
3, 54000, Note_on_c, 35
3, 54000, Note_on_c, 28
3, 54120, Note_off_c, 40
3, 54120, Note_off_c, 35
3, 54120, Note_off_c, 28
3, 54120, Note_on_c, 28
3, 54140, Note_off_c, 28
3, 54140, Note_on_c, 28
3, 54160, Note_off_c, 28
3, 54160, Note_on_c, 28
3, 54180, Note_off_c, 28
3, 54180, Note_on_c, 28
3, 54200, Note_off_c, 28
3, 54200, Note_on_c, 28
3, 54220, Note_off_c, 28
3, 54220, Note_on_c, 28
3, 54240, Note_off_c, 28
3, 54240, Note_on_c, 40
3, 54240, Note_on_c, 35
3, 54240, Note_on_c, 28
3, 54300, Note_off_c, 40
3, 54300, Note_off_c, 35
3, 54300, Note_off_c, 28
3, 54360, Note_on_c, 28
3, 54380, Note_off_c, 28
3, 54380, Note_on_c, 28
3, 54400, Note_off_c, 28
3, 54400, Note_on_c, 28
3, 54420, Note_off_c, 28
3, 54420, Note_on_c, 28
3, 54440, Note_off_c, 28
3, 54440, Note_on_c, 28
3, 54460, Note_off_c, 28
3, 54460, Note_on_c, 28
3, 54480, Note_off_c, 28
3, 54480, Note_on_c, 40
3, 54480, Note_on_c, 35
3, 54480, Note_on_c, 28
3, 54600, Note_off_c, 40
3, 54600, Note_off_c, 35
3, 54600, Note_off_c, 28
3, 54600, Note_on_c, 28
3, 54620, Note_off_c, 28
3, 54620, Note_on_c, 28
3, 54640, Note_off_c, 28
3, 54640, Note_on_c, 28
3, 54660, Note_off_c, 28
3, 54660, Note_on_c, 28
3, 54680, Note_off_c, 28
3, 54680, Note_on_c, 28
3, 54700, Note_off_c, 28
3, 54700, Note_on_c, 28
3, 54720, Note_off_c, 28
3, 54720, Note_on_c, 40
3, 54720, Note_on_c, 35
3, 54780, Note_off_c, 40
3, 54780, Note_off_c, 35
3, 54780, Note_on_c, 36
3, 54780, Note_on_c, 41
3, 54840, Note_off_c, 36
3, 54840, Note_off_c, 41
3, 54840, Note_on_c, 28
3, 54860, Note_off_c, 28
3, 54860, Note_on_c, 28
3, 54880, Note_off_c, 28
3, 54880, Note_on_c, 28
3, 54900, Note_off_c, 28
3, 54900, Note_on_c, 28
3, 54920, Note_off_c, 28
3, 54920, Note_on_c, 28
3, 54940, Note_off_c, 28
3, 54940, Note_on_c, 28
3, 54960, Note_off_c, 28
3, 54960, Note_on_c, 40
3, 54960, Note_on_c, 35
3, 54960, Note_on_c, 28
3, 55080, Note_off_c, 40
3, 55080, Note_off_c, 35
3, 55080, Note_off_c, 28
3, 55080, Note_on_c, 28
3, 55100, Note_off_c, 28
3, 55100, Note_on_c, 28
3, 55120, Note_off_c, 28
3, 55120, Note_on_c, 28
3, 55140, Note_off_c, 28
3, 55140, Note_on_c, 28
3, 55160, Note_off_c, 28
3, 55160, Note_on_c, 28
3, 55180, Note_off_c, 28
3, 55180, Note_on_c, 28
3, 55200, Note_off_c, 28
3, 55200, Note_on_c, 40
3, 55200, Note_on_c, 35
3, 55260, Note_off_c, 40
3, 55260, Note_off_c, 35
3, 55260, Note_on_c, 36
3, 55260, Note_on_c, 41
3, 55320, Note_off_c, 36
3, 55320, Note_off_c, 41
3, 55320, Note_on_c, 28
3, 55340, Note_off_c, 28
3, 55340, Note_on_c, 28
3, 55360, Note_off_c, 28
3, 55360, Note_on_c, 28
3, 55380, Note_off_c, 28
3, 55380, Note_on_c, 28
3, 55400, Note_off_c, 28
3, 55400, Note_on_c, 28
3, 55420, Note_off_c, 28
3, 55420, Note_on_c, 28
3, 55440, Note_off_c, 28
3, 55440, Note_on_c, 40
3, 55440, Note_on_c, 35
3, 55440, Note_on_c, 28
3, 55560, Note_off_c, 40
3, 55560, Note_off_c, 35
3, 55560, Note_off_c, 28
3, 55560, Note_on_c, 28
3, 55580, Note_off_c, 28
3, 55580, Note_on_c, 28
3, 55600, Note_off_c, 28
3, 55600, Note_on_c, 28
3, 55620, Note_off_c, 28
3, 55620, Note_on_c, 28
3, 55640, Note_off_c, 28
3, 55640, Note_on_c, 28
3, 55660, Note_off_c, 28
3, 55660, Note_on_c, 28
3, 55680, Note_off_c, 28
3, 55680, Note_on_c, 40
3, 55680, Note_on_c, 35
3, 55740, Note_off_c, 40
3, 55740, Note_off_c, 35
3, 55740, Note_on_c, 36
3, 55740, Note_on_c, 41
3, 55800, Note_off_c, 36
3, 55800, Note_off_c, 41
3, 55800, Note_on_c, 28
3, 55820, Note_off_c, 28
3, 55820, Note_on_c, 28
3, 55840, Note_off_c, 28
3, 55840, Note_on_c, 28
3, 55860, Note_off_c, 28
3, 55860, Note_on_c, 28
3, 55880, Note_off_c, 28
3, 55880, Note_on_c, 28
3, 55900, Note_off_c, 28
3, 55900, Note_on_c, 28
3, 55920, Note_off_c, 28
3, 55920, Note_on_c, 40
3, 55920, Note_on_c, 35
3, 55920, Note_on_c, 28
3, 56040, Note_off_c, 40
3, 56040, Note_off_c, 35
3, 56040, Note_off_c, 28
3, 56040, Note_on_c, 28
3, 56060, Note_off_c, 28
3, 56060, Note_on_c, 28
3, 56080, Note_off_c, 28
3, 56080, Note_on_c, 28
3, 56100, Note_off_c, 28
3, 56100, Note_on_c, 28
3, 56120, Note_off_c, 28
3, 56120, Note_on_c, 28
3, 56140, Note_off_c, 28
3, 56140, Note_on_c, 28
3, 56160, Note_off_c, 28
3, 56160, Note_on_c, 40
3, 56160, Note_on_c, 35
3, 56220, Note_off_c, 40
3, 56220, Note_off_c, 35
3, 56220, Note_on_c, 36
3, 56220, Note_on_c, 41
3, 56280, Note_off_c, 36
3, 56280, Note_off_c, 41
3, 56280, Note_on_c, 28
3, 56300, Note_off_c, 28
3, 56300, Note_on_c, 28
3, 56320, Note_off_c, 28
3, 56320, Note_on_c, 28
3, 56340, Note_off_c, 28
3, 56340, Note_on_c, 28
3, 56360, Note_off_c, 28
3, 56360, Note_on_c, 28
3, 56380, Note_off_c, 28
3, 56380, Note_on_c, 28
3, 56400, Note_off_c, 28
3, 56400, Note_on_c, 40
3, 56400, Note_on_c, 35
3, 56400, Note_on_c, 28
3, 56520, Note_off_c, 40
3, 56520, Note_off_c, 35
3, 56520, Note_off_c, 28
3, 56520, Note_on_c, 28
3, 56540, Note_off_c, 28
3, 56540, Note_on_c, 28
3, 56560, Note_off_c, 28
3, 56560, Note_on_c, 28
3, 56580, Note_off_c, 28
3, 56580, Note_on_c, 28
3, 56600, Note_off_c, 28
3, 56600, Note_on_c, 28
3, 56620, Note_off_c, 28
3, 56620, Note_on_c, 28
3, 56640, Note_off_c, 28
3, 56640, Note_on_c, 40
3, 56640, Note_on_c, 35
3, 56700, Note_off_c, 40
3, 56700, Note_off_c, 35
3, 56700, Note_on_c, 36
3, 56700, Note_on_c, 41
3, 56760, Note_off_c, 36
3, 56760, Note_off_c, 41
3, 56760, Note_on_c, 28
3, 56780, Note_off_c, 28
3, 56780, Note_on_c, 28
3, 56800, Note_off_c, 28
3, 56800, Note_on_c, 28
3, 56820, Note_off_c, 28
3, 56820, Note_on_c, 28
3, 56840, Note_off_c, 28
3, 56840, Note_on_c, 28
3, 56860, Note_off_c, 28
3, 56860, Note_on_c, 28
3, 56880, Note_off_c, 28
3, 56880, Note_on_c, 40
3, 56880, Note_on_c, 35
3, 56940, Note_off_c, 40
3, 56940, Note_off_c, 35
3, 57000, Note_on_c, 28
3, 57020, Note_off_c, 28
3, 57020, Note_on_c, 28
3, 57040, Note_off_c, 28
3, 57040, Note_on_c, 28
3, 57060, Note_off_c, 28
3, 57060, Note_on_c, 28
3, 57080, Note_off_c, 28
3, 57080, Note_on_c, 28
3, 57100, Note_off_c, 28
3, 57100, Note_on_c, 28
3, 57120, Note_off_c, 28
3, 57120, Note_on_c, 40
3, 57120, Note_on_c, 35
3, 57180, Note_off_c, 40
3, 57180, Note_off_c, 35
3, 57240, Note_on_c, 28
3, 57260, Note_off_c, 28
3, 57260, Note_on_c, 28
3, 57280, Note_off_c, 28
3, 57280, Note_on_c, 28
3, 57300, Note_off_c, 28
3, 57300, Note_on_c, 28
3, 57320, Note_off_c, 28
3, 57320, Note_on_c, 28
3, 57340, Note_off_c, 28
3, 57340, Note_on_c, 28
3, 57360, Note_off_c, 28
3, 57360, Note_on_c, 40
3, 57360, Note_on_c, 35
3, 57420, Note_off_c, 40
3, 57420, Note_off_c, 35
3, 57480, Note_on_c, 28
3, 57500, Note_off_c, 28
3, 57500, Note_on_c, 28
3, 57520, Note_off_c, 28
3, 57520, Note_on_c, 28
3, 57540, Note_off_c, 28
3, 57540, Note_on_c, 28
3, 57560, Note_off_c, 28
3, 57560, Note_on_c, 28
3, 57580, Note_off_c, 28
3, 57580, Note_on_c, 28
3, 57600, Note_off_c, 28
3, 57600, Note_on_c, 40
3, 57600, Note_on_c, 35
3, 57660, Note_off_c, 40
3, 57660, Note_off_c, 35
3, 57660, Note_on_c, 36
3, 57660, Note_on_c, 41
3, 57720, Note_off_c, 36
3, 57720, Note_off_c, 41
3, 57720, Note_on_c, 28
3, 57740, Note_off_c, 28
3, 57740, Note_on_c, 28
3, 57760, Note_off_c, 28
3, 57760, Note_on_c, 28
3, 57780, Note_off_c, 28
3, 57780, Note_on_c, 28
3, 57800, Note_off_c, 28
3, 57800, Note_on_c, 28
3, 57820, Note_off_c, 28
3, 57820, Note_on_c, 28
3, 57840, Note_off_c, 28
3, 57840, Note_on_c, 40
3, 57840, Note_on_c, 35
3, 57900, Note_off_c, 40
3, 57900, Note_off_c, 35
3, 57960, Note_on_c, 28
3, 57980, Note_off_c, 28
3, 57980, Note_on_c, 28
3, 58000, Note_off_c, 28
3, 58000, Note_on_c, 28
3, 58020, Note_off_c, 28
3, 58020, Note_on_c, 28
3, 58040, Note_off_c, 28
3, 58040, Note_on_c, 28
3, 58060, Note_off_c, 28
3, 58060, Note_on_c, 28
3, 58080, Note_off_c, 28
3, 58080, Note_on_c, 40
3, 58080, Note_on_c, 35
3, 58140, Note_off_c, 40
3, 58140, Note_off_c, 35
3, 58200, Note_on_c, 28
3, 58220, Note_off_c, 28
3, 58220, Note_on_c, 28
3, 58240, Note_off_c, 28
3, 58240, Note_on_c, 28
3, 58260, Note_off_c, 28
3, 58260, Note_on_c, 28
3, 58280, Note_off_c, 28
3, 58280, Note_on_c, 28
3, 58300, Note_off_c, 28
3, 58300, Note_on_c, 28
3, 58320, Note_off_c, 28
3, 58320, Note_on_c, 40
3, 58320, Note_on_c, 35
3, 58380, Note_off_c, 40
3, 58380, Note_off_c, 35
3, 58440, Note_on_c, 28
3, 58460, Note_off_c, 28
3, 58460, Note_on_c, 28
3, 58480, Note_off_c, 28
3, 58480, Note_on_c, 28
3, 58500, Note_off_c, 28
3, 58500, Note_on_c, 28
3, 58520, Note_off_c, 28
3, 58520, Note_on_c, 28
3, 58540, Note_off_c, 28
3, 58540, Note_on_c, 28
3, 58560, Note_off_c, 28
3, 58560, Note_on_c, 40
3, 58560, Note_on_c, 35
3, 58620, Note_off_c, 40
3, 58620, Note_off_c, 35
3, 58620, Note_on_c, 36
3, 58620, Note_on_c, 41
3, 58680, Note_off_c, 36
3, 58680, Note_off_c, 41
3, 58680, Note_on_c, 28
3, 58700, Note_off_c, 28
3, 58700, Note_on_c, 28
3, 58720, Note_off_c, 28
3, 58720, Note_on_c, 28
3, 58740, Note_off_c, 28
3, 58740, Note_on_c, 28
3, 58760, Note_off_c, 28
3, 58760, Note_on_c, 28
3, 58780, Note_off_c, 28
3, 58780, Note_on_c, 28
3, 58800, Note_off_c, 28
3, 58800, Note_on_c, 40
3, 58920, Note_off_c, 40
3, 58920, Note_on_c, 28
3, 58940, Note_off_c, 28
3, 58940, Note_on_c, 28
3, 58960, Note_off_c, 28
3, 58960, Note_on_c, 28
3, 58980, Note_off_c, 28
3, 58980, Note_on_c, 28
3, 59000, Note_off_c, 28
3, 59000, Note_on_c, 28
3, 59020, Note_off_c, 28
3, 59020, Note_on_c, 28
3, 59040, Note_off_c, 28
3, 59040, Note_on_c, 40
3, 59100, Note_off_c, 40
3, 59100, Note_on_c, 41
3, 59160, Note_off_c, 41
3, 59160, Note_on_c, 28
3, 59180, Note_off_c, 28
3, 59180, Note_on_c, 28
3, 59200, Note_off_c, 28
3, 59200, Note_on_c, 28
3, 59220, Note_off_c, 28
3, 59220, Note_on_c, 28
3, 59240, Note_off_c, 28
3, 59240, Note_on_c, 28
3, 59260, Note_off_c, 28
3, 59260, Note_on_c, 28
3, 59280, Note_off_c, 28
3, 59280, Note_on_c, 38
3, 59400, Note_off_c, 38
3, 59400, Note_on_c, 28
3, 59420, Note_off_c, 28
3, 59420, Note_on_c, 28
3, 59440, Note_off_c, 28
3, 59440, Note_on_c, 28
3, 59460, Note_off_c, 28
3, 59460, Note_on_c, 28
3, 59480, Note_off_c, 28
3, 59480, Note_on_c, 28
3, 59500, Note_off_c, 28
3, 59500, Note_on_c, 28
3, 59520, Note_off_c, 28
3, 59520, Note_on_c, 38
3, 59580, Note_off_c, 38
3, 59580, Note_on_c, 41
3, 59640, Note_off_c, 41
3, 59640, Note_on_c, 28
3, 59660, Note_off_c, 28
3, 59660, Note_on_c, 28
3, 59680, Note_off_c, 28
3, 59680, Note_on_c, 28
3, 59700, Note_off_c, 28
3, 59700, Note_on_c, 28
3, 59720, Note_off_c, 28
3, 59720, Note_on_c, 28
3, 59740, Note_off_c, 28
3, 59740, Note_on_c, 28
3, 59760, Note_off_c, 28
3, 59760, Note_on_c, 40
3, 59880, Note_off_c, 40
3, 59880, Note_on_c, 28
3, 59900, Note_off_c, 28
3, 59900, Note_on_c, 28
3, 59920, Note_off_c, 28
3, 59920, Note_on_c, 28
3, 59940, Note_off_c, 28
3, 59940, Note_on_c, 28
3, 59960, Note_off_c, 28
3, 59960, Note_on_c, 28
3, 59980, Note_off_c, 28
3, 59980, Note_on_c, 28
3, 60000, Note_off_c, 28
3, 60000, Note_on_c, 40
3, 60060, Note_off_c, 40
3, 60060, Note_on_c, 41
3, 60120, Note_off_c, 41
3, 60120, Note_on_c, 28
3, 60140, Note_off_c, 28
3, 60140, Note_on_c, 28
3, 60160, Note_off_c, 28
3, 60160, Note_on_c, 28
3, 60180, Note_off_c, 28
3, 60180, Note_on_c, 28
3, 60200, Note_off_c, 28
3, 60200, Note_on_c, 28
3, 60220, Note_off_c, 28
3, 60220, Note_on_c, 28
3, 60240, Note_off_c, 28
3, 60240, Note_on_c, 38
3, 60360, Note_off_c, 38
3, 60360, Note_on_c, 28
3, 60380, Note_off_c, 28
3, 60380, Note_on_c, 28
3, 60400, Note_off_c, 28
3, 60400, Note_on_c, 28
3, 60420, Note_off_c, 28
3, 60420, Note_on_c, 28
3, 60440, Note_off_c, 28
3, 60440, Note_on_c, 28
3, 60460, Note_off_c, 28
3, 60460, Note_on_c, 28
3, 60480, Note_off_c, 28
3, 60480, Note_on_c, 38
3, 60540, Note_off_c, 38
3, 60540, Note_on_c, 35
3, 60600, Note_off_c, 35
3, 60600, Note_on_c, 28
3, 60620, Note_off_c, 28
3, 60620, Note_on_c, 28
3, 60640, Note_off_c, 28
3, 60640, Note_on_c, 28
3, 60660, Note_off_c, 28
3, 60660, Note_on_c, 28
3, 60680, Note_off_c, 28
3, 60680, Note_on_c, 28
3, 60700, Note_off_c, 28
3, 60700, Note_on_c, 28
3, 60720, Note_off_c, 28
3, 60720, Note_on_c, 40
3, 60720, Note_on_c, 35
3, 60780, Note_off_c, 40
3, 60780, Note_off_c, 35
3, 60840, Note_on_c, 28
3, 60860, Note_off_c, 28
3, 60860, Note_on_c, 28
3, 60880, Note_off_c, 28
3, 60880, Note_on_c, 28
3, 60900, Note_off_c, 28
3, 60900, Note_on_c, 28
3, 60920, Note_off_c, 28
3, 60920, Note_on_c, 28
3, 60940, Note_off_c, 28
3, 60940, Note_on_c, 28
3, 60960, Note_off_c, 28
3, 60960, Note_on_c, 40
3, 60960, Note_on_c, 35
3, 61020, Note_off_c, 40
3, 61020, Note_off_c, 35
3, 61080, Note_on_c, 28
3, 61100, Note_off_c, 28
3, 61100, Note_on_c, 28
3, 61120, Note_off_c, 28
3, 61120, Note_on_c, 28
3, 61140, Note_off_c, 28
3, 61140, Note_on_c, 28
3, 61160, Note_off_c, 28
3, 61160, Note_on_c, 28
3, 61180, Note_off_c, 28
3, 61180, Note_on_c, 28
3, 61200, Note_off_c, 28
3, 61200, Note_on_c, 40
3, 61200, Note_on_c, 35
3, 61260, Note_off_c, 40
3, 61260, Note_off_c, 35
3, 61320, Note_on_c, 28
3, 61340, Note_off_c, 28
3, 61340, Note_on_c, 28
3, 61360, Note_off_c, 28
3, 61360, Note_on_c, 28
3, 61380, Note_off_c, 28
3, 61380, Note_on_c, 28
3, 61400, Note_off_c, 28
3, 61400, Note_on_c, 28
3, 61420, Note_off_c, 28
3, 61420, Note_on_c, 28
3, 61440, Note_off_c, 28
3, 61440, Note_on_c, 40
3, 61440, Note_on_c, 35
3, 61500, Note_off_c, 40
3, 61500, Note_off_c, 35
3, 61500, Note_on_c, 36
3, 61500, Note_on_c, 41
3, 61560, Note_off_c, 36
3, 61560, Note_off_c, 41
3, 61560, Note_on_c, 28
3, 61580, Note_off_c, 28
3, 61580, Note_on_c, 28
3, 61600, Note_off_c, 28
3, 61600, Note_on_c, 28
3, 61620, Note_off_c, 28
3, 61620, Note_on_c, 28
3, 61640, Note_off_c, 28
3, 61640, Note_on_c, 28
3, 61660, Note_off_c, 28
3, 61660, Note_on_c, 28
3, 61680, Note_off_c, 28
3, 61680, Note_on_c, 40
3, 61680, Note_on_c, 35
3, 61740, Note_off_c, 40
3, 61740, Note_off_c, 35
3, 61800, Note_on_c, 28
3, 61820, Note_off_c, 28
3, 61820, Note_on_c, 28
3, 61840, Note_off_c, 28
3, 61840, Note_on_c, 28
3, 61860, Note_off_c, 28
3, 61860, Note_on_c, 28
3, 61880, Note_off_c, 28
3, 61880, Note_on_c, 28
3, 61900, Note_off_c, 28
3, 61900, Note_on_c, 28
3, 61920, Note_off_c, 28
3, 61920, Note_on_c, 40
3, 61920, Note_on_c, 35
3, 61980, Note_off_c, 40
3, 61980, Note_off_c, 35
3, 62040, Note_on_c, 28
3, 62060, Note_off_c, 28
3, 62060, Note_on_c, 28
3, 62080, Note_off_c, 28
3, 62080, Note_on_c, 28
3, 62100, Note_off_c, 28
3, 62100, Note_on_c, 28
3, 62120, Note_off_c, 28
3, 62120, Note_on_c, 28
3, 62140, Note_off_c, 28
3, 62140, Note_on_c, 28
3, 62160, Note_off_c, 28
3, 62160, Note_on_c, 40
3, 62160, Note_on_c, 35
3, 62220, Note_off_c, 40
3, 62220, Note_off_c, 35
3, 62280, Note_on_c, 28
3, 62300, Note_off_c, 28
3, 62300, Note_on_c, 28
3, 62320, Note_off_c, 28
3, 62320, Note_on_c, 28
3, 62340, Note_off_c, 28
3, 62340, Note_on_c, 28
3, 62360, Note_off_c, 28
3, 62360, Note_on_c, 28
3, 62380, Note_off_c, 28
3, 62380, Note_on_c, 28
3, 62400, Note_off_c, 28
3, 62400, Note_on_c, 40
3, 62400, Note_on_c, 35
3, 62460, Note_off_c, 40
3, 62460, Note_off_c, 35
3, 62460, Note_on_c, 36
3, 62460, Note_on_c, 41
3, 62520, Note_off_c, 36
3, 62520, Note_off_c, 41
3, 62520, Note_on_c, 28
3, 62560, Note_off_c, 28
3, 62560, Note_on_c, 28
3, 62600, Note_off_c, 28
3, 62600, Note_on_c, 28
3, 62640, Note_off_c, 28
3, 62640, Note_on_c, 28
3, 62680, Note_off_c, 28
3, 62680, Note_on_c, 28
3, 62720, Note_off_c, 28
3, 62720, Note_on_c, 28
3, 62760, Note_off_c, 28
3, 62760, Note_on_c, 40
3, 62760, Note_on_c, 35
3, 62880, Note_off_c, 40
3, 62880, Note_off_c, 35
3, 62880, Note_on_c, 28
3, 62920, Note_off_c, 28
3, 62920, Note_on_c, 28
3, 62960, Note_off_c, 28
3, 62960, Note_on_c, 28
3, 63000, Note_off_c, 28
3, 63000, Note_on_c, 28
3, 63040, Note_off_c, 28
3, 63040, Note_on_c, 28
3, 63080, Note_off_c, 28
3, 63080, Note_on_c, 28
3, 63120, Note_off_c, 28
3, 63120, Note_on_c, 40
3, 63120, Note_on_c, 35
3, 63240, Note_off_c, 40
3, 63240, Note_off_c, 35
3, 63240, Note_on_c, 28
3, 63280, Note_off_c, 28
3, 63280, Note_on_c, 28
3, 63320, Note_off_c, 28
3, 63320, Note_on_c, 28
3, 63360, Note_off_c, 28
3, 63360, Note_on_c, 41
3, 63360, Note_on_c, 36
3, 63480, Note_off_c, 41
3, 63480, Note_off_c, 36
3, 63480, Note_on_c, 28
3, 63520, Note_off_c, 28
3, 63520, Note_on_c, 28
3, 63560, Note_off_c, 28
3, 63560, Note_on_c, 28
3, 63600, Note_off_c, 28
3, 63600, Note_on_c, 28
3, 63640, Note_off_c, 28
3, 63640, Note_on_c, 28
3, 63680, Note_off_c, 28
3, 63680, Note_on_c, 28
3, 63720, Note_off_c, 28
3, 63720, Note_on_c, 40
3, 63720, Note_on_c, 35
3, 63840, Note_off_c, 40
3, 63840, Note_off_c, 35
3, 63840, Note_on_c, 28
3, 63880, Note_off_c, 28
3, 63880, Note_on_c, 28
3, 63920, Note_off_c, 28
3, 63920, Note_on_c, 28
3, 63960, Note_off_c, 28
3, 63960, Note_on_c, 28
3, 64000, Note_off_c, 28
3, 64000, Note_on_c, 28
3, 64040, Note_off_c, 28
3, 64040, Note_on_c, 28
3, 64080, Note_off_c, 28
3, 64080, Note_on_c, 40
3, 64080, Note_on_c, 35
3, 64200, Note_off_c, 40
3, 64200, Note_off_c, 35
3, 64200, Note_on_c, 28
3, 64240, Note_off_c, 28
3, 64240, Note_on_c, 28
3, 64280, Note_off_c, 28
3, 64280, Note_on_c, 28
3, 64320, Note_off_c, 28
3, 64320, Note_on_c, 41
3, 64320, Note_on_c, 36
3, 64440, Note_off_c, 41
3, 64440, Note_off_c, 36
3, 64440, Note_on_c, 28
3, 64480, Note_off_c, 28
3, 64480, Note_on_c, 28
3, 64520, Note_off_c, 28
3, 64520, Note_on_c, 28
3, 64560, Note_off_c, 28
3, 64560, Note_on_c, 28
3, 64600, Note_off_c, 28
3, 64600, Note_on_c, 28
3, 64640, Note_off_c, 28
3, 64640, Note_on_c, 28
3, 64680, Note_off_c, 28
3, 64680, Note_on_c, 40
3, 64680, Note_on_c, 35
3, 64800, Note_off_c, 40
3, 64800, Note_off_c, 35
3, 64800, Note_on_c, 28
3, 64840, Note_off_c, 28
3, 64840, Note_on_c, 28
3, 64880, Note_off_c, 28
3, 64880, Note_on_c, 28
3, 64920, Note_off_c, 28
3, 64920, Note_on_c, 28
3, 64960, Note_off_c, 28
3, 64960, Note_on_c, 28
3, 65000, Note_off_c, 28
3, 65000, Note_on_c, 28
3, 65040, Note_off_c, 28
3, 65040, Note_on_c, 40
3, 65040, Note_on_c, 35
3, 65160, Note_off_c, 40
3, 65160, Note_off_c, 35
3, 65160, Note_on_c, 28
3, 65200, Note_off_c, 28
3, 65200, Note_on_c, 28
3, 65240, Note_off_c, 28
3, 65240, Note_on_c, 28
3, 65280, Note_off_c, 28
3, 65280, Note_on_c, 41
3, 65280, Note_on_c, 36
3, 65400, Note_off_c, 41
3, 65400, Note_off_c, 36
3, 65400, Note_on_c, 28
3, 65440, Note_off_c, 28
3, 65440, Note_on_c, 28
3, 65480, Note_off_c, 28
3, 65480, Note_on_c, 28
3, 65520, Note_off_c, 28
3, 65520, Note_on_c, 28
3, 65560, Note_off_c, 28
3, 65560, Note_on_c, 28
3, 65600, Note_off_c, 28
3, 65600, Note_on_c, 28
3, 65640, Note_off_c, 28
3, 65640, Note_on_c, 40
3, 65640, Note_on_c, 35
3, 65760, Note_off_c, 40
3, 65760, Note_off_c, 35
3, 65760, Note_on_c, 28
3, 65800, Note_off_c, 28
3, 65800, Note_on_c, 28
3, 65840, Note_off_c, 28
3, 65840, Note_on_c, 28
3, 65880, Note_off_c, 28
3, 65880, Note_on_c, 28
3, 65920, Note_off_c, 28
3, 65920, Note_on_c, 28
3, 65960, Note_off_c, 28
3, 65960, Note_on_c, 28
3, 66000, Note_off_c, 28
3, 66000, Note_on_c, 40
3, 66000, Note_on_c, 35
3, 66120, Note_off_c, 40
3, 66120, Note_off_c, 35
3, 66120, Note_on_c, 28
3, 66160, Note_off_c, 28
3, 66160, Note_on_c, 28
3, 66200, Note_off_c, 28
3, 66200, Note_on_c, 28
3, 66240, Note_off_c, 28
3, 66240, Note_on_c, 41
3, 66240, Note_on_c, 36
3, 66360, Note_off_c, 41
3, 66360, Note_off_c, 36
3, 66360, Note_on_c, 28
3, 66400, Note_off_c, 28
3, 66400, Note_on_c, 28
3, 66440, Note_off_c, 28
3, 66440, Note_on_c, 28
3, 66480, Note_off_c, 28
3, 66480, Note_on_c, 28
3, 66520, Note_off_c, 28
3, 66520, Note_on_c, 28
3, 66560, Note_off_c, 28
3, 66560, Note_on_c, 28
3, 66600, Note_off_c, 28
3, 66600, Note_on_c, 28
3, 66660, Note_off_c, 28
3, 66720, Note_on_c, 28
3, 66760, Note_off_c, 28
3, 66760, Note_on_c, 28
3, 66800, Note_off_c, 28
3, 66800, Note_on_c, 28
3, 66840, Note_off_c, 28
3, 66840, Note_on_c, 28
3, 66880, Note_off_c, 28
3, 66880, Note_on_c, 28
3, 66920, Note_off_c, 28
3, 66920, Note_on_c, 28
3, 66960, Note_off_c, 28
3, 66960, Note_on_c, 28
3, 67020, Note_off_c, 28
3, 67080, Note_on_c, 28
3, 67120, Note_off_c, 28
3, 67120, Note_on_c, 28
3, 67160, Note_off_c, 28
3, 67160, Note_on_c, 28
3, 67200, Note_off_c, 28
3, 67200, Note_on_c, 28
3, 67260, Note_off_c, 28
3, 67320, Note_on_c, 28
3, 67360, Note_off_c, 28
3, 67360, Note_on_c, 28
3, 67400, Note_off_c, 28
3, 67400, Note_on_c, 28
3, 67440, Note_off_c, 28
3, 67440, Note_on_c, 28
3, 67480, Note_off_c, 28
3, 67480, Note_on_c, 28
3, 67520, Note_off_c, 28
3, 67520, Note_on_c, 28
3, 67560, Note_off_c, 28
3, 67560, Note_on_c, 28
3, 67620, Note_off_c, 28
3, 67680, Note_on_c, 28
3, 67720, Note_off_c, 28
3, 67720, Note_on_c, 28
3, 67760, Note_off_c, 28
3, 67760, Note_on_c, 28
3, 67800, Note_off_c, 28
3, 67800, Note_on_c, 28
3, 67840, Note_off_c, 28
3, 67840, Note_on_c, 28
3, 67880, Note_off_c, 28
3, 67880, Note_on_c, 28
3, 67920, Note_off_c, 28
3, 67920, Note_on_c, 28
3, 67980, Note_off_c, 28
3, 68040, Note_on_c, 28
3, 68080, Note_off_c, 28
3, 68080, Note_on_c, 28
3, 68120, Note_off_c, 28
3, 68120, Note_on_c, 28
3, 68160, Note_off_c, 28
3, 68160, Note_on_c, 28
3, 68200, Note_off_c, 28
3, 68200, Note_on_c, 28
3, 68240, Note_off_c, 28
3, 68240, Note_on_c, 28
3, 68280, Note_off_c, 28
3, 68280, Note_on_c, 28
3, 68320, Note_off_c, 28
3, 68320, Note_on_c, 28
3, 68360, Note_off_c, 28
3, 68360, Note_on_c, 28
3, 68400, Note_off_c, 28
3, 68400, Note_on_c, 28
3, 68440, Note_off_c, 28
3, 68440, Note_on_c, 28
3, 68480, Note_off_c, 28
3, 68480, Note_on_c, 28
3, 68520, Note_off_c, 28
3, 68520, Note_on_c, 40
3, 68520, Note_on_c, 35
3, 68640, Note_off_c, 40
3, 68640, Note_off_c, 35
3, 68640, Note_on_c, 28
3, 68680, Note_off_c, 28
3, 68680, Note_on_c, 28
3, 68720, Note_off_c, 28
3, 68720, Note_on_c, 28
3, 68760, Note_off_c, 28
3, 68760, Note_on_c, 28
3, 68800, Note_off_c, 28
3, 68800, Note_on_c, 28
3, 68840, Note_off_c, 28
3, 68840, Note_on_c, 28
3, 68880, Note_off_c, 28
3, 68880, Note_on_c, 40
3, 68880, Note_on_c, 35
3, 69000, Note_off_c, 40
3, 69000, Note_off_c, 35
3, 69000, Note_on_c, 28
3, 69040, Note_off_c, 28
3, 69040, Note_on_c, 28
3, 69080, Note_off_c, 28
3, 69080, Note_on_c, 28
3, 69120, Note_off_c, 28
3, 69120, Note_on_c, 41
3, 69120, Note_on_c, 36
3, 69240, Note_off_c, 41
3, 69240, Note_off_c, 36
3, 69240, Note_on_c, 28
3, 69280, Note_off_c, 28
3, 69280, Note_on_c, 28
3, 69320, Note_off_c, 28
3, 69320, Note_on_c, 28
3, 69360, Note_off_c, 28
3, 69360, Note_on_c, 28
3, 69400, Note_off_c, 28
3, 69400, Note_on_c, 28
3, 69440, Note_off_c, 28
3, 69440, Note_on_c, 28
3, 69480, Note_off_c, 28
3, 69480, Note_on_c, 40
3, 69480, Note_on_c, 35
3, 69600, Note_off_c, 40
3, 69600, Note_off_c, 35
3, 69600, Note_on_c, 28
3, 69640, Note_off_c, 28
3, 69640, Note_on_c, 28
3, 69680, Note_off_c, 28
3, 69680, Note_on_c, 28
3, 69720, Note_off_c, 28
3, 69720, Note_on_c, 28
3, 69760, Note_off_c, 28
3, 69760, Note_on_c, 28
3, 69800, Note_off_c, 28
3, 69800, Note_on_c, 28
3, 69840, Note_off_c, 28
3, 69840, Note_on_c, 40
3, 69840, Note_on_c, 35
3, 69960, Note_off_c, 40
3, 69960, Note_off_c, 35
3, 69960, Note_on_c, 28
3, 70000, Note_off_c, 28
3, 70000, Note_on_c, 28
3, 70040, Note_off_c, 28
3, 70040, Note_on_c, 28
3, 70080, Note_off_c, 28
3, 70080, Note_on_c, 41
3, 70080, Note_on_c, 36
3, 70200, Note_off_c, 41
3, 70200, Note_off_c, 36
3, 70200, Note_on_c, 28
3, 70240, Note_off_c, 28
3, 70240, Note_on_c, 28
3, 70280, Note_off_c, 28
3, 70280, Note_on_c, 28
3, 70320, Note_off_c, 28
3, 70320, Note_on_c, 28
3, 70360, Note_off_c, 28
3, 70360, Note_on_c, 28
3, 70400, Note_off_c, 28
3, 70400, Note_on_c, 28
3, 70440, Note_off_c, 28
3, 70440, Note_on_c, 40
3, 70440, Note_on_c, 35
3, 70560, Note_off_c, 40
3, 70560, Note_off_c, 35
3, 70560, Note_on_c, 28
3, 70600, Note_off_c, 28
3, 70600, Note_on_c, 28
3, 70640, Note_off_c, 28
3, 70640, Note_on_c, 28
3, 70680, Note_off_c, 28
3, 70680, Note_on_c, 28
3, 70720, Note_off_c, 28
3, 70720, Note_on_c, 28
3, 70760, Note_off_c, 28
3, 70760, Note_on_c, 28
3, 70800, Note_off_c, 28
3, 70800, Note_on_c, 40
3, 70800, Note_on_c, 35
3, 70920, Note_off_c, 40
3, 70920, Note_off_c, 35
3, 70920, Note_on_c, 28
3, 70960, Note_off_c, 28
3, 70960, Note_on_c, 28
3, 71000, Note_off_c, 28
3, 71000, Note_on_c, 28
3, 71040, Note_off_c, 28
3, 71040, Note_on_c, 41
3, 71040, Note_on_c, 36
3, 71160, Note_off_c, 41
3, 71160, Note_off_c, 36
3, 71160, Note_on_c, 28
3, 71200, Note_off_c, 28
3, 71200, Note_on_c, 28
3, 71240, Note_off_c, 28
3, 71240, Note_on_c, 28
3, 71280, Note_off_c, 28
3, 71280, Note_on_c, 28
3, 71320, Note_off_c, 28
3, 71320, Note_on_c, 28
3, 71360, Note_off_c, 28
3, 71360, Note_on_c, 28
3, 71400, Note_off_c, 28
3, 71400, Note_on_c, 40
3, 71400, Note_on_c, 35
3, 71520, Note_off_c, 40
3, 71520, Note_off_c, 35
3, 71520, Note_on_c, 28
3, 71560, Note_off_c, 28
3, 71560, Note_on_c, 28
3, 71600, Note_off_c, 28
3, 71600, Note_on_c, 28
3, 71640, Note_off_c, 28
3, 71640, Note_on_c, 28
3, 71680, Note_off_c, 28
3, 71680, Note_on_c, 28
3, 71720, Note_off_c, 28
3, 71720, Note_on_c, 28
3, 71760, Note_off_c, 28
3, 71760, Note_on_c, 40
3, 71760, Note_on_c, 35
3, 71880, Note_off_c, 40
3, 71880, Note_off_c, 35
3, 71880, Note_on_c, 28
3, 71920, Note_off_c, 28
3, 71920, Note_on_c, 28
3, 71960, Note_off_c, 28
3, 71960, Note_on_c, 28
3, 72000, Note_off_c, 28
3, 72000, Note_on_c, 41
3, 72000, Note_on_c, 36
3, 72120, Note_off_c, 41
3, 72120, Note_off_c, 36
3, 72120, Note_on_c, 28
3, 72160, Note_off_c, 28
3, 72160, Note_on_c, 28
3, 72200, Note_off_c, 28
3, 72200, Note_on_c, 28
3, 72240, Note_off_c, 28
3, 72240, Note_on_c, 28
3, 72280, Note_off_c, 28
3, 72280, Note_on_c, 28
3, 72320, Note_off_c, 28
3, 72320, Note_on_c, 28
3, 72360, Note_off_c, 28
3, 72360, Note_on_c, 28
3, 72420, Note_off_c, 28
3, 72480, Note_on_c, 28
3, 72520, Note_off_c, 28
3, 72520, Note_on_c, 28
3, 72560, Note_off_c, 28
3, 72560, Note_on_c, 28
3, 72600, Note_off_c, 28
3, 72600, Note_on_c, 28
3, 72640, Note_off_c, 28
3, 72640, Note_on_c, 28
3, 72680, Note_off_c, 28
3, 72680, Note_on_c, 28
3, 72720, Note_off_c, 28
3, 72720, Note_on_c, 28
3, 72780, Note_off_c, 28
3, 72840, Note_on_c, 28
3, 72880, Note_off_c, 28
3, 72880, Note_on_c, 28
3, 72920, Note_off_c, 28
3, 72920, Note_on_c, 28
3, 72960, Note_off_c, 28
3, 72960, Note_on_c, 28
3, 73020, Note_off_c, 28
3, 73080, Note_on_c, 28
3, 73120, Note_off_c, 28
3, 73120, Note_on_c, 28
3, 73160, Note_off_c, 28
3, 73160, Note_on_c, 28
3, 73200, Note_off_c, 28
3, 73200, Note_on_c, 28
3, 73240, Note_off_c, 28
3, 73240, Note_on_c, 28
3, 73280, Note_off_c, 28
3, 73280, Note_on_c, 28
3, 73320, Note_off_c, 28
3, 73320, Note_on_c, 28
3, 73380, Note_off_c, 28
3, 73440, Note_on_c, 28
3, 73480, Note_off_c, 28
3, 73480, Note_on_c, 28
3, 73520, Note_off_c, 28
3, 73520, Note_on_c, 28
3, 73560, Note_off_c, 28
3, 73560, Note_on_c, 28
3, 73600, Note_off_c, 28
3, 73600, Note_on_c, 28
3, 73640, Note_off_c, 28
3, 73640, Note_on_c, 28
3, 73680, Note_off_c, 28
3, 73680, Note_on_c, 28
3, 73740, Note_off_c, 28
3, 73800, Note_on_c, 28
3, 73840, Note_off_c, 28
3, 73840, Note_on_c, 28
3, 73880, Note_off_c, 28
3, 73880, Note_on_c, 28
3, 73920, Note_off_c, 28
3, 73920, Note_on_c, 28
3, 73960, Note_off_c, 28
3, 73960, Note_on_c, 28
3, 74000, Note_off_c, 28
3, 74000, Note_on_c, 28
3, 74040, Note_off_c, 28
3, 74040, Note_on_c, 28
3, 74080, Note_off_c, 28
3, 74080, Note_on_c, 28
3, 74120, Note_off_c, 28
3, 74120, Note_on_c, 28
3, 74160, Note_off_c, 28
3, 74160, Note_on_c, 28
3, 74200, Note_off_c, 28
3, 74200, Note_on_c, 28
3, 74240, Note_off_c, 28
3, 74240, Note_on_c, 28
3, 74280, Note_off_c, 28
3, 74280, Note_on_c, 40
3, 74280, Note_on_c, 35
3, 74400, Note_off_c, 40
3, 74400, Note_off_c, 35
3, 74400, Note_on_c, 28
3, 74440, Note_off_c, 28
3, 74440, Note_on_c, 28
3, 74480, Note_off_c, 28
3, 74480, Note_on_c, 28
3, 74520, Note_off_c, 28
3, 74520, Note_on_c, 28
3, 74560, Note_off_c, 28
3, 74560, Note_on_c, 28
3, 74600, Note_off_c, 28
3, 74600, Note_on_c, 28
3, 74640, Note_off_c, 28
3, 74640, Note_on_c, 40
3, 74640, Note_on_c, 35
3, 74760, Note_off_c, 40
3, 74760, Note_off_c, 35
3, 74760, Note_on_c, 28
3, 74800, Note_off_c, 28
3, 74800, Note_on_c, 28
3, 74840, Note_off_c, 28
3, 74840, Note_on_c, 28
3, 74880, Note_off_c, 28
3, 74880, Note_on_c, 41
3, 74880, Note_on_c, 36
3, 75000, Note_off_c, 41
3, 75000, Note_off_c, 36
3, 75000, Note_on_c, 28
3, 75040, Note_off_c, 28
3, 75040, Note_on_c, 28
3, 75080, Note_off_c, 28
3, 75080, Note_on_c, 28
3, 75120, Note_off_c, 28
3, 75120, Note_on_c, 28
3, 75160, Note_off_c, 28
3, 75160, Note_on_c, 28
3, 75200, Note_off_c, 28
3, 75200, Note_on_c, 28
3, 75240, Note_off_c, 28
3, 75240, Note_on_c, 40
3, 75240, Note_on_c, 35
3, 75360, Note_off_c, 40
3, 75360, Note_off_c, 35
3, 75360, Note_on_c, 28
3, 75400, Note_off_c, 28
3, 75400, Note_on_c, 28
3, 75440, Note_off_c, 28
3, 75440, Note_on_c, 28
3, 75480, Note_off_c, 28
3, 75480, Note_on_c, 28
3, 75520, Note_off_c, 28
3, 75520, Note_on_c, 28
3, 75560, Note_off_c, 28
3, 75560, Note_on_c, 28
3, 75600, Note_off_c, 28
3, 75600, Note_on_c, 40
3, 75600, Note_on_c, 35
3, 75720, Note_off_c, 40
3, 75720, Note_off_c, 35
3, 75720, Note_on_c, 28
3, 75760, Note_off_c, 28
3, 75760, Note_on_c, 28
3, 75800, Note_off_c, 28
3, 75800, Note_on_c, 28
3, 75840, Note_off_c, 28
3, 75840, Note_on_c, 41
3, 75840, Note_on_c, 36
3, 75960, Note_off_c, 41
3, 75960, Note_off_c, 36
3, 75960, Note_on_c, 28
3, 76000, Note_off_c, 28
3, 76000, Note_on_c, 28
3, 76040, Note_off_c, 28
3, 76040, Note_on_c, 28
3, 76080, Note_off_c, 28
3, 76080, Note_on_c, 28
3, 76120, Note_off_c, 28
3, 76120, Note_on_c, 28
3, 76160, Note_off_c, 28
3, 76160, Note_on_c, 28
3, 76200, Note_off_c, 28
3, 76200, Note_on_c, 40
3, 76200, Note_on_c, 35
3, 76320, Note_off_c, 40
3, 76320, Note_off_c, 35
3, 76320, Note_on_c, 28
3, 76360, Note_off_c, 28
3, 76360, Note_on_c, 28
3, 76400, Note_off_c, 28
3, 76400, Note_on_c, 28
3, 76440, Note_off_c, 28
3, 76440, Note_on_c, 28
3, 76480, Note_off_c, 28
3, 76480, Note_on_c, 28
3, 76520, Note_off_c, 28
3, 76520, Note_on_c, 28
3, 76560, Note_off_c, 28
3, 76560, Note_on_c, 40
3, 76560, Note_on_c, 35
3, 76680, Note_off_c, 40
3, 76680, Note_off_c, 35
3, 76680, Note_on_c, 28
3, 76720, Note_off_c, 28
3, 76720, Note_on_c, 28
3, 76760, Note_off_c, 28
3, 76760, Note_on_c, 28
3, 76800, Note_off_c, 28
3, 76800, Note_on_c, 41
3, 76800, Note_on_c, 36
3, 76920, Note_off_c, 41
3, 76920, Note_off_c, 36
3, 76920, Note_on_c, 28
3, 76960, Note_off_c, 28
3, 76960, Note_on_c, 28
3, 77000, Note_off_c, 28
3, 77000, Note_on_c, 28
3, 77040, Note_off_c, 28
3, 77040, Note_on_c, 28
3, 77080, Note_off_c, 28
3, 77080, Note_on_c, 28
3, 77120, Note_off_c, 28
3, 77120, Note_on_c, 28
3, 77160, Note_off_c, 28
3, 77160, Note_on_c, 40
3, 77160, Note_on_c, 35
3, 77280, Note_off_c, 40
3, 77280, Note_off_c, 35
3, 77280, Note_on_c, 28
3, 77320, Note_off_c, 28
3, 77320, Note_on_c, 28
3, 77360, Note_off_c, 28
3, 77360, Note_on_c, 28
3, 77400, Note_off_c, 28
3, 77400, Note_on_c, 28
3, 77440, Note_off_c, 28
3, 77440, Note_on_c, 28
3, 77480, Note_off_c, 28
3, 77480, Note_on_c, 28
3, 77520, Note_off_c, 28
3, 77520, Note_on_c, 40
3, 77520, Note_on_c, 35
3, 77640, Note_off_c, 40
3, 77640, Note_off_c, 35
3, 77640, Note_on_c, 28
3, 77680, Note_off_c, 28
3, 77680, Note_on_c, 28
3, 77720, Note_off_c, 28
3, 77720, Note_on_c, 28
3, 77760, Note_off_c, 28
3, 77760, Note_on_c, 41
3, 77760, Note_on_c, 36
3, 77880, Note_off_c, 41
3, 77880, Note_off_c, 36
3, 77880, Note_on_c, 28
3, 77920, Note_off_c, 28
3, 77920, Note_on_c, 28
3, 77960, Note_off_c, 28
3, 77960, Note_on_c, 28
3, 78000, Note_off_c, 28
3, 78000, Note_on_c, 28
3, 78040, Note_off_c, 28
3, 78040, Note_on_c, 28
3, 78080, Note_off_c, 28
3, 78080, Note_on_c, 28
3, 78120, Note_off_c, 28
3, 78120, Note_on_c, 40
3, 78120, Note_on_c, 35
3, 78240, Note_off_c, 40
3, 78240, Note_off_c, 35
3, 78240, Note_on_c, 28
3, 78280, Note_off_c, 28
3, 78280, Note_on_c, 28
3, 78320, Note_off_c, 28
3, 78320, Note_on_c, 28
3, 78360, Note_off_c, 28
3, 78360, Note_on_c, 28
3, 78400, Note_off_c, 28
3, 78400, Note_on_c, 28
3, 78440, Note_off_c, 28
3, 78440, Note_on_c, 28
3, 78480, Note_off_c, 28
3, 78480, Note_on_c, 40
3, 78480, Note_on_c, 35
3, 78600, Note_off_c, 40
3, 78600, Note_off_c, 35
3, 78600, Note_on_c, 28
3, 78640, Note_off_c, 28
3, 78640, Note_on_c, 28
3, 78680, Note_off_c, 28
3, 78680, Note_on_c, 28
3, 78720, Note_off_c, 28
3, 78720, Note_on_c, 41
3, 78720, Note_on_c, 36
3, 78840, Note_off_c, 41
3, 78840, Note_off_c, 36
3, 78840, Note_on_c, 28
3, 78880, Note_off_c, 28
3, 78880, Note_on_c, 28
3, 78920, Note_off_c, 28
3, 78920, Note_on_c, 28
3, 78960, Note_off_c, 28
3, 78960, Note_on_c, 28
3, 79000, Note_off_c, 28
3, 79000, Note_on_c, 28
3, 79040, Note_off_c, 28
3, 79040, Note_on_c, 28
3, 79080, Note_off_c, 28
3, 79080, Note_on_c, 40
3, 79080, Note_on_c, 35
3, 79080, Note_on_c, 28
3, 79200, Note_off_c, 40
3, 79200, Note_off_c, 35
3, 79200, Note_off_c, 28
3, 79200, Note_on_c, 40
3, 79200, Note_on_c, 35
3, 79200, Note_on_c, 28
3, 79320, Note_off_c, 40
3, 79320, Note_off_c, 35
3, 79320, Note_off_c, 28
3, 79320, Note_on_c, 28
3, 79360, Note_off_c, 28
3, 79360, Note_on_c, 28
3, 79400, Note_off_c, 28
3, 79400, Note_on_c, 28
3, 79440, Note_off_c, 28
3, 79440, Note_on_c, 28
3, 79480, Note_off_c, 28
3, 79480, Note_on_c, 28
3, 79520, Note_off_c, 28
3, 79520, Note_on_c, 28
3, 79560, Note_off_c, 28
3, 79560, Note_on_c, 40
3, 79560, Note_on_c, 35
3, 79560, Note_on_c, 28
3, 79680, Note_off_c, 40
3, 79680, Note_off_c, 35
3, 79680, Note_off_c, 28
3, 79680, Note_on_c, 28
3, 79680, Note_on_c, 35
3, 79680, Note_on_c, 40
3, 79800, Note_off_c, 28
3, 79800, Note_off_c, 35
3, 79800, Note_off_c, 40
3, 79800, Note_on_c, 28
3, 79840, Note_off_c, 28
3, 79840, Note_on_c, 28
3, 79880, Note_off_c, 28
3, 79880, Note_on_c, 28
3, 79920, Note_off_c, 28
3, 79920, Note_on_c, 28
3, 79960, Note_off_c, 28
3, 79960, Note_on_c, 28
3, 80000, Note_off_c, 28
3, 80000, Note_on_c, 28
3, 80040, Note_off_c, 28
3, 80040, Note_on_c, 40
3, 80040, Note_on_c, 35
3, 80160, Note_off_c, 40
3, 80160, Note_off_c, 35
3, 80160, Note_on_c, 36
3, 80160, Note_on_c, 41
3, 80280, Note_off_c, 36
3, 80280, Note_off_c, 41
3, 80280, Note_on_c, 31
3, 80320, Note_off_c, 31
3, 80320, Note_on_c, 31
3, 80360, Note_off_c, 31
3, 80360, Note_on_c, 31
3, 80400, Note_off_c, 31
3, 80400, Note_on_c, 31
3, 80440, Note_off_c, 31
3, 80440, Note_on_c, 31
3, 80480, Note_off_c, 31
3, 80480, Note_on_c, 31
3, 80520, Note_off_c, 31
3, 80520, Note_on_c, 43
3, 80520, Note_on_c, 38
3, 80520, Note_on_c, 31
3, 80640, Note_off_c, 43
3, 80640, Note_off_c, 38
3, 80640, Note_off_c, 31
3, 80640, Note_on_c, 43
3, 80640, Note_on_c, 38
3, 80640, Note_on_c, 31
3, 80760, Note_off_c, 43
3, 80760, Note_off_c, 38
3, 80760, Note_off_c, 31
3, 80760, Note_on_c, 28
3, 80800, Note_off_c, 28
3, 80800, Note_on_c, 28
3, 80840, Note_off_c, 28
3, 80840, Note_on_c, 28
3, 80880, Note_off_c, 28
3, 80880, Note_on_c, 28
3, 80920, Note_off_c, 28
3, 80920, Note_on_c, 28
3, 80960, Note_off_c, 28
3, 80960, Note_on_c, 28
3, 81000, Note_off_c, 28
3, 81000, Note_on_c, 40
3, 81000, Note_on_c, 35
3, 81000, Note_on_c, 28
3, 81120, Note_off_c, 40
3, 81120, Note_off_c, 35
3, 81120, Note_off_c, 28
3, 81120, Note_on_c, 40
3, 81120, Note_on_c, 35
3, 81120, Note_on_c, 28
3, 81240, Note_off_c, 40
3, 81240, Note_off_c, 35
3, 81240, Note_off_c, 28
3, 81240, Note_on_c, 28
3, 81280, Note_off_c, 28
3, 81280, Note_on_c, 28
3, 81320, Note_off_c, 28
3, 81320, Note_on_c, 28
3, 81360, Note_off_c, 28
3, 81360, Note_on_c, 28
3, 81400, Note_off_c, 28
3, 81400, Note_on_c, 28
3, 81440, Note_off_c, 28
3, 81440, Note_on_c, 28
3, 81480, Note_off_c, 28
3, 81480, Note_on_c, 40
3, 81480, Note_on_c, 35
3, 81480, Note_on_c, 28
3, 81600, Note_off_c, 40
3, 81600, Note_off_c, 35
3, 81600, Note_off_c, 28
3, 81600, Note_on_c, 28
3, 81600, Note_on_c, 35
3, 81600, Note_on_c, 40
3, 81720, Note_off_c, 28
3, 81720, Note_off_c, 35
3, 81720, Note_off_c, 40
3, 81720, Note_on_c, 28
3, 81760, Note_off_c, 28
3, 81760, Note_on_c, 28
3, 81800, Note_off_c, 28
3, 81800, Note_on_c, 28
3, 81840, Note_off_c, 28
3, 81840, Note_on_c, 28
3, 81880, Note_off_c, 28
3, 81880, Note_on_c, 28
3, 81920, Note_off_c, 28
3, 81920, Note_on_c, 28
3, 81960, Note_off_c, 28
3, 81960, Note_on_c, 40
3, 81960, Note_on_c, 35
3, 82080, Note_off_c, 40
3, 82080, Note_off_c, 35
3, 82080, Note_on_c, 36
3, 82080, Note_on_c, 41
3, 82200, Note_off_c, 36
3, 82200, Note_off_c, 41
3, 82200, Note_on_c, 31
3, 82240, Note_off_c, 31
3, 82240, Note_on_c, 31
3, 82280, Note_off_c, 31
3, 82280, Note_on_c, 31
3, 82320, Note_off_c, 31
3, 82320, Note_on_c, 31
3, 82360, Note_off_c, 31
3, 82360, Note_on_c, 31
3, 82400, Note_off_c, 31
3, 82400, Note_on_c, 31
3, 82440, Note_off_c, 31
3, 82440, Note_on_c, 43
3, 82440, Note_on_c, 38
3, 82440, Note_on_c, 31
3, 82560, Note_off_c, 43
3, 82560, Note_off_c, 38
3, 82560, Note_off_c, 31
3, 82560, Note_on_c, 43
3, 82560, Note_on_c, 38
3, 82560, Note_on_c, 31
3, 82680, Note_off_c, 43
3, 82680, Note_off_c, 38
3, 82680, Note_off_c, 31
3, 82680, Note_on_c, 31
3, 82720, Note_off_c, 31
3, 82720, Note_on_c, 31
3, 82760, Note_off_c, 31
3, 82760, Note_on_c, 31
3, 82800, Note_off_c, 31
3, 82800, Note_on_c, 31
3, 82840, Note_off_c, 31
3, 82840, Note_on_c, 31
3, 82880, Note_off_c, 31
3, 82880, Note_on_c, 31
3, 82920, Note_off_c, 31
3, 82920, Note_on_c, 43
3, 82920, Note_on_c, 38
3, 82920, Note_on_c, 31
3, 83040, Note_off_c, 43
3, 83040, Note_off_c, 38
3, 83040, Note_off_c, 31
3, 83040, Note_on_c, 43
3, 83040, Note_on_c, 38
3, 83040, Note_on_c, 31
3, 83160, Note_off_c, 43
3, 83160, Note_off_c, 38
3, 83160, Note_off_c, 31
3, 83160, Note_on_c, 31
3, 83200, Note_off_c, 31
3, 83200, Note_on_c, 31
3, 83240, Note_off_c, 31
3, 83240, Note_on_c, 31
3, 83280, Note_off_c, 31
3, 83280, Note_on_c, 31
3, 83320, Note_off_c, 31
3, 83320, Note_on_c, 31
3, 83360, Note_off_c, 31
3, 83360, Note_on_c, 31
3, 83400, Note_off_c, 31
3, 83400, Note_on_c, 43
3, 83400, Note_on_c, 38
3, 83400, Note_on_c, 31
3, 83520, Note_off_c, 43
3, 83520, Note_off_c, 38
3, 83520, Note_off_c, 31
3, 83520, Note_on_c, 43
3, 83520, Note_on_c, 38
3, 83520, Note_on_c, 31
3, 83640, Note_off_c, 43
3, 83640, Note_off_c, 38
3, 83640, Note_off_c, 31
3, 83640, Note_on_c, 31
3, 83680, Note_off_c, 31
3, 83680, Note_on_c, 31
3, 83720, Note_off_c, 31
3, 83720, Note_on_c, 31
3, 83760, Note_off_c, 31
3, 83760, Note_on_c, 31
3, 83800, Note_off_c, 31
3, 83800, Note_on_c, 31
3, 83840, Note_off_c, 31
3, 83840, Note_on_c, 31
3, 83880, Note_off_c, 31
3, 83880, Note_on_c, 43
3, 83880, Note_on_c, 38
3, 84000, Note_off_c, 43
3, 84000, Note_off_c, 38
3, 84000, Note_on_c, 44
3, 84000, Note_on_c, 39
3, 84120, Note_off_c, 44
3, 84120, Note_off_c, 39
3, 84120, Note_on_c, 29
3, 84160, Note_off_c, 29
3, 84160, Note_on_c, 29
3, 84200, Note_off_c, 29
3, 84200, Note_on_c, 29
3, 84240, Note_off_c, 29
3, 84240, Note_on_c, 29
3, 84280, Note_off_c, 29
3, 84280, Note_on_c, 29
3, 84320, Note_off_c, 29
3, 84320, Note_on_c, 29
3, 84360, Note_off_c, 29
3, 84360, Note_on_c, 41
3, 84360, Note_on_c, 36
3, 84360, Note_on_c, 29
3, 84480, Note_off_c, 41
3, 84480, Note_off_c, 36
3, 84480, Note_off_c, 29
3, 84480, Note_on_c, 41
3, 84480, Note_on_c, 36
3, 84480, Note_on_c, 29
3, 84600, Note_off_c, 41
3, 84600, Note_off_c, 36
3, 84600, Note_off_c, 29
3, 84600, Note_on_c, 31
3, 84640, Note_off_c, 31
3, 84640, Note_on_c, 31
3, 84680, Note_off_c, 31
3, 84680, Note_on_c, 31
3, 84720, Note_off_c, 31
3, 84720, Note_on_c, 31
3, 84760, Note_off_c, 31
3, 84760, Note_on_c, 31
3, 84800, Note_off_c, 31
3, 84800, Note_on_c, 31
3, 84840, Note_off_c, 31
3, 84840, Note_on_c, 43
3, 84840, Note_on_c, 38
3, 84840, Note_on_c, 31
3, 84960, Note_off_c, 43
3, 84960, Note_off_c, 38
3, 84960, Note_off_c, 31
3, 84960, Note_on_c, 43
3, 84960, Note_on_c, 38
3, 84960, Note_on_c, 31
3, 85080, Note_off_c, 43
3, 85080, Note_off_c, 38
3, 85080, Note_off_c, 31
3, 85080, Note_on_c, 31
3, 85120, Note_off_c, 31
3, 85120, Note_on_c, 31
3, 85160, Note_off_c, 31
3, 85160, Note_on_c, 31
3, 85200, Note_off_c, 31
3, 85200, Note_on_c, 31
3, 85240, Note_off_c, 31
3, 85240, Note_on_c, 31
3, 85280, Note_off_c, 31
3, 85280, Note_on_c, 31
3, 85320, Note_off_c, 31
3, 85320, Note_on_c, 43
3, 85320, Note_on_c, 38
3, 85320, Note_on_c, 31
3, 85440, Note_off_c, 43
3, 85440, Note_off_c, 38
3, 85440, Note_off_c, 31
3, 85440, Note_on_c, 43
3, 85440, Note_on_c, 38
3, 85440, Note_on_c, 31
3, 85560, Note_off_c, 43
3, 85560, Note_off_c, 38
3, 85560, Note_off_c, 31
3, 85560, Note_on_c, 31
3, 85600, Note_off_c, 31
3, 85600, Note_on_c, 31
3, 85640, Note_off_c, 31
3, 85640, Note_on_c, 31
3, 85680, Note_off_c, 31
3, 85680, Note_on_c, 31
3, 85720, Note_off_c, 31
3, 85720, Note_on_c, 31
3, 85760, Note_off_c, 31
3, 85760, Note_on_c, 31
3, 85800, Note_off_c, 31
3, 85800, Note_on_c, 43
3, 85800, Note_on_c, 38
3, 85920, Note_off_c, 43
3, 85920, Note_off_c, 38
3, 85920, Note_on_c, 44
3, 85920, Note_on_c, 39
3, 86040, Note_off_c, 44
3, 86040, Note_off_c, 39
3, 86040, Note_on_c, 29
3, 86080, Note_off_c, 29
3, 86080, Note_on_c, 29
3, 86120, Note_off_c, 29
3, 86120, Note_on_c, 29
3, 86160, Note_off_c, 29
3, 86160, Note_on_c, 29
3, 86200, Note_off_c, 29
3, 86200, Note_on_c, 29
3, 86240, Note_off_c, 29
3, 86240, Note_on_c, 29
3, 86280, Note_off_c, 29
3, 86280, Note_on_c, 41
3, 86280, Note_on_c, 36
3, 86280, Note_on_c, 29
3, 86400, Note_off_c, 41
3, 86400, Note_off_c, 36
3, 86400, Note_off_c, 29
3, 86400, Note_on_c, 41
3, 86400, Note_on_c, 36
3, 86400, Note_on_c, 29
3, 86520, Note_off_c, 41
3, 86520, Note_off_c, 36
3, 86520, Note_off_c, 29
3, 86520, Note_on_c, 31
3, 86580, Note_off_c, 31
3, 86580, Note_on_c, 31
3, 86640, Note_off_c, 31
3, 86640, Note_on_c, 43
3, 86640, Note_on_c, 38
3, 86640, Note_on_c, 31
3, 86760, Note_off_c, 43
3, 86760, Note_off_c, 38
3, 86760, Note_off_c, 31
3, 86760, Note_on_c, 31
3, 86820, Note_off_c, 31
3, 86820, Note_on_c, 31
3, 86880, Note_off_c, 31
3, 86880, Note_on_c, 43
3, 86880, Note_on_c, 38
3, 86880, Note_on_c, 31
3, 87000, Note_off_c, 43
3, 87000, Note_off_c, 38
3, 87000, Note_off_c, 31
3, 87000, Note_on_c, 31
3, 87060, Note_off_c, 31
3, 87060, Note_on_c, 31
3, 87120, Note_off_c, 31
3, 87120, Note_on_c, 43
3, 87120, Note_on_c, 38
3, 87120, Note_on_c, 31
3, 87240, Note_off_c, 43
3, 87240, Note_off_c, 38
3, 87240, Note_off_c, 31
3, 87240, Note_on_c, 31
3, 87300, Note_off_c, 31
3, 87300, Note_on_c, 31
3, 87360, Note_off_c, 31
3, 87360, Note_on_c, 43
3, 87360, Note_on_c, 38
3, 87360, Note_on_c, 31
3, 87480, Note_off_c, 43
3, 87480, Note_off_c, 38
3, 87480, Note_off_c, 31
3, 87480, Note_on_c, 29
3, 87520, Note_off_c, 29
3, 87520, Note_on_c, 29
3, 87560, Note_off_c, 29
3, 87560, Note_on_c, 29
3, 87600, Note_off_c, 29
3, 87600, Note_on_c, 29
3, 87640, Note_off_c, 29
3, 87640, Note_on_c, 29
3, 87680, Note_off_c, 29
3, 87680, Note_on_c, 29
3, 87720, Note_off_c, 29
3, 87720, Note_on_c, 36
3, 87720, Note_on_c, 29
3, 87840, Note_off_c, 36
3, 87840, Note_off_c, 29
3, 87840, Note_on_c, 36
3, 87840, Note_on_c, 29
3, 87960, Note_off_c, 36
3, 87960, Note_off_c, 29
3, 87960, Note_on_c, 29
3, 88000, Note_off_c, 29
3, 88000, Note_on_c, 29
3, 88040, Note_off_c, 29
3, 88040, Note_on_c, 29
3, 88080, Note_off_c, 29
3, 88080, Note_on_c, 29
3, 88120, Note_off_c, 29
3, 88120, Note_on_c, 29
3, 88160, Note_off_c, 29
3, 88160, Note_on_c, 29
3, 88200, Note_off_c, 29
3, 88200, Note_on_c, 36
3, 88200, Note_on_c, 29
3, 88320, Note_off_c, 36
3, 88320, Note_off_c, 29
3, 88320, Note_on_c, 36
3, 88320, Note_on_c, 29
3, 88440, Note_off_c, 36
3, 88440, Note_off_c, 29
3, 88440, Note_on_c, 31
3, 88500, Note_off_c, 31
3, 88500, Note_on_c, 31
3, 88560, Note_off_c, 31
3, 88560, Note_on_c, 43
3, 88560, Note_on_c, 38
3, 88560, Note_on_c, 31
3, 88680, Note_off_c, 43
3, 88680, Note_off_c, 38
3, 88680, Note_off_c, 31
3, 88680, Note_on_c, 31
3, 88740, Note_off_c, 31
3, 88740, Note_on_c, 31
3, 88800, Note_off_c, 31
3, 88800, Note_on_c, 43
3, 88800, Note_on_c, 38
3, 88800, Note_on_c, 31
3, 88920, Note_off_c, 43
3, 88920, Note_off_c, 38
3, 88920, Note_off_c, 31
3, 88920, Note_on_c, 31
3, 88980, Note_off_c, 31
3, 88980, Note_on_c, 31
3, 89040, Note_off_c, 31
3, 89040, Note_on_c, 43
3, 89040, Note_on_c, 38
3, 89040, Note_on_c, 31
3, 89160, Note_off_c, 43
3, 89160, Note_off_c, 38
3, 89160, Note_off_c, 31
3, 89160, Note_on_c, 31
3, 89220, Note_off_c, 31
3, 89220, Note_on_c, 31
3, 89280, Note_off_c, 31
3, 89280, Note_on_c, 43
3, 89280, Note_on_c, 38
3, 89280, Note_on_c, 31
3, 89400, Note_off_c, 43
3, 89400, Note_off_c, 38
3, 89400, Note_off_c, 31
3, 89400, Note_on_c, 29
3, 89440, Note_off_c, 29
3, 89440, Note_on_c, 29
3, 89480, Note_off_c, 29
3, 89480, Note_on_c, 29
3, 89520, Note_off_c, 29
3, 89520, Note_on_c, 29
3, 89560, Note_off_c, 29
3, 89560, Note_on_c, 29
3, 89600, Note_off_c, 29
3, 89600, Note_on_c, 29
3, 89640, Note_off_c, 29
3, 89640, Note_on_c, 36
3, 89640, Note_on_c, 29
3, 89760, Note_off_c, 36
3, 89760, Note_off_c, 29
3, 89760, Note_on_c, 36
3, 89760, Note_on_c, 29
3, 89880, Note_off_c, 36
3, 89880, Note_off_c, 29
3, 89880, Note_on_c, 29
3, 89920, Note_off_c, 29
3, 89920, Note_on_c, 29
3, 89960, Note_off_c, 29
3, 89960, Note_on_c, 29
3, 90000, Note_off_c, 29
3, 90000, Note_on_c, 29
3, 90040, Note_off_c, 29
3, 90040, Note_on_c, 29
3, 90080, Note_off_c, 29
3, 90080, Note_on_c, 29
3, 90120, Note_off_c, 29
3, 90120, Note_on_c, 36
3, 90120, Note_on_c, 29
3, 90240, Note_off_c, 36
3, 90240, Note_off_c, 29
3, 90240, Note_on_c, 36
3, 90240, Note_on_c, 29
3, 90360, Note_off_c, 36
3, 90360, Note_off_c, 29
3, 96120, Note_on_c, 55
3, 96120, Note_on_c, 52
3, 96160, Note_off_c, 55
3, 96160, Note_off_c, 52
3, 96160, Note_on_c, 55
3, 96160, Note_on_c, 52
3, 96200, Note_off_c, 55
3, 96200, Note_off_c, 52
3, 96200, Note_on_c, 55
3, 96200, Note_on_c, 52
3, 96240, Note_off_c, 55
3, 96240, Note_off_c, 52
3, 96240, Note_on_c, 50
3, 96240, Note_on_c, 54
3, 96360, Note_off_c, 50
3, 96360, Note_off_c, 54
3, 96360, Note_on_c, 47
3, 96360, Note_on_c, 50
3, 96480, Note_off_c, 47
3, 96480, Note_off_c, 50
3, 96480, Note_on_c, 57
3, 96480, Note_on_c, 54
3, 96520, Note_off_c, 57
3, 96520, Note_off_c, 54
3, 96520, Note_on_c, 54
3, 96520, Note_on_c, 57
3, 96560, Note_off_c, 54
3, 96560, Note_off_c, 57
3, 96560, Note_on_c, 54
3, 96560, Note_on_c, 57
3, 96600, Note_off_c, 54
3, 96600, Note_off_c, 57
3, 96600, Note_on_c, 52
3, 96600, Note_on_c, 55
3, 96720, Note_off_c, 52
3, 96720, Note_off_c, 55
3, 96720, Note_on_c, 47
3, 96720, Note_on_c, 52
3, 96840, Note_off_c, 47
3, 96840, Note_off_c, 52
3, 96840, Note_on_c, 59
3, 96840, Note_on_c, 55
3, 96880, Note_off_c, 59
3, 96880, Note_off_c, 55
3, 96880, Note_on_c, 59
3, 96880, Note_on_c, 55
3, 96920, Note_off_c, 59
3, 96920, Note_off_c, 55
3, 96920, Note_on_c, 59
3, 96920, Note_on_c, 55
3, 96960, Note_off_c, 59
3, 96960, Note_off_c, 55
3, 96960, Note_on_c, 57
3, 96960, Note_on_c, 54
3, 97080, Note_off_c, 57
3, 97080, Note_off_c, 54
3, 97080, Note_on_c, 59
3, 97080, Note_on_c, 55
3, 97120, Note_off_c, 59
3, 97120, Note_off_c, 55
3, 97120, Note_on_c, 54
3, 97120, Note_on_c, 57
3, 97160, Note_off_c, 54
3, 97160, Note_off_c, 57
3, 97160, Note_on_c, 55
3, 97160, Note_on_c, 52
3, 97200, Note_off_c, 55
3, 97200, Note_off_c, 52
3, 97200, Note_on_c, 57
3, 97200, Note_on_c, 54
3, 97320, Note_off_c, 57
3, 97320, Note_off_c, 54
3, 97320, Note_on_c, 57
3, 97320, Note_on_c, 54
3, 97360, Note_off_c, 57
3, 97360, Note_off_c, 54
3, 97360, Note_on_c, 52
3, 97360, Note_on_c, 55
3, 97400, Note_off_c, 52
3, 97400, Note_off_c, 55
3, 97400, Note_on_c, 54
3, 97400, Note_on_c, 50
3, 97440, Note_off_c, 54
3, 97440, Note_off_c, 50
3, 97440, Note_on_c, 52
3, 97440, Note_on_c, 55
3, 97560, Note_off_c, 52
3, 97560, Note_off_c, 55
3, 97560, Note_on_c, 52
3, 97560, Note_on_c, 55
3, 97600, Note_off_c, 52
3, 97600, Note_off_c, 55
3, 97600, Note_on_c, 54
3, 97600, Note_on_c, 50
3, 97640, Note_off_c, 54
3, 97640, Note_off_c, 50
3, 97640, Note_on_c, 49
3, 97640, Note_on_c, 52
3, 97680, Note_off_c, 49
3, 97680, Note_off_c, 52
3, 97680, Note_on_c, 50
3, 97680, Note_on_c, 54
3, 97800, Note_off_c, 50
3, 97800, Note_off_c, 54
3, 97800, Note_on_c, 54
3, 97800, Note_on_c, 50
3, 97840, Note_off_c, 54
3, 97840, Note_off_c, 50
3, 97840, Note_on_c, 49
3, 97840, Note_on_c, 52
3, 97880, Note_off_c, 49
3, 97880, Note_off_c, 52
3, 97880, Note_on_c, 50
3, 97880, Note_on_c, 47
3, 97920, Note_off_c, 50
3, 97920, Note_off_c, 47
3, 97920, Note_on_c, 48
3, 97920, Note_on_c, 52
3, 98040, Note_off_c, 48
3, 98040, Note_off_c, 52
3, 98040, Note_on_c, 55
3, 98040, Note_on_c, 52
3, 98080, Note_off_c, 55
3, 98080, Note_off_c, 52
3, 98080, Note_on_c, 55
3, 98080, Note_on_c, 52
3, 98120, Note_off_c, 55
3, 98120, Note_off_c, 52
3, 98120, Note_on_c, 55
3, 98120, Note_on_c, 52
3, 98160, Note_off_c, 55
3, 98160, Note_off_c, 52
3, 98160, Note_on_c, 50
3, 98160, Note_on_c, 54
3, 98280, Note_off_c, 50
3, 98280, Note_off_c, 54
3, 98280, Note_on_c, 47
3, 98280, Note_on_c, 50
3, 98400, Note_off_c, 47
3, 98400, Note_off_c, 50
3, 98400, Note_on_c, 57
3, 98400, Note_on_c, 54
3, 98440, Note_off_c, 57
3, 98440, Note_off_c, 54
3, 98440, Note_on_c, 54
3, 98440, Note_on_c, 57
3, 98480, Note_off_c, 54
3, 98480, Note_off_c, 57
3, 98480, Note_on_c, 54
3, 98480, Note_on_c, 57
3, 98520, Note_off_c, 54
3, 98520, Note_off_c, 57
3, 98520, Note_on_c, 52
3, 98520, Note_on_c, 55
3, 98640, Note_off_c, 52
3, 98640, Note_off_c, 55
3, 98640, Note_on_c, 47
3, 98640, Note_on_c, 52
3, 98760, Note_off_c, 47
3, 98760, Note_off_c, 52
3, 98760, Note_on_c, 59
3, 98760, Note_on_c, 55
3, 98800, Note_off_c, 59
3, 98800, Note_off_c, 55
3, 98800, Note_on_c, 59
3, 98800, Note_on_c, 55
3, 98840, Note_off_c, 59
3, 98840, Note_off_c, 55
3, 98840, Note_on_c, 59
3, 98840, Note_on_c, 55
3, 98880, Note_off_c, 59
3, 98880, Note_off_c, 55
3, 98880, Note_on_c, 57
3, 98880, Note_on_c, 54
3, 99000, Note_off_c, 57
3, 99000, Note_off_c, 54
3, 99000, Note_on_c, 59
3, 99000, Note_on_c, 55
3, 99040, Note_off_c, 59
3, 99040, Note_off_c, 55
3, 99040, Note_on_c, 54
3, 99040, Note_on_c, 57
3, 99080, Note_off_c, 54
3, 99080, Note_off_c, 57
3, 99080, Note_on_c, 55
3, 99080, Note_on_c, 52
3, 99120, Note_off_c, 55
3, 99120, Note_off_c, 52
3, 99120, Note_on_c, 57
3, 99120, Note_on_c, 54
3, 99240, Note_off_c, 57
3, 99240, Note_off_c, 54
3, 99240, Note_on_c, 57
3, 99240, Note_on_c, 54
3, 99280, Note_off_c, 57
3, 99280, Note_off_c, 54
3, 99280, Note_on_c, 52
3, 99280, Note_on_c, 55
3, 99320, Note_off_c, 52
3, 99320, Note_off_c, 55
3, 99320, Note_on_c, 54
3, 99320, Note_on_c, 50
3, 99360, Note_off_c, 54
3, 99360, Note_off_c, 50
3, 99360, Note_on_c, 52
3, 99360, Note_on_c, 55
3, 99480, Note_off_c, 52
3, 99480, Note_off_c, 55
3, 99480, Note_on_c, 60
3, 99480, Note_on_c, 57
3, 99520, Note_off_c, 60
3, 99520, Note_off_c, 57
3, 99520, Note_on_c, 55
3, 99520, Note_on_c, 59
3, 99560, Note_off_c, 55
3, 99560, Note_off_c, 59
3, 99560, Note_on_c, 57
3, 99560, Note_on_c, 54
3, 99600, Note_off_c, 57
3, 99600, Note_off_c, 54
3, 99600, Note_on_c, 55
3, 99600, Note_on_c, 59
3, 99720, Note_off_c, 55
3, 99720, Note_off_c, 59
3, 99720, Note_on_c, 59
3, 99720, Note_on_c, 55
3, 99760, Note_off_c, 59
3, 99760, Note_off_c, 55
3, 99760, Note_on_c, 54
3, 99760, Note_on_c, 57
3, 99800, Note_off_c, 54
3, 99800, Note_off_c, 57
3, 99800, Note_on_c, 55
3, 99800, Note_on_c, 52
3, 99840, Note_off_c, 55
3, 99840, Note_off_c, 52
3, 99840, Note_on_c, 54
3, 99840, Note_on_c, 57
3, 99960, Note_off_c, 54
3, 99960, Note_off_c, 57
3, 99960, Note_on_c, 55
3, 99960, Note_on_c, 52
3, 100000, Note_off_c, 55
3, 100000, Note_off_c, 52
3, 100000, Note_on_c, 55
3, 100000, Note_on_c, 52
3, 100040, Note_off_c, 55
3, 100040, Note_off_c, 52
3, 100040, Note_on_c, 55
3, 100040, Note_on_c, 52
3, 100080, Note_off_c, 55
3, 100080, Note_off_c, 52
3, 100080, Note_on_c, 50
3, 100080, Note_on_c, 54
3, 100200, Note_off_c, 50
3, 100200, Note_off_c, 54
3, 100200, Note_on_c, 47
3, 100200, Note_on_c, 50
3, 100320, Note_off_c, 47
3, 100320, Note_off_c, 50
3, 100320, Note_on_c, 57
3, 100320, Note_on_c, 54
3, 100360, Note_off_c, 57
3, 100360, Note_off_c, 54
3, 100360, Note_on_c, 54
3, 100360, Note_on_c, 57
3, 100400, Note_off_c, 54
3, 100400, Note_off_c, 57
3, 100400, Note_on_c, 54
3, 100400, Note_on_c, 57
3, 100440, Note_off_c, 54
3, 100440, Note_off_c, 57
3, 100440, Note_on_c, 52
3, 100440, Note_on_c, 55
3, 100560, Note_off_c, 52
3, 100560, Note_off_c, 55
3, 100560, Note_on_c, 47
3, 100560, Note_on_c, 52
3, 100680, Note_off_c, 47
3, 100680, Note_off_c, 52
3, 100680, Note_on_c, 59
3, 100680, Note_on_c, 55
3, 100720, Note_off_c, 59
3, 100720, Note_off_c, 55
3, 100720, Note_on_c, 59
3, 100720, Note_on_c, 55
3, 100760, Note_off_c, 59
3, 100760, Note_off_c, 55
3, 100760, Note_on_c, 59
3, 100760, Note_on_c, 55
3, 100800, Note_off_c, 59
3, 100800, Note_off_c, 55
3, 100800, Note_on_c, 57
3, 100800, Note_on_c, 54
3, 100920, Note_off_c, 57
3, 100920, Note_off_c, 54
3, 100920, Note_on_c, 59
3, 100920, Note_on_c, 55
3, 100960, Note_off_c, 59
3, 100960, Note_off_c, 55
3, 100960, Note_on_c, 54
3, 100960, Note_on_c, 57
3, 101000, Note_off_c, 54
3, 101000, Note_off_c, 57
3, 101000, Note_on_c, 55
3, 101000, Note_on_c, 52
3, 101040, Note_off_c, 55
3, 101040, Note_off_c, 52
3, 101040, Note_on_c, 57
3, 101040, Note_on_c, 54
3, 101160, Note_off_c, 57
3, 101160, Note_off_c, 54
3, 101160, Note_on_c, 57
3, 101160, Note_on_c, 54
3, 101200, Note_off_c, 57
3, 101200, Note_off_c, 54
3, 101200, Note_on_c, 52
3, 101200, Note_on_c, 55
3, 101240, Note_off_c, 52
3, 101240, Note_off_c, 55
3, 101240, Note_on_c, 54
3, 101240, Note_on_c, 50
3, 101280, Note_off_c, 54
3, 101280, Note_off_c, 50
3, 101280, Note_on_c, 52
3, 101280, Note_on_c, 55
3, 101400, Note_off_c, 52
3, 101400, Note_off_c, 55
3, 101400, Note_on_c, 52
3, 101400, Note_on_c, 55
3, 101440, Note_off_c, 52
3, 101440, Note_off_c, 55
3, 101440, Note_on_c, 54
3, 101440, Note_on_c, 50
3, 101480, Note_off_c, 54
3, 101480, Note_off_c, 50
3, 101480, Note_on_c, 49
3, 101480, Note_on_c, 52
3, 101520, Note_off_c, 49
3, 101520, Note_off_c, 52
3, 101520, Note_on_c, 50
3, 101520, Note_on_c, 54
3, 101640, Note_off_c, 50
3, 101640, Note_off_c, 54
3, 101640, Note_on_c, 54
3, 101640, Note_on_c, 50
3, 101680, Note_off_c, 54
3, 101680, Note_off_c, 50
3, 101680, Note_on_c, 49
3, 101680, Note_on_c, 52
3, 101720, Note_off_c, 49
3, 101720, Note_off_c, 52
3, 101720, Note_on_c, 50
3, 101720, Note_on_c, 47
3, 101760, Note_off_c, 50
3, 101760, Note_off_c, 47
3, 101760, Note_on_c, 48
3, 101760, Note_on_c, 52
3, 101880, Note_off_c, 48
3, 101880, Note_off_c, 52
3, 101880, Note_on_c, 55
3, 101880, Note_on_c, 52
3, 101920, Note_off_c, 55
3, 101920, Note_off_c, 52
3, 101920, Note_on_c, 55
3, 101920, Note_on_c, 52
3, 101960, Note_off_c, 55
3, 101960, Note_off_c, 52
3, 101960, Note_on_c, 55
3, 101960, Note_on_c, 52
3, 102000, Note_off_c, 55
3, 102000, Note_off_c, 52
3, 102000, Note_on_c, 50
3, 102000, Note_on_c, 54
3, 102120, Note_off_c, 50
3, 102120, Note_off_c, 54
3, 102120, Note_on_c, 47
3, 102120, Note_on_c, 50
3, 102240, Note_off_c, 47
3, 102240, Note_off_c, 50
3, 102240, Note_on_c, 57
3, 102240, Note_on_c, 54
3, 102280, Note_off_c, 57
3, 102280, Note_off_c, 54
3, 102280, Note_on_c, 54
3, 102280, Note_on_c, 57
3, 102320, Note_off_c, 54
3, 102320, Note_off_c, 57
3, 102320, Note_on_c, 54
3, 102320, Note_on_c, 57
3, 102360, Note_off_c, 54
3, 102360, Note_off_c, 57
3, 102360, Note_on_c, 52
3, 102360, Note_on_c, 55
3, 102480, Note_off_c, 52
3, 102480, Note_off_c, 55
3, 102480, Note_on_c, 47
3, 102480, Note_on_c, 52
3, 102600, Note_off_c, 47
3, 102600, Note_off_c, 52
3, 102600, Note_on_c, 59
3, 102600, Note_on_c, 55
3, 102640, Note_off_c, 59
3, 102640, Note_off_c, 55
3, 102640, Note_on_c, 59
3, 102640, Note_on_c, 55
3, 102680, Note_off_c, 59
3, 102680, Note_off_c, 55
3, 102680, Note_on_c, 59
3, 102680, Note_on_c, 55
3, 102720, Note_off_c, 59
3, 102720, Note_off_c, 55
3, 102720, Note_on_c, 57
3, 102720, Note_on_c, 54
3, 102840, Note_off_c, 57
3, 102840, Note_off_c, 54
3, 102840, Note_on_c, 59
3, 102840, Note_on_c, 55
3, 102880, Note_off_c, 59
3, 102880, Note_off_c, 55
3, 102880, Note_on_c, 54
3, 102880, Note_on_c, 57
3, 102920, Note_off_c, 54
3, 102920, Note_off_c, 57
3, 102920, Note_on_c, 55
3, 102920, Note_on_c, 52
3, 102960, Note_off_c, 55
3, 102960, Note_off_c, 52
3, 102960, Note_on_c, 57
3, 102960, Note_on_c, 54
3, 103080, Note_off_c, 57
3, 103080, Note_off_c, 54
3, 103080, Note_on_c, 57
3, 103080, Note_on_c, 54
3, 103120, Note_off_c, 57
3, 103120, Note_off_c, 54
3, 103120, Note_on_c, 52
3, 103120, Note_on_c, 55
3, 103160, Note_off_c, 52
3, 103160, Note_off_c, 55
3, 103160, Note_on_c, 54
3, 103160, Note_on_c, 50
3, 103200, Note_off_c, 54
3, 103200, Note_off_c, 50
3, 103200, Note_on_c, 52
3, 103200, Note_on_c, 55
3, 103320, Note_off_c, 52
3, 103320, Note_off_c, 55
3, 103320, Note_on_c, 52
3, 103320, Note_on_c, 55
3, 103360, Note_off_c, 52
3, 103360, Note_off_c, 55
3, 103360, Note_on_c, 54
3, 103360, Note_on_c, 50
3, 103400, Note_off_c, 54
3, 103400, Note_off_c, 50
3, 103400, Note_on_c, 49
3, 103400, Note_on_c, 52
3, 103440, Note_off_c, 49
3, 103440, Note_off_c, 52
3, 103440, Note_on_c, 50
3, 103440, Note_on_c, 54
3, 103560, Note_off_c, 50
3, 103560, Note_off_c, 54
3, 103560, Note_on_c, 54
3, 103560, Note_on_c, 50
3, 103600, Note_off_c, 54
3, 103600, Note_off_c, 50
3, 103600, Note_on_c, 49
3, 103600, Note_on_c, 52
3, 103640, Note_off_c, 49
3, 103640, Note_off_c, 52
3, 103640, Note_on_c, 50
3, 103640, Note_on_c, 47
3, 103680, Note_off_c, 50
3, 103680, Note_off_c, 47
3, 103680, Note_on_c, 48
3, 103680, Note_on_c, 52
3, 103800, Note_off_c, 48
3, 103800, Note_off_c, 52
3, 103800, Note_on_c, 49
3, 103800, Note_on_c, 52
3, 103840, Note_off_c, 49
3, 103840, Note_off_c, 52
3, 103840, Note_on_c, 47
3, 103840, Note_on_c, 50
3, 103880, Note_off_c, 47
3, 103880, Note_off_c, 50
3, 103880, Note_on_c, 49
3, 103880, Note_on_c, 45
3, 103920, Note_off_c, 49
3, 103920, Note_off_c, 45
3, 103920, Note_on_c, 47
3, 103920, Note_on_c, 50
3, 104040, Note_off_c, 47
3, 104040, Note_off_c, 50
3, 104040, Note_on_c, 50
3, 104040, Note_on_c, 47
3, 104080, Note_off_c, 50
3, 104080, Note_off_c, 47
3, 104080, Note_on_c, 45
3, 104080, Note_on_c, 49
3, 104120, Note_off_c, 45
3, 104120, Note_off_c, 49
3, 104120, Note_on_c, 43
3, 104120, Note_on_c, 47
3, 104160, Note_off_c, 43
3, 104160, Note_off_c, 47
3, 104160, Note_on_c, 49
3, 104160, Note_on_c, 45
3, 104280, Note_off_c, 49
3, 104280, Note_off_c, 45
3, 104280, Note_on_c, 45
3, 104280, Note_on_c, 49
3, 104320, Note_off_c, 45
3, 104320, Note_off_c, 49
3, 104320, Note_on_c, 47
3, 104320, Note_on_c, 43
3, 104360, Note_off_c, 47
3, 104360, Note_off_c, 43
3, 104360, Note_on_c, 42
3, 104360, Note_on_c, 45
3, 104400, Note_off_c, 42
3, 104400, Note_off_c, 45
3, 104400, Note_on_c, 47
3, 104400, Note_on_c, 43
3, 104520, Note_off_c, 47
3, 104520, Note_off_c, 43
3, 104520, Note_on_c, 42
3, 104520, Note_on_c, 47
3, 104560, Note_off_c, 42
3, 104560, Note_off_c, 47
3, 104560, Note_on_c, 45
3, 104560, Note_on_c, 40
3, 104600, Note_off_c, 45
3, 104600, Note_off_c, 40
3, 104600, Note_on_c, 38
3, 104600, Note_on_c, 43
3, 104640, Note_off_c, 38
3, 104640, Note_off_c, 43
3, 104640, Note_on_c, 45
3, 104640, Note_on_c, 42
3, 104760, Note_off_c, 45
3, 104760, Note_off_c, 42
3, 104760, Note_on_c, 28
3, 104800, Note_off_c, 28
3, 104800, Note_on_c, 28
3, 104840, Note_off_c, 28
3, 104840, Note_on_c, 28
3, 104880, Note_off_c, 28
3, 104880, Note_on_c, 28
3, 104920, Note_off_c, 28
3, 104920, Note_on_c, 28
3, 104960, Note_off_c, 28
3, 104960, Note_on_c, 28
3, 105000, Note_off_c, 28
3, 105000, Note_on_c, 40
3, 105000, Note_on_c, 35
3, 105120, Note_off_c, 40
3, 105120, Note_off_c, 35
3, 105120, Note_on_c, 28
3, 105160, Note_off_c, 28
3, 105160, Note_on_c, 28
3, 105200, Note_off_c, 28
3, 105200, Note_on_c, 28
3, 105240, Note_off_c, 28
3, 105240, Note_on_c, 28
3, 105280, Note_off_c, 28
3, 105280, Note_on_c, 28
3, 105320, Note_off_c, 28
3, 105320, Note_on_c, 28
3, 105360, Note_off_c, 28
3, 105360, Note_on_c, 40
3, 105360, Note_on_c, 35
3, 105480, Note_off_c, 40
3, 105480, Note_off_c, 35
3, 105480, Note_on_c, 28
3, 105520, Note_off_c, 28
3, 105520, Note_on_c, 28
3, 105560, Note_off_c, 28
3, 105560, Note_on_c, 28
3, 105600, Note_off_c, 28
3, 105600, Note_on_c, 41
3, 105600, Note_on_c, 36
3, 105720, Note_off_c, 41
3, 105720, Note_off_c, 36
3, 105720, Note_on_c, 28
3, 105760, Note_off_c, 28
3, 105760, Note_on_c, 28
3, 105800, Note_off_c, 28
3, 105800, Note_on_c, 28
3, 105840, Note_off_c, 28
3, 105840, Note_on_c, 28
3, 105880, Note_off_c, 28
3, 105880, Note_on_c, 28
3, 105920, Note_off_c, 28
3, 105920, Note_on_c, 28
3, 105960, Note_off_c, 28
3, 105960, Note_on_c, 40
3, 105960, Note_on_c, 35
3, 106080, Note_off_c, 40
3, 106080, Note_off_c, 35
3, 106080, Note_on_c, 28
3, 106120, Note_off_c, 28
3, 106120, Note_on_c, 28
3, 106160, Note_off_c, 28
3, 106160, Note_on_c, 28
3, 106200, Note_off_c, 28
3, 106200, Note_on_c, 28
3, 106240, Note_off_c, 28
3, 106240, Note_on_c, 28
3, 106280, Note_off_c, 28
3, 106280, Note_on_c, 28
3, 106320, Note_off_c, 28
3, 106320, Note_on_c, 40
3, 106320, Note_on_c, 35
3, 106440, Note_off_c, 40
3, 106440, Note_off_c, 35
3, 106440, Note_on_c, 28
3, 106480, Note_off_c, 28
3, 106480, Note_on_c, 28
3, 106520, Note_off_c, 28
3, 106520, Note_on_c, 28
3, 106560, Note_off_c, 28
3, 106560, Note_on_c, 41
3, 106560, Note_on_c, 36
3, 106680, Note_off_c, 41
3, 106680, Note_off_c, 36
3, 106680, Note_on_c, 28
3, 106720, Note_off_c, 28
3, 106720, Note_on_c, 28
3, 106760, Note_off_c, 28
3, 106760, Note_on_c, 28
3, 106800, Note_off_c, 28
3, 106800, Note_on_c, 28
3, 106840, Note_off_c, 28
3, 106840, Note_on_c, 28
3, 106880, Note_off_c, 28
3, 106880, Note_on_c, 28
3, 106920, Note_off_c, 28
3, 106920, Note_on_c, 40
3, 106920, Note_on_c, 35
3, 107040, Note_off_c, 40
3, 107040, Note_off_c, 35
3, 107040, Note_on_c, 28
3, 107080, Note_off_c, 28
3, 107080, Note_on_c, 28
3, 107120, Note_off_c, 28
3, 107120, Note_on_c, 28
3, 107160, Note_off_c, 28
3, 107160, Note_on_c, 28
3, 107200, Note_off_c, 28
3, 107200, Note_on_c, 28
3, 107240, Note_off_c, 28
3, 107240, Note_on_c, 28
3, 107280, Note_off_c, 28
3, 107280, Note_on_c, 40
3, 107280, Note_on_c, 35
3, 107400, Note_off_c, 40
3, 107400, Note_off_c, 35
3, 107400, Note_on_c, 28
3, 107440, Note_off_c, 28
3, 107440, Note_on_c, 28
3, 107480, Note_off_c, 28
3, 107480, Note_on_c, 28
3, 107520, Note_off_c, 28
3, 107520, Note_on_c, 41
3, 107520, Note_on_c, 36
3, 107640, Note_off_c, 41
3, 107640, Note_off_c, 36
3, 107640, Note_on_c, 28
3, 107680, Note_off_c, 28
3, 107680, Note_on_c, 28
3, 107720, Note_off_c, 28
3, 107720, Note_on_c, 28
3, 107760, Note_off_c, 28
3, 107760, Note_on_c, 28
3, 107800, Note_off_c, 28
3, 107800, Note_on_c, 28
3, 107840, Note_off_c, 28
3, 107840, Note_on_c, 28
3, 107880, Note_off_c, 28
3, 107880, Note_on_c, 40
3, 107880, Note_on_c, 35
3, 108000, Note_off_c, 40
3, 108000, Note_off_c, 35
3, 108000, Note_on_c, 28
3, 108040, Note_off_c, 28
3, 108040, Note_on_c, 28
3, 108080, Note_off_c, 28
3, 108080, Note_on_c, 28
3, 108120, Note_off_c, 28
3, 108120, Note_on_c, 28
3, 108160, Note_off_c, 28
3, 108160, Note_on_c, 28
3, 108200, Note_off_c, 28
3, 108200, Note_on_c, 28
3, 108240, Note_off_c, 28
3, 108240, Note_on_c, 40
3, 108240, Note_on_c, 35
3, 108360, Note_off_c, 40
3, 108360, Note_off_c, 35
3, 108360, Note_on_c, 28
3, 108400, Note_off_c, 28
3, 108400, Note_on_c, 28
3, 108440, Note_off_c, 28
3, 108440, Note_on_c, 28
3, 108480, Note_off_c, 28
3, 108480, Note_on_c, 41
3, 108480, Note_on_c, 36
3, 108600, Note_off_c, 41
3, 108600, Note_off_c, 36
3, 108600, Note_on_c, 31
3, 108660, Note_off_c, 31
3, 108660, Note_on_c, 31
3, 108720, Note_off_c, 31
3, 108720, Note_on_c, 43
3, 108720, Note_on_c, 38
3, 108720, Note_on_c, 31
3, 108840, Note_off_c, 43
3, 108840, Note_off_c, 38
3, 108840, Note_off_c, 31
3, 108840, Note_on_c, 31
3, 108900, Note_off_c, 31
3, 108900, Note_on_c, 31
3, 108960, Note_off_c, 31
3, 108960, Note_on_c, 43
3, 108960, Note_on_c, 38
3, 108960, Note_on_c, 31
3, 109080, Note_off_c, 43
3, 109080, Note_off_c, 38
3, 109080, Note_off_c, 31
3, 109080, Note_on_c, 31
3, 109140, Note_off_c, 31
3, 109140, Note_on_c, 31
3, 109200, Note_off_c, 31
3, 109200, Note_on_c, 43
3, 109200, Note_on_c, 38
3, 109200, Note_on_c, 31
3, 109320, Note_off_c, 43
3, 109320, Note_off_c, 38
3, 109320, Note_off_c, 31
3, 109320, Note_on_c, 31
3, 109380, Note_off_c, 31
3, 109380, Note_on_c, 31
3, 109440, Note_off_c, 31
3, 109440, Note_on_c, 43
3, 109440, Note_on_c, 38
3, 109440, Note_on_c, 31
3, 109560, Note_off_c, 43
3, 109560, Note_off_c, 38
3, 109560, Note_off_c, 31
3, 109560, Note_on_c, 28
3, 109600, Note_off_c, 28
3, 109600, Note_on_c, 28
3, 109640, Note_off_c, 28
3, 109640, Note_on_c, 28
3, 109680, Note_off_c, 28
3, 109680, Note_on_c, 28
3, 109720, Note_off_c, 28
3, 109720, Note_on_c, 28
3, 109760, Note_off_c, 28
3, 109760, Note_on_c, 28
3, 109800, Note_off_c, 28
3, 109800, Note_on_c, 40
3, 109800, Note_on_c, 35
3, 109920, Note_off_c, 40
3, 109920, Note_off_c, 35
3, 109920, Note_on_c, 28
3, 109960, Note_off_c, 28
3, 109960, Note_on_c, 28
3, 110000, Note_off_c, 28
3, 110000, Note_on_c, 28
3, 110040, Note_off_c, 28
3, 110040, Note_on_c, 28
3, 110080, Note_off_c, 28
3, 110080, Note_on_c, 28
3, 110120, Note_off_c, 28
3, 110120, Note_on_c, 28
3, 110160, Note_off_c, 28
3, 110160, Note_on_c, 40
3, 110160, Note_on_c, 35
3, 110280, Note_off_c, 40
3, 110280, Note_off_c, 35
3, 110280, Note_on_c, 28
3, 110320, Note_off_c, 28
3, 110320, Note_on_c, 28
3, 110360, Note_off_c, 28
3, 110360, Note_on_c, 28
3, 110400, Note_off_c, 28
3, 110400, Note_on_c, 41
3, 110400, Note_on_c, 36
3, 110520, Note_off_c, 41
3, 110520, Note_off_c, 36
3, 110520, Note_on_c, 31
3, 110580, Note_off_c, 31
3, 110580, Note_on_c, 31
3, 110640, Note_off_c, 31
3, 110640, Note_on_c, 43
3, 110640, Note_on_c, 38
3, 110640, Note_on_c, 31
3, 110760, Note_off_c, 43
3, 110760, Note_off_c, 38
3, 110760, Note_off_c, 31
3, 110760, Note_on_c, 31
3, 110820, Note_off_c, 31
3, 110820, Note_on_c, 31
3, 110880, Note_off_c, 31
3, 110880, Note_on_c, 43
3, 110880, Note_on_c, 38
3, 110880, Note_on_c, 31
3, 111000, Note_off_c, 43
3, 111000, Note_off_c, 38
3, 111000, Note_off_c, 31
3, 111000, Note_on_c, 31
3, 111060, Note_off_c, 31
3, 111060, Note_on_c, 31
3, 111120, Note_off_c, 31
3, 111120, Note_on_c, 43
3, 111120, Note_on_c, 38
3, 111120, Note_on_c, 31
3, 111240, Note_off_c, 43
3, 111240, Note_off_c, 38
3, 111240, Note_off_c, 31
3, 111240, Note_on_c, 31
3, 111300, Note_off_c, 31
3, 111300, Note_on_c, 31
3, 111360, Note_off_c, 31
3, 111360, Note_on_c, 43
3, 111360, Note_on_c, 38
3, 111360, Note_on_c, 31
3, 111480, Note_off_c, 43
3, 111480, Note_off_c, 38
3, 111480, Note_off_c, 31
3, 111480, Note_on_c, 28
3, 111520, Note_off_c, 28
3, 111520, Note_on_c, 28
3, 111560, Note_off_c, 28
3, 111560, Note_on_c, 28
3, 111600, Note_off_c, 28
3, 111600, Note_on_c, 28
3, 111640, Note_off_c, 28
3, 111640, Note_on_c, 28
3, 111680, Note_off_c, 28
3, 111680, Note_on_c, 28
3, 111720, Note_off_c, 28
3, 111720, Note_on_c, 40
3, 111720, Note_on_c, 35
3, 111720, Note_on_c, 28
3, 111840, Note_off_c, 40
3, 111840, Note_off_c, 35
3, 111840, Note_off_c, 28
3, 111840, Note_on_c, 40
3, 111840, Note_on_c, 35
3, 111840, Note_on_c, 28
3, 111960, Note_off_c, 40
3, 111960, Note_off_c, 35
3, 111960, Note_off_c, 28
3, 111960, Note_on_c, 29
3, 112020, Note_off_c, 29
3, 112020, Note_on_c, 29
3, 112080, Note_off_c, 29
3, 112080, Note_on_c, 42
3, 112080, Note_on_c, 36
3, 112080, Note_on_c, 29
3, 112200, Note_off_c, 42
3, 112200, Note_off_c, 36
3, 112200, Note_off_c, 29
3, 112200, Note_on_c, 29
3, 112260, Note_off_c, 29
3, 112260, Note_on_c, 29
3, 112320, Note_off_c, 29
3, 112320, Note_on_c, 42
3, 112320, Note_on_c, 36
3, 112320, Note_on_c, 29
3, 112440, Note_off_c, 42
3, 112440, Note_off_c, 36
3, 112440, Note_off_c, 29
3, 112440, Note_on_c, 28
3, 112480, Note_off_c, 28
3, 112480, Note_on_c, 28
3, 112520, Note_off_c, 28
3, 112520, Note_on_c, 28
3, 112560, Note_off_c, 28
3, 112560, Note_on_c, 28
3, 112600, Note_off_c, 28
3, 112600, Note_on_c, 28
3, 112640, Note_off_c, 28
3, 112640, Note_on_c, 28
3, 112680, Note_off_c, 28
3, 112680, Note_on_c, 40
3, 112680, Note_on_c, 35
3, 112680, Note_on_c, 28
3, 112800, Note_off_c, 40
3, 112800, Note_off_c, 35
3, 112800, Note_off_c, 28
3, 112800, Note_on_c, 40
3, 112800, Note_on_c, 35
3, 112800, Note_on_c, 28
3, 112920, Note_off_c, 40
3, 112920, Note_off_c, 35
3, 112920, Note_off_c, 28
3, 112920, Note_on_c, 29
3, 112980, Note_off_c, 29
3, 112980, Note_on_c, 29
3, 113040, Note_off_c, 29
3, 113040, Note_on_c, 42
3, 113040, Note_on_c, 36
3, 113040, Note_on_c, 29
3, 113160, Note_off_c, 42
3, 113160, Note_off_c, 36
3, 113160, Note_off_c, 29
3, 113160, Note_on_c, 29
3, 113220, Note_off_c, 29
3, 113220, Note_on_c, 29
3, 113280, Note_off_c, 29
3, 113280, Note_on_c, 42
3, 113280, Note_on_c, 36
3, 113280, Note_on_c, 29
3, 113400, Note_off_c, 42
3, 113400, Note_off_c, 36
3, 113400, Note_off_c, 29
3, 113400, Note_on_c, 28
3, 113440, Note_off_c, 28
3, 113440, Note_on_c, 28
3, 113480, Note_off_c, 28
3, 113480, Note_on_c, 28
3, 113520, Note_off_c, 28
3, 113520, Note_on_c, 28
3, 113560, Note_off_c, 28
3, 113560, Note_on_c, 28
3, 113600, Note_off_c, 28
3, 113600, Note_on_c, 28
3, 113640, Note_off_c, 28
3, 113640, Note_on_c, 40
3, 113640, Note_on_c, 35
3, 113640, Note_on_c, 28
3, 113760, Note_off_c, 40
3, 113760, Note_off_c, 35
3, 113760, Note_off_c, 28
3, 113760, Note_on_c, 40
3, 113760, Note_on_c, 35
3, 113760, Note_on_c, 28
3, 113880, Note_off_c, 40
3, 113880, Note_off_c, 35
3, 113880, Note_off_c, 28
3, 113880, Note_on_c, 29
3, 113940, Note_off_c, 29
3, 113940, Note_on_c, 29
3, 114000, Note_off_c, 29
3, 114000, Note_on_c, 42
3, 114000, Note_on_c, 36
3, 114000, Note_on_c, 29
3, 114120, Note_off_c, 42
3, 114120, Note_off_c, 36
3, 114120, Note_off_c, 29
3, 114120, Note_on_c, 29
3, 114180, Note_off_c, 29
3, 114180, Note_on_c, 29
3, 114240, Note_off_c, 29
3, 114240, Note_on_c, 42
3, 114240, Note_on_c, 36
3, 114240, Note_on_c, 29
3, 114360, Note_off_c, 42
3, 114360, Note_off_c, 36
3, 114360, Note_off_c, 29
3, 114360, Note_on_c, 28
3, 114400, Note_off_c, 28
3, 114400, Note_on_c, 28
3, 114440, Note_off_c, 28
3, 114440, Note_on_c, 28
3, 114480, Note_off_c, 28
3, 114480, Note_on_c, 28
3, 114520, Note_off_c, 28
3, 114520, Note_on_c, 28
3, 114560, Note_off_c, 28
3, 114560, Note_on_c, 28
3, 114600, Note_off_c, 28
3, 114600, Note_on_c, 40
3, 114600, Note_on_c, 35
3, 114600, Note_on_c, 28
3, 114720, Note_off_c, 40
3, 114720, Note_off_c, 35
3, 114720, Note_off_c, 28
3, 114720, Note_on_c, 40
3, 114720, Note_on_c, 35
3, 114720, Note_on_c, 28
3, 114840, Note_off_c, 40
3, 114840, Note_off_c, 35
3, 114840, Note_off_c, 28
3, 114840, Note_on_c, 31
3, 114900, Note_off_c, 31
3, 114900, Note_on_c, 31
3, 114960, Note_off_c, 31
3, 114960, Note_on_c, 43
3, 114960, Note_on_c, 38
3, 114960, Note_on_c, 31
3, 115080, Note_off_c, 43
3, 115080, Note_off_c, 38
3, 115080, Note_off_c, 31
3, 115080, Note_on_c, 31
3, 115140, Note_off_c, 31
3, 115140, Note_on_c, 31
3, 115200, Note_off_c, 31
3, 115200, Note_on_c, 38
3, 115200, Note_on_c, 43
3, 115200, Note_on_c, 31
3, 115320, Note_off_c, 38
3, 115320, Note_off_c, 43
3, 115320, Note_off_c, 31
3, 115320, Note_on_c, 31
3, 115380, Note_off_c, 31
3, 115380, Note_on_c, 31
3, 115440, Note_off_c, 31
3, 115440, Note_on_c, 43
3, 115440, Note_on_c, 38
3, 115440, Note_on_c, 31
3, 115560, Note_off_c, 43
3, 115560, Note_off_c, 38
3, 115560, Note_off_c, 31
3, 115560, Note_on_c, 31
3, 115620, Note_off_c, 31
3, 115620, Note_on_c, 31
3, 115680, Note_off_c, 31
3, 115680, Note_on_c, 38
3, 115680, Note_on_c, 43
3, 115680, Note_on_c, 31
3, 115800, Note_off_c, 38
3, 115800, Note_off_c, 43
3, 115800, Note_off_c, 31
3, 115800, Note_on_c, 28
3, 115840, Note_off_c, 28
3, 115840, Note_on_c, 28
3, 115880, Note_off_c, 28
3, 115880, Note_on_c, 28
3, 115920, Note_off_c, 28
3, 115920, Note_on_c, 28
3, 115960, Note_off_c, 28
3, 115960, Note_on_c, 28
3, 116000, Note_off_c, 28
3, 116000, Note_on_c, 28
3, 116040, Note_off_c, 28
3, 116040, Note_on_c, 40
3, 116040, Note_on_c, 35
3, 116160, Note_off_c, 40
3, 116160, Note_off_c, 35
3, 116160, Note_on_c, 28
3, 116200, Note_off_c, 28
3, 116200, Note_on_c, 28
3, 116240, Note_off_c, 28
3, 116240, Note_on_c, 28
3, 116280, Note_off_c, 28
3, 116280, Note_on_c, 28
3, 116320, Note_off_c, 28
3, 116320, Note_on_c, 28
3, 116360, Note_off_c, 28
3, 116360, Note_on_c, 28
3, 116400, Note_off_c, 28
3, 116400, Note_on_c, 40
3, 116400, Note_on_c, 35
3, 116520, Note_off_c, 40
3, 116520, Note_off_c, 35
3, 116520, Note_on_c, 28
3, 116560, Note_off_c, 28
3, 116560, Note_on_c, 28
3, 116600, Note_off_c, 28
3, 116600, Note_on_c, 28
3, 116640, Note_off_c, 28
3, 116640, Note_on_c, 41
3, 116640, Note_on_c, 36
3, 116760, Note_off_c, 41
3, 116760, Note_off_c, 36
3, 116760, Note_on_c, 28
3, 116760, Note_on_c, 35
3, 116760, Note_on_c, 40
3, 116800, Note_off_c, 28
3, 116800, Note_off_c, 35
3, 116800, Note_off_c, 40
3, 116800, Note_on_c, 28
3, 116800, Note_on_c, 35
3, 116800, Note_on_c, 40
3, 116840, Note_off_c, 28
3, 116840, Note_off_c, 35
3, 116840, Note_off_c, 40
3, 116840, Note_on_c, 28
3, 116840, Note_on_c, 35
3, 116840, Note_on_c, 40
3, 116880, Note_off_c, 28
3, 116880, Note_off_c, 35
3, 116880, Note_off_c, 40
3, 116880, Note_on_c, 28
3, 116880, Note_on_c, 35
3, 116880, Note_on_c, 40
3, 116920, Note_off_c, 28
3, 116920, Note_off_c, 35
3, 116920, Note_off_c, 40
3, 116920, Note_on_c, 28
3, 116920, Note_on_c, 35
3, 116920, Note_on_c, 40
3, 116960, Note_off_c, 28
3, 116960, Note_off_c, 35
3, 116960, Note_off_c, 40
3, 116960, Note_on_c, 28
3, 116960, Note_on_c, 35
3, 116960, Note_on_c, 40
3, 117000, Note_off_c, 28
3, 117000, Note_off_c, 35
3, 117000, Note_off_c, 40
3, 117000, Note_on_c, 28
3, 117000, Note_on_c, 35
3, 117000, Note_on_c, 40
3, 117060, Note_off_c, 28
3, 117060, Note_off_c, 35
3, 117060, Note_off_c, 40
3, 117120, Note_on_c, 28
3, 117120, Note_on_c, 35
3, 117120, Note_on_c, 40
3, 117160, Note_off_c, 28
3, 117160, Note_off_c, 35
3, 117160, Note_off_c, 40
3, 117160, Note_on_c, 28
3, 117160, Note_on_c, 35
3, 117160, Note_on_c, 40
3, 117200, Note_off_c, 28
3, 117200, Note_off_c, 35
3, 117200, Note_off_c, 40
3, 117200, Note_on_c, 28
3, 117200, Note_on_c, 35
3, 117200, Note_on_c, 40
3, 117240, Note_off_c, 28
3, 117240, Note_off_c, 35
3, 117240, Note_off_c, 40
3, 117240, Note_on_c, 28
3, 117240, Note_on_c, 35
3, 117240, Note_on_c, 40
3, 117280, Note_off_c, 28
3, 117280, Note_off_c, 35
3, 117280, Note_off_c, 40
3, 117280, Note_on_c, 28
3, 117280, Note_on_c, 35
3, 117280, Note_on_c, 40
3, 117320, Note_off_c, 28
3, 117320, Note_off_c, 35
3, 117320, Note_off_c, 40
3, 117320, Note_on_c, 28
3, 117320, Note_on_c, 35
3, 117320, Note_on_c, 40
3, 117360, Note_off_c, 28
3, 117360, Note_off_c, 35
3, 117360, Note_off_c, 40
3, 117360, Note_on_c, 28
3, 117360, Note_on_c, 35
3, 117360, Note_on_c, 40
3, 117420, Note_off_c, 28
3, 117420, Note_off_c, 35
3, 117420, Note_off_c, 40
3, 117420, End_track
