1, 384, Note_on_c, 43
1, 384, Note_on_c, 31
1, 384, Note_on_c, 31
1, 764, Note_off_c, 31
1, 764, Note_off_c, 31
1, 764, Note_off_c, 43
1, 768, Note_on_c, 31
1, 768, Note_on_c, 43
1, 768, Note_on_c, 31
1, 1148, Note_off_c, 31
1, 1148, Note_off_c, 43
1, 1148, Note_off_c, 31
1, 1152, Note_on_c, 28
1, 1152, Note_on_c, 40
1, 1152, Note_on_c, 28
1, 1532, Note_off_c, 28
1, 1532, Note_off_c, 40
1, 1532, Note_off_c, 28
1, 1536, Note_on_c, 28
1, 1536, Note_on_c, 40
1, 1536, Note_on_c, 28
1, 1916, Note_off_c, 28
1, 1916, Note_off_c, 40
1, 1916, Note_off_c, 28
1, 1920, Note_on_c, 43
1, 1920, Note_on_c, 31
1, 1920, Note_on_c, 31
1, 2300, Note_off_c, 31
1, 2300, Note_off_c, 31
1, 2300, Note_off_c, 43
1, 2304, Note_on_c, 43
1, 2304, Note_on_c, 31
1, 2304, Note_on_c, 31
1, 2684, Note_off_c, 31
1, 2684, Note_off_c, 31
1, 2684, Note_off_c, 43
1, 2688, Note_on_c, 42
1, 2688, Note_on_c, 36
1, 2688, Note_on_c, 38
1, 2688, Note_on_c, 26
1, 2688, Note_on_c, 26
1, 2689, Note_off_c, 36
1, 2689, Note_off_c, 42
1, 2736, Note_on_c, 42
1, 2737, Note_off_c, 42
1, 2784, Note_on_c, 42
1, 2784, Note_on_c, 38
1, 2785, Note_off_c, 38
1, 2785, Note_off_c, 42
1, 2832, Note_on_c, 42
1, 2833, Note_off_c, 42
1, 2880, Note_on_c, 42
1, 2880, Note_on_c, 36
1, 2881, Note_off_c, 36
1, 2881, Note_off_c, 42
1, 2928, Note_on_c, 42
1, 2929, Note_off_c, 42
1, 2976, Note_on_c, 42
1, 2976, Note_on_c, 38
1, 2977, Note_off_c, 38
1, 2977, Note_off_c, 42
1, 2977, Note_on_c, 39
1, 2978, Note_off_c, 39
1, 2983, Note_on_c, 39
1, 2984, Note_off_c, 39
1, 3024, Note_on_c, 42
1, 3025, Note_off_c, 42
1, 3072, Note_on_c, 42
1, 3072, Note_on_c, 36
1, 3072, Note_on_c, 83
1, 3073, Note_off_c, 36
1, 3073, Note_off_c, 42
1, 3120, Note_on_c, 42
1, 3121, Note_off_c, 42
1, 3168, Note_on_c, 42
1, 3168, Note_on_c, 36
1, 3168, Note_on_c, 38
1, 3169, Note_off_c, 38
1, 3169, Note_off_c, 36
1, 3169, Note_off_c, 42
1, 3216, Note_on_c, 42
1, 3217, Note_off_c, 42
1, 3264, Note_on_c, 42
1, 3265, Note_off_c, 42
1, 3312, Note_on_c, 42
1, 3312, Note_on_c, 36
1, 3313, Note_off_c, 36
1, 3313, Note_off_c, 42
1, 3360, Note_on_c, 42
1, 3360, Note_on_c, 38
1, 3361, Note_off_c, 38
1, 3361, Note_off_c, 42
1, 3361, Note_on_c, 39
1, 3362, Note_off_c, 39
1, 3367, Note_on_c, 39
1, 3368, Note_off_c, 39
1, 3408, Note_on_c, 42
1, 3409, Note_off_c, 42
1, 3452, Note_off_c, 38
1, 3452, Note_off_c, 26
1, 3456, Note_on_c, 42
1, 3456, Note_on_c, 36
1, 3457, Note_off_c, 36
1, 3457, Note_off_c, 42
1, 3504, Note_on_c, 42
1, 3505, Note_off_c, 42
1, 3552, Note_on_c, 42
1, 3552, Note_on_c, 38
1, 3553, Note_off_c, 38
1, 3553, Note_off_c, 42
1, 3600, Note_on_c, 42
1, 3601, Note_off_c, 42
1, 3648, Note_on_c, 42
1, 3648, Note_on_c, 36
1, 3649, Note_off_c, 36
1, 3649, Note_off_c, 42
1, 3696, Note_on_c, 42
1, 3697, Note_off_c, 42
1, 3744, Note_on_c, 42
1, 3744, Note_on_c, 38
1, 3745, Note_off_c, 38
1, 3745, Note_off_c, 42
1, 3745, Note_on_c, 39
1, 3746, Note_off_c, 39
1, 3751, Note_on_c, 39
1, 3752, Note_off_c, 39
1, 3792, Note_on_c, 42
1, 3793, Note_off_c, 42
1, 3840, Note_on_c, 42
1, 3840, Note_on_c, 36
1, 3841, Note_off_c, 36
1, 3841, Note_off_c, 42
1, 3888, Note_on_c, 42
1, 3889, Note_off_c, 42
1, 3936, Note_on_c, 42
1, 3936, Note_on_c, 36
1, 3936, Note_on_c, 38
1, 3937, Note_off_c, 38
1, 3937, Note_off_c, 36
1, 3937, Note_off_c, 42
1, 3984, Note_on_c, 42
1, 3985, Note_off_c, 42
1, 4032, Note_on_c, 42
1, 4033, Note_off_c, 42
1, 4080, Note_on_c, 42
1, 4080, Note_on_c, 36
1, 4081, Note_off_c, 36
1, 4081, Note_off_c, 42
1, 4128, Note_on_c, 42
1, 4128, Note_on_c, 38
1, 4129, Note_off_c, 38
1, 4129, Note_off_c, 42
1, 4129, Note_on_c, 39
1, 4130, Note_off_c, 39
1, 4135, Note_on_c, 39
1, 4136, Note_off_c, 39
1, 4176, Note_on_c, 42
1, 4177, Note_off_c, 42
1, 4220, Note_off_c, 26
1, 4224, Note_on_c, 42
1, 4224, Note_on_c, 36
1, 4225, Note_off_c, 36
1, 4225, Note_off_c, 42
1, 4272, Note_on_c, 42
1, 4273, Note_off_c, 42
1, 4320, Note_on_c, 42
1, 4320, Note_on_c, 38
1, 4321, Note_off_c, 38
1, 4321, Note_off_c, 42
1, 4368, Note_on_c, 42
1, 4369, Note_off_c, 42
1, 4416, Note_on_c, 42
1, 4416, Note_on_c, 36
1, 4417, Note_off_c, 36
1, 4417, Note_off_c, 42
1, 4464, Note_on_c, 42
1, 4465, Note_off_c, 42
1, 4512, Note_on_c, 42
1, 4512, Note_on_c, 38
1, 4513, Note_off_c, 38
1, 4513, Note_off_c, 42
1, 4513, Note_on_c, 39
1, 4514, Note_off_c, 39
1, 4519, Note_on_c, 39
1, 4520, Note_off_c, 39
1, 4522, Note_off_c, 83
1, 4560, Note_on_c, 42
1, 4561, Note_off_c, 42
1, 4608, Note_on_c, 42
1, 4608, Note_on_c, 36
1, 4609, Note_off_c, 36
1, 4609, Note_off_c, 42
1, 4656, Note_on_c, 42
1, 4657, Note_off_c, 42
1, 4704, Note_on_c, 42
1, 4704, Note_on_c, 36
1, 4704, Note_on_c, 38
1, 4705, Note_off_c, 38
1, 4705, Note_off_c, 36
1, 4705, Note_off_c, 42
1, 4752, Note_on_c, 42
1, 4753, Note_off_c, 42
1, 4800, Note_on_c, 42
1, 4801, Note_off_c, 42
1, 4848, Note_on_c, 42
1, 4848, Note_on_c, 36
1, 4849, Note_off_c, 36
1, 4849, Note_off_c, 42
1, 4896, Note_on_c, 42
1, 4896, Note_on_c, 38
1, 4897, Note_off_c, 38
1, 4897, Note_off_c, 42
1, 4897, Note_on_c, 39
1, 4898, Note_off_c, 39
1, 4903, Note_on_c, 39
1, 4904, Note_off_c, 39
1, 4944, Note_on_c, 42
1, 4945, Note_off_c, 42
1, 4992, Note_on_c, 42
1, 4992, Note_on_c, 36
1, 4993, Note_off_c, 36
1, 4993, Note_off_c, 42
1, 5040, Note_on_c, 42
1, 5040, Note_on_c, 69
1, 5041, Note_off_c, 69
1, 5041, Note_off_c, 42
1, 5088, Note_on_c, 42
1, 5088, Note_on_c, 38
1, 5088, Note_on_c, 69
1, 5089, Note_off_c, 69
1, 5089, Note_off_c, 38
1, 5089, Note_off_c, 42
1, 5136, Note_on_c, 42
1, 5137, Note_off_c, 42
1, 5184, Note_on_c, 42
1, 5184, Note_on_c, 36
1, 5184, Note_on_c, 69
1, 5185, Note_off_c, 69
1, 5185, Note_off_c, 36
1, 5185, Note_off_c, 42
1, 5232, Note_on_c, 42
1, 5233, Note_off_c, 42
1, 5280, Note_on_c, 42
1, 5280, Note_on_c, 38
1, 5281, Note_off_c, 38
1, 5281, Note_off_c, 42
1, 5281, Note_on_c, 39
1, 5282, Note_off_c, 39
1, 5287, Note_on_c, 39
1, 5288, Note_off_c, 39
1, 5328, Note_on_c, 42
1, 5328, Note_on_c, 69
1, 5329, Note_off_c, 69
1, 5329, Note_off_c, 42
1, 5376, Note_on_c, 42
1, 5376, Note_on_c, 36
1, 5376, Note_on_c, 69
1, 5377, Note_off_c, 69
1, 5377, Note_off_c, 36
1, 5377, Note_off_c, 42
1, 5424, Note_on_c, 42
1, 5425, Note_off_c, 42
1, 5472, Note_on_c, 42
1, 5472, Note_on_c, 36
1, 5472, Note_on_c, 38
1, 5472, Note_on_c, 69
1, 5473, Note_off_c, 69
1, 5473, Note_off_c, 38
1, 5473, Note_off_c, 36
1, 5473, Note_off_c, 42
1, 5520, Note_on_c, 42
1, 5521, Note_off_c, 42
1, 5568, Note_on_c, 42
1, 5569, Note_off_c, 42
1, 5616, Note_on_c, 38
1, 5616, Note_on_c, 42
1, 5616, Note_on_c, 36
1, 5617, Note_off_c, 36
1, 5617, Note_off_c, 42
1, 5617, Note_off_c, 38
1, 5664, Note_on_c, 38
1, 5664, Note_on_c, 42
1, 5664, Note_on_c, 38
1, 5665, Note_off_c, 38
1, 5665, Note_off_c, 42
1, 5665, Note_off_c, 38
1, 5665, Note_on_c, 39
1, 5666, Note_off_c, 39
1, 5671, Note_on_c, 39
1, 5672, Note_off_c, 39
1, 5710, Note_on_c, 39
1, 5712, Note_on_c, 38
1, 5712, Note_on_c, 36
1, 5712, Note_on_c, 49
1, 5712, Note_on_c, 42
1, 5712, Note_on_c, 27
1, 5712, Note_on_c, 39
1, 5712, Note_on_c, 39
1, 5713, Note_off_c, 42
1, 5713, Note_off_c, 49
1, 5713, Note_off_c, 36
1, 5713, Note_off_c, 38
1, 5760, Note_on_c, 42
1, 5760, Note_on_c, 36
1, 5761, Note_off_c, 36
1, 5761, Note_off_c, 42
1, 5802, Note_off_c, 39
1, 5804, Note_off_c, 39
1, 5806, Note_off_c, 39
1, 5806, Note_off_c, 27
1, 5806, Note_on_c, 42
1, 5808, Note_on_c, 42
1, 5808, Note_on_c, 30
1, 5808, Note_on_c, 42
1, 5808, Note_on_c, 42
1, 5809, Note_off_c, 42
1, 5853, Note_off_c, 42
1, 5854, Note_on_c, 46
1, 5855, Note_off_c, 30
1, 5855, Note_off_c, 42
1, 5855, Note_off_c, 42
1, 5856, Note_on_c, 42
1, 5856, Note_on_c, 38
1, 5856, Note_on_c, 34
1, 5856, Note_on_c, 46
1, 5856, Note_on_c, 46
1, 5857, Note_off_c, 38
1, 5857, Note_off_c, 42
1, 5901, Note_off_c, 46
1, 5902, Note_on_c, 54
1, 5903, Note_off_c, 46
1, 5903, Note_off_c, 46
1, 5903, Note_off_c, 34
1, 5904, Note_on_c, 42
1, 5904, Note_on_c, 42
1, 5904, Note_on_c, 54
1, 5904, Note_on_c, 54
1, 5905, Note_off_c, 42
1, 5949, Note_off_c, 54
1, 5950, Note_on_c, 51
1, 5951, Note_off_c, 42
1, 5951, Note_off_c, 54
1, 5951, Note_off_c, 54
1, 5952, Note_on_c, 42
1, 5952, Note_on_c, 36
1, 5952, Note_on_c, 39
1, 5952, Note_on_c, 51
1, 5952, Note_on_c, 51
1, 5953, Note_off_c, 36
1, 5953, Note_off_c, 42
1, 6000, Note_on_c, 42
1, 6001, Note_off_c, 42
1, 6048, Note_on_c, 42
1, 6048, Note_on_c, 38
1, 6049, Note_off_c, 38
1, 6049, Note_off_c, 42
1, 6049, Note_on_c, 39
1, 6050, Note_off_c, 39
1, 6055, Note_on_c, 39
1, 6056, Note_off_c, 39
1, 6091, Note_off_c, 51
1, 6093, Note_off_c, 51
1, 6093, Note_off_c, 51
1, 6093, Note_off_c, 39
1, 6093, Note_on_c, 51
1, 6095, Note_on_c, 39
1, 6095, Note_on_c, 51
1, 6095, Note_on_c, 51
1, 6096, Note_on_c, 42
1, 6097, Note_off_c, 42
1, 6144, Note_on_c, 42
1, 6144, Note_on_c, 36
1, 6145, Note_off_c, 36
1, 6145, Note_off_c, 42
1, 6184, Note_off_c, 51
1, 6186, Note_off_c, 51
1, 6189, Note_off_c, 39
1, 6189, Note_off_c, 51
1, 6190, Note_on_c, 51
1, 6192, Note_on_c, 42
1, 6192, Note_on_c, 39
1, 6192, Note_on_c, 51
1, 6192, Note_on_c, 51
1, 6193, Note_off_c, 42
1, 6235, Note_off_c, 51
1, 6237, Note_off_c, 39
1, 6237, Note_off_c, 51
1, 6237, Note_off_c, 51
1, 6238, Note_on_c, 49
1, 6240, Note_on_c, 42
1, 6240, Note_on_c, 38
1, 6240, Note_on_c, 36
1, 6240, Note_on_c, 37
1, 6240, Note_on_c, 49
1, 6240, Note_on_c, 49
1, 6241, Note_off_c, 36
1, 6241, Note_off_c, 38
1, 6241, Note_off_c, 42
1, 6276, Note_off_c, 49
1, 6278, Note_off_c, 49
1, 6278, Note_off_c, 37
1, 6278, Note_off_c, 49
1, 6288, Note_on_c, 42
1, 6289, Note_off_c, 42
1, 6334, Note_on_c, 49
1, 6336, Note_on_c, 42
1, 6336, Note_on_c, 37
1, 6336, Note_on_c, 49
1, 6336, Note_on_c, 49
1, 6337, Note_off_c, 42
1, 6371, Note_off_c, 37
1, 6371, Note_off_c, 49
1, 6374, Note_off_c, 49
1, 6376, Note_off_c, 49
1, 6384, Note_on_c, 42
1, 6384, Note_on_c, 36
1, 6385, Note_off_c, 36
1, 6385, Note_off_c, 42
1, 6432, Note_on_c, 42
1, 6432, Note_on_c, 38
1, 6433, Note_off_c, 38
1, 6433, Note_off_c, 42
1, 6433, Note_on_c, 39
1, 6434, Note_off_c, 39
1, 6439, Note_on_c, 39
1, 6440, Note_off_c, 39
1, 6478, Note_on_c, 39
1, 6480, Note_on_c, 42
1, 6480, Note_on_c, 27
1, 6480, Note_on_c, 39
1, 6480, Note_on_c, 39
1, 6481, Note_off_c, 42
1, 6528, Note_on_c, 42
1, 6528, Note_on_c, 36
1, 6529, Note_off_c, 36
1, 6529, Note_off_c, 42
1, 6572, Note_off_c, 39
1, 6574, Note_off_c, 27
1, 6574, Note_off_c, 39
1, 6574, Note_off_c, 39
1, 6574, Note_on_c, 42
1, 6576, Note_on_c, 42
1, 6576, Note_on_c, 30
1, 6576, Note_on_c, 42
1, 6576, Note_on_c, 42
1, 6577, Note_off_c, 42
1, 6620, Note_off_c, 42
1, 6622, Note_off_c, 30
1, 6622, Note_off_c, 42
1, 6622, Note_off_c, 42
1, 6622, Note_on_c, 46
1, 6624, Note_on_c, 42
1, 6624, Note_on_c, 38
1, 6624, Note_on_c, 34
1, 6624, Note_on_c, 46
1, 6624, Note_on_c, 46
1, 6625, Note_off_c, 38
1, 6625, Note_off_c, 42
1, 6668, Note_off_c, 46
1, 6670, Note_off_c, 46
1, 6670, Note_off_c, 46
1, 6670, Note_off_c, 34
1, 6670, Note_on_c, 54
1, 6672, Note_on_c, 42
1, 6672, Note_on_c, 42
1, 6672, Note_on_c, 54
1, 6672, Note_on_c, 54
1, 6673, Note_off_c, 42
1, 6716, Note_off_c, 54
1, 6718, Note_off_c, 42
1, 6718, Note_off_c, 54
1, 6718, Note_off_c, 54
1, 6718, Note_on_c, 51
1, 6720, Note_on_c, 42
1, 6720, Note_on_c, 36
1, 6720, Note_on_c, 39
1, 6720, Note_on_c, 51
1, 6720, Note_on_c, 51
1, 6721, Note_off_c, 36
1, 6721, Note_off_c, 42
1, 6768, Note_on_c, 42
1, 6769, Note_off_c, 42
1, 6816, Note_on_c, 42
1, 6816, Note_on_c, 38
1, 6817, Note_off_c, 38
1, 6817, Note_off_c, 42
1, 6817, Note_on_c, 39
1, 6818, Note_off_c, 39
1, 6823, Note_on_c, 39
1, 6824, Note_off_c, 39
1, 6859, Note_off_c, 51
1, 6861, Note_off_c, 51
1, 6861, Note_off_c, 51
1, 6861, Note_off_c, 39
1, 6861, Note_on_c, 51
1, 6863, Note_on_c, 39
1, 6863, Note_on_c, 51
1, 6863, Note_on_c, 51
1, 6864, Note_on_c, 42
1, 6865, Note_off_c, 42
1, 6912, Note_on_c, 42
1, 6912, Note_on_c, 36
1, 6913, Note_off_c, 36
1, 6913, Note_off_c, 42
1, 6956, Note_off_c, 51
1, 6958, Note_off_c, 51
1, 6958, Note_off_c, 39
1, 6958, Note_off_c, 51
1, 6958, Note_on_c, 51
1, 6960, Note_on_c, 42
1, 6960, Note_on_c, 39
1, 6960, Note_on_c, 51
1, 6960, Note_on_c, 51
1, 6961, Note_off_c, 42
1, 7000, Note_off_c, 51
1, 7002, Note_off_c, 39
1, 7002, Note_off_c, 51
1, 7002, Note_off_c, 51
1, 7006, Note_on_c, 49
1, 7008, Note_on_c, 42
1, 7008, Note_on_c, 38
1, 7008, Note_on_c, 36
1, 7008, Note_on_c, 37
1, 7008, Note_on_c, 49
1, 7008, Note_on_c, 49
1, 7009, Note_off_c, 36
1, 7009, Note_off_c, 38
1, 7009, Note_off_c, 42
1, 7046, Note_off_c, 49
1, 7046, Note_off_c, 37
1, 7047, Note_off_c, 49
1, 7049, Note_off_c, 49
1, 7056, Note_on_c, 42
1, 7057, Note_off_c, 42
1, 7104, Note_on_c, 42
1, 7105, Note_off_c, 42
1, 7152, Note_on_c, 42
1, 7152, Note_on_c, 36
1, 7153, Note_off_c, 36
1, 7153, Note_off_c, 42
1, 7200, Note_on_c, 42
1, 7200, Note_on_c, 38
1, 7201, Note_off_c, 38
1, 7201, Note_off_c, 42
1, 7201, Note_on_c, 39
1, 7202, Note_off_c, 39
1, 7207, Note_on_c, 39
1, 7208, Note_off_c, 39
1, 7246, Note_on_c, 39
1, 7247, Note_on_c, 70
1, 7248, Note_on_c, 42
1, 7248, Note_on_c, 27
1, 7248, Note_on_c, 39
1, 7248, Note_on_c, 39
1, 7248, Note_on_c, 75
1, 7249, Note_off_c, 42
1, 7249, Note_off_c, 70
1, 7251, Note_off_c, 75
1, 7272, Note_on_c, 70
1, 7273, Note_on_c, 60
1, 7275, Note_off_c, 70
1, 7276, Note_off_c, 60
1, 7296, Note_on_c, 42
1, 7296, Note_on_c, 36
1, 7296, Note_on_c, 75
1, 7297, Note_off_c, 36
1, 7297, Note_off_c, 42
1, 7297, Note_on_c, 60
1, 7299, Note_off_c, 75
1, 7300, Note_off_c, 60
1, 7320, Note_on_c, 70
1, 7321, Note_on_c, 55
1, 7323, Note_off_c, 70
1, 7324, Note_off_c, 55
1, 7341, Note_off_c, 39
1, 7342, Note_on_c, 42
1, 7343, Note_off_c, 39
1, 7343, Note_off_c, 39
1, 7343, Note_off_c, 27
1, 7343, Note_on_c, 68
1, 7344, Note_on_c, 42
1, 7344, Note_on_c, 30
1, 7344, Note_on_c, 42
1, 7344, Note_on_c, 42
1, 7344, Note_on_c, 60
1, 7345, Note_off_c, 42
1, 7346, Note_off_c, 68
1, 7347, Note_off_c, 60
1, 7367, Note_on_c, 61
1, 7369, Note_on_c, 56
1, 7370, Note_off_c, 61
1, 7372, Note_off_c, 56
1, 7389, Note_off_c, 42
1, 7390, Note_on_c, 46
1, 7391, Note_off_c, 42
1, 7391, Note_off_c, 42
1, 7391, Note_off_c, 30
1, 7391, Note_on_c, 66
1, 7392, Note_on_c, 42
1, 7392, Note_on_c, 38
1, 7392, Note_on_c, 34
1, 7392, Note_on_c, 46
1, 7392, Note_on_c, 46
1, 7393, Note_off_c, 38
1, 7393, Note_off_c, 42
1, 7393, Note_on_c, 61
1, 7434, Note_off_c, 66
1, 7436, Note_off_c, 61
1, 7437, Note_off_c, 46
1, 7438, Note_on_c, 54
1, 7439, Note_off_c, 46
1, 7439, Note_off_c, 34
1, 7439, Note_off_c, 46
1, 7440, Note_on_c, 42
1, 7440, Note_on_c, 42
1, 7440, Note_on_c, 54
1, 7440, Note_on_c, 54
1, 7440, Note_on_c, 56
1, 7441, Note_off_c, 42
1, 7441, Note_on_c, 61
1, 7443, Note_off_c, 56
1, 7444, Note_off_c, 61
1, 7463, Note_on_c, 61
1, 7464, Note_on_c, 56
1, 7466, Note_off_c, 61
1, 7467, Note_off_c, 56
1, 7485, Note_off_c, 54
1, 7486, Note_on_c, 51
1, 7487, Note_off_c, 42
1, 7487, Note_off_c, 54
1, 7487, Note_off_c, 54
1, 7487, Note_on_c, 66
1, 7488, Note_on_c, 42
1, 7488, Note_on_c, 36
1, 7488, Note_on_c, 39
1, 7488, Note_on_c, 51
1, 7488, Note_on_c, 51
1, 7489, Note_off_c, 36
1, 7489, Note_off_c, 42
1, 7489, Note_on_c, 61
1, 7530, Note_off_c, 66
1, 7532, Note_off_c, 61
1, 7535, Note_on_c, 63
1, 7536, Note_on_c, 42
1, 7537, Note_off_c, 42
1, 7537, Note_on_c, 58
1, 7584, Note_on_c, 42
1, 7584, Note_on_c, 38
1, 7585, Note_off_c, 38
1, 7585, Note_off_c, 42
1, 7585, Note_on_c, 39
1, 7586, Note_off_c, 39
1, 7591, Note_on_c, 39
1, 7592, Note_off_c, 39
1, 7626, Note_off_c, 63
1, 7627, Note_off_c, 51
1, 7628, Note_off_c, 58
1, 7629, Note_off_c, 51
1, 7629, Note_off_c, 39
1, 7629, Note_off_c, 51
1, 7629, Note_on_c, 51
1, 7631, Note_on_c, 39
1, 7631, Note_on_c, 51
1, 7631, Note_on_c, 51
1, 7631, Note_on_c, 63
1, 7632, Note_on_c, 42
1, 7633, Note_off_c, 42
1, 7633, Note_on_c, 58
1, 7634, Note_off_c, 63
1, 7636, Note_off_c, 58
1, 7655, Note_on_c, 63
1, 7656, Note_on_c, 58
1, 7658, Note_off_c, 63
1, 7659, Note_off_c, 58
1, 7680, Note_on_c, 42
1, 7680, Note_on_c, 36
1, 7680, Note_on_c, 70
1, 7681, Note_off_c, 36
1, 7681, Note_off_c, 42
1, 7681, Note_on_c, 61
1, 7720, Note_off_c, 51
1, 7722, Note_off_c, 51
1, 7723, Note_off_c, 70
1, 7724, Note_off_c, 61
1, 7725, Note_off_c, 39
1, 7725, Note_off_c, 51
1, 7726, Note_on_c, 51
1, 7728, Note_on_c, 42
1, 7728, Note_on_c, 39
1, 7728, Note_on_c, 51
1, 7728, Note_on_c, 51
1, 7728, Note_on_c, 56
1, 7729, Note_off_c, 42
1, 7729, Note_on_c, 61
1, 7731, Note_off_c, 56
1, 7732, Note_off_c, 61
1, 7751, Note_on_c, 61
1, 7752, Note_on_c, 56
1, 7754, Note_off_c, 61
1, 7755, Note_off_c, 56
1, 7771, Note_off_c, 51
1, 7773, Note_off_c, 39
1, 7773, Note_off_c, 51
1, 7773, Note_off_c, 51
1, 7774, Note_on_c, 49
1, 7776, Note_on_c, 42
1, 7776, Note_on_c, 38
1, 7776, Note_on_c, 36
1, 7776, Note_on_c, 37
1, 7776, Note_on_c, 49
1, 7776, Note_on_c, 49
1, 7776, Note_on_c, 61
1, 7777, Note_off_c, 36
1, 7777, Note_off_c, 38
1, 7777, Note_off_c, 42
1, 7777, Note_on_c, 65
1, 7812, Note_off_c, 49
1, 7814, Note_off_c, 37
1, 7814, Note_off_c, 49
1, 7814, Note_off_c, 49
1, 7819, Note_off_c, 61
1, 7820, Note_off_c, 65
1, 7823, Note_on_c, 61
1, 7824, Note_on_c, 42
1, 7825, Note_off_c, 42
1, 7825, Note_on_c, 56
1, 7870, Note_on_c, 49
1, 7872, Note_on_c, 42
1, 7872, Note_on_c, 37
1, 7872, Note_on_c, 49
1, 7872, Note_on_c, 49
1, 7873, Note_off_c, 42
1, 7907, Note_off_c, 37
1, 7907, Note_off_c, 49
1, 7910, Note_off_c, 49
1, 7912, Note_off_c, 49
1, 7920, Note_on_c, 42
1, 7920, Note_on_c, 36
1, 7921, Note_off_c, 36
1, 7921, Note_off_c, 42
1, 7938, Note_off_c, 61
1, 7939, Note_off_c, 56
1, 7940, Note_on_c, 60
1, 7940, Note_on_c, 55
1, 7948, Note_off_c, 55
1, 7948, Note_off_c, 60
1, 7948, Note_on_c, 54
1, 7948, Note_on_c, 59
1, 7956, Note_off_c, 59
1, 7956, Note_off_c, 54
1, 7956, Note_on_c, 53
1, 7956, Note_on_c, 58
1, 7964, Note_off_c, 58
1, 7964, Note_off_c, 53
1, 7964, Note_on_c, 52
1, 7964, Note_on_c, 57
1, 7968, Note_on_c, 42
1, 7968, Note_on_c, 38
1, 7969, Note_off_c, 38
1, 7969, Note_off_c, 42
1, 7969, Note_on_c, 39
1, 7970, Note_off_c, 39
1, 7972, Note_off_c, 57
1, 7972, Note_off_c, 52
1, 7972, Note_on_c, 51
1, 7972, Note_on_c, 56
1, 7975, Note_on_c, 39
1, 7976, Note_off_c, 39
1, 7980, Note_off_c, 56
1, 7980, Note_off_c, 51
1, 7980, Note_on_c, 50
1, 7980, Note_on_c, 55
1, 7988, Note_off_c, 55
1, 7988, Note_off_c, 50
1, 7988, Note_on_c, 54
1, 7988, Note_on_c, 49
1, 7996, Note_off_c, 49
1, 7996, Note_off_c, 54
1, 7996, Note_on_c, 48
1, 7996, Note_on_c, 53
1, 8004, Note_off_c, 53
1, 8004, Note_off_c, 48
1, 8004, Note_on_c, 52
1, 8004, Note_on_c, 47
1, 8012, Note_off_c, 47
1, 8012, Note_off_c, 52
1, 8012, Note_on_c, 46
1, 8012, Note_on_c, 51
1, 8014, Note_on_c, 39
1, 8016, Note_on_c, 42
1, 8016, Note_on_c, 27
1, 8016, Note_on_c, 39
1, 8016, Note_on_c, 39
1, 8017, Note_off_c, 42
1, 8020, Note_off_c, 51
1, 8020, Note_off_c, 46
1, 8020, Note_on_c, 45
1, 8020, Note_on_c, 50
1, 8028, Note_off_c, 50
1, 8028, Note_off_c, 45
1, 8028, Note_on_c, 44
1, 8028, Note_on_c, 49
1, 8036, Note_off_c, 49
1, 8036, Note_off_c, 44
1, 8036, Note_on_c, 43
1, 8036, Note_on_c, 48
1, 8044, Note_off_c, 48
1, 8044, Note_off_c, 43
1, 8044, Note_on_c, 42
1, 8044, Note_on_c, 47
1, 8052, Note_off_c, 47
1, 8052, Note_off_c, 42
1, 8052, Note_on_c, 41
1, 8052, Note_on_c, 46
1, 8060, Note_off_c, 46
1, 8060, Note_off_c, 41
1, 8060, Note_on_c, 45
1, 8060, Note_on_c, 40
1, 8064, Note_on_c, 42
1, 8064, Note_on_c, 36
1, 8064, Note_on_c, 61
1, 8065, Note_off_c, 36
1, 8065, Note_off_c, 42
1, 8065, Note_on_c, 56
1, 8067, Note_off_c, 61
1, 8068, Note_off_c, 56
1, 8068, Note_off_c, 40
1, 8068, Note_off_c, 45
1, 8089, Note_on_c, 56
1, 8090, Note_off_c, 56
1, 8108, Note_off_c, 39
1, 8110, Note_off_c, 39
1, 8110, Note_off_c, 39
1, 8110, Note_off_c, 27
1, 8110, Note_on_c, 42
1, 8111, Note_on_c, 61
1, 8112, Note_on_c, 42
1, 8112, Note_on_c, 30
1, 8112, Note_on_c, 42
1, 8112, Note_on_c, 42
1, 8112, Note_on_c, 56
1, 8113, Note_off_c, 42
1, 8114, Note_off_c, 61
1, 8115, Note_off_c, 56
1, 8135, Note_on_c, 61
1, 8137, Note_on_c, 56
1, 8138, Note_off_c, 61
1, 8140, Note_off_c, 56
1, 8156, Note_off_c, 42
1, 8158, Note_off_c, 42
1, 8158, Note_off_c, 42
1, 8158, Note_off_c, 30
1, 8158, Note_on_c, 46
1, 8159, Note_on_c, 66
1, 8160, Note_on_c, 42
1, 8160, Note_on_c, 38
1, 8160, Note_on_c, 34
1, 8160, Note_on_c, 46
1, 8160, Note_on_c, 46
1, 8161, Note_off_c, 38
1, 8161, Note_off_c, 42
1, 8161, Note_on_c, 61
1, 8202, Note_off_c, 66
1, 8204, Note_off_c, 61
1, 8204, Note_off_c, 46
1, 8206, Note_off_c, 46
1, 8206, Note_off_c, 34
1, 8206, Note_off_c, 46
1, 8206, Note_on_c, 54
1, 8208, Note_on_c, 42
1, 8208, Note_on_c, 42
1, 8208, Note_on_c, 54
1, 8208, Note_on_c, 54
1, 8208, Note_on_c, 56
1, 8209, Note_off_c, 42
1, 8209, Note_on_c, 61
1, 8211, Note_off_c, 56
1, 8212, Note_off_c, 61
1, 8231, Note_on_c, 61
1, 8232, Note_on_c, 56
1, 8234, Note_off_c, 61
1, 8235, Note_off_c, 56
1, 8252, Note_off_c, 54
1, 8254, Note_off_c, 42
1, 8254, Note_off_c, 54
1, 8254, Note_off_c, 54
1, 8254, Note_on_c, 51
1, 8255, Note_on_c, 66
1, 8256, Note_on_c, 42
1, 8256, Note_on_c, 36
1, 8256, Note_on_c, 39
1, 8256, Note_on_c, 51
1, 8256, Note_on_c, 51
1, 8257, Note_off_c, 36
1, 8257, Note_off_c, 42
1, 8257, Note_on_c, 61
1, 8298, Note_off_c, 66
1, 8300, Note_off_c, 61
1, 8303, Note_on_c, 63
1, 8304, Note_on_c, 42
1, 8305, Note_off_c, 42
1, 8305, Note_on_c, 58
1, 8352, Note_on_c, 42
1, 8352, Note_on_c, 38
1, 8353, Note_off_c, 38
1, 8353, Note_off_c, 42
1, 8353, Note_on_c, 39
1, 8354, Note_off_c, 39
1, 8359, Note_on_c, 39
1, 8360, Note_off_c, 39
1, 8394, Note_off_c, 63
1, 8395, Note_off_c, 51
1, 8396, Note_off_c, 58
1, 8397, Note_off_c, 51
1, 8397, Note_off_c, 39
1, 8397, Note_off_c, 51
1, 8397, Note_on_c, 51
1, 8399, Note_on_c, 39
1, 8399, Note_on_c, 51
1, 8399, Note_on_c, 51
1, 8399, Note_on_c, 63
1, 8400, Note_on_c, 42
1, 8401, Note_off_c, 42
1, 8401, Note_on_c, 58
1, 8402, Note_off_c, 63
1, 8404, Note_off_c, 58
1, 8423, Note_on_c, 63
1, 8424, Note_on_c, 58
1, 8426, Note_off_c, 63
1, 8427, Note_off_c, 58
1, 8448, Note_on_c, 42
1, 8448, Note_on_c, 36
1, 8448, Note_on_c, 70
1, 8449, Note_off_c, 36
1, 8449, Note_off_c, 42
1, 8449, Note_on_c, 61
1, 8491, Note_off_c, 70
1, 8492, Note_off_c, 61
1, 8492, Note_off_c, 51
1, 8494, Note_off_c, 51
1, 8494, Note_off_c, 39
1, 8494, Note_off_c, 51
1, 8494, Note_on_c, 51
1, 8496, Note_on_c, 42
1, 8496, Note_on_c, 39
1, 8496, Note_on_c, 51
1, 8496, Note_on_c, 51
1, 8496, Note_on_c, 56
1, 8497, Note_off_c, 42
1, 8497, Note_on_c, 61
1, 8499, Note_off_c, 56
1, 8500, Note_off_c, 61
1, 8519, Note_on_c, 61
1, 8520, Note_on_c, 56
1, 8522, Note_off_c, 61
1, 8523, Note_off_c, 56
1, 8536, Note_off_c, 51
1, 8538, Note_off_c, 39
1, 8538, Note_off_c, 51
1, 8538, Note_off_c, 51
1, 8542, Note_on_c, 49
1, 8544, Note_on_c, 42
1, 8544, Note_on_c, 38
1, 8544, Note_on_c, 36
1, 8544, Note_on_c, 37
1, 8544, Note_on_c, 49
1, 8544, Note_on_c, 49
1, 8544, Note_on_c, 61
1, 8545, Note_off_c, 36
1, 8545, Note_off_c, 38
1, 8545, Note_off_c, 42
1, 8545, Note_on_c, 65
1, 8582, Note_off_c, 37
1, 8582, Note_off_c, 49
1, 8583, Note_off_c, 49
1, 8585, Note_off_c, 49
1, 8587, Note_off_c, 61
1, 8588, Note_off_c, 65
1, 8591, Note_on_c, 61
1, 8592, Note_on_c, 42
1, 8593, Note_off_c, 42
1, 8593, Note_on_c, 56
1, 8640, Note_on_c, 42
1, 8641, Note_off_c, 42
1, 8688, Note_on_c, 42
1, 8688, Note_on_c, 36
1, 8689, Note_off_c, 36
1, 8689, Note_off_c, 42
1, 8706, Note_off_c, 61
1, 8707, Note_off_c, 56
1, 8708, Note_on_c, 60
1, 8708, Note_on_c, 55
1, 8716, Note_off_c, 55
1, 8716, Note_off_c, 60
1, 8716, Note_on_c, 54
1, 8716, Note_on_c, 59
1, 8724, Note_off_c, 59
1, 8724, Note_off_c, 54
1, 8724, Note_on_c, 53
1, 8724, Note_on_c, 58
1, 8732, Note_off_c, 58
1, 8732, Note_off_c, 53
1, 8732, Note_on_c, 52
1, 8732, Note_on_c, 57
1, 8736, Note_on_c, 42
1, 8736, Note_on_c, 38
1, 8737, Note_off_c, 38
1, 8737, Note_off_c, 42
1, 8737, Note_on_c, 39
1, 8738, Note_off_c, 39
1, 8740, Note_off_c, 57
1, 8740, Note_off_c, 52
1, 8740, Note_on_c, 51
1, 8740, Note_on_c, 56
1, 8743, Note_on_c, 39
1, 8744, Note_off_c, 39
1, 8748, Note_off_c, 56
1, 8748, Note_off_c, 51
1, 8748, Note_on_c, 50
1, 8748, Note_on_c, 55
1, 8756, Note_off_c, 55
1, 8756, Note_off_c, 50
1, 8756, Note_on_c, 54
1, 8756, Note_on_c, 49
1, 8764, Note_off_c, 49
1, 8764, Note_off_c, 54
1, 8764, Note_on_c, 48
1, 8764, Note_on_c, 53
1, 8772, Note_off_c, 53
1, 8772, Note_off_c, 48
1, 8772, Note_on_c, 52
1, 8772, Note_on_c, 47
1, 8780, Note_off_c, 47
1, 8780, Note_off_c, 52
1, 8780, Note_on_c, 46
1, 8780, Note_on_c, 51
1, 8784, Note_on_c, 42
1, 8785, Note_off_c, 42
1, 8788, Note_off_c, 51
1, 8788, Note_off_c, 46
1, 8788, Note_on_c, 45
1, 8788, Note_on_c, 50
1, 8796, Note_off_c, 50
1, 8796, Note_off_c, 45
1, 8796, Note_on_c, 44
1, 8796, Note_on_c, 49
1, 8804, Note_off_c, 49
1, 8804, Note_off_c, 44
1, 8804, Note_on_c, 43
1, 8804, Note_on_c, 48
1, 8812, Note_off_c, 48
1, 8812, Note_off_c, 43
1, 8812, Note_on_c, 42
1, 8812, Note_on_c, 47
1, 8820, Note_off_c, 47
1, 8820, Note_off_c, 42
1, 8832, Note_on_c, 57
1, 8832, Note_on_c, 36
1, 8832, Note_on_c, 63
1, 8832, Note_on_c, 66
1, 8832, Note_on_c, 58
1, 8832, Note_on_c, 39
1, 8833, Note_off_c, 39
1, 8833, Note_off_c, 36
1, 8833, Note_off_c, 57
1, 8880, Note_on_c, 42
1, 8880, Note_on_c, 39
1, 8880, Note_on_c, 63
1, 8880, Note_on_c, 51
1, 8880, Note_on_c, 58
1, 8881, Note_off_c, 42
1, 8882, Note_on_c, 70
1, 8902, Note_off_c, 70
1, 8915, Note_off_c, 39
1, 8920, Note_off_c, 63
1, 8920, Note_off_c, 51
1, 8920, Note_off_c, 58
1, 8928, Note_on_c, 42
1, 8928, Note_on_c, 38
1, 8928, Note_on_c, 39
1, 8928, Note_on_c, 63
1, 8928, Note_on_c, 58
1, 8928, Note_on_c, 51
1, 8929, Note_off_c, 38
1, 8929, Note_off_c, 42
1, 8930, Note_on_c, 68
1, 8963, Note_off_c, 39
1, 8963, Note_off_c, 68
1, 8968, Note_off_c, 63
1, 8968, Note_off_c, 51
1, 8968, Note_off_c, 58
1, 8976, Note_on_c, 42
1, 8977, Note_off_c, 42
1, 8978, Note_on_c, 70
1, 9002, Note_off_c, 70
1, 9024, Note_on_c, 42
1, 9024, Note_on_c, 36
1, 9024, Note_on_c, 39
1, 9024, Note_on_c, 63
1, 9024, Note_on_c, 58
1, 9024, Note_on_c, 51
1, 9025, Note_off_c, 36
1, 9025, Note_off_c, 42
1, 9027, Note_on_c, 70
1, 9047, Note_off_c, 70
1, 9059, Note_off_c, 39
1, 9064, Note_off_c, 63
1, 9064, Note_off_c, 51
1, 9064, Note_off_c, 58
1, 9072, Note_on_c, 42
1, 9073, Note_off_c, 42
1, 9075, Note_on_c, 70
1, 9098, Note_off_c, 70
1, 9120, Note_on_c, 42
1, 9120, Note_on_c, 38
1, 9121, Note_off_c, 38
1, 9121, Note_off_c, 42
1, 9121, Note_on_c, 39
1, 9122, Note_off_c, 39
1, 9123, Note_on_c, 68
1, 9127, Note_on_c, 39
1, 9128, Note_off_c, 39
1, 9161, Note_off_c, 68
1, 9168, Note_on_c, 42
1, 9168, Note_on_c, 37
1, 9168, Note_on_c, 61
1, 9168, Note_on_c, 56
1, 9168, Note_on_c, 49
1, 9169, Note_off_c, 42
1, 9172, Note_on_c, 70
1, 9194, Note_off_c, 70
1, 9203, Note_off_c, 37
1, 9208, Note_off_c, 61
1, 9208, Note_off_c, 56
1, 9208, Note_off_c, 49
1, 9212, Note_off_c, 63
1, 9212, Note_off_c, 58
1, 9212, Note_off_c, 66
1, 9216, Note_on_c, 42
1, 9216, Note_on_c, 36
1, 9216, Note_on_c, 37
1, 9216, Note_on_c, 61
1, 9216, Note_on_c, 56
1, 9216, Note_on_c, 65
1, 9216, Note_on_c, 61
1, 9216, Note_on_c, 56
1, 9216, Note_on_c, 49
1, 9217, Note_off_c, 36
1, 9217, Note_off_c, 42
1, 9218, Note_on_c, 71
1, 9247, Note_off_c, 71
1, 9254, Note_off_c, 37
1, 9256, Note_off_c, 61
1, 9256, Note_off_c, 49
1, 9256, Note_off_c, 56
1, 9264, Note_on_c, 42
1, 9265, Note_off_c, 42
1, 9269, Note_on_c, 70
1, 9297, Note_off_c, 70
1, 9312, Note_on_c, 42
1, 9312, Note_on_c, 38
1, 9312, Note_on_c, 36
1, 9312, Note_on_c, 37
1, 9312, Note_on_c, 61
1, 9312, Note_on_c, 56
1, 9312, Note_on_c, 49
1, 9313, Note_off_c, 36
1, 9313, Note_off_c, 38
1, 9313, Note_off_c, 42
1, 9317, Note_on_c, 68
1, 9347, Note_off_c, 37
1, 9352, Note_off_c, 49
1, 9352, Note_off_c, 56
1, 9352, Note_off_c, 61
1, 9353, Note_off_c, 68
1, 9360, Note_on_c, 42
1, 9361, Note_off_c, 42
1, 9408, Note_on_c, 42
1, 9409, Note_off_c, 42
1, 9410, Note_on_c, 68
1, 9456, Note_on_c, 42
1, 9456, Note_on_c, 36
1, 9457, Note_off_c, 36
1, 9457, Note_off_c, 42
1, 9465, Note_off_c, 68
1, 9504, Note_on_c, 42
1, 9504, Note_on_c, 38
1, 9505, Note_off_c, 38
1, 9505, Note_off_c, 42
1, 9505, Note_on_c, 39
1, 9506, Note_off_c, 39
1, 9511, Note_on_c, 39
1, 9512, Note_off_c, 39
1, 9552, Note_on_c, 42
1, 9553, Note_off_c, 42
1, 9556, Note_on_c, 70
1, 9570, Note_off_c, 70
1, 9596, Note_off_c, 65
1, 9596, Note_off_c, 56
1, 9596, Note_off_c, 61
1, 9600, Note_on_c, 42
1, 9600, Note_on_c, 36
1, 9600, Note_on_c, 63
1, 9600, Note_on_c, 66
1, 9600, Note_on_c, 58
1, 9601, Note_off_c, 36
1, 9601, Note_off_c, 42
1, 9602, Note_on_c, 68
1, 9635, Note_off_c, 68
1, 9648, Note_on_c, 42
1, 9648, Note_on_c, 39
1, 9648, Note_on_c, 63
1, 9648, Note_on_c, 58
1, 9648, Note_on_c, 51
1, 9649, Note_off_c, 42
1, 9652, Note_on_c, 70
1, 9673, Note_off_c, 70
1, 9683, Note_off_c, 39
1, 9688, Note_off_c, 63
1, 9688, Note_off_c, 58
1, 9688, Note_off_c, 51
1, 9696, Note_on_c, 42
1, 9696, Note_on_c, 38
1, 9696, Note_on_c, 39
1, 9696, Note_on_c, 63
1, 9696, Note_on_c, 51
1, 9696, Note_on_c, 58
1, 9697, Note_off_c, 38
1, 9697, Note_off_c, 42
1, 9698, Note_on_c, 70
1, 9718, Note_off_c, 70
1, 9736, Note_off_c, 63
1, 9736, Note_off_c, 39
1, 9736, Note_off_c, 58
1, 9736, Note_off_c, 51
1, 9744, Note_on_c, 42
1, 9745, Note_off_c, 42
1, 9747, Note_on_c, 70
1, 9769, Note_off_c, 70
1, 9792, Note_on_c, 42
1, 9792, Note_on_c, 36
1, 9792, Note_on_c, 39
1, 9792, Note_on_c, 63
1, 9792, Note_on_c, 58
1, 9792, Note_on_c, 51
1, 9793, Note_off_c, 36
1, 9793, Note_off_c, 42
1, 9795, Note_on_c, 68
1, 9827, Note_off_c, 68
1, 9832, Note_off_c, 63
1, 9832, Note_off_c, 51
1, 9832, Note_off_c, 58
1, 9834, Note_off_c, 39
1, 9840, Note_on_c, 42
1, 9841, Note_off_c, 42
1, 9844, Note_on_c, 70
1, 9869, Note_off_c, 70
1, 9888, Note_on_c, 42
1, 9888, Note_on_c, 38
1, 9889, Note_off_c, 38
1, 9889, Note_off_c, 42
1, 9889, Note_on_c, 39
1, 9890, Note_off_c, 39
1, 9892, Note_on_c, 68
1, 9895, Note_on_c, 39
1, 9896, Note_off_c, 39
1, 9927, Note_off_c, 68
1, 9936, Note_on_c, 42
1, 9936, Note_on_c, 37
1, 9936, Note_on_c, 61
1, 9936, Note_on_c, 56
1, 9936, Note_on_c, 49
1, 9937, Note_off_c, 42
1, 9939, Note_on_c, 66
1, 9966, Note_off_c, 66
1, 9971, Note_off_c, 37
1, 9976, Note_off_c, 61
1, 9976, Note_off_c, 56
1, 9976, Note_off_c, 49
1, 9980, Note_off_c, 63
1, 9980, Note_off_c, 58
1, 9980, Note_off_c, 66
1, 9984, Note_on_c, 42
1, 9984, Note_on_c, 36
1, 9984, Note_on_c, 37
1, 9984, Note_on_c, 56
1, 9984, Note_on_c, 61
1, 9984, Note_on_c, 65
1, 9984, Note_on_c, 61
1, 9984, Note_on_c, 49
1, 9984, Note_on_c, 56
1, 9985, Note_off_c, 36
1, 9985, Note_off_c, 42
1, 9988, Note_on_c, 68
1, 10021, Note_off_c, 68
1, 10024, Note_off_c, 61
1, 10024, Note_off_c, 37
1, 10024, Note_off_c, 56
1, 10024, Note_off_c, 49
1, 10032, Note_on_c, 42
1, 10033, Note_off_c, 42
1, 10035, Note_on_c, 66
1, 10057, Note_off_c, 66
1, 10080, Note_on_c, 42
1, 10080, Note_on_c, 38
1, 10080, Note_on_c, 36
1, 10080, Note_on_c, 37
1, 10080, Note_on_c, 61
1, 10080, Note_on_c, 56
1, 10080, Note_on_c, 49
1, 10081, Note_off_c, 36
1, 10081, Note_off_c, 38
1, 10081, Note_off_c, 42
1, 10084, Note_on_c, 68
1, 10120, Note_off_c, 49
1, 10120, Note_off_c, 56
1, 10120, Note_off_c, 61
1, 10122, Note_off_c, 37
1, 10128, Note_on_c, 42
1, 10129, Note_off_c, 42
1, 10147, Note_off_c, 68
1, 10176, Note_on_c, 42
1, 10177, Note_off_c, 42
1, 10224, Note_on_c, 42
1, 10224, Note_on_c, 36
1, 10225, Note_off_c, 36
1, 10225, Note_off_c, 42
1, 10272, Note_on_c, 42
1, 10272, Note_on_c, 38
1, 10273, Note_off_c, 38
1, 10273, Note_off_c, 42
1, 10273, Note_on_c, 39
1, 10274, Note_off_c, 39
1, 10279, Note_on_c, 39
1, 10280, Note_off_c, 39
1, 10320, Note_on_c, 42
1, 10321, Note_off_c, 42
1, 10321, Note_on_c, 70
1, 10336, Note_off_c, 70
1, 10364, Note_off_c, 65
1, 10364, Note_off_c, 61
1, 10364, Note_off_c, 56
1, 10368, Note_on_c, 42
1, 10368, Note_on_c, 36
1, 10368, Note_on_c, 54
1, 10368, Note_on_c, 63
1, 10368, Note_on_c, 59
1, 10369, Note_off_c, 36
1, 10369, Note_off_c, 42
1, 10370, Note_on_c, 68
1, 10409, Note_off_c, 68
1, 10416, Note_on_c, 42
1, 10416, Note_on_c, 35
1, 10416, Note_on_c, 59
1, 10416, Note_on_c, 54
1, 10416, Note_on_c, 47
1, 10417, Note_off_c, 42
1, 10418, Note_on_c, 66
1, 10451, Note_off_c, 35
1, 10455, Note_off_c, 66
1, 10456, Note_off_c, 59
1, 10456, Note_off_c, 54
1, 10456, Note_off_c, 47
1, 10464, Note_on_c, 42
1, 10464, Note_on_c, 38
1, 10464, Note_on_c, 35
1, 10464, Note_on_c, 59
1, 10464, Note_on_c, 47
1, 10464, Note_on_c, 54
1, 10465, Note_off_c, 38
1, 10465, Note_off_c, 42
1, 10466, Note_on_c, 63
1, 10499, Note_off_c, 35
1, 10504, Note_off_c, 59
1, 10504, Note_off_c, 54
1, 10504, Note_off_c, 47
1, 10512, Note_off_c, 63
1, 10512, Note_on_c, 42
1, 10513, Note_off_c, 42
1, 10514, Note_on_c, 61
1, 10523, Note_off_c, 61
1, 10560, Note_on_c, 42
1, 10560, Note_on_c, 36
1, 10560, Note_on_c, 35
1, 10560, Note_on_c, 59
1, 10560, Note_on_c, 54
1, 10560, Note_on_c, 47
1, 10561, Note_off_c, 36
1, 10561, Note_off_c, 42
1, 10562, Note_on_c, 63
1, 10595, Note_off_c, 35
1, 10600, Note_off_c, 59
1, 10600, Note_off_c, 47
1, 10600, Note_off_c, 54
1, 10608, Note_on_c, 42
1, 10609, Note_off_c, 42
1, 10645, Note_off_c, 63
1, 10656, Note_on_c, 42
1, 10656, Note_on_c, 38
1, 10657, Note_off_c, 38
1, 10657, Note_off_c, 42
1, 10657, Note_on_c, 39
1, 10658, Note_off_c, 39
1, 10659, Note_on_c, 61
1, 10663, Note_on_c, 39
1, 10664, Note_off_c, 39
1, 10679, Note_off_c, 61
1, 10704, Note_on_c, 42
1, 10704, Note_on_c, 37
1, 10704, Note_on_c, 61
1, 10704, Note_on_c, 49
1, 10704, Note_on_c, 56
1, 10705, Note_off_c, 42
1, 10707, Note_on_c, 63
1, 10722, Note_off_c, 63
1, 10739, Note_off_c, 37
1, 10744, Note_off_c, 61
1, 10744, Note_off_c, 49
1, 10744, Note_off_c, 56
1, 10748, Note_off_c, 54
1, 10748, Note_off_c, 59
1, 10748, Note_off_c, 63
1, 10752, Note_on_c, 42
1, 10752, Note_on_c, 36
1, 10752, Note_on_c, 37
1, 10752, Note_on_c, 61
1, 10752, Note_on_c, 56
1, 10752, Note_on_c, 65
1, 10752, Note_on_c, 61
1, 10752, Note_on_c, 49
1, 10752, Note_on_c, 56
1, 10753, Note_off_c, 36
1, 10753, Note_off_c, 42
1, 10754, Note_on_c, 65
1, 10792, Note_off_c, 61
1, 10792, Note_off_c, 37
1, 10792, Note_off_c, 56
1, 10792, Note_off_c, 49
1, 10796, Note_off_c, 65
1, 10800, Note_on_c, 42
1, 10801, Note_off_c, 42
1, 10803, Note_on_c, 63
1, 10827, Note_off_c, 63
1, 10848, Note_on_c, 42
1, 10848, Note_on_c, 38
1, 10848, Note_on_c, 36
1, 10848, Note_on_c, 37
1, 10848, Note_on_c, 61
1, 10848, Note_on_c, 56
1, 10848, Note_on_c, 49
1, 10849, Note_off_c, 36
1, 10849, Note_off_c, 38
1, 10849, Note_off_c, 42
1, 10849, Note_on_c, 61
1, 10868, Note_off_c, 61
1, 10883, Note_off_c, 37
1, 10888, Note_off_c, 49
1, 10888, Note_off_c, 56
1, 10888, Note_off_c, 61
1, 10896, Note_on_c, 42
1, 10897, Note_off_c, 42
1, 10898, Note_on_c, 58
1, 10910, Note_off_c, 58
1, 10944, Note_on_c, 42
1, 10945, Note_off_c, 42
1, 10947, Note_on_c, 61
1, 10992, Note_on_c, 42
1, 10992, Note_on_c, 36
1, 10993, Note_off_c, 36
1, 10993, Note_off_c, 42
1, 11021, Note_off_c, 61
1, 11038, Note_on_c, 63
1, 11040, Note_on_c, 42
1, 11040, Note_on_c, 38
1, 11041, Note_off_c, 38
1, 11041, Note_off_c, 42
1, 11041, Note_on_c, 63
1, 11041, Note_on_c, 39
1, 11042, Note_off_c, 39
1, 11042, Note_on_c, 63
1, 11047, Note_on_c, 39
1, 11048, Note_off_c, 39
1, 11052, Note_off_c, 63
1, 11060, Note_off_c, 63
1, 11063, Note_off_c, 63
1, 11088, Note_on_c, 42
1, 11089, Note_off_c, 42
1, 11090, Note_on_c, 63
1, 11101, Note_off_c, 63
1, 11132, Note_off_c, 65
1, 11132, Note_off_c, 56
1, 11132, Note_off_c, 61
1, 11135, Note_on_c, 66
1, 11136, Note_on_c, 42
1, 11136, Note_on_c, 36
1, 11136, Note_on_c, 63
1, 11136, Note_on_c, 66
1, 11136, Note_on_c, 58
1, 11137, Note_off_c, 36
1, 11137, Note_off_c, 42
1, 11137, Note_on_c, 66
1, 11138, Note_on_c, 66
1, 11182, Note_off_c, 66
1, 11184, Note_on_c, 42
1, 11184, Note_on_c, 39
1, 11184, Note_on_c, 63
1, 11184, Note_on_c, 58
1, 11184, Note_on_c, 51
1, 11185, Note_off_c, 42
1, 11185, Note_off_c, 66
1, 11185, Note_on_c, 63
1, 11186, Note_off_c, 66
1, 11186, Note_on_c, 63
1, 11187, Note_on_c, 63
1, 11197, Note_off_c, 63
1, 11198, Note_off_c, 63
1, 11200, Note_off_c, 63
1, 11219, Note_off_c, 39
1, 11224, Note_off_c, 63
1, 11224, Note_off_c, 58
1, 11224, Note_off_c, 51
1, 11232, Note_on_c, 42
1, 11232, Note_on_c, 38
1, 11232, Note_on_c, 39
1, 11232, Note_on_c, 63
1, 11232, Note_on_c, 58
1, 11232, Note_on_c, 51
1, 11233, Note_off_c, 38
1, 11233, Note_off_c, 42
1, 11272, Note_off_c, 63
1, 11272, Note_off_c, 39
1, 11272, Note_off_c, 51
1, 11272, Note_off_c, 58
1, 11280, Note_on_c, 42
1, 11281, Note_off_c, 42
1, 11328, Note_on_c, 42
1, 11328, Note_on_c, 36
1, 11328, Note_on_c, 39
1, 11328, Note_on_c, 63
1, 11328, Note_on_c, 58
1, 11328, Note_on_c, 51
1, 11329, Note_off_c, 36
1, 11329, Note_off_c, 42
1, 11368, Note_off_c, 63
1, 11368, Note_off_c, 51
1, 11368, Note_off_c, 58
1, 11370, Note_off_c, 39
1, 11376, Note_on_c, 42
1, 11377, Note_off_c, 42
1, 11423, Note_on_c, 63
1, 11424, Note_on_c, 42
1, 11424, Note_on_c, 38
1, 11425, Note_off_c, 38
1, 11425, Note_off_c, 42
1, 11425, Note_on_c, 63
1, 11425, Note_on_c, 39
1, 11426, Note_off_c, 39
1, 11427, Note_on_c, 63
1, 11431, Note_on_c, 39
1, 11432, Note_off_c, 39
1, 11437, Note_off_c, 63
1, 11438, Note_off_c, 63
1, 11440, Note_off_c, 63
1, 11472, Note_on_c, 42
1, 11472, Note_on_c, 37
1, 11472, Note_on_c, 61
1, 11472, Note_on_c, 56
1, 11472, Note_on_c, 49
1, 11473, Note_off_c, 42
1, 11474, Note_on_c, 63
1, 11488, Note_off_c, 63
1, 11507, Note_off_c, 37
1, 11512, Note_off_c, 61
1, 11512, Note_off_c, 56
1, 11512, Note_off_c, 49
1, 11516, Note_off_c, 63
1, 11516, Note_off_c, 58
1, 11516, Note_off_c, 66
1, 11519, Note_on_c, 65
1, 11520, Note_on_c, 65
1, 11520, Note_on_c, 42
1, 11520, Note_on_c, 36
1, 11520, Note_on_c, 37
1, 11520, Note_on_c, 61
1, 11520, Note_on_c, 65
1, 11520, Note_on_c, 56
1, 11520, Note_on_c, 61
1, 11520, Note_on_c, 56
1, 11520, Note_on_c, 49
1, 11521, Note_off_c, 36
1, 11521, Note_off_c, 42
1, 11522, Note_on_c, 63
1, 11560, Note_off_c, 61
1, 11560, Note_off_c, 37
1, 11560, Note_off_c, 49
1, 11560, Note_off_c, 56
1, 11564, Note_off_c, 65
1, 11565, Note_off_c, 65
1, 11567, Note_off_c, 63
1, 11568, Note_on_c, 42
1, 11569, Note_off_c, 42
1, 11569, Note_on_c, 61
1, 11570, Note_on_c, 61
1, 11574, Note_on_c, 61
1, 11581, Note_off_c, 61
1, 11582, Note_off_c, 61
1, 11589, Note_off_c, 61
1, 11616, Note_on_c, 42
1, 11616, Note_on_c, 38
1, 11616, Note_on_c, 36
1, 11616, Note_on_c, 37
1, 11616, Note_on_c, 61
1, 11616, Note_on_c, 56
1, 11616, Note_on_c, 49
1, 11617, Note_off_c, 36
1, 11617, Note_off_c, 38
1, 11617, Note_off_c, 42
1, 11656, Note_off_c, 49
1, 11656, Note_off_c, 56
1, 11656, Note_off_c, 61
1, 11658, Note_off_c, 37
1, 11664, Note_on_c, 42
1, 11665, Note_off_c, 42
1, 11712, Note_on_c, 42
1, 11713, Note_off_c, 42
1, 11760, Note_on_c, 42
1, 11760, Note_on_c, 36
1, 11761, Note_off_c, 36
1, 11761, Note_off_c, 42
1, 11808, Note_on_c, 42
1, 11808, Note_on_c, 38
1, 11809, Note_off_c, 38
1, 11809, Note_off_c, 42
1, 11809, Note_on_c, 39
1, 11810, Note_off_c, 39
1, 11815, Note_on_c, 39
1, 11816, Note_off_c, 39
1, 11856, Note_on_c, 42
1, 11857, Note_off_c, 42
1, 11900, Note_off_c, 56
1, 11900, Note_off_c, 65
1, 11900, Note_off_c, 61
1, 11904, Note_on_c, 49
1, 11904, Note_on_c, 36
1, 11904, Note_on_c, 63
1, 11904, Note_on_c, 66
1, 11904, Note_on_c, 58
1, 11904, Note_on_c, 39
1, 11904, Note_on_c, 49
1, 11905, Note_off_c, 39
1, 11905, Note_off_c, 36
1, 11905, Note_off_c, 49
1, 11906, Note_off_c, 49
1, 11952, Note_on_c, 42
1, 11952, Note_on_c, 39
1, 11952, Note_on_c, 63
1, 11952, Note_on_c, 51
1, 11952, Note_on_c, 58
1, 11952, Note_on_c, 51
1, 11953, Note_off_c, 42
1, 11956, Note_on_c, 70
1, 11962, Note_off_c, 51
1, 11966, Note_off_c, 70
1, 11987, Note_off_c, 39
1, 11992, Note_off_c, 63
1, 11992, Note_off_c, 51
1, 11992, Note_off_c, 58
1, 12000, Note_on_c, 42
1, 12000, Note_on_c, 38
1, 12000, Note_on_c, 39
1, 12000, Note_on_c, 63
1, 12000, Note_on_c, 58
1, 12000, Note_on_c, 51
1, 12000, Note_on_c, 49
1, 12001, Note_off_c, 38
1, 12001, Note_off_c, 42
1, 12002, Note_on_c, 68
1, 12010, Note_off_c, 49
1, 12029, Note_off_c, 68
1, 12035, Note_off_c, 39
1, 12040, Note_off_c, 63
1, 12040, Note_off_c, 58
1, 12040, Note_off_c, 51
1, 12048, Note_on_c, 42
1, 12048, Note_on_c, 51
1, 12049, Note_off_c, 42
1, 12051, Note_on_c, 70
1, 12058, Note_off_c, 51
1, 12066, Note_off_c, 70
1, 12096, Note_on_c, 42
1, 12096, Note_on_c, 36
1, 12096, Note_on_c, 39
1, 12096, Note_on_c, 63
1, 12096, Note_on_c, 58
1, 12096, Note_on_c, 51
1, 12096, Note_on_c, 54
1, 12097, Note_off_c, 36
1, 12097, Note_off_c, 42
1, 12099, Note_on_c, 70
1, 12106, Note_off_c, 54
1, 12116, Note_off_c, 70
1, 12131, Note_off_c, 39
1, 12136, Note_off_c, 63
1, 12136, Note_off_c, 58
1, 12136, Note_off_c, 51
1, 12144, Note_on_c, 42
1, 12144, Note_on_c, 51
1, 12145, Note_off_c, 42
1, 12146, Note_on_c, 70
1, 12154, Note_off_c, 51
1, 12169, Note_off_c, 70
1, 12192, Note_on_c, 42
1, 12192, Note_on_c, 38
1, 12192, Note_on_c, 49
1, 12193, Note_off_c, 38
1, 12193, Note_off_c, 42
1, 12193, Note_on_c, 39
1, 12194, Note_off_c, 39
1, 12195, Note_on_c, 68
1, 12199, Note_on_c, 39
1, 12200, Note_off_c, 39
1, 12202, Note_off_c, 49
1, 12237, Note_off_c, 68
1, 12240, Note_on_c, 42
1, 12240, Note_on_c, 37
1, 12240, Note_on_c, 61
1, 12240, Note_on_c, 56
1, 12240, Note_on_c, 49
1, 12240, Note_on_c, 51
1, 12241, Note_off_c, 42
1, 12242, Note_on_c, 70
1, 12250, Note_off_c, 51
1, 12262, Note_off_c, 70
1, 12275, Note_off_c, 37
1, 12280, Note_off_c, 61
1, 12280, Note_off_c, 56
1, 12280, Note_off_c, 49
1, 12284, Note_off_c, 63
1, 12284, Note_off_c, 66
1, 12284, Note_off_c, 58
1, 12288, Note_on_c, 42
1, 12288, Note_on_c, 36
1, 12288, Note_on_c, 37
1, 12288, Note_on_c, 61
1, 12288, Note_on_c, 56
1, 12288, Note_on_c, 65
1, 12288, Note_on_c, 61
1, 12288, Note_on_c, 56
1, 12288, Note_on_c, 49
1, 12288, Note_on_c, 53
1, 12289, Note_off_c, 36
1, 12289, Note_off_c, 42
1, 12289, Note_on_c, 71
1, 12298, Note_off_c, 53
1, 12318, Note_off_c, 71
1, 12326, Note_off_c, 37
1, 12328, Note_off_c, 61
1, 12328, Note_off_c, 56
1, 12328, Note_off_c, 49
1, 12336, Note_on_c, 42
1, 12336, Note_on_c, 51
1, 12337, Note_off_c, 42
1, 12340, Note_on_c, 70
1, 12346, Note_off_c, 51
1, 12361, Note_off_c, 70
1, 12384, Note_on_c, 42
1, 12384, Note_on_c, 38
1, 12384, Note_on_c, 36
1, 12384, Note_on_c, 37
1, 12384, Note_on_c, 61
1, 12384, Note_on_c, 56
1, 12384, Note_on_c, 49
1, 12384, Note_on_c, 49
1, 12385, Note_off_c, 36
1, 12385, Note_off_c, 38
1, 12385, Note_off_c, 42
1, 12389, Note_on_c, 68
1, 12394, Note_off_c, 49
1, 12410, Note_off_c, 68
1, 12419, Note_off_c, 37
1, 12424, Note_off_c, 61
1, 12424, Note_off_c, 49
1, 12424, Note_off_c, 56
1, 12432, Note_on_c, 42
1, 12432, Note_on_c, 51
1, 12433, Note_off_c, 42
1, 12442, Note_off_c, 51
1, 12480, Note_on_c, 42
1, 12480, Note_on_c, 53
1, 12481, Note_off_c, 42
1, 12482, Note_on_c, 70
1, 12490, Note_off_c, 53
1, 12528, Note_on_c, 42
1, 12528, Note_on_c, 36
1, 12528, Note_on_c, 51
1, 12529, Note_off_c, 36
1, 12529, Note_off_c, 42
1, 12538, Note_off_c, 51
1, 12555, Note_off_c, 70
1, 12576, Note_on_c, 42
1, 12576, Note_on_c, 38
1, 12576, Note_on_c, 49
1, 12577, Note_off_c, 38
1, 12577, Note_off_c, 42
1, 12577, Note_on_c, 39
1, 12578, Note_off_c, 39
1, 12583, Note_on_c, 39
1, 12584, Note_off_c, 39
1, 12586, Note_off_c, 49
1, 12624, Note_on_c, 42
1, 12624, Note_on_c, 51
1, 12625, Note_off_c, 42
1, 12629, Note_on_c, 70
1, 12634, Note_off_c, 51
1, 12643, Note_off_c, 70
1, 12668, Note_off_c, 65
1, 12668, Note_off_c, 56
1, 12668, Note_off_c, 61
1, 12672, Note_on_c, 42
1, 12672, Note_on_c, 36
1, 12672, Note_on_c, 63
1, 12672, Note_on_c, 66
1, 12672, Note_on_c, 58
1, 12672, Note_on_c, 49
1, 12673, Note_off_c, 36
1, 12673, Note_off_c, 42
1, 12674, Note_off_c, 49
1, 12676, Note_on_c, 68
1, 12703, Note_off_c, 68
1, 12720, Note_on_c, 42
1, 12720, Note_on_c, 39
1, 12720, Note_on_c, 63
1, 12720, Note_on_c, 58
1, 12720, Note_on_c, 51
1, 12720, Note_on_c, 51
1, 12721, Note_off_c, 42
1, 12726, Note_on_c, 70
1, 12730, Note_off_c, 51
1, 12741, Note_off_c, 70
1, 12755, Note_off_c, 39
1, 12760, Note_off_c, 63
1, 12760, Note_off_c, 58
1, 12760, Note_off_c, 51
1, 12768, Note_on_c, 42
1, 12768, Note_on_c, 38
1, 12768, Note_on_c, 39
1, 12768, Note_on_c, 63
1, 12768, Note_on_c, 51
1, 12768, Note_on_c, 58
1, 12768, Note_on_c, 49
1, 12769, Note_off_c, 38
1, 12769, Note_off_c, 42
1, 12772, Note_on_c, 70
1, 12778, Note_off_c, 49
1, 12788, Note_off_c, 70
1, 12808, Note_off_c, 63
1, 12808, Note_off_c, 39
1, 12808, Note_off_c, 51
1, 12808, Note_off_c, 58
1, 12816, Note_on_c, 42
1, 12816, Note_on_c, 51
1, 12817, Note_off_c, 42
1, 12819, Note_on_c, 70
1, 12826, Note_off_c, 51
1, 12839, Note_off_c, 70
1, 12864, Note_on_c, 42
1, 12864, Note_on_c, 36
1, 12864, Note_on_c, 39
1, 12864, Note_on_c, 63
1, 12864, Note_on_c, 58
1, 12864, Note_on_c, 51
1, 12864, Note_on_c, 54
1, 12865, Note_off_c, 36
1, 12865, Note_off_c, 42
1, 12868, Note_on_c, 68
1, 12874, Note_off_c, 54
1, 12890, Note_off_c, 68
1, 12904, Note_off_c, 63
1, 12904, Note_off_c, 58
1, 12904, Note_off_c, 51
1, 12906, Note_off_c, 39
1, 12912, Note_on_c, 42
1, 12912, Note_on_c, 51
1, 12913, Note_off_c, 42
1, 12916, Note_on_c, 70
1, 12922, Note_off_c, 51
1, 12935, Note_off_c, 70
1, 12960, Note_on_c, 42
1, 12960, Note_on_c, 38
1, 12960, Note_on_c, 49
1, 12961, Note_off_c, 38
1, 12961, Note_off_c, 42
1, 12961, Note_on_c, 39
1, 12962, Note_off_c, 39
1, 12963, Note_on_c, 68
1, 12967, Note_on_c, 39
1, 12968, Note_off_c, 39
1, 12970, Note_off_c, 49
1, 12999, Note_off_c, 68
1, 13008, Note_on_c, 42
1, 13008, Note_on_c, 37
1, 13008, Note_on_c, 61
1, 13008, Note_on_c, 56
1, 13008, Note_on_c, 49
1, 13008, Note_on_c, 51
1, 13009, Note_off_c, 42
1, 13012, Note_on_c, 66
1, 13018, Note_off_c, 51
1, 13036, Note_off_c, 66
1, 13043, Note_off_c, 37
1, 13048, Note_off_c, 61
1, 13048, Note_off_c, 56
1, 13048, Note_off_c, 49
1, 13052, Note_off_c, 63
1, 13052, Note_off_c, 66
1, 13052, Note_off_c, 58
1, 13056, Note_on_c, 42
1, 13056, Note_on_c, 36
1, 13056, Note_on_c, 37
1, 13056, Note_on_c, 56
1, 13056, Note_on_c, 61
1, 13056, Note_on_c, 65
1, 13056, Note_on_c, 61
1, 13056, Note_on_c, 49
1, 13056, Note_on_c, 56
1, 13056, Note_on_c, 53
1, 13057, Note_off_c, 36
1, 13057, Note_off_c, 42
1, 13058, Note_on_c, 68
1, 13066, Note_off_c, 53
1, 13084, Note_off_c, 68
1, 13096, Note_off_c, 61
1, 13096, Note_off_c, 37
1, 13096, Note_off_c, 49
1, 13096, Note_off_c, 56
1, 13104, Note_on_c, 42
1, 13104, Note_on_c, 51
1, 13105, Note_off_c, 42
1, 13107, Note_on_c, 66
1, 13114, Note_off_c, 51
1, 13122, Note_off_c, 66
1, 13152, Note_on_c, 42
1, 13152, Note_on_c, 38
1, 13152, Note_on_c, 36
1, 13152, Note_on_c, 37
1, 13152, Note_on_c, 61
1, 13152, Note_on_c, 56
1, 13152, Note_on_c, 49
1, 13152, Note_on_c, 49
1, 13153, Note_off_c, 36
1, 13153, Note_off_c, 38
1, 13153, Note_off_c, 42
1, 13159, Note_on_c, 68
1, 13162, Note_off_c, 49
1, 13192, Note_off_c, 61
1, 13192, Note_off_c, 49
1, 13192, Note_off_c, 56
1, 13194, Note_off_c, 37
1, 13200, Note_on_c, 42
1, 13200, Note_on_c, 51
1, 13201, Note_off_c, 42
1, 13210, Note_off_c, 51
1, 13219, Note_off_c, 68
1, 13248, Note_on_c, 42
1, 13248, Note_on_c, 53
1, 13249, Note_off_c, 42
1, 13258, Note_off_c, 53
1, 13296, Note_on_c, 42
1, 13296, Note_on_c, 36
1, 13296, Note_on_c, 51
1, 13297, Note_off_c, 36
1, 13297, Note_off_c, 42
1, 13306, Note_off_c, 51
1, 13344, Note_on_c, 42
1, 13344, Note_on_c, 38
1, 13344, Note_on_c, 49
1, 13345, Note_off_c, 38
1, 13345, Note_off_c, 42
1, 13345, Note_on_c, 39
1, 13346, Note_off_c, 39
1, 13351, Note_on_c, 39
1, 13352, Note_off_c, 39
1, 13354, Note_off_c, 49
1, 13392, Note_on_c, 42
1, 13392, Note_on_c, 51
1, 13393, Note_off_c, 42
1, 13395, Note_on_c, 70
1, 13402, Note_off_c, 51
1, 13410, Note_off_c, 70
1, 13436, Note_off_c, 65
1, 13436, Note_off_c, 61
1, 13436, Note_off_c, 56
1, 13440, Note_on_c, 42
1, 13440, Note_on_c, 36
1, 13440, Note_on_c, 54
1, 13440, Note_on_c, 63
1, 13440, Note_on_c, 59
1, 13440, Note_on_c, 49
1, 13441, Note_off_c, 49
1, 13441, Note_off_c, 36
1, 13441, Note_off_c, 42
1, 13442, Note_on_c, 66
1, 13462, Note_off_c, 66
1, 13488, Note_on_c, 42
1, 13488, Note_on_c, 35
1, 13488, Note_on_c, 59
1, 13488, Note_on_c, 54
1, 13488, Note_on_c, 47
1, 13488, Note_on_c, 51
1, 13489, Note_off_c, 42
1, 13493, Note_on_c, 66
1, 13500, Note_off_c, 51
1, 13515, Note_off_c, 66
1, 13523, Note_off_c, 35
1, 13528, Note_off_c, 59
1, 13528, Note_off_c, 54
1, 13528, Note_off_c, 47
1, 13536, Note_on_c, 42
1, 13536, Note_on_c, 38
1, 13536, Note_on_c, 35
1, 13536, Note_on_c, 59
1, 13536, Note_on_c, 47
1, 13536, Note_on_c, 54
1, 13536, Note_on_c, 51
1, 13537, Note_off_c, 38
1, 13537, Note_off_c, 42
1, 13541, Note_on_c, 63
1, 13548, Note_off_c, 51
1, 13571, Note_off_c, 35
1, 13576, Note_off_c, 59
1, 13576, Note_off_c, 47
1, 13576, Note_off_c, 54
1, 13584, Note_on_c, 42
1, 13584, Note_on_c, 51
1, 13585, Note_off_c, 42
1, 13586, Note_on_c, 61
1, 13587, Note_off_c, 63
1, 13596, Note_off_c, 51
1, 13606, Note_off_c, 61
1, 13632, Note_on_c, 42
1, 13632, Note_on_c, 36
1, 13632, Note_on_c, 35
1, 13632, Note_on_c, 59
1, 13632, Note_on_c, 54
1, 13632, Note_on_c, 47
1, 13632, Note_on_c, 54
1, 13633, Note_off_c, 36
1, 13633, Note_off_c, 42
1, 13634, Note_on_c, 63
1, 13644, Note_off_c, 54
1, 13667, Note_off_c, 35
1, 13672, Note_off_c, 59
1, 13672, Note_off_c, 54
1, 13672, Note_off_c, 47
1, 13680, Note_on_c, 42
1, 13680, Note_on_c, 51
1, 13681, Note_off_c, 42
1, 13692, Note_off_c, 51
1, 13715, Note_off_c, 63
1, 13728, Note_on_c, 42
1, 13728, Note_on_c, 38
1, 13728, Note_on_c, 49
1, 13729, Note_off_c, 38
1, 13729, Note_off_c, 42
1, 13729, Note_on_c, 39
1, 13730, Note_off_c, 39
1, 13730, Note_on_c, 61
1, 13735, Note_on_c, 39
1, 13736, Note_off_c, 39
1, 13740, Note_off_c, 49
1, 13760, Note_off_c, 61
1, 13776, Note_on_c, 42
1, 13776, Note_on_c, 37
1, 13776, Note_on_c, 61
1, 13776, Note_on_c, 49
1, 13776, Note_on_c, 56
1, 13776, Note_on_c, 51
1, 13777, Note_off_c, 42
1, 13778, Note_on_c, 63
1, 13788, Note_off_c, 51
1, 13798, Note_off_c, 63
1, 13811, Note_off_c, 37
1, 13816, Note_off_c, 61
1, 13816, Note_off_c, 49
1, 13816, Note_off_c, 56
1, 13820, Note_off_c, 54
1, 13820, Note_off_c, 59
1, 13820, Note_off_c, 63
1, 13824, Note_on_c, 42
1, 13824, Note_on_c, 36
1, 13824, Note_on_c, 37
1, 13824, Note_on_c, 61
1, 13824, Note_on_c, 56
1, 13824, Note_on_c, 65
1, 13824, Note_on_c, 61
1, 13824, Note_on_c, 49
1, 13824, Note_on_c, 56
1, 13824, Note_on_c, 53
1, 13825, Note_off_c, 36
1, 13825, Note_off_c, 42
1, 13825, Note_on_c, 63
1, 13836, Note_off_c, 53
1, 13864, Note_off_c, 61
1, 13864, Note_off_c, 37
1, 13864, Note_off_c, 49
1, 13864, Note_off_c, 56
1, 13872, Note_on_c, 42
1, 13872, Note_on_c, 51
1, 13873, Note_off_c, 42
1, 13884, Note_off_c, 51
1, 13920, Note_on_c, 42
1, 13920, Note_on_c, 38
1, 13920, Note_on_c, 36
1, 13920, Note_on_c, 37
1, 13920, Note_on_c, 61
1, 13920, Note_on_c, 56
1, 13920, Note_on_c, 49
1, 13920, Note_on_c, 49
1, 13921, Note_off_c, 36
1, 13921, Note_off_c, 38
1, 13921, Note_off_c, 42
1, 13924, Note_off_c, 63
1, 13925, Note_on_c, 61
1, 13932, Note_off_c, 49
1, 13955, Note_off_c, 37
1, 13960, Note_off_c, 61
1, 13960, Note_off_c, 49
1, 13960, Note_off_c, 56
1, 13965, Note_off_c, 61
1, 13968, Note_on_c, 42
1, 13968, Note_on_c, 51
1, 13969, Note_off_c, 42
1, 13972, Note_on_c, 58
1, 13980, Note_off_c, 51
1, 13984, Note_off_c, 58
1, 14016, Note_on_c, 42
1, 14016, Note_on_c, 53
1, 14017, Note_off_c, 42
1, 14022, Note_on_c, 61
1, 14028, Note_off_c, 53
1, 14064, Note_on_c, 42
1, 14064, Note_on_c, 36
1, 14064, Note_on_c, 51
1, 14065, Note_off_c, 36
1, 14065, Note_off_c, 42
1, 14076, Note_off_c, 51
1, 14100, Note_off_c, 61
1, 14111, Note_on_c, 63
1, 14112, Note_on_c, 42
1, 14112, Note_on_c, 38
1, 14112, Note_on_c, 49
1, 14113, Note_off_c, 38
1, 14113, Note_off_c, 42
1, 14113, Note_on_c, 63
1, 14113, Note_on_c, 39
1, 14114, Note_off_c, 39
1, 14115, Note_on_c, 63
1, 14119, Note_on_c, 39
1, 14120, Note_off_c, 39
1, 14124, Note_off_c, 49
1, 14131, Note_off_c, 63
1, 14133, Note_off_c, 63
1, 14157, Note_off_c, 63
1, 14160, Note_on_c, 42
1, 14160, Note_on_c, 51
1, 14161, Note_off_c, 42
1, 14172, Note_off_c, 51
1, 14204, Note_off_c, 65
1, 14204, Note_off_c, 56
1, 14204, Note_off_c, 61
1, 14208, Note_on_c, 66
1, 14208, Note_on_c, 42
1, 14208, Note_on_c, 36
1, 14208, Note_on_c, 63
1, 14208, Note_on_c, 66
1, 14208, Note_on_c, 58
1, 14208, Note_on_c, 49
1, 14209, Note_off_c, 49
1, 14209, Note_off_c, 36
1, 14209, Note_off_c, 42
1, 14210, Note_on_c, 66
1, 14210, Note_on_c, 66
1, 14251, Note_off_c, 66
1, 14253, Note_off_c, 66
1, 14255, Note_off_c, 66
1, 14256, Note_on_c, 42
1, 14256, Note_on_c, 39
1, 14256, Note_on_c, 63
1, 14256, Note_on_c, 58
1, 14256, Note_on_c, 51
1, 14256, Note_on_c, 51
1, 14257, Note_off_c, 42
1, 14257, Note_on_c, 63
1, 14258, Note_on_c, 63
1, 14259, Note_on_c, 63
1, 14268, Note_off_c, 51
1, 14269, Note_off_c, 63
1, 14270, Note_off_c, 63
1, 14275, Note_off_c, 63
1, 14291, Note_off_c, 39
1, 14296, Note_off_c, 63
1, 14296, Note_off_c, 58
1, 14296, Note_off_c, 51
1, 14304, Note_on_c, 42
1, 14304, Note_on_c, 38
1, 14304, Note_on_c, 39
1, 14304, Note_on_c, 63
1, 14304, Note_on_c, 58
1, 14304, Note_on_c, 51
1, 14304, Note_on_c, 51
1, 14305, Note_off_c, 38
1, 14305, Note_off_c, 42
1, 14316, Note_off_c, 51
1, 14344, Note_off_c, 63
1, 14344, Note_off_c, 39
1, 14344, Note_off_c, 58
1, 14344, Note_off_c, 51
1, 14352, Note_on_c, 42
1, 14352, Note_on_c, 51
1, 14353, Note_off_c, 42
1, 14364, Note_off_c, 51
1, 14400, Note_on_c, 42
1, 14400, Note_on_c, 36
1, 14400, Note_on_c, 39
1, 14400, Note_on_c, 63
1, 14400, Note_on_c, 58
1, 14400, Note_on_c, 51
1, 14400, Note_on_c, 54
1, 14401, Note_off_c, 36
1, 14401, Note_off_c, 42
1, 14412, Note_off_c, 54
1, 14440, Note_off_c, 63
1, 14440, Note_off_c, 58
1, 14440, Note_off_c, 51
1, 14442, Note_off_c, 39
1, 14448, Note_on_c, 42
1, 14448, Note_on_c, 51
1, 14449, Note_off_c, 42
1, 14460, Note_off_c, 51
1, 14496, Note_on_c, 42
1, 14496, Note_on_c, 38
1, 14496, Note_on_c, 49
1, 14497, Note_off_c, 38
1, 14497, Note_off_c, 42
1, 14497, Note_on_c, 39
1, 14498, Note_off_c, 39
1, 14499, Note_on_c, 70
1, 14503, Note_on_c, 39
1, 14504, Note_off_c, 39
1, 14508, Note_off_c, 49
1, 14512, Note_off_c, 70
1, 14544, Note_on_c, 42
1, 14544, Note_on_c, 37
1, 14544, Note_on_c, 61
1, 14544, Note_on_c, 56
1, 14544, Note_on_c, 49
1, 14544, Note_on_c, 51
1, 14545, Note_off_c, 42
1, 14547, Note_on_c, 70
1, 14556, Note_off_c, 51
1, 14561, Note_off_c, 70
1, 14579, Note_off_c, 37
1, 14584, Note_off_c, 61
1, 14584, Note_off_c, 56
1, 14584, Note_off_c, 49
1, 14588, Note_off_c, 63
1, 14588, Note_off_c, 58
1, 14588, Note_off_c, 66
1, 14592, Note_on_c, 42
1, 14592, Note_on_c, 36
1, 14592, Note_on_c, 37
1, 14592, Note_on_c, 56
1, 14592, Note_on_c, 61
1, 14592, Note_on_c, 65
1, 14592, Note_on_c, 61
1, 14592, Note_on_c, 56
1, 14592, Note_on_c, 49
1, 14592, Note_on_c, 53
1, 14593, Note_off_c, 36
1, 14593, Note_off_c, 42
1, 14596, Note_on_c, 71
1, 14604, Note_off_c, 53
1, 14621, Note_off_c, 71
1, 14632, Note_off_c, 61
1, 14632, Note_off_c, 37
1, 14632, Note_off_c, 56
1, 14632, Note_off_c, 49
1, 14640, Note_on_c, 42
1, 14640, Note_on_c, 51
1, 14641, Note_off_c, 42
1, 14646, Note_on_c, 70
1, 14652, Note_off_c, 51
1, 14668, Note_off_c, 70
1, 14688, Note_on_c, 42
1, 14688, Note_on_c, 38
1, 14688, Note_on_c, 36
1, 14688, Note_on_c, 37
1, 14688, Note_on_c, 61
1, 14688, Note_on_c, 56
1, 14688, Note_on_c, 49
1, 14688, Note_on_c, 49
1, 14689, Note_off_c, 36
1, 14689, Note_off_c, 38
1, 14689, Note_off_c, 42
1, 14692, Note_on_c, 68
1, 14700, Note_off_c, 49
1, 14722, Note_off_c, 68
1, 14728, Note_off_c, 61
1, 14728, Note_off_c, 49
1, 14728, Note_off_c, 56
1, 14730, Note_off_c, 37
1, 14736, Note_on_c, 42
1, 14736, Note_on_c, 51
1, 14737, Note_off_c, 42
1, 14748, Note_off_c, 51
1, 14783, Note_on_c, 70
1, 14784, Note_on_c, 42
1, 14785, Note_off_c, 42
1, 14832, Note_on_c, 42
1, 14832, Note_on_c, 36
1, 14833, Note_off_c, 36
1, 14833, Note_off_c, 42
1, 14864, Note_off_c, 70
1, 14880, Note_on_c, 42
1, 14880, Note_on_c, 38
1, 14881, Note_off_c, 38
1, 14881, Note_off_c, 42
1, 14881, Note_on_c, 39
1, 14882, Note_off_c, 39
1, 14884, Note_on_c, 68
1, 14887, Note_on_c, 39
1, 14888, Note_off_c, 39
1, 14917, Note_off_c, 68
1, 14926, Note_on_c, 39
1, 14928, Note_on_c, 57
1, 14928, Note_on_c, 36
1, 14928, Note_on_c, 27
1, 14928, Note_on_c, 39
1, 14928, Note_on_c, 39
1, 14929, Note_off_c, 36
1, 14929, Note_off_c, 57
1, 14972, Note_off_c, 65
1, 14972, Note_off_c, 61
1, 14972, Note_off_c, 56
1, 14975, Note_on_c, 70
1, 14976, Note_on_c, 42
1, 14976, Note_on_c, 36
1, 14976, Note_on_c, 63
1, 14976, Note_on_c, 66
1, 14976, Note_on_c, 58
1, 14977, Note_off_c, 36
1, 14977, Note_off_c, 42
1, 14977, Note_on_c, 70
1, 14978, Note_on_c, 70
1, 15015, Note_off_c, 70
1, 15018, Note_off_c, 39
1, 15020, Note_off_c, 39
1, 15020, Note_off_c, 70
1, 15022, Note_off_c, 39
1, 15022, Note_off_c, 70
1, 15022, Note_on_c, 42
1, 15023, Note_off_c, 27
1, 15023, Note_on_c, 70
1, 15024, Note_on_c, 42
1, 15024, Note_on_c, 30
1, 15024, Note_on_c, 42
1, 15024, Note_on_c, 42
1, 15025, Note_off_c, 42
1, 15026, Note_on_c, 70
1, 15027, Note_on_c, 70
1, 15069, Note_off_c, 42
1, 15070, Note_on_c, 46
1, 15071, Note_off_c, 30
1, 15071, Note_off_c, 42
1, 15071, Note_off_c, 42
1, 15072, Note_on_c, 42
1, 15072, Note_on_c, 38
1, 15072, Note_on_c, 34
1, 15072, Note_on_c, 46
1, 15072, Note_on_c, 46
1, 15073, Note_off_c, 38
1, 15073, Note_off_c, 42
1, 15117, Note_off_c, 46
1, 15118, Note_on_c, 54
1, 15119, Note_off_c, 46
1, 15119, Note_off_c, 46
1, 15119, Note_off_c, 34
1, 15120, Note_on_c, 42
1, 15120, Note_on_c, 42
1, 15120, Note_on_c, 54
1, 15120, Note_on_c, 54
1, 15121, Note_off_c, 42
1, 15143, Note_off_c, 70
1, 15144, Note_off_c, 70
1, 15152, Note_off_c, 70
1, 15165, Note_off_c, 54
1, 15166, Note_on_c, 51
1, 15167, Note_off_c, 42
1, 15167, Note_off_c, 54
1, 15167, Note_off_c, 54
1, 15167, Note_on_c, 66
1, 15168, Note_on_c, 42
1, 15168, Note_on_c, 36
1, 15168, Note_on_c, 39
1, 15168, Note_on_c, 51
1, 15168, Note_on_c, 51
1, 15169, Note_off_c, 36
1, 15169, Note_off_c, 42
1, 15169, Note_on_c, 63
1, 15200, Note_off_c, 63
1, 15202, Note_off_c, 66
1, 15216, Note_on_c, 63
1, 15216, Note_on_c, 42
1, 15217, Note_off_c, 42
1, 15217, Note_on_c, 66
1, 15264, Note_on_c, 42
1, 15264, Note_on_c, 38
1, 15265, Note_off_c, 38
1, 15265, Note_off_c, 42
1, 15265, Note_on_c, 39
1, 15266, Note_off_c, 39
1, 15271, Note_on_c, 39
1, 15272, Note_off_c, 39
1, 15307, Note_off_c, 51
1, 15309, Note_off_c, 51
1, 15309, Note_off_c, 51
1, 15309, Note_off_c, 39
1, 15309, Note_on_c, 51
1, 15311, Note_on_c, 39
1, 15311, Note_on_c, 51
1, 15311, Note_on_c, 51
1, 15312, Note_on_c, 42
1, 15313, Note_off_c, 42
1, 15330, Note_off_c, 66
1, 15342, Note_off_c, 63
1, 15356, Note_off_c, 58
1, 15356, Note_off_c, 63
1, 15356, Note_off_c, 66
1, 15359, Note_on_c, 70
1, 15360, Note_on_c, 70
1, 15360, Note_on_c, 42
1, 15360, Note_on_c, 36
1, 15360, Note_on_c, 61
1, 15360, Note_on_c, 56
1, 15360, Note_on_c, 65
1, 15361, Note_off_c, 36
1, 15361, Note_off_c, 42
1, 15363, Note_on_c, 70
1, 15385, Note_off_c, 70
1, 15399, Note_off_c, 70
1, 15399, Note_off_c, 70
1, 15400, Note_off_c, 51
1, 15402, Note_off_c, 51
1, 15405, Note_off_c, 51
1, 15405, Note_off_c, 39
1, 15406, Note_on_c, 51
1, 15407, Note_on_c, 70
1, 15408, Note_on_c, 42
1, 15408, Note_on_c, 39
1, 15408, Note_on_c, 51
1, 15408, Note_on_c, 51
1, 15409, Note_off_c, 42
1, 15410, Note_on_c, 70
1, 15412, Note_on_c, 70
1, 15451, Note_off_c, 51
1, 15453, Note_off_c, 39
1, 15453, Note_off_c, 51
1, 15453, Note_off_c, 51
1, 15454, Note_on_c, 49
1, 15456, Note_on_c, 42
1, 15456, Note_on_c, 38
1, 15456, Note_on_c, 36
1, 15456, Note_on_c, 37
1, 15456, Note_on_c, 49
1, 15456, Note_on_c, 49
1, 15457, Note_off_c, 36
1, 15457, Note_off_c, 38
1, 15457, Note_off_c, 42
1, 15492, Note_off_c, 49
1, 15494, Note_off_c, 49
1, 15494, Note_off_c, 37
1, 15494, Note_off_c, 49
1, 15504, Note_on_c, 42
1, 15505, Note_off_c, 42
1, 15508, Note_off_c, 70
1, 15518, Note_off_c, 70
1, 15524, Note_off_c, 70
1, 15550, Note_on_c, 65
1, 15550, Note_on_c, 49
1, 15552, Note_on_c, 61
1, 15552, Note_on_c, 42
1, 15552, Note_on_c, 37
1, 15552, Note_on_c, 49
1, 15552, Note_on_c, 49
1, 15553, Note_off_c, 42
1, 15579, Note_off_c, 65
1, 15586, Note_off_c, 61
1, 15587, Note_off_c, 37
1, 15587, Note_off_c, 49
1, 15590, Note_off_c, 49
1, 15592, Note_off_c, 49
1, 15599, Note_on_c, 65
1, 15600, Note_on_c, 61
1, 15600, Note_on_c, 42
1, 15600, Note_on_c, 36
1, 15601, Note_off_c, 36
1, 15601, Note_off_c, 42
1, 15648, Note_on_c, 42
1, 15648, Note_on_c, 38
1, 15649, Note_off_c, 38
1, 15649, Note_off_c, 42
1, 15649, Note_on_c, 39
1, 15650, Note_off_c, 39
1, 15655, Note_on_c, 39
1, 15656, Note_off_c, 39
1, 15671, Note_off_c, 65
1, 15686, Note_off_c, 61
1, 15694, Note_on_c, 39
1, 15696, Note_on_c, 42
1, 15696, Note_on_c, 27
1, 15696, Note_on_c, 39
1, 15696, Note_on_c, 39
1, 15697, Note_off_c, 42
1, 15697, Note_on_c, 66
1, 15699, Note_on_c, 63
1, 15700, Note_on_c, 70
1, 15740, Note_off_c, 56
1, 15740, Note_off_c, 65
1, 15740, Note_off_c, 61
1, 15744, Note_on_c, 42
1, 15744, Note_on_c, 36
1, 15744, Note_on_c, 66
1, 15744, Note_on_c, 63
1, 15744, Note_on_c, 58
1, 15745, Note_off_c, 36
1, 15745, Note_off_c, 42
1, 15762, Note_off_c, 63
1, 15766, Note_off_c, 66
1, 15773, Note_off_c, 70
1, 15788, Note_off_c, 39
1, 15790, Note_off_c, 39
1, 15790, Note_off_c, 27
1, 15790, Note_off_c, 39
1, 15790, Note_on_c, 42
1, 15792, Note_on_c, 42
1, 15792, Note_on_c, 30
1, 15792, Note_on_c, 42
1, 15792, Note_on_c, 42
1, 15793, Note_off_c, 42
1, 15793, Note_on_c, 66
1, 15794, Note_on_c, 63
1, 15795, Note_on_c, 70
1, 15805, Note_off_c, 70
1, 15807, Note_off_c, 63
1, 15807, Note_off_c, 66
1, 15836, Note_off_c, 42
1, 15838, Note_off_c, 30
1, 15838, Note_off_c, 42
1, 15838, Note_off_c, 42
1, 15838, Note_on_c, 46
1, 15840, Note_on_c, 66
1, 15840, Note_on_c, 42
1, 15840, Note_on_c, 38
1, 15840, Note_on_c, 34
1, 15840, Note_on_c, 46
1, 15840, Note_on_c, 46
1, 15841, Note_off_c, 38
1, 15841, Note_off_c, 42
1, 15841, Note_on_c, 63
1, 15842, Note_on_c, 70
1, 15851, Note_off_c, 70
1, 15853, Note_off_c, 66
1, 15855, Note_off_c, 63
1, 15884, Note_off_c, 46
1, 15886, Note_off_c, 46
1, 15886, Note_off_c, 46
1, 15886, Note_off_c, 34
1, 15886, Note_on_c, 54
1, 15887, Note_on_c, 66
1, 15888, Note_on_c, 42
1, 15888, Note_on_c, 42
1, 15888, Note_on_c, 54
1, 15888, Note_on_c, 54
1, 15889, Note_off_c, 42
1, 15889, Note_on_c, 63
1, 15890, Note_on_c, 70
1, 15899, Note_off_c, 70
1, 15906, Note_off_c, 63
1, 15906, Note_off_c, 66
1, 15932, Note_off_c, 54
1, 15934, Note_off_c, 42
1, 15934, Note_off_c, 54
1, 15934, Note_off_c, 54
1, 15934, Note_on_c, 51
1, 15935, Note_on_c, 70
1, 15936, Note_on_c, 42
1, 15936, Note_on_c, 36
1, 15936, Note_on_c, 39
1, 15936, Note_on_c, 51
1, 15936, Note_on_c, 51
1, 15937, Note_off_c, 36
1, 15937, Note_off_c, 42
1, 15937, Note_on_c, 66
1, 15939, Note_on_c, 73
1, 15984, Note_on_c, 42
1, 15985, Note_off_c, 42
1, 16011, Note_off_c, 70
1, 16013, Note_off_c, 66
1, 16013, Note_off_c, 73
1, 16032, Note_on_c, 66
1, 16032, Note_on_c, 63
1, 16032, Note_on_c, 42
1, 16032, Note_on_c, 38
1, 16033, Note_off_c, 38
1, 16033, Note_off_c, 42
1, 16033, Note_on_c, 39
1, 16034, Note_off_c, 39
1, 16036, Note_on_c, 70
1, 16039, Note_on_c, 39
1, 16040, Note_off_c, 39
1, 16045, Note_off_c, 70
1, 16050, Note_off_c, 66
1, 16052, Note_off_c, 63
1, 16075, Note_off_c, 51
1, 16077, Note_off_c, 51
1, 16077, Note_off_c, 51
1, 16077, Note_off_c, 39
1, 16077, Note_on_c, 51
1, 16079, Note_on_c, 39
1, 16079, Note_on_c, 51
1, 16079, Note_on_c, 51
1, 16080, Note_on_c, 65
1, 16080, Note_on_c, 42
1, 16081, Note_off_c, 42
1, 16081, Note_on_c, 68
1, 16086, Note_on_c, 73
1, 16124, Note_off_c, 58
1, 16124, Note_off_c, 63
1, 16124, Note_off_c, 66
1, 16128, Note_on_c, 42
1, 16128, Note_on_c, 36
1, 16128, Note_on_c, 61
1, 16128, Note_on_c, 56
1, 16128, Note_on_c, 65
1, 16129, Note_off_c, 36
1, 16129, Note_off_c, 42
1, 16154, Note_off_c, 73
1, 16160, Note_off_c, 68
1, 16165, Note_off_c, 65
1, 16172, Note_off_c, 51
1, 16174, Note_off_c, 51
1, 16174, Note_off_c, 51
1, 16174, Note_off_c, 39
1, 16174, Note_on_c, 51
1, 16176, Note_on_c, 65
1, 16176, Note_on_c, 61
1, 16176, Note_on_c, 42
1, 16176, Note_on_c, 39
1, 16176, Note_on_c, 51
1, 16176, Note_on_c, 51
1, 16177, Note_off_c, 42
1, 16178, Note_on_c, 70
1, 16188, Note_off_c, 61
1, 16188, Note_off_c, 65
1, 16208, Note_off_c, 70
1, 16216, Note_off_c, 51
1, 16218, Note_off_c, 39
1, 16218, Note_off_c, 51
1, 16218, Note_off_c, 51
1, 16222, Note_on_c, 49
1, 16224, Note_on_c, 42
1, 16224, Note_on_c, 38
1, 16224, Note_on_c, 36
1, 16224, Note_on_c, 37
1, 16224, Note_on_c, 49
1, 16224, Note_on_c, 49
1, 16225, Note_off_c, 36
1, 16225, Note_off_c, 38
1, 16225, Note_off_c, 42
1, 16262, Note_off_c, 49
1, 16262, Note_off_c, 37
1, 16263, Note_off_c, 49
1, 16265, Note_off_c, 49
1, 16272, Note_on_c, 42
1, 16273, Note_off_c, 42
1, 16320, Note_on_c, 42
1, 16321, Note_off_c, 42
1, 16368, Note_on_c, 42
1, 16368, Note_on_c, 36
1, 16369, Note_off_c, 36
1, 16369, Note_off_c, 42
1, 16416, Note_on_c, 42
1, 16416, Note_on_c, 38
1, 16417, Note_off_c, 38
1, 16417, Note_off_c, 42
1, 16417, Note_on_c, 39
1, 16418, Note_off_c, 39
1, 16423, Note_on_c, 39
1, 16424, Note_off_c, 39
1, 16462, Note_on_c, 39
1, 16464, Note_on_c, 42
1, 16464, Note_on_c, 27
1, 16464, Note_on_c, 39
1, 16464, Note_on_c, 39
1, 16465, Note_off_c, 42
1, 16465, Note_on_c, 65
1, 16465, Note_on_c, 63
1, 16469, Note_on_c, 68
1, 16499, Note_off_c, 68
1, 16505, Note_off_c, 63
1, 16505, Note_off_c, 65
1, 16508, Note_off_c, 65
1, 16508, Note_off_c, 56
1, 16508, Note_off_c, 61
1, 16512, Note_on_c, 42
1, 16512, Note_on_c, 36
1, 16512, Note_on_c, 58
1, 16512, Note_on_c, 63
1, 16512, Note_on_c, 66
1, 16512, Note_on_c, 78
1, 16512, Note_on_c, 82
1, 16513, Note_off_c, 36
1, 16513, Note_off_c, 42
1, 16557, Note_off_c, 39
1, 16558, Note_on_c, 42
1, 16559, Note_off_c, 39
1, 16559, Note_off_c, 27
1, 16559, Note_off_c, 39
1, 16560, Note_on_c, 42
1, 16560, Note_on_c, 30
1, 16560, Note_on_c, 42
1, 16560, Note_on_c, 42
1, 16561, Note_off_c, 42
1, 16561, Note_on_c, 63
1, 16561, Note_on_c, 61
1, 16564, Note_on_c, 66
1, 16576, Note_off_c, 66
1, 16581, Note_off_c, 61
1, 16581, Note_off_c, 63
1, 16605, Note_off_c, 42
1, 16606, Note_on_c, 46
1, 16607, Note_off_c, 30
1, 16607, Note_off_c, 42
1, 16607, Note_off_c, 42
1, 16607, Note_on_c, 65
1, 16608, Note_on_c, 42
1, 16608, Note_on_c, 38
1, 16608, Note_on_c, 34
1, 16608, Note_on_c, 46
1, 16608, Note_on_c, 46
1, 16609, Note_off_c, 38
1, 16609, Note_off_c, 42
1, 16609, Note_on_c, 63
1, 16610, Note_on_c, 68
1, 16625, Note_off_c, 65
1, 16627, Note_off_c, 63
1, 16631, Note_off_c, 68
1, 16653, Note_off_c, 46
1, 16654, Note_on_c, 54
1, 16655, Note_off_c, 46
1, 16655, Note_off_c, 46
1, 16655, Note_off_c, 34
1, 16656, Note_on_c, 42
1, 16656, Note_on_c, 42
1, 16656, Note_on_c, 54
1, 16656, Note_on_c, 54
1, 16657, Note_off_c, 42
1, 16701, Note_off_c, 54
1, 16702, Note_on_c, 51
1, 16703, Note_off_c, 42
1, 16703, Note_off_c, 54
1, 16703, Note_off_c, 54
1, 16703, Note_on_c, 63
1, 16704, Note_on_c, 42
1, 16704, Note_on_c, 36
1, 16704, Note_on_c, 39
1, 16704, Note_on_c, 51
1, 16704, Note_on_c, 51
1, 16705, Note_off_c, 36
1, 16705, Note_off_c, 42
1, 16705, Note_on_c, 61
1, 16706, Note_on_c, 66
1, 16746, Note_off_c, 66
1, 16748, Note_off_c, 63
1, 16750, Note_off_c, 61
1, 16752, Note_on_c, 42
1, 16753, Note_off_c, 42
1, 16754, Note_on_c, 68
1, 16754, Note_on_c, 65
1, 16754, Note_on_c, 63
1, 16766, Note_off_c, 63
1, 16766, Note_off_c, 65
1, 16769, Note_off_c, 68
1, 16800, Note_on_c, 42
1, 16800, Note_on_c, 38
1, 16801, Note_off_c, 38
1, 16801, Note_off_c, 42
1, 16801, Note_on_c, 39
1, 16802, Note_off_c, 39
1, 16807, Note_on_c, 39
1, 16808, Note_off_c, 39
1, 16843, Note_off_c, 51
1, 16845, Note_off_c, 51
1, 16845, Note_off_c, 51
1, 16845, Note_off_c, 39
1, 16845, Note_on_c, 51
1, 16847, Note_on_c, 39
1, 16847, Note_on_c, 51
1, 16847, Note_on_c, 51
1, 16848, Note_on_c, 42
1, 16849, Note_off_c, 42
1, 16849, Note_on_c, 65
1, 16849, Note_on_c, 63
1, 16852, Note_on_c, 68
1, 16869, Note_off_c, 63
1, 16869, Note_off_c, 65
1, 16873, Note_off_c, 78
1, 16875, Note_off_c, 82
1, 16892, Note_off_c, 66
1, 16892, Note_off_c, 63
1, 16892, Note_off_c, 58
1, 16894, Note_on_c, 80
1, 16896, Note_on_c, 42
1, 16896, Note_on_c, 36
1, 16896, Note_on_c, 56
1, 16896, Note_on_c, 61
1, 16896, Note_on_c, 65
1, 16896, Note_on_c, 77
1, 16897, Note_off_c, 36
1, 16897, Note_off_c, 42
1, 16902, Note_off_c, 68
1, 16936, Note_off_c, 51
1, 16938, Note_off_c, 51
1, 16941, Note_off_c, 39
1, 16941, Note_off_c, 51
1, 16942, Note_on_c, 51
1, 16944, Note_on_c, 42
1, 16944, Note_on_c, 39
1, 16944, Note_on_c, 51
1, 16944, Note_on_c, 51
1, 16945, Note_off_c, 42
1, 16945, Note_on_c, 63
1, 16945, Note_on_c, 61
1, 16946, Note_on_c, 66
1, 16957, Note_off_c, 61
1, 16957, Note_off_c, 63
1, 16960, Note_off_c, 66
1, 16987, Note_off_c, 51
1, 16989, Note_off_c, 39
1, 16989, Note_off_c, 51
1, 16989, Note_off_c, 51
1, 16990, Note_on_c, 49
1, 16992, Note_on_c, 65
1, 16992, Note_on_c, 63
1, 16992, Note_on_c, 42
1, 16992, Note_on_c, 38
1, 16992, Note_on_c, 36
1, 16992, Note_on_c, 37
1, 16992, Note_on_c, 49
1, 16992, Note_on_c, 49
1, 16993, Note_off_c, 36
1, 16993, Note_off_c, 38
1, 16993, Note_off_c, 42
1, 16993, Note_on_c, 68
1, 17008, Note_off_c, 63
1, 17008, Note_off_c, 65
1, 17010, Note_off_c, 68
1, 17028, Note_off_c, 49
1, 17030, Note_off_c, 49
1, 17030, Note_off_c, 37
1, 17030, Note_off_c, 49
1, 17040, Note_on_c, 42
1, 17041, Note_off_c, 42
1, 17086, Note_on_c, 63
1, 17086, Note_on_c, 49
1, 17087, Note_on_c, 61
1, 17088, Note_on_c, 66
1, 17088, Note_on_c, 42
1, 17088, Note_on_c, 37
1, 17088, Note_on_c, 49
1, 17088, Note_on_c, 49
1, 17089, Note_off_c, 42
1, 17121, Note_off_c, 63
1, 17123, Note_off_c, 37
1, 17123, Note_off_c, 49
1, 17126, Note_off_c, 49
1, 17128, Note_off_c, 49
1, 17128, Note_off_c, 66
1, 17129, Note_off_c, 61
1, 17136, Note_on_c, 42
1, 17136, Note_on_c, 36
1, 17137, Note_off_c, 36
1, 17137, Note_off_c, 42
1, 17137, Note_on_c, 61
1, 17137, Note_on_c, 58
1, 17142, Note_off_c, 58
1, 17142, Note_on_c, 63
1, 17145, Note_off_c, 61
1, 17155, Note_off_c, 63
1, 17184, Note_on_c, 42
1, 17184, Note_on_c, 38
1, 17185, Note_off_c, 38
1, 17185, Note_off_c, 42
1, 17185, Note_on_c, 39
1, 17186, Note_off_c, 39
1, 17191, Note_on_c, 39
1, 17192, Note_off_c, 39
1, 17230, Note_on_c, 39
1, 17232, Note_on_c, 42
1, 17232, Note_on_c, 27
1, 17232, Note_on_c, 39
1, 17232, Note_on_c, 39
1, 17233, Note_off_c, 42
1, 17233, Note_on_c, 65
1, 17234, Note_on_c, 63
1, 17236, Note_on_c, 68
1, 17247, Note_off_c, 63
1, 17252, Note_off_c, 68
1, 17255, Note_off_c, 77
1, 17255, Note_off_c, 65
1, 17258, Note_off_c, 80
1, 17276, Note_off_c, 56
1, 17276, Note_off_c, 61
1, 17276, Note_off_c, 65
1, 17277, Note_on_c, 82
1, 17278, Note_on_c, 78
1, 17280, Note_on_c, 42
1, 17280, Note_on_c, 36
1, 17280, Note_on_c, 58
1, 17280, Note_on_c, 63
1, 17280, Note_on_c, 66
1, 17281, Note_off_c, 36
1, 17281, Note_off_c, 42
1, 17324, Note_off_c, 39
1, 17326, Note_off_c, 39
1, 17326, Note_off_c, 39
1, 17326, Note_off_c, 27
1, 17326, Note_on_c, 42
1, 17328, Note_on_c, 42
1, 17328, Note_on_c, 30
1, 17328, Note_on_c, 42
1, 17328, Note_on_c, 42
1, 17329, Note_off_c, 42
1, 17329, Note_on_c, 63
1, 17329, Note_on_c, 61
1, 17332, Note_on_c, 66
1, 17340, Note_off_c, 63
1, 17341, Note_off_c, 61
1, 17347, Note_off_c, 66
1, 17372, Note_off_c, 42
1, 17374, Note_off_c, 30
1, 17374, Note_off_c, 42
1, 17374, Note_off_c, 42
1, 17374, Note_on_c, 46
1, 17376, Note_on_c, 42
1, 17376, Note_on_c, 38
1, 17376, Note_on_c, 34
1, 17376, Note_on_c, 46
1, 17376, Note_on_c, 46
1, 17377, Note_off_c, 38
1, 17377, Note_off_c, 42
1, 17377, Note_on_c, 65
1, 17377, Note_on_c, 63
1, 17379, Note_on_c, 68
1, 17389, Note_off_c, 63
1, 17393, Note_off_c, 65
1, 17397, Note_off_c, 68
1, 17420, Note_off_c, 46
1, 17422, Note_off_c, 46
1, 17422, Note_off_c, 46
1, 17422, Note_off_c, 34
1, 17422, Note_on_c, 54
1, 17424, Note_on_c, 42
1, 17424, Note_on_c, 42
1, 17424, Note_on_c, 54
1, 17424, Note_on_c, 54
1, 17425, Note_off_c, 42
1, 17468, Note_off_c, 54
1, 17470, Note_off_c, 42
1, 17470, Note_off_c, 54
1, 17470, Note_off_c, 54
1, 17470, Note_on_c, 51
1, 17471, Note_on_c, 63
1, 17472, Note_on_c, 42
1, 17472, Note_on_c, 36
1, 17472, Note_on_c, 39
1, 17472, Note_on_c, 51
1, 17472, Note_on_c, 51
1, 17473, Note_off_c, 36
1, 17473, Note_off_c, 42
1, 17473, Note_on_c, 61
1, 17475, Note_on_c, 66
1, 17501, Note_off_c, 63
1, 17512, Note_off_c, 61
1, 17520, Note_off_c, 66
1, 17520, Note_on_c, 42
1, 17521, Note_off_c, 42
1, 17521, Note_on_c, 65
1, 17521, Note_on_c, 63
1, 17527, Note_on_c, 68
1, 17531, Note_off_c, 63
1, 17532, Note_off_c, 65
1, 17541, Note_off_c, 68
1, 17568, Note_on_c, 42
1, 17568, Note_on_c, 38
1, 17569, Note_off_c, 38
1, 17569, Note_off_c, 42
1, 17569, Note_on_c, 39
1, 17570, Note_off_c, 39
1, 17575, Note_on_c, 39
1, 17576, Note_off_c, 39
1, 17611, Note_off_c, 51
1, 17613, Note_off_c, 51
1, 17613, Note_off_c, 51
1, 17613, Note_off_c, 39
1, 17613, Note_on_c, 51
1, 17615, Note_on_c, 39
1, 17615, Note_on_c, 51
1, 17615, Note_on_c, 51
1, 17616, Note_on_c, 65
1, 17616, Note_on_c, 42
1, 17617, Note_off_c, 42
1, 17617, Note_on_c, 63
1, 17619, Note_on_c, 68
1, 17628, Note_off_c, 63
1, 17633, Note_off_c, 65
1, 17643, Note_off_c, 68
1, 17644, Note_off_c, 78
1, 17647, Note_off_c, 82
1, 17660, Note_off_c, 66
1, 17660, Note_off_c, 63
1, 17660, Note_off_c, 58
1, 17660, Note_on_c, 80
1, 17661, Note_on_c, 77
1, 17664, Note_on_c, 42
1, 17664, Note_on_c, 36
1, 17664, Note_on_c, 56
1, 17664, Note_on_c, 61
1, 17664, Note_on_c, 65
1, 17665, Note_off_c, 36
1, 17665, Note_off_c, 42
1, 17708, Note_off_c, 51
1, 17710, Note_off_c, 39
1, 17710, Note_off_c, 51
1, 17710, Note_off_c, 51
1, 17710, Note_on_c, 51
1, 17711, Note_on_c, 63
1, 17712, Note_on_c, 61
1, 17712, Note_on_c, 42
1, 17712, Note_on_c, 39
1, 17712, Note_on_c, 51
1, 17712, Note_on_c, 51
1, 17713, Note_off_c, 42
1, 17714, Note_on_c, 66
1, 17722, Note_off_c, 61
1, 17727, Note_off_c, 63
1, 17729, Note_off_c, 66
1, 17752, Note_off_c, 51
1, 17754, Note_off_c, 39
1, 17754, Note_off_c, 51
1, 17754, Note_off_c, 51
1, 17758, Note_on_c, 49
1, 17759, Note_on_c, 65
1, 17760, Note_on_c, 63
1, 17760, Note_on_c, 42
1, 17760, Note_on_c, 38
1, 17760, Note_on_c, 36
1, 17760, Note_on_c, 37
1, 17760, Note_on_c, 49
1, 17760, Note_on_c, 49
1, 17761, Note_off_c, 36
1, 17761, Note_off_c, 38
1, 17761, Note_off_c, 42
1, 17761, Note_on_c, 68
1, 17772, Note_off_c, 63
1, 17776, Note_off_c, 65
1, 17779, Note_off_c, 68
1, 17798, Note_off_c, 49
1, 17798, Note_off_c, 37
1, 17799, Note_off_c, 49
1, 17801, Note_off_c, 49
1, 17808, Note_on_c, 42
1, 17809, Note_off_c, 42
1, 17854, Note_on_c, 63
1, 17855, Note_on_c, 61
1, 17856, Note_on_c, 66
1, 17856, Note_on_c, 42
1, 17857, Note_off_c, 42
1, 17869, Note_off_c, 61
1, 17869, Note_off_c, 63
1, 17878, Note_off_c, 66
1, 17904, Note_on_c, 42
1, 17904, Note_on_c, 36
1, 17905, Note_off_c, 36
1, 17905, Note_off_c, 42
1, 17951, Note_on_c, 65
1, 17952, Note_on_c, 63
1, 17952, Note_on_c, 42
1, 17952, Note_on_c, 38
1, 17953, Note_off_c, 38
1, 17953, Note_off_c, 42
1, 17953, Note_on_c, 39
1, 17954, Note_off_c, 39
1, 17954, Note_on_c, 68
1, 17959, Note_on_c, 39
1, 17960, Note_off_c, 39
1, 17962, Note_off_c, 63
1, 17975, Note_off_c, 68
1, 17981, Note_off_c, 65
1, 17998, Note_on_c, 39
1, 18000, Note_on_c, 42
1, 18000, Note_on_c, 27
1, 18000, Note_on_c, 39
1, 18000, Note_on_c, 39
1, 18001, Note_off_c, 42
1, 18031, Note_off_c, 77
1, 18033, Note_off_c, 80
1, 18044, Note_off_c, 65
1, 18044, Note_off_c, 56
1, 18044, Note_off_c, 61
1, 18046, Note_on_c, 78
1, 18047, Note_on_c, 82
1, 18048, Note_on_c, 57
1, 18048, Note_on_c, 36
1, 18048, Note_on_c, 63
1, 18048, Note_on_c, 58
1, 18048, Note_on_c, 66
1, 18049, Note_off_c, 36
1, 18049, Note_off_c, 57
1, 18050, Note_on_c, 66
1, 18093, Note_off_c, 39
1, 18094, Note_off_c, 66
1, 18094, Note_on_c, 42
1, 18095, Note_off_c, 39
1, 18095, Note_off_c, 27
1, 18095, Note_off_c, 39
1, 18096, Note_on_c, 42
1, 18096, Note_on_c, 30
1, 18096, Note_on_c, 42
1, 18096, Note_on_c, 42
1, 18097, Note_off_c, 42
1, 18099, Note_on_c, 63
1, 18111, Note_off_c, 63
1, 18141, Note_off_c, 42
1, 18142, Note_on_c, 46
1, 18143, Note_off_c, 30
1, 18143, Note_off_c, 42
1, 18143, Note_off_c, 42
1, 18144, Note_on_c, 42
1, 18144, Note_on_c, 38
1, 18144, Note_on_c, 34
1, 18144, Note_on_c, 46
1, 18144, Note_on_c, 46
1, 18145, Note_off_c, 38
1, 18145, Note_off_c, 42
1, 18189, Note_off_c, 46
1, 18190, Note_on_c, 54
1, 18191, Note_off_c, 46
1, 18191, Note_off_c, 46
1, 18191, Note_off_c, 34
1, 18192, Note_on_c, 42
1, 18192, Note_on_c, 42
1, 18192, Note_on_c, 54
1, 18192, Note_on_c, 54
1, 18193, Note_off_c, 42
1, 18237, Note_off_c, 54
1, 18238, Note_on_c, 51
1, 18239, Note_off_c, 42
1, 18239, Note_off_c, 54
1, 18239, Note_off_c, 54
1, 18239, Note_on_c, 66
1, 18240, Note_on_c, 66
1, 18240, Note_on_c, 42
1, 18240, Note_on_c, 36
1, 18240, Note_on_c, 39
1, 18240, Note_on_c, 51
1, 18240, Note_on_c, 51
1, 18241, Note_off_c, 36
1, 18241, Note_off_c, 42
1, 18285, Note_off_c, 66
1, 18288, Note_on_c, 42
1, 18289, Note_off_c, 42
1, 18289, Note_on_c, 63
1, 18289, Note_on_c, 63
1, 18291, Note_off_c, 66
1, 18300, Note_off_c, 63
1, 18302, Note_off_c, 63
1, 18336, Note_on_c, 42
1, 18336, Note_on_c, 38
1, 18337, Note_off_c, 38
1, 18337, Note_off_c, 42
1, 18337, Note_on_c, 39
1, 18338, Note_off_c, 39
1, 18338, Note_on_c, 63
1, 18343, Note_on_c, 39
1, 18344, Note_off_c, 39
1, 18353, Note_off_c, 63
1, 18379, Note_off_c, 51
1, 18381, Note_off_c, 51
1, 18381, Note_off_c, 51
1, 18381, Note_off_c, 39
1, 18381, Note_on_c, 51
1, 18383, Note_on_c, 39
1, 18383, Note_on_c, 51
1, 18383, Note_on_c, 51
1, 18384, Note_on_c, 42
1, 18385, Note_off_c, 42
1, 18425, Note_off_c, 78
1, 18426, Note_off_c, 82
1, 18428, Note_off_c, 63
1, 18428, Note_off_c, 66
1, 18428, Note_off_c, 58
1, 18431, Note_on_c, 80
1, 18432, Note_on_c, 42
1, 18432, Note_on_c, 36
1, 18432, Note_on_c, 61
1, 18432, Note_on_c, 65
1, 18432, Note_on_c, 56
1, 18432, Note_on_c, 77
1, 18433, Note_off_c, 36
1, 18433, Note_off_c, 42
1, 18434, Note_on_c, 65
1, 18472, Note_off_c, 51
1, 18474, Note_off_c, 51
1, 18477, Note_off_c, 39
1, 18477, Note_off_c, 51
1, 18478, Note_off_c, 65
1, 18478, Note_on_c, 51
1, 18480, Note_on_c, 42
1, 18480, Note_on_c, 39
1, 18480, Note_on_c, 51
1, 18480, Note_on_c, 51
1, 18481, Note_off_c, 42
1, 18483, Note_on_c, 61
1, 18499, Note_off_c, 61
1, 18523, Note_off_c, 51
1, 18525, Note_off_c, 39
1, 18525, Note_off_c, 51
1, 18525, Note_off_c, 51
1, 18526, Note_on_c, 49
1, 18527, Note_on_c, 68
1, 18528, Note_on_c, 68
1, 18528, Note_on_c, 42
1, 18528, Note_on_c, 38
1, 18528, Note_on_c, 36
1, 18528, Note_on_c, 37
1, 18528, Note_on_c, 49
1, 18528, Note_on_c, 49
1, 18529, Note_off_c, 36
1, 18529, Note_off_c, 38
1, 18529, Note_off_c, 42
1, 18564, Note_off_c, 49
1, 18566, Note_off_c, 49
1, 18566, Note_off_c, 37
1, 18566, Note_off_c, 49
1, 18575, Note_off_c, 68
1, 18576, Note_on_c, 65
1, 18576, Note_on_c, 42
1, 18577, Note_off_c, 42
1, 18577, Note_off_c, 68
1, 18577, Note_on_c, 65
1, 18593, Note_off_c, 65
1, 18593, Note_off_c, 65
1, 18622, Note_on_c, 49
1, 18624, Note_on_c, 42
1, 18624, Note_on_c, 37
1, 18624, Note_on_c, 49
1, 18624, Note_on_c, 49
1, 18625, Note_off_c, 42
1, 18659, Note_off_c, 37
1, 18659, Note_off_c, 49
1, 18662, Note_off_c, 49
1, 18664, Note_off_c, 49
1, 18672, Note_on_c, 42
1, 18672, Note_on_c, 36
1, 18673, Note_off_c, 36
1, 18673, Note_off_c, 42
1, 18720, Note_on_c, 42
1, 18720, Note_on_c, 38
1, 18721, Note_off_c, 38
1, 18721, Note_off_c, 42
1, 18721, Note_on_c, 39
1, 18722, Note_off_c, 39
1, 18726, Note_on_c, 66
1, 18727, Note_on_c, 39
1, 18728, Note_off_c, 39
1, 18765, Note_off_c, 66
1, 18766, Note_on_c, 39
1, 18768, Note_on_c, 42
1, 18768, Note_on_c, 27
1, 18768, Note_on_c, 39
1, 18768, Note_on_c, 39
1, 18769, Note_off_c, 42
1, 18797, Note_off_c, 80
1, 18798, Note_off_c, 77
1, 18812, Note_off_c, 61
1, 18812, Note_off_c, 65
1, 18812, Note_off_c, 56
1, 18815, Note_on_c, 78
1, 18816, Note_on_c, 66
1, 18816, Note_on_c, 42
1, 18816, Note_on_c, 36
1, 18816, Note_on_c, 66
1, 18816, Note_on_c, 63
1, 18816, Note_on_c, 58
1, 18816, Note_on_c, 82
1, 18817, Note_off_c, 36
1, 18817, Note_off_c, 42
1, 18857, Note_off_c, 66
1, 18860, Note_off_c, 39
1, 18862, Note_off_c, 39
1, 18862, Note_off_c, 27
1, 18862, Note_off_c, 39
1, 18862, Note_on_c, 42
1, 18864, Note_on_c, 42
1, 18864, Note_on_c, 30
1, 18864, Note_on_c, 42
1, 18864, Note_on_c, 42
1, 18865, Note_off_c, 42
1, 18865, Note_on_c, 63
1, 18890, Note_off_c, 63
1, 18908, Note_off_c, 42
1, 18910, Note_off_c, 30
1, 18910, Note_off_c, 42
1, 18910, Note_off_c, 42
1, 18910, Note_on_c, 46
1, 18912, Note_on_c, 42
1, 18912, Note_on_c, 38
1, 18912, Note_on_c, 34
1, 18912, Note_on_c, 46
1, 18912, Note_on_c, 46
1, 18913, Note_off_c, 38
1, 18913, Note_off_c, 42
1, 18956, Note_off_c, 46
1, 18958, Note_off_c, 46
1, 18958, Note_off_c, 46
1, 18958, Note_off_c, 34
1, 18958, Note_on_c, 54
1, 18960, Note_on_c, 42
1, 18960, Note_on_c, 42
1, 18960, Note_on_c, 54
1, 18960, Note_on_c, 54
1, 18961, Note_off_c, 42
1, 19004, Note_off_c, 54
1, 19006, Note_off_c, 42
1, 19006, Note_off_c, 54
1, 19006, Note_off_c, 54
1, 19006, Note_on_c, 66
1, 19006, Note_on_c, 51
1, 19008, Note_on_c, 66
1, 19008, Note_on_c, 42
1, 19008, Note_on_c, 36
1, 19008, Note_on_c, 39
1, 19008, Note_on_c, 51
1, 19008, Note_on_c, 51
1, 19009, Note_off_c, 36
1, 19009, Note_off_c, 42
1, 19052, Note_off_c, 66
1, 19055, Note_on_c, 63
1, 19056, Note_on_c, 42
1, 19057, Note_off_c, 42
1, 19057, Note_on_c, 63
1, 19059, Note_off_c, 66
1, 19071, Note_off_c, 63
1, 19072, Note_off_c, 63
1, 19104, Note_on_c, 42
1, 19104, Note_on_c, 38
1, 19105, Note_off_c, 38
1, 19105, Note_off_c, 42
1, 19105, Note_on_c, 39
1, 19106, Note_off_c, 39
1, 19107, Note_on_c, 63
1, 19111, Note_on_c, 39
1, 19112, Note_off_c, 39
1, 19125, Note_off_c, 63
1, 19147, Note_off_c, 51
1, 19149, Note_off_c, 51
1, 19149, Note_off_c, 51
1, 19149, Note_off_c, 39
1, 19149, Note_on_c, 51
1, 19151, Note_on_c, 39
1, 19151, Note_on_c, 51
1, 19151, Note_on_c, 51
1, 19152, Note_on_c, 42
1, 19153, Note_off_c, 42
1, 19186, Note_off_c, 78
1, 19186, Note_off_c, 82
1, 19196, Note_off_c, 66
1, 19196, Note_off_c, 63
1, 19196, Note_off_c, 58
1, 19197, Note_on_c, 61
1, 19197, Note_on_c, 73
1, 19200, Note_on_c, 63
1, 19200, Note_on_c, 42
1, 19200, Note_on_c, 36
1, 19200, Note_on_c, 56
1, 19200, Note_on_c, 65
1, 19200, Note_on_c, 61
1, 19201, Note_off_c, 36
1, 19201, Note_off_c, 42
1, 19238, Note_off_c, 63
1, 19244, Note_off_c, 51
1, 19246, Note_off_c, 39
1, 19246, Note_off_c, 51
1, 19246, Note_off_c, 51
1, 19246, Note_on_c, 51
1, 19248, Note_on_c, 42
1, 19248, Note_on_c, 39
1, 19248, Note_on_c, 51
1, 19248, Note_on_c, 51
1, 19249, Note_off_c, 42
1, 19253, Note_on_c, 61
1, 19272, Note_off_c, 61
1, 19288, Note_off_c, 51
1, 19290, Note_off_c, 39
1, 19290, Note_off_c, 51
1, 19290, Note_off_c, 51
1, 19294, Note_on_c, 49
1, 19295, Note_on_c, 68
1, 19296, Note_on_c, 68
1, 19296, Note_on_c, 42
1, 19296, Note_on_c, 38
1, 19296, Note_on_c, 36
1, 19296, Note_on_c, 37
1, 19296, Note_on_c, 49
1, 19296, Note_on_c, 49
1, 19297, Note_off_c, 36
1, 19297, Note_off_c, 38
1, 19297, Note_off_c, 42
1, 19334, Note_off_c, 49
1, 19334, Note_off_c, 37
1, 19335, Note_off_c, 49
1, 19337, Note_off_c, 49
1, 19341, Note_off_c, 68
1, 19342, Note_on_c, 65
1, 19343, Note_off_c, 68
1, 19344, Note_on_c, 42
1, 19345, Note_off_c, 42
1, 19345, Note_on_c, 65
1, 19360, Note_off_c, 65
1, 19363, Note_off_c, 65
1, 19392, Note_on_c, 28
1, 19392, Note_on_c, 42
1, 19393, Note_off_c, 42
1, 19393, Note_off_c, 28
1, 19440, Note_on_c, 42
1, 19440, Note_on_c, 36
1, 19441, Note_off_c, 36
1, 19441, Note_off_c, 42
1, 19488, Note_on_c, 42
1, 19488, Note_on_c, 38
1, 19489, Note_off_c, 38
1, 19489, Note_off_c, 42
1, 19489, Note_on_c, 39
1, 19490, Note_off_c, 39
1, 19495, Note_on_c, 39
1, 19496, Note_off_c, 39
1, 19536, Note_on_c, 42
1, 19537, Note_off_c, 42
1, 19560, Note_off_c, 73
1, 19561, Note_off_c, 61
1, 19568, Note_on_c, 63
1, 19570, Note_on_c, 75
1, 19580, Note_off_c, 65
1, 19580, Note_off_c, 56
1, 19580, Note_off_c, 61
1, 19584, Note_on_c, 57
1, 19584, Note_on_c, 36
1, 19584, Note_on_c, 63
1, 19584, Note_on_c, 66
1, 19584, Note_on_c, 58
1, 19584, Note_on_c, 39
1, 19585, Note_off_c, 39
1, 19585, Note_off_c, 36
1, 19585, Note_off_c, 57
1, 19632, Note_on_c, 42
1, 19632, Note_on_c, 39
1, 19632, Note_on_c, 63
1, 19632, Note_on_c, 51
1, 19632, Note_on_c, 58
1, 19633, Note_off_c, 42
1, 19636, Note_on_c, 70
1, 19648, Note_off_c, 70
1, 19667, Note_off_c, 39
1, 19672, Note_off_c, 63
1, 19672, Note_off_c, 51
1, 19672, Note_off_c, 58
1, 19680, Note_on_c, 42
1, 19680, Note_on_c, 38
1, 19680, Note_on_c, 39
1, 19680, Note_on_c, 63
1, 19680, Note_on_c, 58
1, 19680, Note_on_c, 51
1, 19681, Note_off_c, 38
1, 19681, Note_off_c, 42
1, 19682, Note_on_c, 68
1, 19710, Note_off_c, 68
1, 19715, Note_off_c, 39
1, 19720, Note_off_c, 63
1, 19720, Note_off_c, 51
1, 19720, Note_off_c, 58
1, 19728, Note_on_c, 42
1, 19729, Note_off_c, 42
1, 19732, Note_on_c, 70
1, 19747, Note_off_c, 70
1, 19776, Note_on_c, 42
1, 19776, Note_on_c, 36
1, 19776, Note_on_c, 39
1, 19776, Note_on_c, 63
1, 19776, Note_on_c, 58
1, 19776, Note_on_c, 51
1, 19777, Note_off_c, 36
1, 19777, Note_off_c, 42
1, 19782, Note_on_c, 70
1, 19796, Note_off_c, 70
1, 19811, Note_off_c, 39
1, 19816, Note_off_c, 63
1, 19816, Note_off_c, 51
1, 19816, Note_off_c, 58
1, 19824, Note_on_c, 42
1, 19825, Note_off_c, 42
1, 19828, Note_on_c, 70
1, 19845, Note_off_c, 70
1, 19872, Note_on_c, 42
1, 19872, Note_on_c, 38
1, 19873, Note_off_c, 38
1, 19873, Note_off_c, 42
1, 19873, Note_on_c, 39
1, 19874, Note_off_c, 39
1, 19877, Note_on_c, 68
1, 19879, Note_on_c, 39
1, 19880, Note_off_c, 39
1, 19916, Note_off_c, 68
1, 19920, Note_on_c, 42
1, 19920, Note_on_c, 37
1, 19920, Note_on_c, 61
1, 19920, Note_on_c, 56
1, 19920, Note_on_c, 49
1, 19921, Note_off_c, 42
1, 19924, Note_on_c, 70
1, 19946, Note_off_c, 70
1, 19955, Note_off_c, 37
1, 19960, Note_off_c, 61
1, 19960, Note_off_c, 56
1, 19960, Note_off_c, 49
1, 19964, Note_off_c, 63
1, 19964, Note_off_c, 58
1, 19964, Note_off_c, 66
1, 19968, Note_on_c, 42
1, 19968, Note_on_c, 36
1, 19968, Note_on_c, 37
1, 19968, Note_on_c, 61
1, 19968, Note_on_c, 56
1, 19968, Note_on_c, 65
1, 19968, Note_on_c, 61
1, 19968, Note_on_c, 56
1, 19968, Note_on_c, 49
1, 19969, Note_off_c, 36
1, 19969, Note_off_c, 42
1, 19970, Note_on_c, 71
1, 19996, Note_off_c, 71
1, 20006, Note_off_c, 37
1, 20008, Note_off_c, 61
1, 20008, Note_off_c, 49
1, 20008, Note_off_c, 56
1, 20016, Note_on_c, 42
1, 20017, Note_off_c, 42
1, 20020, Note_on_c, 70
1, 20037, Note_off_c, 70
1, 20064, Note_on_c, 42
1, 20064, Note_on_c, 38
1, 20064, Note_on_c, 36
1, 20064, Note_on_c, 37
1, 20064, Note_on_c, 61
1, 20064, Note_on_c, 56
1, 20064, Note_on_c, 49
1, 20065, Note_off_c, 36
1, 20065, Note_off_c, 38
1, 20065, Note_off_c, 42
1, 20069, Note_on_c, 68
1, 20089, Note_off_c, 68
1, 20099, Note_off_c, 37
1, 20104, Note_off_c, 49
1, 20104, Note_off_c, 56
1, 20104, Note_off_c, 61
1, 20112, Note_on_c, 42
1, 20113, Note_off_c, 42
1, 20160, Note_on_c, 42
1, 20161, Note_off_c, 42
1, 20163, Note_on_c, 70
1, 20208, Note_on_c, 42
1, 20208, Note_on_c, 36
1, 20209, Note_off_c, 36
1, 20209, Note_off_c, 42
1, 20236, Note_off_c, 70
1, 20250, Note_off_c, 75
1, 20255, Note_off_c, 63
1, 20256, Note_on_c, 42
1, 20256, Note_on_c, 38
1, 20257, Note_off_c, 38
1, 20257, Note_off_c, 42
1, 20257, Note_on_c, 39
1, 20258, Note_off_c, 39
1, 20263, Note_on_c, 39
1, 20264, Note_off_c, 39
1, 20304, Note_on_c, 42
1, 20305, Note_off_c, 42
1, 20308, Note_on_c, 70
1, 20322, Note_off_c, 70
1, 20348, Note_off_c, 61
1, 20348, Note_off_c, 56
1, 20348, Note_off_c, 65
1, 20352, Note_on_c, 42
1, 20352, Note_on_c, 36
1, 20352, Note_on_c, 63
1, 20352, Note_on_c, 66
1, 20352, Note_on_c, 58
1, 20353, Note_off_c, 36
1, 20353, Note_off_c, 42
1, 20356, Note_on_c, 68
1, 20390, Note_off_c, 68
1, 20400, Note_on_c, 42
1, 20400, Note_on_c, 39
1, 20400, Note_on_c, 63
1, 20400, Note_on_c, 58
1, 20400, Note_on_c, 51
1, 20401, Note_off_c, 42
1, 20406, Note_on_c, 70
1, 20419, Note_off_c, 70
1, 20435, Note_off_c, 39
1, 20440, Note_off_c, 63
1, 20440, Note_off_c, 58
1, 20440, Note_off_c, 51
1, 20448, Note_on_c, 42
1, 20448, Note_on_c, 38
1, 20448, Note_on_c, 39
1, 20448, Note_on_c, 63
1, 20448, Note_on_c, 51
1, 20448, Note_on_c, 58
1, 20449, Note_off_c, 38
1, 20449, Note_off_c, 42
1, 20453, Note_on_c, 70
1, 20468, Note_off_c, 70
1, 20488, Note_off_c, 63
1, 20488, Note_off_c, 39
1, 20488, Note_off_c, 58
1, 20488, Note_off_c, 51
1, 20496, Note_on_c, 42
1, 20497, Note_off_c, 42
1, 20500, Note_on_c, 70
1, 20519, Note_off_c, 70
1, 20544, Note_on_c, 42
1, 20544, Note_on_c, 36
1, 20544, Note_on_c, 39
1, 20544, Note_on_c, 63
1, 20544, Note_on_c, 58
1, 20544, Note_on_c, 51
1, 20545, Note_off_c, 36
1, 20545, Note_off_c, 42
1, 20549, Note_on_c, 68
1, 20572, Note_off_c, 68
1, 20584, Note_off_c, 63
1, 20584, Note_off_c, 51
1, 20584, Note_off_c, 58
1, 20586, Note_off_c, 39
1, 20592, Note_on_c, 42
1, 20593, Note_off_c, 42
1, 20598, Note_on_c, 70
1, 20618, Note_off_c, 70
1, 20640, Note_on_c, 42
1, 20640, Note_on_c, 38
1, 20641, Note_off_c, 38
1, 20641, Note_off_c, 42
1, 20641, Note_on_c, 39
1, 20642, Note_off_c, 39
1, 20645, Note_on_c, 68
1, 20647, Note_on_c, 39
1, 20648, Note_off_c, 39
1, 20682, Note_off_c, 68
1, 20688, Note_on_c, 42
1, 20688, Note_on_c, 37
1, 20688, Note_on_c, 61
1, 20688, Note_on_c, 56
1, 20688, Note_on_c, 49
1, 20689, Note_off_c, 42
1, 20692, Note_on_c, 66
1, 20716, Note_off_c, 66
1, 20723, Note_off_c, 37
1, 20728, Note_off_c, 61
1, 20728, Note_off_c, 56
1, 20728, Note_off_c, 49
1, 20732, Note_off_c, 63
1, 20732, Note_off_c, 58
1, 20732, Note_off_c, 66
1, 20736, Note_on_c, 42
1, 20736, Note_on_c, 36
1, 20736, Note_on_c, 37
1, 20736, Note_on_c, 56
1, 20736, Note_on_c, 61
1, 20736, Note_on_c, 65
1, 20736, Note_on_c, 61
1, 20736, Note_on_c, 49
1, 20736, Note_on_c, 56
1, 20737, Note_off_c, 36
1, 20737, Note_off_c, 42
1, 20738, Note_on_c, 68
1, 20770, Note_off_c, 68
1, 20776, Note_off_c, 61
1, 20776, Note_off_c, 37
1, 20776, Note_off_c, 56
1, 20776, Note_off_c, 49
1, 20784, Note_on_c, 42
1, 20785, Note_off_c, 42
1, 20788, Note_on_c, 66
1, 20806, Note_off_c, 66
1, 20832, Note_on_c, 42
1, 20832, Note_on_c, 38
1, 20832, Note_on_c, 36
1, 20832, Note_on_c, 37
1, 20832, Note_on_c, 61
1, 20832, Note_on_c, 56
1, 20832, Note_on_c, 49
1, 20833, Note_off_c, 36
1, 20833, Note_off_c, 38
1, 20833, Note_off_c, 42
1, 20838, Note_on_c, 68
1, 20872, Note_off_c, 49
1, 20872, Note_off_c, 56
1, 20872, Note_off_c, 61
1, 20874, Note_off_c, 37
1, 20880, Note_on_c, 42
1, 20881, Note_off_c, 42
1, 20916, Note_off_c, 68
1, 20928, Note_on_c, 42
1, 20929, Note_off_c, 42
1, 20976, Note_on_c, 42
1, 20976, Note_on_c, 36
1, 20977, Note_off_c, 36
1, 20977, Note_off_c, 42
1, 21024, Note_on_c, 42
1, 21024, Note_on_c, 38
1, 21025, Note_off_c, 38
1, 21025, Note_off_c, 42
1, 21025, Note_on_c, 39
1, 21026, Note_off_c, 39
1, 21031, Note_on_c, 39
1, 21032, Note_off_c, 39
1, 21072, Note_on_c, 42
1, 21073, Note_off_c, 42
1, 21074, Note_on_c, 70
1, 21093, Note_off_c, 70
1, 21116, Note_off_c, 65
1, 21116, Note_off_c, 61
1, 21116, Note_off_c, 56
1, 21120, Note_on_c, 42
1, 21120, Note_on_c, 36
1, 21120, Note_on_c, 54
1, 21120, Note_on_c, 63
1, 21120, Note_on_c, 59
1, 21121, Note_off_c, 36
1, 21121, Note_off_c, 42
1, 21122, Note_on_c, 66
1, 21146, Note_off_c, 66
1, 21168, Note_on_c, 42
1, 21168, Note_on_c, 35
1, 21168, Note_on_c, 59
1, 21168, Note_on_c, 54
1, 21168, Note_on_c, 47
1, 21169, Note_off_c, 42
1, 21171, Note_on_c, 66
1, 21194, Note_off_c, 66
1, 21203, Note_off_c, 35
1, 21208, Note_off_c, 59
1, 21208, Note_off_c, 54
1, 21208, Note_off_c, 47
1, 21216, Note_on_c, 42
1, 21216, Note_on_c, 38
1, 21216, Note_on_c, 35
1, 21216, Note_on_c, 59
1, 21216, Note_on_c, 47
1, 21216, Note_on_c, 54
1, 21217, Note_off_c, 38
1, 21217, Note_off_c, 42
1, 21218, Note_on_c, 63
1, 21250, Note_off_c, 63
1, 21251, Note_off_c, 35
1, 21256, Note_off_c, 59
1, 21256, Note_off_c, 54
1, 21256, Note_off_c, 47
1, 21264, Note_on_c, 42
1, 21265, Note_off_c, 42
1, 21268, Note_on_c, 61
1, 21285, Note_off_c, 61
1, 21312, Note_on_c, 42
1, 21312, Note_on_c, 36
1, 21312, Note_on_c, 35
1, 21312, Note_on_c, 59
1, 21312, Note_on_c, 54
1, 21312, Note_on_c, 47
1, 21313, Note_off_c, 36
1, 21313, Note_off_c, 42
1, 21317, Note_on_c, 63
1, 21347, Note_off_c, 35
1, 21352, Note_off_c, 59
1, 21352, Note_off_c, 47
1, 21352, Note_off_c, 54
1, 21360, Note_on_c, 42
1, 21361, Note_off_c, 42
1, 21397, Note_off_c, 63
1, 21408, Note_on_c, 42
1, 21408, Note_on_c, 38
1, 21409, Note_off_c, 38
1, 21409, Note_off_c, 42
1, 21409, Note_on_c, 39
1, 21410, Note_off_c, 39
1, 21413, Note_on_c, 61
1, 21415, Note_on_c, 39
1, 21416, Note_off_c, 39
1, 21430, Note_off_c, 61
1, 21456, Note_on_c, 42
1, 21456, Note_on_c, 37
1, 21456, Note_on_c, 61
1, 21456, Note_on_c, 49
1, 21456, Note_on_c, 56
1, 21457, Note_off_c, 42
1, 21460, Note_on_c, 63
1, 21476, Note_off_c, 63
1, 21491, Note_off_c, 37
1, 21496, Note_off_c, 61
1, 21496, Note_off_c, 49
1, 21496, Note_off_c, 56
1, 21500, Note_off_c, 54
1, 21500, Note_off_c, 59
1, 21500, Note_off_c, 63
1, 21504, Note_on_c, 42
1, 21504, Note_on_c, 36
1, 21504, Note_on_c, 37
1, 21504, Note_on_c, 61
1, 21504, Note_on_c, 56
1, 21504, Note_on_c, 65
1, 21504, Note_on_c, 61
1, 21504, Note_on_c, 49
1, 21504, Note_on_c, 56
1, 21505, Note_off_c, 36
1, 21505, Note_off_c, 42
1, 21506, Note_on_c, 63
1, 21529, Note_off_c, 63
1, 21544, Note_off_c, 61
1, 21544, Note_off_c, 37
1, 21544, Note_off_c, 56
1, 21544, Note_off_c, 49
1, 21552, Note_on_c, 42
1, 21553, Note_off_c, 42
1, 21557, Note_on_c, 63
1, 21575, Note_off_c, 63
1, 21600, Note_on_c, 42
1, 21600, Note_on_c, 38
1, 21600, Note_on_c, 36
1, 21600, Note_on_c, 37
1, 21600, Note_on_c, 61
1, 21600, Note_on_c, 56
1, 21600, Note_on_c, 49
1, 21601, Note_off_c, 36
1, 21601, Note_off_c, 38
1, 21601, Note_off_c, 42
1, 21604, Note_on_c, 61
1, 21635, Note_off_c, 37
1, 21640, Note_off_c, 49
1, 21640, Note_off_c, 56
1, 21640, Note_off_c, 61
1, 21643, Note_off_c, 61
1, 21648, Note_on_c, 42
1, 21649, Note_off_c, 42
1, 21652, Note_on_c, 58
1, 21666, Note_off_c, 58
1, 21696, Note_on_c, 42
1, 21697, Note_off_c, 42
1, 21699, Note_on_c, 61
1, 21744, Note_on_c, 42
1, 21744, Note_on_c, 36
1, 21745, Note_off_c, 36
1, 21745, Note_off_c, 42
1, 21777, Note_off_c, 61
1, 21788, Note_on_c, 63
1, 21792, Note_on_c, 63
1, 21792, Note_on_c, 42
1, 21792, Note_on_c, 38
1, 21793, Note_off_c, 38
1, 21793, Note_off_c, 42
1, 21793, Note_on_c, 39
1, 21794, Note_off_c, 39
1, 21795, Note_on_c, 63
1, 21799, Note_on_c, 39
1, 21800, Note_off_c, 39
1, 21815, Note_off_c, 63
1, 21824, Note_off_c, 63
1, 21830, Note_off_c, 63
1, 21840, Note_on_c, 42
1, 21841, Note_off_c, 42
1, 21884, Note_off_c, 65
1, 21884, Note_off_c, 56
1, 21884, Note_off_c, 61
1, 21887, Note_on_c, 66
1, 21888, Note_on_c, 42
1, 21888, Note_on_c, 36
1, 21888, Note_on_c, 63
1, 21888, Note_on_c, 66
1, 21888, Note_on_c, 58
1, 21889, Note_off_c, 36
1, 21889, Note_off_c, 42
1, 21889, Note_on_c, 66
1, 21893, Note_on_c, 66
1, 21928, Note_off_c, 66
1, 21931, Note_off_c, 66
1, 21935, Note_off_c, 66
1, 21936, Note_on_c, 63
1, 21936, Note_on_c, 42
1, 21936, Note_on_c, 39
1, 21936, Note_on_c, 63
1, 21936, Note_on_c, 58
1, 21936, Note_on_c, 51
1, 21937, Note_off_c, 42
1, 21938, Note_on_c, 63
1, 21941, Note_on_c, 63
1, 21952, Note_off_c, 63
1, 21953, Note_off_c, 63
1, 21954, Note_off_c, 63
1, 21971, Note_off_c, 39
1, 21976, Note_off_c, 63
1, 21976, Note_off_c, 58
1, 21976, Note_off_c, 51
1, 21984, Note_on_c, 42
1, 21984, Note_on_c, 38
1, 21984, Note_on_c, 39
1, 21984, Note_on_c, 63
1, 21984, Note_on_c, 58
1, 21984, Note_on_c, 51
1, 21985, Note_off_c, 38
1, 21985, Note_off_c, 42
1, 22024, Note_off_c, 63
1, 22024, Note_off_c, 39
1, 22024, Note_off_c, 51
1, 22024, Note_off_c, 58
1, 22032, Note_on_c, 42
1, 22033, Note_off_c, 42
1, 22080, Note_on_c, 42
1, 22080, Note_on_c, 36
1, 22080, Note_on_c, 39
1, 22080, Note_on_c, 63
1, 22080, Note_on_c, 58
1, 22080, Note_on_c, 51
1, 22081, Note_off_c, 36
1, 22081, Note_off_c, 42
1, 22120, Note_off_c, 63
1, 22120, Note_off_c, 51
1, 22120, Note_off_c, 58
1, 22122, Note_off_c, 39
1, 22128, Note_on_c, 42
1, 22129, Note_off_c, 42
1, 22175, Note_on_c, 63
1, 22176, Note_on_c, 42
1, 22176, Note_on_c, 38
1, 22177, Note_off_c, 38
1, 22177, Note_off_c, 42
1, 22177, Note_on_c, 63
1, 22177, Note_on_c, 39
1, 22178, Note_off_c, 39
1, 22178, Note_on_c, 63
1, 22183, Note_on_c, 39
1, 22184, Note_off_c, 39
1, 22191, Note_off_c, 63
1, 22195, Note_off_c, 63
1, 22197, Note_off_c, 63
1, 22224, Note_on_c, 42
1, 22224, Note_on_c, 37
1, 22224, Note_on_c, 61
1, 22224, Note_on_c, 56
1, 22224, Note_on_c, 49
1, 22225, Note_off_c, 42
1, 22259, Note_off_c, 37
1, 22264, Note_off_c, 61
1, 22264, Note_off_c, 56
1, 22264, Note_off_c, 49
1, 22268, Note_off_c, 63
1, 22268, Note_off_c, 58
1, 22268, Note_off_c, 66
1, 22270, Note_on_c, 65
1, 22272, Note_on_c, 42
1, 22272, Note_on_c, 36
1, 22272, Note_on_c, 37
1, 22272, Note_on_c, 61
1, 22272, Note_on_c, 65
1, 22272, Note_on_c, 56
1, 22272, Note_on_c, 61
1, 22272, Note_on_c, 56
1, 22272, Note_on_c, 49
1, 22273, Note_off_c, 36
1, 22273, Note_off_c, 42
1, 22273, Note_on_c, 65
1, 22274, Note_on_c, 65
1, 22312, Note_off_c, 61
1, 22312, Note_off_c, 37
1, 22312, Note_off_c, 49
1, 22312, Note_off_c, 56
1, 22312, Note_off_c, 65
1, 22317, Note_off_c, 65
1, 22319, Note_off_c, 65
1, 22320, Note_on_c, 42
1, 22321, Note_off_c, 42
1, 22321, Note_on_c, 61
1, 22323, Note_on_c, 61
1, 22325, Note_on_c, 61
1, 22339, Note_off_c, 61
1, 22339, Note_off_c, 61
1, 22341, Note_off_c, 61
1, 22368, Note_on_c, 42
1, 22368, Note_on_c, 38
1, 22368, Note_on_c, 36
1, 22368, Note_on_c, 37
1, 22368, Note_on_c, 61
1, 22368, Note_on_c, 56
1, 22368, Note_on_c, 49
1, 22369, Note_off_c, 36
1, 22369, Note_off_c, 38
1, 22369, Note_off_c, 42
1, 22408, Note_off_c, 49
1, 22408, Note_off_c, 56
1, 22408, Note_off_c, 61
1, 22410, Note_off_c, 37
1, 22416, Note_on_c, 42
1, 22417, Note_off_c, 42
1, 22464, Note_on_c, 42
1, 22465, Note_off_c, 42
1, 22512, Note_on_c, 42
1, 22512, Note_on_c, 36
1, 22513, Note_off_c, 36
1, 22513, Note_off_c, 42
1, 22560, Note_on_c, 42
1, 22560, Note_on_c, 38
1, 22561, Note_off_c, 38
1, 22561, Note_off_c, 42
1, 22561, Note_on_c, 39
1, 22562, Note_off_c, 39
1, 22567, Note_on_c, 39
1, 22568, Note_off_c, 39
1, 22608, Note_on_c, 42
1, 22609, Note_off_c, 42
1, 22652, Note_off_c, 56
1, 22652, Note_off_c, 65
1, 22652, Note_off_c, 61
1, 22656, Note_on_c, 49
1, 22656, Note_on_c, 36
1, 22656, Note_on_c, 63
1, 22656, Note_on_c, 66
1, 22656, Note_on_c, 58
1, 22656, Note_on_c, 39
1, 22656, Note_on_c, 49
1, 22656, Note_on_c, 58
1, 22657, Note_off_c, 39
1, 22657, Note_off_c, 36
1, 22657, Note_off_c, 49
1, 22658, Note_off_c, 49
1, 22704, Note_on_c, 42
1, 22704, Note_on_c, 39
1, 22704, Note_on_c, 63
1, 22704, Note_on_c, 51
1, 22704, Note_on_c, 58
1, 22704, Note_on_c, 51
1, 22705, Note_off_c, 42
1, 22710, Note_on_c, 70
1, 22714, Note_off_c, 51
1, 22730, Note_off_c, 70
1, 22739, Note_off_c, 39
1, 22744, Note_off_c, 63
1, 22744, Note_off_c, 51
1, 22744, Note_off_c, 58
1, 22752, Note_on_c, 42
1, 22752, Note_on_c, 38
1, 22752, Note_on_c, 39
1, 22752, Note_on_c, 63
1, 22752, Note_on_c, 58
1, 22752, Note_on_c, 51
1, 22752, Note_on_c, 49
1, 22753, Note_off_c, 38
1, 22753, Note_off_c, 42
1, 22758, Note_on_c, 68
1, 22762, Note_off_c, 49
1, 22785, Note_off_c, 68
1, 22787, Note_off_c, 39
1, 22792, Note_off_c, 63
1, 22792, Note_off_c, 58
1, 22792, Note_off_c, 51
1, 22800, Note_on_c, 42
1, 22800, Note_on_c, 51
1, 22801, Note_off_c, 42
1, 22805, Note_on_c, 70
1, 22810, Note_off_c, 51
1, 22822, Note_off_c, 70
1, 22848, Note_on_c, 42
1, 22848, Note_on_c, 36
1, 22848, Note_on_c, 39
1, 22848, Note_on_c, 63
1, 22848, Note_on_c, 58
1, 22848, Note_on_c, 51
1, 22848, Note_on_c, 54
1, 22849, Note_off_c, 36
1, 22849, Note_off_c, 42
1, 22853, Note_on_c, 70
1, 22858, Note_off_c, 54
1, 22871, Note_off_c, 70
1, 22883, Note_off_c, 39
1, 22888, Note_off_c, 63
1, 22888, Note_off_c, 58
1, 22888, Note_off_c, 51
1, 22896, Note_on_c, 42
1, 22896, Note_on_c, 51
1, 22897, Note_off_c, 42
1, 22901, Note_on_c, 70
1, 22906, Note_off_c, 51
1, 22924, Note_off_c, 70
1, 22944, Note_on_c, 42
1, 22944, Note_on_c, 38
1, 22944, Note_on_c, 49
1, 22945, Note_off_c, 38
1, 22945, Note_off_c, 42
1, 22945, Note_on_c, 39
1, 22946, Note_off_c, 39
1, 22948, Note_on_c, 68
1, 22951, Note_on_c, 39
1, 22952, Note_off_c, 39
1, 22954, Note_off_c, 49
1, 22972, Note_off_c, 68
1, 22992, Note_on_c, 42
1, 22992, Note_on_c, 37
1, 22992, Note_on_c, 61
1, 22992, Note_on_c, 56
1, 22992, Note_on_c, 49
1, 22992, Note_on_c, 51
1, 22993, Note_off_c, 42
1, 22996, Note_on_c, 70
1, 23002, Note_off_c, 51
1, 23013, Note_off_c, 70
1, 23027, Note_off_c, 37
1, 23032, Note_off_c, 61
1, 23032, Note_off_c, 56
1, 23032, Note_off_c, 49
1, 23036, Note_off_c, 66
1, 23036, Note_off_c, 63
1, 23036, Note_off_c, 58
1, 23040, Note_on_c, 42
1, 23040, Note_on_c, 36
1, 23040, Note_on_c, 37
1, 23040, Note_on_c, 61
1, 23040, Note_on_c, 56
1, 23040, Note_on_c, 65
1, 23040, Note_on_c, 61
1, 23040, Note_on_c, 56
1, 23040, Note_on_c, 49
1, 23040, Note_on_c, 53
1, 23041, Note_off_c, 36
1, 23041, Note_off_c, 42
1, 23042, Note_on_c, 71
1, 23050, Note_off_c, 53
1, 23070, Note_off_c, 71
1, 23078, Note_off_c, 37
1, 23080, Note_off_c, 61
1, 23080, Note_off_c, 56
1, 23080, Note_off_c, 49
1, 23088, Note_on_c, 42
1, 23088, Note_on_c, 51
1, 23089, Note_off_c, 42
1, 23091, Note_on_c, 70
1, 23098, Note_off_c, 51
1, 23109, Note_off_c, 70
1, 23136, Note_on_c, 42
1, 23136, Note_on_c, 38
1, 23136, Note_on_c, 36
1, 23136, Note_on_c, 37
1, 23136, Note_on_c, 61
1, 23136, Note_on_c, 56
1, 23136, Note_on_c, 49
1, 23136, Note_on_c, 49
1, 23137, Note_off_c, 36
1, 23137, Note_off_c, 38
1, 23137, Note_off_c, 42
1, 23142, Note_on_c, 68
1, 23146, Note_off_c, 49
1, 23164, Note_off_c, 68
1, 23171, Note_off_c, 37
1, 23176, Note_off_c, 61
1, 23176, Note_off_c, 49
1, 23176, Note_off_c, 56
1, 23184, Note_on_c, 42
1, 23184, Note_on_c, 51
1, 23185, Note_off_c, 42
1, 23194, Note_off_c, 51
1, 23232, Note_on_c, 42
1, 23232, Note_on_c, 53
1, 23233, Note_off_c, 42
1, 23234, Note_on_c, 70
1, 23242, Note_off_c, 53
1, 23280, Note_on_c, 42
1, 23280, Note_on_c, 36
1, 23280, Note_on_c, 51
1, 23281, Note_off_c, 36
1, 23281, Note_off_c, 42
1, 23290, Note_off_c, 51
1, 23303, Note_off_c, 70
1, 23322, Note_off_c, 58
1, 23327, Note_on_c, 56
1, 23328, Note_on_c, 42
1, 23328, Note_on_c, 38
1, 23328, Note_on_c, 49
1, 23329, Note_off_c, 38
1, 23329, Note_off_c, 42
1, 23329, Note_on_c, 39
1, 23330, Note_off_c, 39
1, 23335, Note_on_c, 39
1, 23336, Note_off_c, 39
1, 23338, Note_off_c, 49
1, 23376, Note_on_c, 42
1, 23376, Note_on_c, 51
1, 23377, Note_off_c, 42
1, 23378, Note_on_c, 70
1, 23386, Note_off_c, 51
1, 23393, Note_off_c, 70
1, 23420, Note_off_c, 56
1, 23420, Note_off_c, 61
1, 23420, Note_off_c, 65
1, 23421, Note_off_c, 56
1, 23423, Note_on_c, 58
1, 23424, Note_on_c, 42
1, 23424, Note_on_c, 36
1, 23424, Note_on_c, 63
1, 23424, Note_on_c, 66
1, 23424, Note_on_c, 58
1, 23424, Note_on_c, 49
1, 23425, Note_off_c, 36
1, 23425, Note_off_c, 42
1, 23426, Note_off_c, 49
1, 23426, Note_on_c, 68
1, 23455, Note_off_c, 68
1, 23472, Note_on_c, 42
1, 23472, Note_on_c, 39
1, 23472, Note_on_c, 63
1, 23472, Note_on_c, 58
1, 23472, Note_on_c, 51
1, 23472, Note_on_c, 51
1, 23473, Note_off_c, 42
1, 23474, Note_on_c, 70
1, 23482, Note_off_c, 51
1, 23492, Note_off_c, 70
1, 23507, Note_off_c, 39
1, 23512, Note_off_c, 63
1, 23512, Note_off_c, 58
1, 23512, Note_off_c, 51
1, 23520, Note_on_c, 42
1, 23520, Note_on_c, 38
1, 23520, Note_on_c, 39
1, 23520, Note_on_c, 63
1, 23520, Note_on_c, 51
1, 23520, Note_on_c, 58
1, 23520, Note_on_c, 49
1, 23521, Note_off_c, 38
1, 23521, Note_off_c, 42
1, 23523, Note_on_c, 70
1, 23530, Note_off_c, 49
1, 23538, Note_off_c, 70
1, 23560, Note_off_c, 63
1, 23560, Note_off_c, 39
1, 23560, Note_off_c, 51
1, 23560, Note_off_c, 58
1, 23568, Note_on_c, 42
1, 23568, Note_on_c, 51
1, 23569, Note_off_c, 42
1, 23571, Note_on_c, 70
1, 23578, Note_off_c, 51
1, 23593, Note_off_c, 70
1, 23616, Note_on_c, 42
1, 23616, Note_on_c, 36
1, 23616, Note_on_c, 39
1, 23616, Note_on_c, 63
1, 23616, Note_on_c, 58
1, 23616, Note_on_c, 51
1, 23616, Note_on_c, 54
1, 23617, Note_off_c, 36
1, 23617, Note_off_c, 42
1, 23618, Note_on_c, 68
1, 23626, Note_off_c, 54
1, 23640, Note_off_c, 68
1, 23656, Note_off_c, 63
1, 23656, Note_off_c, 58
1, 23656, Note_off_c, 51
1, 23658, Note_off_c, 39
1, 23664, Note_on_c, 42
1, 23664, Note_on_c, 51
1, 23665, Note_off_c, 42
1, 23666, Note_on_c, 70
1, 23674, Note_off_c, 51
1, 23685, Note_off_c, 70
1, 23712, Note_on_c, 42
1, 23712, Note_on_c, 38
1, 23712, Note_on_c, 49
1, 23713, Note_off_c, 38
1, 23713, Note_off_c, 42
1, 23713, Note_on_c, 39
1, 23714, Note_off_c, 39
1, 23715, Note_on_c, 68
1, 23719, Note_on_c, 39
1, 23720, Note_off_c, 39
1, 23722, Note_off_c, 49
1, 23746, Note_off_c, 68
1, 23760, Note_on_c, 42
1, 23760, Note_on_c, 37
1, 23760, Note_on_c, 61
1, 23760, Note_on_c, 56
1, 23760, Note_on_c, 49
1, 23760, Note_on_c, 51
1, 23761, Note_off_c, 42
1, 23762, Note_on_c, 66
1, 23770, Note_off_c, 51
1, 23780, Note_off_c, 66
1, 23795, Note_off_c, 37
1, 23800, Note_off_c, 61
1, 23800, Note_off_c, 56
1, 23800, Note_off_c, 49
1, 23804, Note_off_c, 63
1, 23804, Note_off_c, 66
1, 23804, Note_off_c, 58
1, 23808, Note_on_c, 42
1, 23808, Note_on_c, 36
1, 23808, Note_on_c, 37
1, 23808, Note_on_c, 56
1, 23808, Note_on_c, 61
1, 23808, Note_on_c, 65
1, 23808, Note_on_c, 61
1, 23808, Note_on_c, 49
1, 23808, Note_on_c, 56
1, 23808, Note_on_c, 53
1, 23809, Note_off_c, 36
1, 23809, Note_off_c, 42
1, 23812, Note_on_c, 68
1, 23818, Note_off_c, 53
1, 23848, Note_off_c, 61
1, 23848, Note_off_c, 37
1, 23848, Note_off_c, 49
1, 23848, Note_off_c, 56
1, 23856, Note_on_c, 42
1, 23856, Note_on_c, 51
1, 23857, Note_off_c, 42
1, 23858, Note_off_c, 68
1, 23859, Note_on_c, 66
1, 23866, Note_off_c, 51
1, 23886, Note_off_c, 66
1, 23904, Note_on_c, 42
1, 23904, Note_on_c, 38
1, 23904, Note_on_c, 36
1, 23904, Note_on_c, 37
1, 23904, Note_on_c, 61
1, 23904, Note_on_c, 56
1, 23904, Note_on_c, 49
1, 23904, Note_on_c, 49
1, 23905, Note_off_c, 36
1, 23905, Note_off_c, 38
1, 23905, Note_off_c, 42
1, 23908, Note_on_c, 68
1, 23914, Note_off_c, 49
1, 23944, Note_off_c, 61
1, 23944, Note_off_c, 49
1, 23944, Note_off_c, 56
1, 23946, Note_off_c, 37
1, 23952, Note_on_c, 42
1, 23952, Note_on_c, 51
1, 23953, Note_off_c, 42
1, 23962, Note_off_c, 51
1, 23978, Note_off_c, 58
1, 23990, Note_off_c, 68
1, 24000, Note_on_c, 42
1, 24000, Note_on_c, 53
1, 24000, Note_on_c, 58
1, 24001, Note_off_c, 42
1, 24010, Note_off_c, 53
1, 24026, Note_off_c, 58
1, 24032, Note_on_c, 56
1, 24048, Note_on_c, 42
1, 24048, Note_on_c, 36
1, 24048, Note_on_c, 51
1, 24049, Note_off_c, 36
1, 24049, Note_off_c, 42
1, 24058, Note_off_c, 51
1, 24058, Note_off_c, 56
1, 24064, Note_on_c, 54
1, 24090, Note_off_c, 54
1, 24096, Note_on_c, 42
1, 24096, Note_on_c, 38
1, 24096, Note_on_c, 49
1, 24096, Note_on_c, 51
1, 24097, Note_off_c, 38
1, 24097, Note_off_c, 42
1, 24097, Note_on_c, 39
1, 24098, Note_off_c, 39
1, 24103, Note_on_c, 39
1, 24104, Note_off_c, 39
1, 24106, Note_off_c, 49
1, 24144, Note_on_c, 42
1, 24144, Note_on_c, 51
1, 24145, Note_off_c, 42
1, 24145, Note_on_c, 70
1, 24154, Note_off_c, 51
1, 24165, Note_off_c, 70
1, 24188, Note_off_c, 61
1, 24188, Note_off_c, 56
1, 24188, Note_off_c, 65
1, 24192, Note_on_c, 66
1, 24192, Note_on_c, 42
1, 24192, Note_on_c, 36
1, 24192, Note_on_c, 54
1, 24192, Note_on_c, 63
1, 24192, Note_on_c, 59
1, 24192, Note_on_c, 49
1, 24193, Note_off_c, 49
1, 24193, Note_off_c, 36
1, 24193, Note_off_c, 42
1, 24219, Note_off_c, 66
1, 24240, Note_on_c, 42
1, 24240, Note_on_c, 35
1, 24240, Note_on_c, 59
1, 24240, Note_on_c, 54
1, 24240, Note_on_c, 47
1, 24240, Note_on_c, 51
1, 24241, Note_off_c, 42
1, 24242, Note_on_c, 66
1, 24252, Note_off_c, 51
1, 24263, Note_off_c, 66
1, 24275, Note_off_c, 35
1, 24280, Note_off_c, 59
1, 24280, Note_off_c, 54
1, 24280, Note_off_c, 47
1, 24288, Note_on_c, 42
1, 24288, Note_on_c, 38
1, 24288, Note_on_c, 35
1, 24288, Note_on_c, 59
1, 24288, Note_on_c, 47
1, 24288, Note_on_c, 54
1, 24288, Note_on_c, 51
1, 24289, Note_off_c, 38
1, 24289, Note_off_c, 42
1, 24290, Note_on_c, 63
1, 24300, Note_off_c, 51
1, 24323, Note_off_c, 35
1, 24328, Note_off_c, 59
1, 24328, Note_off_c, 47
1, 24328, Note_off_c, 54
1, 24329, Note_off_c, 63
1, 24336, Note_on_c, 42
1, 24336, Note_on_c, 51
1, 24337, Note_off_c, 42
1, 24338, Note_on_c, 61
1, 24348, Note_off_c, 51
1, 24362, Note_off_c, 61
1, 24384, Note_on_c, 42
1, 24384, Note_on_c, 36
1, 24384, Note_on_c, 35
1, 24384, Note_on_c, 59
1, 24384, Note_on_c, 54
1, 24384, Note_on_c, 47
1, 24384, Note_on_c, 54
1, 24385, Note_off_c, 36
1, 24385, Note_off_c, 42
1, 24386, Note_on_c, 63
1, 24396, Note_off_c, 54
1, 24419, Note_off_c, 35
1, 24424, Note_off_c, 59
1, 24424, Note_off_c, 54
1, 24424, Note_off_c, 47
1, 24432, Note_on_c, 42
1, 24432, Note_on_c, 51
1, 24433, Note_off_c, 42
1, 24444, Note_off_c, 51
1, 24473, Note_off_c, 63
1, 24480, Note_on_c, 42
1, 24480, Note_on_c, 38
1, 24480, Note_on_c, 49
1, 24481, Note_off_c, 38
1, 24481, Note_off_c, 42
1, 24481, Note_on_c, 39
1, 24482, Note_off_c, 39
1, 24483, Note_on_c, 61
1, 24487, Note_on_c, 39
1, 24488, Note_off_c, 39
1, 24492, Note_off_c, 49
1, 24504, Note_off_c, 61
1, 24528, Note_on_c, 42
1, 24528, Note_on_c, 37
1, 24528, Note_on_c, 61
1, 24528, Note_on_c, 49
1, 24528, Note_on_c, 56
1, 24528, Note_on_c, 51
1, 24529, Note_off_c, 42
1, 24532, Note_on_c, 63
1, 24540, Note_off_c, 51
1, 24547, Note_off_c, 63
1, 24556, Note_off_c, 51
1, 24563, Note_off_c, 37
1, 24568, Note_off_c, 61
1, 24568, Note_off_c, 56
1, 24568, Note_off_c, 49
1, 24572, Note_off_c, 59
1, 24572, Note_off_c, 63
1, 24572, Note_off_c, 54
1, 24576, Note_on_c, 42
1, 24576, Note_on_c, 36
1, 24576, Note_on_c, 37
1, 24576, Note_on_c, 61
1, 24576, Note_on_c, 56
1, 24576, Note_on_c, 65
1, 24576, Note_on_c, 61
1, 24576, Note_on_c, 49
1, 24576, Note_on_c, 56
1, 24576, Note_on_c, 53
1, 24576, Note_on_c, 53
1, 24577, Note_off_c, 36
1, 24577, Note_off_c, 42
1, 24578, Note_on_c, 63
1, 24588, Note_off_c, 53
1, 24604, Note_off_c, 63
1, 24616, Note_off_c, 49
1, 24616, Note_off_c, 61
1, 24616, Note_off_c, 37
1, 24616, Note_off_c, 56
1, 24624, Note_on_c, 42
1, 24624, Note_on_c, 51
1, 24625, Note_off_c, 42
1, 24630, Note_on_c, 63
1, 24636, Note_off_c, 51
1, 24650, Note_off_c, 63
1, 24672, Note_on_c, 42
1, 24672, Note_on_c, 38
1, 24672, Note_on_c, 36
1, 24672, Note_on_c, 37
1, 24672, Note_on_c, 61
1, 24672, Note_on_c, 56
1, 24672, Note_on_c, 49
1, 24672, Note_on_c, 49
1, 24673, Note_off_c, 36
1, 24673, Note_off_c, 38
1, 24673, Note_off_c, 42
1, 24678, Note_on_c, 61
1, 24684, Note_off_c, 49
1, 24707, Note_off_c, 37
1, 24712, Note_off_c, 61
1, 24712, Note_off_c, 49
1, 24712, Note_off_c, 56
1, 24714, Note_off_c, 61
1, 24720, Note_on_c, 42
1, 24720, Note_on_c, 51
1, 24721, Note_off_c, 42
1, 24723, Note_on_c, 58
1, 24732, Note_off_c, 51
1, 24743, Note_off_c, 58
1, 24768, Note_on_c, 42
1, 24768, Note_on_c, 53
1, 24769, Note_off_c, 42
1, 24771, Note_on_c, 61
1, 24780, Note_off_c, 53
1, 24816, Note_on_c, 42
1, 24816, Note_on_c, 36
1, 24816, Note_on_c, 51
1, 24817, Note_off_c, 36
1, 24817, Note_off_c, 42
1, 24828, Note_off_c, 51
1, 24848, Note_off_c, 61
1, 24864, Note_on_c, 63
1, 24864, Note_on_c, 63
1, 24864, Note_on_c, 42
1, 24864, Note_on_c, 38
1, 24864, Note_on_c, 49
1, 24865, Note_off_c, 38
1, 24865, Note_off_c, 42
1, 24865, Note_on_c, 39
1, 24866, Note_off_c, 39
1, 24866, Note_on_c, 63
1, 24871, Note_on_c, 39
1, 24872, Note_off_c, 39
1, 24876, Note_off_c, 49
1, 24887, Note_off_c, 63
1, 24894, Note_off_c, 63
1, 24896, Note_off_c, 63
1, 24912, Note_on_c, 42
1, 24912, Note_on_c, 51
1, 24913, Note_off_c, 42
1, 24924, Note_off_c, 51
1, 24956, Note_off_c, 61
1, 24956, Note_off_c, 65
1, 24956, Note_off_c, 56
1, 24958, Note_off_c, 53
1, 24959, Note_on_c, 66
1, 24960, Note_on_c, 42
1, 24960, Note_on_c, 36
1, 24960, Note_on_c, 63
1, 24960, Note_on_c, 66
1, 24960, Note_on_c, 58
1, 24960, Note_on_c, 49
1, 24960, Note_on_c, 51
1, 24961, Note_off_c, 49
1, 24961, Note_off_c, 36
1, 24961, Note_off_c, 42
1, 24961, Note_on_c, 66
1, 24962, Note_on_c, 66
1, 25002, Note_off_c, 66
1, 25004, Note_off_c, 66
1, 25007, Note_off_c, 66
1, 25008, Note_on_c, 42
1, 25008, Note_on_c, 39
1, 25008, Note_on_c, 63
1, 25008, Note_on_c, 58
1, 25008, Note_on_c, 51
1, 25008, Note_on_c, 51
1, 25009, Note_off_c, 42
1, 25009, Note_on_c, 63
1, 25010, Note_on_c, 63
1, 25012, Note_on_c, 63
1, 25020, Note_off_c, 51
1, 25024, Note_off_c, 63
1, 25026, Note_off_c, 63
1, 25028, Note_off_c, 63
1, 25043, Note_off_c, 39
1, 25048, Note_off_c, 63
1, 25048, Note_off_c, 58
1, 25048, Note_off_c, 51
1, 25056, Note_on_c, 42
1, 25056, Note_on_c, 38
1, 25056, Note_on_c, 39
1, 25056, Note_on_c, 63
1, 25056, Note_on_c, 58
1, 25056, Note_on_c, 51
1, 25056, Note_on_c, 51
1, 25057, Note_off_c, 38
1, 25057, Note_off_c, 42
1, 25068, Note_off_c, 51
1, 25096, Note_off_c, 63
1, 25096, Note_off_c, 39
1, 25096, Note_off_c, 58
1, 25096, Note_off_c, 51
1, 25104, Note_on_c, 42
1, 25104, Note_on_c, 51
1, 25105, Note_off_c, 42
1, 25116, Note_off_c, 51
1, 25152, Note_on_c, 42
1, 25152, Note_on_c, 36
1, 25152, Note_on_c, 39
1, 25152, Note_on_c, 63
1, 25152, Note_on_c, 58
1, 25152, Note_on_c, 51
1, 25152, Note_on_c, 54
1, 25153, Note_off_c, 36
1, 25153, Note_off_c, 42
1, 25164, Note_off_c, 54
1, 25192, Note_off_c, 63
1, 25192, Note_off_c, 58
1, 25192, Note_off_c, 51
1, 25194, Note_off_c, 39
1, 25200, Note_on_c, 42
1, 25200, Note_on_c, 51
1, 25201, Note_off_c, 42
1, 25212, Note_off_c, 51
1, 25248, Note_on_c, 42
1, 25248, Note_on_c, 38
1, 25248, Note_on_c, 49
1, 25249, Note_off_c, 38
1, 25249, Note_off_c, 42
1, 25249, Note_on_c, 39
1, 25250, Note_off_c, 39
1, 25252, Note_on_c, 70
1, 25255, Note_on_c, 39
1, 25256, Note_off_c, 39
1, 25260, Note_off_c, 49
1, 25269, Note_off_c, 70
1, 25296, Note_on_c, 42
1, 25296, Note_on_c, 37
1, 25296, Note_on_c, 61
1, 25296, Note_on_c, 56
1, 25296, Note_on_c, 49
1, 25296, Note_on_c, 51
1, 25297, Note_off_c, 42
1, 25301, Note_on_c, 70
1, 25308, Note_off_c, 51
1, 25315, Note_off_c, 70
1, 25331, Note_off_c, 37
1, 25336, Note_off_c, 61
1, 25336, Note_off_c, 56
1, 25336, Note_off_c, 49
1, 25340, Note_off_c, 66
1, 25340, Note_off_c, 63
1, 25340, Note_off_c, 51
1, 25340, Note_off_c, 58
1, 25342, Note_on_c, 49
1, 25344, Note_on_c, 42
1, 25344, Note_on_c, 36
1, 25344, Note_on_c, 37
1, 25344, Note_on_c, 61
1, 25344, Note_on_c, 65
1, 25344, Note_on_c, 56
1, 25344, Note_on_c, 61
1, 25344, Note_on_c, 56
1, 25344, Note_on_c, 49
1, 25344, Note_on_c, 53
1, 25345, Note_off_c, 36
1, 25345, Note_off_c, 42
1, 25347, Note_on_c, 71
1, 25356, Note_off_c, 53
1, 25371, Note_off_c, 71
1, 25384, Note_off_c, 61
1, 25384, Note_off_c, 37
1, 25384, Note_off_c, 56
1, 25384, Note_off_c, 49
1, 25392, Note_on_c, 42
1, 25392, Note_on_c, 51
1, 25393, Note_off_c, 42
1, 25397, Note_on_c, 70
1, 25404, Note_off_c, 51
1, 25418, Note_off_c, 70
1, 25440, Note_on_c, 42
1, 25440, Note_on_c, 38
1, 25440, Note_on_c, 36
1, 25440, Note_on_c, 37
1, 25440, Note_on_c, 61
1, 25440, Note_on_c, 56
1, 25440, Note_on_c, 49
1, 25440, Note_on_c, 49
1, 25441, Note_off_c, 36
1, 25441, Note_off_c, 38
1, 25441, Note_off_c, 42
1, 25445, Note_on_c, 68
1, 25452, Note_off_c, 49
1, 25474, Note_off_c, 68
1, 25480, Note_off_c, 61
1, 25480, Note_off_c, 49
1, 25480, Note_off_c, 56
1, 25482, Note_off_c, 37
1, 25488, Note_on_c, 42
1, 25488, Note_on_c, 51
1, 25489, Note_off_c, 42
1, 25500, Note_off_c, 51
1, 25536, Note_on_c, 42
1, 25537, Note_off_c, 42
1, 25538, Note_on_c, 70
1, 25584, Note_on_c, 42
1, 25584, Note_on_c, 36
1, 25585, Note_off_c, 36
1, 25585, Note_off_c, 42
1, 25601, Note_off_c, 70
1, 25630, Note_on_c, 42
1, 25632, Note_on_c, 42
1, 25632, Note_on_c, 38
1, 25632, Note_on_c, 42
1, 25632, Note_on_c, 42
1, 25633, Note_off_c, 38
1, 25633, Note_off_c, 42
1, 25633, Note_on_c, 39
1, 25634, Note_off_c, 39
1, 25634, Note_on_c, 68
1, 25639, Note_on_c, 39
1, 25640, Note_off_c, 39
1, 25666, Note_off_c, 68
1, 25670, Note_off_c, 42
1, 25672, Note_off_c, 42
1, 25672, Note_off_c, 42
1, 25678, Note_on_c, 39
1, 25680, Note_on_c, 46
1, 25680, Note_on_c, 36
1, 25680, Note_on_c, 27
1, 25680, Note_on_c, 39
1, 25680, Note_on_c, 39
1, 25681, Note_off_c, 36
1, 25681, Note_off_c, 46
1, 25724, Note_off_c, 56
1, 25724, Note_off_c, 65
1, 25724, Note_off_c, 61
1, 25724, Note_off_c, 49
1, 25727, Note_on_c, 70
1, 25728, Note_on_c, 57
1, 25728, Note_on_c, 36
1, 25728, Note_on_c, 63
1, 25728, Note_on_c, 66
1, 25728, Note_on_c, 58
1, 25728, Note_on_c, 78
1, 25728, Note_on_c, 82
1, 25728, Note_on_c, 70
1, 25728, Note_on_c, 66
1, 25729, Note_off_c, 36
1, 25729, Note_off_c, 57
1, 25729, Note_on_c, 70
1, 25732, Note_on_c, 70
1, 25761, Note_off_c, 70
1, 25767, Note_off_c, 70
1, 25767, Note_off_c, 70
1, 25770, Note_off_c, 39
1, 25772, Note_off_c, 39
1, 25774, Note_off_c, 27
1, 25774, Note_off_c, 39
1, 25774, Note_on_c, 42
1, 25776, Note_on_c, 42
1, 25776, Note_on_c, 30
1, 25776, Note_on_c, 42
1, 25776, Note_on_c, 42
1, 25777, Note_off_c, 42
1, 25777, Note_on_c, 70
1, 25778, Note_on_c, 70
1, 25781, Note_on_c, 70
1, 25821, Note_off_c, 42
1, 25822, Note_on_c, 46
1, 25823, Note_off_c, 30
1, 25823, Note_off_c, 42
1, 25823, Note_off_c, 42
1, 25824, Note_on_c, 42
1, 25824, Note_on_c, 38
1, 25824, Note_on_c, 34
1, 25824, Note_on_c, 46
1, 25824, Note_on_c, 46
1, 25825, Note_off_c, 38
1, 25825, Note_off_c, 42
1, 25869, Note_off_c, 46
1, 25870, Note_on_c, 54
1, 25871, Note_off_c, 46
1, 25871, Note_off_c, 46
1, 25871, Note_off_c, 34
1, 25872, Note_on_c, 42
1, 25872, Note_on_c, 42
1, 25872, Note_on_c, 54
1, 25872, Note_on_c, 54
1, 25873, Note_off_c, 42
1, 25891, Note_off_c, 70
1, 25896, Note_off_c, 70
1, 25901, Note_off_c, 70
1, 25917, Note_off_c, 54
1, 25918, Note_on_c, 51
1, 25919, Note_off_c, 42
1, 25919, Note_off_c, 54
1, 25919, Note_off_c, 54
1, 25920, Note_on_c, 63
1, 25920, Note_on_c, 42
1, 25920, Note_on_c, 36
1, 25920, Note_on_c, 39
1, 25920, Note_on_c, 51
1, 25920, Note_on_c, 51
1, 25921, Note_off_c, 36
1, 25921, Note_off_c, 42
1, 25921, Note_on_c, 66
1, 25955, Note_off_c, 66
1, 25957, Note_off_c, 63
1, 25968, Note_on_c, 42
1, 25969, Note_off_c, 42
1, 25969, Note_on_c, 66
1, 25969, Note_on_c, 63
1, 26016, Note_on_c, 42
1, 26016, Note_on_c, 38
1, 26017, Note_off_c, 38
1, 26017, Note_off_c, 42
1, 26017, Note_on_c, 39
1, 26018, Note_off_c, 39
1, 26023, Note_on_c, 39
1, 26024, Note_off_c, 39
1, 26059, Note_off_c, 51
1, 26061, Note_off_c, 51
1, 26061, Note_off_c, 51
1, 26061, Note_off_c, 39
1, 26061, Note_on_c, 51
1, 26063, Note_on_c, 39
1, 26063, Note_on_c, 51
1, 26063, Note_on_c, 51
1, 26064, Note_on_c, 42
1, 26065, Note_off_c, 42
1, 26071, Note_off_c, 66
1, 26088, Note_off_c, 63
1, 26108, Note_off_c, 63
1, 26108, Note_off_c, 58
1, 26108, Note_off_c, 82
1, 26108, Note_off_c, 66
1, 26108, Note_off_c, 78
1, 26110, Note_on_c, 70
1, 26112, Note_on_c, 70
1, 26112, Note_on_c, 42
1, 26112, Note_on_c, 36
1, 26112, Note_on_c, 61
1, 26112, Note_on_c, 56
1, 26112, Note_on_c, 65
1, 26112, Note_on_c, 80
1, 26112, Note_on_c, 77
1, 26113, Note_off_c, 36
1, 26113, Note_off_c, 42
1, 26114, Note_on_c, 70
1, 26145, Note_off_c, 70
1, 26147, Note_off_c, 70
1, 26150, Note_off_c, 70
1, 26152, Note_off_c, 51
1, 26154, Note_off_c, 51
1, 26157, Note_off_c, 39
1, 26157, Note_off_c, 51
1, 26158, Note_on_c, 51
1, 26159, Note_on_c, 70
1, 26160, Note_on_c, 42
1, 26160, Note_on_c, 39
1, 26160, Note_on_c, 51
1, 26160, Note_on_c, 51
1, 26161, Note_off_c, 42
1, 26161, Note_on_c, 70
1, 26162, Note_on_c, 70
1, 26203, Note_off_c, 51
1, 26205, Note_off_c, 39
1, 26205, Note_off_c, 51
1, 26205, Note_off_c, 51
1, 26206, Note_on_c, 49
1, 26208, Note_on_c, 42
1, 26208, Note_on_c, 38
1, 26208, Note_on_c, 36
1, 26208, Note_on_c, 37
1, 26208, Note_on_c, 49
1, 26208, Note_on_c, 49
1, 26209, Note_off_c, 36
1, 26209, Note_off_c, 38
1, 26209, Note_off_c, 42
1, 26244, Note_off_c, 49
1, 26246, Note_off_c, 49
1, 26246, Note_off_c, 37
1, 26246, Note_off_c, 49
1, 26256, Note_on_c, 42
1, 26257, Note_off_c, 42
1, 26263, Note_off_c, 70
1, 26270, Note_off_c, 70
1, 26274, Note_off_c, 70
1, 26302, Note_on_c, 49
1, 26303, Note_on_c, 65
1, 26303, Note_on_c, 61
1, 26304, Note_on_c, 42
1, 26304, Note_on_c, 37
1, 26304, Note_on_c, 49
1, 26304, Note_on_c, 49
1, 26305, Note_off_c, 42
1, 26311, Note_off_c, 66
1, 26339, Note_off_c, 37
1, 26339, Note_off_c, 49
1, 26342, Note_off_c, 49
1, 26343, Note_off_c, 61
1, 26343, Note_off_c, 65
1, 26344, Note_off_c, 49
1, 26352, Note_on_c, 65
1, 26352, Note_on_c, 42
1, 26352, Note_on_c, 36
1, 26353, Note_off_c, 36
1, 26353, Note_off_c, 42
1, 26353, Note_on_c, 61
1, 26400, Note_on_c, 42
1, 26400, Note_on_c, 38
1, 26401, Note_off_c, 38
1, 26401, Note_off_c, 42
1, 26401, Note_on_c, 39
1, 26402, Note_off_c, 39
1, 26407, Note_on_c, 39
1, 26408, Note_off_c, 39
1, 26432, Note_off_c, 65
1, 26436, Note_off_c, 61
1, 26446, Note_on_c, 39
1, 26448, Note_on_c, 42
1, 26448, Note_on_c, 27
1, 26448, Note_on_c, 39
1, 26448, Note_on_c, 39
1, 26449, Note_off_c, 42
1, 26449, Note_on_c, 66
1, 26451, Note_on_c, 63
1, 26453, Note_on_c, 70
1, 26484, Note_on_c, 73
1, 26492, Note_off_c, 80
1, 26492, Note_off_c, 56
1, 26492, Note_off_c, 61
1, 26492, Note_off_c, 65
1, 26492, Note_off_c, 77
1, 26496, Note_on_c, 42
1, 26496, Note_on_c, 36
1, 26496, Note_on_c, 63
1, 26496, Note_on_c, 66
1, 26496, Note_on_c, 58
1, 26496, Note_on_c, 82
1, 26496, Note_on_c, 78
1, 26497, Note_off_c, 36
1, 26497, Note_off_c, 42
1, 26513, Note_off_c, 63
1, 26517, Note_off_c, 66
1, 26518, Note_off_c, 70
1, 26540, Note_off_c, 39
1, 26542, Note_off_c, 39
1, 26542, Note_off_c, 27
1, 26542, Note_off_c, 39
1, 26542, Note_on_c, 42
1, 26544, Note_on_c, 42
1, 26544, Note_on_c, 30
1, 26544, Note_on_c, 42
1, 26544, Note_on_c, 42
1, 26545, Note_off_c, 42
1, 26545, Note_on_c, 66
1, 26545, Note_on_c, 63
1, 26546, Note_on_c, 70
1, 26558, Note_off_c, 66
1, 26560, Note_off_c, 63
1, 26562, Note_off_c, 70
1, 26588, Note_off_c, 42
1, 26590, Note_off_c, 30
1, 26590, Note_off_c, 42
1, 26590, Note_off_c, 42
1, 26590, Note_on_c, 46
1, 26591, Note_on_c, 66
1, 26592, Note_on_c, 42
1, 26592, Note_on_c, 38
1, 26592, Note_on_c, 34
1, 26592, Note_on_c, 46
1, 26592, Note_on_c, 46
1, 26593, Note_off_c, 38
1, 26593, Note_off_c, 42
1, 26593, Note_on_c, 63
1, 26594, Note_on_c, 70
1, 26603, Note_off_c, 66
1, 26607, Note_off_c, 63
1, 26607, Note_off_c, 70
1, 26636, Note_off_c, 46
1, 26638, Note_off_c, 46
1, 26638, Note_off_c, 46
1, 26638, Note_off_c, 34
1, 26638, Note_on_c, 54
1, 26640, Note_on_c, 66
1, 26640, Note_on_c, 63
1, 26640, Note_on_c, 42
1, 26640, Note_on_c, 42
1, 26640, Note_on_c, 54
1, 26640, Note_on_c, 54
1, 26641, Note_off_c, 42
1, 26642, Note_on_c, 70
1, 26650, Note_off_c, 66
1, 26654, Note_off_c, 70
1, 26661, Note_off_c, 63
1, 26684, Note_off_c, 54
1, 26686, Note_off_c, 42
1, 26686, Note_off_c, 54
1, 26686, Note_off_c, 54
1, 26686, Note_on_c, 51
1, 26688, Note_on_c, 70
1, 26688, Note_on_c, 66
1, 26688, Note_on_c, 42
1, 26688, Note_on_c, 36
1, 26688, Note_on_c, 39
1, 26688, Note_on_c, 51
1, 26688, Note_on_c, 51
1, 26689, Note_off_c, 36
1, 26689, Note_off_c, 42
1, 26690, Note_on_c, 73
1, 26736, Note_on_c, 42
1, 26737, Note_off_c, 42
1, 26755, Note_off_c, 70
1, 26759, Note_off_c, 73
1, 26769, Note_off_c, 66
1, 26784, Note_on_c, 66
1, 26784, Note_on_c, 63
1, 26784, Note_on_c, 42
1, 26784, Note_on_c, 38
1, 26785, Note_off_c, 38
1, 26785, Note_off_c, 42
1, 26785, Note_on_c, 70
1, 26785, Note_on_c, 39
1, 26786, Note_off_c, 39
1, 26791, Note_on_c, 39
1, 26792, Note_off_c, 39
1, 26794, Note_off_c, 70
1, 26801, Note_off_c, 63
1, 26804, Note_off_c, 66
1, 26827, Note_off_c, 51
1, 26829, Note_off_c, 51
1, 26829, Note_off_c, 51
1, 26829, Note_off_c, 39
1, 26829, Note_on_c, 51
1, 26831, Note_on_c, 39
1, 26831, Note_on_c, 51
1, 26831, Note_on_c, 51
1, 26832, Note_on_c, 68
1, 26832, Note_on_c, 42
1, 26833, Note_off_c, 42
1, 26833, Note_on_c, 65
1, 26836, Note_on_c, 73
1, 26865, Note_off_c, 73
1, 26876, Note_off_c, 82
1, 26876, Note_off_c, 66
1, 26876, Note_off_c, 63
1, 26876, Note_off_c, 78
1, 26876, Note_off_c, 58
1, 26876, Note_on_c, 75
1, 26880, Note_on_c, 42
1, 26880, Note_on_c, 36
1, 26880, Note_on_c, 61
1, 26880, Note_on_c, 56
1, 26880, Note_on_c, 65
1, 26880, Note_on_c, 80
1, 26880, Note_on_c, 77
1, 26881, Note_off_c, 36
1, 26881, Note_off_c, 42
1, 26900, Note_off_c, 73
1, 26907, Note_off_c, 68
1, 26916, Note_off_c, 65
1, 26924, Note_off_c, 51
1, 26926, Note_off_c, 39
1, 26926, Note_off_c, 51
1, 26926, Note_off_c, 51
1, 26926, Note_on_c, 65
1, 26926, Note_on_c, 51
1, 26928, Note_on_c, 61
1, 26928, Note_on_c, 42
1, 26928, Note_on_c, 39
1, 26928, Note_on_c, 51
1, 26928, Note_on_c, 51
1, 26929, Note_off_c, 42
1, 26930, Note_on_c, 70
1, 26939, Note_off_c, 65
1, 26941, Note_off_c, 61
1, 26942, Note_off_c, 70
1, 26968, Note_off_c, 51
1, 26970, Note_off_c, 39
1, 26970, Note_off_c, 51
1, 26970, Note_off_c, 51
1, 26974, Note_on_c, 49
1, 26976, Note_on_c, 42
1, 26976, Note_on_c, 38
1, 26976, Note_on_c, 36
1, 26976, Note_on_c, 37
1, 26976, Note_on_c, 49
1, 26976, Note_on_c, 49
1, 26977, Note_off_c, 36
1, 26977, Note_off_c, 38
1, 26977, Note_off_c, 42
1, 27014, Note_off_c, 49
1, 27014, Note_off_c, 37
1, 27015, Note_off_c, 49
1, 27017, Note_off_c, 49
1, 27024, Note_on_c, 42
1, 27025, Note_off_c, 42
1, 27072, Note_on_c, 42
1, 27073, Note_off_c, 42
1, 27120, Note_on_c, 42
1, 27120, Note_on_c, 36
1, 27121, Note_off_c, 36
1, 27121, Note_off_c, 42
1, 27168, Note_on_c, 42
1, 27168, Note_on_c, 38
1, 27169, Note_off_c, 38
1, 27169, Note_off_c, 42
1, 27169, Note_on_c, 39
1, 27170, Note_off_c, 39
1, 27175, Note_on_c, 39
1, 27176, Note_off_c, 39
1, 27214, Note_on_c, 39
1, 27216, Note_on_c, 42
1, 27216, Note_on_c, 27
1, 27216, Note_on_c, 39
1, 27216, Note_on_c, 39
1, 27217, Note_off_c, 42
1, 27217, Note_on_c, 68
1, 27218, Note_on_c, 66
1, 27218, Note_on_c, 66
1, 27225, Note_off_c, 75
1, 27234, Note_off_c, 66
1, 27234, Note_off_c, 66
1, 27235, Note_off_c, 70
1, 27256, Note_off_c, 68
1, 27258, Note_on_c, 70
1, 27260, Note_off_c, 80
1, 27260, Note_off_c, 56
1, 27260, Note_off_c, 65
1, 27260, Note_off_c, 61
1, 27260, Note_off_c, 77
1, 27262, Note_on_c, 66
1, 27264, Note_on_c, 42
1, 27264, Note_on_c, 36
1, 27264, Note_on_c, 63
1, 27264, Note_on_c, 66
1, 27264, Note_on_c, 58
1, 27264, Note_on_c, 82
1, 27264, Note_on_c, 78
1, 27265, Note_off_c, 36
1, 27265, Note_off_c, 42
1, 27309, Note_off_c, 39
1, 27310, Note_on_c, 42
1, 27311, Note_off_c, 27
1, 27311, Note_off_c, 39
1, 27311, Note_off_c, 39
1, 27312, Note_on_c, 42
1, 27312, Note_on_c, 30
1, 27312, Note_on_c, 42
1, 27312, Note_on_c, 42
1, 27313, Note_off_c, 42
1, 27313, Note_on_c, 63
1, 27313, Note_on_c, 63
1, 27318, Note_on_c, 66
1, 27325, Note_off_c, 63
1, 27325, Note_off_c, 63
1, 27334, Note_off_c, 66
1, 27357, Note_off_c, 42
1, 27358, Note_on_c, 46
1, 27359, Note_off_c, 30
1, 27359, Note_off_c, 42
1, 27359, Note_off_c, 42
1, 27359, Note_on_c, 65
1, 27360, Note_on_c, 66
1, 27360, Note_on_c, 42
1, 27360, Note_on_c, 38
1, 27360, Note_on_c, 34
1, 27360, Note_on_c, 46
1, 27360, Note_on_c, 46
1, 27361, Note_off_c, 38
1, 27361, Note_off_c, 42
1, 27361, Note_on_c, 68
1, 27379, Note_off_c, 65
1, 27380, Note_off_c, 66
1, 27380, Note_off_c, 68
1, 27405, Note_off_c, 46
1, 27406, Note_on_c, 54
1, 27407, Note_off_c, 46
1, 27407, Note_off_c, 46
1, 27407, Note_off_c, 34
1, 27408, Note_on_c, 42
1, 27408, Note_on_c, 42
1, 27408, Note_on_c, 54
1, 27408, Note_on_c, 54
1, 27409, Note_off_c, 42
1, 27453, Note_off_c, 54
1, 27454, Note_on_c, 51
1, 27455, Note_off_c, 42
1, 27455, Note_off_c, 54
1, 27455, Note_off_c, 54
1, 27455, Note_on_c, 63
1, 27456, Note_on_c, 42
1, 27456, Note_on_c, 36
1, 27456, Note_on_c, 39
1, 27456, Note_on_c, 51
1, 27456, Note_on_c, 51
1, 27457, Note_off_c, 36
1, 27457, Note_off_c, 42
1, 27457, Note_on_c, 61
1, 27458, Note_on_c, 66
1, 27489, Note_off_c, 66
1, 27500, Note_off_c, 63
1, 27502, Note_off_c, 61
1, 27504, Note_on_c, 42
1, 27505, Note_off_c, 42
1, 27505, Note_on_c, 65
1, 27506, Note_on_c, 63
1, 27508, Note_on_c, 68
1, 27517, Note_off_c, 65
1, 27518, Note_off_c, 63
1, 27521, Note_off_c, 68
1, 27552, Note_on_c, 42
1, 27552, Note_on_c, 38
1, 27553, Note_off_c, 38
1, 27553, Note_off_c, 42
1, 27553, Note_on_c, 39
1, 27554, Note_off_c, 39
1, 27559, Note_on_c, 39
1, 27560, Note_off_c, 39
1, 27595, Note_off_c, 51
1, 27597, Note_off_c, 51
1, 27597, Note_off_c, 51
1, 27597, Note_off_c, 39
1, 27597, Note_on_c, 51
1, 27599, Note_on_c, 39
1, 27599, Note_on_c, 51
1, 27599, Note_on_c, 51
1, 27600, Note_on_c, 42
1, 27601, Note_off_c, 42
1, 27601, Note_on_c, 65
1, 27601, Note_on_c, 63
1, 27606, Note_on_c, 68
1, 27621, Note_off_c, 63
1, 27621, Note_off_c, 65
1, 27639, Note_off_c, 66
1, 27643, Note_off_c, 70
1, 27644, Note_off_c, 82
1, 27644, Note_off_c, 78
1, 27644, Note_off_c, 66
1, 27644, Note_off_c, 58
1, 27644, Note_off_c, 63
1, 27647, Note_on_c, 68
1, 27648, Note_on_c, 42
1, 27648, Note_on_c, 36
1, 27648, Note_on_c, 61
1, 27648, Note_on_c, 56
1, 27648, Note_on_c, 65
1, 27648, Note_on_c, 80
1, 27648, Note_on_c, 77
1, 27649, Note_off_c, 36
1, 27649, Note_off_c, 42
1, 27649, Note_on_c, 65
1, 27675, Note_off_c, 68
1, 27688, Note_off_c, 51
1, 27690, Note_off_c, 51
1, 27693, Note_off_c, 39
1, 27693, Note_off_c, 51
1, 27694, Note_on_c, 51
1, 27696, Note_on_c, 42
1, 27696, Note_on_c, 39
1, 27696, Note_on_c, 51
1, 27696, Note_on_c, 51
1, 27697, Note_off_c, 42
1, 27697, Note_on_c, 63
1, 27697, Note_on_c, 61
1, 27701, Note_on_c, 66
1, 27714, Note_off_c, 66
1, 27717, Note_off_c, 61
1, 27717, Note_off_c, 63
1, 27739, Note_off_c, 51
1, 27741, Note_off_c, 39
1, 27741, Note_off_c, 51
1, 27741, Note_off_c, 51
1, 27742, Note_on_c, 49
1, 27744, Note_on_c, 63
1, 27744, Note_on_c, 42
1, 27744, Note_on_c, 38
1, 27744, Note_on_c, 36
1, 27744, Note_on_c, 37
1, 27744, Note_on_c, 49
1, 27744, Note_on_c, 49
1, 27745, Note_off_c, 36
1, 27745, Note_off_c, 38
1, 27745, Note_off_c, 42
1, 27745, Note_on_c, 65
1, 27746, Note_on_c, 68
1, 27759, Note_off_c, 63
1, 27764, Note_off_c, 65
1, 27769, Note_off_c, 68
1, 27780, Note_off_c, 49
1, 27782, Note_off_c, 49
1, 27782, Note_off_c, 37
1, 27782, Note_off_c, 49
1, 27792, Note_on_c, 42
1, 27793, Note_off_c, 42
1, 27838, Note_on_c, 49
1, 27839, Note_on_c, 63
1, 27839, Note_on_c, 61
1, 27840, Note_on_c, 42
1, 27840, Note_on_c, 37
1, 27840, Note_on_c, 49
1, 27840, Note_on_c, 49
1, 27841, Note_off_c, 42
1, 27842, Note_on_c, 66
1, 27868, Note_off_c, 66
1, 27875, Note_off_c, 37
1, 27875, Note_off_c, 49
1, 27878, Note_off_c, 49
1, 27879, Note_off_c, 61
1, 27880, Note_off_c, 49
1, 27884, Note_off_c, 63
1, 27888, Note_on_c, 58
1, 27888, Note_on_c, 42
1, 27888, Note_on_c, 36
1, 27889, Note_off_c, 36
1, 27889, Note_off_c, 42
1, 27890, Note_on_c, 61
1, 27891, Note_on_c, 63
1, 27900, Note_off_c, 58
1, 27900, Note_off_c, 61
1, 27900, Note_off_c, 63
1, 27936, Note_on_c, 42
1, 27936, Note_on_c, 38
1, 27937, Note_off_c, 38
1, 27937, Note_off_c, 42
1, 27937, Note_on_c, 39
1, 27938, Note_off_c, 39
1, 27943, Note_on_c, 39
1, 27944, Note_off_c, 39
1, 27982, Note_on_c, 39
1, 27984, Note_on_c, 65
1, 27984, Note_on_c, 42
1, 27984, Note_on_c, 27
1, 27984, Note_on_c, 39
1, 27984, Note_on_c, 39
1, 27985, Note_off_c, 42
1, 27985, Note_on_c, 65
1, 27988, Note_on_c, 68
1, 28004, Note_off_c, 65
1, 28010, Note_off_c, 65
1, 28015, Note_off_c, 68
1, 28018, Note_off_c, 65
1, 28018, Note_off_c, 68
1, 28022, Note_on_c, 66
1, 28025, Note_on_c, 70
1, 28028, Note_off_c, 77
1, 28028, Note_off_c, 80
1, 28028, Note_off_c, 56
1, 28028, Note_off_c, 61
1, 28028, Note_off_c, 65
1, 28032, Note_on_c, 42
1, 28032, Note_on_c, 36
1, 28032, Note_on_c, 63
1, 28032, Note_on_c, 66
1, 28032, Note_on_c, 58
1, 28032, Note_on_c, 82
1, 28032, Note_on_c, 78
1, 28033, Note_off_c, 36
1, 28033, Note_off_c, 42
1, 28076, Note_off_c, 39
1, 28078, Note_off_c, 39
1, 28078, Note_off_c, 39
1, 28078, Note_off_c, 27
1, 28078, Note_on_c, 42
1, 28080, Note_on_c, 42
1, 28080, Note_on_c, 30
1, 28080, Note_on_c, 42
1, 28080, Note_on_c, 42
1, 28081, Note_off_c, 42
1, 28081, Note_on_c, 63
1, 28081, Note_on_c, 63
1, 28085, Note_on_c, 66
1, 28094, Note_off_c, 63
1, 28096, Note_off_c, 63
1, 28103, Note_off_c, 66
1, 28124, Note_off_c, 42
1, 28126, Note_off_c, 30
1, 28126, Note_off_c, 42
1, 28126, Note_off_c, 42
1, 28126, Note_on_c, 46
1, 28128, Note_on_c, 42
1, 28128, Note_on_c, 38
1, 28128, Note_on_c, 34
1, 28128, Note_on_c, 46
1, 28128, Note_on_c, 46
1, 28129, Note_off_c, 38
1, 28129, Note_off_c, 42
1, 28129, Note_on_c, 65
1, 28131, Note_on_c, 68
1, 28131, Note_on_c, 66
1, 28148, Note_off_c, 66
1, 28149, Note_off_c, 65
1, 28159, Note_off_c, 68
1, 28172, Note_off_c, 46
1, 28174, Note_off_c, 46
1, 28174, Note_off_c, 46
1, 28174, Note_off_c, 34
1, 28174, Note_on_c, 54
1, 28176, Note_on_c, 42
1, 28176, Note_on_c, 42
1, 28176, Note_on_c, 54
1, 28176, Note_on_c, 54
1, 28177, Note_off_c, 42
1, 28220, Note_off_c, 54
1, 28222, Note_off_c, 42
1, 28222, Note_off_c, 54
1, 28222, Note_off_c, 54
1, 28222, Note_on_c, 51
1, 28224, Note_on_c, 63
1, 28224, Note_on_c, 42
1, 28224, Note_on_c, 36
1, 28224, Note_on_c, 39
1, 28224, Note_on_c, 51
1, 28224, Note_on_c, 51
1, 28225, Note_off_c, 36
1, 28225, Note_off_c, 42
1, 28225, Note_on_c, 63
1, 28228, Note_on_c, 66
1, 28260, Note_off_c, 66
1, 28261, Note_off_c, 63
1, 28265, Note_off_c, 63
1, 28272, Note_on_c, 42
1, 28273, Note_off_c, 42
1, 28273, Note_on_c, 65
1, 28275, Note_on_c, 61
1, 28276, Note_on_c, 68
1, 28287, Note_off_c, 61
1, 28287, Note_off_c, 65
1, 28289, Note_off_c, 68
1, 28320, Note_on_c, 42
1, 28320, Note_on_c, 38
1, 28321, Note_off_c, 38
1, 28321, Note_off_c, 42
1, 28321, Note_on_c, 39
1, 28322, Note_off_c, 39
1, 28327, Note_on_c, 39
1, 28328, Note_off_c, 39
1, 28363, Note_off_c, 51
1, 28365, Note_off_c, 51
1, 28365, Note_off_c, 51
1, 28365, Note_off_c, 39
1, 28365, Note_on_c, 51
1, 28367, Note_on_c, 39
1, 28367, Note_on_c, 51
1, 28367, Note_on_c, 51
1, 28368, Note_on_c, 65
1, 28368, Note_on_c, 42
1, 28369, Note_off_c, 42
1, 28370, Note_on_c, 63
1, 28372, Note_on_c, 68
1, 28383, Note_off_c, 63
1, 28394, Note_off_c, 65
1, 28410, Note_off_c, 68
1, 28412, Note_off_c, 82
1, 28412, Note_off_c, 66
1, 28412, Note_off_c, 63
1, 28412, Note_off_c, 58
1, 28412, Note_off_c, 78
1, 28414, Note_off_c, 66
1, 28416, Note_on_c, 42
1, 28416, Note_on_c, 36
1, 28416, Note_on_c, 61
1, 28416, Note_on_c, 56
1, 28416, Note_on_c, 65
1, 28416, Note_on_c, 80
1, 28416, Note_on_c, 77
1, 28417, Note_off_c, 36
1, 28417, Note_off_c, 42
1, 28417, Note_on_c, 65
1, 28418, Note_off_c, 70
1, 28424, Note_on_c, 68
1, 28460, Note_off_c, 51
1, 28462, Note_off_c, 51
1, 28462, Note_off_c, 39
1, 28462, Note_off_c, 51
1, 28462, Note_on_c, 51
1, 28464, Note_on_c, 42
1, 28464, Note_on_c, 39
1, 28464, Note_on_c, 51
1, 28464, Note_on_c, 51
1, 28465, Note_off_c, 42
1, 28465, Note_on_c, 63
1, 28465, Note_on_c, 61
1, 28467, Note_on_c, 66
1, 28478, Note_off_c, 61
1, 28482, Note_off_c, 63
1, 28484, Note_off_c, 66
1, 28504, Note_off_c, 51
1, 28506, Note_off_c, 39
1, 28506, Note_off_c, 51
1, 28506, Note_off_c, 51
1, 28510, Note_on_c, 49
1, 28512, Note_on_c, 42
1, 28512, Note_on_c, 38
1, 28512, Note_on_c, 36
1, 28512, Note_on_c, 37
1, 28512, Note_on_c, 49
1, 28512, Note_on_c, 49
1, 28513, Note_off_c, 36
1, 28513, Note_off_c, 38
1, 28513, Note_off_c, 42
1, 28513, Note_on_c, 65
1, 28513, Note_on_c, 63
1, 28514, Note_on_c, 68
1, 28527, Note_off_c, 63
1, 28532, Note_off_c, 65
1, 28537, Note_off_c, 68
1, 28550, Note_off_c, 49
1, 28550, Note_off_c, 37
1, 28551, Note_off_c, 49
1, 28553, Note_off_c, 49
1, 28560, Note_on_c, 42
1, 28561, Note_off_c, 42
1, 28608, Note_on_c, 63
1, 28608, Note_on_c, 63
1, 28608, Note_on_c, 42
1, 28609, Note_off_c, 42
1, 28610, Note_on_c, 66
1, 28629, Note_off_c, 63
1, 28637, Note_off_c, 66
1, 28640, Note_off_c, 63
1, 28656, Note_on_c, 42
1, 28656, Note_on_c, 36
1, 28657, Note_off_c, 36
1, 28657, Note_off_c, 42
1, 28704, Note_on_c, 65
1, 28704, Note_on_c, 42
1, 28704, Note_on_c, 38
1, 28705, Note_off_c, 38
1, 28705, Note_off_c, 42
1, 28705, Note_on_c, 68
1, 28705, Note_on_c, 39
1, 28706, Note_off_c, 39
1, 28706, Note_on_c, 61
1, 28711, Note_on_c, 39
1, 28712, Note_off_c, 39
1, 28724, Note_off_c, 61
1, 28726, Note_off_c, 65
1, 28728, Note_off_c, 68
1, 28750, Note_on_c, 39
1, 28752, Note_on_c, 42
1, 28752, Note_on_c, 27
1, 28752, Note_on_c, 39
1, 28752, Note_on_c, 39
1, 28753, Note_off_c, 42
1, 28789, Note_off_c, 68
1, 28794, Note_off_c, 65
1, 28796, Note_off_c, 77
1, 28796, Note_off_c, 80
1, 28796, Note_off_c, 65
1, 28796, Note_off_c, 56
1, 28796, Note_off_c, 61
1, 28796, Note_on_c, 70
1, 28798, Note_on_c, 66
1, 28799, Note_on_c, 70
1, 28800, Note_on_c, 70
1, 28800, Note_on_c, 42
1, 28800, Note_on_c, 36
1, 28800, Note_on_c, 63
1, 28800, Note_on_c, 66
1, 28800, Note_on_c, 58
1, 28800, Note_on_c, 78
1, 28800, Note_on_c, 82
1, 28801, Note_off_c, 36
1, 28801, Note_off_c, 42
1, 28802, Note_on_c, 70
1, 28829, Note_off_c, 70
1, 28836, Note_off_c, 70
1, 28838, Note_off_c, 70
1, 28845, Note_off_c, 39
1, 28846, Note_on_c, 42
1, 28847, Note_off_c, 39
1, 28847, Note_off_c, 27
1, 28847, Note_off_c, 39
1, 28847, Note_on_c, 70
1, 28848, Note_on_c, 42
1, 28848, Note_on_c, 30
1, 28848, Note_on_c, 42
1, 28848, Note_on_c, 42
1, 28849, Note_off_c, 42
1, 28849, Note_on_c, 70
1, 28852, Note_on_c, 70
1, 28893, Note_off_c, 42
1, 28894, Note_on_c, 46
1, 28895, Note_off_c, 30
1, 28895, Note_off_c, 42
1, 28895, Note_off_c, 42
1, 28896, Note_on_c, 42
1, 28896, Note_on_c, 38
1, 28896, Note_on_c, 34
1, 28896, Note_on_c, 46
1, 28896, Note_on_c, 46
1, 28897, Note_off_c, 38
1, 28897, Note_off_c, 42
1, 28941, Note_off_c, 46
1, 28942, Note_on_c, 54
1, 28943, Note_off_c, 46
1, 28943, Note_off_c, 46
1, 28943, Note_off_c, 34
1, 28944, Note_on_c, 42
1, 28944, Note_on_c, 42
1, 28944, Note_on_c, 54
1, 28944, Note_on_c, 54
1, 28945, Note_off_c, 42
1, 28959, Note_off_c, 70
1, 28968, Note_off_c, 70
1, 28977, Note_off_c, 70
1, 28989, Note_off_c, 54
1, 28990, Note_on_c, 51
1, 28991, Note_off_c, 42
1, 28991, Note_off_c, 54
1, 28991, Note_off_c, 54
1, 28992, Note_on_c, 42
1, 28992, Note_on_c, 36
1, 28992, Note_on_c, 39
1, 28992, Note_on_c, 51
1, 28992, Note_on_c, 51
1, 28993, Note_off_c, 36
1, 28993, Note_off_c, 42
1, 28993, Note_on_c, 66
1, 28993, Note_on_c, 63
1, 29019, Note_off_c, 66
1, 29028, Note_off_c, 63
1, 29040, Note_on_c, 66
1, 29040, Note_on_c, 42
1, 29041, Note_off_c, 42
1, 29042, Note_on_c, 63
1, 29088, Note_on_c, 42
1, 29088, Note_on_c, 38
1, 29089, Note_off_c, 38
1, 29089, Note_off_c, 42
1, 29089, Note_on_c, 39
1, 29090, Note_off_c, 39
1, 29095, Note_on_c, 39
1, 29096, Note_off_c, 39
1, 29131, Note_off_c, 51
1, 29133, Note_off_c, 51
1, 29133, Note_off_c, 51
1, 29133, Note_off_c, 39
1, 29133, Note_on_c, 51
1, 29135, Note_on_c, 39
1, 29135, Note_on_c, 51
1, 29135, Note_on_c, 51
1, 29136, Note_on_c, 42
1, 29137, Note_off_c, 42
1, 29145, Note_off_c, 66
1, 29161, Note_off_c, 63
1, 29180, Note_off_c, 78
1, 29180, Note_off_c, 58
1, 29180, Note_off_c, 82
1, 29180, Note_off_c, 66
1, 29180, Note_off_c, 63
1, 29182, Note_on_c, 70
1, 29184, Note_on_c, 70
1, 29184, Note_on_c, 42
1, 29184, Note_on_c, 36
1, 29184, Note_on_c, 61
1, 29184, Note_on_c, 56
1, 29184, Note_on_c, 65
1, 29184, Note_on_c, 80
1, 29184, Note_on_c, 77
1, 29185, Note_off_c, 36
1, 29185, Note_off_c, 42
1, 29186, Note_on_c, 70
1, 29216, Note_off_c, 70
1, 29222, Note_off_c, 70
1, 29224, Note_off_c, 51
1, 29226, Note_off_c, 51
1, 29229, Note_off_c, 39
1, 29229, Note_off_c, 51
1, 29230, Note_on_c, 51
1, 29231, Note_on_c, 70
1, 29232, Note_on_c, 42
1, 29232, Note_on_c, 39
1, 29232, Note_on_c, 51
1, 29232, Note_on_c, 51
1, 29233, Note_off_c, 42
1, 29234, Note_on_c, 70
1, 29238, Note_off_c, 70
1, 29238, Note_on_c, 70
1, 29275, Note_off_c, 51
1, 29277, Note_off_c, 39
1, 29277, Note_off_c, 51
1, 29277, Note_off_c, 51
1, 29278, Note_on_c, 49
1, 29280, Note_on_c, 42
1, 29280, Note_on_c, 38
1, 29280, Note_on_c, 36
1, 29280, Note_on_c, 37
1, 29280, Note_on_c, 49
1, 29280, Note_on_c, 49
1, 29281, Note_off_c, 36
1, 29281, Note_off_c, 38
1, 29281, Note_off_c, 42
1, 29310, Note_off_c, 66
1, 29316, Note_off_c, 49
1, 29318, Note_off_c, 37
1, 29318, Note_off_c, 49
1, 29318, Note_off_c, 49
1, 29328, Note_on_c, 42
1, 29329, Note_off_c, 42
1, 29340, Note_off_c, 70
1, 29346, Note_off_c, 70
1, 29356, Note_off_c, 70
1, 29374, Note_on_c, 65
1, 29374, Note_on_c, 49
1, 29375, Note_on_c, 61
1, 29376, Note_on_c, 42
1, 29376, Note_on_c, 37
1, 29376, Note_on_c, 49
1, 29376, Note_on_c, 49
1, 29376, Note_on_c, 73
1, 29377, Note_off_c, 42
1, 29406, Note_off_c, 65
1, 29411, Note_off_c, 49
1, 29411, Note_off_c, 37
1, 29414, Note_off_c, 49
1, 29416, Note_off_c, 49
1, 29421, Note_off_c, 61
1, 29422, Note_on_c, 65
1, 29424, Note_on_c, 42
1, 29424, Note_on_c, 36
1, 29425, Note_off_c, 36
1, 29425, Note_off_c, 42
1, 29426, Note_on_c, 61
1, 29472, Note_on_c, 42
1, 29472, Note_on_c, 38
1, 29473, Note_off_c, 38
1, 29473, Note_off_c, 42
1, 29473, Note_on_c, 39
1, 29474, Note_off_c, 39
1, 29479, Note_on_c, 39
1, 29480, Note_off_c, 39
1, 29488, Note_off_c, 65
1, 29505, Note_off_c, 61
1, 29518, Note_on_c, 39
1, 29520, Note_on_c, 42
1, 29520, Note_on_c, 27
1, 29520, Note_on_c, 39
1, 29520, Note_on_c, 39
1, 29521, Note_off_c, 42
1, 29521, Note_on_c, 66
1, 29522, Note_on_c, 63
1, 29524, Note_on_c, 70
1, 29563, Note_off_c, 73
1, 29564, Note_off_c, 80
1, 29564, Note_off_c, 56
1, 29564, Note_off_c, 61
1, 29564, Note_off_c, 65
1, 29564, Note_off_c, 77
1, 29567, Note_on_c, 75
1, 29568, Note_on_c, 42
1, 29568, Note_on_c, 36
1, 29568, Note_on_c, 63
1, 29568, Note_on_c, 66
1, 29568, Note_on_c, 58
1, 29568, Note_on_c, 82
1, 29568, Note_on_c, 78
1, 29569, Note_off_c, 36
1, 29569, Note_off_c, 42
1, 29587, Note_off_c, 63
1, 29588, Note_off_c, 66
1, 29601, Note_off_c, 70
1, 29612, Note_off_c, 39
1, 29614, Note_off_c, 39
1, 29614, Note_off_c, 39
1, 29614, Note_off_c, 27
1, 29614, Note_on_c, 42
1, 29616, Note_on_c, 63
1, 29616, Note_on_c, 42
1, 29616, Note_on_c, 30
1, 29616, Note_on_c, 42
1, 29616, Note_on_c, 42
1, 29617, Note_off_c, 42
1, 29617, Note_on_c, 66
1, 29621, Note_on_c, 70
1, 29627, Note_off_c, 66
1, 29630, Note_off_c, 63
1, 29632, Note_off_c, 70
1, 29660, Note_off_c, 42
1, 29662, Note_off_c, 30
1, 29662, Note_off_c, 42
1, 29662, Note_off_c, 42
1, 29662, Note_on_c, 46
1, 29664, Note_on_c, 66
1, 29664, Note_on_c, 63
1, 29664, Note_on_c, 42
1, 29664, Note_on_c, 38
1, 29664, Note_on_c, 34
1, 29664, Note_on_c, 46
1, 29664, Note_on_c, 46
1, 29665, Note_off_c, 38
1, 29665, Note_off_c, 42
1, 29667, Note_on_c, 70
1, 29676, Note_off_c, 63
1, 29677, Note_off_c, 66
1, 29682, Note_off_c, 70
1, 29708, Note_off_c, 46
1, 29710, Note_off_c, 46
1, 29710, Note_off_c, 46
1, 29710, Note_off_c, 34
1, 29710, Note_on_c, 54
1, 29712, Note_on_c, 66
1, 29712, Note_on_c, 63
1, 29712, Note_on_c, 42
1, 29712, Note_on_c, 42
1, 29712, Note_on_c, 54
1, 29712, Note_on_c, 54
1, 29713, Note_off_c, 42
1, 29716, Note_on_c, 70
1, 29725, Note_off_c, 70
1, 29726, Note_off_c, 66
1, 29728, Note_off_c, 63
1, 29756, Note_off_c, 54
1, 29758, Note_off_c, 42
1, 29758, Note_off_c, 54
1, 29758, Note_off_c, 54
1, 29758, Note_on_c, 51
1, 29760, Note_on_c, 70
1, 29760, Note_on_c, 42
1, 29760, Note_on_c, 36
1, 29760, Note_on_c, 39
1, 29760, Note_on_c, 51
1, 29760, Note_on_c, 51
1, 29761, Note_off_c, 36
1, 29761, Note_off_c, 42
1, 29761, Note_on_c, 66
1, 29762, Note_on_c, 73
1, 29808, Note_on_c, 42
1, 29809, Note_off_c, 42
1, 29829, Note_off_c, 73
1, 29831, Note_off_c, 66
1, 29833, Note_off_c, 70
1, 29855, Note_on_c, 66
1, 29856, Note_on_c, 63
1, 29856, Note_on_c, 42
1, 29856, Note_on_c, 38
1, 29857, Note_off_c, 38
1, 29857, Note_off_c, 42
1, 29857, Note_on_c, 39
1, 29858, Note_off_c, 39
1, 29858, Note_on_c, 70
1, 29863, Note_on_c, 39
1, 29864, Note_off_c, 39
1, 29870, Note_off_c, 70
1, 29874, Note_off_c, 63
1, 29878, Note_off_c, 66
1, 29899, Note_off_c, 51
1, 29901, Note_off_c, 51
1, 29901, Note_off_c, 51
1, 29901, Note_off_c, 39
1, 29901, Note_on_c, 51
1, 29903, Note_on_c, 39
1, 29903, Note_on_c, 51
1, 29903, Note_on_c, 51
1, 29904, Note_on_c, 68
1, 29904, Note_on_c, 65
1, 29904, Note_on_c, 42
1, 29905, Note_off_c, 42
1, 29908, Note_on_c, 73
1, 29944, Note_off_c, 75
1, 29948, Note_off_c, 82
1, 29948, Note_off_c, 66
1, 29948, Note_off_c, 58
1, 29948, Note_off_c, 63
1, 29948, Note_off_c, 78
1, 29950, Note_on_c, 73
1, 29952, Note_on_c, 42
1, 29952, Note_on_c, 36
1, 29952, Note_on_c, 61
1, 29952, Note_on_c, 56
1, 29952, Note_on_c, 65
1, 29952, Note_on_c, 80
1, 29952, Note_on_c, 77
1, 29953, Note_off_c, 36
1, 29953, Note_off_c, 42
1, 29977, Note_off_c, 73
1, 29983, Note_off_c, 68
1, 29992, Note_off_c, 65
1, 29996, Note_off_c, 51
1, 29998, Note_off_c, 39
1, 29998, Note_off_c, 51
1, 29998, Note_off_c, 51
1, 29998, Note_on_c, 51
1, 29999, Note_on_c, 65
1, 30000, Note_on_c, 61
1, 30000, Note_on_c, 42
1, 30000, Note_on_c, 39
1, 30000, Note_on_c, 51
1, 30000, Note_on_c, 51
1, 30001, Note_off_c, 42
1, 30003, Note_on_c, 70
1, 30019, Note_off_c, 65
1, 30020, Note_off_c, 61
1, 30023, Note_off_c, 70
1, 30040, Note_off_c, 51
1, 30042, Note_off_c, 39
1, 30042, Note_off_c, 51
1, 30042, Note_off_c, 51
1, 30046, Note_on_c, 49
1, 30048, Note_on_c, 42
1, 30048, Note_on_c, 38
1, 30048, Note_on_c, 36
1, 30048, Note_on_c, 37
1, 30048, Note_on_c, 49
1, 30048, Note_on_c, 49
1, 30049, Note_off_c, 36
1, 30049, Note_off_c, 38
1, 30049, Note_off_c, 42
1, 30086, Note_off_c, 49
1, 30086, Note_off_c, 37
1, 30087, Note_off_c, 49
1, 30089, Note_off_c, 49
1, 30096, Note_on_c, 42
1, 30097, Note_off_c, 42
1, 30144, Note_on_c, 42
1, 30145, Note_off_c, 42
1, 30192, Note_on_c, 42
1, 30192, Note_on_c, 36
1, 30193, Note_off_c, 36
1, 30193, Note_off_c, 42
1, 30240, Note_on_c, 42
1, 30240, Note_on_c, 38
1, 30241, Note_off_c, 38
1, 30241, Note_off_c, 42
1, 30241, Note_on_c, 39
1, 30242, Note_off_c, 39
1, 30247, Note_on_c, 39
1, 30248, Note_off_c, 39
1, 30286, Note_on_c, 39
1, 30287, Note_on_c, 65
1, 30288, Note_on_c, 42
1, 30288, Note_on_c, 27
1, 30288, Note_on_c, 39
1, 30288, Note_on_c, 39
1, 30289, Note_off_c, 42
1, 30289, Note_on_c, 66
1, 30291, Note_on_c, 68
1, 30307, Note_off_c, 70
1, 30310, Note_off_c, 65
1, 30313, Note_off_c, 66
1, 30316, Note_off_c, 73
1, 30322, Note_on_c, 70
1, 30328, Note_off_c, 68
1, 30328, Note_on_c, 66
1, 30332, Note_off_c, 80
1, 30332, Note_off_c, 56
1, 30332, Note_off_c, 65
1, 30332, Note_off_c, 61
1, 30332, Note_off_c, 77
1, 30336, Note_on_c, 42
1, 30336, Note_on_c, 36
1, 30336, Note_on_c, 63
1, 30336, Note_on_c, 66
1, 30336, Note_on_c, 58
1, 30336, Note_on_c, 82
1, 30336, Note_on_c, 78
1, 30337, Note_off_c, 36
1, 30337, Note_off_c, 42
1, 30381, Note_off_c, 39
1, 30382, Note_on_c, 42
1, 30383, Note_off_c, 27
1, 30383, Note_off_c, 39
1, 30383, Note_off_c, 39
1, 30384, Note_on_c, 42
1, 30384, Note_on_c, 30
1, 30384, Note_on_c, 42
1, 30384, Note_on_c, 42
1, 30385, Note_off_c, 42
1, 30385, Note_on_c, 63
1, 30385, Note_on_c, 63
1, 30387, Note_on_c, 66
1, 30396, Note_off_c, 63
1, 30398, Note_off_c, 63
1, 30404, Note_off_c, 66
1, 30429, Note_off_c, 42
1, 30430, Note_on_c, 46
1, 30431, Note_off_c, 30
1, 30431, Note_off_c, 42
1, 30431, Note_off_c, 42
1, 30432, Note_on_c, 66
1, 30432, Note_on_c, 42
1, 30432, Note_on_c, 38
1, 30432, Note_on_c, 34
1, 30432, Note_on_c, 46
1, 30432, Note_on_c, 46
1, 30433, Note_off_c, 38
1, 30433, Note_off_c, 42
1, 30433, Note_on_c, 65
1, 30434, Note_on_c, 68
1, 30447, Note_off_c, 66
1, 30452, Note_off_c, 65
1, 30458, Note_off_c, 68
1, 30477, Note_off_c, 46
1, 30478, Note_on_c, 54
1, 30479, Note_off_c, 46
1, 30479, Note_off_c, 46
1, 30479, Note_off_c, 34
1, 30480, Note_on_c, 42
1, 30480, Note_on_c, 42
1, 30480, Note_on_c, 54
1, 30480, Note_on_c, 54
1, 30481, Note_off_c, 42
1, 30525, Note_off_c, 54
1, 30526, Note_on_c, 63
1, 30526, Note_on_c, 51
1, 30527, Note_off_c, 42
1, 30527, Note_off_c, 54
1, 30527, Note_off_c, 54
1, 30528, Note_on_c, 61
1, 30528, Note_on_c, 42
1, 30528, Note_on_c, 36
1, 30528, Note_on_c, 39
1, 30528, Note_on_c, 51
1, 30528, Note_on_c, 51
1, 30529, Note_off_c, 36
1, 30529, Note_off_c, 42
1, 30532, Note_on_c, 66
1, 30567, Note_off_c, 63
1, 30569, Note_off_c, 61
1, 30572, Note_off_c, 66
1, 30576, Note_on_c, 63
1, 30576, Note_on_c, 42
1, 30577, Note_off_c, 42
1, 30577, Note_on_c, 65
1, 30580, Note_on_c, 68
1, 30587, Note_off_c, 63
1, 30590, Note_off_c, 65
1, 30593, Note_off_c, 68
1, 30624, Note_on_c, 42
1, 30624, Note_on_c, 38
1, 30625, Note_off_c, 38
1, 30625, Note_off_c, 42
1, 30625, Note_on_c, 39
1, 30626, Note_off_c, 39
1, 30631, Note_on_c, 39
1, 30632, Note_off_c, 39
1, 30667, Note_off_c, 51
1, 30669, Note_off_c, 51
1, 30669, Note_off_c, 51
1, 30669, Note_off_c, 39
1, 30669, Note_on_c, 51
1, 30671, Note_on_c, 39
1, 30671, Note_on_c, 51
1, 30671, Note_on_c, 51
1, 30672, Note_on_c, 65
1, 30672, Note_on_c, 42
1, 30673, Note_off_c, 42
1, 30673, Note_on_c, 63
1, 30678, Note_on_c, 68
1, 30689, Note_off_c, 63
1, 30690, Note_off_c, 65
1, 30716, Note_off_c, 82
1, 30716, Note_off_c, 78
1, 30716, Note_off_c, 66
1, 30716, Note_off_c, 63
1, 30716, Note_off_c, 58
1, 30716, Note_off_c, 68
1, 30720, Note_on_c, 42
1, 30720, Note_on_c, 36
1, 30720, Note_on_c, 61
1, 30720, Note_on_c, 56
1, 30720, Note_on_c, 65
1, 30720, Note_on_c, 80
1, 30720, Note_on_c, 77
1, 30721, Note_off_c, 36
1, 30721, Note_off_c, 42
1, 30721, Note_off_c, 66
1, 30760, Note_off_c, 51
1, 30762, Note_off_c, 51
1, 30765, Note_off_c, 39
1, 30765, Note_off_c, 51
1, 30766, Note_on_c, 51
1, 30768, Note_on_c, 61
1, 30768, Note_on_c, 42
1, 30768, Note_on_c, 39
1, 30768, Note_on_c, 51
1, 30768, Note_on_c, 51
1, 30769, Note_off_c, 42
1, 30769, Note_on_c, 63
1, 30773, Note_on_c, 66
1, 30784, Note_off_c, 61
1, 30785, Note_off_c, 63
1, 30791, Note_off_c, 66
1, 30811, Note_off_c, 51
1, 30813, Note_off_c, 39
1, 30813, Note_off_c, 51
1, 30813, Note_off_c, 51
1, 30814, Note_on_c, 49
1, 30815, Note_on_c, 65
1, 30816, Note_on_c, 63
1, 30816, Note_on_c, 42
1, 30816, Note_on_c, 38
1, 30816, Note_on_c, 36
1, 30816, Note_on_c, 37
1, 30816, Note_on_c, 49
1, 30816, Note_on_c, 49
1, 30817, Note_off_c, 36
1, 30817, Note_off_c, 38
1, 30817, Note_off_c, 42
1, 30818, Note_on_c, 68
1, 30832, Note_off_c, 63
1, 30835, Note_off_c, 65
1, 30842, Note_off_c, 68
1, 30852, Note_off_c, 49
1, 30854, Note_off_c, 49
1, 30854, Note_off_c, 37
1, 30854, Note_off_c, 49
1, 30864, Note_on_c, 42
1, 30865, Note_off_c, 42
1, 30909, Note_on_c, 73
1, 30910, Note_on_c, 63
1, 30910, Note_on_c, 49
1, 30911, Note_on_c, 61
1, 30912, Note_on_c, 66
1, 30912, Note_on_c, 42
1, 30912, Note_on_c, 37
1, 30912, Note_on_c, 49
1, 30912, Note_on_c, 49
1, 30913, Note_off_c, 42
1, 30947, Note_off_c, 37
1, 30947, Note_off_c, 49
1, 30947, Note_off_c, 63
1, 30950, Note_off_c, 49
1, 30952, Note_off_c, 49
1, 30953, Note_off_c, 61
1, 30957, Note_off_c, 66
1, 30960, Note_on_c, 42
1, 30960, Note_on_c, 36
1, 30961, Note_off_c, 36
1, 30961, Note_off_c, 42
1, 30961, Note_on_c, 58
1, 30962, Note_on_c, 61
1, 30963, Note_on_c, 63
1, 30966, Note_off_c, 61
1, 30975, Note_off_c, 58
1, 30975, Note_off_c, 63
1, 31008, Note_on_c, 42
1, 31008, Note_on_c, 38
1, 31009, Note_off_c, 38
1, 31009, Note_off_c, 42
1, 31009, Note_on_c, 39
1, 31010, Note_off_c, 39
1, 31015, Note_on_c, 39
1, 31016, Note_off_c, 39
1, 31054, Note_on_c, 39
1, 31056, Note_on_c, 63
1, 31056, Note_on_c, 42
1, 31056, Note_on_c, 27
1, 31056, Note_on_c, 39
1, 31056, Note_on_c, 39
1, 31057, Note_off_c, 42
1, 31057, Note_on_c, 65
1, 31061, Note_on_c, 68
1, 31071, Note_off_c, 63
1, 31075, Note_off_c, 65
1, 31100, Note_off_c, 61
1, 31100, Note_off_c, 77
1, 31100, Note_off_c, 56
1, 31100, Note_off_c, 80
1, 31100, Note_off_c, 65
1, 31104, Note_on_c, 42
1, 31104, Note_on_c, 36
1, 31104, Note_on_c, 63
1, 31104, Note_on_c, 66
1, 31104, Note_on_c, 58
1, 31104, Note_on_c, 82
1, 31104, Note_on_c, 78
1, 31105, Note_off_c, 36
1, 31105, Note_off_c, 42
1, 31105, Note_off_c, 73
1, 31110, Note_on_c, 75
1, 31123, Note_off_c, 68
1, 31148, Note_off_c, 39
1, 31150, Note_off_c, 39
1, 31150, Note_off_c, 27
1, 31150, Note_off_c, 39
1, 31150, Note_on_c, 42
1, 31152, Note_on_c, 42
1, 31152, Note_on_c, 30
1, 31152, Note_on_c, 42
1, 31152, Note_on_c, 42
1, 31153, Note_off_c, 42
1, 31153, Note_on_c, 63
1, 31154, Note_on_c, 63
1, 31155, Note_on_c, 66
1, 31164, Note_off_c, 66
1, 31165, Note_off_c, 63
1, 31171, Note_off_c, 63
1, 31196, Note_off_c, 42
1, 31198, Note_off_c, 30
1, 31198, Note_off_c, 42
1, 31198, Note_off_c, 42
1, 31198, Note_on_c, 46
1, 31200, Note_on_c, 65
1, 31200, Note_on_c, 66
1, 31200, Note_on_c, 42
1, 31200, Note_on_c, 38
1, 31200, Note_on_c, 34
1, 31200, Note_on_c, 46
1, 31200, Note_on_c, 46
1, 31201, Note_off_c, 38
1, 31201, Note_off_c, 42
1, 31203, Note_on_c, 68
1, 31213, Note_off_c, 66
1, 31223, Note_off_c, 68
1, 31224, Note_off_c, 65
1, 31244, Note_off_c, 46
1, 31246, Note_off_c, 46
1, 31246, Note_off_c, 46
1, 31246, Note_off_c, 34
1, 31246, Note_on_c, 54
1, 31248, Note_on_c, 42
1, 31248, Note_on_c, 42
1, 31248, Note_on_c, 54
1, 31248, Note_on_c, 54
1, 31249, Note_off_c, 42
1, 31292, Note_off_c, 54
1, 31294, Note_off_c, 42
1, 31294, Note_off_c, 54
1, 31294, Note_off_c, 54
1, 31294, Note_on_c, 51
1, 31296, Note_on_c, 63
1, 31296, Note_on_c, 63
1, 31296, Note_on_c, 42
1, 31296, Note_on_c, 36
1, 31296, Note_on_c, 39
1, 31296, Note_on_c, 51
1, 31296, Note_on_c, 51
1, 31297, Note_off_c, 36
1, 31297, Note_off_c, 42
1, 31298, Note_on_c, 66
1, 31330, Note_off_c, 63
1, 31343, Note_off_c, 66
1, 31344, Note_off_c, 63
1, 31344, Note_on_c, 42
1, 31345, Note_off_c, 42
1, 31345, Note_on_c, 65
1, 31346, Note_on_c, 61
1, 31347, Note_on_c, 68
1, 31356, Note_off_c, 61
1, 31359, Note_off_c, 65
1, 31359, Note_off_c, 68
1, 31392, Note_on_c, 42
1, 31392, Note_on_c, 38
1, 31393, Note_off_c, 38
1, 31393, Note_off_c, 42
1, 31393, Note_on_c, 39
1, 31394, Note_off_c, 39
1, 31399, Note_on_c, 39
1, 31400, Note_off_c, 39
1, 31435, Note_off_c, 51
1, 31437, Note_off_c, 51
1, 31437, Note_off_c, 51
1, 31437, Note_off_c, 39
1, 31437, Note_on_c, 51
1, 31439, Note_on_c, 39
1, 31439, Note_on_c, 51
1, 31439, Note_on_c, 51
1, 31440, Note_on_c, 65
1, 31440, Note_on_c, 42
1, 31441, Note_off_c, 42
1, 31441, Note_on_c, 63
1, 31445, Note_on_c, 68
1, 31454, Note_off_c, 63
1, 31462, Note_off_c, 65
1, 31484, Note_off_c, 82
1, 31484, Note_off_c, 66
1, 31484, Note_off_c, 63
1, 31484, Note_off_c, 78
1, 31484, Note_off_c, 58
1, 31485, Note_off_c, 68
1, 31486, Note_off_c, 75
1, 31488, Note_on_c, 42
1, 31488, Note_on_c, 36
1, 31488, Note_on_c, 61
1, 31488, Note_on_c, 56
1, 31488, Note_on_c, 65
1, 31488, Note_on_c, 80
1, 31488, Note_on_c, 77
1, 31489, Note_off_c, 36
1, 31489, Note_off_c, 42
1, 31495, Note_on_c, 73
1, 31532, Note_off_c, 51
1, 31534, Note_off_c, 39
1, 31534, Note_off_c, 51
1, 31534, Note_off_c, 51
1, 31534, Note_on_c, 51
1, 31535, Note_on_c, 63
1, 31536, Note_on_c, 42
1, 31536, Note_on_c, 39
1, 31536, Note_on_c, 51
1, 31536, Note_on_c, 51
1, 31537, Note_off_c, 42
1, 31537, Note_on_c, 61
1, 31538, Note_on_c, 66
1, 31547, Note_off_c, 61
1, 31552, Note_off_c, 63
1, 31554, Note_off_c, 66
1, 31576, Note_off_c, 51
1, 31578, Note_off_c, 39
1, 31578, Note_off_c, 51
1, 31578, Note_off_c, 51
1, 31582, Note_on_c, 49
1, 31583, Note_on_c, 65
1, 31584, Note_on_c, 42
1, 31584, Note_on_c, 38
1, 31584, Note_on_c, 36
1, 31584, Note_on_c, 37
1, 31584, Note_on_c, 49
1, 31584, Note_on_c, 49
1, 31585, Note_off_c, 36
1, 31585, Note_off_c, 38
1, 31585, Note_off_c, 42
1, 31585, Note_on_c, 63
1, 31586, Note_on_c, 68
1, 31597, Note_off_c, 63
1, 31605, Note_off_c, 68
1, 31606, Note_off_c, 65
1, 31622, Note_off_c, 49
1, 31622, Note_off_c, 37
1, 31623, Note_off_c, 49
1, 31625, Note_off_c, 49
1, 31632, Note_on_c, 42
1, 31633, Note_off_c, 42
1, 31679, Note_on_c, 63
1, 31680, Note_on_c, 63
1, 31680, Note_on_c, 42
1, 31681, Note_off_c, 42
1, 31681, Note_on_c, 66
1, 31697, Note_off_c, 63
1, 31698, Note_off_c, 63
1, 31700, Note_off_c, 66
1, 31728, Note_on_c, 42
1, 31728, Note_on_c, 36
1, 31729, Note_off_c, 36
1, 31729, Note_off_c, 42
1, 31776, Note_on_c, 61
1, 31776, Note_on_c, 42
1, 31776, Note_on_c, 38
1, 31777, Note_off_c, 38
1, 31777, Note_off_c, 42
1, 31777, Note_on_c, 65
1, 31777, Note_on_c, 39
1, 31778, Note_off_c, 39
1, 31778, Note_on_c, 68
1, 31783, Note_on_c, 39
1, 31784, Note_off_c, 39
1, 31792, Note_off_c, 61
1, 31799, Note_off_c, 65
1, 31823, Note_off_c, 68
1, 31824, Note_on_c, 42
1, 31825, Note_off_c, 42
1, 31867, Note_off_c, 73
1, 31868, Note_off_c, 80
1, 31868, Note_off_c, 65
1, 31868, Note_off_c, 77
1, 31868, Note_off_c, 56
1, 31868, Note_off_c, 61
1, 31871, Note_off_c, 70
1, 31872, Note_on_c, 66
1, 31872, Note_on_c, 63
1, 31872, Note_on_c, 57
1, 31872, Note_on_c, 36
1, 31872, Note_on_c, 39
1, 31873, Note_off_c, 36
1, 31873, Note_off_c, 57
1, 31876, Note_on_c, 66
1, 31891, Note_off_c, 39
1, 31896, Note_on_c, 39
1, 31915, Note_off_c, 39
1, 31917, Note_off_c, 63
1, 31917, Note_off_c, 66
1, 31918, Note_on_c, 39
1, 31920, Note_off_c, 66
1, 31920, Note_on_c, 63
1, 31920, Note_on_c, 42
1, 31920, Note_on_c, 27
1, 31920, Note_on_c, 39
1, 31920, Note_on_c, 39
1, 31921, Note_off_c, 42
1, 31921, Note_on_c, 63
1, 31921, Note_on_c, 39
1, 31926, Note_on_c, 63
1, 31933, Note_off_c, 63
1, 31934, Note_off_c, 39
1, 31934, Note_off_c, 63
1, 31936, Note_off_c, 63
1, 31939, Note_off_c, 39
1, 31944, Note_on_c, 39
1, 31956, Note_off_c, 27
1, 31958, Note_off_c, 39
1, 31960, Note_off_c, 39
1, 31963, Note_off_c, 39
1, 31966, Note_on_c, 39
1, 31968, Note_on_c, 42
1, 31968, Note_on_c, 38
1, 31968, Note_on_c, 27
1, 31968, Note_on_c, 39
1, 31968, Note_on_c, 39
1, 31969, Note_off_c, 38
1, 31969, Note_off_c, 42
1, 31969, Note_on_c, 39
1, 31970, Note_on_c, 66
1, 31982, Note_off_c, 39
1, 31987, Note_off_c, 39
1, 31992, Note_on_c, 39
1, 32006, Note_off_c, 39
1, 32008, Note_off_c, 27
1, 32008, Note_off_c, 39
1, 32011, Note_off_c, 39
1, 32016, Note_on_c, 42
1, 32016, Note_on_c, 39
1, 32017, Note_off_c, 42
1, 32017, Note_off_c, 66
1, 32018, Note_on_c, 63
1, 32028, Note_off_c, 63
1, 32035, Note_off_c, 39
1, 32040, Note_on_c, 39
1, 32059, Note_off_c, 39
1, 32062, Note_on_c, 39
1, 32064, Note_on_c, 42
1, 32064, Note_on_c, 36
1, 32064, Note_on_c, 27
1, 32064, Note_on_c, 39
1, 32064, Note_on_c, 39
1, 32064, Note_on_c, 39
1, 32065, Note_off_c, 36
1, 32065, Note_off_c, 42
1, 32066, Note_on_c, 66
1, 32077, Note_off_c, 39
1, 32083, Note_off_c, 39
1, 32088, Note_on_c, 39
1, 32102, Note_off_c, 39
1, 32104, Note_off_c, 27
1, 32104, Note_off_c, 39
1, 32106, Note_off_c, 66
1, 32107, Note_off_c, 39
1, 32112, Note_on_c, 42
1, 32112, Note_on_c, 39
1, 32113, Note_off_c, 42
1, 32114, Note_on_c, 63
1, 32128, Note_off_c, 63
1, 32131, Note_off_c, 39
1, 32136, Note_on_c, 39
1, 32155, Note_off_c, 39
1, 32160, Note_on_c, 42
1, 32160, Note_on_c, 38
1, 32160, Note_on_c, 39
1, 32161, Note_off_c, 38
1, 32161, Note_off_c, 42
1, 32161, Note_on_c, 39
1, 32162, Note_off_c, 39
1, 32162, Note_on_c, 66
1, 32167, Note_on_c, 39
1, 32168, Note_off_c, 39
1, 32179, Note_off_c, 39
1, 32184, Note_on_c, 39
1, 32203, Note_off_c, 39
1, 32203, Note_off_c, 66
1, 32206, Note_on_c, 39
1, 32207, Note_on_c, 39
1, 32208, Note_on_c, 42
1, 32208, Note_on_c, 27
1, 32208, Note_on_c, 39
1, 32208, Note_on_c, 39
1, 32209, Note_off_c, 42
1, 32210, Note_on_c, 63
1, 32220, Note_off_c, 39
1, 32222, Note_off_c, 63
1, 32227, Note_off_c, 39
1, 32232, Note_on_c, 39
1, 32243, Note_off_c, 27
1, 32246, Note_off_c, 39
1, 32248, Note_off_c, 39
1, 32251, Note_off_c, 39
1, 32254, Note_on_c, 39
1, 32256, Note_on_c, 42
1, 32256, Note_on_c, 36
1, 32256, Note_on_c, 27
1, 32256, Note_on_c, 39
1, 32256, Note_on_c, 39
1, 32256, Note_on_c, 39
1, 32257, Note_off_c, 36
1, 32257, Note_off_c, 42
1, 32258, Note_on_c, 66
1, 32269, Note_off_c, 39
1, 32275, Note_off_c, 39
1, 32280, Note_on_c, 39
1, 32294, Note_off_c, 39
1, 32296, Note_off_c, 27
1, 32296, Note_off_c, 39
1, 32299, Note_off_c, 39
1, 32300, Note_off_c, 66
1, 32304, Note_on_c, 42
1, 32304, Note_on_c, 39
1, 32305, Note_off_c, 42
1, 32306, Note_on_c, 63
1, 32323, Note_off_c, 39
1, 32324, Note_off_c, 63
1, 32328, Note_on_c, 39
1, 32347, Note_off_c, 39
1, 32350, Note_on_c, 39
1, 32352, Note_on_c, 42
1, 32352, Note_on_c, 38
1, 32352, Note_on_c, 36
1, 32352, Note_on_c, 27
1, 32352, Note_on_c, 39
1, 32352, Note_on_c, 39
1, 32352, Note_on_c, 39
1, 32353, Note_off_c, 36
1, 32353, Note_off_c, 38
1, 32353, Note_off_c, 42
1, 32354, Note_on_c, 66
1, 32365, Note_off_c, 39
1, 32371, Note_off_c, 39
1, 32376, Note_on_c, 39
1, 32390, Note_off_c, 39
1, 32392, Note_off_c, 27
1, 32392, Note_off_c, 39
1, 32392, Note_off_c, 66
1, 32395, Note_off_c, 39
1, 32400, Note_on_c, 42
1, 32400, Note_on_c, 39
1, 32401, Note_off_c, 42
1, 32402, Note_on_c, 63
1, 32409, Note_off_c, 63
1, 32419, Note_off_c, 39
1, 32424, Note_on_c, 39
1, 32443, Note_off_c, 39
1, 32448, Note_on_c, 42
1, 32448, Note_on_c, 39
1, 32449, Note_off_c, 42
1, 32450, Note_on_c, 66
1, 32467, Note_off_c, 39
1, 32472, Note_on_c, 39
1, 32491, Note_off_c, 39
1, 32496, Note_on_c, 42
1, 32496, Note_on_c, 36
1, 32496, Note_on_c, 39
1, 32497, Note_off_c, 36
1, 32497, Note_off_c, 42
1, 32497, Note_off_c, 66
1, 32498, Note_on_c, 63
1, 32512, Note_off_c, 63
1, 32515, Note_off_c, 39
1, 32520, Note_on_c, 39
1, 32539, Note_off_c, 39
1, 32544, Note_on_c, 42
1, 32544, Note_on_c, 38
1, 32544, Note_on_c, 39
1, 32545, Note_off_c, 38
1, 32545, Note_off_c, 42
1, 32545, Note_on_c, 39
1, 32546, Note_off_c, 39
1, 32546, Note_on_c, 66
1, 32551, Note_on_c, 39
1, 32552, Note_off_c, 39
1, 32563, Note_off_c, 39
1, 32568, Note_on_c, 39
1, 32587, Note_off_c, 39
1, 32592, Note_off_c, 66
1, 32592, Note_on_c, 42
1, 32592, Note_on_c, 39
1, 32593, Note_off_c, 42
1, 32594, Note_on_c, 63
1, 32611, Note_off_c, 39
1, 32612, Note_off_c, 63
1, 32616, Note_on_c, 39
1, 32635, Note_off_c, 39
1, 32640, Note_on_c, 42
1, 32640, Note_on_c, 36
1, 32640, Note_on_c, 39
1, 32641, Note_off_c, 36
1, 32641, Note_off_c, 42
1, 32642, Note_on_c, 66
1, 32659, Note_off_c, 39
1, 32664, Note_on_c, 39
1, 32679, Note_off_c, 66
1, 32683, Note_off_c, 39
1, 32686, Note_on_c, 39
1, 32688, Note_on_c, 42
1, 32688, Note_on_c, 27
1, 32688, Note_on_c, 39
1, 32688, Note_on_c, 39
1, 32689, Note_off_c, 42
1, 32689, Note_on_c, 39
1, 32690, Note_on_c, 63
1, 32701, Note_off_c, 63
1, 32702, Note_off_c, 39
1, 32707, Note_off_c, 39
1, 32712, Note_on_c, 39
1, 32724, Note_off_c, 27
1, 32726, Note_off_c, 39
1, 32728, Note_off_c, 39
1, 32731, Note_off_c, 39
1, 32734, Note_on_c, 39
1, 32736, Note_on_c, 42
1, 32736, Note_on_c, 38
1, 32736, Note_on_c, 27
1, 32736, Note_on_c, 39
1, 32736, Note_on_c, 39
1, 32737, Note_off_c, 38
1, 32737, Note_off_c, 42
1, 32737, Note_on_c, 39
1, 32738, Note_on_c, 66
1, 32750, Note_off_c, 39
1, 32755, Note_off_c, 39
1, 32760, Note_on_c, 39
1, 32774, Note_off_c, 39
1, 32775, Note_off_c, 66
1, 32776, Note_off_c, 27
1, 32776, Note_off_c, 39
1, 32779, Note_off_c, 39
1, 32784, Note_on_c, 42
1, 32784, Note_on_c, 39
1, 32785, Note_off_c, 42
1, 32786, Note_on_c, 63
1, 32800, Note_off_c, 63
1, 32803, Note_off_c, 39
1, 32808, Note_on_c, 39
1, 32827, Note_off_c, 39
1, 32830, Note_on_c, 39
1, 32832, Note_on_c, 42
1, 32832, Note_on_c, 36
1, 32832, Note_on_c, 27
1, 32832, Note_on_c, 39
1, 32832, Note_on_c, 39
1, 32832, Note_on_c, 39
1, 32833, Note_off_c, 36
1, 32833, Note_off_c, 42
1, 32834, Note_on_c, 66
1, 32845, Note_off_c, 39
1, 32851, Note_off_c, 39
1, 32856, Note_on_c, 39
1, 32870, Note_off_c, 39
1, 32872, Note_off_c, 27
1, 32872, Note_off_c, 39
1, 32875, Note_off_c, 39
1, 32879, Note_off_c, 66
1, 32880, Note_on_c, 42
1, 32880, Note_on_c, 39
1, 32881, Note_off_c, 42
1, 32882, Note_on_c, 63
1, 32896, Note_off_c, 63
1, 32899, Note_off_c, 39
1, 32904, Note_on_c, 39
1, 32923, Note_off_c, 39
1, 32928, Note_on_c, 42
1, 32928, Note_on_c, 38
1, 32928, Note_on_c, 39
1, 32929, Note_off_c, 38
1, 32929, Note_off_c, 42
1, 32929, Note_on_c, 39
1, 32930, Note_off_c, 39
1, 32930, Note_on_c, 66
1, 32935, Note_on_c, 39
1, 32936, Note_off_c, 39
1, 32947, Note_off_c, 39
1, 32952, Note_on_c, 39
1, 32966, Note_off_c, 66
1, 32971, Note_off_c, 39
1, 32974, Note_on_c, 39
1, 32975, Note_on_c, 39
1, 32976, Note_on_c, 42
1, 32976, Note_on_c, 27
1, 32976, Note_on_c, 39
1, 32976, Note_on_c, 39
1, 32977, Note_off_c, 42
1, 32978, Note_on_c, 63
1, 32986, Note_off_c, 63
1, 32988, Note_off_c, 39
1, 32995, Note_off_c, 39
1, 33000, Note_on_c, 39
1, 33011, Note_off_c, 27
1, 33014, Note_off_c, 39
1, 33016, Note_off_c, 39
1, 33019, Note_off_c, 39
1, 33022, Note_on_c, 39
1, 33024, Note_on_c, 42
1, 33024, Note_on_c, 36
1, 33024, Note_on_c, 27
1, 33024, Note_on_c, 39
1, 33024, Note_on_c, 39
1, 33024, Note_on_c, 39
1, 33025, Note_off_c, 36
1, 33025, Note_off_c, 42
1, 33037, Note_off_c, 39
1, 33043, Note_off_c, 39
1, 33048, Note_on_c, 39
1, 33062, Note_off_c, 39
1, 33064, Note_off_c, 27
1, 33064, Note_off_c, 39
1, 33067, Note_off_c, 39
1, 33072, Note_on_c, 42
1, 33072, Note_on_c, 39
1, 33073, Note_off_c, 42
1, 33091, Note_off_c, 39
1, 33096, Note_on_c, 39
1, 33115, Note_off_c, 39
1, 33118, Note_on_c, 39
1, 33120, Note_on_c, 42
1, 33120, Note_on_c, 38
1, 33120, Note_on_c, 36
1, 33120, Note_on_c, 27
1, 33120, Note_on_c, 39
1, 33120, Note_on_c, 39
1, 33120, Note_on_c, 39
1, 33121, Note_off_c, 36
1, 33121, Note_off_c, 38
1, 33121, Note_off_c, 42
1, 33133, Note_off_c, 39
1, 33139, Note_off_c, 39
1, 33144, Note_on_c, 39
1, 33158, Note_off_c, 39
1, 33160, Note_off_c, 27
1, 33160, Note_off_c, 39
1, 33163, Note_off_c, 39
1, 33168, Note_on_c, 42
1, 33168, Note_on_c, 39
1, 33169, Note_off_c, 42
1, 33187, Note_off_c, 39
1, 33192, Note_on_c, 39
1, 33211, Note_off_c, 39
1, 33216, Note_on_c, 42
1, 33216, Note_on_c, 37
1, 33216, Note_on_c, 25
1, 33216, Note_on_c, 37
1, 33216, Note_on_c, 39
1, 33217, Note_off_c, 42
1, 33235, Note_off_c, 39
1, 33240, Note_on_c, 39
1, 33259, Note_off_c, 39
1, 33264, Note_on_c, 42
1, 33264, Note_on_c, 36
1, 33264, Note_on_c, 39
1, 33265, Note_off_c, 36
1, 33265, Note_off_c, 42
1, 33283, Note_off_c, 39
1, 33288, Note_on_c, 39
1, 33307, Note_off_c, 39
1, 33312, Note_on_c, 42
1, 33312, Note_on_c, 38
1, 33312, Note_on_c, 39
1, 33313, Note_off_c, 38
1, 33313, Note_off_c, 42
1, 33313, Note_on_c, 39
1, 33314, Note_off_c, 39
1, 33319, Note_on_c, 39
1, 33320, Note_off_c, 39
1, 33331, Note_off_c, 39
1, 33336, Note_on_c, 39
1, 33355, Note_off_c, 39
1, 33360, Note_on_c, 42
1, 33360, Note_on_c, 39
1, 33361, Note_off_c, 42
1, 33379, Note_off_c, 39
1, 33384, Note_on_c, 39
1, 33403, Note_off_c, 39
1, 33406, Note_off_c, 25
1, 33406, Note_off_c, 37
1, 33406, Note_off_c, 37
1, 33408, Note_on_c, 42
1, 33408, Note_on_c, 36
1, 33408, Note_on_c, 39
1, 33408, Note_on_c, 27
1, 33408, Note_on_c, 39
1, 33408, Note_on_c, 39
1, 33409, Note_off_c, 36
1, 33409, Note_off_c, 42
1, 33427, Note_off_c, 39
1, 33432, Note_on_c, 39
1, 33451, Note_off_c, 39
1, 33454, Note_on_c, 39
1, 33456, Note_on_c, 42
1, 33456, Note_on_c, 27
1, 33456, Note_on_c, 69
1, 33456, Note_on_c, 39
1, 33456, Note_on_c, 39
1, 33457, Note_off_c, 69
1, 33457, Note_off_c, 42
1, 33457, Note_on_c, 39
1, 33470, Note_off_c, 39
1, 33475, Note_off_c, 39
1, 33480, Note_on_c, 39
1, 33492, Note_off_c, 27
1, 33494, Note_off_c, 39
1, 33496, Note_off_c, 39
1, 33499, Note_off_c, 39
1, 33502, Note_on_c, 39
1, 33504, Note_on_c, 42
1, 33504, Note_on_c, 38
1, 33504, Note_on_c, 27
1, 33504, Note_on_c, 69
1, 33504, Note_on_c, 39
1, 33504, Note_on_c, 39
1, 33505, Note_off_c, 69
1, 33505, Note_off_c, 38
1, 33505, Note_off_c, 42
1, 33505, Note_on_c, 39
1, 33518, Note_off_c, 39
1, 33523, Note_off_c, 39
1, 33528, Note_on_c, 39
1, 33542, Note_off_c, 39
1, 33544, Note_off_c, 39
1, 33544, Note_off_c, 27
1, 33547, Note_off_c, 39
1, 33552, Note_on_c, 42
1, 33552, Note_on_c, 39
1, 33553, Note_off_c, 42
1, 33571, Note_off_c, 39
1, 33576, Note_on_c, 39
1, 33595, Note_off_c, 39
1, 33598, Note_on_c, 39
1, 33600, Note_on_c, 42
1, 33600, Note_on_c, 36
1, 33600, Note_on_c, 27
1, 33600, Note_on_c, 69
1, 33600, Note_on_c, 39
1, 33600, Note_on_c, 39
1, 33600, Note_on_c, 39
1, 33601, Note_off_c, 69
1, 33601, Note_off_c, 36
1, 33601, Note_off_c, 42
1, 33613, Note_off_c, 39
1, 33619, Note_off_c, 39
1, 33624, Note_on_c, 39
1, 33638, Note_off_c, 39
1, 33640, Note_off_c, 27
1, 33640, Note_off_c, 39
1, 33643, Note_off_c, 39
1, 33648, Note_on_c, 42
1, 33648, Note_on_c, 69
1, 33648, Note_on_c, 39
1, 33649, Note_off_c, 69
1, 33649, Note_off_c, 42
1, 33667, Note_off_c, 39
1, 33672, Note_on_c, 39
1, 33691, Note_off_c, 39
1, 33696, Note_on_c, 42
1, 33696, Note_on_c, 38
1, 33696, Note_on_c, 39
1, 33697, Note_off_c, 38
1, 33697, Note_off_c, 42
1, 33697, Note_on_c, 39
1, 33698, Note_off_c, 39
1, 33703, Note_on_c, 39
1, 33704, Note_off_c, 39
1, 33715, Note_off_c, 39
1, 33720, Note_on_c, 39
1, 33739, Note_off_c, 39
1, 33742, Note_on_c, 39
1, 33743, Note_on_c, 39
1, 33744, Note_on_c, 42
1, 33744, Note_on_c, 27
1, 33744, Note_on_c, 69
1, 33744, Note_on_c, 39
1, 33744, Note_on_c, 39
1, 33745, Note_off_c, 69
1, 33745, Note_off_c, 42
1, 33756, Note_off_c, 39
1, 33763, Note_off_c, 39
1, 33768, Note_on_c, 39
1, 33779, Note_off_c, 27
1, 33782, Note_off_c, 39
1, 33784, Note_off_c, 39
1, 33787, Note_off_c, 39
1, 33790, Note_off_c, 39
1, 33790, Note_off_c, 27
1, 33790, Note_off_c, 39
1, 33790, Note_on_c, 39
1, 33792, Note_on_c, 42
1, 33792, Note_on_c, 36
1, 33792, Note_on_c, 27
1, 33792, Note_on_c, 69
1, 33792, Note_on_c, 39
1, 33792, Note_on_c, 39
1, 33792, Note_on_c, 39
1, 33793, Note_off_c, 69
1, 33793, Note_off_c, 36
1, 33793, Note_off_c, 42
1, 33805, Note_off_c, 39
1, 33811, Note_off_c, 39
1, 33816, Note_on_c, 39
1, 33830, Note_off_c, 39
1, 33832, Note_off_c, 27
1, 33832, Note_off_c, 39
1, 33835, Note_off_c, 39
1, 33840, Note_on_c, 42
1, 33840, Note_on_c, 39
1, 33841, Note_off_c, 42
1, 33859, Note_off_c, 39
1, 33864, Note_on_c, 39
1, 33883, Note_off_c, 39
1, 33886, Note_on_c, 39
1, 33888, Note_on_c, 42
1, 33888, Note_on_c, 38
1, 33888, Note_on_c, 36
1, 33888, Note_on_c, 27
1, 33888, Note_on_c, 69
1, 33888, Note_on_c, 39
1, 33888, Note_on_c, 39
1, 33888, Note_on_c, 39
1, 33889, Note_off_c, 69
1, 33889, Note_off_c, 36
1, 33889, Note_off_c, 38
1, 33889, Note_off_c, 42
1, 33901, Note_off_c, 39
1, 33907, Note_off_c, 39
1, 33912, Note_on_c, 39
1, 33926, Note_off_c, 39
1, 33928, Note_off_c, 39
1, 33928, Note_off_c, 27
1, 33931, Note_off_c, 39
1, 33936, Note_on_c, 42
1, 33936, Note_on_c, 69
1, 33936, Note_on_c, 39
1, 33937, Note_off_c, 69
1, 33937, Note_off_c, 42
1, 33955, Note_off_c, 39
1, 33960, Note_on_c, 39
1, 33979, Note_off_c, 39
1, 33984, Note_on_c, 42
1, 33984, Note_on_c, 39
1, 33985, Note_off_c, 42
1, 33987, Note_on_c, 66
1, 34003, Note_off_c, 39
1, 34008, Note_on_c, 39
1, 34027, Note_off_c, 39
1, 34032, Note_on_c, 42
1, 34032, Note_on_c, 36
1, 34032, Note_on_c, 39
1, 34033, Note_off_c, 36
1, 34033, Note_off_c, 42
1, 34033, Note_off_c, 66
1, 34039, Note_on_c, 63
1, 34051, Note_off_c, 39
1, 34051, Note_off_c, 63
1, 34056, Note_on_c, 39
1, 34075, Note_off_c, 39
1, 34080, Note_on_c, 42
1, 34080, Note_on_c, 38
1, 34080, Note_on_c, 39
1, 34081, Note_off_c, 38
1, 34081, Note_off_c, 42
1, 34081, Note_on_c, 39
1, 34082, Note_off_c, 39
1, 34082, Note_on_c, 66
1, 34087, Note_on_c, 39
1, 34088, Note_off_c, 39
1, 34099, Note_off_c, 39
1, 34104, Note_on_c, 39
1, 34123, Note_off_c, 39
1, 34128, Note_on_c, 42
1, 34128, Note_on_c, 39
1, 34129, Note_off_c, 42
1, 34130, Note_on_c, 63
1, 34133, Note_off_c, 66
1, 34145, Note_off_c, 63
1, 34147, Note_off_c, 39
1, 34152, Note_on_c, 39
1, 34171, Note_off_c, 39
1, 34176, Note_on_c, 42
1, 34176, Note_on_c, 36
1, 34176, Note_on_c, 39
1, 34177, Note_off_c, 36
1, 34177, Note_off_c, 42
1, 34178, Note_on_c, 66
1, 34195, Note_off_c, 39
1, 34200, Note_on_c, 39
1, 34217, Note_off_c, 66
1, 34219, Note_off_c, 39
1, 34222, Note_on_c, 39
1, 34224, Note_on_c, 42
1, 34224, Note_on_c, 27
1, 34224, Note_on_c, 69
1, 34224, Note_on_c, 39
1, 34224, Note_on_c, 39
1, 34225, Note_off_c, 69
1, 34225, Note_off_c, 42
1, 34225, Note_on_c, 39
1, 34226, Note_on_c, 63
1, 34238, Note_off_c, 39
1, 34239, Note_off_c, 63
1, 34243, Note_off_c, 39
1, 34248, Note_on_c, 39
1, 34260, Note_off_c, 27
1, 34262, Note_off_c, 39
1, 34264, Note_off_c, 39
1, 34267, Note_off_c, 39
1, 34270, Note_on_c, 39
1, 34272, Note_on_c, 42
1, 34272, Note_on_c, 38
1, 34272, Note_on_c, 27
1, 34272, Note_on_c, 69
1, 34272, Note_on_c, 39
1, 34272, Note_on_c, 39
1, 34273, Note_off_c, 69
1, 34273, Note_off_c, 38
1, 34273, Note_off_c, 42
1, 34273, Note_on_c, 39
1, 34274, Note_on_c, 66
1, 34286, Note_off_c, 39
1, 34291, Note_off_c, 39
1, 34296, Note_on_c, 39
1, 34309, Note_off_c, 66
1, 34310, Note_off_c, 39
1, 34312, Note_off_c, 39
1, 34312, Note_off_c, 27
1, 34315, Note_off_c, 39
1, 34320, Note_on_c, 42
1, 34320, Note_on_c, 39
1, 34321, Note_off_c, 42
1, 34322, Note_on_c, 63
1, 34335, Note_off_c, 63
1, 34339, Note_off_c, 39
1, 34344, Note_on_c, 39
1, 34363, Note_off_c, 39
1, 34366, Note_on_c, 39
1, 34368, Note_on_c, 42
1, 34368, Note_on_c, 36
1, 34368, Note_on_c, 27
1, 34368, Note_on_c, 69
1, 34368, Note_on_c, 39
1, 34368, Note_on_c, 39
1, 34368, Note_on_c, 39
1, 34369, Note_off_c, 69
1, 34369, Note_off_c, 36
1, 34369, Note_off_c, 42
1, 34370, Note_on_c, 66
1, 34381, Note_off_c, 39
1, 34387, Note_off_c, 39
1, 34392, Note_on_c, 39
1, 34401, Note_off_c, 66
1, 34406, Note_off_c, 39
1, 34408, Note_off_c, 27
1, 34408, Note_off_c, 39
1, 34411, Note_off_c, 39
1, 34416, Note_on_c, 42
1, 34416, Note_on_c, 69
1, 34416, Note_on_c, 39
1, 34417, Note_off_c, 69
1, 34417, Note_off_c, 42
1, 34418, Note_on_c, 63
1, 34430, Note_off_c, 63
1, 34435, Note_off_c, 39
1, 34440, Note_on_c, 39
1, 34459, Note_off_c, 39
1, 34464, Note_on_c, 42
1, 34464, Note_on_c, 38
1, 34464, Note_on_c, 39
1, 34465, Note_off_c, 38
1, 34465, Note_off_c, 42
1, 34465, Note_on_c, 39
1, 34466, Note_off_c, 39
1, 34466, Note_on_c, 66
1, 34471, Note_on_c, 39
1, 34472, Note_off_c, 39
1, 34483, Note_off_c, 39
1, 34488, Note_on_c, 39
1, 34495, Note_off_c, 66
1, 34507, Note_off_c, 39
1, 34510, Note_on_c, 39
1, 34511, Note_on_c, 39
1, 34512, Note_on_c, 42
1, 34512, Note_on_c, 27
1, 34512, Note_on_c, 69
1, 34512, Note_on_c, 39
1, 34512, Note_on_c, 39
1, 34513, Note_off_c, 69
1, 34513, Note_off_c, 42
1, 34514, Note_on_c, 63
1, 34524, Note_off_c, 39
1, 34526, Note_off_c, 63
1, 34531, Note_off_c, 39
1, 34536, Note_on_c, 39
1, 34547, Note_off_c, 27
1, 34550, Note_off_c, 39
1, 34552, Note_off_c, 39
1, 34555, Note_off_c, 39
1, 34558, Note_on_c, 39
1, 34560, Note_on_c, 42
1, 34560, Note_on_c, 36
1, 34560, Note_on_c, 27
1, 34560, Note_on_c, 69
1, 34560, Note_on_c, 39
1, 34560, Note_on_c, 39
1, 34560, Note_on_c, 39
1, 34561, Note_off_c, 69
1, 34561, Note_off_c, 36
1, 34561, Note_off_c, 42
1, 34562, Note_on_c, 66
1, 34573, Note_off_c, 39
1, 34579, Note_off_c, 39
1, 34584, Note_on_c, 39
1, 34598, Note_off_c, 39
1, 34600, Note_off_c, 27
1, 34600, Note_off_c, 39
1, 34603, Note_off_c, 39
1, 34608, Note_off_c, 66
1, 34608, Note_on_c, 42
1, 34608, Note_on_c, 39
1, 34609, Note_off_c, 42
1, 34609, Note_on_c, 63
1, 34623, Note_off_c, 63
1, 34627, Note_off_c, 39
1, 34632, Note_on_c, 39
1, 34651, Note_off_c, 39
1, 34654, Note_on_c, 39
1, 34656, Note_on_c, 42
1, 34656, Note_on_c, 38
1, 34656, Note_on_c, 36
1, 34656, Note_on_c, 27
1, 34656, Note_on_c, 69
1, 34656, Note_on_c, 39
1, 34656, Note_on_c, 39
1, 34656, Note_on_c, 39
1, 34657, Note_off_c, 69
1, 34657, Note_off_c, 36
1, 34657, Note_off_c, 38
1, 34657, Note_off_c, 42
1, 34658, Note_on_c, 66
1, 34669, Note_off_c, 39
1, 34675, Note_off_c, 39
1, 34680, Note_on_c, 39
1, 34694, Note_off_c, 39
1, 34696, Note_off_c, 39
1, 34696, Note_off_c, 27
1, 34699, Note_off_c, 39
1, 34704, Note_on_c, 42
1, 34704, Note_on_c, 69
1, 34704, Note_on_c, 39
1, 34705, Note_off_c, 69
1, 34705, Note_off_c, 42
1, 34706, Note_on_c, 63
1, 34711, Note_off_c, 66
1, 34721, Note_off_c, 63
1, 34723, Note_off_c, 39
1, 34728, Note_on_c, 39
1, 34747, Note_off_c, 39
1, 34752, Note_on_c, 42
1, 34752, Note_on_c, 25
1, 34752, Note_on_c, 37
1, 34752, Note_on_c, 37
1, 34752, Note_on_c, 39
1, 34753, Note_off_c, 42
1, 34754, Note_on_c, 66
1, 34771, Note_off_c, 39
1, 34776, Note_on_c, 39
1, 34789, Note_off_c, 66
1, 34795, Note_off_c, 39
1, 34800, Note_on_c, 42
1, 34800, Note_on_c, 36
1, 34800, Note_on_c, 39
1, 34801, Note_off_c, 36
1, 34801, Note_off_c, 42
1, 34802, Note_on_c, 63
1, 34814, Note_off_c, 63
1, 34819, Note_off_c, 39
1, 34824, Note_on_c, 39
1, 34843, Note_off_c, 39
1, 34848, Note_on_c, 42
1, 34848, Note_on_c, 38
1, 34848, Note_on_c, 39
1, 34849, Note_off_c, 38
1, 34849, Note_off_c, 42
1, 34849, Note_on_c, 39
1, 34850, Note_off_c, 39
1, 34850, Note_on_c, 66
1, 34855, Note_on_c, 39
1, 34856, Note_off_c, 39
1, 34867, Note_off_c, 39
1, 34872, Note_on_c, 39
1, 34886, Note_off_c, 66
1, 34891, Note_off_c, 39
1, 34896, Note_on_c, 42
1, 34896, Note_on_c, 39
1, 34897, Note_off_c, 42
1, 34898, Note_on_c, 63
1, 34912, Note_off_c, 63
1, 34915, Note_off_c, 39
1, 34920, Note_on_c, 39
1, 34939, Note_off_c, 39
1, 34942, Note_off_c, 37
1, 34942, Note_off_c, 25
1, 34942, Note_off_c, 37
1, 34944, Note_on_c, 42
1, 34944, Note_on_c, 36
1, 34944, Note_on_c, 27
1, 34944, Note_on_c, 39
1, 34944, Note_on_c, 39
1, 34944, Note_on_c, 39
1, 34944, Note_on_c, 61
1, 34945, Note_off_c, 36
1, 34945, Note_off_c, 42
1, 34945, Note_on_c, 56
1, 34946, Note_on_c, 66
1, 34947, Note_off_c, 61
1, 34948, Note_off_c, 56
1, 34963, Note_off_c, 39
1, 34968, Note_on_c, 39
1, 34968, Note_on_c, 61
1, 34969, Note_on_c, 56
1, 34971, Note_off_c, 61
1, 34972, Note_off_c, 56
1, 34977, Note_off_c, 66
1, 34987, Note_off_c, 39
1, 34990, Note_on_c, 39
1, 34991, Note_on_c, 61
1, 34992, Note_on_c, 42
1, 34992, Note_on_c, 27
1, 34992, Note_on_c, 39
1, 34992, Note_on_c, 39
1, 34992, Note_on_c, 56
1, 34993, Note_off_c, 42
1, 34993, Note_on_c, 39
1, 34994, Note_off_c, 61
1, 34994, Note_on_c, 63
1, 34995, Note_off_c, 56
1, 35006, Note_off_c, 39
1, 35008, Note_off_c, 63
1, 35011, Note_off_c, 39
1, 35015, Note_on_c, 61
1, 35016, Note_on_c, 39
1, 35017, Note_on_c, 56
1, 35018, Note_off_c, 61
1, 35020, Note_off_c, 56
1, 35028, Note_off_c, 27
1, 35030, Note_off_c, 39
1, 35032, Note_off_c, 39
1, 35035, Note_off_c, 39
1, 35038, Note_on_c, 39
1, 35039, Note_on_c, 66
1, 35040, Note_on_c, 42
1, 35040, Note_on_c, 38
1, 35040, Note_on_c, 27
1, 35040, Note_on_c, 39
1, 35040, Note_on_c, 39
1, 35041, Note_off_c, 38
1, 35041, Note_off_c, 42
1, 35041, Note_on_c, 39
1, 35041, Note_on_c, 61
1, 35042, Note_on_c, 66
1, 35054, Note_off_c, 39
1, 35059, Note_off_c, 39
1, 35064, Note_on_c, 39
1, 35075, Note_off_c, 66
1, 35078, Note_off_c, 39
1, 35080, Note_off_c, 27
1, 35080, Note_off_c, 39
1, 35082, Note_off_c, 66
1, 35083, Note_off_c, 39
1, 35084, Note_off_c, 61
1, 35088, Note_on_c, 42
1, 35088, Note_on_c, 39
1, 35088, Note_on_c, 56
1, 35089, Note_off_c, 42
1, 35089, Note_on_c, 61
1, 35090, Note_on_c, 63
1, 35091, Note_off_c, 56
1, 35092, Note_off_c, 61
1, 35105, Note_off_c, 63
1, 35107, Note_off_c, 39
1, 35111, Note_on_c, 61
1, 35112, Note_on_c, 39
1, 35112, Note_on_c, 56
1, 35114, Note_off_c, 61
1, 35115, Note_off_c, 56
1, 35131, Note_off_c, 39
1, 35134, Note_on_c, 39
1, 35135, Note_on_c, 66
1, 35136, Note_on_c, 42
1, 35136, Note_on_c, 36
1, 35136, Note_on_c, 27
1, 35136, Note_on_c, 39
1, 35136, Note_on_c, 39
1, 35136, Note_on_c, 39
1, 35137, Note_off_c, 36
1, 35137, Note_off_c, 42
1, 35137, Note_on_c, 61
1, 35138, Note_on_c, 66
1, 35149, Note_off_c, 39
1, 35155, Note_off_c, 39
1, 35160, Note_on_c, 39
1, 35170, Note_off_c, 66
1, 35174, Note_off_c, 39
1, 35176, Note_off_c, 27
1, 35176, Note_off_c, 39
1, 35178, Note_off_c, 66
1, 35179, Note_off_c, 39
1, 35180, Note_off_c, 61
1, 35183, Note_on_c, 63
1, 35184, Note_on_c, 42
1, 35184, Note_on_c, 39
1, 35185, Note_off_c, 42
1, 35185, Note_on_c, 58
1, 35186, Note_on_c, 63
1, 35200, Note_off_c, 63
1, 35203, Note_off_c, 39
1, 35208, Note_on_c, 39
1, 35227, Note_off_c, 39
1, 35232, Note_on_c, 42
1, 35232, Note_on_c, 38
1, 35232, Note_on_c, 39
1, 35233, Note_off_c, 38
1, 35233, Note_off_c, 42
1, 35233, Note_on_c, 39
1, 35234, Note_off_c, 39
1, 35239, Note_on_c, 39
1, 35240, Note_off_c, 39
1, 35251, Note_off_c, 39
1, 35256, Note_on_c, 39
1, 35274, Note_off_c, 63
1, 35275, Note_off_c, 39
1, 35276, Note_off_c, 58
1, 35278, Note_on_c, 39
1, 35279, Note_on_c, 39
1, 35279, Note_on_c, 63
1, 35280, Note_on_c, 42
1, 35280, Note_on_c, 27
1, 35280, Note_on_c, 39
1, 35280, Note_on_c, 39
1, 35281, Note_off_c, 42
1, 35281, Note_on_c, 58
1, 35282, Note_off_c, 63
1, 35284, Note_off_c, 58
1, 35292, Note_off_c, 39
1, 35299, Note_off_c, 39
1, 35303, Note_on_c, 63
1, 35304, Note_on_c, 39
1, 35304, Note_on_c, 58
1, 35306, Note_off_c, 63
1, 35307, Note_off_c, 58
1, 35315, Note_off_c, 27
1, 35318, Note_off_c, 39
1, 35320, Note_off_c, 39
1, 35323, Note_off_c, 39
1, 35326, Note_off_c, 27
1, 35326, Note_off_c, 39
1, 35326, Note_off_c, 39
1, 35326, Note_on_c, 39
1, 35328, Note_on_c, 42
1, 35328, Note_on_c, 36
1, 35328, Note_on_c, 27
1, 35328, Note_on_c, 39
1, 35328, Note_on_c, 39
1, 35328, Note_on_c, 39
1, 35328, Note_on_c, 66
1, 35329, Note_off_c, 36
1, 35329, Note_off_c, 42
1, 35329, Note_on_c, 61
1, 35341, Note_off_c, 39
1, 35347, Note_off_c, 39
1, 35352, Note_on_c, 39
1, 35366, Note_off_c, 39
1, 35368, Note_off_c, 39
1, 35368, Note_off_c, 27
1, 35371, Note_off_c, 66
1, 35371, Note_off_c, 39
1, 35372, Note_off_c, 61
1, 35376, Note_on_c, 42
1, 35376, Note_on_c, 39
1, 35376, Note_on_c, 56
1, 35377, Note_off_c, 42
1, 35377, Note_on_c, 61
1, 35379, Note_off_c, 56
1, 35380, Note_off_c, 61
1, 35395, Note_off_c, 39
1, 35399, Note_on_c, 61
1, 35400, Note_on_c, 39
1, 35400, Note_on_c, 56
1, 35402, Note_off_c, 61
1, 35403, Note_off_c, 56
1, 35419, Note_off_c, 39
1, 35422, Note_on_c, 39
1, 35424, Note_on_c, 42
1, 35424, Note_on_c, 38
1, 35424, Note_on_c, 36
1, 35424, Note_on_c, 27
1, 35424, Note_on_c, 39
1, 35424, Note_on_c, 39
1, 35424, Note_on_c, 39
1, 35424, Note_on_c, 66
1, 35425, Note_off_c, 36
1, 35425, Note_off_c, 38
1, 35425, Note_off_c, 42
1, 35425, Note_on_c, 61
1, 35437, Note_off_c, 39
1, 35443, Note_off_c, 39
1, 35448, Note_on_c, 39
1, 35462, Note_off_c, 39
1, 35464, Note_off_c, 27
1, 35464, Note_off_c, 39
1, 35467, Note_off_c, 66
1, 35467, Note_off_c, 39
1, 35468, Note_off_c, 61
1, 35471, Note_on_c, 58
1, 35472, Note_on_c, 42
1, 35472, Note_on_c, 39
1, 35473, Note_off_c, 42
1, 35473, Note_on_c, 63
1, 35491, Note_off_c, 39
1, 35496, Note_on_c, 39
1, 35515, Note_off_c, 39
1, 35520, Note_on_c, 42
1, 35520, Note_on_c, 39
1, 35521, Note_off_c, 42
1, 35539, Note_off_c, 39
1, 35544, Note_on_c, 39
1, 35563, Note_off_c, 39
1, 35568, Note_on_c, 42
1, 35568, Note_on_c, 36
1, 35568, Note_on_c, 39
1, 35569, Note_off_c, 36
1, 35569, Note_off_c, 42
1, 35586, Note_off_c, 58
1, 35587, Note_off_c, 63
1, 35587, Note_off_c, 39
1, 35588, Note_on_c, 60
1, 35588, Note_on_c, 55
1, 35592, Note_on_c, 39
1, 35596, Note_off_c, 55
1, 35596, Note_off_c, 60
1, 35596, Note_on_c, 54
1, 35596, Note_on_c, 59
1, 35604, Note_off_c, 59
1, 35604, Note_off_c, 54
1, 35604, Note_on_c, 53
1, 35604, Note_on_c, 58
1, 35611, Note_off_c, 39
1, 35612, Note_off_c, 53
1, 35612, Note_off_c, 58
1, 35612, Note_on_c, 52
1, 35612, Note_on_c, 57
1, 35616, Note_on_c, 42
1, 35616, Note_on_c, 38
1, 35616, Note_on_c, 39
1, 35617, Note_off_c, 38
1, 35617, Note_off_c, 42
1, 35617, Note_on_c, 39
1, 35618, Note_off_c, 39
1, 35620, Note_off_c, 57
1, 35620, Note_off_c, 52
1, 35620, Note_on_c, 51
1, 35620, Note_on_c, 56
1, 35623, Note_on_c, 39
1, 35624, Note_off_c, 39
1, 35628, Note_off_c, 56
1, 35628, Note_off_c, 51
1, 35628, Note_on_c, 50
1, 35628, Note_on_c, 55
1, 35635, Note_off_c, 39
1, 35636, Note_off_c, 50
1, 35636, Note_off_c, 55
1, 35636, Note_on_c, 54
1, 35636, Note_on_c, 49
1, 35640, Note_on_c, 39
1, 35644, Note_off_c, 49
1, 35644, Note_off_c, 54
1, 35644, Note_on_c, 48
1, 35644, Note_on_c, 53
1, 35652, Note_off_c, 53
1, 35652, Note_off_c, 48
1, 35659, Note_off_c, 39
1, 35664, Note_on_c, 42
1, 35664, Note_on_c, 39
1, 35665, Note_off_c, 42
1, 35683, Note_off_c, 39
1, 35688, Note_on_c, 39
1, 35707, Note_off_c, 39
1, 35712, Note_on_c, 42
1, 35712, Note_on_c, 36
1, 35712, Note_on_c, 39
1, 35712, Note_on_c, 61
1, 35713, Note_off_c, 36
1, 35713, Note_off_c, 42
1, 35713, Note_on_c, 56
1, 35715, Note_off_c, 61
1, 35716, Note_off_c, 56
1, 35731, Note_off_c, 39
1, 35736, Note_on_c, 39
1, 35736, Note_on_c, 61
1, 35737, Note_on_c, 56
1, 35739, Note_off_c, 61
1, 35740, Note_off_c, 56
1, 35755, Note_off_c, 39
1, 35758, Note_on_c, 39
1, 35759, Note_on_c, 61
1, 35760, Note_on_c, 42
1, 35760, Note_on_c, 27
1, 35760, Note_on_c, 39
1, 35760, Note_on_c, 39
1, 35760, Note_on_c, 56
1, 35761, Note_off_c, 42
1, 35761, Note_on_c, 39
1, 35762, Note_off_c, 61
1, 35763, Note_off_c, 56
1, 35774, Note_off_c, 39
1, 35779, Note_off_c, 39
1, 35783, Note_on_c, 61
1, 35784, Note_on_c, 39
1, 35785, Note_on_c, 56
1, 35786, Note_off_c, 61
1, 35788, Note_off_c, 56
1, 35796, Note_off_c, 27
1, 35798, Note_off_c, 39
1, 35800, Note_off_c, 39
1, 35803, Note_off_c, 39
1, 35806, Note_on_c, 39
1, 35807, Note_on_c, 66
1, 35808, Note_on_c, 42
1, 35808, Note_on_c, 38
1, 35808, Note_on_c, 27
1, 35808, Note_on_c, 39
1, 35808, Note_on_c, 39
1, 35809, Note_off_c, 38
1, 35809, Note_off_c, 42
1, 35809, Note_on_c, 39
1, 35809, Note_on_c, 61
1, 35822, Note_off_c, 39
1, 35827, Note_off_c, 39
1, 35832, Note_on_c, 39
1, 35846, Note_off_c, 39
1, 35848, Note_off_c, 27
1, 35848, Note_off_c, 39
1, 35850, Note_off_c, 66
1, 35851, Note_off_c, 39
1, 35852, Note_off_c, 61
1, 35856, Note_on_c, 42
1, 35856, Note_on_c, 39
1, 35856, Note_on_c, 56
1, 35857, Note_off_c, 42
1, 35857, Note_on_c, 61
1, 35859, Note_off_c, 56
1, 35860, Note_off_c, 61
1, 35875, Note_off_c, 39
1, 35879, Note_on_c, 61
1, 35880, Note_on_c, 39
1, 35880, Note_on_c, 56
1, 35882, Note_off_c, 61
1, 35883, Note_off_c, 56
1, 35899, Note_off_c, 39
1, 35902, Note_on_c, 39
1, 35903, Note_on_c, 66
1, 35904, Note_on_c, 42
1, 35904, Note_on_c, 36
1, 35904, Note_on_c, 27
1, 35904, Note_on_c, 39
1, 35904, Note_on_c, 39
1, 35904, Note_on_c, 39
1, 35905, Note_off_c, 36
1, 35905, Note_off_c, 42
1, 35905, Note_on_c, 61
1, 35917, Note_off_c, 39
1, 35923, Note_off_c, 39
1, 35928, Note_on_c, 39
1, 35942, Note_off_c, 39
1, 35944, Note_off_c, 27
1, 35944, Note_off_c, 39
1, 35946, Note_off_c, 66
1, 35947, Note_off_c, 39
1, 35948, Note_off_c, 61
1, 35951, Note_on_c, 63
1, 35952, Note_on_c, 42
1, 35952, Note_on_c, 39
1, 35953, Note_off_c, 42
1, 35953, Note_on_c, 58
1, 35971, Note_off_c, 39
1, 35976, Note_on_c, 39
1, 35995, Note_off_c, 39
1, 36000, Note_on_c, 42
1, 36000, Note_on_c, 38
1, 36000, Note_on_c, 39
1, 36001, Note_off_c, 38
1, 36001, Note_off_c, 42
1, 36001, Note_on_c, 39
1, 36002, Note_off_c, 39
1, 36007, Note_on_c, 39
1, 36008, Note_off_c, 39
1, 36019, Note_off_c, 39
1, 36024, Note_on_c, 39
1, 36042, Note_off_c, 63
1, 36043, Note_off_c, 39
1, 36044, Note_off_c, 58
1, 36046, Note_on_c, 39
1, 36047, Note_on_c, 39
1, 36047, Note_on_c, 63
1, 36048, Note_on_c, 42
1, 36048, Note_on_c, 27
1, 36048, Note_on_c, 39
1, 36048, Note_on_c, 39
1, 36049, Note_off_c, 42
1, 36049, Note_on_c, 58
1, 36050, Note_off_c, 63
1, 36052, Note_off_c, 58
1, 36060, Note_off_c, 39
1, 36067, Note_off_c, 39
1, 36071, Note_on_c, 63
1, 36072, Note_on_c, 39
1, 36072, Note_on_c, 58
1, 36074, Note_off_c, 63
1, 36075, Note_off_c, 58
1, 36083, Note_off_c, 27
1, 36086, Note_off_c, 39
1, 36088, Note_off_c, 39
1, 36091, Note_off_c, 39
1, 36094, Note_on_c, 39
1, 36096, Note_on_c, 42
1, 36096, Note_on_c, 36
1, 36096, Note_on_c, 27
1, 36096, Note_on_c, 25
1, 36096, Note_on_c, 37
1, 36096, Note_on_c, 37
1, 36096, Note_on_c, 39
1, 36096, Note_on_c, 39
1, 36096, Note_on_c, 39
1, 36096, Note_on_c, 66
1, 36097, Note_off_c, 36
1, 36097, Note_off_c, 42
1, 36097, Note_on_c, 61
1, 36098, Note_on_c, 66
1, 36109, Note_off_c, 39
1, 36115, Note_off_c, 39
1, 36120, Note_on_c, 39
1, 36134, Note_off_c, 39
1, 36136, Note_off_c, 39
1, 36136, Note_off_c, 27
1, 36139, Note_off_c, 66
1, 36139, Note_off_c, 39
1, 36140, Note_off_c, 61
1, 36141, Note_off_c, 66
1, 36143, Note_on_c, 63
1, 36144, Note_on_c, 42
1, 36144, Note_on_c, 39
1, 36144, Note_on_c, 56
1, 36145, Note_off_c, 42
1, 36145, Note_on_c, 61
1, 36147, Note_off_c, 56
1, 36148, Note_off_c, 61
1, 36158, Note_off_c, 63
1, 36163, Note_off_c, 39
1, 36167, Note_on_c, 61
1, 36168, Note_on_c, 39
1, 36168, Note_on_c, 56
1, 36170, Note_off_c, 61
1, 36171, Note_off_c, 56
1, 36187, Note_off_c, 39
1, 36190, Note_on_c, 39
1, 36192, Note_on_c, 42
1, 36192, Note_on_c, 38
1, 36192, Note_on_c, 36
1, 36192, Note_on_c, 27
1, 36192, Note_on_c, 39
1, 36192, Note_on_c, 39
1, 36192, Note_on_c, 39
1, 36192, Note_on_c, 66
1, 36193, Note_off_c, 36
1, 36193, Note_off_c, 38
1, 36193, Note_off_c, 42
1, 36193, Note_on_c, 61
1, 36194, Note_on_c, 66
1, 36205, Note_off_c, 39
1, 36211, Note_off_c, 39
1, 36216, Note_on_c, 39
1, 36230, Note_off_c, 39
1, 36232, Note_off_c, 27
1, 36232, Note_off_c, 39
1, 36235, Note_off_c, 66
1, 36235, Note_off_c, 39
1, 36236, Note_off_c, 61
1, 36239, Note_on_c, 58
1, 36240, Note_off_c, 66
1, 36240, Note_on_c, 42
1, 36240, Note_on_c, 39
1, 36241, Note_off_c, 42
1, 36241, Note_on_c, 63
1, 36242, Note_on_c, 63
1, 36257, Note_off_c, 63
1, 36259, Note_off_c, 39
1, 36264, Note_on_c, 39
1, 36283, Note_off_c, 39
1, 36286, Note_off_c, 37
1, 36286, Note_off_c, 37
1, 36286, Note_off_c, 25
1, 36288, Note_on_c, 42
1, 36288, Note_on_c, 25
1, 36288, Note_on_c, 37
1, 36288, Note_on_c, 37
1, 36288, Note_on_c, 39
1, 36289, Note_off_c, 42
1, 36290, Note_on_c, 66
1, 36307, Note_off_c, 39
1, 36312, Note_on_c, 39
1, 36324, Note_off_c, 66
1, 36331, Note_off_c, 39
1, 36336, Note_on_c, 42
1, 36336, Note_on_c, 36
1, 36336, Note_on_c, 39
1, 36337, Note_off_c, 36
1, 36337, Note_off_c, 42
1, 36338, Note_on_c, 63
1, 36352, Note_off_c, 63
1, 36354, Note_off_c, 58
1, 36355, Note_off_c, 39
1, 36355, Note_off_c, 63
1, 36356, Note_on_c, 60
1, 36356, Note_on_c, 55
1, 36360, Note_on_c, 39
1, 36364, Note_off_c, 55
1, 36364, Note_off_c, 60
1, 36364, Note_on_c, 54
1, 36364, Note_on_c, 59
1, 36372, Note_off_c, 59
1, 36372, Note_off_c, 54
1, 36372, Note_on_c, 53
1, 36372, Note_on_c, 58
1, 36379, Note_off_c, 39
1, 36380, Note_off_c, 53
1, 36380, Note_off_c, 58
1, 36380, Note_on_c, 52
1, 36380, Note_on_c, 57
1, 36384, Note_on_c, 42
1, 36384, Note_on_c, 38
1, 36384, Note_on_c, 39
1, 36385, Note_off_c, 38
1, 36385, Note_off_c, 42
1, 36385, Note_on_c, 39
1, 36386, Note_off_c, 39
1, 36386, Note_on_c, 66
1, 36388, Note_off_c, 57
1, 36388, Note_off_c, 52
1, 36388, Note_on_c, 51
1, 36388, Note_on_c, 56
1, 36391, Note_on_c, 39
1, 36392, Note_off_c, 39
1, 36396, Note_off_c, 56
1, 36396, Note_off_c, 51
1, 36396, Note_on_c, 50
1, 36396, Note_on_c, 55
1, 36403, Note_off_c, 39
1, 36404, Note_off_c, 50
1, 36404, Note_off_c, 55
1, 36404, Note_on_c, 54
1, 36404, Note_on_c, 49
1, 36408, Note_on_c, 39
1, 36412, Note_off_c, 49
1, 36412, Note_off_c, 54
1, 36412, Note_on_c, 48
1, 36412, Note_on_c, 53
1, 36420, Note_off_c, 53
1, 36420, Note_off_c, 48
1, 36422, Note_off_c, 66
1, 36427, Note_off_c, 39
1, 36432, Note_on_c, 42
1, 36432, Note_on_c, 39
1, 36433, Note_off_c, 42
1, 36434, Note_on_c, 63
1, 36450, Note_off_c, 63
1, 36451, Note_off_c, 39
1, 36456, Note_on_c, 39
1, 36475, Note_off_c, 39
1, 36478, Note_off_c, 37
1, 36478, Note_off_c, 37
1, 36478, Note_off_c, 25
1, 36480, Note_on_c, 42
1, 36480, Note_on_c, 36
1, 36480, Note_on_c, 27
1, 36480, Note_on_c, 39
1, 36480, Note_on_c, 39
1, 36480, Note_on_c, 39
1, 36480, Note_on_c, 61
1, 36481, Note_off_c, 36
1, 36481, Note_off_c, 42
1, 36481, Note_on_c, 56
1, 36482, Note_on_c, 66
1, 36483, Note_off_c, 61
1, 36484, Note_off_c, 56
1, 36499, Note_off_c, 39
1, 36504, Note_on_c, 39
1, 36504, Note_on_c, 61
1, 36505, Note_on_c, 56
1, 36507, Note_off_c, 61
1, 36508, Note_off_c, 56
1, 36519, Note_off_c, 66
1, 36523, Note_off_c, 39
1, 36526, Note_on_c, 39
1, 36527, Note_on_c, 61
1, 36528, Note_on_c, 42
1, 36528, Note_on_c, 27
1, 36528, Note_on_c, 69
1, 36528, Note_on_c, 39
1, 36528, Note_on_c, 39
1, 36528, Note_on_c, 56
1, 36529, Note_off_c, 69
1, 36529, Note_off_c, 42
1, 36529, Note_on_c, 39
1, 36530, Note_off_c, 61
1, 36530, Note_on_c, 63
1, 36531, Note_off_c, 56
1, 36542, Note_off_c, 39
1, 36544, Note_off_c, 63
1, 36547, Note_off_c, 39
1, 36551, Note_on_c, 61
1, 36552, Note_on_c, 39
1, 36553, Note_on_c, 56
1, 36554, Note_off_c, 61
1, 36556, Note_off_c, 56
1, 36564, Note_off_c, 27
1, 36566, Note_off_c, 39
1, 36568, Note_off_c, 39
1, 36571, Note_off_c, 39
1, 36574, Note_on_c, 39
1, 36575, Note_on_c, 66
1, 36576, Note_on_c, 42
1, 36576, Note_on_c, 38
1, 36576, Note_on_c, 27
1, 36576, Note_on_c, 69
1, 36576, Note_on_c, 39
1, 36576, Note_on_c, 39
1, 36577, Note_off_c, 69
1, 36577, Note_off_c, 38
1, 36577, Note_off_c, 42
1, 36577, Note_on_c, 39
1, 36577, Note_on_c, 61
1, 36578, Note_on_c, 66
1, 36590, Note_off_c, 39
1, 36595, Note_off_c, 39
1, 36600, Note_on_c, 39
1, 36609, Note_off_c, 66
1, 36614, Note_off_c, 39
1, 36616, Note_off_c, 27
1, 36616, Note_off_c, 39
1, 36618, Note_off_c, 66
1, 36619, Note_off_c, 39
1, 36620, Note_off_c, 61
1, 36624, Note_on_c, 42
1, 36624, Note_on_c, 39
1, 36624, Note_on_c, 56
1, 36625, Note_off_c, 42
1, 36625, Note_on_c, 61
1, 36626, Note_on_c, 63
1, 36627, Note_off_c, 56
1, 36628, Note_off_c, 61
1, 36637, Note_off_c, 63
1, 36643, Note_off_c, 39
1, 36647, Note_on_c, 61
1, 36648, Note_on_c, 39
1, 36648, Note_on_c, 56
1, 36650, Note_off_c, 61
1, 36651, Note_off_c, 56
1, 36667, Note_off_c, 39
1, 36670, Note_on_c, 39
1, 36671, Note_on_c, 66
1, 36672, Note_on_c, 42
1, 36672, Note_on_c, 36
1, 36672, Note_on_c, 27
1, 36672, Note_on_c, 69
1, 36672, Note_on_c, 39
1, 36672, Note_on_c, 39
1, 36672, Note_on_c, 39
1, 36673, Note_off_c, 69
1, 36673, Note_off_c, 36
1, 36673, Note_off_c, 42
1, 36673, Note_on_c, 61
1, 36685, Note_off_c, 39
1, 36691, Note_off_c, 39
1, 36696, Note_on_c, 39
1, 36710, Note_off_c, 39
1, 36712, Note_off_c, 27
1, 36712, Note_off_c, 39
1, 36714, Note_off_c, 66
1, 36715, Note_off_c, 39
1, 36716, Note_off_c, 61
1, 36719, Note_on_c, 63
1, 36720, Note_on_c, 42
1, 36720, Note_on_c, 69
1, 36720, Note_on_c, 39
1, 36721, Note_off_c, 69
1, 36721, Note_off_c, 42
1, 36721, Note_on_c, 58
1, 36739, Note_off_c, 39
1, 36744, Note_on_c, 39
1, 36763, Note_off_c, 39
1, 36768, Note_on_c, 42
1, 36768, Note_on_c, 38
1, 36768, Note_on_c, 39
1, 36769, Note_off_c, 38
1, 36769, Note_off_c, 42
1, 36769, Note_on_c, 39
1, 36770, Note_off_c, 39
1, 36775, Note_on_c, 39
1, 36776, Note_off_c, 39
1, 36787, Note_off_c, 39
1, 36792, Note_on_c, 39
1, 36810, Note_off_c, 63
1, 36811, Note_off_c, 39
1, 36812, Note_off_c, 58
1, 36814, Note_on_c, 39
1, 36815, Note_on_c, 39
1, 36815, Note_on_c, 63
1, 36816, Note_on_c, 42
1, 36816, Note_on_c, 27
1, 36816, Note_on_c, 69
1, 36816, Note_on_c, 39
1, 36816, Note_on_c, 39
1, 36817, Note_off_c, 69
1, 36817, Note_off_c, 42
1, 36817, Note_on_c, 58
1, 36818, Note_off_c, 63
1, 36820, Note_off_c, 58
1, 36828, Note_off_c, 39
1, 36835, Note_off_c, 39
1, 36839, Note_on_c, 63
1, 36840, Note_on_c, 39
1, 36840, Note_on_c, 58
1, 36842, Note_off_c, 63
1, 36843, Note_off_c, 58
1, 36851, Note_off_c, 27
1, 36854, Note_off_c, 39
1, 36856, Note_off_c, 39
1, 36859, Note_off_c, 39
1, 36862, Note_off_c, 27
1, 36862, Note_off_c, 39
1, 36862, Note_off_c, 39
1, 36862, Note_on_c, 39
1, 36864, Note_on_c, 42
1, 36864, Note_on_c, 36
1, 36864, Note_on_c, 27
1, 36864, Note_on_c, 69
1, 36864, Note_on_c, 39
1, 36864, Note_on_c, 39
1, 36864, Note_on_c, 39
1, 36864, Note_on_c, 66
1, 36865, Note_off_c, 69
1, 36865, Note_off_c, 36
1, 36865, Note_off_c, 42
1, 36865, Note_on_c, 61
1, 36877, Note_off_c, 39
1, 36883, Note_off_c, 39
1, 36888, Note_on_c, 39
1, 36902, Note_off_c, 39
1, 36904, Note_off_c, 27
1, 36904, Note_off_c, 39
1, 36907, Note_off_c, 66
1, 36907, Note_off_c, 39
1, 36908, Note_off_c, 61
1, 36912, Note_on_c, 42
1, 36912, Note_on_c, 39
1, 36912, Note_on_c, 56
1, 36913, Note_off_c, 42
1, 36913, Note_on_c, 61
1, 36915, Note_off_c, 56
1, 36916, Note_off_c, 61
1, 36931, Note_off_c, 39
1, 36935, Note_on_c, 61
1, 36936, Note_on_c, 39
1, 36936, Note_on_c, 56
1, 36938, Note_off_c, 61
1, 36939, Note_off_c, 56
1, 36955, Note_off_c, 39
1, 36958, Note_on_c, 39
1, 36960, Note_on_c, 42
1, 36960, Note_on_c, 38
1, 36960, Note_on_c, 36
1, 36960, Note_on_c, 27
1, 36960, Note_on_c, 69
1, 36960, Note_on_c, 39
1, 36960, Note_on_c, 39
1, 36960, Note_on_c, 39
1, 36960, Note_on_c, 66
1, 36961, Note_off_c, 69
1, 36961, Note_off_c, 36
1, 36961, Note_off_c, 38
1, 36961, Note_off_c, 42
1, 36961, Note_on_c, 61
1, 36973, Note_off_c, 39
1, 36979, Note_off_c, 39
1, 36984, Note_on_c, 39
1, 36992, Note_on_c, 44
1, 36998, Note_off_c, 39
1, 37000, Note_off_c, 27
1, 37000, Note_off_c, 39
1, 37000, Note_off_c, 44
1, 37003, Note_off_c, 39
1, 37003, Note_off_c, 66
1, 37004, Note_off_c, 61
1, 37007, Note_on_c, 58
1, 37008, Note_on_c, 42
1, 37008, Note_on_c, 69
1, 37008, Note_on_c, 39
1, 37009, Note_off_c, 69
1, 37009, Note_off_c, 42
1, 37009, Note_on_c, 63
1, 37024, Note_on_c, 44
1, 37027, Note_off_c, 39
1, 37032, Note_off_c, 44
1, 37032, Note_on_c, 39
1, 37051, Note_off_c, 39
1, 37056, Note_on_c, 42
1, 37056, Note_on_c, 39
1, 37056, Note_on_c, 44
1, 37057, Note_off_c, 42
1, 37064, Note_off_c, 44
1, 37075, Note_off_c, 39
1, 37080, Note_on_c, 39
1, 37088, Note_on_c, 44
1, 37096, Note_off_c, 44
1, 37099, Note_off_c, 39
1, 37104, Note_on_c, 42
1, 37104, Note_on_c, 36
1, 37104, Note_on_c, 39
1, 37105, Note_off_c, 36
1, 37105, Note_off_c, 42
1, 37120, Note_on_c, 44
1, 37122, Note_off_c, 58
1, 37123, Note_off_c, 39
1, 37123, Note_off_c, 63
1, 37124, Note_on_c, 60
1, 37124, Note_on_c, 55
1, 37128, Note_off_c, 44
1, 37128, Note_on_c, 39
1, 37132, Note_off_c, 60
1, 37132, Note_off_c, 55
1, 37132, Note_on_c, 54
1, 37132, Note_on_c, 59
1, 37140, Note_off_c, 59
1, 37140, Note_off_c, 54
1, 37140, Note_on_c, 53
1, 37140, Note_on_c, 58
1, 37147, Note_off_c, 39
1, 37148, Note_off_c, 53
1, 37148, Note_off_c, 58
1, 37148, Note_on_c, 52
1, 37148, Note_on_c, 57
1, 37152, Note_on_c, 42
1, 37152, Note_on_c, 38
1, 37152, Note_on_c, 39
1, 37152, Note_on_c, 44
1, 37153, Note_off_c, 38
1, 37153, Note_off_c, 42
1, 37153, Note_on_c, 39
1, 37154, Note_off_c, 39
1, 37156, Note_off_c, 57
1, 37156, Note_off_c, 52
1, 37156, Note_on_c, 51
1, 37156, Note_on_c, 56
1, 37159, Note_on_c, 39
1, 37160, Note_off_c, 39
1, 37160, Note_off_c, 44
1, 37164, Note_off_c, 51
1, 37164, Note_off_c, 56
1, 37164, Note_on_c, 50
1, 37164, Note_on_c, 55
1, 37171, Note_off_c, 39
1, 37172, Note_off_c, 50
1, 37172, Note_off_c, 55
1, 37172, Note_on_c, 54
1, 37172, Note_on_c, 49
1, 37176, Note_on_c, 39
1, 37180, Note_off_c, 49
1, 37180, Note_off_c, 54
1, 37180, Note_on_c, 48
1, 37180, Note_on_c, 53
1, 37184, Note_on_c, 44
1, 37188, Note_off_c, 53
1, 37188, Note_off_c, 48
1, 37192, Note_off_c, 44
1, 37195, Note_off_c, 39
1, 37200, Note_on_c, 42
1, 37200, Note_on_c, 39
1, 37201, Note_off_c, 42
1, 37219, Note_off_c, 39
1, 37224, Note_on_c, 39
1, 37243, Note_off_c, 39
1, 37248, Note_on_c, 42
1, 37248, Note_on_c, 36
1, 37248, Note_on_c, 39
1, 37248, Note_on_c, 61
1, 37249, Note_off_c, 36
1, 37249, Note_off_c, 42
1, 37249, Note_on_c, 56
1, 37251, Note_off_c, 61
1, 37252, Note_off_c, 56
1, 37267, Note_off_c, 39
1, 37272, Note_on_c, 39
1, 37272, Note_on_c, 61
1, 37273, Note_on_c, 56
1, 37275, Note_off_c, 61
1, 37276, Note_off_c, 56
1, 37291, Note_off_c, 39
1, 37294, Note_on_c, 39
1, 37295, Note_on_c, 61
1, 37296, Note_on_c, 42
1, 37296, Note_on_c, 27
1, 37296, Note_on_c, 69
1, 37296, Note_on_c, 39
1, 37296, Note_on_c, 39
1, 37296, Note_on_c, 56
1, 37297, Note_off_c, 69
1, 37297, Note_off_c, 42
1, 37297, Note_on_c, 39
1, 37298, Note_off_c, 61
1, 37299, Note_off_c, 56
1, 37310, Note_off_c, 39
1, 37315, Note_off_c, 39
1, 37319, Note_on_c, 61
1, 37320, Note_on_c, 39
1, 37321, Note_on_c, 56
1, 37322, Note_off_c, 61
1, 37324, Note_off_c, 56
1, 37332, Note_off_c, 27
1, 37334, Note_off_c, 39
1, 37336, Note_off_c, 39
1, 37339, Note_off_c, 39
1, 37342, Note_on_c, 39
1, 37343, Note_on_c, 66
1, 37344, Note_on_c, 42
1, 37344, Note_on_c, 38
1, 37344, Note_on_c, 27
1, 37344, Note_on_c, 69
1, 37344, Note_on_c, 39
1, 37344, Note_on_c, 39
1, 37345, Note_off_c, 69
1, 37345, Note_off_c, 38
1, 37345, Note_off_c, 42
1, 37345, Note_on_c, 39
1, 37345, Note_on_c, 61
1, 37358, Note_off_c, 39
1, 37363, Note_off_c, 39
1, 37368, Note_on_c, 39
1, 37382, Note_off_c, 39
1, 37384, Note_off_c, 27
1, 37384, Note_off_c, 39
1, 37386, Note_off_c, 66
1, 37387, Note_off_c, 39
1, 37388, Note_off_c, 61
1, 37392, Note_on_c, 42
1, 37392, Note_on_c, 39
1, 37392, Note_on_c, 56
1, 37393, Note_off_c, 42
1, 37393, Note_on_c, 61
1, 37395, Note_off_c, 56
1, 37396, Note_off_c, 61
1, 37411, Note_off_c, 39
1, 37415, Note_on_c, 61
1, 37416, Note_on_c, 39
1, 37416, Note_on_c, 56
1, 37418, Note_off_c, 61
1, 37419, Note_off_c, 56
1, 37435, Note_off_c, 39
1, 37438, Note_on_c, 39
1, 37439, Note_on_c, 66
1, 37440, Note_on_c, 42
1, 37440, Note_on_c, 36
1, 37440, Note_on_c, 27
1, 37440, Note_on_c, 69
1, 37440, Note_on_c, 39
1, 37440, Note_on_c, 39
1, 37440, Note_on_c, 39
1, 37441, Note_off_c, 69
1, 37441, Note_off_c, 36
1, 37441, Note_off_c, 42
1, 37441, Note_on_c, 61
1, 37453, Note_off_c, 39
1, 37459, Note_off_c, 39
1, 37464, Note_on_c, 39
1, 37478, Note_off_c, 39
1, 37480, Note_off_c, 27
1, 37480, Note_off_c, 39
1, 37482, Note_off_c, 66
1, 37483, Note_off_c, 39
1, 37484, Note_off_c, 61
1, 37487, Note_on_c, 63
1, 37488, Note_on_c, 42
1, 37488, Note_on_c, 69
1, 37488, Note_on_c, 39
1, 37489, Note_off_c, 69
1, 37489, Note_off_c, 42
1, 37489, Note_on_c, 58
1, 37507, Note_off_c, 39
1, 37512, Note_on_c, 39
1, 37531, Note_off_c, 39
1, 37536, Note_on_c, 42
1, 37536, Note_on_c, 38
1, 37536, Note_on_c, 39
1, 37537, Note_off_c, 38
1, 37537, Note_off_c, 42
1, 37537, Note_on_c, 39
1, 37538, Note_off_c, 39
1, 37543, Note_on_c, 39
1, 37544, Note_off_c, 39
1, 37555, Note_off_c, 39
1, 37560, Note_on_c, 39
1, 37578, Note_off_c, 63
1, 37579, Note_off_c, 39
1, 37582, Note_on_c, 39
1, 37583, Note_off_c, 58
1, 37583, Note_on_c, 39
1, 37584, Note_on_c, 42
1, 37584, Note_on_c, 27
1, 37584, Note_on_c, 69
1, 37584, Note_on_c, 39
1, 37584, Note_on_c, 39
1, 37585, Note_off_c, 69
1, 37585, Note_off_c, 42
1, 37585, Note_on_c, 58
1, 37588, Note_off_c, 58
1, 37596, Note_off_c, 39
1, 37603, Note_off_c, 39
1, 37607, Note_on_c, 63
1, 37608, Note_on_c, 39
1, 37608, Note_on_c, 58
1, 37610, Note_off_c, 63
1, 37611, Note_off_c, 58
1, 37619, Note_off_c, 27
1, 37622, Note_off_c, 39
1, 37624, Note_off_c, 39
1, 37627, Note_off_c, 39
1, 37630, Note_on_c, 39
1, 37632, Note_on_c, 42
1, 37632, Note_on_c, 36
1, 37632, Note_on_c, 27
1, 37632, Note_on_c, 69
1, 37632, Note_on_c, 39
1, 37632, Note_on_c, 66
1, 37632, Note_on_c, 39
1, 37633, Note_off_c, 69
1, 37633, Note_off_c, 36
1, 37633, Note_off_c, 42
1, 37633, Note_on_c, 61
1, 37645, Note_off_c, 39
1, 37651, Note_off_c, 39
1, 37656, Note_on_c, 39
1, 37670, Note_off_c, 39
1, 37672, Note_off_c, 27
1, 37675, Note_off_c, 66
1, 37675, Note_off_c, 39
1, 37676, Note_off_c, 61
1, 37680, Note_on_c, 42
1, 37680, Note_on_c, 56
1, 37680, Note_on_c, 39
1, 37680, Note_on_c, 44
1, 37681, Note_off_c, 42
1, 37681, Note_on_c, 61
1, 37683, Note_off_c, 56
1, 37684, Note_off_c, 61
1, 37688, Note_off_c, 44
1, 37688, Note_on_c, 45
1, 37696, Note_off_c, 45
1, 37696, Note_on_c, 46
1, 37699, Note_off_c, 39
1, 37703, Note_on_c, 61
1, 37704, Note_off_c, 46
1, 37704, Note_on_c, 56
1, 37704, Note_on_c, 39
1, 37704, Note_on_c, 47
1, 37706, Note_off_c, 61
1, 37707, Note_off_c, 56
1, 37712, Note_off_c, 47
1, 37712, Note_on_c, 48
1, 37720, Note_off_c, 48
1, 37720, Note_on_c, 49
1, 37723, Note_off_c, 39
1, 37726, Note_on_c, 39
1, 37728, Note_off_c, 49
1, 37728, Note_on_c, 42
1, 37728, Note_on_c, 38
1, 37728, Note_on_c, 36
1, 37728, Note_on_c, 27
1, 37728, Note_on_c, 69
1, 37728, Note_on_c, 39
1, 37728, Note_on_c, 66
1, 37728, Note_on_c, 39
1, 37728, Note_on_c, 50
1, 37729, Note_off_c, 69
1, 37729, Note_off_c, 36
1, 37729, Note_off_c, 38
1, 37729, Note_off_c, 42
1, 37729, Note_on_c, 61
1, 37736, Note_off_c, 50
1, 37736, Note_on_c, 51
1, 37741, Note_off_c, 39
1, 37744, Note_off_c, 51
1, 37744, Note_on_c, 52
1, 37747, Note_off_c, 39
1, 37752, Note_off_c, 52
1, 37752, Note_on_c, 39
1, 37752, Note_on_c, 53
1, 37760, Note_off_c, 53
1, 37760, Note_on_c, 54
1, 37766, Note_off_c, 39
1, 37768, Note_off_c, 27
1, 37768, Note_off_c, 54
1, 37768, Note_on_c, 55
1, 37771, Note_off_c, 66
1, 37771, Note_off_c, 39
1, 37772, Note_off_c, 61
1, 37775, Note_on_c, 58
1, 37776, Note_off_c, 55
1, 37776, Note_on_c, 42
1, 37776, Note_on_c, 69
1, 37776, Note_on_c, 39
1, 37776, Note_on_c, 56
1, 37777, Note_off_c, 69
1, 37777, Note_off_c, 42
1, 37777, Note_on_c, 63
1, 37784, Note_off_c, 56
1, 37784, Note_on_c, 57
1, 37792, Note_off_c, 57
1, 37792, Note_on_c, 51
1, 37795, Note_off_c, 39
1, 37800, Note_on_c, 39
1, 37804, Note_off_c, 51
1, 37819, Note_off_c, 39
1, 37824, Note_on_c, 42
1, 37824, Note_on_c, 39
1, 37825, Note_off_c, 42
1, 37825, Note_on_c, 46
1, 37843, Note_off_c, 39
1, 37848, Note_on_c, 39
1, 37867, Note_off_c, 39
1, 37872, Note_on_c, 42
1, 37872, Note_on_c, 36
1, 37872, Note_on_c, 39
1, 37873, Note_off_c, 36
1, 37873, Note_off_c, 42
1, 37889, Note_on_c, 46
1, 37890, Note_off_c, 58
1, 37891, Note_off_c, 63
1, 37891, Note_off_c, 39
1, 37892, Note_on_c, 60
1, 37892, Note_on_c, 55
1, 37896, Note_on_c, 39
1, 37900, Note_off_c, 55
1, 37900, Note_off_c, 60
1, 37900, Note_on_c, 54
1, 37900, Note_on_c, 59
1, 37908, Note_off_c, 59
1, 37908, Note_off_c, 54
1, 37908, Note_on_c, 53
1, 37908, Note_on_c, 58
1, 37915, Note_off_c, 39
1, 37916, Note_off_c, 53
1, 37916, Note_off_c, 58
1, 37916, Note_on_c, 52
1, 37916, Note_on_c, 57
1, 37920, Note_on_c, 42
1, 37920, Note_on_c, 38
1, 37920, Note_on_c, 39
1, 37921, Note_off_c, 38
1, 37921, Note_off_c, 42
1, 37921, Note_on_c, 39
1, 37922, Note_off_c, 39
1, 37924, Note_off_c, 57
1, 37924, Note_off_c, 52
1, 37924, Note_on_c, 51
1, 37924, Note_on_c, 56
1, 37927, Note_on_c, 39
1, 37928, Note_off_c, 39
1, 37932, Note_off_c, 56
1, 37932, Note_off_c, 51
1, 37932, Note_on_c, 50
1, 37932, Note_on_c, 55
1, 37939, Note_off_c, 39
1, 37940, Note_off_c, 50
1, 37940, Note_off_c, 55
1, 37940, Note_on_c, 54
1, 37940, Note_on_c, 49
1, 37944, Note_on_c, 39
1, 37948, Note_off_c, 49
1, 37948, Note_off_c, 54
1, 37948, Note_on_c, 48
1, 37948, Note_on_c, 53
1, 37956, Note_off_c, 53
1, 37956, Note_off_c, 48
1, 37963, Note_off_c, 39
1, 37968, Note_on_c, 52
1, 37968, Note_on_c, 36
1, 37968, Note_on_c, 27
1, 37968, Note_on_c, 51
1, 37969, Note_off_c, 36
1, 37969, Note_off_c, 52
1, 37998, Note_off_c, 27
1, 38008, Note_off_c, 51
1, 38016, Note_on_c, 52
1, 38016, Note_on_c, 42
1, 38016, Note_on_c, 36
1, 38016, Note_on_c, 63
1, 38016, Note_on_c, 66
1, 38016, Note_on_c, 58
1, 38017, Note_off_c, 36
1, 38017, Note_off_c, 42
1, 38017, Note_off_c, 52
1, 38064, Note_on_c, 42
1, 38064, Note_on_c, 39
1, 38064, Note_on_c, 63
1, 38064, Note_on_c, 58
1, 38064, Note_on_c, 51
1, 38065, Note_off_c, 42
1, 38079, Note_off_c, 51
1, 38099, Note_off_c, 39
1, 38104, Note_off_c, 63
1, 38104, Note_off_c, 58
1, 38112, Note_on_c, 42
1, 38112, Note_on_c, 38
1, 38112, Note_on_c, 39
1, 38112, Note_on_c, 63
1, 38112, Note_on_c, 51
1, 38112, Note_on_c, 51
1, 38113, Note_off_c, 38
1, 38113, Note_off_c, 42
1, 38127, Note_off_c, 51
1, 38147, Note_off_c, 39
1, 38152, Note_off_c, 63
1, 38152, Note_off_c, 51
1, 38160, Note_on_c, 42
1, 38161, Note_off_c, 42
1, 38208, Note_on_c, 42
1, 38208, Note_on_c, 36
1, 38208, Note_on_c, 39
1, 38208, Note_on_c, 63
1, 38208, Note_on_c, 51
1, 38208, Note_on_c, 51
1, 38209, Note_off_c, 36
1, 38209, Note_off_c, 42
1, 38223, Note_off_c, 51
1, 38243, Note_off_c, 39
1, 38248, Note_off_c, 63
1, 38248, Note_off_c, 51
1, 38256, Note_on_c, 42
1, 38257, Note_off_c, 42
1, 38303, Note_off_c, 46
1, 38304, Note_on_c, 42
1, 38304, Note_on_c, 38
1, 38304, Note_on_c, 61
1, 38305, Note_off_c, 38
1, 38305, Note_off_c, 42
1, 38305, Note_on_c, 39
1, 38306, Note_off_c, 39
1, 38311, Note_on_c, 39
1, 38312, Note_off_c, 39
1, 38352, Note_on_c, 42
1, 38352, Note_on_c, 37
1, 38352, Note_on_c, 61
1, 38352, Note_on_c, 49
1, 38352, Note_on_c, 49
1, 38353, Note_off_c, 42
1, 38367, Note_off_c, 49
1, 38367, Note_off_c, 46
1, 38368, Note_on_c, 61
1, 38387, Note_off_c, 37
1, 38392, Note_off_c, 61
1, 38392, Note_off_c, 49
1, 38396, Note_off_c, 66
1, 38396, Note_off_c, 63
1, 38396, Note_off_c, 58
1, 38400, Note_on_c, 42
1, 38400, Note_on_c, 36
1, 38400, Note_on_c, 37
1, 38400, Note_on_c, 61
1, 38400, Note_on_c, 56
1, 38400, Note_on_c, 65
1, 38400, Note_on_c, 61
1, 38400, Note_on_c, 49
1, 38400, Note_on_c, 49
1, 38401, Note_off_c, 36
1, 38401, Note_off_c, 42
1, 38415, Note_off_c, 49
1, 38438, Note_off_c, 37
1, 38440, Note_off_c, 61
1, 38440, Note_off_c, 49
1, 38447, Note_off_c, 61
1, 38448, Note_on_c, 42
1, 38448, Note_on_c, 56
1, 38449, Note_off_c, 42
1, 38496, Note_on_c, 42
1, 38496, Note_on_c, 38
1, 38496, Note_on_c, 36
1, 38496, Note_on_c, 37
1, 38496, Note_on_c, 61
1, 38496, Note_on_c, 49
1, 38496, Note_on_c, 49
1, 38497, Note_off_c, 36
1, 38497, Note_off_c, 38
1, 38497, Note_off_c, 42
1, 38511, Note_off_c, 49
1, 38511, Note_off_c, 61
1, 38531, Note_off_c, 37
1, 38536, Note_off_c, 49
1, 38536, Note_off_c, 61
1, 38544, Note_on_c, 42
1, 38545, Note_off_c, 42
1, 38592, Note_on_c, 42
1, 38593, Note_off_c, 42
1, 38639, Note_off_c, 56
1, 38640, Note_on_c, 42
1, 38640, Note_on_c, 36
1, 38640, Note_on_c, 58
1, 38641, Note_off_c, 36
1, 38641, Note_off_c, 42
1, 38687, Note_off_c, 58
1, 38688, Note_on_c, 42
1, 38688, Note_on_c, 38
1, 38688, Note_on_c, 63
1, 38689, Note_off_c, 38
1, 38689, Note_off_c, 42
1, 38689, Note_on_c, 39
1, 38690, Note_off_c, 39
1, 38695, Note_on_c, 39
1, 38696, Note_off_c, 39
1, 38736, Note_on_c, 42
1, 38737, Note_off_c, 42
1, 38780, Note_off_c, 56
1, 38780, Note_off_c, 61
1, 38780, Note_off_c, 65
1, 38784, Note_on_c, 42
1, 38784, Note_on_c, 36
1, 38784, Note_on_c, 63
1, 38784, Note_on_c, 66
1, 38784, Note_on_c, 58
1, 38785, Note_off_c, 36
1, 38785, Note_off_c, 42
1, 38832, Note_on_c, 42
1, 38832, Note_on_c, 39
1, 38832, Note_on_c, 63
1, 38832, Note_on_c, 58
1, 38832, Note_on_c, 51
1, 38832, Note_on_c, 51
1, 38833, Note_off_c, 42
1, 38847, Note_off_c, 51
1, 38867, Note_off_c, 39
1, 38872, Note_off_c, 63
1, 38872, Note_off_c, 58
1, 38872, Note_off_c, 51
1, 38880, Note_off_c, 63
1, 38880, Note_on_c, 42
1, 38880, Note_on_c, 38
1, 38880, Note_on_c, 39
1, 38880, Note_on_c, 63
1, 38880, Note_on_c, 51
1, 38880, Note_on_c, 58
1, 38880, Note_on_c, 51
1, 38881, Note_off_c, 38
1, 38881, Note_off_c, 42
1, 38881, Note_on_c, 77
1, 38889, Note_off_c, 77
1, 38895, Note_off_c, 51
1, 38908, Note_on_c, 75
1, 38911, Note_off_c, 75
1, 38920, Note_off_c, 63
1, 38920, Note_off_c, 39
1, 38920, Note_off_c, 51
1, 38920, Note_off_c, 58
1, 38925, Note_on_c, 73
1, 38928, Note_on_c, 42
1, 38929, Note_off_c, 42
1, 38940, Note_off_c, 73
1, 38940, Note_on_c, 77
1, 38945, Note_on_c, 77
1, 38953, Note_off_c, 77
1, 38960, Note_off_c, 77
1, 38960, Note_on_c, 78
1, 38972, Note_on_c, 75
1, 38975, Note_off_c, 75
1, 38976, Note_off_c, 78
1, 38976, Note_on_c, 42
1, 38976, Note_on_c, 36
1, 38976, Note_on_c, 39
1, 38976, Note_on_c, 63
1, 38976, Note_on_c, 58
1, 38976, Note_on_c, 51
1, 38976, Note_on_c, 51
1, 38976, Note_on_c, 77
1, 38977, Note_off_c, 36
1, 38977, Note_off_c, 42
1, 38989, Note_on_c, 73
1, 38991, Note_off_c, 51
1, 38995, Note_off_c, 77
1, 38995, Note_on_c, 75
1, 39004, Note_off_c, 73
1, 39004, Note_on_c, 77
1, 39014, Note_off_c, 75
1, 39014, Note_on_c, 73
1, 39016, Note_off_c, 63
1, 39016, Note_off_c, 58
1, 39016, Note_off_c, 51
1, 39018, Note_off_c, 39
1, 39024, Note_off_c, 77
1, 39024, Note_on_c, 78
1, 39024, Note_on_c, 42
1, 39025, Note_off_c, 42
1, 39033, Note_off_c, 73
1, 39033, Note_on_c, 77
1, 39040, Note_off_c, 78
1, 39040, Note_on_c, 77
1, 39052, Note_off_c, 77
1, 39052, Note_on_c, 78
1, 39059, Note_off_c, 77
1, 39059, Note_on_c, 75
1, 39071, Note_on_c, 77
1, 39072, Note_off_c, 78
1, 39072, Note_on_c, 42
1, 39072, Note_on_c, 38
1, 39073, Note_off_c, 38
1, 39073, Note_off_c, 42
1, 39073, Note_on_c, 39
1, 39074, Note_off_c, 39
1, 39078, Note_off_c, 75
1, 39078, Note_on_c, 73
1, 39079, Note_on_c, 39
1, 39080, Note_off_c, 39
1, 39090, Note_off_c, 77
1, 39090, Note_on_c, 75
1, 39097, Note_off_c, 73
1, 39097, Note_on_c, 77
1, 39109, Note_on_c, 73
1, 39110, Note_off_c, 75
1, 39116, Note_off_c, 77
1, 39116, Note_on_c, 78
1, 39120, Note_on_c, 42
1, 39120, Note_on_c, 37
1, 39120, Note_on_c, 61
1, 39120, Note_on_c, 56
1, 39120, Note_on_c, 49
1, 39120, Note_on_c, 49
1, 39121, Note_off_c, 42
1, 39128, Note_on_c, 77
1, 39129, Note_off_c, 73
1, 39135, Note_off_c, 49
1, 39135, Note_on_c, 77
1, 39136, Note_off_c, 78
1, 39147, Note_off_c, 77
1, 39147, Note_on_c, 78
1, 39154, Note_off_c, 77
1, 39154, Note_on_c, 75
1, 39155, Note_off_c, 37
1, 39157, Note_off_c, 78
1, 39157, Note_on_c, 77
1, 39160, Note_off_c, 61
1, 39160, Note_off_c, 49
1, 39160, Note_off_c, 56
1, 39164, Note_off_c, 58
1, 39164, Note_off_c, 66
1, 39164, Note_off_c, 63
1, 39168, Note_off_c, 77
1, 39168, Note_on_c, 42
1, 39168, Note_on_c, 36
1, 39168, Note_on_c, 37
1, 39168, Note_on_c, 65
1, 39168, Note_on_c, 61
1, 39168, Note_on_c, 56
1, 39168, Note_on_c, 61
1, 39168, Note_on_c, 49
1, 39168, Note_on_c, 56
1, 39168, Note_on_c, 49
1, 39168, Note_on_c, 75
1, 39169, Note_off_c, 36
1, 39169, Note_off_c, 42
1, 39173, Note_on_c, 73
1, 39174, Note_off_c, 75
1, 39183, Note_off_c, 49
1, 39184, Note_off_c, 75
1, 39184, Note_on_c, 73
1, 39192, Note_on_c, 77
1, 39193, Note_off_c, 73
1, 39200, Note_off_c, 73
1, 39200, Note_on_c, 72
1, 39208, Note_off_c, 61
1, 39208, Note_off_c, 37
1, 39208, Note_off_c, 49
1, 39208, Note_off_c, 56
1, 39211, Note_off_c, 77
1, 39211, Note_on_c, 78
1, 39216, Note_off_c, 72
1, 39216, Note_on_c, 42
1, 39216, Note_on_c, 73
1, 39217, Note_off_c, 42
1, 39221, Note_off_c, 78
1, 39221, Note_on_c, 77
1, 39232, Note_off_c, 73
1, 39232, Note_off_c, 77
1, 39232, Note_on_c, 75
1, 39232, Note_on_c, 72
1, 39248, Note_off_c, 72
1, 39248, Note_off_c, 75
1, 39248, Note_on_c, 73
1, 39248, Note_on_c, 70
1, 39264, Note_off_c, 70
1, 39264, Note_off_c, 73
1, 39264, Note_on_c, 72
1, 39264, Note_on_c, 42
1, 39264, Note_on_c, 38
1, 39264, Note_on_c, 36
1, 39264, Note_on_c, 37
1, 39264, Note_on_c, 61
1, 39264, Note_on_c, 56
1, 39264, Note_on_c, 49
1, 39264, Note_on_c, 49
1, 39264, Note_on_c, 68
1, 39265, Note_off_c, 36
1, 39265, Note_off_c, 38
1, 39265, Note_off_c, 42
1, 39279, Note_off_c, 49
1, 39280, Note_off_c, 72
1, 39280, Note_on_c, 73
1, 39280, Note_on_c, 72
1, 39281, Note_off_c, 68
1, 39296, Note_off_c, 73
1, 39296, Note_on_c, 72
1, 39296, Note_on_c, 73
1, 39297, Note_off_c, 72
1, 39304, Note_off_c, 61
1, 39304, Note_off_c, 56
1, 39304, Note_off_c, 49
1, 39306, Note_off_c, 37
1, 39312, Note_off_c, 73
1, 39312, Note_off_c, 72
1, 39312, Note_on_c, 70
1, 39312, Note_on_c, 42
1, 39312, Note_on_c, 72
1, 39313, Note_off_c, 42
1, 39328, Note_off_c, 72
1, 39328, Note_off_c, 70
1, 39328, Note_on_c, 68
1, 39328, Note_on_c, 70
1, 39344, Note_off_c, 70
1, 39344, Note_on_c, 72
1, 39344, Note_on_c, 68
1, 39345, Note_off_c, 68
1, 39360, Note_off_c, 68
1, 39360, Note_on_c, 73
1, 39360, Note_on_c, 42
1, 39360, Note_on_c, 70
1, 39361, Note_off_c, 42
1, 39361, Note_off_c, 72
1, 39376, Note_off_c, 73
1, 39376, Note_on_c, 72
1, 39392, Note_off_c, 72
1, 39392, Note_on_c, 70
1, 39408, Note_off_c, 70
1, 39408, Note_on_c, 68
1, 39408, Note_on_c, 42
1, 39408, Note_on_c, 36
1, 39409, Note_off_c, 36
1, 39409, Note_off_c, 42
1, 39424, Note_off_c, 68
1, 39424, Note_on_c, 70
1, 39455, Note_off_c, 70
1, 39456, Note_on_c, 42
1, 39456, Note_on_c, 38
1, 39456, Note_on_c, 70
1, 39457, Note_off_c, 38
1, 39457, Note_off_c, 42
1, 39457, Note_on_c, 39
1, 39458, Note_off_c, 39
1, 39463, Note_on_c, 39
1, 39464, Note_off_c, 39
1, 39504, Note_on_c, 42
1, 39505, Note_off_c, 42
1, 39519, Note_off_c, 70
1, 39520, Note_on_c, 70
1, 39536, Note_off_c, 70
1, 39548, Note_off_c, 65
1, 39548, Note_off_c, 56
1, 39548, Note_off_c, 61
1, 39552, Note_on_c, 42
1, 39552, Note_on_c, 36
1, 39552, Note_on_c, 54
1, 39552, Note_on_c, 63
1, 39552, Note_on_c, 59
1, 39553, Note_off_c, 36
1, 39553, Note_off_c, 42
1, 39600, Note_off_c, 70
1, 39600, Note_on_c, 42
1, 39600, Note_on_c, 35
1, 39600, Note_on_c, 59
1, 39600, Note_on_c, 54
1, 39600, Note_on_c, 47
1, 39600, Note_on_c, 47
1, 39601, Note_off_c, 42
1, 39615, Note_off_c, 47
1, 39626, Note_on_c, 70
1, 39631, Note_off_c, 70
1, 39635, Note_off_c, 35
1, 39640, Note_off_c, 59
1, 39640, Note_off_c, 54
1, 39640, Note_off_c, 47
1, 39648, Note_on_c, 42
1, 39648, Note_on_c, 38
1, 39648, Note_on_c, 35
1, 39648, Note_on_c, 59
1, 39648, Note_on_c, 47
1, 39648, Note_on_c, 54
1, 39648, Note_on_c, 47
1, 39649, Note_off_c, 38
1, 39649, Note_off_c, 42
1, 39663, Note_off_c, 47
1, 39663, Note_on_c, 70
1, 39678, Note_off_c, 70
1, 39679, Note_on_c, 73
1, 39683, Note_off_c, 35
1, 39688, Note_off_c, 59
1, 39688, Note_off_c, 47
1, 39688, Note_off_c, 54
1, 39690, Note_on_c, 70
1, 39694, Note_off_c, 73
1, 39695, Note_off_c, 70
1, 39695, Note_on_c, 77
1, 39696, Note_on_c, 42
1, 39697, Note_off_c, 42
1, 39712, Note_off_c, 77
1, 39713, Note_on_c, 75
1, 39727, Note_off_c, 75
1, 39727, Note_on_c, 70
1, 39727, Note_on_c, 82
1, 39742, Note_off_c, 70
1, 39743, Note_off_c, 82
1, 39743, Note_on_c, 73
1, 39743, Note_on_c, 78
1, 39744, Note_on_c, 42
1, 39744, Note_on_c, 36
1, 39744, Note_on_c, 35
1, 39744, Note_on_c, 59
1, 39744, Note_on_c, 54
1, 39744, Note_on_c, 47
1, 39744, Note_on_c, 47
1, 39745, Note_off_c, 36
1, 39745, Note_off_c, 42
1, 39758, Note_off_c, 73
1, 39759, Note_off_c, 47
1, 39759, Note_off_c, 78
1, 39759, Note_on_c, 77
1, 39759, Note_on_c, 75
1, 39775, Note_off_c, 75
1, 39775, Note_on_c, 77
1, 39776, Note_off_c, 77
1, 39777, Note_on_c, 75
1, 39779, Note_off_c, 35
1, 39784, Note_off_c, 54
1, 39784, Note_off_c, 47
1, 39784, Note_off_c, 59
1, 39791, Note_off_c, 77
1, 39791, Note_off_c, 75
1, 39791, Note_on_c, 82
1, 39791, Note_on_c, 75
1, 39792, Note_on_c, 42
1, 39793, Note_off_c, 42
1, 39807, Note_off_c, 82
1, 39807, Note_on_c, 78
1, 39809, Note_off_c, 75
1, 39809, Note_on_c, 77
1, 39823, Note_off_c, 78
1, 39823, Note_on_c, 75
1, 39824, Note_off_c, 77
1, 39824, Note_on_c, 73
1, 39837, Note_off_c, 73
1, 39837, Note_on_c, 70
1, 39839, Note_off_c, 75
1, 39839, Note_on_c, 77
1, 39840, Note_on_c, 42
1, 39840, Note_on_c, 38
1, 39841, Note_off_c, 38
1, 39841, Note_off_c, 42
1, 39841, Note_on_c, 39
1, 39842, Note_off_c, 39
1, 39847, Note_on_c, 39
1, 39848, Note_off_c, 39
1, 39855, Note_off_c, 70
1, 39855, Note_off_c, 77
1, 39855, Note_on_c, 75
1, 39855, Note_on_c, 73
1, 39871, Note_off_c, 73
1, 39871, Note_on_c, 75
1, 39873, Note_off_c, 75
1, 39873, Note_on_c, 77
1, 39888, Note_off_c, 77
1, 39888, Note_on_c, 73
1, 39888, Note_on_c, 42
1, 39888, Note_on_c, 37
1, 39888, Note_on_c, 61
1, 39888, Note_on_c, 49
1, 39888, Note_on_c, 56
1, 39888, Note_on_c, 49
1, 39889, Note_off_c, 42
1, 39901, Note_off_c, 73
1, 39901, Note_on_c, 70
1, 39903, Note_off_c, 49
1, 39903, Note_off_c, 75
1, 39903, Note_on_c, 77
1, 39919, Note_off_c, 70
1, 39919, Note_on_c, 73
1, 39923, Note_off_c, 77
1, 39923, Note_off_c, 37
1, 39923, Note_on_c, 73
1, 39928, Note_off_c, 61
1, 39928, Note_off_c, 56
1, 39928, Note_off_c, 49
1, 39932, Note_off_c, 54
1, 39932, Note_off_c, 59
1, 39932, Note_off_c, 63
1, 39935, Note_off_c, 73
1, 39935, Note_on_c, 75
1, 39936, Note_on_c, 42
1, 39936, Note_on_c, 36
1, 39936, Note_on_c, 37
1, 39936, Note_on_c, 61
1, 39936, Note_on_c, 56
1, 39936, Note_on_c, 65
1, 39936, Note_on_c, 61
1, 39936, Note_on_c, 49
1, 39936, Note_on_c, 56
1, 39936, Note_on_c, 49
1, 39937, Note_off_c, 36
1, 39937, Note_off_c, 42
1, 39939, Note_off_c, 73
1, 39939, Note_on_c, 70
1, 39951, Note_off_c, 49
1, 39955, Note_off_c, 70
1, 39955, Note_on_c, 73
1, 39967, Note_off_c, 75
1, 39967, Note_on_c, 77
1, 39971, Note_off_c, 73
1, 39971, Note_on_c, 75
1, 39976, Note_off_c, 37
1, 39976, Note_off_c, 61
1, 39976, Note_off_c, 56
1, 39976, Note_off_c, 49
1, 39984, Note_on_c, 42
1, 39985, Note_off_c, 42
1, 39987, Note_off_c, 75
1, 39987, Note_off_c, 77
1, 39987, Note_on_c, 73
1, 39987, Note_on_c, 77
1, 40003, Note_off_c, 77
1, 40003, Note_off_c, 73
1, 40003, Note_on_c, 70
1, 40003, Note_on_c, 73
1, 40019, Note_off_c, 73
1, 40019, Note_off_c, 70
1, 40019, Note_on_c, 73
1, 40019, Note_on_c, 70
1, 40032, Note_on_c, 42
1, 40032, Note_on_c, 38
1, 40032, Note_on_c, 36
1, 40032, Note_on_c, 37
1, 40032, Note_on_c, 61
1, 40032, Note_on_c, 56
1, 40032, Note_on_c, 49
1, 40032, Note_on_c, 49
1, 40033, Note_off_c, 36
1, 40033, Note_off_c, 38
1, 40033, Note_off_c, 42
1, 40035, Note_off_c, 70
1, 40035, Note_off_c, 73
1, 40035, Note_on_c, 75
1, 40035, Note_on_c, 75
1, 40047, Note_off_c, 49
1, 40051, Note_off_c, 75
1, 40051, Note_on_c, 77
1, 40061, Note_off_c, 75
1, 40061, Note_on_c, 70
1, 40067, Note_off_c, 37
1, 40067, Note_off_c, 77
1, 40067, Note_on_c, 73
1, 40072, Note_off_c, 49
1, 40072, Note_off_c, 56
1, 40072, Note_off_c, 61
1, 40079, Note_off_c, 70
1, 40080, Note_on_c, 42
1, 40080, Note_on_c, 68
1, 40081, Note_off_c, 42
1, 40083, Note_off_c, 73
1, 40083, Note_on_c, 70
1, 40099, Note_off_c, 70
1, 40099, Note_on_c, 75
1, 40125, Note_off_c, 75
1, 40125, Note_on_c, 70
1, 40128, Note_on_c, 42
1, 40129, Note_off_c, 42
1, 40143, Note_off_c, 70
1, 40144, Note_on_c, 68
1, 40152, Note_off_c, 68
1, 40153, Note_on_c, 66
1, 40174, Note_off_c, 66
1, 40175, Note_on_c, 73
1, 40176, Note_on_c, 42
1, 40176, Note_on_c, 36
1, 40177, Note_off_c, 36
1, 40177, Note_off_c, 42
1, 40216, Note_off_c, 68
1, 40217, Note_on_c, 66
1, 40224, Note_on_c, 42
1, 40224, Note_on_c, 38
1, 40225, Note_off_c, 38
1, 40225, Note_off_c, 42
1, 40225, Note_on_c, 39
1, 40226, Note_off_c, 39
1, 40231, Note_on_c, 39
1, 40232, Note_off_c, 39
1, 40238, Note_off_c, 66
1, 40239, Note_on_c, 73
1, 40271, Note_off_c, 73
1, 40272, Note_on_c, 42
1, 40272, Note_on_c, 70
1, 40273, Note_off_c, 42
1, 40292, Note_off_c, 70
1, 40293, Note_on_c, 73
1, 40316, Note_off_c, 65
1, 40316, Note_off_c, 56
1, 40316, Note_off_c, 61
1, 40320, Note_on_c, 42
1, 40320, Note_on_c, 36
1, 40320, Note_on_c, 63
1, 40320, Note_on_c, 66
1, 40320, Note_on_c, 58
1, 40321, Note_off_c, 36
1, 40321, Note_off_c, 42
1, 40335, Note_off_c, 73
1, 40336, Note_on_c, 70
1, 40356, Note_off_c, 70
1, 40357, Note_on_c, 73
1, 40364, Note_off_c, 73
1, 40365, Note_on_c, 73
1, 40368, Note_on_c, 42
1, 40368, Note_on_c, 39
1, 40368, Note_on_c, 63
1, 40368, Note_on_c, 58
1, 40368, Note_on_c, 51
1, 40368, Note_on_c, 51
1, 40369, Note_off_c, 42
1, 40383, Note_off_c, 51
1, 40383, Note_off_c, 73
1, 40384, Note_on_c, 70
1, 40400, Note_off_c, 70
1, 40401, Note_on_c, 75
1, 40403, Note_off_c, 39
1, 40408, Note_off_c, 63
1, 40408, Note_off_c, 51
1, 40408, Note_off_c, 58
1, 40416, Note_on_c, 42
1, 40416, Note_on_c, 38
1, 40416, Note_on_c, 39
1, 40416, Note_on_c, 63
1, 40416, Note_on_c, 58
1, 40416, Note_on_c, 51
1, 40416, Note_on_c, 51
1, 40417, Note_off_c, 38
1, 40417, Note_off_c, 42
1, 40418, Note_off_c, 75
1, 40419, Note_on_c, 70
1, 40428, Note_off_c, 73
1, 40429, Note_on_c, 73
1, 40431, Note_off_c, 51
1, 40433, Note_off_c, 70
1, 40434, Note_on_c, 73
1, 40447, Note_off_c, 73
1, 40448, Note_on_c, 70
1, 40451, Note_off_c, 73
1, 40452, Note_on_c, 68
1, 40456, Note_off_c, 39
1, 40456, Note_off_c, 63
1, 40456, Note_off_c, 51
1, 40456, Note_off_c, 58
1, 40464, Note_off_c, 70
1, 40464, Note_on_c, 42
1, 40465, Note_off_c, 42
1, 40465, Note_on_c, 75
1, 40482, Note_off_c, 75
1, 40483, Note_on_c, 70
1, 40497, Note_off_c, 70
1, 40498, Note_on_c, 73
1, 40512, Note_on_c, 42
1, 40512, Note_on_c, 36
1, 40512, Note_on_c, 39
1, 40512, Note_on_c, 63
1, 40512, Note_on_c, 58
1, 40512, Note_on_c, 51
1, 40512, Note_on_c, 51
1, 40513, Note_off_c, 36
1, 40513, Note_off_c, 42
1, 40515, Note_off_c, 73
1, 40516, Note_on_c, 68
1, 40527, Note_off_c, 51
1, 40552, Note_off_c, 63
1, 40552, Note_off_c, 58
1, 40552, Note_off_c, 51
1, 40554, Note_off_c, 39
1, 40560, Note_on_c, 42
1, 40561, Note_off_c, 42
1, 40592, Note_off_c, 68
1, 40593, Note_on_c, 54
1, 40593, Note_on_c, 66
1, 40608, Note_on_c, 42
1, 40608, Note_on_c, 38
1, 40609, Note_off_c, 38
1, 40609, Note_off_c, 42
1, 40609, Note_on_c, 39
1, 40610, Note_off_c, 39
1, 40615, Note_on_c, 39
1, 40616, Note_off_c, 39
1, 40656, Note_off_c, 68
1, 40656, Note_on_c, 42
1, 40656, Note_on_c, 37
1, 40656, Note_on_c, 61
1, 40656, Note_on_c, 56
1, 40656, Note_on_c, 49
1, 40656, Note_on_c, 49
1, 40657, Note_off_c, 42
1, 40657, Note_on_c, 54
1, 40657, Note_on_c, 66
1, 40671, Note_off_c, 49
1, 40691, Note_off_c, 37
1, 40696, Note_off_c, 61
1, 40696, Note_off_c, 56
1, 40696, Note_off_c, 49
1, 40700, Note_off_c, 58
1, 40700, Note_off_c, 66
1, 40700, Note_off_c, 63
1, 40704, Note_on_c, 42
1, 40704, Note_on_c, 36
1, 40704, Note_on_c, 37
1, 40704, Note_on_c, 61
1, 40704, Note_on_c, 56
1, 40704, Note_on_c, 65
1, 40704, Note_on_c, 61
1, 40704, Note_on_c, 56
1, 40704, Note_on_c, 49
1, 40704, Note_on_c, 49
1, 40705, Note_off_c, 36
1, 40705, Note_off_c, 42
1, 40719, Note_off_c, 49
1, 40744, Note_off_c, 61
1, 40744, Note_off_c, 37
1, 40744, Note_off_c, 56
1, 40744, Note_off_c, 49
1, 40752, Note_on_c, 42
1, 40753, Note_off_c, 42
1, 40767, Note_on_c, 68
1, 40774, Note_off_c, 68
1, 40775, Note_on_c, 73
1, 40782, Note_off_c, 73
1, 40783, Note_on_c, 74
1, 40790, Note_off_c, 74
1, 40791, Note_on_c, 75
1, 40793, Note_off_c, 54
1, 40793, Note_off_c, 66
1, 40796, Note_on_c, 63
1, 40799, Note_off_c, 75
1, 40799, Note_on_c, 76
1, 40800, Note_on_c, 42
1, 40800, Note_on_c, 38
1, 40800, Note_on_c, 36
1, 40800, Note_on_c, 37
1, 40800, Note_on_c, 61
1, 40800, Note_on_c, 56
1, 40800, Note_on_c, 49
1, 40800, Note_on_c, 49
1, 40801, Note_off_c, 36
1, 40801, Note_off_c, 38
1, 40801, Note_off_c, 42
1, 40807, Note_off_c, 76
1, 40807, Note_on_c, 77
1, 40815, Note_off_c, 77
1, 40815, Note_off_c, 49
1, 40831, Note_on_c, 68
1, 40838, Note_off_c, 68
1, 40839, Note_on_c, 73
1, 40840, Note_off_c, 49
1, 40840, Note_off_c, 56
1, 40840, Note_off_c, 61
1, 40842, Note_off_c, 37
1, 40846, Note_off_c, 73
1, 40847, Note_on_c, 74
1, 40848, Note_on_c, 42
1, 40849, Note_off_c, 42
1, 40854, Note_off_c, 74
1, 40855, Note_on_c, 75
1, 40857, Note_off_c, 66
1, 40857, Note_off_c, 54
1, 40863, Note_off_c, 75
1, 40863, Note_on_c, 76
1, 40871, Note_off_c, 76
1, 40871, Note_on_c, 77
1, 40879, Note_off_c, 77
1, 40896, Note_on_c, 42
1, 40897, Note_off_c, 42
1, 40897, Note_off_c, 63
1, 40899, Note_on_c, 61
1, 40906, Note_off_c, 61
1, 40906, Note_on_c, 63
1, 40944, Note_on_c, 42
1, 40944, Note_on_c, 36
1, 40945, Note_off_c, 36
1, 40945, Note_off_c, 42
1, 40963, Note_on_c, 61
1, 40970, Note_off_c, 61
1, 40970, Note_on_c, 63
1, 40984, Note_off_c, 63
1, 40984, Note_on_c, 61
1, 40992, Note_on_c, 42
1, 40992, Note_on_c, 38
1, 40993, Note_off_c, 38
1, 40993, Note_off_c, 42
1, 40993, Note_on_c, 39
1, 40994, Note_off_c, 39
1, 40999, Note_on_c, 39
1, 41000, Note_off_c, 39
1, 41040, Note_on_c, 42
1, 41041, Note_off_c, 42
1, 41048, Note_off_c, 63
1, 41048, Note_on_c, 61
1, 41075, Note_on_c, 60
1, 41082, Note_off_c, 60
1, 41082, Note_off_c, 61
1, 41083, Note_on_c, 59
1, 41084, Note_off_c, 61
1, 41084, Note_off_c, 56
1, 41084, Note_off_c, 65
1, 41088, Note_on_c, 49
1, 41088, Note_on_c, 36
1, 41088, Note_on_c, 66
1, 41088, Note_on_c, 63
1, 41088, Note_on_c, 58
1, 41088, Note_on_c, 39
1, 41088, Note_on_c, 58
1, 41089, Note_off_c, 39
1, 41089, Note_off_c, 36
1, 41089, Note_off_c, 49
1, 41090, Note_off_c, 59
1, 41095, Note_off_c, 58
1, 41096, Note_on_c, 57
1, 41103, Note_off_c, 57
1, 41104, Note_on_c, 56
1, 41111, Note_off_c, 56
1, 41112, Note_on_c, 55
1, 41119, Note_off_c, 55
1, 41120, Note_on_c, 54
1, 41127, Note_off_c, 54
1, 41128, Note_on_c, 53
1, 41131, Note_off_c, 53
1, 41132, Note_on_c, 61
1, 41136, Note_on_c, 42
1, 41136, Note_on_c, 39
1, 41136, Note_on_c, 63
1, 41136, Note_on_c, 51
1, 41136, Note_on_c, 58
1, 41136, Note_on_c, 51
1, 41137, Note_off_c, 42
1, 41139, Note_on_c, 60
1, 41146, Note_off_c, 60
1, 41146, Note_off_c, 61
1, 41147, Note_on_c, 59
1, 41151, Note_off_c, 51
1, 41152, Note_on_c, 58
1, 41154, Note_off_c, 59
1, 41159, Note_off_c, 58
1, 41160, Note_on_c, 57
1, 41167, Note_off_c, 57
1, 41168, Note_on_c, 56
1, 41171, Note_off_c, 39
1, 41175, Note_off_c, 56
1, 41176, Note_off_c, 63
1, 41176, Note_off_c, 51
1, 41176, Note_off_c, 58
1, 41176, Note_on_c, 55
1, 41183, Note_off_c, 55
1, 41184, Note_on_c, 54
1, 41184, Note_on_c, 42
1, 41184, Note_on_c, 38
1, 41184, Note_on_c, 39
1, 41184, Note_on_c, 63
1, 41184, Note_on_c, 58
1, 41184, Note_on_c, 51
1, 41184, Note_on_c, 51
1, 41185, Note_off_c, 38
1, 41185, Note_off_c, 42
1, 41190, Note_off_c, 61
1, 41191, Note_off_c, 54
1, 41191, Note_on_c, 63
1, 41192, Note_on_c, 53
1, 41195, Note_off_c, 53
1, 41196, Note_on_c, 61
1, 41199, Note_off_c, 51
1, 41207, Note_off_c, 63
1, 41208, Note_on_c, 61
1, 41219, Note_off_c, 39
1, 41224, Note_off_c, 63
1, 41224, Note_off_c, 51
1, 41224, Note_off_c, 58
1, 41226, Note_off_c, 61
1, 41227, Note_on_c, 58
1, 41232, Note_on_c, 42
1, 41233, Note_off_c, 42
1, 41246, Note_off_c, 58
1, 41247, Note_on_c, 61
1, 41254, Note_off_c, 61
1, 41255, Note_on_c, 63
1, 41271, Note_off_c, 63
1, 41272, Note_on_c, 61
1, 41280, Note_on_c, 42
1, 41280, Note_on_c, 36
1, 41280, Note_on_c, 39
1, 41280, Note_on_c, 63
1, 41280, Note_on_c, 58
1, 41280, Note_on_c, 51
1, 41280, Note_on_c, 51
1, 41281, Note_off_c, 36
1, 41281, Note_off_c, 42
1, 41290, Note_off_c, 61
1, 41291, Note_on_c, 58
1, 41295, Note_off_c, 51
1, 41310, Note_off_c, 58
1, 41311, Note_on_c, 61
1, 41315, Note_off_c, 39
1, 41320, Note_off_c, 63
1, 41320, Note_off_c, 58
1, 41320, Note_off_c, 51
1, 41321, Note_off_c, 61
1, 41322, Note_on_c, 63
1, 41328, Note_on_c, 42
1, 41329, Note_off_c, 42
1, 41340, Note_off_c, 63
1, 41341, Note_on_c, 61
1, 41357, Note_on_c, 58
1, 41358, Note_off_c, 61
1, 41374, Note_off_c, 58
1, 41375, Note_on_c, 61
1, 41376, Note_on_c, 42
1, 41376, Note_on_c, 38
1, 41377, Note_off_c, 38
1, 41377, Note_off_c, 42
1, 41377, Note_on_c, 39
1, 41378, Note_off_c, 39
1, 41383, Note_on_c, 39
1, 41384, Note_off_c, 39
1, 41385, Note_off_c, 61
1, 41386, Note_on_c, 63
1, 41404, Note_off_c, 63
1, 41405, Note_on_c, 61
1, 41421, Note_on_c, 58
1, 41422, Note_off_c, 61
1, 41424, Note_on_c, 42
1, 41424, Note_on_c, 37
1, 41424, Note_on_c, 61
1, 41424, Note_on_c, 56
1, 41424, Note_on_c, 49
1, 41424, Note_on_c, 49
1, 41425, Note_off_c, 42
1, 41438, Note_off_c, 58
1, 41439, Note_off_c, 49
1, 41439, Note_on_c, 61
1, 41444, Note_off_c, 61
1, 41445, Note_on_c, 63
1, 41459, Note_off_c, 37
1, 41463, Note_off_c, 63
1, 41464, Note_off_c, 61
1, 41464, Note_off_c, 49
1, 41464, Note_off_c, 56
1, 41464, Note_on_c, 61
1, 41468, Note_off_c, 66
1, 41468, Note_off_c, 58
1, 41468, Note_off_c, 63
1, 41472, Note_on_c, 42
1, 41472, Note_on_c, 36
1, 41472, Note_on_c, 37
1, 41472, Note_on_c, 56
1, 41472, Note_on_c, 65
1, 41472, Note_on_c, 61
1, 41472, Note_on_c, 61
1, 41472, Note_on_c, 56
1, 41472, Note_on_c, 49
1, 41472, Note_on_c, 49
1, 41473, Note_off_c, 36
1, 41473, Note_off_c, 42
1, 41475, Note_off_c, 61
1, 41476, Note_on_c, 58
1, 41487, Note_off_c, 49
1, 41500, Note_off_c, 58
1, 41501, Note_on_c, 61
1, 41508, Note_off_c, 61
1, 41509, Note_on_c, 63
1, 41510, Note_off_c, 37
1, 41512, Note_off_c, 61
1, 41512, Note_off_c, 49
1, 41512, Note_off_c, 56
1, 41520, Note_on_c, 42
1, 41521, Note_off_c, 42
1, 41527, Note_off_c, 63
1, 41528, Note_on_c, 61
1, 41539, Note_off_c, 61
1, 41540, Note_on_c, 58
1, 41564, Note_off_c, 58
1, 41565, Note_off_c, 61
1, 41565, Note_on_c, 61
1, 41566, Note_on_c, 63
1, 41568, Note_on_c, 42
1, 41568, Note_on_c, 38
1, 41568, Note_on_c, 36
1, 41568, Note_on_c, 37
1, 41568, Note_on_c, 61
1, 41568, Note_on_c, 56
1, 41568, Note_on_c, 49
1, 41568, Note_on_c, 49
1, 41569, Note_off_c, 36
1, 41569, Note_off_c, 38
1, 41569, Note_off_c, 42
1, 41583, Note_off_c, 49
1, 41586, Note_off_c, 63
1, 41587, Note_on_c, 61
1, 41596, Note_off_c, 61
1, 41597, Note_on_c, 58
1, 41603, Note_off_c, 37
1, 41608, Note_off_c, 61
1, 41608, Note_off_c, 49
1, 41608, Note_off_c, 56
1, 41614, Note_off_c, 58
1, 41615, Note_on_c, 56
1, 41616, Note_on_c, 42
1, 41617, Note_off_c, 42
1, 41629, Note_off_c, 61
1, 41630, Note_on_c, 63
1, 41650, Note_off_c, 63
1, 41651, Note_on_c, 61
1, 41660, Note_off_c, 61
1, 41661, Note_on_c, 58
1, 41664, Note_on_c, 42
1, 41665, Note_off_c, 42
1, 41669, Note_off_c, 56
1, 41670, Note_on_c, 63
1, 41678, Note_off_c, 58
1, 41679, Note_on_c, 56
1, 41712, Note_on_c, 42
1, 41712, Note_on_c, 36
1, 41713, Note_off_c, 36
1, 41713, Note_off_c, 42
1, 41733, Note_off_c, 56
1, 41760, Note_on_c, 42
1, 41760, Note_on_c, 38
1, 41761, Note_off_c, 38
1, 41761, Note_off_c, 42
1, 41761, Note_on_c, 39
1, 41762, Note_off_c, 39
1, 41767, Note_on_c, 39
1, 41768, Note_off_c, 39
1, 41808, Note_on_c, 42
1, 41809, Note_off_c, 42
1, 41852, Note_off_c, 61
1, 41852, Note_off_c, 65
1, 41852, Note_off_c, 56
1, 41856, Note_on_c, 42
1, 41856, Note_on_c, 36
1, 41856, Note_on_c, 63
1, 41856, Note_on_c, 66
1, 41856, Note_on_c, 58
1, 41857, Note_off_c, 36
1, 41857, Note_off_c, 42
1, 41870, Note_off_c, 63
1, 41904, Note_on_c, 42
1, 41904, Note_on_c, 39
1, 41904, Note_on_c, 63
1, 41904, Note_on_c, 58
1, 41904, Note_on_c, 51
1, 41904, Note_on_c, 51
1, 41904, Note_on_c, 78
1, 41905, Note_off_c, 42
1, 41911, Note_off_c, 78
1, 41912, Note_on_c, 79
1, 41919, Note_off_c, 79
1, 41919, Note_off_c, 51
1, 41920, Note_on_c, 80
1, 41927, Note_off_c, 80
1, 41928, Note_on_c, 81
1, 41935, Note_off_c, 81
1, 41936, Note_on_c, 82
1, 41939, Note_off_c, 39
1, 41944, Note_off_c, 58
1, 41944, Note_off_c, 63
1, 41944, Note_off_c, 51
1, 41952, Note_off_c, 82
1, 41952, Note_on_c, 42
1, 41952, Note_on_c, 38
1, 41952, Note_on_c, 39
1, 41952, Note_on_c, 63
1, 41952, Note_on_c, 51
1, 41952, Note_on_c, 58
1, 41952, Note_on_c, 51
1, 41953, Note_off_c, 38
1, 41953, Note_off_c, 42
1, 41953, Note_on_c, 75
1, 41967, Note_off_c, 51
1, 41968, Note_on_c, 78
1, 41975, Note_off_c, 78
1, 41976, Note_on_c, 79
1, 41983, Note_off_c, 79
1, 41984, Note_on_c, 80
1, 41991, Note_off_c, 80
1, 41992, Note_off_c, 51
1, 41992, Note_off_c, 63
1, 41992, Note_off_c, 39
1, 41992, Note_off_c, 58
1, 41992, Note_on_c, 81
1, 41994, Note_off_c, 75
1, 41996, Note_on_c, 73
1, 41999, Note_off_c, 81
1, 42000, Note_on_c, 82
1, 42000, Note_on_c, 42
1, 42001, Note_off_c, 42
1, 42016, Note_off_c, 82
1, 42017, Note_on_c, 75
1, 42046, Note_off_c, 73
1, 42047, Note_on_c, 75
1, 42048, Note_on_c, 42
1, 42048, Note_on_c, 36
1, 42048, Note_on_c, 39
1, 42048, Note_on_c, 63
1, 42048, Note_on_c, 58
1, 42048, Note_on_c, 51
1, 42048, Note_on_c, 51
1, 42049, Note_off_c, 36
1, 42049, Note_off_c, 42
1, 42058, Note_off_c, 75
1, 42060, Note_on_c, 73
1, 42063, Note_off_c, 51
1, 42072, Note_off_c, 75
1, 42073, Note_on_c, 70
1, 42088, Note_off_c, 58
1, 42088, Note_off_c, 51
1, 42088, Note_off_c, 63
1, 42090, Note_off_c, 39
1, 42095, Note_off_c, 70
1, 42096, Note_on_c, 42
1, 42096, Note_on_c, 78
1, 42097, Note_off_c, 42
1, 42110, Note_off_c, 73
1, 42111, Note_on_c, 75
1, 42136, Note_off_c, 75
1, 42137, Note_on_c, 70
1, 42144, Note_on_c, 42
1, 42144, Note_on_c, 38
1, 42145, Note_off_c, 38
1, 42145, Note_off_c, 42
1, 42145, Note_on_c, 39
1, 42146, Note_off_c, 39
1, 42151, Note_on_c, 39
1, 42152, Note_off_c, 39
1, 42159, Note_off_c, 70
1, 42160, Note_on_c, 78
1, 42192, Note_on_c, 42
1, 42192, Note_on_c, 37
1, 42192, Note_on_c, 61
1, 42192, Note_on_c, 56
1, 42192, Note_on_c, 49
1, 42192, Note_on_c, 49
1, 42193, Note_off_c, 42
1, 42207, Note_off_c, 49
1, 42220, Note_off_c, 78
1, 42221, Note_on_c, 75
1, 42227, Note_off_c, 37
1, 42232, Note_off_c, 61
1, 42232, Note_off_c, 49
1, 42232, Note_off_c, 56
1, 42236, Note_off_c, 58
1, 42236, Note_off_c, 66
1, 42236, Note_off_c, 63
1, 42238, Note_off_c, 75
1, 42239, Note_on_c, 73
1, 42240, Note_on_c, 42
1, 42240, Note_on_c, 36
1, 42240, Note_on_c, 37
1, 42240, Note_on_c, 65
1, 42240, Note_on_c, 56
1, 42240, Note_on_c, 61
1, 42240, Note_on_c, 61
1, 42240, Note_on_c, 49
1, 42240, Note_on_c, 56
1, 42240, Note_on_c, 49
1, 42241, Note_off_c, 36
1, 42241, Note_off_c, 42
1, 42255, Note_off_c, 49
1, 42259, Note_off_c, 73
1, 42264, Note_on_c, 68
1, 42280, Note_off_c, 37
1, 42280, Note_off_c, 49
1, 42280, Note_off_c, 56
1, 42280, Note_off_c, 61
1, 42284, Note_off_c, 78
1, 42285, Note_on_c, 75
1, 42288, Note_on_c, 42
1, 42289, Note_off_c, 42
1, 42302, Note_off_c, 75
1, 42303, Note_on_c, 73
1, 42311, Note_on_c, 66
1, 42314, Note_off_c, 68
1, 42323, Note_off_c, 73
1, 42325, Note_off_c, 66
1, 42326, Note_on_c, 68
1, 42328, Note_on_c, 68
1, 42336, Note_on_c, 42
1, 42336, Note_on_c, 38
1, 42336, Note_on_c, 36
1, 42336, Note_on_c, 37
1, 42336, Note_on_c, 61
1, 42336, Note_on_c, 56
1, 42336, Note_on_c, 49
1, 42336, Note_on_c, 49
1, 42337, Note_off_c, 36
1, 42337, Note_off_c, 38
1, 42337, Note_off_c, 42
1, 42351, Note_off_c, 49
1, 42375, Note_on_c, 66
1, 42376, Note_off_c, 61
1, 42376, Note_off_c, 49
1, 42376, Note_off_c, 56
1, 42378, Note_off_c, 37
1, 42378, Note_off_c, 68
1, 42384, Note_on_c, 42
1, 42385, Note_off_c, 42
1, 42389, Note_off_c, 66
1, 42390, Note_on_c, 68
1, 42432, Note_on_c, 42
1, 42433, Note_off_c, 42
1, 42451, Note_off_c, 68
1, 42452, Note_on_c, 67
1, 42460, Note_off_c, 67
1, 42460, Note_on_c, 66
1, 42468, Note_off_c, 66
1, 42468, Note_on_c, 65
1, 42476, Note_off_c, 65
1, 42476, Note_on_c, 64
1, 42480, Note_on_c, 42
1, 42480, Note_on_c, 36
1, 42481, Note_off_c, 36
1, 42481, Note_off_c, 42
1, 42484, Note_off_c, 64
1, 42484, Note_on_c, 63
1, 42492, Note_off_c, 63
1, 42492, Note_on_c, 62
1, 42500, Note_off_c, 62
1, 42500, Note_on_c, 61
1, 42508, Note_off_c, 61
1, 42508, Note_on_c, 60
1, 42515, Note_off_c, 68
1, 42516, Note_off_c, 60
1, 42516, Note_on_c, 67
1, 42516, Note_on_c, 59
1, 42524, Note_off_c, 59
1, 42524, Note_off_c, 67
1, 42524, Note_on_c, 66
1, 42524, Note_on_c, 58
1, 42528, Note_on_c, 42
1, 42528, Note_on_c, 38
1, 42529, Note_off_c, 38
1, 42529, Note_off_c, 42
1, 42529, Note_on_c, 39
1, 42530, Note_off_c, 39
1, 42532, Note_off_c, 58
1, 42532, Note_off_c, 66
1, 42532, Note_on_c, 65
1, 42535, Note_on_c, 39
1, 42536, Note_off_c, 39
1, 42540, Note_off_c, 65
1, 42540, Note_on_c, 64
1, 42548, Note_off_c, 64
1, 42548, Note_on_c, 63
1, 42552, Note_on_c, 73
1, 42556, Note_off_c, 63
1, 42556, Note_on_c, 62
1, 42564, Note_off_c, 62
1, 42564, Note_on_c, 61
1, 42572, Note_off_c, 61
1, 42572, Note_on_c, 60
1, 42574, Note_off_c, 73
1, 42576, Note_on_c, 42
1, 42576, Note_on_c, 66
1, 42577, Note_off_c, 42
1, 42580, Note_off_c, 60
1, 42580, Note_on_c, 59
1, 42588, Note_off_c, 59
1, 42588, Note_on_c, 58
1, 42596, Note_off_c, 58
1, 42599, Note_off_c, 66
1, 42600, Note_on_c, 71
1, 42616, Note_on_c, 73
1, 42620, Note_off_c, 61
1, 42620, Note_off_c, 56
1, 42620, Note_off_c, 65
1, 42623, Note_off_c, 71
1, 42624, Note_on_c, 42
1, 42624, Note_on_c, 36
1, 42624, Note_on_c, 54
1, 42624, Note_on_c, 59
1, 42624, Note_on_c, 63
1, 42624, Note_on_c, 71
1, 42625, Note_off_c, 36
1, 42625, Note_off_c, 42
1, 42638, Note_off_c, 73
1, 42640, Note_on_c, 66
1, 42647, Note_off_c, 71
1, 42648, Note_on_c, 75
1, 42663, Note_off_c, 66
1, 42664, Note_on_c, 71
1, 42671, Note_off_c, 75
1, 42672, Note_on_c, 42
1, 42672, Note_on_c, 35
1, 42672, Note_on_c, 59
1, 42672, Note_on_c, 54
1, 42672, Note_on_c, 47
1, 42672, Note_on_c, 47
1, 42672, Note_on_c, 73
1, 42673, Note_off_c, 42
1, 42687, Note_off_c, 47
1, 42687, Note_off_c, 71
1, 42688, Note_on_c, 71
1, 42695, Note_off_c, 73
1, 42696, Note_on_c, 66
1, 42707, Note_off_c, 35
1, 42711, Note_off_c, 71
1, 42712, Note_off_c, 54
1, 42712, Note_off_c, 59
1, 42712, Note_off_c, 47
1, 42712, Note_on_c, 75
1, 42719, Note_off_c, 66
1, 42720, Note_on_c, 42
1, 42720, Note_on_c, 38
1, 42720, Note_on_c, 35
1, 42720, Note_on_c, 59
1, 42720, Note_on_c, 47
1, 42720, Note_on_c, 54
1, 42720, Note_on_c, 47
1, 42720, Note_on_c, 71
1, 42721, Note_off_c, 38
1, 42721, Note_off_c, 42
1, 42735, Note_off_c, 47
1, 42735, Note_off_c, 75
1, 42736, Note_on_c, 73
1, 42737, Note_off_c, 71
1, 42738, Note_on_c, 66
1, 42755, Note_off_c, 35
1, 42756, Note_off_c, 66
1, 42756, Note_on_c, 71
1, 42759, Note_off_c, 73
1, 42760, Note_off_c, 59
1, 42760, Note_off_c, 47
1, 42760, Note_off_c, 54
1, 42760, Note_on_c, 66
1, 42768, Note_on_c, 42
1, 42769, Note_off_c, 42
1, 42770, Note_off_c, 71
1, 42770, Note_on_c, 75
1, 42783, Note_off_c, 66
1, 42784, Note_on_c, 71
1, 42793, Note_off_c, 75
1, 42793, Note_on_c, 73
1, 42798, Note_on_c, 66
1, 42801, Note_off_c, 71
1, 42802, Note_on_c, 66
1, 42813, Note_off_c, 73
1, 42816, Note_on_c, 42
1, 42816, Note_on_c, 36
1, 42816, Note_on_c, 35
1, 42816, Note_on_c, 59
1, 42816, Note_on_c, 54
1, 42816, Note_on_c, 47
1, 42816, Note_on_c, 47
1, 42816, Note_on_c, 71
1, 42817, Note_off_c, 36
1, 42817, Note_off_c, 42
1, 42818, Note_off_c, 66
1, 42820, Note_off_c, 66
1, 42820, Note_on_c, 71
1, 42831, Note_off_c, 47
1, 42834, Note_off_c, 71
1, 42834, Note_on_c, 75
1, 42835, Note_on_c, 75
1, 42836, Note_off_c, 71
1, 42851, Note_off_c, 35
1, 42854, Note_on_c, 73
1, 42855, Note_off_c, 75
1, 42856, Note_off_c, 59
1, 42856, Note_off_c, 54
1, 42856, Note_off_c, 47
1, 42857, Note_off_c, 75
1, 42857, Note_on_c, 73
1, 42862, Note_on_c, 66
1, 42864, Note_on_c, 42
1, 42865, Note_off_c, 42
1, 42873, Note_on_c, 66
1, 42874, Note_off_c, 73
1, 42877, Note_off_c, 73
1, 42880, Note_on_c, 71
1, 42882, Note_off_c, 66
1, 42892, Note_on_c, 71
1, 42893, Note_off_c, 66
1, 42899, Note_on_c, 75
1, 42900, Note_off_c, 71
1, 42911, Note_on_c, 66
1, 42912, Note_off_c, 71
1, 42912, Note_on_c, 42
1, 42912, Note_on_c, 38
1, 42913, Note_off_c, 38
1, 42913, Note_off_c, 42
1, 42913, Note_on_c, 39
1, 42914, Note_off_c, 39
1, 42918, Note_on_c, 73
1, 42919, Note_off_c, 75
1, 42919, Note_on_c, 39
1, 42920, Note_off_c, 39
1, 42930, Note_on_c, 71
1, 42931, Note_off_c, 66
1, 42937, Note_on_c, 66
1, 42938, Note_off_c, 73
1, 42949, Note_on_c, 75
1, 42950, Note_off_c, 71
1, 42956, Note_on_c, 71
1, 42957, Note_off_c, 66
1, 42960, Note_on_c, 42
1, 42960, Note_on_c, 37
1, 42960, Note_on_c, 61
1, 42960, Note_on_c, 49
1, 42960, Note_on_c, 56
1, 42960, Note_on_c, 49
1, 42961, Note_off_c, 42
1, 42968, Note_on_c, 73
1, 42969, Note_off_c, 75
1, 42975, Note_off_c, 49
1, 42975, Note_on_c, 66
1, 42976, Note_off_c, 71
1, 42987, Note_on_c, 66
1, 42988, Note_off_c, 73
1, 42994, Note_on_c, 71
1, 42995, Note_off_c, 37
1, 42995, Note_off_c, 66
1, 43000, Note_off_c, 61
1, 43000, Note_off_c, 49
1, 43000, Note_off_c, 56
1, 43004, Note_off_c, 54
1, 43004, Note_off_c, 59
1, 43004, Note_off_c, 63
1, 43006, Note_on_c, 73
1, 43007, Note_off_c, 66
1, 43008, Note_on_c, 42
1, 43008, Note_on_c, 36
1, 43008, Note_on_c, 37
1, 43008, Note_on_c, 61
1, 43008, Note_on_c, 56
1, 43008, Note_on_c, 65
1, 43008, Note_on_c, 61
1, 43008, Note_on_c, 49
1, 43008, Note_on_c, 56
1, 43008, Note_on_c, 49
1, 43009, Note_off_c, 36
1, 43009, Note_off_c, 42
1, 43013, Note_on_c, 75
1, 43014, Note_off_c, 71
1, 43023, Note_off_c, 49
1, 43025, Note_on_c, 77
1, 43026, Note_off_c, 73
1, 43032, Note_on_c, 73
1, 43033, Note_off_c, 75
1, 43044, Note_on_c, 73
1, 43045, Note_off_c, 77
1, 43048, Note_off_c, 61
1, 43048, Note_off_c, 37
1, 43048, Note_off_c, 49
1, 43048, Note_off_c, 56
1, 43051, Note_on_c, 66
1, 43052, Note_off_c, 73
1, 43056, Note_on_c, 42
1, 43057, Note_off_c, 42
1, 43069, Note_on_c, 80
1, 43070, Note_on_c, 73
1, 43071, Note_off_c, 73
1, 43071, Note_off_c, 66
1, 43082, Note_on_c, 73
1, 43088, Note_off_c, 80
1, 43089, Note_on_c, 77
1, 43090, Note_off_c, 73
1, 43104, Note_on_c, 42
1, 43104, Note_on_c, 38
1, 43104, Note_on_c, 36
1, 43104, Note_on_c, 37
1, 43104, Note_on_c, 61
1, 43104, Note_on_c, 56
1, 43104, Note_on_c, 49
1, 43104, Note_on_c, 49
1, 43105, Note_off_c, 36
1, 43105, Note_off_c, 38
1, 43105, Note_off_c, 42
1, 43107, Note_off_c, 73
1, 43107, Note_on_c, 80
1, 43108, Note_on_c, 73
1, 43109, Note_off_c, 77
1, 43119, Note_off_c, 49
1, 43120, Note_off_c, 80
1, 43120, Note_on_c, 73
1, 43133, Note_on_c, 80
1, 43135, Note_off_c, 73
1, 43139, Note_off_c, 37
1, 43144, Note_off_c, 49
1, 43144, Note_off_c, 56
1, 43144, Note_off_c, 61
1, 43146, Note_on_c, 73
1, 43152, Note_off_c, 80
1, 43152, Note_on_c, 42
1, 43153, Note_off_c, 42
1, 43171, Note_off_c, 73
1, 43171, Note_on_c, 80
1, 43184, Note_off_c, 80
1, 43184, Note_on_c, 73
1, 43184, Note_on_c, 71
1, 43192, Note_off_c, 71
1, 43192, Note_on_c, 70
1, 43200, Note_off_c, 70
1, 43200, Note_off_c, 73
1, 43200, Note_on_c, 42
1, 43200, Note_on_c, 57
1, 43200, Note_on_c, 52
1, 43201, Note_off_c, 42
1, 43208, Note_off_c, 57
1, 43208, Note_off_c, 52
1, 43208, Note_on_c, 53
1, 43208, Note_on_c, 58
1, 43216, Note_off_c, 58
1, 43216, Note_off_c, 53
1, 43216, Note_on_c, 54
1, 43216, Note_on_c, 59
1, 43224, Note_off_c, 59
1, 43224, Note_off_c, 54
1, 43224, Note_on_c, 55
1, 43224, Note_on_c, 60
1, 43232, Note_off_c, 60
1, 43232, Note_off_c, 55
1, 43232, Note_on_c, 61
1, 43232, Note_on_c, 56
1, 43240, Note_off_c, 56
1, 43240, Note_off_c, 61
1, 43240, Note_on_c, 57
1, 43240, Note_on_c, 62
1, 43248, Note_off_c, 62
1, 43248, Note_off_c, 57
1, 43248, Note_on_c, 71
1, 43248, Note_on_c, 42
1, 43248, Note_on_c, 36
1, 43248, Note_on_c, 58
1, 43248, Note_on_c, 63
1, 43249, Note_off_c, 36
1, 43249, Note_off_c, 42
1, 43256, Note_off_c, 71
1, 43256, Note_on_c, 70
1, 43264, Note_off_c, 70
1, 43264, Note_off_c, 73
1, 43264, Note_on_c, 57
1, 43264, Note_on_c, 52
1, 43272, Note_off_c, 52
1, 43272, Note_off_c, 57
1, 43272, Note_on_c, 53
1, 43272, Note_on_c, 58
1, 43280, Note_off_c, 58
1, 43280, Note_off_c, 53
1, 43280, Note_on_c, 54
1, 43280, Note_on_c, 59
1, 43288, Note_off_c, 59
1, 43288, Note_off_c, 54
1, 43288, Note_on_c, 55
1, 43288, Note_on_c, 60
1, 43295, Note_off_c, 63
1, 43295, Note_off_c, 58
1, 43296, Note_off_c, 60
1, 43296, Note_off_c, 55
1, 43296, Note_on_c, 61
1, 43296, Note_on_c, 56
1, 43296, Note_on_c, 42
1, 43296, Note_on_c, 38
1, 43297, Note_off_c, 38
1, 43297, Note_off_c, 42
1, 43297, Note_on_c, 39
1, 43298, Note_off_c, 39
1, 43299, Note_on_c, 73
1, 43303, Note_on_c, 39
1, 43304, Note_off_c, 39
1, 43304, Note_off_c, 56
1, 43304, Note_off_c, 61
1, 43304, Note_on_c, 57
1, 43304, Note_on_c, 62
1, 43312, Note_off_c, 62
1, 43312, Note_off_c, 57
1, 43312, Note_on_c, 58
1, 43312, Note_on_c, 63
1, 43344, Note_on_c, 42
1, 43345, Note_off_c, 42
1, 43359, Note_off_c, 63
1, 43359, Note_off_c, 58
1, 43363, Note_on_c, 73
1, 43388, Note_off_c, 56
1, 43388, Note_off_c, 61
1, 43388, Note_off_c, 65
1, 43392, Note_on_c, 42
1, 43392, Note_on_c, 36
1, 43392, Note_on_c, 63
1, 43392, Note_on_c, 58
1, 43392, Note_on_c, 66
1, 43393, Note_off_c, 36
1, 43393, Note_off_c, 42
1, 43440, Note_on_c, 42
1, 43440, Note_on_c, 39
1, 43440, Note_on_c, 63
1, 43440, Note_on_c, 58
1, 43440, Note_on_c, 51
1, 43440, Note_on_c, 51
1, 43441, Note_off_c, 42
1, 43455, Note_off_c, 51
1, 43475, Note_off_c, 39
1, 43480, Note_off_c, 63
1, 43480, Note_off_c, 58
1, 43480, Note_off_c, 51
1, 43486, Note_off_c, 73
1, 43488, Note_on_c, 42
1, 43488, Note_on_c, 38
1, 43488, Note_on_c, 39
1, 43488, Note_on_c, 63
1, 43488, Note_on_c, 58
1, 43488, Note_on_c, 51
1, 43488, Note_on_c, 51
1, 43488, Note_on_c, 75
1, 43489, Note_off_c, 38
1, 43489, Note_off_c, 42
1, 43499, Note_off_c, 75
1, 43503, Note_off_c, 51
1, 43504, Note_on_c, 75
1, 43519, Note_off_c, 75
1, 43520, Note_on_c, 75
1, 43528, Note_off_c, 63
1, 43528, Note_off_c, 39
1, 43528, Note_off_c, 51
1, 43528, Note_off_c, 58
1, 43535, Note_off_c, 75
1, 43536, Note_on_c, 42
1, 43536, Note_on_c, 77
1, 43537, Note_off_c, 42
1, 43550, Note_off_c, 73
1, 43551, Note_off_c, 77
1, 43552, Note_on_c, 75
1, 43552, Note_on_c, 77
1, 43563, Note_off_c, 75
1, 43567, Note_off_c, 77
1, 43572, Note_on_c, 77
1, 43576, Note_on_c, 75
1, 43584, Note_on_c, 42
1, 43584, Note_on_c, 36
1, 43584, Note_on_c, 39
1, 43584, Note_on_c, 63
1, 43584, Note_on_c, 58
1, 43584, Note_on_c, 51
1, 43584, Note_on_c, 51
1, 43584, Note_on_c, 78
1, 43585, Note_off_c, 36
1, 43585, Note_off_c, 42
1, 43587, Note_off_c, 77
1, 43587, Note_off_c, 75
1, 43588, Note_on_c, 75
1, 43599, Note_off_c, 78
1, 43599, Note_off_c, 51
1, 43599, Note_off_c, 75
1, 43600, Note_on_c, 77
1, 43600, Note_on_c, 78
1, 43611, Note_off_c, 77
1, 43612, Note_on_c, 77
1, 43615, Note_off_c, 78
1, 43616, Note_on_c, 78
1, 43623, Note_off_c, 77
1, 43624, Note_off_c, 58
1, 43624, Note_off_c, 63
1, 43624, Note_off_c, 51
1, 43624, Note_on_c, 77
1, 43626, Note_off_c, 39
1, 43631, Note_off_c, 78
1, 43632, Note_on_c, 42
1, 43632, Note_on_c, 78
1, 43633, Note_off_c, 42
1, 43635, Note_off_c, 77
1, 43636, Note_on_c, 77
1, 43647, Note_off_c, 78
1, 43647, Note_off_c, 77
1, 43648, Note_on_c, 78
1, 43648, Note_on_c, 78
1, 43663, Note_off_c, 78
1, 43663, Note_off_c, 78
1, 43664, Note_on_c, 78
1, 43664, Note_on_c, 78
1, 43679, Note_off_c, 78
1, 43679, Note_off_c, 78
1, 43680, Note_on_c, 78
1, 43680, Note_on_c, 42
1, 43680, Note_on_c, 38
1, 43680, Note_on_c, 78
1, 43681, Note_off_c, 38
1, 43681, Note_off_c, 42
1, 43681, Note_on_c, 39
1, 43682, Note_off_c, 39
1, 43687, Note_on_c, 39
1, 43688, Note_off_c, 39
1, 43695, Note_off_c, 78
1, 43695, Note_off_c, 78
1, 43696, Note_on_c, 78
1, 43696, Note_on_c, 78
1, 43711, Note_off_c, 78
1, 43711, Note_off_c, 78
1, 43712, Note_on_c, 78
1, 43712, Note_on_c, 78
1, 43727, Note_off_c, 78
1, 43727, Note_off_c, 78
1, 43728, Note_on_c, 78
1, 43728, Note_on_c, 42
1, 43728, Note_on_c, 37
1, 43728, Note_on_c, 61
1, 43728, Note_on_c, 56
1, 43728, Note_on_c, 49
1, 43728, Note_on_c, 49
1, 43728, Note_on_c, 80
1, 43729, Note_off_c, 42
1, 43743, Note_off_c, 49
1, 43743, Note_off_c, 80
1, 43743, Note_off_c, 78
1, 43744, Note_on_c, 78
1, 43744, Note_on_c, 80
1, 43759, Note_off_c, 80
1, 43759, Note_off_c, 78
1, 43760, Note_on_c, 78
1, 43760, Note_on_c, 80
1, 43763, Note_off_c, 37
1, 43768, Note_off_c, 56
1, 43768, Note_off_c, 61
1, 43768, Note_off_c, 49
1, 43772, Note_off_c, 66
1, 43772, Note_off_c, 58
1, 43772, Note_off_c, 63
1, 43775, Note_off_c, 80
1, 43775, Note_off_c, 78
1, 43776, Note_on_c, 78
1, 43776, Note_on_c, 42
1, 43776, Note_on_c, 36
1, 43776, Note_on_c, 37
1, 43776, Note_on_c, 56
1, 43776, Note_on_c, 61
1, 43776, Note_on_c, 65
1, 43776, Note_on_c, 61
1, 43776, Note_on_c, 56
1, 43776, Note_on_c, 49
1, 43776, Note_on_c, 49
1, 43776, Note_on_c, 80
1, 43777, Note_off_c, 36
1, 43777, Note_off_c, 42
1, 43791, Note_off_c, 80
1, 43791, Note_off_c, 49
1, 43791, Note_off_c, 78
1, 43792, Note_on_c, 80
1, 43792, Note_on_c, 80
1, 43807, Note_off_c, 80
1, 43807, Note_off_c, 80
1, 43808, Note_on_c, 80
1, 43808, Note_on_c, 80
1, 43816, Note_off_c, 61
1, 43816, Note_off_c, 37
1, 43816, Note_off_c, 49
1, 43816, Note_off_c, 56
1, 43823, Note_off_c, 80
1, 43823, Note_off_c, 80
1, 43824, Note_on_c, 80
1, 43824, Note_on_c, 42
1, 43824, Note_on_c, 80
1, 43825, Note_off_c, 42
1, 43839, Note_off_c, 80
1, 43839, Note_off_c, 80
1, 43840, Note_on_c, 80
1, 43855, Note_off_c, 80
1, 43856, Note_on_c, 80
1, 43871, Note_off_c, 80
1, 43872, Note_on_c, 42
1, 43872, Note_on_c, 38
1, 43872, Note_on_c, 36
1, 43872, Note_on_c, 37
1, 43872, Note_on_c, 61
1, 43872, Note_on_c, 56
1, 43872, Note_on_c, 49
1, 43872, Note_on_c, 49
1, 43872, Note_on_c, 82
1, 43873, Note_off_c, 36
1, 43873, Note_off_c, 38
1, 43873, Note_off_c, 42
1, 43887, Note_off_c, 82
1, 43887, Note_off_c, 49
1, 43888, Note_on_c, 82
1, 43903, Note_off_c, 82
1, 43904, Note_on_c, 82
1, 43912, Note_off_c, 56
1, 43912, Note_off_c, 61
1, 43912, Note_off_c, 49
1, 43914, Note_off_c, 37
1, 43919, Note_off_c, 82
1, 43920, Note_on_c, 42
1, 43920, Note_on_c, 82
1, 43921, Note_off_c, 42
1, 43935, Note_off_c, 82
1, 43936, Note_on_c, 82
1, 43951, Note_off_c, 82
1, 43952, Note_on_c, 82
1, 43967, Note_off_c, 82
1, 43968, Note_on_c, 42
1, 43968, Note_on_c, 82
1, 43969, Note_off_c, 42
1, 43983, Note_off_c, 82
1, 43984, Note_on_c, 82
1, 43999, Note_off_c, 82
1, 44000, Note_on_c, 82
1, 44015, Note_off_c, 82
1, 44016, Note_on_c, 42
1, 44016, Note_on_c, 36
1, 44016, Note_on_c, 82
1, 44017, Note_off_c, 36
1, 44017, Note_off_c, 42
1, 44031, Note_off_c, 82
1, 44032, Note_on_c, 82
1, 44047, Note_off_c, 82
1, 44048, Note_on_c, 82
1, 44063, Note_off_c, 82
1, 44064, Note_on_c, 42
1, 44064, Note_on_c, 38
1, 44064, Note_on_c, 83
1, 44065, Note_off_c, 38
1, 44065, Note_off_c, 42
1, 44065, Note_on_c, 39
1, 44066, Note_off_c, 39
1, 44071, Note_on_c, 39
1, 44072, Note_off_c, 39
1, 44079, Note_off_c, 83
1, 44080, Note_on_c, 83
1, 44095, Note_off_c, 83
1, 44096, Note_on_c, 84
1, 44110, Note_on_c, 39
1, 44111, Note_off_c, 84
1, 44112, Note_on_c, 55
1, 44112, Note_on_c, 36
1, 44112, Note_on_c, 27
1, 44112, Note_on_c, 39
1, 44112, Note_on_c, 39
1, 44112, Note_on_c, 84
1, 44113, Note_off_c, 36
1, 44113, Note_off_c, 55
1, 44127, Note_off_c, 84
1, 44128, Note_on_c, 85
1, 44143, Note_off_c, 85
1, 44144, Note_on_c, 85
1, 44156, Note_off_c, 56
1, 44156, Note_off_c, 65
1, 44156, Note_off_c, 61
1, 44159, Note_off_c, 85
1, 44159, Note_on_c, 70
1, 44160, Note_on_c, 70
1, 44160, Note_on_c, 42
1, 44160, Note_on_c, 36
1, 44160, Note_on_c, 63
1, 44160, Note_on_c, 58
1, 44160, Note_on_c, 66
1, 44160, Note_on_c, 78
1, 44160, Note_on_c, 82
1, 44160, Note_on_c, 70
1, 44160, Note_on_c, 86
1, 44161, Note_off_c, 36
1, 44161, Note_off_c, 42
1, 44161, Note_on_c, 70
1, 44161, Note_on_c, 66
1, 44175, Note_off_c, 86
1, 44176, Note_on_c, 86
1, 44191, Note_off_c, 86
1, 44191, Note_off_c, 70
1, 44192, Note_on_c, 87
1, 44200, Note_off_c, 70
1, 44200, Note_off_c, 70
1, 44202, Note_off_c, 39
1, 44204, Note_off_c, 39
1, 44206, Note_off_c, 27
1, 44206, Note_off_c, 39
1, 44206, Note_on_c, 42
1, 44207, Note_off_c, 87
1, 44208, Note_on_c, 70
1, 44208, Note_on_c, 42
1, 44208, Note_on_c, 30
1, 44208, Note_on_c, 42
1, 44208, Note_on_c, 42
1, 44208, Note_on_c, 87
1, 44209, Note_off_c, 42
1, 44210, Note_on_c, 70
1, 44213, Note_on_c, 70
1, 44228, Note_off_c, 87
1, 44232, Note_on_c, 87
1, 44243, Note_off_c, 87
1, 44244, Note_on_c, 87
1, 44253, Note_off_c, 42
1, 44254, Note_on_c, 46
1, 44255, Note_off_c, 42
1, 44255, Note_off_c, 30
1, 44255, Note_off_c, 42
1, 44255, Note_off_c, 87
1, 44256, Note_on_c, 42
1, 44256, Note_on_c, 38
1, 44256, Note_on_c, 34
1, 44256, Note_on_c, 46
1, 44256, Note_on_c, 46
1, 44256, Note_on_c, 87
1, 44257, Note_off_c, 38
1, 44257, Note_off_c, 42
1, 44267, Note_off_c, 87
1, 44268, Note_on_c, 87
1, 44279, Note_off_c, 87
1, 44280, Note_on_c, 87
1, 44291, Note_off_c, 87
1, 44292, Note_on_c, 87
1, 44301, Note_off_c, 46
1, 44302, Note_on_c, 54
1, 44303, Note_off_c, 34
1, 44303, Note_off_c, 46
1, 44303, Note_off_c, 46
1, 44303, Note_off_c, 87
1, 44304, Note_on_c, 42
1, 44304, Note_on_c, 42
1, 44304, Note_on_c, 54
1, 44304, Note_on_c, 54
1, 44304, Note_on_c, 87
1, 44305, Note_off_c, 42
1, 44315, Note_off_c, 87
1, 44316, Note_on_c, 87
1, 44327, Note_off_c, 87
1, 44328, Note_on_c, 87
1, 44335, Note_off_c, 70
1, 44339, Note_off_c, 87
1, 44340, Note_on_c, 87
1, 44343, Note_off_c, 70
1, 44344, Note_off_c, 70
1, 44349, Note_off_c, 54
1, 44350, Note_on_c, 51
1, 44351, Note_off_c, 54
1, 44351, Note_off_c, 42
1, 44351, Note_off_c, 54
1, 44351, Note_off_c, 87
1, 44352, Note_on_c, 42
1, 44352, Note_on_c, 36
1, 44352, Note_on_c, 39
1, 44352, Note_on_c, 51
1, 44352, Note_on_c, 51
1, 44352, Note_on_c, 87
1, 44353, Note_off_c, 36
1, 44353, Note_off_c, 42
1, 44353, Note_on_c, 66
1, 44353, Note_on_c, 63
1, 44363, Note_off_c, 87
1, 44364, Note_on_c, 87
1, 44375, Note_off_c, 87
1, 44376, Note_on_c, 87
1, 44387, Note_off_c, 87
1, 44388, Note_off_c, 63
1, 44388, Note_off_c, 66
1, 44388, Note_on_c, 87
1, 44399, Note_off_c, 87
1, 44400, Note_on_c, 42
1, 44400, Note_on_c, 87
1, 44401, Note_off_c, 42
1, 44401, Note_on_c, 63
1, 44402, Note_on_c, 66
1, 44448, Note_on_c, 42
1, 44448, Note_on_c, 38
1, 44449, Note_off_c, 38
1, 44449, Note_off_c, 42
1, 44449, Note_on_c, 39
1, 44450, Note_off_c, 39
1, 44455, Note_on_c, 39
1, 44456, Note_off_c, 39
1, 44491, Note_off_c, 51
1, 44493, Note_off_c, 39
1, 44493, Note_off_c, 51
1, 44493, Note_off_c, 51
1, 44493, Note_on_c, 51
1, 44495, Note_on_c, 39
1, 44495, Note_on_c, 51
1, 44495, Note_on_c, 51
1, 44496, Note_on_c, 42
1, 44497, Note_off_c, 42
1, 44514, Note_off_c, 66
1, 44528, Note_off_c, 66
1, 44530, Note_off_c, 70
1, 44532, Note_off_c, 63
1, 44540, Note_off_c, 58
1, 44540, Note_off_c, 63
1, 44540, Note_off_c, 82
1, 44540, Note_off_c, 87
1, 44540, Note_off_c, 78
1, 44540, Note_off_c, 66
1, 44541, Note_on_c, 65
1, 44543, Note_on_c, 70
1, 44543, Note_on_c, 68
1, 44544, Note_on_c, 42
1, 44544, Note_on_c, 36
1, 44544, Note_on_c, 56
1, 44544, Note_on_c, 65
1, 44544, Note_on_c, 61
1, 44544, Note_on_c, 80
1, 44544, Note_on_c, 77
1, 44544, Note_on_c, 68
1, 44545, Note_off_c, 36
1, 44545, Note_off_c, 42
1, 44546, Note_on_c, 70
1, 44546, Note_on_c, 70
1, 44547, Note_off_c, 68
1, 44560, Note_on_c, 50
1, 44563, Note_off_c, 50
1, 44576, Note_on_c, 80
1, 44579, Note_off_c, 80
1, 44581, Note_off_c, 70
1, 44583, Note_off_c, 70
1, 44583, Note_off_c, 70
1, 44584, Note_off_c, 51
1, 44586, Note_off_c, 51
1, 44589, Note_off_c, 39
1, 44589, Note_off_c, 51
1, 44590, Note_on_c, 51
1, 44592, Note_on_c, 42
1, 44592, Note_on_c, 39
1, 44592, Note_on_c, 51
1, 44592, Note_on_c, 51
1, 44592, Note_on_c, 78
1, 44593, Note_off_c, 42
1, 44593, Note_on_c, 70
1, 44595, Note_off_c, 78
1, 44595, Note_on_c, 70
1, 44595, Note_on_c, 70
1, 44608, Note_on_c, 78
1, 44611, Note_off_c, 78
1, 44624, Note_on_c, 80
1, 44627, Note_off_c, 80
1, 44635, Note_off_c, 51
1, 44637, Note_off_c, 39
1, 44637, Note_off_c, 51
1, 44637, Note_off_c, 51
1, 44638, Note_on_c, 49
1, 44640, Note_on_c, 42
1, 44640, Note_on_c, 38
1, 44640, Note_on_c, 36
1, 44640, Note_on_c, 37
1, 44640, Note_on_c, 49
1, 44640, Note_on_c, 49
1, 44640, Note_on_c, 70
1, 44641, Note_off_c, 36
1, 44641, Note_off_c, 38
1, 44641, Note_off_c, 42
1, 44643, Note_off_c, 70
1, 44648, Note_on_c, 85
1, 44651, Note_off_c, 85
1, 44656, Note_on_c, 61
1, 44663, Note_off_c, 61
1, 44664, Note_on_c, 60
1, 44671, Note_off_c, 60
1, 44672, Note_on_c, 59
1, 44676, Note_off_c, 49
1, 44678, Note_off_c, 37
1, 44678, Note_off_c, 49
1, 44678, Note_off_c, 49
1, 44679, Note_off_c, 59
1, 44680, Note_on_c, 58
1, 44687, Note_off_c, 58
1, 44688, Note_on_c, 42
1, 44688, Note_on_c, 57
1, 44689, Note_off_c, 42
1, 44695, Note_off_c, 57
1, 44696, Note_on_c, 56
1, 44703, Note_off_c, 56
1, 44704, Note_on_c, 55
1, 44706, Note_off_c, 70
1, 44709, Note_off_c, 70
1, 44711, Note_off_c, 55
1, 44712, Note_on_c, 54
1, 44718, Note_off_c, 70
1, 44719, Note_off_c, 54
1, 44720, Note_on_c, 53
1, 44727, Note_off_c, 53
1, 44728, Note_on_c, 52
1, 44734, Note_on_c, 65
1, 44734, Note_on_c, 49
1, 44735, Note_off_c, 52
1, 44736, Note_on_c, 61
1, 44736, Note_on_c, 42
1, 44736, Note_on_c, 37
1, 44736, Note_on_c, 49
1, 44736, Note_on_c, 49
1, 44736, Note_on_c, 51
1, 44737, Note_off_c, 42
1, 44743, Note_off_c, 51
1, 44744, Note_on_c, 50
1, 44751, Note_off_c, 50
1, 44752, Note_on_c, 49
1, 44759, Note_off_c, 49
1, 44760, Note_on_c, 48
1, 44767, Note_off_c, 48
1, 44768, Note_off_c, 65
1, 44768, Note_on_c, 47
1, 44771, Note_off_c, 37
1, 44771, Note_off_c, 49
1, 44771, Note_off_c, 61
1, 44774, Note_off_c, 49
1, 44775, Note_off_c, 47
1, 44776, Note_off_c, 49
1, 44776, Note_on_c, 46
1, 44783, Note_off_c, 46
1, 44783, Note_on_c, 65
1, 44784, Note_on_c, 61
1, 44784, Note_on_c, 42
1, 44784, Note_on_c, 36
1, 44784, Note_on_c, 45
1, 44785, Note_off_c, 36
1, 44785, Note_off_c, 42
1, 44791, Note_off_c, 45
1, 44792, Note_on_c, 44
1, 44799, Note_off_c, 44
1, 44800, Note_on_c, 43
1, 44807, Note_off_c, 43
1, 44808, Note_on_c, 42
1, 44815, Note_off_c, 42
1, 44816, Note_on_c, 41
1, 44819, Note_off_c, 65
1, 44823, Note_off_c, 41
1, 44824, Note_on_c, 40
1, 44831, Note_off_c, 40
1, 44832, Note_on_c, 42
1, 44832, Note_on_c, 38
1, 44832, Note_on_c, 39
1, 44833, Note_off_c, 38
1, 44833, Note_off_c, 42
1, 44833, Note_on_c, 39
1, 44834, Note_off_c, 39
1, 44839, Note_off_c, 39
1, 44839, Note_on_c, 39
1, 44840, Note_off_c, 39
1, 44840, Note_on_c, 38
1, 44847, Note_off_c, 38
1, 44848, Note_on_c, 37
1, 44855, Note_off_c, 37
1, 44856, Note_on_c, 36
1, 44863, Note_off_c, 36
1, 44872, Note_off_c, 61
1, 44878, Note_on_c, 39
1, 44880, Note_on_c, 42
1, 44880, Note_on_c, 27
1, 44880, Note_on_c, 39
1, 44880, Note_on_c, 39
1, 44881, Note_off_c, 42
1, 44881, Note_on_c, 66
1, 44882, Note_on_c, 63
1, 44885, Note_on_c, 70
1, 44912, Note_off_c, 68
1, 44924, Note_off_c, 77
1, 44924, Note_off_c, 65
1, 44924, Note_off_c, 56
1, 44924, Note_off_c, 61
1, 44924, Note_off_c, 80
1, 44924, Note_off_c, 65
1, 44928, Note_on_c, 42
1, 44928, Note_on_c, 36
1, 44928, Note_on_c, 63
1, 44928, Note_on_c, 58
1, 44928, Note_on_c, 66
1, 44928, Note_on_c, 78
1, 44928, Note_on_c, 82
1, 44929, Note_off_c, 36
1, 44929, Note_off_c, 42
1, 44929, Note_on_c, 70
1, 44932, Note_on_c, 66
1, 44949, Note_off_c, 66
1, 44950, Note_off_c, 63
1, 44958, Note_off_c, 70
1, 44972, Note_off_c, 39
1, 44974, Note_off_c, 27
1, 44974, Note_off_c, 39
1, 44974, Note_off_c, 39
1, 44974, Note_on_c, 42
1, 44976, Note_on_c, 66
1, 44976, Note_on_c, 63
1, 44976, Note_on_c, 42
1, 44976, Note_on_c, 30
1, 44976, Note_on_c, 42
1, 44976, Note_on_c, 42
1, 44977, Note_off_c, 42
1, 44980, Note_on_c, 70
1, 44988, Note_off_c, 63
1, 44988, Note_off_c, 66
1, 44991, Note_off_c, 70
1, 45020, Note_off_c, 42
1, 45022, Note_off_c, 30
1, 45022, Note_off_c, 42
1, 45022, Note_off_c, 42
1, 45022, Note_on_c, 46
1, 45023, Note_on_c, 66
1, 45024, Note_on_c, 63
1, 45024, Note_on_c, 42
1, 45024, Note_on_c, 38
1, 45024, Note_on_c, 34
1, 45024, Note_on_c, 46
1, 45024, Note_on_c, 46
1, 45025, Note_off_c, 38
1, 45025, Note_off_c, 42
1, 45026, Note_on_c, 70
1, 45037, Note_off_c, 63
1, 45037, Note_off_c, 66
1, 45038, Note_off_c, 70
1, 45068, Note_off_c, 46
1, 45070, Note_off_c, 46
1, 45070, Note_off_c, 46
1, 45070, Note_off_c, 34
1, 45070, Note_on_c, 54
1, 45072, Note_on_c, 66
1, 45072, Note_on_c, 63
1, 45072, Note_on_c, 42
1, 45072, Note_on_c, 42
1, 45072, Note_on_c, 54
1, 45072, Note_on_c, 54
1, 45073, Note_off_c, 42
1, 45074, Note_on_c, 70
1, 45086, Note_off_c, 66
1, 45090, Note_off_c, 63
1, 45091, Note_off_c, 70
1, 45116, Note_off_c, 54
1, 45118, Note_off_c, 42
1, 45118, Note_off_c, 54
1, 45118, Note_off_c, 54
1, 45118, Note_on_c, 51
1, 45120, Note_on_c, 70
1, 45120, Note_on_c, 66
1, 45120, Note_on_c, 42
1, 45120, Note_on_c, 36
1, 45120, Note_on_c, 39
1, 45120, Note_on_c, 51
1, 45120, Note_on_c, 51
1, 45121, Note_off_c, 36
1, 45121, Note_off_c, 42
1, 45121, Note_on_c, 73
1, 45168, Note_on_c, 42
1, 45169, Note_off_c, 42
1, 45194, Note_off_c, 70
1, 45199, Note_off_c, 66
1, 45199, Note_off_c, 73
1, 45215, Note_on_c, 66
1, 45215, Note_on_c, 63
1, 45216, Note_on_c, 42
1, 45216, Note_on_c, 38
1, 45217, Note_off_c, 38
1, 45217, Note_off_c, 42
1, 45217, Note_on_c, 70
1, 45217, Note_on_c, 39
1, 45218, Note_off_c, 39
1, 45223, Note_on_c, 39
1, 45224, Note_off_c, 39
1, 45232, Note_off_c, 63
1, 45233, Note_off_c, 70
1, 45234, Note_off_c, 66
1, 45259, Note_off_c, 51
1, 45261, Note_off_c, 51
1, 45261, Note_off_c, 51
1, 45261, Note_off_c, 39
1, 45261, Note_on_c, 51
1, 45263, Note_on_c, 39
1, 45263, Note_on_c, 51
1, 45263, Note_on_c, 51
1, 45264, Note_on_c, 42
1, 45265, Note_off_c, 42
1, 45265, Note_on_c, 68
1, 45265, Note_on_c, 65
1, 45268, Note_on_c, 73
1, 45304, Note_off_c, 66
1, 45306, Note_off_c, 70
1, 45308, Note_off_c, 63
1, 45308, Note_off_c, 82
1, 45308, Note_off_c, 78
1, 45308, Note_off_c, 66
1, 45308, Note_off_c, 58
1, 45312, Note_on_c, 42
1, 45312, Note_on_c, 36
1, 45312, Note_on_c, 56
1, 45312, Note_on_c, 65
1, 45312, Note_on_c, 61
1, 45312, Note_on_c, 80
1, 45312, Note_on_c, 77
1, 45312, Note_on_c, 65
1, 45313, Note_off_c, 36
1, 45313, Note_off_c, 42
1, 45313, Note_on_c, 68
1, 45344, Note_off_c, 65
1, 45344, Note_off_c, 68
1, 45354, Note_off_c, 73
1, 45356, Note_off_c, 51
1, 45358, Note_off_c, 51
1, 45358, Note_off_c, 51
1, 45358, Note_off_c, 39
1, 45358, Note_on_c, 51
1, 45359, Note_on_c, 65
1, 45359, Note_on_c, 61
1, 45360, Note_on_c, 42
1, 45360, Note_on_c, 39
1, 45360, Note_on_c, 51
1, 45360, Note_on_c, 51
1, 45361, Note_off_c, 42
1, 45363, Note_on_c, 70
1, 45375, Note_off_c, 61
1, 45377, Note_off_c, 65
1, 45379, Note_off_c, 70
1, 45400, Note_off_c, 51
1, 45402, Note_off_c, 39
1, 45402, Note_off_c, 51
1, 45402, Note_off_c, 51
1, 45406, Note_on_c, 49
1, 45408, Note_on_c, 42
1, 45408, Note_on_c, 38
1, 45408, Note_on_c, 36
1, 45408, Note_on_c, 37
1, 45408, Note_on_c, 49
1, 45408, Note_on_c, 49
1, 45409, Note_off_c, 36
1, 45409, Note_off_c, 38
1, 45409, Note_off_c, 42
1, 45446, Note_off_c, 49
1, 45446, Note_off_c, 37
1, 45447, Note_off_c, 49
1, 45449, Note_off_c, 49
1, 45456, Note_on_c, 42
1, 45457, Note_off_c, 42
1, 45504, Note_on_c, 42
1, 45505, Note_off_c, 42
1, 45552, Note_on_c, 42
1, 45552, Note_on_c, 36
1, 45553, Note_off_c, 36
1, 45553, Note_off_c, 42
1, 45600, Note_on_c, 42
1, 45600, Note_on_c, 38
1, 45601, Note_off_c, 38
1, 45601, Note_off_c, 42
1, 45601, Note_on_c, 39
1, 45602, Note_off_c, 39
1, 45607, Note_on_c, 39
1, 45608, Note_off_c, 39
1, 45646, Note_on_c, 39
1, 45647, Note_on_c, 65
1, 45648, Note_on_c, 42
1, 45648, Note_on_c, 27
1, 45648, Note_on_c, 39
1, 45648, Note_on_c, 39
1, 45649, Note_off_c, 42
1, 45649, Note_on_c, 63
1, 45650, Note_on_c, 68
1, 45662, Note_off_c, 68
1, 45665, Note_off_c, 65
1, 45672, Note_off_c, 63
1, 45676, Note_off_c, 65
1, 45677, Note_off_c, 68
1, 45689, Note_on_c, 70
1, 45692, Note_off_c, 56
1, 45692, Note_off_c, 77
1, 45692, Note_off_c, 80
1, 45692, Note_off_c, 61
1, 45692, Note_off_c, 65
1, 45692, Note_on_c, 66
1, 45696, Note_on_c, 42
1, 45696, Note_on_c, 36
1, 45696, Note_on_c, 63
1, 45696, Note_on_c, 58
1, 45696, Note_on_c, 66
1, 45696, Note_on_c, 78
1, 45696, Note_on_c, 82
1, 45697, Note_off_c, 36
1, 45697, Note_off_c, 42
1, 45741, Note_off_c, 39
1, 45742, Note_on_c, 42
1, 45743, Note_off_c, 39
1, 45743, Note_off_c, 39
1, 45743, Note_off_c, 27
1, 45744, Note_on_c, 42
1, 45744, Note_on_c, 30
1, 45744, Note_on_c, 42
1, 45744, Note_on_c, 42
1, 45745, Note_off_c, 42
1, 45745, Note_on_c, 63
1, 45745, Note_on_c, 61
1, 45748, Note_on_c, 66
1, 45757, Note_off_c, 63
1, 45760, Note_off_c, 66
1, 45762, Note_off_c, 61
1, 45789, Note_off_c, 42
1, 45790, Note_on_c, 46
1, 45791, Note_off_c, 30
1, 45791, Note_off_c, 42
1, 45791, Note_off_c, 42
1, 45792, Note_on_c, 63
1, 45792, Note_on_c, 42
1, 45792, Note_on_c, 38
1, 45792, Note_on_c, 34
1, 45792, Note_on_c, 46
1, 45792, Note_on_c, 46
1, 45793, Note_off_c, 38
1, 45793, Note_off_c, 42
1, 45793, Note_on_c, 65
1, 45795, Note_on_c, 68
1, 45810, Note_off_c, 65
1, 45812, Note_off_c, 63
1, 45820, Note_off_c, 68
1, 45837, Note_off_c, 46
1, 45838, Note_on_c, 54
1, 45839, Note_off_c, 46
1, 45839, Note_off_c, 46
1, 45839, Note_off_c, 34
1, 45840, Note_on_c, 42
1, 45840, Note_on_c, 42
1, 45840, Note_on_c, 54
1, 45840, Note_on_c, 54
1, 45841, Note_off_c, 42
1, 45885, Note_off_c, 54
1, 45886, Note_on_c, 51
1, 45887, Note_off_c, 42
1, 45887, Note_off_c, 54
1, 45887, Note_off_c, 54
1, 45887, Note_on_c, 63
1, 45888, Note_on_c, 42
1, 45888, Note_on_c, 36
1, 45888, Note_on_c, 39
1, 45888, Note_on_c, 51
1, 45888, Note_on_c, 51
1, 45889, Note_off_c, 36
1, 45889, Note_off_c, 42
1, 45889, Note_on_c, 61
1, 45890, Note_on_c, 66
1, 45926, Note_off_c, 63
1, 45932, Note_off_c, 61
1, 45933, Note_off_c, 66
1, 45936, Note_on_c, 42
1, 45937, Note_off_c, 42
1, 45937, Note_on_c, 65
1, 45937, Note_on_c, 63
1, 45940, Note_on_c, 68
1, 45948, Note_off_c, 63
1, 45948, Note_off_c, 65
1, 45949, Note_off_c, 68
1, 45984, Note_on_c, 42
1, 45984, Note_on_c, 38
1, 45985, Note_off_c, 38
1, 45985, Note_off_c, 42
1, 45985, Note_on_c, 39
1, 45986, Note_off_c, 39
1, 45991, Note_on_c, 39
1, 45992, Note_off_c, 39
1, 46027, Note_off_c, 51
1, 46029, Note_off_c, 51
1, 46029, Note_off_c, 51
1, 46029, Note_off_c, 39
1, 46029, Note_on_c, 51
1, 46031, Note_on_c, 39
1, 46031, Note_on_c, 51
1, 46031, Note_on_c, 51
1, 46032, Note_on_c, 65
1, 46032, Note_on_c, 63
1, 46032, Note_on_c, 42
1, 46033, Note_off_c, 42
1, 46036, Note_on_c, 68
1, 46053, Note_off_c, 63
1, 46053, Note_off_c, 65
1, 46076, Note_off_c, 78
1, 46076, Note_off_c, 66
1, 46076, Note_off_c, 82
1, 46076, Note_off_c, 66
1, 46076, Note_off_c, 58
1, 46076, Note_off_c, 63
1, 46076, Note_off_c, 68
1, 46080, Note_on_c, 42
1, 46080, Note_on_c, 36
1, 46080, Note_on_c, 56
1, 46080, Note_on_c, 65
1, 46080, Note_on_c, 61
1, 46080, Note_on_c, 80
1, 46080, Note_on_c, 77
1, 46081, Note_off_c, 36
1, 46081, Note_off_c, 42
1, 46086, Note_on_c, 73
1, 46120, Note_off_c, 51
1, 46122, Note_off_c, 51
1, 46125, Note_off_c, 39
1, 46125, Note_off_c, 51
1, 46126, Note_on_c, 51
1, 46128, Note_on_c, 42
1, 46128, Note_on_c, 39
1, 46128, Note_on_c, 51
1, 46128, Note_on_c, 51
1, 46129, Note_off_c, 42
1, 46129, Note_on_c, 63
1, 46129, Note_on_c, 61
1, 46130, Note_on_c, 66
1, 46141, Note_off_c, 61
1, 46141, Note_off_c, 63
1, 46150, Note_off_c, 66
1, 46171, Note_off_c, 51
1, 46173, Note_off_c, 39
1, 46173, Note_off_c, 51
1, 46173, Note_off_c, 51
1, 46174, Note_on_c, 49
1, 46175, Note_on_c, 65
1, 46176, Note_on_c, 63
1, 46176, Note_on_c, 42
1, 46176, Note_on_c, 38
1, 46176, Note_on_c, 36
1, 46176, Note_on_c, 37
1, 46176, Note_on_c, 49
1, 46176, Note_on_c, 49
1, 46177, Note_off_c, 36
1, 46177, Note_off_c, 38
1, 46177, Note_off_c, 42
1, 46177, Note_on_c, 68
1, 46194, Note_off_c, 63
1, 46197, Note_off_c, 65
1, 46211, Note_off_c, 68
1, 46212, Note_off_c, 49
1, 46214, Note_off_c, 49
1, 46214, Note_off_c, 37
1, 46214, Note_off_c, 49
1, 46224, Note_on_c, 42
1, 46225, Note_off_c, 42
1, 46269, Note_on_c, 63
1, 46270, Note_on_c, 49
1, 46271, Note_on_c, 61
1, 46272, Note_on_c, 66
1, 46272, Note_on_c, 42
1, 46272, Note_on_c, 37
1, 46272, Note_on_c, 49
1, 46272, Note_on_c, 49
1, 46273, Note_off_c, 42
1, 46306, Note_off_c, 63
1, 46307, Note_off_c, 37
1, 46307, Note_off_c, 49
1, 46310, Note_off_c, 49
1, 46312, Note_off_c, 49
1, 46318, Note_off_c, 66
1, 46320, Note_on_c, 42
1, 46320, Note_on_c, 36
1, 46321, Note_off_c, 36
1, 46321, Note_off_c, 42
1, 46321, Note_on_c, 58
1, 46322, Note_on_c, 63
1, 46323, Note_off_c, 61
1, 46323, Note_on_c, 58
1, 46326, Note_off_c, 58
1, 46329, Note_off_c, 58
1, 46334, Note_off_c, 63
1, 46368, Note_on_c, 42
1, 46368, Note_on_c, 38
1, 46369, Note_off_c, 38
1, 46369, Note_off_c, 42
1, 46369, Note_on_c, 39
1, 46370, Note_off_c, 39
1, 46375, Note_on_c, 39
1, 46376, Note_off_c, 39
1, 46414, Note_on_c, 39
1, 46416, Note_on_c, 63
1, 46416, Note_on_c, 42
1, 46416, Note_on_c, 27
1, 46416, Note_on_c, 39
1, 46416, Note_on_c, 39
1, 46417, Note_off_c, 42
1, 46417, Note_on_c, 65
1, 46421, Note_on_c, 68
1, 46431, Note_off_c, 63
1, 46435, Note_off_c, 65
1, 46446, Note_off_c, 68
1, 46459, Note_off_c, 73
1, 46460, Note_off_c, 77
1, 46460, Note_off_c, 80
1, 46460, Note_off_c, 65
1, 46460, Note_off_c, 56
1, 46460, Note_off_c, 61
1, 46463, Note_on_c, 63
1, 46464, Note_on_c, 42
1, 46464, Note_on_c, 36
1, 46464, Note_on_c, 63
1, 46464, Note_on_c, 58
1, 46464, Note_on_c, 66
1, 46464, Note_on_c, 78
1, 46464, Note_on_c, 82
1, 46465, Note_off_c, 36
1, 46465, Note_off_c, 42
1, 46465, Note_on_c, 75
1, 46466, Note_off_c, 70
1, 46508, Note_off_c, 39
1, 46510, Note_off_c, 39
1, 46510, Note_off_c, 27
1, 46510, Note_off_c, 39
1, 46510, Note_on_c, 42
1, 46512, Note_on_c, 42
1, 46512, Note_on_c, 30
1, 46512, Note_on_c, 42
1, 46512, Note_on_c, 42
1, 46513, Note_off_c, 42
1, 46513, Note_on_c, 63
1, 46513, Note_on_c, 61
1, 46516, Note_on_c, 66
1, 46520, Note_off_c, 61
1, 46527, Note_off_c, 63
1, 46531, Note_off_c, 66
1, 46556, Note_off_c, 42
1, 46558, Note_off_c, 30
1, 46558, Note_off_c, 42
1, 46558, Note_off_c, 42
1, 46558, Note_on_c, 46
1, 46560, Note_on_c, 42
1, 46560, Note_on_c, 38
1, 46560, Note_on_c, 34
1, 46560, Note_on_c, 46
1, 46560, Note_on_c, 46
1, 46561, Note_off_c, 38
1, 46561, Note_off_c, 42
1, 46561, Note_on_c, 65
1, 46561, Note_on_c, 63
1, 46563, Note_on_c, 68
1, 46568, Note_off_c, 63
1, 46575, Note_off_c, 65
1, 46592, Note_off_c, 68
1, 46604, Note_off_c, 46
1, 46606, Note_off_c, 46
1, 46606, Note_off_c, 46
1, 46606, Note_off_c, 34
1, 46606, Note_on_c, 54
1, 46608, Note_on_c, 42
1, 46608, Note_on_c, 42
1, 46608, Note_on_c, 54
1, 46608, Note_on_c, 54
1, 46609, Note_off_c, 42
1, 46652, Note_off_c, 54
1, 46654, Note_off_c, 42
1, 46654, Note_off_c, 54
1, 46654, Note_off_c, 54
1, 46654, Note_on_c, 51
1, 46655, Note_on_c, 63
1, 46656, Note_on_c, 61
1, 46656, Note_on_c, 42
1, 46656, Note_on_c, 36
1, 46656, Note_on_c, 39
1, 46656, Note_on_c, 51
1, 46656, Note_on_c, 51
1, 46657, Note_off_c, 36
1, 46657, Note_off_c, 42
1, 46658, Note_on_c, 66
1, 46691, Note_off_c, 63
1, 46696, Note_off_c, 66
1, 46698, Note_off_c, 61
1, 46704, Note_on_c, 42
1, 46705, Note_off_c, 42
1, 46705, Note_on_c, 65
1, 46705, Note_on_c, 63
1, 46706, Note_on_c, 68
1, 46711, Note_off_c, 63
1, 46714, Note_off_c, 65
1, 46718, Note_off_c, 68
1, 46752, Note_on_c, 42
1, 46752, Note_on_c, 38
1, 46753, Note_off_c, 38
1, 46753, Note_off_c, 42
1, 46753, Note_on_c, 39
1, 46754, Note_off_c, 39
1, 46759, Note_on_c, 39
1, 46760, Note_off_c, 39
1, 46795, Note_off_c, 51
1, 46797, Note_off_c, 51
1, 46797, Note_off_c, 51
1, 46797, Note_off_c, 39
1, 46797, Note_on_c, 51
1, 46799, Note_on_c, 65
1, 46799, Note_on_c, 39
1, 46799, Note_on_c, 51
1, 46799, Note_on_c, 51
1, 46800, Note_on_c, 42
1, 46801, Note_off_c, 42
1, 46801, Note_on_c, 63
1, 46802, Note_on_c, 68
1, 46811, Note_off_c, 63
1, 46819, Note_off_c, 65
1, 46844, Note_off_c, 78
1, 46844, Note_off_c, 66
1, 46844, Note_off_c, 58
1, 46844, Note_off_c, 63
1, 46844, Note_off_c, 82
1, 46848, Note_off_c, 63
1, 46848, Note_on_c, 42
1, 46848, Note_on_c, 36
1, 46848, Note_on_c, 56
1, 46848, Note_on_c, 65
1, 46848, Note_on_c, 61
1, 46848, Note_on_c, 80
1, 46848, Note_on_c, 77
1, 46848, Note_on_c, 70
1, 46849, Note_off_c, 36
1, 46849, Note_off_c, 42
1, 46849, Note_off_c, 68
1, 46849, Note_on_c, 73
1, 46850, Note_off_c, 75
1, 46892, Note_off_c, 51
1, 46894, Note_off_c, 51
1, 46894, Note_off_c, 39
1, 46894, Note_off_c, 51
1, 46894, Note_on_c, 51
1, 46895, Note_on_c, 63
1, 46896, Note_on_c, 61
1, 46896, Note_on_c, 42
1, 46896, Note_on_c, 39
1, 46896, Note_on_c, 51
1, 46896, Note_on_c, 51
1, 46897, Note_off_c, 42
1, 46898, Note_on_c, 66
1, 46908, Note_off_c, 61
1, 46908, Note_off_c, 63
1, 46921, Note_off_c, 66
1, 46936, Note_off_c, 51
1, 46938, Note_off_c, 39
1, 46938, Note_off_c, 51
1, 46938, Note_off_c, 51
1, 46942, Note_on_c, 49
1, 46943, Note_on_c, 65
1, 46944, Note_on_c, 63
1, 46944, Note_on_c, 42
1, 46944, Note_on_c, 38
1, 46944, Note_on_c, 36
1, 46944, Note_on_c, 37
1, 46944, Note_on_c, 49
1, 46944, Note_on_c, 49
1, 46945, Note_off_c, 36
1, 46945, Note_off_c, 38
1, 46945, Note_off_c, 42
1, 46946, Note_on_c, 68
1, 46956, Note_off_c, 63
1, 46962, Note_off_c, 65
1, 46966, Note_off_c, 68
1, 46982, Note_off_c, 49
1, 46982, Note_off_c, 37
1, 46983, Note_off_c, 49
1, 46985, Note_off_c, 49
1, 46992, Note_on_c, 42
1, 46993, Note_off_c, 42
1, 47038, Note_on_c, 63
1, 47039, Note_on_c, 61
1, 47040, Note_on_c, 42
1, 47041, Note_off_c, 42
1, 47041, Note_on_c, 66
1, 47055, Note_off_c, 61
1, 47055, Note_off_c, 63
1, 47065, Note_off_c, 66
1, 47088, Note_on_c, 42
1, 47088, Note_on_c, 36
1, 47089, Note_off_c, 36
1, 47089, Note_off_c, 42
1, 47136, Note_on_c, 65
1, 47136, Note_on_c, 63
1, 47136, Note_on_c, 42
1, 47136, Note_on_c, 38
1, 47137, Note_off_c, 38
1, 47137, Note_off_c, 42
1, 47137, Note_on_c, 68
1, 47137, Note_on_c, 39
1, 47138, Note_off_c, 39
1, 47143, Note_on_c, 39
1, 47144, Note_off_c, 39
1, 47146, Note_off_c, 63
1, 47158, Note_off_c, 65
1, 47161, Note_off_c, 68
1, 47182, Note_on_c, 39
1, 47184, Note_on_c, 42
1, 47184, Note_on_c, 27
1, 47184, Note_on_c, 39
1, 47184, Note_on_c, 39
1, 47185, Note_off_c, 42
1, 47212, Note_off_c, 70
1, 47218, Note_off_c, 73
1, 47228, Note_off_c, 77
1, 47228, Note_off_c, 61
1, 47228, Note_off_c, 65
1, 47228, Note_off_c, 80
1, 47228, Note_off_c, 56
1, 47229, Note_on_c, 70
1, 47232, Note_on_c, 70
1, 47232, Note_on_c, 42
1, 47232, Note_on_c, 36
1, 47232, Note_on_c, 63
1, 47232, Note_on_c, 58
1, 47232, Note_on_c, 66
1, 47232, Note_on_c, 82
1, 47232, Note_on_c, 78
1, 47232, Note_on_c, 66
1, 47233, Note_off_c, 36
1, 47233, Note_off_c, 42
1, 47233, Note_on_c, 70
1, 47234, Note_on_c, 70
1, 47262, Note_off_c, 70
1, 47266, Note_off_c, 70
1, 47271, Note_off_c, 70
1, 47277, Note_off_c, 39
1, 47278, Note_on_c, 42
1, 47279, Note_off_c, 39
1, 47279, Note_off_c, 27
1, 47279, Note_off_c, 39
1, 47280, Note_on_c, 42
1, 47280, Note_on_c, 30
1, 47280, Note_on_c, 42
1, 47280, Note_on_c, 42
1, 47281, Note_off_c, 42
1, 47281, Note_on_c, 70
1, 47281, Note_on_c, 70
1, 47284, Note_on_c, 70
1, 47325, Note_off_c, 42
1, 47326, Note_on_c, 46
1, 47327, Note_off_c, 30
1, 47327, Note_off_c, 42
1, 47327, Note_off_c, 42
1, 47328, Note_on_c, 42
1, 47328, Note_on_c, 38
1, 47328, Note_on_c, 34
1, 47328, Note_on_c, 46
1, 47328, Note_on_c, 46
1, 47329, Note_off_c, 38
1, 47329, Note_off_c, 42
1, 47373, Note_off_c, 46
1, 47374, Note_on_c, 54
1, 47375, Note_off_c, 46
1, 47375, Note_off_c, 46
1, 47375, Note_off_c, 34
1, 47376, Note_on_c, 42
1, 47376, Note_on_c, 42
1, 47376, Note_on_c, 54
1, 47376, Note_on_c, 54
1, 47377, Note_off_c, 42
1, 47397, Note_off_c, 70
1, 47399, Note_off_c, 70
1, 47409, Note_off_c, 70
1, 47421, Note_off_c, 54
1, 47422, Note_on_c, 51
1, 47423, Note_off_c, 42
1, 47423, Note_off_c, 54
1, 47423, Note_off_c, 54
1, 47424, Note_on_c, 63
1, 47424, Note_on_c, 42
1, 47424, Note_on_c, 36
1, 47424, Note_on_c, 39
1, 47424, Note_on_c, 51
1, 47424, Note_on_c, 51
1, 47425, Note_off_c, 36
1, 47425, Note_off_c, 42
1, 47425, Note_on_c, 66
1, 47448, Note_off_c, 66
1, 47465, Note_off_c, 63
1, 47471, Note_on_c, 66
1, 47472, Note_on_c, 42
1, 47473, Note_off_c, 42
1, 47474, Note_on_c, 63
1, 47520, Note_on_c, 42
1, 47520, Note_on_c, 38
1, 47521, Note_off_c, 38
1, 47521, Note_off_c, 42
1, 47521, Note_on_c, 39
1, 47522, Note_off_c, 39
1, 47527, Note_on_c, 39
1, 47528, Note_off_c, 39
1, 47563, Note_off_c, 51
1, 47565, Note_off_c, 51
1, 47565, Note_off_c, 51
1, 47565, Note_off_c, 39
1, 47565, Note_on_c, 51
1, 47567, Note_on_c, 39
1, 47567, Note_on_c, 51
1, 47567, Note_on_c, 51
1, 47568, Note_on_c, 42
1, 47569, Note_off_c, 42
1, 47587, Note_off_c, 66
1, 47591, Note_off_c, 63
1, 47592, Note_off_c, 70
1, 47593, Note_off_c, 66
1, 47612, Note_off_c, 78
1, 47612, Note_off_c, 63
1, 47612, Note_off_c, 66
1, 47612, Note_off_c, 58
1, 47612, Note_off_c, 82
1, 47614, Note_on_c, 70
1, 47614, Note_on_c, 68
1, 47616, Note_on_c, 70
1, 47616, Note_on_c, 42
1, 47616, Note_on_c, 36
1, 47616, Note_on_c, 56
1, 47616, Note_on_c, 65
1, 47616, Note_on_c, 61
1, 47616, Note_on_c, 80
1, 47616, Note_on_c, 77
1, 47616, Note_on_c, 65
1, 47617, Note_off_c, 36
1, 47617, Note_off_c, 42
1, 47618, Note_on_c, 70
1, 47646, Note_off_c, 70
1, 47653, Note_off_c, 70
1, 47655, Note_off_c, 70
1, 47656, Note_off_c, 51
1, 47658, Note_off_c, 51
1, 47661, Note_off_c, 39
1, 47661, Note_off_c, 51
1, 47662, Note_on_c, 51
1, 47663, Note_on_c, 70
1, 47664, Note_on_c, 42
1, 47664, Note_on_c, 39
1, 47664, Note_on_c, 51
1, 47664, Note_on_c, 51
1, 47665, Note_off_c, 42
1, 47665, Note_on_c, 70
1, 47669, Note_on_c, 70
1, 47707, Note_off_c, 51
1, 47709, Note_off_c, 39
1, 47709, Note_off_c, 51
1, 47709, Note_off_c, 51
1, 47710, Note_on_c, 49
1, 47712, Note_on_c, 42
1, 47712, Note_on_c, 38
1, 47712, Note_on_c, 36
1, 47712, Note_on_c, 37
1, 47712, Note_on_c, 49
1, 47712, Note_on_c, 49
1, 47713, Note_off_c, 36
1, 47713, Note_off_c, 38
1, 47713, Note_off_c, 42
1, 47748, Note_off_c, 49
1, 47750, Note_off_c, 49
1, 47750, Note_off_c, 37
1, 47750, Note_off_c, 49
1, 47760, Note_on_c, 42
1, 47761, Note_off_c, 42
1, 47773, Note_off_c, 70
1, 47780, Note_off_c, 70
1, 47787, Note_off_c, 70
1, 47805, Note_on_c, 65
1, 47806, Note_on_c, 49
1, 47808, Note_on_c, 42
1, 47808, Note_on_c, 37
1, 47808, Note_on_c, 49
1, 47808, Note_on_c, 49
1, 47809, Note_off_c, 42
1, 47809, Note_on_c, 61
1, 47843, Note_off_c, 37
1, 47843, Note_off_c, 49
1, 47843, Note_off_c, 65
1, 47844, Note_off_c, 61
1, 47846, Note_off_c, 49
1, 47848, Note_off_c, 49
1, 47855, Note_on_c, 65
1, 47856, Note_on_c, 42
1, 47856, Note_on_c, 36
1, 47857, Note_off_c, 36
1, 47857, Note_off_c, 42
1, 47857, Note_on_c, 61
1, 47904, Note_on_c, 42
1, 47904, Note_on_c, 38
1, 47905, Note_off_c, 38
1, 47905, Note_off_c, 42
1, 47905, Note_on_c, 39
1, 47906, Note_off_c, 39
1, 47911, Note_on_c, 39
1, 47912, Note_off_c, 39
1, 47929, Note_off_c, 61
1, 47940, Note_off_c, 65
1, 47950, Note_on_c, 39
1, 47952, Note_on_c, 66
1, 47952, Note_on_c, 42
1, 47952, Note_on_c, 27
1, 47952, Note_on_c, 39
1, 47952, Note_on_c, 39
1, 47953, Note_off_c, 42
1, 47953, Note_on_c, 63
1, 47958, Note_on_c, 70
1, 47985, Note_off_c, 68
1, 47987, Note_off_c, 65
1, 47995, Note_on_c, 70
1, 47996, Note_off_c, 77
1, 47996, Note_off_c, 80
1, 47996, Note_off_c, 61
1, 47996, Note_off_c, 65
1, 47996, Note_off_c, 56
1, 47997, Note_on_c, 66
1, 48000, Note_on_c, 42
1, 48000, Note_on_c, 36
1, 48000, Note_on_c, 63
1, 48000, Note_on_c, 58
1, 48000, Note_on_c, 66
1, 48000, Note_on_c, 82
1, 48000, Note_on_c, 78
1, 48001, Note_off_c, 36
1, 48001, Note_off_c, 42
1, 48016, Note_off_c, 70
1, 48020, Note_off_c, 66
1, 48023, Note_off_c, 63
1, 48044, Note_off_c, 39
1, 48046, Note_off_c, 39
1, 48046, Note_off_c, 39
1, 48046, Note_off_c, 27
1, 48046, Note_on_c, 42
1, 48047, Note_on_c, 66
1, 48048, Note_on_c, 63
1, 48048, Note_on_c, 42
1, 48048, Note_on_c, 30
1, 48048, Note_on_c, 42
1, 48048, Note_on_c, 42
1, 48049, Note_off_c, 42
1, 48051, Note_on_c, 70
1, 48059, Note_off_c, 66
1, 48061, Note_off_c, 70
1, 48063, Note_off_c, 63
1, 48092, Note_off_c, 42
1, 48094, Note_off_c, 30
1, 48094, Note_off_c, 42
1, 48094, Note_off_c, 42
1, 48094, Note_on_c, 46
1, 48095, Note_on_c, 66
1, 48095, Note_on_c, 63
1, 48096, Note_on_c, 42
1, 48096, Note_on_c, 38
1, 48096, Note_on_c, 34
1, 48096, Note_on_c, 46
1, 48096, Note_on_c, 46
1, 48097, Note_off_c, 38
1, 48097, Note_off_c, 42
1, 48098, Note_on_c, 70
1, 48107, Note_off_c, 63
1, 48110, Note_off_c, 66
1, 48111, Note_off_c, 70
1, 48140, Note_off_c, 46
1, 48142, Note_off_c, 46
1, 48142, Note_off_c, 46
1, 48142, Note_off_c, 34
1, 48142, Note_on_c, 66
1, 48142, Note_on_c, 54
1, 48143, Note_on_c, 63
1, 48144, Note_on_c, 42
1, 48144, Note_on_c, 42
1, 48144, Note_on_c, 54
1, 48144, Note_on_c, 54
1, 48145, Note_off_c, 42
1, 48145, Note_on_c, 70
1, 48160, Note_off_c, 63
1, 48160, Note_off_c, 70
1, 48167, Note_off_c, 66
1, 48188, Note_off_c, 54
1, 48190, Note_off_c, 42
1, 48190, Note_off_c, 54
1, 48190, Note_off_c, 54
1, 48190, Note_on_c, 51
1, 48191, Note_on_c, 70
1, 48192, Note_on_c, 66
1, 48192, Note_on_c, 42
1, 48192, Note_on_c, 36
1, 48192, Note_on_c, 39
1, 48192, Note_on_c, 51
1, 48192, Note_on_c, 51
1, 48193, Note_off_c, 36
1, 48193, Note_off_c, 42
1, 48193, Note_on_c, 73
1, 48240, Note_on_c, 42
1, 48241, Note_off_c, 42
1, 48270, Note_off_c, 66
1, 48271, Note_off_c, 73
1, 48272, Note_off_c, 70
1, 48286, Note_on_c, 66
1, 48287, Note_on_c, 63
1, 48288, Note_on_c, 42
1, 48288, Note_on_c, 38
1, 48289, Note_off_c, 38
1, 48289, Note_off_c, 42
1, 48289, Note_on_c, 39
1, 48290, Note_off_c, 39
1, 48290, Note_on_c, 70
1, 48295, Note_on_c, 39
1, 48296, Note_off_c, 39
1, 48302, Note_off_c, 63
1, 48302, Note_off_c, 70
1, 48304, Note_off_c, 66
1, 48331, Note_off_c, 51
1, 48333, Note_off_c, 51
1, 48333, Note_off_c, 51
1, 48333, Note_off_c, 39
1, 48333, Note_on_c, 51
1, 48335, Note_on_c, 39
1, 48335, Note_on_c, 51
1, 48335, Note_on_c, 51
1, 48336, Note_on_c, 68
1, 48336, Note_on_c, 65
1, 48336, Note_on_c, 42
1, 48337, Note_off_c, 42
1, 48340, Note_on_c, 73
1, 48370, Note_off_c, 66
1, 48372, Note_off_c, 70
1, 48380, Note_off_c, 82
1, 48380, Note_off_c, 58
1, 48380, Note_off_c, 63
1, 48380, Note_off_c, 66
1, 48380, Note_off_c, 78
1, 48382, Note_on_c, 65
1, 48384, Note_on_c, 42
1, 48384, Note_on_c, 36
1, 48384, Note_on_c, 56
1, 48384, Note_on_c, 65
1, 48384, Note_on_c, 61
1, 48384, Note_on_c, 80
1, 48384, Note_on_c, 77
1, 48384, Note_on_c, 68
1, 48385, Note_off_c, 36
1, 48385, Note_off_c, 42
1, 48421, Note_off_c, 68
1, 48422, Note_off_c, 65
1, 48422, Note_off_c, 73
1, 48428, Note_off_c, 51
1, 48430, Note_off_c, 39
1, 48430, Note_off_c, 51
1, 48430, Note_off_c, 51
1, 48430, Note_on_c, 51
1, 48432, Note_on_c, 65
1, 48432, Note_on_c, 61
1, 48432, Note_on_c, 42
1, 48432, Note_on_c, 39
1, 48432, Note_on_c, 51
1, 48432, Note_on_c, 51
1, 48433, Note_off_c, 42
1, 48434, Note_on_c, 70
1, 48444, Note_off_c, 70
1, 48446, Note_off_c, 61
1, 48451, Note_off_c, 65
1, 48472, Note_off_c, 51
1, 48474, Note_off_c, 39
1, 48474, Note_off_c, 51
1, 48474, Note_off_c, 51
1, 48478, Note_on_c, 49
1, 48480, Note_on_c, 42
1, 48480, Note_on_c, 38
1, 48480, Note_on_c, 36
1, 48480, Note_on_c, 37
1, 48480, Note_on_c, 49
1, 48480, Note_on_c, 49
1, 48481, Note_off_c, 36
1, 48481, Note_off_c, 38
1, 48481, Note_off_c, 42
1, 48518, Note_off_c, 49
1, 48518, Note_off_c, 37
1, 48519, Note_off_c, 49
1, 48521, Note_off_c, 49
1, 48528, Note_on_c, 42
1, 48529, Note_off_c, 42
1, 48576, Note_on_c, 42
1, 48577, Note_off_c, 42
1, 48624, Note_on_c, 42
1, 48624, Note_on_c, 36
1, 48625, Note_off_c, 36
1, 48625, Note_off_c, 42
1, 48672, Note_on_c, 42
1, 48672, Note_on_c, 38
1, 48673, Note_off_c, 38
1, 48673, Note_off_c, 42
1, 48673, Note_on_c, 39
1, 48674, Note_off_c, 39
1, 48679, Note_on_c, 39
1, 48680, Note_off_c, 39
1, 48718, Note_on_c, 39
1, 48720, Note_on_c, 42
1, 48720, Note_on_c, 27
1, 48720, Note_on_c, 39
1, 48720, Note_on_c, 39
1, 48721, Note_off_c, 42
1, 48721, Note_on_c, 65
1, 48721, Note_on_c, 63
1, 48724, Note_on_c, 68
1, 48740, Note_off_c, 63
1, 48748, Note_off_c, 65
1, 48754, Note_off_c, 68
1, 48758, Note_off_c, 68
1, 48764, Note_off_c, 77
1, 48764, Note_off_c, 65
1, 48764, Note_off_c, 61
1, 48764, Note_off_c, 65
1, 48764, Note_off_c, 80
1, 48764, Note_off_c, 56
1, 48767, Note_on_c, 70
1, 48768, Note_on_c, 42
1, 48768, Note_on_c, 36
1, 48768, Note_on_c, 63
1, 48768, Note_on_c, 58
1, 48768, Note_on_c, 66
1, 48768, Note_on_c, 82
1, 48768, Note_on_c, 78
1, 48769, Note_off_c, 36
1, 48769, Note_off_c, 42
1, 48769, Note_on_c, 66
1, 48813, Note_off_c, 39
1, 48814, Note_on_c, 42
1, 48815, Note_off_c, 39
1, 48815, Note_off_c, 27
1, 48815, Note_off_c, 39
1, 48815, Note_on_c, 63
1, 48816, Note_on_c, 42
1, 48816, Note_on_c, 30
1, 48816, Note_on_c, 42
1, 48816, Note_on_c, 42
1, 48817, Note_off_c, 42
1, 48817, Note_on_c, 61
1, 48818, Note_on_c, 66
1, 48832, Note_off_c, 66
1, 48835, Note_off_c, 61
1, 48835, Note_off_c, 63
1, 48861, Note_off_c, 42
1, 48862, Note_on_c, 46
1, 48863, Note_off_c, 30
1, 48863, Note_off_c, 42
1, 48863, Note_off_c, 42
1, 48863, Note_on_c, 65
1, 48864, Note_on_c, 42
1, 48864, Note_on_c, 38
1, 48864, Note_on_c, 34
1, 48864, Note_on_c, 46
1, 48864, Note_on_c, 46
1, 48865, Note_off_c, 38
1, 48865, Note_off_c, 42
1, 48865, Note_on_c, 63
1, 48866, Note_on_c, 68
1, 48881, Note_off_c, 63
1, 48885, Note_off_c, 65
1, 48891, Note_off_c, 68
1, 48909, Note_off_c, 46
1, 48910, Note_on_c, 54
1, 48911, Note_off_c, 46
1, 48911, Note_off_c, 46
1, 48911, Note_off_c, 34
1, 48912, Note_on_c, 42
1, 48912, Note_on_c, 42
1, 48912, Note_on_c, 54
1, 48912, Note_on_c, 54
1, 48913, Note_off_c, 42
1, 48957, Note_off_c, 54
1, 48958, Note_on_c, 51
1, 48959, Note_off_c, 42
1, 48959, Note_off_c, 54
1, 48959, Note_off_c, 54
1, 48959, Note_on_c, 63
1, 48959, Note_on_c, 61
1, 48960, Note_on_c, 42
1, 48960, Note_on_c, 36
1, 48960, Note_on_c, 39
1, 48960, Note_on_c, 51
1, 48960, Note_on_c, 51
1, 48961, Note_off_c, 36
1, 48961, Note_off_c, 42
1, 48962, Note_on_c, 66
1, 49001, Note_off_c, 63
1, 49007, Note_off_c, 66
1, 49008, Note_on_c, 42
1, 49009, Note_off_c, 42
1, 49009, Note_on_c, 65
1, 49009, Note_on_c, 63
1, 49013, Note_off_c, 61
1, 49013, Note_on_c, 68
1, 49021, Note_off_c, 65
1, 49022, Note_off_c, 63
1, 49026, Note_off_c, 68
1, 49056, Note_on_c, 42
1, 49056, Note_on_c, 38
1, 49057, Note_off_c, 38
1, 49057, Note_off_c, 42
1, 49057, Note_on_c, 39
1, 49058, Note_off_c, 39
1, 49063, Note_on_c, 39
1, 49064, Note_off_c, 39
1, 49099, Note_off_c, 51
1, 49101, Note_off_c, 51
1, 49101, Note_off_c, 51
1, 49101, Note_off_c, 39
1, 49101, Note_on_c, 51
1, 49103, Note_on_c, 39
1, 49103, Note_on_c, 51
1, 49103, Note_on_c, 51
1, 49104, Note_on_c, 65
1, 49104, Note_on_c, 42
1, 49105, Note_off_c, 42
1, 49105, Note_on_c, 63
1, 49108, Note_on_c, 68
1, 49116, Note_off_c, 63
1, 49125, Note_off_c, 65
1, 49133, Note_off_c, 68
1, 49147, Note_off_c, 66
1, 49148, Note_off_c, 78
1, 49148, Note_off_c, 82
1, 49148, Note_off_c, 63
1, 49148, Note_off_c, 66
1, 49148, Note_off_c, 58
1, 49152, Note_on_c, 42
1, 49152, Note_on_c, 36
1, 49152, Note_on_c, 56
1, 49152, Note_on_c, 65
1, 49152, Note_on_c, 61
1, 49152, Note_on_c, 80
1, 49152, Note_on_c, 77
1, 49153, Note_off_c, 36
1, 49153, Note_off_c, 42
1, 49160, Note_on_c, 73
1, 49192, Note_off_c, 51
1, 49194, Note_off_c, 51
1, 49197, Note_off_c, 51
1, 49197, Note_off_c, 39
1, 49198, Note_on_c, 51
1, 49200, Note_on_c, 61
1, 49200, Note_on_c, 42
1, 49200, Note_on_c, 39
1, 49200, Note_on_c, 51
1, 49200, Note_on_c, 51
1, 49201, Note_off_c, 42
1, 49201, Note_on_c, 63
1, 49203, Note_on_c, 66
1, 49211, Note_off_c, 61
1, 49216, Note_off_c, 63
1, 49222, Note_off_c, 66
1, 49243, Note_off_c, 51
1, 49245, Note_off_c, 39
1, 49245, Note_off_c, 51
1, 49245, Note_off_c, 51
1, 49246, Note_on_c, 49
1, 49247, Note_on_c, 65
1, 49248, Note_on_c, 63
1, 49248, Note_on_c, 42
1, 49248, Note_on_c, 38
1, 49248, Note_on_c, 36
1, 49248, Note_on_c, 37
1, 49248, Note_on_c, 49
1, 49248, Note_on_c, 49
1, 49249, Note_off_c, 36
1, 49249, Note_off_c, 38
1, 49249, Note_off_c, 42
1, 49250, Note_on_c, 68
1, 49260, Note_off_c, 63
1, 49266, Note_off_c, 65
1, 49270, Note_off_c, 68
1, 49284, Note_off_c, 49
1, 49286, Note_off_c, 49
1, 49286, Note_off_c, 37
1, 49286, Note_off_c, 49
1, 49296, Note_on_c, 42
1, 49297, Note_off_c, 42
1, 49342, Note_on_c, 63
1, 49342, Note_on_c, 61
1, 49342, Note_on_c, 49
1, 49344, Note_on_c, 66
1, 49344, Note_on_c, 42
1, 49344, Note_on_c, 37
1, 49344, Note_on_c, 49
1, 49344, Note_on_c, 49
1, 49345, Note_off_c, 42
1, 49379, Note_off_c, 37
1, 49379, Note_off_c, 49
1, 49382, Note_off_c, 49
1, 49384, Note_off_c, 49
1, 49385, Note_off_c, 63
1, 49390, Note_off_c, 66
1, 49391, Note_off_c, 61
1, 49392, Note_on_c, 58
1, 49392, Note_on_c, 42
1, 49392, Note_on_c, 36
1, 49393, Note_off_c, 36
1, 49393, Note_off_c, 42
1, 49394, Note_on_c, 58
1, 49395, Note_on_c, 63
1, 49401, Note_off_c, 58
1, 49403, Note_off_c, 58
1, 49407, Note_off_c, 63
1, 49440, Note_on_c, 42
1, 49440, Note_on_c, 38
1, 49441, Note_off_c, 38
1, 49441, Note_off_c, 42
1, 49441, Note_on_c, 39
1, 49442, Note_off_c, 39
1, 49447, Note_on_c, 39
1, 49448, Note_off_c, 39
1, 49486, Note_on_c, 39
1, 49488, Note_on_c, 42
1, 49488, Note_on_c, 27
1, 49488, Note_on_c, 39
1, 49488, Note_on_c, 39
1, 49489, Note_off_c, 42
1, 49489, Note_on_c, 65
1, 49489, Note_on_c, 63
1, 49492, Note_on_c, 68
1, 49499, Note_off_c, 63
1, 49513, Note_off_c, 65
1, 49516, Note_off_c, 68
1, 49532, Note_off_c, 77
1, 49532, Note_off_c, 80
1, 49532, Note_off_c, 65
1, 49532, Note_off_c, 61
1, 49532, Note_off_c, 56
1, 49536, Note_on_c, 42
1, 49536, Note_on_c, 36
1, 49536, Note_on_c, 63
1, 49536, Note_on_c, 58
1, 49536, Note_on_c, 66
1, 49536, Note_on_c, 78
1, 49536, Note_on_c, 82
1, 49536, Note_on_c, 63
1, 49537, Note_off_c, 36
1, 49537, Note_off_c, 42
1, 49537, Note_on_c, 75
1, 49538, Note_off_c, 73
1, 49539, Note_off_c, 70
1, 49580, Note_off_c, 39
1, 49582, Note_off_c, 27
1, 49582, Note_off_c, 39
1, 49582, Note_off_c, 39
1, 49582, Note_on_c, 42
1, 49584, Note_on_c, 61
1, 49584, Note_on_c, 42
1, 49584, Note_on_c, 30
1, 49584, Note_on_c, 42
1, 49584, Note_on_c, 42
1, 49585, Note_off_c, 42
1, 49585, Note_on_c, 63
1, 49589, Note_on_c, 66
1, 49594, Note_off_c, 61
1, 49601, Note_off_c, 63
1, 49604, Note_off_c, 66
1, 49628, Note_off_c, 42
1, 49630, Note_off_c, 30
1, 49630, Note_off_c, 42
1, 49630, Note_off_c, 42
1, 49630, Note_on_c, 46
1, 49632, Note_on_c, 65
1, 49632, Note_on_c, 63
1, 49632, Note_on_c, 42
1, 49632, Note_on_c, 38
1, 49632, Note_on_c, 34
1, 49632, Note_on_c, 46
1, 49632, Note_on_c, 46
1, 49633, Note_off_c, 38
1, 49633, Note_off_c, 42
1, 49636, Note_on_c, 68
1, 49644, Note_off_c, 63
1, 49653, Note_off_c, 65
1, 49661, Note_off_c, 68
1, 49676, Note_off_c, 46
1, 49678, Note_off_c, 46
1, 49678, Note_off_c, 46
1, 49678, Note_off_c, 34
1, 49678, Note_on_c, 54
1, 49680, Note_on_c, 42
1, 49680, Note_on_c, 42
1, 49680, Note_on_c, 54
1, 49680, Note_on_c, 54
1, 49681, Note_off_c, 42
1, 49724, Note_off_c, 54
1, 49726, Note_off_c, 42
1, 49726, Note_off_c, 54
1, 49726, Note_off_c, 54
1, 49726, Note_on_c, 51
1, 49727, Note_on_c, 63
1, 49727, Note_on_c, 61
1, 49728, Note_on_c, 42
1, 49728, Note_on_c, 36
1, 49728, Note_on_c, 39
1, 49728, Note_on_c, 51
1, 49728, Note_on_c, 51
1, 49729, Note_off_c, 36
1, 49729, Note_off_c, 42
1, 49730, Note_on_c, 66
1, 49768, Note_off_c, 61
1, 49772, Note_off_c, 66
1, 49775, Note_off_c, 63
1, 49776, Note_on_c, 42
1, 49777, Note_off_c, 42
1, 49777, Note_on_c, 63
1, 49779, Note_on_c, 68
1, 49779, Note_on_c, 65
1, 49784, Note_off_c, 63
1, 49791, Note_off_c, 68
1, 49792, Note_off_c, 65
1, 49824, Note_on_c, 42
1, 49824, Note_on_c, 38
1, 49825, Note_off_c, 38
1, 49825, Note_off_c, 42
1, 49825, Note_on_c, 39
1, 49826, Note_off_c, 39
1, 49831, Note_on_c, 39
1, 49832, Note_off_c, 39
1, 49867, Note_off_c, 51
1, 49869, Note_off_c, 51
1, 49869, Note_off_c, 51
1, 49869, Note_off_c, 39
1, 49869, Note_on_c, 51
1, 49871, Note_on_c, 39
1, 49871, Note_on_c, 51
1, 49871, Note_on_c, 51
1, 49872, Note_on_c, 42
1, 49873, Note_off_c, 42
1, 49873, Note_on_c, 63
1, 49874, Note_on_c, 65
1, 49875, Note_on_c, 68
1, 49883, Note_off_c, 63
1, 49891, Note_off_c, 65
1, 49902, Note_off_c, 68
1, 49911, Note_off_c, 63
1, 49914, Note_on_c, 70
1, 49915, Note_off_c, 75
1, 49916, Note_off_c, 82
1, 49916, Note_off_c, 58
1, 49916, Note_off_c, 78
1, 49916, Note_off_c, 63
1, 49916, Note_off_c, 66
1, 49916, Note_on_c, 73
1, 49920, Note_on_c, 42
1, 49920, Note_on_c, 36
1, 49920, Note_on_c, 56
1, 49920, Note_on_c, 65
1, 49920, Note_on_c, 61
1, 49920, Note_on_c, 80
1, 49920, Note_on_c, 77
1, 49921, Note_off_c, 36
1, 49921, Note_off_c, 42
1, 49964, Note_off_c, 51
1, 49966, Note_off_c, 51
1, 49966, Note_off_c, 39
1, 49966, Note_off_c, 51
1, 49966, Note_on_c, 51
1, 49968, Note_on_c, 63
1, 49968, Note_on_c, 61
1, 49968, Note_on_c, 42
1, 49968, Note_on_c, 39
1, 49968, Note_on_c, 51
1, 49968, Note_on_c, 51
1, 49969, Note_off_c, 42
1, 49969, Note_on_c, 66
1, 49978, Note_off_c, 61
1, 49983, Note_off_c, 63
1, 49988, Note_off_c, 66
1, 50008, Note_off_c, 51
1, 50010, Note_off_c, 39
1, 50010, Note_off_c, 51
1, 50010, Note_off_c, 51
1, 50014, Note_on_c, 49
1, 50016, Note_on_c, 65
1, 50016, Note_on_c, 63
1, 50016, Note_on_c, 42
1, 50016, Note_on_c, 38
1, 50016, Note_on_c, 36
1, 50016, Note_on_c, 37
1, 50016, Note_on_c, 49
1, 50016, Note_on_c, 49
1, 50017, Note_off_c, 36
1, 50017, Note_off_c, 38
1, 50017, Note_off_c, 42
1, 50017, Note_on_c, 68
1, 50023, Note_off_c, 63
1, 50034, Note_off_c, 65
1, 50040, Note_off_c, 68
1, 50054, Note_off_c, 49
1, 50054, Note_off_c, 37
1, 50055, Note_off_c, 49
1, 50057, Note_off_c, 49
1, 50064, Note_on_c, 42
1, 50065, Note_off_c, 42
1, 50110, Note_on_c, 63
1, 50111, Note_on_c, 61
1, 50112, Note_on_c, 42
1, 50113, Note_off_c, 42
1, 50113, Note_on_c, 66
1, 50128, Note_off_c, 63
1, 50131, Note_off_c, 61
1, 50140, Note_off_c, 66
1, 50160, Note_on_c, 42
1, 50160, Note_on_c, 36
1, 50161, Note_off_c, 36
1, 50161, Note_off_c, 42
1, 50208, Note_on_c, 65
1, 50208, Note_on_c, 63
1, 50208, Note_on_c, 42
1, 50208, Note_on_c, 38
1, 50209, Note_off_c, 38
1, 50209, Note_off_c, 42
1, 50209, Note_on_c, 39
1, 50210, Note_off_c, 39
1, 50210, Note_on_c, 68
1, 50215, Note_on_c, 39
1, 50216, Note_off_c, 39
1, 50221, Note_off_c, 63
1, 50230, Note_off_c, 65
1, 50251, Note_off_c, 68
1, 50254, Note_on_c, 39
1, 50256, Note_on_c, 55
1, 50256, Note_on_c, 36
1, 50256, Note_on_c, 27
1, 50256, Note_on_c, 39
1, 50256, Note_on_c, 39
1, 50257, Note_off_c, 36
1, 50257, Note_off_c, 55
1, 50273, Note_off_c, 70
1, 50278, Note_off_c, 73
1, 50299, Note_on_c, 70
1, 50300, Note_off_c, 80
1, 50300, Note_off_c, 61
1, 50300, Note_off_c, 65
1, 50300, Note_off_c, 56
1, 50300, Note_off_c, 77
1, 50303, Note_on_c, 70
1, 50304, Note_on_c, 70
1, 50304, Note_on_c, 49
1, 50304, Note_on_c, 36
1, 50304, Note_on_c, 63
1, 50304, Note_on_c, 58
1, 50304, Note_on_c, 66
1, 50304, Note_on_c, 82
1, 50304, Note_on_c, 78
1, 50304, Note_on_c, 66
1, 50305, Note_off_c, 36
1, 50305, Note_off_c, 49
1, 50306, Note_on_c, 70
1, 50337, Note_off_c, 70
1, 50339, Note_off_c, 70
1, 50343, Note_off_c, 70
1, 50349, Note_off_c, 39
1, 50350, Note_on_c, 42
1, 50351, Note_off_c, 39
1, 50351, Note_off_c, 27
1, 50351, Note_off_c, 39
1, 50352, Note_on_c, 42
1, 50352, Note_on_c, 30
1, 50352, Note_on_c, 42
1, 50352, Note_on_c, 42
1, 50353, Note_off_c, 42
1, 50353, Note_on_c, 70
1, 50353, Note_on_c, 70
1, 50357, Note_on_c, 70
1, 50397, Note_off_c, 42
1, 50398, Note_on_c, 46
1, 50399, Note_off_c, 30
1, 50399, Note_off_c, 42
1, 50399, Note_off_c, 42
1, 50400, Note_on_c, 42
1, 50400, Note_on_c, 38
1, 50400, Note_on_c, 34
1, 50400, Note_on_c, 46
1, 50400, Note_on_c, 46
1, 50401, Note_off_c, 38
1, 50401, Note_off_c, 42
1, 50445, Note_off_c, 46
1, 50446, Note_on_c, 54
1, 50447, Note_off_c, 46
1, 50447, Note_off_c, 46
1, 50447, Note_off_c, 34
1, 50448, Note_on_c, 42
1, 50448, Note_on_c, 42
1, 50448, Note_on_c, 54
1, 50448, Note_on_c, 54
1, 50449, Note_off_c, 42
1, 50469, Note_off_c, 70
1, 50478, Note_off_c, 70
1, 50480, Note_off_c, 70
1, 50493, Note_off_c, 54
1, 50494, Note_on_c, 51
1, 50495, Note_off_c, 42
1, 50495, Note_off_c, 54
1, 50495, Note_off_c, 54
1, 50496, Note_on_c, 66
1, 50496, Note_on_c, 63
1, 50496, Note_on_c, 42
1, 50496, Note_on_c, 36
1, 50496, Note_on_c, 39
1, 50496, Note_on_c, 51
1, 50496, Note_on_c, 51
1, 50497, Note_off_c, 36
1, 50497, Note_off_c, 42
1, 50530, Note_off_c, 66
1, 50533, Note_off_c, 63
1, 50544, Note_on_c, 42
1, 50545, Note_off_c, 42
1, 50545, Note_on_c, 66
1, 50545, Note_on_c, 63
1, 50592, Note_on_c, 42
1, 50592, Note_on_c, 38
1, 50593, Note_off_c, 38
1, 50593, Note_off_c, 42
1, 50593, Note_on_c, 39
1, 50594, Note_off_c, 39
1, 50599, Note_on_c, 39
1, 50600, Note_off_c, 39
1, 50635, Note_off_c, 51
1, 50637, Note_off_c, 51
1, 50637, Note_off_c, 51
1, 50637, Note_off_c, 39
1, 50637, Note_on_c, 51
1, 50639, Note_on_c, 39
1, 50639, Note_on_c, 51
1, 50639, Note_on_c, 51
1, 50640, Note_on_c, 42
1, 50641, Note_off_c, 42
1, 50652, Note_off_c, 63
1, 50659, Note_off_c, 66
1, 50676, Note_off_c, 66
1, 50679, Note_off_c, 70
1, 50682, Note_on_c, 65
1, 50684, Note_off_c, 78
1, 50684, Note_off_c, 63
1, 50684, Note_off_c, 82
1, 50684, Note_off_c, 66
1, 50684, Note_off_c, 58
1, 50687, Note_on_c, 70
1, 50687, Note_on_c, 70
1, 50688, Note_on_c, 42
1, 50688, Note_on_c, 36
1, 50688, Note_on_c, 56
1, 50688, Note_on_c, 65
1, 50688, Note_on_c, 61
1, 50688, Note_on_c, 80
1, 50688, Note_on_c, 77
1, 50688, Note_on_c, 68
1, 50689, Note_off_c, 36
1, 50689, Note_off_c, 42
1, 50689, Note_on_c, 70
1, 50715, Note_off_c, 70
1, 50722, Note_off_c, 70
1, 50728, Note_off_c, 51
1, 50730, Note_off_c, 51
1, 50732, Note_off_c, 70
1, 50733, Note_off_c, 39
1, 50733, Note_off_c, 51
1, 50734, Note_on_c, 51
1, 50735, Note_on_c, 70
1, 50736, Note_on_c, 42
1, 50736, Note_on_c, 39
1, 50736, Note_on_c, 51
1, 50736, Note_on_c, 51
1, 50737, Note_off_c, 42
1, 50737, Note_on_c, 70
1, 50738, Note_on_c, 70
1, 50779, Note_off_c, 51
1, 50781, Note_off_c, 39
1, 50781, Note_off_c, 51
1, 50781, Note_off_c, 51
1, 50782, Note_on_c, 49
1, 50784, Note_on_c, 42
1, 50784, Note_on_c, 38
1, 50784, Note_on_c, 36
1, 50784, Note_on_c, 37
1, 50784, Note_on_c, 49
1, 50784, Note_on_c, 49
1, 50785, Note_off_c, 36
1, 50785, Note_off_c, 38
1, 50785, Note_off_c, 42
1, 50820, Note_off_c, 49
1, 50822, Note_off_c, 49
1, 50822, Note_off_c, 37
1, 50822, Note_off_c, 49
1, 50832, Note_on_c, 42
1, 50833, Note_off_c, 42
1, 50842, Note_off_c, 70
1, 50843, Note_off_c, 70
1, 50846, Note_off_c, 70
1, 50876, Note_on_c, 65
1, 50878, Note_on_c, 49
1, 50879, Note_on_c, 61
1, 50880, Note_on_c, 42
1, 50880, Note_on_c, 37
1, 50880, Note_on_c, 49
1, 50880, Note_on_c, 49
1, 50881, Note_off_c, 42
1, 50915, Note_off_c, 37
1, 50915, Note_off_c, 49
1, 50917, Note_off_c, 65
1, 50918, Note_off_c, 49
1, 50919, Note_off_c, 61
1, 50920, Note_off_c, 49
1, 50927, Note_on_c, 65
1, 50928, Note_on_c, 42
1, 50928, Note_on_c, 36
1, 50929, Note_off_c, 36
1, 50929, Note_off_c, 42
1, 50929, Note_on_c, 61
1, 50976, Note_on_c, 42
1, 50976, Note_on_c, 38
1, 50977, Note_off_c, 38
1, 50977, Note_off_c, 42
1, 50977, Note_on_c, 39
1, 50978, Note_off_c, 39
1, 50983, Note_on_c, 39
1, 50984, Note_off_c, 39
1, 51001, Note_off_c, 65
1, 51002, Note_off_c, 61
1, 51022, Note_on_c, 39
1, 51024, Note_on_c, 66
1, 51024, Note_on_c, 42
1, 51024, Note_on_c, 27
1, 51024, Note_on_c, 39
1, 51024, Note_on_c, 39
1, 51025, Note_off_c, 42
1, 51025, Note_on_c, 63
1, 51028, Note_on_c, 70
1, 51068, Note_off_c, 68
1, 51068, Note_off_c, 77
1, 51068, Note_off_c, 65
1, 51068, Note_off_c, 80
1, 51068, Note_off_c, 56
1, 51068, Note_off_c, 61
1, 51072, Note_on_c, 42
1, 51072, Note_on_c, 36
1, 51072, Note_on_c, 63
1, 51072, Note_on_c, 58
1, 51072, Note_on_c, 66
1, 51072, Note_on_c, 82
1, 51072, Note_on_c, 78
1, 51073, Note_off_c, 36
1, 51073, Note_off_c, 42
1, 51073, Note_on_c, 70
1, 51074, Note_on_c, 66
1, 51075, Note_off_c, 65
1, 51091, Note_off_c, 63
1, 51098, Note_off_c, 70
1, 51101, Note_off_c, 66
1, 51116, Note_off_c, 39
1, 51118, Note_off_c, 39
1, 51118, Note_off_c, 39
1, 51118, Note_off_c, 27
1, 51118, Note_on_c, 42
1, 51119, Note_on_c, 66
1, 51120, Note_on_c, 63
1, 51120, Note_on_c, 42
1, 51120, Note_on_c, 30
1, 51120, Note_on_c, 42
1, 51120, Note_on_c, 42
1, 51121, Note_off_c, 42
1, 51122, Note_on_c, 70
1, 51132, Note_off_c, 63
1, 51132, Note_off_c, 70
1, 51136, Note_off_c, 66
1, 51164, Note_off_c, 42
1, 51166, Note_off_c, 30
1, 51166, Note_off_c, 42
1, 51166, Note_off_c, 42
1, 51166, Note_on_c, 46
1, 51167, Note_on_c, 66
1, 51167, Note_on_c, 63
1, 51168, Note_on_c, 42
1, 51168, Note_on_c, 38
1, 51168, Note_on_c, 34
1, 51168, Note_on_c, 46
1, 51168, Note_on_c, 46
1, 51169, Note_off_c, 38
1, 51169, Note_off_c, 42
1, 51170, Note_on_c, 70
1, 51178, Note_off_c, 63
1, 51181, Note_off_c, 70
1, 51184, Note_off_c, 66
1, 51212, Note_off_c, 46
1, 51214, Note_off_c, 46
1, 51214, Note_off_c, 46
1, 51214, Note_off_c, 34
1, 51214, Note_on_c, 54
1, 51215, Note_on_c, 63
1, 51216, Note_on_c, 66
1, 51216, Note_on_c, 42
1, 51216, Note_on_c, 42
1, 51216, Note_on_c, 54
1, 51216, Note_on_c, 54
1, 51217, Note_off_c, 42
1, 51218, Note_on_c, 70
1, 51231, Note_off_c, 63
1, 51234, Note_off_c, 66
1, 51234, Note_off_c, 70
1, 51260, Note_off_c, 54
1, 51262, Note_off_c, 42
1, 51262, Note_off_c, 54
1, 51262, Note_off_c, 54
1, 51262, Note_on_c, 51
1, 51263, Note_on_c, 70
1, 51264, Note_on_c, 66
1, 51264, Note_on_c, 42
1, 51264, Note_on_c, 36
1, 51264, Note_on_c, 39
1, 51264, Note_on_c, 51
1, 51264, Note_on_c, 51
1, 51265, Note_off_c, 36
1, 51265, Note_off_c, 42
1, 51265, Note_on_c, 73
1, 51312, Note_on_c, 42
1, 51313, Note_off_c, 42
1, 51342, Note_off_c, 70
1, 51346, Note_off_c, 66
1, 51348, Note_off_c, 73
1, 51359, Note_on_c, 66
1, 51359, Note_on_c, 63
1, 51360, Note_on_c, 42
1, 51360, Note_on_c, 38
1, 51361, Note_off_c, 38
1, 51361, Note_off_c, 42
1, 51361, Note_on_c, 39
1, 51362, Note_off_c, 39
1, 51362, Note_on_c, 70
1, 51367, Note_on_c, 39
1, 51368, Note_off_c, 39
1, 51374, Note_off_c, 63
1, 51374, Note_off_c, 70
1, 51375, Note_off_c, 66
1, 51403, Note_off_c, 51
1, 51405, Note_off_c, 51
1, 51405, Note_off_c, 51
1, 51405, Note_off_c, 39
1, 51405, Note_on_c, 51
1, 51407, Note_on_c, 39
1, 51407, Note_on_c, 51
1, 51407, Note_on_c, 51
1, 51408, Note_on_c, 68
1, 51408, Note_on_c, 65
1, 51408, Note_on_c, 42
1, 51409, Note_off_c, 42
1, 51413, Note_on_c, 73
1, 51451, Note_off_c, 70
1, 51452, Note_off_c, 78
1, 51452, Note_off_c, 82
1, 51452, Note_off_c, 66
1, 51452, Note_off_c, 58
1, 51452, Note_off_c, 63
1, 51453, Note_off_c, 66
1, 51456, Note_on_c, 42
1, 51456, Note_on_c, 36
1, 51456, Note_on_c, 56
1, 51456, Note_on_c, 65
1, 51456, Note_on_c, 61
1, 51456, Note_on_c, 80
1, 51456, Note_on_c, 77
1, 51457, Note_off_c, 36
1, 51457, Note_off_c, 42
1, 51461, Note_on_c, 68
1, 51464, Note_on_c, 65
1, 51491, Note_off_c, 68
1, 51494, Note_off_c, 65
1, 51496, Note_off_c, 73
1, 51500, Note_off_c, 51
1, 51502, Note_off_c, 51
1, 51502, Note_off_c, 51
1, 51502, Note_off_c, 39
1, 51502, Note_on_c, 51
1, 51503, Note_on_c, 65
1, 51504, Note_on_c, 61
1, 51504, Note_on_c, 42
1, 51504, Note_on_c, 39
1, 51504, Note_on_c, 51
1, 51504, Note_on_c, 51
1, 51505, Note_off_c, 42
1, 51506, Note_on_c, 70
1, 51516, Note_off_c, 61
1, 51517, Note_off_c, 70
1, 51523, Note_off_c, 65
1, 51544, Note_off_c, 51
1, 51546, Note_off_c, 39
1, 51546, Note_off_c, 51
1, 51546, Note_off_c, 51
1, 51550, Note_on_c, 49
1, 51552, Note_on_c, 42
1, 51552, Note_on_c, 38
1, 51552, Note_on_c, 36
1, 51552, Note_on_c, 37
1, 51552, Note_on_c, 49
1, 51552, Note_on_c, 49
1, 51553, Note_off_c, 36
1, 51553, Note_off_c, 38
1, 51553, Note_off_c, 42
1, 51590, Note_off_c, 49
1, 51590, Note_off_c, 37
1, 51591, Note_off_c, 49
1, 51593, Note_off_c, 49
1, 51600, Note_on_c, 42
1, 51601, Note_off_c, 42
1, 51648, Note_on_c, 42
1, 51649, Note_off_c, 42
1, 51696, Note_on_c, 42
1, 51696, Note_on_c, 36
1, 51697, Note_off_c, 36
1, 51697, Note_off_c, 42
1, 51744, Note_on_c, 42
1, 51744, Note_on_c, 38
1, 51745, Note_off_c, 38
1, 51745, Note_off_c, 42
1, 51745, Note_on_c, 39
1, 51746, Note_off_c, 39
1, 51751, Note_on_c, 39
1, 51752, Note_off_c, 39
1, 51790, Note_on_c, 39
1, 51792, Note_on_c, 65
1, 51792, Note_on_c, 63
1, 51792, Note_on_c, 42
1, 51792, Note_on_c, 36
1, 51792, Note_on_c, 27
1, 51792, Note_on_c, 39
1, 51792, Note_on_c, 39
1, 51793, Note_off_c, 36
1, 51793, Note_off_c, 42
1, 51794, Note_on_c, 68
1, 51802, Note_off_c, 63
1, 51811, Note_off_c, 65
1, 51818, Note_off_c, 68
1, 51821, Note_off_c, 68
1, 51826, Note_off_c, 65
1, 51836, Note_off_c, 56
1, 51836, Note_off_c, 77
1, 51836, Note_off_c, 80
1, 51836, Note_off_c, 61
1, 51836, Note_off_c, 65
1, 51840, Note_on_c, 42
1, 51840, Note_on_c, 36
1, 51840, Note_on_c, 63
1, 51840, Note_on_c, 58
1, 51840, Note_on_c, 66
1, 51840, Note_on_c, 82
1, 51840, Note_on_c, 78
1, 51841, Note_off_c, 36
1, 51841, Note_off_c, 42
1, 51845, Note_on_c, 70
1, 51847, Note_on_c, 66
1, 51885, Note_off_c, 39
1, 51886, Note_on_c, 42
1, 51887, Note_off_c, 27
1, 51887, Note_off_c, 39
1, 51887, Note_off_c, 39
1, 51888, Note_on_c, 61
1, 51888, Note_on_c, 42
1, 51888, Note_on_c, 30
1, 51888, Note_on_c, 42
1, 51888, Note_on_c, 42
1, 51889, Note_off_c, 42
1, 51889, Note_on_c, 63
1, 51892, Note_on_c, 66
1, 51898, Note_off_c, 61
1, 51902, Note_off_c, 63
1, 51905, Note_off_c, 66
1, 51933, Note_off_c, 42
1, 51934, Note_on_c, 46
1, 51935, Note_off_c, 30
1, 51935, Note_off_c, 42
1, 51935, Note_off_c, 42
1, 51936, Note_on_c, 63
1, 51936, Note_on_c, 42
1, 51936, Note_on_c, 38
1, 51936, Note_on_c, 34
1, 51936, Note_on_c, 46
1, 51936, Note_on_c, 46
1, 51937, Note_off_c, 38
1, 51937, Note_off_c, 42
1, 51937, Note_on_c, 65
1, 51940, Note_on_c, 68
1, 51947, Note_off_c, 63
1, 51953, Note_off_c, 65
1, 51961, Note_off_c, 68
1, 51981, Note_off_c, 46
1, 51982, Note_on_c, 54
1, 51983, Note_off_c, 46
1, 51983, Note_off_c, 46
1, 51983, Note_off_c, 34
1, 51984, Note_on_c, 42
1, 51984, Note_on_c, 42
1, 51984, Note_on_c, 54
1, 51984, Note_on_c, 54
1, 51985, Note_off_c, 42
1, 52029, Note_off_c, 54
1, 52029, Note_on_c, 63
1, 52030, Note_on_c, 51
1, 52031, Note_off_c, 42
1, 52031, Note_off_c, 54
1, 52031, Note_off_c, 54
1, 52032, Note_on_c, 61
1, 52032, Note_on_c, 42
1, 52032, Note_on_c, 36
1, 52032, Note_on_c, 39
1, 52032, Note_on_c, 51
1, 52032, Note_on_c, 51
1, 52033, Note_off_c, 36
1, 52033, Note_off_c, 42
1, 52034, Note_on_c, 66
1, 52071, Note_off_c, 63
1, 52074, Note_off_c, 66
1, 52075, Note_off_c, 61
1, 52080, Note_on_c, 65
1, 52080, Note_on_c, 42
1, 52081, Note_off_c, 42
1, 52081, Note_on_c, 63
1, 52084, Note_on_c, 68
1, 52090, Note_off_c, 63
1, 52092, Note_off_c, 65
1, 52095, Note_off_c, 68
1, 52128, Note_on_c, 42
1, 52128, Note_on_c, 38
1, 52129, Note_off_c, 38
1, 52129, Note_off_c, 42
1, 52129, Note_on_c, 39
1, 52130, Note_off_c, 39
1, 52135, Note_on_c, 39
1, 52136, Note_off_c, 39
1, 52171, Note_off_c, 51
1, 52173, Note_off_c, 51
1, 52173, Note_off_c, 51
1, 52173, Note_off_c, 39
1, 52173, Note_on_c, 51
1, 52174, Note_on_c, 65
1, 52175, Note_on_c, 39
1, 52175, Note_on_c, 51
1, 52175, Note_on_c, 51
1, 52176, Note_on_c, 63
1, 52176, Note_on_c, 42
1, 52177, Note_off_c, 42
1, 52179, Note_on_c, 68
1, 52187, Note_off_c, 63
1, 52193, Note_off_c, 65
1, 52202, Note_off_c, 68
1, 52210, Note_off_c, 70
1, 52216, Note_off_c, 66
1, 52220, Note_off_c, 63
1, 52220, Note_off_c, 78
1, 52220, Note_off_c, 82
1, 52220, Note_off_c, 58
1, 52220, Note_off_c, 66
1, 52224, Note_on_c, 42
1, 52224, Note_on_c, 36
1, 52224, Note_on_c, 56
1, 52224, Note_on_c, 65
1, 52224, Note_on_c, 61
1, 52224, Note_on_c, 80
1, 52224, Note_on_c, 77
1, 52225, Note_off_c, 36
1, 52225, Note_off_c, 42
1, 52230, Note_on_c, 70
1, 52234, Note_on_c, 73
1, 52264, Note_off_c, 51
1, 52266, Note_off_c, 51
1, 52269, Note_off_c, 51
1, 52269, Note_off_c, 39
1, 52270, Note_on_c, 51
1, 52271, Note_on_c, 63
1, 52272, Note_on_c, 61
1, 52272, Note_on_c, 42
1, 52272, Note_on_c, 39
1, 52272, Note_on_c, 51
1, 52272, Note_on_c, 51
1, 52273, Note_off_c, 42
1, 52275, Note_on_c, 66
1, 52284, Note_off_c, 61
1, 52287, Note_off_c, 63
1, 52297, Note_off_c, 66
1, 52315, Note_off_c, 51
1, 52317, Note_off_c, 39
1, 52317, Note_off_c, 51
1, 52317, Note_off_c, 51
1, 52318, Note_on_c, 65
1, 52318, Note_on_c, 49
1, 52320, Note_on_c, 63
1, 52320, Note_on_c, 42
1, 52320, Note_on_c, 38
1, 52320, Note_on_c, 36
1, 52320, Note_on_c, 37
1, 52320, Note_on_c, 49
1, 52320, Note_on_c, 49
1, 52321, Note_off_c, 36
1, 52321, Note_off_c, 38
1, 52321, Note_off_c, 42
1, 52322, Note_on_c, 68
1, 52334, Note_off_c, 63
1, 52338, Note_off_c, 65
1, 52341, Note_off_c, 68
1, 52356, Note_off_c, 49
1, 52358, Note_off_c, 49
1, 52358, Note_off_c, 37
1, 52358, Note_off_c, 49
1, 52368, Note_on_c, 42
1, 52369, Note_off_c, 42
1, 52413, Note_on_c, 63
1, 52414, Note_on_c, 49
1, 52415, Note_on_c, 61
1, 52416, Note_on_c, 66
1, 52416, Note_on_c, 42
1, 52416, Note_on_c, 37
1, 52416, Note_on_c, 49
1, 52416, Note_on_c, 49
1, 52417, Note_off_c, 42
1, 52451, Note_off_c, 37
1, 52451, Note_off_c, 49
1, 52454, Note_off_c, 49
1, 52454, Note_off_c, 61
1, 52456, Note_off_c, 49
1, 52459, Note_off_c, 66
1, 52463, Note_off_c, 63
1, 52464, Note_on_c, 58
1, 52464, Note_on_c, 42
1, 52464, Note_on_c, 36
1, 52465, Note_off_c, 36
1, 52465, Note_off_c, 42
1, 52465, Note_on_c, 58
1, 52466, Note_on_c, 63
1, 52474, Note_off_c, 58
1, 52474, Note_off_c, 63
1, 52477, Note_off_c, 58
1, 52512, Note_on_c, 42
1, 52512, Note_on_c, 38
1, 52513, Note_off_c, 38
1, 52513, Note_off_c, 42
1, 52513, Note_on_c, 39
1, 52514, Note_off_c, 39
1, 52519, Note_on_c, 39
1, 52520, Note_off_c, 39
1, 52558, Note_on_c, 39
1, 52560, Note_on_c, 65
1, 52560, Note_on_c, 63
1, 52560, Note_on_c, 42
1, 52560, Note_on_c, 27
1, 52560, Note_on_c, 39
1, 52560, Note_on_c, 39
1, 52561, Note_off_c, 42
1, 52563, Note_on_c, 68
1, 52570, Note_off_c, 63
1, 52578, Note_off_c, 65
1, 52587, Note_off_c, 68
1, 52589, Note_off_c, 73
1, 52604, Note_off_c, 56
1, 52604, Note_off_c, 77
1, 52604, Note_off_c, 80
1, 52604, Note_off_c, 61
1, 52604, Note_off_c, 65
1, 52608, Note_on_c, 42
1, 52608, Note_on_c, 36
1, 52608, Note_on_c, 63
1, 52608, Note_on_c, 58
1, 52608, Note_on_c, 66
1, 52608, Note_on_c, 78
1, 52608, Note_on_c, 82
1, 52609, Note_off_c, 36
1, 52609, Note_off_c, 42
1, 52609, Note_on_c, 75
1, 52652, Note_off_c, 39
1, 52654, Note_off_c, 39
1, 52654, Note_off_c, 27
1, 52654, Note_off_c, 39
1, 52654, Note_on_c, 42
1, 52656, Note_on_c, 61
1, 52656, Note_on_c, 42
1, 52656, Note_on_c, 30
1, 52656, Note_on_c, 42
1, 52656, Note_on_c, 42
1, 52657, Note_off_c, 42
1, 52657, Note_on_c, 63
1, 52660, Note_on_c, 66
1, 52668, Note_off_c, 61
1, 52671, Note_off_c, 63
1, 52677, Note_off_c, 66
1, 52700, Note_off_c, 42
1, 52702, Note_off_c, 30
1, 52702, Note_off_c, 42
1, 52702, Note_off_c, 42
1, 52702, Note_on_c, 46
1, 52703, Note_on_c, 65
1, 52704, Note_on_c, 42
1, 52704, Note_on_c, 38
1, 52704, Note_on_c, 34
1, 52704, Note_on_c, 46
1, 52704, Note_on_c, 46
1, 52705, Note_off_c, 38
1, 52705, Note_off_c, 42
1, 52705, Note_on_c, 63
1, 52709, Note_on_c, 68
1, 52718, Note_off_c, 63
1, 52720, Note_off_c, 65
1, 52733, Note_off_c, 68
1, 52748, Note_off_c, 46
1, 52750, Note_off_c, 46
1, 52750, Note_off_c, 46
1, 52750, Note_off_c, 34
1, 52750, Note_on_c, 54
1, 52752, Note_on_c, 42
1, 52752, Note_on_c, 42
1, 52752, Note_on_c, 54
1, 52752, Note_on_c, 54
1, 52753, Note_off_c, 42
1, 52796, Note_off_c, 54
1, 52798, Note_off_c, 42
1, 52798, Note_off_c, 54
1, 52798, Note_off_c, 54
1, 52798, Note_on_c, 51
1, 52799, Note_on_c, 63
1, 52800, Note_on_c, 61
1, 52800, Note_on_c, 42
1, 52800, Note_on_c, 36
1, 52800, Note_on_c, 39
1, 52800, Note_on_c, 51
1, 52800, Note_on_c, 51
1, 52801, Note_off_c, 36
1, 52801, Note_off_c, 42
1, 52802, Note_on_c, 66
1, 52836, Note_off_c, 63
1, 52842, Note_off_c, 66
1, 52846, Note_off_c, 61
1, 52848, Note_on_c, 65
1, 52848, Note_on_c, 42
1, 52849, Note_off_c, 42
1, 52849, Note_on_c, 63
1, 52852, Note_on_c, 68
1, 52857, Note_off_c, 63
1, 52859, Note_off_c, 65
1, 52866, Note_off_c, 68
1, 52896, Note_on_c, 42
1, 52896, Note_on_c, 38
1, 52897, Note_off_c, 38
1, 52897, Note_off_c, 42
1, 52897, Note_on_c, 39
1, 52898, Note_off_c, 39
1, 52903, Note_on_c, 39
1, 52904, Note_off_c, 39
1, 52939, Note_off_c, 51
1, 52941, Note_off_c, 51
1, 52941, Note_off_c, 51
1, 52941, Note_off_c, 39
1, 52941, Note_on_c, 51
1, 52943, Note_on_c, 65
1, 52943, Note_on_c, 39
1, 52943, Note_on_c, 51
1, 52943, Note_on_c, 51
1, 52944, Note_on_c, 42
1, 52945, Note_off_c, 42
1, 52945, Note_on_c, 63
1, 52947, Note_on_c, 68
1, 52954, Note_off_c, 63
1, 52959, Note_off_c, 65
1, 52969, Note_off_c, 68
1, 52970, Note_off_c, 75
1, 52988, Note_off_c, 82
1, 52988, Note_off_c, 78
1, 52988, Note_off_c, 66
1, 52988, Note_off_c, 58
1, 52988, Note_off_c, 63
1, 52989, Note_on_c, 73
1, 52992, Note_on_c, 42
1, 52992, Note_on_c, 36
1, 52992, Note_on_c, 56
1, 52992, Note_on_c, 65
1, 52992, Note_on_c, 61
1, 52992, Note_on_c, 80
1, 52992, Note_on_c, 77
1, 52993, Note_off_c, 36
1, 52993, Note_off_c, 42
1, 53036, Note_off_c, 51
1, 53038, Note_off_c, 51
1, 53038, Note_off_c, 51
1, 53038, Note_off_c, 39
1, 53038, Note_on_c, 51
1, 53039, Note_on_c, 63
1, 53040, Note_on_c, 61
1, 53040, Note_on_c, 42
1, 53040, Note_on_c, 39
1, 53040, Note_on_c, 51
1, 53040, Note_on_c, 51
1, 53041, Note_off_c, 42
1, 53042, Note_on_c, 66
1, 53046, Note_off_c, 61
1, 53053, Note_off_c, 63
1, 53063, Note_off_c, 66
1, 53080, Note_off_c, 51
1, 53082, Note_off_c, 39
1, 53082, Note_off_c, 51
1, 53082, Note_off_c, 51
1, 53086, Note_on_c, 49
1, 53087, Note_on_c, 65
1, 53088, Note_on_c, 63
1, 53088, Note_on_c, 42
1, 53088, Note_on_c, 38
1, 53088, Note_on_c, 36
1, 53088, Note_on_c, 37
1, 53088, Note_on_c, 49
1, 53088, Note_on_c, 49
1, 53089, Note_off_c, 36
1, 53089, Note_off_c, 38
1, 53089, Note_off_c, 42
1, 53091, Note_on_c, 68
1, 53099, Note_off_c, 63
1, 53104, Note_off_c, 65
1, 53113, Note_off_c, 68
1, 53126, Note_off_c, 49
1, 53126, Note_off_c, 37
1, 53127, Note_off_c, 49
1, 53129, Note_off_c, 49
1, 53136, Note_on_c, 42
1, 53137, Note_off_c, 42
1, 53182, Note_on_c, 63
1, 53183, Note_on_c, 61
1, 53184, Note_on_c, 42
1, 53185, Note_off_c, 42
1, 53185, Note_on_c, 66
1, 53198, Note_off_c, 63
1, 53199, Note_off_c, 61
1, 53208, Note_off_c, 66
1, 53232, Note_on_c, 42
1, 53232, Note_on_c, 36
1, 53233, Note_off_c, 36
1, 53233, Note_off_c, 42
1, 53279, Note_on_c, 65
1, 53280, Note_on_c, 63
1, 53280, Note_on_c, 42
1, 53280, Note_on_c, 38
1, 53281, Note_off_c, 38
1, 53281, Note_off_c, 42
1, 53281, Note_on_c, 39
1, 53282, Note_off_c, 39
1, 53282, Note_on_c, 68
1, 53287, Note_on_c, 39
1, 53288, Note_off_c, 39
1, 53292, Note_off_c, 63
1, 53300, Note_off_c, 65
1, 53325, Note_off_c, 68
1, 53326, Note_on_c, 39
1, 53328, Note_on_c, 42
1, 53328, Note_on_c, 27
1, 53328, Note_on_c, 39
1, 53328, Note_on_c, 39
1, 53329, Note_off_c, 42
1, 53342, Note_off_c, 73
1, 53343, Note_off_c, 70
1, 53367, Note_on_c, 70
1, 53370, Note_on_c, 66
1, 53372, Note_off_c, 80
1, 53372, Note_off_c, 65
1, 53372, Note_off_c, 61
1, 53372, Note_off_c, 56
1, 53372, Note_off_c, 77
1, 53375, Note_on_c, 70
1, 53376, Note_on_c, 70
1, 53376, Note_on_c, 42
1, 53376, Note_on_c, 36
1, 53376, Note_on_c, 63
1, 53376, Note_on_c, 58
1, 53376, Note_on_c, 66
1, 53376, Note_on_c, 78
1, 53376, Note_on_c, 82
1, 53377, Note_off_c, 36
1, 53377, Note_off_c, 42
1, 53378, Note_on_c, 70
1, 53411, Note_off_c, 70
1, 53411, Note_off_c, 70
1, 53413, Note_off_c, 70
1, 53421, Note_off_c, 39
1, 53422, Note_on_c, 42
1, 53423, Note_off_c, 39
1, 53423, Note_off_c, 39
1, 53423, Note_off_c, 27
1, 53424, Note_on_c, 42
1, 53424, Note_on_c, 30
1, 53424, Note_on_c, 42
1, 53424, Note_on_c, 42
1, 53425, Note_off_c, 42
1, 53425, Note_on_c, 70
1, 53425, Note_on_c, 70
1, 53428, Note_on_c, 70
1, 53469, Note_off_c, 42
1, 53470, Note_on_c, 46
1, 53471, Note_off_c, 30
1, 53471, Note_off_c, 42
1, 53471, Note_off_c, 42
1, 53472, Note_on_c, 42
1, 53472, Note_on_c, 38
1, 53472, Note_on_c, 34
1, 53472, Note_on_c, 46
1, 53472, Note_on_c, 46
1, 53473, Note_off_c, 38
1, 53473, Note_off_c, 42
1, 53517, Note_off_c, 46
1, 53518, Note_on_c, 54
1, 53519, Note_off_c, 46
1, 53519, Note_off_c, 46
1, 53519, Note_off_c, 34
1, 53520, Note_on_c, 42
1, 53520, Note_on_c, 42
1, 53520, Note_on_c, 54
1, 53520, Note_on_c, 54
1, 53521, Note_off_c, 42
1, 53538, Note_off_c, 70
1, 53548, Note_off_c, 70
1, 53549, Note_off_c, 70
1, 53565, Note_off_c, 54
1, 53566, Note_on_c, 51
1, 53567, Note_off_c, 42
1, 53567, Note_off_c, 54
1, 53567, Note_off_c, 54
1, 53567, Note_on_c, 66
1, 53568, Note_on_c, 63
1, 53568, Note_on_c, 42
1, 53568, Note_on_c, 36
1, 53568, Note_on_c, 39
1, 53568, Note_on_c, 51
1, 53568, Note_on_c, 51
1, 53569, Note_off_c, 36
1, 53569, Note_off_c, 42
1, 53600, Note_off_c, 66
1, 53607, Note_off_c, 63
1, 53616, Note_on_c, 66
1, 53616, Note_on_c, 42
1, 53617, Note_off_c, 42
1, 53617, Note_on_c, 63
1, 53664, Note_on_c, 42
1, 53664, Note_on_c, 38
1, 53665, Note_off_c, 38
1, 53665, Note_off_c, 42
1, 53665, Note_on_c, 39
1, 53666, Note_off_c, 39
1, 53671, Note_on_c, 39
1, 53672, Note_off_c, 39
1, 53707, Note_off_c, 51
1, 53709, Note_off_c, 51
1, 53709, Note_off_c, 51
1, 53709, Note_off_c, 39
1, 53709, Note_on_c, 51
1, 53711, Note_on_c, 39
1, 53711, Note_on_c, 51
1, 53711, Note_on_c, 51
1, 53712, Note_on_c, 42
1, 53713, Note_off_c, 42
1, 53735, Note_off_c, 66
1, 53737, Note_off_c, 63
1, 53756, Note_off_c, 78
1, 53756, Note_off_c, 82
1, 53756, Note_off_c, 58
1, 53756, Note_off_c, 63
1, 53756, Note_off_c, 66
1, 53759, Note_on_c, 70
1, 53760, Note_on_c, 70
1, 53760, Note_on_c, 42
1, 53760, Note_on_c, 36
1, 53760, Note_on_c, 56
1, 53760, Note_on_c, 65
1, 53760, Note_on_c, 61
1, 53760, Note_on_c, 80
1, 53760, Note_on_c, 77
1, 53761, Note_off_c, 36
1, 53761, Note_off_c, 42
1, 53761, Note_off_c, 70
1, 53762, Note_on_c, 70
1, 53762, Note_on_c, 68
1, 53766, Note_off_c, 66
1, 53766, Note_on_c, 73
1, 53796, Note_off_c, 70
1, 53798, Note_off_c, 70
1, 53798, Note_off_c, 70
1, 53800, Note_off_c, 51
1, 53802, Note_off_c, 51
1, 53805, Note_off_c, 39
1, 53805, Note_off_c, 51
1, 53806, Note_on_c, 51
1, 53808, Note_on_c, 42
1, 53808, Note_on_c, 39
1, 53808, Note_on_c, 51
1, 53808, Note_on_c, 51
1, 53809, Note_off_c, 42
1, 53809, Note_on_c, 70
1, 53809, Note_on_c, 70
1, 53810, Note_on_c, 70
1, 53851, Note_off_c, 51
1, 53853, Note_off_c, 39
1, 53853, Note_off_c, 51
1, 53853, Note_off_c, 51
1, 53854, Note_on_c, 49
1, 53856, Note_on_c, 42
1, 53856, Note_on_c, 38
1, 53856, Note_on_c, 36
1, 53856, Note_on_c, 37
1, 53856, Note_on_c, 49
1, 53856, Note_on_c, 49
1, 53857, Note_off_c, 36
1, 53857, Note_off_c, 38
1, 53857, Note_off_c, 42
1, 53892, Note_off_c, 49
1, 53894, Note_off_c, 49
1, 53894, Note_off_c, 37
1, 53894, Note_off_c, 49
1, 53904, Note_on_c, 42
1, 53905, Note_off_c, 42
1, 53916, Note_off_c, 70
1, 53929, Note_off_c, 70
1, 53932, Note_off_c, 70
1, 53950, Note_on_c, 49
1, 53951, Note_on_c, 65
1, 53952, Note_on_c, 61
1, 53952, Note_on_c, 42
1, 53952, Note_on_c, 37
1, 53952, Note_on_c, 49
1, 53952, Note_on_c, 49
1, 53953, Note_off_c, 42
1, 53985, Note_off_c, 65
1, 53987, Note_off_c, 37
1, 53987, Note_off_c, 49
1, 53990, Note_off_c, 49
1, 53992, Note_off_c, 49
1, 53992, Note_off_c, 61
1, 53999, Note_on_c, 65
1, 54000, Note_on_c, 42
1, 54000, Note_on_c, 36
1, 54001, Note_off_c, 36
1, 54001, Note_off_c, 42
1, 54001, Note_on_c, 61
1, 54048, Note_on_c, 42
1, 54048, Note_on_c, 38
1, 54049, Note_off_c, 38
1, 54049, Note_off_c, 42
1, 54049, Note_on_c, 39
1, 54050, Note_off_c, 39
1, 54055, Note_on_c, 39
1, 54056, Note_off_c, 39
1, 54079, Note_off_c, 61
1, 54084, Note_off_c, 65
1, 54094, Note_on_c, 39
1, 54096, Note_on_c, 42
1, 54096, Note_on_c, 27
1, 54096, Note_on_c, 39
1, 54096, Note_on_c, 39
1, 54097, Note_off_c, 42
1, 54098, Note_on_c, 66
1, 54098, Note_on_c, 63
1, 54099, Note_on_c, 70
1, 54140, Note_off_c, 80
1, 54140, Note_off_c, 65
1, 54140, Note_off_c, 61
1, 54140, Note_off_c, 56
1, 54140, Note_off_c, 77
1, 54144, Note_on_c, 42
1, 54144, Note_on_c, 36
1, 54144, Note_on_c, 63
1, 54144, Note_on_c, 58
1, 54144, Note_on_c, 66
1, 54144, Note_on_c, 82
1, 54144, Note_on_c, 78
1, 54145, Note_off_c, 36
1, 54145, Note_off_c, 42
1, 54145, Note_off_c, 73
1, 54146, Note_on_c, 66
1, 54150, Note_on_c, 70
1, 54153, Note_off_c, 68
1, 54163, Note_off_c, 66
1, 54168, Note_off_c, 63
1, 54173, Note_off_c, 70
1, 54188, Note_off_c, 39
1, 54190, Note_off_c, 27
1, 54190, Note_off_c, 39
1, 54190, Note_off_c, 39
1, 54190, Note_on_c, 42
1, 54192, Note_on_c, 66
1, 54192, Note_on_c, 42
1, 54192, Note_on_c, 30
1, 54192, Note_on_c, 42
1, 54192, Note_on_c, 42
1, 54193, Note_off_c, 42
1, 54193, Note_on_c, 63
1, 54196, Note_on_c, 70
1, 54205, Note_off_c, 66
1, 54206, Note_off_c, 63
1, 54207, Note_off_c, 70
1, 54236, Note_off_c, 42
1, 54238, Note_off_c, 30
1, 54238, Note_off_c, 42
1, 54238, Note_off_c, 42
1, 54238, Note_on_c, 46
1, 54239, Note_on_c, 66
1, 54240, Note_on_c, 63
1, 54240, Note_on_c, 42
1, 54240, Note_on_c, 38
1, 54240, Note_on_c, 34
1, 54240, Note_on_c, 46
1, 54240, Note_on_c, 46
1, 54241, Note_off_c, 38
1, 54241, Note_off_c, 42
1, 54243, Note_on_c, 70
1, 54251, Note_off_c, 63
1, 54253, Note_off_c, 66
1, 54256, Note_off_c, 70
1, 54284, Note_off_c, 46
1, 54286, Note_off_c, 46
1, 54286, Note_off_c, 46
1, 54286, Note_off_c, 34
1, 54286, Note_on_c, 54
1, 54288, Note_on_c, 66
1, 54288, Note_on_c, 42
1, 54288, Note_on_c, 42
1, 54288, Note_on_c, 54
1, 54288, Note_on_c, 54
1, 54289, Note_off_c, 42
1, 54289, Note_on_c, 63
1, 54291, Note_on_c, 70
1, 54301, Note_off_c, 63
1, 54302, Note_off_c, 66
1, 54305, Note_off_c, 70
1, 54332, Note_off_c, 54
1, 54334, Note_off_c, 42
1, 54334, Note_off_c, 54
1, 54334, Note_off_c, 54
1, 54334, Note_on_c, 51
1, 54336, Note_on_c, 70
1, 54336, Note_on_c, 42
1, 54336, Note_on_c, 36
1, 54336, Note_on_c, 39
1, 54336, Note_on_c, 51
1, 54336, Note_on_c, 51
1, 54337, Note_off_c, 36
1, 54337, Note_off_c, 42
1, 54337, Note_on_c, 73
1, 54337, Note_on_c, 66
1, 54384, Note_on_c, 42
1, 54385, Note_off_c, 42
1, 54409, Note_off_c, 70
1, 54415, Note_off_c, 66
1, 54418, Note_off_c, 73
1, 54431, Note_on_c, 66
1, 54432, Note_on_c, 63
1, 54432, Note_on_c, 42
1, 54432, Note_on_c, 38
1, 54433, Note_off_c, 38
1, 54433, Note_off_c, 42
1, 54433, Note_on_c, 39
1, 54434, Note_off_c, 39
1, 54434, Note_on_c, 70
1, 54439, Note_on_c, 39
1, 54440, Note_off_c, 39
1, 54445, Note_off_c, 63
1, 54448, Note_off_c, 70
1, 54451, Note_off_c, 66
1, 54475, Note_off_c, 51
1, 54477, Note_off_c, 51
1, 54477, Note_off_c, 51
1, 54477, Note_off_c, 39
1, 54477, Note_on_c, 51
1, 54479, Note_on_c, 39
1, 54479, Note_on_c, 51
1, 54479, Note_on_c, 51
1, 54480, Note_on_c, 42
1, 54481, Note_off_c, 42
1, 54481, Note_on_c, 68
1, 54481, Note_on_c, 65
1, 54486, Note_on_c, 73
1, 54520, Note_off_c, 66
1, 54521, Note_off_c, 70
1, 54523, Note_on_c, 65
1, 54524, Note_off_c, 82
1, 54524, Note_off_c, 58
1, 54524, Note_off_c, 63
1, 54524, Note_off_c, 66
1, 54524, Note_off_c, 78
1, 54525, Note_on_c, 68
1, 54528, Note_on_c, 42
1, 54528, Note_on_c, 36
1, 54528, Note_on_c, 56
1, 54528, Note_on_c, 65
1, 54528, Note_on_c, 61
1, 54528, Note_on_c, 77
1, 54528, Note_on_c, 80
1, 54529, Note_off_c, 36
1, 54529, Note_off_c, 42
1, 54559, Note_off_c, 68
1, 54564, Note_off_c, 65
1, 54567, Note_off_c, 73
1, 54572, Note_off_c, 51
1, 54573, Note_on_c, 65
1, 54574, Note_off_c, 51
1, 54574, Note_off_c, 39
1, 54574, Note_off_c, 51
1, 54574, Note_on_c, 51
1, 54576, Note_on_c, 61
1, 54576, Note_on_c, 42
1, 54576, Note_on_c, 39
1, 54576, Note_on_c, 51
1, 54576, Note_on_c, 51
1, 54577, Note_off_c, 42
1, 54578, Note_on_c, 70
1, 54590, Note_off_c, 65
1, 54590, Note_off_c, 70
1, 54592, Note_off_c, 61
1, 54616, Note_off_c, 51
1, 54618, Note_off_c, 39
1, 54618, Note_off_c, 51
1, 54618, Note_off_c, 51
1, 54622, Note_on_c, 49
1, 54624, Note_on_c, 42
1, 54624, Note_on_c, 38
1, 54624, Note_on_c, 36
1, 54624, Note_on_c, 37
1, 54624, Note_on_c, 49
1, 54624, Note_on_c, 49
1, 54625, Note_off_c, 36
1, 54625, Note_off_c, 38
1, 54625, Note_off_c, 42
1, 54662, Note_off_c, 49
1, 54662, Note_off_c, 37
1, 54663, Note_off_c, 49
1, 54665, Note_off_c, 49
1, 54672, Note_on_c, 42
1, 54673, Note_off_c, 42
1, 54720, Note_on_c, 42
1, 54721, Note_off_c, 42
1, 54768, Note_on_c, 42
1, 54768, Note_on_c, 36
1, 54769, Note_off_c, 36
1, 54769, Note_off_c, 42
1, 54816, Note_on_c, 42
1, 54816, Note_on_c, 38
1, 54817, Note_off_c, 38
1, 54817, Note_off_c, 42
1, 54817, Note_on_c, 39
1, 54818, Note_off_c, 39
1, 54823, Note_on_c, 39
1, 54824, Note_off_c, 39
1, 54862, Note_on_c, 39
1, 54864, Note_on_c, 65
1, 54864, Note_on_c, 42
1, 54864, Note_on_c, 27
1, 54864, Note_on_c, 39
1, 54864, Note_on_c, 39
1, 54865, Note_off_c, 42
1, 54865, Note_on_c, 63
1, 54868, Note_on_c, 68
1, 54881, Note_off_c, 63
1, 54891, Note_off_c, 65
1, 54896, Note_off_c, 68
1, 54899, Note_off_c, 68
1, 54902, Note_off_c, 65
1, 54908, Note_off_c, 77
1, 54908, Note_off_c, 61
1, 54908, Note_off_c, 65
1, 54908, Note_off_c, 56
1, 54908, Note_off_c, 80
1, 54909, Note_on_c, 66
1, 54912, Note_on_c, 42
1, 54912, Note_on_c, 36
1, 54912, Note_on_c, 63
1, 54912, Note_on_c, 58
1, 54912, Note_on_c, 66
1, 54912, Note_on_c, 82
1, 54912, Note_on_c, 78
1, 54912, Note_on_c, 70
1, 54913, Note_off_c, 36
1, 54913, Note_off_c, 42
1, 54957, Note_off_c, 39
1, 54958, Note_on_c, 42
1, 54959, Note_off_c, 39
1, 54959, Note_off_c, 27
1, 54959, Note_off_c, 39
1, 54960, Note_on_c, 63
1, 54960, Note_on_c, 42
1, 54960, Note_on_c, 30
1, 54960, Note_on_c, 42
1, 54960, Note_on_c, 42
1, 54961, Note_off_c, 42
1, 54961, Note_on_c, 61
1, 54965, Note_on_c, 66
1, 54967, Note_off_c, 61
1, 54977, Note_off_c, 63
1, 54980, Note_off_c, 66
1, 55005, Note_off_c, 42
1, 55006, Note_on_c, 46
1, 55007, Note_off_c, 30
1, 55007, Note_off_c, 42
1, 55007, Note_off_c, 42
1, 55007, Note_on_c, 65
1, 55008, Note_on_c, 42
1, 55008, Note_on_c, 38
1, 55008, Note_on_c, 34
1, 55008, Note_on_c, 46
1, 55008, Note_on_c, 46
1, 55009, Note_off_c, 38
1, 55009, Note_off_c, 42
1, 55009, Note_on_c, 63
1, 55012, Note_on_c, 68
1, 55022, Note_off_c, 63
1, 55026, Note_off_c, 65
1, 55036, Note_off_c, 68
1, 55053, Note_off_c, 46
1, 55054, Note_on_c, 54
1, 55055, Note_off_c, 46
1, 55055, Note_off_c, 46
1, 55055, Note_off_c, 34
1, 55056, Note_on_c, 42
1, 55056, Note_on_c, 42
1, 55056, Note_on_c, 54
1, 55056, Note_on_c, 54
1, 55057, Note_off_c, 42
1, 55101, Note_off_c, 54
1, 55102, Note_on_c, 63
1, 55102, Note_on_c, 51
1, 55103, Note_off_c, 42
1, 55103, Note_off_c, 54
1, 55103, Note_off_c, 54
1, 55104, Note_on_c, 61
1, 55104, Note_on_c, 42
1, 55104, Note_on_c, 36
1, 55104, Note_on_c, 39
1, 55104, Note_on_c, 51
1, 55104, Note_on_c, 51
1, 55105, Note_off_c, 36
1, 55105, Note_off_c, 42
1, 55107, Note_on_c, 66
1, 55145, Note_off_c, 61
1, 55148, Note_off_c, 63
1, 55150, Note_off_c, 66
1, 55152, Note_on_c, 42
1, 55153, Note_off_c, 42
1, 55153, Note_on_c, 65
1, 55153, Note_on_c, 63
1, 55158, Note_on_c, 68
1, 55165, Note_off_c, 63
1, 55166, Note_off_c, 65
1, 55169, Note_off_c, 68
1, 55200, Note_on_c, 42
1, 55200, Note_on_c, 38
1, 55201, Note_off_c, 38
1, 55201, Note_off_c, 42
1, 55201, Note_on_c, 39
1, 55202, Note_off_c, 39
1, 55207, Note_on_c, 39
1, 55208, Note_off_c, 39
1, 55243, Note_off_c, 51
1, 55245, Note_off_c, 51
1, 55245, Note_off_c, 51
1, 55245, Note_off_c, 39
1, 55245, Note_on_c, 51
1, 55247, Note_on_c, 65
1, 55247, Note_on_c, 39
1, 55247, Note_on_c, 51
1, 55247, Note_on_c, 51
1, 55248, Note_on_c, 42
1, 55249, Note_off_c, 42
1, 55249, Note_on_c, 63
1, 55252, Note_on_c, 68
1, 55259, Note_off_c, 63
1, 55267, Note_off_c, 65
1, 55276, Note_off_c, 66
1, 55292, Note_off_c, 78
1, 55292, Note_off_c, 63
1, 55292, Note_off_c, 66
1, 55292, Note_off_c, 58
1, 55292, Note_off_c, 82
1, 55293, Note_on_c, 73
1, 55294, Note_off_c, 68
1, 55296, Note_on_c, 42
1, 55296, Note_on_c, 36
1, 55296, Note_on_c, 56
1, 55296, Note_on_c, 65
1, 55296, Note_on_c, 61
1, 55296, Note_on_c, 80
1, 55296, Note_on_c, 77
1, 55297, Note_off_c, 36
1, 55297, Note_off_c, 42
1, 55336, Note_off_c, 51
1, 55338, Note_off_c, 51
1, 55341, Note_off_c, 51
1, 55341, Note_off_c, 39
1, 55342, Note_on_c, 51
1, 55343, Note_on_c, 63
1, 55344, Note_on_c, 42
1, 55344, Note_on_c, 39
1, 55344, Note_on_c, 51
1, 55344, Note_on_c, 51
1, 55345, Note_off_c, 42
1, 55345, Note_on_c, 61
1, 55348, Note_on_c, 66
1, 55355, Note_off_c, 61
1, 55361, Note_off_c, 63
1, 55365, Note_off_c, 66
1, 55387, Note_off_c, 51
1, 55389, Note_off_c, 39
1, 55389, Note_off_c, 51
1, 55389, Note_off_c, 51
1, 55390, Note_on_c, 65
1, 55390, Note_on_c, 49
1, 55392, Note_on_c, 42
1, 55392, Note_on_c, 38
1, 55392, Note_on_c, 36
1, 55392, Note_on_c, 37
1, 55392, Note_on_c, 49
1, 55392, Note_on_c, 49
1, 55393, Note_off_c, 36
1, 55393, Note_off_c, 38
1, 55393, Note_off_c, 42
1, 55393, Note_on_c, 63
1, 55396, Note_on_c, 68
1, 55399, Note_off_c, 63
1, 55409, Note_off_c, 65
1, 55415, Note_off_c, 68
1, 55428, Note_off_c, 49
1, 55430, Note_off_c, 49
1, 55430, Note_off_c, 37
1, 55430, Note_off_c, 49
1, 55440, Note_on_c, 42
1, 55441, Note_off_c, 42
1, 55483, Note_on_c, 63
1, 55486, Note_on_c, 49
1, 55488, Note_on_c, 61
1, 55488, Note_on_c, 42
1, 55488, Note_on_c, 37
1, 55488, Note_on_c, 49
1, 55488, Note_on_c, 49
1, 55489, Note_off_c, 42
1, 55489, Note_on_c, 66
1, 55523, Note_off_c, 37
1, 55523, Note_off_c, 49
1, 55524, Note_off_c, 61
1, 55526, Note_off_c, 49
1, 55528, Note_off_c, 49
1, 55531, Note_off_c, 63
1, 55535, Note_on_c, 58
1, 55536, Note_on_c, 42
1, 55536, Note_on_c, 36
1, 55537, Note_off_c, 36
1, 55537, Note_off_c, 42
1, 55537, Note_on_c, 58
1, 55539, Note_off_c, 66
1, 55539, Note_on_c, 63
1, 55544, Note_off_c, 58
1, 55545, Note_off_c, 58
1, 55550, Note_off_c, 63
1, 55584, Note_on_c, 42
1, 55584, Note_on_c, 38
1, 55585, Note_off_c, 38
1, 55585, Note_off_c, 42
1, 55585, Note_on_c, 39
1, 55586, Note_off_c, 39
1, 55591, Note_on_c, 39
1, 55592, Note_off_c, 39
1, 55630, Note_on_c, 39
1, 55632, Note_on_c, 65
1, 55632, Note_on_c, 63
1, 55632, Note_on_c, 42
1, 55632, Note_on_c, 27
1, 55632, Note_on_c, 39
1, 55632, Note_on_c, 39
1, 55633, Note_off_c, 42
1, 55636, Note_on_c, 68
1, 55645, Note_off_c, 63
1, 55654, Note_off_c, 65
1, 55663, Note_off_c, 68
1, 55676, Note_off_c, 80
1, 55676, Note_off_c, 56
1, 55676, Note_off_c, 77
1, 55676, Note_off_c, 61
1, 55676, Note_off_c, 65
1, 55679, Note_on_c, 75
1, 55680, Note_on_c, 42
1, 55680, Note_on_c, 36
1, 55680, Note_on_c, 63
1, 55680, Note_on_c, 58
1, 55680, Note_on_c, 66
1, 55680, Note_on_c, 82
1, 55680, Note_on_c, 78
1, 55681, Note_off_c, 36
1, 55681, Note_off_c, 42
1, 55681, Note_on_c, 63
1, 55682, Note_off_c, 73
1, 55683, Note_off_c, 70
1, 55724, Note_off_c, 39
1, 55726, Note_off_c, 27
1, 55726, Note_off_c, 39
1, 55726, Note_off_c, 39
1, 55726, Note_on_c, 42
1, 55727, Note_on_c, 63
1, 55728, Note_on_c, 42
1, 55728, Note_on_c, 30
1, 55728, Note_on_c, 42
1, 55728, Note_on_c, 42
1, 55729, Note_off_c, 42
1, 55729, Note_on_c, 61
1, 55733, Note_on_c, 66
1, 55734, Note_off_c, 61
1, 55746, Note_off_c, 63
1, 55749, Note_off_c, 66
1, 55772, Note_off_c, 42
1, 55774, Note_off_c, 30
1, 55774, Note_off_c, 42
1, 55774, Note_off_c, 42
1, 55774, Note_on_c, 46
1, 55776, Note_on_c, 42
1, 55776, Note_on_c, 38
1, 55776, Note_on_c, 34
1, 55776, Note_on_c, 46
1, 55776, Note_on_c, 46
1, 55777, Note_off_c, 38
1, 55777, Note_off_c, 42
1, 55777, Note_on_c, 65
1, 55777, Note_on_c, 63
1, 55782, Note_on_c, 68
1, 55785, Note_off_c, 63
1, 55800, Note_off_c, 65
1, 55803, Note_off_c, 68
1, 55820, Note_off_c, 46
1, 55822, Note_off_c, 46
1, 55822, Note_off_c, 46
1, 55822, Note_off_c, 34
1, 55822, Note_on_c, 54
1, 55824, Note_on_c, 42
1, 55824, Note_on_c, 42
1, 55824, Note_on_c, 54
1, 55824, Note_on_c, 54
1, 55825, Note_off_c, 42
1, 55868, Note_off_c, 54
1, 55870, Note_off_c, 42
1, 55870, Note_off_c, 54
1, 55870, Note_off_c, 54
1, 55870, Note_on_c, 63
1, 55870, Note_on_c, 51
1, 55872, Note_on_c, 61
1, 55872, Note_on_c, 42
1, 55872, Note_on_c, 36
1, 55872, Note_on_c, 39
1, 55872, Note_on_c, 51
1, 55872, Note_on_c, 51
1, 55873, Note_off_c, 36
1, 55873, Note_off_c, 42
1, 55874, Note_on_c, 66
1, 55911, Note_off_c, 66
1, 55917, Note_off_c, 61
1, 55919, Note_off_c, 63
1, 55920, Note_on_c, 42
1, 55921, Note_off_c, 42
1, 55921, Note_on_c, 65
1, 55922, Note_on_c, 63
1, 55923, Note_on_c, 68
1, 55929, Note_off_c, 63
1, 55934, Note_off_c, 65
1, 55935, Note_off_c, 68
1, 55968, Note_on_c, 42
1, 55968, Note_on_c, 38
1, 55969, Note_off_c, 38
1, 55969, Note_off_c, 42
1, 55969, Note_on_c, 39
1, 55970, Note_off_c, 39
1, 55975, Note_on_c, 39
1, 55976, Note_off_c, 39
1, 56011, Note_off_c, 51
1, 56013, Note_off_c, 51
1, 56013, Note_off_c, 51
1, 56013, Note_off_c, 39
1, 56013, Note_on_c, 51
1, 56015, Note_on_c, 39
1, 56015, Note_on_c, 51
1, 56015, Note_on_c, 51
1, 56016, Note_on_c, 65
1, 56016, Note_on_c, 42
1, 56017, Note_off_c, 42
1, 56017, Note_on_c, 63
1, 56019, Note_on_c, 68
1, 56026, Note_off_c, 63
1, 56033, Note_off_c, 65
1, 56043, Note_off_c, 68
1, 56058, Note_off_c, 75
1, 56060, Note_off_c, 63
1, 56060, Note_off_c, 63
1, 56060, Note_off_c, 78
1, 56060, Note_off_c, 58
1, 56060, Note_off_c, 66
1, 56060, Note_off_c, 82
1, 56064, Note_on_c, 42
1, 56064, Note_on_c, 36
1, 56064, Note_on_c, 56
1, 56064, Note_on_c, 65
1, 56064, Note_on_c, 61
1, 56064, Note_on_c, 80
1, 56064, Note_on_c, 77
1, 56065, Note_off_c, 36
1, 56065, Note_off_c, 42
1, 56065, Note_on_c, 73
1, 56066, Note_on_c, 70
1, 56108, Note_off_c, 51
1, 56110, Note_off_c, 51
1, 56110, Note_off_c, 51
1, 56110, Note_off_c, 39
1, 56110, Note_on_c, 51
1, 56112, Note_on_c, 63
1, 56112, Note_on_c, 42
1, 56112, Note_on_c, 39
1, 56112, Note_on_c, 51
1, 56112, Note_on_c, 51
1, 56113, Note_off_c, 42
1, 56113, Note_on_c, 61
1, 56115, Note_on_c, 66
1, 56119, Note_off_c, 61
1, 56132, Note_off_c, 63
1, 56136, Note_off_c, 66
1, 56152, Note_off_c, 51
1, 56154, Note_off_c, 39
1, 56154, Note_off_c, 51
1, 56154, Note_off_c, 51
1, 56158, Note_on_c, 49
1, 56160, Note_on_c, 65
1, 56160, Note_on_c, 63
1, 56160, Note_on_c, 42
1, 56160, Note_on_c, 38
1, 56160, Note_on_c, 36
1, 56160, Note_on_c, 37
1, 56160, Note_on_c, 49
1, 56160, Note_on_c, 49
1, 56161, Note_off_c, 36
1, 56161, Note_off_c, 38
1, 56161, Note_off_c, 42
1, 56163, Note_on_c, 68
1, 56172, Note_off_c, 63
1, 56179, Note_off_c, 65
1, 56184, Note_off_c, 68
1, 56198, Note_off_c, 49
1, 56198, Note_off_c, 37
1, 56199, Note_off_c, 49
1, 56201, Note_off_c, 49
1, 56208, Note_on_c, 42
1, 56209, Note_off_c, 42
1, 56254, Note_on_c, 63
1, 56255, Note_on_c, 61
1, 56256, Note_on_c, 42
1, 56257, Note_off_c, 42
1, 56259, Note_on_c, 66
1, 56271, Note_off_c, 61
1, 56273, Note_off_c, 63
1, 56283, Note_off_c, 66
1, 56304, Note_on_c, 42
1, 56304, Note_on_c, 36
1, 56305, Note_off_c, 36
1, 56305, Note_off_c, 42
1, 56351, Note_on_c, 65
1, 56352, Note_on_c, 63
1, 56352, Note_on_c, 42
1, 56352, Note_on_c, 38
1, 56353, Note_off_c, 38
1, 56353, Note_off_c, 42
1, 56353, Note_on_c, 39
1, 56354, Note_off_c, 39
1, 56354, Note_on_c, 68
1, 56359, Note_on_c, 39
1, 56360, Note_off_c, 39
1, 56367, Note_off_c, 63
1, 56375, Note_off_c, 65
1, 56379, Note_off_c, 68
1, 56398, Note_on_c, 39
1, 56400, Note_on_c, 42
1, 56400, Note_on_c, 27
1, 56400, Note_on_c, 39
1, 56400, Note_on_c, 39
1, 56401, Note_off_c, 42
1, 56435, Note_off_c, 73
1, 56438, Note_off_c, 70
1, 56444, Note_off_c, 56
1, 56444, Note_off_c, 77
1, 56444, Note_off_c, 80
1, 56444, Note_off_c, 61
1, 56444, Note_off_c, 65
1, 56448, Note_off_c, 27
1, 56448, Note_off_c, 39
1, 56448, Note_off_c, 39
1, 56448, Note_off_c, 39
1, 56448, End_track
