0, 0, Header, 0, 1, 96
1, 0, Start_track
1, 0, Title_t, "Beat It"
1, 0, Copyright_t, "(C)1992 Roland Corporation"
1, 0, Time_signature, 4, 2, 24, 8
1, 0, Tempo, 431654
1, 0, System_exclusive, 10, 65, 16, 66, 18, 64, 0, 127, 0, 65, 247
1, 48, System_exclusive, 10, 65, 16, 66, 18, 64, 1, 48, 2, 13, 247
1, 50, System_exclusive, 10, 65, 16, 66, 18, 64, 1, 51, 101, 39, 247
1, 52, System_exclusive, 10, 65, 16, 66, 18, 64, 1, 52, 56, 83, 247
1, 54, System_exclusive, 10, 65, 16, 66, 18, 64, 26, 21, 2, 15, 247
1, 56, System_exclusive, 10, 65, 16, 66, 18, 64, 1, 54, 51, 86, 247
1, 58, System_exclusive, 25, 65, 16, 66, 18, 64, 1, 16, 3, 3, 1, 2, 2, 1, 1, 2, 1, 1, 1, 2, 2, 0, 1, 1, 23, 247
1, 62, System_exclusive, 10, 65, 16, 66, 18, 64, 25, 28, 0, 11, 247
1, 96, Control_c, 0, 0, 0
1, 97, Control_c, 0, 32, 0
1, 98, Program_c, 0, 5
1, 99, Control_c, 0, 7, 110
1, 99, Control_c, 0, 10, 64
1, 99, Control_c, 0, 11, 127
1, 100, Control_c, 0, 91, 66
1, 100, Control_c, 0, 93, 22
1, 101, Control_c, 1, 0, 0
1, 102, Control_c, 1, 32, 0
1, 103, Program_c, 1, 33
1, 104, Control_c, 1, 7, 94
1, 104, Control_c, 1, 10, 64
1, 104, Control_c, 1, 11, 127
1, 105, Control_c, 1, 91, 10
1, 105, Control_c, 1, 93, 15
1, 106, Control_c, 2, 0, 0
1, 107, Control_c, 2, 32, 0
1, 108, Program_c, 2, 54
1, 109, Control_c, 2, 7, 90
1, 109, Control_c, 2, 10, 64
1, 109, Control_c, 2, 11, 127
1, 110, Control_c, 2, 91, 90
1, 110, Control_c, 2, 93, 30
1, 110, Control_c, 2, 65, 127
1, 110, Control_c, 2, 5, 30
1, 111, Control_c, 3, 0, 0
1, 112, Control_c, 3, 32, 0
1, 113, Program_c, 3, 87
1, 114, Control_c, 3, 7, 97
1, 114, Control_c, 3, 10, 64
1, 114, Control_c, 3, 11, 127
1, 115, Control_c, 3, 91, 80
1, 115, Control_c, 3, 93, 20
1, 115, Control_c, 3, 126, 1
1, 115, Control_c, 3, 65, 127
1, 115, Control_c, 3, 5, 10
1, 116, Control_c, 4, 0, 0
1, 117, Control_c, 4, 32, 0
1, 118, Program_c, 4, 29
1, 119, Control_c, 4, 7, 75
1, 119, Control_c, 4, 10, 40
1, 119, Control_c, 4, 11, 127
1, 120, Control_c, 4, 91, 75
1, 120, Control_c, 4, 93, 35
1, 121, Control_c, 5, 0, 0
1, 122, Control_c, 5, 32, 0
1, 123, Program_c, 5, 30
1, 124, Control_c, 5, 7, 85
1, 124, Control_c, 5, 10, 88
1, 124, Control_c, 5, 11, 127
1, 125, Control_c, 5, 91, 75
1, 125, Control_c, 5, 93, 32
1, 126, Control_c, 6, 0, 0
1, 127, Control_c, 6, 32, 0
1, 128, Program_c, 6, 29
1, 129, Control_c, 6, 7, 105
1, 129, Control_c, 6, 10, 90
1, 129, Control_c, 6, 11, 110
1, 130, Control_c, 6, 91, 85
1, 130, Control_c, 6, 93, 43
1, 131, Control_c, 7, 0, 0
1, 132, Control_c, 7, 32, 0
1, 133, Program_c, 7, 31
1, 134, Control_c, 7, 7, 100
1, 134, Control_c, 7, 10, 64
1, 134, Control_c, 7, 11, 127
1, 135, Control_c, 7, 91, 80
1, 135, Control_c, 7, 93, 32
1, 136, Control_c, 8, 0, 0
1, 137, Control_c, 8, 32, 0
1, 138, Program_c, 8, 28
1, 139, Control_c, 8, 7, 100
1, 139, Control_c, 7, 10, 64
1, 139, Control_c, 8, 11, 127
1, 140, Control_c, 8, 91, 50
1, 140, Control_c, 8, 93, 20
1, 141, Control_c, 9, 0, 0
1, 142, Control_c, 9, 32, 0
1, 143, Program_c, 9, 0
1, 144, Control_c, 9, 7, 105
1, 144, Control_c, 9, 10, 64
1, 144, Control_c, 9, 11, 127
1, 145, Control_c, 9, 91, 70
1, 145, Control_c, 9, 93, 20
1, 146, Control_c, 10, 0, 0
1, 147, Control_c, 10, 32, 0
1, 148, Program_c, 10, 25
1, 149, Control_c, 10, 7, 113
1, 149, Control_c, 10, 10, 64
1, 149, Control_c, 10, 11, 127
1, 150, Control_c, 10, 91, 30
1, 150, Control_c, 10, 93, 15
1, 151, Control_c, 11, 0, 0
1, 152, Control_c, 11, 32, 0
1, 153, Program_c, 11, 50
1, 154, Control_c, 11, 7, 80
1, 154, Control_c, 11, 10, 58
1, 154, Control_c, 11, 11, 127
1, 155, Control_c, 11, 91, 90
1, 155, Control_c, 11, 93, 35
1, 156, Control_c, 12, 0, 0
1, 157, Control_c, 12, 32, 0
1, 158, Program_c, 12, 100
1, 159, Control_c, 12, 7, 80
1, 159, Control_c, 12, 10, 40
1, 159, Control_c, 12, 11, 127
1, 160, Control_c, 12, 91, 75
1, 160, Control_c, 12, 93, 39
1, 161, Control_c, 13, 0, 0
1, 162, Control_c, 13, 32, 0
1, 163, Program_c, 13, 85
1, 164, Control_c, 13, 7, 70
1, 164, Control_c, 13, 10, 85
1, 164, Control_c, 13, 11, 127
1, 165, Control_c, 13, 91, 80
1, 165, Control_c, 13, 93, 30
1, 166, Control_c, 14, 0, 0
1, 167, Control_c, 14, 32, 0
1, 168, Program_c, 14, 65
1, 169, Control_c, 14, 7, 105
1, 169, Control_c, 14, 10, 48
1, 169, Control_c, 14, 11, 127
1, 170, Control_c, 14, 91, 65
1, 170, Control_c, 14, 93, 20
1, 170, Control_c, 14, 126, 1
1, 171, Control_c, 15, 0, 0
1, 172, Control_c, 15, 32, 0
1, 173, Program_c, 15, 66
1, 174, Control_c, 15, 7, 100
1, 174, Control_c, 15, 10, 80
1, 174, Control_c, 15, 11, 127
1, 175, Control_c, 15, 91, 65
1, 175, Control_c, 15, 93, 30
1, 175, Control_c, 15, 126, 1
1, 192, Control_c, 0, 101, 0
1, 193, Control_c, 0, 100, 0
1, 194, Control_c, 0, 6, 12
1, 195, Control_c, 0, 99, 1
1, 196, Control_c, 0, 98, 100
1, 197, Control_c, 0, 6, 99
1, 198, Control_c, 0, 99, 1
1, 199, Control_c, 0, 98, 99
1, 200, Control_c, 0, 6, 85
1, 201, Control_c, 0, 101, 127
1, 202, Control_c, 0, 100, 127
1, 203, Control_c, 1, 99, 1
1, 204, Control_c, 1, 98, 32
1, 205, Control_c, 1, 6, 45
1, 206, Control_c, 1, 99, 1
1, 207, Control_c, 1, 98, 100
1, 208, Control_c, 1, 6, 70
1, 209, Control_c, 1, 101, 127
1, 210, Control_c, 1, 100, 127
1, 211, Control_c, 2, 99, 1
1, 212, Control_c, 2, 98, 9
1, 213, Control_c, 2, 6, 70
1, 214, Control_c, 2, 99, 1
1, 215, Control_c, 2, 98, 33
1, 216, Control_c, 2, 6, 86
1, 217, Control_c, 2, 101, 127
1, 218, Control_c, 2, 100, 127
1, 219, Control_c, 3, 99, 1
1, 220, Control_c, 3, 98, 33
1, 221, Control_c, 3, 6, 74
1, 222, Control_c, 3, 99, 1
1, 223, Control_c, 3, 98, 32
1, 224, Control_c, 3, 6, 60
1, 225, Control_c, 3, 101, 127
1, 226, Control_c, 3, 100, 127
1, 227, Control_c, 5, 99, 1
1, 228, Control_c, 5, 98, 99
1, 229, Control_c, 5, 6, 50
1, 230, Control_c, 5, 99, 1
1, 231, Control_c, 5, 98, 32
1, 232, Control_c, 5, 6, 62
1, 233, Control_c, 5, 101, 127
1, 234, Control_c, 5, 100, 127
1, 235, Control_c, 6, 99, 1
1, 236, Control_c, 6, 98, 99
1, 237, Control_c, 6, 6, 53
1, 238, Control_c, 6, 101, 0
1, 239, Control_c, 6, 100, 0
1, 240, Control_c, 6, 6, 3
1, 241, Control_c, 6, 99, 1
1, 242, Control_c, 6, 98, 102
1, 243, Control_c, 6, 6, 62
1, 244, Control_c, 6, 101, 127
1, 245, Control_c, 6, 100, 127
1, 246, Control_c, 8, 99, 1
1, 247, Control_c, 8, 98, 99
1, 248, Control_c, 8, 6, 60
1, 249, Control_c, 8, 101, 127
1, 250, Control_c, 8, 100, 127
1, 251, Control_c, 9, 99, 29
1, 252, Control_c, 9, 98, 36
1, 253, Control_c, 9, 6, 12
1, 254, Control_c, 9, 99, 24
1, 255, Control_c, 9, 98, 38
1, 256, Control_c, 9, 6, 66
1, 257, Control_c, 9, 99, 24
1, 258, Control_c, 9, 98, 49
1, 259, Control_c, 9, 6, 65
1, 260, Control_c, 9, 99, 28
1, 261, Control_c, 9, 98, 49
1, 262, Control_c, 9, 6, 50
1, 263, Control_c, 9, 99, 28
1, 264, Control_c, 9, 98, 42
1, 265, Control_c, 9, 6, 64
1, 266, Control_c, 9, 99, 28
1, 267, Control_c, 9, 98, 46
1, 268, Control_c, 9, 6, 64
1, 269, Control_c, 9, 99, 29
1, 270, Control_c, 9, 98, 39
1, 271, Control_c, 9, 6, 127
1, 272, Control_c, 9, 99, 28
1, 273, Control_c, 9, 98, 39
1, 274, Control_c, 9, 6, 90
1, 275, Control_c, 9, 99, 28
1, 276, Control_c, 9, 98, 69
1, 277, Control_c, 9, 6, 100
1, 278, Control_c, 9, 99, 24
1, 279, Control_c, 9, 98, 39
1, 280, Control_c, 9, 6, 66
1, 281, Control_c, 9, 99, 24
1, 282, Control_c, 9, 98, 42
1, 283, Control_c, 9, 6, 63
1, 284, Control_c, 9, 99, 24
1, 285, Control_c, 9, 98, 57
1, 286, Control_c, 9, 6, 59
1, 287, Control_c, 9, 101, 127
1, 288, Control_c, 9, 100, 127
1, 289, Control_c, 10, 99, 29
1, 290, Control_c, 10, 98, 36
1, 291, Control_c, 10, 6, 1
1, 292, Control_c, 10, 99, 29
1, 293, Control_c, 10, 98, 42
1, 294, Control_c, 10, 6, 20
1, 295, Control_c, 10, 99, 28
1, 296, Control_c, 10, 98, 39
1, 297, Control_c, 10, 6, 20
1, 298, Control_c, 10, 99, 24
1, 299, Control_c, 10, 98, 39
1, 300, Control_c, 10, 6, 78
1, 301, Control_c, 10, 99, 29
1, 302, Control_c, 10, 98, 39
1, 303, Control_c, 10, 6, 127
1, 304, Control_c, 10, 101, 127
1, 305, Control_c, 10, 100, 127
1, 306, Control_c, 12, 99, 1
1, 307, Control_c, 12, 98, 33
1, 308, Control_c, 12, 6, 94
1, 309, Control_c, 12, 99, 1
1, 310, Control_c, 12, 98, 100
1, 311, Control_c, 12, 6, 69
1, 312, Control_c, 12, 101, 127
1, 313, Control_c, 12, 100, 127
1, 314, Control_c, 13, 99, 1
1, 315, Control_c, 13, 98, 32
1, 316, Control_c, 13, 6, 60
1, 317, Control_c, 13, 99, 1
1, 318, Control_c, 13, 98, 33
1, 319, Control_c, 13, 6, 127
1, 320, Control_c, 13, 99, 1
1, 321, Control_c, 13, 98, 100
1, 322, Control_c, 13, 6, 68
1, 323, Control_c, 13, 99, 1
1, 324, Control_c, 13, 98, 99
1, 325, Control_c, 13, 6, 63
1, 326, Control_c, 13, 99, 1
1, 327, Control_c, 13, 98, 102
1, 328, Control_c, 13, 6, 85
1, 329, Control_c, 13, 101, 127
1, 330, Control_c, 13, 100, 127
1, 384, Note_on_c, 12, 43, 110
1, 384, Note_on_c, 12, 31, 110
1, 384, Note_on_c, 13, 31, 110
1, 764, Note_off_c, 13, 31, 64
1, 764, Note_off_c, 12, 31, 64
1, 764, Note_off_c, 12, 43, 64
1, 768, Note_on_c, 12, 31, 110
1, 768, Note_on_c, 12, 43, 110
1, 768, Note_on_c, 13, 31, 110
1, 1148, Note_off_c, 13, 31, 64
1, 1148, Note_off_c, 12, 43, 64
1, 1148, Note_off_c, 12, 31, 64
1, 1152, Note_on_c, 12, 28, 110
1, 1152, Note_on_c, 12, 40, 110
1, 1152, Note_on_c, 13, 28, 110
1, 1532, Note_off_c, 13, 28, 64
1, 1532, Note_off_c, 12, 40, 64
1, 1532, Note_off_c, 12, 28, 64
1, 1536, Note_on_c, 12, 28, 110
1, 1536, Note_on_c, 12, 40, 110
1, 1536, Note_on_c, 13, 28, 110
1, 1916, Note_off_c, 13, 28, 64
1, 1916, Note_off_c, 12, 40, 64
1, 1916, Note_off_c, 12, 28, 64
1, 1920, Note_on_c, 12, 43, 110
1, 1920, Note_on_c, 12, 31, 110
1, 1920, Note_on_c, 13, 31, 110
1, 2300, Note_off_c, 13, 31, 64
1, 2300, Note_off_c, 12, 31, 64
1, 2300, Note_off_c, 12, 43, 64
1, 2304, Note_on_c, 12, 43, 110
1, 2304, Note_on_c, 12, 31, 110
1, 2304, Note_on_c, 13, 31, 110
1, 2684, Note_off_c, 13, 31, 64
1, 2684, Note_off_c, 12, 31, 64
1, 2684, Note_off_c, 12, 43, 64
1, 2688, Note_on_c, 10, 42, 115
1, 2688, Note_on_c, 10, 36, 82
1, 2688, Note_on_c, 12, 38, 110
1, 2688, Note_on_c, 12, 26, 110
1, 2688, Note_on_c, 13, 26, 110
1, 2689, Note_off_c, 10, 36, 64
1, 2689, Note_off_c, 10, 42, 64
1, 2736, Note_on_c, 10, 42, 67
1, 2737, Note_off_c, 10, 42, 64
1, 2784, Note_on_c, 10, 42, 109
1, 2784, Note_on_c, 10, 38, 93
1, 2785, Note_off_c, 10, 38, 64
1, 2785, Note_off_c, 10, 42, 64
1, 2832, Note_on_c, 10, 42, 56
1, 2833, Note_off_c, 10, 42, 64
1, 2880, Note_on_c, 10, 42, 101
1, 2880, Note_on_c, 10, 36, 86
1, 2881, Note_off_c, 10, 36, 64
1, 2881, Note_off_c, 10, 42, 64
1, 2928, Note_on_c, 10, 42, 64
1, 2929, Note_off_c, 10, 42, 64
1, 2976, Note_on_c, 10, 42, 109
1, 2976, Note_on_c, 10, 38, 89
1, 2977, Note_off_c, 10, 38, 64
1, 2977, Note_off_c, 10, 42, 64
1, 2977, Note_on_c, 9, 39, 126
1, 2978, Note_off_c, 9, 39, 64
1, 2983, Note_on_c, 10, 39, 127
1, 2984, Note_off_c, 10, 39, 64
1, 3024, Note_on_c, 10, 42, 92
1, 3025, Note_off_c, 10, 42, 64
1, 3071, Pitch_bend_c, 0, 8192
1, 3071, Control_c, 0, 10, 127
1, 3072, Note_on_c, 10, 42, 109
1, 3072, Note_on_c, 10, 36, 90
1, 3072, Note_on_c, 0, 83, 90
1, 3073, Note_off_c, 10, 36, 64
1, 3073, Note_off_c, 10, 42, 64
1, 3120, Note_on_c, 10, 42, 64
1, 3121, Note_off_c, 10, 42, 64
1, 3158, Control_c, 12, 11, 125
1, 3158, Control_c, 13, 11, 125
1, 3163, Control_c, 12, 11, 126
1, 3163, Control_c, 13, 11, 126
1, 3168, Note_on_c, 10, 42, 117
1, 3168, Note_on_c, 10, 36, 90
1, 3168, Note_on_c, 10, 38, 90
1, 3169, Note_off_c, 10, 38, 64
1, 3169, Note_off_c, 10, 36, 64
1, 3169, Note_off_c, 10, 42, 64
1, 3177, Control_c, 12, 11, 124
1, 3177, Control_c, 13, 11, 124
1, 3191, Control_c, 0, 10, 125
1, 3196, Control_c, 12, 11, 122
1, 3197, Control_c, 13, 11, 122
1, 3201, Control_c, 0, 10, 121
1, 3206, Control_c, 12, 11, 120
1, 3206, Control_c, 13, 11, 120
1, 3216, Note_on_c, 10, 42, 70
1, 3216, Control_c, 0, 10, 114
1, 3217, Note_off_c, 10, 42, 64
1, 3221, Control_c, 12, 11, 118
1, 3221, Control_c, 13, 11, 118
1, 3225, Control_c, 0, 10, 109
1, 3235, Control_c, 12, 11, 116
1, 3235, Control_c, 0, 10, 103
1, 3236, Control_c, 13, 11, 116
1, 3245, Control_c, 12, 11, 114
1, 3245, Control_c, 13, 11, 114
1, 3245, Control_c, 0, 10, 99
1, 3254, Control_c, 0, 10, 97
1, 3255, Control_c, 12, 11, 112
1, 3255, Control_c, 13, 11, 112
1, 3264, Note_on_c, 10, 42, 103
1, 3264, Control_c, 0, 10, 90
1, 3265, Note_off_c, 10, 42, 64
1, 3269, Control_c, 12, 11, 110
1, 3269, Control_c, 13, 11, 110
1, 3274, Control_c, 0, 10, 86
1, 3283, Control_c, 0, 10, 84
1, 3293, Control_c, 0, 10, 76
1, 3298, Control_c, 12, 11, 108
1, 3298, Control_c, 13, 11, 108
1, 3303, Control_c, 0, 10, 72
1, 3312, Note_on_c, 10, 42, 119
1, 3312, Note_on_c, 10, 36, 90
1, 3312, Control_c, 0, 10, 66
1, 3313, Note_off_c, 10, 36, 64
1, 3313, Note_off_c, 10, 42, 64
1, 3322, Control_c, 12, 11, 106
1, 3322, Control_c, 0, 10, 61
1, 3323, Control_c, 13, 11, 106
1, 3332, Control_c, 0, 10, 57
1, 3341, Control_c, 0, 10, 52
1, 3342, Control_c, 12, 11, 104
1, 3342, Control_c, 13, 11, 104
1, 3351, Control_c, 0, 10, 48
1, 3356, Control_c, 12, 11, 102
1, 3357, Control_c, 13, 11, 102
1, 3360, Note_on_c, 10, 42, 107
1, 3360, Note_on_c, 10, 38, 93
1, 3361, Note_off_c, 10, 38, 64
1, 3361, Note_off_c, 10, 42, 64
1, 3361, Note_on_c, 9, 39, 126
1, 3362, Note_off_c, 9, 39, 64
1, 3366, Control_c, 12, 11, 100
1, 3366, Control_c, 13, 11, 100
1, 3366, Control_c, 0, 10, 44
1, 3367, Note_on_c, 10, 39, 127
1, 3368, Note_off_c, 10, 39, 64
1, 3375, Control_c, 12, 11, 98
1, 3376, Control_c, 13, 11, 98
1, 3380, Control_c, 0, 10, 42
1, 3390, Control_c, 12, 11, 96
1, 3390, Control_c, 0, 10, 38
1, 3391, Control_c, 13, 11, 96
1, 3400, Control_c, 0, 10, 34
1, 3405, Control_c, 12, 11, 94
1, 3405, Control_c, 13, 11, 94
1, 3408, Note_on_c, 10, 42, 101
1, 3409, Note_off_c, 10, 42, 64
1, 3409, Control_c, 0, 10, 32
1, 3419, Control_c, 0, 10, 26
1, 3429, Control_c, 12, 11, 92
1, 3429, Control_c, 13, 11, 92
1, 3433, Control_c, 0, 10, 22
1, 3443, Control_c, 0, 10, 20
1, 3452, Note_off_c, 12, 38, 64
1, 3452, Note_off_c, 12, 26, 64
1, 3453, Control_c, 0, 10, 18
1, 3456, Note_on_c, 10, 42, 115
1, 3456, Note_on_c, 10, 36, 82
1, 3457, Note_off_c, 10, 36, 64
1, 3457, Note_off_c, 10, 42, 64
1, 3457, Control_c, 12, 11, 90
1, 3458, Control_c, 13, 11, 90
1, 3463, Control_c, 0, 10, 14
1, 3472, Control_c, 12, 11, 88
1, 3473, Control_c, 13, 11, 88
1, 3477, Control_c, 0, 10, 10
1, 3491, Control_c, 0, 10, 6
1, 3492, Control_c, 12, 11, 86
1, 3492, Control_c, 13, 11, 86
1, 3504, Note_on_c, 10, 42, 67
1, 3504, Pitch_bend_c, 0, 8128
1, 3505, Note_off_c, 10, 42, 64
1, 3506, Control_c, 12, 11, 84
1, 3506, Control_c, 0, 10, 4
1, 3507, Control_c, 13, 11, 84
1, 3515, Control_c, 0, 10, 2
1, 3516, Pitch_bend_c, 0, 8064
1, 3521, Control_c, 12, 11, 82
1, 3521, Control_c, 13, 11, 82
1, 3528, Pitch_bend_c, 0, 8000
1, 3535, Control_c, 12, 11, 80
1, 3536, Control_c, 13, 11, 80
1, 3540, Pitch_bend_c, 0, 7936
1, 3545, Control_c, 0, 10, 0
1, 3550, Control_c, 12, 11, 78
1, 3550, Control_c, 13, 11, 78
1, 3552, Note_on_c, 10, 42, 109
1, 3552, Note_on_c, 10, 38, 93
1, 3552, Pitch_bend_c, 0, 7872
1, 3553, Note_off_c, 10, 38, 64
1, 3553, Note_off_c, 10, 42, 64
1, 3564, Control_c, 12, 11, 76
1, 3564, Pitch_bend_c, 0, 7808
1, 3565, Control_c, 13, 11, 76
1, 3574, Control_c, 12, 11, 74
1, 3575, Control_c, 13, 11, 74
1, 3576, Pitch_bend_c, 0, 7744
1, 3584, Control_c, 12, 11, 72
1, 3584, Control_c, 13, 11, 72
1, 3588, Pitch_bend_c, 0, 7680
1, 3598, Control_c, 12, 11, 70
1, 3599, Control_c, 13, 11, 70
1, 3600, Note_on_c, 10, 42, 56
1, 3600, Pitch_bend_c, 0, 7616
1, 3601, Note_off_c, 10, 42, 64
1, 3603, Control_c, 12, 11, 68
1, 3604, Control_c, 13, 11, 68
1, 3612, Pitch_bend_c, 0, 7552
1, 3613, Control_c, 12, 11, 66
1, 3613, Control_c, 13, 11, 66
1, 3623, Control_c, 12, 11, 64
1, 3623, Control_c, 13, 11, 64
1, 3624, Pitch_bend_c, 0, 7488
1, 3632, Control_c, 12, 11, 62
1, 3633, Control_c, 13, 11, 62
1, 3636, Pitch_bend_c, 0, 7424
1, 3647, Control_c, 12, 11, 60
1, 3647, Control_c, 13, 11, 60
1, 3648, Note_on_c, 10, 42, 101
1, 3648, Note_on_c, 10, 36, 86
1, 3648, Pitch_bend_c, 0, 7360
1, 3649, Note_off_c, 10, 36, 64
1, 3649, Note_off_c, 10, 42, 64
1, 3660, Pitch_bend_c, 0, 7296
1, 3661, Control_c, 12, 11, 58
1, 3662, Control_c, 13, 11, 58
1, 3672, Pitch_bend_c, 0, 7232
1, 3681, Control_c, 12, 11, 56
1, 3681, Control_c, 13, 11, 56
1, 3684, Pitch_bend_c, 0, 7168
1, 3690, Control_c, 12, 11, 54
1, 3691, Control_c, 13, 11, 54
1, 3696, Note_on_c, 10, 42, 64
1, 3696, Pitch_bend_c, 0, 7104
1, 3697, Note_off_c, 10, 42, 64
1, 3700, Control_c, 12, 11, 52
1, 3700, Control_c, 13, 11, 52
1, 3705, Control_c, 12, 11, 50
1, 3705, Control_c, 13, 11, 50
1, 3708, Pitch_bend_c, 0, 7040
1, 3714, Control_c, 12, 11, 48
1, 3715, Control_c, 13, 11, 48
1, 3719, Control_c, 0, 10, 2
1, 3720, Pitch_bend_c, 0, 6976
1, 3724, Control_c, 12, 11, 46
1, 3725, Control_c, 13, 11, 46
1, 3732, Pitch_bend_c, 0, 6912
1, 3734, Control_c, 12, 11, 44
1, 3734, Control_c, 13, 11, 44
1, 3738, Control_c, 0, 10, 3
1, 3744, Note_on_c, 10, 42, 109
1, 3744, Note_on_c, 10, 38, 89
1, 3744, Pitch_bend_c, 0, 6848
1, 3745, Note_off_c, 10, 38, 64
1, 3745, Note_off_c, 10, 42, 64
1, 3745, Note_on_c, 9, 39, 126
1, 3746, Note_off_c, 9, 39, 64
1, 3748, Control_c, 12, 11, 42
1, 3748, Control_c, 0, 10, 5
1, 3749, Control_c, 13, 11, 42
1, 3751, Note_on_c, 10, 39, 127
1, 3752, Note_off_c, 10, 39, 64
1, 3756, Pitch_bend_c, 0, 6784
1, 3758, Control_c, 12, 11, 40
1, 3758, Control_c, 13, 11, 40
1, 3758, Control_c, 0, 10, 7
1, 3767, Control_c, 0, 10, 10
1, 3768, Control_c, 12, 11, 38
1, 3768, Control_c, 13, 11, 38
1, 3768, Pitch_bend_c, 0, 6720
1, 3777, Control_c, 12, 11, 36
1, 3778, Control_c, 13, 11, 36
1, 3780, Pitch_bend_c, 0, 6656
1, 3782, Control_c, 0, 10, 11
1, 3792, Note_on_c, 10, 42, 92
1, 3792, Pitch_bend_c, 0, 6592
1, 3792, Control_c, 0, 10, 14
1, 3793, Note_off_c, 10, 42, 64
1, 3796, Control_c, 12, 11, 34
1, 3797, Control_c, 13, 11, 34
1, 3801, Control_c, 12, 11, 32
1, 3801, Control_c, 0, 10, 16
1, 3802, Control_c, 13, 11, 32
1, 3804, Pitch_bend_c, 0, 6528
1, 3811, Control_c, 12, 11, 30
1, 3811, Control_c, 0, 10, 18
1, 3812, Control_c, 13, 11, 30
1, 3816, Pitch_bend_c, 0, 6464
1, 3821, Control_c, 0, 10, 21
1, 3828, Pitch_bend_c, 0, 6400
1, 3830, Control_c, 0, 10, 23
1, 3835, Control_c, 12, 11, 28
1, 3836, Control_c, 13, 11, 28
1, 3840, Note_on_c, 10, 42, 109
1, 3840, Note_on_c, 10, 36, 90
1, 3840, Pitch_bend_c, 0, 6336
1, 3840, Control_c, 0, 10, 26
1, 3841, Note_off_c, 10, 36, 64
1, 3841, Note_off_c, 10, 42, 64
1, 3850, Control_c, 0, 10, 28
1, 3852, Pitch_bend_c, 0, 6272
1, 3855, Control_c, 12, 11, 26
1, 3855, Control_c, 13, 11, 26
1, 3859, Control_c, 0, 10, 30
1, 3864, Control_c, 12, 11, 23
1, 3864, Pitch_bend_c, 0, 6208
1, 3865, Control_c, 13, 11, 23
1, 3869, Control_c, 0, 10, 34
1, 3874, Control_c, 12, 11, 21
1, 3874, Control_c, 13, 11, 21
1, 3876, Pitch_bend_c, 0, 6144
1, 3879, Control_c, 0, 10, 36
1, 3884, Control_c, 12, 11, 19
1, 3884, Control_c, 13, 11, 19
1, 3888, Note_on_c, 10, 42, 64
1, 3888, Pitch_bend_c, 0, 6080
1, 3888, Control_c, 0, 10, 38
1, 3889, Note_off_c, 10, 42, 64
1, 3893, Control_c, 12, 11, 17
1, 3894, Control_c, 13, 11, 17
1, 3898, Control_c, 0, 10, 42
1, 3900, Pitch_bend_c, 0, 6016
1, 3903, Control_c, 12, 11, 15
1, 3903, Control_c, 13, 11, 15
1, 3908, Control_c, 0, 10, 44
1, 3912, Control_c, 12, 11, 13
1, 3912, Pitch_bend_c, 0, 5952
1, 3913, Control_c, 13, 11, 13
1, 3917, Control_c, 0, 10, 48
1, 3924, Pitch_bend_c, 0, 5888
1, 3927, Control_c, 12, 11, 11
1, 3927, Control_c, 13, 11, 11
1, 3927, Control_c, 0, 10, 51
1, 3932, Control_c, 12, 11, 9
1, 3932, Control_c, 13, 11, 9
1, 3936, Note_on_c, 10, 42, 117
1, 3936, Note_on_c, 10, 36, 90
1, 3936, Note_on_c, 10, 38, 90
1, 3936, Pitch_bend_c, 0, 5824
1, 3937, Note_off_c, 10, 38, 64
1, 3937, Note_off_c, 10, 36, 64
1, 3937, Note_off_c, 10, 42, 64
1, 3937, Control_c, 0, 10, 53
1, 3941, Control_c, 12, 11, 5
1, 3942, Control_c, 13, 11, 5
1, 3946, Control_c, 12, 11, 3
1, 3946, Control_c, 0, 10, 57
1, 3947, Control_c, 13, 11, 3
1, 3948, Pitch_bend_c, 0, 5760
1, 3956, Control_c, 12, 11, 0
1, 3956, Control_c, 13, 11, 0
1, 3956, Control_c, 0, 10, 59
1, 3960, Pitch_bend_c, 0, 5696
1, 3966, Control_c, 0, 10, 62
1, 3972, Pitch_bend_c, 0, 5632
1, 3980, Control_c, 0, 10, 64
1, 3984, Note_on_c, 10, 42, 70
1, 3984, Pitch_bend_c, 0, 5568
1, 3985, Note_off_c, 10, 42, 64
1, 3990, Control_c, 0, 10, 67
1, 3996, Pitch_bend_c, 0, 5504
1, 4000, Control_c, 0, 10, 71
1, 4008, Pitch_bend_c, 0, 5440
1, 4009, Control_c, 0, 10, 73
1, 4019, Control_c, 0, 10, 76
1, 4020, Pitch_bend_c, 0, 5376
1, 4029, Control_c, 0, 10, 77
1, 4032, Note_on_c, 10, 42, 103
1, 4032, Pitch_bend_c, 0, 5312
1, 4033, Note_off_c, 10, 42, 64
1, 4039, Control_c, 0, 10, 79
1, 4044, Pitch_bend_c, 0, 5248
1, 4048, Control_c, 0, 10, 81
1, 4056, Pitch_bend_c, 0, 5184
1, 4058, Control_c, 0, 10, 83
1, 4068, Pitch_bend_c, 0, 5120
1, 4072, Control_c, 0, 10, 86
1, 4080, Note_on_c, 10, 42, 119
1, 4080, Note_on_c, 10, 36, 90
1, 4080, Pitch_bend_c, 0, 5056
1, 4081, Note_off_c, 10, 36, 64
1, 4081, Note_off_c, 10, 42, 64
1, 4082, Control_c, 0, 10, 88
1, 4092, Pitch_bend_c, 0, 4992
1, 4092, Control_c, 0, 10, 90
1, 4104, Pitch_bend_c, 0, 4928
1, 4106, Control_c, 0, 10, 91
1, 4116, Pitch_bend_c, 0, 4864
1, 4116, Control_c, 0, 10, 93
1, 4126, Control_c, 0, 10, 96
1, 4128, Note_on_c, 10, 42, 107
1, 4128, Note_on_c, 10, 38, 93
1, 4128, Pitch_bend_c, 0, 4800
1, 4129, Note_off_c, 10, 38, 64
1, 4129, Note_off_c, 10, 42, 64
1, 4129, Note_on_c, 9, 39, 126
1, 4130, Note_off_c, 9, 39, 64
1, 4135, Note_on_c, 10, 39, 127
1, 4136, Note_off_c, 10, 39, 64
1, 4140, Pitch_bend_c, 0, 4736
1, 4140, Control_c, 0, 10, 98
1, 4150, Control_c, 0, 10, 100
1, 4152, Pitch_bend_c, 0, 4672
1, 4164, Pitch_bend_c, 0, 4608
1, 4164, Control_c, 0, 10, 102
1, 4174, Control_c, 0, 10, 104
1, 4176, Note_on_c, 10, 42, 101
1, 4176, Pitch_bend_c, 0, 4544
1, 4177, Note_off_c, 10, 42, 64
1, 4184, Control_c, 0, 10, 106
1, 4188, Pitch_bend_c, 0, 4480
1, 4194, Control_c, 0, 10, 108
1, 4200, Pitch_bend_c, 0, 4416
1, 4203, Control_c, 0, 10, 110
1, 4212, Pitch_bend_c, 0, 4352
1, 4213, Control_c, 0, 10, 111
1, 4220, Note_off_c, 13, 26, 64
1, 4223, Control_c, 0, 10, 113
1, 4224, Note_on_c, 10, 42, 115
1, 4224, Note_on_c, 10, 36, 82
1, 4224, Pitch_bend_c, 0, 4288
1, 4225, Note_off_c, 10, 36, 64
1, 4225, Note_off_c, 10, 42, 64
1, 4232, Control_c, 0, 10, 114
1, 4236, Pitch_bend_c, 0, 4224
1, 4242, Control_c, 0, 10, 116
1, 4248, Pitch_bend_c, 0, 4160
1, 4252, Control_c, 0, 10, 119
1, 4260, Pitch_bend_c, 0, 4096
1, 4266, Control_c, 0, 10, 120
1, 4272, Note_on_c, 10, 42, 67
1, 4272, Pitch_bend_c, 0, 4032
1, 4273, Note_off_c, 10, 42, 64
1, 4276, Control_c, 0, 10, 122
1, 4284, Pitch_bend_c, 0, 3968
1, 4296, Pitch_bend_c, 0, 3904
1, 4300, Control_c, 0, 10, 124
1, 4308, Pitch_bend_c, 0, 3840
1, 4319, Control_c, 0, 10, 125
1, 4320, Note_on_c, 10, 42, 109
1, 4320, Note_on_c, 10, 38, 93
1, 4320, Pitch_bend_c, 0, 3776
1, 4321, Note_off_c, 10, 38, 64
1, 4321, Note_off_c, 10, 42, 64
1, 4329, Control_c, 0, 10, 126
1, 4332, Pitch_bend_c, 0, 3712
1, 4344, Pitch_bend_c, 0, 3648
1, 4353, Control_c, 0, 10, 127
1, 4356, Pitch_bend_c, 0, 3584
1, 4368, Note_on_c, 10, 42, 56
1, 4368, Pitch_bend_c, 0, 3520
1, 4369, Note_off_c, 10, 42, 64
1, 4380, Pitch_bend_c, 0, 3456
1, 4392, Pitch_bend_c, 0, 3392
1, 4404, Pitch_bend_c, 0, 3328
1, 4416, Note_on_c, 10, 42, 101
1, 4416, Note_on_c, 10, 36, 86
1, 4416, Pitch_bend_c, 0, 3264
1, 4417, Note_off_c, 10, 36, 64
1, 4417, Note_off_c, 10, 42, 64
1, 4428, Pitch_bend_c, 0, 3200
1, 4440, Pitch_bend_c, 0, 3136
1, 4452, Pitch_bend_c, 0, 3072
1, 4464, Note_on_c, 10, 42, 64
1, 4464, Pitch_bend_c, 0, 3008
1, 4465, Note_off_c, 10, 42, 64
1, 4476, Pitch_bend_c, 0, 2944
1, 4488, Pitch_bend_c, 0, 2880
1, 4500, Pitch_bend_c, 0, 2816
1, 4512, Note_on_c, 10, 42, 109
1, 4512, Note_on_c, 10, 38, 89
1, 4512, Pitch_bend_c, 0, 2752
1, 4513, Note_off_c, 10, 38, 64
1, 4513, Note_off_c, 10, 42, 64
1, 4513, Note_on_c, 9, 39, 126
1, 4514, Note_off_c, 9, 39, 64
1, 4519, Note_on_c, 10, 39, 127
1, 4520, Note_off_c, 10, 39, 64
1, 4522, Note_off_c, 0, 83, 64
1, 4524, Pitch_bend_c, 0, 2688
1, 4536, Pitch_bend_c, 0, 2624
1, 4548, Pitch_bend_c, 0, 2560
1, 4560, Note_on_c, 10, 42, 92
1, 4561, Note_off_c, 10, 42, 64
1, 4608, Note_on_c, 10, 42, 109
1, 4608, Note_on_c, 10, 36, 90
1, 4609, Note_off_c, 10, 36, 64
1, 4609, Note_off_c, 10, 42, 64
1, 4656, Note_on_c, 10, 42, 64
1, 4657, Note_off_c, 10, 42, 64
1, 4704, Note_on_c, 10, 42, 117
1, 4704, Note_on_c, 10, 36, 90
1, 4704, Note_on_c, 10, 38, 90
1, 4705, Note_off_c, 10, 38, 64
1, 4705, Note_off_c, 10, 36, 64
1, 4705, Note_off_c, 10, 42, 64
1, 4752, Note_on_c, 10, 42, 70
1, 4753, Note_off_c, 10, 42, 64
1, 4800, Note_on_c, 10, 42, 103
1, 4801, Note_off_c, 10, 42, 64
1, 4848, Note_on_c, 10, 42, 119
1, 4848, Note_on_c, 10, 36, 90
1, 4849, Note_off_c, 10, 36, 64
1, 4849, Note_off_c, 10, 42, 64
1, 4896, Note_on_c, 10, 42, 107
1, 4896, Note_on_c, 10, 38, 93
1, 4897, Note_off_c, 10, 38, 64
1, 4897, Note_off_c, 10, 42, 64
1, 4897, Note_on_c, 9, 39, 126
1, 4898, Note_off_c, 9, 39, 64
1, 4903, Note_on_c, 10, 39, 127
1, 4904, Note_off_c, 10, 39, 64
1, 4908, Control_c, 12, 11, 127
1, 4908, Control_c, 13, 11, 127
1, 4944, Note_on_c, 10, 42, 101
1, 4945, Note_off_c, 10, 42, 64
1, 4992, Note_on_c, 10, 42, 115
1, 4992, Note_on_c, 10, 36, 82
1, 4993, Note_off_c, 10, 36, 64
1, 4993, Note_off_c, 10, 42, 64
1, 5040, Note_on_c, 10, 42, 67
1, 5040, Note_on_c, 9, 69, 76
1, 5041, Note_off_c, 9, 69, 64
1, 5041, Note_off_c, 10, 42, 64
1, 5088, Note_on_c, 10, 42, 109
1, 5088, Note_on_c, 10, 38, 93
1, 5088, Note_on_c, 9, 69, 89
1, 5089, Note_off_c, 9, 69, 64
1, 5089, Note_off_c, 10, 38, 64
1, 5089, Note_off_c, 10, 42, 64
1, 5136, Note_on_c, 10, 42, 56
1, 5137, Note_off_c, 10, 42, 64
1, 5184, Note_on_c, 10, 42, 101
1, 5184, Note_on_c, 10, 36, 86
1, 5184, Note_on_c, 9, 69, 85
1, 5185, Note_off_c, 9, 69, 64
1, 5185, Note_off_c, 10, 36, 64
1, 5185, Note_off_c, 10, 42, 64
1, 5232, Note_on_c, 10, 42, 64
1, 5233, Note_off_c, 10, 42, 64
1, 5280, Note_on_c, 10, 42, 109
1, 5280, Note_on_c, 10, 38, 89
1, 5281, Note_off_c, 10, 38, 64
1, 5281, Note_off_c, 10, 42, 64
1, 5281, Note_on_c, 9, 39, 126
1, 5282, Note_off_c, 9, 39, 64
1, 5287, Note_on_c, 10, 39, 127
1, 5288, Note_off_c, 10, 39, 64
1, 5328, Note_on_c, 10, 42, 92
1, 5328, Note_on_c, 9, 69, 81
1, 5329, Note_off_c, 9, 69, 64
1, 5329, Note_off_c, 10, 42, 64
1, 5370, Control_c, 0, 10, 64
1, 5376, Note_on_c, 10, 42, 109
1, 5376, Note_on_c, 10, 36, 90
1, 5376, Note_on_c, 9, 69, 90
1, 5377, Note_off_c, 9, 69, 64
1, 5377, Note_off_c, 10, 36, 64
1, 5377, Note_off_c, 10, 42, 64
1, 5423, Pitch_bend_c, 8, 8192
1, 5424, Note_on_c, 10, 42, 64
1, 5425, Note_off_c, 10, 42, 64
1, 5472, Note_on_c, 10, 42, 117
1, 5472, Note_on_c, 10, 36, 90
1, 5472, Pitch_bend_c, 1, 8192
1, 5472, Note_on_c, 10, 38, 90
1, 5472, Note_on_c, 9, 69, 93
1, 5473, Note_off_c, 9, 69, 64
1, 5473, Note_off_c, 10, 38, 64
1, 5473, Note_off_c, 10, 36, 64
1, 5473, Note_off_c, 10, 42, 64
1, 5520, Note_on_c, 10, 42, 70
1, 5521, Note_off_c, 10, 42, 64
1, 5568, Note_on_c, 10, 42, 103
1, 5569, Note_off_c, 10, 42, 64
1, 5616, Note_on_c, 9, 38, 123
1, 5616, Note_on_c, 10, 42, 119
1, 5616, Note_on_c, 10, 36, 90
1, 5617, Note_off_c, 10, 36, 64
1, 5617, Note_off_c, 10, 42, 64
1, 5617, Note_off_c, 9, 38, 64
1, 5664, Note_on_c, 9, 38, 125
1, 5664, Note_on_c, 10, 42, 107
1, 5664, Note_on_c, 10, 38, 93
1, 5664, Control_c, 0, 99, 1
1, 5665, Note_off_c, 10, 38, 64
1, 5665, Note_off_c, 10, 42, 64
1, 5665, Note_off_c, 9, 38, 64
1, 5665, Control_c, 0, 98, 100
1, 5665, Note_on_c, 9, 39, 126
1, 5666, Note_off_c, 9, 39, 64
1, 5666, Control_c, 0, 6, 64
1, 5667, Control_c, 0, 99, 1
1, 5668, Control_c, 0, 98, 99
1, 5669, Control_c, 0, 6, 64
1, 5670, Control_c, 0, 101, 127
1, 5671, Note_on_c, 10, 39, 127
1, 5671, Control_c, 0, 100, 127
1, 5672, Note_off_c, 10, 39, 64
1, 5709, Pitch_bend_c, 5, 6077
1, 5710, Note_on_c, 5, 39, 114
1, 5711, Pitch_bend_c, 4, 6272
1, 5712, Note_on_c, 9, 38, 105
1, 5712, Note_on_c, 9, 36, 107
1, 5712, Note_on_c, 9, 49, 123
1, 5712, Note_on_c, 10, 42, 101
1, 5712, Note_on_c, 1, 27, 127
1, 5712, Note_on_c, 4, 39, 114
1, 5712, Note_on_c, 8, 39, 75
1, 5713, Note_off_c, 10, 42, 64
1, 5713, Note_off_c, 9, 49, 64
1, 5713, Note_off_c, 9, 36, 64
1, 5713, Note_off_c, 9, 38, 64
1, 5713, Pitch_bend_c, 5, 6288
1, 5715, Pitch_bend_c, 4, 6464
1, 5717, Pitch_bend_c, 5, 6429
1, 5719, Pitch_bend_c, 4, 6592
1, 5721, Pitch_bend_c, 5, 6641
1, 5723, Pitch_bend_c, 4, 6784
1, 5725, Pitch_bend_c, 5, 6782
1, 5727, Pitch_bend_c, 4, 6912
1, 5729, Pitch_bend_c, 5, 7134
1, 5731, Pitch_bend_c, 4, 7232
1, 5732, Pitch_bend_c, 5, 7628
1, 5734, Pitch_bend_c, 4, 7680
1, 5736, Pitch_bend_c, 5, 7855
1, 5738, Pitch_bend_c, 4, 7886
1, 5740, Pitch_bend_c, 5, 8192
1, 5742, Pitch_bend_c, 4, 8192
1, 5760, Note_on_c, 9, 42, 110
1, 5760, Note_on_c, 9, 36, 90
1, 5761, Note_off_c, 9, 36, 64
1, 5761, Note_off_c, 9, 42, 64
1, 5802, Note_off_c, 8, 39, 64
1, 5804, Note_off_c, 5, 39, 64
1, 5806, Note_off_c, 4, 39, 64
1, 5806, Note_off_c, 1, 27, 64
1, 5806, Note_on_c, 5, 42, 114
1, 5808, Note_on_c, 9, 42, 50
1, 5808, Note_on_c, 1, 30, 127
1, 5808, Note_on_c, 4, 42, 114
1, 5808, Note_on_c, 8, 42, 92
1, 5809, Note_off_c, 9, 42, 64
1, 5810, Pitch_bend_c, 0, 8192
1, 5853, Note_off_c, 5, 42, 64
1, 5854, Note_on_c, 5, 46, 114
1, 5855, Note_off_c, 1, 30, 64
1, 5855, Note_off_c, 8, 42, 64
1, 5855, Note_off_c, 4, 42, 64
1, 5856, Note_on_c, 9, 42, 110
1, 5856, Note_on_c, 9, 38, 115
1, 5856, Note_on_c, 1, 34, 127
1, 5856, Note_on_c, 4, 46, 114
1, 5856, Note_on_c, 8, 46, 92
1, 5857, Note_off_c, 9, 38, 64
1, 5857, Note_off_c, 9, 42, 64
1, 5901, Note_off_c, 5, 46, 64
1, 5902, Note_on_c, 5, 54, 114
1, 5903, Note_off_c, 8, 46, 64
1, 5903, Note_off_c, 4, 46, 64
1, 5903, Note_off_c, 1, 34, 64
1, 5904, Note_on_c, 9, 42, 50
1, 5904, Note_on_c, 1, 42, 127
1, 5904, Note_on_c, 4, 54, 114
1, 5904, Note_on_c, 8, 54, 92
1, 5905, Note_off_c, 9, 42, 64
1, 5949, Note_off_c, 5, 54, 64
1, 5950, Note_on_c, 5, 51, 114
1, 5951, Note_off_c, 1, 42, 64
1, 5951, Note_off_c, 8, 54, 64
1, 5951, Note_off_c, 4, 54, 64
1, 5952, Note_on_c, 9, 42, 110
1, 5952, Note_on_c, 9, 36, 90
1, 5952, Note_on_c, 1, 39, 127
1, 5952, Note_on_c, 4, 51, 114
1, 5952, Note_on_c, 8, 51, 92
1, 5953, Note_off_c, 9, 36, 64
1, 5953, Note_off_c, 9, 42, 64
1, 5963, Pitch_bend_c, 5, 8249
1, 5965, Pitch_bend_c, 4, 8244
1, 5967, Pitch_bend_c, 5, 8708
1, 5969, Pitch_bend_c, 4, 8660
1, 5974, Pitch_bend_c, 5, 8364
1, 5976, Pitch_bend_c, 4, 8348
1, 5978, Pitch_bend_c, 5, 8192
1, 5980, Pitch_bend_c, 4, 8192
1, 5994, Pitch_bend_c, 5, 8249
1, 5996, Pitch_bend_c, 4, 8244
1, 5998, Pitch_bend_c, 5, 8478
1, 6000, Note_on_c, 9, 42, 50
1, 6000, Pitch_bend_c, 4, 8452
1, 6001, Note_off_c, 9, 42, 64
1, 6001, Pitch_bend_c, 5, 8708
1, 6003, Pitch_bend_c, 4, 8660
1, 6009, Pitch_bend_c, 5, 8593
1, 6011, Pitch_bend_c, 4, 8556
1, 6013, Pitch_bend_c, 5, 8192
1, 6015, Pitch_bend_c, 4, 8192
1, 6025, Pitch_bend_c, 5, 8249
1, 6027, Pitch_bend_c, 4, 8244
1, 6029, Pitch_bend_c, 5, 8823
1, 6031, Pitch_bend_c, 4, 8765
1, 6033, Pitch_bend_c, 5, 9052
1, 6035, Pitch_bend_c, 4, 8973
1, 6040, Pitch_bend_c, 5, 8364
1, 6042, Pitch_bend_c, 4, 8348
1, 6045, Pitch_bend_c, 5, 8192
1, 6047, Pitch_bend_c, 4, 8192
1, 6048, Note_on_c, 9, 42, 110
1, 6048, Note_on_c, 9, 38, 115
1, 6049, Note_off_c, 9, 38, 64
1, 6049, Note_off_c, 9, 42, 64
1, 6049, Note_on_c, 9, 39, 127
1, 6050, Note_off_c, 9, 39, 64
1, 6052, Pitch_bend_c, 5, 8593
1, 6054, Pitch_bend_c, 4, 8556
1, 6055, Note_on_c, 10, 39, 127
1, 6056, Note_off_c, 10, 39, 64
1, 6056, Pitch_bend_c, 5, 9453
1, 6058, Pitch_bend_c, 4, 9337
1, 6060, Pitch_bend_c, 5, 9797
1, 6062, Pitch_bend_c, 4, 9649
1, 6068, Pitch_bend_c, 5, 9110
1, 6070, Pitch_bend_c, 4, 9025
1, 6072, Pitch_bend_c, 5, 8192
1, 6074, Pitch_bend_c, 4, 8192
1, 6091, Note_off_c, 5, 51, 64
1, 6093, Note_off_c, 8, 51, 64
1, 6093, Note_off_c, 4, 51, 64
1, 6093, Note_off_c, 1, 39, 64
1, 6093, Note_on_c, 5, 51, 114
1, 6095, Note_on_c, 1, 39, 127
1, 6095, Note_on_c, 4, 51, 114
1, 6095, Note_on_c, 8, 51, 92
1, 6096, Note_on_c, 9, 42, 50
1, 6097, Note_off_c, 9, 42, 64
1, 6098, Pitch_bend_c, 5, 10307
1, 6098, Pitch_bend_c, 8, 12288
1, 6100, Pitch_bend_c, 4, 10112
1, 6101, Pitch_bend_c, 1, 16320
1, 6101, Pitch_bend_c, 8, 16320
1, 6105, Pitch_bend_c, 5, 14890
1, 6107, Pitch_bend_c, 5, 16383
1, 6107, Pitch_bend_c, 4, 14272
1, 6109, Pitch_bend_c, 4, 16320
1, 6144, Note_on_c, 9, 42, 110
1, 6144, Note_on_c, 9, 36, 90
1, 6145, Note_off_c, 9, 36, 64
1, 6145, Note_off_c, 9, 42, 64
1, 6184, Note_off_c, 5, 51, 64
1, 6186, Note_off_c, 4, 51, 64
1, 6189, Note_off_c, 1, 39, 64
1, 6189, Note_off_c, 8, 51, 64
1, 6189, Pitch_bend_c, 5, 8192
1, 6190, Note_on_c, 5, 51, 114
1, 6191, Pitch_bend_c, 1, 8192
1, 6191, Pitch_bend_c, 4, 8192
1, 6191, Pitch_bend_c, 8, 8192
1, 6192, Note_on_c, 9, 42, 50
1, 6192, Note_on_c, 1, 39, 127
1, 6192, Note_on_c, 4, 51, 114
1, 6192, Note_on_c, 8, 51, 92
1, 6193, Note_off_c, 9, 42, 64
1, 6235, Note_off_c, 5, 51, 64
1, 6237, Note_off_c, 1, 39, 64
1, 6237, Note_off_c, 8, 51, 64
1, 6237, Note_off_c, 4, 51, 64
1, 6238, Note_on_c, 5, 49, 114
1, 6240, Note_on_c, 9, 42, 110
1, 6240, Note_on_c, 9, 38, 115
1, 6240, Note_on_c, 9, 36, 90
1, 6240, Note_on_c, 1, 37, 127
1, 6240, Note_on_c, 4, 49, 114
1, 6240, Note_on_c, 8, 49, 92
1, 6241, Note_off_c, 9, 36, 64
1, 6241, Note_off_c, 9, 38, 64
1, 6241, Note_off_c, 9, 42, 64
1, 6276, Note_off_c, 5, 49, 64
1, 6278, Note_off_c, 4, 49, 64
1, 6278, Note_off_c, 1, 37, 64
1, 6278, Note_off_c, 8, 49, 64
1, 6288, Note_on_c, 9, 42, 50
1, 6289, Note_off_c, 9, 42, 64
1, 6334, Note_on_c, 5, 49, 114
1, 6336, Note_on_c, 9, 42, 110
1, 6336, Note_on_c, 1, 37, 127
1, 6336, Note_on_c, 4, 49, 114
1, 6336, Note_on_c, 8, 49, 92
1, 6337, Note_off_c, 9, 42, 64
1, 6371, Note_off_c, 1, 37, 64
1, 6371, Note_off_c, 8, 49, 64
1, 6374, Note_off_c, 5, 49, 64
1, 6376, Note_off_c, 4, 49, 64
1, 6384, Note_on_c, 9, 42, 50
1, 6384, Note_on_c, 9, 36, 90
1, 6385, Note_off_c, 9, 36, 64
1, 6385, Note_off_c, 9, 42, 64
1, 6432, Note_on_c, 9, 42, 110
1, 6432, Note_on_c, 9, 38, 115
1, 6433, Note_off_c, 9, 38, 64
1, 6433, Note_off_c, 9, 42, 64
1, 6433, Note_on_c, 9, 39, 127
1, 6434, Note_off_c, 9, 39, 64
1, 6439, Note_on_c, 10, 39, 127
1, 6440, Note_off_c, 10, 39, 64
1, 6478, Note_on_c, 5, 39, 114
1, 6480, Note_on_c, 9, 42, 50
1, 6480, Note_on_c, 1, 27, 127
1, 6480, Note_on_c, 4, 39, 114
1, 6480, Note_on_c, 8, 39, 92
1, 6481, Note_off_c, 9, 42, 64
1, 6528, Note_on_c, 9, 42, 110
1, 6528, Note_on_c, 9, 36, 90
1, 6529, Note_off_c, 9, 36, 64
1, 6529, Note_off_c, 9, 42, 64
1, 6572, Note_off_c, 5, 39, 64
1, 6574, Note_off_c, 1, 27, 64
1, 6574, Note_off_c, 8, 39, 64
1, 6574, Note_off_c, 4, 39, 64
1, 6574, Note_on_c, 5, 42, 114
1, 6576, Note_on_c, 9, 42, 50
1, 6576, Note_on_c, 1, 30, 127
1, 6576, Note_on_c, 4, 42, 114
1, 6576, Note_on_c, 8, 42, 92
1, 6577, Note_off_c, 9, 42, 64
1, 6620, Note_off_c, 5, 42, 64
1, 6622, Note_off_c, 1, 30, 64
1, 6622, Note_off_c, 8, 42, 64
1, 6622, Note_off_c, 4, 42, 64
1, 6622, Note_on_c, 5, 46, 114
1, 6624, Note_on_c, 9, 42, 110
1, 6624, Note_on_c, 9, 38, 115
1, 6624, Note_on_c, 1, 34, 127
1, 6624, Note_on_c, 4, 46, 114
1, 6624, Note_on_c, 8, 46, 92
1, 6625, Note_off_c, 9, 38, 64
1, 6625, Note_off_c, 9, 42, 64
1, 6668, Note_off_c, 5, 46, 64
1, 6670, Note_off_c, 8, 46, 64
1, 6670, Note_off_c, 4, 46, 64
1, 6670, Note_off_c, 1, 34, 64
1, 6670, Note_on_c, 5, 54, 114
1, 6672, Note_on_c, 9, 42, 50
1, 6672, Note_on_c, 1, 42, 127
1, 6672, Note_on_c, 4, 54, 114
1, 6672, Note_on_c, 8, 54, 92
1, 6673, Note_off_c, 9, 42, 64
1, 6716, Note_off_c, 5, 54, 64
1, 6718, Note_off_c, 1, 42, 64
1, 6718, Note_off_c, 8, 54, 64
1, 6718, Note_off_c, 4, 54, 64
1, 6718, Note_on_c, 5, 51, 114
1, 6720, Note_on_c, 9, 42, 110
1, 6720, Note_on_c, 9, 36, 90
1, 6720, Note_on_c, 1, 39, 127
1, 6720, Note_on_c, 4, 51, 114
1, 6720, Note_on_c, 8, 51, 92
1, 6721, Note_off_c, 9, 36, 64
1, 6721, Note_off_c, 9, 42, 64
1, 6743, Pitch_bend_c, 5, 8478
1, 6745, Pitch_bend_c, 4, 8452
1, 6747, Pitch_bend_c, 5, 9110
1, 6749, Pitch_bend_c, 4, 9025
1, 6751, Pitch_bend_c, 5, 9568
1, 6753, Pitch_bend_c, 4, 9441
1, 6755, Pitch_bend_c, 5, 9682
1, 6757, Pitch_bend_c, 4, 9545
1, 6763, Pitch_bend_c, 5, 7855
1, 6765, Pitch_bend_c, 4, 7886
1, 6766, Pitch_bend_c, 5, 8192
1, 6768, Note_on_c, 9, 42, 50
1, 6768, Pitch_bend_c, 4, 8192
1, 6769, Note_off_c, 9, 42, 64
1, 6778, Pitch_bend_c, 5, 8249
1, 6780, Pitch_bend_c, 4, 8244
1, 6782, Pitch_bend_c, 5, 9797
1, 6784, Pitch_bend_c, 4, 9649
1, 6786, Pitch_bend_c, 5, 9913
1, 6788, Pitch_bend_c, 4, 9754
1, 6793, Pitch_bend_c, 5, 9110
1, 6795, Pitch_bend_c, 4, 9025
1, 6797, Pitch_bend_c, 5, 8192
1, 6799, Pitch_bend_c, 4, 8192
1, 6805, Pitch_bend_c, 5, 8478
1, 6807, Pitch_bend_c, 4, 8452
1, 6809, Pitch_bend_c, 5, 9568
1, 6811, Pitch_bend_c, 4, 9441
1, 6813, Pitch_bend_c, 5, 9970
1, 6815, Pitch_bend_c, 4, 9806
1, 6816, Note_on_c, 9, 42, 110
1, 6816, Note_on_c, 9, 38, 115
1, 6817, Note_off_c, 9, 38, 64
1, 6817, Note_off_c, 9, 42, 64
1, 6817, Pitch_bend_c, 5, 10084
1, 6817, Note_on_c, 9, 39, 127
1, 6818, Note_off_c, 9, 39, 64
1, 6819, Pitch_bend_c, 4, 9910
1, 6821, Pitch_bend_c, 5, 9913
1, 6823, Note_on_c, 10, 39, 127
1, 6823, Pitch_bend_c, 4, 9754
1, 6824, Note_off_c, 10, 39, 64
1, 6825, Pitch_bend_c, 5, 8192
1, 6827, Pitch_bend_c, 4, 8192
1, 6859, Note_off_c, 5, 51, 64
1, 6861, Note_off_c, 8, 51, 64
1, 6861, Note_off_c, 4, 51, 64
1, 6861, Note_off_c, 1, 39, 64
1, 6861, Note_on_c, 5, 51, 114
1, 6863, Note_on_c, 1, 39, 127
1, 6863, Note_on_c, 4, 51, 114
1, 6863, Note_on_c, 8, 51, 92
1, 6864, Note_on_c, 9, 42, 50
1, 6865, Note_off_c, 9, 42, 64
1, 6866, Pitch_bend_c, 5, 10307
1, 6867, Pitch_bend_c, 8, 12288
1, 6868, Pitch_bend_c, 4, 10112
1, 6870, Pitch_bend_c, 1, 16320
1, 6870, Pitch_bend_c, 8, 16320
1, 6871, Pitch_bend_c, 5, 14890
1, 6871, Pitch_bend_c, 4, 12288
1, 6873, Pitch_bend_c, 5, 16383
1, 6873, Pitch_bend_c, 4, 14272
1, 6875, Pitch_bend_c, 4, 16320
1, 6912, Note_on_c, 9, 42, 110
1, 6912, Note_on_c, 9, 36, 90
1, 6913, Note_off_c, 9, 36, 64
1, 6913, Note_off_c, 9, 42, 64
1, 6956, Note_off_c, 5, 51, 64
1, 6957, Pitch_bend_c, 5, 8192
1, 6958, Note_off_c, 4, 51, 64
1, 6958, Note_off_c, 1, 39, 64
1, 6958, Note_off_c, 8, 51, 64
1, 6958, Note_on_c, 5, 51, 114
1, 6959, Pitch_bend_c, 1, 8192
1, 6959, Pitch_bend_c, 4, 8192
1, 6959, Pitch_bend_c, 8, 8192
1, 6960, Note_on_c, 9, 42, 50
1, 6960, Note_on_c, 1, 39, 127
1, 6960, Note_on_c, 4, 51, 114
1, 6960, Note_on_c, 8, 51, 92
1, 6961, Note_off_c, 9, 42, 64
1, 7000, Note_off_c, 5, 51, 64
1, 7002, Note_off_c, 1, 39, 64
1, 7002, Note_off_c, 8, 51, 64
1, 7002, Note_off_c, 4, 51, 64
1, 7006, Note_on_c, 5, 49, 114
1, 7008, Note_on_c, 9, 42, 110
1, 7008, Note_on_c, 9, 38, 115
1, 7008, Note_on_c, 9, 36, 90
1, 7008, Note_on_c, 1, 37, 127
1, 7008, Note_on_c, 4, 49, 114
1, 7008, Note_on_c, 8, 49, 92
1, 7009, Note_off_c, 9, 36, 64
1, 7009, Note_off_c, 9, 38, 64
1, 7009, Note_off_c, 9, 42, 64
1, 7046, Note_off_c, 8, 49, 64
1, 7046, Note_off_c, 1, 37, 64
1, 7047, Note_off_c, 5, 49, 64
1, 7049, Note_off_c, 4, 49, 64
1, 7056, Note_on_c, 9, 42, 50
1, 7057, Note_off_c, 9, 42, 64
1, 7104, Note_on_c, 9, 42, 110
1, 7105, Note_off_c, 9, 42, 64
1, 7152, Note_on_c, 9, 42, 50
1, 7152, Note_on_c, 9, 36, 90
1, 7153, Note_off_c, 9, 36, 64
1, 7153, Note_off_c, 9, 42, 64
1, 7200, Note_on_c, 9, 42, 110
1, 7200, Note_on_c, 9, 38, 115
1, 7201, Note_off_c, 9, 38, 64
1, 7201, Note_off_c, 9, 42, 64
1, 7201, Note_on_c, 9, 39, 127
1, 7202, Note_off_c, 9, 39, 64
1, 7207, Note_on_c, 10, 39, 127
1, 7208, Note_off_c, 10, 39, 64
1, 7240, Pitch_bend_c, 6, 8192
1, 7245, Pitch_bend_c, 5, 8192
1, 7246, Note_on_c, 5, 39, 114
1, 7247, Pitch_bend_c, 4, 8192
1, 7247, Note_on_c, 6, 70, 127
1, 7248, Note_on_c, 9, 42, 50
1, 7248, Note_on_c, 1, 27, 127
1, 7248, Note_on_c, 4, 39, 114
1, 7248, Note_on_c, 8, 39, 92
1, 7248, Note_on_c, 6, 75, 127
1, 7249, Note_off_c, 9, 42, 64
1, 7249, Note_off_c, 6, 70, 64
1, 7251, Note_off_c, 6, 75, 64
1, 7272, Note_on_c, 6, 70, 127
1, 7273, Note_on_c, 6, 60, 127
1, 7275, Note_off_c, 6, 70, 64
1, 7276, Note_off_c, 6, 60, 64
1, 7296, Note_on_c, 9, 42, 110
1, 7296, Note_on_c, 9, 36, 90
1, 7296, Note_on_c, 6, 75, 127
1, 7297, Note_off_c, 9, 36, 64
1, 7297, Note_off_c, 9, 42, 64
1, 7297, Note_on_c, 6, 60, 127
1, 7299, Note_off_c, 6, 75, 64
1, 7300, Note_off_c, 6, 60, 64
1, 7320, Note_on_c, 6, 70, 127
1, 7321, Note_on_c, 6, 55, 127
1, 7323, Note_off_c, 6, 70, 64
1, 7324, Note_off_c, 6, 55, 64
1, 7341, Note_off_c, 5, 39, 64
1, 7342, Note_on_c, 5, 42, 114
1, 7343, Note_off_c, 4, 39, 64
1, 7343, Note_off_c, 8, 39, 64
1, 7343, Note_off_c, 1, 27, 64
1, 7343, Note_on_c, 6, 68, 127
1, 7344, Note_on_c, 9, 42, 50
1, 7344, Note_on_c, 1, 30, 127
1, 7344, Note_on_c, 4, 42, 114
1, 7344, Note_on_c, 8, 42, 92
1, 7344, Note_on_c, 6, 60, 127
1, 7345, Note_off_c, 9, 42, 64
1, 7346, Note_off_c, 6, 68, 64
1, 7347, Note_off_c, 6, 60, 64
1, 7367, Note_on_c, 6, 61, 127
1, 7369, Note_on_c, 6, 56, 127
1, 7370, Note_off_c, 6, 61, 64
1, 7372, Note_off_c, 6, 56, 64
1, 7389, Note_off_c, 5, 42, 64
1, 7390, Note_on_c, 5, 46, 114
1, 7391, Note_off_c, 4, 42, 64
1, 7391, Note_off_c, 8, 42, 64
1, 7391, Note_off_c, 1, 30, 64
1, 7391, Note_on_c, 6, 66, 127
1, 7392, Note_on_c, 9, 42, 110
1, 7392, Note_on_c, 9, 38, 115
1, 7392, Note_on_c, 1, 34, 127
1, 7392, Note_on_c, 4, 46, 114
1, 7392, Note_on_c, 8, 46, 92
1, 7393, Note_off_c, 9, 38, 64
1, 7393, Note_off_c, 9, 42, 64
1, 7393, Note_on_c, 6, 61, 125
1, 7434, Note_off_c, 6, 66, 64
1, 7436, Note_off_c, 6, 61, 64
1, 7437, Note_off_c, 5, 46, 64
1, 7438, Note_on_c, 5, 54, 114
1, 7439, Note_off_c, 4, 46, 64
1, 7439, Note_off_c, 1, 34, 64
1, 7439, Note_off_c, 8, 46, 64
1, 7440, Note_on_c, 9, 42, 50
1, 7440, Note_on_c, 1, 42, 127
1, 7440, Note_on_c, 4, 54, 114
1, 7440, Note_on_c, 8, 54, 92
1, 7440, Note_on_c, 6, 56, 91
1, 7441, Note_off_c, 9, 42, 64
1, 7441, Note_on_c, 6, 61, 101
1, 7443, Note_off_c, 6, 56, 64
1, 7444, Note_off_c, 6, 61, 64
1, 7463, Note_on_c, 6, 61, 103
1, 7464, Note_on_c, 6, 56, 106
1, 7466, Note_off_c, 6, 61, 64
1, 7467, Note_off_c, 6, 56, 64
1, 7485, Note_off_c, 5, 54, 64
1, 7486, Note_on_c, 5, 51, 114
1, 7487, Note_off_c, 1, 42, 64
1, 7487, Note_off_c, 8, 54, 64
1, 7487, Note_off_c, 4, 54, 64
1, 7487, Note_on_c, 6, 66, 127
1, 7488, Note_on_c, 9, 42, 110
1, 7488, Note_on_c, 9, 36, 90
1, 7488, Note_on_c, 1, 39, 127
1, 7488, Note_on_c, 4, 51, 114
1, 7488, Note_on_c, 8, 51, 92
1, 7489, Note_off_c, 9, 36, 64
1, 7489, Note_off_c, 9, 42, 64
1, 7489, Note_on_c, 6, 61, 127
1, 7499, Pitch_bend_c, 5, 8249
1, 7501, Pitch_bend_c, 4, 8244
1, 7503, Pitch_bend_c, 5, 8708
1, 7505, Pitch_bend_c, 4, 8660
1, 7510, Pitch_bend_c, 5, 8364
1, 7512, Pitch_bend_c, 4, 8348
1, 7514, Pitch_bend_c, 5, 8192
1, 7516, Pitch_bend_c, 4, 8192
1, 7530, Note_off_c, 6, 66, 64
1, 7530, Pitch_bend_c, 5, 8249
1, 7532, Note_off_c, 6, 61, 64
1, 7532, Pitch_bend_c, 4, 8244
1, 7534, Pitch_bend_c, 5, 8478
1, 7535, Note_on_c, 6, 63, 123
1, 7536, Note_on_c, 9, 42, 50
1, 7536, Pitch_bend_c, 4, 8452
1, 7537, Note_off_c, 9, 42, 64
1, 7537, Pitch_bend_c, 5, 8708
1, 7537, Note_on_c, 6, 58, 125
1, 7539, Pitch_bend_c, 4, 8660
1, 7545, Pitch_bend_c, 5, 8593
1, 7547, Pitch_bend_c, 4, 8556
1, 7549, Pitch_bend_c, 5, 8192
1, 7551, Pitch_bend_c, 4, 8192
1, 7561, Pitch_bend_c, 5, 8249
1, 7563, Pitch_bend_c, 4, 8244
1, 7565, Pitch_bend_c, 5, 8823
1, 7567, Pitch_bend_c, 4, 8765
1, 7569, Pitch_bend_c, 5, 9052
1, 7570, Pitch_bend_c, 6, 8287
1, 7571, Pitch_bend_c, 4, 8973
1, 7574, Pitch_bend_c, 6, 8414
1, 7576, Pitch_bend_c, 5, 8364
1, 7578, Pitch_bend_c, 4, 8348
1, 7578, Pitch_bend_c, 6, 8542
1, 7581, Pitch_bend_c, 5, 8192
1, 7583, Pitch_bend_c, 4, 8192
1, 7584, Note_on_c, 9, 42, 110
1, 7584, Note_on_c, 9, 38, 115
1, 7585, Note_off_c, 9, 38, 64
1, 7585, Note_off_c, 9, 42, 64
1, 7585, Note_on_c, 9, 39, 127
1, 7586, Note_off_c, 9, 39, 64
1, 7587, Pitch_bend_c, 6, 8414
1, 7588, Pitch_bend_c, 5, 8593
1, 7590, Pitch_bend_c, 4, 8556
1, 7591, Note_on_c, 10, 39, 127
1, 7591, Pitch_bend_c, 6, 8192
1, 7592, Note_off_c, 10, 39, 64
1, 7592, Pitch_bend_c, 5, 9453
1, 7594, Pitch_bend_c, 4, 9337
1, 7596, Pitch_bend_c, 5, 9797
1, 7598, Pitch_bend_c, 4, 9649
1, 7599, Pitch_bend_c, 6, 8223
1, 7603, Pitch_bend_c, 6, 8764
1, 7604, Pitch_bend_c, 5, 9110
1, 7606, Pitch_bend_c, 4, 9025
1, 7608, Pitch_bend_c, 5, 8192
1, 7608, Pitch_bend_c, 6, 8828
1, 7610, Pitch_bend_c, 4, 8192
1, 7612, Pitch_bend_c, 6, 8764
1, 7616, Pitch_bend_c, 6, 8192
1, 7626, Note_off_c, 6, 63, 64
1, 7627, Note_off_c, 5, 51, 64
1, 7628, Note_off_c, 6, 58, 64
1, 7629, Note_off_c, 4, 51, 64
1, 7629, Note_off_c, 1, 39, 64
1, 7629, Note_off_c, 8, 51, 64
1, 7629, Note_on_c, 5, 51, 114
1, 7629, Pitch_bend_c, 6, 8605
1, 7631, Note_on_c, 1, 39, 127
1, 7631, Note_on_c, 4, 51, 114
1, 7631, Note_on_c, 8, 51, 92
1, 7631, Note_on_c, 6, 63, 115
1, 7632, Note_on_c, 9, 42, 50
1, 7633, Note_off_c, 9, 42, 64
1, 7633, Pitch_bend_c, 6, 8764
1, 7633, Note_on_c, 6, 58, 115
1, 7634, Note_off_c, 6, 63, 64
1, 7634, Pitch_bend_c, 5, 9472
1, 7634, Pitch_bend_c, 5, 10307
1, 7634, Pitch_bend_c, 8, 12288
1, 7636, Note_off_c, 6, 58, 64
1, 7636, Pitch_bend_c, 4, 10112
1, 7637, Pitch_bend_c, 1, 16320
1, 7637, Pitch_bend_c, 8, 16320
1, 7637, Pitch_bend_c, 6, 8828
1, 7641, Pitch_bend_c, 5, 14890
1, 7641, Pitch_bend_c, 6, 8700
1, 7643, Pitch_bend_c, 5, 16383
1, 7643, Pitch_bend_c, 4, 14272
1, 7645, Pitch_bend_c, 4, 16320
1, 7646, Pitch_bend_c, 6, 8005
1, 7650, Pitch_bend_c, 6, 8192
1, 7654, Pitch_bend_c, 6, 8287
1, 7655, Note_on_c, 6, 63, 115
1, 7656, Note_on_c, 6, 58, 117
1, 7658, Note_off_c, 6, 63, 64
1, 7658, Pitch_bend_c, 6, 8669
1, 7659, Note_off_c, 6, 58, 64
1, 7662, Pitch_bend_c, 6, 8351
1, 7667, Pitch_bend_c, 6, 8192
1, 7680, Note_on_c, 9, 42, 110
1, 7680, Note_on_c, 9, 36, 90
1, 7680, Note_on_c, 6, 70, 110
1, 7681, Note_off_c, 9, 36, 64
1, 7681, Note_off_c, 9, 42, 64
1, 7681, Note_on_c, 6, 61, 127
1, 7720, Note_off_c, 5, 51, 64
1, 7722, Note_off_c, 4, 51, 64
1, 7723, Note_off_c, 6, 70, 64
1, 7724, Note_off_c, 6, 61, 64
1, 7725, Note_off_c, 1, 39, 64
1, 7725, Note_off_c, 8, 51, 64
1, 7725, Pitch_bend_c, 5, 8192
1, 7726, Note_on_c, 5, 51, 114
1, 7727, Pitch_bend_c, 1, 8192
1, 7727, Pitch_bend_c, 4, 8192
1, 7727, Pitch_bend_c, 8, 8192
1, 7728, Note_on_c, 9, 42, 50
1, 7728, Note_on_c, 1, 39, 127
1, 7728, Note_on_c, 4, 51, 114
1, 7728, Note_on_c, 8, 51, 92
1, 7728, Note_on_c, 6, 56, 106
1, 7729, Note_off_c, 9, 42, 64
1, 7729, Note_on_c, 6, 61, 100
1, 7731, Note_off_c, 6, 56, 64
1, 7732, Note_off_c, 6, 61, 64
1, 7751, Note_on_c, 6, 61, 110
1, 7752, Note_on_c, 6, 56, 117
1, 7754, Note_off_c, 6, 61, 64
1, 7755, Note_off_c, 6, 56, 64
1, 7771, Note_off_c, 5, 51, 64
1, 7773, Note_off_c, 1, 39, 64
1, 7773, Note_off_c, 8, 51, 64
1, 7773, Note_off_c, 4, 51, 64
1, 7774, Note_on_c, 5, 49, 114
1, 7776, Note_on_c, 9, 42, 110
1, 7776, Note_on_c, 9, 38, 115
1, 7776, Note_on_c, 9, 36, 90
1, 7776, Note_on_c, 1, 37, 127
1, 7776, Note_on_c, 4, 49, 114
1, 7776, Note_on_c, 8, 49, 92
1, 7776, Note_on_c, 6, 61, 127
1, 7777, Note_off_c, 9, 36, 64
1, 7777, Note_off_c, 9, 38, 64
1, 7777, Note_off_c, 9, 42, 64
1, 7777, Note_on_c, 6, 65, 103
1, 7812, Note_off_c, 5, 49, 64
1, 7814, Note_off_c, 1, 37, 64
1, 7814, Note_off_c, 8, 49, 64
1, 7814, Note_off_c, 4, 49, 64
1, 7819, Note_off_c, 6, 61, 64
1, 7820, Note_off_c, 6, 65, 64
1, 7823, Note_on_c, 6, 61, 123
1, 7824, Note_on_c, 9, 42, 50
1, 7825, Note_off_c, 9, 42, 64
1, 7825, Note_on_c, 6, 56, 127
1, 7844, Pitch_bend_c, 6, 8223
1, 7848, Pitch_bend_c, 6, 8605
1, 7852, Pitch_bend_c, 6, 8764
1, 7857, Pitch_bend_c, 6, 8891
1, 7861, Pitch_bend_c, 6, 8764
1, 7865, Pitch_bend_c, 6, 8351
1, 7869, Pitch_bend_c, 6, 8192
1, 7870, Note_on_c, 5, 49, 114
1, 7872, Note_on_c, 9, 42, 110
1, 7872, Note_on_c, 1, 37, 127
1, 7872, Note_on_c, 4, 49, 114
1, 7872, Note_on_c, 8, 49, 92
1, 7873, Note_off_c, 9, 42, 64
1, 7886, Pitch_bend_c, 6, 8351
1, 7890, Pitch_bend_c, 6, 8700
1, 7895, Pitch_bend_c, 6, 8764
1, 7899, Pitch_bend_c, 6, 8700
1, 7903, Pitch_bend_c, 6, 8005
1, 7907, Note_off_c, 1, 37, 64
1, 7907, Note_off_c, 8, 49, 64
1, 7907, Pitch_bend_c, 6, 8192
1, 7910, Note_off_c, 5, 49, 64
1, 7912, Note_off_c, 4, 49, 64
1, 7920, Note_on_c, 9, 42, 50
1, 7920, Note_on_c, 9, 36, 90
1, 7921, Note_off_c, 9, 36, 64
1, 7921, Note_off_c, 9, 42, 64
1, 7938, Note_off_c, 6, 61, 64
1, 7939, Note_off_c, 6, 56, 64
1, 7940, Note_on_c, 6, 60, 94
1, 7940, Note_on_c, 6, 55, 94
1, 7948, Note_off_c, 6, 55, 64
1, 7948, Note_off_c, 6, 60, 64
1, 7948, Note_on_c, 6, 54, 90
1, 7948, Note_on_c, 6, 59, 90
1, 7956, Note_off_c, 6, 59, 64
1, 7956, Note_off_c, 6, 54, 64
1, 7956, Note_on_c, 6, 53, 86
1, 7956, Note_on_c, 6, 58, 86
1, 7964, Note_off_c, 6, 58, 64
1, 7964, Note_off_c, 6, 53, 64
1, 7964, Note_on_c, 6, 52, 84
1, 7964, Note_on_c, 6, 57, 84
1, 7968, Note_on_c, 9, 42, 110
1, 7968, Note_on_c, 9, 38, 115
1, 7969, Note_off_c, 9, 38, 64
1, 7969, Note_off_c, 9, 42, 64
1, 7969, Note_on_c, 9, 39, 127
1, 7970, Note_off_c, 9, 39, 64
1, 7972, Note_off_c, 6, 57, 64
1, 7972, Note_off_c, 6, 52, 64
1, 7972, Note_on_c, 6, 51, 82
1, 7972, Note_on_c, 6, 56, 82
1, 7975, Note_on_c, 10, 39, 127
1, 7976, Note_off_c, 10, 39, 64
1, 7980, Note_off_c, 6, 56, 64
1, 7980, Note_off_c, 6, 51, 64
1, 7980, Note_on_c, 6, 50, 80
1, 7980, Note_on_c, 6, 55, 80
1, 7988, Note_off_c, 6, 55, 64
1, 7988, Note_off_c, 6, 50, 64
1, 7988, Note_on_c, 6, 54, 79
1, 7988, Note_on_c, 6, 49, 79
1, 7996, Note_off_c, 6, 49, 64
1, 7996, Note_off_c, 6, 54, 64
1, 7996, Note_on_c, 6, 48, 78
1, 7996, Note_on_c, 6, 53, 78
1, 8004, Note_off_c, 6, 53, 64
1, 8004, Note_off_c, 6, 48, 64
1, 8004, Note_on_c, 6, 52, 76
1, 8004, Note_on_c, 6, 47, 76
1, 8012, Note_off_c, 6, 47, 64
1, 8012, Note_off_c, 6, 52, 64
1, 8012, Note_on_c, 6, 46, 75
1, 8012, Note_on_c, 6, 51, 75
1, 8014, Note_on_c, 5, 39, 114
1, 8016, Note_on_c, 9, 42, 50
1, 8016, Note_on_c, 1, 27, 127
1, 8016, Note_on_c, 4, 39, 114
1, 8016, Note_on_c, 8, 39, 92
1, 8017, Note_off_c, 9, 42, 64
1, 8020, Note_off_c, 6, 51, 64
1, 8020, Note_off_c, 6, 46, 64
1, 8020, Note_on_c, 6, 45, 71
1, 8020, Note_on_c, 6, 50, 71
1, 8028, Note_off_c, 6, 50, 64
1, 8028, Note_off_c, 6, 45, 64
1, 8028, Note_on_c, 6, 44, 71
1, 8028, Note_on_c, 6, 49, 60
1, 8036, Note_off_c, 6, 49, 64
1, 8036, Note_off_c, 6, 44, 64
1, 8036, Note_on_c, 6, 43, 60
1, 8036, Note_on_c, 6, 48, 50
1, 8044, Note_off_c, 6, 48, 64
1, 8044, Note_off_c, 6, 43, 64
1, 8044, Note_on_c, 6, 42, 50
1, 8044, Note_on_c, 6, 47, 40
1, 8052, Note_off_c, 6, 47, 64
1, 8052, Note_off_c, 6, 42, 64
1, 8052, Note_on_c, 6, 41, 40
1, 8052, Note_on_c, 6, 46, 40
1, 8060, Note_off_c, 6, 46, 64
1, 8060, Note_off_c, 6, 41, 64
1, 8060, Note_on_c, 6, 45, 40
1, 8060, Note_on_c, 6, 40, 40
1, 8064, Note_on_c, 9, 42, 110
1, 8064, Note_on_c, 9, 36, 90
1, 8064, Note_on_c, 6, 61, 113
1, 8065, Note_off_c, 9, 36, 64
1, 8065, Note_off_c, 9, 42, 64
1, 8065, Note_on_c, 6, 56, 125
1, 8067, Note_off_c, 6, 61, 64
1, 8068, Note_off_c, 6, 56, 64
1, 8068, Note_off_c, 6, 40, 64
1, 8068, Note_off_c, 6, 45, 64
1, 8089, Note_on_c, 6, 56, 125
1, 8090, Note_off_c, 6, 56, 64
1, 8108, Note_off_c, 5, 39, 64
1, 8110, Note_off_c, 8, 39, 64
1, 8110, Note_off_c, 4, 39, 64
1, 8110, Note_off_c, 1, 27, 64
1, 8110, Note_on_c, 5, 42, 114
1, 8111, Note_on_c, 6, 61, 121
1, 8112, Note_on_c, 9, 42, 50
1, 8112, Note_on_c, 1, 30, 127
1, 8112, Note_on_c, 4, 42, 114
1, 8112, Note_on_c, 8, 42, 92
1, 8112, Note_on_c, 6, 56, 121
1, 8113, Note_off_c, 9, 42, 64
1, 8114, Note_off_c, 6, 61, 64
1, 8115, Note_off_c, 6, 56, 64
1, 8135, Note_on_c, 6, 61, 116
1, 8137, Note_on_c, 6, 56, 115
1, 8138, Note_off_c, 6, 61, 64
1, 8140, Note_off_c, 6, 56, 64
1, 8156, Note_off_c, 5, 42, 64
1, 8158, Note_off_c, 4, 42, 64
1, 8158, Note_off_c, 8, 42, 64
1, 8158, Note_off_c, 1, 30, 64
1, 8158, Note_on_c, 5, 46, 114
1, 8159, Note_on_c, 6, 66, 127
1, 8160, Note_on_c, 9, 42, 110
1, 8160, Note_on_c, 9, 38, 115
1, 8160, Note_on_c, 1, 34, 127
1, 8160, Note_on_c, 4, 46, 114
1, 8160, Note_on_c, 8, 46, 92
1, 8161, Note_off_c, 9, 38, 64
1, 8161, Note_off_c, 9, 42, 64
1, 8161, Note_on_c, 6, 61, 125
1, 8202, Note_off_c, 6, 66, 64
1, 8204, Note_off_c, 6, 61, 64
1, 8204, Note_off_c, 5, 46, 64
1, 8206, Note_off_c, 4, 46, 64
1, 8206, Note_off_c, 1, 34, 64
1, 8206, Note_off_c, 8, 46, 64
1, 8206, Note_on_c, 5, 54, 114
1, 8208, Note_on_c, 9, 42, 50
1, 8208, Note_on_c, 1, 42, 127
1, 8208, Note_on_c, 4, 54, 114
1, 8208, Note_on_c, 8, 54, 92
1, 8208, Note_on_c, 6, 56, 91
1, 8209, Note_off_c, 9, 42, 64
1, 8209, Note_on_c, 6, 61, 101
1, 8211, Note_off_c, 6, 56, 64
1, 8212, Note_off_c, 6, 61, 64
1, 8231, Note_on_c, 6, 61, 103
1, 8232, Note_on_c, 6, 56, 106
1, 8234, Note_off_c, 6, 61, 64
1, 8235, Note_off_c, 6, 56, 64
1, 8252, Note_off_c, 5, 54, 64
1, 8254, Note_off_c, 1, 42, 64
1, 8254, Note_off_c, 8, 54, 64
1, 8254, Note_off_c, 4, 54, 64
1, 8254, Note_on_c, 5, 51, 114
1, 8255, Note_on_c, 6, 66, 127
1, 8256, Note_on_c, 9, 42, 110
1, 8256, Note_on_c, 9, 36, 90
1, 8256, Note_on_c, 1, 39, 127
1, 8256, Note_on_c, 4, 51, 114
1, 8256, Note_on_c, 8, 51, 92
1, 8257, Note_off_c, 9, 36, 64
1, 8257, Note_off_c, 9, 42, 64
1, 8257, Note_on_c, 6, 61, 127
1, 8279, Pitch_bend_c, 5, 8478
1, 8281, Pitch_bend_c, 4, 8452
1, 8283, Pitch_bend_c, 5, 9110
1, 8285, Pitch_bend_c, 4, 9025
1, 8287, Pitch_bend_c, 5, 9568
1, 8289, Pitch_bend_c, 4, 9441
1, 8291, Pitch_bend_c, 5, 9682
1, 8293, Pitch_bend_c, 4, 9545
1, 8298, Note_off_c, 6, 66, 64
1, 8299, Pitch_bend_c, 5, 7855
1, 8300, Note_off_c, 6, 61, 64
1, 8301, Pitch_bend_c, 4, 7886
1, 8302, Pitch_bend_c, 5, 8192
1, 8303, Note_on_c, 6, 63, 123
1, 8304, Note_on_c, 9, 42, 50
1, 8304, Pitch_bend_c, 4, 8192
1, 8305, Note_off_c, 9, 42, 64
1, 8305, Note_on_c, 6, 58, 125
1, 8314, Pitch_bend_c, 5, 8249
1, 8316, Pitch_bend_c, 4, 8244
1, 8318, Pitch_bend_c, 5, 9797
1, 8320, Pitch_bend_c, 4, 9649
1, 8322, Pitch_bend_c, 5, 9913
1, 8324, Pitch_bend_c, 4, 9754
1, 8329, Pitch_bend_c, 5, 9110
1, 8331, Pitch_bend_c, 4, 9025
1, 8333, Pitch_bend_c, 5, 8192
1, 8335, Pitch_bend_c, 4, 8192
1, 8338, Pitch_bend_c, 6, 8328
1, 8341, Pitch_bend_c, 5, 8478
1, 8342, Pitch_bend_c, 6, 8510
1, 8343, Pitch_bend_c, 4, 8452
1, 8345, Pitch_bend_c, 5, 9568
1, 8346, Pitch_bend_c, 6, 8692
1, 8347, Pitch_bend_c, 4, 9441
1, 8349, Pitch_bend_c, 5, 9970
1, 8351, Pitch_bend_c, 4, 9806
1, 8352, Note_on_c, 9, 42, 110
1, 8352, Note_on_c, 9, 38, 115
1, 8353, Note_off_c, 9, 38, 64
1, 8353, Note_off_c, 9, 42, 64
1, 8353, Pitch_bend_c, 5, 10084
1, 8353, Note_on_c, 9, 39, 127
1, 8354, Note_off_c, 9, 39, 64
1, 8355, Pitch_bend_c, 4, 9910
1, 8355, Pitch_bend_c, 6, 8510
1, 8357, Pitch_bend_c, 5, 9913
1, 8359, Note_on_c, 10, 39, 127
1, 8359, Pitch_bend_c, 4, 9754
1, 8359, Pitch_bend_c, 6, 8192
1, 8360, Note_off_c, 10, 39, 64
1, 8361, Pitch_bend_c, 5, 8192
1, 8363, Pitch_bend_c, 4, 8192
1, 8367, Pitch_bend_c, 6, 8237
1, 8371, Pitch_bend_c, 6, 9010
1, 8376, Pitch_bend_c, 6, 9101
1, 8380, Pitch_bend_c, 6, 9010
1, 8384, Pitch_bend_c, 6, 8192
1, 8394, Note_off_c, 6, 63, 64
1, 8395, Note_off_c, 5, 51, 64
1, 8396, Note_off_c, 6, 58, 64
1, 8397, Note_off_c, 4, 51, 64
1, 8397, Note_off_c, 1, 39, 64
1, 8397, Note_off_c, 8, 51, 64
1, 8397, Note_on_c, 5, 51, 114
1, 8397, Pitch_bend_c, 6, 8783
1, 8399, Note_on_c, 1, 39, 127
1, 8399, Note_on_c, 4, 51, 114
1, 8399, Note_on_c, 8, 51, 92
1, 8399, Note_on_c, 6, 63, 115
1, 8400, Note_on_c, 9, 42, 50
1, 8401, Note_off_c, 9, 42, 64
1, 8401, Pitch_bend_c, 6, 9010
1, 8401, Note_on_c, 6, 58, 115
1, 8402, Note_off_c, 6, 63, 64
1, 8402, Pitch_bend_c, 5, 10307
1, 8403, Pitch_bend_c, 8, 12288
1, 8404, Note_off_c, 6, 58, 64
1, 8404, Pitch_bend_c, 4, 10112
1, 8405, Pitch_bend_c, 5, 12704
1, 8405, Pitch_bend_c, 6, 9101
1, 8406, Pitch_bend_c, 1, 16320
1, 8406, Pitch_bend_c, 8, 16320
1, 8407, Pitch_bend_c, 5, 14890
1, 8407, Pitch_bend_c, 4, 12288
1, 8409, Pitch_bend_c, 5, 16383
1, 8409, Pitch_bend_c, 4, 14272
1, 8409, Pitch_bend_c, 6, 8919
1, 8411, Pitch_bend_c, 4, 16320
1, 8414, Pitch_bend_c, 6, 7925
1, 8418, Pitch_bend_c, 6, 8192
1, 8422, Pitch_bend_c, 6, 8328
1, 8423, Note_on_c, 6, 63, 115
1, 8424, Note_on_c, 6, 58, 117
1, 8426, Note_off_c, 6, 63, 64
1, 8426, Pitch_bend_c, 6, 8874
1, 8427, Note_off_c, 6, 58, 64
1, 8430, Pitch_bend_c, 6, 8419
1, 8435, Pitch_bend_c, 6, 8192
1, 8448, Note_on_c, 9, 42, 110
1, 8448, Note_on_c, 9, 36, 90
1, 8448, Note_on_c, 6, 70, 110
1, 8449, Note_off_c, 9, 36, 64
1, 8449, Note_off_c, 9, 42, 64
1, 8449, Note_on_c, 6, 61, 127
1, 8491, Note_off_c, 6, 70, 64
1, 8492, Note_off_c, 6, 61, 64
1, 8492, Note_off_c, 5, 51, 64
1, 8493, Pitch_bend_c, 5, 8192
1, 8494, Note_off_c, 4, 51, 64
1, 8494, Note_off_c, 1, 39, 64
1, 8494, Note_off_c, 8, 51, 64
1, 8494, Note_on_c, 5, 51, 114
1, 8495, Pitch_bend_c, 1, 8192
1, 8495, Pitch_bend_c, 4, 8192
1, 8495, Pitch_bend_c, 8, 8192
1, 8496, Note_on_c, 9, 42, 50
1, 8496, Note_on_c, 1, 39, 127
1, 8496, Note_on_c, 4, 51, 114
1, 8496, Note_on_c, 8, 51, 92
1, 8496, Note_on_c, 6, 56, 106
1, 8497, Note_off_c, 9, 42, 64
1, 8497, Note_on_c, 6, 61, 100
1, 8499, Note_off_c, 6, 56, 64
1, 8500, Note_off_c, 6, 61, 64
1, 8519, Note_on_c, 6, 61, 110
1, 8520, Note_on_c, 6, 56, 117
1, 8522, Note_off_c, 6, 61, 64
1, 8523, Note_off_c, 6, 56, 64
1, 8536, Note_off_c, 5, 51, 64
1, 8538, Note_off_c, 1, 39, 64
1, 8538, Note_off_c, 8, 51, 64
1, 8538, Note_off_c, 4, 51, 64
1, 8542, Note_on_c, 5, 49, 114
1, 8544, Note_on_c, 9, 42, 110
1, 8544, Note_on_c, 9, 38, 115
1, 8544, Note_on_c, 9, 36, 90
1, 8544, Note_on_c, 1, 37, 127
1, 8544, Note_on_c, 4, 49, 114
1, 8544, Note_on_c, 8, 49, 92
1, 8544, Note_on_c, 6, 61, 127
1, 8545, Note_off_c, 9, 36, 64
1, 8545, Note_off_c, 9, 38, 64
1, 8545, Note_off_c, 9, 42, 64
1, 8545, Note_on_c, 6, 65, 103
1, 8582, Note_off_c, 1, 37, 64
1, 8582, Note_off_c, 8, 49, 64
1, 8583, Note_off_c, 5, 49, 64
1, 8585, Note_off_c, 4, 49, 64
1, 8587, Note_off_c, 6, 61, 64
1, 8588, Note_off_c, 6, 65, 64
1, 8591, Note_on_c, 6, 61, 123
1, 8592, Note_on_c, 9, 42, 50
1, 8593, Note_off_c, 9, 42, 64
1, 8593, Note_on_c, 6, 56, 127
1, 8612, Pitch_bend_c, 6, 8237
1, 8616, Pitch_bend_c, 6, 8783
1, 8620, Pitch_bend_c, 6, 9010
1, 8625, Pitch_bend_c, 6, 9192
1, 8629, Pitch_bend_c, 6, 9010
1, 8633, Pitch_bend_c, 6, 8419
1, 8637, Pitch_bend_c, 6, 8192
1, 8640, Note_on_c, 9, 42, 110
1, 8641, Note_off_c, 9, 42, 64
1, 8654, Pitch_bend_c, 6, 8419
1, 8658, Pitch_bend_c, 6, 8919
1, 8663, Pitch_bend_c, 6, 9010
1, 8667, Pitch_bend_c, 6, 8919
1, 8671, Pitch_bend_c, 6, 7925
1, 8675, Pitch_bend_c, 6, 8192
1, 8688, Note_on_c, 9, 42, 50
1, 8688, Note_on_c, 9, 36, 90
1, 8689, Note_off_c, 9, 36, 64
1, 8689, Note_off_c, 9, 42, 64
1, 8706, Note_off_c, 6, 61, 64
1, 8707, Note_off_c, 6, 56, 64
1, 8708, Note_on_c, 6, 60, 94
1, 8708, Note_on_c, 6, 55, 94
1, 8716, Note_off_c, 6, 55, 64
1, 8716, Note_off_c, 6, 60, 64
1, 8716, Note_on_c, 6, 54, 90
1, 8716, Note_on_c, 6, 59, 90
1, 8724, Note_off_c, 6, 59, 64
1, 8724, Note_off_c, 6, 54, 64
1, 8724, Note_on_c, 6, 53, 86
1, 8724, Note_on_c, 6, 58, 86
1, 8732, Note_off_c, 6, 58, 64
1, 8732, Note_off_c, 6, 53, 64
1, 8732, Note_on_c, 6, 52, 84
1, 8732, Note_on_c, 6, 57, 84
1, 8736, Note_on_c, 9, 42, 110
1, 8736, Note_on_c, 9, 38, 115
1, 8737, Note_off_c, 9, 38, 64
1, 8737, Note_off_c, 9, 42, 64
1, 8737, Note_on_c, 9, 39, 127
1, 8738, Note_off_c, 9, 39, 64
1, 8740, Note_off_c, 6, 57, 64
1, 8740, Note_off_c, 6, 52, 64
1, 8740, Note_on_c, 6, 51, 82
1, 8740, Note_on_c, 6, 56, 82
1, 8743, Note_on_c, 10, 39, 127
1, 8744, Note_off_c, 10, 39, 64
1, 8748, Note_off_c, 6, 56, 64
1, 8748, Note_off_c, 6, 51, 64
1, 8748, Note_on_c, 6, 50, 80
1, 8748, Note_on_c, 6, 55, 80
1, 8756, Note_off_c, 6, 55, 64
1, 8756, Note_off_c, 6, 50, 64
1, 8756, Note_on_c, 6, 54, 79
1, 8756, Note_on_c, 6, 49, 79
1, 8764, Note_off_c, 6, 49, 64
1, 8764, Note_off_c, 6, 54, 64
1, 8764, Note_on_c, 6, 48, 78
1, 8764, Note_on_c, 6, 53, 78
1, 8772, Note_off_c, 6, 53, 64
1, 8772, Note_off_c, 6, 48, 64
1, 8772, Note_on_c, 6, 52, 76
1, 8772, Note_on_c, 6, 47, 76
1, 8780, Note_off_c, 6, 47, 64
1, 8780, Note_off_c, 6, 52, 64
1, 8780, Note_on_c, 6, 46, 75
1, 8780, Note_on_c, 6, 51, 75
1, 8781, Pitch_bend_c, 5, 8192
1, 8784, Note_on_c, 9, 42, 50
1, 8785, Note_off_c, 9, 42, 64
1, 8788, Note_off_c, 6, 51, 64
1, 8788, Note_off_c, 6, 46, 64
1, 8788, Note_on_c, 6, 45, 71
1, 8788, Note_on_c, 6, 50, 71
1, 8796, Note_off_c, 6, 50, 64
1, 8796, Note_off_c, 6, 45, 64
1, 8796, Note_on_c, 6, 44, 71
1, 8796, Note_on_c, 6, 49, 60
1, 8804, Note_off_c, 6, 49, 64
1, 8804, Note_off_c, 6, 44, 64
1, 8804, Note_on_c, 6, 43, 60
1, 8804, Note_on_c, 6, 48, 50
1, 8812, Note_off_c, 6, 48, 64
1, 8812, Note_off_c, 6, 43, 64
1, 8812, Note_on_c, 6, 42, 50
1, 8812, Note_on_c, 6, 47, 40
1, 8820, Note_off_c, 6, 47, 64
1, 8820, Note_off_c, 6, 42, 64
1, 8832, Note_on_c, 9, 57, 80
1, 8832, Note_on_c, 9, 36, 90
1, 8832, Note_on_c, 0, 63, 78
1, 8832, Note_on_c, 0, 66, 79
1, 8832, Note_on_c, 0, 58, 74
1, 8832, Note_on_c, 4, 39, 98
1, 8833, Note_off_c, 4, 39, 64
1, 8833, Note_off_c, 9, 36, 64
1, 8833, Note_off_c, 9, 57, 64
1, 8880, Note_on_c, 9, 42, 50
1, 8880, Note_on_c, 1, 39, 127
1, 8880, Note_on_c, 5, 63, 92
1, 8880, Note_on_c, 4, 51, 98
1, 8880, Note_on_c, 4, 58, 102
1, 8881, Note_off_c, 9, 42, 64
1, 8882, Note_on_c, 3, 70, 104
1, 8902, Note_off_c, 3, 70, 64
1, 8915, Note_off_c, 1, 39, 64
1, 8920, Note_off_c, 5, 63, 64
1, 8920, Note_off_c, 4, 51, 64
1, 8920, Note_off_c, 4, 58, 64
1, 8928, Note_on_c, 9, 42, 110
1, 8928, Note_on_c, 9, 38, 115
1, 8928, Note_on_c, 1, 39, 127
1, 8928, Note_on_c, 5, 63, 78
1, 8928, Note_on_c, 4, 58, 93
1, 8928, Note_on_c, 4, 51, 89
1, 8929, Note_off_c, 9, 38, 64
1, 8929, Note_off_c, 9, 42, 64
1, 8930, Note_on_c, 3, 68, 105
1, 8935, Pitch_bend_c, 3, 15992
1, 8939, Pitch_bend_c, 3, 16317
1, 8963, Note_off_c, 1, 39, 64
1, 8963, Note_off_c, 3, 68, 64
1, 8964, Pitch_bend_c, 3, 15017
1, 8968, Note_off_c, 5, 63, 64
1, 8968, Note_off_c, 4, 51, 64
1, 8968, Note_off_c, 4, 58, 64
1, 8968, Pitch_bend_c, 3, 10207
1, 8972, Pitch_bend_c, 3, 8192
1, 8976, Note_on_c, 9, 42, 50
1, 8977, Note_off_c, 9, 42, 64
1, 8978, Note_on_c, 3, 70, 105
1, 9002, Note_off_c, 3, 70, 64
1, 9024, Note_on_c, 9, 42, 110
1, 9024, Note_on_c, 9, 36, 90
1, 9024, Note_on_c, 1, 39, 127
1, 9024, Note_on_c, 5, 63, 97
1, 9024, Note_on_c, 4, 58, 100
1, 9024, Note_on_c, 4, 51, 101
1, 9025, Note_off_c, 9, 36, 64
1, 9025, Note_off_c, 9, 42, 64
1, 9027, Note_on_c, 3, 70, 102
1, 9047, Note_off_c, 3, 70, 64
1, 9059, Note_off_c, 1, 39, 64
1, 9064, Note_off_c, 5, 63, 64
1, 9064, Note_off_c, 4, 51, 64
1, 9064, Note_off_c, 4, 58, 64
1, 9072, Note_on_c, 9, 42, 50
1, 9073, Note_off_c, 9, 42, 64
1, 9075, Note_on_c, 3, 70, 104
1, 9098, Note_off_c, 3, 70, 64
1, 9120, Note_on_c, 9, 42, 110
1, 9120, Note_on_c, 9, 38, 115
1, 9121, Note_off_c, 9, 38, 64
1, 9121, Note_off_c, 9, 42, 64
1, 9121, Note_on_c, 9, 39, 127
1, 9122, Note_off_c, 9, 39, 64
1, 9123, Note_on_c, 3, 68, 101
1, 9127, Note_on_c, 10, 39, 127
1, 9128, Note_off_c, 10, 39, 64
1, 9161, Note_off_c, 3, 68, 64
1, 9168, Note_on_c, 9, 42, 50
1, 9168, Note_on_c, 1, 37, 127
1, 9168, Note_on_c, 5, 61, 82
1, 9168, Note_on_c, 4, 56, 101
1, 9168, Note_on_c, 4, 49, 98
1, 9169, Note_off_c, 9, 42, 64
1, 9172, Note_on_c, 3, 70, 105
1, 9194, Note_off_c, 3, 70, 64
1, 9203, Note_off_c, 1, 37, 64
1, 9208, Note_off_c, 5, 61, 64
1, 9208, Note_off_c, 4, 56, 64
1, 9208, Note_off_c, 4, 49, 64
1, 9212, Note_off_c, 0, 63, 64
1, 9212, Note_off_c, 0, 58, 64
1, 9212, Note_off_c, 0, 66, 64
1, 9216, Note_on_c, 9, 42, 110
1, 9216, Note_on_c, 9, 36, 90
1, 9216, Note_on_c, 1, 37, 127
1, 9216, Note_on_c, 0, 61, 78
1, 9216, Note_on_c, 0, 56, 78
1, 9216, Note_on_c, 0, 65, 74
1, 9216, Note_on_c, 5, 61, 82
1, 9216, Note_on_c, 4, 56, 97
1, 9216, Note_on_c, 4, 49, 98
1, 9217, Note_off_c, 9, 36, 64
1, 9217, Note_off_c, 9, 42, 64
1, 9218, Note_on_c, 3, 71, 91
1, 9228, Pitch_bend_c, 3, 16317
1, 9239, Pitch_bend_c, 3, 16383
1, 9247, Note_off_c, 3, 71, 64
1, 9252, Pitch_bend_c, 3, 15472
1, 9254, Note_off_c, 1, 37, 64
1, 9256, Note_off_c, 5, 61, 64
1, 9256, Note_off_c, 4, 49, 64
1, 9256, Note_off_c, 4, 56, 64
1, 9258, Pitch_bend_c, 3, 8192
1, 9264, Note_on_c, 9, 42, 50
1, 9265, Note_off_c, 9, 42, 64
1, 9269, Note_on_c, 3, 70, 107
1, 9297, Note_off_c, 3, 70, 64
1, 9312, Note_on_c, 9, 42, 110
1, 9312, Note_on_c, 9, 38, 115
1, 9312, Note_on_c, 9, 36, 90
1, 9312, Note_on_c, 1, 37, 127
1, 9312, Note_on_c, 5, 61, 100
1, 9312, Note_on_c, 4, 56, 101
1, 9312, Note_on_c, 4, 49, 100
1, 9313, Note_off_c, 9, 36, 64
1, 9313, Note_off_c, 9, 38, 64
1, 9313, Note_off_c, 9, 42, 64
1, 9317, Note_on_c, 3, 68, 105
1, 9347, Note_off_c, 1, 37, 64
1, 9352, Note_off_c, 4, 49, 64
1, 9352, Note_off_c, 4, 56, 64
1, 9352, Note_off_c, 5, 61, 64
1, 9353, Note_off_c, 3, 68, 64
1, 9360, Note_on_c, 9, 42, 50
1, 9361, Note_off_c, 9, 42, 64
1, 9408, Note_on_c, 9, 42, 110
1, 9409, Note_off_c, 9, 42, 64
1, 9410, Note_on_c, 3, 68, 108
1, 9411, Pitch_bend_c, 3, 8832
1, 9414, Pitch_bend_c, 3, 9472
1, 9420, Pitch_bend_c, 3, 12288
1, 9426, Pitch_bend_c, 3, 13312
1, 9430, Pitch_bend_c, 3, 16383
1, 9456, Note_on_c, 9, 42, 50
1, 9456, Note_on_c, 9, 36, 90
1, 9457, Note_off_c, 9, 36, 64
1, 9457, Note_off_c, 9, 42, 64
1, 9465, Note_off_c, 3, 68, 64
1, 9486, Pitch_bend_c, 3, 8192
1, 9504, Note_on_c, 9, 42, 110
1, 9504, Note_on_c, 9, 38, 115
1, 9505, Note_off_c, 9, 38, 64
1, 9505, Note_off_c, 9, 42, 64
1, 9505, Note_on_c, 9, 39, 127
1, 9506, Note_off_c, 9, 39, 64
1, 9511, Note_on_c, 10, 39, 127
1, 9512, Note_off_c, 10, 39, 64
1, 9552, Note_on_c, 9, 42, 50
1, 9553, Note_off_c, 9, 42, 64
1, 9556, Note_on_c, 3, 70, 107
1, 9570, Note_off_c, 3, 70, 64
1, 9596, Note_off_c, 0, 65, 64
1, 9596, Note_off_c, 0, 56, 64
1, 9596, Note_off_c, 0, 61, 64
1, 9600, Note_on_c, 9, 42, 110
1, 9600, Note_on_c, 9, 36, 90
1, 9600, Note_on_c, 0, 63, 76
1, 9600, Note_on_c, 0, 66, 76
1, 9600, Note_on_c, 0, 58, 73
1, 9601, Note_off_c, 9, 36, 64
1, 9601, Note_off_c, 9, 42, 64
1, 9602, Note_on_c, 3, 68, 107
1, 9607, Pitch_bend_c, 3, 10727
1, 9613, Pitch_bend_c, 3, 16317
1, 9635, Note_off_c, 3, 68, 64
1, 9638, Pitch_bend_c, 3, 14237
1, 9644, Pitch_bend_c, 3, 8192
1, 9648, Note_on_c, 9, 42, 50
1, 9648, Note_on_c, 1, 39, 127
1, 9648, Note_on_c, 5, 63, 98
1, 9648, Note_on_c, 4, 58, 102
1, 9648, Note_on_c, 4, 51, 101
1, 9649, Note_off_c, 9, 42, 64
1, 9652, Note_on_c, 3, 70, 107
1, 9673, Note_off_c, 3, 70, 64
1, 9683, Note_off_c, 1, 39, 64
1, 9688, Note_off_c, 5, 63, 64
1, 9688, Note_off_c, 4, 58, 64
1, 9688, Note_off_c, 4, 51, 64
1, 9696, Note_on_c, 9, 42, 110
1, 9696, Note_on_c, 9, 38, 115
1, 9696, Note_on_c, 1, 39, 127
1, 9696, Note_on_c, 5, 63, 86
1, 9696, Note_on_c, 4, 51, 98
1, 9696, Note_on_c, 4, 58, 101
1, 9697, Note_off_c, 9, 38, 64
1, 9697, Note_off_c, 9, 42, 64
1, 9698, Note_on_c, 3, 70, 95
1, 9718, Note_off_c, 3, 70, 64
1, 9736, Note_off_c, 5, 63, 64
1, 9736, Note_off_c, 1, 39, 64
1, 9736, Note_off_c, 4, 58, 64
1, 9736, Note_off_c, 4, 51, 64
1, 9744, Note_on_c, 9, 42, 50
1, 9745, Note_off_c, 9, 42, 64
1, 9747, Note_on_c, 3, 70, 104
1, 9769, Note_off_c, 3, 70, 64
1, 9792, Note_on_c, 9, 42, 110
1, 9792, Note_on_c, 9, 36, 90
1, 9792, Note_on_c, 1, 39, 127
1, 9792, Note_on_c, 5, 63, 98
1, 9792, Note_on_c, 4, 58, 101
1, 9792, Note_on_c, 4, 51, 101
1, 9793, Note_off_c, 9, 36, 64
1, 9793, Note_off_c, 9, 42, 64
1, 9795, Note_on_c, 3, 68, 107
1, 9799, Pitch_bend_c, 3, 12352
1, 9807, Pitch_bend_c, 3, 16320
1, 9824, Pitch_bend_c, 3, 8192
1, 9827, Note_off_c, 3, 68, 64
1, 9832, Note_off_c, 5, 63, 64
1, 9832, Note_off_c, 4, 51, 64
1, 9832, Note_off_c, 4, 58, 64
1, 9833, Pitch_bend_c, 3, 8192
1, 9834, Note_off_c, 1, 39, 64
1, 9840, Note_on_c, 9, 42, 50
1, 9841, Note_off_c, 9, 42, 64
1, 9844, Note_on_c, 3, 70, 107
1, 9869, Note_off_c, 3, 70, 64
1, 9888, Note_on_c, 9, 42, 110
1, 9888, Note_on_c, 9, 38, 115
1, 9889, Note_off_c, 9, 38, 64
1, 9889, Note_off_c, 9, 42, 64
1, 9889, Note_on_c, 9, 39, 127
1, 9890, Note_off_c, 9, 39, 64
1, 9892, Note_on_c, 3, 68, 107
1, 9895, Note_on_c, 10, 39, 127
1, 9896, Note_off_c, 10, 39, 64
1, 9927, Note_off_c, 3, 68, 64
1, 9936, Note_on_c, 9, 42, 50
1, 9936, Note_on_c, 1, 37, 127
1, 9936, Note_on_c, 5, 61, 92
1, 9936, Note_on_c, 4, 56, 102
1, 9936, Note_on_c, 4, 49, 101
1, 9937, Note_off_c, 9, 42, 64
1, 9939, Note_on_c, 3, 66, 104
1, 9966, Note_off_c, 3, 66, 64
1, 9971, Note_off_c, 1, 37, 64
1, 9976, Note_off_c, 5, 61, 64
1, 9976, Note_off_c, 4, 56, 64
1, 9976, Note_off_c, 4, 49, 64
1, 9980, Note_off_c, 0, 63, 64
1, 9980, Note_off_c, 0, 58, 64
1, 9980, Note_off_c, 0, 66, 64
1, 9984, Note_on_c, 9, 42, 110
1, 9984, Note_on_c, 9, 36, 90
1, 9984, Note_on_c, 1, 37, 127
1, 9984, Note_on_c, 0, 56, 79
1, 9984, Note_on_c, 0, 61, 78
1, 9984, Note_on_c, 0, 65, 76
1, 9984, Note_on_c, 5, 61, 84
1, 9984, Note_on_c, 4, 49, 97
1, 9984, Note_on_c, 4, 56, 99
1, 9985, Note_off_c, 9, 36, 64
1, 9985, Note_off_c, 9, 42, 64
1, 9988, Note_on_c, 3, 68, 107
1, 10021, Note_off_c, 3, 68, 64
1, 10024, Note_off_c, 5, 61, 64
1, 10024, Note_off_c, 1, 37, 64
1, 10024, Note_off_c, 4, 56, 64
1, 10024, Note_off_c, 4, 49, 64
1, 10032, Note_on_c, 9, 42, 50
1, 10033, Note_off_c, 9, 42, 64
1, 10035, Note_on_c, 3, 66, 107
1, 10057, Note_off_c, 3, 66, 64
1, 10080, Note_on_c, 9, 42, 110
1, 10080, Note_on_c, 9, 38, 115
1, 10080, Note_on_c, 9, 36, 90
1, 10080, Note_on_c, 1, 37, 127
1, 10080, Note_on_c, 5, 61, 98
1, 10080, Note_on_c, 4, 56, 100
1, 10080, Note_on_c, 4, 49, 99
1, 10081, Note_off_c, 9, 36, 64
1, 10081, Note_off_c, 9, 38, 64
1, 10081, Note_off_c, 9, 42, 64
1, 10084, Note_on_c, 3, 68, 108
1, 10097, Pitch_bend_c, 3, 9037
1, 10105, Pitch_bend_c, 3, 15212
1, 10113, Pitch_bend_c, 3, 16317
1, 10120, Note_off_c, 4, 49, 64
1, 10120, Note_off_c, 4, 56, 64
1, 10120, Note_off_c, 5, 61, 64
1, 10122, Note_off_c, 1, 37, 64
1, 10128, Note_on_c, 9, 42, 50
1, 10129, Note_off_c, 9, 42, 64
1, 10147, Note_off_c, 3, 68, 64
1, 10163, Pitch_bend_c, 3, 8192
1, 10176, Note_on_c, 9, 42, 110
1, 10177, Note_off_c, 9, 42, 64
1, 10224, Note_on_c, 9, 42, 50
1, 10224, Note_on_c, 9, 36, 90
1, 10225, Note_off_c, 9, 36, 64
1, 10225, Note_off_c, 9, 42, 64
1, 10272, Note_on_c, 9, 42, 110
1, 10272, Note_on_c, 9, 38, 115
1, 10273, Note_off_c, 9, 38, 64
1, 10273, Note_off_c, 9, 42, 64
1, 10273, Note_on_c, 9, 39, 127
1, 10274, Note_off_c, 9, 39, 64
1, 10279, Note_on_c, 10, 39, 127
1, 10280, Note_off_c, 10, 39, 64
1, 10320, Note_on_c, 9, 42, 50
1, 10321, Note_off_c, 9, 42, 64
1, 10321, Note_on_c, 3, 70, 105
1, 10336, Note_off_c, 3, 70, 64
1, 10364, Note_off_c, 0, 65, 64
1, 10364, Note_off_c, 0, 61, 64
1, 10364, Note_off_c, 0, 56, 64
1, 10368, Note_on_c, 9, 42, 110
1, 10368, Note_on_c, 9, 36, 90
1, 10368, Note_on_c, 0, 54, 78
1, 10368, Note_on_c, 0, 63, 82
1, 10368, Note_on_c, 0, 59, 77
1, 10369, Note_off_c, 9, 36, 64
1, 10369, Note_off_c, 9, 42, 64
1, 10370, Note_on_c, 3, 68, 108
1, 10409, Note_off_c, 3, 68, 64
1, 10416, Note_on_c, 9, 42, 50
1, 10416, Note_on_c, 1, 35, 127
1, 10416, Note_on_c, 5, 59, 87
1, 10416, Note_on_c, 4, 54, 105
1, 10416, Note_on_c, 4, 47, 96
1, 10417, Note_off_c, 9, 42, 64
1, 10418, Note_on_c, 3, 66, 105
1, 10451, Note_off_c, 1, 35, 64
1, 10455, Note_off_c, 3, 66, 64
1, 10456, Note_off_c, 5, 59, 64
1, 10456, Note_off_c, 4, 54, 64
1, 10456, Note_off_c, 4, 47, 64
1, 10464, Note_on_c, 9, 42, 110
1, 10464, Note_on_c, 9, 38, 115
1, 10464, Note_on_c, 1, 35, 127
1, 10464, Note_on_c, 5, 59, 85
1, 10464, Note_on_c, 4, 47, 92
1, 10464, Note_on_c, 4, 54, 99
1, 10465, Note_off_c, 9, 38, 64
1, 10465, Note_off_c, 9, 42, 64
1, 10466, Note_on_c, 3, 63, 98
1, 10499, Note_off_c, 1, 35, 64
1, 10504, Note_off_c, 5, 59, 64
1, 10504, Note_off_c, 4, 54, 64
1, 10504, Note_off_c, 4, 47, 64
1, 10512, Note_off_c, 3, 63, 64
1, 10512, Note_on_c, 9, 42, 50
1, 10513, Note_off_c, 9, 42, 64
1, 10514, Note_on_c, 3, 61, 102
1, 10523, Note_off_c, 3, 61, 64
1, 10560, Note_on_c, 9, 42, 110
1, 10560, Note_on_c, 9, 36, 90
1, 10560, Note_on_c, 1, 35, 127
1, 10560, Note_on_c, 5, 59, 90
1, 10560, Note_on_c, 4, 54, 104
1, 10560, Note_on_c, 4, 47, 99
1, 10561, Note_off_c, 9, 36, 64
1, 10561, Note_off_c, 9, 42, 64
1, 10562, Note_on_c, 3, 63, 108
1, 10572, Control_c, 3, 1, 122
1, 10595, Note_off_c, 1, 35, 64
1, 10600, Note_off_c, 5, 59, 64
1, 10600, Note_off_c, 4, 47, 64
1, 10600, Note_off_c, 4, 54, 64
1, 10608, Control_c, 3, 1, 123
1, 10608, Note_on_c, 9, 42, 50
1, 10609, Note_off_c, 9, 42, 64
1, 10620, Control_c, 3, 1, 121
1, 10631, Control_c, 3, 1, 38
1, 10637, Control_c, 3, 1, 0
1, 10645, Note_off_c, 3, 63, 64
1, 10656, Note_on_c, 9, 42, 110
1, 10656, Note_on_c, 9, 38, 115
1, 10657, Note_off_c, 9, 38, 64
1, 10657, Note_off_c, 9, 42, 64
1, 10657, Note_on_c, 9, 39, 127
1, 10658, Note_off_c, 9, 39, 64
1, 10659, Note_on_c, 3, 61, 108
1, 10663, Note_on_c, 10, 39, 127
1, 10664, Note_off_c, 10, 39, 64
1, 10679, Note_off_c, 3, 61, 64
1, 10704, Note_on_c, 9, 42, 50
1, 10704, Note_on_c, 1, 37, 127
1, 10704, Note_on_c, 5, 61, 100
1, 10704, Note_on_c, 4, 49, 102
1, 10704, Note_on_c, 4, 56, 105
1, 10705, Note_off_c, 9, 42, 64
1, 10707, Note_on_c, 3, 63, 107
1, 10722, Note_off_c, 3, 63, 64
1, 10739, Note_off_c, 1, 37, 64
1, 10744, Note_off_c, 5, 61, 64
1, 10744, Note_off_c, 4, 49, 64
1, 10744, Note_off_c, 4, 56, 64
1, 10745, Pitch_bend_c, 3, 6046
1, 10748, Note_off_c, 0, 54, 64
1, 10748, Note_off_c, 0, 59, 64
1, 10748, Note_off_c, 0, 63, 64
1, 10750, Pitch_bend_c, 3, 5794
1, 10752, Note_on_c, 9, 42, 110
1, 10752, Note_on_c, 9, 36, 90
1, 10752, Note_on_c, 1, 37, 127
1, 10752, Note_on_c, 0, 61, 82
1, 10752, Note_on_c, 0, 56, 78
1, 10752, Note_on_c, 0, 65, 74
1, 10752, Note_on_c, 5, 61, 86
1, 10752, Note_on_c, 4, 49, 100
1, 10752, Note_on_c, 4, 56, 101
1, 10753, Note_off_c, 9, 36, 64
1, 10753, Note_off_c, 9, 42, 64
1, 10754, Note_on_c, 3, 65, 100
1, 10757, Pitch_bend_c, 3, 6046
1, 10763, Pitch_bend_c, 3, 8192
1, 10792, Note_off_c, 5, 61, 64
1, 10792, Note_off_c, 1, 37, 64
1, 10792, Note_off_c, 4, 56, 64
1, 10792, Note_off_c, 4, 49, 64
1, 10796, Note_off_c, 3, 65, 64
1, 10800, Note_on_c, 9, 42, 50
1, 10801, Note_off_c, 9, 42, 64
1, 10803, Note_on_c, 3, 63, 102
1, 10827, Note_off_c, 3, 63, 64
1, 10848, Note_on_c, 9, 42, 110
1, 10848, Note_on_c, 9, 38, 115
1, 10848, Note_on_c, 9, 36, 90
1, 10848, Note_on_c, 1, 37, 127
1, 10848, Note_on_c, 5, 61, 103
1, 10848, Note_on_c, 4, 56, 105
1, 10848, Note_on_c, 4, 49, 105
1, 10849, Note_off_c, 9, 36, 64
1, 10849, Note_off_c, 9, 38, 64
1, 10849, Note_off_c, 9, 42, 64
1, 10849, Note_on_c, 3, 61, 107
1, 10868, Note_off_c, 3, 61, 64
1, 10883, Note_off_c, 1, 37, 64
1, 10888, Note_off_c, 4, 49, 64
1, 10888, Note_off_c, 4, 56, 64
1, 10888, Note_off_c, 5, 61, 64
1, 10896, Note_on_c, 9, 42, 50
1, 10897, Note_off_c, 9, 42, 64
1, 10898, Note_on_c, 3, 58, 104
1, 10910, Note_off_c, 3, 58, 64
1, 10944, Note_on_c, 9, 42, 110
1, 10945, Note_off_c, 9, 42, 64
1, 10947, Note_on_c, 3, 61, 108
1, 10953, Control_c, 3, 1, 97
1, 10960, Control_c, 3, 1, 117
1, 10974, Control_c, 3, 1, 119
1, 10992, Note_on_c, 9, 42, 50
1, 10992, Note_on_c, 9, 36, 90
1, 10993, Note_off_c, 9, 36, 64
1, 10993, Note_off_c, 9, 42, 64
1, 11008, Control_c, 3, 1, 108
1, 11015, Control_c, 3, 1, 0
1, 11021, Note_off_c, 3, 61, 64
1, 11038, Note_on_c, 14, 63, 110
1, 11040, Note_on_c, 9, 42, 110
1, 11040, Note_on_c, 9, 38, 115
1, 11041, Note_off_c, 9, 38, 64
1, 11041, Note_off_c, 9, 42, 64
1, 11041, Note_on_c, 15, 63, 96
1, 11041, Note_on_c, 9, 39, 127
1, 11042, Note_off_c, 9, 39, 64
1, 11042, Note_on_c, 3, 63, 107
1, 11047, Note_on_c, 10, 39, 127
1, 11048, Note_off_c, 10, 39, 64
1, 11052, Note_off_c, 3, 63, 64
1, 11060, Note_off_c, 14, 63, 64
1, 11063, Note_off_c, 15, 63, 64
1, 11088, Note_on_c, 9, 42, 50
1, 11089, Note_off_c, 9, 42, 64
1, 11090, Note_on_c, 3, 63, 107
1, 11101, Note_off_c, 3, 63, 64
1, 11115, Pitch_bend_c, 14, 6172
1, 11119, Pitch_bend_c, 3, 5920
1, 11119, Pitch_bend_c, 15, 5920
1, 11120, Pitch_bend_c, 14, 4030
1, 11124, Pitch_bend_c, 15, 4030
1, 11125, Pitch_bend_c, 14, 2392
1, 11127, Pitch_bend_c, 3, 5668
1, 11129, Pitch_bend_c, 15, 3022
1, 11130, Pitch_bend_c, 14, 1636
1, 11132, Note_off_c, 0, 65, 64
1, 11132, Note_off_c, 0, 56, 64
1, 11132, Note_off_c, 0, 61, 64
1, 11134, Pitch_bend_c, 3, 6046
1, 11134, Pitch_bend_c, 15, 2770
1, 11135, Note_on_c, 14, 66, 111
1, 11136, Note_on_c, 9, 42, 110
1, 11136, Note_on_c, 9, 36, 90
1, 11136, Note_on_c, 0, 63, 81
1, 11136, Note_on_c, 0, 66, 81
1, 11136, Note_on_c, 0, 58, 78
1, 11137, Note_off_c, 9, 36, 64
1, 11137, Note_off_c, 9, 42, 64
1, 11137, Pitch_bend_c, 15, 3274
1, 11137, Note_on_c, 15, 66, 100
1, 11138, Note_on_c, 3, 66, 107
1, 11141, Pitch_bend_c, 14, 2896
1, 11144, Pitch_bend_c, 3, 8192
1, 11145, Pitch_bend_c, 15, 8192
1, 11146, Pitch_bend_c, 14, 5542
1, 11151, Pitch_bend_c, 14, 8192
1, 11182, Note_off_c, 15, 66, 64
1, 11184, Note_on_c, 9, 42, 50
1, 11184, Note_on_c, 1, 39, 127
1, 11184, Note_on_c, 5, 63, 102
1, 11184, Note_on_c, 4, 58, 105
1, 11184, Note_on_c, 4, 51, 103
1, 11185, Note_off_c, 9, 42, 64
1, 11185, Note_off_c, 3, 66, 64
1, 11185, Note_on_c, 14, 63, 110
1, 11186, Note_off_c, 14, 66, 64
1, 11186, Note_on_c, 15, 63, 97
1, 11187, Note_on_c, 3, 63, 108
1, 11197, Note_off_c, 14, 63, 64
1, 11198, Note_off_c, 15, 63, 64
1, 11200, Note_off_c, 3, 63, 64
1, 11219, Note_off_c, 1, 39, 64
1, 11224, Note_off_c, 5, 63, 64
1, 11224, Note_off_c, 4, 58, 64
1, 11224, Note_off_c, 4, 51, 64
1, 11232, Note_on_c, 9, 42, 110
1, 11232, Note_on_c, 9, 38, 115
1, 11232, Note_on_c, 1, 39, 127
1, 11232, Note_on_c, 5, 63, 95
1, 11232, Note_on_c, 4, 58, 101
1, 11232, Note_on_c, 4, 51, 101
1, 11233, Note_off_c, 9, 38, 64
1, 11233, Note_off_c, 9, 42, 64
1, 11272, Note_off_c, 5, 63, 64
1, 11272, Note_off_c, 1, 39, 64
1, 11272, Note_off_c, 4, 51, 64
1, 11272, Note_off_c, 4, 58, 64
1, 11280, Note_on_c, 9, 42, 50
1, 11281, Note_off_c, 9, 42, 64
1, 11328, Note_on_c, 9, 42, 110
1, 11328, Note_on_c, 9, 36, 90
1, 11328, Note_on_c, 1, 39, 127
1, 11328, Note_on_c, 5, 63, 102
1, 11328, Note_on_c, 4, 58, 104
1, 11328, Note_on_c, 4, 51, 104
1, 11329, Note_off_c, 9, 36, 64
1, 11329, Note_off_c, 9, 42, 64
1, 11368, Note_off_c, 5, 63, 64
1, 11368, Note_off_c, 4, 51, 64
1, 11368, Note_off_c, 4, 58, 64
1, 11370, Note_off_c, 1, 39, 64
1, 11376, Note_on_c, 9, 42, 50
1, 11377, Note_off_c, 9, 42, 64
1, 11423, Note_on_c, 14, 63, 111
1, 11424, Note_on_c, 9, 42, 110
1, 11424, Note_on_c, 9, 38, 115
1, 11425, Note_off_c, 9, 38, 64
1, 11425, Note_off_c, 9, 42, 64
1, 11425, Note_on_c, 15, 63, 100
1, 11425, Note_on_c, 9, 39, 127
1, 11426, Note_off_c, 9, 39, 64
1, 11427, Note_on_c, 3, 63, 108
1, 11431, Note_on_c, 10, 39, 127
1, 11432, Note_off_c, 10, 39, 64
1, 11437, Note_off_c, 3, 63, 64
1, 11438, Note_off_c, 14, 63, 64
1, 11440, Note_off_c, 15, 63, 64
1, 11472, Note_on_c, 9, 42, 50
1, 11472, Note_on_c, 1, 37, 127
1, 11472, Note_on_c, 5, 61, 100
1, 11472, Note_on_c, 4, 56, 105
1, 11472, Note_on_c, 4, 49, 100
1, 11473, Note_off_c, 9, 42, 64
1, 11474, Note_on_c, 3, 63, 108
1, 11488, Note_off_c, 3, 63, 64
1, 11490, Pitch_bend_c, 15, 7432
1, 11495, Pitch_bend_c, 15, 6046
1, 11498, Pitch_bend_c, 3, 7180
1, 11500, Pitch_bend_c, 15, 4534
1, 11504, Pitch_bend_c, 3, 5668
1, 11505, Pitch_bend_c, 15, 3652
1, 11506, Pitch_bend_c, 14, 6928
1, 11507, Note_off_c, 1, 37, 64
1, 11511, Pitch_bend_c, 14, 5038
1, 11512, Note_off_c, 5, 61, 64
1, 11512, Note_off_c, 4, 56, 64
1, 11512, Note_off_c, 4, 49, 64
1, 11516, Note_off_c, 0, 63, 64
1, 11516, Note_off_c, 0, 58, 64
1, 11516, Note_off_c, 0, 66, 64
1, 11516, Pitch_bend_c, 14, 3652
1, 11516, Pitch_bend_c, 15, 5164
1, 11519, Pitch_bend_c, 3, 8192
1, 11519, Note_on_c, 14, 65, 108
1, 11520, Note_on_c, 15, 65, 99
1, 11520, Note_on_c, 9, 42, 110
1, 11520, Note_on_c, 9, 36, 90
1, 11520, Note_on_c, 1, 37, 127
1, 11520, Note_on_c, 0, 61, 80
1, 11520, Note_on_c, 0, 65, 73
1, 11520, Note_on_c, 0, 56, 76
1, 11520, Note_on_c, 5, 61, 82
1, 11520, Note_on_c, 4, 56, 97
1, 11520, Note_on_c, 4, 49, 98
1, 11521, Note_off_c, 9, 36, 64
1, 11521, Note_off_c, 9, 42, 64
1, 11521, Pitch_bend_c, 3, 16317
1, 11521, Pitch_bend_c, 14, 3022
1, 11521, Pitch_bend_c, 15, 7684
1, 11522, Note_on_c, 3, 63, 107
1, 11528, Pitch_bend_c, 15, 8192
1, 11529, Pitch_bend_c, 14, 6928
1, 11534, Pitch_bend_c, 14, 8192
1, 11539, Pitch_bend_c, 3, 16383
1, 11558, Pitch_bend_c, 3, 16317
1, 11560, Note_off_c, 5, 61, 64
1, 11560, Note_off_c, 1, 37, 64
1, 11560, Note_off_c, 4, 49, 64
1, 11560, Note_off_c, 4, 56, 64
1, 11563, Pitch_bend_c, 3, 13522
1, 11564, Note_off_c, 14, 65, 64
1, 11565, Note_off_c, 15, 65, 64
1, 11567, Note_off_c, 3, 63, 64
1, 11568, Pitch_bend_c, 3, 8192
1, 11568, Note_on_c, 9, 42, 50
1, 11569, Note_off_c, 9, 42, 64
1, 11569, Note_on_c, 14, 61, 111
1, 11570, Note_on_c, 15, 61, 100
1, 11574, Note_on_c, 3, 61, 108
1, 11581, Note_off_c, 14, 61, 64
1, 11582, Note_off_c, 15, 61, 64
1, 11589, Note_off_c, 3, 61, 64
1, 11616, Note_on_c, 9, 42, 110
1, 11616, Note_on_c, 9, 38, 115
1, 11616, Note_on_c, 9, 36, 90
1, 11616, Note_on_c, 1, 37, 127
1, 11616, Note_on_c, 5, 61, 100
1, 11616, Note_on_c, 4, 56, 101
1, 11616, Note_on_c, 4, 49, 100
1, 11617, Note_off_c, 9, 36, 64
1, 11617, Note_off_c, 9, 38, 64
1, 11617, Note_off_c, 9, 42, 64
1, 11656, Note_off_c, 4, 49, 64
1, 11656, Note_off_c, 4, 56, 64
1, 11656, Note_off_c, 5, 61, 64
1, 11658, Note_off_c, 1, 37, 64
1, 11664, Note_on_c, 9, 42, 50
1, 11665, Note_off_c, 9, 42, 64
1, 11712, Note_on_c, 9, 42, 110
1, 11713, Note_off_c, 9, 42, 64
1, 11760, Note_on_c, 9, 42, 50
1, 11760, Note_on_c, 9, 36, 90
1, 11761, Note_off_c, 9, 36, 64
1, 11761, Note_off_c, 9, 42, 64
1, 11808, Note_on_c, 9, 42, 110
1, 11808, Note_on_c, 9, 38, 115
1, 11809, Note_off_c, 9, 38, 64
1, 11809, Note_off_c, 9, 42, 64
1, 11809, Note_on_c, 9, 39, 127
1, 11810, Note_off_c, 9, 39, 64
1, 11815, Note_on_c, 10, 39, 127
1, 11816, Note_off_c, 10, 39, 64
1, 11856, Note_on_c, 9, 42, 50
1, 11857, Note_off_c, 9, 42, 64
1, 11900, Note_off_c, 0, 56, 64
1, 11900, Note_off_c, 0, 65, 64
1, 11900, Note_off_c, 0, 61, 64
1, 11904, Note_on_c, 9, 49, 88
1, 11904, Note_on_c, 9, 36, 90
1, 11904, Note_on_c, 0, 63, 78
1, 11904, Note_on_c, 0, 66, 79
1, 11904, Note_on_c, 0, 58, 74
1, 11904, Note_on_c, 4, 39, 98
1, 11904, Note_on_c, 8, 49, 110
1, 11905, Note_off_c, 4, 39, 64
1, 11905, Note_off_c, 9, 36, 64
1, 11905, Note_off_c, 9, 49, 64
1, 11906, Note_off_c, 8, 49, 64
1, 11952, Note_on_c, 9, 42, 50
1, 11952, Note_on_c, 1, 39, 127
1, 11952, Note_on_c, 5, 63, 92
1, 11952, Note_on_c, 4, 51, 98
1, 11952, Note_on_c, 4, 58, 102
1, 11952, Note_on_c, 8, 51, 99
1, 11953, Note_off_c, 9, 42, 64
1, 11956, Note_on_c, 3, 70, 102
1, 11962, Note_off_c, 8, 51, 64
1, 11966, Note_off_c, 3, 70, 64
1, 11987, Note_off_c, 1, 39, 64
1, 11992, Note_off_c, 5, 63, 64
1, 11992, Note_off_c, 4, 51, 64
1, 11992, Note_off_c, 4, 58, 64
1, 12000, Note_on_c, 9, 42, 110
1, 12000, Note_on_c, 9, 38, 115
1, 12000, Note_on_c, 1, 39, 127
1, 12000, Note_on_c, 5, 63, 78
1, 12000, Note_on_c, 4, 58, 93
1, 12000, Note_on_c, 4, 51, 89
1, 12000, Note_on_c, 8, 49, 87
1, 12001, Note_off_c, 9, 38, 64
1, 12001, Note_off_c, 9, 42, 64
1, 12002, Note_on_c, 3, 68, 107
1, 12009, Pitch_bend_c, 3, 15992
1, 12010, Note_off_c, 8, 49, 64
1, 12014, Pitch_bend_c, 3, 16317
1, 12029, Note_off_c, 3, 68, 64
1, 12033, Pitch_bend_c, 3, 15992
1, 12035, Note_off_c, 1, 39, 64
1, 12038, Pitch_bend_c, 3, 11572
1, 12040, Note_off_c, 5, 63, 64
1, 12040, Note_off_c, 4, 58, 64
1, 12040, Note_off_c, 4, 51, 64
1, 12043, Pitch_bend_c, 3, 8192
1, 12048, Note_on_c, 9, 42, 50
1, 12048, Note_on_c, 8, 51, 90
1, 12049, Note_off_c, 9, 42, 64
1, 12051, Note_on_c, 3, 70, 100
1, 12058, Note_off_c, 8, 51, 64
1, 12066, Note_off_c, 3, 70, 64
1, 12096, Note_on_c, 9, 42, 110
1, 12096, Note_on_c, 9, 36, 90
1, 12096, Note_on_c, 1, 39, 127
1, 12096, Note_on_c, 5, 63, 97
1, 12096, Note_on_c, 4, 58, 100
1, 12096, Note_on_c, 4, 51, 101
1, 12096, Note_on_c, 8, 54, 95
1, 12097, Note_off_c, 9, 36, 64
1, 12097, Note_off_c, 9, 42, 64
1, 12099, Note_on_c, 3, 70, 100
1, 12106, Note_off_c, 8, 54, 64
1, 12116, Note_off_c, 3, 70, 64
1, 12131, Note_off_c, 1, 39, 64
1, 12136, Note_off_c, 5, 63, 64
1, 12136, Note_off_c, 4, 58, 64
1, 12136, Note_off_c, 4, 51, 64
1, 12144, Note_on_c, 9, 42, 50
1, 12144, Note_on_c, 8, 51, 89
1, 12145, Note_off_c, 9, 42, 64
1, 12146, Note_on_c, 3, 70, 102
1, 12154, Note_off_c, 8, 51, 64
1, 12169, Note_off_c, 3, 70, 64
1, 12192, Note_on_c, 9, 42, 110
1, 12192, Note_on_c, 9, 38, 115
1, 12192, Note_on_c, 8, 49, 80
1, 12193, Note_off_c, 9, 38, 64
1, 12193, Note_off_c, 9, 42, 64
1, 12193, Note_on_c, 9, 39, 127
1, 12194, Note_off_c, 9, 39, 64
1, 12195, Note_on_c, 3, 68, 88
1, 12199, Note_on_c, 10, 39, 127
1, 12200, Note_off_c, 10, 39, 64
1, 12202, Note_off_c, 8, 49, 64
1, 12237, Note_off_c, 3, 68, 64
1, 12240, Note_on_c, 9, 42, 50
1, 12240, Note_on_c, 1, 37, 127
1, 12240, Note_on_c, 5, 61, 82
1, 12240, Note_on_c, 4, 56, 101
1, 12240, Note_on_c, 4, 49, 98
1, 12240, Note_on_c, 8, 51, 99
1, 12241, Note_off_c, 9, 42, 64
1, 12242, Note_on_c, 3, 70, 100
1, 12250, Note_off_c, 8, 51, 64
1, 12262, Note_off_c, 3, 70, 64
1, 12275, Note_off_c, 1, 37, 64
1, 12280, Note_off_c, 5, 61, 64
1, 12280, Note_off_c, 4, 56, 64
1, 12280, Note_off_c, 4, 49, 64
1, 12284, Note_off_c, 0, 63, 64
1, 12284, Note_off_c, 0, 66, 64
1, 12284, Note_off_c, 0, 58, 64
1, 12288, Note_on_c, 9, 42, 110
1, 12288, Note_on_c, 9, 36, 90
1, 12288, Note_on_c, 1, 37, 127
1, 12288, Note_on_c, 0, 61, 78
1, 12288, Note_on_c, 0, 56, 78
1, 12288, Note_on_c, 0, 65, 74
1, 12288, Note_on_c, 5, 61, 82
1, 12288, Note_on_c, 4, 56, 97
1, 12288, Note_on_c, 4, 49, 98
1, 12288, Note_on_c, 8, 53, 87
1, 12289, Note_off_c, 9, 36, 64
1, 12289, Note_off_c, 9, 42, 64
1, 12289, Note_on_c, 3, 71, 97
1, 12295, Pitch_bend_c, 3, 16187
1, 12298, Note_off_c, 8, 53, 64
1, 12303, Pitch_bend_c, 3, 16317
1, 12312, Pitch_bend_c, 3, 16187
1, 12318, Note_off_c, 3, 71, 64
1, 12321, Pitch_bend_c, 3, 7810
1, 12326, Note_off_c, 1, 37, 64
1, 12328, Note_off_c, 5, 61, 64
1, 12328, Note_off_c, 4, 56, 64
1, 12328, Note_off_c, 4, 49, 64
1, 12329, Pitch_bend_c, 3, 8192
1, 12336, Note_on_c, 9, 42, 50
1, 12336, Note_on_c, 8, 51, 74
1, 12337, Note_off_c, 9, 42, 64
1, 12340, Note_on_c, 3, 70, 105
1, 12346, Note_off_c, 8, 51, 64
1, 12361, Note_off_c, 3, 70, 64
1, 12384, Note_on_c, 9, 42, 110
1, 12384, Note_on_c, 9, 38, 115
1, 12384, Note_on_c, 9, 36, 90
1, 12384, Note_on_c, 1, 37, 127
1, 12384, Note_on_c, 5, 61, 100
1, 12384, Note_on_c, 4, 56, 101
1, 12384, Note_on_c, 4, 49, 100
1, 12384, Note_on_c, 8, 49, 82
1, 12385, Note_off_c, 9, 36, 64
1, 12385, Note_off_c, 9, 38, 64
1, 12385, Note_off_c, 9, 42, 64
1, 12389, Note_on_c, 3, 68, 107
1, 12394, Note_off_c, 8, 49, 64
1, 12410, Note_off_c, 3, 68, 64
1, 12419, Note_off_c, 1, 37, 64
1, 12424, Note_off_c, 5, 61, 64
1, 12424, Note_off_c, 4, 49, 64
1, 12424, Note_off_c, 4, 56, 64
1, 12432, Note_on_c, 9, 42, 50
1, 12432, Note_on_c, 8, 51, 99
1, 12433, Note_off_c, 9, 42, 64
1, 12442, Note_off_c, 8, 51, 64
1, 12480, Note_on_c, 9, 42, 110
1, 12480, Note_on_c, 8, 53, 92
1, 12481, Note_off_c, 9, 42, 64
1, 12482, Note_on_c, 3, 70, 108
1, 12490, Note_off_c, 8, 53, 64
1, 12492, Control_c, 3, 1, 119
1, 12502, Control_c, 3, 1, 122
1, 12522, Control_c, 3, 1, 123
1, 12528, Note_on_c, 9, 42, 50
1, 12528, Note_on_c, 9, 36, 90
1, 12528, Note_on_c, 8, 51, 92
1, 12529, Note_off_c, 9, 36, 64
1, 12529, Note_off_c, 9, 42, 64
1, 12538, Note_off_c, 8, 51, 64
1, 12542, Control_c, 3, 1, 122
1, 12551, Control_c, 3, 1, 99
1, 12555, Note_off_c, 3, 70, 64
1, 12561, Control_c, 3, 1, 0
1, 12576, Note_on_c, 9, 42, 110
1, 12576, Note_on_c, 9, 38, 115
1, 12576, Note_on_c, 8, 49, 85
1, 12577, Note_off_c, 9, 38, 64
1, 12577, Note_off_c, 9, 42, 64
1, 12577, Note_on_c, 9, 39, 127
1, 12578, Note_off_c, 9, 39, 64
1, 12583, Note_on_c, 10, 39, 127
1, 12584, Note_off_c, 10, 39, 64
1, 12586, Note_off_c, 8, 49, 64
1, 12624, Note_on_c, 9, 42, 50
1, 12624, Note_on_c, 8, 51, 101
1, 12625, Note_off_c, 9, 42, 64
1, 12629, Note_on_c, 3, 70, 105
1, 12634, Note_off_c, 8, 51, 64
1, 12643, Note_off_c, 3, 70, 64
1, 12668, Note_off_c, 0, 65, 64
1, 12668, Note_off_c, 0, 56, 64
1, 12668, Note_off_c, 0, 61, 64
1, 12672, Note_on_c, 9, 42, 110
1, 12672, Note_on_c, 9, 36, 90
1, 12672, Note_on_c, 0, 63, 76
1, 12672, Note_on_c, 0, 66, 76
1, 12672, Note_on_c, 0, 58, 73
1, 12672, Note_on_c, 8, 49, 83
1, 12673, Note_off_c, 9, 36, 64
1, 12673, Note_off_c, 9, 42, 64
1, 12674, Note_off_c, 8, 49, 64
1, 12676, Note_on_c, 3, 68, 105
1, 12689, Pitch_bend_c, 3, 16187
1, 12699, Pitch_bend_c, 3, 16317
1, 12703, Note_off_c, 3, 68, 64
1, 12709, Pitch_bend_c, 3, 7810
1, 12720, Pitch_bend_c, 3, 8192
1, 12720, Note_on_c, 9, 42, 50
1, 12720, Note_on_c, 1, 39, 127
1, 12720, Note_on_c, 5, 63, 98
1, 12720, Note_on_c, 4, 58, 102
1, 12720, Note_on_c, 4, 51, 101
1, 12720, Note_on_c, 8, 51, 89
1, 12721, Note_off_c, 9, 42, 64
1, 12726, Note_on_c, 3, 70, 108
1, 12730, Note_off_c, 8, 51, 64
1, 12741, Note_off_c, 3, 70, 64
1, 12755, Note_off_c, 1, 39, 64
1, 12760, Note_off_c, 5, 63, 64
1, 12760, Note_off_c, 4, 58, 64
1, 12760, Note_off_c, 4, 51, 64
1, 12768, Note_on_c, 9, 42, 110
1, 12768, Note_on_c, 9, 38, 115
1, 12768, Note_on_c, 1, 39, 127
1, 12768, Note_on_c, 5, 63, 86
1, 12768, Note_on_c, 4, 51, 98
1, 12768, Note_on_c, 4, 58, 101
1, 12768, Note_on_c, 8, 49, 85
1, 12769, Note_off_c, 9, 38, 64
1, 12769, Note_off_c, 9, 42, 64
1, 12772, Note_on_c, 3, 70, 102
1, 12778, Note_off_c, 8, 49, 64
1, 12788, Note_off_c, 3, 70, 64
1, 12808, Note_off_c, 5, 63, 64
1, 12808, Note_off_c, 1, 39, 64
1, 12808, Note_off_c, 4, 51, 64
1, 12808, Note_off_c, 4, 58, 64
1, 12816, Note_on_c, 9, 42, 50
1, 12816, Note_on_c, 8, 51, 90
1, 12817, Note_off_c, 9, 42, 64
1, 12819, Note_on_c, 3, 70, 102
1, 12826, Note_off_c, 8, 51, 64
1, 12839, Note_off_c, 3, 70, 64
1, 12864, Note_on_c, 9, 42, 110
1, 12864, Note_on_c, 9, 36, 90
1, 12864, Note_on_c, 1, 39, 127
1, 12864, Note_on_c, 5, 63, 98
1, 12864, Note_on_c, 4, 58, 101
1, 12864, Note_on_c, 4, 51, 101
1, 12864, Note_on_c, 8, 54, 105
1, 12865, Note_off_c, 9, 36, 64
1, 12865, Note_off_c, 9, 42, 64
1, 12868, Note_on_c, 3, 68, 107
1, 12874, Note_off_c, 8, 54, 64
1, 12890, Note_off_c, 3, 68, 64
1, 12904, Note_off_c, 5, 63, 64
1, 12904, Note_off_c, 4, 58, 64
1, 12904, Note_off_c, 4, 51, 64
1, 12906, Note_off_c, 1, 39, 64
1, 12912, Note_on_c, 9, 42, 50
1, 12912, Note_on_c, 8, 51, 90
1, 12913, Note_off_c, 9, 42, 64
1, 12916, Note_on_c, 3, 70, 108
1, 12922, Note_off_c, 8, 51, 64
1, 12935, Note_off_c, 3, 70, 64
1, 12960, Note_on_c, 9, 42, 110
1, 12960, Note_on_c, 9, 38, 115
1, 12960, Note_on_c, 8, 49, 70
1, 12961, Note_off_c, 9, 38, 64
1, 12961, Note_off_c, 9, 42, 64
1, 12961, Note_on_c, 9, 39, 127
1, 12962, Note_off_c, 9, 39, 64
1, 12963, Note_on_c, 3, 68, 105
1, 12967, Note_on_c, 10, 39, 127
1, 12968, Note_off_c, 10, 39, 64
1, 12970, Note_off_c, 8, 49, 64
1, 12999, Note_off_c, 3, 68, 64
1, 13008, Note_on_c, 9, 42, 50
1, 13008, Note_on_c, 1, 37, 127
1, 13008, Note_on_c, 5, 61, 92
1, 13008, Note_on_c, 4, 56, 102
1, 13008, Note_on_c, 4, 49, 101
1, 13008, Note_on_c, 8, 51, 97
1, 13009, Note_off_c, 9, 42, 64
1, 13012, Note_on_c, 3, 66, 101
1, 13018, Note_off_c, 8, 51, 64
1, 13036, Note_off_c, 3, 66, 64
1, 13043, Note_off_c, 1, 37, 64
1, 13048, Note_off_c, 5, 61, 64
1, 13048, Note_off_c, 4, 56, 64
1, 13048, Note_off_c, 4, 49, 64
1, 13052, Note_off_c, 0, 63, 64
1, 13052, Note_off_c, 0, 66, 64
1, 13052, Note_off_c, 0, 58, 64
1, 13056, Note_on_c, 9, 42, 110
1, 13056, Note_on_c, 9, 36, 90
1, 13056, Note_on_c, 1, 37, 127
1, 13056, Note_on_c, 0, 56, 79
1, 13056, Note_on_c, 0, 61, 78
1, 13056, Note_on_c, 0, 65, 76
1, 13056, Note_on_c, 5, 61, 84
1, 13056, Note_on_c, 4, 49, 97
1, 13056, Note_on_c, 4, 56, 99
1, 13056, Note_on_c, 8, 53, 86
1, 13057, Note_off_c, 9, 36, 64
1, 13057, Note_off_c, 9, 42, 64
1, 13058, Note_on_c, 3, 68, 105
1, 13066, Note_off_c, 8, 53, 64
1, 13084, Note_off_c, 3, 68, 64
1, 13096, Note_off_c, 5, 61, 64
1, 13096, Note_off_c, 1, 37, 64
1, 13096, Note_off_c, 4, 49, 64
1, 13096, Note_off_c, 4, 56, 64
1, 13104, Note_on_c, 9, 42, 50
1, 13104, Note_on_c, 8, 51, 95
1, 13105, Note_off_c, 9, 42, 64
1, 13107, Note_on_c, 3, 66, 95
1, 13114, Note_off_c, 8, 51, 64
1, 13122, Note_off_c, 3, 66, 64
1, 13152, Note_on_c, 9, 42, 110
1, 13152, Note_on_c, 9, 38, 115
1, 13152, Note_on_c, 9, 36, 90
1, 13152, Note_on_c, 1, 37, 127
1, 13152, Note_on_c, 5, 61, 98
1, 13152, Note_on_c, 4, 56, 100
1, 13152, Note_on_c, 4, 49, 99
1, 13152, Note_on_c, 8, 49, 83
1, 13153, Note_off_c, 9, 36, 64
1, 13153, Note_off_c, 9, 38, 64
1, 13153, Note_off_c, 9, 42, 64
1, 13159, Note_on_c, 3, 68, 108
1, 13162, Note_off_c, 8, 49, 64
1, 13162, Pitch_bend_c, 3, 9472
1, 13165, Pitch_bend_c, 3, 10752
1, 13170, Pitch_bend_c, 3, 11392
1, 13172, Pitch_bend_c, 3, 13312
1, 13177, Pitch_bend_c, 3, 14272
1, 13186, Pitch_bend_c, 3, 15232
1, 13192, Note_off_c, 5, 61, 64
1, 13192, Note_off_c, 4, 49, 64
1, 13192, Note_off_c, 4, 56, 64
1, 13192, Pitch_bend_c, 3, 15552
1, 13194, Note_off_c, 1, 37, 64
1, 13198, Pitch_bend_c, 3, 16383
1, 13200, Note_on_c, 9, 42, 50
1, 13200, Note_on_c, 8, 51, 87
1, 13201, Note_off_c, 9, 42, 64
1, 13210, Note_off_c, 8, 51, 64
1, 13219, Note_off_c, 3, 68, 64
1, 13248, Note_on_c, 9, 42, 110
1, 13248, Note_on_c, 8, 53, 78
1, 13249, Note_off_c, 9, 42, 64
1, 13258, Note_off_c, 8, 53, 64
1, 13274, Pitch_bend_c, 3, 8192
1, 13296, Note_on_c, 9, 42, 50
1, 13296, Note_on_c, 9, 36, 90
1, 13296, Note_on_c, 8, 51, 95
1, 13297, Note_off_c, 9, 36, 64
1, 13297, Note_off_c, 9, 42, 64
1, 13306, Note_off_c, 8, 51, 64
1, 13344, Note_on_c, 9, 42, 110
1, 13344, Note_on_c, 9, 38, 115
1, 13344, Note_on_c, 8, 49, 78
1, 13345, Note_off_c, 9, 38, 64
1, 13345, Note_off_c, 9, 42, 64
1, 13345, Note_on_c, 9, 39, 127
1, 13346, Note_off_c, 9, 39, 64
1, 13351, Note_on_c, 10, 39, 127
1, 13352, Note_off_c, 10, 39, 64
1, 13354, Note_off_c, 8, 49, 64
1, 13392, Note_on_c, 9, 42, 50
1, 13392, Note_on_c, 8, 51, 78
1, 13393, Note_off_c, 9, 42, 64
1, 13395, Note_on_c, 3, 70, 107
1, 13402, Note_off_c, 8, 51, 64
1, 13410, Note_off_c, 3, 70, 64
1, 13436, Note_off_c, 0, 65, 64
1, 13436, Note_off_c, 0, 61, 64
1, 13436, Note_off_c, 0, 56, 64
1, 13440, Note_on_c, 9, 42, 110
1, 13440, Note_on_c, 9, 36, 90
1, 13440, Note_on_c, 0, 54, 78
1, 13440, Note_on_c, 0, 63, 82
1, 13440, Note_on_c, 0, 59, 77
1, 13440, Note_on_c, 8, 49, 65
1, 13441, Note_off_c, 8, 49, 64
1, 13441, Note_off_c, 9, 36, 64
1, 13441, Note_off_c, 9, 42, 64
1, 13442, Note_on_c, 3, 66, 107
1, 13450, Pitch_bend_c, 3, 16317
1, 13462, Note_off_c, 3, 66, 64
1, 13473, Pitch_bend_c, 3, 12677
1, 13481, Pitch_bend_c, 3, 8192
1, 13488, Note_on_c, 9, 42, 50
1, 13488, Note_on_c, 1, 35, 127
1, 13488, Note_on_c, 5, 59, 87
1, 13488, Note_on_c, 4, 54, 105
1, 13488, Note_on_c, 4, 47, 96
1, 13488, Note_on_c, 8, 51, 105
1, 13489, Note_off_c, 9, 42, 64
1, 13493, Note_on_c, 3, 66, 107
1, 13500, Note_off_c, 8, 51, 64
1, 13515, Note_off_c, 3, 66, 64
1, 13523, Note_off_c, 1, 35, 64
1, 13528, Note_off_c, 5, 59, 64
1, 13528, Note_off_c, 4, 54, 64
1, 13528, Note_off_c, 4, 47, 64
1, 13536, Note_on_c, 9, 42, 110
1, 13536, Note_on_c, 9, 38, 115
1, 13536, Note_on_c, 1, 35, 127
1, 13536, Note_on_c, 5, 59, 85
1, 13536, Note_on_c, 4, 47, 92
1, 13536, Note_on_c, 4, 54, 99
1, 13536, Note_on_c, 8, 51, 92
1, 13537, Note_off_c, 9, 38, 64
1, 13537, Note_off_c, 9, 42, 64
1, 13541, Note_on_c, 3, 63, 104
1, 13548, Note_off_c, 8, 51, 64
1, 13571, Note_off_c, 1, 35, 64
1, 13576, Note_off_c, 5, 59, 64
1, 13576, Note_off_c, 4, 47, 64
1, 13576, Note_off_c, 4, 54, 64
1, 13584, Note_on_c, 9, 42, 50
1, 13584, Note_on_c, 8, 51, 86
1, 13585, Note_off_c, 9, 42, 64
1, 13586, Note_on_c, 3, 61, 104
1, 13587, Note_off_c, 3, 63, 64
1, 13596, Note_off_c, 8, 51, 64
1, 13606, Note_off_c, 3, 61, 64
1, 13632, Note_on_c, 9, 42, 110
1, 13632, Note_on_c, 9, 36, 90
1, 13632, Note_on_c, 1, 35, 127
1, 13632, Note_on_c, 5, 59, 90
1, 13632, Note_on_c, 4, 54, 104
1, 13632, Note_on_c, 4, 47, 99
1, 13632, Note_on_c, 8, 54, 89
1, 13633, Note_off_c, 9, 36, 64
1, 13633, Note_off_c, 9, 42, 64
1, 13634, Note_on_c, 3, 63, 108
1, 13644, Note_off_c, 8, 54, 64
1, 13645, Control_c, 3, 1, 1
1, 13652, Control_c, 3, 1, 120
1, 13667, Note_off_c, 1, 35, 64
1, 13672, Note_off_c, 5, 59, 64
1, 13672, Note_off_c, 4, 54, 64
1, 13672, Note_off_c, 4, 47, 64
1, 13675, Control_c, 3, 1, 121
1, 13680, Note_on_c, 9, 42, 50
1, 13680, Note_on_c, 8, 51, 95
1, 13681, Note_off_c, 9, 42, 64
1, 13692, Note_off_c, 8, 51, 64
1, 13696, Control_c, 3, 1, 118
1, 13703, Control_c, 3, 1, 19
1, 13709, Control_c, 3, 1, 0
1, 13715, Note_off_c, 3, 63, 64
1, 13728, Note_on_c, 9, 42, 110
1, 13728, Note_on_c, 9, 38, 115
1, 13728, Note_on_c, 8, 49, 99
1, 13729, Note_off_c, 9, 38, 64
1, 13729, Note_off_c, 9, 42, 64
1, 13729, Note_on_c, 9, 39, 127
1, 13730, Note_off_c, 9, 39, 64
1, 13730, Note_on_c, 3, 61, 105
1, 13735, Note_on_c, 10, 39, 127
1, 13736, Note_off_c, 10, 39, 64
1, 13740, Note_off_c, 8, 49, 64
1, 13760, Note_off_c, 3, 61, 64
1, 13776, Note_on_c, 9, 42, 50
1, 13776, Note_on_c, 1, 37, 127
1, 13776, Note_on_c, 5, 61, 100
1, 13776, Note_on_c, 4, 49, 102
1, 13776, Note_on_c, 4, 56, 105
1, 13776, Note_on_c, 8, 51, 103
1, 13777, Note_off_c, 9, 42, 64
1, 13778, Note_on_c, 3, 63, 107
1, 13788, Note_off_c, 8, 51, 64
1, 13798, Note_off_c, 3, 63, 64
1, 13811, Note_off_c, 1, 37, 64
1, 13816, Note_off_c, 5, 61, 64
1, 13816, Note_off_c, 4, 49, 64
1, 13816, Note_off_c, 4, 56, 64
1, 13820, Note_off_c, 0, 54, 64
1, 13820, Note_off_c, 0, 59, 64
1, 13820, Note_off_c, 0, 63, 64
1, 13824, Note_on_c, 9, 42, 110
1, 13824, Note_on_c, 9, 36, 90
1, 13824, Note_on_c, 1, 37, 127
1, 13824, Note_on_c, 0, 61, 82
1, 13824, Note_on_c, 0, 56, 78
1, 13824, Note_on_c, 0, 65, 74
1, 13824, Note_on_c, 5, 61, 86
1, 13824, Note_on_c, 4, 49, 100
1, 13824, Note_on_c, 4, 56, 101
1, 13824, Note_on_c, 8, 53, 78
1, 13825, Note_off_c, 9, 36, 64
1, 13825, Note_off_c, 9, 42, 64
1, 13825, Note_on_c, 3, 63, 107
1, 13831, Pitch_bend_c, 3, 16187
1, 13836, Note_off_c, 8, 53, 64
1, 13839, Pitch_bend_c, 3, 16317
1, 13864, Note_off_c, 5, 61, 64
1, 13864, Note_off_c, 1, 37, 64
1, 13864, Note_off_c, 4, 49, 64
1, 13864, Note_off_c, 4, 56, 64
1, 13872, Note_on_c, 9, 42, 50
1, 13872, Note_on_c, 8, 51, 103
1, 13873, Note_off_c, 9, 42, 64
1, 13878, Pitch_bend_c, 3, 13912
1, 13884, Note_off_c, 8, 51, 64
1, 13886, Pitch_bend_c, 3, 8192
1, 13920, Note_on_c, 9, 42, 110
1, 13920, Note_on_c, 9, 38, 115
1, 13920, Note_on_c, 9, 36, 90
1, 13920, Note_on_c, 1, 37, 127
1, 13920, Note_on_c, 5, 61, 103
1, 13920, Note_on_c, 4, 56, 105
1, 13920, Note_on_c, 4, 49, 105
1, 13920, Note_on_c, 8, 49, 82
1, 13921, Note_off_c, 9, 36, 64
1, 13921, Note_off_c, 9, 38, 64
1, 13921, Note_off_c, 9, 42, 64
1, 13924, Note_off_c, 3, 63, 64
1, 13925, Note_on_c, 3, 61, 108
1, 13932, Note_off_c, 8, 49, 64
1, 13955, Note_off_c, 1, 37, 64
1, 13960, Note_off_c, 5, 61, 64
1, 13960, Note_off_c, 4, 49, 64
1, 13960, Note_off_c, 4, 56, 64
1, 13965, Note_off_c, 3, 61, 64
1, 13968, Note_on_c, 9, 42, 50
1, 13968, Note_on_c, 8, 51, 93
1, 13969, Note_off_c, 9, 42, 64
1, 13972, Note_on_c, 3, 58, 104
1, 13980, Note_off_c, 8, 51, 64
1, 13984, Note_off_c, 3, 58, 64
1, 14016, Note_on_c, 9, 42, 110
1, 14016, Note_on_c, 8, 53, 74
1, 14017, Note_off_c, 9, 42, 64
1, 14022, Note_on_c, 3, 61, 108
1, 14028, Note_off_c, 8, 53, 64
1, 14039, Control_c, 3, 1, 120
1, 14057, Control_c, 3, 1, 121
1, 14064, Note_on_c, 9, 42, 50
1, 14064, Note_on_c, 9, 36, 90
1, 14064, Note_on_c, 8, 51, 99
1, 14065, Note_off_c, 9, 36, 64
1, 14065, Note_off_c, 9, 42, 64
1, 14067, Control_c, 3, 1, 122
1, 14076, Note_off_c, 8, 51, 64
1, 14092, Control_c, 3, 1, 119
1, 14100, Note_off_c, 3, 61, 64
1, 14100, Control_c, 3, 1, 31
1, 14101, Pitch_bend_c, 14, 6676
1, 14106, Pitch_bend_c, 14, 5794
1, 14110, Control_c, 3, 1, 0
1, 14111, Note_on_c, 14, 63, 110
1, 14112, Note_on_c, 9, 42, 110
1, 14112, Note_on_c, 9, 38, 115
1, 14112, Note_on_c, 8, 49, 95
1, 14113, Note_off_c, 9, 38, 64
1, 14113, Note_off_c, 9, 42, 64
1, 14113, Pitch_bend_c, 14, 6046
1, 14113, Note_on_c, 15, 63, 98
1, 14113, Note_on_c, 9, 39, 127
1, 14114, Note_off_c, 9, 39, 64
1, 14115, Note_on_c, 3, 63, 108
1, 14119, Pitch_bend_c, 14, 8192
1, 14119, Note_on_c, 10, 39, 127
1, 14120, Note_off_c, 10, 39, 64
1, 14124, Note_off_c, 8, 49, 64
1, 14131, Note_off_c, 14, 63, 64
1, 14133, Note_off_c, 15, 63, 64
1, 14157, Note_off_c, 3, 63, 64
1, 14160, Note_on_c, 9, 42, 50
1, 14160, Note_on_c, 8, 51, 105
1, 14161, Note_off_c, 9, 42, 64
1, 14172, Note_off_c, 8, 51, 64
1, 14193, Pitch_bend_c, 15, 7180
1, 14198, Pitch_bend_c, 15, 4156
1, 14203, Pitch_bend_c, 15, 3274
1, 14204, Note_off_c, 0, 65, 64
1, 14204, Note_off_c, 0, 56, 64
1, 14204, Note_off_c, 0, 61, 64
1, 14208, Note_on_c, 14, 66, 111
1, 14208, Note_on_c, 9, 42, 110
1, 14208, Note_on_c, 9, 36, 90
1, 14208, Note_on_c, 0, 63, 81
1, 14208, Note_on_c, 0, 66, 81
1, 14208, Note_on_c, 0, 58, 78
1, 14208, Note_on_c, 8, 49, 77
1, 14209, Note_off_c, 8, 49, 64
1, 14209, Note_off_c, 9, 36, 64
1, 14209, Note_off_c, 9, 42, 64
1, 14210, Note_on_c, 3, 66, 107
1, 14210, Note_on_c, 15, 66, 100
1, 14212, Pitch_bend_c, 15, 4282
1, 14219, Pitch_bend_c, 15, 8192
1, 14251, Note_off_c, 3, 66, 64
1, 14253, Note_off_c, 14, 66, 64
1, 14255, Note_off_c, 15, 66, 64
1, 14256, Note_on_c, 9, 42, 50
1, 14256, Note_on_c, 1, 39, 127
1, 14256, Note_on_c, 5, 63, 102
1, 14256, Note_on_c, 4, 58, 105
1, 14256, Note_on_c, 4, 51, 103
1, 14256, Note_on_c, 8, 51, 99
1, 14257, Note_off_c, 9, 42, 64
1, 14257, Note_on_c, 14, 63, 110
1, 14258, Note_on_c, 15, 63, 98
1, 14259, Note_on_c, 3, 63, 108
1, 14268, Note_off_c, 8, 51, 64
1, 14269, Note_off_c, 14, 63, 64
1, 14270, Note_off_c, 15, 63, 64
1, 14275, Note_off_c, 3, 63, 64
1, 14291, Note_off_c, 1, 39, 64
1, 14296, Note_off_c, 5, 63, 64
1, 14296, Note_off_c, 4, 58, 64
1, 14296, Note_off_c, 4, 51, 64
1, 14304, Note_on_c, 9, 42, 110
1, 14304, Note_on_c, 9, 38, 115
1, 14304, Note_on_c, 1, 39, 127
1, 14304, Note_on_c, 5, 63, 95
1, 14304, Note_on_c, 4, 58, 101
1, 14304, Note_on_c, 4, 51, 101
1, 14304, Note_on_c, 8, 51, 95
1, 14305, Note_off_c, 9, 38, 64
1, 14305, Note_off_c, 9, 42, 64
1, 14316, Note_off_c, 8, 51, 64
1, 14344, Note_off_c, 5, 63, 64
1, 14344, Note_off_c, 1, 39, 64
1, 14344, Note_off_c, 4, 58, 64
1, 14344, Note_off_c, 4, 51, 64
1, 14352, Note_on_c, 9, 42, 50
1, 14352, Note_on_c, 8, 51, 89
1, 14353, Note_off_c, 9, 42, 64
1, 14364, Note_off_c, 8, 51, 64
1, 14400, Note_on_c, 9, 42, 110
1, 14400, Note_on_c, 9, 36, 90
1, 14400, Note_on_c, 1, 39, 127
1, 14400, Note_on_c, 5, 63, 102
1, 14400, Note_on_c, 4, 58, 104
1, 14400, Note_on_c, 4, 51, 104
1, 14400, Note_on_c, 8, 54, 93
1, 14401, Note_off_c, 9, 36, 64
1, 14401, Note_off_c, 9, 42, 64
1, 14412, Note_off_c, 8, 54, 64
1, 14440, Note_off_c, 5, 63, 64
1, 14440, Note_off_c, 4, 58, 64
1, 14440, Note_off_c, 4, 51, 64
1, 14442, Note_off_c, 1, 39, 64
1, 14448, Note_on_c, 9, 42, 50
1, 14448, Note_on_c, 8, 51, 89
1, 14449, Note_off_c, 9, 42, 64
1, 14460, Note_off_c, 8, 51, 64
1, 14496, Note_on_c, 9, 42, 110
1, 14496, Note_on_c, 9, 38, 115
1, 14496, Note_on_c, 8, 49, 107
1, 14497, Note_off_c, 9, 38, 64
1, 14497, Note_off_c, 9, 42, 64
1, 14497, Note_on_c, 9, 39, 127
1, 14498, Note_off_c, 9, 39, 64
1, 14499, Note_on_c, 3, 70, 108
1, 14503, Note_on_c, 10, 39, 127
1, 14504, Note_off_c, 10, 39, 64
1, 14508, Note_off_c, 8, 49, 64
1, 14512, Note_off_c, 3, 70, 64
1, 14544, Note_on_c, 9, 42, 50
1, 14544, Note_on_c, 1, 37, 127
1, 14544, Note_on_c, 5, 61, 100
1, 14544, Note_on_c, 4, 56, 105
1, 14544, Note_on_c, 4, 49, 100
1, 14544, Note_on_c, 8, 51, 86
1, 14545, Note_off_c, 9, 42, 64
1, 14547, Note_on_c, 3, 70, 104
1, 14556, Note_off_c, 8, 51, 64
1, 14561, Note_off_c, 3, 70, 64
1, 14579, Note_off_c, 1, 37, 64
1, 14584, Note_off_c, 5, 61, 64
1, 14584, Note_off_c, 4, 56, 64
1, 14584, Note_off_c, 4, 49, 64
1, 14588, Note_off_c, 0, 63, 64
1, 14588, Note_off_c, 0, 58, 64
1, 14588, Note_off_c, 0, 66, 64
1, 14592, Note_on_c, 9, 42, 110
1, 14592, Note_on_c, 9, 36, 90
1, 14592, Note_on_c, 1, 37, 127
1, 14592, Note_on_c, 0, 56, 81
1, 14592, Note_on_c, 0, 61, 80
1, 14592, Note_on_c, 0, 65, 76
1, 14592, Note_on_c, 5, 61, 82
1, 14592, Note_on_c, 4, 56, 97
1, 14592, Note_on_c, 4, 49, 98
1, 14592, Note_on_c, 8, 53, 81
1, 14593, Note_off_c, 9, 36, 64
1, 14593, Note_off_c, 9, 42, 64
1, 14596, Note_on_c, 3, 71, 105
1, 14602, Pitch_bend_c, 3, 10112
1, 14604, Note_off_c, 8, 53, 64
1, 14610, Pitch_bend_c, 3, 16317
1, 14621, Note_off_c, 3, 71, 64
1, 14632, Note_off_c, 5, 61, 64
1, 14632, Note_off_c, 1, 37, 64
1, 14632, Note_off_c, 4, 56, 64
1, 14632, Note_off_c, 4, 49, 64
1, 14636, Pitch_bend_c, 3, 16320
1, 14639, Pitch_bend_c, 8, 8192
1, 14640, Note_on_c, 9, 42, 50
1, 14640, Note_on_c, 8, 51, 101
1, 14641, Note_off_c, 9, 42, 64
1, 14644, Pitch_bend_c, 3, 8192
1, 14646, Note_on_c, 3, 70, 102
1, 14652, Note_off_c, 8, 51, 64
1, 14668, Note_off_c, 3, 70, 64
1, 14688, Note_on_c, 9, 42, 110
1, 14688, Note_on_c, 9, 38, 115
1, 14688, Note_on_c, 9, 36, 90
1, 14688, Note_on_c, 1, 37, 127
1, 14688, Note_on_c, 5, 61, 100
1, 14688, Note_on_c, 4, 56, 101
1, 14688, Note_on_c, 4, 49, 100
1, 14688, Note_on_c, 8, 49, 103
1, 14689, Note_off_c, 9, 36, 64
1, 14689, Note_off_c, 9, 38, 64
1, 14689, Note_off_c, 9, 42, 64
1, 14692, Note_on_c, 3, 68, 105
1, 14700, Note_off_c, 8, 49, 64
1, 14722, Note_off_c, 3, 68, 64
1, 14728, Note_off_c, 5, 61, 64
1, 14728, Note_off_c, 4, 49, 64
1, 14728, Note_off_c, 4, 56, 64
1, 14730, Note_off_c, 1, 37, 64
1, 14736, Note_on_c, 9, 42, 50
1, 14736, Note_on_c, 8, 51, 111
1, 14737, Note_off_c, 9, 42, 64
1, 14748, Note_off_c, 8, 51, 64
1, 14782, Control_c, 3, 1, 19
1, 14783, Note_on_c, 3, 70, 108
1, 14784, Note_on_c, 9, 42, 110
1, 14785, Note_off_c, 9, 42, 64
1, 14790, Control_c, 3, 1, 118
1, 14804, Control_c, 3, 1, 122
1, 14832, Control_c, 3, 1, 123
1, 14832, Note_on_c, 9, 42, 50
1, 14832, Note_on_c, 9, 36, 90
1, 14833, Note_off_c, 9, 36, 64
1, 14833, Note_off_c, 9, 42, 64
1, 14845, Control_c, 3, 1, 113
1, 14857, Control_c, 3, 1, 0
1, 14864, Note_off_c, 3, 70, 64
1, 14880, Note_on_c, 9, 42, 110
1, 14880, Note_on_c, 9, 38, 115
1, 14881, Note_off_c, 9, 38, 64
1, 14881, Note_off_c, 9, 42, 64
1, 14881, Note_on_c, 9, 39, 127
1, 14882, Note_off_c, 9, 39, 64
1, 14884, Note_on_c, 3, 68, 108
1, 14887, Note_on_c, 10, 39, 127
1, 14888, Note_off_c, 10, 39, 64
1, 14917, Note_off_c, 3, 68, 64
1, 14925, Pitch_bend_c, 5, 6077
1, 14926, Note_on_c, 5, 39, 114
1, 14927, Pitch_bend_c, 4, 6272
1, 14928, Note_on_c, 9, 57, 90
1, 14928, Note_on_c, 9, 36, 90
1, 14928, Note_on_c, 1, 27, 127
1, 14928, Note_on_c, 4, 39, 114
1, 14928, Note_on_c, 8, 39, 75
1, 14929, Note_off_c, 9, 36, 64
1, 14929, Note_off_c, 9, 57, 64
1, 14929, Pitch_bend_c, 5, 6288
1, 14931, Pitch_bend_c, 4, 6464
1, 14933, Pitch_bend_c, 5, 6429
1, 14935, Pitch_bend_c, 4, 6592
1, 14937, Pitch_bend_c, 5, 6641
1, 14939, Pitch_bend_c, 4, 6784
1, 14941, Pitch_bend_c, 5, 6782
1, 14943, Pitch_bend_c, 4, 6912
1, 14945, Pitch_bend_c, 5, 7134
1, 14947, Pitch_bend_c, 4, 7232
1, 14948, Pitch_bend_c, 5, 7628
1, 14950, Pitch_bend_c, 4, 7680
1, 14952, Pitch_bend_c, 5, 7855
1, 14954, Pitch_bend_c, 4, 7886
1, 14956, Pitch_bend_c, 14, 7306
1, 14956, Pitch_bend_c, 5, 8192
1, 14958, Pitch_bend_c, 4, 8192
1, 14961, Pitch_bend_c, 14, 5794
1, 14962, Pitch_bend_c, 15, 7558
1, 14965, Pitch_bend_c, 14, 4156
1, 14967, Pitch_bend_c, 15, 5668
1, 14970, Pitch_bend_c, 14, 3022
1, 14972, Note_off_c, 0, 65, 64
1, 14972, Note_off_c, 0, 61, 64
1, 14972, Note_off_c, 0, 56, 64
1, 14972, Pitch_bend_c, 15, 3652
1, 14975, Note_on_c, 14, 70, 110
1, 14976, Pitch_bend_c, 14, 2392
1, 14976, Pitch_bend_c, 15, 2392
1, 14976, Note_on_c, 9, 42, 110
1, 14976, Note_on_c, 9, 36, 90
1, 14976, Note_on_c, 0, 63, 76
1, 14976, Note_on_c, 0, 66, 78
1, 14976, Note_on_c, 0, 58, 70
1, 14977, Note_off_c, 9, 36, 64
1, 14977, Note_off_c, 9, 42, 64
1, 14977, Note_on_c, 15, 70, 101
1, 14978, Note_on_c, 3, 70, 104
1, 14983, Pitch_bend_c, 14, 2770
1, 14984, Pitch_bend_c, 15, 2140
1, 14987, Pitch_bend_c, 14, 5164
1, 14989, Pitch_bend_c, 15, 4912
1, 14992, Pitch_bend_c, 14, 7180
1, 14994, Pitch_bend_c, 15, 7054
1, 14997, Pitch_bend_c, 14, 8192
1, 14999, Pitch_bend_c, 15, 8192
1, 15015, Note_off_c, 3, 70, 64
1, 15018, Note_off_c, 8, 39, 64
1, 15020, Note_off_c, 5, 39, 64
1, 15020, Note_off_c, 14, 70, 64
1, 15022, Note_off_c, 4, 39, 64
1, 15022, Note_off_c, 15, 70, 64
1, 15022, Note_on_c, 5, 42, 114
1, 15023, Note_off_c, 1, 27, 64
1, 15023, Note_on_c, 14, 70, 110
1, 15024, Note_on_c, 9, 42, 50
1, 15024, Note_on_c, 1, 30, 127
1, 15024, Note_on_c, 4, 42, 114
1, 15024, Note_on_c, 8, 42, 92
1, 15025, Note_off_c, 9, 42, 64
1, 15026, Note_on_c, 15, 70, 99
1, 15027, Note_on_c, 3, 70, 104
1, 15051, Control_c, 3, 1, 115
1, 15061, Control_c, 3, 1, 118
1, 15069, Note_off_c, 5, 42, 64
1, 15070, Note_on_c, 5, 46, 114
1, 15071, Note_off_c, 1, 30, 64
1, 15071, Note_off_c, 8, 42, 64
1, 15071, Note_off_c, 4, 42, 64
1, 15071, Control_c, 3, 1, 120
1, 15072, Note_on_c, 9, 42, 110
1, 15072, Note_on_c, 9, 38, 115
1, 15072, Note_on_c, 1, 34, 127
1, 15072, Note_on_c, 4, 46, 114
1, 15072, Note_on_c, 8, 46, 92
1, 15073, Note_off_c, 9, 38, 64
1, 15073, Note_off_c, 9, 42, 64
1, 15117, Note_off_c, 5, 46, 64
1, 15118, Note_on_c, 5, 54, 114
1, 15119, Note_off_c, 8, 46, 64
1, 15119, Note_off_c, 4, 46, 64
1, 15119, Note_off_c, 1, 34, 64
1, 15120, Note_on_c, 9, 42, 50
1, 15120, Note_on_c, 1, 42, 127
1, 15120, Note_on_c, 4, 54, 114
1, 15120, Note_on_c, 8, 54, 92
1, 15121, Note_off_c, 9, 42, 64
1, 15125, Control_c, 3, 1, 119
1, 15135, Control_c, 3, 1, 118
1, 15143, Note_off_c, 15, 70, 64
1, 15144, Note_off_c, 14, 70, 64
1, 15145, Control_c, 3, 1, 101
1, 15150, Control_c, 3, 1, 0
1, 15152, Note_off_c, 3, 70, 64
1, 15160, Pitch_bend_c, 14, 6550
1, 15160, Pitch_bend_c, 15, 4282
1, 15165, Note_off_c, 5, 54, 64
1, 15165, Pitch_bend_c, 14, 3778
1, 15165, Pitch_bend_c, 15, 2644
1, 15166, Note_on_c, 5, 51, 114
1, 15167, Note_off_c, 1, 42, 64
1, 15167, Note_off_c, 8, 54, 64
1, 15167, Note_off_c, 4, 54, 64
1, 15167, Note_on_c, 14, 66, 111
1, 15168, Note_on_c, 9, 42, 110
1, 15168, Note_on_c, 9, 36, 90
1, 15168, Note_on_c, 1, 39, 127
1, 15168, Note_on_c, 4, 51, 114
1, 15168, Note_on_c, 8, 51, 92
1, 15169, Note_off_c, 9, 36, 64
1, 15169, Note_off_c, 9, 42, 64
1, 15169, Pitch_bend_c, 15, 2392
1, 15169, Note_on_c, 15, 63, 102
1, 15177, Pitch_bend_c, 14, 7180
1, 15177, Pitch_bend_c, 15, 5668
1, 15179, Pitch_bend_c, 5, 8249
1, 15181, Pitch_bend_c, 4, 8244
1, 15182, Pitch_bend_c, 15, 8192
1, 15183, Pitch_bend_c, 14, 8192
1, 15183, Pitch_bend_c, 5, 8708
1, 15185, Pitch_bend_c, 4, 8660
1, 15190, Pitch_bend_c, 5, 8364
1, 15192, Pitch_bend_c, 4, 8348
1, 15194, Pitch_bend_c, 5, 8192
1, 15196, Pitch_bend_c, 4, 8192
1, 15200, Note_off_c, 15, 63, 64
1, 15202, Note_off_c, 14, 66, 64
1, 15210, Pitch_bend_c, 5, 8249
1, 15212, Pitch_bend_c, 4, 8244
1, 15214, Pitch_bend_c, 5, 8478
1, 15216, Note_on_c, 15, 63, 98
1, 15216, Note_on_c, 9, 42, 50
1, 15216, Pitch_bend_c, 4, 8452
1, 15217, Note_off_c, 9, 42, 64
1, 15217, Note_on_c, 14, 66, 110
1, 15217, Pitch_bend_c, 5, 8708
1, 15219, Pitch_bend_c, 4, 8660
1, 15225, Pitch_bend_c, 5, 8593
1, 15227, Pitch_bend_c, 4, 8556
1, 15229, Pitch_bend_c, 5, 8192
1, 15231, Pitch_bend_c, 4, 8192
1, 15241, Pitch_bend_c, 5, 8249
1, 15243, Pitch_bend_c, 4, 8244
1, 15245, Pitch_bend_c, 5, 8823
1, 15247, Pitch_bend_c, 4, 8765
1, 15249, Pitch_bend_c, 5, 9052
1, 15251, Pitch_bend_c, 4, 8973
1, 15256, Pitch_bend_c, 5, 8364
1, 15258, Pitch_bend_c, 4, 8348
1, 15261, Pitch_bend_c, 5, 8192
1, 15263, Pitch_bend_c, 4, 8192
1, 15264, Note_on_c, 9, 42, 110
1, 15264, Note_on_c, 9, 38, 115
1, 15265, Note_off_c, 9, 38, 64
1, 15265, Note_off_c, 9, 42, 64
1, 15265, Note_on_c, 9, 39, 127
1, 15266, Note_off_c, 9, 39, 64
1, 15268, Pitch_bend_c, 5, 8593
1, 15270, Pitch_bend_c, 4, 8556
1, 15271, Note_on_c, 10, 39, 127
1, 15272, Note_off_c, 10, 39, 64
1, 15272, Pitch_bend_c, 5, 9453
1, 15274, Pitch_bend_c, 4, 9337
1, 15276, Pitch_bend_c, 5, 9797
1, 15278, Pitch_bend_c, 4, 9649
1, 15284, Pitch_bend_c, 5, 9110
1, 15286, Pitch_bend_c, 4, 9025
1, 15288, Pitch_bend_c, 5, 8192
1, 15290, Pitch_bend_c, 4, 8192
1, 15307, Note_off_c, 5, 51, 64
1, 15309, Note_off_c, 8, 51, 64
1, 15309, Note_off_c, 4, 51, 64
1, 15309, Note_off_c, 1, 39, 64
1, 15309, Note_on_c, 5, 51, 114
1, 15311, Note_on_c, 1, 39, 127
1, 15311, Note_on_c, 4, 51, 114
1, 15311, Note_on_c, 8, 51, 92
1, 15312, Note_on_c, 9, 42, 50
1, 15313, Note_off_c, 9, 42, 64
1, 15314, Pitch_bend_c, 1, 12288
1, 15314, Pitch_bend_c, 5, 12704
1, 15314, Pitch_bend_c, 5, 10307
1, 15314, Pitch_bend_c, 8, 12288
1, 15316, Pitch_bend_c, 4, 10112
1, 15317, Pitch_bend_c, 1, 16320
1, 15317, Pitch_bend_c, 8, 16320
1, 15321, Pitch_bend_c, 5, 14890
1, 15323, Pitch_bend_c, 5, 16383
1, 15323, Pitch_bend_c, 4, 14272
1, 15325, Pitch_bend_c, 4, 16320
1, 15330, Note_off_c, 14, 66, 64
1, 15342, Note_off_c, 15, 63, 64
1, 15343, Pitch_bend_c, 15, 7810
1, 15345, Pitch_bend_c, 14, 6424
1, 15349, Pitch_bend_c, 15, 5290
1, 15351, Pitch_bend_c, 14, 3022
1, 15354, Pitch_bend_c, 15, 8192
1, 15356, Note_off_c, 0, 58, 64
1, 15356, Note_off_c, 0, 63, 64
1, 15356, Note_off_c, 0, 66, 64
1, 15356, Pitch_bend_c, 14, 1636
1, 15359, Note_on_c, 14, 70, 111
1, 15360, Note_on_c, 15, 70, 102
1, 15360, Note_on_c, 9, 42, 110
1, 15360, Note_on_c, 9, 36, 90
1, 15360, Note_on_c, 0, 61, 76
1, 15360, Note_on_c, 0, 56, 76
1, 15360, Note_on_c, 0, 65, 71
1, 15361, Note_off_c, 9, 36, 64
1, 15361, Note_off_c, 9, 42, 64
1, 15363, Note_on_c, 3, 70, 107
1, 15364, Pitch_bend_c, 14, 2770
1, 15370, Pitch_bend_c, 14, 8192
1, 15380, Control_c, 3, 1, 25
1, 15385, Note_off_c, 14, 70, 64
1, 15386, Control_c, 3, 1, 40
1, 15397, Control_c, 3, 1, 0
1, 15399, Note_off_c, 15, 70, 64
1, 15399, Note_off_c, 3, 70, 64
1, 15400, Note_off_c, 5, 51, 64
1, 15402, Note_off_c, 4, 51, 64
1, 15405, Note_off_c, 8, 51, 64
1, 15405, Note_off_c, 1, 39, 64
1, 15405, Pitch_bend_c, 5, 8192
1, 15406, Note_on_c, 5, 51, 114
1, 15407, Note_on_c, 14, 70, 110
1, 15407, Pitch_bend_c, 1, 8192
1, 15407, Pitch_bend_c, 4, 8192
1, 15407, Pitch_bend_c, 8, 8192
1, 15408, Note_on_c, 9, 42, 50
1, 15408, Note_on_c, 1, 39, 127
1, 15408, Note_on_c, 4, 51, 114
1, 15408, Note_on_c, 8, 51, 92
1, 15409, Note_off_c, 9, 42, 64
1, 15410, Note_on_c, 15, 70, 101
1, 15412, Note_on_c, 3, 70, 101
1, 15430, Control_c, 3, 1, 22
1, 15435, Control_c, 3, 1, 92
1, 15441, Control_c, 3, 1, 108
1, 15446, Control_c, 3, 1, 119
1, 15451, Note_off_c, 5, 51, 64
1, 15453, Note_off_c, 1, 39, 64
1, 15453, Note_off_c, 8, 51, 64
1, 15453, Note_off_c, 4, 51, 64
1, 15454, Note_on_c, 5, 49, 114
1, 15456, Note_on_c, 9, 42, 110
1, 15456, Note_on_c, 9, 38, 115
1, 15456, Note_on_c, 9, 36, 90
1, 15456, Note_on_c, 1, 37, 127
1, 15456, Note_on_c, 4, 49, 114
1, 15456, Note_on_c, 8, 49, 92
1, 15457, Note_off_c, 9, 36, 64
1, 15457, Note_off_c, 9, 38, 64
1, 15457, Note_off_c, 9, 42, 64
1, 15466, Control_c, 3, 1, 120
1, 15492, Note_off_c, 5, 49, 64
1, 15494, Note_off_c, 4, 49, 64
1, 15494, Note_off_c, 1, 37, 64
1, 15494, Note_off_c, 8, 49, 64
1, 15496, Control_c, 3, 1, 117
1, 15504, Note_on_c, 9, 42, 50
1, 15505, Note_off_c, 9, 42, 64
1, 15508, Note_off_c, 14, 70, 64
1, 15510, Control_c, 3, 1, 116
1, 15515, Control_c, 3, 1, 73
1, 15518, Note_off_c, 15, 70, 64
1, 15520, Control_c, 3, 1, 0
1, 15523, Pitch_bend_c, 14, 2644
1, 15524, Note_off_c, 3, 70, 64
1, 15529, Pitch_bend_c, 14, 1636
1, 15537, Pitch_bend_c, 15, 7558
1, 15541, Pitch_bend_c, 14, 3652
1, 15542, Pitch_bend_c, 15, 2770
1, 15547, Pitch_bend_c, 15, 8387
1, 15550, Pitch_bend_c, 14, 8192
1, 15550, Note_on_c, 14, 65, 109
1, 15550, Note_on_c, 5, 49, 114
1, 15552, Note_on_c, 15, 61, 102
1, 15552, Note_on_c, 9, 42, 110
1, 15552, Note_on_c, 1, 37, 127
1, 15552, Note_on_c, 4, 49, 114
1, 15552, Note_on_c, 8, 49, 92
1, 15553, Note_off_c, 9, 42, 64
1, 15555, Pitch_bend_c, 15, 8192
1, 15579, Note_off_c, 14, 65, 64
1, 15586, Note_off_c, 15, 61, 64
1, 15587, Note_off_c, 1, 37, 64
1, 15587, Note_off_c, 8, 49, 64
1, 15590, Note_off_c, 5, 49, 64
1, 15592, Note_off_c, 4, 49, 64
1, 15599, Note_on_c, 14, 65, 105
1, 15600, Note_on_c, 15, 61, 96
1, 15600, Note_on_c, 9, 42, 50
1, 15600, Note_on_c, 9, 36, 90
1, 15601, Note_off_c, 9, 36, 64
1, 15601, Note_off_c, 9, 42, 64
1, 15648, Note_on_c, 9, 42, 110
1, 15648, Note_on_c, 9, 38, 115
1, 15649, Note_off_c, 9, 38, 64
1, 15649, Note_off_c, 9, 42, 64
1, 15649, Note_on_c, 9, 39, 127
1, 15650, Note_off_c, 9, 39, 64
1, 15655, Note_on_c, 10, 39, 127
1, 15656, Note_off_c, 10, 39, 64
1, 15671, Note_off_c, 14, 65, 64
1, 15686, Note_off_c, 15, 61, 64
1, 15690, Pitch_bend_c, 14, 5164
1, 15694, Note_on_c, 5, 39, 114
1, 15696, Pitch_bend_c, 14, 1384
1, 15696, Note_on_c, 9, 42, 50
1, 15696, Note_on_c, 1, 27, 127
1, 15696, Note_on_c, 4, 39, 114
1, 15696, Note_on_c, 8, 39, 92
1, 15697, Note_off_c, 9, 42, 64
1, 15697, Note_on_c, 14, 66, 111
1, 15699, Note_on_c, 15, 63, 101
1, 15700, Note_on_c, 3, 70, 107
1, 15700, Pitch_bend_c, 15, 4912
1, 15705, Pitch_bend_c, 15, 7558
1, 15711, Pitch_bend_c, 14, 5794
1, 15711, Pitch_bend_c, 15, 8192
1, 15717, Control_c, 3, 1, 109
1, 15718, Pitch_bend_c, 14, 8192
1, 15722, Control_c, 3, 1, 120
1, 15733, Control_c, 3, 1, 119
1, 15740, Note_off_c, 0, 56, 64
1, 15740, Note_off_c, 0, 65, 64
1, 15740, Note_off_c, 0, 61, 64
1, 15744, Note_on_c, 9, 42, 110
1, 15744, Note_on_c, 9, 36, 90
1, 15744, Note_on_c, 0, 66, 78
1, 15744, Note_on_c, 0, 63, 74
1, 15744, Note_on_c, 0, 58, 73
1, 15745, Note_off_c, 9, 36, 64
1, 15745, Note_off_c, 9, 42, 64
1, 15753, Control_c, 3, 1, 120
1, 15762, Note_off_c, 15, 63, 64
1, 15763, Control_c, 3, 1, 112
1, 15766, Note_off_c, 14, 66, 64
1, 15773, Note_off_c, 3, 70, 64
1, 15773, Control_c, 3, 1, 51
1, 15778, Control_c, 3, 1, 0
1, 15788, Note_off_c, 5, 39, 64
1, 15790, Note_off_c, 4, 39, 64
1, 15790, Note_off_c, 1, 27, 64
1, 15790, Note_off_c, 8, 39, 64
1, 15790, Note_on_c, 5, 42, 114
1, 15792, Note_on_c, 9, 42, 50
1, 15792, Note_on_c, 1, 30, 127
1, 15792, Note_on_c, 4, 42, 114
1, 15792, Note_on_c, 8, 42, 92
1, 15793, Note_off_c, 9, 42, 64
1, 15793, Note_on_c, 14, 66, 106
1, 15794, Note_on_c, 15, 63, 101
1, 15795, Note_on_c, 3, 70, 101
1, 15805, Note_off_c, 3, 70, 64
1, 15807, Note_off_c, 15, 63, 64
1, 15807, Note_off_c, 14, 66, 64
1, 15836, Note_off_c, 5, 42, 64
1, 15838, Note_off_c, 1, 30, 64
1, 15838, Note_off_c, 8, 42, 64
1, 15838, Note_off_c, 4, 42, 64
1, 15838, Note_on_c, 5, 46, 114
1, 15840, Note_on_c, 14, 66, 109
1, 15840, Note_on_c, 9, 42, 110
1, 15840, Note_on_c, 9, 38, 115
1, 15840, Note_on_c, 1, 34, 127
1, 15840, Note_on_c, 4, 46, 114
1, 15840, Note_on_c, 8, 46, 92
1, 15841, Note_off_c, 9, 38, 64
1, 15841, Note_off_c, 9, 42, 64
1, 15841, Note_on_c, 15, 63, 101
1, 15842, Note_on_c, 3, 70, 107
1, 15851, Note_off_c, 3, 70, 64
1, 15853, Note_off_c, 14, 66, 64
1, 15855, Note_off_c, 15, 63, 64
1, 15884, Note_off_c, 5, 46, 64
1, 15886, Note_off_c, 8, 46, 64
1, 15886, Note_off_c, 4, 46, 64
1, 15886, Note_off_c, 1, 34, 64
1, 15886, Note_on_c, 5, 54, 114
1, 15887, Note_on_c, 14, 66, 108
1, 15888, Note_on_c, 9, 42, 50
1, 15888, Note_on_c, 1, 42, 127
1, 15888, Note_on_c, 4, 54, 114
1, 15888, Note_on_c, 8, 54, 92
1, 15889, Note_off_c, 9, 42, 64
1, 15889, Note_on_c, 15, 63, 99
1, 15890, Note_on_c, 3, 70, 105
1, 15899, Note_off_c, 3, 70, 64
1, 15906, Note_off_c, 15, 63, 64
1, 15906, Note_off_c, 14, 66, 64
1, 15918, Pitch_bend_c, 14, 6550
1, 15919, Pitch_bend_c, 15, 7054
1, 15925, Pitch_bend_c, 14, 1510
1, 15926, Pitch_bend_c, 15, 2392
1, 15932, Note_off_c, 5, 54, 64
1, 15933, Pitch_bend_c, 15, 1510
1, 15934, Note_off_c, 1, 42, 64
1, 15934, Note_off_c, 8, 54, 64
1, 15934, Note_off_c, 4, 54, 64
1, 15934, Note_on_c, 5, 51, 114
1, 15935, Note_on_c, 14, 70, 111
1, 15936, Note_on_c, 9, 42, 110
1, 15936, Note_on_c, 9, 36, 90
1, 15936, Note_on_c, 1, 39, 127
1, 15936, Note_on_c, 4, 51, 114
1, 15936, Note_on_c, 8, 51, 92
1, 15937, Note_off_c, 9, 36, 64
1, 15937, Note_off_c, 9, 42, 64
1, 15937, Note_on_c, 15, 66, 102
1, 15939, Note_on_c, 3, 73, 108
1, 15942, Pitch_bend_c, 14, 7432
1, 15943, Pitch_bend_c, 15, 3274
1, 15950, Pitch_bend_c, 14, 8192
1, 15951, Pitch_bend_c, 15, 8192
1, 15952, Control_c, 3, 1, 4
1, 15958, Control_c, 3, 1, 122
1, 15959, Pitch_bend_c, 5, 8478
1, 15961, Pitch_bend_c, 4, 8452
1, 15963, Pitch_bend_c, 5, 9110
1, 15965, Pitch_bend_c, 4, 9025
1, 15967, Pitch_bend_c, 5, 9568
1, 15969, Pitch_bend_c, 4, 9441
1, 15971, Pitch_bend_c, 5, 9682
1, 15973, Pitch_bend_c, 4, 9545
1, 15979, Pitch_bend_c, 5, 7855
1, 15981, Pitch_bend_c, 4, 7886
1, 15982, Pitch_bend_c, 5, 8192
1, 15984, Note_on_c, 9, 42, 50
1, 15984, Pitch_bend_c, 4, 8192
1, 15985, Note_off_c, 9, 42, 64
1, 15994, Pitch_bend_c, 5, 8249
1, 15996, Pitch_bend_c, 4, 8244
1, 15998, Pitch_bend_c, 5, 9797
1, 16000, Pitch_bend_c, 4, 9649
1, 16002, Pitch_bend_c, 5, 9913
1, 16004, Pitch_bend_c, 4, 9754
1, 16008, Control_c, 3, 1, 111
1, 16009, Pitch_bend_c, 5, 9110
1, 16011, Note_off_c, 14, 70, 64
1, 16011, Pitch_bend_c, 4, 9025
1, 16013, Note_off_c, 15, 66, 64
1, 16013, Note_off_c, 3, 73, 64
1, 16013, Pitch_bend_c, 5, 8192
1, 16014, Control_c, 3, 1, 0
1, 16015, Pitch_bend_c, 4, 8192
1, 16021, Pitch_bend_c, 5, 8478
1, 16023, Pitch_bend_c, 4, 8452
1, 16025, Pitch_bend_c, 5, 9568
1, 16027, Pitch_bend_c, 4, 9441
1, 16029, Pitch_bend_c, 5, 9970
1, 16031, Pitch_bend_c, 4, 9806
1, 16032, Note_on_c, 14, 66, 110
1, 16032, Note_on_c, 15, 63, 101
1, 16032, Note_on_c, 9, 42, 110
1, 16032, Note_on_c, 9, 38, 115
1, 16033, Note_off_c, 9, 38, 64
1, 16033, Note_off_c, 9, 42, 64
1, 16033, Pitch_bend_c, 5, 10084
1, 16033, Note_on_c, 9, 39, 127
1, 16034, Note_off_c, 9, 39, 64
1, 16035, Pitch_bend_c, 4, 9910
1, 16036, Note_on_c, 3, 70, 102
1, 16037, Pitch_bend_c, 5, 9913
1, 16039, Note_on_c, 10, 39, 127
1, 16039, Pitch_bend_c, 4, 9754
1, 16040, Note_off_c, 10, 39, 64
1, 16041, Pitch_bend_c, 5, 8192
1, 16043, Pitch_bend_c, 4, 8192
1, 16045, Note_off_c, 3, 70, 64
1, 16050, Note_off_c, 14, 66, 64
1, 16052, Note_off_c, 15, 63, 64
1, 16068, Pitch_bend_c, 15, 5920
1, 16070, Pitch_bend_c, 14, 7684
1, 16075, Note_off_c, 5, 51, 64
1, 16075, Pitch_bend_c, 15, 1510
1, 16076, Pitch_bend_c, 14, 1510
1, 16077, Note_off_c, 8, 51, 64
1, 16077, Note_off_c, 4, 51, 64
1, 16077, Note_off_c, 1, 39, 64
1, 16077, Note_on_c, 5, 51, 114
1, 16079, Note_on_c, 1, 39, 127
1, 16079, Note_on_c, 4, 51, 114
1, 16079, Note_on_c, 8, 51, 92
1, 16080, Note_on_c, 15, 65, 101
1, 16080, Note_on_c, 9, 42, 50
1, 16081, Note_off_c, 9, 42, 64
1, 16081, Note_on_c, 14, 68, 111
1, 16082, Pitch_bend_c, 5, 10307
1, 16083, Pitch_bend_c, 1, 12288
1, 16083, Pitch_bend_c, 8, 12288
1, 16084, Pitch_bend_c, 4, 10112
1, 16085, Pitch_bend_c, 5, 12704
1, 16086, Note_on_c, 3, 73, 108
1, 16086, Pitch_bend_c, 15, 2770
1, 16086, Pitch_bend_c, 1, 16320
1, 16086, Pitch_bend_c, 8, 16320
1, 16087, Pitch_bend_c, 5, 14890
1, 16087, Pitch_bend_c, 4, 12288
1, 16089, Pitch_bend_c, 5, 16383
1, 16089, Pitch_bend_c, 4, 14272
1, 16091, Pitch_bend_c, 14, 3904
1, 16091, Pitch_bend_c, 4, 16320
1, 16093, Pitch_bend_c, 15, 8192
1, 16099, Control_c, 3, 1, 68
1, 16099, Pitch_bend_c, 14, 8192
1, 16106, Control_c, 3, 1, 120
1, 16121, Control_c, 3, 1, 122
1, 16124, Note_off_c, 0, 58, 64
1, 16124, Note_off_c, 0, 63, 64
1, 16124, Note_off_c, 0, 66, 64
1, 16128, Note_on_c, 9, 42, 110
1, 16128, Note_on_c, 9, 36, 90
1, 16128, Note_on_c, 0, 61, 80
1, 16128, Note_on_c, 0, 56, 74
1, 16128, Note_on_c, 0, 65, 72
1, 16129, Note_off_c, 9, 36, 64
1, 16129, Note_off_c, 9, 42, 64
1, 16136, Control_c, 3, 1, 121
1, 16148, Control_c, 3, 1, 0
1, 16154, Note_off_c, 3, 73, 64
1, 16160, Note_off_c, 14, 68, 64
1, 16165, Note_off_c, 15, 65, 64
1, 16172, Note_off_c, 5, 51, 64
1, 16173, Pitch_bend_c, 5, 8192
1, 16174, Note_off_c, 8, 51, 64
1, 16174, Note_off_c, 4, 51, 64
1, 16174, Note_off_c, 1, 39, 64
1, 16174, Note_on_c, 5, 51, 114
1, 16175, Pitch_bend_c, 1, 8192
1, 16175, Pitch_bend_c, 4, 8192
1, 16175, Pitch_bend_c, 8, 8192
1, 16176, Note_on_c, 14, 65, 106
1, 16176, Note_on_c, 15, 61, 102
1, 16176, Note_on_c, 9, 42, 50
1, 16176, Note_on_c, 1, 39, 127
1, 16176, Note_on_c, 4, 51, 114
1, 16176, Note_on_c, 8, 51, 92
1, 16177, Note_off_c, 9, 42, 64
1, 16178, Note_on_c, 3, 70, 107
1, 16188, Note_off_c, 15, 61, 64
1, 16188, Note_off_c, 14, 65, 64
1, 16208, Note_off_c, 3, 70, 64
1, 16216, Note_off_c, 5, 51, 64
1, 16218, Note_off_c, 1, 39, 64
1, 16218, Note_off_c, 8, 51, 64
1, 16218, Note_off_c, 4, 51, 64
1, 16222, Note_on_c, 5, 49, 114
1, 16224, Note_on_c, 9, 42, 110
1, 16224, Note_on_c, 9, 38, 115
1, 16224, Note_on_c, 9, 36, 90
1, 16224, Note_on_c, 1, 37, 127
1, 16224, Note_on_c, 4, 49, 114
1, 16224, Note_on_c, 8, 49, 92
1, 16225, Note_off_c, 9, 36, 64
1, 16225, Note_off_c, 9, 38, 64
1, 16225, Note_off_c, 9, 42, 64
1, 16262, Note_off_c, 8, 49, 64
1, 16262, Note_off_c, 1, 37, 64
1, 16263, Note_off_c, 5, 49, 64
1, 16265, Note_off_c, 4, 49, 64
1, 16272, Note_on_c, 9, 42, 50
1, 16273, Note_off_c, 9, 42, 64
1, 16320, Note_on_c, 9, 42, 110
1, 16321, Note_off_c, 9, 42, 64
1, 16368, Note_on_c, 9, 42, 50
1, 16368, Note_on_c, 9, 36, 90
1, 16369, Note_off_c, 9, 36, 64
1, 16369, Note_off_c, 9, 42, 64
1, 16416, Note_on_c, 9, 42, 110
1, 16416, Note_on_c, 9, 38, 115
1, 16417, Note_off_c, 9, 38, 64
1, 16417, Note_off_c, 9, 42, 64
1, 16417, Note_on_c, 9, 39, 127
1, 16418, Note_off_c, 9, 39, 64
1, 16423, Note_on_c, 10, 39, 127
1, 16424, Note_off_c, 10, 39, 64
1, 16461, Pitch_bend_c, 15, 7054
1, 16461, Pitch_bend_c, 5, 8192
1, 16462, Note_on_c, 5, 39, 114
1, 16463, Pitch_bend_c, 4, 8192
1, 16464, Note_on_c, 9, 42, 50
1, 16464, Note_on_c, 1, 27, 127
1, 16464, Note_on_c, 4, 39, 114
1, 16464, Note_on_c, 8, 39, 92
1, 16465, Note_off_c, 9, 42, 64
1, 16465, Note_on_c, 14, 65, 105
1, 16465, Pitch_bend_c, 15, 5164
1, 16465, Note_on_c, 15, 63, 102
1, 16469, Note_on_c, 3, 68, 108
1, 16473, Pitch_bend_c, 15, 4408
1, 16477, Pitch_bend_c, 15, 6676
1, 16482, Pitch_bend_c, 15, 8192
1, 16499, Note_off_c, 3, 68, 64
1, 16505, Note_off_c, 15, 63, 64
1, 16505, Note_off_c, 14, 65, 64
1, 16508, Note_off_c, 0, 65, 64
1, 16508, Note_off_c, 0, 56, 64
1, 16508, Note_off_c, 0, 61, 64
1, 16512, Note_on_c, 9, 42, 110
1, 16512, Note_on_c, 9, 36, 90
1, 16512, Note_on_c, 0, 58, 76
1, 16512, Note_on_c, 0, 63, 74
1, 16512, Note_on_c, 0, 66, 76
1, 16512, Note_on_c, 11, 78, 64
1, 16512, Note_on_c, 11, 82, 64
1, 16513, Note_off_c, 9, 36, 64
1, 16513, Note_off_c, 9, 42, 64
1, 16557, Note_off_c, 5, 39, 64
1, 16558, Note_on_c, 5, 42, 114
1, 16559, Note_off_c, 4, 39, 64
1, 16559, Note_off_c, 1, 27, 64
1, 16559, Note_off_c, 8, 39, 64
1, 16560, Note_on_c, 9, 42, 50
1, 16560, Note_on_c, 1, 30, 127
1, 16560, Note_on_c, 4, 42, 114
1, 16560, Note_on_c, 8, 42, 92
1, 16561, Note_off_c, 9, 42, 64
1, 16561, Note_on_c, 14, 63, 109
1, 16561, Note_on_c, 15, 61, 100
1, 16564, Note_on_c, 3, 66, 101
1, 16576, Note_off_c, 3, 66, 64
1, 16581, Note_off_c, 15, 61, 64
1, 16581, Note_off_c, 14, 63, 64
1, 16605, Note_off_c, 5, 42, 64
1, 16606, Note_on_c, 5, 46, 114
1, 16607, Note_off_c, 1, 30, 64
1, 16607, Note_off_c, 8, 42, 64
1, 16607, Note_off_c, 4, 42, 64
1, 16607, Note_on_c, 14, 65, 105
1, 16608, Note_on_c, 9, 42, 110
1, 16608, Note_on_c, 9, 38, 115
1, 16608, Note_on_c, 1, 34, 127
1, 16608, Note_on_c, 4, 46, 114
1, 16608, Note_on_c, 8, 46, 92
1, 16609, Note_off_c, 9, 38, 64
1, 16609, Note_off_c, 9, 42, 64
1, 16609, Note_on_c, 15, 63, 102
1, 16610, Note_on_c, 3, 68, 108
1, 16625, Note_off_c, 14, 65, 64
1, 16627, Note_off_c, 15, 63, 64
1, 16631, Note_off_c, 3, 68, 64
1, 16653, Note_off_c, 5, 46, 64
1, 16654, Note_on_c, 5, 54, 114
1, 16655, Note_off_c, 8, 46, 64
1, 16655, Note_off_c, 4, 46, 64
1, 16655, Note_off_c, 1, 34, 64
1, 16656, Note_on_c, 9, 42, 50
1, 16656, Note_on_c, 1, 42, 127
1, 16656, Note_on_c, 4, 54, 114
1, 16656, Note_on_c, 8, 54, 92
1, 16657, Note_off_c, 9, 42, 64
1, 16691, Pitch_bend_c, 14, 6298
1, 16691, Pitch_bend_c, 15, 3652
1, 16696, Pitch_bend_c, 14, 4282
1, 16696, Pitch_bend_c, 15, 5668
1, 16700, Pitch_bend_c, 15, 8192
1, 16701, Note_off_c, 5, 54, 64
1, 16701, Pitch_bend_c, 14, 3778
1, 16702, Note_on_c, 5, 51, 114
1, 16703, Note_off_c, 1, 42, 64
1, 16703, Note_off_c, 8, 54, 64
1, 16703, Note_off_c, 4, 54, 64
1, 16703, Note_on_c, 14, 63, 110
1, 16704, Note_on_c, 9, 42, 110
1, 16704, Note_on_c, 9, 36, 90
1, 16704, Note_on_c, 1, 39, 127
1, 16704, Note_on_c, 4, 51, 114
1, 16704, Note_on_c, 8, 51, 92
1, 16705, Note_off_c, 9, 36, 64
1, 16705, Note_off_c, 9, 42, 64
1, 16705, Note_on_c, 15, 61, 102
1, 16706, Note_on_c, 3, 66, 108
1, 16708, Pitch_bend_c, 14, 6928
1, 16714, Pitch_bend_c, 14, 8192
1, 16715, Pitch_bend_c, 5, 8249
1, 16717, Pitch_bend_c, 4, 8244
1, 16719, Pitch_bend_c, 5, 8708
1, 16721, Pitch_bend_c, 4, 8660
1, 16726, Pitch_bend_c, 5, 8364
1, 16728, Pitch_bend_c, 4, 8348
1, 16730, Pitch_bend_c, 5, 8192
1, 16732, Pitch_bend_c, 4, 8192
1, 16746, Note_off_c, 3, 66, 64
1, 16746, Pitch_bend_c, 5, 8249
1, 16748, Note_off_c, 14, 63, 64
1, 16748, Pitch_bend_c, 4, 8244
1, 16750, Note_off_c, 15, 61, 64
1, 16750, Pitch_bend_c, 5, 8478
1, 16752, Note_on_c, 9, 42, 50
1, 16752, Pitch_bend_c, 4, 8452
1, 16753, Note_off_c, 9, 42, 64
1, 16753, Pitch_bend_c, 5, 8708
1, 16754, Note_on_c, 3, 68, 107
1, 16754, Note_on_c, 14, 65, 96
1, 16754, Note_on_c, 15, 63, 99
1, 16755, Pitch_bend_c, 4, 8660
1, 16761, Pitch_bend_c, 5, 8593
1, 16763, Pitch_bend_c, 4, 8556
1, 16765, Pitch_bend_c, 5, 8192
1, 16766, Note_off_c, 15, 63, 64
1, 16766, Note_off_c, 14, 65, 64
1, 16767, Pitch_bend_c, 4, 8192
1, 16769, Note_off_c, 3, 68, 64
1, 16777, Pitch_bend_c, 5, 8249
1, 16779, Pitch_bend_c, 4, 8244
1, 16781, Pitch_bend_c, 5, 8823
1, 16783, Pitch_bend_c, 4, 8765
1, 16785, Pitch_bend_c, 5, 9052
1, 16787, Pitch_bend_c, 4, 8973
1, 16792, Pitch_bend_c, 5, 8364
1, 16794, Pitch_bend_c, 4, 8348
1, 16797, Pitch_bend_c, 5, 8192
1, 16799, Pitch_bend_c, 4, 8192
1, 16800, Note_on_c, 9, 42, 110
1, 16800, Note_on_c, 9, 38, 115
1, 16801, Note_off_c, 9, 38, 64
1, 16801, Note_off_c, 9, 42, 64
1, 16801, Note_on_c, 9, 39, 127
1, 16802, Note_off_c, 9, 39, 64
1, 16804, Pitch_bend_c, 5, 8593
1, 16806, Pitch_bend_c, 4, 8556
1, 16807, Note_on_c, 10, 39, 127
1, 16808, Note_off_c, 10, 39, 64
1, 16808, Pitch_bend_c, 5, 9453
1, 16810, Pitch_bend_c, 4, 9337
1, 16812, Pitch_bend_c, 5, 9797
1, 16814, Pitch_bend_c, 4, 9649
1, 16820, Pitch_bend_c, 5, 9110
1, 16822, Pitch_bend_c, 4, 9025
1, 16824, Pitch_bend_c, 5, 8192
1, 16826, Pitch_bend_c, 4, 8192
1, 16832, Pitch_bend_c, 14, 6550
1, 16838, Pitch_bend_c, 14, 3526
1, 16838, Pitch_bend_c, 15, 5920
1, 16843, Note_off_c, 5, 51, 64
1, 16845, Note_off_c, 8, 51, 64
1, 16845, Note_off_c, 4, 51, 64
1, 16845, Note_off_c, 1, 39, 64
1, 16845, Note_on_c, 5, 51, 114
1, 16847, Note_on_c, 1, 39, 127
1, 16847, Note_on_c, 4, 51, 114
1, 16847, Note_on_c, 8, 51, 92
1, 16848, Note_on_c, 9, 42, 50
1, 16849, Note_off_c, 9, 42, 64
1, 16849, Note_on_c, 14, 65, 102
1, 16849, Note_on_c, 15, 63, 102
1, 16850, Pitch_bend_c, 14, 7306
1, 16850, Pitch_bend_c, 15, 6046
1, 16850, Pitch_bend_c, 5, 12704
1, 16850, Pitch_bend_c, 5, 10307
1, 16850, Pitch_bend_c, 8, 12288
1, 16852, Note_on_c, 3, 68, 108
1, 16852, Pitch_bend_c, 4, 10112
1, 16853, Pitch_bend_c, 1, 16320
1, 16853, Pitch_bend_c, 8, 16320
1, 16857, Pitch_bend_c, 5, 14890
1, 16859, Pitch_bend_c, 14, 8192
1, 16859, Pitch_bend_c, 15, 7810
1, 16859, Pitch_bend_c, 5, 16383
1, 16859, Pitch_bend_c, 4, 14272
1, 16861, Pitch_bend_c, 4, 16320
1, 16862, Control_c, 3, 1, 63
1, 16865, Pitch_bend_c, 15, 8192
1, 16869, Note_off_c, 15, 63, 64
1, 16869, Note_off_c, 14, 65, 64
1, 16869, Control_c, 3, 1, 90
1, 16873, Note_off_c, 11, 78, 64
1, 16875, Note_off_c, 11, 82, 64
1, 16876, Control_c, 3, 1, 111
1, 16889, Control_c, 3, 1, 100
1, 16892, Note_off_c, 0, 66, 64
1, 16892, Note_off_c, 0, 63, 64
1, 16892, Note_off_c, 0, 58, 64
1, 16894, Note_on_c, 11, 80, 64
1, 16896, Control_c, 3, 1, 0
1, 16896, Note_on_c, 9, 42, 110
1, 16896, Note_on_c, 9, 36, 90
1, 16896, Note_on_c, 0, 56, 76
1, 16896, Note_on_c, 0, 61, 82
1, 16896, Note_on_c, 0, 65, 73
1, 16896, Note_on_c, 11, 77, 64
1, 16897, Note_off_c, 9, 36, 64
1, 16897, Note_off_c, 9, 42, 64
1, 16902, Note_off_c, 3, 68, 64
1, 16936, Note_off_c, 5, 51, 64
1, 16938, Note_off_c, 4, 51, 64
1, 16941, Note_off_c, 1, 39, 64
1, 16941, Note_off_c, 8, 51, 64
1, 16941, Pitch_bend_c, 5, 8192
1, 16942, Note_on_c, 5, 51, 114
1, 16943, Pitch_bend_c, 1, 8192
1, 16943, Pitch_bend_c, 4, 8192
1, 16943, Pitch_bend_c, 8, 8192
1, 16944, Note_on_c, 9, 42, 50
1, 16944, Note_on_c, 1, 39, 127
1, 16944, Note_on_c, 4, 51, 114
1, 16944, Note_on_c, 8, 51, 92
1, 16945, Note_off_c, 9, 42, 64
1, 16945, Note_on_c, 14, 63, 107
1, 16945, Note_on_c, 15, 61, 99
1, 16946, Note_on_c, 3, 66, 101
1, 16957, Note_off_c, 15, 61, 64
1, 16957, Note_off_c, 14, 63, 64
1, 16960, Note_off_c, 3, 66, 64
1, 16987, Note_off_c, 5, 51, 64
1, 16989, Note_off_c, 1, 39, 64
1, 16989, Note_off_c, 8, 51, 64
1, 16989, Note_off_c, 4, 51, 64
1, 16990, Note_on_c, 5, 49, 114
1, 16992, Note_on_c, 14, 65, 99
1, 16992, Note_on_c, 15, 63, 102
1, 16992, Note_on_c, 9, 42, 110
1, 16992, Note_on_c, 9, 38, 115
1, 16992, Note_on_c, 9, 36, 90
1, 16992, Note_on_c, 1, 37, 127
1, 16992, Note_on_c, 4, 49, 114
1, 16992, Note_on_c, 8, 49, 92
1, 16993, Note_off_c, 9, 36, 64
1, 16993, Note_off_c, 9, 38, 64
1, 16993, Note_off_c, 9, 42, 64
1, 16993, Note_on_c, 3, 68, 107
1, 17008, Note_off_c, 15, 63, 64
1, 17008, Note_off_c, 14, 65, 64
1, 17010, Note_off_c, 3, 68, 64
1, 17028, Note_off_c, 5, 49, 64
1, 17030, Note_off_c, 4, 49, 64
1, 17030, Note_off_c, 1, 37, 64
1, 17030, Note_off_c, 8, 49, 64
1, 17040, Note_on_c, 9, 42, 50
1, 17041, Note_off_c, 9, 42, 64
1, 17070, Pitch_bend_c, 14, 7684
1, 17075, Pitch_bend_c, 15, 5920
1, 17078, Pitch_bend_c, 14, 5668
1, 17085, Pitch_bend_c, 15, 6172
1, 17086, Note_on_c, 14, 63, 109
1, 17086, Note_on_c, 5, 49, 114
1, 17087, Note_on_c, 15, 61, 102
1, 17088, Note_on_c, 3, 66, 108
1, 17088, Pitch_bend_c, 14, 6928
1, 17088, Note_on_c, 9, 42, 110
1, 17088, Note_on_c, 1, 37, 127
1, 17088, Note_on_c, 4, 49, 114
1, 17088, Note_on_c, 8, 49, 92
1, 17089, Note_off_c, 9, 42, 64
1, 17094, Pitch_bend_c, 15, 8192
1, 17097, Pitch_bend_c, 14, 8192
1, 17121, Note_off_c, 14, 63, 64
1, 17123, Note_off_c, 1, 37, 64
1, 17123, Note_off_c, 8, 49, 64
1, 17126, Note_off_c, 5, 49, 64
1, 17128, Note_off_c, 4, 49, 64
1, 17128, Note_off_c, 3, 66, 64
1, 17129, Note_off_c, 15, 61, 64
1, 17136, Note_on_c, 9, 42, 50
1, 17136, Note_on_c, 9, 36, 90
1, 17137, Note_off_c, 9, 36, 64
1, 17137, Note_off_c, 9, 42, 64
1, 17137, Note_on_c, 14, 61, 106
1, 17137, Note_on_c, 15, 58, 96
1, 17142, Note_off_c, 15, 58, 64
1, 17142, Note_on_c, 3, 63, 102
1, 17145, Note_off_c, 14, 61, 64
1, 17155, Note_off_c, 3, 63, 64
1, 17184, Note_on_c, 9, 42, 110
1, 17184, Note_on_c, 9, 38, 115
1, 17185, Note_off_c, 9, 38, 64
1, 17185, Note_off_c, 9, 42, 64
1, 17185, Note_on_c, 9, 39, 127
1, 17186, Note_off_c, 9, 39, 64
1, 17191, Note_on_c, 10, 39, 127
1, 17192, Note_off_c, 10, 39, 64
1, 17224, Pitch_bend_c, 15, 7558
1, 17227, Pitch_bend_c, 14, 5290
1, 17230, Note_on_c, 5, 39, 114
1, 17232, Note_on_c, 9, 42, 50
1, 17232, Note_on_c, 1, 27, 127
1, 17232, Note_on_c, 4, 39, 114
1, 17232, Note_on_c, 8, 39, 92
1, 17233, Note_off_c, 9, 42, 64
1, 17233, Note_on_c, 14, 65, 107
1, 17233, Pitch_bend_c, 15, 4786
1, 17234, Note_on_c, 15, 63, 101
1, 17235, Pitch_bend_c, 14, 2518
1, 17236, Note_on_c, 3, 68, 108
1, 17244, Pitch_bend_c, 15, 4912
1, 17247, Note_off_c, 15, 63, 64
1, 17247, Pitch_bend_c, 14, 7306
1, 17252, Note_off_c, 3, 68, 64
1, 17253, Pitch_bend_c, 15, 8192
1, 17255, Note_off_c, 11, 77, 64
1, 17255, Note_off_c, 14, 65, 64
1, 17256, Pitch_bend_c, 14, 8192
1, 17258, Note_off_c, 11, 80, 64
1, 17276, Note_off_c, 0, 56, 64
1, 17276, Note_off_c, 0, 61, 64
1, 17276, Note_off_c, 0, 65, 64
1, 17277, Note_on_c, 11, 82, 64
1, 17278, Note_on_c, 11, 78, 64
1, 17280, Note_on_c, 9, 42, 110
1, 17280, Note_on_c, 9, 36, 90
1, 17280, Note_on_c, 0, 58, 77
1, 17280, Note_on_c, 0, 63, 76
1, 17280, Note_on_c, 0, 66, 78
1, 17281, Note_off_c, 9, 36, 64
1, 17281, Note_off_c, 9, 42, 64
1, 17324, Note_off_c, 5, 39, 64
1, 17326, Note_off_c, 4, 39, 64
1, 17326, Note_off_c, 8, 39, 64
1, 17326, Note_off_c, 1, 27, 64
1, 17326, Note_on_c, 5, 42, 114
1, 17328, Note_on_c, 9, 42, 50
1, 17328, Note_on_c, 1, 30, 127
1, 17328, Note_on_c, 4, 42, 114
1, 17328, Note_on_c, 8, 42, 92
1, 17329, Note_off_c, 9, 42, 64
1, 17329, Note_on_c, 14, 63, 108
1, 17329, Note_on_c, 15, 61, 100
1, 17332, Note_on_c, 3, 66, 107
1, 17340, Note_off_c, 14, 63, 64
1, 17341, Note_off_c, 15, 61, 64
1, 17347, Note_off_c, 3, 66, 64
1, 17372, Note_off_c, 5, 42, 64
1, 17374, Note_off_c, 1, 30, 64
1, 17374, Note_off_c, 8, 42, 64
1, 17374, Note_off_c, 4, 42, 64
1, 17374, Note_on_c, 5, 46, 114
1, 17376, Note_on_c, 9, 42, 110
1, 17376, Note_on_c, 9, 38, 115
1, 17376, Note_on_c, 1, 34, 127
1, 17376, Note_on_c, 4, 46, 114
1, 17376, Note_on_c, 8, 46, 92
1, 17377, Note_off_c, 9, 38, 64
1, 17377, Note_off_c, 9, 42, 64
1, 17377, Note_on_c, 14, 65, 105
1, 17377, Note_on_c, 15, 63, 101
1, 17379, Note_on_c, 3, 68, 107
1, 17389, Note_off_c, 15, 63, 64
1, 17393, Note_off_c, 14, 65, 64
1, 17397, Note_off_c, 3, 68, 64
1, 17420, Note_off_c, 5, 46, 64
1, 17422, Note_off_c, 8, 46, 64
1, 17422, Note_off_c, 4, 46, 64
1, 17422, Note_off_c, 1, 34, 64
1, 17422, Note_on_c, 5, 54, 114
1, 17424, Note_on_c, 9, 42, 50
1, 17424, Note_on_c, 1, 42, 127
1, 17424, Note_on_c, 4, 54, 114
1, 17424, Note_on_c, 8, 54, 92
1, 17425, Note_off_c, 9, 42, 64
1, 17454, Pitch_bend_c, 15, 5290
1, 17464, Pitch_bend_c, 15, 1636
1, 17466, Pitch_bend_c, 14, 5290
1, 17468, Note_off_c, 5, 54, 64
1, 17470, Note_off_c, 1, 42, 64
1, 17470, Note_off_c, 8, 54, 64
1, 17470, Note_off_c, 4, 54, 64
1, 17470, Note_on_c, 5, 51, 114
1, 17471, Note_on_c, 14, 63, 110
1, 17472, Note_on_c, 9, 42, 110
1, 17472, Note_on_c, 9, 36, 90
1, 17472, Note_on_c, 1, 39, 127
1, 17472, Note_on_c, 4, 51, 114
1, 17472, Note_on_c, 8, 51, 92
1, 17473, Note_off_c, 9, 36, 64
1, 17473, Note_off_c, 9, 42, 64
1, 17473, Pitch_bend_c, 15, 6802
1, 17473, Note_on_c, 15, 61, 101
1, 17475, Note_on_c, 3, 66, 107
1, 17479, Pitch_bend_c, 14, 5794
1, 17486, Pitch_bend_c, 15, 8192
1, 17489, Pitch_bend_c, 14, 8192
1, 17495, Pitch_bend_c, 5, 8478
1, 17497, Pitch_bend_c, 4, 8452
1, 17499, Pitch_bend_c, 5, 9110
1, 17501, Note_off_c, 14, 63, 64
1, 17501, Pitch_bend_c, 4, 9025
1, 17503, Pitch_bend_c, 5, 9568
1, 17505, Pitch_bend_c, 4, 9441
1, 17507, Pitch_bend_c, 5, 9682
1, 17509, Pitch_bend_c, 4, 9545
1, 17512, Note_off_c, 15, 61, 64
1, 17515, Pitch_bend_c, 5, 7855
1, 17517, Pitch_bend_c, 4, 7886
1, 17518, Pitch_bend_c, 5, 8192
1, 17520, Note_off_c, 3, 66, 64
1, 17520, Note_on_c, 9, 42, 50
1, 17520, Pitch_bend_c, 4, 8192
1, 17521, Note_off_c, 9, 42, 64
1, 17521, Note_on_c, 14, 65, 99
1, 17521, Note_on_c, 15, 63, 100
1, 17527, Note_on_c, 3, 68, 102
1, 17530, Pitch_bend_c, 5, 8249
1, 17531, Note_off_c, 15, 63, 64
1, 17532, Note_off_c, 14, 65, 64
1, 17532, Pitch_bend_c, 4, 8244
1, 17534, Pitch_bend_c, 5, 9797
1, 17536, Pitch_bend_c, 4, 9649
1, 17538, Pitch_bend_c, 5, 9913
1, 17540, Pitch_bend_c, 4, 9754
1, 17541, Note_off_c, 3, 68, 64
1, 17545, Pitch_bend_c, 5, 9110
1, 17547, Pitch_bend_c, 4, 9025
1, 17549, Pitch_bend_c, 5, 8192
1, 17551, Pitch_bend_c, 4, 8192
1, 17557, Pitch_bend_c, 5, 8478
1, 17559, Pitch_bend_c, 4, 8452
1, 17561, Pitch_bend_c, 5, 9568
1, 17563, Pitch_bend_c, 4, 9441
1, 17565, Pitch_bend_c, 5, 9970
1, 17567, Pitch_bend_c, 4, 9806
1, 17568, Note_on_c, 9, 42, 110
1, 17568, Note_on_c, 9, 38, 115
1, 17569, Note_off_c, 9, 38, 64
1, 17569, Note_off_c, 9, 42, 64
1, 17569, Pitch_bend_c, 5, 10084
1, 17569, Note_on_c, 9, 39, 127
1, 17570, Note_off_c, 9, 39, 64
1, 17571, Pitch_bend_c, 4, 9910
1, 17573, Pitch_bend_c, 5, 9913
1, 17575, Note_on_c, 10, 39, 127
1, 17575, Pitch_bend_c, 4, 9754
1, 17576, Note_off_c, 10, 39, 64
1, 17577, Pitch_bend_c, 5, 8192
1, 17579, Pitch_bend_c, 4, 8192
1, 17605, Pitch_bend_c, 15, 2896
1, 17607, Pitch_bend_c, 14, 5794
1, 17611, Note_off_c, 5, 51, 64
1, 17613, Note_off_c, 8, 51, 64
1, 17613, Note_off_c, 4, 51, 64
1, 17613, Note_off_c, 1, 39, 64
1, 17613, Note_on_c, 5, 51, 114
1, 17615, Note_on_c, 1, 39, 127
1, 17615, Note_on_c, 4, 51, 114
1, 17615, Note_on_c, 8, 51, 92
1, 17616, Note_on_c, 14, 65, 103
1, 17616, Note_on_c, 9, 42, 50
1, 17617, Note_off_c, 9, 42, 64
1, 17617, Note_on_c, 15, 63, 101
1, 17618, Pitch_bend_c, 5, 10307
1, 17619, Note_on_c, 3, 68, 108
1, 17619, Pitch_bend_c, 14, 3778
1, 17619, Pitch_bend_c, 8, 12288
1, 17620, Pitch_bend_c, 4, 10112
1, 17621, Pitch_bend_c, 5, 12704
1, 17622, Pitch_bend_c, 1, 16320
1, 17622, Pitch_bend_c, 8, 16320
1, 17623, Pitch_bend_c, 5, 14890
1, 17623, Pitch_bend_c, 4, 12288
1, 17625, Pitch_bend_c, 5, 16383
1, 17625, Pitch_bend_c, 4, 14272
1, 17627, Pitch_bend_c, 15, 8192
1, 17627, Pitch_bend_c, 4, 16320
1, 17628, Note_off_c, 15, 63, 64
1, 17629, Pitch_bend_c, 14, 8192
1, 17632, Control_c, 3, 1, 56
1, 17633, Note_off_c, 14, 65, 64
1, 17643, Note_off_c, 3, 68, 64
1, 17643, Control_c, 3, 1, 94
1, 17644, Note_off_c, 11, 78, 64
1, 17647, Note_off_c, 11, 82, 64
1, 17655, Control_c, 3, 1, 0
1, 17660, Note_off_c, 0, 66, 64
1, 17660, Note_off_c, 0, 63, 64
1, 17660, Note_off_c, 0, 58, 64
1, 17660, Note_on_c, 11, 80, 64
1, 17661, Note_on_c, 11, 77, 64
1, 17664, Note_on_c, 9, 42, 110
1, 17664, Note_on_c, 9, 36, 90
1, 17664, Note_on_c, 0, 56, 76
1, 17664, Note_on_c, 0, 61, 80
1, 17664, Note_on_c, 0, 65, 72
1, 17665, Note_off_c, 9, 36, 64
1, 17665, Note_off_c, 9, 42, 64
1, 17708, Note_off_c, 5, 51, 64
1, 17709, Pitch_bend_c, 5, 8192
1, 17710, Note_off_c, 1, 39, 64
1, 17710, Note_off_c, 4, 51, 64
1, 17710, Note_off_c, 8, 51, 64
1, 17710, Note_on_c, 5, 51, 114
1, 17711, Note_on_c, 14, 63, 106
1, 17711, Pitch_bend_c, 1, 8192
1, 17711, Pitch_bend_c, 4, 8192
1, 17711, Pitch_bend_c, 8, 8192
1, 17712, Note_on_c, 15, 61, 98
1, 17712, Note_on_c, 9, 42, 50
1, 17712, Note_on_c, 1, 39, 127
1, 17712, Note_on_c, 4, 51, 114
1, 17712, Note_on_c, 8, 51, 92
1, 17713, Note_off_c, 9, 42, 64
1, 17714, Note_on_c, 3, 66, 107
1, 17722, Note_off_c, 15, 61, 64
1, 17727, Note_off_c, 14, 63, 64
1, 17729, Note_off_c, 3, 66, 64
1, 17752, Note_off_c, 5, 51, 64
1, 17754, Note_off_c, 1, 39, 64
1, 17754, Note_off_c, 8, 51, 64
1, 17754, Note_off_c, 4, 51, 64
1, 17758, Note_on_c, 5, 49, 114
1, 17759, Note_on_c, 14, 65, 100
1, 17760, Note_on_c, 15, 63, 101
1, 17760, Note_on_c, 9, 42, 110
1, 17760, Note_on_c, 9, 38, 115
1, 17760, Note_on_c, 9, 36, 90
1, 17760, Note_on_c, 1, 37, 127
1, 17760, Note_on_c, 4, 49, 114
1, 17760, Note_on_c, 8, 49, 92
1, 17761, Note_off_c, 9, 36, 64
1, 17761, Note_off_c, 9, 38, 64
1, 17761, Note_off_c, 9, 42, 64
1, 17761, Note_on_c, 3, 68, 108
1, 17772, Note_off_c, 15, 63, 64
1, 17776, Note_off_c, 14, 65, 64
1, 17779, Note_off_c, 3, 68, 64
1, 17798, Note_off_c, 8, 49, 64
1, 17798, Note_off_c, 1, 37, 64
1, 17799, Note_off_c, 5, 49, 64
1, 17801, Note_off_c, 4, 49, 64
1, 17808, Note_on_c, 9, 42, 50
1, 17809, Note_off_c, 9, 42, 64
1, 17854, Note_on_c, 14, 63, 110
1, 17855, Note_on_c, 15, 61, 100
1, 17856, Note_on_c, 3, 66, 108
1, 17856, Note_on_c, 9, 42, 110
1, 17857, Note_off_c, 9, 42, 64
1, 17869, Note_off_c, 15, 61, 64
1, 17869, Note_off_c, 14, 63, 64
1, 17878, Note_off_c, 3, 66, 64
1, 17904, Note_on_c, 9, 42, 50
1, 17904, Note_on_c, 9, 36, 90
1, 17905, Note_off_c, 9, 36, 64
1, 17905, Note_off_c, 9, 42, 64
1, 17940, Pitch_bend_c, 14, 5038
1, 17950, Pitch_bend_c, 14, 3778
1, 17951, Note_on_c, 14, 65, 109
1, 17952, Note_on_c, 15, 63, 101
1, 17952, Note_on_c, 9, 42, 110
1, 17952, Note_on_c, 9, 38, 115
1, 17953, Note_off_c, 9, 38, 64
1, 17953, Note_off_c, 9, 42, 64
1, 17953, Note_on_c, 9, 39, 127
1, 17954, Note_off_c, 9, 39, 64
1, 17954, Note_on_c, 3, 68, 108
1, 17959, Note_on_c, 10, 39, 127
1, 17960, Note_off_c, 10, 39, 64
1, 17962, Note_off_c, 15, 63, 64
1, 17963, Pitch_bend_c, 14, 8192
1, 17975, Note_off_c, 3, 68, 64
1, 17981, Note_off_c, 14, 65, 64
1, 17997, Pitch_bend_c, 5, 8192
1, 17998, Note_on_c, 5, 39, 114
1, 17999, Pitch_bend_c, 4, 8192
1, 18000, Note_on_c, 9, 42, 50
1, 18000, Note_on_c, 1, 27, 127
1, 18000, Note_on_c, 4, 39, 114
1, 18000, Note_on_c, 8, 39, 92
1, 18001, Note_off_c, 9, 42, 64
1, 18031, Note_off_c, 11, 77, 64
1, 18033, Note_off_c, 11, 80, 64
1, 18044, Note_off_c, 0, 65, 64
1, 18044, Note_off_c, 0, 56, 64
1, 18044, Note_off_c, 0, 61, 64
1, 18046, Note_on_c, 11, 78, 64
1, 18047, Note_on_c, 11, 82, 64
1, 18048, Note_on_c, 9, 57, 80
1, 18048, Note_on_c, 9, 36, 90
1, 18048, Note_on_c, 0, 63, 72
1, 18048, Note_on_c, 0, 58, 76
1, 18048, Note_on_c, 0, 66, 76
1, 18049, Note_off_c, 9, 36, 64
1, 18049, Note_off_c, 9, 57, 64
1, 18050, Note_on_c, 3, 66, 108
1, 18093, Note_off_c, 5, 39, 64
1, 18094, Note_off_c, 3, 66, 64
1, 18094, Note_on_c, 5, 42, 114
1, 18095, Note_off_c, 8, 39, 64
1, 18095, Note_off_c, 1, 27, 64
1, 18095, Note_off_c, 4, 39, 64
1, 18096, Note_on_c, 9, 42, 50
1, 18096, Note_on_c, 1, 30, 127
1, 18096, Note_on_c, 4, 42, 114
1, 18096, Note_on_c, 8, 42, 92
1, 18097, Note_off_c, 9, 42, 64
1, 18099, Note_on_c, 3, 63, 107
1, 18111, Note_off_c, 3, 63, 64
1, 18141, Note_off_c, 5, 42, 64
1, 18142, Note_on_c, 5, 46, 114
1, 18143, Note_off_c, 1, 30, 64
1, 18143, Note_off_c, 8, 42, 64
1, 18143, Note_off_c, 4, 42, 64
1, 18144, Note_on_c, 9, 42, 110
1, 18144, Note_on_c, 9, 38, 115
1, 18144, Note_on_c, 1, 34, 127
1, 18144, Note_on_c, 4, 46, 114
1, 18144, Note_on_c, 8, 46, 92
1, 18145, Note_off_c, 9, 38, 64
1, 18145, Note_off_c, 9, 42, 64
1, 18189, Note_off_c, 5, 46, 64
1, 18190, Note_on_c, 5, 54, 114
1, 18191, Note_off_c, 8, 46, 64
1, 18191, Note_off_c, 4, 46, 64
1, 18191, Note_off_c, 1, 34, 64
1, 18192, Note_on_c, 9, 42, 50
1, 18192, Note_on_c, 1, 42, 127
1, 18192, Note_on_c, 4, 54, 114
1, 18192, Note_on_c, 8, 54, 92
1, 18193, Note_off_c, 9, 42, 64
1, 18218, Pitch_bend_c, 15, 6676
1, 18219, Pitch_bend_c, 14, 7810
1, 18223, Pitch_bend_c, 15, 5794
1, 18224, Pitch_bend_c, 14, 6298
1, 18228, Pitch_bend_c, 15, 5164
1, 18229, Pitch_bend_c, 14, 5038
1, 18233, Pitch_bend_c, 15, 4534
1, 18237, Note_off_c, 5, 54, 64
1, 18238, Note_on_c, 5, 51, 114
1, 18239, Note_off_c, 1, 42, 64
1, 18239, Note_off_c, 8, 54, 64
1, 18239, Note_off_c, 4, 54, 64
1, 18239, Note_on_c, 14, 66, 111
1, 18240, Pitch_bend_c, 14, 6424
1, 18240, Note_on_c, 15, 66, 102
1, 18240, Note_on_c, 9, 42, 110
1, 18240, Note_on_c, 9, 36, 90
1, 18240, Note_on_c, 1, 39, 127
1, 18240, Note_on_c, 4, 51, 114
1, 18240, Note_on_c, 8, 51, 92
1, 18241, Note_off_c, 9, 36, 64
1, 18241, Note_off_c, 9, 42, 64
1, 18243, Pitch_bend_c, 15, 6046
1, 18245, Pitch_bend_c, 14, 8192
1, 18249, Pitch_bend_c, 15, 7558
1, 18251, Pitch_bend_c, 5, 8249
1, 18253, Pitch_bend_c, 4, 8244
1, 18254, Pitch_bend_c, 15, 8192
1, 18255, Pitch_bend_c, 5, 8708
1, 18257, Pitch_bend_c, 4, 8660
1, 18262, Pitch_bend_c, 5, 8364
1, 18264, Pitch_bend_c, 4, 8348
1, 18266, Pitch_bend_c, 5, 8192
1, 18268, Pitch_bend_c, 4, 8192
1, 18282, Pitch_bend_c, 5, 8249
1, 18284, Pitch_bend_c, 4, 8244
1, 18285, Note_off_c, 14, 66, 64
1, 18286, Pitch_bend_c, 5, 8478
1, 18288, Note_on_c, 9, 42, 50
1, 18288, Pitch_bend_c, 4, 8452
1, 18289, Note_off_c, 9, 42, 64
1, 18289, Note_on_c, 14, 63, 110
1, 18289, Note_on_c, 15, 63, 99
1, 18289, Pitch_bend_c, 5, 8708
1, 18291, Note_off_c, 15, 66, 64
1, 18291, Pitch_bend_c, 4, 8660
1, 18297, Pitch_bend_c, 5, 8593
1, 18299, Pitch_bend_c, 4, 8556
1, 18300, Note_off_c, 15, 63, 64
1, 18301, Pitch_bend_c, 5, 8192
1, 18302, Note_off_c, 14, 63, 64
1, 18303, Pitch_bend_c, 4, 8192
1, 18313, Pitch_bend_c, 5, 8249
1, 18315, Pitch_bend_c, 4, 8244
1, 18317, Pitch_bend_c, 5, 8823
1, 18319, Pitch_bend_c, 4, 8765
1, 18321, Pitch_bend_c, 5, 9052
1, 18323, Pitch_bend_c, 4, 8973
1, 18328, Pitch_bend_c, 5, 8364
1, 18330, Pitch_bend_c, 4, 8348
1, 18333, Pitch_bend_c, 5, 8192
1, 18335, Pitch_bend_c, 4, 8192
1, 18336, Note_on_c, 9, 42, 110
1, 18336, Note_on_c, 9, 38, 115
1, 18337, Note_off_c, 9, 38, 64
1, 18337, Note_off_c, 9, 42, 64
1, 18337, Note_on_c, 9, 39, 127
1, 18338, Note_off_c, 9, 39, 64
1, 18338, Note_on_c, 3, 63, 107
1, 18340, Pitch_bend_c, 5, 8593
1, 18342, Pitch_bend_c, 4, 8556
1, 18343, Note_on_c, 10, 39, 127
1, 18344, Note_off_c, 10, 39, 64
1, 18344, Pitch_bend_c, 5, 9453
1, 18346, Pitch_bend_c, 4, 9337
1, 18348, Pitch_bend_c, 5, 9797
1, 18350, Pitch_bend_c, 4, 9649
1, 18353, Note_off_c, 3, 63, 64
1, 18356, Pitch_bend_c, 5, 9110
1, 18358, Pitch_bend_c, 4, 9025
1, 18360, Pitch_bend_c, 5, 8192
1, 18362, Pitch_bend_c, 4, 8192
1, 18379, Note_off_c, 5, 51, 64
1, 18381, Note_off_c, 8, 51, 64
1, 18381, Note_off_c, 4, 51, 64
1, 18381, Note_off_c, 1, 39, 64
1, 18381, Note_on_c, 5, 51, 114
1, 18383, Note_on_c, 1, 39, 127
1, 18383, Note_on_c, 4, 51, 114
1, 18383, Note_on_c, 8, 51, 92
1, 18384, Note_on_c, 9, 42, 50
1, 18385, Note_off_c, 9, 42, 64
1, 18386, Pitch_bend_c, 5, 12704
1, 18386, Pitch_bend_c, 5, 10307
1, 18386, Pitch_bend_c, 8, 12288
1, 18388, Pitch_bend_c, 4, 10112
1, 18389, Pitch_bend_c, 1, 16320
1, 18389, Pitch_bend_c, 8, 16320
1, 18393, Pitch_bend_c, 5, 14890
1, 18395, Pitch_bend_c, 5, 16383
1, 18395, Pitch_bend_c, 4, 14272
1, 18397, Pitch_bend_c, 4, 16320
1, 18425, Note_off_c, 11, 78, 64
1, 18426, Note_off_c, 11, 82, 64
1, 18428, Note_off_c, 0, 63, 64
1, 18428, Note_off_c, 0, 66, 64
1, 18428, Note_off_c, 0, 58, 64
1, 18431, Note_on_c, 11, 80, 64
1, 18432, Note_on_c, 9, 42, 110
1, 18432, Note_on_c, 9, 36, 90
1, 18432, Note_on_c, 0, 61, 80
1, 18432, Note_on_c, 0, 65, 71
1, 18432, Note_on_c, 0, 56, 74
1, 18432, Note_on_c, 11, 77, 64
1, 18433, Note_off_c, 9, 36, 64
1, 18433, Note_off_c, 9, 42, 64
1, 18434, Note_on_c, 3, 65, 102
1, 18472, Note_off_c, 5, 51, 64
1, 18474, Note_off_c, 4, 51, 64
1, 18477, Note_off_c, 1, 39, 64
1, 18477, Note_off_c, 8, 51, 64
1, 18477, Pitch_bend_c, 5, 8192
1, 18478, Note_off_c, 3, 65, 64
1, 18478, Note_on_c, 5, 51, 114
1, 18479, Pitch_bend_c, 1, 8192
1, 18479, Pitch_bend_c, 4, 8192
1, 18479, Pitch_bend_c, 8, 8192
1, 18480, Note_on_c, 9, 42, 50
1, 18480, Note_on_c, 1, 39, 127
1, 18480, Note_on_c, 4, 51, 114
1, 18480, Note_on_c, 8, 51, 92
1, 18481, Note_off_c, 9, 42, 64
1, 18483, Note_on_c, 3, 61, 108
1, 18486, Pitch_bend_c, 15, 7810
1, 18491, Pitch_bend_c, 15, 7180
1, 18496, Pitch_bend_c, 15, 6046
1, 18499, Note_off_c, 3, 61, 64
1, 18501, Pitch_bend_c, 15, 4786
1, 18505, Pitch_bend_c, 15, 3526
1, 18510, Pitch_bend_c, 15, 1636
1, 18516, Pitch_bend_c, 14, 7684
1, 18521, Pitch_bend_c, 14, 4786
1, 18523, Note_off_c, 5, 51, 64
1, 18525, Note_off_c, 1, 39, 64
1, 18525, Note_off_c, 8, 51, 64
1, 18525, Note_off_c, 4, 51, 64
1, 18526, Pitch_bend_c, 14, 2770
1, 18526, Note_on_c, 5, 49, 114
1, 18527, Pitch_bend_c, 15, 4156
1, 18527, Note_on_c, 15, 68, 101
1, 18528, Note_on_c, 14, 68, 111
1, 18528, Note_on_c, 9, 42, 110
1, 18528, Note_on_c, 9, 38, 115
1, 18528, Note_on_c, 9, 36, 90
1, 18528, Note_on_c, 1, 37, 127
1, 18528, Note_on_c, 4, 49, 114
1, 18528, Note_on_c, 8, 49, 92
1, 18529, Note_off_c, 9, 36, 64
1, 18529, Note_off_c, 9, 38, 64
1, 18529, Note_off_c, 9, 42, 64
1, 18532, Pitch_bend_c, 15, 6550
1, 18533, Pitch_bend_c, 14, 4156
1, 18538, Pitch_bend_c, 15, 8192
1, 18539, Pitch_bend_c, 14, 8192
1, 18564, Note_off_c, 5, 49, 64
1, 18566, Note_off_c, 4, 49, 64
1, 18566, Note_off_c, 1, 37, 64
1, 18566, Note_off_c, 8, 49, 64
1, 18575, Note_off_c, 15, 68, 64
1, 18576, Note_on_c, 14, 65, 105
1, 18576, Note_on_c, 9, 42, 50
1, 18577, Note_off_c, 9, 42, 64
1, 18577, Note_off_c, 14, 68, 64
1, 18577, Note_on_c, 15, 65, 98
1, 18593, Note_off_c, 15, 65, 64
1, 18593, Note_off_c, 14, 65, 64
1, 18622, Note_on_c, 5, 49, 114
1, 18624, Note_on_c, 9, 42, 110
1, 18624, Note_on_c, 1, 37, 127
1, 18624, Note_on_c, 4, 49, 114
1, 18624, Note_on_c, 8, 49, 92
1, 18625, Note_off_c, 9, 42, 64
1, 18659, Note_off_c, 1, 37, 64
1, 18659, Note_off_c, 8, 49, 64
1, 18662, Note_off_c, 5, 49, 64
1, 18664, Note_off_c, 4, 49, 64
1, 18672, Note_on_c, 9, 42, 50
1, 18672, Note_on_c, 9, 36, 90
1, 18673, Note_off_c, 9, 36, 64
1, 18673, Note_off_c, 9, 42, 64
1, 18720, Note_on_c, 9, 42, 110
1, 18720, Note_on_c, 9, 38, 115
1, 18721, Note_off_c, 9, 38, 64
1, 18721, Note_off_c, 9, 42, 64
1, 18721, Note_on_c, 9, 39, 127
1, 18722, Note_off_c, 9, 39, 64
1, 18726, Note_on_c, 3, 66, 104
1, 18727, Note_on_c, 10, 39, 127
1, 18728, Note_off_c, 10, 39, 64
1, 18736, Pitch_bend_c, 3, 14497
1, 18741, Pitch_bend_c, 3, 16317
1, 18765, Note_off_c, 3, 66, 64
1, 18766, Note_on_c, 5, 39, 114
1, 18768, Note_on_c, 9, 42, 50
1, 18768, Note_on_c, 1, 27, 127
1, 18768, Note_on_c, 4, 39, 114
1, 18768, Note_on_c, 8, 39, 92
1, 18769, Note_off_c, 9, 42, 64
1, 18773, Pitch_bend_c, 3, 13782
1, 18778, Pitch_bend_c, 3, 7684
1, 18782, Pitch_bend_c, 3, 8192
1, 18797, Note_off_c, 11, 80, 64
1, 18798, Note_off_c, 11, 77, 64
1, 18812, Note_off_c, 0, 61, 64
1, 18812, Note_off_c, 0, 65, 64
1, 18812, Note_off_c, 0, 56, 64
1, 18815, Note_on_c, 11, 78, 64
1, 18816, Note_on_c, 3, 66, 108
1, 18816, Note_on_c, 9, 42, 110
1, 18816, Note_on_c, 9, 36, 90
1, 18816, Note_on_c, 0, 66, 78
1, 18816, Note_on_c, 0, 63, 74
1, 18816, Note_on_c, 0, 58, 74
1, 18816, Note_on_c, 11, 82, 64
1, 18817, Note_off_c, 9, 36, 64
1, 18817, Note_off_c, 9, 42, 64
1, 18857, Note_off_c, 3, 66, 64
1, 18860, Note_off_c, 5, 39, 64
1, 18862, Note_off_c, 8, 39, 64
1, 18862, Note_off_c, 1, 27, 64
1, 18862, Note_off_c, 4, 39, 64
1, 18862, Note_on_c, 5, 42, 114
1, 18864, Note_on_c, 9, 42, 50
1, 18864, Note_on_c, 1, 30, 127
1, 18864, Note_on_c, 4, 42, 114
1, 18864, Note_on_c, 8, 42, 92
1, 18865, Note_off_c, 9, 42, 64
1, 18865, Note_on_c, 3, 63, 107
1, 18890, Note_off_c, 3, 63, 64
1, 18908, Note_off_c, 5, 42, 64
1, 18910, Note_off_c, 1, 30, 64
1, 18910, Note_off_c, 8, 42, 64
1, 18910, Note_off_c, 4, 42, 64
1, 18910, Note_on_c, 5, 46, 114
1, 18912, Note_on_c, 9, 42, 110
1, 18912, Note_on_c, 9, 38, 115
1, 18912, Note_on_c, 1, 34, 127
1, 18912, Note_on_c, 4, 46, 114
1, 18912, Note_on_c, 8, 46, 92
1, 18913, Note_off_c, 9, 38, 64
1, 18913, Note_off_c, 9, 42, 64
1, 18956, Note_off_c, 5, 46, 64
1, 18958, Note_off_c, 8, 46, 64
1, 18958, Note_off_c, 4, 46, 64
1, 18958, Note_off_c, 1, 34, 64
1, 18958, Note_on_c, 5, 54, 114
1, 18960, Note_on_c, 9, 42, 50
1, 18960, Note_on_c, 1, 42, 127
1, 18960, Note_on_c, 4, 54, 114
1, 18960, Note_on_c, 8, 54, 92
1, 18961, Note_off_c, 9, 42, 64
1, 18978, Pitch_bend_c, 15, 6928
1, 18979, Pitch_bend_c, 14, 7810
1, 18983, Pitch_bend_c, 15, 5416
1, 18984, Pitch_bend_c, 14, 6928
1, 18988, Pitch_bend_c, 15, 3526
1, 18989, Pitch_bend_c, 14, 4156
1, 18993, Pitch_bend_c, 15, 2644
1, 18994, Pitch_bend_c, 14, 3778
1, 19002, Pitch_bend_c, 15, 4408
1, 19004, Note_off_c, 5, 54, 64
1, 19005, Pitch_bend_c, 14, 4408
1, 19006, Note_off_c, 1, 42, 64
1, 19006, Note_off_c, 8, 54, 64
1, 19006, Note_off_c, 4, 54, 64
1, 19006, Note_on_c, 14, 66, 111
1, 19006, Note_on_c, 5, 51, 114
1, 19008, Note_on_c, 15, 66, 102
1, 19008, Note_on_c, 9, 42, 110
1, 19008, Note_on_c, 9, 36, 90
1, 19008, Note_on_c, 1, 39, 127
1, 19008, Note_on_c, 4, 51, 114
1, 19008, Note_on_c, 8, 51, 92
1, 19009, Note_off_c, 9, 36, 64
1, 19009, Note_off_c, 9, 42, 64
1, 19009, Pitch_bend_c, 15, 7180
1, 19010, Pitch_bend_c, 14, 6046
1, 19014, Pitch_bend_c, 15, 8192
1, 19015, Pitch_bend_c, 14, 8192
1, 19031, Pitch_bend_c, 5, 8478
1, 19033, Pitch_bend_c, 4, 8452
1, 19035, Pitch_bend_c, 5, 9110
1, 19037, Pitch_bend_c, 4, 9025
1, 19039, Pitch_bend_c, 5, 9568
1, 19041, Pitch_bend_c, 4, 9441
1, 19043, Pitch_bend_c, 5, 9682
1, 19045, Pitch_bend_c, 4, 9545
1, 19051, Pitch_bend_c, 5, 7855
1, 19052, Note_off_c, 14, 66, 64
1, 19053, Pitch_bend_c, 4, 7886
1, 19054, Pitch_bend_c, 5, 8192
1, 19055, Note_on_c, 14, 63, 111
1, 19056, Note_on_c, 9, 42, 50
1, 19056, Pitch_bend_c, 4, 8192
1, 19057, Note_off_c, 9, 42, 64
1, 19057, Note_on_c, 15, 63, 100
1, 19059, Note_off_c, 15, 66, 64
1, 19066, Pitch_bend_c, 5, 8249
1, 19068, Pitch_bend_c, 4, 8244
1, 19070, Pitch_bend_c, 5, 9797
1, 19071, Note_off_c, 14, 63, 64
1, 19072, Note_off_c, 15, 63, 64
1, 19072, Pitch_bend_c, 4, 9649
1, 19074, Pitch_bend_c, 5, 9913
1, 19076, Pitch_bend_c, 4, 9754
1, 19081, Pitch_bend_c, 5, 9110
1, 19083, Pitch_bend_c, 4, 9025
1, 19085, Pitch_bend_c, 5, 8192
1, 19087, Pitch_bend_c, 4, 8192
1, 19093, Pitch_bend_c, 5, 8478
1, 19095, Pitch_bend_c, 4, 8452
1, 19097, Pitch_bend_c, 5, 9568
1, 19099, Pitch_bend_c, 4, 9441
1, 19101, Pitch_bend_c, 5, 9970
1, 19103, Pitch_bend_c, 4, 9806
1, 19104, Note_on_c, 9, 42, 110
1, 19104, Note_on_c, 9, 38, 115
1, 19105, Note_off_c, 9, 38, 64
1, 19105, Note_off_c, 9, 42, 64
1, 19105, Pitch_bend_c, 5, 10084
1, 19105, Note_on_c, 9, 39, 127
1, 19106, Note_off_c, 9, 39, 64
1, 19107, Note_on_c, 3, 63, 108
1, 19107, Pitch_bend_c, 4, 9910
1, 19109, Pitch_bend_c, 5, 9913
1, 19111, Note_on_c, 10, 39, 127
1, 19111, Pitch_bend_c, 4, 9754
1, 19112, Note_off_c, 10, 39, 64
1, 19113, Pitch_bend_c, 5, 8192
1, 19115, Pitch_bend_c, 4, 8192
1, 19125, Note_off_c, 3, 63, 64
1, 19147, Note_off_c, 5, 51, 64
1, 19149, Note_off_c, 8, 51, 64
1, 19149, Note_off_c, 4, 51, 64
1, 19149, Note_off_c, 1, 39, 64
1, 19149, Note_on_c, 5, 51, 114
1, 19151, Note_on_c, 1, 39, 127
1, 19151, Note_on_c, 4, 51, 114
1, 19151, Note_on_c, 8, 51, 92
1, 19152, Note_on_c, 9, 42, 50
1, 19153, Note_off_c, 9, 42, 64
1, 19154, Pitch_bend_c, 5, 10307
1, 19155, Pitch_bend_c, 8, 12288
1, 19156, Pitch_bend_c, 4, 10112
1, 19157, Pitch_bend_c, 5, 12704
1, 19158, Pitch_bend_c, 1, 16320
1, 19158, Pitch_bend_c, 8, 16320
1, 19159, Pitch_bend_c, 5, 14890
1, 19159, Pitch_bend_c, 4, 12288
1, 19161, Pitch_bend_c, 5, 16383
1, 19161, Pitch_bend_c, 4, 14272
1, 19163, Pitch_bend_c, 4, 16320
1, 19186, Note_off_c, 11, 78, 64
1, 19186, Note_off_c, 11, 82, 64
1, 19196, Note_off_c, 0, 66, 64
1, 19196, Note_off_c, 0, 63, 64
1, 19196, Note_off_c, 0, 58, 64
1, 19197, Note_on_c, 11, 61, 64
1, 19197, Note_on_c, 11, 73, 64
1, 19200, Note_on_c, 3, 63, 108
1, 19200, Note_on_c, 9, 42, 110
1, 19200, Note_on_c, 9, 36, 90
1, 19200, Note_on_c, 0, 56, 74
1, 19200, Note_on_c, 0, 65, 72
1, 19200, Note_on_c, 0, 61, 79
1, 19201, Note_off_c, 9, 36, 64
1, 19201, Note_off_c, 9, 42, 64
1, 19201, Pitch_bend_c, 3, 16317
1, 19237, Pitch_bend_c, 3, 7810
1, 19238, Note_off_c, 3, 63, 64
1, 19242, Pitch_bend_c, 3, 8192
1, 19244, Note_off_c, 5, 51, 64
1, 19245, Pitch_bend_c, 5, 8192
1, 19246, Note_off_c, 1, 39, 64
1, 19246, Note_off_c, 4, 51, 64
1, 19246, Note_off_c, 8, 51, 64
1, 19246, Note_on_c, 5, 51, 114
1, 19247, Pitch_bend_c, 1, 8192
1, 19247, Pitch_bend_c, 4, 8192
1, 19247, Pitch_bend_c, 8, 8192
1, 19248, Note_on_c, 9, 42, 50
1, 19248, Note_on_c, 1, 39, 127
1, 19248, Note_on_c, 4, 51, 114
1, 19248, Note_on_c, 8, 51, 92
1, 19249, Note_off_c, 9, 42, 64
1, 19253, Note_on_c, 3, 61, 108
1, 19263, Pitch_bend_c, 15, 7810
1, 19265, Pitch_bend_c, 14, 7054
1, 19268, Pitch_bend_c, 15, 6802
1, 19270, Pitch_bend_c, 14, 6046
1, 19272, Note_off_c, 3, 61, 64
1, 19273, Pitch_bend_c, 15, 5038
1, 19275, Pitch_bend_c, 14, 4912
1, 19278, Pitch_bend_c, 15, 1636
1, 19279, Pitch_bend_c, 14, 3904
1, 19285, Pitch_bend_c, 14, 2896
1, 19288, Note_off_c, 5, 51, 64
1, 19289, Pitch_bend_c, 14, 2140
1, 19290, Note_off_c, 1, 39, 64
1, 19290, Note_off_c, 8, 51, 64
1, 19290, Note_off_c, 4, 51, 64
1, 19294, Note_on_c, 5, 49, 114
1, 19295, Note_on_c, 14, 68, 111
1, 19296, Note_on_c, 15, 68, 102
1, 19296, Note_on_c, 9, 42, 110
1, 19296, Note_on_c, 9, 38, 115
1, 19296, Note_on_c, 9, 36, 90
1, 19296, Note_on_c, 1, 37, 127
1, 19296, Note_on_c, 4, 49, 114
1, 19296, Note_on_c, 8, 49, 92
1, 19297, Note_off_c, 9, 36, 64
1, 19297, Note_off_c, 9, 38, 64
1, 19297, Note_off_c, 9, 42, 64
1, 19297, Pitch_bend_c, 14, 3652
1, 19300, Pitch_bend_c, 15, 4030
1, 19303, Pitch_bend_c, 14, 6424
1, 19306, Pitch_bend_c, 15, 6676
1, 19308, Pitch_bend_c, 14, 8192
1, 19311, Pitch_bend_c, 15, 8192
1, 19334, Note_off_c, 8, 49, 64
1, 19334, Note_off_c, 1, 37, 64
1, 19335, Note_off_c, 5, 49, 64
1, 19337, Note_off_c, 4, 49, 64
1, 19341, Note_off_c, 14, 68, 64
1, 19342, Note_on_c, 14, 65, 104
1, 19343, Note_off_c, 15, 68, 64
1, 19344, Note_on_c, 9, 42, 50
1, 19345, Note_off_c, 9, 42, 64
1, 19345, Note_on_c, 15, 65, 98
1, 19360, Note_off_c, 15, 65, 64
1, 19363, Note_off_c, 14, 65, 64
1, 19392, Note_on_c, 9, 28, 120
1, 19392, Note_on_c, 9, 42, 90
1, 19393, Note_off_c, 9, 42, 64
1, 19393, Note_off_c, 9, 28, 64
1, 19440, Note_on_c, 9, 42, 50
1, 19440, Note_on_c, 9, 36, 90
1, 19441, Note_off_c, 9, 36, 64
1, 19441, Note_off_c, 9, 42, 64
1, 19488, Note_on_c, 9, 42, 110
1, 19488, Note_on_c, 9, 38, 115
1, 19489, Note_off_c, 9, 38, 64
1, 19489, Note_off_c, 9, 42, 64
1, 19489, Note_on_c, 9, 39, 127
1, 19490, Note_off_c, 9, 39, 64
1, 19495, Note_on_c, 10, 39, 127
1, 19496, Note_off_c, 10, 39, 64
1, 19533, Pitch_bend_c, 5, 8192
1, 19535, Pitch_bend_c, 4, 8192
1, 19536, Note_on_c, 9, 42, 50
1, 19537, Note_off_c, 9, 42, 64
1, 19560, Note_off_c, 11, 73, 64
1, 19561, Note_off_c, 11, 61, 64
1, 19568, Note_on_c, 11, 63, 64
1, 19570, Note_on_c, 11, 75, 64
1, 19580, Note_off_c, 0, 65, 64
1, 19580, Note_off_c, 0, 56, 64
1, 19580, Note_off_c, 0, 61, 64
1, 19584, Note_on_c, 9, 57, 80
1, 19584, Note_on_c, 9, 36, 90
1, 19584, Note_on_c, 0, 63, 78
1, 19584, Note_on_c, 0, 66, 79
1, 19584, Note_on_c, 0, 58, 74
1, 19584, Note_on_c, 4, 39, 98
1, 19585, Note_off_c, 4, 39, 64
1, 19585, Note_off_c, 9, 36, 64
1, 19585, Note_off_c, 9, 57, 64
1, 19632, Note_on_c, 9, 42, 50
1, 19632, Note_on_c, 1, 39, 127
1, 19632, Note_on_c, 5, 63, 92
1, 19632, Note_on_c, 4, 51, 98
1, 19632, Note_on_c, 4, 58, 102
1, 19633, Note_off_c, 9, 42, 64
1, 19636, Note_on_c, 3, 70, 105
1, 19648, Note_off_c, 3, 70, 64
1, 19667, Note_off_c, 1, 39, 64
1, 19672, Note_off_c, 5, 63, 64
1, 19672, Note_off_c, 4, 51, 64
1, 19672, Note_off_c, 4, 58, 64
1, 19680, Note_on_c, 9, 42, 110
1, 19680, Note_on_c, 9, 38, 115
1, 19680, Note_on_c, 1, 39, 127
1, 19680, Note_on_c, 5, 63, 78
1, 19680, Note_on_c, 4, 58, 93
1, 19680, Note_on_c, 4, 51, 89
1, 19681, Note_off_c, 9, 38, 64
1, 19681, Note_off_c, 9, 42, 64
1, 19682, Note_on_c, 3, 68, 107
1, 19687, Pitch_bend_c, 3, 15992
1, 19692, Pitch_bend_c, 3, 16317
1, 19710, Note_off_c, 3, 68, 64
1, 19714, Pitch_bend_c, 3, 14627
1, 19715, Note_off_c, 1, 39, 64
1, 19719, Pitch_bend_c, 3, 6928
1, 19720, Note_off_c, 5, 63, 64
1, 19720, Note_off_c, 4, 51, 64
1, 19720, Note_off_c, 4, 58, 64
1, 19724, Pitch_bend_c, 3, 8192
1, 19728, Note_on_c, 9, 42, 50
1, 19729, Note_off_c, 9, 42, 64
1, 19732, Note_on_c, 3, 70, 104
1, 19747, Note_off_c, 3, 70, 64
1, 19769, Control_c, 11, 11, 125
1, 19776, Note_on_c, 9, 42, 110
1, 19776, Note_on_c, 9, 36, 90
1, 19776, Note_on_c, 1, 39, 127
1, 19776, Note_on_c, 5, 63, 97
1, 19776, Note_on_c, 4, 58, 100
1, 19776, Note_on_c, 4, 51, 101
1, 19777, Note_off_c, 9, 36, 64
1, 19777, Note_off_c, 9, 42, 64
1, 19782, Note_on_c, 3, 70, 108
1, 19784, Control_c, 11, 11, 123
1, 19793, Control_c, 11, 11, 121
1, 19796, Note_off_c, 3, 70, 64
1, 19798, Control_c, 11, 11, 119
1, 19808, Control_c, 11, 11, 117
1, 19811, Note_off_c, 1, 39, 64
1, 19816, Note_off_c, 5, 63, 64
1, 19816, Note_off_c, 4, 51, 64
1, 19816, Note_off_c, 4, 58, 64
1, 19818, Control_c, 11, 11, 115
1, 19824, Note_on_c, 9, 42, 50
1, 19825, Note_off_c, 9, 42, 64
1, 19827, Control_c, 11, 11, 113
1, 19828, Note_on_c, 3, 70, 102
1, 19837, Control_c, 11, 11, 111
1, 19845, Note_off_c, 3, 70, 64
1, 19846, Control_c, 11, 11, 109
1, 19851, Control_c, 11, 11, 107
1, 19861, Control_c, 11, 11, 105
1, 19871, Control_c, 11, 11, 102
1, 19872, Note_on_c, 9, 42, 110
1, 19872, Note_on_c, 9, 38, 115
1, 19873, Note_off_c, 9, 38, 64
1, 19873, Note_off_c, 9, 42, 64
1, 19873, Note_on_c, 9, 39, 127
1, 19874, Note_off_c, 9, 39, 64
1, 19877, Note_on_c, 3, 68, 105
1, 19879, Note_on_c, 10, 39, 127
1, 19880, Note_off_c, 10, 39, 64
1, 19880, Control_c, 11, 11, 100
1, 19885, Control_c, 11, 11, 98
1, 19895, Control_c, 11, 11, 94
1, 19905, Control_c, 11, 11, 92
1, 19914, Control_c, 11, 11, 90
1, 19916, Note_off_c, 3, 68, 64
1, 19919, Control_c, 11, 11, 88
1, 19920, Note_on_c, 9, 42, 50
1, 19920, Note_on_c, 1, 37, 127
1, 19920, Note_on_c, 5, 61, 82
1, 19920, Note_on_c, 4, 56, 101
1, 19920, Note_on_c, 4, 49, 98
1, 19921, Note_off_c, 9, 42, 64
1, 19924, Note_on_c, 3, 70, 105
1, 19934, Control_c, 11, 11, 85
1, 19943, Control_c, 11, 11, 83
1, 19946, Note_off_c, 3, 70, 64
1, 19953, Control_c, 11, 11, 81
1, 19955, Note_off_c, 1, 37, 64
1, 19960, Note_off_c, 5, 61, 64
1, 19960, Note_off_c, 4, 56, 64
1, 19960, Note_off_c, 4, 49, 64
1, 19963, Control_c, 11, 11, 79
1, 19964, Note_off_c, 0, 63, 64
1, 19964, Note_off_c, 0, 58, 64
1, 19964, Note_off_c, 0, 66, 64
1, 19968, Note_on_c, 9, 42, 110
1, 19968, Note_on_c, 9, 36, 90
1, 19968, Note_on_c, 1, 37, 127
1, 19968, Note_on_c, 0, 61, 78
1, 19968, Note_on_c, 0, 56, 78
1, 19968, Note_on_c, 0, 65, 74
1, 19968, Note_on_c, 5, 61, 82
1, 19968, Note_on_c, 4, 56, 97
1, 19968, Note_on_c, 4, 49, 98
1, 19969, Note_off_c, 9, 36, 64
1, 19969, Note_off_c, 9, 42, 64
1, 19970, Note_on_c, 3, 71, 101
1, 19971, Control_c, 11, 11, 77
1, 19975, Pitch_bend_c, 3, 13652
1, 19977, Control_c, 11, 11, 75
1, 19984, Pitch_bend_c, 3, 16317
1, 19992, Control_c, 11, 11, 73
1, 19996, Note_off_c, 3, 71, 64
1, 19997, Control_c, 11, 11, 71
1, 20002, Pitch_bend_c, 3, 15862
1, 20006, Note_off_c, 1, 37, 64
1, 20008, Note_off_c, 5, 61, 64
1, 20008, Note_off_c, 4, 49, 64
1, 20008, Note_off_c, 4, 56, 64
1, 20010, Pitch_bend_c, 3, 8192
1, 20011, Control_c, 11, 11, 69
1, 20016, Note_on_c, 9, 42, 50
1, 20017, Note_off_c, 9, 42, 64
1, 20020, Note_on_c, 3, 70, 107
1, 20021, Control_c, 11, 11, 67
1, 20026, Control_c, 11, 11, 65
1, 20035, Control_c, 11, 11, 63
1, 20037, Note_off_c, 3, 70, 64
1, 20045, Control_c, 11, 11, 61
1, 20050, Control_c, 11, 11, 59
1, 20060, Control_c, 11, 11, 57
1, 20064, Note_on_c, 9, 42, 110
1, 20064, Note_on_c, 9, 38, 115
1, 20064, Note_on_c, 9, 36, 90
1, 20064, Note_on_c, 1, 37, 127
1, 20064, Note_on_c, 5, 61, 100
1, 20064, Note_on_c, 4, 56, 101
1, 20064, Note_on_c, 4, 49, 100
1, 20064, Control_c, 11, 11, 55
1, 20065, Note_off_c, 9, 36, 64
1, 20065, Note_off_c, 9, 38, 64
1, 20065, Note_off_c, 9, 42, 64
1, 20069, Note_on_c, 3, 68, 107
1, 20069, Control_c, 11, 11, 51
1, 20074, Control_c, 11, 11, 49
1, 20084, Control_c, 11, 11, 46
1, 20089, Note_off_c, 3, 68, 64
1, 20093, Control_c, 11, 11, 43
1, 20098, Control_c, 11, 11, 41
1, 20099, Note_off_c, 1, 37, 64
1, 20104, Note_off_c, 4, 49, 64
1, 20104, Note_off_c, 4, 56, 64
1, 20104, Note_off_c, 5, 61, 64
1, 20108, Control_c, 11, 11, 38
1, 20112, Note_on_c, 9, 42, 50
1, 20113, Note_off_c, 9, 42, 64
1, 20118, Control_c, 11, 11, 35
1, 20123, Control_c, 11, 11, 30
1, 20127, Control_c, 11, 11, 27
1, 20132, Control_c, 11, 11, 23
1, 20137, Control_c, 11, 11, 19
1, 20142, Control_c, 11, 11, 14
1, 20147, Control_c, 11, 11, 0
1, 20160, Note_on_c, 9, 42, 110
1, 20161, Note_off_c, 9, 42, 64
1, 20163, Note_on_c, 3, 70, 108
1, 20169, Control_c, 3, 1, 14
1, 20180, Control_c, 3, 1, 122
1, 20190, Control_c, 3, 1, 115
1, 20201, Control_c, 3, 1, 121
1, 20208, Note_on_c, 9, 42, 50
1, 20208, Note_on_c, 9, 36, 90
1, 20209, Note_off_c, 9, 36, 64
1, 20209, Note_off_c, 9, 42, 64
1, 20211, Control_c, 3, 1, 122
1, 20221, Control_c, 3, 1, 120
1, 20230, Control_c, 3, 1, 108
1, 20236, Note_off_c, 3, 70, 64
1, 20240, Control_c, 3, 1, 0
1, 20250, Note_off_c, 11, 75, 64
1, 20255, Note_off_c, 11, 63, 64
1, 20256, Note_on_c, 9, 42, 110
1, 20256, Note_on_c, 9, 38, 115
1, 20257, Note_off_c, 9, 38, 64
1, 20257, Note_off_c, 9, 42, 64
1, 20257, Note_on_c, 9, 39, 127
1, 20258, Note_off_c, 9, 39, 64
1, 20263, Note_on_c, 10, 39, 127
1, 20264, Note_off_c, 10, 39, 64
1, 20304, Note_on_c, 9, 42, 50
1, 20305, Note_off_c, 9, 42, 64
1, 20308, Note_on_c, 3, 70, 108
1, 20322, Note_off_c, 3, 70, 64
1, 20348, Note_off_c, 0, 61, 64
1, 20348, Note_off_c, 0, 56, 64
1, 20348, Note_off_c, 0, 65, 64
1, 20352, Note_on_c, 9, 42, 110
1, 20352, Note_on_c, 9, 36, 90
1, 20352, Note_on_c, 0, 63, 76
1, 20352, Note_on_c, 0, 66, 76
1, 20352, Note_on_c, 0, 58, 73
1, 20353, Note_off_c, 9, 36, 64
1, 20353, Note_off_c, 9, 42, 64
1, 20356, Note_on_c, 3, 68, 107
1, 20363, Pitch_bend_c, 3, 12547
1, 20374, Pitch_bend_c, 3, 16317
1, 20390, Note_off_c, 3, 68, 64
1, 20394, Pitch_bend_c, 3, 7810
1, 20400, Note_on_c, 9, 42, 50
1, 20400, Note_on_c, 1, 39, 127
1, 20400, Note_on_c, 5, 63, 98
1, 20400, Note_on_c, 4, 58, 102
1, 20400, Note_on_c, 4, 51, 101
1, 20401, Note_off_c, 9, 42, 64
1, 20405, Pitch_bend_c, 3, 8192
1, 20406, Note_on_c, 3, 70, 108
1, 20419, Note_off_c, 3, 70, 64
1, 20435, Note_off_c, 1, 39, 64
1, 20440, Note_off_c, 5, 63, 64
1, 20440, Note_off_c, 4, 58, 64
1, 20440, Note_off_c, 4, 51, 64
1, 20448, Note_on_c, 9, 42, 110
1, 20448, Note_on_c, 9, 38, 115
1, 20448, Note_on_c, 1, 39, 127
1, 20448, Note_on_c, 5, 63, 86
1, 20448, Note_on_c, 4, 51, 98
1, 20448, Note_on_c, 4, 58, 101
1, 20449, Note_off_c, 9, 38, 64
1, 20449, Note_off_c, 9, 42, 64
1, 20453, Note_on_c, 3, 70, 104
1, 20468, Note_off_c, 3, 70, 64
1, 20488, Note_off_c, 5, 63, 64
1, 20488, Note_off_c, 1, 39, 64
1, 20488, Note_off_c, 4, 58, 64
1, 20488, Note_off_c, 4, 51, 64
1, 20496, Note_on_c, 9, 42, 50
1, 20497, Note_off_c, 9, 42, 64
1, 20500, Note_on_c, 3, 70, 107
1, 20519, Note_off_c, 3, 70, 64
1, 20544, Note_on_c, 9, 42, 110
1, 20544, Note_on_c, 9, 36, 90
1, 20544, Note_on_c, 1, 39, 127
1, 20544, Note_on_c, 5, 63, 98
1, 20544, Note_on_c, 4, 58, 101
1, 20544, Note_on_c, 4, 51, 101
1, 20545, Note_off_c, 9, 36, 64
1, 20545, Note_off_c, 9, 42, 64
1, 20549, Note_on_c, 3, 68, 108
1, 20572, Note_off_c, 3, 68, 64
1, 20584, Note_off_c, 5, 63, 64
1, 20584, Note_off_c, 4, 51, 64
1, 20584, Note_off_c, 4, 58, 64
1, 20586, Note_off_c, 1, 39, 64
1, 20592, Note_on_c, 9, 42, 50
1, 20593, Note_off_c, 9, 42, 64
1, 20598, Note_on_c, 3, 70, 108
1, 20618, Note_off_c, 3, 70, 64
1, 20640, Note_on_c, 9, 42, 110
1, 20640, Note_on_c, 9, 38, 115
1, 20641, Note_off_c, 9, 38, 64
1, 20641, Note_off_c, 9, 42, 64
1, 20641, Note_on_c, 9, 39, 127
1, 20642, Note_off_c, 9, 39, 64
1, 20645, Note_on_c, 3, 68, 107
1, 20647, Note_on_c, 10, 39, 127
1, 20648, Note_off_c, 10, 39, 64
1, 20682, Note_off_c, 3, 68, 64
1, 20688, Note_on_c, 9, 42, 50
1, 20688, Note_on_c, 1, 37, 127
1, 20688, Note_on_c, 5, 61, 92
1, 20688, Note_on_c, 4, 56, 102
1, 20688, Note_on_c, 4, 49, 101
1, 20689, Note_off_c, 9, 42, 64
1, 20692, Note_on_c, 3, 66, 104
1, 20716, Note_off_c, 3, 66, 64
1, 20723, Note_off_c, 1, 37, 64
1, 20728, Note_off_c, 5, 61, 64
1, 20728, Note_off_c, 4, 56, 64
1, 20728, Note_off_c, 4, 49, 64
1, 20732, Note_off_c, 0, 63, 64
1, 20732, Note_off_c, 0, 58, 64
1, 20732, Note_off_c, 0, 66, 64
1, 20736, Note_on_c, 9, 42, 110
1, 20736, Note_on_c, 9, 36, 90
1, 20736, Note_on_c, 1, 37, 127
1, 20736, Note_on_c, 0, 56, 79
1, 20736, Note_on_c, 0, 61, 78
1, 20736, Note_on_c, 0, 65, 76
1, 20736, Note_on_c, 5, 61, 84
1, 20736, Note_on_c, 4, 49, 97
1, 20736, Note_on_c, 4, 56, 99
1, 20737, Note_off_c, 9, 36, 64
1, 20737, Note_off_c, 9, 42, 64
1, 20738, Note_on_c, 3, 68, 107
1, 20761, Control_c, 11, 11, 127
1, 20770, Note_off_c, 3, 68, 64
1, 20776, Note_off_c, 5, 61, 64
1, 20776, Note_off_c, 1, 37, 64
1, 20776, Note_off_c, 4, 56, 64
1, 20776, Note_off_c, 4, 49, 64
1, 20784, Note_on_c, 9, 42, 50
1, 20785, Note_off_c, 9, 42, 64
1, 20788, Note_on_c, 3, 66, 108
1, 20806, Note_off_c, 3, 66, 64
1, 20832, Note_on_c, 9, 42, 110
1, 20832, Note_on_c, 9, 38, 115
1, 20832, Note_on_c, 9, 36, 90
1, 20832, Note_on_c, 1, 37, 127
1, 20832, Note_on_c, 5, 61, 98
1, 20832, Note_on_c, 4, 56, 100
1, 20832, Note_on_c, 4, 49, 99
1, 20833, Note_off_c, 9, 36, 64
1, 20833, Note_off_c, 9, 38, 64
1, 20833, Note_off_c, 9, 42, 64
1, 20838, Note_on_c, 3, 68, 108
1, 20847, Pitch_bend_c, 3, 11392
1, 20852, Pitch_bend_c, 3, 14592
1, 20864, Pitch_bend_c, 3, 16383
1, 20872, Note_off_c, 4, 49, 64
1, 20872, Note_off_c, 4, 56, 64
1, 20872, Note_off_c, 5, 61, 64
1, 20874, Note_off_c, 1, 37, 64
1, 20880, Note_on_c, 9, 42, 50
1, 20881, Note_off_c, 9, 42, 64
1, 20916, Note_off_c, 3, 68, 64
1, 20927, Pitch_bend_c, 3, 16057
1, 20928, Note_on_c, 9, 42, 110
1, 20929, Note_off_c, 9, 42, 64
1, 20938, Pitch_bend_c, 3, 8192
1, 20976, Note_on_c, 9, 42, 50
1, 20976, Note_on_c, 9, 36, 90
1, 20977, Note_off_c, 9, 36, 64
1, 20977, Note_off_c, 9, 42, 64
1, 21024, Note_on_c, 9, 42, 110
1, 21024, Note_on_c, 9, 38, 115
1, 21025, Note_off_c, 9, 38, 64
1, 21025, Note_off_c, 9, 42, 64
1, 21025, Note_on_c, 9, 39, 127
1, 21026, Note_off_c, 9, 39, 64
1, 21031, Note_on_c, 10, 39, 127
1, 21032, Note_off_c, 10, 39, 64
1, 21072, Note_on_c, 9, 42, 50
1, 21073, Note_off_c, 9, 42, 64
1, 21074, Note_on_c, 3, 70, 108
1, 21093, Note_off_c, 3, 70, 64
1, 21116, Note_off_c, 0, 65, 64
1, 21116, Note_off_c, 0, 61, 64
1, 21116, Note_off_c, 0, 56, 64
1, 21120, Note_on_c, 9, 42, 110
1, 21120, Note_on_c, 9, 36, 90
1, 21120, Note_on_c, 0, 54, 78
1, 21120, Note_on_c, 0, 63, 82
1, 21120, Note_on_c, 0, 59, 77
1, 21121, Note_off_c, 9, 36, 64
1, 21121, Note_off_c, 9, 42, 64
1, 21122, Note_on_c, 3, 66, 108
1, 21135, Pitch_bend_c, 3, 16187
1, 21143, Pitch_bend_c, 3, 16317
1, 21146, Note_off_c, 3, 66, 64
1, 21160, Pitch_bend_c, 3, 8192
1, 21168, Note_on_c, 9, 42, 50
1, 21168, Note_on_c, 1, 35, 127
1, 21168, Note_on_c, 5, 59, 87
1, 21168, Note_on_c, 4, 54, 105
1, 21168, Note_on_c, 4, 47, 96
1, 21169, Note_off_c, 9, 42, 64
1, 21171, Note_on_c, 3, 66, 108
1, 21194, Note_off_c, 3, 66, 64
1, 21203, Note_off_c, 1, 35, 64
1, 21208, Note_off_c, 5, 59, 64
1, 21208, Note_off_c, 4, 54, 64
1, 21208, Note_off_c, 4, 47, 64
1, 21216, Note_on_c, 9, 42, 110
1, 21216, Note_on_c, 9, 38, 115
1, 21216, Note_on_c, 1, 35, 127
1, 21216, Note_on_c, 5, 59, 85
1, 21216, Note_on_c, 4, 47, 92
1, 21216, Note_on_c, 4, 54, 99
1, 21217, Note_off_c, 9, 38, 64
1, 21217, Note_off_c, 9, 42, 64
1, 21218, Note_on_c, 3, 63, 95
1, 21250, Note_off_c, 3, 63, 64
1, 21251, Note_off_c, 1, 35, 64
1, 21256, Note_off_c, 5, 59, 64
1, 21256, Note_off_c, 4, 54, 64
1, 21256, Note_off_c, 4, 47, 64
1, 21264, Note_on_c, 9, 42, 50
1, 21265, Note_off_c, 9, 42, 64
1, 21268, Note_on_c, 3, 61, 108
1, 21285, Note_off_c, 3, 61, 64
1, 21312, Note_on_c, 9, 42, 110
1, 21312, Note_on_c, 9, 36, 90
1, 21312, Note_on_c, 1, 35, 127
1, 21312, Note_on_c, 5, 59, 90
1, 21312, Note_on_c, 4, 54, 104
1, 21312, Note_on_c, 4, 47, 99
1, 21313, Note_off_c, 9, 36, 64
1, 21313, Note_off_c, 9, 42, 64
1, 21317, Note_on_c, 3, 63, 108
1, 21330, Control_c, 3, 1, 33
1, 21340, Control_c, 3, 1, 123
1, 21347, Note_off_c, 1, 35, 64
1, 21350, Control_c, 3, 1, 121
1, 21352, Note_off_c, 5, 59, 64
1, 21352, Note_off_c, 4, 47, 64
1, 21352, Note_off_c, 4, 54, 64
1, 21360, Control_c, 3, 1, 123
1, 21360, Note_on_c, 9, 42, 50
1, 21361, Note_off_c, 9, 42, 64
1, 21378, Control_c, 3, 1, 121
1, 21386, Control_c, 3, 1, 92
1, 21394, Control_c, 3, 1, 0
1, 21397, Note_off_c, 3, 63, 64
1, 21408, Note_on_c, 9, 42, 110
1, 21408, Note_on_c, 9, 38, 115
1, 21409, Note_off_c, 9, 38, 64
1, 21409, Note_off_c, 9, 42, 64
1, 21409, Note_on_c, 9, 39, 127
1, 21410, Note_off_c, 9, 39, 64
1, 21413, Note_on_c, 3, 61, 107
1, 21415, Note_on_c, 10, 39, 127
1, 21416, Note_off_c, 10, 39, 64
1, 21430, Note_off_c, 3, 61, 64
1, 21456, Note_on_c, 9, 42, 50
1, 21456, Note_on_c, 1, 37, 127
1, 21456, Note_on_c, 5, 61, 100
1, 21456, Note_on_c, 4, 49, 102
1, 21456, Note_on_c, 4, 56, 105
1, 21457, Note_off_c, 9, 42, 64
1, 21460, Note_on_c, 3, 63, 108
1, 21476, Note_off_c, 3, 63, 64
1, 21491, Note_off_c, 1, 37, 64
1, 21496, Note_off_c, 5, 61, 64
1, 21496, Note_off_c, 4, 49, 64
1, 21496, Note_off_c, 4, 56, 64
1, 21500, Note_off_c, 0, 54, 64
1, 21500, Note_off_c, 0, 59, 64
1, 21500, Note_off_c, 0, 63, 64
1, 21504, Note_on_c, 9, 42, 110
1, 21504, Note_on_c, 9, 36, 90
1, 21504, Note_on_c, 1, 37, 127
1, 21504, Note_on_c, 0, 61, 82
1, 21504, Note_on_c, 0, 56, 78
1, 21504, Note_on_c, 0, 65, 74
1, 21504, Note_on_c, 5, 61, 86
1, 21504, Note_on_c, 4, 49, 100
1, 21504, Note_on_c, 4, 56, 101
1, 21505, Note_off_c, 9, 36, 64
1, 21505, Note_off_c, 9, 42, 64
1, 21506, Note_on_c, 3, 63, 108
1, 21518, Pitch_bend_c, 3, 16187
1, 21527, Pitch_bend_c, 3, 16317
1, 21529, Note_off_c, 3, 63, 64
1, 21539, Pitch_bend_c, 3, 13782
1, 21544, Note_off_c, 5, 61, 64
1, 21544, Note_off_c, 1, 37, 64
1, 21544, Note_off_c, 4, 56, 64
1, 21544, Note_off_c, 4, 49, 64
1, 21549, Pitch_bend_c, 3, 8192
1, 21552, Note_on_c, 9, 42, 50
1, 21553, Note_off_c, 9, 42, 64
1, 21557, Note_on_c, 3, 63, 108
1, 21575, Note_off_c, 3, 63, 64
1, 21600, Note_on_c, 9, 42, 110
1, 21600, Note_on_c, 9, 38, 115
1, 21600, Note_on_c, 9, 36, 90
1, 21600, Note_on_c, 1, 37, 127
1, 21600, Note_on_c, 5, 61, 103
1, 21600, Note_on_c, 4, 56, 105
1, 21600, Note_on_c, 4, 49, 105
1, 21601, Note_off_c, 9, 36, 64
1, 21601, Note_off_c, 9, 38, 64
1, 21601, Note_off_c, 9, 42, 64
1, 21604, Note_on_c, 3, 61, 108
1, 21635, Note_off_c, 1, 37, 64
1, 21640, Note_off_c, 4, 49, 64
1, 21640, Note_off_c, 4, 56, 64
1, 21640, Note_off_c, 5, 61, 64
1, 21643, Note_off_c, 3, 61, 64
1, 21648, Note_on_c, 9, 42, 50
1, 21649, Note_off_c, 9, 42, 64
1, 21652, Note_on_c, 3, 58, 97
1, 21666, Note_off_c, 3, 58, 64
1, 21696, Note_on_c, 9, 42, 110
1, 21697, Note_off_c, 9, 42, 64
1, 21699, Note_on_c, 3, 61, 108
1, 21716, Control_c, 3, 1, 122
1, 21726, Control_c, 3, 1, 121
1, 21744, Note_on_c, 9, 42, 50
1, 21744, Note_on_c, 9, 36, 90
1, 21745, Note_off_c, 9, 36, 64
1, 21745, Note_off_c, 9, 42, 64
1, 21747, Control_c, 3, 1, 122
1, 21768, Control_c, 3, 1, 112
1, 21768, Pitch_bend_c, 14, 7558
1, 21773, Pitch_bend_c, 14, 5920
1, 21776, Pitch_bend_c, 15, 7810
1, 21777, Note_off_c, 3, 61, 64
1, 21777, Control_c, 3, 1, 0
1, 21778, Pitch_bend_c, 14, 4534
1, 21781, Pitch_bend_c, 15, 6676
1, 21785, Pitch_bend_c, 14, 5416
1, 21786, Pitch_bend_c, 15, 5038
1, 21788, Note_on_c, 14, 63, 110
1, 21789, Pitch_bend_c, 14, 7432
1, 21791, Pitch_bend_c, 15, 3652
1, 21792, Note_on_c, 15, 63, 101
1, 21792, Note_on_c, 9, 42, 110
1, 21792, Note_on_c, 9, 38, 115
1, 21793, Note_off_c, 9, 38, 64
1, 21793, Note_off_c, 9, 42, 64
1, 21793, Note_on_c, 9, 39, 127
1, 21794, Note_off_c, 9, 39, 64
1, 21794, Pitch_bend_c, 14, 8192
1, 21795, Note_on_c, 3, 63, 107
1, 21797, Pitch_bend_c, 15, 3904
1, 21799, Note_on_c, 10, 39, 127
1, 21800, Note_off_c, 10, 39, 64
1, 21802, Pitch_bend_c, 15, 5164
1, 21807, Pitch_bend_c, 15, 8192
1, 21815, Note_off_c, 3, 63, 64
1, 21824, Note_off_c, 14, 63, 64
1, 21830, Note_off_c, 15, 63, 64
1, 21840, Note_on_c, 9, 42, 50
1, 21841, Note_off_c, 9, 42, 64
1, 21867, Pitch_bend_c, 14, 7810
1, 21872, Pitch_bend_c, 14, 5794
1, 21877, Pitch_bend_c, 14, 3652
1, 21882, Pitch_bend_c, 14, 4408
1, 21884, Note_off_c, 0, 65, 64
1, 21884, Note_off_c, 0, 56, 64
1, 21884, Note_off_c, 0, 61, 64
1, 21887, Note_on_c, 14, 66, 111
1, 21888, Pitch_bend_c, 14, 8192
1, 21888, Note_on_c, 9, 42, 110
1, 21888, Note_on_c, 9, 36, 90
1, 21888, Note_on_c, 0, 63, 81
1, 21888, Note_on_c, 0, 66, 81
1, 21888, Note_on_c, 0, 58, 78
1, 21889, Note_off_c, 9, 36, 64
1, 21889, Note_off_c, 9, 42, 64
1, 21889, Note_on_c, 15, 66, 102
1, 21893, Note_on_c, 3, 66, 108
1, 21928, Note_off_c, 3, 66, 64
1, 21931, Note_off_c, 14, 66, 64
1, 21935, Note_off_c, 15, 66, 64
1, 21936, Note_on_c, 14, 63, 111
1, 21936, Note_on_c, 9, 42, 50
1, 21936, Note_on_c, 1, 39, 127
1, 21936, Note_on_c, 5, 63, 102
1, 21936, Note_on_c, 4, 58, 105
1, 21936, Note_on_c, 4, 51, 103
1, 21937, Note_off_c, 9, 42, 64
1, 21938, Note_on_c, 15, 63, 101
1, 21941, Note_on_c, 3, 63, 107
1, 21952, Note_off_c, 15, 63, 64
1, 21953, Note_off_c, 14, 63, 64
1, 21954, Note_off_c, 3, 63, 64
1, 21971, Note_off_c, 1, 39, 64
1, 21976, Note_off_c, 5, 63, 64
1, 21976, Note_off_c, 4, 58, 64
1, 21976, Note_off_c, 4, 51, 64
1, 21984, Note_on_c, 9, 42, 110
1, 21984, Note_on_c, 9, 38, 115
1, 21984, Note_on_c, 1, 39, 127
1, 21984, Note_on_c, 5, 63, 95
1, 21984, Note_on_c, 4, 58, 101
1, 21984, Note_on_c, 4, 51, 101
1, 21985, Note_off_c, 9, 38, 64
1, 21985, Note_off_c, 9, 42, 64
1, 22024, Note_off_c, 5, 63, 64
1, 22024, Note_off_c, 1, 39, 64
1, 22024, Note_off_c, 4, 51, 64
1, 22024, Note_off_c, 4, 58, 64
1, 22032, Note_on_c, 9, 42, 50
1, 22033, Note_off_c, 9, 42, 64
1, 22080, Note_on_c, 9, 42, 110
1, 22080, Note_on_c, 9, 36, 90
1, 22080, Note_on_c, 1, 39, 127
1, 22080, Note_on_c, 5, 63, 102
1, 22080, Note_on_c, 4, 58, 104
1, 22080, Note_on_c, 4, 51, 104
1, 22081, Note_off_c, 9, 36, 64
1, 22081, Note_off_c, 9, 42, 64
1, 22120, Note_off_c, 5, 63, 64
1, 22120, Note_off_c, 4, 51, 64
1, 22120, Note_off_c, 4, 58, 64
1, 22122, Note_off_c, 1, 39, 64
1, 22128, Note_on_c, 9, 42, 50
1, 22129, Note_off_c, 9, 42, 64
1, 22175, Note_on_c, 14, 63, 111
1, 22176, Note_on_c, 9, 42, 110
1, 22176, Note_on_c, 9, 38, 115
1, 22177, Note_off_c, 9, 38, 64
1, 22177, Note_off_c, 9, 42, 64
1, 22177, Note_on_c, 15, 63, 102
1, 22177, Note_on_c, 9, 39, 127
1, 22178, Note_off_c, 9, 39, 64
1, 22178, Note_on_c, 3, 63, 108
1, 22183, Note_on_c, 10, 39, 127
1, 22184, Note_off_c, 10, 39, 64
1, 22191, Note_off_c, 15, 63, 64
1, 22195, Note_off_c, 3, 63, 64
1, 22197, Note_off_c, 14, 63, 64
1, 22224, Note_on_c, 9, 42, 50
1, 22224, Note_on_c, 1, 37, 127
1, 22224, Note_on_c, 5, 61, 100
1, 22224, Note_on_c, 4, 56, 105
1, 22224, Note_on_c, 4, 49, 100
1, 22225, Note_off_c, 9, 42, 64
1, 22241, Pitch_bend_c, 14, 7810
1, 22246, Pitch_bend_c, 14, 6550
1, 22251, Pitch_bend_c, 14, 5416
1, 22252, Pitch_bend_c, 15, 7684
1, 22257, Pitch_bend_c, 14, 4534
1, 22257, Pitch_bend_c, 15, 6550
1, 22259, Note_off_c, 1, 37, 64
1, 22262, Pitch_bend_c, 14, 3652
1, 22262, Pitch_bend_c, 15, 4408
1, 22264, Note_off_c, 5, 61, 64
1, 22264, Note_off_c, 4, 56, 64
1, 22264, Note_off_c, 4, 49, 64
1, 22266, Pitch_bend_c, 15, 3904
1, 22268, Note_off_c, 0, 63, 64
1, 22268, Note_off_c, 0, 58, 64
1, 22268, Note_off_c, 0, 66, 64
1, 22270, Note_on_c, 14, 65, 109
1, 22271, Pitch_bend_c, 15, 3526
1, 22272, Note_on_c, 9, 42, 110
1, 22272, Note_on_c, 9, 36, 90
1, 22272, Note_on_c, 1, 37, 127
1, 22272, Note_on_c, 0, 61, 80
1, 22272, Note_on_c, 0, 65, 73
1, 22272, Note_on_c, 0, 56, 76
1, 22272, Note_on_c, 5, 61, 82
1, 22272, Note_on_c, 4, 56, 97
1, 22272, Note_on_c, 4, 49, 98
1, 22273, Note_off_c, 9, 36, 64
1, 22273, Note_off_c, 9, 42, 64
1, 22273, Pitch_bend_c, 14, 7054
1, 22273, Note_on_c, 15, 65, 100
1, 22274, Note_on_c, 3, 65, 107
1, 22279, Pitch_bend_c, 15, 4912
1, 22280, Pitch_bend_c, 14, 8192
1, 22284, Pitch_bend_c, 15, 7306
1, 22289, Pitch_bend_c, 15, 8192
1, 22312, Note_off_c, 5, 61, 64
1, 22312, Note_off_c, 1, 37, 64
1, 22312, Note_off_c, 4, 49, 64
1, 22312, Note_off_c, 4, 56, 64
1, 22312, Note_off_c, 14, 65, 64
1, 22317, Note_off_c, 3, 65, 64
1, 22319, Note_off_c, 15, 65, 64
1, 22320, Note_on_c, 9, 42, 50
1, 22321, Note_off_c, 9, 42, 64
1, 22321, Note_on_c, 14, 61, 110
1, 22323, Note_on_c, 15, 61, 101
1, 22325, Note_on_c, 3, 61, 108
1, 22339, Note_off_c, 15, 61, 64
1, 22339, Note_off_c, 14, 61, 64
1, 22341, Note_off_c, 3, 61, 64
1, 22368, Note_on_c, 9, 42, 110
1, 22368, Note_on_c, 9, 38, 115
1, 22368, Note_on_c, 9, 36, 90
1, 22368, Note_on_c, 1, 37, 127
1, 22368, Note_on_c, 5, 61, 100
1, 22368, Note_on_c, 4, 56, 101
1, 22368, Note_on_c, 4, 49, 100
1, 22369, Note_off_c, 9, 36, 64
1, 22369, Note_off_c, 9, 38, 64
1, 22369, Note_off_c, 9, 42, 64
1, 22408, Note_off_c, 4, 49, 64
1, 22408, Note_off_c, 4, 56, 64
1, 22408, Note_off_c, 5, 61, 64
1, 22410, Note_off_c, 1, 37, 64
1, 22416, Note_on_c, 9, 42, 50
1, 22417, Note_off_c, 9, 42, 64
1, 22464, Note_on_c, 9, 42, 110
1, 22465, Note_off_c, 9, 42, 64
1, 22512, Note_on_c, 9, 42, 50
1, 22512, Note_on_c, 9, 36, 90
1, 22513, Note_off_c, 9, 36, 64
1, 22513, Note_off_c, 9, 42, 64
1, 22560, Note_on_c, 9, 42, 110
1, 22560, Note_on_c, 9, 38, 115
1, 22561, Note_off_c, 9, 38, 64
1, 22561, Note_off_c, 9, 42, 64
1, 22561, Note_on_c, 9, 39, 127
1, 22562, Note_off_c, 9, 39, 64
1, 22567, Note_on_c, 10, 39, 127
1, 22568, Note_off_c, 10, 39, 64
1, 22608, Note_on_c, 9, 42, 50
1, 22609, Note_off_c, 9, 42, 64
1, 22652, Note_off_c, 0, 56, 64
1, 22652, Note_off_c, 0, 65, 64
1, 22652, Note_off_c, 0, 61, 64
1, 22656, Note_on_c, 9, 49, 80
1, 22656, Note_on_c, 9, 36, 90
1, 22656, Note_on_c, 0, 63, 78
1, 22656, Note_on_c, 0, 66, 79
1, 22656, Note_on_c, 0, 58, 74
1, 22656, Note_on_c, 4, 39, 98
1, 22656, Note_on_c, 8, 49, 110
1, 22656, Note_on_c, 11, 58, 90
1, 22657, Note_off_c, 4, 39, 64
1, 22657, Note_off_c, 9, 36, 64
1, 22657, Note_off_c, 9, 49, 64
1, 22658, Note_off_c, 8, 49, 64
1, 22704, Note_on_c, 9, 42, 50
1, 22704, Note_on_c, 1, 39, 127
1, 22704, Note_on_c, 5, 63, 92
1, 22704, Note_on_c, 4, 51, 98
1, 22704, Note_on_c, 4, 58, 102
1, 22704, Note_on_c, 8, 51, 99
1, 22705, Note_off_c, 9, 42, 64
1, 22710, Note_on_c, 3, 70, 107
1, 22714, Note_off_c, 8, 51, 64
1, 22730, Note_off_c, 3, 70, 64
1, 22739, Note_off_c, 1, 39, 64
1, 22744, Note_off_c, 5, 63, 64
1, 22744, Note_off_c, 4, 51, 64
1, 22744, Note_off_c, 4, 58, 64
1, 22752, Note_on_c, 9, 42, 110
1, 22752, Note_on_c, 9, 38, 115
1, 22752, Note_on_c, 1, 39, 127
1, 22752, Note_on_c, 5, 63, 78
1, 22752, Note_on_c, 4, 58, 93
1, 22752, Note_on_c, 4, 51, 89
1, 22752, Note_on_c, 8, 49, 87
1, 22753, Note_off_c, 9, 38, 64
1, 22753, Note_off_c, 9, 42, 64
1, 22758, Note_on_c, 3, 68, 107
1, 22762, Note_off_c, 8, 49, 64
1, 22766, Pitch_bend_c, 3, 16317
1, 22785, Note_off_c, 3, 68, 64
1, 22787, Note_off_c, 1, 39, 64
1, 22792, Note_off_c, 5, 63, 64
1, 22792, Note_off_c, 4, 58, 64
1, 22792, Note_off_c, 4, 51, 64
1, 22793, Pitch_bend_c, 3, 11962
1, 22798, Pitch_bend_c, 3, 8192
1, 22800, Note_on_c, 9, 42, 50
1, 22800, Note_on_c, 8, 51, 90
1, 22801, Note_off_c, 9, 42, 64
1, 22805, Note_on_c, 3, 70, 104
1, 22810, Note_off_c, 8, 51, 64
1, 22822, Note_off_c, 3, 70, 64
1, 22848, Note_on_c, 9, 42, 110
1, 22848, Note_on_c, 9, 36, 90
1, 22848, Note_on_c, 1, 39, 127
1, 22848, Note_on_c, 5, 63, 97
1, 22848, Note_on_c, 4, 58, 100
1, 22848, Note_on_c, 4, 51, 101
1, 22848, Note_on_c, 8, 54, 95
1, 22849, Note_off_c, 9, 36, 64
1, 22849, Note_off_c, 9, 42, 64
1, 22853, Note_on_c, 3, 70, 94
1, 22858, Note_off_c, 8, 54, 64
1, 22871, Note_off_c, 3, 70, 64
1, 22883, Note_off_c, 1, 39, 64
1, 22888, Note_off_c, 5, 63, 64
1, 22888, Note_off_c, 4, 58, 64
1, 22888, Note_off_c, 4, 51, 64
1, 22896, Note_on_c, 9, 42, 50
1, 22896, Note_on_c, 8, 51, 89
1, 22897, Note_off_c, 9, 42, 64
1, 22901, Note_on_c, 3, 70, 105
1, 22906, Note_off_c, 8, 51, 64
1, 22924, Note_off_c, 3, 70, 64
1, 22944, Note_on_c, 9, 42, 110
1, 22944, Note_on_c, 9, 38, 115
1, 22944, Note_on_c, 8, 49, 80
1, 22945, Note_off_c, 9, 38, 64
1, 22945, Note_off_c, 9, 42, 64
1, 22945, Note_on_c, 9, 39, 127
1, 22946, Note_off_c, 9, 39, 64
1, 22948, Note_on_c, 3, 68, 91
1, 22951, Note_on_c, 10, 39, 127
1, 22952, Note_off_c, 10, 39, 64
1, 22954, Note_off_c, 8, 49, 64
1, 22972, Note_off_c, 3, 68, 64
1, 22992, Note_on_c, 9, 42, 50
1, 22992, Note_on_c, 1, 37, 127
1, 22992, Note_on_c, 5, 61, 82
1, 22992, Note_on_c, 4, 56, 101
1, 22992, Note_on_c, 4, 49, 98
1, 22992, Note_on_c, 8, 51, 99
1, 22993, Note_off_c, 9, 42, 64
1, 22996, Note_on_c, 3, 70, 105
1, 23002, Note_off_c, 8, 51, 64
1, 23013, Note_off_c, 3, 70, 64
1, 23027, Note_off_c, 1, 37, 64
1, 23032, Note_off_c, 5, 61, 64
1, 23032, Note_off_c, 4, 56, 64
1, 23032, Note_off_c, 4, 49, 64
1, 23036, Note_off_c, 0, 66, 64
1, 23036, Note_off_c, 0, 63, 64
1, 23036, Note_off_c, 0, 58, 64
1, 23040, Note_on_c, 9, 42, 110
1, 23040, Note_on_c, 9, 36, 90
1, 23040, Note_on_c, 1, 37, 127
1, 23040, Note_on_c, 0, 61, 78
1, 23040, Note_on_c, 0, 56, 78
1, 23040, Note_on_c, 0, 65, 74
1, 23040, Note_on_c, 5, 61, 82
1, 23040, Note_on_c, 4, 56, 97
1, 23040, Note_on_c, 4, 49, 98
1, 23040, Note_on_c, 8, 53, 87
1, 23041, Note_off_c, 9, 36, 64
1, 23041, Note_off_c, 9, 42, 64
1, 23042, Note_on_c, 3, 71, 100
1, 23050, Note_off_c, 8, 53, 64
1, 23050, Pitch_bend_c, 3, 16317
1, 23070, Note_off_c, 3, 71, 64
1, 23078, Note_off_c, 1, 37, 64
1, 23078, Pitch_bend_c, 3, 8192
1, 23080, Note_off_c, 5, 61, 64
1, 23080, Note_off_c, 4, 56, 64
1, 23080, Note_off_c, 4, 49, 64
1, 23088, Note_on_c, 9, 42, 50
1, 23088, Note_on_c, 8, 51, 74
1, 23089, Note_off_c, 9, 42, 64
1, 23091, Note_on_c, 3, 70, 107
1, 23098, Note_off_c, 8, 51, 64
1, 23109, Note_off_c, 3, 70, 64
1, 23136, Note_on_c, 9, 42, 110
1, 23136, Note_on_c, 9, 38, 115
1, 23136, Note_on_c, 9, 36, 90
1, 23136, Note_on_c, 1, 37, 127
1, 23136, Note_on_c, 5, 61, 100
1, 23136, Note_on_c, 4, 56, 101
1, 23136, Note_on_c, 4, 49, 100
1, 23136, Note_on_c, 8, 49, 82
1, 23137, Note_off_c, 9, 36, 64
1, 23137, Note_off_c, 9, 38, 64
1, 23137, Note_off_c, 9, 42, 64
1, 23142, Note_on_c, 3, 68, 107
1, 23146, Note_off_c, 8, 49, 64
1, 23164, Note_off_c, 3, 68, 64
1, 23171, Note_off_c, 1, 37, 64
1, 23176, Note_off_c, 5, 61, 64
1, 23176, Note_off_c, 4, 49, 64
1, 23176, Note_off_c, 4, 56, 64
1, 23184, Note_on_c, 9, 42, 50
1, 23184, Note_on_c, 8, 51, 99
1, 23185, Note_off_c, 9, 42, 64
1, 23194, Note_off_c, 8, 51, 64
1, 23232, Note_on_c, 9, 42, 110
1, 23232, Note_on_c, 8, 53, 92
1, 23233, Note_off_c, 9, 42, 64
1, 23234, Note_on_c, 3, 70, 108
1, 23240, Control_c, 3, 1, 13
1, 23242, Note_off_c, 8, 53, 64
1, 23251, Control_c, 3, 1, 122
1, 23261, Control_c, 3, 1, 121
1, 23280, Note_on_c, 9, 42, 50
1, 23280, Note_on_c, 9, 36, 90
1, 23280, Note_on_c, 8, 51, 92
1, 23281, Note_off_c, 9, 36, 64
1, 23281, Note_off_c, 9, 42, 64
1, 23290, Note_off_c, 8, 51, 64
1, 23292, Control_c, 3, 1, 116
1, 23302, Control_c, 3, 1, 20
1, 23303, Note_off_c, 3, 70, 64
1, 23313, Control_c, 3, 1, 0
1, 23322, Note_off_c, 11, 58, 64
1, 23327, Note_on_c, 11, 56, 90
1, 23328, Note_on_c, 9, 42, 110
1, 23328, Note_on_c, 9, 38, 115
1, 23328, Note_on_c, 8, 49, 85
1, 23329, Note_off_c, 9, 38, 64
1, 23329, Note_off_c, 9, 42, 64
1, 23329, Note_on_c, 9, 39, 127
1, 23330, Note_off_c, 9, 39, 64
1, 23335, Note_on_c, 10, 39, 127
1, 23336, Note_off_c, 10, 39, 64
1, 23338, Note_off_c, 8, 49, 64
1, 23376, Note_on_c, 9, 42, 50
1, 23376, Note_on_c, 8, 51, 101
1, 23377, Note_off_c, 9, 42, 64
1, 23378, Note_on_c, 3, 70, 105
1, 23386, Note_off_c, 8, 51, 64
1, 23393, Note_off_c, 3, 70, 64
1, 23420, Note_off_c, 0, 56, 64
1, 23420, Note_off_c, 0, 61, 64
1, 23420, Note_off_c, 0, 65, 64
1, 23421, Note_off_c, 11, 56, 64
1, 23423, Note_on_c, 11, 58, 90
1, 23424, Note_on_c, 9, 42, 110
1, 23424, Note_on_c, 9, 36, 90
1, 23424, Note_on_c, 0, 63, 76
1, 23424, Note_on_c, 0, 66, 76
1, 23424, Note_on_c, 0, 58, 73
1, 23424, Note_on_c, 8, 49, 83
1, 23425, Note_off_c, 9, 36, 64
1, 23425, Note_off_c, 9, 42, 64
1, 23426, Note_off_c, 8, 49, 64
1, 23426, Note_on_c, 3, 68, 107
1, 23433, Pitch_bend_c, 3, 16187
1, 23443, Pitch_bend_c, 3, 16317
1, 23455, Note_off_c, 3, 68, 64
1, 23464, Pitch_bend_c, 3, 14107
1, 23472, Note_on_c, 9, 42, 50
1, 23472, Note_on_c, 1, 39, 127
1, 23472, Note_on_c, 5, 63, 98
1, 23472, Note_on_c, 4, 58, 102
1, 23472, Note_on_c, 4, 51, 101
1, 23472, Note_on_c, 8, 51, 89
1, 23473, Note_off_c, 9, 42, 64
1, 23474, Note_on_c, 3, 70, 107
1, 23476, Pitch_bend_c, 3, 8192
1, 23482, Note_off_c, 8, 51, 64
1, 23492, Note_off_c, 3, 70, 64
1, 23507, Note_off_c, 1, 39, 64
1, 23512, Note_off_c, 5, 63, 64
1, 23512, Note_off_c, 4, 58, 64
1, 23512, Note_off_c, 4, 51, 64
1, 23520, Note_on_c, 9, 42, 110
1, 23520, Note_on_c, 9, 38, 115
1, 23520, Note_on_c, 1, 39, 127
1, 23520, Note_on_c, 5, 63, 86
1, 23520, Note_on_c, 4, 51, 98
1, 23520, Note_on_c, 4, 58, 101
1, 23520, Note_on_c, 8, 49, 85
1, 23521, Note_off_c, 9, 38, 64
1, 23521, Note_off_c, 9, 42, 64
1, 23523, Note_on_c, 3, 70, 105
1, 23530, Note_off_c, 8, 49, 64
1, 23538, Note_off_c, 3, 70, 64
1, 23560, Note_off_c, 5, 63, 64
1, 23560, Note_off_c, 1, 39, 64
1, 23560, Note_off_c, 4, 51, 64
1, 23560, Note_off_c, 4, 58, 64
1, 23568, Note_on_c, 9, 42, 50
1, 23568, Note_on_c, 8, 51, 90
1, 23569, Note_off_c, 9, 42, 64
1, 23571, Note_on_c, 3, 70, 95
1, 23578, Note_off_c, 8, 51, 64
1, 23593, Note_off_c, 3, 70, 64
1, 23616, Note_on_c, 9, 42, 110
1, 23616, Note_on_c, 9, 36, 90
1, 23616, Note_on_c, 1, 39, 127
1, 23616, Note_on_c, 5, 63, 98
1, 23616, Note_on_c, 4, 58, 101
1, 23616, Note_on_c, 4, 51, 101
1, 23616, Note_on_c, 8, 54, 105
1, 23617, Note_off_c, 9, 36, 64
1, 23617, Note_off_c, 9, 42, 64
1, 23618, Note_on_c, 3, 68, 107
1, 23626, Note_off_c, 8, 54, 64
1, 23640, Note_off_c, 3, 68, 64
1, 23656, Note_off_c, 5, 63, 64
1, 23656, Note_off_c, 4, 58, 64
1, 23656, Note_off_c, 4, 51, 64
1, 23658, Note_off_c, 1, 39, 64
1, 23664, Note_on_c, 9, 42, 50
1, 23664, Note_on_c, 8, 51, 90
1, 23665, Note_off_c, 9, 42, 64
1, 23666, Note_on_c, 3, 70, 105
1, 23674, Note_off_c, 8, 51, 64
1, 23685, Note_off_c, 3, 70, 64
1, 23712, Note_on_c, 9, 42, 110
1, 23712, Note_on_c, 9, 38, 115
1, 23712, Note_on_c, 8, 49, 70
1, 23713, Note_off_c, 9, 38, 64
1, 23713, Note_off_c, 9, 42, 64
1, 23713, Note_on_c, 9, 39, 127
1, 23714, Note_off_c, 9, 39, 64
1, 23715, Note_on_c, 3, 68, 107
1, 23719, Note_on_c, 10, 39, 127
1, 23720, Note_off_c, 10, 39, 64
1, 23722, Note_off_c, 8, 49, 64
1, 23746, Note_off_c, 3, 68, 64
1, 23760, Note_on_c, 9, 42, 50
1, 23760, Note_on_c, 1, 37, 127
1, 23760, Note_on_c, 5, 61, 92
1, 23760, Note_on_c, 4, 56, 102
1, 23760, Note_on_c, 4, 49, 101
1, 23760, Note_on_c, 8, 51, 97
1, 23761, Note_off_c, 9, 42, 64
1, 23762, Note_on_c, 3, 66, 102
1, 23770, Note_off_c, 8, 51, 64
1, 23780, Note_off_c, 3, 66, 64
1, 23795, Note_off_c, 1, 37, 64
1, 23800, Note_off_c, 5, 61, 64
1, 23800, Note_off_c, 4, 56, 64
1, 23800, Note_off_c, 4, 49, 64
1, 23804, Note_off_c, 0, 63, 64
1, 23804, Note_off_c, 0, 66, 64
1, 23804, Note_off_c, 0, 58, 64
1, 23808, Note_on_c, 9, 42, 110
1, 23808, Note_on_c, 9, 36, 90
1, 23808, Note_on_c, 1, 37, 127
1, 23808, Note_on_c, 0, 56, 79
1, 23808, Note_on_c, 0, 61, 78
1, 23808, Note_on_c, 0, 65, 76
1, 23808, Note_on_c, 5, 61, 84
1, 23808, Note_on_c, 4, 49, 97
1, 23808, Note_on_c, 4, 56, 99
1, 23808, Note_on_c, 8, 53, 86
1, 23809, Note_off_c, 9, 36, 64
1, 23809, Note_off_c, 9, 42, 64
1, 23812, Note_on_c, 3, 68, 108
1, 23818, Note_off_c, 8, 53, 64
1, 23848, Note_off_c, 5, 61, 64
1, 23848, Note_off_c, 1, 37, 64
1, 23848, Note_off_c, 4, 49, 64
1, 23848, Note_off_c, 4, 56, 64
1, 23856, Note_on_c, 9, 42, 50
1, 23856, Note_on_c, 8, 51, 95
1, 23857, Note_off_c, 9, 42, 64
1, 23858, Note_off_c, 3, 68, 64
1, 23859, Note_on_c, 3, 66, 107
1, 23866, Note_off_c, 8, 51, 64
1, 23886, Note_off_c, 3, 66, 64
1, 23904, Note_on_c, 9, 42, 110
1, 23904, Note_on_c, 9, 38, 115
1, 23904, Note_on_c, 9, 36, 90
1, 23904, Note_on_c, 1, 37, 127
1, 23904, Note_on_c, 5, 61, 98
1, 23904, Note_on_c, 4, 56, 100
1, 23904, Note_on_c, 4, 49, 99
1, 23904, Note_on_c, 8, 49, 83
1, 23905, Note_off_c, 9, 36, 64
1, 23905, Note_off_c, 9, 38, 64
1, 23905, Note_off_c, 9, 42, 64
1, 23908, Note_on_c, 3, 68, 108
1, 23914, Note_off_c, 8, 49, 64
1, 23914, Pitch_bend_c, 3, 8832
1, 23933, Pitch_bend_c, 3, 10752
1, 23943, Pitch_bend_c, 3, 13652
1, 23944, Note_off_c, 5, 61, 64
1, 23944, Note_off_c, 4, 49, 64
1, 23944, Note_off_c, 4, 56, 64
1, 23946, Note_off_c, 1, 37, 64
1, 23952, Note_on_c, 9, 42, 50
1, 23952, Note_on_c, 8, 51, 87
1, 23953, Note_off_c, 9, 42, 64
1, 23953, Pitch_bend_c, 3, 16383
1, 23962, Note_off_c, 8, 51, 64
1, 23978, Note_off_c, 11, 58, 64
1, 23990, Note_off_c, 3, 68, 64
1, 24000, Note_on_c, 9, 42, 110
1, 24000, Note_on_c, 8, 53, 78
1, 24000, Note_on_c, 11, 58, 90
1, 24001, Note_off_c, 9, 42, 64
1, 24005, Pitch_bend_c, 3, 11702
1, 24010, Note_off_c, 8, 53, 64
1, 24015, Pitch_bend_c, 3, 8192
1, 24026, Note_off_c, 11, 58, 64
1, 24032, Note_on_c, 11, 56, 90
1, 24048, Note_on_c, 9, 42, 50
1, 24048, Note_on_c, 9, 36, 90
1, 24048, Note_on_c, 8, 51, 95
1, 24049, Note_off_c, 9, 36, 64
1, 24049, Note_off_c, 9, 42, 64
1, 24058, Note_off_c, 8, 51, 64
1, 24058, Note_off_c, 11, 56, 64
1, 24064, Note_on_c, 11, 54, 90
1, 24090, Note_off_c, 11, 54, 64
1, 24096, Note_on_c, 9, 42, 110
1, 24096, Note_on_c, 9, 38, 115
1, 24096, Note_on_c, 8, 49, 78
1, 24096, Note_on_c, 11, 51, 90
1, 24097, Note_off_c, 9, 38, 64
1, 24097, Note_off_c, 9, 42, 64
1, 24097, Note_on_c, 9, 39, 127
1, 24098, Note_off_c, 9, 39, 64
1, 24103, Note_on_c, 10, 39, 127
1, 24104, Note_off_c, 10, 39, 64
1, 24106, Note_off_c, 8, 49, 64
1, 24144, Note_on_c, 9, 42, 50
1, 24144, Note_on_c, 8, 51, 78
1, 24145, Note_off_c, 9, 42, 64
1, 24145, Note_on_c, 3, 70, 108
1, 24154, Note_off_c, 8, 51, 64
1, 24165, Note_off_c, 3, 70, 64
1, 24188, Note_off_c, 0, 61, 64
1, 24188, Note_off_c, 0, 56, 64
1, 24188, Note_off_c, 0, 65, 64
1, 24192, Note_on_c, 3, 66, 108
1, 24192, Note_on_c, 9, 42, 110
1, 24192, Note_on_c, 9, 36, 90
1, 24192, Note_on_c, 0, 54, 78
1, 24192, Note_on_c, 0, 63, 82
1, 24192, Note_on_c, 0, 59, 77
1, 24192, Note_on_c, 8, 49, 65
1, 24193, Note_off_c, 8, 49, 64
1, 24193, Note_off_c, 9, 36, 64
1, 24193, Note_off_c, 9, 42, 64
1, 24193, Pitch_bend_c, 3, 16057
1, 24202, Pitch_bend_c, 3, 16317
1, 24219, Note_off_c, 3, 66, 64
1, 24234, Pitch_bend_c, 3, 13652
1, 24240, Note_on_c, 9, 42, 50
1, 24240, Note_on_c, 1, 35, 127
1, 24240, Note_on_c, 5, 59, 87
1, 24240, Note_on_c, 4, 54, 105
1, 24240, Note_on_c, 4, 47, 96
1, 24240, Note_on_c, 8, 51, 105
1, 24241, Note_off_c, 9, 42, 64
1, 24242, Note_on_c, 3, 66, 107
1, 24244, Pitch_bend_c, 3, 8192
1, 24252, Note_off_c, 8, 51, 64
1, 24263, Note_off_c, 3, 66, 64
1, 24275, Note_off_c, 1, 35, 64
1, 24280, Note_off_c, 5, 59, 64
1, 24280, Note_off_c, 4, 54, 64
1, 24280, Note_off_c, 4, 47, 64
1, 24288, Note_on_c, 9, 42, 110
1, 24288, Note_on_c, 9, 38, 115
1, 24288, Note_on_c, 1, 35, 127
1, 24288, Note_on_c, 5, 59, 85
1, 24288, Note_on_c, 4, 47, 92
1, 24288, Note_on_c, 4, 54, 99
1, 24288, Note_on_c, 8, 51, 92
1, 24289, Note_off_c, 9, 38, 64
1, 24289, Note_off_c, 9, 42, 64
1, 24290, Note_on_c, 3, 63, 104
1, 24300, Note_off_c, 8, 51, 64
1, 24323, Note_off_c, 1, 35, 64
1, 24328, Note_off_c, 5, 59, 64
1, 24328, Note_off_c, 4, 47, 64
1, 24328, Note_off_c, 4, 54, 64
1, 24329, Note_off_c, 3, 63, 64
1, 24336, Note_on_c, 9, 42, 50
1, 24336, Note_on_c, 8, 51, 86
1, 24337, Note_off_c, 9, 42, 64
1, 24338, Note_on_c, 3, 61, 97
1, 24348, Note_off_c, 8, 51, 64
1, 24362, Note_off_c, 3, 61, 64
1, 24384, Note_on_c, 9, 42, 110
1, 24384, Note_on_c, 9, 36, 90
1, 24384, Note_on_c, 1, 35, 127
1, 24384, Note_on_c, 5, 59, 90
1, 24384, Note_on_c, 4, 54, 104
1, 24384, Note_on_c, 4, 47, 99
1, 24384, Note_on_c, 8, 54, 89
1, 24385, Note_off_c, 9, 36, 64
1, 24385, Note_off_c, 9, 42, 64
1, 24386, Note_on_c, 3, 63, 107
1, 24390, Control_c, 3, 1, 17
1, 24396, Note_off_c, 8, 54, 64
1, 24400, Control_c, 3, 1, 122
1, 24419, Note_off_c, 1, 35, 64
1, 24424, Note_off_c, 5, 59, 64
1, 24424, Note_off_c, 4, 54, 64
1, 24424, Note_off_c, 4, 47, 64
1, 24432, Note_on_c, 9, 42, 50
1, 24432, Note_on_c, 8, 51, 95
1, 24433, Note_off_c, 9, 42, 64
1, 24444, Note_off_c, 8, 51, 64
1, 24444, Control_c, 3, 1, 121
1, 24452, Control_c, 3, 1, 100
1, 24460, Control_c, 3, 1, 0
1, 24473, Note_off_c, 3, 63, 64
1, 24480, Note_on_c, 9, 42, 110
1, 24480, Note_on_c, 9, 38, 115
1, 24480, Note_on_c, 8, 49, 99
1, 24481, Note_off_c, 9, 38, 64
1, 24481, Note_off_c, 9, 42, 64
1, 24481, Note_on_c, 9, 39, 127
1, 24482, Note_off_c, 9, 39, 64
1, 24483, Note_on_c, 3, 61, 104
1, 24487, Note_on_c, 10, 39, 127
1, 24488, Note_off_c, 10, 39, 64
1, 24492, Note_off_c, 8, 49, 64
1, 24504, Note_off_c, 3, 61, 64
1, 24528, Note_on_c, 9, 42, 50
1, 24528, Note_on_c, 1, 37, 127
1, 24528, Note_on_c, 5, 61, 100
1, 24528, Note_on_c, 4, 49, 102
1, 24528, Note_on_c, 4, 56, 105
1, 24528, Note_on_c, 8, 51, 103
1, 24529, Note_off_c, 9, 42, 64
1, 24532, Note_on_c, 3, 63, 102
1, 24540, Note_off_c, 8, 51, 64
1, 24547, Note_off_c, 3, 63, 64
1, 24556, Note_off_c, 11, 51, 64
1, 24563, Note_off_c, 1, 37, 64
1, 24568, Note_off_c, 5, 61, 64
1, 24568, Note_off_c, 4, 56, 64
1, 24568, Note_off_c, 4, 49, 64
1, 24572, Note_off_c, 0, 59, 64
1, 24572, Note_off_c, 0, 63, 64
1, 24572, Note_off_c, 0, 54, 64
1, 24576, Note_on_c, 9, 42, 110
1, 24576, Note_on_c, 9, 36, 90
1, 24576, Note_on_c, 1, 37, 127
1, 24576, Note_on_c, 0, 61, 82
1, 24576, Note_on_c, 0, 56, 78
1, 24576, Note_on_c, 0, 65, 74
1, 24576, Note_on_c, 5, 61, 86
1, 24576, Note_on_c, 4, 49, 100
1, 24576, Note_on_c, 4, 56, 101
1, 24576, Note_on_c, 8, 53, 78
1, 24576, Note_on_c, 11, 53, 90
1, 24577, Note_off_c, 9, 36, 64
1, 24577, Note_off_c, 9, 42, 64
1, 24578, Note_on_c, 3, 63, 108
1, 24588, Note_off_c, 8, 53, 64
1, 24593, Pitch_bend_c, 3, 16187
1, 24602, Pitch_bend_c, 3, 16317
1, 24604, Note_off_c, 3, 63, 64
1, 24616, Note_off_c, 4, 49, 64
1, 24616, Note_off_c, 5, 61, 64
1, 24616, Note_off_c, 1, 37, 64
1, 24616, Note_off_c, 4, 56, 64
1, 24624, Pitch_bend_c, 3, 13392
1, 24624, Note_on_c, 9, 42, 50
1, 24624, Note_on_c, 8, 51, 103
1, 24625, Note_off_c, 9, 42, 64
1, 24630, Note_on_c, 3, 63, 107
1, 24636, Note_off_c, 8, 51, 64
1, 24636, Pitch_bend_c, 3, 8192
1, 24650, Note_off_c, 3, 63, 64
1, 24672, Note_on_c, 9, 42, 110
1, 24672, Note_on_c, 9, 38, 115
1, 24672, Note_on_c, 9, 36, 90
1, 24672, Note_on_c, 1, 37, 127
1, 24672, Note_on_c, 5, 61, 103
1, 24672, Note_on_c, 4, 56, 105
1, 24672, Note_on_c, 4, 49, 105
1, 24672, Note_on_c, 8, 49, 82
1, 24673, Note_off_c, 9, 36, 64
1, 24673, Note_off_c, 9, 38, 64
1, 24673, Note_off_c, 9, 42, 64
1, 24678, Note_on_c, 3, 61, 107
1, 24684, Note_off_c, 8, 49, 64
1, 24707, Note_off_c, 1, 37, 64
1, 24712, Note_off_c, 5, 61, 64
1, 24712, Note_off_c, 4, 49, 64
1, 24712, Note_off_c, 4, 56, 64
1, 24714, Note_off_c, 3, 61, 64
1, 24720, Note_on_c, 9, 42, 50
1, 24720, Note_on_c, 8, 51, 93
1, 24721, Note_off_c, 9, 42, 64
1, 24723, Note_on_c, 3, 58, 94
1, 24732, Note_off_c, 8, 51, 64
1, 24743, Note_off_c, 3, 58, 64
1, 24768, Note_on_c, 9, 42, 110
1, 24768, Note_on_c, 8, 53, 74
1, 24769, Note_off_c, 9, 42, 64
1, 24771, Note_on_c, 3, 61, 107
1, 24780, Note_off_c, 8, 53, 64
1, 24782, Control_c, 3, 1, 119
1, 24792, Control_c, 3, 1, 122
1, 24803, Control_c, 3, 1, 121
1, 24813, Control_c, 3, 1, 122
1, 24816, Note_on_c, 9, 42, 50
1, 24816, Note_on_c, 9, 36, 90
1, 24816, Note_on_c, 8, 51, 99
1, 24817, Note_off_c, 9, 36, 64
1, 24817, Note_off_c, 9, 42, 64
1, 24824, Control_c, 3, 1, 118
1, 24828, Note_off_c, 8, 51, 64
1, 24834, Control_c, 3, 1, 62
1, 24844, Control_c, 3, 1, 0
1, 24848, Note_off_c, 3, 61, 64
1, 24864, Note_on_c, 14, 63, 111
1, 24864, Note_on_c, 15, 63, 102
1, 24864, Note_on_c, 9, 42, 110
1, 24864, Note_on_c, 9, 38, 115
1, 24864, Note_on_c, 8, 49, 95
1, 24865, Note_off_c, 9, 38, 64
1, 24865, Note_off_c, 9, 42, 64
1, 24865, Note_on_c, 9, 39, 127
1, 24866, Note_off_c, 9, 39, 64
1, 24866, Note_on_c, 3, 63, 107
1, 24871, Note_on_c, 10, 39, 127
1, 24872, Note_off_c, 10, 39, 64
1, 24876, Note_off_c, 8, 49, 64
1, 24887, Note_off_c, 14, 63, 64
1, 24894, Note_off_c, 15, 63, 64
1, 24896, Note_off_c, 3, 63, 64
1, 24912, Note_on_c, 9, 42, 50
1, 24912, Note_on_c, 8, 51, 105
1, 24913, Note_off_c, 9, 42, 64
1, 24924, Note_off_c, 8, 51, 64
1, 24933, Pitch_bend_c, 14, 7684
1, 24938, Pitch_bend_c, 14, 6046
1, 24941, Pitch_bend_c, 15, 7684
1, 24943, Pitch_bend_c, 14, 5290
1, 24945, Pitch_bend_c, 15, 6424
1, 24948, Pitch_bend_c, 14, 4912
1, 24951, Pitch_bend_c, 15, 3274
1, 24953, Pitch_bend_c, 14, 4408
1, 24956, Note_off_c, 0, 61, 64
1, 24956, Note_off_c, 0, 65, 64
1, 24956, Note_off_c, 0, 56, 64
1, 24956, Pitch_bend_c, 15, 2014
1, 24958, Note_off_c, 11, 53, 64
1, 24959, Note_on_c, 14, 66, 111
1, 24960, Note_on_c, 9, 42, 110
1, 24960, Note_on_c, 9, 36, 90
1, 24960, Note_on_c, 0, 63, 81
1, 24960, Note_on_c, 0, 66, 81
1, 24960, Note_on_c, 0, 58, 78
1, 24960, Note_on_c, 8, 49, 77
1, 24960, Note_on_c, 11, 51, 80
1, 24961, Note_off_c, 8, 49, 64
1, 24961, Note_off_c, 9, 36, 64
1, 24961, Note_off_c, 9, 42, 64
1, 24961, Pitch_bend_c, 15, 1636
1, 24961, Note_on_c, 15, 66, 102
1, 24962, Note_on_c, 3, 66, 108
1, 24963, Pitch_bend_c, 14, 5164
1, 24969, Pitch_bend_c, 14, 7180
1, 24969, Pitch_bend_c, 15, 4156
1, 24974, Pitch_bend_c, 14, 8192
1, 24974, Pitch_bend_c, 15, 8192
1, 25002, Note_off_c, 3, 66, 64
1, 25004, Note_off_c, 14, 66, 64
1, 25007, Note_off_c, 15, 66, 64
1, 25008, Note_on_c, 9, 42, 50
1, 25008, Note_on_c, 1, 39, 127
1, 25008, Note_on_c, 5, 63, 102
1, 25008, Note_on_c, 4, 58, 105
1, 25008, Note_on_c, 4, 51, 103
1, 25008, Note_on_c, 8, 51, 99
1, 25009, Note_off_c, 9, 42, 64
1, 25009, Note_on_c, 14, 63, 111
1, 25010, Note_on_c, 15, 63, 101
1, 25012, Note_on_c, 3, 63, 105
1, 25020, Note_off_c, 8, 51, 64
1, 25024, Note_off_c, 3, 63, 64
1, 25026, Note_off_c, 15, 63, 64
1, 25028, Note_off_c, 14, 63, 64
1, 25043, Note_off_c, 1, 39, 64
1, 25048, Note_off_c, 5, 63, 64
1, 25048, Note_off_c, 4, 58, 64
1, 25048, Note_off_c, 4, 51, 64
1, 25056, Note_on_c, 9, 42, 110
1, 25056, Note_on_c, 9, 38, 115
1, 25056, Note_on_c, 1, 39, 127
1, 25056, Note_on_c, 5, 63, 95
1, 25056, Note_on_c, 4, 58, 101
1, 25056, Note_on_c, 4, 51, 101
1, 25056, Note_on_c, 8, 51, 95
1, 25057, Note_off_c, 9, 38, 64
1, 25057, Note_off_c, 9, 42, 64
1, 25068, Note_off_c, 8, 51, 64
1, 25096, Note_off_c, 5, 63, 64
1, 25096, Note_off_c, 1, 39, 64
1, 25096, Note_off_c, 4, 58, 64
1, 25096, Note_off_c, 4, 51, 64
1, 25104, Note_on_c, 9, 42, 50
1, 25104, Note_on_c, 8, 51, 89
1, 25105, Note_off_c, 9, 42, 64
1, 25116, Note_off_c, 8, 51, 64
1, 25152, Note_on_c, 9, 42, 110
1, 25152, Note_on_c, 9, 36, 90
1, 25152, Note_on_c, 1, 39, 127
1, 25152, Note_on_c, 5, 63, 102
1, 25152, Note_on_c, 4, 58, 104
1, 25152, Note_on_c, 4, 51, 104
1, 25152, Note_on_c, 8, 54, 93
1, 25153, Note_off_c, 9, 36, 64
1, 25153, Note_off_c, 9, 42, 64
1, 25164, Note_off_c, 8, 54, 64
1, 25192, Note_off_c, 5, 63, 64
1, 25192, Note_off_c, 4, 58, 64
1, 25192, Note_off_c, 4, 51, 64
1, 25194, Note_off_c, 1, 39, 64
1, 25200, Note_on_c, 9, 42, 50
1, 25200, Note_on_c, 8, 51, 89
1, 25201, Note_off_c, 9, 42, 64
1, 25212, Note_off_c, 8, 51, 64
1, 25248, Note_on_c, 9, 42, 110
1, 25248, Note_on_c, 9, 38, 115
1, 25248, Note_on_c, 8, 49, 107
1, 25249, Note_off_c, 9, 38, 64
1, 25249, Note_off_c, 9, 42, 64
1, 25249, Note_on_c, 9, 39, 127
1, 25250, Note_off_c, 9, 39, 64
1, 25252, Note_on_c, 3, 70, 108
1, 25255, Note_on_c, 10, 39, 127
1, 25256, Note_off_c, 10, 39, 64
1, 25260, Note_off_c, 8, 49, 64
1, 25269, Note_off_c, 3, 70, 64
1, 25296, Note_on_c, 9, 42, 50
1, 25296, Note_on_c, 1, 37, 127
1, 25296, Note_on_c, 5, 61, 100
1, 25296, Note_on_c, 4, 56, 105
1, 25296, Note_on_c, 4, 49, 100
1, 25296, Note_on_c, 8, 51, 86
1, 25297, Note_off_c, 9, 42, 64
1, 25301, Note_on_c, 3, 70, 105
1, 25308, Note_off_c, 8, 51, 64
1, 25315, Note_off_c, 3, 70, 64
1, 25331, Note_off_c, 1, 37, 64
1, 25336, Note_off_c, 5, 61, 64
1, 25336, Note_off_c, 4, 56, 64
1, 25336, Note_off_c, 4, 49, 64
1, 25340, Note_off_c, 0, 66, 64
1, 25340, Note_off_c, 0, 63, 64
1, 25340, Note_off_c, 11, 51, 64
1, 25340, Note_off_c, 0, 58, 64
1, 25342, Note_on_c, 11, 49, 80
1, 25344, Note_on_c, 9, 42, 110
1, 25344, Note_on_c, 9, 36, 90
1, 25344, Note_on_c, 1, 37, 127
1, 25344, Note_on_c, 0, 61, 80
1, 25344, Note_on_c, 0, 65, 73
1, 25344, Note_on_c, 0, 56, 76
1, 25344, Note_on_c, 5, 61, 82
1, 25344, Note_on_c, 4, 56, 97
1, 25344, Note_on_c, 4, 49, 98
1, 25344, Note_on_c, 8, 53, 81
1, 25345, Note_off_c, 9, 36, 64
1, 25345, Note_off_c, 9, 42, 64
1, 25347, Note_on_c, 3, 71, 108
1, 25356, Note_off_c, 8, 53, 64
1, 25358, Pitch_bend_c, 3, 16187
1, 25368, Pitch_bend_c, 3, 16317
1, 25371, Note_off_c, 3, 71, 64
1, 25384, Note_off_c, 5, 61, 64
1, 25384, Note_off_c, 1, 37, 64
1, 25384, Note_off_c, 4, 56, 64
1, 25384, Note_off_c, 4, 49, 64
1, 25388, Pitch_bend_c, 3, 13652
1, 25391, Pitch_bend_c, 8, 8192
1, 25392, Note_on_c, 9, 42, 50
1, 25392, Note_on_c, 8, 51, 101
1, 25393, Note_off_c, 9, 42, 64
1, 25397, Note_on_c, 3, 70, 107
1, 25397, Pitch_bend_c, 3, 8192
1, 25404, Note_off_c, 8, 51, 64
1, 25418, Note_off_c, 3, 70, 64
1, 25440, Note_on_c, 9, 42, 110
1, 25440, Note_on_c, 9, 38, 115
1, 25440, Note_on_c, 9, 36, 90
1, 25440, Note_on_c, 1, 37, 127
1, 25440, Note_on_c, 5, 61, 100
1, 25440, Note_on_c, 4, 56, 101
1, 25440, Note_on_c, 4, 49, 100
1, 25440, Note_on_c, 8, 49, 103
1, 25441, Note_off_c, 9, 36, 64
1, 25441, Note_off_c, 9, 38, 64
1, 25441, Note_off_c, 9, 42, 64
1, 25445, Note_on_c, 3, 68, 108
1, 25452, Note_off_c, 8, 49, 64
1, 25474, Note_off_c, 3, 68, 64
1, 25480, Note_off_c, 5, 61, 64
1, 25480, Note_off_c, 4, 49, 64
1, 25480, Note_off_c, 4, 56, 64
1, 25482, Note_off_c, 1, 37, 64
1, 25488, Note_on_c, 9, 42, 50
1, 25488, Note_on_c, 8, 51, 111
1, 25489, Note_off_c, 9, 42, 64
1, 25500, Note_off_c, 8, 51, 64
1, 25536, Note_on_c, 9, 42, 110
1, 25537, Note_off_c, 9, 42, 64
1, 25538, Note_on_c, 3, 70, 108
1, 25548, Control_c, 3, 1, 121
1, 25563, Control_c, 3, 1, 120
1, 25579, Control_c, 3, 1, 118
1, 25584, Note_on_c, 9, 42, 50
1, 25584, Note_on_c, 9, 36, 90
1, 25585, Note_off_c, 9, 36, 64
1, 25585, Note_off_c, 9, 42, 64
1, 25593, Control_c, 3, 1, 103
1, 25599, Control_c, 3, 1, 0
1, 25601, Note_off_c, 3, 70, 64
1, 25630, Note_on_c, 5, 42, 101
1, 25632, Note_on_c, 9, 42, 110
1, 25632, Note_on_c, 9, 38, 115
1, 25632, Note_on_c, 4, 42, 101
1, 25632, Note_on_c, 8, 42, 100
1, 25633, Note_off_c, 9, 38, 64
1, 25633, Note_off_c, 9, 42, 64
1, 25633, Note_on_c, 9, 39, 127
1, 25634, Note_off_c, 9, 39, 64
1, 25634, Note_on_c, 3, 68, 108
1, 25639, Note_on_c, 10, 39, 127
1, 25640, Note_off_c, 10, 39, 64
1, 25666, Note_off_c, 3, 68, 64
1, 25670, Note_off_c, 5, 42, 64
1, 25672, Note_off_c, 4, 42, 64
1, 25672, Note_off_c, 8, 42, 64
1, 25677, Pitch_bend_c, 5, 6077
1, 25678, Note_on_c, 5, 39, 114
1, 25679, Pitch_bend_c, 4, 6272
1, 25680, Note_on_c, 9, 46, 90
1, 25680, Note_on_c, 9, 36, 90
1, 25680, Note_on_c, 1, 27, 127
1, 25680, Note_on_c, 4, 39, 114
1, 25680, Note_on_c, 8, 39, 75
1, 25681, Note_off_c, 9, 36, 64
1, 25681, Note_off_c, 9, 46, 64
1, 25681, Pitch_bend_c, 5, 6288
1, 25683, Pitch_bend_c, 4, 6464
1, 25685, Pitch_bend_c, 5, 6429
1, 25687, Pitch_bend_c, 4, 6592
1, 25689, Pitch_bend_c, 5, 6641
1, 25691, Pitch_bend_c, 4, 6784
1, 25693, Pitch_bend_c, 5, 6782
1, 25695, Pitch_bend_c, 4, 6912
1, 25697, Pitch_bend_c, 5, 7134
1, 25699, Pitch_bend_c, 4, 7232
1, 25700, Pitch_bend_c, 5, 7628
1, 25702, Pitch_bend_c, 15, 7810
1, 25702, Pitch_bend_c, 4, 7680
1, 25704, Pitch_bend_c, 5, 7855
1, 25706, Pitch_bend_c, 4, 7886
1, 25707, Pitch_bend_c, 14, 7810
1, 25707, Pitch_bend_c, 15, 6172
1, 25708, Pitch_bend_c, 5, 8192
1, 25710, Pitch_bend_c, 4, 8192
1, 25712, Pitch_bend_c, 14, 6928
1, 25712, Pitch_bend_c, 15, 3904
1, 25717, Pitch_bend_c, 14, 5290
1, 25717, Pitch_bend_c, 15, 2392
1, 25722, Pitch_bend_c, 14, 2770
1, 25722, Pitch_bend_c, 15, 1762
1, 25724, Note_off_c, 0, 56, 64
1, 25724, Note_off_c, 0, 65, 64
1, 25724, Note_off_c, 0, 61, 64
1, 25724, Note_off_c, 11, 49, 64
1, 25726, Pitch_bend_c, 14, 2392
1, 25727, Note_on_c, 14, 70, 111
1, 25728, Note_on_c, 9, 57, 85
1, 25728, Note_on_c, 9, 36, 90
1, 25728, Note_on_c, 0, 63, 78
1, 25728, Note_on_c, 0, 66, 79
1, 25728, Note_on_c, 0, 58, 74
1, 25728, Note_on_c, 11, 78, 64
1, 25728, Note_on_c, 11, 82, 64
1, 25728, Note_on_c, 2, 70, 94
1, 25728, Note_on_c, 2, 66, 94
1, 25729, Note_off_c, 9, 36, 64
1, 25729, Note_off_c, 9, 57, 64
1, 25729, Note_on_c, 15, 70, 102
1, 25732, Note_on_c, 3, 70, 108
1, 25737, Pitch_bend_c, 14, 3778
1, 25738, Pitch_bend_c, 15, 2896
1, 25742, Pitch_bend_c, 14, 8192
1, 25742, Pitch_bend_c, 15, 7684
1, 25747, Pitch_bend_c, 15, 8192
1, 25761, Note_off_c, 14, 70, 64
1, 25767, Note_off_c, 15, 70, 64
1, 25767, Note_off_c, 3, 70, 64
1, 25770, Note_off_c, 8, 39, 64
1, 25772, Note_off_c, 5, 39, 64
1, 25774, Note_off_c, 1, 27, 64
1, 25774, Note_off_c, 4, 39, 64
1, 25774, Note_on_c, 5, 42, 114
1, 25776, Note_on_c, 9, 42, 50
1, 25776, Note_on_c, 1, 30, 127
1, 25776, Note_on_c, 4, 42, 114
1, 25776, Note_on_c, 8, 42, 92
1, 25777, Note_off_c, 9, 42, 64
1, 25777, Note_on_c, 14, 70, 110
1, 25778, Note_on_c, 15, 70, 101
1, 25781, Note_on_c, 3, 70, 107
1, 25821, Note_off_c, 5, 42, 64
1, 25822, Note_on_c, 5, 46, 114
1, 25823, Note_off_c, 1, 30, 64
1, 25823, Note_off_c, 8, 42, 64
1, 25823, Note_off_c, 4, 42, 64
1, 25824, Control_c, 3, 1, 23
1, 25824, Note_on_c, 9, 42, 110
1, 25824, Note_on_c, 9, 38, 115
1, 25824, Note_on_c, 1, 34, 127
1, 25824, Note_on_c, 4, 46, 114
1, 25824, Note_on_c, 8, 46, 92
1, 25825, Note_off_c, 9, 38, 64
1, 25825, Note_off_c, 9, 42, 64
1, 25829, Control_c, 3, 1, 84
1, 25839, Control_c, 3, 1, 79
1, 25849, Control_c, 3, 1, 98
1, 25868, Control_c, 3, 1, 90
1, 25869, Note_off_c, 5, 46, 64
1, 25870, Note_on_c, 5, 54, 114
1, 25871, Note_off_c, 8, 46, 64
1, 25871, Note_off_c, 4, 46, 64
1, 25871, Note_off_c, 1, 34, 64
1, 25872, Note_on_c, 9, 42, 50
1, 25872, Note_on_c, 1, 42, 127
1, 25872, Note_on_c, 4, 54, 114
1, 25872, Note_on_c, 8, 54, 92
1, 25873, Note_off_c, 9, 42, 64
1, 25878, Control_c, 3, 1, 83
1, 25887, Control_c, 3, 1, 72
1, 25891, Note_off_c, 15, 70, 64
1, 25892, Control_c, 3, 1, 30
1, 25896, Note_off_c, 3, 70, 64
1, 25897, Control_c, 3, 1, 0
1, 25901, Note_off_c, 14, 70, 64
1, 25909, Pitch_bend_c, 15, 5038
1, 25910, Pitch_bend_c, 14, 6550
1, 25914, Pitch_bend_c, 15, 1510
1, 25915, Pitch_bend_c, 14, 3526
1, 25917, Note_off_c, 5, 54, 64
1, 25918, Note_on_c, 5, 51, 114
1, 25919, Note_off_c, 1, 42, 64
1, 25919, Note_off_c, 8, 54, 64
1, 25919, Note_off_c, 4, 54, 64
1, 25919, Pitch_bend_c, 14, 1762
1, 25920, Note_on_c, 15, 63, 102
1, 25920, Note_on_c, 9, 42, 110
1, 25920, Note_on_c, 9, 36, 90
1, 25920, Note_on_c, 1, 39, 127
1, 25920, Note_on_c, 4, 51, 114
1, 25920, Note_on_c, 8, 51, 92
1, 25921, Note_off_c, 9, 36, 64
1, 25921, Note_off_c, 9, 42, 64
1, 25921, Note_on_c, 14, 66, 111
1, 25926, Pitch_bend_c, 15, 1762
1, 25927, Pitch_bend_c, 14, 2014
1, 25931, Pitch_bend_c, 15, 4030
1, 25931, Pitch_bend_c, 5, 8249
1, 25933, Pitch_bend_c, 14, 8192
1, 25933, Pitch_bend_c, 4, 8244
1, 25935, Pitch_bend_c, 5, 8708
1, 25936, Pitch_bend_c, 15, 7432
1, 25937, Pitch_bend_c, 4, 8660
1, 25940, Pitch_bend_c, 15, 8192
1, 25942, Pitch_bend_c, 5, 8364
1, 25944, Pitch_bend_c, 4, 8348
1, 25946, Pitch_bend_c, 5, 8192
1, 25948, Pitch_bend_c, 4, 8192
1, 25955, Note_off_c, 14, 66, 64
1, 25957, Note_off_c, 15, 63, 64
1, 25962, Pitch_bend_c, 5, 8249
1, 25964, Pitch_bend_c, 4, 8244
1, 25966, Pitch_bend_c, 5, 8478
1, 25968, Note_on_c, 9, 42, 50
1, 25968, Pitch_bend_c, 4, 8452
1, 25969, Note_off_c, 9, 42, 64
1, 25969, Note_on_c, 14, 66, 111
1, 25969, Note_on_c, 15, 63, 100
1, 25969, Pitch_bend_c, 5, 8708
1, 25971, Pitch_bend_c, 4, 8660
1, 25977, Pitch_bend_c, 5, 8593
1, 25979, Pitch_bend_c, 4, 8556
1, 25981, Pitch_bend_c, 5, 8192
1, 25983, Pitch_bend_c, 4, 8192
1, 25993, Pitch_bend_c, 5, 8249
1, 25995, Pitch_bend_c, 4, 8244
1, 25997, Pitch_bend_c, 5, 8823
1, 25999, Pitch_bend_c, 4, 8765
1, 26001, Pitch_bend_c, 5, 9052
1, 26003, Pitch_bend_c, 4, 8973
1, 26008, Pitch_bend_c, 5, 8364
1, 26010, Pitch_bend_c, 4, 8348
1, 26013, Pitch_bend_c, 5, 8192
1, 26015, Pitch_bend_c, 4, 8192
1, 26016, Note_on_c, 9, 42, 110
1, 26016, Note_on_c, 9, 38, 115
1, 26017, Note_off_c, 9, 38, 64
1, 26017, Note_off_c, 9, 42, 64
1, 26017, Note_on_c, 9, 39, 127
1, 26018, Note_off_c, 9, 39, 64
1, 26020, Pitch_bend_c, 5, 8593
1, 26022, Pitch_bend_c, 4, 8556
1, 26023, Note_on_c, 10, 39, 127
1, 26024, Note_off_c, 10, 39, 64
1, 26024, Pitch_bend_c, 5, 9453
1, 26026, Pitch_bend_c, 4, 9337
1, 26028, Pitch_bend_c, 5, 9797
1, 26030, Pitch_bend_c, 4, 9649
1, 26036, Pitch_bend_c, 5, 9110
1, 26038, Pitch_bend_c, 4, 9025
1, 26040, Pitch_bend_c, 5, 8192
1, 26042, Pitch_bend_c, 4, 8192
1, 26059, Note_off_c, 5, 51, 64
1, 26061, Note_off_c, 8, 51, 64
1, 26061, Note_off_c, 4, 51, 64
1, 26061, Note_off_c, 1, 39, 64
1, 26061, Note_on_c, 5, 51, 114
1, 26063, Note_on_c, 1, 39, 127
1, 26063, Note_on_c, 4, 51, 114
1, 26063, Note_on_c, 8, 51, 92
1, 26064, Note_on_c, 9, 42, 50
1, 26065, Note_off_c, 9, 42, 64
1, 26066, Pitch_bend_c, 5, 12704
1, 26066, Pitch_bend_c, 5, 10307
1, 26066, Pitch_bend_c, 8, 12288
1, 26068, Pitch_bend_c, 4, 10112
1, 26069, Pitch_bend_c, 1, 16320
1, 26069, Pitch_bend_c, 8, 16320
1, 26071, Note_off_c, 14, 66, 64
1, 26073, Pitch_bend_c, 5, 14890
1, 26075, Pitch_bend_c, 5, 16383
1, 26075, Pitch_bend_c, 4, 14272
1, 26077, Pitch_bend_c, 4, 16320
1, 26088, Note_off_c, 15, 63, 64
1, 26092, Pitch_bend_c, 14, 5542
1, 26093, Pitch_bend_c, 15, 7432
1, 26097, Pitch_bend_c, 14, 2518
1, 26099, Pitch_bend_c, 15, 3652
1, 26103, Pitch_bend_c, 14, 1510
1, 26104, Pitch_bend_c, 15, 5794
1, 26108, Note_off_c, 0, 63, 64
1, 26108, Note_off_c, 0, 58, 64
1, 26108, Note_off_c, 11, 82, 64
1, 26108, Note_off_c, 0, 66, 64
1, 26108, Note_off_c, 11, 78, 64
1, 26109, Pitch_bend_c, 15, 8192
1, 26110, Note_on_c, 14, 70, 111
1, 26111, Pitch_bend_c, 14, 5038
1, 26112, Note_on_c, 15, 70, 102
1, 26112, Note_on_c, 9, 42, 110
1, 26112, Note_on_c, 9, 36, 90
1, 26112, Note_on_c, 0, 61, 78
1, 26112, Note_on_c, 0, 56, 78
1, 26112, Note_on_c, 0, 65, 74
1, 26112, Note_on_c, 11, 80, 64
1, 26112, Note_on_c, 11, 77, 64
1, 26113, Note_off_c, 9, 36, 64
1, 26113, Note_off_c, 9, 42, 64
1, 26114, Note_on_c, 3, 70, 108
1, 26118, Pitch_bend_c, 14, 8192
1, 26145, Note_off_c, 15, 70, 64
1, 26147, Note_off_c, 14, 70, 64
1, 26150, Note_off_c, 3, 70, 64
1, 26152, Note_off_c, 5, 51, 64
1, 26154, Note_off_c, 4, 51, 64
1, 26157, Note_off_c, 1, 39, 64
1, 26157, Note_off_c, 8, 51, 64
1, 26157, Pitch_bend_c, 5, 8192
1, 26158, Note_on_c, 5, 51, 114
1, 26159, Note_on_c, 14, 70, 108
1, 26159, Pitch_bend_c, 1, 8192
1, 26159, Pitch_bend_c, 4, 8192
1, 26159, Pitch_bend_c, 8, 8192
1, 26160, Note_on_c, 9, 42, 50
1, 26160, Note_on_c, 1, 39, 127
1, 26160, Note_on_c, 4, 51, 114
1, 26160, Note_on_c, 8, 51, 92
1, 26161, Note_off_c, 9, 42, 64
1, 26161, Note_on_c, 15, 70, 101
1, 26162, Note_on_c, 3, 70, 105
1, 26195, Control_c, 3, 1, 1
1, 26200, Control_c, 3, 1, 27
1, 26203, Note_off_c, 5, 51, 64
1, 26205, Note_off_c, 1, 39, 64
1, 26205, Note_off_c, 8, 51, 64
1, 26205, Note_off_c, 4, 51, 64
1, 26206, Note_on_c, 5, 49, 114
1, 26208, Note_on_c, 9, 42, 110
1, 26208, Note_on_c, 9, 38, 115
1, 26208, Note_on_c, 9, 36, 90
1, 26208, Note_on_c, 1, 37, 127
1, 26208, Note_on_c, 4, 49, 114
1, 26208, Note_on_c, 8, 49, 92
1, 26209, Note_off_c, 9, 36, 64
1, 26209, Note_off_c, 9, 38, 64
1, 26209, Note_off_c, 9, 42, 64
1, 26211, Control_c, 3, 1, 33
1, 26216, Control_c, 3, 1, 9
1, 26226, Control_c, 3, 1, 17
1, 26231, Control_c, 3, 1, 32
1, 26242, Control_c, 3, 1, 31
1, 26244, Note_off_c, 5, 49, 64
1, 26246, Note_off_c, 4, 49, 64
1, 26246, Note_off_c, 1, 37, 64
1, 26246, Note_off_c, 8, 49, 64
1, 26252, Control_c, 3, 1, 38
1, 26256, Note_on_c, 9, 42, 50
1, 26257, Note_off_c, 9, 42, 64
1, 26262, Control_c, 3, 1, 28
1, 26263, Note_off_c, 14, 70, 64
1, 26267, Control_c, 3, 1, 10
1, 26270, Note_off_c, 15, 70, 64
1, 26272, Control_c, 3, 1, 0
1, 26274, Note_off_c, 3, 70, 64
1, 26278, Pitch_bend_c, 14, 4660
1, 26280, Pitch_bend_c, 15, 5290
1, 26284, Pitch_bend_c, 14, 2266
1, 26286, Pitch_bend_c, 15, 1636
1, 26290, Pitch_bend_c, 14, 1510
1, 26291, Pitch_bend_c, 15, 8192
1, 26295, Pitch_bend_c, 14, 2896
1, 26302, Note_on_c, 5, 49, 114
1, 26303, Pitch_bend_c, 14, 8192
1, 26303, Note_on_c, 14, 65, 108
1, 26303, Note_on_c, 15, 61, 102
1, 26304, Note_on_c, 9, 42, 110
1, 26304, Note_on_c, 1, 37, 127
1, 26304, Note_on_c, 4, 49, 114
1, 26304, Note_on_c, 8, 49, 92
1, 26305, Note_off_c, 9, 42, 64
1, 26311, Note_off_c, 2, 66, 64
1, 26339, Note_off_c, 1, 37, 64
1, 26339, Note_off_c, 8, 49, 64
1, 26342, Note_off_c, 5, 49, 64
1, 26343, Note_off_c, 15, 61, 64
1, 26343, Note_off_c, 14, 65, 64
1, 26344, Note_off_c, 4, 49, 64
1, 26352, Note_on_c, 14, 65, 99
1, 26352, Note_on_c, 9, 42, 50
1, 26352, Note_on_c, 9, 36, 90
1, 26353, Note_off_c, 9, 36, 64
1, 26353, Note_off_c, 9, 42, 64
1, 26353, Note_on_c, 15, 61, 101
1, 26400, Note_on_c, 9, 42, 110
1, 26400, Note_on_c, 9, 38, 115
1, 26401, Note_off_c, 9, 38, 64
1, 26401, Note_off_c, 9, 42, 64
1, 26401, Note_on_c, 9, 39, 127
1, 26402, Note_off_c, 9, 39, 64
1, 26407, Note_on_c, 10, 39, 127
1, 26408, Note_off_c, 10, 39, 64
1, 26432, Note_off_c, 14, 65, 64
1, 26432, Pitch_bend_c, 3, 6550
1, 26435, Pitch_bend_c, 14, 7684
1, 26436, Note_off_c, 15, 61, 64
1, 26437, Pitch_bend_c, 3, 4660
1, 26440, Pitch_bend_c, 14, 2266
1, 26442, Pitch_bend_c, 3, 3274
1, 26446, Pitch_bend_c, 14, 2014
1, 26446, Note_on_c, 5, 39, 114
1, 26447, Pitch_bend_c, 3, 2644
1, 26448, Note_on_c, 9, 42, 50
1, 26448, Note_on_c, 1, 27, 127
1, 26448, Note_on_c, 4, 39, 114
1, 26448, Note_on_c, 8, 39, 92
1, 26449, Note_off_c, 9, 42, 64
1, 26449, Note_on_c, 14, 66, 111
1, 26449, Pitch_bend_c, 15, 1636
1, 26451, Note_on_c, 15, 63, 102
1, 26453, Note_on_c, 3, 70, 108
1, 26455, Pitch_bend_c, 15, 7054
1, 26458, Pitch_bend_c, 3, 4534
1, 26461, Pitch_bend_c, 14, 8192
1, 26461, Pitch_bend_c, 15, 8192
1, 26464, Pitch_bend_c, 3, 6550
1, 26469, Pitch_bend_c, 3, 8192
1, 26484, Note_on_c, 2, 73, 94
1, 26492, Note_off_c, 11, 80, 64
1, 26492, Note_off_c, 0, 56, 64
1, 26492, Note_off_c, 0, 61, 64
1, 26492, Note_off_c, 0, 65, 64
1, 26492, Note_off_c, 11, 77, 64
1, 26496, Note_on_c, 9, 42, 110
1, 26496, Note_on_c, 9, 36, 90
1, 26496, Note_on_c, 0, 63, 78
1, 26496, Note_on_c, 0, 66, 79
1, 26496, Note_on_c, 0, 58, 74
1, 26496, Note_on_c, 11, 82, 64
1, 26496, Note_on_c, 11, 78, 64
1, 26497, Note_off_c, 9, 36, 64
1, 26497, Note_off_c, 9, 42, 64
1, 26513, Note_off_c, 15, 63, 64
1, 26517, Note_off_c, 14, 66, 64
1, 26518, Note_off_c, 3, 70, 64
1, 26540, Note_off_c, 5, 39, 64
1, 26542, Note_off_c, 4, 39, 64
1, 26542, Note_off_c, 1, 27, 64
1, 26542, Note_off_c, 8, 39, 64
1, 26542, Note_on_c, 5, 42, 114
1, 26544, Note_on_c, 9, 42, 50
1, 26544, Note_on_c, 1, 30, 127
1, 26544, Note_on_c, 4, 42, 114
1, 26544, Note_on_c, 8, 42, 92
1, 26545, Note_off_c, 9, 42, 64
1, 26545, Note_on_c, 14, 66, 109
1, 26545, Note_on_c, 15, 63, 102
1, 26546, Note_on_c, 3, 70, 107
1, 26558, Note_off_c, 14, 66, 64
1, 26560, Note_off_c, 15, 63, 64
1, 26562, Note_off_c, 3, 70, 64
1, 26588, Note_off_c, 5, 42, 64
1, 26590, Note_off_c, 1, 30, 64
1, 26590, Note_off_c, 8, 42, 64
1, 26590, Note_off_c, 4, 42, 64
1, 26590, Note_on_c, 5, 46, 114
1, 26591, Note_on_c, 14, 66, 107
1, 26592, Note_on_c, 9, 42, 110
1, 26592, Note_on_c, 9, 38, 115
1, 26592, Note_on_c, 1, 34, 127
1, 26592, Note_on_c, 4, 46, 114
1, 26592, Note_on_c, 8, 46, 92
1, 26593, Note_off_c, 9, 38, 64
1, 26593, Note_off_c, 9, 42, 64
1, 26593, Note_on_c, 15, 63, 102
1, 26594, Note_on_c, 3, 70, 107
1, 26603, Note_off_c, 14, 66, 64
1, 26607, Note_off_c, 15, 63, 64
1, 26607, Note_off_c, 3, 70, 64
1, 26636, Note_off_c, 5, 46, 64
1, 26638, Note_off_c, 8, 46, 64
1, 26638, Note_off_c, 4, 46, 64
1, 26638, Note_off_c, 1, 34, 64
1, 26638, Note_on_c, 5, 54, 114
1, 26640, Note_on_c, 14, 66, 106
1, 26640, Note_on_c, 15, 63, 96
1, 26640, Note_on_c, 9, 42, 50
1, 26640, Note_on_c, 1, 42, 127
1, 26640, Note_on_c, 4, 54, 114
1, 26640, Note_on_c, 8, 54, 92
1, 26641, Note_off_c, 9, 42, 64
1, 26642, Note_on_c, 3, 70, 102
1, 26650, Note_off_c, 14, 66, 64
1, 26654, Note_off_c, 3, 70, 64
1, 26661, Note_off_c, 15, 63, 64
1, 26672, Pitch_bend_c, 14, 4408
1, 26678, Pitch_bend_c, 14, 1384
1, 26683, Pitch_bend_c, 15, 1636
1, 26684, Note_off_c, 5, 54, 64
1, 26686, Note_off_c, 1, 42, 64
1, 26686, Note_off_c, 8, 54, 64
1, 26686, Note_off_c, 4, 54, 64
1, 26686, Note_on_c, 5, 51, 114
1, 26688, Note_on_c, 14, 70, 111
1, 26688, Note_on_c, 15, 66, 102
1, 26688, Note_on_c, 9, 42, 110
1, 26688, Note_on_c, 9, 36, 90
1, 26688, Note_on_c, 1, 39, 127
1, 26688, Note_on_c, 4, 51, 114
1, 26688, Note_on_c, 8, 51, 92
1, 26689, Note_off_c, 9, 36, 64
1, 26689, Note_off_c, 9, 42, 64
1, 26690, Note_on_c, 3, 73, 107
1, 26692, Pitch_bend_c, 15, 5920
1, 26694, Pitch_bend_c, 14, 4156
1, 26700, Pitch_bend_c, 15, 8192
1, 26701, Pitch_bend_c, 14, 8192
1, 26711, Pitch_bend_c, 5, 8478
1, 26713, Pitch_bend_c, 4, 8452
1, 26715, Pitch_bend_c, 5, 9110
1, 26717, Pitch_bend_c, 4, 9025
1, 26719, Pitch_bend_c, 5, 9568
1, 26721, Pitch_bend_c, 4, 9441
1, 26723, Pitch_bend_c, 5, 9682
1, 26725, Pitch_bend_c, 4, 9545
1, 26731, Pitch_bend_c, 5, 7855
1, 26733, Pitch_bend_c, 4, 7886
1, 26734, Pitch_bend_c, 5, 8192
1, 26736, Note_on_c, 9, 42, 50
1, 26736, Pitch_bend_c, 4, 8192
1, 26737, Note_off_c, 9, 42, 64
1, 26746, Pitch_bend_c, 5, 8249
1, 26748, Pitch_bend_c, 4, 8244
1, 26750, Pitch_bend_c, 5, 9797
1, 26752, Pitch_bend_c, 4, 9649
1, 26754, Pitch_bend_c, 5, 9913
1, 26755, Note_off_c, 14, 70, 64
1, 26756, Pitch_bend_c, 4, 9754
1, 26759, Note_off_c, 3, 73, 64
1, 26761, Pitch_bend_c, 5, 9110
1, 26763, Pitch_bend_c, 4, 9025
1, 26765, Pitch_bend_c, 5, 8192
1, 26767, Pitch_bend_c, 4, 8192
1, 26769, Note_off_c, 15, 66, 64
1, 26773, Pitch_bend_c, 5, 8478
1, 26775, Pitch_bend_c, 4, 8452
1, 26777, Pitch_bend_c, 5, 9568
1, 26779, Pitch_bend_c, 4, 9441
1, 26781, Pitch_bend_c, 5, 9970
1, 26783, Pitch_bend_c, 4, 9806
1, 26784, Note_on_c, 14, 66, 110
1, 26784, Note_on_c, 15, 63, 100
1, 26784, Note_on_c, 9, 42, 110
1, 26784, Note_on_c, 9, 38, 115
1, 26785, Note_off_c, 9, 38, 64
1, 26785, Note_off_c, 9, 42, 64
1, 26785, Note_on_c, 3, 70, 101
1, 26785, Pitch_bend_c, 5, 10084
1, 26785, Note_on_c, 9, 39, 127
1, 26786, Note_off_c, 9, 39, 64
1, 26787, Pitch_bend_c, 4, 9910
1, 26789, Pitch_bend_c, 5, 9913
1, 26791, Note_on_c, 10, 39, 127
1, 26791, Pitch_bend_c, 4, 9754
1, 26792, Note_off_c, 10, 39, 64
1, 26793, Pitch_bend_c, 5, 8192
1, 26794, Note_off_c, 3, 70, 64
1, 26795, Pitch_bend_c, 4, 8192
1, 26801, Note_off_c, 15, 63, 64
1, 26804, Note_off_c, 14, 66, 64
1, 26820, Pitch_bend_c, 14, 2266
1, 26820, Pitch_bend_c, 15, 7810
1, 26826, Pitch_bend_c, 14, 1636
1, 26827, Note_off_c, 5, 51, 64
1, 26828, Pitch_bend_c, 15, 3274
1, 26829, Note_off_c, 8, 51, 64
1, 26829, Note_off_c, 4, 51, 64
1, 26829, Note_off_c, 1, 39, 64
1, 26829, Note_on_c, 5, 51, 114
1, 26831, Note_on_c, 1, 39, 127
1, 26831, Note_on_c, 4, 51, 114
1, 26831, Note_on_c, 8, 51, 92
1, 26832, Note_on_c, 14, 68, 111
1, 26832, Note_on_c, 9, 42, 50
1, 26833, Note_off_c, 9, 42, 64
1, 26833, Note_on_c, 15, 65, 101
1, 26834, Pitch_bend_c, 5, 10307
1, 26835, Pitch_bend_c, 15, 1636
1, 26835, Pitch_bend_c, 8, 12288
1, 26836, Note_on_c, 3, 73, 108
1, 26836, Pitch_bend_c, 4, 10112
1, 26837, Pitch_bend_c, 5, 12704
1, 26838, Pitch_bend_c, 1, 16320
1, 26838, Pitch_bend_c, 8, 16320
1, 26839, Pitch_bend_c, 5, 14890
1, 26839, Pitch_bend_c, 4, 12288
1, 26841, Pitch_bend_c, 5, 16383
1, 26841, Pitch_bend_c, 4, 14272
1, 26842, Pitch_bend_c, 14, 6928
1, 26843, Pitch_bend_c, 4, 16320
1, 26849, Pitch_bend_c, 14, 8192
1, 26852, Pitch_bend_c, 15, 6424
1, 26855, Control_c, 3, 1, 30
1, 26860, Pitch_bend_c, 15, 8192
1, 26863, Control_c, 3, 1, 3
1, 26865, Note_off_c, 2, 73, 64
1, 26872, Control_c, 3, 1, 15
1, 26876, Note_off_c, 11, 82, 64
1, 26876, Note_off_c, 0, 66, 64
1, 26876, Note_off_c, 0, 63, 64
1, 26876, Note_off_c, 11, 78, 64
1, 26876, Note_off_c, 0, 58, 64
1, 26876, Note_on_c, 2, 75, 94
1, 26880, Control_c, 3, 1, 103
1, 26880, Note_on_c, 9, 42, 110
1, 26880, Note_on_c, 9, 36, 90
1, 26880, Note_on_c, 0, 61, 78
1, 26880, Note_on_c, 0, 56, 78
1, 26880, Note_on_c, 0, 65, 74
1, 26880, Note_on_c, 11, 80, 64
1, 26880, Note_on_c, 11, 77, 64
1, 26881, Note_off_c, 9, 36, 64
1, 26881, Note_off_c, 9, 42, 64
1, 26897, Control_c, 3, 1, 70
1, 26900, Note_off_c, 3, 73, 64
1, 26907, Note_off_c, 14, 68, 64
1, 26907, Control_c, 3, 1, 0
1, 26916, Note_off_c, 15, 65, 64
1, 26924, Note_off_c, 5, 51, 64
1, 26925, Pitch_bend_c, 5, 8192
1, 26926, Note_off_c, 1, 39, 64
1, 26926, Note_off_c, 4, 51, 64
1, 26926, Note_off_c, 8, 51, 64
1, 26926, Note_on_c, 14, 65, 107
1, 26926, Note_on_c, 5, 51, 114
1, 26927, Pitch_bend_c, 1, 8192
1, 26927, Pitch_bend_c, 4, 8192
1, 26927, Pitch_bend_c, 8, 8192
1, 26928, Note_on_c, 15, 61, 102
1, 26928, Note_on_c, 9, 42, 50
1, 26928, Note_on_c, 1, 39, 127
1, 26928, Note_on_c, 4, 51, 114
1, 26928, Note_on_c, 8, 51, 92
1, 26929, Note_off_c, 9, 42, 64
1, 26930, Note_on_c, 3, 70, 108
1, 26939, Note_off_c, 14, 65, 64
1, 26941, Note_off_c, 15, 61, 64
1, 26942, Note_off_c, 3, 70, 64
1, 26968, Note_off_c, 5, 51, 64
1, 26970, Note_off_c, 1, 39, 64
1, 26970, Note_off_c, 8, 51, 64
1, 26970, Note_off_c, 4, 51, 64
1, 26974, Note_on_c, 5, 49, 114
1, 26976, Note_on_c, 9, 42, 110
1, 26976, Note_on_c, 9, 38, 115
1, 26976, Note_on_c, 9, 36, 90
1, 26976, Note_on_c, 1, 37, 127
1, 26976, Note_on_c, 4, 49, 114
1, 26976, Note_on_c, 8, 49, 92
1, 26977, Note_off_c, 9, 36, 64
1, 26977, Note_off_c, 9, 38, 64
1, 26977, Note_off_c, 9, 42, 64
1, 27014, Note_off_c, 8, 49, 64
1, 27014, Note_off_c, 1, 37, 64
1, 27015, Note_off_c, 5, 49, 64
1, 27017, Note_off_c, 4, 49, 64
1, 27024, Note_on_c, 9, 42, 50
1, 27025, Note_off_c, 9, 42, 64
1, 27072, Note_on_c, 9, 42, 110
1, 27073, Note_off_c, 9, 42, 64
1, 27120, Note_on_c, 9, 42, 50
1, 27120, Note_on_c, 9, 36, 90
1, 27121, Note_off_c, 9, 36, 64
1, 27121, Note_off_c, 9, 42, 64
1, 27168, Note_on_c, 9, 42, 110
1, 27168, Note_on_c, 9, 38, 115
1, 27169, Note_off_c, 9, 38, 64
1, 27169, Note_off_c, 9, 42, 64
1, 27169, Note_on_c, 9, 39, 127
1, 27170, Note_off_c, 9, 39, 64
1, 27175, Note_on_c, 10, 39, 127
1, 27176, Note_off_c, 10, 39, 64
1, 27205, Pitch_bend_c, 15, 7810
1, 27210, Pitch_bend_c, 15, 6802
1, 27213, Pitch_bend_c, 5, 8192
1, 27214, Pitch_bend_c, 14, 7054
1, 27214, Pitch_bend_c, 15, 4786
1, 27214, Note_on_c, 5, 39, 114
1, 27215, Pitch_bend_c, 4, 8192
1, 27216, Note_on_c, 9, 42, 50
1, 27216, Note_on_c, 1, 27, 127
1, 27216, Note_on_c, 4, 39, 114
1, 27216, Note_on_c, 8, 39, 92
1, 27217, Note_off_c, 9, 42, 64
1, 27217, Note_on_c, 3, 68, 108
1, 27218, Pitch_bend_c, 14, 5416
1, 27218, Note_on_c, 14, 66, 111
1, 27218, Note_on_c, 15, 66, 102
1, 27219, Pitch_bend_c, 15, 2644
1, 27225, Note_off_c, 2, 75, 64
1, 27226, Pitch_bend_c, 14, 5668
1, 27226, Pitch_bend_c, 15, 1636
1, 27231, Pitch_bend_c, 14, 7810
1, 27232, Pitch_bend_c, 15, 2518
1, 27234, Note_off_c, 15, 66, 64
1, 27234, Note_off_c, 14, 66, 64
1, 27235, Note_off_c, 2, 70, 64
1, 27236, Pitch_bend_c, 14, 8192
1, 27237, Pitch_bend_c, 15, 8192
1, 27256, Note_off_c, 3, 68, 64
1, 27258, Note_on_c, 2, 70, 94
1, 27260, Note_off_c, 11, 80, 64
1, 27260, Note_off_c, 0, 56, 64
1, 27260, Note_off_c, 0, 65, 64
1, 27260, Note_off_c, 0, 61, 64
1, 27260, Note_off_c, 11, 77, 64
1, 27262, Note_on_c, 2, 66, 94
1, 27264, Note_on_c, 9, 42, 110
1, 27264, Note_on_c, 9, 36, 90
1, 27264, Note_on_c, 0, 63, 78
1, 27264, Note_on_c, 0, 66, 79
1, 27264, Note_on_c, 0, 58, 74
1, 27264, Note_on_c, 11, 82, 64
1, 27264, Note_on_c, 11, 78, 64
1, 27265, Note_off_c, 9, 36, 64
1, 27265, Note_off_c, 9, 42, 64
1, 27309, Note_off_c, 5, 39, 64
1, 27310, Note_on_c, 5, 42, 114
1, 27311, Note_off_c, 1, 27, 64
1, 27311, Note_off_c, 8, 39, 64
1, 27311, Note_off_c, 4, 39, 64
1, 27312, Note_on_c, 9, 42, 50
1, 27312, Note_on_c, 1, 30, 127
1, 27312, Note_on_c, 4, 42, 114
1, 27312, Note_on_c, 8, 42, 92
1, 27313, Note_off_c, 9, 42, 64
1, 27313, Note_on_c, 14, 63, 110
1, 27313, Note_on_c, 15, 63, 99
1, 27318, Note_on_c, 3, 66, 105
1, 27325, Note_off_c, 15, 63, 64
1, 27325, Note_off_c, 14, 63, 64
1, 27334, Note_off_c, 3, 66, 64
1, 27357, Note_off_c, 5, 42, 64
1, 27358, Note_on_c, 5, 46, 114
1, 27359, Note_off_c, 1, 30, 64
1, 27359, Note_off_c, 8, 42, 64
1, 27359, Note_off_c, 4, 42, 64
1, 27359, Note_on_c, 14, 65, 105
1, 27360, Note_on_c, 15, 66, 102
1, 27360, Note_on_c, 9, 42, 110
1, 27360, Note_on_c, 9, 38, 115
1, 27360, Note_on_c, 1, 34, 127
1, 27360, Note_on_c, 4, 46, 114
1, 27360, Note_on_c, 8, 46, 92
1, 27361, Note_off_c, 9, 38, 64
1, 27361, Note_off_c, 9, 42, 64
1, 27361, Note_on_c, 3, 68, 107
1, 27379, Note_off_c, 14, 65, 64
1, 27380, Note_off_c, 15, 66, 64
1, 27380, Note_off_c, 3, 68, 64
1, 27405, Note_off_c, 5, 46, 64
1, 27406, Note_on_c, 5, 54, 114
1, 27407, Note_off_c, 8, 46, 64
1, 27407, Note_off_c, 4, 46, 64
1, 27407, Note_off_c, 1, 34, 64
1, 27408, Note_on_c, 9, 42, 50
1, 27408, Note_on_c, 1, 42, 127
1, 27408, Note_on_c, 4, 54, 114
1, 27408, Note_on_c, 8, 54, 92
1, 27409, Note_off_c, 9, 42, 64
1, 27439, Pitch_bend_c, 14, 6802
1, 27443, Pitch_bend_c, 15, 7810
1, 27444, Pitch_bend_c, 14, 1384
1, 27448, Pitch_bend_c, 15, 4156
1, 27453, Note_off_c, 5, 54, 64
1, 27453, Pitch_bend_c, 15, 3274
1, 27454, Note_on_c, 5, 51, 114
1, 27455, Note_off_c, 1, 42, 64
1, 27455, Note_off_c, 8, 54, 64
1, 27455, Note_off_c, 4, 54, 64
1, 27455, Note_on_c, 14, 63, 111
1, 27456, Note_on_c, 9, 42, 110
1, 27456, Note_on_c, 9, 36, 90
1, 27456, Note_on_c, 1, 39, 127
1, 27456, Note_on_c, 4, 51, 114
1, 27456, Note_on_c, 8, 51, 92
1, 27457, Note_off_c, 9, 36, 64
1, 27457, Note_off_c, 9, 42, 64
1, 27457, Pitch_bend_c, 15, 2896
1, 27457, Note_on_c, 15, 61, 100
1, 27458, Note_on_c, 3, 66, 107
1, 27461, Pitch_bend_c, 14, 7054
1, 27465, Pitch_bend_c, 15, 3652
1, 27466, Pitch_bend_c, 14, 8192
1, 27467, Pitch_bend_c, 5, 8249
1, 27469, Pitch_bend_c, 4, 8244
1, 27471, Pitch_bend_c, 15, 6676
1, 27471, Pitch_bend_c, 5, 8708
1, 27473, Pitch_bend_c, 4, 8660
1, 27476, Pitch_bend_c, 15, 8192
1, 27478, Pitch_bend_c, 5, 8364
1, 27480, Pitch_bend_c, 4, 8348
1, 27482, Pitch_bend_c, 5, 8192
1, 27484, Pitch_bend_c, 4, 8192
1, 27489, Note_off_c, 3, 66, 64
1, 27498, Pitch_bend_c, 5, 8249
1, 27500, Note_off_c, 14, 63, 64
1, 27500, Pitch_bend_c, 4, 8244
1, 27502, Note_off_c, 15, 61, 64
1, 27502, Pitch_bend_c, 5, 8478
1, 27504, Note_on_c, 9, 42, 50
1, 27504, Pitch_bend_c, 4, 8452
1, 27505, Note_off_c, 9, 42, 64
1, 27505, Note_on_c, 14, 65, 102
1, 27505, Pitch_bend_c, 5, 8708
1, 27506, Note_on_c, 15, 63, 101
1, 27507, Pitch_bend_c, 4, 8660
1, 27508, Note_on_c, 3, 68, 105
1, 27513, Pitch_bend_c, 5, 8593
1, 27515, Pitch_bend_c, 4, 8556
1, 27517, Note_off_c, 14, 65, 64
1, 27517, Pitch_bend_c, 5, 8192
1, 27518, Note_off_c, 15, 63, 64
1, 27519, Pitch_bend_c, 4, 8192
1, 27521, Note_off_c, 3, 68, 64
1, 27529, Pitch_bend_c, 5, 8249
1, 27531, Pitch_bend_c, 4, 8244
1, 27533, Pitch_bend_c, 5, 8823
1, 27535, Pitch_bend_c, 4, 8765
1, 27537, Pitch_bend_c, 5, 9052
1, 27539, Pitch_bend_c, 4, 8973
1, 27544, Pitch_bend_c, 5, 8364
1, 27546, Pitch_bend_c, 4, 8348
1, 27549, Pitch_bend_c, 5, 8192
1, 27551, Pitch_bend_c, 4, 8192
1, 27552, Note_on_c, 9, 42, 110
1, 27552, Note_on_c, 9, 38, 115
1, 27553, Note_off_c, 9, 38, 64
1, 27553, Note_off_c, 9, 42, 64
1, 27553, Note_on_c, 9, 39, 127
1, 27554, Note_off_c, 9, 39, 64
1, 27556, Pitch_bend_c, 5, 8593
1, 27558, Pitch_bend_c, 4, 8556
1, 27559, Note_on_c, 10, 39, 127
1, 27560, Note_off_c, 10, 39, 64
1, 27560, Pitch_bend_c, 5, 9453
1, 27562, Pitch_bend_c, 4, 9337
1, 27564, Pitch_bend_c, 5, 9797
1, 27566, Pitch_bend_c, 4, 9649
1, 27572, Pitch_bend_c, 5, 9110
1, 27574, Pitch_bend_c, 4, 9025
1, 27576, Pitch_bend_c, 5, 8192
1, 27578, Pitch_bend_c, 4, 8192
1, 27586, Pitch_bend_c, 3, 7810
1, 27592, Pitch_bend_c, 3, 6676
1, 27595, Note_off_c, 5, 51, 64
1, 27595, Pitch_bend_c, 14, 6298
1, 27595, Pitch_bend_c, 15, 3148
1, 27597, Note_off_c, 8, 51, 64
1, 27597, Note_off_c, 4, 51, 64
1, 27597, Note_off_c, 1, 39, 64
1, 27597, Note_on_c, 5, 51, 114
1, 27598, Pitch_bend_c, 3, 5416
1, 27599, Note_on_c, 1, 39, 127
1, 27599, Note_on_c, 4, 51, 114
1, 27599, Note_on_c, 8, 51, 92
1, 27600, Pitch_bend_c, 14, 3022
1, 27600, Note_on_c, 9, 42, 50
1, 27601, Note_off_c, 9, 42, 64
1, 27601, Note_on_c, 14, 65, 106
1, 27601, Pitch_bend_c, 15, 1510
1, 27601, Note_on_c, 15, 63, 102
1, 27602, Pitch_bend_c, 5, 12704
1, 27602, Pitch_bend_c, 5, 10307
1, 27602, Pitch_bend_c, 8, 12288
1, 27604, Pitch_bend_c, 4, 10112
1, 27605, Pitch_bend_c, 1, 16320
1, 27605, Pitch_bend_c, 8, 16320
1, 27606, Note_on_c, 3, 68, 108
1, 27609, Pitch_bend_c, 14, 1636
1, 27609, Pitch_bend_c, 5, 14890
1, 27610, Pitch_bend_c, 15, 8192
1, 27611, Pitch_bend_c, 5, 16383
1, 27611, Pitch_bend_c, 4, 14272
1, 27613, Pitch_bend_c, 3, 6550
1, 27613, Pitch_bend_c, 4, 16320
1, 27614, Pitch_bend_c, 14, 5668
1, 27620, Pitch_bend_c, 3, 8192
1, 27620, Pitch_bend_c, 14, 8192
1, 27621, Note_off_c, 15, 63, 64
1, 27621, Note_off_c, 14, 65, 64
1, 27639, Note_off_c, 2, 66, 64
1, 27643, Note_off_c, 2, 70, 64
1, 27644, Note_off_c, 11, 82, 64
1, 27644, Note_off_c, 11, 78, 64
1, 27644, Note_off_c, 0, 66, 64
1, 27644, Note_off_c, 0, 58, 64
1, 27644, Note_off_c, 0, 63, 64
1, 27647, Note_on_c, 2, 68, 94
1, 27648, Note_on_c, 9, 42, 110
1, 27648, Note_on_c, 9, 36, 90
1, 27648, Note_on_c, 0, 61, 78
1, 27648, Note_on_c, 0, 56, 78
1, 27648, Note_on_c, 0, 65, 74
1, 27648, Note_on_c, 11, 80, 64
1, 27648, Note_on_c, 11, 77, 64
1, 27649, Note_off_c, 9, 36, 64
1, 27649, Note_off_c, 9, 42, 64
1, 27649, Note_on_c, 2, 65, 94
1, 27675, Note_off_c, 3, 68, 64
1, 27688, Note_off_c, 5, 51, 64
1, 27690, Note_off_c, 4, 51, 64
1, 27693, Note_off_c, 1, 39, 64
1, 27693, Note_off_c, 8, 51, 64
1, 27693, Pitch_bend_c, 5, 8192
1, 27694, Note_on_c, 5, 51, 114
1, 27695, Pitch_bend_c, 1, 8192
1, 27695, Pitch_bend_c, 4, 8192
1, 27695, Pitch_bend_c, 8, 8192
1, 27696, Note_on_c, 9, 42, 50
1, 27696, Note_on_c, 1, 39, 127
1, 27696, Note_on_c, 4, 51, 114
1, 27696, Note_on_c, 8, 51, 92
1, 27697, Note_off_c, 9, 42, 64
1, 27697, Note_on_c, 14, 63, 110
1, 27697, Note_on_c, 15, 61, 100
1, 27701, Note_on_c, 3, 66, 102
1, 27714, Note_off_c, 3, 66, 64
1, 27717, Note_off_c, 15, 61, 64
1, 27717, Note_off_c, 14, 63, 64
1, 27739, Note_off_c, 5, 51, 64
1, 27741, Note_off_c, 1, 39, 64
1, 27741, Note_off_c, 8, 51, 64
1, 27741, Note_off_c, 4, 51, 64
1, 27742, Note_on_c, 5, 49, 114
1, 27744, Note_on_c, 15, 63, 101
1, 27744, Note_on_c, 9, 42, 110
1, 27744, Note_on_c, 9, 38, 115
1, 27744, Note_on_c, 9, 36, 90
1, 27744, Note_on_c, 1, 37, 127
1, 27744, Note_on_c, 4, 49, 114
1, 27744, Note_on_c, 8, 49, 92
1, 27745, Note_off_c, 9, 36, 64
1, 27745, Note_off_c, 9, 38, 64
1, 27745, Note_off_c, 9, 42, 64
1, 27745, Note_on_c, 14, 65, 106
1, 27746, Note_on_c, 3, 68, 107
1, 27759, Note_off_c, 15, 63, 64
1, 27764, Note_off_c, 14, 65, 64
1, 27769, Note_off_c, 3, 68, 64
1, 27780, Note_off_c, 5, 49, 64
1, 27782, Note_off_c, 4, 49, 64
1, 27782, Note_off_c, 1, 37, 64
1, 27782, Note_off_c, 8, 49, 64
1, 27792, Note_on_c, 9, 42, 50
1, 27793, Note_off_c, 9, 42, 64
1, 27812, Pitch_bend_c, 15, 3904
1, 27818, Pitch_bend_c, 15, 1636
1, 27824, Pitch_bend_c, 15, 8647
1, 27831, Pitch_bend_c, 15, 8192
1, 27838, Note_on_c, 5, 49, 114
1, 27839, Note_on_c, 14, 63, 111
1, 27839, Note_on_c, 15, 61, 101
1, 27840, Note_on_c, 9, 42, 110
1, 27840, Note_on_c, 1, 37, 127
1, 27840, Note_on_c, 4, 49, 114
1, 27840, Note_on_c, 8, 49, 92
1, 27841, Note_off_c, 9, 42, 64
1, 27842, Note_on_c, 3, 66, 105
1, 27868, Note_off_c, 3, 66, 64
1, 27875, Note_off_c, 1, 37, 64
1, 27875, Note_off_c, 8, 49, 64
1, 27878, Note_off_c, 5, 49, 64
1, 27879, Note_off_c, 15, 61, 64
1, 27880, Note_off_c, 4, 49, 64
1, 27884, Note_off_c, 14, 63, 64
1, 27888, Note_on_c, 15, 58, 100
1, 27888, Note_on_c, 9, 42, 50
1, 27888, Note_on_c, 9, 36, 90
1, 27889, Note_off_c, 9, 36, 64
1, 27889, Note_off_c, 9, 42, 64
1, 27890, Note_on_c, 14, 61, 108
1, 27891, Note_on_c, 3, 63, 107
1, 27900, Note_off_c, 15, 58, 64
1, 27900, Note_off_c, 14, 61, 64
1, 27900, Note_off_c, 3, 63, 64
1, 27936, Note_on_c, 9, 42, 110
1, 27936, Note_on_c, 9, 38, 115
1, 27937, Note_off_c, 9, 38, 64
1, 27937, Note_off_c, 9, 42, 64
1, 27937, Note_on_c, 9, 39, 127
1, 27938, Note_off_c, 9, 39, 64
1, 27943, Note_on_c, 10, 39, 127
1, 27944, Note_off_c, 10, 39, 64
1, 27968, Pitch_bend_c, 14, 5794
1, 27968, Pitch_bend_c, 15, 7306
1, 27975, Pitch_bend_c, 3, 5920
1, 27975, Pitch_bend_c, 15, 4156
1, 27976, Pitch_bend_c, 14, 2392
1, 27982, Note_on_c, 5, 39, 114
1, 27983, Pitch_bend_c, 15, 1510
1, 27984, Pitch_bend_c, 3, 3526
1, 27984, Note_on_c, 14, 65, 107
1, 27984, Note_on_c, 9, 42, 50
1, 27984, Note_on_c, 1, 27, 127
1, 27984, Note_on_c, 4, 39, 114
1, 27984, Note_on_c, 8, 39, 92
1, 27985, Note_off_c, 9, 42, 64
1, 27985, Note_on_c, 15, 65, 100
1, 27987, Pitch_bend_c, 14, 3274
1, 27988, Note_on_c, 3, 68, 108
1, 27993, Pitch_bend_c, 15, 5794
1, 27995, Pitch_bend_c, 3, 4534
1, 27996, Pitch_bend_c, 14, 8192
1, 28002, Pitch_bend_c, 15, 8192
1, 28004, Note_off_c, 15, 65, 64
1, 28005, Pitch_bend_c, 3, 8192
1, 28010, Note_off_c, 14, 65, 64
1, 28015, Note_off_c, 2, 68, 64
1, 28018, Note_off_c, 2, 65, 64
1, 28018, Note_off_c, 3, 68, 64
1, 28022, Note_on_c, 2, 66, 94
1, 28025, Note_on_c, 2, 70, 94
1, 28028, Note_off_c, 11, 77, 64
1, 28028, Note_off_c, 11, 80, 64
1, 28028, Note_off_c, 0, 56, 64
1, 28028, Note_off_c, 0, 61, 64
1, 28028, Note_off_c, 0, 65, 64
1, 28032, Note_on_c, 9, 42, 110
1, 28032, Note_on_c, 9, 36, 90
1, 28032, Note_on_c, 0, 63, 78
1, 28032, Note_on_c, 0, 66, 79
1, 28032, Note_on_c, 0, 58, 74
1, 28032, Note_on_c, 11, 82, 64
1, 28032, Note_on_c, 11, 78, 64
1, 28033, Note_off_c, 9, 36, 64
1, 28033, Note_off_c, 9, 42, 64
1, 28076, Note_off_c, 5, 39, 64
1, 28078, Note_off_c, 4, 39, 64
1, 28078, Note_off_c, 8, 39, 64
1, 28078, Note_off_c, 1, 27, 64
1, 28078, Note_on_c, 5, 42, 114
1, 28080, Note_on_c, 9, 42, 50
1, 28080, Note_on_c, 1, 30, 127
1, 28080, Note_on_c, 4, 42, 114
1, 28080, Note_on_c, 8, 42, 92
1, 28081, Note_off_c, 9, 42, 64
1, 28081, Note_on_c, 14, 63, 110
1, 28081, Note_on_c, 15, 63, 101
1, 28085, Note_on_c, 3, 66, 108
1, 28094, Note_off_c, 15, 63, 64
1, 28096, Note_off_c, 14, 63, 64
1, 28103, Note_off_c, 3, 66, 64
1, 28124, Note_off_c, 5, 42, 64
1, 28126, Note_off_c, 1, 30, 64
1, 28126, Note_off_c, 8, 42, 64
1, 28126, Note_off_c, 4, 42, 64
1, 28126, Note_on_c, 5, 46, 114
1, 28128, Note_on_c, 9, 42, 110
1, 28128, Note_on_c, 9, 38, 115
1, 28128, Note_on_c, 1, 34, 127
1, 28128, Note_on_c, 4, 46, 114
1, 28128, Note_on_c, 8, 46, 92
1, 28129, Note_off_c, 9, 38, 64
1, 28129, Note_off_c, 9, 42, 64
1, 28129, Note_on_c, 14, 65, 102
1, 28131, Note_on_c, 3, 68, 108
1, 28131, Note_on_c, 15, 66, 99
1, 28148, Note_off_c, 15, 66, 64
1, 28149, Note_off_c, 14, 65, 64
1, 28159, Note_off_c, 3, 68, 64
1, 28172, Note_off_c, 5, 46, 64
1, 28174, Note_off_c, 8, 46, 64
1, 28174, Note_off_c, 4, 46, 64
1, 28174, Note_off_c, 1, 34, 64
1, 28174, Note_on_c, 5, 54, 114
1, 28176, Note_on_c, 9, 42, 50
1, 28176, Note_on_c, 1, 42, 127
1, 28176, Note_on_c, 4, 54, 114
1, 28176, Note_on_c, 8, 54, 92
1, 28177, Note_off_c, 9, 42, 64
1, 28213, Pitch_bend_c, 15, 7180
1, 28220, Note_off_c, 5, 54, 64
1, 28221, Pitch_bend_c, 15, 3022
1, 28222, Note_off_c, 1, 42, 64
1, 28222, Note_off_c, 8, 54, 64
1, 28222, Note_off_c, 4, 54, 64
1, 28222, Note_on_c, 5, 51, 114
1, 28224, Note_on_c, 15, 63, 101
1, 28224, Note_on_c, 9, 42, 110
1, 28224, Note_on_c, 9, 36, 90
1, 28224, Note_on_c, 1, 39, 127
1, 28224, Note_on_c, 4, 51, 114
1, 28224, Note_on_c, 8, 51, 92
1, 28225, Note_off_c, 9, 36, 64
1, 28225, Note_off_c, 9, 42, 64
1, 28225, Note_on_c, 14, 63, 111
1, 28228, Note_on_c, 3, 66, 107
1, 28231, Pitch_bend_c, 15, 2266
1, 28239, Pitch_bend_c, 15, 8192
1, 28247, Pitch_bend_c, 5, 8478
1, 28249, Pitch_bend_c, 4, 8452
1, 28251, Pitch_bend_c, 5, 9110
1, 28253, Pitch_bend_c, 4, 9025
1, 28255, Pitch_bend_c, 5, 9568
1, 28257, Pitch_bend_c, 4, 9441
1, 28259, Pitch_bend_c, 5, 9682
1, 28260, Note_off_c, 3, 66, 64
1, 28261, Note_off_c, 14, 63, 64
1, 28261, Pitch_bend_c, 4, 9545
1, 28265, Note_off_c, 15, 63, 64
1, 28267, Pitch_bend_c, 5, 7855
1, 28269, Pitch_bend_c, 4, 7886
1, 28270, Pitch_bend_c, 5, 8192
1, 28272, Note_on_c, 9, 42, 50
1, 28272, Pitch_bend_c, 4, 8192
1, 28273, Note_off_c, 9, 42, 64
1, 28273, Note_on_c, 14, 65, 105
1, 28275, Note_on_c, 15, 61, 100
1, 28276, Note_on_c, 3, 68, 105
1, 28282, Pitch_bend_c, 5, 8249
1, 28284, Pitch_bend_c, 4, 8244
1, 28286, Pitch_bend_c, 5, 9797
1, 28287, Note_off_c, 15, 61, 64
1, 28287, Note_off_c, 14, 65, 64
1, 28288, Pitch_bend_c, 4, 9649
1, 28289, Note_off_c, 3, 68, 64
1, 28290, Pitch_bend_c, 5, 9913
1, 28292, Pitch_bend_c, 4, 9754
1, 28297, Pitch_bend_c, 5, 9110
1, 28299, Pitch_bend_c, 4, 9025
1, 28301, Pitch_bend_c, 5, 8192
1, 28303, Pitch_bend_c, 4, 8192
1, 28309, Pitch_bend_c, 5, 8478
1, 28311, Pitch_bend_c, 4, 8452
1, 28313, Pitch_bend_c, 5, 9568
1, 28315, Pitch_bend_c, 4, 9441
1, 28317, Pitch_bend_c, 5, 9970
1, 28319, Pitch_bend_c, 4, 9806
1, 28320, Note_on_c, 9, 42, 110
1, 28320, Note_on_c, 9, 38, 115
1, 28321, Note_off_c, 9, 38, 64
1, 28321, Note_off_c, 9, 42, 64
1, 28321, Pitch_bend_c, 5, 10084
1, 28321, Note_on_c, 9, 39, 127
1, 28322, Note_off_c, 9, 39, 64
1, 28323, Pitch_bend_c, 4, 9910
1, 28325, Pitch_bend_c, 5, 9913
1, 28327, Note_on_c, 10, 39, 127
1, 28327, Pitch_bend_c, 4, 9754
1, 28328, Note_off_c, 10, 39, 64
1, 28329, Pitch_bend_c, 5, 8192
1, 28331, Pitch_bend_c, 4, 8192
1, 28354, Pitch_bend_c, 3, 3526
1, 28354, Pitch_bend_c, 14, 7810
1, 28363, Note_off_c, 5, 51, 64
1, 28364, Pitch_bend_c, 3, 2896
1, 28364, Pitch_bend_c, 14, 6424
1, 28365, Note_off_c, 8, 51, 64
1, 28365, Note_off_c, 4, 51, 64
1, 28365, Note_off_c, 1, 39, 64
1, 28365, Note_on_c, 5, 51, 114
1, 28366, Pitch_bend_c, 15, 3904
1, 28367, Note_on_c, 1, 39, 127
1, 28367, Note_on_c, 4, 51, 114
1, 28367, Note_on_c, 8, 51, 92
1, 28368, Note_on_c, 14, 65, 108
1, 28368, Note_on_c, 9, 42, 50
1, 28369, Note_off_c, 9, 42, 64
1, 28370, Note_on_c, 15, 63, 102
1, 28370, Pitch_bend_c, 5, 10307
1, 28371, Pitch_bend_c, 8, 12288
1, 28372, Note_on_c, 3, 68, 108
1, 28372, Pitch_bend_c, 4, 10112
1, 28373, Pitch_bend_c, 5, 12704
1, 28374, Pitch_bend_c, 15, 1636
1, 28374, Pitch_bend_c, 1, 16320
1, 28374, Pitch_bend_c, 8, 16320
1, 28375, Pitch_bend_c, 5, 14890
1, 28375, Pitch_bend_c, 4, 12288
1, 28377, Pitch_bend_c, 3, 3022
1, 28377, Pitch_bend_c, 5, 16383
1, 28377, Pitch_bend_c, 4, 14272
1, 28379, Pitch_bend_c, 4, 16320
1, 28383, Note_off_c, 15, 63, 64
1, 28385, Pitch_bend_c, 15, 7432
1, 28387, Pitch_bend_c, 3, 6172
1, 28387, Pitch_bend_c, 14, 8192
1, 28394, Note_off_c, 14, 65, 64
1, 28394, Pitch_bend_c, 15, 8192
1, 28398, Pitch_bend_c, 3, 8192
1, 28410, Note_off_c, 3, 68, 64
1, 28412, Note_off_c, 11, 82, 64
1, 28412, Note_off_c, 0, 66, 64
1, 28412, Note_off_c, 0, 63, 64
1, 28412, Note_off_c, 0, 58, 64
1, 28412, Note_off_c, 11, 78, 64
1, 28414, Note_off_c, 2, 66, 64
1, 28416, Note_on_c, 9, 42, 110
1, 28416, Note_on_c, 9, 36, 90
1, 28416, Note_on_c, 0, 61, 78
1, 28416, Note_on_c, 0, 56, 78
1, 28416, Note_on_c, 0, 65, 74
1, 28416, Note_on_c, 11, 80, 64
1, 28416, Note_on_c, 11, 77, 64
1, 28417, Note_off_c, 9, 36, 64
1, 28417, Note_off_c, 9, 42, 64
1, 28417, Note_on_c, 2, 65, 94
1, 28418, Note_off_c, 2, 70, 64
1, 28424, Note_on_c, 2, 68, 94
1, 28460, Note_off_c, 5, 51, 64
1, 28461, Pitch_bend_c, 5, 8192
1, 28462, Note_off_c, 4, 51, 64
1, 28462, Note_off_c, 1, 39, 64
1, 28462, Note_off_c, 8, 51, 64
1, 28462, Note_on_c, 5, 51, 114
1, 28463, Pitch_bend_c, 1, 8192
1, 28463, Pitch_bend_c, 4, 8192
1, 28463, Pitch_bend_c, 8, 8192
1, 28464, Note_on_c, 9, 42, 50
1, 28464, Note_on_c, 1, 39, 127
1, 28464, Note_on_c, 4, 51, 114
1, 28464, Note_on_c, 8, 51, 92
1, 28465, Note_off_c, 9, 42, 64
1, 28465, Note_on_c, 14, 63, 110
1, 28465, Note_on_c, 15, 61, 101
1, 28467, Note_on_c, 3, 66, 101
1, 28478, Note_off_c, 15, 61, 64
1, 28482, Note_off_c, 14, 63, 64
1, 28484, Note_off_c, 3, 66, 64
1, 28504, Note_off_c, 5, 51, 64
1, 28506, Note_off_c, 1, 39, 64
1, 28506, Note_off_c, 8, 51, 64
1, 28506, Note_off_c, 4, 51, 64
1, 28510, Note_on_c, 5, 49, 114
1, 28512, Note_on_c, 9, 42, 110
1, 28512, Note_on_c, 9, 38, 115
1, 28512, Note_on_c, 9, 36, 90
1, 28512, Note_on_c, 1, 37, 127
1, 28512, Note_on_c, 4, 49, 114
1, 28512, Note_on_c, 8, 49, 92
1, 28513, Note_off_c, 9, 36, 64
1, 28513, Note_off_c, 9, 38, 64
1, 28513, Note_off_c, 9, 42, 64
1, 28513, Note_on_c, 14, 65, 105
1, 28513, Note_on_c, 15, 63, 102
1, 28514, Note_on_c, 3, 68, 107
1, 28527, Note_off_c, 15, 63, 64
1, 28532, Note_off_c, 14, 65, 64
1, 28537, Note_off_c, 3, 68, 64
1, 28550, Note_off_c, 8, 49, 64
1, 28550, Note_off_c, 1, 37, 64
1, 28551, Note_off_c, 5, 49, 64
1, 28553, Note_off_c, 4, 49, 64
1, 28560, Note_on_c, 9, 42, 50
1, 28561, Note_off_c, 9, 42, 64
1, 28577, Pitch_bend_c, 15, 5794
1, 28585, Pitch_bend_c, 15, 1510
1, 28601, Pitch_bend_c, 15, 1636
1, 28608, Note_on_c, 14, 63, 110
1, 28608, Note_on_c, 15, 63, 102
1, 28608, Note_on_c, 9, 42, 110
1, 28609, Note_off_c, 9, 42, 64
1, 28610, Note_on_c, 3, 66, 107
1, 28612, Pitch_bend_c, 15, 8192
1, 28629, Note_off_c, 14, 63, 64
1, 28637, Note_off_c, 3, 66, 64
1, 28640, Note_off_c, 15, 63, 64
1, 28656, Note_on_c, 9, 42, 50
1, 28656, Note_on_c, 9, 36, 90
1, 28657, Note_off_c, 9, 36, 64
1, 28657, Note_off_c, 9, 42, 64
1, 28704, Note_on_c, 14, 65, 109
1, 28704, Note_on_c, 9, 42, 110
1, 28704, Note_on_c, 9, 38, 115
1, 28705, Note_off_c, 9, 38, 64
1, 28705, Note_off_c, 9, 42, 64
1, 28705, Note_on_c, 3, 68, 107
1, 28705, Note_on_c, 9, 39, 127
1, 28706, Note_off_c, 9, 39, 64
1, 28706, Note_on_c, 15, 61, 101
1, 28711, Note_on_c, 10, 39, 127
1, 28712, Note_off_c, 10, 39, 64
1, 28724, Note_off_c, 15, 61, 64
1, 28726, Note_off_c, 14, 65, 64
1, 28728, Note_off_c, 3, 68, 64
1, 28749, Pitch_bend_c, 5, 8192
1, 28750, Note_on_c, 5, 39, 114
1, 28751, Pitch_bend_c, 4, 8192
1, 28752, Note_on_c, 9, 42, 50
1, 28752, Note_on_c, 1, 27, 127
1, 28752, Note_on_c, 4, 39, 114
1, 28752, Note_on_c, 8, 39, 92
1, 28753, Note_off_c, 9, 42, 64
1, 28778, Pitch_bend_c, 15, 6550
1, 28783, Pitch_bend_c, 3, 7054
1, 28784, Pitch_bend_c, 14, 5416
1, 28787, Pitch_bend_c, 15, 3652
1, 28789, Note_off_c, 2, 68, 64
1, 28793, Pitch_bend_c, 3, 2770
1, 28793, Pitch_bend_c, 14, 1636
1, 28794, Note_off_c, 2, 65, 64
1, 28796, Note_off_c, 11, 77, 64
1, 28796, Note_off_c, 11, 80, 64
1, 28796, Note_off_c, 0, 65, 64
1, 28796, Note_off_c, 0, 56, 64
1, 28796, Note_off_c, 0, 61, 64
1, 28796, Pitch_bend_c, 15, 1636
1, 28796, Note_on_c, 2, 70, 94
1, 28798, Note_on_c, 2, 66, 94
1, 28799, Note_on_c, 14, 70, 111
1, 28800, Note_on_c, 15, 70, 102
1, 28800, Note_on_c, 9, 42, 110
1, 28800, Note_on_c, 9, 36, 90
1, 28800, Note_on_c, 0, 63, 78
1, 28800, Note_on_c, 0, 66, 79
1, 28800, Note_on_c, 0, 58, 74
1, 28800, Note_on_c, 11, 78, 64
1, 28800, Note_on_c, 11, 82, 64
1, 28801, Note_off_c, 9, 36, 64
1, 28801, Note_off_c, 9, 42, 64
1, 28802, Note_on_c, 3, 70, 108
1, 28805, Pitch_bend_c, 14, 3022
1, 28806, Pitch_bend_c, 3, 2896
1, 28808, Pitch_bend_c, 15, 2392
1, 28815, Pitch_bend_c, 14, 8192
1, 28817, Pitch_bend_c, 3, 6676
1, 28818, Pitch_bend_c, 15, 8192
1, 28827, Pitch_bend_c, 3, 8192
1, 28829, Note_off_c, 14, 70, 64
1, 28836, Note_off_c, 3, 70, 64
1, 28838, Note_off_c, 15, 70, 64
1, 28845, Note_off_c, 5, 39, 64
1, 28846, Note_on_c, 5, 42, 114
1, 28847, Note_off_c, 4, 39, 64
1, 28847, Note_off_c, 1, 27, 64
1, 28847, Note_off_c, 8, 39, 64
1, 28847, Note_on_c, 14, 70, 110
1, 28848, Note_on_c, 9, 42, 50
1, 28848, Note_on_c, 1, 30, 127
1, 28848, Note_on_c, 4, 42, 114
1, 28848, Note_on_c, 8, 42, 92
1, 28849, Note_off_c, 9, 42, 64
1, 28849, Note_on_c, 15, 70, 101
1, 28852, Note_on_c, 3, 70, 107
1, 28885, Control_c, 3, 1, 101
1, 28893, Note_off_c, 5, 42, 64
1, 28894, Note_on_c, 5, 46, 114
1, 28895, Note_off_c, 1, 30, 64
1, 28895, Note_off_c, 8, 42, 64
1, 28895, Note_off_c, 4, 42, 64
1, 28896, Note_on_c, 9, 42, 110
1, 28896, Note_on_c, 9, 38, 115
1, 28896, Note_on_c, 1, 34, 127
1, 28896, Note_on_c, 4, 46, 114
1, 28896, Note_on_c, 8, 46, 92
1, 28897, Note_off_c, 9, 38, 64
1, 28897, Note_off_c, 9, 42, 64
1, 28905, Control_c, 3, 1, 106
1, 28916, Control_c, 3, 1, 111
1, 28926, Control_c, 3, 1, 108
1, 28941, Note_off_c, 5, 46, 64
1, 28942, Note_on_c, 5, 54, 114
1, 28943, Note_off_c, 8, 46, 64
1, 28943, Note_off_c, 4, 46, 64
1, 28943, Note_off_c, 1, 34, 64
1, 28944, Control_c, 3, 1, 107
1, 28944, Note_on_c, 9, 42, 50
1, 28944, Note_on_c, 1, 42, 127
1, 28944, Note_on_c, 4, 54, 114
1, 28944, Note_on_c, 8, 54, 92
1, 28945, Note_off_c, 9, 42, 64
1, 28953, Control_c, 3, 1, 37
1, 28959, Note_off_c, 3, 70, 64
1, 28962, Control_c, 3, 1, 0
1, 28968, Note_off_c, 15, 70, 64
1, 28977, Note_off_c, 14, 70, 64
1, 28986, Pitch_bend_c, 15, 2014
1, 28987, Pitch_bend_c, 14, 2896
1, 28989, Note_off_c, 5, 54, 64
1, 28990, Note_on_c, 5, 51, 114
1, 28991, Note_off_c, 1, 42, 64
1, 28991, Note_off_c, 8, 54, 64
1, 28991, Note_off_c, 4, 54, 64
1, 28992, Note_on_c, 9, 42, 110
1, 28992, Note_on_c, 9, 36, 90
1, 28992, Note_on_c, 1, 39, 127
1, 28992, Note_on_c, 4, 51, 114
1, 28992, Note_on_c, 8, 51, 92
1, 28993, Note_off_c, 9, 36, 64
1, 28993, Note_off_c, 9, 42, 64
1, 28993, Note_on_c, 14, 66, 111
1, 28993, Note_on_c, 15, 63, 102
1, 28994, Pitch_bend_c, 15, 1510
1, 28999, Pitch_bend_c, 14, 5668
1, 29003, Pitch_bend_c, 5, 8249
1, 29005, Pitch_bend_c, 15, 4660
1, 29005, Pitch_bend_c, 4, 8244
1, 29007, Pitch_bend_c, 5, 8708
1, 29009, Pitch_bend_c, 4, 8660
1, 29010, Pitch_bend_c, 14, 8192
1, 29014, Pitch_bend_c, 5, 8364
1, 29015, Pitch_bend_c, 15, 8192
1, 29016, Pitch_bend_c, 4, 8348
1, 29018, Pitch_bend_c, 5, 8192
1, 29019, Note_off_c, 14, 66, 64
1, 29020, Pitch_bend_c, 4, 8192
1, 29028, Note_off_c, 15, 63, 64
1, 29034, Pitch_bend_c, 5, 8249
1, 29036, Pitch_bend_c, 4, 8244
1, 29038, Pitch_bend_c, 5, 8478
1, 29040, Note_on_c, 14, 66, 111
1, 29040, Note_on_c, 9, 42, 50
1, 29040, Pitch_bend_c, 4, 8452
1, 29041, Note_off_c, 9, 42, 64
1, 29041, Pitch_bend_c, 5, 8708
1, 29042, Note_on_c, 15, 63, 100
1, 29043, Pitch_bend_c, 4, 8660
1, 29049, Pitch_bend_c, 5, 8593
1, 29051, Pitch_bend_c, 4, 8556
1, 29053, Pitch_bend_c, 5, 8192
1, 29055, Pitch_bend_c, 4, 8192
1, 29065, Pitch_bend_c, 5, 8249
1, 29067, Pitch_bend_c, 4, 8244
1, 29069, Pitch_bend_c, 5, 8823
1, 29071, Pitch_bend_c, 4, 8765
1, 29073, Pitch_bend_c, 5, 9052
1, 29075, Pitch_bend_c, 4, 8973
1, 29080, Pitch_bend_c, 5, 8364
1, 29082, Pitch_bend_c, 4, 8348
1, 29085, Pitch_bend_c, 5, 8192
1, 29087, Pitch_bend_c, 4, 8192
1, 29088, Note_on_c, 9, 42, 110
1, 29088, Note_on_c, 9, 38, 115
1, 29089, Note_off_c, 9, 38, 64
1, 29089, Note_off_c, 9, 42, 64
1, 29089, Note_on_c, 9, 39, 127
1, 29090, Note_off_c, 9, 39, 64
1, 29092, Pitch_bend_c, 5, 8593
1, 29094, Pitch_bend_c, 4, 8556
1, 29095, Note_on_c, 10, 39, 127
1, 29096, Note_off_c, 10, 39, 64
1, 29096, Pitch_bend_c, 5, 9453
1, 29098, Pitch_bend_c, 4, 9337
1, 29100, Pitch_bend_c, 5, 9797
1, 29102, Pitch_bend_c, 4, 9649
1, 29108, Pitch_bend_c, 5, 9110
1, 29110, Pitch_bend_c, 4, 9025
1, 29112, Pitch_bend_c, 5, 8192
1, 29114, Pitch_bend_c, 4, 8192
1, 29128, Pitch_bend_c, 3, 7810
1, 29131, Note_off_c, 5, 51, 64
1, 29133, Note_off_c, 8, 51, 64
1, 29133, Note_off_c, 4, 51, 64
1, 29133, Note_off_c, 1, 39, 64
1, 29133, Pitch_bend_c, 3, 4156
1, 29133, Note_on_c, 5, 51, 114
1, 29135, Note_on_c, 1, 39, 127
1, 29135, Note_on_c, 4, 51, 114
1, 29135, Note_on_c, 8, 51, 92
1, 29136, Note_on_c, 9, 42, 50
1, 29137, Note_off_c, 9, 42, 64
1, 29138, Pitch_bend_c, 5, 12704
1, 29138, Pitch_bend_c, 5, 10307
1, 29138, Pitch_bend_c, 8, 12288
1, 29139, Pitch_bend_c, 3, 3526
1, 29140, Pitch_bend_c, 4, 10112
1, 29141, Pitch_bend_c, 1, 16320
1, 29141, Pitch_bend_c, 8, 16320
1, 29144, Pitch_bend_c, 3, 3274
1, 29145, Note_off_c, 14, 66, 64
1, 29145, Pitch_bend_c, 5, 14890
1, 29147, Pitch_bend_c, 5, 16383
1, 29147, Pitch_bend_c, 4, 14272
1, 29149, Pitch_bend_c, 4, 16320
1, 29152, Pitch_bend_c, 3, 3652
1, 29157, Pitch_bend_c, 3, 4534
1, 29159, Pitch_bend_c, 14, 3904
1, 29161, Note_off_c, 15, 63, 64
1, 29163, Pitch_bend_c, 3, 5164
1, 29167, Pitch_bend_c, 14, 2014
1, 29168, Pitch_bend_c, 3, 5794
1, 29174, Pitch_bend_c, 3, 6676
1, 29174, Pitch_bend_c, 14, 5038
1, 29176, Pitch_bend_c, 15, 5668
1, 29180, Note_off_c, 11, 78, 64
1, 29180, Note_off_c, 0, 58, 64
1, 29180, Note_off_c, 11, 82, 64
1, 29180, Note_off_c, 0, 66, 64
1, 29180, Note_off_c, 0, 63, 64
1, 29182, Note_on_c, 14, 70, 111
1, 29183, Pitch_bend_c, 14, 8192
1, 29184, Note_on_c, 15, 70, 102
1, 29184, Note_on_c, 9, 42, 110
1, 29184, Note_on_c, 9, 36, 90
1, 29184, Note_on_c, 0, 61, 78
1, 29184, Note_on_c, 0, 56, 78
1, 29184, Note_on_c, 0, 65, 74
1, 29184, Note_on_c, 11, 80, 64
1, 29184, Note_on_c, 11, 77, 64
1, 29185, Note_off_c, 9, 36, 64
1, 29185, Note_off_c, 9, 42, 64
1, 29186, Note_on_c, 3, 70, 105
1, 29186, Pitch_bend_c, 15, 1636
1, 29191, Pitch_bend_c, 3, 6802
1, 29196, Pitch_bend_c, 3, 7180
1, 29198, Pitch_bend_c, 15, 2896
1, 29201, Pitch_bend_c, 3, 7684
1, 29207, Pitch_bend_c, 3, 8192
1, 29209, Pitch_bend_c, 15, 8192
1, 29216, Note_off_c, 14, 70, 64
1, 29222, Note_off_c, 15, 70, 64
1, 29224, Note_off_c, 5, 51, 64
1, 29226, Note_off_c, 4, 51, 64
1, 29229, Note_off_c, 1, 39, 64
1, 29229, Note_off_c, 8, 51, 64
1, 29229, Pitch_bend_c, 5, 8192
1, 29230, Note_on_c, 5, 51, 114
1, 29231, Note_on_c, 14, 70, 109
1, 29231, Pitch_bend_c, 1, 8192
1, 29231, Pitch_bend_c, 4, 8192
1, 29231, Pitch_bend_c, 8, 8192
1, 29232, Note_on_c, 9, 42, 50
1, 29232, Note_on_c, 1, 39, 127
1, 29232, Note_on_c, 4, 51, 114
1, 29232, Note_on_c, 8, 51, 92
1, 29233, Note_off_c, 9, 42, 64
1, 29234, Note_on_c, 15, 70, 101
1, 29238, Note_off_c, 3, 70, 64
1, 29238, Note_on_c, 3, 70, 104
1, 29275, Note_off_c, 5, 51, 64
1, 29277, Note_off_c, 1, 39, 64
1, 29277, Note_off_c, 8, 51, 64
1, 29277, Note_off_c, 4, 51, 64
1, 29278, Note_on_c, 5, 49, 114
1, 29280, Note_on_c, 9, 42, 110
1, 29280, Note_on_c, 9, 38, 115
1, 29280, Note_on_c, 9, 36, 90
1, 29280, Note_on_c, 1, 37, 127
1, 29280, Note_on_c, 4, 49, 114
1, 29280, Note_on_c, 8, 49, 92
1, 29281, Note_off_c, 9, 36, 64
1, 29281, Note_off_c, 9, 38, 64
1, 29281, Note_off_c, 9, 42, 64
1, 29310, Note_off_c, 2, 66, 64
1, 29314, Control_c, 3, 1, 32
1, 29316, Note_off_c, 5, 49, 64
1, 29318, Note_off_c, 1, 37, 64
1, 29318, Note_off_c, 4, 49, 64
1, 29318, Note_off_c, 8, 49, 64
1, 29319, Control_c, 3, 1, 51
1, 29325, Control_c, 3, 1, 66
1, 29328, Note_on_c, 9, 42, 50
1, 29329, Note_off_c, 9, 42, 64
1, 29330, Control_c, 3, 1, 79
1, 29340, Note_off_c, 14, 70, 64
1, 29342, Control_c, 3, 1, 81
1, 29346, Note_off_c, 15, 70, 64
1, 29347, Control_c, 3, 1, 21
1, 29351, Pitch_bend_c, 14, 7810
1, 29353, Control_c, 3, 1, 0
1, 29356, Note_off_c, 3, 70, 64
1, 29357, Pitch_bend_c, 14, 2770
1, 29363, Pitch_bend_c, 14, 1762
1, 29365, Pitch_bend_c, 15, 1636
1, 29369, Pitch_bend_c, 14, 4156
1, 29374, Note_on_c, 14, 65, 110
1, 29374, Note_on_c, 5, 49, 114
1, 29375, Note_on_c, 15, 61, 102
1, 29376, Note_on_c, 9, 42, 110
1, 29376, Note_on_c, 1, 37, 127
1, 29376, Note_on_c, 4, 49, 114
1, 29376, Note_on_c, 8, 49, 92
1, 29376, Note_on_c, 2, 73, 94
1, 29377, Note_off_c, 9, 42, 64
1, 29378, Pitch_bend_c, 14, 8192
1, 29387, Pitch_bend_c, 15, 8192
1, 29406, Note_off_c, 14, 65, 64
1, 29411, Note_off_c, 8, 49, 64
1, 29411, Note_off_c, 1, 37, 64
1, 29414, Note_off_c, 5, 49, 64
1, 29416, Note_off_c, 4, 49, 64
1, 29421, Note_off_c, 15, 61, 64
1, 29422, Note_on_c, 14, 65, 101
1, 29424, Note_on_c, 9, 42, 50
1, 29424, Note_on_c, 9, 36, 90
1, 29425, Note_off_c, 9, 36, 64
1, 29425, Note_off_c, 9, 42, 64
1, 29426, Note_on_c, 15, 61, 100
1, 29472, Note_on_c, 9, 42, 110
1, 29472, Note_on_c, 9, 38, 115
1, 29473, Note_off_c, 9, 38, 64
1, 29473, Note_off_c, 9, 42, 64
1, 29473, Note_on_c, 9, 39, 127
1, 29474, Note_off_c, 9, 39, 64
1, 29479, Note_on_c, 10, 39, 127
1, 29480, Note_off_c, 10, 39, 64
1, 29488, Note_off_c, 14, 65, 64
1, 29498, Pitch_bend_c, 3, 7054
1, 29503, Pitch_bend_c, 3, 3652
1, 29505, Note_off_c, 15, 61, 64
1, 29506, Pitch_bend_c, 14, 7558
1, 29509, Pitch_bend_c, 3, 3022
1, 29513, Pitch_bend_c, 14, 3148
1, 29514, Pitch_bend_c, 3, 2770
1, 29515, Pitch_bend_c, 15, 7684
1, 29518, Note_on_c, 5, 39, 114
1, 29519, Pitch_bend_c, 14, 3400
1, 29520, Note_on_c, 9, 42, 50
1, 29520, Note_on_c, 1, 27, 127
1, 29520, Note_on_c, 4, 39, 114
1, 29520, Note_on_c, 8, 39, 92
1, 29521, Note_off_c, 9, 42, 64
1, 29521, Note_on_c, 14, 66, 111
1, 29522, Note_on_c, 15, 63, 102
1, 29524, Note_on_c, 3, 70, 108
1, 29526, Pitch_bend_c, 15, 5794
1, 29527, Pitch_bend_c, 3, 3148
1, 29528, Pitch_bend_c, 14, 8192
1, 29533, Pitch_bend_c, 3, 3778
1, 29539, Pitch_bend_c, 3, 6676
1, 29539, Pitch_bend_c, 15, 5920
1, 29545, Pitch_bend_c, 3, 7810
1, 29549, Pitch_bend_c, 15, 8192
1, 29550, Pitch_bend_c, 3, 8192
1, 29563, Note_off_c, 2, 73, 64
1, 29564, Note_off_c, 11, 80, 64
1, 29564, Note_off_c, 0, 56, 64
1, 29564, Note_off_c, 0, 61, 64
1, 29564, Note_off_c, 0, 65, 64
1, 29564, Note_off_c, 11, 77, 64
1, 29567, Note_on_c, 2, 75, 94
1, 29568, Note_on_c, 9, 42, 110
1, 29568, Note_on_c, 9, 36, 90
1, 29568, Note_on_c, 0, 63, 78
1, 29568, Note_on_c, 0, 66, 79
1, 29568, Note_on_c, 0, 58, 74
1, 29568, Note_on_c, 11, 82, 64
1, 29568, Note_on_c, 11, 78, 64
1, 29569, Note_off_c, 9, 36, 64
1, 29569, Note_off_c, 9, 42, 64
1, 29587, Note_off_c, 15, 63, 64
1, 29588, Note_off_c, 14, 66, 64
1, 29601, Note_off_c, 3, 70, 64
1, 29612, Note_off_c, 5, 39, 64
1, 29614, Note_off_c, 8, 39, 64
1, 29614, Note_off_c, 4, 39, 64
1, 29614, Note_off_c, 1, 27, 64
1, 29614, Note_on_c, 5, 42, 114
1, 29616, Note_on_c, 15, 63, 98
1, 29616, Note_on_c, 9, 42, 50
1, 29616, Note_on_c, 1, 30, 127
1, 29616, Note_on_c, 4, 42, 114
1, 29616, Note_on_c, 8, 42, 92
1, 29617, Note_off_c, 9, 42, 64
1, 29617, Note_on_c, 14, 66, 105
1, 29621, Note_on_c, 3, 70, 105
1, 29627, Note_off_c, 14, 66, 64
1, 29630, Note_off_c, 15, 63, 64
1, 29632, Note_off_c, 3, 70, 64
1, 29660, Note_off_c, 5, 42, 64
1, 29662, Note_off_c, 1, 30, 64
1, 29662, Note_off_c, 8, 42, 64
1, 29662, Note_off_c, 4, 42, 64
1, 29662, Note_on_c, 5, 46, 114
1, 29664, Note_on_c, 14, 66, 106
1, 29664, Note_on_c, 15, 63, 100
1, 29664, Note_on_c, 9, 42, 110
1, 29664, Note_on_c, 9, 38, 115
1, 29664, Note_on_c, 1, 34, 127
1, 29664, Note_on_c, 4, 46, 114
1, 29664, Note_on_c, 8, 46, 92
1, 29665, Note_off_c, 9, 38, 64
1, 29665, Note_off_c, 9, 42, 64
1, 29667, Note_on_c, 3, 70, 107
1, 29676, Note_off_c, 15, 63, 64
1, 29677, Note_off_c, 14, 66, 64
1, 29682, Note_off_c, 3, 70, 64
1, 29708, Note_off_c, 5, 46, 64
1, 29710, Note_off_c, 8, 46, 64
1, 29710, Note_off_c, 4, 46, 64
1, 29710, Note_off_c, 1, 34, 64
1, 29710, Note_on_c, 5, 54, 114
1, 29712, Note_on_c, 14, 66, 107
1, 29712, Note_on_c, 15, 63, 98
1, 29712, Note_on_c, 9, 42, 50
1, 29712, Note_on_c, 1, 42, 127
1, 29712, Note_on_c, 4, 54, 114
1, 29712, Note_on_c, 8, 54, 92
1, 29713, Note_off_c, 9, 42, 64
1, 29716, Note_on_c, 3, 70, 100
1, 29725, Note_off_c, 3, 70, 64
1, 29726, Note_off_c, 14, 66, 64
1, 29728, Note_off_c, 15, 63, 64
1, 29736, Pitch_bend_c, 3, 6172
1, 29742, Pitch_bend_c, 3, 3652
1, 29743, Pitch_bend_c, 15, 6550
1, 29748, Pitch_bend_c, 3, 3400
1, 29751, Pitch_bend_c, 14, 7558
1, 29754, Pitch_bend_c, 15, 5668
1, 29755, Pitch_bend_c, 3, 4030
1, 29756, Note_off_c, 5, 54, 64
1, 29758, Note_off_c, 1, 42, 64
1, 29758, Note_off_c, 8, 54, 64
1, 29758, Note_off_c, 4, 54, 64
1, 29758, Pitch_bend_c, 14, 5038
1, 29758, Note_on_c, 5, 51, 114
1, 29760, Note_on_c, 14, 70, 111
1, 29760, Note_on_c, 9, 42, 110
1, 29760, Note_on_c, 9, 36, 90
1, 29760, Note_on_c, 1, 39, 127
1, 29760, Note_on_c, 4, 51, 114
1, 29760, Note_on_c, 8, 51, 92
1, 29761, Note_off_c, 9, 36, 64
1, 29761, Note_off_c, 9, 42, 64
1, 29761, Note_on_c, 15, 66, 102
1, 29762, Note_on_c, 3, 73, 108
1, 29764, Pitch_bend_c, 3, 7054
1, 29765, Pitch_bend_c, 15, 6046
1, 29771, Pitch_bend_c, 3, 8192
1, 29775, Pitch_bend_c, 14, 8192
1, 29775, Pitch_bend_c, 15, 8192
1, 29783, Pitch_bend_c, 5, 8478
1, 29785, Pitch_bend_c, 4, 8452
1, 29787, Pitch_bend_c, 5, 9110
1, 29789, Pitch_bend_c, 4, 9025
1, 29791, Pitch_bend_c, 5, 9568
1, 29793, Pitch_bend_c, 4, 9441
1, 29795, Pitch_bend_c, 5, 9682
1, 29797, Pitch_bend_c, 4, 9545
1, 29803, Pitch_bend_c, 5, 7855
1, 29805, Pitch_bend_c, 4, 7886
1, 29806, Pitch_bend_c, 5, 8192
1, 29808, Note_on_c, 9, 42, 50
1, 29808, Pitch_bend_c, 4, 8192
1, 29809, Note_off_c, 9, 42, 64
1, 29818, Pitch_bend_c, 5, 8249
1, 29820, Pitch_bend_c, 4, 8244
1, 29822, Pitch_bend_c, 5, 9797
1, 29824, Pitch_bend_c, 4, 9649
1, 29826, Pitch_bend_c, 5, 9913
1, 29828, Pitch_bend_c, 4, 9754
1, 29829, Note_off_c, 3, 73, 64
1, 29831, Note_off_c, 15, 66, 64
1, 29833, Note_off_c, 14, 70, 64
1, 29833, Pitch_bend_c, 5, 9110
1, 29835, Pitch_bend_c, 4, 9025
1, 29837, Pitch_bend_c, 5, 8192
1, 29839, Pitch_bend_c, 4, 8192
1, 29845, Pitch_bend_c, 5, 8478
1, 29847, Pitch_bend_c, 4, 8452
1, 29849, Pitch_bend_c, 5, 9568
1, 29851, Pitch_bend_c, 4, 9441
1, 29853, Pitch_bend_c, 5, 9970
1, 29855, Note_on_c, 14, 66, 110
1, 29855, Pitch_bend_c, 4, 9806
1, 29856, Note_on_c, 15, 63, 100
1, 29856, Note_on_c, 9, 42, 110
1, 29856, Note_on_c, 9, 38, 115
1, 29857, Note_off_c, 9, 38, 64
1, 29857, Note_off_c, 9, 42, 64
1, 29857, Pitch_bend_c, 5, 10084
1, 29857, Note_on_c, 9, 39, 127
1, 29858, Note_off_c, 9, 39, 64
1, 29858, Note_on_c, 3, 70, 104
1, 29859, Pitch_bend_c, 4, 9910
1, 29861, Pitch_bend_c, 5, 9913
1, 29863, Note_on_c, 10, 39, 127
1, 29863, Pitch_bend_c, 4, 9754
1, 29864, Note_off_c, 10, 39, 64
1, 29865, Pitch_bend_c, 5, 8192
1, 29867, Pitch_bend_c, 4, 8192
1, 29870, Note_off_c, 3, 70, 64
1, 29874, Note_off_c, 15, 63, 64
1, 29878, Note_off_c, 14, 66, 64
1, 29882, Pitch_bend_c, 3, 6172
1, 29890, Pitch_bend_c, 3, 1510
1, 29893, Pitch_bend_c, 14, 5794
1, 29895, Pitch_bend_c, 15, 5290
1, 29899, Note_off_c, 5, 51, 64
1, 29900, Pitch_bend_c, 14, 2770
1, 29901, Note_off_c, 8, 51, 64
1, 29901, Note_off_c, 4, 51, 64
1, 29901, Note_off_c, 1, 39, 64
1, 29901, Note_on_c, 5, 51, 114
1, 29903, Note_on_c, 1, 39, 127
1, 29903, Note_on_c, 4, 51, 114
1, 29903, Note_on_c, 8, 51, 92
1, 29904, Note_on_c, 14, 68, 111
1, 29904, Note_on_c, 15, 65, 101
1, 29904, Note_on_c, 9, 42, 50
1, 29905, Note_off_c, 9, 42, 64
1, 29905, Pitch_bend_c, 3, 4408
1, 29906, Pitch_bend_c, 5, 10307
1, 29907, Pitch_bend_c, 8, 12288
1, 29908, Note_on_c, 3, 73, 108
1, 29908, Pitch_bend_c, 15, 2518
1, 29908, Pitch_bend_c, 4, 10112
1, 29909, Pitch_bend_c, 14, 7684
1, 29909, Pitch_bend_c, 5, 12704
1, 29910, Pitch_bend_c, 1, 16320
1, 29910, Pitch_bend_c, 8, 16320
1, 29911, Pitch_bend_c, 5, 14890
1, 29911, Pitch_bend_c, 4, 12288
1, 29913, Pitch_bend_c, 5, 16383
1, 29913, Pitch_bend_c, 4, 14272
1, 29915, Pitch_bend_c, 4, 16320
1, 29916, Pitch_bend_c, 3, 8192
1, 29917, Pitch_bend_c, 14, 8192
1, 29918, Pitch_bend_c, 15, 3526
1, 29928, Pitch_bend_c, 15, 8192
1, 29944, Note_off_c, 2, 75, 64
1, 29948, Note_off_c, 11, 82, 64
1, 29948, Note_off_c, 0, 66, 64
1, 29948, Note_off_c, 0, 58, 64
1, 29948, Note_off_c, 0, 63, 64
1, 29948, Note_off_c, 11, 78, 64
1, 29950, Note_on_c, 2, 73, 94
1, 29952, Note_on_c, 9, 42, 110
1, 29952, Note_on_c, 9, 36, 90
1, 29952, Note_on_c, 0, 61, 78
1, 29952, Note_on_c, 0, 56, 78
1, 29952, Note_on_c, 0, 65, 74
1, 29952, Note_on_c, 11, 80, 64
1, 29952, Note_on_c, 11, 77, 64
1, 29953, Note_off_c, 9, 36, 64
1, 29953, Note_off_c, 9, 42, 64
1, 29977, Note_off_c, 3, 73, 64
1, 29983, Note_off_c, 14, 68, 64
1, 29992, Note_off_c, 15, 65, 64
1, 29996, Note_off_c, 5, 51, 64
1, 29997, Pitch_bend_c, 5, 8192
1, 29998, Note_off_c, 1, 39, 64
1, 29998, Note_off_c, 4, 51, 64
1, 29998, Note_off_c, 8, 51, 64
1, 29998, Note_on_c, 5, 51, 114
1, 29999, Note_on_c, 14, 65, 108
1, 29999, Pitch_bend_c, 1, 8192
1, 29999, Pitch_bend_c, 4, 8192
1, 29999, Pitch_bend_c, 8, 8192
1, 30000, Note_on_c, 15, 61, 102
1, 30000, Note_on_c, 9, 42, 50
1, 30000, Note_on_c, 1, 39, 127
1, 30000, Note_on_c, 4, 51, 114
1, 30000, Note_on_c, 8, 51, 92
1, 30001, Note_off_c, 9, 42, 64
1, 30003, Note_on_c, 3, 70, 108
1, 30019, Note_off_c, 14, 65, 64
1, 30020, Note_off_c, 15, 61, 64
1, 30023, Note_off_c, 3, 70, 64
1, 30040, Note_off_c, 5, 51, 64
1, 30042, Note_off_c, 1, 39, 64
1, 30042, Note_off_c, 8, 51, 64
1, 30042, Note_off_c, 4, 51, 64
1, 30046, Note_on_c, 5, 49, 114
1, 30048, Note_on_c, 9, 42, 110
1, 30048, Note_on_c, 9, 38, 115
1, 30048, Note_on_c, 9, 36, 90
1, 30048, Note_on_c, 1, 37, 127
1, 30048, Note_on_c, 4, 49, 114
1, 30048, Note_on_c, 8, 49, 92
1, 30049, Note_off_c, 9, 36, 64
1, 30049, Note_off_c, 9, 38, 64
1, 30049, Note_off_c, 9, 42, 64
1, 30086, Note_off_c, 8, 49, 64
1, 30086, Note_off_c, 1, 37, 64
1, 30087, Note_off_c, 5, 49, 64
1, 30089, Note_off_c, 4, 49, 64
1, 30096, Note_on_c, 9, 42, 50
1, 30097, Note_off_c, 9, 42, 64
1, 30144, Note_on_c, 9, 42, 110
1, 30145, Note_off_c, 9, 42, 64
1, 30192, Note_on_c, 9, 42, 50
1, 30192, Note_on_c, 9, 36, 90
1, 30193, Note_off_c, 9, 36, 64
1, 30193, Note_off_c, 9, 42, 64
1, 30240, Note_on_c, 9, 42, 110
1, 30240, Note_on_c, 9, 38, 115
1, 30241, Note_off_c, 9, 38, 64
1, 30241, Note_off_c, 9, 42, 64
1, 30241, Note_on_c, 9, 39, 127
1, 30242, Note_off_c, 9, 39, 64
1, 30247, Note_on_c, 10, 39, 127
1, 30248, Note_off_c, 10, 39, 64
1, 30263, Pitch_bend_c, 15, 7810
1, 30265, Pitch_bend_c, 3, 7306
1, 30270, Pitch_bend_c, 15, 6172
1, 30272, Pitch_bend_c, 3, 4156
1, 30273, Pitch_bend_c, 14, 7810
1, 30276, Pitch_bend_c, 15, 1636
1, 30278, Pitch_bend_c, 14, 3652
1, 30279, Pitch_bend_c, 3, 3778
1, 30283, Pitch_bend_c, 14, 2266
1, 30285, Pitch_bend_c, 5, 8192
1, 30286, Note_on_c, 5, 39, 114
1, 30287, Note_on_c, 14, 65, 110
1, 30287, Pitch_bend_c, 4, 8192
1, 30288, Note_on_c, 9, 42, 50
1, 30288, Note_on_c, 1, 27, 127
1, 30288, Note_on_c, 4, 39, 114
1, 30288, Note_on_c, 8, 39, 92
1, 30289, Note_off_c, 9, 42, 64
1, 30289, Note_on_c, 15, 66, 102
1, 30291, Note_on_c, 3, 68, 108
1, 30295, Pitch_bend_c, 14, 7810
1, 30296, Pitch_bend_c, 15, 4408
1, 30297, Pitch_bend_c, 3, 4786
1, 30300, Pitch_bend_c, 14, 8192
1, 30303, Pitch_bend_c, 15, 8192
1, 30305, Pitch_bend_c, 3, 8192
1, 30307, Note_off_c, 2, 70, 64
1, 30310, Note_off_c, 14, 65, 64
1, 30313, Note_off_c, 15, 66, 64
1, 30316, Note_off_c, 2, 73, 64
1, 30322, Note_on_c, 2, 70, 94
1, 30328, Note_off_c, 3, 68, 64
1, 30328, Note_on_c, 2, 66, 94
1, 30332, Note_off_c, 11, 80, 64
1, 30332, Note_off_c, 0, 56, 64
1, 30332, Note_off_c, 0, 65, 64
1, 30332, Note_off_c, 0, 61, 64
1, 30332, Note_off_c, 11, 77, 64
1, 30336, Note_on_c, 9, 42, 110
1, 30336, Note_on_c, 9, 36, 90
1, 30336, Note_on_c, 0, 63, 78
1, 30336, Note_on_c, 0, 66, 79
1, 30336, Note_on_c, 0, 58, 74
1, 30336, Note_on_c, 11, 82, 64
1, 30336, Note_on_c, 11, 78, 64
1, 30337, Note_off_c, 9, 36, 64
1, 30337, Note_off_c, 9, 42, 64
1, 30381, Note_off_c, 5, 39, 64
1, 30382, Note_on_c, 5, 42, 114
1, 30383, Note_off_c, 1, 27, 64
1, 30383, Note_off_c, 4, 39, 64
1, 30383, Note_off_c, 8, 39, 64
1, 30384, Note_on_c, 9, 42, 50
1, 30384, Note_on_c, 1, 30, 127
1, 30384, Note_on_c, 4, 42, 114
1, 30384, Note_on_c, 8, 42, 92
1, 30385, Note_off_c, 9, 42, 64
1, 30385, Note_on_c, 14, 63, 110
1, 30385, Note_on_c, 15, 63, 99
1, 30387, Note_on_c, 3, 66, 107
1, 30396, Note_off_c, 15, 63, 64
1, 30398, Note_off_c, 14, 63, 64
1, 30404, Note_off_c, 3, 66, 64
1, 30429, Note_off_c, 5, 42, 64
1, 30430, Note_on_c, 5, 46, 114
1, 30431, Note_off_c, 1, 30, 64
1, 30431, Note_off_c, 8, 42, 64
1, 30431, Note_off_c, 4, 42, 64
1, 30432, Note_on_c, 15, 66, 102
1, 30432, Note_on_c, 9, 42, 110
1, 30432, Note_on_c, 9, 38, 115
1, 30432, Note_on_c, 1, 34, 127
1, 30432, Note_on_c, 4, 46, 114
1, 30432, Note_on_c, 8, 46, 92
1, 30433, Note_off_c, 9, 38, 64
1, 30433, Note_off_c, 9, 42, 64
1, 30433, Note_on_c, 14, 65, 106
1, 30434, Note_on_c, 3, 68, 107
1, 30447, Note_off_c, 15, 66, 64
1, 30452, Note_off_c, 14, 65, 64
1, 30458, Note_off_c, 3, 68, 64
1, 30477, Note_off_c, 5, 46, 64
1, 30478, Note_on_c, 5, 54, 114
1, 30479, Note_off_c, 8, 46, 64
1, 30479, Note_off_c, 4, 46, 64
1, 30479, Note_off_c, 1, 34, 64
1, 30480, Note_on_c, 9, 42, 50
1, 30480, Note_on_c, 1, 42, 127
1, 30480, Note_on_c, 4, 54, 114
1, 30480, Note_on_c, 8, 54, 92
1, 30481, Note_off_c, 9, 42, 64
1, 30513, Pitch_bend_c, 14, 6802
1, 30513, Pitch_bend_c, 15, 6676
1, 30518, Pitch_bend_c, 14, 3652
1, 30518, Pitch_bend_c, 15, 3400
1, 30523, Pitch_bend_c, 15, 1636
1, 30525, Note_off_c, 5, 54, 64
1, 30526, Note_on_c, 14, 63, 111
1, 30526, Note_on_c, 5, 51, 114
1, 30527, Note_off_c, 1, 42, 64
1, 30527, Note_off_c, 8, 54, 64
1, 30527, Note_off_c, 4, 54, 64
1, 30528, Note_on_c, 15, 61, 101
1, 30528, Note_on_c, 9, 42, 110
1, 30528, Note_on_c, 9, 36, 90
1, 30528, Note_on_c, 1, 39, 127
1, 30528, Note_on_c, 4, 51, 114
1, 30528, Note_on_c, 8, 51, 92
1, 30529, Note_off_c, 9, 36, 64
1, 30529, Note_off_c, 9, 42, 64
1, 30530, Pitch_bend_c, 14, 7810
1, 30532, Note_on_c, 3, 66, 107
1, 30535, Pitch_bend_c, 15, 6802
1, 30536, Pitch_bend_c, 14, 8192
1, 30539, Pitch_bend_c, 5, 8249
1, 30541, Pitch_bend_c, 15, 8192
1, 30541, Pitch_bend_c, 4, 8244
1, 30543, Pitch_bend_c, 5, 8708
1, 30545, Pitch_bend_c, 4, 8660
1, 30550, Pitch_bend_c, 5, 8364
1, 30552, Pitch_bend_c, 4, 8348
1, 30554, Pitch_bend_c, 5, 8192
1, 30556, Pitch_bend_c, 4, 8192
1, 30567, Note_off_c, 14, 63, 64
1, 30569, Note_off_c, 15, 61, 64
1, 30570, Pitch_bend_c, 5, 8249
1, 30572, Note_off_c, 3, 66, 64
1, 30572, Pitch_bend_c, 4, 8244
1, 30574, Pitch_bend_c, 5, 8478
1, 30576, Note_on_c, 15, 63, 101
1, 30576, Note_on_c, 9, 42, 50
1, 30576, Pitch_bend_c, 4, 8452
1, 30577, Note_off_c, 9, 42, 64
1, 30577, Note_on_c, 14, 65, 102
1, 30577, Pitch_bend_c, 5, 8708
1, 30579, Pitch_bend_c, 4, 8660
1, 30580, Note_on_c, 3, 68, 104
1, 30585, Pitch_bend_c, 5, 8593
1, 30587, Note_off_c, 15, 63, 64
1, 30587, Pitch_bend_c, 4, 8556
1, 30589, Pitch_bend_c, 5, 8192
1, 30590, Note_off_c, 14, 65, 64
1, 30591, Pitch_bend_c, 4, 8192
1, 30593, Note_off_c, 3, 68, 64
1, 30601, Pitch_bend_c, 5, 8249
1, 30603, Pitch_bend_c, 4, 8244
1, 30605, Pitch_bend_c, 5, 8823
1, 30607, Pitch_bend_c, 4, 8765
1, 30609, Pitch_bend_c, 5, 9052
1, 30611, Pitch_bend_c, 4, 8973
1, 30616, Pitch_bend_c, 5, 8364
1, 30618, Pitch_bend_c, 4, 8348
1, 30621, Pitch_bend_c, 5, 8192
1, 30623, Pitch_bend_c, 4, 8192
1, 30624, Note_on_c, 9, 42, 110
1, 30624, Note_on_c, 9, 38, 115
1, 30625, Note_off_c, 9, 38, 64
1, 30625, Note_off_c, 9, 42, 64
1, 30625, Note_on_c, 9, 39, 127
1, 30626, Note_off_c, 9, 39, 64
1, 30628, Pitch_bend_c, 5, 8593
1, 30630, Pitch_bend_c, 4, 8556
1, 30631, Note_on_c, 10, 39, 127
1, 30632, Note_off_c, 10, 39, 64
1, 30632, Pitch_bend_c, 5, 9453
1, 30634, Pitch_bend_c, 4, 9337
1, 30636, Pitch_bend_c, 5, 9797
1, 30638, Pitch_bend_c, 4, 9649
1, 30644, Pitch_bend_c, 5, 9110
1, 30646, Pitch_bend_c, 4, 9025
1, 30648, Pitch_bend_c, 5, 8192
1, 30650, Pitch_bend_c, 4, 8192
1, 30655, Pitch_bend_c, 14, 7810
1, 30657, Pitch_bend_c, 3, 5920
1, 30661, Pitch_bend_c, 14, 4786
1, 30663, Pitch_bend_c, 3, 3652
1, 30665, Pitch_bend_c, 15, 5542
1, 30667, Note_off_c, 5, 51, 64
1, 30669, Note_off_c, 8, 51, 64
1, 30669, Note_off_c, 4, 51, 64
1, 30669, Note_off_c, 1, 39, 64
1, 30669, Pitch_bend_c, 3, 2266
1, 30669, Note_on_c, 5, 51, 114
1, 30671, Pitch_bend_c, 15, 1636
1, 30671, Note_on_c, 1, 39, 127
1, 30671, Note_on_c, 4, 51, 114
1, 30671, Note_on_c, 8, 51, 92
1, 30672, Note_on_c, 14, 65, 108
1, 30672, Note_on_c, 9, 42, 50
1, 30673, Note_off_c, 9, 42, 64
1, 30673, Note_on_c, 15, 63, 102
1, 30674, Pitch_bend_c, 5, 12704
1, 30674, Pitch_bend_c, 5, 10307
1, 30674, Pitch_bend_c, 8, 12288
1, 30675, Pitch_bend_c, 14, 7306
1, 30676, Pitch_bend_c, 4, 10112
1, 30677, Pitch_bend_c, 1, 16320
1, 30677, Pitch_bend_c, 8, 16320
1, 30678, Note_on_c, 3, 68, 108
1, 30680, Pitch_bend_c, 15, 8192
1, 30681, Pitch_bend_c, 5, 14890
1, 30682, Pitch_bend_c, 14, 8192
1, 30683, Pitch_bend_c, 5, 16383
1, 30683, Pitch_bend_c, 4, 14272
1, 30684, Pitch_bend_c, 3, 2644
1, 30685, Pitch_bend_c, 4, 16320
1, 30689, Note_off_c, 15, 63, 64
1, 30690, Note_off_c, 14, 65, 64
1, 30691, Pitch_bend_c, 3, 4912
1, 30698, Pitch_bend_c, 3, 8192
1, 30716, Note_off_c, 11, 82, 64
1, 30716, Note_off_c, 11, 78, 64
1, 30716, Note_off_c, 0, 66, 64
1, 30716, Note_off_c, 0, 63, 64
1, 30716, Note_off_c, 0, 58, 64
1, 30716, Note_off_c, 3, 68, 64
1, 30720, Note_on_c, 9, 42, 110
1, 30720, Note_on_c, 9, 36, 90
1, 30720, Note_on_c, 0, 61, 78
1, 30720, Note_on_c, 0, 56, 78
1, 30720, Note_on_c, 0, 65, 74
1, 30720, Note_on_c, 11, 80, 64
1, 30720, Note_on_c, 11, 77, 64
1, 30721, Note_off_c, 9, 36, 64
1, 30721, Note_off_c, 9, 42, 64
1, 30721, Note_off_c, 2, 66, 64
1, 30760, Note_off_c, 5, 51, 64
1, 30762, Note_off_c, 4, 51, 64
1, 30765, Note_off_c, 1, 39, 64
1, 30765, Note_off_c, 8, 51, 64
1, 30765, Pitch_bend_c, 5, 8192
1, 30766, Note_on_c, 5, 51, 114
1, 30767, Pitch_bend_c, 1, 8192
1, 30767, Pitch_bend_c, 4, 8192
1, 30767, Pitch_bend_c, 8, 8192
1, 30768, Note_on_c, 15, 61, 100
1, 30768, Note_on_c, 9, 42, 50
1, 30768, Note_on_c, 1, 39, 127
1, 30768, Note_on_c, 4, 51, 114
1, 30768, Note_on_c, 8, 51, 92
1, 30769, Note_off_c, 9, 42, 64
1, 30769, Note_on_c, 14, 63, 110
1, 30773, Note_on_c, 3, 66, 107
1, 30784, Note_off_c, 15, 61, 64
1, 30785, Note_off_c, 14, 63, 64
1, 30791, Note_off_c, 3, 66, 64
1, 30811, Note_off_c, 5, 51, 64
1, 30813, Note_off_c, 1, 39, 64
1, 30813, Note_off_c, 8, 51, 64
1, 30813, Note_off_c, 4, 51, 64
1, 30814, Note_on_c, 5, 49, 114
1, 30815, Note_on_c, 14, 65, 106
1, 30816, Note_on_c, 15, 63, 102
1, 30816, Note_on_c, 9, 42, 110
1, 30816, Note_on_c, 9, 38, 115
1, 30816, Note_on_c, 9, 36, 90
1, 30816, Note_on_c, 1, 37, 127
1, 30816, Note_on_c, 4, 49, 114
1, 30816, Note_on_c, 8, 49, 92
1, 30817, Note_off_c, 9, 36, 64
1, 30817, Note_off_c, 9, 38, 64
1, 30817, Note_off_c, 9, 42, 64
1, 30818, Note_on_c, 3, 68, 107
1, 30832, Note_off_c, 15, 63, 64
1, 30835, Note_off_c, 14, 65, 64
1, 30842, Note_off_c, 3, 68, 64
1, 30852, Note_off_c, 5, 49, 64
1, 30854, Note_off_c, 4, 49, 64
1, 30854, Note_off_c, 1, 37, 64
1, 30854, Note_off_c, 8, 49, 64
1, 30864, Note_on_c, 9, 42, 50
1, 30865, Note_off_c, 9, 42, 64
1, 30881, Pitch_bend_c, 15, 7810
1, 30887, Pitch_bend_c, 15, 5290
1, 30890, Pitch_bend_c, 14, 7054
1, 30894, Pitch_bend_c, 15, 2014
1, 30898, Pitch_bend_c, 14, 4156
1, 30900, Pitch_bend_c, 15, 1636
1, 30905, Pitch_bend_c, 14, 4660
1, 30909, Note_on_c, 2, 73, 94
1, 30910, Note_on_c, 14, 63, 110
1, 30910, Note_on_c, 5, 49, 114
1, 30911, Note_on_c, 15, 61, 102
1, 30912, Note_on_c, 3, 66, 107
1, 30912, Note_on_c, 9, 42, 110
1, 30912, Note_on_c, 1, 37, 127
1, 30912, Note_on_c, 4, 49, 114
1, 30912, Note_on_c, 8, 49, 92
1, 30913, Note_off_c, 9, 42, 64
1, 30915, Pitch_bend_c, 14, 8192
1, 30916, Pitch_bend_c, 15, 4282
1, 30923, Pitch_bend_c, 15, 8192
1, 30947, Note_off_c, 1, 37, 64
1, 30947, Note_off_c, 8, 49, 64
1, 30947, Note_off_c, 14, 63, 64
1, 30950, Note_off_c, 5, 49, 64
1, 30952, Note_off_c, 4, 49, 64
1, 30953, Note_off_c, 15, 61, 64
1, 30957, Note_off_c, 3, 66, 64
1, 30960, Note_on_c, 9, 42, 50
1, 30960, Note_on_c, 9, 36, 90
1, 30961, Note_off_c, 9, 36, 64
1, 30961, Note_off_c, 9, 42, 64
1, 30961, Note_on_c, 15, 58, 99
1, 30962, Note_on_c, 14, 61, 102
1, 30963, Note_on_c, 3, 63, 105
1, 30966, Note_off_c, 14, 61, 64
1, 30975, Note_off_c, 15, 58, 64
1, 30975, Note_off_c, 3, 63, 64
1, 31008, Note_on_c, 9, 42, 110
1, 31008, Note_on_c, 9, 38, 115
1, 31009, Note_off_c, 9, 38, 64
1, 31009, Note_off_c, 9, 42, 64
1, 31009, Note_on_c, 9, 39, 127
1, 31010, Note_off_c, 9, 39, 64
1, 31015, Note_on_c, 10, 39, 127
1, 31016, Note_off_c, 10, 39, 64
1, 31044, Pitch_bend_c, 15, 3652
1, 31052, Pitch_bend_c, 15, 1510
1, 31053, Pitch_bend_c, 3, 5290
1, 31054, Note_on_c, 5, 39, 114
1, 31056, Note_on_c, 15, 63, 101
1, 31056, Note_on_c, 9, 42, 50
1, 31056, Note_on_c, 1, 27, 127
1, 31056, Note_on_c, 4, 39, 114
1, 31056, Note_on_c, 8, 39, 92
1, 31057, Note_off_c, 9, 42, 64
1, 31057, Note_on_c, 14, 65, 106
1, 31061, Note_on_c, 3, 68, 108
1, 31062, Pitch_bend_c, 15, 1636
1, 31064, Pitch_bend_c, 3, 3652
1, 31064, Pitch_bend_c, 14, 3400
1, 31070, Pitch_bend_c, 15, 8192
1, 31071, Note_off_c, 15, 63, 64
1, 31073, Pitch_bend_c, 14, 6676
1, 31074, Pitch_bend_c, 3, 4912
1, 31075, Note_off_c, 14, 65, 64
1, 31084, Pitch_bend_c, 3, 6676
1, 31084, Pitch_bend_c, 14, 8192
1, 31093, Pitch_bend_c, 3, 8192
1, 31100, Note_off_c, 0, 61, 64
1, 31100, Note_off_c, 11, 77, 64
1, 31100, Note_off_c, 0, 56, 64
1, 31100, Note_off_c, 11, 80, 64
1, 31100, Note_off_c, 0, 65, 64
1, 31104, Note_on_c, 9, 42, 110
1, 31104, Note_on_c, 9, 36, 90
1, 31104, Note_on_c, 0, 63, 78
1, 31104, Note_on_c, 0, 66, 79
1, 31104, Note_on_c, 0, 58, 74
1, 31104, Note_on_c, 11, 82, 64
1, 31104, Note_on_c, 11, 78, 64
1, 31105, Note_off_c, 9, 36, 64
1, 31105, Note_off_c, 9, 42, 64
1, 31105, Note_off_c, 2, 73, 64
1, 31110, Note_on_c, 2, 75, 94
1, 31123, Note_off_c, 3, 68, 64
1, 31148, Note_off_c, 5, 39, 64
1, 31150, Note_off_c, 4, 39, 64
1, 31150, Note_off_c, 1, 27, 64
1, 31150, Note_off_c, 8, 39, 64
1, 31150, Note_on_c, 5, 42, 114
1, 31152, Note_on_c, 9, 42, 50
1, 31152, Note_on_c, 1, 30, 127
1, 31152, Note_on_c, 4, 42, 114
1, 31152, Note_on_c, 8, 42, 92
1, 31153, Note_off_c, 9, 42, 64
1, 31153, Note_on_c, 15, 63, 100
1, 31154, Note_on_c, 14, 63, 110
1, 31155, Note_on_c, 3, 66, 104
1, 31164, Note_off_c, 3, 66, 64
1, 31165, Note_off_c, 15, 63, 64
1, 31171, Note_off_c, 14, 63, 64
1, 31196, Note_off_c, 5, 42, 64
1, 31198, Note_off_c, 1, 30, 64
1, 31198, Note_off_c, 8, 42, 64
1, 31198, Note_off_c, 4, 42, 64
1, 31198, Note_on_c, 5, 46, 114
1, 31200, Note_on_c, 14, 65, 104
1, 31200, Note_on_c, 15, 66, 100
1, 31200, Note_on_c, 9, 42, 110
1, 31200, Note_on_c, 9, 38, 115
1, 31200, Note_on_c, 1, 34, 127
1, 31200, Note_on_c, 4, 46, 114
1, 31200, Note_on_c, 8, 46, 92
1, 31201, Note_off_c, 9, 38, 64
1, 31201, Note_off_c, 9, 42, 64
1, 31203, Note_on_c, 3, 68, 108
1, 31213, Note_off_c, 15, 66, 64
1, 31223, Note_off_c, 3, 68, 64
1, 31224, Note_off_c, 14, 65, 64
1, 31244, Note_off_c, 5, 46, 64
1, 31246, Note_off_c, 8, 46, 64
1, 31246, Note_off_c, 4, 46, 64
1, 31246, Note_off_c, 1, 34, 64
1, 31246, Note_on_c, 5, 54, 114
1, 31248, Note_on_c, 9, 42, 50
1, 31248, Note_on_c, 1, 42, 127
1, 31248, Note_on_c, 4, 54, 114
1, 31248, Note_on_c, 8, 54, 92
1, 31249, Note_off_c, 9, 42, 64
1, 31276, Pitch_bend_c, 15, 6298
1, 31284, Pitch_bend_c, 14, 3526
1, 31284, Pitch_bend_c, 15, 2896
1, 31291, Pitch_bend_c, 15, 1636
1, 31292, Note_off_c, 5, 54, 64
1, 31294, Note_off_c, 1, 42, 64
1, 31294, Note_off_c, 8, 54, 64
1, 31294, Note_off_c, 4, 54, 64
1, 31294, Pitch_bend_c, 14, 4912
1, 31294, Note_on_c, 5, 51, 114
1, 31296, Note_on_c, 14, 63, 111
1, 31296, Note_on_c, 15, 63, 102
1, 31296, Note_on_c, 9, 42, 110
1, 31296, Note_on_c, 9, 36, 90
1, 31296, Note_on_c, 1, 39, 127
1, 31296, Note_on_c, 4, 51, 114
1, 31296, Note_on_c, 8, 51, 92
1, 31297, Note_off_c, 9, 36, 64
1, 31297, Note_off_c, 9, 42, 64
1, 31298, Note_on_c, 3, 66, 107
1, 31302, Pitch_bend_c, 15, 4408
1, 31307, Pitch_bend_c, 14, 8192
1, 31311, Pitch_bend_c, 15, 8192
1, 31319, Pitch_bend_c, 5, 8478
1, 31321, Pitch_bend_c, 4, 8452
1, 31323, Pitch_bend_c, 5, 9110
1, 31325, Pitch_bend_c, 4, 9025
1, 31327, Pitch_bend_c, 5, 9568
1, 31329, Pitch_bend_c, 4, 9441
1, 31330, Note_off_c, 14, 63, 64
1, 31331, Pitch_bend_c, 5, 9682
1, 31333, Pitch_bend_c, 4, 9545
1, 31339, Pitch_bend_c, 5, 7855
1, 31341, Pitch_bend_c, 4, 7886
1, 31342, Pitch_bend_c, 5, 8192
1, 31343, Note_off_c, 3, 66, 64
1, 31344, Note_off_c, 15, 63, 64
1, 31344, Note_on_c, 9, 42, 50
1, 31344, Pitch_bend_c, 4, 8192
1, 31345, Note_off_c, 9, 42, 64
1, 31345, Note_on_c, 14, 65, 106
1, 31346, Note_on_c, 15, 61, 100
1, 31347, Note_on_c, 3, 68, 107
1, 31354, Pitch_bend_c, 5, 8249
1, 31356, Note_off_c, 15, 61, 64
1, 31356, Pitch_bend_c, 4, 8244
1, 31358, Pitch_bend_c, 5, 9797
1, 31359, Note_off_c, 14, 65, 64
1, 31359, Note_off_c, 3, 68, 64
1, 31360, Pitch_bend_c, 4, 9649
1, 31362, Pitch_bend_c, 5, 9913
1, 31364, Pitch_bend_c, 4, 9754
1, 31369, Pitch_bend_c, 5, 9110
1, 31371, Pitch_bend_c, 4, 9025
1, 31373, Pitch_bend_c, 5, 8192
1, 31375, Pitch_bend_c, 4, 8192
1, 31381, Pitch_bend_c, 5, 8478
1, 31383, Pitch_bend_c, 4, 8452
1, 31385, Pitch_bend_c, 5, 9568
1, 31387, Pitch_bend_c, 4, 9441
1, 31389, Pitch_bend_c, 5, 9970
1, 31391, Pitch_bend_c, 4, 9806
1, 31392, Note_on_c, 9, 42, 110
1, 31392, Note_on_c, 9, 38, 115
1, 31393, Note_off_c, 9, 38, 64
1, 31393, Note_off_c, 9, 42, 64
1, 31393, Pitch_bend_c, 5, 10084
1, 31393, Note_on_c, 9, 39, 127
1, 31394, Note_off_c, 9, 39, 64
1, 31395, Pitch_bend_c, 4, 9910
1, 31397, Pitch_bend_c, 5, 9913
1, 31399, Note_on_c, 10, 39, 127
1, 31399, Pitch_bend_c, 4, 9754
1, 31400, Note_off_c, 10, 39, 64
1, 31401, Pitch_bend_c, 5, 8192
1, 31403, Pitch_bend_c, 4, 8192
1, 31423, Pitch_bend_c, 3, 7684
1, 31425, Pitch_bend_c, 14, 6676
1, 31433, Pitch_bend_c, 3, 5290
1, 31435, Note_off_c, 5, 51, 64
1, 31435, Pitch_bend_c, 14, 2392
1, 31435, Pitch_bend_c, 15, 7810
1, 31437, Note_off_c, 8, 51, 64
1, 31437, Note_off_c, 4, 51, 64
1, 31437, Note_off_c, 1, 39, 64
1, 31437, Note_on_c, 5, 51, 114
1, 31439, Note_on_c, 1, 39, 127
1, 31439, Note_on_c, 4, 51, 114
1, 31439, Note_on_c, 8, 51, 92
1, 31440, Note_on_c, 14, 65, 107
1, 31440, Note_on_c, 9, 42, 50
1, 31441, Note_off_c, 9, 42, 64
1, 31441, Note_on_c, 15, 63, 102
1, 31442, Pitch_bend_c, 5, 10307
1, 31443, Pitch_bend_c, 3, 4786
1, 31443, Pitch_bend_c, 8, 12288
1, 31444, Pitch_bend_c, 4, 10112
1, 31445, Note_on_c, 3, 68, 108
1, 31445, Pitch_bend_c, 15, 1636
1, 31445, Pitch_bend_c, 5, 12704
1, 31446, Pitch_bend_c, 1, 16320
1, 31446, Pitch_bend_c, 8, 16320
1, 31447, Pitch_bend_c, 14, 6928
1, 31447, Pitch_bend_c, 5, 14890
1, 31447, Pitch_bend_c, 4, 12288
1, 31449, Pitch_bend_c, 5, 16383
1, 31449, Pitch_bend_c, 4, 14272
1, 31451, Pitch_bend_c, 4, 16320
1, 31454, Note_off_c, 15, 63, 64
1, 31454, Pitch_bend_c, 15, 4912
1, 31456, Pitch_bend_c, 3, 7810
1, 31458, Pitch_bend_c, 14, 8192
1, 31462, Note_off_c, 14, 65, 64
1, 31464, Pitch_bend_c, 15, 8192
1, 31467, Pitch_bend_c, 3, 8192
1, 31484, Note_off_c, 11, 82, 64
1, 31484, Note_off_c, 0, 66, 64
1, 31484, Note_off_c, 0, 63, 64
1, 31484, Note_off_c, 11, 78, 64
1, 31484, Note_off_c, 0, 58, 64
1, 31485, Note_off_c, 3, 68, 64
1, 31486, Note_off_c, 2, 75, 64
1, 31488, Note_on_c, 9, 42, 110
1, 31488, Note_on_c, 9, 36, 90
1, 31488, Note_on_c, 0, 61, 78
1, 31488, Note_on_c, 0, 56, 78
1, 31488, Note_on_c, 0, 65, 74
1, 31488, Note_on_c, 11, 80, 64
1, 31488, Note_on_c, 11, 77, 64
1, 31489, Note_off_c, 9, 36, 64
1, 31489, Note_off_c, 9, 42, 64
1, 31489, Control_c, 0, 99, 1
1, 31490, Control_c, 0, 98, 32
1, 31491, Control_c, 0, 6, 48
1, 31492, Control_c, 0, 99, 1
1, 31493, Control_c, 0, 98, 33
1, 31494, Control_c, 0, 6, 99
1, 31495, Note_on_c, 2, 73, 94
1, 31495, Control_c, 0, 91, 20
1, 31496, Control_c, 0, 93, 30
1, 31497, Control_c, 0, 10, 80
1, 31532, Note_off_c, 5, 51, 64
1, 31533, Pitch_bend_c, 5, 8192
1, 31534, Note_off_c, 1, 39, 64
1, 31534, Note_off_c, 4, 51, 64
1, 31534, Note_off_c, 8, 51, 64
1, 31534, Note_on_c, 5, 51, 114
1, 31535, Note_on_c, 14, 63, 109
1, 31535, Pitch_bend_c, 1, 8192
1, 31535, Pitch_bend_c, 4, 8192
1, 31535, Pitch_bend_c, 8, 8192
1, 31536, Note_on_c, 9, 42, 50
1, 31536, Note_on_c, 1, 39, 127
1, 31536, Note_on_c, 4, 51, 114
1, 31536, Note_on_c, 8, 51, 92
1, 31537, Note_off_c, 9, 42, 64
1, 31537, Note_on_c, 15, 61, 98
1, 31538, Note_on_c, 3, 66, 107
1, 31547, Note_off_c, 15, 61, 64
1, 31552, Note_off_c, 14, 63, 64
1, 31554, Note_off_c, 3, 66, 64
1, 31576, Note_off_c, 5, 51, 64
1, 31578, Note_off_c, 1, 39, 64
1, 31578, Note_off_c, 8, 51, 64
1, 31578, Note_off_c, 4, 51, 64
1, 31582, Note_on_c, 5, 49, 114
1, 31583, Note_on_c, 14, 65, 102
1, 31584, Note_on_c, 9, 42, 110
1, 31584, Note_on_c, 9, 38, 115
1, 31584, Note_on_c, 9, 36, 90
1, 31584, Note_on_c, 1, 37, 127
1, 31584, Note_on_c, 4, 49, 114
1, 31584, Note_on_c, 8, 49, 92
1, 31585, Note_off_c, 9, 36, 64
1, 31585, Note_off_c, 9, 38, 64
1, 31585, Note_off_c, 9, 42, 64
1, 31585, Note_on_c, 15, 63, 102
1, 31586, Note_on_c, 3, 68, 107
1, 31597, Note_off_c, 15, 63, 64
1, 31605, Note_off_c, 3, 68, 64
1, 31606, Note_off_c, 14, 65, 64
1, 31622, Note_off_c, 8, 49, 64
1, 31622, Note_off_c, 1, 37, 64
1, 31623, Note_off_c, 5, 49, 64
1, 31625, Note_off_c, 4, 49, 64
1, 31632, Note_on_c, 9, 42, 50
1, 31633, Note_off_c, 9, 42, 64
1, 31647, Pitch_bend_c, 15, 7810
1, 31656, Pitch_bend_c, 15, 3904
1, 31664, Pitch_bend_c, 15, 4156
1, 31673, Pitch_bend_c, 15, 5038
1, 31679, Note_on_c, 14, 63, 110
1, 31680, Note_on_c, 15, 63, 102
1, 31680, Note_on_c, 9, 42, 110
1, 31681, Note_off_c, 9, 42, 64
1, 31681, Note_on_c, 3, 66, 107
1, 31684, Pitch_bend_c, 14, 6424
1, 31685, Pitch_bend_c, 15, 8192
1, 31694, Pitch_bend_c, 14, 8192
1, 31697, Note_off_c, 15, 63, 64
1, 31698, Note_off_c, 14, 63, 64
1, 31700, Note_off_c, 3, 66, 64
1, 31728, Note_on_c, 9, 42, 50
1, 31728, Note_on_c, 9, 36, 90
1, 31729, Note_off_c, 9, 36, 64
1, 31729, Note_off_c, 9, 42, 64
1, 31763, Pitch_bend_c, 3, 7810
1, 31776, Pitch_bend_c, 3, 1636
1, 31776, Note_on_c, 15, 61, 102
1, 31776, Note_on_c, 9, 42, 110
1, 31776, Note_on_c, 9, 38, 115
1, 31777, Note_off_c, 9, 38, 64
1, 31777, Note_off_c, 9, 42, 64
1, 31777, Note_on_c, 14, 65, 110
1, 31777, Note_on_c, 9, 39, 127
1, 31778, Note_off_c, 9, 39, 64
1, 31778, Note_on_c, 3, 68, 108
1, 31783, Note_on_c, 10, 39, 127
1, 31784, Note_off_c, 10, 39, 64
1, 31787, Pitch_bend_c, 3, 7432
1, 31792, Note_off_c, 15, 61, 64
1, 31797, Pitch_bend_c, 3, 8192
1, 31799, Note_off_c, 14, 65, 64
1, 31821, Pitch_bend_c, 5, 8192
1, 31823, Note_off_c, 3, 68, 64
1, 31823, Pitch_bend_c, 4, 8192
1, 31824, Note_on_c, 9, 42, 50
1, 31825, Note_off_c, 9, 42, 64
1, 31867, Note_off_c, 2, 73, 64
1, 31868, Note_off_c, 11, 80, 64
1, 31868, Note_off_c, 0, 65, 64
1, 31868, Note_off_c, 11, 77, 64
1, 31868, Note_off_c, 0, 56, 64
1, 31868, Note_off_c, 0, 61, 64
1, 31871, Note_off_c, 2, 70, 64
1, 31872, Note_on_c, 14, 66, 111
1, 31872, Note_on_c, 15, 63, 102
1, 31872, Note_on_c, 9, 57, 90
1, 31872, Note_on_c, 9, 36, 90
1, 31872, Note_on_c, 0, 39, 53
1, 31873, Note_off_c, 9, 36, 64
1, 31873, Note_off_c, 9, 57, 64
1, 31873, Control_c, 3, 91, 100
1, 31873, Control_c, 3, 10, 64
1, 31876, Note_on_c, 3, 66, 108
1, 31891, Note_off_c, 0, 39, 64
1, 31896, Note_on_c, 0, 39, 95
1, 31915, Note_off_c, 0, 39, 64
1, 31917, Note_off_c, 15, 63, 64
1, 31917, Note_off_c, 14, 66, 64
1, 31918, Note_on_c, 5, 39, 106
1, 31920, Note_off_c, 3, 66, 64
1, 31920, Note_on_c, 14, 63, 111
1, 31920, Note_on_c, 9, 42, 50
1, 31920, Note_on_c, 1, 27, 127
1, 31920, Note_on_c, 4, 39, 106
1, 31920, Note_on_c, 0, 39, 75
1, 31921, Note_off_c, 9, 42, 64
1, 31921, Note_on_c, 15, 63, 99
1, 31921, Note_on_c, 8, 39, 109
1, 31926, Note_on_c, 3, 63, 105
1, 31933, Note_off_c, 14, 63, 64
1, 31934, Note_off_c, 8, 39, 64
1, 31934, Note_off_c, 15, 63, 64
1, 31936, Note_off_c, 3, 63, 64
1, 31939, Note_off_c, 0, 39, 64
1, 31940, Control_c, 3, 10, 43
1, 31944, Note_on_c, 0, 39, 106
1, 31956, Note_off_c, 1, 27, 64
1, 31958, Note_off_c, 5, 39, 64
1, 31960, Note_off_c, 4, 39, 64
1, 31963, Note_off_c, 0, 39, 64
1, 31963, Control_c, 3, 10, 28
1, 31966, Note_on_c, 5, 39, 106
1, 31968, Note_on_c, 9, 42, 110
1, 31968, Note_on_c, 9, 38, 115
1, 31968, Note_on_c, 1, 27, 127
1, 31968, Note_on_c, 4, 39, 106
1, 31968, Note_on_c, 0, 39, 48
1, 31969, Note_off_c, 9, 38, 64
1, 31969, Note_off_c, 9, 42, 64
1, 31969, Note_on_c, 8, 39, 101
1, 31970, Note_on_c, 3, 66, 110
1, 31971, Control_c, 3, 10, 4
1, 31982, Note_off_c, 8, 39, 64
1, 31987, Note_off_c, 0, 39, 64
1, 31992, Note_on_c, 0, 39, 53
1, 32006, Note_off_c, 5, 39, 64
1, 32008, Note_off_c, 1, 27, 64
1, 32008, Note_off_c, 4, 39, 64
1, 32009, Control_c, 3, 10, 31
1, 32011, Note_off_c, 0, 39, 64
1, 32016, Note_on_c, 9, 42, 50
1, 32016, Note_on_c, 0, 39, 50
1, 32017, Note_off_c, 9, 42, 64
1, 32017, Note_off_c, 3, 66, 64
1, 32018, Note_on_c, 3, 63, 90
1, 32028, Note_off_c, 3, 63, 64
1, 32031, Control_c, 3, 10, 67
1, 32035, Note_off_c, 0, 39, 64
1, 32040, Note_on_c, 0, 39, 101
1, 32050, Control_c, 3, 10, 109
1, 32059, Note_off_c, 0, 39, 64
1, 32062, Note_on_c, 5, 39, 113
1, 32064, Note_on_c, 9, 42, 110
1, 32064, Note_on_c, 9, 36, 90
1, 32064, Note_on_c, 1, 27, 127
1, 32064, Note_on_c, 4, 39, 113
1, 32064, Note_on_c, 8, 39, 115
1, 32064, Note_on_c, 0, 39, 72
1, 32065, Note_off_c, 9, 36, 64
1, 32065, Note_off_c, 9, 42, 64
1, 32066, Note_on_c, 3, 66, 80
1, 32073, Control_c, 3, 10, 115
1, 32077, Note_off_c, 8, 39, 64
1, 32083, Note_off_c, 0, 39, 64
1, 32088, Note_on_c, 0, 39, 51
1, 32102, Note_off_c, 5, 39, 64
1, 32104, Note_off_c, 1, 27, 64
1, 32104, Note_off_c, 4, 39, 64
1, 32106, Note_off_c, 3, 66, 64
1, 32107, Note_off_c, 0, 39, 64
1, 32111, Control_c, 3, 10, 100
1, 32112, Note_on_c, 9, 42, 50
1, 32112, Note_on_c, 0, 39, 54
1, 32113, Note_off_c, 9, 42, 64
1, 32114, Note_on_c, 3, 63, 70
1, 32128, Note_off_c, 3, 63, 64
1, 32131, Note_off_c, 0, 39, 64
1, 32134, Control_c, 3, 10, 72
1, 32136, Note_on_c, 0, 39, 101
1, 32155, Note_off_c, 0, 39, 64
1, 32157, Control_c, 3, 10, 46
1, 32160, Note_on_c, 9, 42, 110
1, 32160, Note_on_c, 9, 38, 115
1, 32160, Note_on_c, 0, 39, 65
1, 32161, Note_off_c, 9, 38, 64
1, 32161, Note_off_c, 9, 42, 64
1, 32161, Note_on_c, 9, 39, 127
1, 32162, Note_off_c, 9, 39, 64
1, 32162, Note_on_c, 3, 66, 70
1, 32167, Note_on_c, 10, 39, 127
1, 32168, Note_off_c, 10, 39, 64
1, 32179, Note_off_c, 0, 39, 64
1, 32179, Control_c, 3, 10, 36
1, 32184, Note_on_c, 0, 39, 56
1, 32203, Note_off_c, 0, 39, 64
1, 32203, Note_off_c, 3, 66, 64
1, 32206, Note_on_c, 5, 39, 114
1, 32207, Note_on_c, 8, 39, 111
1, 32208, Note_on_c, 9, 42, 50
1, 32208, Note_on_c, 1, 27, 127
1, 32208, Note_on_c, 4, 39, 114
1, 32208, Note_on_c, 0, 39, 53
1, 32209, Note_off_c, 9, 42, 64
1, 32210, Note_on_c, 3, 63, 70
1, 32210, Control_c, 3, 10, 26
1, 32220, Note_off_c, 8, 39, 64
1, 32222, Note_off_c, 3, 63, 64
1, 32227, Note_off_c, 0, 39, 64
1, 32232, Note_on_c, 0, 39, 103
1, 32233, Control_c, 3, 10, 27
1, 32243, Note_off_c, 1, 27, 64
1, 32246, Note_off_c, 5, 39, 64
1, 32248, Note_off_c, 4, 39, 64
1, 32251, Note_off_c, 0, 39, 64
1, 32254, Note_on_c, 5, 39, 113
1, 32255, Control_c, 3, 10, 42
1, 32256, Note_on_c, 9, 42, 110
1, 32256, Note_on_c, 9, 36, 90
1, 32256, Note_on_c, 1, 27, 127
1, 32256, Note_on_c, 4, 39, 113
1, 32256, Note_on_c, 8, 39, 115
1, 32256, Note_on_c, 0, 39, 87
1, 32257, Note_off_c, 9, 36, 64
1, 32257, Note_off_c, 9, 42, 64
1, 32258, Note_on_c, 3, 66, 70
1, 32267, Control_c, 3, 10, 80
1, 32269, Note_off_c, 8, 39, 64
1, 32275, Note_off_c, 0, 39, 64
1, 32280, Note_on_c, 0, 39, 63
1, 32290, Control_c, 3, 10, 101
1, 32294, Note_off_c, 5, 39, 64
1, 32296, Note_off_c, 1, 27, 64
1, 32296, Note_off_c, 4, 39, 64
1, 32299, Note_off_c, 0, 39, 64
1, 32300, Note_off_c, 3, 66, 64
1, 32304, Note_on_c, 9, 42, 50
1, 32304, Note_on_c, 0, 39, 69
1, 32305, Note_off_c, 9, 42, 64
1, 32306, Note_on_c, 3, 63, 60
1, 32312, Control_c, 3, 10, 120
1, 32323, Note_off_c, 0, 39, 64
1, 32324, Note_off_c, 3, 63, 64
1, 32328, Note_on_c, 0, 39, 81
1, 32335, Control_c, 3, 10, 127
1, 32347, Note_off_c, 0, 39, 64
1, 32350, Note_on_c, 5, 39, 114
1, 32352, Note_on_c, 9, 42, 110
1, 32352, Note_on_c, 9, 38, 115
1, 32352, Note_on_c, 9, 36, 90
1, 32352, Note_on_c, 1, 27, 127
1, 32352, Note_on_c, 4, 39, 114
1, 32352, Note_on_c, 8, 39, 121
1, 32352, Note_on_c, 0, 39, 103
1, 32353, Note_off_c, 9, 36, 64
1, 32353, Note_off_c, 9, 38, 64
1, 32353, Note_off_c, 9, 42, 64
1, 32354, Note_on_c, 3, 66, 60
1, 32365, Note_off_c, 8, 39, 64
1, 32371, Note_off_c, 0, 39, 64
1, 32376, Note_on_c, 0, 39, 70
1, 32390, Note_off_c, 5, 39, 64
1, 32392, Note_off_c, 1, 27, 64
1, 32392, Note_off_c, 4, 39, 64
1, 32392, Note_off_c, 3, 66, 64
1, 32395, Note_off_c, 0, 39, 64
1, 32400, Note_on_c, 9, 42, 50
1, 32400, Note_on_c, 0, 39, 61
1, 32401, Note_off_c, 9, 42, 64
1, 32402, Note_on_c, 3, 63, 50
1, 32409, Note_off_c, 3, 63, 64
1, 32419, Note_off_c, 0, 39, 64
1, 32424, Note_on_c, 0, 39, 66
1, 32438, Control_c, 3, 10, 117
1, 32443, Note_off_c, 0, 39, 64
1, 32448, Note_on_c, 9, 42, 110
1, 32448, Note_on_c, 0, 39, 97
1, 32449, Note_off_c, 9, 42, 64
1, 32450, Note_on_c, 3, 66, 108
1, 32461, Control_c, 3, 10, 108
1, 32467, Note_off_c, 0, 39, 64
1, 32472, Note_on_c, 0, 39, 70
1, 32483, Control_c, 3, 10, 40
1, 32491, Note_off_c, 0, 39, 64
1, 32496, Note_on_c, 9, 42, 50
1, 32496, Note_on_c, 9, 36, 90
1, 32496, Note_on_c, 0, 39, 72
1, 32497, Note_off_c, 9, 36, 64
1, 32497, Note_off_c, 9, 42, 64
1, 32497, Note_off_c, 3, 66, 64
1, 32498, Note_on_c, 3, 63, 107
1, 32506, Control_c, 3, 10, 83
1, 32512, Note_off_c, 3, 63, 64
1, 32515, Note_off_c, 0, 39, 64
1, 32520, Note_on_c, 0, 39, 87
1, 32529, Control_c, 3, 10, 68
1, 32539, Note_off_c, 0, 39, 64
1, 32544, Note_on_c, 9, 42, 110
1, 32544, Note_on_c, 9, 38, 115
1, 32544, Note_on_c, 0, 39, 97
1, 32545, Note_off_c, 9, 38, 64
1, 32545, Note_off_c, 9, 42, 64
1, 32545, Note_on_c, 9, 39, 127
1, 32546, Note_off_c, 9, 39, 64
1, 32546, Note_on_c, 3, 66, 127
1, 32551, Note_on_c, 10, 39, 127
1, 32552, Note_off_c, 10, 39, 64
1, 32552, Control_c, 3, 10, 53
1, 32563, Note_off_c, 0, 39, 64
1, 32568, Note_on_c, 0, 39, 65
1, 32574, Control_c, 3, 10, 38
1, 32587, Note_off_c, 0, 39, 64
1, 32592, Note_off_c, 3, 66, 64
1, 32592, Note_on_c, 9, 42, 50
1, 32592, Note_on_c, 0, 39, 58
1, 32593, Note_off_c, 9, 42, 64
1, 32594, Note_on_c, 3, 63, 110
1, 32601, Control_c, 3, 10, 26
1, 32611, Note_off_c, 0, 39, 64
1, 32612, Note_off_c, 3, 63, 64
1, 32616, Note_on_c, 0, 39, 87
1, 32628, Control_c, 3, 10, 38
1, 32635, Note_off_c, 0, 39, 64
1, 32640, Note_on_c, 9, 42, 110
1, 32640, Note_on_c, 9, 36, 90
1, 32640, Note_on_c, 0, 39, 91
1, 32641, Note_off_c, 9, 36, 64
1, 32641, Note_off_c, 9, 42, 64
1, 32642, Note_on_c, 3, 66, 90
1, 32643, Control_c, 3, 10, 68
1, 32659, Note_off_c, 0, 39, 64
1, 32664, Note_on_c, 0, 39, 61
1, 32665, Control_c, 3, 10, 89
1, 32679, Note_off_c, 3, 66, 64
1, 32683, Note_off_c, 0, 39, 64
1, 32686, Note_on_c, 5, 39, 106
1, 32688, Control_c, 3, 10, 101
1, 32688, Note_on_c, 9, 42, 50
1, 32688, Note_on_c, 1, 27, 127
1, 32688, Note_on_c, 4, 39, 106
1, 32688, Note_on_c, 0, 39, 54
1, 32689, Note_off_c, 9, 42, 64
1, 32689, Note_on_c, 8, 39, 109
1, 32690, Note_on_c, 3, 63, 80
1, 32701, Note_off_c, 3, 63, 64
1, 32702, Note_off_c, 8, 39, 64
1, 32707, Note_off_c, 0, 39, 64
1, 32711, Control_c, 3, 10, 111
1, 32712, Note_on_c, 0, 39, 91
1, 32724, Note_off_c, 1, 27, 64
1, 32726, Note_off_c, 5, 39, 64
1, 32728, Note_off_c, 4, 39, 64
1, 32731, Note_off_c, 0, 39, 64
1, 32734, Control_c, 3, 10, 120
1, 32734, Note_on_c, 5, 39, 106
1, 32736, Note_on_c, 9, 42, 110
1, 32736, Note_on_c, 9, 38, 115
1, 32736, Note_on_c, 1, 27, 127
1, 32736, Note_on_c, 4, 39, 106
1, 32736, Note_on_c, 0, 39, 79
1, 32737, Note_off_c, 9, 38, 64
1, 32737, Note_off_c, 9, 42, 64
1, 32737, Note_on_c, 8, 39, 101
1, 32738, Note_on_c, 3, 66, 80
1, 32750, Note_off_c, 8, 39, 64
1, 32755, Note_off_c, 0, 39, 64
1, 32757, Control_c, 3, 10, 124
1, 32760, Note_on_c, 0, 39, 89
1, 32774, Note_off_c, 5, 39, 64
1, 32775, Note_off_c, 3, 66, 64
1, 32776, Note_off_c, 1, 27, 64
1, 32776, Note_off_c, 4, 39, 64
1, 32779, Note_off_c, 0, 39, 64
1, 32779, Control_c, 3, 10, 127
1, 32784, Note_on_c, 9, 42, 50
1, 32784, Note_on_c, 0, 39, 72
1, 32785, Note_off_c, 9, 42, 64
1, 32786, Note_on_c, 3, 63, 70
1, 32800, Note_off_c, 3, 63, 64
1, 32803, Note_off_c, 0, 39, 64
1, 32808, Note_on_c, 0, 39, 62
1, 32827, Note_off_c, 0, 39, 64
1, 32830, Note_on_c, 5, 39, 113
1, 32832, Note_on_c, 9, 42, 110
1, 32832, Note_on_c, 9, 36, 90
1, 32832, Note_on_c, 1, 27, 127
1, 32832, Note_on_c, 4, 39, 113
1, 32832, Note_on_c, 8, 39, 115
1, 32832, Note_on_c, 0, 39, 85
1, 32833, Note_off_c, 9, 36, 64
1, 32833, Note_off_c, 9, 42, 64
1, 32833, Control_c, 3, 10, 1
1, 32834, Note_on_c, 3, 66, 70
1, 32845, Note_off_c, 8, 39, 64
1, 32851, Note_off_c, 0, 39, 64
1, 32856, Note_on_c, 0, 39, 81
1, 32870, Note_off_c, 5, 39, 64
1, 32872, Note_off_c, 1, 27, 64
1, 32872, Note_off_c, 4, 39, 64
1, 32875, Note_off_c, 0, 39, 64
1, 32879, Note_off_c, 3, 66, 64
1, 32880, Note_on_c, 9, 42, 50
1, 32880, Note_on_c, 0, 39, 69
1, 32881, Note_off_c, 9, 42, 64
1, 32882, Note_on_c, 3, 63, 60
1, 32896, Note_off_c, 3, 63, 64
1, 32899, Note_off_c, 0, 39, 64
1, 32904, Note_on_c, 0, 39, 101
1, 32923, Note_off_c, 0, 39, 64
1, 32928, Note_on_c, 9, 42, 110
1, 32928, Note_on_c, 9, 38, 115
1, 32928, Note_on_c, 0, 39, 83
1, 32929, Note_off_c, 9, 38, 64
1, 32929, Note_off_c, 9, 42, 64
1, 32929, Note_on_c, 9, 39, 127
1, 32930, Note_off_c, 9, 39, 64
1, 32930, Note_on_c, 3, 66, 60
1, 32935, Note_on_c, 10, 39, 127
1, 32936, Note_off_c, 10, 39, 64
1, 32947, Note_off_c, 0, 39, 64
1, 32952, Note_on_c, 0, 39, 83
1, 32962, Control_c, 3, 10, 10
1, 32966, Note_off_c, 3, 66, 64
1, 32971, Note_off_c, 0, 39, 64
1, 32974, Note_on_c, 5, 39, 114
1, 32975, Note_on_c, 8, 39, 111
1, 32976, Note_on_c, 9, 42, 50
1, 32976, Note_on_c, 1, 27, 127
1, 32976, Note_on_c, 4, 39, 114
1, 32976, Note_on_c, 0, 39, 83
1, 32977, Note_off_c, 9, 42, 64
1, 32978, Note_on_c, 3, 63, 50
1, 32984, Control_c, 3, 10, 101
1, 32986, Note_off_c, 3, 63, 64
1, 32988, Note_off_c, 8, 39, 64
1, 32995, Note_off_c, 0, 39, 64
1, 33000, Note_on_c, 0, 39, 79
1, 33007, Control_c, 3, 10, 90
1, 33011, Note_off_c, 1, 27, 64
1, 33014, Note_off_c, 5, 39, 64
1, 33016, Note_off_c, 4, 39, 64
1, 33019, Note_off_c, 0, 39, 64
1, 33022, Note_on_c, 5, 39, 113
1, 33024, Note_on_c, 9, 42, 110
1, 33024, Note_on_c, 9, 36, 90
1, 33024, Note_on_c, 1, 27, 127
1, 33024, Note_on_c, 4, 39, 113
1, 33024, Note_on_c, 8, 39, 115
1, 33024, Note_on_c, 0, 39, 83
1, 33025, Note_off_c, 9, 36, 64
1, 33025, Note_off_c, 9, 42, 64
1, 33030, Control_c, 3, 10, 81
1, 33037, Note_off_c, 8, 39, 64
1, 33043, Note_off_c, 0, 39, 64
1, 33048, Note_on_c, 0, 39, 93
1, 33053, Control_c, 3, 10, 73
1, 33062, Note_off_c, 5, 39, 64
1, 33064, Note_off_c, 1, 27, 64
1, 33064, Note_off_c, 4, 39, 64
1, 33067, Note_off_c, 0, 39, 64
1, 33072, Note_on_c, 9, 42, 50
1, 33072, Note_on_c, 0, 39, 65
1, 33073, Note_off_c, 9, 42, 64
1, 33079, Control_c, 3, 10, 67
1, 33091, Note_off_c, 0, 39, 64
1, 33096, Note_on_c, 0, 39, 66
1, 33102, Control_c, 3, 10, 63
1, 33115, Note_off_c, 0, 39, 64
1, 33118, Note_on_c, 5, 39, 114
1, 33120, Note_on_c, 9, 42, 110
1, 33120, Note_on_c, 9, 38, 115
1, 33120, Note_on_c, 9, 36, 90
1, 33120, Note_on_c, 1, 27, 127
1, 33120, Note_on_c, 4, 39, 114
1, 33120, Note_on_c, 8, 39, 121
1, 33120, Note_on_c, 0, 39, 61
1, 33121, Note_off_c, 9, 36, 64
1, 33121, Note_off_c, 9, 38, 64
1, 33121, Note_off_c, 9, 42, 64
1, 33133, Note_off_c, 8, 39, 64
1, 33139, Note_off_c, 0, 39, 64
1, 33144, Note_on_c, 0, 39, 89
1, 33158, Note_off_c, 5, 39, 64
1, 33160, Note_off_c, 1, 27, 64
1, 33160, Note_off_c, 4, 39, 64
1, 33163, Note_off_c, 0, 39, 64
1, 33168, Note_on_c, 9, 42, 50
1, 33168, Note_on_c, 0, 39, 93
1, 33169, Note_off_c, 9, 42, 64
1, 33187, Note_off_c, 0, 39, 64
1, 33192, Note_on_c, 0, 39, 105
1, 33211, Note_off_c, 0, 39, 64
1, 33216, Note_on_c, 9, 42, 110
1, 33216, Note_on_c, 12, 37, 110
1, 33216, Note_on_c, 12, 25, 110
1, 33216, Note_on_c, 13, 37, 110
1, 33216, Note_on_c, 0, 39, 79
1, 33217, Note_off_c, 9, 42, 64
1, 33235, Note_off_c, 0, 39, 64
1, 33240, Note_on_c, 0, 39, 60
1, 33246, Control_c, 3, 10, 69
1, 33259, Note_off_c, 0, 39, 64
1, 33264, Note_on_c, 9, 42, 50
1, 33264, Note_on_c, 9, 36, 90
1, 33264, Note_on_c, 0, 39, 51
1, 33265, Note_off_c, 9, 36, 64
1, 33265, Note_off_c, 9, 42, 64
1, 33269, Control_c, 3, 10, 79
1, 33283, Note_off_c, 0, 39, 64
1, 33288, Note_on_c, 0, 39, 67
1, 33292, Control_c, 3, 10, 90
1, 33307, Note_off_c, 0, 39, 64
1, 33312, Note_on_c, 9, 42, 110
1, 33312, Note_on_c, 9, 38, 115
1, 33312, Note_on_c, 0, 39, 67
1, 33313, Note_off_c, 9, 38, 64
1, 33313, Note_off_c, 9, 42, 64
1, 33313, Note_on_c, 9, 39, 127
1, 33314, Note_off_c, 9, 39, 64
1, 33315, Control_c, 3, 10, 94
1, 33319, Note_on_c, 10, 39, 127
1, 33320, Note_off_c, 10, 39, 64
1, 33331, Note_off_c, 0, 39, 64
1, 33336, Note_on_c, 0, 39, 95
1, 33355, Note_off_c, 0, 39, 64
1, 33360, Note_on_c, 9, 42, 50
1, 33360, Note_on_c, 0, 39, 53
1, 33361, Note_off_c, 9, 42, 64
1, 33379, Note_off_c, 0, 39, 64
1, 33384, Note_on_c, 0, 39, 75
1, 33403, Note_off_c, 0, 39, 64
1, 33406, Note_off_c, 12, 25, 64
1, 33406, Note_off_c, 12, 37, 64
1, 33406, Note_off_c, 13, 37, 64
1, 33408, Note_on_c, 9, 42, 110
1, 33408, Note_on_c, 9, 36, 90
1, 33408, Note_on_c, 12, 39, 110
1, 33408, Note_on_c, 12, 27, 110
1, 33408, Note_on_c, 13, 39, 110
1, 33408, Note_on_c, 0, 39, 69
1, 33409, Note_off_c, 9, 36, 64
1, 33409, Note_off_c, 9, 42, 64
1, 33427, Note_off_c, 0, 39, 64
1, 33432, Note_on_c, 0, 39, 72
1, 33451, Note_off_c, 0, 39, 64
1, 33454, Note_on_c, 5, 39, 106
1, 33455, Control_c, 3, 10, 85
1, 33456, Note_on_c, 9, 42, 50
1, 33456, Note_on_c, 1, 27, 127
1, 33456, Note_on_c, 9, 69, 64
1, 33456, Note_on_c, 4, 39, 106
1, 33456, Note_on_c, 0, 39, 72
1, 33457, Note_off_c, 9, 69, 64
1, 33457, Note_off_c, 9, 42, 64
1, 33457, Note_on_c, 8, 39, 109
1, 33470, Note_off_c, 8, 39, 64
1, 33475, Note_off_c, 0, 39, 64
1, 33480, Note_on_c, 0, 39, 101
1, 33482, Control_c, 3, 10, 81
1, 33492, Note_off_c, 1, 27, 64
1, 33494, Note_off_c, 5, 39, 64
1, 33496, Note_off_c, 4, 39, 64
1, 33499, Note_off_c, 0, 39, 64
1, 33502, Note_on_c, 5, 39, 106
1, 33504, Note_on_c, 9, 42, 110
1, 33504, Note_on_c, 9, 38, 115
1, 33504, Note_on_c, 1, 27, 127
1, 33504, Note_on_c, 9, 69, 80
1, 33504, Note_on_c, 4, 39, 106
1, 33504, Note_on_c, 0, 39, 46
1, 33505, Note_off_c, 9, 69, 64
1, 33505, Note_off_c, 9, 38, 64
1, 33505, Note_off_c, 9, 42, 64
1, 33505, Note_on_c, 8, 39, 101
1, 33518, Note_off_c, 8, 39, 64
1, 33523, Note_off_c, 0, 39, 64
1, 33528, Note_on_c, 0, 39, 85
1, 33535, Control_c, 3, 10, 79
1, 33542, Note_off_c, 5, 39, 64
1, 33544, Note_off_c, 4, 39, 64
1, 33544, Note_off_c, 1, 27, 64
1, 33547, Note_off_c, 0, 39, 64
1, 33552, Note_on_c, 9, 42, 50
1, 33552, Note_on_c, 0, 39, 60
1, 33553, Note_off_c, 9, 42, 64
1, 33571, Note_off_c, 0, 39, 64
1, 33573, Control_c, 3, 10, 73
1, 33576, Note_on_c, 0, 39, 70
1, 33595, Note_off_c, 0, 39, 64
1, 33598, Note_on_c, 5, 39, 113
1, 33600, Note_on_c, 9, 42, 110
1, 33600, Note_on_c, 9, 36, 90
1, 33600, Note_on_c, 1, 27, 127
1, 33600, Note_on_c, 9, 69, 80
1, 33600, Note_on_c, 4, 39, 113
1, 33600, Note_on_c, 8, 39, 115
1, 33600, Note_on_c, 0, 39, 85
1, 33601, Note_off_c, 9, 69, 64
1, 33601, Note_off_c, 9, 36, 64
1, 33601, Note_off_c, 9, 42, 64
1, 33613, Note_off_c, 8, 39, 64
1, 33619, Note_off_c, 0, 39, 64
1, 33624, Note_on_c, 0, 39, 79
1, 33638, Note_off_c, 5, 39, 64
1, 33640, Note_off_c, 1, 27, 64
1, 33640, Note_off_c, 4, 39, 64
1, 33643, Note_off_c, 0, 39, 64
1, 33648, Note_on_c, 9, 42, 50
1, 33648, Note_on_c, 9, 69, 71
1, 33648, Note_on_c, 0, 39, 51
1, 33649, Note_off_c, 9, 69, 64
1, 33649, Note_off_c, 9, 42, 64
1, 33667, Note_off_c, 0, 39, 64
1, 33672, Note_on_c, 0, 39, 99
1, 33691, Note_off_c, 0, 39, 64
1, 33696, Note_on_c, 9, 42, 110
1, 33696, Note_on_c, 9, 38, 115
1, 33696, Note_on_c, 0, 39, 58
1, 33697, Note_off_c, 9, 38, 64
1, 33697, Note_off_c, 9, 42, 64
1, 33697, Note_on_c, 9, 39, 127
1, 33698, Note_off_c, 9, 39, 64
1, 33703, Note_on_c, 10, 39, 127
1, 33704, Note_off_c, 10, 39, 64
1, 33715, Note_off_c, 0, 39, 64
1, 33720, Note_on_c, 0, 39, 56
1, 33739, Note_off_c, 0, 39, 64
1, 33742, Note_on_c, 5, 39, 114
1, 33743, Note_on_c, 8, 39, 111
1, 33744, Note_on_c, 9, 42, 50
1, 33744, Note_on_c, 1, 27, 127
1, 33744, Note_on_c, 9, 69, 73
1, 33744, Note_on_c, 4, 39, 114
1, 33744, Note_on_c, 0, 39, 46
1, 33745, Note_off_c, 9, 69, 64
1, 33745, Note_off_c, 9, 42, 64
1, 33756, Note_off_c, 8, 39, 64
1, 33763, Note_off_c, 0, 39, 64
1, 33768, Note_on_c, 0, 39, 79
1, 33779, Note_off_c, 1, 27, 64
1, 33782, Note_off_c, 5, 39, 64
1, 33784, Note_off_c, 4, 39, 64
1, 33787, Note_off_c, 0, 39, 64
1, 33790, Note_off_c, 12, 39, 64
1, 33790, Note_off_c, 12, 27, 64
1, 33790, Note_off_c, 13, 39, 64
1, 33790, Note_on_c, 5, 39, 113
1, 33792, Note_on_c, 9, 42, 110
1, 33792, Note_on_c, 9, 36, 90
1, 33792, Note_on_c, 1, 27, 127
1, 33792, Note_on_c, 9, 69, 78
1, 33792, Note_on_c, 4, 39, 113
1, 33792, Note_on_c, 8, 39, 115
1, 33792, Note_on_c, 0, 39, 57
1, 33793, Note_off_c, 9, 69, 64
1, 33793, Note_off_c, 9, 36, 64
1, 33793, Note_off_c, 9, 42, 64
1, 33805, Note_off_c, 8, 39, 64
1, 33811, Note_off_c, 0, 39, 64
1, 33816, Note_on_c, 0, 39, 83
1, 33830, Note_off_c, 5, 39, 64
1, 33832, Note_off_c, 1, 27, 64
1, 33832, Note_off_c, 4, 39, 64
1, 33835, Note_off_c, 0, 39, 64
1, 33840, Note_on_c, 9, 42, 50
1, 33840, Note_on_c, 0, 39, 47
1, 33841, Note_off_c, 9, 42, 64
1, 33859, Note_off_c, 0, 39, 64
1, 33864, Note_on_c, 0, 39, 91
1, 33883, Note_off_c, 0, 39, 64
1, 33886, Note_on_c, 5, 39, 114
1, 33888, Note_on_c, 9, 42, 110
1, 33888, Note_on_c, 9, 38, 115
1, 33888, Note_on_c, 9, 36, 90
1, 33888, Note_on_c, 1, 27, 127
1, 33888, Note_on_c, 9, 69, 78
1, 33888, Note_on_c, 4, 39, 114
1, 33888, Note_on_c, 8, 39, 121
1, 33888, Note_on_c, 0, 39, 77
1, 33889, Note_off_c, 9, 69, 64
1, 33889, Note_off_c, 9, 36, 64
1, 33889, Note_off_c, 9, 38, 64
1, 33889, Note_off_c, 9, 42, 64
1, 33901, Note_off_c, 8, 39, 64
1, 33907, Note_off_c, 0, 39, 64
1, 33912, Note_on_c, 0, 39, 91
1, 33926, Note_off_c, 5, 39, 64
1, 33928, Note_off_c, 4, 39, 64
1, 33928, Note_off_c, 1, 27, 64
1, 33931, Note_off_c, 0, 39, 64
1, 33936, Note_on_c, 9, 42, 50
1, 33936, Note_on_c, 9, 69, 75
1, 33936, Note_on_c, 0, 39, 62
1, 33937, Note_off_c, 9, 69, 64
1, 33937, Note_off_c, 9, 42, 64
1, 33953, Pitch_bend_c, 3, 7810
1, 33955, Note_off_c, 0, 39, 64
1, 33958, Pitch_bend_c, 3, 7306
1, 33960, Note_on_c, 0, 39, 65
1, 33963, Pitch_bend_c, 3, 6298
1, 33968, Pitch_bend_c, 3, 4156
1, 33973, Pitch_bend_c, 3, 3526
1, 33978, Pitch_bend_c, 3, 3148
1, 33979, Note_off_c, 0, 39, 64
1, 33984, Note_on_c, 9, 42, 110
1, 33984, Note_on_c, 0, 39, 72
1, 33985, Note_off_c, 9, 42, 64
1, 33987, Note_on_c, 3, 66, 108
1, 33989, Pitch_bend_c, 3, 3652
1, 33994, Pitch_bend_c, 3, 5542
1, 33999, Pitch_bend_c, 3, 7810
1, 34003, Note_off_c, 0, 39, 64
1, 34004, Pitch_bend_c, 3, 8192
1, 34008, Note_on_c, 0, 39, 70
1, 34027, Note_off_c, 0, 39, 64
1, 34032, Note_on_c, 9, 42, 50
1, 34032, Note_on_c, 9, 36, 90
1, 34032, Note_on_c, 0, 39, 55
1, 34033, Note_off_c, 9, 36, 64
1, 34033, Note_off_c, 9, 42, 64
1, 34033, Note_off_c, 3, 66, 64
1, 34039, Note_on_c, 3, 63, 107
1, 34044, Control_c, 3, 10, 100
1, 34051, Note_off_c, 0, 39, 64
1, 34051, Note_off_c, 3, 63, 64
1, 34056, Note_on_c, 0, 39, 81
1, 34067, Control_c, 3, 10, 127
1, 34075, Note_off_c, 0, 39, 64
1, 34080, Note_on_c, 9, 42, 110
1, 34080, Note_on_c, 9, 38, 115
1, 34080, Note_on_c, 0, 39, 61
1, 34081, Note_off_c, 9, 38, 64
1, 34081, Note_off_c, 9, 42, 64
1, 34081, Note_on_c, 9, 39, 127
1, 34082, Note_off_c, 9, 39, 64
1, 34082, Note_on_c, 3, 66, 90
1, 34087, Note_on_c, 10, 39, 127
1, 34088, Note_off_c, 10, 39, 64
1, 34099, Note_off_c, 0, 39, 64
1, 34104, Note_on_c, 0, 39, 101
1, 34116, Control_c, 3, 10, 112
1, 34123, Note_off_c, 0, 39, 64
1, 34128, Note_on_c, 9, 42, 50
1, 34128, Note_on_c, 0, 39, 89
1, 34129, Note_off_c, 9, 42, 64
1, 34130, Note_on_c, 3, 63, 90
1, 34133, Note_off_c, 3, 66, 64
1, 34139, Control_c, 3, 10, 93
1, 34145, Note_off_c, 3, 63, 64
1, 34147, Note_off_c, 0, 39, 64
1, 34152, Note_on_c, 0, 39, 85
1, 34162, Control_c, 3, 10, 74
1, 34171, Note_off_c, 0, 39, 64
1, 34176, Note_on_c, 9, 42, 110
1, 34176, Note_on_c, 9, 36, 90
1, 34176, Note_on_c, 0, 39, 91
1, 34177, Note_off_c, 9, 36, 64
1, 34177, Note_off_c, 9, 42, 64
1, 34178, Note_on_c, 3, 66, 80
1, 34185, Control_c, 3, 10, 59
1, 34195, Note_off_c, 0, 39, 64
1, 34200, Note_on_c, 0, 39, 70
1, 34208, Control_c, 3, 10, 45
1, 34217, Note_off_c, 3, 66, 64
1, 34219, Note_off_c, 0, 39, 64
1, 34222, Note_on_c, 5, 39, 106
1, 34224, Note_on_c, 9, 42, 50
1, 34224, Note_on_c, 1, 27, 127
1, 34224, Note_on_c, 9, 69, 63
1, 34224, Note_on_c, 4, 39, 106
1, 34224, Note_on_c, 0, 39, 60
1, 34225, Note_off_c, 9, 69, 64
1, 34225, Note_off_c, 9, 42, 64
1, 34225, Note_on_c, 8, 39, 109
1, 34226, Note_on_c, 3, 63, 80
1, 34234, Control_c, 3, 10, 36
1, 34238, Note_off_c, 8, 39, 64
1, 34239, Note_off_c, 3, 63, 64
1, 34243, Note_off_c, 0, 39, 64
1, 34248, Note_on_c, 0, 39, 61
1, 34260, Note_off_c, 1, 27, 64
1, 34261, Control_c, 3, 10, 30
1, 34262, Note_off_c, 5, 39, 64
1, 34264, Note_off_c, 4, 39, 64
1, 34267, Note_off_c, 0, 39, 64
1, 34270, Note_on_c, 5, 39, 106
1, 34272, Note_on_c, 9, 42, 110
1, 34272, Note_on_c, 9, 38, 115
1, 34272, Note_on_c, 1, 27, 127
1, 34272, Note_on_c, 9, 69, 77
1, 34272, Note_on_c, 4, 39, 106
1, 34272, Note_on_c, 0, 39, 89
1, 34273, Note_off_c, 9, 69, 64
1, 34273, Note_off_c, 9, 38, 64
1, 34273, Note_off_c, 9, 42, 64
1, 34273, Note_on_c, 8, 39, 101
1, 34274, Note_on_c, 3, 66, 70
1, 34286, Note_off_c, 8, 39, 64
1, 34291, Note_off_c, 0, 39, 64
1, 34291, Control_c, 3, 10, 50
1, 34296, Note_on_c, 0, 39, 103
1, 34309, Note_off_c, 3, 66, 64
1, 34310, Note_off_c, 5, 39, 64
1, 34312, Note_off_c, 4, 39, 64
1, 34312, Note_off_c, 1, 27, 64
1, 34314, Control_c, 3, 10, 73
1, 34315, Note_off_c, 0, 39, 64
1, 34320, Note_on_c, 9, 42, 50
1, 34320, Note_on_c, 0, 39, 83
1, 34321, Note_off_c, 9, 42, 64
1, 34322, Note_on_c, 3, 63, 70
1, 34335, Note_off_c, 3, 63, 64
1, 34337, Control_c, 3, 10, 90
1, 34339, Note_off_c, 0, 39, 64
1, 34344, Note_on_c, 0, 39, 60
1, 34359, Control_c, 3, 10, 105
1, 34363, Note_off_c, 0, 39, 64
1, 34366, Note_on_c, 5, 39, 113
1, 34368, Note_on_c, 9, 42, 110
1, 34368, Note_on_c, 9, 36, 90
1, 34368, Note_on_c, 1, 27, 127
1, 34368, Note_on_c, 9, 69, 78
1, 34368, Note_on_c, 4, 39, 113
1, 34368, Note_on_c, 8, 39, 115
1, 34368, Note_on_c, 0, 39, 75
1, 34369, Note_off_c, 9, 69, 64
1, 34369, Note_off_c, 9, 36, 64
1, 34369, Note_off_c, 9, 42, 64
1, 34370, Note_on_c, 3, 66, 60
1, 34381, Note_off_c, 8, 39, 64
1, 34382, Control_c, 3, 10, 116
1, 34387, Note_off_c, 0, 39, 64
1, 34392, Note_on_c, 0, 39, 87
1, 34401, Note_off_c, 3, 66, 64
1, 34405, Control_c, 3, 10, 125
1, 34406, Note_off_c, 5, 39, 64
1, 34408, Note_off_c, 1, 27, 64
1, 34408, Note_off_c, 4, 39, 64
1, 34411, Note_off_c, 0, 39, 64
1, 34416, Note_on_c, 9, 42, 50
1, 34416, Note_on_c, 9, 69, 81
1, 34416, Note_on_c, 0, 39, 69
1, 34417, Note_off_c, 9, 69, 64
1, 34417, Note_off_c, 9, 42, 64
1, 34418, Note_on_c, 3, 63, 60
1, 34428, Control_c, 3, 10, 127
1, 34430, Note_off_c, 3, 63, 64
1, 34435, Note_off_c, 0, 39, 64
1, 34440, Note_on_c, 0, 39, 75
1, 34459, Note_off_c, 0, 39, 64
1, 34464, Note_on_c, 9, 42, 110
1, 34464, Note_on_c, 9, 38, 115
1, 34464, Note_on_c, 0, 39, 73
1, 34465, Note_off_c, 9, 38, 64
1, 34465, Note_off_c, 9, 42, 64
1, 34465, Note_on_c, 9, 39, 127
1, 34466, Note_off_c, 9, 39, 64
1, 34466, Note_on_c, 3, 66, 50
1, 34470, Control_c, 3, 10, 109
1, 34471, Note_on_c, 10, 39, 127
1, 34472, Note_off_c, 10, 39, 64
1, 34483, Note_off_c, 0, 39, 64
1, 34488, Note_on_c, 0, 39, 105
1, 34492, Control_c, 3, 10, 95
1, 34495, Note_off_c, 3, 66, 64
1, 34507, Note_off_c, 0, 39, 64
1, 34510, Note_on_c, 5, 39, 114
1, 34511, Note_on_c, 8, 39, 111
1, 34512, Note_on_c, 9, 42, 50
1, 34512, Note_on_c, 1, 27, 127
1, 34512, Note_on_c, 9, 69, 80
1, 34512, Note_on_c, 4, 39, 114
1, 34512, Note_on_c, 0, 39, 79
1, 34513, Note_off_c, 9, 69, 64
1, 34513, Note_off_c, 9, 42, 64
1, 34514, Note_on_c, 3, 63, 50
1, 34515, Control_c, 3, 10, 82
1, 34524, Note_off_c, 8, 39, 64
1, 34526, Note_off_c, 3, 63, 64
1, 34531, Note_off_c, 0, 39, 64
1, 34536, Note_on_c, 0, 39, 55
1, 34538, Control_c, 3, 10, 67
1, 34547, Note_off_c, 1, 27, 64
1, 34550, Note_off_c, 5, 39, 64
1, 34552, Note_off_c, 4, 39, 64
1, 34555, Note_off_c, 0, 39, 64
1, 34558, Note_on_c, 5, 39, 113
1, 34560, Note_on_c, 9, 42, 110
1, 34560, Note_on_c, 9, 36, 90
1, 34560, Note_on_c, 1, 27, 127
1, 34560, Note_on_c, 9, 69, 82
1, 34560, Note_on_c, 4, 39, 113
1, 34560, Note_on_c, 8, 39, 115
1, 34560, Note_on_c, 0, 39, 46
1, 34561, Note_off_c, 9, 69, 64
1, 34561, Note_off_c, 9, 36, 64
1, 34561, Note_off_c, 9, 42, 64
1, 34561, Control_c, 3, 10, 56
1, 34562, Note_on_c, 3, 66, 107
1, 34573, Note_off_c, 8, 39, 64
1, 34579, Note_off_c, 0, 39, 64
1, 34584, Control_c, 3, 10, 48
1, 34584, Note_on_c, 0, 39, 46
1, 34598, Note_off_c, 5, 39, 64
1, 34600, Note_off_c, 1, 27, 64
1, 34600, Note_off_c, 4, 39, 64
1, 34603, Note_off_c, 0, 39, 64
1, 34606, Control_c, 3, 10, 42
1, 34608, Note_off_c, 3, 66, 64
1, 34608, Note_on_c, 9, 42, 50
1, 34608, Note_on_c, 0, 39, 48
1, 34609, Note_off_c, 9, 42, 64
1, 34609, Note_on_c, 3, 63, 101
1, 34623, Note_off_c, 3, 63, 64
1, 34627, Note_off_c, 0, 39, 64
1, 34632, Note_on_c, 0, 39, 65
1, 34651, Note_off_c, 0, 39, 64
1, 34652, Control_c, 3, 10, 61
1, 34654, Note_on_c, 5, 39, 114
1, 34656, Note_on_c, 9, 42, 110
1, 34656, Note_on_c, 9, 38, 115
1, 34656, Note_on_c, 9, 36, 90
1, 34656, Note_on_c, 1, 27, 127
1, 34656, Note_on_c, 9, 69, 71
1, 34656, Note_on_c, 4, 39, 114
1, 34656, Note_on_c, 8, 39, 121
1, 34656, Note_on_c, 0, 39, 66
1, 34657, Note_off_c, 9, 69, 64
1, 34657, Note_off_c, 9, 36, 64
1, 34657, Note_off_c, 9, 38, 64
1, 34657, Note_off_c, 9, 42, 64
1, 34658, Note_on_c, 3, 66, 125
1, 34669, Note_off_c, 8, 39, 64
1, 34675, Note_off_c, 0, 39, 64
1, 34675, Control_c, 3, 10, 86
1, 34680, Note_on_c, 0, 39, 106
1, 34694, Note_off_c, 5, 39, 64
1, 34696, Note_off_c, 4, 39, 64
1, 34696, Note_off_c, 1, 27, 64
1, 34698, Control_c, 3, 10, 105
1, 34699, Note_off_c, 0, 39, 64
1, 34704, Note_on_c, 9, 42, 50
1, 34704, Note_on_c, 9, 69, 74
1, 34704, Note_on_c, 0, 39, 83
1, 34705, Note_off_c, 9, 69, 64
1, 34705, Note_off_c, 9, 42, 64
1, 34706, Note_on_c, 3, 63, 110
1, 34711, Note_off_c, 3, 66, 64
1, 34720, Control_c, 3, 10, 123
1, 34721, Note_off_c, 3, 63, 64
1, 34723, Note_off_c, 0, 39, 64
1, 34728, Note_on_c, 0, 39, 87
1, 34743, Control_c, 3, 10, 126
1, 34747, Note_off_c, 0, 39, 64
1, 34752, Note_on_c, 9, 42, 110
1, 34752, Note_on_c, 12, 25, 110
1, 34752, Note_on_c, 12, 37, 110
1, 34752, Note_on_c, 13, 37, 110
1, 34752, Note_on_c, 0, 39, 61
1, 34753, Note_off_c, 9, 42, 64
1, 34754, Note_on_c, 3, 66, 90
1, 34770, Control_c, 3, 10, 127
1, 34771, Note_off_c, 0, 39, 64
1, 34776, Note_on_c, 0, 39, 56
1, 34789, Note_off_c, 3, 66, 64
1, 34795, Note_off_c, 0, 39, 64
1, 34800, Note_on_c, 9, 42, 50
1, 34800, Note_on_c, 9, 36, 90
1, 34800, Note_on_c, 0, 39, 49
1, 34801, Note_off_c, 9, 36, 64
1, 34801, Note_off_c, 9, 42, 64
1, 34802, Note_on_c, 3, 63, 80
1, 34804, Control_c, 3, 10, 114
1, 34814, Note_off_c, 3, 63, 64
1, 34819, Note_off_c, 0, 39, 64
1, 34824, Note_on_c, 0, 39, 69
1, 34827, Control_c, 3, 10, 100
1, 34843, Note_off_c, 0, 39, 64
1, 34848, Note_on_c, 9, 42, 110
1, 34848, Note_on_c, 9, 38, 115
1, 34848, Note_on_c, 0, 39, 58
1, 34849, Note_off_c, 9, 38, 64
1, 34849, Note_off_c, 9, 42, 64
1, 34849, Control_c, 3, 10, 85
1, 34849, Note_on_c, 9, 39, 127
1, 34850, Note_off_c, 9, 39, 64
1, 34850, Note_on_c, 3, 66, 70
1, 34855, Note_on_c, 10, 39, 127
1, 34856, Note_off_c, 10, 39, 64
1, 34867, Note_off_c, 0, 39, 64
1, 34872, Control_c, 3, 10, 71
1, 34872, Note_on_c, 0, 39, 97
1, 34886, Note_off_c, 3, 66, 64
1, 34891, Note_off_c, 0, 39, 64
1, 34896, Note_on_c, 9, 42, 50
1, 34896, Note_on_c, 0, 39, 54
1, 34897, Note_off_c, 9, 42, 64
1, 34898, Note_on_c, 3, 63, 60
1, 34899, Control_c, 3, 10, 62
1, 34912, Note_off_c, 3, 63, 64
1, 34915, Note_off_c, 0, 39, 64
1, 34920, Note_on_c, 0, 39, 101
1, 34922, Control_c, 3, 10, 52
1, 34939, Note_off_c, 0, 39, 64
1, 34942, Note_off_c, 12, 37, 64
1, 34942, Note_off_c, 12, 25, 64
1, 34942, Note_off_c, 13, 37, 64
1, 34944, Note_on_c, 9, 42, 110
1, 34944, Note_on_c, 9, 36, 90
1, 34944, Note_on_c, 12, 27, 110
1, 34944, Note_on_c, 12, 39, 110
1, 34944, Note_on_c, 13, 39, 110
1, 34944, Note_on_c, 0, 39, 60
1, 34944, Note_on_c, 6, 61, 113
1, 34945, Note_off_c, 9, 36, 64
1, 34945, Note_off_c, 9, 42, 64
1, 34945, Note_on_c, 6, 56, 125
1, 34946, Note_on_c, 3, 66, 50
1, 34947, Note_off_c, 6, 61, 64
1, 34947, Control_c, 3, 10, 44
1, 34948, Note_off_c, 6, 56, 64
1, 34963, Note_off_c, 0, 39, 64
1, 34968, Note_on_c, 0, 39, 87
1, 34968, Note_on_c, 6, 61, 121
1, 34969, Note_on_c, 6, 56, 125
1, 34971, Note_off_c, 6, 61, 64
1, 34971, Control_c, 3, 10, 38
1, 34972, Note_off_c, 6, 56, 64
1, 34977, Note_off_c, 3, 66, 64
1, 34987, Note_off_c, 0, 39, 64
1, 34990, Note_on_c, 5, 39, 106
1, 34991, Note_on_c, 6, 61, 121
1, 34992, Note_on_c, 9, 42, 50
1, 34992, Note_on_c, 1, 27, 127
1, 34992, Note_on_c, 4, 39, 106
1, 34992, Note_on_c, 0, 39, 54
1, 34992, Note_on_c, 6, 56, 121
1, 34993, Note_off_c, 9, 42, 64
1, 34993, Note_on_c, 8, 39, 109
1, 34994, Note_off_c, 6, 61, 64
1, 34994, Note_on_c, 3, 63, 40
1, 34995, Note_off_c, 6, 56, 64
1, 35005, Control_c, 3, 10, 34
1, 35006, Note_off_c, 8, 39, 64
1, 35008, Note_off_c, 3, 63, 64
1, 35011, Note_off_c, 0, 39, 64
1, 35015, Note_on_c, 6, 61, 116
1, 35016, Note_on_c, 0, 39, 69
1, 35017, Note_on_c, 6, 56, 115
1, 35018, Note_off_c, 6, 61, 64
1, 35020, Note_off_c, 6, 56, 64
1, 35028, Note_off_c, 1, 27, 64
1, 35030, Note_off_c, 5, 39, 64
1, 35032, Note_off_c, 4, 39, 64
1, 35035, Note_off_c, 0, 39, 64
1, 35038, Note_on_c, 5, 39, 106
1, 35039, Note_on_c, 6, 66, 127
1, 35040, Note_on_c, 9, 42, 110
1, 35040, Note_on_c, 9, 38, 115
1, 35040, Note_on_c, 1, 27, 127
1, 35040, Note_on_c, 4, 39, 106
1, 35040, Note_on_c, 0, 39, 47
1, 35041, Note_off_c, 9, 38, 64
1, 35041, Note_off_c, 9, 42, 64
1, 35041, Note_on_c, 8, 39, 101
1, 35041, Note_on_c, 6, 61, 125
1, 35042, Note_on_c, 3, 66, 40
1, 35054, Note_off_c, 8, 39, 64
1, 35059, Note_off_c, 0, 39, 64
1, 35064, Note_on_c, 0, 39, 93
1, 35075, Note_off_c, 3, 66, 64
1, 35078, Note_off_c, 5, 39, 64
1, 35080, Note_off_c, 1, 27, 64
1, 35080, Note_off_c, 4, 39, 64
1, 35082, Note_off_c, 6, 66, 64
1, 35083, Note_off_c, 0, 39, 64
1, 35084, Note_off_c, 6, 61, 64
1, 35088, Note_on_c, 9, 42, 50
1, 35088, Note_on_c, 0, 39, 62
1, 35088, Note_on_c, 6, 56, 91
1, 35089, Note_off_c, 9, 42, 64
1, 35089, Note_on_c, 6, 61, 101
1, 35090, Note_on_c, 3, 63, 40
1, 35091, Note_off_c, 6, 56, 64
1, 35092, Note_off_c, 6, 61, 64
1, 35105, Note_off_c, 3, 63, 64
1, 35107, Note_off_c, 0, 39, 64
1, 35111, Note_on_c, 6, 61, 103
1, 35112, Note_on_c, 0, 39, 103
1, 35112, Note_on_c, 6, 56, 106
1, 35114, Note_off_c, 6, 61, 64
1, 35115, Note_off_c, 6, 56, 64
1, 35131, Note_off_c, 0, 39, 64
1, 35134, Note_on_c, 5, 39, 113
1, 35135, Note_on_c, 6, 66, 127
1, 35136, Note_on_c, 9, 42, 110
1, 35136, Note_on_c, 9, 36, 90
1, 35136, Note_on_c, 1, 27, 127
1, 35136, Note_on_c, 4, 39, 113
1, 35136, Note_on_c, 8, 39, 115
1, 35136, Note_on_c, 0, 39, 73
1, 35137, Note_off_c, 9, 36, 64
1, 35137, Note_off_c, 9, 42, 64
1, 35137, Note_on_c, 6, 61, 127
1, 35138, Note_on_c, 3, 66, 40
1, 35149, Note_off_c, 8, 39, 64
1, 35155, Note_off_c, 0, 39, 64
1, 35160, Note_on_c, 0, 39, 93
1, 35170, Note_off_c, 3, 66, 64
1, 35174, Note_off_c, 5, 39, 64
1, 35176, Note_off_c, 1, 27, 64
1, 35176, Note_off_c, 4, 39, 64
1, 35178, Note_off_c, 6, 66, 64
1, 35179, Note_off_c, 0, 39, 64
1, 35180, Note_off_c, 6, 61, 64
1, 35183, Note_on_c, 6, 63, 123
1, 35184, Note_on_c, 9, 42, 50
1, 35184, Note_on_c, 0, 39, 65
1, 35185, Note_off_c, 9, 42, 64
1, 35185, Note_on_c, 6, 58, 125
1, 35186, Note_on_c, 3, 63, 40
1, 35200, Note_off_c, 3, 63, 64
1, 35203, Note_off_c, 0, 39, 64
1, 35208, Note_on_c, 0, 39, 54
1, 35218, Pitch_bend_c, 6, 8328
1, 35222, Pitch_bend_c, 6, 8510
1, 35226, Pitch_bend_c, 6, 8692
1, 35227, Note_off_c, 0, 39, 64
1, 35232, Note_on_c, 9, 42, 110
1, 35232, Note_on_c, 9, 38, 115
1, 35232, Note_on_c, 0, 39, 60
1, 35233, Note_off_c, 9, 38, 64
1, 35233, Note_off_c, 9, 42, 64
1, 35233, Note_on_c, 9, 39, 127
1, 35234, Note_off_c, 9, 39, 64
1, 35235, Pitch_bend_c, 6, 8510
1, 35239, Note_on_c, 10, 39, 127
1, 35239, Pitch_bend_c, 6, 8192
1, 35240, Note_off_c, 10, 39, 64
1, 35247, Pitch_bend_c, 6, 8237
1, 35251, Note_off_c, 0, 39, 64
1, 35251, Pitch_bend_c, 6, 9010
1, 35256, Note_on_c, 0, 39, 65
1, 35256, Pitch_bend_c, 6, 9101
1, 35260, Pitch_bend_c, 6, 9010
1, 35264, Pitch_bend_c, 6, 8192
1, 35274, Note_off_c, 6, 63, 64
1, 35275, Note_off_c, 0, 39, 64
1, 35276, Note_off_c, 6, 58, 64
1, 35277, Pitch_bend_c, 6, 8783
1, 35278, Note_on_c, 5, 39, 114
1, 35279, Note_on_c, 8, 39, 111
1, 35279, Note_on_c, 6, 63, 115
1, 35280, Note_on_c, 9, 42, 50
1, 35280, Note_on_c, 1, 27, 127
1, 35280, Note_on_c, 4, 39, 114
1, 35280, Note_on_c, 0, 39, 57
1, 35281, Note_off_c, 9, 42, 64
1, 35281, Pitch_bend_c, 6, 9010
1, 35281, Note_on_c, 6, 58, 115
1, 35282, Note_off_c, 6, 63, 64
1, 35284, Note_off_c, 6, 58, 64
1, 35285, Pitch_bend_c, 6, 9101
1, 35289, Pitch_bend_c, 6, 8919
1, 35292, Note_off_c, 8, 39, 64
1, 35294, Pitch_bend_c, 6, 7925
1, 35298, Pitch_bend_c, 6, 8192
1, 35299, Note_off_c, 0, 39, 64
1, 35302, Pitch_bend_c, 6, 8328
1, 35303, Note_on_c, 6, 63, 115
1, 35304, Note_on_c, 0, 39, 77
1, 35304, Note_on_c, 6, 58, 117
1, 35306, Note_off_c, 6, 63, 64
1, 35306, Pitch_bend_c, 6, 8874
1, 35307, Note_off_c, 6, 58, 64
1, 35310, Pitch_bend_c, 6, 8419
1, 35315, Note_off_c, 1, 27, 64
1, 35315, Pitch_bend_c, 6, 8192
1, 35318, Note_off_c, 5, 39, 64
1, 35320, Note_off_c, 4, 39, 64
1, 35323, Note_off_c, 0, 39, 64
1, 35326, Note_off_c, 12, 27, 64
1, 35326, Note_off_c, 13, 39, 64
1, 35326, Note_off_c, 12, 39, 64
1, 35326, Note_on_c, 5, 39, 113
1, 35328, Note_on_c, 9, 42, 110
1, 35328, Note_on_c, 9, 36, 90
1, 35328, Note_on_c, 1, 27, 127
1, 35328, Note_on_c, 4, 39, 113
1, 35328, Note_on_c, 8, 39, 115
1, 35328, Note_on_c, 0, 39, 70
1, 35328, Note_on_c, 6, 66, 110
1, 35329, Note_off_c, 9, 36, 64
1, 35329, Note_off_c, 9, 42, 64
1, 35329, Note_on_c, 6, 61, 127
1, 35341, Note_off_c, 8, 39, 64
1, 35347, Note_off_c, 0, 39, 64
1, 35352, Note_on_c, 0, 39, 85
1, 35366, Note_off_c, 5, 39, 64
1, 35368, Note_off_c, 4, 39, 64
1, 35368, Note_off_c, 1, 27, 64
1, 35371, Note_off_c, 6, 66, 64
1, 35371, Note_off_c, 0, 39, 64
1, 35372, Note_off_c, 6, 61, 64
1, 35376, Note_on_c, 9, 42, 50
1, 35376, Note_on_c, 0, 39, 75
1, 35376, Note_on_c, 6, 56, 106
1, 35377, Note_off_c, 9, 42, 64
1, 35377, Note_on_c, 6, 61, 100
1, 35379, Note_off_c, 6, 56, 64
1, 35380, Note_off_c, 6, 61, 64
1, 35395, Note_off_c, 0, 39, 64
1, 35399, Note_on_c, 6, 61, 110
1, 35400, Note_on_c, 0, 39, 85
1, 35400, Note_on_c, 6, 56, 117
1, 35402, Note_off_c, 6, 61, 64
1, 35403, Note_off_c, 6, 56, 64
1, 35419, Note_off_c, 0, 39, 64
1, 35422, Note_on_c, 5, 39, 114
1, 35424, Note_on_c, 9, 42, 110
1, 35424, Note_on_c, 9, 38, 115
1, 35424, Note_on_c, 9, 36, 90
1, 35424, Note_on_c, 1, 27, 127
1, 35424, Note_on_c, 4, 39, 114
1, 35424, Note_on_c, 8, 39, 121
1, 35424, Note_on_c, 0, 39, 75
1, 35424, Note_on_c, 6, 66, 127
1, 35425, Note_off_c, 9, 36, 64
1, 35425, Note_off_c, 9, 38, 64
1, 35425, Note_off_c, 9, 42, 64
1, 35425, Note_on_c, 6, 61, 103
1, 35437, Note_off_c, 8, 39, 64
1, 35443, Note_off_c, 0, 39, 64
1, 35448, Note_on_c, 0, 39, 66
1, 35462, Note_off_c, 5, 39, 64
1, 35464, Note_off_c, 1, 27, 64
1, 35464, Note_off_c, 4, 39, 64
1, 35467, Note_off_c, 6, 66, 64
1, 35467, Note_off_c, 0, 39, 64
1, 35468, Note_off_c, 6, 61, 64
1, 35471, Note_on_c, 6, 58, 123
1, 35472, Note_on_c, 9, 42, 50
1, 35472, Note_on_c, 0, 39, 65
1, 35473, Note_off_c, 9, 42, 64
1, 35473, Note_on_c, 6, 63, 127
1, 35491, Note_off_c, 0, 39, 64
1, 35492, Pitch_bend_c, 6, 8237
1, 35496, Note_on_c, 0, 39, 58
1, 35496, Pitch_bend_c, 6, 8783
1, 35500, Pitch_bend_c, 6, 9010
1, 35505, Pitch_bend_c, 6, 9192
1, 35509, Pitch_bend_c, 6, 9010
1, 35513, Pitch_bend_c, 6, 8419
1, 35515, Note_off_c, 0, 39, 64
1, 35517, Pitch_bend_c, 6, 8192
1, 35520, Note_on_c, 9, 42, 110
1, 35520, Note_on_c, 0, 39, 62
1, 35521, Note_off_c, 9, 42, 64
1, 35534, Pitch_bend_c, 6, 8419
1, 35538, Pitch_bend_c, 6, 8919
1, 35539, Note_off_c, 0, 39, 64
1, 35543, Pitch_bend_c, 6, 9010
1, 35544, Note_on_c, 0, 39, 91
1, 35547, Pitch_bend_c, 6, 8919
1, 35551, Pitch_bend_c, 6, 7925
1, 35555, Pitch_bend_c, 6, 8192
1, 35563, Note_off_c, 0, 39, 64
1, 35568, Note_on_c, 9, 42, 50
1, 35568, Note_on_c, 9, 36, 90
1, 35568, Note_on_c, 0, 39, 89
1, 35569, Note_off_c, 9, 36, 64
1, 35569, Note_off_c, 9, 42, 64
1, 35586, Note_off_c, 6, 58, 64
1, 35587, Note_off_c, 6, 63, 64
1, 35587, Note_off_c, 0, 39, 64
1, 35588, Note_on_c, 6, 60, 94
1, 35588, Note_on_c, 6, 55, 94
1, 35592, Note_on_c, 0, 39, 97
1, 35596, Note_off_c, 6, 55, 64
1, 35596, Note_off_c, 6, 60, 64
1, 35596, Note_on_c, 6, 54, 90
1, 35596, Note_on_c, 6, 59, 90
1, 35604, Note_off_c, 6, 59, 64
1, 35604, Note_off_c, 6, 54, 64
1, 35604, Note_on_c, 6, 53, 86
1, 35604, Note_on_c, 6, 58, 86
1, 35611, Note_off_c, 0, 39, 64
1, 35612, Note_off_c, 6, 53, 64
1, 35612, Note_off_c, 6, 58, 64
1, 35612, Note_on_c, 6, 52, 84
1, 35612, Note_on_c, 6, 57, 84
1, 35616, Note_on_c, 9, 42, 110
1, 35616, Note_on_c, 9, 38, 115
1, 35616, Note_on_c, 0, 39, 93
1, 35617, Note_off_c, 9, 38, 64
1, 35617, Note_off_c, 9, 42, 64
1, 35617, Note_on_c, 9, 39, 127
1, 35618, Note_off_c, 9, 39, 64
1, 35620, Note_off_c, 6, 57, 64
1, 35620, Note_off_c, 6, 52, 64
1, 35620, Note_on_c, 6, 51, 82
1, 35620, Note_on_c, 6, 56, 82
1, 35623, Note_on_c, 10, 39, 127
1, 35624, Note_off_c, 10, 39, 64
1, 35628, Note_off_c, 6, 56, 64
1, 35628, Note_off_c, 6, 51, 64
1, 35628, Note_on_c, 6, 50, 80
1, 35628, Note_on_c, 6, 55, 80
1, 35635, Note_off_c, 0, 39, 64
1, 35636, Note_off_c, 6, 50, 64
1, 35636, Note_off_c, 6, 55, 64
1, 35636, Note_on_c, 6, 54, 79
1, 35636, Note_on_c, 6, 49, 79
1, 35640, Note_on_c, 0, 39, 99
1, 35644, Note_off_c, 6, 49, 64
1, 35644, Note_off_c, 6, 54, 64
1, 35644, Note_on_c, 6, 48, 78
1, 35644, Note_on_c, 6, 53, 78
1, 35652, Note_off_c, 6, 53, 64
1, 35652, Note_off_c, 6, 48, 64
1, 35659, Note_off_c, 0, 39, 64
1, 35664, Note_on_c, 9, 42, 50
1, 35664, Note_on_c, 0, 39, 87
1, 35665, Note_off_c, 9, 42, 64
1, 35683, Note_off_c, 0, 39, 64
1, 35688, Note_on_c, 0, 39, 79
1, 35707, Note_off_c, 0, 39, 64
1, 35712, Note_on_c, 9, 42, 110
1, 35712, Note_on_c, 9, 36, 90
1, 35712, Note_on_c, 0, 39, 67
1, 35712, Note_on_c, 6, 61, 113
1, 35713, Note_off_c, 9, 36, 64
1, 35713, Note_off_c, 9, 42, 64
1, 35713, Note_on_c, 6, 56, 125
1, 35715, Note_off_c, 6, 61, 64
1, 35716, Note_off_c, 6, 56, 64
1, 35731, Note_off_c, 0, 39, 64
1, 35736, Note_on_c, 0, 39, 51
1, 35736, Note_on_c, 6, 61, 121
1, 35737, Note_on_c, 6, 56, 125
1, 35739, Note_off_c, 6, 61, 64
1, 35740, Note_off_c, 6, 56, 64
1, 35755, Note_off_c, 0, 39, 64
1, 35758, Note_on_c, 5, 39, 106
1, 35759, Note_on_c, 6, 61, 121
1, 35760, Note_on_c, 9, 42, 50
1, 35760, Note_on_c, 1, 27, 127
1, 35760, Note_on_c, 4, 39, 106
1, 35760, Note_on_c, 0, 39, 70
1, 35760, Note_on_c, 6, 56, 121
1, 35761, Note_off_c, 9, 42, 64
1, 35761, Note_on_c, 8, 39, 109
1, 35762, Note_off_c, 6, 61, 64
1, 35763, Note_off_c, 6, 56, 64
1, 35774, Note_off_c, 8, 39, 64
1, 35779, Note_off_c, 0, 39, 64
1, 35780, Control_c, 3, 10, 39
1, 35783, Note_on_c, 6, 61, 116
1, 35784, Note_on_c, 0, 39, 67
1, 35785, Note_on_c, 6, 56, 115
1, 35786, Note_off_c, 6, 61, 64
1, 35788, Note_off_c, 6, 56, 64
1, 35796, Note_off_c, 1, 27, 64
1, 35798, Note_off_c, 5, 39, 64
1, 35800, Note_off_c, 4, 39, 64
1, 35803, Note_off_c, 0, 39, 64
1, 35803, Control_c, 3, 10, 52
1, 35806, Note_on_c, 5, 39, 106
1, 35807, Note_on_c, 6, 66, 127
1, 35808, Note_on_c, 9, 42, 110
1, 35808, Note_on_c, 9, 38, 115
1, 35808, Note_on_c, 1, 27, 127
1, 35808, Note_on_c, 4, 39, 106
1, 35808, Note_on_c, 0, 39, 72
1, 35809, Note_off_c, 9, 38, 64
1, 35809, Note_off_c, 9, 42, 64
1, 35809, Note_on_c, 8, 39, 101
1, 35809, Note_on_c, 6, 61, 125
1, 35822, Note_off_c, 8, 39, 64
1, 35825, Control_c, 3, 10, 62
1, 35827, Note_off_c, 0, 39, 64
1, 35832, Note_on_c, 0, 39, 65
1, 35846, Note_off_c, 5, 39, 64
1, 35848, Note_off_c, 1, 27, 64
1, 35848, Note_off_c, 4, 39, 64
1, 35848, Control_c, 3, 10, 65
1, 35850, Note_off_c, 6, 66, 64
1, 35851, Note_off_c, 0, 39, 64
1, 35852, Note_off_c, 6, 61, 64
1, 35856, Note_on_c, 9, 42, 50
1, 35856, Note_on_c, 0, 39, 77
1, 35856, Note_on_c, 6, 56, 91
1, 35857, Note_off_c, 9, 42, 64
1, 35857, Note_on_c, 6, 61, 101
1, 35859, Note_off_c, 6, 56, 64
1, 35860, Note_off_c, 6, 61, 64
1, 35875, Note_off_c, 0, 39, 64
1, 35879, Note_on_c, 6, 61, 103
1, 35880, Note_on_c, 0, 39, 93
1, 35880, Note_on_c, 6, 56, 106
1, 35882, Note_off_c, 6, 61, 64
1, 35883, Note_off_c, 6, 56, 64
1, 35899, Note_off_c, 0, 39, 64
1, 35902, Note_on_c, 5, 39, 113
1, 35903, Note_on_c, 6, 66, 127
1, 35904, Note_on_c, 9, 42, 110
1, 35904, Note_on_c, 9, 36, 90
1, 35904, Note_on_c, 1, 27, 127
1, 35904, Note_on_c, 4, 39, 113
1, 35904, Note_on_c, 8, 39, 115
1, 35904, Note_on_c, 0, 39, 79
1, 35905, Note_off_c, 9, 36, 64
1, 35905, Note_off_c, 9, 42, 64
1, 35905, Note_on_c, 6, 61, 127
1, 35917, Note_off_c, 8, 39, 64
1, 35923, Note_off_c, 0, 39, 64
1, 35928, Note_on_c, 0, 39, 99
1, 35942, Note_off_c, 5, 39, 64
1, 35944, Note_off_c, 1, 27, 64
1, 35944, Note_off_c, 4, 39, 64
1, 35946, Note_off_c, 6, 66, 64
1, 35947, Note_off_c, 0, 39, 64
1, 35948, Note_off_c, 6, 61, 64
1, 35951, Note_on_c, 6, 63, 123
1, 35952, Note_on_c, 9, 42, 50
1, 35952, Note_on_c, 0, 39, 75
1, 35953, Note_off_c, 9, 42, 64
1, 35953, Note_on_c, 6, 58, 125
1, 35971, Note_off_c, 0, 39, 64
1, 35976, Note_on_c, 0, 39, 93
1, 35986, Pitch_bend_c, 6, 8328
1, 35990, Pitch_bend_c, 6, 8510
1, 35994, Pitch_bend_c, 6, 8692
1, 35995, Note_off_c, 0, 39, 64
1, 36000, Note_on_c, 9, 42, 110
1, 36000, Note_on_c, 9, 38, 115
1, 36000, Note_on_c, 0, 39, 72
1, 36001, Note_off_c, 9, 38, 64
1, 36001, Note_off_c, 9, 42, 64
1, 36001, Note_on_c, 9, 39, 127
1, 36002, Note_off_c, 9, 39, 64
1, 36003, Pitch_bend_c, 6, 8510
1, 36007, Note_on_c, 10, 39, 127
1, 36007, Pitch_bend_c, 6, 8192
1, 36008, Note_off_c, 10, 39, 64
1, 36015, Pitch_bend_c, 6, 8237
1, 36019, Note_off_c, 0, 39, 64
1, 36019, Pitch_bend_c, 6, 9010
1, 36024, Note_on_c, 0, 39, 79
1, 36024, Pitch_bend_c, 6, 9101
1, 36028, Pitch_bend_c, 6, 9010
1, 36032, Pitch_bend_c, 6, 8192
1, 36042, Note_off_c, 6, 63, 64
1, 36043, Note_off_c, 0, 39, 64
1, 36044, Note_off_c, 6, 58, 64
1, 36045, Pitch_bend_c, 6, 8783
1, 36046, Note_on_c, 5, 39, 114
1, 36047, Note_on_c, 8, 39, 111
1, 36047, Note_on_c, 6, 63, 115
1, 36048, Note_on_c, 9, 42, 50
1, 36048, Note_on_c, 1, 27, 127
1, 36048, Note_on_c, 4, 39, 114
1, 36048, Note_on_c, 0, 39, 81
1, 36049, Note_off_c, 9, 42, 64
1, 36049, Pitch_bend_c, 6, 9010
1, 36049, Note_on_c, 6, 58, 115
1, 36050, Note_off_c, 6, 63, 64
1, 36052, Note_off_c, 6, 58, 64
1, 36053, Pitch_bend_c, 6, 9101
1, 36057, Pitch_bend_c, 6, 8919
1, 36060, Note_off_c, 8, 39, 64
1, 36062, Pitch_bend_c, 6, 7925
1, 36066, Pitch_bend_c, 6, 8192
1, 36067, Note_off_c, 0, 39, 64
1, 36070, Pitch_bend_c, 6, 8328
1, 36071, Note_on_c, 6, 63, 115
1, 36072, Note_on_c, 0, 39, 67
1, 36072, Note_on_c, 6, 58, 117
1, 36074, Note_off_c, 6, 63, 64
1, 36074, Pitch_bend_c, 6, 8874
1, 36075, Note_off_c, 6, 58, 64
1, 36078, Pitch_bend_c, 6, 8419
1, 36083, Note_off_c, 1, 27, 64
1, 36083, Pitch_bend_c, 6, 8192
1, 36086, Note_off_c, 5, 39, 64
1, 36088, Note_off_c, 4, 39, 64
1, 36091, Note_off_c, 0, 39, 64
1, 36094, Note_on_c, 5, 39, 113
1, 36096, Note_on_c, 9, 42, 110
1, 36096, Note_on_c, 9, 36, 90
1, 36096, Note_on_c, 1, 27, 127
1, 36096, Note_on_c, 12, 25, 110
1, 36096, Note_on_c, 12, 37, 110
1, 36096, Note_on_c, 13, 37, 110
1, 36096, Note_on_c, 4, 39, 113
1, 36096, Note_on_c, 8, 39, 115
1, 36096, Note_on_c, 0, 39, 73
1, 36096, Note_on_c, 6, 66, 110
1, 36097, Note_off_c, 9, 36, 64
1, 36097, Note_off_c, 9, 42, 64
1, 36097, Note_on_c, 6, 61, 127
1, 36098, Note_on_c, 3, 66, 108
1, 36109, Note_off_c, 8, 39, 64
1, 36115, Note_off_c, 0, 39, 64
1, 36120, Note_on_c, 0, 39, 83
1, 36134, Note_off_c, 5, 39, 64
1, 36136, Note_off_c, 4, 39, 64
1, 36136, Note_off_c, 1, 27, 64
1, 36139, Note_off_c, 6, 66, 64
1, 36139, Note_off_c, 0, 39, 64
1, 36140, Note_off_c, 6, 61, 64
1, 36141, Note_off_c, 3, 66, 64
1, 36143, Note_on_c, 3, 63, 105
1, 36144, Note_on_c, 9, 42, 50
1, 36144, Note_on_c, 0, 39, 79
1, 36144, Note_on_c, 6, 56, 106
1, 36145, Note_off_c, 9, 42, 64
1, 36145, Note_on_c, 6, 61, 100
1, 36147, Note_off_c, 6, 56, 64
1, 36148, Note_off_c, 6, 61, 64
1, 36158, Note_off_c, 3, 63, 64
1, 36163, Note_off_c, 0, 39, 64
1, 36167, Note_on_c, 6, 61, 110
1, 36168, Note_on_c, 0, 39, 99
1, 36168, Note_on_c, 6, 56, 117
1, 36170, Note_off_c, 6, 61, 64
1, 36171, Note_off_c, 6, 56, 64
1, 36175, Control_c, 3, 10, 73
1, 36186, Control_c, 3, 10, 112
1, 36187, Note_off_c, 0, 39, 64
1, 36190, Note_on_c, 5, 39, 114
1, 36192, Note_on_c, 9, 42, 110
1, 36192, Note_on_c, 9, 38, 115
1, 36192, Note_on_c, 9, 36, 90
1, 36192, Note_on_c, 1, 27, 127
1, 36192, Note_on_c, 4, 39, 114
1, 36192, Note_on_c, 8, 39, 121
1, 36192, Note_on_c, 0, 39, 89
1, 36192, Note_on_c, 6, 66, 127
1, 36193, Note_off_c, 9, 36, 64
1, 36193, Note_off_c, 9, 38, 64
1, 36193, Note_off_c, 9, 42, 64
1, 36193, Note_on_c, 6, 61, 103
1, 36194, Note_on_c, 3, 66, 110
1, 36205, Note_off_c, 8, 39, 64
1, 36205, Control_c, 3, 10, 127
1, 36211, Note_off_c, 0, 39, 64
1, 36216, Note_on_c, 0, 39, 91
1, 36230, Note_off_c, 5, 39, 64
1, 36232, Note_off_c, 1, 27, 64
1, 36232, Note_off_c, 4, 39, 64
1, 36235, Note_off_c, 6, 66, 64
1, 36235, Note_off_c, 0, 39, 64
1, 36236, Note_off_c, 6, 61, 64
1, 36239, Note_on_c, 6, 58, 123
1, 36240, Note_off_c, 3, 66, 64
1, 36240, Note_on_c, 9, 42, 50
1, 36240, Note_on_c, 0, 39, 83
1, 36241, Note_off_c, 9, 42, 64
1, 36241, Note_on_c, 6, 63, 127
1, 36242, Note_on_c, 3, 63, 105
1, 36243, Control_c, 3, 10, 91
1, 36257, Note_off_c, 3, 63, 64
1, 36259, Note_off_c, 0, 39, 64
1, 36260, Pitch_bend_c, 6, 8237
1, 36264, Note_on_c, 0, 39, 91
1, 36264, Pitch_bend_c, 6, 8783
1, 36266, Control_c, 3, 10, 63
1, 36268, Pitch_bend_c, 6, 9010
1, 36273, Pitch_bend_c, 6, 9192
1, 36277, Pitch_bend_c, 6, 9010
1, 36281, Pitch_bend_c, 6, 8419
1, 36283, Note_off_c, 0, 39, 64
1, 36285, Pitch_bend_c, 6, 8192
1, 36286, Note_off_c, 12, 37, 64
1, 36286, Note_off_c, 13, 37, 64
1, 36286, Note_off_c, 12, 25, 64
1, 36288, Note_on_c, 9, 42, 110
1, 36288, Note_on_c, 12, 25, 110
1, 36288, Note_on_c, 12, 37, 110
1, 36288, Note_on_c, 13, 37, 110
1, 36288, Note_on_c, 0, 39, 77
1, 36289, Note_off_c, 9, 42, 64
1, 36289, Control_c, 3, 10, 43
1, 36290, Note_on_c, 3, 66, 90
1, 36302, Pitch_bend_c, 6, 8419
1, 36304, Control_c, 3, 10, 16
1, 36306, Pitch_bend_c, 6, 8919
1, 36307, Note_off_c, 0, 39, 64
1, 36311, Pitch_bend_c, 6, 9010
1, 36312, Note_on_c, 0, 39, 89
1, 36315, Pitch_bend_c, 6, 8919
1, 36319, Pitch_bend_c, 6, 7925
1, 36323, Pitch_bend_c, 6, 8192
1, 36324, Note_off_c, 3, 66, 64
1, 36331, Note_off_c, 0, 39, 64
1, 36331, Control_c, 3, 10, 11
1, 36336, Note_on_c, 9, 42, 50
1, 36336, Note_on_c, 9, 36, 90
1, 36336, Note_on_c, 0, 39, 87
1, 36337, Note_off_c, 9, 36, 64
1, 36337, Note_off_c, 9, 42, 64
1, 36338, Note_on_c, 3, 63, 90
1, 36352, Note_off_c, 3, 63, 64
1, 36354, Note_off_c, 6, 58, 64
1, 36355, Note_off_c, 0, 39, 64
1, 36355, Note_off_c, 6, 63, 64
1, 36356, Note_on_c, 6, 60, 94
1, 36356, Note_on_c, 6, 55, 94
1, 36360, Note_on_c, 0, 39, 79
1, 36364, Note_off_c, 6, 55, 64
1, 36364, Note_off_c, 6, 60, 64
1, 36364, Note_on_c, 6, 54, 90
1, 36364, Note_on_c, 6, 59, 90
1, 36372, Note_off_c, 6, 59, 64
1, 36372, Note_off_c, 6, 54, 64
1, 36372, Note_on_c, 6, 53, 86
1, 36372, Note_on_c, 6, 58, 86
1, 36376, Control_c, 3, 10, 24
1, 36379, Note_off_c, 0, 39, 64
1, 36380, Note_off_c, 6, 53, 64
1, 36380, Note_off_c, 6, 58, 64
1, 36380, Note_on_c, 6, 52, 84
1, 36380, Note_on_c, 6, 57, 84
1, 36384, Note_on_c, 9, 42, 110
1, 36384, Note_on_c, 9, 38, 115
1, 36384, Note_on_c, 0, 39, 75
1, 36385, Note_off_c, 9, 38, 64
1, 36385, Note_off_c, 9, 42, 64
1, 36385, Note_on_c, 9, 39, 127
1, 36386, Note_off_c, 9, 39, 64
1, 36386, Note_on_c, 3, 66, 80
1, 36388, Note_off_c, 6, 57, 64
1, 36388, Note_off_c, 6, 52, 64
1, 36388, Note_on_c, 6, 51, 82
1, 36388, Note_on_c, 6, 56, 82
1, 36391, Note_on_c, 10, 39, 127
1, 36392, Note_off_c, 10, 39, 64
1, 36396, Note_off_c, 6, 56, 64
1, 36396, Note_off_c, 6, 51, 64
1, 36396, Note_on_c, 6, 50, 80
1, 36396, Note_on_c, 6, 55, 80
1, 36399, Control_c, 3, 10, 44
1, 36403, Note_off_c, 0, 39, 64
1, 36404, Note_off_c, 6, 50, 64
1, 36404, Note_off_c, 6, 55, 64
1, 36404, Note_on_c, 6, 54, 79
1, 36404, Note_on_c, 6, 49, 79
1, 36408, Note_on_c, 0, 39, 67
1, 36412, Note_off_c, 6, 49, 64
1, 36412, Note_off_c, 6, 54, 64
1, 36412, Note_on_c, 6, 48, 78
1, 36412, Note_on_c, 6, 53, 78
1, 36420, Note_off_c, 6, 53, 64
1, 36420, Note_off_c, 6, 48, 64
1, 36422, Note_off_c, 3, 66, 64
1, 36422, Control_c, 3, 10, 61
1, 36427, Note_off_c, 0, 39, 64
1, 36432, Note_on_c, 9, 42, 50
1, 36432, Note_on_c, 0, 39, 62
1, 36433, Note_off_c, 9, 42, 64
1, 36434, Note_on_c, 3, 63, 80
1, 36445, Control_c, 3, 10, 78
1, 36450, Note_off_c, 3, 63, 64
1, 36451, Note_off_c, 0, 39, 64
1, 36456, Note_on_c, 0, 39, 85
1, 36467, Control_c, 3, 10, 96
1, 36475, Note_off_c, 0, 39, 64
1, 36478, Note_off_c, 13, 37, 64
1, 36478, Note_off_c, 12, 37, 64
1, 36478, Note_off_c, 12, 25, 64
1, 36480, Note_on_c, 9, 42, 110
1, 36480, Note_on_c, 9, 36, 90
1, 36480, Note_on_c, 12, 27, 110
1, 36480, Note_on_c, 12, 39, 110
1, 36480, Note_on_c, 13, 39, 110
1, 36480, Note_on_c, 0, 39, 79
1, 36480, Note_on_c, 6, 61, 113
1, 36481, Note_off_c, 9, 36, 64
1, 36481, Note_off_c, 9, 42, 64
1, 36481, Note_on_c, 6, 56, 125
1, 36482, Note_on_c, 3, 66, 70
1, 36483, Note_off_c, 6, 61, 64
1, 36484, Note_off_c, 6, 56, 64
1, 36490, Control_c, 3, 10, 108
1, 36499, Note_off_c, 0, 39, 64
1, 36504, Note_on_c, 0, 39, 95
1, 36504, Note_on_c, 6, 61, 121
1, 36505, Note_on_c, 6, 56, 125
1, 36507, Note_off_c, 6, 61, 64
1, 36508, Note_off_c, 6, 56, 64
1, 36513, Control_c, 3, 10, 116
1, 36519, Note_off_c, 3, 66, 64
1, 36523, Note_off_c, 0, 39, 64
1, 36526, Note_on_c, 5, 39, 106
1, 36527, Note_on_c, 6, 61, 121
1, 36528, Note_on_c, 9, 42, 50
1, 36528, Note_on_c, 1, 27, 127
1, 36528, Note_on_c, 9, 69, 65
1, 36528, Note_on_c, 4, 39, 106
1, 36528, Note_on_c, 0, 39, 87
1, 36528, Note_on_c, 6, 56, 121
1, 36529, Note_off_c, 9, 69, 64
1, 36529, Note_off_c, 9, 42, 64
1, 36529, Note_on_c, 8, 39, 109
1, 36530, Note_off_c, 6, 61, 64
1, 36530, Note_on_c, 3, 63, 70
1, 36531, Note_off_c, 6, 56, 64
1, 36536, Control_c, 3, 10, 117
1, 36542, Note_off_c, 8, 39, 64
1, 36544, Note_off_c, 3, 63, 64
1, 36547, Note_off_c, 0, 39, 64
1, 36551, Note_on_c, 6, 61, 116
1, 36552, Note_on_c, 0, 39, 77
1, 36553, Note_on_c, 6, 56, 115
1, 36554, Note_off_c, 6, 61, 64
1, 36556, Note_off_c, 6, 56, 64
1, 36559, Control_c, 3, 10, 106
1, 36564, Note_off_c, 1, 27, 64
1, 36566, Note_off_c, 5, 39, 64
1, 36568, Note_off_c, 4, 39, 64
1, 36571, Note_off_c, 0, 39, 64
1, 36574, Note_on_c, 5, 39, 106
1, 36575, Note_on_c, 6, 66, 127
1, 36576, Note_on_c, 9, 42, 110
1, 36576, Note_on_c, 9, 38, 115
1, 36576, Note_on_c, 1, 27, 127
1, 36576, Note_on_c, 9, 69, 70
1, 36576, Note_on_c, 4, 39, 106
1, 36576, Note_on_c, 0, 39, 72
1, 36577, Note_off_c, 9, 69, 64
1, 36577, Note_off_c, 9, 38, 64
1, 36577, Note_off_c, 9, 42, 64
1, 36577, Note_on_c, 8, 39, 101
1, 36577, Note_on_c, 6, 61, 125
1, 36578, Note_on_c, 3, 66, 60
1, 36581, Control_c, 3, 10, 84
1, 36590, Note_off_c, 8, 39, 64
1, 36595, Note_off_c, 0, 39, 64
1, 36600, Note_on_c, 0, 39, 73
1, 36604, Control_c, 3, 10, 70
1, 36609, Note_off_c, 3, 66, 64
1, 36614, Note_off_c, 5, 39, 64
1, 36616, Note_off_c, 1, 27, 64
1, 36616, Note_off_c, 4, 39, 64
1, 36618, Note_off_c, 6, 66, 64
1, 36619, Note_off_c, 0, 39, 64
1, 36620, Note_off_c, 6, 61, 64
1, 36624, Note_on_c, 9, 42, 50
1, 36624, Note_on_c, 0, 39, 67
1, 36624, Note_on_c, 6, 56, 91
1, 36625, Note_off_c, 9, 42, 64
1, 36625, Note_on_c, 6, 61, 101
1, 36626, Note_on_c, 3, 63, 60
1, 36627, Note_off_c, 6, 56, 64
1, 36628, Note_off_c, 6, 61, 64
1, 36631, Control_c, 3, 10, 60
1, 36637, Note_off_c, 3, 63, 64
1, 36643, Note_off_c, 0, 39, 64
1, 36647, Note_on_c, 6, 61, 103
1, 36648, Note_on_c, 0, 39, 85
1, 36648, Note_on_c, 6, 56, 106
1, 36650, Note_off_c, 6, 61, 64
1, 36651, Note_off_c, 6, 56, 64
1, 36653, Control_c, 3, 10, 48
1, 36667, Note_off_c, 0, 39, 64
1, 36670, Note_on_c, 5, 39, 113
1, 36671, Note_on_c, 6, 66, 127
1, 36672, Note_on_c, 9, 42, 110
1, 36672, Note_on_c, 9, 36, 90
1, 36672, Note_on_c, 1, 27, 127
1, 36672, Note_on_c, 9, 69, 71
1, 36672, Note_on_c, 4, 39, 113
1, 36672, Note_on_c, 8, 39, 115
1, 36672, Note_on_c, 0, 39, 77
1, 36673, Note_off_c, 9, 69, 64
1, 36673, Note_off_c, 9, 36, 64
1, 36673, Note_off_c, 9, 42, 64
1, 36673, Note_on_c, 6, 61, 127
1, 36675, Control_c, 3, 10, 41
1, 36685, Note_off_c, 8, 39, 64
1, 36691, Note_off_c, 0, 39, 64
1, 36695, Control_c, 3, 10, 37
1, 36696, Note_on_c, 0, 39, 66
1, 36710, Note_off_c, 5, 39, 64
1, 36712, Note_off_c, 1, 27, 64
1, 36712, Note_off_c, 4, 39, 64
1, 36714, Note_off_c, 6, 66, 64
1, 36715, Note_off_c, 0, 39, 64
1, 36716, Note_off_c, 6, 61, 64
1, 36718, Control_c, 3, 10, 33
1, 36719, Note_on_c, 6, 63, 123
1, 36720, Note_on_c, 9, 42, 50
1, 36720, Note_on_c, 9, 69, 64
1, 36720, Note_on_c, 0, 39, 73
1, 36721, Note_off_c, 9, 69, 64
1, 36721, Note_off_c, 9, 42, 64
1, 36721, Note_on_c, 6, 58, 125
1, 36739, Note_off_c, 0, 39, 64
1, 36744, Note_on_c, 0, 39, 56
1, 36754, Pitch_bend_c, 6, 8328
1, 36756, Control_c, 3, 10, 41
1, 36758, Pitch_bend_c, 6, 8510
1, 36762, Pitch_bend_c, 6, 8692
1, 36763, Note_off_c, 0, 39, 64
1, 36768, Note_on_c, 9, 42, 110
1, 36768, Note_on_c, 9, 38, 115
1, 36768, Note_on_c, 0, 39, 79
1, 36769, Note_off_c, 9, 38, 64
1, 36769, Note_off_c, 9, 42, 64
1, 36769, Note_on_c, 9, 39, 127
1, 36770, Note_off_c, 9, 39, 64
1, 36771, Pitch_bend_c, 6, 8510
1, 36775, Note_on_c, 10, 39, 127
1, 36775, Pitch_bend_c, 6, 8192
1, 36776, Note_off_c, 10, 39, 64
1, 36779, Control_c, 3, 10, 55
1, 36783, Pitch_bend_c, 6, 8237
1, 36787, Note_off_c, 0, 39, 64
1, 36787, Pitch_bend_c, 6, 9010
1, 36792, Note_on_c, 0, 39, 70
1, 36792, Pitch_bend_c, 6, 9101
1, 36796, Pitch_bend_c, 6, 9010
1, 36800, Pitch_bend_c, 6, 8192
1, 36801, Control_c, 3, 10, 62
1, 36810, Note_off_c, 6, 63, 64
1, 36811, Note_off_c, 0, 39, 64
1, 36812, Note_off_c, 6, 58, 64
1, 36813, Pitch_bend_c, 6, 8783
1, 36814, Note_on_c, 5, 39, 114
1, 36815, Note_on_c, 8, 39, 111
1, 36815, Note_on_c, 6, 63, 115
1, 36816, Note_on_c, 9, 42, 50
1, 36816, Note_on_c, 1, 27, 127
1, 36816, Note_on_c, 9, 69, 75
1, 36816, Note_on_c, 4, 39, 114
1, 36816, Note_on_c, 0, 39, 81
1, 36817, Note_off_c, 9, 69, 64
1, 36817, Note_off_c, 9, 42, 64
1, 36817, Pitch_bend_c, 6, 9010
1, 36817, Note_on_c, 6, 58, 115
1, 36818, Note_off_c, 6, 63, 64
1, 36820, Note_off_c, 6, 58, 64
1, 36821, Pitch_bend_c, 6, 9101
1, 36824, Control_c, 3, 10, 63
1, 36825, Pitch_bend_c, 6, 8919
1, 36828, Note_off_c, 8, 39, 64
1, 36830, Pitch_bend_c, 6, 7925
1, 36834, Pitch_bend_c, 6, 8192
1, 36835, Note_off_c, 0, 39, 64
1, 36838, Pitch_bend_c, 6, 8328
1, 36839, Note_on_c, 6, 63, 115
1, 36840, Note_on_c, 0, 39, 97
1, 36840, Note_on_c, 6, 58, 117
1, 36842, Note_off_c, 6, 63, 64
1, 36842, Pitch_bend_c, 6, 8874
1, 36843, Note_off_c, 6, 58, 64
1, 36846, Pitch_bend_c, 6, 8419
1, 36851, Note_off_c, 1, 27, 64
1, 36851, Pitch_bend_c, 6, 8192
1, 36854, Note_off_c, 5, 39, 64
1, 36856, Note_off_c, 4, 39, 64
1, 36858, Control_c, 3, 10, 64
1, 36859, Note_off_c, 0, 39, 64
1, 36862, Note_off_c, 12, 27, 64
1, 36862, Note_off_c, 13, 39, 64
1, 36862, Note_off_c, 12, 39, 64
1, 36862, Note_on_c, 5, 39, 113
1, 36864, Note_on_c, 9, 42, 110
1, 36864, Note_on_c, 9, 36, 90
1, 36864, Note_on_c, 1, 27, 127
1, 36864, Note_on_c, 9, 69, 75
1, 36864, Note_on_c, 4, 39, 113
1, 36864, Note_on_c, 8, 39, 115
1, 36864, Note_on_c, 0, 39, 85
1, 36864, Note_on_c, 6, 66, 110
1, 36865, Note_off_c, 9, 69, 64
1, 36865, Note_off_c, 9, 36, 64
1, 36865, Note_off_c, 9, 42, 64
1, 36865, Note_on_c, 6, 61, 127
1, 36877, Note_off_c, 8, 39, 64
1, 36883, Note_off_c, 0, 39, 64
1, 36888, Note_on_c, 0, 39, 95
1, 36902, Note_off_c, 5, 39, 64
1, 36904, Note_off_c, 1, 27, 64
1, 36904, Note_off_c, 4, 39, 64
1, 36907, Note_off_c, 6, 66, 64
1, 36907, Note_off_c, 0, 39, 64
1, 36908, Note_off_c, 6, 61, 64
1, 36912, Note_on_c, 9, 42, 50
1, 36912, Note_on_c, 0, 39, 81
1, 36912, Note_on_c, 6, 56, 106
1, 36913, Note_off_c, 9, 42, 64
1, 36913, Note_on_c, 6, 61, 100
1, 36915, Note_off_c, 6, 56, 64
1, 36916, Note_off_c, 6, 61, 64
1, 36931, Note_off_c, 0, 39, 64
1, 36935, Note_on_c, 6, 61, 110
1, 36936, Note_on_c, 0, 39, 79
1, 36936, Note_on_c, 6, 56, 117
1, 36938, Note_off_c, 6, 61, 64
1, 36939, Note_off_c, 6, 56, 64
1, 36955, Note_off_c, 0, 39, 64
1, 36958, Note_on_c, 5, 39, 114
1, 36960, Note_on_c, 9, 42, 110
1, 36960, Note_on_c, 9, 38, 115
1, 36960, Note_on_c, 9, 36, 90
1, 36960, Note_on_c, 1, 27, 127
1, 36960, Note_on_c, 9, 69, 77
1, 36960, Note_on_c, 4, 39, 114
1, 36960, Note_on_c, 8, 39, 121
1, 36960, Note_on_c, 0, 39, 69
1, 36960, Note_on_c, 6, 66, 127
1, 36961, Note_off_c, 9, 69, 64
1, 36961, Note_off_c, 9, 36, 64
1, 36961, Note_off_c, 9, 38, 64
1, 36961, Note_off_c, 9, 42, 64
1, 36961, Note_on_c, 6, 61, 103
1, 36973, Note_off_c, 8, 39, 64
1, 36979, Note_off_c, 0, 39, 64
1, 36984, Note_on_c, 0, 39, 79
1, 36992, Note_on_c, 7, 44, 120
1, 36998, Note_off_c, 5, 39, 64
1, 37000, Note_off_c, 1, 27, 64
1, 37000, Note_off_c, 4, 39, 64
1, 37000, Note_off_c, 7, 44, 64
1, 37003, Note_off_c, 0, 39, 64
1, 37003, Note_off_c, 6, 66, 64
1, 37004, Note_off_c, 6, 61, 64
1, 37007, Note_on_c, 6, 58, 123
1, 37008, Note_on_c, 9, 42, 50
1, 37008, Note_on_c, 9, 69, 78
1, 37008, Note_on_c, 0, 39, 72
1, 37009, Note_off_c, 9, 69, 64
1, 37009, Note_off_c, 9, 42, 64
1, 37009, Note_on_c, 6, 63, 127
1, 37022, Control_c, 3, 10, 68
1, 37024, Note_on_c, 7, 44, 120
1, 37027, Note_off_c, 0, 39, 64
1, 37028, Pitch_bend_c, 6, 8237
1, 37032, Note_off_c, 7, 44, 64
1, 37032, Note_on_c, 0, 39, 89
1, 37032, Pitch_bend_c, 6, 8783
1, 37036, Pitch_bend_c, 6, 9010
1, 37041, Pitch_bend_c, 6, 9192
1, 37045, Pitch_bend_c, 6, 9010
1, 37049, Pitch_bend_c, 6, 8419
1, 37051, Note_off_c, 0, 39, 64
1, 37053, Pitch_bend_c, 6, 8192
1, 37056, Note_on_c, 9, 42, 110
1, 37056, Note_on_c, 0, 39, 73
1, 37056, Note_on_c, 7, 44, 120
1, 37057, Note_off_c, 9, 42, 64
1, 37064, Note_off_c, 7, 44, 64
1, 37070, Pitch_bend_c, 6, 8419
1, 37074, Pitch_bend_c, 6, 8919
1, 37075, Note_off_c, 0, 39, 64
1, 37079, Pitch_bend_c, 6, 9010
1, 37080, Note_on_c, 0, 39, 91
1, 37083, Pitch_bend_c, 6, 8919
1, 37087, Pitch_bend_c, 6, 7925
1, 37088, Note_on_c, 7, 44, 120
1, 37091, Pitch_bend_c, 6, 8192
1, 37096, Note_off_c, 7, 44, 64
1, 37099, Note_off_c, 0, 39, 64
1, 37104, Note_on_c, 9, 42, 50
1, 37104, Note_on_c, 9, 36, 90
1, 37104, Note_on_c, 0, 39, 81
1, 37105, Note_off_c, 9, 36, 64
1, 37105, Note_off_c, 9, 42, 64
1, 37120, Note_on_c, 7, 44, 120
1, 37122, Note_off_c, 6, 58, 64
1, 37123, Note_off_c, 0, 39, 64
1, 37123, Note_off_c, 6, 63, 64
1, 37124, Note_on_c, 6, 60, 94
1, 37124, Note_on_c, 6, 55, 94
1, 37128, Note_off_c, 7, 44, 64
1, 37128, Note_on_c, 0, 39, 67
1, 37132, Note_off_c, 6, 60, 64
1, 37132, Note_off_c, 6, 55, 64
1, 37132, Note_on_c, 6, 54, 90
1, 37132, Note_on_c, 6, 59, 90
1, 37140, Note_off_c, 6, 59, 64
1, 37140, Note_off_c, 6, 54, 64
1, 37140, Control_c, 3, 10, 69
1, 37140, Note_on_c, 6, 53, 86
1, 37140, Note_on_c, 6, 58, 86
1, 37147, Note_off_c, 0, 39, 64
1, 37148, Note_off_c, 6, 53, 64
1, 37148, Note_off_c, 6, 58, 64
1, 37148, Note_on_c, 6, 52, 84
1, 37148, Note_on_c, 6, 57, 84
1, 37152, Note_on_c, 9, 42, 110
1, 37152, Note_on_c, 9, 38, 115
1, 37152, Note_on_c, 0, 39, 77
1, 37152, Note_on_c, 7, 44, 98
1, 37153, Note_off_c, 9, 38, 64
1, 37153, Note_off_c, 9, 42, 64
1, 37153, Note_on_c, 9, 39, 127
1, 37154, Note_off_c, 9, 39, 64
1, 37156, Note_off_c, 6, 57, 64
1, 37156, Note_off_c, 6, 52, 64
1, 37156, Note_on_c, 6, 51, 82
1, 37156, Note_on_c, 6, 56, 82
1, 37159, Note_on_c, 10, 39, 127
1, 37160, Note_off_c, 10, 39, 64
1, 37160, Note_off_c, 7, 44, 64
1, 37164, Note_off_c, 6, 51, 64
1, 37164, Note_off_c, 6, 56, 64
1, 37164, Note_on_c, 6, 50, 80
1, 37164, Note_on_c, 6, 55, 80
1, 37171, Note_off_c, 0, 39, 64
1, 37172, Note_off_c, 6, 50, 64
1, 37172, Note_off_c, 6, 55, 64
1, 37172, Note_on_c, 6, 54, 79
1, 37172, Note_on_c, 6, 49, 79
1, 37176, Note_on_c, 0, 39, 73
1, 37180, Note_off_c, 6, 49, 64
1, 37180, Note_off_c, 6, 54, 64
1, 37180, Note_on_c, 6, 48, 78
1, 37180, Note_on_c, 6, 53, 78
1, 37184, Note_on_c, 7, 44, 121
1, 37188, Note_off_c, 6, 53, 64
1, 37188, Note_off_c, 6, 48, 64
1, 37192, Note_off_c, 7, 44, 64
1, 37195, Note_off_c, 0, 39, 64
1, 37200, Note_on_c, 9, 42, 50
1, 37200, Note_on_c, 0, 39, 73
1, 37201, Note_off_c, 9, 42, 64
1, 37219, Note_off_c, 0, 39, 64
1, 37224, Note_on_c, 0, 39, 85
1, 37243, Note_off_c, 0, 39, 64
1, 37248, Note_on_c, 9, 42, 110
1, 37248, Note_on_c, 9, 36, 90
1, 37248, Note_on_c, 0, 39, 75
1, 37248, Note_on_c, 6, 61, 113
1, 37249, Note_off_c, 9, 36, 64
1, 37249, Note_off_c, 9, 42, 64
1, 37249, Note_on_c, 6, 56, 125
1, 37251, Note_off_c, 6, 61, 64
1, 37252, Note_off_c, 6, 56, 64
1, 37267, Note_off_c, 0, 39, 64
1, 37272, Note_on_c, 0, 39, 79
1, 37272, Note_on_c, 6, 61, 121
1, 37273, Note_on_c, 6, 56, 125
1, 37275, Note_off_c, 6, 61, 64
1, 37276, Note_off_c, 6, 56, 64
1, 37291, Note_off_c, 0, 39, 64
1, 37294, Note_on_c, 5, 39, 106
1, 37295, Note_on_c, 6, 61, 121
1, 37296, Note_on_c, 9, 42, 50
1, 37296, Note_on_c, 1, 27, 127
1, 37296, Note_on_c, 9, 69, 68
1, 37296, Note_on_c, 4, 39, 106
1, 37296, Note_on_c, 0, 39, 65
1, 37296, Note_on_c, 6, 56, 121
1, 37297, Note_off_c, 9, 69, 64
1, 37297, Note_off_c, 9, 42, 64
1, 37297, Note_on_c, 8, 39, 109
1, 37298, Note_off_c, 6, 61, 64
1, 37299, Note_off_c, 6, 56, 64
1, 37310, Note_off_c, 8, 39, 64
1, 37315, Note_off_c, 0, 39, 64
1, 37319, Note_on_c, 6, 61, 116
1, 37320, Note_on_c, 0, 39, 77
1, 37321, Note_on_c, 6, 56, 115
1, 37322, Note_off_c, 6, 61, 64
1, 37324, Note_off_c, 6, 56, 64
1, 37332, Note_off_c, 1, 27, 64
1, 37334, Note_off_c, 5, 39, 64
1, 37336, Note_off_c, 4, 39, 64
1, 37339, Note_off_c, 0, 39, 64
1, 37342, Note_on_c, 5, 39, 106
1, 37343, Note_on_c, 6, 66, 127
1, 37344, Note_on_c, 9, 42, 110
1, 37344, Note_on_c, 9, 38, 115
1, 37344, Note_on_c, 1, 27, 127
1, 37344, Note_on_c, 9, 69, 82
1, 37344, Note_on_c, 4, 39, 106
1, 37344, Note_on_c, 0, 39, 61
1, 37345, Note_off_c, 9, 69, 64
1, 37345, Note_off_c, 9, 38, 64
1, 37345, Note_off_c, 9, 42, 64
1, 37345, Note_on_c, 8, 39, 101
1, 37345, Note_on_c, 6, 61, 125
1, 37358, Note_off_c, 8, 39, 64
1, 37363, Note_off_c, 0, 39, 64
1, 37368, Note_on_c, 0, 39, 58
1, 37382, Note_off_c, 5, 39, 64
1, 37384, Note_off_c, 1, 27, 64
1, 37384, Note_off_c, 4, 39, 64
1, 37386, Note_off_c, 6, 66, 64
1, 37387, Note_off_c, 0, 39, 64
1, 37388, Note_off_c, 6, 61, 64
1, 37392, Note_on_c, 9, 42, 50
1, 37392, Note_on_c, 0, 39, 75
1, 37392, Note_on_c, 6, 56, 91
1, 37393, Note_off_c, 9, 42, 64
1, 37393, Note_on_c, 6, 61, 101
1, 37395, Note_off_c, 6, 56, 64
1, 37396, Note_off_c, 6, 61, 64
1, 37411, Note_off_c, 0, 39, 64
1, 37415, Note_on_c, 6, 61, 103
1, 37416, Note_on_c, 0, 39, 91
1, 37416, Note_on_c, 6, 56, 106
1, 37418, Note_off_c, 6, 61, 64
1, 37419, Note_off_c, 6, 56, 64
1, 37435, Note_off_c, 0, 39, 64
1, 37438, Note_on_c, 5, 39, 113
1, 37439, Note_on_c, 6, 66, 127
1, 37440, Note_on_c, 9, 42, 110
1, 37440, Note_on_c, 9, 36, 90
1, 37440, Note_on_c, 1, 27, 127
1, 37440, Note_on_c, 9, 69, 73
1, 37440, Note_on_c, 4, 39, 113
1, 37440, Note_on_c, 8, 39, 115
1, 37440, Note_on_c, 0, 39, 77
1, 37441, Note_off_c, 9, 69, 64
1, 37441, Note_off_c, 9, 36, 64
1, 37441, Note_off_c, 9, 42, 64
1, 37441, Note_on_c, 6, 61, 127
1, 37453, Note_off_c, 8, 39, 64
1, 37459, Note_off_c, 0, 39, 64
1, 37464, Note_on_c, 0, 39, 81
1, 37478, Note_off_c, 5, 39, 64
1, 37480, Note_off_c, 1, 27, 64
1, 37480, Note_off_c, 4, 39, 64
1, 37482, Note_off_c, 6, 66, 64
1, 37483, Note_off_c, 0, 39, 64
1, 37484, Note_off_c, 6, 61, 64
1, 37487, Note_on_c, 6, 63, 123
1, 37488, Note_on_c, 9, 42, 50
1, 37488, Note_on_c, 9, 69, 75
1, 37488, Note_on_c, 0, 39, 72
1, 37489, Note_off_c, 9, 69, 64
1, 37489, Note_off_c, 9, 42, 64
1, 37489, Note_on_c, 6, 58, 127
1, 37507, Note_off_c, 0, 39, 64
1, 37512, Note_on_c, 0, 39, 72
1, 37522, Pitch_bend_c, 6, 8328
1, 37526, Pitch_bend_c, 6, 8510
1, 37530, Pitch_bend_c, 6, 8692
1, 37531, Note_off_c, 0, 39, 64
1, 37536, Note_on_c, 9, 42, 110
1, 37536, Note_on_c, 9, 38, 115
1, 37536, Note_on_c, 0, 39, 75
1, 37537, Note_off_c, 9, 38, 64
1, 37537, Note_off_c, 9, 42, 64
1, 37537, Note_on_c, 9, 39, 127
1, 37538, Note_off_c, 9, 39, 64
1, 37539, Pitch_bend_c, 6, 8510
1, 37543, Note_on_c, 10, 39, 127
1, 37543, Pitch_bend_c, 6, 8192
1, 37544, Note_off_c, 10, 39, 64
1, 37551, Pitch_bend_c, 6, 8237
1, 37555, Note_off_c, 0, 39, 64
1, 37555, Pitch_bend_c, 6, 9010
1, 37560, Note_on_c, 0, 39, 85
1, 37560, Pitch_bend_c, 6, 9101
1, 37564, Pitch_bend_c, 6, 9010
1, 37568, Pitch_bend_c, 6, 8192
1, 37578, Note_off_c, 6, 63, 64
1, 37579, Note_off_c, 0, 39, 64
1, 37581, Pitch_bend_c, 6, 8783
1, 37582, Note_on_c, 5, 39, 114
1, 37583, Note_off_c, 6, 58, 64
1, 37583, Note_on_c, 8, 39, 111
1, 37584, Note_on_c, 9, 42, 50
1, 37584, Note_on_c, 1, 27, 127
1, 37584, Note_on_c, 9, 69, 83
1, 37584, Note_on_c, 4, 39, 114
1, 37584, Note_on_c, 0, 39, 69
1, 37585, Note_off_c, 9, 69, 64
1, 37585, Note_off_c, 9, 42, 64
1, 37585, Pitch_bend_c, 6, 9010
1, 37585, Note_on_c, 6, 58, 115
1, 37588, Note_off_c, 6, 58, 64
1, 37589, Pitch_bend_c, 6, 9101
1, 37593, Pitch_bend_c, 6, 8919
1, 37596, Note_off_c, 8, 39, 64
1, 37598, Pitch_bend_c, 6, 7925
1, 37602, Pitch_bend_c, 6, 8192
1, 37603, Note_off_c, 0, 39, 64
1, 37606, Pitch_bend_c, 6, 8328
1, 37607, Note_on_c, 6, 63, 115
1, 37608, Note_on_c, 0, 39, 91
1, 37608, Note_on_c, 6, 58, 117
1, 37610, Note_off_c, 6, 63, 64
1, 37610, Pitch_bend_c, 6, 8874
1, 37611, Note_off_c, 6, 58, 64
1, 37614, Pitch_bend_c, 6, 8419
1, 37619, Note_off_c, 1, 27, 64
1, 37619, Pitch_bend_c, 6, 8192
1, 37622, Note_off_c, 5, 39, 64
1, 37624, Note_off_c, 4, 39, 64
1, 37627, Note_off_c, 0, 39, 64
1, 37630, Note_on_c, 5, 39, 113
1, 37631, Control_c, 4, 10, 90
1, 37632, Note_on_c, 9, 42, 110
1, 37632, Note_on_c, 9, 36, 90
1, 37632, Note_on_c, 1, 27, 127
1, 37632, Note_on_c, 9, 69, 80
1, 37632, Note_on_c, 8, 39, 115
1, 37632, Note_on_c, 4, 66, 127
1, 37632, Note_on_c, 0, 39, 77
1, 37633, Note_off_c, 9, 69, 64
1, 37633, Note_off_c, 9, 36, 64
1, 37633, Note_off_c, 9, 42, 64
1, 37633, Note_on_c, 4, 61, 127
1, 37636, Control_c, 3, 5, 0
1, 37641, Control_c, 3, 0, 0
1, 37642, Control_c, 3, 32, 0
1, 37643, Program_c, 3, 29
1, 37644, Control_c, 3, 10, 90
1, 37645, Note_off_c, 8, 39, 64
1, 37651, Note_off_c, 0, 39, 64
1, 37656, Note_on_c, 0, 39, 91
1, 37670, Note_off_c, 5, 39, 64
1, 37672, Note_off_c, 1, 27, 64
1, 37675, Note_off_c, 4, 66, 64
1, 37675, Note_off_c, 0, 39, 64
1, 37676, Note_off_c, 4, 61, 64
1, 37680, Note_on_c, 9, 42, 50
1, 37680, Note_on_c, 4, 56, 127
1, 37680, Note_on_c, 0, 39, 77
1, 37680, Note_on_c, 7, 44, 102
1, 37681, Note_off_c, 9, 42, 64
1, 37681, Note_on_c, 4, 61, 127
1, 37683, Note_off_c, 4, 56, 64
1, 37684, Note_off_c, 4, 61, 64
1, 37688, Note_off_c, 7, 44, 64
1, 37688, Note_on_c, 7, 45, 95
1, 37696, Note_off_c, 7, 45, 64
1, 37696, Note_on_c, 7, 46, 103
1, 37699, Note_off_c, 0, 39, 64
1, 37703, Note_on_c, 4, 61, 127
1, 37704, Note_off_c, 7, 46, 64
1, 37704, Note_on_c, 4, 56, 127
1, 37704, Note_on_c, 0, 39, 75
1, 37704, Note_on_c, 7, 47, 97
1, 37706, Note_off_c, 4, 61, 64
1, 37707, Note_off_c, 4, 56, 64
1, 37712, Note_off_c, 7, 47, 64
1, 37712, Note_on_c, 7, 48, 95
1, 37720, Note_off_c, 7, 48, 64
1, 37720, Note_on_c, 7, 49, 110
1, 37723, Note_off_c, 0, 39, 64
1, 37726, Note_on_c, 5, 39, 114
1, 37728, Note_off_c, 7, 49, 64
1, 37728, Note_on_c, 9, 42, 110
1, 37728, Note_on_c, 9, 38, 115
1, 37728, Note_on_c, 9, 36, 90
1, 37728, Note_on_c, 1, 27, 127
1, 37728, Note_on_c, 9, 69, 81
1, 37728, Note_on_c, 8, 39, 121
1, 37728, Note_on_c, 4, 66, 127
1, 37728, Note_on_c, 0, 39, 75
1, 37728, Control_c, 6, 101, 0
1, 37728, Note_on_c, 7, 50, 72
1, 37729, Note_off_c, 9, 69, 64
1, 37729, Note_off_c, 9, 36, 64
1, 37729, Note_off_c, 9, 38, 64
1, 37729, Note_off_c, 9, 42, 64
1, 37729, Note_on_c, 4, 61, 127
1, 37729, Control_c, 6, 100, 0
1, 37730, Control_c, 6, 6, 12
1, 37731, Control_c, 6, 101, 127
1, 37732, Control_c, 6, 100, 127
1, 37736, Note_off_c, 7, 50, 64
1, 37736, Note_on_c, 7, 51, 110
1, 37741, Note_off_c, 8, 39, 64
1, 37744, Note_off_c, 7, 51, 64
1, 37744, Note_on_c, 7, 52, 90
1, 37747, Note_off_c, 0, 39, 64
1, 37752, Note_off_c, 7, 52, 64
1, 37752, Note_on_c, 0, 39, 53
1, 37752, Note_on_c, 7, 53, 84
1, 37760, Note_off_c, 7, 53, 64
1, 37760, Note_on_c, 7, 54, 97
1, 37766, Note_off_c, 5, 39, 64
1, 37768, Note_off_c, 1, 27, 64
1, 37768, Note_off_c, 7, 54, 64
1, 37768, Note_on_c, 7, 55, 68
1, 37771, Note_off_c, 4, 66, 64
1, 37771, Note_off_c, 0, 39, 64
1, 37772, Note_off_c, 4, 61, 64
1, 37775, Note_on_c, 4, 58, 127
1, 37776, Note_off_c, 7, 55, 64
1, 37776, Note_on_c, 9, 42, 50
1, 37776, Note_on_c, 9, 69, 77
1, 37776, Note_on_c, 0, 39, 91
1, 37776, Note_on_c, 7, 56, 100
1, 37777, Note_off_c, 9, 69, 64
1, 37777, Note_off_c, 9, 42, 64
1, 37777, Note_on_c, 4, 63, 127
1, 37784, Note_off_c, 7, 56, 64
1, 37784, Note_on_c, 7, 57, 99
1, 37792, Note_off_c, 7, 57, 64
1, 37792, Control_c, 3, 101, 0
1, 37792, Note_on_c, 7, 51, 110
1, 37793, Control_c, 3, 100, 0
1, 37794, Control_c, 3, 6, 12
1, 37795, Note_off_c, 0, 39, 64
1, 37795, Control_c, 3, 101, 127
1, 37796, Control_c, 3, 100, 127
1, 37796, Pitch_bend_c, 4, 8237
1, 37800, Pitch_bend_c, 4, 8783
1, 37800, Note_on_c, 0, 39, 75
1, 37804, Note_off_c, 7, 51, 64
1, 37804, Pitch_bend_c, 4, 9010
1, 37809, Pitch_bend_c, 4, 9192
1, 37813, Pitch_bend_c, 4, 9010
1, 37817, Pitch_bend_c, 4, 8419
1, 37819, Note_off_c, 0, 39, 64
1, 37821, Pitch_bend_c, 4, 8192
1, 37824, Note_on_c, 9, 42, 110
1, 37824, Note_on_c, 0, 39, 87
1, 37824, Pitch_bend_c, 6, 8192
1, 37824, Control_c, 6, 10, 50
1, 37824, Control_c, 6, 11, 127
1, 37824, Control_c, 7, 10, 50
1, 37825, Note_off_c, 9, 42, 64
1, 37825, Note_on_c, 6, 46, 127
1, 37838, Pitch_bend_c, 4, 8419
1, 37842, Pitch_bend_c, 4, 8919
1, 37843, Note_off_c, 0, 39, 64
1, 37847, Pitch_bend_c, 4, 9010
1, 37848, Note_on_c, 0, 39, 97
1, 37851, Pitch_bend_c, 4, 8919
1, 37855, Pitch_bend_c, 4, 7925
1, 37859, Pitch_bend_c, 4, 8192
1, 37867, Note_off_c, 0, 39, 64
1, 37872, Note_on_c, 9, 42, 50
1, 37872, Note_on_c, 9, 36, 90
1, 37872, Note_on_c, 0, 39, 95
1, 37873, Note_off_c, 9, 36, 64
1, 37873, Note_off_c, 9, 42, 64
1, 37888, Pitch_bend_c, 3, 8192
1, 37889, Note_on_c, 3, 46, 62
1, 37890, Note_off_c, 4, 58, 64
1, 37891, Note_off_c, 4, 63, 64
1, 37891, Note_off_c, 0, 39, 64
1, 37892, Note_on_c, 4, 60, 94
1, 37892, Note_on_c, 4, 55, 94
1, 37896, Note_on_c, 0, 39, 81
1, 37900, Note_off_c, 4, 55, 64
1, 37900, Note_off_c, 4, 60, 64
1, 37900, Note_on_c, 4, 54, 90
1, 37900, Note_on_c, 4, 59, 90
1, 37908, Note_off_c, 4, 59, 64
1, 37908, Note_off_c, 4, 54, 64
1, 37908, Note_on_c, 4, 53, 86
1, 37908, Note_on_c, 4, 58, 86
1, 37911, Pitch_bend_c, 6, 8576
1, 37915, Note_off_c, 0, 39, 64
1, 37916, Note_off_c, 4, 53, 64
1, 37916, Note_off_c, 4, 58, 64
1, 37916, Note_on_c, 4, 52, 84
1, 37916, Note_on_c, 4, 57, 84
1, 37920, Note_on_c, 9, 42, 110
1, 37920, Note_on_c, 9, 38, 115
1, 37920, Note_on_c, 0, 39, 60
1, 37921, Note_off_c, 9, 38, 64
1, 37921, Note_off_c, 9, 42, 64
1, 37921, Note_on_c, 9, 39, 127
1, 37922, Note_off_c, 9, 39, 64
1, 37924, Note_off_c, 4, 57, 64
1, 37924, Note_off_c, 4, 52, 64
1, 37924, Note_on_c, 4, 51, 82
1, 37924, Note_on_c, 4, 56, 82
1, 37927, Note_on_c, 10, 39, 127
1, 37928, Note_off_c, 10, 39, 64
1, 37932, Note_off_c, 4, 56, 64
1, 37932, Note_off_c, 4, 51, 64
1, 37932, Note_on_c, 4, 50, 80
1, 37932, Note_on_c, 4, 55, 80
1, 37932, Pitch_bend_c, 6, 8704
1, 37939, Note_off_c, 0, 39, 64
1, 37940, Note_off_c, 4, 50, 64
1, 37940, Note_off_c, 4, 55, 64
1, 37940, Note_on_c, 4, 54, 79
1, 37940, Note_on_c, 4, 49, 79
1, 37944, Note_on_c, 0, 39, 69
1, 37946, Control_c, 0, 99, 1
1, 37947, Control_c, 0, 98, 32
1, 37947, Pitch_bend_c, 6, 8832
1, 37948, Note_off_c, 4, 49, 64
1, 37948, Note_off_c, 4, 54, 64
1, 37948, Note_on_c, 4, 48, 78
1, 37948, Note_on_c, 4, 53, 78
1, 37948, Control_c, 0, 6, 64
1, 37949, Control_c, 0, 99, 1
1, 37950, Control_c, 0, 98, 33
1, 37951, Control_c, 0, 6, 64
1, 37952, Pitch_bend_c, 6, 8960
1, 37952, Control_c, 0, 101, 127
1, 37953, Control_c, 0, 100, 127
1, 37953, Control_c, 0, 93, 22
1, 37954, Control_c, 0, 91, 66
1, 37954, Control_c, 0, 10, 64
1, 37956, Note_off_c, 4, 53, 64
1, 37956, Note_off_c, 4, 48, 64
1, 37957, Pitch_bend_c, 6, 9088
1, 37962, Pitch_bend_c, 6, 9216
1, 37963, Note_off_c, 0, 39, 64
1, 37967, Pitch_bend_c, 6, 9344
1, 37968, Note_on_c, 9, 52, 80
1, 37968, Note_on_c, 9, 36, 90
1, 37968, Note_on_c, 1, 27, 127
1, 37968, Note_on_c, 5, 51, 101
1, 37969, Note_off_c, 9, 36, 64
1, 37969, Note_off_c, 9, 52, 64
1, 37971, Pitch_bend_c, 6, 9472
1, 37975, Pitch_bend_c, 3, 8576
1, 37976, Pitch_bend_c, 6, 9600
1, 37981, Pitch_bend_c, 6, 9728
1, 37986, Pitch_bend_c, 6, 9856
1, 37991, Pitch_bend_c, 6, 10012
1, 37995, Pitch_bend_c, 6, 10337
1, 37996, Pitch_bend_c, 3, 8704
1, 37998, Note_off_c, 1, 27, 64
1, 38000, Pitch_bend_c, 6, 10467
1, 38005, Pitch_bend_c, 6, 10597
1, 38008, Note_off_c, 5, 51, 64
1, 38010, Pitch_bend_c, 6, 10857
1, 38011, Pitch_bend_c, 3, 8832
1, 38015, Pitch_bend_c, 6, 11182
1, 38016, Pitch_bend_c, 3, 8960
1, 38016, Note_on_c, 9, 52, 1
1, 38016, Note_on_c, 9, 42, 80
1, 38016, Note_on_c, 9, 36, 90
1, 38016, Note_on_c, 0, 63, 78
1, 38016, Note_on_c, 0, 66, 82
1, 38016, Note_on_c, 0, 58, 78
1, 38017, Note_off_c, 9, 36, 64
1, 38017, Note_off_c, 9, 42, 64
1, 38017, Note_off_c, 9, 52, 64
1, 38018, Pitch_bend_c, 6, 11442
1, 38021, Pitch_bend_c, 3, 9088
1, 38025, Pitch_bend_c, 6, 11702
1, 38026, Pitch_bend_c, 3, 9216
1, 38029, Pitch_bend_c, 6, 12157
1, 38031, Pitch_bend_c, 3, 9344
1, 38034, Pitch_bend_c, 6, 12417
1, 38035, Pitch_bend_c, 3, 9472
1, 38039, Pitch_bend_c, 6, 12807
1, 38040, Pitch_bend_c, 3, 9600
1, 38044, Pitch_bend_c, 6, 13067
1, 38045, Pitch_bend_c, 3, 9728
1, 38049, Pitch_bend_c, 6, 13392
1, 38050, Pitch_bend_c, 3, 9856
1, 38054, Pitch_bend_c, 6, 13522
1, 38055, Pitch_bend_c, 3, 10012
1, 38059, Pitch_bend_c, 3, 10337
1, 38060, Pitch_bend_c, 6, 13652
1, 38064, Pitch_bend_c, 3, 10467
1, 38064, Note_on_c, 9, 42, 50
1, 38064, Note_on_c, 1, 39, 127
1, 38064, Note_on_c, 5, 63, 92
1, 38064, Note_on_c, 4, 58, 102
1, 38064, Note_on_c, 8, 51, 121
1, 38065, Note_off_c, 9, 42, 64
1, 38065, Pitch_bend_c, 6, 13912
1, 38069, Pitch_bend_c, 3, 10597
1, 38070, Pitch_bend_c, 6, 14042
1, 38074, Pitch_bend_c, 3, 10857
1, 38076, Pitch_bend_c, 6, 14107
1, 38079, Note_off_c, 8, 51, 64
1, 38079, Pitch_bend_c, 3, 11182
1, 38081, Pitch_bend_c, 6, 14367
1, 38082, Pitch_bend_c, 3, 11442
1, 38086, Pitch_bend_c, 6, 14627
1, 38089, Pitch_bend_c, 3, 11702
1, 38091, Pitch_bend_c, 6, 14757
1, 38093, Pitch_bend_c, 3, 12157
1, 38098, Pitch_bend_c, 3, 12417
1, 38099, Note_off_c, 1, 39, 64
1, 38101, Pitch_bend_c, 6, 15017
1, 38103, Pitch_bend_c, 3, 12807
1, 38104, Note_off_c, 5, 63, 64
1, 38104, Note_off_c, 4, 58, 64
1, 38106, Pitch_bend_c, 6, 15212
1, 38108, Pitch_bend_c, 3, 13067
1, 38111, Pitch_bend_c, 6, 15342
1, 38112, Note_on_c, 9, 42, 110
1, 38112, Note_on_c, 9, 38, 115
1, 38112, Note_on_c, 1, 39, 127
1, 38112, Note_on_c, 5, 63, 78
1, 38112, Note_on_c, 4, 51, 89
1, 38112, Note_on_c, 8, 51, 111
1, 38113, Note_off_c, 9, 38, 64
1, 38113, Note_off_c, 9, 42, 64
1, 38113, Pitch_bend_c, 3, 13392
1, 38115, Pitch_bend_c, 6, 15602
1, 38118, Pitch_bend_c, 3, 13522
1, 38120, Pitch_bend_c, 6, 15732
1, 38124, Pitch_bend_c, 3, 13652
1, 38125, Pitch_bend_c, 6, 15862
1, 38127, Note_off_c, 8, 51, 64
1, 38129, Pitch_bend_c, 3, 13912
1, 38130, Pitch_bend_c, 6, 16317
1, 38134, Pitch_bend_c, 3, 14042
1, 38140, Pitch_bend_c, 3, 14107
1, 38144, Pitch_bend_c, 6, 16383
1, 38145, Pitch_bend_c, 3, 14367
1, 38147, Note_off_c, 1, 39, 64
1, 38150, Pitch_bend_c, 3, 14627
1, 38152, Note_off_c, 5, 63, 64
1, 38152, Note_off_c, 4, 51, 64
1, 38155, Pitch_bend_c, 3, 14757
1, 38160, Note_on_c, 9, 42, 50
1, 38161, Note_off_c, 9, 42, 64
1, 38165, Pitch_bend_c, 3, 15017
1, 38170, Pitch_bend_c, 3, 15212
1, 38175, Pitch_bend_c, 3, 15342
1, 38176, Control_c, 6, 1, 30
1, 38179, Pitch_bend_c, 3, 15602
1, 38184, Pitch_bend_c, 3, 15732
1, 38189, Pitch_bend_c, 3, 15862
1, 38194, Pitch_bend_c, 3, 16317
1, 38208, Pitch_bend_c, 3, 16383
1, 38208, Note_on_c, 9, 42, 110
1, 38208, Note_on_c, 9, 36, 90
1, 38208, Note_on_c, 1, 39, 127
1, 38208, Note_on_c, 5, 63, 97
1, 38208, Note_on_c, 4, 51, 101
1, 38208, Note_on_c, 8, 51, 121
1, 38209, Note_off_c, 9, 36, 64
1, 38209, Note_off_c, 9, 42, 64
1, 38223, Note_off_c, 8, 51, 64
1, 38240, Control_c, 3, 1, 30
1, 38243, Note_off_c, 1, 39, 64
1, 38248, Note_off_c, 5, 63, 64
1, 38248, Note_off_c, 4, 51, 64
1, 38256, Note_on_c, 9, 42, 50
1, 38257, Note_off_c, 9, 42, 64
1, 38274, Control_c, 6, 1, 90
1, 38293, Pitch_bend_c, 6, 13912
1, 38298, Pitch_bend_c, 6, 8192
1, 38303, Note_off_c, 6, 46, 64
1, 38304, Note_on_c, 9, 42, 110
1, 38304, Note_on_c, 9, 38, 115
1, 38304, Note_on_c, 6, 61, 127
1, 38305, Note_off_c, 9, 38, 64
1, 38305, Note_off_c, 9, 42, 64
1, 38305, Control_c, 6, 101, 0
1, 38305, Note_on_c, 9, 39, 127
1, 38306, Note_off_c, 9, 39, 64
1, 38306, Control_c, 6, 100, 0
1, 38307, Control_c, 6, 6, 3
1, 38308, Control_c, 6, 101, 127
1, 38309, Control_c, 6, 100, 127
1, 38311, Note_on_c, 10, 39, 127
1, 38312, Note_off_c, 10, 39, 64
1, 38319, Control_c, 6, 1, 0
1, 38324, Control_c, 6, 1, 0
1, 38338, Control_c, 3, 1, 90
1, 38352, Note_on_c, 9, 42, 50
1, 38352, Note_on_c, 1, 37, 127
1, 38352, Note_on_c, 5, 61, 82
1, 38352, Note_on_c, 4, 49, 98
1, 38352, Note_on_c, 8, 49, 107
1, 38353, Note_off_c, 9, 42, 64
1, 38357, Pitch_bend_c, 3, 13912
1, 38358, Pitch_bend_c, 6, 8777
1, 38362, Pitch_bend_c, 3, 8192
1, 38362, Pitch_bend_c, 6, 10012
1, 38365, Pitch_bend_c, 6, 10337
1, 38367, Note_off_c, 8, 49, 64
1, 38367, Note_off_c, 3, 46, 64
1, 38368, Note_on_c, 3, 61, 62
1, 38369, Control_c, 3, 101, 0
1, 38369, Pitch_bend_c, 6, 10467
1, 38370, Control_c, 3, 100, 0
1, 38371, Control_c, 3, 6, 3
1, 38372, Control_c, 3, 101, 127
1, 38372, Pitch_bend_c, 6, 9492
1, 38373, Control_c, 3, 100, 127
1, 38375, Pitch_bend_c, 6, 8192
1, 38383, Control_c, 3, 1, 0
1, 38387, Note_off_c, 1, 37, 64
1, 38388, Control_c, 3, 1, 0
1, 38389, Pitch_bend_c, 6, 9232
1, 38392, Note_off_c, 5, 61, 64
1, 38392, Note_off_c, 4, 49, 64
1, 38392, Pitch_bend_c, 6, 9882
1, 38396, Note_off_c, 0, 66, 64
1, 38396, Note_off_c, 0, 63, 64
1, 38396, Note_off_c, 0, 58, 64
1, 38396, Pitch_bend_c, 6, 10012
1, 38400, Note_on_c, 9, 42, 110
1, 38400, Note_on_c, 9, 36, 90
1, 38400, Note_on_c, 1, 37, 127
1, 38400, Note_on_c, 0, 61, 77
1, 38400, Note_on_c, 0, 56, 80
1, 38400, Note_on_c, 0, 65, 74
1, 38400, Note_on_c, 5, 61, 82
1, 38400, Note_on_c, 4, 49, 98
1, 38400, Note_on_c, 8, 49, 115
1, 38401, Note_off_c, 9, 36, 64
1, 38401, Note_off_c, 9, 42, 64
1, 38401, Pitch_bend_c, 6, 9492
1, 38406, Pitch_bend_c, 6, 8192
1, 38415, Note_off_c, 8, 49, 64
1, 38416, Pitch_bend_c, 6, 9037
1, 38419, Pitch_bend_c, 6, 10207
1, 38422, Pitch_bend_c, 3, 8777
1, 38423, Pitch_bend_c, 6, 10337
1, 38426, Pitch_bend_c, 3, 10012
1, 38426, Pitch_bend_c, 6, 9362
1, 38429, Pitch_bend_c, 3, 10337
1, 38429, Pitch_bend_c, 6, 8192
1, 38433, Pitch_bend_c, 3, 10467
1, 38436, Pitch_bend_c, 3, 9492
1, 38438, Note_off_c, 1, 37, 64
1, 38439, Pitch_bend_c, 3, 8192
1, 38440, Note_off_c, 5, 61, 64
1, 38440, Note_off_c, 4, 49, 64
1, 38447, Note_off_c, 6, 61, 64
1, 38448, Note_on_c, 9, 42, 50
1, 38448, Note_on_c, 7, 56, 115
1, 38449, Note_off_c, 9, 42, 64
1, 38453, Pitch_bend_c, 3, 9232
1, 38456, Pitch_bend_c, 3, 9882
1, 38460, Pitch_bend_c, 3, 10012
1, 38465, Pitch_bend_c, 3, 9492
1, 38470, Pitch_bend_c, 3, 8192
1, 38480, Pitch_bend_c, 3, 9037
1, 38483, Pitch_bend_c, 3, 10207
1, 38487, Pitch_bend_c, 3, 10337
1, 38490, Pitch_bend_c, 3, 9362
1, 38492, Pitch_bend_c, 7, 11702
1, 38493, Pitch_bend_c, 3, 8192
1, 38496, Note_on_c, 9, 42, 110
1, 38496, Note_on_c, 9, 38, 115
1, 38496, Note_on_c, 9, 36, 90
1, 38496, Note_on_c, 1, 37, 127
1, 38496, Note_on_c, 5, 61, 100
1, 38496, Note_on_c, 4, 49, 100
1, 38496, Note_on_c, 8, 49, 121
1, 38497, Note_off_c, 9, 36, 64
1, 38497, Note_off_c, 9, 38, 64
1, 38497, Note_off_c, 9, 42, 64
1, 38497, Pitch_bend_c, 7, 12157
1, 38506, Pitch_bend_c, 7, 12092
1, 38511, Note_off_c, 8, 49, 64
1, 38511, Note_off_c, 3, 61, 64
1, 38511, Pitch_bend_c, 7, 10857
1, 38516, Pitch_bend_c, 7, 7558
1, 38521, Pitch_bend_c, 7, 8257
1, 38531, Note_off_c, 1, 37, 64
1, 38531, Pitch_bend_c, 7, 9492
1, 38535, Pitch_bend_c, 7, 10207
1, 38536, Note_off_c, 4, 49, 64
1, 38536, Note_off_c, 5, 61, 64
1, 38544, Note_on_c, 9, 42, 50
1, 38545, Note_off_c, 9, 42, 64
1, 38545, Pitch_bend_c, 7, 7810
1, 38550, Pitch_bend_c, 7, 8192
1, 38564, Pitch_bend_c, 7, 9167
1, 38569, Pitch_bend_c, 7, 9492
1, 38574, Pitch_bend_c, 7, 9037
1, 38579, Pitch_bend_c, 7, 8387
1, 38584, Pitch_bend_c, 7, 8192
1, 38589, Pitch_bend_c, 7, 8387
1, 38592, Note_on_c, 9, 42, 110
1, 38593, Note_off_c, 9, 42, 64
1, 38594, Pitch_bend_c, 7, 11117
1, 38603, Pitch_bend_c, 7, 10467
1, 38608, Pitch_bend_c, 7, 9167
1, 38613, Pitch_bend_c, 7, 8192
1, 38639, Note_off_c, 7, 56, 64
1, 38640, Note_on_c, 9, 42, 50
1, 38640, Note_on_c, 9, 36, 90
1, 38640, Note_on_c, 7, 58, 110
1, 38641, Note_off_c, 9, 36, 64
1, 38641, Note_off_c, 9, 42, 64
1, 38681, Pitch_bend_c, 7, 8907
1, 38685, Pitch_bend_c, 7, 11182
1, 38687, Note_off_c, 7, 58, 64
1, 38688, Note_on_c, 9, 42, 110
1, 38688, Note_on_c, 9, 38, 115
1, 38688, Note_on_c, 7, 63, 110
1, 38689, Note_off_c, 9, 38, 64
1, 38689, Note_off_c, 9, 42, 64
1, 38689, Note_on_c, 9, 39, 127
1, 38690, Note_off_c, 9, 39, 64
1, 38690, Pitch_bend_c, 7, 11312
1, 38695, Note_on_c, 10, 39, 127
1, 38695, Pitch_bend_c, 7, 9167
1, 38696, Note_off_c, 10, 39, 64
1, 38700, Pitch_bend_c, 7, 8192
1, 38715, Pitch_bend_c, 7, 8647
1, 38719, Pitch_bend_c, 7, 9362
1, 38721, Control_c, 4, 10, 40
1, 38724, Pitch_bend_c, 7, 8517
1, 38729, Pitch_bend_c, 7, 8192
1, 38736, Note_on_c, 9, 42, 50
1, 38737, Note_off_c, 9, 42, 64
1, 38739, Pitch_bend_c, 7, 8257
1, 38744, Pitch_bend_c, 7, 11442
1, 38748, Pitch_bend_c, 7, 11312
1, 38753, Pitch_bend_c, 7, 10012
1, 38758, Pitch_bend_c, 7, 8192
1, 38773, Pitch_bend_c, 7, 11182
1, 38777, Pitch_bend_c, 7, 11702
1, 38780, Note_off_c, 0, 56, 64
1, 38780, Note_off_c, 0, 61, 64
1, 38780, Note_off_c, 0, 65, 64
1, 38784, Note_on_c, 9, 42, 110
1, 38784, Note_on_c, 9, 36, 90
1, 38784, Note_on_c, 0, 63, 74
1, 38784, Note_on_c, 0, 66, 77
1, 38784, Note_on_c, 0, 58, 71
1, 38785, Note_off_c, 9, 36, 64
1, 38785, Note_off_c, 9, 42, 64
1, 38786, Pitch_bend_c, 7, 11182
1, 38792, Pitch_bend_c, 7, 9362
1, 38797, Pitch_bend_c, 7, 8907
1, 38801, Pitch_bend_c, 7, 10467
1, 38806, Pitch_bend_c, 7, 11572
1, 38811, Pitch_bend_c, 7, 11702
1, 38816, Pitch_bend_c, 7, 11442
1, 38821, Pitch_bend_c, 7, 8777
1, 38826, Pitch_bend_c, 7, 9037
1, 38830, Pitch_bend_c, 7, 10467
1, 38832, Note_on_c, 9, 42, 50
1, 38832, Note_on_c, 1, 39, 127
1, 38832, Note_on_c, 5, 63, 98
1, 38832, Note_on_c, 4, 58, 102
1, 38832, Note_on_c, 4, 51, 101
1, 38832, Note_on_c, 8, 51, 115
1, 38833, Note_off_c, 9, 42, 64
1, 38835, Pitch_bend_c, 7, 11702
1, 38845, Pitch_bend_c, 7, 11572
1, 38847, Note_off_c, 8, 51, 64
1, 38850, Pitch_bend_c, 7, 8777
1, 38855, Pitch_bend_c, 7, 8517
1, 38859, Pitch_bend_c, 7, 11182
1, 38864, Pitch_bend_c, 7, 12937
1, 38867, Note_off_c, 1, 39, 64
1, 38869, Pitch_bend_c, 7, 13132
1, 38872, Note_off_c, 5, 63, 64
1, 38872, Note_off_c, 4, 58, 64
1, 38872, Note_off_c, 4, 51, 64
1, 38874, Pitch_bend_c, 7, 11442
1, 38879, Pitch_bend_c, 6, 8192
1, 38879, Pitch_bend_c, 7, 8192
1, 38880, Note_off_c, 7, 63, 64
1, 38880, Note_on_c, 9, 42, 110
1, 38880, Note_on_c, 9, 38, 115
1, 38880, Note_on_c, 1, 39, 127
1, 38880, Note_on_c, 5, 63, 86
1, 38880, Note_on_c, 4, 51, 98
1, 38880, Note_on_c, 4, 58, 101
1, 38880, Note_on_c, 8, 51, 115
1, 38881, Note_off_c, 9, 38, 64
1, 38881, Note_off_c, 9, 42, 64
1, 38881, Note_on_c, 6, 77, 127
1, 38889, Note_off_c, 6, 77, 64
1, 38895, Note_off_c, 8, 51, 64
1, 38908, Note_on_c, 6, 75, 127
1, 38911, Note_off_c, 6, 75, 64
1, 38920, Note_off_c, 5, 63, 64
1, 38920, Note_off_c, 1, 39, 64
1, 38920, Note_off_c, 4, 51, 64
1, 38920, Note_off_c, 4, 58, 64
1, 38920, Control_c, 6, 99, 1
1, 38921, Control_c, 6, 98, 99
1, 38922, Control_c, 6, 6, 66
1, 38925, Note_on_c, 6, 73, 99
1, 38928, Note_on_c, 9, 42, 50
1, 38929, Note_off_c, 9, 42, 64
1, 38940, Note_off_c, 6, 73, 64
1, 38940, Note_on_c, 6, 77, 115
1, 38943, Pitch_bend_c, 3, 8192
1, 38945, Note_on_c, 3, 77, 62
1, 38953, Note_off_c, 3, 77, 64
1, 38960, Note_off_c, 6, 77, 64
1, 38960, Note_on_c, 6, 78, 127
1, 38972, Note_on_c, 3, 75, 62
1, 38975, Note_off_c, 3, 75, 64
1, 38976, Note_off_c, 6, 78, 64
1, 38976, Note_on_c, 9, 42, 110
1, 38976, Note_on_c, 9, 36, 90
1, 38976, Note_on_c, 1, 39, 127
1, 38976, Note_on_c, 5, 63, 98
1, 38976, Note_on_c, 4, 58, 101
1, 38976, Note_on_c, 4, 51, 101
1, 38976, Note_on_c, 8, 51, 119
1, 38976, Note_on_c, 6, 77, 115
1, 38977, Note_off_c, 9, 36, 64
1, 38977, Note_off_c, 9, 42, 64
1, 38984, Control_c, 3, 99, 1
1, 38985, Control_c, 3, 98, 99
1, 38986, Control_c, 3, 6, 66
1, 38989, Note_on_c, 3, 73, 34
1, 38991, Note_off_c, 8, 51, 64
1, 38995, Note_off_c, 6, 77, 64
1, 38995, Note_on_c, 6, 75, 110
1, 39004, Note_off_c, 3, 73, 64
1, 39004, Note_on_c, 3, 77, 50
1, 39014, Note_off_c, 6, 75, 64
1, 39014, Note_on_c, 6, 73, 105
1, 39016, Note_off_c, 5, 63, 64
1, 39016, Note_off_c, 4, 58, 64
1, 39016, Note_off_c, 4, 51, 64
1, 39018, Note_off_c, 1, 39, 64
1, 39024, Note_off_c, 3, 77, 64
1, 39024, Note_on_c, 3, 78, 62
1, 39024, Note_on_c, 9, 42, 50
1, 39025, Note_off_c, 9, 42, 64
1, 39033, Note_off_c, 6, 73, 64
1, 39033, Note_on_c, 6, 77, 105
1, 39040, Note_off_c, 3, 78, 64
1, 39040, Note_on_c, 3, 77, 50
1, 39052, Note_off_c, 6, 77, 64
1, 39052, Note_on_c, 6, 78, 127
1, 39059, Note_off_c, 3, 77, 64
1, 39059, Note_on_c, 3, 75, 45
1, 39071, Note_on_c, 6, 77, 115
1, 39072, Note_off_c, 6, 78, 64
1, 39072, Note_on_c, 9, 42, 110
1, 39072, Note_on_c, 9, 38, 115
1, 39073, Note_off_c, 9, 38, 64
1, 39073, Note_off_c, 9, 42, 64
1, 39073, Note_on_c, 9, 39, 127
1, 39074, Note_off_c, 9, 39, 64
1, 39078, Note_off_c, 3, 75, 64
1, 39078, Note_on_c, 3, 73, 40
1, 39079, Note_on_c, 10, 39, 127
1, 39080, Note_off_c, 10, 39, 64
1, 39090, Note_off_c, 6, 77, 64
1, 39090, Note_on_c, 6, 75, 110
1, 39097, Note_off_c, 3, 73, 64
1, 39097, Note_on_c, 3, 77, 40
1, 39109, Note_on_c, 6, 73, 105
1, 39110, Note_off_c, 6, 75, 64
1, 39116, Note_off_c, 3, 77, 64
1, 39116, Note_on_c, 3, 78, 62
1, 39120, Note_on_c, 9, 42, 50
1, 39120, Note_on_c, 1, 37, 127
1, 39120, Note_on_c, 5, 61, 92
1, 39120, Note_on_c, 4, 56, 102
1, 39120, Note_on_c, 4, 49, 101
1, 39120, Note_on_c, 8, 49, 121
1, 39121, Note_off_c, 9, 42, 64
1, 39128, Note_on_c, 6, 77, 99
1, 39129, Note_off_c, 6, 73, 64
1, 39135, Note_off_c, 8, 49, 64
1, 39135, Note_on_c, 3, 77, 50
1, 39136, Note_off_c, 3, 78, 64
1, 39147, Note_off_c, 6, 77, 64
1, 39147, Note_on_c, 6, 78, 127
1, 39154, Note_off_c, 3, 77, 64
1, 39154, Note_on_c, 3, 75, 45
1, 39155, Note_off_c, 1, 37, 64
1, 39157, Note_off_c, 6, 78, 64
1, 39157, Note_on_c, 6, 77, 110
1, 39160, Note_off_c, 5, 61, 64
1, 39160, Note_off_c, 4, 49, 64
1, 39160, Note_off_c, 4, 56, 64
1, 39164, Note_off_c, 0, 58, 64
1, 39164, Note_off_c, 0, 66, 64
1, 39164, Note_off_c, 0, 63, 64
1, 39168, Note_off_c, 6, 77, 64
1, 39168, Note_on_c, 9, 42, 110
1, 39168, Note_on_c, 9, 36, 90
1, 39168, Note_on_c, 1, 37, 127
1, 39168, Note_on_c, 0, 65, 74
1, 39168, Note_on_c, 0, 61, 75
1, 39168, Note_on_c, 0, 56, 77
1, 39168, Note_on_c, 5, 61, 84
1, 39168, Note_on_c, 4, 49, 97
1, 39168, Note_on_c, 4, 56, 99
1, 39168, Note_on_c, 8, 49, 111
1, 39168, Note_on_c, 6, 75, 105
1, 39169, Note_off_c, 9, 36, 64
1, 39169, Note_off_c, 9, 42, 64
1, 39173, Note_on_c, 3, 73, 40
1, 39174, Note_off_c, 3, 75, 64
1, 39183, Note_off_c, 8, 49, 64
1, 39184, Note_off_c, 6, 75, 64
1, 39184, Note_on_c, 6, 73, 90
1, 39192, Note_on_c, 3, 77, 34
1, 39193, Note_off_c, 3, 73, 64
1, 39200, Note_off_c, 6, 73, 64
1, 39200, Note_on_c, 6, 72, 99
1, 39208, Note_off_c, 5, 61, 64
1, 39208, Note_off_c, 1, 37, 64
1, 39208, Note_off_c, 4, 49, 64
1, 39208, Note_off_c, 4, 56, 64
1, 39211, Note_off_c, 3, 77, 64
1, 39211, Note_on_c, 3, 78, 62
1, 39216, Note_off_c, 6, 72, 64
1, 39216, Note_on_c, 9, 42, 50
1, 39216, Note_on_c, 6, 73, 99
1, 39217, Note_off_c, 9, 42, 64
1, 39221, Note_off_c, 3, 78, 64
1, 39221, Note_on_c, 3, 77, 45
1, 39232, Note_off_c, 6, 73, 64
1, 39232, Note_off_c, 3, 77, 64
1, 39232, Note_on_c, 3, 75, 40
1, 39232, Note_on_c, 6, 72, 99
1, 39248, Note_off_c, 6, 72, 64
1, 39248, Note_off_c, 3, 75, 64
1, 39248, Note_on_c, 3, 73, 25
1, 39248, Note_on_c, 6, 70, 110
1, 39264, Note_off_c, 6, 70, 64
1, 39264, Note_off_c, 3, 73, 64
1, 39264, Note_on_c, 3, 72, 34
1, 39264, Note_on_c, 9, 42, 110
1, 39264, Note_on_c, 9, 38, 115
1, 39264, Note_on_c, 9, 36, 90
1, 39264, Note_on_c, 1, 37, 127
1, 39264, Note_on_c, 5, 61, 98
1, 39264, Note_on_c, 4, 56, 100
1, 39264, Note_on_c, 4, 49, 99
1, 39264, Note_on_c, 8, 49, 119
1, 39264, Note_on_c, 6, 68, 105
1, 39265, Note_off_c, 9, 36, 64
1, 39265, Note_off_c, 9, 38, 64
1, 39265, Note_off_c, 9, 42, 64
1, 39279, Note_off_c, 8, 49, 64
1, 39280, Note_off_c, 3, 72, 64
1, 39280, Note_on_c, 3, 73, 34
1, 39280, Note_on_c, 6, 72, 99
1, 39281, Note_off_c, 6, 68, 64
1, 39296, Note_off_c, 3, 73, 64
1, 39296, Note_on_c, 3, 72, 34
1, 39296, Note_on_c, 6, 73, 127
1, 39297, Note_off_c, 6, 72, 64
1, 39304, Note_off_c, 5, 61, 64
1, 39304, Note_off_c, 4, 56, 64
1, 39304, Note_off_c, 4, 49, 64
1, 39306, Note_off_c, 1, 37, 64
1, 39312, Note_off_c, 6, 73, 64
1, 39312, Note_off_c, 3, 72, 64
1, 39312, Note_on_c, 3, 70, 45
1, 39312, Note_on_c, 9, 42, 50
1, 39312, Note_on_c, 6, 72, 127
1, 39313, Note_off_c, 9, 42, 64
1, 39328, Note_off_c, 6, 72, 64
1, 39328, Note_off_c, 3, 70, 64
1, 39328, Note_on_c, 3, 68, 40
1, 39328, Note_on_c, 6, 70, 80
1, 39344, Note_off_c, 6, 70, 64
1, 39344, Note_on_c, 3, 72, 34
1, 39344, Note_on_c, 6, 68, 127
1, 39345, Note_off_c, 3, 68, 64
1, 39359, Control_c, 6, 6, 62
1, 39360, Note_off_c, 6, 68, 64
1, 39360, Note_on_c, 3, 73, 62
1, 39360, Note_on_c, 9, 42, 110
1, 39360, Note_on_c, 6, 70, 127
1, 39361, Note_off_c, 9, 42, 64
1, 39361, Note_off_c, 3, 72, 64
1, 39376, Note_off_c, 3, 73, 64
1, 39376, Note_on_c, 3, 72, 62
1, 39392, Note_off_c, 3, 72, 64
1, 39392, Note_on_c, 3, 70, 15
1, 39392, Pitch_bend_c, 6, 8257
1, 39394, Pitch_bend_c, 6, 8387
1, 39396, Pitch_bend_c, 6, 8517
1, 39398, Pitch_bend_c, 6, 8647
1, 39400, Pitch_bend_c, 6, 9037
1, 39402, Pitch_bend_c, 6, 9232
1, 39404, Pitch_bend_c, 6, 9362
1, 39406, Pitch_bend_c, 6, 9752
1, 39408, Note_off_c, 3, 70, 64
1, 39408, Note_on_c, 3, 68, 62
1, 39408, Note_on_c, 9, 42, 50
1, 39408, Note_on_c, 9, 36, 90
1, 39408, Pitch_bend_c, 6, 10012
1, 39409, Note_off_c, 9, 36, 64
1, 39409, Note_off_c, 9, 42, 64
1, 39411, Pitch_bend_c, 6, 10597
1, 39413, Pitch_bend_c, 6, 10857
1, 39415, Pitch_bend_c, 6, 10944
1, 39419, Pitch_bend_c, 6, 10944
1, 39421, Pitch_bend_c, 6, 10944
1, 39423, Control_c, 3, 6, 62
1, 39424, Note_off_c, 3, 68, 64
1, 39424, Note_on_c, 3, 70, 62
1, 39427, Pitch_bend_c, 6, 10880
1, 39429, Pitch_bend_c, 6, 10880
1, 39432, Pitch_bend_c, 6, 10727
1, 39434, Pitch_bend_c, 6, 10467
1, 39436, Pitch_bend_c, 6, 10207
1, 39438, Pitch_bend_c, 6, 10012
1, 39440, Pitch_bend_c, 6, 9882
1, 39442, Pitch_bend_c, 6, 9622
1, 39444, Pitch_bend_c, 6, 9232
1, 39446, Pitch_bend_c, 6, 8777
1, 39448, Pitch_bend_c, 6, 8192
1, 39455, Note_off_c, 6, 70, 64
1, 39456, Pitch_bend_c, 3, 8257
1, 39456, Note_on_c, 9, 42, 110
1, 39456, Note_on_c, 9, 38, 115
1, 39456, Note_on_c, 6, 70, 127
1, 39457, Note_off_c, 9, 38, 64
1, 39457, Note_off_c, 9, 42, 64
1, 39457, Note_on_c, 9, 39, 127
1, 39458, Note_off_c, 9, 39, 64
1, 39458, Pitch_bend_c, 3, 8387
1, 39460, Pitch_bend_c, 3, 8517
1, 39462, Pitch_bend_c, 3, 8647
1, 39463, Note_on_c, 10, 39, 127
1, 39463, Pitch_bend_c, 6, 8257
1, 39464, Note_off_c, 10, 39, 64
1, 39464, Pitch_bend_c, 3, 9037
1, 39465, Pitch_bend_c, 6, 9232
1, 39466, Pitch_bend_c, 3, 9232
1, 39467, Pitch_bend_c, 6, 9882
1, 39468, Pitch_bend_c, 3, 9362
1, 39469, Pitch_bend_c, 6, 10207
1, 39470, Pitch_bend_c, 3, 9752
1, 39471, Pitch_bend_c, 6, 10467
1, 39472, Pitch_bend_c, 3, 10012
1, 39473, Pitch_bend_c, 6, 10727
1, 39475, Pitch_bend_c, 3, 10597
1, 39475, Pitch_bend_c, 6, 10857
1, 39477, Pitch_bend_c, 3, 10857
1, 39477, Pitch_bend_c, 6, 10467
1, 39479, Pitch_bend_c, 3, 10944
1, 39480, Pitch_bend_c, 6, 9492
1, 39482, Pitch_bend_c, 6, 8387
1, 39483, Pitch_bend_c, 3, 10944
1, 39484, Pitch_bend_c, 6, 8192
1, 39485, Pitch_bend_c, 3, 10944
1, 39491, Pitch_bend_c, 3, 10880
1, 39492, Pitch_bend_c, 6, 8257
1, 39493, Pitch_bend_c, 3, 10880
1, 39494, Pitch_bend_c, 6, 8907
1, 39496, Pitch_bend_c, 3, 10727
1, 39496, Pitch_bend_c, 6, 9752
1, 39498, Pitch_bend_c, 3, 10467
1, 39498, Pitch_bend_c, 6, 10467
1, 39500, Pitch_bend_c, 3, 10207
1, 39502, Pitch_bend_c, 3, 10012
1, 39503, Pitch_bend_c, 6, 10142
1, 39504, Pitch_bend_c, 3, 9882
1, 39504, Note_on_c, 9, 42, 50
1, 39505, Note_off_c, 9, 42, 64
1, 39505, Pitch_bend_c, 6, 8647
1, 39506, Pitch_bend_c, 3, 9622
1, 39507, Pitch_bend_c, 6, 8192
1, 39508, Pitch_bend_c, 3, 9232
1, 39510, Pitch_bend_c, 3, 8777
1, 39512, Pitch_bend_c, 3, 8192
1, 39519, Note_off_c, 3, 70, 64
1, 39520, Note_on_c, 3, 70, 62
1, 39521, Pitch_bend_c, 6, 8257
1, 39523, Pitch_bend_c, 6, 8387
1, 39526, Pitch_bend_c, 6, 8647
1, 39527, Pitch_bend_c, 3, 8257
1, 39528, Pitch_bend_c, 6, 9037
1, 39529, Pitch_bend_c, 3, 9232
1, 39530, Pitch_bend_c, 6, 9622
1, 39531, Pitch_bend_c, 3, 9882
1, 39532, Pitch_bend_c, 6, 10012
1, 39533, Pitch_bend_c, 3, 10207
1, 39534, Pitch_bend_c, 6, 10337
1, 39535, Pitch_bend_c, 3, 10467
1, 39536, Note_off_c, 6, 70, 64
1, 39536, Pitch_bend_c, 6, 10597
1, 39537, Pitch_bend_c, 3, 10727
1, 39538, Pitch_bend_c, 6, 10987
1, 39539, Pitch_bend_c, 3, 10857
1, 39540, Pitch_bend_c, 6, 11182
1, 39541, Pitch_bend_c, 3, 10467
1, 39542, Pitch_bend_c, 6, 12092
1, 39544, Pitch_bend_c, 3, 9492
1, 39544, Pitch_bend_c, 6, 12417
1, 39546, Pitch_bend_c, 3, 8387
1, 39546, Pitch_bend_c, 6, 12937
1, 39548, Note_off_c, 0, 65, 64
1, 39548, Note_off_c, 0, 56, 64
1, 39548, Note_off_c, 0, 61, 64
1, 39548, Pitch_bend_c, 3, 8192
1, 39549, Pitch_bend_c, 6, 13652
1, 39551, Pitch_bend_c, 6, 14627
1, 39552, Note_on_c, 9, 42, 110
1, 39552, Note_on_c, 9, 36, 90
1, 39552, Note_on_c, 0, 54, 76
1, 39552, Note_on_c, 0, 63, 76
1, 39552, Note_on_c, 0, 59, 78
1, 39553, Note_off_c, 9, 36, 64
1, 39553, Note_off_c, 9, 42, 64
1, 39556, Pitch_bend_c, 3, 8257
1, 39556, Pitch_bend_c, 6, 16383
1, 39558, Pitch_bend_c, 3, 8907
1, 39560, Pitch_bend_c, 3, 9752
1, 39562, Pitch_bend_c, 3, 10467
1, 39567, Pitch_bend_c, 3, 10142
1, 39569, Pitch_bend_c, 3, 8647
1, 39571, Pitch_bend_c, 3, 8192
1, 39585, Pitch_bend_c, 3, 8257
1, 39587, Pitch_bend_c, 3, 8387
1, 39590, Pitch_bend_c, 3, 8647
1, 39592, Pitch_bend_c, 3, 9037
1, 39594, Pitch_bend_c, 3, 9622
1, 39596, Pitch_bend_c, 3, 10012
1, 39598, Pitch_bend_c, 3, 10337
1, 39600, Note_off_c, 3, 70, 64
1, 39600, Pitch_bend_c, 3, 10597
1, 39600, Note_on_c, 9, 42, 50
1, 39600, Note_on_c, 1, 35, 127
1, 39600, Note_on_c, 5, 59, 87
1, 39600, Note_on_c, 4, 54, 105
1, 39600, Note_on_c, 4, 47, 96
1, 39600, Note_on_c, 8, 47, 105
1, 39601, Note_off_c, 9, 42, 64
1, 39602, Pitch_bend_c, 3, 10987
1, 39604, Pitch_bend_c, 3, 11182
1, 39606, Pitch_bend_c, 3, 12092
1, 39608, Pitch_bend_c, 3, 12417
1, 39610, Pitch_bend_c, 3, 12937
1, 39613, Pitch_bend_c, 3, 13652
1, 39615, Note_off_c, 8, 47, 64
1, 39615, Pitch_bend_c, 3, 14627
1, 39620, Pitch_bend_c, 3, 16383
1, 39625, Pitch_bend_c, 6, 8192
1, 39625, Control_c, 6, 6, 66
1, 39626, Note_on_c, 6, 70, 127
1, 39631, Note_off_c, 6, 70, 64
1, 39635, Note_off_c, 1, 35, 64
1, 39640, Note_off_c, 5, 59, 64
1, 39640, Note_off_c, 4, 54, 64
1, 39640, Note_off_c, 4, 47, 64
1, 39648, Note_on_c, 9, 42, 110
1, 39648, Note_on_c, 9, 38, 115
1, 39648, Note_on_c, 1, 35, 127
1, 39648, Note_on_c, 5, 59, 85
1, 39648, Note_on_c, 4, 47, 92
1, 39648, Note_on_c, 4, 54, 99
1, 39648, Note_on_c, 8, 47, 103
1, 39649, Note_off_c, 9, 38, 64
1, 39649, Note_off_c, 9, 42, 64
1, 39663, Note_off_c, 8, 47, 64
1, 39663, Note_on_c, 6, 70, 127
1, 39678, Note_off_c, 6, 70, 64
1, 39679, Note_on_c, 6, 73, 127
1, 39683, Note_off_c, 1, 35, 64
1, 39688, Note_off_c, 5, 59, 64
1, 39688, Note_off_c, 4, 47, 64
1, 39688, Note_off_c, 4, 54, 64
1, 39689, Pitch_bend_c, 3, 8192
1, 39689, Control_c, 3, 6, 66
1, 39690, Note_on_c, 3, 70, 62
1, 39694, Note_off_c, 6, 73, 64
1, 39695, Note_off_c, 3, 70, 64
1, 39695, Note_on_c, 6, 77, 127
1, 39696, Note_on_c, 9, 42, 50
1, 39697, Note_off_c, 9, 42, 64
1, 39712, Note_off_c, 6, 77, 64
1, 39713, Note_on_c, 6, 75, 127
1, 39727, Note_off_c, 6, 75, 64
1, 39727, Note_on_c, 3, 70, 62
1, 39727, Note_on_c, 6, 82, 127
1, 39742, Note_off_c, 3, 70, 64
1, 39743, Note_off_c, 6, 82, 64
1, 39743, Note_on_c, 3, 73, 62
1, 39743, Note_on_c, 6, 78, 90
1, 39744, Note_on_c, 9, 42, 110
1, 39744, Note_on_c, 9, 36, 90
1, 39744, Note_on_c, 1, 35, 127
1, 39744, Note_on_c, 5, 59, 90
1, 39744, Note_on_c, 4, 54, 104
1, 39744, Note_on_c, 4, 47, 99
1, 39744, Note_on_c, 8, 47, 119
1, 39745, Note_off_c, 9, 36, 64
1, 39745, Note_off_c, 9, 42, 64
1, 39758, Note_off_c, 3, 73, 64
1, 39759, Note_off_c, 8, 47, 64
1, 39759, Note_off_c, 6, 78, 64
1, 39759, Note_on_c, 3, 77, 62
1, 39759, Note_on_c, 6, 75, 99
1, 39775, Note_off_c, 6, 75, 64
1, 39775, Note_on_c, 6, 77, 90
1, 39776, Note_off_c, 3, 77, 64
1, 39777, Note_on_c, 3, 75, 62
1, 39779, Note_off_c, 1, 35, 64
1, 39784, Note_off_c, 4, 54, 64
1, 39784, Note_off_c, 4, 47, 64
1, 39784, Note_off_c, 5, 59, 64
1, 39791, Note_off_c, 6, 77, 64
1, 39791, Note_off_c, 3, 75, 64
1, 39791, Note_on_c, 3, 82, 62
1, 39791, Note_on_c, 6, 75, 99
1, 39792, Note_on_c, 9, 42, 50
1, 39793, Note_off_c, 9, 42, 64
1, 39807, Note_off_c, 3, 82, 64
1, 39807, Note_on_c, 3, 78, 25
1, 39809, Note_off_c, 6, 75, 64
1, 39809, Note_on_c, 6, 77, 99
1, 39823, Note_off_c, 3, 78, 64
1, 39823, Note_on_c, 3, 75, 34
1, 39824, Note_off_c, 6, 77, 64
1, 39824, Note_on_c, 6, 73, 127
1, 39837, Note_off_c, 6, 73, 64
1, 39837, Note_on_c, 6, 70, 99
1, 39839, Note_off_c, 3, 75, 64
1, 39839, Note_on_c, 3, 77, 25
1, 39840, Note_on_c, 9, 42, 110
1, 39840, Note_on_c, 9, 38, 115
1, 39841, Note_off_c, 9, 38, 64
1, 39841, Note_off_c, 9, 42, 64
1, 39841, Note_on_c, 9, 39, 127
1, 39842, Note_off_c, 9, 39, 64
1, 39847, Note_on_c, 10, 39, 127
1, 39848, Note_off_c, 10, 39, 64
1, 39855, Note_off_c, 6, 70, 64
1, 39855, Note_off_c, 3, 77, 64
1, 39855, Note_on_c, 3, 75, 34
1, 39855, Note_on_c, 6, 73, 99
1, 39871, Note_off_c, 6, 73, 64
1, 39871, Note_on_c, 6, 75, 110
1, 39873, Note_off_c, 3, 75, 64
1, 39873, Note_on_c, 3, 77, 34
1, 39888, Note_off_c, 3, 77, 64
1, 39888, Note_on_c, 3, 73, 62
1, 39888, Note_on_c, 9, 42, 50
1, 39888, Note_on_c, 1, 37, 127
1, 39888, Note_on_c, 5, 61, 100
1, 39888, Note_on_c, 4, 49, 102
1, 39888, Note_on_c, 4, 56, 105
1, 39888, Note_on_c, 8, 49, 113
1, 39889, Note_off_c, 9, 42, 64
1, 39901, Note_off_c, 3, 73, 64
1, 39901, Note_on_c, 3, 70, 34
1, 39903, Note_off_c, 8, 49, 64
1, 39903, Note_off_c, 6, 75, 64
1, 39903, Note_on_c, 6, 77, 127
1, 39919, Note_off_c, 3, 70, 64
1, 39919, Note_on_c, 3, 73, 34
1, 39923, Note_off_c, 6, 77, 64
1, 39923, Note_off_c, 1, 37, 64
1, 39923, Note_on_c, 6, 73, 110
1, 39928, Note_off_c, 5, 61, 64
1, 39928, Note_off_c, 4, 56, 64
1, 39928, Note_off_c, 4, 49, 64
1, 39932, Note_off_c, 0, 54, 64
1, 39932, Note_off_c, 0, 59, 64
1, 39932, Note_off_c, 0, 63, 64
1, 39935, Note_off_c, 3, 73, 64
1, 39935, Note_on_c, 3, 75, 45
1, 39936, Note_on_c, 9, 42, 110
1, 39936, Note_on_c, 9, 36, 90
1, 39936, Note_on_c, 1, 37, 127
1, 39936, Note_on_c, 0, 61, 80
1, 39936, Note_on_c, 0, 56, 79
1, 39936, Note_on_c, 0, 65, 73
1, 39936, Note_on_c, 5, 61, 86
1, 39936, Note_on_c, 4, 49, 100
1, 39936, Note_on_c, 4, 56, 101
1, 39936, Note_on_c, 8, 49, 113
1, 39937, Note_off_c, 9, 36, 64
1, 39937, Note_off_c, 9, 42, 64
1, 39939, Note_off_c, 6, 73, 64
1, 39939, Note_on_c, 6, 70, 99
1, 39951, Note_off_c, 8, 49, 64
1, 39955, Note_off_c, 6, 70, 64
1, 39955, Note_on_c, 6, 73, 127
1, 39967, Note_off_c, 3, 75, 64
1, 39967, Note_on_c, 3, 77, 62
1, 39971, Note_off_c, 6, 73, 64
1, 39971, Note_on_c, 6, 75, 127
1, 39976, Note_off_c, 1, 37, 64
1, 39976, Note_off_c, 5, 61, 64
1, 39976, Note_off_c, 4, 56, 64
1, 39976, Note_off_c, 4, 49, 64
1, 39984, Note_on_c, 9, 42, 50
1, 39985, Note_off_c, 9, 42, 64
1, 39987, Note_off_c, 6, 75, 64
1, 39987, Note_off_c, 3, 77, 64
1, 39987, Note_on_c, 3, 73, 45
1, 39987, Note_on_c, 6, 77, 127
1, 40003, Note_off_c, 6, 77, 64
1, 40003, Note_off_c, 3, 73, 64
1, 40003, Note_on_c, 3, 70, 34
1, 40003, Note_on_c, 6, 73, 127
1, 40019, Note_off_c, 6, 73, 64
1, 40019, Note_off_c, 3, 70, 64
1, 40019, Note_on_c, 3, 73, 62
1, 40019, Note_on_c, 6, 70, 127
1, 40032, Note_on_c, 9, 42, 110
1, 40032, Note_on_c, 9, 38, 115
1, 40032, Note_on_c, 9, 36, 90
1, 40032, Note_on_c, 1, 37, 127
1, 40032, Note_on_c, 5, 61, 103
1, 40032, Note_on_c, 4, 56, 105
1, 40032, Note_on_c, 4, 49, 105
1, 40032, Note_on_c, 8, 49, 121
1, 40033, Note_off_c, 9, 36, 64
1, 40033, Note_off_c, 9, 38, 64
1, 40033, Note_off_c, 9, 42, 64
1, 40035, Note_off_c, 6, 70, 64
1, 40035, Note_off_c, 3, 73, 64
1, 40035, Note_on_c, 3, 75, 62
1, 40035, Note_on_c, 6, 75, 127
1, 40047, Note_off_c, 8, 49, 64
1, 40051, Note_off_c, 3, 75, 64
1, 40051, Note_on_c, 3, 77, 62
1, 40061, Note_off_c, 6, 75, 64
1, 40061, Note_on_c, 6, 70, 127
1, 40067, Note_off_c, 1, 37, 64
1, 40067, Note_off_c, 3, 77, 64
1, 40067, Note_on_c, 3, 73, 62
1, 40072, Note_off_c, 4, 49, 64
1, 40072, Note_off_c, 4, 56, 64
1, 40072, Note_off_c, 5, 61, 64
1, 40078, Control_c, 6, 6, 63
1, 40079, Note_off_c, 6, 70, 64
1, 40080, Note_on_c, 9, 42, 50
1, 40080, Note_on_c, 6, 68, 127
1, 40081, Note_off_c, 9, 42, 64
1, 40083, Note_off_c, 3, 73, 64
1, 40083, Note_on_c, 3, 70, 62
1, 40092, Pitch_bend_c, 6, 8257
1, 40094, Pitch_bend_c, 6, 8907
1, 40097, Pitch_bend_c, 6, 9362
1, 40099, Note_off_c, 3, 70, 64
1, 40099, Note_on_c, 3, 75, 62
1, 40100, Pitch_bend_c, 6, 9752
1, 40103, Pitch_bend_c, 6, 10597
1, 40105, Pitch_bend_c, 6, 10987
1, 40108, Pitch_bend_c, 6, 11117
1, 40110, Pitch_bend_c, 6, 10207
1, 40113, Pitch_bend_c, 6, 8647
1, 40115, Pitch_bend_c, 6, 8257
1, 40120, Pitch_bend_c, 6, 9622
1, 40122, Pitch_bend_c, 6, 10987
1, 40125, Note_off_c, 3, 75, 64
1, 40125, Note_on_c, 3, 70, 62
1, 40125, Pitch_bend_c, 6, 11117
1, 40127, Pitch_bend_c, 6, 10207
1, 40128, Note_on_c, 9, 42, 110
1, 40129, Note_off_c, 9, 42, 64
1, 40129, Pitch_bend_c, 6, 7684
1, 40132, Pitch_bend_c, 6, 8192
1, 40142, Control_c, 3, 6, 63
1, 40143, Note_off_c, 3, 70, 64
1, 40144, Note_on_c, 3, 68, 62
1, 40152, Note_off_c, 6, 68, 64
1, 40153, Note_on_c, 6, 66, 127
1, 40156, Pitch_bend_c, 3, 8257
1, 40158, Pitch_bend_c, 3, 8907
1, 40161, Pitch_bend_c, 3, 9362
1, 40164, Pitch_bend_c, 3, 9752
1, 40167, Pitch_bend_c, 3, 10597
1, 40169, Pitch_bend_c, 3, 10987
1, 40172, Pitch_bend_c, 3, 11117
1, 40174, Note_off_c, 6, 66, 64
1, 40174, Pitch_bend_c, 3, 10207
1, 40175, Note_on_c, 6, 73, 127
1, 40176, Note_on_c, 9, 42, 50
1, 40176, Note_on_c, 9, 36, 90
1, 40177, Note_off_c, 9, 36, 64
1, 40177, Note_off_c, 9, 42, 64
1, 40177, Pitch_bend_c, 3, 8647
1, 40179, Pitch_bend_c, 3, 8257
1, 40184, Pitch_bend_c, 3, 9622
1, 40186, Pitch_bend_c, 3, 10987
1, 40189, Pitch_bend_c, 3, 11117
1, 40190, Pitch_bend_c, 6, 8257
1, 40191, Pitch_bend_c, 3, 10207
1, 40193, Pitch_bend_c, 3, 7684
1, 40193, Pitch_bend_c, 6, 8517
1, 40196, Pitch_bend_c, 3, 8192
1, 40196, Pitch_bend_c, 6, 9362
1, 40198, Pitch_bend_c, 6, 9882
1, 40201, Pitch_bend_c, 6, 10727
1, 40204, Pitch_bend_c, 6, 11182
1, 40206, Pitch_bend_c, 6, 11442
1, 40209, Pitch_bend_c, 6, 11962
1, 40211, Pitch_bend_c, 6, 12157
1, 40216, Note_off_c, 3, 68, 64
1, 40216, Pitch_bend_c, 6, 12417
1, 40217, Note_on_c, 3, 66, 62
1, 40219, Pitch_bend_c, 6, 12677
1, 40221, Pitch_bend_c, 6, 12807
1, 40224, Note_on_c, 9, 42, 110
1, 40224, Note_on_c, 9, 38, 115
1, 40224, Pitch_bend_c, 6, 13132
1, 40225, Note_off_c, 9, 38, 64
1, 40225, Note_off_c, 9, 42, 64
1, 40225, Note_on_c, 9, 39, 127
1, 40226, Note_off_c, 9, 39, 64
1, 40228, Pitch_bend_c, 6, 13262
1, 40231, Note_on_c, 10, 39, 127
1, 40232, Note_off_c, 10, 39, 64
1, 40235, Pitch_bend_c, 6, 12807
1, 40238, Note_off_c, 3, 66, 64
1, 40239, Note_on_c, 3, 73, 62
1, 40242, Pitch_bend_c, 6, 12417
1, 40245, Pitch_bend_c, 6, 11182
1, 40247, Pitch_bend_c, 6, 10727
1, 40249, Pitch_bend_c, 6, 10337
1, 40251, Pitch_bend_c, 6, 10142
1, 40254, Pitch_bend_c, 3, 8257
1, 40254, Pitch_bend_c, 6, 10012
1, 40256, Pitch_bend_c, 6, 9232
1, 40257, Pitch_bend_c, 3, 8517
1, 40259, Pitch_bend_c, 6, 7810
1, 40260, Pitch_bend_c, 3, 9362
1, 40261, Pitch_bend_c, 6, 8192
1, 40262, Pitch_bend_c, 3, 9882
1, 40265, Pitch_bend_c, 3, 10727
1, 40268, Pitch_bend_c, 3, 11182
1, 40270, Pitch_bend_c, 3, 11442
1, 40271, Note_off_c, 6, 73, 64
1, 40272, Note_on_c, 9, 42, 50
1, 40272, Note_on_c, 6, 70, 127
1, 40273, Note_off_c, 9, 42, 64
1, 40273, Pitch_bend_c, 3, 11962
1, 40275, Pitch_bend_c, 3, 12157
1, 40280, Pitch_bend_c, 3, 12417
1, 40283, Pitch_bend_c, 3, 12677
1, 40285, Pitch_bend_c, 3, 12807
1, 40288, Pitch_bend_c, 3, 13132
1, 40292, Note_off_c, 6, 70, 64
1, 40292, Pitch_bend_c, 3, 13262
1, 40293, Note_on_c, 6, 73, 127
1, 40299, Pitch_bend_c, 3, 12807
1, 40306, Pitch_bend_c, 3, 12417
1, 40309, Pitch_bend_c, 3, 11182
1, 40311, Pitch_bend_c, 3, 10727
1, 40313, Pitch_bend_c, 3, 10337
1, 40315, Pitch_bend_c, 3, 10142
1, 40316, Note_off_c, 0, 65, 64
1, 40316, Note_off_c, 0, 56, 64
1, 40316, Note_off_c, 0, 61, 64
1, 40318, Pitch_bend_c, 3, 10012
1, 40320, Pitch_bend_c, 3, 9232
1, 40320, Note_on_c, 9, 42, 110
1, 40320, Note_on_c, 9, 36, 90
1, 40320, Note_on_c, 0, 63, 78
1, 40320, Note_on_c, 0, 66, 74
1, 40320, Note_on_c, 0, 58, 76
1, 40321, Note_off_c, 9, 36, 64
1, 40321, Note_off_c, 9, 42, 64
1, 40323, Pitch_bend_c, 3, 7810
1, 40325, Pitch_bend_c, 3, 8192
1, 40335, Note_off_c, 3, 73, 64
1, 40336, Note_on_c, 3, 70, 62
1, 40350, Pitch_bend_c, 6, 8777
1, 40352, Pitch_bend_c, 6, 9622
1, 40354, Pitch_bend_c, 6, 10207
1, 40356, Note_off_c, 3, 70, 64
1, 40357, Note_on_c, 3, 73, 62
1, 40357, Pitch_bend_c, 6, 10727
1, 40359, Pitch_bend_c, 6, 10857
1, 40361, Pitch_bend_c, 6, 7810
1, 40363, Pitch_bend_c, 6, 8192
1, 40364, Note_off_c, 6, 73, 64
1, 40365, Note_on_c, 6, 73, 127
1, 40368, Note_on_c, 9, 42, 50
1, 40368, Note_on_c, 1, 39, 127
1, 40368, Note_on_c, 5, 63, 102
1, 40368, Note_on_c, 4, 58, 105
1, 40368, Note_on_c, 4, 51, 103
1, 40368, Note_on_c, 8, 51, 117
1, 40369, Note_off_c, 9, 42, 64
1, 40383, Note_off_c, 8, 51, 64
1, 40383, Note_off_c, 6, 73, 64
1, 40384, Note_on_c, 6, 70, 127
1, 40400, Note_off_c, 6, 70, 64
1, 40401, Note_on_c, 6, 75, 127
1, 40403, Note_off_c, 1, 39, 64
1, 40408, Note_off_c, 5, 63, 64
1, 40408, Note_off_c, 4, 51, 64
1, 40408, Note_off_c, 4, 58, 64
1, 40414, Pitch_bend_c, 3, 8777
1, 40416, Pitch_bend_c, 3, 9622
1, 40416, Note_on_c, 9, 42, 110
1, 40416, Note_on_c, 9, 38, 115
1, 40416, Note_on_c, 1, 39, 127
1, 40416, Note_on_c, 5, 63, 95
1, 40416, Note_on_c, 4, 58, 101
1, 40416, Note_on_c, 4, 51, 101
1, 40416, Note_on_c, 8, 51, 117
1, 40417, Note_off_c, 9, 38, 64
1, 40417, Note_off_c, 9, 42, 64
1, 40418, Note_off_c, 6, 75, 64
1, 40418, Pitch_bend_c, 3, 10207
1, 40419, Note_on_c, 6, 70, 127
1, 40421, Pitch_bend_c, 3, 10727
1, 40423, Pitch_bend_c, 3, 10857
1, 40425, Pitch_bend_c, 3, 7810
1, 40427, Pitch_bend_c, 3, 8192
1, 40428, Note_off_c, 3, 73, 64
1, 40429, Note_on_c, 3, 73, 62
1, 40431, Note_off_c, 8, 51, 64
1, 40433, Note_off_c, 6, 70, 64
1, 40434, Note_on_c, 6, 73, 127
1, 40447, Note_off_c, 3, 73, 64
1, 40448, Note_on_c, 3, 70, 62
1, 40451, Note_off_c, 6, 73, 64
1, 40452, Note_on_c, 6, 68, 127
1, 40456, Note_off_c, 1, 39, 64
1, 40456, Note_off_c, 5, 63, 64
1, 40456, Note_off_c, 4, 51, 64
1, 40456, Note_off_c, 4, 58, 64
1, 40464, Note_off_c, 3, 70, 64
1, 40464, Note_on_c, 9, 42, 50
1, 40465, Note_off_c, 9, 42, 64
1, 40465, Note_on_c, 3, 75, 62
1, 40482, Note_off_c, 3, 75, 64
1, 40483, Note_on_c, 3, 70, 62
1, 40485, Pitch_bend_c, 6, 8257
1, 40489, Pitch_bend_c, 6, 8517
1, 40492, Pitch_bend_c, 6, 8907
1, 40496, Pitch_bend_c, 6, 9037
1, 40497, Note_off_c, 3, 70, 64
1, 40498, Note_on_c, 3, 73, 62
1, 40499, Pitch_bend_c, 6, 9232
1, 40502, Pitch_bend_c, 6, 9492
1, 40505, Pitch_bend_c, 6, 9752
1, 40508, Pitch_bend_c, 6, 10142
1, 40511, Pitch_bend_c, 6, 10337
1, 40512, Note_on_c, 9, 42, 110
1, 40512, Note_on_c, 9, 36, 90
1, 40512, Note_on_c, 1, 39, 127
1, 40512, Note_on_c, 5, 63, 102
1, 40512, Note_on_c, 4, 58, 104
1, 40512, Note_on_c, 4, 51, 104
1, 40512, Note_on_c, 8, 51, 125
1, 40513, Note_off_c, 9, 36, 64
1, 40513, Note_off_c, 9, 42, 64
1, 40515, Note_off_c, 3, 73, 64
1, 40515, Pitch_bend_c, 6, 10467
1, 40516, Note_on_c, 3, 68, 62
1, 40517, Pitch_bend_c, 6, 10857
1, 40520, Pitch_bend_c, 6, 11117
1, 40524, Pitch_bend_c, 6, 11442
1, 40526, Pitch_bend_c, 6, 11832
1, 40527, Note_off_c, 8, 51, 64
1, 40530, Pitch_bend_c, 6, 11962
1, 40533, Pitch_bend_c, 6, 12157
1, 40536, Pitch_bend_c, 6, 12287
1, 40539, Pitch_bend_c, 6, 12547
1, 40542, Pitch_bend_c, 6, 12807
1, 40545, Pitch_bend_c, 6, 13067
1, 40547, Pitch_bend_c, 6, 13522
1, 40549, Pitch_bend_c, 3, 8257
1, 40550, Pitch_bend_c, 6, 13652
1, 40552, Note_off_c, 5, 63, 64
1, 40552, Note_off_c, 4, 58, 64
1, 40552, Note_off_c, 4, 51, 64
1, 40553, Pitch_bend_c, 3, 8517
1, 40553, Pitch_bend_c, 6, 13912
1, 40554, Note_off_c, 1, 39, 64
1, 40556, Pitch_bend_c, 3, 8907
1, 40559, Pitch_bend_c, 6, 13782
1, 40560, Pitch_bend_c, 3, 9037
1, 40560, Note_on_c, 9, 42, 50
1, 40561, Note_off_c, 9, 42, 64
1, 40562, Pitch_bend_c, 6, 13522
1, 40563, Pitch_bend_c, 3, 9232
1, 40565, Pitch_bend_c, 6, 13392
1, 40566, Pitch_bend_c, 3, 9492
1, 40568, Pitch_bend_c, 6, 13132
1, 40569, Pitch_bend_c, 3, 9752
1, 40571, Pitch_bend_c, 6, 12547
1, 40572, Pitch_bend_c, 3, 10142
1, 40574, Pitch_bend_c, 6, 11117
1, 40575, Pitch_bend_c, 3, 10337
1, 40577, Pitch_bend_c, 6, 10597
1, 40579, Pitch_bend_c, 3, 10467
1, 40579, Pitch_bend_c, 6, 8192
1, 40581, Pitch_bend_c, 3, 10857
1, 40584, Pitch_bend_c, 3, 11117
1, 40588, Pitch_bend_c, 3, 11442
1, 40590, Pitch_bend_c, 3, 11832
1, 40592, Note_off_c, 6, 68, 64
1, 40593, Note_on_c, 6, 54, 127
1, 40593, Note_on_c, 6, 66, 127
1, 40594, Pitch_bend_c, 3, 11962
1, 40597, Pitch_bend_c, 3, 12157
1, 40600, Pitch_bend_c, 3, 12287
1, 40603, Pitch_bend_c, 3, 12547
1, 40606, Pitch_bend_c, 3, 12807
1, 40608, Note_on_c, 9, 42, 110
1, 40608, Note_on_c, 9, 38, 115
1, 40609, Note_off_c, 9, 38, 64
1, 40609, Note_off_c, 9, 42, 64
1, 40609, Pitch_bend_c, 3, 13067
1, 40609, Note_on_c, 9, 39, 127
1, 40610, Note_off_c, 9, 39, 64
1, 40611, Pitch_bend_c, 3, 13522
1, 40614, Pitch_bend_c, 3, 13652
1, 40615, Note_on_c, 10, 39, 127
1, 40616, Note_off_c, 10, 39, 64
1, 40617, Pitch_bend_c, 3, 13912
1, 40623, Pitch_bend_c, 3, 13782
1, 40626, Pitch_bend_c, 3, 13522
1, 40629, Pitch_bend_c, 3, 13392
1, 40632, Pitch_bend_c, 3, 13132
1, 40635, Pitch_bend_c, 3, 12547
1, 40638, Pitch_bend_c, 3, 11117
1, 40641, Pitch_bend_c, 3, 10597
1, 40643, Pitch_bend_c, 3, 8192
1, 40656, Note_off_c, 3, 68, 64
1, 40656, Note_on_c, 9, 42, 50
1, 40656, Note_on_c, 1, 37, 127
1, 40656, Note_on_c, 5, 61, 100
1, 40656, Note_on_c, 4, 56, 105
1, 40656, Note_on_c, 4, 49, 100
1, 40656, Note_on_c, 8, 49, 117
1, 40657, Note_off_c, 9, 42, 64
1, 40657, Note_on_c, 3, 54, 62
1, 40657, Note_on_c, 3, 66, 62
1, 40671, Note_off_c, 8, 49, 64
1, 40691, Note_off_c, 1, 37, 64
1, 40696, Note_off_c, 5, 61, 64
1, 40696, Note_off_c, 4, 56, 64
1, 40696, Note_off_c, 4, 49, 64
1, 40700, Note_off_c, 0, 58, 64
1, 40700, Note_off_c, 0, 66, 64
1, 40700, Note_off_c, 0, 63, 64
1, 40704, Note_on_c, 9, 42, 110
1, 40704, Note_on_c, 9, 36, 90
1, 40704, Note_on_c, 1, 37, 127
1, 40704, Note_on_c, 0, 61, 79
1, 40704, Note_on_c, 0, 56, 80
1, 40704, Note_on_c, 0, 65, 76
1, 40704, Note_on_c, 5, 61, 82
1, 40704, Note_on_c, 4, 56, 97
1, 40704, Note_on_c, 4, 49, 98
1, 40704, Note_on_c, 8, 49, 109
1, 40705, Note_off_c, 9, 36, 64
1, 40705, Note_off_c, 9, 42, 64
1, 40713, Pitch_bend_c, 6, 7810
1, 40719, Note_off_c, 8, 49, 64
1, 40719, Pitch_bend_c, 6, 7684
1, 40722, Pitch_bend_c, 6, 7558
1, 40725, Pitch_bend_c, 6, 7306
1, 40727, Pitch_bend_c, 6, 7180
1, 40730, Pitch_bend_c, 6, 6928
1, 40733, Pitch_bend_c, 6, 6802
1, 40735, Pitch_bend_c, 6, 6550
1, 40738, Pitch_bend_c, 6, 6424
1, 40740, Pitch_bend_c, 6, 6298
1, 40743, Pitch_bend_c, 6, 6172
1, 40744, Note_off_c, 5, 61, 64
1, 40744, Note_off_c, 1, 37, 64
1, 40744, Note_off_c, 4, 56, 64
1, 40744, Note_off_c, 4, 49, 64
1, 40748, Pitch_bend_c, 6, 6046
1, 40752, Note_on_c, 9, 42, 50
1, 40753, Note_off_c, 9, 42, 64
1, 40753, Pitch_bend_c, 6, 5920
1, 40758, Pitch_bend_c, 6, 6298
1, 40761, Pitch_bend_c, 6, 6802
1, 40763, Pitch_bend_c, 6, 7684
1, 40765, Pitch_bend_c, 6, 8192
1, 40767, Note_on_c, 6, 68, 123
1, 40774, Note_off_c, 6, 68, 64
1, 40775, Note_on_c, 6, 73, 127
1, 40777, Pitch_bend_c, 3, 7810
1, 40782, Note_off_c, 6, 73, 64
1, 40783, Pitch_bend_c, 3, 7684
1, 40783, Note_on_c, 6, 74, 107
1, 40786, Pitch_bend_c, 3, 7558
1, 40789, Pitch_bend_c, 3, 7306
1, 40790, Note_off_c, 6, 74, 64
1, 40791, Pitch_bend_c, 3, 7180
1, 40791, Note_on_c, 6, 75, 127
1, 40793, Note_off_c, 6, 54, 64
1, 40793, Note_off_c, 6, 66, 64
1, 40794, Pitch_bend_c, 3, 6928
1, 40796, Note_on_c, 7, 63, 125
1, 40797, Pitch_bend_c, 3, 6802
1, 40799, Note_off_c, 6, 75, 64
1, 40799, Pitch_bend_c, 3, 6550
1, 40799, Note_on_c, 6, 76, 116
1, 40800, Note_on_c, 9, 42, 110
1, 40800, Note_on_c, 9, 38, 115
1, 40800, Note_on_c, 9, 36, 90
1, 40800, Note_on_c, 1, 37, 127
1, 40800, Note_on_c, 5, 61, 100
1, 40800, Note_on_c, 4, 56, 101
1, 40800, Note_on_c, 4, 49, 100
1, 40800, Note_on_c, 8, 49, 126
1, 40801, Note_off_c, 9, 36, 64
1, 40801, Note_off_c, 9, 38, 64
1, 40801, Note_off_c, 9, 42, 64
1, 40801, Pitch_bend_c, 6, 8257
1, 40802, Pitch_bend_c, 3, 6424
1, 40804, Pitch_bend_c, 3, 6298
1, 40807, Note_off_c, 6, 76, 64
1, 40807, Pitch_bend_c, 3, 6172
1, 40807, Pitch_bend_c, 6, 8387
1, 40807, Note_on_c, 6, 77, 127
1, 40809, Pitch_bend_c, 6, 8517
1, 40810, Pitch_bend_c, 6, 8192
1, 40812, Pitch_bend_c, 3, 6046
1, 40815, Note_off_c, 6, 77, 64
1, 40815, Note_off_c, 8, 49, 64
1, 40817, Pitch_bend_c, 3, 5920
1, 40818, Pitch_bend_c, 7, 8257
1, 40820, Pitch_bend_c, 7, 8387
1, 40822, Pitch_bend_c, 3, 6298
1, 40822, Pitch_bend_c, 7, 8517
1, 40824, Pitch_bend_c, 7, 8907
1, 40825, Pitch_bend_c, 3, 6802
1, 40826, Pitch_bend_c, 7, 9232
1, 40827, Pitch_bend_c, 3, 7684
1, 40828, Pitch_bend_c, 7, 9492
1, 40829, Pitch_bend_c, 3, 8192
1, 40830, Pitch_bend_c, 7, 9752
1, 40831, Note_on_c, 3, 68, 58
1, 40833, Pitch_bend_c, 7, 10337
1, 40835, Pitch_bend_c, 7, 10597
1, 40837, Pitch_bend_c, 7, 10857
1, 40838, Note_off_c, 3, 68, 64
1, 40839, Note_on_c, 3, 73, 62
1, 40840, Note_off_c, 4, 49, 64
1, 40840, Note_off_c, 4, 56, 64
1, 40840, Note_off_c, 5, 61, 64
1, 40840, Pitch_bend_c, 7, 11572
1, 40842, Note_off_c, 1, 37, 64
1, 40842, Pitch_bend_c, 7, 11832
1, 40844, Pitch_bend_c, 7, 12157
1, 40846, Note_off_c, 3, 73, 64
1, 40846, Pitch_bend_c, 7, 12417
1, 40847, Note_on_c, 3, 74, 42
1, 40848, Note_on_c, 9, 42, 50
1, 40849, Note_off_c, 9, 42, 64
1, 40849, Pitch_bend_c, 7, 12807
1, 40851, Pitch_bend_c, 7, 13067
1, 40853, Pitch_bend_c, 7, 13262
1, 40854, Note_off_c, 3, 74, 64
1, 40855, Note_on_c, 3, 75, 62
1, 40857, Note_off_c, 3, 66, 64
1, 40857, Note_off_c, 3, 54, 64
1, 40857, Pitch_bend_c, 7, 13522
1, 40859, Pitch_bend_c, 7, 13782
1, 40861, Pitch_bend_c, 7, 13912
1, 40863, Note_off_c, 3, 75, 64
1, 40863, Note_on_c, 3, 76, 51
1, 40863, Pitch_bend_c, 7, 14042
1, 40865, Pitch_bend_c, 3, 8257
1, 40871, Note_off_c, 3, 76, 64
1, 40871, Pitch_bend_c, 3, 8387
1, 40871, Note_on_c, 3, 77, 62
1, 40872, Pitch_bend_c, 7, 13522
1, 40873, Pitch_bend_c, 3, 8517
1, 40874, Pitch_bend_c, 3, 8192
1, 40874, Pitch_bend_c, 7, 12807
1, 40876, Pitch_bend_c, 7, 12157
1, 40878, Pitch_bend_c, 7, 12092
1, 40879, Note_off_c, 3, 77, 64
1, 40884, Pitch_bend_c, 7, 11962
1, 40886, Pitch_bend_c, 7, 11832
1, 40888, Pitch_bend_c, 7, 11572
1, 40890, Pitch_bend_c, 7, 10727
1, 40893, Pitch_bend_c, 7, 8192
1, 40896, Note_on_c, 9, 42, 110
1, 40897, Note_off_c, 9, 42, 64
1, 40897, Note_off_c, 7, 63, 64
1, 40899, Note_on_c, 6, 61, 127
1, 40906, Note_off_c, 6, 61, 64
1, 40906, Note_on_c, 6, 63, 127
1, 40934, Pitch_bend_c, 6, 7810
1, 40937, Pitch_bend_c, 6, 7558
1, 40939, Pitch_bend_c, 6, 6928
1, 40941, Pitch_bend_c, 6, 6172
1, 40943, Pitch_bend_c, 6, 5542
1, 40944, Note_on_c, 9, 42, 50
1, 40944, Note_on_c, 9, 36, 90
1, 40945, Note_off_c, 9, 36, 64
1, 40945, Note_off_c, 9, 42, 64
1, 40945, Pitch_bend_c, 6, 5038
1, 40947, Pitch_bend_c, 6, 4912
1, 40949, Pitch_bend_c, 6, 5290
1, 40951, Pitch_bend_c, 6, 6046
1, 40953, Pitch_bend_c, 6, 7180
1, 40955, Pitch_bend_c, 6, 7810
1, 40958, Pitch_bend_c, 6, 8192
1, 40963, Note_on_c, 3, 61, 62
1, 40969, Pitch_bend_c, 6, 7810
1, 40970, Note_off_c, 3, 61, 64
1, 40970, Note_on_c, 3, 63, 62
1, 40971, Pitch_bend_c, 6, 6172
1, 40973, Pitch_bend_c, 6, 5290
1, 40976, Pitch_bend_c, 6, 5164
1, 40978, Pitch_bend_c, 6, 5668
1, 40980, Pitch_bend_c, 6, 8192
1, 40984, Note_off_c, 6, 63, 64
1, 40984, Note_on_c, 6, 61, 127
1, 40992, Note_on_c, 9, 42, 110
1, 40992, Note_on_c, 9, 38, 115
1, 40993, Note_off_c, 9, 38, 64
1, 40993, Note_off_c, 9, 42, 64
1, 40993, Note_on_c, 9, 39, 127
1, 40994, Note_off_c, 9, 39, 64
1, 40998, Pitch_bend_c, 3, 7810
1, 40999, Note_on_c, 10, 39, 127
1, 41000, Note_off_c, 10, 39, 64
1, 41001, Pitch_bend_c, 3, 7558
1, 41003, Pitch_bend_c, 3, 6928
1, 41005, Pitch_bend_c, 3, 6172
1, 41007, Pitch_bend_c, 3, 5542
1, 41009, Pitch_bend_c, 3, 5038
1, 41011, Pitch_bend_c, 3, 4912
1, 41013, Pitch_bend_c, 3, 5290
1, 41015, Pitch_bend_c, 3, 6046
1, 41017, Pitch_bend_c, 3, 7180
1, 41017, Pitch_bend_c, 6, 7810
1, 41019, Pitch_bend_c, 3, 7810
1, 41022, Pitch_bend_c, 3, 8192
1, 41022, Pitch_bend_c, 6, 7684
1, 41024, Pitch_bend_c, 6, 7432
1, 41026, Pitch_bend_c, 6, 6424
1, 41028, Pitch_bend_c, 6, 5920
1, 41030, Pitch_bend_c, 6, 5542
1, 41032, Pitch_bend_c, 6, 5164
1, 41033, Pitch_bend_c, 3, 7810
1, 41034, Pitch_bend_c, 6, 4786
1, 41035, Pitch_bend_c, 3, 6172
1, 41037, Pitch_bend_c, 3, 5290
1, 41040, Pitch_bend_c, 3, 5164
1, 41040, Note_on_c, 9, 42, 50
1, 41041, Note_off_c, 9, 42, 64
1, 41041, Pitch_bend_c, 6, 5038
1, 41042, Pitch_bend_c, 3, 5668
1, 41043, Pitch_bend_c, 6, 6802
1, 41044, Pitch_bend_c, 3, 8192
1, 41045, Pitch_bend_c, 6, 7684
1, 41047, Pitch_bend_c, 6, 7810
1, 41048, Note_off_c, 3, 63, 64
1, 41048, Note_on_c, 3, 61, 62
1, 41049, Pitch_bend_c, 6, 8192
1, 41075, Note_on_c, 6, 60, 120
1, 41081, Pitch_bend_c, 3, 7810
1, 41082, Note_off_c, 6, 60, 64
1, 41082, Note_off_c, 6, 61, 64
1, 41083, Note_on_c, 6, 59, 115
1, 41084, Note_off_c, 0, 61, 64
1, 41084, Note_off_c, 0, 56, 64
1, 41084, Note_off_c, 0, 65, 64
1, 41086, Pitch_bend_c, 3, 7684
1, 41088, Pitch_bend_c, 3, 7432
1, 41088, Note_on_c, 9, 49, 90
1, 41088, Note_on_c, 9, 36, 90
1, 41088, Note_on_c, 0, 66, 78
1, 41088, Note_on_c, 0, 63, 77
1, 41088, Note_on_c, 0, 58, 77
1, 41088, Note_on_c, 4, 39, 98
1, 41088, Note_on_c, 6, 58, 110
1, 41089, Note_off_c, 4, 39, 64
1, 41089, Note_off_c, 9, 36, 64
1, 41089, Note_off_c, 9, 49, 64
1, 41090, Note_off_c, 6, 59, 64
1, 41090, Pitch_bend_c, 3, 6424
1, 41092, Pitch_bend_c, 3, 5920
1, 41094, Pitch_bend_c, 3, 5542
1, 41095, Note_off_c, 6, 58, 64
1, 41096, Pitch_bend_c, 3, 5164
1, 41096, Note_on_c, 6, 57, 100
1, 41098, Pitch_bend_c, 3, 4786
1, 41103, Note_off_c, 6, 57, 64
1, 41104, Note_on_c, 6, 56, 90
1, 41105, Pitch_bend_c, 3, 5038
1, 41107, Pitch_bend_c, 3, 6802
1, 41109, Pitch_bend_c, 3, 7684
1, 41111, Note_off_c, 6, 56, 64
1, 41111, Pitch_bend_c, 3, 7810
1, 41112, Note_on_c, 6, 55, 80
1, 41113, Pitch_bend_c, 3, 8192
1, 41119, Note_off_c, 6, 55, 64
1, 41120, Note_on_c, 6, 54, 80
1, 41127, Note_off_c, 6, 54, 64
1, 41128, Note_on_c, 6, 53, 90
1, 41131, Note_off_c, 6, 53, 64
1, 41132, Note_on_c, 6, 61, 127
1, 41136, Note_on_c, 9, 42, 50
1, 41136, Note_on_c, 1, 39, 127
1, 41136, Note_on_c, 5, 63, 92
1, 41136, Note_on_c, 4, 51, 98
1, 41136, Note_on_c, 4, 58, 102
1, 41136, Note_on_c, 8, 51, 121
1, 41137, Note_off_c, 9, 42, 64
1, 41139, Note_on_c, 3, 60, 55
1, 41146, Note_off_c, 3, 60, 64
1, 41146, Note_off_c, 3, 61, 64
1, 41147, Note_on_c, 3, 59, 50
1, 41149, Pitch_bend_c, 6, 8387
1, 41151, Note_off_c, 8, 51, 64
1, 41152, Note_on_c, 3, 58, 45
1, 41154, Note_off_c, 3, 59, 64
1, 41154, Pitch_bend_c, 6, 9167
1, 41159, Note_off_c, 3, 58, 64
1, 41159, Pitch_bend_c, 6, 10012
1, 41160, Note_on_c, 3, 57, 35
1, 41163, Pitch_bend_c, 6, 10597
1, 41167, Note_off_c, 3, 57, 64
1, 41168, Note_on_c, 3, 56, 25
1, 41168, Pitch_bend_c, 6, 11572
1, 41171, Note_off_c, 1, 39, 64
1, 41173, Pitch_bend_c, 6, 11702
1, 41175, Note_off_c, 3, 56, 64
1, 41176, Note_off_c, 5, 63, 64
1, 41176, Note_off_c, 4, 51, 64
1, 41176, Note_off_c, 4, 58, 64
1, 41176, Note_on_c, 3, 55, 15
1, 41178, Pitch_bend_c, 6, 11572
1, 41183, Note_off_c, 3, 55, 64
1, 41183, Pitch_bend_c, 6, 10727
1, 41184, Note_on_c, 3, 54, 15
1, 41184, Note_on_c, 9, 42, 110
1, 41184, Note_on_c, 9, 38, 115
1, 41184, Note_on_c, 1, 39, 127
1, 41184, Note_on_c, 5, 63, 78
1, 41184, Note_on_c, 4, 58, 93
1, 41184, Note_on_c, 4, 51, 89
1, 41184, Note_on_c, 8, 51, 111
1, 41185, Note_off_c, 9, 38, 64
1, 41185, Note_off_c, 9, 42, 64
1, 41188, Pitch_bend_c, 6, 7810
1, 41190, Note_off_c, 6, 61, 64
1, 41191, Note_off_c, 3, 54, 64
1, 41191, Note_on_c, 6, 63, 127
1, 41192, Note_on_c, 3, 53, 25
1, 41195, Note_off_c, 3, 53, 64
1, 41195, Pitch_bend_c, 6, 8192
1, 41196, Note_on_c, 3, 61, 62
1, 41199, Note_off_c, 8, 51, 64
1, 41207, Note_off_c, 6, 63, 64
1, 41208, Note_on_c, 6, 61, 127
1, 41213, Pitch_bend_c, 3, 8387
1, 41218, Pitch_bend_c, 3, 9167
1, 41219, Note_off_c, 1, 39, 64
1, 41223, Pitch_bend_c, 3, 10012
1, 41224, Note_off_c, 5, 63, 64
1, 41224, Note_off_c, 4, 51, 64
1, 41224, Note_off_c, 4, 58, 64
1, 41226, Note_off_c, 6, 61, 64
1, 41227, Pitch_bend_c, 3, 10597
1, 41227, Note_on_c, 6, 58, 127
1, 41232, Pitch_bend_c, 3, 11572
1, 41232, Note_on_c, 9, 42, 50
1, 41233, Note_off_c, 9, 42, 64
1, 41237, Pitch_bend_c, 3, 11702
1, 41242, Pitch_bend_c, 3, 11572
1, 41246, Note_off_c, 6, 58, 64
1, 41247, Pitch_bend_c, 3, 10727
1, 41247, Note_on_c, 6, 61, 127
1, 41252, Pitch_bend_c, 3, 7810
1, 41254, Note_off_c, 3, 61, 64
1, 41255, Note_on_c, 3, 63, 62
1, 41259, Pitch_bend_c, 3, 8192
1, 41271, Note_off_c, 3, 63, 64
1, 41271, Pitch_bend_c, 6, 8647
1, 41272, Note_on_c, 3, 61, 62
1, 41278, Pitch_bend_c, 6, 10727
1, 41280, Note_on_c, 9, 42, 110
1, 41280, Note_on_c, 9, 36, 90
1, 41280, Note_on_c, 1, 39, 127
1, 41280, Note_on_c, 5, 63, 97
1, 41280, Note_on_c, 4, 58, 100
1, 41280, Note_on_c, 4, 51, 101
1, 41280, Note_on_c, 8, 51, 121
1, 41281, Note_off_c, 9, 36, 64
1, 41281, Note_off_c, 9, 42, 64
1, 41285, Pitch_bend_c, 6, 11117
1, 41290, Note_off_c, 3, 61, 64
1, 41291, Note_on_c, 3, 58, 62
1, 41292, Pitch_bend_c, 6, 11442
1, 41295, Note_off_c, 8, 51, 64
1, 41299, Pitch_bend_c, 6, 11702
1, 41306, Pitch_bend_c, 6, 11832
1, 41310, Note_off_c, 3, 58, 64
1, 41311, Note_on_c, 3, 61, 62
1, 41313, Pitch_bend_c, 6, 10727
1, 41315, Note_off_c, 1, 39, 64
1, 41320, Note_off_c, 5, 63, 64
1, 41320, Note_off_c, 4, 58, 64
1, 41320, Note_off_c, 4, 51, 64
1, 41320, Pitch_bend_c, 6, 8192
1, 41321, Note_off_c, 6, 61, 64
1, 41322, Note_on_c, 6, 63, 127
1, 41328, Note_on_c, 9, 42, 50
1, 41329, Note_off_c, 9, 42, 64
1, 41335, Pitch_bend_c, 3, 8647
1, 41340, Note_off_c, 6, 63, 64
1, 41341, Note_on_c, 6, 61, 127
1, 41342, Pitch_bend_c, 3, 10727
1, 41349, Pitch_bend_c, 3, 11117
1, 41356, Pitch_bend_c, 3, 11442
1, 41357, Note_on_c, 6, 58, 127
1, 41358, Note_off_c, 6, 61, 64
1, 41363, Pitch_bend_c, 3, 11702
1, 41370, Pitch_bend_c, 3, 11832
1, 41374, Note_off_c, 6, 58, 64
1, 41375, Note_on_c, 6, 61, 127
1, 41376, Note_on_c, 9, 42, 110
1, 41376, Note_on_c, 9, 38, 115
1, 41377, Note_off_c, 9, 38, 64
1, 41377, Note_off_c, 9, 42, 64
1, 41377, Pitch_bend_c, 3, 10727
1, 41377, Note_on_c, 9, 39, 127
1, 41378, Note_off_c, 9, 39, 64
1, 41383, Note_on_c, 10, 39, 127
1, 41384, Note_off_c, 10, 39, 64
1, 41384, Pitch_bend_c, 3, 8192
1, 41385, Note_off_c, 3, 61, 64
1, 41386, Note_on_c, 3, 63, 62
1, 41404, Note_off_c, 3, 63, 64
1, 41405, Note_on_c, 3, 61, 62
1, 41406, Pitch_bend_c, 6, 8647
1, 41416, Pitch_bend_c, 6, 12092
1, 41421, Note_on_c, 3, 58, 62
1, 41422, Note_off_c, 3, 61, 64
1, 41424, Note_on_c, 9, 42, 50
1, 41424, Note_on_c, 1, 37, 127
1, 41424, Note_on_c, 5, 61, 82
1, 41424, Note_on_c, 4, 56, 101
1, 41424, Note_on_c, 4, 49, 98
1, 41424, Note_on_c, 8, 49, 107
1, 41425, Note_off_c, 9, 42, 64
1, 41426, Pitch_bend_c, 6, 12417
1, 41438, Note_off_c, 3, 58, 64
1, 41439, Note_off_c, 8, 49, 64
1, 41439, Note_on_c, 3, 61, 62
1, 41444, Note_off_c, 6, 61, 64
1, 41445, Note_on_c, 6, 63, 127
1, 41449, Pitch_bend_c, 6, 8192
1, 41459, Note_off_c, 1, 37, 64
1, 41463, Note_off_c, 6, 63, 64
1, 41464, Note_off_c, 5, 61, 64
1, 41464, Note_off_c, 4, 49, 64
1, 41464, Note_off_c, 4, 56, 64
1, 41464, Note_on_c, 6, 61, 127
1, 41468, Note_off_c, 0, 66, 64
1, 41468, Note_off_c, 0, 58, 64
1, 41468, Note_off_c, 0, 63, 64
1, 41470, Pitch_bend_c, 3, 8647
1, 41472, Note_on_c, 9, 42, 110
1, 41472, Note_on_c, 9, 36, 90
1, 41472, Note_on_c, 1, 37, 127
1, 41472, Note_on_c, 0, 56, 79
1, 41472, Note_on_c, 0, 65, 75
1, 41472, Note_on_c, 0, 61, 81
1, 41472, Note_on_c, 5, 61, 82
1, 41472, Note_on_c, 4, 56, 97
1, 41472, Note_on_c, 4, 49, 98
1, 41472, Note_on_c, 8, 49, 115
1, 41473, Note_off_c, 9, 36, 64
1, 41473, Note_off_c, 9, 42, 64
1, 41475, Note_off_c, 6, 61, 64
1, 41476, Note_on_c, 6, 58, 127
1, 41480, Pitch_bend_c, 3, 12092
1, 41487, Note_off_c, 8, 49, 64
1, 41490, Pitch_bend_c, 3, 12417
1, 41500, Note_off_c, 6, 58, 64
1, 41501, Note_on_c, 6, 61, 127
1, 41508, Note_off_c, 3, 61, 64
1, 41509, Note_on_c, 3, 63, 62
1, 41510, Note_off_c, 1, 37, 64
1, 41512, Note_off_c, 5, 61, 64
1, 41512, Note_off_c, 4, 49, 64
1, 41512, Note_off_c, 4, 56, 64
1, 41513, Pitch_bend_c, 3, 8192
1, 41520, Note_on_c, 9, 42, 50
1, 41521, Note_off_c, 9, 42, 64
1, 41527, Note_off_c, 3, 63, 64
1, 41528, Note_on_c, 3, 61, 62
1, 41534, Pitch_bend_c, 6, 11442
1, 41539, Note_off_c, 3, 61, 64
1, 41540, Note_on_c, 3, 58, 62
1, 41543, Pitch_bend_c, 6, 12547
1, 41553, Pitch_bend_c, 6, 12677
1, 41562, Pitch_bend_c, 6, 8192
1, 41564, Note_off_c, 3, 58, 64
1, 41565, Note_off_c, 6, 61, 64
1, 41565, Note_on_c, 3, 61, 62
1, 41566, Note_on_c, 6, 63, 127
1, 41568, Note_on_c, 9, 42, 110
1, 41568, Note_on_c, 9, 38, 115
1, 41568, Note_on_c, 9, 36, 90
1, 41568, Note_on_c, 1, 37, 127
1, 41568, Note_on_c, 5, 61, 100
1, 41568, Note_on_c, 4, 56, 101
1, 41568, Note_on_c, 4, 49, 100
1, 41568, Note_on_c, 8, 49, 121
1, 41569, Note_off_c, 9, 36, 64
1, 41569, Note_off_c, 9, 38, 64
1, 41569, Note_off_c, 9, 42, 64
1, 41583, Note_off_c, 8, 49, 64
1, 41586, Note_off_c, 6, 63, 64
1, 41587, Note_on_c, 6, 61, 127
1, 41596, Note_off_c, 6, 61, 64
1, 41597, Note_on_c, 6, 58, 127
1, 41598, Pitch_bend_c, 3, 11442
1, 41603, Note_off_c, 1, 37, 64
1, 41607, Pitch_bend_c, 3, 12547
1, 41608, Note_off_c, 5, 61, 64
1, 41608, Note_off_c, 4, 49, 64
1, 41608, Note_off_c, 4, 56, 64
1, 41614, Note_off_c, 6, 58, 64
1, 41615, Note_on_c, 6, 56, 127
1, 41616, Note_on_c, 9, 42, 50
1, 41617, Note_off_c, 9, 42, 64
1, 41617, Pitch_bend_c, 3, 12677
1, 41626, Pitch_bend_c, 3, 8192
1, 41629, Note_off_c, 3, 61, 64
1, 41630, Note_on_c, 3, 63, 62
1, 41640, Pitch_bend_c, 6, 10337
1, 41650, Note_off_c, 3, 63, 64
1, 41650, Pitch_bend_c, 6, 12417
1, 41651, Note_on_c, 3, 61, 62
1, 41660, Note_off_c, 3, 61, 64
1, 41660, Pitch_bend_c, 6, 12807
1, 41661, Note_on_c, 3, 58, 62
1, 41664, Note_on_c, 9, 42, 110
1, 41664, Pitch_bend_c, 6, 8192
1, 41665, Note_off_c, 9, 42, 64
1, 41669, Note_off_c, 6, 56, 64
1, 41670, Note_on_c, 7, 63, 110
1, 41678, Note_off_c, 3, 58, 64
1, 41679, Note_on_c, 3, 56, 62
1, 41687, Pitch_bend_c, 7, 10012
1, 41691, Pitch_bend_c, 7, 13132
1, 41701, Pitch_bend_c, 7, 13262
1, 41704, Pitch_bend_c, 3, 10337
1, 41706, Pitch_bend_c, 7, 13392
1, 41711, Pitch_bend_c, 7, 13782
1, 41712, Note_on_c, 9, 42, 50
1, 41712, Note_on_c, 9, 36, 90
1, 41713, Note_off_c, 9, 36, 64
1, 41713, Note_off_c, 9, 42, 64
1, 41714, Pitch_bend_c, 3, 12417
1, 41715, Pitch_bend_c, 7, 14497
1, 41720, Pitch_bend_c, 7, 14887
1, 41724, Pitch_bend_c, 3, 12807
1, 41725, Pitch_bend_c, 7, 15212
1, 41728, Pitch_bend_c, 3, 8192
1, 41730, Pitch_bend_c, 7, 15342
1, 41733, Note_off_c, 3, 56, 64
1, 41735, Pitch_bend_c, 7, 15472
1, 41740, Pitch_bend_c, 7, 15082
1, 41745, Pitch_bend_c, 7, 13652
1, 41749, Pitch_bend_c, 7, 10467
1, 41754, Pitch_bend_c, 7, 9752
1, 41759, Pitch_bend_c, 7, 12092
1, 41760, Note_on_c, 9, 42, 110
1, 41760, Note_on_c, 9, 38, 115
1, 41761, Note_off_c, 9, 38, 64
1, 41761, Note_off_c, 9, 42, 64
1, 41761, Note_on_c, 9, 39, 127
1, 41762, Note_off_c, 9, 39, 64
1, 41764, Pitch_bend_c, 7, 15862
1, 41767, Note_on_c, 10, 39, 127
1, 41768, Note_off_c, 10, 39, 64
1, 41781, Pitch_bend_c, 7, 13522
1, 41786, Pitch_bend_c, 7, 10012
1, 41791, Pitch_bend_c, 7, 10337
1, 41796, Pitch_bend_c, 7, 13262
1, 41801, Pitch_bend_c, 7, 15862
1, 41808, Note_on_c, 9, 42, 50
1, 41809, Note_off_c, 9, 42, 64
1, 41811, Pitch_bend_c, 7, 15472
1, 41816, Pitch_bend_c, 7, 14042
1, 41821, Pitch_bend_c, 7, 12287
1, 41826, Pitch_bend_c, 7, 15602
1, 41830, Pitch_bend_c, 7, 16187
1, 41850, Pitch_bend_c, 7, 15212
1, 41852, Note_off_c, 0, 61, 64
1, 41852, Note_off_c, 0, 65, 64
1, 41852, Note_off_c, 0, 56, 64
1, 41855, Pitch_bend_c, 7, 14627
1, 41856, Note_on_c, 9, 42, 110
1, 41856, Note_on_c, 9, 36, 90
1, 41856, Note_on_c, 0, 63, 79
1, 41856, Note_on_c, 0, 66, 81
1, 41856, Note_on_c, 0, 58, 76
1, 41857, Note_off_c, 9, 36, 64
1, 41857, Note_off_c, 9, 42, 64
1, 41859, Pitch_bend_c, 7, 13652
1, 41864, Pitch_bend_c, 7, 10857
1, 41869, Pitch_bend_c, 7, 8192
1, 41870, Note_off_c, 7, 63, 64
1, 41874, Pitch_bend_c, 7, 1384
1, 41879, Pitch_bend_c, 7, 8192
1, 41904, Note_on_c, 9, 42, 50
1, 41904, Note_on_c, 1, 39, 127
1, 41904, Note_on_c, 5, 63, 98
1, 41904, Note_on_c, 4, 58, 102
1, 41904, Note_on_c, 4, 51, 101
1, 41904, Note_on_c, 8, 51, 115
1, 41904, Note_on_c, 6, 78, 127
1, 41905, Note_off_c, 9, 42, 64
1, 41911, Note_off_c, 6, 78, 64
1, 41912, Note_on_c, 6, 79, 100
1, 41919, Note_off_c, 6, 79, 64
1, 41919, Note_off_c, 8, 51, 64
1, 41920, Note_on_c, 6, 80, 90
1, 41927, Note_off_c, 6, 80, 64
1, 41928, Note_on_c, 6, 81, 85
1, 41935, Note_off_c, 6, 81, 64
1, 41936, Note_on_c, 6, 82, 127
1, 41939, Note_off_c, 1, 39, 64
1, 41944, Note_off_c, 4, 58, 64
1, 41944, Note_off_c, 5, 63, 64
1, 41944, Note_off_c, 4, 51, 64
1, 41952, Note_off_c, 6, 82, 64
1, 41952, Note_on_c, 9, 42, 110
1, 41952, Note_on_c, 9, 38, 115
1, 41952, Note_on_c, 1, 39, 127
1, 41952, Note_on_c, 5, 63, 86
1, 41952, Note_on_c, 4, 51, 98
1, 41952, Note_on_c, 4, 58, 101
1, 41952, Note_on_c, 8, 51, 115
1, 41953, Note_off_c, 9, 38, 64
1, 41953, Note_off_c, 9, 42, 64
1, 41953, Note_on_c, 6, 75, 127
1, 41967, Note_off_c, 8, 51, 64
1, 41968, Note_on_c, 3, 78, 62
1, 41975, Note_off_c, 3, 78, 64
1, 41976, Note_on_c, 3, 79, 35
1, 41983, Note_off_c, 3, 79, 64
1, 41984, Note_on_c, 3, 80, 25
1, 41991, Note_off_c, 3, 80, 64
1, 41992, Note_off_c, 4, 51, 64
1, 41992, Note_off_c, 5, 63, 64
1, 41992, Note_off_c, 1, 39, 64
1, 41992, Note_off_c, 4, 58, 64
1, 41992, Note_on_c, 3, 81, 20
1, 41994, Note_off_c, 6, 75, 64
1, 41996, Note_on_c, 6, 73, 127
1, 41999, Note_off_c, 3, 81, 64
1, 42000, Note_on_c, 3, 82, 62
1, 42000, Note_on_c, 9, 42, 50
1, 42001, Note_off_c, 9, 42, 64
1, 42001, Pitch_bend_c, 6, 8257
1, 42003, Pitch_bend_c, 6, 10597
1, 42006, Pitch_bend_c, 6, 11182
1, 42008, Pitch_bend_c, 6, 12092
1, 42010, Pitch_bend_c, 6, 12547
1, 42013, Pitch_bend_c, 6, 12937
1, 42015, Pitch_bend_c, 6, 13392
1, 42016, Note_off_c, 3, 82, 64
1, 42017, Note_on_c, 3, 75, 62
1, 42017, Pitch_bend_c, 6, 13522
1, 42020, Pitch_bend_c, 6, 13652
1, 42022, Pitch_bend_c, 6, 13782
1, 42024, Pitch_bend_c, 6, 13912
1, 42041, Pitch_bend_c, 6, 13652
1, 42043, Pitch_bend_c, 6, 9232
1, 42045, Pitch_bend_c, 6, 8192
1, 42046, Note_off_c, 6, 73, 64
1, 42047, Note_on_c, 6, 75, 127
1, 42048, Note_on_c, 9, 42, 110
1, 42048, Note_on_c, 9, 36, 90
1, 42048, Note_on_c, 1, 39, 127
1, 42048, Note_on_c, 5, 63, 98
1, 42048, Note_on_c, 4, 58, 101
1, 42048, Note_on_c, 4, 51, 101
1, 42048, Note_on_c, 8, 51, 119
1, 42049, Note_off_c, 9, 36, 64
1, 42049, Note_off_c, 9, 42, 64
1, 42058, Note_off_c, 3, 75, 64
1, 42060, Note_on_c, 3, 73, 62
1, 42063, Note_off_c, 8, 51, 64
1, 42065, Pitch_bend_c, 3, 8257
1, 42067, Pitch_bend_c, 3, 10597
1, 42070, Pitch_bend_c, 3, 11182
1, 42072, Note_off_c, 6, 75, 64
1, 42072, Pitch_bend_c, 3, 12092
1, 42073, Note_on_c, 6, 70, 127
1, 42074, Pitch_bend_c, 3, 12547
1, 42077, Pitch_bend_c, 3, 12937
1, 42079, Pitch_bend_c, 3, 13392
1, 42081, Pitch_bend_c, 3, 13522
1, 42084, Pitch_bend_c, 3, 13652
1, 42086, Pitch_bend_c, 3, 13782
1, 42088, Note_off_c, 4, 58, 64
1, 42088, Note_off_c, 4, 51, 64
1, 42088, Note_off_c, 5, 63, 64
1, 42088, Pitch_bend_c, 3, 13912
1, 42090, Note_off_c, 1, 39, 64
1, 42095, Note_off_c, 6, 70, 64
1, 42096, Note_on_c, 9, 42, 50
1, 42096, Note_on_c, 6, 78, 127
1, 42097, Note_off_c, 9, 42, 64
1, 42101, Pitch_bend_c, 6, 8777
1, 42104, Pitch_bend_c, 6, 10337
1, 42105, Pitch_bend_c, 3, 13652
1, 42107, Pitch_bend_c, 3, 9232
1, 42107, Pitch_bend_c, 6, 11702
1, 42109, Pitch_bend_c, 3, 8192
1, 42109, Pitch_bend_c, 6, 11962
1, 42110, Note_off_c, 3, 73, 64
1, 42111, Note_on_c, 3, 75, 62
1, 42112, Pitch_bend_c, 6, 12417
1, 42114, Pitch_bend_c, 6, 12677
1, 42117, Pitch_bend_c, 6, 12937
1, 42119, Pitch_bend_c, 6, 13132
1, 42127, Pitch_bend_c, 6, 13262
1, 42129, Pitch_bend_c, 6, 13392
1, 42132, Pitch_bend_c, 6, 13522
1, 42134, Pitch_bend_c, 6, 13652
1, 42136, Note_off_c, 3, 75, 64
1, 42137, Note_on_c, 3, 70, 62
1, 42137, Pitch_bend_c, 6, 13782
1, 42139, Pitch_bend_c, 6, 13912
1, 42144, Note_on_c, 9, 42, 110
1, 42144, Note_on_c, 9, 38, 115
1, 42144, Pitch_bend_c, 6, 14107
1, 42145, Note_off_c, 9, 38, 64
1, 42145, Note_off_c, 9, 42, 64
1, 42145, Note_on_c, 9, 39, 127
1, 42146, Note_off_c, 9, 39, 64
1, 42148, Pitch_bend_c, 6, 14237
1, 42151, Note_on_c, 10, 39, 127
1, 42152, Note_off_c, 10, 39, 64
1, 42153, Pitch_bend_c, 6, 14367
1, 42157, Pitch_bend_c, 6, 14497
1, 42159, Note_off_c, 3, 70, 64
1, 42160, Note_on_c, 3, 78, 62
1, 42165, Pitch_bend_c, 3, 8777
1, 42168, Pitch_bend_c, 3, 10337
1, 42168, Pitch_bend_c, 6, 14367
1, 42170, Pitch_bend_c, 6, 14237
1, 42171, Pitch_bend_c, 3, 11702
1, 42172, Pitch_bend_c, 6, 14042
1, 42173, Pitch_bend_c, 3, 11962
1, 42176, Pitch_bend_c, 3, 12417
1, 42178, Pitch_bend_c, 3, 12677
1, 42181, Pitch_bend_c, 3, 12937
1, 42181, Pitch_bend_c, 6, 13782
1, 42183, Pitch_bend_c, 3, 13132
1, 42183, Pitch_bend_c, 6, 13522
1, 42186, Pitch_bend_c, 6, 13262
1, 42190, Pitch_bend_c, 6, 13132
1, 42191, Pitch_bend_c, 3, 13262
1, 42192, Note_on_c, 9, 42, 50
1, 42192, Note_on_c, 1, 37, 127
1, 42192, Note_on_c, 5, 61, 92
1, 42192, Note_on_c, 4, 56, 102
1, 42192, Note_on_c, 4, 49, 101
1, 42192, Note_on_c, 8, 49, 121
1, 42192, Pitch_bend_c, 6, 12677
1, 42193, Note_off_c, 9, 42, 64
1, 42193, Pitch_bend_c, 3, 13392
1, 42194, Pitch_bend_c, 6, 12417
1, 42196, Pitch_bend_c, 3, 13522
1, 42196, Pitch_bend_c, 6, 12157
1, 42198, Pitch_bend_c, 3, 13652
1, 42198, Pitch_bend_c, 6, 11962
1, 42200, Pitch_bend_c, 6, 11702
1, 42201, Pitch_bend_c, 3, 13782
1, 42203, Pitch_bend_c, 3, 13912
1, 42203, Pitch_bend_c, 6, 9492
1, 42205, Pitch_bend_c, 6, 8192
1, 42207, Note_off_c, 8, 49, 64
1, 42208, Pitch_bend_c, 3, 14107
1, 42212, Pitch_bend_c, 3, 14237
1, 42217, Pitch_bend_c, 3, 14367
1, 42220, Note_off_c, 6, 78, 64
1, 42221, Pitch_bend_c, 3, 14497
1, 42221, Note_on_c, 6, 75, 127
1, 42227, Note_off_c, 1, 37, 64
1, 42232, Note_off_c, 5, 61, 64
1, 42232, Note_off_c, 4, 49, 64
1, 42232, Note_off_c, 4, 56, 64
1, 42232, Pitch_bend_c, 3, 14367
1, 42234, Pitch_bend_c, 3, 14237
1, 42236, Note_off_c, 0, 58, 64
1, 42236, Note_off_c, 0, 66, 64
1, 42236, Note_off_c, 0, 63, 64
1, 42236, Pitch_bend_c, 3, 14042
1, 42238, Note_off_c, 6, 75, 64
1, 42239, Note_on_c, 6, 73, 127
1, 42240, Note_on_c, 9, 42, 110
1, 42240, Note_on_c, 9, 36, 90
1, 42240, Note_on_c, 1, 37, 127
1, 42240, Note_on_c, 0, 65, 74
1, 42240, Note_on_c, 0, 56, 78
1, 42240, Note_on_c, 0, 61, 81
1, 42240, Note_on_c, 5, 61, 84
1, 42240, Note_on_c, 4, 49, 97
1, 42240, Note_on_c, 4, 56, 99
1, 42240, Note_on_c, 8, 49, 111
1, 42241, Note_off_c, 9, 36, 64
1, 42241, Note_off_c, 9, 42, 64
1, 42245, Pitch_bend_c, 3, 13782
1, 42247, Pitch_bend_c, 3, 13522
1, 42250, Pitch_bend_c, 3, 13262
1, 42254, Pitch_bend_c, 3, 13132
1, 42255, Note_off_c, 8, 49, 64
1, 42256, Pitch_bend_c, 3, 12677
1, 42258, Pitch_bend_c, 3, 12417
1, 42259, Note_off_c, 6, 73, 64
1, 42260, Pitch_bend_c, 3, 12157
1, 42262, Pitch_bend_c, 3, 11962
1, 42264, Pitch_bend_c, 3, 11702
1, 42264, Note_on_c, 6, 68, 127
1, 42267, Pitch_bend_c, 3, 9492
1, 42269, Pitch_bend_c, 3, 8192
1, 42274, Pitch_bend_c, 6, 8257
1, 42276, Pitch_bend_c, 6, 9232
1, 42279, Pitch_bend_c, 6, 9752
1, 42280, Note_off_c, 1, 37, 64
1, 42280, Note_off_c, 4, 49, 64
1, 42280, Note_off_c, 4, 56, 64
1, 42280, Note_off_c, 5, 61, 64
1, 42281, Pitch_bend_c, 6, 10337
1, 42284, Note_off_c, 3, 78, 64
1, 42284, Pitch_bend_c, 6, 11182
1, 42285, Note_on_c, 3, 75, 62
1, 42286, Pitch_bend_c, 6, 11442
1, 42288, Note_on_c, 9, 42, 50
1, 42289, Note_off_c, 9, 42, 64
1, 42289, Pitch_bend_c, 6, 12092
1, 42291, Pitch_bend_c, 6, 12287
1, 42296, Pitch_bend_c, 6, 12157
1, 42298, Pitch_bend_c, 6, 11182
1, 42301, Pitch_bend_c, 6, 9362
1, 42302, Note_off_c, 3, 75, 64
1, 42303, Note_on_c, 3, 73, 62
1, 42303, Pitch_bend_c, 6, 8192
1, 42311, Note_on_c, 6, 66, 127
1, 42314, Note_off_c, 6, 68, 64
1, 42323, Note_off_c, 3, 73, 64
1, 42325, Note_off_c, 6, 66, 64
1, 42326, Note_on_c, 6, 68, 127
1, 42328, Note_on_c, 3, 68, 62
1, 42336, Note_on_c, 9, 42, 110
1, 42336, Note_on_c, 9, 38, 115
1, 42336, Note_on_c, 9, 36, 90
1, 42336, Note_on_c, 1, 37, 127
1, 42336, Note_on_c, 5, 61, 98
1, 42336, Note_on_c, 4, 56, 100
1, 42336, Note_on_c, 4, 49, 99
1, 42336, Note_on_c, 8, 49, 119
1, 42337, Note_off_c, 9, 36, 64
1, 42337, Note_off_c, 9, 38, 64
1, 42337, Note_off_c, 9, 42, 64
1, 42338, Pitch_bend_c, 3, 8257
1, 42340, Pitch_bend_c, 3, 9232
1, 42343, Pitch_bend_c, 3, 9752
1, 42345, Pitch_bend_c, 3, 10337
1, 42346, Pitch_bend_c, 6, 8257
1, 42348, Pitch_bend_c, 3, 11182
1, 42349, Pitch_bend_c, 6, 8387
1, 42350, Pitch_bend_c, 3, 11442
1, 42351, Note_off_c, 8, 49, 64
1, 42351, Pitch_bend_c, 6, 8777
1, 42353, Pitch_bend_c, 3, 12092
1, 42354, Pitch_bend_c, 6, 9752
1, 42355, Pitch_bend_c, 3, 12287
1, 42356, Pitch_bend_c, 6, 10337
1, 42358, Pitch_bend_c, 6, 10987
1, 42360, Pitch_bend_c, 3, 12157
1, 42361, Pitch_bend_c, 6, 12287
1, 42362, Pitch_bend_c, 3, 11182
1, 42363, Pitch_bend_c, 6, 12807
1, 42365, Pitch_bend_c, 3, 9362
1, 42365, Pitch_bend_c, 6, 13262
1, 42367, Pitch_bend_c, 3, 8192
1, 42368, Pitch_bend_c, 6, 13652
1, 42372, Pitch_bend_c, 6, 13392
1, 42374, Pitch_bend_c, 6, 11702
1, 42375, Note_on_c, 3, 66, 62
1, 42376, Note_off_c, 5, 61, 64
1, 42376, Note_off_c, 4, 49, 64
1, 42376, Note_off_c, 4, 56, 64
1, 42376, Pitch_bend_c, 6, 8192
1, 42378, Note_off_c, 1, 37, 64
1, 42378, Note_off_c, 3, 68, 64
1, 42384, Note_on_c, 9, 42, 50
1, 42385, Note_off_c, 9, 42, 64
1, 42389, Note_off_c, 3, 66, 64
1, 42390, Note_on_c, 3, 68, 62
1, 42390, Pitch_bend_c, 6, 8512
1, 42392, Pitch_bend_c, 6, 8832
1, 42394, Pitch_bend_c, 6, 9152
1, 42396, Pitch_bend_c, 6, 10752
1, 42398, Pitch_bend_c, 6, 11712
1, 42401, Pitch_bend_c, 6, 12288
1, 42403, Pitch_bend_c, 6, 12032
1, 42409, Pitch_bend_c, 6, 11392
1, 42410, Pitch_bend_c, 3, 8257
1, 42411, Pitch_bend_c, 6, 7684
1, 42413, Pitch_bend_c, 3, 8387
1, 42413, Pitch_bend_c, 6, 8192
1, 42415, Pitch_bend_c, 3, 8777
1, 42418, Pitch_bend_c, 3, 9752
1, 42420, Pitch_bend_c, 3, 10337
1, 42422, Pitch_bend_c, 3, 10987
1, 42425, Pitch_bend_c, 3, 12287
1, 42427, Pitch_bend_c, 3, 12807
1, 42429, Pitch_bend_c, 3, 13262
1, 42430, Pitch_bend_c, 6, 8387
1, 42432, Pitch_bend_c, 3, 13652
1, 42432, Note_on_c, 9, 42, 110
1, 42432, Pitch_bend_c, 6, 10207
1, 42433, Note_off_c, 9, 42, 64
1, 42436, Pitch_bend_c, 3, 13392
1, 42438, Pitch_bend_c, 3, 11702
1, 42440, Pitch_bend_c, 3, 8192
1, 42447, Pitch_bend_c, 6, 9472
1, 42451, Note_off_c, 6, 68, 64
1, 42451, Pitch_bend_c, 6, 8192
1, 42452, Note_on_c, 6, 67, 110
1, 42454, Pitch_bend_c, 3, 8512
1, 42456, Pitch_bend_c, 3, 8832
1, 42458, Pitch_bend_c, 3, 9152
1, 42460, Note_off_c, 6, 67, 64
1, 42460, Pitch_bend_c, 3, 10752
1, 42460, Note_on_c, 6, 66, 110
1, 42462, Pitch_bend_c, 3, 11712
1, 42465, Pitch_bend_c, 3, 12288
1, 42467, Pitch_bend_c, 3, 12032
1, 42468, Note_off_c, 6, 66, 64
1, 42468, Note_on_c, 6, 65, 100
1, 42473, Pitch_bend_c, 3, 11392
1, 42475, Pitch_bend_c, 3, 7684
1, 42476, Note_off_c, 6, 65, 64
1, 42476, Note_on_c, 6, 64, 100
1, 42477, Pitch_bend_c, 3, 8192
1, 42480, Note_on_c, 9, 42, 50
1, 42480, Note_on_c, 9, 36, 90
1, 42481, Note_off_c, 9, 36, 64
1, 42481, Note_off_c, 9, 42, 64
1, 42484, Note_off_c, 6, 64, 64
1, 42484, Note_on_c, 6, 63, 90
1, 42492, Note_off_c, 6, 63, 64
1, 42492, Note_on_c, 6, 62, 90
1, 42494, Pitch_bend_c, 3, 8387
1, 42496, Pitch_bend_c, 3, 10207
1, 42500, Note_off_c, 6, 62, 64
1, 42500, Note_on_c, 6, 61, 80
1, 42508, Note_off_c, 6, 61, 64
1, 42508, Note_on_c, 6, 60, 80
1, 42511, Pitch_bend_c, 3, 9472
1, 42515, Note_off_c, 3, 68, 64
1, 42515, Pitch_bend_c, 3, 8192
1, 42516, Note_off_c, 6, 60, 64
1, 42516, Note_on_c, 3, 67, 45
1, 42516, Note_on_c, 6, 59, 70
1, 42524, Note_off_c, 6, 59, 64
1, 42524, Note_off_c, 3, 67, 64
1, 42524, Note_on_c, 3, 66, 45
1, 42524, Note_on_c, 6, 58, 60
1, 42528, Note_on_c, 9, 42, 110
1, 42528, Note_on_c, 9, 38, 115
1, 42529, Note_off_c, 9, 38, 64
1, 42529, Note_off_c, 9, 42, 64
1, 42529, Note_on_c, 9, 39, 127
1, 42530, Note_off_c, 9, 39, 64
1, 42532, Note_off_c, 6, 58, 64
1, 42532, Note_off_c, 3, 66, 64
1, 42532, Note_on_c, 3, 65, 35
1, 42535, Note_on_c, 10, 39, 127
1, 42536, Note_off_c, 10, 39, 64
1, 42540, Note_off_c, 3, 65, 64
1, 42540, Note_on_c, 3, 64, 35
1, 42548, Note_off_c, 3, 64, 64
1, 42548, Note_on_c, 3, 63, 25
1, 42552, Note_on_c, 6, 73, 127
1, 42556, Note_off_c, 3, 63, 64
1, 42556, Note_on_c, 3, 62, 25
1, 42564, Note_off_c, 3, 62, 64
1, 42564, Note_on_c, 3, 61, 15
1, 42572, Note_off_c, 3, 61, 64
1, 42572, Note_on_c, 3, 60, 15
1, 42574, Note_off_c, 6, 73, 64
1, 42576, Note_on_c, 9, 42, 50
1, 42576, Note_on_c, 6, 66, 127
1, 42577, Note_off_c, 9, 42, 64
1, 42580, Note_off_c, 3, 60, 64
1, 42580, Note_on_c, 3, 59, 5
1, 42588, Note_off_c, 3, 59, 64
1, 42588, Note_on_c, 3, 58, 1
1, 42596, Note_off_c, 3, 58, 64
1, 42599, Note_off_c, 6, 66, 64
1, 42600, Note_on_c, 6, 71, 127
1, 42616, Note_on_c, 3, 73, 62
1, 42620, Note_off_c, 0, 61, 64
1, 42620, Note_off_c, 0, 56, 64
1, 42620, Note_off_c, 0, 65, 64
1, 42623, Note_off_c, 6, 71, 64
1, 42624, Note_on_c, 9, 42, 110
1, 42624, Note_on_c, 9, 36, 90
1, 42624, Note_on_c, 0, 54, 76
1, 42624, Note_on_c, 0, 59, 78
1, 42624, Note_on_c, 0, 63, 76
1, 42624, Control_c, 6, 6, 66
1, 42624, Note_on_c, 6, 71, 99
1, 42625, Note_off_c, 9, 36, 64
1, 42625, Note_off_c, 9, 42, 64
1, 42638, Note_off_c, 3, 73, 64
1, 42640, Note_on_c, 3, 66, 62
1, 42647, Note_off_c, 6, 71, 64
1, 42648, Note_on_c, 6, 75, 127
1, 42663, Note_off_c, 3, 66, 64
1, 42664, Note_on_c, 3, 71, 62
1, 42671, Note_off_c, 6, 75, 64
1, 42672, Note_on_c, 9, 42, 50
1, 42672, Note_on_c, 1, 35, 127
1, 42672, Note_on_c, 5, 59, 87
1, 42672, Note_on_c, 4, 54, 105
1, 42672, Note_on_c, 4, 47, 96
1, 42672, Note_on_c, 8, 47, 105
1, 42672, Note_on_c, 6, 73, 99
1, 42673, Note_off_c, 9, 42, 64
1, 42687, Note_off_c, 8, 47, 64
1, 42687, Note_off_c, 3, 71, 64
1, 42688, Control_c, 3, 6, 66
1, 42688, Note_on_c, 3, 71, 34
1, 42695, Note_off_c, 6, 73, 64
1, 42696, Note_on_c, 6, 66, 99
1, 42707, Note_off_c, 1, 35, 64
1, 42711, Note_off_c, 3, 71, 64
1, 42712, Note_off_c, 4, 54, 64
1, 42712, Note_off_c, 5, 59, 64
1, 42712, Note_off_c, 4, 47, 64
1, 42712, Note_on_c, 3, 75, 62
1, 42719, Note_off_c, 6, 66, 64
1, 42720, Note_on_c, 9, 42, 110
1, 42720, Note_on_c, 9, 38, 115
1, 42720, Note_on_c, 1, 35, 127
1, 42720, Note_on_c, 5, 59, 85
1, 42720, Note_on_c, 4, 47, 92
1, 42720, Note_on_c, 4, 54, 99
1, 42720, Note_on_c, 8, 47, 103
1, 42720, Note_on_c, 6, 71, 99
1, 42721, Note_off_c, 9, 38, 64
1, 42721, Note_off_c, 9, 42, 64
1, 42735, Note_off_c, 8, 47, 64
1, 42735, Note_off_c, 3, 75, 64
1, 42736, Note_on_c, 3, 73, 34
1, 42737, Note_off_c, 6, 71, 64
1, 42738, Note_on_c, 6, 66, 99
1, 42755, Note_off_c, 1, 35, 64
1, 42756, Note_off_c, 6, 66, 64
1, 42756, Note_on_c, 6, 71, 105
1, 42759, Note_off_c, 3, 73, 64
1, 42760, Note_off_c, 5, 59, 64
1, 42760, Note_off_c, 4, 47, 64
1, 42760, Note_off_c, 4, 54, 64
1, 42760, Note_on_c, 3, 66, 34
1, 42768, Note_on_c, 9, 42, 50
1, 42769, Note_off_c, 9, 42, 64
1, 42770, Note_off_c, 6, 71, 64
1, 42770, Note_on_c, 6, 75, 127
1, 42783, Note_off_c, 3, 66, 64
1, 42784, Note_on_c, 3, 71, 34
1, 42793, Note_off_c, 6, 75, 64
1, 42793, Note_on_c, 6, 73, 110
1, 42798, Note_on_c, 6, 66, 110
1, 42801, Note_off_c, 3, 71, 64
1, 42802, Note_on_c, 3, 66, 34
1, 42813, Note_off_c, 6, 73, 64
1, 42816, Note_on_c, 9, 42, 110
1, 42816, Note_on_c, 9, 36, 90
1, 42816, Note_on_c, 1, 35, 127
1, 42816, Note_on_c, 5, 59, 90
1, 42816, Note_on_c, 4, 54, 104
1, 42816, Note_on_c, 4, 47, 99
1, 42816, Note_on_c, 8, 47, 119
1, 42816, Note_on_c, 6, 71, 105
1, 42817, Note_off_c, 9, 36, 64
1, 42817, Note_off_c, 9, 42, 64
1, 42818, Note_off_c, 6, 66, 64
1, 42820, Note_off_c, 3, 66, 64
1, 42820, Note_on_c, 3, 71, 40
1, 42831, Note_off_c, 8, 47, 64
1, 42834, Note_off_c, 3, 71, 64
1, 42834, Note_on_c, 3, 75, 62
1, 42835, Note_on_c, 6, 75, 127
1, 42836, Note_off_c, 6, 71, 64
1, 42851, Note_off_c, 1, 35, 64
1, 42854, Note_on_c, 6, 73, 110
1, 42855, Note_off_c, 6, 75, 64
1, 42856, Note_off_c, 5, 59, 64
1, 42856, Note_off_c, 4, 54, 64
1, 42856, Note_off_c, 4, 47, 64
1, 42857, Note_off_c, 3, 75, 64
1, 42857, Note_on_c, 3, 73, 45
1, 42862, Note_on_c, 3, 66, 45
1, 42864, Note_on_c, 9, 42, 50
1, 42865, Note_off_c, 9, 42, 64
1, 42873, Note_on_c, 6, 66, 100
1, 42874, Note_off_c, 6, 73, 64
1, 42877, Note_off_c, 3, 73, 64
1, 42880, Note_on_c, 3, 71, 40
1, 42882, Note_off_c, 3, 66, 64
1, 42892, Note_on_c, 6, 71, 110
1, 42893, Note_off_c, 6, 66, 64
1, 42899, Note_on_c, 3, 75, 62
1, 42900, Note_off_c, 3, 71, 64
1, 42911, Note_on_c, 6, 66, 110
1, 42912, Note_off_c, 6, 71, 64
1, 42912, Note_on_c, 9, 42, 110
1, 42912, Note_on_c, 9, 38, 115
1, 42913, Note_off_c, 9, 38, 64
1, 42913, Note_off_c, 9, 42, 64
1, 42913, Note_on_c, 9, 39, 127
1, 42914, Note_off_c, 9, 39, 64
1, 42918, Note_on_c, 3, 73, 45
1, 42919, Note_off_c, 3, 75, 64
1, 42919, Note_on_c, 10, 39, 127
1, 42920, Note_off_c, 10, 39, 64
1, 42930, Note_on_c, 6, 71, 110
1, 42931, Note_off_c, 6, 66, 64
1, 42937, Note_on_c, 3, 66, 35
1, 42938, Note_off_c, 3, 73, 64
1, 42949, Note_on_c, 6, 75, 127
1, 42950, Note_off_c, 6, 71, 64
1, 42956, Note_on_c, 3, 71, 45
1, 42957, Note_off_c, 3, 66, 64
1, 42960, Note_on_c, 9, 42, 50
1, 42960, Note_on_c, 1, 37, 127
1, 42960, Note_on_c, 5, 61, 100
1, 42960, Note_on_c, 4, 49, 102
1, 42960, Note_on_c, 4, 56, 105
1, 42960, Note_on_c, 8, 49, 113
1, 42961, Note_off_c, 9, 42, 64
1, 42968, Note_on_c, 6, 73, 105
1, 42969, Note_off_c, 6, 75, 64
1, 42975, Note_off_c, 8, 49, 64
1, 42975, Note_on_c, 3, 66, 45
1, 42976, Note_off_c, 3, 71, 64
1, 42987, Note_on_c, 6, 66, 108
1, 42988, Note_off_c, 6, 73, 64
1, 42994, Note_on_c, 3, 71, 45
1, 42995, Note_off_c, 1, 37, 64
1, 42995, Note_off_c, 3, 66, 64
1, 43000, Note_off_c, 5, 61, 64
1, 43000, Note_off_c, 4, 49, 64
1, 43000, Note_off_c, 4, 56, 64
1, 43004, Note_off_c, 0, 54, 64
1, 43004, Note_off_c, 0, 59, 64
1, 43004, Note_off_c, 0, 63, 64
1, 43006, Note_on_c, 6, 73, 127
1, 43007, Note_off_c, 6, 66, 64
1, 43008, Note_on_c, 9, 42, 110
1, 43008, Note_on_c, 9, 36, 90
1, 43008, Note_on_c, 1, 37, 127
1, 43008, Note_on_c, 0, 61, 81
1, 43008, Note_on_c, 0, 56, 78
1, 43008, Note_on_c, 0, 65, 72
1, 43008, Note_on_c, 5, 61, 86
1, 43008, Note_on_c, 4, 49, 100
1, 43008, Note_on_c, 4, 56, 101
1, 43008, Note_on_c, 8, 49, 113
1, 43009, Note_off_c, 9, 36, 64
1, 43009, Note_off_c, 9, 42, 64
1, 43013, Note_on_c, 3, 75, 62
1, 43014, Note_off_c, 3, 71, 64
1, 43023, Note_off_c, 8, 49, 64
1, 43025, Note_on_c, 6, 77, 127
1, 43026, Note_off_c, 6, 73, 64
1, 43032, Note_on_c, 3, 73, 40
1, 43033, Note_off_c, 3, 75, 64
1, 43044, Note_on_c, 6, 73, 99
1, 43045, Note_off_c, 6, 77, 64
1, 43048, Note_off_c, 5, 61, 64
1, 43048, Note_off_c, 1, 37, 64
1, 43048, Note_off_c, 4, 49, 64
1, 43048, Note_off_c, 4, 56, 64
1, 43051, Note_on_c, 3, 66, 43
1, 43052, Note_off_c, 3, 73, 64
1, 43056, Note_on_c, 9, 42, 50
1, 43057, Note_off_c, 9, 42, 64
1, 43069, Note_on_c, 6, 80, 127
1, 43070, Note_on_c, 3, 73, 62
1, 43071, Note_off_c, 6, 73, 64
1, 43071, Note_off_c, 3, 66, 64
1, 43082, Note_on_c, 6, 73, 99
1, 43088, Note_off_c, 6, 80, 64
1, 43089, Note_on_c, 3, 77, 62
1, 43090, Note_off_c, 3, 73, 64
1, 43104, Note_on_c, 9, 42, 110
1, 43104, Note_on_c, 9, 38, 115
1, 43104, Note_on_c, 9, 36, 90
1, 43104, Note_on_c, 1, 37, 127
1, 43104, Note_on_c, 5, 61, 103
1, 43104, Note_on_c, 4, 56, 105
1, 43104, Note_on_c, 4, 49, 105
1, 43104, Note_on_c, 8, 49, 121
1, 43105, Note_off_c, 9, 36, 64
1, 43105, Note_off_c, 9, 38, 64
1, 43105, Note_off_c, 9, 42, 64
1, 43107, Note_off_c, 6, 73, 64
1, 43107, Note_on_c, 6, 80, 127
1, 43108, Note_on_c, 3, 73, 34
1, 43109, Note_off_c, 3, 77, 64
1, 43119, Note_off_c, 8, 49, 64
1, 43120, Note_off_c, 6, 80, 64
1, 43120, Note_on_c, 6, 73, 99
1, 43133, Note_on_c, 3, 80, 62
1, 43135, Note_off_c, 3, 73, 64
1, 43139, Note_off_c, 1, 37, 64
1, 43144, Note_off_c, 4, 49, 64
1, 43144, Note_off_c, 4, 56, 64
1, 43144, Note_off_c, 5, 61, 64
1, 43146, Note_on_c, 3, 73, 34
1, 43152, Note_off_c, 3, 80, 64
1, 43152, Note_on_c, 9, 42, 50
1, 43153, Note_off_c, 9, 42, 64
1, 43171, Note_off_c, 3, 73, 64
1, 43171, Note_on_c, 3, 80, 62
1, 43184, Note_off_c, 3, 80, 64
1, 43184, Note_on_c, 3, 73, 34
1, 43184, Note_on_c, 6, 71, 127
1, 43186, Pitch_bend_c, 6, 7810
1, 43191, Pitch_bend_c, 6, 7766
1, 43192, Note_off_c, 6, 71, 64
1, 43192, Note_on_c, 6, 70, 127
1, 43194, Pitch_bend_c, 6, 7661
1, 43197, Pitch_bend_c, 6, 7343
1, 43200, Note_off_c, 6, 70, 64
1, 43200, Note_off_c, 6, 73, 64
1, 43200, Note_on_c, 9, 42, 110
1, 43200, Pitch_bend_c, 6, 7237
1, 43200, Control_c, 6, 6, 55
1, 43200, Note_on_c, 6, 57, 125
1, 43200, Note_on_c, 6, 52, 127
1, 43201, Note_off_c, 9, 42, 64
1, 43201, Control_c, 6, 101, 127
1, 43202, Control_c, 6, 100, 127
1, 43203, Pitch_bend_c, 6, 7026
1, 43205, Pitch_bend_c, 6, 6815
1, 43208, Note_off_c, 6, 57, 64
1, 43208, Note_off_c, 6, 52, 64
1, 43208, Pitch_bend_c, 6, 6710
1, 43208, Note_on_c, 6, 53, 110
1, 43208, Note_on_c, 6, 58, 110
1, 43210, Pitch_bend_c, 6, 6286
1, 43213, Pitch_bend_c, 6, 5970
1, 43215, Pitch_bend_c, 6, 5442
1, 43216, Note_off_c, 6, 58, 64
1, 43216, Note_off_c, 6, 53, 64
1, 43216, Note_on_c, 6, 54, 100
1, 43216, Note_on_c, 6, 59, 110
1, 43217, Pitch_bend_c, 6, 5019
1, 43220, Pitch_bend_c, 6, 4068
1, 43223, Pitch_bend_c, 6, 3962
1, 43224, Note_off_c, 6, 59, 64
1, 43224, Note_off_c, 6, 54, 64
1, 43224, Note_on_c, 6, 55, 90
1, 43224, Note_on_c, 6, 60, 90
1, 43226, Pitch_bend_c, 6, 8192
1, 43232, Note_off_c, 6, 60, 64
1, 43232, Note_off_c, 6, 55, 64
1, 43232, Note_on_c, 6, 61, 90
1, 43232, Note_on_c, 6, 56, 90
1, 43240, Note_off_c, 6, 56, 64
1, 43240, Note_off_c, 6, 61, 64
1, 43240, Note_on_c, 6, 57, 90
1, 43240, Note_on_c, 6, 62, 90
1, 43248, Note_off_c, 6, 62, 64
1, 43248, Note_off_c, 6, 57, 64
1, 43248, Note_on_c, 3, 71, 62
1, 43248, Note_on_c, 9, 42, 50
1, 43248, Note_on_c, 9, 36, 90
1, 43248, Note_on_c, 6, 58, 110
1, 43248, Note_on_c, 6, 63, 110
1, 43249, Note_off_c, 9, 36, 64
1, 43249, Note_off_c, 9, 42, 64
1, 43250, Pitch_bend_c, 3, 7810
1, 43255, Pitch_bend_c, 3, 7766
1, 43256, Note_off_c, 3, 71, 64
1, 43256, Note_on_c, 3, 70, 62
1, 43258, Pitch_bend_c, 3, 7661
1, 43261, Pitch_bend_c, 3, 7343
1, 43264, Note_off_c, 3, 70, 64
1, 43264, Note_off_c, 3, 73, 64
1, 43264, Pitch_bend_c, 3, 7237
1, 43264, Control_c, 3, 6, 55
1, 43264, Note_on_c, 3, 57, 60
1, 43264, Note_on_c, 3, 52, 62
1, 43265, Control_c, 3, 101, 127
1, 43266, Control_c, 3, 100, 127
1, 43267, Pitch_bend_c, 3, 7026
1, 43269, Pitch_bend_c, 3, 6815
1, 43272, Note_off_c, 3, 52, 64
1, 43272, Note_off_c, 3, 57, 64
1, 43272, Pitch_bend_c, 3, 6710
1, 43272, Note_on_c, 3, 53, 45
1, 43272, Note_on_c, 3, 58, 45
1, 43274, Pitch_bend_c, 3, 6286
1, 43277, Pitch_bend_c, 3, 5970
1, 43279, Pitch_bend_c, 3, 5442
1, 43280, Note_off_c, 3, 58, 64
1, 43280, Note_off_c, 3, 53, 64
1, 43280, Note_on_c, 3, 54, 35
1, 43280, Note_on_c, 3, 59, 45
1, 43281, Pitch_bend_c, 3, 5019
1, 43284, Pitch_bend_c, 3, 4068
1, 43287, Pitch_bend_c, 3, 3962
1, 43288, Note_off_c, 3, 59, 64
1, 43288, Note_off_c, 3, 54, 64
1, 43288, Note_on_c, 3, 55, 25
1, 43288, Note_on_c, 3, 60, 25
1, 43290, Pitch_bend_c, 3, 8192
1, 43295, Note_off_c, 6, 63, 64
1, 43295, Note_off_c, 6, 58, 64
1, 43296, Note_off_c, 3, 60, 64
1, 43296, Note_off_c, 3, 55, 64
1, 43296, Note_on_c, 3, 61, 25
1, 43296, Note_on_c, 3, 56, 25
1, 43296, Note_on_c, 9, 42, 110
1, 43296, Note_on_c, 9, 38, 115
1, 43297, Note_off_c, 9, 38, 64
1, 43297, Note_off_c, 9, 42, 64
1, 43297, Note_on_c, 9, 39, 127
1, 43298, Note_off_c, 9, 39, 64
1, 43299, Note_on_c, 6, 73, 127
1, 43303, Note_on_c, 10, 39, 127
1, 43304, Note_off_c, 10, 39, 64
1, 43304, Note_off_c, 3, 56, 64
1, 43304, Note_off_c, 3, 61, 64
1, 43304, Note_on_c, 3, 57, 25
1, 43304, Note_on_c, 3, 62, 25
1, 43312, Note_off_c, 3, 62, 64
1, 43312, Note_off_c, 3, 57, 64
1, 43312, Note_on_c, 3, 58, 45
1, 43312, Note_on_c, 3, 63, 45
1, 43314, Pitch_bend_c, 6, 8246
1, 43316, Pitch_bend_c, 6, 8573
1, 43321, Pitch_bend_c, 6, 8682
1, 43323, Pitch_bend_c, 6, 9010
1, 43326, Pitch_bend_c, 6, 9173
1, 43328, Pitch_bend_c, 6, 9609
1, 43331, Pitch_bend_c, 6, 9882
1, 43335, Pitch_bend_c, 6, 10100
1, 43338, Pitch_bend_c, 6, 10535
1, 43340, Pitch_bend_c, 6, 10809
1, 43342, Pitch_bend_c, 6, 11135
1, 43344, Note_on_c, 9, 42, 50
1, 43345, Note_off_c, 9, 42, 64
1, 43345, Pitch_bend_c, 6, 11353
1, 43347, Pitch_bend_c, 6, 11516
1, 43350, Pitch_bend_c, 6, 11844
1, 43352, Pitch_bend_c, 6, 12062
1, 43354, Pitch_bend_c, 6, 12443
1, 43357, Pitch_bend_c, 6, 12661
1, 43359, Note_off_c, 3, 63, 64
1, 43359, Note_off_c, 3, 58, 64
1, 43360, Pitch_bend_c, 6, 12989
1, 43362, Pitch_bend_c, 6, 13479
1, 43363, Note_on_c, 3, 73, 62
1, 43367, Pitch_bend_c, 6, 13370
1, 43370, Pitch_bend_c, 6, 11516
1, 43372, Pitch_bend_c, 6, 11026
1, 43375, Pitch_bend_c, 6, 10917
1, 43377, Pitch_bend_c, 6, 10809
1, 43378, Pitch_bend_c, 3, 8246
1, 43380, Pitch_bend_c, 3, 8573
1, 43380, Pitch_bend_c, 6, 10535
1, 43382, Pitch_bend_c, 6, 9719
1, 43385, Pitch_bend_c, 3, 8682
1, 43387, Pitch_bend_c, 3, 9010
1, 43388, Note_off_c, 0, 56, 64
1, 43388, Note_off_c, 0, 61, 64
1, 43388, Note_off_c, 0, 65, 64
1, 43390, Pitch_bend_c, 3, 9173
1, 43392, Pitch_bend_c, 3, 9609
1, 43392, Note_on_c, 9, 42, 110
1, 43392, Note_on_c, 9, 36, 90
1, 43392, Note_on_c, 0, 63, 73
1, 43392, Note_on_c, 0, 58, 75
1, 43392, Note_on_c, 0, 66, 76
1, 43392, Pitch_bend_c, 6, 9827
1, 43393, Note_off_c, 9, 36, 64
1, 43393, Note_off_c, 9, 42, 64
1, 43394, Pitch_bend_c, 6, 10809
1, 43395, Pitch_bend_c, 3, 9882
1, 43396, Pitch_bend_c, 6, 11625
1, 43399, Pitch_bend_c, 3, 10100
1, 43399, Pitch_bend_c, 6, 12171
1, 43401, Pitch_bend_c, 6, 13952
1, 43402, Pitch_bend_c, 3, 10535
1, 43403, Pitch_bend_c, 6, 15232
1, 43404, Pitch_bend_c, 3, 10809
1, 43406, Pitch_bend_c, 3, 11135
1, 43406, Pitch_bend_c, 6, 16320
1, 43409, Pitch_bend_c, 3, 11353
1, 43411, Pitch_bend_c, 3, 11516
1, 43413, Pitch_bend_c, 6, 15232
1, 43414, Pitch_bend_c, 3, 11844
1, 43415, Pitch_bend_c, 6, 14592
1, 43416, Pitch_bend_c, 3, 12062
1, 43418, Pitch_bend_c, 3, 12443
1, 43418, Pitch_bend_c, 6, 13312
1, 43420, Pitch_bend_c, 6, 12032
1, 43421, Pitch_bend_c, 3, 12661
1, 43424, Pitch_bend_c, 3, 12989
1, 43425, Pitch_bend_c, 6, 10644
1, 43426, Pitch_bend_c, 3, 13479
1, 43427, Pitch_bend_c, 6, 12032
1, 43430, Pitch_bend_c, 6, 13312
1, 43431, Pitch_bend_c, 3, 13370
1, 43432, Pitch_bend_c, 6, 15232
1, 43434, Pitch_bend_c, 3, 11516
1, 43435, Pitch_bend_c, 6, 16320
1, 43436, Pitch_bend_c, 3, 11026
1, 43438, Pitch_bend_c, 6, 13312
1, 43439, Pitch_bend_c, 3, 10917
1, 43440, Note_on_c, 9, 42, 50
1, 43440, Note_on_c, 1, 39, 127
1, 43440, Note_on_c, 5, 63, 102
1, 43440, Note_on_c, 4, 58, 105
1, 43440, Note_on_c, 4, 51, 103
1, 43440, Note_on_c, 8, 51, 117
1, 43441, Note_off_c, 9, 42, 64
1, 43441, Pitch_bend_c, 3, 10809
1, 43444, Pitch_bend_c, 3, 10535
1, 43445, Pitch_bend_c, 6, 12280
1, 43446, Pitch_bend_c, 3, 9719
1, 43448, Pitch_bend_c, 6, 11244
1, 43450, Pitch_bend_c, 6, 11026
1, 43452, Pitch_bend_c, 6, 10917
1, 43455, Note_off_c, 8, 51, 64
1, 43455, Pitch_bend_c, 6, 11244
1, 43456, Pitch_bend_c, 3, 9827
1, 43457, Pitch_bend_c, 6, 11844
1, 43458, Pitch_bend_c, 3, 10809
1, 43460, Pitch_bend_c, 3, 11625
1, 43460, Pitch_bend_c, 6, 12443
1, 43462, Pitch_bend_c, 6, 12552
1, 43463, Pitch_bend_c, 3, 12171
1, 43464, Pitch_bend_c, 6, 12661
1, 43465, Pitch_bend_c, 3, 13952
1, 43467, Pitch_bend_c, 3, 15232
1, 43467, Pitch_bend_c, 6, 13652
1, 43469, Pitch_bend_c, 6, 13522
1, 43470, Pitch_bend_c, 3, 16320
1, 43471, Pitch_bend_c, 6, 11442
1, 43474, Pitch_bend_c, 6, 7684
1, 43475, Note_off_c, 1, 39, 64
1, 43476, Pitch_bend_c, 6, 8192
1, 43477, Pitch_bend_c, 3, 15232
1, 43479, Pitch_bend_c, 3, 14592
1, 43480, Note_off_c, 5, 63, 64
1, 43480, Note_off_c, 4, 58, 64
1, 43480, Note_off_c, 4, 51, 64
1, 43482, Pitch_bend_c, 3, 13312
1, 43484, Pitch_bend_c, 3, 12032
1, 43486, Note_off_c, 6, 73, 64
1, 43488, Note_on_c, 9, 42, 110
1, 43488, Note_on_c, 9, 38, 115
1, 43488, Note_on_c, 1, 39, 127
1, 43488, Note_on_c, 5, 63, 95
1, 43488, Note_on_c, 4, 58, 101
1, 43488, Note_on_c, 4, 51, 101
1, 43488, Note_on_c, 8, 51, 117
1, 43488, Note_on_c, 6, 75, 127
1, 43489, Note_off_c, 9, 38, 64
1, 43489, Note_off_c, 9, 42, 64
1, 43489, Pitch_bend_c, 3, 10644
1, 43491, Pitch_bend_c, 3, 12032
1, 43494, Pitch_bend_c, 3, 13312
1, 43496, Pitch_bend_c, 3, 15232
1, 43499, Note_off_c, 6, 75, 64
1, 43499, Pitch_bend_c, 3, 16320
1, 43502, Pitch_bend_c, 3, 13312
1, 43503, Note_off_c, 8, 51, 64
1, 43504, Note_on_c, 6, 75, 110
1, 43509, Pitch_bend_c, 3, 12280
1, 43512, Pitch_bend_c, 3, 11244
1, 43514, Pitch_bend_c, 3, 11026
1, 43516, Pitch_bend_c, 3, 10917
1, 43519, Note_off_c, 6, 75, 64
1, 43519, Pitch_bend_c, 3, 11244
1, 43520, Note_on_c, 6, 75, 110
1, 43521, Pitch_bend_c, 3, 11844
1, 43524, Pitch_bend_c, 3, 12443
1, 43526, Pitch_bend_c, 3, 12552
1, 43528, Note_off_c, 5, 63, 64
1, 43528, Note_off_c, 1, 39, 64
1, 43528, Note_off_c, 4, 51, 64
1, 43528, Note_off_c, 4, 58, 64
1, 43528, Pitch_bend_c, 3, 12661
1, 43531, Pitch_bend_c, 3, 13652
1, 43533, Pitch_bend_c, 3, 13522
1, 43535, Note_off_c, 6, 75, 64
1, 43535, Pitch_bend_c, 3, 11442
1, 43536, Note_on_c, 9, 42, 50
1, 43536, Note_on_c, 6, 77, 127
1, 43537, Note_off_c, 9, 42, 64
1, 43538, Pitch_bend_c, 3, 7684
1, 43540, Pitch_bend_c, 3, 8192
1, 43550, Note_off_c, 3, 73, 64
1, 43551, Note_off_c, 6, 77, 64
1, 43552, Note_on_c, 3, 75, 62
1, 43552, Note_on_c, 6, 77, 127
1, 43563, Note_off_c, 3, 75, 64
1, 43567, Note_off_c, 6, 77, 64
1, 43572, Note_on_c, 6, 77, 127
1, 43576, Note_on_c, 3, 75, 45
1, 43584, Note_on_c, 9, 42, 110
1, 43584, Note_on_c, 9, 36, 90
1, 43584, Note_on_c, 1, 39, 127
1, 43584, Note_on_c, 5, 63, 102
1, 43584, Note_on_c, 4, 58, 104
1, 43584, Note_on_c, 4, 51, 104
1, 43584, Note_on_c, 8, 51, 125
1, 43584, Note_on_c, 6, 78, 127
1, 43585, Note_off_c, 9, 36, 64
1, 43585, Note_off_c, 9, 42, 64
1, 43587, Note_off_c, 6, 77, 64
1, 43587, Note_off_c, 3, 75, 64
1, 43588, Note_on_c, 3, 75, 45
1, 43599, Note_off_c, 6, 78, 64
1, 43599, Note_off_c, 8, 51, 64
1, 43599, Note_off_c, 3, 75, 64
1, 43600, Note_on_c, 3, 77, 62
1, 43600, Note_on_c, 6, 78, 127
1, 43611, Note_off_c, 3, 77, 64
1, 43612, Note_on_c, 3, 77, 62
1, 43615, Note_off_c, 6, 78, 64
1, 43616, Note_on_c, 6, 78, 127
1, 43623, Note_off_c, 3, 77, 64
1, 43624, Note_off_c, 4, 58, 64
1, 43624, Note_off_c, 5, 63, 64
1, 43624, Note_off_c, 4, 51, 64
1, 43624, Note_on_c, 3, 77, 62
1, 43626, Note_off_c, 1, 39, 64
1, 43631, Note_off_c, 6, 78, 64
1, 43632, Note_on_c, 9, 42, 50
1, 43632, Note_on_c, 6, 78, 127
1, 43633, Note_off_c, 9, 42, 64
1, 43635, Note_off_c, 3, 77, 64
1, 43636, Note_on_c, 3, 77, 62
1, 43647, Note_off_c, 6, 78, 64
1, 43647, Note_off_c, 3, 77, 64
1, 43648, Note_on_c, 3, 78, 62
1, 43648, Note_on_c, 6, 78, 127
1, 43663, Note_off_c, 6, 78, 64
1, 43663, Note_off_c, 3, 78, 64
1, 43664, Note_on_c, 3, 78, 62
1, 43664, Note_on_c, 6, 78, 127
1, 43679, Note_off_c, 6, 78, 64
1, 43679, Note_off_c, 3, 78, 64
1, 43680, Note_on_c, 3, 78, 62
1, 43680, Note_on_c, 9, 42, 110
1, 43680, Note_on_c, 9, 38, 115
1, 43680, Note_on_c, 6, 78, 127
1, 43681, Note_off_c, 9, 38, 64
1, 43681, Note_off_c, 9, 42, 64
1, 43681, Note_on_c, 9, 39, 127
1, 43682, Note_off_c, 9, 39, 64
1, 43687, Note_on_c, 10, 39, 127
1, 43688, Note_off_c, 10, 39, 64
1, 43695, Note_off_c, 6, 78, 64
1, 43695, Note_off_c, 3, 78, 64
1, 43696, Note_on_c, 3, 78, 62
1, 43696, Note_on_c, 6, 78, 127
1, 43711, Note_off_c, 6, 78, 64
1, 43711, Note_off_c, 3, 78, 64
1, 43712, Note_on_c, 3, 78, 62
1, 43712, Note_on_c, 6, 78, 127
1, 43727, Note_off_c, 6, 78, 64
1, 43727, Note_off_c, 3, 78, 64
1, 43728, Note_on_c, 3, 78, 62
1, 43728, Note_on_c, 9, 42, 50
1, 43728, Note_on_c, 1, 37, 127
1, 43728, Note_on_c, 5, 61, 100
1, 43728, Note_on_c, 4, 56, 105
1, 43728, Note_on_c, 4, 49, 100
1, 43728, Note_on_c, 8, 49, 117
1, 43728, Note_on_c, 6, 80, 127
1, 43729, Note_off_c, 9, 42, 64
1, 43743, Note_off_c, 8, 49, 64
1, 43743, Note_off_c, 6, 80, 64
1, 43743, Note_off_c, 3, 78, 64
1, 43744, Note_on_c, 3, 78, 62
1, 43744, Note_on_c, 6, 80, 127
1, 43759, Note_off_c, 6, 80, 64
1, 43759, Note_off_c, 3, 78, 64
1, 43760, Note_on_c, 3, 78, 62
1, 43760, Note_on_c, 6, 80, 127
1, 43763, Note_off_c, 1, 37, 64
1, 43768, Note_off_c, 4, 56, 64
1, 43768, Note_off_c, 5, 61, 64
1, 43768, Note_off_c, 4, 49, 64
1, 43772, Note_off_c, 0, 66, 64
1, 43772, Note_off_c, 0, 58, 64
1, 43772, Note_off_c, 0, 63, 64
1, 43775, Note_off_c, 6, 80, 64
1, 43775, Note_off_c, 3, 78, 64
1, 43776, Note_on_c, 3, 78, 62
1, 43776, Note_on_c, 9, 42, 110
1, 43776, Note_on_c, 9, 36, 90
1, 43776, Note_on_c, 1, 37, 127
1, 43776, Note_on_c, 0, 56, 78
1, 43776, Note_on_c, 0, 61, 78
1, 43776, Note_on_c, 0, 65, 73
1, 43776, Note_on_c, 5, 61, 82
1, 43776, Note_on_c, 4, 56, 97
1, 43776, Note_on_c, 4, 49, 98
1, 43776, Note_on_c, 8, 49, 109
1, 43776, Note_on_c, 6, 80, 127
1, 43777, Note_off_c, 9, 36, 64
1, 43777, Note_off_c, 9, 42, 64
1, 43791, Note_off_c, 6, 80, 64
1, 43791, Note_off_c, 8, 49, 64
1, 43791, Note_off_c, 3, 78, 64
1, 43792, Note_on_c, 3, 80, 62
1, 43792, Note_on_c, 6, 80, 127
1, 43807, Note_off_c, 6, 80, 64
1, 43807, Note_off_c, 3, 80, 64
1, 43808, Note_on_c, 3, 80, 62
1, 43808, Note_on_c, 6, 80, 127
1, 43816, Note_off_c, 5, 61, 64
1, 43816, Note_off_c, 1, 37, 64
1, 43816, Note_off_c, 4, 49, 64
1, 43816, Note_off_c, 4, 56, 64
1, 43823, Note_off_c, 6, 80, 64
1, 43823, Note_off_c, 3, 80, 64
1, 43823, Pitch_bend_c, 8, 8192
1, 43824, Note_on_c, 3, 80, 62
1, 43824, Note_on_c, 9, 42, 50
1, 43824, Note_on_c, 6, 80, 127
1, 43825, Note_off_c, 9, 42, 64
1, 43839, Note_off_c, 6, 80, 64
1, 43839, Note_off_c, 3, 80, 64
1, 43840, Note_on_c, 6, 80, 127
1, 43855, Note_off_c, 6, 80, 64
1, 43856, Note_on_c, 6, 80, 127
1, 43871, Note_off_c, 6, 80, 64
1, 43872, Note_on_c, 9, 42, 110
1, 43872, Note_on_c, 9, 38, 115
1, 43872, Note_on_c, 9, 36, 90
1, 43872, Note_on_c, 1, 37, 127
1, 43872, Note_on_c, 5, 61, 100
1, 43872, Note_on_c, 4, 56, 101
1, 43872, Note_on_c, 4, 49, 100
1, 43872, Note_on_c, 8, 49, 126
1, 43872, Note_on_c, 6, 82, 127
1, 43873, Note_off_c, 9, 36, 64
1, 43873, Note_off_c, 9, 38, 64
1, 43873, Note_off_c, 9, 42, 64
1, 43887, Note_off_c, 6, 82, 64
1, 43887, Note_off_c, 8, 49, 64
1, 43888, Note_on_c, 6, 82, 127
1, 43903, Note_off_c, 6, 82, 64
1, 43904, Note_on_c, 6, 82, 127
1, 43912, Note_off_c, 4, 56, 64
1, 43912, Note_off_c, 5, 61, 64
1, 43912, Note_off_c, 4, 49, 64
1, 43914, Note_off_c, 1, 37, 64
1, 43919, Note_off_c, 6, 82, 64
1, 43920, Note_on_c, 9, 42, 50
1, 43920, Note_on_c, 6, 82, 127
1, 43921, Note_off_c, 9, 42, 64
1, 43935, Note_off_c, 6, 82, 64
1, 43936, Note_on_c, 6, 82, 127
1, 43951, Note_off_c, 6, 82, 64
1, 43952, Note_on_c, 6, 82, 127
1, 43967, Note_off_c, 6, 82, 64
1, 43968, Note_on_c, 9, 42, 110
1, 43968, Note_on_c, 6, 82, 127
1, 43969, Note_off_c, 9, 42, 64
1, 43983, Note_off_c, 6, 82, 64
1, 43984, Note_on_c, 6, 82, 127
1, 43999, Note_off_c, 6, 82, 64
1, 44000, Note_on_c, 6, 82, 127
1, 44015, Note_off_c, 6, 82, 64
1, 44016, Note_on_c, 9, 42, 50
1, 44016, Note_on_c, 9, 36, 90
1, 44016, Note_on_c, 6, 82, 127
1, 44017, Note_off_c, 9, 36, 64
1, 44017, Note_off_c, 9, 42, 64
1, 44031, Note_off_c, 6, 82, 64
1, 44032, Note_on_c, 6, 82, 127
1, 44047, Note_off_c, 6, 82, 64
1, 44048, Note_on_c, 6, 82, 127
1, 44063, Note_off_c, 6, 82, 64
1, 44064, Note_on_c, 9, 42, 110
1, 44064, Note_on_c, 9, 38, 115
1, 44064, Note_on_c, 6, 83, 127
1, 44065, Note_off_c, 9, 38, 64
1, 44065, Note_off_c, 9, 42, 64
1, 44065, Note_on_c, 9, 39, 127
1, 44066, Note_off_c, 9, 39, 64
1, 44071, Note_on_c, 10, 39, 127
1, 44072, Note_off_c, 10, 39, 64
1, 44079, Note_off_c, 6, 83, 64
1, 44080, Note_on_c, 6, 83, 127
1, 44095, Note_off_c, 6, 83, 64
1, 44096, Note_on_c, 6, 84, 127
1, 44109, Pitch_bend_c, 5, 6077
1, 44110, Note_on_c, 5, 39, 114
1, 44111, Note_off_c, 6, 84, 64
1, 44111, Pitch_bend_c, 4, 6272
1, 44112, Note_on_c, 9, 55, 120
1, 44112, Note_on_c, 9, 36, 90
1, 44112, Note_on_c, 1, 27, 127
1, 44112, Note_on_c, 4, 39, 114
1, 44112, Note_on_c, 8, 39, 90
1, 44112, Note_on_c, 6, 84, 127
1, 44113, Note_off_c, 9, 36, 64
1, 44113, Note_off_c, 9, 55, 64
1, 44113, Pitch_bend_c, 5, 6288
1, 44115, Pitch_bend_c, 4, 6464
1, 44117, Pitch_bend_c, 5, 6429
1, 44119, Pitch_bend_c, 4, 6592
1, 44121, Pitch_bend_c, 5, 6641
1, 44123, Pitch_bend_c, 4, 6784
1, 44125, Pitch_bend_c, 5, 6782
1, 44127, Note_off_c, 6, 84, 64
1, 44127, Pitch_bend_c, 4, 6912
1, 44128, Note_on_c, 6, 85, 127
1, 44129, Pitch_bend_c, 5, 7134
1, 44131, Pitch_bend_c, 4, 7232
1, 44132, Pitch_bend_c, 5, 7628
1, 44134, Pitch_bend_c, 4, 7680
1, 44136, Pitch_bend_c, 5, 7855
1, 44138, Pitch_bend_c, 4, 7886
1, 44140, Pitch_bend_c, 14, 7054
1, 44140, Pitch_bend_c, 5, 8192
1, 44142, Pitch_bend_c, 4, 8192
1, 44143, Note_off_c, 6, 85, 64
1, 44144, Pitch_bend_c, 14, 6046
1, 44144, Note_on_c, 6, 85, 127
1, 44145, Pitch_bend_c, 15, 7810
1, 44145, Control_c, 3, 0, 0
1, 44146, Control_c, 3, 32, 0
1, 44147, Program_c, 3, 87
1, 44148, Control_c, 3, 10, 64
1, 44149, Pitch_bend_c, 3, 8192
1, 44149, Pitch_bend_c, 14, 5038
1, 44150, Control_c, 3, 5, 10
1, 44150, Pitch_bend_c, 15, 4534
1, 44151, Control_c, 3, 99, 1
1, 44152, Control_c, 3, 98, 99
1, 44153, Control_c, 3, 6, 64
1, 44154, Control_c, 3, 101, 127
1, 44154, Pitch_bend_c, 14, 4156
1, 44155, Control_c, 3, 100, 127
1, 44155, Pitch_bend_c, 15, 2770
1, 44156, Note_off_c, 0, 56, 64
1, 44156, Note_off_c, 0, 65, 64
1, 44156, Note_off_c, 0, 61, 64
1, 44159, Note_off_c, 6, 85, 64
1, 44159, Pitch_bend_c, 3, 1510
1, 44159, Note_on_c, 14, 70, 111
1, 44160, Pitch_bend_c, 15, 1636
1, 44160, Note_on_c, 15, 70, 102
1, 44160, Note_on_c, 9, 42, 110
1, 44160, Note_on_c, 9, 36, 90
1, 44160, Note_on_c, 0, 63, 78
1, 44160, Note_on_c, 0, 58, 76
1, 44160, Note_on_c, 0, 66, 69
1, 44160, Note_on_c, 11, 78, 64
1, 44160, Note_on_c, 11, 82, 64
1, 44160, Note_on_c, 2, 70, 94
1, 44160, Note_on_c, 6, 86, 127
1, 44160, Control_c, 6, 11, 115
1, 44161, Note_off_c, 9, 36, 64
1, 44161, Note_off_c, 9, 42, 64
1, 44161, Note_on_c, 3, 70, 108
1, 44161, Note_on_c, 2, 66, 94
1, 44167, Pitch_bend_c, 14, 5416
1, 44171, Pitch_bend_c, 15, 1888
1, 44172, Pitch_bend_c, 3, 2266
1, 44172, Pitch_bend_c, 14, 7180
1, 44175, Note_off_c, 6, 86, 64
1, 44176, Pitch_bend_c, 15, 3148
1, 44176, Note_on_c, 6, 86, 127
1, 44177, Pitch_bend_c, 3, 4156
1, 44178, Pitch_bend_c, 14, 8192
1, 44182, Pitch_bend_c, 3, 6424
1, 44182, Pitch_bend_c, 15, 5038
1, 44187, Pitch_bend_c, 3, 8192
1, 44187, Pitch_bend_c, 15, 8192
1, 44191, Note_off_c, 6, 86, 64
1, 44191, Note_off_c, 14, 70, 64
1, 44192, Note_on_c, 6, 87, 127
1, 44200, Note_off_c, 15, 70, 64
1, 44200, Note_off_c, 3, 70, 64
1, 44202, Note_off_c, 8, 39, 64
1, 44204, Note_off_c, 5, 39, 64
1, 44206, Note_off_c, 1, 27, 64
1, 44206, Note_off_c, 4, 39, 64
1, 44206, Note_on_c, 5, 42, 114
1, 44207, Note_off_c, 6, 87, 64
1, 44208, Note_on_c, 14, 70, 110
1, 44208, Note_on_c, 9, 42, 50
1, 44208, Note_on_c, 1, 30, 127
1, 44208, Note_on_c, 4, 42, 114
1, 44208, Note_on_c, 8, 42, 107
1, 44208, Note_on_c, 6, 87, 127
1, 44209, Note_off_c, 9, 42, 64
1, 44210, Note_on_c, 15, 70, 99
1, 44213, Note_on_c, 3, 70, 101
1, 44228, Note_off_c, 6, 87, 64
1, 44232, Note_on_c, 6, 87, 127
1, 44243, Note_off_c, 6, 87, 64
1, 44244, Note_on_c, 6, 87, 127
1, 44250, Control_c, 3, 1, 10
1, 44253, Note_off_c, 5, 42, 64
1, 44254, Note_on_c, 5, 46, 114
1, 44255, Note_off_c, 4, 42, 64
1, 44255, Note_off_c, 1, 30, 64
1, 44255, Note_off_c, 8, 42, 64
1, 44255, Note_off_c, 6, 87, 64
1, 44255, Control_c, 3, 1, 97
1, 44256, Note_on_c, 9, 42, 110
1, 44256, Note_on_c, 9, 38, 115
1, 44256, Note_on_c, 1, 34, 127
1, 44256, Note_on_c, 4, 46, 114
1, 44256, Note_on_c, 8, 46, 107
1, 44256, Note_on_c, 6, 87, 127
1, 44257, Note_off_c, 9, 38, 64
1, 44257, Note_off_c, 9, 42, 64
1, 44267, Note_off_c, 6, 87, 64
1, 44268, Note_on_c, 6, 87, 127
1, 44279, Note_off_c, 6, 87, 64
1, 44279, Control_c, 3, 1, 105
1, 44280, Note_on_c, 6, 87, 127
1, 44289, Control_c, 3, 1, 108
1, 44291, Note_off_c, 6, 87, 64
1, 44292, Note_on_c, 6, 87, 127
1, 44300, Control_c, 3, 1, 110
1, 44301, Note_off_c, 5, 46, 64
1, 44302, Note_on_c, 5, 54, 114
1, 44303, Note_off_c, 1, 34, 64
1, 44303, Note_off_c, 4, 46, 64
1, 44303, Note_off_c, 8, 46, 64
1, 44303, Note_off_c, 6, 87, 64
1, 44304, Note_on_c, 9, 42, 50
1, 44304, Note_on_c, 1, 42, 127
1, 44304, Note_on_c, 4, 54, 114
1, 44304, Note_on_c, 8, 54, 107
1, 44304, Note_on_c, 6, 87, 120
1, 44305, Note_off_c, 9, 42, 64
1, 44315, Note_off_c, 6, 87, 64
1, 44316, Note_on_c, 6, 87, 120
1, 44327, Note_off_c, 6, 87, 64
1, 44328, Note_on_c, 6, 87, 120
1, 44332, Control_c, 3, 1, 106
1, 44335, Note_off_c, 14, 70, 64
1, 44337, Control_c, 3, 1, 87
1, 44339, Note_off_c, 6, 87, 64
1, 44340, Note_on_c, 6, 87, 120
1, 44342, Control_c, 3, 1, 31
1, 44343, Note_off_c, 15, 70, 64
1, 44344, Note_off_c, 3, 70, 64
1, 44346, Pitch_bend_c, 14, 4786
1, 44347, Control_c, 3, 1, 0
1, 44349, Note_off_c, 5, 54, 64
1, 44350, Pitch_bend_c, 15, 5668
1, 44350, Note_on_c, 5, 51, 114
1, 44351, Note_off_c, 4, 54, 64
1, 44351, Note_off_c, 1, 42, 64
1, 44351, Note_off_c, 8, 54, 64
1, 44351, Note_off_c, 6, 87, 64
1, 44351, Pitch_bend_c, 14, 3526
1, 44352, Note_on_c, 9, 42, 110
1, 44352, Note_on_c, 9, 36, 90
1, 44352, Note_on_c, 1, 39, 127
1, 44352, Note_on_c, 4, 51, 114
1, 44352, Note_on_c, 8, 51, 107
1, 44352, Note_on_c, 6, 87, 120
1, 44353, Note_off_c, 9, 36, 64
1, 44353, Note_off_c, 9, 42, 64
1, 44353, Note_on_c, 14, 66, 111
1, 44353, Note_on_c, 15, 63, 102
1, 44358, Pitch_bend_c, 15, 2392
1, 44363, Note_off_c, 6, 87, 64
1, 44363, Pitch_bend_c, 14, 6928
1, 44363, Pitch_bend_c, 5, 8249
1, 44364, Pitch_bend_c, 15, 2140
1, 44364, Note_on_c, 6, 87, 120
1, 44365, Pitch_bend_c, 4, 8244
1, 44367, Pitch_bend_c, 5, 8708
1, 44368, Pitch_bend_c, 14, 8192
1, 44369, Pitch_bend_c, 15, 6550
1, 44369, Pitch_bend_c, 4, 8660
1, 44374, Pitch_bend_c, 5, 8364
1, 44375, Note_off_c, 6, 87, 64
1, 44375, Pitch_bend_c, 15, 8192
1, 44376, Pitch_bend_c, 4, 8348
1, 44376, Note_on_c, 6, 87, 120
1, 44378, Pitch_bend_c, 5, 8192
1, 44380, Pitch_bend_c, 4, 8192
1, 44387, Note_off_c, 6, 87, 64
1, 44388, Note_off_c, 15, 63, 64
1, 44388, Note_off_c, 14, 66, 64
1, 44388, Note_on_c, 6, 87, 120
1, 44394, Pitch_bend_c, 5, 8249
1, 44396, Pitch_bend_c, 4, 8244
1, 44398, Pitch_bend_c, 5, 8478
1, 44399, Note_off_c, 6, 87, 64
1, 44400, Note_on_c, 9, 42, 50
1, 44400, Pitch_bend_c, 4, 8452
1, 44400, Note_on_c, 6, 87, 120
1, 44401, Note_off_c, 9, 42, 64
1, 44401, Note_on_c, 15, 63, 98
1, 44401, Pitch_bend_c, 5, 8708
1, 44402, Note_on_c, 14, 66, 110
1, 44403, Pitch_bend_c, 4, 8660
1, 44409, Pitch_bend_c, 5, 8593
1, 44411, Pitch_bend_c, 4, 8556
1, 44413, Pitch_bend_c, 5, 8192
1, 44415, Pitch_bend_c, 4, 8192
1, 44425, Pitch_bend_c, 5, 8249
1, 44427, Pitch_bend_c, 4, 8244
1, 44429, Pitch_bend_c, 5, 8823
1, 44431, Pitch_bend_c, 4, 8765
1, 44433, Pitch_bend_c, 5, 9052
1, 44435, Pitch_bend_c, 4, 8973
1, 44440, Pitch_bend_c, 5, 8364
1, 44442, Pitch_bend_c, 4, 8348
1, 44445, Pitch_bend_c, 5, 8192
1, 44447, Pitch_bend_c, 4, 8192
1, 44448, Note_on_c, 9, 42, 110
1, 44448, Note_on_c, 9, 38, 115
1, 44449, Note_off_c, 9, 38, 64
1, 44449, Note_off_c, 9, 42, 64
1, 44449, Note_on_c, 9, 39, 127
1, 44450, Note_off_c, 9, 39, 64
1, 44452, Pitch_bend_c, 5, 8593
1, 44454, Pitch_bend_c, 4, 8556
1, 44455, Note_on_c, 10, 39, 127
1, 44456, Note_off_c, 10, 39, 64
1, 44456, Pitch_bend_c, 5, 9453
1, 44458, Pitch_bend_c, 4, 9337
1, 44460, Pitch_bend_c, 5, 9797
1, 44462, Pitch_bend_c, 4, 9649
1, 44468, Pitch_bend_c, 5, 9110
1, 44470, Pitch_bend_c, 4, 9025
1, 44472, Pitch_bend_c, 5, 8192
1, 44474, Pitch_bend_c, 4, 8192
1, 44491, Note_off_c, 5, 51, 64
1, 44493, Note_off_c, 1, 39, 64
1, 44493, Note_off_c, 4, 51, 64
1, 44493, Note_off_c, 8, 51, 64
1, 44493, Note_on_c, 5, 51, 114
1, 44495, Note_on_c, 1, 39, 127
1, 44495, Note_on_c, 4, 51, 114
1, 44495, Note_on_c, 8, 51, 107
1, 44495, Pitch_bend_c, 6, 8517
1, 44496, Note_on_c, 9, 42, 50
1, 44497, Note_off_c, 9, 42, 64
1, 44498, Pitch_bend_c, 1, 12288
1, 44498, Pitch_bend_c, 5, 12704
1, 44498, Pitch_bend_c, 5, 10307
1, 44498, Pitch_bend_c, 8, 12288
1, 44500, Pitch_bend_c, 4, 10112
1, 44501, Pitch_bend_c, 1, 16320
1, 44501, Pitch_bend_c, 8, 16320
1, 44505, Pitch_bend_c, 5, 14890
1, 44505, Pitch_bend_c, 6, 7810
1, 44507, Pitch_bend_c, 5, 16383
1, 44507, Pitch_bend_c, 4, 14272
1, 44509, Pitch_bend_c, 4, 16320
1, 44510, Pitch_bend_c, 6, 8192
1, 44513, Pitch_bend_c, 3, 7810
1, 44514, Note_off_c, 14, 66, 64
1, 44518, Pitch_bend_c, 3, 7180
1, 44523, Pitch_bend_c, 3, 5794
1, 44524, Pitch_bend_c, 6, 8777
1, 44525, Pitch_bend_c, 14, 7180
1, 44528, Note_off_c, 2, 66, 64
1, 44528, Pitch_bend_c, 3, 4408
1, 44529, Pitch_bend_c, 6, 9037
1, 44530, Note_off_c, 2, 70, 64
1, 44531, Pitch_bend_c, 14, 4408
1, 44532, Note_off_c, 15, 63, 64
1, 44532, Pitch_bend_c, 3, 1636
1, 44534, Pitch_bend_c, 15, 7810
1, 44534, Pitch_bend_c, 6, 9167
1, 44536, Pitch_bend_c, 14, 1762
1, 44539, Pitch_bend_c, 15, 5164
1, 44540, Note_off_c, 0, 58, 64
1, 44540, Note_off_c, 0, 63, 64
1, 44540, Note_off_c, 11, 82, 64
1, 44540, Note_off_c, 6, 87, 64
1, 44540, Note_off_c, 11, 78, 64
1, 44540, Note_off_c, 0, 66, 64
1, 44541, Note_on_c, 2, 65, 94
1, 44543, Note_on_c, 14, 70, 111
1, 44543, Note_on_c, 2, 68, 94
1, 44543, Pitch_bend_c, 6, 8192
1, 44544, Note_on_c, 9, 42, 110
1, 44544, Note_on_c, 9, 36, 90
1, 44544, Note_on_c, 0, 56, 78
1, 44544, Note_on_c, 0, 65, 72
1, 44544, Note_on_c, 0, 61, 75
1, 44544, Note_on_c, 11, 80, 64
1, 44544, Note_on_c, 11, 77, 64
1, 44544, Note_on_c, 6, 68, 127
1, 44544, Control_c, 6, 11, 127
1, 44545, Note_off_c, 9, 36, 64
1, 44545, Note_off_c, 9, 42, 64
1, 44545, Pitch_bend_c, 15, 1636
1, 44546, Note_on_c, 3, 70, 108
1, 44546, Note_on_c, 15, 70, 101
1, 44547, Note_off_c, 6, 68, 64
1, 44547, Pitch_bend_c, 14, 7558
1, 44548, Pitch_bend_c, 3, 1762
1, 44554, Pitch_bend_c, 3, 2896
1, 44554, Pitch_bend_c, 14, 8192
1, 44558, Pitch_bend_c, 6, 8257
1, 44559, Pitch_bend_c, 3, 4534
1, 44559, Pitch_bend_c, 15, 7684
1, 44560, Note_on_c, 6, 50, 127
1, 44563, Note_off_c, 6, 50, 64
1, 44563, Pitch_bend_c, 6, 9167
1, 44565, Pitch_bend_c, 3, 6550
1, 44566, Pitch_bend_c, 15, 8192
1, 44568, Pitch_bend_c, 6, 9362
1, 44570, Pitch_bend_c, 3, 8192
1, 44576, Note_on_c, 6, 80, 127
1, 44577, Pitch_bend_c, 6, 8907
1, 44579, Note_off_c, 6, 80, 64
1, 44581, Note_off_c, 14, 70, 64
1, 44582, Pitch_bend_c, 6, 8192
1, 44583, Note_off_c, 15, 70, 64
1, 44583, Note_off_c, 3, 70, 64
1, 44584, Note_off_c, 5, 51, 64
1, 44586, Note_off_c, 4, 51, 64
1, 44589, Note_off_c, 1, 39, 64
1, 44589, Note_off_c, 8, 51, 64
1, 44589, Pitch_bend_c, 5, 8192
1, 44590, Note_on_c, 5, 51, 114
1, 44591, Pitch_bend_c, 1, 8192
1, 44591, Pitch_bend_c, 4, 8192
1, 44591, Pitch_bend_c, 8, 8192
1, 44592, Note_on_c, 9, 42, 50
1, 44592, Note_on_c, 1, 39, 127
1, 44592, Note_on_c, 4, 51, 114
1, 44592, Note_on_c, 8, 51, 107
1, 44592, Pitch_bend_c, 6, 8257
1, 44592, Note_on_c, 6, 78, 127
1, 44593, Note_off_c, 9, 42, 64
1, 44593, Note_on_c, 14, 70, 107
1, 44595, Note_off_c, 6, 78, 64
1, 44595, Note_on_c, 3, 70, 104
1, 44595, Note_on_c, 15, 70, 101
1, 44597, Pitch_bend_c, 6, 8907
1, 44606, Control_c, 3, 1, 10
1, 44606, Pitch_bend_c, 6, 7810
1, 44608, Note_on_c, 6, 78, 127
1, 44611, Note_off_c, 6, 78, 64
1, 44611, Control_c, 3, 1, 89
1, 44611, Pitch_bend_c, 6, 8192
1, 44616, Control_c, 3, 1, 112
1, 44624, Note_on_c, 6, 80, 127
1, 44626, Control_c, 3, 1, 114
1, 44627, Note_off_c, 6, 80, 64
1, 44635, Note_off_c, 5, 51, 64
1, 44637, Note_off_c, 1, 39, 64
1, 44637, Note_off_c, 8, 51, 64
1, 44637, Note_off_c, 4, 51, 64
1, 44638, Note_on_c, 5, 49, 114
1, 44640, Control_c, 3, 1, 115
1, 44640, Note_on_c, 9, 42, 110
1, 44640, Note_on_c, 9, 38, 115
1, 44640, Note_on_c, 9, 36, 90
1, 44640, Note_on_c, 1, 37, 127
1, 44640, Note_on_c, 4, 49, 114
1, 44640, Note_on_c, 8, 49, 107
1, 44640, Note_on_c, 6, 70, 127
1, 44641, Note_off_c, 9, 36, 64
1, 44641, Note_off_c, 9, 38, 64
1, 44641, Note_off_c, 9, 42, 64
1, 44643, Note_off_c, 6, 70, 64
1, 44648, Note_on_c, 6, 85, 127
1, 44651, Note_off_c, 6, 85, 64
1, 44656, Note_on_c, 6, 61, 127
1, 44663, Note_off_c, 6, 61, 64
1, 44664, Note_on_c, 6, 60, 127
1, 44671, Note_off_c, 6, 60, 64
1, 44672, Note_on_c, 6, 59, 120
1, 44674, Control_c, 3, 1, 114
1, 44676, Note_off_c, 5, 49, 64
1, 44678, Note_off_c, 1, 37, 64
1, 44678, Note_off_c, 8, 49, 64
1, 44678, Note_off_c, 4, 49, 64
1, 44679, Note_off_c, 6, 59, 64
1, 44680, Note_on_c, 6, 58, 115
1, 44684, Control_c, 3, 1, 111
1, 44687, Note_off_c, 6, 58, 64
1, 44688, Note_on_c, 9, 42, 50
1, 44688, Note_on_c, 6, 57, 114
1, 44689, Note_off_c, 9, 42, 64
1, 44695, Note_off_c, 6, 57, 64
1, 44695, Control_c, 3, 1, 101
1, 44696, Note_on_c, 6, 56, 113
1, 44703, Note_off_c, 6, 56, 64
1, 44704, Note_on_c, 6, 55, 112
1, 44706, Note_off_c, 15, 70, 64
1, 44706, Control_c, 3, 1, 59
1, 44709, Note_off_c, 14, 70, 64
1, 44711, Note_off_c, 6, 55, 64
1, 44711, Control_c, 3, 1, 0
1, 44711, Pitch_bend_c, 14, 6676
1, 44712, Note_on_c, 6, 54, 111
1, 44717, Pitch_bend_c, 15, 7684
1, 44718, Note_off_c, 3, 70, 64
1, 44718, Pitch_bend_c, 14, 4786
1, 44719, Note_off_c, 6, 54, 64
1, 44720, Note_on_c, 6, 53, 110
1, 44723, Pitch_bend_c, 15, 1510
1, 44724, Pitch_bend_c, 14, 5038
1, 44727, Note_off_c, 6, 53, 64
1, 44728, Note_on_c, 6, 52, 109
1, 44729, Pitch_bend_c, 14, 8192
1, 44734, Note_on_c, 14, 65, 107
1, 44734, Note_on_c, 5, 49, 114
1, 44735, Note_off_c, 6, 52, 64
1, 44736, Note_on_c, 15, 61, 102
1, 44736, Note_on_c, 9, 42, 110
1, 44736, Note_on_c, 1, 37, 127
1, 44736, Note_on_c, 4, 49, 114
1, 44736, Note_on_c, 8, 49, 107
1, 44736, Note_on_c, 6, 51, 108
1, 44737, Note_off_c, 9, 42, 64
1, 44737, Pitch_bend_c, 15, 1636
1, 44743, Note_off_c, 6, 51, 64
1, 44744, Pitch_bend_c, 15, 7306
1, 44744, Note_on_c, 6, 50, 107
1, 44751, Note_off_c, 6, 50, 64
1, 44751, Pitch_bend_c, 15, 8192
1, 44752, Note_on_c, 6, 49, 106
1, 44759, Note_off_c, 6, 49, 64
1, 44760, Note_on_c, 6, 48, 105
1, 44767, Note_off_c, 6, 48, 64
1, 44768, Note_off_c, 14, 65, 64
1, 44768, Note_on_c, 6, 47, 104
1, 44771, Note_off_c, 1, 37, 64
1, 44771, Note_off_c, 8, 49, 64
1, 44771, Note_off_c, 15, 61, 64
1, 44774, Note_off_c, 5, 49, 64
1, 44775, Note_off_c, 6, 47, 64
1, 44776, Note_off_c, 4, 49, 64
1, 44776, Note_on_c, 6, 46, 103
1, 44783, Note_off_c, 6, 46, 64
1, 44783, Note_on_c, 14, 65, 102
1, 44784, Note_on_c, 15, 61, 99
1, 44784, Note_on_c, 9, 42, 50
1, 44784, Note_on_c, 9, 36, 90
1, 44784, Note_on_c, 6, 45, 102
1, 44785, Note_off_c, 9, 36, 64
1, 44785, Note_off_c, 9, 42, 64
1, 44791, Note_off_c, 6, 45, 64
1, 44792, Note_on_c, 6, 44, 101
1, 44799, Note_off_c, 6, 44, 64
1, 44800, Note_on_c, 6, 43, 100
1, 44807, Note_off_c, 6, 43, 64
1, 44808, Note_on_c, 6, 42, 99
1, 44815, Note_off_c, 6, 42, 64
1, 44816, Note_on_c, 6, 41, 98
1, 44819, Note_off_c, 14, 65, 64
1, 44823, Note_off_c, 6, 41, 64
1, 44824, Note_on_c, 6, 40, 97
1, 44831, Note_off_c, 6, 40, 64
1, 44832, Note_on_c, 9, 42, 110
1, 44832, Note_on_c, 9, 38, 115
1, 44832, Note_on_c, 6, 39, 96
1, 44833, Note_off_c, 9, 38, 64
1, 44833, Note_off_c, 9, 42, 64
1, 44833, Note_on_c, 9, 39, 127
1, 44834, Note_off_c, 9, 39, 64
1, 44839, Note_off_c, 6, 39, 64
1, 44839, Note_on_c, 10, 39, 127
1, 44840, Note_off_c, 10, 39, 64
1, 44840, Note_on_c, 6, 38, 95
1, 44847, Note_off_c, 6, 38, 64
1, 44848, Note_on_c, 6, 37, 94
1, 44855, Note_off_c, 6, 37, 64
1, 44856, Note_on_c, 6, 36, 93
1, 44863, Note_off_c, 6, 36, 64
1, 44863, Pitch_bend_c, 3, 7810
1, 44867, Pitch_bend_c, 3, 6550
1, 44872, Note_off_c, 15, 61, 64
1, 44872, Pitch_bend_c, 3, 4408
1, 44877, Pitch_bend_c, 3, 2266
1, 44877, Pitch_bend_c, 14, 5290
1, 44878, Pitch_bend_c, 15, 6046
1, 44878, Note_on_c, 5, 39, 114
1, 44880, Note_on_c, 9, 42, 50
1, 44880, Note_on_c, 1, 27, 127
1, 44880, Note_on_c, 4, 39, 114
1, 44880, Note_on_c, 8, 39, 107
1, 44881, Note_off_c, 9, 42, 64
1, 44881, Note_on_c, 14, 66, 110
1, 44882, Pitch_bend_c, 3, 1636
1, 44882, Note_on_c, 15, 63, 102
1, 44883, Pitch_bend_c, 14, 4156
1, 44884, Pitch_bend_c, 15, 5794
1, 44885, Note_on_c, 3, 70, 107
1, 44892, Pitch_bend_c, 14, 5038
1, 44894, Pitch_bend_c, 15, 6046
1, 44896, Pitch_bend_c, 3, 2392
1, 44898, Pitch_bend_c, 14, 8192
1, 44901, Pitch_bend_c, 3, 3904
1, 44901, Pitch_bend_c, 15, 6298
1, 44906, Pitch_bend_c, 3, 7432
1, 44907, Pitch_bend_c, 15, 8192
1, 44911, Pitch_bend_c, 3, 8192
1, 44912, Note_off_c, 2, 68, 64
1, 44924, Note_off_c, 11, 77, 64
1, 44924, Note_off_c, 2, 65, 64
1, 44924, Note_off_c, 0, 56, 64
1, 44924, Note_off_c, 0, 61, 64
1, 44924, Note_off_c, 11, 80, 64
1, 44924, Note_off_c, 0, 65, 64
1, 44928, Note_on_c, 9, 42, 110
1, 44928, Note_on_c, 9, 36, 90
1, 44928, Note_on_c, 0, 63, 78
1, 44928, Note_on_c, 0, 58, 76
1, 44928, Note_on_c, 0, 66, 69
1, 44928, Note_on_c, 11, 78, 64
1, 44928, Note_on_c, 11, 82, 64
1, 44929, Note_off_c, 9, 36, 64
1, 44929, Note_off_c, 9, 42, 64
1, 44929, Note_on_c, 2, 70, 94
1, 44932, Note_on_c, 2, 66, 94
1, 44949, Note_off_c, 14, 66, 64
1, 44950, Note_off_c, 15, 63, 64
1, 44958, Note_off_c, 3, 70, 64
1, 44972, Note_off_c, 5, 39, 64
1, 44974, Note_off_c, 1, 27, 64
1, 44974, Note_off_c, 4, 39, 64
1, 44974, Note_off_c, 8, 39, 64
1, 44974, Note_on_c, 5, 42, 114
1, 44976, Note_on_c, 14, 66, 106
1, 44976, Note_on_c, 15, 63, 100
1, 44976, Note_on_c, 9, 42, 50
1, 44976, Note_on_c, 1, 30, 127
1, 44976, Note_on_c, 4, 42, 114
1, 44976, Note_on_c, 8, 42, 107
1, 44977, Note_off_c, 9, 42, 64
1, 44980, Note_on_c, 3, 70, 102
1, 44988, Note_off_c, 15, 63, 64
1, 44988, Note_off_c, 14, 66, 64
1, 44991, Note_off_c, 3, 70, 64
1, 45020, Note_off_c, 5, 42, 64
1, 45022, Note_off_c, 1, 30, 64
1, 45022, Note_off_c, 8, 42, 64
1, 45022, Note_off_c, 4, 42, 64
1, 45022, Note_on_c, 5, 46, 114
1, 45023, Note_on_c, 14, 66, 110
1, 45024, Note_on_c, 15, 63, 101
1, 45024, Note_on_c, 9, 42, 110
1, 45024, Note_on_c, 9, 38, 115
1, 45024, Note_on_c, 1, 34, 127
1, 45024, Note_on_c, 4, 46, 114
1, 45024, Note_on_c, 8, 46, 107
1, 45025, Note_off_c, 9, 38, 64
1, 45025, Note_off_c, 9, 42, 64
1, 45026, Note_on_c, 3, 70, 105
1, 45037, Note_off_c, 15, 63, 64
1, 45037, Note_off_c, 14, 66, 64
1, 45038, Note_off_c, 3, 70, 64
1, 45068, Note_off_c, 5, 46, 64
1, 45070, Note_off_c, 8, 46, 64
1, 45070, Note_off_c, 4, 46, 64
1, 45070, Note_off_c, 1, 34, 64
1, 45070, Note_on_c, 5, 54, 114
1, 45072, Note_on_c, 14, 66, 109
1, 45072, Note_on_c, 15, 63, 101
1, 45072, Note_on_c, 9, 42, 50
1, 45072, Note_on_c, 1, 42, 127
1, 45072, Note_on_c, 4, 54, 114
1, 45072, Note_on_c, 8, 54, 107
1, 45073, Note_off_c, 9, 42, 64
1, 45074, Note_on_c, 3, 70, 98
1, 45086, Note_off_c, 14, 66, 64
1, 45090, Note_off_c, 15, 63, 64
1, 45091, Note_off_c, 3, 70, 64
1, 45107, Pitch_bend_c, 14, 7180
1, 45108, Pitch_bend_c, 15, 6676
1, 45114, Pitch_bend_c, 14, 3022
1, 45115, Pitch_bend_c, 15, 5794
1, 45116, Note_off_c, 5, 54, 64
1, 45118, Note_off_c, 1, 42, 64
1, 45118, Note_off_c, 8, 54, 64
1, 45118, Note_off_c, 4, 54, 64
1, 45118, Note_on_c, 5, 51, 114
1, 45120, Pitch_bend_c, 14, 2518
1, 45120, Note_on_c, 14, 70, 110
1, 45120, Note_on_c, 15, 66, 102
1, 45120, Note_on_c, 9, 42, 110
1, 45120, Note_on_c, 9, 36, 90
1, 45120, Note_on_c, 1, 39, 127
1, 45120, Note_on_c, 4, 51, 114
1, 45120, Note_on_c, 8, 51, 107
1, 45121, Note_off_c, 9, 36, 64
1, 45121, Note_off_c, 9, 42, 64
1, 45121, Note_on_c, 3, 73, 107
1, 45125, Pitch_bend_c, 15, 6046
1, 45129, Pitch_bend_c, 14, 8192
1, 45130, Control_c, 3, 1, 123
1, 45132, Pitch_bend_c, 15, 6550
1, 45140, Pitch_bend_c, 15, 8192
1, 45143, Pitch_bend_c, 5, 8478
1, 45144, Control_c, 3, 1, 119
1, 45145, Pitch_bend_c, 4, 8452
1, 45147, Pitch_bend_c, 5, 9110
1, 45149, Pitch_bend_c, 4, 9025
1, 45151, Pitch_bend_c, 5, 9568
1, 45153, Pitch_bend_c, 4, 9441
1, 45155, Pitch_bend_c, 5, 9682
1, 45157, Control_c, 3, 1, 122
1, 45157, Pitch_bend_c, 4, 9545
1, 45163, Pitch_bend_c, 5, 7855
1, 45165, Pitch_bend_c, 4, 7886
1, 45166, Pitch_bend_c, 5, 8192
1, 45168, Note_on_c, 9, 42, 50
1, 45168, Pitch_bend_c, 4, 8192
1, 45169, Note_off_c, 9, 42, 64
1, 45171, Control_c, 3, 1, 121
1, 45178, Control_c, 3, 1, 108
1, 45178, Pitch_bend_c, 5, 8249
1, 45180, Pitch_bend_c, 4, 8244
1, 45182, Pitch_bend_c, 5, 9797
1, 45184, Pitch_bend_c, 4, 9649
1, 45185, Control_c, 3, 1, 0
1, 45186, Pitch_bend_c, 5, 9913
1, 45188, Pitch_bend_c, 4, 9754
1, 45193, Pitch_bend_c, 5, 9110
1, 45194, Note_off_c, 14, 70, 64
1, 45195, Pitch_bend_c, 4, 9025
1, 45197, Pitch_bend_c, 5, 8192
1, 45199, Note_off_c, 15, 66, 64
1, 45199, Note_off_c, 3, 73, 64
1, 45199, Pitch_bend_c, 4, 8192
1, 45205, Pitch_bend_c, 5, 8478
1, 45207, Pitch_bend_c, 4, 8452
1, 45209, Pitch_bend_c, 5, 9568
1, 45211, Pitch_bend_c, 4, 9441
1, 45213, Pitch_bend_c, 5, 9970
1, 45215, Note_on_c, 14, 66, 110
1, 45215, Note_on_c, 15, 63, 102
1, 45215, Pitch_bend_c, 4, 9806
1, 45216, Note_on_c, 9, 42, 110
1, 45216, Note_on_c, 9, 38, 115
1, 45217, Note_off_c, 9, 38, 64
1, 45217, Note_off_c, 9, 42, 64
1, 45217, Note_on_c, 3, 70, 104
1, 45217, Pitch_bend_c, 5, 10084
1, 45217, Note_on_c, 9, 39, 127
1, 45218, Note_off_c, 9, 39, 64
1, 45219, Pitch_bend_c, 4, 9910
1, 45221, Pitch_bend_c, 5, 9913
1, 45223, Note_on_c, 10, 39, 127
1, 45223, Pitch_bend_c, 4, 9754
1, 45224, Note_off_c, 10, 39, 64
1, 45225, Pitch_bend_c, 5, 8192
1, 45227, Pitch_bend_c, 4, 8192
1, 45232, Note_off_c, 15, 63, 64
1, 45233, Note_off_c, 3, 70, 64
1, 45234, Note_off_c, 14, 66, 64
1, 45255, Pitch_bend_c, 15, 5542
1, 45256, Pitch_bend_c, 14, 5038
1, 45259, Note_off_c, 5, 51, 64
1, 45261, Note_off_c, 8, 51, 64
1, 45261, Note_off_c, 4, 51, 64
1, 45261, Note_off_c, 1, 39, 64
1, 45261, Note_on_c, 5, 51, 114
1, 45263, Pitch_bend_c, 14, 3148
1, 45263, Pitch_bend_c, 15, 1636
1, 45263, Note_on_c, 1, 39, 127
1, 45263, Note_on_c, 4, 51, 114
1, 45263, Note_on_c, 8, 51, 107
1, 45264, Note_on_c, 9, 42, 50
1, 45265, Note_off_c, 9, 42, 64
1, 45265, Note_on_c, 14, 68, 111
1, 45265, Note_on_c, 15, 65, 99
1, 45266, Pitch_bend_c, 5, 10307
1, 45267, Pitch_bend_c, 1, 12288
1, 45267, Pitch_bend_c, 8, 12288
1, 45268, Note_on_c, 3, 73, 107
1, 45268, Pitch_bend_c, 4, 10112
1, 45269, Pitch_bend_c, 5, 12704
1, 45270, Pitch_bend_c, 1, 16320
1, 45270, Pitch_bend_c, 8, 16320
1, 45271, Pitch_bend_c, 5, 14890
1, 45271, Pitch_bend_c, 4, 12288
1, 45272, Pitch_bend_c, 14, 7810
1, 45273, Pitch_bend_c, 5, 16383
1, 45273, Pitch_bend_c, 4, 14272
1, 45275, Pitch_bend_c, 4, 16320
1, 45279, Pitch_bend_c, 14, 8192
1, 45282, Control_c, 3, 1, 70
1, 45283, Pitch_bend_c, 15, 1888
1, 45290, Control_c, 3, 1, 121
1, 45291, Pitch_bend_c, 15, 6928
1, 45299, Pitch_bend_c, 15, 8192
1, 45304, Note_off_c, 2, 66, 64
1, 45306, Note_off_c, 2, 70, 64
1, 45308, Note_off_c, 0, 63, 64
1, 45308, Note_off_c, 11, 82, 64
1, 45308, Note_off_c, 11, 78, 64
1, 45308, Note_off_c, 0, 66, 64
1, 45308, Note_off_c, 0, 58, 64
1, 45312, Note_on_c, 9, 42, 110
1, 45312, Note_on_c, 9, 36, 90
1, 45312, Note_on_c, 0, 56, 78
1, 45312, Note_on_c, 0, 65, 72
1, 45312, Note_on_c, 0, 61, 75
1, 45312, Note_on_c, 11, 80, 64
1, 45312, Note_on_c, 11, 77, 64
1, 45312, Note_on_c, 2, 65, 94
1, 45313, Note_off_c, 9, 36, 64
1, 45313, Note_off_c, 9, 42, 64
1, 45313, Note_on_c, 2, 68, 94
1, 45328, Control_c, 3, 1, 120
1, 45335, Control_c, 3, 1, 90
1, 45343, Control_c, 3, 1, 0
1, 45344, Note_off_c, 15, 65, 64
1, 45344, Note_off_c, 14, 68, 64
1, 45354, Note_off_c, 3, 73, 64
1, 45356, Note_off_c, 5, 51, 64
1, 45357, Pitch_bend_c, 5, 8192
1, 45358, Note_off_c, 8, 51, 64
1, 45358, Note_off_c, 4, 51, 64
1, 45358, Note_off_c, 1, 39, 64
1, 45358, Note_on_c, 5, 51, 114
1, 45359, Note_on_c, 14, 65, 107
1, 45359, Note_on_c, 15, 61, 102
1, 45359, Pitch_bend_c, 1, 8192
1, 45359, Pitch_bend_c, 4, 8192
1, 45359, Pitch_bend_c, 8, 8192
1, 45360, Note_on_c, 9, 42, 50
1, 45360, Note_on_c, 1, 39, 127
1, 45360, Note_on_c, 4, 51, 114
1, 45360, Note_on_c, 8, 51, 107
1, 45361, Note_off_c, 9, 42, 64
1, 45363, Note_on_c, 3, 70, 107
1, 45375, Note_off_c, 15, 61, 64
1, 45377, Note_off_c, 14, 65, 64
1, 45379, Note_off_c, 3, 70, 64
1, 45400, Note_off_c, 5, 51, 64
1, 45402, Note_off_c, 1, 39, 64
1, 45402, Note_off_c, 8, 51, 64
1, 45402, Note_off_c, 4, 51, 64
1, 45406, Note_on_c, 5, 49, 114
1, 45408, Note_on_c, 9, 42, 110
1, 45408, Note_on_c, 9, 38, 115
1, 45408, Note_on_c, 9, 36, 90
1, 45408, Note_on_c, 1, 37, 127
1, 45408, Note_on_c, 4, 49, 114
1, 45408, Note_on_c, 8, 49, 107
1, 45409, Note_off_c, 9, 36, 64
1, 45409, Note_off_c, 9, 38, 64
1, 45409, Note_off_c, 9, 42, 64
1, 45446, Note_off_c, 8, 49, 64
1, 45446, Note_off_c, 1, 37, 64
1, 45447, Note_off_c, 5, 49, 64
1, 45449, Note_off_c, 4, 49, 64
1, 45456, Note_on_c, 9, 42, 50
1, 45457, Note_off_c, 9, 42, 64
1, 45504, Note_on_c, 9, 42, 110
1, 45505, Note_off_c, 9, 42, 64
1, 45552, Note_on_c, 9, 42, 50
1, 45552, Note_on_c, 9, 36, 90
1, 45553, Note_off_c, 9, 36, 64
1, 45553, Note_off_c, 9, 42, 64
1, 45600, Note_on_c, 9, 42, 110
1, 45600, Note_on_c, 9, 38, 115
1, 45601, Note_off_c, 9, 38, 64
1, 45601, Note_off_c, 9, 42, 64
1, 45601, Note_on_c, 9, 39, 127
1, 45602, Note_off_c, 9, 39, 64
1, 45607, Note_on_c, 10, 39, 127
1, 45608, Note_off_c, 10, 39, 64
1, 45628, Pitch_bend_c, 14, 7180
1, 45633, Pitch_bend_c, 3, 7810
1, 45633, Pitch_bend_c, 14, 5290
1, 45637, Pitch_bend_c, 15, 5668
1, 45638, Pitch_bend_c, 14, 3400
1, 45639, Pitch_bend_c, 3, 2014
1, 45642, Pitch_bend_c, 15, 3652
1, 45643, Pitch_bend_c, 14, 2518
1, 45644, Pitch_bend_c, 3, 1510
1, 45645, Pitch_bend_c, 5, 8192
1, 45646, Note_on_c, 5, 39, 114
1, 45647, Note_on_c, 14, 65, 110
1, 45647, Pitch_bend_c, 15, 1636
1, 45647, Pitch_bend_c, 4, 8192
1, 45648, Note_on_c, 9, 42, 50
1, 45648, Note_on_c, 1, 27, 127
1, 45648, Note_on_c, 4, 39, 114
1, 45648, Note_on_c, 8, 39, 107
1, 45649, Note_off_c, 9, 42, 64
1, 45649, Note_on_c, 15, 63, 102
1, 45650, Note_on_c, 3, 68, 107
1, 45651, Pitch_bend_c, 14, 5416
1, 45652, Pitch_bend_c, 3, 2266
1, 45656, Pitch_bend_c, 14, 8192
1, 45658, Pitch_bend_c, 3, 7810
1, 45660, Pitch_bend_c, 15, 2266
1, 45662, Note_off_c, 2, 68, 64
1, 45664, Pitch_bend_c, 3, 8192
1, 45665, Note_off_c, 2, 65, 64
1, 45665, Pitch_bend_c, 15, 5164
1, 45670, Pitch_bend_c, 15, 8192
1, 45672, Note_off_c, 15, 63, 64
1, 45676, Note_off_c, 14, 65, 64
1, 45677, Note_off_c, 3, 68, 64
1, 45689, Note_on_c, 2, 70, 94
1, 45692, Note_off_c, 0, 56, 64
1, 45692, Note_off_c, 11, 77, 64
1, 45692, Note_off_c, 11, 80, 64
1, 45692, Note_off_c, 0, 61, 64
1, 45692, Note_off_c, 0, 65, 64
1, 45692, Note_on_c, 2, 66, 94
1, 45696, Note_on_c, 9, 42, 110
1, 45696, Note_on_c, 9, 36, 90
1, 45696, Note_on_c, 0, 63, 78
1, 45696, Note_on_c, 0, 58, 76
1, 45696, Note_on_c, 0, 66, 69
1, 45696, Note_on_c, 11, 78, 64
1, 45696, Note_on_c, 11, 82, 64
1, 45697, Note_off_c, 9, 36, 64
1, 45697, Note_off_c, 9, 42, 64
1, 45741, Note_off_c, 5, 39, 64
1, 45742, Note_on_c, 5, 42, 114
1, 45743, Note_off_c, 8, 39, 64
1, 45743, Note_off_c, 4, 39, 64
1, 45743, Note_off_c, 1, 27, 64
1, 45744, Note_on_c, 9, 42, 50
1, 45744, Note_on_c, 1, 30, 127
1, 45744, Note_on_c, 4, 42, 114
1, 45744, Note_on_c, 8, 42, 107
1, 45745, Note_off_c, 9, 42, 64
1, 45745, Note_on_c, 14, 63, 110
1, 45745, Note_on_c, 15, 61, 101
1, 45748, Note_on_c, 3, 66, 107
1, 45757, Note_off_c, 14, 63, 64
1, 45760, Note_off_c, 3, 66, 64
1, 45762, Note_off_c, 15, 61, 64
1, 45789, Note_off_c, 5, 42, 64
1, 45790, Note_on_c, 5, 46, 114
1, 45791, Note_off_c, 1, 30, 64
1, 45791, Note_off_c, 8, 42, 64
1, 45791, Note_off_c, 4, 42, 64
1, 45792, Note_on_c, 15, 63, 102
1, 45792, Note_on_c, 9, 42, 110
1, 45792, Note_on_c, 9, 38, 115
1, 45792, Note_on_c, 1, 34, 127
1, 45792, Note_on_c, 4, 46, 114
1, 45792, Note_on_c, 8, 46, 107
1, 45793, Note_off_c, 9, 38, 64
1, 45793, Note_off_c, 9, 42, 64
1, 45793, Note_on_c, 14, 65, 107
1, 45795, Note_on_c, 3, 68, 107
1, 45810, Note_off_c, 14, 65, 64
1, 45812, Note_off_c, 15, 63, 64
1, 45820, Note_off_c, 3, 68, 64
1, 45837, Note_off_c, 5, 46, 64
1, 45838, Note_on_c, 5, 54, 114
1, 45839, Note_off_c, 8, 46, 64
1, 45839, Note_off_c, 4, 46, 64
1, 45839, Note_off_c, 1, 34, 64
1, 45840, Note_on_c, 9, 42, 50
1, 45840, Note_on_c, 1, 42, 127
1, 45840, Note_on_c, 4, 54, 114
1, 45840, Note_on_c, 8, 54, 107
1, 45841, Note_off_c, 9, 42, 64
1, 45864, Pitch_bend_c, 14, 5542
1, 45869, Pitch_bend_c, 14, 4534
1, 45871, Pitch_bend_c, 15, 7684
1, 45876, Pitch_bend_c, 15, 6298
1, 45878, Pitch_bend_c, 14, 5542
1, 45880, Pitch_bend_c, 15, 1636
1, 45883, Pitch_bend_c, 14, 7810
1, 45885, Note_off_c, 5, 54, 64
1, 45886, Note_on_c, 5, 51, 114
1, 45887, Note_off_c, 1, 42, 64
1, 45887, Note_off_c, 8, 54, 64
1, 45887, Note_off_c, 4, 54, 64
1, 45887, Note_on_c, 14, 63, 111
1, 45888, Note_on_c, 9, 42, 110
1, 45888, Note_on_c, 9, 36, 90
1, 45888, Note_on_c, 1, 39, 127
1, 45888, Note_on_c, 4, 51, 114
1, 45888, Note_on_c, 8, 51, 107
1, 45889, Note_off_c, 9, 36, 64
1, 45889, Note_off_c, 9, 42, 64
1, 45889, Pitch_bend_c, 15, 2896
1, 45889, Note_on_c, 15, 61, 99
1, 45890, Note_on_c, 3, 66, 107
1, 45891, Pitch_bend_c, 14, 8192
1, 45898, Pitch_bend_c, 15, 8192
1, 45899, Pitch_bend_c, 5, 8249
1, 45901, Pitch_bend_c, 4, 8244
1, 45903, Pitch_bend_c, 5, 8708
1, 45905, Pitch_bend_c, 4, 8660
1, 45910, Pitch_bend_c, 5, 8364
1, 45912, Pitch_bend_c, 4, 8348
1, 45914, Pitch_bend_c, 5, 8192
1, 45916, Pitch_bend_c, 4, 8192
1, 45926, Note_off_c, 14, 63, 64
1, 45930, Pitch_bend_c, 5, 8249
1, 45932, Note_off_c, 15, 61, 64
1, 45932, Pitch_bend_c, 4, 8244
1, 45933, Note_off_c, 3, 66, 64
1, 45934, Pitch_bend_c, 5, 8478
1, 45936, Note_on_c, 9, 42, 50
1, 45936, Pitch_bend_c, 4, 8452
1, 45937, Note_off_c, 9, 42, 64
1, 45937, Note_on_c, 14, 65, 102
1, 45937, Note_on_c, 15, 63, 98
1, 45937, Pitch_bend_c, 5, 8708
1, 45939, Pitch_bend_c, 4, 8660
1, 45940, Note_on_c, 3, 68, 101
1, 45945, Pitch_bend_c, 5, 8593
1, 45947, Pitch_bend_c, 4, 8556
1, 45948, Note_off_c, 15, 63, 64
1, 45948, Note_off_c, 14, 65, 64
1, 45949, Note_off_c, 3, 68, 64
1, 45949, Pitch_bend_c, 5, 8192
1, 45951, Pitch_bend_c, 4, 8192
1, 45961, Pitch_bend_c, 5, 8249
1, 45963, Pitch_bend_c, 4, 8244
1, 45965, Pitch_bend_c, 5, 8823
1, 45967, Pitch_bend_c, 4, 8765
1, 45969, Pitch_bend_c, 5, 9052
1, 45971, Pitch_bend_c, 4, 8973
1, 45976, Pitch_bend_c, 5, 8364
1, 45978, Pitch_bend_c, 4, 8348
1, 45981, Pitch_bend_c, 5, 8192
1, 45983, Pitch_bend_c, 4, 8192
1, 45984, Note_on_c, 9, 42, 110
1, 45984, Note_on_c, 9, 38, 115
1, 45985, Note_off_c, 9, 38, 64
1, 45985, Note_off_c, 9, 42, 64
1, 45985, Note_on_c, 9, 39, 127
1, 45986, Note_off_c, 9, 39, 64
1, 45988, Pitch_bend_c, 5, 8593
1, 45990, Pitch_bend_c, 4, 8556
1, 45991, Note_on_c, 10, 39, 127
1, 45992, Note_off_c, 10, 39, 64
1, 45992, Pitch_bend_c, 5, 9453
1, 45994, Pitch_bend_c, 4, 9337
1, 45996, Pitch_bend_c, 5, 9797
1, 45998, Pitch_bend_c, 4, 9649
1, 46004, Pitch_bend_c, 5, 9110
1, 46006, Pitch_bend_c, 4, 9025
1, 46008, Pitch_bend_c, 5, 8192
1, 46010, Pitch_bend_c, 4, 8192
1, 46019, Pitch_bend_c, 3, 7810
1, 46020, Pitch_bend_c, 14, 7180
1, 46023, Pitch_bend_c, 15, 7558
1, 46024, Pitch_bend_c, 3, 5542
1, 46026, Pitch_bend_c, 14, 5290
1, 46027, Note_off_c, 5, 51, 64
1, 46028, Pitch_bend_c, 15, 3778
1, 46029, Note_off_c, 8, 51, 64
1, 46029, Note_off_c, 4, 51, 64
1, 46029, Note_off_c, 1, 39, 64
1, 46029, Note_on_c, 5, 51, 114
1, 46030, Pitch_bend_c, 3, 4408
1, 46031, Note_on_c, 1, 39, 127
1, 46031, Note_on_c, 4, 51, 114
1, 46031, Note_on_c, 8, 51, 107
1, 46032, Pitch_bend_c, 14, 4156
1, 46032, Note_on_c, 14, 65, 106
1, 46032, Note_on_c, 15, 63, 101
1, 46032, Note_on_c, 9, 42, 50
1, 46033, Note_off_c, 9, 42, 64
1, 46034, Pitch_bend_c, 1, 12288
1, 46034, Pitch_bend_c, 5, 12704
1, 46034, Pitch_bend_c, 5, 10307
1, 46034, Pitch_bend_c, 8, 12288
1, 46036, Note_on_c, 3, 68, 107
1, 46036, Pitch_bend_c, 4, 10112
1, 46037, Pitch_bend_c, 1, 16320
1, 46037, Pitch_bend_c, 8, 16320
1, 46039, Pitch_bend_c, 3, 5290
1, 46041, Pitch_bend_c, 14, 5668
1, 46041, Pitch_bend_c, 5, 14890
1, 46043, Pitch_bend_c, 5, 16383
1, 46043, Pitch_bend_c, 4, 14272
1, 46044, Pitch_bend_c, 15, 8192
1, 46045, Pitch_bend_c, 4, 16320
1, 46046, Pitch_bend_c, 3, 6928
1, 46047, Pitch_bend_c, 14, 8192
1, 46053, Note_off_c, 15, 63, 64
1, 46053, Note_off_c, 14, 65, 64
1, 46053, Pitch_bend_c, 3, 8192
1, 46076, Note_off_c, 11, 78, 64
1, 46076, Note_off_c, 2, 66, 64
1, 46076, Note_off_c, 11, 82, 64
1, 46076, Note_off_c, 0, 66, 64
1, 46076, Note_off_c, 0, 58, 64
1, 46076, Note_off_c, 0, 63, 64
1, 46076, Note_off_c, 3, 68, 64
1, 46080, Note_on_c, 9, 42, 110
1, 46080, Note_on_c, 9, 36, 90
1, 46080, Note_on_c, 0, 56, 78
1, 46080, Note_on_c, 0, 65, 72
1, 46080, Note_on_c, 0, 61, 75
1, 46080, Note_on_c, 11, 80, 64
1, 46080, Note_on_c, 11, 77, 64
1, 46081, Note_off_c, 9, 36, 64
1, 46081, Note_off_c, 9, 42, 64
1, 46086, Note_on_c, 2, 73, 94
1, 46120, Note_off_c, 5, 51, 64
1, 46122, Note_off_c, 4, 51, 64
1, 46125, Note_off_c, 1, 39, 64
1, 46125, Note_off_c, 8, 51, 64
1, 46125, Pitch_bend_c, 5, 8192
1, 46126, Note_on_c, 5, 51, 114
1, 46127, Pitch_bend_c, 1, 8192
1, 46127, Pitch_bend_c, 4, 8192
1, 46127, Pitch_bend_c, 8, 8192
1, 46128, Note_on_c, 9, 42, 50
1, 46128, Note_on_c, 1, 39, 127
1, 46128, Note_on_c, 4, 51, 114
1, 46128, Note_on_c, 8, 51, 107
1, 46129, Note_off_c, 9, 42, 64
1, 46129, Note_on_c, 14, 63, 108
1, 46129, Note_on_c, 15, 61, 98
1, 46130, Note_on_c, 3, 66, 108
1, 46141, Note_off_c, 15, 61, 64
1, 46141, Note_off_c, 14, 63, 64
1, 46150, Note_off_c, 3, 66, 64
1, 46171, Note_off_c, 5, 51, 64
1, 46173, Note_off_c, 1, 39, 64
1, 46173, Note_off_c, 8, 51, 64
1, 46173, Note_off_c, 4, 51, 64
1, 46174, Note_on_c, 5, 49, 114
1, 46175, Note_on_c, 14, 65, 104
1, 46176, Note_on_c, 15, 63, 101
1, 46176, Note_on_c, 9, 42, 110
1, 46176, Note_on_c, 9, 38, 115
1, 46176, Note_on_c, 9, 36, 90
1, 46176, Note_on_c, 1, 37, 127
1, 46176, Note_on_c, 4, 49, 114
1, 46176, Note_on_c, 8, 49, 107
1, 46177, Note_off_c, 9, 36, 64
1, 46177, Note_off_c, 9, 38, 64
1, 46177, Note_off_c, 9, 42, 64
1, 46177, Note_on_c, 3, 68, 105
1, 46194, Note_off_c, 15, 63, 64
1, 46197, Note_off_c, 14, 65, 64
1, 46211, Note_off_c, 3, 68, 64
1, 46212, Note_off_c, 5, 49, 64
1, 46214, Note_off_c, 4, 49, 64
1, 46214, Note_off_c, 1, 37, 64
1, 46214, Note_off_c, 8, 49, 64
1, 46224, Note_on_c, 9, 42, 50
1, 46225, Note_off_c, 9, 42, 64
1, 46246, Pitch_bend_c, 14, 5290
1, 46248, Pitch_bend_c, 15, 6424
1, 46253, Pitch_bend_c, 14, 4282
1, 46255, Pitch_bend_c, 15, 5794
1, 46261, Pitch_bend_c, 14, 4534
1, 46262, Pitch_bend_c, 15, 6802
1, 46269, Note_on_c, 14, 63, 110
1, 46270, Note_on_c, 5, 49, 114
1, 46271, Pitch_bend_c, 14, 8192
1, 46271, Note_on_c, 15, 61, 101
1, 46272, Note_on_c, 3, 66, 108
1, 46272, Pitch_bend_c, 15, 8192
1, 46272, Note_on_c, 9, 42, 110
1, 46272, Note_on_c, 1, 37, 127
1, 46272, Note_on_c, 4, 49, 114
1, 46272, Note_on_c, 8, 49, 107
1, 46273, Note_off_c, 9, 42, 64
1, 46306, Note_off_c, 14, 63, 64
1, 46307, Note_off_c, 1, 37, 64
1, 46307, Note_off_c, 8, 49, 64
1, 46310, Note_off_c, 5, 49, 64
1, 46312, Note_off_c, 4, 49, 64
1, 46318, Note_off_c, 3, 66, 64
1, 46320, Note_on_c, 9, 42, 50
1, 46320, Note_on_c, 9, 36, 90
1, 46321, Note_off_c, 9, 36, 64
1, 46321, Note_off_c, 9, 42, 64
1, 46321, Note_on_c, 15, 58, 100
1, 46322, Note_on_c, 3, 63, 104
1, 46323, Note_off_c, 15, 61, 64
1, 46323, Note_on_c, 14, 58, 103
1, 46326, Note_off_c, 14, 58, 64
1, 46329, Note_off_c, 15, 58, 64
1, 46334, Note_off_c, 3, 63, 64
1, 46368, Note_on_c, 9, 42, 110
1, 46368, Note_on_c, 9, 38, 115
1, 46369, Note_off_c, 9, 38, 64
1, 46369, Note_off_c, 9, 42, 64
1, 46369, Note_on_c, 9, 39, 127
1, 46370, Note_off_c, 9, 39, 64
1, 46375, Note_on_c, 10, 39, 127
1, 46376, Note_off_c, 10, 39, 64
1, 46409, Pitch_bend_c, 14, 6172
1, 46411, Pitch_bend_c, 15, 7054
1, 46414, Note_on_c, 5, 39, 114
1, 46416, Note_on_c, 15, 63, 102
1, 46416, Note_on_c, 9, 42, 50
1, 46416, Note_on_c, 1, 27, 127
1, 46416, Note_on_c, 4, 39, 114
1, 46416, Note_on_c, 8, 39, 107
1, 46417, Note_off_c, 9, 42, 64
1, 46417, Pitch_bend_c, 14, 3526
1, 46417, Note_on_c, 14, 65, 105
1, 46420, Pitch_bend_c, 3, 8192
1, 46421, Note_on_c, 3, 68, 107
1, 46423, Pitch_bend_c, 15, 8192
1, 46429, Pitch_bend_c, 14, 8192
1, 46431, Note_off_c, 15, 63, 64
1, 46435, Note_off_c, 14, 65, 64
1, 46444, Pitch_bend_c, 3, 8192
1, 46446, Note_off_c, 3, 68, 64
1, 46459, Note_off_c, 2, 73, 64
1, 46460, Note_off_c, 11, 77, 64
1, 46460, Note_off_c, 11, 80, 64
1, 46460, Note_off_c, 0, 65, 64
1, 46460, Note_off_c, 0, 56, 64
1, 46460, Note_off_c, 0, 61, 64
1, 46463, Note_on_c, 2, 63, 94
1, 46464, Note_on_c, 9, 42, 110
1, 46464, Note_on_c, 9, 36, 90
1, 46464, Note_on_c, 0, 63, 78
1, 46464, Note_on_c, 0, 58, 76
1, 46464, Note_on_c, 0, 66, 69
1, 46464, Note_on_c, 11, 78, 64
1, 46464, Note_on_c, 11, 82, 64
1, 46465, Note_off_c, 9, 36, 64
1, 46465, Note_off_c, 9, 42, 64
1, 46465, Note_on_c, 2, 75, 94
1, 46466, Note_off_c, 2, 70, 64
1, 46508, Note_off_c, 5, 39, 64
1, 46510, Note_off_c, 4, 39, 64
1, 46510, Note_off_c, 1, 27, 64
1, 46510, Note_off_c, 8, 39, 64
1, 46510, Note_on_c, 5, 42, 114
1, 46512, Note_on_c, 9, 42, 50
1, 46512, Note_on_c, 1, 30, 127
1, 46512, Note_on_c, 4, 42, 114
1, 46512, Note_on_c, 8, 42, 107
1, 46513, Note_off_c, 9, 42, 64
1, 46513, Note_on_c, 14, 63, 110
1, 46513, Note_on_c, 15, 61, 99
1, 46516, Note_on_c, 3, 66, 108
1, 46520, Note_off_c, 15, 61, 64
1, 46527, Note_off_c, 14, 63, 64
1, 46531, Note_off_c, 3, 66, 64
1, 46556, Note_off_c, 5, 42, 64
1, 46558, Note_off_c, 1, 30, 64
1, 46558, Note_off_c, 8, 42, 64
1, 46558, Note_off_c, 4, 42, 64
1, 46558, Note_on_c, 5, 46, 114
1, 46560, Note_on_c, 9, 42, 110
1, 46560, Note_on_c, 9, 38, 115
1, 46560, Note_on_c, 1, 34, 127
1, 46560, Note_on_c, 4, 46, 114
1, 46560, Note_on_c, 8, 46, 107
1, 46561, Note_off_c, 9, 38, 64
1, 46561, Note_off_c, 9, 42, 64
1, 46561, Note_on_c, 14, 65, 103
1, 46561, Note_on_c, 15, 63, 102
1, 46563, Note_on_c, 3, 68, 108
1, 46568, Note_off_c, 15, 63, 64
1, 46575, Note_off_c, 14, 65, 64
1, 46592, Note_off_c, 3, 68, 64
1, 46604, Note_off_c, 5, 46, 64
1, 46606, Note_off_c, 8, 46, 64
1, 46606, Note_off_c, 4, 46, 64
1, 46606, Note_off_c, 1, 34, 64
1, 46606, Note_on_c, 5, 54, 114
1, 46608, Note_on_c, 9, 42, 50
1, 46608, Note_on_c, 1, 42, 127
1, 46608, Note_on_c, 4, 54, 114
1, 46608, Note_on_c, 8, 54, 107
1, 46609, Note_off_c, 9, 42, 64
1, 46628, Pitch_bend_c, 14, 6046
1, 46638, Pitch_bend_c, 14, 5920
1, 46644, Pitch_bend_c, 15, 6802
1, 46648, Pitch_bend_c, 14, 7306
1, 46652, Note_off_c, 5, 54, 64
1, 46654, Note_off_c, 1, 42, 64
1, 46654, Note_off_c, 8, 54, 64
1, 46654, Note_off_c, 4, 54, 64
1, 46654, Pitch_bend_c, 15, 2266
1, 46654, Note_on_c, 5, 51, 114
1, 46655, Note_on_c, 14, 63, 110
1, 46656, Note_on_c, 15, 61, 101
1, 46656, Note_on_c, 9, 42, 110
1, 46656, Note_on_c, 9, 36, 90
1, 46656, Note_on_c, 1, 39, 127
1, 46656, Note_on_c, 4, 51, 114
1, 46656, Note_on_c, 8, 51, 107
1, 46657, Note_off_c, 9, 36, 64
1, 46657, Note_off_c, 9, 42, 64
1, 46658, Note_on_c, 3, 66, 107
1, 46661, Pitch_bend_c, 14, 8192
1, 46667, Pitch_bend_c, 15, 8192
1, 46679, Pitch_bend_c, 5, 8478
1, 46681, Pitch_bend_c, 4, 8452
1, 46683, Pitch_bend_c, 5, 9110
1, 46685, Pitch_bend_c, 4, 9025
1, 46687, Pitch_bend_c, 5, 9568
1, 46689, Pitch_bend_c, 4, 9441
1, 46691, Note_off_c, 14, 63, 64
1, 46691, Pitch_bend_c, 5, 9682
1, 46693, Pitch_bend_c, 4, 9545
1, 46696, Note_off_c, 3, 66, 64
1, 46698, Note_off_c, 15, 61, 64
1, 46699, Pitch_bend_c, 5, 7855
1, 46701, Pitch_bend_c, 4, 7886
1, 46702, Pitch_bend_c, 5, 8192
1, 46704, Note_on_c, 9, 42, 50
1, 46704, Pitch_bend_c, 4, 8192
1, 46705, Note_off_c, 9, 42, 64
1, 46705, Note_on_c, 14, 65, 92
1, 46705, Note_on_c, 15, 63, 100
1, 46706, Note_on_c, 3, 68, 102
1, 46711, Note_off_c, 15, 63, 64
1, 46714, Note_off_c, 14, 65, 64
1, 46714, Pitch_bend_c, 5, 8249
1, 46716, Pitch_bend_c, 4, 8244
1, 46718, Note_off_c, 3, 68, 64
1, 46718, Pitch_bend_c, 5, 9797
1, 46720, Pitch_bend_c, 4, 9649
1, 46722, Pitch_bend_c, 5, 9913
1, 46724, Pitch_bend_c, 4, 9754
1, 46729, Pitch_bend_c, 5, 9110
1, 46731, Pitch_bend_c, 4, 9025
1, 46733, Pitch_bend_c, 5, 8192
1, 46735, Pitch_bend_c, 4, 8192
1, 46741, Pitch_bend_c, 5, 8478
1, 46743, Pitch_bend_c, 4, 8452
1, 46745, Pitch_bend_c, 5, 9568
1, 46747, Pitch_bend_c, 4, 9441
1, 46749, Pitch_bend_c, 5, 9970
1, 46751, Pitch_bend_c, 4, 9806
1, 46752, Note_on_c, 9, 42, 110
1, 46752, Note_on_c, 9, 38, 115
1, 46753, Note_off_c, 9, 38, 64
1, 46753, Note_off_c, 9, 42, 64
1, 46753, Pitch_bend_c, 5, 10084
1, 46753, Note_on_c, 9, 39, 127
1, 46754, Note_off_c, 9, 39, 64
1, 46755, Pitch_bend_c, 4, 9910
1, 46757, Pitch_bend_c, 5, 9913
1, 46759, Note_on_c, 10, 39, 127
1, 46759, Pitch_bend_c, 4, 9754
1, 46760, Note_off_c, 10, 39, 64
1, 46761, Pitch_bend_c, 5, 8192
1, 46763, Pitch_bend_c, 4, 8192
1, 46790, Pitch_bend_c, 14, 7306
1, 46794, Pitch_bend_c, 3, 5794
1, 46795, Note_off_c, 5, 51, 64
1, 46797, Note_off_c, 8, 51, 64
1, 46797, Note_off_c, 4, 51, 64
1, 46797, Note_off_c, 1, 39, 64
1, 46797, Note_on_c, 5, 51, 114
1, 46799, Note_on_c, 14, 65, 103
1, 46799, Note_on_c, 1, 39, 127
1, 46799, Note_on_c, 4, 51, 114
1, 46799, Note_on_c, 8, 51, 107
1, 46800, Note_on_c, 9, 42, 50
1, 46801, Note_off_c, 9, 42, 64
1, 46801, Note_on_c, 15, 63, 102
1, 46802, Note_on_c, 3, 68, 107
1, 46802, Pitch_bend_c, 14, 5920
1, 46802, Pitch_bend_c, 5, 10307
1, 46803, Pitch_bend_c, 1, 12288
1, 46803, Pitch_bend_c, 8, 12288
1, 46804, Pitch_bend_c, 4, 10112
1, 46805, Pitch_bend_c, 5, 12704
1, 46806, Pitch_bend_c, 1, 16320
1, 46806, Pitch_bend_c, 8, 16320
1, 46807, Pitch_bend_c, 3, 4534
1, 46807, Pitch_bend_c, 5, 14890
1, 46807, Pitch_bend_c, 4, 12288
1, 46809, Pitch_bend_c, 5, 16383
1, 46809, Pitch_bend_c, 4, 14272
1, 46811, Note_off_c, 15, 63, 64
1, 46811, Pitch_bend_c, 4, 16320
1, 46812, Pitch_bend_c, 14, 6298
1, 46817, Pitch_bend_c, 3, 8192
1, 46819, Note_off_c, 14, 65, 64
1, 46824, Pitch_bend_c, 14, 8192
1, 46844, Note_off_c, 11, 78, 64
1, 46844, Note_off_c, 0, 66, 64
1, 46844, Note_off_c, 0, 58, 64
1, 46844, Note_off_c, 0, 63, 64
1, 46844, Note_off_c, 11, 82, 64
1, 46848, Note_off_c, 2, 63, 64
1, 46848, Note_on_c, 9, 42, 110
1, 46848, Note_on_c, 9, 36, 90
1, 46848, Note_on_c, 0, 56, 78
1, 46848, Note_on_c, 0, 65, 72
1, 46848, Note_on_c, 0, 61, 75
1, 46848, Note_on_c, 11, 80, 64
1, 46848, Note_on_c, 11, 77, 64
1, 46848, Note_on_c, 2, 70, 94
1, 46849, Note_off_c, 9, 36, 64
1, 46849, Note_off_c, 9, 42, 64
1, 46849, Note_off_c, 3, 68, 64
1, 46849, Note_on_c, 2, 73, 94
1, 46850, Note_off_c, 2, 75, 64
1, 46892, Note_off_c, 5, 51, 64
1, 46893, Pitch_bend_c, 5, 8192
1, 46894, Note_off_c, 4, 51, 64
1, 46894, Note_off_c, 1, 39, 64
1, 46894, Note_off_c, 8, 51, 64
1, 46894, Note_on_c, 5, 51, 114
1, 46895, Note_on_c, 14, 63, 107
1, 46895, Pitch_bend_c, 1, 8192
1, 46895, Pitch_bend_c, 4, 8192
1, 46895, Pitch_bend_c, 8, 8192
1, 46896, Note_on_c, 15, 61, 102
1, 46896, Note_on_c, 9, 42, 50
1, 46896, Note_on_c, 1, 39, 127
1, 46896, Note_on_c, 4, 51, 114
1, 46896, Note_on_c, 8, 51, 107
1, 46897, Note_off_c, 9, 42, 64
1, 46898, Note_on_c, 3, 66, 107
1, 46908, Note_off_c, 15, 61, 64
1, 46908, Note_off_c, 14, 63, 64
1, 46921, Note_off_c, 3, 66, 64
1, 46936, Note_off_c, 5, 51, 64
1, 46938, Note_off_c, 1, 39, 64
1, 46938, Note_off_c, 8, 51, 64
1, 46938, Note_off_c, 4, 51, 64
1, 46942, Note_on_c, 5, 49, 114
1, 46943, Note_on_c, 14, 65, 103
1, 46944, Note_on_c, 15, 63, 102
1, 46944, Note_on_c, 9, 42, 110
1, 46944, Note_on_c, 9, 38, 115
1, 46944, Note_on_c, 9, 36, 90
1, 46944, Note_on_c, 1, 37, 127
1, 46944, Note_on_c, 4, 49, 114
1, 46944, Note_on_c, 8, 49, 107
1, 46945, Note_off_c, 9, 36, 64
1, 46945, Note_off_c, 9, 38, 64
1, 46945, Note_off_c, 9, 42, 64
1, 46946, Note_on_c, 3, 68, 105
1, 46956, Note_off_c, 15, 63, 64
1, 46962, Note_off_c, 14, 65, 64
1, 46966, Note_off_c, 3, 68, 64
1, 46982, Note_off_c, 8, 49, 64
1, 46982, Note_off_c, 1, 37, 64
1, 46983, Note_off_c, 5, 49, 64
1, 46985, Note_off_c, 4, 49, 64
1, 46992, Note_on_c, 9, 42, 50
1, 46993, Note_off_c, 9, 42, 64
1, 47002, Pitch_bend_c, 15, 7810
1, 47012, Pitch_bend_c, 15, 4534
1, 47021, Pitch_bend_c, 15, 2770
1, 47031, Pitch_bend_c, 15, 8192
1, 47038, Note_on_c, 14, 63, 110
1, 47039, Note_on_c, 15, 61, 101
1, 47040, Note_on_c, 9, 42, 110
1, 47041, Note_off_c, 9, 42, 64
1, 47041, Note_on_c, 3, 66, 108
1, 47055, Note_off_c, 15, 61, 64
1, 47055, Note_off_c, 14, 63, 64
1, 47065, Note_off_c, 3, 66, 64
1, 47088, Note_on_c, 9, 42, 50
1, 47088, Note_on_c, 9, 36, 90
1, 47089, Note_off_c, 9, 36, 64
1, 47089, Note_off_c, 9, 42, 64
1, 47136, Note_on_c, 14, 65, 110
1, 47136, Note_on_c, 15, 63, 102
1, 47136, Note_on_c, 9, 42, 110
1, 47136, Note_on_c, 9, 38, 115
1, 47137, Note_off_c, 9, 38, 64
1, 47137, Note_off_c, 9, 42, 64
1, 47137, Note_on_c, 3, 68, 108
1, 47137, Note_on_c, 9, 39, 127
1, 47138, Note_off_c, 9, 39, 64
1, 47143, Note_on_c, 10, 39, 127
1, 47144, Note_off_c, 10, 39, 64
1, 47146, Note_off_c, 15, 63, 64
1, 47158, Note_off_c, 14, 65, 64
1, 47161, Note_off_c, 3, 68, 64
1, 47181, Pitch_bend_c, 5, 8192
1, 47182, Note_on_c, 5, 39, 114
1, 47183, Pitch_bend_c, 4, 8192
1, 47184, Note_on_c, 9, 42, 50
1, 47184, Note_on_c, 1, 27, 127
1, 47184, Note_on_c, 4, 39, 114
1, 47184, Note_on_c, 8, 39, 107
1, 47185, Note_off_c, 9, 42, 64
1, 47212, Note_off_c, 2, 70, 64
1, 47213, Pitch_bend_c, 14, 7810
1, 47215, Pitch_bend_c, 15, 6298
1, 47218, Note_off_c, 2, 73, 64
1, 47219, Pitch_bend_c, 3, 6298
1, 47222, Pitch_bend_c, 14, 5794
1, 47224, Pitch_bend_c, 15, 1636
1, 47228, Note_off_c, 11, 77, 64
1, 47228, Note_off_c, 0, 61, 64
1, 47228, Note_off_c, 0, 65, 64
1, 47228, Note_off_c, 11, 80, 64
1, 47228, Note_off_c, 0, 56, 64
1, 47229, Pitch_bend_c, 3, 3904
1, 47229, Note_on_c, 2, 70, 94
1, 47232, Note_on_c, 15, 70, 102
1, 47232, Note_on_c, 9, 42, 110
1, 47232, Note_on_c, 9, 36, 90
1, 47232, Note_on_c, 0, 63, 78
1, 47232, Note_on_c, 0, 58, 76
1, 47232, Note_on_c, 0, 66, 69
1, 47232, Note_on_c, 11, 82, 64
1, 47232, Note_on_c, 11, 78, 64
1, 47232, Note_on_c, 2, 66, 94
1, 47233, Note_off_c, 9, 36, 64
1, 47233, Note_off_c, 9, 42, 64
1, 47233, Note_on_c, 14, 70, 111
1, 47233, Pitch_bend_c, 15, 2896
1, 47234, Note_on_c, 3, 70, 108
1, 47242, Pitch_bend_c, 3, 7558
1, 47243, Pitch_bend_c, 14, 6928
1, 47245, Pitch_bend_c, 15, 8192
1, 47252, Pitch_bend_c, 3, 8192
1, 47253, Pitch_bend_c, 14, 8192
1, 47262, Note_off_c, 14, 70, 64
1, 47266, Note_off_c, 3, 70, 64
1, 47271, Note_off_c, 15, 70, 64
1, 47277, Note_off_c, 5, 39, 64
1, 47278, Note_on_c, 5, 42, 114
1, 47279, Note_off_c, 4, 39, 64
1, 47279, Note_off_c, 1, 27, 64
1, 47279, Note_off_c, 8, 39, 64
1, 47280, Note_on_c, 9, 42, 50
1, 47280, Note_on_c, 1, 30, 127
1, 47280, Note_on_c, 4, 42, 114
1, 47280, Note_on_c, 8, 42, 107
1, 47281, Note_off_c, 9, 42, 64
1, 47281, Note_on_c, 14, 70, 111
1, 47281, Note_on_c, 15, 70, 101
1, 47284, Note_on_c, 3, 70, 107
1, 47309, Control_c, 3, 1, 40
1, 47320, Control_c, 3, 1, 53
1, 47325, Note_off_c, 5, 42, 64
1, 47326, Note_on_c, 5, 46, 114
1, 47327, Note_off_c, 1, 30, 64
1, 47327, Note_off_c, 8, 42, 64
1, 47327, Note_off_c, 4, 42, 64
1, 47328, Note_on_c, 9, 42, 110
1, 47328, Note_on_c, 9, 38, 115
1, 47328, Note_on_c, 1, 34, 127
1, 47328, Note_on_c, 4, 46, 114
1, 47328, Note_on_c, 8, 46, 107
1, 47329, Note_off_c, 9, 38, 64
1, 47329, Note_off_c, 9, 42, 64
1, 47330, Control_c, 3, 1, 90
1, 47340, Control_c, 3, 1, 95
1, 47351, Control_c, 3, 1, 100
1, 47361, Control_c, 3, 1, 99
1, 47373, Note_off_c, 5, 46, 64
1, 47374, Note_on_c, 5, 54, 114
1, 47375, Note_off_c, 8, 46, 64
1, 47375, Note_off_c, 4, 46, 64
1, 47375, Note_off_c, 1, 34, 64
1, 47376, Note_on_c, 9, 42, 50
1, 47376, Note_on_c, 1, 42, 127
1, 47376, Note_on_c, 4, 54, 114
1, 47376, Note_on_c, 8, 54, 107
1, 47377, Note_off_c, 9, 42, 64
1, 47379, Control_c, 3, 1, 90
1, 47389, Control_c, 3, 1, 64
1, 47397, Note_off_c, 3, 70, 64
1, 47399, Note_off_c, 15, 70, 64
1, 47399, Control_c, 3, 1, 0
1, 47409, Note_off_c, 14, 70, 64
1, 47416, Pitch_bend_c, 15, 5920
1, 47419, Pitch_bend_c, 14, 6298
1, 47421, Note_off_c, 5, 54, 64
1, 47422, Note_on_c, 5, 51, 114
1, 47423, Note_off_c, 1, 42, 64
1, 47423, Note_off_c, 8, 54, 64
1, 47423, Note_off_c, 4, 54, 64
1, 47424, Note_on_c, 15, 63, 102
1, 47424, Note_on_c, 9, 42, 110
1, 47424, Note_on_c, 9, 36, 90
1, 47424, Note_on_c, 1, 39, 127
1, 47424, Note_on_c, 4, 51, 114
1, 47424, Note_on_c, 8, 51, 107
1, 47425, Note_off_c, 9, 36, 64
1, 47425, Note_off_c, 9, 42, 64
1, 47425, Note_on_c, 14, 66, 111
1, 47428, Pitch_bend_c, 15, 8192
1, 47432, Pitch_bend_c, 14, 7810
1, 47435, Pitch_bend_c, 5, 8249
1, 47437, Pitch_bend_c, 4, 8244
1, 47439, Pitch_bend_c, 5, 8708
1, 47441, Pitch_bend_c, 4, 8660
1, 47442, Pitch_bend_c, 14, 8192
1, 47446, Pitch_bend_c, 5, 8364
1, 47448, Note_off_c, 14, 66, 64
1, 47448, Pitch_bend_c, 4, 8348
1, 47450, Pitch_bend_c, 5, 8192
1, 47452, Pitch_bend_c, 4, 8192
1, 47465, Note_off_c, 15, 63, 64
1, 47466, Pitch_bend_c, 5, 8249
1, 47468, Pitch_bend_c, 4, 8244
1, 47470, Pitch_bend_c, 5, 8478
1, 47471, Note_on_c, 14, 66, 108
1, 47472, Note_on_c, 9, 42, 50
1, 47472, Pitch_bend_c, 4, 8452
1, 47473, Note_off_c, 9, 42, 64
1, 47473, Pitch_bend_c, 5, 8708
1, 47474, Note_on_c, 15, 63, 98
1, 47475, Pitch_bend_c, 4, 8660
1, 47481, Pitch_bend_c, 5, 8593
1, 47483, Pitch_bend_c, 4, 8556
1, 47485, Pitch_bend_c, 5, 8192
1, 47487, Pitch_bend_c, 4, 8192
1, 47497, Pitch_bend_c, 5, 8249
1, 47499, Pitch_bend_c, 4, 8244
1, 47501, Pitch_bend_c, 5, 8823
1, 47503, Pitch_bend_c, 4, 8765
1, 47505, Pitch_bend_c, 5, 9052
1, 47507, Pitch_bend_c, 4, 8973
1, 47512, Pitch_bend_c, 5, 8364
1, 47514, Pitch_bend_c, 4, 8348
1, 47517, Pitch_bend_c, 5, 8192
1, 47519, Pitch_bend_c, 4, 8192
1, 47520, Note_on_c, 9, 42, 110
1, 47520, Note_on_c, 9, 38, 115
1, 47521, Note_off_c, 9, 38, 64
1, 47521, Note_off_c, 9, 42, 64
1, 47521, Note_on_c, 9, 39, 127
1, 47522, Note_off_c, 9, 39, 64
1, 47524, Pitch_bend_c, 5, 8593
1, 47526, Pitch_bend_c, 4, 8556
1, 47527, Note_on_c, 10, 39, 127
1, 47528, Note_off_c, 10, 39, 64
1, 47528, Pitch_bend_c, 5, 9453
1, 47530, Pitch_bend_c, 4, 9337
1, 47532, Pitch_bend_c, 5, 9797
1, 47534, Pitch_bend_c, 4, 9649
1, 47540, Pitch_bend_c, 5, 9110
1, 47542, Pitch_bend_c, 4, 9025
1, 47544, Pitch_bend_c, 5, 8192
1, 47546, Pitch_bend_c, 4, 8192
1, 47563, Note_off_c, 5, 51, 64
1, 47565, Note_off_c, 8, 51, 64
1, 47565, Note_off_c, 4, 51, 64
1, 47565, Note_off_c, 1, 39, 64
1, 47565, Note_on_c, 5, 51, 114
1, 47567, Note_on_c, 1, 39, 127
1, 47567, Note_on_c, 4, 51, 114
1, 47567, Note_on_c, 8, 51, 107
1, 47568, Note_on_c, 9, 42, 50
1, 47569, Note_off_c, 9, 42, 64
1, 47570, Pitch_bend_c, 1, 12288
1, 47570, Pitch_bend_c, 5, 12704
1, 47570, Pitch_bend_c, 5, 10307
1, 47570, Pitch_bend_c, 8, 12288
1, 47572, Pitch_bend_c, 4, 10112
1, 47573, Pitch_bend_c, 1, 16320
1, 47573, Pitch_bend_c, 8, 16320
1, 47577, Pitch_bend_c, 5, 14890
1, 47579, Pitch_bend_c, 5, 16383
1, 47579, Pitch_bend_c, 4, 14272
1, 47581, Pitch_bend_c, 4, 16320
1, 47587, Note_off_c, 14, 66, 64
1, 47590, Pitch_bend_c, 3, 7810
1, 47591, Note_off_c, 15, 63, 64
1, 47592, Note_off_c, 2, 70, 64
1, 47592, Pitch_bend_c, 14, 7810
1, 47593, Note_off_c, 2, 66, 64
1, 47595, Pitch_bend_c, 3, 5794
1, 47596, Pitch_bend_c, 15, 7306
1, 47599, Pitch_bend_c, 14, 3778
1, 47600, Pitch_bend_c, 3, 4408
1, 47605, Pitch_bend_c, 3, 3274
1, 47606, Pitch_bend_c, 14, 3148
1, 47607, Pitch_bend_c, 15, 8192
1, 47610, Pitch_bend_c, 3, 2644
1, 47612, Note_off_c, 11, 78, 64
1, 47612, Note_off_c, 0, 63, 64
1, 47612, Note_off_c, 0, 66, 64
1, 47612, Note_off_c, 0, 58, 64
1, 47612, Note_off_c, 11, 82, 64
1, 47614, Note_on_c, 14, 70, 111
1, 47614, Note_on_c, 2, 68, 94
1, 47616, Pitch_bend_c, 14, 7684
1, 47616, Note_on_c, 15, 70, 102
1, 47616, Note_on_c, 9, 42, 110
1, 47616, Note_on_c, 9, 36, 90
1, 47616, Note_on_c, 0, 56, 78
1, 47616, Note_on_c, 0, 65, 72
1, 47616, Note_on_c, 0, 61, 75
1, 47616, Note_on_c, 11, 80, 64
1, 47616, Note_on_c, 11, 77, 64
1, 47616, Note_on_c, 2, 65, 94
1, 47617, Note_off_c, 9, 36, 64
1, 47617, Note_off_c, 9, 42, 64
1, 47618, Note_on_c, 3, 70, 107
1, 47622, Pitch_bend_c, 3, 4408
1, 47623, Pitch_bend_c, 14, 8192
1, 47627, Pitch_bend_c, 3, 6172
1, 47632, Pitch_bend_c, 3, 8192
1, 47646, Note_off_c, 14, 70, 64
1, 47653, Note_off_c, 15, 70, 64
1, 47655, Note_off_c, 3, 70, 64
1, 47656, Note_off_c, 5, 51, 64
1, 47658, Note_off_c, 4, 51, 64
1, 47661, Note_off_c, 1, 39, 64
1, 47661, Note_off_c, 8, 51, 64
1, 47661, Pitch_bend_c, 5, 8192
1, 47662, Note_on_c, 5, 51, 114
1, 47663, Note_on_c, 14, 70, 110
1, 47663, Pitch_bend_c, 1, 8192
1, 47663, Pitch_bend_c, 4, 8192
1, 47663, Pitch_bend_c, 8, 8192
1, 47664, Note_on_c, 9, 42, 50
1, 47664, Note_on_c, 1, 39, 127
1, 47664, Note_on_c, 4, 51, 114
1, 47664, Note_on_c, 8, 51, 107
1, 47665, Note_off_c, 9, 42, 64
1, 47665, Note_on_c, 15, 70, 101
1, 47669, Note_on_c, 3, 70, 104
1, 47685, Control_c, 3, 1, 28
1, 47690, Control_c, 3, 1, 71
1, 47695, Control_c, 3, 1, 105
1, 47706, Control_c, 3, 1, 113
1, 47707, Note_off_c, 5, 51, 64
1, 47709, Note_off_c, 1, 39, 64
1, 47709, Note_off_c, 8, 51, 64
1, 47709, Note_off_c, 4, 51, 64
1, 47710, Note_on_c, 5, 49, 114
1, 47712, Note_on_c, 9, 42, 110
1, 47712, Note_on_c, 9, 38, 115
1, 47712, Note_on_c, 9, 36, 90
1, 47712, Note_on_c, 1, 37, 127
1, 47712, Note_on_c, 4, 49, 114
1, 47712, Note_on_c, 8, 49, 107
1, 47713, Note_off_c, 9, 36, 64
1, 47713, Note_off_c, 9, 38, 64
1, 47713, Note_off_c, 9, 42, 64
1, 47717, Control_c, 3, 1, 115
1, 47727, Control_c, 3, 1, 116
1, 47738, Control_c, 3, 1, 113
1, 47748, Note_off_c, 5, 49, 64
1, 47749, Control_c, 3, 1, 114
1, 47750, Note_off_c, 4, 49, 64
1, 47750, Note_off_c, 1, 37, 64
1, 47750, Note_off_c, 8, 49, 64
1, 47760, Control_c, 3, 1, 104
1, 47760, Note_on_c, 9, 42, 50
1, 47761, Note_off_c, 9, 42, 64
1, 47765, Control_c, 3, 1, 90
1, 47771, Control_c, 3, 1, 37
1, 47771, Pitch_bend_c, 14, 7558
1, 47773, Note_off_c, 3, 70, 64
1, 47776, Control_c, 3, 1, 0
1, 47777, Pitch_bend_c, 14, 4534
1, 47780, Note_off_c, 14, 70, 64
1, 47784, Pitch_bend_c, 14, 4030
1, 47787, Note_off_c, 15, 70, 64
1, 47789, Pitch_bend_c, 15, 6802
1, 47791, Pitch_bend_c, 14, 3526
1, 47800, Pitch_bend_c, 15, 2392
1, 47805, Note_on_c, 14, 65, 107
1, 47806, Note_on_c, 5, 49, 114
1, 47807, Pitch_bend_c, 14, 4156
1, 47808, Note_on_c, 9, 42, 110
1, 47808, Note_on_c, 1, 37, 127
1, 47808, Note_on_c, 4, 49, 114
1, 47808, Note_on_c, 8, 49, 107
1, 47809, Note_off_c, 9, 42, 64
1, 47809, Pitch_bend_c, 15, 8192
1, 47809, Note_on_c, 15, 61, 102
1, 47814, Pitch_bend_c, 14, 7810
1, 47821, Pitch_bend_c, 14, 8192
1, 47843, Note_off_c, 1, 37, 64
1, 47843, Note_off_c, 8, 49, 64
1, 47843, Note_off_c, 14, 65, 64
1, 47844, Note_off_c, 15, 61, 64
1, 47846, Note_off_c, 5, 49, 64
1, 47848, Note_off_c, 4, 49, 64
1, 47855, Note_on_c, 14, 65, 103
1, 47856, Note_on_c, 9, 42, 50
1, 47856, Note_on_c, 9, 36, 90
1, 47857, Note_off_c, 9, 36, 64
1, 47857, Note_off_c, 9, 42, 64
1, 47857, Note_on_c, 15, 61, 99
1, 47904, Note_on_c, 9, 42, 110
1, 47904, Note_on_c, 9, 38, 115
1, 47905, Note_off_c, 9, 38, 64
1, 47905, Note_off_c, 9, 42, 64
1, 47905, Note_on_c, 9, 39, 127
1, 47906, Note_off_c, 9, 39, 64
1, 47911, Note_on_c, 10, 39, 127
1, 47912, Note_off_c, 10, 39, 64
1, 47929, Note_off_c, 15, 61, 64
1, 47940, Note_off_c, 14, 65, 64
1, 47943, Pitch_bend_c, 3, 7684
1, 47948, Pitch_bend_c, 3, 5920
1, 47948, Pitch_bend_c, 15, 1636
1, 47950, Pitch_bend_c, 14, 4282
1, 47950, Note_on_c, 5, 39, 114
1, 47952, Note_on_c, 14, 66, 109
1, 47952, Note_on_c, 9, 42, 50
1, 47952, Note_on_c, 1, 27, 127
1, 47952, Note_on_c, 4, 39, 114
1, 47952, Note_on_c, 8, 39, 107
1, 47953, Note_off_c, 9, 42, 64
1, 47953, Pitch_bend_c, 3, 2014
1, 47953, Note_on_c, 15, 63, 102
1, 47958, Note_on_c, 3, 70, 107
1, 47958, Pitch_bend_c, 3, 1636
1, 47959, Pitch_bend_c, 14, 2266
1, 47961, Pitch_bend_c, 15, 3652
1, 47965, Pitch_bend_c, 3, 5416
1, 47967, Pitch_bend_c, 14, 7558
1, 47970, Pitch_bend_c, 3, 8192
1, 47971, Pitch_bend_c, 15, 8192
1, 47974, Pitch_bend_c, 14, 8192
1, 47985, Note_off_c, 2, 68, 64
1, 47987, Note_off_c, 2, 65, 64
1, 47995, Note_on_c, 2, 70, 94
1, 47996, Note_off_c, 11, 77, 64
1, 47996, Note_off_c, 11, 80, 64
1, 47996, Note_off_c, 0, 61, 64
1, 47996, Note_off_c, 0, 65, 64
1, 47996, Note_off_c, 0, 56, 64
1, 47997, Note_on_c, 2, 66, 94
1, 48000, Note_on_c, 9, 42, 110
1, 48000, Note_on_c, 9, 36, 90
1, 48000, Note_on_c, 0, 63, 78
1, 48000, Note_on_c, 0, 58, 76
1, 48000, Note_on_c, 0, 66, 69
1, 48000, Note_on_c, 11, 82, 64
1, 48000, Note_on_c, 11, 78, 64
1, 48001, Note_off_c, 9, 36, 64
1, 48001, Note_off_c, 9, 42, 64
1, 48016, Note_off_c, 3, 70, 64
1, 48020, Note_off_c, 14, 66, 64
1, 48023, Note_off_c, 15, 63, 64
1, 48044, Note_off_c, 5, 39, 64
1, 48046, Note_off_c, 4, 39, 64
1, 48046, Note_off_c, 8, 39, 64
1, 48046, Note_off_c, 1, 27, 64
1, 48046, Note_on_c, 5, 42, 114
1, 48047, Note_on_c, 14, 66, 105
1, 48048, Note_on_c, 15, 63, 97
1, 48048, Note_on_c, 9, 42, 50
1, 48048, Note_on_c, 1, 30, 127
1, 48048, Note_on_c, 4, 42, 114
1, 48048, Note_on_c, 8, 42, 107
1, 48049, Note_off_c, 9, 42, 64
1, 48051, Note_on_c, 3, 70, 104
1, 48059, Note_off_c, 14, 66, 64
1, 48061, Note_off_c, 3, 70, 64
1, 48063, Note_off_c, 15, 63, 64
1, 48092, Note_off_c, 5, 42, 64
1, 48094, Note_off_c, 1, 30, 64
1, 48094, Note_off_c, 8, 42, 64
1, 48094, Note_off_c, 4, 42, 64
1, 48094, Note_on_c, 5, 46, 114
1, 48095, Note_on_c, 14, 66, 109
1, 48095, Note_on_c, 15, 63, 100
1, 48096, Note_on_c, 9, 42, 110
1, 48096, Note_on_c, 9, 38, 115
1, 48096, Note_on_c, 1, 34, 127
1, 48096, Note_on_c, 4, 46, 114
1, 48096, Note_on_c, 8, 46, 107
1, 48097, Note_off_c, 9, 38, 64
1, 48097, Note_off_c, 9, 42, 64
1, 48098, Note_on_c, 3, 70, 104
1, 48107, Note_off_c, 15, 63, 64
1, 48110, Note_off_c, 14, 66, 64
1, 48111, Note_off_c, 3, 70, 64
1, 48140, Note_off_c, 5, 46, 64
1, 48142, Note_off_c, 8, 46, 64
1, 48142, Note_off_c, 4, 46, 64
1, 48142, Note_off_c, 1, 34, 64
1, 48142, Note_on_c, 14, 66, 106
1, 48142, Note_on_c, 5, 54, 114
1, 48143, Note_on_c, 15, 63, 98
1, 48144, Note_on_c, 9, 42, 50
1, 48144, Note_on_c, 1, 42, 127
1, 48144, Note_on_c, 4, 54, 114
1, 48144, Note_on_c, 8, 54, 107
1, 48145, Note_off_c, 9, 42, 64
1, 48145, Note_on_c, 3, 70, 105
1, 48160, Note_off_c, 15, 63, 64
1, 48160, Note_off_c, 3, 70, 64
1, 48167, Note_off_c, 14, 66, 64
1, 48167, Pitch_bend_c, 15, 5164
1, 48178, Pitch_bend_c, 15, 3778
1, 48182, Pitch_bend_c, 3, 7180
1, 48185, Pitch_bend_c, 14, 3778
1, 48188, Note_off_c, 5, 54, 64
1, 48188, Pitch_bend_c, 15, 5920
1, 48190, Note_off_c, 1, 42, 64
1, 48190, Note_off_c, 8, 54, 64
1, 48190, Note_off_c, 4, 54, 64
1, 48190, Note_on_c, 5, 51, 114
1, 48191, Pitch_bend_c, 3, 4156
1, 48191, Note_on_c, 14, 70, 111
1, 48192, Note_on_c, 15, 66, 102
1, 48192, Note_on_c, 9, 42, 110
1, 48192, Note_on_c, 9, 36, 90
1, 48192, Note_on_c, 1, 39, 127
1, 48192, Note_on_c, 4, 51, 114
1, 48192, Note_on_c, 8, 51, 107
1, 48193, Note_off_c, 9, 36, 64
1, 48193, Note_off_c, 9, 42, 64
1, 48193, Note_on_c, 3, 73, 107
1, 48195, Pitch_bend_c, 14, 1510
1, 48198, Pitch_bend_c, 3, 6676
1, 48201, Pitch_bend_c, 15, 8192
1, 48203, Pitch_bend_c, 14, 2392
1, 48205, Pitch_bend_c, 3, 8192
1, 48210, Pitch_bend_c, 14, 8192
1, 48215, Pitch_bend_c, 5, 8478
1, 48217, Pitch_bend_c, 4, 8452
1, 48219, Pitch_bend_c, 5, 9110
1, 48221, Control_c, 15, 1, 122
1, 48221, Pitch_bend_c, 4, 9025
1, 48223, Pitch_bend_c, 5, 9568
1, 48225, Pitch_bend_c, 4, 9441
1, 48227, Pitch_bend_c, 5, 9682
1, 48229, Pitch_bend_c, 4, 9545
1, 48231, Control_c, 15, 1, 123
1, 48235, Pitch_bend_c, 5, 7855
1, 48237, Pitch_bend_c, 4, 7886
1, 48238, Pitch_bend_c, 5, 8192
1, 48240, Note_on_c, 9, 42, 50
1, 48240, Pitch_bend_c, 4, 8192
1, 48241, Note_off_c, 9, 42, 64
1, 48250, Pitch_bend_c, 5, 8249
1, 48252, Pitch_bend_c, 4, 8244
1, 48254, Pitch_bend_c, 5, 9797
1, 48256, Pitch_bend_c, 4, 9649
1, 48258, Pitch_bend_c, 5, 9913
1, 48260, Pitch_bend_c, 4, 9754
1, 48261, Control_c, 15, 1, 0
1, 48265, Pitch_bend_c, 5, 9110
1, 48267, Pitch_bend_c, 4, 9025
1, 48269, Pitch_bend_c, 5, 8192
1, 48270, Note_off_c, 15, 66, 64
1, 48271, Note_off_c, 3, 73, 64
1, 48271, Pitch_bend_c, 4, 8192
1, 48272, Note_off_c, 14, 70, 64
1, 48277, Pitch_bend_c, 5, 8478
1, 48279, Pitch_bend_c, 4, 8452
1, 48281, Pitch_bend_c, 5, 9568
1, 48283, Pitch_bend_c, 4, 9441
1, 48285, Pitch_bend_c, 5, 9970
1, 48286, Note_on_c, 14, 66, 107
1, 48287, Note_on_c, 15, 63, 101
1, 48287, Pitch_bend_c, 4, 9806
1, 48288, Note_on_c, 9, 42, 110
1, 48288, Note_on_c, 9, 38, 115
1, 48289, Note_off_c, 9, 38, 64
1, 48289, Note_off_c, 9, 42, 64
1, 48289, Pitch_bend_c, 5, 10084
1, 48289, Note_on_c, 9, 39, 127
1, 48290, Note_off_c, 9, 39, 64
1, 48290, Note_on_c, 3, 70, 105
1, 48291, Pitch_bend_c, 4, 9910
1, 48293, Pitch_bend_c, 5, 9913
1, 48295, Note_on_c, 10, 39, 127
1, 48295, Pitch_bend_c, 4, 9754
1, 48296, Note_off_c, 10, 39, 64
1, 48297, Pitch_bend_c, 5, 8192
1, 48299, Pitch_bend_c, 4, 8192
1, 48302, Note_off_c, 15, 63, 64
1, 48302, Note_off_c, 3, 70, 64
1, 48304, Note_off_c, 14, 66, 64
1, 48325, Pitch_bend_c, 3, 7810
1, 48331, Note_off_c, 5, 51, 64
1, 48331, Pitch_bend_c, 3, 3652
1, 48332, Pitch_bend_c, 14, 5920
1, 48333, Note_off_c, 8, 51, 64
1, 48333, Note_off_c, 4, 51, 64
1, 48333, Note_off_c, 1, 39, 64
1, 48333, Pitch_bend_c, 15, 4912
1, 48333, Note_on_c, 5, 51, 114
1, 48335, Note_on_c, 1, 39, 127
1, 48335, Note_on_c, 4, 51, 114
1, 48335, Note_on_c, 8, 51, 107
1, 48336, Note_on_c, 14, 68, 111
1, 48336, Note_on_c, 15, 65, 99
1, 48336, Note_on_c, 9, 42, 50
1, 48337, Note_off_c, 9, 42, 64
1, 48338, Pitch_bend_c, 3, 2770
1, 48338, Pitch_bend_c, 5, 10307
1, 48339, Pitch_bend_c, 1, 12288
1, 48339, Pitch_bend_c, 8, 12288
1, 48340, Note_on_c, 3, 73, 107
1, 48340, Pitch_bend_c, 4, 10112
1, 48341, Pitch_bend_c, 5, 12704
1, 48342, Pitch_bend_c, 14, 1762
1, 48342, Pitch_bend_c, 1, 16320
1, 48342, Pitch_bend_c, 8, 16320
1, 48343, Pitch_bend_c, 5, 14890
1, 48343, Pitch_bend_c, 4, 12288
1, 48345, Pitch_bend_c, 5, 16383
1, 48345, Pitch_bend_c, 4, 14272
1, 48346, Pitch_bend_c, 15, 4156
1, 48347, Pitch_bend_c, 3, 8192
1, 48347, Pitch_bend_c, 4, 16320
1, 48351, Pitch_bend_c, 14, 7558
1, 48356, Pitch_bend_c, 15, 8192
1, 48359, Pitch_bend_c, 14, 8192
1, 48370, Note_off_c, 2, 66, 64
1, 48372, Note_off_c, 2, 70, 64
1, 48380, Note_off_c, 11, 82, 64
1, 48380, Note_off_c, 0, 58, 64
1, 48380, Note_off_c, 0, 63, 64
1, 48380, Note_off_c, 0, 66, 64
1, 48380, Note_off_c, 11, 78, 64
1, 48382, Note_on_c, 2, 65, 94
1, 48384, Note_on_c, 9, 42, 110
1, 48384, Note_on_c, 9, 36, 90
1, 48384, Note_on_c, 0, 56, 78
1, 48384, Note_on_c, 0, 65, 72
1, 48384, Note_on_c, 0, 61, 75
1, 48384, Note_on_c, 11, 80, 64
1, 48384, Note_on_c, 11, 77, 64
1, 48384, Note_on_c, 2, 68, 94
1, 48385, Note_off_c, 9, 36, 64
1, 48385, Note_off_c, 9, 42, 64
1, 48421, Note_off_c, 14, 68, 64
1, 48422, Note_off_c, 15, 65, 64
1, 48422, Note_off_c, 3, 73, 64
1, 48428, Note_off_c, 5, 51, 64
1, 48429, Pitch_bend_c, 5, 8192
1, 48430, Note_off_c, 1, 39, 64
1, 48430, Note_off_c, 8, 51, 64
1, 48430, Note_off_c, 4, 51, 64
1, 48430, Note_on_c, 5, 51, 114
1, 48431, Pitch_bend_c, 1, 8192
1, 48431, Pitch_bend_c, 4, 8192
1, 48431, Pitch_bend_c, 8, 8192
1, 48432, Note_on_c, 14, 65, 106
1, 48432, Note_on_c, 15, 61, 102
1, 48432, Note_on_c, 9, 42, 50
1, 48432, Note_on_c, 1, 39, 127
1, 48432, Note_on_c, 4, 51, 114
1, 48432, Note_on_c, 8, 51, 107
1, 48433, Note_off_c, 9, 42, 64
1, 48434, Note_on_c, 3, 70, 107
1, 48444, Note_off_c, 3, 70, 64
1, 48446, Note_off_c, 15, 61, 64
1, 48451, Note_off_c, 14, 65, 64
1, 48472, Note_off_c, 5, 51, 64
1, 48474, Note_off_c, 1, 39, 64
1, 48474, Note_off_c, 8, 51, 64
1, 48474, Note_off_c, 4, 51, 64
1, 48478, Note_on_c, 5, 49, 114
1, 48480, Note_on_c, 9, 42, 110
1, 48480, Note_on_c, 9, 38, 115
1, 48480, Note_on_c, 9, 36, 90
1, 48480, Note_on_c, 1, 37, 127
1, 48480, Note_on_c, 4, 49, 114
1, 48480, Note_on_c, 8, 49, 107
1, 48481, Note_off_c, 9, 36, 64
1, 48481, Note_off_c, 9, 38, 64
1, 48481, Note_off_c, 9, 42, 64
1, 48518, Note_off_c, 8, 49, 64
1, 48518, Note_off_c, 1, 37, 64
1, 48519, Note_off_c, 5, 49, 64
1, 48521, Note_off_c, 4, 49, 64
1, 48528, Note_on_c, 9, 42, 50
1, 48529, Note_off_c, 9, 42, 64
1, 48576, Note_on_c, 9, 42, 110
1, 48577, Note_off_c, 9, 42, 64
1, 48624, Note_on_c, 9, 42, 50
1, 48624, Note_on_c, 9, 36, 90
1, 48625, Note_off_c, 9, 36, 64
1, 48625, Note_off_c, 9, 42, 64
1, 48672, Note_on_c, 9, 42, 110
1, 48672, Note_on_c, 9, 38, 115
1, 48673, Note_off_c, 9, 38, 64
1, 48673, Note_off_c, 9, 42, 64
1, 48673, Note_on_c, 9, 39, 127
1, 48674, Note_off_c, 9, 39, 64
1, 48679, Note_on_c, 10, 39, 127
1, 48680, Note_off_c, 10, 39, 64
1, 48691, Pitch_bend_c, 15, 7810
1, 48698, Pitch_bend_c, 15, 7180
1, 48699, Pitch_bend_c, 14, 6424
1, 48704, Pitch_bend_c, 14, 3652
1, 48704, Pitch_bend_c, 15, 4912
1, 48709, Pitch_bend_c, 14, 1510
1, 48710, Pitch_bend_c, 15, 4408
1, 48712, Pitch_bend_c, 3, 7558
1, 48717, Pitch_bend_c, 5, 8192
1, 48718, Pitch_bend_c, 3, 4786
1, 48718, Note_on_c, 5, 39, 114
1, 48719, Pitch_bend_c, 4, 8192
1, 48720, Note_on_c, 9, 42, 50
1, 48720, Note_on_c, 1, 27, 127
1, 48720, Note_on_c, 4, 39, 114
1, 48720, Note_on_c, 8, 39, 107
1, 48721, Note_off_c, 9, 42, 64
1, 48721, Note_on_c, 14, 65, 106
1, 48721, Note_on_c, 15, 63, 102
1, 48723, Pitch_bend_c, 3, 2392
1, 48723, Pitch_bend_c, 14, 2014
1, 48724, Note_on_c, 3, 68, 107
1, 48724, Pitch_bend_c, 15, 6676
1, 48730, Pitch_bend_c, 3, 3526
1, 48730, Pitch_bend_c, 14, 5164
1, 48731, Pitch_bend_c, 15, 8192
1, 48735, Pitch_bend_c, 14, 8192
1, 48736, Pitch_bend_c, 3, 8192
1, 48740, Note_off_c, 15, 63, 64
1, 48748, Note_off_c, 14, 65, 64
1, 48754, Note_off_c, 3, 68, 64
1, 48758, Note_off_c, 2, 68, 64
1, 48764, Note_off_c, 11, 77, 64
1, 48764, Note_off_c, 2, 65, 64
1, 48764, Note_off_c, 0, 61, 64
1, 48764, Note_off_c, 0, 65, 64
1, 48764, Note_off_c, 11, 80, 64
1, 48764, Note_off_c, 0, 56, 64
1, 48767, Note_on_c, 2, 70, 94
1, 48768, Note_on_c, 9, 42, 110
1, 48768, Note_on_c, 9, 36, 90
1, 48768, Note_on_c, 0, 63, 78
1, 48768, Note_on_c, 0, 58, 76
1, 48768, Note_on_c, 0, 66, 69
1, 48768, Note_on_c, 11, 82, 64
1, 48768, Note_on_c, 11, 78, 64
1, 48769, Note_off_c, 9, 36, 64
1, 48769, Note_off_c, 9, 42, 64
1, 48769, Note_on_c, 2, 66, 94
1, 48813, Note_off_c, 5, 39, 64
1, 48814, Note_on_c, 5, 42, 114
1, 48815, Note_off_c, 4, 39, 64
1, 48815, Note_off_c, 1, 27, 64
1, 48815, Note_off_c, 8, 39, 64
1, 48815, Note_on_c, 14, 63, 110
1, 48816, Note_on_c, 9, 42, 50
1, 48816, Note_on_c, 1, 30, 127
1, 48816, Note_on_c, 4, 42, 114
1, 48816, Note_on_c, 8, 42, 107
1, 48817, Note_off_c, 9, 42, 64
1, 48817, Note_on_c, 15, 61, 101
1, 48818, Note_on_c, 3, 66, 108
1, 48832, Note_off_c, 3, 66, 64
1, 48835, Note_off_c, 15, 61, 64
1, 48835, Note_off_c, 14, 63, 64
1, 48861, Note_off_c, 5, 42, 64
1, 48862, Note_on_c, 5, 46, 114
1, 48863, Note_off_c, 1, 30, 64
1, 48863, Note_off_c, 8, 42, 64
1, 48863, Note_off_c, 4, 42, 64
1, 48863, Note_on_c, 14, 65, 106
1, 48864, Note_on_c, 9, 42, 110
1, 48864, Note_on_c, 9, 38, 115
1, 48864, Note_on_c, 1, 34, 127
1, 48864, Note_on_c, 4, 46, 114
1, 48864, Note_on_c, 8, 46, 107
1, 48865, Note_off_c, 9, 38, 64
1, 48865, Note_off_c, 9, 42, 64
1, 48865, Note_on_c, 15, 63, 102
1, 48866, Note_on_c, 3, 68, 107
1, 48881, Note_off_c, 15, 63, 64
1, 48885, Note_off_c, 14, 65, 64
1, 48891, Note_off_c, 3, 68, 64
1, 48909, Note_off_c, 5, 46, 64
1, 48910, Note_on_c, 5, 54, 114
1, 48911, Note_off_c, 8, 46, 64
1, 48911, Note_off_c, 4, 46, 64
1, 48911, Note_off_c, 1, 34, 64
1, 48912, Note_on_c, 9, 42, 50
1, 48912, Note_on_c, 1, 42, 127
1, 48912, Note_on_c, 4, 54, 114
1, 48912, Note_on_c, 8, 54, 107
1, 48913, Note_off_c, 9, 42, 64
1, 48927, Pitch_bend_c, 15, 6298
1, 48934, Pitch_bend_c, 15, 5038
1, 48941, Pitch_bend_c, 15, 4282
1, 48947, Pitch_bend_c, 14, 4030
1, 48948, Pitch_bend_c, 15, 4534
1, 48952, Pitch_bend_c, 14, 2014
1, 48956, Pitch_bend_c, 14, 1636
1, 48957, Note_off_c, 5, 54, 64
1, 48958, Pitch_bend_c, 15, 6550
1, 48958, Note_on_c, 5, 51, 114
1, 48959, Note_off_c, 1, 42, 64
1, 48959, Note_off_c, 8, 54, 64
1, 48959, Note_off_c, 4, 54, 64
1, 48959, Note_on_c, 14, 63, 110
1, 48959, Note_on_c, 15, 61, 102
1, 48960, Note_on_c, 9, 42, 110
1, 48960, Note_on_c, 9, 36, 90
1, 48960, Note_on_c, 1, 39, 127
1, 48960, Note_on_c, 4, 51, 114
1, 48960, Note_on_c, 8, 51, 107
1, 48961, Note_off_c, 9, 36, 64
1, 48961, Note_off_c, 9, 42, 64
1, 48962, Note_on_c, 3, 66, 105
1, 48964, Pitch_bend_c, 14, 6802
1, 48966, Control_c, 15, 1, 123
1, 48967, Pitch_bend_c, 15, 8192
1, 48970, Pitch_bend_c, 14, 8192
1, 48971, Pitch_bend_c, 5, 8249
1, 48973, Pitch_bend_c, 4, 8244
1, 48975, Pitch_bend_c, 5, 8708
1, 48977, Pitch_bend_c, 4, 8660
1, 48982, Pitch_bend_c, 5, 8364
1, 48983, Control_c, 15, 1, 123
1, 48984, Pitch_bend_c, 4, 8348
1, 48986, Pitch_bend_c, 5, 8192
1, 48988, Pitch_bend_c, 4, 8192
1, 48999, Control_c, 15, 1, 111
1, 49001, Note_off_c, 14, 63, 64
1, 49002, Pitch_bend_c, 5, 8249
1, 49004, Pitch_bend_c, 4, 8244
1, 49006, Pitch_bend_c, 5, 8478
1, 49007, Note_off_c, 3, 66, 64
1, 49007, Control_c, 15, 1, 0
1, 49008, Note_on_c, 9, 42, 50
1, 49008, Pitch_bend_c, 4, 8452
1, 49009, Note_off_c, 9, 42, 64
1, 49009, Note_on_c, 14, 65, 101
1, 49009, Note_on_c, 15, 63, 102
1, 49009, Pitch_bend_c, 5, 8708
1, 49011, Pitch_bend_c, 4, 8660
1, 49013, Note_off_c, 15, 61, 64
1, 49013, Note_on_c, 3, 68, 101
1, 49017, Pitch_bend_c, 5, 8593
1, 49019, Pitch_bend_c, 4, 8556
1, 49021, Note_off_c, 14, 65, 64
1, 49021, Pitch_bend_c, 5, 8192
1, 49022, Note_off_c, 15, 63, 64
1, 49023, Pitch_bend_c, 4, 8192
1, 49026, Note_off_c, 3, 68, 64
1, 49033, Pitch_bend_c, 5, 8249
1, 49035, Pitch_bend_c, 4, 8244
1, 49037, Pitch_bend_c, 5, 8823
1, 49039, Pitch_bend_c, 4, 8765
1, 49041, Pitch_bend_c, 5, 9052
1, 49043, Pitch_bend_c, 4, 8973
1, 49048, Pitch_bend_c, 5, 8364
1, 49050, Pitch_bend_c, 4, 8348
1, 49053, Pitch_bend_c, 5, 8192
1, 49055, Pitch_bend_c, 4, 8192
1, 49056, Note_on_c, 9, 42, 110
1, 49056, Note_on_c, 9, 38, 115
1, 49057, Note_off_c, 9, 38, 64
1, 49057, Note_off_c, 9, 42, 64
1, 49057, Note_on_c, 9, 39, 127
1, 49058, Note_off_c, 9, 39, 64
1, 49060, Pitch_bend_c, 5, 8593
1, 49062, Pitch_bend_c, 4, 8556
1, 49063, Note_on_c, 10, 39, 127
1, 49064, Note_off_c, 10, 39, 64
1, 49064, Pitch_bend_c, 5, 9453
1, 49066, Pitch_bend_c, 4, 9337
1, 49068, Pitch_bend_c, 5, 9797
1, 49070, Pitch_bend_c, 4, 9649
1, 49076, Pitch_bend_c, 5, 9110
1, 49078, Pitch_bend_c, 4, 9025
1, 49080, Pitch_bend_c, 5, 8192
1, 49082, Pitch_bend_c, 4, 8192
1, 49099, Note_off_c, 5, 51, 64
1, 49099, Pitch_bend_c, 14, 7180
1, 49101, Note_off_c, 8, 51, 64
1, 49101, Note_off_c, 4, 51, 64
1, 49101, Note_off_c, 1, 39, 64
1, 49101, Note_on_c, 5, 51, 114
1, 49102, Pitch_bend_c, 3, 6046
1, 49103, Note_on_c, 1, 39, 127
1, 49103, Note_on_c, 4, 51, 114
1, 49103, Note_on_c, 8, 51, 107
1, 49104, Note_on_c, 14, 65, 105
1, 49104, Note_on_c, 9, 42, 50
1, 49105, Note_off_c, 9, 42, 64
1, 49105, Pitch_bend_c, 14, 2770
1, 49105, Note_on_c, 15, 63, 102
1, 49106, Pitch_bend_c, 1, 12288
1, 49106, Pitch_bend_c, 5, 12704
1, 49106, Pitch_bend_c, 5, 10307
1, 49106, Pitch_bend_c, 8, 12288
1, 49108, Note_on_c, 3, 68, 108
1, 49108, Pitch_bend_c, 4, 10112
1, 49109, Pitch_bend_c, 1, 16320
1, 49109, Pitch_bend_c, 8, 16320
1, 49110, Pitch_bend_c, 3, 2392
1, 49113, Pitch_bend_c, 5, 14890
1, 49114, Pitch_bend_c, 14, 4156
1, 49115, Pitch_bend_c, 5, 16383
1, 49115, Pitch_bend_c, 4, 14272
1, 49116, Note_off_c, 15, 63, 64
1, 49117, Pitch_bend_c, 3, 2644
1, 49117, Pitch_bend_c, 4, 16320
1, 49121, Pitch_bend_c, 14, 8192
1, 49124, Pitch_bend_c, 3, 7810
1, 49125, Note_off_c, 14, 65, 64
1, 49132, Pitch_bend_c, 3, 8192
1, 49133, Note_off_c, 3, 68, 64
1, 49147, Note_off_c, 2, 66, 64
1, 49148, Note_off_c, 11, 78, 64
1, 49148, Note_off_c, 11, 82, 64
1, 49148, Note_off_c, 0, 63, 64
1, 49148, Note_off_c, 0, 66, 64
1, 49148, Note_off_c, 0, 58, 64
1, 49152, Note_on_c, 9, 42, 110
1, 49152, Note_on_c, 9, 36, 90
1, 49152, Note_on_c, 0, 56, 78
1, 49152, Note_on_c, 0, 65, 72
1, 49152, Note_on_c, 0, 61, 75
1, 49152, Note_on_c, 11, 80, 64
1, 49152, Note_on_c, 11, 77, 64
1, 49153, Note_off_c, 9, 36, 64
1, 49153, Note_off_c, 9, 42, 64
1, 49160, Note_on_c, 2, 73, 94
1, 49192, Note_off_c, 5, 51, 64
1, 49194, Note_off_c, 4, 51, 64
1, 49197, Note_off_c, 8, 51, 64
1, 49197, Note_off_c, 1, 39, 64
1, 49197, Pitch_bend_c, 5, 8192
1, 49198, Note_on_c, 5, 51, 114
1, 49199, Pitch_bend_c, 1, 8192
1, 49199, Pitch_bend_c, 4, 8192
1, 49199, Pitch_bend_c, 8, 8192
1, 49200, Note_on_c, 15, 61, 100
1, 49200, Note_on_c, 9, 42, 50
1, 49200, Note_on_c, 1, 39, 127
1, 49200, Note_on_c, 4, 51, 114
1, 49200, Note_on_c, 8, 51, 107
1, 49201, Note_off_c, 9, 42, 64
1, 49201, Note_on_c, 14, 63, 110
1, 49203, Note_on_c, 3, 66, 104
1, 49211, Note_off_c, 15, 61, 64
1, 49216, Note_off_c, 14, 63, 64
1, 49222, Note_off_c, 3, 66, 64
1, 49243, Note_off_c, 5, 51, 64
1, 49245, Note_off_c, 1, 39, 64
1, 49245, Note_off_c, 8, 51, 64
1, 49245, Note_off_c, 4, 51, 64
1, 49246, Note_on_c, 5, 49, 114
1, 49247, Note_on_c, 14, 65, 104
1, 49248, Note_on_c, 15, 63, 102
1, 49248, Note_on_c, 9, 42, 110
1, 49248, Note_on_c, 9, 38, 115
1, 49248, Note_on_c, 9, 36, 90
1, 49248, Note_on_c, 1, 37, 127
1, 49248, Note_on_c, 4, 49, 114
1, 49248, Note_on_c, 8, 49, 107
1, 49249, Note_off_c, 9, 36, 64
1, 49249, Note_off_c, 9, 38, 64
1, 49249, Note_off_c, 9, 42, 64
1, 49250, Note_on_c, 3, 68, 107
1, 49260, Note_off_c, 15, 63, 64
1, 49266, Note_off_c, 14, 65, 64
1, 49270, Note_off_c, 3, 68, 64
1, 49284, Note_off_c, 5, 49, 64
1, 49286, Note_off_c, 4, 49, 64
1, 49286, Note_off_c, 1, 37, 64
1, 49286, Note_off_c, 8, 49, 64
1, 49296, Note_on_c, 9, 42, 50
1, 49297, Note_off_c, 9, 42, 64
1, 49312, Pitch_bend_c, 15, 7306
1, 49322, Pitch_bend_c, 15, 5794
1, 49327, Pitch_bend_c, 14, 7558
1, 49334, Pitch_bend_c, 14, 4282
1, 49342, Note_on_c, 14, 63, 111
1, 49342, Note_on_c, 15, 61, 102
1, 49342, Note_on_c, 5, 49, 114
1, 49344, Note_on_c, 3, 66, 107
1, 49344, Pitch_bend_c, 14, 7810
1, 49344, Note_on_c, 9, 42, 110
1, 49344, Note_on_c, 1, 37, 127
1, 49344, Note_on_c, 4, 49, 114
1, 49344, Note_on_c, 8, 49, 107
1, 49345, Note_off_c, 9, 42, 64
1, 49345, Pitch_bend_c, 15, 8192
1, 49353, Pitch_bend_c, 14, 8192
1, 49379, Note_off_c, 1, 37, 64
1, 49379, Note_off_c, 8, 49, 64
1, 49382, Note_off_c, 5, 49, 64
1, 49384, Note_off_c, 4, 49, 64
1, 49385, Note_off_c, 14, 63, 64
1, 49390, Note_off_c, 3, 66, 64
1, 49391, Note_off_c, 15, 61, 64
1, 49392, Note_on_c, 15, 58, 100
1, 49392, Note_on_c, 9, 42, 50
1, 49392, Note_on_c, 9, 36, 90
1, 49393, Note_off_c, 9, 36, 64
1, 49393, Note_off_c, 9, 42, 64
1, 49394, Note_on_c, 14, 58, 107
1, 49395, Note_on_c, 3, 63, 108
1, 49401, Note_off_c, 14, 58, 64
1, 49403, Note_off_c, 15, 58, 64
1, 49407, Note_off_c, 3, 63, 64
1, 49440, Note_on_c, 9, 42, 110
1, 49440, Note_on_c, 9, 38, 115
1, 49441, Note_off_c, 9, 38, 64
1, 49441, Note_off_c, 9, 42, 64
1, 49441, Note_on_c, 9, 39, 127
1, 49442, Note_off_c, 9, 39, 64
1, 49447, Note_on_c, 10, 39, 127
1, 49448, Note_off_c, 10, 39, 64
1, 49480, Pitch_bend_c, 3, 7684
1, 49483, Pitch_bend_c, 14, 7180
1, 49486, Note_on_c, 5, 39, 114
1, 49488, Note_on_c, 9, 42, 50
1, 49488, Note_on_c, 1, 27, 127
1, 49488, Note_on_c, 4, 39, 114
1, 49488, Note_on_c, 8, 39, 107
1, 49489, Note_off_c, 9, 42, 64
1, 49489, Pitch_bend_c, 3, 5416
1, 49489, Note_on_c, 14, 65, 109
1, 49489, Note_on_c, 15, 63, 102
1, 49492, Note_on_c, 3, 68, 108
1, 49492, Pitch_bend_c, 14, 6172
1, 49499, Note_off_c, 15, 63, 64
1, 49500, Pitch_bend_c, 3, 8192
1, 49503, Pitch_bend_c, 14, 7810
1, 49513, Note_off_c, 14, 65, 64
1, 49513, Pitch_bend_c, 14, 8192
1, 49516, Note_off_c, 3, 68, 64
1, 49532, Note_off_c, 11, 77, 64
1, 49532, Note_off_c, 11, 80, 64
1, 49532, Note_off_c, 0, 65, 64
1, 49532, Note_off_c, 0, 61, 64
1, 49532, Note_off_c, 0, 56, 64
1, 49536, Note_on_c, 9, 42, 110
1, 49536, Note_on_c, 9, 36, 90
1, 49536, Note_on_c, 0, 63, 78
1, 49536, Note_on_c, 0, 58, 76
1, 49536, Note_on_c, 0, 66, 69
1, 49536, Note_on_c, 11, 78, 64
1, 49536, Note_on_c, 11, 82, 64
1, 49536, Note_on_c, 2, 63, 94
1, 49537, Note_off_c, 9, 36, 64
1, 49537, Note_off_c, 9, 42, 64
1, 49537, Note_on_c, 2, 75, 94
1, 49538, Note_off_c, 2, 73, 64
1, 49539, Note_off_c, 2, 70, 64
1, 49580, Note_off_c, 5, 39, 64
1, 49582, Note_off_c, 1, 27, 64
1, 49582, Note_off_c, 8, 39, 64
1, 49582, Note_off_c, 4, 39, 64
1, 49582, Note_on_c, 5, 42, 114
1, 49584, Note_on_c, 15, 61, 99
1, 49584, Note_on_c, 9, 42, 50
1, 49584, Note_on_c, 1, 30, 127
1, 49584, Note_on_c, 4, 42, 114
1, 49584, Note_on_c, 8, 42, 107
1, 49585, Note_off_c, 9, 42, 64
1, 49585, Note_on_c, 14, 63, 111
1, 49589, Note_on_c, 3, 66, 107
1, 49594, Note_off_c, 15, 61, 64
1, 49601, Note_off_c, 14, 63, 64
1, 49604, Note_off_c, 3, 66, 64
1, 49628, Note_off_c, 5, 42, 64
1, 49630, Note_off_c, 1, 30, 64
1, 49630, Note_off_c, 8, 42, 64
1, 49630, Note_off_c, 4, 42, 64
1, 49630, Note_on_c, 5, 46, 114
1, 49632, Note_on_c, 14, 65, 107
1, 49632, Note_on_c, 15, 63, 102
1, 49632, Note_on_c, 9, 42, 110
1, 49632, Note_on_c, 9, 38, 115
1, 49632, Note_on_c, 1, 34, 127
1, 49632, Note_on_c, 4, 46, 114
1, 49632, Note_on_c, 8, 46, 107
1, 49633, Note_off_c, 9, 38, 64
1, 49633, Note_off_c, 9, 42, 64
1, 49636, Note_on_c, 3, 68, 107
1, 49644, Note_off_c, 15, 63, 64
1, 49653, Note_off_c, 14, 65, 64
1, 49661, Note_off_c, 3, 68, 64
1, 49676, Note_off_c, 5, 46, 64
1, 49678, Note_off_c, 8, 46, 64
1, 49678, Note_off_c, 4, 46, 64
1, 49678, Note_off_c, 1, 34, 64
1, 49678, Note_on_c, 5, 54, 114
1, 49680, Note_on_c, 9, 42, 50
1, 49680, Note_on_c, 1, 42, 127
1, 49680, Note_on_c, 4, 54, 114
1, 49680, Note_on_c, 8, 54, 107
1, 49681, Note_off_c, 9, 42, 64
1, 49697, Pitch_bend_c, 15, 6928
1, 49703, Pitch_bend_c, 14, 7810
1, 49707, Pitch_bend_c, 15, 4408
1, 49713, Pitch_bend_c, 14, 4534
1, 49717, Pitch_bend_c, 15, 4282
1, 49723, Pitch_bend_c, 14, 3526
1, 49724, Note_off_c, 5, 54, 64
1, 49726, Note_off_c, 1, 42, 64
1, 49726, Note_off_c, 8, 54, 64
1, 49726, Note_off_c, 4, 54, 64
1, 49726, Note_on_c, 5, 51, 114
1, 49727, Note_on_c, 14, 63, 110
1, 49727, Note_on_c, 15, 61, 102
1, 49728, Note_on_c, 9, 42, 110
1, 49728, Note_on_c, 9, 36, 90
1, 49728, Note_on_c, 1, 39, 127
1, 49728, Note_on_c, 4, 51, 114
1, 49728, Note_on_c, 8, 51, 107
1, 49729, Note_off_c, 9, 36, 64
1, 49729, Note_off_c, 9, 42, 64
1, 49729, Pitch_bend_c, 15, 7684
1, 49730, Note_on_c, 3, 66, 105
1, 49735, Pitch_bend_c, 14, 4786
1, 49741, Pitch_bend_c, 15, 8192
1, 49746, Pitch_bend_c, 14, 8192
1, 49751, Pitch_bend_c, 5, 8478
1, 49753, Pitch_bend_c, 4, 8452
1, 49755, Pitch_bend_c, 5, 9110
1, 49757, Pitch_bend_c, 4, 9025
1, 49759, Pitch_bend_c, 5, 9568
1, 49761, Pitch_bend_c, 4, 9441
1, 49763, Pitch_bend_c, 5, 9682
1, 49765, Pitch_bend_c, 4, 9545
1, 49768, Note_off_c, 15, 61, 64
1, 49771, Pitch_bend_c, 5, 7855
1, 49772, Note_off_c, 3, 66, 64
1, 49773, Pitch_bend_c, 4, 7886
1, 49774, Pitch_bend_c, 5, 8192
1, 49775, Note_off_c, 14, 63, 64
1, 49776, Note_on_c, 9, 42, 50
1, 49776, Pitch_bend_c, 4, 8192
1, 49777, Note_off_c, 9, 42, 64
1, 49777, Note_on_c, 15, 63, 99
1, 49779, Note_on_c, 3, 68, 95
1, 49779, Note_on_c, 14, 65, 104
1, 49784, Note_off_c, 15, 63, 64
1, 49786, Pitch_bend_c, 5, 8249
1, 49788, Pitch_bend_c, 4, 8244
1, 49790, Pitch_bend_c, 5, 9797
1, 49791, Note_off_c, 3, 68, 64
1, 49792, Note_off_c, 14, 65, 64
1, 49792, Pitch_bend_c, 4, 9649
1, 49794, Pitch_bend_c, 5, 9913
1, 49796, Pitch_bend_c, 4, 9754
1, 49801, Pitch_bend_c, 5, 9110
1, 49803, Pitch_bend_c, 4, 9025
1, 49805, Pitch_bend_c, 5, 8192
1, 49807, Pitch_bend_c, 4, 8192
1, 49813, Pitch_bend_c, 5, 8478
1, 49815, Pitch_bend_c, 4, 8452
1, 49817, Pitch_bend_c, 5, 9568
1, 49819, Pitch_bend_c, 4, 9441
1, 49821, Pitch_bend_c, 5, 9970
1, 49823, Pitch_bend_c, 4, 9806
1, 49824, Note_on_c, 9, 42, 110
1, 49824, Note_on_c, 9, 38, 115
1, 49825, Note_off_c, 9, 38, 64
1, 49825, Note_off_c, 9, 42, 64
1, 49825, Pitch_bend_c, 5, 10084
1, 49825, Note_on_c, 9, 39, 127
1, 49826, Note_off_c, 9, 39, 64
1, 49827, Pitch_bend_c, 4, 9910
1, 49829, Pitch_bend_c, 5, 9913
1, 49831, Note_on_c, 10, 39, 127
1, 49831, Pitch_bend_c, 4, 9754
1, 49832, Note_off_c, 10, 39, 64
1, 49833, Pitch_bend_c, 5, 8192
1, 49835, Pitch_bend_c, 4, 8192
1, 49859, Pitch_bend_c, 3, 6802
1, 49867, Note_off_c, 5, 51, 64
1, 49869, Note_off_c, 8, 51, 64
1, 49869, Note_off_c, 4, 51, 64
1, 49869, Note_off_c, 1, 39, 64
1, 49869, Pitch_bend_c, 3, 3652
1, 49869, Note_on_c, 5, 51, 114
1, 49871, Note_on_c, 1, 39, 127
1, 49871, Note_on_c, 4, 51, 114
1, 49871, Note_on_c, 8, 51, 107
1, 49872, Note_on_c, 9, 42, 50
1, 49873, Note_off_c, 9, 42, 64
1, 49873, Note_on_c, 15, 63, 102
1, 49874, Pitch_bend_c, 14, 7180
1, 49874, Note_on_c, 14, 65, 106
1, 49874, Pitch_bend_c, 5, 10307
1, 49875, Note_on_c, 3, 68, 107
1, 49875, Pitch_bend_c, 1, 12288
1, 49875, Pitch_bend_c, 8, 12288
1, 49876, Pitch_bend_c, 4, 10112
1, 49877, Pitch_bend_c, 5, 12704
1, 49878, Pitch_bend_c, 1, 16320
1, 49878, Pitch_bend_c, 8, 16320
1, 49879, Pitch_bend_c, 5, 14890
1, 49879, Pitch_bend_c, 4, 12288
1, 49881, Pitch_bend_c, 5, 16383
1, 49881, Pitch_bend_c, 4, 14272
1, 49882, Pitch_bend_c, 3, 8192
1, 49883, Note_off_c, 15, 63, 64
1, 49883, Pitch_bend_c, 4, 16320
1, 49886, Pitch_bend_c, 14, 7558
1, 49891, Note_off_c, 14, 65, 64
1, 49897, Pitch_bend_c, 14, 8192
1, 49902, Note_off_c, 3, 68, 64
1, 49911, Note_off_c, 2, 63, 64
1, 49914, Note_on_c, 2, 70, 94
1, 49915, Note_off_c, 2, 75, 64
1, 49916, Note_off_c, 11, 82, 64
1, 49916, Note_off_c, 0, 58, 64
1, 49916, Note_off_c, 11, 78, 64
1, 49916, Note_off_c, 0, 63, 64
1, 49916, Note_off_c, 0, 66, 64
1, 49916, Note_on_c, 2, 73, 94
1, 49920, Note_on_c, 9, 42, 110
1, 49920, Note_on_c, 9, 36, 90
1, 49920, Note_on_c, 0, 56, 78
1, 49920, Note_on_c, 0, 65, 72
1, 49920, Note_on_c, 0, 61, 75
1, 49920, Note_on_c, 11, 80, 64
1, 49920, Note_on_c, 11, 77, 64
1, 49921, Note_off_c, 9, 36, 64
1, 49921, Note_off_c, 9, 42, 64
1, 49964, Note_off_c, 5, 51, 64
1, 49965, Pitch_bend_c, 5, 8192
1, 49966, Note_off_c, 4, 51, 64
1, 49966, Note_off_c, 1, 39, 64
1, 49966, Note_off_c, 8, 51, 64
1, 49966, Note_on_c, 5, 51, 114
1, 49967, Pitch_bend_c, 1, 8192
1, 49967, Pitch_bend_c, 4, 8192
1, 49967, Pitch_bend_c, 8, 8192
1, 49968, Note_on_c, 14, 63, 110
1, 49968, Note_on_c, 15, 61, 98
1, 49968, Note_on_c, 9, 42, 50
1, 49968, Note_on_c, 1, 39, 127
1, 49968, Note_on_c, 4, 51, 114
1, 49968, Note_on_c, 8, 51, 107
1, 49969, Note_off_c, 9, 42, 64
1, 49969, Note_on_c, 3, 66, 105
1, 49978, Note_off_c, 15, 61, 64
1, 49983, Note_off_c, 14, 63, 64
1, 49988, Note_off_c, 3, 66, 64
1, 50008, Note_off_c, 5, 51, 64
1, 50010, Note_off_c, 1, 39, 64
1, 50010, Note_off_c, 8, 51, 64
1, 50010, Note_off_c, 4, 51, 64
1, 50014, Note_on_c, 5, 49, 114
1, 50016, Note_on_c, 14, 65, 104
1, 50016, Note_on_c, 15, 63, 102
1, 50016, Note_on_c, 9, 42, 110
1, 50016, Note_on_c, 9, 38, 115
1, 50016, Note_on_c, 9, 36, 90
1, 50016, Note_on_c, 1, 37, 127
1, 50016, Note_on_c, 4, 49, 114
1, 50016, Note_on_c, 8, 49, 107
1, 50017, Note_off_c, 9, 36, 64
1, 50017, Note_off_c, 9, 38, 64
1, 50017, Note_off_c, 9, 42, 64
1, 50017, Note_on_c, 3, 68, 107
1, 50023, Note_off_c, 15, 63, 64
1, 50034, Note_off_c, 14, 65, 64
1, 50040, Note_off_c, 3, 68, 64
1, 50054, Note_off_c, 8, 49, 64
1, 50054, Note_off_c, 1, 37, 64
1, 50055, Note_off_c, 5, 49, 64
1, 50057, Note_off_c, 4, 49, 64
1, 50064, Note_on_c, 9, 42, 50
1, 50065, Note_off_c, 9, 42, 64
1, 50098, Pitch_bend_c, 15, 5038
1, 50110, Note_on_c, 14, 63, 110
1, 50111, Pitch_bend_c, 15, 1636
1, 50111, Note_on_c, 15, 61, 101
1, 50112, Note_on_c, 9, 42, 110
1, 50113, Note_off_c, 9, 42, 64
1, 50113, Note_on_c, 3, 66, 107
1, 50121, Pitch_bend_c, 15, 8192
1, 50128, Note_off_c, 14, 63, 64
1, 50131, Note_off_c, 15, 61, 64
1, 50140, Note_off_c, 3, 66, 64
1, 50160, Note_on_c, 9, 42, 50
1, 50160, Note_on_c, 9, 36, 90
1, 50161, Note_off_c, 9, 36, 64
1, 50161, Note_off_c, 9, 42, 64
1, 50200, Pitch_bend_c, 3, 6802
1, 50208, Note_on_c, 14, 65, 108
1, 50208, Note_on_c, 15, 63, 101
1, 50208, Note_on_c, 9, 42, 110
1, 50208, Note_on_c, 9, 38, 115
1, 50209, Note_off_c, 9, 38, 64
1, 50209, Note_off_c, 9, 42, 64
1, 50209, Note_on_c, 9, 39, 127
1, 50210, Note_off_c, 9, 39, 64
1, 50210, Note_on_c, 3, 68, 107
1, 50213, Pitch_bend_c, 3, 3526
1, 50215, Note_on_c, 10, 39, 127
1, 50216, Note_off_c, 10, 39, 64
1, 50221, Note_off_c, 15, 63, 64
1, 50223, Pitch_bend_c, 3, 8192
1, 50230, Note_off_c, 14, 65, 64
1, 50251, Note_off_c, 3, 68, 64
1, 50253, Pitch_bend_c, 5, 8192
1, 50254, Note_on_c, 5, 39, 114
1, 50255, Pitch_bend_c, 4, 8192
1, 50256, Note_on_c, 9, 55, 127
1, 50256, Note_on_c, 9, 36, 90
1, 50256, Note_on_c, 1, 27, 127
1, 50256, Note_on_c, 4, 39, 114
1, 50256, Note_on_c, 8, 39, 107
1, 50257, Note_off_c, 9, 36, 64
1, 50257, Note_off_c, 9, 55, 64
1, 50273, Note_off_c, 2, 70, 64
1, 50278, Note_off_c, 2, 73, 64
1, 50283, Pitch_bend_c, 15, 7054
1, 50292, Pitch_bend_c, 3, 6172
1, 50292, Pitch_bend_c, 15, 2266
1, 50294, Pitch_bend_c, 14, 6046
1, 50299, Note_on_c, 2, 70, 94
1, 50300, Note_off_c, 11, 80, 64
1, 50300, Note_off_c, 0, 61, 64
1, 50300, Note_off_c, 0, 65, 64
1, 50300, Note_off_c, 0, 56, 64
1, 50300, Note_off_c, 11, 77, 64
1, 50301, Pitch_bend_c, 3, 4030
1, 50301, Pitch_bend_c, 15, 1636
1, 50303, Note_on_c, 14, 70, 111
1, 50304, Note_on_c, 15, 70, 102
1, 50304, Note_on_c, 9, 49, 90
1, 50304, Note_on_c, 9, 36, 90
1, 50304, Note_on_c, 0, 63, 78
1, 50304, Note_on_c, 0, 58, 76
1, 50304, Note_on_c, 0, 66, 69
1, 50304, Note_on_c, 11, 82, 64
1, 50304, Note_on_c, 11, 78, 64
1, 50304, Note_on_c, 2, 66, 94
1, 50305, Note_off_c, 9, 36, 64
1, 50305, Note_off_c, 9, 49, 64
1, 50306, Note_on_c, 3, 70, 108
1, 50313, Pitch_bend_c, 3, 8192
1, 50313, Pitch_bend_c, 15, 2896
1, 50314, Pitch_bend_c, 14, 7684
1, 50323, Pitch_bend_c, 15, 7810
1, 50324, Pitch_bend_c, 14, 8192
1, 50333, Pitch_bend_c, 15, 8192
1, 50337, Note_off_c, 14, 70, 64
1, 50339, Note_off_c, 15, 70, 64
1, 50343, Note_off_c, 3, 70, 64
1, 50349, Note_off_c, 5, 39, 64
1, 50350, Note_on_c, 5, 42, 114
1, 50351, Note_off_c, 4, 39, 64
1, 50351, Note_off_c, 1, 27, 64
1, 50351, Note_off_c, 8, 39, 64
1, 50352, Note_on_c, 9, 42, 50
1, 50352, Note_on_c, 1, 30, 127
1, 50352, Note_on_c, 4, 42, 114
1, 50352, Note_on_c, 8, 42, 107
1, 50353, Note_off_c, 9, 42, 64
1, 50353, Note_on_c, 14, 70, 110
1, 50353, Note_on_c, 15, 70, 101
1, 50357, Note_on_c, 3, 70, 105
1, 50377, Control_c, 3, 1, 40
1, 50388, Control_c, 3, 1, 95
1, 50397, Note_off_c, 5, 42, 64
1, 50398, Control_c, 3, 1, 91
1, 50398, Note_on_c, 5, 46, 114
1, 50399, Note_off_c, 1, 30, 64
1, 50399, Note_off_c, 8, 42, 64
1, 50399, Note_off_c, 4, 42, 64
1, 50400, Note_on_c, 9, 42, 110
1, 50400, Note_on_c, 9, 38, 115
1, 50400, Note_on_c, 1, 34, 127
1, 50400, Note_on_c, 4, 46, 114
1, 50400, Note_on_c, 8, 46, 107
1, 50401, Note_off_c, 9, 38, 64
1, 50401, Note_off_c, 9, 42, 64
1, 50409, Control_c, 3, 1, 98
1, 50419, Control_c, 3, 1, 101
1, 50430, Control_c, 3, 1, 103
1, 50440, Control_c, 3, 1, 104
1, 50445, Note_off_c, 5, 46, 64
1, 50446, Note_on_c, 5, 54, 114
1, 50447, Note_off_c, 8, 46, 64
1, 50447, Note_off_c, 4, 46, 64
1, 50447, Note_off_c, 1, 34, 64
1, 50448, Note_on_c, 9, 42, 50
1, 50448, Note_on_c, 1, 42, 127
1, 50448, Note_on_c, 4, 54, 114
1, 50448, Note_on_c, 8, 54, 107
1, 50449, Note_off_c, 9, 42, 64
1, 50450, Control_c, 3, 1, 100
1, 50460, Control_c, 3, 1, 72
1, 50469, Note_off_c, 3, 70, 64
1, 50470, Control_c, 3, 1, 0
1, 50478, Note_off_c, 14, 70, 64
1, 50480, Note_off_c, 15, 70, 64
1, 50485, Pitch_bend_c, 15, 7432
1, 50486, Pitch_bend_c, 14, 7432
1, 50493, Note_off_c, 5, 54, 64
1, 50494, Note_on_c, 5, 51, 114
1, 50495, Note_off_c, 1, 42, 64
1, 50495, Note_off_c, 8, 54, 64
1, 50495, Note_off_c, 4, 54, 64
1, 50495, Pitch_bend_c, 15, 1636
1, 50496, Pitch_bend_c, 14, 5920
1, 50496, Note_on_c, 14, 66, 111
1, 50496, Note_on_c, 15, 63, 101
1, 50496, Note_on_c, 9, 42, 110
1, 50496, Note_on_c, 9, 36, 90
1, 50496, Note_on_c, 1, 39, 127
1, 50496, Note_on_c, 4, 51, 114
1, 50496, Note_on_c, 8, 51, 107
1, 50497, Note_off_c, 9, 36, 64
1, 50497, Note_off_c, 9, 42, 64
1, 50507, Pitch_bend_c, 5, 8249
1, 50508, Pitch_bend_c, 15, 5668
1, 50509, Pitch_bend_c, 14, 6172
1, 50509, Pitch_bend_c, 4, 8244
1, 50511, Pitch_bend_c, 5, 8708
1, 50513, Pitch_bend_c, 4, 8660
1, 50518, Pitch_bend_c, 5, 8364
1, 50519, Pitch_bend_c, 15, 8192
1, 50520, Pitch_bend_c, 14, 8192
1, 50520, Pitch_bend_c, 4, 8348
1, 50522, Pitch_bend_c, 5, 8192
1, 50524, Pitch_bend_c, 4, 8192
1, 50530, Note_off_c, 14, 66, 64
1, 50533, Note_off_c, 15, 63, 64
1, 50538, Pitch_bend_c, 5, 8249
1, 50540, Pitch_bend_c, 4, 8244
1, 50542, Pitch_bend_c, 5, 8478
1, 50544, Note_on_c, 9, 42, 50
1, 50544, Pitch_bend_c, 4, 8452
1, 50545, Note_off_c, 9, 42, 64
1, 50545, Note_on_c, 14, 66, 109
1, 50545, Note_on_c, 15, 63, 98
1, 50545, Pitch_bend_c, 5, 8708
1, 50547, Pitch_bend_c, 4, 8660
1, 50553, Pitch_bend_c, 5, 8593
1, 50555, Pitch_bend_c, 4, 8556
1, 50557, Pitch_bend_c, 5, 8192
1, 50559, Pitch_bend_c, 4, 8192
1, 50564, Control_c, 15, 1, 118
1, 50569, Pitch_bend_c, 5, 8249
1, 50571, Pitch_bend_c, 4, 8244
1, 50573, Pitch_bend_c, 5, 8823
1, 50575, Control_c, 15, 1, 121
1, 50575, Pitch_bend_c, 4, 8765
1, 50577, Pitch_bend_c, 5, 9052
1, 50579, Pitch_bend_c, 4, 8973
1, 50584, Pitch_bend_c, 5, 8364
1, 50585, Control_c, 15, 1, 120
1, 50586, Pitch_bend_c, 4, 8348
1, 50589, Pitch_bend_c, 5, 8192
1, 50591, Pitch_bend_c, 4, 8192
1, 50592, Note_on_c, 9, 42, 110
1, 50592, Note_on_c, 9, 38, 115
1, 50593, Note_off_c, 9, 38, 64
1, 50593, Note_off_c, 9, 42, 64
1, 50593, Note_on_c, 9, 39, 127
1, 50594, Note_off_c, 9, 39, 64
1, 50596, Pitch_bend_c, 5, 8593
1, 50598, Pitch_bend_c, 4, 8556
1, 50599, Note_on_c, 10, 39, 127
1, 50600, Note_off_c, 10, 39, 64
1, 50600, Pitch_bend_c, 5, 9453
1, 50602, Pitch_bend_c, 4, 9337
1, 50604, Control_c, 15, 1, 121
1, 50604, Pitch_bend_c, 5, 9797
1, 50606, Pitch_bend_c, 4, 9649
1, 50612, Pitch_bend_c, 5, 9110
1, 50614, Control_c, 15, 1, 108
1, 50614, Pitch_bend_c, 4, 9025
1, 50616, Pitch_bend_c, 5, 8192
1, 50618, Pitch_bend_c, 4, 8192
1, 50633, Control_c, 15, 1, 0
1, 50635, Note_off_c, 5, 51, 64
1, 50637, Note_off_c, 8, 51, 64
1, 50637, Note_off_c, 4, 51, 64
1, 50637, Note_off_c, 1, 39, 64
1, 50637, Note_on_c, 5, 51, 114
1, 50639, Note_on_c, 1, 39, 127
1, 50639, Note_on_c, 4, 51, 114
1, 50639, Note_on_c, 8, 51, 107
1, 50640, Note_on_c, 9, 42, 50
1, 50641, Note_off_c, 9, 42, 64
1, 50642, Pitch_bend_c, 1, 12288
1, 50642, Pitch_bend_c, 5, 12704
1, 50642, Pitch_bend_c, 5, 10307
1, 50642, Pitch_bend_c, 8, 12288
1, 50644, Pitch_bend_c, 4, 10112
1, 50645, Pitch_bend_c, 1, 16320
1, 50645, Pitch_bend_c, 8, 16320
1, 50649, Pitch_bend_c, 5, 14890
1, 50651, Pitch_bend_c, 5, 16383
1, 50651, Pitch_bend_c, 4, 14272
1, 50652, Note_off_c, 15, 63, 64
1, 50653, Pitch_bend_c, 4, 16320
1, 50658, Pitch_bend_c, 3, 6298
1, 50659, Note_off_c, 14, 66, 64
1, 50663, Pitch_bend_c, 3, 4786
1, 50663, Pitch_bend_c, 15, 6802
1, 50669, Pitch_bend_c, 3, 3526
1, 50672, Pitch_bend_c, 14, 6424
1, 50672, Pitch_bend_c, 15, 1636
1, 50674, Pitch_bend_c, 3, 3022
1, 50676, Note_off_c, 2, 66, 64
1, 50678, Pitch_bend_c, 14, 5794
1, 50679, Note_off_c, 2, 70, 64
1, 50679, Pitch_bend_c, 3, 3526
1, 50682, Note_on_c, 2, 65, 94
1, 50684, Note_off_c, 11, 78, 64
1, 50684, Note_off_c, 0, 63, 64
1, 50684, Note_off_c, 11, 82, 64
1, 50684, Note_off_c, 0, 66, 64
1, 50684, Note_off_c, 0, 58, 64
1, 50684, Pitch_bend_c, 3, 4534
1, 50687, Note_on_c, 14, 70, 111
1, 50687, Note_on_c, 15, 70, 102
1, 50688, Pitch_bend_c, 14, 6046
1, 50688, Note_on_c, 9, 42, 110
1, 50688, Note_on_c, 9, 36, 90
1, 50688, Note_on_c, 0, 56, 78
1, 50688, Note_on_c, 0, 65, 72
1, 50688, Note_on_c, 0, 61, 75
1, 50688, Note_on_c, 11, 80, 64
1, 50688, Note_on_c, 11, 77, 64
1, 50688, Note_on_c, 2, 68, 94
1, 50689, Note_off_c, 9, 36, 64
1, 50689, Note_off_c, 9, 42, 64
1, 50689, Note_on_c, 3, 70, 108
1, 50689, Pitch_bend_c, 3, 7810
1, 50689, Pitch_bend_c, 15, 8192
1, 50696, Pitch_bend_c, 3, 8192
1, 50696, Pitch_bend_c, 14, 8192
1, 50715, Note_off_c, 14, 70, 64
1, 50722, Note_off_c, 3, 70, 64
1, 50728, Note_off_c, 5, 51, 64
1, 50730, Note_off_c, 4, 51, 64
1, 50732, Note_off_c, 15, 70, 64
1, 50733, Note_off_c, 1, 39, 64
1, 50733, Note_off_c, 8, 51, 64
1, 50733, Pitch_bend_c, 5, 8192
1, 50734, Note_on_c, 5, 51, 114
1, 50735, Note_on_c, 14, 70, 110
1, 50735, Pitch_bend_c, 1, 8192
1, 50735, Pitch_bend_c, 4, 8192
1, 50735, Pitch_bend_c, 8, 8192
1, 50736, Note_on_c, 9, 42, 50
1, 50736, Note_on_c, 1, 39, 127
1, 50736, Note_on_c, 4, 51, 114
1, 50736, Note_on_c, 8, 51, 107
1, 50737, Note_off_c, 9, 42, 64
1, 50737, Note_on_c, 3, 70, 102
1, 50738, Note_on_c, 15, 70, 100
1, 50750, Control_c, 3, 1, 7
1, 50755, Control_c, 3, 1, 41
1, 50761, Control_c, 3, 1, 91
1, 50773, Control_c, 3, 1, 100
1, 50779, Note_off_c, 5, 51, 64
1, 50781, Note_off_c, 1, 39, 64
1, 50781, Note_off_c, 8, 51, 64
1, 50781, Note_off_c, 4, 51, 64
1, 50782, Note_on_c, 5, 49, 114
1, 50784, Note_on_c, 9, 42, 110
1, 50784, Note_on_c, 9, 38, 115
1, 50784, Note_on_c, 9, 36, 90
1, 50784, Note_on_c, 1, 37, 127
1, 50784, Note_on_c, 4, 49, 114
1, 50784, Note_on_c, 8, 49, 107
1, 50785, Note_off_c, 9, 36, 64
1, 50785, Note_off_c, 9, 38, 64
1, 50785, Note_off_c, 9, 42, 64
1, 50785, Control_c, 3, 1, 104
1, 50803, Control_c, 3, 1, 107
1, 50814, Control_c, 3, 1, 106
1, 50820, Note_off_c, 5, 49, 64
1, 50822, Note_off_c, 4, 49, 64
1, 50822, Note_off_c, 1, 37, 64
1, 50822, Note_off_c, 8, 49, 64
1, 50825, Control_c, 3, 1, 103
1, 50831, Control_c, 3, 1, 67
1, 50832, Note_on_c, 9, 42, 50
1, 50833, Note_off_c, 9, 42, 64
1, 50836, Control_c, 3, 1, 19
1, 50841, Control_c, 3, 1, 0
1, 50842, Note_off_c, 15, 70, 64
1, 50843, Note_off_c, 14, 70, 64
1, 50846, Note_off_c, 3, 70, 64
1, 50854, Pitch_bend_c, 15, 7558
1, 50855, Pitch_bend_c, 14, 6298
1, 50861, Pitch_bend_c, 14, 6046
1, 50864, Pitch_bend_c, 15, 10142
1, 50867, Pitch_bend_c, 14, 6424
1, 50873, Pitch_bend_c, 15, 8192
1, 50876, Pitch_bend_c, 14, 8192
1, 50876, Note_on_c, 14, 65, 108
1, 50878, Note_on_c, 5, 49, 114
1, 50879, Note_on_c, 15, 61, 102
1, 50880, Note_on_c, 9, 42, 110
1, 50880, Note_on_c, 1, 37, 127
1, 50880, Note_on_c, 4, 49, 114
1, 50880, Note_on_c, 8, 49, 107
1, 50881, Note_off_c, 9, 42, 64
1, 50915, Note_off_c, 1, 37, 64
1, 50915, Note_off_c, 8, 49, 64
1, 50917, Note_off_c, 14, 65, 64
1, 50918, Note_off_c, 5, 49, 64
1, 50919, Note_off_c, 15, 61, 64
1, 50920, Note_off_c, 4, 49, 64
1, 50927, Note_on_c, 14, 65, 100
1, 50928, Note_on_c, 9, 42, 50
1, 50928, Note_on_c, 9, 36, 90
1, 50929, Note_off_c, 9, 36, 64
1, 50929, Note_off_c, 9, 42, 64
1, 50929, Note_on_c, 15, 61, 99
1, 50976, Note_on_c, 9, 42, 110
1, 50976, Note_on_c, 9, 38, 115
1, 50977, Note_off_c, 9, 38, 64
1, 50977, Note_off_c, 9, 42, 64
1, 50977, Note_on_c, 9, 39, 127
1, 50978, Note_off_c, 9, 39, 64
1, 50983, Note_on_c, 10, 39, 127
1, 50984, Note_off_c, 10, 39, 64
1, 51001, Note_off_c, 14, 65, 64
1, 51002, Note_off_c, 15, 61, 64
1, 51010, Pitch_bend_c, 15, 6550
1, 51012, Pitch_bend_c, 3, 7810
1, 51012, Pitch_bend_c, 14, 7810
1, 51016, Pitch_bend_c, 3, 6802
1, 51019, Pitch_bend_c, 14, 3526
1, 51020, Pitch_bend_c, 15, 2266
1, 51021, Pitch_bend_c, 3, 5668
1, 51022, Note_on_c, 5, 39, 114
1, 51024, Note_on_c, 14, 66, 111
1, 51024, Note_on_c, 9, 42, 50
1, 51024, Note_on_c, 1, 27, 127
1, 51024, Note_on_c, 4, 39, 114
1, 51024, Note_on_c, 8, 39, 107
1, 51025, Note_off_c, 9, 42, 64
1, 51025, Note_on_c, 15, 63, 102
1, 51027, Pitch_bend_c, 3, 4786
1, 51028, Note_on_c, 3, 70, 107
1, 51029, Pitch_bend_c, 14, 1888
1, 51033, Pitch_bend_c, 15, 1636
1, 51035, Pitch_bend_c, 3, 7432
1, 51037, Pitch_bend_c, 14, 6802
1, 51041, Pitch_bend_c, 3, 8192
1, 51044, Pitch_bend_c, 14, 8192
1, 51044, Pitch_bend_c, 15, 8192
1, 51068, Note_off_c, 2, 68, 64
1, 51068, Note_off_c, 11, 77, 64
1, 51068, Note_off_c, 0, 65, 64
1, 51068, Note_off_c, 11, 80, 64
1, 51068, Note_off_c, 0, 56, 64
1, 51068, Note_off_c, 0, 61, 64
1, 51072, Note_on_c, 9, 42, 110
1, 51072, Note_on_c, 9, 36, 90
1, 51072, Note_on_c, 0, 63, 78
1, 51072, Note_on_c, 0, 58, 76
1, 51072, Note_on_c, 0, 66, 69
1, 51072, Note_on_c, 11, 82, 64
1, 51072, Note_on_c, 11, 78, 64
1, 51073, Note_off_c, 9, 36, 64
1, 51073, Note_off_c, 9, 42, 64
1, 51073, Note_on_c, 2, 70, 94
1, 51074, Note_on_c, 2, 66, 94
1, 51075, Note_off_c, 2, 65, 64
1, 51091, Note_off_c, 15, 63, 64
1, 51098, Note_off_c, 3, 70, 64
1, 51101, Note_off_c, 14, 66, 64
1, 51116, Note_off_c, 5, 39, 64
1, 51118, Note_off_c, 8, 39, 64
1, 51118, Note_off_c, 4, 39, 64
1, 51118, Note_off_c, 1, 27, 64
1, 51118, Note_on_c, 5, 42, 114
1, 51119, Note_on_c, 14, 66, 104
1, 51120, Note_on_c, 15, 63, 98
1, 51120, Note_on_c, 9, 42, 50
1, 51120, Note_on_c, 1, 30, 127
1, 51120, Note_on_c, 4, 42, 114
1, 51120, Note_on_c, 8, 42, 107
1, 51121, Note_off_c, 9, 42, 64
1, 51122, Note_on_c, 3, 70, 101
1, 51132, Note_off_c, 15, 63, 64
1, 51132, Note_off_c, 3, 70, 64
1, 51136, Note_off_c, 14, 66, 64
1, 51164, Note_off_c, 5, 42, 64
1, 51166, Note_off_c, 1, 30, 64
1, 51166, Note_off_c, 8, 42, 64
1, 51166, Note_off_c, 4, 42, 64
1, 51166, Note_on_c, 5, 46, 114
1, 51167, Note_on_c, 14, 66, 107
1, 51167, Note_on_c, 15, 63, 101
1, 51168, Note_on_c, 9, 42, 110
1, 51168, Note_on_c, 9, 38, 115
1, 51168, Note_on_c, 1, 34, 127
1, 51168, Note_on_c, 4, 46, 114
1, 51168, Note_on_c, 8, 46, 107
1, 51169, Note_off_c, 9, 38, 64
1, 51169, Note_off_c, 9, 42, 64
1, 51170, Note_on_c, 3, 70, 104
1, 51178, Note_off_c, 15, 63, 64
1, 51181, Note_off_c, 3, 70, 64
1, 51184, Note_off_c, 14, 66, 64
1, 51212, Note_off_c, 5, 46, 64
1, 51214, Note_off_c, 8, 46, 64
1, 51214, Note_off_c, 4, 46, 64
1, 51214, Note_off_c, 1, 34, 64
1, 51214, Note_on_c, 5, 54, 114
1, 51215, Note_on_c, 15, 63, 99
1, 51216, Note_on_c, 14, 66, 105
1, 51216, Note_on_c, 9, 42, 50
1, 51216, Note_on_c, 1, 42, 127
1, 51216, Note_on_c, 4, 54, 114
1, 51216, Note_on_c, 8, 54, 107
1, 51217, Note_off_c, 9, 42, 64
1, 51218, Note_on_c, 3, 70, 101
1, 51231, Note_off_c, 15, 63, 64
1, 51234, Note_off_c, 14, 66, 64
1, 51234, Note_off_c, 3, 70, 64
1, 51238, Pitch_bend_c, 15, 6172
1, 51248, Pitch_bend_c, 15, 4156
1, 51251, Pitch_bend_c, 3, 7180
1, 51254, Pitch_bend_c, 14, 7684
1, 51257, Pitch_bend_c, 3, 4156
1, 51258, Pitch_bend_c, 15, 3904
1, 51260, Note_off_c, 5, 54, 64
1, 51261, Pitch_bend_c, 14, 4912
1, 51262, Note_off_c, 1, 42, 64
1, 51262, Note_off_c, 8, 54, 64
1, 51262, Note_off_c, 4, 54, 64
1, 51262, Note_on_c, 5, 51, 114
1, 51263, Note_on_c, 14, 70, 110
1, 51264, Note_on_c, 15, 66, 102
1, 51264, Note_on_c, 9, 42, 110
1, 51264, Note_on_c, 9, 36, 90
1, 51264, Note_on_c, 1, 39, 127
1, 51264, Note_on_c, 4, 51, 114
1, 51264, Note_on_c, 8, 51, 107
1, 51265, Note_off_c, 9, 36, 64
1, 51265, Note_off_c, 9, 42, 64
1, 51265, Note_on_c, 3, 73, 108
1, 51265, Pitch_bend_c, 3, 3022
1, 51270, Pitch_bend_c, 14, 1762
1, 51270, Pitch_bend_c, 15, 5290
1, 51272, Pitch_bend_c, 3, 8192
1, 51278, Pitch_bend_c, 14, 6802
1, 51279, Control_c, 15, 1, 64
1, 51280, Pitch_bend_c, 15, 8192
1, 51286, Pitch_bend_c, 14, 8192
1, 51287, Pitch_bend_c, 5, 8478
1, 51289, Control_c, 15, 1, 117
1, 51289, Pitch_bend_c, 4, 8452
1, 51291, Pitch_bend_c, 5, 9110
1, 51293, Pitch_bend_c, 4, 9025
1, 51295, Pitch_bend_c, 5, 9568
1, 51297, Pitch_bend_c, 4, 9441
1, 51299, Pitch_bend_c, 5, 9682
1, 51300, Control_c, 15, 1, 123
1, 51301, Pitch_bend_c, 4, 9545
1, 51307, Pitch_bend_c, 5, 7855
1, 51309, Pitch_bend_c, 4, 7886
1, 51310, Pitch_bend_c, 5, 8192
1, 51312, Note_on_c, 9, 42, 50
1, 51312, Pitch_bend_c, 4, 8192
1, 51313, Note_off_c, 9, 42, 64
1, 51319, Control_c, 15, 1, 121
1, 51322, Pitch_bend_c, 5, 8249
1, 51324, Pitch_bend_c, 4, 8244
1, 51326, Pitch_bend_c, 5, 9797
1, 51328, Pitch_bend_c, 4, 9649
1, 51330, Pitch_bend_c, 5, 9913
1, 51332, Pitch_bend_c, 4, 9754
1, 51337, Control_c, 15, 1, 40
1, 51337, Pitch_bend_c, 5, 9110
1, 51339, Pitch_bend_c, 4, 9025
1, 51341, Pitch_bend_c, 5, 8192
1, 51342, Note_off_c, 14, 70, 64
1, 51343, Pitch_bend_c, 4, 8192
1, 51346, Note_off_c, 15, 66, 64
1, 51346, Control_c, 15, 1, 0
1, 51348, Note_off_c, 3, 73, 64
1, 51349, Pitch_bend_c, 5, 8478
1, 51351, Pitch_bend_c, 4, 8452
1, 51353, Pitch_bend_c, 5, 9568
1, 51355, Pitch_bend_c, 4, 9441
1, 51357, Pitch_bend_c, 5, 9970
1, 51359, Note_on_c, 14, 66, 108
1, 51359, Note_on_c, 15, 63, 102
1, 51359, Pitch_bend_c, 4, 9806
1, 51360, Note_on_c, 9, 42, 110
1, 51360, Note_on_c, 9, 38, 115
1, 51361, Note_off_c, 9, 38, 64
1, 51361, Note_off_c, 9, 42, 64
1, 51361, Pitch_bend_c, 5, 10084
1, 51361, Note_on_c, 9, 39, 127
1, 51362, Note_off_c, 9, 39, 64
1, 51362, Note_on_c, 3, 70, 107
1, 51363, Pitch_bend_c, 4, 9910
1, 51365, Pitch_bend_c, 5, 9913
1, 51367, Note_on_c, 10, 39, 127
1, 51367, Pitch_bend_c, 4, 9754
1, 51368, Note_off_c, 10, 39, 64
1, 51369, Pitch_bend_c, 5, 8192
1, 51371, Pitch_bend_c, 4, 8192
1, 51374, Note_off_c, 15, 63, 64
1, 51374, Note_off_c, 3, 70, 64
1, 51374, Control_c, 0, 11, 125
1, 51374, Control_c, 1, 11, 125
1, 51375, Note_off_c, 14, 66, 64
1, 51376, Control_c, 2, 11, 125
1, 51377, Control_c, 3, 11, 125
1, 51400, Pitch_bend_c, 3, 7684
1, 51403, Note_off_c, 5, 51, 64
1, 51404, Pitch_bend_c, 14, 3904
1, 51405, Note_off_c, 8, 51, 64
1, 51405, Note_off_c, 4, 51, 64
1, 51405, Note_off_c, 1, 39, 64
1, 51405, Note_on_c, 5, 51, 114
1, 51406, Pitch_bend_c, 3, 1888
1, 51407, Note_on_c, 1, 39, 127
1, 51407, Note_on_c, 4, 51, 114
1, 51407, Note_on_c, 8, 51, 107
1, 51408, Note_on_c, 14, 68, 111
1, 51408, Note_on_c, 15, 65, 100
1, 51408, Note_on_c, 9, 42, 50
1, 51409, Note_off_c, 9, 42, 64
1, 51410, Pitch_bend_c, 5, 10307
1, 51411, Pitch_bend_c, 15, 2140
1, 51411, Pitch_bend_c, 1, 12288
1, 51411, Pitch_bend_c, 8, 12288
1, 51412, Pitch_bend_c, 4, 10112
1, 51413, Note_on_c, 3, 73, 108
1, 51413, Pitch_bend_c, 3, 2518
1, 51413, Pitch_bend_c, 5, 12704
1, 51414, Pitch_bend_c, 1, 16320
1, 51414, Pitch_bend_c, 8, 16320
1, 51415, Pitch_bend_c, 14, 2266
1, 51415, Pitch_bend_c, 5, 14890
1, 51415, Pitch_bend_c, 4, 12288
1, 51417, Pitch_bend_c, 5, 16383
1, 51417, Pitch_bend_c, 4, 14272
1, 51419, Pitch_bend_c, 4, 16320
1, 51421, Pitch_bend_c, 15, 4912
1, 51422, Pitch_bend_c, 3, 8192
1, 51423, Pitch_bend_c, 14, 8192
1, 51431, Pitch_bend_c, 15, 8192
1, 51451, Note_off_c, 2, 70, 64
1, 51452, Note_off_c, 11, 78, 64
1, 51452, Note_off_c, 11, 82, 64
1, 51452, Note_off_c, 0, 66, 64
1, 51452, Note_off_c, 0, 58, 64
1, 51452, Note_off_c, 0, 63, 64
1, 51453, Note_off_c, 2, 66, 64
1, 51456, Note_on_c, 9, 42, 110
1, 51456, Note_on_c, 9, 36, 90
1, 51456, Note_on_c, 0, 56, 78
1, 51456, Note_on_c, 0, 65, 72
1, 51456, Note_on_c, 0, 61, 75
1, 51456, Note_on_c, 11, 80, 64
1, 51456, Note_on_c, 11, 77, 64
1, 51457, Note_off_c, 9, 36, 64
1, 51457, Note_off_c, 9, 42, 64
1, 51461, Note_on_c, 2, 68, 94
1, 51464, Note_on_c, 2, 65, 94
1, 51491, Note_off_c, 14, 68, 64
1, 51494, Note_off_c, 15, 65, 64
1, 51496, Note_off_c, 3, 73, 64
1, 51500, Note_off_c, 5, 51, 64
1, 51500, Control_c, 11, 11, 125
1, 51501, Pitch_bend_c, 5, 8192
1, 51502, Note_off_c, 8, 51, 64
1, 51502, Note_off_c, 4, 51, 64
1, 51502, Note_off_c, 1, 39, 64
1, 51502, Control_c, 14, 11, 125
1, 51502, Note_on_c, 5, 51, 114
1, 51503, Note_on_c, 14, 65, 108
1, 51503, Pitch_bend_c, 1, 8192
1, 51503, Pitch_bend_c, 4, 8192
1, 51503, Pitch_bend_c, 8, 8192
1, 51504, Note_on_c, 15, 61, 102
1, 51504, Control_c, 15, 11, 125
1, 51504, Note_on_c, 9, 42, 50
1, 51504, Note_on_c, 1, 39, 127
1, 51504, Note_on_c, 4, 51, 114
1, 51504, Note_on_c, 8, 51, 107
1, 51504, Control_c, 10, 11, 125
1, 51505, Note_off_c, 9, 42, 64
1, 51506, Note_on_c, 3, 70, 108
1, 51516, Note_off_c, 15, 61, 64
1, 51517, Note_off_c, 3, 70, 64
1, 51519, Control_c, 11, 11, 126
1, 51521, Control_c, 14, 11, 126
1, 51522, Control_c, 15, 11, 126
1, 51523, Note_off_c, 14, 65, 64
1, 51523, Control_c, 10, 11, 126
1, 51544, Note_off_c, 5, 51, 64
1, 51546, Note_off_c, 1, 39, 64
1, 51546, Note_off_c, 8, 51, 64
1, 51546, Note_off_c, 4, 51, 64
1, 51550, Note_on_c, 5, 49, 114
1, 51552, Note_on_c, 9, 42, 110
1, 51552, Note_on_c, 9, 38, 115
1, 51552, Note_on_c, 9, 36, 90
1, 51552, Note_on_c, 1, 37, 127
1, 51552, Note_on_c, 4, 49, 114
1, 51552, Note_on_c, 8, 49, 107
1, 51553, Note_off_c, 9, 36, 64
1, 51553, Note_off_c, 9, 38, 64
1, 51553, Note_off_c, 9, 42, 64
1, 51590, Note_off_c, 8, 49, 64
1, 51590, Note_off_c, 1, 37, 64
1, 51591, Note_off_c, 5, 49, 64
1, 51593, Note_off_c, 4, 49, 64
1, 51600, Note_on_c, 9, 42, 50
1, 51601, Note_off_c, 9, 42, 64
1, 51601, Control_c, 0, 11, 123
1, 51601, Control_c, 1, 11, 123
1, 51603, Control_c, 2, 11, 123
1, 51604, Control_c, 3, 11, 123
1, 51610, Control_c, 1, 11, 124
1, 51611, Control_c, 0, 11, 124
1, 51613, Control_c, 3, 11, 124
1, 51613, Control_c, 2, 11, 124
1, 51620, Control_c, 11, 11, 125
1, 51622, Control_c, 14, 11, 125
1, 51624, Control_c, 15, 11, 125
1, 51625, Control_c, 10, 11, 125
1, 51645, Control_c, 11, 11, 123
1, 51646, Control_c, 14, 11, 123
1, 51648, Control_c, 15, 11, 123
1, 51648, Note_on_c, 9, 42, 110
1, 51649, Note_off_c, 9, 42, 64
1, 51649, Control_c, 10, 11, 123
1, 51696, Note_on_c, 9, 42, 50
1, 51696, Note_on_c, 9, 36, 90
1, 51697, Note_off_c, 9, 36, 64
1, 51697, Note_off_c, 9, 42, 64
1, 51744, Note_on_c, 9, 42, 110
1, 51744, Note_on_c, 9, 38, 115
1, 51745, Note_off_c, 9, 38, 64
1, 51745, Note_off_c, 9, 42, 64
1, 51745, Note_on_c, 9, 39, 127
1, 51746, Note_off_c, 9, 39, 64
1, 51751, Note_on_c, 10, 39, 127
1, 51752, Note_off_c, 10, 39, 64
1, 51764, Pitch_bend_c, 15, 7810
1, 51770, Pitch_bend_c, 15, 3904
1, 51777, Pitch_bend_c, 15, 1636
1, 51780, Pitch_bend_c, 14, 5920
1, 51783, Pitch_bend_c, 15, 7054
1, 51785, Pitch_bend_c, 14, 3400
1, 51786, Pitch_bend_c, 3, 7810
1, 51788, Pitch_bend_c, 15, 8192
1, 51789, Pitch_bend_c, 5, 8192
1, 51790, Pitch_bend_c, 14, 8907
1, 51790, Note_on_c, 5, 39, 114
1, 51791, Pitch_bend_c, 3, 4282
1, 51791, Pitch_bend_c, 4, 8192
1, 51792, Note_on_c, 14, 65, 107
1, 51792, Note_on_c, 15, 63, 102
1, 51792, Note_on_c, 9, 42, 50
1, 51792, Note_on_c, 9, 36, 90
1, 51792, Note_on_c, 1, 27, 127
1, 51792, Note_on_c, 4, 39, 114
1, 51792, Note_on_c, 8, 39, 107
1, 51793, Note_off_c, 9, 36, 64
1, 51793, Note_off_c, 9, 42, 64
1, 51794, Note_on_c, 3, 68, 107
1, 51797, Pitch_bend_c, 14, 8192
1, 51799, Pitch_bend_c, 3, 4660
1, 51802, Note_off_c, 15, 63, 64
1, 51805, Pitch_bend_c, 3, 7558
1, 51811, Note_off_c, 14, 65, 64
1, 51811, Pitch_bend_c, 3, 8192
1, 51818, Note_off_c, 3, 68, 64
1, 51819, Control_c, 11, 11, 121
1, 51821, Note_off_c, 2, 68, 64
1, 51821, Control_c, 14, 11, 121
1, 51823, Control_c, 15, 11, 121
1, 51824, Control_c, 10, 11, 121
1, 51826, Note_off_c, 2, 65, 64
1, 51836, Note_off_c, 0, 56, 64
1, 51836, Note_off_c, 11, 77, 64
1, 51836, Note_off_c, 11, 80, 64
1, 51836, Note_off_c, 0, 61, 64
1, 51836, Note_off_c, 0, 65, 64
1, 51840, Note_on_c, 9, 42, 110
1, 51840, Note_on_c, 9, 36, 90
1, 51840, Note_on_c, 0, 63, 78
1, 51840, Note_on_c, 0, 58, 76
1, 51840, Note_on_c, 0, 66, 69
1, 51840, Note_on_c, 11, 82, 64
1, 51840, Note_on_c, 11, 78, 64
1, 51841, Note_off_c, 9, 36, 64
1, 51841, Note_off_c, 9, 42, 64
1, 51845, Note_on_c, 2, 70, 94
1, 51847, Note_on_c, 2, 66, 94
1, 51872, Control_c, 11, 11, 119
1, 51874, Control_c, 14, 11, 119
1, 51875, Control_c, 15, 11, 119
1, 51877, Control_c, 10, 11, 119
1, 51885, Note_off_c, 5, 39, 64
1, 51886, Note_on_c, 5, 42, 114
1, 51887, Note_off_c, 1, 27, 64
1, 51887, Note_off_c, 4, 39, 64
1, 51887, Note_off_c, 8, 39, 64
1, 51888, Note_on_c, 15, 61, 100
1, 51888, Note_on_c, 9, 42, 50
1, 51888, Note_on_c, 1, 30, 127
1, 51888, Note_on_c, 4, 42, 114
1, 51888, Note_on_c, 8, 42, 107
1, 51889, Note_off_c, 9, 42, 64
1, 51889, Note_on_c, 14, 63, 110
1, 51892, Note_on_c, 3, 66, 105
1, 51898, Note_off_c, 15, 61, 64
1, 51902, Note_off_c, 14, 63, 64
1, 51904, Control_c, 4, 11, 126
1, 51905, Note_off_c, 3, 66, 64
1, 51905, Control_c, 8, 11, 126
1, 51905, Control_c, 9, 11, 126
1, 51906, Control_c, 5, 11, 126
1, 51933, Note_off_c, 5, 42, 64
1, 51934, Note_on_c, 5, 46, 114
1, 51935, Note_off_c, 1, 30, 64
1, 51935, Note_off_c, 8, 42, 64
1, 51935, Note_off_c, 4, 42, 64
1, 51936, Note_on_c, 15, 63, 102
1, 51936, Note_on_c, 9, 42, 110
1, 51936, Note_on_c, 9, 38, 115
1, 51936, Note_on_c, 1, 34, 127
1, 51936, Note_on_c, 4, 46, 114
1, 51936, Note_on_c, 8, 46, 107
1, 51937, Note_off_c, 9, 38, 64
1, 51937, Note_off_c, 9, 42, 64
1, 51937, Note_on_c, 14, 65, 104
1, 51940, Note_on_c, 3, 68, 105
1, 51944, Control_c, 1, 11, 122
1, 51945, Control_c, 0, 11, 122
1, 51947, Note_off_c, 15, 63, 64
1, 51947, Control_c, 3, 11, 122
1, 51947, Control_c, 2, 11, 122
1, 51953, Note_off_c, 14, 65, 64
1, 51961, Note_off_c, 3, 68, 64
1, 51977, Control_c, 8, 11, 124
1, 51977, Control_c, 9, 11, 124
1, 51977, Control_c, 4, 11, 124
1, 51978, Control_c, 5, 11, 124
1, 51981, Note_off_c, 5, 46, 64
1, 51982, Note_on_c, 5, 54, 114
1, 51983, Note_off_c, 8, 46, 64
1, 51983, Note_off_c, 4, 46, 64
1, 51983, Note_off_c, 1, 34, 64
1, 51984, Note_on_c, 9, 42, 50
1, 51984, Note_on_c, 1, 42, 127
1, 51984, Note_on_c, 4, 54, 114
1, 51984, Note_on_c, 8, 54, 107
1, 51985, Note_off_c, 9, 42, 64
1, 51991, Control_c, 8, 11, 125
1, 51991, Control_c, 4, 11, 125
1, 51992, Control_c, 9, 11, 125
1, 51993, Control_c, 0, 11, 120
1, 51993, Control_c, 1, 11, 120
1, 51993, Control_c, 5, 11, 125
1, 51995, Control_c, 2, 11, 120
1, 51996, Control_c, 3, 11, 120
1, 52013, Pitch_bend_c, 15, 4912
1, 52014, Pitch_bend_c, 14, 7432
1, 52019, Pitch_bend_c, 14, 5794
1, 52021, Pitch_bend_c, 15, 3526
1, 52028, Pitch_bend_c, 15, 2770
1, 52029, Note_off_c, 5, 54, 64
1, 52029, Note_on_c, 14, 63, 111
1, 52030, Note_on_c, 5, 51, 114
1, 52031, Note_off_c, 1, 42, 64
1, 52031, Note_off_c, 8, 54, 64
1, 52031, Note_off_c, 4, 54, 64
1, 52032, Pitch_bend_c, 14, 5920
1, 52032, Note_on_c, 15, 61, 102
1, 52032, Note_on_c, 9, 42, 110
1, 52032, Note_on_c, 9, 36, 90
1, 52032, Note_on_c, 1, 39, 127
1, 52032, Note_on_c, 4, 51, 114
1, 52032, Note_on_c, 8, 51, 107
1, 52033, Note_off_c, 9, 36, 64
1, 52033, Note_off_c, 9, 42, 64
1, 52034, Note_on_c, 3, 66, 107
1, 52037, Pitch_bend_c, 15, 5920
1, 52038, Pitch_bend_c, 14, 8192
1, 52043, Pitch_bend_c, 5, 8249
1, 52045, Pitch_bend_c, 15, 8192
1, 52045, Pitch_bend_c, 4, 8244
1, 52046, Control_c, 0, 11, 118
1, 52046, Control_c, 1, 11, 118
1, 52047, Pitch_bend_c, 5, 8708
1, 52049, Control_c, 3, 11, 118
1, 52049, Pitch_bend_c, 4, 8660
1, 52049, Control_c, 2, 11, 118
1, 52054, Pitch_bend_c, 5, 8364
1, 52056, Pitch_bend_c, 4, 8348
1, 52058, Pitch_bend_c, 5, 8192
1, 52060, Pitch_bend_c, 4, 8192
1, 52061, Control_c, 11, 11, 117
1, 52063, Control_c, 14, 11, 117
1, 52064, Control_c, 15, 11, 117
1, 52066, Control_c, 10, 11, 117
1, 52069, Control_c, 8, 11, 123
1, 52069, Control_c, 9, 11, 123
1, 52069, Control_c, 4, 11, 123
1, 52070, Control_c, 5, 11, 123
1, 52071, Note_off_c, 14, 63, 64
1, 52074, Note_off_c, 3, 66, 64
1, 52074, Pitch_bend_c, 5, 8249
1, 52075, Note_off_c, 15, 61, 64
1, 52076, Pitch_bend_c, 4, 8244
1, 52078, Pitch_bend_c, 5, 8478
1, 52080, Note_on_c, 14, 65, 104
1, 52080, Note_on_c, 9, 42, 50
1, 52080, Pitch_bend_c, 4, 8452
1, 52081, Note_off_c, 9, 42, 64
1, 52081, Note_on_c, 15, 63, 101
1, 52081, Pitch_bend_c, 5, 8708
1, 52083, Pitch_bend_c, 4, 8660
1, 52084, Note_on_c, 3, 68, 98
1, 52089, Pitch_bend_c, 5, 8593
1, 52090, Note_off_c, 15, 63, 64
1, 52091, Pitch_bend_c, 4, 8556
1, 52092, Note_off_c, 14, 65, 64
1, 52093, Pitch_bend_c, 5, 8192
1, 52095, Note_off_c, 3, 68, 64
1, 52095, Pitch_bend_c, 4, 8192
1, 52098, Control_c, 8, 11, 121
1, 52098, Control_c, 9, 11, 121
1, 52098, Control_c, 4, 11, 121
1, 52099, Control_c, 5, 11, 121
1, 52105, Pitch_bend_c, 5, 8249
1, 52107, Pitch_bend_c, 4, 8244
1, 52109, Pitch_bend_c, 5, 8823
1, 52111, Pitch_bend_c, 4, 8765
1, 52113, Pitch_bend_c, 5, 9052
1, 52115, Pitch_bend_c, 4, 8973
1, 52120, Pitch_bend_c, 5, 8364
1, 52122, Pitch_bend_c, 4, 8348
1, 52125, Pitch_bend_c, 5, 8192
1, 52127, Pitch_bend_c, 4, 8192
1, 52128, Note_on_c, 9, 42, 110
1, 52128, Note_on_c, 9, 38, 115
1, 52129, Note_off_c, 9, 38, 64
1, 52129, Note_off_c, 9, 42, 64
1, 52129, Note_on_c, 9, 39, 127
1, 52130, Note_off_c, 9, 39, 64
1, 52132, Pitch_bend_c, 5, 8593
1, 52134, Pitch_bend_c, 4, 8556
1, 52135, Note_on_c, 10, 39, 127
1, 52136, Note_off_c, 10, 39, 64
1, 52136, Pitch_bend_c, 5, 9453
1, 52138, Pitch_bend_c, 4, 9337
1, 52140, Pitch_bend_c, 5, 9797
1, 52142, Pitch_bend_c, 4, 9649
1, 52146, Control_c, 8, 11, 119
1, 52146, Control_c, 4, 11, 120
1, 52147, Control_c, 9, 11, 120
1, 52148, Pitch_bend_c, 5, 9110
1, 52148, Control_c, 5, 11, 120
1, 52150, Pitch_bend_c, 4, 9025
1, 52152, Pitch_bend_c, 5, 8192
1, 52152, Control_c, 8, 11, 120
1, 52154, Pitch_bend_c, 4, 8192
1, 52156, Pitch_bend_c, 14, 7432
1, 52161, Pitch_bend_c, 3, 7810
1, 52162, Pitch_bend_c, 14, 4786
1, 52166, Pitch_bend_c, 3, 6676
1, 52168, Pitch_bend_c, 14, 2896
1, 52171, Note_off_c, 5, 51, 64
1, 52172, Pitch_bend_c, 3, 4786
1, 52173, Note_off_c, 8, 51, 64
1, 52173, Note_off_c, 4, 51, 64
1, 52173, Note_off_c, 1, 39, 64
1, 52173, Note_on_c, 5, 51, 114
1, 52174, Note_on_c, 14, 65, 107
1, 52175, Note_on_c, 1, 39, 127
1, 52175, Note_on_c, 4, 51, 114
1, 52175, Note_on_c, 8, 51, 107
1, 52176, Note_on_c, 15, 63, 102
1, 52176, Note_on_c, 9, 42, 50
1, 52177, Note_off_c, 9, 42, 64
1, 52177, Pitch_bend_c, 14, 8192
1, 52178, Pitch_bend_c, 1, 12288
1, 52178, Pitch_bend_c, 5, 12704
1, 52178, Pitch_bend_c, 5, 10307
1, 52178, Pitch_bend_c, 8, 12288
1, 52179, Note_on_c, 3, 68, 108
1, 52180, Pitch_bend_c, 4, 10112
1, 52181, Pitch_bend_c, 3, 5038
1, 52181, Pitch_bend_c, 1, 16320
1, 52181, Pitch_bend_c, 8, 16320
1, 52185, Pitch_bend_c, 5, 14890
1, 52187, Note_off_c, 15, 63, 64
1, 52187, Pitch_bend_c, 5, 16383
1, 52187, Pitch_bend_c, 4, 14272
1, 52188, Pitch_bend_c, 3, 7810
1, 52189, Pitch_bend_c, 4, 16320
1, 52193, Note_off_c, 14, 65, 64
1, 52195, Pitch_bend_c, 3, 8192
1, 52202, Note_off_c, 3, 68, 64
1, 52210, Note_off_c, 2, 70, 64
1, 52216, Note_off_c, 2, 66, 64
1, 52219, Control_c, 8, 11, 118
1, 52219, Control_c, 4, 11, 118
1, 52220, Note_off_c, 0, 63, 64
1, 52220, Note_off_c, 11, 78, 64
1, 52220, Note_off_c, 11, 82, 64
1, 52220, Note_off_c, 0, 58, 64
1, 52220, Note_off_c, 0, 66, 64
1, 52220, Control_c, 9, 11, 118
1, 52221, Control_c, 5, 11, 118
1, 52224, Note_on_c, 9, 42, 110
1, 52224, Note_on_c, 9, 36, 90
1, 52224, Note_on_c, 0, 56, 78
1, 52224, Note_on_c, 0, 65, 72
1, 52224, Note_on_c, 0, 61, 75
1, 52224, Note_on_c, 11, 80, 64
1, 52224, Note_on_c, 11, 77, 64
1, 52224, Control_c, 11, 11, 115
1, 52225, Note_off_c, 9, 36, 64
1, 52225, Note_off_c, 9, 42, 64
1, 52226, Control_c, 14, 11, 115
1, 52228, Control_c, 15, 11, 115
1, 52228, Control_c, 10, 11, 115
1, 52230, Note_on_c, 2, 70, 94
1, 52234, Note_on_c, 2, 73, 94
1, 52249, Control_c, 1, 11, 116
1, 52250, Control_c, 0, 11, 116
1, 52252, Control_c, 3, 11, 116
1, 52252, Control_c, 2, 11, 116
1, 52264, Note_off_c, 5, 51, 64
1, 52266, Note_off_c, 4, 51, 64
1, 52269, Note_off_c, 8, 51, 64
1, 52269, Note_off_c, 1, 39, 64
1, 52269, Pitch_bend_c, 5, 8192
1, 52270, Note_on_c, 5, 51, 114
1, 52271, Note_on_c, 14, 63, 110
1, 52271, Pitch_bend_c, 1, 8192
1, 52271, Pitch_bend_c, 4, 8192
1, 52271, Pitch_bend_c, 8, 8192
1, 52272, Note_on_c, 15, 61, 101
1, 52272, Note_on_c, 9, 42, 50
1, 52272, Note_on_c, 1, 39, 127
1, 52272, Note_on_c, 4, 51, 114
1, 52272, Note_on_c, 8, 51, 107
1, 52273, Note_off_c, 9, 42, 64
1, 52275, Note_on_c, 3, 66, 107
1, 52284, Note_off_c, 15, 61, 64
1, 52287, Note_off_c, 14, 63, 64
1, 52287, Control_c, 8, 11, 116
1, 52287, Control_c, 9, 11, 116
1, 52287, Control_c, 4, 11, 116
1, 52288, Control_c, 5, 11, 116
1, 52297, Note_off_c, 3, 66, 64
1, 52315, Note_off_c, 5, 51, 64
1, 52317, Note_off_c, 1, 39, 64
1, 52317, Note_off_c, 8, 51, 64
1, 52317, Note_off_c, 4, 51, 64
1, 52318, Note_on_c, 14, 65, 103
1, 52318, Note_on_c, 5, 49, 114
1, 52320, Note_on_c, 15, 63, 101
1, 52320, Note_on_c, 9, 42, 110
1, 52320, Note_on_c, 9, 38, 115
1, 52320, Note_on_c, 9, 36, 90
1, 52320, Note_on_c, 1, 37, 127
1, 52320, Note_on_c, 4, 49, 114
1, 52320, Note_on_c, 8, 49, 107
1, 52321, Note_off_c, 9, 36, 64
1, 52321, Note_off_c, 9, 38, 64
1, 52321, Note_off_c, 9, 42, 64
1, 52322, Note_on_c, 3, 68, 107
1, 52334, Note_off_c, 15, 63, 64
1, 52338, Note_off_c, 14, 65, 64
1, 52341, Note_off_c, 3, 68, 64
1, 52356, Note_off_c, 5, 49, 64
1, 52358, Note_off_c, 4, 49, 64
1, 52358, Note_off_c, 1, 37, 64
1, 52358, Note_off_c, 8, 49, 64
1, 52365, Control_c, 1, 11, 114
1, 52366, Control_c, 0, 11, 114
1, 52368, Note_on_c, 9, 42, 50
1, 52368, Control_c, 2, 11, 114
1, 52369, Note_off_c, 9, 42, 64
1, 52369, Control_c, 3, 11, 114
1, 52374, Control_c, 8, 11, 114
1, 52374, Control_c, 9, 11, 114
1, 52374, Control_c, 4, 11, 114
1, 52375, Control_c, 5, 11, 114
1, 52384, Pitch_bend_c, 15, 7180
1, 52394, Pitch_bend_c, 15, 3778
1, 52402, Pitch_bend_c, 14, 7558
1, 52404, Pitch_bend_c, 15, 2770
1, 52404, Control_c, 1, 11, 112
1, 52405, Control_c, 0, 11, 112
1, 52407, Control_c, 3, 11, 112
1, 52407, Control_c, 2, 11, 112
1, 52412, Pitch_bend_c, 14, 8192
1, 52413, Note_on_c, 14, 63, 111
1, 52414, Note_on_c, 5, 49, 114
1, 52415, Note_on_c, 15, 61, 102
1, 52416, Note_on_c, 3, 66, 107
1, 52416, Pitch_bend_c, 15, 8192
1, 52416, Note_on_c, 9, 42, 110
1, 52416, Note_on_c, 1, 37, 127
1, 52416, Note_on_c, 4, 49, 114
1, 52416, Note_on_c, 8, 49, 107
1, 52417, Note_off_c, 9, 42, 64
1, 52422, Control_c, 8, 11, 112
1, 52422, Control_c, 4, 11, 112
1, 52423, Control_c, 9, 11, 112
1, 52424, Control_c, 5, 11, 112
1, 52451, Note_off_c, 1, 37, 64
1, 52451, Note_off_c, 8, 49, 64
1, 52454, Note_off_c, 5, 49, 64
1, 52454, Note_off_c, 15, 61, 64
1, 52456, Note_off_c, 4, 49, 64
1, 52459, Note_off_c, 3, 66, 64
1, 52463, Note_off_c, 14, 63, 64
1, 52464, Note_on_c, 15, 58, 100
1, 52464, Note_on_c, 9, 42, 50
1, 52464, Note_on_c, 9, 36, 90
1, 52465, Note_off_c, 9, 36, 64
1, 52465, Note_off_c, 9, 42, 64
1, 52465, Note_on_c, 14, 58, 108
1, 52466, Note_on_c, 3, 63, 104
1, 52474, Note_off_c, 15, 58, 64
1, 52474, Note_off_c, 3, 63, 64
1, 52475, Control_c, 4, 11, 110
1, 52476, Control_c, 8, 11, 110
1, 52477, Note_off_c, 14, 58, 64
1, 52477, Control_c, 9, 11, 110
1, 52477, Control_c, 5, 11, 110
1, 52507, Control_c, 11, 11, 113
1, 52508, Control_c, 14, 11, 113
1, 52510, Control_c, 15, 11, 113
1, 52511, Control_c, 10, 11, 113
1, 52512, Note_on_c, 9, 42, 110
1, 52512, Note_on_c, 9, 38, 115
1, 52513, Note_off_c, 9, 38, 64
1, 52513, Note_off_c, 9, 42, 64
1, 52513, Note_on_c, 9, 39, 127
1, 52514, Note_off_c, 9, 39, 64
1, 52516, Control_c, 0, 11, 110
1, 52516, Control_c, 1, 11, 110
1, 52518, Control_c, 2, 11, 110
1, 52519, Control_c, 3, 11, 110
1, 52519, Note_on_c, 10, 39, 127
1, 52520, Note_off_c, 10, 39, 64
1, 52548, Pitch_bend_c, 14, 3904
1, 52550, Pitch_bend_c, 3, 7684
1, 52551, Pitch_bend_c, 15, 7180
1, 52553, Control_c, 8, 11, 108
1, 52553, Control_c, 4, 11, 108
1, 52554, Control_c, 9, 11, 108
1, 52554, Control_c, 5, 11, 108
1, 52556, Pitch_bend_c, 14, 8192
1, 52558, Note_on_c, 5, 39, 114
1, 52559, Pitch_bend_c, 3, 5542
1, 52560, Note_on_c, 14, 65, 108
1, 52560, Pitch_bend_c, 15, 1636
1, 52560, Note_on_c, 15, 63, 102
1, 52560, Note_on_c, 9, 42, 50
1, 52560, Note_on_c, 1, 27, 127
1, 52560, Note_on_c, 4, 39, 114
1, 52560, Note_on_c, 8, 39, 107
1, 52561, Note_off_c, 9, 42, 64
1, 52563, Note_on_c, 3, 68, 108
1, 52570, Note_off_c, 15, 63, 64
1, 52570, Control_c, 11, 11, 111
1, 52571, Control_c, 14, 11, 111
1, 52573, Pitch_bend_c, 15, 8192
1, 52573, Control_c, 15, 11, 111
1, 52574, Control_c, 0, 11, 108
1, 52574, Control_c, 1, 11, 108
1, 52574, Control_c, 10, 11, 111
1, 52577, Control_c, 3, 11, 108
1, 52577, Control_c, 2, 11, 108
1, 52578, Note_off_c, 14, 65, 64
1, 52579, Pitch_bend_c, 3, 8192
1, 52584, Control_c, 0, 11, 109
1, 52584, Control_c, 1, 11, 109
1, 52586, Control_c, 2, 11, 109
1, 52587, Note_off_c, 3, 68, 64
1, 52587, Control_c, 3, 11, 109
1, 52589, Note_off_c, 2, 73, 64
1, 52604, Note_off_c, 0, 56, 64
1, 52604, Note_off_c, 11, 77, 64
1, 52604, Note_off_c, 11, 80, 64
1, 52604, Note_off_c, 0, 61, 64
1, 52604, Note_off_c, 0, 65, 64
1, 52608, Note_on_c, 9, 42, 110
1, 52608, Note_on_c, 9, 36, 90
1, 52608, Note_on_c, 0, 63, 78
1, 52608, Note_on_c, 0, 58, 76
1, 52608, Note_on_c, 0, 66, 69
1, 52608, Note_on_c, 11, 78, 64
1, 52608, Note_on_c, 11, 82, 64
1, 52608, Control_c, 0, 11, 107
1, 52608, Control_c, 1, 11, 107
1, 52609, Note_off_c, 9, 36, 64
1, 52609, Note_off_c, 9, 42, 64
1, 52609, Note_on_c, 2, 75, 94
1, 52611, Control_c, 2, 11, 107
1, 52612, Control_c, 3, 11, 107
1, 52652, Note_off_c, 5, 39, 64
1, 52654, Note_off_c, 4, 39, 64
1, 52654, Note_off_c, 1, 27, 64
1, 52654, Note_off_c, 8, 39, 64
1, 52654, Note_on_c, 5, 42, 114
1, 52656, Note_on_c, 15, 61, 100
1, 52656, Note_on_c, 9, 42, 50
1, 52656, Note_on_c, 1, 30, 127
1, 52656, Note_on_c, 4, 42, 114
1, 52656, Note_on_c, 8, 42, 107
1, 52657, Note_off_c, 9, 42, 64
1, 52657, Note_on_c, 14, 63, 110
1, 52660, Note_on_c, 3, 66, 105
1, 52668, Note_off_c, 15, 61, 64
1, 52671, Note_off_c, 14, 63, 64
1, 52677, Note_off_c, 3, 66, 64
1, 52698, Control_c, 8, 11, 106
1, 52698, Control_c, 4, 11, 106
1, 52699, Control_c, 9, 11, 106
1, 52699, Control_c, 5, 11, 106
1, 52700, Note_off_c, 5, 42, 64
1, 52702, Note_off_c, 1, 30, 64
1, 52702, Note_off_c, 8, 42, 64
1, 52702, Note_off_c, 4, 42, 64
1, 52702, Note_on_c, 5, 46, 114
1, 52703, Note_on_c, 14, 65, 102
1, 52704, Note_on_c, 9, 42, 110
1, 52704, Note_on_c, 9, 38, 115
1, 52704, Note_on_c, 1, 34, 127
1, 52704, Note_on_c, 4, 46, 114
1, 52704, Note_on_c, 8, 46, 107
1, 52705, Note_off_c, 9, 38, 64
1, 52705, Note_off_c, 9, 42, 64
1, 52705, Note_on_c, 15, 63, 102
1, 52709, Note_on_c, 3, 68, 107
1, 52718, Note_off_c, 15, 63, 64
1, 52720, Note_off_c, 14, 65, 64
1, 52733, Note_off_c, 3, 68, 64
1, 52748, Note_off_c, 5, 46, 64
1, 52750, Note_off_c, 8, 46, 64
1, 52750, Note_off_c, 4, 46, 64
1, 52750, Note_off_c, 1, 34, 64
1, 52750, Note_on_c, 5, 54, 114
1, 52752, Note_on_c, 9, 42, 50
1, 52752, Note_on_c, 1, 42, 127
1, 52752, Note_on_c, 4, 54, 114
1, 52752, Note_on_c, 8, 54, 107
1, 52753, Note_off_c, 9, 42, 64
1, 52754, Control_c, 11, 11, 109
1, 52755, Control_c, 14, 11, 109
1, 52757, Control_c, 15, 11, 109
1, 52758, Control_c, 0, 11, 105
1, 52758, Control_c, 1, 11, 105
1, 52758, Control_c, 10, 11, 109
1, 52760, Control_c, 2, 11, 105
1, 52761, Control_c, 3, 11, 105
1, 52763, Control_c, 11, 11, 110
1, 52765, Control_c, 14, 11, 110
1, 52766, Control_c, 15, 11, 110
1, 52768, Control_c, 10, 11, 110
1, 52773, Pitch_bend_c, 14, 3904
1, 52774, Pitch_bend_c, 15, 7180
1, 52783, Pitch_bend_c, 14, 9167
1, 52783, Pitch_bend_c, 15, 1762
1, 52793, Pitch_bend_c, 14, 8192
1, 52793, Pitch_bend_c, 15, 2518
1, 52796, Note_off_c, 5, 54, 64
1, 52798, Note_off_c, 1, 42, 64
1, 52798, Note_off_c, 8, 54, 64
1, 52798, Note_off_c, 4, 54, 64
1, 52798, Note_on_c, 5, 51, 114
1, 52799, Note_on_c, 14, 63, 110
1, 52800, Note_on_c, 15, 61, 102
1, 52800, Note_on_c, 9, 42, 110
1, 52800, Note_on_c, 9, 36, 90
1, 52800, Note_on_c, 1, 39, 127
1, 52800, Note_on_c, 4, 51, 114
1, 52800, Note_on_c, 8, 51, 107
1, 52801, Note_off_c, 9, 36, 64
1, 52801, Note_off_c, 9, 42, 64
1, 52802, Note_on_c, 3, 66, 104
1, 52806, Pitch_bend_c, 15, 8192
1, 52823, Pitch_bend_c, 5, 8478
1, 52825, Pitch_bend_c, 4, 8452
1, 52827, Pitch_bend_c, 5, 9110
1, 52829, Pitch_bend_c, 4, 9025
1, 52829, Control_c, 8, 11, 104
1, 52829, Control_c, 4, 11, 104
1, 52830, Control_c, 9, 11, 104
1, 52830, Control_c, 5, 11, 104
1, 52831, Pitch_bend_c, 5, 9568
1, 52833, Pitch_bend_c, 4, 9441
1, 52835, Pitch_bend_c, 5, 9682
1, 52836, Note_off_c, 14, 63, 64
1, 52837, Pitch_bend_c, 4, 9545
1, 52841, Control_c, 11, 11, 108
1, 52842, Note_off_c, 3, 66, 64
1, 52843, Control_c, 14, 11, 108
1, 52843, Pitch_bend_c, 5, 7855
1, 52845, Control_c, 15, 11, 108
1, 52845, Pitch_bend_c, 4, 7886
1, 52845, Control_c, 10, 11, 108
1, 52846, Note_off_c, 15, 61, 64
1, 52846, Pitch_bend_c, 5, 8192
1, 52848, Note_on_c, 14, 65, 102
1, 52848, Note_on_c, 9, 42, 50
1, 52848, Pitch_bend_c, 4, 8192
1, 52849, Note_off_c, 9, 42, 64
1, 52849, Note_on_c, 15, 63, 101
1, 52852, Note_on_c, 3, 68, 104
1, 52855, Control_c, 11, 11, 109
1, 52857, Note_off_c, 15, 63, 64
1, 52857, Control_c, 14, 11, 109
1, 52858, Pitch_bend_c, 5, 8249
1, 52859, Note_off_c, 14, 65, 64
1, 52859, Control_c, 15, 11, 109
1, 52860, Pitch_bend_c, 4, 8244
1, 52860, Control_c, 10, 11, 109
1, 52862, Pitch_bend_c, 5, 9797
1, 52864, Pitch_bend_c, 4, 9649
1, 52864, Control_c, 1, 11, 103
1, 52865, Control_c, 0, 11, 103
1, 52866, Note_off_c, 3, 68, 64
1, 52866, Pitch_bend_c, 5, 9913
1, 52867, Control_c, 2, 11, 103
1, 52868, Control_c, 3, 11, 103
1, 52868, Pitch_bend_c, 4, 9754
1, 52873, Pitch_bend_c, 5, 9110
1, 52875, Pitch_bend_c, 4, 9025
1, 52877, Pitch_bend_c, 5, 8192
1, 52879, Pitch_bend_c, 4, 8192
1, 52885, Pitch_bend_c, 5, 8478
1, 52887, Pitch_bend_c, 4, 8452
1, 52889, Pitch_bend_c, 5, 9568
1, 52891, Pitch_bend_c, 4, 9441
1, 52893, Pitch_bend_c, 5, 9970
1, 52895, Pitch_bend_c, 4, 9806
1, 52896, Note_on_c, 9, 42, 110
1, 52896, Note_on_c, 9, 38, 115
1, 52897, Note_off_c, 9, 38, 64
1, 52897, Note_off_c, 9, 42, 64
1, 52897, Pitch_bend_c, 5, 10084
1, 52897, Note_on_c, 9, 39, 127
1, 52898, Note_off_c, 9, 39, 64
1, 52899, Pitch_bend_c, 4, 9910
1, 52901, Pitch_bend_c, 5, 9913
1, 52903, Note_on_c, 10, 39, 127
1, 52903, Pitch_bend_c, 4, 9754
1, 52904, Note_off_c, 10, 39, 64
1, 52905, Pitch_bend_c, 5, 8192
1, 52907, Pitch_bend_c, 4, 8192
1, 52926, Control_c, 8, 11, 102
1, 52926, Control_c, 4, 11, 102
1, 52927, Control_c, 9, 11, 102
1, 52927, Control_c, 5, 11, 102
1, 52929, Pitch_bend_c, 3, 7054
1, 52934, Pitch_bend_c, 14, 5668
1, 52939, Note_off_c, 5, 51, 64
1, 52939, Pitch_bend_c, 3, 4912
1, 52941, Note_off_c, 8, 51, 64
1, 52941, Note_off_c, 4, 51, 64
1, 52941, Note_off_c, 1, 39, 64
1, 52941, Note_on_c, 5, 51, 114
1, 52943, Note_on_c, 14, 65, 104
1, 52943, Note_on_c, 1, 39, 127
1, 52943, Note_on_c, 4, 51, 114
1, 52943, Note_on_c, 8, 51, 107
1, 52944, Note_on_c, 9, 42, 50
1, 52945, Note_off_c, 9, 42, 64
1, 52945, Note_on_c, 15, 63, 102
1, 52946, Pitch_bend_c, 14, 8192
1, 52946, Pitch_bend_c, 5, 10307
1, 52947, Note_on_c, 3, 68, 108
1, 52947, Pitch_bend_c, 1, 12288
1, 52947, Pitch_bend_c, 8, 12288
1, 52948, Pitch_bend_c, 4, 10112
1, 52949, Pitch_bend_c, 5, 12704
1, 52950, Pitch_bend_c, 1, 16320
1, 52950, Pitch_bend_c, 8, 16320
1, 52951, Pitch_bend_c, 5, 14890
1, 52951, Pitch_bend_c, 4, 12288
1, 52952, Pitch_bend_c, 3, 8192
1, 52953, Pitch_bend_c, 5, 16383
1, 52953, Pitch_bend_c, 4, 14272
1, 52954, Note_off_c, 15, 63, 64
1, 52955, Pitch_bend_c, 4, 16320
1, 52959, Note_off_c, 14, 65, 64
1, 52969, Note_off_c, 3, 68, 64
1, 52970, Note_off_c, 2, 75, 64
1, 52988, Note_off_c, 11, 82, 64
1, 52988, Note_off_c, 11, 78, 64
1, 52988, Note_off_c, 0, 66, 64
1, 52988, Note_off_c, 0, 58, 64
1, 52988, Note_off_c, 0, 63, 64
1, 52989, Note_on_c, 2, 73, 94
1, 52992, Note_on_c, 9, 42, 110
1, 52992, Note_on_c, 9, 36, 90
1, 52992, Note_on_c, 0, 56, 78
1, 52992, Note_on_c, 0, 65, 72
1, 52992, Note_on_c, 0, 61, 75
1, 52992, Note_on_c, 11, 80, 64
1, 52992, Note_on_c, 11, 77, 64
1, 52993, Note_off_c, 9, 36, 64
1, 52993, Note_off_c, 9, 42, 64
1, 52995, Control_c, 1, 11, 101
1, 52996, Control_c, 0, 11, 101
1, 52998, Control_c, 3, 11, 101
1, 52998, Control_c, 2, 11, 101
1, 53017, Control_c, 4, 11, 100
1, 53018, Control_c, 8, 11, 100
1, 53018, Control_c, 9, 11, 100
1, 53019, Control_c, 5, 11, 100
1, 53036, Note_off_c, 5, 51, 64
1, 53037, Pitch_bend_c, 5, 8192
1, 53038, Note_off_c, 8, 51, 64
1, 53038, Note_off_c, 4, 51, 64
1, 53038, Note_off_c, 1, 39, 64
1, 53038, Note_on_c, 5, 51, 114
1, 53039, Note_on_c, 14, 63, 109
1, 53039, Pitch_bend_c, 1, 8192
1, 53039, Pitch_bend_c, 4, 8192
1, 53039, Pitch_bend_c, 8, 8192
1, 53040, Note_on_c, 15, 61, 99
1, 53040, Note_on_c, 9, 42, 50
1, 53040, Note_on_c, 1, 39, 127
1, 53040, Note_on_c, 4, 51, 114
1, 53040, Note_on_c, 8, 51, 107
1, 53040, Control_c, 11, 11, 107
1, 53041, Note_off_c, 9, 42, 64
1, 53042, Note_on_c, 3, 66, 104
1, 53042, Control_c, 14, 11, 107
1, 53044, Control_c, 15, 11, 107
1, 53044, Control_c, 10, 11, 107
1, 53046, Note_off_c, 15, 61, 64
1, 53053, Note_off_c, 14, 63, 64
1, 53061, Control_c, 8, 11, 98
1, 53061, Control_c, 4, 11, 98
1, 53062, Control_c, 9, 11, 98
1, 53062, Control_c, 5, 11, 98
1, 53063, Note_off_c, 3, 66, 64
1, 53080, Note_off_c, 5, 51, 64
1, 53082, Note_off_c, 1, 39, 64
1, 53082, Note_off_c, 8, 51, 64
1, 53082, Note_off_c, 4, 51, 64
1, 53086, Note_on_c, 5, 49, 114
1, 53087, Note_on_c, 14, 65, 102
1, 53088, Note_on_c, 15, 63, 102
1, 53088, Note_on_c, 9, 42, 110
1, 53088, Note_on_c, 9, 38, 115
1, 53088, Note_on_c, 9, 36, 90
1, 53088, Note_on_c, 1, 37, 127
1, 53088, Note_on_c, 4, 49, 114
1, 53088, Note_on_c, 8, 49, 107
1, 53089, Note_off_c, 9, 36, 64
1, 53089, Note_off_c, 9, 38, 64
1, 53089, Note_off_c, 9, 42, 64
1, 53091, Note_on_c, 3, 68, 108
1, 53099, Note_off_c, 15, 63, 64
1, 53104, Note_off_c, 14, 65, 64
1, 53113, Note_off_c, 3, 68, 64
1, 53116, Control_c, 1, 11, 99
1, 53117, Control_c, 0, 11, 99
1, 53119, Control_c, 3, 11, 99
1, 53119, Control_c, 2, 11, 99
1, 53126, Note_off_c, 8, 49, 64
1, 53126, Note_off_c, 1, 37, 64
1, 53127, Note_off_c, 5, 49, 64
1, 53129, Note_off_c, 4, 49, 64
1, 53134, Control_c, 8, 11, 97
1, 53134, Control_c, 9, 11, 97
1, 53134, Control_c, 4, 11, 97
1, 53135, Control_c, 5, 11, 97
1, 53136, Note_on_c, 9, 42, 50
1, 53137, Note_off_c, 9, 42, 64
1, 53143, Pitch_bend_c, 15, 3778
1, 53153, Pitch_bend_c, 15, 3022
1, 53164, Pitch_bend_c, 15, 8192
1, 53170, Control_c, 11, 11, 105
1, 53172, Control_c, 14, 11, 105
1, 53173, Control_c, 15, 11, 105
1, 53175, Control_c, 10, 11, 105
1, 53182, Note_on_c, 14, 63, 110
1, 53183, Note_on_c, 15, 61, 101
1, 53184, Note_on_c, 9, 42, 110
1, 53185, Note_off_c, 9, 42, 64
1, 53185, Note_on_c, 3, 66, 107
1, 53194, Control_c, 0, 11, 97
1, 53194, Control_c, 1, 11, 97
1, 53196, Control_c, 2, 11, 97
1, 53197, Control_c, 3, 11, 97
1, 53198, Note_off_c, 14, 63, 64
1, 53199, Note_off_c, 15, 61, 64
1, 53208, Note_off_c, 3, 66, 64
1, 53211, Control_c, 8, 11, 95
1, 53211, Control_c, 4, 11, 95
1, 53212, Control_c, 9, 11, 95
1, 53213, Control_c, 5, 11, 95
1, 53232, Note_on_c, 9, 42, 50
1, 53232, Note_on_c, 9, 36, 90
1, 53233, Note_off_c, 9, 36, 64
1, 53233, Note_off_c, 9, 42, 64
1, 53233, Control_c, 11, 11, 103
1, 53235, Control_c, 14, 11, 103
1, 53236, Control_c, 15, 11, 103
1, 53237, Control_c, 10, 11, 103
1, 53279, Pitch_bend_c, 3, 2770
1, 53279, Note_on_c, 14, 65, 109
1, 53279, Control_c, 8, 11, 93
1, 53279, Control_c, 9, 11, 93
1, 53279, Control_c, 4, 11, 93
1, 53280, Note_on_c, 15, 63, 102
1, 53280, Note_on_c, 9, 42, 110
1, 53280, Note_on_c, 9, 38, 115
1, 53280, Control_c, 5, 11, 93
1, 53281, Note_off_c, 9, 38, 64
1, 53281, Note_off_c, 9, 42, 64
1, 53281, Pitch_bend_c, 3, 3022
1, 53281, Note_on_c, 9, 39, 127
1, 53282, Note_off_c, 9, 39, 64
1, 53282, Note_on_c, 3, 68, 108
1, 53286, Pitch_bend_c, 3, 4282
1, 53287, Note_on_c, 10, 39, 127
1, 53288, Note_off_c, 10, 39, 64
1, 53291, Pitch_bend_c, 3, 8192
1, 53292, Note_off_c, 15, 63, 64
1, 53300, Note_off_c, 14, 65, 64
1, 53303, Control_c, 4, 11, 91
1, 53304, Control_c, 8, 11, 91
1, 53304, Control_c, 9, 11, 91
1, 53305, Control_c, 1, 11, 95
1, 53305, Control_c, 5, 11, 91
1, 53306, Control_c, 0, 11, 95
1, 53308, Control_c, 3, 11, 95
1, 53308, Control_c, 2, 11, 95
1, 53325, Note_off_c, 3, 68, 64
1, 53325, Pitch_bend_c, 5, 8192
1, 53326, Note_on_c, 5, 39, 114
1, 53327, Pitch_bend_c, 4, 8192
1, 53328, Note_on_c, 9, 42, 50
1, 53328, Note_on_c, 1, 27, 127
1, 53328, Note_on_c, 4, 39, 114
1, 53328, Note_on_c, 8, 39, 107
1, 53329, Note_off_c, 9, 42, 64
1, 53332, Control_c, 8, 11, 89
1, 53332, Control_c, 4, 11, 89
1, 53333, Control_c, 9, 11, 89
1, 53334, Control_c, 5, 11, 89
1, 53342, Note_off_c, 2, 73, 64
1, 53343, Note_off_c, 2, 70, 64
1, 53347, Pitch_bend_c, 15, 6424
1, 53355, Pitch_bend_c, 14, 3148
1, 53358, Pitch_bend_c, 15, 3022
1, 53364, Pitch_bend_c, 14, 1636
1, 53367, Note_on_c, 2, 70, 94
1, 53368, Pitch_bend_c, 15, 3148
1, 53370, Note_on_c, 2, 66, 94
1, 53372, Note_off_c, 11, 80, 64
1, 53372, Note_off_c, 0, 65, 64
1, 53372, Note_off_c, 0, 61, 64
1, 53372, Note_off_c, 0, 56, 64
1, 53372, Note_off_c, 11, 77, 64
1, 53375, Note_on_c, 14, 70, 111
1, 53376, Note_on_c, 15, 70, 102
1, 53376, Note_on_c, 9, 42, 110
1, 53376, Note_on_c, 9, 36, 90
1, 53376, Note_on_c, 0, 63, 78
1, 53376, Note_on_c, 0, 58, 76
1, 53376, Note_on_c, 0, 66, 69
1, 53376, Note_on_c, 11, 78, 64
1, 53376, Note_on_c, 11, 82, 64
1, 53377, Note_off_c, 9, 36, 64
1, 53377, Note_off_c, 9, 42, 64
1, 53378, Note_on_c, 3, 70, 108
1, 53378, Pitch_bend_c, 15, 7306
1, 53385, Pitch_bend_c, 14, 8192
1, 53390, Control_c, 8, 11, 87
1, 53390, Control_c, 4, 11, 87
1, 53391, Pitch_bend_c, 15, 8192
1, 53391, Control_c, 9, 11, 87
1, 53392, Control_c, 5, 11, 87
1, 53411, Note_off_c, 14, 70, 64
1, 53411, Note_off_c, 3, 70, 64
1, 53412, Control_c, 0, 11, 93
1, 53412, Control_c, 1, 11, 93
1, 53413, Note_off_c, 15, 70, 64
1, 53415, Control_c, 3, 11, 93
1, 53415, Control_c, 2, 11, 93
1, 53421, Note_off_c, 5, 39, 64
1, 53422, Note_on_c, 5, 42, 114
1, 53423, Note_off_c, 4, 39, 64
1, 53423, Note_off_c, 8, 39, 64
1, 53423, Note_off_c, 1, 27, 64
1, 53424, Note_on_c, 9, 42, 50
1, 53424, Note_on_c, 1, 30, 127
1, 53424, Note_on_c, 4, 42, 114
1, 53424, Note_on_c, 8, 42, 107
1, 53425, Note_off_c, 9, 42, 64
1, 53425, Note_on_c, 14, 70, 110
1, 53425, Note_on_c, 15, 70, 100
1, 53428, Note_on_c, 3, 70, 107
1, 53439, Control_c, 8, 11, 85
1, 53439, Control_c, 9, 11, 85
1, 53439, Control_c, 4, 11, 85
1, 53440, Control_c, 5, 11, 85
1, 53441, Control_c, 11, 11, 102
1, 53443, Control_c, 14, 11, 102
1, 53444, Control_c, 15, 11, 102
1, 53446, Control_c, 10, 11, 102
1, 53450, Control_c, 1, 11, 91
1, 53451, Control_c, 0, 11, 91
1, 53453, Control_c, 3, 11, 91
1, 53453, Control_c, 2, 11, 91
1, 53469, Note_off_c, 5, 42, 64
1, 53470, Note_on_c, 5, 46, 114
1, 53471, Note_off_c, 1, 30, 64
1, 53471, Note_off_c, 8, 42, 64
1, 53471, Note_off_c, 4, 42, 64
1, 53472, Note_on_c, 9, 42, 110
1, 53472, Note_on_c, 9, 38, 115
1, 53472, Note_on_c, 1, 34, 127
1, 53472, Note_on_c, 4, 46, 114
1, 53472, Note_on_c, 8, 46, 107
1, 53473, Note_off_c, 9, 38, 64
1, 53473, Note_off_c, 9, 42, 64
1, 53485, Control_c, 11, 11, 100
1, 53487, Control_c, 14, 11, 100
1, 53488, Control_c, 15, 11, 100
1, 53489, Control_c, 10, 11, 100
1, 53499, Control_c, 0, 11, 89
1, 53499, Control_c, 1, 11, 89
1, 53501, Control_c, 2, 11, 89
1, 53502, Control_c, 3, 11, 89
1, 53517, Note_off_c, 5, 46, 64
1, 53518, Note_on_c, 5, 54, 114
1, 53519, Note_off_c, 8, 46, 64
1, 53519, Note_off_c, 4, 46, 64
1, 53519, Note_off_c, 1, 34, 64
1, 53520, Note_on_c, 9, 42, 50
1, 53520, Note_on_c, 1, 42, 127
1, 53520, Note_on_c, 4, 54, 114
1, 53520, Note_on_c, 8, 54, 107
1, 53521, Note_off_c, 9, 42, 64
1, 53538, Note_off_c, 15, 70, 64
1, 53543, Control_c, 11, 11, 98
1, 53545, Control_c, 14, 11, 98
1, 53545, Control_c, 8, 11, 83
1, 53545, Control_c, 4, 11, 83
1, 53546, Control_c, 9, 11, 83
1, 53547, Control_c, 15, 11, 98
1, 53547, Control_c, 5, 11, 83
1, 53547, Control_c, 10, 11, 98
1, 53548, Note_off_c, 14, 70, 64
1, 53549, Note_off_c, 3, 70, 64
1, 53556, Pitch_bend_c, 15, 2392
1, 53565, Note_off_c, 5, 54, 64
1, 53565, Pitch_bend_c, 15, 1636
1, 53565, Control_c, 8, 11, 81
1, 53565, Control_c, 9, 11, 81
1, 53565, Control_c, 4, 11, 81
1, 53566, Note_on_c, 5, 51, 114
1, 53566, Control_c, 5, 11, 81
1, 53567, Note_off_c, 1, 42, 64
1, 53567, Note_off_c, 8, 54, 64
1, 53567, Note_off_c, 4, 54, 64
1, 53567, Note_on_c, 14, 66, 110
1, 53568, Note_on_c, 15, 63, 102
1, 53568, Note_on_c, 9, 42, 110
1, 53568, Note_on_c, 9, 36, 90
1, 53568, Note_on_c, 1, 39, 127
1, 53568, Note_on_c, 4, 51, 114
1, 53568, Note_on_c, 8, 51, 107
1, 53569, Note_off_c, 9, 36, 64
1, 53569, Note_off_c, 9, 42, 64
1, 53577, Pitch_bend_c, 15, 8192
1, 53579, Pitch_bend_c, 5, 8249
1, 53581, Pitch_bend_c, 4, 8244
1, 53583, Pitch_bend_c, 5, 8708
1, 53585, Pitch_bend_c, 4, 8660
1, 53590, Pitch_bend_c, 5, 8364
1, 53592, Pitch_bend_c, 4, 8348
1, 53592, Control_c, 11, 11, 96
1, 53593, Control_c, 14, 11, 96
1, 53594, Pitch_bend_c, 5, 8192
1, 53595, Control_c, 15, 11, 96
1, 53596, Pitch_bend_c, 4, 8192
1, 53596, Control_c, 10, 11, 96
1, 53600, Note_off_c, 14, 66, 64
1, 53603, Control_c, 8, 11, 79
1, 53603, Control_c, 4, 11, 79
1, 53604, Control_c, 9, 11, 79
1, 53605, Control_c, 5, 11, 79
1, 53607, Note_off_c, 15, 63, 64
1, 53610, Pitch_bend_c, 5, 8249
1, 53612, Pitch_bend_c, 4, 8244
1, 53614, Pitch_bend_c, 5, 8478
1, 53616, Note_on_c, 14, 66, 108
1, 53616, Note_on_c, 9, 42, 50
1, 53616, Pitch_bend_c, 4, 8452
1, 53617, Note_off_c, 9, 42, 64
1, 53617, Note_on_c, 15, 63, 98
1, 53617, Pitch_bend_c, 5, 8708
1, 53619, Pitch_bend_c, 4, 8660
1, 53625, Pitch_bend_c, 5, 8593
1, 53627, Pitch_bend_c, 4, 8556
1, 53629, Pitch_bend_c, 5, 8192
1, 53631, Pitch_bend_c, 4, 8192
1, 53639, Control_c, 1, 11, 87
1, 53640, Control_c, 0, 11, 87
1, 53640, Control_c, 11, 11, 94
1, 53641, Pitch_bend_c, 5, 8249
1, 53642, Control_c, 14, 11, 94
1, 53642, Control_c, 2, 11, 87
1, 53642, Control_c, 4, 11, 77
1, 53643, Control_c, 3, 11, 87
1, 53643, Pitch_bend_c, 4, 8244
1, 53643, Control_c, 8, 11, 77
1, 53644, Control_c, 15, 11, 94
1, 53644, Control_c, 9, 11, 77
1, 53644, Control_c, 5, 11, 77
1, 53644, Control_c, 10, 11, 94
1, 53645, Pitch_bend_c, 5, 8823
1, 53647, Pitch_bend_c, 4, 8765
1, 53649, Pitch_bend_c, 5, 9052
1, 53651, Pitch_bend_c, 4, 8973
1, 53656, Pitch_bend_c, 5, 8364
1, 53658, Pitch_bend_c, 4, 8348
1, 53661, Pitch_bend_c, 5, 8192
1, 53663, Pitch_bend_c, 4, 8192
1, 53664, Note_on_c, 9, 42, 110
1, 53664, Note_on_c, 9, 38, 115
1, 53664, Control_c, 0, 11, 85
1, 53664, Control_c, 1, 11, 85
1, 53665, Note_off_c, 9, 38, 64
1, 53665, Note_off_c, 9, 42, 64
1, 53665, Note_on_c, 9, 39, 127
1, 53666, Note_off_c, 9, 39, 64
1, 53667, Control_c, 3, 11, 85
1, 53667, Control_c, 2, 11, 85
1, 53668, Pitch_bend_c, 5, 8593
1, 53670, Pitch_bend_c, 4, 8556
1, 53671, Note_on_c, 10, 39, 127
1, 53672, Note_off_c, 10, 39, 64
1, 53672, Pitch_bend_c, 5, 9453
1, 53674, Pitch_bend_c, 4, 9337
1, 53676, Pitch_bend_c, 5, 9797
1, 53678, Pitch_bend_c, 4, 9649
1, 53684, Pitch_bend_c, 5, 9110
1, 53686, Pitch_bend_c, 4, 9025
1, 53688, Pitch_bend_c, 5, 8192
1, 53690, Pitch_bend_c, 4, 8192
1, 53695, Control_c, 8, 11, 75
1, 53695, Control_c, 4, 11, 75
1, 53696, Control_c, 9, 11, 75
1, 53697, Control_c, 5, 11, 75
1, 53707, Note_off_c, 5, 51, 64
1, 53709, Note_off_c, 8, 51, 64
1, 53709, Note_off_c, 4, 51, 64
1, 53709, Note_off_c, 1, 39, 64
1, 53709, Note_on_c, 5, 51, 114
1, 53711, Note_on_c, 1, 39, 127
1, 53711, Note_on_c, 4, 51, 114
1, 53711, Note_on_c, 8, 51, 107
1, 53712, Note_on_c, 9, 42, 50
1, 53713, Note_off_c, 9, 42, 64
1, 53714, Pitch_bend_c, 1, 12288
1, 53714, Pitch_bend_c, 5, 12704
1, 53714, Pitch_bend_c, 5, 10307
1, 53714, Pitch_bend_c, 8, 12288
1, 53716, Pitch_bend_c, 4, 10112
1, 53717, Pitch_bend_c, 1, 16320
1, 53717, Pitch_bend_c, 8, 16320
1, 53721, Pitch_bend_c, 5, 14890
1, 53723, Pitch_bend_c, 5, 16383
1, 53723, Pitch_bend_c, 4, 14272
1, 53724, Pitch_bend_c, 3, 7558
1, 53725, Pitch_bend_c, 4, 16320
1, 53729, Pitch_bend_c, 3, 6046
1, 53734, Pitch_bend_c, 3, 3526
1, 53735, Note_off_c, 14, 66, 64
1, 53737, Note_off_c, 15, 63, 64
1, 53737, Control_c, 11, 11, 92
1, 53738, Control_c, 14, 11, 92
1, 53739, Pitch_bend_c, 3, 2896
1, 53740, Control_c, 15, 11, 92
1, 53741, Pitch_bend_c, 14, 6550
1, 53741, Control_c, 10, 11, 92
1, 53743, Pitch_bend_c, 15, 7684
1, 53748, Pitch_bend_c, 14, 9037
1, 53749, Pitch_bend_c, 3, 2770
1, 53752, Pitch_bend_c, 15, 4534
1, 53753, Pitch_bend_c, 3, 3022
1, 53755, Pitch_bend_c, 14, 8192
1, 53756, Note_off_c, 11, 78, 64
1, 53756, Note_off_c, 11, 82, 64
1, 53756, Note_off_c, 0, 58, 64
1, 53756, Note_off_c, 0, 63, 64
1, 53756, Note_off_c, 0, 66, 64
1, 53758, Control_c, 4, 11, 73
1, 53759, Note_on_c, 14, 70, 111
1, 53759, Control_c, 8, 11, 73
1, 53760, Note_on_c, 15, 70, 102
1, 53760, Note_on_c, 9, 42, 110
1, 53760, Note_on_c, 9, 36, 90
1, 53760, Note_on_c, 0, 56, 78
1, 53760, Note_on_c, 0, 65, 72
1, 53760, Note_on_c, 0, 61, 75
1, 53760, Note_on_c, 11, 80, 64
1, 53760, Note_on_c, 11, 77, 64
1, 53760, Control_c, 9, 11, 73
1, 53760, Control_c, 5, 11, 73
1, 53761, Note_off_c, 9, 36, 64
1, 53761, Note_off_c, 9, 42, 64
1, 53761, Note_off_c, 2, 70, 64
1, 53761, Pitch_bend_c, 3, 3148
1, 53761, Pitch_bend_c, 15, 8192
1, 53762, Note_on_c, 3, 70, 108
1, 53762, Note_on_c, 2, 68, 94
1, 53766, Note_off_c, 2, 66, 64
1, 53766, Pitch_bend_c, 3, 4786
1, 53766, Note_on_c, 2, 73, 94
1, 53766, Control_c, 11, 11, 90
1, 53768, Control_c, 14, 11, 90
1, 53770, Control_c, 15, 11, 90
1, 53770, Control_c, 10, 11, 90
1, 53772, Pitch_bend_c, 3, 6298
1, 53777, Pitch_bend_c, 3, 7558
1, 53782, Pitch_bend_c, 3, 8192
1, 53789, Control_c, 1, 11, 83
1, 53790, Control_c, 0, 11, 83
1, 53792, Control_c, 3, 11, 83
1, 53792, Control_c, 2, 11, 83
1, 53796, Note_off_c, 3, 70, 64
1, 53798, Note_off_c, 15, 70, 64
1, 53798, Note_off_c, 14, 70, 64
1, 53800, Note_off_c, 5, 51, 64
1, 53800, Control_c, 11, 11, 88
1, 53802, Note_off_c, 4, 51, 64
1, 53802, Control_c, 14, 11, 88
1, 53804, Control_c, 15, 11, 88
1, 53804, Control_c, 10, 11, 88
1, 53805, Note_off_c, 1, 39, 64
1, 53805, Note_off_c, 8, 51, 64
1, 53805, Pitch_bend_c, 5, 8192
1, 53806, Note_on_c, 5, 51, 114
1, 53807, Pitch_bend_c, 1, 8192
1, 53807, Pitch_bend_c, 4, 8192
1, 53807, Pitch_bend_c, 8, 8192
1, 53808, Note_on_c, 9, 42, 50
1, 53808, Note_on_c, 1, 39, 127
1, 53808, Note_on_c, 4, 51, 114
1, 53808, Note_on_c, 8, 51, 107
1, 53809, Note_off_c, 9, 42, 64
1, 53809, Note_on_c, 14, 70, 110
1, 53809, Note_on_c, 15, 70, 101
1, 53810, Note_on_c, 3, 70, 102
1, 53814, Control_c, 11, 11, 86
1, 53816, Control_c, 14, 11, 86
1, 53816, Control_c, 8, 11, 71
1, 53816, Control_c, 4, 11, 71
1, 53817, Control_c, 9, 11, 71
1, 53818, Control_c, 15, 11, 86
1, 53818, Control_c, 5, 11, 71
1, 53818, Control_c, 10, 11, 86
1, 53837, Control_c, 1, 11, 81
1, 53838, Control_c, 0, 11, 81
1, 53840, Control_c, 3, 11, 81
1, 53840, Control_c, 2, 11, 81
1, 53847, Control_c, 3, 1, 7
1, 53851, Note_off_c, 5, 51, 64
1, 53852, Control_c, 3, 1, 23
1, 53853, Note_off_c, 1, 39, 64
1, 53853, Note_off_c, 8, 51, 64
1, 53853, Note_off_c, 4, 51, 64
1, 53853, Control_c, 11, 11, 84
1, 53854, Note_on_c, 5, 49, 114
1, 53855, Control_c, 14, 11, 84
1, 53856, Control_c, 15, 11, 84
1, 53856, Note_on_c, 9, 42, 110
1, 53856, Note_on_c, 9, 38, 115
1, 53856, Note_on_c, 9, 36, 90
1, 53856, Note_on_c, 1, 37, 127
1, 53856, Note_on_c, 4, 49, 114
1, 53856, Note_on_c, 8, 49, 107
1, 53857, Note_off_c, 9, 36, 64
1, 53857, Note_off_c, 9, 38, 64
1, 53857, Note_off_c, 9, 42, 64
1, 53857, Control_c, 10, 11, 84
1, 53862, Control_c, 3, 1, 42
1, 53867, Control_c, 3, 1, 62
1, 53871, Control_c, 3, 1, 86
1, 53881, Control_c, 3, 1, 93
1, 53881, Control_c, 0, 11, 79
1, 53881, Control_c, 1, 11, 79
1, 53884, Control_c, 3, 11, 79
1, 53884, Control_c, 2, 11, 79
1, 53891, Control_c, 3, 1, 92
1, 53892, Note_off_c, 5, 49, 64
1, 53894, Note_off_c, 4, 49, 64
1, 53894, Note_off_c, 1, 37, 64
1, 53894, Note_off_c, 8, 49, 64
1, 53894, Control_c, 8, 11, 69
1, 53894, Control_c, 4, 11, 69
1, 53895, Control_c, 9, 11, 69
1, 53896, Control_c, 5, 11, 69
1, 53897, Control_c, 11, 11, 82
1, 53899, Control_c, 14, 11, 82
1, 53900, Control_c, 15, 11, 82
1, 53901, Control_c, 10, 11, 82
1, 53904, Note_on_c, 9, 42, 50
1, 53905, Note_off_c, 9, 42, 64
1, 53905, Control_c, 3, 1, 85
1, 53910, Control_c, 3, 1, 68
1, 53915, Control_c, 3, 1, 54
1, 53916, Note_off_c, 15, 70, 64
1, 53920, Control_c, 3, 1, 13
1, 53920, Control_c, 11, 11, 80
1, 53922, Control_c, 14, 11, 80
1, 53923, Control_c, 15, 11, 80
1, 53925, Control_c, 10, 11, 80
1, 53926, Control_c, 3, 1, 0
1, 53929, Note_off_c, 14, 70, 64
1, 53930, Control_c, 0, 11, 77
1, 53930, Control_c, 1, 11, 77
1, 53932, Note_off_c, 3, 70, 64
1, 53932, Control_c, 2, 11, 77
1, 53933, Control_c, 3, 11, 77
1, 53937, Pitch_bend_c, 15, 1510
1, 53942, Pitch_bend_c, 14, 4534
1, 53945, Control_c, 11, 11, 78
1, 53946, Control_c, 14, 11, 78
1, 53948, Pitch_bend_c, 14, 8257
1, 53948, Control_c, 15, 11, 78
1, 53949, Control_c, 10, 11, 78
1, 53950, Note_on_c, 5, 49, 114
1, 53951, Note_on_c, 14, 65, 107
1, 53952, Note_on_c, 15, 61, 102
1, 53952, Note_on_c, 9, 42, 110
1, 53952, Note_on_c, 1, 37, 127
1, 53952, Note_on_c, 4, 49, 114
1, 53952, Note_on_c, 8, 49, 107
1, 53953, Note_off_c, 9, 42, 64
1, 53958, Pitch_bend_c, 14, 8192
1, 53958, Pitch_bend_c, 15, 3148
1, 53968, Pitch_bend_c, 15, 8192
1, 53971, Control_c, 8, 11, 67
1, 53971, Control_c, 4, 11, 67
1, 53972, Control_c, 9, 11, 67
1, 53973, Control_c, 0, 11, 75
1, 53973, Control_c, 1, 11, 75
1, 53973, Control_c, 5, 11, 67
1, 53976, Control_c, 3, 11, 75
1, 53976, Control_c, 2, 11, 75
1, 53983, Control_c, 11, 11, 77
1, 53985, Note_off_c, 14, 65, 64
1, 53985, Control_c, 14, 11, 77
1, 53986, Control_c, 15, 11, 76
1, 53987, Note_off_c, 1, 37, 64
1, 53987, Note_off_c, 8, 49, 64
1, 53988, Control_c, 10, 11, 77
1, 53990, Note_off_c, 5, 49, 64
1, 53992, Note_off_c, 4, 49, 64
1, 53992, Note_off_c, 15, 61, 64
1, 53992, Control_c, 15, 11, 77
1, 53999, Note_on_c, 14, 65, 100
1, 54000, Note_on_c, 9, 42, 50
1, 54000, Note_on_c, 9, 36, 90
1, 54001, Note_off_c, 9, 36, 64
1, 54001, Note_off_c, 9, 42, 64
1, 54001, Note_on_c, 15, 61, 99
1, 54017, Control_c, 11, 11, 75
1, 54019, Control_c, 14, 11, 75
1, 54020, Control_c, 15, 11, 75
1, 54021, Control_c, 1, 11, 73
1, 54022, Control_c, 0, 11, 73
1, 54022, Control_c, 10, 11, 75
1, 54024, Control_c, 3, 11, 73
1, 54024, Control_c, 2, 11, 73
1, 54029, Control_c, 8, 11, 65
1, 54029, Control_c, 4, 11, 65
1, 54030, Control_c, 9, 11, 65
1, 54031, Control_c, 5, 11, 65
1, 54041, Control_c, 11, 11, 73
1, 54043, Control_c, 14, 11, 73
1, 54044, Control_c, 15, 11, 73
1, 54046, Control_c, 10, 11, 73
1, 54048, Note_on_c, 9, 42, 110
1, 54048, Note_on_c, 9, 38, 115
1, 54049, Note_off_c, 9, 38, 64
1, 54049, Note_off_c, 9, 42, 64
1, 54049, Note_on_c, 9, 39, 127
1, 54050, Note_off_c, 9, 39, 64
1, 54050, Control_c, 1, 11, 71
1, 54051, Control_c, 0, 11, 71
1, 54053, Control_c, 3, 11, 71
1, 54053, Control_c, 2, 11, 71
1, 54055, Note_on_c, 10, 39, 127
1, 54056, Note_off_c, 10, 39, 64
1, 54056, Control_c, 11, 11, 71
1, 54057, Control_c, 14, 11, 71
1, 54059, Control_c, 15, 11, 71
1, 54060, Control_c, 10, 11, 71
1, 54070, Control_c, 0, 11, 69
1, 54070, Control_c, 1, 11, 69
1, 54072, Control_c, 2, 11, 69
1, 54073, Control_c, 3, 11, 69
1, 54077, Pitch_bend_c, 3, 7810
1, 54079, Note_off_c, 15, 61, 64
1, 54082, Pitch_bend_c, 3, 6424
1, 54084, Note_off_c, 14, 65, 64
1, 54085, Control_c, 11, 11, 69
1, 54087, Pitch_bend_c, 3, 1510
1, 54087, Control_c, 14, 11, 69
1, 54088, Control_c, 15, 11, 69
1, 54089, Control_c, 10, 11, 69
1, 54094, Pitch_bend_c, 15, 4282
1, 54094, Note_on_c, 5, 39, 114
1, 54094, Control_c, 0, 11, 67
1, 54094, Control_c, 1, 11, 67
1, 54096, Note_on_c, 9, 42, 50
1, 54096, Note_on_c, 1, 27, 127
1, 54096, Note_on_c, 4, 39, 114
1, 54096, Note_on_c, 8, 39, 107
1, 54097, Note_off_c, 9, 42, 64
1, 54097, Control_c, 2, 11, 67
1, 54098, Control_c, 3, 11, 67
1, 54098, Note_on_c, 14, 66, 111
1, 54098, Note_on_c, 15, 63, 102
1, 54099, Note_on_c, 3, 70, 107
1, 54102, Pitch_bend_c, 14, 3274
1, 54103, Pitch_bend_c, 3, 4912
1, 54106, Pitch_bend_c, 15, 1636
1, 54108, Pitch_bend_c, 3, 7684
1, 54112, Pitch_bend_c, 14, 8192
1, 54113, Pitch_bend_c, 3, 8192
1, 54114, Control_c, 11, 11, 67
1, 54116, Control_c, 14, 11, 67
1, 54117, Pitch_bend_c, 15, 3904
1, 54117, Control_c, 15, 11, 67
1, 54118, Control_c, 10, 11, 67
1, 54121, Control_c, 8, 11, 64
1, 54121, Control_c, 4, 11, 64
1, 54122, Control_c, 9, 11, 64
1, 54123, Control_c, 5, 11, 64
1, 54127, Pitch_bend_c, 15, 8192
1, 54140, Note_off_c, 11, 80, 64
1, 54140, Note_off_c, 0, 65, 64
1, 54140, Note_off_c, 0, 61, 64
1, 54140, Note_off_c, 0, 56, 64
1, 54140, Note_off_c, 11, 77, 64
1, 54144, Note_on_c, 9, 42, 110
1, 54144, Note_on_c, 9, 36, 90
1, 54144, Note_on_c, 0, 63, 78
1, 54144, Note_on_c, 0, 58, 76
1, 54144, Note_on_c, 0, 66, 69
1, 54144, Note_on_c, 11, 82, 64
1, 54144, Note_on_c, 11, 78, 64
1, 54145, Note_off_c, 9, 36, 64
1, 54145, Note_off_c, 9, 42, 64
1, 54145, Note_off_c, 2, 73, 64
1, 54146, Note_on_c, 2, 66, 94
1, 54147, Control_c, 0, 11, 65
1, 54147, Control_c, 1, 11, 65
1, 54150, Control_c, 3, 11, 65
1, 54150, Note_on_c, 2, 70, 94
1, 54150, Control_c, 2, 11, 65
1, 54153, Note_off_c, 2, 68, 64
1, 54157, Control_c, 11, 11, 66
1, 54159, Control_c, 14, 11, 66
1, 54160, Control_c, 15, 11, 65
1, 54162, Control_c, 10, 11, 66
1, 54163, Note_off_c, 14, 66, 64
1, 54166, Control_c, 15, 11, 66
1, 54168, Note_off_c, 15, 63, 64
1, 54173, Note_off_c, 3, 70, 64
1, 54174, Control_c, 4, 11, 62
1, 54175, Control_c, 8, 11, 62
1, 54175, Control_c, 9, 11, 62
1, 54176, Control_c, 5, 11, 62
1, 54181, Control_c, 0, 11, 63
1, 54181, Control_c, 1, 11, 63
1, 54184, Control_c, 3, 11, 63
1, 54184, Control_c, 2, 11, 63
1, 54188, Note_off_c, 5, 39, 64
1, 54190, Note_off_c, 1, 27, 64
1, 54190, Note_off_c, 8, 39, 64
1, 54190, Note_off_c, 4, 39, 64
1, 54190, Note_on_c, 5, 42, 114
1, 54192, Note_on_c, 14, 66, 108
1, 54192, Note_on_c, 9, 42, 50
1, 54192, Note_on_c, 1, 30, 127
1, 54192, Note_on_c, 4, 42, 114
1, 54192, Note_on_c, 8, 42, 107
1, 54193, Note_off_c, 9, 42, 64
1, 54193, Note_on_c, 15, 63, 101
1, 54196, Note_on_c, 3, 70, 104
1, 54196, Control_c, 11, 11, 64
1, 54198, Control_c, 14, 11, 64
1, 54199, Control_c, 15, 11, 64
1, 54201, Control_c, 10, 11, 64
1, 54205, Note_off_c, 14, 66, 64
1, 54206, Note_off_c, 15, 63, 64
1, 54207, Note_off_c, 3, 70, 64
1, 54234, Control_c, 1, 11, 61
1, 54235, Control_c, 0, 11, 61
1, 54236, Note_off_c, 5, 42, 64
1, 54237, Control_c, 2, 11, 61
1, 54238, Note_off_c, 1, 30, 64
1, 54238, Note_off_c, 8, 42, 64
1, 54238, Note_off_c, 4, 42, 64
1, 54238, Control_c, 3, 11, 61
1, 54238, Note_on_c, 5, 46, 114
1, 54239, Note_on_c, 14, 66, 109
1, 54240, Note_on_c, 15, 63, 102
1, 54240, Note_on_c, 9, 42, 110
1, 54240, Note_on_c, 9, 38, 115
1, 54240, Note_on_c, 1, 34, 127
1, 54240, Note_on_c, 4, 46, 114
1, 54240, Note_on_c, 8, 46, 107
1, 54241, Note_off_c, 9, 38, 64
1, 54241, Note_off_c, 9, 42, 64
1, 54243, Note_on_c, 3, 70, 107
1, 54249, Control_c, 11, 11, 62
1, 54251, Note_off_c, 15, 63, 64
1, 54251, Control_c, 14, 11, 62
1, 54253, Note_off_c, 14, 66, 64
1, 54253, Control_c, 15, 11, 62
1, 54254, Control_c, 10, 11, 62
1, 54256, Note_off_c, 3, 70, 64
1, 54269, Control_c, 11, 11, 60
1, 54270, Control_c, 14, 11, 60
1, 54272, Control_c, 15, 11, 60
1, 54273, Control_c, 10, 11, 60
1, 54284, Note_off_c, 5, 46, 64
1, 54284, Control_c, 11, 11, 58
1, 54285, Control_c, 14, 11, 58
1, 54286, Note_off_c, 8, 46, 64
1, 54286, Note_off_c, 4, 46, 64
1, 54286, Note_off_c, 1, 34, 64
1, 54286, Note_on_c, 5, 54, 114
1, 54287, Control_c, 15, 11, 58
1, 54288, Note_on_c, 14, 66, 107
1, 54288, Note_on_c, 9, 42, 50
1, 54288, Note_on_c, 1, 42, 127
1, 54288, Note_on_c, 4, 54, 114
1, 54288, Note_on_c, 8, 54, 107
1, 54288, Control_c, 10, 11, 58
1, 54289, Note_off_c, 9, 42, 64
1, 54289, Note_on_c, 15, 63, 102
1, 54291, Note_on_c, 3, 70, 101
1, 54292, Control_c, 1, 11, 59
1, 54293, Control_c, 0, 11, 59
1, 54295, Control_c, 3, 11, 59
1, 54295, Control_c, 2, 11, 59
1, 54301, Note_off_c, 15, 63, 64
1, 54302, Note_off_c, 14, 66, 64
1, 54305, Note_off_c, 3, 70, 64
1, 54323, Pitch_bend_c, 3, 7810
1, 54324, Pitch_bend_c, 15, 4786
1, 54329, Pitch_bend_c, 3, 5038
1, 54330, Pitch_bend_c, 14, 4912
1, 54332, Note_off_c, 5, 54, 64
1, 54334, Note_off_c, 1, 42, 64
1, 54334, Note_off_c, 8, 54, 64
1, 54334, Note_off_c, 4, 54, 64
1, 54334, Pitch_bend_c, 15, 1636
1, 54334, Note_on_c, 5, 51, 114
1, 54336, Note_on_c, 14, 70, 111
1, 54336, Note_on_c, 9, 42, 110
1, 54336, Note_on_c, 9, 36, 90
1, 54336, Note_on_c, 1, 39, 127
1, 54336, Note_on_c, 4, 51, 114
1, 54336, Note_on_c, 8, 51, 107
1, 54336, Control_c, 11, 11, 56
1, 54337, Note_off_c, 9, 36, 64
1, 54337, Note_off_c, 9, 42, 64
1, 54337, Note_on_c, 3, 73, 107
1, 54337, Pitch_bend_c, 3, 2014
1, 54337, Pitch_bend_c, 14, 8517
1, 54337, Note_on_c, 15, 66, 102
1, 54338, Control_c, 14, 11, 56
1, 54340, Control_c, 15, 11, 56
1, 54340, Control_c, 10, 11, 56
1, 54345, Pitch_bend_c, 3, 6676
1, 54346, Pitch_bend_c, 15, 4282
1, 54347, Pitch_bend_c, 14, 8192
1, 54351, Pitch_bend_c, 3, 8192
1, 54355, Control_c, 0, 11, 57
1, 54355, Control_c, 1, 11, 57
1, 54356, Pitch_bend_c, 15, 8192
1, 54358, Control_c, 3, 11, 57
1, 54358, Control_c, 2, 11, 57
1, 54359, Pitch_bend_c, 5, 8478
1, 54361, Pitch_bend_c, 4, 8452
1, 54361, Control_c, 11, 11, 54
1, 54362, Control_c, 14, 11, 54
1, 54363, Pitch_bend_c, 5, 9110
1, 54364, Control_c, 15, 11, 54
1, 54365, Pitch_bend_c, 4, 9025
1, 54365, Control_c, 10, 11, 54
1, 54367, Pitch_bend_c, 5, 9568
1, 54369, Pitch_bend_c, 4, 9441
1, 54371, Pitch_bend_c, 5, 9682
1, 54373, Pitch_bend_c, 4, 9545
1, 54379, Pitch_bend_c, 5, 7855
1, 54381, Pitch_bend_c, 4, 7886
1, 54382, Pitch_bend_c, 5, 8192
1, 54384, Note_on_c, 9, 42, 50
1, 54384, Pitch_bend_c, 4, 8192
1, 54385, Note_off_c, 9, 42, 64
1, 54385, Control_c, 11, 11, 52
1, 54387, Control_c, 14, 11, 52
1, 54388, Control_c, 15, 11, 52
1, 54389, Control_c, 10, 11, 52
1, 54394, Pitch_bend_c, 5, 8249
1, 54396, Pitch_bend_c, 4, 8244
1, 54398, Pitch_bend_c, 5, 9797
1, 54400, Pitch_bend_c, 4, 9649
1, 54402, Pitch_bend_c, 5, 9913
1, 54404, Pitch_bend_c, 4, 9754
1, 54409, Note_off_c, 14, 70, 64
1, 54409, Pitch_bend_c, 5, 9110
1, 54411, Pitch_bend_c, 4, 9025
1, 54412, Control_c, 4, 11, 60
1, 54413, Pitch_bend_c, 5, 8192
1, 54413, Control_c, 8, 11, 60
1, 54413, Control_c, 9, 11, 60
1, 54414, Control_c, 5, 11, 60
1, 54415, Note_off_c, 15, 66, 64
1, 54415, Pitch_bend_c, 4, 8192
1, 54418, Note_off_c, 3, 73, 64
1, 54421, Pitch_bend_c, 5, 8478
1, 54423, Pitch_bend_c, 4, 8452
1, 54423, Control_c, 0, 11, 55
1, 54423, Control_c, 1, 11, 55
1, 54425, Pitch_bend_c, 5, 9568
1, 54425, Control_c, 2, 11, 55
1, 54426, Control_c, 3, 11, 55
1, 54427, Pitch_bend_c, 4, 9441
1, 54429, Pitch_bend_c, 5, 9970
1, 54431, Note_on_c, 14, 66, 110
1, 54431, Pitch_bend_c, 4, 9806
1, 54432, Note_on_c, 15, 63, 101
1, 54432, Note_on_c, 9, 42, 110
1, 54432, Note_on_c, 9, 38, 115
1, 54433, Note_off_c, 9, 38, 64
1, 54433, Note_off_c, 9, 42, 64
1, 54433, Pitch_bend_c, 5, 10084
1, 54433, Note_on_c, 9, 39, 127
1, 54434, Note_off_c, 9, 39, 64
1, 54434, Note_on_c, 3, 70, 107
1, 54434, Control_c, 11, 11, 50
1, 54435, Pitch_bend_c, 4, 9910
1, 54436, Control_c, 14, 11, 50
1, 54437, Control_c, 15, 11, 50
1, 54437, Pitch_bend_c, 5, 9913
1, 54438, Control_c, 10, 11, 50
1, 54439, Note_on_c, 10, 39, 127
1, 54439, Pitch_bend_c, 4, 9754
1, 54440, Note_off_c, 10, 39, 64
1, 54441, Pitch_bend_c, 5, 8192
1, 54443, Pitch_bend_c, 4, 8192
1, 54445, Note_off_c, 15, 63, 64
1, 54448, Note_off_c, 3, 70, 64
1, 54451, Note_off_c, 14, 66, 64
1, 54465, Control_c, 8, 11, 58
1, 54465, Control_c, 4, 11, 58
1, 54466, Control_c, 9, 11, 58
1, 54466, Control_c, 5, 11, 58
1, 54475, Note_off_c, 5, 51, 64
1, 54475, Pitch_bend_c, 15, 6424
1, 54477, Note_off_c, 8, 51, 64
1, 54477, Note_off_c, 4, 51, 64
1, 54477, Note_off_c, 1, 39, 64
1, 54477, Pitch_bend_c, 3, 3400
1, 54477, Note_on_c, 5, 51, 114
1, 54477, Control_c, 0, 11, 53
1, 54477, Control_c, 1, 11, 53
1, 54477, Control_c, 11, 11, 48
1, 54479, Control_c, 14, 11, 48
1, 54479, Note_on_c, 1, 39, 127
1, 54479, Note_on_c, 4, 51, 114
1, 54479, Note_on_c, 8, 51, 107
1, 54480, Note_on_c, 9, 42, 50
1, 54480, Control_c, 2, 11, 53
1, 54481, Note_off_c, 9, 42, 64
1, 54481, Control_c, 3, 11, 53
1, 54481, Note_on_c, 14, 68, 111
1, 54481, Note_on_c, 15, 65, 101
1, 54481, Control_c, 15, 11, 48
1, 54481, Control_c, 10, 11, 48
1, 54482, Pitch_bend_c, 5, 10307
1, 54483, Pitch_bend_c, 1, 12288
1, 54483, Pitch_bend_c, 8, 12288
1, 54484, Pitch_bend_c, 3, 1762
1, 54484, Pitch_bend_c, 14, 3400
1, 54484, Pitch_bend_c, 4, 10112
1, 54485, Pitch_bend_c, 15, 2266
1, 54485, Pitch_bend_c, 5, 12704
1, 54486, Note_on_c, 3, 73, 107
1, 54486, Pitch_bend_c, 1, 16320
1, 54486, Pitch_bend_c, 8, 16320
1, 54487, Pitch_bend_c, 5, 14890
1, 54487, Pitch_bend_c, 4, 12288
1, 54489, Pitch_bend_c, 5, 16383
1, 54489, Pitch_bend_c, 4, 14272
1, 54491, Pitch_bend_c, 4, 16320
1, 54491, Control_c, 11, 11, 46
1, 54493, Pitch_bend_c, 14, 1636
1, 54493, Control_c, 14, 11, 46
1, 54494, Pitch_bend_c, 3, 6802
1, 54495, Control_c, 15, 11, 46
1, 54496, Control_c, 10, 11, 46
1, 54498, Pitch_bend_c, 15, 4534
1, 54501, Pitch_bend_c, 14, 3652
1, 54502, Pitch_bend_c, 3, 8192
1, 54502, Control_c, 11, 11, 44
1, 54504, Control_c, 14, 11, 44
1, 54504, Control_c, 8, 11, 56
1, 54504, Control_c, 4, 11, 56
1, 54505, Control_c, 9, 11, 56
1, 54506, Control_c, 15, 11, 44
1, 54506, Control_c, 5, 11, 56
1, 54506, Control_c, 10, 11, 44
1, 54508, Pitch_bend_c, 14, 8192
1, 54508, Pitch_bend_c, 15, 8192
1, 54520, Note_off_c, 2, 66, 64
1, 54521, Note_off_c, 2, 70, 64
1, 54523, Note_on_c, 2, 65, 94
1, 54524, Note_off_c, 11, 82, 64
1, 54524, Note_off_c, 0, 58, 64
1, 54524, Note_off_c, 0, 63, 64
1, 54524, Note_off_c, 0, 66, 64
1, 54524, Note_off_c, 11, 78, 64
1, 54525, Note_on_c, 2, 68, 94
1, 54528, Note_on_c, 9, 42, 110
1, 54528, Note_on_c, 9, 36, 90
1, 54528, Note_on_c, 0, 56, 78
1, 54528, Note_on_c, 0, 65, 72
1, 54528, Note_on_c, 0, 61, 75
1, 54528, Note_on_c, 11, 77, 64
1, 54528, Note_on_c, 11, 80, 64
1, 54529, Note_off_c, 9, 36, 64
1, 54529, Note_off_c, 9, 42, 64
1, 54540, Control_c, 11, 11, 42
1, 54541, Control_c, 14, 11, 42
1, 54543, Control_c, 15, 11, 42
1, 54544, Control_c, 10, 11, 42
1, 54547, Control_c, 8, 11, 54
1, 54547, Control_c, 4, 11, 54
1, 54548, Control_c, 9, 11, 54
1, 54549, Control_c, 5, 11, 54
1, 54554, Control_c, 0, 11, 52
1, 54554, Control_c, 1, 11, 52
1, 54556, Control_c, 2, 11, 52
1, 54557, Control_c, 3, 11, 52
1, 54559, Note_off_c, 14, 68, 64
1, 54564, Note_off_c, 15, 65, 64
1, 54567, Note_off_c, 3, 73, 64
1, 54572, Note_off_c, 5, 51, 64
1, 54573, Note_on_c, 14, 65, 107
1, 54573, Pitch_bend_c, 5, 8192
1, 54574, Note_off_c, 8, 51, 64
1, 54574, Note_off_c, 1, 39, 64
1, 54574, Note_off_c, 4, 51, 64
1, 54574, Note_on_c, 5, 51, 114
1, 54575, Pitch_bend_c, 1, 8192
1, 54575, Pitch_bend_c, 4, 8192
1, 54575, Pitch_bend_c, 8, 8192
1, 54576, Note_on_c, 15, 61, 102
1, 54576, Note_on_c, 9, 42, 50
1, 54576, Note_on_c, 1, 39, 127
1, 54576, Note_on_c, 4, 51, 114
1, 54576, Note_on_c, 8, 51, 107
1, 54577, Note_off_c, 9, 42, 64
1, 54578, Note_on_c, 3, 70, 107
1, 54583, Control_c, 0, 11, 50
1, 54583, Control_c, 1, 11, 50
1, 54585, Control_c, 2, 11, 50
1, 54586, Control_c, 3, 11, 50
1, 54590, Note_off_c, 14, 65, 64
1, 54590, Note_off_c, 3, 70, 64
1, 54592, Note_off_c, 15, 61, 64
1, 54608, Control_c, 11, 11, 40
1, 54609, Control_c, 14, 11, 40
1, 54610, Control_c, 8, 11, 53
1, 54610, Control_c, 4, 11, 53
1, 54611, Control_c, 15, 11, 40
1, 54611, Control_c, 9, 11, 53
1, 54612, Control_c, 0, 11, 48
1, 54612, Control_c, 1, 11, 48
1, 54612, Control_c, 5, 11, 53
1, 54612, Control_c, 10, 11, 40
1, 54614, Control_c, 2, 11, 48
1, 54615, Control_c, 3, 11, 48
1, 54616, Note_off_c, 5, 51, 64
1, 54618, Note_off_c, 1, 39, 64
1, 54618, Note_off_c, 8, 51, 64
1, 54618, Note_off_c, 4, 51, 64
1, 54622, Note_on_c, 5, 49, 114
1, 54624, Note_on_c, 9, 42, 110
1, 54624, Note_on_c, 9, 38, 115
1, 54624, Note_on_c, 9, 36, 90
1, 54624, Note_on_c, 1, 37, 127
1, 54624, Note_on_c, 4, 49, 114
1, 54624, Note_on_c, 8, 49, 107
1, 54625, Note_off_c, 9, 36, 64
1, 54625, Note_off_c, 9, 38, 64
1, 54625, Note_off_c, 9, 42, 64
1, 54631, Control_c, 0, 11, 46
1, 54631, Control_c, 1, 11, 46
1, 54634, Control_c, 3, 11, 46
1, 54634, Control_c, 2, 11, 46
1, 54662, Note_off_c, 8, 49, 64
1, 54662, Note_off_c, 1, 37, 64
1, 54663, Note_off_c, 5, 49, 64
1, 54665, Note_off_c, 4, 49, 64
1, 54670, Control_c, 11, 11, 38
1, 54672, Control_c, 14, 11, 38
1, 54672, Note_on_c, 9, 42, 50
1, 54673, Note_off_c, 9, 42, 64
1, 54674, Control_c, 15, 11, 38
1, 54675, Control_c, 10, 11, 38
1, 54684, Control_c, 1, 11, 44
1, 54685, Control_c, 0, 11, 44
1, 54687, Control_c, 3, 11, 44
1, 54687, Control_c, 2, 11, 44
1, 54692, Control_c, 4, 11, 51
1, 54693, Control_c, 8, 11, 51
1, 54693, Control_c, 9, 11, 51
1, 54694, Control_c, 5, 11, 51
1, 54708, Control_c, 1, 11, 42
1, 54709, Control_c, 0, 11, 42
1, 54711, Control_c, 3, 11, 42
1, 54711, Control_c, 2, 11, 42
1, 54720, Note_on_c, 9, 42, 110
1, 54721, Note_off_c, 9, 42, 64
1, 54747, Control_c, 0, 11, 40
1, 54747, Control_c, 1, 11, 40
1, 54750, Control_c, 3, 11, 40
1, 54750, Control_c, 2, 11, 40
1, 54755, Control_c, 4, 11, 49
1, 54756, Control_c, 8, 11, 49
1, 54756, Control_c, 9, 11, 49
1, 54757, Control_c, 5, 11, 49
1, 54761, Control_c, 1, 11, 38
1, 54762, Control_c, 0, 11, 38
1, 54763, Control_c, 11, 11, 36
1, 54764, Control_c, 3, 11, 38
1, 54764, Control_c, 2, 11, 38
1, 54765, Control_c, 14, 11, 36
1, 54766, Control_c, 15, 11, 36
1, 54767, Control_c, 10, 11, 36
1, 54768, Note_on_c, 9, 42, 50
1, 54768, Note_on_c, 9, 36, 90
1, 54769, Note_off_c, 9, 36, 64
1, 54769, Note_off_c, 9, 42, 64
1, 54801, Control_c, 11, 11, 34
1, 54803, Control_c, 14, 11, 34
1, 54804, Control_c, 15, 11, 34
1, 54806, Control_c, 10, 11, 34
1, 54816, Note_on_c, 9, 42, 110
1, 54816, Note_on_c, 9, 38, 115
1, 54817, Note_off_c, 9, 38, 64
1, 54817, Note_off_c, 9, 42, 64
1, 54817, Note_on_c, 9, 39, 127
1, 54818, Note_off_c, 9, 39, 64
1, 54823, Note_on_c, 10, 39, 127
1, 54824, Note_off_c, 10, 39, 64
1, 54828, Control_c, 8, 11, 47
1, 54828, Control_c, 4, 11, 47
1, 54829, Control_c, 9, 11, 47
1, 54829, Control_c, 5, 11, 47
1, 54845, Control_c, 11, 11, 32
1, 54846, Control_c, 14, 11, 32
1, 54848, Control_c, 15, 11, 32
1, 54849, Control_c, 10, 11, 32
1, 54852, Pitch_bend_c, 14, 5038
1, 54854, Pitch_bend_c, 3, 7810
1, 54855, Pitch_bend_c, 15, 7684
1, 54857, Pitch_bend_c, 14, 1510
1, 54859, Pitch_bend_c, 3, 3904
1, 54861, Pitch_bend_c, 15, 3274
1, 54861, Pitch_bend_c, 5, 8192
1, 54862, Note_on_c, 5, 39, 114
1, 54863, Pitch_bend_c, 4, 8192
1, 54864, Pitch_bend_c, 3, 2896
1, 54864, Note_on_c, 14, 65, 106
1, 54864, Note_on_c, 9, 42, 50
1, 54864, Note_on_c, 1, 27, 127
1, 54864, Note_on_c, 4, 39, 114
1, 54864, Note_on_c, 8, 39, 107
1, 54865, Note_off_c, 9, 42, 64
1, 54865, Note_on_c, 15, 63, 102
1, 54866, Pitch_bend_c, 15, 2518
1, 54868, Note_on_c, 3, 68, 107
1, 54868, Control_c, 0, 11, 36
1, 54868, Control_c, 1, 11, 36
1, 54869, Pitch_bend_c, 14, 1762
1, 54871, Control_c, 3, 11, 36
1, 54871, Control_c, 2, 11, 36
1, 54872, Pitch_bend_c, 3, 5416
1, 54872, Control_c, 4, 11, 45
1, 54873, Control_c, 8, 11, 45
1, 54874, Pitch_bend_c, 14, 4156
1, 54874, Control_c, 9, 11, 45
1, 54874, Control_c, 5, 11, 45
1, 54876, Pitch_bend_c, 15, 8192
1, 54877, Pitch_bend_c, 3, 8192
1, 54878, Pitch_bend_c, 14, 8192
1, 54881, Note_off_c, 15, 63, 64
1, 54887, Control_c, 1, 11, 34
1, 54888, Control_c, 0, 11, 34
1, 54890, Control_c, 3, 11, 34
1, 54890, Control_c, 2, 11, 34
1, 54891, Note_off_c, 14, 65, 64
1, 54896, Note_off_c, 3, 68, 64
1, 54899, Note_off_c, 2, 68, 64
1, 54902, Note_off_c, 2, 65, 64
1, 54908, Note_off_c, 11, 77, 64
1, 54908, Note_off_c, 0, 61, 64
1, 54908, Note_off_c, 0, 65, 64
1, 54908, Note_off_c, 0, 56, 64
1, 54908, Note_off_c, 11, 80, 64
1, 54909, Note_on_c, 2, 66, 94
1, 54912, Note_on_c, 9, 42, 110
1, 54912, Note_on_c, 9, 36, 90
1, 54912, Note_on_c, 0, 63, 78
1, 54912, Note_on_c, 0, 58, 76
1, 54912, Note_on_c, 0, 66, 69
1, 54912, Note_on_c, 11, 82, 64
1, 54912, Note_on_c, 11, 78, 64
1, 54912, Note_on_c, 2, 70, 94
1, 54912, Control_c, 11, 11, 30
1, 54913, Note_off_c, 9, 36, 64
1, 54913, Note_off_c, 9, 42, 64
1, 54914, Control_c, 14, 11, 30
1, 54916, Control_c, 15, 11, 30
1, 54916, Control_c, 10, 11, 30
1, 54950, Control_c, 1, 11, 32
1, 54951, Control_c, 0, 11, 32
1, 54953, Control_c, 3, 11, 32
1, 54953, Control_c, 2, 11, 32
1, 54957, Note_off_c, 5, 39, 64
1, 54958, Note_on_c, 5, 42, 114
1, 54959, Note_off_c, 8, 39, 64
1, 54959, Note_off_c, 1, 27, 64
1, 54959, Note_off_c, 4, 39, 64
1, 54960, Note_on_c, 14, 63, 110
1, 54960, Note_on_c, 9, 42, 50
1, 54960, Note_on_c, 1, 30, 127
1, 54960, Note_on_c, 4, 42, 114
1, 54960, Note_on_c, 8, 42, 107
1, 54961, Note_off_c, 9, 42, 64
1, 54961, Note_on_c, 15, 61, 101
1, 54965, Note_on_c, 3, 66, 108
1, 54967, Note_off_c, 15, 61, 64
1, 54977, Note_off_c, 14, 63, 64
1, 54980, Note_off_c, 3, 66, 64
1, 54980, Control_c, 0, 11, 30
1, 54980, Control_c, 1, 11, 30
1, 54982, Control_c, 2, 11, 30
1, 54983, Control_c, 3, 11, 30
1, 54990, Control_c, 11, 11, 28
1, 54992, Control_c, 14, 11, 28
1, 54993, Control_c, 15, 11, 28
1, 54995, Control_c, 10, 11, 28
1, 55002, Control_c, 4, 11, 43
1, 55003, Control_c, 8, 11, 43
1, 55003, Control_c, 9, 11, 43
1, 55004, Control_c, 5, 11, 43
1, 55005, Note_off_c, 5, 42, 64
1, 55006, Note_on_c, 5, 46, 114
1, 55007, Note_off_c, 1, 30, 64
1, 55007, Note_off_c, 8, 42, 64
1, 55007, Note_off_c, 4, 42, 64
1, 55007, Note_on_c, 14, 65, 101
1, 55008, Note_on_c, 9, 42, 110
1, 55008, Note_on_c, 9, 38, 115
1, 55008, Note_on_c, 1, 34, 127
1, 55008, Note_on_c, 4, 46, 114
1, 55008, Note_on_c, 8, 46, 107
1, 55009, Note_off_c, 9, 38, 64
1, 55009, Note_off_c, 9, 42, 64
1, 55009, Note_on_c, 15, 63, 102
1, 55012, Note_on_c, 3, 68, 107
1, 55022, Note_off_c, 15, 63, 64
1, 55026, Note_off_c, 14, 65, 64
1, 55028, Control_c, 0, 11, 28
1, 55028, Control_c, 1, 11, 28
1, 55030, Control_c, 2, 11, 28
1, 55031, Control_c, 3, 11, 28
1, 55036, Note_off_c, 3, 68, 64
1, 55046, Control_c, 8, 11, 41
1, 55046, Control_c, 9, 11, 41
1, 55046, Control_c, 4, 11, 41
1, 55047, Control_c, 5, 11, 41
1, 55053, Note_off_c, 5, 46, 64
1, 55054, Note_on_c, 5, 54, 114
1, 55055, Note_off_c, 8, 46, 64
1, 55055, Note_off_c, 4, 46, 64
1, 55055, Note_off_c, 1, 34, 64
1, 55056, Note_on_c, 9, 42, 50
1, 55056, Note_on_c, 1, 42, 127
1, 55056, Note_on_c, 4, 54, 114
1, 55056, Note_on_c, 8, 54, 107
1, 55057, Note_off_c, 9, 42, 64
1, 55076, Control_c, 1, 11, 26
1, 55077, Control_c, 0, 11, 26
1, 55079, Control_c, 3, 11, 26
1, 55079, Control_c, 2, 11, 26
1, 55081, Pitch_bend_c, 14, 7180
1, 55086, Pitch_bend_c, 14, 5164
1, 55086, Pitch_bend_c, 15, 7810
1, 55087, Control_c, 11, 11, 26
1, 55089, Control_c, 14, 11, 26
1, 55090, Control_c, 15, 11, 26
1, 55091, Pitch_bend_c, 14, 4156
1, 55091, Control_c, 10, 11, 26
1, 55092, Pitch_bend_c, 15, 4534
1, 55095, Control_c, 1, 11, 24
1, 55096, Control_c, 0, 11, 24
1, 55098, Control_c, 2, 11, 24
1, 55099, Control_c, 3, 11, 24
1, 55099, Pitch_bend_c, 15, 3148
1, 55101, Note_off_c, 5, 54, 64
1, 55102, Note_on_c, 14, 63, 110
1, 55102, Note_on_c, 5, 51, 114
1, 55103, Note_off_c, 1, 42, 64
1, 55103, Note_off_c, 8, 54, 64
1, 55103, Note_off_c, 4, 54, 64
1, 55103, Pitch_bend_c, 14, 4786
1, 55104, Note_on_c, 15, 61, 102
1, 55104, Note_on_c, 9, 42, 110
1, 55104, Note_on_c, 9, 36, 90
1, 55104, Note_on_c, 1, 39, 127
1, 55104, Note_on_c, 4, 51, 114
1, 55104, Note_on_c, 8, 51, 107
1, 55105, Note_off_c, 9, 36, 64
1, 55105, Note_off_c, 9, 42, 64
1, 55107, Note_on_c, 3, 66, 104
1, 55108, Pitch_bend_c, 14, 8192
1, 55109, Pitch_bend_c, 15, 5038
1, 55109, Control_c, 8, 11, 39
1, 55109, Control_c, 4, 11, 39
1, 55110, Control_c, 9, 11, 39
1, 55111, Control_c, 5, 11, 39
1, 55115, Pitch_bend_c, 5, 8249
1, 55117, Pitch_bend_c, 15, 8192
1, 55117, Pitch_bend_c, 4, 8244
1, 55119, Pitch_bend_c, 5, 8708
1, 55121, Pitch_bend_c, 4, 8660
1, 55126, Pitch_bend_c, 5, 8364
1, 55128, Pitch_bend_c, 4, 8348
1, 55130, Pitch_bend_c, 5, 8192
1, 55132, Pitch_bend_c, 4, 8192
1, 55140, Control_c, 11, 11, 24
1, 55142, Control_c, 14, 11, 24
1, 55143, Control_c, 15, 11, 24
1, 55145, Note_off_c, 15, 61, 64
1, 55145, Control_c, 10, 11, 24
1, 55146, Pitch_bend_c, 5, 8249
1, 55148, Note_off_c, 14, 63, 64
1, 55148, Pitch_bend_c, 4, 8244
1, 55150, Note_off_c, 3, 66, 64
1, 55150, Pitch_bend_c, 5, 8478
1, 55152, Note_on_c, 9, 42, 50
1, 55152, Pitch_bend_c, 4, 8452
1, 55153, Note_off_c, 9, 42, 64
1, 55153, Note_on_c, 14, 65, 101
1, 55153, Note_on_c, 15, 63, 101
1, 55153, Pitch_bend_c, 5, 8708
1, 55154, Control_c, 0, 11, 22
1, 55154, Control_c, 1, 11, 22
1, 55155, Pitch_bend_c, 4, 8660
1, 55156, Control_c, 2, 11, 22
1, 55157, Control_c, 3, 11, 22
1, 55158, Note_on_c, 3, 68, 105
1, 55161, Pitch_bend_c, 5, 8593
1, 55162, Control_c, 8, 11, 37
1, 55162, Control_c, 4, 11, 37
1, 55163, Pitch_bend_c, 4, 8556
1, 55163, Control_c, 9, 11, 37
1, 55164, Control_c, 5, 11, 37
1, 55165, Note_off_c, 15, 63, 64
1, 55165, Pitch_bend_c, 5, 8192
1, 55166, Note_off_c, 14, 65, 64
1, 55167, Pitch_bend_c, 4, 8192
1, 55169, Note_off_c, 3, 68, 64
1, 55177, Pitch_bend_c, 5, 8249
1, 55179, Pitch_bend_c, 4, 8244
1, 55181, Pitch_bend_c, 5, 8823
1, 55183, Pitch_bend_c, 4, 8765
1, 55185, Pitch_bend_c, 5, 9052
1, 55187, Pitch_bend_c, 4, 8973
1, 55188, Control_c, 0, 11, 20
1, 55188, Control_c, 1, 11, 20
1, 55190, Control_c, 2, 11, 20
1, 55191, Control_c, 3, 11, 20
1, 55192, Pitch_bend_c, 5, 8364
1, 55194, Pitch_bend_c, 4, 8348
1, 55196, Control_c, 8, 11, 35
1, 55196, Control_c, 4, 11, 35
1, 55197, Pitch_bend_c, 5, 8192
1, 55197, Control_c, 9, 11, 35
1, 55198, Control_c, 5, 11, 35
1, 55199, Pitch_bend_c, 4, 8192
1, 55200, Note_on_c, 9, 42, 110
1, 55200, Note_on_c, 9, 38, 115
1, 55201, Note_off_c, 9, 38, 64
1, 55201, Note_off_c, 9, 42, 64
1, 55201, Note_on_c, 9, 39, 127
1, 55202, Note_off_c, 9, 39, 64
1, 55204, Pitch_bend_c, 5, 8593
1, 55206, Pitch_bend_c, 4, 8556
1, 55207, Note_on_c, 10, 39, 127
1, 55208, Note_off_c, 10, 39, 64
1, 55208, Pitch_bend_c, 5, 9453
1, 55210, Pitch_bend_c, 4, 9337
1, 55212, Pitch_bend_c, 5, 9797
1, 55214, Pitch_bend_c, 4, 9649
1, 55220, Pitch_bend_c, 5, 9110
1, 55222, Pitch_bend_c, 4, 9025
1, 55224, Pitch_bend_c, 5, 8192
1, 55226, Pitch_bend_c, 4, 8192
1, 55232, Control_c, 11, 11, 22
1, 55234, Control_c, 14, 11, 22
1, 55235, Control_c, 15, 11, 22
1, 55237, Control_c, 10, 11, 22
1, 55241, Pitch_bend_c, 3, 6802
1, 55243, Note_off_c, 5, 51, 64
1, 55244, Control_c, 4, 11, 33
1, 55245, Note_off_c, 8, 51, 64
1, 55245, Note_off_c, 4, 51, 64
1, 55245, Note_off_c, 1, 39, 64
1, 55245, Note_on_c, 5, 51, 114
1, 55245, Control_c, 8, 11, 33
1, 55246, Control_c, 9, 11, 33
1, 55246, Control_c, 5, 11, 33
1, 55247, Pitch_bend_c, 3, 4030
1, 55247, Note_on_c, 14, 65, 107
1, 55247, Note_on_c, 1, 39, 127
1, 55247, Note_on_c, 4, 51, 114
1, 55247, Note_on_c, 8, 51, 107
1, 55248, Note_on_c, 9, 42, 50
1, 55249, Note_off_c, 9, 42, 64
1, 55249, Note_on_c, 15, 63, 102
1, 55250, Pitch_bend_c, 1, 12288
1, 55250, Pitch_bend_c, 5, 12704
1, 55250, Pitch_bend_c, 5, 10307
1, 55250, Pitch_bend_c, 8, 12288
1, 55250, Control_c, 1, 11, 18
1, 55251, Control_c, 0, 11, 18
1, 55252, Note_on_c, 3, 68, 107
1, 55252, Pitch_bend_c, 4, 10112
1, 55253, Pitch_bend_c, 1, 16320
1, 55253, Pitch_bend_c, 8, 16320
1, 55253, Control_c, 2, 11, 18
1, 55254, Control_c, 3, 11, 18
1, 55256, Pitch_bend_c, 3, 2014
1, 55257, Pitch_bend_c, 5, 14890
1, 55259, Note_off_c, 15, 63, 64
1, 55259, Pitch_bend_c, 5, 16383
1, 55259, Pitch_bend_c, 4, 14272
1, 55261, Pitch_bend_c, 4, 16320
1, 55263, Pitch_bend_c, 3, 4030
1, 55264, Control_c, 8, 11, 31
1, 55264, Control_c, 4, 11, 31
1, 55265, Control_c, 9, 11, 31
1, 55265, Control_c, 5, 11, 31
1, 55267, Note_off_c, 14, 65, 64
1, 55270, Pitch_bend_c, 3, 8192
1, 55276, Note_off_c, 2, 66, 64
1, 55276, Control_c, 11, 11, 20
1, 55277, Control_c, 14, 11, 20
1, 55279, Control_c, 15, 11, 20
1, 55280, Control_c, 10, 11, 20
1, 55292, Note_off_c, 11, 78, 64
1, 55292, Note_off_c, 0, 63, 64
1, 55292, Note_off_c, 0, 66, 64
1, 55292, Note_off_c, 0, 58, 64
1, 55292, Note_off_c, 11, 82, 64
1, 55293, Note_on_c, 2, 73, 94
1, 55294, Note_off_c, 3, 68, 64
1, 55296, Note_on_c, 9, 42, 110
1, 55296, Note_on_c, 9, 36, 90
1, 55296, Note_on_c, 0, 56, 78
1, 55296, Note_on_c, 0, 65, 72
1, 55296, Note_on_c, 0, 61, 75
1, 55296, Note_on_c, 11, 80, 64
1, 55296, Note_on_c, 11, 77, 64
1, 55297, Note_off_c, 9, 36, 64
1, 55297, Note_off_c, 9, 42, 64
1, 55312, Control_c, 8, 11, 29
1, 55312, Control_c, 4, 11, 29
1, 55313, Control_c, 9, 11, 29
1, 55314, Control_c, 5, 11, 29
1, 55336, Note_off_c, 5, 51, 64
1, 55336, Control_c, 4, 11, 27
1, 55337, Control_c, 8, 11, 27
1, 55338, Note_off_c, 4, 51, 64
1, 55338, Control_c, 9, 11, 27
1, 55338, Control_c, 5, 11, 27
1, 55341, Note_off_c, 8, 51, 64
1, 55341, Note_off_c, 1, 39, 64
1, 55341, Pitch_bend_c, 5, 8192
1, 55342, Note_on_c, 5, 51, 114
1, 55343, Note_on_c, 14, 63, 110
1, 55343, Pitch_bend_c, 1, 8192
1, 55343, Pitch_bend_c, 4, 8192
1, 55343, Pitch_bend_c, 8, 8192
1, 55344, Note_on_c, 9, 42, 50
1, 55344, Note_on_c, 1, 39, 127
1, 55344, Note_on_c, 4, 51, 114
1, 55344, Note_on_c, 8, 51, 107
1, 55345, Note_off_c, 9, 42, 64
1, 55345, Note_on_c, 15, 61, 102
1, 55348, Note_on_c, 3, 66, 104
1, 55348, Control_c, 11, 11, 18
1, 55350, Control_c, 14, 11, 18
1, 55351, Control_c, 15, 11, 18
1, 55353, Control_c, 10, 11, 18
1, 55355, Note_off_c, 15, 61, 64
1, 55357, Control_c, 0, 11, 16
1, 55357, Control_c, 1, 11, 16
1, 55359, Control_c, 2, 11, 16
1, 55360, Control_c, 3, 11, 16
1, 55361, Note_off_c, 14, 63, 64
1, 55365, Note_off_c, 3, 66, 64
1, 55370, Control_c, 4, 11, 25
1, 55371, Control_c, 8, 11, 25
1, 55371, Control_c, 9, 11, 25
1, 55372, Control_c, 5, 11, 25
1, 55386, Control_c, 0, 11, 14
1, 55386, Control_c, 1, 11, 14
1, 55387, Note_off_c, 5, 51, 64
1, 55387, Control_c, 11, 11, 16
1, 55389, Note_off_c, 1, 39, 64
1, 55389, Note_off_c, 8, 51, 64
1, 55389, Note_off_c, 4, 51, 64
1, 55389, Control_c, 3, 11, 14
1, 55389, Control_c, 14, 11, 16
1, 55389, Control_c, 2, 11, 14
1, 55390, Note_on_c, 14, 65, 101
1, 55390, Note_on_c, 5, 49, 114
1, 55391, Control_c, 15, 11, 16
1, 55391, Control_c, 10, 11, 16
1, 55392, Note_on_c, 9, 42, 110
1, 55392, Note_on_c, 9, 38, 115
1, 55392, Note_on_c, 9, 36, 90
1, 55392, Note_on_c, 1, 37, 127
1, 55392, Note_on_c, 4, 49, 114
1, 55392, Note_on_c, 8, 49, 107
1, 55393, Note_off_c, 9, 36, 64
1, 55393, Note_off_c, 9, 38, 64
1, 55393, Note_off_c, 9, 42, 64
1, 55393, Note_on_c, 15, 63, 102
1, 55396, Note_on_c, 3, 68, 107
1, 55399, Note_off_c, 15, 63, 64
1, 55409, Note_off_c, 14, 65, 64
1, 55415, Note_off_c, 3, 68, 64
1, 55424, Control_c, 8, 11, 23
1, 55424, Control_c, 9, 11, 23
1, 55424, Control_c, 4, 11, 23
1, 55425, Control_c, 5, 11, 23
1, 55428, Note_off_c, 5, 49, 64
1, 55430, Note_off_c, 4, 49, 64
1, 55430, Note_off_c, 1, 37, 64
1, 55430, Note_off_c, 8, 49, 64
1, 55440, Note_on_c, 9, 42, 50
1, 55441, Note_off_c, 9, 42, 64
1, 55448, Control_c, 8, 11, 21
1, 55448, Control_c, 9, 11, 21
1, 55448, Control_c, 4, 11, 21
1, 55449, Control_c, 0, 11, 12
1, 55449, Control_c, 1, 11, 12
1, 55449, Control_c, 5, 11, 21
1, 55452, Control_c, 3, 11, 12
1, 55452, Control_c, 2, 11, 12
1, 55455, Pitch_bend_c, 15, 7810
1, 55464, Pitch_bend_c, 14, 7810
1, 55465, Pitch_bend_c, 15, 2896
1, 55471, Pitch_bend_c, 14, 4408
1, 55475, Pitch_bend_c, 15, 1888
1, 55482, Pitch_bend_c, 14, 8192
1, 55483, Note_on_c, 14, 63, 110
1, 55484, Control_c, 11, 11, 14
1, 55485, Control_c, 14, 11, 14
1, 55486, Pitch_bend_c, 15, 7810
1, 55486, Note_on_c, 5, 49, 114
1, 55487, Control_c, 15, 11, 14
1, 55488, Note_on_c, 15, 61, 102
1, 55488, Note_on_c, 9, 42, 110
1, 55488, Note_on_c, 1, 37, 127
1, 55488, Note_on_c, 4, 49, 114
1, 55488, Note_on_c, 8, 49, 107
1, 55488, Control_c, 10, 11, 14
1, 55489, Note_off_c, 9, 42, 64
1, 55489, Note_on_c, 3, 66, 107
1, 55491, Control_c, 4, 11, 19
1, 55492, Control_c, 8, 11, 19
1, 55492, Control_c, 9, 11, 19
1, 55493, Control_c, 5, 11, 19
1, 55499, Pitch_bend_c, 15, 8192
1, 55503, Control_c, 11, 11, 12
1, 55505, Control_c, 14, 11, 12
1, 55506, Control_c, 8, 11, 17
1, 55506, Control_c, 9, 11, 17
1, 55506, Control_c, 4, 11, 17
1, 55507, Control_c, 15, 11, 12
1, 55507, Control_c, 5, 11, 17
1, 55507, Control_c, 10, 11, 12
1, 55523, Note_off_c, 1, 37, 64
1, 55523, Note_off_c, 8, 49, 64
1, 55524, Note_off_c, 15, 61, 64
1, 55526, Note_off_c, 5, 49, 64
1, 55528, Note_off_c, 4, 49, 64
1, 55531, Note_off_c, 14, 63, 64
1, 55532, Control_c, 0, 11, 10
1, 55532, Control_c, 1, 11, 10
1, 55534, Control_c, 2, 11, 10
1, 55535, Control_c, 3, 11, 10
1, 55535, Note_on_c, 14, 58, 106
1, 55536, Note_on_c, 9, 42, 50
1, 55536, Note_on_c, 9, 36, 90
1, 55537, Note_off_c, 9, 36, 64
1, 55537, Note_off_c, 9, 42, 64
1, 55537, Note_on_c, 15, 58, 101
1, 55539, Note_off_c, 3, 66, 64
1, 55539, Note_on_c, 3, 63, 105
1, 55544, Note_off_c, 14, 58, 64
1, 55545, Note_off_c, 15, 58, 64
1, 55545, Control_c, 8, 11, 15
1, 55545, Control_c, 9, 11, 15
1, 55545, Control_c, 4, 11, 15
1, 55546, Control_c, 5, 11, 15
1, 55547, Control_c, 11, 11, 10
1, 55548, Control_c, 14, 11, 10
1, 55550, Note_off_c, 3, 63, 64
1, 55550, Control_c, 15, 11, 10
1, 55551, Control_c, 10, 11, 10
1, 55554, Control_c, 8, 11, 13
1, 55554, Control_c, 4, 11, 13
1, 55555, Control_c, 9, 11, 13
1, 55556, Control_c, 5, 11, 13
1, 55561, Control_c, 11, 11, 8
1, 55563, Control_c, 14, 11, 8
1, 55564, Control_c, 15, 11, 8
1, 55565, Control_c, 1, 11, 8
1, 55565, Control_c, 10, 11, 8
1, 55566, Control_c, 0, 11, 8
1, 55568, Control_c, 3, 11, 8
1, 55568, Control_c, 2, 11, 8
1, 55574, Control_c, 8, 11, 11
1, 55574, Control_c, 9, 11, 11
1, 55574, Control_c, 4, 11, 11
1, 55575, Control_c, 5, 11, 11
1, 55584, Note_on_c, 9, 42, 110
1, 55584, Note_on_c, 9, 38, 115
1, 55585, Note_off_c, 9, 38, 64
1, 55585, Note_off_c, 9, 42, 64
1, 55585, Note_on_c, 9, 39, 127
1, 55586, Note_off_c, 9, 39, 64
1, 55588, Control_c, 8, 11, 9
1, 55588, Control_c, 4, 11, 9
1, 55589, Control_c, 9, 11, 9
1, 55590, Control_c, 5, 11, 9
1, 55591, Note_on_c, 10, 39, 127
1, 55592, Note_off_c, 10, 39, 64
1, 55594, Control_c, 0, 11, 6
1, 55594, Control_c, 1, 11, 6
1, 55597, Control_c, 3, 11, 6
1, 55597, Control_c, 2, 11, 6
1, 55605, Control_c, 11, 11, 6
1, 55607, Control_c, 14, 11, 6
1, 55608, Control_c, 15, 11, 6
1, 55609, Control_c, 10, 11, 6
1, 55617, Control_c, 8, 11, 7
1, 55617, Control_c, 4, 11, 7
1, 55618, Control_c, 9, 11, 7
1, 55619, Control_c, 5, 11, 7
1, 55621, Pitch_bend_c, 14, 5164
1, 55623, Pitch_bend_c, 3, 7558
1, 55630, Pitch_bend_c, 14, 7558
1, 55630, Note_on_c, 5, 39, 114
1, 55632, Pitch_bend_c, 3, 4786
1, 55632, Note_on_c, 14, 65, 105
1, 55632, Pitch_bend_c, 15, 2644
1, 55632, Note_on_c, 15, 63, 102
1, 55632, Note_on_c, 9, 42, 50
1, 55632, Note_on_c, 1, 27, 127
1, 55632, Note_on_c, 4, 39, 114
1, 55632, Note_on_c, 8, 39, 107
1, 55632, Control_c, 8, 11, 5
1, 55632, Control_c, 4, 11, 5
1, 55633, Note_off_c, 9, 42, 64
1, 55633, Control_c, 9, 11, 5
1, 55633, Control_c, 11, 11, 4
1, 55634, Control_c, 5, 11, 5
1, 55635, Control_c, 14, 11, 4
1, 55636, Note_on_c, 3, 68, 108
1, 55637, Control_c, 15, 11, 4
1, 55637, Control_c, 10, 11, 4
1, 55641, Pitch_bend_c, 14, 8192
1, 55643, Pitch_bend_c, 3, 7684
1, 55644, Pitch_bend_c, 15, 8192
1, 55644, Control_c, 11, 11, 2
1, 55645, Note_off_c, 15, 63, 64
1, 55646, Control_c, 14, 11, 2
1, 55646, Control_c, 4, 11, 3
1, 55647, Control_c, 8, 11, 3
1, 55647, Control_c, 9, 11, 3
1, 55648, Control_c, 15, 11, 2
1, 55648, Control_c, 5, 11, 3
1, 55648, Control_c, 10, 11, 2
1, 55653, Pitch_bend_c, 3, 8192
1, 55654, Note_off_c, 14, 65, 64
1, 55663, Note_off_c, 3, 68, 64
1, 55676, Note_off_c, 11, 80, 64
1, 55676, Note_off_c, 0, 56, 64
1, 55676, Note_off_c, 11, 77, 64
1, 55676, Note_off_c, 0, 61, 64
1, 55676, Note_off_c, 0, 65, 64
1, 55679, Note_on_c, 2, 75, 94
1, 55680, Note_on_c, 9, 42, 110
1, 55680, Note_on_c, 9, 36, 90
1, 55680, Note_on_c, 0, 63, 78
1, 55680, Note_on_c, 0, 58, 76
1, 55680, Note_on_c, 0, 66, 69
1, 55680, Note_on_c, 11, 82, 64
1, 55680, Note_on_c, 11, 78, 64
1, 55681, Note_off_c, 9, 36, 64
1, 55681, Note_off_c, 9, 42, 64
1, 55681, Note_on_c, 2, 63, 94
1, 55682, Note_off_c, 2, 73, 64
1, 55683, Note_off_c, 2, 70, 64
1, 55696, Control_c, 0, 11, 4
1, 55696, Control_c, 1, 11, 4
1, 55697, Control_c, 11, 11, 0
1, 55698, Control_c, 2, 11, 4
1, 55699, Control_c, 3, 11, 4
1, 55699, Control_c, 14, 11, 0
1, 55700, Control_c, 15, 11, 0
1, 55701, Control_c, 10, 11, 0
1, 55724, Note_off_c, 5, 39, 64
1, 55726, Note_off_c, 1, 27, 64
1, 55726, Note_off_c, 8, 39, 64
1, 55726, Note_off_c, 4, 39, 64
1, 55726, Note_on_c, 5, 42, 114
1, 55727, Note_on_c, 14, 63, 110
1, 55728, Note_on_c, 9, 42, 50
1, 55728, Note_on_c, 1, 30, 127
1, 55728, Note_on_c, 4, 42, 114
1, 55728, Note_on_c, 8, 42, 107
1, 55729, Note_off_c, 9, 42, 64
1, 55729, Note_on_c, 15, 61, 101
1, 55733, Note_on_c, 3, 66, 105
1, 55733, Control_c, 4, 11, 0
1, 55734, Note_off_c, 15, 61, 64
1, 55734, Control_c, 8, 11, 0
1, 55734, Control_c, 9, 11, 0
1, 55735, Control_c, 5, 11, 0
1, 55746, Note_off_c, 14, 63, 64
1, 55749, Note_off_c, 3, 66, 64
1, 55759, Control_c, 0, 11, 2
1, 55759, Control_c, 1, 11, 2
1, 55761, Control_c, 2, 11, 2
1, 55762, Control_c, 3, 11, 2
1, 55772, Note_off_c, 5, 42, 64
1, 55774, Note_off_c, 1, 30, 64
1, 55774, Note_off_c, 8, 42, 64
1, 55774, Note_off_c, 4, 42, 64
1, 55774, Note_on_c, 5, 46, 114
1, 55776, Note_on_c, 9, 42, 110
1, 55776, Note_on_c, 9, 38, 115
1, 55776, Note_on_c, 1, 34, 127
1, 55776, Note_on_c, 4, 46, 114
1, 55776, Note_on_c, 8, 46, 107
1, 55777, Note_off_c, 9, 38, 64
1, 55777, Note_off_c, 9, 42, 64
1, 55777, Note_on_c, 14, 65, 100
1, 55777, Note_on_c, 15, 63, 102
1, 55782, Note_on_c, 3, 68, 107
1, 55785, Note_off_c, 15, 63, 64
1, 55800, Note_off_c, 14, 65, 64
1, 55803, Note_off_c, 3, 68, 64
1, 55820, Note_off_c, 5, 46, 64
1, 55822, Note_off_c, 8, 46, 64
1, 55822, Note_off_c, 4, 46, 64
1, 55822, Note_off_c, 1, 34, 64
1, 55822, Note_on_c, 5, 54, 114
1, 55824, Note_on_c, 9, 42, 50
1, 55824, Note_on_c, 1, 42, 127
1, 55824, Note_on_c, 4, 54, 114
1, 55824, Note_on_c, 8, 54, 107
1, 55825, Note_off_c, 9, 42, 64
1, 55843, Pitch_bend_c, 14, 6802
1, 55853, Pitch_bend_c, 14, 4408
1, 55855, Pitch_bend_c, 15, 3904
1, 55863, Pitch_bend_c, 14, 1636
1, 55865, Pitch_bend_c, 15, 1762
1, 55868, Note_off_c, 5, 54, 64
1, 55870, Note_off_c, 1, 42, 64
1, 55870, Note_off_c, 8, 54, 64
1, 55870, Note_off_c, 4, 54, 64
1, 55870, Note_on_c, 14, 63, 110
1, 55870, Note_on_c, 5, 51, 114
1, 55872, Note_on_c, 15, 61, 102
1, 55872, Note_on_c, 9, 42, 110
1, 55872, Note_on_c, 9, 36, 90
1, 55872, Note_on_c, 1, 39, 127
1, 55872, Note_on_c, 4, 51, 114
1, 55872, Note_on_c, 8, 51, 107
1, 55873, Note_off_c, 9, 36, 64
1, 55873, Note_off_c, 9, 42, 64
1, 55874, Note_on_c, 3, 66, 105
1, 55876, Pitch_bend_c, 14, 8192
1, 55878, Pitch_bend_c, 15, 8192
1, 55895, Pitch_bend_c, 5, 8478
1, 55897, Pitch_bend_c, 4, 8452
1, 55899, Pitch_bend_c, 5, 9110
1, 55901, Pitch_bend_c, 4, 9025
1, 55903, Pitch_bend_c, 5, 9568
1, 55905, Pitch_bend_c, 4, 9441
1, 55907, Pitch_bend_c, 5, 9682
1, 55909, Pitch_bend_c, 4, 9545
1, 55911, Note_off_c, 3, 66, 64
1, 55915, Pitch_bend_c, 5, 7855
1, 55917, Note_off_c, 15, 61, 64
1, 55917, Pitch_bend_c, 4, 7886
1, 55918, Pitch_bend_c, 5, 8192
1, 55919, Note_off_c, 14, 63, 64
1, 55920, Note_on_c, 9, 42, 50
1, 55920, Pitch_bend_c, 4, 8192
1, 55921, Note_off_c, 9, 42, 64
1, 55921, Note_on_c, 14, 65, 102
1, 55922, Note_on_c, 15, 63, 101
1, 55923, Note_on_c, 3, 68, 105
1, 55929, Note_off_c, 15, 63, 64
1, 55930, Pitch_bend_c, 5, 8249
1, 55932, Pitch_bend_c, 4, 8244
1, 55934, Note_off_c, 14, 65, 64
1, 55934, Pitch_bend_c, 5, 9797
1, 55935, Note_off_c, 3, 68, 64
1, 55936, Pitch_bend_c, 4, 9649
1, 55938, Pitch_bend_c, 5, 9913
1, 55940, Pitch_bend_c, 4, 9754
1, 55945, Pitch_bend_c, 5, 9110
1, 55947, Pitch_bend_c, 4, 9025
1, 55949, Pitch_bend_c, 5, 8192
1, 55951, Pitch_bend_c, 4, 8192
1, 55957, Pitch_bend_c, 5, 8478
1, 55959, Pitch_bend_c, 4, 8452
1, 55961, Pitch_bend_c, 5, 9568
1, 55963, Pitch_bend_c, 4, 9441
1, 55965, Pitch_bend_c, 5, 9970
1, 55967, Pitch_bend_c, 4, 9806
1, 55968, Note_on_c, 9, 42, 110
1, 55968, Note_on_c, 9, 38, 115
1, 55969, Note_off_c, 9, 38, 64
1, 55969, Note_off_c, 9, 42, 64
1, 55969, Pitch_bend_c, 5, 10084
1, 55969, Note_on_c, 9, 39, 127
1, 55970, Note_off_c, 9, 39, 64
1, 55971, Pitch_bend_c, 4, 9910
1, 55973, Pitch_bend_c, 5, 9913
1, 55975, Note_on_c, 10, 39, 127
1, 55975, Pitch_bend_c, 4, 9754
1, 55976, Note_off_c, 10, 39, 64
1, 55977, Pitch_bend_c, 5, 8192
1, 55979, Pitch_bend_c, 4, 8192
1, 56003, Pitch_bend_c, 3, 6172
1, 56008, Pitch_bend_c, 15, 6424
1, 56011, Note_off_c, 5, 51, 64
1, 56012, Pitch_bend_c, 3, 1510
1, 56013, Note_off_c, 8, 51, 64
1, 56013, Note_off_c, 4, 51, 64
1, 56013, Note_off_c, 1, 39, 64
1, 56013, Note_on_c, 5, 51, 114
1, 56015, Note_on_c, 1, 39, 127
1, 56015, Note_on_c, 4, 51, 114
1, 56015, Note_on_c, 8, 51, 107
1, 56016, Note_on_c, 14, 65, 103
1, 56016, Note_on_c, 9, 42, 50
1, 56017, Note_off_c, 9, 42, 64
1, 56017, Pitch_bend_c, 15, 3778
1, 56017, Note_on_c, 15, 63, 102
1, 56018, Pitch_bend_c, 5, 10307
1, 56019, Note_on_c, 3, 68, 107
1, 56019, Pitch_bend_c, 1, 12288
1, 56019, Pitch_bend_c, 8, 12288
1, 56020, Pitch_bend_c, 4, 10112
1, 56021, Pitch_bend_c, 5, 12704
1, 56022, Pitch_bend_c, 1, 16320
1, 56022, Pitch_bend_c, 8, 16320
1, 56023, Pitch_bend_c, 5, 14890
1, 56023, Pitch_bend_c, 4, 12288
1, 56025, Pitch_bend_c, 3, 7306
1, 56025, Pitch_bend_c, 5, 16383
1, 56025, Pitch_bend_c, 4, 14272
1, 56026, Note_off_c, 15, 63, 64
1, 56027, Pitch_bend_c, 4, 16320
1, 56030, Control_c, 0, 11, 0
1, 56030, Control_c, 1, 11, 0
1, 56031, Pitch_bend_c, 15, 8192
1, 56033, Note_off_c, 14, 65, 64
1, 56033, Control_c, 3, 11, 0
1, 56033, Control_c, 2, 11, 0
1, 56036, Pitch_bend_c, 3, 8192
1, 56043, Note_off_c, 3, 68, 64
1, 56058, Note_off_c, 2, 75, 64
1, 56060, Note_off_c, 2, 63, 64
1, 56060, Note_off_c, 0, 63, 64
1, 56060, Note_off_c, 11, 78, 64
1, 56060, Note_off_c, 0, 58, 64
1, 56060, Note_off_c, 0, 66, 64
1, 56060, Note_off_c, 11, 82, 64
1, 56064, Note_on_c, 9, 42, 110
1, 56064, Note_on_c, 9, 36, 90
1, 56064, Note_on_c, 0, 56, 78
1, 56064, Note_on_c, 0, 65, 72
1, 56064, Note_on_c, 0, 61, 75
1, 56064, Note_on_c, 11, 80, 64
1, 56064, Note_on_c, 11, 77, 64
1, 56065, Note_off_c, 9, 36, 64
1, 56065, Note_off_c, 9, 42, 64
1, 56065, Note_on_c, 2, 73, 94
1, 56066, Note_on_c, 2, 70, 94
1, 56108, Note_off_c, 5, 51, 64
1, 56109, Pitch_bend_c, 5, 8192
1, 56110, Note_off_c, 8, 51, 64
1, 56110, Note_off_c, 4, 51, 64
1, 56110, Note_off_c, 1, 39, 64
1, 56110, Note_on_c, 5, 51, 114
1, 56111, Pitch_bend_c, 1, 8192
1, 56111, Pitch_bend_c, 4, 8192
1, 56111, Pitch_bend_c, 8, 8192
1, 56112, Note_on_c, 14, 63, 107
1, 56112, Note_on_c, 9, 42, 50
1, 56112, Note_on_c, 1, 39, 127
1, 56112, Note_on_c, 4, 51, 114
1, 56112, Note_on_c, 8, 51, 107
1, 56113, Note_off_c, 9, 42, 64
1, 56113, Note_on_c, 15, 61, 99
1, 56115, Note_on_c, 3, 66, 104
1, 56119, Note_off_c, 15, 61, 64
1, 56132, Note_off_c, 14, 63, 64
1, 56136, Note_off_c, 3, 66, 64
1, 56152, Note_off_c, 5, 51, 64
1, 56154, Note_off_c, 1, 39, 64
1, 56154, Note_off_c, 8, 51, 64
1, 56154, Note_off_c, 4, 51, 64
1, 56158, Note_on_c, 5, 49, 114
1, 56160, Note_on_c, 14, 65, 100
1, 56160, Note_on_c, 15, 63, 102
1, 56160, Note_on_c, 9, 42, 110
1, 56160, Note_on_c, 9, 38, 115
1, 56160, Note_on_c, 9, 36, 90
1, 56160, Note_on_c, 1, 37, 127
1, 56160, Note_on_c, 4, 49, 114
1, 56160, Note_on_c, 8, 49, 107
1, 56161, Note_off_c, 9, 36, 64
1, 56161, Note_off_c, 9, 38, 64
1, 56161, Note_off_c, 9, 42, 64
1, 56163, Note_on_c, 3, 68, 107
1, 56172, Note_off_c, 15, 63, 64
1, 56179, Note_off_c, 14, 65, 64
1, 56184, Note_off_c, 3, 68, 64
1, 56198, Note_off_c, 8, 49, 64
1, 56198, Note_off_c, 1, 37, 64
1, 56199, Note_off_c, 5, 49, 64
1, 56201, Note_off_c, 4, 49, 64
1, 56208, Note_on_c, 9, 42, 50
1, 56209, Note_off_c, 9, 42, 64
1, 56237, Pitch_bend_c, 15, 6424
1, 56247, Pitch_bend_c, 15, 4030
1, 56254, Note_on_c, 14, 63, 110
1, 56255, Note_on_c, 15, 61, 101
1, 56256, Note_on_c, 9, 42, 110
1, 56257, Note_off_c, 9, 42, 64
1, 56259, Note_on_c, 3, 66, 107
1, 56260, Pitch_bend_c, 15, 8192
1, 56271, Note_off_c, 15, 61, 64
1, 56273, Note_off_c, 14, 63, 64
1, 56283, Note_off_c, 3, 66, 64
1, 56304, Note_on_c, 9, 42, 50
1, 56304, Note_on_c, 9, 36, 90
1, 56305, Note_off_c, 9, 36, 64
1, 56305, Note_off_c, 9, 42, 64
1, 56351, Note_on_c, 14, 65, 108
1, 56352, Note_on_c, 15, 63, 102
1, 56352, Note_on_c, 9, 42, 110
1, 56352, Note_on_c, 9, 38, 115
1, 56353, Note_off_c, 9, 38, 64
1, 56353, Note_off_c, 9, 42, 64
1, 56353, Note_on_c, 9, 39, 127
1, 56354, Note_off_c, 9, 39, 64
1, 56354, Note_on_c, 3, 68, 108
1, 56359, Note_on_c, 10, 39, 127
1, 56360, Note_off_c, 10, 39, 64
1, 56367, Note_off_c, 15, 63, 64
1, 56375, Note_off_c, 14, 65, 64
1, 56379, Note_off_c, 3, 68, 64
1, 56397, Pitch_bend_c, 5, 8192
1, 56398, Note_on_c, 5, 39, 114
1, 56399, Pitch_bend_c, 4, 8192
1, 56400, Note_on_c, 9, 42, 50
1, 56400, Note_on_c, 1, 27, 127
1, 56400, Note_on_c, 4, 39, 114
1, 56400, Note_on_c, 8, 39, 107
1, 56401, Note_off_c, 9, 42, 64
1, 56432, Pitch_bend_c, 15, 4786
1, 56435, Note_off_c, 2, 73, 64
1, 56438, Note_off_c, 2, 70, 64
1, 56440, Pitch_bend_c, 15, 2644
1, 56444, Note_off_c, 0, 56, 64
1, 56444, Note_off_c, 11, 77, 64
1, 56444, Note_off_c, 11, 80, 64
1, 56444, Note_off_c, 0, 61, 64
1, 56444, Note_off_c, 0, 65, 64
1, 56448, Note_off_c, 1, 27, 64
1, 56448, Note_off_c, 4, 39, 64
1, 56448, Note_off_c, 5, 39, 64
1, 56448, Note_off_c, 8, 39, 64
1, 56832, End_track
0, 0, End_of_file
