0, 0, Header, 1, 3, 256
1, 0, Start_track
1, 0, Time_signature, 2, 2, 24, 8
1, 0, Key_signature, 0, "minor"
1, 0, Tempo, 500000
1, 0, Title_t, "Turkish March"
1, 0, Text_t, "Mozart"
1, 4096, Time_signature, 1, 2, 24, 8
1, 4352, Tempo, 500000
1, 4352, Tempo, 500000
1, 4352, Tempo, 500000
1, 4352, Time_signature, 2, 2, 24, 8
1, 20736, Time_signature, 1, 2, 24, 8
1, 21248, Time_signature, 2, 2, 24, 8
1, 41216, Time_signature, 1, 2, 24, 8
1, 41728, Time_signature, 2, 2, 24, 8
1, 49408, Time_signature, 1, 2, 24, 8
1, 49920, Time_signature, 2, 2, 24, 8
1, 65792, Time_signature, 1, 2, 24, 8
1, 66304, Time_signature, 2, 2, 24, 8
1, 66305, End_track
2, 0, Start_track
2, 0, Program_c, 0, 40
2, 0, Control_c, 0, 121, 0
2, 0, Control_c, 0, 64, 0
2, 0, Control_c, 0, 91, 48
2, 0, Control_c, 0, 10, 32
2, 0, Control_c, 0, 7, 100
2, 0, Title_t, "Violin"
2, 256, Note_on_c, 0, 59, 64
2, 320, Note_on_c, 0, 57, 62
2, 321, Note_off_c, 0, 59, 0
2, 384, Note_on_c, 0, 56, 73
2, 385, Note_off_c, 0, 57, 0
2, 448, Note_on_c, 0, 57, 75
2, 449, Note_off_c, 0, 56, 0
2, 512, Note_on_c, 0, 60, 78
2, 513, Note_off_c, 0, 57, 0
2, 755, Note_off_c, 0, 60, 0
2, 768, Note_on_c, 0, 62, 87
2, 832, Note_on_c, 0, 60, 85
2, 833, Note_off_c, 0, 62, 0
2, 896, Note_on_c, 0, 59, 74
2, 897, Note_off_c, 0, 60, 0
2, 960, Note_on_c, 0, 60, 80
2, 961, Note_off_c, 0, 59, 0
2, 1024, Note_on_c, 0, 64, 84
2, 1025, Note_off_c, 0, 60, 0
2, 1267, Note_off_c, 0, 64, 0
2, 1280, Note_on_c, 0, 65, 79
2, 1344, Note_on_c, 0, 64, 75
2, 1345, Note_off_c, 0, 65, 0
2, 1408, Note_on_c, 0, 63, 70
2, 1409, Note_off_c, 0, 64, 0
2, 1472, Note_on_c, 0, 64, 74
2, 1473, Note_off_c, 0, 63, 0
2, 1536, Note_on_c, 0, 71, 89
2, 1537, Note_off_c, 0, 64, 0
2, 1600, Note_on_c, 0, 69, 85
2, 1601, Note_off_c, 0, 71, 0
2, 1664, Note_on_c, 0, 68, 68
2, 1665, Note_off_c, 0, 69, 0
2, 1728, Note_on_c, 0, 69, 68
2, 1729, Note_off_c, 0, 68, 0
2, 1792, Note_on_c, 0, 71, 80
2, 1793, Note_off_c, 0, 69, 0
2, 1856, Note_on_c, 0, 69, 76
2, 1857, Note_off_c, 0, 71, 0
2, 1920, Note_on_c, 0, 68, 72
2, 1921, Note_off_c, 0, 69, 0
2, 1984, Note_on_c, 0, 69, 77
2, 1985, Note_off_c, 0, 68, 0
2, 2048, Note_on_c, 0, 72, 84
2, 2049, Note_off_c, 0, 69, 0
2, 2291, Note_off_c, 0, 72, 0
2, 2304, Note_on_c, 0, 69, 75
2, 2368, Note_off_c, 0, 69, 0
2, 2432, Note_on_c, 0, 72, 86
2, 2496, Note_off_c, 0, 72, 0
2, 2507, Note_on_c, 0, 67, 82
2, 2534, Note_on_c, 0, 69, 82
2, 2560, Note_on_c, 0, 71, 82
2, 2560, Note_off_c, 0, 67, 0
2, 2560, Note_off_c, 0, 69, 0
2, 2620, Note_off_c, 0, 71, 0
2, 2688, Note_on_c, 0, 69, 72
2, 2752, Note_off_c, 0, 69, 0
2, 2816, Note_on_c, 0, 67, 69
2, 2880, Note_off_c, 0, 67, 0
2, 2944, Note_on_c, 0, 69, 80
2, 3008, Note_off_c, 0, 69, 0
2, 3019, Note_on_c, 0, 67, 84
2, 3046, Note_on_c, 0, 69, 84
2, 3072, Note_on_c, 0, 71, 84
2, 3072, Note_off_c, 0, 67, 0
2, 3072, Note_off_c, 0, 69, 0
2, 3132, Note_off_c, 0, 71, 0
2, 3200, Note_on_c, 0, 69, 72
2, 3264, Note_off_c, 0, 69, 0
2, 3328, Note_on_c, 0, 67, 73
2, 3392, Note_off_c, 0, 67, 0
2, 3456, Note_on_c, 0, 69, 78
2, 3520, Note_off_c, 0, 69, 0
2, 3531, Note_on_c, 0, 67, 84
2, 3558, Note_on_c, 0, 69, 84
2, 3584, Note_on_c, 0, 71, 84
2, 3584, Note_off_c, 0, 67, 0
2, 3584, Note_off_c, 0, 69, 0
2, 3644, Note_off_c, 0, 71, 0
2, 3712, Note_on_c, 0, 69, 72
2, 3776, Note_off_c, 0, 69, 0
2, 3840, Note_on_c, 0, 67, 69
2, 3904, Note_off_c, 0, 67, 0
2, 3968, Note_on_c, 0, 66, 70
2, 4032, Note_off_c, 0, 66, 0
2, 4096, Note_on_c, 0, 64, 66
2, 4352, Note_off_c, 0, 64, 0
2, 4608, Note_on_c, 0, 59, 69
2, 4672, Note_on_c, 0, 57, 70
2, 4673, Note_off_c, 0, 59, 0
2, 4736, Note_on_c, 0, 56, 68
2, 4737, Note_off_c, 0, 57, 0
2, 4800, Note_on_c, 0, 57, 68
2, 4801, Note_off_c, 0, 56, 0
2, 4864, Note_on_c, 0, 60, 81
2, 4865, Note_off_c, 0, 57, 0
2, 5107, Note_off_c, 0, 60, 0
2, 5120, Note_on_c, 0, 62, 82
2, 5184, Note_on_c, 0, 60, 79
2, 5185, Note_off_c, 0, 62, 0
2, 5248, Note_on_c, 0, 59, 74
2, 5249, Note_off_c, 0, 60, 0
2, 5312, Note_on_c, 0, 60, 78
2, 5313, Note_off_c, 0, 59, 0
2, 5376, Note_on_c, 0, 64, 82
2, 5377, Note_off_c, 0, 60, 0
2, 5619, Note_off_c, 0, 64, 0
2, 5632, Note_on_c, 0, 65, 82
2, 5696, Note_on_c, 0, 64, 77
2, 5697, Note_off_c, 0, 65, 0
2, 5760, Note_on_c, 0, 63, 72
2, 5761, Note_off_c, 0, 64, 0
2, 5824, Note_on_c, 0, 64, 75
2, 5825, Note_off_c, 0, 63, 0
2, 5888, Note_on_c, 0, 71, 92
2, 5889, Note_off_c, 0, 64, 0
2, 5952, Note_on_c, 0, 69, 87
2, 5953, Note_off_c, 0, 71, 0
2, 6016, Note_on_c, 0, 68, 75
2, 6017, Note_off_c, 0, 69, 0
2, 6080, Note_on_c, 0, 69, 76
2, 6081, Note_off_c, 0, 68, 0
2, 6144, Note_on_c, 0, 71, 79
2, 6145, Note_off_c, 0, 69, 0
2, 6208, Note_on_c, 0, 69, 72
2, 6209, Note_off_c, 0, 71, 0
2, 6272, Note_on_c, 0, 68, 68
2, 6273, Note_off_c, 0, 69, 0
2, 6336, Note_on_c, 0, 69, 74
2, 6337, Note_off_c, 0, 68, 0
2, 6400, Note_on_c, 0, 72, 79
2, 6401, Note_off_c, 0, 69, 0
2, 6643, Note_off_c, 0, 72, 0
2, 6656, Note_on_c, 0, 69, 73
2, 6720, Note_off_c, 0, 69, 0
2, 6784, Note_on_c, 0, 72, 80
2, 6848, Note_off_c, 0, 72, 0
2, 6859, Note_on_c, 0, 67, 84
2, 6886, Note_on_c, 0, 69, 84
2, 6912, Note_on_c, 0, 71, 84
2, 6912, Note_off_c, 0, 67, 0
2, 6912, Note_off_c, 0, 69, 0
2, 6972, Note_off_c, 0, 71, 0
2, 7040, Note_on_c, 0, 69, 73
2, 7104, Note_off_c, 0, 69, 0
2, 7168, Note_on_c, 0, 67, 68
2, 7232, Note_off_c, 0, 67, 0
2, 7296, Note_on_c, 0, 69, 80
2, 7360, Note_off_c, 0, 69, 0
2, 7371, Note_on_c, 0, 67, 84
2, 7398, Note_on_c, 0, 69, 84
2, 7424, Note_on_c, 0, 71, 84
2, 7424, Note_off_c, 0, 67, 0
2, 7424, Note_off_c, 0, 69, 0
2, 7484, Note_off_c, 0, 71, 0
2, 7552, Note_on_c, 0, 69, 72
2, 7616, Note_off_c, 0, 69, 0
2, 7680, Note_on_c, 0, 67, 66
2, 7744, Note_off_c, 0, 67, 0
2, 7808, Note_on_c, 0, 69, 78
2, 7872, Note_off_c, 0, 69, 0
2, 7883, Note_on_c, 0, 67, 77
2, 7910, Note_on_c, 0, 69, 77
2, 7936, Note_on_c, 0, 71, 77
2, 7936, Note_off_c, 0, 67, 0
2, 7936, Note_off_c, 0, 69, 0
2, 7996, Note_off_c, 0, 71, 0
2, 8064, Note_on_c, 0, 69, 73
2, 8128, Note_off_c, 0, 69, 0
2, 8192, Note_on_c, 0, 67, 73
2, 8256, Note_off_c, 0, 67, 0
2, 8320, Note_on_c, 0, 66, 74
2, 8384, Note_off_c, 0, 66, 0
2, 8448, Note_on_c, 0, 64, 70
2, 8704, Note_off_c, 0, 64, 0
2, 8704, Note_on_c, 0, 64, 78
2, 8768, Note_off_c, 0, 64, 0
2, 8832, Note_on_c, 0, 65, 81
2, 8896, Note_off_c, 0, 65, 0
2, 8960, Note_on_c, 0, 67, 79
2, 9024, Note_off_c, 0, 67, 0
2, 9088, Note_on_c, 0, 67, 78
2, 9152, Note_off_c, 0, 67, 0
2, 9216, Note_on_c, 0, 69, 81
2, 9280, Note_on_c, 0, 67, 81
2, 9281, Note_off_c, 0, 69, 0
2, 9344, Note_on_c, 0, 65, 72
2, 9345, Note_off_c, 0, 67, 0
2, 9408, Note_on_c, 0, 64, 66
2, 9409, Note_off_c, 0, 65, 0
2, 9468, Note_off_c, 0, 64, 0
2, 9472, Note_on_c, 0, 62, 71
2, 9728, Note_off_c, 0, 62, 0
2, 9728, Note_on_c, 0, 64, 77
2, 9792, Note_off_c, 0, 64, 0
2, 9856, Note_on_c, 0, 65, 78
2, 9920, Note_off_c, 0, 65, 0
2, 9984, Note_on_c, 0, 67, 79
2, 10048, Note_off_c, 0, 67, 0
2, 10112, Note_on_c, 0, 67, 76
2, 10176, Note_off_c, 0, 67, 0
2, 10240, Note_on_c, 0, 69, 82
2, 10304, Note_on_c, 0, 67, 75
2, 10305, Note_off_c, 0, 69, 0
2, 10368, Note_on_c, 0, 65, 73
2, 10369, Note_off_c, 0, 67, 0
2, 10432, Note_on_c, 0, 64, 73
2, 10433, Note_off_c, 0, 65, 0
2, 10492, Note_off_c, 0, 64, 0
2, 10496, Note_on_c, 0, 62, 67
2, 10752, Note_off_c, 0, 62, 0
2, 10752, Note_on_c, 0, 60, 88
2, 10816, Note_off_c, 0, 60, 0
2, 10880, Note_on_c, 0, 62, 101
2, 10944, Note_off_c, 0, 62, 0
2, 11008, Note_on_c, 0, 64, 106
2, 11072, Note_off_c, 0, 64, 0
2, 11136, Note_on_c, 0, 64, 100
2, 11200, Note_off_c, 0, 64, 0
2, 11264, Note_on_c, 0, 65, 101
2, 11328, Note_on_c, 0, 64, 99
2, 11329, Note_off_c, 0, 65, 0
2, 11392, Note_on_c, 0, 62, 94
2, 11393, Note_off_c, 0, 64, 0
2, 11456, Note_on_c, 0, 60, 87
2, 11457, Note_off_c, 0, 62, 0
2, 11520, Note_on_c, 0, 59, 93
2, 11521, Note_off_c, 0, 60, 0
2, 11763, Note_off_c, 0, 59, 0
2, 11776, Note_on_c, 0, 60, 99
2, 11840, Note_off_c, 0, 60, 0
2, 11904, Note_on_c, 0, 62, 101
2, 11968, Note_off_c, 0, 62, 0
2, 12032, Note_on_c, 0, 64, 106
2, 12096, Note_off_c, 0, 64, 0
2, 12160, Note_on_c, 0, 64, 96
2, 12224, Note_off_c, 0, 64, 0
2, 12288, Note_on_c, 0, 65, 101
2, 12352, Note_on_c, 0, 64, 97
2, 12353, Note_off_c, 0, 65, 0
2, 12416, Note_on_c, 0, 62, 88
2, 12417, Note_off_c, 0, 64, 0
2, 12480, Note_on_c, 0, 60, 85
2, 12481, Note_off_c, 0, 62, 0
2, 12544, Note_on_c, 0, 59, 92
2, 12545, Note_off_c, 0, 60, 0
2, 12787, Note_off_c, 0, 59, 0
2, 12800, Note_on_c, 0, 59, 98
2, 12864, Note_on_c, 0, 57, 96
2, 12865, Note_off_c, 0, 59, 0
2, 12928, Note_on_c, 0, 56, 94
2, 12929, Note_off_c, 0, 57, 0
2, 12992, Note_on_c, 0, 57, 95
2, 12993, Note_off_c, 0, 56, 0
2, 13056, Note_on_c, 0, 60, 110
2, 13057, Note_off_c, 0, 57, 0
2, 13299, Note_off_c, 0, 60, 0
2, 13312, Note_on_c, 0, 62, 104
2, 13376, Note_on_c, 0, 60, 93
2, 13377, Note_off_c, 0, 62, 0
2, 13440, Note_on_c, 0, 59, 93
2, 13441, Note_off_c, 0, 60, 0
2, 13504, Note_on_c, 0, 60, 100
2, 13505, Note_off_c, 0, 59, 0
2, 13568, Note_on_c, 0, 64, 105
2, 13569, Note_off_c, 0, 60, 0
2, 13811, Note_off_c, 0, 64, 0
2, 13824, Note_on_c, 0, 65, 105
2, 13888, Note_on_c, 0, 64, 101
2, 13889, Note_off_c, 0, 65, 0
2, 13952, Note_on_c, 0, 63, 85
2, 13953, Note_off_c, 0, 64, 0
2, 14016, Note_on_c, 0, 64, 83
2, 14017, Note_off_c, 0, 63, 0
2, 14080, Note_on_c, 0, 71, 119
2, 14081, Note_off_c, 0, 64, 0
2, 14144, Note_on_c, 0, 69, 113
2, 14145, Note_off_c, 0, 71, 0
2, 14208, Note_on_c, 0, 68, 87
2, 14209, Note_off_c, 0, 69, 0
2, 14272, Note_on_c, 0, 69, 92
2, 14273, Note_off_c, 0, 68, 0
2, 14336, Note_on_c, 0, 71, 104
2, 14337, Note_off_c, 0, 69, 0
2, 14400, Note_on_c, 0, 69, 93
2, 14401, Note_off_c, 0, 71, 0
2, 14464, Note_on_c, 0, 68, 94
2, 14465, Note_off_c, 0, 69, 0
2, 14528, Note_on_c, 0, 69, 102
2, 14529, Note_off_c, 0, 68, 0
2, 14592, Note_on_c, 0, 72, 105
2, 14593, Note_off_c, 0, 69, 0
2, 14835, Note_off_c, 0, 72, 0
2, 14848, Note_on_c, 0, 69, 97
2, 14912, Note_off_c, 0, 69, 0
2, 14976, Note_on_c, 0, 71, 111
2, 15040, Note_off_c, 0, 71, 0
2, 15104, Note_on_c, 0, 72, 101
2, 15168, Note_off_c, 0, 72, 0
2, 15232, Note_on_c, 0, 71, 94
2, 15296, Note_off_c, 0, 71, 0
2, 15360, Note_on_c, 0, 69, 93
2, 15424, Note_off_c, 0, 69, 0
2, 15488, Note_on_c, 0, 68, 98
2, 15552, Note_off_c, 0, 68, 0
2, 15616, Note_on_c, 0, 69, 102
2, 15680, Note_off_c, 0, 69, 0
2, 15744, Note_on_c, 0, 64, 89
2, 15808, Note_off_c, 0, 64, 0
2, 15872, Note_on_c, 0, 65, 101
2, 15936, Note_off_c, 0, 65, 0
2, 16000, Note_on_c, 0, 62, 91
2, 16064, Note_off_c, 0, 62, 0
2, 16128, Note_on_c, 0, 60, 90
2, 16384, Note_off_c, 0, 60, 0
2, 16384, Note_on_c, 0, 59, 98
2, 16512, Note_off_c, 0, 59, 0
2, 16512, Note_on_c, 0, 57, 96
2, 16576, Note_off_c, 0, 57, 0
2, 16576, Note_on_c, 0, 59, 105
2, 16640, Note_off_c, 0, 59, 0
2, 16640, Note_on_c, 0, 57, 95
2, 16896, Note_off_c, 0, 57, 0
2, 16896, Note_on_c, 0, 69, 127
2, 16960, Note_off_c, 0, 69, 0
2, 17024, Note_on_c, 0, 71, 115
2, 17088, Note_off_c, 0, 71, 0
2, 17152, Note_on_c, 0, 73, 127
2, 17408, Note_off_c, 0, 73, 0
2, 17408, Note_on_c, 0, 69, 87
2, 17472, Note_off_c, 0, 69, 0
2, 17536, Note_on_c, 0, 71, 105
2, 17600, Note_off_c, 0, 71, 0
2, 17664, Note_on_c, 0, 73, 111
2, 17728, Note_off_c, 0, 73, 0
2, 17792, Note_on_c, 0, 71, 99
2, 17856, Note_off_c, 0, 71, 0
2, 17920, Note_on_c, 0, 69, 96
2, 17984, Note_off_c, 0, 69, 0
2, 18048, Note_on_c, 0, 68, 92
2, 18112, Note_off_c, 0, 68, 0
2, 18176, Note_on_c, 0, 66, 92
2, 18240, Note_off_c, 0, 66, 0
2, 18304, Note_on_c, 0, 68, 106
2, 18368, Note_off_c, 0, 68, 0
2, 18432, Note_on_c, 0, 69, 108
2, 18496, Note_off_c, 0, 69, 0
2, 18560, Note_on_c, 0, 71, 107
2, 18624, Note_off_c, 0, 71, 0
2, 18688, Note_on_c, 0, 68, 88
2, 18752, Note_off_c, 0, 68, 0
2, 18816, Note_on_c, 0, 64, 89
2, 18880, Note_off_c, 0, 64, 0
2, 18944, Note_on_c, 0, 69, 117
2, 19008, Note_off_c, 0, 69, 0
2, 19072, Note_on_c, 0, 71, 106
2, 19136, Note_off_c, 0, 71, 0
2, 19200, Note_on_c, 0, 73, 127
2, 19456, Note_off_c, 0, 73, 0
2, 19456, Note_on_c, 0, 69, 89
2, 19520, Note_off_c, 0, 69, 0
2, 19584, Note_on_c, 0, 71, 106
2, 19648, Note_off_c, 0, 71, 0
2, 19712, Note_on_c, 0, 73, 107
2, 19776, Note_off_c, 0, 73, 0
2, 19840, Note_on_c, 0, 71, 94
2, 19904, Note_off_c, 0, 71, 0
2, 19968, Note_on_c, 0, 69, 99
2, 20032, Note_off_c, 0, 69, 0
2, 20096, Note_on_c, 0, 68, 97
2, 20160, Note_off_c, 0, 68, 0
2, 20224, Note_on_c, 0, 66, 98
2, 20288, Note_off_c, 0, 66, 0
2, 20352, Note_on_c, 0, 71, 113
2, 20416, Note_off_c, 0, 71, 0
2, 20480, Note_on_c, 0, 68, 93
2, 20544, Note_off_c, 0, 68, 0
2, 20608, Note_on_c, 0, 64, 89
2, 20672, Note_off_c, 0, 64, 0
2, 20736, Note_on_c, 0, 69, 125
2, 20992, Note_off_c, 0, 69, 0
2, 20992, Note_on_c, 0, 69, 100
2, 21056, Note_off_c, 0, 69, 0
2, 21120, Note_on_c, 0, 71, 110
2, 21184, Note_off_c, 0, 71, 0
2, 21248, Note_on_c, 0, 73, 127
2, 21504, Note_off_c, 0, 73, 0
2, 21504, Note_on_c, 0, 69, 89
2, 21568, Note_off_c, 0, 69, 0
2, 21632, Note_on_c, 0, 71, 104
2, 21696, Note_off_c, 0, 71, 0
2, 21760, Note_on_c, 0, 73, 108
2, 21824, Note_off_c, 0, 73, 0
2, 21888, Note_on_c, 0, 71, 100
2, 21952, Note_off_c, 0, 71, 0
2, 22016, Note_on_c, 0, 69, 93
2, 22080, Note_off_c, 0, 69, 0
2, 22144, Note_on_c, 0, 68, 97
2, 22208, Note_off_c, 0, 68, 0
2, 22272, Note_on_c, 0, 66, 89
2, 22336, Note_off_c, 0, 66, 0
2, 22400, Note_on_c, 0, 68, 104
2, 22464, Note_off_c, 0, 68, 0
2, 22528, Note_on_c, 0, 69, 109
2, 22592, Note_off_c, 0, 69, 0
2, 22656, Note_on_c, 0, 71, 107
2, 22720, Note_off_c, 0, 71, 0
2, 22784, Note_on_c, 0, 68, 94
2, 22848, Note_off_c, 0, 68, 0
2, 22912, Note_on_c, 0, 64, 90
2, 22976, Note_off_c, 0, 64, 0
2, 23040, Note_on_c, 0, 69, 113
2, 23104, Note_off_c, 0, 69, 0
2, 23168, Note_on_c, 0, 71, 112
2, 23232, Note_off_c, 0, 71, 0
2, 23296, Note_on_c, 0, 73, 127
2, 23552, Note_off_c, 0, 73, 0
2, 23552, Note_on_c, 0, 69, 94
2, 23616, Note_off_c, 0, 69, 0
2, 23680, Note_on_c, 0, 71, 108
2, 23744, Note_off_c, 0, 71, 0
2, 23808, Note_on_c, 0, 73, 111
2, 23872, Note_off_c, 0, 73, 0
2, 23936, Note_on_c, 0, 71, 91
2, 24000, Note_off_c, 0, 71, 0
2, 24064, Note_on_c, 0, 69, 96
2, 24128, Note_off_c, 0, 69, 0
2, 24192, Note_on_c, 0, 68, 96
2, 24256, Note_off_c, 0, 68, 0
2, 24320, Note_on_c, 0, 66, 94
2, 24384, Note_off_c, 0, 66, 0
2, 24448, Note_on_c, 0, 71, 115
2, 24512, Note_off_c, 0, 71, 0
2, 24576, Note_on_c, 0, 68, 98
2, 24640, Note_off_c, 0, 68, 0
2, 24704, Note_on_c, 0, 64, 89
2, 24768, Note_off_c, 0, 64, 0
2, 24832, Note_on_c, 0, 69, 118
2, 25088, Note_off_c, 0, 69, 0
2, 25088, Note_on_c, 0, 73, 71
2, 25152, Note_on_c, 0, 74, 75
2, 25153, Note_off_c, 0, 73, 0
2, 25216, Note_on_c, 0, 73, 60
2, 25217, Note_off_c, 0, 74, 0
2, 25280, Note_on_c, 0, 71, 55
2, 25281, Note_off_c, 0, 73, 0
2, 25344, Note_on_c, 0, 69, 57
2, 25345, Note_off_c, 0, 71, 0
2, 25408, Note_on_c, 0, 71, 62
2, 25409, Note_off_c, 0, 69, 0
2, 25472, Note_on_c, 0, 69, 63
2, 25473, Note_off_c, 0, 71, 0
2, 25536, Note_on_c, 0, 68, 57
2, 25537, Note_off_c, 0, 69, 0
2, 25600, Note_on_c, 0, 66, 60
2, 25601, Note_off_c, 0, 68, 0
2, 25664, Note_on_c, 0, 69, 66
2, 25665, Note_off_c, 0, 66, 0
2, 25728, Note_on_c, 0, 68, 62
2, 25729, Note_off_c, 0, 69, 0
2, 25792, Note_on_c, 0, 66, 57
2, 25793, Note_off_c, 0, 68, 0
2, 25856, Note_on_c, 0, 65, 61
2, 25857, Note_off_c, 0, 66, 0
2, 25920, Note_on_c, 0, 66, 59
2, 25921, Note_off_c, 0, 65, 0
2, 25984, Note_on_c, 0, 68, 67
2, 25985, Note_off_c, 0, 66, 0
2, 26048, Note_on_c, 0, 65, 60
2, 26049, Note_off_c, 0, 68, 0
2, 26112, Note_on_c, 0, 61, 53
2, 26113, Note_off_c, 0, 65, 0
2, 26173, Note_off_c, 0, 61, 0
2, 26176, Note_on_c, 0, 63, 67
2, 26240, Note_on_c, 0, 65, 73
2, 26241, Note_off_c, 0, 63, 0
2, 26304, Note_on_c, 0, 61, 59
2, 26305, Note_off_c, 0, 65, 0
2, 26368, Note_on_c, 0, 66, 65
2, 26369, Note_off_c, 0, 61, 0
2, 26432, Note_on_c, 0, 65, 58
2, 26433, Note_off_c, 0, 66, 0
2, 26496, Note_on_c, 0, 66, 62
2, 26497, Note_off_c, 0, 65, 0
2, 26560, Note_on_c, 0, 68, 68
2, 26561, Note_off_c, 0, 66, 0
2, 26624, Note_on_c, 0, 69, 69
2, 26625, Note_off_c, 0, 68, 0
2, 26688, Note_on_c, 0, 68, 63
2, 26689, Note_off_c, 0, 69, 0
2, 26752, Note_on_c, 0, 69, 73
2, 26753, Note_off_c, 0, 68, 0
2, 26816, Note_on_c, 0, 71, 74
2, 26817, Note_off_c, 0, 69, 0
2, 26880, Note_on_c, 0, 73, 76
2, 26881, Note_off_c, 0, 71, 0
2, 26944, Note_on_c, 0, 72, 69
2, 26945, Note_off_c, 0, 73, 0
2, 27008, Note_on_c, 0, 73, 80
2, 27009, Note_off_c, 0, 72, 0
2, 27072, Note_on_c, 0, 72, 81
2, 27073, Note_off_c, 0, 73, 0
2, 27136, Note_on_c, 0, 73, 89
2, 27137, Note_off_c, 0, 72, 0
2, 27197, Note_off_c, 0, 73, 0
2, 27200, Note_on_c, 0, 74, 85
2, 27264, Note_on_c, 0, 73, 76
2, 27265, Note_off_c, 0, 74, 0
2, 27328, Note_on_c, 0, 71, 74
2, 27329, Note_off_c, 0, 73, 0
2, 27392, Note_on_c, 0, 69, 70
2, 27393, Note_off_c, 0, 71, 0
2, 27456, Note_on_c, 0, 71, 86
2, 27457, Note_off_c, 0, 69, 0
2, 27520, Note_on_c, 0, 69, 73
2, 27521, Note_off_c, 0, 71, 0
2, 27584, Note_on_c, 0, 68, 71
2, 27585, Note_off_c, 0, 69, 0
2, 27648, Note_on_c, 0, 66, 63
2, 27649, Note_off_c, 0, 68, 0
2, 27712, Note_on_c, 0, 69, 68
2, 27713, Note_off_c, 0, 66, 0
2, 27776, Note_on_c, 0, 68, 60
2, 27777, Note_off_c, 0, 69, 0
2, 27840, Note_on_c, 0, 66, 60
2, 27841, Note_off_c, 0, 68, 0
2, 27904, Note_on_c, 0, 64, 57
2, 27905, Note_off_c, 0, 66, 0
2, 27968, Note_on_c, 0, 66, 61
2, 27969, Note_off_c, 0, 64, 0
2, 28032, Note_on_c, 0, 68, 68
2, 28033, Note_off_c, 0, 66, 0
2, 28096, Note_on_c, 0, 64, 59
2, 28097, Note_off_c, 0, 68, 0
2, 28160, Note_on_c, 0, 61, 54
2, 28161, Note_off_c, 0, 64, 0
2, 28221, Note_off_c, 0, 61, 0
2, 28224, Note_on_c, 0, 63, 70
2, 28288, Note_on_c, 0, 64, 74
2, 28289, Note_off_c, 0, 63, 0
2, 28352, Note_on_c, 0, 61, 62
2, 28353, Note_off_c, 0, 64, 0
2, 28416, Note_on_c, 0, 63, 67
2, 28417, Note_off_c, 0, 61, 0
2, 28480, Note_on_c, 0, 64, 71
2, 28481, Note_off_c, 0, 63, 0
2, 28544, Note_on_c, 0, 66, 81
2, 28545, Note_off_c, 0, 64, 0
2, 28608, Note_on_c, 0, 63, 58
2, 28609, Note_off_c, 0, 66, 0
2, 28672, Note_on_c, 0, 60, 54
2, 28673, Note_off_c, 0, 63, 0
2, 28736, Note_on_c, 0, 61, 64
2, 28737, Note_off_c, 0, 60, 0
2, 28800, Note_on_c, 0, 63, 64
2, 28801, Note_off_c, 0, 61, 0
2, 28864, Note_on_c, 0, 60, 57
2, 28865, Note_off_c, 0, 63, 0
2, 28928, Note_on_c, 0, 61, 62
2, 28929, Note_off_c, 0, 60, 0
2, 29171, Note_off_c, 0, 61, 0
2, 29184, Note_on_c, 0, 64, 106
2, 29248, Note_on_c, 0, 62, 100
2, 29249, Note_off_c, 0, 64, 0
2, 29312, Note_on_c, 0, 61, 88
2, 29313, Note_off_c, 0, 62, 0
2, 29376, Note_on_c, 0, 59, 84
2, 29377, Note_off_c, 0, 61, 0
2, 29440, Note_on_c, 0, 57, 91
2, 29441, Note_off_c, 0, 59, 0
2, 29504, Note_on_c, 0, 59, 91
2, 29505, Note_off_c, 0, 57, 0
2, 29568, Note_on_c, 0, 61, 103
2, 29569, Note_off_c, 0, 59, 0
2, 29632, Note_on_c, 0, 62, 109
2, 29633, Note_off_c, 0, 61, 0
2, 29696, Note_on_c, 0, 64, 101
2, 29697, Note_off_c, 0, 62, 0
2, 29760, Note_on_c, 0, 66, 103
2, 29761, Note_off_c, 0, 64, 0
2, 29824, Note_on_c, 0, 68, 107
2, 29825, Note_off_c, 0, 66, 0
2, 29888, Note_on_c, 0, 69, 110
2, 29889, Note_off_c, 0, 68, 0
2, 29952, Note_off_c, 0, 69, 0
2, 29952, Note_on_c, 0, 69, 97
2, 30016, Note_on_c, 0, 68, 92
2, 30017, Note_off_c, 0, 69, 0
2, 30080, Note_on_c, 0, 66, 88
2, 30081, Note_off_c, 0, 68, 0
2, 30144, Note_on_c, 0, 64, 82
2, 30145, Note_off_c, 0, 66, 0
2, 30204, Note_off_c, 0, 64, 0
2, 30208, Note_on_c, 0, 64, 94
2, 30272, Note_on_c, 0, 62, 88
2, 30273, Note_off_c, 0, 64, 0
2, 30336, Note_on_c, 0, 61, 88
2, 30337, Note_off_c, 0, 62, 0
2, 30400, Note_on_c, 0, 59, 84
2, 30401, Note_off_c, 0, 61, 0
2, 30464, Note_on_c, 0, 57, 90
2, 30465, Note_off_c, 0, 59, 0
2, 30528, Note_on_c, 0, 59, 97
2, 30529, Note_off_c, 0, 57, 0
2, 30592, Note_on_c, 0, 61, 101
2, 30593, Note_off_c, 0, 59, 0
2, 30656, Note_on_c, 0, 62, 99
2, 30657, Note_off_c, 0, 61, 0
2, 30720, Note_on_c, 0, 64, 104
2, 30721, Note_off_c, 0, 62, 0
2, 30784, Note_on_c, 0, 66, 102
2, 30785, Note_off_c, 0, 64, 0
2, 30848, Note_on_c, 0, 68, 106
2, 30849, Note_off_c, 0, 66, 0
2, 30912, Note_on_c, 0, 69, 113
2, 30913, Note_off_c, 0, 68, 0
2, 30976, Note_on_c, 0, 70, 104
2, 30977, Note_off_c, 0, 69, 0
2, 31104, Note_on_c, 0, 71, 110
2, 31106, Note_off_c, 0, 70, 0
2, 31225, Note_off_c, 0, 71, 0
2, 31232, Note_on_c, 0, 64, 85
2, 31296, Note_on_c, 0, 62, 81
2, 31297, Note_off_c, 0, 64, 0
2, 31360, Note_on_c, 0, 61, 95
2, 31361, Note_off_c, 0, 62, 0
2, 31424, Note_on_c, 0, 59, 91
2, 31425, Note_off_c, 0, 61, 0
2, 31488, Note_on_c, 0, 57, 96
2, 31489, Note_off_c, 0, 59, 0
2, 31552, Note_on_c, 0, 59, 101
2, 31553, Note_off_c, 0, 57, 0
2, 31616, Note_on_c, 0, 61, 109
2, 31617, Note_off_c, 0, 59, 0
2, 31680, Note_on_c, 0, 62, 119
2, 31681, Note_off_c, 0, 61, 0
2, 31744, Note_on_c, 0, 64, 106
2, 31745, Note_off_c, 0, 62, 0
2, 31808, Note_on_c, 0, 66, 111
2, 31809, Note_off_c, 0, 64, 0
2, 31872, Note_on_c, 0, 68, 107
2, 31873, Note_off_c, 0, 66, 0
2, 31936, Note_on_c, 0, 69, 115
2, 31937, Note_off_c, 0, 68, 0
2, 32000, Note_off_c, 0, 69, 0
2, 32000, Note_on_c, 0, 69, 99
2, 32064, Note_on_c, 0, 68, 92
2, 32065, Note_off_c, 0, 69, 0
2, 32128, Note_on_c, 0, 66, 94
2, 32129, Note_off_c, 0, 68, 0
2, 32192, Note_on_c, 0, 64, 87
2, 32193, Note_off_c, 0, 66, 0
2, 32252, Note_off_c, 0, 64, 0
2, 32256, Note_on_c, 0, 64, 100
2, 32320, Note_on_c, 0, 62, 95
2, 32321, Note_off_c, 0, 64, 0
2, 32384, Note_on_c, 0, 61, 98
2, 32385, Note_off_c, 0, 62, 0
2, 32448, Note_on_c, 0, 59, 95
2, 32449, Note_off_c, 0, 61, 0
2, 32512, Note_on_c, 0, 61, 105
2, 32513, Note_off_c, 0, 59, 0
2, 32576, Note_on_c, 0, 64, 112
2, 32577, Note_off_c, 0, 61, 0
2, 32640, Note_on_c, 0, 57, 96
2, 32641, Note_off_c, 0, 64, 0
2, 32704, Note_on_c, 0, 61, 107
2, 32705, Note_off_c, 0, 57, 0
2, 32768, Note_on_c, 0, 59, 102
2, 32769, Note_off_c, 0, 61, 0
2, 32832, Note_on_c, 0, 62, 114
2, 32833, Note_off_c, 0, 59, 0
2, 32896, Note_on_c, 0, 56, 97
2, 32897, Note_off_c, 0, 62, 0
2, 32960, Note_on_c, 0, 59, 99
2, 32961, Note_off_c, 0, 56, 0
2, 33024, Note_on_c, 0, 57, 102
2, 33025, Note_off_c, 0, 59, 0
2, 33267, Note_off_c, 0, 57, 0
2, 33536, Note_on_c, 0, 66, 89
2, 33664, Note_off_c, 0, 66, 0
2, 33664, Note_on_c, 0, 69, 109
2, 33792, Note_off_c, 0, 69, 0
2, 33792, Note_on_c, 0, 69, 101
2, 33920, Note_off_c, 0, 69, 0
2, 33920, Note_on_c, 0, 69, 103
2, 34048, Note_off_c, 0, 69, 0
2, 34048, Note_on_c, 0, 68, 95
2, 34176, Note_off_c, 0, 68, 0
2, 34176, Note_on_c, 0, 71, 111
2, 34304, Note_off_c, 0, 71, 0
2, 34304, Note_on_c, 0, 71, 99
2, 34432, Note_off_c, 0, 71, 0
2, 34432, Note_on_c, 0, 71, 98
2, 34560, Note_off_c, 0, 71, 0
2, 34560, Note_on_c, 0, 66, 92
2, 34688, Note_off_c, 0, 66, 0
2, 34688, Note_on_c, 0, 69, 109
2, 34816, Note_off_c, 0, 69, 0
2, 34816, Note_on_c, 0, 69, 102
2, 34944, Note_off_c, 0, 69, 0
2, 34944, Note_on_c, 0, 69, 98
2, 35072, Note_off_c, 0, 69, 0
2, 35072, Note_on_c, 0, 61, 81
2, 35200, Note_off_c, 0, 61, 0
2, 35200, Note_on_c, 0, 68, 120
2, 35328, Note_off_c, 0, 68, 0
2, 35328, Note_on_c, 0, 67, 94
2, 35456, Note_off_c, 0, 67, 0
2, 35456, Note_on_c, 0, 66, 100
2, 35584, Note_off_c, 0, 66, 0
2, 35584, Note_on_c, 0, 59, 90
2, 35712, Note_off_c, 0, 59, 0
2, 35712, Note_on_c, 0, 66, 116
2, 35840, Note_off_c, 0, 66, 0
2, 35840, Note_on_c, 0, 66, 103
2, 35968, Note_off_c, 0, 66, 0
2, 35968, Note_on_c, 0, 66, 101
2, 36096, Note_off_c, 0, 66, 0
2, 36096, Note_on_c, 0, 59, 88
2, 36224, Note_off_c, 0, 59, 0
2, 36224, Note_on_c, 0, 68, 123
2, 36352, Note_off_c, 0, 68, 0
2, 36352, Note_on_c, 0, 68, 106
2, 36480, Note_off_c, 0, 68, 0
2, 36480, Note_on_c, 0, 68, 101
2, 36608, Note_off_c, 0, 68, 0
2, 36608, Note_on_c, 0, 61, 84
2, 36736, Note_off_c, 0, 61, 0
2, 36736, Note_on_c, 0, 66, 114
2, 36864, Note_off_c, 0, 66, 0
2, 36864, Note_on_c, 0, 61, 91
2, 36992, Note_off_c, 0, 61, 0
2, 36992, Note_on_c, 0, 68, 119
2, 37120, Note_off_c, 0, 68, 0
2, 37120, Note_on_c, 0, 66, 95
2, 37376, Note_off_c, 0, 66, 0
2, 37376, Note_on_c, 0, 69, 108
2, 37440, Note_off_c, 0, 69, 0
2, 37504, Note_on_c, 0, 71, 113
2, 37568, Note_off_c, 0, 71, 0
2, 37632, Note_on_c, 0, 73, 127
2, 37888, Note_off_c, 0, 73, 0
2, 37888, Note_on_c, 0, 69, 91
2, 37952, Note_off_c, 0, 69, 0
2, 38016, Note_on_c, 0, 71, 109
2, 38080, Note_off_c, 0, 71, 0
2, 38144, Note_on_c, 0, 73, 111
2, 38208, Note_off_c, 0, 73, 0
2, 38272, Note_on_c, 0, 71, 96
2, 38336, Note_off_c, 0, 71, 0
2, 38400, Note_on_c, 0, 69, 93
2, 38464, Note_off_c, 0, 69, 0
2, 38528, Note_on_c, 0, 68, 96
2, 38592, Note_off_c, 0, 68, 0
2, 38656, Note_on_c, 0, 66, 95
2, 38720, Note_off_c, 0, 66, 0
2, 38784, Note_on_c, 0, 68, 106
2, 38848, Note_off_c, 0, 68, 0
2, 38912, Note_on_c, 0, 69, 107
2, 38976, Note_off_c, 0, 69, 0
2, 39040, Note_on_c, 0, 71, 113
2, 39104, Note_off_c, 0, 71, 0
2, 39168, Note_on_c, 0, 68, 96
2, 39232, Note_off_c, 0, 68, 0
2, 39296, Note_on_c, 0, 64, 89
2, 39360, Note_off_c, 0, 64, 0
2, 39424, Note_on_c, 0, 69, 111
2, 39488, Note_off_c, 0, 69, 0
2, 39552, Note_on_c, 0, 71, 108
2, 39616, Note_off_c, 0, 71, 0
2, 39680, Note_on_c, 0, 73, 127
2, 39936, Note_off_c, 0, 73, 0
2, 39936, Note_on_c, 0, 69, 90
2, 40000, Note_off_c, 0, 69, 0
2, 40064, Note_on_c, 0, 71, 108
2, 40128, Note_off_c, 0, 71, 0
2, 40192, Note_on_c, 0, 73, 108
2, 40256, Note_off_c, 0, 73, 0
2, 40320, Note_on_c, 0, 71, 94
2, 40384, Note_off_c, 0, 71, 0
2, 40448, Note_on_c, 0, 69, 97
2, 40512, Note_off_c, 0, 69, 0
2, 40576, Note_on_c, 0, 68, 96
2, 40640, Note_off_c, 0, 68, 0
2, 40704, Note_on_c, 0, 66, 93
2, 40768, Note_off_c, 0, 66, 0
2, 40832, Note_on_c, 0, 71, 113
2, 40896, Note_off_c, 0, 71, 0
2, 40960, Note_on_c, 0, 68, 95
2, 41024, Note_off_c, 0, 68, 0
2, 41088, Note_on_c, 0, 64, 87
2, 41152, Note_off_c, 0, 64, 0
2, 41216, Note_on_c, 0, 69, 124
2, 41472, Note_off_c, 0, 69, 0
2, 41472, Note_on_c, 0, 69, 104
2, 41536, Note_off_c, 0, 69, 0
2, 41600, Note_on_c, 0, 71, 110
2, 41664, Note_off_c, 0, 71, 0
2, 41728, Note_on_c, 0, 73, 127
2, 41984, Note_off_c, 0, 73, 0
2, 41984, Note_on_c, 0, 69, 93
2, 42048, Note_off_c, 0, 69, 0
2, 42112, Note_on_c, 0, 71, 105
2, 42176, Note_off_c, 0, 71, 0
2, 42240, Note_on_c, 0, 73, 105
2, 42304, Note_off_c, 0, 73, 0
2, 42368, Note_on_c, 0, 71, 96
2, 42432, Note_off_c, 0, 71, 0
2, 42496, Note_on_c, 0, 69, 97
2, 42560, Note_off_c, 0, 69, 0
2, 42624, Note_on_c, 0, 68, 95
2, 42688, Note_off_c, 0, 68, 0
2, 42752, Note_on_c, 0, 66, 92
2, 42816, Note_off_c, 0, 66, 0
2, 42880, Note_on_c, 0, 68, 105
2, 42944, Note_off_c, 0, 68, 0
2, 43008, Note_on_c, 0, 69, 108
2, 43072, Note_off_c, 0, 69, 0
2, 43136, Note_on_c, 0, 71, 105
2, 43200, Note_off_c, 0, 71, 0
2, 43264, Note_on_c, 0, 68, 95
2, 43328, Note_off_c, 0, 68, 0
2, 43392, Note_on_c, 0, 64, 92
2, 43456, Note_off_c, 0, 64, 0
2, 43520, Note_on_c, 0, 69, 113
2, 43584, Note_off_c, 0, 69, 0
2, 43648, Note_on_c, 0, 71, 112
2, 43712, Note_off_c, 0, 71, 0
2, 43776, Note_on_c, 0, 73, 125
2, 44032, Note_off_c, 0, 73, 0
2, 44032, Note_on_c, 0, 69, 89
2, 44096, Note_off_c, 0, 69, 0
2, 44160, Note_on_c, 0, 71, 108
2, 44224, Note_off_c, 0, 71, 0
2, 44288, Note_on_c, 0, 73, 107
2, 44352, Note_off_c, 0, 73, 0
2, 44416, Note_on_c, 0, 71, 97
2, 44480, Note_off_c, 0, 71, 0
2, 44544, Note_on_c, 0, 69, 94
2, 44608, Note_off_c, 0, 69, 0
2, 44672, Note_on_c, 0, 68, 90
2, 44736, Note_off_c, 0, 68, 0
2, 44800, Note_on_c, 0, 66, 97
2, 44864, Note_off_c, 0, 66, 0
2, 44928, Note_on_c, 0, 71, 112
2, 44992, Note_off_c, 0, 71, 0
2, 45056, Note_on_c, 0, 68, 94
2, 45120, Note_off_c, 0, 68, 0
2, 45184, Note_on_c, 0, 64, 91
2, 45248, Note_off_c, 0, 64, 0
2, 45312, Note_on_c, 0, 69, 123
2, 45568, Note_off_c, 0, 69, 0
2, 45568, Note_on_c, 0, 59, 89
2, 45632, Note_on_c, 0, 57, 85
2, 45633, Note_off_c, 0, 59, 0
2, 45696, Note_on_c, 0, 56, 97
2, 45697, Note_off_c, 0, 57, 0
2, 45760, Note_on_c, 0, 57, 98
2, 45761, Note_off_c, 0, 56, 0
2, 45824, Note_on_c, 0, 60, 109
2, 45825, Note_off_c, 0, 57, 0
2, 46067, Note_off_c, 0, 60, 0
2, 46080, Note_on_c, 0, 62, 111
2, 46144, Note_on_c, 0, 60, 105
2, 46145, Note_off_c, 0, 62, 0
2, 46208, Note_on_c, 0, 59, 98
2, 46209, Note_off_c, 0, 60, 0
2, 46272, Note_on_c, 0, 60, 103
2, 46273, Note_off_c, 0, 59, 0
2, 46336, Note_on_c, 0, 64, 114
2, 46337, Note_off_c, 0, 60, 0
2, 46579, Note_off_c, 0, 64, 0
2, 46592, Note_on_c, 0, 65, 109
2, 46656, Note_on_c, 0, 64, 105
2, 46657, Note_off_c, 0, 65, 0
2, 46720, Note_on_c, 0, 63, 99
2, 46721, Note_off_c, 0, 64, 0
2, 46784, Note_on_c, 0, 64, 106
2, 46785, Note_off_c, 0, 63, 0
2, 46848, Note_on_c, 0, 71, 118
2, 46849, Note_off_c, 0, 64, 0
2, 46912, Note_on_c, 0, 69, 114
2, 46913, Note_off_c, 0, 71, 0
2, 46976, Note_on_c, 0, 68, 99
2, 46977, Note_off_c, 0, 69, 0
2, 47040, Note_on_c, 0, 69, 100
2, 47041, Note_off_c, 0, 68, 0
2, 47104, Note_on_c, 0, 71, 109
2, 47105, Note_off_c, 0, 69, 0
2, 47168, Note_on_c, 0, 69, 98
2, 47169, Note_off_c, 0, 71, 0
2, 47232, Note_on_c, 0, 68, 97
2, 47233, Note_off_c, 0, 69, 0
2, 47296, Note_on_c, 0, 69, 106
2, 47297, Note_off_c, 0, 68, 0
2, 47360, Note_on_c, 0, 72, 110
2, 47361, Note_off_c, 0, 69, 0
2, 47603, Note_off_c, 0, 72, 0
2, 47616, Note_on_c, 0, 69, 93
2, 47680, Note_off_c, 0, 69, 0
2, 47744, Note_on_c, 0, 72, 107
2, 47808, Note_off_c, 0, 72, 0
2, 47819, Note_on_c, 0, 67, 106
2, 47846, Note_on_c, 0, 69, 106
2, 47872, Note_on_c, 0, 71, 106
2, 47872, Note_off_c, 0, 67, 0
2, 47872, Note_off_c, 0, 69, 0
2, 47932, Note_off_c, 0, 71, 0
2, 48000, Note_on_c, 0, 69, 95
2, 48064, Note_off_c, 0, 69, 0
2, 48128, Note_on_c, 0, 67, 95
2, 48192, Note_off_c, 0, 67, 0
2, 48256, Note_on_c, 0, 69, 105
2, 48320, Note_off_c, 0, 69, 0
2, 48331, Note_on_c, 0, 67, 106
2, 48358, Note_on_c, 0, 69, 106
2, 48384, Note_on_c, 0, 71, 106
2, 48384, Note_off_c, 0, 67, 0
2, 48384, Note_off_c, 0, 69, 0
2, 48444, Note_off_c, 0, 71, 0
2, 48512, Note_on_c, 0, 69, 92
2, 48576, Note_off_c, 0, 69, 0
2, 48640, Note_on_c, 0, 67, 94
2, 48704, Note_off_c, 0, 67, 0
2, 48768, Note_on_c, 0, 69, 104
2, 48832, Note_off_c, 0, 69, 0
2, 48843, Note_on_c, 0, 67, 108
2, 48870, Note_on_c, 0, 69, 108
2, 48896, Note_on_c, 0, 71, 108
2, 48896, Note_off_c, 0, 67, 0
2, 48896, Note_off_c, 0, 69, 0
2, 48956, Note_off_c, 0, 71, 0
2, 49024, Note_on_c, 0, 69, 94
2, 49088, Note_off_c, 0, 69, 0
2, 49152, Note_on_c, 0, 67, 97
2, 49216, Note_off_c, 0, 67, 0
2, 49280, Note_on_c, 0, 66, 94
2, 49344, Note_off_c, 0, 66, 0
2, 49408, Note_on_c, 0, 64, 98
2, 49664, Note_off_c, 0, 64, 0
2, 49664, Note_on_c, 0, 59, 96
2, 49728, Note_on_c, 0, 57, 93
2, 49729, Note_off_c, 0, 59, 0
2, 49792, Note_on_c, 0, 56, 96
2, 49793, Note_off_c, 0, 57, 0
2, 49856, Note_on_c, 0, 57, 100
2, 49857, Note_off_c, 0, 56, 0
2, 49920, Note_on_c, 0, 60, 112
2, 49921, Note_off_c, 0, 57, 0
2, 50163, Note_off_c, 0, 60, 0
2, 50176, Note_on_c, 0, 62, 109
2, 50240, Note_on_c, 0, 60, 103
2, 50241, Note_off_c, 0, 62, 0
2, 50304, Note_on_c, 0, 59, 99
2, 50305, Note_off_c, 0, 60, 0
2, 50368, Note_on_c, 0, 60, 103
2, 50369, Note_off_c, 0, 59, 0
2, 50432, Note_on_c, 0, 64, 119
2, 50433, Note_off_c, 0, 60, 0
2, 50675, Note_off_c, 0, 64, 0
2, 50688, Note_on_c, 0, 65, 106
2, 50752, Note_on_c, 0, 64, 102
2, 50753, Note_off_c, 0, 65, 0
2, 50816, Note_on_c, 0, 63, 101
2, 50817, Note_off_c, 0, 64, 0
2, 50880, Note_on_c, 0, 64, 104
2, 50881, Note_off_c, 0, 63, 0
2, 50944, Note_on_c, 0, 71, 117
2, 50945, Note_off_c, 0, 64, 0
2, 51008, Note_on_c, 0, 69, 110
2, 51009, Note_off_c, 0, 71, 0
2, 51072, Note_on_c, 0, 68, 98
2, 51073, Note_off_c, 0, 69, 0
2, 51136, Note_on_c, 0, 69, 105
2, 51137, Note_off_c, 0, 68, 0
2, 51200, Note_on_c, 0, 71, 109
2, 51201, Note_off_c, 0, 69, 0
2, 51264, Note_on_c, 0, 69, 102
2, 51265, Note_off_c, 0, 71, 0
2, 51328, Note_on_c, 0, 68, 94
2, 51329, Note_off_c, 0, 69, 0
2, 51392, Note_on_c, 0, 69, 98
2, 51393, Note_off_c, 0, 68, 0
2, 51456, Note_on_c, 0, 72, 114
2, 51457, Note_off_c, 0, 69, 0
2, 51699, Note_off_c, 0, 72, 0
2, 51712, Note_on_c, 0, 69, 93
2, 51776, Note_off_c, 0, 69, 0
2, 51840, Note_on_c, 0, 72, 114
2, 51904, Note_off_c, 0, 72, 0
2, 51915, Note_on_c, 0, 67, 102
2, 51942, Note_on_c, 0, 69, 102
2, 51968, Note_on_c, 0, 71, 102
2, 51968, Note_off_c, 0, 67, 0
2, 51968, Note_off_c, 0, 69, 0
2, 52028, Note_off_c, 0, 71, 0
2, 52096, Note_on_c, 0, 69, 97
2, 52160, Note_off_c, 0, 69, 0
2, 52224, Note_on_c, 0, 67, 96
2, 52288, Note_off_c, 0, 67, 0
2, 52352, Note_on_c, 0, 69, 107
2, 52416, Note_off_c, 0, 69, 0
2, 52427, Note_on_c, 0, 67, 114
2, 52454, Note_on_c, 0, 69, 114
2, 52480, Note_on_c, 0, 71, 114
2, 52480, Note_off_c, 0, 67, 0
2, 52480, Note_off_c, 0, 69, 0
2, 52540, Note_off_c, 0, 71, 0
2, 52608, Note_on_c, 0, 69, 96
2, 52672, Note_off_c, 0, 69, 0
2, 52736, Note_on_c, 0, 67, 91
2, 52800, Note_off_c, 0, 67, 0
2, 52864, Note_on_c, 0, 69, 103
2, 52928, Note_off_c, 0, 69, 0
2, 52939, Note_on_c, 0, 67, 111
2, 52966, Note_on_c, 0, 69, 111
2, 52992, Note_on_c, 0, 71, 111
2, 52992, Note_off_c, 0, 67, 0
2, 52992, Note_off_c, 0, 69, 0
2, 53052, Note_off_c, 0, 71, 0
2, 53120, Note_on_c, 0, 69, 92
2, 53184, Note_off_c, 0, 69, 0
2, 53248, Note_on_c, 0, 67, 94
2, 53312, Note_off_c, 0, 67, 0
2, 53376, Note_on_c, 0, 66, 97
2, 53440, Note_off_c, 0, 66, 0
2, 53504, Note_on_c, 0, 64, 101
2, 53760, Note_off_c, 0, 64, 0
2, 53760, Note_on_c, 0, 64, 106
2, 53824, Note_off_c, 0, 64, 0
2, 53888, Note_on_c, 0, 65, 102
2, 53952, Note_off_c, 0, 65, 0
2, 54016, Note_on_c, 0, 67, 109
2, 54080, Note_off_c, 0, 67, 0
2, 54144, Note_on_c, 0, 67, 99
2, 54208, Note_off_c, 0, 67, 0
2, 54272, Note_on_c, 0, 69, 111
2, 54336, Note_on_c, 0, 67, 99
2, 54337, Note_off_c, 0, 69, 0
2, 54400, Note_on_c, 0, 65, 100
2, 54401, Note_off_c, 0, 67, 0
2, 54464, Note_on_c, 0, 64, 93
2, 54465, Note_off_c, 0, 65, 0
2, 54524, Note_off_c, 0, 64, 0
2, 54528, Note_on_c, 0, 62, 92
2, 54784, Note_off_c, 0, 62, 0
2, 54784, Note_on_c, 0, 64, 107
2, 54848, Note_off_c, 0, 64, 0
2, 54912, Note_on_c, 0, 65, 104
2, 54976, Note_off_c, 0, 65, 0
2, 55040, Note_on_c, 0, 67, 111
2, 55104, Note_off_c, 0, 67, 0
2, 55168, Note_on_c, 0, 67, 101
2, 55232, Note_off_c, 0, 67, 0
2, 55296, Note_on_c, 0, 69, 107
2, 55360, Note_on_c, 0, 67, 101
2, 55361, Note_off_c, 0, 69, 0
2, 55424, Note_on_c, 0, 65, 97
2, 55425, Note_off_c, 0, 67, 0
2, 55488, Note_on_c, 0, 64, 90
2, 55489, Note_off_c, 0, 65, 0
2, 55548, Note_off_c, 0, 64, 0
2, 55552, Note_on_c, 0, 62, 92
2, 55808, Note_off_c, 0, 62, 0
2, 55808, Note_on_c, 0, 60, 90
2, 55872, Note_off_c, 0, 60, 0
2, 55936, Note_on_c, 0, 62, 100
2, 56000, Note_off_c, 0, 62, 0
2, 56064, Note_on_c, 0, 64, 104
2, 56128, Note_off_c, 0, 64, 0
2, 56192, Note_on_c, 0, 64, 96
2, 56256, Note_off_c, 0, 64, 0
2, 56320, Note_on_c, 0, 65, 101
2, 56384, Note_on_c, 0, 64, 99
2, 56385, Note_off_c, 0, 65, 0
2, 56448, Note_on_c, 0, 62, 91
2, 56449, Note_off_c, 0, 64, 0
2, 56512, Note_on_c, 0, 60, 85
2, 56513, Note_off_c, 0, 62, 0
2, 56576, Note_on_c, 0, 59, 95
2, 56577, Note_off_c, 0, 60, 0
2, 56819, Note_off_c, 0, 59, 0
2, 56832, Note_on_c, 0, 60, 101
2, 56896, Note_off_c, 0, 60, 0
2, 56960, Note_on_c, 0, 62, 105
2, 57024, Note_off_c, 0, 62, 0
2, 57088, Note_on_c, 0, 64, 107
2, 57152, Note_off_c, 0, 64, 0
2, 57216, Note_on_c, 0, 64, 100
2, 57280, Note_off_c, 0, 64, 0
2, 57344, Note_on_c, 0, 65, 97
2, 57408, Note_on_c, 0, 64, 94
2, 57409, Note_off_c, 0, 65, 0
2, 57472, Note_on_c, 0, 62, 91
2, 57473, Note_off_c, 0, 64, 0
2, 57536, Note_on_c, 0, 60, 86
2, 57537, Note_off_c, 0, 62, 0
2, 57600, Note_on_c, 0, 59, 93
2, 57601, Note_off_c, 0, 60, 0
2, 57843, Note_off_c, 0, 59, 0
2, 57856, Note_on_c, 0, 59, 97
2, 57920, Note_on_c, 0, 57, 90
2, 57921, Note_off_c, 0, 59, 0
2, 57984, Note_on_c, 0, 56, 94
2, 57985, Note_off_c, 0, 57, 0
2, 58048, Note_on_c, 0, 57, 98
2, 58049, Note_off_c, 0, 56, 0
2, 58112, Note_on_c, 0, 60, 105
2, 58113, Note_off_c, 0, 57, 0
2, 58355, Note_off_c, 0, 60, 0
2, 58368, Note_on_c, 0, 62, 103
2, 58432, Note_on_c, 0, 60, 99
2, 58433, Note_off_c, 0, 62, 0
2, 58496, Note_on_c, 0, 59, 90
2, 58497, Note_off_c, 0, 60, 0
2, 58560, Note_on_c, 0, 60, 93
2, 58561, Note_off_c, 0, 59, 0
2, 58624, Note_on_c, 0, 64, 112
2, 58625, Note_off_c, 0, 60, 0
2, 58867, Note_off_c, 0, 64, 0
2, 58880, Note_on_c, 0, 65, 101
2, 58944, Note_on_c, 0, 64, 98
2, 58945, Note_off_c, 0, 65, 0
2, 59008, Note_on_c, 0, 63, 89
2, 59009, Note_off_c, 0, 64, 0
2, 59072, Note_on_c, 0, 64, 93
2, 59073, Note_off_c, 0, 63, 0
2, 59136, Note_on_c, 0, 71, 115
2, 59137, Note_off_c, 0, 64, 0
2, 59200, Note_on_c, 0, 69, 110
2, 59201, Note_off_c, 0, 71, 0
2, 59264, Note_on_c, 0, 68, 89
2, 59265, Note_off_c, 0, 69, 0
2, 59328, Note_on_c, 0, 69, 91
2, 59329, Note_off_c, 0, 68, 0
2, 59392, Note_on_c, 0, 71, 103
2, 59393, Note_off_c, 0, 69, 0
2, 59456, Note_on_c, 0, 69, 94
2, 59457, Note_off_c, 0, 71, 0
2, 59520, Note_on_c, 0, 68, 93
2, 59521, Note_off_c, 0, 69, 0
2, 59584, Note_on_c, 0, 69, 106
2, 59585, Note_off_c, 0, 68, 0
2, 59648, Note_on_c, 0, 72, 115
2, 59649, Note_off_c, 0, 69, 0
2, 59891, Note_off_c, 0, 72, 0
2, 59904, Note_on_c, 0, 69, 91
2, 59968, Note_off_c, 0, 69, 0
2, 60032, Note_on_c, 0, 71, 107
2, 60096, Note_off_c, 0, 71, 0
2, 60160, Note_on_c, 0, 72, 111
2, 60224, Note_off_c, 0, 72, 0
2, 60288, Note_on_c, 0, 71, 98
2, 60352, Note_off_c, 0, 71, 0
2, 60416, Note_on_c, 0, 69, 96
2, 60480, Note_off_c, 0, 69, 0
2, 60544, Note_on_c, 0, 68, 97
2, 60608, Note_off_c, 0, 68, 0
2, 60672, Note_on_c, 0, 69, 104
2, 60736, Note_off_c, 0, 69, 0
2, 60800, Note_on_c, 0, 64, 83
2, 60864, Note_off_c, 0, 64, 0
2, 60928, Note_on_c, 0, 65, 104
2, 60992, Note_off_c, 0, 65, 0
2, 61056, Note_on_c, 0, 62, 88
2, 61120, Note_off_c, 0, 62, 0
2, 61184, Note_on_c, 0, 60, 93
2, 61440, Note_off_c, 0, 60, 0
2, 61440, Note_on_c, 0, 59, 100
2, 61568, Note_off_c, 0, 59, 0
2, 61568, Note_on_c, 0, 57, 99
2, 61632, Note_off_c, 0, 57, 0
2, 61632, Note_on_c, 0, 59, 106
2, 61696, Note_off_c, 0, 59, 0
2, 61696, Note_on_c, 0, 57, 100
2, 61952, Note_off_c, 0, 57, 0
2, 61952, Note_on_c, 0, 69, 127
2, 62016, Note_off_c, 0, 69, 0
2, 62080, Note_on_c, 0, 71, 114
2, 62144, Note_off_c, 0, 71, 0
2, 62208, Note_on_c, 0, 73, 127
2, 62464, Note_off_c, 0, 73, 0
2, 62464, Note_on_c, 0, 69, 90
2, 62528, Note_off_c, 0, 69, 0
2, 62592, Note_on_c, 0, 71, 107
2, 62656, Note_off_c, 0, 71, 0
2, 62720, Note_on_c, 0, 73, 108
2, 62784, Note_off_c, 0, 73, 0
2, 62848, Note_on_c, 0, 71, 98
2, 62912, Note_off_c, 0, 71, 0
2, 62976, Note_on_c, 0, 69, 97
2, 63040, Note_off_c, 0, 69, 0
2, 63104, Note_on_c, 0, 68, 96
2, 63168, Note_off_c, 0, 68, 0
2, 63232, Note_on_c, 0, 66, 95
2, 63296, Note_off_c, 0, 66, 0
2, 63360, Note_on_c, 0, 68, 107
2, 63424, Note_off_c, 0, 68, 0
2, 63488, Note_on_c, 0, 69, 105
2, 63552, Note_off_c, 0, 69, 0
2, 63616, Note_on_c, 0, 71, 107
2, 63680, Note_off_c, 0, 71, 0
2, 63744, Note_on_c, 0, 68, 89
2, 63808, Note_off_c, 0, 68, 0
2, 63872, Note_on_c, 0, 64, 91
2, 63936, Note_off_c, 0, 64, 0
2, 64000, Note_on_c, 0, 69, 113
2, 64064, Note_off_c, 0, 69, 0
2, 64128, Note_on_c, 0, 71, 109
2, 64192, Note_off_c, 0, 71, 0
2, 64256, Note_on_c, 0, 73, 124
2, 64512, Note_off_c, 0, 73, 0
2, 64512, Note_on_c, 0, 69, 91
2, 64576, Note_off_c, 0, 69, 0
2, 64640, Note_on_c, 0, 71, 108
2, 64704, Note_off_c, 0, 71, 0
2, 64768, Note_on_c, 0, 73, 112
2, 64832, Note_off_c, 0, 73, 0
2, 64896, Note_on_c, 0, 71, 96
2, 64960, Note_off_c, 0, 71, 0
2, 65024, Note_on_c, 0, 69, 94
2, 65088, Note_off_c, 0, 69, 0
2, 65152, Note_on_c, 0, 68, 99
2, 65216, Note_off_c, 0, 68, 0
2, 65280, Note_on_c, 0, 66, 93
2, 65344, Note_off_c, 0, 66, 0
2, 65408, Note_on_c, 0, 71, 114
2, 65472, Note_off_c, 0, 71, 0
2, 65536, Note_on_c, 0, 68, 93
2, 65600, Note_off_c, 0, 68, 0
2, 65664, Note_on_c, 0, 64, 92
2, 65728, Note_off_c, 0, 64, 0
2, 65792, Note_on_c, 0, 69, 114
2, 65920, Note_off_c, 0, 69, 0
2, 66048, Note_on_c, 0, 69, 100
2, 66112, Note_off_c, 0, 69, 0
2, 66176, Note_on_c, 0, 71, 110
2, 66240, Note_off_c, 0, 71, 0
2, 66304, Note_on_c, 0, 73, 127
2, 66560, Note_off_c, 0, 73, 0
2, 66560, Note_on_c, 0, 69, 93
2, 66624, Note_off_c, 0, 69, 0
2, 66688, Note_on_c, 0, 71, 106
2, 66752, Note_off_c, 0, 71, 0
2, 66816, Note_on_c, 0, 73, 107
2, 66880, Note_off_c, 0, 73, 0
2, 66944, Note_on_c, 0, 71, 97
2, 67008, Note_off_c, 0, 71, 0
2, 67072, Note_on_c, 0, 69, 96
2, 67136, Note_off_c, 0, 69, 0
2, 67200, Note_on_c, 0, 68, 95
2, 67264, Note_off_c, 0, 68, 0
2, 67328, Note_on_c, 0, 66, 96
2, 67392, Note_off_c, 0, 66, 0
2, 67456, Note_on_c, 0, 68, 104
2, 67520, Note_off_c, 0, 68, 0
2, 67584, Note_on_c, 0, 69, 105
2, 67648, Note_off_c, 0, 69, 0
2, 67712, Note_on_c, 0, 71, 109
2, 67776, Note_off_c, 0, 71, 0
2, 67840, Note_on_c, 0, 68, 91
2, 67904, Note_off_c, 0, 68, 0
2, 67968, Note_on_c, 0, 64, 89
2, 68032, Note_off_c, 0, 64, 0
2, 68096, Note_on_c, 0, 69, 113
2, 68160, Note_off_c, 0, 69, 0
2, 68224, Note_on_c, 0, 71, 113
2, 68288, Note_off_c, 0, 71, 0
2, 68352, Note_on_c, 0, 73, 127
2, 68608, Note_off_c, 0, 73, 0
2, 68608, Note_on_c, 0, 69, 92
2, 68672, Note_off_c, 0, 69, 0
2, 68736, Note_on_c, 0, 71, 105
2, 68800, Note_off_c, 0, 71, 0
2, 68864, Note_on_c, 0, 73, 107
2, 68928, Note_off_c, 0, 73, 0
2, 68992, Note_on_c, 0, 71, 95
2, 69056, Note_off_c, 0, 71, 0
2, 69120, Note_on_c, 0, 69, 91
2, 69184, Note_off_c, 0, 69, 0
2, 69248, Note_on_c, 0, 68, 98
2, 69312, Note_off_c, 0, 68, 0
2, 69376, Note_on_c, 0, 66, 94
2, 69440, Note_off_c, 0, 66, 0
2, 69504, Note_on_c, 0, 71, 117
2, 69568, Note_off_c, 0, 71, 0
2, 69632, Note_on_c, 0, 68, 96
2, 69696, Note_off_c, 0, 68, 0
2, 69760, Note_on_c, 0, 64, 90
2, 69824, Note_off_c, 0, 64, 0
2, 69888, Note_on_c, 0, 69, 117
2, 70016, Note_off_c, 0, 69, 0
2, 70144, Note_on_c, 0, 73, 116
2, 70336, Note_off_c, 0, 73, 0
2, 70336, Note_on_c, 0, 73, 107
2, 70400, Note_off_c, 0, 73, 0
2, 70400, Note_on_c, 0, 64, 97
2, 70400, Note_on_c, 0, 73, 97
2, 70912, Note_off_c, 0, 64, 0
2, 70912, Note_off_c, 0, 73, 0
2, 70912, Note_on_c, 0, 64, 100
2, 70912, Note_on_c, 0, 73, 100
2, 71424, Note_off_c, 0, 64, 0
2, 71424, Note_off_c, 0, 73, 0
2, 71424, Note_on_c, 0, 74, 127
2, 71488, Note_on_c, 0, 73, 127
2, 71489, Note_off_c, 0, 74, 0
2, 71552, Note_on_c, 0, 71, 116
2, 71553, Note_off_c, 0, 73, 0
2, 71584, Note_off_c, 0, 71, 0
2, 71616, Note_on_c, 0, 73, 127
2, 71648, Note_off_c, 0, 73, 0
2, 71680, Note_on_c, 0, 74, 127
2, 71744, Note_on_c, 0, 73, 123
2, 71745, Note_off_c, 0, 74, 0
2, 71808, Note_on_c, 0, 71, 118
2, 71809, Note_off_c, 0, 73, 0
2, 71840, Note_off_c, 0, 71, 0
2, 71872, Note_on_c, 0, 73, 127
2, 71904, Note_off_c, 0, 73, 0
2, 71936, Note_on_c, 0, 74, 118
2, 72422, Note_off_c, 0, 74, 0
2, 72425, Note_on_c, 0, 74, 104
2, 72448, Note_on_c, 0, 73, 104
2, 72448, Note_off_c, 0, 74, 0
2, 72512, Note_off_c, 0, 73, 0
2, 72555, Note_on_c, 0, 74, 104
2, 72576, Note_on_c, 0, 73, 104
2, 72576, Note_off_c, 0, 74, 0
2, 72640, Note_off_c, 0, 73, 0
2, 72683, Note_on_c, 0, 74, 104
2, 72704, Note_on_c, 0, 73, 104
2, 72704, Note_off_c, 0, 74, 0
2, 72768, Note_off_c, 0, 73, 0
2, 72811, Note_on_c, 0, 74, 109
2, 72832, Note_on_c, 0, 73, 109
2, 72832, Note_off_c, 0, 74, 0
2, 72896, Note_off_c, 0, 73, 0
2, 72960, Note_on_c, 0, 71, 106
2, 73344, Note_off_c, 0, 71, 0
2, 73344, Note_on_c, 0, 76, 126
2, 73472, Note_off_c, 0, 76, 0
2, 73472, Note_on_c, 0, 64, 106
2, 73472, Note_on_c, 0, 73, 106
2, 73984, Note_off_c, 0, 64, 0
2, 73984, Note_off_c, 0, 73, 0
2, 73984, Note_on_c, 0, 64, 109
2, 73984, Note_on_c, 0, 73, 109
2, 74496, Note_off_c, 0, 64, 0
2, 74496, Note_off_c, 0, 73, 0
2, 74496, Note_on_c, 0, 74, 121
2, 74560, Note_on_c, 0, 73, 117
2, 74561, Note_off_c, 0, 74, 0
2, 74624, Note_on_c, 0, 71, 101
2, 74625, Note_off_c, 0, 73, 0
2, 74656, Note_off_c, 0, 71, 0
2, 74688, Note_on_c, 0, 73, 118
2, 74720, Note_off_c, 0, 73, 0
2, 74752, Note_on_c, 0, 74, 119
2, 74816, Note_on_c, 0, 73, 116
2, 74817, Note_off_c, 0, 74, 0
2, 74880, Note_on_c, 0, 71, 103
2, 74881, Note_off_c, 0, 73, 0
2, 74912, Note_off_c, 0, 71, 0
2, 74944, Note_on_c, 0, 73, 122
2, 74976, Note_off_c, 0, 73, 0
2, 75008, Note_on_c, 0, 74, 119
2, 75494, Note_off_c, 0, 74, 0
2, 75497, Note_on_c, 0, 74, 104
2, 75520, Note_on_c, 0, 73, 104
2, 75520, Note_off_c, 0, 74, 0
2, 76009, Note_off_c, 0, 73, 0
2, 76009, Note_on_c, 0, 73, 103
2, 76032, Note_on_c, 0, 71, 103
2, 76032, Note_off_c, 0, 73, 0
2, 76139, Note_off_c, 0, 71, 0
2, 76139, Note_on_c, 0, 73, 106
2, 76160, Note_on_c, 0, 71, 106
2, 76160, Note_off_c, 0, 73, 0
2, 76267, Note_off_c, 0, 71, 0
2, 76267, Note_on_c, 0, 73, 101
2, 76288, Note_on_c, 0, 71, 101
2, 76288, Note_off_c, 0, 73, 0
2, 76395, Note_off_c, 0, 71, 0
2, 76395, Note_on_c, 0, 73, 101
2, 76416, Note_on_c, 0, 71, 101
2, 76416, Note_off_c, 0, 73, 0
2, 76544, Note_on_c, 0, 69, 94
2, 76546, Note_off_c, 0, 71, 0
2, 76756, Note_off_c, 0, 69, 0
2, 76756, Note_on_c, 0, 64, 88
2, 76779, Note_on_c, 0, 69, 88
2, 76800, Note_on_c, 0, 73, 88
2, 76800, Note_off_c, 0, 64, 0
2, 76800, Note_off_c, 0, 69, 0
2, 76982, Note_off_c, 0, 73, 0
2, 76992, Note_on_c, 0, 73, 83
2, 77056, Note_off_c, 0, 73, 0
2, 77056, Note_on_c, 0, 73, 97
2, 77568, Note_off_c, 0, 73, 0
2, 77568, Note_on_c, 0, 73, 77
2, 78080, Note_off_c, 0, 73, 0
2, 78080, Note_on_c, 0, 74, 81
2, 78144, Note_on_c, 0, 73, 77
2, 78145, Note_off_c, 0, 74, 0
2, 78208, Note_on_c, 0, 71, 77
2, 78209, Note_off_c, 0, 73, 0
2, 78240, Note_off_c, 0, 71, 0
2, 78272, Note_on_c, 0, 73, 82
2, 78304, Note_off_c, 0, 73, 0
2, 78336, Note_on_c, 0, 74, 80
2, 78400, Note_on_c, 0, 73, 76
2, 78401, Note_off_c, 0, 74, 0
2, 78464, Note_on_c, 0, 71, 78
2, 78465, Note_off_c, 0, 73, 0
2, 78496, Note_off_c, 0, 71, 0
2, 78528, Note_on_c, 0, 73, 90
2, 78560, Note_off_c, 0, 73, 0
2, 78592, Note_on_c, 0, 74, 87
2, 79078, Note_off_c, 0, 74, 0
2, 79081, Note_on_c, 0, 74, 78
2, 79104, Note_on_c, 0, 73, 78
2, 79104, Note_off_c, 0, 74, 0
2, 79211, Note_off_c, 0, 73, 0
2, 79211, Note_on_c, 0, 74, 77
2, 79232, Note_on_c, 0, 73, 77
2, 79232, Note_off_c, 0, 74, 0
2, 79339, Note_off_c, 0, 73, 0
2, 79339, Note_on_c, 0, 74, 72
2, 79360, Note_on_c, 0, 73, 72
2, 79360, Note_off_c, 0, 74, 0
2, 79467, Note_off_c, 0, 73, 0
2, 79467, Note_on_c, 0, 74, 78
2, 79488, Note_on_c, 0, 73, 78
2, 79488, Note_off_c, 0, 74, 0
2, 79616, Note_off_c, 0, 73, 0
2, 79616, Note_on_c, 0, 71, 76
2, 80000, Note_off_c, 0, 71, 0
2, 80000, Note_on_c, 0, 76, 90
2, 80128, Note_off_c, 0, 76, 0
2, 80128, Note_on_c, 0, 73, 74
2, 80640, Note_off_c, 0, 73, 0
2, 80640, Note_on_c, 0, 73, 78
2, 81152, Note_off_c, 0, 73, 0
2, 81152, Note_on_c, 0, 74, 85
2, 81216, Note_on_c, 0, 73, 83
2, 81217, Note_off_c, 0, 74, 0
2, 81280, Note_on_c, 0, 71, 74
2, 81281, Note_off_c, 0, 73, 0
2, 81312, Note_off_c, 0, 71, 0
2, 81344, Note_on_c, 0, 73, 83
2, 81376, Note_off_c, 0, 73, 0
2, 81408, Note_on_c, 0, 74, 85
2, 81472, Note_on_c, 0, 73, 86
2, 81473, Note_off_c, 0, 74, 0
2, 81536, Note_on_c, 0, 71, 77
2, 81537, Note_off_c, 0, 73, 0
2, 81568, Note_off_c, 0, 71, 0
2, 81600, Note_on_c, 0, 73, 83
2, 81632, Note_off_c, 0, 73, 0
2, 81664, Note_on_c, 0, 74, 127
2, 82150, Note_off_c, 0, 74, 0
2, 82153, Note_on_c, 0, 74, 106
2, 82176, Note_on_c, 0, 73, 106
2, 82176, Note_off_c, 0, 74, 0
2, 82662, Note_off_c, 0, 73, 0
2, 82665, Note_on_c, 0, 73, 109
2, 82688, Note_on_c, 0, 71, 109
2, 82688, Note_off_c, 0, 73, 0
2, 82795, Note_off_c, 0, 71, 0
2, 82795, Note_on_c, 0, 73, 105
2, 82816, Note_on_c, 0, 71, 105
2, 82816, Note_off_c, 0, 73, 0
2, 82923, Note_off_c, 0, 71, 0
2, 82923, Note_on_c, 0, 73, 106
2, 82944, Note_on_c, 0, 71, 106
2, 82944, Note_off_c, 0, 73, 0
2, 83051, Note_off_c, 0, 71, 0
2, 83051, Note_on_c, 0, 73, 109
2, 83072, Note_on_c, 0, 71, 109
2, 83072, Note_off_c, 0, 73, 0
2, 83200, Note_off_c, 0, 71, 0
2, 83200, Note_on_c, 0, 69, 105
2, 83584, Note_off_c, 0, 69, 0
2, 83584, Note_on_c, 0, 73, 119
2, 83712, Note_off_c, 0, 73, 0
2, 83712, Note_on_c, 0, 69, 96
2, 84096, Note_off_c, 0, 69, 0
2, 84096, Note_on_c, 0, 76, 127
2, 84224, Note_off_c, 0, 76, 0
2, 84224, Note_on_c, 0, 69, 98
2, 84608, Note_off_c, 0, 69, 0
2, 84608, Note_on_c, 0, 73, 127
2, 84736, Note_on_c, 0, 69, 118
2, 84738, Note_off_c, 0, 73, 0
2, 84796, Note_off_c, 0, 69, 0
2, 84864, Note_on_c, 0, 73, 127
2, 84929, Note_off_c, 0, 73, 0
2, 84992, Note_on_c, 0, 69, 114
2, 85052, Note_off_c, 0, 69, 0
2, 85120, Note_on_c, 0, 76, 127
2, 85185, Note_off_c, 0, 76, 0
2, 85248, Note_on_c, 0, 69, 112
2, 85369, Note_off_c, 0, 69, 0
2, 85504, Note_on_c, 0, 73, 127
2, 85504, Note_on_c, 0, 81, 127
2, 85760, Note_off_c, 0, 73, 0
2, 85760, Note_off_c, 0, 81, 0
2, 85760, Note_on_c, 0, 73, 127
2, 85760, Note_on_c, 0, 81, 127
2, 86016, Note_off_c, 0, 73, 0
2, 86016, Note_off_c, 0, 81, 0
2, 86017, End_track
3, 0, Start_track
3, 0, Program_c, 1, 42
3, 0, Control_c, 1, 121, 0
3, 0, Control_c, 1, 64, 0
3, 0, Control_c, 1, 91, 60
3, 0, Control_c, 1, 10, 95
3, 0, Control_c, 1, 7, 90
3, 0, Title_t, "Violoncello"
3, 512, Note_on_c, 1, 45, 69
3, 576, Note_off_c, 1, 45, 0
3, 640, Note_on_c, 1, 60, 100
3, 704, Note_off_c, 1, 60, 0
3, 768, Note_on_c, 1, 60, 78
3, 832, Note_off_c, 1, 60, 0
3, 896, Note_on_c, 1, 60, 78
3, 960, Note_off_c, 1, 60, 0
3, 1024, Note_on_c, 1, 45, 71
3, 1088, Note_off_c, 1, 45, 0
3, 1152, Note_on_c, 1, 60, 94
3, 1216, Note_off_c, 1, 60, 0
3, 1280, Note_on_c, 1, 60, 81
3, 1344, Note_off_c, 1, 60, 0
3, 1408, Note_on_c, 1, 60, 75
3, 1472, Note_off_c, 1, 60, 0
3, 1536, Note_on_c, 1, 45, 66
3, 1600, Note_off_c, 1, 45, 0
3, 1664, Note_on_c, 1, 60, 92
3, 1728, Note_off_c, 1, 60, 0
3, 1792, Note_on_c, 1, 60, 87
3, 1856, Note_off_c, 1, 60, 0
3, 1920, Note_on_c, 1, 60, 74
3, 1984, Note_off_c, 1, 60, 0
3, 2048, Note_on_c, 1, 45, 67
3, 2112, Note_off_c, 1, 45, 0
3, 2176, Note_on_c, 1, 60, 97
3, 2240, Note_off_c, 1, 60, 0
3, 2304, Note_on_c, 1, 60, 78
3, 2368, Note_off_c, 1, 60, 0
3, 2432, Note_on_c, 1, 60, 76
3, 2496, Note_off_c, 1, 60, 0
3, 2560, Note_on_c, 1, 40, 65
3, 2624, Note_off_c, 1, 40, 0
3, 2688, Note_on_c, 1, 55, 89
3, 2752, Note_off_c, 1, 55, 0
3, 2816, Note_on_c, 1, 55, 80
3, 2880, Note_off_c, 1, 55, 0
3, 2944, Note_on_c, 1, 55, 76
3, 3008, Note_off_c, 1, 55, 0
3, 3072, Note_on_c, 1, 40, 68
3, 3136, Note_off_c, 1, 40, 0
3, 3200, Note_on_c, 1, 55, 82
3, 3264, Note_off_c, 1, 55, 0
3, 3328, Note_on_c, 1, 55, 77
3, 3392, Note_off_c, 1, 55, 0
3, 3456, Note_on_c, 1, 55, 75
3, 3520, Note_off_c, 1, 55, 0
3, 3584, Note_on_c, 1, 40, 64
3, 3648, Note_off_c, 1, 40, 0
3, 3840, Note_on_c, 1, 47, 67
3, 3904, Note_off_c, 1, 47, 0
3, 4096, Note_on_c, 1, 40, 66
3, 4160, Note_off_c, 1, 40, 0
3, 4864, Note_on_c, 1, 45, 69
3, 4928, Note_off_c, 1, 45, 0
3, 4992, Note_on_c, 1, 60, 92
3, 5056, Note_off_c, 1, 60, 0
3, 5120, Note_on_c, 1, 60, 78
3, 5184, Note_off_c, 1, 60, 0
3, 5248, Note_on_c, 1, 60, 74
3, 5312, Note_off_c, 1, 60, 0
3, 5376, Note_on_c, 1, 45, 66
3, 5440, Note_off_c, 1, 45, 0
3, 5504, Note_on_c, 1, 60, 98
3, 5568, Note_off_c, 1, 60, 0
3, 5632, Note_on_c, 1, 60, 79
3, 5696, Note_off_c, 1, 60, 0
3, 5760, Note_on_c, 1, 60, 77
3, 5824, Note_off_c, 1, 60, 0
3, 5888, Note_on_c, 1, 45, 64
3, 5952, Note_off_c, 1, 45, 0
3, 6016, Note_on_c, 1, 60, 96
3, 6080, Note_off_c, 1, 60, 0
3, 6144, Note_on_c, 1, 60, 82
3, 6208, Note_off_c, 1, 60, 0
3, 6272, Note_on_c, 1, 60, 75
3, 6336, Note_off_c, 1, 60, 0
3, 6400, Note_on_c, 1, 45, 69
3, 6464, Note_off_c, 1, 45, 0
3, 6528, Note_on_c, 1, 60, 96
3, 6592, Note_off_c, 1, 60, 0
3, 6656, Note_on_c, 1, 60, 81
3, 6720, Note_off_c, 1, 60, 0
3, 6784, Note_on_c, 1, 60, 76
3, 6848, Note_off_c, 1, 60, 0
3, 6912, Note_on_c, 1, 40, 66
3, 6976, Note_off_c, 1, 40, 0
3, 7040, Note_on_c, 1, 55, 88
3, 7104, Note_off_c, 1, 55, 0
3, 7168, Note_on_c, 1, 55, 79
3, 7232, Note_off_c, 1, 55, 0
3, 7296, Note_on_c, 1, 55, 75
3, 7360, Note_off_c, 1, 55, 0
3, 7424, Note_on_c, 1, 40, 71
3, 7488, Note_off_c, 1, 40, 0
3, 7552, Note_on_c, 1, 55, 87
3, 7616, Note_off_c, 1, 55, 0
3, 7680, Note_on_c, 1, 55, 79
3, 7744, Note_off_c, 1, 55, 0
3, 7808, Note_on_c, 1, 55, 77
3, 7872, Note_off_c, 1, 55, 0
3, 7936, Note_on_c, 1, 40, 66
3, 8000, Note_off_c, 1, 40, 0
3, 8192, Note_on_c, 1, 47, 64
3, 8256, Note_off_c, 1, 47, 0
3, 8448, Note_on_c, 1, 40, 68
3, 8512, Note_off_c, 1, 40, 0
3, 8960, Note_on_c, 1, 48, 67
3, 9024, Note_off_c, 1, 48, 0
3, 9088, Note_on_c, 1, 60, 99
3, 9152, Note_off_c, 1, 60, 0
3, 9216, Note_on_c, 1, 52, 75
3, 9280, Note_off_c, 1, 52, 0
3, 9344, Note_on_c, 1, 60, 91
3, 9408, Note_off_c, 1, 60, 0
3, 9472, Note_on_c, 1, 55, 73
3, 9728, Note_off_c, 1, 55, 0
3, 9984, Note_on_c, 1, 48, 67
3, 10048, Note_off_c, 1, 48, 0
3, 10112, Note_on_c, 1, 60, 98
3, 10176, Note_off_c, 1, 60, 0
3, 10240, Note_on_c, 1, 52, 74
3, 10304, Note_off_c, 1, 52, 0
3, 10368, Note_on_c, 1, 60, 88
3, 10432, Note_off_c, 1, 60, 0
3, 10496, Note_on_c, 1, 55, 75
3, 10752, Note_off_c, 1, 55, 0
3, 11008, Note_on_c, 1, 45, 71
3, 11072, Note_off_c, 1, 45, 0
3, 11136, Note_on_c, 1, 57, 86
3, 11200, Note_off_c, 1, 57, 0
3, 11264, Note_on_c, 1, 48, 67
3, 11328, Note_off_c, 1, 48, 0
3, 11392, Note_on_c, 1, 57, 81
3, 11456, Note_off_c, 1, 57, 0
3, 11520, Note_on_c, 1, 52, 70
3, 11776, Note_off_c, 1, 52, 0
3, 12032, Note_on_c, 1, 45, 69
3, 12096, Note_off_c, 1, 45, 0
3, 12160, Note_on_c, 1, 57, 91
3, 12224, Note_off_c, 1, 57, 0
3, 12288, Note_on_c, 1, 48, 69
3, 12352, Note_off_c, 1, 48, 0
3, 12416, Note_on_c, 1, 57, 86
3, 12480, Note_off_c, 1, 57, 0
3, 12544, Note_on_c, 1, 52, 70
3, 12800, Note_off_c, 1, 52, 0
3, 13056, Note_on_c, 1, 45, 65
3, 13184, Note_off_c, 1, 45, 0
3, 13184, Note_on_c, 1, 60, 93
3, 13312, Note_off_c, 1, 60, 0
3, 13312, Note_on_c, 1, 60, 78
3, 13440, Note_off_c, 1, 60, 0
3, 13440, Note_on_c, 1, 60, 78
3, 13568, Note_off_c, 1, 60, 0
3, 13568, Note_on_c, 1, 45, 60
3, 13696, Note_off_c, 1, 45, 0
3, 13696, Note_on_c, 1, 60, 93
3, 13824, Note_off_c, 1, 60, 0
3, 13824, Note_on_c, 1, 60, 80
3, 13952, Note_off_c, 1, 60, 0
3, 13952, Note_on_c, 1, 60, 79
3, 14080, Note_off_c, 1, 60, 0
3, 14080, Note_on_c, 1, 45, 66
3, 14208, Note_off_c, 1, 45, 0
3, 14208, Note_on_c, 1, 60, 94
3, 14336, Note_off_c, 1, 60, 0
3, 14336, Note_on_c, 1, 60, 77
3, 14464, Note_off_c, 1, 60, 0
3, 14464, Note_on_c, 1, 60, 77
3, 14592, Note_off_c, 1, 60, 0
3, 14592, Note_on_c, 1, 41, 69
3, 14720, Note_off_c, 1, 41, 0
3, 14720, Note_on_c, 1, 57, 86
3, 14848, Note_off_c, 1, 57, 0
3, 14848, Note_on_c, 1, 57, 80
3, 14976, Note_off_c, 1, 57, 0
3, 14976, Note_on_c, 1, 57, 76
3, 15104, Note_off_c, 1, 57, 0
3, 15104, Note_on_c, 1, 52, 71
3, 15232, Note_off_c, 1, 52, 0
3, 15232, Note_on_c, 1, 57, 79
3, 15360, Note_off_c, 1, 57, 0
3, 15360, Note_on_c, 1, 50, 71
3, 15488, Note_off_c, 1, 50, 0
3, 15488, Note_on_c, 1, 59, 86
3, 15616, Note_off_c, 1, 59, 0
3, 15616, Note_on_c, 1, 48, 68
3, 15744, Note_off_c, 1, 48, 0
3, 15744, Note_on_c, 1, 57, 85
3, 15872, Note_off_c, 1, 57, 0
3, 15872, Note_on_c, 1, 50, 75
3, 16000, Note_off_c, 1, 50, 0
3, 16000, Note_on_c, 1, 59, 85
3, 16128, Note_off_c, 1, 59, 0
3, 16128, Note_on_c, 1, 52, 73
3, 16256, Note_off_c, 1, 52, 0
3, 16256, Note_on_c, 1, 57, 79
3, 16384, Note_off_c, 1, 57, 0
3, 16384, Note_on_c, 1, 52, 71
3, 16512, Note_off_c, 1, 52, 0
3, 16512, Note_on_c, 1, 40, 66
3, 16640, Note_off_c, 1, 40, 0
3, 16640, Note_on_c, 1, 45, 80
3, 16896, Note_off_c, 1, 45, 0
3, 17152, Note_on_c, 1, 45, 66
3, 17152, Note_on_c, 1, 52, 66
3, 17280, Note_off_c, 1, 45, 0
3, 17280, Note_off_c, 1, 52, 0
3, 17280, Note_on_c, 1, 45, 77
3, 17280, Note_on_c, 1, 52, 77
3, 17408, Note_off_c, 1, 45, 0
3, 17408, Note_off_c, 1, 52, 0
3, 17408, Note_on_c, 1, 45, 75
3, 17408, Note_on_c, 1, 52, 75
3, 17536, Note_off_c, 1, 45, 0
3, 17536, Note_off_c, 1, 52, 0
3, 17536, Note_on_c, 1, 45, 74
3, 17536, Note_on_c, 1, 52, 74
3, 17664, Note_off_c, 1, 45, 0
3, 17664, Note_off_c, 1, 52, 0
3, 17664, Note_on_c, 1, 45, 78
3, 17664, Note_on_c, 1, 52, 78
3, 17792, Note_off_c, 1, 45, 0
3, 17792, Note_off_c, 1, 52, 0
3, 17792, Note_on_c, 1, 45, 77
3, 17792, Note_on_c, 1, 52, 77
3, 17920, Note_off_c, 1, 45, 0
3, 17920, Note_off_c, 1, 52, 0
3, 17920, Note_on_c, 1, 45, 79
3, 17920, Note_on_c, 1, 52, 79
3, 18048, Note_off_c, 1, 45, 0
3, 18048, Note_off_c, 1, 52, 0
3, 18048, Note_on_c, 1, 45, 71
3, 18048, Note_on_c, 1, 52, 71
3, 18176, Note_off_c, 1, 45, 0
3, 18176, Note_off_c, 1, 52, 0
3, 18176, Note_on_c, 1, 50, 74
3, 18304, Note_off_c, 1, 50, 0
3, 18304, Note_on_c, 1, 50, 76
3, 18432, Note_off_c, 1, 50, 0
3, 18432, Note_on_c, 1, 51, 79
3, 18560, Note_off_c, 1, 51, 0
3, 18560, Note_on_c, 1, 51, 79
3, 18688, Note_off_c, 1, 51, 0
3, 18688, Note_on_c, 1, 52, 87
3, 18816, Note_off_c, 1, 52, 0
3, 18816, Note_on_c, 1, 52, 75
3, 18944, Note_off_c, 1, 52, 0
3, 18944, Note_on_c, 1, 52, 80
3, 19072, Note_off_c, 1, 52, 0
3, 19072, Note_on_c, 1, 52, 79
3, 19200, Note_off_c, 1, 52, 0
3, 19200, Note_on_c, 1, 45, 77
3, 19200, Note_on_c, 1, 52, 77
3, 19328, Note_off_c, 1, 45, 0
3, 19328, Note_off_c, 1, 52, 0
3, 19328, Note_on_c, 1, 45, 74
3, 19328, Note_on_c, 1, 52, 74
3, 19456, Note_off_c, 1, 45, 0
3, 19456, Note_off_c, 1, 52, 0
3, 19456, Note_on_c, 1, 45, 79
3, 19456, Note_on_c, 1, 52, 79
3, 19584, Note_off_c, 1, 45, 0
3, 19584, Note_off_c, 1, 52, 0
3, 19584, Note_on_c, 1, 45, 78
3, 19584, Note_on_c, 1, 52, 78
3, 19712, Note_off_c, 1, 45, 0
3, 19712, Note_off_c, 1, 52, 0
3, 19712, Note_on_c, 1, 45, 75
3, 19712, Note_on_c, 1, 52, 75
3, 19840, Note_off_c, 1, 45, 0
3, 19840, Note_off_c, 1, 52, 0
3, 19840, Note_on_c, 1, 45, 72
3, 19840, Note_on_c, 1, 52, 72
3, 19968, Note_off_c, 1, 45, 0
3, 19968, Note_off_c, 1, 52, 0
3, 19968, Note_on_c, 1, 45, 79
3, 19968, Note_on_c, 1, 52, 79
3, 20096, Note_off_c, 1, 45, 0
3, 20096, Note_off_c, 1, 52, 0
3, 20096, Note_on_c, 1, 45, 74
3, 20096, Note_on_c, 1, 52, 74
3, 20224, Note_off_c, 1, 45, 0
3, 20224, Note_off_c, 1, 52, 0
3, 20224, Note_on_c, 1, 50, 70
3, 20352, Note_off_c, 1, 50, 0
3, 20352, Note_on_c, 1, 50, 75
3, 20480, Note_off_c, 1, 50, 0
3, 20480, Note_on_c, 1, 52, 78
3, 20608, Note_off_c, 1, 52, 0
3, 20608, Note_on_c, 1, 52, 78
3, 20736, Note_off_c, 1, 52, 0
3, 20736, Note_on_c, 1, 45, 69
3, 20992, Note_off_c, 1, 45, 0
3, 21248, Note_on_c, 1, 45, 66
3, 21248, Note_on_c, 1, 52, 66
3, 21376, Note_off_c, 1, 45, 0
3, 21376, Note_off_c, 1, 52, 0
3, 21376, Note_on_c, 1, 45, 72
3, 21376, Note_on_c, 1, 52, 72
3, 21504, Note_off_c, 1, 45, 0
3, 21504, Note_off_c, 1, 52, 0
3, 21504, Note_on_c, 1, 45, 79
3, 21504, Note_on_c, 1, 52, 79
3, 21632, Note_off_c, 1, 45, 0
3, 21632, Note_off_c, 1, 52, 0
3, 21632, Note_on_c, 1, 45, 78
3, 21632, Note_on_c, 1, 52, 78
3, 21760, Note_off_c, 1, 45, 0
3, 21760, Note_off_c, 1, 52, 0
3, 21760, Note_on_c, 1, 45, 76
3, 21760, Note_on_c, 1, 52, 76
3, 21888, Note_off_c, 1, 45, 0
3, 21888, Note_off_c, 1, 52, 0
3, 21888, Note_on_c, 1, 45, 77
3, 21888, Note_on_c, 1, 52, 77
3, 22016, Note_off_c, 1, 45, 0
3, 22016, Note_off_c, 1, 52, 0
3, 22016, Note_on_c, 1, 45, 76
3, 22016, Note_on_c, 1, 52, 76
3, 22144, Note_off_c, 1, 45, 0
3, 22144, Note_off_c, 1, 52, 0
3, 22144, Note_on_c, 1, 45, 74
3, 22144, Note_on_c, 1, 52, 74
3, 22272, Note_off_c, 1, 45, 0
3, 22272, Note_off_c, 1, 52, 0
3, 22272, Note_on_c, 1, 50, 76
3, 22400, Note_off_c, 1, 50, 0
3, 22400, Note_on_c, 1, 50, 78
3, 22528, Note_off_c, 1, 50, 0
3, 22528, Note_on_c, 1, 51, 77
3, 22656, Note_off_c, 1, 51, 0
3, 22656, Note_on_c, 1, 51, 70
3, 22784, Note_off_c, 1, 51, 0
3, 22784, Note_on_c, 1, 52, 74
3, 22912, Note_off_c, 1, 52, 0
3, 22912, Note_on_c, 1, 52, 79
3, 23040, Note_off_c, 1, 52, 0
3, 23040, Note_on_c, 1, 52, 75
3, 23168, Note_off_c, 1, 52, 0
3, 23168, Note_on_c, 1, 52, 75
3, 23296, Note_off_c, 1, 52, 0
3, 23296, Note_on_c, 1, 45, 72
3, 23296, Note_on_c, 1, 52, 72
3, 23424, Note_off_c, 1, 45, 0
3, 23424, Note_off_c, 1, 52, 0
3, 23424, Note_on_c, 1, 45, 78
3, 23424, Note_on_c, 1, 52, 78
3, 23552, Note_off_c, 1, 45, 0
3, 23552, Note_off_c, 1, 52, 0
3, 23552, Note_on_c, 1, 45, 79
3, 23552, Note_on_c, 1, 52, 79
3, 23680, Note_off_c, 1, 45, 0
3, 23680, Note_off_c, 1, 52, 0
3, 23680, Note_on_c, 1, 45, 73
3, 23680, Note_on_c, 1, 52, 73
3, 23808, Note_off_c, 1, 45, 0
3, 23808, Note_off_c, 1, 52, 0
3, 23808, Note_on_c, 1, 45, 76
3, 23808, Note_on_c, 1, 52, 76
3, 23936, Note_off_c, 1, 45, 0
3, 23936, Note_off_c, 1, 52, 0
3, 23936, Note_on_c, 1, 45, 77
3, 23936, Note_on_c, 1, 52, 77
3, 24064, Note_off_c, 1, 45, 0
3, 24064, Note_off_c, 1, 52, 0
3, 24064, Note_on_c, 1, 45, 77
3, 24064, Note_on_c, 1, 52, 77
3, 24192, Note_off_c, 1, 45, 0
3, 24192, Note_off_c, 1, 52, 0
3, 24192, Note_on_c, 1, 45, 72
3, 24192, Note_on_c, 1, 52, 72
3, 24320, Note_off_c, 1, 45, 0
3, 24320, Note_off_c, 1, 52, 0
3, 24320, Note_on_c, 1, 50, 75
3, 24448, Note_off_c, 1, 50, 0
3, 24448, Note_on_c, 1, 50, 77
3, 24576, Note_off_c, 1, 50, 0
3, 24576, Note_on_c, 1, 52, 78
3, 24704, Note_off_c, 1, 52, 0
3, 24704, Note_on_c, 1, 52, 76
3, 24832, Note_off_c, 1, 52, 0
3, 24832, Note_on_c, 1, 45, 70
3, 25088, Note_off_c, 1, 45, 0
3, 25344, Note_on_c, 1, 54, 66
3, 25472, Note_off_c, 1, 54, 0
3, 25472, Note_on_c, 1, 57, 80
3, 25600, Note_off_c, 1, 57, 0
3, 25600, Note_on_c, 1, 57, 76
3, 25728, Note_off_c, 1, 57, 0
3, 25728, Note_on_c, 1, 57, 75
3, 25856, Note_off_c, 1, 57, 0
3, 25856, Note_on_c, 1, 56, 74
3, 25984, Note_off_c, 1, 56, 0
3, 25984, Note_on_c, 1, 59, 78
3, 26112, Note_off_c, 1, 59, 0
3, 26112, Note_on_c, 1, 59, 74
3, 26240, Note_off_c, 1, 59, 0
3, 26240, Note_on_c, 1, 59, 78
3, 26368, Note_off_c, 1, 59, 0
3, 26368, Note_on_c, 1, 54, 74
3, 26496, Note_off_c, 1, 54, 0
3, 26496, Note_on_c, 1, 57, 79
3, 26624, Note_off_c, 1, 57, 0
3, 26624, Note_on_c, 1, 57, 75
3, 26752, Note_off_c, 1, 57, 0
3, 26752, Note_on_c, 1, 57, 77
3, 26880, Note_off_c, 1, 57, 0
3, 26880, Note_on_c, 1, 53, 75
3, 27008, Note_off_c, 1, 53, 0
3, 27008, Note_on_c, 1, 56, 78
3, 27136, Note_off_c, 1, 56, 0
3, 27136, Note_on_c, 1, 56, 75
3, 27264, Note_off_c, 1, 56, 0
3, 27264, Note_on_c, 1, 56, 75
3, 27392, Note_off_c, 1, 56, 0
3, 27392, Note_on_c, 1, 54, 72
3, 27520, Note_off_c, 1, 54, 0
3, 27520, Note_on_c, 1, 57, 76
3, 27648, Note_off_c, 1, 57, 0
3, 27648, Note_on_c, 1, 57, 75
3, 27776, Note_off_c, 1, 57, 0
3, 27776, Note_on_c, 1, 57, 75
3, 27904, Note_off_c, 1, 57, 0
3, 27904, Note_on_c, 1, 56, 72
3, 28032, Note_off_c, 1, 56, 0
3, 28032, Note_on_c, 1, 61, 85
3, 28160, Note_off_c, 1, 61, 0
3, 28160, Note_on_c, 1, 61, 77
3, 28288, Note_off_c, 1, 61, 0
3, 28288, Note_on_c, 1, 61, 77
3, 28416, Note_off_c, 1, 61, 0
3, 28416, Note_on_c, 1, 56, 73
3, 28544, Note_off_c, 1, 56, 0
3, 28544, Note_on_c, 1, 63, 88
3, 28672, Note_off_c, 1, 63, 0
3, 28672, Note_on_c, 1, 63, 81
3, 28800, Note_off_c, 1, 63, 0
3, 28800, Note_on_c, 1, 63, 77
3, 28928, Note_off_c, 1, 63, 0
3, 28928, Note_on_c, 1, 61, 75
3, 29056, Note_off_c, 1, 61, 0
3, 29440, Note_on_c, 1, 57, 68
3, 29568, Note_off_c, 1, 57, 0
3, 29568, Note_on_c, 1, 61, 85
3, 29696, Note_off_c, 1, 61, 0
3, 29696, Note_on_c, 1, 61, 76
3, 29824, Note_off_c, 1, 61, 0
3, 29824, Note_on_c, 1, 61, 76
3, 29952, Note_off_c, 1, 61, 0
3, 29952, Note_on_c, 1, 59, 79
3, 30080, Note_off_c, 1, 59, 0
3, 30080, Note_on_c, 1, 62, 81
3, 30208, Note_off_c, 1, 62, 0
3, 30208, Note_on_c, 1, 56, 72
3, 30336, Note_off_c, 1, 56, 0
3, 30336, Note_on_c, 1, 62, 89
3, 30464, Note_off_c, 1, 62, 0
3, 30464, Note_on_c, 1, 57, 78
3, 30592, Note_off_c, 1, 57, 0
3, 30592, Note_on_c, 1, 61, 89
3, 30720, Note_off_c, 1, 61, 0
3, 30720, Note_on_c, 1, 61, 78
3, 30848, Note_off_c, 1, 61, 0
3, 30848, Note_on_c, 1, 61, 78
3, 30976, Note_off_c, 1, 61, 0
3, 30976, Note_on_c, 1, 52, 67
3, 31104, Note_off_c, 1, 52, 0
3, 31104, Note_on_c, 1, 56, 75
3, 31232, Note_off_c, 1, 56, 0
3, 31232, Note_on_c, 1, 56, 71
3, 31360, Note_off_c, 1, 56, 0
3, 31360, Note_on_c, 1, 56, 77
3, 31488, Note_off_c, 1, 56, 0
3, 31488, Note_on_c, 1, 57, 79
3, 31616, Note_off_c, 1, 57, 0
3, 31616, Note_on_c, 1, 61, 79
3, 31744, Note_off_c, 1, 61, 0
3, 31744, Note_on_c, 1, 61, 81
3, 31872, Note_off_c, 1, 61, 0
3, 31872, Note_on_c, 1, 61, 70
3, 32000, Note_off_c, 1, 61, 0
3, 32000, Note_on_c, 1, 59, 76
3, 32128, Note_off_c, 1, 59, 0
3, 32128, Note_on_c, 1, 62, 81
3, 32256, Note_off_c, 1, 62, 0
3, 32256, Note_on_c, 1, 56, 74
3, 32384, Note_off_c, 1, 56, 0
3, 32384, Note_on_c, 1, 62, 86
3, 32512, Note_off_c, 1, 62, 0
3, 32512, Note_on_c, 1, 57, 76
3, 32640, Note_off_c, 1, 57, 0
3, 32640, Note_on_c, 1, 54, 72
3, 32768, Note_off_c, 1, 54, 0
3, 32768, Note_on_c, 1, 50, 71
3, 32896, Note_off_c, 1, 50, 0
3, 32896, Note_on_c, 1, 52, 80
3, 33024, Note_off_c, 1, 52, 0
3, 33024, Note_on_c, 1, 45, 69
3, 33152, Note_off_c, 1, 45, 0
3, 33280, Note_on_c, 1, 61, 43
3, 33344, Note_on_c, 1, 62, 49
3, 33345, Note_off_c, 1, 61, 0
3, 33408, Note_on_c, 1, 61, 46
3, 33409, Note_off_c, 1, 62, 0
3, 33472, Note_on_c, 1, 59, 46
3, 33473, Note_off_c, 1, 61, 0
3, 33536, Note_on_c, 1, 57, 48
3, 33537, Note_off_c, 1, 59, 0
3, 33600, Note_on_c, 1, 59, 46
3, 33601, Note_off_c, 1, 57, 0
3, 33664, Note_on_c, 1, 57, 47
3, 33665, Note_off_c, 1, 59, 0
3, 33728, Note_on_c, 1, 56, 42
3, 33729, Note_off_c, 1, 57, 0
3, 33792, Note_on_c, 1, 54, 48
3, 33793, Note_off_c, 1, 56, 0
3, 33856, Note_on_c, 1, 57, 52
3, 33857, Note_off_c, 1, 54, 0
3, 33920, Note_on_c, 1, 56, 45
3, 33921, Note_off_c, 1, 57, 0
3, 33984, Note_on_c, 1, 54, 43
3, 33985, Note_off_c, 1, 56, 0
3, 34048, Note_on_c, 1, 53, 45
3, 34049, Note_off_c, 1, 54, 0
3, 34112, Note_on_c, 1, 54, 46
3, 34113, Note_off_c, 1, 53, 0
3, 34176, Note_on_c, 1, 56, 50
3, 34177, Note_off_c, 1, 54, 0
3, 34240, Note_on_c, 1, 53, 50
3, 34241, Note_off_c, 1, 56, 0
3, 34304, Note_on_c, 1, 49, 46
3, 34305, Note_off_c, 1, 53, 0
3, 34365, Note_off_c, 1, 49, 0
3, 34368, Note_on_c, 1, 51, 51
3, 34432, Note_on_c, 1, 53, 55
3, 34433, Note_off_c, 1, 51, 0
3, 34496, Note_on_c, 1, 49, 47
3, 34497, Note_off_c, 1, 53, 0
3, 34560, Note_on_c, 1, 54, 50
3, 34561, Note_off_c, 1, 49, 0
3, 34624, Note_on_c, 1, 53, 55
3, 34625, Note_off_c, 1, 54, 0
3, 34688, Note_on_c, 1, 54, 57
3, 34689, Note_off_c, 1, 53, 0
3, 34752, Note_on_c, 1, 56, 59
3, 34753, Note_off_c, 1, 54, 0
3, 34816, Note_on_c, 1, 57, 65
3, 34817, Note_off_c, 1, 56, 0
3, 34880, Note_on_c, 1, 56, 65
3, 34881, Note_off_c, 1, 57, 0
3, 34944, Note_on_c, 1, 57, 69
3, 34945, Note_off_c, 1, 56, 0
3, 35008, Note_on_c, 1, 59, 72
3, 35009, Note_off_c, 1, 57, 0
3, 35072, Note_on_c, 1, 61, 81
3, 35073, Note_off_c, 1, 59, 0
3, 35136, Note_on_c, 1, 60, 80
3, 35137, Note_off_c, 1, 61, 0
3, 35200, Note_on_c, 1, 61, 82
3, 35201, Note_off_c, 1, 60, 0
3, 35264, Note_on_c, 1, 60, 78
3, 35265, Note_off_c, 1, 61, 0
3, 35328, Note_on_c, 1, 61, 100
3, 35329, Note_off_c, 1, 60, 0
3, 35389, Note_off_c, 1, 61, 0
3, 35392, Note_on_c, 1, 60, 91
3, 35456, Note_on_c, 1, 61, 98
3, 35457, Note_off_c, 1, 60, 0
3, 35520, Note_on_c, 1, 58, 97
3, 35521, Note_off_c, 1, 61, 0
3, 35584, Note_on_c, 1, 62, 106
3, 35585, Note_off_c, 1, 58, 0
3, 35648, Note_on_c, 1, 61, 94
3, 35649, Note_off_c, 1, 62, 0
3, 35712, Note_on_c, 1, 62, 97
3, 35713, Note_off_c, 1, 61, 0
3, 35776, Note_on_c, 1, 61, 92
3, 35777, Note_off_c, 1, 62, 0
3, 35840, Note_on_c, 1, 62, 92
3, 35841, Note_off_c, 1, 61, 0
3, 35904, Note_on_c, 1, 61, 91
3, 35905, Note_off_c, 1, 62, 0
3, 35968, Note_on_c, 1, 62, 95
3, 35969, Note_off_c, 1, 61, 0
3, 36032, Note_on_c, 1, 61, 102
3, 36033, Note_off_c, 1, 62, 0
3, 36096, Note_on_c, 1, 62, 108
3, 36097, Note_off_c, 1, 61, 0
3, 36160, Note_on_c, 1, 61, 92
3, 36161, Note_off_c, 1, 62, 0
3, 36224, Note_on_c, 1, 59, 93
3, 36225, Note_off_c, 1, 61, 0
3, 36288, Note_on_c, 1, 57, 93
3, 36289, Note_off_c, 1, 59, 0
3, 36352, Note_on_c, 1, 56, 89
3, 36353, Note_off_c, 1, 57, 0
3, 36416, Note_on_c, 1, 57, 102
3, 36417, Note_off_c, 1, 56, 0
3, 36480, Note_on_c, 1, 59, 108
3, 36481, Note_off_c, 1, 57, 0
3, 36544, Note_on_c, 1, 56, 95
3, 36545, Note_off_c, 1, 59, 0
3, 36608, Note_on_c, 1, 57, 93
3, 36609, Note_off_c, 1, 56, 0
3, 36672, Note_on_c, 1, 59, 100
3, 36673, Note_off_c, 1, 57, 0
3, 36736, Note_on_c, 1, 61, 105
3, 36737, Note_off_c, 1, 59, 0
3, 36800, Note_on_c, 1, 54, 90
3, 36801, Note_off_c, 1, 61, 0
3, 36864, Note_on_c, 1, 53, 82
3, 36865, Note_off_c, 1, 54, 0
3, 36928, Note_on_c, 1, 54, 98
3, 36929, Note_off_c, 1, 53, 0
3, 36992, Note_on_c, 1, 56, 99
3, 36993, Note_off_c, 1, 54, 0
3, 37056, Note_on_c, 1, 53, 91
3, 37057, Note_off_c, 1, 56, 0
3, 37120, Note_on_c, 1, 54, 93
3, 37121, Note_off_c, 1, 53, 0
3, 37363, Note_off_c, 1, 54, 0
3, 37632, Note_on_c, 1, 45, 85
3, 37632, Note_on_c, 1, 52, 85
3, 37760, Note_off_c, 1, 45, 0
3, 37760, Note_off_c, 1, 52, 0
3, 37760, Note_on_c, 1, 45, 92
3, 37760, Note_on_c, 1, 52, 92
3, 37888, Note_off_c, 1, 45, 0
3, 37888, Note_off_c, 1, 52, 0
3, 37888, Note_on_c, 1, 45, 95
3, 37888, Note_on_c, 1, 52, 95
3, 38016, Note_off_c, 1, 45, 0
3, 38016, Note_off_c, 1, 52, 0
3, 38016, Note_on_c, 1, 45, 98
3, 38016, Note_on_c, 1, 52, 98
3, 38144, Note_off_c, 1, 45, 0
3, 38144, Note_off_c, 1, 52, 0
3, 38144, Note_on_c, 1, 45, 94
3, 38144, Note_on_c, 1, 52, 94
3, 38272, Note_off_c, 1, 45, 0
3, 38272, Note_off_c, 1, 52, 0
3, 38272, Note_on_c, 1, 45, 96
3, 38272, Note_on_c, 1, 52, 96
3, 38400, Note_off_c, 1, 45, 0
3, 38400, Note_off_c, 1, 52, 0
3, 38400, Note_on_c, 1, 45, 98
3, 38400, Note_on_c, 1, 52, 98
3, 38528, Note_off_c, 1, 45, 0
3, 38528, Note_off_c, 1, 52, 0
3, 38528, Note_on_c, 1, 45, 96
3, 38528, Note_on_c, 1, 52, 96
3, 38656, Note_off_c, 1, 45, 0
3, 38656, Note_off_c, 1, 52, 0
3, 38656, Note_on_c, 1, 50, 95
3, 38784, Note_off_c, 1, 50, 0
3, 38784, Note_on_c, 1, 50, 93
3, 38912, Note_off_c, 1, 50, 0
3, 38912, Note_on_c, 1, 51, 99
3, 39040, Note_off_c, 1, 51, 0
3, 39040, Note_on_c, 1, 51, 95
3, 39168, Note_off_c, 1, 51, 0
3, 39168, Note_on_c, 1, 52, 103
3, 39296, Note_off_c, 1, 52, 0
3, 39296, Note_on_c, 1, 52, 95
3, 39424, Note_off_c, 1, 52, 0
3, 39424, Note_on_c, 1, 52, 92
3, 39552, Note_off_c, 1, 52, 0
3, 39552, Note_on_c, 1, 52, 100
3, 39680, Note_off_c, 1, 52, 0
3, 39680, Note_on_c, 1, 45, 98
3, 39680, Note_on_c, 1, 52, 98
3, 39808, Note_off_c, 1, 45, 0
3, 39808, Note_off_c, 1, 52, 0
3, 39808, Note_on_c, 1, 45, 98
3, 39808, Note_on_c, 1, 52, 98
3, 39936, Note_off_c, 1, 45, 0
3, 39936, Note_off_c, 1, 52, 0
3, 39936, Note_on_c, 1, 45, 96
3, 39936, Note_on_c, 1, 52, 96
3, 40064, Note_off_c, 1, 45, 0
3, 40064, Note_off_c, 1, 52, 0
3, 40064, Note_on_c, 1, 45, 97
3, 40064, Note_on_c, 1, 52, 97
3, 40192, Note_off_c, 1, 45, 0
3, 40192, Note_off_c, 1, 52, 0
3, 40192, Note_on_c, 1, 45, 100
3, 40192, Note_on_c, 1, 52, 100
3, 40320, Note_off_c, 1, 45, 0
3, 40320, Note_off_c, 1, 52, 0
3, 40320, Note_on_c, 1, 45, 97
3, 40320, Note_on_c, 1, 52, 97
3, 40448, Note_off_c, 1, 45, 0
3, 40448, Note_off_c, 1, 52, 0
3, 40448, Note_on_c, 1, 45, 100
3, 40448, Note_on_c, 1, 52, 100
3, 40576, Note_off_c, 1, 45, 0
3, 40576, Note_off_c, 1, 52, 0
3, 40576, Note_on_c, 1, 45, 95
3, 40576, Note_on_c, 1, 52, 95
3, 40704, Note_off_c, 1, 45, 0
3, 40704, Note_off_c, 1, 52, 0
3, 40704, Note_on_c, 1, 50, 93
3, 40832, Note_off_c, 1, 50, 0
3, 40832, Note_on_c, 1, 50, 98
3, 40960, Note_off_c, 1, 50, 0
3, 40960, Note_on_c, 1, 52, 106
3, 41088, Note_off_c, 1, 52, 0
3, 41088, Note_on_c, 1, 52, 99
3, 41216, Note_off_c, 1, 52, 0
3, 41216, Note_on_c, 1, 45, 86
3, 41472, Note_off_c, 1, 45, 0
3, 41728, Note_on_c, 1, 45, 90
3, 41728, Note_on_c, 1, 52, 90
3, 41856, Note_off_c, 1, 45, 0
3, 41856, Note_off_c, 1, 52, 0
3, 41856, Note_on_c, 1, 45, 99
3, 41856, Note_on_c, 1, 52, 99
3, 41984, Note_off_c, 1, 45, 0
3, 41984, Note_off_c, 1, 52, 0
3, 41984, Note_on_c, 1, 45, 94
3, 41984, Note_on_c, 1, 52, 94
3, 42112, Note_off_c, 1, 45, 0
3, 42112, Note_off_c, 1, 52, 0
3, 42112, Note_on_c, 1, 45, 96
3, 42112, Note_on_c, 1, 52, 96
3, 42240, Note_off_c, 1, 45, 0
3, 42240, Note_off_c, 1, 52, 0
3, 42240, Note_on_c, 1, 45, 95
3, 42240, Note_on_c, 1, 52, 95
3, 42368, Note_off_c, 1, 45, 0
3, 42368, Note_off_c, 1, 52, 0
3, 42368, Note_on_c, 1, 45, 95
3, 42368, Note_on_c, 1, 52, 95
3, 42496, Note_off_c, 1, 45, 0
3, 42496, Note_off_c, 1, 52, 0
3, 42496, Note_on_c, 1, 45, 97
3, 42496, Note_on_c, 1, 52, 97
3, 42624, Note_off_c, 1, 45, 0
3, 42624, Note_off_c, 1, 52, 0
3, 42624, Note_on_c, 1, 45, 96
3, 42624, Note_on_c, 1, 52, 96
3, 42752, Note_off_c, 1, 45, 0
3, 42752, Note_off_c, 1, 52, 0
3, 42752, Note_on_c, 1, 50, 97
3, 42880, Note_off_c, 1, 50, 0
3, 42880, Note_on_c, 1, 50, 99
3, 43008, Note_off_c, 1, 50, 0
3, 43008, Note_on_c, 1, 51, 96
3, 43136, Note_off_c, 1, 51, 0
3, 43136, Note_on_c, 1, 51, 95
3, 43264, Note_off_c, 1, 51, 0
3, 43264, Note_on_c, 1, 52, 97
3, 43392, Note_off_c, 1, 52, 0
3, 43392, Note_on_c, 1, 52, 97
3, 43520, Note_off_c, 1, 52, 0
3, 43520, Note_on_c, 1, 52, 95
3, 43648, Note_off_c, 1, 52, 0
3, 43648, Note_on_c, 1, 52, 99
3, 43776, Note_off_c, 1, 52, 0
3, 43776, Note_on_c, 1, 45, 97
3, 43776, Note_on_c, 1, 52, 97
3, 43904, Note_off_c, 1, 45, 0
3, 43904, Note_off_c, 1, 52, 0
3, 43904, Note_on_c, 1, 45, 96
3, 43904, Note_on_c, 1, 52, 96
3, 44032, Note_off_c, 1, 45, 0
3, 44032, Note_off_c, 1, 52, 0
3, 44032, Note_on_c, 1, 45, 94
3, 44032, Note_on_c, 1, 52, 94
3, 44160, Note_off_c, 1, 45, 0
3, 44160, Note_off_c, 1, 52, 0
3, 44160, Note_on_c, 1, 45, 96
3, 44160, Note_on_c, 1, 52, 96
3, 44288, Note_off_c, 1, 45, 0
3, 44288, Note_off_c, 1, 52, 0
3, 44288, Note_on_c, 1, 45, 99
3, 44288, Note_on_c, 1, 52, 99
3, 44416, Note_off_c, 1, 45, 0
3, 44416, Note_off_c, 1, 52, 0
3, 44416, Note_on_c, 1, 45, 94
3, 44416, Note_on_c, 1, 52, 94
3, 44544, Note_off_c, 1, 45, 0
3, 44544, Note_off_c, 1, 52, 0
3, 44544, Note_on_c, 1, 45, 96
3, 44544, Note_on_c, 1, 52, 96
3, 44672, Note_off_c, 1, 45, 0
3, 44672, Note_off_c, 1, 52, 0
3, 44672, Note_on_c, 1, 45, 96
3, 44672, Note_on_c, 1, 52, 96
3, 44800, Note_off_c, 1, 45, 0
3, 44800, Note_off_c, 1, 52, 0
3, 44800, Note_on_c, 1, 50, 89
3, 44928, Note_off_c, 1, 50, 0
3, 44928, Note_on_c, 1, 50, 92
3, 45056, Note_off_c, 1, 50, 0
3, 45056, Note_on_c, 1, 52, 99
3, 45184, Note_off_c, 1, 52, 0
3, 45184, Note_on_c, 1, 52, 97
3, 45312, Note_off_c, 1, 52, 0
3, 45312, Note_on_c, 1, 45, 89
3, 45568, Note_off_c, 1, 45, 0
3, 45824, Note_on_c, 1, 45, 87
3, 45952, Note_off_c, 1, 45, 0
3, 45952, Note_on_c, 1, 60, 122
3, 46080, Note_off_c, 1, 60, 0
3, 46080, Note_on_c, 1, 60, 100
3, 46208, Note_off_c, 1, 60, 0
3, 46208, Note_on_c, 1, 60, 101
3, 46336, Note_off_c, 1, 60, 0
3, 46336, Note_on_c, 1, 45, 82
3, 46464, Note_off_c, 1, 45, 0
3, 46464, Note_on_c, 1, 60, 118
3, 46592, Note_off_c, 1, 60, 0
3, 46592, Note_on_c, 1, 60, 96
3, 46720, Note_off_c, 1, 60, 0
3, 46720, Note_on_c, 1, 60, 93
3, 46848, Note_off_c, 1, 60, 0
3, 46848, Note_on_c, 1, 45, 85
3, 46976, Note_off_c, 1, 45, 0
3, 46976, Note_on_c, 1, 60, 117
3, 47104, Note_off_c, 1, 60, 0
3, 47104, Note_on_c, 1, 60, 102
3, 47232, Note_off_c, 1, 60, 0
3, 47232, Note_on_c, 1, 60, 98
3, 47360, Note_off_c, 1, 60, 0
3, 47360, Note_on_c, 1, 45, 86
3, 47488, Note_off_c, 1, 45, 0
3, 47488, Note_on_c, 1, 60, 121
3, 47616, Note_off_c, 1, 60, 0
3, 47616, Note_on_c, 1, 60, 99
3, 47744, Note_off_c, 1, 60, 0
3, 47744, Note_on_c, 1, 60, 101
3, 47872, Note_off_c, 1, 60, 0
3, 47872, Note_on_c, 1, 40, 84
3, 48000, Note_off_c, 1, 40, 0
3, 48000, Note_on_c, 1, 55, 103
3, 48128, Note_off_c, 1, 55, 0
3, 48128, Note_on_c, 1, 55, 99
3, 48256, Note_off_c, 1, 55, 0
3, 48256, Note_on_c, 1, 55, 97
3, 48384, Note_off_c, 1, 55, 0
3, 48384, Note_on_c, 1, 40, 77
3, 48512, Note_off_c, 1, 40, 0
3, 48512, Note_on_c, 1, 55, 111
3, 48640, Note_off_c, 1, 55, 0
3, 48640, Note_on_c, 1, 55, 96
3, 48768, Note_off_c, 1, 55, 0
3, 48768, Note_on_c, 1, 55, 98
3, 48896, Note_off_c, 1, 55, 0
3, 48896, Note_on_c, 1, 40, 83
3, 49024, Note_off_c, 1, 40, 0
3, 49152, Note_on_c, 1, 47, 85
3, 49280, Note_off_c, 1, 47, 0
3, 49408, Note_on_c, 1, 40, 89
3, 49536, Note_off_c, 1, 40, 0
3, 49920, Note_on_c, 1, 45, 89
3, 50048, Note_off_c, 1, 45, 0
3, 50048, Note_on_c, 1, 60, 120
3, 50176, Note_off_c, 1, 60, 0
3, 50176, Note_on_c, 1, 60, 101
3, 50304, Note_off_c, 1, 60, 0
3, 50304, Note_on_c, 1, 60, 95
3, 50432, Note_off_c, 1, 60, 0
3, 50432, Note_on_c, 1, 45, 84
3, 50560, Note_off_c, 1, 45, 0
3, 50560, Note_on_c, 1, 60, 125
3, 50688, Note_off_c, 1, 60, 0
3, 50688, Note_on_c, 1, 60, 100
3, 50816, Note_off_c, 1, 60, 0
3, 50816, Note_on_c, 1, 60, 100
3, 50944, Note_off_c, 1, 60, 0
3, 50944, Note_on_c, 1, 45, 86
3, 51072, Note_off_c, 1, 45, 0
3, 51072, Note_on_c, 1, 60, 118
3, 51200, Note_off_c, 1, 60, 0
3, 51200, Note_on_c, 1, 60, 97
3, 51328, Note_off_c, 1, 60, 0
3, 51328, Note_on_c, 1, 60, 92
3, 51456, Note_off_c, 1, 60, 0
3, 51456, Note_on_c, 1, 45, 86
3, 51584, Note_off_c, 1, 45, 0
3, 51584, Note_on_c, 1, 60, 120
3, 51712, Note_off_c, 1, 60, 0
3, 51712, Note_on_c, 1, 60, 101
3, 51840, Note_off_c, 1, 60, 0
3, 51840, Note_on_c, 1, 60, 98
3, 51968, Note_off_c, 1, 60, 0
3, 51968, Note_on_c, 1, 40, 82
3, 52096, Note_off_c, 1, 40, 0
3, 52096, Note_on_c, 1, 55, 106
3, 52224, Note_off_c, 1, 55, 0
3, 52224, Note_on_c, 1, 55, 103
3, 52352, Note_off_c, 1, 55, 0
3, 52352, Note_on_c, 1, 55, 96
3, 52480, Note_off_c, 1, 55, 0
3, 52480, Note_on_c, 1, 40, 83
3, 52608, Note_off_c, 1, 40, 0
3, 52608, Note_on_c, 1, 55, 106
3, 52736, Note_off_c, 1, 55, 0
3, 52736, Note_on_c, 1, 55, 96
3, 52864, Note_off_c, 1, 55, 0
3, 52864, Note_on_c, 1, 55, 97
3, 52992, Note_off_c, 1, 55, 0
3, 52992, Note_on_c, 1, 40, 84
3, 53120, Note_off_c, 1, 40, 0
3, 53248, Note_on_c, 1, 47, 86
3, 53376, Note_off_c, 1, 47, 0
3, 53504, Note_on_c, 1, 40, 88
3, 53632, Note_off_c, 1, 40, 0
3, 54016, Note_on_c, 1, 36, 86
3, 54080, Note_off_c, 1, 36, 0
3, 54144, Note_on_c, 1, 60, 122
3, 54208, Note_off_c, 1, 60, 0
3, 54272, Note_on_c, 1, 40, 90
3, 54336, Note_off_c, 1, 40, 0
3, 54400, Note_on_c, 1, 60, 119
3, 54464, Note_off_c, 1, 60, 0
3, 54528, Note_on_c, 1, 43, 88
3, 54784, Note_off_c, 1, 43, 0
3, 55040, Note_on_c, 1, 36, 89
3, 55104, Note_off_c, 1, 36, 0
3, 55168, Note_on_c, 1, 60, 120
3, 55232, Note_off_c, 1, 60, 0
3, 55296, Note_on_c, 1, 40, 91
3, 55360, Note_off_c, 1, 40, 0
3, 55424, Note_on_c, 1, 60, 121
3, 55488, Note_off_c, 1, 60, 0
3, 55552, Note_on_c, 1, 43, 92
3, 55808, Note_off_c, 1, 43, 0
3, 56064, Note_on_c, 1, 45, 88
3, 56128, Note_off_c, 1, 45, 0
3, 56192, Note_on_c, 1, 57, 104
3, 56256, Note_off_c, 1, 57, 0
3, 56320, Note_on_c, 1, 48, 88
3, 56384, Note_off_c, 1, 48, 0
3, 56448, Note_on_c, 1, 57, 107
3, 56512, Note_off_c, 1, 57, 0
3, 56576, Note_on_c, 1, 52, 89
3, 56832, Note_off_c, 1, 52, 0
3, 57088, Note_on_c, 1, 45, 88
3, 57152, Note_off_c, 1, 45, 0
3, 57216, Note_on_c, 1, 57, 111
3, 57280, Note_off_c, 1, 57, 0
3, 57344, Note_on_c, 1, 48, 88
3, 57408, Note_off_c, 1, 48, 0
3, 57472, Note_on_c, 1, 57, 105
3, 57536, Note_off_c, 1, 57, 0
3, 57600, Note_on_c, 1, 52, 93
3, 57856, Note_off_c, 1, 52, 0
3, 58112, Note_on_c, 1, 45, 85
3, 58240, Note_off_c, 1, 45, 0
3, 58240, Note_on_c, 1, 60, 124
3, 58368, Note_off_c, 1, 60, 0
3, 58368, Note_on_c, 1, 60, 102
3, 58496, Note_off_c, 1, 60, 0
3, 58496, Note_on_c, 1, 60, 97
3, 58624, Note_off_c, 1, 60, 0
3, 58624, Note_on_c, 1, 45, 84
3, 58752, Note_off_c, 1, 45, 0
3, 58752, Note_on_c, 1, 60, 120
3, 58880, Note_off_c, 1, 60, 0
3, 58880, Note_on_c, 1, 60, 101
3, 59008, Note_off_c, 1, 60, 0
3, 59008, Note_on_c, 1, 60, 99
3, 59136, Note_off_c, 1, 60, 0
3, 59136, Note_on_c, 1, 45, 78
3, 59264, Note_off_c, 1, 45, 0
3, 59264, Note_on_c, 1, 60, 117
3, 59392, Note_off_c, 1, 60, 0
3, 59392, Note_on_c, 1, 60, 96
3, 59520, Note_off_c, 1, 60, 0
3, 59520, Note_on_c, 1, 60, 98
3, 59648, Note_off_c, 1, 60, 0
3, 59648, Note_on_c, 1, 41, 85
3, 59776, Note_off_c, 1, 41, 0
3, 59776, Note_on_c, 1, 57, 105
3, 59904, Note_off_c, 1, 57, 0
3, 59904, Note_on_c, 1, 57, 92
3, 60032, Note_off_c, 1, 57, 0
3, 60032, Note_on_c, 1, 57, 95
3, 60160, Note_off_c, 1, 57, 0
3, 60160, Note_on_c, 1, 52, 86
3, 60288, Note_off_c, 1, 52, 0
3, 60288, Note_on_c, 1, 57, 102
3, 60416, Note_off_c, 1, 57, 0
3, 60416, Note_on_c, 1, 50, 93
3, 60544, Note_off_c, 1, 50, 0
3, 60544, Note_on_c, 1, 59, 105
3, 60672, Note_off_c, 1, 59, 0
3, 60672, Note_on_c, 1, 48, 87
3, 60800, Note_off_c, 1, 48, 0
3, 60800, Note_on_c, 1, 57, 104
3, 60928, Note_off_c, 1, 57, 0
3, 60928, Note_on_c, 1, 50, 91
3, 61056, Note_off_c, 1, 50, 0
3, 61056, Note_on_c, 1, 59, 106
3, 61184, Note_off_c, 1, 59, 0
3, 61184, Note_on_c, 1, 52, 88
3, 61312, Note_off_c, 1, 52, 0
3, 61312, Note_on_c, 1, 57, 103
3, 61440, Note_off_c, 1, 57, 0
3, 61440, Note_on_c, 1, 40, 82
3, 61568, Note_off_c, 1, 40, 0
3, 61568, Note_on_c, 1, 52, 107
3, 61696, Note_off_c, 1, 52, 0
3, 61696, Note_on_c, 1, 45, 88
3, 61952, Note_off_c, 1, 45, 0
3, 62208, Note_on_c, 1, 45, 85
3, 62208, Note_on_c, 1, 52, 85
3, 62336, Note_off_c, 1, 45, 0
3, 62336, Note_off_c, 1, 52, 0
3, 62336, Note_on_c, 1, 45, 95
3, 62336, Note_on_c, 1, 52, 95
3, 62464, Note_off_c, 1, 45, 0
3, 62464, Note_off_c, 1, 52, 0
3, 62464, Note_on_c, 1, 45, 99
3, 62464, Note_on_c, 1, 52, 99
3, 62592, Note_off_c, 1, 45, 0
3, 62592, Note_off_c, 1, 52, 0
3, 62592, Note_on_c, 1, 45, 94
3, 62592, Note_on_c, 1, 52, 94
3, 62720, Note_off_c, 1, 45, 0
3, 62720, Note_off_c, 1, 52, 0
3, 62720, Note_on_c, 1, 45, 96
3, 62720, Note_on_c, 1, 52, 96
3, 62848, Note_off_c, 1, 45, 0
3, 62848, Note_off_c, 1, 52, 0
3, 62848, Note_on_c, 1, 45, 95
3, 62848, Note_on_c, 1, 52, 95
3, 62976, Note_off_c, 1, 45, 0
3, 62976, Note_off_c, 1, 52, 0
3, 62976, Note_on_c, 1, 45, 92
3, 62976, Note_on_c, 1, 52, 92
3, 63104, Note_off_c, 1, 45, 0
3, 63104, Note_off_c, 1, 52, 0
3, 63104, Note_on_c, 1, 45, 95
3, 63104, Note_on_c, 1, 52, 95
3, 63232, Note_off_c, 1, 45, 0
3, 63232, Note_off_c, 1, 52, 0
3, 63232, Note_on_c, 1, 50, 97
3, 63360, Note_off_c, 1, 50, 0
3, 63360, Note_on_c, 1, 50, 93
3, 63488, Note_off_c, 1, 50, 0
3, 63488, Note_on_c, 1, 51, 102
3, 63616, Note_off_c, 1, 51, 0
3, 63616, Note_on_c, 1, 51, 96
3, 63744, Note_off_c, 1, 51, 0
3, 63744, Note_on_c, 1, 52, 101
3, 63872, Note_off_c, 1, 52, 0
3, 63872, Note_on_c, 1, 52, 95
3, 64000, Note_off_c, 1, 52, 0
3, 64000, Note_on_c, 1, 52, 97
3, 64128, Note_off_c, 1, 52, 0
3, 64128, Note_on_c, 1, 52, 95
3, 64256, Note_off_c, 1, 52, 0
3, 64256, Note_on_c, 1, 45, 95
3, 64256, Note_on_c, 1, 52, 95
3, 64384, Note_off_c, 1, 45, 0
3, 64384, Note_off_c, 1, 52, 0
3, 64384, Note_on_c, 1, 45, 97
3, 64384, Note_on_c, 1, 52, 97
3, 64512, Note_off_c, 1, 45, 0
3, 64512, Note_off_c, 1, 52, 0
3, 64512, Note_on_c, 1, 45, 96
3, 64512, Note_on_c, 1, 52, 96
3, 64640, Note_off_c, 1, 45, 0
3, 64640, Note_off_c, 1, 52, 0
3, 64640, Note_on_c, 1, 45, 91
3, 64640, Note_on_c, 1, 52, 91
3, 64768, Note_off_c, 1, 45, 0
3, 64768, Note_off_c, 1, 52, 0
3, 64768, Note_on_c, 1, 45, 95
3, 64768, Note_on_c, 1, 52, 95
3, 64896, Note_off_c, 1, 45, 0
3, 64896, Note_off_c, 1, 52, 0
3, 64896, Note_on_c, 1, 45, 101
3, 64896, Note_on_c, 1, 52, 101
3, 65024, Note_off_c, 1, 45, 0
3, 65024, Note_off_c, 1, 52, 0
3, 65024, Note_on_c, 1, 45, 97
3, 65024, Note_on_c, 1, 52, 97
3, 65152, Note_off_c, 1, 45, 0
3, 65152, Note_off_c, 1, 52, 0
3, 65152, Note_on_c, 1, 45, 97
3, 65152, Note_on_c, 1, 52, 97
3, 65280, Note_off_c, 1, 45, 0
3, 65280, Note_off_c, 1, 52, 0
3, 65280, Note_on_c, 1, 50, 97
3, 65408, Note_off_c, 1, 50, 0
3, 65408, Note_on_c, 1, 50, 91
3, 65536, Note_off_c, 1, 50, 0
3, 65536, Note_on_c, 1, 52, 102
3, 65664, Note_off_c, 1, 52, 0
3, 65664, Note_on_c, 1, 52, 98
3, 65792, Note_off_c, 1, 52, 0
3, 65792, Note_on_c, 1, 45, 88
3, 66048, Note_off_c, 1, 45, 0
3, 66304, Note_on_c, 1, 45, 86
3, 66304, Note_on_c, 1, 52, 86
3, 66432, Note_off_c, 1, 45, 0
3, 66432, Note_off_c, 1, 52, 0
3, 66432, Note_on_c, 1, 45, 98
3, 66432, Note_on_c, 1, 52, 98
3, 66560, Note_off_c, 1, 45, 0
3, 66560, Note_off_c, 1, 52, 0
3, 66560, Note_on_c, 1, 45, 94
3, 66560, Note_on_c, 1, 52, 94
3, 66688, Note_off_c, 1, 45, 0
3, 66688, Note_off_c, 1, 52, 0
3, 66688, Note_on_c, 1, 45, 95
3, 66688, Note_on_c, 1, 52, 95
3, 66816, Note_off_c, 1, 45, 0
3, 66816, Note_off_c, 1, 52, 0
3, 66816, Note_on_c, 1, 45, 99
3, 66816, Note_on_c, 1, 52, 99
3, 66944, Note_off_c, 1, 45, 0
3, 66944, Note_off_c, 1, 52, 0
3, 66944, Note_on_c, 1, 45, 98
3, 66944, Note_on_c, 1, 52, 98
3, 67072, Note_off_c, 1, 45, 0
3, 67072, Note_off_c, 1, 52, 0
3, 67072, Note_on_c, 1, 45, 94
3, 67072, Note_on_c, 1, 52, 94
3, 67200, Note_off_c, 1, 45, 0
3, 67200, Note_off_c, 1, 52, 0
3, 67200, Note_on_c, 1, 45, 97
3, 67200, Note_on_c, 1, 52, 97
3, 67328, Note_off_c, 1, 45, 0
3, 67328, Note_off_c, 1, 52, 0
3, 67328, Note_on_c, 1, 50, 96
3, 67456, Note_off_c, 1, 50, 0
3, 67456, Note_on_c, 1, 50, 94
3, 67584, Note_off_c, 1, 50, 0
3, 67584, Note_on_c, 1, 51, 103
3, 67712, Note_off_c, 1, 51, 0
3, 67712, Note_on_c, 1, 51, 100
3, 67840, Note_off_c, 1, 51, 0
3, 67840, Note_on_c, 1, 52, 97
3, 67968, Note_off_c, 1, 52, 0
3, 67968, Note_on_c, 1, 52, 101
3, 68096, Note_off_c, 1, 52, 0
3, 68096, Note_on_c, 1, 52, 94
3, 68224, Note_off_c, 1, 52, 0
3, 68224, Note_on_c, 1, 52, 95
3, 68352, Note_off_c, 1, 52, 0
3, 68352, Note_on_c, 1, 45, 101
3, 68352, Note_on_c, 1, 52, 101
3, 68480, Note_off_c, 1, 45, 0
3, 68480, Note_off_c, 1, 52, 0
3, 68480, Note_on_c, 1, 45, 96
3, 68480, Note_on_c, 1, 52, 96
3, 68608, Note_off_c, 1, 45, 0
3, 68608, Note_off_c, 1, 52, 0
3, 68608, Note_on_c, 1, 45, 94
3, 68608, Note_on_c, 1, 52, 94
3, 68736, Note_off_c, 1, 45, 0
3, 68736, Note_off_c, 1, 52, 0
3, 68736, Note_on_c, 1, 45, 96
3, 68736, Note_on_c, 1, 52, 96
3, 68864, Note_off_c, 1, 45, 0
3, 68864, Note_off_c, 1, 52, 0
3, 68864, Note_on_c, 1, 45, 101
3, 68864, Note_on_c, 1, 52, 101
3, 68992, Note_off_c, 1, 45, 0
3, 68992, Note_off_c, 1, 52, 0
3, 68992, Note_on_c, 1, 45, 100
3, 68992, Note_on_c, 1, 52, 100
3, 69120, Note_off_c, 1, 45, 0
3, 69120, Note_off_c, 1, 52, 0
3, 69120, Note_on_c, 1, 45, 98
3, 69120, Note_on_c, 1, 52, 98
3, 69248, Note_off_c, 1, 45, 0
3, 69248, Note_off_c, 1, 52, 0
3, 69248, Note_on_c, 1, 45, 97
3, 69248, Note_on_c, 1, 52, 97
3, 69376, Note_off_c, 1, 45, 0
3, 69376, Note_off_c, 1, 52, 0
3, 69376, Note_on_c, 1, 50, 92
3, 69504, Note_off_c, 1, 50, 0
3, 69504, Note_on_c, 1, 50, 102
3, 69632, Note_off_c, 1, 50, 0
3, 69632, Note_on_c, 1, 52, 100
3, 69760, Note_off_c, 1, 52, 0
3, 69760, Note_on_c, 1, 52, 95
3, 69888, Note_off_c, 1, 52, 0
3, 69888, Note_on_c, 1, 45, 87
3, 70144, Note_off_c, 1, 45, 0
3, 70144, Note_on_c, 1, 45, 92
3, 70272, Note_off_c, 1, 45, 0
3, 70272, Note_on_c, 1, 45, 98
3, 70400, Note_off_c, 1, 45, 0
3, 70400, Note_on_c, 1, 45, 107
3, 70400, Note_on_c, 1, 52, 107
3, 70528, Note_off_c, 1, 45, 0
3, 70528, Note_off_c, 1, 52, 0
3, 70528, Note_on_c, 1, 45, 99
3, 70528, Note_on_c, 1, 52, 99
3, 70656, Note_off_c, 1, 45, 0
3, 70656, Note_off_c, 1, 52, 0
3, 70656, Note_on_c, 1, 45, 99
3, 70656, Note_on_c, 1, 52, 99
3, 70784, Note_off_c, 1, 45, 0
3, 70784, Note_off_c, 1, 52, 0
3, 70784, Note_on_c, 1, 45, 92
3, 70784, Note_on_c, 1, 52, 92
3, 70912, Note_off_c, 1, 45, 0
3, 70912, Note_off_c, 1, 52, 0
3, 70912, Note_on_c, 1, 45, 99
3, 70912, Note_on_c, 1, 52, 99
3, 71040, Note_off_c, 1, 45, 0
3, 71040, Note_off_c, 1, 52, 0
3, 71040, Note_on_c, 1, 45, 99
3, 71040, Note_on_c, 1, 52, 99
3, 71168, Note_off_c, 1, 45, 0
3, 71168, Note_off_c, 1, 52, 0
3, 71168, Note_on_c, 1, 45, 96
3, 71168, Note_on_c, 1, 52, 96
3, 71296, Note_off_c, 1, 45, 0
3, 71296, Note_off_c, 1, 52, 0
3, 71296, Note_on_c, 1, 45, 97
3, 71296, Note_on_c, 1, 52, 97
3, 71424, Note_off_c, 1, 45, 0
3, 71424, Note_off_c, 1, 52, 0
3, 71424, Note_on_c, 1, 45, 90
3, 71552, Note_off_c, 1, 45, 0
3, 71552, Note_on_c, 1, 45, 102
3, 71680, Note_off_c, 1, 45, 0
3, 71680, Note_on_c, 1, 45, 95
3, 71808, Note_off_c, 1, 45, 0
3, 71808, Note_on_c, 1, 45, 96
3, 71936, Note_off_c, 1, 45, 0
3, 71936, Note_on_c, 1, 50, 104
3, 72064, Note_off_c, 1, 50, 0
3, 72064, Note_on_c, 1, 50, 99
3, 72192, Note_off_c, 1, 50, 0
3, 72192, Note_on_c, 1, 50, 96
3, 72320, Note_off_c, 1, 50, 0
3, 72320, Note_on_c, 1, 50, 97
3, 72448, Note_off_c, 1, 50, 0
3, 72448, Note_on_c, 1, 45, 96
3, 72448, Note_on_c, 1, 52, 96
3, 72576, Note_off_c, 1, 45, 0
3, 72576, Note_off_c, 1, 52, 0
3, 72576, Note_on_c, 1, 45, 97
3, 72576, Note_on_c, 1, 52, 97
3, 72704, Note_off_c, 1, 45, 0
3, 72704, Note_off_c, 1, 52, 0
3, 72704, Note_on_c, 1, 45, 95
3, 72704, Note_on_c, 1, 52, 95
3, 72832, Note_off_c, 1, 45, 0
3, 72832, Note_off_c, 1, 52, 0
3, 72832, Note_on_c, 1, 45, 99
3, 72832, Note_on_c, 1, 52, 99
3, 72960, Note_off_c, 1, 45, 0
3, 72960, Note_off_c, 1, 52, 0
3, 72960, Note_on_c, 1, 40, 85
3, 73088, Note_off_c, 1, 40, 0
3, 73088, Note_on_c, 1, 52, 104
3, 73216, Note_off_c, 1, 52, 0
3, 73216, Note_on_c, 1, 52, 99
3, 73344, Note_off_c, 1, 52, 0
3, 73344, Note_on_c, 1, 52, 99
3, 73472, Note_off_c, 1, 52, 0
3, 73472, Note_on_c, 1, 45, 95
3, 73472, Note_on_c, 1, 52, 95
3, 73600, Note_off_c, 1, 45, 0
3, 73600, Note_off_c, 1, 52, 0
3, 73600, Note_on_c, 1, 45, 97
3, 73600, Note_on_c, 1, 52, 97
3, 73728, Note_off_c, 1, 45, 0
3, 73728, Note_off_c, 1, 52, 0
3, 73728, Note_on_c, 1, 45, 96
3, 73728, Note_on_c, 1, 52, 96
3, 73856, Note_off_c, 1, 45, 0
3, 73856, Note_off_c, 1, 52, 0
3, 73856, Note_on_c, 1, 45, 100
3, 73856, Note_on_c, 1, 52, 100
3, 73984, Note_off_c, 1, 45, 0
3, 73984, Note_off_c, 1, 52, 0
3, 73984, Note_on_c, 1, 45, 98
3, 73984, Note_on_c, 1, 52, 98
3, 74112, Note_off_c, 1, 45, 0
3, 74112, Note_off_c, 1, 52, 0
3, 74112, Note_on_c, 1, 45, 94
3, 74112, Note_on_c, 1, 52, 94
3, 74240, Note_off_c, 1, 45, 0
3, 74240, Note_off_c, 1, 52, 0
3, 74240, Note_on_c, 1, 45, 95
3, 74240, Note_on_c, 1, 52, 95
3, 74368, Note_off_c, 1, 45, 0
3, 74368, Note_off_c, 1, 52, 0
3, 74368, Note_on_c, 1, 45, 98
3, 74368, Note_on_c, 1, 52, 98
3, 74496, Note_off_c, 1, 45, 0
3, 74496, Note_off_c, 1, 52, 0
3, 74496, Note_on_c, 1, 45, 93
3, 74624, Note_off_c, 1, 45, 0
3, 74624, Note_on_c, 1, 45, 96
3, 74752, Note_off_c, 1, 45, 0
3, 74752, Note_on_c, 1, 45, 100
3, 74880, Note_off_c, 1, 45, 0
3, 74880, Note_on_c, 1, 45, 103
3, 75008, Note_off_c, 1, 45, 0
3, 75008, Note_on_c, 1, 50, 100
3, 75136, Note_off_c, 1, 50, 0
3, 75136, Note_on_c, 1, 50, 99
3, 75264, Note_off_c, 1, 50, 0
3, 75264, Note_on_c, 1, 50, 95
3, 75392, Note_off_c, 1, 50, 0
3, 75392, Note_on_c, 1, 50, 101
3, 75520, Note_off_c, 1, 50, 0
3, 75520, Note_on_c, 1, 45, 89
3, 75648, Note_off_c, 1, 45, 0
3, 75648, Note_on_c, 1, 45, 96
3, 75776, Note_off_c, 1, 45, 0
3, 75776, Note_on_c, 1, 45, 97
3, 75904, Note_off_c, 1, 45, 0
3, 75904, Note_on_c, 1, 45, 93
3, 76032, Note_off_c, 1, 45, 0
3, 76032, Note_on_c, 1, 52, 105
3, 76160, Note_off_c, 1, 52, 0
3, 76160, Note_on_c, 1, 52, 97
3, 76288, Note_off_c, 1, 52, 0
3, 76288, Note_on_c, 1, 52, 94
3, 76416, Note_off_c, 1, 52, 0
3, 76416, Note_on_c, 1, 52, 99
3, 76544, Note_off_c, 1, 52, 0
3, 76544, Note_on_c, 1, 45, 96
3, 76672, Note_off_c, 1, 45, 0
3, 76672, Note_on_c, 1, 45, 90
3, 76800, Note_off_c, 1, 45, 0
3, 76800, Note_on_c, 1, 45, 98
3, 76928, Note_off_c, 1, 45, 0
3, 76928, Note_on_c, 1, 45, 96
3, 77056, Note_off_c, 1, 45, 0
3, 77056, Note_on_c, 1, 45, 105
3, 77056, Note_on_c, 1, 52, 105
3, 77184, Note_off_c, 1, 45, 0
3, 77184, Note_off_c, 1, 52, 0
3, 77184, Note_on_c, 1, 45, 98
3, 77184, Note_on_c, 1, 52, 98
3, 77312, Note_off_c, 1, 45, 0
3, 77312, Note_off_c, 1, 52, 0
3, 77312, Note_on_c, 1, 45, 98
3, 77312, Note_on_c, 1, 52, 98
3, 77440, Note_off_c, 1, 45, 0
3, 77440, Note_off_c, 1, 52, 0
3, 77440, Note_on_c, 1, 45, 97
3, 77440, Note_on_c, 1, 52, 97
3, 77568, Note_off_c, 1, 45, 0
3, 77568, Note_off_c, 1, 52, 0
3, 77568, Note_on_c, 1, 45, 99
3, 77568, Note_on_c, 1, 52, 99
3, 77696, Note_off_c, 1, 45, 0
3, 77696, Note_off_c, 1, 52, 0
3, 77696, Note_on_c, 1, 45, 96
3, 77696, Note_on_c, 1, 52, 96
3, 77824, Note_off_c, 1, 45, 0
3, 77824, Note_off_c, 1, 52, 0
3, 77824, Note_on_c, 1, 45, 100
3, 77824, Note_on_c, 1, 52, 100
3, 77952, Note_off_c, 1, 45, 0
3, 77952, Note_off_c, 1, 52, 0
3, 77952, Note_on_c, 1, 45, 98
3, 77952, Note_on_c, 1, 52, 98
3, 78080, Note_off_c, 1, 45, 0
3, 78080, Note_off_c, 1, 52, 0
3, 78080, Note_on_c, 1, 45, 87
3, 78208, Note_off_c, 1, 45, 0
3, 78208, Note_on_c, 1, 45, 91
3, 78336, Note_off_c, 1, 45, 0
3, 78336, Note_on_c, 1, 45, 97
3, 78464, Note_off_c, 1, 45, 0
3, 78464, Note_on_c, 1, 45, 96
3, 78592, Note_off_c, 1, 45, 0
3, 78592, Note_on_c, 1, 50, 100
3, 78720, Note_off_c, 1, 50, 0
3, 78720, Note_on_c, 1, 50, 100
3, 78848, Note_off_c, 1, 50, 0
3, 78848, Note_on_c, 1, 50, 95
3, 78976, Note_off_c, 1, 50, 0
3, 78976, Note_on_c, 1, 50, 95
3, 79104, Note_off_c, 1, 50, 0
3, 79104, Note_on_c, 1, 45, 90
3, 79232, Note_off_c, 1, 45, 0
3, 79232, Note_on_c, 1, 45, 99
3, 79360, Note_off_c, 1, 45, 0
3, 79360, Note_on_c, 1, 45, 97
3, 79488, Note_off_c, 1, 45, 0
3, 79488, Note_on_c, 1, 45, 99
3, 79616, Note_off_c, 1, 45, 0
3, 79616, Note_on_c, 1, 52, 102
3, 79744, Note_off_c, 1, 52, 0
3, 79744, Note_on_c, 1, 52, 95
3, 79872, Note_off_c, 1, 52, 0
3, 79872, Note_on_c, 1, 52, 101
3, 80000, Note_off_c, 1, 52, 0
3, 80000, Note_on_c, 1, 52, 95
3, 80128, Note_off_c, 1, 52, 0
3, 80128, Note_on_c, 1, 45, 94
3, 80128, Note_on_c, 1, 52, 94
3, 80256, Note_off_c, 1, 45, 0
3, 80256, Note_off_c, 1, 52, 0
3, 80256, Note_on_c, 1, 45, 101
3, 80256, Note_on_c, 1, 52, 101
3, 80384, Note_off_c, 1, 45, 0
3, 80384, Note_off_c, 1, 52, 0
3, 80384, Note_on_c, 1, 45, 99
3, 80384, Note_on_c, 1, 52, 99
3, 80512, Note_off_c, 1, 45, 0
3, 80512, Note_off_c, 1, 52, 0
3, 80512, Note_on_c, 1, 45, 96
3, 80512, Note_on_c, 1, 52, 96
3, 80640, Note_off_c, 1, 45, 0
3, 80640, Note_off_c, 1, 52, 0
3, 80640, Note_on_c, 1, 45, 98
3, 80640, Note_on_c, 1, 52, 98
3, 80768, Note_off_c, 1, 45, 0
3, 80768, Note_off_c, 1, 52, 0
3, 80768, Note_on_c, 1, 45, 97
3, 80768, Note_on_c, 1, 52, 97
3, 80896, Note_off_c, 1, 45, 0
3, 80896, Note_off_c, 1, 52, 0
3, 80896, Note_on_c, 1, 45, 96
3, 80896, Note_on_c, 1, 52, 96
3, 81024, Note_off_c, 1, 45, 0
3, 81024, Note_off_c, 1, 52, 0
3, 81024, Note_on_c, 1, 45, 96
3, 81024, Note_on_c, 1, 52, 96
3, 81152, Note_off_c, 1, 45, 0
3, 81152, Note_off_c, 1, 52, 0
3, 81152, Note_on_c, 1, 45, 91
3, 81280, Note_off_c, 1, 45, 0
3, 81280, Note_on_c, 1, 45, 93
3, 81408, Note_off_c, 1, 45, 0
3, 81408, Note_on_c, 1, 45, 97
3, 81536, Note_off_c, 1, 45, 0
3, 81536, Note_on_c, 1, 45, 97
3, 81664, Note_off_c, 1, 45, 0
3, 81664, Note_on_c, 1, 50, 104
3, 81792, Note_off_c, 1, 50, 0
3, 81792, Note_on_c, 1, 50, 95
3, 81920, Note_off_c, 1, 50, 0
3, 81920, Note_on_c, 1, 50, 92
3, 82048, Note_off_c, 1, 50, 0
3, 82048, Note_on_c, 1, 50, 97
3, 82176, Note_off_c, 1, 50, 0
3, 82176, Note_on_c, 1, 45, 86
3, 82304, Note_off_c, 1, 45, 0
3, 82304, Note_on_c, 1, 45, 93
3, 82432, Note_off_c, 1, 45, 0
3, 82432, Note_on_c, 1, 45, 96
3, 82560, Note_off_c, 1, 45, 0
3, 82560, Note_on_c, 1, 45, 97
3, 82688, Note_off_c, 1, 45, 0
3, 82688, Note_on_c, 1, 52, 107
3, 82816, Note_off_c, 1, 52, 0
3, 82816, Note_on_c, 1, 52, 99
3, 82944, Note_off_c, 1, 52, 0
3, 82944, Note_on_c, 1, 52, 97
3, 83072, Note_off_c, 1, 52, 0
3, 83072, Note_on_c, 1, 52, 93
3, 83200, Note_off_c, 1, 52, 0
3, 83200, Note_on_c, 1, 45, 105
3, 83200, Note_on_c, 1, 52, 105
3, 83328, Note_off_c, 1, 45, 0
3, 83328, Note_off_c, 1, 52, 0
3, 83328, Note_on_c, 1, 45, 98
3, 83328, Note_on_c, 1, 52, 98
3, 83456, Note_off_c, 1, 45, 0
3, 83456, Note_off_c, 1, 52, 0
3, 83456, Note_on_c, 1, 45, 99
3, 83456, Note_on_c, 1, 52, 99
3, 83584, Note_off_c, 1, 45, 0
3, 83584, Note_off_c, 1, 52, 0
3, 83584, Note_on_c, 1, 45, 94
3, 83584, Note_on_c, 1, 52, 94
3, 83712, Note_off_c, 1, 45, 0
3, 83712, Note_off_c, 1, 52, 0
3, 83712, Note_on_c, 1, 45, 91
3, 83840, Note_off_c, 1, 45, 0
3, 83840, Note_on_c, 1, 45, 95
3, 83968, Note_off_c, 1, 45, 0
3, 83968, Note_on_c, 1, 45, 93
3, 84096, Note_off_c, 1, 45, 0
3, 84096, Note_on_c, 1, 45, 99
3, 84224, Note_off_c, 1, 45, 0
3, 84224, Note_on_c, 1, 45, 110
3, 84224, Note_on_c, 1, 52, 110
3, 84352, Note_off_c, 1, 45, 0
3, 84352, Note_off_c, 1, 52, 0
3, 84352, Note_on_c, 1, 45, 96
3, 84352, Note_on_c, 1, 52, 96
3, 84480, Note_off_c, 1, 45, 0
3, 84480, Note_off_c, 1, 52, 0
3, 84480, Note_on_c, 1, 45, 95
3, 84480, Note_on_c, 1, 52, 95
3, 84608, Note_off_c, 1, 45, 0
3, 84608, Note_off_c, 1, 52, 0
3, 84608, Note_on_c, 1, 45, 99
3, 84608, Note_on_c, 1, 52, 99
3, 84736, Note_off_c, 1, 45, 0
3, 84736, Note_off_c, 1, 52, 0
3, 84736, Note_on_c, 1, 45, 88
3, 84864, Note_off_c, 1, 45, 0
3, 84864, Note_on_c, 1, 45, 94
3, 84992, Note_off_c, 1, 45, 0
3, 84992, Note_on_c, 1, 45, 97
3, 85120, Note_off_c, 1, 45, 0
3, 85120, Note_on_c, 1, 45, 100
3, 85248, Note_off_c, 1, 45, 0
3, 85248, Note_on_c, 1, 45, 96
3, 85504, Note_off_c, 1, 45, 0
3, 85504, Note_on_c, 1, 45, 102
3, 85504, Note_on_c, 1, 52, 102
3, 85760, Note_off_c, 1, 45, 0
3, 85760, Note_off_c, 1, 52, 0
3, 85760, Note_on_c, 1, 45, 99
3, 85760, Note_on_c, 1, 52, 99
3, 86016, Note_off_c, 1, 45, 0
3, 86016, Note_off_c, 1, 52, 0
3, 86017, End_track
0, 0, End_of_file
